<svg width="24" height="24" viewBox="0 0 24 24" fill="none" xmlns="http://www.w3.org/2000/svg"> <g clip-path="url(#clip0_2085_392504)"> <path d="M8.09995 3.19C9.21995 2.43 10.56 2 12 2C15.89 2 19.05 5.16 19.05 9.05V14.95C19.05 18.84 15.89 22 12 22C8.10995 22 4.94995 18.84 4.94995 14.95V9.05C4.94995 8.3 5.06995 7.59 5.27995 6.91M12 5.73C10.17 5.73 8.67995 7.22 8.67995 9.05V14.94C8.67995 16.77 10.17 18.26 12 18.26C13.83 18.26 15.32 16.77 15.32 14.94V9.05C15.32 7.22 13.83 5.73 12 5.73Z" stroke="white" stroke-width="1.5" stroke-linecap="round" stroke-linejoin="round"/> </g> <defs> <clipPath id="clip0_2085_392504"> <rect width="24" height="24" fill="white"/> </clipPath> </defs> </svg>
