<svg width="24" height="24" viewBox="0 0 24 24" fill="none" xmlns="http://www.w3.org/2000/svg"> <path d="M21.9743 4.85996L21.0043 5.08996C20.3143 5.24996 19.7643 5.78995 19.6043 6.48995L19.3743 7.45995C19.3543 7.55995 19.2043 7.55995 19.1743 7.45995L18.9443 6.48995C18.7843 5.79995 18.2443 5.24996 17.5443 5.08996L16.5743 4.85996C16.4743 4.83996 16.4743 4.68995 16.5743 4.65995L17.5443 4.42995C18.2343 4.26995 18.7843 3.72995 18.9443 3.02995L19.1743 2.05995C19.1943 1.95995 19.3443 1.95995 19.3743 2.05995L19.6043 3.02995C19.7643 3.71995 20.3043 4.26995 21.0043 4.42995L21.9743 4.65995C22.0743 4.67995 22.0743 4.82996 21.9743 4.85996Z" stroke="white" stroke-width="1.5" stroke-miterlimit="10"/> <path d="M17.1342 15.71L14.8142 13.03L17.1342 10.34" stroke="white" stroke-width="1.5" stroke-linecap="round" stroke-linejoin="round"/> <path d="M13.8643 10.3699V15.6899" stroke="white" stroke-width="1.5" stroke-linecap="round" stroke-linejoin="round"/> <path d="M11.7542 14.92H7.15416C6.94416 14.92 6.82416 14.68 6.94416 14.51L9.99416 10.45C10.1442 10.25 10.4642 10.3599 10.4542 10.6099L10.3542 16.01" stroke="white" stroke-width="1.5" stroke-linecap="round" stroke-linejoin="round"/> <path d="M22.0142 10.12V17C22.0142 19.75 19.7642 22 17.0142 22H7.01416M2.01416 17V6.99995C2.01416 4.24995 4.26416 1.99995 7.01416 1.99995H14.8442" stroke="white" stroke-width="1.5" stroke-linecap="round" stroke-linejoin="round"/> </svg>
