<svg width="24" height="24" viewBox="0 0 24 24" fill="none" xmlns="http://www.w3.org/2000/svg"> <g clip-path="url(#clip0_3111_14472)"> <path d="M21.9701 17.19L20.6301 17.5C19.6701 17.72 18.9201 18.47 18.7001 19.43L18.3901 20.77C18.3601 20.91 18.1501 20.91 18.1201 20.77L17.8101 19.43C17.5901 18.47 16.8401 17.72 15.8801 17.5L14.5401 17.19C14.4001 17.16 14.4001 16.95 14.5401 16.92L15.8801 16.61C16.8401 16.39 17.5901 15.64 17.8101 14.68L18.1201 13.34C18.1501 13.2 18.3601 13.2 18.3901 13.34L18.7001 14.68C18.9201 15.64 19.6701 16.39 20.6301 16.61L21.9701 16.92C22.1101 16.95 22.1101 17.16 21.9701 17.19Z" stroke="white" stroke-width="1.5" stroke-miterlimit="10"/> <path d="M10.95 18.84H6C3.79 18.84 2 17.05 2 14.84V7.05C2 4.84 3.79 3.05 6 3.05H16.95C19.16 3.05 20.95 4.84 20.95 7.05V10.42" stroke="white" stroke-width="1.5" stroke-linecap="round" stroke-linejoin="round"/> <path d="M20.95 8.35H13M2 8.35H6" stroke="white" stroke-width="1.5" stroke-linecap="round" stroke-linejoin="round"/> </g> <defs> <clipPath id="clip0_3111_14472"> <rect width="24" height="24" fill="white"/> </clipPath> </defs> </svg>
