<svg width="24" height="24" viewBox="0 0 24 24" fill="none" xmlns="http://www.w3.org/2000/svg"> <g clip-path="url(#clip0_2085_381308)"> <path d="M5.42023 7.44023C4.89023 8.21023 4.48023 9.08023 4.24023 10.0102C4.16023 10.0002 4.08023 9.99023 3.99023 9.99023C2.89023 9.99023 1.99023 10.8902 1.99023 11.9902C1.99023 13.0902 2.89023 13.9902 3.99023 13.9902C4.07023 13.9902 4.16023 13.9902 4.24023 13.9702C5.12023 17.4302 8.26023 19.9902 11.9902 19.9902C15.7202 19.9902 18.8602 17.4302 19.7402 13.9702C19.8202 13.9802 19.9002 13.9902 19.9902 13.9902C21.0902 13.9902 21.9902 13.0902 21.9902 11.9902C21.9902 10.8902 21.0902 9.99023 19.9902 9.99023C19.9102 9.99023 19.8202 9.99023 19.7402 10.0102C18.8602 6.55023 15.7202 3.99023 11.9902 3.99023C10.5202 3.99023 9.15023 4.39023 7.97023 5.07023M12.0002 4.00023C13.1002 4.00023 14.0002 4.90023 14.0002 6.00023C14.0002 7.10023 13.1002 8.00023 12.0002 8.00023M14.5002 15.0002C13.0702 16.1102 10.9302 16.1102 9.50023 15.0002M9.00023 10.5002V11.5002M15.0002 10.5002V11.5002" stroke="white" stroke-width="1.5" stroke-linecap="round" stroke-linejoin="round"/> </g> <defs> <clipPath id="clip0_2085_381308"> <rect width="24" height="24" fill="white"/> </clipPath> </defs> </svg>
