<svg width="24" height="24" viewBox="0 0 24 24" fill="none" xmlns="http://www.w3.org/2000/svg"> <g clip-path="url(#clip0_2085_381203)"> <path d="M6.31008 7.99005C6.58008 7.54005 6.91008 7.13005 7.29008 6.75005C8.54008 5.50005 10.2401 4.80005 12.0001 4.80005C13.7601 4.80005 15.4601 5.50005 16.7101 6.75005C17.9601 8.00005 18.6601 9.70005 18.6601 11.46V21.99H5.33008V11.46" stroke="white" stroke-width="1.5" stroke-linecap="round" stroke-linejoin="round"/> <path d="M11.9998 4.80005C12.9898 4.80005 13.9298 5.19005 14.6298 5.89005C15.3298 6.59005 15.7198 7.54005 15.7198 8.52005V21.66C15.7198 21.75 15.6898 21.83 15.6298 21.89C15.5698 21.95 15.4898 21.98 15.3998 21.98H8.59979C8.50979 21.98 8.42979 21.95 8.36979 21.89C8.30979 21.83 8.27979 21.75 8.27979 21.66V8.52005C8.27979 7.53005 8.66979 6.59005 9.36979 5.89005C10.0698 5.19005 11.0198 4.80005 11.9998 4.80005Z" stroke="white" stroke-width="1.5" stroke-linecap="round" stroke-linejoin="round"/> <path d="M12 4.80005V22" stroke="white" stroke-width="1.5" stroke-linecap="round" stroke-linejoin="round"/> <path d="M12.0001 4.8C12.7701 4.8 13.4001 4.17 13.4001 3.4C13.4001 2.63 12.7701 2 12.0001 2C11.2301 2 10.6001 2.63 10.6001 3.4C10.6001 4.17 11.2301 4.8 12.0001 4.8Z" stroke="white" stroke-width="1.5" stroke-linecap="round" stroke-linejoin="round"/> <path d="M19.1798 22H4.81982" stroke="white" stroke-width="1.5" stroke-linecap="round" stroke-linejoin="round"/> </g> <defs> <clipPath id="clip0_2085_381203"> <rect width="24" height="24" fill="white"/> </clipPath> </defs> </svg>
