<svg width="24" height="24" viewBox="0 0 24 24" fill="none" xmlns="http://www.w3.org/2000/svg"> <g clip-path="url(#clip0_4482_8800)"> <path d="M9.49004 13.0701C8.39004 11.8201 8.39004 9.95005 9.49004 8.71005L11.17 6.81005C11.38 6.57005 11.68 6.43005 12 6.43005C12.32 6.43005 12.62 6.57005 12.83 6.81005L14.51 8.71005C15.61 9.96005 15.61 11.8301 14.51 13.0701C13.88 13.7901 12.96 14.2001 12 14.2001C11.04 14.2001 10.13 13.7901 9.49004 13.0701Z" stroke="white" stroke-width="1.5" stroke-linecap="round" stroke-linejoin="round"/> <path d="M14.7797 17.83H9.21973" stroke="white" stroke-width="1.5" stroke-linecap="round" stroke-linejoin="round"/> <path d="M2 7.54V7C2 4.24 4.24 2 7 2H17C19.76 2 22 4.24 22 7V17C22 19.76 19.76 22 17 22H7C4.24 22 2 19.76 2 17V12" stroke="white" stroke-width="1.5" stroke-linecap="round" stroke-linejoin="round"/> </g> <defs> <clipPath id="clip0_4482_8800"> <rect width="24" height="24" fill="white"/> </clipPath> </defs> </svg>
