<svg width="24" height="24" viewBox="0 0 24 24" fill="none" xmlns="http://www.w3.org/2000/svg"> <g clip-path="url(#clip0_2085_392411)"> <path d="M6.99 16.3596H4.49C3.11 16.3596 2 15.2396 2 13.8696V9.63965C2 8.53965 2.9 7.63965 4 7.63965H6.49" stroke="white" stroke-width="1.41" stroke-linecap="round" stroke-linejoin="round"/> <path d="M12.49 7.63965H15.02C16.13 7.63965 17.02 8.53965 17.02 9.63965V13.8696C17.02 15.2396 15.91 16.3596 14.53 16.3596H12" stroke="white" stroke-width="1.41" stroke-linecap="round" stroke-linejoin="round"/> <path d="M10.76 12.6199C10.76 13.3099 10.2 13.8599 9.52002 13.8599C8.84002 13.8599 8.27002 13.2999 8.27002 12.6199V11.3799H10.76V12.6199Z" stroke="white" stroke-width="1.41" stroke-linecap="round" stroke-linejoin="round"/> <path d="M17.02 8.88965H18.26C20.32 8.88965 21.99 10.5596 21.99 12.6196C21.99 13.3096 21.43 13.8596 20.75 13.8596C20.07 13.8596 19.5 13.2996 19.5 12.6196V11.3796C19.5 10.0096 18.39 8.88965 17.01 8.88965H17.02Z" stroke="white" stroke-width="1.41" stroke-linecap="round" stroke-linejoin="round"/> <path d="M17.02 10.1299C17.02 11.4999 15.91 12.6199 14.53 12.6199H10.75" stroke="white" stroke-width="1.41" stroke-linecap="round" stroke-linejoin="round"/> <path d="M2 10.1299C2 11.4999 3.11 12.6199 4.49 12.6199H8.27" stroke="white" stroke-width="1.41" stroke-linecap="round" stroke-linejoin="round"/> </g> <defs> <clipPath id="clip0_2085_392411"> <rect width="24" height="24" fill="white"/> </clipPath> </defs> </svg>
