<svg width="24" height="24" viewBox="0 0 24 24" fill="none" xmlns="http://www.w3.org/2000/svg"> <g clip-path="url(#clip0_2085_389950)"> <path d="M8.88 22.0001L2 15.1201" stroke="white" stroke-width="1.5" stroke-linecap="round" stroke-linejoin="round"/> <path d="M11.4402 18.5698L16.4502 13.5598L17.4502 10.5498L13.4502 6.5498L10.4402 7.5498L5.14016 12.8498C4.75016 13.2398 4.75016 13.8698 5.14016 14.2698L5.44016 14.5598L9.44016 18.5598H9.45016" stroke="white" stroke-width="1.5" stroke-linecap="round" stroke-linejoin="round"/> <path d="M5.43994 14.5596L3.43994 16.5596L7.43994 20.5596L9.35994 18.6396L9.42994 18.5696L9.43994 18.5596" stroke="white" stroke-width="1.5" stroke-linecap="round" stroke-linejoin="round"/> <path d="M17.4499 10.55L20.7499 7.25C22.7499 5.25 21.7499 2.25 21.7499 2.25C21.7499 2.25 18.7499 1.25 16.7399 3.25L13.4399 6.55" stroke="white" stroke-width="1.5" stroke-linecap="round" stroke-linejoin="round"/> <path d="M10.4399 7.5498L16.4499 13.5598" stroke="white" stroke-width="1.5" stroke-linecap="round" stroke-linejoin="round"/> </g> <defs> <clipPath id="clip0_2085_389950"> <rect width="24" height="24" fill="white"/> </clipPath> </defs> </svg>
