<svg width="24" height="24" viewBox="0 0 24 24" fill="none" xmlns="http://www.w3.org/2000/svg"> <g clip-path="url(#clip0_4482_15848)"> <path d="M8.14993 21.98H4.71993C4.12993 21.98 3.58993 21.67 3.27993 21.17C1.13993 17.67 1.77993 12.59 4.37993 9.36L3.74993 5.12C3.62993 4.34 3.85993 3.54 4.37993 2.94C4.89993 2.34 5.64993 2 6.43993 2C7.22993 2 7.97993 2.34 8.49993 2.94C9.01993 3.54 9.24993 4.33 9.12993 5.12L8.49993 9.36C11.0999 12.58 11.7399 17.66 9.59993 21.17C9.28993 21.67 8.74993 21.98 8.15993 21.98H8.14993Z" stroke="white" stroke-width="1.5" stroke-linecap="round" stroke-linejoin="round"/> <path d="M8.52035 9.21973H4.36035" stroke="white" stroke-width="1.5" stroke-linecap="round" stroke-linejoin="round"/> <path d="M9.83984 11.5503C11.4498 9.20031 14.3798 8.14031 17.1298 8.90031C18.2798 9.22031 19.2998 9.84031 20.0998 10.6503" stroke="white" stroke-width="1.5" stroke-linecap="round" stroke-linejoin="round"/> <path d="M10.2998 19.7002C12.1698 21.8502 15.1998 22.5802 17.8398 21.5002C20.4798 20.4302 22.1498 17.7902 21.9798 14.9502" stroke="white" stroke-width="1.5" stroke-linecap="round" stroke-linejoin="round"/> </g> <defs> <clipPath id="clip0_4482_15848"> <rect width="24" height="24" fill="white"/> </clipPath> </defs> </svg>
