<svg width="24" height="24" viewBox="0 0 24 24" fill="none" xmlns="http://www.w3.org/2000/svg"> <g clip-path="url(#clip0_2085_385701)"> <path d="M4.99985 15.2899C4.76985 15.1199 4.58985 14.8899 4.43985 14.5799C4.20985 13.9999 4.09985 13.3699 4.12985 12.7399V10.6499C4.12985 10.2099 4.26985 9.77995 4.50985 9.40995C4.74985 9.02995 5.09985 8.72995 5.49985 8.54995C5.78985 8.37995 6.11985 8.26995 6.45985 8.23995C6.79985 8.20995 7.13985 8.25995 7.45985 8.37995C7.71985 8.49995 7.94985 8.68995 8.09985 8.92995C8.24985 9.16995 8.32985 9.45995 8.31985 9.74995C9.02985 9.84995 9.66985 10.2199 10.1098 10.7799C10.5598 11.3399 10.7698 12.0399 10.7198 12.7499C10.7498 13.1599 10.6898 13.5699 10.5498 13.9499C10.4098 14.3299 10.1798 14.68 9.89985 14.97C9.60985 15.26 9.25985 15.4799 8.87985 15.6199" stroke="white" stroke-width="1.5" stroke-linecap="round" stroke-linejoin="round"/> <path d="M2 10.2803V13.7103" stroke="white" stroke-width="1.5" stroke-linecap="round" stroke-linejoin="round"/> <path d="M19.84 10.6603V12.7503C19.87 13.3803 19.76 14.0103 19.53 14.6003C18.97 15.8103 17.73 15.8103 16.29 15.8103C15.89 15.8303 15.48 15.7703 15.11 15.6203C14.73 15.4703 14.39 15.2503 14.11 14.9603C13.83 14.6703 13.61 14.3303 13.47 13.9503C13.33 13.5703 13.28 13.1703 13.31 12.7603C13.25 12.0503 13.47 11.3403 13.91 10.7803C14.36 10.2203 15 9.85026 15.71 9.75026C15.7 9.47026 15.77 9.19026 15.92 8.94026C16.07 8.70026 16.28 8.50026 16.53 8.38026C16.85 8.26026 17.19 8.22026 17.53 8.24026C17.87 8.27026 18.2 8.38026 18.49 8.55026C18.89 8.74026 19.23 9.04026 19.47 9.41026C19.71 9.78026 19.83 10.2203 19.84 10.6603Z" stroke="white" stroke-width="1.5" stroke-linecap="round" stroke-linejoin="round"/> <path d="M22 10.2803V13.7103" stroke="white" stroke-width="1.5" stroke-linecap="round" stroke-linejoin="round"/> </g> <defs> <clipPath id="clip0_2085_385701"> <rect width="24" height="24" fill="white"/> </clipPath> </defs> </svg>
