<svg width="24" height="24" viewBox="0 0 24 24" fill="none" xmlns="http://www.w3.org/2000/svg"> <g clip-path="url(#clip0_2085_392173)"> <path d="M18 18C20.21 18 22 19.79 22 22M18 18C18.32 17.23 18.5 16.39 18.5 15.5V11.82C18.5 10.12 18.5 9.28 18.25 8.6C17.84 7.52 16.98 6.66 15.9 6.25C15.38 6.06 14.77 6.01 13.76 6.01M18 18C17.02 20.35 14.7 22 12 22M2 22C2 19.79 3.79 18 6 18M6 18C6.98 20.35 9.3 22 12 22M6 18C5.68 17.23 5.5 16.39 5.5 15.5V11.82C5.5 10.12 5.5 9.28 5.75 8.6C6.16 7.52 7.02 6.66 8.1 6.25C8.63 6.06 9.25 6.01 10.3 6.01M22 4.22V4.5C22 6.43 20.43 8 18.5 8M2 4.22V4.5C2 6.43 3.57 8 5.5 8M5.5 13H2M22 13H18.5M9 6C9 4.07 9.7 2 12 2C14.3 2 15 4.07 15 6M12 22V17" stroke="white" stroke-width="1.5" stroke-linecap="round" stroke-linejoin="round"/> </g> <defs> <clipPath id="clip0_2085_392173"> <rect width="24" height="24" fill="white"/> </clipPath> </defs> </svg>
