<svg width="24" height="24" viewBox="0 0 24 24" fill="none" xmlns="http://www.w3.org/2000/svg"> <g clip-path="url(#clip0_4482_9618)"> <path d="M3.98047 20V22" stroke="white" stroke-width="1.5" stroke-linecap="round" stroke-linejoin="round"/> <path d="M20 20V22" stroke="white" stroke-width="1.5" stroke-linecap="round" stroke-linejoin="round"/> <path d="M3.98047 10.1299V11.9899" stroke="white" stroke-width="1.5" stroke-linecap="round" stroke-linejoin="round"/> <path d="M20.0005 11.99V5.97998C20.0005 3.76998 18.2105 1.97998 16.0005 1.97998H7.98047C5.77047 1.97998 3.98047 3.76998 3.98047 5.97998" stroke="white" stroke-width="1.5" stroke-linecap="round" stroke-linejoin="round"/> <path d="M3.98047 11.99H5.98047C7.09047 11.99 7.98047 12.89 7.98047 13.99C7.98047 15.1 7.08047 15.99 5.98047 15.99H3.98047C2.87047 15.99 1.98047 15.09 1.98047 13.99C1.98047 12.88 2.88047 11.99 3.98047 11.99Z" stroke="white" stroke-width="1.5" stroke-linecap="round" stroke-linejoin="round"/> <path d="M18 11.99H20C21.11 11.99 22 12.89 22 13.99C22 15.1 21.1 15.99 20 15.99H18C16.89 15.99 16 15.09 16 13.99C16 12.88 16.9 11.99 18 11.99Z" stroke="white" stroke-width="1.5" stroke-linecap="round" stroke-linejoin="round"/> <path d="M20.5105 15.99H3.48047C2.65204 15.99 1.98047 16.6616 1.98047 17.49V18.5C1.98047 19.3284 2.65204 20 3.48047 20H20.5105C21.3389 20 22.0105 19.3284 22.0105 18.5V17.49C22.0105 16.6616 21.3389 15.99 20.5105 15.99Z" stroke="white" stroke-width="1.5" stroke-linecap="round" stroke-linejoin="round"/> </g> <defs> <clipPath id="clip0_4482_9618"> <rect width="24" height="24" fill="white"/> </clipPath> </defs> </svg>
