<svg width="24" height="24" viewBox="0 0 24 24" fill="none" xmlns="http://www.w3.org/2000/svg"> <g clip-path="url(#clip0_2085_392309)"> <path d="M7.02002 5.73047V19.0005C7.02002 20.6605 8.36002 22.0005 10.02 22.0005H12.17" stroke="white" stroke-width="1.5" stroke-linecap="round" stroke-linejoin="round"/> <path d="M5.1499 2H18.8499C19.8799 2 20.7099 3.24 20.7099 5.73V19C20.7099 20.66 19.3699 22 17.7099 22H15.7499" stroke="white" stroke-width="1.5" stroke-linecap="round" stroke-linejoin="round"/> <path d="M7.02004 5.73H3.29004C3.29004 3.24 4.12004 2 5.16004 2C6.20004 2 7.03004 3.24 7.03004 5.73H7.02004Z" stroke="white" stroke-width="1.5" stroke-linecap="round" stroke-linejoin="round"/> <path d="M13.8699 5.42023C13.8699 5.42023 14.1699 4.49023 15.1099 4.49023C15.8499 4.49023 16.3599 5.03023 16.3599 5.66023C16.3599 6.54023 15.3499 7.16024 13.8699 8.27024C12.3899 7.16024 11.3799 6.54023 11.3799 5.66023C11.3799 5.03023 11.8899 4.49023 12.6199 4.49023C13.5699 4.49023 13.8599 5.42023 13.8599 5.42023H13.8699Z" stroke="white" stroke-width="1.5" stroke-linecap="round" stroke-linejoin="round"/> <path d="M12 10.7598H15.73" stroke="white" stroke-width="1.5" stroke-linecap="round" stroke-linejoin="round"/> <path d="M9.51025 13.2402H18.2203" stroke="white" stroke-width="1.5" stroke-linecap="round" stroke-linejoin="round"/> <path d="M9.51025 15.7305H18.2203" stroke="white" stroke-width="1.5" stroke-linecap="round" stroke-linejoin="round"/> <path d="M9.51025 19.5098H12.0003" stroke="white" stroke-width="1.5" stroke-linecap="round" stroke-linejoin="round"/> <path d="M15.73 19.5098H18.22" stroke="white" stroke-width="1.5" stroke-linecap="round" stroke-linejoin="round"/> </g> <defs> <clipPath id="clip0_2085_392309"> <rect width="24" height="24" fill="white"/> </clipPath> </defs> </svg>
