<svg width="24" height="24" viewBox="0 0 24 24" fill="none" xmlns="http://www.w3.org/2000/svg"> <g clip-path="url(#clip0_4482_15893)"> <path d="M8.25 10.3798C8.31 10.1298 8.31 9.86977 8.23 9.62977L7.72 8.06977C7.63 7.80977 7.47 7.57977 7.24 7.40977L5.05 5.79977C4.71 5.54977 4.51 5.14977 4.51 4.72977V3.33977C4.51 2.59977 5.11 2.00977 5.84 2.00977H7.22C7.85 2.00977 8.35 2.51977 8.35 3.13977V3.49977C8.35 3.91977 8.69 4.26977 9.12 4.26977C9.55 4.26977 9.89 3.92977 9.89 3.49977V3.13977C9.89 2.50977 10.4 2.00977 11.02 2.00977H12.99C13.62 2.00977 14.12 2.51977 14.12 3.13977V3.49977C14.12 3.91977 14.46 4.26977 14.89 4.26977C15.32 4.26977 15.66 3.92977 15.66 3.49977V3.13977C15.66 2.50977 16.17 2.00977 16.79 2.00977H18.17C18.91 2.00977 19.5 2.60977 19.5 3.33977V4.72977C19.5 5.14977 19.3 5.54977 18.96 5.79977L16.77 7.40977C16.55 7.56977 16.38 7.79977 16.29 8.06977L15.78 9.62977C15.7 9.86977 15.69 10.1298 15.76 10.3798L17.13 15.6998C17.17 15.8698 17.25 16.0298 17.36 16.1798L19.23 18.6298C19.41 18.8598 19.5 19.1498 19.5 19.4398V20.6698C19.5 21.4098 18.9 21.9998 18.17 21.9998H5.83C5.09 21.9998 4.5 21.3998 4.5 20.6698V19.4398C4.5 19.1498 4.6 18.8598 4.77 18.6298L6.64 16.1798C6.75 16.0398 6.83 15.8798 6.87 15.6998" stroke="white" stroke-width="1.5" stroke-linecap="round" stroke-linejoin="round"/> </g> <defs> <clipPath id="clip0_4482_15893"> <rect width="24" height="24" fill="white"/> </clipPath> </defs> </svg>
