<svg width="24" height="24" viewBox="0 0 24 24" fill="none" xmlns="http://www.w3.org/2000/svg"> <g clip-path="url(#clip0_4482_13910)"> <path d="M4 4.5H6.25C7.35 4.5 8.25 5.4 8.25 6.5V8.75C8.25 9.85 7.35 10.75 6.25 10.75H4C2.9 10.75 2 9.85 2 8.75" stroke="white" stroke-width="1.5" stroke-linecap="round"/> <path d="M20 13.25H17.75C16.6454 13.25 15.75 14.1454 15.75 15.25V17.5C15.75 18.6046 16.6454 19.5 17.75 19.5H20C21.1046 19.5 22 18.6046 22 17.5V15.25C22 14.1454 21.1046 13.25 20 13.25Z" stroke="white" stroke-width="1.5"/> <path d="M8.25 7.62012H16.87C17.97 7.62012 18.87 8.52012 18.87 9.62012V10.7401" stroke="white" stroke-width="1.5" stroke-linecap="round" stroke-linejoin="round"/> <path d="M15.7499 16.3798H7.12988C6.02988 16.3798 5.12988 15.4798 5.12988 14.3798V13.2598" stroke="white" stroke-width="1.5" stroke-linecap="round" stroke-linejoin="round"/> </g> <defs> <clipPath id="clip0_4482_13910"> <rect width="24" height="24" fill="white"/> </clipPath> </defs> </svg>
