<svg width="24" height="24" viewBox="0 0 24 24" fill="none" xmlns="http://www.w3.org/2000/svg"> <g clip-path="url(#clip0_4482_2914)"> <path d="M19 8.36002V11.83C19 12.9 18.1301 13.77 17.0601 13.77H13.75V13.58C13.75 12.98 13.47 12.41 13 12.04L10.0699 9.76001C9.83995 9.58001 9.57004 9.46001 9.29004 9.40001V8.35002C9.29004 7.76002 9.57004 7.19002 10.04 6.82002L12.95 4.55002C13.66 4.01002 14.64 4.01002 15.34 4.55002L18.25 6.82002C18.72 7.19002 19 7.76002 19 8.36002Z" stroke="white" stroke-width="1.5" stroke-linecap="round"/> <path d="M3.99023 13.5901C3.99023 12.9901 4.27023 12.4201 4.74023 12.0501L7.67029 9.77008C8.14029 9.40008 8.74028 9.28007 9.29028 9.41007C9.57028 9.47007 9.84019 9.59008 10.0702 9.77008L13.0002 12.0501C13.4702 12.4201 13.7502 12.9901 13.7502 13.5901V17.0801C13.7502 18.1601 12.8803 19.0301 11.8003 19.0301H5.9502C4.8702 19.0301 4.00024 18.1601 4.00024 17.0801" stroke="white" stroke-width="1.5" stroke-linecap="round"/> <path d="M22.0001 15.6401C22.0001 19.1501 19.1501 22.0001 15.6401 22.0001L16.5901 20.4101" stroke="white" stroke-width="1.5" stroke-linecap="round" stroke-linejoin="round"/> <path d="M2 8.36C2 4.85 4.84999 2 8.35999 2L7.41003 3.59" stroke="white" stroke-width="1.5" stroke-linecap="round" stroke-linejoin="round"/> </g> <defs> <clipPath id="clip0_4482_2914"> <rect width="24" height="24" fill="white"/> </clipPath> </defs> </svg>
