<svg width="24" height="24" viewBox="0 0 24 24" fill="none" xmlns="http://www.w3.org/2000/svg"> <g clip-path="url(#clip0_2085_392184)"> <path d="M10.5 11.25C10.5 10.28 9.72 9.5 8.75 9.5C7.78 9.5 7 10.28 7 11.25C7 12.22 7.78 13 8.75 13C9.72 13 10.5 12.22 10.5 11.25Z" stroke="white" stroke-width="1.5" stroke-linecap="round" stroke-linejoin="round"/> <path d="M17 11.25C17 10.28 16.22 9.5 15.25 9.5C14.28 9.5 13.5 10.28 13.5 11.25C13.5 12.22 14.28 13 15.25 13C16.22 13 17 12.22 17 11.25Z" stroke="white" stroke-width="1.5" stroke-linecap="round" stroke-linejoin="round"/> <path d="M11 16L11.29 15.63C11.62 15.21 11.79 15 12 15C12.21 15 12.37 15.21 12.71 15.63L13 16" stroke="white" stroke-width="1.5" stroke-linecap="round" stroke-linejoin="round"/> <path d="M13.73 2.16992C17.59 2.96992 20.5 6.35992 20.5 10.4099C20.5 12.1699 19.96 13.7899 19.03 15.1399C19.28 15.4199 19.44 15.7899 19.44 16.1999C19.44 17.0699 18.72 17.7699 17.84 17.7699V18.9899C17.84 19.6399 17.53 20.2599 16.97 20.5899C13.76 22.4699 10.24 22.4699 7.03 20.5899C6.47 20.2599 6.16 19.6399 6.16 18.9899V17.7699C5.28 17.7699 4.56 17.0699 4.56 16.1999C4.56 15.7899 4.72 15.4199 4.97 15.1399C4.04 13.7899 3.5 12.1699 3.5 10.4099C3.5 6.35992 6.41 2.96992 10.27 2.16992" stroke="white" stroke-width="1.5" stroke-linecap="round" stroke-linejoin="round"/> <path d="M14 21.5V20" stroke="white" stroke-width="1.5" stroke-linecap="round" stroke-linejoin="round"/> <path d="M10 21.5V20" stroke="white" stroke-width="1.5" stroke-linecap="round" stroke-linejoin="round"/> </g> <defs> <clipPath id="clip0_2085_392184"> <rect width="24" height="24" fill="white"/> </clipPath> </defs> </svg>
