<svg width="24" height="24" viewBox="0 0 24 24" fill="none" xmlns="http://www.w3.org/2000/svg"> <g clip-path="url(#clip0_2085_392187)"> <path d="M14.87 2.20977C17.87 2.62977 20 3.71977 20 4.99977C20 6.65977 16.42 7.99977 12 7.99977C7.58 7.99977 4 6.65977 4 4.99977C4 3.33977 7.26 2.11977 11.4 2.00977" stroke="white" stroke-width="1.5" stroke-linecap="round" stroke-linejoin="round"/> <path d="M7 10.8398C7.6 11.0198 8.27 11.1698 9 11.2798" stroke="white" stroke-width="1.5" stroke-linecap="round" stroke-linejoin="round"/> <path d="M20 12C20 13.66 16.42 15 12 15C7.58 15 4 13.66 4 12" stroke="white" stroke-width="1.5" stroke-linecap="round" stroke-linejoin="round"/> <path d="M7 17.8398C7.6 18.0198 8.27 18.1698 9 18.2798" stroke="white" stroke-width="1.5" stroke-linecap="round" stroke-linejoin="round"/> <path d="M20 5V19C20 20.66 16.42 22 12 22C7.58 22 4 20.66 4 19V5" stroke="white" stroke-width="1.5" stroke-linecap="round" stroke-linejoin="round"/> </g> <defs> <clipPath id="clip0_2085_392187"> <rect width="24" height="24" fill="white"/> </clipPath> </defs> </svg>
