<svg width="24" height="24" viewBox="0 0 24 24" fill="none" xmlns="http://www.w3.org/2000/svg"> <g clip-path="url(#clip0_2085_390090)"> <path d="M5.66992 22H18.3399" stroke="white" stroke-width="1.41" stroke-linecap="round" stroke-linejoin="round"/> <path d="M15.0003 5.33023C15.0003 4.45023 14.6503 3.60023 14.0203 2.97023C13.4003 2.35023 12.5503 1.99023 11.6603 1.99023C10.7803 1.99023 9.93031 2.34023 9.30031 2.97023C8.68031 3.59023 8.32031 4.44023 8.32031 5.33023V8.88023C8.32031 8.88023 11.7903 7.72023 13.7203 7.08023C14.4803 6.83023 14.9803 6.12023 14.9803 5.33023H15.0003Z" stroke="white" stroke-width="1.41" stroke-linecap="round" stroke-linejoin="round"/> <path d="M17.6701 22.0001C17.6701 21.2901 17.3901 20.6101 16.8901 20.1101C16.3901 19.6101 15.7101 19.3301 15.0001 19.3301H9.00008C8.29008 19.3301 7.61008 19.6101 7.11008 20.1101C6.61008 20.6101 6.33008 21.2901 6.33008 22.0001H17.6601H17.6701Z" stroke="white" stroke-width="1.41" stroke-linecap="round" stroke-linejoin="round"/> <path d="M15 10.0001V5.33008" stroke="white" stroke-width="1.41" stroke-linecap="round" stroke-linejoin="round"/> <path d="M15 12.7299V19.3299H9V8.66992" stroke="white" stroke-width="1.41" stroke-linecap="round" stroke-linejoin="round"/> </g> <defs> <clipPath id="clip0_2085_390090"> <rect width="24" height="24" fill="white"/> </clipPath> </defs> </svg>
