<svg width="24" height="24" viewBox="0 0 24 24" fill="none" xmlns="http://www.w3.org/2000/svg"> <g clip-path="url(#clip0_4482_6823)"> <path d="M13.6699 21.9999H15.6699C17.3199 21.9999 18.6699 20.6499 18.6699 18.9999V11.6699C18.6699 10.0199 17.3199 8.66992 15.6699 8.66992H8.33984C6.68984 8.66992 5.33984 10.0199 5.33984 11.6699V18.9999C5.33984 20.6499 6.68984 21.9999 8.33984 21.9999" stroke="white" stroke-width="1.5" stroke-miterlimit="10" stroke-linecap="round" stroke-linejoin="round"/> <path d="M15.8901 7.00008V8.70007C15.7101 8.68007 15.5201 8.67007 15.3301 8.67007H8.66016C8.47016 8.67007 8.2801 8.68007 8.1001 8.70007V7.00008C8.1001 6.08008 8.86014 5.33008 9.77014 5.33008H14.2101C15.1401 5.33008 15.8901 6.08008 15.8901 7.00008Z" stroke="white" stroke-width="1.5" stroke-miterlimit="10" stroke-linecap="round" stroke-linejoin="round"/> <path d="M13.6699 2H11.3398C10.7898 2 10.3398 2.45 10.3398 3V5.33H13.6699V2Z" stroke="white" stroke-width="1.5" stroke-miterlimit="10" stroke-linecap="round" stroke-linejoin="round"/> <path d="M12 2H16.46C17.07 2 17.5601 2.49001 17.5601 3.10001V3.22" stroke="white" stroke-width="1.5" stroke-miterlimit="10" stroke-linecap="round" stroke-linejoin="round"/> <path d="M5.33008 15.3301H9.70007C10.5301 15.3301 11.3302 15.6601 11.9102 16.2501C12.5002 16.8401 13.2901 17.1701 14.1201 17.1701H18.6602" stroke="white" stroke-width="1.5" stroke-miterlimit="10" stroke-linecap="round" stroke-linejoin="round"/> </g> <defs> <clipPath id="clip0_4482_6823"> <rect width="24" height="24" fill="white"/> </clipPath> </defs> </svg>
