<svg width="24" height="24" viewBox="0 0 24 24" fill="none" xmlns="http://www.w3.org/2000/svg"> <g clip-path="url(#clip0_4482_2622)"> <path d="M20.5 12.97V17.7101C20.5 19.9101 18.7 21.7101 16.5 21.7101H8C5.8 21.7101 4 19.9101 4 17.7101V16.81C4.07 16.82 4.14997 16.8201 4.21997 16.8201H9.78003C11 16.8201 12 15.8201 12 14.6001V9.40004C12 8.18004 11 7.18004 9.78003 7.18004H4.21997C4.14997 7.18004 4.07 7.18005 4 7.19005V6.29004C4 4.09004 5.8 2.29004 8 2.29004H16.5C18.7 2.29004 20.5 4.09004 20.5 6.29004V7.97005" stroke="white" stroke-width="1.5" stroke-linecap="round" stroke-linejoin="round"/> <path d="M12 9.39993V14.5999C12 15.8199 11 16.8199 9.78003 16.8199H4.21997C4.14997 16.8199 4.07 16.8199 4 16.8099C2.88 16.6999 2 15.7499 2 14.5999V9.39993C2 8.24993 2.88 7.29994 4 7.18994C4.07 7.17994 4.14997 7.17993 4.21997 7.17993H9.78003C11 7.17993 12 8.17993 12 9.39993Z" stroke="white" stroke-width="1.5" stroke-linecap="round" stroke-linejoin="round"/> <path d="M14.6802 5.20996V6.17995C14.6802 7.24995 15.5501 8.11995 16.6201 8.11995H17.5901" stroke="white" stroke-width="1.5" stroke-linecap="round" stroke-linejoin="round"/> <path d="M8.48021 11.9401L7.2202 13.3701C7.1102 13.4801 6.98017 13.5701 6.82017 13.6101L5.71019 13.8601C5.47019 13.9101 5.28028 13.7601 5.30028 13.5101L5.37022 12.3801C5.38022 12.2201 5.44028 12.0701 5.55028 11.9501L6.81028 10.5201C7.20028 10.0601 7.90021 10.0001 8.36021 10.4001C8.82021 10.7901 8.88021 11.4801 8.48021 11.9401Z" stroke="white" stroke-width="1.5" stroke-miterlimit="10"/> </g> <defs> <clipPath id="clip0_4482_2622"> <rect width="24" height="24" fill="white"/> </clipPath> </defs> </svg>
