<svg width="24" height="24" viewBox="0 0 24 24" fill="none" xmlns="http://www.w3.org/2000/svg"> <g clip-path="url(#clip0_2085_381002)"> <path d="M19.5999 3.16C19.5399 3.15 19.4799 3.14 19.4199 3.13" stroke="white" stroke-width="1.5" stroke-linecap="round"/> <path d="M20.4199 12.83C19.7699 13.85 19.0499 14.8 18.2699 15.57C18.6299 12.98 17.3899 10.11 15.5699 7.38001C14.8199 6.28001 13.9699 5.38001 13.0499 4.65001C12.9099 4.53001 12.7799 4.43001 12.6399 4.32001C15.0399 2.97001 17.5599 2.84001 19.4399 3.13001C20.2599 3.31001 20.8299 3.77001 21.2199 4.27001C21.7099 4.87001 21.9199 5.63001 21.9799 6.40001C22.1299 8.30001 21.8199 10.64 20.4299 12.83H20.4199Z" stroke="white" stroke-width="1.5" stroke-linecap="round"/> <path d="M19.4198 3.12999C19.4198 3.12999 19.3698 3.11999 19.3398 3.10999" stroke="white" stroke-width="1.5" stroke-linecap="round"/> <path d="M4.08999 3.69005C5.30999 2.02005 7.29999 1.98005 8.14999 2.16005C9.54999 2.54005 11.14 3.23005 12.62 4.32005C12.76 4.43005 12.89 4.53005 13.03 4.65005C13.95 5.38005 14.8 6.29005 15.55 7.38005C17.38 10.11 18.61 12.98 18.25 15.57C18.02 17.27 17.11 18.85 15.22 20.19C13.99 21.07 12.53 21.63 11.02 21.83C5.25999 22.56 2.95999 18 2.11999 12.62C1.81999 10.63 2.02999 8.78005 2.49999 7.17005" stroke="white" stroke-width="1.5" stroke-linecap="round"/> </g> <defs> <clipPath id="clip0_2085_381002"> <rect width="24" height="24" fill="white"/> </clipPath> </defs> </svg>
