<svg width="24" height="24" viewBox="0 0 24 24" fill="none" xmlns="http://www.w3.org/2000/svg"> <g clip-path="url(#clip0_4482_7365)"> <path d="M14.46 13.4405C14.46 14.8005 13.36 15.9005 12 15.9005C10.64 15.9005 9.54004 14.8005 9.54004 13.4405C9.54004 13.2305 9.56004 13.0405 9.62004 12.8505C9.62004 12.8205 9.63004 12.7805 9.64004 12.7505C9.94004 11.7305 10.89 10.9805 12 10.9805C13.12 10.9805 14.07 11.7305 14.36 12.7505C14.37 12.7805 14.38 12.8205 14.38 12.8505C14.44 13.0405 14.46 13.2305 14.46 13.4405Z" stroke="white" stroke-width="1.5" stroke-miterlimit="10" stroke-linecap="round" stroke-linejoin="round"/> <path d="M15.6701 7.75043L14.3901 12.8504C14.3901 12.8204 14.3801 12.7804 14.3701 12.7504C14.0701 11.7304 13.1201 10.9804 12.0101 10.9804C10.8901 10.9804 9.94008 11.7304 9.65008 12.7504C9.64008 12.7804 9.63008 12.8204 9.63008 12.8504L8.35008 7.75043C8.24008 7.30043 8.22008 6.84043 8.27008 6.38043L8.32008 5.95043C8.44008 5.02043 8.89008 4.20043 9.55008 3.62043C10.2201 3.04043 11.0701 2.69043 12.0101 2.69043C13.8801 2.69043 15.4701 4.09043 15.7001 5.95043L15.7501 6.38043C15.8001 6.84043 15.7701 7.30043 15.6701 7.75043Z" stroke="white" stroke-width="1.5" stroke-miterlimit="10" stroke-linecap="round" stroke-linejoin="round"/> <path d="M5.27019 12.7103L10.4002 11.5703C10.3702 11.5803 10.3502 11.6103 10.3202 11.6303C9.54019 12.3503 9.29019 13.5403 9.79019 14.5403C10.2902 15.5403 11.3902 16.0503 12.4302 15.8603C12.4602 15.8603 12.5002 15.8503 12.5302 15.8403L8.54019 19.2603C8.19019 19.5603 7.79019 19.7803 7.35019 19.9403L6.94019 20.0803C6.05019 20.3903 5.12019 20.3503 4.31019 20.0303C3.49019 19.6903 2.80019 19.0903 2.38019 18.2403C1.54019 16.5703 2.09019 14.5203 3.65019 13.4803L4.01019 13.2403C4.40019 13.0003 4.82019 12.8103 5.27019 12.7103Z" stroke="white" stroke-width="1.5" stroke-miterlimit="10" stroke-linecap="round" stroke-linejoin="round"/> <path d="M17.0402 20.0903L16.6302 19.9503C16.1902 19.7903 15.7902 19.5703 15.4402 19.2703L11.4502 15.8403C11.4802 15.8503 11.5102 15.8603 11.5502 15.8603C12.5902 16.0503 13.6902 15.5403 14.1902 14.5403C14.6902 13.5403 14.4402 12.3503 13.6602 11.6303C13.6402 11.6103 13.6102 11.5803 13.5802 11.5703L18.7102 12.7103C19.1602 12.8103 19.5802 13.0003 19.9702 13.2503L20.3302 13.4903C21.1102 14.0103 21.6402 14.7803 21.8702 15.6303C22.0902 16.4903 22.0202 17.4103 21.6002 18.2503C21.4702 18.5103 21.3102 18.7503 21.1402 18.9603" stroke="white" stroke-width="1.5" stroke-miterlimit="10" stroke-linecap="round" stroke-linejoin="round"/> </g> <defs> <clipPath id="clip0_4482_7365"> <rect width="24" height="24" fill="white"/> </clipPath> </defs> </svg>
