<svg width="24" height="24" viewBox="0 0 24 24" fill="none" xmlns="http://www.w3.org/2000/svg"> <g clip-path="url(#clip0_4482_2712)"> <path d="M4 8.00999V6.5C4 4.03 6.02 2 8.5 2H15.5C17.97 2 20 4.02 20 6.5V13.41C19.39 13.15 18.71 13 18 13C15.24 13 13 15.24 13 18C13 19.13 13.37 20.17 14 21H8.5C6.03 21 4 18.98 4 16.5V13" stroke="white" stroke-width="1.5" stroke-linecap="round" stroke-linejoin="round"/> <path d="M10 6H14" stroke="white" stroke-width="1.5" stroke-linecap="round" stroke-linejoin="round"/> <path d="M23 18C23 20.76 20.76 23 18 23C16.37 23 14.91 22.21 14 21C13.37 20.17 13 19.13 13 18C13 15.24 15.24 13 18 13C18.71 13 19.39 13.15 20 13.41C21.76 14.19 23 15.95 23 18Z" stroke="white" stroke-width="1.5" stroke-linecap="round" stroke-linejoin="round"/> <path d="M15.21 21.22L21.21 15.22" stroke="white" stroke-width="1.5" stroke-linecap="round" stroke-linejoin="round"/> </g> <defs> <clipPath id="clip0_4482_2712"> <rect width="24" height="24" fill="white"/> </clipPath> </defs> </svg>
