<svg width="24" height="24" viewBox="0 0 24 24" fill="none" xmlns="http://www.w3.org/2000/svg"> <g clip-path="url(#clip0_4482_9930)"> <path d="M20.8896 4.79004V12.56" stroke="white" stroke-width="1.5" stroke-linecap="round" stroke-linejoin="round"/> <path d="M22.0001 19.2202H15.3301" stroke="white" stroke-width="1.5" stroke-linecap="round" stroke-linejoin="round"/> <path d="M22.0003 19.2202L19.7803 21.4402" stroke="white" stroke-width="1.5" stroke-linecap="round" stroke-linejoin="round"/> <path d="M2 9.93004V4.79004" stroke="white" stroke-width="1.5" stroke-linecap="round" stroke-linejoin="round"/> <path d="M10.89 16.9998H4.22C2.99 16.9998 2 16.0098 2 14.7798" stroke="white" stroke-width="1.5" stroke-linecap="round" stroke-linejoin="round"/> <path d="M4.23 2.5598H18.65C19.88 2.5598 20.88 3.5598 20.88 4.7898C20.88 5.5298 20.51 6.2198 19.9 6.6398L13.95 10.6698C12.43 11.6998 10.44 11.6998 8.93 10.6698L2.98 6.6398C2.37 6.2198 2 5.5298 2 4.7898C2 3.5498 3 2.5498 4.23 2.5498V2.5598Z" stroke="white" stroke-width="1.5" stroke-linecap="round" stroke-linejoin="round"/> </g> <defs> <clipPath id="clip0_4482_9930"> <rect width="24" height="24" fill="white"/> </clipPath> </defs> </svg>
