<svg width="24" height="24" viewBox="0 0 24 24" fill="none" xmlns="http://www.w3.org/2000/svg"> <g clip-path="url(#clip0_2085_390251)"> <path d="M15.3399 6.08023C15.0599 5.96023 14.7699 5.87023 14.4699 5.81023C14.4299 5.81023 14.4299 5.75023 14.4699 5.74023C16.3399 5.36023 17.8099 3.89023 18.1899 2.02023C18.1899 1.98023 18.2499 1.98023 18.2599 2.02023C18.6399 3.89023 20.1099 5.36023 21.9799 5.74023C22.0199 5.74023 22.0199 5.80023 21.9799 5.81023C20.1099 6.19023 18.6399 7.66023 18.2599 9.53023C18.2599 9.57023 18.1999 9.57023 18.1899 9.53023C18.1199 9.17023 17.9999 8.83023 17.8599 8.51023" stroke="white" stroke-width="1.5" stroke-linecap="round" stroke-linejoin="round"/> <path d="M2 5.77998H10.39M2 19.2H21.02M18.22 22V13.61M4.8 22V2.97998" stroke="white" stroke-width="1.5" stroke-linecap="round" stroke-linejoin="round"/> </g> <defs> <clipPath id="clip0_2085_390251"> <rect width="24" height="24" fill="white"/> </clipPath> </defs> </svg>
