<svg width="24" height="24" viewBox="0 0 24 24" fill="none" xmlns="http://www.w3.org/2000/svg"> <g clip-path="url(#clip0_4482_9307)"> <path d="M14.1496 21.5L9.84961 17.2" stroke="white" stroke-width="1.5" stroke-linecap="round" stroke-linejoin="round"/> <path d="M9.84961 21.5L14.1496 17.2" stroke="white" stroke-width="1.5" stroke-linecap="round" stroke-linejoin="round"/> <path d="M21.9996 12.5C21.9996 13.86 20.8896 14.97 19.5296 14.97C18.1696 14.97 17.0596 13.86 17.0596 12.5C17.0596 11.14 18.1696 10.03 19.5296 10.03" stroke="white" stroke-width="1.5" stroke-linecap="round" stroke-linejoin="round"/> <path d="M5.29 10.03H3.65C2.73873 10.03 2 10.7688 2 11.68V13.32C2 14.2313 2.73873 14.97 3.65 14.97H5.29C6.20127 14.97 6.94 14.2313 6.94 13.32V11.68C6.94 10.7688 6.20127 10.03 5.29 10.03Z" stroke="white" stroke-width="1.5" stroke-linecap="round" stroke-linejoin="round"/> <path d="M12.0001 7.49H9.12012L10.5601 5L12.0001 2.5L13.4401 5L14.8801 7.49H12.0001Z" stroke="white" stroke-width="1.5" stroke-linecap="round" stroke-linejoin="round"/> </g> <defs> <clipPath id="clip0_4482_9307"> <rect width="24" height="24" fill="white"/> </clipPath> </defs> </svg>
