<svg width="24" height="24" viewBox="0 0 24 24" fill="none" xmlns="http://www.w3.org/2000/svg"> <g clip-path="url(#clip0_4482_7004)"> <path d="M16.08 11.7703C18.2063 11.7703 19.93 10.0466 19.93 7.92032C19.93 5.79402 18.2063 4.07031 16.08 4.07031C13.9537 4.07031 12.23 5.79402 12.23 7.92032C12.23 10.0466 13.9537 11.7703 16.08 11.7703Z" stroke="white" stroke-width="1.5" stroke-miterlimit="10" stroke-linecap="round" stroke-linejoin="round"/> <path d="M7.23987 19.6399C8.83045 19.6399 10.1199 18.3505 10.1199 16.7599C10.1199 15.1693 8.83045 13.8799 7.23987 13.8799C5.64929 13.8799 4.35986 15.1693 4.35986 16.7599C4.35986 18.3505 5.64929 19.6399 7.23987 19.6399Z" stroke="white" stroke-width="1.5" stroke-miterlimit="10" stroke-linecap="round" stroke-linejoin="round"/> <path d="M6.58013 9.49044L11.3701 3.86044C13.7201 1.10044 17.9301 0.930453 20.5001 3.50045C23.0701 6.07045 22.9002 10.2705 20.1402 12.6305L10.5601 20.7905C8.49015 22.5505 5.42015 22.4305 3.50015 20.5105C1.58015 18.5905 1.46015 15.5205 3.22015 13.4505" stroke="white" stroke-width="1.5" stroke-miterlimit="10" stroke-linecap="round" stroke-linejoin="round"/> </g> <defs> <clipPath id="clip0_4482_7004"> <rect width="24" height="24" fill="white"/> </clipPath> </defs> </svg>
