<svg width="24" height="24" viewBox="0 0 24 24" fill="none" xmlns="http://www.w3.org/2000/svg"> <g clip-path="url(#clip0_2085_389962)"> <path d="M11.5303 15.27C12.8103 15.78 14.0003 16.2 15.2503 16.2C16.5003 16.2 17.8303 15.8 19.0503 15.28C19.4403 15.11 19.7003 14.74 19.7003 14.32V11.71C18.2203 12.33 16.7403 12.76 15.2603 12.76C14.7703 12.76 14.2803 12.71 13.7903 12.63" stroke="white" stroke-width="1.5" stroke-linecap="round" stroke-linejoin="round"/> <path d="M12.3099 18.5698L11.3599 15.0098" stroke="white" stroke-width="1.5" stroke-linecap="round" stroke-linejoin="round"/> <path d="M9.62986 18.5701L9.13986 16.7401L9.10986 16.6201" stroke="white" stroke-width="1.5" stroke-linecap="round" stroke-linejoin="round"/> <path d="M16.5302 8.09031L17.6002 7.02031C18.0102 6.61031 18.0102 5.96031 17.6002 5.55031L17.2402 5.19031C16.8302 4.78031 16.1802 4.78031 15.7702 5.19031L14.7002 6.26031" stroke="white" stroke-width="1.5" stroke-linecap="round" stroke-linejoin="round"/> <path d="M17.4199 5.37L20.8399 2" stroke="white" stroke-width="1.5" stroke-linecap="round" stroke-linejoin="round"/> <path d="M13.8503 12.5498L16.7003 9.72976C17.1103 9.31976 17.1103 8.65977 16.7003 8.25977L14.7003 6.25977L7.55029 13.3098V15.1398L9.38029 16.9698L13.8503 12.5498Z" stroke="white" stroke-width="1.5" stroke-linecap="round" stroke-linejoin="round"/> <path d="M7.2801 14.8896L3.4701 18.6996C3.0601 19.1096 3.0601 19.7596 3.4701 20.1696L5.0001 21.6996C5.5201 22.2196 6.4001 22.0496 6.6901 21.3696L8.8001 16.4096L7.2801 14.8896Z" stroke="white" stroke-width="1.5" stroke-linecap="round" stroke-linejoin="round"/> </g> <defs> <clipPath id="clip0_2085_389962"> <rect width="24" height="24" fill="white"/> </clipPath> </defs> </svg>
