<svg width="24" height="24" viewBox="0 0 24 24" fill="none" xmlns="http://www.w3.org/2000/svg"> <g clip-path="url(#clip0_2085_385738)"> <path d="M6.06982 14.4301C6.06982 14.7301 6.30982 14.9701 6.60982 14.9701H17.3798C17.6798 14.9701 17.9198 14.7301 17.9198 14.4301V12.1201C17.9198 11.8201 17.6798 11.5801 17.3798 11.5801H6.60982" stroke="white" stroke-width="1.5" stroke-linecap="round" stroke-linejoin="round"/> <path d="M17.3798 14.96H6.60982C6.30982 14.96 6.06982 15.2 6.06982 15.5V17.81C6.06982 18.11 6.30982 18.35 6.60982 18.35H17.3798C17.6798 18.35 17.9198 18.11 17.9198 17.81V15.5C17.9198 15.2 17.6798 14.96 17.3798 14.96Z" stroke="white" stroke-width="1.5" stroke-linecap="round" stroke-linejoin="round"/> <path d="M17.3798 18.3398H6.60982C6.30982 18.3398 6.06982 18.5798 6.06982 18.8798V21.1898C6.06982 21.4898 6.30982 21.7298 6.60982 21.7298H17.3798C17.6798 21.7298 17.9198 21.4898 17.9198 21.1898V18.8798C17.9198 18.5798 17.6798 18.3398 17.3798 18.3398Z" stroke="white" stroke-width="1.5" stroke-linecap="round" stroke-linejoin="round"/> <path d="M8.14014 11.5803V2.28027" stroke="white" stroke-width="1.5" stroke-linecap="round" stroke-linejoin="round"/> <path d="M15.8501 11.5803V2.28027" stroke="white" stroke-width="1.5" stroke-linecap="round" stroke-linejoin="round"/> <path d="M15.8501 5.37988H8.14014" stroke="white" stroke-width="1.5" stroke-linecap="round" stroke-linejoin="round"/> <path d="M6.15 5.37988H4.52L2 7.89988" stroke="white" stroke-width="1.5" stroke-linecap="round" stroke-linejoin="round"/> <path d="M17.8501 5.37988H19.4801L22.0001 7.89988" stroke="white" stroke-width="1.5" stroke-linecap="round" stroke-linejoin="round"/> </g> <defs> <clipPath id="clip0_2085_385738"> <rect width="24" height="24" fill="white"/> </clipPath> </defs> </svg>
