<svg width="24" height="24" viewBox="0 0 24 24" fill="none" xmlns="http://www.w3.org/2000/svg"> <g clip-path="url(#clip0_4482_6979)"> <path d="M5.14014 14.6403C5.14014 10.8503 8.21012 7.78027 12.0001 7.78027C15.7901 7.78027 18.8601 10.8503 18.8601 14.6403C18.8601 18.4303 15.7901 21.5003 12.0001 21.5003C9.97012 21.5003 8.14013 20.6103 6.88013 19.2103" stroke="white" stroke-width="1.5" stroke-miterlimit="10" stroke-linecap="round" stroke-linejoin="round"/> <path d="M14.64 14.6396C14.64 16.0996 13.46 17.2796 12 17.2796" stroke="white" stroke-width="1.5" stroke-miterlimit="10" stroke-linecap="round"/> <path d="M6.77991 10.1802C6.09991 9.60022 5.66992 8.73023 5.66992 7.77023V5.66023C5.66992 3.91023 7.07984 2.49023 8.83984 2.49023H15.1699C16.9199 2.49023 18.3398 3.90023 18.3398 5.66023V7.77023C18.3398 8.73023 17.9099 9.60022 17.2299 10.1802" stroke="white" stroke-width="1.5" stroke-miterlimit="10"/> </g> <defs> <clipPath id="clip0_4482_6979"> <rect width="24" height="24" fill="white"/> </clipPath> </defs> </svg>
