<svg width="24" height="24" viewBox="0 0 24 24" fill="none" xmlns="http://www.w3.org/2000/svg"> <g clip-path="url(#clip0_2085_389963)"> <path d="M9.47023 7.01051C9.47023 8.38051 8.35023 9.50051 6.98023 9.50051C5.61023 9.50051 4.49023 8.39051 4.49023 7.01051C4.49023 5.63051 5.60023 4.52051 6.98023 4.52051C8.36023 4.52051 9.47023 5.63051 9.47023 7.01051Z" stroke="white" stroke-width="1.5" stroke-linecap="round" stroke-linejoin="round"/> <path d="M19.5098 17.0505C19.5098 18.4205 18.3998 19.5405 17.0198 19.5405C15.6398 19.5405 14.5298 18.4305 14.5298 17.0505C14.5298 15.6705 15.6498 14.5605 17.0198 14.5605C18.3898 14.5605 19.5098 15.6705 19.5098 17.0505Z" stroke="white" stroke-width="1.5" stroke-linecap="round" stroke-linejoin="round"/> <path d="M11.29 4.52027H11.96C12.65 4.52027 13.2 5.08027 13.2 5.76027V8.25027C13.2 8.94027 12.64 9.49027 11.96 9.49027H11.29C10.43 10.9803 8.82 11.9803 6.98 11.9803C4.23 11.9803 2 9.75027 2 7.00027C2 4.25027 4.23 2.03027 6.98 2.03027C8.82 2.03027 10.43 3.03027 11.29 4.52027Z" stroke="white" stroke-width="1.5" stroke-linecap="round" stroke-linejoin="round"/> <path d="M12.27 18.5701C12.12 18.0901 12.04 17.5801 12.04 17.0501C12.04 15.2101 13.04 13.6001 14.53 12.7401V12.0701C14.53 11.3801 15.09 10.8301 15.78 10.8301H18.27C18.95 10.8301 19.51 11.3801 19.51 12.0701V12.7401C21 13.6001 22 15.2101 22 17.0501C22 19.8001 19.77 22.0301 17.02 22.0301C16.15 22.0301 15.34 21.8101 14.64 21.4201" stroke="white" stroke-width="1.5" stroke-linecap="round" stroke-linejoin="round"/> <path d="M4.49 7.01074C4.49 7.70074 3.93 8.25074 3.24 8.25074C2.55 8.25074 2 7.69074 2 7.01074" stroke="white" stroke-width="1.5" stroke-linecap="round" stroke-linejoin="round"/> <path d="M17.02 19.54C17.71 19.54 18.26 20.1 18.26 20.78C18.26 21.46 17.7 22.02 17.02 22.02" stroke="white" stroke-width="1.5" stroke-linecap="round" stroke-linejoin="round"/> <path d="M13.2002 7.01074H14.5302C15.9102 7.01074 17.0202 8.12074 17.0202 9.50074V10.8307" stroke="white" stroke-width="1.5" stroke-linecap="round" stroke-linejoin="round"/> </g> <defs> <clipPath id="clip0_2085_389963"> <rect width="24" height="24" fill="white"/> </clipPath> </defs> </svg>
