<svg width="24" height="24" viewBox="0 0 24 24" fill="none" xmlns="http://www.w3.org/2000/svg"> <g clip-path="url(#clip0_4482_6808)"> <path d="M15 10.55H13.45V9C13.45 8.45 13 8 12.45 8H11.54C10.99 8 10.54 8.45 10.54 9V10.55H9C8.45 10.55 8 11 8 11.55V12.46C8 13.01 8.45 13.46 9 13.46H10.55V15C10.55 15.55 11 16 11.55 16H12.46C13.01 16 13.46 15.55 13.46 15V13.45H15C15.55 13.45 16 13 16 12.45V11.54C16 10.99 15.55 10.55 15 10.55Z" stroke="white" stroke-width="1.5" stroke-linecap="round" stroke-linejoin="round"/> <path d="M19.8 5.74001C17.97 3.46001 15.16 2 12 2C6.48 2 2 6.48 2 12C2 17.52 6.48 22 12 22C17.52 22 22 17.52 22 12" stroke="white" stroke-width="1.5" stroke-linecap="round" stroke-linejoin="round"/> </g> <defs> <clipPath id="clip0_4482_6808"> <rect width="24" height="24" fill="white"/> </clipPath> </defs> </svg>
