<svg width="24" height="24" viewBox="0 0 24 24" fill="none" xmlns="http://www.w3.org/2000/svg"> <g clip-path="url(#clip0_4482_8381)"> <path d="M5.86988 4.48998C6.40988 3.55998 7.40988 2.97998 8.47988 2.97998H15.3999C16.4799 2.97998 17.4699 3.55998 18.0099 4.48998L21.4699 10.49C22.0099 11.42 22.0099 12.57 21.4699 13.51L18.0099 19.51C17.4699 20.44 16.4699 21.02 15.3999 21.02H8.47988C7.39988 21.02 6.40988 20.44 5.86988 19.51L2.40988 13.51C1.86988 12.58 1.86988 11.43 2.40988 10.49L3.84988 7.98998" stroke="white" stroke-width="1.5" stroke-linecap="round" stroke-linejoin="round"/> <path d="M15.1004 8.85004C16.8404 10.59 16.8404 13.42 15.1004 15.16C13.3604 16.9 10.5304 16.9 8.79035 15.16C7.05035 13.42 7.05035 10.59 8.79035 8.85004C10.5304 7.11004 13.3604 7.11004 15.1004 8.85004Z" stroke="white" stroke-width="1.5" stroke-linecap="round" stroke-linejoin="round"/> </g> <defs> <clipPath id="clip0_4482_8381"> <rect width="24" height="24" fill="white"/> </clipPath> </defs> </svg>
