<svg width="24" height="24" viewBox="0 0 24 24" fill="none" xmlns="http://www.w3.org/2000/svg"> <g clip-path="url(#clip0_4482_10600)"> <path d="M16.4404 22.0002H18.6604C20.5004 22.0002 21.9904 20.5102 21.9904 18.6702V16.4502" stroke="white" stroke-width="1.5" stroke-linecap="round" stroke-linejoin="round"/> <path d="M2 7.55977V5.33977C2 3.49977 3.49 2.00977 5.33 2.00977H7.55" stroke="white" stroke-width="1.5" stroke-linecap="round" stroke-linejoin="round"/> <path d="M2 14.2201C2 12.3801 3.49 10.8901 5.33 10.8901H9.77C11.61 10.8901 13.1 12.3801 13.1 14.2201V18.6601C13.1 20.5001 11.61 21.9901 9.77 21.9901H5.33C3.49 21.9901 2 20.5001 2 18.6601" stroke="white" stroke-width="1.5" stroke-linecap="round" stroke-linejoin="round"/> <path d="M9.82039 15.6099L8.15039 17.2799" stroke="white" stroke-width="1.5" stroke-linecap="round" stroke-linejoin="round"/> <path d="M8.14977 17.2801L6.75977 15.8901" stroke="white" stroke-width="1.5" stroke-linecap="round" stroke-linejoin="round"/> <path d="M6.76012 15.8901L5.37012 17.2801" stroke="white" stroke-width="1.5" stroke-linecap="round" stroke-linejoin="round"/> <path d="M10.8896 7.57994V6.73994C10.8896 6.05994 11.1996 5.42994 11.7196 4.99994L14.7096 2.60994C15.7196 1.79994 17.1696 1.79994 18.1796 2.60994L21.1696 4.99994C21.6996 5.41994 21.9996 6.05994 21.9996 6.73994V10.8999C21.9996 12.1299 21.0096 13.1199 19.7796 13.1199H16.4496" stroke="white" stroke-width="1.5" stroke-linecap="round" stroke-linejoin="round"/> </g> <defs> <clipPath id="clip0_4482_10600"> <rect width="24" height="24" fill="white"/> </clipPath> </defs> </svg>
