<svg width="24" height="24" viewBox="0 0 24 24" fill="none" xmlns="http://www.w3.org/2000/svg"> <g clip-path="url(#clip0_2085_381257)"> <path d="M15.9199 12.9902L17.7999 15.9402" stroke="white" stroke-width="1.5" stroke-linecap="round" stroke-linejoin="round"/> <path d="M6.18994 15.9299L8.46994 12.8899C8.54994 12.7799 8.65994 12.6799 8.78994 12.6199C8.90994 12.5499 9.04994 12.5099 9.18994 12.4999C9.32994 12.4899 9.46994 12.4999 9.59994 12.5599C9.72994 12.6099 9.84994 12.6899 9.94994 12.7899L10.6299 13.4699L12.7999 10.5799C12.8899 10.4599 13.0099 10.3599 13.1499 10.2899C13.2899 10.2199 13.4399 10.1899 13.5899 10.1899C13.7399 10.1899 13.8899 10.2299 14.0299 10.2899C14.1699 10.3599 14.2899 10.4599 14.3799 10.5799" stroke="white" stroke-width="1.5" stroke-linecap="round" stroke-linejoin="round"/> <path d="M7.41994 10.5298C8.09994 10.5298 8.64994 9.97982 8.64994 9.29982C8.64994 8.61982 8.09994 8.06982 7.41994 8.06982C6.73994 8.06982 6.18994 8.61982 6.18994 9.29982C6.18994 9.97982 6.73994 10.5298 7.41994 10.5298Z" stroke="white" stroke-width="1.5" stroke-linecap="round" stroke-linejoin="round"/> <path d="M22 21.0999L21.21 20.8999" stroke="white" stroke-width="1.5" stroke-linecap="round" stroke-linejoin="round"/> <path d="M19.3499 20.4102C19.0499 20.3302 18.7399 20.2602 18.4399 20.2002" stroke="white" stroke-width="1.5" stroke-linecap="round" stroke-linejoin="round"/> <path d="M7.3999 19.8402C10.4699 19.3202 13.5399 19.3202 16.6099 19.8402" stroke="white" stroke-width="1.5" stroke-linecap="round" stroke-linejoin="round"/> <path d="M4.62012 20.42C4.92012 20.34 5.23012 20.27 5.53012 20.21" stroke="white" stroke-width="1.5" stroke-linecap="round" stroke-linejoin="round"/> <path d="M2 21.0999L2.79 20.8999" stroke="white" stroke-width="1.5" stroke-linecap="round" stroke-linejoin="round"/> <path d="M22 2.8999L21.21 3.0999" stroke="white" stroke-width="1.5" stroke-linecap="round" stroke-linejoin="round"/> <path d="M19.3499 3.58984C19.0499 3.66984 18.7399 3.73984 18.4399 3.79984" stroke="white" stroke-width="1.5" stroke-linecap="round" stroke-linejoin="round"/> <path d="M7.3999 4.16016C10.4699 4.68016 13.5399 4.68016 16.6099 4.16016" stroke="white" stroke-width="1.5" stroke-linecap="round" stroke-linejoin="round"/> <path d="M4.62012 3.58008C4.92012 3.66008 5.23012 3.73008 5.53012 3.79008" stroke="white" stroke-width="1.5" stroke-linecap="round" stroke-linejoin="round"/> <path d="M2 2.8999L2.79 3.0999" stroke="white" stroke-width="1.5" stroke-linecap="round" stroke-linejoin="round"/> </g> <defs> <clipPath id="clip0_2085_381257"> <rect width="24" height="24" fill="white"/> </clipPath> </defs> </svg>
