<svg width="24" height="24" viewBox="0 0 24 24" fill="none" xmlns="http://www.w3.org/2000/svg"> <g clip-path="url(#clip0_2085_391963)"> <path d="M17.7996 2.29974C15.7596 1.66974 13.4396 2.15974 11.8196 3.77974L11.6996 3.88974C11.1196 4.47974 11.1196 5.41974 11.6996 5.99974C11.7696 6.06974 11.8396 6.12974 11.9196 6.17974C11.9296 6.18974 11.9496 6.19974 11.9696 6.20974C12.0296 6.24974 12.0796 6.27974 12.1396 6.29974C12.1696 6.31974 12.1996 6.32974 12.2296 6.33974C12.2796 6.36974 12.3496 6.38974 12.4096 6.38974C12.7096 6.46974 13.0296 6.44974 13.3196 6.32974C13.4996 6.24974 13.6696 6.13974 13.8096 5.99974C13.8096 5.99974 13.7996 6.01974 13.7896 6.02974C13.6496 6.16974 13.5496 6.33974 13.4796 6.51974C13.4096 6.68974 13.3796 6.87974 13.3796 7.05974C13.3796 7.43974 13.5196 7.81974 13.8096 8.10974C14.3896 8.68974 15.3296 8.69974 15.9196 8.10974C15.3296 8.69974 15.3396 9.63974 15.9196 10.2197C16.0596 10.3597 16.2296 10.4797 16.4096 10.5497C16.7696 10.6997 17.1696 10.6997 17.5296 10.5497C17.7196 10.4797 17.8796 10.3597 18.0296 10.2197C17.4996 10.7497 17.4496 11.5797 17.8796 12.1597C17.9296 12.2197 17.9796 12.2797 18.0296 12.3297C18.6096 12.9097 19.5496 12.9097 20.1396 12.3297L20.2496 12.2097C22.0996 10.3597 22.4796 7.58974 21.3796 5.35974" stroke="white" stroke-width="1.5" stroke-linecap="round" stroke-linejoin="round"/> <path d="M14.1497 12.0798C13.5397 12.3598 12.7897 12.2498 12.2897 11.7498C11.7897 11.2498 11.6697 10.4998 11.9597 9.88977C10.5097 9.08977 10.4697 7.01977 11.8797 6.15977C12.4597 6.58977 13.2897 6.53977 13.8197 6.00977C13.2397 6.58977 13.2397 7.53977 13.8197 8.11977C14.3997 8.69977 15.3397 8.69977 15.9297 8.11977C15.3397 8.70977 15.3497 9.64976 15.9297 10.2298C16.5097 10.8098 17.4597 10.8098 18.0397 10.2298C17.5097 10.7598 17.4597 11.5798 17.8897 12.1698C17.0297 13.5898 14.9597 13.5398 14.1597 12.0898L14.1497 12.0798Z" stroke="white" stroke-width="1.5" stroke-linecap="round" stroke-linejoin="round"/> <path d="M2.02979 19.3098C2.68979 16.5598 4.71979 16.9898 6.70979 15.6598C8.69979 14.3298 7.69979 12.3498 8.36979 10.3598C8.73979 9.2598 9.91979 8.7598 10.8998 8.5498" stroke="white" stroke-width="1.5" stroke-linecap="round" stroke-linejoin="round"/> <path d="M2.02979 21.9601C2.02979 21.9601 3.39978 21.9601 4.71978 20.3001C6.03979 18.6401 7.69979 17.9801 8.69979 17.6501C9.69979 17.3201 10.6898 16.3201 11.0198 14.0001C11.1598 13.0201 11.6498 12.2201 12.1698 11.6201" stroke="white" stroke-width="1.5" stroke-linecap="round" stroke-linejoin="round"/> <path d="M6.70996 21.9998C6.70996 21.9998 7.03996 20.9598 9.68996 20.2998C12.34 19.6398 12.67 16.9898 14 15.9898C14.82 15.3798 15.13 14.0098 15.25 13.0498" stroke="white" stroke-width="1.5" stroke-linecap="round" stroke-linejoin="round"/> </g> <defs> <clipPath id="clip0_2085_391963"> <rect width="24" height="24" fill="white"/> </clipPath> </defs> </svg>
