<svg width="24" height="24" viewBox="0 0 24 24" fill="none" xmlns="http://www.w3.org/2000/svg"> <g clip-path="url(#clip0_2085_381259)"> <path d="M7.77 4.33008H15.92C16.88 4.33008 17.66 5.11008 17.66 6.07008V15.2001C17.66 16.1601 16.88 16.9401 15.92 16.9401H3.74C2.78 16.9401 2 16.1601 2 15.2001V6.07008C2 5.11008 2.78 4.33008 3.74 4.33008" stroke="white" stroke-width="1.5" stroke-linecap="round" stroke-linejoin="round"/> <path d="M18.0898 16.9401C19.0498 16.9401 19.8298 16.1601 19.8298 15.2001V6.07008C19.8298 5.11008 19.0498 4.33008 18.0898 4.33008" stroke="white" stroke-width="1.5" stroke-linecap="round" stroke-linejoin="round"/> <path d="M20.2598 16.9401C21.2198 16.9401 21.9998 16.1601 21.9998 15.2001V6.07008C21.9998 5.11008 21.2198 4.33008 20.2598 4.33008" stroke="white" stroke-width="1.5" stroke-linecap="round" stroke-linejoin="round"/> <path d="M6.13016 19.67C6.01016 19.67 5.91016 19.57 5.91016 19.45C5.91016 19.33 6.01016 19.23 6.13016 19.23" stroke="white" stroke-width="1.5" stroke-linecap="round" stroke-linejoin="round"/> <path d="M6.12988 19.67C6.24988 19.67 6.34988 19.57 6.34988 19.45C6.34988 19.33 6.24988 19.23 6.12988 19.23" stroke="white" stroke-width="1.5" stroke-linecap="round" stroke-linejoin="round"/> <path d="M7.87012 19.4502H13.9601" stroke="white" stroke-width="1.5" stroke-linecap="round" stroke-linejoin="round"/> </g> <defs> <clipPath id="clip0_2085_381259"> <rect width="24" height="24" fill="white"/> </clipPath> </defs> </svg>
