<svg width="24" height="24" viewBox="0 0 24 24" fill="none" xmlns="http://www.w3.org/2000/svg"> <g clip-path="url(#clip0_2085_392078)"> <path d="M9.85 18.42H6.1L5.84 18.16L5.59 17.91V11.61C5.56 6.30002 9.87 1.99002 15.19 2.00002H19.98C21.08 2.01002 21.98 2.90002 21.98 4.00002L22 8.81002C22.01 12.67 19.73 16.01 16.44 17.53" stroke="white" stroke-width="1.5" stroke-linecap="round" stroke-linejoin="round"/> <path d="M13.6899 10.3205C15.6699 9.6105 17.8399 9.5605 19.8499 10.1605" stroke="white" stroke-width="1.5" stroke-linecap="round" stroke-linejoin="round"/> <path d="M9.66992 14.3303C11.6499 13.6203 13.8199 13.5703 15.8299 14.1703" stroke="white" stroke-width="1.5" stroke-linecap="round" stroke-linejoin="round"/> <path d="M13.6899 10.3202C14.3999 8.34016 14.4499 6.17016 13.8499 4.16016" stroke="white" stroke-width="1.5" stroke-linecap="round" stroke-linejoin="round"/> <path d="M9.66992 14.3299C10.3799 12.3499 10.4299 10.1799 9.82992 8.16992" stroke="white" stroke-width="1.5" stroke-linecap="round" stroke-linejoin="round"/> <path d="M2 22.0001L18.43 5.58008" stroke="white" stroke-width="1.5" stroke-linecap="round" stroke-linejoin="round"/> </g> <defs> <clipPath id="clip0_2085_392078"> <rect width="24" height="24" fill="white"/> </clipPath> </defs> </svg>
