<svg width="24" height="24" viewBox="0 0 24 24" fill="none" xmlns="http://www.w3.org/2000/svg"> <g clip-path="url(#clip0_4482_8353)"> <path d="M13.6796 8.31994C14.6096 9.24994 14.6096 10.7499 13.6796 11.6799C12.7496 12.6099 11.2496 12.6099 10.3196 11.6799C9.38957 10.7499 9.38957 9.24994 10.3196 8.31994C11.2496 7.38994 12.7596 7.38994 13.6796 8.31994Z" stroke="white" stroke-width="1.5" stroke-linecap="round" stroke-linejoin="round"/> <path d="M5.48926 5.45995C6.97926 3.26995 9.53926 2.06995 11.9993 2.06995C15.7593 2.06995 19.7793 4.88995 19.7793 9.73995" stroke="white" stroke-width="1.5" stroke-linecap="round" stroke-linejoin="round"/> <path d="M19.7797 9.69995C19.7797 11.81 18.8397 13.82 17.2197 15.17L14.6697 17.3C13.6497 18.15 12.8897 19.26 12.4697 20.52L11.9997 21.93L11.5297 20.52C11.1097 19.26 10.3497 18.15 9.32973 17.3L6.77973 15.17C5.15973 13.82 4.21973 11.81 4.21973 9.69995V9.73995" stroke="white" stroke-width="1.5" stroke-linecap="round" stroke-linejoin="round"/> </g> <defs> <clipPath id="clip0_4482_8353"> <rect width="24" height="24" fill="white"/> </clipPath> </defs> </svg>
