<svg width="24" height="24" viewBox="0 0 24 24" fill="none" xmlns="http://www.w3.org/2000/svg"> <g clip-path="url(#clip0_4482_7244)"> <path d="M7.04004 13.2502C10.21 11.8502 14.14 9.54015 16.88 7.42015L16.89 7.41016" stroke="white" stroke-width="1.5" stroke-miterlimit="10"/> <path d="M5.8197 11.7602C7.4797 14.6302 11.1598 15.6202 14.0298 13.9602C16.8998 12.3002 17.8897 8.63021 16.2297 5.76021C14.5697 2.89021 10.8898 1.90021 8.01978 3.56021C6.57978 4.39021 5.61973 5.72022 5.21973 7.21022" stroke="white" stroke-width="1.5" stroke-miterlimit="10" stroke-linecap="round" stroke-linejoin="round"/> <path d="M15.8901 12.2695L18.8901 19.1095C19.1501 19.6995 18.9201 20.3795 18.3701 20.6995L17.7201 21.0795C17.1601 21.3995 16.4601 21.2495 16.0801 20.7295L11.6602 14.7295" stroke="white" stroke-width="1.5" stroke-miterlimit="10"/> </g> <defs> <clipPath id="clip0_4482_7244"> <rect width="24" height="24" fill="white"/> </clipPath> </defs> </svg>
