<svg width="24" height="24" viewBox="0 0 24 24" fill="none" xmlns="http://www.w3.org/2000/svg"> <g clip-path="url(#clip0_2085_392208)"> <path d="M11.8804 12V16.74" stroke="white" stroke-width="1.5" stroke-linecap="round" stroke-linejoin="round"/> <path d="M10.3302 2.56043L10.8202 2.28043C11.4702 1.91043 12.2802 1.91043 12.9302 2.28043L19.7702 6.23043C20.4202 6.61043 20.8202 7.30043 20.8202 8.06043V15.9404C20.8202 16.7004 20.4202 17.3904 19.7702 17.7704L12.9302 21.7204C12.2802 22.0904 11.4702 22.0904 10.8202 21.7204L3.98018 17.7704C3.33018 17.3904 2.93018 16.7004 2.93018 15.9404V8.06043C2.93018 7.30043 3.33018 6.61043 3.98018 6.23043L5.00018 5.64043" stroke="white" stroke-width="1.5" stroke-linecap="round" stroke-linejoin="round"/> <path d="M11.8804 12.0001L16.0904 9.37012" stroke="white" stroke-width="1.5" stroke-linecap="round" stroke-linejoin="round"/> <path d="M11.8804 12.0001L7.67041 9.37012" stroke="white" stroke-width="1.5" stroke-linecap="round" stroke-linejoin="round"/> </g> <defs> <clipPath id="clip0_2085_392208"> <rect width="24" height="24" fill="white"/> </clipPath> </defs> </svg>
