<svg width="24" height="24" viewBox="0 0 24 24" fill="none" xmlns="http://www.w3.org/2000/svg"> <g clip-path="url(#clip0_2085_380969)"> <path d="M11.9998 5.91003C11.9998 5.91003 17.2198 6.80003 17.2198 16.63C17.1898 18.02 16.6398 19.35 15.6698 20.34C14.6998 21.34 13.3898 21.93 11.9998 21.99C10.6098 21.92 9.29978 21.33 8.32978 20.34C7.35978 19.34 6.80979 18.02 6.77979 16.63C6.77979 6.80003 11.9998 5.91003 11.9998 5.91003Z" stroke="white" stroke-width="1.5" stroke-linecap="round" stroke-linejoin="round"/> <path d="M15.26 6.97001H15.25C14.8 6.79001 14.4 6.49001 14.11 6.11001C13.82 5.73001 13.63 5.27001 13.59 4.79001L13.31 2.01001H10.7L10.42 4.79001C10.37 5.27001 10.19 5.73001 9.9 6.11001C9.61 6.49001 9.21 6.79001 8.76 6.96001H8.75" stroke="white" stroke-width="1.5" stroke-linecap="round" stroke-linejoin="round"/> <path d="M12 22.0001C19.39 22.0001 22 20.2401 22 15.9101C22 11.9201 18.17 7.13005 13.23 6.43005" stroke="white" stroke-width="1.5" stroke-linecap="round" stroke-linejoin="round"/> <path d="M2 15.91C2 20.23 4.61 22 12 22" stroke="white" stroke-width="1.5" stroke-linecap="round" stroke-linejoin="round"/> <path d="M10.77 6.43005C7.15002 6.94005 4.12002 9.66005 2.77002 12.6401" stroke="white" stroke-width="1.5" stroke-linecap="round" stroke-linejoin="round"/> </g> <defs> <clipPath id="clip0_2085_380969"> <rect width="24" height="24" fill="white"/> </clipPath> </defs> </svg>
