<svg width="24" height="24" viewBox="0 0 24 24" fill="none" xmlns="http://www.w3.org/2000/svg"> <g clip-path="url(#clip0_4482_14309)"> <path d="M11 10.0703H7C5.89543 10.0703 5 10.9657 5 12.0703V15.0703C5 16.1749 5.89543 17.0703 7 17.0703H11C12.1046 17.0703 13 16.1749 13 15.0703V12.0703C13 10.9657 12.1046 10.0703 11 10.0703Z" stroke="white" stroke-width="1.5" stroke-linecap="round" stroke-linejoin="round"/> <path d="M2 10.0596C2 7.84957 3.79 6.05957 6 6.05957H18C20.21 6.05957 22 7.84957 22 10.0596V17.0596C22 19.2696 20.21 21.0596 18 21.0596H6C3.79 21.0596 2 19.2696 2 17.0596V14.5196" stroke="white" stroke-width="1.5" stroke-linecap="round" stroke-linejoin="round"/> <path d="M16 6.05957V3.55957C16 2.72957 16.67 2.05957 17.5 2.05957C18.33 2.05957 19 2.72957 19 3.55957V6.05957" stroke="white" stroke-width="1.5" stroke-linecap="round" stroke-linejoin="round"/> </g> <defs> <clipPath id="clip0_4482_14309"> <rect width="24" height="24" fill="white"/> </clipPath> </defs> </svg>
