<svg width="24" height="24" viewBox="0 0 24 24" fill="none" xmlns="http://www.w3.org/2000/svg"> <g clip-path="url(#clip0_2085_381216)"> <path d="M3.1299 7.0401C4.1899 6.7601 5.3499 7.6701 5.7299 9.0801C6.1099 10.4901 5.5599 11.8701 4.4999 12.1501C3.4399 12.4301 2.2799 11.5201 1.8999 10.1101" stroke="white" stroke-width="1.5" stroke-linecap="round" stroke-linejoin="round"/> <path d="M10.7198 4.09011C11.0998 5.50011 10.5498 6.88011 9.48984 7.16011C8.42984 7.44011 7.26984 6.53011 6.88984 5.12011C6.50984 3.71011 7.05984 2.33011 8.11984 2.05011C9.17984 1.77011 10.3398 2.68011 10.7198 4.09011Z" stroke="white" stroke-width="1.5" stroke-linecap="round" stroke-linejoin="round"/> <path d="M17.11 5.12002C16.73 6.53002 15.57 7.45002 14.51 7.16002C13.45 6.88002 12.9 5.50002 13.28 4.09002C13.66 2.68002 14.82 1.76002 15.88 2.05002C16.94 2.33002 17.49 3.71002 17.11 5.12002Z" stroke="white" stroke-width="1.5" stroke-linecap="round" stroke-linejoin="round"/> <path d="M22.1002 10.11C21.7202 11.52 20.5602 12.44 19.5002 12.15C18.4402 11.87 17.8902 10.49 18.2702 9.08001C18.6502 7.67001 19.8102 6.75001 20.8702 7.04001C21.9302 7.33001 22.4802 8.70001 22.1002 10.11Z" stroke="white" stroke-width="1.5" stroke-linecap="round" stroke-linejoin="round"/> <path d="M8.43 22.0001H7.53C5.72 22.0001 4.25 20.5301 4.25 18.7201V18.3301C4.25 16.5601 5.26 14.9501 6.85 14.1901C7.68 13.7901 8.38 13.1401 8.84 12.3401L9.35 11.4601C9.93 10.4501 11.01 9.82007 12.18 9.82007C13.17 9.82007 14.1 10.2701 14.72 11.0401L16.24 12.9301C16.59 13.3601 17 13.7301 17.47 14.0201C18.91 14.9101 19.78 16.4801 19.78 18.1801V18.7401C19.78 20.5501 18.31 22.0201 16.5 22.0201H15.6C14.96 22.0201 14.33 21.8201 13.81 21.4401C12.74 20.6701 11.3 20.6701 10.24 21.4401C9.72 21.8201 9.1 22.0201 8.45 22.0201L8.43 22.0001Z" stroke="white" stroke-width="1.5" stroke-linecap="round" stroke-linejoin="round"/> </g> <defs> <clipPath id="clip0_2085_381216"> <rect width="24" height="24" fill="white"/> </clipPath> </defs> </svg>
