<svg width="24" height="24" viewBox="0 0 24 24" fill="none" xmlns="http://www.w3.org/2000/svg"> <g clip-path="url(#clip0_4482_15874)"> <path d="M13.4604 2.61043C14.2704 3.42043 14.2704 4.73043 13.4604 5.54043C12.6504 6.35043 11.3404 6.35043 10.5304 5.54043C9.72035 4.73043 9.72035 3.42043 10.5304 2.61043C11.3404 1.80043 12.6504 1.80043 13.4604 2.61043Z" stroke="white" stroke-width="1.5" stroke-linecap="round" stroke-linejoin="round"/> <path d="M15.1096 6.13965H8.89961C8.03961 6.13965 7.34961 6.83965 7.34961 7.68965C7.34961 8.54965 8.04961 9.23965 8.89961 9.23965H15.1096C15.9696 9.23965 16.6596 8.53965 16.6596 7.68965C16.6596 6.82965 15.9596 6.13965 15.1096 6.13965Z" stroke="white" stroke-width="1.5" stroke-linecap="round" stroke-linejoin="round"/> <path d="M14.0703 9.25L15.2703 14.66" stroke="white" stroke-width="1.5" stroke-linecap="round" stroke-linejoin="round"/> <path d="M7.86035 18.5602L9.93035 9.24023" stroke="white" stroke-width="1.5" stroke-linecap="round" stroke-linejoin="round"/> <path d="M18.21 21.6696H5.79C5.22 21.6696 4.75 21.2096 4.75 20.6296V20.1096C4.75 19.2496 5.45 18.5596 6.3 18.5596H17.69C18.55 18.5596 19.24 19.2596 19.24 20.1096V20.6296C19.24 21.1996 18.78 21.6696 18.2 21.6696H18.21Z" stroke="white" stroke-width="1.5" stroke-linecap="round" stroke-linejoin="round"/> </g> <defs> <clipPath id="clip0_4482_15874"> <rect width="24" height="24" fill="white"/> </clipPath> </defs> </svg>
