<svg width="24" height="24" viewBox="0 0 24 24" fill="none" xmlns="http://www.w3.org/2000/svg"> <g clip-path="url(#clip0_4482_8334)"> <path d="M16.2897 15.26C16.4697 14.54 16.9197 13.91 17.5397 13.49L21.0097 11.18C21.5697 10.81 21.9297 10.21 21.9897 9.54003C22.0497 8.87003 21.8197 8.21003 21.3497 7.74003L16.2697 2.66003C15.7997 2.19003 15.1397 1.95003 14.4697 2.02003C13.7997 2.09003 13.1997 2.45003 12.8297 3.00003L10.5197 6.47003C10.1097 7.09003 9.47971 7.54003 8.74971 7.72003L2.84971 9.20003C2.45971 9.30003 2.14971 9.60003 2.04971 9.98003C1.93971 10.37 2.04971 10.78 2.33971 11.07L12.9497 21.68C13.2297 21.96 13.6497 22.07 14.0397 21.97C14.4297 21.86 14.7297 21.56 14.8297 21.16L15.1297 19.98" stroke="white" stroke-width="1.5" stroke-linecap="round" stroke-linejoin="round"/> <path d="M2 22L7.63 16.37" stroke="white" stroke-width="1.5" stroke-linecap="round" stroke-linejoin="round"/> </g> <defs> <clipPath id="clip0_4482_8334"> <rect width="24" height="24" fill="white"/> </clipPath> </defs> </svg>
