<svg width="24" height="24" viewBox="0 0 24 24" fill="none" xmlns="http://www.w3.org/2000/svg"> <g clip-path="url(#clip0_4482_2956)"> <path d="M9.5 14.1401H14.5" stroke="white" stroke-width="1.5" stroke-linecap="round" stroke-linejoin="round"/> <path d="M10.23 11.3999L13.77 7.85986" stroke="white" stroke-width="1.5" stroke-linecap="round" stroke-linejoin="round"/> <path d="M13.77 11.3999L10.23 7.85986" stroke="white" stroke-width="1.5" stroke-linecap="round" stroke-linejoin="round"/> <path d="M3 12.21V7C3 4.25 5.25 2 8 2H16C18.75 2 21 4.25 21 7V19.9C21 20.82 19.99 21.39 19.2 20.92L16.86 19.52C16.34 19.21 15.6799 19.24 15.1899 19.61L12.9 21.33C12.37 21.73 11.63 21.73 11.1 21.33L8.81006 19.61C8.32006 19.24 7.66001 19.21 7.14001 19.52L4.80005 20.92C4.01005 21.39 3 20.82 3 19.9V16.75" stroke="white" stroke-width="1.5" stroke-linecap="round" stroke-linejoin="round"/> </g> <defs> <clipPath id="clip0_4482_2956"> <rect width="24" height="24" fill="white"/> </clipPath> </defs> </svg>
