<svg width="24" height="24" viewBox="0 0 24 24" fill="none" xmlns="http://www.w3.org/2000/svg"> <g clip-path="url(#clip0_2085_385643)"> <path d="M12.1199 8.9898C12.7999 8.9898 13.3399 8.4398 13.3399 7.7698C13.3399 7.0998 12.7899 6.5498 12.1199 6.5498C11.4499 6.5498 10.8999 7.0998 10.8999 7.7698C10.8999 8.4398 11.4499 8.9898 12.1199 8.9898Z" stroke="white" stroke-width="1.5" stroke-linecap="round" stroke-linejoin="round"/> <path d="M14.3299 4.44977C15.0099 4.44977 15.5499 3.89977 15.5499 3.22977C15.5499 2.55977 14.9999 2.00977 14.3299 2.00977C13.6599 2.00977 13.1099 2.55977 13.1099 3.22977C13.1099 3.89977 13.6599 4.44977 14.3299 4.44977Z" stroke="white" stroke-width="1.5" stroke-linecap="round" stroke-linejoin="round"/> <path d="M8.25002 12.78L7.27002 10.5" stroke="white" stroke-width="1.5" stroke-linecap="round" stroke-linejoin="round"/> <path d="M13.86 10.9898L12.79 8.7998" stroke="white" stroke-width="1.5" stroke-linecap="round" stroke-linejoin="round"/> <path d="M12.6001 6.55006L13.7501 4.31006" stroke="white" stroke-width="1.5" stroke-linecap="round" stroke-linejoin="round"/> <path d="M18.1698 5.4201L15.5498 3.8501" stroke="white" stroke-width="1.5" stroke-linecap="round" stroke-linejoin="round"/> <path d="M18.4001 7.30017C18.3001 7.16017 18.2301 7.01017 18.1901 6.84017C18.1501 6.68017 18.1501 6.50017 18.1801 6.34017C18.2101 6.17017 18.2701 6.01017 18.3601 5.87017C18.4501 5.73017 18.5701 5.60017 18.7001 5.50017C18.8401 5.40017 18.9901 5.33017 19.1601 5.29017C19.3201 5.25017 19.5001 5.25017 19.6601 5.28017C19.8301 5.31017 19.9901 5.37017 20.1301 5.46017C20.2701 5.55017 20.4001 5.67017 20.5001 5.80017C20.5001 5.80017 20.5101 5.82017 20.5201 5.83017" stroke="white" stroke-width="1.5" stroke-linecap="round" stroke-linejoin="round"/> <path d="M15.9901 13.1902C16.0401 13.0402 16.0601 12.8802 16.0601 12.7202C16.0601 12.2602 15.8801 11.8202 15.5501 11.5002C15.2301 11.1802 14.7901 10.9902 14.3301 10.9902C13.8701 10.9902 13.4301 11.1702 13.1101 11.5002C12.7901 11.8202 12.6001 12.2602 12.6001 12.7202C12.6001 12.8802 12.6201 13.0402 12.6701 13.1902" stroke="white" stroke-width="1.5" stroke-linecap="round" stroke-linejoin="round"/> <path d="M9.84977 19.75H8.50977" stroke="white" stroke-width="1.5" stroke-linecap="round" stroke-linejoin="round"/> <path d="M16.1498 19.75H14.8198" stroke="white" stroke-width="1.5" stroke-linecap="round" stroke-linejoin="round"/> <path d="M20.5101 17.8601C20.5201 17.6701 20.5101 17.4801 20.4701 17.3001L20.1201 15.6001" stroke="white" stroke-width="1.5" stroke-linecap="round" stroke-linejoin="round"/> <path d="M4.25977 17.7302C4.25977 17.5802 4.26977 17.4402 4.29977 17.2902L4.80977 14.8102C4.89977 14.3502 5.14977 13.9402 5.51977 13.6402C5.87977 13.3402 6.33977 13.1802 6.80977 13.1802H17.9598" stroke="white" stroke-width="1.5" stroke-linecap="round" stroke-linejoin="round"/> <path d="M3.07006 9.93986C3.37006 10.1899 3.72006 10.3899 4.10006 10.4999C4.47006 10.6199 4.87006 10.6599 5.26006 10.6299C5.65006 10.5999 6.03006 10.4899 6.38006 10.2999C6.73006 10.1199 7.04006 9.86986 7.29006 9.56986C7.54006 9.26986 7.74006 8.91986 7.86006 8.54986C7.98006 8.16986 8.02006 7.77986 7.99006 7.38986C7.96006 6.99986 7.85006 6.61986 7.66006 6.26986C7.48006 5.91986 7.23006 5.60986 6.93006 5.35986L3.06006 9.94986L3.07006 9.93986Z" stroke="white" stroke-width="1.5" stroke-linecap="round" stroke-linejoin="round"/> <path d="M18.6299 22C20.0099 22 21.1299 20.88 21.1299 19.5C21.1299 18.12 20.0099 17 18.6299 17C17.2499 17 16.1299 18.12 16.1299 19.5C16.1299 20.88 17.2499 22 18.6299 22Z" stroke="white" stroke-width="1.5" stroke-linecap="round" stroke-linejoin="round"/> <path d="M12.3301 22C13.7101 22 14.8301 20.88 14.8301 19.5C14.8301 18.12 13.7101 17 12.3301 17C10.9501 17 9.83008 18.12 9.83008 19.5C9.83008 20.88 10.9501 22 12.3301 22Z" stroke="white" stroke-width="1.5" stroke-linecap="round" stroke-linejoin="round"/> <path d="M6.02002 22C7.40002 22 8.52002 20.88 8.52002 19.5C8.52002 18.12 7.40002 17 6.02002 17C4.64002 17 3.52002 18.12 3.52002 19.5C3.52002 20.88 4.64002 22 6.02002 22Z" stroke="white" stroke-width="1.5" stroke-linecap="round" stroke-linejoin="round"/> </g> <defs> <clipPath id="clip0_2085_385643"> <rect width="24" height="24" fill="white"/> </clipPath> </defs> </svg>
