<svg width="24" height="24" viewBox="0 0 24 24" fill="none" xmlns="http://www.w3.org/2000/svg"> <g clip-path="url(#clip0_4482_7198)"> <path d="M9.83984 4.61961L16.2198 2.49961C18.7898 1.63961 20.1998 3.03961 19.3298 5.60961L17.7999 10.1896" stroke="white" stroke-width="1.5" stroke-miterlimit="10" stroke-linecap="round" stroke-linejoin="round"/> <path d="M10.9201 12.3802C10.9201 12.3702 10.9201 12.3702 10.9301 12.3602L12.08 9.76015L7.78012 11.6602C7.01012 12.0002 5.79015 11.9202 5.06015 11.4902L4.0101 10.8602C1.4901 9.34015 1.70009 7.34016 4.50009 6.41016" stroke="white" stroke-width="1.5" stroke-miterlimit="10" stroke-linecap="round" stroke-linejoin="round"/> <path d="M15.7902 21.7501C19.0818 21.7501 21.7501 19.0817 21.7501 15.7901C21.7501 12.4985 19.0818 9.83008 15.7902 9.83008C12.4985 9.83008 9.83008 12.4985 9.83008 15.7901C9.83008 19.0817 12.4985 21.7501 15.7902 21.7501Z" stroke="white" stroke-width="1.5" stroke-miterlimit="10" stroke-linecap="round"/> <path d="M15.79 13.21V15.4799C15.79 15.6699 15.88 15.86 16.04 15.97L17.74 17.16" stroke="white" stroke-width="1.5" stroke-miterlimit="10" stroke-linecap="round"/> </g> <defs> <clipPath id="clip0_4482_7198"> <rect width="24" height="24" fill="white"/> </clipPath> </defs> </svg>
