<svg width="24" height="24" viewBox="0 0 24 24" fill="none" xmlns="http://www.w3.org/2000/svg"> <g clip-path="url(#clip0_2085_389999)"> <path d="M11.3701 12H12.6101" stroke="white" stroke-width="1.5" stroke-linecap="round" stroke-linejoin="round"/> <path d="M13.55 18.57L14.47 16.23C13.85 16.06 13.4 15.47 13.43 14.78C13.47 14.06 14.06 13.47 14.78 13.43C15.47 13.4 16.06 13.85 16.23 14.47L22 12.19V11.81L16.23 9.53C16.06 10.15 15.47 10.61 14.78 10.57C14.06 10.53 13.47 9.94 13.43 9.22C13.4 8.53 13.85 7.94 14.47 7.77L12.19 2H11.81L9.53 7.77C10.15 7.94 10.61 8.53 10.57 9.22C10.53 9.94 9.94 10.53 9.22 10.57C8.53 10.61 7.94 10.15 7.77 9.53L2 11.88V12.26L7.77 14.47C7.94 13.85 8.53 13.4 9.22 13.43C9.94 13.47 10.53 14.06 10.57 14.78C10.61 15.47 10.15 16.06 9.53 16.23L10.45 18.57" stroke="white" stroke-width="1.5" stroke-linecap="round" stroke-linejoin="round"/> </g> <defs> <clipPath id="clip0_2085_389999"> <rect width="24" height="24" fill="white"/> </clipPath> </defs> </svg>
