<svg width="22" height="14" viewBox="0 0 22 14" fill="none" xmlns="http://www.w3.org/2000/svg"> <g clip-path="url(#clip0_2085_381344)"> <path d="M3.61 10.0391L2.18 11.4691L0.75 10.0391" stroke="white" stroke-width="1.5" stroke-linecap="round" stroke-linejoin="round"/> <path d="M17.8901 8.60969L19.3201 7.17969L20.7501 8.60969" stroke="white" stroke-width="1.5" stroke-linecap="round" stroke-linejoin="round"/> <path d="M17.7702 4.41C16.2202 2.2 13.6602 0.75 10.7502 0.75C6.02018 0.75 2.18018 4.59 2.18018 9.32C2.18018 9.98 2.26018 10.62 2.40018 11.24" stroke="white" stroke-width="1.5" stroke-linecap="round" stroke-linejoin="round"/> <path d="M13.6101 8.03977V12.2898C13.6101 12.7598 13.2301 13.1398 12.7601 13.1398H8.74014C8.27014 13.1398 7.89014 12.7598 7.89014 12.2898V6.35977C7.89014 5.88977 8.27014 5.50977 8.74014 5.50977H11.1301C11.3601 5.50977 11.5801 5.59977 11.7401 5.76977L13.3701 7.44977C13.5201 7.60977 13.6101 7.81977 13.6101 8.03977Z" stroke="white" stroke-width="1.5" stroke-linecap="round" stroke-linejoin="round"/> </g> <defs> <clipPath id="clip0_2085_381344"> <rect width="21.5" height="13.88" fill="white"/> </clipPath> </defs> </svg>
