<svg width="24" height="24" viewBox="0 0 24 24" fill="none" xmlns="http://www.w3.org/2000/svg"> <g clip-path="url(#clip0_4482_2082)"> <path d="M5.75 12.57V11.05C5.75 10.19 6.45006 9.48997 7.31006 9.48997H8.84998C9.06998 9.48997 9.27997 9.42997 9.46997 9.32997L11.84 7.96996C12.46 7.60996 13.24 8.05996 13.24 8.77996V15.21C13.24 15.97 12.38 16.42 11.76 15.97L9.51001 14.36C9.30001 14.21 9.04003 14.13 8.78003 14.13H7.31006C6.45006 14.13 5.75 13.43 5.75 12.57Z" stroke="white" stroke-width="1.5" stroke-linecap="round" stroke-linejoin="round"/> <path d="M15.8599 9.90991V14.0199" stroke="white" stroke-width="1.5" stroke-linecap="round" stroke-linejoin="round"/> <path d="M18.25 8.54004V15.3801" stroke="white" stroke-width="1.5" stroke-linecap="round" stroke-linejoin="round"/> <path d="M2 8V7C2 4.25 4.25 2 7 2H17C19.75 2 22 4.25 22 7V17C22 19.75 19.75 22 17 22H7C4.25 22 2 19.75 2 17V13" stroke="white" stroke-width="1.5" stroke-linecap="round" stroke-linejoin="round"/> </g> <defs> <clipPath id="clip0_4482_2082"> <rect width="24" height="24" fill="white"/> </clipPath> </defs> </svg>
