<svg width="24" height="24" viewBox="0 0 24 24" fill="none" xmlns="http://www.w3.org/2000/svg"> <g clip-path="url(#clip0_4482_10153)"> <path d="M16.2103 21.9998V8.3198C16.2103 8.0398 16.1003 7.7698 15.9003 7.5798L12.7403 4.4198C12.3303 4.0098 11.6603 4.0098 11.2503 4.4198L8.09027 7.5798C7.89027 7.7798 7.78027 8.0498 7.78027 8.3198V21.9998" stroke="white" stroke-width="1.5" stroke-linecap="round" stroke-linejoin="round"/> <path d="M12 2V4.11" stroke="white" stroke-width="1.5" stroke-linecap="round" stroke-linejoin="round"/> <path d="M16.21 8.31982H7.79004" stroke="white" stroke-width="1.5" stroke-linecap="round" stroke-linejoin="round"/> <path d="M2.53027 16.0098V14.5298C2.53027 13.4298 3.43027 12.5298 4.53027 12.5298H7.79027" stroke="white" stroke-width="1.5" stroke-linecap="round" stroke-linejoin="round"/> <path d="M16.2103 22.0001V11.4701C16.2103 11.1201 16.3803 10.8001 16.6603 10.6001C16.9403 10.4001 17.3103 10.3601 17.6303 10.4801L20.7903 11.6601C21.2003 11.8101 21.4703 12.2101 21.4703 12.6501V19.9901C21.4703 21.0901 20.5703 21.9901 19.4703 21.9901H4.53027C3.43027 21.9901 2.53027 21.0901 2.53027 19.9901" stroke="white" stroke-width="1.5" stroke-linecap="round" stroke-linejoin="round"/> <path d="M12 21.9998V12.5298" stroke="white" stroke-width="1.5" stroke-linecap="round" stroke-linejoin="round"/> </g> <defs> <clipPath id="clip0_4482_10153"> <rect width="24" height="24" fill="white"/> </clipPath> </defs> </svg>
