<svg width="24" height="24" viewBox="0 0 24 24" fill="none" xmlns="http://www.w3.org/2000/svg"> <g clip-path="url(#clip0_4482_9113)"> <path d="M6.67048 15.1501L4.69048 20.5801C4.55048 20.9601 4.65048 21.3901 4.94048 21.6801C5.23048 21.9701 5.66048 22.0601 6.04048 21.9201L15.5105 18.4801C15.8505 18.3601 16.1005 18.0701 16.1805 17.7201C16.2605 17.3701 16.1505 17.0001 15.9005 16.7501L9.87048 10.7201C9.62048 10.4701 9.25048 10.3601 8.90048 10.4401C8.55048 10.5201 8.26048 10.7701 8.14048 11.1101" stroke="white" stroke-width="1.5" stroke-linecap="round" stroke-linejoin="round"/> <path d="M13.8703 10.18L18.8203 5.22999C19.5603 4.48999 19.5603 3.28999 18.8203 2.54999C18.4603 2.18999 17.9803 1.98999 17.4803 1.98999C16.9803 1.98999 16.5003 2.18999 16.1403 2.54999L11.9403 6.74999C11.5303 7.15999 11.5303 7.82999 11.9403 8.23999L13.8803 10.18H13.8703Z" stroke="white" stroke-width="1.5" stroke-linecap="round" stroke-linejoin="round"/> <path d="M11.9304 8.25L14.4104 10.73C14.6104 10.93 14.7204 11.2 14.7204 11.47C14.7204 11.74 14.6104 12.02 14.4104 12.21L10.9404 15.68" stroke="white" stroke-width="1.5" stroke-linecap="round" stroke-linejoin="round"/> </g> <defs> <clipPath id="clip0_4482_9113"> <rect width="24" height="24" fill="white"/> </clipPath> </defs> </svg>
