<svg width="24" height="24" viewBox="0 0 24 24" fill="none" xmlns="http://www.w3.org/2000/svg"> <g clip-path="url(#clip0_4482_11385)"> <path d="M7.55965 10.8898C6.63965 10.8898 5.88965 10.1398 5.88965 9.2198C5.88965 8.2998 6.63965 7.5498 7.55965 7.5498C8.47965 7.5498 9.22965 8.2998 9.22965 9.2198C9.22965 10.1398 8.47965 10.8898 7.55965 10.8898Z" stroke="white" stroke-width="1.5" stroke-linecap="round" stroke-linejoin="round"/> <path d="M17.0003 10.8901H15.8903C15.2803 10.8901 14.7803 10.3901 14.7803 9.78006V8.67006C14.7803 8.06006 15.2803 7.56006 15.8903 7.56006H17.0003C17.6103 7.56006 18.1103 8.06006 18.1103 8.67006V9.78006C18.1103 10.3901 17.6103 10.8901 17.0003 10.8901Z" stroke="white" stroke-width="1.5" stroke-linecap="round" stroke-linejoin="round"/> <path d="M10.8899 18.1098H9.77992C9.16992 18.1098 8.66992 17.6098 8.66992 16.9998V15.8898C8.66992 15.2798 9.16992 14.7798 9.77992 14.7798H10.8899C11.4999 14.7798 11.9999 15.2798 11.9999 15.8898V16.9998C11.9999 17.6098 11.4999 18.1098 10.8899 18.1098Z" stroke="white" stroke-width="1.5" stroke-linecap="round" stroke-linejoin="round"/> <path d="M9.21973 9.22021H14.7797" stroke="white" stroke-width="1.5" stroke-linecap="round" stroke-linejoin="round"/> <path d="M10.3301 14.78V13.67C10.3301 11.22 12.3201 9.22998 14.7701 9.22998" stroke="white" stroke-width="1.5" stroke-linecap="round" stroke-linejoin="round"/> <path d="M22 12C22 17.52 17.52 22 12 22C6.48 22 2 17.52 2 12C2 6.48 6.48 2 12 2C16.14 2 19.7 4.52 21.21 8.11" stroke="white" stroke-width="1.5" stroke-linecap="round" stroke-linejoin="round"/> </g> <defs> <clipPath id="clip0_4482_11385"> <rect width="24" height="24" fill="white"/> </clipPath> </defs> </svg>
