<svg width="24" height="24" viewBox="0 0 24 24" fill="none" xmlns="http://www.w3.org/2000/svg"> <g clip-path="url(#clip0_4482_2808)"> <path d="M15.5 17V20C15.5 21.1 14.6 22 13.5 22H10.5C9.4 22 8.5 21.1 8.5 20V17C8.5 16.45 8.95 16 9.5 16H14.5C15.05 16 15.5 16.45 15.5 17Z" stroke="white" stroke-width="1.5" stroke-miterlimit="10" stroke-linecap="round" stroke-linejoin="round"/> <path d="M10.5 2C9.4 2 8.5 2.9 8.5 4V7C8.5 7.55 8.95 8 9.5 8H14.5C15.05 8 15.5 7.55 15.5 7V4" stroke="white" stroke-width="1.5" stroke-miterlimit="10" stroke-linecap="round" stroke-linejoin="round"/> <path d="M2 12H22" stroke="white" stroke-width="1.5" stroke-miterlimit="10" stroke-linecap="round" stroke-linejoin="round"/> </g> <defs> <clipPath id="clip0_4482_2808"> <rect width="24" height="24" fill="white"/> </clipPath> </defs> </svg>
