<svg width="24" height="24" viewBox="0 0 24 24" fill="none" xmlns="http://www.w3.org/2000/svg"> <g clip-path="url(#clip0_2085_381292)"> <path d="M2.38 11.3802C2.14 11.6502 2 12.0002 2 12.3702C2 12.7402 2.14 13.0902 2.38 13.3602C4.66 15.8702 8.35 18.4302 12 18.3702C15.64 18.4302 19.34 15.8702 21.62 13.3602C21.86 13.0902 22 12.7402 22 12.3702C22 12.0002 21.86 11.6502 21.62 11.3802C19.29 8.8202 15.58 6.3102 12 6.3702C9.54 6.3302 7.02 7.5002 4.93 9.0602" stroke="white" stroke-width="1.5" stroke-linecap="round" stroke-linejoin="round"/> <path d="M8.24023 12.3701C8.24023 14.4601 9.93024 16.1501 12.0202 16.1501V8.6001C9.93024 8.6001 8.24023 10.2901 8.24023 12.3801V12.3701Z" stroke="white" stroke-width="1.5" stroke-linecap="round" stroke-linejoin="round"/> <path d="M12.0098 12.3701H13.3998" stroke="white" stroke-width="1.5" stroke-linecap="round" stroke-linejoin="round"/> <path d="M12.0098 10.2598H13.3998" stroke="white" stroke-width="1.5" stroke-linecap="round" stroke-linejoin="round"/> <path d="M12.0098 14.48H13.3998" stroke="white" stroke-width="1.5" stroke-linecap="round" stroke-linejoin="round"/> <path d="M12.0098 8.58984H13.3998" stroke="white" stroke-width="1.5" stroke-linecap="round" stroke-linejoin="round"/> <path d="M12.0098 16.1401H13.3998" stroke="white" stroke-width="1.5" stroke-linecap="round" stroke-linejoin="round"/> </g> <defs> <clipPath id="clip0_2085_381292"> <rect width="24" height="24" fill="white"/> </clipPath> </defs> </svg>
