<svg width="24" height="24" viewBox="0 0 24 24" fill="none" xmlns="http://www.w3.org/2000/svg"> <g clip-path="url(#clip0_2085_390277)"> <path d="M18.0498 8.52992C17.9898 8.69992 17.9298 8.87992 17.8998 9.06992C17.8998 9.09992 17.8598 9.09992 17.8498 9.06992C17.5598 7.64992 16.4498 6.53992 15.0298 6.24992C14.9998 6.24992 14.9998 6.20992 15.0298 6.19992C16.4498 5.90992 17.5598 4.79992 17.8498 3.37992C17.8498 3.34992 17.8998 3.34992 17.8998 3.37992C18.1898 4.79992 19.2998 5.90992 20.7198 6.19992C20.7498 6.19992 20.7498 6.23992 20.7198 6.24992C20.5598 6.27992 20.3998 6.32992 20.2498 6.37992" stroke="white" stroke-width="1.5" stroke-linecap="round" stroke-linejoin="round"/> <path d="M21.46 1.50982C21.46 1.50982 21.48 1.49982 21.48 1.50982C21.59 2.05982 22.02 2.48982 22.58 2.60982C22.59 2.60982 22.59 2.62982 22.58 2.62982C22.03 2.73982 21.6 3.16982 21.48 3.72982C21.48 3.73982 21.46 3.73982 21.46 3.72982C21.35 3.17982 20.92 2.74982 20.36 2.62982C20.35 2.62982 20.35 2.60982 20.36 2.60982C20.91 2.49982 21.34 2.06982 21.46 1.50982Z" stroke="white" stroke-width="1.5" stroke-linecap="round" stroke-linejoin="round"/> <path d="M16.97 11.55C16.69 14.05 14.57 16 12 16C9.24 16 7 13.76 7 11V7C7 4.24 9.24 2 12 2C13.15 2 14.21 2.39 15.05 3.04" stroke="white" stroke-width="1.5" stroke-linecap="round" stroke-linejoin="round"/> <path d="M4 10.75C4 15.17 7.58 18.75 12 18.75C16.42 18.75 20 15.17 20 10.75" stroke="white" stroke-width="1.5" stroke-linecap="round" stroke-linejoin="round"/> <path d="M12 22V18.75" stroke="white" stroke-width="1.5" stroke-linecap="round" stroke-linejoin="round"/> </g> <defs> <clipPath id="clip0_2085_390277"> <rect width="24" height="24" fill="white"/> </clipPath> </defs> </svg>
