<svg width="24" height="24" viewBox="0 0 24 24" fill="none" xmlns="http://www.w3.org/2000/svg"> <g clip-path="url(#clip0_2085_381343)"> <path d="M19.8996 5.89055C19.6396 5.56055 19.3696 5.23055 19.0696 4.93055C15.1596 1.02055 8.82961 1.02055 4.92961 4.93055C4.62961 5.23055 4.35961 5.56055 4.09961 5.89055" stroke="white" stroke-width="1.5" stroke-linecap="round" stroke-linejoin="round"/> <path d="M8.5 21.3713C12.05 22.7013 16.21 21.9313 19.07 19.0713C19.37 18.7713 19.64 18.4413 19.9 18.1113" stroke="white" stroke-width="1.5" stroke-linecap="round" stroke-linejoin="round"/> <path d="M4.09961 18.1113C4.34961 18.4413 4.61961 18.7713 4.92961 19.0713C5.10961 19.2513 5.29961 19.4313 5.49961 19.5913" stroke="white" stroke-width="1.5" stroke-linecap="round" stroke-linejoin="round"/> <path d="M17.4097 14.7811V9.37109L21.7397 14.7811V9.37109" stroke="white" stroke-width="1.5" stroke-linecap="round" stroke-linejoin="round"/> <path d="M9.82959 9.37109V14.7811" stroke="white" stroke-width="1.5" stroke-linecap="round" stroke-linejoin="round"/> <path d="M9.82959 9.37109H12.4696C13.3996 9.37109 14.1596 10.1311 14.1596 11.0611C14.1596 11.9911 13.3996 12.7511 12.4696 12.7511H9.82959" stroke="white" stroke-width="1.5" stroke-linecap="round" stroke-linejoin="round"/> <path d="M2.25977 9.2207L4.11977 14.7807H4.73977L6.59977 9.2207" stroke="white" stroke-width="1.5" stroke-linecap="round" stroke-linejoin="round"/> </g> <defs> <clipPath id="clip0_2085_381343"> <rect width="24" height="24" fill="white"/> </clipPath> </defs> </svg>
