<svg width="24" height="24" viewBox="0 0 24 24" fill="none" xmlns="http://www.w3.org/2000/svg"> <g clip-path="url(#clip0_4482_9321)"> <path d="M4.36 15.8201H2.93C2.14 15.8201 1.5 15.1801 1.5 14.3901V11.5301C1.5 10.7401 2.14 10.1001 2.93 10.1001H4.36" stroke="white" stroke-width="1.5" stroke-linecap="round" stroke-linejoin="round"/> <path d="M19.6396 10.0901H21.0696C21.8596 10.0901 22.4996 10.7301 22.4996 11.5201V14.3801C22.4996 15.1701 21.8596 15.8101 21.0696 15.8101H19.6396" stroke="white" stroke-width="1.5" stroke-linecap="round" stroke-linejoin="round"/> <path d="M14.6496 18.6802C14.3396 18.6802 14.0396 18.5302 13.8596 18.2702L12.7796 16.7102C12.5996 16.4502 12.3096 16.3002 11.9896 16.3002C11.6696 16.3002 11.3796 16.4502 11.1996 16.7102L10.1196 18.2702C9.93961 18.5302 9.64961 18.6802 9.32961 18.6802H7.20961C5.62961 18.6802 4.34961 17.4002 4.34961 15.8202V11.0502C4.34961 9.47019 5.62961 8.19019 7.20961 8.19019H16.7596C18.3396 8.19019 19.6196 9.47019 19.6196 11.0502V15.8202C19.6196 16.7102 19.2096 17.5002 18.5796 18.0302" stroke="white" stroke-width="1.5" stroke-linecap="round" stroke-linejoin="round"/> <path d="M9.13965 8.18007V6.75007C9.13965 5.96007 9.77965 5.32007 10.5696 5.32007H13.4296C14.2196 5.32007 14.8596 5.96007 14.8596 6.75007V8.18007" stroke="white" stroke-width="1.5" stroke-linecap="round" stroke-linejoin="round"/> </g> <defs> <clipPath id="clip0_4482_9321"> <rect width="24" height="24" fill="white"/> </clipPath> </defs> </svg>
