<svg width="24" height="24" viewBox="0 0 24 24" fill="none" xmlns="http://www.w3.org/2000/svg"> <g clip-path="url(#clip0_2085_385869)"> <path d="M10.7702 22.0003C10.7702 18.7801 9.83855 13.6966 12.4382 9.18228M7.07022 22.0003H4.60022C3.58022 16.2503 2.14022 3.51029 5.22022 2.28029C8.30022 1.05029 12.6202 4.13029 13.8502 7.21029C13.2913 7.84962 12.8255 8.50963 12.4382 9.18228M8.02022 6.72029C6.77022 6.28029 5.30022 5.98029 3.69022 5.98029M15.7002 10.1121L12.4382 9.18228M20.6402 11.5203C20.6402 12.8803 19.5402 13.9903 18.1702 13.9903C16.8002 13.9903 15.7002 12.8903 15.7002 11.5203C15.7002 10.1503 16.8002 9.05029 18.1702 9.05029C19.5402 9.05029 20.6402 10.1503 20.6402 11.5203Z" stroke="white" stroke-width="1.5" stroke-linecap="round" stroke-linejoin="round"/> </g> <defs> <clipPath id="clip0_2085_385869"> <rect width="24" height="24" fill="white"/> </clipPath> </defs> </svg>
