<svg width="24" height="24" viewBox="0 0 24 24" fill="none" xmlns="http://www.w3.org/2000/svg"> <g clip-path="url(#clip0_2085_385852)"> <path d="M21 17.75C18 15.25 16.45 9.61 15.5 9.25C14.55 8.89 10 10.5 9.5 11.75C9 13 15.5 14.75 15 15.75C14.5 16.75 11.5 18.75 11.5 18.75H13.5M12.49 13.08C8.97 14.95 4.95 17.13 2 18.25M16 11.25L18.8275 9.36498M22 7.25C22 8.35 21.11 9.25 20 9.25C18.89 9.25 18 8.35 18 7.25C18 6.15 18.89 5.25 20 5.25C21.11 5.25 22 6.15 22 7.25Z" stroke="white" stroke-width="1.5" stroke-linecap="round" stroke-linejoin="round"/> </g> <defs> <clipPath id="clip0_2085_385852"> <rect width="24" height="24" fill="white"/> </clipPath> </defs> </svg>
