<svg width="24" height="24" viewBox="0 0 24 24" fill="none" xmlns="http://www.w3.org/2000/svg"> <g clip-path="url(#clip0_4482_9322)"> <path d="M20.3104 10.31C20.3104 14.9 16.5904 18.62 12.0004 18.62C7.41043 18.62 3.69043 14.9 3.69043 10.31C3.69043 5.72 7.41043 2 12.0004 2C15.2404 2 18.0504 3.86 19.4204 6.57" stroke="white" stroke-width="1.5" stroke-linecap="round" stroke-linejoin="round"/> <path d="M12.0004 13.43C13.4363 13.43 14.6004 12.2659 14.6004 10.83C14.6004 9.39404 13.4363 8.22998 12.0004 8.22998C10.5645 8.22998 9.40039 9.39404 9.40039 10.83C9.40039 12.2659 10.5645 13.43 12.0004 13.43Z" stroke="white" stroke-width="1.5" stroke-linecap="round" stroke-linejoin="round"/> <path d="M13.04 5.63989H10.96" stroke="white" stroke-width="1.5" stroke-linecap="round" stroke-linejoin="round"/> <path d="M19.2705 21.74H4.73047" stroke="white" stroke-width="1.5" stroke-linecap="round" stroke-linejoin="round"/> <path d="M16.6804 21.74L16.1504 17.51" stroke="white" stroke-width="1.5" stroke-linecap="round" stroke-linejoin="round"/> <path d="M7.32031 21.74L7.85031 17.51" stroke="white" stroke-width="1.5" stroke-linecap="round" stroke-linejoin="round"/> </g> <defs> <clipPath id="clip0_4482_9322"> <rect width="24" height="24" fill="white"/> </clipPath> </defs> </svg>
