<svg width="24" height="24" viewBox="0 0 24 24" fill="none" xmlns="http://www.w3.org/2000/svg">
<path d="M11.9999 20.2136C11.9999 20.3524 11.9506 20.4891 11.8588 20.593C9.66888 23.0716 7.66941 21.7489 6.80796 20.6144C6.71882 20.497 6.59482 20.4106 6.45486 20.365C5.09611 19.9222 4.7947 18.792 4.82957 17.9749C4.84222 17.6787 4.69139 17.386 4.43261 17.2423C2.8806 16.3802 3.05957 14.9711 3.48757 14.0792C3.60525 13.834 3.5847 13.5383 3.43454 13.3117C2.55231 11.9797 3.19085 10.6542 3.78715 9.96746C3.90927 9.82681 3.97744 9.64403 3.96874 9.45777C3.88834 7.7361 4.80821 6.93943 5.57129 6.64904C5.85312 6.54178 6.07826 6.29087 6.12163 5.99184C6.30097 4.75511 7.08897 3.84821 7.85864 3.23102C10.0397 1.48207 11.3831 1.94951 11.8891 2.49775C11.9684 2.58369 11.9999 2.70049 11.9999 2.81756M11.9999 20.2136C11.9999 20.3524 12.0494 20.4891 12.1412 20.593C14.3311 23.0716 16.3306 21.7489 17.192 20.6144C17.2812 20.497 17.4052 20.4106 17.5451 20.365C18.9039 19.9222 19.2053 18.792 19.1704 17.9749C19.1578 17.6787 19.3086 17.386 19.5674 17.2423C21.1194 16.3802 20.9404 14.9711 20.5124 14.0792C20.3948 13.834 20.4153 13.5383 20.5655 13.3117C21.4477 11.9797 20.8092 10.6542 20.2128 9.96746C20.0907 9.82681 20.0226 9.64403 20.0313 9.45777C20.1117 7.7361 19.1918 6.93943 18.4287 6.64904C18.1469 6.54178 17.9217 6.29087 17.8784 5.99184C17.699 4.75511 16.911 3.84821 16.1414 3.23102C13.9603 1.48207 12.6169 1.94951 12.1109 2.49775C12.0316 2.58369 11.9999 2.70049 11.9999 2.81756M11.9999 20.2136V2.81756M7.44981 9.75414C7.58611 9.3588 8.09535 8.44951 9.04193 7.9751M16.7329 9.75414C16.5966 9.3588 16.0874 8.44951 15.1408 7.9751M6.67548 15.0912C6.90403 15.2058 7.34449 15.3469 7.85871 15.353M7.85871 15.353C8.23187 15.3574 8.64388 15.2907 9.04193 15.0912M7.85871 15.353C7.6615 15.8587 7.50374 17.1075 8.45032 18.0563M17.3245 15.0912C17.096 15.2058 16.6555 15.3469 16.1413 15.353M16.1413 15.353C15.7681 15.3574 15.3561 15.2907 14.9581 15.0912M16.1413 15.353C16.3385 15.8587 16.4963 17.1075 15.5497 18.0563" stroke="black" stroke-width="1.5" stroke-linecap="round"/>
</svg>
