<svg width="24" height="24" viewBox="0 0 24 24" fill="none" xmlns="http://www.w3.org/2000/svg">
<path d="M14 8.05556C14 6.07234 15.6851 4.11252 16.8678 2.9812C17.5102 2.36678 18.4898 2.36678 19.1322 2.9812C20.3149 4.11253 22 6.07234 22 8.05556C22 10 20.4853 12 18 12C15.5147 12 14 10 14 8.05556Z" stroke="black" stroke-width="1.5"/>
<path d="M2 10H4L10.2622 12.7397C11.2241 13.1605 11.6664 14.2784 11.2528 15.2434C10.837 16.2136 9.71355 16.663 8.74342 16.2472L7 15.5" stroke="black" stroke-width="1.5" stroke-linecap="round" stroke-linejoin="round"/>
<path d="M2.33541 18.3292C1.96493 18.1439 1.51442 18.2941 1.32918 18.6646C1.14394 19.0351 1.29411 19.4856 1.66459 19.6708L2 19L2.33541 18.3292ZM11.3354 15.3292L10.6646 14.9938L9.99377 16.3354L10.6646 16.6708L11 16L11.3354 15.3292ZM13.7331 17.3666L13.3977 18.0374L13.7331 17.3666ZM16.4164 18V18.75H18V18V17.25H16.4164V18ZM18 22V21.25H9.88854V22V22.75H18V22ZM6.31083 21.1554L6.64625 20.4846L2.33541 18.3292L2 19L1.66459 19.6708L5.97542 21.8262L6.31083 21.1554ZM13.7331 17.3666L14.0685 16.6957L11.3354 15.3292L11 16L10.6646 16.6708L13.3977 18.0374L13.7331 17.3666ZM9.88854 22V21.25C8.76302 21.25 7.65295 20.9879 6.64625 20.4846L6.31083 21.1554L5.97542 21.8262C7.19041 22.4337 8.53015 22.75 9.88854 22.75V22ZM20 20H19.25C19.25 20.6904 18.6904 21.25 18 21.25V22V22.75C19.5188 22.75 20.75 21.5188 20.75 20H20ZM18 18V18.75C18.6904 18.75 19.25 19.3096 19.25 20H20H20.75C20.75 18.4812 19.5188 17.25 18 17.25V18ZM16.4164 18V17.25C15.6014 17.25 14.7975 17.0602 14.0685 16.6957L13.7331 17.3666L13.3977 18.0374C14.335 18.506 15.3685 18.75 16.4164 18.75V18Z" fill="black"/>
</svg>
