<svg width="24" height="24" viewBox="0 0 24 24" fill="none" xmlns="http://www.w3.org/2000/svg">
<path d="M12 4V8M12 8L9 11M12 8L15 11M9 11V8.50895C9 6.95946 7.28903 6.01332 5.95582 6.80292C3.52392 8.24321 2 10.8791 2 13.7055V17.3485C2 18.6773 3.27181 19.6366 4.54944 19.2716L6.09888 18.8289C7.81609 18.3383 9 16.7687 9 14.9828V11ZM15 11V8.50895C15 6.95946 16.711 6.01332 18.0442 6.80292C20.4761 8.24321 22 10.8791 22 13.7055V17.3485C22 18.6773 20.7282 19.6366 19.4506 19.2716L17.9011 18.8289C16.1839 18.3383 15 16.7687 15 14.9828V11Z" stroke="black" stroke-width="1.5" stroke-linecap="round" stroke-linejoin="round"/>
</svg>
