<svg width="24" height="24" viewBox="0 0 24 24" fill="none" xmlns="http://www.w3.org/2000/svg">
<path d="M18 11V8C18 6.89543 18.8954 6 20 6C21.1046 6 22 6.89543 22 8V12C22 14.2091 20.2091 16 18 16M6 11V8C6 6.89543 5.10457 6 4 6C2.89543 6 2 6.89543 2 8V12C2 14.2091 3.79086 16 6 16M10.2111 7.89443L6 10V15.1265C6 16.3136 6.52729 17.4394 7.43926 18.1994L8.15889 18.7991C10.384 20.6533 13.616 20.6533 15.8411 18.7991L16.5607 18.1994C17.4727 17.4394 18 16.3136 18 15.1265V10L13.7889 7.89443C12.6627 7.33137 11.3373 7.33137 10.2111 7.89443Z" stroke="black" stroke-width="1.5" stroke-linecap="round" stroke-linejoin="round"/>
</svg>
