<svg width="24" height="24" viewBox="0 0 24 24" fill="none" xmlns="http://www.w3.org/2000/svg"> <g clip-path="url(#clip0_4482_15516)"> <path d="M8.96973 14.6504H11.8097" stroke="white" stroke-width="1.5" stroke-linecap="round" stroke-linejoin="round"/> <path d="M10.3801 14.6504V9.36035L8.83008 10.7604" stroke="white" stroke-width="1.5" stroke-linecap="round" stroke-linejoin="round"/> <path d="M15.2399 14.6496C14.4899 14.6496 13.8799 14.0396 13.8799 13.2896V10.7096C13.8799 9.95961 14.4899 9.34961 15.2399 9.34961C15.9899 9.34961 16.5999 9.95961 16.5999 10.7096V13.2896C16.5999 14.0396 15.9899 14.6496 15.2399 14.6496Z" stroke="white" stroke-width="1.5" stroke-linecap="round" stroke-linejoin="round"/> <path d="M7.44043 19.2602C8.97043 20.4102 10.8404 21.1102 12.9004 21.1102C17.9304 21.1102 22.0104 17.0302 22.0104 12.0002C22.0104 8.54023 20.0904 5.54023 17.2504 3.99023" stroke="white" stroke-width="1.5" stroke-linecap="round" stroke-linejoin="round"/> <path d="M1.99023 12.8696L4.05023 14.2896C3.86023 13.5696 3.76023 12.8096 3.76023 12.0296C3.76023 6.97965 7.85023 2.88965 12.9002 2.88965" stroke="white" stroke-width="1.5" stroke-linecap="round" stroke-linejoin="round"/> </g> <defs> <clipPath id="clip0_4482_15516"> <rect width="24" height="24" fill="white"/> </clipPath> </defs> </svg>
