<svg width="24" height="24" viewBox="0 0 24 24" fill="none" xmlns="http://www.w3.org/2000/svg"> <g clip-path="url(#clip0_4482_2045)"> <path d="M2 8.05V7C2 4.25 4.25 2 7 2H17C19.75 2 22 4.25 22 7V17C22 19.75 19.75 22 17 22H7C4.25 22 2 19.75 2 17V12.93" stroke="white" stroke-width="1.5" stroke-linecap="round" stroke-linejoin="round"/> <path d="M7.31006 10.61C7.31006 9.72 8.03006 9 8.92006 9C9.81006 9 10.5301 9.72 10.5301 10.61C10.5301 12.62 7.31006 12.62 7.31006 15H10.5301" stroke="white" stroke-width="1.5" stroke-linecap="round" stroke-linejoin="round"/> <path d="M16.69 14.72L14.21 11.85L16.69 8.96997" stroke="white" stroke-width="1.5" stroke-linecap="round" stroke-linejoin="round"/> <path d="M13.1899 9V14.7" stroke="white" stroke-width="1.5" stroke-linecap="round" stroke-linejoin="round"/> </g> <defs> <clipPath id="clip0_4482_2045"> <rect width="24" height="24" fill="white"/> </clipPath> </defs> </svg>
