<svg width="24" height="24" viewBox="0 0 24 24" fill="none" xmlns="http://www.w3.org/2000/svg"> <g clip-path="url(#clip0_4482_11319)"> <path d="M6.44043 19.7798H17.5504" stroke="white" stroke-width="1.5" stroke-linecap="round" stroke-linejoin="round"/> <path d="M19.7796 17.5601C21.0096 17.5601 21.9996 18.5501 21.9996 19.7801C21.9996 21.0101 21.0096 22.0001 19.7796 22.0001C18.5496 22.0001 17.5596 21.0101 17.5596 19.7801C17.5596 18.5501 18.5496 17.5601 19.7796 17.5601Z" stroke="white" stroke-width="1.5" stroke-linecap="round" stroke-linejoin="round"/> <path d="M17.5604 4.22021H6.44043" stroke="white" stroke-width="1.5" stroke-linecap="round" stroke-linejoin="round"/> <path d="M17.5596 4.22C17.5596 2.99 18.5496 2 19.7796 2C21.0096 2 21.9996 2.99 21.9996 4.22C21.9996 5.45 21.0096 6.44 19.7796 6.44C18.5496 6.44 17.5596 5.45 17.5596 4.22Z" stroke="white" stroke-width="1.5" stroke-linecap="round" stroke-linejoin="round"/> <path d="M4.22 6.44C2.99 6.44 2 5.45 2 4.22C2 2.99 2.99 2 4.22 2C5.45 2 6.44 2.99 6.44 4.22C6.44 5.45 5.45 6.44 4.22 6.44Z" stroke="white" stroke-width="1.5" stroke-linecap="round" stroke-linejoin="round"/> <path d="M4.22 22.0001C2.99 22.0001 2 21.0101 2 19.7801C2 18.5501 2.99 17.5601 4.22 17.5601C5.45 17.5601 6.44 18.5501 6.44 19.7801C6.44 21.0101 5.45 22.0001 4.22 22.0001Z" stroke="white" stroke-width="1.5" stroke-linecap="round" stroke-linejoin="round"/> <path d="M4.21973 9.43994V17.5499" stroke="white" stroke-width="1.5" stroke-linecap="round" stroke-linejoin="round"/> <path d="M19.7803 17.5599V6.43994" stroke="white" stroke-width="1.5" stroke-linecap="round" stroke-linejoin="round"/> <path d="M9.78027 12H14.2203" stroke="white" stroke-width="1.5" stroke-linecap="round" stroke-linejoin="round"/> <path d="M12 14.2198V9.77979" stroke="white" stroke-width="1.5" stroke-linecap="round" stroke-linejoin="round"/> </g> <defs> <clipPath id="clip0_4482_11319"> <rect width="24" height="24" fill="white"/> </clipPath> </defs> </svg>
