<svg width="24" height="24" viewBox="0 0 24 24" fill="none" xmlns="http://www.w3.org/2000/svg"> <g clip-path="url(#clip0_4482_7177)"> <path d="M6.75977 21.4999C8.85292 21.4999 10.5498 19.8031 10.5498 17.7099C10.5498 15.6168 8.85292 13.9199 6.75977 13.9199C4.66661 13.9199 2.96973 15.6168 2.96973 17.7099C2.96973 19.8031 4.66661 21.4999 6.75977 21.4999Z" stroke="white" stroke-width="1.5" stroke-miterlimit="10" stroke-linecap="round" stroke-linejoin="round"/> <path d="M18.2 7.64978C19.13 7.28978 19.9 6.16979 19.9 5.16979C19.9 3.29979 18.02 2.00979 16.28 2.68979L12.59 4.11978C11.36 4.59978 10.5601 5.77979 10.5601 7.08979V10.6198L12.29 9.94979" stroke="white" stroke-width="1.5" stroke-miterlimit="10" stroke-linecap="round" stroke-linejoin="round"/> <path d="M14.6602 17.25H21.0302" stroke="white" stroke-width="1.5" stroke-miterlimit="10" stroke-linecap="round"/> <path d="M17.8501 14.0703V20.4403" stroke="white" stroke-width="1.5" stroke-miterlimit="10" stroke-linecap="round"/> <path d="M10.5498 8V17.71" stroke="white" stroke-width="1.5" stroke-miterlimit="10" stroke-linecap="round" stroke-linejoin="round"/> </g> <defs> <clipPath id="clip0_4482_7177"> <rect width="24" height="24" fill="white"/> </clipPath> </defs> </svg>
