<svg width="24" height="24" viewBox="0 0 24 24" fill="none" xmlns="http://www.w3.org/2000/svg"> <g clip-path="url(#clip0_3111_15610)"> <path d="M21.2498 18.4L20.2298 18.64C19.4998 18.81 18.9298 19.38 18.7598 20.11L18.5198 21.13C18.4898 21.24 18.3398 21.24 18.3098 21.13L18.0698 20.11C17.8998 19.38 17.3298 18.81 16.5998 18.64L15.5798 18.4C15.4698 18.37 15.4698 18.22 15.5798 18.19L16.5998 17.95C17.3298 17.78 17.8998 17.21 18.0698 16.48L18.3098 15.46C18.3398 15.35 18.4898 15.35 18.5198 15.46L18.7598 16.48C18.9298 17.21 19.4998 17.78 20.2298 17.95L21.2498 18.19C21.3598 18.22 21.3598 18.37 21.2498 18.4Z" stroke="white" stroke-width="1.5" stroke-miterlimit="10"/> <path d="M21.8499 12.98V9.04002C21.8499 4.12002 19.8799 2.15002 14.9599 2.15002H9.04991M2.15991 9.04002V14.95C2.15991 19.87 4.12991 21.84 9.04991 21.84H12.9899" stroke="white" stroke-width="1.5" stroke-linecap="round" stroke-linejoin="round"/> <path d="M7.3999 14.45L9.7399 11.41C10.0699 10.98 10.6999 10.9 11.1299 11.23L12.9299 12.65C13.3599 12.98 13.9799 12.91 14.3199 12.48L16.5999 9.54004" stroke="white" stroke-width="1.5" stroke-linecap="round" stroke-linejoin="round"/> </g> <defs> <clipPath id="clip0_3111_15610"> <rect width="24" height="24" fill="white"/> </clipPath> </defs> </svg>
