<svg width="24" height="24" viewBox="0 0 24 24" fill="none" xmlns="http://www.w3.org/2000/svg"> <g clip-path="url(#clip0_3111_15202)"> <path d="M7.3901 5.60001L6.4701 5.81001C5.8201 5.96001 5.3001 6.47001 5.1501 7.13001L4.9401 8.05001C4.9201 8.15001 4.7801 8.15001 4.7501 8.05001L4.5401 7.13001C4.3901 6.48001 3.8801 5.96001 3.2201 5.81001L2.3001 5.60001C2.2001 5.58001 2.2001 5.44001 2.3001 5.41001L3.2201 5.20001C3.8701 5.05001 4.3901 4.54001 4.5401 3.88001L4.7501 2.96001C4.7701 2.86001 4.9101 2.86001 4.9401 2.96001L5.1501 3.88001C5.3001 4.53001 5.8101 5.05001 6.4701 5.20001L7.3901 5.41001C7.4901 5.43001 7.4901 5.57001 7.3901 5.60001Z" stroke="white" stroke-width="1.5" stroke-miterlimit="10"/> <path d="M9.21021 10.83H15.7202" stroke="white" stroke-width="1.5" stroke-linecap="round" stroke-linejoin="round"/> <path d="M3.17017 10.83V13.55C3.17017 16.34 5.03017 18.2 7.82017 18.2H11.5402M15.6802 20.95C16.2902 21.36 17.1202 20.92 17.1202 20.18V18.2C19.9102 18.2 21.7702 16.34 21.7702 13.55V7.97001C21.7702 5.18001 19.9102 3.32001 17.1202 3.32001H9.80017" stroke="white" stroke-width="1.5" stroke-linecap="round" stroke-linejoin="round"/> </g> <defs> <clipPath id="clip0_3111_15202"> <rect width="24" height="24" fill="white"/> </clipPath> </defs> </svg>
