<svg width="24" height="24" viewBox="0 0 24 24" fill="none" xmlns="http://www.w3.org/2000/svg"> <g clip-path="url(#clip0_3111_14512)"> <path d="M21.9199 18.98L20.8099 19.24C20.0099 19.43 19.3899 20.05 19.2099 20.84L18.9499 21.95C18.9199 22.07 18.7499 22.07 18.7199 21.95L18.4599 20.84C18.2699 20.04 17.6499 19.42 16.8599 19.24L15.7499 18.98C15.6299 18.95 15.6299 18.78 15.7499 18.75L16.8599 18.49C17.6599 18.3 18.2799 17.68 18.4599 16.89L18.7199 15.78C18.7499 15.66 18.9199 15.66 18.9499 15.78L19.2099 16.89C19.3999 17.69 20.0199 18.31 20.8099 18.49L21.9199 18.75C22.0399 18.78 22.0399 18.95 21.9199 18.98Z" stroke="white" stroke-width="1.5" stroke-miterlimit="10"/> <path d="M10.3401 14.22L8.12012 12L10.3401 9.78" stroke="white" stroke-width="1.5" stroke-linecap="round" stroke-linejoin="round"/> <path d="M13.6599 9.78L15.8799 12L13.6599 14.22" stroke="white" stroke-width="1.5" stroke-linecap="round" stroke-linejoin="round"/> <path d="M10.95 22H7C4.25 22 2 19.75 2 17M2 7C2 4.25 4.25 2 7 2H17C19.75 2 22 4.25 22 7V11.9" stroke="white" stroke-width="1.5" stroke-miterlimit="10" stroke-linecap="round"/> </g> <defs> <clipPath id="clip0_3111_14512"> <rect width="24" height="24" fill="white"/> </clipPath> </defs> </svg>
