<svg width="24" height="24" viewBox="0 0 24 24" fill="none" xmlns="http://www.w3.org/2000/svg"> <g clip-path="url(#clip0_3111_14272)"> <path d="M18.67 14.22H5.33C3.49 14.22 2 15.71 2 17.55C2 19.39 3.49 20.88 5.33 20.88H18.66C20.5 20.88 21.99 19.39 21.99 17.55C21.99 15.71 20.5 14.22 18.66 14.22H18.67Z" stroke="white" stroke-width="1.5" stroke-linecap="round" stroke-linejoin="round"/> <path d="M18.6699 17.56H10.8899" stroke="white" stroke-width="1.5" stroke-linecap="round" stroke-linejoin="round"/> <path d="M5.37002 17.56C5.37002 17.56 5.35002 17.61 5.32002 17.61C5.29002 17.61 5.27002 17.58 5.27002 17.56C5.27002 17.54 5.29002 17.51 5.32002 17.51C5.33002 17.51 5.35002 17.51 5.35002 17.53C5.35002 17.53 5.37002 17.56 5.37002 17.57" stroke="white" stroke-width="1.5" stroke-linecap="round" stroke-linejoin="round"/> <path d="M13.9403 3.12H6.81025C4.72025 3.12 2.98025 4.73 2.82025 6.81M2.01025 17.29L2.30317 13.5001" stroke="white" stroke-width="1.5" stroke-linecap="round" stroke-linejoin="round"/> <path d="M21.9898 17.29L21.3198 8.55997" stroke="white" stroke-width="1.5" stroke-linecap="round" stroke-linejoin="round"/> <path d="M20.7299 5.44L19.7599 5.67C19.0699 5.83 18.5199 6.37 18.3599 7.07L18.1299 8.04C18.1099 8.14 17.9599 8.14 17.9299 8.04L17.6999 7.07C17.5399 6.38 16.9999 5.83 16.2999 5.67L15.3299 5.44C15.2299 5.42 15.2299 5.27 15.3299 5.24L16.2999 5.01C16.9899 4.85 17.5399 4.31 17.6999 3.61L17.9299 2.64C17.9499 2.54 18.0999 2.54 18.1299 2.64L18.3599 3.61C18.5199 4.3 19.0599 4.85 19.7599 5.01L20.7299 5.24C20.8299 5.26 20.8299 5.41 20.7299 5.44Z" stroke="white" stroke-width="1.5" stroke-miterlimit="10"/> </g> <defs> <clipPath id="clip0_3111_14272"> <rect width="24" height="24" fill="white"/> </clipPath> </defs> </svg>
