<svg width="24" height="24" viewBox="0 0 24 24" fill="none" xmlns="http://www.w3.org/2000/svg"> <g clip-path="url(#clip0_3111_14688)"> <path d="M22.0901 5.3L20.9101 5.57C20.0701 5.76 19.4101 6.42 19.2001 7.26L18.9201 8.44C18.8901 8.57 18.7101 8.57 18.6801 8.44L18.4101 7.26C18.2201 6.42 17.5601 5.76 16.7201 5.55L15.5401 5.27C15.4101 5.24 15.4101 5.06 15.5401 5.03L16.7201 4.76C17.5601 4.57 18.2201 3.91 18.4301 3.07L18.7101 1.89C18.7401 1.76 18.9201 1.76 18.9501 1.89L19.2201 3.07C19.4101 3.91 20.0701 4.57 20.9101 4.78L22.0901 5.06C22.2201 5.09 22.2201 5.27 22.0901 5.3Z" stroke="white" stroke-width="1.5" stroke-miterlimit="10"/> <path d="M6.81006 13.21H11.8101" stroke="white" stroke-width="1.5" stroke-linecap="round" stroke-linejoin="round"/> <path d="M6.81006 17.2H15.8101" stroke="white" stroke-width="1.5" stroke-linecap="round" stroke-linejoin="round"/> <path d="M13.8 2.20999H8.80005C3.80005 2.20999 1.80005 4.20999 1.80005 9.20999M21.8 10.21V15.21C21.8 20.21 19.8 22.21 14.8 22.21H8.80005C5.09097 22.21 3.03276 21.1094 2.21721 18.5" stroke="white" stroke-width="1.5" stroke-linecap="round" stroke-linejoin="round"/> </g> <defs> <clipPath id="clip0_3111_14688"> <rect width="24" height="24" fill="white"/> </clipPath> </defs> </svg>
