<svg width="24" height="24" viewBox="0 0 24 24" fill="none" xmlns="http://www.w3.org/2000/svg"> <g clip-path="url(#clip0_3111_14230)"> <path d="M14.52 15.63L13.61 15.84C12.96 15.99 12.45 16.5 12.3 17.15L12.09 18.06C12.07 18.16 11.93 18.16 11.91 18.06L11.7 17.15C11.55 16.5 11.04 15.99 10.39 15.84L9.48003 15.63C9.38003 15.61 9.38003 15.47 9.48003 15.45L10.39 15.24C11.04 15.09 11.55 14.58 11.7 13.93L11.91 13.02C11.93 12.92 12.07 12.92 12.09 13.02L12.3 13.93C12.45 14.58 12.96 15.09 13.61 15.24L14.52 15.45C14.62 15.47 14.62 15.61 14.52 15.63Z" stroke="white" stroke-width="1.5" stroke-miterlimit="10"/> <path d="M19.3099 14.44C19.3099 18.47 16.0399 21.75 11.9999 21.75M4.67993 14.44C4.67993 12.4 5.52994 10.51 6.87994 9.14999C7.39994 10.46 8.66991 11.39 10.1599 11.39C10.1599 11.39 9.84991 7.08 11.8499 4.12C12.3399 3.39 12.9999 2.73 13.8199 2.25C13.8199 4.77 15.1899 6.32999 16.5599 8.00999" stroke="white" stroke-width="1.5" stroke-miterlimit="10" stroke-linecap="round" stroke-linejoin="round"/> </g> <defs> <clipPath id="clip0_3111_14230"> <rect width="24" height="24" fill="white"/> </clipPath> </defs> </svg>
