<svg width="24" height="24" viewBox="0 0 24 24" fill="none" xmlns="http://www.w3.org/2000/svg"> <path d="M19.7448 17.02L18.6948 17.26C17.9448 17.44 17.3648 18.02 17.1848 18.77L16.9448 19.82C16.9148 19.93 16.7548 19.93 16.7348 19.82L16.4948 18.77C16.3148 18.02 15.7348 17.44 14.9848 17.26L13.9348 17.02C13.8248 16.99 13.8248 16.83 13.9348 16.81L14.9848 16.57C15.7348 16.39 16.3148 15.81 16.4948 15.06L16.7348 14.01C16.7648 13.9 16.9248 13.9 16.9448 14.01L17.1848 15.06C17.3648 15.81 17.9448 16.39 18.6948 16.57L19.7448 16.81C19.8548 16.84 19.8548 17 19.7448 17.02Z" stroke="white" stroke-width="1.5" stroke-miterlimit="10"/> <path d="M14.1148 21.17C13.2348 21.54 12.2748 21.75 11.2648 21.75C9.60533 21.75 8.07407 21.1966 6.8457 20.2651M3.94482 14.44C3.94482 12.4 4.79482 10.51 6.14482 9.15C6.66482 10.46 7.93482 11.39 9.42482 11.39C9.42482 11.39 9.11482 7.08 11.1148 4.12C11.6048 3.39 12.2648 2.73 13.0848 2.25C13.0848 6.31 16.6548 7.89 18.0348 11.46" stroke="white" stroke-width="1.5" stroke-linecap="round" stroke-linejoin="round"/> </svg>
