<svg width="24" height="24" viewBox="0 0 24 24" fill="none" xmlns="http://www.w3.org/2000/svg"> <g clip-path="url(#clip0_3111_15427)"> <path d="M9.26999 18.57L8.38999 18.78C7.75999 18.93 7.26999 19.42 7.11999 20.05L6.90999 20.93C6.88999 21.02 6.74999 21.02 6.72999 20.93L6.51999 20.05C6.36999 19.42 5.87999 18.93 5.24999 18.78L4.36999 18.57C4.27999 18.55 4.27999 18.41 4.36999 18.39L5.24999 18.18C5.87999 18.03 6.36999 17.54 6.51999 16.91L6.72999 16.03C6.74999 15.94 6.88999 15.94 6.90999 16.03L7.11999 16.91C7.26999 17.54 7.75999 18.03 8.38999 18.18L9.26999 18.39C9.35999 18.41 9.35999 18.55 9.26999 18.57Z" stroke="white" stroke-width="1.5" stroke-miterlimit="10"/> <path d="M10.2 15.21L13.738 11.9982M10.78 21.14H16.7C20.14 21.14 20.41 18.05 18.55 16.37L13.738 11.9982M16.7 9.30939L18.55 7.62999C19.3614 6.89709 19.7675 5.89585 19.6818 4.99988C19.5711 3.84204 18.6393 2.85999 16.7 2.85999H10.78C7.34 2.85999 7.08 5.94999 8.93 7.62999L13.738 11.9982" stroke="white" stroke-width="1.5" stroke-linecap="round" stroke-linejoin="round"/> </g> <defs> <clipPath id="clip0_3111_15427"> <rect width="24" height="24" fill="white"/> </clipPath> </defs> </svg>
