<svg width="24" height="24" viewBox="0 0 24 24" fill="none" xmlns="http://www.w3.org/2000/svg"> <g clip-path="url(#clip0_3111_14817)"> <path d="M8.37998 5.51999L7.39998 5.74999C6.69998 5.90999 6.14998 6.45999 5.97998 7.15999L5.74998 8.13999C5.72998 8.23999 5.57998 8.23999 5.54998 8.13999L5.31998 7.15999C5.15998 6.45999 4.60998 5.90999 3.90998 5.73999L2.92998 5.50999C2.82998 5.48999 2.82998 5.33999 2.92998 5.30999L3.90998 5.07999C4.60998 4.91999 5.15998 4.36999 5.32998 3.66999L5.55998 2.68999C5.57998 2.58999 5.72998 2.58999 5.75998 2.68999L5.98998 3.66999C6.14998 4.36999 6.69998 4.91999 7.39998 5.08999L8.37998 5.31999C8.47998 5.33999 8.47998 5.48999 8.37998 5.51999Z" stroke="white" stroke-width="1.5" stroke-miterlimit="10"/> <path d="M1.97998 8.94999C1.97998 10.03 2.48998 11.12 3.51998 11.79L4.99951 12.7563M9.91998 15.97C11.07 16.73 12.96 16.73 14.11 15.97L20.48 11.79C22.52 10.45 22.52 7.45999 20.48 6.11999L14.12 1.93999C12.97 1.16999 11.08 1.16999 9.92998 1.92999" stroke="white" stroke-width="1.5" stroke-linecap="round" stroke-linejoin="round"/> <path d="M5.2198 12.9478V18.14C5.2098 19.49 6.2498 20.94 7.5298 21.36L10.9198 22.49C11.4998 22.68 12.4698 22.68 13.0698 22.49L16.4598 21.36C17.7398 20.93 18.7798 19.49 18.7798 18.14V13.2" stroke="white" stroke-width="1.5" stroke-linecap="round" stroke-linejoin="round"/> <path d="M22 15.19V8.81" stroke="white" stroke-width="1.5" stroke-linecap="round" stroke-linejoin="round"/> </g> <defs> <clipPath id="clip0_3111_14817"> <rect width="24" height="24" fill="white"/> </clipPath> </defs> </svg>
