<svg width="24" height="24" viewBox="0 0 24 24" fill="none" xmlns="http://www.w3.org/2000/svg"> <path d="M21.327 6.45L19.987 6.76C19.027 6.98 18.277 7.72999 18.057 8.68999L17.747 10.03C17.717 10.17 17.507 10.17 17.477 10.03L17.167 8.68999C16.947 7.72999 16.197 6.98 15.237 6.76L13.897 6.45C13.757 6.42 13.757 6.21 13.897 6.18L15.237 5.87C16.197 5.65 16.947 4.9 17.167 3.94L17.477 2.6C17.507 2.46 17.717 2.46 17.747 2.6L18.057 3.94C18.277 4.9 19.027 5.65 19.987 5.87L21.327 6.18C21.467 6.21 21.467 6.42 21.327 6.45Z" stroke="white" stroke-width="1.5" stroke-miterlimit="10"/> <path d="M3.50195 8.03999V4.62999C3.50195 3.46999 4.44195 2.51999 5.61195 2.51999H10.872" stroke="white" stroke-width="1.5" stroke-linecap="round" stroke-linejoin="round"/> <path d="M18.772 14.11H5.08195C4.21195 14.11 3.50195 13.4 3.50195 12.53" stroke="white" stroke-width="1.5" stroke-linecap="round" stroke-linejoin="round"/> <path d="M19.3066 21.47H4.57665C3.91665 21.47 3.29665 21.16 2.89665 20.63C2.49665 20.1 2.37665 19.42 2.55665 18.78L3.67665 14.86C3.80665 14.41 4.21665 14.1 4.68665 14.1H19.2066C19.6766 14.1 20.0866 14.41 20.2166 14.86L21.3366 18.78C21.5166 19.42 21.3866 20.1 20.9966 20.63C20.5966 21.16 19.9766 21.47 19.3166 21.47H19.3066Z" stroke="white" stroke-width="1.5" stroke-linecap="round" stroke-linejoin="round"/> <path d="M6.41724 18.32H17.4672" stroke="white" stroke-width="1.5" stroke-linecap="round" stroke-linejoin="round"/> </svg>
