<svg width="24" height="24" viewBox="0 0 24 24" fill="none" xmlns="http://www.w3.org/2000/svg"> <g clip-path="url(#clip0_3111_14678)"> <path d="M22.39 19.29L21.17 19.57C20.3 19.77 19.62 20.45 19.41 21.32L19.12 22.54C19.09 22.67 18.9 22.67 18.87 22.54L18.59 21.32C18.39 20.45 17.71 19.77 16.84 19.56L15.62 19.27C15.49 19.24 15.49 19.05 15.62 19.02L16.84 18.74C17.71 18.54 18.39 17.86 18.6 16.99L18.89 15.77C18.92 15.64 19.11 15.64 19.14 15.77L19.42 16.99C19.62 17.86 20.3 18.54 21.17 18.75L22.39 19.04C22.52 19.07 22.52 19.26 22.39 19.29Z" stroke="white" stroke-width="1.5" stroke-miterlimit="10"/> <path d="M12.87 21.76H9.06999C4.18999 21.76 2.23999 19.81 2.23999 14.93V9.08C2.23999 4.2 4.18999 2.25 9.06999 2.25H14.92C19.8 2.25 21.75 4.2 21.75 9.08V12.88" stroke="white" stroke-width="1.5" stroke-linecap="round" stroke-linejoin="round"/> <path d="M8.57008 16.78C9.39008 16.78 10.0601 16.11 10.0601 15.29C10.0601 14.47 9.39008 13.8 8.57008 13.8C7.75008 13.8 7.08008 14.47 7.08008 15.29C7.08008 16.11 7.75008 16.78 8.57008 16.78Z" stroke="white" stroke-width="1.5" stroke-linecap="round" stroke-linejoin="round"/> <path d="M10.0701 15.3V9.3C10.0701 8.69 10.4501 8.25 10.9801 8.11L13.9501 7.3C14.7301 7.08 15.5101 7.25 15.5101 8.49V9.49995" stroke="white" stroke-width="1.5" stroke-linecap="round" stroke-linejoin="round"/> <path d="M14.02 15.79C14.84 15.79 15.51 15.12 15.51 14.3C15.51 13.48 14.84 12.81 14.02 12.81C13.2 12.81 12.53 13.48 12.53 14.3C12.53 15.12 13.2 15.79 14.02 15.79Z" stroke="white" stroke-width="1.5" stroke-linecap="round" stroke-linejoin="round"/> <path d="M10.0601 11.04L15.5101 9.55" stroke="white" stroke-width="1.5" stroke-linecap="round" stroke-linejoin="round"/> </g> <defs> <clipPath id="clip0_3111_14678"> <rect width="24" height="24" fill="white"/> </clipPath> </defs> </svg>
