<svg width="24" height="24" viewBox="0 0 24 24" fill="none" xmlns="http://www.w3.org/2000/svg"> <g clip-path="url(#clip0_3111_15593)"> <path d="M22.38 4.52998L21.37 4.76998C20.65 4.93998 20.08 5.49998 19.91 6.22998L19.67 7.23998C19.64 7.34998 19.49 7.34998 19.47 7.23998L19.23 6.22998C19.06 5.50998 18.5 4.93998 17.77 4.76998L16.76 4.52998C16.65 4.49998 16.65 4.34998 16.76 4.32998L17.77 4.08998C18.49 3.91998 19.06 3.35998 19.23 2.62998L19.47 1.61998C19.5 1.50998 19.65 1.50998 19.67 1.61998L19.91 2.62998C20.08 3.34998 20.64 3.91998 21.37 4.08998L22.38 4.32998C22.49 4.35998 22.49 4.50998 22.38 4.52998Z" stroke="white" stroke-width="1.5" stroke-miterlimit="10"/> <path d="M7.51002 6.96001C8.30002 6.72001 9.17002 6.57001 10.13 6.57001C14.48 6.57001 17.99 10.09 17.99 14.43C17.99 18.77 14.47 22.29 10.13 22.29M3.59002 10.06C2.76002 11.31 2.27002 12.82 2.27002 14.43C2.27002 16.043 2.75622 17.5427 3.59002 18.7905" stroke="white" stroke-width="1.5" stroke-linecap="round" stroke-linejoin="round"/> <path d="M6.39014 7.17998L9.01014 4.16998" stroke="white" stroke-width="1.5" stroke-linecap="round" stroke-linejoin="round"/> <path d="M6.39014 7.17999L9.45014 9.40999" stroke="white" stroke-width="1.5" stroke-linecap="round" stroke-linejoin="round"/> </g> <defs> <clipPath id="clip0_3111_15593"> <rect width="24" height="24" fill="white"/> </clipPath> </defs> </svg>
