<svg width="24" height="24" viewBox="0 0 24 24" fill="none" xmlns="http://www.w3.org/2000/svg"> <g clip-path="url(#clip0_3111_14383)"> <path d="M15.12 11.15L13.63 11.5C12.57 11.75 11.74 12.58 11.49 13.64L11.14 15.13C11.1 15.29 10.88 15.29 10.84 15.13L10.49 13.64C10.24 12.58 9.40999 11.75 8.34999 11.5L6.85999 11.15C6.69999 11.11 6.69999 10.89 6.85999 10.85L8.34999 10.5C9.40999 10.25 10.24 9.42 10.49 8.36L10.84 6.87C10.88 6.71 11.1 6.71 11.14 6.87L11.49 8.36C11.74 9.42 12.57 10.25 13.63 10.5L15.12 10.85C15.28 10.89 15.28 11.11 15.12 11.15Z" stroke="white" stroke-width="1.5" stroke-miterlimit="10"/> <path d="M11 2C15.97 2 20 6.03 20 11C20 15.97 15.97 20 11 20C6.03 20 2 15.97 2 11C2 7.5 4 4.46 6.93 2.97" stroke="white" stroke-width="1.5" stroke-linecap="round" stroke-linejoin="round"/> <path d="M18.8978 20.4629C19.1822 22.1242 20.3546 22.4637 21.4838 21.2188C22.5159 20.0805 22.1195 18.9585 20.5969 18.7278C19.4713 18.5472 18.7052 19.3313 18.8978 20.4629Z" stroke="white" stroke-width="1.5" stroke-linecap="round" stroke-linejoin="round"/> </g> <defs> <clipPath id="clip0_3111_14383"> <rect width="24" height="24" fill="white"/> </clipPath> </defs> </svg>
