<svg width="24" height="24" viewBox="0 0 24 24" fill="none" xmlns="http://www.w3.org/2000/svg"> <g clip-path="url(#clip0_3111_14407)"> <path d="M21.42 18.62L20.16 18.91C19.26 19.12 18.56 19.82 18.35 20.72L18.06 21.98C18.03 22.11 17.84 22.11 17.81 21.98L17.52 20.72C17.31 19.82 16.61 19.12 15.71 18.91L14.45 18.62C14.32 18.59 14.32 18.4 14.45 18.37L15.71 18.08C16.61 17.87 17.31 17.17 17.52 16.27L17.81 15.01C17.84 14.88 18.03 14.88 18.06 15.01L18.35 16.27C18.56 17.17 19.26 17.87 20.16 18.08L21.42 18.37C21.55 18.4 21.55 18.59 21.42 18.62Z" stroke="white" stroke-width="1.5" stroke-miterlimit="10"/> <path d="M11.99 15C13.65 15 14.99 13.66 14.99 12C14.99 10.34 13.65 9 11.99 9C10.33 9 8.98999 10.34 8.98999 12C8.98999 13.66 10.33 15 11.99 15Z" stroke="white" stroke-width="1.5" stroke-linecap="round" stroke-linejoin="round"/> <path d="M10.36 20.42L10.25 20.61C9.78 21.4 8.76 21.68 7.97 21.21L6.24 20.22C5.33 19.7 5.02 18.53 5.54 17.63C6.45 16.06 5.71 14.78 3.9 14.78C2.85 14.78 2 13.92 2 12.88V11.12C2 10.08 2.85 9.22 3.9 9.22C5.71 9.22 6.45 7.94 5.54 6.37C5.19686 5.7761 5.21514 5.06462 5.52876 4.49994M10.36 3.58C11.26 5.15 12.74 5.15 13.65 3.58L13.76 3.39C14.23 2.6 15.25 2.32 16.04 2.79L17.77 3.78C18.68 4.3 18.99 5.47 18.47 6.37C17.56 7.94 18.3 9.22 20.11 9.22C21.15 9.22 22.01 10.07 22.01 11.12V12.88" stroke="white" stroke-width="1.5" stroke-linecap="round" stroke-linejoin="round"/> </g> <defs> <clipPath id="clip0_3111_14407"> <rect width="24" height="24" fill="white"/> </clipPath> </defs> </svg>
