<svg width="24" height="24" viewBox="0 0 24 24" fill="none" xmlns="http://www.w3.org/2000/svg"> <g clip-path="url(#clip0_3111_14784)"> <path d="M22.0001 5.2L20.9001 5.45C20.1101 5.63 19.4901 6.24 19.3101 7.03L19.0501 8.13C19.0201 8.25 18.8501 8.25 18.8301 8.13L18.5801 7.03C18.4001 6.24 17.7901 5.62 17.0001 5.44L15.9001 5.18C15.7801 5.15 15.7801 4.98 15.9001 4.96L17.0001 4.71C17.7901 4.53 18.4101 3.92 18.5901 3.13L18.8501 2.03C18.8801 1.91 19.0501 1.91 19.0701 2.03L19.3201 3.13C19.5001 3.92 20.1101 4.54 20.9001 4.72L22.0001 4.98C22.1201 5.01 22.1201 5.18 22.0001 5.2Z" stroke="white" stroke-width="1.5" stroke-miterlimit="10"/> <path d="M14.5899 9.06999C14.7599 10.72 16.2499 12.06 17.8999 12.06C19.0199 12.06 19.9799 11.55 20.5699 10.76V11.28V15.77C20.5699 20.26 18.7699 22.06 14.2799 22.06H8.88985C5.23418 22.06 3.36169 20.8668 2.79202 18M2.59985 11V13.525" stroke="white" stroke-width="1.5" stroke-linecap="round" stroke-linejoin="round"/> <path d="M13.9301 2.06H9.26008L8.59008 8.74C8.41008 10.57 9.76008 12.06 11.5901 12.06C13.4201 12.06 14.7701 10.57 14.5901 8.74" stroke="white" stroke-width="1.5" stroke-linecap="round" stroke-linejoin="round"/> <path d="M5.22997 12.06C6.87997 12.06 8.36997 10.72 8.52997 9.07L8.74997 6.86L9.22997 2.06H6.17997C3.55997 2.06 2.55997 3.06 2.19997 5.66L1.92997 8.41C1.72997 10.42 3.20997 12.06 5.22997 12.06Z" stroke="white" stroke-width="1.5" stroke-linecap="round" stroke-linejoin="round"/> <path d="M11.5901 17.06C9.92009 17.06 9.09009 17.89 9.09009 19.56V22.06H14.0901V19.56C14.0901 17.89 13.2601 17.06 11.5901 17.06Z" stroke="white" stroke-width="1.5" stroke-linecap="round" stroke-linejoin="round"/> </g> <defs> <clipPath id="clip0_3111_14784"> <rect width="24" height="24" fill="white"/> </clipPath> </defs> </svg>
