<svg width="24" height="24" viewBox="0 0 24 24" fill="none" xmlns="http://www.w3.org/2000/svg"> <g clip-path="url(#clip0_3111_15448)"> <path d="M19.7301 20.07L18.9501 20.25C18.3901 20.38 17.9501 20.82 17.8201 21.38L17.6401 22.16C17.6201 22.24 17.5001 22.24 17.4801 22.16L17.3001 21.38C17.1701 20.82 16.7301 20.38 16.1701 20.25L15.3901 20.07C15.3101 20.05 15.3101 19.93 15.3901 19.91L16.1701 19.73C16.7301 19.6 17.1701 19.16 17.3001 18.6L17.4801 17.82C17.5001 17.74 17.6201 17.74 17.6401 17.82L17.8201 18.6C17.9501 19.16 18.3901 19.6 18.9501 19.73L19.7301 19.91C19.8101 19.93 19.8101 20.05 19.7301 20.07Z" stroke="white" stroke-width="1.5" stroke-miterlimit="10"/> <path d="M21.1601 5.82006C17.7701 5.48006 14.3601 5.31006 10.9601 5.31006C8.94008 5.31006 6.93008 5.41006 4.91008 5.62006L2.83008 5.82006" stroke="white" stroke-width="1.5" stroke-linecap="round" stroke-linejoin="round"/> <path d="M8.44019 4.80003L8.66019 3.47003C8.82019 2.50003 8.95019 1.78003 10.6702 1.78003H11.9998M15.3502 3.48003L15.5702 4.80003" stroke="white" stroke-width="1.5" stroke-linecap="round" stroke-linejoin="round"/> <path d="M12.83 22.14H8.73003C5.89003 22.14 5.80003 20.9 5.69003 19.3L5.03003 9.05005" stroke="white" stroke-width="1.5" stroke-linecap="round" stroke-linejoin="round"/> <path d="M18.9701 9.04004L18.6101 14.67" stroke="white" stroke-width="1.5" stroke-linecap="round" stroke-linejoin="round"/> <path d="M10.3 16.54H13.69" stroke="white" stroke-width="1.5" stroke-linecap="round" stroke-linejoin="round"/> <path d="M9.4502 12.46H14.5402" stroke="white" stroke-width="1.5" stroke-linecap="round" stroke-linejoin="round"/> </g> <defs> <clipPath id="clip0_3111_15448"> <rect width="24" height="24" fill="white"/> </clipPath> </defs> </svg>
