<svg width="24" height="24" viewBox="0 0 24 24" fill="none" xmlns="http://www.w3.org/2000/svg"> <g clip-path="url(#clip0_3111_14841)"> <path d="M20.7 19L19.64 19.24C18.88 19.41 18.28 20.01 18.1 20.76L17.85 21.82C17.82 21.93 17.66 21.93 17.64 21.82L17.4 20.76C17.23 20 16.63 19.4 15.88 19.22L14.82 18.97C14.71 18.94 14.71 18.78 14.82 18.76L15.88 18.52C16.64 18.35 17.24 17.75 17.42 17L17.67 15.94C17.7 15.83 17.86 15.83 17.88 15.94L18.12 17C18.29 17.76 18.89 18.36 19.64 18.54L20.7 18.79C20.81 18.82 20.81 18.98 20.7 19Z" stroke="white" stroke-width="1.5" stroke-miterlimit="10"/> <path d="M12 7.81998V13.05" stroke="white" stroke-width="1.5" stroke-linecap="round" stroke-linejoin="round"/> <path d="M12.0001 22.45C6.9501 22.45 2.8501 18.35 2.8501 13.3M21.1501 13.31C21.1501 8.25997 17.0501 4.15997 12.0001 4.15997C10.7608 4.15997 9.57878 4.40627 8.50049 4.85262" stroke="white" stroke-width="1.5" stroke-linecap="round" stroke-linejoin="round"/> <path d="M8.86011 1.54999H15.1301" stroke="white" stroke-width="1.5" stroke-linecap="round" stroke-linejoin="round"/> </g> <defs> <clipPath id="clip0_3111_14841"> <rect width="24" height="24" fill="white"/> </clipPath> </defs> </svg>
