<svg width="24" height="24" viewBox="0 0 24 24" fill="none" xmlns="http://www.w3.org/2000/svg"> <g clip-path="url(#clip0_3111_15419)"> <path d="M21.9601 4.85999L20.9901 5.08999C20.3001 5.24999 19.7501 5.78999 19.5901 6.48998L19.3601 7.45999C19.3401 7.55999 19.1901 7.55999 19.1601 7.45999L18.9301 6.48998C18.7701 5.79998 18.2301 5.24999 17.5301 5.08999L16.5601 4.85999C16.4601 4.83999 16.4601 4.68999 16.5601 4.65999L17.5301 4.42999C18.2201 4.26999 18.7701 3.72999 18.9301 3.02999L19.1601 2.05999C19.1801 1.95999 19.3301 1.95999 19.3601 2.05999L19.5901 3.02999C19.7501 3.71999 20.2901 4.26999 20.9901 4.42999L21.9601 4.65999C22.0601 4.67999 22.0601 4.82999 21.9601 4.85999Z" stroke="white" stroke-width="1.5" stroke-miterlimit="10"/> <path d="M22 10.12V17C22 19.75 19.75 22 17 22H7M2 17V7C2 4.25 4.25 2 7 2H14.83" stroke="white" stroke-width="1.5" stroke-linecap="round" stroke-linejoin="round"/> <path d="M12.3001 10V13.9C12.3001 15.06 11.3601 16 10.2001 16C9.0401 16 8.1001 15.06 8.1001 13.9V10" stroke="white" stroke-width="1.5" stroke-linecap="round" stroke-linejoin="round"/> <path d="M15.9001 10V16" stroke="white" stroke-width="1.5" stroke-linecap="round" stroke-linejoin="round"/> </g> <defs> <clipPath id="clip0_3111_15419"> <rect width="24" height="24" fill="white"/> </clipPath> </defs> </svg>
