<svg width="24" height="24" viewBox="0 0 24 24" fill="none" xmlns="http://www.w3.org/2000/svg"> <g clip-path="url(#clip0_3111_14910)"> <path d="M20.9802 4.39999L20.0202 4.61999C19.3302 4.77999 18.7902 5.30999 18.6302 5.99999L18.4002 6.95999C18.3802 7.05999 18.2302 7.05999 18.2102 6.95999L17.9902 5.99999C17.8302 5.30999 17.3002 4.76999 16.6102 4.60999L15.6502 4.37999C15.5502 4.35999 15.5502 4.20999 15.6502 4.18999L16.6102 3.96999C17.3002 3.80999 17.8402 3.27999 18.0002 2.58999L18.2302 1.62999C18.2502 1.52999 18.4002 1.52999 18.4202 1.62999L18.6402 2.58999C18.8002 3.27999 19.3302 3.81999 20.0202 3.97999L20.9802 4.20999C21.0802 4.22999 21.0802 4.37999 20.9802 4.39999Z" stroke="white" stroke-width="1.5" stroke-miterlimit="10"/> <path d="M5.90015 10.11V14.47" stroke="white" stroke-width="1.5" stroke-linecap="round" stroke-linejoin="round"/> <path d="M8.9502 8.66V15.92" stroke="white" stroke-width="1.5" stroke-linecap="round" stroke-linejoin="round"/> <path d="M12 7.19998V17.36" stroke="white" stroke-width="1.5" stroke-linecap="round" stroke-linejoin="round"/> <path d="M15.05 9.38V15.91" stroke="white" stroke-width="1.5" stroke-linecap="round" stroke-linejoin="round"/> <path d="M18.1001 10.84V14.47" stroke="white" stroke-width="1.5" stroke-linecap="round" stroke-linejoin="round"/> <path d="M12.6301 2.12H8.95009C3.87009 2.12 1.84009 4.14999 1.84009 9.24M22.1601 9.24V15.34C22.1601 20.42 20.1301 22.45 15.0501 22.45H8.95009C5.59515 22.45 3.57049 21.5646 2.58229 19.5" stroke="white" stroke-width="1.5" stroke-linecap="round" stroke-linejoin="round"/> </g> <defs> <clipPath id="clip0_3111_14910"> <rect width="24" height="24" fill="white"/> </clipPath> </defs> </svg>
