<svg width="24" height="24" viewBox="0 0 24 24" fill="none" xmlns="http://www.w3.org/2000/svg"> <g clip-path="url(#clip0_3111_14938)"> <path d="M9.9701 17.13L8.6401 17.44C7.6901 17.66 6.9401 18.4 6.7201 19.35L6.4001 20.68C6.3701 20.82 6.1601 20.82 6.1301 20.68L5.8201 19.35C5.6001 18.4 4.8601 17.65 3.9101 17.43L2.5801 17.11C2.4401 17.08 2.4401 16.87 2.5801 16.84L3.9101 16.53C4.8601 16.31 5.6101 15.57 5.8301 14.62L6.1501 13.29C6.1801 13.15 6.3901 13.15 6.4201 13.29L6.7301 14.62C6.9501 15.57 7.6901 16.32 8.6401 16.54L9.9701 16.86C10.1101 16.89 10.1101 17.1 9.9701 17.13Z" stroke="white" stroke-width="1.5" stroke-miterlimit="10"/> <path d="M22.3901 10.93V13.07C22.3901 13.64 21.9301 14.11 21.3501 14.13H19.3101C18.1901 14.13 17.1601 13.31 17.0701 12.19C17.0101 11.54 17.2601 10.92 17.6901 10.5C18.0701 10.11 18.6001 9.88 19.1901 9.88H21.3501C21.9301 9.9 22.3901 10.37 22.3901 10.94V10.93Z" stroke="white" stroke-width="1.5" stroke-linecap="round" stroke-linejoin="round"/> <path d="M1.61011 10.44V8.36001C1.61011 5.53001 3.31011 3.56001 5.96011 3.23001C6.23011 3.19001 6.51011 3.17001 6.80011 3.17001C6.80011 3.17001 8.49976 3.17001 9.99976 3.17001M16.9301 3.22001C19.6101 3.53001 21.3501 5.52001 21.3501 8.36001V9.87001H19.1901C18.6101 9.87001 18.0801 10.1 17.6901 10.49C17.2501 10.92 17.0001 11.53 17.0701 12.18C17.1601 13.3 18.1901 14.12 19.3101 14.12H21.3501V15.63C21.3501 18.75 19.2701 20.83 16.1501 20.83H13.5501" stroke="white" stroke-width="1.5" stroke-linecap="round" stroke-linejoin="round"/> </g> <defs> <clipPath id="clip0_3111_14938"> <rect width="24" height="24" fill="white"/> </clipPath> </defs> </svg>
