<svg width="24" height="24" viewBox="0 0 24 24" fill="none" xmlns="http://www.w3.org/2000/svg"> <g clip-path="url(#clip0_4482_6822)"> <path d="M21 9.64999C21 4.94999 19.33 3.68 16 3.5H8C4.67 3.69 3 4.94999 3 9.64999V10.71" stroke="white" stroke-width="1.5" stroke-miterlimit="10" stroke-linecap="round" stroke-linejoin="round"/> <path d="M9 22.0101C4 22.0101 3 19.9501 3 15.8301" stroke="white" stroke-width="1.5" stroke-miterlimit="10" stroke-linecap="round" stroke-linejoin="round"/> <path d="M8 1.99023V4.99023" stroke="white" stroke-width="1.5" stroke-miterlimit="10" stroke-linecap="round" stroke-linejoin="round"/> <path d="M16 1.99023V4.99023" stroke="white" stroke-width="1.5" stroke-miterlimit="10" stroke-linecap="round" stroke-linejoin="round"/> <path d="M20.2798 16.4698L18.0998 18.6498L17.0198 19.7399C16.2498 20.5099 15.4099 20.3298 14.7999 19.7198L13.9099 18.8199C13.8999 18.8099 13.7598 18.6599 13.7598 18.6599C13.4298 18.2699 13.2799 17.7999 13.4299 17.3199C13.5099 17.0799 13.6498 16.8299 13.8898 16.5999L17.1498 13.3398L17.8298 14.0098L19.6198 15.7999L20.2798 16.4698Z" stroke="white" stroke-width="1.5" stroke-linecap="round" stroke-linejoin="round"/> <path d="M14.9099 20.0502L14.4598 20.5002C14.2098 20.7502 13.8099 20.7502 13.5599 20.5002L13.1099 20.0502C12.8599 19.8002 12.8599 19.4002 13.1099 19.1502L13.5599 18.7002" stroke="white" stroke-width="1.5" stroke-linecap="round" stroke-linejoin="round"/> <path d="M12 21.62L13.35 20.27" stroke="white" stroke-width="1.5" stroke-linecap="round" stroke-linejoin="round"/> <path d="M20.74 16.91L20.29 16.46" stroke="white" stroke-width="1.5" stroke-linecap="round" stroke-linejoin="round"/> <path d="M17.1503 13.3299L16.7002 12.8799" stroke="white" stroke-width="1.5" stroke-linecap="round" stroke-linejoin="round"/> <path d="M21.4102 14L19.6201 15.7899L17.8301 14L19.6201 12.21L21.4102 14Z" stroke="white" stroke-width="1.5" stroke-linecap="round" stroke-linejoin="round"/> <path d="M22.0801 14.67L21.4102 14" stroke="white" stroke-width="1.5" stroke-linecap="round" stroke-linejoin="round"/> <path d="M19.61 12.2101L18.9399 11.54" stroke="white" stroke-width="1.5" stroke-linecap="round" stroke-linejoin="round"/> <path d="M13.7601 18.6499H13.6201" stroke="white" stroke-width="1.5" stroke-linecap="round" stroke-linejoin="round"/> </g> <defs> <clipPath id="clip0_4482_6822"> <rect width="24" height="24" fill="white"/> </clipPath> </defs> </svg>
