<svg width="24" height="24" viewBox="0 0 24 24" fill="none" xmlns="http://www.w3.org/2000/svg"> <g clip-path="url(#clip0_4482_2790)"> <path d="M12.6299 9.06982H11.8199C10.3299 9.06982 9.12988 10.2798 9.12988 11.7598V12.5698" stroke="white" stroke-width="1.5" stroke-linecap="round" stroke-linejoin="round"/> <path d="M2 7.97V7C2 4.24 4.24 2 7 2H17C19.76 2 22 4.24 22 7V17C22 19.76 19.76 22 17 22H7C4.24 22 2 19.76 2 17V13" stroke="white" stroke-width="1.5" stroke-linecap="round" stroke-linejoin="round"/> <path d="M15 11C16.1046 11 17 10.1046 17 9C17 7.89543 16.1046 7 15 7C13.8954 7 13 7.89543 13 9C13 10.1046 13.8954 11 15 11Z" stroke="white" stroke-width="1.5" stroke-linecap="round" stroke-linejoin="round"/> <path d="M9 17C10.1046 17 11 16.1046 11 15C11 13.8954 10.1046 13 9 13C7.89543 13 7 13.8954 7 15C7 16.1046 7.89543 17 9 17Z" stroke="white" stroke-width="1.5" stroke-linecap="round" stroke-linejoin="round"/> </g> <defs> <clipPath id="clip0_4482_2790"> <rect width="24" height="24" fill="white"/> </clipPath> </defs> </svg>
