<svg width="24" height="24" viewBox="0 0 24 24" fill="none" xmlns="http://www.w3.org/2000/svg"> <g clip-path="url(#clip0_2085_381235)"> <path d="M15.7401 19.5999C17.5301 19.2499 19.0501 18.6499 20.1301 17.8699C21.2001 17.0999 21.7801 16.1899 21.7801 15.2699C21.7801 14.3499 21.2001 13.4299 20.1301 12.6699M12.0001 19.9599C11.3601 19.9599 10.7201 19.9299 10.0901 19.8699C8.19007 19.6899 6.45007 19.2399 5.08007 18.5899C3.71007 17.9299 2.78007 17.0999 2.40007 16.1899C2.02007 15.2799 2.22007 14.3399 2.96007 13.4799C3.21007 13.1999 3.51007 12.9199 3.86007 12.6699" stroke="white" stroke-width="1.5" stroke-linecap="round" stroke-linejoin="round"/> <path d="M10.98 17.9102L13.02 19.9502L10.98 21.9902" stroke="white" stroke-width="1.5" stroke-linecap="round" stroke-linejoin="round"/> <path d="M12.0001 2H15.9701C16.3101 2 16.6401 2.14 16.8801 2.38L18.0601 3.56C18.3001 3.8 18.4401 4.13 18.4401 4.47V9.08C18.4401 10.15 17.5801 11.01 16.5101 11.01H14.2601C14.0601 11.01 13.8701 10.91 13.7501 10.75L12.5301 9.12C12.4101 8.96 12.2201 8.86 12.0201 8.86C11.8201 8.86 11.6301 8.96 11.5101 9.12L10.2901 10.75C10.1701 10.91 9.9801 11.01 9.7801 11.01H7.5301C6.4601 11.01 5.6001 10.15 5.6001 9.08V4.47C5.6001 4.13 5.7401 3.8 5.9801 3.56L7.1601 2.38C7.4001 2.14 7.7301 2 8.0701 2" stroke="white" stroke-width="1.5" stroke-linecap="round" stroke-linejoin="round"/> </g> <defs> <clipPath id="clip0_2085_381235"> <rect width="24" height="24" fill="white"/> </clipPath> </defs> </svg>
