<svg width="24" height="24" viewBox="0 0 24 24" fill="none" xmlns="http://www.w3.org/2000/svg"> <g clip-path="url(#clip0_4482_2938)"> <path d="M3 12C3 9.25 5.25 7 8 7H16C18.75 7 21 9.25 21 12V17C21 19.75 18.75 22 16 22H8C5.25 22 3 19.75 3 17" stroke="white" stroke-width="1.5" stroke-linecap="round" stroke-linejoin="round"/> <path d="M8.16016 8V5.84C8.16016 3.72 9.88018 2 12.0002 2C14.1202 2 15.8402 3.72 15.8402 5.84V8" stroke="white" stroke-width="1.5" stroke-linecap="round" stroke-linejoin="round"/> <path d="M13.2002 16.69H13.8002C15.0102 16.69 16.0002 15.7101 16.0002 14.4901C16.0002 13.2801 15.0202 12.29 13.8002 12.29H13.2002" stroke="white" stroke-width="1.5" stroke-linecap="round" stroke-linejoin="round"/> <path d="M10.8 12.3101H10.2C8.99001 12.3101 8 13.2901 8 14.5101C8 15.7201 8.98001 16.7101 10.2 16.7101H10.8" stroke="white" stroke-width="1.5" stroke-linecap="round" stroke-linejoin="round"/> <path d="M10.4102 14.5H13.6102" stroke="white" stroke-width="1.5" stroke-linecap="round" stroke-linejoin="round"/> </g> <defs> <clipPath id="clip0_4482_2938"> <rect width="24" height="24" fill="white"/> </clipPath> </defs> </svg>
