<svg width="24" height="24" viewBox="0 0 24 24" fill="none" xmlns="http://www.w3.org/2000/svg"> <g clip-path="url(#clip0_2085_385520)"> <path d="M6.08984 14.2699C6.08984 11.0099 8.73984 8.35986 11.9998 8.35986C15.2598 8.35986 17.9098 11.0099 17.9098 14.2699C17.9098 17.5299 15.2598 20.1799 11.9998 20.1799C10.0598 20.1799 8.32984 19.2399 7.25984 17.7999" stroke="white" stroke-width="1.5" stroke-linecap="round" stroke-linejoin="round"/> <path d="M20.1802 10.64L21.0902 9.72998" stroke="white" stroke-width="1.5" stroke-linecap="round" stroke-linejoin="round"/> <path d="M20.1802 17.9102L21.0902 18.8202" stroke="white" stroke-width="1.5" stroke-linecap="round" stroke-linejoin="round"/> <path d="M21.0898 14.27H21.9998" stroke="white" stroke-width="1.5" stroke-linecap="round" stroke-linejoin="round"/> <path d="M3.82016 17.9102L2.91016 18.8202" stroke="white" stroke-width="1.5" stroke-linecap="round" stroke-linejoin="round"/> <path d="M3.82016 10.64L2.91016 9.72998" stroke="white" stroke-width="1.5" stroke-linecap="round" stroke-linejoin="round"/> <path d="M2.91 14.27H2" stroke="white" stroke-width="1.5" stroke-linecap="round" stroke-linejoin="round"/> <path d="M10.9502 8.46006L13.9302 4.20006C14.1002 3.96006 14.3802 3.81006 14.6802 3.81006H17.9102C18.2502 3.81006 18.5602 4.00006 18.7202 4.30006C18.8802 4.60006 18.8502 4.96006 18.6602 5.24006L15.6102 9.59006" stroke="white" stroke-width="1.5" stroke-linecap="round" stroke-linejoin="round"/> <path d="M12.0002 6.95982L10.0702 4.20982C9.90017 3.96982 9.62017 3.81982 9.32017 3.81982H6.09017C5.75017 3.81982 5.44017 4.00982 5.28017 4.30982C5.12017 4.60982 5.15017 4.96982 5.34017 5.24982L8.39017 9.59982" stroke="white" stroke-width="1.5" stroke-linecap="round" stroke-linejoin="round"/> </g> <defs> <clipPath id="clip0_2085_385520"> <rect width="24" height="24" fill="white"/> </clipPath> </defs> </svg>
