<svg width="24" height="24" viewBox="0 0 24 24" fill="none" xmlns="http://www.w3.org/2000/svg"> <g clip-path="url(#clip0_4482_8260)"> <path d="M9.50023 12H12.8302C13.7502 12 14.5002 12.75 14.5002 13.67C14.5002 14.59 13.7502 15.34 12.8302 15.34H10.1602C9.79023 15.34 9.49023 15.04 9.49023 14.67V9.33998C9.49023 8.96998 9.79023 8.66998 10.1602 8.66998H12.2702C13.1902 8.66998 13.9402 9.41998 13.9402 10.34C13.9402 11.26 13.1902 12.01 12.2702 12.01" stroke="white" stroke-width="1.5" stroke-linecap="round" stroke-linejoin="round"/> <path d="M3.33984 6.99C5.06984 4.01 8.29984 2 11.9998 2C17.5198 2 21.9998 6.48 21.9998 12C21.9998 17.52 17.5198 22 11.9998 22" stroke="white" stroke-width="1.5" stroke-linecap="round" stroke-linejoin="round"/> <path d="M12 22C6.48 22 2 17.52 2 12" stroke="white" stroke-width="1.5" stroke-linecap="round" stroke-linejoin="round"/> </g> <defs> <clipPath id="clip0_4482_8260"> <rect width="24" height="24" fill="white"/> </clipPath> </defs> </svg>
