<svg width="24" height="24" viewBox="0 0 24 24" fill="none" xmlns="http://www.w3.org/2000/svg"> <g clip-path="url(#clip0_2085_381306)"> <path d="M9 3C10.2 3 12 4.5 12 6M12 6C13.49 6 14.89 6.39 16.08 7.05M12 6C8.13 6 4.9 8.58 4.16 12.01C4.11 12.01 4.05 12.01 4 12.01C2.89 12.01 2 12.91 2 14.01C2 15.11 2.89 16.01 4 16.01C4.15 16.01 4.3 15.99 4.44 15.96C5.52 18.9 8.5 21.01 12 21.01C15.5 21.01 18.48 18.9 19.56 15.96C19.7 15.99 19.85 16.01 20 16.01C21.11 16.01 22 15.11 22 14.01C22 12.91 21.11 12.01 20 12.01C19.95 12.01 19.89 12.01 19.84 12.01C19.6 10.88 19.08 9.85 18.37 8.96M14.45 15.58C13.18 16.69 11.28 16.69 10 15.58M10 11V12M14 11V12" stroke="white" stroke-width="1.5" stroke-linecap="round" stroke-linejoin="round"/> </g> <defs> <clipPath id="clip0_2085_381306"> <rect width="24" height="24" fill="white"/> </clipPath> </defs> </svg>
