<svg width="24" height="24" viewBox="0 0 24 24" fill="none" xmlns="http://www.w3.org/2000/svg"> <g clip-path="url(#clip0_4418_3565)"> <path d="M12 19C14.2091 19 16 17.2091 16 15C16 12.7909 14.2091 11 12 11C9.79086 11 8 12.7909 8 15C8 17.2091 9.79086 19 12 19Z" stroke="white" stroke-width="1.5" stroke-miterlimit="10" stroke-linecap="round" stroke-linejoin="round"/> <path d="M12.25 13.75V14.68C12.25 15.03 12.07 15.36 11.76 15.54L11 16" stroke="white" stroke-width="1.5" stroke-miterlimit="10" stroke-linecap="round" stroke-linejoin="round"/> <path d="M3.80983 16.56L4.03983 18.43C4.25983 20.39 4.97983 22 8.99983 22H14.9998C19.0198 22 19.7398 20.39 19.9498 18.43L20.6998 12.43C20.9698 9.99 20.2698 8 15.9998 8H7.99983C3.72983 8 3.02983 9.99 3.29983 12.43" stroke="white" stroke-width="1.5" stroke-miterlimit="10" stroke-linecap="round" stroke-linejoin="round"/> <path d="M7.5 7.66952V6.69952C7.5 4.44952 9.31 2.23952 11.56 2.02952C14.24 1.76952 16.5 3.87952 16.5 6.50952V7.88952" stroke="white" stroke-width="1.5" stroke-miterlimit="10" stroke-linecap="round" stroke-linejoin="round"/> </g> <defs> <clipPath id="clip0_4418_3565"> <rect width="24" height="24" fill="white"/> </clipPath> </defs> </svg>
