<svg width="24" height="24" viewBox="0 0 24 24" fill="none" xmlns="http://www.w3.org/2000/svg"> <g clip-path="url(#clip0_4482_6954)"> <path d="M14.3799 14H9.62988C8.52988 14 7.62988 14.9 7.62988 16V18.25C7.62988 20.31 9.31988 22 11.3799 22H12.6299C14.6899 22 16.3799 20.31 16.3799 18.25V16C16.3799 14.9 15.4799 14 14.3799 14Z" stroke="white" stroke-width="1.5" stroke-miterlimit="10"/> <path d="M7.75 17.5H16.25" stroke="white" stroke-width="1.5" stroke-miterlimit="10" stroke-linecap="round"/> <path d="M6.19 4.5C7.65 2.96 9.71 2 12 2C16.42 2 20 5.58 20 10H4" stroke="white" stroke-width="1.5" stroke-miterlimit="10" stroke-linecap="round" stroke-linejoin="round"/> <path d="M4 10L8.85001 14.85" stroke="white" stroke-width="1.5" stroke-miterlimit="10" stroke-linejoin="round"/> <path d="M19.9999 10L15.1499 14.85" stroke="white" stroke-width="1.5" stroke-miterlimit="10" stroke-linejoin="round"/> <path d="M11.9999 2C11.9999 2 8.68986 5 8.84986 10" stroke="white" stroke-width="1.5" stroke-miterlimit="10"/> <path d="M11.8398 2C11.8398 2 15.1499 5 14.9899 10" stroke="white" stroke-width="1.5" stroke-miterlimit="10"/> </g> <defs> <clipPath id="clip0_4482_6954"> <rect width="24" height="24" fill="white"/> </clipPath> </defs> </svg>
