<svg width="24" height="24" viewBox="0 0 24 24" fill="none" xmlns="http://www.w3.org/2000/svg"> <g clip-path="url(#clip0_4482_6966)"> <path d="M9.85986 2.22969C13.0799 1.52969 16.5699 2.42968 19.0699 4.92968" stroke="white" stroke-width="1.5" stroke-linecap="round" stroke-linejoin="round"/> <path d="M19.0701 4.92969C22.9801 8.83969 22.9801 15.1697 19.0701 19.0697C15.1601 22.9797 8.83006 22.9797 4.93006 19.0697C1.02006 15.1597 1.02006 8.82969 4.93006 4.92969" stroke="white" stroke-width="1.5" stroke-linecap="round" stroke-linejoin="round"/> <path d="M3.58984 17.4102C3.96984 18.0002 4.41981 18.5602 4.92981 19.0702C8.82981 22.9802 15.1698 22.9802 19.0698 19.0702C19.5798 18.5602 20.0298 18.0002 20.4098 17.4102" stroke="white" stroke-width="1.5" stroke-linecap="round" stroke-linejoin="round"/> <path d="M6.99997 11.9998C6.99997 14.3798 5.61 16.4399 3.59 17.4099C1.47 14.1299 1.47 9.86984 3.59 6.58984C5.61 7.55984 6.99997 9.61985 6.99997 11.9998Z" stroke="white" stroke-width="1.5" stroke-linecap="round" stroke-linejoin="round"/> <path d="M20.41 17.4099C18.39 16.4399 17 14.3798 17 11.9998C17 9.61985 18.39 7.55984 20.41 6.58984C22.53 9.86984 22.53 14.1299 20.41 17.4099Z" stroke="white" stroke-width="1.5" stroke-linecap="round" stroke-linejoin="round"/> <path d="M12 22V2" stroke="white" stroke-width="1.5" stroke-linecap="round" stroke-linejoin="round"/> <path d="M22 12H2" stroke="white" stroke-width="1.5" stroke-linecap="round" stroke-linejoin="round"/> </g> <defs> <clipPath id="clip0_4482_6966"> <rect width="24" height="24" fill="white"/> </clipPath> </defs> </svg>
