<svg width="24" height="24" viewBox="0 0 24 24" fill="none" xmlns="http://www.w3.org/2000/svg"> <g clip-path="url(#clip0_4482_13703)"> <path d="M14.8108 8.79973H11.4208C10.6608 8.79973 10.1308 8.05973 10.3708 7.33973C10.7408 6.21973 11.7908 5.46973 12.9708 5.46973H13.2808C14.4608 5.46973 15.5008 6.21973 15.8808 7.33973C16.1208 8.05973 15.5808 8.79973 14.8308 8.79973H14.8108Z" stroke="white" stroke-width="1.5" stroke-linecap="round" stroke-linejoin="round"/> <path d="M21.99 14.6902C22.1 14.0202 21.57 13.4102 20.89 13.4102H12.29" stroke="white" stroke-width="1.5" stroke-linecap="round" stroke-linejoin="round"/> <path d="M6.4404 13.3994H3.1104C2.4304 13.3994 1.9104 14.0094 2.0104 14.6794L2.3904 17.1194C2.7304 19.2794 4.5904 20.8794 6.7804 20.8794H17.2104C18.8304 20.8794 20.2704 20.0094 21.0504 18.6794" stroke="white" stroke-width="1.5" stroke-linecap="round" stroke-linejoin="round"/> <path d="M13.1104 5.46977V5.33977C13.1104 3.49977 14.6004 2.00977 16.4404 2.00977C18.2804 2.00977 19.7704 3.49977 19.7704 5.33977V13.3998" stroke="white" stroke-width="1.5" stroke-linecap="round" stroke-linejoin="round"/> <path d="M9.95043 17.85H8.78043C7.49043 17.85 6.44043 16.8 6.44043 15.51V13.28C6.44043 12.57 7.01043 12 7.72043 12H11.0104C11.7204 12 12.2904 12.57 12.2904 13.28V15.51C12.2904 16.8 11.2404 17.85 9.95043 17.85Z" stroke="white" stroke-width="1.5" stroke-linecap="round" stroke-linejoin="round"/> <path d="M5 21V22" stroke="white" stroke-width="1.5" stroke-linecap="round" stroke-linejoin="round"/> <path d="M19.0005 21.9995L18.9805 21.0195" stroke="white" stroke-width="1.5" stroke-linecap="round" stroke-linejoin="round"/> </g> <defs> <clipPath id="clip0_4482_13703"> <rect width="24" height="24" fill="white"/> </clipPath> </defs> </svg>
