<svg width="24" height="24" viewBox="0 0 24 24" fill="none" xmlns="http://www.w3.org/2000/svg"> <g clip-path="url(#clip0_4482_9610)"> <path d="M2.91016 18.3598V16.5398" stroke="white" stroke-width="1.5" stroke-linecap="round" stroke-linejoin="round"/> <path d="M21.0898 18.3598V16.5398" stroke="white" stroke-width="1.5" stroke-linecap="round" stroke-linejoin="round"/> <path d="M5.4 16.55H2.91C2.41 16.55 2 16.14 2 15.64V12.91C2 12.41 2.41 12 2.91 12H21.09C21.59 12 22 12.41 22 12.91V15.64C22 16.14 21.59 16.55 21.09 16.55H9.93" stroke="white" stroke-width="1.5" stroke-linecap="round" stroke-linejoin="round"/> <path d="M5.64031 5.63988H18.3703C19.3703 5.63988 20.1903 6.44988 20.1903 7.45988V12.0099H3.82031V7.44988C3.82031 6.44988 4.63031 5.62988 5.64031 5.62988V5.63988Z" stroke="white" stroke-width="1.5" stroke-linecap="round" stroke-linejoin="round"/> <path d="M14.7305 5.63989V11.9999" stroke="white" stroke-width="1.5" stroke-linecap="round" stroke-linejoin="round"/> <path d="M9.26953 11.9999V5.63989" stroke="white" stroke-width="1.5" stroke-linecap="round" stroke-linejoin="round"/> </g> <defs> <clipPath id="clip0_4482_9610"> <rect width="24" height="24" fill="white"/> </clipPath> </defs> </svg>
