<svg width="24" height="24" viewBox="0 0 24 24" fill="none" xmlns="http://www.w3.org/2000/svg"> <g clip-path="url(#clip0_4482_6888)"> <path d="M11.9102 15.6497C11.4702 16.0897 11.3303 16.8997 11.5903 17.4697C12.2003 18.8097 11.7803 20.5197 10.3103 21.3797C9.52025 21.8397 8.13028 21.8497 7.34028 21.3897C6.11028 20.6697 5.60028 19.3397 5.84028 18.1297C4.63028 18.3897 3.30027 17.8697 2.58027 16.6397C2.12027 15.8497 2.13028 14.4597 2.59028 13.6697C3.45028 12.2097 5.15025 11.7897 6.50025 12.3997C7.06025 12.6597 7.88026 12.5197 8.32026 12.0797L12.0403 8.3597C12.4603 7.9397 12.6603 7.1397 12.4003 6.6097C11.8003 5.3797 12.0802 3.8197 13.2402 2.8897C14.1302 2.1797 15.7903 2.0797 16.7503 2.6997C17.8903 3.4297 18.3402 4.71971 18.1002 5.87971C19.0702 5.67971 20.1202 5.95971 20.8602 6.70971C22.0502 7.89971 22.0402 9.8297 20.8602 11.0097C19.9202 11.9497 18.5103 12.1497 17.3803 11.5897C16.8503 11.3297 16.0402 11.5197 15.6202 11.9397" stroke="white" stroke-width="1.5" stroke-miterlimit="10" stroke-linecap="round" stroke-linejoin="round"/> </g> <defs> <clipPath id="clip0_4482_6888"> <rect width="24" height="24" fill="white"/> </clipPath> </defs> </svg>
