<svg width="24" height="24" viewBox="0 0 24 24" fill="none" xmlns="http://www.w3.org/2000/svg"> <path d="M22 19.5809V20.0009C22 21.1009 21.1 22.0009 20 22.0009H15.82C15.46 22.0009 15.1 21.9309 14.77 21.8009C15.11 21.5809 15.33 21.2009 15.33 20.7609V19.4609C15.75 19.5409 16.19 19.5809 16.67 19.5809H22Z" stroke="white" stroke-width="1.41" stroke-linejoin="round"/> <path d="M21.9999 18.211V19.581H16.6699C16.1899 19.581 15.7499 19.541 15.3299 19.461V18.211C15.3299 17.441 14.8399 16.751 14.0999 16.511L9.92992 15.121C9.85992 15.101 9.77992 15.061 9.70992 15.031C9.64992 15.001 9.58992 14.971 9.52992 14.931C9.51992 14.931 9.51992 14.921 9.50992 14.921C9.45992 14.891 9.40992 14.851 9.36992 14.821C9.30992 14.771 9.25992 14.731 9.20992 14.681C9.07992 14.541 8.96992 14.391 8.87992 14.231C8.83992 14.151 8.79992 14.061 8.76992 13.981C8.69992 13.801 8.66992 13.611 8.66992 13.421V2.00098H12.3299C13.8799 2.00098 15.1499 3.17098 15.3099 4.67098C15.3199 4.78098 15.3299 4.89098 15.3299 5.00098V13.401C15.3299 14.171 15.8299 14.861 16.5599 15.111L20.7699 16.511C21.4999 16.751 21.9999 17.441 21.9999 18.211Z" stroke="white" stroke-width="1.41" stroke-linecap="round" stroke-linejoin="round"/> <path d="M8.66992 4.6709H15.3399" stroke="white" stroke-width="1.41" stroke-linejoin="round"/> <path d="M15.33 19.581V20.761C15.33 21.201 15.11 21.581 14.77 21.801C14.58 21.931 14.34 22.001 14.09 22.001H9.15C8.71 22.001 8.28 21.901 7.89 21.701L7.51 21.511C6.77 21.141 5.92 21.311 5.23 21.771C5.02 21.921 4.76 22.001 4.49 22.001H4C2.89 22.001 2 21.101 2 20.001V18.251L5.13 18.561C6.5 18.851 7.53 19.261 8.67 19.461C9.09 19.541 9.52 19.581 10 19.581H15.33Z" stroke="white" stroke-width="1.41" stroke-linejoin="round"/> <path d="M2 10.791V5.00098C2 4.89098 2.01 4.78098 2.02 4.67098C2.18 3.17098 3.45 2.00098 5 2.00098H8.67V13.421C8.68 13.611 8.71 13.801 8.77 13.981C8.8 14.061 8.84 14.151 8.88 14.231C8.97 14.391 9.08 14.541 9.21 14.681C9.26 14.731 9.31 14.771 9.37 14.821C9.41 14.851 9.46 14.891 9.51 14.921C9.52 14.921 9.52 14.931 9.53 14.931C9.59 14.971 9.65 15.001 9.71 15.031C9.78 15.061 9.86 15.101 9.93 15.121L14.1 16.511C14.84 16.751 15.33 17.441 15.33 18.211V19.581H10C9.52 19.581 9.09 19.541 8.67 19.461C7.53 19.261 6.5 18.851 5.13 18.561C4.26 18.381 3.26 18.251 2 18.251V14.141" stroke="white" stroke-width="1.41" stroke-linecap="round" stroke-linejoin="round"/> <path d="M2 4.6709H8.67" stroke="white" stroke-width="1.41" stroke-linejoin="round"/> </svg>
