<svg width="24" height="24" viewBox="0 0 24 24" fill="none" xmlns="http://www.w3.org/2000/svg"> <g clip-path="url(#clip0_4482_6869)"> <path d="M7.99023 15.3603V12.1203C7.99023 11.5903 8.15024 11.0803 8.44024 10.6303L9.47024 9.08031C9.67024 8.80031 9.77023 8.4503 9.77023 8.0903V7.07031H14.2202V8.0903C14.2202 8.4503 14.3302 8.79031 14.5202 9.08031L15.5502 10.6303C15.8302 11.0803 16.0002 11.5903 16.0002 12.1203V20.0003C16.0002 21.1003 15.1002 22.0003 14.0002 22.0003H9.99023C8.89023 22.0003 7.99023 21.1003 7.99023 20.0003" stroke="white" stroke-width="1.5" stroke-miterlimit="10" stroke-linecap="round" stroke-linejoin="round"/> <path d="M15.3399 5.97035C15.3399 6.58035 14.8399 7.08035 14.2299 7.08035H9.77992C9.16992 7.08035 8.66992 6.58035 8.66992 5.97035C8.66992 5.36035 9.16992 4.86035 9.77992 4.86035H14.2299C14.8399 4.86035 15.3399 5.36035 15.3399 5.97035Z" stroke="white" stroke-width="1.5" stroke-miterlimit="10" stroke-linecap="round" stroke-linejoin="round"/> <path d="M13.9001 4.86H10.1001V3.16C10.1001 2.52 10.6201 2 11.2601 2H12.7501C13.3901 2 13.9101 2.52 13.9101 3.16V4.86H13.9001Z" stroke="white" stroke-width="1.5" stroke-miterlimit="10" stroke-linecap="round" stroke-linejoin="round"/> </g> <defs> <clipPath id="clip0_4482_6869"> <rect width="24" height="24" fill="white"/> </clipPath> </defs> </svg>
