<svg width="24" height="24" viewBox="0 0 24 24" fill="none" xmlns="http://www.w3.org/2000/svg"> <g clip-path="url(#clip0_4482_6957)"> <path d="M4.93018 4.92957C8.84018 1.01957 15.1702 1.01957 19.0702 4.92957" stroke="white" stroke-width="1.5" stroke-linecap="round" stroke-linejoin="round"/> <path d="M19.0702 4.92969C22.9802 8.83969 22.9802 15.1697 19.0702 19.0697C15.1602 22.9797 8.83016 22.9797 4.93016 19.0697C2.41016 16.5497 1.51017 13.0097 2.25017 9.77969" stroke="white" stroke-width="1.5" stroke-linecap="round" stroke-linejoin="round"/> <path d="M10.2802 13.5604C11.0037 13.5604 11.5902 12.9739 11.5902 12.2504C11.5902 11.5269 11.0037 10.9404 10.2802 10.9404C9.55672 10.9404 8.97021 11.5269 8.97021 12.2504C8.97021 12.9739 9.55672 13.5604 10.2802 13.5604Z" stroke="white" stroke-width="1.5" stroke-linecap="round" stroke-linejoin="round"/> <path d="M16.35 11.9003C17.0735 11.9003 17.66 11.3138 17.66 10.5903C17.66 9.86678 17.0735 9.28027 16.35 9.28027C15.6265 9.28027 15.04 9.86678 15.04 10.5903C15.04 11.3138 15.6265 11.9003 16.35 11.9003Z" stroke="white" stroke-width="1.5" stroke-linecap="round" stroke-linejoin="round"/> <path d="M11.4501 8.2196C12.1736 8.2196 12.7601 7.6331 12.7601 6.90961C12.7601 6.18611 12.1736 5.59961 11.4501 5.59961C10.7266 5.59961 10.1401 6.18611 10.1401 6.90961C10.1401 7.6331 10.7266 8.2196 11.4501 8.2196Z" stroke="white" stroke-width="1.5" stroke-linecap="round" stroke-linejoin="round"/> </g> <defs> <clipPath id="clip0_4482_6957"> <rect width="24" height="24" fill="white"/> </clipPath> </defs> </svg>
