<svg width="24" height="24" viewBox="0 0 24 24" fill="none" xmlns="http://www.w3.org/2000/svg"> <g clip-path="url(#clip0_4418_3395)"> <path d="M3.16992 7.44141L11.9999 12.5514L20.7699 7.47137" stroke="white" stroke-width="1.5" stroke-linecap="round" stroke-linejoin="round"/> <path d="M12 21.611V12.541" stroke="white" stroke-width="1.5" stroke-linecap="round" stroke-linejoin="round"/> <path d="M2.39014 9.17056C2.39014 7.79056 3.38012 6.11058 4.59012 5.44058L9.93011 2.47055C11.0701 1.84055 12.9401 1.84055 14.0801 2.47055L19.4201 5.44058C20.6301 6.11058 21.6201 7.79056 21.6201 9.17056V14.8206C21.6201 16.2006 20.6301 17.8806 19.4201 18.5506L14.0801 21.5206C12.9401 22.1506 11.0701 22.1506 9.93011 21.5206L4.59012 18.5506C3.38012 17.8806 2.39014 16.2006 2.39014 14.8206V14.0006" stroke="white" stroke-width="1.5" stroke-linecap="round" stroke-linejoin="round"/> <path d="M16.9998 13.2396V9.57965L10.9297 6.06964L9.87976 5.4696L7.50977 4.09961" stroke="white" stroke-width="1.5" stroke-linecap="round" stroke-linejoin="round"/> </g> <defs> <clipPath id="clip0_4418_3395"> <rect width="24" height="24" fill="white"/> </clipPath> </defs> </svg>
