<svg width="24" height="24" viewBox="0 0 24 24" fill="none" xmlns="http://www.w3.org/2000/svg"> <g clip-path="url(#clip0_2085_392621)"> <path d="M13.4798 21.9909C15.6698 21.8709 17.3898 20.0609 17.3898 17.8509V11.3809C17.3898 10.8309 16.9498 10.3809 16.3898 10.3809H6.77979C6.21979 10.3809 5.77979 10.8309 5.77979 11.3809V17.8509C5.77979 19.5809 6.82979 21.0609 8.33979 21.6909" stroke="white" stroke-width="1.5" stroke-linecap="round" stroke-linejoin="round"/> <path d="M17.3896 17.4408L19.7696 16.8508C20.3196 16.7108 20.7096 16.2108 20.7096 15.6408V13.2908C20.7096 12.6008 20.1496 12.0508 19.4696 12.0508H17.3996" stroke="white" stroke-width="1.5" stroke-linecap="round" stroke-linejoin="round"/> <path d="M14.4899 4.9C14.4899 6.5 13.1899 7.8 11.5899 7.8C9.98994 7.8 8.68994 6.5 8.68994 4.9C8.68994 3.3 9.98994 2 11.5899 2C13.1899 2 14.4899 3.3 14.4899 4.9Z" stroke="white" stroke-width="1.5" stroke-linecap="round" stroke-linejoin="round"/> <path d="M11.5798 10.3805V7.81055H6.27979C4.61979 7.81055 3.27979 9.15055 3.27979 10.8105V11.9605" stroke="white" stroke-width="1.5" stroke-linecap="round" stroke-linejoin="round"/> <path d="M11.5796 4.90031V4.07031" stroke="white" stroke-width="1.5" stroke-linecap="round" stroke-linejoin="round"/> <path d="M5.77979 13.2891H17.3998" stroke="white" stroke-width="1.5" stroke-linecap="round" stroke-linejoin="round"/> </g> <defs> <clipPath id="clip0_2085_392621"> <rect width="24" height="24" fill="white"/> </clipPath> </defs> </svg>
