<svg width="24" height="24" viewBox="0 0 24 24" fill="none" xmlns="http://www.w3.org/2000/svg"> <g clip-path="url(#clip0_4482_11324)"> <path d="M20.1498 6.62988L17.7998 8.98988" stroke="white" stroke-width="1.5" stroke-linecap="round" stroke-linejoin="round"/> <path d="M17.3598 3.83984L15.0098 6.19984" stroke="white" stroke-width="1.5" stroke-linecap="round" stroke-linejoin="round"/> <path d="M16.2398 16.2398L7.75977 7.75977" stroke="white" stroke-width="1.5" stroke-linecap="round" stroke-linejoin="round"/> <path d="M7.76014 7.76023L5.80014 9.72023C5.38014 10.1402 5.15014 10.7002 5.15014 11.2902C5.15014 11.8802 5.38014 12.4402 5.80014 12.8602L6.66014 13.7202C6.77014 13.8302 6.83014 13.9802 6.82014 14.1302C6.81014 14.2802 6.75014 14.4302 6.63014 14.5302L2.79014 17.9102C2.31014 18.3402 2.02014 18.9402 2.00014 19.5902C1.98014 20.2302 2.23014 20.8602 2.68014 21.3102C3.14014 21.7702 3.76014 22.0102 4.40014 21.9902C5.04014 21.9702 5.65014 21.6802 6.08014 21.2002L9.46014 17.3602C9.56014 17.2502 9.71014 17.1802 9.86014 17.1702C10.0101 17.1702 10.1601 17.2202 10.2701 17.3302L11.1301 18.1902C11.5501 18.6102 12.1101 18.8402 12.7001 18.8402C13.2901 18.8402 13.8501 18.6102 14.2701 18.1902L21.2801 11.1802C22.2301 10.2302 22.2301 8.70023 21.2801 7.75023L16.2301 2.70023C15.7801 2.25023 15.1601 1.99023 14.5201 1.99023C13.8801 1.99023 13.2601 2.25023 12.8101 2.70023L10.0401 5.47023" stroke="white" stroke-width="1.5" stroke-linecap="round" stroke-linejoin="round"/> </g> <defs> <clipPath id="clip0_4482_11324"> <rect width="24" height="24" fill="white"/> </clipPath> </defs> </svg>
