<svg width="24" height="24" viewBox="0 0 24 24" fill="none" xmlns="http://www.w3.org/2000/svg"> <g clip-path="url(#clip0_4482_15172)"> <path d="M8.83973 9.11035H8.35973C6.75973 9.11035 5.46973 10.4104 5.46973 12.0004C5.46973 13.6004 6.76973 14.8904 8.35973 14.8904H8.83973" stroke="white" stroke-width="1.5" stroke-linecap="round" stroke-linejoin="round"/> <path d="M2 7.83V7C2 4.24 4.24 2 7 2H17C19.76 2 22 4.24 22 7V17C22 19.76 19.76 22 17 22H7C4.24 22 2 19.76 2 17V12" stroke="white" stroke-width="1.5" stroke-linecap="round" stroke-linejoin="round"/> <path d="M18.8402 12H15.9902" stroke="white" stroke-width="1.5" stroke-linecap="round" stroke-linejoin="round"/> <path d="M17.4199 10.5703V13.4203" stroke="white" stroke-width="1.5" stroke-linecap="round" stroke-linejoin="round"/> <path d="M13.85 12H11" stroke="white" stroke-width="1.5" stroke-linecap="round" stroke-linejoin="round"/> <path d="M12.4297 10.5703V13.4203" stroke="white" stroke-width="1.5" stroke-linecap="round" stroke-linejoin="round"/> </g> <defs> <clipPath id="clip0_4482_15172"> <rect width="24" height="24" fill="white"/> </clipPath> </defs> </svg>
