<svg width="24" height="24" viewBox="0 0 24 24" fill="none" xmlns="http://www.w3.org/2000/svg"> <g clip-path="url(#clip0_4482_15170)"> <path d="M14.7803 12H18.6703" stroke="white" stroke-width="1.5" stroke-linecap="round" stroke-linejoin="round"/> <path d="M16.7197 13.9398V10.0498" stroke="white" stroke-width="1.5" stroke-linecap="round" stroke-linejoin="round"/> <path d="M14.6301 7.15013C12.3001 5.87013 9.40012 6.43013 7.70012 8.48013C6.01012 10.5301 6.01012 13.4901 7.70012 15.5301C9.39012 17.5801 12.3001 18.1301 14.6301 16.8601" stroke="white" stroke-width="1.5" stroke-linecap="round" stroke-linejoin="round"/> <path d="M2 7.79V7C2 4.24 4.24 2 7 2H17C19.76 2 22 4.24 22 7V17C22 19.76 19.76 22 17 22H7C4.24 22 2 19.76 2 17V12" stroke="white" stroke-width="1.5" stroke-linecap="round" stroke-linejoin="round"/> </g> <defs> <clipPath id="clip0_4482_15170"> <rect width="24" height="24" fill="white"/> </clipPath> </defs> </svg>
