<svg width="24" height="24" viewBox="0 0 24 24" fill="none" xmlns="http://www.w3.org/2000/svg"> <g clip-path="url(#clip0_4482_10904)"> <path d="M14.2197 10.3298V7.5498" stroke="white" stroke-width="1.5" stroke-linecap="round" stroke-linejoin="round"/> <path d="M9.78027 10.3298V7.5498" stroke="white" stroke-width="1.5" stroke-linecap="round" stroke-linejoin="round"/> <path d="M12 21.9999V16.4399" stroke="white" stroke-width="1.5" stroke-linecap="round" stroke-linejoin="round"/> <path d="M9.78031 10.3301H14.2203C15.2903 10.3301 16.1603 11.2001 16.1603 12.2701C16.1603 14.5701 14.2903 16.4401 11.9903 16.4401C9.69031 16.4401 7.82031 14.5701 7.82031 12.2701C7.82031 11.2001 8.69031 10.3301 9.76031 10.3301H9.78031Z" stroke="white" stroke-width="1.5" stroke-linecap="round" stroke-linejoin="round"/> <path d="M21.79 9.93C21.93 10.6 22 11.29 22 12C22 17.52 17.52 22 12 22C6.48 22 2 17.52 2 12C2 6.48 6.48 2 12 2C14.76 2 17.25 3.11 19.06 4.92" stroke="white" stroke-width="1.5" stroke-linecap="round" stroke-linejoin="round"/> </g> <defs> <clipPath id="clip0_4482_10904"> <rect width="24" height="24" fill="white"/> </clipPath> </defs> </svg>
