<svg width="24" height="24" viewBox="0 0 24 24" fill="none" xmlns="http://www.w3.org/2000/svg"> <g clip-path="url(#clip0_2085_385704)"> <path d="M18.4098 16.87C16.9898 16.87 15.8498 18.02 15.8498 19.43C15.8498 20.84 16.9998 21.99 18.4098 21.99C19.8198 21.99 20.9698 20.84 20.9698 19.43C20.9698 18.02 19.8198 16.87 18.4098 16.87ZM18.4098 16.87V9.18L21.4898 6.1M19.9498 9.18C15.8498 9.18 11.7398 8.67 11.2298 4.56C8.66976 5.07 6.09977 7.13 6.61977 9.18C7.12977 11.23 16.3598 9.74 10.7198 15.85M11.7398 7.13C11.7398 7.13 9.17976 9.18 8.14977 11.23C7.11977 13.28 7.11977 18.41 7.11977 18.41M2.50977 19.44C2.50977 18.02 3.65977 16.88 5.06977 16.88C6.47977 16.88 18.3998 19.44 18.3998 19.44C18.3998 19.44 6.47977 22 5.06977 22M17.8998 4.05C17.8998 5.18 16.9798 6.1 15.8498 6.1C14.7198 6.1 13.7998 5.18 13.7998 4.05C13.7998 2.92 14.7198 2 15.8498 2C16.9798 2 17.8998 2.92 17.8998 4.05Z" stroke="white" stroke-width="1.5" stroke-linecap="round" stroke-linejoin="round"/> </g> <defs> <clipPath id="clip0_2085_385704"> <rect width="24" height="24" fill="white"/> </clipPath> </defs> </svg>
