<svg width="24" height="24" viewBox="0 0 24 24" fill="none" xmlns="http://www.w3.org/2000/svg"> <g clip-path="url(#clip0_4482_7259)"> <path d="M3 7C3 4 4.5 2 8 2H16C19.5 2 21 4 21 7V17C21 20 19.5 22 16 22H8C4.5 22 3 20 3 17V13.51" stroke="white" stroke-width="1.5" stroke-miterlimit="10" stroke-linecap="round" stroke-linejoin="round"/> <path d="M12.2298 15.5499C12.0998 15.5899 11.8897 15.5899 11.7697 15.5499C10.6797 15.1799 8.25977 13.6299 8.25977 11.0099C8.25977 9.84992 9.18975 8.91992 10.3398 8.91992C11.0198 8.91992 11.6298 9.24992 11.9998 9.75992C12.3798 9.24992 12.9898 8.91992 13.6598 8.91992C14.8098 8.91992 15.7397 9.85992 15.7397 11.0099C15.7497 13.6299 13.3198 15.1799 12.2298 15.5499Z" stroke="white" stroke-width="1.5" stroke-linecap="round" stroke-linejoin="round"/> </g> <defs> <clipPath id="clip0_4482_7259"> <rect width="24" height="24" fill="white"/> </clipPath> </defs> </svg>
