<svg width="24" height="24" viewBox="0 0 24 24" fill="none" xmlns="http://www.w3.org/2000/svg"> <g clip-path="url(#clip0_4482_13405)"> <path d="M6.8 3.45996C3.92 5.20996 2 8.37996 2 12C2 17.52 6.48 22 12 22C14.23 22 16.29 21.27 17.95 20.03" stroke="white" stroke-width="1.5" stroke-linecap="round" stroke-linejoin="round"/> <path d="M17.9505 3.95C16.2405 2.69 14.1605 2 12.0005 2C11.4805 2 10.9805 2.04 10.4805 2.11" stroke="white" stroke-width="1.5" stroke-linecap="round" stroke-linejoin="round"/> <path d="M2.51953 13.4804L2.55953 13.4404C3.68953 12.3104 5.80953 14.7004 7.07953 13.4404C8.20953 12.3104 6.50953 10.6204 8.20953 8.92035C9.79953 7.33035 8.77953 6.10035 7.07953 4.40035L7.03953 4.36035" stroke="white" stroke-width="1.5" stroke-linecap="round" stroke-linejoin="round"/> <path d="M5.20996 18.9402C5.23996 18.7902 5.28996 18.6502 5.34996 18.5002C5.75996 17.5802 6.62996 16.9402 7.62996 16.8302C8.62996 16.7202 9.60996 17.1602 10.21 17.9802C10.8 18.8002 10.92 19.8602 10.51 20.7902C10.46 20.8902 10.41 20.9902 10.34 21.0902" stroke="white" stroke-width="1.5" stroke-linecap="round" stroke-linejoin="round"/> <path d="M17.46 13.4201C18.2443 13.4201 18.88 12.7843 18.88 12.0001C18.88 11.2158 18.2443 10.5801 17.46 10.5801C16.6758 10.5801 16.04 11.2158 16.04 12.0001C16.04 12.7843 16.6758 13.4201 17.46 13.4201Z" stroke="white" stroke-width="1.5" stroke-linecap="round" stroke-linejoin="round"/> <path d="M20.29 8.34961H14.62C13.7253 8.34961 13 9.07491 13 9.96961V14.0196C13 14.9143 13.7253 15.6396 14.62 15.6396H20.29C21.1847 15.6396 21.91 14.9143 21.91 14.0196V9.96961C21.91 9.07491 21.1847 8.34961 20.29 8.34961Z" stroke="white" stroke-width="1.5" stroke-linecap="round" stroke-linejoin="round"/> </g> <defs> <clipPath id="clip0_4482_13405"> <rect width="24" height="24" fill="white"/> </clipPath> </defs> </svg>
