<svg width="24" height="24" viewBox="0 0 24 24" fill="none" xmlns="http://www.w3.org/2000/svg"> <g clip-path="url(#clip0_2085_391949)"> <path d="M14.3502 21.5303C14.7202 21.4203 15.0802 21.2703 15.4202 21.1003C16.2002 20.7203 16.9002 20.2003 17.5102 19.5703C17.8002 19.2703 18.0802 18.9403 18.3402 18.6003C18.3902 18.5303 18.4402 18.4603 18.5002 18.3703C18.5902 18.2403 18.6802 18.1103 18.7702 17.9703C18.8202 17.9003 18.8602 17.8303 18.9102 17.7603C19.3202 17.0803 19.6802 16.3303 19.9702 15.5203C20.2002 14.9103 20.3902 14.2703 20.5502 13.5903C20.8702 12.2003 20.9302 10.9603 20.7102 9.87027C20.6702 9.64027 20.6102 9.43027 20.5502 9.23027C20.4702 8.99027 20.3802 8.75027 20.2702 8.53027C20.2202 8.41027 20.1602 8.30027 20.0902 8.19027C20.0602 8.12027 20.0202 8.06027 19.9802 7.99027C19.8802 7.84027 19.7802 7.69027 19.6702 7.55027C19.5802 7.44027 19.4902 7.33027 19.3902 7.23027C19.3202 7.15027 19.2402 7.07027 19.1602 6.99027C18.9602 6.79027 18.7302 6.60027 18.4802 6.43027C18.3402 6.33027 18.1802 6.23027 18.0202 6.13027C17.8202 6.01027 17.6102 5.90027 17.3902 5.80027C17.2702 5.75027 17.1502 5.69027 17.0202 5.64027C16.7302 5.52027 16.4202 5.42027 16.0902 5.33027C15.9402 5.28027 15.7902 5.24027 15.6302 5.20027C15.2702 5.11027 14.8902 5.04027 14.4902 4.98027C13.7302 4.86027 12.9002 4.79027 12.0102 4.78027H11.9902C11.1002 4.79027 10.2702 4.86027 9.51022 4.98027C9.11022 5.04027 8.72022 5.11027 8.36022 5.20027C6.56022 5.64027 5.21022 6.42027 4.33022 7.55027C4.06022 7.88027 3.84022 8.24027 3.67022 8.63027C3.50022 9.02027 3.37022 9.43027 3.28022 9.87027C3.07022 10.9603 3.12022 12.2003 3.45022 13.5903C3.60022 14.2703 3.80022 14.9103 4.03022 15.5203C4.32022 16.3303 4.68022 17.0803 5.09022 17.7503C5.14022 17.8203 5.18022 17.9003 5.23022 17.9703C5.37022 18.1903 5.51022 18.4003 5.66022 18.6003C5.91022 18.9403 6.19022 19.2703 6.48022 19.5703C7.09022 20.2003 7.80022 20.7203 8.58022 21.1003C8.93022 21.2703 9.28022 21.4203 9.65022 21.5303" stroke="white" stroke-width="1.5" stroke-linecap="round" stroke-linejoin="round"/> <path d="M8.35987 5.19988C6.54987 5.63988 5.19987 6.41988 4.32987 7.54988C3.80987 8.21988 3.45987 8.99988 3.27987 9.87988C3.01987 8.90988 2.20987 5.52988 2.62987 2.91988C2.72987 2.32988 3.33987 1.96988 3.90987 2.13988C5.09987 2.48988 7.06987 3.32988 8.35987 5.19988Z" stroke="white" stroke-width="1.5" stroke-linecap="round" stroke-linejoin="round"/> <path d="M15.6299 5.19988C17.4399 5.63988 18.7899 6.41988 19.6599 7.54988C20.1799 8.21988 20.5299 8.99988 20.7099 9.87988C20.9699 8.90988 21.7799 5.52988 21.3599 2.91988C21.2599 2.32988 20.6499 1.96988 20.0799 2.13988C18.8899 2.48988 16.9199 3.32988 15.6299 5.19988Z" stroke="white" stroke-width="1.5" stroke-linecap="round" stroke-linejoin="round"/> <path d="M12 4.78027V9.04027" stroke="white" stroke-width="1.5" stroke-linecap="round" stroke-linejoin="round"/> <path d="M9.50977 7.79973V4.96973" stroke="white" stroke-width="1.5" stroke-linecap="round" stroke-linejoin="round"/> <path d="M14.4902 7.79973V4.96973" stroke="white" stroke-width="1.5" stroke-linecap="round" stroke-linejoin="round"/> <path d="M7.8401 12.6102C7.8401 12.9502 7.5601 13.2302 7.2201 13.2302C6.8801 13.2302 6.6001 12.9502 6.6001 12.6102C6.6001 12.2702 6.8801 11.9902 7.2201 11.9902C7.5601 11.9902 7.8401 12.2702 7.8401 12.6102Z" fill="white"/> <path d="M16.1602 12.6102C16.1602 12.9502 16.4402 13.2302 16.7802 13.2302C17.1202 13.2302 17.4002 12.9502 17.4002 12.6102C17.4002 12.2702 17.1202 11.9902 16.7802 11.9902C16.4402 11.9902 16.1602 12.2702 16.1602 12.6102Z" fill="white"/> <path d="M13.8798 15.28C13.7798 15.6 13.5898 15.88 13.3798 16.13C13.3098 16.21 13.2398 16.28 13.1698 16.35C13.0198 16.5 12.8398 16.62 12.6498 16.7C12.4398 16.79 12.2198 16.83 11.9998 16.83C11.7798 16.83 11.5598 16.79 11.3498 16.7C11.1598 16.62 10.9898 16.5 10.8298 16.35C10.7598 16.28 10.6898 16.2 10.6198 16.13C10.3998 15.87 10.1998 15.57 10.0998 15.24C9.98977 14.87 10.1398 14.47 10.4598 14.25C10.6198 14.14 10.7898 14.05 10.9798 13.98C10.9798 13.98 10.9798 13.98 10.9898 13.98C11.2998 13.86 11.6398 13.79 11.9898 13.79C12.3398 13.79 12.6798 13.86 12.9898 13.97C12.9898 13.97 12.9898 13.97 12.9998 13.97C13.1698 14.04 13.3398 14.12 13.4898 14.22C13.8398 14.45 13.9998 14.87 13.8698 15.27L13.8798 15.28Z" stroke="white" stroke-width="1.5" stroke-linecap="round" stroke-linejoin="round"/> <path d="M12.0002 16.8398V17.4998C12.0002 18.3998 11.2702 19.1198 10.3802 19.1198H10.3602C9.46023 19.1198 8.74023 18.3898 8.74023 17.4998" stroke="white" stroke-width="1.5" stroke-linecap="round" stroke-linejoin="round"/> <path d="M12 16.8398V17.4998C12 18.3998 12.73 19.1198 13.62 19.1198H13.64C14.54 19.1198 15.26 18.3898 15.26 17.4998" stroke="white" stroke-width="1.5" stroke-linecap="round" stroke-linejoin="round"/> <path d="M6.52002 17.3398L2.52002 19.2998" stroke="white" stroke-width="1.5" stroke-linecap="round" stroke-linejoin="round"/> <path d="M6.21 15.2002L2 15.8102" stroke="white" stroke-width="1.5" stroke-linecap="round" stroke-linejoin="round"/> <path d="M17.48 17.3398L21.48 19.2998" stroke="white" stroke-width="1.5" stroke-linecap="round" stroke-linejoin="round"/> <path d="M17.79 15.2002L22 15.8002" stroke="white" stroke-width="1.5" stroke-linecap="round" stroke-linejoin="round"/> </g> <defs> <clipPath id="clip0_2085_391949"> <rect width="24" height="24" fill="white"/> </clipPath> </defs> </svg>
