<svg width="24" height="24" viewBox="0 0 24 24" fill="none" xmlns="http://www.w3.org/2000/svg"> <g clip-path="url(#clip0_2085_381134)"> <path d="M18.9498 2H5.0498C4.2198 2 3.5498 2.67 3.5498 3.5C3.5498 4.33 4.2198 5 5.0498 5H18.9398C19.7698 5 20.4398 4.33 20.4398 3.5C20.4398 2.67 19.7698 2 18.9398 2H18.9498Z" stroke="white" stroke-width="1.5" stroke-linecap="round" stroke-linejoin="round"/> <path d="M18.9498 22C19.7798 22 20.4498 21.33 20.4498 20.5C20.4498 19.67 19.7798 19 18.9498 19H5.0498C4.2198 19 3.5498 19.67 3.5498 20.5C3.5498 21.33 4.2198 22 5.0498 22H14.8998" stroke="white" stroke-width="1.5" stroke-linecap="round" stroke-linejoin="round"/> <path d="M14.8999 5.01001H9.10986V19H14.8999V5.01001Z" stroke="white" stroke-width="1.5" stroke-linecap="round" stroke-linejoin="round"/> <path d="M14.8999 5.01001L9.10986 10.58" stroke="white" stroke-width="1.5" stroke-linecap="round" stroke-linejoin="round"/> <path d="M14.8999 13.3701L9.10986 18.9401" stroke="white" stroke-width="1.5" stroke-linecap="round" stroke-linejoin="round"/> <path d="M14.8999 9.18994L9.10986 14.7599" stroke="white" stroke-width="1.5" stroke-linecap="round" stroke-linejoin="round"/> <path d="M6.00977 5.01001V10.12" stroke="white" stroke-width="1.5" stroke-linecap="round" stroke-linejoin="round"/> <path d="M6.01004 13.5499C6.96004 13.5499 7.73004 12.7799 7.73004 11.8399C7.73004 10.8999 6.96004 10.1299 6.01004 10.1299C5.06004 10.1299 4.29004 10.8999 4.29004 11.8399C4.29004 12.7799 5.06004 13.5499 6.01004 13.5499Z" stroke="white" stroke-width="1.5" stroke-linecap="round" stroke-linejoin="round"/> </g> <defs> <clipPath id="clip0_2085_381134"> <rect width="24" height="24" fill="white"/> </clipPath> </defs> </svg>
