<svg width="24" height="24" viewBox="0 0 24 24" fill="none" xmlns="http://www.w3.org/2000/svg"> <g clip-path="url(#clip0_4482_9612)"> <path d="M7.56055 6.44C7.56055 3.99 9.55055 2 12.0005 2C14.4505 2 16.4405 3.99 16.4405 6.44V13.66" stroke="white" stroke-width="1.5" stroke-linecap="round" stroke-linejoin="round"/> <path d="M7.56055 13.6699V10.1699" stroke="white" stroke-width="1.5" stroke-linecap="round" stroke-linejoin="round"/> <path d="M5.89062 22.0001C5.89062 21.0801 6.64063 20.3301 7.56063 20.3301H16.4506C17.3706 20.3301 18.1206 21.0801 18.1206 22.0001" stroke="white" stroke-width="1.5" stroke-linecap="round" stroke-linejoin="round"/> <path d="M12 17V20.33" stroke="white" stroke-width="1.5" stroke-linecap="round" stroke-linejoin="round"/> <path d="M7.00063 13.6699H17.0006C17.6106 13.6699 18.1106 14.1699 18.1106 14.7799C18.1106 16.0099 17.1206 16.9999 15.8906 16.9999H8.11062C6.88062 16.9999 5.89062 16.0099 5.89062 14.7799C5.89062 14.1699 6.39063 13.6699 7.00063 13.6699Z" stroke="white" stroke-width="1.5" stroke-linecap="round" stroke-linejoin="round"/> <path d="M4.78035 9.21997C3.86035 9.21997 3.11035 9.96997 3.11035 10.89V11.45C3.11035 12.68 4.10035 13.67 5.33035 13.67H18.6604C19.8904 13.67 20.8804 12.68 20.8804 11.45V10.89C20.8804 9.96997 20.1304 9.21997 19.2104 9.21997" stroke="white" stroke-width="1.5" stroke-linecap="round" stroke-linejoin="round"/> </g> <defs> <clipPath id="clip0_4482_9612"> <rect width="24" height="24" fill="white"/> </clipPath> </defs> </svg>
