<svg width="24" height="24" viewBox="0 0 24 24" fill="none" xmlns="http://www.w3.org/2000/svg"> <g clip-path="url(#clip0_4482_9624)"> <path d="M6.44043 16.4399V21.9999" stroke="white" stroke-width="1.5" stroke-linecap="round" stroke-linejoin="round"/> <path d="M17.5605 16.4399V21.9999" stroke="white" stroke-width="1.5" stroke-linecap="round" stroke-linejoin="round"/> <path d="M18.1103 13.1101H5.89027C5.27724 13.1101 4.78027 13.6071 4.78027 14.2201V15.3301C4.78027 15.9431 5.27724 16.4401 5.89027 16.4401H18.1103C18.7233 16.4401 19.2203 15.9431 19.2203 15.3301V14.2201C19.2203 13.6071 18.7233 13.1101 18.1103 13.1101Z" stroke="white" stroke-width="1.5" stroke-linecap="round" stroke-linejoin="round"/> <path d="M7.08008 8.6001L7.76008 13.1201" stroke="white" stroke-width="1.5" stroke-linecap="round" stroke-linejoin="round"/> <path d="M16.2503 13.11L17.5303 4.55C17.6303 3.91 17.4403 3.26 17.0203 2.77C16.6003 2.28 15.9803 2 15.3403 2H8.67028C8.02028 2 7.41028 2.28 6.99028 2.77C6.57028 3.26 6.38028 3.91 6.48028 4.55" stroke="white" stroke-width="1.5" stroke-linecap="round" stroke-linejoin="round"/> </g> <defs> <clipPath id="clip0_4482_9624"> <rect width="24" height="24" fill="white"/> </clipPath> </defs> </svg>
