<svg width="24" height="24" viewBox="0 0 24 24" fill="none" xmlns="http://www.w3.org/2000/svg"> <g clip-path="url(#clip0_4482_8269)"> <path d="M10.0603 2.09002C7.93031 1.75002 5.68031 2.40002 4.04031 4.04002C1.33031 6.75002 1.33031 11.15 4.04031 13.86C6.75031 16.57 11.1503 16.57 13.8603 13.86C14.6603 13.06 15.2203 12.11 15.5503 11.1" stroke="white" stroke-width="1.5" stroke-linecap="round" stroke-linejoin="round"/> <path d="M15.8404 8.16003C15.6704 6.65003 15.0104 5.19003 13.8604 4.03003" stroke="white" stroke-width="1.5" stroke-linecap="round" stroke-linejoin="round"/> <path d="M8.16016 15.84C8.33016 17.35 8.99016 18.81 10.1402 19.97C12.8502 22.68 17.2502 22.68 19.9602 19.97C22.6702 17.26 22.6702 12.86 19.9602 10.15C17.2502 7.43999 12.8502 7.43999 10.1402 10.15C9.34016 10.95 8.78016 11.9 8.45016 12.91" stroke="white" stroke-width="1.5" stroke-linecap="round" stroke-linejoin="round"/> </g> <defs> <clipPath id="clip0_4482_8269"> <rect width="24" height="24" fill="white"/> </clipPath> </defs> </svg>
