<svg width="24" height="24" viewBox="0 0 24 24" fill="none" xmlns="http://www.w3.org/2000/svg"> <g clip-path="url(#clip0_4482_13409)"> <path d="M22 12C22 17.52 17.52 22 12 22C6.48 22 2 17.52 2 12C2 6.48 6.48 2 12 2C15.9 2 19.28 4.24 20.93 7.5" stroke="white" stroke-width="1.5" stroke-linecap="round"/> <path d="M12.3301 2V10" stroke="white" stroke-width="1.5" stroke-linecap="round" stroke-linejoin="round"/> <path d="M12.3301 15V22" stroke="white" stroke-width="1.5" stroke-linecap="round" stroke-linejoin="round"/> <path d="M14.9404 11.6999L16.8304 10.1699L17.5004 10.8399L21.1504 14.4899" stroke="white" stroke-width="1.5" stroke-linecap="round" stroke-linejoin="round"/> <path d="M12.3304 14.5504C13.5564 14.5504 14.5504 13.5564 14.5504 12.3304C14.5504 11.1043 13.5564 10.1104 12.3304 10.1104C11.1043 10.1104 10.1104 11.1043 10.1104 12.3304C10.1104 13.5564 11.1043 14.5504 12.3304 14.5504Z" stroke="white" stroke-width="1.5"/> <path d="M10.1103 13.89L8.67027 15.33L5.34027 12L2.78027 14.56" stroke="white" stroke-width="1.5" stroke-linecap="round" stroke-linejoin="round"/> </g> <defs> <clipPath id="clip0_4482_13409"> <rect width="24" height="24" fill="white"/> </clipPath> </defs> </svg>
