<svg width="24" height="24" viewBox="0 0 24 24" fill="none" xmlns="http://www.w3.org/2000/svg"> <g clip-path="url(#clip0_2085_392312)"> <path d="M16.37 5.91957L16.43 5.97957C16.81 6.35957 17.02 6.86957 17.02 7.39957V21.5896H7.02002V7.39957C7.02002 6.86957 7.23002 6.35957 7.61002 5.97957L10.59 2.99957C11.34 2.24957 12.54 2.21957 13.32 2.91957" stroke="white" stroke-width="1.5" stroke-linecap="round" stroke-linejoin="round"/> <path d="M9.51001 21.5893V19.0593C9.51001 17.6893 10.63 16.5693 12 16.5693C13.37 16.5693 14.49 17.6793 14.49 19.0593V21.5893" stroke="white" stroke-width="1.5" stroke-linecap="round" stroke-linejoin="round"/> <path d="M12 21.5893V16.5693" stroke="white" stroke-width="1.5" stroke-linecap="round" stroke-linejoin="round"/> <path d="M17.02 14.0798L19.51 11.5898L22 14.0798V19.5898C22 20.6898 21.1 21.5898 20 21.5898H17.02" stroke="white" stroke-width="1.5" stroke-linecap="round" stroke-linejoin="round"/> <path d="M7.02 14.0798L4.53 11.5898L2 14.0798V19.5898C2 20.6898 2.9 21.5898 4 21.5898H7.02" stroke="white" stroke-width="1.5" stroke-linecap="round" stroke-linejoin="round"/> <path d="M12 5.31934V9.09934" stroke="white" stroke-width="1.5" stroke-linecap="round" stroke-linejoin="round"/> <path d="M10.76 6.56934H13.25" stroke="white" stroke-width="1.5" stroke-linecap="round" stroke-linejoin="round"/> <path d="M13.24 12.8298C13.24 13.5198 12.68 14.0698 12 14.0698C11.32 14.0698 10.76 13.5098 10.76 12.8298C10.76 12.1498 11.32 11.5898 12 11.5898C12.68 11.5898 13.24 12.1498 13.24 12.8298Z" stroke="white" stroke-width="1.5" stroke-linecap="round" stroke-linejoin="round"/> <path d="M19.5098 15.3193V16.5593" stroke="white" stroke-width="1.5" stroke-linecap="round" stroke-linejoin="round"/> <path d="M19.5098 19.0596V21.5896" stroke="white" stroke-width="1.5" stroke-linecap="round" stroke-linejoin="round"/> <path d="M4.53003 15.3193V16.5593" stroke="white" stroke-width="1.5" stroke-linecap="round" stroke-linejoin="round"/> <path d="M4.53003 19.0596V21.5896" stroke="white" stroke-width="1.5" stroke-linecap="round" stroke-linejoin="round"/> <path d="M4.53003 9.09961V11.5896" stroke="white" stroke-width="1.5" stroke-linecap="round" stroke-linejoin="round"/> <path d="M19.5098 9.09961V11.5896" stroke="white" stroke-width="1.5" stroke-linecap="round" stroke-linejoin="round"/> </g> <defs> <clipPath id="clip0_2085_392312"> <rect width="24" height="24" fill="white"/> </clipPath> </defs> </svg>
