<svg width="24" height="24" viewBox="0 0 24 24" fill="none" xmlns="http://www.w3.org/2000/svg"> <g clip-path="url(#clip0_4482_2065)"> <path d="M2.83984 8C4.38984 4.48 7.91982 2 11.9998 2C17.4998 2 21.9998 6.5 21.9998 12C21.9998 17.5 17.4998 22 11.9998 22C6.83982 22 2.5698 18.04 2.0498 13.02" stroke="white" stroke-width="1.5" stroke-linecap="round" stroke-linejoin="round"/> <path d="M6.75977 15.25L7.81976 16.31C8.44976 16.94 9.48974 16.88 10.0497 16.19L10.8298 15.21C11.4298 14.46 12.5697 14.46 13.1697 15.21L13.9498 16.19C14.5098 16.89 15.5497 16.94 16.1797 16.31L17.2397 15.25" stroke="white" stroke-width="1.5" stroke-miterlimit="10" stroke-linecap="round" stroke-linejoin="round"/> <path d="M10 11C11.1046 11 12 10.1046 12 9C12 7.89543 11.1046 7 10 7C8.89543 7 8 7.89543 8 9C8 10.1046 8.89543 11 10 11Z" stroke="white" stroke-width="1.5" stroke-miterlimit="10" stroke-linecap="round" stroke-linejoin="round"/> </g> <defs> <clipPath id="clip0_4482_2065"> <rect width="24" height="24" fill="white"/> </clipPath> </defs> </svg>
