<svg width="24" height="24" viewBox="0 0 24 24" fill="none" xmlns="http://www.w3.org/2000/svg"> <g clip-path="url(#clip0_4482_2973)"> <path d="M22 6V9.5C22 10.18 21.72 10.81 21.27 11.26C21.16 11.38 21.0299 11.48 20.8999 11.57C20.7699 11.65 20.64 11.73 20.5 11.79C20.19 11.92 19.86 12 19.5 12C18.12 12 17 10.88 17 9.5C17 10.88 15.88 12 14.5 12C13.12 12 12 10.88 12 9.5C12 10.88 10.88 12 9.5 12C8.12 12 7 10.88 7 9.5C7 10.88 5.88 12 4.5 12C4.14 12 3.81 11.92 3.5 11.79C3.36 11.73 3.2301 11.65 3.1001 11.57C2.8401 11.39 2.60993 11.16 2.42993 10.9C2.15993 10.5 2 10.02 2 9.5V6C2 3.79 3.79 2 6 2H18C20.2 2 22 3.8 22 6Z" stroke="white" stroke-width="1.5" stroke-linecap="round" stroke-linejoin="round"/> <path d="M3.5 13.26V11.79C3.81 11.92 4.14 12 4.5 12C5.88 12 7 10.88 7 9.5C7 10.88 8.12 12 9.5 12C10.88 12 12 10.88 12 9.5C12 10.88 13.12 12 14.5 12C15.88 12 17 10.88 17 9.5C17 10.88 18.12 12 19.5 12C19.86 12 20.19 11.92 20.5 11.79V18C20.5 20.2 18.7 22 16.5 22H15.6599" stroke="white" stroke-width="1.5" stroke-linecap="round" stroke-linejoin="round"/> <path d="M8.3999 22H7.5C5.3 22 3.5 20.2 3.5 18" stroke="white" stroke-width="1.5" stroke-linecap="round" stroke-linejoin="round"/> <path d="M13.5903 16.8101L10.4102 19.9901" stroke="white" stroke-width="1.5" stroke-linecap="round" stroke-linejoin="round"/> <path d="M10.4102 16.8101L13.5903 19.9901" stroke="white" stroke-width="1.5" stroke-linecap="round" stroke-linejoin="round"/> </g> <defs> <clipPath id="clip0_4482_2973"> <rect width="24" height="24" fill="white"/> </clipPath> </defs> </svg>
