<svg width="24" height="24" viewBox="0 0 24 24" fill="none" xmlns="http://www.w3.org/2000/svg"> <g clip-path="url(#clip0_4482_12336)"> <path d="M16.4502 20.8896H20.8902" stroke="white" stroke-width="1.5" stroke-linecap="round" stroke-linejoin="round"/> <path d="M3.10938 20.8896H7.55937" stroke="white" stroke-width="1.5" stroke-linecap="round" stroke-linejoin="round"/> <path d="M12 15.3594V17.5794" stroke="white" stroke-width="1.5" stroke-linecap="round" stroke-linejoin="round"/> <path d="M10.5303 20.67L11.8603 22L13.8603 20" stroke="white" stroke-width="1.5" stroke-linecap="round" stroke-linejoin="round"/> <path d="M2.87979 8.90956C2.63979 9.52956 2.51979 10.2096 2.56979 10.9096C2.71979 13.3996 4.78979 15.3396 7.27979 15.3296H17.5598C18.9498 15.3296 20.2298 14.5896 20.9298 13.3896C21.6298 12.1896 21.6198 10.6996 20.9298 9.49956C20.2398 8.29956 18.9498 7.55956 17.5598 7.55956C17.5598 4.80956 15.5498 2.46956 12.8298 2.05956C10.1098 1.65956 7.49979 3.30956 6.70979 5.94956" stroke="white" stroke-width="1.5" stroke-linecap="round" stroke-linejoin="round"/> </g> <defs> <clipPath id="clip0_4482_12336"> <rect width="24" height="24" fill="white"/> </clipPath> </defs> </svg>
