<svg width="24" height="24" viewBox="0 0 24 24" fill="none" xmlns="http://www.w3.org/2000/svg"> <g clip-path="url(#clip0_4482_12343)"> <path d="M15.1904 20.2305H20.5504" stroke="white" stroke-width="1.5" stroke-linecap="round" stroke-linejoin="round"/> <path d="M3.38965 20.2305H8.74965" stroke="white" stroke-width="1.5" stroke-linecap="round" stroke-linejoin="round"/> <path d="M11.9697 14.8896V18.6196" stroke="white" stroke-width="1.5" stroke-linecap="round" stroke-linejoin="round"/> <path d="M10.3698 18.6201H13.5898C14.4798 18.6201 15.1998 19.3401 15.1998 20.2301C15.1998 21.1201 14.4798 21.8401 13.5898 21.8401H10.3698C9.47977 21.8401 8.75977 21.1201 8.75977 20.2301C8.75977 19.3401 9.47977 18.6201 10.3698 18.6201Z" stroke="white" stroke-width="1.5" stroke-linecap="round" stroke-linejoin="round"/> <path d="M8.06965 3.93032C8.92965 2.86032 10.2096 2.14032 11.6796 2.01032C14.3796 1.78032 16.8096 3.65032 17.2696 6.33032C19.5396 6.56032 21.2296 8.53032 21.1096 10.8103C20.9896 13.0903 19.1096 14.8703 16.8296 14.8703H6.63965C4.56965 14.8703 2.88965 13.1903 2.88965 11.1203C2.88965 9.05032 4.56965 7.37032 6.63965 7.37032" stroke="white" stroke-width="1.5" stroke-linecap="round" stroke-linejoin="round"/> <path d="M13.3099 8.42969L10.6299 11.1097" stroke="white" stroke-width="1.5" stroke-linecap="round" stroke-linejoin="round"/> <path d="M10.6299 8.42969L13.3099 11.1097" stroke="white" stroke-width="1.5" stroke-linecap="round" stroke-linejoin="round"/> </g> <defs> <clipPath id="clip0_4482_12343"> <rect width="24" height="24" fill="white"/> </clipPath> </defs> </svg>
