<svg width="24" height="24" viewBox="0 0 24 24" fill="none" xmlns="http://www.w3.org/2000/svg"> <path d="M18.0002 10C20.2102 10 22.0002 11.79 22.0002 14C22.0002 16.21 20.2102 18 18.0002 18H17.0002" stroke="white" stroke-width="1.5" stroke-linecap="round" stroke-linejoin="round"/> <path d="M7.00024 18C4.24024 18 2.00024 15.76 2.00024 13C2.00024 10.51 3.85024 8.40003 6.32024 8.07003C7.15024 5.64003 9.43024 4.00003 12.0002 4.00003C13.8702 4.00003 15.5402 4.86003 16.6402 6.20003" stroke="white" stroke-width="1.5" stroke-linecap="round" stroke-linejoin="round"/> <path d="M15.7269 15.64L14.3869 15.95C13.4269 16.17 12.6769 16.92 12.4569 17.88L12.1469 19.22C12.1169 19.36 11.9069 19.36 11.8769 19.22L11.5669 17.88C11.3469 16.92 10.5969 16.17 9.63689 15.95L8.29689 15.64C8.15689 15.61 8.15689 15.4 8.29689 15.37L9.63689 15.06C10.5969 14.84 11.3469 14.09 11.5669 13.13L11.8769 11.79C11.9069 11.65 12.1169 11.65 12.1469 11.79L12.4569 13.13C12.6769 14.09 13.4269 14.84 14.3869 15.06L15.7269 15.37C15.8669 15.4 15.8669 15.61 15.7269 15.64Z" stroke="white" stroke-width="1.5" stroke-miterlimit="10"/> </svg>
