<svg width="24" height="24" viewBox="0 0 24 24" fill="none" xmlns="http://www.w3.org/2000/svg"> <g clip-path="url(#clip0_4482_11329)"> <path d="M11.9505 12.65C13.7288 12.65 15.1705 11.2083 15.1705 9.42996C15.1705 7.6516 13.7288 6.20996 11.9505 6.20996C10.1721 6.20996 8.73047 7.6516 8.73047 9.42996C8.73047 11.2083 10.1721 12.65 11.9505 12.65Z" stroke="white" stroke-width="1.5" stroke-linecap="round" stroke-linejoin="round"/> <path d="M8.89975 10.3999C7.56975 10.7099 6.57975 11.8399 6.43975 13.1999C6.29975 14.5599 7.03975 15.8599 8.28975 16.4399C9.52975 17.0199 10.9997 16.7399 11.9497 15.7499" stroke="white" stroke-width="1.5" stroke-linecap="round" stroke-linejoin="round"/> <path d="M11.21 12.5501C11.1 12.8601 11.05 13.1901 11.04 13.5201C11.04 15.2001 12.33 16.6001 14 16.7301C15.68 16.8601 17.17 15.6801 17.43 14.0201C17.69 12.3601 16.63 10.7801 14.99 10.3901" stroke="white" stroke-width="1.5" stroke-linecap="round" stroke-linejoin="round"/> <path d="M21.9502 12C21.9502 17.52 17.4702 22 11.9502 22C6.4302 22 1.9502 17.52 1.9502 12C1.9502 6.48 6.4302 2 11.9502 2C15.8502 2 19.2302 4.23 20.8802 7.49" stroke="white" stroke-width="1.5" stroke-linecap="round" stroke-linejoin="round"/> </g> <defs> <clipPath id="clip0_4482_11329"> <rect width="24" height="24" fill="white"/> </clipPath> </defs> </svg>
