<svg width="24" height="24" viewBox="0 0 24 24" fill="none" xmlns="http://www.w3.org/2000/svg"> <g clip-path="url(#clip0_4482_8281)"> <path d="M12 11.0002V14.0002" stroke="white" stroke-width="1.5" stroke-linecap="round" stroke-linejoin="round"/> <path d="M12.1301 8.12989C12.1301 8.1996 12.0701 8.25935 12.0001 8.24939C11.9301 8.24939 11.8701 8.18964 11.8701 8.11993C11.8701 8.05023 11.9301 7.99048 12.0001 7.99048C12.0301 7.99048 12.0701 8.00044 12.0901 8.03031C12.1101 8.05023 12.1301 8.09006 12.1301 8.11993" stroke="white" stroke-width="1.5" stroke-linecap="round" stroke-linejoin="round"/> <path d="M2.52007 10.62C1.78007 9.80001 1.83007 8.54001 2.64007 7.79001C5.16007 5.38001 8.51007 4.02001 11.9901 4.01001C15.4801 4.03001 18.8301 5.38001 21.3401 7.79001C22.1501 8.54001 22.2001 9.80001 21.4601 10.62L13.4601 19.35C13.0801 19.76 12.5501 20 11.9901 20C11.4301 20 10.8901 19.77 10.5201 19.35L5.25007 13.6" stroke="white" stroke-width="1.5" stroke-linecap="round" stroke-linejoin="round"/> </g> <defs> <clipPath id="clip0_4482_8281"> <rect width="24" height="24" fill="white"/> </clipPath> </defs> </svg>
