<svg width="24" height="24" viewBox="0 0 24 24" fill="none" xmlns="http://www.w3.org/2000/svg"> <g clip-path="url(#clip0_4482_2439)"> <path d="M2 7C2 4.25 4.25 2 7 2H17C19.75 2 22 4.25 22 7V17C22 19.75 19.75 22 17 22H7C4.25 22 2 19.75 2 17V12" stroke="white" stroke-width="1.5" stroke-miterlimit="10" stroke-linecap="round" stroke-linejoin="round"/> <path d="M8.14 18C9.32 18 10.28 17.04 10.28 15.86C10.28 14.68 9.32 13.72 8.14 13.72C6.96 13.72 6 14.68 6 15.86C6 17.04 6.96 18 8.14 18Z" stroke="white" stroke-width="1.5" stroke-miterlimit="10"/> <path d="M15.8602 10.28C17.0402 10.28 18.0002 9.32 18.0002 8.14C18.0002 6.96 17.0402 6 15.8602 6C14.6802 6 13.7202 6.96 13.7202 8.14C13.7202 9.32 14.6802 10.28 15.8602 10.28Z" stroke="white" stroke-width="1.5" stroke-miterlimit="10"/> <path d="M14.5702 9.42999L9.43018 14.57" stroke="white" stroke-width="1.5" stroke-miterlimit="10"/> </g> <defs> <clipPath id="clip0_4482_2439"> <rect width="24" height="24" fill="white"/> </clipPath> </defs> </svg>
