<svg width="24" height="24" viewBox="0 0 24 24" fill="none" xmlns="http://www.w3.org/2000/svg"> <g clip-path="url(#clip0_2085_390087)"> <path d="M13.2503 5.73047V21.0005C13.2503 21.5505 12.8003 22.0005 12.2503 22.0005H11.7603C11.2103 22.0005 10.7603 21.5505 10.7603 21.0005V5.73047" stroke="white" stroke-width="1.41" stroke-linecap="round" stroke-linejoin="round"/> <path d="M13.25 5.73H10.76C10.07 5.73 9.52002 5.17 9.52002 4.49C9.52002 3.12 10.63 2 12.01 2C13.39 2 14.5 3.11 14.5 4.49C14.5 5.18 13.94 5.73 13.26 5.73H13.25Z" stroke="white" stroke-width="1.41" stroke-linecap="round" stroke-linejoin="round"/> <path d="M18.9003 7.07031L17.2603 7.94031" stroke="white" stroke-width="1.41" stroke-linecap="round" stroke-linejoin="round"/> <path d="M20.0399 10.9902L18.1899 11.1602" stroke="white" stroke-width="1.41" stroke-linecap="round" stroke-linejoin="round"/> <path d="M19.6699 14.9897L17.8799 14.4697" stroke="white" stroke-width="1.41" stroke-linecap="round" stroke-linejoin="round"/> <path d="M17.7301 18.6L16.3201 17.38C17.5001 16.02 18.2301 14.11 18.2301 12C18.2301 8.88004 16.6301 6.16004 14.3701 5.04004" stroke="white" stroke-width="1.41" stroke-linecap="round" stroke-linejoin="round"/> <path d="M5.1001 7.07031L6.7401 7.94031" stroke="white" stroke-width="1.41" stroke-linecap="round" stroke-linejoin="round"/> <path d="M4.33008 14.9897L6.12008 14.4697" stroke="white" stroke-width="1.41" stroke-linecap="round" stroke-linejoin="round"/> <path d="M6.12988 9.5098C6.71988 7.4898 8.00988 5.8498 9.63988 5.0498" stroke="white" stroke-width="1.41" stroke-linecap="round" stroke-linejoin="round"/> <path d="M5.87012 13.2402C6.09012 14.8502 6.75012 16.2902 7.69012 17.3802L6.28012 18.6002" stroke="white" stroke-width="1.41" stroke-linecap="round" stroke-linejoin="round"/> <path d="M10.7603 9.50977H13.2503" stroke="white" stroke-width="1.41" stroke-linecap="round" stroke-linejoin="round"/> <path d="M10.7603 16.9805H13.2503" stroke="white" stroke-width="1.41" stroke-linecap="round" stroke-linejoin="round"/> <path d="M10.7603 13.2402H13.2503" stroke="white" stroke-width="1.41" stroke-linecap="round" stroke-linejoin="round"/> </g> <defs> <clipPath id="clip0_2085_390087"> <rect width="24" height="24" fill="white"/> </clipPath> </defs> </svg>
