<svg width="24" height="24" viewBox="0 0 24 24" fill="none" xmlns="http://www.w3.org/2000/svg"> <g clip-path="url(#clip0_4482_14740)"> <path d="M14.0105 14.4999C13.4205 15.0199 12.6505 15.3299 11.8105 15.3299C9.97047 15.3299 8.48047 13.8399 8.48047 11.9999C8.48047 10.1599 9.97047 8.66992 11.8105 8.66992C12.6505 8.66992 13.4205 8.98992 14.0105 9.49992" stroke="white" stroke-width="1.5" stroke-linecap="round" stroke-linejoin="round"/> <path d="M21.79 9.93C21.93 10.6 22 11.29 22 12C22 17.52 17.52 22 12 22C6.48 22 2 17.52 2 12C2 6.48 6.48 2 12 2C14.76 2 17.25 3.11 19.06 4.92" stroke="white" stroke-width="1.5" stroke-linecap="round" stroke-linejoin="round"/> </g> <defs> <clipPath id="clip0_4482_14740"> <rect width="24" height="24" fill="white"/> </clipPath> </defs> </svg>
