<svg width="24" height="24" viewBox="0 0 24 24" fill="none" xmlns="http://www.w3.org/2000/svg"> <g clip-path="url(#clip0_4482_7161)"> <path d="M3.08008 11.1203V6.73031C3.08008 5.91031 3.70008 4.98031 4.47008 4.67031L10.0401 2.39031C11.2901 1.88031 12.7001 1.88031 13.9501 2.39031L19.5201 4.67031C20.2801 4.98031 20.9101 5.91031 20.9101 6.73031L20.9001 11.1203C20.9001 16.0103 17.3501 20.5903 12.5001 21.9303C12.1701 22.0203 11.8101 22.0203 11.4801 21.9303C8.48008 21.1003 5.99008 19.0403 4.51008 16.4303" stroke="white" stroke-width="1.5" stroke-linecap="round" stroke-linejoin="round"/> <path d="M9 8.25H13.38C14.35 8.25 15.13 9.13 15.13 10C15.13 10.97 14.35 11.75 13.38 11.75H9V8.25Z" stroke="white" stroke-width="1.5" stroke-miterlimit="10" stroke-linecap="round" stroke-linejoin="round"/> <path d="M9 11.75H14C15.1 11.75 16 12.53 16 13.5C16 14.47 15.1 15.25 14 15.25H9V11.75Z" stroke="white" stroke-width="1.5" stroke-miterlimit="10" stroke-linecap="round" stroke-linejoin="round"/> <path d="M11.7998 15.25V17" stroke="white" stroke-width="1.5" stroke-miterlimit="10" stroke-linecap="round" stroke-linejoin="round"/> <path d="M11.7998 6.5V8.25" stroke="white" stroke-width="1.5" stroke-miterlimit="10" stroke-linecap="round" stroke-linejoin="round"/> </g> <defs> <clipPath id="clip0_4482_7161"> <rect width="24" height="24" fill="white"/> </clipPath> </defs> </svg>
