<svg width="24" height="24" viewBox="0 0 24 24" fill="none" xmlns="http://www.w3.org/2000/svg"> <g clip-path="url(#clip0_2085_392186)"> <path d="M20.6499 6.97977H3.1399C2.4499 6.97977 1.8999 6.41977 1.8999 5.73977V3.24977C1.8999 2.55977 2.4599 2.00977 3.1399 2.00977H20.6499C21.3399 2.00977 21.8999 2.56977 21.8999 3.24977V5.73977C21.8999 6.42977 21.3399 6.97977 20.6499 6.97977Z" stroke="white" stroke-width="1.41" stroke-linecap="round" stroke-linejoin="round"/> <path d="M5.00025 4.49012C5.00025 4.83012 4.72025 5.11012 4.38025 5.11012C4.04025 5.11012 3.76025 4.83012 3.76025 4.49012C3.76025 4.15012 4.04025 3.87012 4.38025 3.87012C4.72025 3.87012 5.00025 4.15012 5.00025 4.49012Z" fill="white"/> <path d="M7.49 4.49012C7.49 4.83012 7.21 5.11012 6.87 5.11012C6.53 5.11012 6.25 4.83012 6.25 4.49012C6.25 4.15012 6.53 3.87012 6.87 3.87012C7.21 3.87012 7.49 4.15012 7.49 4.49012Z" fill="white"/> <path d="M9.98023 4.49012C9.98023 4.83012 9.70023 5.11012 9.36023 5.11012C9.02023 5.11012 8.74023 4.83012 8.74023 4.49012C8.74023 4.15012 9.02023 3.87012 9.36023 3.87012C9.70023 3.87012 9.98023 4.15012 9.98023 4.49012Z" fill="white"/> <path d="M14.4199 4.49023H19.3999" stroke="white" stroke-width="1.41" stroke-linecap="round" stroke-linejoin="round"/> <path d="M20.6499 14.4895H3.1399C2.4499 14.4895 1.8999 13.9295 1.8999 13.2495V10.7595C1.8999 10.0695 2.4599 9.51953 3.1399 9.51953H20.6499C21.3399 9.51953 21.8999 10.0795 21.8999 10.7595V13.2495C21.8999 13.9395 21.3399 14.4895 20.6499 14.4895Z" stroke="white" stroke-width="1.41" stroke-linecap="round" stroke-linejoin="round"/> <path d="M5.00025 11.9999C5.00025 12.3399 4.72025 12.6199 4.38025 12.6199C4.04025 12.6199 3.76025 12.3399 3.76025 11.9999C3.76025 11.6599 4.04025 11.3799 4.38025 11.3799C4.72025 11.3799 5.00025 11.6599 5.00025 11.9999Z" fill="white"/> <path d="M7.49 11.9999C7.49 12.3399 7.21 12.6199 6.87 12.6199C6.53 12.6199 6.25 12.3399 6.25 11.9999C6.25 11.6599 6.53 11.3799 6.87 11.3799C7.21 11.3799 7.49 11.6599 7.49 11.9999Z" fill="white"/> <path d="M9.98023 11.9999C9.98023 12.3399 9.70023 12.6199 9.36023 12.6199C9.02023 12.6199 8.74023 12.3399 8.74023 11.9999C8.74023 11.6599 9.02023 11.3799 9.36023 11.3799C9.70023 11.3799 9.98023 11.6599 9.98023 11.9999Z" fill="white"/> <path d="M14.4199 12H19.3999" stroke="white" stroke-width="1.41" stroke-linecap="round" stroke-linejoin="round"/> <path d="M13.9801 21.9995H20.6501C21.3301 21.9995 21.8901 21.4395 21.8901 20.7595V18.2695C21.8901 17.5795 21.3301 17.0195 20.6501 17.0195H3.14014C2.45014 17.0195 1.89014 17.5795 1.89014 18.2695V20.7595C1.89014 21.4395 2.45014 21.9995 3.14014 21.9995H9.98014" stroke="white" stroke-width="1.41" stroke-linecap="round" stroke-linejoin="round"/> <path d="M5.00025 19.5096C5.00025 19.8496 4.72025 20.1296 4.38025 20.1296C4.04025 20.1296 3.76025 19.8496 3.76025 19.5096C3.76025 19.1696 4.04025 18.8896 4.38025 18.8896C4.72025 18.8896 5.00025 19.1696 5.00025 19.5096Z" fill="white"/> <path d="M7.49 19.5096C7.49 19.8496 7.21 20.1296 6.87 20.1296C6.53 20.1296 6.25 19.8496 6.25 19.5096C6.25 19.1696 6.53 18.8896 6.87 18.8896C7.21 18.8896 7.49 19.1696 7.49 19.5096Z" fill="white"/> <path d="M9.98023 19.5096C9.98023 19.8496 9.70023 20.1296 9.36023 20.1296C9.02023 20.1296 8.74023 19.8496 8.74023 19.5096C8.74023 19.1696 9.02023 18.8896 9.36023 18.8896C9.70023 18.8896 9.98023 19.1696 9.98023 19.5096Z" fill="white"/> <path d="M14.4199 19.5098H19.3999" stroke="white" stroke-width="1.41" stroke-linecap="round" stroke-linejoin="round"/> </g> <defs> <clipPath id="clip0_2085_392186"> <rect width="24" height="24" fill="white"/> </clipPath> </defs> </svg>
