<svg width="24" height="24" viewBox="0 0 24 24" fill="none" xmlns="http://www.w3.org/2000/svg"> <g clip-path="url(#clip0_2085_392191)"> <path d="M17.9999 22.0003H19.3599V15.5303C19.3599 14.9803 18.9099 14.5303 18.3599 14.5303H5.41992C4.86992 14.5303 4.41992 14.9803 4.41992 15.5303V22.0003H12.6699" stroke="white" stroke-width="1.41" stroke-linecap="round" stroke-linejoin="round"/> <path d="M3.13989 22H4.41989H12.6699" stroke="white" stroke-width="1.41" stroke-linecap="round" stroke-linejoin="round"/> <path d="M18 22H19.36H20.65" stroke="white" stroke-width="1.41" stroke-linecap="round" stroke-linejoin="round"/> <path d="M9.3999 4.49023V7.06023C9.3999 8.43023 10.5099 9.55023 11.8899 9.55023C13.2699 9.55023 14.3799 8.44023 14.3799 7.06023" stroke="white" stroke-width="1.41" stroke-linecap="round" stroke-linejoin="round"/> <path d="M10.6499 9.21973V10.7997H8.15992C6.78992 10.7997 5.66992 11.9097 5.66992 13.2897V14.5297" stroke="white" stroke-width="1.41" stroke-linecap="round" stroke-linejoin="round"/> <path d="M18.1099 14.5297V13.2897C18.1099 11.9197 16.9999 10.7997 15.6199 10.7997H13.1299V9.21973" stroke="white" stroke-width="1.41" stroke-linecap="round" stroke-linejoin="round"/> <path d="M14.3799 7.06V3.24C14.3799 2.55 13.8199 2 13.1399 2H8.15991" stroke="white" stroke-width="1.41" stroke-linecap="round" stroke-linejoin="round"/> <path d="M14.3799 4.49023H9.3999" stroke="white" stroke-width="1.41" stroke-linecap="round" stroke-linejoin="round"/> <path d="M8.15991 2V3.24C8.15991 3.93 8.71991 4.48 9.39991 4.48" stroke="white" stroke-width="1.41" stroke-linecap="round" stroke-linejoin="round"/> <path d="M13.1399 10.7998C13.1399 11.4898 12.5799 12.0398 11.8999 12.0398C11.2199 12.0398 10.6599 11.4798 10.6599 10.7998" stroke="white" stroke-width="1.41" stroke-linecap="round" stroke-linejoin="round"/> <path d="M9.39991 17.0195L8.15991 18.2595" stroke="white" stroke-width="1.41" stroke-linecap="round" stroke-linejoin="round"/> <path d="M8.15991 18.2695L9.39991 19.5095" stroke="white" stroke-width="1.41" stroke-linecap="round" stroke-linejoin="round"/> <path d="M14.3799 17.0195L15.6199 18.2595" stroke="white" stroke-width="1.41" stroke-linecap="round" stroke-linejoin="round"/> <path d="M15.6299 18.2695L14.3899 19.5095" stroke="white" stroke-width="1.41" stroke-linecap="round" stroke-linejoin="round"/> <path d="M12.24 16.29L11.51 20.17" stroke="white" stroke-width="1.41" stroke-linecap="round" stroke-linejoin="round"/> </g> <defs> <clipPath id="clip0_2085_392191"> <rect width="24" height="24" fill="white"/> </clipPath> </defs> </svg>
