<svg width="24" height="24" viewBox="0 0 24 24" fill="none" xmlns="http://www.w3.org/2000/svg"> <g clip-path="url(#clip0_4482_15861)"> <path d="M11.0402 8.49043L8.9402 11.2904C8.6202 11.7204 8.6202 12.3004 8.9402 12.7304L11.0402 15.5304C11.5202 16.1704 12.4802 16.1704 12.9602 15.5304L15.0602 12.7304C15.3802 12.3004 15.3802 11.7204 15.0602 11.2904L12.9602 8.49043C12.4802 7.84043 11.5202 7.84043 11.0402 8.49043Z" stroke="white" stroke-width="1.5" stroke-linecap="round" stroke-linejoin="round"/> <path d="M2 12C2 17.52 6.48 22 12 22C17.52 22 22 17.52 22 12C22 6.48 17.52 2 12 2C8.3 2 5.06 4.01 3.34 7" stroke="white" stroke-width="1.5" stroke-linecap="round" stroke-linejoin="round"/> </g> <defs> <clipPath id="clip0_4482_15861"> <rect width="24" height="24" fill="white"/> </clipPath> </defs> </svg>
