<svg width="24" height="24" viewBox="0 0 24 24" fill="none" xmlns="http://www.w3.org/2000/svg"> <g clip-path="url(#clip0_2085_391953)"> <path d="M12 19.7101V18.3301" stroke="white" stroke-width="1.5" stroke-linecap="round" stroke-linejoin="round"/> <path d="M9.65004 4.39C8.85004 2.96 7.33004 2 5.59004 2C4.14004 2 3.05004 2.6 2.37004 3.13C1.87004 3.52 1.88004 4.28 2.38004 4.67C3.07004 5.2 4.18004 5.81 5.59004 5.81H6.35004C6.45004 6.7 6.51004 8.13 6.55004 9.08C6.56004 9.39 6.42004 9.67 6.19004 9.87C4.40004 11.41 3.27004 13.56 3.27004 15.69C3.27004 19.64 6.55004 22 9.71004 22C10.97 22 12 20.98 12 19.71C12 20.98 13.02 22 14.29 22C17.44 22 20.73 19.64 20.73 15.69C20.73 13.56 19.6 11.41 17.81 9.87C17.58 9.67 17.44 9.39 17.45 9.08C17.48 8.13 17.55 6.7 17.65 5.81H18.41C19.82 5.81 20.93 5.2 21.62 4.67C22.12 4.28 22.13 3.52 21.62 3.13C20.95 2.6 19.86 2 18.41 2C16.67 2 15.15 2.96 14.35 4.39" stroke="white" stroke-width="1.5" stroke-linecap="round" stroke-linejoin="round"/> <path d="M12.0002 18C11.9102 18.03 10.3602 17.31 9.91017 16.13C9.79017 15.81 9.95017 15.04 11.9602 15.04C13.9702 15.04 14.2102 15.82 14.0902 16.13C13.6402 17.31 12.0902 17.97 12.0002 18Z" stroke="white" stroke-width="1.5" stroke-miterlimit="10"/> <path d="M15.6 11.9097C15.65 12.5597 15.11 13.0997 14.46 13.0497C13.95 13.0097 13.53 12.5897 13.49 12.0797C13.44 11.4297 13.98 10.8897 14.63 10.9397C15.14 10.9797 15.56 11.3997 15.6 11.9097Z" stroke="white" stroke-width="1.5" stroke-miterlimit="10"/> <path d="M8.36015 11.9097C8.31015 12.5597 8.85015 13.0997 9.50015 13.0497C10.0101 13.0097 10.4301 12.5897 10.4701 12.0797C10.5201 11.4297 9.98015 10.8897 9.33015 10.9397C8.82015 10.9797 8.40015 11.3997 8.36015 11.9097Z" stroke="white" stroke-width="1.5" stroke-miterlimit="10"/> </g> <defs> <clipPath id="clip0_2085_391953"> <rect width="24" height="24" fill="white"/> </clipPath> </defs> </svg>
