<svg width="24" height="24" viewBox="0 0 24 24" fill="none" xmlns="http://www.w3.org/2000/svg"> <g clip-path="url(#clip0_4482_13431)"> <path d="M2.58984 8.61C3.97984 4.75 7.66984 2 11.9998 2C17.5198 2 21.9998 6.48 21.9998 12" stroke="white" stroke-width="1.5" stroke-linecap="round" stroke-linejoin="round"/> <path d="M8.25 21.27C4.59 19.79 2 16.19 2 12" stroke="white" stroke-width="1.5" stroke-linecap="round" stroke-linejoin="round"/> <path d="M20.8701 16L16.3501 20.52L14.0901 18.26L11.8301 20.52" stroke="white" stroke-width="1.5" stroke-linecap="round" stroke-linejoin="round"/> <path d="M17.71 16H20.87V19.16" stroke="white" stroke-width="1.5" stroke-linecap="round" stroke-linejoin="round"/> <path d="M12 8V7" stroke="white" stroke-width="1.5" stroke-linecap="round" stroke-linejoin="round"/> <path d="M12 14V15" stroke="white" stroke-width="1.5" stroke-linecap="round" stroke-linejoin="round"/> <path d="M10.2702 13.2798C10.5302 13.7098 10.9702 13.9998 11.5002 13.9998H12.5902C13.3602 13.9998 13.9902 13.3698 13.9902 12.5998C13.9902 11.9598 13.5502 11.3898 12.9202 11.2398L11.0502 10.7698C10.4302 10.6098 9.99023 10.0498 9.99023 9.40977C9.99023 8.63977 10.6202 8.00977 11.3902 8.00977H12.4802C13.0102 8.00977 13.4602 8.29977 13.7102 8.71977" stroke="white" stroke-width="1.5" stroke-linecap="round" stroke-linejoin="round"/> </g> <defs> <clipPath id="clip0_4482_13431"> <rect width="24" height="24" fill="white"/> </clipPath> </defs> </svg>
