<svg width="24" height="24" viewBox="0 0 24 24" fill="none" xmlns="http://www.w3.org/2000/svg"> <g clip-path="url(#clip0_2085_390093)"> <path d="M2 4.67C2 3.2 3.19 2 4.67 2C5.38 2 6.06 2.28 6.56 2.78C7.06 3.28 7.34 3.96 7.34 4.67V7.52C7.34 7.52 4.56 6.59 3.02 6.08C2.42 5.88 2.01 5.31 2.01 4.68L2 4.67Z" stroke="white" stroke-width="1.41" stroke-linecap="round" stroke-linejoin="round"/> <path d="M22.0002 4.67C22.0002 3.2 20.8102 2 19.3302 2C18.6202 2 17.9402 2.28 17.4402 2.78C16.9402 3.28 16.6602 3.96 16.6602 4.67V7.52C16.6602 7.52 19.4402 6.59 20.9802 6.08C21.5802 5.88 21.9902 5.31 21.9902 4.68L22.0002 4.67Z" stroke="white" stroke-width="1.41" stroke-linecap="round" stroke-linejoin="round"/> <path d="M6.66992 7.29004V12C6.66992 14.95 9.05992 17.33 11.9999 17.33C14.9399 17.33 17.3299 14.94 17.3299 12V7.29004" stroke="white" stroke-width="1.41" stroke-linecap="round" stroke-linejoin="round"/> <path d="M2 4.66992V11.9999C2 14.6499 3.05 17.1999 4.93 19.0699C6.27 20.4199 7.97 21.3399 9.8 21.7499" stroke="white" stroke-width="1.41" stroke-linecap="round" stroke-linejoin="round"/> <path d="M22.0002 4.66992V11.9999C22.0002 14.6499 20.9502 17.1999 19.0702 19.0699C17.7302 20.4199 16.0302 21.3399 14.2002 21.7499" stroke="white" stroke-width="1.41" stroke-linecap="round" stroke-linejoin="round"/> </g> <defs> <clipPath id="clip0_2085_390093"> <rect width="24" height="24" fill="white"/> </clipPath> </defs> </svg>
