<svg width="24" height="24" viewBox="0 0 24 24" fill="none" xmlns="http://www.w3.org/2000/svg"> <g clip-path="url(#clip0_4482_12357)"> <path d="M4.21973 19.0596C4.21973 20.6796 4.99973 21.9996 12.0397 21.9996" stroke="white" stroke-width="1.5" stroke-linecap="round" stroke-linejoin="round"/> <path d="M11.9597 22C18.9997 22 19.7797 20.68 19.7797 19.06V4.94C19.7797 3.32 16.2997 2 11.9997 2C7.69973 2 4.21973 3.32 4.21973 4.94V14.78" stroke="white" stroke-width="1.5" stroke-linecap="round" stroke-linejoin="round"/> <path d="M12 17.0003L14.22 14.7803" stroke="white" stroke-width="1.5" stroke-linecap="round" stroke-linejoin="round"/> <path d="M9.78027 14.7803L12.0003 17.0003" stroke="white" stroke-width="1.5" stroke-linecap="round" stroke-linejoin="round"/> <path d="M12 12V17" stroke="white" stroke-width="1.5" stroke-linecap="round" stroke-linejoin="round"/> <path d="M11.9997 7.88043C7.69973 7.88043 4.21973 6.56043 4.21973 4.94043" stroke="white" stroke-width="1.5" stroke-linecap="round" stroke-linejoin="round"/> <path d="M19.78 4.94043C19.78 6.56043 16.3 7.88043 12 7.88043" stroke="white" stroke-width="1.5" stroke-linecap="round" stroke-linejoin="round"/> </g> <defs> <clipPath id="clip0_4482_12357"> <rect width="24" height="24" fill="white"/> </clipPath> </defs> </svg>
