<svg width="24" height="24" viewBox="0 0 24 24" fill="none" xmlns="http://www.w3.org/2000/svg"> <g clip-path="url(#clip0_4482_9090)"> <path d="M17.7207 8.6598H20.5807C20.8307 8.6598 21.0807 8.5598 21.2507 8.3798L21.7307 7.8998C21.9107 7.7198 22.0107 7.4798 22.0107 7.2298C22.0107 6.9798 21.9107 6.7298 21.7307 6.5598L21.2507 6.0798C21.0707 5.8998 20.8307 5.7998 20.5807 5.7998H17.7207" stroke="white" stroke-width="1.5" stroke-linecap="round" stroke-linejoin="round"/> <path d="M8.17023 3.41991H15.3602C15.6602 3.41991 15.9502 3.48991 16.2102 3.61991L16.6602 3.83991C17.3102 4.15991 17.7102 4.81991 17.7102 5.54991V8.90991C17.7102 9.62991 17.3002 10.2899 16.6602 10.6199L16.2102 10.8399C15.9502 10.9699 15.6502 11.0399 15.3602 11.0399H3.90023C2.85023 11.0399 1.99023 10.1899 1.99023 9.12991V5.31991C1.99023 4.26991 2.84023 3.40991 3.90023 3.40991" stroke="white" stroke-width="1.5" stroke-linecap="round" stroke-linejoin="round"/> <path d="M8.66059 7.22998H4.85059" stroke="white" stroke-width="1.5" stroke-linecap="round" stroke-linejoin="round"/> <path d="M2.91016 10.77L3.74016 17.42C3.83016 18.14 4.44016 18.67 5.16016 18.67H6.09016C6.50016 18.67 6.89016 18.49 7.16016 18.19C7.43016 17.88 7.56016 17.47 7.51016 17.07L6.76016 11.05" stroke="white" stroke-width="1.5" stroke-linecap="round" stroke-linejoin="round"/> <path d="M11.5205 3.41992V19.4899C11.5205 19.7799 11.6305 20.0599 11.8405 20.2599C12.0405 20.4599 12.3205 20.5799 12.6105 20.5799H14.2405C14.5305 20.5799 14.8105 20.4699 15.0105 20.2599C15.2105 20.0599 15.3305 19.7799 15.3305 19.4899V11.0499" stroke="white" stroke-width="1.5" stroke-linecap="round" stroke-linejoin="round"/> </g> <defs> <clipPath id="clip0_4482_9090"> <rect width="24" height="24" fill="white"/> </clipPath> </defs> </svg>
