<svg width="24" height="24" viewBox="0 0 24 24" fill="none" xmlns="http://www.w3.org/2000/svg"> <g clip-path="url(#clip0_4482_9087)"> <path d="M14.63 2.53003C15.79 2.53003 16.74 3.47003 16.74 4.64003V8.85003C16.74 10.01 15.8 10.96 14.63 10.96H6.21C3.88 10.96 2 9.07003 2 6.75003C2 4.42003 3.89 2.54003 6.21 2.54003H9.89" stroke="white" stroke-width="1.5" stroke-linecap="round" stroke-linejoin="round"/> <path d="M16.6699 4.11011H18.8399C19.4199 4.11011 19.8899 4.58011 19.8899 5.16011V7.27011C19.8899 7.85011 19.4199 8.32011 18.8399 8.32011H16.7299" stroke="white" stroke-width="1.5" stroke-linecap="round" stroke-linejoin="round"/> <path d="M19.8896 6.20996H21.9996" stroke="white" stroke-width="1.5" stroke-linecap="round" stroke-linejoin="round"/> <path d="M6.20996 6.73999H8.93996" stroke="white" stroke-width="1.5" stroke-linecap="round" stroke-linejoin="round"/> <path d="M10.9498 10.95L8.83984 17.27" stroke="white" stroke-width="1.5" stroke-linecap="round" stroke-linejoin="round"/> <path d="M14.6296 10.95V12.45C14.6296 13.36 13.8896 14.11 12.9696 14.11H9.88965" stroke="white" stroke-width="1.5" stroke-linecap="round" stroke-linejoin="round"/> <path d="M3.58008 17.2599L5.70008 10.9099" stroke="white" stroke-width="1.5" stroke-linecap="round" stroke-linejoin="round"/> <path d="M9.37 17.26H3.05C2.4701 17.26 2 17.7301 2 18.31V20.42C2 20.9999 2.4701 21.47 3.05 21.47H9.37C9.9499 21.47 10.42 20.9999 10.42 20.42V18.31C10.42 17.7301 9.9499 17.26 9.37 17.26Z" stroke="white" stroke-width="1.5" stroke-linecap="round" stroke-linejoin="round"/> </g> <defs> <clipPath id="clip0_4482_9087"> <rect width="24" height="24" fill="white"/> </clipPath> </defs> </svg>
