<svg width="24" height="24" viewBox="0 0 24 24" fill="none" xmlns="http://www.w3.org/2000/svg"> <g clip-path="url(#clip0_4482_7329)"> <path d="M16.4004 5.15015C16.1004 4.18015 14.9904 3.68015 14.0404 4.17015C13.4404 4.48015 13.0704 5.16015 13.1604 5.84015C13.2704 6.70015 13.9704 7.28015 14.7604 7.31015C15.1004 7.32015 15.4004 7.54016 15.5004 7.86016L15.6304 8.29015L16.8204 12.1402" stroke="white" stroke-width="1.5" stroke-miterlimit="10" stroke-linecap="round" stroke-linejoin="round"/> <path d="M18.6102 11.5806L15.2502 12.6206C14.5902 12.8306 14.3902 13.2506 14.3402 13.7106L14.0302 16.2706C13.9802 16.7306 14.2602 17.3106 14.6602 17.5406L18.2502 19.6606C18.9302 20.0606 19.7602 19.8006 20.0902 19.0906L21.8602 15.3106C22.0602 14.8806 21.9702 14.2506 21.6602 13.9006L19.9602 11.9606C19.6702 11.6206 19.2702 11.3806 18.6102 11.5806Z" stroke="white" stroke-width="1.5" stroke-linecap="round" stroke-linejoin="round"/> <path d="M14 9.84039L17.85 8.65039" stroke="white" stroke-width="1.5" stroke-miterlimit="10" stroke-linecap="round" stroke-linejoin="round"/> <path d="M7.66025 5.16036C7.96025 4.18036 9.08025 3.67036 10.0403 4.17036C10.6503 4.48036 11.0202 5.18036 10.9302 5.86036C10.8202 6.73036 10.1103 7.32036 9.32025 7.34036C8.98025 7.35036 8.68023 7.57035 8.58023 7.90035L8.44025 8.34036L7.24023 12.2304" stroke="white" stroke-width="1.5" stroke-miterlimit="10" stroke-linecap="round" stroke-linejoin="round"/> <path d="M2.14021 15.4406C1.94021 15.0106 2.03019 14.3706 2.34019 14.0206L4.05018 12.0606C4.36018 11.7106 4.76019 11.4606 5.43019 11.6706L8.8202 12.7206C9.4902 12.9306 9.68019 13.3506 9.74019 13.8206L10.0502 16.4106C10.1002 16.8806 9.8202 17.4606 9.4102 17.7006L5.78019 19.8406C5.0902 20.2406 4.26021 19.9806 3.92021 19.2706" stroke="white" stroke-width="1.5" stroke-linecap="round" stroke-linejoin="round"/> <path d="M10.0804 9.90019L6.19043 8.7002" stroke="white" stroke-width="1.5" stroke-miterlimit="10" stroke-linecap="round" stroke-linejoin="round"/> </g> <defs> <clipPath id="clip0_4482_7329"> <rect width="24" height="24" fill="white"/> </clipPath> </defs> </svg>
