<svg width="24" height="24" viewBox="0 0 24 24" fill="none" xmlns="http://www.w3.org/2000/svg"> <g clip-path="url(#clip0_4482_10907)"> <path d="M17.1404 14.5C16.3004 14.5 15.6104 13.82 15.6104 12.97V11.03C15.6104 10.19 16.2904 9.5 17.1404 9.5C17.9804 9.5 18.6704 10.18 18.6704 11.03V12.97C18.6704 13.81 17.9904 14.5 17.1404 14.5Z" stroke="white" stroke-width="1.5" stroke-linecap="round" stroke-linejoin="round"/> <path d="M5.33008 12H7.63008" stroke="white" stroke-width="1.5" stroke-linecap="round" stroke-linejoin="round"/> <path d="M13.25 9.5C11.87 9.5 10.75 10.62 10.75 12C10.75 13.38 11.87 14.5 13.25 14.5" stroke="white" stroke-width="1.5" stroke-linecap="round" stroke-linejoin="round"/> <path d="M8.11008 9.5H5.89008C5.58008 9.5 5.33008 9.75 5.33008 10.06V13.95C5.33008 14.26 5.58008 14.51 5.89008 14.51H8.11008" stroke="white" stroke-width="1.5" stroke-linecap="round" stroke-linejoin="round"/> <path d="M2 7C2 4.24 4.24 2 7 2H17C19.76 2 22 4.24 22 7V17C22 19.76 19.76 22 17 22H7C4.24 22 2 19.76 2 17V12" stroke="white" stroke-width="1.5" stroke-linecap="round"/> </g> <defs> <clipPath id="clip0_4482_10907"> <rect width="24" height="24" fill="white"/> </clipPath> </defs> </svg>
