<svg width="24" height="24" viewBox="0 0 24 24" fill="none" xmlns="http://www.w3.org/2000/svg"> <g clip-path="url(#clip0_4482_8300)"> <path d="M10.0995 9.07L12.3995 6.77C12.6095 6.56 12.8895 6.44 13.1895 6.44C13.4895 6.44 13.7695 6.56 13.9795 6.77L15.0095 7.8C15.4395 8.23 15.4395 8.94 15.0095 9.37L12.7095 11.67C12.4995 11.88 12.2195 12 11.9195 12H10.0495C9.97953 12 9.90953 11.97 9.84953 11.92C9.78953 11.87 9.76953 11.8 9.76953 11.72V9.85C9.76953 9.56 9.88953 9.27 10.0995 9.06V9.07Z" stroke="white" stroke-width="1.5" stroke-linecap="round" stroke-linejoin="round"/> <path d="M2 12V14.78C2 17.54 4.24 19.78 7 19.78H9.32L11.22 21.68C11.65 22.11 12.36 22.11 12.79 21.68L14.69 19.78H17.01C19.77 19.78 22.01 17.54 22.01 14.78V7C22.01 4.24 19.77 2 17.01 2H7C4.24 2 2 4.24 2 7" stroke="white" stroke-width="1.5" stroke-linecap="round" stroke-linejoin="round"/> <path d="M7.55957 15.33H16.4496" stroke="white" stroke-width="1.5" stroke-linecap="round" stroke-linejoin="round"/> </g> <defs> <clipPath id="clip0_4482_8300"> <rect width="24" height="24" fill="white"/> </clipPath> </defs> </svg>
