<svg width="24" height="24" viewBox="0 0 24 24" fill="none" xmlns="http://www.w3.org/2000/svg"> <g clip-path="url(#clip0_4482_10573)"> <path d="M18.0999 21.1698L21.6899 17.5798C22.0999 17.1698 22.0999 16.4998 21.6899 16.0898L20.0199 14.4198C19.6099 14.0098 18.9399 14.0098 18.5299 14.4198L14.9399 18.0098C14.7399 18.2098 14.6299 18.4798 14.6299 18.7498V20.9498C14.6299 21.2398 14.8699 21.4798 15.1599 21.4798H17.3599C17.6399 21.4798 17.9099 21.3698 18.0999 21.1698Z" stroke="white" stroke-width="1.5" stroke-linecap="round" stroke-linejoin="round"/> <path d="M2 10.5801V17.5601C2 20.0101 3.99 22.0001 6.44 22.0001H10.98" stroke="white" stroke-width="1.5" stroke-linecap="round" stroke-linejoin="round"/> <path d="M21.9999 10.5799C21.9999 9.22988 21.3899 7.94988 20.3299 7.10988L15.4699 3.21988C13.4399 1.59988 10.5599 1.59988 8.52992 3.21988L3.66992 7.10988" stroke="white" stroke-width="1.5" stroke-linecap="round" stroke-linejoin="round"/> </g> <defs> <clipPath id="clip0_4482_10573"> <rect width="24" height="24" fill="white"/> </clipPath> </defs> </svg>
