<svg width="24" height="24" viewBox="0 0 24 24" fill="none" xmlns="http://www.w3.org/2000/svg"> <g clip-path="url(#clip0_2085_392062)"> <path d="M14.82 21.36C15.77 20.92 16.63 20.23 17.31 19.3C19.6 16.14 19.72 12.16 18.67 8.81C17.47 4.98 14.77 2 12 2C10.69 2 9.38997 2.67 8.25997 3.79C6.80997 5.21 5.63997 7.36 5.07997 9.75C4.31997 12.9 4.61997 16.44 6.68997 19.3C7.36997 20.24 8.24997 20.93 9.20997 21.38" stroke="white" stroke-width="1.5" stroke-linecap="round" stroke-linejoin="round"/> <path d="M16.0102 16.0197C16.0102 17.0097 15.2002 17.8197 14.2102 17.8197C13.2202 17.8197 12.4102 17.0097 12.4102 16.0197C12.4102 15.0297 13.2202 14.2197 14.2102 14.2197C15.2002 14.2197 16.0102 15.0297 16.0102 16.0197Z" stroke="white" stroke-width="1.5" stroke-linecap="round" stroke-linejoin="round"/> <path d="M18.67 8.79957C18.35 9.96957 17.28 10.8296 16.01 10.8296C14.49 10.8296 13.25 9.59957 13.25 8.06957C13.25 6.53957 14.48 5.30957 16.01 5.30957C16.39 5.30957 16.75 5.38957 17.08 5.52957" stroke="white" stroke-width="1.5" stroke-linecap="round" stroke-linejoin="round"/> <path d="M8.25982 3.79004C9.71982 4.20004 10.7998 5.54004 10.7998 7.13004C10.7998 9.04004 9.24982 10.6 7.32982 10.6C6.46982 10.6 5.67982 10.28 5.06982 9.76004" stroke="white" stroke-width="1.5" stroke-linecap="round" stroke-linejoin="round"/> <path d="M5.0498 15.1503C5.5098 14.7903 6.0798 14.5703 6.7098 14.5703C8.1898 14.5703 9.3898 15.7703 9.3898 17.2503C9.3898 18.5403 8.4698 19.6203 7.2498 19.8703" stroke="white" stroke-width="1.5" stroke-linecap="round" stroke-linejoin="round"/> </g> <defs> <clipPath id="clip0_2085_392062"> <rect width="24" height="24" fill="white"/> </clipPath> </defs> </svg>
