<svg width="24" height="24" viewBox="0 0 24 24" fill="none" xmlns="http://www.w3.org/2000/svg"> <g clip-path="url(#clip0_2085_385722)"> <path d="M20.3001 2.84961L9.23005 13.9196M3.70005 2.84961L14.7701 13.9196M4.16005 17.1496L2.78005 18.5296C2.27005 19.0396 2.27005 19.8696 2.78005 20.3796C3.29005 20.8896 4.12005 20.8896 4.63005 20.3796L6.01005 18.9996M19.8401 17.1496L21.2201 18.5296C21.7301 19.0396 21.7301 19.8696 21.2201 20.3796C20.7101 20.8896 19.8801 20.8896 19.3701 20.3796L17.9901 18.9996M5.54005 12.9996C8.09005 12.9996 10.1501 15.0696 10.1501 17.6096C10.1501 18.9796 9.56005 20.1996 8.61005 21.0496C8.44005 21.1996 8.18005 21.1796 8.02005 21.0196L2.13005 15.1296C1.97005 14.9696 1.95005 14.7096 2.10005 14.5396M18.4601 12.9996C15.9101 12.9996 13.8501 15.0696 13.8501 17.6096C13.8501 18.9796 14.4401 20.1996 15.3901 21.0496C15.5601 21.1996 15.8201 21.1796 15.9801 21.0196L21.8701 15.1296C22.0301 14.9696 22.0501 14.7096 21.9001 14.5396C21.0501 13.5996 19.8301 12.9996 18.4601 12.9996Z" stroke="white" stroke-width="1.5" stroke-linecap="round" stroke-linejoin="round"/> </g> <defs> <clipPath id="clip0_2085_385722"> <rect width="24" height="24" fill="white"/> </clipPath> </defs> </svg>
