<svg width="24" height="24" viewBox="0 0 24 24" fill="none" xmlns="http://www.w3.org/2000/svg"> <g clip-path="url(#clip0_4482_15529)"> <path d="M7.76953 7.62031C9.91953 5.47031 13.3995 5.47031 15.5495 7.62031" stroke="white" stroke-width="1.62" stroke-linecap="round" stroke-linejoin="round"/> <path d="M15.5396 7.62012C17.6896 9.77012 17.6896 13.2501 15.5396 15.4001C13.3896 17.5501 9.90962 17.5501 7.75962 15.4001C6.41962 14.0601 5.90962 12.1901 6.24962 10.4601" stroke="white" stroke-width="1.62" stroke-linecap="round" stroke-linejoin="round"/> <path d="M11.6504 2.50977V1.50977" stroke="white" stroke-width="1.62" stroke-linecap="round" stroke-linejoin="round"/> <path d="M11.6504 21.5098V20.5098" stroke="white" stroke-width="1.62" stroke-linecap="round" stroke-linejoin="round"/> <path d="M18.0098 5.15043L18.7198 4.44043" stroke="white" stroke-width="1.62" stroke-linecap="round" stroke-linejoin="round"/> <path d="M4.58008 18.5801L5.29008 17.8701" stroke="white" stroke-width="1.62" stroke-linecap="round" stroke-linejoin="round"/> <path d="M20.6504 11.5098H21.6504" stroke="white" stroke-width="1.62" stroke-linecap="round" stroke-linejoin="round"/> <path d="M1.65039 11.5098H2.65039" stroke="white" stroke-width="1.62" stroke-linecap="round" stroke-linejoin="round"/> <path d="M18.0098 17.8701L18.7198 18.5801" stroke="white" stroke-width="1.62" stroke-linecap="round" stroke-linejoin="round"/> <path d="M4.58008 4.44043L5.29008 5.15043" stroke="white" stroke-width="1.62" stroke-linecap="round" stroke-linejoin="round"/> </g> <defs> <clipPath id="clip0_4482_15529"> <rect width="24" height="24" fill="white"/> </clipPath> </defs> </svg>
