<svg width="24" height="24" viewBox="0 0 24 24" fill="none" xmlns="http://www.w3.org/2000/svg"> <g clip-path="url(#clip0_4482_2802)"> <path d="M2 7.94V7C2 4.25 4.25 2 7 2H17C19.75 2 22 4.25 22 7V17C22 19.75 19.75 22 17 22H7C4.25 22 2 19.75 2 17V13.06" stroke="white" stroke-width="1.5" stroke-miterlimit="10" stroke-linecap="round" stroke-linejoin="round"/> <path d="M12 17.5C11.04 17.5 10.25 16.71 10.25 15.75V8.25C10.25 7.29 11.04 6.5 12 6.5C12.96 6.5 13.75 7.29 13.75 8.25V15.75C13.75 16.71 12.96 17.5 12 17.5Z" stroke="white" stroke-width="1.5" stroke-miterlimit="10" stroke-linecap="round" stroke-linejoin="round"/> <path d="M9 11H15" stroke="white" stroke-width="1.5" stroke-miterlimit="10" stroke-linecap="round" stroke-linejoin="round"/> </g> <defs> <clipPath id="clip0_4482_2802"> <rect width="24" height="24" fill="white"/> </clipPath> </defs> </svg>
