<svg width="24" height="24" viewBox="0 0 24 24" fill="none" xmlns="http://www.w3.org/2000/svg"> <g clip-path="url(#clip0_2085_390249)"> <path d="M7.48994 7.00982C7.48994 7.00982 7.50994 6.99982 7.51994 7.00982C7.66994 7.74982 8.24994 8.32982 8.99994 8.48982C9.00994 8.48982 9.00994 8.50982 8.99994 8.51982C8.25994 8.66982 7.67994 9.24982 7.51994 9.99982C7.51994 10.0098 7.49994 10.0098 7.48994 9.99982C7.33994 9.25982 6.75994 8.67982 6.00994 8.51982C5.99994 8.51982 5.99994 8.49982 6.00994 8.48982C6.74994 8.33982 7.32994 7.75982 7.48994 7.00982Z" stroke="white" stroke-width="1.5" stroke-linecap="round" stroke-linejoin="round"/> <path d="M22 11.15V14C22 16.8 22 18.2 21.45 19.27C20.97 20.21 20.21 20.98 19.27 21.45C18.2 22 16.8 22 14 22H10C7.2 22 5.8 22 4.73 21.45C3.79 20.97 3.02 20.21 2.55 19.27C2 18.2 2 16.8 2 14V9.11C2 7.15 2 6.17 2.27 5.38C2.77 3.92 3.92 2.78 5.38 2.27C6.17 2 7.15 2 9.11 2M13.55 12.53C12.73 12.69 12.32 12.78 12.04 12.66C11.75 12.54 11.53 12.29 11.44 11.98C11.37 11.69 11.5 11.3 11.76 10.5L13.91 4.1C13.93 4.04 13.94 4.01 13.95 3.99C14.37 2.81 15.47 2.02 16.72 2C16.75 2 16.78 2 16.84 2C16.98 2 17.05 2 17.1 2C19.77 2.06 21.92 4.21 21.98 6.88C21.98 6.94 21.98 7.01 21.98 7.14M16 8.5V9.5M7 14.5C9.6 17.62 14.4 17.62 17 14.5" stroke="white" stroke-width="1.5" stroke-linecap="round" stroke-linejoin="round"/> </g> <defs> <clipPath id="clip0_2085_390249"> <rect width="24" height="24" fill="white"/> </clipPath> </defs> </svg>
