<svg width="24" height="24" viewBox="0 0 24 24" fill="none" xmlns="http://www.w3.org/2000/svg"> <g clip-path="url(#clip0_2085_381319)"> <path d="M18.7896 13.4601L10.5396 5.21008L14.6696 3.83008L20.1696 9.33008L18.7896 13.4601Z" stroke="white" stroke-width="1.5" stroke-linecap="round" stroke-linejoin="round"/> <path d="M18.7898 13.46L13.2198 16.64C12.6698 16.96 12.2298 17.44 11.9698 18.03L10.9198 20.4C10.6698 20.95 10.2198 21.39 9.65979 21.61C8.79979 21.95 7.81979 21.75 7.15979 21.1L2.89979 16.84C2.23979 16.18 2.03979 15.2 2.38979 14.34C2.60979 13.78 3.04979 13.33 3.59979 13.08L5.96979 12.03C6.54979 11.77 7.03979 11.33 7.35979 10.78L10.5398 5.20996" stroke="white" stroke-width="1.5" stroke-linecap="round" stroke-linejoin="round"/> <path d="M21.9999 4.29V2H19.7099L18.3299 2.92L16.4999 2L14.6699 3.83" stroke="white" stroke-width="1.5" stroke-linecap="round" stroke-linejoin="round"/> <path d="M20.1699 9.34L21.4399 8.07L22.0099 7.5" stroke="white" stroke-width="1.5" stroke-linecap="round" stroke-linejoin="round"/> <path d="M13.9298 12.4498L13.0098 11.5298" stroke="white" stroke-width="1.5" stroke-linecap="round" stroke-linejoin="round"/> <path d="M12.0997 14.2901L11.1797 13.3701" stroke="white" stroke-width="1.5" stroke-linecap="round" stroke-linejoin="round"/> <path d="M10.2598 16.1202L9.33984 15.2002" stroke="white" stroke-width="1.5" stroke-linecap="round" stroke-linejoin="round"/> </g> <defs> <clipPath id="clip0_2085_381319"> <rect width="24" height="24" fill="white"/> </clipPath> </defs> </svg>
