<svg width="24" height="24" viewBox="0 0 24 24" fill="none" xmlns="http://www.w3.org/2000/svg"> <g clip-path="url(#clip0_4482_7377)"> <path d="M17.5 12.5C17.5 11.11 16.68 9.90001 15.5 9.35001C15.05 9.12001 14.54 9 14 9C13.46 9 12.95 9.12001 12.5 9.35001C11.32 9.90001 10.5 11.11 10.5 12.5V20C10.5 21.1 11.4 22 12.5 22H15.5C16.6 22 17.5 21.1 17.5 20V17.69" stroke="white" stroke-width="1.5" stroke-miterlimit="10" stroke-linecap="round" stroke-linejoin="round"/> <path d="M15.5 5.31055V9.35056C15.05 9.12056 14.54 9.00055 14 9.00055C13.46 9.00055 12.95 9.12056 12.5 9.35056V5.31055C12.53 5.34055 12.56 5.38055 12.59 5.41055C12.95 5.78055 13.45 6.00055 14 6.00055C14.6 6.00055 15.14 5.73055 15.5 5.31055Z" stroke="white" stroke-width="1.5" stroke-miterlimit="10" stroke-linecap="round" stroke-linejoin="round"/> <path d="M16 4C16 4.5 15.82 4.96 15.5 5.31C15.14 5.73 14.6 6 14 6C13.45 6 12.95 5.78 12.59 5.41C12.56 5.38 12.53 5.34 12.5 5.31C12.18 4.96 12 4.5 12 4C12 3.45 12.22 2.95 12.59 2.59C12.95 2.22 13.45 2 14 2C14.55 2 15.05 2.22 15.41 2.59C15.78 2.95 16 3.45 16 4Z" stroke="white" stroke-width="1.5" stroke-miterlimit="10" stroke-linecap="round" stroke-linejoin="round"/> <path d="M7.35979 19H4.63979C4.30979 19 4.07979 18.69 4.14979 18.38L4.99979 15H6.99979L7.83979 18.38C7.91979 18.69 7.67979 19 7.35979 19Z" stroke="white" stroke-width="1.5" stroke-miterlimit="10" stroke-linecap="round" stroke-linejoin="round"/> <path d="M12 4C8.56 4.49 6 7.44 6 10.92V14.21" stroke="white" stroke-width="1.5" stroke-miterlimit="10" stroke-linecap="round" stroke-linejoin="round"/> <path d="M16 3.25081L19.41 2.61081C19.72 2.55081 20 2.79081 20 3.10081V4.9008C20 5.2108 19.72 5.45081 19.41 5.39081L16 4.75081" stroke="white" stroke-width="1.5" stroke-miterlimit="10" stroke-linecap="round" stroke-linejoin="round"/> </g> <defs> <clipPath id="clip0_4482_7377"> <rect width="24" height="24" fill="white"/> </clipPath> </defs> </svg>
