<svg width="24" height="24" viewBox="0 0 24 24" fill="none" xmlns="http://www.w3.org/2000/svg"> <g clip-path="url(#clip0_4482_2788)"> <path d="M22 7V5C22 3.34 20.66 2 19 2H17" stroke="white" stroke-width="1.5" stroke-linecap="round" stroke-linejoin="round"/> <path d="M7 2H5C3.34 2 2 3.34 2 5V7" stroke="white" stroke-width="1.5" stroke-linecap="round" stroke-linejoin="round"/> <path d="M17 22H19C20.66 22 22 20.66 22 19V17" stroke="white" stroke-width="1.5" stroke-linecap="round" stroke-linejoin="round"/> <path d="M2 17V19C2 20.66 3.34 22 5 22H7" stroke="white" stroke-width="1.5" stroke-linecap="round" stroke-linejoin="round"/> <path d="M9.44 7.31C9.92 7.11 10.44 7 11 7H13C15.21 7 17 8.79 17 11V13C17 15.21 15.21 17 13 17H11C8.79 17 7 15.21 7 13V11" stroke="white" stroke-width="1.5" stroke-linecap="round" stroke-linejoin="round"/> </g> <defs> <clipPath id="clip0_4482_2788"> <rect width="24" height="24" fill="white"/> </clipPath> </defs> </svg>
