<svg width="24" height="24" viewBox="0 0 24 24" fill="none" xmlns="http://www.w3.org/2000/svg"> <g clip-path="url(#clip0_2085_390096)"> <path d="M7 14V11C7 10.45 7.45 10 8 10H8.67C9.22 10 9.67 10.45 9.67 11V22H7V18.4" stroke="white" stroke-width="1.41" stroke-linecap="round" stroke-linejoin="round"/> <path d="M8.33008 6.66992C8.33008 5.56992 9.23008 4.66992 10.3301 4.66992C11.4301 4.66992 12.3301 5.56992 12.3301 6.66992V19.3399" stroke="white" stroke-width="1.41" stroke-linecap="round" stroke-linejoin="round"/> <path d="M8.33008 6.66984C8.33008 4.82984 9.82008 3.33984 11.6601 3.33984C13.5001 3.33984 14.9901 4.82984 14.9901 6.66984V16.6698" stroke="white" stroke-width="1.41" stroke-linecap="round" stroke-linejoin="round"/> <path d="M8.33008 6.67C8.33008 4.09 10.4201 2 13.0001 2C15.5801 2 17.6701 4.09 17.6701 6.67V14" stroke="white" stroke-width="1.41" stroke-linecap="round" stroke-linejoin="round"/> <path d="M8.33008 6.66992V9.99992" stroke="white" stroke-width="1.41" stroke-linecap="round" stroke-linejoin="round"/> <path d="M6.33008 22H10.3301" stroke="white" stroke-width="1.41" stroke-linecap="round" stroke-linejoin="round"/> </g> <defs> <clipPath id="clip0_2085_390096"> <rect width="24" height="24" fill="white"/> </clipPath> </defs> </svg>
