<svg width="24" height="24" viewBox="0 0 24 24" fill="none" xmlns="http://www.w3.org/2000/svg"> <g clip-path="url(#clip0_4482_3025)"> <path d="M19.9001 16.8901H16.1001L17.6802 15.3101" stroke="white" stroke-width="1.5" stroke-linecap="round" stroke-linejoin="round"/> <path d="M16.1001 19.1099H19.9001L18.3201 20.6899" stroke="white" stroke-width="1.5" stroke-linecap="round" stroke-linejoin="round"/> <path d="M8.87988 6.56995V5.43994" stroke="white" stroke-width="1.5" stroke-linecap="round" stroke-linejoin="round"/> <path d="M8.87988 13.3198V14.4498" stroke="white" stroke-width="1.5" stroke-linecap="round" stroke-linejoin="round"/> <path d="M6.92993 12.5098C7.21993 12.9898 7.71982 13.3198 8.31982 13.3198H8.87988H9.54993C10.4199 13.3198 11.1299 12.6098 11.1299 11.7398C11.1299 11.0198 10.6399 10.3798 9.92993 10.2098L7.81982 9.67981C7.11982 9.49981 6.62988 8.86981 6.62988 8.14981C6.62988 7.27981 7.33984 6.56982 8.20984 6.56982H8.87988H9.43982C10.0398 6.56982 10.5398 6.89981 10.8298 7.36981" stroke="white" stroke-width="1.5" stroke-linecap="round" stroke-linejoin="round"/> <path d="M23 18C23 20.07 21.74 21.84 19.96 22.61C19.36 22.86 18.69 23 18 23C15.95 23 14.19 21.76 13.41 20C13.15 19.39 13 18.71 13 18C13 15.24 15.24 13 18 13C18.69 13 19.36 13.14 19.96 13.39C19.97 13.4 19.99 13.4 20 13.41C21.76 14.19 23 15.95 23 18Z" stroke="white" stroke-width="1.5" stroke-linecap="round" stroke-linejoin="round"/> <path d="M2 8.05V7C2 4.25 4.25 2 7 2H15C17.75 2 20 4.25 20 7V13.41C19.99 13.4 19.97 13.4 19.96 13.39C19.36 13.14 18.69 13 18 13C15.24 13 13 15.24 13 18C13 18.71 13.15 19.39 13.41 20H7C4.25 20 2 17.75 2 15" stroke="white" stroke-width="1.5" stroke-linecap="round" stroke-linejoin="round"/> </g> <defs> <clipPath id="clip0_4482_3025"> <rect width="24" height="24" fill="white"/> </clipPath> </defs> </svg>
