<svg width="24" height="24" viewBox="0 0 24 24" fill="none" xmlns="http://www.w3.org/2000/svg"> <g clip-path="url(#clip0_2085_381004)"> <path d="M21.2398 8.16999C21.7398 9.36999 21.9998 10.67 21.9998 12C21.9998 14.65 20.9498 17.2 19.0698 19.07C17.1898 20.95 14.6498 22 11.9998 22C11.4498 22 10.9198 21.76 10.5698 21.33C10.2098 20.91 10.0598 20.35 10.1498 19.81L10.2498 19.21C10.4098 18.24 10.1398 17.26 9.50977 16.51C8.87977 15.76 7.94977 15.33 6.96977 15.33H5.34977C4.45977 15.33 3.61977 14.98 2.98977 14.35C2.35977 13.72 2.00977 12.88 2.00977 11.99C2.00977 9.33999 3.05977 6.78999 4.93977 4.91999C6.81977 3.03999 9.35977 1.98999 12.0098 1.98999C14.6598 1.98999 17.2098 3.03999 19.0798 4.91999" stroke="white" stroke-width="1.5" stroke-linecap="round" stroke-linejoin="round"/> <path d="M11.24 11.79C12.7753 11.79 14.02 10.5453 14.02 9.00998C14.02 7.47463 12.7753 6.22998 11.24 6.22998C9.70461 6.22998 8.45996 7.47463 8.45996 9.00998C8.45996 10.5453 9.70461 11.79 11.24 11.79Z" stroke="white" stroke-width="1.5" stroke-linecap="round" stroke-linejoin="round"/> </g> <defs> <clipPath id="clip0_2085_381004"> <rect width="24" height="24" fill="white"/> </clipPath> </defs> </svg>
