<svg width="24" height="24" viewBox="0 0 24 24" fill="none" xmlns="http://www.w3.org/2000/svg"> <g clip-path="url(#clip0_4482_12364)"> <path d="M11.9997 2C8.10973 2 4.96973 5.14 4.96973 9.03C4.96973 12.92 8.10973 16.06 11.9997 16.06C15.8897 16.06 19.0297 12.92 19.0297 9.03C19.0297 5.14 15.8897 2 11.9997 2Z" stroke="white" stroke-width="1.5" stroke-linecap="round" stroke-linejoin="round"/> <path d="M9.14949 6.46012C8.51949 9.42012 8.99949 12.5901 10.5695 15.2201C11.2295 16.3201 12.7695 16.3201 13.4295 15.2201C15.6895 11.4501 15.6895 6.59012 13.4295 2.82012C12.7695 1.72012 11.2295 1.72012 10.5695 2.82012" stroke="white" stroke-width="1.5" stroke-linecap="round" stroke-linejoin="round"/> <path d="M4.96973 9.03027H19.0197" stroke="white" stroke-width="1.5" stroke-linecap="round" stroke-linejoin="round"/> <path d="M10.3799 18.7598L13.6199 21.9998" stroke="white" stroke-width="1.5" stroke-linecap="round" stroke-linejoin="round"/> <path d="M10.3799 21.9998L13.6199 18.7598" stroke="white" stroke-width="1.5" stroke-linecap="round" stroke-linejoin="round"/> <path d="M16.3193 20.3799H20.6393" stroke="white" stroke-width="1.5" stroke-linecap="round" stroke-linejoin="round"/> <path d="M3.34961 20.3799H7.67961" stroke="white" stroke-width="1.5" stroke-linecap="round" stroke-linejoin="round"/> </g> <defs> <clipPath id="clip0_4482_12364"> <rect width="24" height="24" fill="white"/> </clipPath> </defs> </svg>
