<svg width="24" height="24" viewBox="0 0 24 24" fill="none" xmlns="http://www.w3.org/2000/svg"> <g clip-path="url(#clip0_4482_10578)"> <path d="M5.49008 22.0001H3.38008C2.80008 22.0001 2.33008 21.5301 2.33008 20.9501V14.6301C2.33008 14.0501 2.80008 13.5801 3.38008 13.5801H5.49008C6.07008 13.5801 6.54008 14.0501 6.54008 14.6301V20.9501C6.54008 21.5301 6.07008 22.0001 5.49008 22.0001Z" stroke="white" stroke-width="1.5" stroke-linecap="round" stroke-linejoin="round"/> <path d="M12.86 17.79H15.32C15.78 17.79 16.22 17.64 16.58 17.37L19.12 15.46C19.75 14.98 20.64 15.05 21.2 15.61C21.82 16.23 21.82 17.24 21.2 17.86L19.02 20.04C18.43 20.63 17.68 21.03 16.87 21.19L13.79 21.81C13.18 21.93 12.55 21.92 11.94 21.77L9.15004 21.07C8.82004 20.99 8.47004 20.94 8.13004 20.94H6.54004" stroke="white" stroke-width="1.5" stroke-linecap="round" stroke-linejoin="round"/> <path d="M12.86 17.7901H14.42C15.3 17.7901 16.01 17.0801 16.01 16.2001V15.8801C16.01 15.1501 15.51 14.5101 14.8 14.3301L12.39 13.7301C12 13.6301 11.6 13.5801 11.19 13.5801C10.21 13.5801 9.26004 13.8701 8.45004 14.4101L6.54004 15.6801" stroke="white" stroke-width="1.5" stroke-linecap="round" stroke-linejoin="round"/> <path d="M17.0696 2C15.4496 2 14.0496 2.94 13.3496 4.29" stroke="white" stroke-width="1.5" stroke-linecap="round" stroke-linejoin="round"/> <path d="M13.3305 4.28986H8.46047C8.18047 4.28986 7.91047 4.39986 7.72047 4.59986L6.85047 5.46986C6.44047 5.87986 6.44047 6.54986 6.85047 6.95986L7.72047 7.82986C7.92047 8.02986 8.19047 8.13986 8.46047 8.13986H13.3405C14.0405 9.48986 15.4305 10.4299 17.0705 10.4299C19.3905 10.4299 21.2805 8.52986 21.2805 6.20986C21.2805 5.33986 21.0205 4.52986 20.5605 3.85986" stroke="white" stroke-width="1.5" stroke-linecap="round" stroke-linejoin="round"/> <path d="M17.0698 6.4902C17.2198 6.4902 17.3398 6.3702 17.3398 6.2202C17.3398 6.0702 17.2198 5.9502 17.0698 5.9502C16.9198 5.9502 16.7998 6.0702 16.7998 6.2202C16.7998 6.3702 16.9198 6.4902 17.0798 6.4902" stroke="white" stroke-width="1.5" stroke-linecap="round" stroke-linejoin="round"/> </g> <defs> <clipPath id="clip0_4482_10578"> <rect width="24" height="24" fill="white"/> </clipPath> </defs> </svg>
