<svg width="24" height="24" viewBox="0 0 24 24" fill="none" xmlns="http://www.w3.org/2000/svg"> <g clip-path="url(#clip0_655_9742)"> <path d="M20.35 8.32C19.69 7.84 18.88 7.55 18 7.55H6C3.8 7.55 2 9.35 2 11.55V17.99C2 20.19 3.8 21.99 6 21.99H18C20.2 21.99 22 20.19 22 17.99V11.55" stroke="white" stroke-width="1.5" stroke-linecap="round" stroke-linejoin="round"/> <path d="M4 8.99001L20 20.56" stroke="white" stroke-width="1.5" stroke-linecap="round" stroke-linejoin="round"/> <path d="M2 14.33L12.56 22" stroke="white" stroke-width="1.5" stroke-linecap="round" stroke-linejoin="round"/> <path d="M11.4395 7.56L21.9995 15.23" stroke="white" stroke-width="1.5" stroke-linecap="round" stroke-linejoin="round"/> <path d="M12.0095 6.26C12.0095 3.91 13.6395 2 15.6595 2C16.5195 2 17.2295 2.7 17.2295 3.57C17.2295 5.46 14.8895 7 11.9995 7C9.10953 7 6.76953 5.46 6.76953 3.57C6.76953 2.71 7.46953 2 8.34953 2C10.3695 2 11.9995 3.91 11.9995 6.26" stroke="white" stroke-width="1.5" stroke-linecap="round" stroke-linejoin="round"/> </g> <defs> <clipPath id="clip0_655_9742"> <rect width="24" height="24" fill="white"/> </clipPath> </defs> </svg>
