<svg width="24" height="24" viewBox="0 0 24 24" fill="none" xmlns="http://www.w3.org/2000/svg"> <g clip-path="url(#clip0_655_9739)"> <path d="M9.78 4.22H4.22C2.99 4.22 2 5.21 2 6.44V19.77C2 21 2.99 21.99 4.22 21.99H9.78C11.01 21.99 12 21 12 19.77V6.44C12 5.21 11.01 4.22 9.78 4.22Z" stroke="white" stroke-width="1.5" stroke-linecap="round" stroke-linejoin="round"/> <path d="M22 14.22C22 12.99 21.01 12 19.78 12H14.22C12.99 12 12 12.99 12 14.22V19.78C12 21.01 12.99 22 14.22 22H19.78C21.01 22 22 21.01 22 19.78V19.17" stroke="white" stroke-width="1.5" stroke-linecap="round" stroke-linejoin="round"/> <path d="M4.7793 2L6.9993 4.22L9.2193 2" stroke="white" stroke-width="1.5" stroke-linecap="round" stroke-linejoin="round"/> <path d="M14.7793 9.78L16.9993 12L19.2193 9.78" stroke="white" stroke-width="1.5" stroke-linecap="round" stroke-linejoin="round"/> <path d="M12 9.44L2 16.66" stroke="white" stroke-width="1.5" stroke-linecap="round" stroke-linejoin="round"/> <path d="M11.9994 16.33L4.10938 22" stroke="white" stroke-width="1.5" stroke-linecap="round" stroke-linejoin="round"/> <path d="M9.89 4.22L2 9.89" stroke="white" stroke-width="1.5" stroke-linecap="round" stroke-linejoin="round"/> </g> <defs> <clipPath id="clip0_655_9739"> <rect width="24" height="24" fill="white"/> </clipPath> </defs> </svg>
