<svg width="24" height="24" viewBox="0 0 24 24" fill="none" xmlns="http://www.w3.org/2000/svg"> <g clip-path="url(#clip0_2085_380963)"> <path d="M13.94 3.37002C12.38 3.70002 10.77 4.88002 9.11996 6.37002L8.69996 4.39002C8.62996 4.08002 8.49996 3.78002 8.31996 3.52002C8.13996 3.26002 7.89996 3.03002 7.62996 2.86002C7.35996 2.69002 7.05996 2.57002 6.73996 2.52002C6.41996 2.47002 6.09996 2.48002 5.78996 2.55002C5.47996 2.62002 5.17996 2.76002 4.91996 2.95002C4.65996 3.14002 4.43996 3.38002 4.26996 3.65002C4.09996 3.92002 3.98996 4.23002 3.94996 4.55002C3.89996 4.87002 3.91996 5.19002 3.99996 5.50002L5.21996 10.24C2.04996 13.77 0.919959 16.89 3.18996 19.16C4.70996 20.68 6.61996 20.68 8.76996 19.56L11.25 21.2C11.46 21.34 11.69 21.43 11.94 21.48C12.19 21.53 12.44 21.52 12.68 21.47C12.92 21.41 13.15 21.31 13.36 21.16C13.56 21.01 13.73 20.83 13.86 20.61C14.11 20.19 14.19 19.68 14.07 19.21C13.95 18.73 13.65 18.32 13.23 18.07L11.94 17.29C12.39 16.89 12.84 16.46 13.31 16C14.4 14.91 15.48 13.83 16.41 12.75L20.06 12.91C20.31 12.92 20.55 12.88 20.78 12.8C21.01 12.72 21.22 12.58 21.4 12.41C21.58 12.24 21.72 12.04 21.83 11.81C21.93 11.58 21.99 11.34 21.99 11.09C21.99 10.84 21.95 10.6 21.86 10.37C21.77 10.14 21.63 9.93002 21.46 9.75002C21.29 9.57002 21.08 9.43002 20.85 9.34002C20.62 9.24002 20.38 9.19002 20.13 9.19002H18.74C19.08 8.42002 19.16 7.56002 18.98 6.73002C18.8 5.91002 18.36 5.16002 17.72 4.61002" stroke="white" stroke-width="1.5" stroke-linecap="round" stroke-linejoin="round"/> <path d="M17.74 12.81C17.74 12.81 17.25 11.59 17.94 10.9" stroke="white" stroke-width="1.5" stroke-linecap="round" stroke-linejoin="round"/> <path d="M4.30005 6.67005C4.76005 6.86005 5.27005 6.91005 5.76005 6.82005C6.25005 6.73005 6.71005 6.51005 7.08005 6.18005" stroke="white" stroke-width="1.5" stroke-linecap="round" stroke-linejoin="round"/> <path d="M14.29 15.02C12.02 14 10.16 12.24 9.02002 10.03" stroke="white" stroke-width="1.5" stroke-linecap="round" stroke-linejoin="round"/> <path d="M12.1099 4.10999C12.5299 5.42999 13.2899 6.61999 14.3299 7.53999" stroke="white" stroke-width="1.5" stroke-linecap="round" stroke-linejoin="round"/> <path d="M3 13.22C3 13.22 4.48 16.72 6.53 17.42" stroke="white" stroke-width="1.5" stroke-linecap="round" stroke-linejoin="round"/> </g> <defs> <clipPath id="clip0_2085_380963"> <rect width="24" height="24" fill="white"/> </clipPath> </defs> </svg>
