<svg width="24" height="24" viewBox="0 0 24 24" fill="none" xmlns="http://www.w3.org/2000/svg"> <g clip-path="url(#clip0_4482_11762)"> <path d="M19.3395 5.31021C17.2395 3.21021 14.3695 2.22021 11.9395 2.22021C9.50953 2.22021 6.63953 3.21021 4.64953 5.42021H4.66953C3.11953 7.08021 2.01953 9.40021 2.01953 12.3802C2.01953 14.5902 2.78953 16.6902 4.00953 18.3502C5.44953 20.2302 7.54953 21.3302 8.64953 21.7802V21.0102C8.64953 21.0102 8.64953 19.2402 9.63953 17.7002C7.42953 17.5902 5.65953 15.4902 5.65953 13.0602C5.65953 12.1802 5.98953 11.4002 6.53953 10.7402L6.64953 8.64021C6.64953 8.09021 7.19953 7.76021 7.74953 7.87021L10.0695 8.75021C10.7295 8.64021 11.3995 8.53021 12.1695 8.53021C12.9395 8.53021 13.6095 8.64021 14.2695 8.75021L16.2595 7.76021C16.8095 7.54021 17.3595 7.98021 17.3595 8.53021L17.4695 10.6302C18.0195 11.2902 18.3495 12.1802 18.3495 12.9502C18.3495 15.3802 16.5795 17.3702 14.3695 17.5902C15.3595 19.1402 15.3595 20.9002 15.3595 20.9002V21.6702C16.4595 21.2302 18.5595 20.1202 19.9995 18.2402C21.2195 16.6902 21.9895 14.4802 21.9895 12.2702C21.9895 10.9202 21.7595 9.70021 21.3695 8.62021" stroke="white" stroke-width="1.5" stroke-linecap="round" stroke-linejoin="round"/> </g> <defs> <clipPath id="clip0_4482_11762"> <rect width="24" height="24" fill="white"/> </clipPath> </defs> </svg>
