<svg width="24" height="24" viewBox="0 0 24 24" fill="none" xmlns="http://www.w3.org/2000/svg"> <g clip-path="url(#clip0_2085_385258)"> <path d="M2 17.101H8.27C8.27 15.911 9.11 14.871 10.22 14.631C10.46 13.871 11.17 13.291 12 13.291C12.83 13.291 13.54 13.881 13.78 14.631C14.9 14.871 15.73 15.911 15.73 17.101H22" stroke="white" stroke-width="1.5" stroke-linecap="round" stroke-linejoin="round"/> <path d="M20.7501 17.0996V22.0796H18.2201H15.7301H14.1201" stroke="white" stroke-width="1.5" stroke-linecap="round" stroke-linejoin="round"/> <path d="M3.24023 17.0996V22.0796H5.78023H8.27024H9.88023" stroke="white" stroke-width="1.5" stroke-linecap="round" stroke-linejoin="round"/> <path d="M8.27002 3.33008H15.74" stroke="white" stroke-width="1.5" stroke-linecap="round" stroke-linejoin="round"/> <path d="M7.02002 5.82031H16.98" stroke="white" stroke-width="1.5" stroke-linecap="round" stroke-linejoin="round"/> <path d="M5.77979 8.31055H18.2298" stroke="white" stroke-width="1.5" stroke-linecap="round" stroke-linejoin="round"/> <path d="M7.02002 10.8005V8.31055" stroke="white" stroke-width="1.5" stroke-linecap="round" stroke-linejoin="round"/> <path d="M16.98 10.8005V8.31055" stroke="white" stroke-width="1.5" stroke-linecap="round" stroke-linejoin="round"/> <path d="M10.7598 19.9996V17.0996H13.2398V19.9996" stroke="white" stroke-width="1.5" stroke-linecap="round" stroke-linejoin="round"/> <path d="M5.77979 22.0798V19.5898H8.26979V22.0798" stroke="white" stroke-width="1.5" stroke-linecap="round" stroke-linejoin="round"/> <path d="M15.73 22.0798V19.5898H18.22V22.0798" stroke="white" stroke-width="1.5" stroke-linecap="round" stroke-linejoin="round"/> <path d="M8.27002 5.82031V8.31031" stroke="white" stroke-width="1.5" stroke-linecap="round" stroke-linejoin="round"/> <path d="M15.73 5.82031V8.31031" stroke="white" stroke-width="1.5" stroke-linecap="round" stroke-linejoin="round"/> <path d="M14.4902 3.33008V5.82008" stroke="white" stroke-width="1.5" stroke-linecap="round" stroke-linejoin="round"/> <path d="M9.50977 3.33008V5.82008" stroke="white" stroke-width="1.5" stroke-linecap="round" stroke-linejoin="round"/> <path d="M9.50977 2.08008V3.32008" stroke="white" stroke-width="1.5" stroke-linecap="round" stroke-linejoin="round"/> <path d="M12 2.08008V3.32008" stroke="white" stroke-width="1.5" stroke-linecap="round" stroke-linejoin="round"/> <path d="M14.4902 2.08008V3.32008" stroke="white" stroke-width="1.5" stroke-linecap="round" stroke-linejoin="round"/> <path d="M4.52979 10.8008H19.4698" stroke="white" stroke-width="1.5" stroke-linecap="round" stroke-linejoin="round"/> <path d="M5.77979 10.8008V17.1108" stroke="white" stroke-width="1.5" stroke-linecap="round" stroke-linejoin="round"/> <path d="M18.2202 10.8008V17.1108" stroke="white" stroke-width="1.5" stroke-linecap="round" stroke-linejoin="round"/> </g> <defs> <clipPath id="clip0_2085_385258"> <rect width="24" height="24" fill="white"/> </clipPath> </defs> </svg>
