<svg width="24" height="24" viewBox="0 0 24 24" fill="none" xmlns="http://www.w3.org/2000/svg"> <g clip-path="url(#clip0_4482_10915)"> <path d="M16.2803 5.67V4.14C16.2803 2.96 17.2403 2 18.4203 2C19.6003 2 20.5603 2.96 20.5603 4.14V14.82" stroke="white" stroke-width="1.5" stroke-linecap="round" stroke-linejoin="round"/> <path d="M15.3301 21.9999H18.4201C19.6001 21.9999 20.5601 21.0399 20.5601 19.8599" stroke="white" stroke-width="1.5" stroke-linecap="round" stroke-linejoin="round"/> <path d="M8.43043 13.17C6.08043 13.21 4.19043 15.13 4.19043 17.48C4.19043 19.83 6.08043 21.75 8.43043 21.79C11.9404 21.79 12.8004 17.48 14.8104 16.33C13.3104 14.32 10.9404 13.14 8.43043 13.17Z" stroke="white" stroke-width="1.5" stroke-linecap="round" stroke-linejoin="round"/> <path d="M8.95035 17.0098C6.54035 17.4098 4.42035 18.8198 3.11035 20.8898" stroke="white" stroke-width="1.5" stroke-linecap="round" stroke-linejoin="round"/> <path d="M2 10.57L10.56 3.24002C11.39 2.53002 12.62 2.53002 13.45 3.24002L22.01 10.57" stroke="white" stroke-width="1.5" stroke-linecap="round" stroke-linejoin="round"/> </g> <defs> <clipPath id="clip0_4482_10915"> <rect width="24" height="24" fill="white"/> </clipPath> </defs> </svg>
