<svg width="24" height="24" viewBox="0 0 24 24" fill="none" xmlns="http://www.w3.org/2000/svg"> <g clip-path="url(#clip0_2085_381251)"> <path d="M9.59016 3.7898L7.77016 3.2998L7.28016 5.1198L5.46016 4.6298L4.97016 6.4498L3.15016 5.9598L2.66016 7.77981" stroke="white" stroke-width="1.5" stroke-linecap="round" stroke-linejoin="round"/> <path d="M14.4399 3.7898L16.2599 3.2998L16.7499 5.1198L18.5699 4.6298L19.0599 6.4498L20.8799 5.9598L21.3699 7.77981" stroke="white" stroke-width="1.5" stroke-linecap="round" stroke-linejoin="round"/> <path d="M10.2099 10H17.2899C17.7399 10 18.1799 10.18 18.4999 10.51L20.0699 12.08C20.3899 12.4 20.5799 12.83 20.5799 13.29V19.44C20.5799 20.86 19.4299 22.01 18.0099 22.01H15.0099C14.7399 22.01 14.4899 21.88 14.3199 21.67L12.6899 19.5C12.5299 19.29 12.2799 19.16 11.9999 19.16C11.7199 19.16 11.4799 19.29 11.3099 19.5L9.67992 21.67C9.51992 21.88 9.25992 22.01 8.98992 22.01H5.98992C4.56992 22.01 3.41992 20.86 3.41992 19.44V13.29C3.41992 12.84 3.59992 12.4 3.92992 12.08L5.49992 10.51C5.82992 10.18 6.24992 10 6.70992 10" stroke="white" stroke-width="1.5" stroke-linecap="round" stroke-linejoin="round"/> <path d="M6.8501 13.4302H17.1401" stroke="white" stroke-width="1.5" stroke-linecap="round" stroke-linejoin="round"/> </g> <defs> <clipPath id="clip0_2085_381251"> <rect width="24" height="24" fill="white"/> </clipPath> </defs> </svg>
