<svg width="24" height="24" viewBox="0 0 24 24" fill="none" xmlns="http://www.w3.org/2000/svg"> <g clip-path="url(#clip0_4418_3780)"> <path d="M7.56006 3.09961C9.38006 3.09961 10.9901 3.97966 12.0001 5.33966C13.0101 3.97966 14.6301 3.09961 16.4401 3.09961C17.5901 3.09961 18.66 3.44963 19.55 4.05963" stroke="white" stroke-width="1.5" stroke-linecap="round" stroke-linejoin="round"/> <path d="M6.10999 17.5005C3.89999 15.4305 2 12.4805 2 8.68048C2 7.14048 2.62 5.74047 3.63 4.73047" stroke="white" stroke-width="1.5" stroke-linecap="round" stroke-linejoin="round"/> <path d="M21.74 7C21.91 7.53 22 8.1 22 8.69C22 15.69 15.52 19.82 12.62 20.82C12.28 20.94 11.72 20.94 11.38 20.82C10.73 20.6 9.91002 20.22 9.02002 19.69" stroke="white" stroke-width="1.5" stroke-linecap="round" stroke-linejoin="round"/> <path d="M22 2L2 22" stroke="white" stroke-width="1.5" stroke-linecap="round" stroke-linejoin="round"/> </g> <defs> <clipPath id="clip0_4418_3780"> <rect width="24" height="24" fill="white"/> </clipPath> </defs> </svg>
