<svg width="24" height="24" viewBox="0 0 24 24" fill="none" xmlns="http://www.w3.org/2000/svg"> <g clip-path="url(#clip0_4482_6849)"> <path d="M17.47 9.14005C17.37 9.42005 17.23 9.66005 17.06 9.87005C16.98 9.97005 16.89 10.06 16.8 10.15C16.31 10.59 15.69 10.8001 15.21 10.8801C15.05 10.9101 14.91 10.9201 14.8 10.9201C14.72 10.9201 14.62 10.8801 14.55 10.8401C14.04 10.4501 13.05 9.22006 13.48 7.85006L13.49 7.81005C13.7 7.19005 14.36 6.86006 14.98 7.07006C15.09 7.11006 15.18 7.16006 15.27 7.22006C15.48 7.36006 15.63 7.57005 15.71 7.81005C15.75 7.79005 15.79 7.76005 15.83 7.73005C16.09 7.59005 16.43 7.56006 16.74 7.66006C17.35 7.86006 17.68 8.52005 17.47 9.14005Z" stroke="white" stroke-width="1.5" stroke-linecap="round" stroke-linejoin="round"/> <path d="M10.5602 7.9001C10.6402 8.1901 10.6602 8.4701 10.6302 8.7301C10.6202 8.8601 10.6002 8.98011 10.5702 9.11011C10.4102 9.75011 10.0102 10.2701 9.67023 10.6101C9.55023 10.7201 9.44022 10.8101 9.35022 10.8701C9.28022 10.9101 9.18022 10.9401 9.10022 10.9401C8.46022 10.9001 6.95021 10.4501 6.53021 9.06011L6.5202 9.02011C6.3402 8.39011 6.7102 7.75012 7.3302 7.57012C7.4402 7.54012 7.54022 7.53011 7.66022 7.53011C7.91022 7.53011 8.16022 7.62011 8.35022 7.77011C8.37022 7.73011 8.38022 7.68011 8.41022 7.64011C8.55022 7.37011 8.81021 7.16012 9.12021 7.07012C9.74021 6.91012 10.3802 7.2701 10.5602 7.9001Z" stroke="white" stroke-width="1.5" stroke-linecap="round" stroke-linejoin="round"/> <path d="M2 12C2 17.52 6.48 22 12 22C17.52 22 22 17.52 22 12C22 6.48 17.52 2 12 2C8.3 2 5.07 4.01 3.34 7" stroke="white" stroke-width="1.5" stroke-miterlimit="10" stroke-linecap="round" stroke-linejoin="round"/> <path d="M7.55983 14.8901C8.06983 16.5601 9.30982 17.8401 10.8698 18.2601C11.6098 18.4601 12.3998 18.4601 13.1398 18.2601C14.6898 17.8301 15.9398 16.5601 16.4498 14.8901C16.4998 14.7401 16.3898 14.5801 16.2498 14.5801C13.4598 15.2401 10.5598 15.2401 7.76982 14.5801C7.60982 14.5801 7.50983 14.7401 7.55983 14.8901Z" stroke="white" stroke-width="1.5" stroke-miterlimit="10" stroke-linecap="round" stroke-linejoin="round"/> </g> <defs> <clipPath id="clip0_4482_6849"> <rect width="24" height="24" fill="white"/> </clipPath> </defs> </svg>
