<svg width="24" height="24" viewBox="0 0 24 24" fill="none" xmlns="http://www.w3.org/2000/svg"> <g clip-path="url(#clip0_2085_392326)"> <path d="M12.0001 11.9995V9.52953H12.4201C13.1101 9.52953 13.6701 8.96953 13.6701 8.27953C13.6701 7.58953 13.1101 7.02953 12.4201 7.02953H12.0001V5.39953C10.7701 3.98953 8.88006 3.16953 6.79006 3.49953C4.52006 3.85953 2.65006 5.58953 2.14006 7.82953C1.81006 9.27953 2.06006 10.6795 2.65006 11.9995" stroke="white" stroke-width="1.5" stroke-linecap="round" stroke-linejoin="round"/> <path d="M11.9899 20.5698C11.9899 20.5698 10.8799 19.9998 9.3999 19.0098" stroke="white" stroke-width="1.5" stroke-linecap="round" stroke-linejoin="round"/> <path d="M6.2699 16.5991C4.8099 15.2891 3.4299 13.7191 2.6499 11.9991H6.1599V11.5791C6.1599 10.8891 6.7199 10.3291 7.4099 10.3291C8.0999 10.3291 8.6599 10.8891 8.6599 11.5791V11.9991H11.9899" stroke="white" stroke-width="1.5" stroke-linecap="round" stroke-linejoin="round"/> <path d="M21.8502 7.82953C21.3402 5.58953 19.4702 3.85953 17.2002 3.49953C15.1102 3.16953 13.2302 3.98953 11.9902 5.39953V7.02953H12.4102C13.1002 7.02953 13.6602 7.58953 13.6602 8.27953C13.6602 8.96953 13.1002 9.52953 12.4102 9.52953H11.9902V11.9995H15.3202V12.4195C15.3202 13.1095 15.8802 13.6695 16.5702 13.6695C17.2602 13.6695 17.8202 13.1095 17.8202 12.4195V11.9995H21.3302C21.9202 10.6895 22.1702 9.27953 21.8402 7.82953H21.8502Z" stroke="white" stroke-width="1.5" stroke-linecap="round" stroke-linejoin="round"/> <path d="M12.0001 12V14.53H11.5801C10.8901 14.53 10.3301 15.09 10.3301 15.78C10.3301 16.47 10.8901 17.03 11.5801 17.03H12.0001V20.57C12.0001 20.57 19.1201 16.93 21.3401 12" stroke="white" stroke-width="1.5" stroke-linecap="round" stroke-linejoin="round"/> </g> <defs> <clipPath id="clip0_2085_392326"> <rect width="24" height="24" fill="white"/> </clipPath> </defs> </svg>
