<svg width="24" height="24" viewBox="0 0 24 24" fill="none" xmlns="http://www.w3.org/2000/svg"> <g clip-path="url(#clip0_4482_12837)"> <path d="M14.29 10.1601C14.29 11.9801 12.82 13.4501 11 13.4501C9.17996 13.4501 7.70996 11.9801 7.70996 10.1601C7.70996 8.34012 9.17996 6.87012 11 6.87012C12.82 6.87012 14.29 8.34012 14.29 10.1601Z" stroke="white" stroke-width="1.5" stroke-linecap="round" stroke-linejoin="round"/> <path d="M2.61957 7.76953C1.78957 9.06953 1.78957 11.2495 2.61957 12.5395C4.72957 15.8495 7.74957 17.7595 10.9996 17.7595" stroke="white" stroke-width="1.5" stroke-linecap="round" stroke-linejoin="round"/> <path d="M20.0003 10.2898C20.0203 9.3798 19.8203 8.4498 19.3803 7.7698C17.2703 4.45981 14.2503 2.5498 11.0003 2.5498C9.06031 2.5498 7.20031 3.2298 5.57031 4.4898" stroke="white" stroke-width="1.5" stroke-linecap="round" stroke-linejoin="round"/> <path d="M15.8799 16.38V15.12C15.8799 13.95 16.8299 13 17.9999 13C19.1699 13 20.1199 13.95 20.1199 15.12V16.38" stroke="white" stroke-width="1.5" stroke-linejoin="round"/> <path d="M20 16.1504H16C14.9 16.1504 14 17.0504 14 18.1504V20.0004C14 21.1004 14.9 22.0004 16 22.0004H20C21.1 22.0004 22 21.1004 22 20.0004V18.1504C22 17.0504 21.1 16.1504 20 16.1504Z" stroke="white" stroke-width="1.5" stroke-linejoin="round"/> </g> <defs> <clipPath id="clip0_4482_12837"> <rect width="24" height="24" fill="white"/> </clipPath> </defs> </svg>
