<svg width="24" height="24" viewBox="0 0 24 24" fill="none" xmlns="http://www.w3.org/2000/svg"> <g clip-path="url(#clip0_2085_391961)"> <path d="M19.32 18.8498C18.57 19.3298 17.79 19.3198 17.79 19.3198C17.79 19.3198 15.74 19.4898 13.92 18.6698C12.86 18.1898 11.08 18.2098 10.06 18.6698C8.24 19.4798 6.19 19.3198 6.19 19.3198C6.19 19.3198 5.41 19.3298 4.66 18.8498C3.95 18.3898 3.26 17.4898 3.3 15.7098C3.35 13.4598 4.28 12.6498 4.98 12.3598C5.35 12.2098 5.65 12.2298 6.35 11.8698C6.66 11.7098 7.07 11.5298 7.53 11.3898C8.5 11.0898 9.26 11.0898 10.17 11.3598C10.53 11.4598 10.85 11.5998 11.13 11.7298C11.69 11.9898 12.33 11.9998 12.9 11.7498C13.16 11.6398 13.46 11.5198 13.78 11.4198C14.94 11.0698 15.69 11.1098 16.41 11.3198C16.87 11.4498 17.28 11.6398 17.59 11.8098C18.27 12.1798 18.71 12.2298 19 12.3498C19.7 12.6398 20.62 13.4498 20.68 15.6998C20.72 17.4798 20.04 18.3898 19.32 18.8398V18.8498Z" stroke="white" stroke-width="1.5" stroke-linecap="round" stroke-linejoin="round"/> <path d="M8.44002 13.6396C8.44002 14.1896 7.99002 14.6296 7.44002 14.6296H6.77002" stroke="white" stroke-width="1.5" stroke-linecap="round" stroke-linejoin="round"/> <path d="M15.5601 13.6396C15.5601 14.1896 16.0101 14.6296 16.5601 14.6296H17.2301" stroke="white" stroke-width="1.5" stroke-linecap="round" stroke-linejoin="round"/> <path d="M9.64975 4.04004C9.29975 4.10004 8.94975 4.17004 8.60975 4.25004C8.09975 4.38004 7.61975 4.60004 7.19975 4.89004C6.85975 5.12004 6.55975 5.39004 6.29975 5.70004C6.09975 5.94004 5.92975 6.21004 5.77975 6.49004C5.50975 7.02004 5.33975 7.62004 5.29975 8.24004L4.98975 12.37C5.21975 12.28 5.41975 12.25 5.70975 12.15C5.82975 12.12 5.95975 12.07 6.10975 12C6.18975 11.96 6.26975 11.92 6.35975 11.88C6.66975 11.72 7.07975 11.54 7.52975 11.4C8.50975 11.1 9.26975 11.1 10.1697 11.36C10.5297 11.47 10.8497 11.6 11.1297 11.73C11.6897 11.99 12.3297 12 12.8997 11.76C13.1597 11.65 13.4597 11.53 13.7797 11.43C14.9397 11.08 15.6897 11.12 16.4097 11.33C16.8697 11.46 17.2797 11.65 17.5897 11.82C18.2697 12.19 18.7097 12.25 19.0097 12.37L18.6897 8.24004C18.6497 7.62004 18.4897 7.02004 18.2097 6.49004C17.8797 5.85004 17.3897 5.30004 16.7997 4.89004C16.3697 4.60004 15.8997 4.38004 15.3797 4.25004C15.0397 4.17004 14.6997 4.10004 14.3497 4.04004" stroke="white" stroke-width="1.5" stroke-linecap="round" stroke-linejoin="round"/> <path d="M7.19983 4.88953C6.85983 5.11953 6.55983 5.39953 6.30983 5.70953C6.10983 5.94953 5.92983 6.20953 5.78983 6.49953L3.54983 5.04953C2.66983 4.47953 2.52983 3.23953 3.27983 2.49953C3.60983 2.16953 4.02983 2.01953 4.44983 2.01953C4.98983 2.01953 5.51983 2.27953 5.83983 2.77953L7.20983 4.90953L7.19983 4.88953Z" stroke="white" stroke-width="1.5" stroke-linecap="round" stroke-linejoin="round"/> <path d="M20.4498 5.04L18.2098 6.49C17.8798 5.85 17.3898 5.3 16.7998 4.89L18.1698 2.76C18.4898 2.26 19.0198 2 19.5598 2C19.9798 2 20.3998 2.16 20.7298 2.48C21.4698 3.22 21.3398 4.46 20.4598 5.03L20.4498 5.04Z" stroke="white" stroke-width="1.5" stroke-linecap="round" stroke-linejoin="round"/> <path d="M19.3199 18.8499L18.3899 20.5699C17.9199 21.4499 16.9999 21.9999 15.9999 21.9999H7.98992C6.98992 21.9999 6.06992 21.4499 5.59992 20.5699L4.66992 18.8499C5.41992 19.3299 6.19992 19.3199 6.19992 19.3199C6.19992 19.3199 8.24992 19.4899 10.0699 18.6699C11.0899 18.2099 12.8799 18.1899 13.9299 18.6699C15.7499 19.4799 17.7999 19.3199 17.7999 19.3199C17.7999 19.3199 18.5799 19.3299 19.3299 18.8499H19.3199Z" stroke="white" stroke-width="1.5" stroke-linecap="round" stroke-linejoin="round"/> <path d="M8.42994 8.07996C8.42994 8.41996 8.14994 8.69996 7.80994 8.69996C7.46994 8.69996 7.18994 8.41996 7.18994 8.07996C7.18994 7.73996 7.46994 7.45996 7.80994 7.45996C8.14994 7.45996 8.42994 7.73996 8.42994 8.07996Z" fill="white"/> <path d="M16.8098 8.07996C16.8098 8.41996 16.5298 8.69996 16.1898 8.69996C15.8498 8.69996 15.5698 8.41996 15.5698 8.07996C15.5698 7.73996 15.8498 7.45996 16.1898 7.45996C16.5298 7.45996 16.8098 7.73996 16.8098 8.07996Z" fill="white"/> </g> <defs> <clipPath id="clip0_2085_391961"> <rect width="24" height="24" fill="white"/> </clipPath> </defs> </svg>
