<svg width="24" height="24" viewBox="0 0 24 24" fill="none" xmlns="http://www.w3.org/2000/svg"> <g clip-path="url(#clip0_4482_10601)"> <path d="M12 8.66992V9.56992" stroke="white" stroke-width="1.5" stroke-linecap="round" stroke-linejoin="round"/> <path d="M9.78027 11.3602C9.91027 10.2602 10.9003 9.4602 12.0003 9.5602" stroke="white" stroke-width="1.5" stroke-linecap="round" stroke-linejoin="round"/> <path d="M12 17.5602V16.6602" stroke="white" stroke-width="1.5" stroke-linecap="round" stroke-linejoin="round"/> <path d="M14.22 14.8599C14.09 15.9599 13.1 16.7599 12 16.6599" stroke="white" stroke-width="1.5" stroke-linecap="round" stroke-linejoin="round"/> <path d="M14.17 10.9702C13.84 10.0802 12.96 9.51024 12 9.57024" stroke="white" stroke-width="1.5" stroke-linecap="round" stroke-linejoin="round"/> <path d="M9.83008 15.25C10.1601 16.14 11.0401 16.71 12.0001 16.65" stroke="white" stroke-width="1.5" stroke-linecap="round" stroke-linejoin="round"/> <path d="M9.78027 11.3599C9.78027 12.1199 10.3203 12.7699 11.0603 12.9199L12.9403 13.2999C13.6903 13.4499 14.2203 14.0999 14.2203 14.8599" stroke="white" stroke-width="1.5" stroke-linecap="round" stroke-linejoin="round"/> <path d="M2 10.5799V17.5599C2 20.0099 3.99 21.9999 6.44 21.9999H17.55C20 21.9999 21.99 20.0099 21.99 17.5599V10.5799C21.99 9.22988 21.38 7.94988 20.32 7.10988L15.46 3.21988C13.43 1.59988 10.55 1.59988 8.52 3.21988L3.67 7.10988" stroke="white" stroke-width="1.5" stroke-linecap="round" stroke-linejoin="round"/> </g> <defs> <clipPath id="clip0_4482_10601"> <rect width="24" height="24" fill="white"/> </clipPath> </defs> </svg>
