<svg width="24" height="24" viewBox="0 0 24 24" fill="none" xmlns="http://www.w3.org/2000/svg"> <g clip-path="url(#clip0_2085_392644)"> <path d="M2.66992 14.0605V19.3105C2.66992 20.0405 3.25992 20.6305 3.98992 20.6305C4.71992 20.6305 5.30992 20.0405 5.30992 19.3105V18.7105C5.30992 18.0205 5.86992 17.4705 6.54992 17.4705C7.22992 17.4705 7.78992 18.0305 7.78992 18.7105V20.4505C7.78992 21.1405 8.34992 21.7005 9.03992 21.7005C9.72992 21.7005 10.2899 21.1405 10.2899 20.4505V15.2905" stroke="white" stroke-width="1.5" stroke-linecap="round" stroke-linejoin="round"/> <path d="M4.84 4.98055V12.6105C4.84 13.3905 4.2 14.0305 3.42 14.0305C2.64 14.0305 2 13.3905 2 12.6105V4.98055C2 4.20055 2.64 3.56055 3.42 3.56055C4.2 3.56055 4.84 4.20055 4.84 4.98055Z" stroke="white" stroke-width="1.5" stroke-linecap="round" stroke-linejoin="round"/> <path d="M14.4401 4.98055V12.6105C14.4401 13.3905 13.8001 14.0305 13.0201 14.0305C12.2401 14.0305 11.6001 13.3905 11.6001 12.6105V4.98055C11.6001 4.20055 12.2401 3.56055 13.0201 3.56055C13.8001 3.56055 14.4401 4.20055 14.4401 4.98055Z" stroke="white" stroke-width="1.5" stroke-linecap="round" stroke-linejoin="round"/> <path d="M8.21984 3.99078V13.6008C8.21984 14.5308 7.45984 15.2908 6.52984 15.2908C5.59984 15.2908 4.83984 14.5308 4.83984 13.6008V3.99078C4.83984 3.06078 5.59984 2.30078 6.52984 2.30078C7.45984 2.30078 8.21984 3.06078 8.21984 3.99078Z" stroke="white" stroke-width="1.5" stroke-linecap="round" stroke-linejoin="round"/> <path d="M11.6002 3.99078V13.6008C11.6002 14.5308 10.8402 15.2908 9.91021 15.2908C8.98021 15.2908 8.22021 14.5308 8.22021 13.6008V3.99078C8.22021 3.06078 8.98021 2.30078 9.91021 2.30078C10.8402 2.30078 11.6002 3.06078 11.6002 3.99078Z" stroke="white" stroke-width="1.5" stroke-linecap="round" stroke-linejoin="round"/> <path d="M22 10.75H21.23" stroke="white" stroke-width="1.5" stroke-linecap="round" stroke-linejoin="round"/> <path d="M16.3599 10.7514H14.4399V6.69141H21.9999" stroke="white" stroke-width="1.5" stroke-linecap="round" stroke-linejoin="round"/> </g> <defs> <clipPath id="clip0_2085_392644"> <rect width="24" height="24" fill="white"/> </clipPath> </defs> </svg>
