<svg width="24" height="24" viewBox="0 0 24 24" fill="none" xmlns="http://www.w3.org/2000/svg"> <g clip-path="url(#clip0_4482_6832)"> <path d="M16 6.5H19" stroke="white" stroke-width="1.5" stroke-miterlimit="10" stroke-linecap="round" stroke-linejoin="round"/> <path d="M17.5 5V8" stroke="white" stroke-width="1.5" stroke-miterlimit="10" stroke-linecap="round" stroke-linejoin="round"/> <path d="M4.02 8C5.58 6.17 7.9 5 10.5 5C11.42 5 12.3 5.15 13.13 5.42C13.04 5.77 13 6.13 13 6.5C13 8.99 15.01 11 17.5 11C17.87 11 18.23 10.96 18.58 10.87C18.85 11.7 19 12.58 19 13.5C19 18.19 15.19 22 10.5 22C5.81 22 2 18.19 2 13.5" stroke="white" stroke-width="1.5" stroke-linecap="round" stroke-linejoin="round"/> <path d="M22 6.5C22 8.62 20.55 10.39 18.58 10.87C18.23 10.96 17.87 11 17.5 11C15.01 11 13 8.99 13 6.5C13 6.13 13.04 5.77 13.13 5.42C13.61 3.45 15.38 2 17.5 2C19.99 2 22 4.01 22 6.5Z" stroke="white" stroke-width="1.5" stroke-linecap="round" stroke-linejoin="round"/> <path d="M7.47998 16.3999V11.3799" stroke="white" stroke-width="1.5" stroke-linecap="round" stroke-linejoin="round"/> <path d="M12.5 16.3999V11.3799" stroke="white" stroke-width="1.5" stroke-linecap="round" stroke-linejoin="round"/> <path d="M12.4902 13.8901H7.49023" stroke="white" stroke-width="1.5" stroke-linecap="round" stroke-linejoin="round"/> </g> <defs> <clipPath id="clip0_4482_6832"> <rect width="24" height="24" fill="white"/> </clipPath> </defs> </svg>
