<svg width="24" height="24" viewBox="0 0 24 24" fill="none" xmlns="http://www.w3.org/2000/svg"> <g clip-path="url(#clip0_2085_392649)"> <path d="M13.6599 19.5106H10.3399C8.04994 19.5106 6.18994 17.6506 6.18994 15.3606V11.1406C6.18994 10.0406 7.08994 9.14062 8.18994 9.14062H15.8099C16.9099 9.14062 17.8099 10.0406 17.8099 11.1406V15.3606C17.8099 17.6506 15.9499 19.5106 13.6599 19.5106Z" stroke="white" stroke-width="1.5" stroke-linecap="round" stroke-linejoin="round"/> <path d="M17.8101 14.9506L20.1901 14.3606C20.7401 14.2206 21.1301 13.7206 21.1301 13.1506V11.6306C21.1301 10.9406 20.5701 10.3906 19.8901 10.3906H17.8201" stroke="white" stroke-width="1.5" stroke-linecap="round" stroke-linejoin="round"/> <path d="M6.18994 11.6309H17.8099" stroke="white" stroke-width="1.5" stroke-linecap="round" stroke-linejoin="round"/> <path d="M8.47998 3.46086C10.42 1.52086 13.58 1.52086 15.52 3.46086" stroke="white" stroke-width="1.5" stroke-linecap="round" stroke-linejoin="round"/> <path d="M10.2402 5.22164C11.2102 4.25164 12.7902 4.25164 13.7602 5.22164" stroke="white" stroke-width="1.5" stroke-linecap="round" stroke-linejoin="round"/> <path d="M12.6199 6.98133C12.6199 7.32133 12.3399 7.60133 11.9999 7.60133C11.6599 7.60133 11.3799 7.32133 11.3799 6.98133C11.3799 6.64133 11.6599 6.36133 11.9999 6.36133C12.3399 6.36133 12.6199 6.64133 12.6199 6.98133Z" fill="white"/> <path d="M14.28 22.0017H19.51C20.89 22.0017 22 20.8917 22 19.5117H2C2 20.8917 3.11 22.0017 4.49 22.0017H9.72" stroke="white" stroke-width="1.5" stroke-linecap="round" stroke-linejoin="round"/> </g> <defs> <clipPath id="clip0_2085_392649"> <rect width="24" height="24" fill="white"/> </clipPath> </defs> </svg>
