<svg width="24" height="24" viewBox="0 0 24 24" fill="none" xmlns="http://www.w3.org/2000/svg"> <g clip-path="url(#clip0_2085_392202)"> <path d="M2.90991 14L3.12991 15.51C3.32991 16.96 4.23991 18.22 5.54991 18.87L11.4099 21.77C12.0699 22.1 12.8599 22.07 13.4999 21.71L18.4099 18.9C19.5999 18.22 20.4099 17.03 20.5999 15.67L21.8299 7.07C22.2099 4.4 20.1299 2 17.4299 2H6.31991C3.61991 2 1.53991 4.4 1.91991 7.07L2.33991 10" stroke="white" stroke-width="1.5" stroke-linecap="round" stroke-linejoin="round"/> <path d="M7.42982 14.2204L7.54982 15.0804L11.8698 17.5504L16.1898 15.0804L16.7898 10.8804H6.94982L6.31982 6.44043H17.4298" stroke="white" stroke-width="1.5" stroke-linecap="round" stroke-linejoin="round"/> </g> <defs> <clipPath id="clip0_2085_392202"> <rect width="24" height="24" fill="white"/> </clipPath> </defs> </svg>
