<svg width="24" height="24" viewBox="0 0 24 24" fill="none" xmlns="http://www.w3.org/2000/svg"> <g clip-path="url(#clip0_4482_12845)"> <path d="M17.2602 10.9502H6.74023" stroke="white" stroke-width="1.5" stroke-linecap="round" stroke-linejoin="round"/> <path d="M9.04984 17.0001C9.99425 17.0001 10.7598 16.2345 10.7598 15.2901C10.7598 14.3457 9.99425 13.5801 9.04984 13.5801C8.10544 13.5801 7.33984 14.3457 7.33984 15.2901C7.33984 16.2345 8.10544 17.0001 9.04984 17.0001Z" stroke="white" stroke-width="1.5" stroke-linecap="round" stroke-linejoin="round"/> <path d="M14.8702 17.0001C15.8146 17.0001 16.5802 16.2345 16.5802 15.2901C16.5802 14.3457 15.8146 13.5801 14.8702 13.5801C13.9257 13.5801 13.1602 14.3457 13.1602 15.2901C13.1602 16.2345 13.9257 17.0001 14.8702 17.0001Z" stroke="white" stroke-width="1.5" stroke-linecap="round" stroke-linejoin="round"/> <path d="M13.16 15.0498H10.75" stroke="white" stroke-width="1.5" stroke-linecap="round" stroke-linejoin="round"/> <path d="M15.6799 10.9497L15.0699 7.26973C14.9699 6.65973 14.4399 6.21973 13.8199 6.21973H10.1699" stroke="white" stroke-width="1.5" stroke-linecap="round" stroke-linejoin="round"/> <path d="M10.1699 6.20996C9.54992 6.20996 9.02992 6.65996 8.91992 7.25996" stroke="white" stroke-width="1.5" stroke-linecap="round" stroke-linejoin="round"/> <path d="M8.93031 7.26953L8.32031 10.9495" stroke="white" stroke-width="1.5" stroke-linecap="round" stroke-linejoin="round"/> <path d="M22 12C22 17.52 17.52 22 12 22C6.48 22 2 17.52 2 12C2 6.48 6.48 2 12 2C15.85 2 19.19 4.18 20.87 7.37" stroke="white" stroke-width="1.5" stroke-linecap="round" stroke-linejoin="round"/> </g> <defs> <clipPath id="clip0_4482_12845"> <rect width="24" height="24" fill="white"/> </clipPath> </defs> </svg>
