<svg width="24" height="24" viewBox="0 0 24 24" fill="none" xmlns="http://www.w3.org/2000/svg"> <g clip-path="url(#clip0_2085_385261)"> <path d="M4.52979 5.77977C8.05979 7.54977 15.9098 7.54977 19.4498 5.77977H19.4598C16.9198 5.77977 16.2298 3.74977 15.7398 3.25977H8.26979C7.78979 3.73977 7.05978 5.78977 4.53978 5.78977L4.52979 5.77977Z" stroke="white" stroke-width="1.5" stroke-linecap="round" stroke-linejoin="round"/> <path d="M7.31 6.76C5.72 8.4 4.35 9.51 2 9.51C2 9.51 2.02 9.51 2.02 9.52C2.83 9.93 3.73 10.23 4.61 10.44C5.49 10.65 6.4 10.75 7.3 10.75H16.68C17.59 10.75 18.49 10.64 19.37 10.44C20.25 10.23 21.15 9.92 21.96 9.52L21.98 9.51C19.64 9.51 18.27 8.4 16.67 6.75" stroke="white" stroke-width="1.5" stroke-linecap="round" stroke-linejoin="round"/> <path d="M7.01978 10.7499V21.9999H4.52979V10.4199" stroke="white" stroke-width="1.5" stroke-linecap="round" stroke-linejoin="round"/> <path d="M19.47 10.4199V21.9999H16.98V10.7499" stroke="white" stroke-width="1.5" stroke-linecap="round" stroke-linejoin="round"/> <path d="M14.4898 15.7302C14.4898 17.1002 13.3798 18.2202 11.9998 18.2202C10.6198 18.2202 9.50977 17.1102 9.50977 15.7302C9.50977 14.3502 10.6198 13.2402 11.9998 13.2402C13.3798 13.2402 14.4898 14.3502 14.4898 15.7302Z" stroke="white" stroke-width="1.5" stroke-linecap="round" stroke-linejoin="round"/> <path d="M16.9802 2C16.9802 2.69 16.4202 3.24 15.7402 3.24" stroke="white" stroke-width="1.5" stroke-linecap="round" stroke-linejoin="round"/> <path d="M7.02002 2C7.02002 2.69 7.58002 3.24 8.26002 3.24" stroke="white" stroke-width="1.5" stroke-linecap="round" stroke-linejoin="round"/> <path d="M16.9801 20.7109H14.1201" stroke="white" stroke-width="1.5" stroke-linecap="round" stroke-linejoin="round"/> <path d="M9.88002 20.7109H7.02002" stroke="white" stroke-width="1.5" stroke-linecap="round" stroke-linejoin="round"/> <path d="M7.02002 15.7305H9.51002" stroke="white" stroke-width="1.5" stroke-linecap="round" stroke-linejoin="round"/> <path d="M14.4902 15.7305H16.9802" stroke="white" stroke-width="1.5" stroke-linecap="round" stroke-linejoin="round"/> <path d="M13.7598 17.4902L16.9798 20.7102" stroke="white" stroke-width="1.5" stroke-linecap="round" stroke-linejoin="round"/> <path d="M7.02002 20.7102L10.24 17.4902" stroke="white" stroke-width="1.5" stroke-linecap="round" stroke-linejoin="round"/> <path d="M10.24 13.97L7.02002 10.75" stroke="white" stroke-width="1.5" stroke-linecap="round" stroke-linejoin="round"/> <path d="M12 10.7598V13.2498" stroke="white" stroke-width="1.5" stroke-linecap="round" stroke-linejoin="round"/> <path d="M12 20.0007V18.2207" stroke="white" stroke-width="1.5" stroke-linecap="round" stroke-linejoin="round"/> <path d="M13.7598 13.97L16.9798 10.75" stroke="white" stroke-width="1.5" stroke-linecap="round" stroke-linejoin="round"/> </g> <defs> <clipPath id="clip0_2085_385261"> <rect width="24" height="24" fill="white"/> </clipPath> </defs> </svg>
