<svg width="24" height="24" viewBox="0 0 24 24" fill="none" xmlns="http://www.w3.org/2000/svg"> <g clip-path="url(#clip0_2085_385267)"> <path d="M14.3901 19.5098H14.4001H19.3801H21.9001V21.9998H15.6401H14.1201" stroke="white" stroke-width="1.5" stroke-linecap="round" stroke-linejoin="round"/> <path d="M9.8799 21.9998H8.1699H1.8999V19.5098H4.4399H9.4099" stroke="white" stroke-width="1.5" stroke-linecap="round" stroke-linejoin="round"/> <path d="M4.43994 19.5095V17.0195H19.3799V19.5095" stroke="white" stroke-width="1.5" stroke-linecap="round" stroke-linejoin="round"/> <path d="M19.3697 10.7109H4.42969L4.57969 11.3109C4.85969 12.4209 5.84969 13.2009 6.98969 13.2009H16.7997C17.9397 13.2009 18.9397 12.4209 19.2197 11.3109L19.3697 10.7109Z" stroke="white" stroke-width="1.5" stroke-linecap="round" stroke-linejoin="round"/> <path d="M15.5597 10.7107C16.6997 10.7107 17.6997 9.9307 17.9797 8.8207L18.1297 8.2207H5.67969L5.82969 8.8207C6.10969 9.9307 7.09969 10.7107 8.24969 10.7107" stroke="white" stroke-width="1.5" stroke-linecap="round" stroke-linejoin="round"/> <path d="M14.3199 8.22047C15.4599 8.22047 16.4599 7.44047 16.7299 6.33047L16.8799 5.73047H6.91992L7.06992 6.33047C7.34992 7.44047 8.33992 8.22047 9.48992 8.22047" stroke="white" stroke-width="1.5" stroke-linecap="round" stroke-linejoin="round"/> <path d="M13.0697 5.73023C14.2097 5.73023 15.2097 4.95023 15.4797 3.84023L15.6297 3.24023H8.15967L8.30967 3.84023C8.58967 4.95023 9.57967 5.73023 10.7197 5.73023" stroke="white" stroke-width="1.5" stroke-linecap="round" stroke-linejoin="round"/> <path d="M11.8999 2V3.24" stroke="white" stroke-width="1.5" stroke-linecap="round" stroke-linejoin="round"/> <path d="M16.8799 13.1992V17.0192" stroke="white" stroke-width="1.5" stroke-linecap="round" stroke-linejoin="round"/> <path d="M6.91992 17.0192V13.1992" stroke="white" stroke-width="1.5" stroke-linecap="round" stroke-linejoin="round"/> <path d="M9.40967 17.0192V13.1992" stroke="white" stroke-width="1.5" stroke-linecap="round" stroke-linejoin="round"/> <path d="M14.3901 13.1992V17.0192" stroke="white" stroke-width="1.5" stroke-linecap="round" stroke-linejoin="round"/> <path d="M8.16992 21.9995L10.6599 17.0195" stroke="white" stroke-width="1.5" stroke-linecap="round" stroke-linejoin="round"/> <path d="M13.1499 17.0195L15.6399 21.9995" stroke="white" stroke-width="1.5" stroke-linecap="round" stroke-linejoin="round"/> </g> <defs> <clipPath id="clip0_2085_385267"> <rect width="24" height="24" fill="white"/> </clipPath> </defs> </svg>
