<svg width="24" height="24" viewBox="0 0 24 24" fill="none" xmlns="http://www.w3.org/2000/svg"> <g clip-path="url(#clip0_2085_385562)"> <path d="M17.0998 11.9901C17.1398 11.3101 17.0298 10.6301 16.7898 10.0001C16.5498 9.37014 16.1698 8.79014 15.6898 8.31014C15.2098 7.83014 14.6298 7.46014 13.9998 7.21014C13.3698 6.97014 12.6898 6.86014 12.0098 6.90014C11.3298 6.94014 10.6698 7.12014 10.0698 7.43014C9.46982 7.74014 8.93982 8.18014 8.50982 8.71014C8.58982 9.22014 8.52982 9.74014 8.33982 10.2201C8.14982 10.7001 7.82982 11.1101 7.41982 11.4301C7.00982 11.7401 6.52982 11.9401 6.01982 12.0001C5.50982 12.0601 4.98982 11.9801 4.51982 11.7801C4.34982 11.7001 4.15982 11.6801 3.96982 11.7201C3.77982 11.7601 3.61982 11.8601 3.48982 12.0001C2.47982 13.1501 1.94982 14.6501 1.99982 16.1801C2.04982 17.7101 2.67982 19.1601 3.76982 20.2501C4.84982 21.3301 6.30982 21.9601 7.83982 22.0201C9.36982 22.0701 10.8598 21.5401 12.0198 20.5301C12.1598 20.4001 12.2598 20.2401 12.2998 20.0501C12.3398 19.8601 12.3198 19.6701 12.2398 19.5001C12.0298 19.0301 11.9598 18.5101 12.0198 18.0001C12.0798 17.4901 12.2798 17.0001 12.5898 16.6001C12.8998 16.1901 13.3198 15.8801 13.7998 15.6801C14.2798 15.4901 14.7998 15.4301 15.3098 15.5101" stroke="white" stroke-width="1.5" stroke-linecap="round" stroke-linejoin="round"/> <path d="M11.2998 12.7L21.9998 2" stroke="white" stroke-width="1.5" stroke-linecap="round" stroke-linejoin="round"/> <path d="M2.02002 21.9799L5.12002 18.8799" stroke="white" stroke-width="1.5" stroke-linecap="round" stroke-linejoin="round"/> <path d="M17.1299 4.24023L19.7699 6.88023" stroke="white" stroke-width="1.5" stroke-linecap="round" stroke-linejoin="round"/> <path d="M18.9097 2.45996L21.5597 5.10996" stroke="white" stroke-width="1.5" stroke-linecap="round" stroke-linejoin="round"/> <path d="M3.84961 15.8102C4.65961 15.9702 5.49961 15.8402 6.21961 15.4602C6.94961 15.0802 7.51961 14.4502 7.84961 13.7002" stroke="white" stroke-width="1.5" stroke-linecap="round" stroke-linejoin="round"/> <path d="M8.26998 20.2002C8.10998 19.3902 8.22998 18.5602 8.61998 17.8302C8.99998 17.1002 9.62998 16.5302 10.38 16.2002" stroke="white" stroke-width="1.5" stroke-linecap="round" stroke-linejoin="round"/> </g> <defs> <clipPath id="clip0_2085_385562"> <rect width="24" height="24" fill="white"/> </clipPath> </defs> </svg>
