<svg width="24" height="24" viewBox="0 0 24 24" fill="none" xmlns="http://www.w3.org/2000/svg"> <g clip-path="url(#clip0_4482_12369)"> <path d="M12 16.0498V18.7498" stroke="white" stroke-width="1.5" stroke-linecap="round" stroke-linejoin="round"/> <path d="M13.6191 20.3799H20.6491" stroke="white" stroke-width="1.5" stroke-linecap="round" stroke-linejoin="round"/> <path d="M3.34961 20.3799H10.3796" stroke="white" stroke-width="1.5" stroke-linecap="round" stroke-linejoin="round"/> <path d="M13.1492 19.2303C13.7792 19.8603 13.7792 20.8903 13.1492 21.5203C12.5192 22.1503 11.4892 22.1503 10.8592 21.5203C10.2292 20.8903 10.2292 19.8603 10.8592 19.2303C11.4892 18.6003 12.5192 18.6003 13.1492 19.2303Z" stroke="white" stroke-width="1.5" stroke-linecap="round" stroke-linejoin="round"/> <path d="M12 2C15.89 2 19.03 5.14 19.03 9.03C19.03 12.92 15.89 16.06 12 16.06" stroke="white" stroke-width="1.5" stroke-linecap="round" stroke-linejoin="round"/> <path d="M6.70996 4.39C7.99996 2.92 9.88996 2 12 2" stroke="white" stroke-width="1.5" stroke-linecap="round" stroke-linejoin="round"/> <path d="M11.9997 16.0495C8.10973 16.0495 4.96973 12.9095 4.96973 9.01953" stroke="white" stroke-width="1.5" stroke-linecap="round" stroke-linejoin="round"/> <path d="M10.57 2.82988C8.31 6.59988 8.31 11.4599 10.57 15.2299C11.23 16.3299 12.77 16.3299 13.43 15.2299C15.69 11.4599 15.69 6.59988 13.43 2.82988C12.77 1.72988 11.23 1.72988 10.57 2.82988Z" stroke="white" stroke-width="1.5" stroke-linecap="round" stroke-linejoin="round"/> <path d="M4.96973 9.03027H19.0197" stroke="white" stroke-width="1.5" stroke-linecap="round" stroke-linejoin="round"/> </g> <defs> <clipPath id="clip0_4482_12369"> <rect width="24" height="24" fill="white"/> </clipPath> </defs> </svg>
