<svg width="24" height="24" viewBox="0 0 24 24" fill="none" xmlns="http://www.w3.org/2000/svg"> <g clip-path="url(#clip0_2085_380997)"> <path d="M3.58008 11.1099V18.8399C3.58008 20.5799 4.99008 21.9999 6.74008 21.9999H17.2701C19.0101 21.9999 20.4301 20.5899 20.4301 18.8399V11.1099C20.4301 9.98995 19.9901 8.91995 19.2001 8.12995L18.6401 7.56995C18.4401 7.36995 18.3301 7.09995 18.3301 6.82995V5.06995" stroke="white" stroke-width="1.5" stroke-linecap="round" stroke-linejoin="round"/> <path d="M5.68006 5.06995V6.82995C5.68006 7.10995 5.57006 7.37995 5.37006 7.56995L4.81006 8.12995" stroke="white" stroke-width="1.5" stroke-linecap="round" stroke-linejoin="round"/> <path d="M6.20988 2H17.7899C18.6599 2 19.3699 2.71 19.3699 3.58C19.3699 4.45 18.6599 5.16 17.7899 5.16H6.20988C5.33988 5.16 4.62988 4.45 4.62988 3.58C4.62988 2.71 5.33988 2 6.20988 2Z" stroke="white" stroke-width="1.5" stroke-linecap="round" stroke-linejoin="round"/> <path d="M20.4201 14H17.0801C16.5201 14 15.9901 14.22 15.5901 14.62C14.6401 15.57 13.3401 16.11 12.0001 16.11C10.6501 16.11 9.36008 15.57 8.41008 14.62C8.02008 14.23 7.48008 14 6.92008 14H3.58008" stroke="white" stroke-width="1.5" stroke-linecap="round" stroke-linejoin="round"/> </g> <defs> <clipPath id="clip0_2085_380997"> <rect width="24" height="24" fill="white"/> </clipPath> </defs> </svg>
