<svg width="24" height="24" viewBox="0 0 24 24" fill="none" xmlns="http://www.w3.org/2000/svg"> <g clip-path="url(#clip0_2085_385762)"> <path d="M10.86 2.63977C11.22 2.55977 11.61 2.50977 12 2.50977C14.76 2.50977 17 4.74977 17 7.50977C17 10.2698 14.76 12.5098 12 12.5098C9.24 12.5098 7 10.2698 7 7.50977C7 6.83977 7.13 6.19977 7.37 5.60977" stroke="white" stroke-width="1.5" stroke-linecap="round" stroke-linejoin="round"/> <path d="M18.6798 20.24C18.7398 20.45 18.8398 20.66 18.9698 20.83C19.1098 21.01 19.2698 21.15 19.4698 21.26C19.6598 21.37 19.8698 21.44 20.0898 21.47C20.3098 21.5 20.5298 21.48 20.7498 21.43C20.9598 21.37 21.1698 21.27 21.3398 21.14C21.5198 21 21.6598 20.84 21.7698 20.64C21.8798 20.45 21.9498 20.24 21.9798 20.02C22.0098 19.8 21.9898 19.58 21.9398 19.36L20.2898 13.21L17.0298 14.09L18.6798 20.24Z" stroke="white" stroke-width="1.5" stroke-linecap="round" stroke-linejoin="round"/> <path d="M5.31995 20.24C5.25995 20.45 5.15995 20.66 5.02995 20.83C4.88995 21.01 4.72995 21.15 4.52995 21.26C4.33995 21.37 4.12995 21.44 3.90995 21.47C3.68995 21.5 3.46995 21.48 3.24995 21.43C3.03995 21.37 2.82995 21.27 2.65995 21.14C2.47995 21 2.33995 20.84 2.22995 20.64C2.11995 20.45 2.04995 20.24 2.01995 20.02C1.98995 19.8 2.00995 19.58 2.05995 19.36L3.70995 13.21L6.96995 14.09L5.31995 20.24Z" stroke="white" stroke-width="1.5" stroke-linecap="round" stroke-linejoin="round"/> <path d="M18.68 13.6498L17 7.50977" stroke="white" stroke-width="1.5" stroke-linecap="round" stroke-linejoin="round"/> <path d="M5.31982 13.6498L6.99982 7.50977" stroke="white" stroke-width="1.5" stroke-linecap="round" stroke-linejoin="round"/> </g> <defs> <clipPath id="clip0_2085_385762"> <rect width="24" height="24" fill="white"/> </clipPath> </defs> </svg>
