<svg width="24" height="24" viewBox="0 0 24 24" fill="none" xmlns="http://www.w3.org/2000/svg"> <g clip-path="url(#clip0_4482_6848)"> <path d="M7.08984 9.85965L7.45985 9.48965C8.29985 8.64965 9.58985 8.43965 10.6599 8.96965" stroke="white" stroke-width="1.5" stroke-miterlimit="10" stroke-linecap="round" stroke-linejoin="round"/> <path d="M16.9099 9.85965L16.5398 9.48965C15.6998 8.64965 14.4098 8.43965 13.3398 8.96965" stroke="white" stroke-width="1.5" stroke-miterlimit="10" stroke-linecap="round" stroke-linejoin="round"/> <path d="M22.3598 17.01C22.2098 17.43 21.9897 17.78 21.7297 18.07C21.6097 18.22 21.4698 18.35 21.3298 18.47C20.5898 19.1 19.6698 19.38 18.9598 19.49C18.8198 19.51 18.6998 19.52 18.5798 19.52C18.4998 19.53 18.4198 19.53 18.3498 19.53C18.2398 19.53 18.0798 19.47 17.9898 19.4C17.2598 18.81 15.8397 16.96 16.5297 14.94L16.5597 14.88C16.8897 13.98 17.8798 13.52 18.7698 13.85C18.9298 13.91 19.0597 13.99 19.1997 14.08C19.4997 14.3 19.7098 14.61 19.8198 14.97C19.8798 14.94 19.9297 14.89 20.0097 14.86C20.3997 14.66 20.8898 14.63 21.3498 14.79C21.4298 14.82 21.4998 14.85 21.5698 14.9C22.3098 15.29 22.6598 16.19 22.3598 17.01Z" stroke="white" stroke-width="1.5" stroke-linecap="round" stroke-linejoin="round"/> <path d="M3.34 7C5.07 4.01 8.3 2 12 2C17.52 2 22 6.48 22 12C22 13.01 21.85 13.98 21.57 14.9C21.5 14.85 21.43 14.82 21.35 14.79C20.89 14.63 20.4 14.66 20.01 14.86C19.93 14.89 19.88 14.94 19.82 14.97C19.71 14.61 19.5 14.3 19.2 14.08C19.06 13.99 18.93 13.91 18.77 13.85C17.88 13.52 16.89 13.98 16.56 14.88L16.53 14.94C15.84 16.96 17.26 18.81 17.99 19.4C18.08 19.47 18.24 19.53 18.35 19.53C18.42 19.53 18.5 19.53 18.58 19.52C16.82 21.07 14.52 22 12 22C6.48 22 2 17.52 2 12" stroke="white" stroke-width="1.5" stroke-miterlimit="10" stroke-linecap="round" stroke-linejoin="round"/> <path d="M11.5 13L11.71 13.17C12.23 13.61 12.84 13.97 13.5 14.25L12.8 15.13C12.62 15.35 12.62 15.64 12.8 15.87L13.5 16.75C12.84 17.03 12.23 17.39 11.71 17.83L11.5 18" stroke="white" stroke-width="1.5" stroke-miterlimit="10" stroke-linecap="round" stroke-linejoin="round"/> </g> <defs> <clipPath id="clip0_4482_6848"> <rect width="24" height="24" fill="white"/> </clipPath> </defs> </svg>
