<svg width="24" height="24" viewBox="0 0 24 24" fill="none" xmlns="http://www.w3.org/2000/svg"> <g clip-path="url(#clip0_2085_391964)"> <path d="M14.3496 4.97969C14.6596 4.78969 15.0196 4.67969 15.4096 4.67969C16.4196 4.67969 17.2596 5.40969 17.4296 6.36969C17.7696 6.51969 18.0496 6.75969 18.2596 7.05969C18.4896 7.39969 18.6296 7.79969 18.6296 8.23969C18.6296 9.15969 18.0196 9.93969 17.1896 10.1897C16.9996 10.2497 16.7896 10.2897 16.5796 10.2897C16.0996 10.2897 15.6496 10.1197 15.2996 9.83969C14.9496 10.4697 14.2796 10.8897 13.5096 10.8897C12.9096 10.8897 12.3696 10.6297 11.9996 10.2197C11.6296 10.6297 11.0896 10.8897 10.4896 10.8897C9.71963 10.8897 9.04963 10.4697 8.69963 9.83969C8.34963 10.1197 7.89963 10.2897 7.41963 10.2897C7.20963 10.2897 6.99963 10.2497 6.80963 10.1897C5.97963 9.93969 5.36963 9.15969 5.36963 8.23969C5.36963 7.79969 5.50963 7.39969 5.73963 7.05969C5.94963 6.75969 6.22963 6.51969 6.56963 6.36969C6.73963 5.40969 7.57963 4.67969 8.58963 4.67969C8.97963 4.67969 9.33963 4.78969 9.64963 4.97969" stroke="white" stroke-width="1.5" stroke-linecap="round" stroke-linejoin="round"/> <path d="M5.73981 7.06C5.39981 6.61 4.40981 4.93 5.80981 2C5.80981 2 7.75981 2.76 8.70981 4.68" stroke="white" stroke-width="1.5" stroke-linecap="round" stroke-linejoin="round"/> <path d="M15.29 4.68C16.24 2.75 18.19 2 18.19 2C19.59 4.93 18.6 6.62 18.26 7.06" stroke="white" stroke-width="1.5" stroke-linecap="round" stroke-linejoin="round"/> <path d="M18.3297 16.3498C18.3297 17.2298 17.9797 18.0198 17.3997 18.5898C16.8297 19.1598 16.0297 19.5198 15.1597 19.5198H15.1197C14.8697 19.5198 14.6497 19.7098 14.6097 19.9598C14.5297 20.4298 14.3097 20.9098 13.9297 21.2898C13.4897 21.7298 12.8797 21.9998 12.2197 21.9998H11.7997C10.5397 21.9998 9.56969 21.0398 9.39969 19.9598C9.35969 19.7098 9.14969 19.5198 8.88969 19.5198C7.14969 19.5198 5.69969 18.1298 5.67969 16.3898C5.67969 15.4998 6.02969 14.6898 6.60969 14.1098C6.67969 14.0398 6.74969 13.9798 6.81969 13.9198V10.1998C7.00969 10.2598 7.20969 10.2898 7.42969 10.2898C7.90969 10.2898 8.35969 10.1198 8.70969 9.83984C9.05969 10.4698 9.72969 10.8898 10.4997 10.8898C11.0997 10.8898 11.6397 10.6298 12.0097 10.2198C12.3797 10.6298 12.9197 10.8898 13.5197 10.8898C14.2897 10.8898 14.9597 10.4598 15.3097 9.83984C15.6597 10.1198 16.0997 10.2898 16.5897 10.2898C16.7997 10.2898 16.9997 10.2598 17.1997 10.1998V13.9198C17.8997 14.4998 18.3397 15.3798 18.3397 16.3498H18.3297Z" stroke="white" stroke-width="1.5" stroke-linecap="round" stroke-linejoin="round"/> <path d="M10.0798 13.4999C10.0798 13.8399 9.79984 14.1199 9.45984 14.1199C9.11984 14.1199 8.83984 13.8399 8.83984 13.4999C8.83984 13.1599 9.11984 12.8799 9.45984 12.8799C9.79984 12.8799 10.0798 13.1599 10.0798 13.4999Z" fill="white"/> <path d="M13.9199 13.4999C13.9199 13.8399 14.1999 14.1199 14.5399 14.1199C14.8799 14.1199 15.1599 13.8399 15.1599 13.4999C15.1599 13.1599 14.8799 12.8799 14.5399 12.8799C14.1999 12.8799 13.9199 13.1599 13.9199 13.4999Z" fill="white"/> <path d="M11.0898 17.2402C11.2298 17.6102 11.5798 17.8702 11.9998 17.8702C12.4198 17.8702 12.7698 17.6102 12.9098 17.2402" stroke="white" stroke-width="1.5" stroke-linecap="round" stroke-linejoin="round"/> <path d="M12 17.8701V22.0001" stroke="white" stroke-width="1.5" stroke-linecap="round" stroke-linejoin="round"/> </g> <defs> <clipPath id="clip0_2085_391964"> <rect width="24" height="24" fill="white"/> </clipPath> </defs> </svg>
