<svg width="24" height="24" viewBox="0 0 24 24" fill="none" xmlns="http://www.w3.org/2000/svg"> <g clip-path="url(#clip0_4418_3815)"> <path d="M20.0302 2.48047L4.18018 18.3305" stroke="white" stroke-width="1.5" stroke-linecap="round" stroke-linejoin="round"/> <path d="M13.6001 2.16992C15.0601 2.48992 16.3601 3.26992 17.3601 4.34992" stroke="white" stroke-width="1.5" stroke-linecap="round" stroke-linejoin="round"/> <path d="M5.25008 12.9998C4.83008 12.0298 4.58008 10.9798 4.58008 9.89977C4.58008 6.51976 6.57008 3.63977 9.38008 2.50977" stroke="white" stroke-width="1.5" stroke-linecap="round" stroke-linejoin="round"/> <path d="M19.0602 7.30078C20.2802 11.1808 18.3102 15.0808 15.5202 16.8708V18.0308C15.5202 18.3208 15.6202 18.9908 14.6202 18.9908H9.42016C8.39016 18.9908 8.52016 18.5608 8.52016 18.0308V16.8708C8.04016 16.5708 7.59016 16.2008 7.16016 15.7708" stroke="white" stroke-width="1.5" stroke-linecap="round" stroke-linejoin="round"/> <path d="M8.5 21.9992C10.79 21.3492 13.21 21.3492 15.5 21.9992" stroke="white" stroke-width="1.5" stroke-linecap="round" stroke-linejoin="round"/> </g> <defs> <clipPath id="clip0_4418_3815"> <rect width="24" height="24" fill="white"/> </clipPath> </defs> </svg>
