<svg width="24" height="24" viewBox="0 0 24 24" fill="none" xmlns="http://www.w3.org/2000/svg"> <g clip-path="url(#clip0_4482_7398)"> <path d="M17.0001 8.41975C15.5101 10.2998 16.3701 14.7898 12.9401 16.0998C11.3401 16.7098 9.49005 16.2998 8.27005 15.1398C8.03005 14.9098 7.81005 14.6398 7.62005 14.3498C6.11005 11.9398 7.18005 8.87976 9.70005 7.85976C12.09 6.86976 14.8001 7.07975 17.0001 8.41975Z" stroke="white" stroke-width="1.5" stroke-linecap="round" stroke-linejoin="round"/> <path d="M11.6799 11.3203C9.53986 12.6303 8.05986 14.7903 7.60986 17.2603" stroke="white" stroke-width="1.5" stroke-linecap="round" stroke-linejoin="round"/> <path d="M2 12C2 17.52 6.48 22 12 22C17.52 22 22 17.52 22 12C22 6.48 17.52 2 12 2C8.63 2 5.66 3.66001 3.84 6.21001" stroke="white" stroke-width="1.5" stroke-linecap="round" stroke-linejoin="round"/> </g> <defs> <clipPath id="clip0_4482_7398"> <rect width="24" height="24" fill="white"/> </clipPath> </defs> </svg>
