<svg width="24" height="24" viewBox="0 0 24 24" fill="none" xmlns="http://www.w3.org/2000/svg"> <g clip-path="url(#clip0_4482_7034)"> <path d="M8.2998 20C8.2998 21.1 9.1998 22 10.2998 22H13.7098C14.8098 22 15.7098 21.1 15.7098 20V13C15.7098 12.45 15.2598 12 14.7098 12H9.2998C8.7498 12 8.2998 12.45 8.2998 13V15.82" stroke="white" stroke-width="1.5" stroke-miterlimit="10" stroke-linecap="round" stroke-linejoin="round"/> <path d="M14.5802 12.0003H9.43018V10.0703C9.43018 9.52031 9.88018 9.07031 10.4302 9.07031H13.5802C14.1302 9.07031 14.5802 9.52031 14.5802 10.0703V12.0003Z" stroke="white" stroke-width="1.5" stroke-miterlimit="10" stroke-linecap="round" stroke-linejoin="round"/> <path d="M13.1699 3.38966L11.2199 2.08966C10.8599 1.84966 10.3799 2.10965 10.3799 2.53965V9.06967H13.6099V4.21966C13.6199 3.88966 13.4499 3.57966 13.1699 3.38966Z" stroke="white" stroke-width="1.5" stroke-miterlimit="10" stroke-linecap="round" stroke-linejoin="round"/> <path d="M8.5 15H15.5" stroke="white" stroke-width="1.5" stroke-miterlimit="10" stroke-linecap="round" stroke-linejoin="round"/> </g> <defs> <clipPath id="clip0_4482_7034"> <rect width="24" height="24" fill="white"/> </clipPath> </defs> </svg>
