<svg width="24" height="24" viewBox="0 0 24 24" fill="none" xmlns="http://www.w3.org/2000/svg"> <g clip-path="url(#clip0_4482_7041)"> <path d="M3.71977 15.0401C2.93977 15.8201 2.93977 17.0901 3.71977 17.8701L6.12977 20.2801C6.90977 21.0601 8.17976 21.0601 8.95976 20.2801L13.9098 15.3301C14.2998 14.9401 14.2998 14.3101 13.9098 13.9201L10.0898 10.1001C9.69976 9.71012 9.06976 9.71012 8.67976 10.1001L6.83976 11.9401" stroke="white" stroke-width="1.5" stroke-miterlimit="10" stroke-linecap="round" stroke-linejoin="round"/> <path d="M13.8202 13.8198L10.1802 10.1798L11.5402 8.81984C11.9302 8.42984 12.5602 8.42984 12.9502 8.81984L15.1802 11.0498C15.5702 11.4398 15.5702 12.0698 15.1802 12.4598L13.8202 13.8198Z" stroke="white" stroke-width="1.5" stroke-miterlimit="10" stroke-linecap="round" stroke-linejoin="round"/> <path d="M18.9202 6.7404L18.4602 4.4404C18.3802 4.0204 17.8602 3.8604 17.5502 4.1604L12.9302 8.78039L15.2202 11.0704L18.6502 7.64039C18.8802 7.41039 18.9802 7.0704 18.9202 6.7404Z" stroke="white" stroke-width="1.5" stroke-miterlimit="10" stroke-linecap="round" stroke-linejoin="round"/> <path d="M12.3499 16.6004L7.3999 11.6504" stroke="white" stroke-width="1.5" stroke-miterlimit="10" stroke-linecap="round" stroke-linejoin="round"/> </g> <defs> <clipPath id="clip0_4482_7041"> <rect width="24" height="24" fill="white"/> </clipPath> </defs> </svg>
