<svg width="24" height="24" viewBox="0 0 24 24" fill="none" xmlns="http://www.w3.org/2000/svg"> <g clip-path="url(#clip0_4482_2579)"> <path d="M21.9998 12C21.9998 6.48 17.5198 2 11.9998 2C8.29985 2 5.06984 4.01 3.33984 7" stroke="white" stroke-width="1.5" stroke-miterlimit="10" stroke-linecap="round"/> <path d="M12 22C6.48 22 2 17.52 2 12" stroke="white" stroke-width="1.5" stroke-miterlimit="10" stroke-linecap="round"/> <path d="M21.9999 18.62C21.9999 19.4 21.7199 20.17 21.1899 20.78C20.5499 21.51 19.5799 22 18.3199 22C17.7099 22 17.1599 21.91 16.6799 21.72C15.3799 21.24 14.5899 20.15 14.6299 18.62C14.6899 16.25 17.2799 15.72 17.2299 12C17.2399 12 21.9999 14.82 21.9999 18.62Z" stroke="white" stroke-width="1.5" stroke-miterlimit="10" stroke-linecap="round" stroke-linejoin="round"/> </g> <defs> <clipPath id="clip0_4482_2579"> <rect width="24" height="24" fill="white"/> </clipPath> </defs> </svg>
