<svg width="24" height="24" viewBox="0 0 24 24" fill="none" xmlns="http://www.w3.org/2000/svg"> <g clip-path="url(#clip0_4482_6883)"> <path d="M6.84986 13.5L7.2699 10.74C7.5099 9.16001 8.86991 8 10.4599 8H13.5299C15.1199 8 16.4799 9.16001 16.7199 10.74L17.8799 18.28C18.1799 20.24 16.6699 22 14.6899 22H9.29987C7.31987 22 5.80987 20.24 6.10987 18.28" stroke="white" stroke-width="1.5" stroke-miterlimit="10" stroke-linecap="round" stroke-linejoin="round"/> <path d="M13.5 6H10.5C9.4 6 8.5 5.1 8.5 4C8.5 2.9 9.4 2 10.5 2H13.5C14.6 2 15.5 2.9 15.5 4C15.5 5.1 14.6 6 13.5 6Z" stroke="white" stroke-width="1.5" stroke-miterlimit="10" stroke-linecap="round" stroke-linejoin="round"/> <path d="M10 6V8" stroke="white" stroke-width="1.5" stroke-miterlimit="10" stroke-linecap="round" stroke-linejoin="round"/> <path d="M14 6V8" stroke="white" stroke-width="1.5" stroke-miterlimit="10" stroke-linecap="round" stroke-linejoin="round"/> <path d="M10.4902 15H10.5002" stroke="white" stroke-width="2" stroke-miterlimit="10" stroke-linecap="round" stroke-linejoin="round"/> <path d="M13.5 15H13.51" stroke="white" stroke-width="2" stroke-miterlimit="10" stroke-linecap="round" stroke-linejoin="round"/> <path d="M10.4902 18H10.5002" stroke="white" stroke-width="2" stroke-miterlimit="10" stroke-linecap="round" stroke-linejoin="round"/> <path d="M13.5 18H13.51" stroke="white" stroke-width="2" stroke-miterlimit="10" stroke-linecap="round" stroke-linejoin="round"/> </g> <defs> <clipPath id="clip0_4482_6883"> <rect width="24" height="24" fill="white"/> </clipPath> </defs> </svg>
