<svg width="24" height="24" viewBox="0 0 24 24" fill="none" xmlns="http://www.w3.org/2000/svg"> <g clip-path="url(#clip0_2085_392334)"> <path d="M13.2498 2.11035C16.7798 2.70035 19.4698 5.77035 19.4698 9.47035C19.4698 11.1504 18.9098 12.7404 17.9798 13.9904L11.9998 22.0004L6.01978 13.9904C5.08978 12.7404 4.52979 11.1504 4.52979 9.47035C4.52979 6.21035 6.60979 3.45035 9.50979 2.43035" stroke="white" stroke-width="1.5" stroke-linecap="round" stroke-linejoin="round"/> <path d="M10.7598 4.49023H13.2498L14.4898 5.74023L11.9998 8.23023L9.50977 5.74023L10.7498 4.49023H10.7598Z" stroke="white" stroke-width="1.5" stroke-linecap="round" stroke-linejoin="round"/> <path d="M15.73 12.0007C15.73 14.0607 14.06 15.7307 12 15.7307C9.94002 15.7307 8.27002 14.0607 8.27002 12.0007C8.27002 9.9407 9.94002 8.2207 12 8.2207C14.06 8.2207 15.73 9.9307 15.73 12.0007Z" stroke="white" stroke-width="1.5" stroke-linecap="round" stroke-linejoin="round"/> <path d="M7.02002 22H16.98" stroke="white" stroke-width="1.5" stroke-linecap="round" stroke-linejoin="round"/> </g> <defs> <clipPath id="clip0_2085_392334"> <rect width="24" height="24" fill="white"/> </clipPath> </defs> </svg>
