<svg width="24" height="24" viewBox="0 0 24 24" fill="none" xmlns="http://www.w3.org/2000/svg"> <g clip-path="url(#clip0_2085_385771)"> <path d="M2 9.08961V15.6296C2 16.8696 3 17.8696 4.24 17.8696H19.76C21 17.8696 22 16.8696 22 15.6296V5.08961C22 3.84961 21 2.84961 19.76 2.84961H4.24C3 2.84961 2 3.84961 2 5.08961" stroke="white" stroke-width="1.5" stroke-linecap="round" stroke-linejoin="round"/> <path d="M5.06982 6.85938H9.00982" stroke="white" stroke-width="1.5" stroke-linecap="round" stroke-linejoin="round"/> <path d="M5.06982 10.3594H9.00982" stroke="white" stroke-width="1.5" stroke-linecap="round" stroke-linejoin="round"/> <path d="M7.93018 13.8691H9.01018" stroke="white" stroke-width="1.5" stroke-linecap="round" stroke-linejoin="round"/> <path d="M18.9898 6.85938H15.0498" stroke="white" stroke-width="1.5" stroke-linecap="round" stroke-linejoin="round"/> <path d="M18.9898 10.3594H15.0498" stroke="white" stroke-width="1.5" stroke-linecap="round" stroke-linejoin="round"/> <path d="M16.1298 13.8691H15.0498" stroke="white" stroke-width="1.5" stroke-linecap="round" stroke-linejoin="round"/> <path d="M12 17.8696V2.84961" stroke="white" stroke-width="1.5" stroke-linecap="round" stroke-linejoin="round"/> <path d="M3.9502 21.1496V17.8496" stroke="white" stroke-width="1.5" stroke-linecap="round" stroke-linejoin="round"/> <path d="M20.0498 21.1496V17.8496" stroke="white" stroke-width="1.5" stroke-linecap="round" stroke-linejoin="round"/> </g> <defs> <clipPath id="clip0_2085_385771"> <rect width="24" height="24" fill="white"/> </clipPath> </defs> </svg>
