<svg width="24" height="24" viewBox="0 0 24 24" fill="none" xmlns="http://www.w3.org/2000/svg"> <g clip-path="url(#clip0_2085_390221)"> <path d="M6.82031 14.1901L8.91031 11.9401C8.91031 11.9401 8.91031 11.9401 8.92031 11.9401C9.21031 12.2401 9.69031 12.2401 9.98031 11.9401C10.2803 11.6501 10.2803 11.1701 9.98031 10.8701L9.93031 10.8201L10.5803 10.1201L10.6103 10.1501C10.9003 10.4401 11.3803 10.4401 11.6703 10.1501C11.9603 9.86008 11.9703 9.37008 11.6703 9.08008C11.6503 9.06008 11.6303 9.04008 11.6003 9.02008L12.2603 8.32008H12.2703C12.5603 8.62008 13.0403 8.62008 13.3303 8.33008C13.6203 8.04008 13.6303 7.55008 13.3303 7.26008C13.3303 7.24008 13.3003 7.23008 13.2803 7.21008L14.8503 5.52008C14.8503 5.52008 16.8303 5.15008 19.1003 3.99008L20.0803 3.45008C20.7203 3.06008 21.3703 2.61008 21.9903 2.08008C21.9903 2.08008 22.3203 6.46008 19.6003 9.41008C19.5603 9.45008 19.5203 9.50008 19.4703 9.54008" stroke="white" stroke-width="1.5" stroke-linecap="round" stroke-linejoin="round"/> <path d="M8.96045 16.3396L9.73045 15.5696L10.9604 16.2296C10.9604 16.2296 12.4204 15.2796 14.2104 13.9696L15.1804 13.2496C15.2304 13.2096 15.2704 13.1796 15.3204 13.1396" stroke="white" stroke-width="1.5" stroke-linecap="round" stroke-linejoin="round"/> <path d="M2.98021 18.0096L2.44021 18.5496C1.98021 19.0096 1.98021 19.7696 2.44021 20.2296L4.04021 21.8296C4.28021 22.0696 4.66021 22.0696 4.90021 21.8296L5.17021 21.5596C5.31021 21.4196 5.37021 21.2096 5.31021 21.0096L5.09021 20.2596L7.49021 17.8596L8.82021 17.9196C9.02021 17.9196 9.22021 17.8496 9.36021 17.7096L9.55021 17.5196C9.70021 17.3696 9.70021 17.1096 9.55021 16.9596L6.49021 13.8996C6.34021 13.7496 6.08021 13.7496 5.93021 13.8996L5.66021 14.1696C5.49021 14.3396 5.38021 14.5496 5.35021 14.7896L5.19021 15.7996L3.82021 17.1696L2.97021 18.0196L2.98021 18.0096Z" stroke="white" stroke-width="1.5" stroke-linecap="round" stroke-linejoin="round"/> </g> <defs> <clipPath id="clip0_2085_390221"> <rect width="24" height="24" fill="white"/> </clipPath> </defs> </svg>
