<svg width="24" height="24" viewBox="0 0 24 24" fill="none" xmlns="http://www.w3.org/2000/svg"> <g clip-path="url(#clip0_4482_7299)"> <path d="M9.57012 21.9995C8.43012 21.9995 7.36012 21.4495 6.69012 20.5195L2.76012 15.0095C2.22012 14.2595 2.20008 13.2595 2.72008 12.4895C3.15008 11.8395 3.85011 11.4995 4.56011 11.4995C5.13011 11.4995 5.69012 11.7095 6.13012 12.1495L7.75011 13.7595V10.4795C7.75011 9.23953 8.66014 8.10952 9.90014 8.00952C10.6301 7.94952 11.3001 8.21953 11.7601 8.68953C12.1601 9.07953 12.4101 9.62953 12.4501 10.2295C12.4501 10.2395 12.4501 4.24953 12.4501 4.24953C12.4501 3.62953 12.7001 3.06953 13.1101 2.65953C13.5601 2.20953 14.1901 1.94952 14.8801 2.00952C16.0701 2.09952 16.9501 3.18953 16.9501 4.37953V9.52953" stroke="white" stroke-width="1.5" stroke-miterlimit="10" stroke-linecap="round" stroke-linejoin="round"/> <path d="M16.9602 4.6299C16.9602 4.6199 16.9602 10.6099 16.9602 10.6099C17.0002 10.0099 17.2402 9.4699 17.6502 9.0699C18.1102 8.5999 18.7802 8.32989 19.5102 8.38989C20.7502 8.48989 21.6602 9.61989 21.6602 10.8599V14.1399V16.9999C21.6602 19.7599 19.4202 21.9999 16.6602 21.9999H15.4302" stroke="white" stroke-width="1.5" stroke-miterlimit="10" stroke-linecap="round" stroke-linejoin="round"/> <path d="M12.4502 10.0098V11.9998" stroke="white" stroke-width="1.5" stroke-miterlimit="10" stroke-linecap="round" stroke-linejoin="round"/> <path d="M16.96 10.0098V11.9998" stroke="white" stroke-width="1.5" stroke-miterlimit="10" stroke-linecap="round" stroke-linejoin="round"/> </g> <defs> <clipPath id="clip0_4482_7299"> <rect width="24" height="24" fill="white"/> </clipPath> </defs> </svg>
