<svg width="24" height="24" viewBox="0 0 24 24" fill="none" xmlns="http://www.w3.org/2000/svg"> <g clip-path="url(#clip0_2085_381322)"> <path d="M16.4401 12.56H13.1101M16.4401 15.89H12.0001M16.4401 19.22H13.1101M7.56006 14.57V19.77C7.56006 21 8.55006 21.99 9.78006 21.99H14.2201C15.4501 21.99 16.4401 21 16.4401 19.77V11.44C16.4401 10.21 15.4501 9.22 14.2201 9.22H9.78006C8.55006 9.22 7.56006 10.21 7.56006 11.44M9.22006 9.22H14.7801C15.3901 9.22 15.8901 8.72 15.8901 8.11V7.55C15.8901 6.94 15.3901 6.44 14.7801 6.44H9.22006C8.61006 6.44 8.11006 6.94 8.11006 7.55V8.11C8.11006 8.72 8.61006 9.22 9.22006 9.22ZM10.8901 3.11V3.92C10.8901 4.24 10.8101 4.56 10.6601 4.84L9.78006 6.45H14.2201L13.3401 4.84C13.1901 4.56 13.1101 4.24 13.1101 3.92V3.11C13.1101 2.5 12.6101 2 12.0001 2C11.3901 2 10.8901 2.5 10.8901 3.11Z" stroke="white" stroke-width="1.5" stroke-linecap="round"/> </g> <defs> <clipPath id="clip0_2085_381322"> <rect width="24" height="24" fill="white"/> </clipPath> </defs> </svg>
