<svg width="24" height="24" viewBox="0 0 24 24" fill="none" xmlns="http://www.w3.org/2000/svg"> <g clip-path="url(#clip0_2085_392209)"> <path d="M6.44 5.33V3.11C6.44 2.5 5.94 2 5.33 2H3.11C2.5 2 2 2.5 2 3.11V5.33C2 5.94 2.5 6.44 3.11 6.44H5.33C5.94 6.44 6.44 5.94 6.44 5.33Z" stroke="white" stroke-width="1.5" stroke-linecap="round" stroke-linejoin="round"/> <path d="M7.37986 14.2196V12.1696C7.37986 11.5596 6.87986 11.0596 6.26986 11.0596H4.21986C3.60986 11.0596 3.10986 11.5596 3.10986 12.1696V14.2196C3.10986 14.8296 3.60986 15.3296 4.21986 15.3296H6.26986C6.87986 15.3296 7.37986 14.8296 7.37986 14.2196Z" stroke="white" stroke-width="1.5" stroke-linecap="round" stroke-linejoin="round"/> <path d="M14.2198 8.66984V6.44984C14.2198 5.83984 13.7198 5.33984 13.1098 5.33984H10.8898C10.2798 5.33984 9.77979 5.83984 9.77979 6.44984V8.66984C9.77979 9.27984 10.2798 9.77984 10.8898 9.77984H13.1098C13.7198 9.77984 14.2198 9.27984 14.2198 8.66984Z" stroke="white" stroke-width="1.5" stroke-linecap="round" stroke-linejoin="round"/> <path d="M17.9999 21.9999H20.8899C21.4999 21.9999 21.9999 21.4999 21.9999 20.8899V9.77992C21.9999 9.15992 21.4999 8.66992 20.8899 8.66992H18.6699C18.0499 8.66992 17.5599 9.15992 17.5599 9.77992V13.1099H14.2199C13.6099 13.1099 13.1099 13.6099 13.1099 14.2199V17.5599H9.77992C9.15992 17.5599 8.66992 18.0499 8.66992 18.6699V20.8899C8.66992 21.4999 9.15992 21.9999 9.77992 21.9999H13.9999" stroke="white" stroke-width="1.5" stroke-linecap="round" stroke-linejoin="round"/> </g> <defs> <clipPath id="clip0_2085_392209"> <rect width="24" height="24" fill="white"/> </clipPath> </defs> </svg>
