<svg width="24" height="24" viewBox="0 0 24 24" fill="none" xmlns="http://www.w3.org/2000/svg"> <g clip-path="url(#clip0_4482_13440)"> <path d="M14 12C15.38 12 16.5 10.88 16.5 9.5C16.5 8.12 15.38 7 14 7C12.62 7 11.5 8.12 11.5 9.5C11.5 10.88 12.62 12 14 12Z" stroke="white" stroke-width="1.5" stroke-linecap="round" stroke-linejoin="round"/> <path d="M2 11.5C2 9.29 3.79 7.5 6 7.5V12.5C6 14.71 7.79 16.5 10 16.5H18V17.5C18 19.71 16.21 21.5 14 21.5H6C3.79 21.5 2 19.71 2 17.5V15.26" stroke="white" stroke-width="1.5" stroke-linecap="round" stroke-linejoin="round"/> <path d="M18 2.5H10C7.79086 2.5 6 4.29086 6 6.5V12.5C6 14.7091 7.79086 16.5 10 16.5H18C20.2091 16.5 22 14.7091 22 12.5V6.5C22 4.29086 20.2091 2.5 18 2.5Z" stroke="white" stroke-width="1.5" stroke-linecap="round" stroke-linejoin="round"/> <path d="M9.75 13.5H10.52" stroke="white" stroke-width="1.5" stroke-linecap="round" stroke-linejoin="round"/> <path d="M17.4805 5.5H18.2505" stroke="white" stroke-width="1.5" stroke-linecap="round" stroke-linejoin="round"/> </g> <defs> <clipPath id="clip0_4482_13440"> <rect width="24" height="24" fill="white"/> </clipPath> </defs> </svg>
