<svg width="24" height="24" viewBox="0 0 24 24" fill="none" xmlns="http://www.w3.org/2000/svg"> <g clip-path="url(#clip0_4482_7039)"> <path d="M12.01 12.6301C11.49 13.4601 10.06 14.5201 8.91 14.4601C7.59 14.5101 6.25 13.7101 6 12.3601V12.0801C6.14 11.8301 6.23999 11.7901 6.51999 11.8501C8.04999 12.1501 8.64999 10.3501 9.79999 9.76007C10.59 9.36007 11.38 9.52007 11.96 10.1801C11.97 10.1901 11.98 10.2201 11.99 10.2401V10.2501C12.38 11.0001 12.39 11.8801 12.01 12.6301Z" stroke="white" stroke-width="1.5" stroke-miterlimit="10" stroke-linecap="round" stroke-linejoin="round"/> <path d="M18.0002 12.2199C17.9802 12.7199 17.7703 13.1399 17.4203 13.4899C16.7203 14.2199 15.8502 14.5299 14.8602 14.4399C13.6202 14.3299 12.6802 13.7099 12.0302 12.6599C12.0202 12.6499 12.0102 12.6399 12.0002 12.6199C12.3802 11.8699 12.3702 10.9899 11.9902 10.2299V10.2199C12.1802 9.98986 12.3902 9.80986 12.6302 9.69986C13.1902 9.42986 13.7302 9.47986 14.2702 9.76986C14.5602 9.92986 14.8202 10.1499 15.0302 10.3999C15.3502 10.7699 15.6602 11.1399 16.0502 11.4299C16.3402 11.6499 16.6603 11.8299 17.0403 11.8499C17.2003 11.8599 17.3602 11.8399 17.5302 11.8099C17.8102 11.7699 18.0102 11.9199 18.0002 12.2199Z" stroke="white" stroke-width="1.5" stroke-miterlimit="10"/> <path d="M2 12C2 17.52 6.48 22 12 22C17.52 22 22 17.52 22 12C22 6.48 17.52 2 12 2C8.55 2 5.49999 3.75 3.70999 6.41" stroke="white" stroke-width="1.5" stroke-miterlimit="10" stroke-linecap="round" stroke-linejoin="round"/> </g> <defs> <clipPath id="clip0_4482_7039"> <rect width="24" height="24" fill="white"/> </clipPath> </defs> </svg>
