<svg width="24" height="24" viewBox="0 0 24 24" fill="none" xmlns="http://www.w3.org/2000/svg"> <g clip-path="url(#clip0_2085_380987)"> <path d="M14.5999 7L13.3999 10" stroke="white" stroke-width="1.5" stroke-linecap="round" stroke-linejoin="round"/> <path d="M10.5999 7L9.3999 10" stroke="white" stroke-width="1.5" stroke-linecap="round" stroke-linejoin="round"/> <path d="M19.7702 14.02L18.8602 19.93C18.6902 21.02 17.7602 21.82 16.6602 21.82H7.27016C6.17016 21.82 5.23016 21.02 5.07016 19.93L4.16016 14.02" stroke="white" stroke-width="1.5" stroke-linecap="round" stroke-linejoin="round"/> <path d="M4.09992 9.56006C2.89992 9.56006 1.91992 10.5301 1.91992 11.7401V11.8501C1.91992 13.0501 2.88992 14.0301 4.09992 14.0301H19.8199C21.0199 14.0301 21.9999 13.0601 21.9999 11.8501V11.7401C21.9999 10.5401 21.0299 9.56006 19.8199 9.56006C19.4899 5.47006 16.0699 2.31006 11.9599 2.31006C9.13992 2.31006 6.63992 3.80006 5.23992 6.06006" stroke="white" stroke-width="1.5" stroke-linecap="round" stroke-linejoin="round"/> </g> <defs> <clipPath id="clip0_2085_380987"> <rect width="24" height="24" fill="white"/> </clipPath> </defs> </svg>
