<svg width="24" height="24" viewBox="0 0 24 24" fill="none" xmlns="http://www.w3.org/2000/svg"> <g clip-path="url(#clip0_4482_8823)"> <path d="M18.9896 19.0699L4.84961 4.92993" stroke="white" stroke-width="1.5" stroke-linecap="round" stroke-linejoin="round"/> <path d="M3.12992 7.23C4.81992 4.11 8.12992 2 11.9199 2C17.4399 2 21.9199 6.48 21.9199 12C21.9199 17.52 17.4399 22 11.9199 22C6.39992 22 1.91992 17.52 1.91992 12" stroke="white" stroke-width="1.5" stroke-linecap="round" stroke-linejoin="round"/> <path d="M10.8701 10.95H16.1301C17.0001 10.95 17.7101 11.66 17.7101 12.53C17.7101 13.4 17.0001 14.11 16.1301 14.11H14.0201" stroke="white" stroke-width="1.5" stroke-linecap="round" stroke-linejoin="round"/> <path d="M10.3399 14.11H7.70988C6.83988 14.11 6.12988 13.4 6.12988 12.53C6.12988 11.66 6.83988 10.95 7.70988 10.95H7.93988" stroke="white" stroke-width="1.5" stroke-linecap="round" stroke-linejoin="round"/> <path d="M13.5 5.15991V5.18991C13.5 6.04991 14.21 6.74991 15.08 6.73991C15.94 6.73991 16.65 7.42991 16.66 8.28991V8.31991" stroke="white" stroke-width="1.5" stroke-linecap="round" stroke-linejoin="round"/> </g> <defs> <clipPath id="clip0_4482_8823"> <rect width="24" height="24" fill="white"/> </clipPath> </defs> </svg>
