<svg width="24" height="24" viewBox="0 0 24 24" fill="none" xmlns="http://www.w3.org/2000/svg"> <g clip-path="url(#clip0_4482_15217)"> <path d="M10.6104 12H7.83043C7.06275 12 6.44043 12.6223 6.44043 13.39V16.17C6.44043 16.9377 7.06275 17.56 7.83043 17.56H10.6104C11.3781 17.56 12.0004 16.9377 12.0004 16.17V13.39C12.0004 12.6223 11.3781 12 10.6104 12Z" stroke="white" stroke-width="1.5" stroke-linecap="round" stroke-linejoin="round"/> <path d="M16.17 12H13.39C12.6223 12 12 12.6223 12 13.39V16.17C12 16.9377 12.6223 17.56 13.39 17.56H16.17C16.9377 17.56 17.56 16.9377 17.56 16.17V13.39C17.56 12.6223 16.9377 12 16.17 12Z" stroke="white" stroke-width="1.5" stroke-linecap="round" stroke-linejoin="round"/> <path d="M2 7.69V7C2 4.24 4.24 2 7 2H17C19.76 2 22 4.24 22 7V17C22 19.76 19.76 22 17 22H7C4.24 22 2 19.76 2 17V12" stroke="white" stroke-width="1.5" stroke-linecap="round" stroke-linejoin="round"/> <path d="M13.3897 6.44043H10.6097C9.84205 6.44043 9.21973 7.06275 9.21973 7.83043V10.6104C9.21973 11.3781 9.84205 12.0004 10.6097 12.0004H13.3897C14.1574 12.0004 14.7797 11.3781 14.7797 10.6104V7.83043C14.7797 7.06275 14.1574 6.44043 13.3897 6.44043Z" stroke="white" stroke-width="1.5" stroke-linecap="round" stroke-linejoin="round"/> </g> <defs> <clipPath id="clip0_4482_15217"> <rect width="24" height="24" fill="white"/> </clipPath> </defs> </svg>
