<svg width="24" height="24" viewBox="0 0 24 24" fill="none" xmlns="http://www.w3.org/2000/svg"> <g clip-path="url(#clip0_4482_7015)"> <path d="M6.08991 4.9499C8.59991 2.4199 12.5699 1.66987 16.0399 3.51987C16.7399 3.88987 17.3499 4.3999 17.9099 4.9499C21.1699 8.2299 21.1699 13.5299 17.9099 16.8099L14.4499 20.2799L13.2499 21.4799C12.5499 22.1799 11.3999 22.1799 10.7099 21.4699L9.55992 20.2999L9.54992 20.2899L6.08991 16.8199C4.22991 14.9599 3.42992 12.4399 3.68992 10.0099" stroke="white" stroke-width="1.5" stroke-linecap="round" stroke-linejoin="round"/> <path d="M10.1699 15V7H12.5499C13.8099 7 14.8399 8.02001 14.8399 9.29001C14.8399 10.55 13.8199 11.58 12.5499 11.58H10.1699" stroke="white" stroke-width="1.5" stroke-linecap="round" stroke-linejoin="round"/> </g> <defs> <clipPath id="clip0_4482_7015"> <rect width="24" height="24" fill="white"/> </clipPath> </defs> </svg>
