<svg width="24" height="24" viewBox="0 0 24 24" fill="none" xmlns="http://www.w3.org/2000/svg"> <g clip-path="url(#clip0_2085_391968)"> <path d="M4.66992 17.4902H19.3299" stroke="white" stroke-width="1.5" stroke-linecap="round" stroke-linejoin="round"/> <path d="M7.56982 10.5496V8.95961C7.56982 7.53961 8.21982 6.26961 9.22982 5.41961C9.62982 5.08961 10.0798 4.81961 10.5798 4.63961C11.0798 4.44961 11.6298 4.34961 12.1898 4.34961H15.7398V10.2596" stroke="white" stroke-width="1.5" stroke-linecap="round" stroke-linejoin="round"/> <path d="M15.2398 14.96C14.4898 16.46 12.9298 17.49 11.1298 17.49H7.56982" stroke="white" stroke-width="1.5" stroke-linecap="round" stroke-linejoin="round"/> <path d="M10.0198 9.9502H9.38982C7.69982 9.9502 6.31982 11.3202 6.31982 13.0202V17.5002H7.94982C9.63982 17.5002 11.0098 16.1302 11.0098 14.4402V10.9602C11.0098 10.4102 10.5598 9.9602 10.0098 9.9602L10.0198 9.9502Z" stroke="white" stroke-width="1.5" stroke-linecap="round" stroke-linejoin="round"/> <path d="M17.8397 7.67961H15.7397V4.34961C17.0597 4.34961 18.1997 5.11961 18.7397 6.22961C19.0597 6.89961 18.5797 7.67961 17.8397 7.67961Z" stroke="white" stroke-width="1.5" stroke-linecap="round" stroke-linejoin="round"/> <path d="M13.8699 6.83973C13.8699 7.17973 13.5899 7.45973 13.2499 7.45973C12.9099 7.45973 12.6299 7.17973 12.6299 6.83973C12.6299 6.49973 12.9099 6.21973 13.2499 6.21973C13.5899 6.21973 13.8699 6.49973 13.8699 6.83973Z" fill="white"/> <path d="M9.22989 5.41965C9.22989 5.41965 7.65989 4.70965 7.85989 3.13965" stroke="white" stroke-width="1.5" stroke-linecap="round" stroke-linejoin="round"/> <path d="M10.5798 4.64C10.5798 4.64 9.21981 3.44 9.86981 2" stroke="white" stroke-width="1.5" stroke-linecap="round" stroke-linejoin="round"/> <path d="M8.57982 22.0002H8.56982C8.01982 22.0002 7.56982 21.5502 7.56982 21.0002V17.4902H10.4798V20.1002C10.4798 21.1502 9.62982 22.0002 8.57982 22.0002Z" stroke="white" stroke-width="1.5" stroke-linecap="round" stroke-linejoin="round"/> </g> <defs> <clipPath id="clip0_2085_391968"> <rect width="24" height="24" fill="white"/> </clipPath> </defs> </svg>
