<svg width="24" height="24" viewBox="0 0 24 24" fill="none" xmlns="http://www.w3.org/2000/svg"> <g clip-path="url(#clip0_2085_391969)"> <path d="M2.04991 11.5899C2.31991 13.1599 3.53991 14.2599 4.77991 14.0499C6.00991 13.8399 6.79991 12.3999 6.52991 10.8299C6.25991 9.2599 5.08991 8.4799 3.85991 8.6899C2.62991 8.8999 1.78991 10.0299 2.05991 11.5999L2.04991 11.5899Z" stroke="white" stroke-width="1.5" stroke-linecap="round" stroke-linejoin="round"/> <path d="M21.9499 11.5508C21.6799 13.1208 20.4599 14.2208 19.2199 14.0108C17.9899 13.8008 17.1999 12.3608 17.4699 10.7908C17.7399 9.22084 18.9099 8.44084 20.1399 8.65084C21.3699 8.86084 22.2099 9.99084 21.9399 11.5608L21.9499 11.5508Z" stroke="white" stroke-width="1.5" stroke-linecap="round" stroke-linejoin="round"/> <path d="M17.83 4.83037C17.67 6.43037 16.54 7.63037 15.31 7.50037C14.08 7.37037 13.22 5.96037 13.38 4.36037C13.54 2.76037 14.64 1.88037 15.87 2.02037C17.1 2.15037 18 3.24037 17.83 4.84037V4.83037Z" stroke="white" stroke-width="1.5" stroke-linecap="round" stroke-linejoin="round"/> <path d="M6.28992 4.83037C6.44992 6.43037 7.58992 7.63037 8.81992 7.50037C10.0499 7.37037 10.9199 5.96037 10.7499 4.36037C10.5899 2.76037 9.48992 1.88037 8.25992 2.02037C7.02992 2.15037 6.12992 3.24037 6.28992 4.84037V4.83037Z" stroke="white" stroke-width="1.5" stroke-linecap="round" stroke-linejoin="round"/> <path d="M14.3502 21.9604C16.3402 21.8204 17.6802 21.3304 17.6802 19.5204C17.6802 17.9304 14.6902 11.1504 12.0402 11.1504C9.39016 11.1504 6.41016 17.8904 6.41016 19.5204C6.41016 21.2804 7.72016 21.7904 9.65016 21.9404" stroke="white" stroke-width="1.5" stroke-linecap="round" stroke-linejoin="round"/> </g> <defs> <clipPath id="clip0_2085_391969"> <rect width="24" height="24" fill="white"/> </clipPath> </defs> </svg>
