<svg width="24" height="24" viewBox="0 0 24 24" fill="none" xmlns="http://www.w3.org/2000/svg"> <g clip-path="url(#clip0_4418_3449)"> <path d="M10.7498 22.4996H13.2698C14.2298 22.4996 14.8498 21.8196 14.6698 20.9896L14.2598 19.1797H9.75983L9.34984 20.9896C9.16984 21.7696 9.84983 22.4996 10.7498 22.4996Z" stroke="white" stroke-width="1.5" stroke-linecap="round" stroke-linejoin="round"/> <path d="M14.2198 12.6699L13.1698 11.3399C12.5298 10.5299 11.4798 10.5299 10.8398 11.3399L7.7898 15.2099C7.0198 16.1799 7.0198 16.8099 8.0298 17.6399L9.7598 19.1799" stroke="white" stroke-width="1.5" stroke-linecap="round" stroke-linejoin="round"/> <path d="M14.2598 19.1693L15.9898 17.6293C16.9598 16.7693 16.9998 16.1692 16.2298 15.1992" stroke="white" stroke-width="1.5" stroke-linecap="round" stroke-linejoin="round"/> <path d="M12.0098 11.1191V13.6492" stroke="white" stroke-width="1.5" stroke-linecap="round" stroke-linejoin="round"/> <path d="M12.52 5H11.52C10.97 5 10.52 4.55 10.52 4V3C10.52 2.45 10.97 2 11.52 2H12.52C13.07 2 13.52 2.45 13.52 3V4C13.52 4.55 13.07 5 12.52 5Z" stroke="white" stroke-width="1.5" stroke-linecap="round" stroke-linejoin="round"/> <path d="M3.27002 14.17H4.27002C4.82002 14.17 5.27002 13.72 5.27002 13.17V12.17C5.27002 11.62 4.82002 11.1699 4.27002 11.1699H3.27002C2.72002 11.1699 2.27002 11.62 2.27002 12.17V13.17C2.27002 13.72 2.72002 14.17 3.27002 14.17Z" stroke="white" stroke-width="1.5" stroke-linecap="round" stroke-linejoin="round"/> <path d="M20.73 14.17H19.73C19.18 14.17 18.73 13.72 18.73 13.17V12.17C18.73 11.62 19.18 11.1699 19.73 11.1699H20.73C21.28 11.1699 21.73 11.62 21.73 12.17V13.17C21.73 13.72 21.28 14.17 20.73 14.17Z" stroke="white" stroke-width="1.5" stroke-linecap="round" stroke-linejoin="round"/> <path d="M3.75 11.1708C3.75 9.20078 4.49001 7.41078 5.71001 6.05078" stroke="white" stroke-width="1.5" stroke-linecap="round" stroke-linejoin="round"/> <path d="M10.5199 3.56055C9.87993 3.64055 9.25992 3.79056 8.66992 4.01056" stroke="white" stroke-width="1.5" stroke-linecap="round" stroke-linejoin="round"/> <path d="M20.25 11.1705C20.25 7.25053 17.31 4.03055 13.52 3.56055" stroke="white" stroke-width="1.5" stroke-linecap="round" stroke-linejoin="round"/> </g> <defs> <clipPath id="clip0_4418_3449"> <rect width="24" height="24" fill="white"/> </clipPath> </defs> </svg>
