<svg width="24" height="24" viewBox="0 0 24 24" fill="none" xmlns="http://www.w3.org/2000/svg"> <g clip-path="url(#clip0_4482_7295)"> <path d="M6.17999 21.17C6.81999 21.82 7.74 22.12 8.63 21.96L13.98 21.08C14.72 20.96 15.29 20.4 15.44 19.66C15.46 19.54 15.46 19.44 15.46 19.31C15.46 18.37 14.69 17.54 13.69 17.54H11.86L14.53 14.87L15.5 13.91L15.51 13.9L17.2 12.22C17.59 11.82 17.77 11.29 17.74 10.77C17.72 10.33 17.53 9.89 17.2 9.55C16.83 9.19 16.34 9 15.86 9C15.69 9 15.52 9.02 15.36 9.08C15.05 9.15 14.77 9.31 14.53 9.55L12.3 11.78C12.05 12.03 11.65 12.08 11.33 11.9L10 11.12L8.17999 10.05C7.22999 9.51 6.04002 9.64999 5.27002 10.43L3.16998 12.52C2.39998 13.3 2 14.32 2 15.35C2 16.14 2.23 16.92 2.69 17.59" stroke="white" stroke-width="1.5" stroke-miterlimit="10" stroke-linecap="round" stroke-linejoin="round"/> <path d="M19.85 11.4003L17.53 12.7303L15.51 13.9003L17.2 12.2203C17.59 11.8203 17.77 11.2903 17.74 10.7703C17.72 10.3303 17.53 9.8903 17.2 9.5503C16.83 9.1903 16.34 9.0003 15.86 9.0003C15.69 9.0003 15.52 9.0203 15.36 9.0803C15.05 9.1503 14.77 9.3103 14.53 9.5503L12.3 11.7803C12.05 12.0303 11.65 12.0803 11.33 11.9003L10 11.1203V5.7203C10 2.4103 12.35 1.05031 15.22 2.71031L17.53 4.04029L19.85 5.37029C22.72 7.03029 22.72 9.74029 19.85 11.4003Z" stroke="white" stroke-width="1.5" stroke-miterlimit="10" stroke-linecap="round" stroke-linejoin="round"/> </g> <defs> <clipPath id="clip0_4482_7295"> <rect width="24" height="24" fill="white"/> </clipPath> </defs> </svg>
