<svg width="24" height="24" viewBox="0 0 24 24" fill="none" xmlns="http://www.w3.org/2000/svg"> <g clip-path="url(#clip0_4482_15875)"> <path d="M2.05957 11.4701C2.17957 9.05012 3.18957 6.71012 4.96957 4.92012C8.86957 1.02012 15.1796 1.02012 19.0796 4.92012" stroke="white" stroke-width="1.5" stroke-linecap="round" stroke-linejoin="round"/> <path d="M19.0798 4.91992C21.9298 7.76992 22.7898 12.0599 21.2398 15.7899C19.6898 19.5199 16.0598 21.9499 12.0198 21.9499C7.9798 21.9499 4.3498 19.5199 2.7998 15.7899" stroke="white" stroke-width="1.5" stroke-linecap="round" stroke-linejoin="round"/> <path d="M16.4801 7.5198C18.2801 9.3198 18.8201 12.0298 17.8501 14.3898C16.8701 16.7398 14.5801 18.2798 12.0301 18.2798C9.48015 18.2798 7.18015 16.7398 6.21015 14.3898C5.23015 12.0398 5.77015 9.3298 7.58015 7.5198C10.0401 5.0598 14.0301 5.0598 16.4901 7.5198" stroke="white" stroke-width="1.5" stroke-linecap="round" stroke-linejoin="round"/> <path d="M9.91992 11.9805H14.1199" stroke="white" stroke-width="1.5" stroke-linecap="round" stroke-linejoin="round"/> <path d="M12.0195 14.0799V9.87988" stroke="white" stroke-width="1.5" stroke-linecap="round" stroke-linejoin="round"/> <path d="M14.8398 17.6201L16.4798 20.8901" stroke="white" stroke-width="1.5" stroke-linecap="round" stroke-linejoin="round"/> <path d="M9.19957 17.6201L7.55957 20.8901" stroke="white" stroke-width="1.5" stroke-linecap="round" stroke-linejoin="round"/> <path d="M9.19957 6.34031L7.55957 3.07031" stroke="white" stroke-width="1.5" stroke-linecap="round" stroke-linejoin="round"/> <path d="M14.8398 6.34031L16.4798 3.07031" stroke="white" stroke-width="1.5" stroke-linecap="round" stroke-linejoin="round"/> <path d="M6.37961 14.7998L3.09961 16.4398" stroke="white" stroke-width="1.5" stroke-linecap="round" stroke-linejoin="round"/> <path d="M6.37961 9.15953L3.09961 7.51953" stroke="white" stroke-width="1.5" stroke-linecap="round" stroke-linejoin="round"/> <path d="M17.6602 9.15953L20.9402 7.51953" stroke="white" stroke-width="1.5" stroke-linecap="round" stroke-linejoin="round"/> <path d="M17.6602 14.7998L20.9402 16.4398" stroke="white" stroke-width="1.5" stroke-linecap="round" stroke-linejoin="round"/> </g> <defs> <clipPath id="clip0_4482_15875"> <rect width="24" height="24" fill="white"/> </clipPath> </defs> </svg>
