<svg width="24" height="24" viewBox="0 0 24 24" fill="none" xmlns="http://www.w3.org/2000/svg"> <g clip-path="url(#clip0_4418_3927)"> <path d="M7.25 7H16.75V5C16.75 3 16 2 13.75 2H10.25C8 2 7.25 3 7.25 5V7Z" stroke="white" stroke-width="1.5" stroke-miterlimit="10" stroke-linecap="round" stroke-linejoin="round"/> <path d="M12.9698 15H15.9998V19C15.9998 21 14.9998 22 12.9998 22H10.9998C9.30982 22 8.32982 21.29 8.06982 19.86" stroke="white" stroke-width="1.5" stroke-miterlimit="10" stroke-linecap="round" stroke-linejoin="round"/> <path d="M6 18C4 18 3 17 3 15V10C3 8 4 7 6 7H16.59" stroke="white" stroke-width="1.5" stroke-miterlimit="10" stroke-linecap="round" stroke-linejoin="round"/> <path d="M21 14V15C21 17 20 18 18 18H16V15H13" stroke="white" stroke-width="1.5" stroke-miterlimit="10" stroke-linecap="round" stroke-linejoin="round"/> <path d="M19.9702 7.51953C20.6602 7.99953 21.0002 8.82953 21.0002 9.99953" stroke="white" stroke-width="1.5" stroke-miterlimit="10" stroke-linecap="round" stroke-linejoin="round"/> <path d="M17 15H15.79" stroke="white" stroke-width="1.5" stroke-miterlimit="10" stroke-linecap="round" stroke-linejoin="round"/> <path d="M7 11H9" stroke="white" stroke-width="1.5" stroke-miterlimit="10" stroke-linecap="round" stroke-linejoin="round"/> <path d="M22 2L2 22" stroke="white" stroke-width="1.5" stroke-linecap="round" stroke-linejoin="round"/> </g> <defs> <clipPath id="clip0_4418_3927"> <rect width="24" height="24" fill="white"/> </clipPath> </defs> </svg>
