<svg width="24" height="24" viewBox="0 0 24 24" fill="none" xmlns="http://www.w3.org/2000/svg"> <g clip-path="url(#clip0_4482_13928)"> <path d="M13.8799 8.87988H10.1299C9.43953 8.87988 8.87988 9.43953 8.87988 10.1299V13.8799C8.87988 14.5702 9.43953 15.1299 10.1299 15.1299H13.8799C14.5702 15.1299 15.1299 14.5702 15.1299 13.8799V10.1299C15.1299 9.43953 14.5702 8.87988 13.8799 8.87988Z" stroke="white" stroke-width="1.5" stroke-linecap="round" stroke-linejoin="round"/> <path d="M10.75 2.62012V5.00012" stroke="white" stroke-width="1.5" stroke-linecap="round" stroke-linejoin="round"/> <path d="M10.75 15.75V18.25" stroke="white" stroke-width="1.5" stroke-linecap="round" stroke-linejoin="round"/> <path d="M13.25 5.75V8.25" stroke="white" stroke-width="1.5" stroke-linecap="round" stroke-linejoin="round"/> <path d="M13.25 15.1201V21.3701" stroke="white" stroke-width="1.5" stroke-linecap="round" stroke-linejoin="round"/> <path d="M15.1201 12H18.8701" stroke="white" stroke-width="1.5" stroke-linecap="round" stroke-linejoin="round"/> <path d="M3.25 13.25C3.94036 13.25 4.5 12.6904 4.5 12C4.5 11.3096 3.94036 10.75 3.25 10.75C2.55964 10.75 2 11.3096 2 12C2 12.6904 2.55964 13.25 3.25 13.25Z" stroke="white" stroke-width="1.5" stroke-linecap="round" stroke-linejoin="round"/> <path d="M20.75 13.25C21.4404 13.25 22 12.6904 22 12C22 11.3096 21.4404 10.75 20.75 10.75C20.0596 10.75 19.5 11.3096 19.5 12C19.5 12.6904 20.0596 13.25 20.75 13.25Z" stroke="white" stroke-width="1.5" stroke-linecap="round" stroke-linejoin="round"/> <path d="M5.12012 12H8.87012" stroke="white" stroke-width="1.5" stroke-linecap="round" stroke-linejoin="round"/> </g> <defs> <clipPath id="clip0_4482_13928"> <rect width="24" height="24" fill="white"/> </clipPath> </defs> </svg>
