<svg width="24" height="24" viewBox="0 0 24 24" fill="none" xmlns="http://www.w3.org/2000/svg"> <g clip-path="url(#clip0_4482_7284)"> <path d="M18.5698 15.49V18.25C18.5698 19.28 18.1498 20.22 17.4698 20.9C16.7898 21.58 15.8598 22 14.8198 22H10.8498C9.98982 22 9.18982 21.59 8.68982 20.89L5.90982 17L5.73982 16.76C5.33982 16.2 5.32982 15.44 5.70982 14.87C6.03982 14.38 6.56982 14.12 7.09982 14.12C7.51982 14.12 7.94981 14.28 8.27981 14.61L9.48982 15.82V8.75999C9.48982 7.78999 10.2798 7 11.2498 7C12.2298 7 13.0198 7.78999 13.0198 8.75999V11.72C13.0198 12.06 13.2498 12.35 13.5798 12.44L16.8898 13.31C17.8798 13.57 18.5698 14.46 18.5698 15.49Z" stroke="white" stroke-width="1.5" stroke-miterlimit="10" stroke-linecap="round" stroke-linejoin="round"/> <path d="M2.62988 8.88V4.81C2.62988 3.26 3.55988 2 5.43988 2H18.5599C20.4399 2 21.3699 3.26 21.3699 4.81V14.19C21.3699 15.74 20.4399 17 18.5699 17V15.49C18.5699 14.46 17.8799 13.57 16.8899 13.31L13.5799 12.44C13.2499 12.35 13.0199 12.06 13.0199 11.72V8.75999C13.0199 7.78999 12.2299 7 11.2499 7C10.2799 7 9.48988 7.78999 9.48988 8.75999V15.82L8.27988 14.61C7.94988 14.28 7.51988 14.12 7.09988 14.12C6.56988 14.12 6.03988 14.38 5.70988 14.87C5.32988 15.44 5.33988 16.2 5.73988 16.76L5.90988 17H5.43988C3.55988 17 2.62988 15.74 2.62988 14.19" stroke="white" stroke-width="1.5" stroke-miterlimit="10" stroke-linecap="round" stroke-linejoin="round"/> </g> <defs> <clipPath id="clip0_4482_7284"> <rect width="24" height="24" fill="white"/> </clipPath> </defs> </svg>
