<svg width="24" height="24" viewBox="0 0 24 24" fill="none" xmlns="http://www.w3.org/2000/svg"> <g clip-path="url(#clip0_2085_392538)"> <path d="M8.47 2.64C9.59 2.22 10.77 2 12 2C14.67 2 17.18 3.04 19.07 4.93C20.96 6.82 22 9.33 22 12C22 14.04 21.39 15.98 20.27 17.63L21.45 18.81C22.18 19.54 22.18 20.72 21.45 21.45C21.09 21.82 20.61 22 20.13 22C19.65 22 19.18 21.82 18.81 21.45L17.63 20.27C15.98 21.39 14.04 22 12 22C9.33 22 6.82 20.96 4.93 19.07C3.04 17.18 2 14.67 2 12C2 9.55 2.87 7.24 4.47 5.42M12 18.27C8.55 18.27 5.73 15.46 5.73 12C5.73 8.54 8.54 5.73 12 5.73C15.46 5.73 18.27 8.54 18.27 12C18.27 13.05 18.01 14.04 17.55 14.91L16.39 13.75C15.66 13.02 14.48 13.02 13.75 13.75C13.02 14.48 13.02 15.66 13.75 16.39L14.91 17.55C14.04 18.01 13.05 18.27 12 18.27Z" stroke="white" stroke-width="1.5" stroke-linecap="round" stroke-linejoin="round"/> </g> <defs> <clipPath id="clip0_2085_392538"> <rect width="24" height="24" fill="white"/> </clipPath> </defs> </svg>
