<svg width="24" height="24" viewBox="0 0 24 24" fill="none" xmlns="http://www.w3.org/2000/svg"> <g clip-path="url(#clip0_4482_9954)"> <path d="M5.95008 8.83984H3.58008" stroke="white" stroke-width="1.5" stroke-linecap="round" stroke-linejoin="round"/> <path d="M5.95008 15.1602H3.58008" stroke="white" stroke-width="1.5" stroke-linecap="round" stroke-linejoin="round"/> <path d="M5.95 12H2" stroke="white" stroke-width="1.5" stroke-linecap="round" stroke-linejoin="round"/> <path d="M22.0001 12C22.0001 15.83 19.6901 19.29 16.1501 20.75C12.6101 22.22 8.54008 21.41 5.83008 18.7" stroke="white" stroke-width="1.5" stroke-linecap="round" stroke-linejoin="round"/> <path d="M5.83008 5.29997C8.54008 2.58997 12.6101 1.77997 16.1501 3.24997C18.0201 4.01997 19.5501 5.35997 20.5701 6.99997" stroke="white" stroke-width="1.5" stroke-linecap="round" stroke-linejoin="round"/> <path d="M9.97957 9.24012L10.9396 11.6001C11.0396 11.8501 11.0396 12.1401 10.9396 12.3901L9.97957 14.7501C9.80957 15.1601 9.91957 15.6401 10.2496 15.9301C10.5796 16.2301 11.0596 16.2801 11.4496 16.0701L17.2396 12.9201C17.5796 12.7401 17.7896 12.3801 17.7896 12.0001C17.7896 11.6201 17.5796 11.2601 17.2396 11.0801L11.4596 7.93012C11.0696 7.72012 10.5896 7.77012 10.2596 8.07012C9.92957 8.37012 9.81957 8.84012 9.98957 9.25012L9.97957 9.24012Z" stroke="white" stroke-width="1.5" stroke-linecap="round" stroke-linejoin="round"/> <path d="M16.7405 12H11.4805" stroke="white" stroke-width="1.5" stroke-linecap="round" stroke-linejoin="round"/> </g> <defs> <clipPath id="clip0_4482_9954"> <rect width="24" height="24" fill="white"/> </clipPath> </defs> </svg>
