<svg width="24" height="24" viewBox="0 0 24 24" fill="none" xmlns="http://www.w3.org/2000/svg"> <g clip-path="url(#clip0_4482_8361)"> <path d="M6.87965 15.33C5.55965 13.3 5.55965 10.69 6.87965 8.66003" stroke="white" stroke-width="1.5" stroke-linecap="round" stroke-linejoin="round"/> <path d="M17.1201 15.33C18.4401 13.3 18.4401 10.69 17.1201 8.66003" stroke="white" stroke-width="1.5" stroke-linecap="round" stroke-linejoin="round"/> <path d="M12 22C17.5228 22 22 17.5228 22 12C22 6.47715 17.5228 2 12 2C6.47715 2 2 6.47715 2 12C2 17.5228 6.47715 22 12 22Z" stroke="white" stroke-width="1.5" stroke-linecap="round" stroke-linejoin="round"/> <path d="M13.6094 11.9404C13.6094 11.9404 13.6094 11.9405 13.6094 11.9405C13.6094 11.9405 13.6094 11.9405 13.6094 11.9405C13.6094 11.9405 13.6094 11.9405 13.6094 11.9405C13.6094 11.9405 13.6094 11.9405 13.6094 11.9404C13.6094 11.9404 13.6094 11.9404 13.6094 11.9404Z" stroke="white" stroke-width="1.5" stroke-linecap="round" stroke-linejoin="round"/> <path d="M10.2695 11.9405C10.2695 11.9405 10.2695 11.9405 10.2695 11.9405C10.2695 11.9405 10.2695 11.9404 10.2695 11.9404C10.2695 11.9404 10.2695 11.9404 10.2695 11.9405C10.2695 11.9405 10.2695 11.9405 10.2695 11.9405C10.2695 11.9405 10.2695 11.9405 10.2695 11.9405Z" stroke="white" stroke-width="1.5" stroke-linecap="round" stroke-linejoin="round"/> </g> <defs> <clipPath id="clip0_4482_8361"> <rect width="24" height="24" fill="white"/> </clipPath> </defs> </svg>
