<svg width="24" height="24" viewBox="0 0 24 24" fill="none" xmlns="http://www.w3.org/2000/svg"> <g clip-path="url(#clip0_4482_15883)"> <path d="M17.5693 3.10977V2.00977" stroke="white" stroke-width="1.5" stroke-linecap="round" stroke-linejoin="round"/> <path d="M17.5693 9.7002V10.8002" stroke="white" stroke-width="1.5" stroke-linecap="round" stroke-linejoin="round"/> <path d="M19.4796 3.88961C19.1996 3.40961 18.6796 3.10961 18.1196 3.09961H16.9196C16.1396 3.09961 15.4796 3.67961 15.3896 4.45961" stroke="white" stroke-width="1.5" stroke-linecap="round" stroke-linejoin="round"/> <path d="M15.6602 8.92016C15.9402 9.40016 16.4602 9.70016 17.0202 9.71016H18.2202C19.0002 9.71016 19.6602 9.13016 19.7502 8.35016C19.8502 7.58016 19.3502 6.85016 18.5902 6.66016" stroke="white" stroke-width="1.5" stroke-linecap="round" stroke-linejoin="round"/> <path d="M5.50977 21.9898H3.33977C2.73977 21.9898 2.25977 21.5098 2.25977 20.9098V14.4198C2.25977 13.8198 2.73977 13.3398 3.33977 13.3398H5.49977C6.09977 13.3398 6.57977 13.8198 6.57977 14.4198V20.9098C6.57977 21.5098 6.09977 21.9898 5.49977 21.9898H5.50977Z" stroke="white" stroke-width="1.5" stroke-linecap="round" stroke-linejoin="round"/> <path d="M13.0801 17.6601H15.2001C15.6701 17.6601 16.1201 17.5101 16.5001 17.2301L19.1101 15.2701C19.7601 14.7801 20.6801 14.8501 21.2501 15.4201C21.5601 15.7301 21.7301 16.1401 21.7301 16.5801C21.7301 17.0201 21.5601 17.4301 21.2501 17.7401L19.0101 19.9801C18.4101 20.5801 17.6401 21.0001 16.8001 21.1601L13.6301 21.7901C13.0001 21.9201 12.3501 21.9001 11.7301 21.7401L8.86008 21.0201C8.52008 20.9301 8.17008 20.8901 7.81008 20.8901H6.58008" stroke="white" stroke-width="1.5" stroke-linecap="round" stroke-linejoin="round"/> <path d="M13.0798 17.6601H14.6898C15.1198 17.6601 15.5398 17.4901 15.8498 17.1801C16.1598 16.8701 16.3298 16.4601 16.3298 16.0201V15.6901C16.3298 14.9401 15.8198 14.2801 15.0898 14.1001L12.6098 13.4801C12.2098 13.3801 11.7898 13.3301 11.3798 13.3301C10.3798 13.3301 9.39984 13.6301 8.55984 14.1801L6.58984 15.4901" stroke="white" stroke-width="1.5" stroke-linecap="round" stroke-linejoin="round"/> </g> <defs> <clipPath id="clip0_4482_15883"> <rect width="24" height="24" fill="white"/> </clipPath> </defs> </svg>
