<svg width="24" height="24" viewBox="0 0 24 24" fill="none" xmlns="http://www.w3.org/2000/svg"> <g clip-path="url(#clip0_4482_2850)"> <path d="M2.78014 13.9998C1.19014 16.0998 2.11014 19.8198 5.53014 20.0598H16.6201C17.9701 20.0698 19.2701 19.5698 20.2601 18.6598C23.5501 15.7898 21.7901 10.0198 17.4601 9.46979C16.0601 1.06979 5.04008 3.05979 5.09008 9.99979" stroke="white" stroke-width="1.5" stroke-miterlimit="10" stroke-linecap="round" stroke-linejoin="round"/> <path d="M15.4401 13.4702C15.4301 14.2902 15.1201 15.1002 14.4901 15.7302C13.2201 17.0002 11.1601 17.0002 9.89014 15.7302L10.6602 15.4702" stroke="white" stroke-width="1.5" stroke-linecap="round" stroke-linejoin="round"/> <path d="M13.7298 11.3902L14.4998 11.1302C13.2298 9.86023 11.1699 9.86023 9.89986 11.1302C9.21986 11.8102 8.90979 12.7102 8.95979 13.5902" stroke="white" stroke-width="1.5" stroke-linecap="round" stroke-linejoin="round"/> </g> <defs> <clipPath id="clip0_4482_2850"> <rect width="24" height="24" fill="white"/> </clipPath> </defs> </svg>
