<svg width="24" height="24" viewBox="0 0 24 24" fill="none" xmlns="http://www.w3.org/2000/svg"> <g clip-path="url(#clip0_4482_2613)"> <path d="M11.0703 17.2996L12.3103 16.0596L13.5503 17.2996" stroke="white" stroke-width="1.5" stroke-linecap="round" stroke-linejoin="round"/> <path d="M12.5301 16.8899C12.2001 17.8899 12.28 19.0099 12.82 19.9899C13.78 21.7299 15.9 22.4699 17.74 21.6999C19.58 20.9299 20.54 18.8999 19.97 16.9899C19.4 15.0799 17.4901 13.9099 15.5301 14.2599" stroke="white" stroke-width="1.5" stroke-linecap="round" stroke-linejoin="round"/> <path d="M3.1499 12.98V18C3.1499 20.2 4.9499 22 7.1499 22H10.1499" stroke="white" stroke-width="1.5" stroke-linecap="round" stroke-linejoin="round"/> <path d="M20.1499 12V6C20.1499 3.8 18.3499 2 16.1499 2H7.1499C4.9499 2 3.1499 3.8 3.1499 6V8" stroke="white" stroke-width="1.5" stroke-linecap="round" stroke-linejoin="round"/> <path d="M14.1499 5V6C14.1499 7.1 15.0499 8 16.1499 8H17.1499" stroke="white" stroke-width="1.5" stroke-linecap="round" stroke-linejoin="round"/> </g> <defs> <clipPath id="clip0_4482_2613"> <rect width="24" height="24" fill="white"/> </clipPath> </defs> </svg>
