<svg width="24" height="24" viewBox="0 0 24 24" fill="none" xmlns="http://www.w3.org/2000/svg"> <g clip-path="url(#clip0_4482_2928)"> <path d="M3 12C3 9.25 5.25 7 8 7H16C18.75 7 21 9.25 21 12V17C21 19.75 18.75 22 16 22H8C5.25 22 3 19.75 3 17" stroke="white" stroke-width="1.5" stroke-linecap="round" stroke-linejoin="round"/> <path d="M8.7998 7V5.2C8.7998 3.43 10.2298 2 11.9998 2C13.7698 2 15.1998 3.43 15.1998 5.2V7" stroke="white" stroke-width="1.5" stroke-linecap="round" stroke-linejoin="round"/> <path d="M14.2598 13.8398L14.7798 13.3198C15.2398 14.4198 15.0298 15.7298 14.1398 16.6198C13.4198 17.3398 12.4398 17.6098 11.5098 17.4498" stroke="white" stroke-width="1.5" stroke-linecap="round" stroke-linejoin="round"/> <path d="M9.73986 15.1601L9.21986 15.6801C8.75986 14.5801 8.96986 13.2701 9.85986 12.3801C10.6199 11.6201 11.6799 11.3601 12.6599 11.5901" stroke="white" stroke-width="1.5" stroke-linecap="round" stroke-linejoin="round"/> </g> <defs> <clipPath id="clip0_4482_2928"> <rect width="24" height="24" fill="white"/> </clipPath> </defs> </svg>
