<svg width="24" height="24" viewBox="0 0 24 24" fill="none" xmlns="http://www.w3.org/2000/svg"> <g clip-path="url(#clip0_4482_9944)"> <path d="M2.34961 15.6504L7.61961 10.3804" stroke="white" stroke-width="1.5" stroke-linecap="round" stroke-linejoin="round"/> <path d="M19 12.6003V5.51025" stroke="white" stroke-width="1.5" stroke-linecap="round" stroke-linejoin="round"/> <path d="M2 14.5C2 15.61 2.85 16.5 3.89 16.5H14" stroke="white" stroke-width="1.5" stroke-linecap="round" stroke-linejoin="round"/> <path d="M2 5.51025V9.61025" stroke="white" stroke-width="1.5" stroke-linecap="round" stroke-linejoin="round"/> <path d="M16.99 3.50023H4.01C2.9 3.50023 2 4.40023 2 5.51023C2 6.18023 2.33 6.80023 2.88 7.17023L8.24 10.8002C9.61 11.7302 11.4 11.7302 12.76 10.8002L18.12 7.17023C18.67 6.80023 19 6.17023 19 5.50023C19 4.39023 18.1 3.49023 16.99 3.49023V3.50023Z" stroke="white" stroke-width="1.5" stroke-linecap="round" stroke-linejoin="round"/> <path d="M16.0299 13.0304L13.3799 10.3804" stroke="white" stroke-width="1.5" stroke-linecap="round" stroke-linejoin="round"/> <path d="M20.83 13.67C22.39 15.23 22.39 17.77 20.83 19.33C19.27 20.89 16.74 20.89 15.17 19.33C13.61 17.77 13.61 15.23 15.17 13.67C16.73 12.11 19.27 12.11 20.83 13.67Z" stroke="white" stroke-width="1.5" stroke-linecap="round" stroke-linejoin="round"/> <path d="M19.6004 16.5H16.4004" stroke="white" stroke-width="1.5" stroke-linecap="round" stroke-linejoin="round"/> <path d="M18.0004 18.1L16.4004 16.5" stroke="white" stroke-width="1.5" stroke-linecap="round" stroke-linejoin="round"/> </g> <defs> <clipPath id="clip0_4482_9944"> <rect width="24" height="24" fill="white"/> </clipPath> </defs> </svg>
