<svg width="24" height="24" viewBox="0 0 24 24" fill="none" xmlns="http://www.w3.org/2000/svg"> <g clip-path="url(#clip0_4482_9947)"> <path d="M20.8799 10.3501V4.81006" stroke="white" stroke-width="1.5" stroke-linecap="round" stroke-linejoin="round"/> <path d="M18.65 2.57006H4.23C3 2.57006 2 3.57006 2 4.80006C2 5.54006 2.37 6.23006 2.98 6.65006L8.93 10.6801C10.45 11.7101 12.44 11.7101 13.95 10.6801L19.9 6.65006C20.51 6.23006 20.88 5.54006 20.88 4.80006C20.88 3.56006 19.88 2.56006 18.65 2.56006V2.57006Z" stroke="white" stroke-width="1.5" stroke-linecap="round" stroke-linejoin="round"/> <path d="M2 9.26006V4.81006" stroke="white" stroke-width="1.5" stroke-linecap="round" stroke-linejoin="round"/> <path d="M10.89 17.02H5C3.34 17.02 2 15.68 2 14.02" stroke="white" stroke-width="1.5" stroke-linecap="round" stroke-linejoin="round"/> <path d="M16.43 21.4298L14.21 19.2398H19.78C21.01 19.2398 22 18.2498 22 17.0198C22 15.7898 21.01 14.7998 19.78 14.7998H18.67" stroke="white" stroke-width="1.5" stroke-linecap="round" stroke-linejoin="round"/> </g> <defs> <clipPath id="clip0_4482_9947"> <rect width="24" height="24" fill="white"/> </clipPath> </defs> </svg>
