<svg width="24" height="24" viewBox="0 0 24 24" fill="none" xmlns="http://www.w3.org/2000/svg"> <g clip-path="url(#clip0_2085_385804)"> <path d="M7.5 17.5C8.83 17.5 10.05 17.03 11 16.24M7.5 6.5C4.46 6.5 2 8.96 2 12C2 13.58 2.66 15 3.73 16M7.5 6.5C10.45 6.5 12.85 8.82 12.99 11.73M7.5 6.5V2.5M16.5 10.5C13.46 10.5 11 12.96 11 16C11 19.04 13.46 21.5 16.5 21.5C19.54 21.5 22 19.04 22 16C22 12.96 19.54 10.5 16.5 10.5ZM16.5 10.5V2.5M2 2.5H22" stroke="white" stroke-width="1.5" stroke-linecap="round" stroke-linejoin="round"/> </g> <defs> <clipPath id="clip0_2085_385804"> <rect width="24" height="24" fill="white"/> </clipPath> </defs> </svg>
