<svg width="24" height="24" viewBox="0 0 24 24" fill="none" xmlns="http://www.w3.org/2000/svg"> <g clip-path="url(#clip0_2085_389996)"> <path d="M8.62988 14.4893L9.50988 15.3693" stroke="white" stroke-width="1.5" stroke-linecap="round" stroke-linejoin="round"/> <path d="M10.6499 12.4697L11.5299 13.3497" stroke="white" stroke-width="1.5" stroke-linecap="round" stroke-linejoin="round"/> <path d="M20.3298 9.72959L13.5098 15.3296L9.55979 18.5696L9.35978 18.7296L9.06978 18.9696L5.02979 14.9296L8.66979 10.4896L14.2698 3.66959C17.2998 0.639592 21.3398 2.65959 21.3398 2.65959C21.3398 2.65959 23.3598 6.69959 20.3298 9.72959Z" stroke="white" stroke-width="1.5" stroke-linecap="round" stroke-linejoin="round"/> <path d="M6.03986 15.9395L5.02986 16.9495C4.46986 17.5095 4.46986 18.4095 5.02986 18.9695C5.58986 19.5295 6.48986 19.5295 7.04986 18.9695L8.05986 17.9595" stroke="white" stroke-width="1.5" stroke-linecap="round" stroke-linejoin="round"/> <path d="M5.03 14.9293L2.68 14.1493C2.27 14.0093 2 13.6293 2 13.1993V12.7093C2 12.2393 2.33 11.8293 2.79 11.7293L8.67 10.4893" stroke="white" stroke-width="1.5" stroke-linecap="round" stroke-linejoin="round"/> <path d="M13.5101 15.3301L12.8301 18.5701" stroke="white" stroke-width="1.5" stroke-linecap="round" stroke-linejoin="round"/> <path d="M9.35982 19.8397L9.06982 18.9697" stroke="white" stroke-width="1.5" stroke-linecap="round" stroke-linejoin="round"/> <path d="M15.2798 10.7398C14.7198 11.2998 13.8198 11.2998 13.2598 10.7398C12.6998 10.1798 12.6998 9.2798 13.2598 8.7198C13.8198 8.1598 14.7198 8.1598 15.2798 8.7198C15.8398 9.2798 15.8398 10.1798 15.2798 10.7398Z" stroke="white" stroke-width="1.5" stroke-linecap="round" stroke-linejoin="round"/> <path d="M14.27 3.66992L20.33 9.72992" stroke="white" stroke-width="1.5" stroke-linecap="round" stroke-linejoin="round"/> </g> <defs> <clipPath id="clip0_2085_389996"> <rect width="24" height="24" fill="white"/> </clipPath> </defs> </svg>
