<svg width="24" height="24" viewBox="0 0 24 24" fill="none" xmlns="http://www.w3.org/2000/svg"> <g clip-path="url(#clip0_2085_392832)"> <path d="M8.53994 2L4.68994 5.85L8.53994 9.7" stroke="white" stroke-width="1.71" stroke-linecap="round" stroke-linejoin="round"/> <path d="M4.68994 5.84961H11.9999C12.6799 5.84961 13.3499 5.92961 13.9999 6.10961" stroke="white" stroke-width="1.71" stroke-linecap="round" stroke-linejoin="round"/> <path d="M17.9999 8.5293C18.6199 9.1993 19.1099 9.9793 19.4599 10.8293C20.0699 12.3093 20.2299 13.9293 19.9199 15.4993C19.6099 17.0693 18.8399 18.4993 17.7099 19.6293C16.5799 20.7593 15.1399 21.5293 13.5799 21.8393C12.0099 22.1593 10.3899 21.9993 8.90992 21.3893C7.42992 20.7693 6.16992 19.7393 5.27992 18.4093C4.39992 17.0793 3.91992 15.5193 3.91992 13.9193" stroke="white" stroke-width="1.71" stroke-linecap="round" stroke-linejoin="round"/> </g> <defs> <clipPath id="clip0_2085_392832"> <rect width="24" height="24" fill="white"/> </clipPath> </defs> </svg>
