<svg width="24" height="24" viewBox="0 0 24 24" fill="none" xmlns="http://www.w3.org/2000/svg"> <g clip-path="url(#clip0_4482_9949)"> <path d="M17.7901 21.4698C20.1152 21.4698 22.0001 19.5849 22.0001 17.2598C22.0001 14.9347 20.1152 13.0498 17.7901 13.0498C15.465 13.0498 13.5801 14.9347 13.5801 17.2598C13.5801 19.5849 15.465 21.4698 17.7901 21.4698Z" stroke="white" stroke-width="1.5" stroke-linecap="round" stroke-linejoin="round"/> <path d="M18.0498 15.8398V17.5198" stroke="white" stroke-width="1.5" stroke-linecap="round" stroke-linejoin="round"/> <path d="M18.0505 17.5298L16.7305 18.3198" stroke="white" stroke-width="1.5" stroke-linecap="round" stroke-linejoin="round"/> <path d="M20.95 9.89002V6.73002C20.95 4.40002 19.06 2.52002 16.74 2.52002H6.21C3.88 2.52002 2 4.41002 2 6.73002V8.78002" stroke="white" stroke-width="1.5" stroke-linecap="round" stroke-linejoin="round"/> <path d="M10.42 18.3199H6.21C3.88 18.3199 2 16.4299 2 14.1099" stroke="white" stroke-width="1.5" stroke-linecap="round" stroke-linejoin="round"/> <path d="M6.20996 7.26025L10.64 9.19025C11.17 9.42025 11.78 9.42025 12.32 9.19025L16.74 7.28025" stroke="white" stroke-width="1.5" stroke-linecap="round" stroke-linejoin="round"/> </g> <defs> <clipPath id="clip0_4482_9949"> <rect width="24" height="24" fill="white"/> </clipPath> </defs> </svg>
