<svg width="24" height="24" viewBox="0 0 24 24" fill="none" xmlns="http://www.w3.org/2000/svg"> <g clip-path="url(#clip0_2085_391978)"> <path d="M7.70994 14.9003L5.68994 14.3203" stroke="white" stroke-width="1.5" stroke-linecap="round" stroke-linejoin="round"/> <path d="M3.04004 21.9998V10.9998C3.04004 6.8498 5.87004 3.3198 9.70004 2.2998" stroke="white" stroke-width="1.5" stroke-linecap="round" stroke-linejoin="round"/> <path d="M14.3999 2.33008C18.1999 3.39008 20.9599 6.90008 20.9599 11.0001V22.0001" stroke="white" stroke-width="1.5" stroke-linecap="round" stroke-linejoin="round"/> <path d="M18.31 14.3193L16.29 14.8993" stroke="white" stroke-width="1.5" stroke-linecap="round" stroke-linejoin="round"/> <path d="M18.3099 19.3002L16.1299 17.9902" stroke="white" stroke-width="1.5" stroke-linecap="round" stroke-linejoin="round"/> <path d="M7.86994 18L5.68994 19.31" stroke="white" stroke-width="1.5" stroke-linecap="round" stroke-linejoin="round"/> <path d="M13.6601 13.3301C15.3101 13.3301 16.6501 14.6701 16.6501 16.3201C16.6501 17.9701 15.3101 19.3101 13.6601 19.3101C13.0501 19.3101 12.4801 19.1201 12.0001 18.8101C11.5301 19.1301 10.9501 19.3101 10.3401 19.3101C8.6901 19.3101 7.3501 17.9701 7.3501 16.3201C7.3501 14.6701 8.6901 13.3301 10.3401 13.3301H13.6601Z" stroke="white" stroke-width="1.5" stroke-linecap="round" stroke-linejoin="round"/> <path d="M9.34994 9.67961C9.34994 10.4096 8.75994 11.0096 8.01994 11.0096C7.27994 11.0096 6.68994 10.4196 6.68994 9.67961C6.68994 8.93961 7.27994 8.34961 8.01994 8.34961C8.75994 8.34961 9.34994 8.93961 9.34994 9.67961Z" stroke="white" stroke-width="1.5" stroke-linecap="round" stroke-linejoin="round"/> <path d="M17.3099 9.67961C17.3099 10.4096 16.7199 11.0096 15.9799 11.0096C15.2399 11.0096 14.6499 10.4196 14.6499 9.67961C14.6499 8.93961 15.2399 8.34961 15.9799 8.34961C16.7199 8.34961 17.3099 8.93961 17.3099 9.67961Z" stroke="white" stroke-width="1.5" stroke-linecap="round" stroke-linejoin="round"/> <path d="M12 18.6405V15.9805" stroke="white" stroke-width="1.5" stroke-linecap="round" stroke-linejoin="round"/> <path d="M11.0098 15.9805H12.9998" stroke="white" stroke-width="1.5" stroke-linecap="round" stroke-linejoin="round"/> </g> <defs> <clipPath id="clip0_2085_391978"> <rect width="24" height="24" fill="white"/> </clipPath> </defs> </svg>
