<svg width="24" height="24" viewBox="0 0 24 24" fill="none" xmlns="http://www.w3.org/2000/svg"> <g clip-path="url(#clip0_4482_10631)"> <path d="M15.8903 17.0001L14.2803 15.3901" stroke="white" stroke-width="1.5" stroke-linecap="round" stroke-linejoin="round"/> <path d="M8.11035 12.8302C8.11035 14.8202 9.73035 16.4402 11.7204 16.4402C13.7104 16.4402 15.3304 14.8202 15.3304 12.8302C15.3304 10.8402 13.7104 9.22021 11.7204 9.22021C9.73035 9.22021 8.11035 10.8402 8.11035 12.8302Z" stroke="white" stroke-width="1.5" stroke-linecap="round" stroke-linejoin="round"/> <path d="M3.88 7.09988L8.88 3.09988C10.71 1.63988 13.3 1.63988 15.13 3.09988L20.13 7.09988C21.32 8.04988 22.01 9.48988 22.01 10.9999V16.9999C22.01 19.7599 19.77 21.9999 17.01 21.9999H7C4.24 21.9999 2 19.7599 2 16.9999V10.9999" stroke="white" stroke-width="1.5" stroke-linecap="round" stroke-linejoin="round"/> </g> <defs> <clipPath id="clip0_4482_10631"> <rect width="24" height="24" fill="white"/> </clipPath> </defs> </svg>
