<svg width="24" height="24" viewBox="0 0 24 24" fill="none" xmlns="http://www.w3.org/2000/svg"> <g clip-path="url(#clip0_4482_2845)"> <path d="M2.78014 13.9998C1.19014 16.0998 2.11014 19.8198 5.53014 20.0598H16.6201C17.9701 20.0698 19.2701 19.5698 20.2601 18.6598C23.5501 15.7898 21.7901 10.0198 17.4601 9.46979C16.0601 1.06979 5.04008 3.05979 5.09008 9.99979" stroke="white" stroke-width="1.5" stroke-miterlimit="10" stroke-linecap="round" stroke-linejoin="round"/> <path d="M11.8502 14.49C12.7402 14.49 13.4602 13.77 13.4602 12.88C13.4602 11.99 12.7402 11.27 11.8502 11.27C10.9602 11.27 10.2402 11.99 10.2402 12.88C10.2402 13.77 10.9602 14.49 11.8502 14.49Z" stroke="white" stroke-width="1.5" stroke-linecap="round" stroke-linejoin="round"/> <path d="M13.0601 14.0898L14 15.0298" stroke="white" stroke-width="1.5" stroke-linecap="round" stroke-linejoin="round"/> </g> <defs> <clipPath id="clip0_4482_2845"> <rect width="24" height="24" fill="white"/> </clipPath> </defs> </svg>
