<svg width="24" height="24" viewBox="0 0 24 24" fill="none" xmlns="http://www.w3.org/2000/svg"> <g clip-path="url(#clip0_2085_392214)"> <path d="M2.10986 7.55957H21.7299" stroke="white" stroke-width="1.5" stroke-linecap="round" stroke-linejoin="round"/> <path d="M12 21.9996V7.55957" stroke="white" stroke-width="1.5" stroke-linecap="round" stroke-linejoin="round"/> <path d="M9.32992 2H6.43992C5.15992 2 3.93992 2.56 3.08992 3.53C2.24992 4.5 1.86992 5.79 2.04992 7.06L2.11992 7.56L3.26992 15.76C3.46992 17.22 4.37992 18.48 5.69992 19.13L11.0299 21.77C11.3399 21.92 11.6699 22 11.9999 22C12.3299 22 12.6599 21.92 12.9699 21.77L18.2999 19.13C19.6199 18.48 20.5299 17.22 20.7299 15.76L21.9499 7.06C22.1299 5.79 21.7499 4.5 20.9099 3.53C20.0599 2.56 18.8399 2 17.5499 2H14.6699" stroke="white" stroke-width="1.5" stroke-linecap="round" stroke-linejoin="round"/> </g> <defs> <clipPath id="clip0_2085_392214"> <rect width="24" height="24" fill="white"/> </clipPath> </defs> </svg>
