<svg width="24" height="24" viewBox="0 0 24 24" fill="none" xmlns="http://www.w3.org/2000/svg"> <g clip-path="url(#clip0_2085_392213)"> <path d="M11.48 11.7402H14.62" stroke="white" stroke-width="1.5" stroke-linecap="round" stroke-linejoin="round"/> <path d="M11.48 7.55078H6.25" stroke="white" stroke-width="1.5" stroke-linecap="round" stroke-linejoin="round"/> <path d="M16.7101 7.55078H14.6201" stroke="white" stroke-width="1.5" stroke-linecap="round" stroke-linejoin="round"/> <path d="M6.25 11.7402H8.34" stroke="white" stroke-width="1.5" stroke-linecap="round" stroke-linejoin="round"/> <path d="M6.25 15.9199H10.43" stroke="white" stroke-width="1.5" stroke-linecap="round" stroke-linejoin="round"/> <path d="M14.6702 2.32031H15.1002C16.6302 2.32031 18.1102 2.93031 19.1902 4.02031C20.2802 5.11031 20.8902 6.58031 20.8902 8.12031V10.6903" stroke="white" stroke-width="1.5" stroke-linecap="round" stroke-linejoin="round"/> <path d="M9.33006 2.32031H7.86006C6.32006 2.32031 4.85006 2.93031 3.76006 4.02031C2.67006 5.11031 2.06006 6.58031 2.06006 8.12031V15.3603C2.06006 18.5603 4.66006 21.1503 7.86006 21.1503H11.4801" stroke="white" stroke-width="1.5" stroke-linecap="round" stroke-linejoin="round"/> <path d="M21.9401 15.5002V18.0102C21.9401 19.7702 19.7201 21.0702 18.7401 21.5702C18.4501 21.7202 18.1101 21.7202 17.8201 21.5702C16.8301 21.0802 14.6201 19.7702 14.6201 18.0102V15.5002C14.6201 15.2302 14.8401 15.0002 15.1101 14.9802C16.0401 14.8902 16.9201 14.5602 17.6801 14.0202C18.0401 13.7602 18.5201 13.7602 18.8701 14.0202C19.6301 14.5602 20.5101 14.9002 21.4401 14.9802C21.7101 15.0002 21.9301 15.2202 21.9301 15.5002H21.9401Z" stroke="white" stroke-width="1.5" stroke-linecap="round" stroke-linejoin="round"/> </g> <defs> <clipPath id="clip0_2085_392213"> <rect width="24" height="24" fill="white"/> </clipPath> </defs> </svg>
