<svg width="24" height="24" viewBox="0 0 24 24" fill="none" xmlns="http://www.w3.org/2000/svg"> <g clip-path="url(#clip0_4482_7131)"> <path d="M13.1401 10.0002H10.85C9.42004 10.0002 8.56006 8.97024 8.56006 7.71024V4.28023C8.56006 3.02023 9.42004 1.99023 10.85 1.99023H13.1401C14.5701 1.99023 15.4301 3.02023 15.4301 4.28023V7.71024C15.4301 8.97024 14.5701 10.0002 13.1401 10.0002Z" stroke="white" stroke-width="1.5" stroke-miterlimit="10" stroke-linecap="round" stroke-linejoin="round"/> <path d="M12 13V10.75" stroke="white" stroke-width="1.5" stroke-miterlimit="10" stroke-linecap="round" stroke-linejoin="round"/> <path d="M7.21991 15.2C7.09991 14.02 8.02996 13 9.20996 13H14.7899C15.9699 13 16.9 14.02 16.78 15.2L16.27 20.2C16.17 21.22 15.31 22 14.28 22H9.70996C8.67996 22 7.81991 21.22 7.71991 20.2" stroke="white" stroke-width="1.5" stroke-linecap="round" stroke-linejoin="round"/> <path d="M16.25 17.5H13.25" stroke="white" stroke-width="1.5" stroke-miterlimit="10" stroke-linecap="round" stroke-linejoin="round"/> </g> <defs> <clipPath id="clip0_4482_7131"> <rect width="24" height="24" fill="white"/> </clipPath> </defs> </svg>
