<svg width="24" height="24" viewBox="0 0 24 24" fill="none" xmlns="http://www.w3.org/2000/svg"> <g clip-path="url(#clip0_4482_7130)"> <path d="M12 13V10.75" stroke="white" stroke-width="1.5" stroke-miterlimit="10" stroke-linecap="round" stroke-linejoin="round"/> <path d="M11.9998 10C10.1098 10 8.56982 8.46001 8.56982 6.57001V5.42999C8.56982 3.53999 10.1098 2 11.9998 2C13.8898 2 15.4298 3.53999 15.4298 5.42999V6.57001C15.4298 8.46001 13.8898 10 11.9998 10Z" stroke="white" stroke-width="1.5" stroke-miterlimit="10" stroke-linecap="round" stroke-linejoin="round"/> <path d="M7.21991 15.2C7.09991 14.02 8.02996 13 9.20996 13H14.7899C15.9699 13 16.9 14.02 16.78 15.2L16.27 20.2C16.17 21.22 15.31 22 14.28 22H9.70996C8.67996 22 7.81991 21.22 7.71991 20.2" stroke="white" stroke-width="1.5" stroke-linecap="round" stroke-linejoin="round"/> <path d="M16.25 17.5H13.25" stroke="white" stroke-width="1.5" stroke-miterlimit="10" stroke-linecap="round" stroke-linejoin="round"/> </g> <defs> <clipPath id="clip0_4482_7130"> <rect width="24" height="24" fill="white"/> </clipPath> </defs> </svg>
