<svg width="24" height="24" viewBox="0 0 24 24" fill="none" xmlns="http://www.w3.org/2000/svg"> <g clip-path="url(#clip0_4482_7337)"> <path d="M15.5398 6.3L12.5799 21.52C12.4599 22.16 11.5398 22.16 11.4198 21.52L8.45987 6.3C8.02987 4.07 9.72985 2 11.9999 2C12.5699 2 13.0999 2.13 13.5699 2.36" stroke="white" stroke-width="1.5" stroke-linecap="round" stroke-linejoin="round"/> <path d="M12 7C12.5523 7 13 6.55228 13 6C13 5.44772 12.5523 5 12 5C11.4477 5 11 5.44772 11 6C11 6.55228 11.4477 7 12 7Z" stroke="white" stroke-width="1.5" stroke-linecap="round" stroke-linejoin="round"/> <path d="M8 6H6C4.9 6 4 6.9 4 8C4 9.1 4.9 10 6 10H9" stroke="white" stroke-width="1.5" stroke-linecap="round" stroke-linejoin="round"/> <path d="M9.79999 14H7C5.9 14 5 14.9 5 16C5 17.1 5.9 18 7 18H10.46" stroke="white" stroke-width="1.5" stroke-linecap="round" stroke-linejoin="round"/> <path d="M15 10H18C19.1 10 20 10.9 20 12C20 13.1 19.1 14 18 14H9" stroke="white" stroke-width="1.5" stroke-linecap="round" stroke-linejoin="round"/> <path d="M12 22H17C18.1 22 19 21.1 19 20C19 18.9 18.1 18 17 18H13.62" stroke="white" stroke-width="1.5" stroke-linecap="round" stroke-linejoin="round"/> </g> <defs> <clipPath id="clip0_4482_7337"> <rect width="24" height="24" fill="white"/> </clipPath> </defs> </svg>
