<svg width="24" height="24" viewBox="0 0 24 24" fill="none" xmlns="http://www.w3.org/2000/svg"> <g clip-path="url(#clip0_4418_3448)"> <path d="M6.80985 3.23945C7.71985 1.58945 10.0998 1.58945 11.0098 3.23945L13.1998 7.20945L14.2498 9.11946L15.5298 11.4495C16.4098 13.0495 15.2498 14.9995 13.4298 14.9995H4.39985C2.57985 14.9995 1.41985 13.0495 2.29985 11.4495L4.62985 7.20945" stroke="white" stroke-width="1.5" stroke-linecap="round" stroke-linejoin="round"/> <path d="M22 15.5C22 19.09 19.09 22 15.5 22C11.91 22 9 19.09 9 15.5C9 15.33 9.01 15.17 9.02 15H13.43C15.25 15 16.41 13.05 15.53 11.45L14.25 9.12C14.65 9.04 15.07 9 15.5 9C19.09 9 22 11.91 22 15.5Z" stroke="white" stroke-width="1.5" stroke-linecap="round" stroke-linejoin="round"/> </g> <defs> <clipPath id="clip0_4418_3448"> <rect width="24" height="24" fill="white"/> </clipPath> </defs> </svg>
