<svg width="24" height="24" viewBox="0 0 24 24" fill="none" xmlns="http://www.w3.org/2000/svg"> <g clip-path="url(#clip0_4482_15224)"> <path d="M2 7.61V7C2 4.24 4.24 2 7 2H17C19.76 2 22 4.24 22 7V17C22 19.76 19.76 22 17 22H7C4.24 22 2 19.76 2 17V12" stroke="white" stroke-width="1.5" stroke-linecap="round" stroke-linejoin="round"/> <path d="M17.23 11.48C17.23 14.35 15.14 17.05 12.29 17.83C12.1 17.88 11.88 17.88 11.69 17.83C8.84 17.04 6.75 14.35 6.75 11.48V8.9C6.75 8.42 7.11 7.87 7.57 7.69L10.84 6.35C11.57 6.05 12.4 6.05 13.14 6.35L16.41 7.69C16.86 7.87 17.23 8.42 17.23 8.9V11.48Z" stroke="white" stroke-width="1.5" stroke-linecap="round" stroke-linejoin="round"/> </g> <defs> <clipPath id="clip0_4482_15224"> <rect width="24" height="24" fill="white"/> </clipPath> </defs> </svg>
