<svg width="24" height="24" viewBox="0 0 24 24" fill="none" xmlns="http://www.w3.org/2000/svg"> <g clip-path="url(#clip0_2085_392082)"> <path d="M3.3498 12.87C3.9698 16.18 6.1098 19.1 9.2598 20.65L11.9998 22L14.7398 20.65C19.0698 18.52 21.4998 13.8 20.6998 9.03L19.9598 4.54C18.4698 4.54 17.1998 3.47 16.9598 2H7.0398C6.7998 3.47 5.5298 4.54 4.0498 4.54L3.2998 9.03" stroke="white" stroke-width="1.5" stroke-linecap="round" stroke-linejoin="round"/> <path d="M10.37 18.4C8.73005 17.59 7.42005 16.31 6.59005 14.68C5.75005 13.05 5.47005 11.24 5.77005 9.44L6.24005 6.59C7.25005 6.16 8.11005 5.43 8.71005 4.5H15.28C15.88 5.43 16.74 6.15 17.75 6.59L18.22 9.44C18.52 11.24 18.24 13.05 17.4 14.68C16.56 16.31 15.26 17.59 13.62 18.4L11.99 19.2L10.36 18.4H10.37Z" stroke="white" stroke-width="1.5" stroke-linecap="round" stroke-linejoin="round"/> <path d="M12 8.25L12.92 10.12L14.98 10.42L13.49 11.87L13.84 13.92L12 12.95L10.16 13.92L10.51 11.87L9.02002 10.42L11.08 10.12L12 8.25Z" stroke="white" stroke-width="1.5" stroke-linecap="round" stroke-linejoin="round"/> <path d="M12 12.96V18.95" stroke="white" stroke-width="1.5" stroke-linecap="round" stroke-linejoin="round"/> <path d="M12 8.24977V4.50977" stroke="white" stroke-width="1.5" stroke-linecap="round" stroke-linejoin="round"/> </g> <defs> <clipPath id="clip0_2085_392082"> <rect width="24" height="24" fill="white"/> </clipPath> </defs> </svg>
