<svg width="24" height="24" viewBox="0 0 24 24" fill="none" xmlns="http://www.w3.org/2000/svg"> <g clip-path="url(#clip0_4482_8373)"> <path d="M3.11035 11.0399V6.29994C3.11035 5.32994 3.74035 4.46994 4.67035 4.17994L11.3404 2.09994C11.7704 1.96994 12.2304 1.96994 12.6704 2.09994L19.3404 4.17994C20.2704 4.46994 20.9004 5.32994 20.9004 6.29994V11.0399C20.9004 15.6699 18.0304 19.8199 13.6904 21.4499L12.4004 21.9299C12.1504 22.0199 11.8704 22.0199 11.6204 21.9299L10.3304 21.4499C7.50035 20.3899 5.29035 18.2599 4.10035 15.6099" stroke="white" stroke-width="1.5" stroke-linecap="round" stroke-linejoin="round"/> <path d="M12 7.52002V11.99" stroke="white" stroke-width="1.5" stroke-linecap="round" stroke-linejoin="round"/> <path d="M12.1404 15.47C12.1404 15.55 12.0804 15.61 12.0004 15.61C11.9204 15.61 11.8604 15.55 11.8604 15.47C11.8604 15.39 11.9204 15.33 12.0004 15.33" stroke="white" stroke-width="1.5" stroke-linecap="round" stroke-linejoin="round"/> </g> <defs> <clipPath id="clip0_4482_8373"> <rect width="24" height="24" fill="white"/> </clipPath> </defs> </svg>
