<svg width="24" height="24" viewBox="0 0 24 24" fill="none" xmlns="http://www.w3.org/2000/svg"> <g clip-path="url(#clip0_4482_7320)"> <path d="M3.35993 10.8099L4.06993 6.35992C4.21993 5.38992 5.05993 4.66992 6.04993 4.66992H17.9699C18.9499 4.66992 19.7899 5.37992 19.9499 6.35992L21.6499 17.0299C21.8399 18.2399 20.8999 19.3399 19.6699 19.3399H15.8999C14.9299 19.3399 14.1099 18.6499 13.9299 17.6999L13.3199 14.3199C13.1999 13.6899 12.6499 13.2299 12.0099 13.2299C11.3699 13.2299 10.8199 13.6899 10.6999 14.3199L10.0899 17.6999C9.91993 18.6499 9.08993 19.3399 8.11993 19.3399H4.33993C3.10993 19.3399 2.16993 18.2399 2.35993 17.0299L2.48993 16.1799" stroke="white" stroke-width="1.5" stroke-miterlimit="10" stroke-linecap="round" stroke-linejoin="round"/> <path d="M20 9H4" stroke="white" stroke-width="1.5" stroke-miterlimit="10" stroke-linecap="round" stroke-linejoin="round"/> </g> <defs> <clipPath id="clip0_4482_7320"> <rect width="24" height="24" fill="white"/> </clipPath> </defs> </svg>
