<svg width="24" height="24" viewBox="0 0 24 24" fill="none" xmlns="http://www.w3.org/2000/svg"> <g clip-path="url(#clip0_2085_381345)"> <path d="M22.0001 5.66V10.96C22.0001 11.54 21.5301 12.02 20.9401 12.02H15.1201C14.5401 12.02 14.0601 11.55 14.0601 10.96V3.56C14.0601 2.98 14.5301 2.5 15.1201 2.5H18.9001C19.1901 2.5 19.4601 2.62 19.6601 2.82L21.6901 4.92C21.8801 5.12 21.9901 5.38 21.9901 5.66H22.0001Z" stroke="white" stroke-width="1.5" stroke-linecap="round" stroke-linejoin="round"/> <path d="M14.8501 19.8708H16.4801C18.7301 19.8708 20.5501 18.0508 20.5501 15.8008" stroke="white" stroke-width="1.5" stroke-linecap="round" stroke-linejoin="round"/> <path d="M16.0701 21.0904L14.8501 19.8704L16.0701 18.6504" stroke="white" stroke-width="1.5" stroke-linecap="round" stroke-linejoin="round"/> <path d="M9.1502 4.13086H7.5202C5.2702 4.13086 3.4502 5.95086 3.4502 8.20086" stroke="white" stroke-width="1.5" stroke-linecap="round" stroke-linejoin="round"/> <path d="M7.93018 2.91016L9.15018 4.13016L7.93018 5.35016" stroke="white" stroke-width="1.5" stroke-linecap="round" stroke-linejoin="round"/> <path d="M8.5 21.5005H8.87C9.46 21.5005 9.93 21.0205 9.93 20.4405V15.1405C9.93 14.8605 9.82 14.6005 9.63 14.4005L7.6 12.3005C7.4 12.1005 7.13 11.9805 6.84 11.9805H3.06C2.47 11.9805 2 12.4505 2 13.0405V20.4405C2 21.0205 2.47 21.5005 3.06 21.5005H5.5" stroke="white" stroke-width="1.5" stroke-linecap="round" stroke-linejoin="round"/> </g> <defs> <clipPath id="clip0_2085_381345"> <rect width="24" height="24" fill="white"/> </clipPath> </defs> </svg>
