<svg width="24" height="24" viewBox="0 0 24 24" fill="none" xmlns="http://www.w3.org/2000/svg"> <g clip-path="url(#clip0_655_9782)"> <path d="M12 22V14.78" stroke="white" stroke-width="1.5" stroke-linecap="round" stroke-linejoin="round"/> <path d="M12 9.22V2" stroke="white" stroke-width="1.5" stroke-linecap="round" stroke-linejoin="round"/> <path d="M21.9993 12H14.7793" stroke="white" stroke-width="1.5" stroke-linecap="round" stroke-linejoin="round"/> <path d="M9.22 12H2" stroke="white" stroke-width="1.5" stroke-linecap="round" stroke-linejoin="round"/> <path d="M10.0006 14L4.89062 19.11" stroke="white" stroke-width="1.5" stroke-linecap="round" stroke-linejoin="round"/> <path d="M19.1109 4.89001L16.3809 7.62001" stroke="white" stroke-width="1.5" stroke-linecap="round" stroke-linejoin="round"/> <path d="M14.7807 12C14.7807 12.78 14.4507 13.44 14.0007 14C13.4407 14.44 12.7807 14.78 12.0007 14.78C11.2207 14.78 10.5607 14.45 10.0007 14C9.4407 13.44 9.2207 12.78 9.2207 12C9.2207 11.22 9.5507 10.56 10.0007 10C10.5607 9.56 11.2207 9.22 12.0007 9.22C12.7807 9.22 13.4407 9.55 14.0007 10C14.4407 10.56 14.7807 11.22 14.7807 12Z" stroke="white" stroke-width="1.5" stroke-linecap="round" stroke-linejoin="round"/> <path d="M19.11 19.11L14 14" stroke="white" stroke-width="1.5" stroke-linecap="round" stroke-linejoin="round"/> <path d="M10.0006 10L4.89062 4.89001" stroke="white" stroke-width="1.5" stroke-linecap="round" stroke-linejoin="round"/> </g> <defs> <clipPath id="clip0_655_9782"> <rect width="24" height="24" fill="white"/> </clipPath> </defs> </svg>
