<svg width="24" height="24" viewBox="0 0 24 24" fill="none" xmlns="http://www.w3.org/2000/svg"> <g clip-path="url(#clip0_2085_392215)"> <path d="M10 10C10 11.1 10.9 12 12 12C13.1 12 14 11.1 14 10C14 8.9 13.1 8 12 8C10.9 8 10 8.9 10 10Z" stroke="white" stroke-width="1.5" stroke-linecap="round" stroke-linejoin="round"/> <path d="M18.25 15C19.35 13.63 20 11.89 20 10C20 5.58 16.42 2 12 2C7.58 2 4 5.58 4 10C4 11.89 4.66 13.63 5.75 15" stroke="white" stroke-width="1.5" stroke-linecap="round" stroke-linejoin="round"/> <path d="M15.36 22H17.85C19.11 22 19.75 22 20.2 21.66C20.4 21.52 20.57 21.33 20.7 21.11C21 20.61 21 19.9 21 18.5C21 17.1 21 16.39 20.7 15.89C20.57 15.67 20.4 15.48 20.2 15.34C19.8 15.04 19.25 15 18.25 15H5.75C4.75 15 4.2 15.04 3.8 15.34C3.6 15.48 3.43 15.67 3.3 15.89C3 16.39 3 17.1 3 18.5C3 19.9 3 20.61 3.3 21.11C3.43 21.33 3.6 21.52 3.8 21.66C4.25 22 4.89 22 6.15 22H11.89" stroke="white" stroke-width="1.5" stroke-linecap="round" stroke-linejoin="round"/> <path d="M11 18H13" stroke="white" stroke-width="1.5" stroke-linecap="round" stroke-linejoin="round"/> <path d="M15.8901 6.60961L17.9001 4.59961" stroke="white" stroke-width="1.5" stroke-linecap="round" stroke-linejoin="round"/> </g> <defs> <clipPath id="clip0_2085_392215"> <rect width="24" height="24" fill="white"/> </clipPath> </defs> </svg>
