<svg width="24" height="24" viewBox="0 0 24 24" fill="none" xmlns="http://www.w3.org/2000/svg"> <g clip-path="url(#clip0_4482_7401)"> <path d="M17 9C18.1 9 19 8.1 19 7C19 5.9 18.1 5 17 5C15.9 5 15 5.9 15 7C15 8.1 15.9 9 17 9Z" stroke="white" stroke-width="1.5" stroke-linecap="round" stroke-linejoin="round"/> <path d="M20.57 10.57L20.51 10.51L20.57 10.57ZM20.51 3.49001L20.57 3.42L20.51 3.49001ZM13.43 10.57L13.5 10.51L13.43 10.57ZM17 2.03999V2V2.03999ZM17 12V11.96V12ZM12.04 7H12H12.04ZM22 7H21.96H22ZM13.49 3.49001L13.42 3.42L13.49 3.49001Z" stroke="white" stroke-width="1.5" stroke-linecap="round" stroke-linejoin="round"/> <path d="M22 15C22 18.87 18.87 22 15 22L16.05 20.25" stroke="white" stroke-width="1.5" stroke-linecap="round" stroke-linejoin="round"/> <path d="M2 9C2 5.13 5.13 2 9 2L7.95 3.75" stroke="white" stroke-width="1.5" stroke-linecap="round" stroke-linejoin="round"/> <path d="M2.01006 17.2591C1.93006 16.8191 2.16006 16.2291 2.51006 15.9491L5.63007 13.4491C6.11007 13.0691 6.89006 13.0691 7.37006 13.4491L10.4901 15.9391C10.8401 16.2191 11.0601 16.8091 10.9901 17.2491L10.3901 20.8291C10.2801 21.4591 9.67007 21.9891 9.02007 21.9891H3.98006C3.66006 21.9891 3.34006 21.8591 3.09006 21.6491" stroke="white" stroke-width="1.5" stroke-linecap="round" stroke-linejoin="round"/> </g> <defs> <clipPath id="clip0_4482_7401"> <rect width="24" height="24" fill="white"/> </clipPath> </defs> </svg>
