<svg width="24" height="24" viewBox="0 0 24 24" fill="none" xmlns="http://www.w3.org/2000/svg"> <g clip-path="url(#clip0_4482_2805)"> <path d="M2 7.94V7C2 4.25 4.25 2 7 2H17C19.75 2 22 4.25 22 7V17C22 19.75 19.75 22 17 22H7C4.25 22 2 19.75 2 17V13.06" stroke="white" stroke-width="1.5" stroke-miterlimit="10" stroke-linecap="round" stroke-linejoin="round"/> <path d="M14 12.5V15.5C14 16.88 12.87 18 11.5 18H8.5C7.12 18 6 16.88 6 15.5V12.5C6 11.13 7.12 10 8.5 10H11.5C12.87 10 14 11.13 14 12.5Z" stroke="white" stroke-width="1.5" stroke-miterlimit="10" stroke-linecap="round" stroke-linejoin="round"/> <path d="M18 8.5V11.5C18 12.88 16.88 14 15.5 14H14V12.5C14 11.13 12.87 10 11.5 10H10V8.5C10 7.12 11.12 6 12.5 6H15.5C16.88 6 18 7.12 18 8.5Z" stroke="white" stroke-width="1.5" stroke-miterlimit="10" stroke-linecap="round" stroke-linejoin="round"/> </g> <defs> <clipPath id="clip0_4482_2805"> <rect width="24" height="24" fill="white"/> </clipPath> </defs> </svg>
