<svg width="24" height="24" viewBox="0 0 24 24" fill="none" xmlns="http://www.w3.org/2000/svg"> <g clip-path="url(#clip0_4482_2083)"> <path d="M6.9502 12.57V11.05C6.9502 10.19 7.65025 9.48997 8.51025 9.48997H10.0503C10.2703 9.48997 10.4803 9.42997 10.6703 9.32997L13.0403 7.96996C13.6603 7.60996 14.4402 8.05996 14.4402 8.77996V15.21C14.4402 15.97 13.5802 16.42 12.9602 15.97L10.7102 14.36C10.5002 14.21 10.2402 14.13 9.98022 14.13H8.51025C7.65025 14.13 6.9502 13.43 6.9502 12.57Z" stroke="white" stroke-width="1.5" stroke-linecap="round" stroke-linejoin="round"/> <path d="M17.0498 9.90991V14.0199" stroke="white" stroke-width="1.5" stroke-linecap="round" stroke-linejoin="round"/> <path d="M2 8V7C2 4.25 4.25 2 7 2H17C19.75 2 22 4.25 22 7V17C22 19.75 19.75 22 17 22H7C4.25 22 2 19.75 2 17V13" stroke="white" stroke-width="1.5" stroke-linecap="round" stroke-linejoin="round"/> </g> <defs> <clipPath id="clip0_4482_2083"> <rect width="24" height="24" fill="white"/> </clipPath> </defs> </svg>
