<svg width="24" height="24" viewBox="0 0 24 24" fill="none" xmlns="http://www.w3.org/2000/svg"> <g clip-path="url(#clip0_4482_2862)"> <path d="M2 7.92999V7C2 4.25 4.25 2 7 2H17C19.75 2 22 4.25 22 7V17C22 19.75 19.75 22 17 22H7C4.25 22 2 19.75 2 17V12.94" stroke="white" stroke-width="1.5" stroke-linecap="round" stroke-linejoin="round"/> <path d="M10.7902 14.05C10.3102 14.47 9.68024 14.73 8.98024 14.73C7.47024 14.73 6.24023 13.5 6.24023 11.99C6.24023 10.48 7.47024 9.25 8.98024 9.25C9.67024 9.25 10.3002 9.50999 10.7902 9.92999" stroke="white" stroke-width="1.5" stroke-linecap="round" stroke-linejoin="round"/> <path d="M17.7502 14.05C17.2702 14.47 16.6402 14.73 15.9402 14.73C14.4302 14.73 13.2002 13.5 13.2002 11.99C13.2002 10.48 14.4302 9.25 15.9402 9.25C16.6302 9.25 17.2602 9.50999 17.7502 9.92999" stroke="white" stroke-width="1.5" stroke-linecap="round" stroke-linejoin="round"/> </g> <defs> <clipPath id="clip0_4482_2862"> <rect width="24" height="24" fill="white"/> </clipPath> </defs> </svg>
