<svg width="24" height="24" viewBox="0 0 24 24" fill="none" xmlns="http://www.w3.org/2000/svg"> <g clip-path="url(#clip0_4482_7297)"> <path d="M6.17999 21.17C6.81999 21.82 7.74 22.12 8.63 21.96L13.98 21.08C14.72 20.96 15.29 20.4 15.44 19.66C15.46 19.54 15.46 19.44 15.46 19.31C15.46 18.37 14.69 17.54 13.69 17.54H11.86L14.4 15L14.48 14.92L14.53 14.87L15.5 13.91L15.51 13.9L17.2 12.22C17.59 11.82 17.77 11.29 17.74 10.77C17.72 10.33 17.53 9.89 17.2 9.55C16.83 9.19 16.34 9 15.86 9C15.69 9 15.52 9.02 15.36 9.08C15.05 9.15 14.77 9.31 14.53 9.55L12.3 11.78C12.05 12.03 11.65 12.08 11.33 11.9L10 11.12L9.41998 10.78L9 10.53L8.17999 10.05C7.22999 9.51 6.04002 9.64999 5.27002 10.43L3.16998 12.52C2.39998 13.3 2 14.32 2 15.35C2 16.16 2.24998 16.97 2.72998 17.66" stroke="white" stroke-width="1.5" stroke-miterlimit="10" stroke-linecap="round" stroke-linejoin="round"/> <path d="M22 6.55V10.45C22 13.7 20.7 15 17.45 15H14.4L14.48 14.92L14.53 14.87L15.5 13.91L15.51 13.9L17.2 12.22C17.59 11.82 17.77 11.29 17.74 10.77C17.72 10.33 17.53 9.89 17.2 9.55C16.83 9.19 16.34 9 15.86 9C15.69 9 15.52 9.02 15.36 9.08C15.05 9.15 14.77 9.31 14.53 9.55L12.3 11.78C12.05 12.03 11.65 12.08 11.33 11.9L10 11.12L9.41998 10.78L9 10.53V6.55C9 3.3 10.3 2 13.55 2H17.45C20.7 2 22 3.3 22 6.55Z" stroke="white" stroke-width="1.5" stroke-linecap="round" stroke-linejoin="round"/> </g> <defs> <clipPath id="clip0_4482_7297"> <rect width="24" height="24" fill="white"/> </clipPath> </defs> </svg>
