<svg width="24" height="24" viewBox="0 0 24 24" fill="none" xmlns="http://www.w3.org/2000/svg"> <g clip-path="url(#clip0_2085_385660)"> <path d="M10.7401 2.43012C11.4801 1.85012 12.5201 1.85012 13.2601 2.43012L15.3101 4.03012C15.8101 4.42012 16.1001 5.02012 16.1001 5.65012V14.8101M7.89006 14.8101V5.65012M7.89006 14.8101C7.89006 15.3801 8.35006 15.8401 8.92006 15.8401H15.0801C15.6501 15.8401 16.1101 15.3801 16.1101 14.8101M7.89006 14.8101H5.84006C5.27006 14.8101 4.81006 14.3501 4.81006 13.7801V11.0001C4.81006 10.6301 5.01006 10.2901 5.33006 10.1101L7.89006 8.64012V14.8001V14.8101ZM16.1101 14.8101H18.1601C18.7301 14.8101 19.1901 14.3501 19.1901 13.7801V11.0001C19.1901 10.6301 18.9901 10.2901 18.6701 10.1101L16.1101 8.64012V14.8001V14.8101ZM12.0001 10.7001V13.2701M10.4601 5.93012C11.6301 5.43012 12.2901 5.44012 13.5401 5.93012M10.9701 18.4001C10.4601 20.4501 9.94006 20.9701 8.92006 22.0001M13.0301 18.4001C13.5401 20.4501 14.0601 20.9701 15.0801 22.0001M8.40006 17.8901C7.58006 19.2101 6.35006 19.9401 5.32006 19.9401M15.6001 17.8901C16.4201 19.2101 17.6501 19.9401 18.6801 19.9401" stroke="white" stroke-width="1.5" stroke-linecap="round" stroke-linejoin="round"/> </g> <defs> <clipPath id="clip0_2085_385660"> <rect width="24" height="24" fill="white"/> </clipPath> </defs> </svg>
