<svg width="24" height="24" viewBox="0 0 24 24" fill="none" xmlns="http://www.w3.org/2000/svg"> <g clip-path="url(#clip0_2085_390003)"> <path d="M3.04004 11.5798V8.8898C3.04004 8.4998 3.51004 8.3198 3.78004 8.5998L5.53004 10.4398" stroke="white" stroke-width="1.5" stroke-linecap="round" stroke-linejoin="round"/> <path d="M5.53004 15.6702L3.78004 17.5102C3.51004 17.7902 3.04004 17.6002 3.04004 17.2202V14.2402" stroke="white" stroke-width="1.5" stroke-linecap="round" stroke-linejoin="round"/> <path d="M15.22 16.1702H18.89C20.6 16.1702 22 14.7702 22 13.0602C22 11.3502 20.6 9.9502 18.89 9.9502H6.64L2 12.4402V13.6802L3.04 14.2402L6.64 16.1702H9.95" stroke="white" stroke-width="1.5" stroke-linecap="round" stroke-linejoin="round"/> <path d="M11.8102 7.45996H16.9402V9.94996H10.4702C10.9202 9.11996 11.3702 8.28996 11.8202 7.45996H11.8102Z" stroke="white" stroke-width="1.5" stroke-linecap="round" stroke-linejoin="round"/> <path d="M13.1602 7.36996V5.70996" stroke="white" stroke-width="1.5" stroke-linecap="round" stroke-linejoin="round"/> <path d="M15.6499 7.38V6" stroke="white" stroke-width="1.5" stroke-linecap="round" stroke-linejoin="round"/> </g> <defs> <clipPath id="clip0_2085_390003"> <rect width="24" height="24" fill="white"/> </clipPath> </defs> </svg>
