<svg width="24" height="24" viewBox="0 0 24 24" fill="none" xmlns="http://www.w3.org/2000/svg"> <g clip-path="url(#clip0_4482_12011)"> <path d="M17.8602 11.5V19.04C17.8702 19.94 17.2702 20.73 16.4102 20.97C13.4202 21.68 10.3102 21.68 7.32024 20.97C6.45024 20.73 5.86024 19.94 5.87024 19.04V11.5" stroke="white" stroke-width="1.5" stroke-linecap="round" stroke-linejoin="round"/> <path d="M15.3699 2.55957C15.3699 3.33957 15.0599 4.08957 14.5099 4.63957C13.9599 5.18957 13.2099 5.49957 12.4299 5.49957H11.3199C9.68988 5.49957 8.37988 4.17957 8.37988 2.55957" stroke="white" stroke-width="1.5" stroke-linecap="round" stroke-linejoin="round"/> <path d="M2.34992 9.89941L1.99992 11.2194C1.84992 11.7994 1.82992 12.3994 1.93992 12.9894L2.83992 17.6894C2.92992 18.1594 3.33992 18.4994 3.81992 18.4994H5.85993" stroke="white" stroke-width="1.5" stroke-linecap="round" stroke-linejoin="round"/> <path d="M17.8596 18.4998H19.9196C20.3996 18.4998 20.8096 18.1598 20.8996 17.6898L21.7996 12.9898C21.9096 12.3998 21.8896 11.7998 21.7396 11.2198L20.4396 6.27977C20.1396 5.13977 19.3496 4.19977 18.2896 3.69977L16.7496 2.97977C16.0896 2.66977 15.3696 2.50977 14.6396 2.50977H9.10957C8.37957 2.50977 7.65957 2.66977 6.99957 2.97977L5.45957 3.69977C4.39957 4.19977 3.60957 5.13977 3.30957 6.27977" stroke="white" stroke-width="1.5" stroke-linecap="round" stroke-linejoin="round"/> </g> <defs> <clipPath id="clip0_4482_12011"> <rect width="24" height="24" fill="white"/> </clipPath> </defs> </svg>
