<svg width="24" height="24" viewBox="0 0 24 24" fill="none" xmlns="http://www.w3.org/2000/svg"> <g clip-path="url(#clip0_4482_2965)"> <path d="M2 10C2 7.79 3.79 6 6 6H16.21C17.07 6 17.89 6.36999 18.46 7.00999L21.7 10.67C22.37 11.43 22.37 12.56 21.7 13.32L18.46 16.98C17.89 17.62 17.07 17.99 16.21 17.99H6C4.15 17.99 2.59 16.73 2.13 15.02" stroke="white" stroke-width="1.5" stroke-linecap="round" stroke-linejoin="round"/> <path d="M14.5 13.5C15.32 13.5 16 12.82 16 12C16 11.18 15.32 10.5 14.5 10.5C13.68 10.5 13 11.18 13 12C13 12.82 13.68 13.5 14.5 13.5Z" stroke="white" stroke-width="1.5" stroke-linecap="round" stroke-linejoin="round"/> <path d="M8 6V18" stroke="white" stroke-width="1.5" stroke-linecap="round" stroke-linejoin="round"/> </g> <defs> <clipPath id="clip0_4482_2965"> <rect width="24" height="24" fill="white"/> </clipPath> </defs> </svg>
