<svg width="24" height="24" viewBox="0 0 24 24" fill="none" xmlns="http://www.w3.org/2000/svg"> <g clip-path="url(#clip0_4418_3905)"> <path d="M14.0401 4.51947L11.8301 5.99948L15.0301 10.7795L20.6901 6.98947C21.2601 6.60947 21.4101 5.82947 21.0301 5.26947L19.2101 2.55948C18.8301 1.98948 18.0501 1.83948 17.4901 2.21948" stroke="white" stroke-width="1.5" stroke-linecap="round" stroke-linejoin="round"/> <path d="M12.1737 6.47786L7.396 9.67773L9.9559 13.4999L14.7336 10.3L12.1737 6.47786Z" stroke="white" stroke-width="1.5" stroke-linecap="round" stroke-linejoin="round"/> <path d="M5.83004 15.8999L9.78004 13.2599L7.54004 9.91992L3.59004 12.5599C3.13004 12.8699 3.01004 13.4899 3.32004 13.9499L4.45004 15.6299C4.75004 16.0799 5.37004 16.1999 5.83004 15.8999Z" stroke="white" stroke-width="1.5" stroke-linecap="round" stroke-linejoin="round"/> <path d="M12.0501 12.1992L7.56006 21.9992" stroke="white" stroke-width="1.5" stroke-linecap="round" stroke-linejoin="round"/> <path d="M12 12.1992L16.44 21.9992" stroke="white" stroke-width="1.5" stroke-linecap="round" stroke-linejoin="round"/> </g> <defs> <clipPath id="clip0_4418_3905"> <rect width="24" height="24" fill="white"/> </clipPath> </defs> </svg>
