<svg width="24" height="24" viewBox="0 0 24 24" fill="none" xmlns="http://www.w3.org/2000/svg"> <g clip-path="url(#clip0_2085_390267)"> <path d="M20.9098 17.8601C21.2398 18.0201 21.5998 18.1501 21.9698 18.2201C21.9998 18.2201 21.9998 18.2701 21.9698 18.2801C20.2398 18.6301 18.8898 19.9801 18.5398 21.7101C18.5398 21.7401 18.4898 21.7401 18.4798 21.7101C18.1298 19.9801 16.7798 18.6301 15.0498 18.2801C15.0198 18.2801 15.0198 18.2301 15.0498 18.2201C16.7798 17.8701 18.1298 16.5201 18.4798 14.7901C18.4798 14.7601 18.5298 14.7601 18.5398 14.7901C18.5998 15.1001 18.6998 15.4101 18.8298 15.6901" stroke="white" stroke-width="1.5" stroke-linecap="round" stroke-linejoin="round"/> <path d="M13.4899 10.8902C13.4899 10.8902 13.5099 10.8802 13.5199 10.8902C13.6799 11.6602 14.2799 12.2602 15.0399 12.4102C15.0499 12.4102 15.0499 12.4302 15.0399 12.4402C14.2699 12.6002 13.6699 13.2002 13.5199 13.9602C13.5199 13.9702 13.4999 13.9702 13.4899 13.9602C13.3299 13.1902 12.7299 12.5902 11.9699 12.4402C11.9599 12.4402 11.9599 12.4202 11.9699 12.4102C12.7399 12.2502 13.3399 11.6502 13.4899 10.8902Z" stroke="white" stroke-width="1.5" stroke-linecap="round" stroke-linejoin="round"/> <path d="M11.8 20.32L10.32 21.13C9.49 21.58 8.47 21.54 7.68 21.01C7.02 20.57 6.2 20.46 5.46 20.71L4.71 20.96C3.38 21.4 2 20.41 2 19.01V8.87002C2 6.56002 2 5.40002 2.45 4.52002C2.85 3.74002 3.48 3.11002 4.25 2.72002C5.13 2.27002 6.29 2.27002 8.6 2.27002H12.93C15.24 2.27002 16.4 2.27002 17.28 2.72002C18.06 3.12002 18.69 3.75002 19.08 4.52002C19.53 5.40002 19.53 6.56002 19.53 8.87002V11.55M7.16 7.42002H14.38M7.16 12.06H8.97" stroke="white" stroke-width="1.5" stroke-linecap="round" stroke-linejoin="round"/> </g> <defs> <clipPath id="clip0_2085_390267"> <rect width="24" height="24" fill="white"/> </clipPath> </defs> </svg>
