<svg width="24" height="24" viewBox="0 0 24 24" fill="none" xmlns="http://www.w3.org/2000/svg"> <g clip-path="url(#clip0_4482_2581)"> <path d="M3.33984 7C5.06984 4.01 8.29985 2 11.9998 2C17.5198 2 21.9998 6.48 21.9998 12" stroke="white" stroke-width="1.5" stroke-miterlimit="10" stroke-linecap="round"/> <path d="M12 22C6.48 22 2 17.52 2 12" stroke="white" stroke-width="1.5" stroke-miterlimit="10" stroke-linecap="round"/> <path d="M15.9999 17.5V14.49C15.9999 13.66 16.6699 12.99 17.4999 12.99C18.3299 12.99 18.9999 13.66 18.9999 14.49V17.5C19.8599 18.15 20.2099 19.27 19.8699 20.29C19.5299 21.31 18.5699 22 17.4999 22C16.4299 22 15.4699 21.31 15.1299 20.29C14.7899 19.27 15.1399 18.14 15.9999 17.5Z" stroke="white" stroke-width="1.5" stroke-linecap="round" stroke-linejoin="round"/> </g> <defs> <clipPath id="clip0_4482_2581"> <rect width="24" height="24" fill="white"/> </clipPath> </defs> </svg>
