<svg width="24" height="24" viewBox="0 0 24 24" fill="none" xmlns="http://www.w3.org/2000/svg"> <g clip-path="url(#clip0_2085_390230)"> <path d="M2.71006 21.2895C1.76006 20.3395 1.76006 18.7895 2.71006 17.8395C3.66006 16.8895 5.21006 16.8895 6.16006 17.8395C7.11006 18.7895 7.11006 20.3395 6.16006 21.2895C5.21006 22.2395 3.66006 22.2395 2.71006 21.2895Z" stroke="white" stroke-width="1.5" stroke-linecap="round" stroke-linejoin="round"/> <path d="M4.54004 17.0997L10.01 11.6297L9.81004 9.61973C12.04 7.38973 15.04 4.14973 18.53 2.71973" stroke="white" stroke-width="1.5" stroke-linecap="round" stroke-linejoin="round"/> <path d="M21.2101 5.60938C19.7601 9.03938 16.5801 11.9894 14.3801 14.1894L12.3701 13.9894L6.90015 19.4594" stroke="white" stroke-width="1.5" stroke-linecap="round" stroke-linejoin="round"/> <path d="M10.0103 11.6299L12.3703 13.9899" stroke="white" stroke-width="1.5" stroke-linecap="round" stroke-linejoin="round"/> <path d="M9.91992 9.66016L13.0899 10.9002L14.2999 13.9902" stroke="white" stroke-width="1.5" stroke-linecap="round" stroke-linejoin="round"/> <path d="M13.0898 10.9094L18.0998 5.89941" stroke="white" stroke-width="1.5" stroke-linecap="round" stroke-linejoin="round"/> <path d="M8.3999 13.46L10.5399 15.6" stroke="white" stroke-width="1.5" stroke-linecap="round" stroke-linejoin="round"/> <path d="M6.67017 15.1895L8.81017 17.3295" stroke="white" stroke-width="1.5" stroke-linecap="round" stroke-linejoin="round"/> </g> <defs> <clipPath id="clip0_2085_390230"> <rect width="24" height="24" fill="white"/> </clipPath> </defs> </svg>
