<svg width="24" height="24" viewBox="0 0 24 24" fill="none" xmlns="http://www.w3.org/2000/svg"> <g clip-path="url(#clip0_2085_381283)"> <path d="M22 11.9399C22 17.4599 17.52 21.9399 12 21.9399C6.48 21.9399 2 17.4599 2 11.9399C2 6.41994 6.48 1.93994 12 1.93994C16.13 1.93994 19.68 4.43994 21.2 8.01994" stroke="white" stroke-width="1.5" stroke-linecap="round" stroke-linejoin="round"/> <path d="M11.9999 9.66977C13.2899 9.66977 14.3299 8.62977 14.3299 7.33977C14.3299 6.04977 13.2899 5.00977 11.9999 5.00977C10.7099 5.00977 9.66992 6.04977 9.66992 7.33977C9.66992 8.62977 10.7099 9.66977 11.9999 9.66977Z" stroke="white" stroke-width="1.5" stroke-miterlimit="10" stroke-linecap="round"/> <path d="M9.84981 16.8496L8.88981 16.3696C8.60981 16.2296 8.44981 15.9196 8.49981 15.6096L8.87981 13.3296C9.01981 12.4696 9.76981 11.8296 10.6398 11.8296H13.3298C14.1998 11.8296 14.9498 12.4596 15.0898 13.3296L15.4698 15.6096C15.5198 15.9196 15.3698 16.2296 15.0798 16.3696L14.1198 16.8496" stroke="white" stroke-width="1.5" stroke-miterlimit="10" stroke-linecap="round"/> <path d="M10.21 15.4199L10.5 18.3599C10.53 18.7299 10.85 18.9999 11.21 18.9999H12.78C13.15 18.9999 13.46 18.7199 13.49 18.3599L13.78 15.4199" stroke="white" stroke-width="1.5" stroke-miterlimit="10" stroke-linecap="round"/> </g> <defs> <clipPath id="clip0_2085_381283"> <rect width="24" height="24" fill="white"/> </clipPath> </defs> </svg>
