<svg width="24" height="24" viewBox="0 0 24 24" fill="none" xmlns="http://www.w3.org/2000/svg"> <g clip-path="url(#clip0_2085_385843)"> <path d="M2 3.87988V6.23988C2 7.45988 2.99 8.44988 4.2 8.44988H7.83" stroke="white" stroke-width="1.5" stroke-linecap="round" stroke-linejoin="round"/> <path d="M22.0001 3.87988V6.23988C22.0001 7.45988 21.0101 8.44988 19.8001 8.44988H19.3501" stroke="white" stroke-width="1.5" stroke-linecap="round" stroke-linejoin="round"/> <path d="M5.18018 8.45031V7.02031C5.18018 5.80031 6.17018 4.82031 7.38018 4.82031H14.4802" stroke="white" stroke-width="1.5" stroke-linecap="round" stroke-linejoin="round"/> <path d="M16.6902 16.3302V18.4702C16.6902 19.3802 15.9502 20.1202 15.0402 20.1202H6.83018C5.92018 20.1202 5.18018 19.3802 5.18018 18.4702V10.7402" stroke="white" stroke-width="1.5" stroke-linecap="round" stroke-linejoin="round"/> <path d="M19.35 10.0403V7.02031C19.35 5.80031 18.36 4.82031 17.15 4.82031H7.38C7.07 4.82031 6.77 4.89031 6.5 5.01031C7.28 5.35031 7.83 6.12031 7.83 7.02031V14.6703C7.83 15.5803 8.57 16.3203 9.48 16.3203H17.69C18.6 16.3203 19.34 15.5803 19.34 14.6703V13.8803" stroke="white" stroke-width="1.5" stroke-linecap="round" stroke-linejoin="round"/> </g> <defs> <clipPath id="clip0_2085_385843"> <rect width="24" height="24" fill="white"/> </clipPath> </defs> </svg>
