<svg width="24" height="24" viewBox="0 0 24 24" fill="none" xmlns="http://www.w3.org/2000/svg"> <g clip-path="url(#clip0_4482_2722)"> <path d="M4 7.87V6.5C4 4.02 6.03 2 8.5 2H15.5C17.97 2 20 4.02 20 6.5V17.5C20 19.98 17.97 22 15.5 22H8.5C6.03 22 4 19.98 4 17.5V13.06" stroke="white" stroke-width="1.5" stroke-linecap="round" stroke-linejoin="round"/> <path d="M10 6H14" stroke="white" stroke-width="1.5" stroke-linecap="round" stroke-linejoin="round"/> <path d="M10.7101 17H12.8501C14.0301 17 14.9901 16.04 14.9901 14.86C14.9901 13.68 14.0301 12.72 12.8501 12.72H9.8501" stroke="white" stroke-width="1.5" stroke-linecap="round" stroke-linejoin="round"/> <path d="M10.93 11L9 12.71L10.93 14.42" stroke="white" stroke-width="1.5" stroke-linecap="round" stroke-linejoin="round"/> </g> <defs> <clipPath id="clip0_4482_2722"> <rect width="24" height="24" fill="white"/> </clipPath> </defs> </svg>
