<svg width="24" height="24" viewBox="0 0 24 24" fill="none" xmlns="http://www.w3.org/2000/svg"> <g clip-path="url(#clip0_2085_385668)"> <path d="M6.02024 10.71C5.07024 12.52 5.56024 15.07 7.36024 16.9C9.05024 18.63 11.4002 19.21 13.1902 18.51" stroke="white" stroke-width="1.5" stroke-linecap="round" stroke-linejoin="round"/> <path d="M5.72998 3.94978C7.16998 2.53978 9.99998 2.90978 12.99 4.63978" stroke="white" stroke-width="1.5" stroke-linecap="round" stroke-linejoin="round"/> <path d="M20.5301 12.3099C22.2101 15.3299 22.5301 18.1699 21.0901 19.5799C18.9701 21.6699 13.8101 19.8599 9.57012 15.5399C6.83012 12.7499 5.15012 9.5999 4.87012 7.1499" stroke="white" stroke-width="1.5" stroke-linecap="round" stroke-linejoin="round"/> <path d="M19.44 13.6201L19.03 14.0201L18.33 14.5801C16.43 14.1301 14.7 13.1401 13.35 11.7201C12.01 10.3001 11.1 8.53007 10.75 6.60007L11.26 6.11007L11.67 5.70007C13.46 3.94007 16.65 4.29007 18.8 6.48007C20.94 8.66007 21.23 11.8601 19.44 13.6201Z" stroke="white" stroke-width="1.5" stroke-linecap="round" stroke-linejoin="round"/> <path d="M12.96 7.35976L13.18 7.13976C14.14 6.19976 15.84 6.37976 16.99 7.54976" stroke="white" stroke-width="1.5" stroke-linecap="round" stroke-linejoin="round"/> <path d="M3.35 15.9302L2 17.2802" stroke="white" stroke-width="1.5" stroke-linecap="round" stroke-linejoin="round"/> <path d="M4.66984 18.25L2.08984 20.83" stroke="white" stroke-width="1.5" stroke-linecap="round" stroke-linejoin="round"/> <path d="M6.99014 19.5801L5.64014 20.9301" stroke="white" stroke-width="1.5" stroke-linecap="round" stroke-linejoin="round"/> </g> <defs> <clipPath id="clip0_2085_385668"> <rect width="24" height="24" fill="white"/> </clipPath> </defs> </svg>
