<svg width="24" height="24" viewBox="0 0 24 24" fill="none" xmlns="http://www.w3.org/2000/svg"> <g clip-path="url(#clip0_2085_385284)"> <path d="M14.12 20.0906H14.49V7.64062H10.76V13.8706C9.96001 14.6606 9.51001 15.7506 9.51001 16.8706V20.0906H9.88001" stroke="white" stroke-width="1.5" stroke-linecap="round" stroke-linejoin="round"/> <path d="M12 17.6011V15.1111L10.76 13.8711" stroke="white" stroke-width="1.5" stroke-linecap="round" stroke-linejoin="round"/> <path d="M3.24 7.64062L2 11.3706V20.0806H5.73V7.64062H3.24Z" stroke="white" stroke-width="1.5" stroke-linecap="round" stroke-linejoin="round"/> <path d="M3.24 12.6209L2 11.3809" stroke="white" stroke-width="1.5" stroke-linecap="round" stroke-linejoin="round"/> <path d="M4.49 7.64016L3.25 5.15016H5.74L9.52 3.91016H14.5C14.5 3.91016 17.95 4.69016 19.52 3.91016H22.01V6.40016C22.01 7.09016 21.45 7.64016 20.77 7.64016" stroke="white" stroke-width="1.5" stroke-linecap="round" stroke-linejoin="round"/> <path d="M5.72998 7.64062H10.75" stroke="white" stroke-width="1.5" stroke-linecap="round" stroke-linejoin="round"/> <path d="M14.49 7.64062H18.27" stroke="white" stroke-width="1.5" stroke-linecap="round" stroke-linejoin="round"/> <path d="M18.27 19.8609C18.27 19.2109 18.53 18.5909 18.99 18.1309C19.33 17.7909 19.52 17.3309 19.52 16.8509V14.6109C19.52 14.1309 19.33 13.6709 18.99 13.3309L18.27 12.6109V7.63086H20.76C21.58 10.1009 22 12.6909 22 15.3009V20.0809H18.27V19.8509V19.8609Z" stroke="white" stroke-width="1.5" stroke-linecap="round" stroke-linejoin="round"/> </g> <defs> <clipPath id="clip0_2085_385284"> <rect width="24" height="24" fill="white"/> </clipPath> </defs> </svg>
