<svg width="24" height="24" viewBox="0 0 24 24" fill="none" xmlns="http://www.w3.org/2000/svg"> <g clip-path="url(#clip0_2085_392443)"> <path d="M22 8.60035H2V8.11035C2 7.01035 2.9 6.11035 4 6.11035H20C21.1 6.11035 22 7.01035 22 8.11035V8.60035Z" stroke="white" stroke-width="1.41" stroke-linecap="round" stroke-linejoin="round"/> <path d="M21.9999 8.60059V11.9406C21.9999 12.8906 21.3299 13.7106 20.3899 13.9006L20.1799 13.9406C18.0799 14.3606 16.1399 15.3906 14.6299 16.8906" stroke="white" stroke-width="1.41" stroke-linecap="round" stroke-linejoin="round"/> <path d="M2 8.60059V11.9406C2 12.8906 2.67 13.7106 3.61 13.9006L3.82 13.9406C5.92 14.3606 7.86 15.3906 9.37 16.8906" stroke="white" stroke-width="1.41" stroke-linecap="round" stroke-linejoin="round"/> <path d="M7.77002 15.5608L9.51002 8.59082" stroke="white" stroke-width="1.41" stroke-linecap="round" stroke-linejoin="round"/> <path d="M16.23 15.5608L14.49 8.59082" stroke="white" stroke-width="1.41" stroke-linecap="round" stroke-linejoin="round"/> </g> <defs> <clipPath id="clip0_2085_392443"> <rect width="24" height="24" fill="white"/> </clipPath> </defs> </svg>
