<svg width="24" height="24" viewBox="0 0 24 24" fill="none" xmlns="http://www.w3.org/2000/svg"> <g clip-path="url(#clip0_4482_12392)"> <path d="M3.62012 7.67953V6.26953C3.62012 4.05953 5.41012 2.26953 7.62012 2.26953H18.0001C20.2101 2.26953 22.0001 4.05953 22.0001 6.26953V17.7295C22.0001 19.9395 20.2101 21.7295 18.0001 21.7295H15.5101" stroke="white" stroke-width="1.5" stroke-linecap="round" stroke-linejoin="round"/> <path d="M17.6802 7.67969H7.9502" stroke="white" stroke-width="1.5" stroke-linecap="round" stroke-linejoin="round"/> <path d="M17.6795 12H15.5195" stroke="white" stroke-width="1.5" stroke-linecap="round" stroke-linejoin="round"/> <path d="M17.6795 16.3203H15.5195" stroke="white" stroke-width="1.5" stroke-linecap="round" stroke-linejoin="round"/> <path d="M6.86035 19.0303V21.7303" stroke="white" stroke-width="1.5" stroke-linecap="round" stroke-linejoin="round"/> <path d="M9.0302 21.7305H4.7002" stroke="white" stroke-width="1.5" stroke-linecap="round" stroke-linejoin="round"/> <path d="M2 17.03C2 18.13 2.9 19.03 4 19.03H9.73C10.83 19.03 11.73 18.13 11.73 17.03V14C11.73 12.9 10.83 12 9.73 12H4C3.34 12 2.75 12.32 2.39 12.81" stroke="white" stroke-width="1.5" stroke-linecap="round" stroke-linejoin="round"/> </g> <defs> <clipPath id="clip0_4482_12392"> <rect width="24" height="24" fill="white"/> </clipPath> </defs> </svg>
