<svg width="24" height="24" viewBox="0 0 24 24" fill="none" xmlns="http://www.w3.org/2000/svg"> <g clip-path="url(#clip0_4482_15235)"> <path d="M21.9996 16.4404V18.0004C21.9996 20.2104 20.2096 22.0004 17.9996 22.0004H17.5596" stroke="white" stroke-width="1.5" stroke-linecap="round" stroke-linejoin="round"/> <path d="M2 8.67V6C2 3.79 3.79 2 6 2H6.44" stroke="white" stroke-width="1.5" stroke-linecap="round" stroke-linejoin="round"/> <path d="M7.31035 16.7896C8.93959 16.7896 10.2604 15.4689 10.2604 13.8396C10.2604 12.2104 8.93959 10.8896 7.31035 10.8896C5.68111 10.8896 4.36035 12.2104 4.36035 13.8396C4.36035 15.4689 5.68111 16.7896 7.31035 16.7896Z" stroke="white" stroke-width="1.5" stroke-linecap="round" stroke-linejoin="round"/> <path d="M3 21.56C3 19.18 4.93 17.25 7.31 17.25C9.69 17.25 11.62 19.18 11.62 21.56" stroke="white" stroke-width="1.5" stroke-linecap="round" stroke-linejoin="round"/> <path d="M21.9997 9.11035C21.9997 11.3204 20.2097 13.1104 17.9997 13.1104H14.2197" stroke="white" stroke-width="1.5" stroke-linecap="round" stroke-linejoin="round"/> <path d="M9.78027 7.56V6C9.78027 3.79 11.5703 2 13.7803 2H18.0003C19.8003 2 21.3303 3.19 21.8303 4.83" stroke="white" stroke-width="1.5" stroke-linecap="round" stroke-linejoin="round"/> <path d="M13.6699 5.88965L15.0599 7.27965L13.6699 8.66965" stroke="white" stroke-width="1.5" stroke-linecap="round" stroke-linejoin="round"/> <path d="M17 9.21973H18.11" stroke="white" stroke-width="1.5" stroke-linecap="round" stroke-linejoin="round"/> </g> <defs> <clipPath id="clip0_4482_15235"> <rect width="24" height="24" fill="white"/> </clipPath> </defs> </svg>
