<svg width="24" height="24" viewBox="0 0 24 24" fill="none" xmlns="http://www.w3.org/2000/svg"> <g clip-path="url(#clip0_4482_14100)"> <path d="M9.13965 10.0195L7.13965 11.5195" stroke="white" stroke-width="1.5" stroke-linecap="round" stroke-linejoin="round"/> <path d="M9.13965 10.0195V17.0195" stroke="white" stroke-width="1.5" stroke-linecap="round" stroke-linejoin="round"/> <path d="M16.6401 15.5205H12.6401C12.4601 15.5205 12.3001 15.4305 12.2101 15.2805C12.1201 15.1305 12.1201 14.9405 12.2101 14.7905L14.6601 10.3105C14.7801 10.1005 15.0201 9.99047 15.2501 10.0505C15.4801 10.1105 15.6501 10.3205 15.6501 10.5605V17.0305" stroke="white" stroke-width="1.5" stroke-linecap="round" stroke-linejoin="round"/> <path d="M2.76953 9.11984C2.76953 7.03984 4.47953 5.33984 6.54953 5.33984H17.4495C19.5295 5.33984 21.2295 7.03984 21.2295 9.11984V18.2198C21.2295 20.2998 19.5195 21.9998 17.4495 21.9998H6.54953C4.46953 21.9998 2.76953 20.2898 2.76953 18.2198V13.6698" stroke="white" stroke-width="1.5" stroke-miterlimit="10" stroke-linecap="round"/> <path d="M16.9893 2L17.5493 5.33" stroke="white" stroke-width="1.5" stroke-miterlimit="10" stroke-linecap="round"/> <path d="M6.97945 2L6.43945 5.33" stroke="white" stroke-width="1.5" stroke-miterlimit="10" stroke-linecap="round"/> </g> <defs> <clipPath id="clip0_4482_14100"> <rect width="24" height="24" fill="white"/> </clipPath> </defs> </svg>
