<svg width="24" height="24" viewBox="0 0 24 24" fill="none" xmlns="http://www.w3.org/2000/svg"> <g clip-path="url(#clip0_2085_390274)"> <path d="M19.4399 20.2202C19.2499 20.5702 19.1199 20.9502 19.0299 21.3602C19.0299 21.3902 18.9799 21.3902 18.9699 21.3602C18.6299 19.6902 17.3199 18.3802 15.6499 18.0302C15.6199 18.0302 15.6199 17.9802 15.6499 17.9702C17.3299 17.6302 18.6299 16.3202 18.9699 14.6402C18.9699 14.6102 19.0199 14.6102 19.0299 14.6402C19.3699 16.3102 20.6799 17.6202 22.3599 17.9702C22.3899 17.9702 22.3899 18.0202 22.3599 18.0302C21.9899 18.1102 21.6399 18.2302 21.3099 18.3902" stroke="white" stroke-width="1.5" stroke-linecap="round" stroke-linejoin="round"/> <path d="M14.4899 12.0098C14.4899 12.0098 14.5099 11.9998 14.5199 12.0098C14.6699 12.7498 15.2499 13.3298 15.9999 13.4898C16.0099 13.4898 16.0099 13.5098 15.9999 13.5198C15.2599 13.6698 14.6799 14.2498 14.5199 14.9998C14.5199 15.0098 14.4999 15.0098 14.4899 14.9998C14.3399 14.2598 13.7599 13.6798 13.0099 13.5198C12.9999 13.5198 12.9999 13.4998 13.0099 13.4898C13.7499 13.3398 14.3299 12.7598 14.4899 12.0098Z" stroke="white" stroke-width="1.5" stroke-linecap="round" stroke-linejoin="round"/> <path d="M16.44 22H7C4.24 22 2 19.76 2 17V7C2 4.24 4.24 2 7 2H17C19.76 2 22 4.24 22 7V15" stroke="white" stroke-width="1.5" stroke-linecap="round" stroke-linejoin="round"/> <path d="M8 2V22" stroke="white" stroke-width="1.5" stroke-linecap="round" stroke-linejoin="round"/> <path d="M2 8H8" stroke="white" stroke-width="1.5" stroke-linecap="round" stroke-linejoin="round"/> <path d="M2 16H8" stroke="white" stroke-width="1.5" stroke-linecap="round" stroke-linejoin="round"/> <path d="M16 2V6C16 7.1 16.9 8 18 8H22" stroke="white" stroke-width="1.5" stroke-linecap="round" stroke-linejoin="round"/> </g> <defs> <clipPath id="clip0_2085_390274"> <rect width="24" height="24" fill="white"/> </clipPath> </defs> </svg>
