<svg width="24" height="24" viewBox="0 0 24 24" fill="none" xmlns="http://www.w3.org/2000/svg"> <g clip-path="url(#clip0_2085_390276)"> <path d="M7.65012 4.58008H13.7401C15.4201 4.58008 16.7801 5.94008 16.7801 7.62008M2.87012 10.2301V13.8001C2.87012 15.7501 2.87012 16.7201 3.25012 17.4701C3.58012 18.1201 4.12012 18.6601 4.77012 18.9901C5.51012 19.3701 6.49012 19.3701 8.44012 19.3701H11.2201C13.1701 19.3701 14.1401 19.3701 14.8901 18.9901C15.5401 18.6601 16.0801 18.1201 16.4101 17.4701C16.7901 16.7301 16.7901 15.7501 16.7901 13.8001V12.8401C16.7901 12.3601 16.7901 12.1201 16.8501 11.9001C16.9001 11.7001 16.9901 11.5201 17.1101 11.3501C17.2401 11.1601 17.4301 11.0101 17.7901 10.7001L18.5801 10.0401C19.6701 9.13008 20.2201 8.68008 20.6801 8.67008C21.0801 8.67008 21.4601 8.84008 21.7101 9.15008C22.0001 9.51008 22.0001 10.2201 22.0001 11.6401V12.4501C22.0001 13.4101 22.0001 13.8901 21.8801 14.1501C21.5901 14.7701 20.8801 15.0601 20.2401 14.8301C19.9701 14.7301 19.6301 14.3901 18.9501 13.7101" stroke="white" stroke-width="1.5" stroke-linecap="round" stroke-linejoin="round"/> <path d="M4.15012 4.15977C4.15012 4.15977 4.18012 4.13977 4.19012 4.15977C4.41012 5.23977 5.25012 6.07977 6.33012 6.29977C6.35012 6.29977 6.35012 6.32977 6.33012 6.33977C5.25012 6.55977 4.41012 7.39977 4.19012 8.47977C4.19012 8.49977 4.16012 8.49977 4.15012 8.47977C3.93012 7.39977 3.09012 6.55977 2.01012 6.33977C1.99012 6.33977 1.99012 6.30977 2.01012 6.29977" stroke="white" stroke-width="1.5" stroke-linecap="round" stroke-linejoin="round"/> <path d="M9.8002 9.04995C9.8002 9.04995 9.8502 9.01995 9.8502 9.04995C10.1502 10.51 11.2802 11.64 12.7402 11.94C12.7702 11.94 12.7702 11.99 12.7402 11.99C11.2802 12.29 10.1502 13.43 9.8502 14.88C9.8502 14.91 9.8002 14.91 9.8002 14.88C9.5002 13.42 8.3702 12.29 6.9102 11.99C6.8802 11.99 6.8802 11.94 6.9102 11.94C8.3702 11.64 9.5002 10.5 9.8002 9.04995Z" stroke="white" stroke-width="1.5" stroke-linecap="round" stroke-linejoin="round"/> </g> <defs> <clipPath id="clip0_2085_390276"> <rect width="24" height="24" fill="white"/> </clipPath> </defs> </svg>
