<svg width="24" height="24" viewBox="0 0 24 24" fill="none" xmlns="http://www.w3.org/2000/svg"> <g clip-path="url(#clip0_2085_385845)"> <path d="M11.2098 13.43C11.6898 12.95 13.5898 12.48 14.0698 12.48M5.0198 5.33C2.6398 10.09 3.1198 10.57 10.2598 9.14M10.2598 9.14C17.3998 7.71 20.2598 8.19 20.2598 8.19M10.2598 9.14C12.1598 16.28 9.7798 17.71 4.5498 20.09M13.1198 8.67C15.4998 16.29 15.9798 16.77 11.2198 22M12.6398 4.86C12.6398 5.91 11.7898 6.76 10.7398 6.76C9.6898 6.76 8.8398 5.91 8.8398 4.86C8.8398 3.81 9.6898 2.96 10.7398 2.96M20.2598 3.9C20.2598 4.95 19.4098 5.8 18.3598 5.8C17.3098 5.8 16.4598 4.95 16.4598 3.9C16.4598 2.85 17.3098 2 18.3598 2C19.4098 2 20.2598 2.85 20.2598 3.9Z" stroke="white" stroke-width="1.5" stroke-linecap="round" stroke-linejoin="round"/> </g> <defs> <clipPath id="clip0_2085_385845"> <rect width="24" height="24" fill="white"/> </clipPath> </defs> </svg>
