<svg width="24" height="24" viewBox="0 0 24 24" fill="none" xmlns="http://www.w3.org/2000/svg"> <g clip-path="url(#clip0_2085_380985)"> <path d="M17.5601 10.53V21.89" stroke="white" stroke-width="1.5" stroke-linecap="round" stroke-linejoin="round"/> <path d="M22 6.91003V18.38C22 19.82 20.39 21.1 17.91 21.89C17.68 21.96 17.44 21.95 17.22 21.86L12 19.68L6.78 21.86C6.56 21.95 6.31 21.97 6.09 21.89C3.61 21.1 2 19.82 2 18.38V6.91003" stroke="white" stroke-width="1.5" stroke-linecap="round" stroke-linejoin="round"/> <path d="M12 19.67V8.19995" stroke="white" stroke-width="1.5" stroke-linecap="round" stroke-linejoin="round"/> <path d="M11.9999 8.19995L6.43994 10.53" stroke="white" stroke-width="1.5" stroke-linecap="round" stroke-linejoin="round"/> <path d="M17.56 10.53L12 8.19995" stroke="white" stroke-width="1.5" stroke-linecap="round" stroke-linejoin="round"/> <path d="M3.65991 4.2C5.44991 2.87 8.51991 2 11.9999 2C17.5199 2 21.9999 4.2 21.9999 6.91C21.9999 8.42 20.2399 9.75 17.5599 10.53" stroke="white" stroke-width="1.5" stroke-linecap="round" stroke-linejoin="round"/> <path d="M6.44 10.53C3.76 9.75003 2 8.42003 2 6.91003" stroke="white" stroke-width="1.5" stroke-linecap="round" stroke-linejoin="round"/> <path d="M2 12.65C2 14.16 3.76 15.49 6.44 16.27L12 13.94L17.56 16.27C20.24 15.49 22 14.16 22 12.65" stroke="white" stroke-width="1.5" stroke-linecap="round" stroke-linejoin="round"/> <path d="M6.43994 10.53V21.89" stroke="white" stroke-width="1.5" stroke-linecap="round" stroke-linejoin="round"/> </g> <defs> <clipPath id="clip0_2085_380985"> <rect width="24" height="24" fill="white"/> </clipPath> </defs> </svg>
