<svg width="24" height="24" viewBox="0 0 24 24" fill="none" xmlns="http://www.w3.org/2000/svg"> <g clip-path="url(#clip0_4482_13479)"> <path d="M7.91035 16.8203L6.16035 18.5703L5.11035 17.5303" stroke="white" stroke-width="1.5" stroke-linecap="round" stroke-linejoin="round"/> <path d="M10.7504 18.2597C10.4604 18.6497 10.1604 19.0397 10.1604 19.0397V19.1497L10.0304 20.0197C9.97043 20.4697 9.66043 20.8497 9.24043 20.9997C9.16043 21.0297 9.08043 21.0497 8.99043 21.0597L8.01043 21.1897L7.23043 21.7797C6.80043 22.1097 6.20043 22.1097 5.77043 21.7797L4.99043 21.1897L4.01043 21.0597C3.54043 20.9997 3.16043 20.6597 3.02043 20.2297C3.00043 20.1597 2.98043 20.0897 2.97043 20.0197L2.84043 19.0397L2.57043 18.6797L2.25043 18.2597C1.92043 17.8297 1.92043 17.2297 2.25043 16.7997C2.54043 16.4097 2.84043 16.0197 2.84043 16.0197L2.95043 15.2497L2.98043 15.0397C3.05043 14.4997 3.47043 14.0697 4.01043 13.9997L4.99043 13.8697L5.77043 13.2797C6.20043 12.9497 6.80043 12.9497 7.23043 13.2797L8.01043 13.8697L8.30043 13.9097L8.98043 13.9997H8.99043C9.53043 14.0697 9.96043 14.4997 10.0304 15.0397L10.1604 16.0197L10.7504 16.7997C11.0804 17.2297 11.0804 17.8297 10.7504 18.2597Z" stroke="white" stroke-width="1.5" stroke-linecap="round" stroke-linejoin="round"/> <path d="M20.8602 9.96973C20.9602 10.2997 21.0202 10.6497 21.0202 11.0197V12.3897H19.1002C18.5702 12.3897 18.0802 12.5997 17.7302 12.9597C17.3302 13.3497 17.1002 13.9097 17.1602 14.5097C17.2502 15.5397 18.1902 16.2897 19.2102 16.2897H21.0202V17.4197C21.0202 19.3897 19.4102 20.9997 17.4402 20.9997H9.49023" stroke="white" stroke-width="1.5" stroke-linecap="round" stroke-linejoin="round"/> <path d="M2.9502 15.2504V11.0204C2.9502 9.05043 4.5602 7.44043 6.5302 7.44043H17.4502" stroke="white" stroke-width="1.5" stroke-linecap="round" stroke-linejoin="round"/> <path d="M2.9502 11.8798V7.52977C2.9502 6.39977 3.6402 5.38977 4.7002 4.98977L12.2502 2.13977C13.4302 1.68977 14.6902 2.56977 14.6902 3.82977V7.43977" stroke="white" stroke-width="1.5" stroke-linecap="round" stroke-linejoin="round"/> <path d="M22.0296 13.3596V15.3196C22.0296 15.8396 21.6096 16.2696 21.0796 16.2896H19.2196C18.1896 16.2896 17.2496 15.5396 17.1696 14.5096C17.1096 13.9096 17.3396 13.3496 17.7396 12.9596C18.0896 12.5996 18.5796 12.3896 19.1096 12.3896H21.0896C21.6196 12.4096 22.0396 12.8396 22.0396 13.3596H22.0296Z" stroke="white" stroke-width="1.5" stroke-linecap="round" stroke-linejoin="round"/> </g> <defs> <clipPath id="clip0_4482_13479"> <rect width="24" height="24" fill="white"/> </clipPath> </defs> </svg>
