<svg width="24" height="24" viewBox="0 0 24 24" fill="none" xmlns="http://www.w3.org/2000/svg"> <g clip-path="url(#clip0_2085_385867)"> <path d="M10.57 17.4798C9.62 18.9098 3.9 16.5298 3.9 16.5298L2 17.9598M18.31 17.9498H16.76C17.02 16.4898 16.76 9.1798 15.73 9.9098C13.15 11.3698 12.99 10.3998 11.69 11.1298C10.98 11.5298 11 12.9598 11 14.4098M16.29 12.2398C14.86 13.6698 12.96 14.1398 11.05 13.6698M22 7.9498C22 8.9998 21.15 9.8498 20.1 9.8498C19.05 9.8498 18.2 8.9998 18.2 7.9498C18.2 6.8998 19.05 6.0498 20.1 6.0498C21.15 6.0498 22 6.8998 22 7.9498Z" stroke="white" stroke-width="1.5" stroke-linecap="round" stroke-linejoin="round"/> </g> <defs> <clipPath id="clip0_2085_385867"> <rect width="24" height="24" fill="white"/> </clipPath> </defs> </svg>
