<svg width="24" height="24" viewBox="0 0 24 24" fill="none" xmlns="http://www.w3.org/2000/svg"> <g clip-path="url(#clip0_2085_385874)"> <path d="M20.8199 17.51C17.0799 15.37 12.7999 7.56 11.7299 9.16C10.6599 10.76 10.1299 19.32 3.16992 22C3.69992 20.4 5.83992 13.98 4.23992 9.7M11.8899 9.01C10.2899 9.54 7.44992 13.24 3.16992 13.24M13.2999 14.53C12.7799 15.61 11.8299 15.97 10.1299 14.84M12.3099 15.47C16.5899 17.07 26.1799 21.79 10.6699 20.72M16.0099 4.14C16.0099 5.32 15.0499 6.28 13.8699 6.28C12.6899 6.28 11.7299 5.32 11.7299 4.14C11.7299 2.96 12.6899 2 13.8699 2C15.0499 2 16.0099 2.96 16.0099 4.14Z" stroke="white" stroke-width="1.5" stroke-linecap="round" stroke-linejoin="round"/> </g> <defs> <clipPath id="clip0_2085_385874"> <rect width="24" height="24" fill="white"/> </clipPath> </defs> </svg>
