<svg width="24" height="24" viewBox="0 0 24 24" fill="none" xmlns="http://www.w3.org/2000/svg"> <g clip-path="url(#clip0_2085_385881)"> <path d="M15.0998 3.24023C14.1198 3.24023 13.3198 4.04023 13.3198 5.02023C13.3198 6.00023 14.1198 6.80023 15.0998 6.80023C16.0798 6.80023 16.8798 6.00023 16.8798 5.02023" stroke="white" stroke-width="1.5" stroke-linecap="round" stroke-linejoin="round"/> <path d="M10.2599 2L9.81988 2.87C8.94988 4.6 9.44988 6.71 11.0099 7.85L16.4899 11.74C16.9499 12.07 17.0099 12.73 16.6099 13.14L14.4399 15.41" stroke="white" stroke-width="1.5" stroke-linecap="round" stroke-linejoin="round"/> <path d="M7.17987 21.9996C6.99987 19.3396 7.22987 16.9296 7.65987 14.8296C8.35987 11.4196 9.56987 8.82957 10.4199 7.30957" stroke="white" stroke-width="1.5" stroke-linecap="round" stroke-linejoin="round"/> <path d="M13.7599 9.7998C13.2599 11.1298 12.2299 13.1298 10.2999 14.1598C9.5599 14.5598 8.6799 14.8198 7.6499 14.8298" stroke="white" stroke-width="1.5" stroke-linecap="round" stroke-linejoin="round"/> <path d="M15.6798 22.0002L10.2998 14.1602" stroke="white" stroke-width="1.5" stroke-linecap="round" stroke-linejoin="round"/> </g> <defs> <clipPath id="clip0_2085_385881"> <rect width="24" height="24" fill="white"/> </clipPath> </defs> </svg>
