<svg width="24" height="24" viewBox="0 0 24 24" fill="none" xmlns="http://www.w3.org/2000/svg"> <g clip-path="url(#clip0_4482_12018)"> <path d="M10.21 10.4502L12.15 12.3902L14.6 11.8002" stroke="white" stroke-width="1.5" stroke-linecap="round" stroke-linejoin="round"/> <path d="M5.25012 13.9102L2.61012 16.5502C1.79012 17.3702 1.79012 18.7102 2.61012 19.5302L4.46012 21.3802C5.28012 22.2002 6.62012 22.2002 7.44012 21.3802L10.0701 18.7502" stroke="white" stroke-width="1.5" stroke-linecap="round" stroke-linejoin="round"/> <path d="M13.9102 5.25012L16.5502 2.61012C17.3702 1.79012 18.7102 1.79012 19.5302 2.61012L21.3802 4.46012C22.2002 5.28012 22.2002 6.62012 21.3802 7.44012L18.7402 10.0801" stroke="white" stroke-width="1.5" stroke-linecap="round" stroke-linejoin="round"/> <path d="M17.9602 15.7C16.7202 17.69 14.5202 19.02 12.0002 19.02C8.13023 19.02 4.99023 15.88 4.99023 12.01C4.99023 8.14 8.13023 5 12.0002 5C15.8702 5 19.0102 8.14 19.0102 12.01" stroke="white" stroke-width="1.5" stroke-linecap="round" stroke-linejoin="round"/> </g> <defs> <clipPath id="clip0_4482_12018"> <rect width="24" height="24" fill="white"/> </clipPath> </defs> </svg>
