<svg width="24" height="24" viewBox="0 0 24 24" fill="none" xmlns="http://www.w3.org/2000/svg"> <g clip-path="url(#clip0_2085_380978)"> <path d="M15.57 8.43L2 22M8.29 15.71L8.52 15.52C8.75 15.32 8.95 15.1 9.13 14.86C10.53 12.99 10.15 10.34 8.28 8.93L8.05 9.12C7.82 9.32 7.62 9.53999 7.44 9.77999C6.04 11.65 6.42 14.3 8.29 15.71ZM8.29 15.71L8.48 15.94C8.68 16.17 8.9 16.37 9.14 16.55C11.01 17.95 13.66 17.57 15.07 15.7L14.88 15.47C14.68 15.24 14.46 15.04 14.22 14.86C12.35 13.46 9.7 13.84 8.29 15.71ZM18.45 12.33L18.26 12.1C18.06 11.87 17.84 11.67 17.6 11.49C15.73 10.09 13.08 10.47 11.67 12.34L11.86 12.57C12.06 12.8 12.28 13 12.52 13.18C13.11 13.62 13.77 13.89 14.45 13.98M15.06 8.93999L15.29 8.75C15.52 8.55 15.72 8.33 15.9 8.09C17.3 6.22 16.92 3.57 15.05 2.16L14.82 2.35C14.59 2.55 14.39 2.77 14.21 3.01C12.81 4.88 13.19 7.52999 15.06 8.93999ZM15.06 8.93999L15.25 9.17C15.45 9.4 15.67 9.59999 15.91 9.77999C17.78 11.18 20.43 10.8 21.84 8.93L21.65 8.7C21.45 8.47 21.23 8.27 20.99 8.09C19.12 6.69 16.47 7.06999 15.06 8.93999ZM4.82 19.18L5.05 18.99C5.28 18.79 5.48 18.57 5.66 18.33C7.06 16.46 6.68 13.81 4.81 12.4L4.58 12.59C4.35 12.79 4.15 13.01 3.97 13.25C2.57 15.12 2.95 17.77 4.82 19.18ZM4.82 19.18L5.01 19.41C5.21 19.64 5.43 19.84 5.67 20.02C7.54 21.42 10.19 21.04 11.6 19.17L11.41 18.94C11.21 18.71 10.99 18.51 10.75 18.33C8.88 16.93 6.23 17.31 4.82 19.18ZM11.67 12.33L11.9 12.14C12.13 11.94 12.33 11.72 12.51 11.48C13.91 9.60999 13.53 6.96 11.66 5.55L11.43 5.74C11.2 5.94 11 6.16 10.82 6.4C9.42 8.27 9.8 10.92 11.67 12.33ZM18.37 6.83C18.07 6.87 17.77 6.88 17.47 6.86L17.17 6.83C16.84 4.52 18.45 2.37 20.76 2.04C21.16 1.98 21.56 1.98 21.96 2.04C22.29 4.35 20.68 6.5 18.37 6.83Z" stroke="white" stroke-width="1.5" stroke-linecap="round" stroke-linejoin="round"/> </g> <defs> <clipPath id="clip0_2085_380978"> <rect width="24" height="24" fill="white"/> </clipPath> </defs> </svg>
