<svg width="24" height="24" viewBox="0 0 24 24" fill="none" xmlns="http://www.w3.org/2000/svg"> <g clip-path="url(#clip0_2085_385606)"> <path d="M20.2598 2.43023C20.2598 2.31023 20.2098 2.20023 20.1298 2.12023C20.0498 2.04023 19.9398 1.99023 19.8198 1.99023H13.3098C13.2198 1.99023 13.1398 2.02023 13.0698 2.06023C12.9998 2.11023 12.9398 2.18023 12.9098 2.26023C12.8798 2.34023 12.8698 2.43023 12.8898 2.51023C12.9098 2.59023 12.9498 2.67023 13.0098 2.73023L19.5198 9.24023C19.5798 9.30023 19.6598 9.34023 19.7398 9.36023C19.8198 9.38023 19.9098 9.36023 19.9898 9.34023C20.0698 9.31023 20.1398 9.25023 20.1798 9.18023C20.2198 9.11023 20.2498 9.02023 20.2498 8.94023V2.43023H20.2598Z" stroke="white" stroke-width="1.5" stroke-linecap="round" stroke-linejoin="round"/> <path d="M10.79 6.54004L13.79 3.54004L18.71 8.46004L13.18 13.99C13.1 14.07 13 14.14 12.9 14.18C12.79 14.22 12.68 14.25 12.57 14.25C12.46 14.25 12.34 14.23 12.24 14.18C12.13 14.14 12.04 14.07 11.96 13.99L8.27002 10.3C8.11002 10.14 8.02002 9.92004 8.02002 9.69004C8.02002 9.46004 8.11002 9.24004 8.27002 9.08004" stroke="white" stroke-width="1.5" stroke-linecap="round" stroke-linejoin="round"/> <path d="M9.28 11.75L3.75 17.28" stroke="white" stroke-width="1.5" stroke-linecap="round" stroke-linejoin="round"/> <path d="M10.7301 12.7603C10.7301 12.7603 8.27005 14.6103 10.7301 17.0603" stroke="white" stroke-width="1.5" stroke-linecap="round" stroke-linejoin="round"/> <path d="M13.2999 22.0003L14.1699 20.2603L15.9099 19.3903L14.1699 18.5203L13.2999 16.7803L12.4299 18.5203L10.6899 19.3903L12.4299 20.2603L13.2999 22.0003Z" stroke="white" stroke-width="1.5" stroke-linecap="round" stroke-linejoin="round"/> </g> <defs> <clipPath id="clip0_2085_385606"> <rect width="24" height="24" fill="white"/> </clipPath> </defs> </svg>
