<svg width="24" height="24" viewBox="0 0 24 24" fill="none" xmlns="http://www.w3.org/2000/svg"> <g clip-path="url(#clip0_2085_381342)"> <path d="M10.9999 9.68992C8.5599 9.92992 6.3899 11.0899 4.8099 12.8199L2.5299 10.1599C1.6899 9.18992 1.8799 7.71992 2.9099 6.95992C8.2999 2.98992 15.6999 2.98992 21.0899 6.95992C22.1199 7.71992 22.3099 9.18992 21.4699 10.1599L19.1899 12.8199C17.8299 11.3299 16.0399 10.2699 13.9999 9.83992" stroke="white" stroke-width="1.5" stroke-linecap="round" stroke-linejoin="round"/> <path d="M14.0001 9.83945C16.0401 10.2695 17.8301 11.3295 19.1901 12.8195L15.2901 17.3495C14.5901 16.2595 13.3801 15.5295 12.0001 15.5295C10.6201 15.5295 9.41006 16.2595 8.70006 17.3395L4.81006 12.8195C6.39006 11.0895 8.56006 9.92945 11.0001 9.68945" stroke="white" stroke-width="1.5" stroke-linecap="round" stroke-linejoin="round"/> <path d="M15.2897 17.3493L13.6497 19.2593C12.7797 20.2693 11.2197 20.2693 10.3497 19.2593L8.69971 17.3493C9.40971 16.2593 10.6097 15.5293 11.9997 15.5293C13.3897 15.5293 14.5897 16.2593 15.2897 17.3493Z" stroke="white" stroke-width="1.5" stroke-linecap="round" stroke-linejoin="round"/> </g> <defs> <clipPath id="clip0_2085_381342"> <rect width="24" height="24" fill="white"/> </clipPath> </defs> </svg>
