<svg width="24" height="24" viewBox="0 0 24 24" fill="none" xmlns="http://www.w3.org/2000/svg"> <g clip-path="url(#clip0_2085_390124)"> <path d="M22 19.67C22 20.96 20.96 22 19.67 22C19.05 22 18.45 21.75 18.02 21.32C17.59 20.89 17.33 20.29 17.33 19.67V10C14.39 10 12 7.61 12 4.67C12 7.61 9.61 10 6.67 10V19.67C6.67 20.29 6.42 20.88 5.98 21.32C5.55 21.75 4.95 22 4.33 22C3.04 22 2 20.96 2 19.67C3.1 19.67 4 18.77 4 17.67V10C4 5.58 7.58 2 12 2C14.12 2 16.16 2.84 17.66 4.34C19.16 5.84 20 7.88 20 10V17.67C20 18.77 20.9 19.67 22 19.67Z" stroke="white" stroke-width="1.41" stroke-linecap="round" stroke-linejoin="round"/> </g> <defs> <clipPath id="clip0_2085_390124"> <rect width="24" height="24" fill="white"/> </clipPath> </defs> </svg>
