<svg width="24" height="24" viewBox="0 0 24 24" fill="none" xmlns="http://www.w3.org/2000/svg"> <g clip-path="url(#clip0_655_9812)"> <path d="M2 5.15997C3.67 5.15997 3.67 5.93997 5.33 5.93997C6.99 5.93997 7 5.15997 8.66 5.15997C10.32 5.15997 10.33 5.93997 11.99 5.93997C13.65 5.93997 13.66 5.15997 15.32 5.15997C16.98 5.15997 16.99 5.93997 18.65 5.93997C20.31 5.93997 20.32 5.15997 21.98 5.15997" stroke="white" stroke-width="1.5" stroke-linecap="round" stroke-linejoin="round"/> <path d="M5.33008 7.7V5.94" stroke="white" stroke-width="1.5" stroke-linecap="round" stroke-linejoin="round"/> <path d="M8.66992 5.16002V3.40002" stroke="white" stroke-width="1.5" stroke-linecap="round" stroke-linejoin="round"/> <path d="M15.3301 5.16002V3.40002" stroke="white" stroke-width="1.5" stroke-linecap="round" stroke-linejoin="round"/> <path d="M12 7.7V5.94" stroke="white" stroke-width="1.5" stroke-linecap="round" stroke-linejoin="round"/> <path d="M18.6699 7.7V5.94" stroke="white" stroke-width="1.5" stroke-linecap="round" stroke-linejoin="round"/> <path d="M22.0007 9.46002C20.3307 9.46002 20.3307 10.24 18.6707 10.24C17.0107 10.24 17.0007 9.46002 15.3307 9.46002C13.6607 9.46002 13.6707 10.24 12.0007 10.24C10.3307 10.24 10.3307 9.46002 8.6707 9.46002C7.9807 9.46002 7.5807 9.60002 7.2207 9.75002" stroke="white" stroke-width="1.5" stroke-linecap="round" stroke-linejoin="round"/> <path d="M3.13 9.62002C2.84 9.53002 2.5 9.46002 2 9.46002" stroke="white" stroke-width="1.5" stroke-linecap="round" stroke-linejoin="round"/> <path d="M8.66992 9.46001V7.70001" stroke="white" stroke-width="1.5" stroke-linecap="round" stroke-linejoin="round"/> <path d="M15.3301 9.46001V7.70001" stroke="white" stroke-width="1.5" stroke-linecap="round" stroke-linejoin="round"/> <path d="M12 12V10.24" stroke="white" stroke-width="1.5" stroke-linecap="round" stroke-linejoin="round"/> <path d="M18.6699 12V10.24" stroke="white" stroke-width="1.5" stroke-linecap="round" stroke-linejoin="round"/> <path d="M2 13.76C3.67 13.76 3.67 14.54 5.33 14.54C6.99 14.54 7 13.76 8.66 13.76C10.32 13.76 10.33 14.54 11.99 14.54C13.65 14.54 13.66 13.76 15.32 13.76C16.98 13.76 16.99 14.54 18.65 14.54C20.31 14.54 20.32 13.76 21.98 13.76" stroke="white" stroke-width="1.5" stroke-linecap="round" stroke-linejoin="round"/> <path d="M5.33008 16.3V14.54" stroke="white" stroke-width="1.5" stroke-linecap="round" stroke-linejoin="round"/> <path d="M8.66992 13.76V12" stroke="white" stroke-width="1.5" stroke-linecap="round" stroke-linejoin="round"/> <path d="M15.3301 13.76V12" stroke="white" stroke-width="1.5" stroke-linecap="round" stroke-linejoin="round"/> <path d="M12 16.3V14.54" stroke="white" stroke-width="1.5" stroke-linecap="round" stroke-linejoin="round"/> <path d="M18.6699 16.3V14.54" stroke="white" stroke-width="1.5" stroke-linecap="round" stroke-linejoin="round"/> <path d="M2 18.05C3.67 18.05 3.67 18.83 5.33 18.83C6.99 18.83 7 18.05 8.66 18.05C10.32 18.05 10.33 18.83 11.99 18.83C13.65 18.83 13.66 18.05 15.32 18.05C16.98 18.05 16.99 18.83 18.65 18.83C20.31 18.83 20.32 18.05 21.98 18.05" stroke="white" stroke-width="1.5" stroke-linecap="round" stroke-linejoin="round"/> <path d="M5.33008 20.59V18.83" stroke="white" stroke-width="1.5" stroke-linecap="round" stroke-linejoin="round"/> <path d="M8.66992 18.05V16.29" stroke="white" stroke-width="1.5" stroke-linecap="round" stroke-linejoin="round"/> <path d="M15.3301 18.05V16.29" stroke="white" stroke-width="1.5" stroke-linecap="round" stroke-linejoin="round"/> <path d="M12 20.59V18.83" stroke="white" stroke-width="1.5" stroke-linecap="round" stroke-linejoin="round"/> <path d="M18.6699 20.59V18.83" stroke="white" stroke-width="1.5" stroke-linecap="round" stroke-linejoin="round"/> </g> <defs> <clipPath id="clip0_655_9812"> <rect width="24" height="24" fill="white"/> </clipPath> </defs> </svg>
