<svg width="24" height="24" viewBox="0 0 24 24" fill="none" xmlns="http://www.w3.org/2000/svg"> <g clip-path="url(#clip0_2085_392548)"> <path d="M8.75989 3.4C9.94989 2.49 11.4199 2 12.9299 2C13.9099 2 15.0299 2.26 16.0099 2.72C17.3499 3.34 18.3899 4.29 19.0199 5.48C19.5099 6.39 19.1599 7.52 18.2499 8C17.3399 8.49 16.2099 8.14 15.7299 7.24C15.1299 6.11 13.5599 5.73 12.9299 5.73C12.1799 5.73 11.4299 6.01 10.8599 6.49C10.3899 6.89 10.1099 7.39 10.1099 7.85C10.1099 8.8 10.3899 9.43 10.7099 10.17C10.8999 10.59 11.0899 11.04 11.2299 11.54H13.3499C14.0399 11.54 14.5899 12.1 14.5899 12.79C14.5899 13.48 14.0399 14.03 13.3499 14.03H11.3399C11.1899 15.69 10.7399 17.12 10.2399 18.27H17.4999C18.5299 18.27 19.3599 19.1 19.3599 20.13C19.3599 21.16 18.5299 22 17.4999 22H6.91989C6.16989 22 5.48989 21.56 5.18989 20.88C4.89989 20.19 5.02989 19.41 5.53989 18.87C5.58989 18.81 6.10989 18.21 6.61989 17.19C7.11989 16.18 7.44989 15.12 7.57989 14.03H5.87989C5.18989 14.03 4.63989 13.48 4.63989 12.79C4.63989 12.1 5.18989 11.54 5.87989 11.54H7.23989C6.85989 10.67 6.37989 9.5 6.37989 7.85C6.37989 7.7 6.38989 7.55 6.39989 7.4" stroke="white" stroke-width="1.5" stroke-linecap="round" stroke-linejoin="round"/> </g> <defs> <clipPath id="clip0_2085_392548"> <rect width="24" height="24" fill="white"/> </clipPath> </defs> </svg>
