<svg width="24" height="24" viewBox="0 0 24 24" fill="none" xmlns="http://www.w3.org/2000/svg"> <g clip-path="url(#clip0_2085_390689)"> <path d="M12.0002 22.75C7.96018 22.75 4.68018 19.47 4.68018 15.43C4.68018 13.51 5.43018 11.68 6.76018 10.32C6.23018 9.4 5.95018 8.37 5.95018 7.3C5.95018 3.97 8.66018 1.25 12.0002 1.25C15.3402 1.25 18.0502 3.96 18.0502 7.3C18.0502 8.37 17.7702 9.41 17.2402 10.32C18.5702 11.68 19.3202 13.51 19.3202 15.43C19.3202 19.47 16.0402 22.75 12.0002 22.75ZM12.0002 2.75C9.49018 2.75 7.45018 4.79 7.45018 7.3C7.45018 8.28 7.76018 9.21 8.34018 9.99C8.57018 10.31 8.52018 10.75 8.22018 11.01C6.92018 12.12 6.18018 13.73 6.18018 15.44C6.18018 18.65 8.79018 21.26 12.0002 21.26C15.2102 21.26 17.8202 18.65 17.8202 15.44C17.8202 13.74 17.0702 12.13 15.7802 11.01C15.4802 10.75 15.4302 10.31 15.6602 9.99C16.2402 9.2 16.5502 8.27 16.5502 7.3C16.5502 4.79 14.5102 2.75 12.0002 2.75ZM12.0002 19.02C10.0202 19.02 8.41018 17.41 8.41018 15.43C8.41018 13.45 10.0202 11.84 12.0002 11.84C13.9802 11.84 15.5902 13.45 15.5902 15.43C15.5902 17.41 13.9802 19.02 12.0002 19.02ZM12.0002 13.34C10.8502 13.34 9.91018 14.28 9.91018 15.43C9.91018 16.58 10.8502 17.52 12.0002 17.52C13.1502 17.52 14.0902 16.58 14.0902 15.43C14.0902 14.28 13.1502 13.34 12.0002 13.34ZM12.0002 9.61C10.7302 9.61 9.69018 8.57 9.69018 7.3C9.69018 6.03 10.7302 4.99 12.0002 4.99C13.2702 4.99 14.3102 6.03 14.3102 7.3C14.3102 8.57 13.2702 9.61 12.0002 9.61ZM12.0002 6.48C11.5502 6.48 11.1902 6.84 11.1902 7.29C11.1902 7.74 11.5502 8.1 12.0002 8.1C12.4502 8.1 12.8102 7.74 12.8102 7.29C12.8102 6.84 12.4502 6.48 12.0002 6.48Z" fill="white"/> </g> <defs> <clipPath id="clip0_2085_390689"> <rect width="24" height="24" fill="white"/> </clipPath> </defs> </svg>
