<svg width="24" height="24" viewBox="0 0 24 24" fill="none" xmlns="http://www.w3.org/2000/svg"> <g clip-path="url(#clip0_3111_19069)"> <path d="M19.19 8.75C18.78 8.75 18.44 8.47 18.35 8.08L18.09 6.97C17.97 6.46 17.56 6.05 17.05 5.93L15.94 5.67C15.55 5.58 15.27 5.23 15.27 4.83C15.27 4.43 15.54 4.08 15.94 3.99L17.06 3.73C17.57 3.61 17.98 3.2 18.1 2.69L18.36 1.58C18.45 1.19 18.8 0.91 19.2 0.91C19.6 0.91 19.95 1.19 20.04 1.58L20.3 2.69C20.42 3.2 20.83 3.61 21.34 3.73L22.45 3.99C22.84 4.08 23.12 4.43 23.12 4.83C23.12 5.23 22.84 5.58 22.45 5.67L21.34 5.93C20.83 6.05 20.42 6.46 20.3 6.97L20.04 8.08C19.95 8.47 19.6 8.75 19.2 8.75H19.19ZM18.25 4.83C18.63 5.06 18.95 5.38 19.19 5.77C19.43 5.39 19.74 5.07 20.13 4.83C19.75 4.6 19.43 4.28 19.19 3.89C18.95 4.27 18.64 4.59 18.25 4.83Z" fill="white"/> <path d="M10.01 15.3C9.81998 15.3 9.62998 15.23 9.47998 15.08L7.25998 12.86C6.96998 12.57 6.96998 12.09 7.25998 11.8L9.47998 9.58C9.76998 9.29 10.25 9.29 10.54 9.58C10.83 9.87 10.83 10.35 10.54 10.64L8.84998 12.33L10.54 14.02C10.83 14.31 10.83 14.79 10.54 15.08C10.39 15.23 10.2 15.3 10.01 15.3Z" fill="white"/> <path d="M13.33 15.31C13.14 15.31 12.95 15.24 12.8 15.09C12.51 14.8 12.51 14.32 12.8 14.03L14.49 12.34L12.8 10.65C12.51 10.36 12.51 9.88 12.8 9.59C13.09 9.3 13.57 9.3 13.86 9.59L16.08 11.81C16.37 12.1 16.37 12.58 16.08 12.87L13.86 15.09C13.71 15.24 13.52 15.31 13.33 15.31Z" fill="white"/> <path d="M11.6501 23.1C8.85005 23.1 6.08005 22.02 4.02005 19.96C0.66005 16.6 -0.0799497 11.34 2.23005 7.16C4.55005 2.98 9.42005 0.820001 14.0601 1.9C14.4601 1.99 14.7101 2.4 14.6201 2.8C14.5301 3.2 14.1201 3.45 13.7201 3.36C9.73005 2.44 5.54005 4.29 3.55005 7.88C1.56005 11.48 2.20005 16.01 5.09005 18.89C7.99005 21.79 12.5301 22.43 16.1201 20.45C19.7101 18.46 21.57 14.28 20.65 10.28C20.56 9.88 20.81 9.47 21.21 9.38C21.61 9.29 22.0201 9.54 22.1101 9.94C23.18 14.59 21.0101 19.44 16.8401 21.75C15.2201 22.65 13.43 23.1 11.6501 23.1Z" fill="white"/> </g> <defs> <clipPath id="clip0_3111_19069"> <rect width="24" height="24" fill="white"/> </clipPath> </defs> </svg>
