<svg width="24" height="24" viewBox="0 0 24 24" fill="none" xmlns="http://www.w3.org/2000/svg"> <g clip-path="url(#clip0_3111_19036)"> <path d="M20.91 10.64C20.52 10.64 20.18 10.37 20.09 9.99L19.91 9.23C19.85 8.97 19.65 8.77 19.39 8.71L18.63 8.53C18.25 8.44 17.98 8.11 17.98 7.71C17.98 7.31 18.25 6.98 18.63 6.89L19.39 6.71C19.65 6.65 19.85 6.45 19.91 6.19L20.09 5.43C20.18 5.05 20.51 4.78 20.91 4.78C21.31 4.78 21.64 5.05 21.73 5.43L21.91 6.19C21.97 6.45 22.17 6.65 22.43 6.71L23.19 6.89C23.57 6.98 23.84 7.32 23.84 7.71C23.84 8.1 23.57 8.44 23.19 8.53L22.43 8.71C22.17 8.77 21.97 8.97 21.91 9.23L21.73 9.99C21.64 10.37 21.31 10.64 20.91 10.64ZM20.7 7.72C20.78 7.79 20.85 7.86 20.91 7.93C20.98 7.85 21.05 7.78 21.12 7.72C21.04 7.65 20.97 7.58 20.91 7.51C20.84 7.59 20.77 7.66 20.7 7.72Z" fill="white"/> <path d="M11.7498 22.99C5.57982 22.99 0.569824 17.97 0.569824 11.81C0.569824 5.65 5.57982 0.630001 11.7498 0.630001C14.1698 0.630001 16.4598 1.38 18.3998 2.81C18.7298 3.06 18.7998 3.53 18.5598 3.86C18.3198 4.19 17.8498 4.26 17.5098 4.02C15.8398 2.79 13.8398 2.13 11.7498 2.13C6.40982 2.13 2.06982 6.47 2.06982 11.81C2.06982 17.15 6.40982 21.49 11.7498 21.49C13.8498 21.49 15.8398 20.83 17.5098 19.59C17.8398 19.34 18.3098 19.41 18.5598 19.74C18.8098 20.07 18.7398 20.54 18.4098 20.79C16.4798 22.23 14.1798 22.99 11.7598 22.99H11.7498Z" fill="white"/> <path d="M5.65006 14.49C5.02006 14.49 4.40006 14.23 3.88006 14.05C3.13006 13.78 2.66006 13.63 2.44006 13.85C2.15006 14.14 1.65006 14.17 1.36006 13.87C1.07006 13.58 1.04006 13.13 1.34006 12.83L1.38006 12.79C2.29006 11.88 3.51006 12.32 4.40006 12.64C5.32006 12.97 5.79006 13.09 6.10006 12.79C6.35006 12.54 6.35006 12.24 6.27006 11.51C6.18006 10.58 6.05006 9.31 7.27006 8.08C7.97006 7.38 7.94006 6.94 7.79006 6.56C7.55006 5.93 6.82006 5.16 6.09006 4.43L5.43006 3.8C5.13006 3.51 5.12006 3.04 5.41006 2.74C5.70006 2.44 6.17006 2.43 6.47006 2.72L7.14006 3.37C8.03006 4.26 8.86006 5.13 9.20006 6.05C9.60006 7.13 9.31006 8.18 8.33006 9.16C7.61006 9.88 7.67006 10.54 7.76006 11.38C7.84006 12.14 7.93006 13.09 7.15006 13.88C6.69006 14.34 6.17006 14.49 5.65006 14.49Z" fill="white"/> <path d="M9.85972 22.5C9.70972 22.5 9.55972 22.46 9.42972 22.37C9.08972 22.13 9.00972 21.67 9.23972 21.33C9.25972 21.29 9.31972 21.11 9.37972 20.97C9.43972 20.83 9.48972 20.7 9.50972 20.65C9.80972 19.96 9.71972 19.14 9.25972 18.49C8.79972 17.86 8.02972 17.52 7.25972 17.6C6.48972 17.69 5.80972 18.18 5.48972 18.9C5.45972 18.98 5.41972 19.09 5.38972 19.2C5.30972 19.61 4.90972 19.87 4.50972 19.79C4.09972 19.71 3.83972 19.31 3.91972 18.91C3.95972 18.71 4.01972 18.52 4.09972 18.32C4.64972 17.09 5.78972 16.26 7.08972 16.11C8.39972 15.97 9.68972 16.54 10.4697 17.61C11.2497 18.7 11.3997 20.07 10.8597 21.29C10.8297 21.35 10.7997 21.43 10.7597 21.52C10.6097 21.89 10.5397 22.06 10.4497 22.19C10.2997 22.4 10.0697 22.51 9.82972 22.51L9.85972 22.5Z" fill="white"/> <path d="M17.08 13.97C15.82 13.97 14.79 12.94 14.79 11.68C14.79 10.42 15.82 9.39 17.08 9.39C18.34 9.39 19.37 10.42 19.37 11.68C19.37 12.94 18.34 13.97 17.08 13.97ZM17.08 10.89C16.64 10.89 16.29 11.24 16.29 11.68C16.29 12.12 16.64 12.47 17.08 12.47C17.52 12.47 17.87 12.12 17.87 11.68C17.87 11.24 17.52 10.89 17.08 10.89Z" fill="white"/> <path d="M20.1497 16.38H13.9997C12.6197 16.38 11.4897 15.26 11.4897 13.87V9.48C11.4897 8.1 12.6097 6.97 13.9997 6.97H15.5397C15.9497 6.97 16.2897 7.31 16.2897 7.72C16.2897 8.13 15.9497 8.47 15.5397 8.47H13.9997C13.4397 8.47 12.9897 8.92 12.9897 9.48V13.87C12.9897 14.43 13.4397 14.88 13.9997 14.88H20.1497C20.7097 14.88 21.1597 14.43 21.1597 13.87V12.41C21.1597 12 21.4997 11.66 21.9097 11.66C22.3197 11.66 22.6597 12 22.6597 12.41V13.87C22.6597 15.25 21.5397 16.38 20.1497 16.38Z" fill="white"/> </g> <defs> <clipPath id="clip0_3111_19036"> <rect width="24" height="24" fill="white"/> </clipPath> </defs> </svg>
