<svg width="24" height="24" viewBox="0 0 24 24" fill="none" xmlns="http://www.w3.org/2000/svg"> <g clip-path="url(#clip0_4482_5367)"> <path d="M20.4999 22.7504C20.2099 22.7504 19.9398 22.5804 19.8198 22.3104L12.1099 5.08036C11.9399 4.70036 12.1099 4.26036 12.4899 4.09036C12.8699 3.92036 13.3099 4.09036 13.4799 4.47036L21.1898 21.7004C21.3598 22.0804 21.19 22.5204 20.81 22.6904C20.71 22.7304 20.5999 22.7504 20.4999 22.7504Z" fill="white"/> <path d="M3.50004 22.7496C3.40004 22.7496 3.28999 22.7296 3.18999 22.6796C2.80999 22.5096 2.6401 22.0696 2.8101 21.6896L10.5201 4.45962C10.6901 4.07962 11.1301 3.90961 11.5101 4.07961C11.8901 4.24961 12.0601 4.68962 11.8901 5.06962L4.1801 22.2996C4.0601 22.5796 3.79004 22.7496 3.50004 22.7496Z" fill="white"/> <path d="M4.50993 20.5598C4.20993 20.5598 3.92998 20.3798 3.80998 20.0898C3.65998 19.7098 3.8399 19.2698 4.2299 19.1198L15.0699 14.7998L8.1099 11.6898C7.8499 11.5698 7.67996 11.3198 7.66996 11.0298C7.65996 10.7398 7.81986 10.4798 8.06986 10.3398L13.7399 7.33976C14.0999 7.14976 14.5599 7.28976 14.7499 7.64976C14.9399 8.01976 14.7999 8.46977 14.4399 8.65977L10.1299 10.9398L17.3 14.1498C17.58 14.2698 17.7499 14.5498 17.7399 14.8498C17.7299 15.1498 17.5499 15.4198 17.2699 15.5298L4.77995 20.5098C4.68995 20.5498 4.59993 20.5598 4.50993 20.5598Z" fill="white"/> <path d="M19.5 20.75H4.5C4.09 20.75 3.75 20.41 3.75 20C3.75 19.59 4.09 19.25 4.5 19.25H19.5C19.91 19.25 20.25 19.59 20.25 20C20.25 20.41 19.91 20.75 19.5 20.75Z" fill="white"/> <path d="M12 5.75C11.57 5.75 11.15 5.62999 10.8 5.39999C10.15 5.00999 9.75 4.29 9.75 3.5C9.75 2.26 10.76 1.25 12 1.25C13.24 1.25 14.25 2.26 14.25 3.5C14.25 4.29 13.8501 5.01 13.1801 5.41C12.8501 5.63 12.43 5.75 12 5.75ZM12 2.75C11.59 2.75 11.25 3.09 11.25 3.5C11.25 3.76 11.38 4 11.6 4.13C11.87 4.3 12.16 4.29 12.38 4.14C12.62 3.99 12.75 3.76 12.75 3.5C12.75 3.09 12.41 2.75 12 2.75Z" fill="white"/> <path d="M18.23 8.80988C18.04 8.80988 17.8499 8.73988 17.6999 8.58988C17.4099 8.29988 17.4099 7.81988 17.6999 7.52988C17.8599 7.36988 18.1 6.77987 18.13 6.00987C18.16 5.33987 17.9999 4.75988 17.6999 4.46988C17.4099 4.17988 17.4099 3.69988 17.6999 3.40988C17.9899 3.11988 18.47 3.11988 18.76 3.40988C19.35 3.99988 19.67 4.96989 19.63 6.06989C19.6 6.89989 19.36 7.99989 18.76 8.59989C18.61 8.73989 18.42 8.80988 18.23 8.80988Z" fill="white"/> <path d="M20.29 10.8696C20.1 10.8696 19.91 10.7996 19.76 10.6496C19.47 10.3596 19.47 9.87957 19.76 9.58957C21.74 7.60957 21.74 4.37957 19.76 2.39957C19.47 2.10957 19.47 1.62957 19.76 1.33957C20.05 1.04957 20.5299 1.04957 20.8199 1.33957C23.3899 3.90957 23.3899 8.07957 20.8199 10.6496C20.6699 10.7996 20.48 10.8696 20.29 10.8696Z" fill="white"/> <path d="M5.77007 8.80988C5.58007 8.80988 5.39004 8.73988 5.24004 8.58988C4.64004 7.98988 4.40005 6.88988 4.37005 6.05988C4.33005 4.96988 4.65004 3.99988 5.24004 3.40988C5.53004 3.11988 6.0101 3.11988 6.3001 3.40988C6.5901 3.69988 6.5901 4.17988 6.3001 4.46988C6.0101 4.75988 5.85005 5.33987 5.87005 6.00987C5.90005 6.78987 6.1401 7.37987 6.3001 7.53987C6.5901 7.82987 6.5901 8.30989 6.3001 8.59989C6.1601 8.73989 5.96007 8.80988 5.77007 8.80988Z" fill="white"/> <path d="M3.70985 10.8696C3.51985 10.8696 3.32994 10.7996 3.17994 10.6496C0.609941 8.07957 0.609941 3.90957 3.17994 1.33957C3.46994 1.04957 3.94988 1.04957 4.23988 1.33957C4.52988 1.62957 4.52988 2.10957 4.23988 2.39957C2.25988 4.37957 2.25988 7.60957 4.23988 9.58957C4.52988 9.87957 4.52988 10.3596 4.23988 10.6496C4.08988 10.7996 3.89985 10.8696 3.70985 10.8696Z" fill="white"/> </g> <defs> <clipPath id="clip0_4482_5367"> <rect width="24" height="24" fill="white"/> </clipPath> </defs> </svg>
