<svg width="24" height="24" viewBox="0 0 24 24" fill="none" xmlns="http://www.w3.org/2000/svg"> <g clip-path="url(#clip0_2085_381577)"> <path d="M4.01014 12.75C3.78014 12.75 3.54014 12.72 3.30014 12.66C2.05014 12.33 1.20014 11.2 1.25014 9.90001C1.30014 8.62001 2.24014 7.53001 3.50014 7.30001C3.53014 7.30001 3.57014 7.26001 3.60014 7.22001L3.79014 6.91001C5.51014 4.04001 8.66014 2.26001 12.0001 2.26001C15.3401 2.26001 18.4901 4.04001 20.2101 6.91001L20.3901 7.20001C20.3901 7.20001 20.3901 7.21001 20.4001 7.22001C20.4301 7.26001 20.4701 7.30001 20.5201 7.31001C21.7801 7.54001 22.7001 8.61001 22.7501 9.91001C22.8001 11.21 21.9601 12.34 20.7001 12.67C19.7001 12.93 18.6701 12.62 17.9901 11.9C17.4701 12.45 16.7601 12.76 15.9901 12.76C15.2201 12.76 14.5001 12.44 13.9901 11.9C13.4701 12.45 12.7601 12.76 11.9901 12.76C11.2201 12.76 10.5001 12.44 9.99014 11.9C9.47014 12.45 8.76014 12.76 7.99014 12.76C7.22014 12.76 6.50014 12.44 5.99014 11.9C5.47014 12.46 4.75014 12.77 4.00014 12.77L4.01014 12.75ZM5.56014 11.26C5.56014 11.26 5.57014 11.29 5.58014 11.3C5.58014 11.29 5.57014 11.27 5.56014 11.26ZM13.5601 11.26C13.5601 11.26 13.5701 11.28 13.5801 11.3C13.5801 11.29 13.5701 11.28 13.5601 11.26ZM9.56014 11.26C9.56014 11.26 9.57014 11.28 9.58014 11.3C9.58014 11.29 9.57014 11.28 9.56014 11.26ZM17.5601 11.26C17.5601 11.26 17.5701 11.28 17.5801 11.3C17.5801 11.29 17.5701 11.28 17.5601 11.26ZM10.4601 11.23C10.4601 11.23 10.4401 11.26 10.4301 11.28C10.4301 11.26 10.4501 11.25 10.4601 11.23ZM18.4601 11.23C18.4601 11.23 18.4401 11.26 18.4301 11.28C18.4301 11.26 18.4501 11.25 18.4601 11.23ZM14.4601 11.23C14.4601 11.23 14.4401 11.26 14.4301 11.28C14.4301 11.26 14.4501 11.25 14.4601 11.23ZM6.46014 11.23C6.46014 11.23 6.44014 11.26 6.43014 11.28C6.43014 11.27 6.45014 11.25 6.46014 11.23ZM18.0001 10.03C18.3901 10.03 18.7401 10.26 18.9001 10.61C19.1501 11.1 19.7401 11.37 20.3201 11.21C20.8901 11.06 21.2701 10.54 21.2501 9.95001C21.2301 9.36001 20.8101 8.87001 20.2301 8.77001C19.7401 8.67001 19.3401 8.37001 19.1001 7.96001L18.9301 7.68001C17.4801 5.26001 14.8201 3.76001 12.0001 3.76001C9.18014 3.76001 6.52014 5.26001 5.07014 7.68001L4.89014 7.97001C4.66014 8.37001 4.26014 8.67001 3.79014 8.77001C3.20014 8.88001 2.77014 9.38001 2.74014 9.96001C2.72014 10.55 3.10014 11.07 3.67014 11.22C4.24014 11.37 4.83014 11.1 5.10014 10.59C5.25014 10.27 5.60014 10.04 5.99014 10.04C6.38014 10.04 6.74014 10.27 6.90014 10.62C7.10014 11 7.52014 11.26 7.99014 11.26C8.46014 11.26 8.88014 11 9.10014 10.58C9.25014 10.26 9.60014 10.03 9.99014 10.03C10.3801 10.03 10.7301 10.26 10.8901 10.61C11.0901 11 11.5201 11.25 11.9801 11.25C12.4401 11.25 12.8801 10.99 13.0901 10.57C13.2401 10.25 13.5901 10.02 13.9801 10.02C14.3701 10.02 14.7201 10.25 14.8901 10.6C15.0901 10.99 15.5201 11.24 15.9801 11.24C16.4401 11.24 16.8701 10.98 17.0901 10.56C17.2401 10.24 17.5901 10.01 17.9801 10.01L18.0001 10.03Z" fill="white"/> <path d="M9.99994 8.24994C9.80994 8.24994 9.61994 8.17994 9.46994 8.02994C9.17994 7.73994 9.17994 7.25994 9.46994 6.96994L9.96994 6.46994C10.2599 6.17994 10.7399 6.17994 11.0299 6.46994C11.3199 6.75994 11.3199 7.23994 11.0299 7.52994L10.5299 8.02994C10.3799 8.17994 10.1899 8.24994 9.99994 8.24994Z" fill="white"/> <path d="M14.4999 8.24994C14.3099 8.24994 14.1199 8.17994 13.9699 8.02994L13.4699 7.52994C13.1799 7.23994 13.1799 6.75994 13.4699 6.46994C13.7599 6.17994 14.2399 6.17994 14.5299 6.46994L15.0299 6.96994C15.3199 7.25994 15.3199 7.73994 15.0299 8.02994C14.8799 8.17994 14.6899 8.24994 14.4999 8.24994Z" fill="white"/> <path d="M16.26 21.75H7.74C5.84 21.75 4.24 20.33 4.02 18.45L3.26 12.09C3.21 11.68 3.5 11.31 3.92 11.26C4.32 11.22 4.7 11.51 4.75 11.92L5.51 18.28C5.64 19.41 6.61 20.26 7.74 20.26H16.26C17.4 20.26 18.36 19.41 18.49 18.28L19.25 11.92C19.3 11.51 19.68 11.22 20.08 11.26C20.49 11.31 20.79 11.68 20.74 12.09L19.98 18.45C19.76 20.33 18.15 21.75 16.26 21.75Z" fill="white"/> </g> <defs> <clipPath id="clip0_2085_381577"> <rect width="24" height="24" fill="white"/> </clipPath> </defs> </svg>
