<svg width="24" height="25" viewBox="0 0 24 25" fill="none" xmlns="http://www.w3.org/2000/svg"> <g clip-path="url(#clip0_3247_9556)"> <path d="M6.34018 19.3104C6.15018 19.3104 5.96027 19.2404 5.81027 19.0904C5.52027 18.8004 5.52027 18.3204 5.81027 18.0304L17.1202 6.72043C17.4102 6.43043 17.8903 6.43043 18.1803 6.72043C18.4703 7.01043 18.4703 7.49044 18.1803 7.78044L6.87021 19.0904C6.73021 19.2404 6.54018 19.3104 6.34018 19.3104Z" fill="white"/> <path d="M14.9598 19.3104H6.33984C5.92984 19.3104 5.58984 18.9704 5.58984 18.5604V9.94043C5.58984 9.53043 5.92984 9.19043 6.33984 9.19043C6.74984 9.19043 7.08984 9.53043 7.08984 9.94043V17.8104H14.9598C15.3698 17.8104 15.7098 18.1504 15.7098 18.5604C15.7098 18.9704 15.3798 19.3104 14.9598 19.3104Z" fill="white"/> </g> <defs> <clipPath id="clip0_3247_9556"> <rect width="24" height="24" fill="white" transform="translate(0 0.910156)"/> </clipPath> </defs> </svg>
