<svg width="24" height="24" viewBox="0 0 24 24" fill="none" xmlns="http://www.w3.org/2000/svg"> <g clip-path="url(#clip0_4482_10942)"> <path d="M12 16.9099C11.89 16.9099 11.78 16.8899 11.68 16.8399C11.04 16.5299 10.4 16.1999 9.78995 15.8399C5.26995 13.2299 1.24995 9.11994 2.68995 6.61994C2.70995 6.58994 2.72995 6.55994 2.74995 6.51994C3.47995 5.61994 4.63995 5.15994 5.77995 5.31994C6.18995 5.37994 6.47995 5.75994 6.41995 6.16994C6.35995 6.57994 5.98995 6.85994 5.56995 6.80994C4.96995 6.71994 4.34995 6.95994 3.95995 7.40994C3.44995 8.49994 5.70995 11.7499 10.53 14.5299C11.11 14.8699 11.72 15.1799 12.32 15.4699C12.69 15.6499 12.85 16.0999 12.67 16.4699C12.54 16.7399 12.27 16.8999 11.99 16.8999L12 16.9099Z" fill="white"/> <path d="M18.6699 18.6998C18.5199 18.6998 18.3699 18.6898 18.2099 18.6698C17.7999 18.6098 17.5099 18.2298 17.5699 17.8198C17.6299 17.4098 18.0099 17.1298 18.4199 17.1798C19.0199 17.2598 19.6399 17.0298 20.0299 16.5798C20.2899 16.0298 19.8399 14.9598 18.8499 13.7598C17.6199 12.2798 15.7099 10.7498 13.4699 9.45979C12.8999 9.12979 12.2999 8.80979 11.6799 8.51979C11.3099 8.33979 11.1499 7.88979 11.3299 7.51979C11.5099 7.14979 11.9599 6.98979 12.3299 7.16979C12.9799 7.47979 13.6199 7.81979 14.2199 8.16979C16.6099 9.54979 18.6599 11.1998 19.9999 12.8098C21.9299 15.1298 21.7699 16.5798 21.3099 17.3898C21.2899 17.4198 21.2699 17.4598 21.2399 17.4898C20.6099 18.2698 19.6499 18.7198 18.6599 18.7198L18.6699 18.6998Z" fill="white"/> <path d="M5.66013 18.67C4.29013 18.67 3.21013 18.28 2.69013 17.37C2.67013 17.34 2.65013 17.3 2.64013 17.27C2.22013 16.19 2.40013 14.95 3.12013 14.04C3.37013 13.71 3.85013 13.66 4.17013 13.91C4.50013 14.17 4.55013 14.64 4.30013 14.96C3.92013 15.44 3.82013 16.09 4.02013 16.66C4.70013 17.64 8.65013 17.31 13.4701 14.53C14.0501 14.19 14.6301 13.83 15.1801 13.45C15.5201 13.22 15.9901 13.3 16.2201 13.64C16.4501 13.98 16.3701 14.45 16.0301 14.68C15.4501 15.08 14.8401 15.46 14.2201 15.82C11.3501 17.47 8.05013 18.65 5.66013 18.65V18.67Z" fill="white"/> <path d="M8.40007 10.6701C8.16007 10.6701 7.93007 10.5601 7.78007 10.3401C7.55007 10.0001 7.63007 9.5301 7.97007 9.3001C8.56007 8.9001 9.17007 8.5101 9.78007 8.1601C12.1701 6.7801 14.6201 5.8301 16.6901 5.4701C19.6601 4.9601 20.8401 5.8201 21.3101 6.6301C21.3301 6.6601 21.3501 6.7001 21.3601 6.7301C21.7801 7.8101 21.5901 9.0501 20.8801 9.9601C20.6201 10.2901 20.1501 10.3401 19.8301 10.0901C19.5001 9.8301 19.4501 9.3601 19.7001 9.0401C20.0801 8.5601 20.1801 7.9101 19.9801 7.3401C19.6301 6.8401 18.4801 6.6901 16.9501 6.9601C15.0501 7.2901 12.7701 8.1801 10.5301 9.4701C9.95007 9.8001 9.38007 10.1701 8.82007 10.5501C8.69007 10.6401 8.54007 10.6801 8.40007 10.6801V10.6701Z" fill="white"/> <path d="M11.9997 22.7499C11.3197 22.7499 10.3097 22.4099 9.3797 20.8099C9.1697 20.4499 9.2897 19.9899 9.6497 19.7899C10.0097 19.5799 10.4697 19.6999 10.6697 20.0599C11.1097 20.8199 11.5897 21.2499 11.9997 21.2499C13.1997 21.2499 14.9297 17.6499 14.9297 11.9999C14.9297 11.3299 14.8997 10.6499 14.8497 9.97988C14.8197 9.56988 15.1297 9.20989 15.5397 9.16989C15.9497 9.12989 16.3097 9.44988 16.3497 9.85988C16.4097 10.5699 16.4297 11.2899 16.4297 11.9999C16.4297 17.2099 14.8797 22.7499 11.9997 22.7499Z" fill="white"/> <path d="M8.40031 14.83C8.01031 14.83 7.68031 14.53 7.65031 14.14C7.59031 13.43 7.57031 12.71 7.57031 12C7.57031 6.79 9.12031 1.25 12.0003 1.25C12.6803 1.25 13.6903 1.59 14.6203 3.19C14.8303 3.55 14.7103 4.01 14.3503 4.21C13.9903 4.42 13.5303 4.3 13.3303 3.94C12.8903 3.18 12.4103 2.75 12.0003 2.75C10.8003 2.75 9.07031 6.35 9.07031 12C9.07031 12.67 9.10031 13.35 9.15031 14.02C9.18031 14.43 8.87031 14.79 8.46031 14.83C8.44031 14.83 8.42031 14.83 8.40031 14.83Z" fill="white"/> </g> <defs> <clipPath id="clip0_4482_10942"> <rect width="24" height="24" fill="white"/> </clipPath> </defs> </svg>
