<svg width="24" height="24" viewBox="0 0 24 24" fill="none" xmlns="http://www.w3.org/2000/svg"> <g clip-path="url(#clip0_2085_381845)"> <path d="M11.9999 21.9799C11.0999 21.9799 10.1999 21.7199 9.40988 21.2099L5.78988 18.8599C4.43988 17.9799 3.62988 16.4899 3.62988 14.8799V9.19992C3.62988 7.59992 4.41988 6.11992 5.75988 5.23992L9.37988 2.83992C10.9699 1.77992 13.0299 1.77992 14.6299 2.83992L18.2499 5.23992C19.5799 6.11992 20.3799 7.59992 20.3799 9.19992V14.8799C20.3799 16.4999 19.5699 17.9799 18.2199 18.8599L14.5999 21.2099C13.8099 21.7199 12.9099 21.9799 12.0099 21.9799H11.9999ZM11.9999 3.54992C11.3799 3.54992 10.7499 3.72992 10.2099 4.08992L6.58988 6.48992C5.67988 7.08992 5.13988 8.10992 5.13988 9.19992V14.8799C5.13988 15.9799 5.68988 16.9999 6.61988 17.5999L10.2399 19.9499C11.3099 20.6499 12.7099 20.6499 13.7799 19.9499L17.3999 17.5999C18.3299 16.9999 18.8799 15.9799 18.8799 14.8799V9.19992C18.8799 8.10992 18.3399 7.08992 17.4299 6.48992L13.8099 4.08992C13.2699 3.72992 12.6399 3.54992 12.0199 3.54992H11.9999Z" fill="white"/> <path d="M9.14014 12.2698C8.73014 12.2698 8.39014 11.9298 8.39014 11.5198V10.5698C8.39014 10.1598 8.73014 9.81982 9.14014 9.81982C9.55014 9.81982 9.89014 10.1598 9.89014 10.5698V11.5198C9.89014 11.9298 9.55014 12.2698 9.14014 12.2698Z" fill="white"/> <path d="M14.8599 12.2698C14.4499 12.2698 14.1099 11.9298 14.1099 11.5198V10.5698C14.1099 10.1598 14.4499 9.81982 14.8599 9.81982C15.2699 9.81982 15.6099 10.1598 15.6099 10.5698V11.5198C15.6099 11.9298 15.2699 12.2698 14.8599 12.2698Z" fill="white"/> <path d="M11.9999 10.0298C11.5799 10.0298 11.1499 9.88984 10.8099 9.59984L9.60991 8.59984C9.20991 8.26984 8.95991 7.76984 8.93991 7.24984C8.91991 6.72984 9.10991 6.20984 9.48991 5.83984L11.1499 4.16984C11.2199 4.09984 11.2599 4.00984 11.2599 3.90984V2.83984C11.2599 2.42984 11.5999 2.08984 12.0099 2.08984C12.4199 2.08984 12.7599 2.42984 12.7599 2.83984V3.90984C12.7599 4.39984 12.5599 4.87984 12.2099 5.22984L10.5499 6.89984C10.4499 6.99984 10.4399 7.10984 10.4399 7.17984C10.4399 7.23984 10.4599 7.34984 10.5699 7.44984L11.7699 8.44984C11.8999 8.55984 12.0999 8.55984 12.2399 8.44984L13.2999 7.56984C13.4199 7.46984 13.4299 7.34984 13.4299 7.27984C13.4299 7.20984 13.4099 7.08984 13.2799 6.99984C13.1299 6.88984 12.9299 6.90984 12.7999 7.02984L12.5299 7.29984C12.2399 7.58984 11.7599 7.58984 11.4699 7.29984C11.1799 7.00984 11.1799 6.52984 11.4699 6.23984L11.7399 5.96984C12.3899 5.31984 13.4399 5.23984 14.1799 5.79984C14.6399 6.13984 14.9099 6.66984 14.9299 7.24984C14.9399 7.81984 14.6999 8.35984 14.2599 8.72984L13.1999 9.60984C12.8499 9.89984 12.4299 10.0398 11.9999 10.0398V10.0298Z" fill="white"/> <path d="M11.9901 19.97C11.4601 19.97 10.9401 19.81 10.4701 19.51L9.61014 18.94C8.84014 18.43 8.39014 17.57 8.39014 16.65V15.93C8.39014 15.01 8.85014 14.15 9.61014 13.64L10.4701 13.07C11.4001 12.45 12.5901 12.45 13.5201 13.07L14.3801 13.64C15.1501 14.15 15.6001 15.01 15.6001 15.93V16.65C15.6001 17.57 15.1401 18.43 14.3801 18.94L13.5201 19.51C13.0601 19.82 12.5301 19.97 11.9901 19.97ZM12.0001 14.11C11.7601 14.11 11.5201 14.18 11.3101 14.32L10.4501 14.89C10.1001 15.12 9.89014 15.51 9.89014 15.93V16.65C9.89014 17.07 10.1001 17.46 10.4501 17.69L11.3101 18.26C11.7301 18.54 12.2701 18.54 12.7001 18.26L13.5601 17.69C13.9101 17.46 14.1201 17.07 14.1201 16.65V15.93C14.1201 15.51 13.9101 15.12 13.5601 14.89L12.7001 14.32C12.4901 14.18 12.2501 14.11 12.0101 14.11H12.0001Z" fill="white"/> <path d="M12 17.5102C11.81 17.5102 11.62 17.4402 11.47 17.2902L10.99 16.8102C10.7 16.5202 10.7 16.0402 10.99 15.7502L11.47 15.2702C11.76 14.9802 12.24 14.9802 12.53 15.2702C12.81 15.5502 12.82 15.9802 12.58 16.2802C12.82 16.5702 12.81 17.0102 12.53 17.2902C12.38 17.4402 12.19 17.5102 12 17.5102Z" fill="white"/> <path d="M12.0002 17.5102C11.8102 17.5102 11.6202 17.4402 11.4702 17.2902C11.2002 17.0102 11.1802 16.5802 11.4202 16.2802C11.1802 15.9902 11.1902 15.5502 11.4702 15.2702C11.7602 14.9802 12.2402 14.9802 12.5302 15.2702L13.0102 15.7502C13.1502 15.8902 13.2302 16.0802 13.2302 16.2802C13.2302 16.4802 13.1502 16.6702 13.0102 16.8102L12.5302 17.2902C12.3802 17.4402 12.1902 17.5102 12.0002 17.5102Z" fill="white"/> <path d="M2 12.8899C1.59 12.8899 1.25 12.5499 1.25 12.1399V7.85986C1.25 7.44986 1.59 7.10986 2 7.10986C2.41 7.10986 2.75 7.44986 2.75 7.85986V12.1399C2.75 12.5499 2.41 12.8899 2 12.8899Z" fill="white"/> <path d="M22 12.8899C21.59 12.8899 21.25 12.5499 21.25 12.1399V7.85986C21.25 7.44986 21.59 7.10986 22 7.10986C22.41 7.10986 22.75 7.44986 22.75 7.85986V12.1399C22.75 12.5499 22.41 12.8899 22 12.8899Z" fill="white"/> </g> <defs> <clipPath id="clip0_2085_381845"> <rect width="24" height="24" fill="white"/> </clipPath> </defs> </svg>
