<svg width="24" height="24" viewBox="0 0 24 24" fill="none" xmlns="http://www.w3.org/2000/svg"> <g clip-path="url(#clip0_2085_386155)"> <path d="M11.9998 23.2498C10.2698 23.2498 8.60977 22.8698 7.06977 22.1198C4.97977 21.0998 3.21977 19.4098 2.10977 17.3598C2.10977 17.3598 2.10977 17.3398 2.09977 17.3398C1.21977 15.7098 0.759766 13.8698 0.759766 12.0098C0.759766 8.26977 2.60977 4.77977 5.71977 2.68977C7.57977 1.42977 9.75977 0.759766 12.0098 0.759766H12.3098C12.3098 0.759766 12.3298 0.759766 12.3498 0.759766C18.1498 0.929766 22.8298 5.41977 23.2298 11.2098C23.2498 11.4698 23.2598 11.7298 23.2598 11.9998C23.2598 14.0898 22.6798 16.1298 21.5898 17.8998C21.5898 17.8998 21.5898 17.9198 21.5798 17.9198C19.5098 21.2598 15.9298 23.2498 12.0098 23.2498H11.9998ZM9.59977 21.4498C10.3798 21.6498 11.1798 21.7498 11.9998 21.7498C15.2598 21.7498 18.2498 20.1598 20.0698 17.4698C19.3798 16.2398 18.4198 15.1798 17.2498 14.3798C17.1598 14.5498 17.0698 14.7098 16.9798 14.8698C16.7398 15.2798 16.4898 15.6798 16.2198 16.0598C14.5498 18.4398 12.2498 20.2998 9.59977 21.4498ZM4.10977 17.7298C4.98977 18.9398 6.14977 19.9498 7.47977 20.6398C10.5198 19.7198 13.1798 17.7998 14.9998 15.1998C15.2398 14.8498 15.4698 14.4998 15.6898 14.1198C15.7798 13.9598 15.8798 13.7898 15.9598 13.6298C14.8598 13.1098 13.6498 12.8098 12.4298 12.7598C11.5098 14.1998 10.2598 15.4098 8.78977 16.2798C8.78977 16.2798 8.78977 16.2798 8.77977 16.2798C7.34977 17.1098 5.75977 17.5998 4.12977 17.7198L4.10977 17.7298ZM3.21977 16.2498C4.64977 16.2798 6.02977 15.9598 7.30977 15.3498C7.20977 15.1898 7.10977 15.0298 7.01977 14.8698C5.30977 11.9098 4.61977 8.53977 5.00977 5.19977C3.25977 6.99977 2.24977 9.42977 2.24977 11.9998C2.24977 13.4698 2.58977 14.9298 3.21977 16.2498ZM17.3298 12.6598C18.7698 13.4798 19.9898 14.6098 20.9098 15.9698C21.4698 14.7298 21.7498 13.3698 21.7498 11.9898C21.7498 11.8598 21.7498 11.7198 21.7498 11.5898C19.0998 9.10977 15.6498 7.73977 12.0098 7.73977C11.8198 7.73977 11.6398 7.73977 11.4498 7.74977C11.5498 8.96977 11.8898 10.1598 12.4598 11.2498C14.1698 11.3198 15.8398 11.7998 17.3298 12.6398C17.3298 12.6398 17.3398 12.6398 17.3498 12.6398L17.3298 12.6598ZM6.77977 3.75977C5.94977 7.29977 6.48977 10.9698 8.31977 14.1198C8.40977 14.2798 8.50977 14.4398 8.60977 14.5998C9.60977 13.8998 10.4698 13.0098 11.1298 11.9798C10.3398 10.4598 9.90977 8.76977 9.89977 7.06977V7.04977C9.89977 5.39977 10.2698 3.77977 10.9798 2.29977C9.47976 2.44977 8.04977 2.94977 6.76977 3.75977H6.77977ZM11.9998 6.24977C15.4198 6.24977 18.6898 7.33977 21.3898 9.34977C20.2998 5.43977 16.8698 2.56977 12.7098 2.26977C12.6898 2.29977 12.6698 2.32977 12.6498 2.36977C11.9598 3.55977 11.5498 4.88977 11.4398 6.25977C11.6298 6.25977 11.8098 6.25977 11.9998 6.25977V6.24977Z" fill="white"/> </g> <defs> <clipPath id="clip0_2085_386155"> <rect width="24" height="24" fill="white"/> </clipPath> </defs> </svg>
