<svg width="24" height="24" viewBox="0 0 24 24" fill="none" xmlns="http://www.w3.org/2000/svg"> <g clip-path="url(#clip0_4482_4943)"> <path d="M6.84984 22.7498C5.40984 22.7498 3.97988 22.1998 2.88988 21.1098C0.709883 18.9198 0.709883 15.3698 2.88988 13.1798L13.1899 2.8798C15.3799 0.689805 18.9299 0.689805 21.1199 2.8798C23.2999 5.0698 23.2999 8.6198 21.1199 10.8098L10.8199 21.1098C9.71988 22.2098 8.28984 22.7498 6.84984 22.7498ZM17.1499 2.7498C16.0999 2.7498 15.0499 3.1498 14.2499 3.9498L3.94988 14.2498C2.34988 15.8498 2.34988 18.4598 3.94988 20.0598C5.54988 21.6598 8.15988 21.6598 9.75988 20.0598L20.0599 9.7598C21.6599 8.1598 21.6599 5.5498 20.0599 3.9498C19.2499 3.1498 18.1999 2.7498 17.1499 2.7498Z" fill="white"/> <path d="M11.03 15.53C10.37 15.53 9.70996 15.28 9.20996 14.78C8.20996 13.78 8.20996 12.15 9.20996 11.14L11.14 9.20996C12.14 8.20996 13.77 8.20996 14.78 9.20996C15.79 10.21 15.78 11.84 14.78 12.85L12.8499 14.78C12.3499 15.28 11.69 15.53 11.03 15.53ZM12.9699 9.95996C12.6999 9.95996 12.42 10.06 12.21 10.27L10.28 12.2C9.85997 12.62 9.85997 13.3 10.28 13.71C10.7 14.13 11.3799 14.13 11.7899 13.71L13.7199 11.78C14.1399 11.36 14.1399 10.68 13.7199 10.27C13.5099 10.07 13.2399 9.95996 12.9699 9.95996Z" fill="white"/> <path d="M15.8402 6.93997C15.5802 6.93997 15.3302 6.83997 15.1302 6.64997C14.7402 6.25997 14.7002 5.58997 15.0902 5.19997C15.4802 4.80997 16.0801 4.77997 16.4701 5.15997L16.5401 5.22997C16.9301 5.61997 16.9301 6.24997 16.5401 6.63997C16.3501 6.83997 16.0902 6.93997 15.8402 6.93997Z" fill="white"/> <path d="M18.1302 9.23001C17.8702 9.23001 17.6202 9.13001 17.4202 8.94001C17.0302 8.55001 16.9902 7.88001 17.3802 7.49001C17.7702 7.10001 18.3702 7.07001 18.7602 7.45001L18.8302 7.52001C19.2202 7.91001 19.2202 8.54001 18.8302 8.93001C18.6502 9.14001 18.3902 9.23001 18.1302 9.23001Z" fill="white"/> <path d="M5.94027 16.8399C5.68027 16.8399 5.43025 16.7399 5.23025 16.5499C4.84025 16.1599 4.80027 15.4899 5.19027 15.0999C5.58027 14.7099 6.18028 14.6799 6.57028 15.0599L6.64028 15.1299C7.03028 15.5199 7.03028 16.1499 6.64028 16.5399C6.45028 16.7399 6.19027 16.8399 5.94027 16.8399Z" fill="white"/> <path d="M8.23028 19.1299C7.97028 19.1299 7.72032 19.0299 7.52032 18.8399C7.13032 18.4499 7.09028 17.7799 7.48028 17.3899C7.87028 16.9999 8.47029 16.9699 8.86029 17.3499L8.93029 17.4199C9.32029 17.8099 9.32029 18.4399 8.93029 18.8299C8.75029 19.0399 8.49028 19.1299 8.23028 19.1299Z" fill="white"/> </g> <defs> <clipPath id="clip0_4482_4943"> <rect width="24" height="24" fill="white"/> </clipPath> </defs> </svg>
