<svg width="24" height="24" viewBox="0 0 24 24" fill="none" xmlns="http://www.w3.org/2000/svg"> <g clip-path="url(#clip0_4482_10171)"> <path d="M19.36 22.1999H4.64004C3.07004 22.1999 1.79004 20.9199 1.79004 19.3499V13.0399C1.79004 11.4699 3.07004 10.1899 4.64004 10.1899H6.74004C7.15004 10.1899 7.49004 10.5299 7.49004 10.9399C7.49004 11.3499 7.15004 11.6899 6.74004 11.6899H4.64004C3.89004 11.6899 3.29004 12.2999 3.29004 13.0399V19.3499C3.29004 20.0999 3.90004 20.6999 4.64004 20.6999H19.36C20.11 20.6999 20.71 20.0899 20.71 19.3499V13.0399C20.71 12.2899 20.1 11.6899 19.36 11.6899H17.26C16.85 11.6899 16.51 11.3499 16.51 10.9399C16.51 10.5299 16.85 10.1899 17.26 10.1899H19.36C20.93 10.1899 22.21 11.4699 22.21 13.0399V19.3499C22.21 20.9199 20.93 22.1999 19.36 22.1999Z" fill="white"/> <path d="M17.2602 22.1998H6.74023C6.33023 22.1998 5.99023 21.8598 5.99023 21.4498V9.77978C5.99023 8.25978 7.22023 7.02979 8.74023 7.02979H15.2502C16.7702 7.02979 18.0002 8.25978 18.0002 9.77978V21.4498C18.0002 21.8598 17.6602 22.1998 17.2502 22.1998H17.2602ZM7.50023 20.6998H16.5102V9.77978C16.5102 9.08978 15.9502 8.52978 15.2602 8.52978H8.75023C8.06023 8.52978 7.50023 9.08978 7.50023 9.77978V20.6998Z" fill="white"/> <path d="M13.5797 22.2002C13.1697 22.2002 12.8297 21.8602 12.8297 21.4502V17.9902H11.1797V21.4502C11.1797 21.8602 10.8397 22.2002 10.4297 22.2002C10.0197 22.2002 9.67969 21.8602 9.67969 21.4502V17.7702C9.67969 17.0702 10.2497 16.4902 10.9597 16.4902H13.0597C13.7597 16.4902 14.3397 17.0602 14.3397 17.7702V21.4502C14.3397 21.8602 13.9997 22.2002 13.5897 22.2002H13.5797Z" fill="white"/> <path d="M12 8.00988C11.59 8.00988 11.25 7.66988 11.25 7.25988V4.62988C11.25 4.21988 11.59 3.87988 12 3.87988C12.41 3.87988 12.75 4.21988 12.75 4.62988V7.25988C12.75 7.66988 12.41 8.00988 12 8.00988Z" fill="white"/> <path d="M15.68 5.9H12.53C11.83 5.9 11.25 5.33 11.25 4.62V2.53C11.25 1.83 11.82 1.25 12.53 1.25H15.68C16.38 1.25 16.96 1.82 16.96 2.53V4.63C16.96 5.33 16.39 5.91 15.68 5.91V5.9ZM12.75 4.4H15.46V2.75H12.75V4.4Z" fill="white"/> <path d="M14.0996 14.8398H9.88965C9.47965 14.8398 9.13965 14.4998 9.13965 14.0898C9.13965 13.6798 9.47965 13.3398 9.88965 13.3398H14.0996C14.5096 13.3398 14.8496 13.6798 14.8496 14.0898C14.8496 14.4998 14.5096 14.8398 14.0996 14.8398Z" fill="white"/> <path d="M14.0996 11.6899H9.88965C9.47965 11.6899 9.13965 11.3499 9.13965 10.9399C9.13965 10.5299 9.47965 10.1899 9.88965 10.1899H14.0996C14.5096 10.1899 14.8496 10.5299 14.8496 10.9399C14.8496 11.3499 14.5096 11.6899 14.0996 11.6899Z" fill="white"/> </g> <defs> <clipPath id="clip0_4482_10171"> <rect width="24" height="24" fill="white"/> </clipPath> </defs> </svg>
