<svg width="24" height="24" viewBox="0 0 24 24" fill="none" xmlns="http://www.w3.org/2000/svg"> <g clip-path="url(#clip0_4482_10653)"> <path d="M17.9301 22.7499C17.4001 22.7499 16.8701 22.5499 16.4701 22.1499L12.9801 18.6599C12.5901 18.2699 12.3701 17.7499 12.3701 17.1999V14.4499C12.3701 13.3099 13.3001 12.3799 14.4401 12.3799H17.1901C17.7401 12.3799 18.2701 12.5999 18.6501 12.9899L22.1401 16.4799C22.9501 17.2899 22.9501 18.5999 22.1401 19.4099L19.3901 22.1599C18.9901 22.5599 18.4601 22.7599 17.9301 22.7599V22.7499ZM14.4301 13.8599C14.1201 13.8599 13.8601 14.1199 13.8601 14.4299V17.1799C13.8601 17.3299 13.9201 17.4699 14.0301 17.5799L17.5201 21.0799C17.7401 21.2999 18.1001 21.2999 18.3301 21.0799L21.0801 18.3299C21.3001 18.1099 21.3001 17.7499 21.0801 17.5199L17.5901 14.0299C17.4801 13.9199 17.3401 13.8599 17.1901 13.8599H14.4401H14.4301Z" fill="white"/> <path d="M15.9602 16.7399C15.7602 16.7399 15.5502 16.6699 15.4102 16.5299C15.2602 16.3899 15.1602 16.1599 15.1602 15.9499C15.1602 15.7399 15.2602 15.5199 15.4002 15.3799C15.6902 15.0999 16.2102 15.0999 16.5002 15.3799C16.6502 15.5199 16.7302 15.7399 16.7302 15.9399C16.7302 16.1399 16.6602 16.3699 16.5202 16.5099C16.3702 16.6599 16.1602 16.7399 15.9502 16.7399H15.9602Z" fill="white"/> <path d="M11.98 22.75H6.44C3.58 22.75 1.25 20.42 1.25 17.56V10.58C1.25 8.99002 1.96 7.52002 3.2 6.52002L8.06 2.63002C10.38 0.770022 13.62 0.780022 15.94 2.63002L20.8 6.52002C22.04 7.51002 22.75 8.99002 22.75 10.58V11.99C22.75 12.4 22.41 12.74 22 12.74C21.59 12.74 21.25 12.4 21.25 11.99V10.58C21.25 9.45002 20.74 8.40002 19.86 7.70002L15 3.81002C13.23 2.40002 10.76 2.40002 9 3.81002L4.14 7.70002C3.26 8.40002 2.75 9.46002 2.75 10.58V17.56C2.75 19.6 4.41 21.25 6.44 21.25H11.98C12.39 21.25 12.73 21.59 12.73 22C12.73 22.41 12.39 22.75 11.98 22.75Z" fill="white"/> </g> <defs> <clipPath id="clip0_4482_10653"> <rect width="24" height="24" fill="white"/> </clipPath> </defs> </svg>
