<svg width="24" height="24" viewBox="0 0 24 24" fill="none" xmlns="http://www.w3.org/2000/svg"> <g clip-path="url(#clip0_4482_5295)"> <path d="M20.73 10.6902H6.34998C3.94998 10.6902 2 8.74023 2 6.34023C2 3.94023 3.94998 1.99023 6.34998 1.99023H20.73C21.23 1.99023 21.67 2.27022 21.88 2.73022C22.09 3.18022 22.0199 3.70023 21.6899 4.08023C20.5699 5.39023 20.5699 7.29024 21.6899 8.60023C22.0199 8.98024 22.09 9.50023 21.88 9.95023C21.67 10.4102 21.23 10.6902 20.73 10.6902ZM6.34998 3.50023C4.77998 3.50023 3.5 4.78023 3.5 6.35023C3.5 7.92024 4.77998 9.20023 6.34998 9.20023H20.24C19.04 7.49023 19.04 5.22022 20.24 3.51022H6.34998V3.50023Z" fill="white"/> <path d="M17.6502 21.9998H3.27018C2.77018 21.9998 2.33016 21.7198 2.12016 21.2598C1.91016 20.8098 1.98022 20.2898 2.31022 19.9098C3.43022 18.5998 3.43022 16.6998 2.31022 15.3898C1.98022 15.0098 1.91016 14.4898 2.12016 14.0398C2.33016 13.5898 2.77018 13.2998 3.27018 13.2998H17.6502C20.0502 13.2998 22.0002 15.2498 22.0002 17.6498C21.9902 20.0498 20.0402 21.9998 17.6502 21.9998ZM3.75016 20.4998H17.6402C19.2102 20.4998 20.4902 19.2198 20.4902 17.6498C20.4902 16.0798 19.2102 14.7998 17.6402 14.7998H3.75016C4.96016 16.5198 4.96016 18.7898 3.75016 20.4998Z" fill="white"/> </g> <defs> <clipPath id="clip0_4482_5295"> <rect width="24" height="24" fill="white"/> </clipPath> </defs> </svg>
