<svg width="24" height="24" viewBox="0 0 24 24" fill="none" xmlns="http://www.w3.org/2000/svg"> <g clip-path="url(#clip0_4482_5151)"> <path d="M12.04 22.5004C11.94 22.5004 11.84 22.5004 11.74 22.5004C6.24996 22.3504 1.65998 17.7604 1.50998 12.2704C1.35998 6.82039 5.31997 2.19039 10.72 1.52039C11.24 1.45039 11.76 1.62034 12.16 1.97034C12.56 2.32034 12.78 2.83035 12.78 3.35035V6.65039C12.78 7.52039 12.16 8.26038 11.28 8.45038C10.34 8.65038 9.50996 9.2204 8.98996 10.0304C8.46996 10.8504 8.29996 11.8404 8.51996 12.8204C8.80996 14.1104 9.87998 15.1704 11.16 15.4604C12.14 15.6904 13.13 15.5204 13.95 14.9904C14.76 14.4704 15.34 13.6404 15.53 12.7004C15.72 11.8204 16.46 11.2004 17.33 11.2004H20.63C21.16 11.2004 21.66 11.4304 22.01 11.8204C22.36 12.2204 22.52 12.7404 22.46 13.2604C21.82 18.5904 17.36 22.5004 12.04 22.5004ZM10.95 3.00037C10.94 3.00037 10.92 3.00037 10.91 3.00037C6.27997 3.58037 2.87998 7.54034 3.00998 12.2203C3.13998 16.9303 7.07997 20.8604 11.78 20.9904C11.87 20.9904 11.95 20.9904 12.04 20.9904C16.61 20.9904 20.43 17.6304 21 13.0904C21.02 12.9604 20.96 12.8704 20.92 12.8304C20.88 12.7904 20.8 12.7104 20.66 12.7104H17.36C17.17 12.7104 17.06 12.8604 17.03 13.0204C16.75 14.3504 15.93 15.5304 14.79 16.2604C13.63 17.0004 12.23 17.2404 10.85 16.9304C8.97998 16.5004 7.49996 15.0203 7.07996 13.1603C6.76996 11.7803 6.99997 10.3803 7.74997 9.22034C8.47997 8.08034 9.65996 7.26035 10.99 6.98035C11.14 6.95035 11.3 6.83039 11.3 6.65039V3.35035C11.3 3.22035 11.23 3.1304 11.18 3.0904C11.13 3.0504 11.05 3.00037 10.95 3.00037Z" fill="white"/> <path d="M19.0998 12.7203C18.6898 12.7203 18.3498 12.3803 18.3498 11.9703C18.3498 8.49034 15.5198 5.65039 12.0298 5.65039C11.6198 5.65039 11.2798 5.31039 11.2798 4.90039C11.2798 4.49039 11.6198 4.15039 12.0298 4.15039C16.3398 4.15039 19.8498 7.66034 19.8498 11.9703C19.8498 12.3803 19.5098 12.7203 19.0998 12.7203Z" fill="white"/> </g> <defs> <clipPath id="clip0_4482_5151"> <rect width="24" height="24" fill="white"/> </clipPath> </defs> </svg>
