<svg width="24" height="24" viewBox="0 0 24 24" fill="none" xmlns="http://www.w3.org/2000/svg"> <g clip-path="url(#clip0_2085_386466)"> <path d="M18.2201 22.6998H5.78008C5.39008 22.6998 5.08008 22.3898 5.08008 21.9998C5.08008 21.6098 5.39008 21.2998 5.78008 21.2998H18.2301C18.6201 21.2998 18.9301 21.6098 18.9301 21.9998C18.9301 22.3898 18.6201 22.6998 18.2301 22.6998H18.2201Z" fill="white"/> <path d="M1.99986 22.7004C1.81986 22.7004 1.63986 22.6304 1.49986 22.4904C1.22986 22.2204 1.22986 21.7704 1.49986 21.5004L21.4999 1.50035C21.7699 1.23035 22.2199 1.23035 22.4899 1.50035C22.7599 1.77035 22.7599 2.22035 22.4899 2.49035L2.49986 22.5004C2.35986 22.6404 2.17986 22.7104 1.99986 22.7104V22.7004Z" fill="white"/> <path d="M16.9801 22.7008C16.5901 22.7008 16.2801 22.3908 16.2801 22.0008V19.7608L15.7401 19.2208L14.9901 19.9708C14.7201 20.2408 14.2701 20.2408 14.0001 19.9708L12.9601 18.9308H10.7601C10.5001 18.9308 10.2601 18.7908 10.1401 18.5608C10.0201 18.3308 10.0301 18.0508 10.1801 17.8408L12.6701 14.1108C12.7901 13.9308 12.9801 13.8208 13.1901 13.8008C13.4001 13.7708 13.6101 13.8508 13.7601 14.0008L14.5101 14.7508L15.2601 14.0008C15.5301 13.7308 15.9801 13.7308 16.2501 14.0008L16.2901 14.0408V8.85078C16.2901 7.16078 15.2801 5.63078 13.7201 4.95078C13.0701 4.67078 12.6301 4.06078 12.5601 3.37078C12.5601 3.33078 12.5601 3.29078 12.5601 3.25078C12.5601 2.95078 12.3201 2.71078 12.0201 2.71078C11.7201 2.71078 11.4801 2.95078 11.4801 3.25078C11.4801 3.29078 11.4801 3.33078 11.4801 3.37078C11.4101 4.06078 10.9701 4.67078 10.3201 4.95078C8.7601 5.63078 7.7501 7.16078 7.7501 8.85078V22.0008C7.7501 22.3908 7.4401 22.7008 7.0501 22.7008C6.6601 22.7008 6.3501 22.3908 6.3501 22.0008V8.85078C6.3501 6.60078 7.6901 4.56078 9.7601 3.66078C9.9601 3.58078 10.0801 3.38078 10.0801 3.17078C10.0801 3.13078 10.0801 3.09078 10.0801 3.06078C10.1801 2.08078 11.0101 1.30078 12.0201 1.30078C13.0301 1.30078 13.8601 2.07078 13.9601 3.06078C13.9601 3.10078 13.9601 3.14078 13.9601 3.17078C13.9601 3.38078 14.0901 3.57078 14.2801 3.66078C16.3501 4.56078 17.6901 6.60078 17.6901 8.85078V15.7408C17.6901 16.0208 17.5201 16.2808 17.2601 16.3908C17.0001 16.5008 16.6901 16.4408 16.4901 16.2408L15.7401 15.4908L14.9901 16.2408C14.7201 16.5108 14.2701 16.5108 14.0001 16.2408L13.3601 15.6008L12.0701 17.5308H13.2501C13.4401 17.5308 13.6201 17.6008 13.7501 17.7408L14.5001 18.4908L15.2501 17.7408C15.5201 17.4708 15.9701 17.4708 16.2401 17.7408L17.4801 18.9808C17.6101 19.1108 17.6901 19.2908 17.6901 19.4808V22.0108C17.6901 22.4008 17.3801 22.7108 16.9901 22.7108L16.9801 22.7008Z" fill="white"/> </g> <defs> <clipPath id="clip0_2085_386466"> <rect width="24" height="24" fill="white"/> </clipPath> </defs> </svg>
