<svg width="24" height="24" viewBox="0 0 24 24" fill="none" xmlns="http://www.w3.org/2000/svg"> <g clip-path="url(#clip0_4482_5143)"> <path d="M13.38 17.7197C11.85 17.7197 10.48 16.6797 10.06 15.1197C10.01 14.9197 9.97998 14.7097 9.97998 14.4597V9.52971C9.97998 9.27971 10.01 9.06967 10.06 8.86967C10.53 7.11967 12.2 6.01969 13.94 6.31969C16.73 6.77969 18.75 9.16967 18.75 11.9897C18.75 14.8097 16.73 17.1997 13.94 17.6697C13.75 17.7097 13.57 17.7197 13.38 17.7197ZM13.39 7.77971C12.61 7.77971 11.78 8.2597 11.51 9.2697C11.49 9.3397 11.48 9.42966 11.48 9.53966V14.4697C11.48 14.5796 11.49 14.6697 11.51 14.7397C11.82 15.8897 12.84 16.3397 13.7 16.1997C15.76 15.8597 17.25 14.0897 17.25 11.9997C17.25 9.90968 15.76 8.14967 13.7 7.79967C13.6 7.78967 13.49 7.77971 13.39 7.77971Z" fill="white"/> <path d="M6.08024 10.3303C5.82024 10.3303 5.56024 10.1903 5.42024 9.94027C5.22024 9.58027 5.35024 9.12025 5.72024 8.92025L7.95024 7.69027C8.31024 7.49027 8.77024 7.62025 8.97024 7.99025C9.17024 8.35025 9.04024 8.81027 8.67024 9.01027L6.44024 10.2403C6.32024 10.3103 6.20024 10.3303 6.08024 10.3303Z" fill="white"/> <path d="M6.08024 13.3596C5.82024 13.3596 5.56024 13.2195 5.42024 12.9695C5.22024 12.6095 5.35024 12.1496 5.72024 11.9496L7.95024 10.7195C8.31024 10.5195 8.77024 10.6496 8.97024 11.0196C9.17024 11.3896 9.04024 11.8396 8.67024 12.0396L6.44024 13.2696C6.32024 13.3296 6.20024 13.3596 6.08024 13.3596Z" fill="white"/> <path d="M6.01989 16.2796C5.72989 16.2796 5.44989 16.1096 5.32989 15.8296C5.15989 15.4496 5.33989 15.0096 5.71989 14.8396L8.04989 13.8296C8.42989 13.6696 8.86989 13.8395 9.03989 14.2195C9.20989 14.5995 9.02989 15.0396 8.64989 15.2096L6.31989 16.2195C6.21989 16.2595 6.11989 16.2796 6.01989 16.2796Z" fill="white"/> <path d="M15 22.75H9C3.57 22.75 1.25 20.43 1.25 15V9C1.25 3.57 3.57 1.25 9 1.25H15C20.43 1.25 22.75 3.57 22.75 9V15C22.75 20.43 20.43 22.75 15 22.75ZM9 2.75C4.39 2.75 2.75 4.39 2.75 9V15C2.75 19.61 4.39 21.25 9 21.25H15C19.61 21.25 21.25 19.61 21.25 15V9C21.25 4.39 19.61 2.75 15 2.75H9Z" fill="white"/> </g> <defs> <clipPath id="clip0_4482_5143"> <rect width="24" height="24" fill="white"/> </clipPath> </defs> </svg>
