<svg width="24" height="24" viewBox="0 0 24 24" fill="none" xmlns="http://www.w3.org/2000/svg"> <g clip-path="url(#clip0_4482_5139)"> <path d="M14.2098 20.5697C11.9898 20.5697 10.0498 19.0797 9.42981 16.7997C9.35981 16.5297 9.31982 16.2297 9.31982 15.8797V8.12967C9.31982 7.77967 9.35981 7.47968 9.42981 7.20968C10.1298 4.63968 12.4898 3.07966 15.0498 3.49966C19.2198 4.19966 22.2498 7.76966 22.2498 11.9997C22.2498 16.2297 19.2198 19.8097 15.0498 20.4997C14.7698 20.5497 14.4798 20.5697 14.2098 20.5697ZM14.2498 4.92966C12.8598 4.92966 11.3698 5.77969 10.8798 7.58969C10.8398 7.72969 10.8198 7.90966 10.8198 8.11966V15.8697C10.8198 16.0897 10.8398 16.2597 10.8798 16.3997C11.4298 18.4497 13.2698 19.2697 14.7998 19.0197C18.2498 18.4497 20.7498 15.4897 20.7498 11.9997C20.7498 8.50966 18.2498 5.54964 14.7998 4.97964C14.6198 4.94964 14.4398 4.92966 14.2498 4.92966Z" fill="white"/> <path d="M6.5 7.99023H2.5C2.09 7.99023 1.75 7.65023 1.75 7.24023C1.75 6.83023 2.09 6.49023 2.5 6.49023H6.5C6.91 6.49023 7.25 6.83023 7.25 7.24023C7.25 7.65023 6.91 7.99023 6.5 7.99023Z" fill="white"/> <path d="M6.5 12.75H2.5C2.09 12.75 1.75 12.41 1.75 12C1.75 11.59 2.09 11.25 2.5 11.25H6.5C6.91 11.25 7.25 11.59 7.25 12C7.25 12.41 6.91 12.75 6.5 12.75Z" fill="white"/> <path d="M6.5 17.5098H2.5C2.09 17.5098 1.75 17.1698 1.75 16.7598C1.75 16.3498 2.09 16.0098 2.5 16.0098H6.5C6.91 16.0098 7.25 16.3498 7.25 16.7598C7.25 17.1698 6.91 17.5098 6.5 17.5098Z" fill="white"/> </g> <defs> <clipPath id="clip0_4482_5139"> <rect width="24" height="24" fill="white"/> </clipPath> </defs> </svg>
