<svg width="24" height="24" viewBox="0 0 24 24" fill="none" xmlns="http://www.w3.org/2000/svg"> <g clip-path="url(#clip0_2085_386077)"> <path d="M12.44 22.7498C6.27 22.7498 1.25 17.7198 1.25 11.5298C1.25 7.25985 3.72 3.28985 7.55 1.42985C7.84 1.28985 8.2 1.34985 8.42 1.58985C8.64 1.82985 8.69 2.17985 8.53 2.46985C7.74 3.89985 7.33 5.51985 7.33 7.15985C7.33 12.5198 11.68 16.8798 17.02 16.8798C18.5 16.8798 19.92 16.5498 21.25 15.9098C21.54 15.7698 21.9 15.8298 22.12 16.0698C22.34 16.3098 22.39 16.6599 22.23 16.9499C20.26 20.5299 16.5 22.7498 12.43 22.7498H12.44ZM6.28 4.01985C4.08 5.84985 2.75 8.59985 2.75 11.5198C2.75 16.8799 7.1 21.2398 12.44 21.2398C15.19 21.2398 17.78 20.0698 19.59 18.0798C18.76 18.2799 17.9 18.3699 17.03 18.3699C10.86 18.3699 5.84 13.3398 5.84 7.14985C5.84 6.08985 5.99 5.02985 6.28 4.01985Z" fill="white"/> <path d="M13.7698 12.5398C13.4598 12.5398 13.1498 12.4298 12.8998 12.2098C12.5098 11.8698 12.3598 11.3498 12.4998 10.8498L13.1898 8.40977L11.4398 6.65977C11.0798 6.29977 10.9598 5.77977 11.1198 5.30977C11.2798 4.82977 11.6898 4.48977 12.1898 4.41977L14.6798 4.05977L15.7098 1.98977C15.9298 1.53977 16.3898 1.25977 16.8898 1.25977C17.3898 1.25977 17.8498 1.53977 18.0698 1.98977L19.0998 4.05977L21.5898 4.41977C22.0898 4.48977 22.4998 4.82977 22.6598 5.30977C22.8198 5.78977 22.6998 6.30977 22.3398 6.66977L20.5998 8.41977L21.2898 10.8598C21.4298 11.3598 21.2798 11.8798 20.8898 12.2198C20.4998 12.5598 19.9698 12.6398 19.4898 12.4398L16.8798 11.3198L14.2698 12.4398C14.0998 12.5098 13.9198 12.5498 13.7398 12.5498L13.7698 12.5398ZM16.9098 9.79977C17.0898 9.79977 17.2698 9.83977 17.4298 9.90977L19.7698 10.9098L19.1498 8.72976C19.0198 8.26976 19.1498 7.76977 19.4898 7.42977L21.0598 5.84977L18.8198 5.52977C18.3898 5.46977 18.0198 5.19977 17.8198 4.80977L16.9098 2.97977L15.9898 4.80977C15.7998 5.19977 15.4198 5.46977 14.9898 5.52977L12.7598 5.84977L14.3298 7.42977C14.6698 7.76977 14.7998 8.26976 14.6698 8.72976L14.0498 10.9098L16.3898 9.90977C16.5598 9.83977 16.7298 9.79977 16.9098 9.79977Z" fill="white"/> </g> <defs> <clipPath id="clip0_2085_386077"> <rect width="24" height="24" fill="white"/> </clipPath> </defs> </svg>
