<svg width="24" height="24" viewBox="0 0 24 24" fill="none" xmlns="http://www.w3.org/2000/svg"> <g clip-path="url(#clip0_2085_390419)"> <path d="M21.9402 9.41992H20.4902C20.0802 9.41992 19.7402 9.07992 19.7402 8.66992C19.7402 8.25992 20.0802 7.91992 20.4902 7.91992H21.9402C22.3502 7.91992 22.6902 8.25992 22.6902 8.66992C22.6902 9.07992 22.3502 9.41992 21.9402 9.41992Z" fill="white"/> <path d="M5.33025 22.7496C3.91025 22.7496 2.76025 21.5996 2.76025 20.1796V17.1496C2.76025 13.3896 5.82025 10.3396 9.57025 10.3396H14.4203C15.3403 10.3396 16.0903 9.58957 16.0903 8.65957V5.62957C16.0903 4.20957 17.2403 3.05957 18.6603 3.05957C20.0803 3.05957 21.2303 4.20957 21.2303 5.62957V8.65957C21.2303 12.4196 18.1703 15.4696 14.4203 15.4696H9.57025C8.65025 15.4696 7.90025 16.2196 7.90025 17.1396V20.1696C7.90025 21.5896 6.75025 22.7396 5.33025 22.7396V22.7496ZM9.57025 11.8496C6.64025 11.8496 4.26025 14.2196 4.26025 17.1496V20.1796C4.26025 20.7696 4.74025 21.2496 5.33025 21.2496C5.92025 21.2496 6.40025 20.7696 6.40025 20.1796V17.1496C6.40025 15.3996 7.82025 13.9796 9.57025 13.9796H14.4203C17.3503 13.9796 19.7303 11.5996 19.7303 8.66957V5.63957C19.7303 5.04957 19.2503 4.56957 18.6603 4.56957C18.0703 4.56957 17.5903 5.04957 17.5903 5.63957V8.66957C17.5903 10.4196 16.1703 11.8496 14.4203 11.8496H9.57025Z" fill="white"/> <path d="M18.6598 4.57C17.2398 4.57 16.0898 3.42 16.0898 2C16.0898 1.59 16.4298 1.25 16.8398 1.25C17.2498 1.25 17.5898 1.59 17.5898 2C17.5898 2.59 18.0698 3.07 18.6598 3.07C19.2498 3.07 19.7298 2.59 19.7298 2C19.7298 1.59 20.0698 1.25 20.4798 1.25C20.8898 1.25 21.2298 1.59 21.2298 2C21.2298 3.42 20.0798 4.57 18.6598 4.57Z" fill="white"/> <path d="M16.8499 6.99023H15.3999C14.9899 6.99023 14.6499 6.65023 14.6499 6.24023C14.6499 5.83023 14.9899 5.49023 15.3999 5.49023H16.8499C17.2599 5.49023 17.5999 5.83023 17.5999 6.24023C17.5999 6.65023 17.2599 6.99023 16.8499 6.99023Z" fill="white"/> <path d="M16.8499 9.41992H15.3999C14.9899 9.41992 14.6499 9.07992 14.6499 8.66992C14.6499 8.25992 14.9899 7.91992 15.3999 7.91992H16.8499C17.2599 7.91992 17.5999 8.25992 17.5999 8.66992C17.5999 9.07992 17.2599 9.41992 16.8499 9.41992Z" fill="white"/> <path d="M21.9402 6.99023H20.4902C20.0802 6.99023 19.7402 6.65023 19.7402 6.24023C19.7402 5.83023 20.0802 5.49023 20.4902 5.49023H21.9402C22.3502 5.49023 22.6902 5.83023 22.6902 6.24023C22.6902 6.65023 22.3502 6.99023 21.9402 6.99023Z" fill="white"/> <path d="M8.5999 17.9004H7.1499C6.7399 17.9004 6.3999 17.5604 6.3999 17.1504C6.3999 16.7404 6.7399 16.4004 7.1499 16.4004H8.5999C9.0099 16.4004 9.3499 16.7404 9.3499 17.1504C9.3499 17.5604 9.0099 17.9004 8.5999 17.9004Z" fill="white"/> <path d="M8.5999 20.3203H7.1499C6.7399 20.3203 6.3999 19.9803 6.3999 19.5703C6.3999 19.1603 6.7399 18.8203 7.1499 18.8203H8.5999C9.0099 18.8203 9.3499 19.1603 9.3499 19.5703C9.3499 19.9803 9.0099 20.3203 8.5999 20.3203Z" fill="white"/> <path d="M3.51006 17.9004H2.06006C1.65006 17.9004 1.31006 17.5604 1.31006 17.1504C1.31006 16.7404 1.65006 16.4004 2.06006 16.4004H3.51006C3.92006 16.4004 4.26006 16.7404 4.26006 17.1504C4.26006 17.5604 3.92006 17.9004 3.51006 17.9004Z" fill="white"/> <path d="M3.51006 20.3203H2.06006C1.65006 20.3203 1.31006 19.9803 1.31006 19.5703C1.31006 19.1603 1.65006 18.8203 2.06006 18.8203H3.51006C3.92006 18.8203 4.26006 19.1603 4.26006 19.5703C4.26006 19.9803 3.92006 20.3203 3.51006 20.3203Z" fill="white"/> <path d="M14.4199 11.8396C14.0099 11.8396 13.6699 11.4996 13.6699 11.0896V9.63965C13.6699 9.22965 14.0099 8.88965 14.4199 8.88965C14.8299 8.88965 15.1699 9.22965 15.1699 9.63965V11.0896C15.1699 11.4996 14.8299 11.8396 14.4199 11.8396Z" fill="white"/> <path d="M12 11.8396C11.59 11.8396 11.25 11.4996 11.25 11.0896V9.63965C11.25 9.22965 11.59 8.88965 12 8.88965C12.41 8.88965 12.75 9.22965 12.75 9.63965V11.0896C12.75 11.4996 12.41 11.8396 12 11.8396Z" fill="white"/> <path d="M9.56982 11.8396C9.15982 11.8396 8.81982 11.4996 8.81982 11.0896V9.63965C8.81982 9.22965 9.15982 8.88965 9.56982 8.88965C9.97982 8.88965 10.3198 9.22965 10.3198 9.63965V11.0896C10.3198 11.4996 9.97982 11.8396 9.56982 11.8396Z" fill="white"/> <path d="M7.33022 12.2703C7.04022 12.2703 6.76022 12.1003 6.64022 11.8103L6.04022 10.3703C5.88022 9.99032 6.06022 9.55032 6.45022 9.39032C6.83022 9.23032 7.27022 9.41032 7.43022 9.80032L8.03022 11.2403C8.19022 11.6203 8.01022 12.0603 7.62022 12.2203C7.53022 12.2603 7.43022 12.2803 7.33022 12.2803V12.2703Z" fill="white"/> <path d="M3.9401 15.6604C3.8401 15.6604 3.7501 15.6404 3.6501 15.6004L2.2201 15.0104C1.8401 14.8504 1.6601 14.4104 1.8101 14.0304C1.9601 13.6504 2.4101 13.4604 2.7901 13.6204L4.2201 14.2104C4.6001 14.3704 4.7801 14.8104 4.6301 15.1904C4.5101 15.4804 4.2301 15.6504 3.9401 15.6504V15.6604Z" fill="white"/> <path d="M5.28988 13.62C5.09988 13.62 4.90988 13.55 4.75988 13.4L3.65988 12.3C3.36988 12.01 3.36988 11.53 3.65988 11.24C3.94988 10.95 4.42988 10.95 4.71988 11.24L5.81988 12.34C6.10988 12.63 6.10988 13.11 5.81988 13.4C5.66988 13.55 5.47988 13.62 5.28988 13.62Z" fill="white"/> <path d="M14.4199 16.99C14.0099 16.99 13.6699 16.65 13.6699 16.24V14.79C13.6699 14.38 14.0099 14.04 14.4199 14.04C14.8299 14.04 15.1699 14.38 15.1699 14.79V16.24C15.1699 16.65 14.8299 16.99 14.4199 16.99Z" fill="white"/> <path d="M17.2199 16.4596C16.9299 16.4596 16.6499 16.2896 16.5299 15.9996L15.9699 14.6496C15.8099 14.2696 15.9899 13.8296 16.3799 13.6696C16.7599 13.5096 17.1999 13.6896 17.3599 14.0796L17.9199 15.4296C18.0799 15.8096 17.8999 16.2496 17.5099 16.4096C17.4199 16.4496 17.3199 16.4696 17.2199 16.4696V16.4596Z" fill="white"/> <path d="M21.4201 12.2801C21.3201 12.2801 21.2301 12.2601 21.1301 12.2201L19.7601 11.6501C19.3801 11.4901 19.2001 11.0501 19.3501 10.6701C19.5101 10.2901 19.9501 10.1001 20.3301 10.2601L21.7001 10.8301C22.0801 10.9901 22.2601 11.4301 22.1101 11.8101C21.9901 12.1001 21.7101 12.2701 21.4201 12.2701V12.2801Z" fill="white"/> <path d="M19.8001 14.8602C19.6101 14.8602 19.4201 14.7902 19.2701 14.6402L18.1701 13.5402C17.8801 13.2502 17.8801 12.7702 18.1701 12.4802C18.4601 12.1902 18.9401 12.1902 19.2301 12.4802L20.3301 13.5802C20.6201 13.8702 20.6201 14.3502 20.3301 14.6402C20.1801 14.7902 19.9901 14.8602 19.8001 14.8602Z" fill="white"/> <path d="M12 16.9305C11.59 16.9305 11.25 16.5905 11.25 16.1805V14.7305C11.25 14.3205 11.59 13.9805 12 13.9805C12.41 13.9805 12.75 14.3205 12.75 14.7305V16.1805C12.75 16.5905 12.41 16.9305 12 16.9305Z" fill="white"/> <path d="M9.56982 16.9305C9.15982 16.9305 8.81982 16.5905 8.81982 16.1805V14.7305C8.81982 14.3205 9.15982 13.9805 9.56982 13.9805C9.97982 13.9805 10.3198 14.3205 10.3198 14.7305V16.1805C10.3198 16.5905 9.97982 16.9305 9.56982 16.9305Z" fill="white"/> </g> <defs> <clipPath id="clip0_2085_390419"> <rect width="24" height="24" fill="white"/> </clipPath> </defs> </svg>
