<svg width="24" height="24" viewBox="0 0 24 24" fill="none" xmlns="http://www.w3.org/2000/svg"> <g clip-path="url(#clip0_4482_9676)"> <path d="M6.44043 22.7499C6.03043 22.7499 5.69043 22.4099 5.69043 21.9999V16.4399C5.69043 16.0299 6.03043 15.6899 6.44043 15.6899C6.85043 15.6899 7.19043 16.0299 7.19043 16.4399V21.9999C7.19043 22.4099 6.85043 22.7499 6.44043 22.7499Z" fill="white"/> <path d="M17.5605 22.7499C17.1505 22.7499 16.8105 22.4099 16.8105 21.9999V16.4399C16.8105 16.0299 17.1505 15.6899 17.5605 15.6899C17.9705 15.6899 18.3105 16.0299 18.3105 16.4399V21.9999C18.3105 22.4099 17.9705 22.7499 17.5605 22.7499Z" fill="white"/> <path d="M16.25 13.86H7.74995C7.37995 13.86 7.05995 13.59 7.00995 13.22L5.72995 4.66C5.59995 3.8 5.84995 2.94 6.41995 2.28C6.98995 1.62 7.80995 1.25 8.66995 1.25H15.34C16.21 1.25 17.03 1.63 17.59 2.28C18.16 2.94 18.41 3.8 18.28 4.66L17 13.22C16.9399 13.59 16.63 13.86 16.26 13.86H16.25ZM8.39995 12.36H15.6L16.79 4.44C16.85 4.02 16.73 3.59 16.45 3.26C16.17 2.93 15.76 2.75 15.33 2.75H8.65995C8.22995 2.75 7.82995 2.94 7.54995 3.26C7.26995 3.58 7.14995 4.01 7.20995 4.44L8.39995 12.36Z" fill="white"/> <path d="M18.1103 17.1901H5.89027C4.86027 17.1901 4.03027 16.3601 4.03027 15.3301V14.2201C4.03027 13.1901 4.86027 12.3601 5.89027 12.3601H18.1103C19.1403 12.3601 19.9703 13.1901 19.9703 14.2201V15.3301C19.9703 16.3601 19.1403 17.1901 18.1103 17.1901ZM5.89027 13.8601C5.69027 13.8601 5.53027 14.0201 5.53027 14.2201V15.3301C5.53027 15.5301 5.69027 15.6901 5.89027 15.6901H18.1103C18.3103 15.6901 18.4703 15.5301 18.4703 15.3301V14.2201C18.4703 14.0201 18.3103 13.8601 18.1103 13.8601H5.89027Z" fill="white"/> </g> <defs> <clipPath id="clip0_4482_9676"> <rect width="24" height="24" fill="white"/> </clipPath> </defs> </svg>
