<svg width="24" height="24" viewBox="0 0 24 24" fill="none" xmlns="http://www.w3.org/2000/svg"> <g clip-path="url(#clip0_4482_9686)"> <path d="M6.44043 22.7499C6.03043 22.7499 5.69043 22.4099 5.69043 21.9999V16.4399C5.69043 16.0299 6.03043 15.6899 6.44043 15.6899C6.85043 15.6899 7.19043 16.0299 7.19043 16.4399V21.9999C7.19043 22.4099 6.85043 22.7499 6.44043 22.7499Z" fill="white"/> <path d="M17.5605 22.7499C17.1505 22.7499 16.8105 22.4099 16.8105 21.9999V16.4399C16.8105 16.0299 17.1505 15.6899 17.5605 15.6899C17.9705 15.6899 18.3105 16.0299 18.3105 16.4399V21.9999C18.3105 22.4099 17.9705 22.7499 17.5605 22.7499Z" fill="white"/> <path d="M18.1103 17.1901H5.89027C4.86027 17.1901 4.03027 16.3601 4.03027 15.3301V14.2201C4.03027 13.1901 4.86027 12.3601 5.89027 12.3601H18.1103C19.1403 12.3601 19.9703 13.1901 19.9703 14.2201V15.3301C19.9703 16.3601 19.1403 17.1901 18.1103 17.1901ZM5.89027 13.8601C5.69027 13.8601 5.53027 14.0201 5.53027 14.2201V15.3301C5.53027 15.5301 5.69027 15.6901 5.89027 15.6901H18.1103C18.3103 15.6901 18.4703 15.5301 18.4703 15.3301V14.2201C18.4703 14.0201 18.3103 13.8601 18.1103 13.8601H5.89027Z" fill="white"/> <path d="M16.2502 13.86C16.2502 13.86 16.1802 13.86 16.1402 13.86C15.7302 13.8 15.4502 13.42 15.5102 13.01L16.7902 4.45001C16.8502 4.03001 16.7302 3.60001 16.4502 3.27001C16.1702 2.94001 15.7602 2.76001 15.3302 2.76001H8.66019C8.23019 2.76001 7.83019 2.95001 7.54019 3.27001C7.26019 3.60001 7.14019 4.02001 7.20019 4.45001L8.48019 13.01C8.54018 13.42 8.26019 13.8 7.85019 13.86C7.44019 13.92 7.06019 13.64 7.00019 13.23L5.72019 4.67001C5.59019 3.81001 5.84019 2.95001 6.41019 2.29001C6.98019 1.63001 7.80019 1.26001 8.66019 1.26001H15.3302C16.2002 1.26001 17.0202 1.64001 17.5802 2.29001C18.1402 2.94001 18.4002 3.81001 18.2702 4.67001L16.9902 13.23C16.9302 13.6 16.6102 13.87 16.2502 13.87V13.86Z" fill="white"/> </g> <defs> <clipPath id="clip0_4482_9686"> <rect width="24" height="24" fill="white"/> </clipPath> </defs> </svg>
