<svg width="24" height="24" viewBox="0 0 24 24" fill="none" xmlns="http://www.w3.org/2000/svg"> <g clip-path="url(#clip0_4482_7743)"> <path d="M12 22.75H7.56C4.08 22.75 1.25 19.92 1.25 16.44V7.56C1.25 4.08 4.08 1.25 7.56 1.25H16.45C19.93 1.25 22.76 4.08 22.76 7.56V13.12C22.76 13.53 22.42 13.87 22.01 13.87C21.6 13.87 21.26 13.53 21.26 13.12V7.56C21.26 4.91 19.1 2.75 16.45 2.75H7.56C4.91 2.75 2.75 4.91 2.75 7.56V16.45C2.75 19.1 4.91 21.26 7.56 21.26H12C12.41 21.26 12.75 21.6 12.75 22.01C12.75 22.42 12.41 22.76 12 22.76V22.75Z" fill="white"/> <path d="M11.9996 17.19C11.3596 17.19 10.7496 16.94 10.2996 16.49L7.50957 13.7C7.05957 13.25 6.80957 12.64 6.80957 12C6.80957 11.36 7.05957 10.75 7.50957 10.3L10.2996 7.51C10.7596 7.06 11.3596 6.81 11.9996 6.81C12.6396 6.81 13.2596 7.07 13.6996 7.52L16.4796 10.3C16.9296 10.75 17.1796 11.37 17.1796 12C17.1796 12.63 16.9296 13.25 16.4796 13.7L13.6896 16.49C13.2296 16.94 12.6296 17.19 11.9896 17.19H11.9996ZM11.9996 8.3C11.7596 8.3 11.5296 8.39 11.3596 8.56L8.57957 11.34C8.39957 11.51 8.30957 11.75 8.30957 11.99C8.30957 12.23 8.39957 12.46 8.57957 12.63L11.3596 15.41C11.7096 15.76 12.3096 15.75 12.6496 15.41L15.4296 12.63C15.6096 12.46 15.6996 12.22 15.6996 11.98C15.6996 11.74 15.5996 11.51 15.4296 11.34L12.6496 8.56C12.4796 8.38 12.2496 8.29 12.0096 8.29L11.9996 8.3Z" fill="white"/> <path d="M18.1099 21.64C17.9199 21.64 17.7299 21.57 17.5799 21.42L15.9099 19.75C15.6199 19.46 15.6199 18.98 15.9099 18.69C16.1999 18.4 16.6799 18.4 16.9699 18.69L18.1099 19.83L20.3599 17.58C20.6499 17.29 21.1299 17.29 21.4199 17.58C21.7099 17.87 21.7099 18.35 21.4199 18.64L18.6399 21.42C18.4899 21.57 18.2999 21.64 18.1099 21.64Z" fill="white"/> </g> <defs> <clipPath id="clip0_4482_7743"> <rect width="24" height="24" fill="white"/> </clipPath> </defs> </svg>
