<svg width="24" height="24" viewBox="0 0 24 24" fill="none" xmlns="http://www.w3.org/2000/svg"> <g clip-path="url(#clip0_4482_14132)"> <path d="M15.31 4.86023C15.12 4.86023 14.93 4.79023 14.78 4.64023C14.49 4.35023 14.49 3.87023 14.78 3.58023L15.84 2.52023C16.13 2.23023 16.61 2.23023 16.9 2.52023C17.19 2.81023 17.19 3.29023 16.9 3.58023L15.84 4.64023C15.69 4.79023 15.5 4.86023 15.31 4.86023Z" fill="white"/> <path d="M8.98035 4.86023C8.79035 4.86023 8.60035 4.79023 8.45035 4.64023L7.39035 3.58023C7.10035 3.29023 7.10035 2.81023 7.39035 2.52023C7.68035 2.23023 8.16035 2.23023 8.45035 2.52023L9.51035 3.58023C9.80035 3.87023 9.80035 4.35023 9.51035 4.64023C9.36035 4.79023 9.17035 4.86023 8.98035 4.86023Z" fill="white"/> <path d="M12.1396 3.81C11.7296 3.81 11.3896 3.47 11.3896 3.06V2C11.3896 1.59 11.7296 1.25 12.1396 1.25C12.5496 1.25 12.8896 1.59 12.8896 2V3.06C12.8896 3.47 12.5496 3.81 12.1396 3.81Z" fill="white"/> <path d="M18.1195 19.0702C17.5095 19.0702 16.8895 18.9202 16.3395 18.6202C15.4095 18.1102 14.7395 17.2202 14.4995 16.1902L13.3095 10.9702C13.1195 10.1102 13.5895 9.2402 14.4195 8.9402L16.7095 8.1102C17.5195 7.8202 18.4395 8.1702 18.8495 8.9302L21.3795 13.6202C21.8895 14.5702 21.9595 15.6902 21.5795 16.7002C21.1995 17.7102 20.3995 18.5002 19.3795 18.8702C18.9695 19.0202 18.5395 19.0902 18.1095 19.0902L18.1195 19.0702ZM17.3095 9.4902C17.3095 9.4902 17.2495 9.4902 17.2295 9.5002L14.9395 10.3302C14.8195 10.3702 14.7495 10.5002 14.7795 10.6202L15.9695 15.8402C16.1095 16.4602 16.5095 16.9902 17.0695 17.2902C17.6295 17.5902 18.2895 17.6402 18.8795 17.4302C19.4795 17.2102 19.9595 16.7402 20.1895 16.1402C20.4195 15.5402 20.3795 14.8702 20.0695 14.3102L17.5395 9.6202C17.4995 9.5402 17.4095 9.4902 17.3195 9.4902H17.3095Z" fill="white"/> <path d="M18.6304 22.75C18.3204 22.75 18.0404 22.56 17.9304 22.26C17.7904 21.87 17.9904 21.44 18.3804 21.3L21.7504 20.07C22.1404 19.93 22.5704 20.13 22.7104 20.52C22.8504 20.91 22.6504 21.34 22.2604 21.48L18.8904 22.71C18.8104 22.74 18.7204 22.76 18.6304 22.76V22.75Z" fill="white"/> <path d="M20.5304 14.3604H14.6904C14.2804 14.3604 13.9404 14.0204 13.9404 13.6104C13.9404 13.2004 14.2804 12.8604 14.6904 12.8604H20.5304C20.9404 12.8604 21.2804 13.2004 21.2804 13.6104C21.2804 14.0204 20.9404 14.3604 20.5304 14.3604Z" fill="white"/> <path d="M20.3096 22.1401C19.9996 22.1401 19.7196 21.9502 19.5996 21.6501L18.4196 18.4001C18.2796 18.0101 18.4796 17.5802 18.8696 17.4402C19.2596 17.3002 19.6896 17.5001 19.8296 17.8901L21.0096 21.1401C21.1496 21.5301 20.9496 21.9602 20.5596 22.1002C20.4796 22.1302 20.3896 22.1401 20.2996 22.1401H20.3096Z" fill="white"/> <path d="M5.88037 19.0697C5.45037 19.0697 5.02037 18.9997 4.61037 18.8497C3.60037 18.4797 2.80037 17.6897 2.41037 16.6797C2.03037 15.6697 2.10037 14.5497 2.61037 13.5997L5.14037 8.90969C5.55037 8.14969 6.46037 7.79969 7.28037 8.08969L9.57037 8.91969C10.4004 9.21969 10.8704 10.0897 10.6804 10.9497L9.49037 16.1697C9.25037 17.2097 8.58037 18.0897 7.65037 18.5997C7.10037 18.8997 6.49037 19.0497 5.87037 19.0497L5.88037 19.0697ZM5.13037 17.4397C5.72037 17.6497 6.39037 17.6097 6.94037 17.2997C7.50037 16.9997 7.90037 16.4697 8.04037 15.8497L9.23037 10.6297C9.26037 10.5097 9.19037 10.3797 9.07037 10.3397L6.78037 9.50969C6.66037 9.46969 6.53037 9.50969 6.48037 9.62969L3.95037 14.3197C3.65037 14.8797 3.60037 15.5497 3.83037 16.1497C4.06037 16.7497 4.54037 17.2197 5.14037 17.4397H5.13037Z" fill="white"/> <path d="M5.36976 22.7503C5.27976 22.7503 5.19976 22.7403 5.10976 22.7003L1.73976 21.4703C1.34976 21.3303 1.14976 20.9003 1.28976 20.5103C1.42976 20.1203 1.85976 19.9203 2.24976 20.0603L5.61976 21.2903C6.00976 21.4303 6.20976 21.8603 6.06976 22.2503C5.95976 22.5503 5.66976 22.7403 5.36976 22.7403V22.7503Z" fill="white"/> <path d="M9.30996 14.3604H3.45996C3.04996 14.3604 2.70996 14.0204 2.70996 13.6104C2.70996 13.2004 3.04996 12.8604 3.45996 12.8604H9.30996C9.71996 12.8604 10.06 13.2004 10.06 13.6104C10.06 14.0204 9.71996 14.3604 9.30996 14.3604Z" fill="white"/> <path d="M3.69019 22.1401C3.61019 22.1401 3.52019 22.1302 3.43019 22.1002C3.04019 21.9602 2.84019 21.5301 2.98019 21.1401L4.16019 17.8901C4.30019 17.5001 4.73019 17.3002 5.12019 17.4402C5.51019 17.5802 5.71019 18.0101 5.57019 18.4001L4.39019 21.6501C4.28019 21.9502 3.99019 22.1401 3.68019 22.1401H3.69019Z" fill="white"/> </g> <defs> <clipPath id="clip0_4482_14132"> <rect width="24" height="24" fill="white"/> </clipPath> </defs> </svg>
