<svg width="24" height="24" viewBox="0 0 24 24" fill="none" xmlns="http://www.w3.org/2000/svg"> <g clip-path="url(#clip0_4482_3094)"> <path d="M12 22.75C6.07 22.75 1.25 17.93 1.25 12C1.25 6.07 6.07 1.25 12 1.25C17.93 1.25 22.75 6.07 22.75 12C22.75 17.93 17.93 22.75 12 22.75ZM12 2.75C6.9 2.75 2.75 6.9 2.75 12C2.75 17.1 6.9 21.25 12 21.25C17.1 21.25 21.25 17.1 21.25 12C21.25 6.9 17.1 2.75 12 2.75Z" fill="white"/> <path d="M12.8903 17.75C12.3703 17.75 11.8702 17.55 11.5002 17.17L6.8302 12.5C6.3302 12 6.1402 11.27 6.3302 10.59C6.5202 9.90996 7.06024 9.37997 7.75024 9.20997L10.2903 8.57997L11.2803 7.09997C11.6903 6.48997 12.3402 6.08997 13.0702 6.01997C13.8002 5.93997 14.5203 6.19996 15.0403 6.72996L17.2903 8.97996C17.8103 9.49996 18.0702 10.22 18.0002 10.95C17.9302 11.68 17.5303 12.34 16.9203 12.75L15.4402 13.74L14.8103 16.27C14.6403 16.96 14.1103 17.5 13.4303 17.69C13.2403 17.73 13.0603 17.75 12.8903 17.75ZM13.3003 7.49997C13.2703 7.49997 13.2402 7.49997 13.2002 7.49997C12.9202 7.52997 12.6602 7.67997 12.5102 7.91997L11.4103 9.56997C11.2803 9.76997 11.0702 9.91996 10.8402 9.97996L8.10022 10.66C7.94022 10.7 7.81025 10.83 7.76025 10.99C7.72025 11.15 7.76024 11.32 7.88024 11.44L12.5503 16.11C12.6703 16.23 12.8402 16.27 13.0002 16.23C13.1602 16.19 13.2902 16.06 13.3302 15.89L14.0102 13.16C14.0702 12.92 14.2103 12.72 14.4203 12.58L16.0702 11.48C16.3102 11.32 16.4602 11.07 16.4902 10.78C16.5202 10.5 16.4202 10.22 16.2202 10.02L13.9702 7.76997C13.7902 7.59997 13.5503 7.49997 13.3003 7.49997Z" fill="white"/> <path d="M7.48972 17.26C7.29972 17.26 7.10969 17.19 6.95969 17.04C6.66969 16.75 6.66969 16.27 6.95969 15.98L9.12973 13.81C9.41973 13.52 9.89967 13.52 10.1897 13.81C10.4797 14.1 10.4797 14.58 10.1897 14.87L8.01975 17.04C7.86975 17.19 7.67972 17.26 7.48972 17.26Z" fill="white"/> </g> <defs> <clipPath id="clip0_4482_3094"> <rect width="24" height="24" fill="white"/> </clipPath> </defs> </svg>
