<svg width="24" height="24" viewBox="0 0 24 24" fill="none" xmlns="http://www.w3.org/2000/svg"> <g clip-path="url(#clip0_4482_3131)"> <path d="M9.24966 16.56C8.77966 16.56 8.31963 16.37 7.96963 16.03C7.50963 15.58 7.33965 14.93 7.48965 14.31L8.56973 9.91002C8.72973 9.25002 9.23957 8.74002 9.89957 8.58002L14.2997 7.50001C14.9297 7.34001 15.5697 7.53001 16.0197 7.98001C16.4697 8.44001 16.6497 9.08001 16.4997 9.70001L15.4196 14.1C15.2596 14.76 14.7498 15.27 14.0898 15.43L9.6896 16.51C9.5496 16.55 9.39966 16.56 9.24966 16.56ZM14.7497 8.94002C14.7197 8.94002 14.6996 8.94001 14.6696 8.95001L10.2697 10.03C10.1497 10.06 10.0597 10.15 10.0397 10.26L8.95962 14.66C8.91962 14.81 8.9997 14.92 9.0397 14.96C9.0897 15.01 9.18975 15.09 9.33975 15.04L13.7397 13.96C13.8597 13.93 13.9496 13.84 13.9696 13.73L15.0497 9.33002C15.0897 9.18002 15.0096 9.07001 14.9696 9.03001C14.9296 8.99001 14.8597 8.94002 14.7497 8.94002Z" fill="white"/> <path d="M12 22.75C6.07 22.75 1.25 17.93 1.25 12C1.25 6.07 6.07 1.25 12 1.25C17.93 1.25 22.75 6.07 22.75 12C22.75 17.93 17.93 22.75 12 22.75ZM12 2.75C6.9 2.75 2.75 6.9 2.75 12C2.75 17.1 6.9 21.25 12 21.25C17.1 21.25 21.25 17.1 21.25 12C21.25 6.9 17.1 2.75 12 2.75Z" fill="white"/> </g> <defs> <clipPath id="clip0_4482_3131"> <rect width="24" height="24" fill="white"/> </clipPath> </defs> </svg>
