<svg width="24" height="24" viewBox="0 0 24 24" fill="none" xmlns="http://www.w3.org/2000/svg"> <g clip-path="url(#clip0_4482_3109)"> <path d="M12 22.75C6.07 22.75 1.25 17.93 1.25 12C1.25 6.07 6.07 1.25 12 1.25C17.93 1.25 22.75 6.07 22.75 12C22.75 17.93 17.93 22.75 12 22.75ZM12 2.75C6.9 2.75 2.75 6.9 2.75 12C2.75 17.1 6.9 21.25 12 21.25C17.1 21.25 21.25 17.1 21.25 12C21.25 6.9 17.1 2.75 12 2.75Z" fill="white"/> <path d="M14.1399 10.21C13.9499 10.21 13.7598 10.14 13.6098 9.99002L11.9998 8.38002L10.3899 9.99002C10.0999 10.28 9.6198 10.28 9.3298 9.99002C9.0398 9.70002 9.0398 9.22001 9.3298 8.93001L11.4698 6.79001C11.7598 6.50001 12.2399 6.50001 12.5299 6.79001L14.6699 8.93001C14.9599 9.22001 14.9599 9.70002 14.6699 9.99002C14.5199 10.13 14.3299 10.21 14.1399 10.21Z" fill="white"/> <path d="M12 14.57C11.59 14.57 11.25 14.23 11.25 13.82V7.32001C11.25 6.91001 11.59 6.57001 12 6.57001C12.41 6.57001 12.75 6.91001 12.75 7.32001V13.82C12.75 14.24 12.41 14.57 12 14.57Z" fill="white"/> <path d="M15.5 17.43H8.5C8.09 17.43 7.75 17.09 7.75 16.68C7.75 16.27 8.09 15.93 8.5 15.93H15.5C15.91 15.93 16.25 16.27 16.25 16.68C16.25 17.09 15.91 17.43 15.5 17.43Z" fill="white"/> </g> <defs> <clipPath id="clip0_4482_3109"> <rect width="24" height="24" fill="white"/> </clipPath> </defs> </svg>
