<svg width="24" height="24" viewBox="0 0 24 24" fill="none" xmlns="http://www.w3.org/2000/svg"> <g clip-path="url(#clip0_4482_3502)"> <path d="M16.23 9.88965L13.23 7.55965C12.51 6.99965 11.5 6.99965 10.77 7.55965L7.76999 9.88965C7.27999 10.2697 7 10.8497 7 11.4697V15.0497C7 16.1497 7.9 17.0497 9 17.0497H15C16.1 17.0497 17 16.1497 17 15.0497V11.4697C17 10.8497 16.72 10.2697 16.23 9.88965Z" stroke="white" stroke-width="1.5"/> <path d="M12 22C6.5 22 2 17.5 2 12C2 6.5 6.5 2 12 2C17.5 2 22 6.5 22 12C22 17.5 17.5 22 12 22Z" stroke="white" stroke-width="1.5" stroke-linecap="round" stroke-linejoin="round"/> </g> <defs> <clipPath id="clip0_4482_3502"> <rect width="24" height="24" fill="white"/> </clipPath> </defs> </svg>
