<svg width="24" height="24" viewBox="0 0 24 24" fill="none" xmlns="http://www.w3.org/2000/svg"> <g clip-path="url(#clip0_2085_390283)"> <path d="M16.5401 22.1202H12.3201C11.9101 22.1202 11.5701 21.7802 11.5701 21.3702C11.5701 20.9602 11.9101 20.6202 12.3201 20.6202H16.5401C17.5101 20.6202 18.3501 20.6202 18.5301 20.5002C18.7301 20.3702 18.8001 20.2802 18.8501 20.0502C18.8901 19.8202 18.5701 18.9002 18.2001 17.8302C18.1401 17.6602 18.0901 17.5002 18.0501 17.3502C17.6504 15.9513 17.5496 13.991 17.5322 12.848C17.5307 12.7547 17.4549 12.6802 17.3616 12.6802H4.86012C3.35012 12.6802 2.12012 11.4502 2.12012 9.94021C2.12012 8.43021 3.35012 7.20021 4.86012 7.20021H8.16012C8.51012 7.20021 8.83012 7.06021 9.07012 6.80021C9.31012 6.54021 9.42012 6.21022 9.39012 5.86022L9.28012 4.53022C9.21012 3.69022 9.50012 2.85021 10.0701 2.22021C11.2201 0.970215 13.3901 0.970215 14.5401 2.22021C15.1101 2.84021 15.4001 3.68021 15.3301 4.53022L15.2201 5.86022C15.1901 6.21022 15.3001 6.54021 15.5401 6.80021C15.7801 7.06021 16.1001 7.20021 16.4501 7.20021H19.7501C21.2601 7.20021 22.4901 8.43021 22.4901 9.94021C22.4901 11.4502 21.2601 12.6802 19.7501 12.6802H19.1834C19.0882 12.6802 19.0116 12.7578 19.0138 12.853C19.0394 13.9231 19.1297 15.7186 19.4801 16.9402C19.5201 17.0702 19.5601 17.2002 19.6101 17.3402C20.1901 19.0102 20.4501 19.7702 20.3001 20.4102C20.1501 21.0102 19.8601 21.4302 19.3301 21.7702C18.7801 22.1302 18.0701 22.1302 16.5301 22.1302L16.5401 22.1202ZM4.86012 8.71021C4.18012 8.71021 3.62012 9.27021 3.62012 9.95021C3.62012 10.6302 4.18012 11.1902 4.86012 11.1902H19.7601C20.4401 11.1902 21.0001 10.6302 21.0001 9.95021C21.0001 9.27021 20.4401 8.71021 19.7601 8.71021H16.4601C15.7001 8.71021 14.9601 8.39021 14.4501 7.83021C13.9301 7.27021 13.6701 6.51021 13.7401 5.75021L13.8501 4.42021C13.8901 3.99021 13.7401 3.57021 13.4501 3.25021C12.8601 2.61021 11.7801 2.61021 11.1901 3.25021C10.9001 3.57021 10.7501 3.98021 10.7901 4.42021L10.9001 5.75021C10.9601 6.51021 10.7001 7.27021 10.1901 7.83021C9.67012 8.39021 8.94012 8.71021 8.17012 8.71021H4.87012H4.86012Z" fill="white"/> <path d="M5.6 22.75C5.25 22.75 4.92 22.48 4.84 22.13C4.56 20.75 3.49 19.68 2.12 19.4C1.77 19.33 1.5 18.99 1.5 18.64C1.5 18.29 1.78 17.95 2.13 17.88C3.5 17.6 4.57 16.53 4.85 15.16C4.92 14.82 5.26 14.54 5.61 14.54C5.96 14.54 6.29 14.81 6.37 15.15C6.65 16.54 7.72 17.61 9.09 17.89C9.44 17.96 9.71 18.3 9.71 18.65C9.71 19 9.43 19.34 9.08 19.41C7.71 19.69 6.64 20.76 6.36 22.13C6.29 22.48 5.95 22.75 5.59 22.75H5.6ZM4.27638 18.5545C4.21734 18.5958 4.21734 18.6843 4.27638 18.7256C4.76105 19.0647 5.18535 19.489 5.52442 19.9737C5.56572 20.0327 5.65428 20.0327 5.69558 19.9737C6.03465 19.489 6.45895 19.0647 6.94362 18.7256C7.00266 18.6843 7.00266 18.5958 6.94362 18.5545C6.45895 18.2154 6.03465 17.7911 5.69558 17.3064C5.65428 17.2474 5.56572 17.2474 5.52442 17.3064C5.18535 17.7911 4.76105 18.2154 4.27638 18.5545Z" fill="white"/> <path d="M10.7202 18.2499H10.7102C10.3602 18.2499 10.0502 17.9799 9.98023 17.6399C9.89023 17.1899 9.54024 16.8499 9.10023 16.7599C8.75023 16.6899 8.49023 16.3699 8.49023 16.0099C8.49023 15.6499 8.75023 15.3399 9.09023 15.2599C9.54023 15.1699 9.89023 14.8199 9.98023 14.3799C10.0502 14.0399 10.3602 13.7799 10.7102 13.7699C11.0802 13.7399 11.3802 14.0099 11.4702 14.3499C11.5702 14.8199 11.9102 15.1699 12.3602 15.2599C12.7102 15.3299 12.9702 15.6499 12.9702 16.0099C12.9702 16.3699 12.7102 16.6799 12.3702 16.7599C11.9202 16.8499 11.5702 17.1999 11.4802 17.6399C11.4102 17.9899 11.0902 18.2499 10.7302 18.2499H10.7202Z" fill="white"/> </g> <defs> <clipPath id="clip0_2085_390283"> <rect width="24" height="24" fill="white"/> </clipPath> </defs> </svg>
