<svg width="24" height="24" viewBox="0 0 24 24" fill="none" xmlns="http://www.w3.org/2000/svg"> <g clip-path="url(#clip0_2085_390527)"> <path d="M21 21.7502C20.89 21.7502 20.77 21.7202 20.67 21.6702C20.3 21.4802 20.15 21.0302 20.33 20.6602L20.91 19.5002C21.13 19.0502 21.25 18.5502 21.25 18.0502V11.4902C21.25 11.0802 20.91 10.7402 20.5 10.7402C20.09 10.7402 19.75 11.0802 19.75 11.4902V15.4902C19.75 15.9002 19.41 16.2402 19 16.2402C18.59 16.2402 18.25 15.9002 18.25 15.4902V11.4902C18.25 10.2502 19.26 9.24023 20.5 9.24023C21.74 9.24023 22.75 10.2502 22.75 11.4902V18.0502C22.75 18.7802 22.58 19.5202 22.25 20.1702L21.67 21.3302C21.54 21.5902 21.27 21.7402 21 21.7402V21.7502Z" fill="white"/> <path d="M14 21.7502C13.59 21.7502 13.25 21.4102 13.25 21.0002V18.4202C13.25 17.6102 13.52 16.8102 14 16.1702L15.48 14.2002C15.89 13.6502 16.52 13.3002 17.21 13.2602C17.89 13.2102 18.57 13.4602 19.06 13.9502C19.89 14.7802 19.99 16.1202 19.28 17.0502L18.23 18.4502C17.98 18.7802 17.51 18.8502 17.18 18.6002C16.85 18.3502 16.78 17.8802 17.03 17.5502L18.08 16.1502C18.34 15.8002 18.3 15.3102 18 15.0102C17.82 14.8302 17.58 14.7402 17.32 14.7602C17.07 14.7802 16.84 14.9002 16.68 15.1102L15.2 17.0802C14.91 17.4702 14.75 17.9502 14.75 18.4302V21.0102C14.75 21.4202 14.41 21.7602 14 21.7602V21.7502Z" fill="white"/> <path d="M3 21.75C2.73 21.75 2.46 21.6 2.33 21.34L1.75 20.18C1.42 19.52 1.25 18.79 1.25 18.06V11.5C1.25 10.26 2.26 9.25 3.5 9.25C4.74 9.25 5.75 10.26 5.75 11.5V15.5C5.75 15.91 5.41 16.25 5 16.25C4.59 16.25 4.25 15.91 4.25 15.5V11.5C4.25 11.09 3.91 10.75 3.5 10.75C3.09 10.75 2.75 11.09 2.75 11.5V18.06C2.75 18.56 2.87 19.06 3.09 19.51L3.67 20.67C3.86 21.04 3.71 21.49 3.33 21.68C3.22 21.73 3.11 21.76 3 21.76V21.75Z" fill="white"/> <path d="M10.0001 21.7504C9.59012 21.7504 9.25012 21.4104 9.25012 21.0004V18.4204C9.25012 17.9404 9.09012 17.4604 8.80012 17.0704L7.32012 15.1004C7.17012 14.9004 6.94012 14.7704 6.68012 14.7504C6.42012 14.7304 6.18012 14.8304 6.00012 15.0004C5.70012 15.3104 5.66012 15.8004 5.92012 16.1404L6.97012 17.5404C7.22012 17.8704 7.15012 18.3404 6.82012 18.5904C6.49012 18.8404 6.02012 18.7704 5.77012 18.4404L4.72012 17.0404C4.02012 16.1004 4.11012 14.7704 4.94012 13.9404C5.43012 13.4504 6.09012 13.2004 6.79012 13.2504C7.48012 13.3004 8.11012 13.6404 8.52012 14.1904L10.0001 16.1604C10.4801 16.8004 10.7501 17.6004 10.7501 18.4104V20.9904C10.7501 21.4004 10.4101 21.7404 10.0001 21.7404V21.7504Z" fill="white"/> <path d="M10.4999 12.2504C10.3099 12.2504 10.1199 12.1804 9.96994 12.0304L7.96994 10.0304C7.67994 9.74043 7.67994 9.26043 7.96994 8.97043L9.96994 6.97043C10.2599 6.68043 10.7399 6.68043 11.0299 6.97043C11.3199 7.26043 11.3199 7.74043 11.0299 8.03043L9.55994 9.50043L11.0299 10.9704C11.3199 11.2604 11.3199 11.7404 11.0299 12.0304C10.8799 12.1804 10.6899 12.2504 10.4999 12.2504Z" fill="white"/> <path d="M13.4999 12.2504C13.3099 12.2504 13.1199 12.1804 12.9699 12.0304C12.6799 11.7404 12.6799 11.2604 12.9699 10.9704L14.4399 9.50043L12.9699 8.03043C12.6799 7.74043 12.6799 7.26043 12.9699 6.97043C13.2599 6.68043 13.7399 6.68043 14.0299 6.97043L16.0299 8.97043C16.3199 9.26043 16.3199 9.74043 16.0299 10.0304L14.0299 12.0304C13.8799 12.1804 13.6899 12.2504 13.4999 12.2504Z" fill="white"/> <path d="M20 7.75C19.59 7.75 19.25 7.41 19.25 7C19.25 5.21 17.79 3.75 16 3.75H8C6.21 3.75 4.75 5.21 4.75 7C4.75 7.41 4.41 7.75 4 7.75C3.59 7.75 3.25 7.41 3.25 7C3.25 4.38 5.38 2.25 8 2.25H16C18.62 2.25 20.75 4.38 20.75 7C20.75 7.41 20.41 7.75 20 7.75Z" fill="white"/> </g> <defs> <clipPath id="clip0_2085_390527"> <rect width="24" height="24" fill="white"/> </clipPath> </defs> </svg>
