<svg width="24" height="24" viewBox="0 0 24 24" fill="none" xmlns="http://www.w3.org/2000/svg"> <g clip-path="url(#clip0_4482_15916)"> <path d="M15.3502 16.0504C14.2102 16.0504 13.0802 15.7904 12.0402 15.2704C9.5202 14.0104 7.9502 11.4704 7.9502 8.65037V4.27037C7.9502 3.38037 8.3302 2.54037 9.0102 1.97037C9.6902 1.39037 10.5802 1.15037 11.4602 1.30037C14.0402 1.77037 16.6602 1.77037 19.2402 1.30037C20.1202 1.14037 21.0202 1.39037 21.7002 1.97037C22.3802 2.55037 22.7702 3.39037 22.7602 4.28037V8.66037C22.7602 11.4804 21.1902 14.0204 18.6702 15.2804C17.6302 15.8004 16.5002 16.0604 15.3602 16.0604L15.3502 16.0504ZM10.9402 2.75037C10.5902 2.75037 10.2502 2.87037 9.9702 3.10037C9.6302 3.39037 9.4402 3.81037 9.4402 4.25037V8.64037C9.4402 10.8904 10.6902 12.9104 12.7002 13.9204C14.3502 14.7504 16.3302 14.7504 17.9802 13.9204C19.9902 12.9104 21.2402 10.8904 21.2402 8.64037V4.27037C21.2402 3.82037 21.0502 3.40037 20.7102 3.11037C20.3702 2.82037 19.9302 2.70037 19.4902 2.78037C16.7402 3.28037 13.9402 3.28037 11.1902 2.78037C11.1102 2.77037 11.0202 2.76037 10.9302 2.76037L10.9402 2.75037Z" fill="white"/> <path d="M10.36 18.8195C10.21 18.8195 10.06 18.7695 9.91996 18.6795C9.54996 18.4095 9.10996 18.2695 8.64996 18.2695C8.22996 18.2695 7.80996 18.4095 7.44996 18.6495C7.10996 18.8895 6.63996 18.7995 6.40996 18.4595C6.17996 18.1195 6.25996 17.6495 6.59996 17.4195C7.19996 16.9995 7.90996 16.7795 8.64996 16.7695C9.42996 16.7695 10.17 17.0195 10.79 17.4595C11.13 17.6995 11.2 18.1695 10.96 18.5095C10.81 18.7095 10.58 18.8195 10.35 18.8195H10.36Z" fill="white"/> <path d="M7.02992 14.0801H5.91992C5.50992 14.0801 5.16992 13.7401 5.16992 13.3301C5.16992 12.9201 5.50992 12.5801 5.91992 12.5801H7.02992C7.43992 12.5801 7.77992 12.9201 7.77992 13.3301C7.77992 13.7401 7.43992 14.0801 7.02992 14.0801Z" fill="white"/> <path d="M13.6803 7.17969H12.5703C12.1603 7.17969 11.8203 6.83969 11.8203 6.42969C11.8203 6.01969 12.1603 5.67969 12.5703 5.67969H13.6803C14.0903 5.67969 14.4303 6.01969 14.4303 6.42969C14.4303 6.83969 14.0903 7.17969 13.6803 7.17969Z" fill="white"/> <path d="M18.1198 7.17969H17.0098C16.5998 7.17969 16.2598 6.83969 16.2598 6.42969C16.2598 6.01969 16.5998 5.67969 17.0098 5.67969H18.1198C18.5298 5.67969 18.8698 6.01969 18.8698 6.42969C18.8698 6.83969 18.5298 7.17969 18.1198 7.17969Z" fill="white"/> <path d="M15.3902 12.1699C14.6102 12.1699 13.8702 11.9199 13.2502 11.4799C12.9102 11.2399 12.8402 10.7699 13.0802 10.4299C13.3202 10.0899 13.7902 10.0199 14.1302 10.2599C14.5002 10.5299 14.9402 10.6699 15.4002 10.6699C15.8202 10.6699 16.2402 10.5299 16.6002 10.2899C16.9402 10.0599 17.4102 10.1399 17.6402 10.4799C17.8702 10.8199 17.7902 11.2899 17.4502 11.5199C16.8402 11.9399 16.1402 12.1599 15.4002 12.1699H15.3902Z" fill="white"/> <path d="M8.69004 22.6999C7.55004 22.6999 6.42004 22.4399 5.38004 21.9199C2.86004 20.6599 1.29004 18.1199 1.29004 15.2999V10.9199C1.29004 10.0399 1.67004 9.18988 2.35004 8.61988C3.03004 8.03988 3.92004 7.79988 4.80004 7.94988C6.09004 8.18988 7.38004 8.29988 8.69004 8.29988C9.10004 8.29988 9.44004 8.62988 9.44004 9.04988C9.44004 9.45988 9.11004 9.79988 8.69004 9.79988C7.30004 9.77988 5.90004 9.67988 4.53004 9.42988C4.10004 9.34988 3.65004 9.47988 3.31004 9.76988C2.97004 10.0599 2.78004 10.4799 2.78004 10.9299V15.3099C2.78004 17.5599 4.03004 19.5799 6.04004 20.5899C7.69004 21.4199 9.67004 21.4199 11.32 20.5899C13.33 19.5799 14.58 17.5599 14.58 15.3099C14.58 14.8999 14.92 14.5599 15.33 14.5599C15.74 14.5599 16.08 14.8999 16.08 15.3099C16.08 18.1299 14.51 20.6699 11.99 21.9299C10.95 22.4499 9.82004 22.7099 8.68004 22.7099L8.69004 22.6999Z" fill="white"/> </g> <defs> <clipPath id="clip0_4482_15916"> <rect width="24" height="24" fill="white"/> </clipPath> </defs> </svg>
