<svg width="24" height="24" viewBox="0 0 24 24" fill="none" xmlns="http://www.w3.org/2000/svg"> <g clip-path="url(#clip0_2085_390814)"> <path d="M8.15008 5.93062C7.93008 5.93062 7.71008 5.85063 7.54008 5.68062L5.07008 3.21063L2.60008 5.68062C2.26008 6.01062 1.72008 6.01062 1.39008 5.68062C1.06008 5.35063 1.06008 4.80062 1.39008 4.47062L4.47008 1.39062C4.63008 1.23063 4.85008 1.14062 5.08008 1.14062C5.31008 1.14062 5.53008 1.23063 5.69008 1.39062L8.77008 4.47062C9.10008 4.80062 9.10008 5.35063 8.77008 5.68062C8.60008 5.85063 8.38008 5.93062 8.16008 5.93062H8.15008Z" fill="white"/> <path d="M22 19.7806H6.61998C5.98998 19.7806 5.36998 19.5206 4.92998 19.0806C4.47998 18.6306 4.22998 18.0306 4.22998 17.3906V2.00063C4.22998 1.53063 4.60998 1.14062 5.08998 1.14062C5.56998 1.14062 5.94998 1.52063 5.94998 2.00063V17.3806C5.94998 17.5606 6.01998 17.7306 6.14998 17.8606C6.27998 17.9906 6.44998 18.0606 6.62998 18.0606H22.01C22.48 18.0606 22.87 18.4406 22.87 18.9206C22.87 19.4006 22.49 19.7806 22.01 19.7806H22Z" fill="white"/> <path d="M18.92 22.8595C18.7 22.8595 18.48 22.7795 18.31 22.6095C17.98 22.2795 17.98 21.7295 18.31 21.3995L20.78 18.9295L18.31 16.4595C17.98 16.1295 17.98 15.5795 18.31 15.2495C18.65 14.9195 19.19 14.9195 19.52 15.2495L22.6 18.3295C22.93 18.6595 22.93 19.2095 22.6 19.5395L19.52 22.6195C19.35 22.7895 19.13 22.8695 18.91 22.8695L18.92 22.8595Z" fill="white"/> </g> <defs> <clipPath id="clip0_2085_390814"> <rect width="24" height="24" fill="white"/> </clipPath> </defs> </svg>
