<svg width="24" height="24" viewBox="0 0 24 24" fill="none" xmlns="http://www.w3.org/2000/svg"> <g clip-path="url(#clip0_4482_15919)"> <path d="M11.9997 22.75C10.8097 22.75 9.70969 22.21 8.99969 21.26L3.74969 14.26C2.73969 12.91 2.73969 11.1 3.74969 9.76L8.99969 2.77C9.70969 1.81 10.8097 1.25 11.9997 1.25C13.1897 1.25 14.2897 1.8 14.9997 2.77L20.2497 9.76C21.2597 11.11 21.2597 12.92 20.2497 14.26L14.9997 21.25C14.2797 22.2 13.1897 22.74 11.9997 22.74V22.75ZM11.9997 2.75C11.2897 2.75 10.6297 3.08 10.1997 3.66L4.94969 10.66C4.33969 11.47 4.33969 12.55 4.94969 13.36L10.1997 20.35C10.6297 20.92 11.2797 21.24 11.9997 21.24C12.7197 21.24 13.3697 20.91 13.7997 20.34L19.0497 13.35C19.6597 12.54 19.6597 11.46 19.0497 10.65L13.7997 3.67C13.3697 3.09 12.7097 2.75 11.9997 2.75Z" fill="white"/> </g> <defs> <clipPath id="clip0_4482_15919"> <rect width="24" height="24" fill="white"/> </clipPath> </defs> </svg>
