<svg width="24" height="24" viewBox="0 0 24 24" fill="none" xmlns="http://www.w3.org/2000/svg"> <g clip-path="url(#clip0_2085_385959)"> <path d="M15.7499 10.9998H8.24988C7.69988 10.9998 7.12988 10.6098 7.12988 9.87977V4.62977C7.12988 4.07977 7.51988 3.50977 8.24988 3.50977H15.7499C16.2999 3.50977 16.8699 3.89977 16.8699 4.62977V9.87977C16.8699 10.4298 16.4799 10.9998 15.7499 10.9998ZM8.61988 9.22977C8.61988 9.37888 8.74077 9.49977 8.88988 9.49977H15.0999C15.249 9.49977 15.3699 9.37888 15.3699 9.22977V5.26977C15.3699 5.12065 15.249 4.99977 15.0999 4.99977H8.88988C8.74077 4.99977 8.61988 5.12065 8.61988 5.26977V9.22977Z" fill="white"/> <path d="M16.78 22.75H7.21998C6.21998 22.75 4.72998 22.09 4.72998 20.26V3.74C4.72998 2.74 5.38998 1.25 7.21998 1.25H16.79C17.79 1.25 19.28 1.91 19.28 3.74V20.26C19.28 21.26 18.62 22.75 16.79 22.75H16.78ZM16.78 2.75H7.21998C6.34998 2.75 6.23998 3.45 6.22998 3.75V20.26C6.22998 21.13 6.92998 21.24 7.22998 21.25H16.79C17.66 21.25 17.77 20.55 17.78 20.25V3.74C17.78 2.87 17.08 2.76 16.78 2.75Z" fill="white"/> <path d="M12 20.7499C10.79 20.7499 9.64996 20.2799 8.78996 19.4199C7.92996 18.5599 7.45996 17.4199 7.45996 16.2099C7.45996 14.9999 7.93996 13.8499 8.78996 12.9999C9.64996 12.1399 10.78 11.6699 12 11.6699C13.22 11.6699 14.35 12.1399 15.21 12.9999C16.05 13.8399 16.54 15.0099 16.54 16.2099C16.54 17.4099 16.07 18.5599 15.21 19.4199C14.35 20.2799 13.22 20.7499 12 20.7499ZM12 13.1799C11.19 13.1799 10.43 13.4999 9.85996 14.0699C9.29996 14.6299 8.96996 15.4199 8.96996 16.2099C8.96996 16.9999 9.28996 17.7799 9.85996 18.3499C11.01 19.4899 13 19.4899 14.15 18.3499C14.72 17.7799 15.04 17.0199 15.04 16.2099C15.04 15.3999 14.72 14.6299 14.15 14.0699C13.58 13.4999 12.82 13.1799 12.01 13.1799H12Z" fill="white"/> <path d="M11.9999 18.5598C11.3699 18.5598 10.7799 18.3198 10.3399 17.8698C9.8999 17.4298 9.6499 16.8298 9.6499 16.2098C9.6499 15.5898 9.8899 14.9898 10.3399 14.5498C11.2199 13.6698 12.7799 13.6798 13.6599 14.5498C14.0999 14.9998 14.3499 15.5798 14.3499 16.2098C14.3499 16.8398 14.0999 17.4298 13.6599 17.8698C13.2199 18.3098 12.6299 18.5598 11.9999 18.5598ZM11.9999 15.3698C11.7799 15.3698 11.5599 15.4598 11.3999 15.6198C11.2399 15.7798 11.1499 15.9898 11.1499 16.2198C11.1499 16.4498 11.2399 16.6598 11.3999 16.8198C11.7199 17.1398 12.2799 17.1398 12.5999 16.8198C12.7599 16.6598 12.8499 16.4398 12.8499 16.2198C12.8499 15.9998 12.7599 15.7798 12.5999 15.6198C12.4399 15.4598 12.2199 15.3698 11.9999 15.3698Z" fill="white"/> </g> <defs> <clipPath id="clip0_2085_385959"> <rect width="24" height="24" fill="white"/> </clipPath> </defs> </svg>
