<svg width="24" height="24" viewBox="0 0 24 24" fill="none" xmlns="http://www.w3.org/2000/svg"> <g clip-path="url(#clip0_4482_11819)"> <path d="M12.0099 18C10.1899 17.99 8.40986 17.63 6.71986 16.94C6.33986 16.78 6.14987 16.35 6.30987 15.96C6.46987 15.57 6.89987 15.39 7.28987 15.55C8.79987 16.17 10.3899 16.49 12.0099 16.49C13.6199 16.49 15.2099 16.16 16.7199 15.55C17.1099 15.39 17.5399 15.58 17.6999 15.96C17.8599 16.34 17.6699 16.78 17.2899 16.94C15.5999 17.63 13.8299 17.99 12.0099 18Z" fill="white"/> <path d="M15.3398 13.9199C14.0998 13.9199 13.0898 12.7999 13.0898 11.4199C13.0898 10.0399 14.0998 8.91992 15.3398 8.91992C16.5798 8.91992 17.5898 10.0399 17.5898 11.4199C17.5898 12.7999 16.5798 13.9199 15.3398 13.9199ZM15.3398 10.4199C14.9298 10.4199 14.5898 10.8799 14.5898 11.4199C14.5898 11.9599 14.9298 12.4199 15.3398 12.4199C15.7498 12.4199 16.0898 11.9599 16.0898 11.4199C16.0898 10.8799 15.7498 10.4199 15.3398 10.4199Z" fill="white"/> <path d="M8.67969 13.9199C7.43969 13.9199 6.42969 12.7999 6.42969 11.4199C6.42969 10.0399 7.43969 8.91992 8.67969 8.91992C9.91969 8.91992 10.9297 10.0399 10.9297 11.4199C10.9297 12.7999 9.91969 13.9199 8.67969 13.9199ZM8.67969 10.4199C8.26969 10.4199 7.92969 10.8799 7.92969 11.4199C7.92969 11.9599 8.26969 12.4199 8.67969 12.4199C9.08969 12.4199 9.42969 11.9599 9.42969 11.4199C9.42969 10.8799 9.08969 10.4199 8.67969 10.4199Z" fill="white"/> <path d="M6.62989 20.4998C6.54989 20.4998 6.47989 20.4898 6.39989 20.4598C4.74989 19.9398 3.19989 19.1898 1.77989 18.2498C1.59989 18.1298 1.48989 17.9498 1.44989 17.7398C0.779892 13.3298 1.75989 8.82982 4.18989 5.08982C4.26989 4.96982 4.37989 4.86982 4.50989 4.80982C5.88989 4.19982 7.34989 3.75982 8.85989 3.50982C9.22989 3.44982 9.58989 3.66982 9.69989 4.02982C9.74989 4.17982 9.78989 4.32982 9.82989 4.47982C10.5199 4.39982 11.2199 4.34982 11.9799 4.33982C12.6999 4.33982 13.4199 4.38982 14.1499 4.47982C14.1899 4.32982 14.2299 4.18982 14.2699 4.04982C14.3699 3.67982 14.7499 3.44982 15.1099 3.51982C16.6099 3.76982 18.0699 4.20982 19.4599 4.81982C19.5899 4.87982 19.7099 4.97982 19.7899 5.09982C22.2299 8.84982 23.1999 13.3498 22.5299 17.7498C22.4999 17.9598 22.3799 18.1498 22.1999 18.2598C20.7899 19.1998 19.2399 19.9398 17.5799 20.4698C17.2599 20.5698 16.9199 20.4498 16.7299 20.1798C16.0599 19.1898 15.4799 18.1298 14.9799 17.0098C14.8099 16.6298 14.9799 16.1898 15.3599 16.0198C15.7399 15.8498 16.1799 16.0198 16.3499 16.3998C16.7299 17.2598 17.1599 18.0798 17.6499 18.8598C18.8599 18.4298 20.0099 17.8698 21.0699 17.1898C21.5799 13.3298 20.7099 9.40982 18.6299 6.09982C17.6299 5.66982 16.5799 5.33982 15.5199 5.11982C15.4899 5.23982 15.4599 5.35982 15.4399 5.48982C15.3599 5.87982 14.9799 6.13982 14.5799 6.06982C13.6999 5.91982 12.8299 5.84982 11.9699 5.84982C11.0399 5.85982 10.1899 5.92982 9.35989 6.06982C8.96989 6.12982 8.58989 5.87982 8.50989 5.48982C8.47989 5.36982 8.45989 5.23982 8.42989 5.11982C7.35989 5.33982 6.30989 5.66982 5.30989 6.09982C3.21989 9.39982 2.35989 13.3198 2.86989 17.1898C3.93989 17.8698 5.08989 18.4298 6.29989 18.8598C6.80989 18.0598 7.24989 17.2398 7.59989 16.4098C7.75989 16.0298 8.19989 15.8498 8.58989 16.0198C8.96989 16.1798 9.14989 16.6198 8.97989 17.0098C8.51989 18.0898 7.92989 19.1498 7.22989 20.1798C7.08989 20.3898 6.84989 20.5098 6.60989 20.5098L6.62989 20.4998Z" fill="white"/> </g> <defs> <clipPath id="clip0_4482_11819"> <rect width="24" height="24" fill="white"/> </clipPath> </defs> </svg>
