<svg width="24" height="24" viewBox="0 0 24 24" fill="none" xmlns="http://www.w3.org/2000/svg"> <g clip-path="url(#clip0_2085_390749)"> <path d="M21.9998 13.1895C21.5898 13.1895 21.2498 12.8495 21.2498 12.4395C21.2498 7.33945 17.0998 3.18945 11.9998 3.18945C7.27978 3.18945 3.32978 6.70945 2.80978 11.3995C2.79978 11.4995 2.84978 11.5695 2.87978 11.5995C2.90978 11.6295 2.96978 11.6895 3.06978 11.6895H9.09978C9.50978 11.6895 9.84978 12.0295 9.84978 12.4395C9.84978 12.8495 9.50978 13.1895 9.09978 13.1895H3.05978C2.55978 13.1895 2.08978 12.9795 1.74978 12.5995C1.41978 12.2295 1.25978 11.7295 1.30978 11.2295C1.92978 5.78945 6.51978 1.68945 11.9998 1.68945C17.9298 1.68945 22.7498 6.50945 22.7498 12.4395C22.7498 12.8495 22.4098 13.1895 21.9998 13.1895Z" fill="white"/> <path d="M11.9996 16.0891C9.97961 16.0891 8.34961 14.4491 8.34961 12.4391C8.34961 10.4291 9.98961 8.78906 11.9996 8.78906C14.0096 8.78906 15.6496 10.4291 15.6496 12.4391C15.6496 14.4491 14.0096 16.0891 11.9996 16.0891ZM11.9996 10.2791C10.8096 10.2791 9.84961 11.2491 9.84961 12.4291C9.84961 13.6091 10.8196 14.5791 11.9996 14.5791C13.1796 14.5791 14.1496 13.6091 14.1496 12.4291C14.1496 11.2491 13.1796 10.2791 11.9996 10.2791Z" fill="white"/> <path d="M18.2697 22.3097C17.1697 22.3097 16.2797 21.4197 16.2797 20.3097V14.0897C16.2797 13.5897 15.8697 13.1797 15.3697 13.1797H14.9097C14.4997 13.1797 14.1597 12.8397 14.1597 12.4297C14.1597 12.0197 14.4997 11.6797 14.9097 11.6797H15.3697C16.6997 11.6797 17.7797 12.7597 17.7797 14.0897V20.3097C17.7797 20.5797 17.9997 20.8097 18.2697 20.8097C18.5397 20.8097 18.7697 20.5897 18.7697 20.3097V15.7497C18.7697 15.3397 19.1097 14.9997 19.5197 14.9997C19.9297 14.9997 20.2697 15.3397 20.2697 15.7497C20.2697 16.0197 20.4897 16.2497 20.7597 16.2497C21.0297 16.2497 21.2497 16.0297 21.2497 15.7497V12.4297C21.2497 12.0197 21.5897 11.6797 21.9997 11.6797C22.4097 11.6797 22.7497 12.0197 22.7497 12.4297V15.7497C22.7497 16.8497 21.8497 17.7497 20.7597 17.7497C20.5897 17.7497 20.4197 17.7297 20.2697 17.6897V20.3197C20.2697 21.4197 19.3697 22.3197 18.2697 22.3197V22.3097Z" fill="white"/> <path d="M11.9996 22.3097C6.54963 22.3097 2.11963 17.8797 2.11963 12.4297C2.11963 12.0197 2.45963 11.6797 2.86963 11.6797C3.27963 11.6797 3.61963 12.0197 3.61963 12.4297C3.61963 17.0497 7.37963 20.8097 11.9996 20.8097C13.6496 20.8097 15.2396 20.3297 16.6096 19.4297C16.9496 19.1997 17.4196 19.2997 17.6496 19.6397C17.8796 19.9897 17.7796 20.4497 17.4396 20.6797C15.8196 21.7497 13.9496 22.3097 12.0096 22.3097H11.9996Z" fill="white"/> <path d="M12 6.95898C11.59 6.95898 11.25 6.61898 11.25 6.20898V4.95898C11.25 4.54898 11.59 4.20898 12 4.20898C12.41 4.20898 12.75 4.54898 12.75 4.95898V6.20898C12.75 6.61898 12.41 6.95898 12 6.95898Z" fill="white"/> <path d="M14.73 7.99886C14.42 7.99886 14.14 7.80886 14.03 7.50886C13.89 7.11886 14.09 6.68886 14.48 6.54886L15.65 6.11886C16.04 5.97886 16.47 6.17886 16.61 6.56886C16.75 6.95886 16.55 7.38886 16.16 7.52886L14.99 7.95886C14.91 7.98886 14.82 7.99886 14.73 7.99886Z" fill="white"/> <path d="M18.6397 10.6998C18.4497 10.6998 18.2597 10.6298 18.1097 10.4798L17.2297 9.59977C16.9397 9.30977 16.9397 8.82977 17.2297 8.53977C17.5197 8.24977 17.9997 8.24977 18.2897 8.53977L19.1697 9.41977C19.4597 9.70977 19.4597 10.1898 19.1697 10.4798C19.0197 10.6298 18.8297 10.6998 18.6397 10.6998Z" fill="white"/> <path d="M19.1598 14.1397C19.0298 14.1397 18.8998 14.1097 18.7898 14.0397C18.4298 13.8297 18.3098 13.3697 18.5198 13.0197L19.1398 11.9397C19.3498 11.5797 19.8098 11.4597 20.1598 11.6697C20.5198 11.8797 20.6398 12.3397 20.4298 12.6897L19.8098 13.7697C19.6698 14.0097 19.4198 14.1497 19.1598 14.1497V14.1397Z" fill="white"/> <path d="M9.26986 7.99886C9.17986 7.99886 9.09986 7.98886 9.00986 7.95886L7.83986 7.52886C7.44986 7.38886 7.24986 6.95886 7.38986 6.56886C7.52986 6.17886 7.95986 5.97886 8.34986 6.11886L9.51986 6.54886C9.90986 6.68886 10.1099 7.11886 9.96986 7.50886C9.85986 7.80886 9.56986 7.99886 9.26986 7.99886Z" fill="white"/> <path d="M5.3598 10.6998C5.1698 10.6998 4.9798 10.6298 4.8298 10.4798C4.5398 10.1898 4.5398 9.70977 4.8298 9.41977L5.7098 8.53977C5.9998 8.24977 6.4798 8.24977 6.7698 8.53977C7.0598 8.82977 7.0598 9.30977 6.7698 9.59977L5.8898 10.4798C5.7398 10.6298 5.5498 10.6998 5.3598 10.6998Z" fill="white"/> </g> <defs> <clipPath id="clip0_2085_390749"> <rect width="24" height="24" fill="white"/> </clipPath> </defs> </svg>
