<svg width="24" height="24" viewBox="0 0 24 24" fill="none" xmlns="http://www.w3.org/2000/svg"> <g clip-path="url(#clip0_4482_9699)"> <path d="M12 9.41992H2C1.59 9.41992 1.25 9.07992 1.25 8.66992C1.25 8.25992 1.59 7.91992 2 7.91992H12C12.41 7.91992 12.75 8.25992 12.75 8.66992C12.75 9.07992 12.41 9.41992 12 9.41992Z" fill="white"/> <path d="M12 16.0801H2C1.59 16.0801 1.25 15.7401 1.25 15.3301C1.25 14.9201 1.59 14.5801 2 14.5801H12C12.41 14.5801 12.75 14.9201 12.75 15.3301C12.75 15.7401 12.41 16.0801 12 16.0801Z" fill="white"/> <path d="M15.3301 13.8599C14.9201 13.8599 14.5801 13.5199 14.5801 13.1099V10.8899C14.5801 10.4799 14.9201 10.1399 15.3301 10.1399C15.7401 10.1399 16.0801 10.4799 16.0801 10.8899V13.1099C16.0801 13.5199 15.7401 13.8599 15.3301 13.8599Z" fill="white"/> <path d="M18 22.75H6C3.38 22.75 1.25 20.62 1.25 18V6C1.25 3.38 3.38 1.25 6 1.25H18C20.62 1.25 22.75 3.38 22.75 6V18C22.75 20.62 20.62 22.75 18 22.75ZM6 2.75C4.21 2.75 2.75 4.21 2.75 6V18C2.75 19.79 4.21 21.25 6 21.25H18C19.79 21.25 21.25 19.79 21.25 18V6C21.25 4.21 19.79 2.75 18 2.75H6Z" fill="white"/> <path d="M12 22.75C11.59 22.75 11.25 22.41 11.25 22V2C11.25 1.59 11.59 1.25 12 1.25C12.41 1.25 12.75 1.59 12.75 2V22C12.75 22.41 12.41 22.75 12 22.75Z" fill="white"/> </g> <defs> <clipPath id="clip0_4482_9699"> <rect width="24" height="24" fill="white"/> </clipPath> </defs> </svg>
