<svg width="24" height="24" viewBox="0 0 24 24" fill="none" xmlns="http://www.w3.org/2000/svg"> <g clip-path="url(#clip0_4482_3535)"> <path d="M16 22.75H8C4.83 22.75 2.25 20.17 2.25 17V12C2.25 8.83 4.83 6.25 8 6.25H16C19.17 6.25 21.75 8.83 21.75 12V17C21.75 20.17 19.17 22.75 16 22.75ZM8 7.75C5.66 7.75 3.75 9.66 3.75 12V17C3.75 19.34 5.66 21.25 8 21.25H16C18.34 21.25 20.25 19.34 20.25 17V12C20.25 9.66 18.34 7.75 16 7.75H8Z" fill="white"/> <path d="M15.8401 8.75C15.4301 8.75 15.0901 8.41 15.0901 8V5.84C15.0901 4.14 13.7102 2.75 12.0002 2.75C10.2902 2.75 8.91016 4.13 8.91016 5.84V8C8.91016 8.41 8.57016 8.75 8.16016 8.75C7.75016 8.75 7.41016 8.41 7.41016 8V5.84C7.41016 3.31 9.47015 1.25 12.0002 1.25C14.5302 1.25 16.5901 3.31 16.5901 5.84V8C16.5901 8.41 16.2501 8.75 15.8401 8.75Z" fill="white"/> <path d="M12 15.8799C11.59 15.8799 11.25 15.5399 11.25 15.1299V11.3799C11.25 10.9699 11.59 10.6299 12 10.6299C12.41 10.6299 12.75 10.9699 12.75 11.3799V15.1299C12.75 15.5399 12.41 15.8799 12 15.8799Z" fill="white"/> <path d="M12 18.3699C11.59 18.3699 11.25 18.0399 11.25 17.6299V17.6099C11.25 17.1999 11.59 16.8599 12 16.8599C12.41 16.8599 12.75 17.1999 12.75 17.6099C12.75 18.0199 12.41 18.3699 12 18.3699Z" fill="white"/> </g> <defs> <clipPath id="clip0_4482_3535"> <rect width="24" height="24" fill="white"/> </clipPath> </defs> </svg>
