<svg width="24" height="24" viewBox="0 0 24 24" fill="none" xmlns="http://www.w3.org/2000/svg"> <g clip-path="url(#clip0_4482_10952)"> <path d="M20.1804 23.1498H6.90039C6.49039 23.1498 6.15039 22.8098 6.15039 22.3998V12.6398C6.15039 11.9098 6.61039 11.2398 7.30039 10.9798L11.0204 9.57984C11.8804 9.25984 12.8404 9.37984 13.5904 9.89984C13.9804 10.1698 14.2904 10.5398 14.5004 10.9498L18.1604 9.57984C19.0204 9.25984 19.9804 9.37984 20.7304 9.89984C21.4804 10.4198 21.9304 11.2798 21.9304 12.1898V21.3898C21.9304 22.3498 21.1404 23.1398 20.1804 23.1398V23.1498ZM14.7904 21.6498H20.1804C20.3204 21.6498 20.4304 21.5398 20.4304 21.3998V12.1998C20.4304 11.7798 20.2204 11.3798 19.8804 11.1398C19.5304 10.8998 19.0904 10.8398 18.6904 10.9898L14.9704 12.3898C14.8604 12.4298 14.7904 12.5298 14.7904 12.6398V21.6498ZM7.65039 21.6498H13.2904V12.1998C13.2904 11.7798 13.0804 11.3798 12.7304 11.1398C12.3804 10.8998 11.9404 10.8398 11.5404 10.9898L7.82039 12.3898C7.71039 12.4298 7.64039 12.5298 7.64039 12.6398V21.6498H7.65039Z" fill="white"/> <path d="M6.90031 23.1501H3.82031C2.86031 23.1501 2.07031 22.3601 2.07031 21.4001V9.1401C2.07031 7.6001 3.32031 6.3501 4.86031 6.3501C6.40031 6.3501 7.65031 7.6001 7.65031 9.1401V22.4001C7.65031 22.8101 7.31031 23.1501 6.90031 23.1501ZM4.86031 7.8501C4.15031 7.8501 3.57031 8.4301 3.57031 9.1401V21.4001C3.57031 21.5401 3.68031 21.6501 3.82031 21.6501H6.15031V9.1401C6.15031 8.4301 5.57031 7.8501 4.86031 7.8501Z" fill="white"/> <path d="M4.86035 4.79C4.45035 4.79 4.11035 4.45 4.11035 4.04C4.11035 2.5 5.36035 1.25 6.90035 1.25H9.96035C10.3704 1.25 10.7104 1.59 10.7104 2C10.7104 2.41 10.3704 2.75 9.96035 2.75H6.90035C6.19035 2.75 5.61035 3.33 5.61035 4.04C5.61035 4.45 5.27035 4.79 4.86035 4.79Z" fill="white"/> </g> <defs> <clipPath id="clip0_4482_10952"> <rect width="24" height="24" fill="white"/> </clipPath> </defs> </svg>
