<svg width="24" height="24" viewBox="0 0 24 24" fill="none" xmlns="http://www.w3.org/2000/svg"> <g clip-path="url(#clip0_4482_7867)"> <path d="M12 22.75C6.07 22.75 1.25 17.93 1.25 12C1.25 6.07 6.07 1.25 12 1.25C17.93 1.25 22.75 6.07 22.75 12C22.75 17.93 17.93 22.75 12 22.75ZM12 2.75C6.9 2.75 2.75 6.9 2.75 12C2.75 17.1 6.9 21.25 12 21.25C17.1 21.25 21.25 17.1 21.25 12C21.25 6.9 17.1 2.75 12 2.75Z" fill="white"/> <path d="M14.2803 17.32C13.9903 17.32 13.7003 17.25 13.4403 17.11L12.1403 16.43C12.0503 16.38 11.9503 16.38 11.8603 16.43L10.5603 17.11C9.95034 17.43 9.22034 17.38 8.66034 16.97C8.10034 16.56 7.83034 15.89 7.94034 15.21L8.19034 13.77C8.21034 13.67 8.17034 13.57 8.10034 13.5L7.05034 12.48C6.56034 12 6.38034 11.29 6.59034 10.63C6.80034 9.96995 7.36034 9.49995 8.05034 9.39995L9.50034 9.18995C9.60034 9.17995 9.68034 9.10995 9.73034 9.01995L10.3803 7.70995C10.6803 7.08995 11.3003 6.69995 12.0003 6.69995C12.7003 6.69995 13.3103 7.08995 13.6203 7.70995L14.2703 9.01995C14.3103 9.10995 14.4003 9.16995 14.5003 9.18995L15.9503 9.39995C16.6403 9.49995 17.1903 9.96995 17.4103 10.63C17.6203 11.29 17.4503 11.99 16.9503 12.48L15.9003 13.5C15.8303 13.57 15.8003 13.67 15.8103 13.77L16.0603 15.21C16.1803 15.89 15.9003 16.57 15.3403 16.97C15.0303 17.2 14.6603 17.32 14.2803 17.32ZM12.0003 14.89C12.2903 14.89 12.5803 14.96 12.8403 15.1L14.1403 15.78C14.2403 15.83 14.3603 15.83 14.4603 15.76C14.5503 15.69 14.6003 15.58 14.5803 15.46L14.3303 14.02C14.2303 13.44 14.4203 12.84 14.8503 12.42L15.9003 11.4C15.9803 11.32 16.0103 11.2 15.9803 11.09C15.9403 10.98 15.8503 10.9 15.7303 10.88L14.2803 10.67C13.6903 10.59 13.1803 10.22 12.9203 9.68995L12.2703 8.36995C12.1703 8.15995 11.8303 8.15995 11.7303 8.36995L11.0803 9.68995C10.8203 10.22 10.3103 10.59 9.72034 10.68L8.27034 10.89C8.16034 10.91 8.06034 10.99 8.02034 11.1C7.99034 11.21 8.02034 11.33 8.10034 11.41L9.15034 12.43C9.58034 12.85 9.77034 13.44 9.67034 14.03L9.42034 15.47C9.40034 15.58 9.45034 15.7 9.54034 15.76C9.63034 15.83 9.76034 15.84 9.86034 15.78L11.1603 15.1C11.4203 14.96 11.7103 14.89 12.0003 14.89Z" fill="white"/> </g> <defs> <clipPath id="clip0_4482_7867"> <rect width="24" height="24" fill="white"/> </clipPath> </defs> </svg>
