<svg width="24" height="24" viewBox="0 0 24 24" fill="none" xmlns="http://www.w3.org/2000/svg"> <g clip-path="url(#clip0_2085_390293)"> <path d="M18.2202 10.3298C17.8702 10.3298 17.5302 10.0398 17.4502 9.68976C17.1302 8.09976 15.8902 6.86977 14.3102 6.54977C13.9602 6.47977 13.6802 6.12977 13.6802 5.76977C13.6802 5.40977 13.9602 5.07977 14.3102 5.00977C15.8802 4.68977 17.1202 3.45977 17.4402 1.87977C17.5202 1.52977 17.8502 1.25977 18.2102 1.25977C18.5702 1.25977 18.9002 1.52977 18.9802 1.87977C19.3002 3.46977 20.5302 4.69977 22.1202 5.01977C22.4702 5.08977 22.7402 5.41977 22.7502 5.77977C22.7502 6.13977 22.4802 6.47977 22.1302 6.55977C20.5402 6.87977 19.3102 8.10977 18.9902 9.69977C18.9202 10.0498 18.5802 10.3298 18.2202 10.3298ZM16.5393 5.69212C16.4765 5.73307 16.4765 5.82646 16.5393 5.86741C17.1729 6.28058 17.7129 6.82799 18.1324 7.46284C18.1735 7.52503 18.2661 7.52459 18.3068 7.46211C18.7199 6.82704 19.2675 6.27951 19.9025 5.86637C19.965 5.82573 19.9654 5.73309 19.9033 5.692C19.2679 5.27215 18.7201 4.73168 18.3068 4.09739C18.2661 4.03494 18.1735 4.0345 18.1324 4.09669C17.7129 4.73154 17.1729 5.27895 16.5393 5.69212Z" fill="white"/> <path d="M18.22 22.75C17.81 22.75 17.47 22.41 17.47 22V20.12C17.47 20.0261 17.3939 19.95 17.3 19.95H5.72C5.62611 19.95 5.55 20.0261 5.55 20.12V22C5.55 22.41 5.21 22.75 4.8 22.75C4.39 22.75 4.05 22.41 4.05 22V20.12C4.05 20.0261 3.97389 19.95 3.88 19.95H2C1.59 19.95 1.25 19.61 1.25 19.2C1.25 18.79 1.59 18.45 2 18.45H3.88C3.97389 18.45 4.05 18.3739 4.05 18.28V6.69998C4.05 6.60609 3.97389 6.52998 3.88 6.52998H2C1.59 6.52998 1.25 6.18998 1.25 5.77998C1.25 5.36998 1.59 5.02998 2 5.02998H3.88C3.97389 5.02998 4.05 4.95387 4.05 4.85998V2.97998C4.05 2.56998 4.39 2.22998 4.8 2.22998C5.21 2.22998 5.55 2.56998 5.55 2.97998V4.85998C5.55 4.95387 5.62611 5.02998 5.72 5.02998H10.39C10.8 5.02998 11.14 5.36998 11.14 5.77998C11.14 6.18998 10.8 6.52998 10.39 6.52998H5.72C5.62611 6.52998 5.55 6.60609 5.55 6.69998V18.28C5.55 18.3739 5.62611 18.45 5.72 18.45H17.3C17.3939 18.45 17.47 18.3739 17.47 18.28V13.61C17.47 13.2 17.81 12.86 18.22 12.86C18.63 12.86 18.97 13.2 18.97 13.61V18.28C18.97 18.3739 19.0461 18.45 19.14 18.45H21.02C21.43 18.45 21.77 18.79 21.77 19.2C21.77 19.61 21.43 19.95 21.02 19.95H19.14C19.0461 19.95 18.97 20.0261 18.97 20.12V22C18.97 22.41 18.63 22.75 18.22 22.75Z" fill="white"/> </g> <defs> <clipPath id="clip0_2085_390293"> <rect width="24" height="24" fill="white"/> </clipPath> </defs> </svg>
