<svg width="24" height="24" viewBox="0 0 24 24" fill="none" xmlns="http://www.w3.org/2000/svg"> <g clip-path="url(#clip0_4482_11827)"> <path d="M8.65027 22.53C8.55027 22.53 8.46027 22.51 8.37027 22.47C7.43027 22.09 5.07027 20.96 3.42027 18.8C2.03027 16.92 1.28027 14.64 1.28027 12.37C1.28027 9.53996 2.23027 6.99996 4.02027 5.01996C4.04027 4.97996 4.07027 4.93996 4.10027 4.90996C6.04027 2.74996 8.98027 1.45996 11.9503 1.45996C14.9203 1.45996 17.8103 2.69996 19.8803 4.76996C21.7603 6.78996 22.7503 9.36996 22.7503 12.26C22.7503 14.58 21.9503 16.98 20.6003 18.69C18.8803 20.94 16.3703 22.06 15.6503 22.35C15.4203 22.44 15.1603 22.41 14.9503 22.27C14.7403 22.13 14.6203 21.9 14.6203 21.65V20.88C14.6203 20.88 14.6003 19.31 13.7503 17.97C13.6103 17.75 13.5903 17.47 13.7103 17.24C13.8303 17.01 14.0503 16.85 14.3103 16.82C16.1603 16.64 17.6103 14.93 17.6103 12.93C17.6103 12.33 17.3303 11.6 16.9003 11.09C16.8003 10.97 16.7403 10.81 16.7303 10.65L16.5803 8.43996L14.6103 9.39996C14.4703 9.46996 14.3103 9.49996 14.1503 9.46996C13.5303 9.36996 12.9003 9.25996 12.1703 9.25996C11.4403 9.25996 10.8103 9.36996 10.1903 9.46996C10.0603 9.48996 9.92027 9.46996 9.80027 9.42996L7.55027 8.57996C7.46027 8.57996 7.40027 8.60996 7.39027 8.61996L7.28027 10.76C7.28027 10.92 7.21027 11.08 7.11027 11.2C6.64027 11.76 6.40027 12.38 6.40027 13.04C6.40027 15.1 7.87027 16.84 9.67027 16.93C9.94027 16.94 10.1803 17.1 10.3003 17.34C10.4203 17.58 10.4103 17.86 10.2603 18.09C9.41027 19.42 9.39027 20.98 9.39027 21V21.77C9.39027 22.02 9.27027 22.25 9.06027 22.39C8.93027 22.47 8.79027 22.52 8.64027 22.52L8.65027 22.53ZM5.30027 5.80996C5.30027 5.80996 5.24027 5.88996 5.21027 5.92996C3.61027 7.64996 2.76027 9.87996 2.76027 12.38C2.76027 14.33 3.41027 16.29 4.60027 17.91C5.60027 19.21 6.95027 20.1 7.91027 20.61C7.95027 20.11 8.09027 19.21 8.49027 18.26C6.43027 17.61 4.90027 15.5 4.90027 13.07C4.90027 12.13 5.20027 11.26 5.79027 10.47L5.89027 8.60996C5.89027 8.18996 6.08027 7.77996 6.44027 7.48996C6.83027 7.16996 7.37027 7.04996 7.89027 7.14996C7.93027 7.14996 7.97027 7.16996 8.01027 7.17996L10.1403 7.98996C10.7403 7.88996 11.4003 7.78996 12.1603 7.78996C12.9203 7.78996 13.5603 7.87996 14.1403 7.97996L15.9103 7.09996C16.4503 6.88996 16.9703 6.93996 17.4003 7.22996C17.8403 7.52996 18.1003 8.01996 18.1003 8.53996L18.2003 10.36C18.7603 11.12 19.0903 12.07 19.0903 12.96C19.0903 15.34 17.5703 17.42 15.4803 18.12C15.9003 19.09 16.0303 20 16.0803 20.51C17.2103 19.9 18.4903 18.98 19.4003 17.79C20.5503 16.33 21.2303 14.27 21.2303 12.28C21.2303 9.77996 20.3803 7.54996 18.7803 5.82996C17.0003 4.04996 14.4303 2.97996 11.9303 2.97996C9.43027 2.97996 6.96027 4.03996 5.30027 5.81996V5.80996Z" fill="white"/> </g> <defs> <clipPath id="clip0_4482_11827"> <rect width="24" height="24" fill="white"/> </clipPath> </defs> </svg>
