<svg width="24" height="24" viewBox="0 0 24 24" fill="none" xmlns="http://www.w3.org/2000/svg"> <g clip-path="url(#clip0_2085_390841)"> <path d="M14.31 22.8607C14.08 22.8607 13.86 22.7707 13.7 22.6107L9.08002 17.9907C8.75002 17.6607 8.75002 17.1107 9.08002 16.7807C9.41002 16.4507 9.96002 16.4507 10.29 16.7807L14.3 20.7907L18.31 16.7807C18.64 16.4507 19.19 16.4507 19.52 16.7807C19.85 17.1107 19.85 17.6607 19.52 17.9907L14.91 22.6107C14.75 22.7707 14.53 22.8607 14.3 22.8607H14.31Z" fill="white"/> <path d="M14.31 22.8609C13.84 22.8609 13.45 22.4809 13.45 22.0009V8.15086C13.45 6.74086 12.9 5.41086 11.9 4.40086C10.9 3.40086 9.56996 2.85086 8.14996 2.85086H5.06996C4.59996 2.85086 4.20996 2.47086 4.20996 1.99086C4.20996 1.51086 4.58996 1.13086 5.06996 1.13086H8.14996C10.02 1.13086 11.78 1.86086 13.11 3.18086C14.43 4.51086 15.16 6.27086 15.16 8.14086V21.9909C15.16 22.4609 14.79 22.8609 14.31 22.8609Z" fill="white"/> </g> <defs> <clipPath id="clip0_2085_390841"> <rect width="24" height="24" fill="white"/> </clipPath> </defs> </svg>
