<svg width="24" height="24" viewBox="0 0 24 24" fill="none" xmlns="http://www.w3.org/2000/svg"> <g clip-path="url(#clip0_2085_386220)"> <path d="M18.2901 21.4893C15.8301 21.4893 13.8301 19.4893 13.8301 17.0293C13.8301 14.5693 15.8301 12.5693 18.2901 12.5693C20.7501 12.5693 22.7501 14.5693 22.7501 17.0293C22.7501 19.4893 20.7501 21.4893 18.2901 21.4893ZM18.2901 14.0593C16.6601 14.0593 15.3301 15.3893 15.3301 17.0193C15.3301 18.6493 16.6601 19.9793 18.2901 19.9793C19.9201 19.9793 21.2501 18.6493 21.2501 17.0193C21.2501 15.3893 19.9201 14.0593 18.2901 14.0593Z" fill="white"/> <path d="M18.2901 17.4893C18.5401 17.4893 18.7501 17.2793 18.7501 17.0293C18.7501 16.7793 18.5401 16.5693 18.2901 16.5693C18.0401 16.5693 17.8301 16.7793 17.8301 17.0293C17.8301 17.2793 18.0401 17.4893 18.2901 17.4893Z" fill="white"/> <path d="M3.75 21.4893C2.37 21.4893 1.25 20.3693 1.25 18.9893C1.25 17.6093 2.37 16.4893 3.75 16.4893C5.13 16.4893 6.25 17.6093 6.25 18.9893C6.25 20.3693 5.13 21.4893 3.75 21.4893ZM3.75 17.9993C3.2 17.9993 2.75 18.4493 2.75 18.9993C2.75 19.5493 3.2 19.9993 3.75 19.9993C4.3 19.9993 4.75 19.5493 4.75 18.9993C4.75 18.4493 4.3 17.9993 3.75 17.9993Z" fill="white"/> <path d="M18.2 21.4893H3.75C3.34 21.4893 3 21.1493 3 20.7393C3 20.3293 3.34 19.9893 3.75 19.9893H18.2C18.61 19.9893 18.95 20.3293 18.95 20.7393C18.95 21.1493 18.61 21.4893 18.2 21.4893Z" fill="white"/> <path d="M3.5099 17.9998C3.1699 17.9998 2.8499 17.7898 2.7599 17.4598C2.6499 17.0598 2.8499 16.6598 3.2499 16.5498L3.4899 16.4798L17.2699 12.6798C17.6699 12.5698 18.0799 12.7998 18.1899 13.1998C18.2999 13.5998 18.0699 14.0098 17.6699 14.1198L3.7199 17.9598C3.6499 17.9798 3.5799 17.9898 3.5099 17.9898V17.9998Z" fill="white"/> <path d="M14.7299 14.9094C14.6199 14.9094 14.5199 14.8894 14.4099 14.8394C14.0299 14.6694 13.8699 14.2194 14.0499 13.8394L17.7799 5.82938C17.9599 5.44938 18.3999 5.28938 18.7799 5.46938C19.1599 5.63938 19.3199 6.08938 19.1399 6.46938L15.4099 14.4794C15.2799 14.7494 15.0099 14.9094 14.7299 14.9094Z" fill="white"/> <path d="M13.5298 9.24957C13.4298 9.24957 13.3298 9.22957 13.2298 9.18957C12.8498 9.02957 12.6798 8.56957 12.8398 8.18957C12.9598 7.91957 13.7198 6.50957 17.3198 5.80957C18.6698 5.54957 19.9098 3.82957 20.2198 2.38957C20.3098 1.98957 20.7098 1.73957 21.1098 1.81957C21.5098 1.90957 21.7698 2.30957 21.6798 2.70957C21.2598 4.61957 19.6898 6.87957 17.5998 7.28957C14.7698 7.83957 14.1998 8.80957 14.1898 8.81957C14.0698 9.09957 13.7998 9.25957 13.5198 9.25957L13.5298 9.24957Z" fill="white"/> <path d="M5.9202 22.2093C5.1102 22.2093 4.4502 21.5493 4.4502 20.7393C4.4502 20.3293 4.7902 19.9893 5.2002 19.9893C5.6102 19.9893 5.9502 20.3293 5.9502 20.7393C5.9502 20.3293 6.2602 19.9893 6.6702 19.9893C7.0802 19.9893 7.3902 20.3293 7.3902 20.7393C7.3902 21.5493 6.7302 22.2093 5.9202 22.2093Z" fill="white"/> <path d="M17.3299 22.2093C16.5199 22.2093 15.8599 21.5493 15.8599 20.7393C15.8599 20.3293 16.1999 19.9893 16.6099 19.9893C17.0199 19.9893 17.3599 20.3293 17.3599 20.7393C17.3599 20.3293 17.6699 19.9893 18.0799 19.9893C18.4899 19.9893 18.7999 20.3293 18.7999 20.7393C18.7999 21.5493 18.1399 22.2093 17.3299 22.2093Z" fill="white"/> </g> <defs> <clipPath id="clip0_2085_386220"> <rect width="24" height="24" fill="white"/> </clipPath> </defs> </svg>
