<svg width="24" height="24" viewBox="0 0 24 24" fill="none" xmlns="http://www.w3.org/2000/svg"> <g clip-path="url(#clip0_4482_13736)"> <path d="M7.8 14.3598C6.23 14.3598 4.71 13.7998 3.51 12.7598C2.07 11.5098 1.25 9.70983 1.25 7.80983C1.25 5.90983 2.07 4.11983 3.49 2.87983C4.91 1.63983 6.8 1.05983 8.68 1.31983L20.66 2.92983C21.85 3.08983 22.75 4.11983 22.75 5.32983V10.2098C22.75 11.3998 21.86 12.4298 20.68 12.5998L8.74 14.3098C8.43 14.3498 8.12 14.3798 7.81 14.3798L7.8 14.3598ZM7.8 2.74983C6.58 2.74983 5.4 3.18983 4.47 3.99983C3.37 4.95983 2.74 6.34983 2.74 7.79983C2.74 9.24983 3.38 10.6598 4.48 11.6198C5.59 12.5798 7.06 13.0098 8.51 12.7998L20.45 11.0898C20.9 11.0298 21.24 10.6398 21.24 10.1798V5.31983C21.24 4.85983 20.9 4.46983 20.45 4.40983L8.47 2.79983C8.24 2.76983 8.02 2.75983 7.8 2.75983V2.74983Z" fill="white"/> <path d="M8.22973 10.4402C7.50973 10.4402 6.82973 10.1602 6.31973 9.65019C5.26973 8.60019 5.26973 6.8902 6.31973 5.8402C7.33973 4.8202 9.10973 4.8202 10.1297 5.8402C11.1797 6.8902 11.1797 8.60019 10.1297 9.65019C9.61973 10.1602 8.93973 10.4402 8.21973 10.4402H8.22973ZM8.22973 6.5502C7.90973 6.5502 7.60973 6.6702 7.38973 6.9002C6.92973 7.3702 6.92973 8.1202 7.38973 8.5902C7.83973 9.0402 8.62973 9.0402 9.07973 8.5902C9.53973 8.1202 9.53973 7.3702 9.07973 6.9002C8.84973 6.6702 8.54973 6.5502 8.23973 6.5502H8.22973Z" fill="white"/> <path d="M18.3896 12.78C17.9796 12.78 17.6396 12.44 17.6396 12.03V3.45996C17.6396 3.04996 17.9796 2.70996 18.3896 2.70996C18.7996 2.70996 19.1396 3.04996 19.1396 3.45996V12.03C19.1396 12.44 18.7996 12.78 18.3896 12.78Z" fill="white"/> <path d="M9.91025 22.7503C8.26025 22.7503 6.84025 21.5203 6.61025 19.8903L5.70025 13.5503C5.64025 13.1403 5.93025 12.7603 6.34025 12.7003C6.74025 12.6403 7.13025 12.9303 7.19025 13.3403L8.10025 19.6803C8.23025 20.5803 9.01025 21.2503 9.92025 21.2503C10.4502 21.2503 10.9602 21.0203 11.3102 20.6203C11.6602 20.2203 11.8102 19.6903 11.7402 19.1603L10.8902 13.2303C10.8302 12.8203 11.1202 12.4403 11.5302 12.3803C11.9402 12.3103 12.3202 12.6103 12.3802 13.0203L13.2302 18.9503C13.3702 19.9103 13.0802 20.8703 12.4502 21.6003C11.8202 22.3303 10.9002 22.7503 9.93025 22.7503H9.91025Z" fill="white"/> </g> <defs> <clipPath id="clip0_4482_13736"> <rect width="24" height="24" fill="white"/> </clipPath> </defs> </svg>
