<svg width="24" height="24" viewBox="0 0 24 24" fill="none" xmlns="http://www.w3.org/2000/svg"> <g clip-path="url(#clip0_2085_390654)"> <path d="M2.00993 16.4397C1.80993 16.4397 1.61993 16.3597 1.47993 16.1997C1.23993 15.9197 1.24993 15.4997 1.50993 15.2397C1.58993 15.1597 1.70993 15.0697 1.83993 14.9797C2.15993 14.7797 2.57993 14.8597 2.78993 15.1697C3.00993 15.4797 2.93993 15.8997 2.63993 16.1297L2.42993 16.2897C2.29993 16.3897 2.14993 16.4297 1.99993 16.4297L2.00993 16.4397Z" fill="white"/> <path d="M18.1103 10.8998C17.8503 10.8998 17.6003 10.7598 17.4803 10.5098C17.3103 10.1598 17.4503 9.73983 17.8003 9.56983L19.0403 8.95983C19.3903 8.78983 19.8103 8.92983 19.9803 9.27983C20.1503 9.62983 20.0103 10.0498 19.6603 10.2198L18.4203 10.8298C18.3203 10.8798 18.2103 10.8998 18.1103 10.8998Z" fill="white"/> <path d="M17.35 10.2596C17.28 10.2596 17.22 10.2596 17.15 10.2296C16.78 10.1196 16.56 9.72961 16.67 9.35961L17.07 7.99961C17.18 7.62961 17.57 7.40961 17.94 7.51961C18.31 7.62961 18.53 8.01961 18.42 8.38961L18.02 9.74961C17.93 10.0596 17.65 10.2596 17.35 10.2596Z" fill="white"/> <path d="M17.0003 12.6998H7.00029C6.61029 12.6998 6.30029 12.3898 6.30029 11.9998C6.30029 8.8598 8.86029 6.2998 12.0003 6.2998C14.1103 6.2998 16.0403 7.4598 17.0303 9.3198C17.1203 9.4898 17.1403 9.6798 17.0803 9.8598C17.0303 10.0398 16.9003 10.1898 16.7403 10.2798C16.5603 10.3698 16.4503 10.5598 16.4503 10.7598C16.4503 11.0598 16.7003 11.3098 17.0003 11.3098C17.3903 11.3098 17.7003 11.6198 17.7003 12.0098C17.7003 12.3998 17.3903 12.7098 17.0003 12.7098V12.6998ZM7.76029 11.2998H15.1303C15.0803 11.1298 15.0503 10.9398 15.0503 10.7498C15.0503 10.2798 15.2103 9.8498 15.5003 9.4998C14.7003 8.3798 13.4003 7.6998 12.0003 7.6998C9.87029 7.6998 8.10029 9.2598 7.76029 11.2898V11.2998Z" fill="white"/> <path d="M17.0003 12.6998C15.9203 12.6998 15.0503 11.8198 15.0503 10.7498C15.0503 10.0298 15.4503 9.3598 16.0903 9.0298C16.3703 8.8798 16.6803 8.7998 17.0103 8.7998C17.2003 8.7998 17.3803 8.8298 17.5603 8.8798C18.0803 9.0298 18.5203 9.3998 18.7603 9.8898C18.8903 10.1498 18.9603 10.4498 18.9603 10.7498C18.9603 11.8298 18.0803 12.6998 17.0103 12.6998H17.0003ZM17.0003 10.1998C16.7083 10.1998 16.4603 10.4443 16.4603 10.7398C16.4603 11.0398 16.7103 11.2898 17.0103 11.2898C17.3103 11.2898 17.5603 11.0398 17.5603 10.7398C17.5603 10.4361 17.2989 10.1998 17.0003 10.1998Z" fill="white"/> <path d="M17.9301 17.5698C16.3601 17.5698 14.3401 17.2698 11.7701 16.4198C6.15006 14.5498 3.56006 15.5698 2.71006 16.0898C2.39006 16.2898 1.97006 16.1998 1.76006 15.8898C1.55006 15.5798 1.62006 15.1598 1.92006 14.9298L6.57006 11.4398C6.69006 11.3498 6.84006 11.2998 6.99006 11.2998H16.9901C17.1401 11.2998 17.2901 11.3498 17.4101 11.4398L21.4601 14.4798C21.8901 14.8098 22.1101 15.3398 22.0401 15.8798C21.9601 16.4198 21.6001 16.8698 21.0901 17.0598C20.3501 17.3398 19.3101 17.5698 17.9201 17.5698H17.9301ZM6.09006 13.9398C7.65006 13.9398 9.67006 14.2298 12.2201 15.0798C16.8901 16.6398 19.4701 16.1598 20.6001 15.7398C20.6101 15.7398 20.6501 15.7198 20.6501 15.6698L16.7601 12.6998H7.23006L5.56006 13.9498C5.73006 13.9498 5.90006 13.9398 6.08006 13.9398H6.09006Z" fill="white"/> <path d="M7.04019 17.7098C3.96019 17.7098 1.77019 16.4298 1.64019 16.3498C1.45019 16.2398 1.33019 16.0498 1.30019 15.8298C1.27019 15.6198 1.35019 15.3998 1.50019 15.2498C1.52019 15.2298 1.56019 15.1998 1.58019 15.1798L1.90019 14.9498C1.90019 14.9498 2.00019 14.8798 2.03019 14.8598C3.00019 14.2598 6.04019 13.0198 12.2202 15.0798C12.4902 15.1698 12.6802 15.4098 12.7002 15.6898C12.7202 15.9698 12.5802 16.2398 12.3302 16.3698C10.4402 17.3698 8.62019 17.7098 7.04019 17.7098ZM3.58019 15.6998C4.92019 16.1898 7.25019 16.6998 9.90019 15.8698C6.68019 15.0598 4.69019 15.3198 3.58019 15.6998Z" fill="white"/> </g> <defs> <clipPath id="clip0_2085_390654"> <rect width="24" height="24" fill="white"/> </clipPath> </defs> </svg>
