<svg width="24" height="24" viewBox="0 0 24 24" fill="none" xmlns="http://www.w3.org/2000/svg"> <g clip-path="url(#clip0_4482_7790)"> <path d="M12.0004 14.53C10.2104 14.53 8.43038 13.87 7.04038 12.54C6.74038 12.25 6.73038 11.78 7.01038 11.48C7.30038 11.18 7.77038 11.17 8.07038 11.45C10.2704 13.55 13.7204 13.55 15.9204 11.45C16.2204 11.16 16.6904 11.18 16.9804 11.48C17.2704 11.78 17.2504 12.26 16.9504 12.54C15.5604 13.86 13.7704 14.53 11.9904 14.53H12.0004Z" fill="white"/> <path d="M12 22.75C6.07 22.75 1.25 17.93 1.25 12C1.25 6.07 6.07 1.25 12 1.25C17.93 1.25 22.75 6.07 22.75 12C22.75 17.93 17.93 22.75 12 22.75ZM12 2.75C6.9 2.75 2.75 6.9 2.75 12C2.75 17.1 6.9 21.25 12 21.25C17.1 21.25 21.25 17.1 21.25 12C21.25 6.9 17.1 2.75 12 2.75Z" fill="white"/> <path d="M12 16.08C11.59 16.08 11.25 15.74 11.25 15.33V13.77C11.25 13.36 11.59 13.02 12 13.02C12.41 13.02 12.75 13.36 12.75 13.77V15.33C12.75 15.74 12.41 16.08 12 16.08Z" fill="white"/> <path d="M15.12 15.48C14.83 15.48 14.55 15.31 14.43 15.02L13.82 13.55C13.66 13.17 13.84 12.73 14.23 12.57C14.61 12.42 15.05 12.59 15.21 12.98L15.82 14.45C15.98 14.83 15.8 15.27 15.41 15.43C15.32 15.47 15.22 15.49 15.12 15.49V15.48Z" fill="white"/> <path d="M8.87998 15.48C8.77998 15.48 8.68998 15.46 8.58998 15.42C8.20998 15.26 8.01998 14.82 8.17998 14.44L8.78998 12.97C8.94998 12.59 9.38998 12.41 9.76998 12.56C10.15 12.72 10.34 13.16 10.18 13.54L9.56998 15.01C9.44998 15.3 9.16998 15.47 8.87998 15.47V15.48Z" fill="white"/> </g> <defs> <clipPath id="clip0_4482_7790"> <rect width="24" height="24" fill="white"/> </clipPath> </defs> </svg>
