<svg width="24" height="24" viewBox="0 0 24 24" fill="none" xmlns="http://www.w3.org/2000/svg"> <g clip-path="url(#clip0_4482_10680)"> <path d="M11.9996 6.96C10.4296 6.96 9.13965 5.68 9.13965 4.11C9.13965 3.35 9.43965 2.63 9.97965 2.09C10.5096 1.56 11.2496 1.25 11.9996 1.25C13.5696 1.25 14.8596 2.53 14.8596 4.11C14.8596 5.69 13.5796 6.96 11.9996 6.96ZM11.9996 2.75C11.6396 2.75 11.2896 2.89 11.0396 3.15C10.7896 3.4 10.6396 3.75 10.6396 4.11C10.6396 4.86 11.2496 5.46 11.9996 5.46C12.7496 5.46 13.3596 4.85 13.3596 4.11C13.3596 3.37 12.7496 2.75 11.9996 2.75Z" fill="white"/> <path d="M6.21039 10.75C6.02039 10.75 5.83039 10.68 5.68039 10.53C5.39039 10.24 5.39039 9.76002 5.68039 9.47002L10.1004 5.05002C10.3904 4.76002 10.8704 4.76002 11.1604 5.05002C11.4504 5.34002 11.4504 5.82002 11.1604 6.11002L6.74039 10.53C6.59039 10.68 6.40039 10.75 6.21039 10.75Z" fill="white"/> <path d="M17.7696 10.73C17.5796 10.73 17.3896 10.66 17.2396 10.51L12.8396 6.11002C12.5496 5.82002 12.5496 5.34002 12.8396 5.05002C13.1296 4.76002 13.6096 4.76002 13.8996 5.05002L18.2996 9.45002C18.5896 9.74002 18.5896 10.22 18.2996 10.51C18.1496 10.66 17.9596 10.73 17.7696 10.73Z" fill="white"/> <path d="M17.2596 15.3799H14.0996C13.6896 15.3799 13.3496 15.0399 13.3496 14.6299C13.3496 14.2199 13.6896 13.8799 14.0996 13.8799H17.2596C17.6696 13.8799 18.0096 14.2199 18.0096 14.6299C18.0096 15.0399 17.6696 15.3799 17.2596 15.3799Z" fill="white"/> <path d="M15.1604 18.54H14.1104C13.7004 18.54 13.3604 18.2 13.3604 17.79C13.3604 17.38 13.7004 17.04 14.1104 17.04H15.1604C15.5704 17.04 15.9104 17.38 15.9104 17.79C15.9104 18.2 15.5704 18.54 15.1604 18.54Z" fill="white"/> <path d="M10.6002 19.0699H7.09023C6.48023 19.0699 5.99023 18.5799 5.99023 17.9699V15.9099C5.99023 15.4699 6.19023 15.0499 6.53023 14.7799L7.91023 13.6799C8.44023 13.2499 9.19023 13.2499 9.72023 13.6799L11.1502 14.8199C11.5002 15.0899 11.6902 15.5099 11.6902 15.9499V17.9699C11.6902 18.5799 11.2002 19.0699 10.5902 19.0699H10.6002ZM7.49023 17.5699H10.2002V15.9799L8.79023 14.8499L7.47023 15.9499V17.5699H7.49023Z" fill="white"/> <path d="M18.84 22.75H5.16C3 22.75 1.25 21 1.25 18.84V13.16C1.25 11 3 9.25 5.16 9.25H18.84C21 9.25 22.75 11 22.75 13.16V18.84C22.75 21 21 22.75 18.84 22.75ZM5.16 10.75C3.83 10.75 2.75 11.83 2.75 13.16V18.84C2.75 20.17 3.83 21.25 5.16 21.25H18.84C20.17 21.25 21.25 20.17 21.25 18.84V13.16C21.25 11.83 20.17 10.75 18.84 10.75H5.16Z" fill="white"/> </g> <defs> <clipPath id="clip0_4482_10680"> <rect width="24" height="24" fill="white"/> </clipPath> </defs> </svg>
