<svg width="24" height="24" viewBox="0 0 24 24" fill="none" xmlns="http://www.w3.org/2000/svg"> <g clip-path="url(#clip0_2085_390483)"> <path d="M14.03 7.92992C13.94 7.92992 13.85 7.90992 13.77 7.87992C13.38 7.72992 13.19 7.29992 13.33 6.90992L13.52 6.40992C13.91 5.54992 14.44 4.83992 15.13 4.21992C15.31 4.05992 15.41 3.84992 15.41 3.63992C15.41 3.38992 15.29 3.13992 15.05 2.92992C14.75 2.65992 14.26 2.67992 13.95 2.98992C12.94 3.97992 12.38 5.25992 12.27 6.78992C12.24 7.19992 11.87 7.50992 11.47 7.48992C11.06 7.45992 10.74 7.09992 10.77 6.68992C10.9 4.76992 11.61 3.16992 12.89 1.91992C13.78 1.04992 15.17 1.00992 16.05 1.82992C16.6 2.32992 16.9 2.97992 16.89 3.65992C16.89 4.29992 16.61 4.90992 16.1 5.34992C15.57 5.81992 15.16 6.36992 14.88 6.98992L14.71 7.43992C14.6 7.73992 14.31 7.92992 14.01 7.92992H14.03Z" fill="white"/> <path d="M10.0999 7.84029C9.81993 7.84029 9.54993 7.68029 9.41993 7.41029C9.14993 6.84029 8.79993 6.39029 8.49993 5.99029C7.51993 4.71029 8.13993 3.54029 8.59993 3.09029C9.05993 2.67029 9.65993 2.49029 10.2499 2.57029C10.8399 2.65029 11.3599 2.97029 11.6799 3.47029C11.9999 3.95029 12.2499 4.52029 12.4299 5.17029C12.5399 5.57029 12.3099 5.98029 11.9099 6.10029C11.5099 6.21029 11.0999 5.98029 10.9799 5.58029C10.8399 5.08029 10.6499 4.64029 10.4199 4.29029C10.2999 4.11029 10.1399 4.07029 10.0499 4.06029C9.95993 4.05029 9.77993 4.05029 9.61993 4.19029C9.47993 4.34029 9.34993 4.63029 9.65993 5.04029C10.0199 5.51029 10.4299 6.05029 10.7699 6.76029C10.9499 7.13029 10.7899 7.58029 10.4199 7.76029C10.3199 7.81029 10.1999 7.83029 10.0999 7.83029V7.84029Z" fill="white"/> <path d="M12.0002 22.7498C8.45016 22.7498 6.16016 14.6598 6.16016 11.8598C6.16016 11.6498 6.17016 11.4398 6.19016 11.2298C6.20016 11.0898 6.23016 10.9098 6.26016 10.7498C6.26016 10.7198 6.29016 10.5998 6.31016 10.4898C6.34016 10.3498 6.39016 10.1998 6.43016 10.0598C6.46016 9.95977 6.49016 9.86977 6.53016 9.76977C6.56016 9.66977 6.60016 9.56977 6.66016 9.45977C6.84016 9.03977 7.09016 8.63977 7.36016 8.27977C7.97016 7.49977 8.76016 6.87977 9.65016 6.48977C9.67016 6.48977 9.76016 6.44977 9.78016 6.43977C9.90016 6.38977 10.0502 6.32977 10.2102 6.28977C10.2202 6.28977 10.2302 6.28977 10.2402 6.27977C10.4302 6.21977 10.5802 6.17977 10.7402 6.14977C10.7102 6.14977 10.7702 6.14977 10.8302 6.12977C10.8502 6.12977 10.9402 6.10977 10.9602 6.09977C11.6702 5.97977 12.3202 5.97977 13.0302 6.09977L13.1602 6.12977C13.2202 6.13977 13.2802 6.14977 13.3302 6.16977C13.4002 6.16977 13.5602 6.21977 13.7202 6.26977C13.7302 6.26977 13.7502 6.26977 13.7602 6.27977C13.7602 6.27977 13.7802 6.27977 13.7902 6.27977C13.9402 6.32977 14.1002 6.37977 14.2502 6.44977C15.2302 6.86977 16.0202 7.48977 16.6302 8.26977C16.9202 8.65977 17.1602 9.04977 17.3502 9.47977C17.3902 9.55977 17.4302 9.65977 17.4602 9.75977C17.5002 9.85977 17.5302 9.94977 17.5602 10.0498C17.6102 10.1898 17.6502 10.3398 17.6902 10.4898C17.7102 10.5898 17.7402 10.7098 17.7502 10.8198C17.7702 10.9098 17.8002 11.0798 17.8102 11.2498C17.8302 11.4298 17.8402 11.6398 17.8402 11.8498C17.8402 14.6498 15.5402 22.7398 12.0002 22.7398V22.7498ZM10.7702 7.68977C10.7702 7.68977 10.7402 7.69977 10.7302 7.70977C10.5602 7.75977 10.4502 7.79977 10.3402 7.84977C9.61016 8.16977 9.01016 8.62977 8.56016 9.21977C8.36016 9.47977 8.18016 9.77977 8.03016 10.1198C8.00016 10.1798 7.99016 10.2198 7.98016 10.2398C7.98016 10.2698 7.96016 10.3098 7.94016 10.3398C7.91016 10.4098 7.89016 10.4698 7.87016 10.5398C7.84016 10.6398 7.80016 10.7398 7.78016 10.8498C7.76016 10.9098 7.75016 10.9698 7.74016 11.0198C7.70016 11.1898 7.69016 11.2898 7.68016 11.3798C7.66016 11.5498 7.65016 11.7098 7.65016 11.8698C7.65016 14.6698 9.92016 21.2598 11.9902 21.2598C14.0602 21.2598 16.3302 14.6698 16.3302 11.8698C16.3302 11.7098 16.3302 11.5598 16.3002 11.4098C16.3002 11.2898 16.2802 11.1898 16.2602 11.0998C16.2402 10.9698 16.2302 10.9198 16.2102 10.8698C16.1802 10.7498 16.1502 10.6398 16.1202 10.5498C16.1002 10.4798 16.0802 10.4198 16.0502 10.3498C16.0402 10.3198 16.0202 10.2798 16.0102 10.2498C16.0102 10.2198 15.9902 10.1898 15.9702 10.1598C15.8102 9.80977 15.6402 9.50977 15.4202 9.21977C14.9702 8.63977 14.3802 8.17977 13.7102 7.88977C13.5302 7.81977 13.4202 7.77977 13.3102 7.74977C13.2802 7.74977 13.2402 7.72977 13.2102 7.70977C13.1302 7.68977 13.0602 7.66977 12.9902 7.65977C12.9802 7.65977 12.8502 7.62977 12.8402 7.62977L12.7102 7.59977C12.2802 7.52977 11.7402 7.51977 11.1902 7.60977L11.1202 7.62977C11.1202 7.62977 11.0002 7.65977 10.9702 7.65977C10.9002 7.66977 10.8202 7.68977 10.7502 7.70977L10.7702 7.68977Z" fill="white"/> </g> <defs> <clipPath id="clip0_2085_390483"> <rect width="24" height="24" fill="white"/> </clipPath> </defs> </svg>
