<svg width="24" height="24" viewBox="0 0 24 24" fill="none" xmlns="http://www.w3.org/2000/svg"> <g clip-path="url(#clip0_4482_12031)"> <path d="M18.5699 5.75H5.16992C4.75992 5.75 4.41992 5.41 4.41992 5C4.41992 4.59 4.75992 4.25 5.16992 4.25H18.5699C18.9799 4.25 19.3199 4.59 19.3199 5C19.3199 5.41 18.9799 5.75 18.5699 5.75Z" fill="white"/> <path d="M15.1801 22.7498C14.8301 22.7498 14.4701 22.6398 14.1801 22.4398C13.7901 22.1698 13.5401 21.7698 13.4501 21.3198L11.8701 12.6098L10.2901 21.3198C10.2101 21.7798 9.95012 22.1798 9.56012 22.4498C9.18012 22.7098 8.70012 22.8198 8.25012 22.7298L4.56012 22.0598C3.73012 21.9098 3.12012 21.1798 3.12012 20.3398V17.4798C3.12012 12.5698 3.71012 7.66977 4.88012 2.89977L4.96012 2.58977C5.15012 1.79977 5.85012 1.25977 6.66012 1.25977H17.0901C17.9001 1.25977 18.6001 1.80977 18.7901 2.58977L18.8701 2.89977C20.0401 7.66977 20.6301 12.5698 20.6301 17.4798V20.3398C20.6301 21.1898 20.0301 21.9098 19.1901 22.0598L15.4901 22.7298C15.3901 22.7498 15.2801 22.7598 15.1801 22.7598V22.7498ZM11.3701 10.4098H12.3701C12.7301 10.4098 13.0401 10.6698 13.1101 11.0298L14.9301 21.0498C14.9401 21.1098 14.9801 21.1698 15.0301 21.2098C15.0801 21.2498 15.1501 21.2598 15.2101 21.2498L18.9101 20.5798C19.0301 20.5598 19.1201 20.4598 19.1201 20.3298V17.4698C19.1201 12.6798 18.5401 7.89977 17.4001 3.24977L17.3201 2.93977C17.2901 2.82977 17.1901 2.74977 17.0801 2.74977H6.66012C6.54012 2.74977 6.44012 2.82977 6.42012 2.93977L6.34012 3.24977C5.20012 7.89977 4.62012 12.6798 4.62012 17.4698V20.3298C4.62012 20.4498 4.71012 20.5498 4.83012 20.5798L8.52012 21.2498C8.58012 21.2598 8.65012 21.2498 8.71012 21.2098C8.76012 21.1698 8.80012 21.1098 8.81012 21.0498L10.6301 11.0398C10.7001 10.6798 11.0101 10.4198 11.3701 10.4198V10.4098Z" fill="white"/> <path d="M10.3701 7.75C9.96012 7.75 9.62012 7.41 9.62012 7V5C9.62012 4.59 9.96012 4.25 10.3701 4.25C10.7801 4.25 11.1201 4.59 11.1201 5V7C11.1201 7.41 10.7801 7.75 10.3701 7.75Z" fill="white"/> <path d="M13.3701 7.75C12.9601 7.75 12.6201 7.41 12.6201 7V5C12.6201 4.59 12.9601 4.25 13.3701 4.25C13.7801 4.25 14.1201 4.59 14.1201 5V7C14.1201 7.41 13.7801 7.75 13.3701 7.75Z" fill="white"/> </g> <defs> <clipPath id="clip0_4482_12031"> <rect width="24" height="24" fill="white"/> </clipPath> </defs> </svg>
