<svg width="24" height="24" viewBox="0 0 24 24" fill="none" xmlns="http://www.w3.org/2000/svg"> <g clip-path="url(#clip0_4482_3181)"> <path d="M10.95 22.75H7C3.83 22.75 1.25 20.17 1.25 17V7C1.25 3.83 3.83 1.25 7 1.25H17C20.17 1.25 22.75 3.83 22.75 7V11.9C22.75 12.31 22.41 12.65 22 12.65C21.59 12.65 21.25 12.31 21.25 11.9V7C21.25 4.66 19.34 2.75 17 2.75H7C4.66 2.75 2.75 4.66 2.75 7V17C2.75 19.34 4.66 21.25 7 21.25H10.95C11.36 21.25 11.7 21.59 11.7 22C11.7 22.41 11.36 22.75 10.95 22.75Z" fill="white"/> <path d="M15.7299 20.9099C15.1399 20.9099 14.5399 20.8099 13.9699 20.5899C11.5099 19.6499 10.9999 17.2999 10.5899 15.4199C10.3799 14.4399 10.1699 13.5199 9.75991 12.9899C9.62991 12.8199 9.56991 12.5999 9.60991 12.3899C9.64991 12.1799 9.76991 11.9899 9.95991 11.8799C12.2699 10.4699 15.1399 10.2499 17.6299 11.2899C18.9999 11.8499 20.0499 12.9799 20.5099 14.3899C20.9599 15.7999 20.7699 17.3299 19.9699 18.5999C19.7499 18.9399 19.4999 19.2499 19.2299 19.4999C18.2799 20.4199 17.0099 20.9099 15.7299 20.9099ZM11.3999 12.8199C11.7099 13.4899 11.8899 14.2799 12.0699 15.0999C12.4599 16.8699 12.8199 18.5399 14.5199 19.1899C15.7599 19.6499 17.2399 19.3499 18.1999 18.4299C18.3799 18.2499 18.5499 18.0399 18.7099 17.8099C19.2699 16.9099 19.4099 15.8599 19.0899 14.8599C18.7699 13.8699 18.0299 13.0799 17.0699 12.6899C15.2299 11.9199 13.1699 11.9799 11.3999 12.8199Z" fill="white"/> <path d="M19.35 21.75C18.99 21.75 18.68 21.5 18.61 21.13C18.22 18.97 16.92 17.08 15.06 15.95C14.71 15.73 14.59 15.27 14.81 14.92C15.03 14.57 15.49 14.45 15.84 14.67C18.07 16.03 19.62 18.29 20.09 20.87C20.16 21.28 19.89 21.67 19.49 21.74C19.44 21.75 19.4 21.75 19.35 21.75Z" fill="white"/> </g> <defs> <clipPath id="clip0_4482_3181"> <rect width="24" height="24" fill="white"/> </clipPath> </defs> </svg>
