<svg width="24" height="24" viewBox="0 0 24 24" fill="none" xmlns="http://www.w3.org/2000/svg"> <g clip-path="url(#clip0_4482_3452)"> <path d="M16.6703 20.81C16.6503 20.81 16.6402 20.81 16.6202 20.81H5.54028C2.60028 20.6 1.28027 18.34 1.28027 16.33C1.28027 14.53 2.33024 12.53 4.62024 11.98C3.98024 9.47995 4.52026 7.12995 6.14026 5.42995C7.99026 3.48995 10.9503 2.71996 13.5103 3.49996C15.8603 4.21996 17.5102 6.14997 18.1102 8.81997C20.1602 9.27997 21.8002 10.83 22.4502 12.98C23.1602 15.31 22.5103 17.7 20.7703 19.23C19.6503 20.24 18.2003 20.81 16.6703 20.81ZM5.57019 13.34C3.64019 13.49 2.78027 14.94 2.78027 16.32C2.78027 17.71 3.65021 19.17 5.59021 19.31H16.6302C16.6402 19.31 16.6503 19.31 16.6703 19.31C17.8303 19.31 18.9203 18.88 19.7703 18.11C21.3303 16.75 21.4403 14.79 21.0203 13.42C20.6003 12.04 19.4302 10.48 17.3802 10.22C17.0502 10.18 16.7902 9.92997 16.7302 9.59997C16.3302 7.19997 15.0302 5.53996 13.0702 4.93996C11.0402 4.31996 8.69022 4.92996 7.23022 6.46996C5.81022 7.95996 5.48029 10.05 6.30029 12.35C6.44029 12.74 6.24022 13.17 5.85022 13.31C5.75022 13.33 5.66019 13.34 5.57019 13.34Z" fill="white"/> <path d="M14 12.7498H9.99995C9.69995 12.7498 9.42001 12.5698 9.31001 12.2898C9.19001 12.0098 9.25992 11.6898 9.46992 11.4698L11.13 9.80979C11.42 9.51979 11.8999 9.51979 12.1899 9.80979C12.4799 10.0998 12.4799 10.5798 12.1899 10.8698L11.81 11.2498H14C14.41 11.2498 14.75 11.5898 14.75 11.9998C14.75 12.4098 14.41 12.7498 14 12.7498Z" fill="white"/> <path d="M12.34 16.7498C12.15 16.7498 11.9601 16.6798 11.8101 16.5298C11.5201 16.2398 11.5201 15.7598 11.8101 15.4698L12.1899 15.0898H10C9.59 15.0898 9.25 14.7498 9.25 14.3398C9.25 13.9298 9.59 13.5898 10 13.5898H14C14.3 13.5898 14.5799 13.7699 14.6899 14.0499C14.8099 14.3299 14.74 14.6498 14.53 14.8698L12.87 16.5298C12.72 16.6798 12.53 16.7498 12.34 16.7498Z" fill="white"/> </g> <defs> <clipPath id="clip0_4482_3452"> <rect width="24" height="24" fill="white"/> </clipPath> </defs> </svg>
