<svg width="24" height="24" viewBox="0 0 24 24" fill="none" xmlns="http://www.w3.org/2000/svg"> <g clip-path="url(#clip0_4482_9984)"> <path d="M15.22 15.3798H9.75C8.23 15.3798 7 14.1498 7 12.6298V9.25977C7 7.73977 8.23 6.50977 9.75 6.50977H15.22C16.74 6.50977 17.97 7.73977 17.97 9.25977V12.6298C17.97 14.1498 16.74 15.3798 15.22 15.3798ZM9.75 8.00977C9.06 8.00977 8.5 8.56977 8.5 9.25977V12.6298C8.5 13.3198 9.06 13.8798 9.75 13.8798H15.22C15.91 13.8798 16.47 13.3198 16.47 12.6298V9.25977C16.47 8.56977 15.91 8.00977 15.22 8.00977H9.75Z" fill="white"/> <path d="M12.4801 11.7002C12.1701 11.7002 11.8601 11.6202 11.5901 11.4602L10.0101 10.5502C9.65014 10.3402 9.53014 9.8802 9.73014 9.5302C9.94014 9.1702 10.3901 9.0502 10.7501 9.2502L12.3401 10.1602C12.4301 10.2102 12.5401 10.2102 12.6301 10.1602L14.2201 9.2502C14.5801 9.0402 15.0401 9.1702 15.2401 9.5302C15.4501 9.8902 15.3201 10.3502 14.9601 10.5502L13.3701 11.4602C13.0901 11.6202 12.7901 11.7002 12.4801 11.7002Z" fill="white"/> <path d="M12.4799 22.75C11.2999 22.75 10.1899 22.29 9.35992 21.46L5.66992 17.75C1.91992 13.98 1.91992 7.85 5.66992 4.08C7.47992 2.26 9.89992 1.25 12.4599 1.25H12.4799C15.0399 1.25 17.4499 2.24 19.2699 4.05L19.2999 4.08C23.0499 7.85 23.0499 13.98 19.2999 17.75L15.6199 21.44C14.7899 22.28 13.6799 22.74 12.4899 22.74H12.4799V22.75ZM12.4799 2.75H12.4599C10.2899 2.75 8.24992 3.6 6.71992 5.14C3.54992 8.33 3.54992 13.51 6.71992 16.69L10.3999 20.38C10.9599 20.94 11.6899 21.24 12.4699 21.24C13.2499 21.24 13.9899 20.93 14.5399 20.38L18.2199 16.69C21.3899 13.5 21.3899 8.32 18.2199 5.14L18.1899 5.11C16.6599 3.59 14.6299 2.75 12.4699 2.75H12.4799Z" fill="white"/> </g> <defs> <clipPath id="clip0_4482_9984"> <rect width="24" height="24" fill="white"/> </clipPath> </defs> </svg>
