<svg width="24" height="24" viewBox="0 0 24 24" fill="none" xmlns="http://www.w3.org/2000/svg"> <g clip-path="url(#clip0_2085_386419)"> <path d="M15.3302 21.8598C15.1302 21.8598 14.9302 21.8398 14.7302 21.7898L8.74023 20.4498C8.55023 20.4098 8.35023 20.4098 8.17023 20.4498L4.66023 21.3198C3.83023 21.5298 2.98023 21.3398 2.30023 20.8198C1.63023 20.2898 1.24023 19.5098 1.24023 18.6498V5.99984C1.24023 4.72984 2.10023 3.63984 3.33023 3.32984L7.80023 2.21984C8.22023 2.11984 8.65024 2.10984 9.06024 2.20984L15.0202 3.54984C15.2002 3.58984 15.3902 3.58984 15.5702 3.54984L19.3602 2.67984C20.1802 2.48984 21.0302 2.67984 21.6902 3.20984C22.3502 3.72984 22.7302 4.51984 22.7302 5.35984V18.0398C22.7302 19.3298 21.8502 20.4298 20.6002 20.7198L15.9302 21.7898C15.7302 21.8398 15.5202 21.8598 15.3102 21.8598H15.3302ZM8.47023 18.9198C8.67023 18.9198 8.87023 18.9398 9.07023 18.9898L15.0602 20.3298C15.2402 20.3698 15.4302 20.3698 15.6102 20.3298L20.2802 19.2598C20.8502 19.1298 21.2502 18.6298 21.2502 18.0398V5.34984C21.2502 4.96984 21.0802 4.60984 20.7802 4.36984C20.4802 4.12984 20.0902 4.03984 19.7202 4.12984L15.9302 4.99984C15.5302 5.08984 15.1102 5.09984 14.7102 4.99984L8.74023 3.65984C8.55023 3.61984 8.35023 3.61984 8.17023 3.65984L3.70023 4.76984C3.14023 4.90984 2.75023 5.40984 2.75023 5.97984V18.6398C2.75023 19.0298 2.92023 19.3898 3.23023 19.6198C3.53023 19.8598 3.92023 19.9398 4.30023 19.8498L7.81023 18.9798C8.02023 18.9298 8.25024 18.8998 8.47023 18.8998V18.9198Z" fill="white"/> <path d="M7.18008 14.05C6.99008 14.05 6.80008 13.98 6.65008 13.83L4.86008 12.05C4.57008 11.76 4.57008 11.28 4.86008 10.99C5.15008 10.7 5.63008 10.7 5.92008 10.99L7.71008 12.77C8.00008 13.06 8.00008 13.54 7.71008 13.83C7.56008 13.98 7.37008 14.05 7.18008 14.05Z" fill="white"/> <path d="M5.39008 14.05C5.20008 14.05 5.01008 13.98 4.86008 13.83C4.57008 13.54 4.57008 13.06 4.86008 12.77L6.65008 10.99C6.94008 10.7 7.42008 10.7 7.71008 10.99C8.00008 11.28 8.00008 11.76 7.71008 12.05L5.92008 13.83C5.77008 13.98 5.58008 14.05 5.39008 14.05Z" fill="white"/> <path d="M11.3602 10.7795C11.0702 10.7795 10.7802 10.5995 10.6702 10.3095C10.5102 9.92951 10.7002 9.48951 11.0802 9.32951L16.8902 6.94951C17.2702 6.78951 17.7102 6.97951 17.8702 7.35951C18.0302 7.73951 17.8402 8.17951 17.4602 8.33951L11.6502 10.7195C11.5602 10.7595 11.4602 10.7795 11.3702 10.7795H11.3602Z" fill="white"/> <path d="M13.05 11.7697C12.92 11.7697 12.79 11.7397 12.67 11.6697L10.97 10.6797C10.61 10.4697 10.49 10.0097 10.7 9.6497C10.91 9.2897 11.37 9.1697 11.73 9.3797L13.43 10.3697C13.79 10.5797 13.91 11.0397 13.7 11.3997C13.56 11.6397 13.31 11.7697 13.05 11.7697Z" fill="white"/> <path d="M11.3504 10.7594C11.2804 10.7594 11.2104 10.7594 11.1304 10.7294C10.7304 10.6094 10.5104 10.1894 10.6304 9.79942L11.2004 7.91942C11.3204 7.51942 11.7404 7.29942 12.1304 7.41942C12.5304 7.53942 12.7504 7.95942 12.6304 8.34942L12.0604 10.2294C11.9604 10.5494 11.6604 10.7594 11.3404 10.7594H11.3504Z" fill="white"/> <path d="M16.4603 17.8998C16.3603 17.8998 16.2603 17.8798 16.1703 17.8398L10.4003 15.3798C10.0203 15.2198 9.84034 14.7798 10.0003 14.3998C10.1603 14.0198 10.6103 13.8398 10.9803 13.9998L16.7503 16.4598C17.1303 16.6198 17.3103 17.0598 17.1503 17.4398C17.0303 17.7298 16.7503 17.8998 16.4603 17.8998Z" fill="white"/> <path d="M11.1802 17.3399C10.8502 17.3399 10.5402 17.1199 10.4502 16.7799L9.96017 14.8799C9.86017 14.4799 10.1002 14.0699 10.5002 13.9699C10.9002 13.8699 11.3102 14.1099 11.4102 14.5099L11.9002 16.4099C12.0002 16.8099 11.7602 17.2199 11.3602 17.3199C11.3002 17.3399 11.2402 17.3399 11.1702 17.3399H11.1802Z" fill="white"/> <path d="M10.7004 15.43C10.4304 15.43 10.1704 15.28 10.0404 15.03C9.85045 14.66 9.99045 14.21 10.3504 14.02L12.0904 13.1C12.4604 12.9 12.9104 13.05 13.1004 13.41C13.2904 13.78 13.1504 14.23 12.7904 14.42L11.0504 15.34C10.9404 15.4 10.8204 15.43 10.7004 15.43Z" fill="white"/> <path fill-rule="evenodd" clip-rule="evenodd" d="M8.68006 7.45973C9.02006 7.45973 9.30006 7.17973 9.30006 6.83973C9.30006 6.49973 9.02006 6.21973 8.68006 6.21973C8.34006 6.21973 8.06006 6.49973 8.06006 6.83973C8.06006 7.17973 8.34006 7.45973 8.68006 7.45973Z" fill="white"/> <path fill-rule="evenodd" clip-rule="evenodd" d="M15.9403 13.1902C16.2803 13.1902 16.5603 12.9102 16.5603 12.5702C16.5603 12.2302 16.2803 11.9502 15.9403 11.9502C15.6003 11.9502 15.3203 12.2302 15.3203 12.5702C15.3203 12.9102 15.6003 13.1902 15.9403 13.1902Z" fill="white"/> <path fill-rule="evenodd" clip-rule="evenodd" d="M6.0702 17.6697C6.4102 17.6697 6.6902 17.3897 6.6902 17.0497C6.6902 16.7097 6.4102 16.4297 6.0702 16.4297C5.7302 16.4297 5.4502 16.7097 5.4502 17.0497C5.4502 17.3897 5.7302 17.6697 6.0702 17.6697Z" fill="white"/> <path d="M19.0604 18.4099C19.4028 18.4099 19.6804 18.1323 19.6804 17.7899C19.6804 17.4475 19.4028 17.1699 19.0604 17.1699C18.718 17.1699 18.4404 17.4475 18.4404 17.7899C18.4404 18.1323 18.718 18.4099 19.0604 18.4099Z" fill="white"/> <path d="M19.3002 7.61988C19.6426 7.61988 19.9202 7.3423 19.9202 6.99988C19.9202 6.65747 19.6426 6.37988 19.3002 6.37988C18.9578 6.37988 18.6802 6.65747 18.6802 6.99988C18.6802 7.3423 18.9578 7.61988 19.3002 7.61988Z" fill="white"/> </g> <defs> <clipPath id="clip0_2085_386419"> <rect width="24" height="24" fill="white"/> </clipPath> </defs> </svg>
