<svg width="24" height="24" viewBox="0 0 24 24" fill="none" xmlns="http://www.w3.org/2000/svg"> <g clip-path="url(#clip0_2085_381564)"> <path d="M13.3998 10.75C13.3098 10.75 13.2098 10.73 13.1198 10.7C12.7398 10.55 12.5498 10.11 12.6998 9.73004L13.8998 6.73004C14.0498 6.35004 14.4898 6.16004 14.8698 6.31004C15.2498 6.46004 15.4398 6.90004 15.2898 7.28004L14.0898 10.28C13.9698 10.57 13.6898 10.75 13.3898 10.75H13.3998Z" fill="white"/> <path d="M9.39981 10.75C9.30981 10.75 9.20981 10.73 9.11981 10.7C8.73981 10.55 8.54981 10.11 8.69981 9.72996L9.89981 6.72996C10.0498 6.33996 10.4898 6.15996 10.8698 6.30996C11.2498 6.45996 11.4398 6.89996 11.2898 7.27996L10.0898 10.28C9.96981 10.57 9.68981 10.75 9.38981 10.75H9.39981Z" fill="white"/> <path d="M16.6599 22.5801H7.26995C5.78995 22.5801 4.54995 21.5201 4.31995 20.0501L3.40995 14.1301C3.34995 13.7201 3.62995 13.3401 4.03995 13.2701C4.45995 13.2101 4.82995 13.4901 4.89995 13.9001L5.80995 19.8201C5.91995 20.5501 6.53995 21.0701 7.26995 21.0701H16.6499C17.3899 21.0701 17.9999 20.5401 18.1099 19.8201L19.0199 13.9001C19.0799 13.4901 19.4599 13.2101 19.8799 13.2701C20.2899 13.3301 20.5699 13.7201 20.5099 14.1301L19.5999 20.0501C19.3699 21.5101 18.1399 22.5801 16.6499 22.5801H16.6599Z" fill="white"/> <path d="M19.8199 14.7701H4.09992C2.48992 14.7701 1.16992 13.4601 1.16992 11.8501V11.7401C1.16992 10.3601 2.12992 9.20006 3.41992 8.89006C4.06992 4.73006 7.70992 1.56006 11.9599 1.56006C16.2099 1.56006 19.8599 4.73006 20.4999 8.89006C21.7899 9.20006 22.7499 10.3601 22.7499 11.7401V11.8501C22.7499 13.4601 21.4399 14.7701 19.8199 14.7701ZM11.9599 3.06006C8.26992 3.06006 5.14992 5.94006 4.84992 9.62006C4.81992 10.0101 4.48992 10.3101 4.09992 10.3101C3.30992 10.3101 2.66992 10.9501 2.66992 11.7401V11.8501C2.66992 12.6401 3.30992 13.2701 4.09992 13.2701H19.8199C20.6099 13.2701 21.2499 12.6301 21.2499 11.8501V11.7401C21.2499 10.9501 20.6099 10.3101 19.8199 10.3101C19.4299 10.3101 19.0999 10.0101 19.0699 9.62006C18.7699 5.94006 15.6499 3.06006 11.9599 3.06006Z" fill="white"/> </g> <defs> <clipPath id="clip0_2085_381564"> <rect width="24" height="24" fill="white"/> </clipPath> </defs> </svg>
