<svg width="24" height="24" viewBox="0 0 24 24" fill="none" xmlns="http://www.w3.org/2000/svg"> <g clip-path="url(#clip0_2085_386499)"> <path d="M12.0001 8.92957C11.6101 8.92957 11.3001 8.61957 11.3001 8.22957V7.01957V6.99957C11.2901 6.27957 11.0901 5.55957 10.7301 4.93957L10.3201 4.22957C10.1501 3.93957 10.0601 3.59957 10.0601 3.25957C10.0601 2.18957 10.9301 1.30957 12.0101 1.30957C13.0901 1.30957 13.9601 2.17957 13.9601 3.25957C13.9601 3.60957 13.8701 3.93957 13.7001 4.23957L13.2901 4.94957C12.9301 5.57957 12.7301 6.28957 12.7201 7.00957V8.23957C12.7201 8.62957 12.4101 8.93957 12.0201 8.93957L12.0001 8.92957ZM12.0001 2.69957C11.7001 2.69957 11.4601 2.93957 11.4601 3.23957C11.4601 3.33957 11.4801 3.42957 11.5301 3.50957L11.9401 4.21957C11.9401 4.21957 11.9801 4.28957 12.0001 4.31957C12.0201 4.27957 12.0401 4.24957 12.0601 4.21957L12.4701 3.50957C12.5201 3.42957 12.5401 3.33957 12.5401 3.23957C12.5401 2.93957 12.3001 2.69957 12.0001 2.69957Z" fill="white"/> <path d="M14.4299 13.3891C13.9299 13.3891 13.3899 13.2091 12.8599 12.8591C12.5399 12.6491 12.4499 12.2091 12.6599 11.8891C12.8699 11.5691 13.3099 11.4791 13.6299 11.6891C14.0499 11.9691 14.4599 12.0591 14.6899 11.9191C14.8999 11.7991 15.0199 11.4891 15.0299 11.0691C15.0299 10.5191 14.8399 9.85914 14.4999 9.24914C13.7799 7.99914 12.7399 7.51914 12.3099 7.72914C12.1099 7.82914 11.8799 7.82914 11.6899 7.72914C11.2599 7.51914 10.2299 7.99914 9.49986 9.24914C9.14986 9.84914 8.95986 10.5091 8.96986 11.0691C8.96986 11.4891 9.09986 11.7991 9.30986 11.9191C9.53986 12.0591 9.94986 11.9691 10.3699 11.6891C10.6999 11.4791 11.1299 11.5691 11.3399 11.8891C11.5499 12.2091 11.4599 12.6491 11.1399 12.8591C10.2499 13.4491 9.31986 13.5491 8.59986 13.1291C7.95986 12.7591 7.57986 12.0091 7.55986 11.0791C7.54986 10.2691 7.79986 9.36914 8.27986 8.53914C9.23986 6.87914 10.7799 5.98914 11.9999 6.33914C13.2199 5.98914 14.7599 6.87914 15.7199 8.53914C16.1999 9.36914 16.4499 10.2691 16.4399 11.0791C16.4199 12.0091 16.0499 12.7491 15.3999 13.1291C15.1099 13.2991 14.7799 13.3791 14.4299 13.3791V13.3891Z" fill="white"/> <path d="M8.26982 20.2093C7.87982 20.2093 7.56982 19.8993 7.56982 19.5093C7.56982 19.1193 7.87982 18.8093 8.26982 18.8093C8.56982 18.8093 8.80982 18.5693 8.80982 18.2693V12.6893C8.80982 12.2993 9.11982 11.9893 9.50982 11.9893C9.89982 11.9893 10.2098 12.2993 10.2098 12.6893V18.2693C10.2098 19.3393 9.33982 20.2193 8.25982 20.2193L8.26982 20.2093Z" fill="white"/> <path d="M15.7298 20.2095C14.6598 20.2095 13.7798 19.3395 13.7798 18.2595V12.6795C13.7798 12.2895 14.0898 11.9795 14.4798 11.9795C14.8698 11.9795 15.1798 12.2895 15.1798 12.6795V18.2595C15.1798 18.5595 15.4198 18.7995 15.7198 18.7995C16.1098 18.7995 16.4198 19.1095 16.4198 19.4995C16.4198 19.8895 16.1098 20.1995 15.7198 20.1995L15.7298 20.2095Z" fill="white"/> <path d="M17.0299 22.6999H6.96993C6.29993 22.6999 5.69993 22.3199 5.41993 21.7299C5.10993 21.0599 4.99993 20.3199 5.10993 19.5799C5.35993 17.8199 6.89993 16.4199 8.67993 16.3199C8.99993 16.2999 9.32993 16.3199 9.64993 16.3899C10.0299 16.4699 10.2799 16.8399 10.1999 17.2199C10.1199 17.5999 9.74993 17.8499 9.36993 17.7699C9.16993 17.7299 8.95993 17.7099 8.75993 17.7199C7.62993 17.7799 6.65993 18.6599 6.50993 19.7699C6.43993 20.2399 6.50993 20.7099 6.69993 21.1299C6.73993 21.2199 6.84993 21.2899 6.96993 21.2899H17.0299C17.1499 21.2899 17.2599 21.2299 17.2999 21.1299C17.4899 20.7099 17.5599 20.2399 17.4899 19.7699C17.3299 18.6599 16.3599 17.7799 15.2399 17.7199C15.0299 17.7099 14.8299 17.7199 14.6299 17.7699C14.2499 17.8499 13.8799 17.5999 13.7999 17.2199C13.7199 16.8399 13.9699 16.4699 14.3499 16.3899C14.6699 16.3299 14.9899 16.2999 15.3199 16.3199C17.1099 16.4099 18.6399 17.8099 18.8899 19.5799C18.9899 20.3199 18.8899 21.0599 18.5799 21.7299C18.3099 22.3199 17.6999 22.6999 17.0299 22.6999Z" fill="white"/> <path d="M8.27014 6.43938C8.09014 6.43938 7.91014 6.36938 7.77014 6.22938L6.53014 4.98937C6.26014 4.71937 6.26014 4.26938 6.53014 3.99938C6.80014 3.72938 7.25014 3.72938 7.52014 3.99938L8.76014 5.23937C9.03014 5.50937 9.03014 5.95938 8.76014 6.22938C8.62014 6.36938 8.44014 6.43938 8.26014 6.43938H8.27014Z" fill="white"/> <path d="M15.7298 6.43938C15.5498 6.43938 15.3698 6.36938 15.2298 6.22938C14.9598 5.95938 14.9598 5.50937 15.2298 5.23937L16.4698 3.99938C16.7398 3.72938 17.1898 3.72938 17.4598 3.99938C17.7298 4.26938 17.7298 4.71937 17.4598 4.98937L16.2198 6.22938C16.0798 6.36938 15.8998 6.43938 15.7198 6.43938H15.7298Z" fill="white"/> </g> <defs> <clipPath id="clip0_2085_386499"> <rect width="24" height="24" fill="white"/> </clipPath> </defs> </svg>
