<svg width="24" height="24" viewBox="0 0 24 24" fill="none" xmlns="http://www.w3.org/2000/svg"> <g clip-path="url(#clip0_2085_390662)"> <path d="M9.9998 22.7H9.9598C6.8398 22.68 4.2998 20.09 4.2998 16.93V8.73004C4.2998 4.64004 7.5898 1.30004 11.6398 1.29004H11.6698C13.6298 1.29004 15.4798 2.05004 16.8698 3.44004C18.2698 4.83004 19.0398 6.69004 19.0398 8.66004C19.0398 10.63 18.3098 12.38 16.9898 13.76C16.1598 14.63 15.6998 15.76 15.7098 16.95C15.7098 18.52 15.1098 19.96 14.0198 21.04C12.9398 22.11 11.5198 22.7 9.9998 22.7ZM11.6698 2.70004H11.6498C8.3698 2.71004 5.7098 5.42004 5.7098 8.74004V16.94C5.7098 19.33 7.6198 21.28 9.9698 21.3H9.9998C11.1398 21.3 12.2198 20.86 13.0298 20.05C13.8498 19.24 14.2998 18.15 14.2998 17C14.2898 15.41 14.8798 13.93 15.9698 12.79C17.0398 11.67 17.6298 10.21 17.6298 8.66004C17.6298 7.11004 17.0098 5.56004 15.8798 4.44004C14.7498 3.32004 13.2598 2.70004 11.6698 2.70004Z" fill="white"/> <path d="M9.7998 20.2C8.3798 20.2 7.2198 19.04 7.2198 17.62V17C7.2198 16.61 7.5298 16.3 7.9198 16.3C8.3098 16.3 8.6198 16.61 8.6198 17V17.62C8.6198 18.27 9.1498 18.79 9.7898 18.79C10.4298 18.79 10.9598 18.26 10.9598 17.62C10.9598 15.15 12.0298 12.89 13.8998 11.31C14.6998 10.64 15.1398 9.66 15.1298 8.61C15.0998 6.75 13.5698 5.22 11.7198 5.2C10.7498 5.16 9.8998 5.54 9.2398 6.2C8.8498 6.58 8.5598 7.04 8.3898 7.55H8.4198C9.9098 7.55 11.1198 8.76 11.1198 10.25C11.1198 11.42 10.1698 12.39 8.9998 12.41C8.3898 12.4 7.8698 12.2 7.4598 11.79C7.0398 11.38 6.7998 10.8 6.7998 10.22V8.67C6.7998 7.36 7.3198 6.13 8.2498 5.2C9.1898 4.28 10.4298 3.76 11.7398 3.8C14.3498 3.84 16.4998 5.99 16.5398 8.6C16.5598 10.07 15.9298 11.45 14.8098 12.39C13.2598 13.7 12.3698 15.58 12.3698 17.54C12.3698 19.05 11.2098 20.21 9.7898 20.21L9.7998 20.2ZM8.2098 8.95V10.22C8.2098 10.43 8.2998 10.64 8.4498 10.79C8.5998 10.93 8.7998 11 8.9798 11.01C9.3898 11.01 9.7198 10.66 9.7198 10.26C9.7198 9.55 9.1398 8.96 8.4198 8.96H8.2098V8.95Z" fill="white"/> <path d="M14.7296 6.55023C14.5296 6.55023 14.3396 6.47023 14.1996 6.31023C13.9396 6.02023 13.9696 5.57023 14.2696 5.32023L16.8496 3.07023C17.1396 2.81023 17.5896 2.84023 17.8396 3.14023C18.0996 3.43023 18.0696 3.88023 17.7696 4.13023L15.1896 6.38023C15.0596 6.50023 14.8896 6.55023 14.7296 6.55023Z" fill="white"/> <path d="M15.7196 8.39012C15.3896 8.39012 15.0996 8.16012 15.0296 7.82012C14.9496 7.44012 15.1996 7.07012 15.5796 6.99012L18.8596 6.34012C19.2396 6.26012 19.6096 6.51012 19.6896 6.89012C19.7696 7.27012 19.5196 7.64012 19.1396 7.72012L15.8596 8.37012C15.8596 8.37012 15.7696 8.38012 15.7196 8.38012V8.39012Z" fill="white"/> <path d="M18.82 11.5604C18.75 11.5604 18.69 11.5604 18.62 11.5304L15.44 10.6004C15.07 10.4904 14.85 10.1004 14.96 9.73045C15.07 9.36045 15.46 9.15045 15.83 9.25045L19.01 10.1804C19.38 10.2904 19.6 10.6804 19.49 11.0504C19.4 11.3604 19.12 11.5604 18.82 11.5604Z" fill="white"/> </g> <defs> <clipPath id="clip0_2085_390662"> <rect width="24" height="24" fill="white"/> </clipPath> </defs> </svg>
