<svg width="24" height="24" viewBox="0 0 24 24" fill="none" xmlns="http://www.w3.org/2000/svg"> <g clip-path="url(#clip0_2085_386005)"> <path d="M15.23 14.7001C14.94 14.7001 14.64 14.6401 14.36 14.5301C13.66 14.2401 13.15 13.6201 13.01 12.8801C12.83 11.9801 13.21 11.0701 13.97 10.5601C14.6 10.1401 15.4 10.0601 16.1 10.3501C16.8 10.6401 17.31 11.2601 17.45 12.0001C17.63 12.9001 17.25 13.8101 16.49 14.3201C16.11 14.5701 15.67 14.7001 15.23 14.7001ZM15.23 11.6701C15.08 11.6701 14.94 11.7101 14.81 11.8001C14.55 11.9701 14.43 12.2801 14.48 12.5801C14.53 12.8401 14.7 13.0401 14.94 13.1401C15.18 13.2401 15.44 13.2101 15.66 13.0701C15.92 12.9001 16.04 12.5901 15.99 12.2901C15.94 12.0301 15.77 11.8301 15.53 11.7301C15.43 11.6901 15.33 11.6701 15.24 11.6701H15.23Z" fill="white"/> <path d="M16.4201 20.9402C16.1301 20.9402 15.8301 20.8802 15.5501 20.7702L9.10012 18.1002C7.95012 17.6202 7.40012 16.3002 7.87012 15.1402L11.9301 5.33023C12.1601 4.77023 12.6001 4.34023 13.1601 4.10023C13.7201 3.87023 14.3301 3.87023 14.8901 4.10023L21.3401 6.77023C22.4901 7.25023 23.0401 8.57023 22.5701 9.73023L18.5101 19.5402C18.2801 20.1002 17.8401 20.5302 17.2901 20.7702C17.0101 20.8902 16.7201 20.9402 16.4201 20.9402ZM14.0401 5.43023C13.9401 5.43023 13.8401 5.45023 13.7501 5.49023C13.5601 5.57023 13.4201 5.71023 13.3401 5.90023L9.28012 15.7102C9.12012 16.1002 9.30012 16.5502 9.69012 16.7102L16.1401 19.3802C16.3301 19.4602 16.5401 19.4602 16.7201 19.3802C16.9101 19.3002 17.0501 19.1602 17.1301 18.9702L21.1901 9.16023C21.3501 8.77023 21.1701 8.32023 20.7801 8.16023L14.3301 5.49023C14.2401 5.45023 14.1401 5.43023 14.0401 5.43023Z" fill="white"/> <path d="M8.34 17.6001C8.26 17.6001 8.17 17.5901 8.09 17.5601C7.94 17.5101 7.8 17.4501 7.67 17.3701C6.79 16.8901 6.25 15.9601 6.25 14.9601V4.88012C6.25 3.63012 7.27 2.62012 8.51 2.62012H15.49C16.74 2.62012 17.75 3.64012 17.75 4.88012V5.79012C17.75 6.20012 17.41 6.54012 17 6.54012C16.59 6.54012 16.25 6.20012 16.25 5.79012V4.88012C16.25 4.46012 15.91 4.12012 15.49 4.12012H8.51C8.09 4.12012 7.75 4.46012 7.75 4.88012V14.9601C7.75 15.4201 8 15.8401 8.4 16.0601C8.46 16.0901 8.52 16.1201 8.59 16.1501C8.98 16.2901 9.19 16.7101 9.05 17.1101C8.94 17.4201 8.65 17.6101 8.34 17.6101V17.6001Z" fill="white"/> <path d="M7.58008 20.7501C6.69008 20.7501 5.84008 20.2201 5.48008 19.3501L1.42008 9.54009C0.940082 8.39009 1.49008 7.06009 2.65008 6.58009L6.71008 4.90009C7.09008 4.74009 7.53008 4.92009 7.69008 5.31009C7.85008 5.69009 7.67008 6.13009 7.28008 6.29009L3.21008 7.97009C2.82008 8.13009 2.63008 8.58009 2.80008 8.97009L6.86008 18.7801C7.02008 19.1701 7.47008 19.3501 7.86008 19.1901L11.4701 17.6901C11.8501 17.5301 12.2901 17.7101 12.4501 18.1001C12.6101 18.4801 12.4301 18.9201 12.0401 19.0801L8.43008 20.5801C8.15008 20.7001 7.85008 20.7501 7.57008 20.7501H7.58008Z" fill="white"/> </g> <defs> <clipPath id="clip0_2085_386005"> <rect width="24" height="24" fill="white"/> </clipPath> </defs> </svg>
