<svg width="24" height="24" viewBox="0 0 24 24" fill="none" xmlns="http://www.w3.org/2000/svg"> <g clip-path="url(#clip0_2085_386007)"> <path d="M15.64 22.7499H7C3.83 22.7499 1.25 20.1699 1.25 16.9999V8.35988C1.25 6.43988 2.81 4.87988 4.73 4.87988C5.14 4.87988 5.48 5.21988 5.48 5.62988C5.48 6.03988 5.14 6.37988 4.73 6.37988C3.64 6.37988 2.75 7.26988 2.75 8.35988V16.9999C2.75 19.3399 4.66 21.2499 7 21.2499H15.64C16.73 21.2499 17.62 20.3599 17.62 19.2699C17.62 18.8599 17.96 18.5199 18.37 18.5199C18.78 18.5199 19.12 18.8599 19.12 19.2699C19.12 21.1899 17.56 22.7499 15.64 22.7499Z" fill="white"/> <path d="M19.27 20.02H7.45998C5.53998 20.02 3.97998 18.46 3.97998 16.54V4.73C3.97998 2.81 5.53998 1.25 7.45998 1.25H19.28C21.2 1.25 22.76 2.81 22.76 4.73V16.55C22.76 18.47 21.2 20.03 19.28 20.03L19.27 20.02ZM7.45998 2.75C6.36998 2.75 5.47998 3.64 5.47998 4.73V16.55C5.47998 17.64 6.36998 18.53 7.45998 18.53H19.28C20.37 18.53 21.26 17.64 21.26 16.55V4.73C21.26 3.64 20.37 2.75 19.28 2.75H7.45998Z" fill="white"/> <path d="M13.73 15.48H13C12.04 15.48 11.25 14.69 11.25 13.73V13C11.25 12.86 11.14 12.75 11 12.75H10.27C9.31002 12.75 8.52002 11.96 8.52002 11V10.27C8.52002 9.31004 9.31002 8.52004 10.27 8.52004H11C11.14 8.52004 11.25 8.41004 11.25 8.27004V7.54004C11.25 6.58004 12.04 5.79004 13 5.79004H13.73C14.69 5.79004 15.48 6.58004 15.48 7.54004V8.27004C15.48 8.41004 15.59 8.52004 15.73 8.52004H16.46C17.42 8.52004 18.21 9.31004 18.21 10.27V11C18.21 11.96 17.42 12.75 16.46 12.75H15.73C15.59 12.75 15.48 12.86 15.48 13V13.73C15.48 14.69 14.69 15.48 13.73 15.48ZM10.27 10.02C10.13 10.02 10.02 10.13 10.02 10.27V11C10.02 11.14 10.13 11.25 10.27 11.25H11C11.96 11.25 12.75 12.04 12.75 13V13.73C12.75 13.87 12.86 13.98 13 13.98H13.73C13.87 13.98 13.98 13.87 13.98 13.73V13C13.98 12.04 14.77 11.25 15.73 11.25H16.46C16.6 11.25 16.71 11.14 16.71 11V10.27C16.71 10.13 16.6 10.02 16.46 10.02H15.73C14.77 10.02 13.98 9.23004 13.98 8.27004V7.54004C13.98 7.40004 13.87 7.29004 13.73 7.29004H13C12.86 7.29004 12.75 7.40004 12.75 7.54004V8.27004C12.75 9.23004 11.96 10.02 11 10.02H10.27Z" fill="white"/> </g> <defs> <clipPath id="clip0_2085_386007"> <rect width="24" height="24" fill="white"/> </clipPath> </defs> </svg>
