<svg width="24" height="24" viewBox="0 0 24 24" fill="none" xmlns="http://www.w3.org/2000/svg"> <g clip-path="url(#clip0_4482_5410)"> <path d="M15.0002 22.7498H9.71023C8.33023 22.7498 7.03023 22.0798 6.23023 20.9598L2.29023 15.4498C1.58023 14.4498 1.56023 13.0998 2.24023 12.0798C2.74023 11.3398 3.53023 10.8598 4.42023 10.7698C5.31023 10.6798 6.18023 10.9898 6.81023 11.6298L7.14023 11.9598V4.35977C7.14023 2.64977 8.53023 1.25977 10.2402 1.25977C11.9502 1.25977 13.3402 2.64977 13.3402 4.35977V8.28976C13.3402 8.39976 13.4202 8.49977 13.5302 8.52977L17.9502 9.68977C19.6002 10.1198 20.7502 11.6098 20.7502 13.3198V16.9998C20.7502 20.1698 18.1702 22.7498 15.0002 22.7498ZM4.71023 12.2498C4.66023 12.2498 4.61023 12.2498 4.56023 12.2598C4.12023 12.2998 3.73023 12.5398 3.48023 12.9098C3.14023 13.4098 3.15023 14.0898 3.51023 14.5798L7.45023 20.0898C7.97023 20.8198 8.82023 21.2498 9.71023 21.2498H15.0002C17.3402 21.2498 19.2502 19.3398 19.2502 16.9998V13.3098C19.2502 12.2898 18.5602 11.3898 17.5702 11.1298L13.1502 9.96977C12.3802 9.76977 11.8402 9.06977 11.8402 8.27977V4.34978C11.8402 3.46978 11.1202 2.74977 10.2402 2.74977C9.36023 2.74977 8.64023 3.46978 8.64023 4.34978V13.7598C8.64023 14.0598 8.46023 14.3398 8.18023 14.4498C7.90023 14.5698 7.58023 14.4998 7.36023 14.2898L5.75023 12.6798C5.47023 12.3998 5.10023 12.2498 4.71023 12.2498Z" fill="white"/> </g> <defs> <clipPath id="clip0_4482_5410"> <rect width="24" height="24" fill="white"/> </clipPath> </defs> </svg>
