<svg width="24" height="24" viewBox="0 0 24 24" fill="none" xmlns="http://www.w3.org/2000/svg"> <g clip-path="url(#clip0_4482_15929)"> <path d="M14.7796 11.6398H9.22957C7.89957 11.6398 6.80957 10.5598 6.80957 9.2198C6.80957 7.8798 7.88957 6.7998 9.22957 6.7998H14.7796C16.1096 6.7998 17.1996 7.8798 17.1996 9.2198C17.1996 10.5598 16.1196 11.6398 14.7796 11.6398ZM9.22957 8.3098C8.71957 8.3098 8.30957 8.7198 8.30957 9.2298C8.30957 9.7398 8.71957 10.1498 9.22957 10.1498H14.7796C15.2896 10.1498 15.6996 9.7398 15.6996 9.2298C15.6996 8.7198 15.2896 8.3098 14.7796 8.3098H9.22957Z" fill="white"/> <path d="M14.9399 8.30977C14.8799 8.30977 14.8299 8.30977 14.7699 8.28977C14.3699 8.19977 14.1099 7.79977 14.2099 7.38977L15.0699 3.62977L13.8499 3.98977C13.5999 4.05977 13.3299 3.99977 13.1399 3.82977L11.9999 2.81977L10.8599 3.82977C10.6699 3.99977 10.3999 4.05977 10.1499 3.98977L8.92988 3.62977L9.78988 7.38977C9.87988 7.78977 9.62988 8.19977 9.22988 8.28977C8.82988 8.37977 8.42988 8.12977 8.32988 7.72977L7.39988 3.63977C7.29988 3.19977 7.43988 2.71977 7.76988 2.39977C8.11988 2.07977 8.59988 1.95977 9.03988 2.09977L10.1799 2.43977L11.1299 1.58977C11.6299 1.14977 12.3699 1.14977 12.8699 1.58977L13.8199 2.43977L14.9599 2.09977C15.3999 1.96977 15.8799 2.07977 16.2199 2.39977C16.5599 2.72977 16.6999 3.19977 16.5999 3.64977L15.6699 7.72977C15.5899 8.07977 15.2799 8.30977 14.9399 8.30977Z" fill="white"/> <path d="M15.3298 18.7497C14.9698 18.7497 14.6498 18.4897 14.5898 18.1197L13.4798 11.0097C13.4198 10.5997 13.6998 10.2197 14.1098 10.1497C14.5298 10.0897 14.8998 10.3697 14.9698 10.7797L16.0798 17.8897C16.1398 18.2997 15.8598 18.6797 15.4498 18.7497C15.4098 18.7497 15.3698 18.7497 15.3298 18.7497Z" fill="white"/> <path d="M8.6702 18.7497C8.6702 18.7497 8.5902 18.7497 8.5502 18.7497C8.1402 18.6897 7.8602 18.2997 7.9202 17.8897L9.0302 10.7797C9.0902 10.3697 9.4802 10.0897 9.8902 10.1497C10.3002 10.2097 10.5802 10.5997 10.5202 11.0097L9.4102 18.1197C9.3502 18.4897 9.0302 18.7497 8.6702 18.7497Z" fill="white"/> <path d="M18 22.75H6C4.48 22.75 3.25 21.52 3.25 20C3.25 18.48 4.48 17.25 6 17.25H18C19.52 17.25 20.75 18.48 20.75 20C20.75 21.52 19.52 22.75 18 22.75ZM6 18.75C5.31 18.75 4.75 19.31 4.75 20C4.75 20.69 5.31 21.25 6 21.25H18C18.69 21.25 19.25 20.69 19.25 20C19.25 19.31 18.69 18.75 18 18.75H6Z" fill="white"/> </g> <defs> <clipPath id="clip0_4482_15929"> <rect width="24" height="24" fill="white"/> </clipPath> </defs> </svg>
