<svg width="24" height="24" viewBox="0 0 24 24" fill="none" xmlns="http://www.w3.org/2000/svg"> <g clip-path="url(#clip0_2085_390850)"> <path d="M17.38 13.6309C17.16 13.6309 16.94 13.5509 16.77 13.3809C16.44 13.0509 16.44 12.5009 16.77 12.1709L20.78 8.16086L16.77 4.15086C16.44 3.82086 16.44 3.27086 16.77 2.94086C17.1 2.61086 17.65 2.61086 17.98 2.94086L22.6 7.56086C22.93 7.89086 22.93 8.44086 22.6 8.77086L17.98 13.3909C17.81 13.5609 17.59 13.6409 17.37 13.6409L17.38 13.6309Z" fill="white"/> <path d="M15.8499 21.3208H8.1599C6.2899 21.3208 4.5299 20.5908 3.1999 19.2708C1.8799 17.9508 1.1499 16.1908 1.1499 14.3108C1.1499 12.4308 1.8799 10.6808 3.1999 9.35078C4.5199 8.03078 6.2899 7.30078 8.1599 7.30078H22.0099C22.4799 7.30078 22.8699 7.68078 22.8699 8.16078C22.8699 8.64078 22.4899 9.02078 22.0099 9.02078H8.1599C6.7499 9.02078 5.4199 9.57078 4.4099 10.5708C3.4199 11.5608 2.8599 12.9208 2.8599 14.3108C2.8599 15.7008 3.4099 17.0608 4.4099 18.0608C5.4099 19.0608 6.7399 19.6108 8.1599 19.6108H15.8499C16.3199 19.6108 16.7099 19.9908 16.7099 20.4708C16.7099 20.9508 16.3299 21.3308 15.8499 21.3308V21.3208Z" fill="white"/> </g> <defs> <clipPath id="clip0_2085_390850"> <rect width="24" height="24" fill="white"/> </clipPath> </defs> </svg>
