<svg width="24" height="24" viewBox="0 0 24 24" fill="none" xmlns="http://www.w3.org/2000/svg"> <g clip-path="url(#clip0_2085_390305)"> <path d="M16.51 10.35C16.16 10.35 15.82 10.06 15.74 9.72C15.42 8.13 14.18 6.89 12.59 6.56C12.24 6.49 11.97 6.16 11.96 5.8C11.96 5.44 12.23 5.1 12.58 5.02C14.18 4.69 15.41 3.46 15.74 1.87C15.82 1.52 16.15 1.25 16.51 1.25C16.87 1.25 17.2 1.52 17.28 1.87C17.61 3.47 18.84 4.7 20.43 5.03C20.78 5.1 21.06 5.45 21.06 5.81C21.06 6.17 20.77 6.5 20.42 6.57C18.84 6.89 17.6 8.13 17.28 9.72C17.21 10.07 16.87 10.35 16.51 10.35ZM14.8177 5.71269C14.7552 5.7536 14.7552 5.8464 14.8177 5.88726C15.4609 6.30802 16.0093 6.85615 16.4228 7.49142C16.4636 7.55411 16.5566 7.55428 16.5976 7.49169C17.0183 6.84877 17.5663 6.30055 18.2014 5.88721C18.2641 5.8464 18.2642 5.75332 18.2017 5.71236C17.5586 5.29153 17.0103 4.74292 16.5969 4.10001C16.5564 4.03687 16.4628 4.03643 16.4218 4.09928C16.0016 4.74267 15.4602 5.29166 14.8177 5.71269Z" fill="white"/> <path d="M12.58 14.8099C12.06 14.8099 11.63 14.4599 11.53 13.9499C11.44 13.4899 11.07 13.1199 10.61 13.0299C10.11 12.9299 9.75 12.4899 9.75 11.9799C9.75 11.4699 10.1 11.0299 10.61 10.9299C11.08 10.8299 11.44 10.4699 11.53 10.0099C11.63 9.5099 12.06 9.1499 12.58 9.1499C13.1 9.1499 13.53 9.4999 13.63 10.0099C13.72 10.4699 14.09 10.8399 14.55 10.9299C15.05 11.0299 15.41 11.4699 15.41 11.9799C15.41 12.4899 15.06 12.9299 14.55 13.0299C14.08 13.1299 13.72 13.4899 13.63 13.9499C13.53 14.4499 13.1 14.8099 12.58 14.8099ZM12.0072 11.8829C11.9519 11.9262 11.9529 12.0121 12.0087 12.0548C12.191 12.1942 12.3533 12.3613 12.4957 12.5455C12.538 12.6003 12.622 12.6003 12.6646 12.5457C12.8081 12.3617 12.9718 12.198 13.1558 12.0545C13.2104 12.0119 13.2104 11.9279 13.1558 11.8853C12.9718 11.7418 12.8081 11.5781 12.6646 11.3941C12.622 11.3395 12.538 11.3395 12.4954 11.3941C12.3527 11.5771 12.19 11.74 12.0072 11.8829Z" fill="white"/> <path d="M21.4902 22.7502C21.3002 22.7502 21.1102 22.6802 20.9602 22.5302L17.6116 19.1816C17.5487 19.1188 17.4478 19.1154 17.3794 19.1722C13.5593 22.3463 7.86224 22.1423 4.28018 18.5602C2.44018 16.7202 1.43018 14.2802 1.43018 11.6802C1.43018 9.0802 2.44018 6.6302 4.28018 4.8002C6.12018 2.9702 8.39018 2.0202 10.8802 1.9502C11.2802 1.9502 11.6402 2.2602 11.6502 2.6802C11.6602 3.1002 11.3402 3.4402 10.9202 3.4502C8.81018 3.5102 6.83018 4.3702 5.34018 5.8602C3.85018 7.3502 2.93018 9.4802 2.93018 11.6802C2.93018 13.8802 3.79018 15.9502 5.34018 17.5002C8.55018 20.7102 13.7802 20.7102 16.9902 17.5002C18.6102 15.8802 19.4602 13.7302 19.4002 11.4402C19.3902 11.0302 19.7102 10.6802 20.1302 10.6702C20.5302 10.6702 20.8902 10.9802 20.9002 11.4002C20.9687 13.7675 20.1568 16.0869 18.6611 17.8999C18.6047 17.9683 18.6085 18.0685 18.6712 18.1312L22.0202 21.4802C22.3102 21.7702 22.3102 22.2502 22.0202 22.5402C21.8702 22.6902 21.6802 22.7602 21.4902 22.7602V22.7502Z" fill="white"/> </g> <defs> <clipPath id="clip0_2085_390305"> <rect width="24" height="24" fill="white"/> </clipPath> </defs> </svg>
