<svg width="24" height="24" viewBox="0 0 24 24" fill="none" xmlns="http://www.w3.org/2000/svg"> <g clip-path="url(#clip0_4482_3550)"> <path d="M16 22.75H8C4.83 22.75 2.25 20.17 2.25 17V12C2.25 8.83 4.83 6.25 8 6.25H16C19.17 6.25 21.75 8.83 21.75 12V17C21.75 20.17 19.17 22.75 16 22.75ZM8 7.75C5.66 7.75 3.75 9.66 3.75 12V17C3.75 19.34 5.66 21.25 8 21.25H16C18.34 21.25 20.25 19.34 20.25 17V12C20.25 9.66 18.34 7.75 16 7.75H8Z" fill="white"/> <path d="M15.8402 8.75C15.4302 8.75 15.0902 8.41 15.0902 8V5.84C15.0902 4.14 13.7102 2.75 12.0002 2.75C10.2902 2.75 8.91016 4.13 8.91016 5.84V8C8.91016 8.41 8.57016 8.75 8.16016 8.75C7.75016 8.75 7.41016 8.41 7.41016 8V5.84C7.41016 3.31 9.47018 1.25 12.0002 1.25C14.5302 1.25 16.5902 3.31 16.5902 5.84V8C16.5902 8.41 16.2502 8.75 15.8402 8.75Z" fill="white"/> <path d="M10.8299 17.25C10.6399 17.25 10.4398 17.17 10.2998 17.03L8.63986 15.37C8.34986 15.08 8.34986 14.6 8.63986 14.31C8.92986 14.02 9.40986 14.02 9.69986 14.31L10.0799 14.69V12.5C10.0799 12.09 10.4199 11.75 10.8299 11.75C11.2399 11.75 11.5799 12.09 11.5799 12.5V16.5C11.5799 16.8 11.3998 17.08 11.1198 17.19C11.0198 17.23 10.9299 17.25 10.8299 17.25Z" fill="white"/> <path d="M13.1699 17.2499C12.7599 17.2499 12.4199 16.9099 12.4199 16.4999V12.4999C12.4199 12.1999 12.5999 11.9199 12.8799 11.8099C13.1599 11.6999 13.48 11.7599 13.7 11.9699L15.3599 13.6299C15.6499 13.9199 15.6499 14.3999 15.3599 14.6899C15.0699 14.9799 14.5899 14.9799 14.2999 14.6899L13.9199 14.3099V16.4999C13.9199 16.9099 13.5799 17.2499 13.1699 17.2499Z" fill="white"/> </g> <defs> <clipPath id="clip0_4482_3550"> <rect width="24" height="24" fill="white"/> </clipPath> </defs> </svg>
