<svg width="24" height="24" viewBox="0 0 24 24" fill="none" xmlns="http://www.w3.org/2000/svg"> <g clip-path="url(#clip0_4482_5320)"> <path d="M11.9998 16.9698C11.7798 16.9698 11.5698 16.9298 11.3698 16.8398L10.6398 16.5298C8.8798 15.7798 7.69978 14.1298 7.55978 12.2198L7.39981 10.0298C7.34981 9.34985 7.73977 8.70985 8.35977 8.43985L11.1998 7.19984C11.7298 6.96984 12.3298 6.96984 12.8498 7.19984L15.6298 8.43985C16.2498 8.70985 16.6298 9.34985 16.5798 10.0298L16.4198 12.2298C16.2798 14.1398 15.0998 15.7898 13.3398 16.5398L12.6098 16.8499C12.4298 16.9299 12.2098 16.9698 11.9998 16.9698ZM12.0298 8.52985C11.9598 8.52985 11.8798 8.54985 11.8098 8.57985L8.96976 9.81985C8.92976 9.83985 8.89981 9.88984 8.89981 9.92984L9.05978 12.1198C9.15978 13.4598 9.98976 14.6298 11.2298 15.1498L11.9598 15.4599L12.7798 15.1498C14.0198 14.6198 14.8498 13.4598 14.9498 12.1198L15.1098 9.91984C15.1098 9.86984 15.0898 9.82984 15.0398 9.80984L12.2598 8.56985C12.1798 8.53985 12.0998 8.52985 12.0298 8.52985Z" fill="white"/> <path d="M12 22.2502C10.05 22.2502 8.16008 21.7002 6.53008 20.6502C6.18008 20.4302 6.08004 19.9602 6.30004 19.6102C6.52004 19.2602 6.99008 19.1602 7.34008 19.3802C8.73008 20.2702 10.34 20.7402 12 20.7402C16.82 20.7402 20.75 16.8202 20.75 11.9902C20.75 11.3302 20.6801 10.6802 20.5301 10.0502C20.4401 9.65018 20.6901 9.24017 21.0901 9.15017C21.5001 9.06017 21.9 9.31018 21.99 9.71018C22.16 10.4502 22.25 11.2202 22.25 11.9902C22.25 17.6502 17.65 22.2502 12 22.2502Z" fill="white"/> <path d="M2.73999 14.86C2.39999 14.86 2.09001 14.62 2.01001 14.28C1.84001 13.54 1.75 12.77 1.75 12C1.75 6.35 6.35 1.75 12 1.75C13.95 1.75 15.84 2.30001 17.47 3.35001C17.82 3.57001 17.92 4.04 17.7 4.39C17.48 4.74 17.01 4.84 16.66 4.62C15.27 3.73 13.66 3.25999 12 3.25999C7.18 3.25999 3.25 7.17999 3.25 12.01C3.25 12.67 3.31997 13.32 3.46997 13.95C3.55997 14.35 3.30997 14.76 2.90997 14.85C2.84997 14.86 2.78999 14.86 2.73999 14.86Z" fill="white"/> <path d="M18.7198 8.13992C17.1398 8.13992 15.8599 6.85992 15.8599 5.27992C15.8599 3.69992 17.1398 2.41992 18.7198 2.41992C20.2998 2.41992 21.5799 3.69992 21.5799 5.27992C21.5799 6.85992 20.2998 8.13992 18.7198 8.13992ZM18.7198 3.91992C17.9698 3.91992 17.3599 4.52992 17.3599 5.27992C17.3599 6.02992 17.9698 6.63992 18.7198 6.63992C19.4698 6.63992 20.0799 6.02992 20.0799 5.27992C20.0799 4.52992 19.4698 3.91992 18.7198 3.91992Z" fill="white"/> <path d="M5.27997 21.5804C3.69997 21.5804 2.41992 20.3004 2.41992 18.7204C2.41992 17.1404 3.69997 15.8604 5.27997 15.8604C6.85997 15.8604 8.13995 17.1404 8.13995 18.7204C8.13995 20.3004 6.85997 21.5804 5.27997 21.5804ZM5.27997 17.3604C4.52997 17.3604 3.91992 17.9704 3.91992 18.7204C3.91992 19.4704 4.52997 20.0804 5.27997 20.0804C6.02997 20.0804 6.63995 19.4704 6.63995 18.7204C6.63995 17.9704 6.02997 17.3604 5.27997 17.3604Z" fill="white"/> </g> <defs> <clipPath id="clip0_4482_5320"> <rect width="24" height="24" fill="white"/> </clipPath> </defs> </svg>
