<svg width="24" height="24" viewBox="0 0 24 24" fill="none" xmlns="http://www.w3.org/2000/svg"> <g clip-path="url(#clip0_2085_386299)"> <path d="M17.3698 22.75C16.1498 22.75 15.1598 21.76 15.1598 20.54C15.1598 20.29 15.1998 20.05 15.2798 19.83H12.6398C12.7198 20.05 12.7598 20.29 12.7598 20.54C12.7598 21.76 11.7698 22.75 10.5498 22.75C9.32979 22.75 8.33979 21.76 8.33979 20.54C8.33979 20.29 8.37979 20.05 8.45979 19.83H7.62979C7.21979 19.83 6.87979 19.49 6.87979 19.08C6.87979 18.67 7.21979 18.33 7.62979 18.33H11.7898C11.5898 18.27 11.4298 18.12 11.3398 17.92C11.2198 17.65 11.2698 17.34 11.4598 17.11C12.3398 16.11 14.1798 14.05 14.1398 13.52C13.9098 13.26 12.0598 13.05 11.4498 12.98C9.11979 15.39 5.86979 17.96 3.84979 19.27L4.81979 20.57C5.06979 20.9 4.99979 21.37 4.66979 21.62C4.33979 21.87 3.86979 21.8 3.61979 21.47L2.15979 19.52C2.02979 19.35 1.97979 19.13 2.01979 18.92C2.05979 18.71 2.18979 18.53 2.37979 18.42C4.36979 17.26 7.41979 14.85 9.70979 12.63C9.03979 12.4 8.48979 12.02 8.26979 11.4C7.82979 10.15 9.01979 8.83 10.6298 7.22C8.51979 6.53 5.41979 6.17 3.73979 6.17C3.32979 6.17 2.98979 5.83 2.98979 5.42C2.98979 5.01 3.32979 4.67 3.73979 4.67C5.83979 4.67 12.1098 5.31 13.7898 7.35C13.9498 7.54 14.0698 7.74 14.1498 7.95C15.0298 8.98 16.3098 9.14 17.1998 8.82C17.6198 8.67 18.5998 8.19 18.5998 6.87C18.5998 6.46 18.9398 6.12 19.3498 6.12C19.7598 6.12 20.0998 6.46 20.0998 6.87C20.0998 8.42 19.1798 9.71 17.6898 10.23C16.4298 10.67 15.0498 10.47 13.9498 9.75C13.6698 10.31 13.2298 10.95 12.6798 11.62C14.2098 11.83 15.2298 12.14 15.5598 13C15.9198 13.94 15.3198 14.95 13.6898 16.85H13.9898C14.3998 16.85 14.7398 17.19 14.7398 17.6C14.7398 17.93 14.5198 18.22 14.2198 18.31H19.9298C19.9898 18.31 20.0498 18.29 20.0898 18.24L20.7798 17.55C21.0698 17.26 21.5498 17.26 21.8398 17.55C22.1298 17.84 22.1298 18.32 21.8398 18.61L21.1498 19.3C20.8298 19.62 20.3798 19.81 19.9298 19.81H19.4998C19.5798 20.03 19.6198 20.27 19.6198 20.52C19.6198 21.74 18.6298 22.73 17.4098 22.73L17.3698 22.75ZM17.3698 19.82C16.9798 19.82 16.6598 20.14 16.6598 20.53C16.6598 20.92 16.9798 21.24 17.3698 21.24C17.7598 21.24 18.0798 20.92 18.0798 20.53C18.0798 20.14 17.7598 19.82 17.3698 19.82ZM10.5398 19.82C10.1498 19.82 9.82979 20.14 9.82979 20.53C9.82979 20.92 10.1498 21.24 10.5398 21.24C10.9298 21.24 11.2498 20.92 11.2498 20.53C11.2498 20.14 10.9298 19.82 10.5398 19.82ZM12.0698 7.86C12.0698 7.86 12.0498 7.88 12.0398 7.9C11.0898 8.85 9.48979 10.45 9.64979 10.91C9.64979 10.91 9.77979 11.2 10.8798 11.4C11.8898 10.3 12.5898 9.32 12.7198 8.69C12.7298 8.63 12.7598 8.51 12.5898 8.31C12.4598 8.16 12.2898 8.01 12.0598 7.87L12.0698 7.86ZM15.4198 6.65C13.9298 6.65 12.7198 5.44 12.7198 3.95C12.7198 2.46 13.9298 1.25 15.4198 1.25C16.9098 1.25 18.1198 2.46 18.1198 3.95C18.1198 5.44 16.9098 6.65 15.4198 6.65ZM15.4198 2.75C14.7598 2.75 14.2198 3.29 14.2198 3.95C14.2198 4.61 14.7598 5.15 15.4198 5.15C16.0798 5.15 16.6198 4.61 16.6198 3.95C16.6198 3.29 16.0798 2.75 15.4198 2.75Z" fill="white"/> </g> <defs> <clipPath id="clip0_2085_386299"> <rect width="24" height="24" fill="white"/> </clipPath> </defs> </svg>
