<svg width="24" height="24" viewBox="0 0 24 24" fill="none" xmlns="http://www.w3.org/2000/svg"> <g clip-path="url(#clip0_4482_3235)"> <path d="M9.88 19.2501C8.6 19.2501 7.56006 18.2101 7.56006 16.9301C7.56006 15.6501 8.6 14.6101 9.88 14.6101C11.16 14.6101 12.2 15.6501 12.2 16.9301C12.2 18.2101 11.17 19.2501 9.88 19.2501ZM9.88 16.1001C9.43 16.1001 9.06006 16.4701 9.06006 16.9201C9.06006 17.3701 9.43 17.7401 9.88 17.7401C10.33 17.7401 10.7 17.3701 10.7 16.9201C10.7 16.4701 10.34 16.1001 9.88 16.1001Z" fill="white"/> <path d="M11.46 17.6799C11.05 17.6799 10.71 17.3399 10.71 16.9299V11.4299C10.71 11.0199 11.05 10.6799 11.46 10.6799C11.87 10.6799 12.21 11.0199 12.21 11.4299V16.9299C12.21 17.3399 11.87 17.6799 11.46 17.6799Z" fill="white"/> <path d="M14.2798 14.33C14.0998 14.33 13.9197 14.3 13.7397 14.24L11.9998 13.66C11.2698 13.41 10.7197 12.65 10.7197 11.89V11.43C10.7197 10.9 10.9397 10.44 11.3297 10.15C11.7197 9.85997 12.2397 9.79997 12.7397 9.96997L14.4797 10.55C15.2097 10.8 15.7598 11.56 15.7598 12.32V12.78C15.7598 13.31 15.5398 13.78 15.1498 14.06C14.8898 14.24 14.5898 14.33 14.2798 14.33ZM12.1798 11.38L12.2097 11.89C12.2097 12.01 12.3497 12.2 12.4697 12.24L14.2097 12.82L14.2598 12.32C14.2598 12.2 14.1198 12.01 13.9998 11.97L12.2598 11.39C12.2198 11.38 12.1898 11.38 12.1798 11.38Z" fill="white"/> <path d="M16.5 22.75H7.5C4.88 22.75 2.75 20.62 2.75 18V6C2.75 3.38 4.88 1.25 7.5 1.25H16.5C19.12 1.25 21.25 3.38 21.25 6V18C21.25 20.62 19.12 22.75 16.5 22.75ZM7.5 2.75C5.71 2.75 4.25 4.21 4.25 6V18C4.25 19.79 5.71 21.25 7.5 21.25H16.5C18.29 21.25 19.75 19.79 19.75 18V6C19.75 4.21 18.29 2.75 16.5 2.75H7.5Z" fill="white"/> <path d="M17.5 8.75H16.5C14.98 8.75 13.75 7.52 13.75 6V5C13.75 4.59 14.09 4.25 14.5 4.25C14.91 4.25 15.25 4.59 15.25 5V6C15.25 6.69 15.81 7.25 16.5 7.25H17.5C17.91 7.25 18.25 7.59 18.25 8C18.25 8.41 17.91 8.75 17.5 8.75Z" fill="white"/> </g> <defs> <clipPath id="clip0_4482_3235"> <rect width="24" height="24" fill="white"/> </clipPath> </defs> </svg>
