<svg width="24" height="24" viewBox="0 0 24 24" fill="none" xmlns="http://www.w3.org/2000/svg"> <g clip-path="url(#clip0_4482_4959)"> <path d="M9.68977 19.2501C9.66977 19.2501 9.64978 19.2501 9.62978 19.2501C9.35978 19.2301 9.11977 19.0601 9.00977 18.8101L8.22977 17.0601L7.98978 17.4301C7.84978 17.6401 7.61977 17.7601 7.36977 17.7601H6.25977C5.84977 17.7601 5.50977 17.4201 5.50977 17.0101C5.50977 16.6001 5.84977 16.2601 6.25977 16.2601H6.96977L7.74977 15.0901C7.89977 14.8601 8.17977 14.7301 8.43977 14.7601C8.70977 14.7801 8.94977 14.9501 9.05977 15.2001L9.83977 16.9501L10.0798 16.5801C10.2198 16.3701 10.4498 16.2501 10.6998 16.2501H12.2598C12.6698 16.2501 13.0098 16.5901 13.0098 17.0001C13.0098 17.4101 12.6698 17.7501 12.2598 17.7501H11.0998L10.3198 18.9201C10.1698 19.1301 9.93977 19.2501 9.68977 19.2501Z" fill="white"/> <path d="M17.5 7.75H14.5C14.09 7.75 13.75 7.41 13.75 7C13.75 6.59 14.09 6.25 14.5 6.25H17.5C17.91 6.25 18.25 6.59 18.25 7C18.25 7.41 17.91 7.75 17.5 7.75Z" fill="white"/> <path d="M16 9.25C15.59 9.25 15.25 8.91 15.25 8.5V5.5C15.25 5.09 15.59 4.75 16 4.75C16.41 4.75 16.75 5.09 16.75 5.5V8.5C16.75 8.91 16.41 9.25 16 9.25Z" fill="white"/> <path d="M14.3598 14.57C14.2998 14.57 14.2298 14.57 14.1698 14.56C13.6598 14.5 13.2198 14.18 13.0098 13.72L12.1098 11.72C10.6398 10.61 9.75977 8.91 9.75977 7.13C9.75977 6.73 9.80977 6.29999 9.90977 5.87C10.0898 5.1 10.4198 4.4 10.8898 3.77C12.0598 2.19 13.9698 1.25 16.0098 1.25C18.4298 1.25 20.6598 2.57999 21.6698 4.64999C22.0598 5.42999 22.2598 6.26 22.2598 7.13C22.2598 9.36 20.9498 11.37 18.8298 12.38C18.2898 12.64 17.6998 12.82 17.0798 12.92C16.8698 12.96 16.6298 12.99 16.3698 13L15.5098 14.04C15.2098 14.38 14.7998 14.57 14.3598 14.57ZM15.9998 2.75C14.4298 2.75 12.9698 3.47 12.0798 4.67C11.7298 5.14 11.4898 5.66 11.3598 6.22C11.2898 6.53 11.2498 6.84 11.2498 7.14C11.2498 8.52 11.9398 9.79 13.1298 10.63C13.2398 10.71 13.3298 10.81 13.3798 10.94L14.3598 13.11L15.4198 11.8C15.5598 11.63 15.7698 11.53 15.9998 11.53C16.3198 11.53 16.5698 11.51 16.8098 11.46C17.3098 11.38 17.7698 11.24 18.1798 11.04C19.7698 10.28 20.7498 8.78999 20.7498 7.14999C20.7498 6.51999 20.6098 5.91 20.3198 5.34C19.5498 3.76 17.8598 2.75 15.9998 2.75Z" fill="white"/> <path d="M14.06 22.7502H6.94C3.64 22.7502 1.75 20.8602 1.75 17.5602V8.67021C1.75 5.37021 3.64 3.47021 6.94 3.47021H11.48C11.76 3.47021 12.02 3.63022 12.15 3.88022C12.28 4.13022 12.25 4.44022 12.08 4.66022C11.73 5.13022 11.49 5.65022 11.36 6.21022C11.29 6.52022 11.25 6.83022 11.25 7.13022C11.25 8.51022 11.94 9.78021 13.13 10.6202C13.24 10.7002 13.33 10.8002 13.38 10.9302L14.36 13.1002L15.42 11.7902C15.56 11.6202 15.77 11.5202 16 11.5202C16.32 11.5202 16.57 11.5002 16.81 11.4502C17.31 11.3702 17.77 11.2302 18.18 11.0302C18.41 10.9202 18.68 10.9402 18.9 11.0702C19.12 11.2102 19.25 11.4502 19.25 11.7002V17.5602C19.25 20.8602 17.36 22.7502 14.06 22.7502ZM6.94 4.97021C4.46 4.97021 3.25 6.18021 3.25 8.67021V17.5602C3.25 20.0402 4.46 21.2502 6.94 21.2502H14.06C16.54 21.2502 17.75 20.0402 17.75 17.5602V12.7702C17.53 12.8302 17.3 12.8802 17.07 12.9202C16.86 12.9602 16.62 12.9902 16.36 13.0002L15.5 14.0402C15.18 14.4302 14.68 14.6202 14.17 14.5602C13.66 14.5002 13.22 14.1802 13.01 13.7202L12.11 11.7202C10.64 10.6102 9.75999 8.91022 9.75999 7.13022C9.75999 6.73022 9.81 6.30021 9.91 5.87021C9.99 5.56021 10.08 5.26021 10.21 4.97021H6.94Z" fill="white"/> </g> <defs> <clipPath id="clip0_4482_4959"> <rect width="24" height="24" fill="white"/> </clipPath> </defs> </svg>
