<svg width="24" height="24" viewBox="0 0 24 24" fill="none" xmlns="http://www.w3.org/2000/svg"> <g clip-path="url(#clip0_4482_15311)"> <path d="M22 8.30957H2C1.59 8.30957 1.25 7.96957 1.25 7.55957C1.25 7.14957 1.59 6.80957 2 6.80957H22C22.41 6.80957 22.75 7.14957 22.75 7.55957C22.75 7.96957 22.41 8.30957 22 8.30957Z" fill="white"/> <path d="M15.3304 18.3096H13.1104C12.7004 18.3096 12.3604 17.9696 12.3604 17.5596C12.3604 17.1496 12.7004 16.8096 13.1104 16.8096H15.3304C15.7404 16.8096 16.0804 17.1496 16.0804 17.5596C16.0804 17.9696 15.7404 18.3096 15.3304 18.3096Z" fill="white"/> <path d="M8.67035 17.1902C8.48035 17.1902 8.29035 17.1202 8.14035 16.9702C7.85035 16.6802 7.85035 16.2002 8.14035 15.9102L10.3604 13.6902C10.6504 13.4002 11.1304 13.4002 11.4204 13.6902C11.7104 13.9802 11.7104 14.4602 11.4204 14.7502L9.20035 16.9702C9.05035 17.1202 8.86035 17.1902 8.67035 17.1902Z" fill="white"/> <path d="M10.8904 14.9704C10.7004 14.9704 10.5104 14.9004 10.3604 14.7504L8.14035 12.5304C7.85035 12.2404 7.85035 11.7604 8.14035 11.4704C8.43035 11.1804 8.91035 11.1804 9.20035 11.4704L11.4204 13.6904C11.7104 13.9804 11.7104 14.4604 11.4204 14.7504C11.2704 14.9004 11.0804 14.9704 10.8904 14.9704Z" fill="white"/> <path d="M22 8.30957H2C1.59 8.30957 1.25 7.96957 1.25 7.55957C1.25 7.14957 1.59 6.80957 2 6.80957H22C22.41 6.80957 22.75 7.14957 22.75 7.55957C22.75 7.96957 22.41 8.30957 22 8.30957Z" fill="white"/> <path d="M17 22.75H7C3.83 22.75 1.25 20.17 1.25 17V7C1.25 3.83 3.83 1.25 7 1.25H17C20.17 1.25 22.75 3.83 22.75 7V17C22.75 20.17 20.17 22.75 17 22.75ZM7 2.75C4.66 2.75 2.75 4.66 2.75 7V17C2.75 19.34 4.66 21.25 7 21.25H17C19.34 21.25 21.25 19.34 21.25 17V7C21.25 4.66 19.34 2.75 17 2.75H7Z" fill="white"/> <path d="M15.3304 18.3096H13.1104C12.7004 18.3096 12.3604 17.9696 12.3604 17.5596C12.3604 17.1496 12.7004 16.8096 13.1104 16.8096H15.3304C15.7404 16.8096 16.0804 17.1496 16.0804 17.5596C16.0804 17.9696 15.7404 18.3096 15.3304 18.3096Z" fill="white"/> <path d="M8.67035 17.1904C8.48035 17.1904 8.29035 17.1204 8.14035 16.9704C7.85035 16.6804 7.85035 16.2004 8.14035 15.9104L9.83035 14.2204L8.14035 12.5304C7.85035 12.2404 7.85035 11.7604 8.14035 11.4704C8.43035 11.1804 8.91035 11.1804 9.20035 11.4704L11.4204 13.6904C11.5604 13.8304 11.6404 14.0204 11.6404 14.2204C11.6404 14.4204 11.5604 14.6104 11.4204 14.7504L9.20035 16.9704C9.05035 17.1204 8.86035 17.1904 8.67035 17.1904Z" fill="white"/> </g> <defs> <clipPath id="clip0_4482_15311"> <rect width="24" height="24" fill="white"/> </clipPath> </defs> </svg>
