<svg width="24" height="24" viewBox="0 0 24 24" fill="none" xmlns="http://www.w3.org/2000/svg"> <g clip-path="url(#clip0_4482_5546)"> <path d="M19 22.7509H5C2.93 22.7509 1.25 21.0709 1.25 19.0009V10.4409C1.25 9.29094 1.76 8.23094 2.66 7.51094L9.66 1.91094C11.04 0.810938 12.97 0.810938 14.35 1.91094L21.35 7.51094C22.24 8.23094 22.76 9.29094 22.76 10.4409V19.0009C22.75 21.0709 21.07 22.7509 19 22.7509ZM12 2.59094C11.5 2.59094 11.01 2.76094 10.59 3.09094L3.59 8.69094C3.05 9.12094 2.75 9.76094 2.75 10.4509V19.0009C2.75 20.2409 3.76 21.2509 5 21.2509H19C20.24 21.2509 21.25 20.2409 21.25 19.0009V10.4409C21.25 9.75094 20.94 9.11094 20.41 8.68094L13.41 3.08094C12.99 2.75094 12.5 2.59094 12 2.59094Z" fill="white"/> <path d="M12.0002 18.2491C11.3302 18.2491 10.6702 18.0691 10.0702 17.7191L2.58023 13.2291C1.76023 12.7291 1.24023 11.8291 1.24023 10.8691C1.24023 10.4591 1.58023 10.1191 1.99023 10.1191C2.40023 10.1191 2.74023 10.4591 2.74023 10.8691C2.74023 11.3091 2.97023 11.7191 3.35023 11.9391L10.8302 16.4291C11.5402 16.8591 12.4302 16.8591 13.1502 16.4291L20.6302 11.9391C21.0002 11.7191 21.2402 11.2991 21.2402 10.8691C21.2402 10.4591 21.5802 10.1191 21.9902 10.1191C22.4002 10.1191 22.7402 10.4591 22.7402 10.8691C22.7402 11.8291 22.2302 12.7291 21.4102 13.2291L13.9202 17.7191C13.3302 18.0691 12.6702 18.2491 12.0002 18.2491Z" fill="white"/> <path d="M12 12.75C11.59 12.75 11.25 12.41 11.25 12V8C11.25 7.59 11.59 7.25 12 7.25C12.41 7.25 12.75 7.59 12.75 8V12C12.75 12.41 12.41 12.75 12 12.75Z" fill="white"/> <path d="M13.9999 9.74945C13.8099 9.74945 13.6199 9.67945 13.4699 9.52945L11.9999 8.05945L10.5299 9.52945C10.2399 9.81945 9.75994 9.81945 9.46994 9.52945C9.17994 9.23945 9.17994 8.75945 9.46994 8.46945L11.4699 6.46945C11.7599 6.17945 12.2399 6.17945 12.5299 6.46945L14.5299 8.46945C14.8199 8.75945 14.8199 9.23945 14.5299 9.52945C14.3799 9.67945 14.1899 9.74945 13.9999 9.74945Z" fill="white"/> </g> <defs> <clipPath id="clip0_4482_5546"> <rect width="24" height="24" fill="white"/> </clipPath> </defs> </svg>
