<svg width="24" height="24" viewBox="0 0 24 24" fill="none" xmlns="http://www.w3.org/2000/svg"> <g clip-path="url(#clip0_4482_4979)"> <path d="M14.1298 21.5098C13.9598 21.5098 13.7998 21.4498 13.6598 21.3498C13.4798 21.2098 13.3798 20.9898 13.3798 20.7598V15.7598C12.4598 15.8198 11.5398 15.8298 10.6298 15.7598V20.7598C10.6298 20.9898 10.5298 21.1998 10.3498 21.3498C10.1698 21.4898 9.93976 21.5498 9.71976 21.4998C5.02976 20.4398 1.75977 16.3298 1.75977 11.5098C1.75977 5.85977 6.35977 1.25977 12.0098 1.25977C17.6598 1.25977 22.2598 5.85977 22.2598 11.5098C22.2598 16.3198 18.9898 20.4298 14.3098 21.4998C14.2398 21.4998 14.1898 21.5098 14.1298 21.5098ZM11.9998 2.74977C7.16976 2.74977 3.24976 6.66977 3.24976 11.4998C3.24976 15.2898 5.62976 18.5698 9.12976 19.7698V14.9398C9.12976 14.7298 9.21976 14.5198 9.37976 14.3798C9.53976 14.2398 9.74975 14.1698 9.95975 14.1898C11.2997 14.3398 12.6798 14.3398 14.0398 14.1898C14.2498 14.1698 14.4598 14.2298 14.6198 14.3798C14.7798 14.5198 14.8698 14.7298 14.8698 14.9398V19.7698C18.3698 18.5598 20.7397 15.2898 20.7397 11.4998C20.7497 6.66977 16.8298 2.74977 11.9998 2.74977Z" fill="white"/> <path d="M7.49985 12.3295C7.25985 12.3295 7.01985 12.2095 6.87985 11.9995C6.64985 11.6595 6.73984 11.1895 7.08984 10.9595L9.14984 9.57953L7.08984 8.19953C6.74984 7.96953 6.64985 7.49954 6.87985 7.15954C7.10985 6.81954 7.57986 6.71953 7.91986 6.94953L10.9199 8.94953C11.1299 9.08953 11.2498 9.31954 11.2498 9.56954C11.2498 9.81954 11.1299 10.0595 10.9199 10.1895L7.91986 12.1895C7.78986 12.2895 7.63985 12.3295 7.49985 12.3295Z" fill="white"/> <path d="M16.5 12.3299C16.36 12.3299 16.21 12.2899 16.08 12.1999L13.08 10.1999C12.87 10.0599 12.75 9.82993 12.75 9.57993C12.75 9.32993 12.87 9.08993 13.08 8.95993L16.08 6.95993C16.42 6.72993 16.89 6.81992 17.12 7.16992C17.35 7.51992 17.26 7.97993 16.91 8.20993L14.85 9.58992L16.91 10.9699C17.25 11.1999 17.35 11.6699 17.12 12.0099C16.98 12.2099 16.74 12.3299 16.5 12.3299Z" fill="white"/> <path d="M9.87985 18.5404C9.74985 18.5404 9.62986 18.5104 9.50986 18.4404C8.26986 17.7404 7.33986 16.5504 6.88986 15.1004C6.85986 15.0004 6.83984 14.8904 6.83984 14.8104C6.83984 14.2004 7.39985 13.7104 7.96985 13.8404C8.68985 14.0104 9.33986 14.1304 9.94986 14.2004C10.3299 14.2404 10.6198 14.5604 10.6198 14.9504V17.8004C10.6198 18.0704 10.4798 18.3104 10.2498 18.4504C10.1398 18.5104 10.0099 18.5404 9.87985 18.5404ZM8.68985 15.5204C8.81985 15.7604 8.96985 15.9804 9.12985 16.1904V15.6004C8.97985 15.5704 8.83985 15.5504 8.68985 15.5204Z" fill="white"/> <path d="M14.1299 18.5301C13.9999 18.5301 13.8699 18.5001 13.7499 18.4301C13.5199 18.3001 13.3799 18.0501 13.3799 17.7801V14.9401C13.3799 14.5601 13.6599 14.2501 14.0299 14.2001C14.7299 14.1101 15.3999 13.9901 16.0199 13.8401C16.5899 13.7101 17.1499 14.2101 17.1499 14.8101C17.1499 14.8901 17.1299 15.0001 17.1099 15.0901C16.6799 16.5301 15.7299 17.7501 14.4999 18.4301C14.3799 18.5001 14.2599 18.5301 14.1299 18.5301ZM14.8799 15.5901V16.1801C15.0499 15.9801 15.1899 15.7501 15.3199 15.5201C15.1699 15.5401 15.0299 15.5701 14.8799 15.5901ZM16.2599 14.8101H16.3999H16.2599Z" fill="white"/> <path d="M11.9999 23.3503C10.4199 23.3503 9.12988 22.2203 9.12988 20.8203V14.9403C9.12988 14.7303 9.21988 14.5203 9.37988 14.3803C9.53988 14.2403 9.74987 14.1703 9.95987 14.1903C11.2999 14.3403 12.6799 14.3403 14.0399 14.1903C14.2499 14.1703 14.4599 14.2303 14.6199 14.3803C14.7799 14.5203 14.8699 14.7303 14.8699 14.9403V20.8203C14.8699 21.5203 14.5399 22.1903 13.9699 22.6603C13.4599 23.1003 12.7399 23.3503 11.9999 23.3503ZM10.6299 15.7602V20.8203C10.6299 21.3803 11.2599 21.8503 11.9999 21.8503C12.3899 21.8503 12.7599 21.7302 13.0199 21.5102C13.2599 21.3102 13.3799 21.0703 13.3799 20.8203V15.7602C12.4599 15.8302 11.5399 15.8302 10.6299 15.7602Z" fill="white"/> </g> <defs> <clipPath id="clip0_4482_4979"> <rect width="24" height="24" fill="white"/> </clipPath> </defs> </svg>
