<svg width="24" height="24" viewBox="0 0 24 24" fill="none" xmlns="http://www.w3.org/2000/svg"> <g clip-path="url(#clip0_4482_10728)"> <path d="M16.3798 18.7199C16.1798 18.7199 15.9898 18.6399 15.8498 18.4999L14.6198 17.2699C14.3298 16.9799 14.3298 16.4999 14.6198 16.2099C14.9098 15.9199 15.3898 15.9199 15.6798 16.2099L16.3798 16.9099L17.8998 15.3899C18.1898 15.0999 18.6698 15.0999 18.9598 15.3899C19.2498 15.6799 19.2498 16.1599 18.9598 16.4499L16.9098 18.4999C16.7698 18.6399 16.5798 18.7199 16.3798 18.7199Z" fill="white"/> <path d="M16.7904 22.75C16.3304 22.75 15.8604 22.6 15.4804 22.31L14.7304 21.73L13.7904 21.6C12.8304 21.47 12.0604 20.71 11.9404 19.74L11.8204 18.8L11.2404 18.05C10.6504 17.28 10.6504 16.2 11.2404 15.43L11.4404 15.17C11.5904 14.97 11.7104 14.81 11.8204 14.68L11.9504 13.73C12.0804 12.77 12.8404 12 13.8104 11.88L14.7504 11.75L15.5004 11.17C16.2704 10.58 17.3504 10.58 18.1204 11.17L18.8804 11.75L19.8204 11.88C20.7804 12.01 21.5504 12.77 21.6804 13.74L21.8104 14.68L22.3904 15.44C22.9804 16.21 22.9804 17.29 22.3904 18.06L22.2304 18.27C22.0604 18.49 21.9304 18.66 21.8204 18.8L21.6904 19.75C21.5604 20.71 20.8004 21.48 19.8304 21.6L18.8904 21.73L18.1404 22.31C17.7504 22.61 17.2904 22.75 16.8304 22.75H16.7904ZM12.4104 17.14L13.1104 18.05C13.1904 18.15 13.2404 18.28 13.2604 18.41L13.4104 19.55C13.4504 19.84 13.6804 20.08 13.9804 20.12L15.1204 20.27C15.2504 20.29 15.3704 20.34 15.4804 20.42L16.3904 21.12C16.6304 21.3 16.9604 21.3 17.1904 21.12L18.1004 20.42C18.2004 20.34 18.3304 20.29 18.4604 20.27L19.6004 20.12C19.9004 20.08 20.1304 19.85 20.1704 19.55L20.3204 18.41C20.3404 18.27 20.3904 18.15 20.4804 18.04L21.1704 17.14C21.3504 16.9 21.3504 16.57 21.1704 16.34L20.4704 15.42C20.3904 15.32 20.3404 15.19 20.3204 15.06L20.1704 13.92C20.1304 13.62 19.9004 13.39 19.6004 13.35L18.4604 13.2C18.3304 13.18 18.2104 13.13 18.1004 13.05L17.1904 12.35C16.9504 12.17 16.6204 12.17 16.3904 12.35L15.4704 13.05C15.3704 13.13 15.2404 13.18 15.1104 13.2L13.9704 13.35C13.6704 13.39 13.4404 13.62 13.4004 13.92L13.2504 15.06C13.2304 15.2 13.1704 15.33 13.0904 15.43C13.0504 15.48 12.8404 15.76 12.6004 16.07L12.4004 16.33C12.2204 16.56 12.2204 16.89 12.4004 17.13L12.4104 17.14Z" fill="white"/> <path d="M10.98 22.7502H6.44C3.58 22.7502 1.25 20.4202 1.25 17.5602V10.5802C1.25 8.99018 1.96 7.52018 3.2 6.52018L8.06 2.63018C10.38 0.780176 13.62 0.780176 15.94 2.63018L20.8 6.52018C22.04 7.51018 22.75 8.99018 22.75 10.5802C22.75 10.9902 22.41 11.3302 22 11.3302C21.59 11.3302 21.25 10.9902 21.25 10.5802C21.25 9.45018 20.74 8.40018 19.86 7.70018L15 3.81018C13.23 2.39018 10.76 2.39018 9 3.81018L4.14 7.70018C3.26 8.41018 2.75 9.46018 2.75 10.5802V17.5602C2.75 19.6002 4.41 21.2502 6.44 21.2502H10.98C11.39 21.2502 11.73 21.5902 11.73 22.0002C11.73 22.4102 11.39 22.7502 10.98 22.7502Z" fill="white"/> </g> <defs> <clipPath id="clip0_4482_10728"> <rect width="24" height="24" fill="white"/> </clipPath> </defs> </svg>
