<svg width="24" height="24" viewBox="0 0 24 24" fill="none" xmlns="http://www.w3.org/2000/svg"> <g clip-path="url(#clip0_2085_390317)"> <path d="M5.39977 22.2502C5.04977 22.2502 4.70977 21.9802 4.63977 21.6402C4.34977 20.2302 3.26977 19.1502 1.87977 18.8702C1.52977 18.8002 1.25977 18.4702 1.25977 18.1102C1.25977 17.7502 1.52977 17.4202 1.87977 17.3402C3.27977 17.0502 4.35977 15.9702 4.64977 14.5802C4.64977 14.5802 4.64977 14.5702 4.64977 14.5602C4.72977 14.2202 5.06977 13.9802 5.41977 13.9502C5.76977 13.9502 6.10977 14.2202 6.17977 14.5702C6.46977 15.9702 7.54977 17.0502 8.93976 17.3402C9.28977 17.4102 9.56977 17.7502 9.55977 18.1102C9.55977 18.4702 9.27977 18.8002 8.92977 18.8702C7.53977 19.1502 6.45977 20.2402 6.16977 21.6302C6.09977 21.9802 5.75977 22.2502 5.40977 22.2502H5.39977ZM4.02749 18.0144C3.96803 18.0557 3.96803 18.1447 4.02749 18.186C4.53021 18.5346 4.96533 18.9697 5.314 19.4725C5.35523 19.5319 5.4443 19.5319 5.48554 19.4725C5.8342 18.9697 6.26932 18.5346 6.77205 18.186C6.8315 18.1447 6.8315 18.0557 6.77205 18.0144C6.26932 17.6658 5.8342 17.2306 5.48554 16.7279C5.4443 16.6685 5.35523 16.6685 5.314 16.7279C4.96533 17.2306 4.53021 17.6658 4.02749 18.0144Z" fill="white"/> <path d="M15.5599 20.36H12.9399C12.5299 20.36 12.1899 20.02 12.1899 19.61C12.1899 19.2 12.5299 18.86 12.9399 18.86H15.5599C17.6899 18.86 18.7599 18.86 19.4599 18.5C20.0799 18.18 20.5799 17.69 20.8899 17.07C21.2499 16.37 21.2499 15.3 21.2499 13.17V8.94C21.2499 6.81 21.2499 5.74 20.8899 5.04C20.5699 4.42 20.0799 3.93 19.4599 3.61C18.7599 3.25 17.6899 3.25 15.5599 3.25H9.31988C7.18988 3.25 6.11988 3.25 5.41988 3.61C4.79988 3.93 4.30988 4.42 3.98988 5.04C3.62988 5.74 3.62988 6.81 3.62988 8.94V11.05C3.62988 11.46 3.28988 11.8 2.87988 11.8C2.46988 11.8 2.12988 11.46 2.12988 11.05V8.94C2.12988 6.57 2.12988 5.38 2.64988 4.36C3.10988 3.46 3.82988 2.73 4.73988 2.27C5.75988 1.75 6.94988 1.75 9.31988 1.75H15.5599C17.9299 1.75 19.1199 1.75 20.1399 2.27C21.0399 2.73 21.7699 3.45 22.2299 4.36C22.7499 5.38 22.7499 6.57 22.7499 8.94V13.17C22.7499 15.54 22.7499 16.73 22.2299 17.75C21.7699 18.65 21.0499 19.37 20.1399 19.84C19.1199 20.36 17.9299 20.36 15.5599 20.36ZM11.2499 14.8C11.1899 14.8 11.1199 14.8 11.0499 14.79C10.6099 14.73 10.1599 14.48 9.87988 14.12C9.54988 13.7 9.51988 13.22 9.46988 12.43C9.43988 11.95 9.41988 11.47 9.41988 11.06C9.41988 10.65 9.43988 10.16 9.46988 9.69C9.51988 8.9 9.54988 8.42 9.87988 7.99C10.1499 7.64 10.5999 7.38 11.0399 7.32C11.5699 7.25 11.9999 7.47 12.7099 7.82C13.0999 8.01 13.4799 8.21 13.7999 8.39C14.1899 8.61 14.6299 8.89 15.0599 9.17C15.7299 9.61 16.1299 9.88 16.3399 10.38C16.5199 10.8 16.5199 11.31 16.3399 11.73C16.1399 12.22 15.7299 12.49 15.0699 12.93C14.6399 13.22 14.1999 13.49 13.8099 13.72C13.4799 13.91 13.0999 14.1 12.7199 14.29C12.0999 14.6 11.6899 14.8 11.2399 14.8H11.2499ZM11.3669 8.85578C11.285 8.82551 11.204 8.82518 11.1293 8.87019C11.099 8.88842 11.0709 8.92559 11.0617 8.95975C11.0224 9.10631 10.9973 9.46719 10.9799 9.79C10.9499 10.23 10.9299 10.68 10.9299 11.06C10.9299 11.44 10.9499 11.89 10.9799 12.33C10.9999 12.7 11.0299 13.12 11.0799 13.21C11.1597 13.3164 11.3172 13.3023 11.4402 13.2515C11.6019 13.1846 11.833 13.0702 12.0599 12.96C12.4199 12.78 12.7699 12.6 13.0799 12.42C13.4399 12.21 13.8499 11.95 14.2499 11.69C14.5799 11.47 14.9199 11.25 14.9699 11.16C14.9899 11.11 14.9899 11.02 14.9699 10.97C14.9199 10.88 14.5799 10.66 14.2499 10.44C13.8499 10.17 13.4399 9.91 13.0699 9.71C12.7699 9.54 12.4099 9.35 12.0599 9.18C11.7983 9.04546 11.5311 8.91651 11.3669 8.85578Z" fill="white"/> </g> <defs> <clipPath id="clip0_2085_390317"> <rect width="24" height="24" fill="white"/> </clipPath> </defs> </svg>
