<svg width="24" height="24" viewBox="0 0 24 24" fill="none" xmlns="http://www.w3.org/2000/svg"> <path d="M18.7603 16.1602V15.6699C18.7603 15.5342 18.646 15.42 18.5103 15.4199H13.5601C13.1458 15.4199 12.8101 15.0841 12.8101 14.6699C12.8101 14.2557 13.1458 13.9199 13.5601 13.9199H18.5103C19.4744 13.92 20.2603 14.7058 20.2603 15.6699V16.1602C20.2601 17.1242 19.4743 17.9101 18.5103 17.9102H13.5601C13.1459 17.9102 12.8102 17.5743 12.8101 17.1602C12.8101 16.7459 13.1458 16.4102 13.5601 16.4102H18.5103C18.6459 16.41 18.7601 16.2958 18.7603 16.1602Z" fill="white"/> <path d="M3.74023 16.1602V15.6699C3.74023 14.7057 4.52602 13.9199 5.49023 13.9199H10.4404C10.8546 13.92 11.1904 14.2558 11.1904 14.6699C11.1904 15.0841 10.8546 15.4198 10.4404 15.4199H5.49023C5.35445 15.4199 5.24023 15.5341 5.24023 15.6699V16.1602C5.24037 16.2958 5.35453 16.4102 5.49023 16.4102H10.4404C10.8546 16.4103 11.1904 16.746 11.1904 17.1602C11.1903 17.5742 10.8545 17.9101 10.4404 17.9102H5.49023C4.5261 17.9102 3.74036 17.1243 3.74023 16.1602Z" fill="white"/> <path d="M4.97998 14.6698V11.9803C4.97998 8.71004 7.22018 5.95622 10.2554 5.18342C10.6567 5.08146 11.0643 5.32413 11.1665 5.72542C11.2684 6.12654 11.0265 6.53417 10.6255 6.63655C8.24068 7.24375 6.47998 9.41055 6.47998 11.9803V14.6698C6.47998 15.084 6.14419 15.4198 5.72998 15.4198C5.31577 15.4198 4.97998 15.084 4.97998 14.6698Z" fill="white"/> <path d="M17.5198 14.6697V11.9803C17.5198 9.41069 15.7599 7.24388 13.3753 6.63654C12.974 6.53437 12.7314 6.12669 12.8333 5.72541C12.9355 5.32413 13.3432 5.08147 13.7445 5.18342C16.7796 5.95621 19.0198 8.71004 19.0198 11.9803V14.6697C19.0198 15.084 18.6841 15.4197 18.2698 15.4197C17.8556 15.4197 17.5198 15.0839 17.5198 14.6697Z" fill="white"/> <path d="M2.93625 3.20412C3.2188 2.90604 3.68852 2.89001 3.98996 3.16896C4.29141 3.44793 4.31219 3.91792 4.03684 4.22267C3.95911 4.30874 3.85192 4.54505 3.86008 4.97463C3.86785 5.38264 3.98094 5.86679 4.20774 6.32619C4.65959 7.24129 5.48663 7.93781 6.67453 7.88088C7.08819 7.86113 7.43983 8.18011 7.45969 8.59377C7.47952 9.00751 7.15956 9.3591 6.74582 9.37892C4.80393 9.47183 3.50112 8.28257 2.86301 6.99025C2.83788 6.93935 2.81502 6.8875 2.79172 6.83595C2.6156 8.21264 3.05504 9.65298 4.11106 10.709C4.65175 11.2497 5.28729 11.6215 5.97434 11.8477C6.3677 11.9771 6.58216 12.4006 6.45286 12.794C6.32336 13.1874 5.89904 13.402 5.50559 13.2725C4.6128 12.9786 3.76874 12.4897 3.04954 11.7705C0.695047 9.41604 0.657811 5.62104 2.92356 3.21681V3.21779C2.92782 3.21327 2.93197 3.20863 2.93625 3.20412Z" fill="white"/> <path d="M20.0106 3.16886C20.3121 2.89011 20.7819 2.906 21.0644 3.20401C23.3409 5.606 23.3082 9.40554 20.954 11.7646L20.955 11.7655C20.2417 12.4904 19.3844 12.9788 18.5067 13.2714C18.1139 13.4021 17.6894 13.1896 17.5585 12.7968C17.4275 12.4038 17.6401 11.9795 18.0331 11.8485C18.7154 11.6211 19.359 11.2489 19.8856 10.7138L19.8895 10.7089C20.9455 9.65288 21.384 8.21248 21.2079 6.83585C21.1847 6.88727 21.1627 6.93937 21.1376 6.99015C20.4994 8.28254 19.1959 9.47189 17.2538 9.37882C16.8402 9.35887 16.5211 9.00733 16.5409 8.59366C16.5608 8.17996 16.9124 7.86095 17.3261 7.88077C18.5138 7.93759 19.341 7.24113 19.7929 6.32609C20.0196 5.86673 20.1328 5.38249 20.1405 4.97452C20.1487 4.54528 20.0415 4.3088 19.9638 4.22257C19.6884 3.91782 19.7092 3.44783 20.0106 3.16886Z" fill="white"/> <path d="M12.8203 5.46973C12.8203 5.33398 12.706 5.21979 12.5703 5.21973H11.4502C11.3144 5.21973 11.2002 5.33394 11.2002 5.46973V18.667L12.0098 19.3115L12.8203 18.667V5.46973ZM14.3203 19.0293C14.3203 19.258 14.2161 19.4749 14.0371 19.6172L12.4766 20.8564C12.2034 21.0736 11.8172 21.0736 11.5439 20.8564L9.9834 19.6172C9.8044 19.4749 9.7002 19.258 9.7002 19.0293V5.46973C9.7002 4.50551 10.486 3.71973 11.4502 3.71973H12.5703C13.5345 3.71979 14.3203 4.50555 14.3203 5.46973V19.0293Z" fill="white"/> </svg>
