<svg width="24" height="24" viewBox="0 0 24 24" fill="none" xmlns="http://www.w3.org/2000/svg"> <g clip-path="url(#clip0_4482_3542)"> <path d="M16 22.75H8C4.83 22.75 2.25 20.17 2.25 17V12C2.25 8.83 4.83 6.25 8 6.25H16C19.17 6.25 21.75 8.83 21.75 12V17C21.75 20.17 19.17 22.75 16 22.75ZM8 7.75C5.66 7.75 3.75 9.66 3.75 12V17C3.75 19.34 5.66 21.25 8 21.25H16C18.34 21.25 20.25 19.34 20.25 17V12C20.25 9.66 18.34 7.75 16 7.75H8Z" fill="white"/> <path d="M15.8401 8.75C15.4301 8.75 15.0901 8.41 15.0901 8V5.84C15.0901 4.14 13.7102 2.75 12.0002 2.75C10.2902 2.75 8.91016 4.13 8.91016 5.84V8C8.91016 8.41 8.57016 8.75 8.16016 8.75C7.75016 8.75 7.41016 8.41 7.41016 8V5.84C7.41016 3.31 9.47015 1.25 12.0002 1.25C14.5302 1.25 16.5901 3.31 16.5901 5.84V8C16.5901 8.41 16.2501 8.75 15.8401 8.75Z" fill="white"/> <path d="M11.9999 17.2502C11.6999 17.2502 11.4199 17.1202 11.2399 16.8902L9.26991 14.7202C9.26991 14.7202 9.26991 14.7202 9.26991 14.7102C8.97991 14.3802 8.92993 13.9102 9.12993 13.5402L10.0599 12.1802C10.2599 11.9002 10.5599 11.7402 10.8899 11.7402H13.1199C13.4499 11.7402 13.7499 11.9002 13.9399 12.1702L14.8399 13.4802C15.0999 13.8202 15.0799 14.3502 14.7599 14.7102L12.7599 16.9202C12.5199 17.1402 12.2599 17.2502 11.9999 17.2502ZM12.3399 15.8802L12.3699 15.9102C12.3599 15.9002 12.3499 15.8902 12.3399 15.8802ZM10.6299 14.0002L12.0099 15.5102L13.3699 14.0102L12.8499 13.2502H11.1399L10.6299 14.0002ZM13.5799 14.3202C13.5899 14.3402 13.5999 14.3602 13.6199 14.3702L13.5799 14.3202Z" fill="white"/> </g> <defs> <clipPath id="clip0_4482_3542"> <rect width="24" height="24" fill="white"/> </clipPath> </defs> </svg>
