<svg width="24" height="24" viewBox="0 0 24 24" fill="none" xmlns="http://www.w3.org/2000/svg"> <g clip-path="url(#clip0_2085_390722)"> <path d="M15.8201 22.7501C14.6201 22.7501 13.5701 21.9301 13.2801 20.7701L11.7501 14.6601L10.2201 20.7701C9.9301 21.9401 8.8801 22.7501 7.6801 22.7501C6.4801 22.7501 5.4301 21.9301 5.1401 20.7701L1.0801 4.50015C0.910104 3.82015 1.0101 3.12015 1.3701 2.52015C1.7301 1.92015 2.3001 1.50015 2.9801 1.33015C3.6601 1.16015 4.3601 1.26015 4.9601 1.62015C5.5601 1.98015 5.9801 2.55015 6.1501 3.23015L7.6801 9.34015L9.2101 3.23015C9.5001 2.06015 10.5401 1.25015 11.7501 1.25015C12.9601 1.25015 14.0001 2.06015 14.2901 3.23015L15.8201 9.34015L17.3501 3.23015C17.5201 2.55015 17.9401 1.98015 18.5401 1.62015C19.1401 1.26015 19.8401 1.15015 20.5201 1.33015C21.2001 1.50015 21.7701 1.92015 22.1301 2.52015C22.4901 3.12015 22.5901 3.82015 22.4201 4.50015L18.3501 20.7701C18.0601 21.9401 17.0101 22.7501 15.8101 22.7501H15.8201ZM11.7501 10.8201C12.0901 10.8201 12.3901 11.0501 12.4801 11.3901L14.7301 20.4101C14.8501 20.9101 15.3001 21.2601 15.8101 21.2601C16.3201 21.2601 16.7701 20.9101 16.8901 20.4101L20.9601 4.14015C21.0301 3.85015 20.9901 3.55015 20.8301 3.29015C20.6801 3.03015 20.4301 2.85015 20.1401 2.78015C19.8501 2.71015 19.5501 2.75015 19.2901 2.90015C19.0301 3.05015 18.8501 3.30015 18.7801 3.59015L16.5301 12.6101C16.4501 12.9401 16.1501 13.1801 15.8001 13.1801C15.4501 13.1801 15.1601 12.9501 15.0701 12.6101L12.8101 3.59015C12.6901 3.09015 12.2401 2.75015 11.7301 2.75015C11.2201 2.75015 10.7701 3.10015 10.6501 3.59015L8.3901 12.6101C8.3101 12.9401 8.0101 13.1801 7.6601 13.1801C7.3201 13.1801 7.0201 12.9501 6.9301 12.6101L4.7001 3.60015C4.6301 3.31015 4.4501 3.07015 4.1901 2.91015C3.9301 2.76015 3.6301 2.71015 3.3401 2.79015C3.0501 2.86015 2.8101 3.04015 2.6501 3.30015C2.5001 3.56015 2.4501 3.86015 2.5201 4.15015L6.5901 20.4201C6.7101 20.9201 7.1601 21.2701 7.6701 21.2701C8.1801 21.2701 8.6301 20.9201 8.7501 20.4201L11.0001 11.4001C11.0801 11.0701 11.3801 10.8301 11.7301 10.8301L11.7501 10.8201Z" fill="white"/> </g> <defs> <clipPath id="clip0_2085_390722"> <rect width="24" height="24" fill="white"/> </clipPath> </defs> </svg>
