<svg width="24" height="24" viewBox="0 0 24 24" fill="none" xmlns="http://www.w3.org/2000/svg"> <g clip-path="url(#clip0_4482_5140)"> <path d="M12 22.75C6.07 22.75 1.25 17.93 1.25 12C1.25 6.07 6.07 1.25 12 1.25C17.93 1.25 22.75 6.07 22.75 12C22.75 17.93 17.93 22.75 12 22.75ZM12 2.75C6.9 2.75 2.75 6.9 2.75 12C2.75 17.1 6.9 21.25 12 21.25C17.1 21.25 21.25 17.1 21.25 12C21.25 6.9 17.1 2.75 12 2.75Z" fill="white"/> <path d="M12 16.75C9.52 16.75 7.5 14.73 7.5 12.25V11.5C7.5 9.43 9.18 7.75 11.25 7.75H12.75C14.82 7.75 16.5 9.43 16.5 11.5V12.25C16.5 14.73 14.48 16.75 12 16.75ZM11.25 9.25C10.01 9.25 9 10.26 9 11.5V12.25C9 13.9 10.35 15.25 12 15.25C13.65 15.25 15 13.9 15 12.25V11.5C15 10.26 13.99 9.25 12.75 9.25H11.25Z" fill="white"/> <path d="M8.5202 10.5799C8.4402 10.5799 8.3502 10.5699 8.2602 10.5399C6.3902 9.8599 4.6202 8.91991 3.0102 7.73991L2.8702 7.63994C2.5402 7.39994 2.4602 6.92995 2.7102 6.58995C2.9602 6.25995 3.4202 6.17991 3.7602 6.42991L3.9002 6.52995C5.3902 7.61995 7.0302 8.49993 8.7702 9.12993C9.1602 9.26993 9.3602 9.69995 9.2202 10.0899C9.1102 10.3899 8.8202 10.5799 8.5202 10.5799Z" fill="white"/> <path d="M8.52006 14.9197C8.44006 14.9197 8.35006 14.9097 8.26006 14.8797C5.93006 14.0297 3.73006 12.8597 1.73006 11.3997C1.40006 11.1597 1.32006 10.6897 1.57006 10.3497C1.81006 10.0197 2.28006 9.9397 2.62006 10.1897C4.51006 11.5697 6.58006 12.6797 8.78006 13.4697C9.17006 13.6097 9.37006 14.0397 9.23006 14.4297C9.11006 14.7297 8.82006 14.9197 8.52006 14.9197Z" fill="white"/> <path d="M15.2302 14.9197C14.9202 14.9197 14.6402 14.7297 14.5202 14.4297C14.3802 14.0397 14.5802 13.6097 14.9702 13.4697C17.1702 12.6697 19.2402 11.5697 21.1302 10.1897C21.4602 9.9397 21.9302 10.0197 22.1802 10.3497C22.4202 10.6797 22.3502 11.1497 22.0202 11.3997C20.0202 12.8697 17.8202 14.0397 15.4902 14.8797C15.4002 14.9097 15.3102 14.9197 15.2302 14.9197Z" fill="white"/> <path d="M15.3201 10.5798C15.0101 10.5798 14.7301 10.3898 14.6101 10.0798C14.4701 9.68977 14.6701 9.25974 15.0601 9.11974C16.8001 8.48974 18.4401 7.61977 19.9301 6.51977L20.0701 6.41973C20.4001 6.17973 20.8701 6.24977 21.1201 6.57977C21.3701 6.90977 21.2901 7.37975 20.9601 7.62975L20.8201 7.72973C19.2101 8.90973 17.4401 9.84978 15.5701 10.5298C15.4901 10.5698 15.4001 10.5798 15.3201 10.5798Z" fill="white"/> <path d="M10 22.5102C9.59 22.5102 9.25 22.1702 9.25 21.7602V15.4102C9.25 15.0002 9.59 14.6602 10 14.6602C10.41 14.6602 10.75 15.0002 10.75 15.4102V21.7602C10.75 22.1802 10.41 22.5102 10 22.5102Z" fill="white"/> <path d="M14 22.5102C13.59 22.5102 13.25 22.1702 13.25 21.7602V15.4102C13.25 15.0002 13.59 14.6602 14 14.6602C14.41 14.6602 14.75 15.0002 14.75 15.4102V21.7602C14.75 22.1802 14.41 22.5102 14 22.5102Z" fill="white"/> </g> <defs> <clipPath id="clip0_4482_5140"> <rect width="24" height="24" fill="white"/> </clipPath> </defs> </svg>
