<svg width="24" height="24" viewBox="0 0 24 24" fill="none" xmlns="http://www.w3.org/2000/svg"> <g clip-path="url(#clip0_2085_390872)"> <path d="M22.0001 22.8598C21.7801 22.8598 21.5601 22.7798 21.3901 22.6098L1.39008 2.60984C1.06008 2.27984 1.06008 1.72984 1.39008 1.39984C1.72008 1.06984 2.27008 1.06984 2.60008 1.39984L22.6001 21.3998C22.9301 21.7298 22.9301 22.2798 22.6001 22.6098C22.4301 22.7798 22.2101 22.8598 21.9901 22.8598H22.0001Z" fill="white"/> <path d="M2.00014 9.01063C1.53014 9.01063 1.14014 8.63062 1.14014 8.15062V2.00063C1.14014 1.53063 1.52014 1.14062 2.00014 1.14062H8.15014C8.62014 1.14062 9.01014 1.52063 9.01014 2.00063C9.01014 2.48063 8.63014 2.86062 8.15014 2.86062H2.86014V8.16062C2.86014 8.63062 2.48014 9.02063 2.00014 9.02063V9.01063Z" fill="white"/> <path d="M15.0802 9.77984C14.8602 9.77984 14.6402 9.69984 14.4702 9.52984C14.1402 9.19984 14.1402 8.64984 14.4702 8.31984L21.3902 1.39984C21.7202 1.06984 22.2702 1.06984 22.6002 1.39984C22.9302 1.72984 22.9302 2.27984 22.6002 2.60984L15.6802 9.52984C15.5102 9.69984 15.2902 9.77984 15.0702 9.77984H15.0802Z" fill="white"/> <path d="M22 9.01063C21.53 9.01063 21.14 8.63062 21.14 8.15062V2.86062H15.84C15.37 2.86062 14.98 2.48063 14.98 2.00063C14.98 1.52063 15.36 1.14062 15.84 1.14062H21.99C22.46 1.14062 22.85 1.52063 22.85 2.00063V8.15062C22.85 8.62062 22.47 9.01063 21.99 9.01063H22Z" fill="white"/> <path d="M2.00008 22.8599C1.78008 22.8599 1.56008 22.7799 1.39008 22.6099C1.06008 22.2799 1.06008 21.7299 1.39008 21.3999L8.31008 14.4799C8.64008 14.1499 9.19008 14.1499 9.52008 14.4799C9.85008 14.8099 9.85008 15.3599 9.52008 15.6899L2.60008 22.6099C2.43008 22.7799 2.21008 22.8599 1.99008 22.8599H2.00008Z" fill="white"/> </g> <defs> <clipPath id="clip0_2085_390872"> <rect width="24" height="24" fill="white"/> </clipPath> </defs> </svg>
