<svg width="24" height="24" viewBox="0 0 24 24" fill="none" xmlns="http://www.w3.org/2000/svg"> <g clip-path="url(#clip0_4482_5208)"> <path d="M13.5 18.8299C8.4 18.8299 4.25 15.3199 4.25 10.9999C4.25 6.67992 8.4 3.16992 13.5 3.16992C18.6 3.16992 22.75 6.67992 22.75 10.9999C22.75 15.3199 18.6 18.8299 13.5 18.8299ZM13.5 4.66992C9.23 4.66992 5.75 7.50992 5.75 10.9999C5.75 14.4899 9.23 17.3299 13.5 17.3299C17.77 17.3299 21.25 14.4899 21.25 10.9999C21.25 7.50992 17.77 4.66992 13.5 4.66992Z" fill="white"/> <path d="M3.53003 19.31C3.15003 19.31 2.86002 19.22 2.65002 19.12C2.13002 18.88 1.25 18.17 1.25 16.23V5.76999C1.25 3.81999 2.12002 3.11999 2.65002 2.87999C3.17002 2.62999 4.27002 2.40999 5.77002 3.65999L7.66998 5.23999C7.98998 5.50999 8.03002 5.97999 7.77002 6.29999C7.50002 6.61999 7.03002 6.65998 6.71002 6.39998L4.81 4.81999C4.2 4.30999 3.61998 4.09998 3.28998 4.24998C2.95998 4.39998 2.76001 4.98998 2.76001 5.77998V16.24C2.76001 17.03 2.95998 17.62 3.28998 17.77C3.61998 17.92 4.2 17.7 4.81 17.2L6.96997 15.4C7.28997 15.13 7.76003 15.18 8.03003 15.5C8.30003 15.82 8.24999 16.29 7.92999 16.56L5.77002 18.36C4.86002 19.09 4.10003 19.31 3.53003 19.31Z" fill="white"/> <path d="M5 9.75H2C1.59 9.75 1.25 9.41 1.25 9C1.25 8.59 1.59 8.25 2 8.25H5C5.41 8.25 5.75 8.59 5.75 9C5.75 9.41 5.41 9.75 5 9.75Z" fill="white"/> <path d="M5 13.75H2C1.59 13.75 1.25 13.41 1.25 13C1.25 12.59 1.59 12.25 2 12.25H5C5.41 12.25 5.75 12.59 5.75 13C5.75 13.41 5.41 13.75 5 13.75Z" fill="white"/> <path d="M21.63 10.5796C21.53 10.5796 21.4199 10.5596 21.3199 10.5096C16.3599 8.29961 10.67 8.28962 5.69997 10.4996C5.31997 10.6696 4.87998 10.4996 4.70998 10.1196C4.53998 9.73961 4.70999 9.29962 5.08999 9.12962C10.44 6.74962 16.58 6.75961 21.93 9.13961C22.31 9.30961 22.48 9.74962 22.31 10.1296C22.19 10.4196 21.92 10.5796 21.63 10.5796Z" fill="white"/> <path d="M13.5003 14.5804C10.6303 14.5804 7.77024 13.9904 5.10024 12.8004C4.72024 12.6304 4.55024 12.1904 4.72024 11.8104C4.89024 11.4304 5.33029 11.2604 5.71029 11.4304C10.6703 13.6304 16.3602 13.6304 21.3302 11.4204C21.7102 11.2504 22.1502 11.4204 22.3202 11.8004C22.4902 12.1804 22.3202 12.6204 21.9402 12.7904C19.2602 13.9804 16.3803 14.5804 13.5003 14.5804Z" fill="white"/> <path d="M15 21.75H12C10.48 21.75 9.25 20.52 9.25 19V18C9.25 17.59 9.59 17.25 10 17.25C10.41 17.25 10.75 17.59 10.75 18V19C10.75 19.69 11.31 20.25 12 20.25H15C15.69 20.25 16.25 19.69 16.25 19V18C16.25 17.59 16.59 17.25 17 17.25C17.41 17.25 17.75 17.59 17.75 18V19C17.75 20.52 16.52 21.75 15 21.75Z" fill="white"/> </g> <defs> <clipPath id="clip0_4482_5208"> <rect width="24" height="24" fill="white"/> </clipPath> </defs> </svg>
