<svg width="24" height="24" viewBox="0 0 24 24" fill="none" xmlns="http://www.w3.org/2000/svg"> <g clip-path="url(#clip0_2085_381628)"> <path d="M12 21.7975C6.07 21.7975 1.25 17.4775 1.25 12.1575C1.25 10.2575 1.86 8.42748 3.02 6.84748L2.81 5.35748C2.64 4.18748 2.56 3.59748 2.85 3.05748C3.1 2.58748 3.54 2.24748 4.05 2.12748C4.65 1.98748 5.19 2.21748 6.29 2.66748L7.48 3.16748C7.59 3.20748 7.69 3.25748 7.79 3.29748C10.46 2.27748 13.56 2.27748 16.23 3.29748C16.33 3.25748 16.43 3.21748 16.54 3.16748L17.72 2.67748C18.82 2.21748 19.37 1.99748 19.95 2.13748C20.47 2.26748 20.91 2.60748 21.16 3.06748C21.45 3.60748 21.36 4.19748 21.2 5.36748L20.99 6.85748C22.15 8.43748 22.76 10.2575 22.76 12.1675C22.76 17.4775 17.94 21.8075 12.01 21.8075L12 21.7975ZM4.41 3.58748C4.41 3.58748 4.4 3.58748 4.39 3.58748C4.3 3.60748 4.21 3.67748 4.17 3.76748C4.12 3.90748 4.21 4.53748 4.3 5.14748L4.56 6.94748C4.59 7.14748 4.53 7.35748 4.41 7.51748C3.33 8.88748 2.76 10.4875 2.76 12.1575C2.76 16.6475 6.91 20.2975 12.01 20.2975C17.11 20.2975 21.26 16.6475 21.26 12.1575C21.26 10.4875 20.69 8.88748 19.61 7.51748C19.48 7.35748 19.43 7.14748 19.46 6.94748L19.72 5.14748C19.81 4.53748 19.9 3.90748 19.84 3.75748C19.8 3.67748 19.71 3.60748 19.61 3.58748C19.47 3.58748 18.88 3.81748 18.3 4.05748L17.12 4.54748C16.9 4.63748 16.71 4.71748 16.55 4.78748C16.36 4.86748 16.15 4.86748 15.96 4.78748C13.48 3.75748 10.55 3.75748 8.07 4.78748C7.88 4.86748 7.67 4.86748 7.48 4.78748C7.32 4.71748 7.13 4.63748 6.91 4.54748L5.72 4.04748C5.17 3.81748 4.6 3.57748 4.42 3.57748L4.41 3.58748Z" fill="white"/> <path d="M13.1098 12.9201C12.9198 12.9201 12.7298 12.8501 12.5798 12.7001C12.2898 12.4101 12.2898 11.9301 12.5798 11.6401L12.6798 11.5401C14.1398 10.0801 16.5198 10.0801 17.9798 11.5401L18.0798 11.6401C18.3698 11.9301 18.3698 12.4101 18.0798 12.7001C17.7898 12.9901 17.3098 12.9901 17.0198 12.7001L16.9198 12.6001C16.0398 11.7201 14.6198 11.7201 13.7398 12.6001L13.6398 12.7001C13.4898 12.8501 13.2998 12.9201 13.1098 12.9201Z" fill="white"/> <path d="M10.8901 12.9201C10.7001 12.9201 10.5001 12.8501 10.3601 12.7001L10.2601 12.6001C9.38014 11.7201 7.96014 11.7301 7.08014 12.6001L6.98014 12.7001C6.69014 12.9901 6.21014 12.9901 5.92014 12.7001C5.63014 12.4101 5.63014 11.9301 5.92014 11.6401L6.02014 11.5401C7.48014 10.0801 9.86014 10.0801 11.3201 11.5401L11.4201 11.6401C11.7101 11.9301 11.7101 12.4101 11.4201 12.7001C11.2701 12.8501 11.0801 12.9201 10.8901 12.9201Z" fill="white"/> <path d="M12.0001 16.81C10.8801 16.81 9.85006 16.3 9.18006 15.4C8.93006 15.07 9.00006 14.6 9.33006 14.35C9.66006 14.1 10.1301 14.17 10.3801 14.5C11.1501 15.53 12.8501 15.53 13.6201 14.5C13.8701 14.17 14.3401 14.1 14.6701 14.35C15.0001 14.6 15.0701 15.07 14.8201 15.4C14.1501 16.3 13.1201 16.81 12.0001 16.81Z" fill="white"/> <path d="M10.96 7.96002C10.55 7.96002 10.21 7.62002 10.21 7.21002V6.42002C10.21 5.57002 10.9 4.88002 11.75 4.88002L11.79 3.27002C11.79 2.86002 12.13 2.52002 12.54 2.52002C12.95 2.52002 13.29 2.86002 13.29 3.27002V4.84002C13.29 5.69002 12.6 6.38002 11.75 6.38002L11.71 7.20002C11.71 7.61002 11.37 7.95002 10.96 7.95002V7.96002Z" fill="white"/> <path d="M18.0299 5.81011C17.8899 5.81011 17.7499 5.77011 17.6199 5.69011C14.2599 3.50011 9.74992 3.50011 6.38992 5.69011C6.03992 5.91011 5.57992 5.82011 5.34992 5.47011C5.11992 5.12011 5.21992 4.66011 5.56992 4.43011C9.41992 1.92011 14.5899 1.92011 18.4399 4.43011C18.7899 4.66011 18.8799 5.12011 18.6599 5.47011C18.5199 5.69011 18.2799 5.81011 18.0299 5.81011Z" fill="white"/> </g> <defs> <clipPath id="clip0_2085_381628"> <rect width="24" height="24" fill="white"/> </clipPath> </defs> </svg>
