<svg width="24" height="24" viewBox="0 0 24 24" fill="none" xmlns="http://www.w3.org/2000/svg"> <g clip-path="url(#clip0_3261_13954)"> <path opacity="0.4" d="M6.63003 14.8501C6.12003 15.0501 5.54003 14.8501 5.28003 14.3701L1.43003 7.44012C0.82003 6.35012 1.24003 5.01012 2.35003 4.45012C6.50003 2.38012 12.89 2.08012 17.69 3.56012C17.5 3.91012 17.19 4.17012 16.79 4.29012L15.83 4.54012C15.23 4.71012 14.85 5.21012 14.85 5.82012C14.85 6.43012 15.24 6.93012 15.81 7.09012L16.79 7.36012C17.29 7.50012 17.67 7.88012 17.81 8.38012L18.07 9.35012C18.22 9.93012 18.7 10.3001 19.28 10.3201L17.03 14.3701C16.76 14.8501 16.19 15.0501 15.68 14.8501C14.41 14.3401 12.73 14.1201 11.06 14.1101C9.39003 14.1001 7.03003 14.6901 6.63003 14.8501Z" fill="white"/> <path d="M22.85 5.84006C22.85 5.91006 22.81 6.07006 22.62 6.13006L21.64 6.40006C20.79 6.63006 20.15 7.27006 19.92 8.12006L19.66 9.08006C19.6 9.30006 19.43 9.32006 19.35 9.32006C19.27 9.32006 19.1 9.30006 19.04 9.08006L18.78 8.11006C18.55 7.27006 17.9 6.63006 17.06 6.40006L16.09 6.14006C15.88 6.08006 15.86 5.90006 15.86 5.83006C15.86 5.75006 15.88 5.57006 16.09 5.51006L17.07 5.25006C17.91 5.01006 18.55 4.37006 18.78 3.53006L19.04 2.58006L19.06 2.51006C19.13 2.34006 19.29 2.31006 19.35 2.31006C19.41 2.31006 19.58 2.33006 19.64 2.49006L19.92 3.52006C20.15 4.36006 20.8 5.00006 21.64 5.24006L22.61 5.50006L22.64 5.52006C22.84 5.60006 22.85 5.78006 22.85 5.84006Z" fill="white"/> <path d="M12.31 21.69H9.98004C9.43004 21.69 8.98004 21.24 8.98004 20.69V20.53C8.98004 19.98 9.43004 19.53 9.98004 19.53H12.31C12.86 19.53 13.31 19.98 13.31 20.53V20.69C13.31 21.24 12.87 21.69 12.31 21.69Z" fill="white"/> <path d="M11.44 20.8501C11.34 20.8901 11.25 20.9101 11.15 20.9101C10.86 20.9101 10.58 20.7401 10.46 20.4501L7.96005 14.4501L7.95005 14.4401L6.14005 10.0801C5.98005 9.70007 6.16005 9.26007 6.54005 9.10007C6.92005 8.94007 7.36005 9.12007 7.52005 9.50007L9.47005 14.1901H9.48005L11.84 19.8701C12 20.2501 11.82 20.6901 11.44 20.8501Z" fill="white"/> <path d="M7.96001 14.4401H7.95001V14.4501H7.96001V14.4401Z" fill="white"/> </g> <defs> <clipPath id="clip0_3261_13954"> <rect width="24" height="24" fill="white"/> </clipPath> </defs> </svg>
