<svg width="24" height="24" viewBox="0 0 24 24" fill="none" xmlns="http://www.w3.org/2000/svg"> <g clip-path="url(#clip0_4418_5127)"> <path d="M14.1302 11.3406C14.5202 9.70057 13.0902 8.27052 11.4502 8.66052C10.6802 8.85052 10.0502 9.48054 9.86022 10.2505C9.47023 11.8905 10.9002 13.3205 12.5402 12.9305C13.3202 12.7405 13.9502 12.1106 14.1302 11.3406Z" fill="white"/> <path opacity="0.4" d="M6.01996 17.97C5.83996 17.97 5.64995 17.9 5.50995 17.77C3.56995 15.97 2.45996 13.43 2.45996 10.79C2.45996 5.52998 6.73995 1.25 12 1.25C17.26 1.25 21.5399 5.52998 21.5399 10.79C21.5399 13.45 20.47 15.91 18.53 17.74C18.23 18.02 17.75 18.01 17.47 17.71C17.19 17.41 17.2 16.93 17.5 16.65C19.14 15.11 20.0399 13.04 20.0399 10.8C20.0399 6.36999 16.43 2.76001 12 2.76001C7.56995 2.76001 3.95996 6.36999 3.95996 10.8C3.95996 13.06 4.86995 15.14 6.52995 16.68C6.82995 16.96 6.84996 17.44 6.56996 17.74C6.41996 17.89 6.21996 17.97 6.01996 17.97Z" fill="white"/> <path opacity="0.4" d="M16 15.3005C15.82 15.3005 15.63 15.2305 15.49 15.1005C15.19 14.8205 15.17 14.3405 15.46 14.0405C16.29 13.1605 16.75 12.0005 16.75 10.8005C16.75 8.18054 14.62 6.06055 12.01 6.06055C9.40001 6.06055 7.27002 8.19054 7.27002 10.8005C7.27002 12.0105 7.73001 13.1605 8.56001 14.0405C8.84001 14.3405 8.83001 14.8205 8.53001 15.1005C8.23001 15.3905 7.75002 15.3706 7.47002 15.0706C6.38002 13.9106 5.77002 12.3905 5.77002 10.8005C5.77002 7.36054 8.57001 4.56055 12.01 4.56055C15.45 4.56055 18.25 7.36054 18.25 10.8005C18.25 12.3905 17.65 13.9106 16.55 15.0706C16.4 15.2206 16.2 15.3005 16 15.3005Z" fill="white"/> <path d="M10.3002 16.6593L8.86022 18.4493C7.72022 19.8793 8.73022 21.9893 10.5602 21.9893H13.4302C15.2602 21.9893 16.2802 19.8693 15.1302 18.4493L13.6902 16.6593C12.8302 15.5693 11.1702 15.5693 10.3002 16.6593Z" fill="white"/> </g> <defs> <clipPath id="clip0_4418_5127"> <rect width="24" height="24" fill="white"/> </clipPath> </defs> </svg>
