<svg width="24" height="24" viewBox="0 0 24 24" fill="none" xmlns="http://www.w3.org/2000/svg"> <g clip-path="url(#clip0_4418_4730)"> <path d="M15.98 19.3809H17.02C18.61 19.3809 19.25 18.7809 19.25 17.2609V5.38086H13.75V17.2609C13.76 18.7809 14.4 19.3809 15.98 19.3809Z" fill="white"/> <path opacity="0.4" d="M7.48 14.3809H8.52C10.11 14.3809 10.75 13.7709 10.75 12.2609V5.38086H5.25V12.2609C5.26 13.7709 5.9 14.3809 7.48 14.3809Z" fill="white"/> <path d="M21.25 6.12086H2.75C2.34 6.12086 2 5.79086 2 5.38086C2 4.97086 2.34 4.63086 2.75 4.63086H21.25C21.66 4.63086 22 4.97086 22 5.38086C22 5.79086 21.66 6.12086 21.25 6.12086Z" fill="white"/> </g> <defs> <clipPath id="clip0_4418_4730"> <rect width="24" height="24" fill="white"/> </clipPath> </defs> </svg>
