<svg width="24" height="24" viewBox="0 0 24 24" fill="none" xmlns="http://www.w3.org/2000/svg"> <g clip-path="url(#clip0_4418_4337)"> <path opacity="0.4" d="M16.1898 2H7.81976C4.17976 2 2.00977 4.17 2.00977 7.81V16.18C2.00977 19.82 4.17976 21.99 7.81976 21.99H16.1898C19.8298 21.99 21.9998 19.82 21.9998 16.18V7.81C21.9998 4.17 19.8298 2 16.1898 2Z" fill="white"/> <path d="M15.6201 7.09947L13.3301 6.33952C12.7501 6.13952 12.1601 6.21947 11.7101 6.53947C11.2601 6.85947 11.0101 7.39951 11.0101 8.00951V8.61949V12.7995C10.6101 12.5795 10.1601 12.4495 9.6701 12.4495C8.13011 12.4495 6.87012 13.7095 6.87012 15.2495C6.87012 16.7895 8.13011 18.0495 9.6701 18.0495C11.2101 18.0495 12.4701 16.7895 12.4701 15.2495V10.6995C12.4801 10.7095 12.5001 10.7095 12.5101 10.7195L14.8001 11.4795C15.0101 11.5495 15.2301 11.5895 15.4401 11.5895C15.8001 11.5895 16.1401 11.4895 16.4201 11.2795C16.8701 10.9595 17.1201 10.4195 17.1201 9.80949V9.19951C17.1201 8.28951 16.4801 7.38947 15.6201 7.09947ZM9.6701 16.5895C8.9301 16.5895 8.34015 15.9895 8.34015 15.2595C8.34015 14.5195 8.9401 13.9195 9.6701 13.9195C10.4101 13.9195 11.0101 14.5195 11.0101 15.2595C11.0101 15.9895 10.4101 16.5895 9.6701 16.5895Z" fill="white"/> </g> <defs> <clipPath id="clip0_4418_4337"> <rect width="24" height="24" fill="white"/> </clipPath> </defs> </svg>
