<svg width="24" height="24" viewBox="0 0 24 24" fill="none" xmlns="http://www.w3.org/2000/svg"> <g clip-path="url(#clip0_4418_4782)"> <path opacity="0.4" d="M19.24 5.58055H18.84L15.46 2.20055C15.19 1.93055 14.75 1.93055 14.47 2.20055C14.2 2.47055 14.2 2.91055 14.47 3.19055L16.86 5.58055H7.14L9.53 3.19055C9.8 2.92055 9.8 2.48055 9.53 2.20055C9.26 1.93055 8.82 1.93055 8.54 2.20055L5.17 5.58055H4.77C3.87 5.58055 2 5.58055 2 8.14055C2 9.11055 2.2 9.75055 2.62 10.1705C2.86 10.4205 3.15 10.5505 3.46 10.6205C3.75 10.6905 4.06 10.7005 4.36 10.7005H19.64C19.95 10.7005 20.24 10.6805 20.52 10.6205C21.36 10.4205 22 9.82055 22 8.14055C22 5.58055 20.13 5.58055 19.24 5.58055Z" fill="white"/> <path d="M19.66 10.6994H4.35996C4.06996 10.6994 3.74996 10.6894 3.45996 10.6094L4.71996 18.2994C5.00996 20.0194 5.75996 21.9994 9.08996 21.9994H14.7C18.07 21.9994 18.67 20.3094 19.03 18.4194L20.54 10.6094C20.26 10.6794 19.96 10.6994 19.66 10.6994ZM13.92 17.8894C13.77 18.0394 13.58 18.1094 13.39 18.1094C13.2 18.1094 13.01 18.0394 12.86 17.8894L12.01 17.0394L11.13 17.9194C10.98 18.0694 10.79 18.1394 10.6 18.1394C10.41 18.1394 10.22 18.0694 10.07 17.9194C9.77996 17.6294 9.77996 17.1494 10.07 16.8594L10.95 15.9794L10.1 15.1294C9.80996 14.8394 9.80996 14.3594 10.1 14.0694C10.39 13.7794 10.87 13.7794 11.16 14.0694L12.01 14.9194L12.83 14.0994C13.12 13.8094 13.6 13.8094 13.89 14.0994C14.18 14.3894 14.18 14.8694 13.89 15.1594L13.07 15.9794L13.92 16.8294C14.22 17.1294 14.22 17.5994 13.92 17.8894Z" fill="white"/> </g> <defs> <clipPath id="clip0_4418_4782"> <rect width="24" height="24" fill="white"/> </clipPath> </defs> </svg>
