<svg width="24" height="24" viewBox="0 0 24 24" fill="none" xmlns="http://www.w3.org/2000/svg"> <g clip-path="url(#clip0_655_9158)"> <path d="M18.3998 6.35C18.2098 6.35 18.0198 6.28 17.8698 6.13C17.5798 5.84 17.5798 5.36 17.8698 5.07L21.4698 1.47C21.7598 1.18 22.2398 1.18 22.5298 1.47C22.8198 1.76 22.8198 2.24 22.5298 2.53L18.9298 6.13C18.7798 6.28 18.5898 6.35 18.3998 6.35Z" fill="white"/> <path d="M10.0902 14.97L5.47016 19.59C5.28016 19.43 5.10016 19.26 4.92016 19.08C4.74016 18.9 4.57016 18.72 4.41016 18.53L9.03016 13.91C9.32016 13.62 9.79016 13.62 10.0902 13.91C10.3802 14.21 10.3802 14.68 10.0902 14.97Z" fill="white"/> <path d="M8.02997 12.69L11.2 15.86C11.72 16.38 12.62 16.18 12.85 15.47L14.47 10.69C14.73 9.91 13.99 9.16 13.2 9.42L8.41997 11.04C7.71997 11.28 7.50997 12.17 8.02997 12.69Z" fill="white"/> <path opacity="0.4" d="M19.08 19.08C15.36 22.79 9.40003 22.96 5.47003 19.59C5.28003 19.43 5.10003 19.26 4.92003 19.08C4.74003 18.9 4.57003 18.72 4.41003 18.53C1.04003 14.6 1.21003 8.64 4.92003 4.92C8.82003 1.03 15.18 1.03 19.08 4.92C22.97 8.82 22.97 15.18 19.08 19.08Z" fill="white"/> </g> <defs> <clipPath id="clip0_655_9158"> <rect width="24" height="24" fill="white"/> </clipPath> </defs> </svg>
