<svg width="24" height="24" viewBox="0 0 24 24" fill="none" xmlns="http://www.w3.org/2000/svg"> <g clip-path="url(#clip0_655_9172)"> <path opacity="0.4" d="M18.3598 6.64L5.6398 19.36C4.5298 18.26 3.7098 16.86 3.2998 15.3L14.2998 4.3C15.8598 4.71 17.2598 5.53 18.3598 6.64Z" fill="white"/> <path d="M20.6996 10.7L9.69965 21.7C8.13965 21.29 6.73965 20.47 5.63965 19.36L18.3596 6.64C19.4696 7.74 20.2896 9.14 20.6996 10.7Z" fill="white"/> <path opacity="0.4" d="M21.0002 13C21.0002 17.97 16.9702 22 12.0002 22C11.2102 22 10.4402 21.9 9.7002 21.7L20.7002 10.7C20.9002 11.44 21.0002 12.21 21.0002 13Z" fill="white"/> <path d="M12 4V2" stroke="white" stroke-width="1.5" stroke-linecap="round" stroke-linejoin="round"/> <path d="M14.3 4.3L3.3 15.3C3.1 14.56 3 13.79 3 13C3 8.03 7.03 4 12 4C12.79 4 13.56 4.1 14.3 4.3Z" fill="white"/> </g> <defs> <clipPath id="clip0_655_9172"> <rect width="24" height="24" fill="white"/> </clipPath> </defs> </svg>
