<svg width="24" height="24" viewBox="0 0 24 24" fill="none" xmlns="http://www.w3.org/2000/svg"> <g clip-path="url(#clip0_655_9155)"> <path d="M18.3598 19.36C17.2598 20.47 15.8598 21.29 14.2998 21.7L3.2998 10.7C3.7098 9.14001 4.5298 7.74001 5.6398 6.64001L18.3598 19.36Z" fill="white"/> <path opacity="0.4" d="M20.6996 15.3C20.2896 16.86 19.4696 18.26 18.3596 19.36L5.63965 6.63999C6.73965 5.52999 8.13965 4.70999 9.69965 4.29999L20.6996 15.3Z" fill="white"/> <path d="M21.0002 13C21.0002 13.79 20.9002 14.56 20.7002 15.3L9.7002 4.3C10.4402 4.1 11.2102 4 12.0002 4C16.9702 4 21.0002 8.03 21.0002 13Z" fill="white"/> <path d="M12 4V2" stroke="white" stroke-width="1.5" stroke-linecap="round" stroke-linejoin="round"/> <path opacity="0.4" d="M14.3 21.7C13.56 21.9 12.79 22 12 22C7.03 22 3 17.97 3 13C3 12.21 3.1 11.44 3.3 10.7L14.3 21.7Z" fill="white"/> </g> <defs> <clipPath id="clip0_655_9155"> <rect width="24" height="24" fill="white"/> </clipPath> </defs> </svg>
