<svg width="24" height="24" viewBox="0 0 24 24" fill="none" xmlns="http://www.w3.org/2000/svg"> <g clip-path="url(#clip0_655_9170)"> <path d="M22.5303 2.53L19.6403 5.42C19.6403 5.42 19.5903 5.47 19.5703 5.48C19.2603 5.1 18.9103 4.75 18.5303 4.43C18.5303 4.41 18.5603 4.38 18.5803 4.36L21.4703 1.47C21.7603 1.18 22.2403 1.18 22.5303 1.47C22.8203 1.76 22.8203 2.24 22.5303 2.53Z" fill="white"/> <g opacity="0.4"> <path d="M22 12C22 17.52 17.52 22 12 22C9.51 22 7.23 21.09 5.48 19.58L8.45 16.61L13.03 17.84C13.09 17.85 13.16 17.86 13.22 17.86C13.55 17.86 13.86 17.64 13.95 17.3C14.05 16.9 13.82 16.49 13.42 16.39L9.67 15.39L11.67 13.39L15.36 14.39C15.43 14.41 15.49 14.42 15.56 14.42C15.89 14.42 16.19 14.2 16.28 13.86C16.39 13.46 16.15 13.05 15.75 12.94L12.89 12.17L14.9 10.16L17.83 10.84C17.89 10.86 17.94 10.86 18 10.86C18.34 10.86 18.65 10.63 18.73 10.28C18.82 9.88 18.57 9.48 18.17 9.38L15.29 8.71L14.62 5.83C14.52 5.43 14.12 5.18 13.72 5.27C13.31 5.36 13.06 5.77 13.16 6.17L13.84 9.1L11.83 11.11L11.06 8.25C10.95 7.85 10.54 7.61 10.14 7.72C9.74 7.83 9.5 8.24 9.61 8.64L10.61 12.33L8.61 14.33L7.61 10.58C7.51 10.19 7.1 9.94 6.7 10.05C6.29 10.16 6.06 10.57 6.16 10.97L7.39 15.55L4.42 18.52C2.91 16.77 2 14.49 2 12C2 6.48 6.48 2 12 2C14.5 2 16.78 2.92 18.53 4.43C18.91 4.75 19.26 5.1 19.57 5.48C21.09 7.23 22 9.51 22 12Z" fill="white"/> <path d="M18.7299 10.28C18.6499 10.63 18.3399 10.86 17.9999 10.86C17.9399 10.86 17.8899 10.86 17.8299 10.84L14.8999 10.16L12.8899 12.17L15.7499 12.94C16.1499 13.05 16.3899 13.46 16.2799 13.86C16.1899 14.2 15.8899 14.42 15.5599 14.42C15.4899 14.42 15.4299 14.41 15.3599 14.39L11.6699 13.39L9.66992 15.39L13.4199 16.39C13.8199 16.49 14.0499 16.9 13.9499 17.3C13.8599 17.64 13.5499 17.86 13.2199 17.86C13.1599 17.86 13.0899 17.85 13.0299 17.84L8.44992 16.61L5.47992 19.58C5.09992 19.25 4.74992 18.9 4.41992 18.52L7.38992 15.55L6.15992 10.97C6.05992 10.57 6.28992 10.16 6.69992 10.05C7.09992 9.94 7.50992 10.19 7.60992 10.58L8.60992 14.33L10.6099 12.33L9.60992 8.64C9.49992 8.24 9.73992 7.83 10.1399 7.72C10.5399 7.61 10.9499 7.85 11.0599 8.25L11.8299 11.11L13.8399 9.1L13.1599 6.17C13.0599 5.77 13.3099 5.36 13.7199 5.27C14.1199 5.18 14.5199 5.43 14.6199 5.83L15.2899 8.71L18.1699 9.38C18.5699 9.48 18.8199 9.88 18.7299 10.28Z" fill="white"/> </g> <path d="M18.7299 10.28C18.6499 10.63 18.3399 10.86 17.9999 10.86C17.9399 10.86 17.8899 10.86 17.8299 10.84L14.8999 10.16L12.8899 12.17L15.7499 12.94C16.1499 13.05 16.3899 13.46 16.2799 13.86C16.1899 14.2 15.8899 14.42 15.5599 14.42C15.4899 14.42 15.4299 14.41 15.3599 14.39L11.6699 13.39L9.66992 15.39L13.4199 16.39C13.8199 16.49 14.0499 16.9 13.9499 17.3C13.8599 17.64 13.5499 17.86 13.2199 17.86C13.1599 17.86 13.0899 17.85 13.0299 17.84L8.44992 16.61L5.47992 19.58C5.09992 19.25 4.74992 18.9 4.41992 18.52L7.38992 15.55L6.15992 10.97C6.05992 10.57 6.28992 10.16 6.69992 10.05C7.09992 9.94 7.50992 10.19 7.60992 10.58L8.60992 14.33L10.6099 12.33L9.60992 8.64C9.49992 8.24 9.73992 7.83 10.1399 7.72C10.5399 7.61 10.9499 7.85 11.0599 8.25L11.8299 11.11L13.8399 9.1L13.1599 6.17C13.0599 5.77 13.3099 5.36 13.7199 5.27C14.1199 5.18 14.5199 5.43 14.6199 5.83L15.2899 8.71L18.1699 9.38C18.5699 9.48 18.8199 9.88 18.7299 10.28Z" fill="white"/> </g> <defs> <clipPath id="clip0_655_9170"> <rect width="24" height="24" fill="white"/> </clipPath> </defs> </svg>
