<svg width="24" height="24" viewBox="0 0 24 24" fill="none" xmlns="http://www.w3.org/2000/svg"> <g clip-path="url(#clip0_655_9183)"> <path d="M16.5596 12.12C17.8896 10.79 17.8896 8.68 16.5596 7.45" stroke="white" stroke-width="1.5" stroke-linecap="round" stroke-linejoin="round"/> <path opacity="0.4" d="M22.0004 9.78C22.0004 14.08 18.5204 17.56 14.2204 17.56C12.3504 17.56 10.6204 16.89 9.27043 15.78C8.87043 15.45 8.50043 15.08 8.18043 14.67C7.09043 13.34 6.44043 11.63 6.44043 9.78C6.44043 5.49 9.93043 2 14.2204 2C18.5104 2 22.0004 5.49 22.0004 9.78Z" fill="white"/> <path d="M9.20043 21.87C8.60043 22.46 7.91043 22.66 7.21043 22.66C6.51043 22.66 5.78043 22.46 5.14043 22.28C3.88043 21.94 3.08043 21.76 2.53043 22.31C2.24043 22.61 1.76043 22.61 1.47043 22.31C1.18043 22.02 1.18043 21.55 1.47043 21.25C2.67043 20.06 4.25043 20.49 5.53043 20.84C6.79043 21.18 7.58043 21.36 8.14043 20.81C8.64043 20.31 8.46043 19.51 8.11043 18.27C7.81043 17.19 7.46043 15.96 8.00043 14.89C8.04043 14.8 8.10043 14.72 8.18043 14.67C8.50043 15.08 8.87043 15.45 9.27043 15.78C9.12043 16.32 9.33043 17.07 9.55043 17.86C9.91043 19.13 10.3604 20.71 9.20043 21.87Z" fill="white"/> </g> <defs> <clipPath id="clip0_655_9183"> <rect width="24" height="24" fill="white"/> </clipPath> </defs> </svg>
