<svg width="24" height="24" viewBox="0 0 24 24" fill="none" xmlns="http://www.w3.org/2000/svg"> <g clip-path="url(#clip0_655_9298)"> <path d="M10.2599 16.3C10.2599 16.44 10.2899 16.57 10.3499 16.69L8.78988 17.48H8.77988L8.11988 17.81C7.08988 18.32 5.87988 17.57 5.87988 16.42V14.66C5.87988 14.21 6.05988 13.82 6.34988 13.55C6.79988 13.12 7.48988 12.96 8.11988 13.27L10.3599 14.39C10.2899 14.51 10.2599 14.65 10.2599 14.8V16.3Z" fill="white"/> <path d="M18.0801 14.67V16.41C18.0801 17.54 16.8801 18.28 15.8701 17.77L15.1401 17.41L13.6301 16.66C13.6801 16.55 13.7001 16.43 13.7001 16.3V14.8C13.7001 14.67 13.6701 14.54 13.6201 14.43L15.8701 13.31C16.4801 13 17.1601 13.15 17.6101 13.58C17.8901 13.84 18.0801 14.23 18.0801 14.67Z" fill="white"/> <path d="M13.6998 14.8V16.3C13.6998 16.43 13.6798 16.55 13.6298 16.66C13.4898 17.02 13.1398 17.27 12.7298 17.27H11.2298C10.8298 17.27 10.4898 17.03 10.3498 16.69C10.2898 16.57 10.2598 16.44 10.2598 16.3V14.8C10.2598 14.65 10.2898 14.51 10.3598 14.39C10.4998 14.06 10.8398 13.83 11.2298 13.83H12.7298C13.1398 13.83 13.4798 14.08 13.6198 14.43C13.6698 14.54 13.6998 14.67 13.6998 14.8Z" fill="white"/> <path d="M16.8206 20.73L15.0906 20.44L14.3806 22L11.9806 17.29L9.58063 22L8.87063 20.44L7.14062 20.73L8.78062 17.48H8.79063L10.3506 16.69C10.4906 17.03 10.8306 17.27 11.2306 17.27H12.7306C13.1406 17.27 13.4906 17.02 13.6306 16.66L15.1406 17.41L16.8206 20.73Z" fill="white"/> <path d="M11.9803 11.09C13.0303 11.09 13.8903 10.24 13.8903 9.18C13.8903 8.12 13.0303 7.27 11.9803 7.27C10.9303 7.27 10.0703 8.12 10.0703 9.18C10.0703 10.24 10.9303 11.09 11.9803 11.09Z" fill="white"/> <path d="M11.9804 5.36C12.3228 5.36 12.6004 5.08242 12.6004 4.74C12.6004 4.39758 12.3228 4.12 11.9804 4.12C11.6379 4.12 11.3604 4.39758 11.3604 4.74C11.3604 5.08242 11.6379 5.36 11.9804 5.36Z" fill="white"/> <path d="M16.4198 9.8C16.7622 9.8 17.0398 9.52242 17.0398 9.18C17.0398 8.83758 16.7622 8.56 16.4198 8.56C16.0774 8.56 15.7998 8.83758 15.7998 9.18C15.7998 9.52242 16.0774 9.8 16.4198 9.8Z" fill="white"/> <path d="M7.53992 9.8C7.88234 9.8 8.15992 9.52242 8.15992 9.18C8.15992 8.83758 7.88234 8.56 7.53992 8.56C7.19751 8.56 6.91992 8.83758 6.91992 9.18C6.91992 9.52242 7.19751 9.8 7.53992 9.8Z" fill="white"/> <path d="M8.85047 6.67C9.19289 6.67 9.47047 6.39242 9.47047 6.05C9.47047 5.70758 9.19289 5.43 8.85047 5.43C8.50805 5.43 8.23047 5.70758 8.23047 6.05C8.23047 6.39242 8.50805 6.67 8.85047 6.67Z" fill="white"/> <path d="M15.1102 6.67C15.4527 6.67 15.7302 6.39242 15.7302 6.05C15.7302 5.70758 15.4527 5.43 15.1102 5.43C14.7678 5.43 14.4902 5.70758 14.4902 6.05C14.4902 6.39242 14.7678 6.67 15.1102 6.67Z" fill="white"/> <g opacity="0.4"> <path d="M18.8802 9.78C18.9702 9.98 19.0102 10.19 19.0102 10.4C19.0102 10.84 18.8202 11.28 18.4702 11.57C18.3002 11.71 18.1702 11.89 18.0802 12.08C17.9802 12.27 17.9302 12.48 17.9302 12.7C17.9302 13.03 17.8002 13.34 17.6102 13.58C17.1602 13.15 16.4802 13 15.8702 13.31L13.6202 14.43C13.4802 14.08 13.1402 13.83 12.7302 13.83H11.2302C10.8402 13.83 10.5002 14.06 10.3602 14.39L8.12023 13.27C7.49023 12.96 6.80023 13.12 6.35023 13.55C6.19023 13.31 6.08023 13.02 6.07023 12.7C6.07023 12.48 6.02023 12.27 5.92023 12.08C5.83023 11.89 5.70023 11.71 5.53023 11.57C5.18023 11.28 4.99023 10.84 4.99023 10.4C4.99023 10.19 5.03023 9.98 5.12023 9.78C5.21023 9.58 5.26023 9.37 5.26023 9.15C5.26023 8.93 5.21023 8.73 5.12023 8.53C5.03023 8.33 4.99023 8.11 4.99023 7.9C4.99023 7.46 5.18023 7.03 5.53023 6.73C5.70023 6.59 5.83023 6.42 5.92023 6.23C6.02023 6.03 6.07023 5.82 6.07023 5.6C6.08023 5.26 6.21023 4.95 6.41023 4.69C6.61023 4.44 6.89023 4.25 7.22023 4.17C7.43023 4.11 7.63023 4.01 7.80023 3.88C7.96023 3.75 8.10023 3.58 8.20023 3.39C8.46023 2.87 8.99023 2.56 9.55023 2.56C9.65023 2.56 9.76023 2.57 9.86023 2.59C9.96023 2.61 10.0602 2.62 10.1602 2.62C10.4902 2.62 10.8102 2.51 11.0802 2.31C11.3502 2.1 11.6802 2 12.0002 2C12.3202 2 12.6502 2.1 12.9202 2.31C13.2702 2.57 13.7102 2.67 14.1402 2.59C14.2402 2.57 14.3402 2.56 14.4402 2.56C15.0102 2.56 15.5302 2.87 15.8002 3.39C16.0002 3.77 16.3602 4.06 16.7802 4.17C17.1102 4.25 17.3902 4.44 17.5902 4.69C17.7902 4.95 17.9202 5.26 17.9302 5.6C17.9302 5.82 17.9802 6.03 18.0802 6.23C18.1702 6.42 18.3002 6.59 18.4702 6.73C18.8202 7.03 19.0102 7.46 19.0102 7.9C19.0102 8.11 18.9702 8.33 18.8802 8.53C18.7902 8.73 18.7402 8.94 18.7402 9.15C18.7402 9.36 18.7902 9.58 18.8802 9.78Z" fill="white"/> </g> <path d="M17.5898 13.62C17.5898 13.62 17.5998 13.59 17.6098 13.58L17.5898 13.62Z" fill="white"/> <path d="M6.39059 13.6C6.39059 13.6 6.37059 13.57 6.35059 13.55L6.39059 13.6Z" fill="white"/> </g> <defs> <clipPath id="clip0_655_9298"> <rect width="24" height="24" fill="white"/> </clipPath> </defs> </svg>
