<svg width="24" height="24" viewBox="0 0 24 24" fill="none" xmlns="http://www.w3.org/2000/svg"> <g clip-path="url(#clip0_4418_4961)"> <path opacity="0.4" d="M16.19 2H7.81C4.17 2 2 4.17 2 7.81V16.18C2 19.83 4.17 22 7.81 22H16.18C19.82 22 21.99 19.83 21.99 16.19V7.81C22 4.17 19.83 2 16.19 2Z" fill="white"/> <path d="M15.5001 10.1291C16.5384 10.1291 17.3801 9.28744 17.3801 8.24914C17.3801 7.21085 16.5384 6.36914 15.5001 6.36914C14.4618 6.36914 13.6201 7.21085 13.6201 8.24914C13.6201 9.28744 14.4618 10.1291 15.5001 10.1291Z" fill="white"/> <path d="M8.50012 10.1291C9.53841 10.1291 10.3801 9.28744 10.3801 8.24914C10.3801 7.21085 9.53841 6.36914 8.50012 6.36914C7.46182 6.36914 6.62012 7.21085 6.62012 8.24914C6.62012 9.28744 7.46182 10.1291 8.50012 10.1291Z" fill="white"/> <path d="M15.5999 12.9199H8.39988C7.69988 12.9199 7.12988 13.4899 7.12988 14.1999C7.12988 16.8899 9.31988 19.0799 12.0099 19.0799C14.6999 19.0799 16.8899 16.8899 16.8899 14.1999C16.8799 13.4999 16.2999 12.9199 15.5999 12.9199Z" fill="white"/> </g> <defs> <clipPath id="clip0_4418_4961"> <rect width="24" height="24" fill="white"/> </clipPath> </defs> </svg>
