<svg width="24" height="24" viewBox="0 0 24 24" fill="none" xmlns="http://www.w3.org/2000/svg"> <g clip-path="url(#clip0_655_9230)"> <path opacity="0.4" d="M7 4.22V22H4.22C3 22 2 21 2 19.78V6.44C2 5.22 3 4.22 4.22 4.22H7Z" fill="white"/> <path d="M12 6.44V19.78C12 21 11 22 9.78 22H7V4.22H9.78C11 4.22 12 5.22 12 6.44Z" fill="white"/> <path d="M9.75039 2.53L8.06039 4.22H5.94039L4.25039 2.53C3.95039 2.24 3.95039 1.76 4.25039 1.47C4.54039 1.18 5.01039 1.18 5.31039 1.47L7.00039 3.16L8.69039 1.47C8.99039 1.18 9.46039 1.18 9.75039 1.47C10.0504 1.76 10.0504 2.24 9.75039 2.53Z" fill="white"/> <path opacity="0.4" d="M17 4.22V22H14.22C13 22 12 21 12 19.78V6.44C12 5.22 13 4.22 14.22 4.22H17Z" fill="white"/> <path d="M22 6.44V19.78C22 21 21 22 19.78 22H17V4.22H19.78C21 4.22 22 5.22 22 6.44Z" fill="white"/> <path d="M19.7504 2.53L18.0604 4.22H15.9404L14.2504 2.53C13.9504 2.24 13.9504 1.76 14.2504 1.47C14.5404 1.18 15.0104 1.18 15.3104 1.47L17.0004 3.16L18.6904 1.47C18.9904 1.18 19.4604 1.18 19.7504 1.47C20.0504 1.76 20.0504 2.24 19.7504 2.53Z" fill="white"/> </g> <defs> <clipPath id="clip0_655_9230"> <rect width="24" height="24" fill="white"/> </clipPath> </defs> </svg>
