<svg width="24" height="24" viewBox="0 0 24 24" fill="none" xmlns="http://www.w3.org/2000/svg"> <g clip-path="url(#clip0_655_9221)"> <path opacity="0.4" d="M22.3801 11.15V17.85C22.3801 20.13 20.5201 22 18.2301 22H5.77012C3.48012 22 1.62012 20.13 1.62012 17.85V11.15C1.62012 8.87 3.48012 7 5.77012 7H18.2301C20.5201 7 22.3801 8.87 22.3801 11.15Z" fill="white"/> <path d="M15.6595 1.25C14.1395 1.25 12.7895 2.13 11.9995 3.47C11.2095 2.13 9.86953 1.25 8.34953 1.25C7.06953 1.25 6.01953 2.29 6.01953 3.57C6.01953 5 6.99953 6.24 8.52953 7H15.4695C16.9995 6.24 17.9795 5 17.9795 3.57C17.9795 2.29 16.9395 1.25 15.6595 1.25ZM7.51953 3.57C7.51953 3.12 7.89953 2.75 8.34953 2.75C9.93953 2.75 11.2295 4.3 11.2495 6.21C9.16953 5.99 7.51953 4.87 7.51953 3.57ZM12.7595 6.21C12.7795 4.3 14.0695 2.75 15.6595 2.75C16.1095 2.75 16.4795 3.12 16.4795 3.57C16.4795 4.87 14.8395 5.99 12.7595 6.21Z" fill="white"/> <path d="M12.0003 17.82C10.9903 17.48 8.53027 15.99 8.53027 13.58C8.53027 12.52 9.39027 11.65 10.4603 11.65C11.0903 11.65 11.6503 11.95 12.0003 12.42C12.3503 11.95 12.9103 11.65 13.5403 11.65C14.6003 11.65 15.4703 12.51 15.4703 13.58C15.4703 15.99 13.0103 17.48 12.0003 17.82Z" fill="white"/> </g> <defs> <clipPath id="clip0_655_9221"> <rect width="24" height="24" fill="white"/> </clipPath> </defs> </svg>
