<svg width="24" height="24" viewBox="0 0 24 24" fill="none" xmlns="http://www.w3.org/2000/svg"> <g clip-path="url(#clip0_4418_4983)"> <path opacity="0.4" d="M11.9702 22C17.4931 22 21.9702 17.5228 21.9702 12C21.9702 6.47715 17.4931 2 11.9702 2C6.44737 2 1.97021 6.47715 1.97021 12C1.97021 17.5228 6.44737 22 11.9702 22Z" fill="white"/> <path d="M11.9999 19.2509C9.84988 19.2509 7.82988 18.2009 6.59988 16.4309C6.35988 16.0909 6.44988 15.6209 6.78988 15.3909C7.12988 15.1509 7.59988 15.2409 7.82988 15.5809C8.77988 16.9409 10.3399 17.7609 11.9999 17.7609C13.6599 17.7609 15.2199 16.9509 16.1699 15.5809C16.4099 15.2409 16.8699 15.1609 17.2099 15.3909C17.5499 15.6309 17.6299 16.0909 17.3999 16.4309C16.1699 18.2009 14.1499 19.2509 11.9999 19.2509Z" fill="white"/> </g> <defs> <clipPath id="clip0_4418_4983"> <rect width="24" height="24" fill="white"/> </clipPath> </defs> </svg>
