<svg width="24" height="24" viewBox="0 0 24 24" fill="none" xmlns="http://www.w3.org/2000/svg"> <g clip-path="url(#clip0_655_9233)"> <path d="M15 5C15 6.35 14.09 7.5 12.86 7.87C12.59 7.96 12.3 8 12 8C11.7 8 11.41 7.96 11.14 7.87C9.91 7.5 9 6.35 9 5C9 3.35 10.35 2 12 2C13.65 2 15 3.35 15 5Z" fill="white"/> <path opacity="0.4" d="M18.6701 17.56H5.33008L11.1401 7.87C11.4101 7.96 11.7001 8 12.0001 8C12.3001 8 12.5901 7.96 12.8601 7.87L18.6701 17.56Z" fill="white"/> <path d="M22 19.78C22 21 21 22 19.78 22H4.22C3 22 2 21 2 19.78C2 18.56 3 17.56 4.22 17.56H19.78C21 17.56 22 18.56 22 19.78Z" fill="white"/> </g> <defs> <clipPath id="clip0_655_9233"> <rect width="24" height="24" fill="white"/> </clipPath> </defs> </svg>
