<svg width="24" height="24" viewBox="0 0 24 24" fill="none" xmlns="http://www.w3.org/2000/svg"> <g clip-path="url(#clip0_4418_5001)"> <path opacity="0.4" d="M21.9999 8.6891C21.9999 9.8791 21.8099 10.9791 21.4799 11.9991C19.8999 16.9991 15.0299 19.9891 12.6199 20.8091C12.2799 20.9291 11.7199 20.9291 11.3799 20.8091C10.7399 20.5891 9.92988 20.2191 9.05988 19.6991C8.49988 19.3691 8.40987 18.5891 8.86987 18.1291L20.1499 6.8491C20.6899 6.3091 21.6399 6.5391 21.8299 7.2791C21.9399 7.7291 21.9999 8.1991 21.9999 8.6891Z" fill="white"/> <path d="M22.53 1.46945C22.24 1.17945 21.7599 1.17945 21.4699 1.46945L19.13 3.80945C18.34 3.35945 17.42 3.09946 16.44 3.09946C14.63 3.09946 13.01 3.97944 12 5.32944C10.99 3.97944 9.36997 3.09946 7.55997 3.09946C4.48997 3.09946 1.99997 5.59945 1.99997 8.68945C1.99997 9.87945 2.18999 10.9795 2.51999 11.9995C3.16999 14.0695 4.38999 15.7995 5.76999 17.1695L1.46994 21.4695C1.17994 21.7595 1.17994 22.2395 1.46994 22.5295C1.61994 22.6795 1.80997 22.7495 1.99997 22.7495C2.18997 22.7495 2.38 22.6795 2.53 22.5295L22.53 2.52945C22.82 2.23945 22.82 1.75945 22.53 1.46945Z" fill="white"/> </g> <defs> <clipPath id="clip0_4418_5001"> <rect width="24" height="24" fill="white"/> </clipPath> </defs> </svg>
