<svg width="24" height="24" viewBox="0 0 24 24" fill="none" xmlns="http://www.w3.org/2000/svg"> <g clip-path="url(#clip0_4418_4244)"> <path d="M19.0698 14.2396C18.7798 14.5296 18.3198 14.5296 18.0398 14.2396C17.7498 13.9496 17.7498 13.4896 18.0398 13.2096C20.0398 11.2096 20.0398 7.95961 18.0398 5.96961C16.0398 3.97961 12.7898 3.96961 10.7998 5.96961C8.80978 7.96961 8.79978 11.2196 10.7998 13.2096C11.0898 13.4996 11.0898 13.9596 10.7998 14.2396C10.5098 14.5296 10.0498 14.5296 9.76979 14.2396C7.19979 11.6696 7.19979 7.48961 9.76979 4.92961C12.3398 2.36961 16.5198 2.35961 19.0798 4.92961C21.6398 7.49961 21.6398 11.6696 19.0698 14.2396Z" fill="white"/> <path opacity="0.4" d="M19.07 4.93043C21.64 7.50043 21.64 11.6704 19.07 14.2404C18.19 15.1204 17.11 15.7004 15.98 15.9804C16.51 13.8204 15.93 11.4504 14.24 9.76043C12.55 8.07043 10.18 7.49043 8.02002 8.02043C8.30002 6.89043 8.87002 5.81043 9.76002 4.93043C12.33 2.36043 16.5 2.36043 19.07 4.93043Z" fill="white"/> <path d="M4.93022 9.76047C5.22022 9.47047 5.68022 9.47047 5.96022 9.76047C6.25022 10.0505 6.25022 10.5105 5.96022 10.7905C3.96022 12.7905 3.96022 16.0405 5.96022 18.0305C7.96022 20.0205 11.2102 20.0305 13.2002 18.0305C15.1902 16.0305 15.2002 12.7805 13.2002 10.7905C12.9102 10.5005 12.9102 10.0405 13.2002 9.76047C13.4902 9.47047 13.9502 9.47047 14.2302 9.76047C16.8002 12.3305 16.8002 16.5105 14.2302 19.0705C11.6602 21.6305 7.48022 21.6405 4.92022 19.0705C2.36022 16.5005 2.36022 12.3305 4.93022 9.76047Z" fill="white"/> <path opacity="0.5" d="M14.2399 9.75988C15.9299 11.4499 16.5099 13.8199 15.9799 15.9799C15.6999 17.1099 15.1199 18.1899 14.2399 19.0699C11.6699 21.6399 7.49994 21.6399 4.92994 19.0699C2.35994 16.4999 2.35994 12.3299 4.92994 9.75988C5.80994 8.86988 6.88994 8.29988 8.01994 8.01988C10.1799 7.48988 12.5499 8.06988 14.2399 9.75988Z" fill="white"/> </g> <defs> <clipPath id="clip0_4418_4244"> <rect width="24" height="24" fill="white"/> </clipPath> </defs> </svg>
