<svg width="24" height="24" viewBox="0 0 24 24" fill="none" xmlns="http://www.w3.org/2000/svg"> <g clip-path="url(#clip0_4418_4572)"> <path opacity="0.4" d="M20.6202 8.7C19.5802 4.07 15.5402 2 12.0002 2C12.0002 2 12.0002 2 11.9902 2C8.46024 2 4.43024 4.07 3.38024 8.69C2.20024 13.85 5.36024 18.22 8.22024 20.98C9.28024 22 10.6402 22.51 12.0002 22.51C13.3602 22.51 14.7202 22 15.7702 20.98C18.6302 18.22 21.7902 13.86 20.6202 8.7Z" fill="white"/> <path d="M10.7499 13.7495C10.5599 13.7495 10.3699 13.6795 10.2199 13.5295L8.71994 12.0295C8.42994 11.7395 8.42994 11.2595 8.71994 10.9695C9.00994 10.6795 9.48994 10.6795 9.77994 10.9695L10.7499 11.9395L14.2199 8.46945C14.5099 8.17945 14.9899 8.17945 15.2799 8.46945C15.5699 8.75945 15.5699 9.23945 15.2799 9.52945L11.2799 13.5295C11.1299 13.6795 10.9399 13.7495 10.7499 13.7495Z" fill="white"/> </g> <defs> <clipPath id="clip0_4418_4572"> <rect width="24" height="24" fill="white"/> </clipPath> </defs> </svg>
