<svg width="24" height="24" viewBox="0 0 24 24" fill="none" xmlns="http://www.w3.org/2000/svg"> <g clip-path="url(#clip0_4418_4533)"> <path opacity="0.4" d="M16 2H8C4 2 2 4 2 8V21C2 21.55 2.45 22 3 22H16C20 22 22 20 22 16V8C22 4 20 2 16 2Z" fill="white"/> <path d="M16.5499 7.46019C15.2899 6.20019 14.0699 6.17019 12.7799 7.46019L11.9899 8.25019C11.9199 8.32019 11.9 8.42019 11.92 8.51019C12.41 10.2302 13.7799 11.6002 15.4999 12.0902C15.5199 12.1002 15.5499 12.1002 15.5799 12.1002C15.6499 12.1002 15.7199 12.0702 15.7699 12.0202L16.5499 11.2402C17.1899 10.6002 17.4999 9.99019 17.4999 9.37019C17.4999 8.72019 17.1899 8.10019 16.5499 7.46019Z" fill="white"/> <path d="M14.3399 12.6711C14.1499 12.5811 13.9699 12.4911 13.7999 12.3811C13.6599 12.3011 13.52 12.2111 13.39 12.1111C13.28 12.0411 13.1499 11.9411 13.0199 11.8311C12.9999 11.8211 12.9599 11.7911 12.9099 11.7311C12.6999 11.5511 12.4599 11.3111 12.2399 11.0611C12.2199 11.0511 12.1899 11.0011 12.1499 10.9411C12.0799 10.8611 11.9799 10.7311 11.8799 10.5911C11.7999 10.4911 11.7099 10.3511 11.6299 10.2111C11.5299 10.0411 11.4299 9.86109 11.3499 9.68109C11.2599 9.48109 11.1899 9.30109 11.1199 9.12109L7.34995 12.8911C7.09995 13.1411 6.86995 13.6011 6.81995 13.9411L6.52994 16.0211C6.45994 16.4611 6.58993 16.8711 6.85993 17.1511C7.08993 17.3811 7.40995 17.5011 7.75995 17.5011C7.83995 17.5011 7.90993 17.4911 7.98993 17.4811L10.07 17.1911C10.41 17.1411 10.8699 16.9111 11.1199 16.6611L14.89 12.8911C14.71 12.8211 14.5299 12.7511 14.3399 12.6711Z" fill="white"/> </g> <defs> <clipPath id="clip0_4418_4533"> <rect width="24" height="24" fill="white"/> </clipPath> </defs> </svg>
