<svg width="24" height="24" viewBox="0 0 24 24" fill="none" xmlns="http://www.w3.org/2000/svg"> <g clip-path="url(#clip0_4418_5050)"> <path opacity="0.4" d="M16.19 2H7.81C4.17 2 2 4.17 2 7.81V16.18C2 19.83 4.17 22 7.81 22H16.18C19.82 22 21.99 19.83 21.99 16.19V7.81C22 4.17 19.83 2 16.19 2Z" fill="white"/> <path opacity="0.97" d="M11.9999 10.3095C12.7234 10.3095 13.3099 9.72295 13.3099 8.99945C13.3099 8.27596 12.7234 7.68945 11.9999 7.68945C11.2764 7.68945 10.6899 8.27596 10.6899 8.99945C10.6899 9.72295 11.2764 10.3095 11.9999 10.3095Z" fill="white"/> <path opacity="0.97" d="M8.31 13.6895C7.59 13.6895 7 14.2795 7 14.9995C7 15.7195 7.59 16.3095 8.31 16.3095C9.03 16.3095 9.62 15.7195 9.62 14.9995C9.62 14.2795 9.03 13.6895 8.31 13.6895Z" fill="white"/> <path opacity="0.97" d="M15.6899 13.6895C14.9699 13.6895 14.3799 14.2795 14.3799 14.9995C14.3799 15.7195 14.9699 16.3095 15.6899 16.3095C16.4099 16.3095 16.9999 15.7195 16.9999 14.9995C16.9999 14.2795 16.4099 13.6895 15.6899 13.6895Z" fill="white"/> </g> <defs> <clipPath id="clip0_4418_5050"> <rect width="24" height="24" fill="white"/> </clipPath> </defs> </svg>
