<svg width="24" height="24" viewBox="0 0 24 24" fill="none" xmlns="http://www.w3.org/2000/svg"> <g clip-path="url(#clip0_4418_4563)"> <path opacity="0.4" d="M16.19 2H7.82C4.17 2 2 4.17 2 7.81V16.18C2 19.82 4.17 21.99 7.81 21.99H16.18C19.82 21.99 21.99 19.82 21.99 16.18V7.81C22 4.17 19.83 2 16.19 2Z" fill="white"/> <path d="M17.35 9.05077L15.01 16.5908C14.45 18.3808 11.94 18.4108 11.35 16.6308L10.65 14.5608C10.46 13.9908 10.01 13.5308 9.43997 13.3508L7.35997 12.6508C5.58997 12.0608 5.61997 9.53077 7.40997 8.99077L14.95 6.64077C16.43 6.19077 17.82 7.58077 17.35 9.05077Z" fill="white"/> </g> <defs> <clipPath id="clip0_4418_4563"> <rect width="24" height="24" fill="white"/> </clipPath> </defs> </svg>
