<svg width="24" height="24" viewBox="0 0 24 24" fill="none" xmlns="http://www.w3.org/2000/svg"> <g clip-path="url(#clip0_655_9312)"> <g opacity="0.4"> <path d="M17.7498 9.57001V9.62001C17.7498 11 16.6398 12.11 15.2598 12.11H13.7298C13.5298 12.11 13.3498 12.02 13.1898 11.9C13.0898 11.83 12.9898 11.77 12.8798 11.72C12.7998 11.67 12.7098 11.64 12.6298 11.61C12.5198 11.57 12.4198 11.55 12.3098 11.53C12.1998 11.51 12.0898 11.5 11.9798 11.5C11.8598 11.5 11.7498 11.51 11.6398 11.53C11.5298 11.55 11.4298 11.57 11.3198 11.61C11.2398 11.63 11.1598 11.67 11.0898 11.71C10.9698 11.76 10.8598 11.82 10.7598 11.9C10.5998 12.03 10.4198 12.11 10.2198 12.11H8.73984C7.35984 12.11 6.24984 11 6.24984 9.62001V9.57001L4.08984 16.67C4.08984 18.54 5.60984 20.06 7.47984 20.06C7.95984 20.06 8.40984 19.97 8.81984 19.79C9.29984 21.08 10.5398 22 11.9998 22C13.4598 22 14.6998 21.08 15.1798 19.79C15.5898 19.97 16.0398 20.06 16.5198 20.06C18.3898 20.06 19.9098 18.54 19.9098 16.67L17.7498 9.57001ZM14.1998 16.26C13.7098 16.95 12.9098 17.39 11.9998 17.39C11.0898 17.39 10.2898 16.95 9.79984 16.26C9.32984 15.61 9.82984 14.7 10.6298 14.7H13.3698C14.1698 14.7 14.6698 15.61 14.1998 16.26Z" fill="white"/> </g> <path d="M17.75 4.49V9.62C17.75 11 16.64 12.11 15.26 12.11H13.73C13.53 12.11 13.35 12.02 13.19 11.9C13.09 11.83 12.99 11.77 12.88 11.72C12.8 11.67 12.71 11.64 12.63 11.61C12.52 11.57 12.42 11.55 12.31 11.53C12.2 11.51 12.09 11.5 11.98 11.5C11.86 11.5 11.75 11.51 11.64 11.53C11.53 11.55 11.43 11.57 11.32 11.61C11.24 11.63 11.16 11.67 11.09 11.71C10.97 11.76 10.86 11.82 10.76 11.9C10.6 12.03 10.42 12.11 10.22 12.11H8.74C7.36 12.11 6.25 11 6.25 9.62V4.49C6.25 3.11 7.36 2 8.74 2H15.26C16.64 2 17.75 3.11 17.75 4.49Z" fill="white"/> <path d="M13.3698 14.7C14.1698 14.7 14.6698 15.61 14.1998 16.26C13.7298 16.91 12.9098 17.39 11.9998 17.39C11.0898 17.39 10.2898 16.95 9.79976 16.26C9.30976 15.57 9.82976 14.7 10.6298 14.7H13.3598H13.3698Z" fill="white"/> </g> <defs> <clipPath id="clip0_655_9312"> <rect width="24" height="24" fill="white"/> </clipPath> </defs> </svg>
