<svg width="24" height="24" viewBox="0 0 24 24" fill="none" xmlns="http://www.w3.org/2000/svg"> <g clip-path="url(#clip0_4418_5067)"> <path opacity="0.4" d="M16 8.99084V20.3509C16 21.8009 14.96 22.4108 13.69 21.7108L9.76 19.5208C9.34 19.2908 8.66 19.2908 8.24 19.5208L4.31 21.7108C3.04 22.4108 2 21.8009 2 20.3509V8.99084C2 7.28084 3.4 5.88086 5.11 5.88086H12.89C14.6 5.88086 16 7.28084 16 8.99084Z" fill="white"/> <path d="M10.0598 11.9993L10.9398 11.1193C11.2298 10.8293 11.2298 10.3493 10.9398 10.0593C10.6498 9.7693 10.1698 9.7693 9.87979 10.0593L8.99979 10.9393L8.11979 10.0593C7.82979 9.7693 7.34979 9.7693 7.05979 10.0593C6.76979 10.3493 6.76979 10.8293 7.05979 11.1193L7.93979 11.9993L7.05979 12.8793C6.76979 13.1693 6.76979 13.6493 7.05979 13.9393C7.20979 14.0893 7.39979 14.1593 7.58979 14.1593C7.77979 14.1593 7.96979 14.0893 8.11979 13.9393L8.99979 13.0593L9.87979 13.9393C10.0298 14.0893 10.2198 14.1593 10.4098 14.1593C10.5998 14.1593 10.7898 14.0893 10.9398 13.9393C11.2298 13.6493 11.2298 13.1693 10.9398 12.8793L10.0598 11.9993Z" fill="white"/> <path d="M22 5.10999V16.47C22 17.92 20.96 18.53 19.69 17.83L16 15.77V8.98999C16 7.27999 14.6 5.88 12.89 5.88H8V5.10999C8 3.39999 9.4 2 11.11 2H18.89C20.6 2 22 3.39999 22 5.10999Z" fill="white"/> </g> <defs> <clipPath id="clip0_4418_5067"> <rect width="24" height="24" fill="white"/> </clipPath> </defs> </svg>
