<svg width="24" height="24" viewBox="0 0 24 24" fill="none" xmlns="http://www.w3.org/2000/svg"> <g clip-path="url(#clip0_4418_4642)"> <path opacity="0.4" d="M18.3301 5.67L6.59009 17.41C6.15009 17.85 5.41008 17.79 5.05008 17.27C3.81008 15.46 3.08008 13.32 3.08008 11.12V6.73C3.08008 5.91 3.70008 4.98 4.46008 4.67L10.0301 2.39C11.2901 1.87 12.6901 1.87 13.9501 2.39L17.9901 4.03999C18.6601 4.30999 18.8301 5.17 18.3301 5.67Z" fill="white"/> <path d="M19.27 7.03963C19.92 6.48963 20.91 6.95962 20.91 7.80962V11.1196C20.91 16.0096 17.36 20.5896 12.51 21.9296C12.18 22.0196 11.82 22.0196 11.48 21.9296C10.06 21.5296 8.74 20.8596 7.61 19.9796C7.13 19.6096 7.08001 18.9096 7.50001 18.4796C9.68001 16.2496 16.06 9.74963 19.27 7.03963Z" fill="white"/> </g> <defs> <clipPath id="clip0_4418_4642"> <rect width="24" height="24" fill="white"/> </clipPath> </defs> </svg>
