<svg width="24" height="24" viewBox="0 0 24 24" fill="none" xmlns="http://www.w3.org/2000/svg"> <g clip-path="url(#clip0_655_9315)"> <path d="M18.2295 10.2H5.76953L5.88953 9.36999C6.00953 8.49999 6.74953 7.85999 7.62953 7.85999H16.3695C17.2495 7.85999 17.9895 8.49999 18.1095 9.36999L18.2295 10.2Z" fill="white"/> <g opacity="0.4"> <path d="M19.0697 16.14H4.92969L5.76969 10.2H11.9997C12.6497 10.2 13.1697 10.73 13.1697 11.37C13.1697 10.73 13.6997 10.2 14.3397 10.2C14.9797 10.2 15.5197 10.73 15.5197 11.37C15.5197 10.73 16.0397 10.2 16.6897 10.2H18.2297L19.0697 16.14Z" fill="white"/> </g> <path d="M13.1701 6.68999C13.1701 7.32999 12.6501 7.85999 12.0001 7.85999C11.3501 7.85999 10.8301 7.32999 10.8301 6.68999C10.8301 6.04999 11.3501 5.51999 12.0001 5.51999C12.6501 5.51999 13.1701 6.03999 13.1701 6.68999Z" fill="white"/> <path d="M20.2398 16.92V17.31C20.2398 17.96 19.7198 18.48 19.0698 18.48H4.92977C4.27977 18.48 3.75977 17.96 3.75977 17.31V16.92C3.75977 16.49 4.10977 16.14 4.53977 16.14H19.4598C19.8898 16.14 20.2398 16.49 20.2398 16.92Z" fill="white"/> </g> <defs> <clipPath id="clip0_655_9315"> <rect width="24" height="24" fill="white"/> </clipPath> </defs> </svg>
