<svg width="24" height="24" viewBox="0 0 24 24" fill="none" xmlns="http://www.w3.org/2000/svg"> <g clip-path="url(#clip0_655_9248)"> <path d="M21.25 12C21.25 11.5858 21.5858 11.25 22 11.25C22.4142 11.25 22.75 11.5858 22.75 12C22.75 14.8542 20.4138 17.1904 17.5596 17.1904H2C1.58593 17.1904 1.25023 16.8544 1.25 16.4404C1.25 16.0262 1.58579 15.6904 2 15.6904H17.5596C19.5854 15.6904 21.25 14.0258 21.25 12Z" fill="white"/> <path d="M1.25 7.56C1.25 7.14578 1.58579 6.81 2 6.81C2.41421 6.81 2.75 7.14578 2.75 7.56C2.75 9.58578 4.41464 11.2504 6.44043 11.2504H17.5498C17.964 11.2504 18.2998 11.5862 18.2998 12.0004C18.2996 12.4144 17.9639 12.7504 17.5498 12.7504H6.44043C3.58622 12.7504 1.25 10.4142 1.25 7.56Z" fill="white"/> <path opacity="0.4" d="M5.69043 16.4404V12C5.69043 11.5858 6.02622 11.25 6.44043 11.25C6.85464 11.25 7.19043 11.5858 7.19043 12V16.4404C7.1902 16.8544 6.8545 17.1904 6.44043 17.1904C6.02636 17.1904 5.69066 16.8544 5.69043 16.4404Z" fill="white"/> <path opacity="0.4" d="M11.25 16.4404V12C11.25 11.5858 11.5858 11.25 12 11.25C12.4142 11.25 12.75 11.5858 12.75 12V16.4404C12.7498 16.8544 12.4141 17.1904 12 17.1904C11.5859 17.1904 11.2502 16.8544 11.25 16.4404Z" fill="white"/> </g> <defs> <clipPath id="clip0_655_9248"> <rect width="24" height="24" fill="white"/> </clipPath> </defs> </svg>
