<svg width="24" height="24" viewBox="0 0 24 24" fill="none" xmlns="http://www.w3.org/2000/svg"> <g clip-path="url(#clip0_3261_13099)"> <path opacity="0.4" d="M22.4601 6.27002V16.27C22.4601 19.02 20.2101 21.27 17.4601 21.27H7.46008C7.27008 21.27 7.08008 21.23 6.89008 21.21C7.07008 21.01 7.29008 20.87 7.57008 20.79L8.56008 20.52C9.11126 20.3465 9.51008 19.8526 9.51008 19.27C9.51008 18.72 9.21008 18.25 8.71008 18.04L7.55008 17.71C7.06008 17.57 6.67008 17.19 6.54008 16.69L6.23008 15.57C6.04008 15.07 5.59008 14.73 5.03008 14.73C4.48008 14.73 4.00008 15.06 3.81008 15.56L3.75008 15.73L3.49008 16.68C3.37008 17.11 3.07008 17.43 2.67008 17.62C2.55008 17.18 2.46008 16.74 2.46008 16.27V6.27002C2.46008 3.52002 4.71008 1.27002 7.46008 1.27002H17.4601C20.2101 1.27002 22.4601 3.52002 22.4601 6.27002Z" fill="white"/> <path d="M17.05 6.27002V8.43002C17.05 10.96 14.99 13.02 12.46 13.02C9.93 13.02 7.87 10.96 7.87 8.43002V6.27002C7.87 5.86002 8.21 5.52002 8.62 5.52002C9.03 5.52002 9.37 5.86002 9.37 6.27002V8.43002C9.37 10.13 10.75 11.52 12.46 11.52C14.17 11.52 15.55 10.14 15.55 8.43002V6.27002C15.55 5.86002 15.89 5.52002 16.3 5.52002C16.71 5.52002 17.05 5.86002 17.05 6.27002Z" fill="white"/> <path d="M8.53004 19.25C8.53004 19.32 8.49004 19.48 8.30004 19.54L7.32004 19.81C6.47004 20.04 5.83004 20.68 5.60004 21.53L5.34004 22.49C5.28004 22.71 5.11004 22.73 5.03004 22.73C4.95004 22.73 4.78004 22.71 4.72004 22.49L4.46004 21.52C4.23004 20.68 3.58004 20.04 2.74004 19.81L1.77004 19.55C1.56004 19.49 1.54004 19.31 1.54004 19.24C1.54004 19.16 1.56004 18.98 1.77004 18.92L2.75004 18.66C3.59004 18.42 4.23004 17.78 4.46004 16.94L4.74004 15.92C4.81004 15.75 4.97004 15.72 5.03004 15.72C5.09004 15.72 5.26004 15.74 5.32004 15.9L5.60004 16.93C5.83004 17.77 6.48004 18.41 7.32004 18.65L8.32004 18.93C8.52004 19.01 8.53004 19.19 8.53004 19.25Z" fill="white"/> </g> <defs> <clipPath id="clip0_3261_13099"> <rect width="24" height="24" fill="white"/> </clipPath> </defs> </svg>
