<svg width="24" height="24" viewBox="0 0 24 24" fill="none" xmlns="http://www.w3.org/2000/svg"> <g clip-path="url(#clip0_4418_4497)"> <path d="M18.7101 9.49048C18.6101 9.49048 18.5101 9.47049 18.4101 9.43049C18.0301 9.26049 17.8601 8.8205 18.0201 8.4405C18.2101 8.0105 18.1001 7.38048 17.7501 6.86048C17.4001 6.33048 16.8701 5.98049 16.3801 6.00049C15.9401 6.00049 15.6301 5.6705 15.6201 5.2605C15.6201 4.8405 15.9501 4.51049 16.3601 4.50049C17.3901 4.48049 18.3601 5.07051 18.9901 6.02051C19.6301 6.98051 19.7801 8.13052 19.3901 9.03052C19.2801 9.32052 19.0001 9.49048 18.7101 9.49048Z" fill="white"/> <path d="M21.8201 10.4793C21.7501 10.4793 21.6901 10.4694 21.6201 10.4494C21.2201 10.3394 20.9901 9.92938 21.1001 9.52938C21.4801 8.16938 21.1601 6.54935 20.2501 5.18935C19.3401 3.82935 17.9601 2.91935 16.5501 2.74935C16.1401 2.69935 15.8501 2.32933 15.9001 1.91933C15.9501 1.50933 16.3301 1.20937 16.7301 1.26937C18.5601 1.48937 20.3401 2.64935 21.4901 4.36935C22.6401 6.08935 23.0301 8.16936 22.5401 9.94936C22.4501 10.2594 22.1501 10.4793 21.8201 10.4793Z" fill="white"/> <path opacity="0.4" d="M17.5198 15.8406C17.4098 14.6206 17.0798 13.3105 14.6998 13.3105H5.22979C2.84979 13.3105 2.5298 14.6206 2.4098 15.8406L1.9898 20.3605C1.9398 20.9205 2.12979 21.4905 2.50979 21.9105C2.89979 22.3405 3.4598 22.5906 4.0498 22.5906H5.4398C6.6398 22.5906 6.8698 21.9006 7.0198 21.4506L7.1698 21.0106C7.3398 20.5006 7.3798 20.3705 8.0498 20.3705H11.8498C12.5098 20.3705 12.5398 20.4406 12.7298 21.0106L12.8798 21.4606C13.0298 21.9106 13.2598 22.6005 14.4598 22.6005H15.8498C16.4398 22.6005 16.9998 22.3505 17.3898 21.9205C17.7698 21.5005 17.9598 20.9305 17.9098 20.3705L17.5198 15.8406Z" fill="white"/> <path d="M16.6497 11.09H15.9097C15.8997 11.09 15.8997 11.09 15.8897 11.09L15.6097 9.73999C15.3397 8.43999 14.7897 7.25 12.5797 7.25H10.5297H9.41974H7.36974C5.15974 7.25 4.59974 8.43999 4.33974 9.73999L4.05974 11.09C4.04974 11.09 4.04973 11.09 4.03973 11.09H3.29974C2.98974 11.09 2.73975 11.34 2.73975 11.65C2.73975 11.96 2.98974 12.21 3.29974 12.21H3.82974L3.51974 13.69C3.91974 13.46 4.47974 13.32 5.24974 13.32H14.7197C15.4897 13.32 16.0497 13.46 16.4497 13.69L16.1397 12.21H16.6697C16.9797 12.21 17.2297 11.96 17.2297 11.65C17.2097 11.34 16.9597 11.09 16.6497 11.09Z" fill="white"/> <path d="M7.74995 17.3895H5.51996C5.20996 17.3895 4.95996 17.1395 4.95996 16.8295C4.95996 16.5195 5.20996 16.2695 5.51996 16.2695H7.74995C8.05995 16.2695 8.30995 16.5195 8.30995 16.8295C8.29995 17.1395 8.05995 17.3895 7.74995 17.3895Z" fill="white"/> <path d="M14.4296 17.3895H12.1996C11.8896 17.3895 11.6396 17.1395 11.6396 16.8295C11.6396 16.5195 11.8896 16.2695 12.1996 16.2695H14.4296C14.7396 16.2695 14.9897 16.5195 14.9897 16.8295C14.9797 17.1395 14.7296 17.3895 14.4296 17.3895Z" fill="white"/> </g> <defs> <clipPath id="clip0_4418_4497"> <rect width="24" height="24" fill="white"/> </clipPath> </defs> </svg>
