<svg width="24" height="24" viewBox="0 0 24 24" fill="none" xmlns="http://www.w3.org/2000/svg"> <g clip-path="url(#clip0_655_9285)"> <path d="M12.0002 17.4H17.8402C18.7202 17.4 19.2002 16.38 18.6302 15.7L15.7102 12.2C15.1502 11.53 15.6302 10.5 16.5002 10.5H16.8202C17.6702 10.5 18.1602 9.52999 17.6502 8.83999L12.8202 2.39999C12.4102 1.84999 11.5802 1.84999 11.1602 2.39999L6.33015 8.83999C5.82015 9.51999 6.31015 10.5 7.16015 10.5H7.48015C8.36015 10.5 8.84015 11.52 8.27015 12.2L5.35015 15.7C4.79015 16.37 5.27015 17.4 6.14015 17.4H11.9802H12.0002Z" fill="white"/> <path opacity="0.4" d="M11.25 21.9996V17.4C11.25 16.9858 11.5858 16.65 12 16.65C12.4142 16.65 12.75 16.9858 12.75 17.4V21.9996C12.75 22.4138 12.4142 22.7496 12 22.7496C11.5858 22.7496 11.25 22.4138 11.25 21.9996Z" fill="white"/> </g> <defs> <clipPath id="clip0_655_9285"> <rect width="24" height="24" fill="white"/> </clipPath> </defs> </svg>
