<svg width="24" height="24" viewBox="0 0 24 24" fill="none" xmlns="http://www.w3.org/2000/svg"> <g clip-path="url(#clip0_4418_5192)"> <path opacity="0.4" d="M16.19 2H7.81C4.17 2 2 4.17 2 7.81V16.18C2 19.83 4.17 22 7.81 22H16.18C19.82 22 21.99 19.83 21.99 16.19V7.81C22 4.17 19.83 2 16.19 2Z" fill="white"/> <path d="M16.8802 12.4691C16.8802 12.0791 16.5702 11.7691 16.1802 11.7691C15.7902 11.7691 15.4802 12.0791 15.4802 12.4691V12.6491L12.7602 9.92906C12.6102 9.77906 12.4102 9.70906 12.2002 9.72906C11.9902 9.74906 11.8002 9.85906 11.6902 10.0391L10.6702 11.5591L8.31018 9.17906C8.04018 8.90906 7.60018 8.90906 7.32018 9.17906C7.05018 9.44906 7.05018 9.88906 7.32018 10.1691L10.3002 13.1491C10.4502 13.2991 10.6502 13.3691 10.8602 13.3491C11.0702 13.3291 11.2602 13.2191 11.3702 13.0391L12.3902 11.5191L14.5002 13.6291H14.3202C13.9302 13.6291 13.6202 13.9391 13.6202 14.3291C13.6202 14.7191 13.9302 15.0291 14.3202 15.0291H16.1802C16.2702 15.0291 16.3602 15.0091 16.4502 14.9791C16.6202 14.9091 16.7602 14.7691 16.8302 14.5991C16.8702 14.5091 16.8802 14.4191 16.8802 14.3291V12.4691Z" fill="white"/> </g> <defs> <clipPath id="clip0_4418_5192"> <rect width="24" height="24" fill="white"/> </clipPath> </defs> </svg>
