<svg width="24" height="24" viewBox="0 0 24 24" fill="none" xmlns="http://www.w3.org/2000/svg"> <path opacity="0.4" d="M7.81 2H16.18C19.83 2 22 4.17 22 7.81V16.18C22 19.82 19.83 21.99 16.19 21.99H7.81C4.17 22 2 19.83 2 16.19V7.81C2 4.17 4.17 2 7.81 2Z" fill="white"/> <path d="M13.92 8.97957H8.77L9.1 8.64957C9.39 8.35957 9.39 7.87957 9.1 7.58957C8.81 7.29957 8.33 7.29957 8.04 7.58957L6.47 9.15957C6.18 9.44957 6.18 9.92957 6.47 10.2196L8.04 11.7896C8.19 11.9396 8.38 12.0096 8.57 12.0096C8.76 12.0096 8.95 11.9396 9.1 11.7896C9.39 11.4996 9.39 11.0196 9.1 10.7296L8.84 10.4696H13.92C15.2 10.4696 16.25 11.5096 16.25 12.7996C16.25 14.0896 15.21 15.1296 13.92 15.1296H9C8.59 15.1296 8.25 15.4696 8.25 15.8796C8.25 16.2896 8.59 16.6296 9 16.6296H13.92C16.03 16.6296 17.75 14.9096 17.75 12.7996C17.75 10.6896 16.03 8.97957 13.92 8.97957Z" fill="white"/> </svg>
