<svg width="24" height="24" viewBox="0 0 24 24" fill="none" xmlns="http://www.w3.org/2000/svg"> <g clip-path="url(#clip0_4418_4380)"> <path opacity="0.4" d="M12 22C17.5228 22 22 17.5228 22 12C22 6.47715 17.5228 2 12 2C6.47715 2 2 6.47715 2 12C2 17.5228 6.47715 22 12 22Z" fill="white"/> <path d="M9.1001 12.0005V10.5205C9.1001 8.61048 10.4501 7.84048 12.1001 8.79048L13.3801 9.53048L14.6601 10.2705C16.3101 11.2205 16.3101 12.7805 14.6601 13.7305L13.3801 14.4705L12.1001 15.2105C10.4501 16.1605 9.1001 15.3805 9.1001 13.4805V12.0005Z" fill="white"/> </g> <defs> <clipPath id="clip0_4418_4380"> <rect width="24" height="24" fill="white"/> </clipPath> </defs> </svg>
