<svg width="24" height="24" viewBox="0 0 24 24" fill="none" xmlns="http://www.w3.org/2000/svg"> <g clip-path="url(#clip0_2085_391714)"> <path d="M12 2C8.10995 2 4.94995 5.16 4.94995 9.05V14.95C4.94995 18.84 8.10995 22 12 22C15.89 22 19.05 18.84 19.05 14.95V9.05C19.05 5.16 15.89 2 12 2ZM15.32 14.95C15.32 16.78 13.83 18.27 12 18.27C10.17 18.27 8.67995 16.78 8.67995 14.95V9.05C8.67995 7.22 10.17 5.73 12 5.73C13.83 5.73 15.32 7.22 15.32 9.05V14.95Z" fill="white"/> </g> <defs> <clipPath id="clip0_2085_391714"> <rect width="24" height="24" fill="white"/> </clipPath> </defs> </svg>
