<svg width="24" height="24" viewBox="0 0 24 24" fill="none" xmlns="http://www.w3.org/2000/svg"> <g clip-path="url(#clip0_2085_384348)"> <path d="M12 12.96C6.66001 12.96 1.26001 14.28 1.26001 16.8C1.26001 19.32 6.24001 20.53 11.37 20.63L10.53 21.47C10.24 21.76 10.24 22.24 10.53 22.53C10.68 22.68 10.87 22.75 11.06 22.75C11.25 22.75 11.44 22.68 11.59 22.53L13.73 20.39C13.96 20.16 14 19.83 13.88 19.56C13.88 19.56 13.88 19.56 13.88 19.55C13.84 19.47 13.8 19.4 13.74 19.34L11.6 17.2C11.31 16.91 10.83 16.91 10.54 17.2C10.25 17.49 10.25 17.97 10.54 18.26L11.41 19.13C5.82001 19.03 2.77001 17.57 2.77001 16.8C2.77001 16.03 6.03001 14.46 12.01 14.46C17.99 14.46 21.25 16.01 21.25 16.8C21.25 17.21 19.96 18.31 16.11 18.86C15.7 18.92 15.42 19.3 15.47 19.71C15.53 20.12 15.91 20.4 16.32 20.35C18.25 20.07 22.75 19.17 22.75 16.8C22.75 14.28 17.35 12.96 12.01 12.96H12Z" fill="white"/> <path d="M11.9401 12.0398C10.2501 12.0398 8.87012 10.6598 8.87012 8.96977V8.57977C8.87012 6.88977 10.2501 5.50977 11.9401 5.50977C13.6301 5.50977 15.0101 6.88977 15.0101 8.57977V8.96977C15.0101 10.6598 13.6301 12.0398 11.9401 12.0398ZM11.9401 7.00977C11.0701 7.00977 10.3701 7.71977 10.3701 8.57977V8.96977C10.3701 9.83977 11.0701 10.5398 11.9401 10.5398C12.8101 10.5398 13.5101 9.82977 13.5101 8.96977V8.57977C13.5101 7.70977 12.8001 7.00977 11.9401 7.00977Z" fill="white"/> <path d="M9.62012 9.71C9.21012 9.71 8.87012 9.37 8.87012 8.96V4.32C8.87012 2.63 10.2501 1.25 11.9401 1.25C13.2801 1.25 14.5501 2.11 14.9701 3.3C15.1101 3.69 14.9001 4.12 14.5101 4.26C14.1201 4.4 13.6901 4.19 13.5501 3.8C13.3401 3.21 12.6301 2.75 11.9401 2.75C11.0701 2.75 10.3701 3.46 10.3701 4.32V8.96C10.3701 9.37 10.0301 9.71 9.62012 9.71Z" fill="white"/> <path d="M19.62 12.04H19.49C17.83 12.04 16.48 10.69 16.48 9.03V4.26C16.48 2.6 17.83 1.25 19.49 1.25H19.62C21.28 1.25 22.63 2.6 22.63 4.26V9.03C22.63 10.69 21.28 12.04 19.62 12.04ZM19.49 2.75C18.66 2.75 17.98 3.43 17.98 4.26V9.03C17.98 9.86 18.66 10.54 19.49 10.54H19.62C20.45 10.54 21.13 9.86 21.13 9.03V4.26C21.13 3.43 20.45 2.75 19.62 2.75H19.49Z" fill="white"/> <path d="M4.33006 12.0398C2.99006 12.0398 1.72006 11.1798 1.30006 9.98977C1.16006 9.59976 1.37006 9.16976 1.76006 9.02977C2.15006 8.88977 2.58006 9.09977 2.72006 9.48977C2.93006 10.0798 3.64006 10.5398 4.33006 10.5398C5.20006 10.5398 5.90006 9.82977 5.90006 8.96977V8.57977C5.90006 7.69977 5.17006 7.03977 4.30006 7.00977C3.88006 7.02977 3.50006 6.68977 3.50006 6.25977C3.50006 5.84977 3.84006 5.50977 4.25006 5.50977C4.95006 5.50977 5.51006 4.93977 5.51006 4.24977V3.93977C5.51006 3.28977 4.98006 2.75977 4.33006 2.75977C3.95006 2.75977 3.61006 2.92977 3.38006 3.22977C3.13006 3.55977 2.66006 3.62977 2.33006 3.37977C2.00006 3.12977 1.93006 2.65977 2.18006 2.32977C2.68006 1.65977 3.49006 1.25977 4.33006 1.25977C5.81006 1.25977 7.01006 2.45977 7.01006 3.93977V4.24977C7.01006 4.99977 6.71006 5.67977 6.22006 6.17977C6.94006 6.73977 7.40006 7.60977 7.40006 8.57977V8.96977C7.40006 10.6598 6.02006 12.0398 4.33006 12.0398Z" fill="white"/> </g> <defs> <clipPath id="clip0_2085_384348"> <rect width="24" height="24" fill="white"/> </clipPath> </defs> </svg>
