<svg width="24" height="24" viewBox="0 0 24 24" fill="none" xmlns="http://www.w3.org/2000/svg"> <g clip-path="url(#clip0_4418_8633)"> <path d="M19.3299 5.6793L13.0599 2.2993C12.3999 1.9393 11.5999 1.9393 10.9399 2.2993L4.66993 5.6793C4.20993 5.9293 3.92993 6.4093 3.92993 6.9593C3.92993 7.4993 4.20993 7.9893 4.66993 8.2393L10.9399 11.6193C11.2699 11.7993 11.6399 11.8893 11.9999 11.8893C12.3599 11.8893 12.7299 11.7993 13.0599 11.6193L19.3299 8.2393C19.7899 7.9893 20.0699 7.5093 20.0699 6.9593C20.0699 6.4093 19.7899 5.9293 19.3299 5.6793Z" fill="white"/> <path d="M9.91 12.79L4.07 9.87C3.62 9.65 3.1 9.67 2.68 9.93C2.25 10.2 2 10.65 2 11.15V16.66C2 17.61 2.53 18.47 3.38 18.9L9.21 21.82C9.41 21.92 9.63 21.97 9.85 21.97C10.11 21.97 10.37 21.9 10.6 21.76C11.03 21.5 11.28 21.04 11.28 20.54V15.03C11.29 14.07 10.76 13.21 9.91 12.79Z" fill="white"/> <path d="M21.32 9.93014C20.89 9.67014 20.37 9.64014 19.93 9.87014L14.1 12.7901C13.25 13.2201 12.72 14.0701 12.72 15.0301V20.5401C12.72 21.0401 12.97 21.5001 13.4 21.7601C13.63 21.9001 13.89 21.9701 14.15 21.9701C14.37 21.9701 14.59 21.9201 14.79 21.8201L20.62 18.9001C21.47 18.4701 22 17.6201 22 16.6601V11.1501C22 10.6501 21.75 10.2001 21.32 9.93014Z" fill="white"/> </g> <defs> <clipPath id="clip0_4418_8633"> <rect width="24" height="24" fill="white"/> </clipPath> </defs> </svg>
