<svg width="24" height="24" viewBox="0 0 24 24" fill="none" xmlns="http://www.w3.org/2000/svg"> <g clip-path="url(#clip0_2085_391719)"> <path d="M17.6001 12C17.3301 11.49 16.9801 11.01 16.5701 10.58C15.3001 9.24 13.5101 8.47 11.6601 8.47C11.4218 8.47 11.2002 8.47415 10.9898 8.48244C10.816 8.48928 10.6773 8.33595 10.7058 8.16443L11.0726 5.95577C11.0942 5.82551 11.2069 5.73 11.3389 5.73H15.5101C16.5301 5.73 17.3901 4.92 17.4101 3.9C17.4201 2.85 16.5801 2 15.5401 2H9.52007C8.61007 2 7.83007 2.66 7.68007 3.56L6.49007 10.76C6.42007 11.19 6.50007 11.63 6.71007 12C6.83007 12.22 7.01007 12.42 7.23007 12.58C7.80007 13 8.56007 13.05 9.18007 12.72C9.20007 12.72 9.24007 12.7 9.30007 12.67C9.95007 12.38 10.4301 12.2 11.6601 12.2C12.5001 12.2 13.2801 12.54 13.8601 13.15C14.4401 13.76 14.7401 14.55 14.6901 15.4C14.6101 16.97 13.3101 18.23 11.7301 18.26C10.6001 18.29 9.60007 17.69 9.05007 16.78C8.67007 16.13 7.93007 15.76 7.18007 15.87C6.21007 16 5.57007 16.83 5.57007 17.72C5.57007 18.03 5.65007 18.36 5.83007 18.66C7.02007 20.68 9.21007 22 11.6601 22H11.8001C15.3301 21.93 18.2401 19.11 18.4201 15.59C18.4901 14.32 18.2001 13.08 17.6001 12Z" fill="white"/> </g> <defs> <clipPath id="clip0_2085_391719"> <rect width="24" height="24" fill="white"/> </clipPath> </defs> </svg>
