<svg width="24" height="24" viewBox="0 0 24 24" fill="none" xmlns="http://www.w3.org/2000/svg"> <g clip-path="url(#clip0_2085_391722)"> <path d="M16.4483 10.5979C16.3441 10.5014 16.3266 10.342 16.406 10.2243C16.9679 9.39093 17.2999 8.37952 17.2999 7.3C17.2999 4.38 14.9199 2 11.9999 2C9.07993 2 6.69993 4.38 6.69993 7.3C6.69993 8.37952 7.03194 9.39093 7.59385 10.2243C7.67326 10.342 7.65579 10.5014 7.55156 10.5979C6.25027 11.8025 5.42993 13.5206 5.42993 15.43C5.42993 19.05 8.37993 22 11.9999 22C15.6199 22 18.5699 19.05 18.5699 15.43C18.5699 13.5206 17.7496 11.8025 16.4483 10.5979ZM11.9999 5.73C12.8599 5.73 13.5599 6.44 13.5599 7.3C13.5599 8.16 12.8599 8.86 11.9999 8.86C11.1399 8.86 10.4399 8.16 10.4399 7.3C10.4399 6.44 11.1399 5.73 11.9999 5.73ZM11.9999 18.27C10.4399 18.27 9.15993 16.99 9.15993 15.43C9.15993 13.87 10.4399 12.59 11.9999 12.59C13.5599 12.59 14.8399 13.87 14.8399 15.43C14.8399 16.99 13.5599 18.27 11.9999 18.27Z" fill="white"/> </g> <defs> <clipPath id="clip0_2085_391722"> <rect width="24" height="24" fill="white"/> </clipPath> </defs> </svg>
