<svg width="24" height="24" viewBox="0 0 24 24" fill="none" xmlns="http://www.w3.org/2000/svg"> <g clip-path="url(#clip0_4482_1717)"> <path d="M12 6.75C10.48 6.75 9.25 5.52 9.25 4C9.25 2.48 10.48 1.25 12 1.25C13.52 1.25 14.75 2.48 14.75 4C14.75 5.52 13.52 6.75 12 6.75ZM12 2.75C11.31 2.75 10.75 3.31 10.75 4C10.75 4.69 11.31 5.25 12 5.25C12.69 5.25 13.25 4.69 13.25 4C13.25 3.31 12.69 2.75 12 2.75Z" fill="white"/> <path d="M7.06014 10.7502C6.90014 10.7502 6.74018 10.7002 6.60018 10.5902C6.27018 10.3402 6.21004 9.87019 6.46004 9.54019L9.99007 4.95019C10.2401 4.62019 10.7101 4.56019 11.0401 4.81019C11.3701 5.06019 11.43 5.53019 11.18 5.86019L7.64998 10.4502C7.49998 10.6502 7.28014 10.7502 7.06014 10.7502Z" fill="white"/> <path d="M17.0001 10.7499C16.7701 10.7499 16.55 10.6499 16.4 10.4599L12.9801 6.01985C12.7301 5.68985 12.7902 5.21986 13.1202 4.96986C13.4502 4.71986 13.92 4.77986 14.17 5.10986L17.5902 9.54986C17.8402 9.87986 17.78 10.3499 17.45 10.5999C17.32 10.6999 17.1601 10.7499 17.0001 10.7499Z" fill="white"/> <path d="M17.5 9H6.5C4.3 9 2.5 10.8 2.5 13V18C2.5 20.2 4.3 22 6.5 22H17.5C19.7 22 21.5 20.2 21.5 18V13C21.5 10.8 19.7 9 17.5 9ZM14.25 16.25H12.75V17.75C12.75 18.16 12.41 18.5 12 18.5C11.59 18.5 11.25 18.16 11.25 17.75V16.25H9.75C9.34 16.25 9 15.91 9 15.5C9 15.09 9.34 14.75 9.75 14.75H11.25V13.25C11.25 12.84 11.59 12.5 12 12.5C12.41 12.5 12.75 12.84 12.75 13.25V14.75H14.25C14.66 14.75 15 15.09 15 15.5C15 15.91 14.66 16.25 14.25 16.25Z" fill="white"/> </g> <defs> <clipPath id="clip0_4482_1717"> <rect width="24" height="24" fill="white"/> </clipPath> </defs> </svg>
