<svg width="24" height="24" viewBox="0 0 24 24" fill="none" xmlns="http://www.w3.org/2000/svg"> <g clip-path="url(#clip0_2085_393850)"> <path d="M7 8.67H3.67C2.75 8.67 2 7.92 2 7V3.67C2 2.75 2.75 2 3.67 2H7C7.92 2 8.67 2.75 8.67 3.67V7C8.67 7.92 7.92 8.67 7 8.67Z" fill="white"/> <path d="M20.33 8.67H13.66C12.74 8.67 11.99 7.92 11.99 7V3.67C11.99 2.75 12.74 2 13.66 2H20.33C21.25 2 22 2.75 22 3.67V7C22 7.92 21.25 8.67 20.33 8.67Z" fill="white"/> <path d="M20.3301 18.67H17.0001C16.0801 18.67 15.3301 17.92 15.3301 17V13.67C15.3301 12.75 16.0801 12 17.0001 12H20.3301C21.2501 12 22.0001 12.75 22.0001 13.67V17C22.0001 17.92 21.2501 18.67 20.3301 18.67Z" fill="white"/> <path d="M9.78 12.4805H4.22C2.99 12.4805 2 13.4705 2 14.7005V19.7805C2 21.0105 2.99 22.0005 4.22 22.0005H9.78C11.01 22.0005 12 21.0105 12 19.7805V14.7005C12 13.4705 11.01 12.4805 9.78 12.4805ZM8.67 17.9805H7.75V18.9005C7.75 19.3105 7.41 19.6505 7 19.6505C6.59 19.6505 6.25 19.3105 6.25 18.9005V17.9805H5.33C4.92 17.9805 4.58 17.6405 4.58 17.2305C4.58 16.8205 4.92 16.4805 5.33 16.4805H6.25V15.5605C6.25 15.1505 6.59 14.8105 7 14.8105C7.41 14.8105 7.75 15.1505 7.75 15.5605V16.4805H8.67C9.08 16.4805 9.42 16.8205 9.42 17.2305C9.42 17.6405 9.08 17.9805 8.67 17.9805Z" fill="white"/> </g> <defs> <clipPath id="clip0_2085_393850"> <rect width="24" height="24" fill="white"/> </clipPath> </defs> </svg>
