<svg width="24" height="24" viewBox="0 0 24 24" fill="none" xmlns="http://www.w3.org/2000/svg"> <g clip-path="url(#clip0_4482_4667)"> <path d="M9.91003 6.62025C9.91003 6.61025 9.91004 6.59025 9.92004 6.57025C10.13 5.26025 11.0401 4.12025 12.3101 3.62025L15.91 2.23025C16.93 1.83025 18.09 1.97025 18.99 2.59025C19.9 3.20025 20.4399 4.24025 20.4399 5.33025C20.4399 6.61025 19.5001 7.97025 18.3101 8.43025L11.63 11.0202C11.46 11.0902 11.3199 11.2903 11.3199 11.4703V17.5602C11.3199 20.3102 8.79005 22.4902 5.93005 21.8902C4.26005 21.5402 2.90005 20.1903 2.55005 18.5103C1.95005 15.6503 4.13 13.1203 6.88 13.1203C8.03 13.1203 9.06998 13.5502 9.85998 14.2702V7.20025L9.91003 6.62025Z" fill="white"/> <path d="M21.5499 17.12C21.5499 17.53 21.2198 17.85 20.8198 17.85H18.4398V20.23C18.4398 20.63 18.1198 20.96 17.7098 20.96C17.3098 20.96 16.9799 20.63 16.9799 20.23V17.85H14.6099C14.1999 17.85 13.8799 17.53 13.8799 17.12C13.8799 16.72 14.1999 16.39 14.6099 16.39H16.9799V14.02C16.9799 13.61 17.3098 13.29 17.7098 13.29C18.1198 13.29 18.4398 13.61 18.4398 14.02V16.39H20.8198C21.2098 16.39 21.5499 16.72 21.5499 17.12Z" fill="white"/> </g> <defs> <clipPath id="clip0_4482_4667"> <rect width="24" height="24" fill="white"/> </clipPath> </defs> </svg>
