<svg width="24" height="24" viewBox="0 0 24 24" fill="none" xmlns="http://www.w3.org/2000/svg"> <g clip-path="url(#clip0_3111_14058)"> <path d="M14.26 19.93C13.48 19.71 12.95 19.01 12.95 18.19C12.95 17.37 13.48 16.66 14.3 16.43L15.53 16.11C16.15 15.94 16.6 15.48 16.77 14.88L17.1 13.66L17.17 13.43C17.44 12.74 18.08 12.26 18.83 12.26C19.48 12.26 20.03 12.58 20.35 13.09V6.83999C20.35 3.77999 17.87 1.29999 14.81 1.29999H6.19002C3.13002 1.29999 0.650024 3.77999 0.650024 6.83999V15.47C0.650024 18.53 3.13002 21.01 6.19002 21.01H14.82C15.35 21.01 15.9996 21.0002 16.4996 21.0002C16.2796 20.7602 15.9588 20.4901 15.54 20.28C15.0768 20.0476 14.26 19.93 14.26 19.93ZM10.98 12.39L9.17002 10.97C9.11002 10.92 9.04002 10.92 9.00002 10.93C8.95002 10.93 8.89003 10.95 8.84002 11.02L6.49002 14.06C6.35002 14.25 6.12002 14.35 5.90002 14.35C5.74002 14.35 5.58002 14.3 5.44002 14.2C5.11002 13.94 5.05002 13.47 5.31002 13.14L7.65002 10.1C7.94002 9.72999 8.35003 9.49999 8.81003 9.43999C9.27003 9.37999 9.72003 9.49999 10.09 9.78999L11.9 11.21C12 11.29 12.15 11.27 12.24 11.17L14.51 8.23999C14.76 7.90999 15.23 7.84999 15.56 8.09999C15.89 8.35999 15.95 8.82999 15.69 9.15999L13.42 12.09C12.82 12.84 11.73 12.98 10.98 12.39Z" fill="white"/> <path d="M23.35 18.22C23.35 18.31 23.3 18.51 23.06 18.59L21.79 18.94C20.7 19.24 19.88 20.06 19.58 21.15L19.24 22.39C19.16 22.67 18.94 22.7 18.84 22.7C18.74 22.7 18.52 22.67 18.44 22.39L18.1 21.14C17.8 20.06 16.97 19.24 15.89 18.94L14.64 18.6C14.37 18.52 14.34 18.29 14.34 18.2C14.34 18.1 14.37 17.87 14.64 17.79L15.9 17.46C16.98 17.15 17.8 16.33 18.1 15.25L18.46 13.94C18.55 13.72 18.75 13.69 18.84 13.69C18.93 13.69 19.14 13.72 19.22 13.92L19.58 15.24C19.88 16.32 20.71 17.14 21.79 17.45L23.08 17.8C23.34 17.9 23.35 18.13 23.35 18.21V18.22Z" fill="white"/> </g> <defs> <clipPath id="clip0_3111_14058"> <rect width="24" height="24" fill="white"/> </clipPath> </defs> </svg>
