<svg width="24" height="24" viewBox="0 0 24 24" fill="none" xmlns="http://www.w3.org/2000/svg"> <g clip-path="url(#clip0_3111_13166)"> <path d="M17.22 18.76L16.24 18.49C15.67 18.33 15.28 17.83 15.28 17.22C15.28 16.61 15.66 16.11 16.26 15.94L17.22 15.69C17.73 15.54 18.1 15.17 18.24 14.67L18.5 13.72L18.56 13.55C18.75 13.05 19.2 12.74 19.75 12.74C19.9 12.74 20.05 12.77 20.18 12.81V8.15C20.18 4.74 18.23 3.28 15.31 3.28H5.58997C2.66997 3.28 0.719971 4.74 0.719971 8.15V14.96C0.719971 18.37 2.66997 19.83 5.58997 19.83H15.32C16.34 19.83 17.23 19.64 17.97 19.26C17.78 19.02 17.53 18.85 17.22 18.76ZM15.56 7.67C15.56 7.27 15.89 6.94 16.29 6.94C16.69 6.94 17.02 7.27 17.02 7.67V13.62C17.02 14.02 16.69 14.35 16.29 14.35C15.89 14.35 15.56 14.02 15.56 13.62V7.67ZM5.33997 15.46C5.33997 15.86 5.00997 16.19 4.60997 16.19C4.20997 16.19 3.87997 15.86 3.87997 15.46V7.67C3.87997 7.27 4.20997 6.94 4.60997 6.94C5.00997 6.94 5.33997 7.27 5.33997 7.67V15.46ZM8.25997 15.46C8.25997 15.86 7.92997 16.19 7.52997 16.19C7.12997 16.19 6.79997 15.86 6.79997 15.46V14.49C6.79997 14.09 7.12997 13.76 7.52997 13.76C7.92997 13.76 8.25997 14.09 8.25997 14.49V15.46ZM8.25997 11.57C8.25997 11.97 7.92997 12.3 7.52997 12.3C7.12997 12.3 6.79997 11.97 6.79997 11.57V7.68C6.79997 7.28 7.12997 6.95 7.52997 6.95C7.92997 6.95 8.25997 7.28 8.25997 7.68V11.57ZM11.18 15.46C11.18 15.86 10.85 16.19 10.45 16.19C10.05 16.19 9.71997 15.86 9.71997 15.46V7.67C9.71997 7.27 10.05 6.94 10.45 6.94C10.85 6.94 11.18 7.27 11.18 7.67V15.46ZM14.1 15.46C14.1 15.86 13.77 16.19 13.37 16.19C12.97 16.19 12.64 15.86 12.64 15.46V11.57C12.64 11.17 12.97 10.84 13.37 10.84C13.77 10.84 14.1 11.17 14.1 11.57V15.46ZM14.1 8.65C14.1 9.05 13.77 9.38 13.37 9.38C12.97 9.38 12.64 9.05 12.64 8.65V7.68C12.64 7.28 12.97 6.95 13.37 6.95C13.77 6.95 14.1 7.28 14.1 7.68V8.65Z" fill="white"/> <path d="M23.28 17.24C23.28 17.31 23.24 17.47 23.05 17.53L22.07 17.8C21.22 18.03 20.58 18.67 20.35 19.52L20.09 20.48C20.03 20.7 19.86 20.72 19.78 20.72C19.7 20.72 19.53 20.7 19.47 20.48L19.21 19.51C18.98 18.67 18.33 18.03 17.49 17.8L16.52 17.54C16.31 17.48 16.29 17.3 16.29 17.23C16.29 17.15 16.31 16.97 16.52 16.91L17.5 16.65C18.34 16.41 18.98 15.77 19.21 14.93L19.49 13.91C19.56 13.74 19.72 13.71 19.78 13.71C19.84 13.71 20.01 13.73 20.07 13.89L20.35 14.92C20.58 15.76 21.23 16.4 22.07 16.64L23.07 16.92C23.27 17 23.28 17.18 23.28 17.24Z" fill="white"/> </g> <defs> <clipPath id="clip0_3111_13166"> <rect width="24" height="24" fill="white"/> </clipPath> </defs> </svg>
