<svg width="24" height="24" viewBox="0 0 24 24" fill="none" xmlns="http://www.w3.org/2000/svg"> <g clip-path="url(#clip0_3111_14028)"> <path d="M18.8401 20.61C18.8401 21.03 18.5001 21.37 18.0801 21.37H14.0301C13.9801 21.37 13.9401 21.37 13.8901 21.35C13.6001 22.1 12.8601 22.64 12.0101 22.64C11.1601 22.64 10.4201 22.1 10.1301 21.35C10.0801 21.37 10.0401 21.37 9.99005 21.37H5.94005C5.52005 21.37 5.18005 21.03 5.18005 20.61C5.18005 20.19 5.52005 19.85 5.94005 19.85H9.99005C10.0401 19.85 10.0801 19.85 10.1301 19.87C10.3301 19.34 10.7501 18.93 11.2701 18.73C11.2501 18.68 11.2501 18.64 11.2501 18.59V14.9999H12.7701V18.59C12.7701 18.64 12.7701 18.68 12.7501 18.73C13.2801 18.93 13.6901 19.35 13.8901 19.87C13.9401 19.85 13.9801 19.85 14.0301 19.85H18.0801C18.5001 19.85 18.8401 20.19 18.8401 20.61Z" fill="white"/> <path d="M10.42 10.41H11.04L10.73 9.76996L10.42 10.41Z" fill="white"/> <path d="M16.82 6.22998C15.45 -2.01002 3.52005 1.11998 6.34005 8.96998H6.30005C2.17005 9.25998 2.18005 15.25 6.30005 15.54H16.08C17.26 15.55 18.4201 15.1 19.2901 14.3C22.1901 11.78 20.64 6.71998 16.82 6.22998ZM13.0201 12.76C12.6501 12.94 12.2001 12.79 12.0201 12.41L11.7701 11.91H9.68005L9.43005 12.41C9.30005 12.68 9.03005 12.83 8.76005 12.83C8.65005 12.83 8.54005 12.81 8.43005 12.75C8.06005 12.57 7.90005 12.12 8.08005 11.75L10.04 7.71998C10.29 7.19998 11.14 7.19998 11.39 7.71998L13.35 11.75C13.5301 12.12 13.38 12.57 13.01 12.75L13.0201 12.76ZM15.98 12.09C15.98 12.5 15.64 12.84 15.23 12.84C14.82 12.84 14.48 12.5 14.48 12.09V8.05998C14.48 7.64998 14.82 7.30998 15.23 7.30998C15.64 7.30998 15.98 7.64998 15.98 8.05998V12.09Z" fill="white"/> </g> <defs> <clipPath id="clip0_3111_14028"> <rect width="24" height="24" fill="white"/> </clipPath> </defs> </svg>
