<svg width="24" height="24" viewBox="0 0 24 24" fill="none" xmlns="http://www.w3.org/2000/svg"> <g clip-path="url(#clip0_3111_13200)"> <path d="M20.91 7.14V5.91C20.91 4.22 19.54 2.84 17.84 2.84H3.82C2.13 2.84 0.75 4.21 0.75 5.91V7.14H20.91Z" fill="white"/> <path d="M17.19 19.19L16.21 18.93C15.64 18.77 15.25 18.27 15.25 17.66C15.25 17.05 15.63 16.55 16.23 16.38L17.19 16.13C17.7 15.98 18.07 15.61 18.21 15.11L18.47 14.16L18.53 13.99C18.72 13.49 19.17 13.18 19.72 13.18C20.25 13.18 20.71 13.48 20.91 13.93V8.63H0.75V16.93C0.75 18.62 2.12 20 3.82 20H17.85C17.94 20 18.02 19.98 18.11 19.97C17.93 19.59 17.61 19.31 17.19 19.19ZM5.8 16.71H3.78C3.37 16.71 3.03 16.37 3.03 15.96C3.03 15.55 3.37 15.21 3.78 15.21H5.8C6.21 15.21 6.55 15.55 6.55 15.96C6.55 16.37 6.21 16.71 5.8 16.71ZM10.34 16.71H8.32C7.91 16.71 7.57 16.37 7.57 15.96C7.57 15.55 7.91 15.21 8.32 15.21H10.34C10.75 15.21 11.09 15.55 11.09 15.96C11.09 16.37 10.75 16.71 10.34 16.71Z" fill="white"/> <path d="M23.25 17.68C23.25 17.75 23.21 17.91 23.02 17.97L22.04 18.24C21.19 18.47 20.55 19.11 20.32 19.96L20.06 20.92C20 21.14 19.83 21.16 19.75 21.16C19.67 21.16 19.5 21.14 19.44 20.92L19.18 19.95C18.95 19.11 18.3 18.47 17.46 18.24L16.49 17.98C16.28 17.92 16.26 17.74 16.26 17.67C16.26 17.59 16.28 17.41 16.49 17.35L17.47 17.09C18.31 16.85 18.95 16.21 19.18 15.37L19.46 14.35C19.53 14.18 19.69 14.15 19.75 14.15C19.81 14.15 19.98 14.17 20.04 14.33L20.32 15.36C20.55 16.2 21.2 16.84 22.04 17.08L23.04 17.36C23.24 17.44 23.25 17.62 23.25 17.68Z" fill="white"/> </g> <defs> <clipPath id="clip0_3111_13200"> <rect width="24" height="24" fill="white"/> </clipPath> </defs> </svg>
