<svg width="24" height="24" viewBox="0 0 24 24" fill="none" xmlns="http://www.w3.org/2000/svg"> <g clip-path="url(#clip0_3111_13232)"> <path d="M15.75 20.1L14.49 19.76C13.71 19.54 13.18 18.84 13.18 18.02C13.18 17.2 13.71 16.49 14.53 16.26L15.76 15.94C16.38 15.77 16.83 15.31 17 14.71L17.33 13.49L17.4 13.26C17.67 12.57 18.31 12.09 19.06 12.09C19.61 12.09 20.1 12.32 20.43 12.7V6.52C20.43 3.73 18.17 1.47 15.38 1.47H5.46998C2.67998 1.47 0.419983 3.73 0.419983 6.52V16.43C0.419983 19.22 2.67998 21.48 5.46998 21.48H15.38C15.93 21.48 16.44 21.37 16.93 21.21C16.73 20.67 16.31 20.26 15.75 20.1ZM9.29998 13.19C9.58998 13.48 9.58998 13.96 9.29998 14.25C9.14998 14.4 8.95998 14.47 8.76998 14.47C8.57998 14.47 8.38998 14.4 8.23998 14.25L6.01998 12.03C5.72998 11.74 5.72998 11.26 6.01998 10.97L8.23998 8.75C8.52998 8.46 9.00998 8.46 9.29998 8.75C9.58998 9.04 9.58998 9.52 9.29998 9.81L7.60998 11.5L9.29998 13.19ZM12.09 14.47C11.9 14.47 11.71 14.4 11.56 14.25C11.27 13.96 11.27 13.48 11.56 13.19L13.25 11.5L11.56 9.81C11.27 9.52 11.27 9.04 11.56 8.75C11.85 8.46 12.33 8.46 12.62 8.75L14.84 10.97C15.13 11.26 15.13 11.74 14.84 12.03L12.62 14.25C12.47 14.4 12.28 14.47 12.09 14.47Z" fill="white"/> <path d="M23.58 18.05C23.58 18.14 23.53 18.34 23.29 18.42L22.02 18.77C20.93 19.07 20.11 19.89 19.81 20.98L19.47 22.22C19.39 22.5 19.17 22.53 19.07 22.53C18.97 22.53 18.75 22.5 18.67 22.22L18.33 20.97C18.03 19.89 17.2 19.07 16.12 18.77L14.87 18.43C14.6 18.35 14.57 18.12 14.57 18.03C14.57 17.93 14.6 17.7 14.87 17.62L16.13 17.29C17.21 16.98 18.03 16.16 18.33 15.08L18.69 13.77C18.78 13.55 18.98 13.52 19.07 13.52C19.16 13.52 19.37 13.55 19.45 13.75L19.81 15.07C20.11 16.15 20.94 16.97 22.02 17.28L23.31 17.63C23.57 17.73 23.58 17.96 23.58 18.04V18.05Z" fill="white"/> </g> <defs> <clipPath id="clip0_3111_13232"> <rect width="24" height="24" fill="white"/> </clipPath> </defs> </svg>
