<svg width="24" height="24" viewBox="0 0 24 24" fill="none" xmlns="http://www.w3.org/2000/svg"> <g clip-path="url(#clip0_3111_13638)"> <path d="M21.11 2.88999C20.23 2.00999 18.98 1.65999 17.77 1.96999L8.52001 4.27999L8.86001 4.36999L8.99001 4.40999L9.05001 4.43999C9.55001 4.64999 9.85001 5.11999 9.85001 5.66999V5.77999C9.80001 6.30999 9.44001 6.74999 8.90001 6.91999L7.91001 7.18999C7.40001 7.32999 7.03001 7.69999 6.89001 8.20999L6.63001 9.16999C6.47001 9.75999 5.97001 10.14 5.36001 10.14C4.75001 10.14 4.28001 9.77999 4.11001 9.19999L1.97001 17.77C1.67001 18.98 2.01001 20.22 2.89001 21.11C3.56001 21.77 4.44001 22.13 5.35001 22.13C5.63001 22.13 5.93001 22.1 6.21001 22.02L16.16 19.54C17.82 19.12 19.12 17.84 19.54 16.16L22.02 6.20999C22.32 4.99999 21.99 3.76999 21.11 2.88999ZM12 15.93C9.83001 15.93 8.07001 14.17 8.07001 12C8.07001 9.82999 9.83001 8.06999 12 8.06999C14.17 8.06999 15.93 9.82999 15.93 12C15.93 14.17 14.17 15.93 12 15.93Z" fill="white"/> <path d="M8.87 5.65C8.87 5.72 8.83001 5.88 8.64001 5.94L7.66 6.21C6.81 6.44 6.17 7.08 5.94 7.93L5.68 8.89C5.62 9.11 5.45 9.13 5.37 9.13C5.29 9.13 5.12 9.11 5.06 8.89L4.8 7.92C4.57 7.08 3.92 6.44 3.08 6.21L2.11 5.95C1.9 5.89 1.88 5.71 1.88 5.64C1.88 5.56 1.9 5.38 2.11 5.32L3.09 5.06C3.93 4.82 4.57 4.18 4.8 3.34L5.08 2.32C5.15 2.15 5.31 2.12 5.37 2.12C5.43 2.12 5.6 2.14 5.66 2.3L5.94 3.33C6.17 4.17 6.82 4.81 7.66 5.05L8.66 5.33C8.86 5.41 8.87 5.59 8.87 5.65Z" fill="white"/> </g> <defs> <clipPath id="clip0_3111_13638"> <rect width="24" height="24" fill="white"/> </clipPath> </defs> </svg>
