<svg width="24" height="24" viewBox="0 0 24 24" fill="none" xmlns="http://www.w3.org/2000/svg"> <g clip-path="url(#clip0_3111_13912)"> <path d="M16.62 1.73999H6.35998C3.27998 1.73999 1.22998 3.27999 1.22998 6.86999V14.05C1.22998 17.64 3.27998 19.18 6.35998 19.18H10.02C10.63 19.18 11.12 18.65 11.04 18.04C10.94 17.31 10.96 16.55 11.11 15.77C11.65 13.1 13.85 10.98 16.54 10.54C17.88 10.32 19.17 10.51 20.3 11C20.99 11.3 21.76 10.83 21.76 10.08V6.86999C21.76 3.69667 19.7778 1.73999 16.62 1.73999ZM13.89 10.05C13.21 10.59 12.35 10.86 11.49 10.86C10.63 10.86 9.75998 10.59 9.08998 10.05L5.87998 7.47999C5.54998 7.20999 5.49998 6.72999 5.75998 6.38999C6.02998 6.05999 6.50998 5.99999 6.83998 6.26999L10.05 8.83999C10.83 9.46999 12.15 9.46999 12.93 8.83999L16.14 6.26999C16.47 5.99999 16.96 6.04999 17.22 6.38999C17.49 6.72999 17.44 7.20999 17.11 7.47999L13.89 10.05Z" fill="white"/> <path d="M17.64 12C14.81 12 12.51 14.29 12.51 17.13C12.51 19.97 14.81 22.26 17.64 22.26C20.47 22.26 22.77 19.97 22.77 17.13C22.77 14.29 20.49 12 17.64 12ZM20.84 17.43L19.89 17.69C19.07 17.92 18.43 18.55 18.2 19.38L17.94 20.33C17.85 20.64 17.41 20.64 17.33 20.33L17.07 19.38C16.84 18.56 16.21 17.92 15.38 17.69L14.43 17.43C14.12 17.34 14.12 16.9 14.43 16.82L15.38 16.56C16.2 16.33 16.84 15.7 17.07 14.87L17.33 13.92C17.42 13.61 17.86 13.61 17.94 13.92L18.2 14.87C18.43 15.69 19.06 16.33 19.89 16.56L20.84 16.82C21.15 16.91 21.15 17.35 20.84 17.43Z" fill="white"/> </g> <defs> <clipPath id="clip0_3111_13912"> <rect width="24" height="24" fill="white"/> </clipPath> </defs> </svg>
