<svg width="24" height="24" viewBox="0 0 24 24" fill="none" xmlns="http://www.w3.org/2000/svg"> <g clip-path="url(#clip0_3111_13029)"> <path d="M11.45 15.72C11.45 12.62 13.97 10.1 17.07 10.1C17.37 10.1 17.66 10.13 17.95 10.18L20.83 7.29999C21.2 6.92999 21.41 6.41999 21.41 5.88999V4.00999C21.41 2.90999 20.52 2.00999 19.41 2.00999H4.59003C3.48003 2.00999 2.59003 2.90999 2.59003 4.00999V5.88999C2.59003 6.41999 2.80003 6.92999 3.17003 7.29999L8.35003 12.48L8.47003 12.6C8.85003 12.98 9.06003 13.48 9.06003 14.02V20.54C9.06003 21.5 9.96003 22.2 10.89 21.97L13.83 21.23C14.13 21.16 14.39 20.98 14.58 20.75C12.73 19.83 11.45 17.93 11.45 15.73V15.72Z" fill="white"/> <path d="M17.06 11.6C14.79 11.6 12.94 13.44 12.94 15.72C12.94 18 14.78 19.84 17.06 19.84C19.34 19.84 21.18 18 21.18 15.72C21.18 13.44 19.34 11.6 17.06 11.6ZM19.76 15.97L18.96 16.19C18.27 16.38 17.73 16.92 17.53 17.62L17.31 18.42C17.24 18.68 16.87 18.68 16.8 18.42L16.58 17.62C16.39 16.93 15.85 16.39 15.15 16.19L14.35 15.97C14.09 15.9 14.09 15.53 14.35 15.46L15.15 15.24C15.84 15.05 16.38 14.51 16.58 13.81L16.8 13.01C16.87 12.75 17.24 12.75 17.31 13.01L17.53 13.81C17.72 14.5 18.26 15.04 18.96 15.24L19.76 15.46C20.02 15.53 20.02 15.9 19.76 15.97Z" fill="white"/> </g> <defs> <clipPath id="clip0_3111_13029"> <rect width="24" height="24" fill="white"/> </clipPath> </defs> </svg>
