<svg width="24" height="24" viewBox="0 0 24 24" fill="none" xmlns="http://www.w3.org/2000/svg"> <g clip-path="url(#clip0_3111_13747)"> <path d="M6.81005 1.63001C7.24005 1.59001 7.60005 1.94001 7.60005 2.38001V6.87001C7.60005 7.30001 7.25005 7.65001 6.82005 7.65001H2.37005C1.94005 7.65001 1.58005 7.30001 1.62005 6.87001C1.89005 3.82001 3.77005 1.92001 6.81005 1.63001Z" fill="white"/> <path d="M21.36 7.65H17.26C16.83 7.65 16.48 7.3 16.48 6.87V2.38C16.48 1.95 16.84 1.59 17.27 1.63C20.17 1.91 22.02 3.66 22.41 6.48C22.49 7.1 21.99 7.65 21.37 7.65H21.36Z" fill="white"/> <path d="M6.81002 16.53C7.24002 16.53 7.59002 16.88 7.59002 17.31V21.35C7.59002 21.98 7.04002 22.48 6.41002 22.39C3.64002 21.98 1.93002 20.16 1.63002 17.31C1.58002 16.88 1.94002 16.52 2.38002 16.52L6.81002 16.53Z" fill="white"/> <path d="M7.59003 10C7.59003 9.57 7.24003 9.22 6.81003 9.22H2.37003C1.94003 9.22 1.59003 9.57 1.59003 10V14.18C1.59003 14.61 1.94003 14.96 2.37003 14.96H6.81003C7.24003 14.96 7.59003 14.61 7.59003 14.18V10Z" fill="white"/> <path d="M14.9 10C14.9 9.57 14.55 9.22 14.12 9.22H9.94003C9.51003 9.22 9.16003 9.57 9.16003 10V14.18C9.16003 14.61 9.51003 14.96 9.94003 14.96H13.86C14.43 14.96 14.9 14.49 14.9 13.92V10Z" fill="white"/> <path d="M14.9 2.38001C14.9 1.95001 14.55 1.60001 14.12 1.60001H9.94003C9.51003 1.60001 9.16003 1.95001 9.16003 2.38001V6.87001C9.16003 7.30001 9.51003 7.65001 9.94003 7.65001H14.12C14.55 7.65001 14.9 7.30001 14.9 6.87001V2.38001Z" fill="white"/> <path d="M23.0102 18.0099C23.0102 18.0999 22.9602 18.3099 22.7202 18.3899L21.4502 18.7399C20.3602 19.0399 19.5402 19.8599 19.2402 20.9499L18.9002 22.1899C18.8202 22.4699 18.6002 22.4999 18.5002 22.4999C18.4002 22.4999 18.1802 22.4699 18.1002 22.1899L17.7602 20.9399C17.4602 19.8599 16.6302 19.0399 15.5502 18.7399L14.3002 18.3999C14.0302 18.3199 14.0002 18.0899 14.0002 17.9999C14.0002 17.8999 14.0302 17.6699 14.3002 17.5899L15.5602 17.2599C16.6402 16.9499 17.4602 16.1299 17.7602 15.0499L18.1202 13.7399C18.2102 13.5199 18.4102 13.4899 18.5002 13.4899C18.5902 13.4899 18.8002 13.5199 18.8802 13.7199L19.2402 15.0399C19.5402 16.1199 20.3702 16.9399 21.4502 17.2499L22.7402 17.5999C23.0002 17.6999 23.0102 17.9299 23.0102 18.0099Z" fill="white"/> </g> <defs> <clipPath id="clip0_3111_13747"> <rect width="24" height="24" fill="white"/> </clipPath> </defs> </svg>
