<svg width="24" height="24" viewBox="0 0 24 24" fill="none" xmlns="http://www.w3.org/2000/svg"> <g clip-path="url(#clip0_3111_13436)"> <path d="M15.01 20.63C14.44 20.47 14.05 19.97 14.05 19.36C14.05 18.75 14.43 18.25 15.03 18.08L15.99 17.83C16.5 17.68 16.87 17.31 17.01 16.81L17.27 15.86L17.33 15.69C17.52 15.19 18 14.86 18.55 14.86C19.11 14.86 19.56 15.2 19.75 15.7L19.78 15.8L20.06 16.82C20.16 17.21 20.42 17.52 20.76 17.71C21.5 17 21.58 16.38 21.58 14.75V8.93C21.58 6.54 21.45 6.32 19.19 4.8L13.66 1.6C12.6 0.990002 10.94 0.990002 9.88001 1.6L4.29001 4.82C2.07001 6.32 1.95001 6.54 1.95001 8.93V14.74C1.95001 17.13 2.08001 17.36 4.34001 18.88L9.87001 22.08C10.41 22.39 11.09 22.54 11.76 22.54C12.43 22.54 13.12 22.39 13.64 22.08L15.78 20.85L15.01 20.63ZM11.76 15.31C9.84001 15.31 8.28001 13.75 8.28001 11.83C8.28001 9.91 9.84001 8.35 11.76 8.35C13.68 8.35 15.24 9.91 15.24 11.83C15.24 13.75 13.68 15.31 11.76 15.31Z" fill="white"/> <path d="M22.05 19.38C22.05 19.45 22.01 19.61 21.82 19.67L20.84 19.94C19.99 20.17 19.35 20.81 19.12 21.66L18.86 22.62C18.8 22.84 18.63 22.86 18.55 22.86C18.47 22.86 18.3 22.84 18.24 22.62L17.98 21.65C17.75 20.81 17.1 20.17 16.26 19.94L15.29 19.68C15.08 19.62 15.06 19.44 15.06 19.37C15.06 19.29 15.08 19.11 15.29 19.05L16.27 18.79C17.11 18.55 17.75 17.91 17.98 17.07L18.26 16.05C18.33 15.88 18.49 15.85 18.55 15.85C18.61 15.85 18.78 15.87 18.84 16.03L19.12 17.06C19.35 17.9 20 18.54 20.84 18.78L21.84 19.06C22.04 19.14 22.05 19.32 22.05 19.38Z" fill="white"/> </g> <defs> <clipPath id="clip0_3111_13436"> <rect width="24" height="24" fill="white"/> </clipPath> </defs> </svg>
