<svg width="24" height="24" viewBox="0 0 24 24" fill="none" xmlns="http://www.w3.org/2000/svg"> <g clip-path="url(#clip0_3111_13263)"> <path d="M16.62 2.73C14.74 2.73 13.05 3.65 12 5.05C10.95 3.65 9.25997 2.73 7.37997 2.73C4.17997 2.73 1.58997 5.34 1.58997 8.55C1.58997 9.79 1.77997 10.94 2.12997 12C3.76997 17.21 8.83997 20.32 11.35 21.17C11.71 21.3 12.29 21.3 12.65 21.17C15.16 20.32 20.23 17.21 21.87 12C22.22 10.94 22.41 9.79 22.41 8.55C22.41 5.34 19.82 2.73 16.62 2.73ZM15.66 12.35L14.57 12.64C13.63 12.9 12.9 13.63 12.64 14.57L12.34 15.66C12.24 16.02 11.74 16.02 11.65 15.66L11.36 14.57C11.1 13.63 10.37 12.9 9.42997 12.64L8.33997 12.34C7.97997 12.24 7.97997 11.74 8.33997 11.65L9.42997 11.36C10.37 11.1 11.1 10.37 11.36 9.43L11.66 8.34C11.76 7.98 12.26 7.98 12.35 8.34L12.64 9.43C12.9 10.37 13.63 11.1 14.57 11.36L15.66 11.66C16.02 11.76 16.02 12.26 15.66 12.35Z" fill="white"/> </g> <defs> <clipPath id="clip0_3111_13263"> <rect width="24" height="24" fill="white"/> </clipPath> </defs> </svg>
