<svg width="24" height="24" viewBox="0 0 24 24" fill="none" xmlns="http://www.w3.org/2000/svg"> <g clip-path="url(#clip0_3111_13080)"> <path d="M21.22 7.44L14.01 1.68C12.89 0.789997 11.09 0.789997 9.98999 1.68L2.77999 7.44C1.96999 8.08 1.43999 9.44 1.61999 10.47L2.40999 15.19C2.63999 14.95 2.80999 14.66 2.89999 14.33L3.26999 12.98L3.34999 12.72C3.64999 11.97 4.35999 11.49 5.16999 11.49C5.99 11.49 6.71999 11.97 6.99999 12.71L7.04999 12.85L7.43999 14.31C7.62999 15 8.16999 15.53 8.83999 15.72L10.23 16.09L10.51 16.19C11.24 16.51 11.69 17.19 11.69 18.01V18.17C11.6 18.96 11.08 19.6 10.33 19.84L8.85999 20.25C8.23999 20.42 7.77999 20.85 7.53999 21.43H17.83C19.32 21.43 20.74 20.22 20.99 18.75L22.37 10.47C22.54 9.44 22.01 8.08 21.21 7.44H21.22Z" fill="white"/> <path d="M10.18 18.02C10.17 18.12 10.13 18.35 9.86004 18.44L8.45004 18.83C7.24004 19.16 6.32004 20.08 5.99004 21.29L5.61004 22.66C5.52004 22.97 5.28004 23 5.17004 23C5.06004 23 4.82004 22.97 4.73004 22.66L4.35004 21.27C4.02004 20.07 3.09004 19.15 1.89004 18.82L0.500044 18.44C0.200044 18.35 0.170044 18.1 0.170044 18C0.170044 17.89 0.200044 17.63 0.500044 17.55L1.90004 17.18C3.10004 16.84 4.02004 15.92 4.35004 14.72L4.75004 13.27C4.85004 13.02 5.07004 12.99 5.17004 12.99C5.27004 12.99 5.50004 13.02 5.59004 13.25L5.99004 14.72C6.32004 15.92 7.25004 16.84 8.45004 17.18L9.88004 17.57C10.17 17.68 10.18 17.94 10.18 18.02Z" fill="white"/> </g> <defs> <clipPath id="clip0_3111_13080"> <rect width="24" height="24" fill="white"/> </clipPath> </defs> </svg>
