<svg width="24" height="24" viewBox="0 0 24 24" fill="none" xmlns="http://www.w3.org/2000/svg"> <g clip-path="url(#clip0_3111_13993)"> <path d="M20.67 7.45001L20.41 8.41001C20.25 9.00001 19.75 9.38001 19.14 9.38001C18.53 9.38001 18.03 9.00001 17.87 8.40001L17.61 7.43001C17.47 6.93001 17.09 6.55001 16.59 6.41001L15.61 6.14001C15.04 5.98001 14.65 5.48001 14.65 4.87001C14.65 4.26001 15.03 3.76001 15.63 3.59001L16.59 3.34001C16.67 3.32001 16.73 3.28001 16.8 3.25001C16.31 3.14001 15.79 3.07001 15.22 3.07001H7.02998C3.46998 3.07001 1.34998 5.19001 1.34998 8.75001V16.94C1.34998 20.51 3.46998 22.63 7.02998 22.63H15.22C18.78 22.63 20.9 20.51 20.9 16.95V8.75001C20.9 8.22001 20.84 7.73001 20.75 7.26001C20.72 7.32001 20.69 7.38001 20.67 7.44001V7.45001ZM10.71 17.23C10.71 17.53 10.41 17.73 10.14 17.61C9.12998 17.18 7.81998 16.78 6.89998 16.66L6.73998 16.64C6.22998 16.57 5.81998 16.1 5.81998 15.58V9.16001C5.81998 8.52001 6.33998 8.04001 6.96998 8.09001C8.00998 8.17001 9.54998 8.67001 10.52 9.22001C10.65 9.29001 10.72 9.44001 10.72 9.58001V17.21L10.71 17.23ZM16.44 15.58C16.44 16.1 16.02 16.57 15.52 16.64L15.35 16.66C14.44 16.78 13.13 17.18 12.13 17.6C11.85 17.72 11.55 17.52 11.55 17.22V9.60001C11.55 9.45001 11.63 9.31001 11.76 9.23001C12.73 8.69001 14.26 8.21001 15.29 8.11001C15.93 8.11001 16.45 8.63001 16.45 9.27001L16.44 15.58Z" fill="white"/> <path d="M22.65 4.88999C22.65 4.95999 22.61 5.11999 22.42 5.17999L21.44 5.44999C20.59 5.67999 19.95 6.31999 19.72 7.16999L19.46 8.12999C19.4 8.34999 19.23 8.36999 19.15 8.36999C19.07 8.36999 18.9 8.34999 18.84 8.12999L18.58 7.15999C18.35 6.31998 17.7 5.67999 16.86 5.44999L15.89 5.18999C15.68 5.12999 15.66 4.94999 15.66 4.87999C15.66 4.79999 15.68 4.61999 15.89 4.55999L16.87 4.29999C17.71 4.05999 18.35 3.41999 18.58 2.57999L18.86 1.55999C18.93 1.38999 19.09 1.35999 19.15 1.35999C19.21 1.35999 19.38 1.37999 19.44 1.53999L19.72 2.56999C19.95 3.40999 20.6 4.04999 21.44 4.28999L22.44 4.56999C22.64 4.64999 22.65 4.82999 22.65 4.88999Z" fill="white"/> </g> <defs> <clipPath id="clip0_3111_13993"> <rect width="24" height="24" fill="white"/> </clipPath> </defs> </svg>
