<svg width="24" height="24" viewBox="0 0 24 24" fill="none" xmlns="http://www.w3.org/2000/svg"> <g clip-path="url(#clip0_3111_13907)"> <path d="M9.89996 13.67H10.52L10.21 13.03L9.89996 13.67Z" fill="white"/> <path d="M20.7 8.44003L13.9 3.00003C12.85 2.16003 11.15 2.16003 10.11 2.99003L3.29998 8.44003C2.53998 9.05003 2.04998 10.33 2.20998 11.3L3.51998 19.11C3.75998 20.5 5.08998 21.63 6.49998 21.63H17.5C18.9 21.63 20.25 20.49 20.48 19.11L21.79 11.3C21.95 10.33 21.46 9.05003 20.7 8.44003ZM12.49 16.02C12.12 16.2 11.68 16.05 11.5 15.68L11.25 15.18H9.15998L8.90998 15.68C8.77998 15.95 8.50998 16.1 8.23998 16.1C8.12998 16.1 8.01998 16.08 7.90998 16.02C7.53998 15.84 7.37998 15.39 7.55998 15.02L9.51998 10.99C9.76998 10.47 10.62 10.47 10.87 10.99L12.83 15.02C13.01 15.39 12.86 15.84 12.49 16.02ZM15.46 15.35C15.46 15.76 15.12 16.1 14.71 16.1C14.3 16.1 13.96 15.76 13.96 15.35V11.32C13.96 10.91 14.3 10.57 14.71 10.57C15.12 10.57 15.46 10.91 15.46 11.32V15.35Z" fill="white"/> </g> <defs> <clipPath id="clip0_3111_13907"> <rect width="24" height="24" fill="white"/> </clipPath> </defs> </svg>
