<svg width="24" height="24" viewBox="0 0 24 24" fill="none" xmlns="http://www.w3.org/2000/svg"> <g clip-path="url(#clip0_3111_13320)"> <path d="M16.98 10.54C16.57 10.54 16.23 10.2 16.23 9.79V7.73C16.23 4.47 15.31 2.3 10.8 2.3C6.29 2.3 5.37 4.47 5.37 7.73V9.79C5.37 10.2 5.03 10.54 4.62 10.54C4.21 10.54 3.87 10.2 3.87 9.79V7.73C3.87 4.76 4.59 0.800003 10.8 0.800003C17.01 0.800003 17.73 4.75 17.73 7.73V9.79C17.73 10.2 17.39 10.54 16.98 10.54Z" fill="white"/> <path d="M17.44 21.24L16.46 20.97C15.89 20.81 15.5 20.31 15.5 19.7C15.5 19.09 15.88 18.59 16.48 18.42L17.44 18.17C17.95 18.02 18.32 17.65 18.46 17.15L18.72 16.2L18.78 16.03C18.97 15.53 19.45 15.2 20 15.2C20.48 15.2 20.87 15.47 21.1 15.86V14.94C21.1 10.82 20.07 9.79 15.95 9.79H5.65C1.53 9.79 0.5 10.81 0.5 14.93V16.99C0.5 21.11 1.53 22.14 5.65 22.14H15.95C16.9 22.14 17.69 22.08 18.33 21.95C18.14 21.61 17.83 21.35 17.44 21.24ZM6.91 17.02C6.36 17.02 5.91 16.57 5.91 16.02C5.91 15.47 6.35 15.02 6.91 15.02C7.46 15.02 7.91 15.47 7.91 16.02C7.91 16.57 7.46 17.02 6.91 17.02ZM10.8 17.02C10.25 17.02 9.8 16.57 9.8 16.02C9.8 15.47 10.24 15.02 10.8 15.02C11.35 15.02 11.8 15.47 11.8 16.02C11.8 16.57 11.35 17.02 10.8 17.02ZM14.69 17.02C14.14 17.02 13.69 16.57 13.69 16.02C13.69 15.47 14.13 15.02 14.69 15.02C15.24 15.02 15.69 15.47 15.69 16.02C15.69 16.57 15.24 17.02 14.69 17.02Z" fill="white"/> <path d="M23.5 19.72C23.5 19.79 23.46 19.95 23.27 20.01L22.29 20.28C21.44 20.51 20.8 21.15 20.57 22L20.31 22.96C20.25 23.18 20.08 23.2 20 23.2C19.92 23.2 19.75 23.18 19.69 22.96L19.43 21.99C19.2 21.15 18.55 20.51 17.71 20.28L16.74 20.02C16.53 19.96 16.51 19.78 16.51 19.71C16.51 19.63 16.53 19.45 16.74 19.39L17.72 19.13C18.56 18.89 19.2 18.25 19.43 17.41L19.71 16.39C19.78 16.22 19.94 16.19 20 16.19C20.06 16.19 20.23 16.21 20.29 16.37L20.57 17.4C20.8 18.24 21.45 18.88 22.29 19.12L23.29 19.4C23.49 19.48 23.5 19.66 23.5 19.72Z" fill="white"/> </g> <defs> <clipPath id="clip0_3111_13320"> <rect width="24" height="24" fill="white"/> </clipPath> </defs> </svg>
