<svg width="24" height="24" viewBox="0 0 24 24" fill="none" xmlns="http://www.w3.org/2000/svg"> <g clip-path="url(#clip0_3111_13441)"> <path d="M10.1501 16.81C9.06005 16.92 8.24005 17.85 8.24005 18.95V21.3C8.24005 21.53 8.43005 21.72 8.66005 21.72H12.7501C12.9801 21.72 13.1701 21.53 13.1701 21.3V19.25C13.1701 17.46 12.1201 16.61 10.1501 16.81Z" fill="white"/> <path d="M18.74 14.87V17.43C18.74 19.8 16.82 21.72 14.45 21.72C14.22 21.72 14.03 21.53 14.03 21.3V19.25C14.03 18.15 13.7 17.29 13.04 16.71C12.47 16.19 11.68 15.93 10.71 15.93C10.5 15.93 10.28 15.93 10.05 15.96C8.52002 16.11 7.36002 17.4 7.36002 18.95V21.3C7.36002 21.53 7.17002 21.72 6.94002 21.72C4.57002 21.72 2.65002 19.8 2.65002 17.43V14.89C2.65002 14.29 3.24002 13.89 3.80002 14.08C4.03002 14.16 4.26002 14.22 4.50002 14.25C4.60002 14.27 4.71002 14.28 4.82002 14.28C4.96002 14.3 5.09002 14.31 5.23002 14.31C6.23002 14.31 7.20002 13.94 7.98002 13.31C8.72002 13.94 9.68002 14.31 10.69 14.31C11.7 14.31 12.65 13.96 13.39 13.32C14.16 13.95 15.12 14.31 16.1 14.31C16.25 14.31 16.41 14.31 16.55 14.28C16.65 14.28 16.75 14.26 16.84 14.25C17.11 14.22 17.35 14.14 17.59 14.06C18.15 13.87 18.74 14.28 18.74 14.87Z" fill="white"/> <path d="M18.73 10.3C18.12 10.3 17.62 9.92 17.46 9.32L17.2 8.35C17.06 7.85 16.68 7.47 16.18 7.33L15.2 7.06C14.63 6.9 14.24 6.4 14.24 5.79C14.24 5.18 14.62 4.68 15.22 4.51L16.18 4.26C16.48 4.17 16.72 4 16.9 3.78C16.44 3.65 15.9 3.58 15.29 3.58H6.06C3.54 3.58 2.37 4.64 2 7.25L1.77 9.61C1.68 10.53 1.93 11.42 2.47 12.12C3.12 12.97 4.13 13.45 5.24 13.45C6.35 13.45 7.36 12.91 8.01 12.04C8.59 12.91 9.59 13.45 10.7 13.45C11.81 13.45 12.78 12.94 13.37 12.08C14.03 12.93 15.05 13.45 16.12 13.45C17.26 13.45 18.29 12.94 18.93 12.05C19.37 11.46 19.59 10.73 19.59 9.97C19.36 10.17 19.06 10.3 18.73 10.3Z" fill="white"/> <path d="M22.24 5.81C22.24 5.88 22.2 6.04 22.01 6.1L21.03 6.37C20.18 6.6 19.54 7.24 19.31 8.09L19.05 9.05C18.99 9.27 18.82 9.29 18.74 9.29C18.66 9.29 18.49 9.27 18.43 9.05L18.17 8.08C17.94 7.24 17.29 6.6 16.45 6.37L15.48 6.11C15.27 6.05 15.25 5.87 15.25 5.8C15.25 5.72 15.27 5.54 15.48 5.48L16.46 5.22C17.3 4.98 17.94 4.34 18.17 3.5L18.45 2.48C18.52 2.31 18.68 2.28 18.74 2.28C18.8 2.28 18.97 2.3 19.03 2.46L19.31 3.49C19.54 4.33 20.19 4.97 21.03 5.21L22.03 5.49C22.23 5.57 22.24 5.75 22.24 5.81Z" fill="white"/> </g> <defs> <clipPath id="clip0_3111_13441"> <rect width="24" height="24" fill="white"/> </clipPath> </defs> </svg>
