<svg width="24" height="24" viewBox="0 0 24 24" fill="none" xmlns="http://www.w3.org/2000/svg"> <g clip-path="url(#clip0_3111_12966)"> <path d="M14.75 20.33L13.48 19.98C12.7 19.76 12.17 19.06 12.17 18.24C12.17 17.42 12.7 16.71 13.52 16.48L14.75 16.16C15.37 15.99 15.82 15.53 15.99 14.93L16.32 13.71L16.34 13.63L16.37 13.54L16.39 13.48C16.66 12.79 17.32 12.34 18.07 12.34C18.84 12.34 19.48 12.75 19.74 13.44L19.79 13.58L20.15 14.9C20.32 15.51 20.77 15.96 21.37 16.13L21.43 16.15V6.3C21.43 3.51 19.17 1.25 16.38 1.25H6.47999C3.68999 1.25 1.42999 3.51 1.42999 6.3V16.21C1.42999 19 3.68999 21.26 6.47999 21.26H15.85C15.63 20.81 15.24 20.47 14.75 20.33ZM7.42999 7H14.43C14.84 7 15.18 7.34 15.18 7.75C15.18 8.16 14.84 8.5 14.43 8.5H7.42999C7.01999 8.5 6.67999 8.16 6.67999 7.75C6.67999 7.34 7.01999 7 7.42999 7ZM10.93 13H7.42999C7.01999 13 6.67999 12.66 6.67999 12.25C6.67999 11.84 7.01999 11.5 7.42999 11.5H10.93C11.34 11.5 11.68 11.84 11.68 12.25C11.68 12.66 11.34 13 10.93 13Z" fill="white"/> <path d="M22.57 18.26C22.57 18.35 22.52 18.56 22.28 18.64L21.01 18.99C19.92 19.29 19.1 20.11 18.8 21.2L18.46 22.44C18.38 22.72 18.16 22.75 18.06 22.75C17.96 22.75 17.74 22.72 17.66 22.44L17.32 21.19C17.02 20.11 16.19 19.29 15.11 18.99L13.86 18.65C13.59 18.57 13.56 18.34 13.56 18.25C13.56 18.15 13.59 17.92 13.86 17.84L15.12 17.51C16.2 17.2 17.02 16.38 17.32 15.3L17.65 14.08L17.68 13.99C17.77 13.77 17.97 13.74 18.06 13.74C18.15 13.74 18.36 13.77 18.44 13.97L18.8 15.29C19.1 16.37 19.93 17.19 21.01 17.5L22.3 17.85C22.56 17.95 22.57 18.18 22.57 18.26Z" fill="white"/> </g> <defs> <clipPath id="clip0_3111_12966"> <rect width="24" height="24" fill="white"/> </clipPath> </defs> </svg>
