<svg width="24" height="24" viewBox="0 0 24 24" fill="none" xmlns="http://www.w3.org/2000/svg"> <g clip-path="url(#clip0_4482_9208)"> <path d="M16.2703 9.43012C16.1803 9.75012 16.0103 10.0001 15.7603 10.1401C14.4003 10.9301 12.6603 10.4601 11.8803 9.10012C11.1003 7.75012 11.5603 6.01012 12.9203 5.23012C13.1703 5.08012 13.4703 5.06012 13.7903 5.15012C14.4503 5.32012 15.2103 5.96012 15.7403 6.88012C16.2703 7.79012 16.4503 8.76012 16.2703 9.43012Z" fill="white"/> <path d="M20.54 8.16992V13.9999C20.54 14.5499 20.09 14.9999 19.54 14.9999H18.54C17.99 14.9999 17.54 14.5499 17.54 13.9999V9.68992C18.31 9.49992 19.04 9.18992 19.72 8.78992C19.99 8.62992 20.24 8.42992 20.45 8.20992L20.54 8.16992Z" fill="white"/> <path d="M21.0303 3.87C20.3603 2.68 19.1203 2 17.8503 2C17.2503 2 16.6503 2.15 16.0903 2.46C15.4003 2.85 14.7603 3.34 14.2003 3.91C13.9303 4.2 13.7803 4.59 13.7803 4.98C13.7803 5.04 13.7803 5.09 13.7803 5.15C14.4403 5.32 15.2003 5.96 15.7303 6.88C16.2603 7.79 16.4403 8.76 16.2603 9.43C16.6303 9.7 17.0903 9.79 17.5303 9.69C18.3003 9.5 19.0303 9.19 19.7103 8.79C19.9803 8.63 20.2303 8.43 20.4403 8.21C21.5603 7.09 21.8303 5.31 21.0203 3.87H21.0303ZM18.8403 5.59L18.3403 5.88C18.2203 5.95 18.0903 5.98 17.9703 5.98C17.7103 5.98 17.4603 5.85 17.3203 5.61C17.1103 5.25 17.2403 4.79 17.5903 4.59L18.0903 4.3C18.4503 4.09 18.9103 4.22 19.1103 4.57C19.3203 4.93 19.1903 5.39 18.8403 5.59Z" fill="white"/> <path d="M12.4998 16.31C12.4998 17.33 11.9598 18.26 11.0798 18.77C10.8298 18.92 10.5298 18.94 10.2098 18.85C9.54977 18.68 8.78977 18.04 8.25977 17.12C7.72977 16.21 7.54977 15.24 7.72977 14.57C7.81977 14.24 7.98977 14 8.23977 13.86C9.11977 13.35 10.1998 13.35 11.0798 13.86C11.9598 14.36 12.4998 15.3 12.4998 16.31Z" fill="white"/> <path d="M6.45996 10V14.31C5.68996 14.5 4.95996 14.81 4.27996 15.21C4.00996 15.37 3.75996 15.57 3.54996 15.79L3.45996 15.83V10C3.45996 9.45 3.90996 9 4.45996 9H5.45996C6.00996 9 6.45996 9.45 6.45996 10Z" fill="white"/> <path d="M10.2095 18.8499C9.54952 18.6799 8.78952 18.0399 8.25952 17.1199C7.72952 16.2099 7.54952 15.2399 7.72952 14.5699C7.35952 14.2999 6.89952 14.2099 6.45952 14.3099C5.68952 14.4999 4.95952 14.8099 4.27952 15.2099C4.00952 15.3699 3.75952 15.5699 3.54952 15.7899C2.42952 16.9099 2.15952 18.6899 2.96952 20.1299C3.63952 21.3199 4.87952 21.9999 6.14952 21.9999C6.74952 21.9999 7.34952 21.8499 7.90952 21.5399C8.59952 21.1499 9.23952 20.6599 9.79952 20.0899C10.0695 19.7999 10.2195 19.4099 10.2195 19.0199C10.2195 18.9599 10.2195 18.9099 10.2195 18.8499H10.2095ZM6.40952 19.4199L5.90952 19.7099C5.78952 19.7799 5.65952 19.8099 5.53952 19.8099C5.27952 19.8099 5.02952 19.6799 4.88952 19.4299C4.67952 19.0699 4.80952 18.6099 5.16952 18.4099L5.66952 18.1199C6.02952 17.9099 6.48952 18.0399 6.68952 18.3999C6.89952 18.7599 6.76952 19.2199 6.40952 19.4199Z" fill="white"/> </g> <defs> <clipPath id="clip0_4482_9208"> <rect width="24" height="24" fill="white"/> </clipPath> </defs> </svg>
