<svg width="24" height="24" viewBox="0 0 24 24" fill="none" xmlns="http://www.w3.org/2000/svg">
<path d="M7 17C8.10457 17 9 17.8954 9 19C9 20.1046 8.10457 21 7 21C5.89543 21 5 20.1046 5 19C5 18.958 5.00136 18.9163 5.00391 18.875C5.06845 17.8287 5.93742 17 7 17ZM18 17C19.1046 17 20 17.8954 20 19C20 20.1046 19.1046 21 18 21C16.8954 21 16 20.1046 16 19C16 17.8954 16.8954 17 18 17ZM9.5 3C11.7091 3 13.5 4.79086 13.5 7V19H10.5C10.5 17.067 8.933 15.5 7 15.5C5.34483 15.5 3.95867 16.6482 3.59375 18.1924C2.62663 17.4623 2 16.3052 2 15V7C2 4.79086 3.79086 3 6 3H9.5ZM17.209 7C17.7171 7 18.2065 7.19349 18.5771 7.54102L21.3682 10.1572C21.7714 10.5353 21.9999 11.0635 22 11.6162V17C22 17.5361 21.7868 18.0208 21.4434 18.3799C21.1505 16.7428 19.7213 15.5 18 15.5C16.7265 15.5 15.6123 16.1804 15 17.1973V7H17.209ZM10 7.25C9.58579 7.25 9.25 7.58579 9.25 8V9.25H6.75V8C6.75 7.58579 6.41421 7.25 6 7.25C5.58579 7.25 5.25 7.58579 5.25 8V12C5.25 12.4142 5.58579 12.75 6 12.75C6.41421 12.75 6.75 12.4142 6.75 12V10.75H9.25V12C9.25 12.4142 9.58579 12.75 10 12.75C10.4142 12.75 10.75 12.4142 10.75 12V8C10.75 7.58579 10.4142 7.25 10 7.25Z" fill="black"/>
</svg>
