<svg width="24" height="24" viewBox="0 0 24 24" fill="none" xmlns="http://www.w3.org/2000/svg"> <g clip-path="url(#clip0_4482_12560)"> <path d="M12 13.25C12.6904 13.25 13.25 12.6904 13.25 12C13.25 11.3096 12.6904 10.75 12 10.75C11.3096 10.75 10.75 11.3096 10.75 12C10.75 12.6904 11.3096 13.25 12 13.25Z" fill="white"/> <path d="M20.9098 6.71957C20.9098 5.89957 20.2898 4.95957 19.5298 4.66957L17.8798 3.97957L13.9598 2.37957C12.7098 1.86957 11.2898 1.86957 10.0398 2.37957L4.46984 4.67957C3.70984 4.96957 3.08984 5.90957 3.08984 6.72957V11.1196C3.08984 15.9996 6.62984 20.5896 11.4898 21.9296C11.8298 22.0196 12.1898 22.0196 12.5198 21.9296C17.3498 20.5896 20.9198 15.9996 20.9198 11.1196V6.72957H20.9098V6.71957ZM15.9998 12.7396H14.6298C14.3698 13.6496 13.6598 14.3596 12.7498 14.6196V15.9896C12.7498 16.3996 12.4098 16.7396 11.9998 16.7396C11.5898 16.7396 11.2498 16.3996 11.2498 15.9896V14.6196C10.3398 14.3596 9.62984 13.6496 9.36984 12.7396H7.99984C7.58984 12.7396 7.24984 12.3996 7.24984 11.9896C7.24984 11.5796 7.58984 11.2396 7.99984 11.2396H9.36984C9.62984 10.3296 10.3398 9.61957 11.2498 9.35957V7.98957C11.2498 7.57957 11.5898 7.23957 11.9998 7.23957C12.4098 7.23957 12.7498 7.57957 12.7498 7.98957V9.35957C13.6598 9.61957 14.3698 10.3296 14.6298 11.2396H15.9998C16.4098 11.2396 16.7498 11.5796 16.7498 11.9896C16.7498 12.3996 16.4098 12.7396 15.9998 12.7396Z" fill="white"/> </g> <defs> <clipPath id="clip0_4482_12560"> <rect width="24" height="24" fill="white"/> </clipPath> </defs> </svg>
