<svg width="24" height="24" viewBox="0 0 24 24" fill="none" xmlns="http://www.w3.org/2000/svg"> <g clip-path="url(#clip0_4482_14600)"> <path d="M17 2H7C6.77 2 6.55 2.02 6.33 2.05L8.83 5.83C9.05 6.18 8.96 6.64 8.61 6.87C8.49 6.96 8.34 7 8.2 7C7.96 7 7.72 6.88 7.57 6.66L4.83 2.5C3.15 3.3 2 5.02 2 7V17C2 19.76 4.24 22 7 22H17C17.23 22 17.45 21.98 17.67 21.95L15.18 18.17C14.95 17.82 15.04 17.36 15.39 17.13C15.73 16.9 16.2 17 16.43 17.34L19.17 21.5C20.85 20.7 22 18.98 22 17V7C22 4.24 19.76 2 17 2ZM10.13 13.8C11.1 14.81 12.68 14.86 13.72 13.92C14.03 13.64 14.5 13.66 14.78 13.97C15.06 14.28 15.04 14.75 14.73 15.03C13.94 15.74 12.96 16.1 11.98 16.1C10.91 16.1 9.85 15.68 9.05 14.85C7.51 13.26 7.51 10.76 9.05 9.17C10.59 7.58 13.09 7.5 14.73 8.99C15.04 9.27 15.06 9.74 14.78 10.05C14.5 10.36 14.03 10.38 13.72 10.1C12.68 9.16 11.1 9.21 10.13 10.21C9.15 11.22 9.15 12.8 10.13 13.8Z" fill="white"/> </g> <defs> <clipPath id="clip0_4482_14600"> <rect width="24" height="24" fill="white"/> </clipPath> </defs> </svg>
