<svg width="24" height="24" viewBox="0 0 24 24" fill="none" xmlns="http://www.w3.org/2000/svg"> <path d="M10.01 2L19.46 11.46C19.53 11.53 19.59 11.61 19.63 11.7C19.67 11.79 19.69 11.89 19.69 11.99C19.69 12.09 19.67 12.19 19.63 12.28C19.59 12.37 19.53 12.46 19.46 12.52L10.01 21.98" fill="white"/> <path d="M10.8655 19.9136L18.7805 11.9898L10.8655 4.06499V19.9136ZM19.4602 11.4595L18.9436 11.9742H18.9446L19.4602 11.4595ZM18.97 11.9488L18.9446 11.9742H18.9436L18.97 11.9478V11.9488ZM20.5452 11.9898C20.5451 12.2012 20.503 12.4202 20.4114 12.6265C20.3424 12.7817 20.228 12.965 20.0627 13.1216L20.0647 13.1236L10.6145 22.5835C10.37 22.8282 10.0024 22.9014 9.68286 22.7691C9.36358 22.6368 9.15473 22.3256 9.15454 21.98V1.99956C9.15454 1.65371 9.36333 1.34184 9.68286 1.20952C10.0023 1.0773 10.37 1.15061 10.6145 1.39507L20.0647 10.855L20.1584 10.9566C20.2209 11.0293 20.2821 11.1115 20.3362 11.2046L20.4114 11.3521L20.4709 11.5093C20.5214 11.668 20.5452 11.8311 20.5452 11.9898Z" fill="white"/> <path d="M3.45459 22V2C3.45459 1.5278 3.83786 1.14453 4.31006 1.14453C4.78226 1.14453 5.16553 1.5278 5.16553 2V22C5.16553 22.4722 4.78226 22.8555 4.31006 22.8555C3.83786 22.8555 3.45459 22.4722 3.45459 22Z" fill="white"/> </svg>
