<svg width="24" height="24" viewBox="0 0 24 24" fill="none" xmlns="http://www.w3.org/2000/svg"> <g clip-path="url(#clip0_4482_1735)"> <path d="M15.84 8.75C15.43 8.75 15.09 8.41 15.09 8V5.84C15.09 4.14 13.7099 2.75 11.9999 2.75C10.2899 2.75 8.90991 4.13 8.90991 5.84V8C8.90991 8.41 8.56991 8.75 8.15991 8.75C7.74991 8.75 7.40991 8.41 7.40991 8V5.84C7.40991 3.31 9.46994 1.25 11.9999 1.25C14.5299 1.25 16.59 3.31 16.59 5.84V8C16.59 8.41 16.25 8.75 15.84 8.75Z" fill="white"/> <path opacity="0.96" d="M16 7H8C5.25 7 3 9.25 3 12V17C3 19.75 5.25 22 8 22H16C18.75 22 21 19.75 21 17V12C21 9.25 18.75 7 16 7ZM10.8 17.46H10.2C8.57001 17.46 7.25 16.13 7.25 14.51C7.25 12.89 8.58001 11.56 10.2 11.56H10.8C11.21 11.56 11.55 11.9 11.55 12.31C11.55 12.72 11.21 13.06 10.8 13.06H10.2C9.40001 13.06 8.75 13.71 8.75 14.51C8.75 15.31 9.40001 15.96 10.2 15.96H10.8C11.21 15.96 11.55 16.3 11.55 16.71C11.55 17.12 11.21 17.46 10.8 17.46ZM13.61 13.75C14.02 13.75 14.36 14.09 14.36 14.5C14.36 14.91 14.02 15.25 13.61 15.25H10.41C9.99997 15.25 9.65997 14.91 9.65997 14.5C9.65997 14.09 9.99997 13.75 10.41 13.75H13.61ZM13.8 17.44H13.2C12.79 17.44 12.45 17.1 12.45 16.69C12.45 16.28 12.79 15.94 13.2 15.94H13.8C14.6 15.94 15.25 15.29 15.25 14.49C15.25 13.69 14.6 13.04 13.8 13.04H13.2C12.79 13.04 12.45 12.7 12.45 12.29C12.45 11.88 12.79 11.54 13.2 11.54H13.8C15.43 11.54 16.75 12.87 16.75 14.49C16.75 16.11 15.42 17.44 13.8 17.44Z" fill="white"/> </g> <defs> <clipPath id="clip0_4482_1735"> <rect width="24" height="24" fill="white"/> </clipPath> </defs> </svg>
