<svg width="24" height="24" viewBox="0 0 24 24" fill="none" xmlns="http://www.w3.org/2000/svg"> <g clip-path="url(#clip0_2085_388349)"> <path d="M20.1801 11.3899C20.3701 11.3899 20.5601 11.3199 20.7101 11.1699L21.6201 10.2599C21.9101 9.96992 21.9101 9.48992 21.6201 9.19992C21.3301 8.90992 20.8501 8.90992 20.5601 9.19992L19.6501 10.1099C19.3601 10.3999 19.3601 10.8799 19.6501 11.1699C19.8001 11.3199 19.9901 11.3899 20.1801 11.3899Z" fill="white"/> <path d="M20.7101 17.3796C20.4201 17.0896 19.9401 17.0896 19.6501 17.3796C19.3601 17.6696 19.3601 18.1496 19.6501 18.4396L20.5601 19.3496C20.7101 19.4996 20.9001 19.5696 21.0901 19.5696C21.2801 19.5696 21.4701 19.4996 21.6201 19.3496C21.9101 19.0596 21.9101 18.5796 21.6201 18.2896L20.7101 17.3796Z" fill="white"/> <path d="M22.0001 13.52H21.0901C20.6801 13.52 20.3401 13.86 20.3401 14.27C20.3401 14.68 20.6801 15.02 21.0901 15.02H22.0001C22.4101 15.02 22.7501 14.68 22.7501 14.27C22.7501 13.86 22.4101 13.52 22.0001 13.52Z" fill="white"/> <path d="M3.2901 17.3796L2.3801 18.2896C2.0901 18.5796 2.0901 19.0596 2.3801 19.3496C2.5301 19.4996 2.7201 19.5696 2.9101 19.5696C3.1001 19.5696 3.2901 19.4996 3.4401 19.3496L4.3501 18.4396C4.6401 18.1496 4.6401 17.6696 4.3501 17.3796C4.0601 17.0896 3.5801 17.0896 3.2901 17.3796Z" fill="white"/> <path d="M3.4401 9.19992C3.1501 8.90992 2.6701 8.90992 2.3801 9.19992C2.0901 9.48992 2.0901 9.96992 2.3801 10.2599L3.2901 11.1699C3.4401 11.3199 3.6301 11.3899 3.8201 11.3899C4.0101 11.3899 4.2001 11.3199 4.3501 11.1699C4.6401 10.8799 4.6401 10.3999 4.3501 10.1099L3.4401 9.19992Z" fill="white"/> <path d="M3.66 14.27C3.66 13.86 3.32 13.52 2.91 13.52H2C1.59 13.52 1.25 13.86 1.25 14.27C1.25 14.68 1.59 15.02 2 15.02H2.91C3.32 15.02 3.66 14.68 3.66 14.27Z" fill="white"/> <path d="M17.91 3.81982H14.67C14.38 3.81982 14.1 3.95982 13.93 4.20982L12.221 6.64492C12.1135 6.79812 11.8865 6.79812 11.779 6.64492L10.07 4.20982C9.90002 3.95982 9.62002 3.81982 9.33002 3.81982H6.09002C5.75002 3.81982 5.44002 4.00982 5.29002 4.30982C5.13002 4.60982 5.15002 4.96982 5.35002 5.24982L8.24181 9.38775C8.32466 9.50631 8.2989 9.66861 8.18801 9.76148C6.90404 10.8368 6.09002 12.4629 6.09002 14.2698C6.09002 17.5398 8.74002 20.1798 12 20.1798C15.26 20.1798 17.91 17.5398 17.91 14.2698C17.91 12.4629 17.096 10.8368 15.812 9.76148C15.7011 9.66861 15.6754 9.50631 15.7582 9.38775L18.65 5.24982C18.85 4.96982 18.87 4.60982 18.71 4.30982C18.56 4.00982 18.25 3.81982 17.91 3.81982Z" fill="white"/> </g> <defs> <clipPath id="clip0_2085_388349"> <rect width="24" height="24" fill="white"/> </clipPath> </defs> </svg>
