<svg width="24" height="24" viewBox="0 0 24 24" fill="none" xmlns="http://www.w3.org/2000/svg"> <g clip-path="url(#clip0_2085_384473)"> <path d="M20 11.0002C19.92 11.0002 19.83 11.0102 19.75 11.0202C19.51 10.0802 19.11 9.2002 18.57 8.4302C18.54 8.4602 18.51 8.4802 18.48 8.5002C18.35 8.5802 18.19 8.6702 17.97 8.7202H17.96C17.63 8.8202 17.22 8.8102 16.87 8.7002L14.5 7.9502C13.85 8.6102 12.96 9.0002 12 9.0002C11.04 9.0002 10.15 8.6102 9.5 7.9502L7.11 8.7002C6.8 8.8102 6.37 8.8202 6.04 8.7202H6.03C5.81 8.6702 5.65 8.5802 5.56 8.5202C5.51 8.4902 5.47 8.4602 5.43 8.4302C4.89 9.2002 4.49 10.0802 4.25 11.0202C4.17 11.0102 4.08 11.0002 4 11.0002C2.9 11.0002 2 11.9002 2 13.0002C2 14.1002 2.9 15.0002 4 15.0002C4.08 15.0002 4.17 14.9902 4.25 14.9802C5.13 18.4402 8.27 21.0002 12 21.0002C15.73 21.0002 18.87 18.4402 19.75 14.9802C19.83 14.9902 19.92 15.0002 20 15.0002C21.1 15.0002 22 14.1002 22 13.0002C22 11.9002 21.1 11.0002 20 11.0002ZM8.25 12.5002V11.5002C8.25 11.0902 8.59 10.7502 9 10.7502C9.41 10.7502 9.75 11.0902 9.75 11.5002V12.5002C9.75 12.9102 9.41 13.2502 9 13.2502C8.59 13.2502 8.25 12.9102 8.25 12.5002ZM14.96 16.5902C14.12 17.2502 13.06 17.5702 12 17.5702C10.94 17.5702 9.88 17.2502 9.04 16.5902C8.71 16.3402 8.65 15.8702 8.91 15.5402C9.16 15.2102 9.63 15.1502 9.96 15.4102C11.12 16.3102 12.88 16.3102 14.04 15.4102C14.37 15.1502 14.84 15.2102 15.09 15.5402C15.35 15.8702 15.29 16.3402 14.96 16.5902ZM15.75 12.5002C15.75 12.9102 15.41 13.2502 15 13.2502C14.59 13.2502 14.25 12.9102 14.25 12.5002V11.5002C14.25 11.0902 14.59 10.7502 15 10.7502C15.41 10.7502 15.75 11.0902 15.75 11.5002V12.5002Z" fill="white"/> <path d="M18.3201 7.21C18.2501 7.4 18.1101 7.55 17.9501 7.65C17.8801 7.69 17.8101 7.73 17.7301 7.75H17.7201C17.6401 7.78 17.5501 7.79 17.4601 7.79C17.3701 7.79 17.2801 7.79 17.1901 7.75L14.7001 6.97C14.5101 6.91 14.3401 6.79 14.2201 6.64C13.8101 7.45 12.9701 8 12.0001 8C11.0301 8 10.1901 7.45 9.7801 6.64C9.6601 6.79 9.4901 6.91 9.3001 6.97L6.8101 7.75C6.7201 7.78 6.6301 7.79 6.5401 7.79C6.4501 7.79 6.3601 7.79 6.2801 7.75H6.2701C6.1901 7.73 6.1201 7.69 6.0501 7.65C5.8901 7.55 5.7501 7.4 5.6801 7.21C5.2401 6.11 5.2401 4.89 5.6801 3.79C5.8601 3.34 6.3501 3.11 6.8101 3.25L9.3001 4.03C9.4901 4.09 9.6601 4.21 9.7801 4.36C10.1901 3.55 11.0301 3 12.0001 3C12.9701 3 13.8101 3.55 14.2201 4.36C14.3401 4.21 14.5101 4.09 14.7001 4.03L17.1901 3.25C17.6501 3.11 18.1401 3.34 18.3201 3.79C18.7601 4.89 18.7601 6.11 18.3201 7.21Z" fill="white"/> </g> <defs> <clipPath id="clip0_2085_384473"> <rect width="24" height="24" fill="white"/> </clipPath> </defs> </svg>
