<svg width="24" height="24" viewBox="0 0 24 24" fill="none" xmlns="http://www.w3.org/2000/svg"> <g clip-path="url(#clip0_655_9337)"> <path d="M22.5303 2.53L19.5903 5.47C19.4303 5.28 19.2603 5.1 19.0803 4.92C18.9003 4.74 18.7203 4.57 18.5303 4.41L21.4703 1.47C21.7603 1.18 22.2403 1.18 22.5303 1.47C22.8203 1.76 22.8203 2.24 22.5303 2.53Z" fill="white"/> <path d="M19.5904 5.47C19.4304 5.28 19.2604 5.1 19.0804 4.92C18.9004 4.74 18.7204 4.57 18.5304 4.41C14.6004 1.04 8.64043 1.21 4.92043 4.92C1.03043 8.82 1.03043 15.18 4.92043 19.08C8.82043 22.97 15.1804 22.97 19.0804 19.08C22.7904 15.36 22.9604 9.4 19.5904 5.47ZM14.2704 10.05C13.7404 11.25 13.7304 12.65 14.2404 13.83C14.3504 14.07 14.0904 14.33 13.8504 14.22C12.6604 13.65 11.2804 13.64 10.0904 14.2C9.85043 14.31 9.59043 14.05 9.70043 13.81C10.2504 12.63 10.2504 11.28 9.70043 10.1C9.59043 9.86 9.85043 9.6 10.0904 9.71C11.2904 10.27 12.6804 10.26 13.8704 9.68C14.1304 9.55 14.3804 9.8 14.2704 10.06V10.05Z" fill="white"/> </g> <defs> <clipPath id="clip0_655_9337"> <rect width="24" height="24" fill="white"/> </clipPath> </defs> </svg>
