<svg width="24" height="24" viewBox="0 0 24 24" fill="none" xmlns="http://www.w3.org/2000/svg"> <g clip-path="url(#clip0_4482_4462)"> <path d="M4.13001 8.77985C4.99001 9.61985 5.5 10.7798 5.5 11.9998C5.5 13.2298 4.99001 14.3898 4.13001 15.2198C3.28001 13.1598 3.28001 10.8398 4.13001 8.77985ZM3.59 6.58984C1.47 9.86984 1.47 14.1299 3.59 17.4099C5.61 16.4399 7 14.3798 7 11.9998C7 9.61985 5.61 7.55984 3.59 6.58984Z" fill="white"/> <path d="M19.87 8.77985C20.72 10.8398 20.72 13.1699 19.87 15.2299C19.01 14.3899 18.5 13.2298 18.5 12.0098C18.5 10.7698 19.01 9.60985 19.87 8.77985ZM20.41 6.58984C18.39 7.55984 17 9.61985 17 11.9998C17 14.3798 18.39 16.4399 20.41 17.4099C22.53 14.1299 22.53 9.86984 20.41 6.58984Z" fill="white"/> <path d="M10.2201 13.7401C10.1001 13.6301 10.0001 13.5001 9.9101 13.3701C9.8701 13.3001 9.8301 13.2301 9.7901 13.1601C9.7301 13.0601 9.69009 12.9501 9.65009 12.8401C9.59009 12.6901 9.55009 12.5301 9.53009 12.3601C9.51009 12.2401 9.50009 12.1201 9.50009 12.0001C9.50009 11.8801 9.51009 11.7601 9.53009 11.6401C9.55009 11.4701 9.59009 11.3101 9.65009 11.1601C9.69009 11.0501 9.7301 10.9401 9.7901 10.8401C9.8301 10.7701 9.8701 10.7001 9.9101 10.6301C10.0001 10.5001 10.1001 10.3701 10.2201 10.2601C10.3701 10.1001 10.5401 9.96012 10.7301 9.85012C11.0401 9.66012 11.2501 9.34012 11.2501 8.98012V3.19012C11.2501 2.56012 10.6801 2.08012 10.0601 2.20012C8.18009 2.57012 6.38008 3.48012 4.93008 4.94012C4.42008 5.45012 3.97009 6.01012 3.59009 6.60012C5.61009 7.57012 7.00009 9.63012 7.00009 12.0101C7.00009 14.3901 5.61009 16.4501 3.59009 17.4201C3.97009 18.0101 4.42008 18.5701 4.93008 19.0801C6.39008 20.5401 8.18009 21.4501 10.0601 21.8201C10.6801 21.9401 11.2501 21.4601 11.2501 20.8301V15.0401C11.2501 14.6801 11.0401 14.3501 10.7301 14.1701C10.5401 14.0401 10.3701 13.9001 10.2201 13.7401Z" fill="white"/> <path d="M17 12.0003C17 9.62035 18.39 7.56035 20.41 6.59035C20.03 6.00035 19.58 5.44035 19.07 4.93035C17.61 3.47035 15.82 2.56035 13.94 2.19035C13.32 2.07035 12.75 2.55035 12.75 3.18035V8.97035C12.75 9.33035 12.96 9.66035 13.27 9.84035C13.46 9.96035 13.63 10.0904 13.78 10.2503C13.9 10.3603 14 10.4904 14.09 10.6204C14.13 10.6904 14.17 10.7604 14.21 10.8304C14.27 10.9304 14.31 11.0404 14.35 11.1504C14.41 11.3004 14.45 11.4603 14.47 11.6303C14.49 11.7503 14.5 11.8703 14.5 11.9903C14.5 12.1103 14.49 12.2303 14.47 12.3503C14.45 12.5203 14.41 12.6804 14.35 12.8304C14.31 12.9404 14.27 13.0504 14.21 13.1504C14.17 13.2204 14.13 13.2904 14.09 13.3604C14 13.4904 13.9 13.6204 13.78 13.7304C13.63 13.8904 13.46 14.0303 13.27 14.1403C12.96 14.3303 12.75 14.6504 12.75 15.0104V20.8004C12.75 21.4304 13.32 21.9104 13.94 21.7904C15.82 21.4204 17.62 20.5104 19.07 19.0504C19.58 18.5404 20.03 17.9803 20.41 17.3903C18.39 16.4403 17 14.3804 17 12.0003Z" fill="white"/> </g> <defs> <clipPath id="clip0_4482_4462"> <rect width="24" height="24" fill="white"/> </clipPath> </defs> </svg>
