<svg width="24" height="24" viewBox="0 0 24 24" fill="none" xmlns="http://www.w3.org/2000/svg"> <g clip-path="url(#clip0_2085_393177)"> <path d="M9.14999 3.79957C7.33999 4.51957 5.84 5.90957 5.01 7.73957L4.15 5.03957C3.89 4.20957 4.11 3.29957 4.73 2.67957C5.64 1.76957 7.11999 1.76957 8.02999 2.67957L9.14999 3.79957Z" fill="white"/> <path d="M19.8401 5.03957L18.9901 7.73957C18.1501 5.90957 16.6501 4.51957 14.8501 3.79957L15.9701 2.67957C16.8801 1.76957 18.3601 1.76957 19.2701 2.67957C19.8801 3.29957 20.1101 4.20957 19.8401 5.03957Z" fill="white"/> <path d="M17.1199 16.8805V20.7205C17.1199 21.4305 16.5399 22.0005 15.8399 22.0005H13.8599C13.2899 22.0005 12.8299 21.5405 12.8299 20.9805V18.4554C12.8299 18.2842 12.9187 18.1267 13.0577 18.0268C13.5034 17.7063 13.9199 17.2762 13.9199 16.7805C13.9199 15.7305 13.0599 15.4205 11.9999 15.4205C10.9399 15.4205 10.0799 15.7305 10.0799 16.7805C10.0799 17.2761 10.4888 17.706 10.9323 18.0265C11.071 18.1268 11.1599 18.2842 11.1599 18.4554V20.9805C11.1599 21.5405 10.6999 22.0005 10.1399 22.0005H8.15988C7.45988 22.0005 6.87988 21.4305 6.87988 20.7205V17.1105C6.87988 14.4305 8.82988 12.0505 11.4899 11.7905C14.5499 11.5005 17.1199 13.8905 17.1199 16.8805Z" fill="white"/> <path d="M21.2901 12.91L19.0301 7.82C19.0301 7.82 19.0101 7.77 18.9901 7.74C18.1501 5.91 16.6501 4.52 14.8501 3.8C13.9601 3.44 13.0001 3.25 12.0001 3.25C11.0001 3.25 10.0401 3.44 9.15006 3.8C7.34006 4.52 5.84006 5.91 5.01006 7.74C4.99006 7.77 4.98006 7.79 4.97006 7.82L2.71006 12.91C2.27006 13.88 2.42006 15.02 3.09006 15.86L5.41698 18.7707C5.57047 18.9627 5.88006 18.8542 5.88006 18.6084V17.11C5.88006 13.86 8.31006 11.09 11.4001 10.79C11.5901 10.77 11.7801 10.76 11.9701 10.76C13.5001 10.76 14.9801 11.33 16.1101 12.35C17.3901 13.51 18.1201 15.16 18.1201 16.88V18.6084C18.1201 18.8542 18.4297 18.9627 18.5831 18.7707L20.9101 15.86C21.5801 15.02 21.7201 13.88 21.2901 12.91ZM8.87006 10.25H7.62006C7.21006 10.25 6.88006 9.92 6.88006 9.5C6.88006 9.08 7.21006 8.75 7.62006 8.75H8.87006C9.28006 8.75 9.62006 9.09 9.62006 9.5C9.62006 9.91 9.28006 10.25 8.87006 10.25ZM16.3701 10.25H15.1201C14.7101 10.25 14.3801 9.92 14.3801 9.5C14.3801 9.08 14.7101 8.75 15.1201 8.75H16.3701C16.7801 8.75 17.1201 9.09 17.1201 9.5C17.1201 9.91 16.7801 10.25 16.3701 10.25Z" fill="white"/> </g> <defs> <clipPath id="clip0_2085_393177"> <rect width="24" height="24" fill="white"/> </clipPath> </defs> </svg>
