<svg width="24" height="24" viewBox="0 0 24 24" fill="none" xmlns="http://www.w3.org/2000/svg"> <g clip-path="url(#clip0_4482_10290)"> <path d="M21.6101 16.9899L18.1201 13.4999C17.8701 13.2499 17.5401 13.1099 17.1901 13.1099H14.4401C13.7101 13.1099 13.1201 13.6999 13.1201 14.4299V17.1799C13.1201 17.5299 13.2601 17.8699 13.5101 18.1099L17.0001 21.5999C17.5201 22.1199 18.3501 22.1199 18.8701 21.5999L21.6201 18.8499C22.1401 18.3299 22.1401 17.4999 21.6201 16.9799L21.6101 16.9899ZM16.5301 16.5099C16.3801 16.6599 16.1701 16.7399 15.9601 16.7399C15.7501 16.7399 15.5501 16.6699 15.4101 16.5299C15.2601 16.3899 15.1601 16.1599 15.1601 15.9499C15.1601 15.7399 15.2601 15.5199 15.4001 15.3799C15.6901 15.0999 16.2101 15.0999 16.5001 15.3799C16.6501 15.5199 16.7301 15.7399 16.7301 15.9399C16.7301 16.1399 16.6601 16.3699 16.5201 16.5099H16.5301Z" fill="white"/> <path d="M20.8 6.52018L15.94 2.63018C13.62 0.780176 10.38 0.780176 8.06 2.63018L3.2 6.52018C1.96 7.51018 1.25 8.99018 1.25 10.5802V17.5602C1.25 20.4202 3.58 22.7502 6.44 22.7502H11.98C12.39 22.7502 12.73 22.4102 12.73 22.0002C12.73 21.5902 12.39 21.2502 11.98 21.2502H6.44C4.4 21.2502 2.75 19.5902 2.75 17.5602V10.5802C2.75 9.45018 3.25 8.40018 4.14 7.70018L9 3.81018C10.77 2.40018 13.24 2.40018 15 3.81018L19.86 7.70018C20.74 8.41018 21.25 9.46018 21.25 10.5802V11.9902C21.25 12.4002 21.59 12.7402 22 12.7402C22.41 12.7402 22.75 12.4002 22.75 11.9902V10.5802C22.75 8.99018 22.04 7.52018 20.8 6.52018Z" fill="white"/> </g> <defs> <clipPath id="clip0_4482_10290"> <rect width="24" height="24" fill="white"/> </clipPath> </defs> </svg>
