<svg width="24" height="24" viewBox="0 0 24 24" fill="none" xmlns="http://www.w3.org/2000/svg"> <g clip-path="url(#clip0_2085_388738)"> <path d="M6.55008 12.7501C6.44008 12.7501 6.33008 12.7301 6.23008 12.6801C6.03008 12.5801 5.88008 12.4001 5.82008 12.1801L4.91008 8.54014C4.81008 8.14014 5.05008 7.73014 5.46008 7.63014C5.86008 7.53014 6.27008 7.77014 6.37008 8.18014L7.06008 10.9301L15.7801 6.78014C16.1501 6.60014 16.6001 6.76014 16.7801 7.13014C16.9601 7.50014 16.8001 7.95014 16.4301 8.13014L6.88008 12.6801C6.78008 12.7301 6.67008 12.7501 6.56008 12.7501H6.55008Z" fill="white"/> <path d="M7.45006 9.10986H3.81006C3.40006 9.10986 3.06006 8.76986 3.06006 8.35986C3.06006 7.94986 3.40006 7.60986 3.81006 7.60986H7.45006C7.86006 7.60986 8.20006 7.94986 8.20006 8.35986C8.20006 8.76986 7.86006 9.10986 7.45006 9.10986Z" fill="white"/> <path d="M5.64 19.28C7.65032 19.28 9.28 17.6503 9.28 15.64C9.28 13.6297 7.65032 12 5.64 12C3.62968 12 2 13.6297 2 15.64C2 17.6503 3.62968 19.28 5.64 19.28Z" fill="white"/> <path d="M16.5599 5.58998C17.3299 5.74998 18.3399 6.15998 18.5399 7.14998C18.6199 7.55998 19.0199 7.81998 19.4199 7.73998C19.8299 7.65998 20.0899 7.25998 20.0099 6.85998C19.4399 4.01998 15.7899 3.97998 15.6399 3.97998C15.4199 3.97998 15.2099 4.07998 15.0599 4.24998C14.9099 4.41998 14.8599 4.64998 14.8999 4.85998L15.9199 10.47C16.3799 10.3 16.8699 10.2 17.3899 10.19L16.5499 5.58998H16.5599Z" fill="white"/> <path d="M17.4499 10.1799C17.4499 10.1799 17.4099 10.1799 17.3899 10.1799L18.1899 14.5899C18.2599 14.9999 17.9899 15.3899 17.5899 15.4599C17.5399 15.4599 17.4999 15.4699 17.4499 15.4699C17.0899 15.4699 16.7799 15.2199 16.7099 14.8499L15.9099 10.4599C14.1599 11.0899 12.8999 12.7499 12.8999 14.7199C12.8999 17.2299 14.9399 19.2699 17.4499 19.2699C19.9599 19.2699 21.9999 17.2299 21.9999 14.7199C21.9999 12.2099 19.9599 10.1699 17.4499 10.1699V10.1799Z" fill="white"/> </g> <defs> <clipPath id="clip0_2085_388738"> <rect width="24" height="24" fill="white"/> </clipPath> </defs> </svg>
