<svg width="24" height="24" viewBox="0 0 24 24" fill="none" xmlns="http://www.w3.org/2000/svg"> <g clip-path="url(#clip0_2085_388740)"> <path d="M12.75 15.73V20.06C16.62 19.7 19.71 16.62 20.06 12.75H15.73C15.43 14.25 14.25 15.43 12.75 15.73Z" fill="white"/> <path d="M11.2499 8.26994V3.93994C7.37994 4.29994 4.28994 7.37994 3.93994 11.2499H8.26994C8.56994 9.74994 9.74994 8.56994 11.2499 8.26994Z" fill="white"/> <path d="M8.26994 12.75H3.93994C4.29994 16.62 7.37994 19.71 11.2499 20.06V15.73C9.74994 15.43 8.56994 14.25 8.26994 12.75Z" fill="white"/> <path d="M15.73 11.2499H20.06C19.7 7.37994 16.62 4.28994 12.75 3.93994V8.26994C14.25 8.56994 15.43 9.74994 15.73 11.2499Z" fill="white"/> <path d="M12.75 3.94V2C12.75 1.59 12.41 1.25 12 1.25C11.59 1.25 11.25 1.59 11.25 2V3.94C11.5 3.92 11.75 3.9 12 3.9C12.25 3.9 12.5 3.92 12.75 3.94Z" fill="white"/> <path d="M22.0001 11.25H20.0601C20.0801 11.5 20.1001 11.75 20.1001 12C20.1001 12.25 20.0801 12.5 20.0601 12.75H22.0001C22.4101 12.75 22.7501 12.41 22.7501 12C22.7501 11.59 22.4101 11.25 22.0001 11.25Z" fill="white"/> <path d="M11.25 20.0601V22.0001C11.25 22.4101 11.59 22.7501 12 22.7501C12.41 22.7501 12.75 22.4101 12.75 22.0001V20.0601C12.5 20.0801 12.25 20.1001 12 20.1001C11.75 20.1001 11.5 20.0801 11.25 20.0601Z" fill="white"/> <path d="M3.94 11.25H2C1.59 11.25 1.25 11.59 1.25 12C1.25 12.41 1.59 12.75 2 12.75H3.94C3.92 12.5 3.9 12.25 3.9 12C3.9 11.75 3.92 11.5 3.94 11.25Z" fill="white"/> </g> <defs> <clipPath id="clip0_2085_388740"> <rect width="24" height="24" fill="white"/> </clipPath> </defs> </svg>
