<svg width="24" height="24" viewBox="0 0 24 24" fill="none" xmlns="http://www.w3.org/2000/svg"> <g clip-path="url(#clip0_4482_1731)"> <path d="M15.8399 8.75C15.4299 8.75 15.0899 8.41 15.0899 8V5.84C15.0899 4.14 13.7099 2.75 11.9999 2.75C10.2899 2.75 8.90991 4.13 8.90991 5.84V8C8.90991 8.41 8.56991 8.75 8.15991 8.75C7.74991 8.75 7.40991 8.41 7.40991 8V5.84C7.40991 3.31 9.46991 1.25 11.9999 1.25C14.5299 1.25 16.5899 3.31 16.5899 5.84V8C16.5899 8.41 16.2499 8.75 15.8399 8.75Z" fill="white"/> <path d="M16 7H8C5.25 7 3 9.25 3 12V17C3 19.75 5.25 22 8 22H16C18.75 22 21 19.75 21 17V12C21 9.25 18.75 7 16 7ZM14.54 14.82L12.94 15.46L12.3 17.06C12.13 17.46 11.86 17.46 11.69 17.06L11.05 15.46L9.45001 14.82C9.05001 14.65 9.05001 14.38 9.45001 14.21L11.05 13.57L11.69 11.97C11.86 11.54 12.13 11.54 12.3 11.97L12.94 13.57L14.54 14.21C14.96 14.38 14.96 14.65 14.54 14.82Z" fill="white"/> </g> <defs> <clipPath id="clip0_4482_1731"> <rect width="24" height="24" fill="white"/> </clipPath> </defs> </svg>
