<svg width="24" height="24" viewBox="0 0 24 24" fill="none" xmlns="http://www.w3.org/2000/svg"> <g clip-path="url(#clip0_2085_393755)"> <path d="M5.39005 13.4796C5.39005 13.4796 5.40005 13.5496 5.40005 13.5796C5.40005 13.9696 5.08005 14.2796 4.69005 14.2796H3.00005C2.06005 14.2796 1.30005 13.5196 1.30005 12.5796V12.0896C1.30005 11.1496 2.06005 10.3896 3.00005 10.3896H4.69005C5.08005 10.3896 5.40005 10.6996 5.40005 11.0896C5.40005 11.1196 5.40005 11.1596 5.39005 11.1896V11.2096C5.39005 11.2096 5.37005 11.2796 5.36005 11.3196C5.26005 11.5996 5.00005 11.7896 4.69005 11.7896H3.00005C2.84005 11.7896 2.70005 11.9196 2.70005 12.0896V12.5796C2.70005 12.7396 2.84005 12.8796 3.00005 12.8796H4.69005C5.00005 12.8796 5.26005 13.0696 5.36005 13.3496C5.37005 13.3896 5.38005 13.4196 5.39005 13.4596V13.4796Z" fill="white"/> <path d="M22.7001 12.0896V12.5796C22.7001 13.5196 21.9401 14.2796 21.0001 14.2796H19.3101C18.9201 14.2796 18.6001 13.9696 18.6001 13.5796C18.6001 13.5296 18.6001 13.4796 18.6101 13.4396C18.6801 13.1196 18.9701 12.8796 19.3101 12.8796H21.0001C21.1601 12.8796 21.3001 12.7396 21.3001 12.5796V12.0896C21.3001 11.9196 21.1601 11.7896 21.0001 11.7896H19.3101C18.9701 11.7896 18.6801 11.5496 18.6101 11.2296C18.6001 11.1896 18.6001 11.1396 18.6001 11.0896C18.6001 10.6996 18.9201 10.3896 19.3101 10.3896H21.0001C21.9401 10.3896 22.7001 11.1496 22.7001 12.0896Z" fill="white"/> <path d="M3.83007 12.33C3.83007 12.51 3.84007 12.7 3.86007 12.88H3.00007C2.84007 12.88 2.70007 12.74 2.70007 12.58V12.09C2.70007 11.92 2.84007 11.79 3.00007 11.79H3.86007C3.84007 11.97 3.83007 12.15 3.83007 12.33Z" fill="white"/> <path d="M10.4701 13.2499C10.6701 13.5899 10.5601 14.0199 10.2301 14.2199L9.70008 14.5399L7.50008 15.8599L7.03008 16.1399C6.76008 16.2999 6.46008 16.3799 6.15008 16.3799H6.12008C5.97008 16.3799 5.81008 16.3599 5.66008 16.3099C5.20008 16.1699 4.82008 15.8399 4.61008 15.3999C4.46008 15.0899 4.30008 14.7099 4.16008 14.2799C4.02008 13.8499 3.91008 13.3699 3.86008 12.8799C3.84008 12.6999 3.83008 12.5099 3.83008 12.3299C3.83008 12.1499 3.84008 11.9699 3.86008 11.7899C3.91008 11.2999 4.02008 10.8199 4.16008 10.3899C4.30008 9.9599 4.46008 9.5799 4.61008 9.2599C4.82008 8.8299 5.20008 8.4999 5.66008 8.3599C5.80008 8.3199 5.96008 8.2899 6.11008 8.2899C6.43008 8.2799 6.75008 8.3599 7.03008 8.5299L7.50008 8.8099L9.70008 10.1299L10.2301 10.4499C10.5601 10.6499 10.6701 11.0799 10.4701 11.4099C10.3501 11.6199 10.1301 11.7399 9.91008 11.7499C9.77008 11.7699 9.64008 11.7399 9.51008 11.6599L9.46008 11.6299L8.98008 11.3399L6.32008 9.7399C6.21008 9.6799 6.12008 9.6899 6.08008 9.7099C6.03008 9.7199 5.94008 9.7599 5.89008 9.8699C5.72008 10.2299 5.53008 10.6799 5.40008 11.1899V11.2099C5.40008 11.2099 5.38008 11.2799 5.37008 11.3199C5.29008 11.6499 5.24008 11.9899 5.24008 12.3299C5.24008 12.6699 5.29008 13.0199 5.37008 13.3499C5.38008 13.3899 5.39008 13.4199 5.40008 13.4599V13.4799C5.53008 13.9899 5.72008 14.4399 5.89008 14.7999C5.94008 14.9099 6.03008 14.9499 6.08008 14.9599C6.12008 14.9699 6.22008 14.9899 6.32008 14.9299L8.98008 13.3299L9.46008 13.0399L9.51008 13.0099C9.63008 12.9299 9.77008 12.8999 9.91008 12.9199C10.1301 12.9299 10.3501 13.0499 10.4701 13.2499Z" fill="white"/> <path d="M21.3001 12.09V12.58C21.3001 12.74 21.1601 12.88 21.0001 12.88H20.1401C20.1601 12.7 20.1701 12.51 20.1701 12.33C20.1701 12.15 20.1601 11.97 20.1401 11.79H21.0001C21.1601 11.79 21.3001 11.92 21.3001 12.09Z" fill="white"/> <path d="M20.1701 12.3299C20.1701 12.5099 20.1601 12.6999 20.1401 12.8799C20.0901 13.3699 19.9701 13.8499 19.8301 14.2799C19.7001 14.7099 19.5401 15.0899 19.3901 15.3999C19.1801 15.8399 18.8001 16.1699 18.3401 16.3099C18.1901 16.3599 18.0301 16.3799 17.8801 16.3799H17.8501C17.5401 16.3799 17.2401 16.2999 16.9701 16.1399L16.5001 15.8599L14.3001 14.5399L13.7701 14.2199C13.4401 14.0199 13.3301 13.5899 13.5301 13.2499C13.5601 13.1999 13.6001 13.1499 13.6401 13.1099C13.6601 13.0899 13.6801 13.0699 13.7001 13.0599C13.7701 12.9999 13.8401 12.9699 13.9201 12.9399C13.9801 12.9199 14.0301 12.9099 14.0901 12.9099C14.2301 12.8999 14.3701 12.9299 14.4901 13.0099L14.5401 13.0399L15.0301 13.3299L17.6901 14.9299C17.7901 14.9899 17.8801 14.9799 17.9301 14.9599C17.9801 14.9599 18.0701 14.9099 18.1201 14.7999C18.2901 14.4299 18.4801 13.9599 18.6101 13.4399C18.7001 13.0799 18.7601 12.6999 18.7601 12.3299C18.7601 11.9599 18.7001 11.5799 18.6101 11.2299C18.4801 10.7099 18.2901 10.2399 18.1201 9.8699C18.0701 9.7599 17.9801 9.7199 17.9301 9.7099C17.8801 9.6899 17.7901 9.6799 17.6901 9.7399L15.0301 11.3299L14.5401 11.6299L14.4901 11.6599C14.3701 11.7399 14.2301 11.7699 14.0901 11.7599C13.8701 11.7499 13.6501 11.6299 13.5301 11.4099C13.3301 11.0799 13.4401 10.6499 13.7701 10.4499L14.3001 10.1299L16.5001 8.8099L16.9701 8.5299C17.2501 8.3599 17.5701 8.2799 17.8901 8.2899C18.0401 8.2899 18.2001 8.3199 18.3401 8.3599C18.8001 8.4999 19.1801 8.8299 19.3901 9.2599C19.5401 9.5799 19.7001 9.9599 19.8301 10.3899C19.9701 10.8199 20.0901 11.2999 20.1401 11.7899C20.1601 11.9699 20.1701 12.1499 20.1701 12.3299Z" fill="white"/> <path d="M13.7701 14.2196C13.4401 14.0196 13.3301 13.5896 13.5301 13.2496C13.3401 13.5796 13.0701 13.8196 12.7201 13.9796C12.7801 13.9596 12.8501 13.9496 12.9101 13.9496C13.1101 13.9496 13.3101 14.0296 13.4501 14.1896L13.9901 14.8296C14.1001 14.7396 14.2001 14.6396 14.3001 14.5396L13.7701 14.2196ZM13.9701 12.7996C13.9701 12.7996 13.9001 12.7096 13.8701 12.6596C13.8501 12.6096 13.8301 12.5596 13.8101 12.4996C13.8001 12.4496 13.7901 12.3896 13.7901 12.3296C13.7901 12.6696 13.7001 12.9796 13.5301 13.2496C13.5601 13.1996 13.6001 13.1496 13.6401 13.1096C13.6601 13.0896 13.6801 13.0696 13.7001 13.0596C13.7701 12.9996 13.8401 12.9596 13.9201 12.9396C13.9801 12.9196 14.0301 12.9096 14.0901 12.9096C14.0401 12.8796 14.0001 12.8396 13.9701 12.7996ZM10.4701 13.2496C10.6701 13.5896 10.5601 14.0196 10.2301 14.2196L9.70006 14.5396C9.80006 14.6396 9.90006 14.7396 10.0101 14.8296L10.5501 14.1896C10.5501 14.1896 10.6201 14.1196 10.6701 14.0796C10.7501 14.0196 10.8401 13.9796 10.9401 13.9596C11.0601 13.9296 11.1901 13.9396 11.3101 13.9796C10.9601 13.8296 10.6601 13.5796 10.4701 13.2496ZM10.2101 12.3296C10.2101 12.3896 10.2001 12.4496 10.1901 12.4996C10.1701 12.5596 10.1501 12.6096 10.1301 12.6596C10.1001 12.7096 10.0701 12.7596 10.0301 12.7996C10.0001 12.8396 9.96006 12.8796 9.91006 12.9196C10.1301 12.9296 10.3501 13.0496 10.4701 13.2496C10.3001 12.9796 10.2101 12.6696 10.2101 12.3296ZM13.7701 14.2196C13.4401 14.0196 13.3301 13.5896 13.5301 13.2496C13.3401 13.5796 13.0701 13.8196 12.7201 13.9796C12.7801 13.9596 12.8501 13.9496 12.9101 13.9496C13.1101 13.9496 13.3101 14.0296 13.4501 14.1896L13.9901 14.8296C14.1001 14.7396 14.2001 14.6396 14.3001 14.5396L13.7701 14.2196ZM13.9701 12.7996C13.9701 12.7996 13.9001 12.7096 13.8701 12.6596C13.8501 12.6096 13.8301 12.5596 13.8101 12.4996C13.8001 12.4496 13.7901 12.3896 13.7901 12.3296C13.7901 12.6696 13.7001 12.9796 13.5301 13.2496C13.5601 13.1996 13.6001 13.1496 13.6401 13.1096C13.6601 13.0896 13.6801 13.0696 13.7001 13.0596C13.7701 12.9996 13.8401 12.9596 13.9201 12.9396C13.9801 12.9196 14.0301 12.9096 14.0901 12.9096C14.0401 12.8796 14.0001 12.8396 13.9701 12.7996ZM10.4701 13.2496C10.6701 13.5896 10.5601 14.0196 10.2301 14.2196L9.70006 14.5396C9.80006 14.6396 9.90006 14.7396 10.0101 14.8296L10.5501 14.1896C10.5501 14.1896 10.6201 14.1196 10.6701 14.0796C10.7501 14.0196 10.8401 13.9796 10.9401 13.9596C11.0601 13.9296 11.1901 13.9396 11.3101 13.9796C10.9601 13.8296 10.6601 13.5796 10.4701 13.2496ZM10.2101 12.3296C10.2101 12.3896 10.2001 12.4496 10.1901 12.4996C10.1701 12.5596 10.1501 12.6096 10.1301 12.6596C10.1001 12.7096 10.0701 12.7596 10.0301 12.7996C10.0001 12.8396 9.96006 12.8796 9.91006 12.9196C10.1301 12.9296 10.3501 13.0496 10.4701 13.2496C10.3001 12.9796 10.2101 12.6696 10.2101 12.3296ZM13.7701 14.2196C13.4401 14.0196 13.3301 13.5896 13.5301 13.2496C13.3401 13.5796 13.0701 13.8196 12.7201 13.9796C12.7801 13.9596 12.8501 13.9496 12.9101 13.9496C13.1101 13.9496 13.3101 14.0296 13.4501 14.1896L13.9901 14.8296C14.1001 14.7396 14.2001 14.6396 14.3001 14.5396L13.7701 14.2196ZM13.7001 13.0596C13.7701 12.9996 13.8401 12.9596 13.9201 12.9396C13.9801 12.9196 14.0301 12.9096 14.0901 12.9096C14.0401 12.8796 14.0001 12.8396 13.9701 12.7996C13.9301 12.7596 13.9001 12.7096 13.8701 12.6596C13.8401 12.6096 13.8201 12.5596 13.8101 12.4996C13.8001 12.4496 13.7901 12.3896 13.7901 12.3296C13.7901 12.6696 13.7001 12.9796 13.5301 13.2496C13.5601 13.1996 13.6001 13.1496 13.6401 13.1096C13.6601 13.0896 13.6801 13.0696 13.7001 13.0596ZM10.4701 13.2496C10.6701 13.5896 10.5601 14.0196 10.2301 14.2196L9.70006 14.5396C9.80006 14.6396 9.90006 14.7396 10.0101 14.8296L10.5501 14.1896C10.5501 14.1896 10.6201 14.1196 10.6701 14.0796C10.7501 14.0196 10.8401 13.9796 10.9401 13.9596C11.0601 13.9296 11.1901 13.9396 11.3101 13.9796C10.9601 13.8296 10.6601 13.5796 10.4701 13.2496ZM10.1901 12.4996C10.1801 12.5596 10.1601 12.6096 10.1301 12.6596C10.1001 12.7096 10.0701 12.7596 10.0301 12.7996C10.0001 12.8396 9.96006 12.8796 9.91006 12.9196C10.1301 12.9296 10.3501 13.0496 10.4701 13.2496C10.3001 12.9796 10.2101 12.6696 10.2101 12.3296C10.2101 12.3896 10.2001 12.4496 10.1901 12.4996ZM15.1101 11.6296C15.0901 11.5296 15.0601 11.4396 15.0301 11.3396C14.8801 10.8696 14.6301 10.4596 14.3001 10.1296C14.2101 10.0196 14.1001 9.92965 13.9901 9.83965C13.6101 9.53965 13.1601 9.31965 12.6701 9.21965C12.4601 9.15965 12.2301 9.13965 12.0001 9.13965C11.7701 9.13965 11.5401 9.15965 11.3301 9.21965C10.8401 9.31965 10.3901 9.53965 10.0101 9.83965C9.90006 9.92965 9.79006 10.0196 9.70006 10.1296C9.37006 10.4696 9.12006 10.8796 8.97006 11.3396C8.94006 11.4296 8.91006 11.5296 8.89006 11.6296C8.84006 11.8496 8.81006 12.0896 8.81006 12.3296C8.81006 12.5696 8.84006 12.8096 8.90006 13.0396C8.90006 13.1396 8.94006 13.2396 8.97006 13.3296C9.12006 13.7896 9.37006 14.1996 9.70006 14.5396C9.80006 14.6396 9.90006 14.7396 10.0101 14.8296C10.3901 15.1296 10.8401 15.3496 11.3301 15.4496C11.5401 15.5096 11.7701 15.5296 12.0001 15.5296C12.2301 15.5296 12.4601 15.5096 12.6701 15.4496C13.1601 15.3496 13.6101 15.1296 13.9901 14.8296C14.1001 14.7396 14.2001 14.6396 14.3001 14.5396C14.6301 14.1996 14.8801 13.7896 15.0301 13.3296C15.0601 13.2396 15.0901 13.1396 15.1001 13.0396C15.1601 12.8096 15.1901 12.5696 15.1901 12.3296C15.1901 12.0896 15.1601 11.8496 15.1101 11.6296ZM12.7101 13.9796C12.7101 13.9796 12.6901 13.9796 12.6701 13.9896C12.4601 14.0696 12.2401 14.1196 12.0001 14.1196C11.7601 14.1196 11.5301 14.0696 11.3301 13.9896C11.3201 13.9896 11.3101 13.9796 11.3101 13.9796C10.9601 13.8296 10.6601 13.5796 10.4701 13.2496C10.3001 12.9796 10.2101 12.6696 10.2101 12.3296C10.2101 11.3496 11.0201 10.5496 12.0001 10.5496C12.2401 10.5496 12.4701 10.5996 12.6801 10.6796C12.6801 10.6796 12.6901 10.6796 12.7001 10.6896C13.3401 10.9596 13.7901 11.5996 13.7901 12.3296C13.7901 12.6696 13.7001 12.9796 13.5301 13.2496C13.3401 13.5796 13.0701 13.8196 12.7201 13.9796H12.7101ZM10.2101 12.3296C10.2101 12.3896 10.2001 12.4496 10.1901 12.4996C10.1701 12.5596 10.1501 12.6096 10.1301 12.6596C10.1001 12.7096 10.0701 12.7596 10.0301 12.7996C10.0001 12.8396 9.96006 12.8796 9.91006 12.9196C10.1301 12.9296 10.3501 13.0496 10.4701 13.2496C10.3001 12.9796 10.2101 12.6696 10.2101 12.3296ZM10.4701 13.2496C10.6701 13.5896 10.5601 14.0196 10.2301 14.2196L9.70006 14.5396C9.80006 14.6396 9.90006 14.7396 10.0101 14.8296L10.5501 14.1896C10.5501 14.1896 10.6201 14.1196 10.6701 14.0796C10.7501 14.0196 10.8401 13.9796 10.9401 13.9596C11.0601 13.9296 11.1901 13.9396 11.3101 13.9796C10.9601 13.8296 10.6601 13.5796 10.4701 13.2496ZM13.9701 12.7996C13.9701 12.7996 13.9001 12.7096 13.8701 12.6596C13.8501 12.6096 13.8301 12.5596 13.8101 12.4996C13.8001 12.4496 13.7901 12.3896 13.7901 12.3296C13.7901 12.6696 13.7001 12.9796 13.5301 13.2496C13.5601 13.1996 13.6001 13.1496 13.6401 13.1096C13.6601 13.0896 13.6801 13.0696 13.7001 13.0596C13.7701 12.9996 13.8401 12.9596 13.9201 12.9396C13.9801 12.9196 14.0301 12.9096 14.0901 12.9096C14.0401 12.8796 14.0001 12.8396 13.9701 12.7996ZM13.7701 14.2196C13.4401 14.0196 13.3301 13.5896 13.5301 13.2496C13.3401 13.5796 13.0701 13.8196 12.7201 13.9796C12.7801 13.9596 12.8501 13.9496 12.9101 13.9496C13.1101 13.9496 13.3101 14.0296 13.4501 14.1896L13.9901 14.8296C14.1001 14.7396 14.2001 14.6396 14.3001 14.5396L13.7701 14.2196ZM10.2101 12.3296C10.2101 12.3896 10.2001 12.4496 10.1901 12.4996C10.1701 12.5596 10.1501 12.6096 10.1301 12.6596C10.1001 12.7096 10.0701 12.7596 10.0301 12.7996C10.0001 12.8396 9.96006 12.8796 9.91006 12.9196C10.1301 12.9296 10.3501 13.0496 10.4701 13.2496C10.3001 12.9796 10.2101 12.6696 10.2101 12.3296ZM10.4701 13.2496C10.6701 13.5896 10.5601 14.0196 10.2301 14.2196L9.70006 14.5396C9.80006 14.6396 9.90006 14.7396 10.0101 14.8296L10.5501 14.1896C10.5501 14.1896 10.6201 14.1196 10.6701 14.0796C10.7501 14.0196 10.8401 13.9796 10.9401 13.9596C11.0601 13.9296 11.1901 13.9396 11.3101 13.9796C10.9601 13.8296 10.6601 13.5796 10.4701 13.2496ZM13.9701 12.7996C13.9701 12.7996 13.9001 12.7096 13.8701 12.6596C13.8501 12.6096 13.8301 12.5596 13.8101 12.4996C13.8001 12.4496 13.7901 12.3896 13.7901 12.3296C13.7901 12.6696 13.7001 12.9796 13.5301 13.2496C13.5601 13.1996 13.6001 13.1496 13.6401 13.1096C13.6601 13.0896 13.6801 13.0696 13.7001 13.0596C13.7701 12.9996 13.8401 12.9596 13.9201 12.9396C13.9801 12.9196 14.0301 12.9096 14.0901 12.9096C14.0401 12.8796 14.0001 12.8396 13.9701 12.7996ZM13.7701 14.2196C13.4401 14.0196 13.3301 13.5896 13.5301 13.2496C13.3401 13.5796 13.0701 13.8196 12.7201 13.9796C12.7801 13.9596 12.8501 13.9496 12.9101 13.9496C13.1101 13.9496 13.3101 14.0296 13.4501 14.1896L13.9901 14.8296C14.1001 14.7396 14.2001 14.6396 14.3001 14.5396L13.7701 14.2196Z" fill="white"/> <path d="M14 12.4944C14 12.8753 13.8992 13.2227 13.7087 13.5252C13.4958 13.895 13.1933 14.1639 12.8011 14.3431C12.8011 14.3431 12.7787 14.3431 12.7563 14.3543C12.521 14.444 12.2745 14.5 12.0056 14.5C11.7367 14.5 11.479 14.444 11.2549 14.3543C11.2437 14.3543 11.2325 14.3431 11.2325 14.3431C10.8403 14.1751 10.5042 13.895 10.2913 13.5252C10.1008 13.2227 10 12.8753 10 12.4944C10 11.3964 10.9076 10.5 12.0056 10.5C12.2745 10.5 12.5322 10.556 12.7675 10.6457C12.7675 10.6457 12.7787 10.6457 12.7899 10.6569C13.507 10.9594 14.0112 11.6765 14.0112 12.4944H14Z" fill="white"/> <path d="M9.51007 13.0396H7.02007C6.63007 13.0396 6.32007 12.7296 6.32007 12.3396C6.32007 11.9496 6.63007 11.6396 7.02007 11.6396H9.51007C9.90007 11.6396 10.2101 11.9496 10.2101 12.3396C10.2101 12.7296 9.90007 13.0396 9.51007 13.0396Z" fill="white"/> <path d="M16.98 13.0396H14.49C14.1 13.0396 13.79 12.7296 13.79 12.3396C13.79 11.9496 14.1 11.6396 14.49 11.6396H16.98C17.37 11.6396 17.68 11.9496 17.68 12.3396C17.68 12.7296 17.37 13.0396 16.98 13.0396Z" fill="white"/> <path d="M18.1001 16.1002L17.8801 16.3802L17.0401 17.4302C16.7201 17.8302 16.2401 18.0602 15.7301 18.0702H15.7101C15.2101 18.0702 14.7401 17.8602 14.4101 17.4802L12.6701 15.4502L12.3801 15.1102C12.1301 14.8102 12.1601 14.3702 12.4601 14.1102C12.5201 14.0602 12.6001 14.0202 12.6701 13.9902C12.6901 13.9802 12.7001 13.9802 12.7101 13.9802C12.7701 13.9602 12.8401 13.9502 12.9001 13.9502C13.1001 13.9502 13.3001 14.0302 13.4401 14.1902L13.9801 14.8302L15.4701 16.5602C15.5501 16.6502 15.6401 16.6602 15.7001 16.6702C15.7501 16.6602 15.8501 16.6502 15.9301 16.5502L16.4901 15.8602L16.9901 15.2302C17.2301 14.9202 17.6801 14.8702 17.9801 15.1202C18.2801 15.3602 18.3301 15.8002 18.0901 16.1002H18.1001Z" fill="white"/> <path d="M11.6201 15.1104L11.3301 15.4504L9.5801 17.4804C9.2601 17.8604 8.7901 18.0704 8.2901 18.0704H8.2601C7.7501 18.0604 7.2801 17.8304 6.9601 17.4304L6.1201 16.3804L5.9001 16.1004C5.6601 15.8004 5.7101 15.3604 6.0101 15.1204C6.3101 14.8704 6.7501 14.9204 7.0001 15.2304L7.5001 15.8604L8.0601 16.5504C8.1401 16.6504 8.2301 16.6604 8.2901 16.6704C8.3401 16.6704 8.4401 16.6504 8.5201 16.5604L10.0101 14.8304L10.5501 14.1904C10.5501 14.1904 10.6201 14.1204 10.6701 14.0804C10.7501 14.0204 10.8401 13.9804 10.9401 13.9604C11.0601 13.9404 11.1901 13.9404 11.3101 13.9804C11.3101 13.9804 11.3201 13.9904 11.3301 13.9904C11.4001 14.0204 11.4801 14.0604 11.5401 14.1104C11.8301 14.3704 11.8701 14.8104 11.6201 15.1104Z" fill="white"/> <path d="M11.5401 10.55C11.4101 10.67 11.2401 10.72 11.0801 10.72C10.8801 10.72 10.6901 10.64 10.5501 10.48L10.0101 9.83995L8.5201 8.10995C8.4401 8.00995 8.3401 7.99995 8.2901 7.99995C8.2301 7.99995 8.1401 8.01995 8.0601 8.10995L7.5001 8.80995L7.0001 9.43995C6.7501 9.74995 6.3101 9.78995 6.0101 9.54995C5.7101 9.30995 5.6601 8.86995 5.9001 8.55995L6.1101 8.28995L6.9601 7.22995C7.2801 6.83995 7.7501 6.59995 8.2601 6.59995C8.7901 6.58995 9.2501 6.79995 9.5801 7.18995L11.3301 9.21995L11.6201 9.55995C11.8701 9.85995 11.8301 10.3 11.5401 10.55Z" fill="white"/> <path d="M17.9901 9.54961C17.6801 9.78961 17.2401 9.74961 17.0001 9.43961L16.5001 8.80961L15.9401 8.10961C15.8601 8.01961 15.7701 7.99961 15.7101 7.99961C15.6501 7.99961 15.5601 8.01961 15.4801 8.09961L13.9901 9.83961L13.4501 10.4796C13.3101 10.6396 13.1101 10.7196 12.9201 10.7196C12.8401 10.7196 12.7701 10.7096 12.7001 10.6896C12.6901 10.6796 12.6801 10.6796 12.6801 10.6796C12.6001 10.6496 12.5201 10.6096 12.4601 10.5496C12.1601 10.2996 12.1301 9.85961 12.3801 9.55961L12.6701 9.21961L14.4101 7.18961C14.7401 6.79961 15.1801 6.59961 15.7301 6.59961C16.2401 6.59961 16.7201 6.83961 17.0401 7.22961L17.8901 8.28961L18.1001 8.55961C18.3401 8.86961 18.2901 9.30961 17.9901 9.54961Z" fill="white"/> </g> <defs> <clipPath id="clip0_2085_393755"> <rect width="24" height="24" fill="white"/> </clipPath> </defs> </svg>
