<svg width="24" height="24" viewBox="0 0 24 24" fill="none" xmlns="http://www.w3.org/2000/svg"> <g clip-path="url(#clip0_4482_4682)"> <path d="M11.4102 9.95961L4.6901 6.96961C4.0701 6.69961 4.0701 5.81961 4.6901 5.53961L11.2101 2.63961C11.7101 2.41961 12.2902 2.41961 12.7902 2.63961L19.3501 5.54961C19.9701 5.81961 19.9701 6.69961 19.3501 6.97961L12.6202 9.94961C12.2402 10.1296 11.8002 10.1296 11.4102 9.95961Z" fill="white"/> <path d="M3.37 8.32039L10.23 11.3604C10.77 11.6004 11.12 12.1404 11.12 12.7304V20.5404C11.12 21.2504 10.39 21.7204 9.75 21.4304L2.89001 18.3804C2.35001 18.1404 2 17.6004 2 17.0104V9.21039C2 8.51039 2.73 8.03039 3.37 8.32039Z" fill="white"/> <path d="M21.9999 9.25045V17.0105C21.9999 17.6005 21.6499 18.1404 21.1099 18.3804L14.2499 21.4305C13.5999 21.7205 12.8799 21.2405 12.8799 20.5405V12.7504C12.8799 12.1604 13.2299 11.6204 13.7799 11.3804L20.6399 8.36045C21.2799 8.07045 21.9999 8.54045 21.9999 9.25045Z" fill="white"/> </g> <defs> <clipPath id="clip0_4482_4682"> <rect width="24" height="24" fill="white"/> </clipPath> </defs> </svg>
