<svg width="24" height="24" viewBox="0 0 24 24" fill="none" xmlns="http://www.w3.org/2000/svg"> <g clip-path="url(#clip0_4482_4369)"> <path d="M20.54 3.46C19.58 2.5 18.3 2 17.02 2C16.54 2 16.06 2.07 15.6 2.21C15.15 2.35 14.93 2.83 15.05 3.29L15.66 5.76C15.76 6.16 15.52 6.57 15.12 6.67C15.05 6.68 14.99 6.69 14.93 6.69C14.6 6.69 14.29 6.46 14.21 6.12L13.9 4.86C13.73 4.17 12.9 3.87 12.34 4.32C11.52 4.98 10.72 5.67 9.94 6.37C9.66 6.62 9.55002 7.01 9.65002 7.37L10.6 10.81C10.7 11.21 10.46 11.62 10.05 11.72C9.98999 11.74 9.93 11.74 9.87 11.74C9.54 11.74 9.23002 11.51 9.15002 11.17L8.76001 9.6C8.57001 8.85 7.63999 8.59 7.10999 9.15C6.33999 9.96 5.6 10.8 4.88 11.66C4.68 11.9 4.59999 12.23 4.67999 12.54L5.53003 15.87C5.63003 16.27 5.37998 16.68 4.97998 16.78C4.91998 16.8 4.85999 16.8 4.79999 16.8C4.45999 16.8 4.16001 16.58 4.07001 16.24L3.54999 14.15C3.47999 13.89 3.14999 13.81 2.98999 14.03C2.31999 14.92 1.98999 15.97 1.98999 17.01C1.98999 18.29 2.49001 19.57 3.45001 20.53C4.41001 21.49 5.68997 21.99 6.96997 21.99C8.00997 21.99 9.06001 21.66 9.95001 20.99C14.14 17.86 17.86 14.14 20.99 9.95C21.66 9.06 21.99 8.01 21.99 6.97C22 5.7 21.5 4.42 20.54 3.46Z" fill="white"/> </g> <defs> <clipPath id="clip0_4482_4369"> <rect width="24" height="24" fill="white"/> </clipPath> </defs> </svg>
