<svg width="24" height="24" viewBox="0 0 24 24" fill="none" xmlns="http://www.w3.org/2000/svg"> <g clip-path="url(#clip0_4482_8660)"> <path d="M7.28027 4.98C7.69027 4.98 8.03027 4.64 8.03027 4.23V3.12C8.03027 2.71 7.69027 2.37 7.28027 2.37C6.87027 2.37 6.53027 2.71 6.53027 3.12V4.23C6.53027 4.64 6.87027 4.98 7.28027 4.98Z" fill="white"/> <path d="M2.83984 9.42004H3.94984C4.35984 9.42004 4.69984 9.08004 4.69984 8.67004C4.69984 8.26004 4.35984 7.92004 3.94984 7.92004H2.83984C2.42984 7.92004 2.08984 8.26004 2.08984 8.67004C2.08984 9.08004 2.42984 9.42004 2.83984 9.42004Z" fill="white"/> <path d="M3.62047 5.87004C3.77047 6.02004 3.96047 6.09004 4.15047 6.09004C4.34047 6.09004 4.53047 6.02004 4.68047 5.87004C4.97047 5.58004 4.97047 5.10004 4.68047 4.81004L3.57047 3.70004C3.28047 3.41004 2.80047 3.41004 2.51047 3.70004C2.22047 3.99004 2.22047 4.47004 2.51047 4.76004L3.62047 5.87004Z" fill="white"/> <path d="M16.1602 19.02C15.7502 19.02 15.4102 19.36 15.4102 19.77V20.88C15.4102 21.29 15.7502 21.63 16.1602 21.63C16.5702 21.63 16.9102 21.29 16.9102 20.88V19.77C16.9102 19.36 16.5702 19.02 16.1602 19.02Z" fill="white"/> <path d="M20.6002 14.58H19.4902C19.0802 14.58 18.7402 14.92 18.7402 15.33C18.7402 15.74 19.0802 16.08 19.4902 16.08H20.6002C21.0102 16.08 21.3502 15.74 21.3502 15.33C21.3502 14.92 21.0102 14.58 20.6002 14.58Z" fill="white"/> <path d="M19.8205 18.13C19.5305 17.84 19.0505 17.84 18.7605 18.13C18.4705 18.42 18.4705 18.9 18.7605 19.19L19.8705 20.3C20.0205 20.45 20.2105 20.52 20.4005 20.52C20.5905 20.52 20.7805 20.45 20.9305 20.3C21.2205 20.01 21.2205 19.53 20.9305 19.24L19.8205 18.13Z" fill="white"/> <path d="M22.0002 7.97C22.0002 6.56 20.8502 5.41 19.4402 5.41H18.5902V4.56C18.5902 3.15 17.4402 2 16.0302 2C14.6202 2 13.4702 3.15 13.4702 4.56V6.55C13.4702 6.84 13.3502 7.13 13.1402 7.34L7.33023 13.15C7.12023 13.36 6.84023 13.48 6.54023 13.48H4.55023C3.14023 13.48 1.99023 14.63 1.99023 16.04C1.99023 17.45 3.14023 18.6 4.55023 18.6H5.40023V19.45C5.40023 20.86 6.55023 22.01 7.96023 22.01C9.37023 22.01 10.5202 20.86 10.5202 19.45V17.46C10.5202 17.17 10.6402 16.88 10.8502 16.67L16.6602 10.86C16.8702 10.65 17.1502 10.53 17.4502 10.53H19.4402C20.8502 10.53 22.0002 9.38 22.0002 7.97Z" fill="white"/> </g> <defs> <clipPath id="clip0_4482_8660"> <rect width="24" height="24" fill="white"/> </clipPath> </defs> </svg>
