<svg width="24" height="24" viewBox="0 0 24 24" fill="none" xmlns="http://www.w3.org/2000/svg"> <g clip-path="url(#clip0_4482_4534)"> <path d="M15 8.5H13.5V3.5C13.5 2.67 12.83 2 12 2C11.17 2 10.5 2.67 10.5 3.5V8.5H9C8.45 8.5 8 8.95 8 9.5V10.5C8 11.05 8.45 11.5 9 11.5H15C15.55 11.5 16 11.05 16 10.5V9.5C16 8.95 15.55 8.5 15 8.5Z" fill="white"/> <path d="M16.9499 19.48L15.4199 13.74C15.2999 13.3 14.9099 13 14.4499 13H9.54992C9.09992 13 8.69992 13.3 8.57992 13.74L7.04992 19.48C6.70992 20.75 7.66991 22 8.98991 22H8.99991C9.40991 22 9.74991 21.66 9.74991 21.25V20C9.74991 19.59 10.0899 19.25 10.4999 19.25C10.9099 19.25 11.2499 19.59 11.2499 20V21.25C11.2499 21.66 11.5899 22 11.9999 22C12.4099 22 12.7499 21.66 12.7499 21.25V20C12.7499 19.59 13.0899 19.25 13.4999 19.25C13.9099 19.25 14.2499 19.59 14.2499 20V21.25C14.2499 21.66 14.5899 22 14.9999 22H15.0099C16.3299 22 17.2899 20.75 16.9499 19.48Z" fill="white"/> <path d="M17.9999 6.75043C17.8099 6.75043 17.6199 6.68043 17.4699 6.53043C17.1799 6.24043 17.1799 5.76043 17.4699 5.47043L19.4699 3.47043C19.7599 3.18043 20.2399 3.18043 20.5299 3.47043C20.8199 3.76043 20.8199 4.24043 20.5299 4.53043L18.5299 6.53043C18.3799 6.68043 18.1899 6.75043 17.9999 6.75043Z" fill="white"/> <path d="M19.9999 6.75043C19.8099 6.75043 19.6199 6.68043 19.4699 6.53043L17.4699 4.53043C17.1799 4.24043 17.1799 3.76043 17.4699 3.47043C17.7599 3.18043 18.2399 3.18043 18.5299 3.47043L20.5299 5.47043C20.8199 5.76043 20.8199 6.24043 20.5299 6.53043C20.3799 6.68043 20.1899 6.75043 19.9999 6.75043Z" fill="white"/> <path d="M1.99994 15.7504C1.80994 15.7504 1.61994 15.6804 1.46994 15.5304C1.17994 15.2404 1.17994 14.7604 1.46994 14.4704L3.46994 12.4704C3.75994 12.1804 4.23994 12.1804 4.52994 12.4704C4.81994 12.7604 4.81994 13.2404 4.52994 13.5304L2.52994 15.5304C2.37994 15.6804 2.18994 15.7504 1.99994 15.7504Z" fill="white"/> <path d="M3.99994 15.7504C3.80994 15.7504 3.61994 15.6804 3.46994 15.5304L1.46994 13.5304C1.17994 13.2404 1.17994 12.7604 1.46994 12.4704C1.75994 12.1804 2.23994 12.1804 2.52994 12.4704L4.52994 14.4704C4.81994 14.7604 4.81994 15.2404 4.52994 15.5304C4.37994 15.6804 4.18994 15.7504 3.99994 15.7504Z" fill="white"/> </g> <defs> <clipPath id="clip0_4482_4534"> <rect width="24" height="24" fill="white"/> </clipPath> </defs> </svg>
