<svg width="24" height="24" viewBox="0 0 24 24" fill="none" xmlns="http://www.w3.org/2000/svg"> <g clip-path="url(#clip0_2085_389280)"> <path d="M13.8841 12.4798C13.8884 12.7213 14.183 12.8421 14.3524 12.6699L14.909 12.1041C15.0142 11.9971 15.1863 11.9964 15.2924 12.1025L16.149 12.9591C16.2544 13.0645 16.4254 13.0645 16.5308 12.9591L17.389 12.1009C17.4944 11.9955 17.6654 11.9955 17.7708 12.1009L18.629 12.9591C18.7344 13.0645 18.9054 13.0645 19.0108 12.9591L19.869 12.1009C19.9744 11.9955 20.1454 11.9955 20.2508 12.1009L20.839 12.6891C21.0091 12.8592 21.298 12.7389 21.2927 12.4985C21.1857 7.72495 19.8712 2.64 15.7399 2.64C14.3699 2.64 13.3699 3.12 12.6799 3.66V2.64C12.6799 2.28 12.3899 2 12.0399 2C11.6899 2 11.3999 2.29 11.3999 2.64V4.47H9.72991C9.43991 3.18 8.28991 2.21 6.90991 2.21C5.52991 2.21 4.08991 3.52 3.31991 4.38C2.93991 4.8 2.93991 5.42 3.31991 5.84C4.08991 6.7 5.49991 8.01 6.90991 8.01C8.31991 8.01 9.43991 7.04 9.72991 5.75H11.3999V7.58C11.3999 7.94 11.6899 8.22 12.0399 8.22C12.3899 8.22 12.6799 7.93 12.6799 7.58V6.16C13.255 7.12168 13.8213 8.9545 13.8841 12.4798Z" fill="white"/> <path d="M18.9731 14.0467C18.8668 14.1531 18.694 14.152 18.589 14.0444L17.7607 13.1956C17.6557 13.088 17.4829 13.0869 17.3766 13.1933L16.5208 14.0491C16.4153 14.1545 16.2444 14.1545 16.1389 14.0491L15.2808 13.1909C15.1753 13.0855 15.0044 13.0855 14.8989 13.1909L13.9289 14.1609C13.8783 14.2116 13.8497 14.2812 13.8504 14.3528C13.8868 18.3845 15.8696 20.7691 16.9199 21.75C17.2799 22.09 17.8299 22.09 18.1899 21.75C19.2401 20.7691 21.2229 18.3845 21.2593 14.3528C21.26 14.2812 21.2314 14.2116 21.1808 14.1609L20.2108 13.1909C20.1053 13.0855 19.9344 13.0855 19.8289 13.1909L18.9731 14.0467Z" fill="white"/> </g> <defs> <clipPath id="clip0_2085_389280"> <rect width="24" height="24" fill="white"/> </clipPath> </defs> </svg>
