<svg width="24" height="24" viewBox="0 0 24 24" fill="none" xmlns="http://www.w3.org/2000/svg"> <g clip-path="url(#clip0_2085_393100)"> <path d="M22 7.96973H2C1.59 7.96973 1.25 8.30973 1.25 8.71973V17.9997C1.25 20.6197 3.38 22.7497 6 22.7497H18C20.62 22.7497 22.75 20.6197 22.75 17.9997V8.71973C22.75 8.30973 22.41 7.96973 22 7.96973ZM21.25 17.9997C21.25 19.7897 19.79 21.2497 18 21.2497H6C5.74 21.2497 5.49 21.2197 5.25 21.1597C3.82 20.8297 2.75 19.5297 2.75 17.9997V9.46973H21.25V17.9997Z" fill="white"/> <path d="M15.8 11.1299C15.18 11.1299 14.57 11.3299 14.06 11.6799C13.55 11.3199 12.95 11.1299 12.32 11.1299C10.62 11.1299 9.25 12.5099 9.25 14.1999C9.25 17.1299 13.26 19.2699 13.72 19.5099C13.83 19.5599 13.94 19.5899 14.06 19.5899C14.18 19.5899 14.29 19.5599 14.4 19.5099C14.86 19.2699 18.87 17.1299 18.87 14.1999C18.87 12.5099 17.49 11.1299 15.8 11.1299ZM14.06 17.9899C12.89 17.3099 10.75 15.7499 10.75 14.1999C10.75 13.3299 11.45 12.6299 12.32 12.6299C12.76 12.6299 13.18 12.8199 13.5 13.1799C13.64 13.3399 13.84 13.4299 14.06 13.4299C14.28 13.4299 14.48 13.3399 14.62 13.1799C14.94 12.8199 15.35 12.6299 15.8 12.6299C16.66 12.6299 17.37 13.3299 17.37 14.1999C17.37 15.7499 15.23 17.3099 14.06 17.9899Z" fill="white"/> <path d="M17.37 14.1999C17.37 15.7499 15.23 17.3099 14.06 17.9899C12.89 17.3099 10.75 15.7499 10.75 14.1999C10.75 13.3299 11.45 12.6299 12.32 12.6299C12.76 12.6299 13.18 12.8199 13.5 13.1799C13.64 13.3399 13.84 13.4299 14.06 13.4299C14.28 13.4299 14.48 13.3399 14.62 13.1799C14.94 12.8199 15.35 12.6299 15.8 12.6299C16.66 12.6299 17.37 13.3299 17.37 14.1999Z" fill="white"/> <path d="M18 2.99023H6C3.38 2.99023 1.25 5.12023 1.25 7.74023V8.72023C1.25 9.13023 1.59 9.47023 2 9.47023H22C22.41 9.47023 22.75 9.13023 22.75 8.72023V7.74023C22.75 5.12023 20.62 2.99023 18 2.99023ZM2.75 7.97023V7.74023C2.75 6.21023 3.82 4.91023 5.25 4.58023C5.49 4.52023 5.74 4.49023 6 4.49023H18C19.79 4.49023 21.25 5.95023 21.25 7.74023V7.97023H2.75Z" fill="white"/> <path d="M5.25 4.58008V7.97008H2.75V7.74008C2.75 6.21008 3.82 4.91008 5.25 4.58008Z" fill="white"/> <path d="M18 6.98047H16C15.59 6.98047 15.25 6.64047 15.25 6.23047C15.25 5.82047 15.59 5.48047 16 5.48047H18C18.41 5.48047 18.75 5.82047 18.75 6.23047C18.75 6.64047 18.41 6.98047 18 6.98047Z" fill="white"/> <path d="M17 6.98C16.59 6.98 16.25 6.64 16.25 6.23V2C16.25 1.59 16.59 1.25 17 1.25C17.41 1.25 17.75 1.59 17.75 2V6.23C17.75 6.64 17.41 6.98 17 6.98Z" fill="white"/> <path d="M12 6.98047H10C9.59 6.98047 9.25 6.64047 9.25 6.23047C9.25 5.82047 9.59 5.48047 10 5.48047H12C12.41 5.48047 12.75 5.82047 12.75 6.23047C12.75 6.64047 12.41 6.98047 12 6.98047Z" fill="white"/> <path d="M11 6.98C10.59 6.98 10.25 6.64 10.25 6.23V2C10.25 1.59 10.59 1.25 11 1.25C11.41 1.25 11.75 1.59 11.75 2V6.23C11.75 6.64 11.41 6.98 11 6.98Z" fill="white"/> <path d="M6.75 4V22C6.75 22.41 6.41 22.75 6 22.75C5.59 22.75 5.25 22.41 5.25 22V4C5.25 3.59 5.59 3.25 6 3.25C6.41 3.25 6.75 3.59 6.75 4Z" fill="white"/> </g> <defs> <clipPath id="clip0_2085_393100"> <rect width="24" height="24" fill="white"/> </clipPath> </defs> </svg>
