<svg width="24" height="24" viewBox="0 0 24 24" fill="none" xmlns="http://www.w3.org/2000/svg"> <g clip-path="url(#clip0_4482_4492)"> <path d="M14.92 19.7598C12.88 20.0998 10.7701 18.8998 10.1501 16.5998C10.0901 16.3598 10.0701 16.1198 10.0701 15.8698V8.11976C10.0701 7.87976 10.0901 7.62976 10.1501 7.38976C10.7701 5.08976 12.88 3.88976 14.92 4.22976C18.71 4.85976 21.5001 8.14977 21.5001 11.9898C21.5001 15.8498 18.72 19.1298 14.92 19.7598Z" fill="white"/> <path d="M6.5 7.99023H2.5C2.09 7.99023 1.75 7.65023 1.75 7.24023C1.75 6.83023 2.09 6.49023 2.5 6.49023H6.5C6.91 6.49023 7.25 6.83023 7.25 7.24023C7.25 7.65023 6.91 7.99023 6.5 7.99023Z" fill="white"/> <path d="M6.5 12.75H2.5C2.09 12.75 1.75 12.41 1.75 12C1.75 11.59 2.09 11.25 2.5 11.25H6.5C6.91 11.25 7.25 11.59 7.25 12C7.25 12.41 6.91 12.75 6.5 12.75Z" fill="white"/> <path d="M6.5 17.5098H2.5C2.09 17.5098 1.75 17.1698 1.75 16.7598C1.75 16.3498 2.09 16.0098 2.5 16.0098H6.5C6.91 16.0098 7.25 16.3498 7.25 16.7598C7.25 17.1698 6.91 17.5098 6.5 17.5098Z" fill="white"/> </g> <defs> <clipPath id="clip0_4482_4492"> <rect width="24" height="24" fill="white"/> </clipPath> </defs> </svg>
