<svg width="24" height="24" viewBox="0 0 24 24" fill="none" xmlns="http://www.w3.org/2000/svg"> <g clip-path="url(#clip0_4482_13099)"> <path d="M6 12.5801V14.5001C6 15.6101 6.9 16.5001 8 16.5001H14C15.1 16.5001 16 15.6001 16 14.5001V12.5801H6Z" fill="white"/> <path d="M16 11.08V10.5C16 9.39 15.1 8.5 14 8.5H8C6.89 8.5 6 9.4 6 10.5V11.08H16Z" fill="white"/> <path d="M18.75 9C18.75 7.2 20.21 5.75 22 5.75C20.2 5.75 18.75 4.29 18.75 2.5C18.75 4.3 17.29 5.75 15.5 5.75C17.3 5.75 18.75 7.21 18.75 9Z" fill="white"/> <path d="M20 12.5V16.5C20 19.26 17.76 21.5 15 21.5H7C4.24 21.5 2 19.26 2 16.5V8.5C2 5.74 4.24 3.5 7 3.5H13" stroke="white" stroke-width="1.5" stroke-linecap="round" stroke-linejoin="round"/> </g> <defs> <clipPath id="clip0_4482_13099"> <rect width="24" height="24" fill="white"/> </clipPath> </defs> </svg>
