<svg width="24" height="24" viewBox="0 0 24 24" fill="none" xmlns="http://www.w3.org/2000/svg"> <g clip-path="url(#clip0_2085_384478)"> <path d="M22.0001 15.42C22.0001 16.08 21.6301 16.68 21.0201 16.96C18.9701 17.91 14.1501 20 11.5401 20C10.6601 20 9.80007 19.76 9.05007 19.32L6.89007 18.05C6.39007 17.75 5.58007 17.59 5.00007 17.57H4.82007C4.93007 17.41 5.00007 17.21 5.00007 17V12H7.73007C8.71007 12 9.67007 12.28 10.5001 12.8C11.3301 13.32 12.2901 13.6 13.2701 13.6H14.5501C14.8001 13.6 15.0401 13.67 15.2501 13.79C15.6177 13.9867 15.8903 14.3441 15.9742 14.7749C15.9958 14.8862 16.1076 14.9641 16.2152 14.9283L16.7501 14.75L19.7101 13.76C20.8301 13.39 22.0001 14.23 22.0001 15.42Z" fill="white"/> <path d="M20.88 7.17999L20.83 7.32999C20.69 7.77999 20.44 8.18999 20.12 8.51999L19.48 9.17999L17.57 10.79C17.24 11.07 16.76 11.07 16.43 10.79L14.52 9.17999L13.88 8.51999C13.56 8.18999 13.31 7.77999 13.17 7.32999L13.12 7.17999C13 6.80999 12.97 6.40999 13.03 6.02999L13.06 5.85999C13.24 4.70999 14.26 3.89999 15.38 4.00999C15.7 4.03999 16.02 4.13999 16.29 4.31999L16.87 4.66999C16.95 4.71999 17.05 4.71999 17.13 4.66999L17.71 4.31999C17.98 4.13999 18.3 4.03999 18.62 4.00999C19.74 3.89999 20.76 4.70999 20.94 5.85999L20.97 6.02999C21.03 6.40999 21 6.80999 20.88 7.17999Z" fill="white"/> <path d="M5 12V17C5 17.21 4.93 17.41 4.82 17.57C4.64 17.83 4.34 18 4 18H3C2.45 18 2 17.55 2 17V12C2 11.45 2.45 11 3 11H4C4.55 11 5 11.45 5 12Z" fill="white"/> </g> <defs> <clipPath id="clip0_2085_384478"> <rect width="24" height="24" fill="white"/> </clipPath> </defs> </svg>
