<svg width="24" height="24" viewBox="0 0 24 24" fill="none" xmlns="http://www.w3.org/2000/svg"> <g clip-path="url(#clip0_4482_8182)"> <path d="M15.1906 15.77C13.7906 17.17 13.7906 19.44 15.1906 20.84C16.5906 22.24 18.8606 22.24 20.2606 20.84C21.6606 19.44 21.6606 17.17 20.2606 15.77C18.8606 14.37 16.5906 14.37 15.1906 15.77Z" fill="white"/> <path d="M16.8868 2.34914L13.7897 5.44626C13.325 5.91099 13.325 6.66445 13.7897 7.12918L16.8868 10.2263C17.3516 10.691 18.105 10.691 18.5697 10.2263L21.6669 7.12918C22.1316 6.66445 22.1316 5.91099 21.6669 5.44626L18.5697 2.34913C18.105 1.88441 17.3516 1.88441 16.8868 2.34914Z" fill="white"/> <path d="M3.60992 2.8999H7.96992C8.62992 2.8999 9.15992 3.4399 9.15992 4.0899V8.4599C9.15992 9.1199 8.61992 9.6499 7.96992 9.6499H3.60992C2.94992 9.6499 2.41992 9.1099 2.41992 8.4599V4.0999C2.41992 3.4399 2.95992 2.9099 3.60992 2.9099V2.8999Z" fill="white"/> <path d="M6.86034 15.66C6.37034 14.87 5.22034 14.87 4.72034 15.66L2.07034 19.9C1.55034 20.74 2.15034 21.83 3.14034 21.83H8.43034C9.42034 21.83 10.0203 20.74 9.50034 19.9L6.85034 15.66H6.86034Z" fill="white"/> </g> <defs> <clipPath id="clip0_4482_8182"> <rect width="24" height="24" fill="white"/> </clipPath> </defs> </svg>
