<svg width="24" height="24" viewBox="0 0 24 24" fill="none" xmlns="http://www.w3.org/2000/svg"> <g clip-path="url(#clip0_4482_8091)"> <path d="M21.0202 6.58L17.4202 2.98C16.7902 2.35 15.9502 2 15.0602 2H8.93023C8.05023 2 7.20023 2.35 6.57023 2.98L2.97023 6.58C2.34023 7.21 1.99023 8.05 1.99023 8.94V15.07C1.99023 15.95 2.34023 16.8 2.97023 17.43L6.57023 21.03C7.20023 21.66 8.04024 22.01 8.93023 22.01H15.0602C15.9402 22.01 16.7902 21.66 17.4202 21.03L21.0202 17.42C21.6502 16.79 22.0002 15.95 22.0002 15.06V8.94C22.0002 8.06 21.6502 7.21 21.0202 6.58ZM8.66023 13.92H10.5902C11.0002 13.92 11.3402 14.26 11.3402 14.67C11.3402 15.08 11.0002 15.42 10.5902 15.42H8.66023C7.63023 15.42 6.80023 14.59 6.80023 13.56V10.45C6.80023 9.42 7.63023 8.59 8.66023 8.59H10.5902C11.0002 8.59 11.3402 8.93 11.3402 9.34C11.3402 9.75 11.0002 10.09 10.5902 10.09H8.66023C8.46023 10.09 8.30023 10.25 8.30023 10.45V13.56C8.30023 13.76 8.46023 13.92 8.66023 13.92ZM14.5002 13.92H16.4302C16.8402 13.92 17.1802 14.26 17.1802 14.67C17.1802 15.08 16.8402 15.42 16.4302 15.42H14.5002C13.4702 15.42 12.6402 14.59 12.6402 13.56V10.45C12.6402 9.42 13.4802 8.59 14.5002 8.59H16.4302C16.8402 8.59 17.1802 8.93 17.1802 9.34C17.1802 9.75 16.8402 10.09 16.4302 10.09H14.5002C14.3002 10.09 14.1402 10.25 14.1402 10.45V13.56C14.1402 13.76 14.3002 13.92 14.5002 13.92Z" fill="white"/> </g> <defs> <clipPath id="clip0_4482_8091"> <rect width="24" height="24" fill="white"/> </clipPath> </defs> </svg>
