<svg width="24" height="24" viewBox="0 0 24 24" fill="none" xmlns="http://www.w3.org/2000/svg"> <g clip-path="url(#clip0_2085_388392)"> <path d="M21.9999 12.94C21.8099 12.94 21.6199 12.87 21.4699 12.72C20.2999 11.56 18.3399 11.37 16.9699 12.28C16.6299 12.51 16.1599 12.42 15.9299 12.07C15.6999 11.72 15.7899 11.26 16.1399 11.03C18.0799 9.74005 20.8799 10.01 22.5299 11.66C22.8199 11.95 22.8199 12.43 22.5299 12.72C22.3799 12.87 22.1899 12.94 21.9999 12.94Z" fill="white"/> <path d="M12.15 8.4902C11.99 8.4902 11.81 8.4202 11.68 8.3102C11.35 8.0502 11.3 7.5802 11.56 7.2602C11.76 7.0002 11.93 6.7202 12.05 6.4202C12.23 5.9802 12.32 5.5302 12.32 5.0602C12.32 4.5902 12.23 4.1302 12.05 3.7002C11.87 3.2602 11.61 2.8802 11.28 2.5402C10.99 2.2502 10.99 1.7702 11.28 1.4802C11.57 1.1902 12.05 1.1902 12.34 1.4802C12.81 1.9502 13.18 2.5102 13.44 3.1202C13.7 3.7402 13.83 4.3902 13.83 5.0602C13.83 5.7302 13.7 6.3802 13.44 7.0002C13.26 7.4302 13.03 7.8302 12.74 8.2002C12.59 8.3902 12.37 8.4902 12.15 8.4902Z" fill="white"/> <path d="M17.28 9.49016C16.97 9.49016 16.67 9.29016 16.57 8.98016C16.44 8.59016 16.65 8.16016 17.04 8.03016L20.09 7.01016C20.48 6.88016 20.91 7.09016 21.04 7.48016C21.17 7.87016 20.96 8.30016 20.57 8.43016L17.52 9.45016C17.44 9.48016 17.36 9.49016 17.28 9.49016Z" fill="white"/> <path d="M15.2499 7.46006C15.1699 7.46006 15.0899 7.45007 15.0099 7.42006C14.6199 7.29006 14.4099 6.86006 14.5399 6.47006L15.5599 3.42007C15.6899 3.03007 16.1199 2.81007 16.5099 2.95007C16.8999 3.08007 17.1099 3.51007 16.9799 3.90007L15.9599 6.95006C15.8599 7.26006 15.5599 7.46006 15.2499 7.46006Z" fill="white"/> <path d="M8.70999 6.67996C8.44999 6.67996 8.21999 6.54996 8.07999 6.33996C7.86999 6.20996 7.73999 5.96996 7.73999 5.70996C7.73999 5.29996 8.07999 4.95996 8.48999 4.95996C8.73999 4.95996 8.98999 5.05996 9.16999 5.23996C9.35999 5.42996 9.45999 5.67996 9.45999 5.92996C9.45999 6.33996 9.11999 6.67996 8.70999 6.67996Z" fill="white"/> <path d="M8.27002 6.67996C7.86002 6.67996 7.52002 6.33996 7.52002 5.92996C7.52002 5.66996 7.62002 5.41996 7.81002 5.23996C8.00002 5.05996 8.24002 4.95996 8.49002 4.95996C8.90002 4.95996 9.24002 5.29996 9.24002 5.70996C9.24002 5.96996 9.10002 6.19996 8.90002 6.33996C8.77002 6.53996 8.53002 6.67996 8.27002 6.67996Z" fill="white"/> <path d="M8.50003 6.90994C8.25003 6.90994 7.99003 6.79994 7.81003 6.61994C7.63003 6.43994 7.53003 6.18994 7.53003 5.93994C7.53003 5.52994 7.87003 5.18994 8.28003 5.18994C8.54003 5.18994 8.77003 5.32994 8.91003 5.52994C9.11003 5.65994 9.25003 5.89994 9.25003 6.15994C9.25003 6.56994 8.91003 6.90994 8.50003 6.90994Z" fill="white"/> <path d="M8.48999 6.90018C8.07999 6.90018 7.73999 6.56018 7.73999 6.15018C7.73999 5.89018 7.87999 5.66018 8.07999 5.52018C8.20999 5.32018 8.44999 5.18018 8.70999 5.18018C9.11999 5.18018 9.45999 5.52018 9.45999 5.93018C9.45999 6.19018 9.35999 6.43018 9.17999 6.61018C8.98999 6.80018 8.74999 6.90018 8.48999 6.90018Z" fill="white"/> <path d="M15.23 9.28982C14.97 9.28982 14.74 9.14982 14.6 8.94982C14.4 8.81982 14.26 8.57982 14.26 8.31982C14.26 7.90982 14.6 7.56982 15.01 7.56982C15.26 7.56982 15.5 7.66982 15.69 7.84982C15.88 8.03982 15.98 8.28982 15.98 8.53982C15.98 8.94982 15.64 9.28982 15.23 9.28982Z" fill="white"/> <path d="M14.8 9.29008C14.39 9.29008 14.05 8.95008 14.05 8.54008C14.05 8.29008 14.15 8.04008 14.33 7.86008C14.51 7.68008 14.76 7.58008 15.01 7.58008C15.42 7.58008 15.76 7.92008 15.76 8.33008C15.76 8.59008 15.62 8.82008 15.42 8.96008C15.29 9.16008 15.05 9.30008 14.79 9.30008L14.8 9.29008Z" fill="white"/> <path d="M15.01 9.5098C14.76 9.5098 14.51 9.4098 14.33 9.2298C14.15 9.0498 14.05 8.7998 14.05 8.5498C14.05 8.1398 14.39 7.7998 14.8 7.7998C15.06 7.7998 15.29 7.9398 15.43 8.1398C15.63 8.2698 15.77 8.5098 15.77 8.7698C15.77 9.1798 15.42 9.5098 15.01 9.5098Z" fill="white"/> <path d="M15.01 9.51004C14.6 9.51004 14.26 9.17004 14.26 8.76004C14.26 8.50004 14.39 8.27004 14.6 8.13004C14.73 7.92004 14.97 7.79004 15.23 7.79004C15.64 7.79004 15.98 8.13004 15.98 8.54004C15.98 8.80004 15.88 9.04004 15.7 9.22004C15.52 9.40004 15.27 9.50004 15.02 9.50004L15.01 9.51004Z" fill="white"/> <path d="M18.71 14.51C18.45 14.51 18.22 14.38 18.08 14.17C17.88 14.04 17.74 13.8 17.74 13.54C17.74 13.13 18.08 12.79 18.49 12.79C18.74 12.79 18.99 12.89 19.17 13.07C19.36 13.26 19.46 13.5 19.46 13.76C19.46 14.17 19.12 14.51 18.71 14.51Z" fill="white"/> <path d="M18.27 14.5098C17.86 14.5098 17.52 14.1698 17.52 13.7598C17.52 13.4998 17.62 13.2598 17.8 13.0798C17.99 12.8898 18.23 12.7998 18.48 12.7998C18.89 12.7998 19.23 13.1398 19.23 13.5498C19.23 13.8098 19.09 14.0398 18.89 14.1798C18.76 14.3798 18.52 14.5198 18.26 14.5198L18.27 14.5098Z" fill="white"/> <path d="M18.49 14.7198C18.24 14.7198 17.99 14.6198 17.81 14.4398C17.63 14.2598 17.53 14.0098 17.53 13.7598C17.53 13.3498 17.87 13.0098 18.28 13.0098C18.54 13.0098 18.77 13.1498 18.91 13.3498C19.11 13.4798 19.25 13.7098 19.25 13.9798C19.25 14.3898 18.9 14.7198 18.49 14.7198Z" fill="white"/> <path d="M18.49 14.72C18.08 14.72 17.74 14.38 17.74 13.97C17.74 13.71 17.87 13.48 18.08 13.34C18.21 13.13 18.45 13 18.71 13C19.12 13 19.46 13.34 19.46 13.75C19.46 14.01 19.36 14.25 19.18 14.43C19 14.61 18.75 14.71 18.5 14.71L18.49 14.72Z" fill="white"/> <path d="M19.1399 5.80984C18.8799 5.80984 18.6499 5.66984 18.5099 5.46984C18.3099 5.33984 18.1699 5.09984 18.1699 4.83984C18.1699 4.42984 18.5099 4.08984 18.9199 4.08984C19.1699 4.08984 19.4199 4.18984 19.5999 4.36984C19.7799 4.54984 19.8799 4.79984 19.8799 5.04984C19.8799 5.45984 19.5399 5.79984 19.1299 5.79984L19.1399 5.80984Z" fill="white"/> <path d="M18.71 5.8101C18.3 5.8101 17.96 5.4701 17.96 5.0601C17.96 4.8001 18.06 4.5601 18.24 4.3801C18.42 4.2001 18.67 4.1001 18.92 4.1001C19.33 4.1001 19.67 4.4401 19.67 4.8501C19.67 5.1101 19.53 5.3401 19.33 5.4801C19.2 5.6801 18.96 5.8201 18.7 5.8201L18.71 5.8101Z" fill="white"/> <path d="M18.93 6.02982C18.67 6.02982 18.43 5.92982 18.25 5.74982C18.07 5.56982 17.97 5.31982 17.97 5.06982C17.97 4.65982 18.31 4.31982 18.72 4.31982C18.98 4.31982 19.21 4.44982 19.35 4.65982C19.56 4.78982 19.69 5.02982 19.69 5.28982C19.69 5.69982 19.34 6.02982 18.93 6.02982Z" fill="white"/> <path d="M18.9299 6.03006C18.5199 6.03006 18.1799 5.69006 18.1799 5.28006C18.1799 5.02006 18.3199 4.79006 18.5199 4.65006C18.6499 4.45006 18.8899 4.31006 19.1499 4.31006C19.5599 4.31006 19.8999 4.65006 19.8999 5.06006C19.8999 5.32006 19.7999 5.56006 19.6199 5.74006C19.4399 5.92006 19.1899 6.02006 18.9399 6.02006L18.9299 6.03006Z" fill="white"/> <path d="M15.09 13.77C14.91 13.3 14.65 12.81 14.31 12.32C13.97 11.82 13.56 11.34 13.1 10.9C12.66 10.44 12.17 10.04 11.68 9.69001C11.19 9.35001 10.7 9.08001 10.23 8.91001C9.77003 8.73001 9.35003 8.65001 8.98003 8.66001C8.62003 8.68001 8.33003 8.79001 8.13003 8.99001C7.96003 9.16001 7.86003 9.38001 7.81003 9.65001L2.14004 20.27C2.02004 20.5 1.98003 20.75 2.01003 21C2.05003 21.25 2.17003 21.48 2.34003 21.66C2.52003 21.83 2.75003 21.95 3.00003 21.99C3.25003 22.02 3.50003 21.98 3.73003 21.86L14.35 16.18C14.61 16.14 14.83 16.04 15 15.87C15.2 15.67 15.31 15.38 15.33 15.02C15.34 14.65 15.26 14.23 15.08 13.77H15.09Z" fill="white"/> </g> <defs> <clipPath id="clip0_2085_388392"> <rect width="24" height="24" fill="white"/> </clipPath> </defs> </svg>
