<svg width="24" height="24" viewBox="0 0 24 24" fill="none" xmlns="http://www.w3.org/2000/svg"> <g clip-path="url(#clip0_4482_1494)"> <path d="M15.5 2H8.5C6.02 2 4 4.03 4 6.5V16.5C4 18.98 6.03 21 8.5 21H14C13.37 20.17 13 19.13 13 18C13 15.24 15.24 13 18 13C18.71 13 19.39 13.15 20 13.41V6.5C20 4.02 17.97 2 15.5 2ZM14 6.75H10C9.59 6.75 9.25 6.41 9.25 6C9.25 5.59 9.59 5.25 10 5.25H14C14.41 5.25 14.75 5.59 14.75 6C14.75 6.41 14.41 6.75 14 6.75Z" fill="white"/> <path d="M18 23.75C16.2 23.75 14.48 22.89 13.4 21.45C12.65 20.46 12.25 19.26 12.25 18C12.25 14.83 14.83 12.25 18 12.25C18.79 12.25 19.56 12.41 20.29 12.72C22.39 13.65 23.75 15.72 23.75 18C23.75 21.17 21.17 23.75 18 23.75ZM18 13.75C15.66 13.75 13.75 15.66 13.75 18C13.75 18.94 14.04 19.82 14.6 20.55C15.4 21.62 16.67 22.25 18 22.25C20.34 22.25 22.25 20.34 22.25 18C22.25 16.32 21.25 14.78 19.7 14.1C19.16 13.87 18.59 13.75 18 13.75Z" fill="white"/> <path d="M17.4999 20.7499C17.3099 20.7499 17.1199 20.6799 16.9699 20.5299C16.6799 20.2399 16.6799 19.7599 16.9699 19.4699L17.7299 18.7099L16.6599 18.1799C16.4399 18.0699 16.2899 17.8699 16.2599 17.6299C16.2299 17.3899 16.2999 17.15 16.4699 16.98L17.9699 15.48C18.2599 15.19 18.7399 15.19 19.0299 15.48C19.3199 15.77 19.3199 16.2499 19.0299 16.5399L18.2699 17.3L19.3399 17.8299C19.5599 17.9399 19.7099 18.1399 19.7399 18.3799C19.7699 18.6199 19.6999 18.8599 19.5299 19.0299L18.0299 20.5299C17.8799 20.6799 17.6899 20.7499 17.4999 20.7499Z" fill="white"/> </g> <defs> <clipPath id="clip0_4482_1494"> <rect width="24" height="24" fill="white"/> </clipPath> </defs> </svg>
