<svg width="24" height="24" viewBox="0 0 24 24" fill="none" xmlns="http://www.w3.org/2000/svg"> <path d="M7.02973 11.4697C7.32262 11.1768 7.79738 11.1768 8.09028 11.4697L13.6498 17.0292C13.9427 17.3221 13.9427 17.7969 13.6498 18.0898C13.357 18.3827 12.8822 18.3827 12.5893 18.0898L7.02973 12.5302C6.73684 12.2373 6.73684 11.7626 7.02973 11.4697Z" fill="white"/> <path d="M17.0297 5.90912C17.3226 5.61623 17.7974 5.61623 18.0903 5.90912C18.3832 6.20202 18.3832 6.67678 18.0903 6.96967L13.0903 11.9697C12.7974 12.2626 12.3226 12.2626 12.0297 11.9697C11.7368 11.6768 11.7368 11.202 12.0297 10.9091L17.0297 5.90912Z" fill="white"/> <path d="M1.46967 11.4697C1.76256 11.1768 2.23732 11.1768 2.53022 11.4697L8.08979 17.0292C8.38268 17.3221 8.38268 17.7969 8.08979 18.0898C7.79689 18.3827 7.32213 18.3827 7.02924 18.0898L1.46967 12.5302C1.17678 12.2373 1.17678 11.7626 1.46967 11.4697Z" fill="white"/> <path d="M21.4694 8.13948C21.7622 7.84666 22.237 7.84681 22.5299 8.13948C22.8228 8.43238 22.8228 8.90714 22.5299 9.20003L13.6403 18.0897C13.3474 18.3826 12.8726 18.3826 12.5797 18.0897L5.90979 11.4198C5.61703 11.1269 5.61694 10.6521 5.90979 10.3592C6.20265 10.0665 6.67748 10.0665 6.97033 10.3592L13.11 16.4989L21.4694 8.13948Z" fill="white"/> </svg>
