<svg width="24" height="24" viewBox="0 0 24 24" fill="none" xmlns="http://www.w3.org/2000/svg"> <g clip-path="url(#clip0_4482_1309)"> <path d="M12 2C6.5 2 2 6.5 2 12C2 17.5 6.5 22 12 22C17.5 22 22 17.5 22 12C22 6.5 17.5 2 12 2ZM8.63989 16.28C8.08989 16.28 7.62012 15.83 7.62012 15.28C7.62012 14.73 8.05011 14.28 8.61011 14.28H8.63989C9.18989 14.28 9.63989 14.73 9.63989 15.28C9.63989 15.83 9.18989 16.28 8.63989 16.28ZM12.72 16.33C12.71 16.33 12.71 16.33 12.7 16.33C12.29 16.33 11.96 16.01 11.95 15.6C11.9 13.51 10.5099 12.12 8.40991 12.06C7.99991 12.05 7.66993 11.7 7.67993 11.29C7.68993 10.88 8.01995 10.54 8.44995 10.56C11.37 10.64 13.37 12.65 13.45 15.56C13.47 15.98 13.14 16.32 12.72 16.33ZM16.77 16.51C16.35 16.51 16.02 16.18 16.01 15.77C16 14.8 15.84 13.88 15.53 13.02C14.76 10.86 13.15 9.24 10.99 8.48C10.16 8.18 9.22998 8.02 8.22998 8C7.80998 7.99 7.47999 7.65 7.48999 7.24C7.48999 6.83 7.82 6.46 8.25 6.5C9.43 6.52 10.52 6.71 11.5 7.07C14.09 7.99 16.0199 9.92 16.9399 12.52C17.3099 13.54 17.5 14.63 17.51 15.77C17.52 16.17 17.19 16.51 16.77 16.51Z" fill="white"/> </g> <defs> <clipPath id="clip0_4482_1309"> <rect width="24" height="24" fill="white"/> </clipPath> </defs> </svg>
