<svg width="24" height="24" viewBox="0 0 24 24" fill="none" xmlns="http://www.w3.org/2000/svg"> <g clip-path="url(#clip0_4418_8493)"> <path d="M14.35 2H9.65001C8.61001 2 7.76001 2.84 7.76001 3.88V4.82C7.76001 5.86 8.60001 6.7 9.64001 6.7H14.35C15.39 6.7 16.23 5.86 16.23 4.82V3.88C16.24 2.84 15.39 2 14.35 2Z" fill="white"/> <path d="M17.24 4.81949C17.24 6.40949 15.94 7.70949 14.35 7.70949H9.65004C8.06004 7.70949 6.76004 6.40949 6.76004 4.81949C6.76004 4.25949 6.16004 3.90949 5.66004 4.16949C4.25004 4.91949 3.29004 6.40949 3.29004 8.11949V17.5295C3.29004 19.9895 5.30004 21.9995 7.76004 21.9995H16.24C18.7 21.9995 20.71 19.9895 20.71 17.5295V8.11949C20.71 6.40949 19.75 4.91949 18.34 4.16949C17.84 3.90949 17.24 4.25949 17.24 4.81949ZM14.53 16.6895C14.38 16.8395 14.19 16.9095 14 16.9095C13.81 16.9095 13.62 16.8395 13.47 16.6895L12.02 15.2395L10.53 16.7295C10.38 16.8795 10.19 16.9495 10 16.9495C9.81004 16.9495 9.62004 16.8795 9.47004 16.7295C9.18004 16.4395 9.18004 15.9595 9.47004 15.6695L10.96 14.1795L9.51004 12.7295C9.22004 12.4395 9.22004 11.9595 9.51004 11.6695C9.80004 11.3795 10.28 11.3795 10.57 11.6695L12.02 13.1195L13.42 11.7195C13.71 11.4295 14.19 11.4295 14.48 11.7195C14.77 12.0095 14.77 12.4895 14.48 12.7795L13.08 14.1795L14.53 15.6295C14.82 15.9195 14.82 16.3895 14.53 16.6895Z" fill="white"/> </g> <defs> <clipPath id="clip0_4418_8493"> <rect width="24" height="24" fill="white"/> </clipPath> </defs> </svg>
