<svg width="24" height="24" viewBox="0 0 24 24" fill="none" xmlns="http://www.w3.org/2000/svg"> <g clip-path="url(#clip0_4482_9441)"> <path d="M6.15039 3.32007C3.94039 3.32007 2.15039 5.11007 2.15039 7.32007V17.3201C2.15039 19.5301 3.94039 21.3201 6.15039 21.3201H11.4004V3.32007H6.15039Z" fill="white"/> <path d="M12.9004 21.3201H18.1504C20.3604 21.3201 22.1504 19.5301 22.1504 17.3201V15.0701H12.9004V21.3201ZM16.1504 16.5701H18.1504C18.5604 16.5701 18.9004 16.9101 18.9004 17.3201C18.9004 17.7301 18.5604 18.0701 18.1504 18.0701H16.1504C15.7404 18.0701 15.4004 17.7301 15.4004 17.3201C15.4004 16.9101 15.7404 16.5701 16.1504 16.5701Z" fill="white"/> <path d="M22.1504 9.57007H12.9004V13.5701H22.1504V9.57007Z" fill="white"/> <path d="M18.1504 3.32007H12.9004V8.07007H22.1504V7.32007C22.1504 5.11007 20.3604 3.32007 18.1504 3.32007Z" fill="white"/> </g> <defs> <clipPath id="clip0_4482_9441"> <rect width="24" height="24" fill="white"/> </clipPath> </defs> </svg>
