<svg width="24" height="24" viewBox="0 0 24 24" fill="none" xmlns="http://www.w3.org/2000/svg"> <g clip-path="url(#clip0_3111_12980)"> <path d="M22.11 12.02C21.33 10.66 19.87 9.81999 18.29 9.81999C18.29 6.69999 16.01 4.04999 12.93 3.58999C9.85002 3.13999 6.89002 5.00999 6.00002 7.99999C3.19002 8.32999 1.13002 10.8 1.31002 13.62C1.48002 16.44 3.83002 18.64 6.65002 18.63H7.73002C7.60002 18.42 7.51002 18.18 7.51002 17.92C7.51002 17.31 7.89002 16.81 8.49002 16.64L9.45002 16.39C9.96002 16.24 10.33 15.87 10.47 15.37L10.73 14.42L10.79 14.25C10.98 13.75 11.46 13.42 12.01 13.42C12.5927 13.42 13.0754 13.8114 13.24 14.36L13.52 15.38C13.65 15.88 14.04 16.26 14.53 16.4L15.5 16.66L15.69 16.73C16.19 16.94 16.49 17.41 16.49 17.96C16.49 18.2042 16.413 18.4245 16.28 18.63H18.29C19.86 18.63 21.31 17.79 22.11 16.43C22.9 15.07 22.89 13.38 22.11 12.02Z" fill="white"/> <path d="M15.51 17.93C15.51 18 15.47 18.16 15.28 18.22L14.3 18.49C13.45 18.72 12.81 19.36 12.58 20.21L12.32 21.17C12.26 21.39 12.09 21.41 12.01 21.41C11.93 21.41 11.76 21.39 11.7 21.17L11.44 20.2C11.21 19.36 10.56 18.72 9.72002 18.49L8.75002 18.23C8.54002 18.17 8.52002 17.99 8.52002 17.92C8.52002 17.84 8.54002 17.66 8.75002 17.6L9.73002 17.34C10.57 17.1 11.21 16.46 11.44 15.62L11.7 14.67L11.72 14.6C11.79 14.43 11.95 14.4 12.01 14.4C12.07 14.4 12.24 14.42 12.3 14.58L12.58 15.61C12.81 16.45 13.46 17.09 14.3 17.33L15.3 17.61C15.5 17.69 15.51 17.87 15.51 17.93Z" fill="white"/> </g> <defs> <clipPath id="clip0_3111_12980"> <rect width="24" height="24" fill="white"/> </clipPath> </defs> </svg>
