<svg width="24" height="24" viewBox="0 0 24 24" fill="none" xmlns="http://www.w3.org/2000/svg"> <g clip-path="url(#clip0_4482_12565)"> <path d="M18.9998 17.75C18.6798 17.75 18.3798 17.54 18.2798 17.22C18.1598 16.82 18.3798 16.4 18.7798 16.29C20.2598 15.84 21.2498 14.52 21.2498 13C21.2498 11.09 19.6998 9.54 17.7898 9.54C17.3798 9.54 17.0398 9.2 17.0398 8.79C17.0398 6.01 14.7798 3.76 11.9998 3.76C9.21977 3.76 6.95977 6.02 6.95977 8.79C6.95977 9.2 6.61977 9.54 6.20977 9.54C4.29977 9.54 2.74977 11.09 2.74977 13C2.74977 14.52 3.73977 15.85 5.21977 16.29C5.61977 16.41 5.83977 16.83 5.71977 17.22C5.59977 17.61 5.17977 17.84 4.78977 17.72C2.67977 17.08 1.25977 15.18 1.25977 12.99C1.25977 10.5 3.10977 8.43 5.50977 8.08C5.85977 4.8 8.63977 2.25 12.0098 2.25C15.3798 2.25 18.1598 4.81 18.5098 8.08C20.9098 8.43 22.7598 10.5 22.7598 12.99C22.7598 15.18 21.3398 17.08 19.2298 17.72C19.1598 17.74 19.0798 17.75 19.0098 17.75H18.9998Z" fill="white"/> <path d="M14.3905 16.8696H14.5005V15.8396C14.5005 14.4596 13.3805 13.3496 12.0105 13.3496C10.6405 13.3496 9.52047 14.4696 9.52047 15.8396V16.8696H9.63047C9.10047 17.1396 8.73047 17.6896 8.73047 18.3296V19.8496C8.73047 20.7596 9.47047 21.4996 10.3805 21.4996H13.6705C14.5805 21.4996 15.3205 20.7596 15.3205 19.8496V18.3296C15.3205 17.6896 14.9505 17.1396 14.4205 16.8696H14.3905ZM12.0005 14.8396C12.5505 14.8396 12.9905 15.2896 12.9905 15.8296V16.6796H11.0005V15.8296C11.0005 15.2796 11.4505 14.8396 11.9905 14.8396H12.0005Z" fill="white"/> </g> <defs> <clipPath id="clip0_4482_12565"> <rect width="24" height="24" fill="white"/> </clipPath> </defs> </svg>
