<svg width="24" height="24" viewBox="0 0 24 24" fill="none" xmlns="http://www.w3.org/2000/svg"> <g clip-path="url(#clip0_4482_4755)"> <path d="M12 2C6.48 2 2 6.48 2 12C2 17.52 6.48 22 12 22C17.52 22 22 17.52 22 12C22 6.48 17.52 2 12 2ZM15.2 13.58C14.73 13.94 14.13 14.08 13.55 13.96C13.25 13.89 12.98 13.76 12.75 13.58V16C12.75 16.41 12.41 16.75 12 16.75C11.59 16.75 11.25 16.41 11.25 16V13.55C10.74 13.96 10.04 14.11 9.38 13.89C8.45001 13.57 7.89001 12.62 8.07001 11.66C8.25001 10.69 9.10003 10 10.09 10.04C9.93003 9.45 10.04 8.83 10.41 8.34C10.78 7.85 11.34 7.56 11.95 7.55C12.45 7.55 12.92 7.75 13.27 8.11C13.86 8.56 14.12 9.32 13.92 10.04C14.78 10.01 15.56 10.53 15.86 11.34C16.14 12.14 15.88 13.05 15.2 13.58Z" fill="white"/> </g> <defs> <clipPath id="clip0_4482_4755"> <rect width="24" height="24" fill="white"/> </clipPath> </defs> </svg>
