<svg width="24" height="24" viewBox="0 0 24 24" fill="none" xmlns="http://www.w3.org/2000/svg"> <g clip-path="url(#clip0_4482_14931)"> <path d="M2 7.19035C1.59 7.19035 1.25 6.85035 1.25 6.44035C1.25 4.19035 3.08 2.36035 5.33 2.36035H7.55C7.83 2.36035 8.08 2.51035 8.21 2.75035C8.34 2.99035 8.33 3.29035 8.18 3.52035L6.84 5.57035C6.61 5.91035 6.15 6.01035 5.8 5.78035C5.45 5.55035 5.36 5.09035 5.59 4.74035L6.17 3.86035H5.34C3.92 3.86035 2.76 5.02035 2.76 6.44035C2.76 6.85035 2.42 7.19035 2.01 7.19035H2Z" fill="white"/> <path d="M22.0002 16.8096C21.5902 16.8096 21.2502 17.1496 21.2502 17.5596C21.2502 18.9796 20.0902 20.1396 18.6702 20.1396H18.2602L18.6502 19.7496C18.9402 19.4596 18.9402 18.9796 18.6502 18.6896C18.3602 18.3996 17.8802 18.3996 17.5902 18.6896L15.9202 20.3596C15.8502 20.4296 15.8002 20.5096 15.7602 20.5996C15.7202 20.6896 15.7002 20.7896 15.7002 20.8896C15.7002 20.9896 15.7202 21.0896 15.7602 21.1796C15.8402 21.3596 15.9802 21.5096 16.1702 21.5896C16.2602 21.6296 16.3602 21.6496 16.4602 21.6496H18.6802C20.9302 21.6496 22.7602 19.8196 22.7602 17.5696C22.7602 17.1596 22.4202 16.8196 22.0102 16.8196L22.0002 16.8096Z" fill="white"/> <path d="M18.8296 3.11035H14.0596C12.3096 3.11035 10.8896 4.53035 10.8896 6.28035V8.90035C10.9896 8.92035 11.0796 8.94035 11.1796 8.96035C12.9096 9.50035 14.1096 11.1404 14.1096 12.9404V14.2204H18.8296C20.5796 14.2204 21.9996 12.8004 21.9996 11.0604V6.28035C21.9996 4.53035 20.5796 3.11035 18.8296 3.11035Z" fill="white"/> <path d="M10.89 9.92027C10.59 9.83027 10.27 9.78027 9.94 9.78027H5.17C3.42 9.78027 2 11.2003 2 12.9403V17.7203C2 19.4703 3.42 20.8903 5.17 20.8903H9.94C11.69 20.8903 13.11 19.4703 13.11 17.7203V12.9403C13.11 11.5303 12.17 10.3203 10.89 9.92027ZM9.57 15.8603L7.35 18.0803C7.2 18.2303 7.01 18.3003 6.82 18.3003C6.63 18.3003 6.44 18.2303 6.29 18.0803C6 17.7903 6 17.3103 6.29 17.0203L7.98 15.3303L6.29 13.6403C6 13.3503 6 12.8703 6.29 12.5803C6.58 12.2903 7.06 12.2903 7.35 12.5803L9.57 14.8003C9.71 14.9403 9.79 15.1303 9.79 15.3303C9.79 15.5303 9.71 15.7203 9.57 15.8603Z" fill="white"/> </g> <defs> <clipPath id="clip0_4482_14931"> <rect width="24" height="24" fill="white"/> </clipPath> </defs> </svg>
