<svg width="24" height="24" viewBox="0 0 24 24" fill="none" xmlns="http://www.w3.org/2000/svg"> <g clip-path="url(#clip0_4482_14934)"> <path d="M17 2H7C4.24 2 2 4.24 2 7V17C2 19.76 4.24 22 7 22H17C19.76 22 22 19.76 22 17V7C22 4.24 19.76 2 17 2ZM17.75 12.4C17.75 12.64 17.63 12.87 17.43 13.01L14.43 15.11C14.3 15.2 14.15 15.25 14 15.25C13.76 15.25 13.53 15.14 13.38 14.93C13.14 14.59 13.22 14.12 13.56 13.89L16.24 11.99L13.62 10.66C13.54 10.62 13.46 10.64 13.42 10.65C13.38 10.66 13.31 10.7 13.28 10.79L12.09 13.76C11.91 14.21 11.54 14.57 11.08 14.75C10.62 14.92 10.11 14.9 9.67 14.67L6.64 13.13C6.39 13 6.23 12.74 6.23 12.46V11.59C6.23 11.35 6.35 11.12 6.55 10.98L9.55 8.88C9.89 8.64 10.36 8.72 10.59 9.06C10.83 9.4 10.75 9.87 10.41 10.1L7.73 12L10.35 13.33C10.44 13.37 10.51 13.36 10.55 13.34C10.59 13.33 10.66 13.29 10.69 13.2L11.88 10.23C12.06 9.78 12.43 9.42 12.89 9.24C13.35 9.07 13.86 9.09 14.3 9.32L17.33 10.86C17.58 10.99 17.74 11.25 17.74 11.53V12.4H17.75Z" fill="white"/> </g> <defs> <clipPath id="clip0_4482_14934"> <rect width="24" height="24" fill="white"/> </clipPath> </defs> </svg>
