<svg width="24" height="24" viewBox="0 0 24 24" fill="none" xmlns="http://www.w3.org/2000/svg"> <g clip-path="url(#clip0_2085_391798)"> <path d="M18.2198 4.19922H5.77979C5.35979 4.19922 5.02979 4.52922 5.02979 4.94922V18.9192L5.04979 18.8492C5.14979 18.5292 5.43979 18.2992 5.77979 18.2992H6.52979V5.69922H17.4698V18.2992H18.2198C18.5598 18.2992 18.8498 18.5292 18.9498 18.8492L18.9698 18.9192V4.94922C18.9698 4.52922 18.6398 4.19922 18.2198 4.19922Z" fill="white"/> <path d="M18.2198 4.19922H5.77979C5.35979 4.19922 5.02979 4.52922 5.02979 4.94922V5.07922L5.04979 5.14922C5.14979 5.46922 5.43979 5.69922 5.77979 5.69922H18.2198C18.5598 5.69922 18.8498 5.46922 18.9498 5.14922L18.9698 5.07922V4.94922C18.9698 4.52922 18.6398 4.19922 18.2198 4.19922Z" fill="white"/> <path d="M19.2499 4.06L18.9699 5.08V4.95C18.9699 4.53 18.6399 4.2 18.2199 4.2H5.77989C5.35989 4.2 5.02989 4.53 5.02989 4.95V5.08L4.74989 4.06C4.56989 3.43 4.75989 2.76 5.22989 2.31C5.70989 1.86 6.39989 1.72 7.00989 1.93H7.01989L7.21989 2.01C7.21989 2.01 7.32989 2.01 7.37989 2L9.06989 1.41C9.43989 1.28 9.85989 1.28 10.2299 1.41L11.9199 2.01C11.9199 2.01 12.0299 2.01 12.0899 2L13.7699 1.41C14.1399 1.28 14.5599 1.28 14.9299 1.41L16.6199 2.01C16.6699 2.01 16.7299 2.01 16.7899 2L16.9799 1.93C17.5999 1.72 18.2899 1.86 18.7699 2.31C19.2399 2.76 19.4299 3.43 19.2499 4.06Z" fill="white"/> <path d="M18.7699 21.6908C18.2899 22.1408 17.5999 22.2808 16.9899 22.0708L16.7799 21.9908C16.7799 21.9908 16.6699 21.9808 16.6199 22.0008L14.9299 22.5908C14.7499 22.6608 14.5499 22.6908 14.3499 22.6908C14.1499 22.6908 13.9599 22.6608 13.7699 22.5908L12.0799 21.9908C12.0799 21.9908 11.9699 21.9808 11.9099 22.0008L10.2299 22.5908C9.85989 22.7208 9.43989 22.7208 9.06989 22.5908L7.37989 21.9908C7.37989 21.9908 7.26989 21.9808 7.20989 22.0008L7.01989 22.0708H7.00989C6.39989 22.2808 5.70989 22.1408 5.22989 21.6908C4.75989 21.2408 4.56989 20.5708 4.74989 19.9408L5.02989 18.9208L5.04989 18.8508C5.14989 18.5308 5.43989 18.3008 5.77989 18.3008H18.2199C18.5599 18.3008 18.8499 18.5308 18.9499 18.8508L18.9699 18.9208L19.2499 19.9408C19.4299 20.5708 19.2399 21.2408 18.7699 21.6908Z" fill="white"/> <path d="M12.8299 15.6797C11.7699 15.6797 10.6199 15.2097 9.70995 14.2897C8.11995 12.6997 7.85995 10.3797 9.11995 9.1197C10.3799 7.8597 12.6999 8.1197 14.2899 9.7097C15.8799 11.2997 16.1399 13.6197 14.8799 14.8797C14.3399 15.4197 13.6099 15.6797 12.8299 15.6797ZM11.1699 9.8197C10.7799 9.8197 10.4299 9.9397 10.1799 10.1897C9.50995 10.8597 9.77995 12.2497 10.7699 13.2397C11.7499 14.2197 13.1499 14.4897 13.8199 13.8297C14.4899 13.1597 14.2199 11.7697 13.2299 10.7797C12.6099 10.1597 11.8299 9.8197 11.1699 9.8197Z" fill="white"/> <path d="M14.3499 15.1002C14.0599 15.1002 13.7899 14.9402 13.6699 14.6602L13.2599 13.7702C13.0099 13.2202 12.4999 12.8302 11.8899 12.7502C10.7799 12.5902 9.83992 11.8902 9.36992 10.8602L8.95993 9.97019C8.78993 9.59019 8.95992 9.15019 9.32992 8.98019C9.70992 8.81019 10.1499 8.98019 10.3199 9.35019L10.7299 10.2402C10.9799 10.7902 11.4899 11.1802 12.0999 11.2602C13.2099 11.4202 14.1499 12.1202 14.6199 13.1502L15.0299 14.0402C15.1999 14.4202 15.0299 14.8602 14.6599 15.0302C14.5599 15.0802 14.4499 15.1002 14.3499 15.1002Z" fill="white"/> </g> <defs> <clipPath id="clip0_2085_391798"> <rect width="24" height="24" fill="white"/> </clipPath> </defs> </svg>
