<svg width="24" height="24" viewBox="0 0 24 24" fill="none" xmlns="http://www.w3.org/2000/svg"> <g clip-path="url(#clip0_4482_4759)"> <path d="M21.9999 17.7095C21.9999 19.7395 18.1399 21.9995 12.6099 21.9995C7.05992 21.9995 3.19995 19.7395 3.19995 17.7095C3.19995 16.8495 3.82991 15.9895 4.96991 15.2695C6.73991 16.4695 9.11994 17.3795 11.6899 17.8295C12.8899 18.0495 14.07 18.1395 15.2 18.1395C17.79 18.1395 20.0999 17.5995 21.6299 16.5895C21.8799 16.9495 21.9999 17.3295 21.9999 17.7095Z" fill="white"/> <path d="M18.54 8.17C18.15 8.46 17.72 8.73 17.26 8.98C15.79 9.79 13.9701 10.41 12.0301 10.74C9.47006 11.19 6.98005 11.13 5.02005 10.55C4.68005 10.45 4.37006 10.34 4.09006 10.21C2.90006 9.69 2.17006 8.97 2.03006 8.15C1.85006 7.14 2.58006 5.94 4.03006 4.87C5.66006 3.66 7.98001 2.74 10.54 2.29C11.68 2.08 12.76 2 13.76 2C17.58 2 20.26 3.31 20.54 4.89C20.71 5.9 19.99 7.09 18.54 8.17Z" fill="white"/> <path d="M21.97 13.6398C21.89 14.0698 21.65 14.4798 21.22 14.8698C21.01 15.0498 20.79 15.2198 20.53 15.3798C18.67 16.4798 15.38 16.8198 11.97 16.2298C9.97997 15.8698 8.13997 15.2498 6.65997 14.3998C6.22997 14.1598 5.83997 13.8998 5.46997 13.6298L5.28998 13.4998C4.58998 12.9598 4.08003 12.3898 3.78003 11.8198C4.03003 11.9198 4.30001 12.0098 4.57001 12.0898C5.81001 12.4598 7.24001 12.6498 8.76001 12.6498C9.91001 12.6498 11.1 12.5398 12.31 12.3298C14.89 11.8698 17.28 10.9698 19.07 9.75977C21.08 10.9498 22.18 12.4098 21.97 13.6398Z" fill="white"/> </g> <defs> <clipPath id="clip0_4482_4759"> <rect width="24" height="24" fill="white"/> </clipPath> </defs> </svg>
