<svg width="24" height="24" viewBox="0 0 24 24" fill="none" xmlns="http://www.w3.org/2000/svg"> <g clip-path="url(#clip0_4482_8106)"> <path d="M21.3498 7.78C18.8298 5.37 15.4798 4.01 11.9998 4C8.50983 4.02 5.15983 5.37 2.64983 7.78C1.83983 8.53 1.78983 9.79 2.52983 10.61L10.5298 19.34C10.9098 19.75 11.4398 19.99 11.9998 19.99C12.5598 19.99 13.0998 19.76 13.4698 19.34L21.4698 10.61C22.2098 9.79 22.1598 8.53 21.3498 7.78ZM12.7498 14C12.7498 14.41 12.4098 14.75 11.9998 14.75C11.5898 14.75 11.2498 14.41 11.2498 14V11C11.2498 10.59 11.5898 10.25 11.9998 10.25C12.4098 10.25 12.7498 10.59 12.7498 11V14ZM12.6098 8.76C12.4598 8.91 12.2398 9 12.0098 9H11.9998C11.6398 9 11.3298 8.79 11.1898 8.46C11.0598 8.14 11.1298 7.77 11.3698 7.52C11.6298 7.26 11.9998 7.19 12.3198 7.31C12.6598 7.46 12.8798 7.77 12.8798 8.13C12.8798 8.33 12.7598 8.62 12.6098 8.76Z" fill="white"/> </g> <defs> <clipPath id="clip0_4482_8106"> <rect width="24" height="24" fill="white"/> </clipPath> </defs> </svg>
