<svg width="24" height="24" viewBox="0 0 24 24" fill="none" xmlns="http://www.w3.org/2000/svg"> <g clip-path="url(#clip0_4482_9219)"> <path d="M16.5902 6.29004L16.1102 7.96004C15.7602 9.18004 14.7602 10 13.6402 10H10.3602C9.24016 10 8.24016 9.18004 7.89016 7.96004L7.41016 6.29004C7.97016 6.37004 8.49016 6.62004 8.91016 6.99004C9.43016 7.46004 10.1102 7.72004 10.8202 7.72004H13.1802C13.8902 7.72004 14.5702 7.46004 15.0902 6.99004C15.5102 6.62004 16.0302 6.37004 16.5902 6.29004Z" fill="white"/> <path d="M22.4202 17.71L20.5502 9.06C20.1702 7.29 18.5102 6.09 16.7102 6.27C16.6702 6.27 16.6302 6.28 16.5902 6.29C16.0302 6.37 15.5102 6.62 15.0902 6.99C14.5702 7.46 13.8902 7.72 13.1802 7.72H13.1502V5.84C13.1502 5.54 12.9802 5.29 12.7302 5.17C12.7302 5.14 12.7502 5.11 12.7502 5.08V2C12.7502 1.59 12.4102 1.25 12.0002 1.25C11.5902 1.25 11.2502 1.59 11.2502 2V5.07C11.2502 5.07 11.2602 5.13 11.2702 5.16C11.0202 5.29 10.8502 5.54 10.8502 5.83V7.71H10.8202C10.1102 7.71 9.4302 7.45 8.9102 6.98C8.4902 6.61 7.9702 6.36 7.4102 6.28C7.3702 6.28 7.3302 6.26 7.2902 6.26C7.1702 6.25 7.0502 6.24 6.9302 6.24C5.2702 6.24 3.8002 7.4 3.4502 9.05L1.5802 17.7C1.4502 18.28 1.4802 18.88 1.6702 19.44C2.0702 20.69 3.1702 21.58 4.4702 21.72C4.55019 21.73 4.6302 21.73 4.7102 21.73C5.5802 21.73 6.3702 21.18 6.6602 20.34L6.9602 19.48C7.2002 18.81 7.8402 18.36 8.5502 18.36H15.4502C16.1602 18.36 16.8002 18.81 17.0402 19.48L17.3402 20.34C17.6602 21.26 18.5702 21.83 19.5302 21.72C20.8302 21.58 21.9302 20.69 22.3302 19.44C22.4402 19.11 22.5002 18.76 22.5002 18.41C22.5002 18.17 22.4702 17.94 22.4202 17.7V17.71Z" fill="white"/> </g> <defs> <clipPath id="clip0_4482_9219"> <rect width="24" height="24" fill="white"/> </clipPath> </defs> </svg>
