<svg width="24" height="24" viewBox="0 0 24 24" fill="none" xmlns="http://www.w3.org/2000/svg"> <g clip-path="url(#clip0_2085_389288)"> <path d="M13.25 5.73047V8.98047C13.25 9.27047 13.01 9.51047 12.72 9.51047H11.29C11 9.51047 10.76 9.27047 10.76 8.98047V5.73047H13.25Z" fill="white"/> <path d="M12.72 10H11.29C10.9973 10 10.76 10.2373 10.76 10.53V12.22C10.76 12.5127 10.9973 12.75 11.29 12.75H12.72C13.0127 12.75 13.25 12.5127 13.25 12.22V10.53C13.25 10.2373 13.0127 10 12.72 10Z" fill="white"/> <path d="M12.72 13.2402H11.29C10.9973 13.2402 10.76 13.4775 10.76 13.7702V15.9102C10.76 16.2029 10.9973 16.4402 11.29 16.4402H12.72C13.0127 16.4402 13.25 16.2029 13.25 15.9102V13.7702C13.25 13.4775 13.0127 13.2402 12.72 13.2402Z" fill="white"/> <path d="M13.25 17.5105V21.0005C13.25 21.5505 12.8 22.0005 12.25 22.0005H11.76C11.2 22.0005 10.76 21.5505 10.76 21.0005V17.5105C10.76 17.2205 11 16.9805 11.29 16.9805H12.72C13.01 16.9805 13.25 17.2205 13.25 17.5105Z" fill="white"/> <path d="M14.8901 4.89C14.8901 5.69 14.2401 6.33 13.4501 6.33H10.5601C9.76011 6.33 9.11011 5.69 9.11011 4.89C9.11011 3.29 10.4101 2 12.0001 2C13.5901 2 14.8901 3.29 14.8901 4.89Z" fill="white"/> <path d="M17.2501 8.64993C17.0001 8.64993 16.7501 8.50993 16.6301 8.27993C16.4501 7.93993 16.5801 7.50993 16.9201 7.32993L18.5601 6.45993C18.9001 6.27993 19.3301 6.40993 19.5101 6.74993C19.6901 7.08993 19.5601 7.51993 19.2201 7.69993L17.5801 8.56993C17.4801 8.62993 17.3601 8.64993 17.2501 8.64993Z" fill="white"/> <path d="M18.18 11.8698C17.82 11.8698 17.51 11.5998 17.48 11.2298C17.44 10.8398 17.73 10.4998 18.12 10.4598L19.97 10.2898C20.35 10.2498 20.7 10.5398 20.74 10.9298C20.78 11.3198 20.49 11.6598 20.1 11.6998L18.25 11.8698C18.25 11.8698 18.21 11.8698 18.18 11.8698Z" fill="white"/> <path d="M19.67 15.6901C19.6 15.6901 19.54 15.6901 19.47 15.6601L17.68 15.1401C17.31 15.0301 17.09 14.6401 17.2 14.2701C17.31 13.9001 17.7 13.6801 18.07 13.7901L19.86 14.3101C20.23 14.4201 20.45 14.8101 20.34 15.1801C20.25 15.4901 19.97 15.6901 19.67 15.6901Z" fill="white"/> <path d="M17.7301 19.3096C17.5701 19.3096 17.4001 19.2496 17.2701 19.1396L15.8601 17.9196C15.5701 17.6696 15.5301 17.2196 15.7901 16.9296C16.9101 15.6396 17.5301 13.8896 17.5301 12.0096C17.5301 9.24955 16.1301 6.70955 14.0601 5.68955C13.7101 5.51955 13.5701 5.09955 13.7401 4.74955C13.9101 4.39955 14.3301 4.25955 14.6801 4.42955C17.2701 5.69955 18.9401 8.67955 18.9401 12.0196C18.9401 13.9796 18.3601 15.8296 17.3001 17.3096L18.2001 18.0896C18.4901 18.3396 18.5301 18.7896 18.2701 19.0796C18.1301 19.2396 17.9401 19.3196 17.7401 19.3196L17.7301 19.3096Z" fill="white"/> <path d="M6.74995 8.64993C6.63995 8.64993 6.52995 8.61993 6.41995 8.56993L4.76995 7.69993C4.42995 7.51993 4.29995 7.08993 4.47995 6.74993C4.65995 6.40993 5.08995 6.27993 5.42995 6.45993L7.07995 7.32993C7.41995 7.50993 7.54995 7.93993 7.36995 8.27993C7.23995 8.51993 6.99995 8.64993 6.74995 8.64993Z" fill="white"/> <path d="M5.82001 11.8703C5.82001 11.8703 5.78001 11.8703 5.75001 11.8703L3.90001 11.7003C3.51001 11.6603 3.23001 11.3203 3.26001 10.9303C3.30001 10.5403 3.64001 10.2603 4.03001 10.2903L5.88001 10.4603C6.27001 10.5003 6.55001 10.8403 6.52001 11.2303C6.49001 11.5903 6.18001 11.8703 5.82001 11.8703Z" fill="white"/> <path d="M4.33003 15.6899C4.03003 15.6899 3.75003 15.4899 3.66003 15.1799C3.55003 14.8099 3.76003 14.4199 4.14003 14.3099L5.93003 13.7899C6.30003 13.6799 6.69003 13.8899 6.80003 14.2699C6.91003 14.6399 6.70003 15.0299 6.32003 15.1399L4.53003 15.6599C4.46003 15.6799 4.40003 15.6899 4.33003 15.6899Z" fill="white"/> <path d="M6.28008 19.3098C6.08008 19.3098 5.89008 19.2298 5.75008 19.0698C5.50008 18.7798 5.53008 18.3298 5.82008 18.0798L6.72008 17.2998C5.66008 15.8298 5.08008 13.9698 5.08008 12.0098C5.08008 8.66979 6.75008 5.69979 9.34008 4.41979C9.69008 4.24979 10.1101 4.38979 10.2801 4.73979C10.4501 5.08979 10.3101 5.50979 9.96008 5.67979C7.88008 6.69979 6.49008 9.23979 6.49008 11.9998C6.49008 13.8798 7.11008 15.6298 8.23008 16.9198C8.48008 17.2098 8.45008 17.6598 8.16008 17.9098L6.75008 19.1298C6.62008 19.2498 6.45008 19.2998 6.29008 19.2998L6.28008 19.3098Z" fill="white"/> </g> <defs> <clipPath id="clip0_2085_389288"> <rect width="24" height="24" fill="white"/> </clipPath> </defs> </svg>
