<svg width="24" height="24" viewBox="0 0 24 24" fill="none" xmlns="http://www.w3.org/2000/svg"> <g clip-path="url(#clip0_4482_4366)"> <path d="M14.5 22H9.5C8.95 22 8.5 21.55 8.5 21V19H15.5V21C15.5 21.55 15.05 22 14.5 22Z" fill="white"/> <path d="M15.67 6.91C15.78 6.56 15.83 6.2 15.83 5.83C15.83 3.71 14.11 2 12 2C9.89003 2 8.17004 3.71 8.17004 5.83C8.17004 6.21 8.22002 6.56 8.33002 6.91C6.47002 7.17 5.04004 8.76 5.04004 10.69C5.04004 12.34 6.08003 13.73 7.53003 14.27L8.42004 18.99H15.58L16.47 14.27C17.92 13.73 18.96 12.34 18.96 10.69C18.96 8.76 17.53 7.17 15.67 6.91ZM10.99 14.68C10.9 14.72 10.8 14.73 10.71 14.73C10.42 14.73 10.14 14.56 10.03 14.26C9.49003 12.84 9.22003 11.42 9.22003 9.99C9.22003 9.58 9.56003 9.24 9.97003 9.24C10.38 9.24 10.72 9.58 10.72 9.99C10.72 11.23 10.96 12.48 11.42 13.69C11.56 14.09 11.38 14.54 10.99 14.68ZM13.9 14.27C13.79 14.56 13.51 14.74 13.22 14.74C13.13 14.74 13.03 14.72 12.94 14.69C12.55 14.54 12.37 14.09 12.52 13.71C12.98 12.5 13.22 11.25 13.22 10.01C13.22 9.6 13.56 9.26 13.97 9.26C14.38 9.26 14.72 9.6 14.72 10.01C14.72 11.43 14.45 12.85 13.9 14.27Z" fill="white"/> </g> <defs> <clipPath id="clip0_4482_4366"> <rect width="24" height="24" fill="white"/> </clipPath> </defs> </svg>
