<svg width="24" height="24" viewBox="0 0 24 24" fill="none" xmlns="http://www.w3.org/2000/svg"> <g clip-path="url(#clip0_4418_8869)"> <path d="M22 21.2492H20.75V10.9992C20.75 8.57921 19.42 7.24921 17 7.24921H12.75V6.01921C13.33 6.15921 13.91 6.23921 14.5 6.23921C15.44 6.23921 16.38 6.05921 17.28 5.69921C17.56 5.58921 17.75 5.30921 17.75 4.99921V1.99921C17.75 1.74921 17.63 1.51921 17.42 1.37921C17.21 1.23921 16.95 1.20921 16.72 1.29921C15.29 1.86921 13.71 1.86921 12.28 1.29921C12.05 1.20921 11.79 1.23921 11.58 1.37921C11.37 1.51921 11.25 1.74921 11.25 1.99921V4.99921V7.24921H7C4.58 7.24921 3.25 8.57921 3.25 10.9992V21.2492H2C1.59 21.2492 1.25 21.5892 1.25 21.9992C1.25 22.4092 1.59 22.7492 2 22.7492H4H20H22C22.41 22.7492 22.75 22.4092 22.75 21.9992C22.75 21.5892 22.41 21.2492 22 21.2492ZM7.24 21.2492H4.75V12.7492H7.24V21.2492ZM11.24 21.2492H8.74V12.7492H11.24V21.2492ZM15.24 21.2492H12.74V12.7492H15.24V21.2492ZM19.25 21.2492H16.74V12.7492H19.25V21.2492Z" fill="white"/> </g> <defs> <clipPath id="clip0_4418_8869"> <rect width="24" height="24" fill="white"/> </clipPath> </defs> </svg>
