<svg width="24" height="24" viewBox="0 0 24 24" fill="none" xmlns="http://www.w3.org/2000/svg"> <g clip-path="url(#clip0_2085_383785)"> <path d="M18.74 8.89999C19.63 9.49999 20.33 10.35 20.73 11.34C20.93 11.83 20.95 12.35 20.78 12.86C20.63 13.35 20.31 13.78 19.88 14.06L19.73 14.14L19.69 14.18L18.75 14.73L18.7 14.76L18.67 14.78L17.54 15.43C17.54 15.43 17.5 15.45 17.48 15.46C17.46 15.46 17.44 15.46 17.4 15.46C17.32 15.46 17.21 15.42 17.14 15.33L17.19 14.68V14.63V14.57C17.19 14.47 17.19 14.37 17.17 14.27L17.21 13.78C17.22 13.56 17.25 13.33 17.3 13.11C17.32 13.04 17.34 12.93 17.35 12.78C17.35 12.73 17.37 12.67 17.38 12.61V12.57L17.39 12.53C17.54 11.61 17.85 10.69 18.33 9.76L18.38 9.66L18.4 9.60999L18.42 9.56999L18.44 9.55V9.52C18.52 9.41 18.58 9.28999 18.62 9.18999L18.65 9.16L18.75 8.88M17.4 6.62C17.56 7.19 17.54 7.78999 17.34 8.35999H17.33C17.28 8.50999 17.22 8.66 17.14 8.8C17.09 8.88 17.06 8.94 17.03 9.01L16.98 9.10999C16.45 10.14 16.08 11.21 15.9 12.31C15.87 12.45 15.85 12.57 15.84 12.68C15.84 12.72 15.83 12.75 15.82 12.79C15.76 13.09 15.72 13.39 15.7 13.69L15.64 14.34C15.66 14.42 15.67 14.5 15.67 14.58L15.62 15.26C15.61 15.42 15.55 15.56 15.45 15.68C15.6 15.8 15.73 15.96 15.84 16.13C16.18 16.67 16.78 16.97 17.38 16.97C17.63 16.97 17.89 16.92 18.12 16.81C18.17 16.78 18.22 16.76 18.27 16.73L19.4 16.08C19.4 16.08 19.47 16.04 19.5 16.02L20.61 15.37C20.61 15.37 20.63 15.36 20.64 15.35C21.42 14.86 21.96 14.12 22.21 13.29C22.47 12.49 22.45 11.61 22.12 10.78C21.43 9.05999 20.04 7.68 18.31 6.98L17.4 6.62Z" fill="white"/> <path d="M17.3401 8.36003H17.3301C17.2801 8.51003 17.2201 8.66003 17.1401 8.80003C17.0901 8.88003 17.0601 8.94003 17.0301 9.01003L16.9801 9.11003C16.4501 10.14 16.0801 11.21 15.9001 12.31C15.8701 12.45 15.8501 12.57 15.8401 12.68C15.8401 12.72 15.8301 12.75 15.8201 12.79C15.7601 13.09 15.7201 13.39 15.7001 13.69L15.6401 14.34C15.6601 14.42 15.6701 14.5 15.6701 14.58L15.6201 15.26C15.6101 15.42 15.5501 15.56 15.4501 15.68C15.3801 15.77 15.2901 15.84 15.1901 15.89C14.1901 16.37 13.1001 16.61 12.0001 16.61C10.9001 16.61 9.81009 16.37 8.81009 15.89C8.71009 15.84 8.62009 15.77 8.55009 15.68C8.45009 15.56 8.39009 15.42 8.38009 15.26L8.33009 14.58C8.33009 14.49 8.34009 14.4 8.36009 14.32L8.30009 13.69C8.28009 13.39 8.24009 13.09 8.18009 12.79C8.18009 12.75 8.16009 12.72 8.16009 12.68C8.15009 12.57 8.13009 12.45 8.11009 12.35C7.92009 11.21 7.55009 10.14 7.02009 9.12003L6.97009 9.01003C6.94009 8.94003 6.91009 8.88003 6.88009 8.83003C6.50009 8.13003 6.40009 7.36003 6.61009 6.61003C6.61009 6.60003 6.62009 6.58003 6.62009 6.57003C6.84009 5.82003 7.34009 5.20003 8.04009 4.83003C8.18009 4.75003 8.33009 4.68003 8.49009 4.63003L8.88009 4.49003C10.8901 3.80003 13.1101 3.80003 15.1101 4.49003L15.5201 4.63003C16.2601 4.88003 16.8601 5.41003 17.2101 6.12003C17.2901 6.28003 17.3501 6.45003 17.4001 6.62003C17.5601 7.19003 17.5401 7.79003 17.3401 8.36003Z" fill="white"/> <path d="M5.26999 8.88999C5.34999 9.11999 5.45999 9.35999 5.57999 9.57999L5.59999 9.62999L5.64999 9.73998L5.66999 9.77998L5.68999 9.81998C6.15999 10.73 6.46999 11.64 6.63999 12.65C6.63999 12.69 6.65999 12.75 6.65999 12.8C6.65999 12.95 6.69999 13.06 6.70999 13.13C6.74999 13.35 6.77999 13.58 6.79999 13.84L6.83999 14.27C6.82999 14.37 6.81999 14.48 6.81999 14.58V14.69L6.86999 15.34C6.80999 15.43 6.68999 15.47 6.60999 15.47C6.55999 15.47 6.51999 15.46 6.51999 15.46L6.44999 15.43L5.38999 14.81L5.33999 14.77L5.29999 14.74L5.25999 14.72L4.24999 14.14L4.17999 14.1L4.14999 14.08C3.69999 13.8 3.36999 13.36 3.20999 12.82C3.04999 12.33 3.06999 11.82 3.26999 11.33C3.66999 10.33 4.37999 9.47999 5.26999 8.87999M6.60999 6.60999L5.68999 6.97999C3.95999 7.67999 2.56999 9.05998 1.87999 10.78C1.54999 11.61 1.52999 12.49 1.78999 13.29C2.03999 14.12 2.57999 14.86 3.34999 15.35C3.40999 15.39 3.46999 15.43 3.49999 15.44L4.50999 16.02C4.50999 16.02 4.56999 16.06 4.59999 16.08L5.71999 16.73C5.71999 16.73 5.81999 16.79 5.87999 16.81C6.10999 16.92 6.36999 16.97 6.61999 16.97C7.21999 16.97 7.81999 16.67 8.15999 16.13C8.26999 15.96 8.39999 15.8 8.54999 15.68C8.44999 15.56 8.38999 15.42 8.37999 15.26L8.32999 14.58C8.32999 14.49 8.33999 14.4 8.35999 14.32L8.29999 13.69C8.27999 13.39 8.23999 13.09 8.17999 12.79C8.17999 12.75 8.15999 12.72 8.15999 12.68C8.14999 12.57 8.12999 12.45 8.10999 12.35C7.91999 11.21 7.54999 10.14 7.01999 9.11999L6.96999 9.00999C6.93999 8.93999 6.90999 8.87999 6.87999 8.82999C6.49999 8.12999 6.39999 7.35999 6.60999 6.60999Z" fill="white"/> <path d="M5.88004 16.81L4.44004 19.39C4.23004 19.78 3.83004 20.02 3.38004 20.03H3.36004C2.92004 20.03 2.51004 19.8 2.28004 19.42C1.30004 17.82 1.00004 15.92 1.45004 14.09L1.55004 13.68C1.59004 13.53 1.67004 13.39 1.79004 13.29C2.04004 14.12 2.58004 14.86 3.35004 15.35C3.41004 15.39 3.47004 15.43 3.50004 15.44L4.51004 16.02C4.51004 16.02 4.57004 16.06 4.60004 16.08L5.72004 16.73C5.72004 16.73 5.82004 16.79 5.88004 16.81Z" fill="white"/> <path d="M21.7201 19.42C21.4901 19.8 21.0801 20.03 20.6401 20.03H20.6201C20.1701 20.02 19.7701 19.78 19.5601 19.39L18.1201 16.81C18.1701 16.78 18.2201 16.76 18.2701 16.73L19.4001 16.08C19.4001 16.08 19.4701 16.04 19.5001 16.02L20.6101 15.37C20.6101 15.37 20.6301 15.36 20.6401 15.35C21.4201 14.86 21.9601 14.12 22.2101 13.29C22.3301 13.39 22.4101 13.53 22.4501 13.68L22.5501 14.09C23.0001 15.92 22.7001 17.82 21.7201 19.42Z" fill="white"/> </g> <defs> <clipPath id="clip0_2085_383785"> <rect width="24" height="24" fill="white"/> </clipPath> </defs> </svg>
