<svg width="24" height="24" viewBox="0 0 24 24" fill="none" xmlns="http://www.w3.org/2000/svg"> <g clip-path="url(#clip0_4482_1603)"> <path d="M18.9999 16.64H10.2098C8.63984 16.64 7.35986 15.36 7.35986 13.79V5C7.35986 4.59 7.69986 4.25 8.10986 4.25C8.51986 4.25 8.85986 4.59 8.85986 5V13.79C8.85986 14.53 9.46984 15.14 10.2098 15.14H18.9999C19.4099 15.14 19.7499 15.48 19.7499 15.89C19.7499 16.3 19.4099 16.64 18.9999 16.64Z" fill="white"/> <path d="M15.8901 19.7501C15.4801 19.7501 15.1401 19.4101 15.1401 19.0001V15.8901C15.1401 15.4801 15.4801 15.1401 15.8901 15.1401C16.3001 15.1401 16.6401 15.4801 16.6401 15.8901V19.0001C16.6401 19.4101 16.3001 19.7501 15.8901 19.7501Z" fill="white"/> <path d="M15.89 13.5299C15.48 13.5299 15.14 13.1899 15.14 12.7799V10.2099C15.14 9.46986 14.53 8.85986 13.79 8.85986H11.22C10.81 8.85986 10.47 8.51986 10.47 8.10986C10.47 7.69986 10.81 7.35986 11.22 7.35986H13.79C15.36 7.35986 16.64 8.63986 16.64 10.2099V12.7799C16.64 13.1899 16.3 13.5299 15.89 13.5299Z" fill="white"/> <path d="M8.10999 8.85986H5C4.59 8.85986 4.25 8.51986 4.25 8.10986C4.25 7.69986 4.59 7.35986 5 7.35986H8.10999C8.51999 7.35986 8.85999 7.69986 8.85999 8.10986C8.85999 8.51986 8.52999 8.85986 8.10999 8.85986Z" fill="white"/> <path d="M8.35999 22.7501C4.43999 22.7501 1.25 19.5601 1.25 15.6401C1.25 15.2301 1.59 14.8901 2 14.8901C2.41 14.8901 2.75 15.2301 2.75 15.6401C2.75 18.2401 4.53005 20.4301 6.93005 21.0701L6.77002 20.8001C6.56002 20.4401 6.67003 19.9801 7.03003 19.7701C7.39003 19.5601 7.85006 19.6701 8.06006 20.0301L9.01001 21.6201C9.15001 21.8501 9.15002 22.1401 9.02002 22.3701C8.88002 22.6001 8.62999 22.7501 8.35999 22.7501Z" fill="white"/> <path d="M22.0001 9.11024C21.5901 9.11024 21.2501 8.77024 21.2501 8.36024C21.2501 5.76024 19.47 3.57024 17.07 2.93024L17.2301 3.20023C17.4401 3.55023 17.3301 4.02024 16.9701 4.23024C16.6101 4.44024 16.15 4.33024 15.94 3.97024L14.9901 2.38023C14.8501 2.15023 14.8501 1.86024 14.9801 1.62024C15.1101 1.39024 15.3601 1.24023 15.6301 1.24023C19.5501 1.24023 22.7401 4.43023 22.7401 8.35023C22.7501 8.78023 22.4101 9.11024 22.0001 9.11024Z" fill="white"/> </g> <defs> <clipPath id="clip0_4482_1603"> <rect width="24" height="24" fill="white"/> </clipPath> </defs> </svg>
