<svg width="24" height="24" viewBox="0 0 24 24" fill="none" xmlns="http://www.w3.org/2000/svg"> <g clip-path="url(#clip0_4482_4692)"> <path d="M14.38 10C14.38 9.55 13.93 9 13.38 9H9.75V11H13.38C13.93 11 14.38 10.55 14.38 10Z" fill="white"/> <path d="M19.5301 4.67031L13.9601 2.39031C12.7101 1.88031 11.3001 1.88031 10.0501 2.39031L4.48009 4.67031C3.71009 4.98031 3.09009 5.91032 3.09009 6.73032V11.1203C3.09009 16.0103 6.64009 20.5903 11.4901 21.9303C11.8201 22.0203 12.1801 22.0203 12.5101 21.9303C17.3601 20.5903 20.9101 16.0103 20.9101 11.1203L20.9201 6.73032C20.9201 5.91032 20.2901 4.98031 19.5301 4.67031ZM14.0001 16.0003H12.5501V17.0003C12.5501 17.4103 12.2101 17.7503 11.8001 17.7503C11.3901 17.7503 11.0501 17.4103 11.0501 17.0003V16.0003H9.00009C8.59009 16.0003 8.25009 15.6603 8.25009 15.2503V11.7503V8.25031C8.25009 7.84031 8.59009 7.50031 9.00009 7.50031H11.0501V6.50031C11.0501 6.09031 11.3901 5.75031 11.8001 5.75031C12.2101 5.75031 12.5501 6.09031 12.5501 6.50031V7.50031H13.3801C14.7101 7.50031 15.8801 8.67031 15.8801 10.0003C15.8801 10.5103 15.7201 10.9903 15.4601 11.3903C16.2301 11.8303 16.7501 12.6103 16.7501 13.5003C16.7501 14.8803 15.5201 16.0003 14.0001 16.0003Z" fill="white"/> <path d="M14 12.5H13.38H9.75V14.5H14C14.69 14.5 15.25 14.05 15.25 13.5C15.25 12.95 14.69 12.5 14 12.5Z" fill="white"/> </g> <defs> <clipPath id="clip0_4482_4692"> <rect width="24" height="24" fill="white"/> </clipPath> </defs> </svg>
