<svg width="24" height="24" viewBox="0 0 24 24" fill="none" xmlns="http://www.w3.org/2000/svg"> <g clip-path="url(#clip0_4482_14013)"> <path d="M22.6201 3.93003C22.2801 3.33003 19.7401 2.21003 18.0001 3.22003C17.3401 3.60003 17.0201 4.57003 17.4401 5.30003C17.5501 5.49003 17.6901 5.64003 17.8501 5.77003L16.0601 6.80003C13.6601 3.33003 9.09011 1.86003 4.69011 3.23003C4.36011 3.33003 4.02011 3.28003 3.74011 3.09003C3.49011 2.91003 3.34011 2.64003 3.32011 2.33003C3.30011 1.92003 2.93011 1.60003 2.53011 1.62003C2.12011 1.64003 1.80011 2.00003 1.82011 2.41003C1.86011 3.18003 2.25011 3.88003 2.88011 4.32003C2.96011 4.38003 3.05011 4.41003 3.13011 4.46003V11.65L2.17011 12.21C1.70011 12.48 1.44011 12.98 1.47011 13.52C1.51011 14.06 1.84011 14.52 2.34011 14.72L3.22011 15.08L3.08011 16.03C3.00011 16.57 3.23011 17.09 3.68011 17.39C3.92011 17.55 4.19011 17.63 4.47011 17.63C4.71011 17.63 4.95011 17.57 5.17011 17.44L6.15011 16.88L12.3701 20.52C12.3701 20.6 12.3601 20.68 12.3701 20.76C12.4301 21.53 12.8401 22.21 13.4901 22.64C13.6201 22.72 13.7601 22.76 13.9001 22.76C14.1401 22.76 14.3801 22.64 14.5301 22.42C14.7601 22.07 14.6601 21.61 14.3101 21.38C14.0501 21.21 13.8901 20.94 13.8601 20.63C13.8501 20.49 13.8701 20.35 13.9101 20.22C13.9701 20.04 14.0701 19.88 14.2101 19.75C17.6001 16.61 18.6101 11.93 16.8001 8.11003L18.6301 7.06003C18.6501 7.29003 18.7201 7.53003 18.8401 7.75003C19.2601 8.48003 20.2601 8.69003 20.9201 8.31003C22.6601 7.30003 22.9601 4.55003 22.6201 3.95003V3.93003ZM4.63011 4.76003C4.80011 4.74003 4.96011 4.72003 5.12011 4.66003C8.85011 3.51003 12.6901 4.69003 14.7501 7.55003L7.90011 11.51L5.58011 10.57C5.37011 10.48 5.12011 10.5 4.92011 10.62L4.63011 10.79V4.76003ZM13.1901 18.64C13.0501 18.77 12.9401 18.9 12.8401 19.05L7.64011 16.01L7.91011 15.85C8.11011 15.74 8.24011 15.54 8.28011 15.31L8.65011 12.8L15.5001 8.85003C16.9501 12.06 16.0601 15.98 13.1901 18.64Z" fill="white"/> </g> <defs> <clipPath id="clip0_4482_14013"> <rect width="24" height="24" fill="white"/> </clipPath> </defs> </svg>
