<svg width="24" height="24" viewBox="0 0 24 24" fill="none" xmlns="http://www.w3.org/2000/svg"> <g clip-path="url(#clip0_4482_9443)"> <path d="M8.75043 2.25H5.96043C3.74043 2.25 1.94043 4.1 1.94043 6.38V13.47H5.23043C7.51043 10.21 8.76043 6.24 8.75043 2.25Z" fill="white"/> <path d="M6.74062 16.81H17.2606L17.6106 14.4C15.1106 10.87 13.7306 6.58 13.7506 2.25H10.2506C10.2706 6.57 8.89062 10.87 6.39062 14.4L6.74062 16.81Z" fill="white"/> <path d="M18.0401 2.25H15.2501C15.2401 6.24 16.4901 10.21 18.7701 13.47H22.0601V6.38C22.0601 4.1 20.2601 2.25 18.0401 2.25Z" fill="white"/> <path d="M1.94043 14.97V17.62C1.94043 19.89 3.72043 21.73 5.93043 21.75L4.96043 14.97H1.94043Z" fill="white"/> <path d="M18.0703 21.75C20.2803 21.73 22.0603 19.89 22.0603 17.62V14.97H19.0403L18.0703 21.75Z" fill="white"/> <path d="M6.9502 18.3101L7.4402 21.7501H16.5602L17.0502 18.3101H6.9502Z" fill="white"/> </g> <defs> <clipPath id="clip0_4482_9443"> <rect width="24" height="24" fill="white"/> </clipPath> </defs> </svg>
