<svg width="24" height="24" viewBox="0 0 24 24" fill="none" xmlns="http://www.w3.org/2000/svg"> <g clip-path="url(#clip0_4482_12145)"> <path d="M20.6501 21.1299H16.3301C15.9201 21.1299 15.5801 20.7899 15.5801 20.3799C15.5801 19.9699 15.9201 19.6299 16.3301 19.6299H20.6501C21.0601 19.6299 21.4001 19.9699 21.4001 20.3799C21.4001 20.7899 21.0601 21.1299 20.6501 21.1299Z" fill="white"/> <path d="M7.67961 21.1299H3.34961C2.93961 21.1299 2.59961 20.7899 2.59961 20.3799C2.59961 19.9699 2.93961 19.6299 3.34961 19.6299H7.67961C8.08961 19.6299 8.42961 19.9699 8.42961 20.3799C8.42961 20.7899 8.08961 21.1299 7.67961 21.1299Z" fill="white"/> <path d="M14.15 21.4699C14.45 21.7599 14.45 22.2399 14.15 22.5299C14.01 22.6799 13.81 22.7499 13.62 22.7499C13.43 22.7499 13.24 22.6799 13.09 22.5299L12 21.4399L10.91 22.5299C10.76 22.6799 10.57 22.7499 10.38 22.7499C10.19 22.7499 9.99 22.6799 9.85 22.5299C9.55 22.2399 9.55 21.7599 9.85 21.4699L10.94 20.3799L9.85 19.2899C9.55 18.9899 9.55 18.5199 9.85 18.2299C10.14 17.9299 10.62 17.9299 10.91 18.2299L12 19.3199L13.09 18.2299C13.39 17.9299 13.86 17.9299 14.15 18.2299C14.45 18.5199 14.45 18.9899 14.15 19.2899L13.06 20.3799L14.15 21.4699Z" fill="white"/> <path d="M19.5697 9.64973V6.96973C17.6597 7.76973 14.7697 8.14973 11.9997 8.14973C9.22969 8.14973 6.33969 7.76973 4.42969 6.96973V9.64973C5.56969 10.2597 8.13969 10.9797 11.9997 10.9797C15.8597 10.9797 18.4297 10.2597 19.5697 9.64973Z" fill="white"/> <path d="M11.9997 12.4798C9.22969 12.4798 6.33969 12.0998 4.42969 11.2998V13.3498C4.42969 14.8398 4.99969 16.0498 11.9997 16.0498C18.9997 16.0498 19.5697 14.8398 19.5697 13.3498V11.2998C17.6597 12.0998 14.7697 12.4798 11.9997 12.4798Z" fill="white"/> <path d="M11.9997 6.65C15.8597 6.65 18.4297 5.93 19.5697 5.32V4.7C19.5697 3.21 16.1797 2 11.9997 2C7.81969 2 4.42969 3.21 4.42969 4.7V5.32C5.56969 5.93 8.13969 6.65 11.9997 6.65Z" fill="white"/> </g> <defs> <clipPath id="clip0_4482_12145"> <rect width="24" height="24" fill="white"/> </clipPath> </defs> </svg>
