<svg width="24" height="24" viewBox="0 0 24 24" fill="none" xmlns="http://www.w3.org/2000/svg"> <g clip-path="url(#clip0_4482_1423)"> <path d="M9.78003 17.5699H4.21997C4.11997 17.5699 4.00002 17.5699 3.90002 17.5499C2.40002 17.3999 1.25 16.1299 1.25 14.5999V9.39993C1.25 7.85993 2.40005 6.58993 3.93005 6.43993C4.00005 6.42993 4.11997 6.42993 4.21997 6.42993H9.78003C11.42 6.42993 12.75 7.75993 12.75 9.39993V14.5999C12.75 16.2399 11.42 17.5699 9.78003 17.5699ZM4.17004 7.92993C4.15004 7.92993 4.12999 7.92993 4.10999 7.92993C3.33999 8.00993 2.76001 8.64993 2.76001 9.39993V14.5999C2.76001 15.3499 3.33996 15.9899 4.07996 16.0599C4.14996 16.0699 4.18998 16.0699 4.22998 16.0699H9.79004C10.6 16.0699 11.26 15.4099 11.26 14.5999V9.39993C11.26 8.58993 10.6 7.92993 9.79004 7.92993H4.22998C4.19998 7.92993 4.18004 7.92993 4.17004 7.92993Z" fill="white"/> <path d="M16.5 2.29004H8C5.8 2.29004 4 4.09004 4 6.29004V7.19004C4.07 7.18004 4.14997 7.18004 4.21997 7.18004H9.78003C11 7.18004 12 8.18004 12 9.40004V14.6C12 15.82 11 16.82 9.78003 16.82H4.21997C4.14997 16.82 4.07 16.82 4 16.81V17.71C4 19.91 5.8 21.71 8 21.71H16.5C18.7 21.71 20.5 19.91 20.5 17.71V6.29004C20.5 4.09004 18.7 2.29004 16.5 2.29004ZM17.59 8.87004H16.62C15.14 8.87004 13.9301 7.66004 13.9301 6.18004V5.21004C13.9301 4.80004 14.2701 4.46004 14.6801 4.46004C15.0901 4.46004 15.4301 4.80004 15.4301 5.21004V6.18004C15.4301 6.84004 15.96 7.37004 16.62 7.37004H17.59C18 7.37004 18.34 7.71004 18.34 8.12004C18.34 8.53004 18 8.87004 17.59 8.87004Z" fill="white"/> <path d="M5.74997 13.9999C5.55997 13.9999 5.36994 13.9299 5.21994 13.7799C4.92994 13.4899 4.92994 13.0099 5.21994 12.7199L7.71994 10.2199C8.00994 9.92994 8.49 9.92994 8.78 10.2199C9.07 10.5099 9.07 10.9899 8.78 11.2799L6.28 13.7799C6.13 13.9299 5.93997 13.9999 5.74997 13.9999Z" fill="white"/> <path d="M8.24997 13.9999C8.05997 13.9999 7.86994 13.9299 7.71994 13.7799L5.21994 11.2799C4.92994 10.9899 4.92994 10.5099 5.21994 10.2199C5.50994 9.92994 5.99 9.92994 6.28 10.2199L8.78 12.7199C9.07 13.0099 9.07 13.4899 8.78 13.7799C8.63 13.9299 8.43997 13.9999 8.24997 13.9999Z" fill="white"/> </g> <defs> <clipPath id="clip0_4482_1423"> <rect width="24" height="24" fill="white"/> </clipPath> </defs> </svg>
