<svg width="24" height="24" viewBox="0 0 24 24" fill="none" xmlns="http://www.w3.org/2000/svg"> <g clip-path="url(#clip0_2085_388425)"> <path d="M21.9601 9.86987C21.8801 9.47987 21.6901 9.12987 21.4101 8.84987C21.1301 8.56987 20.7701 8.37987 20.3901 8.29987C20.0001 8.21987 19.6001 8.25987 19.2401 8.40987C19.205 8.42738 19.1719 8.44681 19.1391 8.46732C19.0585 8.5176 18.9583 8.52335 18.8738 8.48005L11.8332 4.87389C11.7159 4.81383 11.661 4.6778 11.6793 4.54733C11.6963 4.4264 11.7001 4.30314 11.7001 4.17987C11.7001 3.88987 11.6401 3.60987 11.5401 3.34987C11.4401 3.08987 11.2701 2.84987 11.0701 2.63987C10.8701 2.43987 10.6301 2.27987 10.3601 2.16987C10.1001 2.05987 9.81006 1.99987 9.53006 2.00987C9.24006 2.00987 8.96006 2.06987 8.70006 2.17987C8.44006 2.28987 8.20006 2.44987 8.00006 2.65987L7.17543 3.4845C7.11539 3.54454 7.0306 3.57284 6.94653 3.56089L3.35006 3.04987C3.11006 3.01987 2.87006 3.04987 2.65006 3.16987C2.44006 3.27987 2.26006 3.45987 2.15006 3.67987C2.04006 3.89987 2.00006 4.13987 2.04006 4.37987C2.08006 4.61987 2.19006 4.83987 2.36006 5.00987L8.71006 11.3599C8.93006 11.5799 9.22006 11.6999 9.53006 11.6999C9.84006 11.6999 10.1301 11.5799 10.3501 11.3599C10.4801 11.2299 10.5701 11.0799 10.6301 10.9099C10.6901 10.7399 10.7001 10.5599 10.6801 10.3799L10.169 6.7834C10.1571 6.69933 10.1854 6.61454 10.2454 6.5545L10.6542 6.14573C10.736 6.06396 10.8638 6.06572 10.9601 6.12987L17.8991 9.68213C18.0109 9.73936 18.0665 9.86581 18.0457 9.98966C18.0298 10.0838 18.0201 10.1785 18.0201 10.2699C18.0201 10.7999 18.2301 11.3099 18.6001 11.6799C18.6623 11.7421 18.7299 11.7989 18.8015 11.8518C18.915 11.9357 18.9612 12.0874 18.898 12.2136L16.2701 17.4599C16.2064 17.5713 16.1091 17.6709 15.9809 17.6641C15.8173 17.6555 15.6537 17.6531 15.4901 17.6599C14.4201 17.6099 13.3601 17.8899 12.4601 18.4599C11.5601 19.0399 10.8601 19.8799 10.4601 20.8699C10.4201 20.9999 10.4101 21.1399 10.4301 21.2699C10.4501 21.4099 10.5001 21.5299 10.5901 21.6399C10.6701 21.7499 10.7801 21.8399 10.9001 21.8999C11.0201 21.9599 11.1601 21.9899 11.2901 21.9899H19.7001C19.8401 21.9899 19.9701 21.9499 20.0901 21.8899C20.2101 21.8299 20.3201 21.7399 20.4001 21.6299C20.4801 21.5199 20.5301 21.3899 20.5601 21.2599C20.5801 21.1199 20.5701 20.9899 20.5301 20.8599C20.1301 19.8699 19.4301 19.0299 18.5301 18.4499C18.3426 18.3319 18.1456 18.2283 17.9456 18.1359C17.8034 18.0702 17.7395 17.9007 17.8095 17.7606L20.5489 12.2723C20.5816 12.2068 20.6397 12.1582 20.7084 12.133C20.8585 12.078 21.0008 12.0087 21.1301 11.9199C21.4601 11.6999 21.7101 11.3899 21.8701 11.0199C22.0201 10.6599 22.0401 10.2499 21.9601 9.86987Z" fill="white"/> </g> <defs> <clipPath id="clip0_2085_388425"> <rect width="24" height="24" fill="white"/> </clipPath> </defs> </svg>
