<svg width="24" height="24" viewBox="0 0 24 24" fill="none" xmlns="http://www.w3.org/2000/svg"> <path d="M1.39544 1.39495C1.72934 1.06106 2.27053 1.06106 2.60443 1.39495L22.6044 21.395C22.9383 21.7289 22.9383 22.27 22.6044 22.6039C22.2705 22.9378 21.7293 22.9378 21.3954 22.6039L1.39544 2.60394C1.06154 2.27004 1.06154 1.72885 1.39544 1.39495Z" fill="white"/> <path d="M22.0001 14.31L22.0001 22L14.3101 22" fill="white"/> <path d="M13.5199 22.3271C13.3876 22.0077 13.4609 21.64 13.7054 21.3955L21.3949 13.7051C21.6394 13.4605 22.008 13.3882 22.3275 13.5205C22.6466 13.6529 22.8547 13.9641 22.8548 14.3096L22.8548 22C22.8548 22.4721 22.4723 22.8552 22.0003 22.8555L14.3099 22.8555C13.9641 22.8555 13.6522 22.6466 13.5199 22.3271ZM21.1449 21.1445L21.1449 16.375L16.3744 21.1445L21.1449 21.1445Z" fill="white"/> </svg>
