<svg width="24" height="24" viewBox="0 0 24 24" fill="none" xmlns="http://www.w3.org/2000/svg"> <g clip-path="url(#clip0_4482_4756)"> <path d="M12.62 2H6.08002C3.23002 2 2 3.63 2 6.08V14.25C2 16.7 3.23002 18.33 6.08002 18.33H12.62C15.48 18.33 16.7 16.7 16.7 14.25V6.08C16.7 3.63 15.48 2 12.62 2ZM6.77002 9.71L6.78998 9.7C7.62998 8.98 8.39 8.16 9.06 7.28C9.12 7.19 9.22002 7.14 9.33002 7.14C9.43002 7.14 9.53003 7.19 9.59003 7.28C10.26 8.16 11.02 8.98 11.87 9.7L11.88 9.71C11.96 9.78 12 9.87 12 9.97C12 10.07 11.96 10.17 11.88 10.23L11.87 10.24C11.02 10.96 10.26 11.78 9.59003 12.67C9.53003 12.75 9.43002 12.8 9.33002 12.8C9.22002 12.8 9.12 12.75 9.06 12.67C8.39 11.78 7.62998 10.96 6.78998 10.24L6.77002 10.23C6.70002 10.17 6.65002 10.07 6.65002 9.97C6.65002 9.87 6.70002 9.78 6.77002 9.71Z" fill="white"/> <path d="M17.7299 6.41972L16.7 6.21973V7.74973L17.4199 7.88972C19.5999 8.33972 20.28 9.77973 19.9 11.6497L18.6199 17.8697C18.2999 19.4497 17.3999 20.4497 15.8099 20.4497C15.5199 20.4497 15.2099 20.4197 14.8799 20.3497L9.88995 19.3197C9.01995 19.1397 8.38991 18.7997 7.96991 18.3297H6.18994C6.60994 19.2597 7.53991 20.3797 9.59991 20.7897L14.5699 21.8197C14.9999 21.9097 15.4199 21.9497 15.8099 21.9497C18.0399 21.9497 19.6 20.5697 20.09 18.1697L21.3699 11.9497C21.9399 9.11972 20.5399 7.00972 17.7299 6.41972Z" fill="white"/> </g> <defs> <clipPath id="clip0_4482_4756"> <rect width="24" height="24" fill="white"/> </clipPath> </defs> </svg>
