<svg width="24" height="24" viewBox="0 0 24 24" fill="none" xmlns="http://www.w3.org/2000/svg"> <g clip-path="url(#clip0_2085_389297)"> <path d="M18.33 22.6998H5.66997C5.27997 22.6998 4.96997 22.3898 4.96997 21.9998C4.96997 21.6098 5.27997 21.2998 5.66997 21.2998H18.34C18.73 21.2998 19.04 21.6098 19.04 21.9998C19.04 22.3898 18.73 22.6998 18.34 22.6998H18.33Z" fill="white"/> <path d="M15.0001 5.33C15.0001 6.13 14.4901 6.84 13.7301 7.09C12.3301 7.56 10.1101 8.3 9.00008 8.67C8.67104 8.77433 8.33008 8.52997 8.33008 8.18479V5.33C8.33008 4.45 8.68008 3.6 9.31008 2.98C9.93008 2.35 10.7801 2 11.6701 2C12.5601 2 13.4001 2.35 14.0201 2.98C14.6501 3.6 15.0001 4.45 15.0001 5.33Z" fill="white"/> <path d="M17.6701 22.0001H6.33008C6.33008 21.2901 6.61008 20.6101 7.11008 20.1101C7.61008 19.6101 8.29008 19.3301 9.00008 19.3301H15.0001C15.7101 19.3301 16.3801 19.6101 16.8801 20.1101C17.3801 20.6101 17.6701 21.2901 17.6701 22.0001Z" fill="white"/> <path d="M15 5.33008V19.3301H9V8.67008C10.11 8.30008 12.33 7.56008 13.73 7.09008C14.49 6.84008 15 6.13008 15 5.33008Z" fill="white"/> </g> <defs> <clipPath id="clip0_2085_389297"> <rect width="24" height="24" fill="white"/> </clipPath> </defs> </svg>
