<svg width="24" height="24" viewBox="0 0 24 24" fill="none" xmlns="http://www.w3.org/2000/svg"> <g clip-path="url(#clip0_4418_8197)"> <path d="M18.6899 11.5308C18.1199 11.3808 17.4499 11.3008 16.6499 11.3008C15.5399 11.3008 15.1299 11.5708 14.5599 12.0008C14.5299 12.0208 14.4999 12.0508 14.4699 12.0808L13.5199 13.0908C12.7199 13.9308 11.2799 13.9408 10.4799 13.0808L9.52993 12.0808C9.49993 12.0508 9.46993 12.0208 9.43993 12.0008C8.86993 11.5708 8.45993 11.3008 7.34993 11.3008C6.54993 11.3008 5.87993 11.3808 5.30993 11.5308C2.92993 12.1708 2.92993 14.0608 2.92993 15.7208V16.6508C2.92993 19.1608 2.92993 22.0008 8.27993 22.0008H15.7199C19.2699 22.0008 21.0699 20.2008 21.0699 16.6508V15.7208C21.0699 14.0608 21.0699 12.1708 18.6899 11.5308ZM14.3299 18.4008H9.66993C9.28993 18.4008 8.97993 18.0908 8.97993 17.7008C8.97993 17.3108 9.28993 17.0008 9.66993 17.0008H14.3299C14.7099 17.0008 15.0199 17.3108 15.0199 17.7008C15.0199 18.0908 14.7099 18.4008 14.3299 18.4008Z" fill="white"/> <path d="M19.21 6.42V10.12C19.17 10.1 19.12 10.09 19.08 10.08C18.38 9.89 17.59 9.8 16.65 9.8C15.11 9.8 14.39 10.25 13.65 10.81C13.55 10.88 13.46 10.97 13.38 11.05L12.42 12.06C12.33 12.16 12.17 12.22 12 12.22C11.83 12.22 11.67 12.16 11.57 12.05L10.63 11.06C10.54 10.96 10.44 10.87 10.34 10.8C9.62004 10.25 8.89004 9.8 7.35004 9.8C6.41004 9.8 5.62004 9.89 4.92004 10.08C4.88004 10.09 4.83004 10.1 4.79004 10.12V6.42C4.79004 4.35 4.79004 2 9.21004 2H14.79C19.21 2 19.21 4.35 19.21 6.42Z" fill="white"/> </g> <defs> <clipPath id="clip0_4418_8197"> <rect width="24" height="24" fill="white"/> </clipPath> </defs> </svg>
