<svg width="24" height="24" viewBox="0 0 24 24" fill="none" xmlns="http://www.w3.org/2000/svg"> <g clip-path="url(#clip0_4418_8229)"> <path d="M17.0199 21.2897L13.5399 19.5497C12.5699 19.0697 11.4399 19.0697 10.4699 19.5497L6.98991 21.2897C3.99991 22.7797 0.849913 19.5697 2.40991 16.6197L3.22991 15.0797C3.33991 14.8697 3.51991 14.6997 3.73991 14.5997L16.3799 8.89969C16.8999 8.66969 17.5099 8.87969 17.7699 9.37969L21.5799 16.6197C23.1399 19.5697 19.9999 22.7797 17.0199 21.2897Z" fill="white"/> <path d="M15.6 7.68953L7.31996 11.4195C6.38996 11.8395 5.44996 10.8395 5.92996 9.93953L8.96996 4.16953C10.26 1.71953 13.76 1.71953 15.05 4.16953L16.12 6.20953C16.4 6.75953 16.16 7.43953 15.6 7.68953Z" fill="white"/> </g> <defs> <clipPath id="clip0_4418_8229"> <rect width="24" height="24" fill="white"/> </clipPath> </defs> </svg>
