<svg width="24" height="24" viewBox="0 0 24 24" fill="none" xmlns="http://www.w3.org/2000/svg"> <g clip-path="url(#clip0_4482_1722)"> <path d="M12 6.75C10.48 6.75 9.25 5.52 9.25 4C9.25 2.48 10.48 1.25 12 1.25C13.52 1.25 14.75 2.48 14.75 4C14.75 5.52 13.52 6.75 12 6.75ZM12 2.75C11.31 2.75 10.75 3.31 10.75 4C10.75 4.69 11.31 5.25 12 5.25C12.69 5.25 13.25 4.69 13.25 4C13.25 3.31 12.69 2.75 12 2.75Z" fill="white"/> <path d="M7.06014 10.7502C6.90014 10.7502 6.74018 10.7002 6.60018 10.5902C6.27018 10.3402 6.21004 9.87019 6.46004 9.54019L9.99007 4.95019C10.2401 4.62019 10.7101 4.56019 11.0401 4.81019C11.3701 5.06019 11.43 5.53019 11.18 5.86019L7.64998 10.4502C7.49998 10.6502 7.28014 10.7502 7.06014 10.7502Z" fill="white"/> <path d="M17.0001 10.7499C16.7701 10.7499 16.55 10.6499 16.4 10.4599L12.9801 6.01985C12.7301 5.68985 12.7902 5.21986 13.1202 4.96986C13.4502 4.71986 13.92 4.77986 14.17 5.10986L17.5902 9.54986C17.8402 9.87986 17.78 10.3499 17.45 10.5999C17.32 10.6999 17.1601 10.7499 17.0001 10.7499Z" fill="white"/> <path opacity="0.97" d="M14.21 17.3501C14.12 17.3501 14.03 17.3801 13.96 17.4501C13.87 17.5401 13.8501 17.6401 13.8501 17.7001C13.8501 17.7601 13.86 17.8601 13.96 17.9501C14.05 18.0401 14.17 18.0601 14.21 18.0601C14.27 18.0601 14.37 18.0501 14.46 17.9501C14.55 17.8601 14.5701 17.7601 14.5701 17.7001C14.5701 17.6401 14.56 17.5401 14.46 17.4501C14.38 17.3901 14.3 17.3501 14.21 17.3501Z" fill="white"/> <path opacity="0.97" d="M17.5 9H6.5C4.3 9 2.5 10.8 2.5 13V18C2.5 20.2 4.3 22 6.5 22H17.5C19.7 22 21.5 20.2 21.5 18V13C21.5 10.8 19.7 9 17.5 9ZM7.93994 13.28C7.93994 12.79 8.13999 12.32 8.48999 11.98C9.17999 11.29 10.4001 11.28 11.1001 11.98C11.4501 12.33 11.6499 12.8 11.6399 13.3C11.6399 13.79 11.4401 14.26 11.0901 14.6C10.7401 14.95 10.28 15.14 9.78003 15.14H9.77002C9.28002 15.14 8.80997 14.94 8.46997 14.59C8.12997 14.25 7.93994 13.78 7.93994 13.28ZM10.1599 18.09C9.96991 18.09 9.77988 18.02 9.62988 17.87C9.33988 17.58 9.33988 17.1 9.62988 16.81L13.3101 13.13C13.6001 12.84 14.0801 12.84 14.3701 13.13C14.6601 13.42 14.6601 13.9 14.3701 14.19L10.6899 17.87C10.5499 18.02 10.3499 18.09 10.1599 18.09ZM15.51 19.02C15.16 19.37 14.7 19.56 14.2 19.56H14.1899C13.6999 19.56 13.2299 19.36 12.8899 19.01C12.5399 18.66 12.3501 18.19 12.3501 17.7C12.3501 17.21 12.5499 16.74 12.8999 16.4C13.6199 15.68 14.79 15.68 15.52 16.4C15.87 16.75 16.0701 17.22 16.0601 17.72C16.0601 18.21 15.86 18.67 15.51 19.02Z" fill="white"/> <path opacity="0.97" d="M9.79004 13.6502C9.85004 13.6502 9.95004 13.6402 10.04 13.5402C10.13 13.4502 10.1499 13.3502 10.1499 13.2902C10.1499 13.2302 10.14 13.1302 10.04 13.0402C9.97004 12.9702 9.88004 12.9302 9.79004 12.9302C9.70004 12.9302 9.61004 12.9702 9.54004 13.0402C9.45004 13.1302 9.42993 13.2302 9.42993 13.2902C9.42993 13.3502 9.44004 13.4502 9.54004 13.5402C9.64004 13.6402 9.74004 13.6502 9.79004 13.6502Z" fill="white"/> </g> <defs> <clipPath id="clip0_4482_1722"> <rect width="24" height="24" fill="white"/> </clipPath> </defs> </svg>
