<svg width="24" height="24" viewBox="0 0 24 24" fill="none" xmlns="http://www.w3.org/2000/svg"> <g clip-path="url(#clip0_2085_388763)"> <path d="M17.7699 8.51029C17.5199 8.51029 17.2799 8.39029 17.1299 8.16029C16.9099 7.81029 17.0099 7.35029 17.3699 7.13029C17.4699 7.07029 17.5599 7.01029 17.6599 6.94029C18.8799 6.05029 19.8899 4.82029 20.5799 3.38029C20.8499 2.83029 21.0299 2.32029 21.1499 1.83029C21.2399 1.43029 21.6499 1.18029 22.0499 1.27029C22.4499 1.36029 22.6999 1.77029 22.6099 2.17029C22.4699 2.77029 22.2499 3.37029 21.9399 4.02029C21.1499 5.68029 19.9799 7.11029 18.5499 8.14029C18.4299 8.23029 18.2999 8.31029 18.1799 8.39029C18.0599 8.47029 17.9199 8.51029 17.7799 8.51029H17.7699Z" fill="white"/> <path d="M6.12989 14.1801C5.99989 14.1801 5.86989 14.1501 5.75989 14.0801C5.39989 13.8701 5.27989 13.4101 5.47989 13.0601C5.89989 12.3401 6.47989 11.7501 6.93989 11.3201C8.23989 10.1301 9.87989 9.27009 11.6899 8.84009C12.2199 8.71009 12.7499 8.64009 13.2599 8.57009L13.4699 8.54009C13.8699 8.48009 14.2599 8.77009 14.3199 9.18009C14.3799 9.59009 14.0899 9.97009 13.6799 10.0301L13.4699 10.0601C12.9799 10.1301 12.5099 10.1901 12.0499 10.3101C10.4799 10.6901 9.06989 11.4201 7.96989 12.4301C7.58989 12.7901 7.10989 13.2701 6.78989 13.8201C6.64989 14.0601 6.39989 14.2001 6.13989 14.2001L6.12989 14.1801Z" fill="white"/> <path d="M14.6 7.02023C15.65 7.02023 16.49 6.17023 16.49 5.13023C16.49 4.09023 15.64 3.24023 14.6 3.24023C13.56 3.24023 12.71 4.09023 12.71 5.13023C12.71 6.17023 13.56 7.02023 14.6 7.02023Z" fill="white"/> <path d="M4.11002 22.7499C3.71002 22.7499 3.38002 22.4399 3.36002 22.0299C3.34002 21.6199 3.66002 21.2699 4.07002 21.2499C4.27002 21.2399 8.87002 20.9299 11.34 15.7199C11.52 15.3499 11.96 15.1899 12.34 15.3599C12.71 15.5399 12.87 15.9799 12.7 16.3599C9.83002 22.4199 4.38002 22.7399 4.15002 22.7499C4.14002 22.7499 4.13002 22.7499 4.11002 22.7499Z" fill="white"/> <path d="M17.77 7.75977C16.87 12.0798 14.58 14.6998 12.02 16.0398C12.82 14.3698 13.4 12.0298 13.57 9.26977C14.22 9.16977 14.87 9.06977 15.5 8.86977C16.3 8.60977 17.07 8.23977 17.77 7.75977Z" fill="white"/> <path d="M12.02 16.79C11.83 16.79 11.64 16.72 11.5 16.58C11.27 16.36 11.2 16.01 11.34 15.72C12.14 14.06 12.66 11.75 12.82 9.22996C12.84 8.87996 13.11 8.58996 13.46 8.52996C14.1 8.42996 14.7 8.33996 15.28 8.15996C16.03 7.91996 16.73 7.57996 17.35 7.14996C17.6 6.97996 17.93 6.97996 18.19 7.14996C18.45 7.31996 18.57 7.62996 18.51 7.92996C17.43 13.11 14.58 15.57 12.37 16.72C12.26 16.78 12.14 16.81 12.02 16.81V16.79ZM14.27 9.91996C14.14 11.41 13.89 12.83 13.54 14.09C14.71 13.05 15.85 11.52 16.6 9.25996C16.32 9.37996 16.03 9.48996 15.73 9.58996C15.24 9.74996 14.75 9.83996 14.27 9.91996Z" fill="white"/> <path d="M4.98002 18.35C3.28002 18.35 2.09002 18.13 1.99002 18.11C1.58002 18.03 1.32002 17.64 1.39002 17.23C1.47002 16.82 1.86002 16.55 2.27002 16.63C2.32002 16.64 7.45002 17.57 11.67 15.36C12.04 15.17 12.49 15.31 12.68 15.68C12.87 16.05 12.73 16.5 12.36 16.69C9.80002 18.03 7.02002 18.34 4.98002 18.34V18.35Z" fill="white"/> </g> <defs> <clipPath id="clip0_2085_388763"> <rect width="24" height="24" fill="white"/> </clipPath> </defs> </svg>
