<svg width="24" height="24" viewBox="0 0 24 24" fill="none" xmlns="http://www.w3.org/2000/svg"> <g clip-path="url(#clip0_4418_8496)"> <path d="M20.71 8.11949V17.5295C20.71 19.9895 18.7 21.9995 16.24 21.9995H7.76004C5.30004 21.9995 3.29004 19.9895 3.29004 17.5295V8.11949C3.29004 6.40949 4.25004 4.91949 5.66004 4.16949C6.15004 3.90949 6.76004 4.25949 6.76004 4.81949C6.76004 6.40949 8.06004 7.70949 9.65004 7.70949H14.35C15.94 7.70949 17.24 6.40949 17.24 4.81949C17.24 4.25949 17.84 3.90949 18.34 4.16949C19.75 4.91949 20.71 6.40949 20.71 8.11949Z" fill="white"/> <path d="M14.35 2H9.65001C8.61001 2 7.76001 2.84 7.76001 3.88V4.82C7.76001 5.86 8.60001 6.7 9.64001 6.7H14.35C15.39 6.7 16.23 5.86 16.23 4.82V3.88C16.24 2.84 15.39 2 14.35 2Z" fill="white"/> </g> <defs> <clipPath id="clip0_4418_8496"> <rect width="24" height="24" fill="white"/> </clipPath> </defs> </svg>
