<svg width="24" height="24" viewBox="0 0 24 24" fill="none" xmlns="http://www.w3.org/2000/svg"> <g clip-path="url(#clip0_2085_391816)"> <path d="M22.75 12.4395C22.75 12.8495 22.41 13.1895 22 13.1895C21.59 13.1895 21.25 12.8495 21.25 12.4395C21.25 7.32945 17.1 3.18945 12 3.18945C7.28002 3.18945 3.33002 6.70945 2.81002 11.3995C2.80002 11.4995 2.84002 11.5695 2.87002 11.5995C2.90002 11.6295 2.96002 11.6895 3.06002 11.6895H9.10002C9.51002 11.6895 9.85002 12.0195 9.85002 12.4395C9.85002 12.8595 9.51002 13.1895 9.10002 13.1895H3.06002C2.73002 13.1895 2.41002 13.0895 2.13002 12.9195C1.99002 12.8295 1.86002 12.7195 1.75002 12.5995C1.42002 12.2295 1.26002 11.7295 1.32002 11.2295C1.93002 5.78945 6.52002 1.68945 12 1.68945C17.93 1.68945 22.75 6.50945 22.75 12.4395Z" fill="white"/> <path d="M15.5801 11.6993C15.2401 10.0393 13.7701 8.7793 12.0001 8.7793C10.2301 8.7793 8.7701 10.0293 8.4201 11.6893C8.3801 11.9293 8.3501 12.1793 8.3501 12.4393C8.3501 12.6993 8.3801 12.9493 8.4301 13.1893C8.7801 14.8393 10.2401 16.0893 12.0001 16.0893C13.7601 16.0893 15.2101 14.8593 15.5701 13.2193C15.6201 12.9693 15.6501 12.7093 15.6501 12.4393C15.6501 12.1893 15.6201 11.9393 15.5801 11.6993ZM12.0001 14.5893C10.8101 14.5893 9.8501 13.6193 9.8501 12.4393C9.8501 11.2593 10.8101 10.2793 12.0001 10.2793C13.1901 10.2793 14.1501 11.2493 14.1501 12.4393C14.1501 13.6293 13.1901 14.5893 12.0001 14.5893Z" fill="white"/> <path d="M22.7499 12.4395V15.7495C22.7499 16.8595 21.8499 17.7495 20.7499 17.7495C20.5799 17.7495 20.4199 17.7295 20.2599 17.6895V20.3195C20.2599 21.4195 19.3699 22.3095 18.2699 22.3095C17.4899 22.3095 16.8199 21.8695 16.4999 21.2195C16.3499 20.9495 16.2699 20.6395 16.2699 20.3195V14.0995C16.2699 13.6595 15.9699 13.3095 15.5699 13.2195C15.5099 13.1995 15.4299 13.1895 15.3599 13.1895H14.8999C14.4899 13.1895 14.1499 12.8495 14.1499 12.4395C14.1499 12.0295 14.4899 11.6895 14.8999 11.6895H15.3599C15.4399 11.6895 15.5099 11.6895 15.5799 11.6995C16.8099 11.8095 17.7699 12.8495 17.7699 14.0995V20.3195C17.7699 20.5895 17.9899 20.8095 18.2699 20.8095C18.5499 20.8095 18.7599 20.5895 18.7599 20.3195V15.7495C18.7599 15.3395 19.0999 14.9995 19.5099 14.9995C19.9199 14.9995 20.2599 15.3395 20.2599 15.7495C20.2599 16.0295 20.4799 16.2495 20.7499 16.2495C21.0199 16.2495 21.2499 16.0295 21.2499 15.7495V12.4395C21.2499 12.0195 21.5899 11.6895 21.9999 11.6895C22.4099 11.6895 22.7499 12.0195 22.7499 12.4395Z" fill="white"/> <path d="M16.2701 14.0995V19.6395C14.9801 20.4095 13.5201 20.8095 12.0001 20.8095C7.63015 20.8095 4.03015 17.4595 3.65015 13.1895H8.43015C8.78015 14.8395 10.2401 16.0895 12.0001 16.0895C13.7601 16.0895 15.2101 14.8595 15.5701 13.2195C15.9701 13.3095 16.2701 13.6595 16.2701 14.0995Z" fill="white"/> <path d="M17.7701 20.0595C17.7701 20.2995 17.6501 20.5395 17.4301 20.6795C17.1301 20.8795 16.8201 21.0595 16.5001 21.2195C15.1201 21.9395 13.5801 22.3095 12.0001 22.3095C6.71012 22.3095 2.38012 18.1395 2.13012 12.9195C2.12012 12.7595 2.12012 12.5995 2.12012 12.4395C2.12012 12.0195 2.46012 11.6895 2.87012 11.6895C3.28012 11.6895 3.62012 12.0195 3.62012 12.4395C3.62012 12.6895 3.63012 12.9395 3.65012 13.1895C4.03012 17.4595 7.63012 20.8095 12.0001 20.8095C13.5201 20.8095 14.9801 20.4095 16.2701 19.6395C16.3801 19.5795 16.5001 19.4995 16.6101 19.4295C16.9501 19.1995 17.4201 19.2995 17.6501 19.6495C17.7301 19.7695 17.7701 19.9195 17.7701 20.0595Z" fill="white"/> <path d="M12 6.95898C11.59 6.95898 11.25 6.61898 11.25 6.20898V4.95898C11.25 4.54898 11.59 4.20898 12 4.20898C12.41 4.20898 12.75 4.54898 12.75 4.95898V6.20898C12.75 6.61898 12.41 6.95898 12 6.95898Z" fill="white"/> <path d="M14.73 7.99886C14.42 7.99886 14.14 7.80886 14.03 7.50886C13.89 7.11886 14.09 6.68886 14.48 6.54886L15.65 6.11886C16.04 5.97886 16.47 6.17886 16.61 6.56886C16.75 6.95886 16.55 7.38886 16.16 7.52886L14.99 7.95886C14.91 7.98886 14.82 7.99886 14.73 7.99886Z" fill="white"/> <path d="M18.64 10.6998C18.45 10.6998 18.26 10.6298 18.11 10.4798L17.23 9.59977C16.94 9.30977 16.94 8.82977 17.23 8.53977C17.52 8.24977 18 8.24977 18.29 8.53977L19.17 9.41977C19.46 9.70977 19.46 10.1898 19.17 10.4798C19.02 10.6298 18.83 10.6998 18.64 10.6998Z" fill="white"/> <path d="M19.1601 14.1397C19.0301 14.1397 18.9001 14.1097 18.7901 14.0397C18.4301 13.8297 18.3101 13.3697 18.5201 13.0197L19.1401 11.9397C19.3501 11.5797 19.8101 11.4597 20.1601 11.6697C20.5201 11.8797 20.6401 12.3397 20.4301 12.6897L19.8101 13.7697C19.6701 14.0097 19.4201 14.1497 19.1601 14.1497V14.1397Z" fill="white"/> <path d="M9.2701 7.99886C9.1801 7.99886 9.1001 7.98886 9.0101 7.95886L7.8401 7.52886C7.4501 7.38886 7.2501 6.95886 7.3901 6.56886C7.5301 6.17886 7.9601 5.97886 8.3501 6.11886L9.5201 6.54886C9.9101 6.68886 10.1101 7.11886 9.9701 7.50886C9.8601 7.80886 9.5701 7.99886 9.2701 7.99886Z" fill="white"/> <path d="M5.36005 10.6998C5.17005 10.6998 4.98005 10.6298 4.83005 10.4798C4.54005 10.1898 4.54005 9.70977 4.83005 9.41977L5.71005 8.53977C6.00005 8.24977 6.48005 8.24977 6.77005 8.53977C7.06005 8.82977 7.06005 9.30977 6.77005 9.59977L5.89005 10.4798C5.74005 10.6298 5.55005 10.6998 5.36005 10.6998Z" fill="white"/> </g> <defs> <clipPath id="clip0_2085_391816"> <rect width="24" height="24" fill="white"/> </clipPath> </defs> </svg>
