<svg width="24" height="24" viewBox="0 0 24 24" fill="none" xmlns="http://www.w3.org/2000/svg"> <path d="M20.0313 12.0462L20.0332 12.0452L20.0791 11.9993L20.0313 12.0462ZM20.6201 11.4592L20.0889 11.9885H20.0899L20.6201 11.4592ZM21.7051 11.9993C21.7051 12.2109 21.6631 12.4305 21.5713 12.637C21.5119 12.7706 21.431 12.9048 21.3311 13.0266L21.2246 13.1438L11.7744 22.6038C11.4407 22.9375 10.8994 22.9374 10.5654 22.6038C10.2317 22.27 10.2318 21.7288 10.5654 21.3948L19.9502 11.9993L10.5654 2.60378C10.2318 2.26981 10.2317 1.72854 10.5654 1.3948C10.8994 1.06118 11.4407 1.06104 11.7744 1.3948L21.2246 10.8548L21.3223 10.9602C21.4138 11.0679 21.5008 11.2006 21.5694 11.3616H21.5713C21.5736 11.3668 21.5749 11.3729 21.5772 11.3782C21.5791 11.3828 21.5821 11.3872 21.584 11.3919H21.5821C21.6651 11.5897 21.7051 11.7976 21.7051 11.9993Z" fill="white"/> <path d="M3.1499 2L12.6099 11.46C12.7499 11.6 12.8299 11.8 12.8299 12C12.8299 12.2 12.7499 12.39 12.6099 12.54L3.1499 22" fill="white"/> <path d="M2.82275 1.20956C3.14223 1.07727 3.50989 1.1506 3.75439 1.39511L13.2144 10.8551C13.5212 11.1619 13.6851 11.5822 13.6851 11.9996C13.6851 12.4335 13.5102 12.8275 13.2349 13.1226C13.2282 13.1298 13.2213 13.1372 13.2144 13.1441L3.75439 22.6041C3.50989 22.8486 3.14223 22.9219 2.82275 22.7896C2.50326 22.6573 2.29443 22.3454 2.29443 21.9996V1.9996C2.29443 1.65378 2.50326 1.3419 2.82275 1.20956ZM4.00537 19.9351L11.9409 11.9996L4.00537 4.06405V19.9351Z" fill="white"/> </svg>
