<svg width="24" height="24" viewBox="0 0 24 24" fill="none" xmlns="http://www.w3.org/2000/svg"> <g clip-path="url(#clip0_4482_9451)"> <path d="M2 16.0801V18.0001C2 20.2101 3.79 22.0001 6 22.0001H11.25V16.0801H2Z" fill="white"/> <path d="M11.25 9.41992H2V14.5799H11.25V9.41992Z" fill="white"/> <path d="M11.25 2H6C3.79 2 2 3.79 2 6V7.92H11.25V2Z" fill="white"/> <path d="M18 2H12.75V22H18C20.21 22 22 20.21 22 18V6C22 3.79 20.21 2 18 2ZM16.08 13.11C16.08 13.52 15.74 13.86 15.33 13.86C14.92 13.86 14.58 13.52 14.58 13.11V10.89C14.58 10.48 14.92 10.14 15.33 10.14C15.74 10.14 16.08 10.48 16.08 10.89V13.11Z" fill="white"/> </g> <defs> <clipPath id="clip0_4482_9451"> <rect width="24" height="24" fill="white"/> </clipPath> </defs> </svg>
