<svg width="24" height="24" viewBox="0 0 24 24" fill="none" xmlns="http://www.w3.org/2000/svg"> <g clip-path="url(#clip0_2085_393109)"> <path d="M20.2399 6.2702C20.0499 6.2702 19.8599 6.2002 19.7099 6.0502L17.9499 4.2902C17.6599 4.0002 17.6599 3.5202 17.9499 3.2302C18.2399 2.9402 18.7199 2.9402 19.0099 3.2302L20.7699 4.9902C21.0599 5.28019 21.0599 5.7602 20.7699 6.0502C20.6199 6.2002 20.4299 6.2702 20.2399 6.2702Z" fill="white"/> <path d="M18.7299 12.09L18.6899 12.29L18.1899 14.53L17.8199 16.23L17.4899 17.73L16.6799 21.38C16.5099 22.17 15.7899 22.75 14.9699 22.75H6.5399C5.7199 22.75 4.9999 22.17 4.8299 21.38L4.0299 17.73L3.8999 17.14C3.8099 16.74 4.0599 16.34 4.4699 16.25C4.5199 16.24 4.5799 16.23 4.6299 16.23C4.9699 16.23 5.2799 16.47 5.3599 16.82L5.5599 17.73L6.2899 21.05C6.3199 21.17 6.4199 21.25 6.5399 21.25H14.9699C15.0899 21.25 15.1899 21.17 15.2199 21.05L15.9499 17.73L16.2799 16.23L17.2599 11.77C17.2899 11.67 17.2399 11.59 17.2099 11.56C17.1899 11.52 17.1199 11.46 17.0199 11.46H8.2699C7.8499 11.46 7.5199 11.13 7.5199 10.71C7.5199 10.29 7.8499 9.95996 8.2699 9.95996H17.0199C17.2799 9.95996 17.5399 10.02 17.7699 10.13C17.9999 10.24 18.2099 10.41 18.3799 10.62C18.7199 11.03 18.8399 11.57 18.7299 12.09Z" fill="white"/> <path d="M20.94 3.76055L18.28 6.42055C17.46 7.24055 16.83 8.26055 16.46 9.37055C16.39 9.57055 16.31 9.77055 16.2 9.96055H11.53L12.93 8.56055C13.38 8.12055 13.98 7.76055 14.63 7.54055C15.74 7.17055 16.76 6.54055 17.58 5.72055L20.24 3.06055L20.94 3.76055Z" fill="white"/> <path d="M22.75 3.76043C22.75 3.96043 22.67 4.15043 22.53 4.29043L19.34 7.48043C18.68 8.14043 18.18 8.96043 17.88 9.85043C17.85 9.94043 17.81 10.0404 17.77 10.1304C17.64 10.4704 17.48 10.8104 17.28 11.1204C17.13 11.3404 16.89 11.4604 16.64 11.4604C16.5 11.4604 16.37 11.4304 16.24 11.3504C15.89 11.1204 15.79 10.6604 16.01 10.3104C16.08 10.2004 16.15 10.0804 16.2 9.96043C16.31 9.77043 16.39 9.57043 16.46 9.37043C16.83 8.26043 17.46 7.24043 18.28 6.42043L20.94 3.76043L20.24 3.06043L17.58 5.72043C16.76 6.54043 15.74 7.17043 14.63 7.54043C13.98 7.76043 13.38 8.12043 12.93 8.56043L10.25 11.2404C10.1 11.3904 9.92003 11.4604 9.72003 11.4604C9.52003 11.4604 9.34003 11.3904 9.19003 11.2404C9.12003 11.1704 9.06003 11.0804 9.02003 10.9904C8.95003 10.8204 8.95003 10.6104 9.02003 10.4304C9.06003 10.3404 9.12003 10.2604 9.19003 10.1804L9.41003 9.96043L9.99003 9.38043L11.1 8.27043L11.87 7.50043C12.49 6.89043 13.27 6.41043 14.15 6.12043C15.04 5.82043 15.86 5.32043 16.52 4.66043L19.71 1.47043C20 1.18043 20.48 1.18043 20.77 1.47043L22.53 3.23043C22.67 3.37043 22.75 3.56043 22.75 3.76043Z" fill="white"/> <path d="M11.1 8.2707C10.74 7.7907 10.16 7.4707 9.51 7.4707H3.24C2.14 7.4707 1.25 8.3707 1.25 9.4707V15.9807C1.25 16.9407 2.04 17.7307 3 17.7307H7.27C8.23 17.7307 9.02 16.9407 9.02 15.9807V9.4707C9.02 9.2007 9.24 8.9707 9.51 8.9707C9.75 8.9707 9.95 9.1507 9.99 9.3807C10 9.4107 10 9.4407 10 9.4707V9.6807C10 9.7807 10.02 9.8807 10.06 9.9607C10.17 10.2407 10.44 10.4307 10.75 10.4307C10.96 10.4307 11.15 10.3507 11.28 10.2107C11.35 10.1407 11.41 10.0607 11.44 9.9607C11.48 9.8807 11.5 9.7807 11.5 9.6807V9.4707C11.5 9.0207 11.35 8.6107 11.1 8.2707ZM7.52 15.9807C7.52 16.1207 7.4 16.2307 7.27 16.2307H3C2.86 16.2307 2.75 16.1207 2.75 15.9807V9.4707C2.75 9.2007 2.97 8.9707 3.24 8.9707H7.58C7.54 9.1307 7.52 9.3007 7.52 9.4707V15.9807Z" fill="white"/> <path d="M7.58 8.9707C7.54 9.1307 7.52 9.3007 7.52 9.4707V15.9807C7.52 16.1207 7.4 16.2307 7.27 16.2307H3C2.86 16.2307 2.75 16.1207 2.75 15.9807V9.4707C2.75 9.2007 2.97 8.9707 3.24 8.9707H7.58Z" fill="white"/> <path d="M18.2601 17.7309H13.2401C12.4601 17.7309 11.7401 17.2709 11.4201 16.5509L10.0701 13.5509C9.90009 13.1709 10.0701 12.7309 10.4501 12.5609C10.8301 12.3909 11.2701 12.5609 11.4401 12.9409L12.7901 15.9409C12.8701 16.1209 13.0501 16.2309 13.2401 16.2309H18.2601C18.5301 16.2309 18.7501 16.0109 18.7501 15.7409C18.7201 15.5509 18.4501 15.0509 18.0101 14.2109L17.2301 12.7609C17.0401 12.3909 17.1701 11.9409 17.5401 11.7509C17.9101 11.5609 18.3601 11.6909 18.5501 12.0609L19.3301 13.5109C20.2001 15.1309 20.2501 15.2209 20.2501 15.7509C20.2501 16.8509 19.3601 17.7409 18.2601 17.7409V17.7309Z" fill="white"/> </g> <defs> <clipPath id="clip0_2085_393109"> <rect width="24" height="24" fill="white"/> </clipPath> </defs> </svg>
