<svg width="24" height="24" viewBox="0 0 24 24" fill="none" xmlns="http://www.w3.org/2000/svg"> <g clip-path="url(#clip0_4482_4629)"> <path d="M4.66992 17.2796C4.66992 13.4096 9.35986 9.88965 9.35986 9.88965C9.35986 9.88965 14.0499 13.4096 14.0499 17.2796C14.0499 19.3896 12.5299 21.4996 9.35986 21.4996C6.18986 21.4996 4.66992 19.3896 4.66992 17.2796Z" fill="white"/> <path d="M14.1499 7.87C14.1499 5.06 17.5599 2.5 17.5599 2.5C17.5599 2.5 20.9698 5.06 20.9698 7.87C20.9698 9.41 19.8599 10.94 17.5599 10.94C15.2599 10.94 14.1499 9.41 14.1499 7.87Z" fill="white"/> <path d="M3.03003 5.83C3.03003 4.09 5.14001 2.5 5.14001 2.5C5.14001 2.5 7.25 4.08 7.25 5.83C7.25 6.78 6.56001 7.73 5.14001 7.73C3.72001 7.73 3.03003 6.78 3.03003 5.83Z" fill="white"/> </g> <defs> <clipPath id="clip0_4482_4629"> <rect width="24" height="24" fill="white"/> </clipPath> </defs> </svg>
