<svg width="24" height="24" viewBox="0 0 24 24" fill="none" xmlns="http://www.w3.org/2000/svg"> <g clip-path="url(#clip0_4482_4592)"> <path d="M9 5.5C9 7.43 7.43 9 5.5 9C4.9 9 4.33 8.85 3.84 8.58C2.74 7.98 2 6.83 2 5.5C2 3.57 3.57 2 5.5 2C6.83 2 7.97999 2.74 8.57999 3.84C8.84999 4.33 9 4.9 9 5.5Z" fill="white"/> <path d="M5.0101 17.0297C4.6201 16.3797 4.3101 15.6997 4.1001 14.9697H8.22009C8.79009 14.9697 9.25009 15.4297 9.25009 15.9997C9.25009 16.5697 8.79009 17.0297 8.22009 17.0297H5.0101Z" fill="white"/> <path d="M8.21991 15.7197C8.36991 15.7197 8.49991 15.8497 8.49991 15.9997C8.49991 16.1497 8.36991 16.2797 8.21991 16.2797H5.43991C5.33991 16.0997 5.24992 15.9097 5.16992 15.7197H8.21991ZM8.21991 14.2197H3.15991C3.38991 15.5197 3.88991 16.7297 4.59991 17.7797H8.21991C9.19991 17.7797 9.99991 16.9797 9.99991 15.9997C9.99991 15.0197 9.19991 14.2197 8.21991 14.2197Z" fill="white"/> <path d="M15.56 14.2499C15.11 14.2499 14.75 13.8899 14.75 13.4399C14.75 12.9999 15.11 12.6399 15.56 12.6399H17.11C18.38 12.6399 19.42 11.5999 19.42 10.3299C19.42 9.05993 18.38 8.02992 17.11 8.02992C16.67 8.02992 16.31 7.66992 16.31 7.21992C16.31 6.76992 16.66 6.41992 17.11 6.41992H18.79C20.38 8.04992 21.25 10.1999 21.25 12.4999C21.25 13.0899 21.19 13.6799 21.07 14.2499H15.56Z" fill="white"/> <path d="M18.47 7.16992C18.73 7.45992 18.97 7.75993 19.18 8.07993C18.64 7.57993 17.91 7.27992 17.12 7.27992C17.09 7.27992 17.07 7.24992 17.07 7.21992C17.07 7.18992 17.09 7.16992 17.12 7.16992H18.47ZM20.17 10.1899C20.39 10.9299 20.5 11.6999 20.5 12.4999C20.5 12.8399 20.48 13.1699 20.44 13.4999H15.56C15.53 13.4999 15.5 13.4699 15.5 13.4399C15.5 13.4199 15.52 13.3899 15.56 13.3899H17.11C18.8 13.3899 20.17 12.0199 20.17 10.3299C20.17 10.2799 20.17 10.2399 20.17 10.1899ZM19.1 5.66992H17.11C16.25 5.66992 15.56 6.35992 15.56 7.21992C15.56 8.07993 16.25 8.77992 17.11 8.77992C17.97 8.77992 18.67 9.46993 18.67 10.3299C18.67 11.1899 17.97 11.8899 17.11 11.8899H15.56C14.7 11.8899 14 12.5899 14 13.4399C14 14.2999 14.7 14.9999 15.56 14.9999H21.66C21.88 14.2099 22 13.3699 22 12.4999C22 9.81992 20.89 7.38992 19.1 5.66992Z" fill="white"/> <path d="M12.5 22.75C6.85 22.75 2.25 18.15 2.25 12.5C2.25 6.85 6.85 2.25 12.5 2.25C18.15 2.25 22.75 6.85 22.75 12.5C22.75 18.15 18.15 22.75 12.5 22.75ZM12.5 3.75C7.68 3.75 3.75 7.67 3.75 12.5C3.75 17.33 7.68 21.25 12.5 21.25C17.32 21.25 21.25 17.33 21.25 12.5C21.25 7.67 17.32 3.75 12.5 3.75Z" fill="white"/> </g> <defs> <clipPath id="clip0_4482_4592"> <rect width="24" height="24" fill="white"/> </clipPath> </defs> </svg>
