<svg width="24" height="24" viewBox="0 0 24 24" fill="none" xmlns="http://www.w3.org/2000/svg"> <g clip-path="url(#clip0_2085_393993)"> <path d="M4.38012 2.68023C4.45012 2.51023 4.68012 2.51023 4.75012 2.68023C5.08012 3.51023 5.74012 4.17023 6.57012 4.50023C6.74012 4.57023 6.74012 4.80023 6.57012 4.87023C5.74012 5.20023 5.08012 5.86023 4.75012 6.69023C4.68012 6.86023 4.45012 6.86023 4.38012 6.69023C4.05012 5.86023 3.39012 5.20023 2.56012 4.87023C2.39012 4.80023 2.39012 4.57023 2.56012 4.50023C3.39012 4.17023 4.05012 3.51023 4.38012 2.68023Z" fill="white"/> <path d="M1.96034 9.09948C2.07049 8.69974 2.49018 8.46981 2.89002 8.58971C3.28992 8.69968 3.51958 9.11949 3.39979 9.5194C2.4498 12.8194 4.24024 16.8494 7.76014 19.3094C9.03014 20.1994 10.4705 20.8403 11.9105 21.1503C12.3102 21.2405 12.5698 21.6401 12.4799 22.0399C12.3998 22.3897 12.0902 22.6296 11.7504 22.6297C11.7004 22.6297 11.6304 22.6194 11.5805 22.5995C9.94045 22.2395 8.32002 21.5194 6.89002 20.5194C2.87018 17.7094 0.830358 13.0094 1.96034 9.09948Z" fill="white"/> <path d="M18.4896 3.57994C19.2896 2.77997 20.59 2.78002 21.39 3.57994C22.1899 4.37996 22.19 5.68038 21.39 6.48034L19.682 8.18737C19.7315 8.22247 19.7784 8.26293 19.8197 8.31041C22.6194 11.7302 22.8201 15.55 21.5902 17.41C20.5702 18.9497 19.0599 19.4403 17.64 19.4403C16.4101 19.4403 15.2398 19.0703 14.4799 18.6903C14.11 18.5004 13.9604 18.0602 14.14 17.6903C14.32 17.3203 14.78 17.1705 15.14 17.3505C15.2841 17.4224 18.6812 19.0579 20.3402 16.5799C21.1401 15.3698 21.1593 12.3101 18.6596 9.27037C18.6504 9.25909 18.6435 9.2459 18.6351 9.23424L13.5199 14.3505C12.58 15.2902 11.3194 15.8398 9.98963 15.8797C9.49002 15.8995 9.08054 15.4899 9.09022 14.9803C9.13021 13.6505 9.67978 12.39 10.6195 11.4501L15.39 6.67858C13.5918 5.77104 11.6416 5.36406 9.81385 5.53014C9.39404 5.56005 9.03349 5.25924 9.0033 4.84948C8.96349 4.43978 9.27338 4.07021 9.68299 4.03991C11.9333 3.84301 14.3337 4.38377 16.4955 5.57311L18.4896 3.57994Z" fill="white"/> </g> <defs> <clipPath id="clip0_2085_393993"> <rect width="24" height="24" fill="white"/> </clipPath> </defs> </svg>
