<svg width="24" height="24" viewBox="0 0 24 24" fill="none" xmlns="http://www.w3.org/2000/svg"> <g clip-path="url(#clip0_4482_10058)"> <path d="M3.76953 12.4702V19.9402C3.76953 21.0802 4.68953 22.0002 5.82953 22.0002H7.13953V12.4702H3.76953Z" fill="white"/> <path d="M11.2496 12.4702H8.63965V22.0002H11.2496V12.4702Z" fill="white"/> <path d="M16.8594 22.0002H18.1694C19.3094 22.0002 20.2294 21.0802 20.2294 19.9402V12.4702H16.8594V22.0002Z" fill="white"/> <path d="M18.2295 7.6001H5.76953C4.66953 7.6001 3.76953 8.5001 3.76953 9.6001V10.9701H20.2295V9.6001C20.2295 8.5001 19.3295 7.6001 18.2295 7.6001Z" fill="white"/> <path d="M15.36 12.4702H12.75V22.0002H15.36V12.4702Z" fill="white"/> <path d="M16.86 2.4602V4.5202C16.86 5.2202 16.3 5.7802 15.6 5.7802H12.75V7.60019H11.25V2.4602C11.25 1.7702 11.82 1.2002 12.51 1.2002H15.6C16.3 1.2002 16.86 1.7702 16.86 2.4602Z" fill="white"/> </g> <defs> <clipPath id="clip0_4482_10058"> <rect width="24" height="24" fill="white"/> </clipPath> </defs> </svg>
