<svg width="24" height="24" viewBox="0 0 24 24" fill="none" xmlns="http://www.w3.org/2000/svg"> <g clip-path="url(#clip0_4482_4511)"> <path d="M20.76 6H19.77C19.23 6 18.78 6.45 18.78 7V8C18.78 8.55 18.34 9 17.79 9H17.3C17.03 9 16.67 8.82001 16.51 8.60001L14.15 5.39999C13.99 5.17999 13.63 5 13.36 5H12.24V3.5C12.24 2.67 11.57 2 10.74 2C9.90998 2 9.23998 2.67 9.23998 3.5V5H8.34998C8.12998 5 7.80998 5.12999 7.64998 5.28999L5.26998 7.7C5.10998 7.86 4.97998 8.18 4.97998 8.41V9.5H3.47998C2.64998 9.5 1.97998 10.17 1.97998 11C1.97998 11.83 2.64998 12.5 3.47998 12.5H4.99998V13C4.99998 13.55 5.43998 14 5.98998 14H7.28998C7.65998 14 8.06998 14.28 8.19998 14.63L9.67998 18.37C9.81998 18.72 10.23 19 10.59 19H11.75V20.5C11.75 21.33 12.42 22 13.25 22C14.08 22 14.75 21.33 14.75 20.5V19H15.84C16.38 19 16.83 18.55 16.83 18V15C16.83 14.45 17.27 14 17.82 14C18.37 14 18.81 14.45 18.81 15V16C18.81 16.55 19.25 17 19.8 17H20.79C21.33 17 21.78 16.55 21.78 16V7C21.75 6.45 21.31 6 20.76 6ZM12.25 10.75H9.24998C8.83998 10.75 8.49998 10.41 8.49998 10C8.49998 9.59 8.83998 9.25 9.24998 9.25H12.25C12.66 9.25 13 9.59 13 10C13 10.41 12.66 10.75 12.25 10.75Z" fill="white"/> </g> <defs> <clipPath id="clip0_4482_4511"> <rect width="24" height="24" fill="white"/> </clipPath> </defs> </svg>
