<svg width="24" height="24" viewBox="0 0 24 24" fill="none" xmlns="http://www.w3.org/2000/svg"> <g clip-path="url(#clip0_4482_12568)"> <path d="M15.68 22.7498H7.26C3.94 22.7498 1.25 20.0498 1.25 16.7398V8.3198C1.25 4.9998 3.95 2.2998 7.26 2.2998H11.47C11.88 2.2998 12.22 2.6398 12.22 3.0498C12.22 3.4598 11.88 3.7998 11.47 3.7998H7.26C4.77 3.7998 2.75 5.8198 2.75 8.3098V16.7298C2.75 19.2198 4.77 21.2398 7.26 21.2398H15.68C18.17 21.2398 20.19 19.2198 20.19 16.7298V12.5198C20.19 12.1098 20.53 11.7698 20.94 11.7698C21.35 11.7698 21.69 12.1098 21.69 12.5198V16.7298C21.69 20.0498 18.99 22.7398 15.68 22.7398V22.7498Z" fill="white"/> <path d="M15.7599 10.89V12.65C15.7599 14.94 14.1199 17.07 11.8499 17.7C11.7199 17.73 11.5799 17.75 11.4499 17.75C11.3099 17.75 11.1799 17.73 11.0499 17.7C8.76988 17.07 7.12988 14.95 7.12988 12.65V10.89C7.12988 10.25 7.56988 9.6 8.15988 9.37L10.3699 8.46C11.0499 8.18 11.8299 8.18 12.5099 8.46L14.7499 9.38C15.2799 9.58 15.7099 10.18 15.7499 10.79C15.7599 10.82 15.7599 10.86 15.7599 10.89Z" fill="white"/> <path d="M22.7498 5.24027C22.7498 5.52027 22.5998 5.77027 22.3598 5.90027L20.4598 6.94027L19.4198 8.85027C19.2798 9.09027 19.0298 9.24027 18.7598 9.24027C18.4898 9.24027 18.2298 9.09027 18.0998 8.85027L17.0598 6.94027L15.1498 5.90027C14.9098 5.77027 14.7598 5.52027 14.7598 5.24027C14.7598 4.96027 14.9098 4.72027 15.1498 4.58027L17.0598 3.54027L18.0998 1.64027C18.3598 1.16027 19.1498 1.16027 19.4198 1.64027L20.4598 3.54027L22.3598 4.58027C22.5998 4.72027 22.7498 4.97027 22.7498 5.24027Z" fill="white"/> </g> <defs> <clipPath id="clip0_4482_12568"> <rect width="24" height="24" fill="white"/> </clipPath> </defs> </svg>
