<svg width="24" height="24" viewBox="0 0 24 24" fill="none" xmlns="http://www.w3.org/2000/svg"> <g clip-path="url(#clip0_4482_14612)"> <path d="M19.0696 4.92988C15.1596 1.02988 8.82957 1.02988 4.92957 4.92988C1.01957 8.82988 1.01957 15.1699 4.92957 19.0699C8.83957 22.9799 15.1696 22.9799 19.0696 19.0699C22.9796 15.1699 22.9796 8.82988 19.0696 4.92988ZM15.8896 14.9699H8.10957C7.69957 14.9699 7.35957 14.6299 7.35957 14.2199C7.35957 13.8099 7.69957 13.4699 8.10957 13.4699H15.8896C16.2996 13.4699 16.6396 13.8099 16.6396 14.2199C16.6396 14.6299 16.2996 14.9699 15.8896 14.9699ZM15.8896 10.5299H8.10957C7.69957 10.5299 7.35957 10.1899 7.35957 9.77988C7.35957 9.36988 7.69957 9.02988 8.10957 9.02988H15.8896C16.2996 9.02988 16.6396 9.36988 16.6396 9.77988C16.6396 10.1899 16.2996 10.5299 15.8896 10.5299Z" fill="white"/> </g> <defs> <clipPath id="clip0_4482_14612"> <rect width="24" height="24" fill="white"/> </clipPath> </defs> </svg>
