<svg width="24" height="24" viewBox="0 0 24 24" fill="none" xmlns="http://www.w3.org/2000/svg"> <g clip-path="url(#clip0_3247_9499)"> <path d="M2.99994 21.7504C2.80994 21.7504 2.61994 21.6804 2.46994 21.5304C2.17994 21.2404 2.17994 20.7604 2.46994 20.4704L12.4699 10.4704C12.7599 10.1804 13.2399 10.1804 13.5299 10.4704C13.8199 10.7604 13.8199 11.2404 13.5299 11.5304L3.52994 21.5304C3.37994 21.6704 3.18994 21.7504 2.99994 21.7504Z" fill="white"/> <path d="M8 22H2V16L8 22Z" fill="white"/> <path d="M8 22.7499H2C1.59 22.7499 1.25 22.4099 1.25 21.9999V15.9999C1.25 15.6999 1.42999 15.4199 1.70999 15.3099C1.98999 15.1999 2.31 15.2599 2.53 15.4699L8.53 21.4699C8.74 21.6799 8.81 22.0099 8.69 22.2899C8.57 22.5699 8.3 22.7499 8 22.7499ZM2.75 21.2499H6.19L2.75 17.8099V21.2499Z" fill="white"/> <path d="M12 22.75C11.59 22.75 11.25 22.41 11.25 22C11.25 21.59 11.59 21.25 12 21.25C17.1 21.25 21.25 17.1 21.25 12C21.25 6.9 17.1 2.75 12 2.75C6.9 2.75 2.75 6.9 2.75 12C2.75 12.41 2.41 12.75 2 12.75C1.59 12.75 1.25 12.41 1.25 12C1.25 6.07 6.07 1.25 12 1.25C17.93 1.25 22.75 6.07 22.75 12C22.75 17.93 17.93 22.75 12 22.75Z" fill="white"/> </g> <defs> <clipPath id="clip0_3247_9499"> <rect width="24" height="24" fill="white"/> </clipPath> </defs> </svg>
