<svg width="24" height="24" viewBox="0 0 24 24" fill="none" xmlns="http://www.w3.org/2000/svg"> <g clip-path="url(#clip0_4482_14613)"> <path d="M17 2H7C4.24 2 2 4.24 2 7V17C2 19.76 4.24 22 7 22H17C19.76 22 22 19.76 22 17V7C22 4.24 19.76 2 17 2ZM14.78 9.42H10.6L10.53 9.49V11.81H13.67C14.08 11.81 14.42 12.15 14.42 12.56C14.42 12.97 14.08 13.31 13.67 13.31H10.53V15.34C10.53 15.75 10.19 16.09 9.78 16.09C9.37 16.09 9.03 15.75 9.03 15.34V9.5C9.03 9.08 9.19 8.69 9.49 8.39C9.79 8.09 10.18 7.93 10.6 7.93H14.78C15.19 7.93 15.53 8.27 15.53 8.68C15.53 9.09 15.19 9.43 14.78 9.43V9.42Z" fill="white"/> </g> <defs> <clipPath id="clip0_4482_14613"> <rect width="24" height="24" fill="white"/> </clipPath> </defs> </svg>
