<svg width="24" height="24" viewBox="0 0 24 24" fill="none" xmlns="http://www.w3.org/2000/svg"> <g clip-path="url(#clip0_2085_389120)"> <path d="M19.4699 4.49031V19.0003C19.2499 19.0003 19.0599 19.0103 19.0099 19.0103C18.1399 19.0103 17.4399 18.3103 17.4399 17.4403V16.1903C16.3099 16.1903 15.3999 15.2803 15.3999 14.1503V12.2403C16.3399 11.8503 17.0799 11.0703 17.4399 10.0403C18.1199 8.14031 18.7899 6.23031 19.4599 4.32031C19.4699 4.38031 19.4699 4.43031 19.4699 4.49031Z" fill="white"/> <path d="M16.98 2H7.02003C5.65003 2 4.53003 3.12 4.53003 4.49V4.58C5.01003 5.93 5.84003 8.16 6.55003 10.09C7.10003 11.59 8.46003 12.54 10.05 12.54H13.92C14.44 12.54 14.94 12.44 15.4 12.24C16.34 11.85 17.08 11.07 17.44 10.04C18.12 8.14 18.79 6.23 19.46 4.32C19.38 3.03 18.29 2 16.98 2ZM13.99 7.98H12.75V9.22C12.75 9.63 12.41 9.97 12 9.97C11.59 9.97 11.25 9.63 11.25 9.22V7.98H10.01C9.60003 7.98 9.26003 7.64 9.26003 7.23C9.26003 6.82 9.60003 6.48 10.01 6.48H11.25V5.24C11.25 4.83 11.59 4.49 12 4.49C12.41 4.49 12.75 4.83 12.75 5.24V6.48H13.99C14.4 6.48 14.74 6.82 14.74 7.23C14.74 7.64 14.4 7.98 13.99 7.98Z" fill="white"/> <path d="M8.80003 15.3202C8.80003 15.9202 8.32003 16.4102 7.72003 16.4102H6.19003V16.4902C6.19003 17.0902 5.71003 17.5802 5.11003 17.5802H4.53003V14.2402H7.72003C8.32003 14.2402 8.80003 14.7302 8.80003 15.3202Z" fill="white"/> <path d="M15.46 19.5296C15.46 20.3196 14.82 20.9596 14.03 20.9596H13.33C13.36 21.0696 13.38 21.1896 13.38 21.3196C13.38 21.5596 13.32 21.7996 13.2 21.9996H7.48005C7.36005 21.7996 7.30005 21.5696 7.30005 21.3196C7.30005 20.5296 7.94005 19.8896 8.73005 19.8896H9.43005C9.40005 19.7696 9.38005 19.6496 9.38005 19.5296C9.38005 18.7396 10.02 18.0996 10.81 18.0996H14.03C14.82 18.0996 15.46 18.7396 15.46 19.5296Z" fill="white"/> <path d="M16.98 3.5C17.49 3.5 17.93 3.91 17.96 4.41V4.49V4.5V19.51C17.96 20.06 17.52 20.5 16.97 20.5H7.02003C6.47003 20.5 6.03003 20.06 6.03003 19.51V4.49C6.03003 3.94 6.47003 3.5 7.02003 3.5H16.98ZM16.98 2H7.02003C5.65003 2 4.53003 3.12 4.53003 4.49V19.51C4.53003 20.88 5.65003 22 7.02003 22H16.98C18.35 22 19.47 20.88 19.47 19.51V4.49C19.47 4.43 19.47 4.38 19.46 4.32C19.38 3.03 18.29 2 16.98 2Z" fill="white"/> </g> <defs> <clipPath id="clip0_2085_389120"> <rect width="24" height="24" fill="white"/> </clipPath> </defs> </svg>
