<svg width="24" height="24" viewBox="0 0 24 24" fill="none" xmlns="http://www.w3.org/2000/svg"> <g clip-path="url(#clip0_4482_1666)"> <path d="M19.06 4.94C17.25 3.12 14.75 2 12 2C9.72 2 7.60999 2.77 5.91999 4.08C5.67999 4.26 5.67001 4.62 5.88001 4.83L7.53003 6.48C7.82003 6.77 7.82003 7.25 7.53003 7.54C7.38003 7.69 7.19 7.76 7 7.76C6.81 7.76 6.61997 7.69 6.46997 7.54L4.82001 5.89C4.61001 5.68 4.25001 5.69 4.07001 5.93C2.39001 8.1 1.59 10.98 2.19 14.02C2.96 17.92 6.07998 21.05 9.97998 21.81C13.02 22.41 15.9 21.62 18.07 19.93C18.31 19.75 18.32 19.39 18.11 19.18L16.46 17.53C16.17 17.24 16.17 16.76 16.46 16.47C16.75 16.18 17.23 16.18 17.52 16.47L19.17 18.12C19.38 18.33 19.74 18.32 19.92 18.08C21.23 16.39 22 14.28 22 12C22 9.25 20.88 6.75 19.06 4.94ZM12.37 14.62C13.06 14.62 13.73 14.37 14.26 13.9C14.57 13.63 15.04 13.66 15.32 13.97C15.59 14.28 15.56 14.76 15.25 15.03C14.45 15.73 13.43 16.12 12.37 16.12C9.96 16.12 8 14.16 8 11.75C8 9.34 9.96 7.38 12.37 7.38C13.43 7.38 14.45 7.77 15.25 8.47C15.56 8.74 15.59 9.22 15.32 9.53C15.04 9.84 14.57 9.87 14.26 9.6C13.74 9.14 13.07 8.88 12.37 8.88C10.79 8.88 9.5 10.17 9.5 11.75C9.5 13.33 10.79 14.62 12.37 14.62Z" fill="white"/> </g> <defs> <clipPath id="clip0_4482_1666"> <rect width="24" height="24" fill="white"/> </clipPath> </defs> </svg>
