<svg width="24" height="24" viewBox="0 0 24 24" fill="none" xmlns="http://www.w3.org/2000/svg"> <g clip-path="url(#clip0_2085_393673)"> <path d="M17.88 14.5702V15.3302H5.76001V14.5702C5.76001 13.6502 6.50001 12.9102 7.41001 12.9102H16.22C17.14 12.9102 17.88 13.6502 17.88 14.5702Z" fill="white"/> <path d="M18.3899 14.8702H16.8799C16.4699 14.8702 16.1299 14.5302 16.1299 14.1202C16.1299 13.7102 16.4699 13.3702 16.8799 13.3702H18.3899C19.0299 13.3702 19.5499 12.8502 19.5499 12.2102V10.4902C19.5499 10.0802 19.8899 9.74023 20.2999 9.74023C20.7099 9.74023 21.0499 10.0802 21.0499 10.4902V12.2102C21.0499 13.6802 19.8599 14.8702 18.3899 14.8702Z" fill="white"/> <path d="M20.91 11.2402H18.49C18.08 11.2402 17.74 10.9002 17.74 10.4902C17.74 10.0802 18.08 9.74023 18.49 9.74023H20.91C21.32 9.74023 21.66 10.0802 21.66 10.4902C21.66 10.9002 21.32 11.2402 20.91 11.2402Z" fill="white"/> <path d="M6.76009 14.8702H5.25009C3.78009 14.8702 2.59009 13.6802 2.59009 12.2102V10.4902C2.59009 10.0802 2.93009 9.74023 3.34009 9.74023C3.75009 9.74023 4.09009 10.0802 4.09009 10.4902V12.2102C4.09009 12.8502 4.61009 13.3702 5.25009 13.3702H6.76009C7.17009 13.3702 7.51009 13.7102 7.51009 14.1202C7.51009 14.5302 7.17009 14.8702 6.76009 14.8702Z" fill="white"/> <path d="M5.14998 11.2402H2.72998C2.31998 11.2402 1.97998 10.9002 1.97998 10.4902C1.97998 10.0802 2.31998 9.74023 2.72998 9.74023H5.14998C5.55998 9.74023 5.89998 10.0802 5.89998 10.4902C5.89998 10.9002 5.55998 11.2402 5.14998 11.2402Z" fill="white"/> <path d="M13.0301 15.3301V16.5501C13.0301 17.2201 12.4901 17.7601 11.8201 17.7601C11.1501 17.7601 10.6101 17.2201 10.6101 16.5501V15.3301H13.0301Z" fill="white"/> <path d="M15.4599 22.7497C15.0499 22.7497 14.7099 22.4097 14.7099 21.9997V21.7997C14.7099 21.3197 14.3199 20.9297 13.8399 20.9297H9.79993C9.31993 20.9297 8.92993 21.3197 8.92993 21.7997V21.9997C8.92993 22.4097 8.58993 22.7497 8.17993 22.7497C7.76993 22.7497 7.42993 22.4097 7.42993 21.9997V21.7997C7.42993 20.4997 8.48993 19.4297 9.79993 19.4297H13.8399C15.1399 19.4297 16.2099 20.4897 16.2099 21.7997V21.9997C16.2099 22.4097 15.8699 22.7497 15.4599 22.7497Z" fill="white"/> <path d="M11.8201 22.7498C11.4101 22.7498 11.0701 22.4098 11.0701 21.9998V16.7598C11.0701 16.3498 11.4101 16.0098 11.8201 16.0098C12.2301 16.0098 12.5701 16.3498 12.5701 16.7598V21.9998C12.5701 22.4098 12.2301 22.7498 11.8201 22.7498Z" fill="white"/> <path d="M16.67 6.85L16.06 5.03L14.55 4.42L13.34 2H10.31L9.08997 4.42L7.57997 5.03L6.96997 6.85L7.87997 9.27L6.96997 10.49L7.57997 12.91H16.06L16.67 10.49L15.76 9.27L16.67 6.85ZM12.57 5.03C12.57 5.44 12.23 5.78 11.82 5.78C11.41 5.78 11.07 5.44 11.07 5.03V3.82C11.07 3.41 11.41 3.07 11.82 3.07C12.23 3.07 12.57 3.41 12.57 3.82V5.03Z" fill="white"/> </g> <defs> <clipPath id="clip0_2085_393673"> <rect width="24" height="24" fill="white"/> </clipPath> </defs> </svg>
