<svg width="24" height="24" viewBox="0 0 24 24" fill="none" xmlns="http://www.w3.org/2000/svg"> <g clip-path="url(#clip0_4482_10053)"> <path d="M8.66992 15.5303H15.3399C15.7499 15.5303 16.0899 15.1903 16.0899 14.7803C16.0899 14.3703 15.7499 14.0303 15.3399 14.0303H8.66992C8.25992 14.0303 7.91992 14.3703 7.91992 14.7803C7.91992 15.1903 8.25992 15.5303 8.66992 15.5303Z" fill="white"/> <path d="M20.46 7.09006L12.97 2.94006C12.37 2.60006 11.63 2.60006 11.03 2.94006L3.54 7.09006C2.59 7.62006 2 8.62006 2 9.71006V21.4401H5.33V13.4401C5.33 12.3401 6.23 11.4401 7.33 11.4401H16.66C17.76 11.4401 18.66 12.3401 18.66 13.4401V21.4401H22V9.72006C22 8.63006 21.41 7.63006 20.46 7.10006V7.09006ZM14.22 8.86006H9.77C9.36 8.86006 9.02 8.52006 9.02 8.11006C9.02 7.70006 9.36 7.36006 9.77 7.36006H14.22C14.63 7.36006 14.97 7.70006 14.97 8.11006C14.97 8.52006 14.63 8.86006 14.22 8.86006Z" fill="white"/> <path d="M8.66992 18.8599H15.3399C15.7499 18.8599 16.0899 18.5199 16.0899 18.1099C16.0899 17.6999 15.7499 17.3599 15.3399 17.3599H8.66992C8.25992 17.3599 7.91992 17.6999 7.91992 18.1099C7.91992 18.5199 8.25992 18.8599 8.66992 18.8599Z" fill="white"/> </g> <defs> <clipPath id="clip0_4482_10053"> <rect width="24" height="24" fill="white"/> </clipPath> </defs> </svg>
