<svg width="24" height="24" viewBox="0 0 24 24" fill="none" xmlns="http://www.w3.org/2000/svg"> <g clip-path="url(#clip0_2085_393674)"> <path d="M11.83 4.73047L9.23 12.0005H6L11.83 4.73047Z" fill="white"/> <path d="M17.9998 12.0005H14.4299L11.8298 4.73047L17.9998 12.0005Z" fill="white"/> <path d="M14.43 12L11.83 21L9.22998 12H14.43Z" fill="white"/> <path d="M11.83 4.73L16.61 12L11.83 19.27L7.05 12L11.83 4.73ZM12.6654 3.26957C12.2703 2.66914 11.3897 2.66914 10.9946 3.26957L5.61169 11.4503C5.39219 11.7839 5.39219 12.2161 5.61169 12.5497L10.9946 20.7304C11.3897 21.3309 12.2703 21.3309 12.6654 20.7304L18.0483 12.5497C18.2678 12.2161 18.2678 11.7839 18.0483 11.4503L12.6654 3.26957Z" fill="white"/> </g> <defs> <clipPath id="clip0_2085_393674"> <rect width="24" height="24" fill="white"/> </clipPath> </defs> </svg>
