<svg width="24" height="24" viewBox="0 0 24 24" fill="none" xmlns="http://www.w3.org/2000/svg"> <g clip-path="url(#clip0_4482_12158)"> <path d="M21.9997 18.8496C21.9997 20.2996 20.8197 21.4796 19.3697 21.4796H13.5797C12.4197 21.4796 11.4697 20.5396 11.4697 19.3696C11.4697 18.1996 12.4097 17.2596 13.5797 17.2596C13.5797 15.7196 14.6897 14.3996 16.2097 14.1396C17.7297 13.8896 19.2097 14.7796 19.7097 16.2396C21.0197 16.4096 21.9997 17.5196 21.9997 18.8396V18.8496Z" fill="white"/> <path d="M21.4798 9.91016C21.2098 8.62016 20.7098 7.44016 20.0098 6.38016C18.3298 3.84016 15.6398 2.18016 12.6298 1.84016C7.47981 1.25016 2.67981 4.63016 1.50981 9.71016C1.42981 10.1102 1.35981 10.4902 1.31981 10.8902C0.999809 13.7602 1.92981 16.6402 3.84981 18.7902C4.99981 20.0802 6.45981 21.0702 8.07981 21.6402C8.15981 21.6702 8.24981 21.6802 8.32981 21.6802C8.63981 21.6802 8.92981 21.4902 9.03981 21.1802C9.17981 20.7902 8.96981 20.3602 8.57981 20.2202C7.75981 19.9302 6.99981 19.5102 6.30981 18.9902C7.23981 18.8002 7.93981 18.0102 7.93981 17.0702C7.93981 15.9802 7.00981 15.1002 5.86981 15.1002C5.55981 15.1002 5.29981 14.8902 5.29981 14.6302C5.29981 14.3702 5.55981 14.1602 5.86981 14.1602H7.18981C8.32981 14.1602 9.25981 13.2802 9.25981 12.2002C9.25981 11.1202 8.32981 10.2202 7.18981 10.2202H2.93981C2.94981 10.1602 2.95981 10.1002 2.96981 10.0402C3.96981 5.71016 8.05981 2.83016 12.4598 3.33016C14.5298 3.57016 16.4198 4.54016 17.8198 6.04016H15.6998C14.2698 6.04016 13.0998 7.11016 13.0998 8.42016C13.0998 9.73016 14.2698 10.8102 15.6998 10.8102H20.0998C20.1498 11.2102 20.1898 11.6102 20.1898 12.0002C20.1898 12.4102 20.5298 12.7502 20.9398 12.7502C21.3498 12.7502 21.6898 12.4102 21.6898 12.0002C21.6898 11.3102 21.6198 10.6002 21.4698 9.91016H21.4798Z" fill="white"/> </g> <defs> <clipPath id="clip0_4482_12158"> <rect width="24" height="24" fill="white"/> </clipPath> </defs> </svg>
