<svg width="24" height="24" viewBox="0 0 24 24" fill="none" xmlns="http://www.w3.org/2000/svg"> <g clip-path="url(#clip0_4482_10794)"> <path d="M19.4697 14.6002C19.2597 14.3602 18.9597 14.2202 18.6397 14.2202C18.3197 14.2202 18.0197 14.3602 17.8097 14.6002L16.1297 16.5002C15.0297 17.7502 15.0297 19.6202 16.1297 20.8602C16.7597 21.5802 17.6797 21.9902 18.6397 21.9902C19.5997 21.9902 20.5097 21.5802 21.1497 20.8602C22.2497 19.6102 22.2497 17.7402 21.1497 16.5002L19.4697 14.6002Z" fill="white"/> <path d="M22.1398 8.45023C22.1398 8.45023 22.1198 8.37023 22.0998 8.33023C20.5898 4.16023 16.6198 1.24023 12.0098 1.24023C7.35977 1.25023 3.40977 4.21023 1.90977 8.33023C1.88977 8.37023 1.87977 8.41023 1.86977 8.45023C1.47977 9.56023 1.25977 10.7502 1.25977 12.0002C1.25977 13.2502 1.47977 14.4402 1.86977 15.5502C1.87977 15.5902 1.88977 15.6302 1.90977 15.6702C3.40977 19.8002 7.35977 22.7502 11.9998 22.7502C12.4098 22.7502 12.7498 22.4102 12.7498 22.0002C12.7498 21.5902 12.4098 21.2502 11.9998 21.2502C10.7298 21.2502 9.36977 19.2502 8.70977 16.0802H11.9998C12.4098 16.0802 12.7498 15.7402 12.7498 15.3302C12.7498 14.9202 12.4098 14.5802 11.9998 14.5802H8.45977C8.35977 13.7702 8.29977 12.9102 8.29977 12.0002C8.29977 11.0902 8.35977 10.2302 8.45977 9.42023H15.5298C15.5898 9.90023 15.6398 10.4002 15.6598 10.9302C15.6798 11.3302 16.0098 11.6402 16.4098 11.6402C16.4198 11.6402 16.4298 11.6402 16.4498 11.6402C16.8598 11.6202 17.1798 11.2702 17.1598 10.8502C17.1398 10.3602 17.0898 9.88023 17.0398 9.42023H20.8698C21.0198 9.92023 21.1198 10.4402 21.1798 10.9702C21.2198 11.3502 21.5498 11.6402 21.9198 11.6402C21.9498 11.6402 21.9798 11.6402 21.9998 11.6402C22.4098 11.5902 22.7098 11.2202 22.6598 10.8102C22.5698 9.99024 22.3798 9.21023 22.1198 8.46023L22.1398 8.45023ZM2.74977 12.0002C2.74977 11.1002 2.87977 10.2402 3.11977 9.42023H6.94977C6.85977 10.2402 6.80977 11.1002 6.80977 12.0002C6.80977 12.9002 6.85977 13.7602 6.94977 14.5802H3.11977C2.87977 13.7602 2.73977 12.8902 2.73977 12.0002H2.74977ZM8.87977 20.7002C6.61977 19.8902 4.75977 18.2202 3.70977 16.0902H7.17977C7.52977 17.9602 8.11977 19.5502 8.88977 20.7002H8.87977ZM7.16977 7.92023H3.70977C4.76977 5.79023 6.61977 4.12023 8.87977 3.31023C8.11977 4.46023 7.51977 6.05023 7.16977 7.92023ZM8.70977 7.92023C9.36977 4.75023 10.7398 2.75023 11.9998 2.75023C13.2598 2.75023 14.6198 4.67023 15.2898 7.92023H8.70977ZM16.8198 7.92023C16.4598 6.03023 15.8598 4.45023 15.0898 3.29023C17.3598 4.09023 19.2298 5.76023 20.2898 7.92023H16.8198Z" fill="white"/> </g> <defs> <clipPath id="clip0_4482_10794"> <rect width="24" height="24" fill="white"/> </clipPath> </defs> </svg>
