<svg width="24" height="24" viewBox="0 0 24 24" fill="none" xmlns="http://www.w3.org/2000/svg"> <g clip-path="url(#clip0_4482_11574)"> <path d="M20.1798 10.6198L14.9998 7.67977L5.38977 2.21977C5.13977 2.07977 4.86977 2.00977 4.60977 2.00977C4.25977 2.00977 3.92977 2.12977 3.65977 2.32977C3.26977 2.60977 3.00977 3.05977 3.00977 3.60977V20.3998C3.00977 20.9398 3.26977 21.3998 3.65977 21.6698C3.92977 21.8798 4.26977 21.9898 4.61977 21.9898C4.86977 21.9898 5.13977 21.9298 5.38977 21.7898L14.9998 16.3298L20.1798 13.3898C21.2598 12.7798 21.2598 11.2298 20.1798 10.6198ZM12.7198 8.10977L11.4898 9.61977L8.17977 5.52977L12.7198 8.10977ZM9.55977 11.9998L4.50977 18.2398V5.75977L9.55977 11.9998ZM8.16977 18.4898L11.4898 14.3798L12.7198 15.8998L8.16977 18.4898ZM19.4398 12.0898L15.3598 14.3998L13.4198 11.9998L15.3598 9.60977L19.4398 11.9298C19.4398 11.9298 19.4898 11.9498 19.4898 11.9998C19.4898 12.0598 19.4598 12.0698 19.4398 12.0898Z" fill="white"/> </g> <defs> <clipPath id="clip0_4482_11574"> <rect width="24" height="24" fill="white"/> </clipPath> </defs> </svg>
