<svg width="24" height="24" viewBox="0 0 24 24" fill="none" xmlns="http://www.w3.org/2000/svg"> <g clip-path="url(#clip0_2085_391821)"> <path d="M22 16.6387H2C1.59 16.6387 1.25 16.9787 1.25 17.3887C1.25 19.1787 2.7 20.6287 4.49 20.6287H19.51C21.3 20.6287 22.75 19.1787 22.75 17.3887C22.75 16.9787 22.41 16.6387 22 16.6387ZM19.51 19.1287H4.49C3.8 19.1287 3.2 18.7287 2.92 18.1387H21.08C20.8 18.7287 20.2 19.1287 19.51 19.1287Z" fill="white"/> <path d="M21.0799 18.1387C20.7999 18.7287 20.1999 19.1287 19.5099 19.1287H4.48992C3.79992 19.1287 3.19992 18.7287 2.91992 18.1387H21.0799Z" fill="white"/> <path d="M18.74 5.02914C18.32 4.04914 17.35 3.36914 16.22 3.36914H7.78003C6.26003 3.36914 5.03003 4.59914 5.03003 6.11914V13.2491C5.03003 14.5691 5.55003 15.7591 6.40003 16.6391C7.29003 17.5591 8.54003 18.1391 9.93003 18.1391H14.08C15.46 18.1391 16.71 17.5591 17.6 16.6391C18.45 15.7591 18.97 14.5691 18.97 13.2491V6.11914C18.97 5.72914 18.89 5.35914 18.74 5.02914ZM9.93003 16.6391C8.05003 16.6391 6.53003 15.1191 6.53003 13.2491V6.11914C6.53003 5.42914 7.09003 4.86914 7.78003 4.86914H16.22C16.91 4.86914 17.47 5.42914 17.47 6.11914V13.2491C17.47 15.1191 15.95 16.6391 14.08 16.6391H9.93003Z" fill="white"/> <path d="M17.47 6.11914V6.26914H6.53003V6.11914C6.53003 5.42914 7.09003 4.86914 7.78003 4.86914H16.22C16.91 4.86914 17.47 5.42914 17.47 6.11914Z" fill="white"/> <path d="M11.4199 14.6289C10.8799 14.6289 10.4699 14.5589 10.3599 14.5489C10.0499 14.4889 9.80989 14.2489 9.74989 13.9389C9.69989 13.6689 9.31988 11.2689 10.6899 9.89887C12.0599 8.52887 14.4599 8.90887 14.7299 8.95887C15.0399 9.01887 15.2799 9.25887 15.3399 9.56887C15.3899 9.83887 15.7699 12.2289 14.3999 13.6089C13.5499 14.4589 12.3099 14.6389 11.4199 14.6389V14.6289ZM11.1799 13.1289C11.8499 13.1589 12.8199 13.0689 13.3399 12.5489C13.8599 12.0289 13.9499 11.0589 13.9199 10.3889C13.2499 10.3589 12.2799 10.4489 11.7599 10.9689C11.2399 11.4889 11.1599 12.4589 11.1799 13.1289Z" fill="white"/> <path d="M9.33002 15.7391C9.14002 15.7391 8.95002 15.6691 8.80002 15.5191C8.51002 15.2291 8.51002 14.7491 8.80002 14.4591L11.44 11.8191C11.73 11.5291 12.21 11.5291 12.5 11.8191C12.79 12.1091 12.79 12.5891 12.5 12.8791L9.86002 15.5191C9.71002 15.6691 9.52002 15.7391 9.33002 15.7391Z" fill="white"/> <path d="M18.97 7.01953C18.97 7.42953 18.64 7.76953 18.22 7.76953H5.78003C5.36003 7.76953 5.03003 7.42953 5.03003 7.01953C5.03003 6.60953 5.36003 6.26953 5.78003 6.26953H18.22C18.45 6.26953 18.65 6.36953 18.78 6.52953C18.9 6.65953 18.97 6.82953 18.97 7.01953Z" fill="white"/> <path d="M18.2199 11.9193C17.8799 11.9193 17.5799 11.6893 17.4899 11.3493C17.3899 10.9493 17.6299 10.5393 18.0399 10.4393L20.4199 9.8493C20.6399 9.7893 20.7999 9.5993 20.7999 9.3693V7.0193C20.7999 6.7493 20.5799 6.5293 20.2999 6.5293H18.2299C17.8199 6.5293 17.4799 6.1893 17.4799 5.7793C17.4799 5.3693 17.8199 5.0293 18.2299 5.0293H20.2999C21.3999 5.0293 22.2999 5.9193 22.2999 7.0193V9.3693C22.2999 10.2893 21.6799 11.0793 20.7899 11.3093L18.4099 11.8993C18.3499 11.9193 18.2899 11.9193 18.2299 11.9193H18.2199Z" fill="white"/> </g> <defs> <clipPath id="clip0_2085_391821"> <rect width="24" height="24" fill="white"/> </clipPath> </defs> </svg>
