<svg width="24" height="24" viewBox="0 0 24 24" fill="none" xmlns="http://www.w3.org/2000/svg"> <g clip-path="url(#clip0_2085_389397)"> <path d="M10.9998 13C10.2298 13.77 9.27003 14.2396 8.50003 15.0096H8.49003L6.78003 13.2996L9.64976 10.4199L10.9998 11.5C11.3798 11.89 11.3798 12.62 10.9998 13Z" fill="white"/> <path d="M9.63998 20.1598L7.91998 21.8798C7.76998 22.0398 7.50998 22.0398 7.34998 21.8798L6.20998 20.7398C4.31998 18.8498 4.31998 15.7498 6.20998 13.8598L6.77998 13.2998L8.48998 15.0098H8.49998C7.54998 15.9598 7.54998 17.4998 8.49998 18.4398L9.63998 19.5898C9.79998 19.7498 9.79998 20.0098 9.63998 20.1598Z" fill="white"/> <path d="M12.5899 14.4399L11.2199 15.7999C10.6799 16.3499 9.79994 16.3499 9.24994 15.7999L8.43994 14.9999C9.21994 14.2099 9.99994 13.4199 10.7899 12.6299C11.1199 12.9599 11.6299 12.9599 11.9599 12.6299L12.5999 13.2699C12.9099 13.5999 12.9099 14.1099 12.5999 14.4399H12.5899Z" fill="white"/> <path d="M19.0899 3.26C19.2499 3.11 19.2499 2.85 19.0899 2.69L18.5199 2.12C18.3599 1.96 18.1099 1.96 17.9499 2.12L17.6199 2.45C17.9099 2.74 17.9099 3.22 17.6199 3.51C17.4699 3.66 17.2799 3.73 17.0899 3.73C16.8999 3.73 16.7099 3.66 16.5599 3.51L15.0999 4.97L12.5099 7.55L9.6499 10.42L10.7999 11.56C11.1799 11.95 11.1999 12.3 10.8199 12.68C11.1399 13 11.6499 13 11.9699 12.68L13.0399 11.61L14.2299 10.43L15.3999 9.25L18.1599 6.49C18.3199 6.33 18.3999 6.12 18.3999 5.91C18.3999 5.7 18.3199 5.5 18.1599 5.34C17.8399 5.02 17.8399 4.51 18.1599 4.2L19.0999 3.25L19.0899 3.26Z" fill="white"/> <path d="M17.61 2.45039L17.09 1.93039C16.8 1.64039 16.32 1.64039 16.03 1.93039C15.74 2.22039 15.74 2.70039 16.03 2.99039L16.55 3.51039L17.61 2.45039Z" fill="white"/> <path d="M6.02007 15.5202C5.50007 15.5202 5.00007 15.3202 4.64007 14.9502C4.27007 14.5802 4.07007 14.0902 4.07007 13.5702C4.07007 13.0502 4.27007 12.5502 4.64007 12.1902C4.93007 11.9002 5.41007 11.9002 5.70007 12.1902C5.99007 12.4802 5.99007 12.9602 5.70007 13.2502C5.61007 13.3302 5.57007 13.4502 5.57007 13.5702C5.57007 13.6902 5.62007 13.8102 5.70007 13.8902C5.87007 14.0602 6.18007 14.0602 6.35007 13.8902C6.64007 13.6002 7.12007 13.6002 7.41007 13.8902C7.70007 14.1802 7.70007 14.6602 7.41007 14.9502C7.04007 15.3202 6.55007 15.5202 6.03007 15.5202H6.02007Z" fill="white"/> </g> <defs> <clipPath id="clip0_2085_389397"> <rect width="24" height="24" fill="white"/> </clipPath> </defs> </svg>
