<svg width="24" height="24" viewBox="0 0 24 24" fill="none" xmlns="http://www.w3.org/2000/svg"> <g clip-path="url(#clip0_2085_389417)"> <path d="M21.7299 19.6097L20.8799 20.9797C20.3999 21.7597 19.3899 22.0297 18.5699 21.5997L6.48989 15.0697C4.81989 14.0397 4.30989 11.8497 5.34989 10.1797C5.51989 9.90969 5.71989 9.66969 5.94989 9.45969L8.71989 6.67969C8.69989 6.83969 8.68989 7.00969 8.68989 7.17969C8.68989 9.92969 10.9199 12.1697 13.6699 12.1697C13.9099 12.1697 14.1399 12.1497 14.3699 12.1097L17.2899 14.2897L21.2799 17.2597C22.0199 17.7997 22.2199 18.8297 21.7299 19.6097Z" fill="white"/> <path d="M7.44996 9.20984C7.15996 9.20984 6.87996 9.03984 6.75996 8.74984L5.34996 5.42984C4.80996 4.15984 3.56996 3.33984 2.18996 3.33984H1.70996C1.29996 3.33984 0.959961 2.99984 0.959961 2.58984C0.959961 2.17984 1.29996 1.83984 1.70996 1.83984H2.18996C4.16996 1.83984 5.94996 3.01984 6.72996 4.84984L8.13996 8.17984C8.29996 8.55984 8.11996 8.99984 7.73996 9.15984C7.64996 9.19984 7.54996 9.21984 7.44996 9.21984V9.20984Z" fill="white"/> <path d="M13.6699 2.2002C11.0899 2.2002 8.96994 4.1602 8.71994 6.6702C8.69994 6.8402 8.68994 7.01019 8.68994 7.18019C8.68994 9.93019 10.9199 12.1702 13.6699 12.1702C13.9099 12.1702 14.1399 12.1502 14.3699 12.1102C16.7999 11.7802 18.6599 9.6902 18.6599 7.18019C18.6599 4.43019 16.4299 2.2002 13.6699 2.2002ZM13.6699 8.8502C12.7499 8.8502 12.0099 8.1102 12.0099 7.1902C12.0099 6.2702 12.7499 5.5302 13.6699 5.5302C14.5899 5.5302 15.3299 6.2702 15.3299 7.1902C15.3299 8.1102 14.5899 8.8502 13.6699 8.8502Z" fill="white"/> <path d="M4.1299 20.5295C3.6399 20.5295 3.3099 20.3695 3.2799 20.3495C2.9099 20.1595 2.7599 19.7095 2.9499 19.3395C3.1299 18.9795 3.5699 18.8295 3.9399 18.9995C4.2199 19.1095 4.8799 18.9695 5.5999 17.7895C5.8199 17.4395 6.2799 17.3195 6.6299 17.5395C6.9799 17.7595 7.0999 18.2195 6.8799 18.5695C5.8999 20.1795 4.8499 20.5195 4.1299 20.5195V20.5295Z" fill="white"/> <path d="M3.04 9.83977C2.47 9.83977 2 9.37977 2 8.79977C2 8.21977 2.47 7.75977 3.04 7.75977C3.61 7.75977 4.08 8.21977 4.08 8.79977C4.08 9.37977 3.61 9.83977 3.04 9.83977Z" fill="white"/> </g> <defs> <clipPath id="clip0_2085_389417"> <rect width="24" height="24" fill="white"/> </clipPath> </defs> </svg>
