<svg width="24" height="24" viewBox="0 0 24 24" fill="none" xmlns="http://www.w3.org/2000/svg"> <g clip-path="url(#clip0_2085_388794)"> <path d="M18.2901 12.5596C15.8301 12.5596 13.8301 14.5596 13.8301 17.0196C13.8301 19.4796 15.8301 21.4796 18.2901 21.4796C20.7501 21.4796 22.7501 19.4796 22.7501 17.0196C22.7501 14.5596 20.7501 12.5596 18.2901 12.5596ZM18.2901 17.4896C18.0401 17.4896 17.8301 17.2796 17.8301 17.0296C17.8301 16.7796 18.0401 16.5696 18.2901 16.5696C18.5401 16.5696 18.7501 16.7796 18.7501 17.0296C18.7501 17.2796 18.5401 17.4896 18.2901 17.4896Z" fill="white"/> <path d="M3.75 16.5C2.37 16.5 1.25 17.62 1.25 19C1.25 20.38 2.37 21.5 3.75 21.5C5.13 21.5 6.25 20.38 6.25 19C6.25 17.62 5.13 16.5 3.75 16.5Z" fill="white"/> <path d="M14.7299 14.9094C14.6199 14.9094 14.5199 14.8894 14.4099 14.8394C14.0299 14.6694 13.8699 14.2194 14.0499 13.8394L17.7799 5.82938C17.9599 5.44938 18.3999 5.28938 18.7799 5.46938C19.1599 5.63938 19.3199 6.08938 19.1399 6.46938L15.4099 14.4794C15.2799 14.7494 15.0099 14.9094 14.7299 14.9094Z" fill="white"/> <path d="M13.52 9.25957C13.42 9.25957 13.33 9.22957 13.23 9.18957C12.85 9.02957 12.68 8.56957 12.84 8.18957C12.96 7.91957 13.72 6.50957 17.32 5.80957C18.67 5.54957 19.91 3.82957 20.22 2.38957C20.31 1.98957 20.71 1.73957 21.11 1.81957C21.51 1.90957 21.77 2.30957 21.68 2.70957C21.26 4.61957 19.69 6.87957 17.6 7.28957C14.77 7.83957 14.2 8.80957 14.19 8.81957C14.07 9.09957 13.8 9.25957 13.52 9.25957Z" fill="white"/> <path d="M18.2 21.4902H3.75C3.34 21.4902 3 21.1502 3 20.7402C3 20.3302 3.34 19.9902 3.75 19.9902H18.2C18.61 19.9902 18.95 20.3302 18.95 20.7402C18.95 21.1502 18.61 21.4902 18.2 21.4902Z" fill="white"/> <path d="M3.5099 17.9998C3.1699 17.9998 2.8499 17.7898 2.7599 17.4598C2.6499 17.0598 2.8499 16.6598 3.2499 16.5498L3.4899 16.4798L17.2699 12.6798C17.6699 12.5698 18.0799 12.7998 18.1899 13.1998C18.2999 13.5998 18.0699 14.0098 17.6699 14.1198L3.7199 17.9598C3.6499 17.9798 3.5799 17.9898 3.5099 17.9898V17.9998Z" fill="white"/> <path d="M5.91995 22.2102C5.10995 22.2102 4.44995 21.5502 4.44995 20.7402C4.44995 20.3302 4.78995 19.9902 5.19995 19.9902C5.60995 19.9902 5.94995 20.3302 5.94995 20.7402C5.94995 20.3302 6.25995 19.9902 6.66995 19.9902C7.07995 19.9902 7.38995 20.3302 7.38995 20.7402C7.38995 21.5502 6.72995 22.2102 5.91995 22.2102Z" fill="white"/> <path d="M17.3299 22.2102C16.5199 22.2102 15.8599 21.5502 15.8599 20.7402C15.8599 20.3302 16.1999 19.9902 16.6099 19.9902C17.0199 19.9902 17.3599 20.3302 17.3599 20.7402C17.3599 20.3302 17.6699 19.9902 18.0799 19.9902C18.4899 19.9902 18.7999 20.3302 18.7999 20.7402C18.7999 21.5502 18.1399 22.2102 17.3299 22.2102Z" fill="white"/> </g> <defs> <clipPath id="clip0_2085_388794"> <rect width="24" height="24" fill="white"/> </clipPath> </defs> </svg>
