<svg width="24" height="24" viewBox="0 0 24 24" fill="none" xmlns="http://www.w3.org/2000/svg"> <g clip-path="url(#clip0_2085_388788)"> <path d="M17.8 6.20996H6.20996C5.79996 6.20996 5.45996 5.86996 5.45996 5.45996C5.45996 5.04996 5.79996 4.70996 6.20996 4.70996H17.81C18.22 4.70996 18.56 5.04996 18.56 5.45996C18.56 5.86996 18.22 6.20996 17.81 6.20996H17.8Z" fill="white"/> <path d="M6.20996 9.35957C5.79996 9.35957 5.45996 9.01957 5.45996 8.60957V2.30957C5.45996 1.89957 5.79996 1.55957 6.20996 1.55957C6.61996 1.55957 6.95996 1.89957 6.95996 2.30957V8.59957C6.95996 9.00957 6.61996 9.34957 6.20996 9.34957V9.35957Z" fill="white"/> <path d="M17.8 9.35957C17.39 9.35957 17.05 9.01957 17.05 8.60957V2.30957C17.05 1.89957 17.39 1.55957 17.8 1.55957C18.21 1.55957 18.55 1.89957 18.55 2.30957V8.59957C18.55 9.00957 18.21 9.34957 17.8 9.34957V9.35957Z" fill="white"/> <path d="M20.1101 8.01016C19.7001 8.01016 19.3601 7.67016 19.3601 7.26016V3.66016C19.3601 3.25016 19.7001 2.91016 20.1101 2.91016C20.5201 2.91016 20.8601 3.25016 20.8601 3.66016V7.26016C20.8601 7.67016 20.5201 8.01016 20.1101 8.01016Z" fill="white"/> <path d="M22.0001 6.20996H20.1101C19.7001 6.20996 19.3601 5.86996 19.3601 5.45996C19.3601 5.04996 19.7001 4.70996 20.1101 4.70996H22.0001C22.4101 4.70996 22.7501 5.04996 22.7501 5.45996C22.7501 5.86996 22.4101 6.20996 22.0001 6.20996Z" fill="white"/> <path d="M3.88989 8.01016C3.47989 8.01016 3.13989 7.67016 3.13989 7.26016V3.66016C3.13989 3.25016 3.47989 2.91016 3.88989 2.91016C4.29989 2.91016 4.63989 3.25016 4.63989 3.66016V7.26016C4.63989 7.67016 4.29989 8.01016 3.88989 8.01016Z" fill="white"/> <path d="M3.89 6.20996H2C1.59 6.20996 1.25 5.86996 1.25 5.45996C1.25 5.04996 1.59 4.70996 2 4.70996H3.89C4.3 4.70996 4.64 5.04996 4.64 5.45996C4.64 5.86996 4.3 6.20996 3.89 6.20996Z" fill="white"/> <path d="M9.78003 10.3C9.37003 10.3 9.03003 9.95996 9.03003 9.54996V5.45996C9.03003 5.04996 9.37003 4.70996 9.78003 4.70996C10.19 4.70996 10.53 5.04996 10.53 5.45996V9.54996C10.53 9.95996 10.19 10.3 9.78003 10.3Z" fill="white"/> <path d="M14.23 10.3C13.82 10.3 13.48 9.95996 13.48 9.54996V5.45996C13.48 5.04996 13.82 4.70996 14.23 4.70996C14.64 4.70996 14.98 5.04996 14.98 5.45996V9.54996C14.98 9.95996 14.64 10.3 14.23 10.3Z" fill="white"/> <path d="M19.74 16.1998H4.27002C4.34002 15.9798 4.43002 15.7598 4.56002 15.5498L7.96002 10.1198C8.18002 9.7698 8.57002 9.5498 8.99002 9.5498H15.02C15.43 9.5498 15.82 9.7598 16.05 10.1198L19.45 15.5498C19.58 15.7598 19.67 15.9798 19.74 16.1998Z" fill="white"/> <path d="M17.3201 19.3902H6.69008C4.97008 19.3902 3.84008 17.7302 4.27008 16.2002H19.7401C20.1801 17.7402 19.0401 19.3902 17.3201 19.3902Z" fill="white"/> <path d="M7.83008 22.4404C7.42008 22.4404 7.08008 22.1004 7.08008 21.6904V19.4004C7.08008 18.9904 7.42008 18.6504 7.83008 18.6504C8.24008 18.6504 8.58008 18.9904 8.58008 19.4004V21.6904C8.58008 22.1004 8.24008 22.4404 7.83008 22.4404Z" fill="white"/> <path d="M16.1902 22.4404C15.7802 22.4404 15.4402 22.1004 15.4402 21.6904V19.4004C15.4402 18.9904 15.7802 18.6504 16.1902 18.6504C16.6002 18.6504 16.9402 18.9904 16.9402 19.4004V21.6904C16.9402 22.1004 16.6002 22.4404 16.1902 22.4404Z" fill="white"/> </g> <defs> <clipPath id="clip0_2085_388788"> <rect width="24" height="24" fill="white"/> </clipPath> </defs> </svg>
