<svg width="24" height="24" viewBox="0 0 24 24" fill="none" xmlns="http://www.w3.org/2000/svg"> <g clip-path="url(#clip0_2085_388781)"> <path d="M4.82999 9.12012H4.09999C3.81999 9.12012 3.54999 9.17012 3.28999 9.28012C3.02999 9.39012 2.79999 9.54012 2.60999 9.74012C2.40999 9.94012 2.25999 10.1701 2.14999 10.4201C2.03999 10.6801 1.98999 10.9501 1.98999 11.2301V18.1801C1.98999 18.7401 2.20999 19.2701 2.60999 19.6701C3.00999 20.0601 3.53999 20.2901 4.09999 20.2901H4.82999V9.13012V9.12012Z" fill="white"/> <path d="M21.8399 10.4201C21.7299 10.1601 21.5799 9.93012 21.3799 9.74012C21.1799 9.54012 20.9499 9.39012 20.6899 9.28012C20.4299 9.18012 20.1599 9.12012 19.8799 9.12012H19.1499V20.2801H19.8799C20.1599 20.2801 20.4299 20.2301 20.6899 20.1201C20.9499 20.0101 21.1799 19.8601 21.3799 19.6601C21.5799 19.4601 21.7299 19.2301 21.8399 18.9801C21.9499 18.7201 21.9999 18.4501 21.9999 18.1701V11.2201C21.9999 10.9401 21.9399 10.6701 21.8399 10.4101V10.4201Z" fill="white"/> <path d="M6.31006 9.03973C6.31006 9.03973 6.32006 9.00973 6.32006 8.98973C6.52006 6.92973 7.66006 4.46973 11.9901 4.46973C16.3201 4.46973 17.4601 6.92973 17.6501 8.98973C17.6501 9.00973 17.6601 9.01973 17.6601 9.03973C17.6601 9.06973 17.6401 9.08973 17.6401 9.11973H19.1401C19.1401 9.11973 19.1201 9.04973 19.1201 9.01973C19.1201 8.95973 19.1401 8.90973 19.1401 8.84973C18.9701 7.07973 17.9501 2.96973 11.9801 2.96973C6.01006 2.96973 4.98006 7.07973 4.81006 8.84973C4.81006 8.90973 4.82006 8.95973 4.83006 9.01973C4.83006 9.04973 4.81006 9.08973 4.81006 9.11973H6.31006C6.31006 9.11973 6.30006 9.06973 6.29006 9.03973H6.31006Z" fill="white"/> <path d="M4.83008 20.2803C4.83008 20.6903 5.17008 21.0303 5.58008 21.0303C5.99008 21.0303 6.33008 20.6903 6.33008 20.2803H4.83008Z" fill="white"/> <path d="M17.6599 20.2803C17.6599 20.6903 17.9999 21.0303 18.4099 21.0303C18.8199 21.0303 19.1599 20.6903 19.1599 20.2803H17.6599Z" fill="white"/> <path d="M6.33008 9.12012V20.2801H17.6601V9.12012H6.33008ZM15.8201 15.1801C15.8201 17.1601 14.5901 17.9201 11.9501 17.9201C9.31008 17.9201 8.07008 17.1601 8.07008 15.1801V14.5301H15.8101V15.1801H15.8201Z" fill="white"/> </g> <defs> <clipPath id="clip0_2085_388781"> <rect width="24" height="24" fill="white"/> </clipPath> </defs> </svg>
