<svg width="24" height="24" viewBox="0 0 24 24" fill="none" xmlns="http://www.w3.org/2000/svg"> <g clip-path="url(#clip0_4482_4775)"> <path d="M18.57 15.49V18.25C18.57 19.28 18.15 20.22 17.4699 20.9C16.7899 21.58 15.86 22 14.82 22H10.85C9.98995 22 9.18995 21.59 8.68995 20.89L6.08994 17.25L5.90995 17L5.73995 16.76C5.55995 16.5 5.45995 16.21 5.43995 15.91C5.40995 15.55 5.49996 15.18 5.70996 14.87C6.03996 14.38 6.56995 14.12 7.09995 14.12C7.51995 14.12 7.94995 14.28 8.27995 14.61L9.48995 15.82V8.76C9.48995 7.79 10.2799 7 11.2499 7C12.2299 7 13.02 7.79 13.02 8.76V11.72C13.02 12.06 13.25 12.35 13.58 12.44L16.8899 13.31C17.8799 13.57 18.57 14.46 18.57 15.49Z" fill="white"/> <path d="M12 0.5C6.49 0.5 2 4.99 2 10.5C2 12.8 2.81 15.06 4.28 16.86C4.57 17.22 5 17.41 5.44 17.41C5.63 17.41 5.82 17.37 6 17.3C6.03 17.29 6.06 17.27 6.09 17.25L5.91 17L5.74001 16.76C5.56001 16.5 5.46 16.21 5.44 15.91C4.23 14.43 3.5 12.55 3.5 10.5C3.5 5.81 7.31 2 12 2C16.69 2 20.5 5.81 20.5 10.5C20.5 12.54 19.78 14.43 18.57 15.9V17.4C19.01 17.4 19.44 17.21 19.73 16.85C21.19 15.07 22 12.82 22 10.5C22 4.99 17.51 0.5 12 0.5Z" fill="white"/> </g> <defs> <clipPath id="clip0_4482_4775"> <rect width="24" height="24" fill="white"/> </clipPath> </defs> </svg>
