<svg width="24" height="24" viewBox="0 0 24 24" fill="none" xmlns="http://www.w3.org/2000/svg"> <g clip-path="url(#clip0_2085_384368)"> <path d="M12.8828 8.96242C12.6953 8.77517 12.4412 8.67 12.1762 8.67H11.23C11.23 8.67 11.23 8.66 11.23 8.65V6H12.19C12.6 6 12.94 5.66 12.94 5.25C12.94 4.84 12.6 4.5 12.19 4.5H8.78C8.37 4.5 8.03 4.84 8.03 5.25C8.03 5.66 8.37 6 8.78 6H9.74V8.65C9.74 8.65 9.74 8.66 9.74 8.67H3C2.45 8.67 2 9.12 2 9.67V10.79C2 13.38 4.1 15.48 6.69 15.48H7.85C8.06 15.87 8.29 16.51 8.24 17.37C8.2 17.97 8.41 18.56 8.82 18.99C9.18 19.37 9.65 19.58 10.15 19.58H14.5183C14.5325 19.58 14.5327 19.5816 14.5465 19.5785C14.6142 19.5634 14.7 19.58 14.749 19.629L15.78 20.66C17.14 22.02 19.44 21.86 20.58 20.18C21.42 18.93 21.17 17.24 20.1 16.17L12.8828 8.96242ZM10.15 18.08C10.15 18.08 10.02 18.08 9.91 17.96C9.79 17.84 9.73 17.64 9.74 17.46C9.78 16.77 9.69 16.1 9.48 15.48H10.61L13.21 18.08H10.16H10.15Z" fill="white"/> <path d="M3.67993 6.93994H5.37993C5.78993 6.93994 6.12993 6.59994 6.12993 6.18994C6.12993 5.77994 5.78993 5.43994 5.37993 5.43994H3.67993C3.26993 5.43994 2.92993 5.77994 2.92993 6.18994C2.92993 6.59994 3.26993 6.93994 3.67993 6.93994Z" fill="white"/> <path d="M22.0701 6.22008L20.8301 6.10008L20.9501 4.86008C20.9901 4.45008 20.6901 4.08008 20.2801 4.04008L19.0401 3.92008L19.1601 2.68008C19.1801 2.48008 19.1201 2.28008 18.9901 2.13008C18.8601 1.98008 18.6801 1.88008 18.4801 1.86008L16.5001 1.67008C16.0801 1.63008 15.7201 1.93008 15.6801 2.34008C15.6401 2.75008 15.9401 3.12008 16.3501 3.16008L17.5901 3.28008L17.4701 4.52008C17.4501 4.72008 17.5101 4.92008 17.6401 5.07008C17.7701 5.22008 17.9501 5.32008 18.1501 5.34008L19.3901 5.46008L19.2701 6.70008C19.2301 7.11008 19.5301 7.48008 19.9401 7.52008L21.1801 7.64008L21.0601 8.88008C21.0201 9.29008 21.3201 9.66008 21.7301 9.70008C21.7501 9.70008 21.7801 9.70008 21.8001 9.70008C22.1801 9.70008 22.5101 9.41008 22.5501 9.02008L22.7401 7.04008C22.7801 6.63008 22.4801 6.26008 22.0701 6.22008Z" fill="white"/> </g> <defs> <clipPath id="clip0_2085_384368"> <rect width="24" height="24" fill="white"/> </clipPath> </defs> </svg>
