<svg width="24" height="24" viewBox="0 0 24 24" fill="none" xmlns="http://www.w3.org/2000/svg"> <g clip-path="url(#clip0_4482_1388)"> <path d="M10.8799 16.0201H12.8099L13.1199 14.1201H11.1899L10.8799 16.0201Z" fill="white"/> <path d="M16.5 2H7.5C5.3 2 3.5 3.8 3.5 6V18C3.5 20.2 5.3 22 7.5 22H16.5C18.7 22 20.5 20.2 20.5 18V6C20.5 3.8 18.7 2 16.5 2ZM15.8 14.12H14.64L14.32 16.02H15.19C15.6 16.02 15.94 16.36 15.94 16.77C15.94 17.18 15.6 17.52 15.19 17.52H14.07L13.88 18.64C13.82 19.01 13.5 19.27 13.14 19.27C13.1 19.27 13.06 19.27 13.02 19.26C12.61 19.19 12.34 18.8 12.4 18.4L12.55 17.52H10.62L10.43 18.64C10.37 19.01 10.05 19.27 9.69 19.27C9.65 19.27 9.61 19.27 9.57 19.26C9.16 19.19 8.89 18.8 8.95 18.4L9.1 17.52H8.2C7.79 17.52 7.45 17.18 7.45 16.77C7.45 16.36 7.79 16.02 8.2 16.02H9.36L9.68 14.12H8.8C8.39 14.12 8.05 13.78 8.05 13.37C8.05 12.96 8.39 12.62 8.8 12.62H9.92L10.11 11.49C10.18 11.08 10.56 10.8 10.97 10.87C11.38 10.94 11.65 11.33 11.59 11.73L11.44 12.62H13.37L13.56 11.49C13.63 11.08 14.01 10.8 14.42 10.87C14.83 10.94 15.1 11.33 15.04 11.73L14.89 12.62H15.8C16.21 12.62 16.55 12.96 16.55 13.37C16.55 13.78 16.21 14.12 15.8 14.12ZM17.5 8.75H16.5C14.98 8.75 13.75 7.52 13.75 6V5C13.75 4.59 14.09 4.25 14.5 4.25C14.91 4.25 15.25 4.59 15.25 5V6C15.25 6.69 15.81 7.25 16.5 7.25H17.5C17.91 7.25 18.25 7.59 18.25 8C18.25 8.41 17.91 8.75 17.5 8.75Z" fill="white"/> </g> <defs> <clipPath id="clip0_4482_1388"> <rect width="24" height="24" fill="white"/> </clipPath> </defs> </svg>
