<svg width="24" height="24" viewBox="0 0 24 24" fill="none" xmlns="http://www.w3.org/2000/svg"> <g clip-path="url(#clip0_4482_1443)"> <path d="M17 2H7C4.25 2 2 4.25 2 7V17C2 19.75 4.25 22 7 22H17C19.75 22 22 19.75 22 17V7C22 4.25 19.75 2 17 2ZM11.36 14.78C11.36 15.19 11.02 15.53 10.61 15.53C10.2 15.53 9.86 15.19 9.86 14.78V12.76H7.67V14.78C7.67 15.19 7.33 15.53 6.92 15.53C6.51 15.53 6.17 15.19 6.17 14.78V9.23C6.17 8.82 6.51 8.48 6.92 8.48C7.33 8.48 7.67 8.82 7.67 9.23V11.26H9.86V9.23C9.86 8.82 10.2 8.48 10.61 8.48C11.02 8.48 11.36 8.82 11.36 9.23V14.78ZM17.83 12.92C17.83 14.35 16.66 15.52 15.23 15.52H13.38C12.97 15.52 12.63 15.18 12.63 14.77V9.22C12.63 8.81 12.97 8.47 13.38 8.47H15.23C16.66 8.47 17.83 9.64 17.83 11.07V12.92Z" fill="white"/> <path d="M15.2299 9.97998H14.1299V14.03H15.2299C15.8399 14.03 16.3299 13.54 16.3299 12.93V11.08C16.3299 10.47 15.8399 9.97998 15.2299 9.97998Z" fill="white"/> </g> <defs> <clipPath id="clip0_4482_1443"> <rect width="24" height="24" fill="white"/> </clipPath> </defs> </svg>
