<svg width="24" height="24" viewBox="0 0 24 24" fill="none" xmlns="http://www.w3.org/2000/svg">
<path d="M4 10.0004L10.2627 12.7397C11.2243 13.1606 11.6664 14.2787 11.2529 15.2436C11.1902 15.3899 11.1115 15.5245 11.0195 15.6459L13.7334 17.3666C14.5664 17.783 15.4848 18.0003 16.416 18.0004H18C19.1046 18.0004 20 18.8958 20 20.0004C19.9998 21.1048 19.1045 22.0004 18 22.0004H9.88867C8.64671 22.0004 7.42139 21.7111 6.31055 21.1557L2 19.0004V10.0004H4ZM16.459 2.94571C17.7266 1.68477 19.7822 1.68476 21.0498 2.94571C22.3171 4.2066 22.3171 6.25121 21.0498 7.51211L16.918 11.6215C16.4109 12.1259 15.5891 12.1259 15.082 11.6215L10.9502 7.51211C9.68293 6.25121 9.68291 4.2066 10.9502 2.94571C12.2178 1.68476 14.2734 1.68477 15.541 2.94571L16 3.40274L16.459 2.94571Z" fill="black"/>
</svg>
