<svg width="24" height="24" viewBox="0 0 24 24" fill="none" xmlns="http://www.w3.org/2000/svg"> <g clip-path="url(#clip0_2085_393679)"> <path d="M20.9001 17.9796H20.6401V15.5096C20.6401 14.9796 20.2101 14.5596 19.6901 14.5596H19.5001C17.1601 14.5596 14.8301 14.8996 12.5901 15.5896H12.5701C12.4301 15.6296 12.3001 15.6696 12.1501 15.7096L12.0001 15.7596L11.8501 15.7096C11.7101 15.6596 11.5701 15.6196 11.4201 15.5896C9.18012 14.8996 6.85012 14.5596 4.51012 14.5596H4.32012C3.80012 14.5596 3.37012 14.9796 3.37012 15.5096V17.9796H3.11012C2.56012 17.9796 2.12012 18.4196 2.12012 18.9696V19.4396C2.12012 19.9896 2.56012 20.4296 3.11012 20.4296H10.7601V19.2496C10.7601 18.5596 11.3201 18.0096 12.0101 18.0096C12.7001 18.0096 13.2601 18.5596 13.2601 19.2496V20.4296H20.9101C21.4601 20.4296 21.9001 19.9896 21.9001 19.4396V18.9696C21.9001 18.4196 21.4601 17.9796 20.9101 17.9796H20.9001Z" fill="white"/> <path d="M16.8301 6.20965H17.4001V6.77965C17.4001 7.18965 17.7401 7.52965 18.1501 7.52965C18.5601 7.52965 18.9001 7.18965 18.9001 6.77965V6.20965H19.4601C19.8701 6.20965 20.2101 5.86965 20.2101 5.45965C20.2101 5.04965 19.8701 4.70965 19.4601 4.70965H18.9001V4.13965C18.9001 3.72965 18.5601 3.38965 18.1501 3.38965C17.7401 3.38965 17.4001 3.72965 17.4001 4.13965V4.70965H16.8301C16.4201 4.70965 16.0801 5.04965 16.0801 5.45965C16.0801 5.86965 16.4201 6.20965 16.8301 6.20965Z" fill="white"/> <path d="M7.38013 9.67938H7.94013V10.2494C7.94013 10.6594 8.28013 10.9994 8.69013 10.9994C9.10013 10.9994 9.44013 10.6594 9.44013 10.2494V9.67938H10.0101C10.4201 9.67938 10.7601 9.33938 10.7601 8.92938C10.7601 8.51938 10.4201 8.17938 10.0101 8.17938H9.44013V7.60938C9.44013 7.19938 9.10013 6.85938 8.69013 6.85938C8.28013 6.85938 7.94013 7.19938 7.94013 7.60938V8.17938H7.38013C6.97013 8.17938 6.63013 8.51938 6.63013 8.92938C6.63013 9.33938 6.97013 9.67938 7.38013 9.67938Z" fill="white"/> <path d="M4.28004 6.42922C4.97004 6.42922 5.52004 5.86922 5.52004 5.18922C5.52004 4.50922 4.96004 3.94922 4.28004 3.94922C3.60004 3.94922 3.04004 4.50922 3.04004 5.18922C3.04004 5.86922 3.60004 6.42922 4.28004 6.42922Z" fill="white"/> <path d="M12.3801 11.1199C12.3801 11.8099 12.9401 12.3599 13.6301 12.3599C14.3201 12.3599 14.8701 11.7999 14.8701 11.1199C14.8701 10.4399 14.3101 9.87988 13.6301 9.87988C12.9501 9.87988 12.3801 10.4399 12.3801 11.1199Z" fill="white"/> <path d="M9.96021 4.30957H11.2002C11.6102 4.30957 11.9502 3.96957 11.9502 3.55957C11.9502 3.14957 11.6102 2.80957 11.2002 2.80957H9.96021C9.55021 2.80957 9.21021 3.14957 9.21021 3.55957C9.21021 3.96957 9.55021 4.30957 9.96021 4.30957Z" fill="white"/> <path d="M19.6501 9.5H18.4001C17.9901 9.5 17.6501 9.84 17.6501 10.25C17.6501 10.66 17.9901 11 18.4001 11H19.6501C20.0601 11 20.4001 10.66 20.4001 10.25C20.4001 9.84 20.0601 9.5 19.6501 9.5Z" fill="white"/> <path d="M11.3501 6.59961C11.3501 7.00961 11.6901 7.34961 12.1001 7.34961H13.3401C13.7501 7.34961 14.0901 7.00961 14.0901 6.59961C14.0901 6.18961 13.7501 5.84961 13.3401 5.84961H12.1001C11.6901 5.84961 11.3501 6.18961 11.3501 6.59961Z" fill="white"/> <path d="M4.04004 10.6992C3.63004 10.6992 3.29004 11.0392 3.29004 11.4492C3.29004 11.8592 3.63004 12.1992 4.04004 12.1992H5.28004C5.69004 12.1992 6.03004 11.8592 6.03004 11.4492C6.03004 11.0392 5.69004 10.6992 5.28004 10.6992H4.04004Z" fill="white"/> </g> <defs> <clipPath id="clip0_2085_393679"> <rect width="24" height="24" fill="white"/> </clipPath> </defs> </svg>
