<svg width="24" height="24" viewBox="0 0 24 24" fill="none" xmlns="http://www.w3.org/2000/svg"> <g clip-path="url(#clip0_4482_4487)"> <path d="M21.8 21.4004C21.25 21.4004 20.8 20.9504 20.8 20.4004C20.8 19.8504 21.24 19.4004 21.8 19.4004H21.81C22.36 19.4004 22.81 19.8504 22.81 20.4004C22.81 20.9504 22.35 21.4004 21.8 21.4004Z" fill="white"/> <path d="M16.9 19.6101C19.17 19.6101 21 17.7702 21 15.5102C21 13.2502 19.16 11.4102 16.9 11.4102C14.63 11.4102 12.8 13.2502 12.8 15.5102C12.8 17.7702 14.63 19.6101 16.9 19.6101Z" fill="white"/> <path d="M11.4 14.3897C11.82 12.2197 13.57 10.4597 15.73 10.0197C16.86 9.78965 17.94 9.89965 18.9 10.2697C19.6 10.5397 20.35 9.91965 20.22 9.17965C19.94 7.53965 19.17 5.96966 17.9 4.69966C17.34 4.13966 16.73 3.63967 16.03 3.26967C12.56 1.42967 8.60001 2.17966 6.08001 4.69966C2.82001 7.97966 2.82001 13.2797 6.08001 16.5597L9.54 20.0297L9.55001 20.0397L10.7 21.2097C11.4 21.9197 12.54 21.9197 13.24 21.2197L13.27 21.1897C13.67 20.7897 13.68 20.1197 13.25 19.7497C11.8 18.5097 10.98 16.5297 11.4 14.3897Z" fill="white"/> </g> <defs> <clipPath id="clip0_4482_4487"> <rect width="24" height="24" fill="white"/> </clipPath> </defs> </svg>
