<svg width="24" height="24" viewBox="0 0 24 24" fill="none" xmlns="http://www.w3.org/2000/svg"> <g clip-path="url(#clip0_4482_13811)"> <path d="M20.84 16.9704H20.48V14.7604C20.48 13.1304 19.15 11.8004 17.52 11.8004H12.74V8.89035H16.58C18.32 8.89035 19.72 7.48035 19.72 5.75035C19.72 4.02035 18.31 2.61035 16.58 2.61035H7.41004C5.67004 2.61035 4.27004 4.02035 4.27004 5.75035C4.27004 7.48035 5.68004 8.89035 7.41004 8.89035H11.25V11.8004H6.47004C4.84004 11.8004 3.51004 13.1304 3.51004 14.7604V16.9704H3.15004C2.54004 16.9704 2.04004 17.4704 2.04004 18.0804V20.2904C2.04004 20.9004 2.54004 21.4004 3.15004 21.4004H5.36004C5.97004 21.4004 6.47004 20.9004 6.47004 20.2904V18.0804C6.47004 17.4704 5.97004 16.9704 5.36004 16.9704H5.01004V14.7604C5.01004 13.9604 5.67004 13.3004 6.47004 13.3004H11.25V16.9704H10.89C10.28 16.9704 9.78004 17.4704 9.78004 18.0804V20.2904C9.78004 20.9004 10.28 21.4004 10.89 21.4004H13.1C13.71 21.4004 14.21 20.9004 14.21 20.2904V18.0804C14.21 17.4704 13.71 16.9704 13.1 16.9704H12.74V13.3004H17.52C18.32 13.3004 18.98 13.9604 18.98 14.7604V16.9704H18.63C18.02 16.9704 17.52 17.4704 17.52 18.0804V20.2904C17.52 20.9004 18.02 21.4004 18.63 21.4004H20.84C21.45 21.4004 21.95 20.9004 21.95 20.2904V18.0804C21.95 17.4704 21.45 16.9704 20.84 16.9704Z" fill="white"/> </g> <defs> <clipPath id="clip0_4482_13811"> <rect width="24" height="24" fill="white"/> </clipPath> </defs> </svg>
