<svg width="24" height="24" viewBox="0 0 24 24" fill="none" xmlns="http://www.w3.org/2000/svg"> <g clip-path="url(#clip0_655_9474)"> <path d="M10.5998 4.4L8.8998 4.15L8.1398 2.61C7.7398 1.8 6.5798 1.8 6.1798 2.61L5.4198 4.15L3.7198 4.4C2.8198 4.53 2.4598 5.63 3.1098 6.27L4.3398 7.47L4.0498 9.16C3.8998 10.05 4.8298 10.73 5.6398 10.31L7.1598 9.51L8.6798 10.31C9.4798 10.73 10.4198 10.05 10.2698 9.16L9.9798 7.47L11.2098 6.27C11.8598 5.64 11.4998 4.53 10.5998 4.4Z" fill="white"/> <path d="M18.4601 6.08H20.6001V5.66L17.4801 2H17.0701L13.9601 5.66V6.08H16.1001L13.3301 9.4V9.81H16.0301V11.06H18.5201V9.81H21.2201V9.4L18.4601 6.08Z" fill="white"/> <path d="M8.70961 14.5C8.70961 13.64 8.00961 12.94 7.14961 12.94C6.28961 12.94 5.59961 13.64 5.59961 14.5C5.59961 15.36 6.28961 16.06 7.14961 16.06C8.00961 16.06 8.70961 15.36 8.70961 14.5Z" fill="white"/> <path d="M7.14969 16.06C5.50969 16.06 4.17969 17.39 4.17969 19.03C4.17969 20.67 5.50969 22 7.14969 22C8.78969 22 10.1197 20.67 10.1197 19.03C10.1197 17.39 8.78969 16.06 7.14969 16.06Z" fill="white"/> <path d="M19.9895 18.1V16.42C19.9895 14.95 18.8895 13.63 17.4195 13.56C15.8495 13.48 14.5595 14.72 14.5595 16.27V18.11C14.5595 18.55 14.4195 18.96 14.1795 19.3C13.9295 19.65 14.2195 20.15 14.6495 20.15H15.8195V20.56C15.8195 21.36 16.4695 22.01 17.2695 22.01C18.0695 22.01 18.7195 21.36 18.7195 20.56V20.15H19.8895C20.3195 20.15 20.6095 19.66 20.3595 19.3C20.1195 18.97 19.9795 18.55 19.9795 18.11L19.9895 18.1Z" fill="white"/> </g> <defs> <clipPath id="clip0_655_9474"> <rect width="24" height="24" fill="white"/> </clipPath> </defs> </svg>
