<svg width="24" height="24" viewBox="0 0 24 24" fill="none" xmlns="http://www.w3.org/2000/svg"> <g clip-path="url(#clip0_4482_10318)"> <path d="M18.3105 7.56006C18.3105 7.15006 17.9705 6.81006 17.5605 6.81006H7.56055C7.15055 6.81006 6.81055 7.15006 6.81055 7.56006C6.81055 7.97006 7.15055 8.31006 7.56055 8.31006H17.5605C17.9705 8.31006 18.3105 7.97006 18.3105 7.56006Z" fill="white"/> <path d="M18.3101 12C18.3101 11.59 17.9701 11.25 17.5601 11.25H13.1201C12.7101 11.25 12.3701 11.59 12.3701 12C12.3701 12.41 12.7101 12.75 13.1201 12.75H17.5601C17.9701 12.75 18.3101 12.41 18.3101 12Z" fill="white"/> <path d="M17.5608 15.6899H15.3408C14.9308 15.6899 14.5908 16.0299 14.5908 16.4399C14.5908 16.8499 14.9308 17.1899 15.3408 17.1899H17.5608C17.9708 17.1899 18.3108 16.8499 18.3108 16.4399C18.3108 16.0299 17.9708 15.6899 17.5608 15.6899Z" fill="white"/> <path d="M17.0004 1.25H8.11035C4.94035 1.25 2.36035 3.83 2.36035 7V9.78C2.36035 10.19 2.70035 10.53 3.11035 10.53C3.52035 10.53 3.86035 10.19 3.86035 9.78V7C3.86035 4.66 5.77035 2.75 8.11035 2.75H17.0004C19.3404 2.75 21.2504 4.66 21.2504 7V17C21.2504 19.34 19.3404 21.25 17.0004 21.25H15.3304C14.9204 21.25 14.5804 21.59 14.5804 22C14.5804 22.41 14.9204 22.75 15.3304 22.75H17.0004C20.1704 22.75 22.7504 20.17 22.7504 17V7C22.7504 3.83 20.1704 1.25 17.0004 1.25Z" fill="white"/> <path d="M10.8902 20.3298V16.8398C10.8902 16.3298 10.6602 15.8498 10.2602 15.5398L7.83023 13.5998C7.02023 12.9498 5.87023 12.9498 5.05023 13.5998L2.62023 15.5398C2.22023 15.8598 1.99023 16.3398 1.99023 16.8398V20.3298C1.99023 21.2498 2.74023 21.9998 3.66023 21.9998H9.22023C10.1402 21.9998 10.8902 21.2498 10.8902 20.3298Z" fill="white"/> </g> <defs> <clipPath id="clip0_4482_10318"> <rect width="24" height="24" fill="white"/> </clipPath> </defs> </svg>
