<svg width="24" height="24" viewBox="0 0 24 24" fill="none" xmlns="http://www.w3.org/2000/svg"> <g clip-path="url(#clip0_4482_10327)"> <path d="M20.12 6.93988L15.47 3.21988C13.44 1.59988 10.56 1.59988 8.53 3.21988L3.88 6.93988C2.69 7.88988 2 9.32988 2 10.8399V17.5499C2 19.9999 3.99 21.9899 6.44 21.9899H17.55C20 21.9899 21.99 19.9999 21.99 17.5499V10.8399C21.99 9.31988 21.3 7.87988 20.11 6.93988H20.12ZM13.62 16.8599C12.71 17.7399 11.28 17.7399 10.36 16.8599C9.11 15.6599 7.69 13.7099 8.21 11.4199C9.1 7.50988 14.89 7.50988 15.78 11.4199C16.3 13.7099 14.87 15.6599 13.62 16.8599Z" fill="white"/> </g> <defs> <clipPath id="clip0_4482_10327"> <rect width="24" height="24" fill="white"/> </clipPath> </defs> </svg>
