<svg width="24" height="24" viewBox="0 0 24 24" fill="none" xmlns="http://www.w3.org/2000/svg"> <g clip-path="url(#clip0_4482_10335)"> <path d="M2 18.8898V16.7198C2 16.1098 2.28 15.5398 2.75 15.1598L4.64 13.6498C5.37 13.0698 6.41 13.0698 7.14 13.6498L9.03 15.1598C9.5 15.5398 9.78 16.1098 9.78 16.7198V18.8898C9.78 19.9898 8.88 20.8898 7.78 20.8898H4C2.9 20.8898 2 19.9898 2 18.8898Z" fill="white"/> <path d="M19.6601 4.49023C19.6601 4.49023 19.6301 4.43023 19.6001 4.41023C19.5701 4.39023 19.5401 4.37023 19.5201 4.35023C17.6701 2.53023 15.1601 1.37023 12.4001 1.27023C9.64013 1.17023 7.07014 2.14023 5.08014 3.81023C5.04014 3.83023 5.00014 3.85023 4.97014 3.88023C4.96014 3.89023 4.95014 3.91023 4.94014 3.92023C2.97014 5.64023 1.62014 8.06023 1.31014 10.8202C1.26014 11.2302 1.56014 11.6002 1.97014 11.6502C2.38014 11.6902 2.75014 11.4002 2.80014 10.9902C3.04014 8.83023 4.03014 6.91023 5.49014 5.47023L18.5401 18.5202C17.1001 19.9702 15.1801 20.9702 13.0201 21.2102C12.6101 21.2602 12.3101 21.6302 12.3601 22.0402C12.4001 22.4202 12.7301 22.7102 13.1001 22.7102C13.1301 22.7102 13.1601 22.7102 13.1801 22.7102C15.9401 22.4002 18.3601 21.0502 20.0701 19.0902C20.0901 19.0802 20.1001 19.0702 20.1201 19.0602C20.1601 19.0202 20.1801 18.9802 20.2001 18.9302C21.8601 16.9502 22.8301 14.3802 22.7201 11.6402C22.6201 8.88023 21.4601 6.38023 19.6301 4.52023L19.6601 4.49023ZM6.65014 4.48023C8.26014 3.33023 10.2501 2.68023 12.3501 2.76023C14.4901 2.84023 16.4501 3.66023 17.9801 4.97023L12.5601 10.3902L6.64014 4.48023H6.65014ZM19.5301 17.3602L13.6201 11.4502L19.0401 6.03023C20.3501 7.56023 21.1701 9.52023 21.2501 11.6602C21.3301 13.7602 20.6801 15.7502 19.5301 17.3602Z" fill="white"/> </g> <defs> <clipPath id="clip0_4482_10335"> <rect width="24" height="24" fill="white"/> </clipPath> </defs> </svg>
