<svg width="24" height="24" viewBox="0 0 24 24" fill="none" xmlns="http://www.w3.org/2000/svg"> <g clip-path="url(#clip0_4482_10331)"> <path d="M20.46 13.04C20.05 13.04 19.71 13.38 19.71 13.79V17.89C19.71 19.74 18.21 21.24 16.36 21.24H6.1C4.25 21.24 2.75 19.74 2.75 17.89V7.64004C2.75 5.79004 4.25 4.29004 6.1 4.29004H10.2C10.61 4.29004 10.95 3.95004 10.95 3.54004C10.95 3.13004 10.61 2.79004 10.2 2.79004H6.1C3.43 2.79004 1.25 4.97004 1.25 7.64004V17.9C1.25 20.58 3.43 22.75 6.1 22.75H16.36C19.04 22.75 21.21 20.57 21.21 17.9V13.8C21.21 13.39 20.87 13.05 20.46 13.05V13.04Z" fill="white"/> <path d="M22.5296 7.61994C22.2396 7.32994 21.7596 7.32994 21.4696 7.61994L21.2096 7.87994V5.58994C21.2096 4.04994 19.9496 2.78994 18.4096 2.78994H16.1196L16.3796 2.52994C16.6696 2.23994 16.6696 1.75994 16.3796 1.46994C16.0896 1.17994 15.6096 1.17994 15.3196 1.46994L13.7796 3.00994C13.7096 3.07994 13.6596 3.15994 13.6196 3.24994C13.5396 3.42994 13.5396 3.63994 13.6196 3.81994C13.6596 3.90994 13.7096 3.98994 13.7796 4.05994L15.3196 5.59994C15.4696 5.74994 15.6596 5.81994 15.8496 5.81994C16.0396 5.81994 16.2296 5.74994 16.3796 5.59994C16.6696 5.30994 16.6696 4.82994 16.3796 4.53994L16.1196 4.27994H18.4096C19.1296 4.27994 19.7096 4.85994 19.7096 5.57994V7.86994L19.4496 7.60994C19.1596 7.31994 18.6796 7.31994 18.3896 7.60994C18.0996 7.89994 18.0996 8.37994 18.3896 8.66994L19.9296 10.2099C19.9996 10.2799 20.0796 10.3299 20.1696 10.3699C20.2596 10.4099 20.3596 10.4299 20.4596 10.4299C20.5596 10.4299 20.6596 10.4099 20.7496 10.3699C20.8396 10.3299 20.9196 10.2799 20.9896 10.2099L22.5296 8.66994C22.8196 8.37994 22.8196 7.89994 22.5296 7.60994V7.61994Z" fill="white"/> <path d="M7.70988 10.9099C7.33988 11.1999 7.12988 11.6399 7.12988 12.1099V15.3299C7.12988 16.1799 7.81988 16.8699 8.66988 16.8699H13.7999C14.6499 16.8699 15.3399 16.1799 15.3399 15.3299V12.1099C15.3399 11.6399 15.1299 11.1999 14.7599 10.9099L12.5199 9.11992C11.7699 8.51992 10.7099 8.51992 9.95988 9.11992L7.71988 10.9099H7.70988Z" fill="white"/> </g> <defs> <clipPath id="clip0_4482_10331"> <rect width="24" height="24" fill="white"/> </clipPath> </defs> </svg>
