<svg width="24" height="24" viewBox="0 0 24 24" fill="none" xmlns="http://www.w3.org/2000/svg"> <g clip-path="url(#clip0_4482_1679)"> <path d="M23.4299 8.25004L14.3299 1.92004C13.0499 1.03004 11.39 1.02004 10.1 1.88004L0.579947 8.24004C0.239947 8.47004 0.13994 8.94004 0.36994 9.28004C0.50994 9.50004 0.74995 9.61004 0.98995 9.61004C1.12995 9.61004 1.27995 9.57004 1.40995 9.48004L3.42994 8.13004V18C3.42994 20.21 5.22994 22 7.42994 22H16.6799C18.8799 22 20.6799 20.21 20.6799 18V8.17004L22.5599 9.48004C22.8999 9.72004 23.37 9.63004 23.6 9.29004C23.85 8.96004 23.7699 8.49004 23.4299 8.25004ZM14.9999 17.75H8.99994C8.58994 17.75 8.24994 17.41 8.24994 17C8.24994 16.59 8.58994 16.25 8.99994 16.25H14.9999C15.4099 16.25 15.7499 16.59 15.7499 17C15.7499 17.41 15.4099 17.75 14.9999 17.75Z" fill="white"/> </g> <defs> <clipPath id="clip0_4482_1679"> <rect width="24" height="24" fill="white"/> </clipPath> </defs> </svg>
