<svg width="24" height="24" viewBox="0 0 24 24" fill="none" xmlns="http://www.w3.org/2000/svg"> <g clip-path="url(#clip0_4482_13622)"> <path d="M16.5103 3.21988C13.7203 1.59988 10.2803 1.59988 7.50027 3.21988C4.71027 4.83988 3.02026 7.83988 3.06026 11.0599C3.06026 14.7099 6.57026 18.5799 9.20026 20.9599C10.8103 22.3499 13.2003 22.3499 14.8203 20.9599C17.4503 18.5799 20.9603 14.7099 20.9603 11.0599C21.0003 7.83988 19.3003 4.83988 16.5203 3.21988H16.5103ZM15.3903 14.1099C15.3903 14.5199 15.0503 14.8599 14.6403 14.8599C14.2303 14.8599 13.8903 14.5199 13.8903 14.1099V11.6999H10.1303V14.1099C10.1303 14.5199 9.79027 14.8599 9.38027 14.8599C8.97027 14.8599 8.63027 14.5199 8.63027 14.1099V7.78988C8.63027 7.37988 8.97027 7.03988 9.38027 7.03988C9.79027 7.03988 10.1303 7.37988 10.1303 7.78988V10.1999H13.8903V7.78988C13.8903 7.37988 14.2303 7.03988 14.6403 7.03988C15.0503 7.03988 15.3903 7.37988 15.3903 7.78988V14.1099Z" fill="white"/> </g> <defs> <clipPath id="clip0_4482_13622"> <rect width="24" height="24" fill="white"/> </clipPath> </defs> </svg>
