<svg width="24" height="24" viewBox="0 0 24 24" fill="none" xmlns="http://www.w3.org/2000/svg"> <g clip-path="url(#clip0_2085_391825)"> <path d="M22 18.7598H2C1.59 18.7598 1.25 19.0998 1.25 19.5098C1.25 21.2998 2.7 22.7498 4.49 22.7498H19.51C21.3 22.7498 22.75 21.2998 22.75 19.5098C22.75 19.0998 22.41 18.7598 22 18.7598ZM19.51 21.2498H4.49C3.8 21.2498 3.2 20.8498 2.92 20.2598H21.08C20.8 20.8498 20.2 21.2498 19.51 21.2498Z" fill="white"/> <path d="M21.0799 20.2598C20.7999 20.8498 20.1999 21.2498 19.5099 21.2498H4.48992C3.79992 21.2498 3.19992 20.8498 2.91992 20.2598H21.0799Z" fill="white"/> <path d="M19.3501 9.47063C19.2701 8.90063 19.0001 8.38063 18.6001 7.98063C18.1101 7.46063 17.4101 7.14062 16.6401 7.14062H7.36011C5.84011 7.14062 4.61011 8.38063 4.61011 9.89063V12.9506C4.61011 13.7106 4.93011 14.4106 5.44011 14.9106C5.93011 15.4006 6.61011 15.7006 7.36011 15.7006H16.6401C17.3901 15.7006 18.0701 15.4006 18.5601 14.9106C18.7201 14.7506 18.8701 14.5806 18.9801 14.3806C19.2401 13.9606 19.3901 13.4706 19.3901 12.9506V9.89063C19.3901 9.75063 19.3801 9.61063 19.3501 9.47063ZM7.36011 14.2006C6.67011 14.2006 6.11011 13.6406 6.11011 12.9506V9.89063C6.11011 9.20063 6.67011 8.64063 7.36011 8.64063H16.6401C17.3301 8.64063 17.8901 9.20063 17.8901 9.89063V12.9506C17.8901 13.6406 17.3301 14.2006 16.6401 14.2006H7.36011Z" fill="white"/> <path d="M16.6401 8.64062H7.36011C6.66975 8.64062 6.11011 9.20027 6.11011 9.89062V12.9506C6.11011 13.641 6.66975 14.2006 7.36011 14.2006H16.6401C17.3305 14.2006 17.8901 13.641 17.8901 12.9506V9.89062C17.8901 9.20027 17.3305 8.64062 16.6401 8.64062Z" fill="white"/> <path d="M18.2199 14.3192C18.2199 14.3192 18.1999 14.3092 18.1899 14.2992C18.0799 14.2392 17.9499 14.1992 17.8099 14.1992H6.18994C5.78994 14.1992 5.45994 14.5092 5.43994 14.9092V17.4392C5.43994 17.9192 5.55994 18.3692 5.76994 18.7592C6.24994 19.6492 7.18994 20.2592 8.26994 20.2592H15.7299C16.8099 20.2592 17.7499 19.6492 18.2299 18.7592C18.4399 18.3692 18.5599 17.9192 18.5599 17.4392V14.9092C18.5499 14.6592 18.4099 14.4492 18.2199 14.3192ZM8.26994 18.7592C7.52994 18.7592 6.93994 18.1692 6.93994 17.4392V15.6992H17.0599V17.4392C17.0599 18.1692 16.4599 18.7592 15.7299 18.7592H8.26994Z" fill="white"/> <path d="M18.64 14.4505C18.32 14.4505 18.02 14.2405 17.92 13.9105C17.8 13.5105 18.03 13.1005 18.43 12.9805L20.86 12.2705C21.07 12.2105 21.22 12.0105 21.22 11.8005V9.97047C21.22 9.70047 21 9.48047 20.72 9.48047H18.65C18.24 9.48047 17.9 9.14047 17.9 8.73047C17.9 8.32047 18.24 7.98047 18.65 7.98047H20.72C21.82 7.98047 22.72 8.88047 22.72 9.97047V11.8005C22.72 12.6805 22.13 13.4705 21.29 13.7105L18.86 14.4205C18.79 14.4405 18.72 14.4505 18.65 14.4505H18.64Z" fill="white"/> <path d="M12.8301 6.48031C12.4201 6.48031 12.0801 6.14031 12.0801 5.73031C12.0801 4.86031 12.7901 4.15031 13.6601 4.15031H15.3201C15.3201 4.15031 15.4001 4.11031 15.4001 4.07031C15.4001 3.66031 15.7401 3.32031 16.1501 3.32031C16.5601 3.32031 16.9001 3.66031 16.9001 4.07031C16.9001 4.94031 16.1901 5.65031 15.3201 5.65031H13.6601C13.6601 5.65031 13.5801 5.69031 13.5801 5.73031C13.5801 6.14031 13.2401 6.48031 12.8301 6.48031Z" fill="white"/> <path d="M10.3401 4.41C9.93009 4.41 9.59009 4.07 9.59009 3.66C9.59009 2.79 10.3001 2.08 11.1701 2.08H12.8301C12.8301 2.08 12.9101 2.04 12.9101 2C12.9101 1.59 13.2501 1.25 13.6601 1.25C14.0701 1.25 14.4101 1.59 14.4101 2C14.4101 2.87 13.7001 3.58 12.8301 3.58H11.1701C11.1701 3.58 11.0901 3.62 11.0901 3.66C11.0901 4.07 10.7501 4.41 10.3401 4.41Z" fill="white"/> </g> <defs> <clipPath id="clip0_2085_391825"> <rect width="24" height="24" fill="white"/> </clipPath> </defs> </svg>
