<svg width="24" height="24" viewBox="0 0 24 24" fill="none" xmlns="http://www.w3.org/2000/svg"> <g clip-path="url(#clip0_2085_384370)"> <path d="M17.9099 11.25H16.1399C15.7299 11.25 15.3899 11.59 15.3899 12C15.3899 12.41 15.7299 12.75 16.1399 12.75H17.9099C18.3199 12.75 18.6599 12.41 18.6599 12C18.6599 11.59 18.3199 11.25 17.9099 11.25Z" fill="white"/> <path d="M22 11.25H20.23C19.82 11.25 19.48 11.59 19.48 12C19.48 12.41 19.82 12.75 20.23 12.75H22C22.41 12.75 22.75 12.41 22.75 12C22.75 11.59 22.41 11.25 22 11.25Z" fill="white"/> <path d="M17.9099 7.75C18.3199 7.75 18.6599 7.41 18.6599 7C18.6599 6.59 18.3199 6.25 17.9099 6.25H16.1399C15.7299 6.25 15.3899 6.59 15.3899 7C15.3899 7.41 15.7299 7.75 16.1399 7.75H17.9099Z" fill="white"/> <path d="M20.23 7.75H20.65C21.06 7.75 21.4 7.41 21.4 7C21.4 6.59 21.06 6.25 20.65 6.25H20.23C19.82 6.25 19.48 6.59 19.48 7C19.48 7.41 19.82 7.75 20.23 7.75Z" fill="white"/> <path d="M16.1299 17.75H17.8999C18.3099 17.75 18.6499 17.41 18.6499 17C18.6499 16.59 18.3099 16.25 17.8999 16.25H16.1299C15.7199 16.25 15.3799 16.59 15.3799 17C15.3799 17.41 15.7199 17.75 16.1299 17.75Z" fill="white"/> <path d="M20.65 16.25H20.23C19.82 16.25 19.48 16.59 19.48 17C19.48 17.41 19.82 17.75 20.23 17.75H20.65C21.06 17.75 21.4 17.41 21.4 17C21.4 16.59 21.06 16.25 20.65 16.25Z" fill="white"/> <path d="M13.54 9.5C13.54 9.91 13.88 10.25 14.29 10.25H16.06C16.47 10.25 16.81 9.91 16.81 9.5C16.81 9.09 16.47 8.75 16.06 8.75H14.29C13.88 8.75 13.54 9.09 13.54 9.5Z" fill="white"/> <path d="M16.81 14.5C16.81 14.09 16.47 13.75 16.06 13.75H14.29C13.88 13.75 13.54 14.09 13.54 14.5C13.54 14.91 13.88 15.25 14.29 15.25H16.06C16.47 15.25 16.81 14.91 16.81 14.5Z" fill="white"/> <path d="M20.9099 9.5C20.9099 9.09 20.5699 8.75 20.1599 8.75H18.3899C17.9799 8.75 17.6399 9.09 17.6399 9.5C17.6399 9.91 17.9799 10.25 18.3899 10.25H20.1599C20.5699 10.25 20.9099 9.91 20.9099 9.5Z" fill="white"/> <path d="M20.9099 14.5C20.9099 14.09 20.5699 13.75 20.1599 13.75H18.3899C17.9799 13.75 17.6399 14.09 17.6399 14.5C17.6399 14.91 17.9799 15.25 18.3899 15.25H20.1599C20.5699 15.25 20.9099 14.91 20.9099 14.5Z" fill="white"/> <path d="M13.54 4.49023C13.54 4.90023 13.88 5.24023 14.29 5.24023H16.06C16.47 5.24023 16.81 4.90023 16.81 4.49023C16.81 4.08023 16.47 3.74023 16.06 3.74023H14.29C13.88 3.74023 13.54 4.08023 13.54 4.49023Z" fill="white"/> <path d="M16.06 18.75H14.29C13.88 18.75 13.54 19.09 13.54 19.5C13.54 19.91 13.88 20.25 14.29 20.25H16.06C16.47 20.25 16.81 19.91 16.81 19.5C16.81 19.09 16.47 18.75 16.06 18.75Z" fill="white"/> <path d="M18.3899 5.24023H18.8099C19.2199 5.24023 19.5599 4.90023 19.5599 4.49023C19.5599 4.08023 19.2199 3.74023 18.8099 3.74023H18.3899C17.9799 3.74023 17.6399 4.08023 17.6399 4.49023C17.6399 4.90023 17.9799 5.24023 18.3899 5.24023Z" fill="white"/> <path d="M18.7999 18.75H18.3799C17.9699 18.75 17.6299 19.09 17.6299 19.5C17.6299 19.91 17.9699 20.25 18.3799 20.25H18.7999C19.2099 20.25 19.5499 19.91 19.5499 19.5C19.5499 19.09 19.2099 18.75 18.7999 18.75Z" fill="white"/> <path d="M13.81 21.2402H12.79V17.7502H13.81C14.22 17.7502 14.56 17.4102 14.56 17.0002C14.56 16.5902 14.22 16.2502 13.81 16.2502H12.79V12.7502H13.81C14.22 12.7502 14.56 12.4102 14.56 12.0002C14.56 11.5902 14.22 11.2502 13.81 11.2502H12.79V7.74023H13.81C14.22 7.74023 14.56 7.40023 14.56 6.99023C14.56 6.58023 14.22 6.24023 13.81 6.24023H12.79V2.74023H13.81C14.22 2.74023 14.56 2.40023 14.56 1.99023C14.56 1.58023 14.22 1.24023 13.81 1.24023H12.05C12.05 1.24023 12.05 1.24023 12.04 1.24023C6.09 1.25023 1.25 6.07023 1.25 12.0002C1.25 17.9302 6.09 22.7502 12.04 22.7502C12.05 22.7502 12.06 22.7502 12.08 22.7502H13.81C14.22 22.7502 14.56 22.4102 14.56 22.0002C14.56 21.5902 14.22 21.2502 13.81 21.2502V21.2402Z" fill="white"/> </g> <defs> <clipPath id="clip0_2085_384370"> <rect width="24" height="24" fill="white"/> </clipPath> </defs> </svg>
