<svg width="24" height="24" viewBox="0 0 24 24" fill="none" xmlns="http://www.w3.org/2000/svg"> <g clip-path="url(#clip0_3247_9498)"> <path d="M1.99994 22.7504C1.80994 22.7504 1.61994 22.6804 1.46994 22.5304C1.17994 22.2404 1.17994 21.7604 1.46994 21.4704L11.4699 11.4704C11.7599 11.1804 12.2399 11.1804 12.5299 11.4704C12.8199 11.7604 12.8199 12.2404 12.5299 12.5304L2.52994 22.5304C2.37994 22.6704 2.18994 22.7504 1.99994 22.7504Z" fill="white"/> <path d="M7 11H13V17L7 11Z" fill="white"/> <path d="M13 17.75C12.81 17.75 12.61 17.67 12.47 17.53L6.46999 11.53C6.25999 11.32 6.18999 10.99 6.30999 10.71C6.42999 10.43 6.69999 10.25 6.99999 10.25H13C13.41 10.25 13.75 10.59 13.75 11V17C13.75 17.3 13.57 17.58 13.29 17.69C13.19 17.73 13.1 17.75 13 17.75ZM8.80999 11.75L12.25 15.19V11.75H8.80999Z" fill="white"/> <path d="M12 22.75C11.59 22.75 11.25 22.41 11.25 22C11.25 21.59 11.59 21.25 12 21.25C17.1 21.25 21.25 17.1 21.25 12C21.25 6.9 17.1 2.75 12 2.75C6.9 2.75 2.75 6.9 2.75 12C2.75 12.41 2.41 12.75 2 12.75C1.59 12.75 1.25 12.41 1.25 12C1.25 6.07 6.07 1.25 12 1.25C17.93 1.25 22.75 6.07 22.75 12C22.75 17.93 17.93 22.75 12 22.75Z" fill="white"/> </g> <defs> <clipPath id="clip0_3247_9498"> <rect width="24" height="24" fill="white"/> </clipPath> </defs> </svg>
