<svg width="24" height="24" viewBox="0 0 24 24" fill="none" xmlns="http://www.w3.org/2000/svg"> <g clip-path="url(#clip0_4482_11576)"> <path d="M12 2C6.48 2 2 6.48 2 12C2 17.52 6.48 22 12 22C17.52 22 22 17.52 22 12C22 6.48 17.52 2 12 2ZM9.34 6.89C9.9 6.89 10.34 7.34 10.34 7.89C10.34 8.44 9.9 8.89 9.34 8.89C8.78 8.89 8.34 8.44 8.34 7.89C8.34 7.34 8.79 6.89 9.34 6.89ZM17 16.25H16.4C15.85 16.25 15.34 16 15.01 15.56C14.68 15.15 14.56 14.58 14.7 14.05L15.17 12.17C15.23 11.94 15.17 11.7 15.03 11.51C14.9 11.34 14.67 11.23 14.45 11.23H13.46C13.34 11.23 13.25 11.31 13.22 11.42L12.44 14.53C12.18 15.54 11.29 16.24 10.25 16.24H9.65C8.95 16.24 8.29 15.91 7.87 15.36C7.46 14.83 7.31 14.11 7.47 13.44L8.02 11.24H7.02C6.61 11.24 6.27 10.9 6.27 10.49C6.27 10.08 6.61 9.74 7.02 9.74H8.35C8.74 9.74 9.11 9.92 9.34 10.23C9.57 10.54 9.65 10.94 9.55 11.3L8.92 13.8C8.86 14.02 8.92 14.27 9.05 14.45C9.19 14.64 9.41 14.74 9.64 14.74H10.24C10.59 14.74 10.89 14.5 10.97 14.17L11.75 11.06C11.94 10.28 12.64 9.73 13.45 9.73H14.44C15.13 9.73 15.79 10.06 16.21 10.6C16.63 11.16 16.78 11.86 16.62 12.53L16.15 14.42C16.13 14.5 16.15 14.58 16.19 14.63C16.25 14.7 16.31 14.74 16.39 14.74H16.99C17.4 14.74 17.74 15.08 17.74 15.49C17.74 15.9 17.4 16.24 16.99 16.24L17 16.25Z" fill="white"/> </g> <defs> <clipPath id="clip0_4482_11576"> <rect width="24" height="24" fill="white"/> </clipPath> </defs> </svg>
