<svg width="24" height="24" viewBox="0 0 24 24" fill="none" xmlns="http://www.w3.org/2000/svg"> <g clip-path="url(#clip0_2085_384603)"> <path d="M14.98 14.5293C14.98 14.2693 14.95 14.0193 14.88 13.7793H9.12002C9.05002 14.0193 9.02002 14.2693 9.02002 14.5293C9.02002 14.9493 8.68002 15.2793 8.27002 15.2793H15.73C15.32 15.2793 14.98 14.9493 14.98 14.5293ZM16.98 16.2693C16.56 16.2693 16.23 16.6093 16.23 17.0193V21.3293H7.77002V17.0193C7.77002 16.6093 7.44002 16.2693 7.02002 16.2693H6.27002V22.0793C6.27002 22.4993 6.61002 22.8293 7.02002 22.8293H16.98C17.39 22.8293 17.73 22.4993 17.73 22.0793V16.2693H16.98ZM14.98 14.5293C14.98 14.2693 14.95 14.0193 14.88 13.7793H9.12002C9.05002 14.0193 9.02002 14.2693 9.02002 14.5293C9.02002 14.9493 8.68002 15.2793 8.27002 15.2793H15.73C15.32 15.2793 14.98 14.9493 14.98 14.5293ZM16.41 13.7793H7.59002C7.54002 14.0193 7.52002 14.2693 7.52002 14.5293C7.52002 14.9493 7.85002 15.2793 8.27002 15.2793H15.73C16.15 15.2793 16.48 14.9493 16.48 14.5293C16.48 14.2693 16.46 14.0193 16.41 13.7793ZM14.98 14.5293C14.98 14.2693 14.95 14.0193 14.88 13.7793H9.12002C9.05002 14.0193 9.02002 14.2693 9.02002 14.5293C9.02002 14.9493 8.68002 15.2793 8.27002 15.2793H15.73C15.32 15.2793 14.98 14.9493 14.98 14.5293Z" fill="white"/> <path d="M15.24 19.5495V21.3295H8.76001V19.5495C8.76001 17.7395 10.21 16.2695 12 16.2695C13.79 16.2695 15.24 17.7395 15.24 19.5495Z" fill="white"/> <path d="M8.76001 21.3301H10.26V22.0801C10.26 22.5001 9.92001 22.8301 9.51001 22.8301C9.10001 22.8301 8.76001 22.5001 8.76001 22.0801V21.3301Z" fill="white"/> <path d="M15.24 21.3301V22.0801C15.24 22.5001 14.9 22.8301 14.49 22.8301C14.08 22.8301 13.74 22.5001 13.74 22.0801V21.3301H15.24Z" fill="white"/> <path d="M16.4101 13.7799H9.12012C9.17012 13.5499 9.26012 13.3299 9.37012 13.1299C9.37012 13.1199 9.38012 13.1099 9.38012 13.1099C9.88012 12.1799 10.8701 11.5499 12.0001 11.5499C12.7901 11.5499 13.4701 11.0899 13.7901 10.4199C14.4401 10.6999 15.0101 11.1399 15.4601 11.6799C15.2101 11.8099 14.9701 11.9799 14.7601 12.1799C14.4501 12.4599 14.4401 12.9399 14.7301 13.2399C15.0101 13.5399 15.4901 13.5499 15.7901 13.2699C15.9101 13.1499 16.0501 13.0499 16.2001 12.9799C16.3001 13.2399 16.3701 13.4999 16.4101 13.7799Z" fill="white"/> <path d="M13.47 10.3008C13.58 10.3308 13.68 10.3708 13.79 10.4208C13.47 11.0908 12.79 11.5508 12 11.5508C10.87 11.5508 9.88002 12.1808 9.38002 13.1108C9.38002 13.1108 9.37002 13.1208 9.37002 13.1308C9.26002 13.3308 9.17002 13.5508 9.12002 13.7808C9.05002 14.0208 9.02002 14.2708 9.02002 14.5308C9.02002 14.9508 8.68002 15.2808 8.27002 15.2808C7.86002 15.2808 7.52002 14.9508 7.52002 14.5308C7.52002 14.2708 7.54002 14.0208 7.59002 13.7808C7.63002 13.5008 7.70002 13.2408 7.80002 12.9808C7.97002 12.5108 8.23002 12.0708 8.54002 11.6808C8.99002 11.1408 9.56002 10.7008 10.21 10.4208C10.32 10.3708 10.42 10.3308 10.53 10.3008C10.55 10.2908 10.57 10.2808 10.59 10.2808H10.6C10.8 10.2108 11.02 10.1508 11.24 10.1208C11.48 10.0708 11.74 10.0508 12 10.0508C12.26 10.0508 12.52 10.0708 12.76 10.1208C12.98 10.1508 13.2 10.2108 13.4 10.2808H13.41C13.41 10.2808 13.45 10.2808 13.47 10.3008Z" fill="white"/> <path d="M14.73 13.2416C14.44 12.9416 14.45 12.4616 14.76 12.1816C14.97 11.9816 15.21 11.8116 15.46 11.6816C15.77 12.0716 16.03 12.5116 16.2 12.9816C16.05 13.0516 15.91 13.1516 15.79 13.2716C15.49 13.5516 15.01 13.5416 14.73 13.2416Z" fill="white"/> <path d="M16.4801 14.5312C16.4801 14.9512 16.1501 15.2812 15.7301 15.2812C15.3101 15.2812 14.9801 14.9512 14.9801 14.5312C14.9801 14.2713 14.9501 14.0212 14.8801 13.7812H16.4101C16.4601 14.0212 16.4801 14.2713 16.4801 14.5312Z" fill="white"/> <path d="M13.41 10.2805H13.4C13.2 10.2105 12.98 10.1505 12.76 10.1205C12.6 9.99055 12.49 9.78055 12.49 9.55055C12.49 9.82055 12.27 10.0505 12 10.0505C11.73 10.0505 11.51 9.82055 11.51 9.55055C11.51 9.28055 11.73 9.06055 12 9.06055C12.21 9.06055 12.41 8.97055 12.55 8.82055C12.68 8.68055 12.75 8.50055 12.75 8.31055V8.07055C12.78 7.96055 12.82 7.86055 12.87 7.76055C12.83 7.74055 12.79 7.72055 12.75 7.71055C12.52 7.61055 12.26 7.56055 12 7.56055C11.74 7.56055 11.48 7.61055 11.25 7.71055C11.21 7.71055 11.17 7.74055 11.13 7.76055C10.69 7.97055 10.34 8.35055 10.15 8.80055C10.06 9.03055 10.01 9.29055 10.01 9.55055C10.01 9.60055 10.02 9.65055 10.02 9.70055C10.03 9.91055 10.08 10.1105 10.15 10.3005C10.17 10.3405 10.19 10.3805 10.21 10.4205C10.53 11.0905 11.21 11.5505 12 11.5505C12.79 11.5505 13.47 11.0905 13.79 10.4205C13.81 10.3805 13.83 10.3405 13.85 10.3005C13.92 10.1105 13.97 9.91055 13.98 9.70055C13.92 9.99055 13.7 10.2105 13.41 10.2805Z" fill="white"/> <path d="M12.75 7.06055V8.31055C12.75 8.50055 12.68 8.68055 12.55 8.81055C12.41 8.97055 12.21 9.06055 12 9.06055C11.79 9.06055 11.59 8.97055 11.45 8.82055C11.32 8.68055 11.25 8.50055 11.25 8.31055V7.06055C11.25 6.65055 11.59 6.31055 12 6.31055C12.41 6.31055 12.75 6.65055 12.75 7.06055Z" fill="white"/> <path d="M22.75 9.55078V17.0208C22.75 17.4308 22.41 17.7708 22 17.7708H16.98C16.56 17.7708 16.23 17.4308 16.23 17.0208C16.23 16.6108 16.56 16.2708 16.98 16.2708H21.25V10.3008H13.24C13.24 10.3008 13.14 10.2908 13.09 10.2808C13.04 10.2808 12.99 10.2608 12.95 10.2408C12.91 10.2208 12.87 10.2008 12.83 10.1708C12.81 10.1608 12.78 10.1408 12.76 10.1208C12.98 10.1508 13.2 10.2108 13.4 10.2808H13.41C13.7 10.2108 13.92 9.99078 13.98 9.70078C13.98 9.65078 13.98 9.60078 13.98 9.55078C13.98 9.29078 13.93 9.03078 13.84 8.80078H21.99C22.4 8.80078 22.74 9.14078 22.74 9.55078H22.75Z" fill="white"/> <path d="M20.22 14.531V16.271H16.98C16.56 16.271 16.23 16.611 16.23 17.021V15.281H15.73C16.15 15.281 16.48 14.951 16.48 14.531C16.48 14.271 16.46 14.021 16.41 13.781C16.37 13.501 16.3 13.241 16.2 12.981C16.03 12.511 15.77 12.071 15.46 11.681C15.92 11.421 16.44 11.291 16.98 11.291C18.77 11.291 20.22 12.741 20.22 14.531Z" fill="white"/> <path d="M16.2 12.9816C16.05 13.0516 15.91 13.1516 15.79 13.2716C15.49 13.5516 15.01 13.5416 14.73 13.2416C14.44 12.9416 14.45 12.4616 14.76 12.1816C14.97 11.9816 15.21 11.8116 15.46 11.6816C15.77 12.0716 16.03 12.5116 16.2 12.9816Z" fill="white"/> <path d="M20.22 16.2715V17.0215C20.22 17.4315 19.89 17.7715 19.47 17.7715C19.05 17.7715 18.72 17.4315 18.72 17.0215V16.2715H20.22Z" fill="white"/> <path d="M13.9901 9.54977C13.9901 9.54977 13.9901 9.64977 13.9901 9.69977C13.9301 9.98977 13.7101 10.2098 13.4201 10.2798L13 11C12.8 10.93 12.72 10.53 12.5 10.5C12.34 10.37 12.5 11.23 12.5 11C12.5 11.27 12.27 10.5 12 10.5C11.73 10.5 10.5 10.27 10.5 10C10.5 9.73 10.7301 9 11.0001 9C11.2101 9 10.7958 8.94977 10.9358 8.79977C11.0658 8.65977 11.5001 8.69 11.5001 8.5L12.0001 8C12.0301 7.89 12.82 7.85 12.87 7.75C13.31 7.96 13.6701 8.34977 13.8601 8.79977C13.9501 9.02977 14.0001 9.28977 14.0001 9.54977H13.9901Z" fill="white"/> <path d="M12.55 8.81031C12.6 8.56031 12.66 8.31031 12.75 8.07031V8.31031C12.75 8.50031 12.68 8.68031 12.55 8.81031Z" fill="white"/> <path d="M12.76 10.1191C12.98 10.1491 13.2 10.2091 13.4 10.2791C13.35 10.2791 13.3 10.2991 13.24 10.2991C13.19 10.2991 13.14 10.2891 13.09 10.2791C13.04 10.2791 12.99 10.2591 12.95 10.2391C12.91 10.2191 12.87 10.1991 12.83 10.1691C12.81 10.1591 12.78 10.1391 12.76 10.1191Z" fill="white"/> <path d="M16.9801 6.56945C15.5901 6.56945 14.4201 7.51945 14.0901 8.79945C14.0201 9.03945 13.9901 9.28945 13.9901 9.54945C13.9901 9.28945 13.9401 9.02945 13.8501 8.79945C13.6601 8.34945 13.3101 7.96945 12.8701 7.75945C13.3201 6.72945 14.1501 5.89945 15.1801 5.43945C15.5101 6.10945 16.1901 6.56945 16.9801 6.56945Z" fill="white"/> <path d="M21.4601 9.54883C21.4601 9.96883 21.1301 10.2988 20.7101 10.2988C20.2901 10.2988 19.9601 9.96883 19.9601 9.54883C19.9601 9.28883 19.9301 9.03883 19.8601 8.79883H21.3901C21.4401 9.03883 21.4601 9.28883 21.4601 9.54883Z" fill="white"/> <path d="M16.98 2.58008C16.72 2.58008 16.46 2.63008 16.23 2.73008V3.33008C16.23 3.74008 16.56 4.08008 16.98 4.08008C17.4 4.08008 17.73 3.74008 17.73 3.33008V2.73008C17.5 2.63008 17.24 2.58008 16.98 2.58008Z" fill="white"/> <path d="M21.3901 8.80031L13.5 9C13.83 7.72 14.61 6.5 16 6.5C15.21 6.5 15.5101 6.11031 15.1801 5.44031C15.7301 5.20031 16.3401 5.07031 16.9801 5.07031C17.6201 5.07031 18.2201 5.20031 18.7701 5.44031C20.1301 6.03031 21.1401 7.29031 21.3901 8.80031Z" fill="white"/> <path d="M18.97 4.59195C18.97 4.90195 18.9 5.20195 18.77 5.46195C18.22 5.22195 17.62 5.09195 16.98 5.09195C16.34 5.09195 15.73 5.22195 15.18 5.46195C15.05 5.20195 14.98 4.90195 14.98 4.59195C14.98 3.75195 15.5 3.04195 16.23 2.75195V3.35195C16.23 3.76195 16.56 4.10195 16.98 4.10195C17.4 4.10195 17.73 3.76195 17.73 3.35195V2.75195C18.46 3.04195 18.97 3.75195 18.97 4.59195Z" fill="white"/> <path d="M17.73 2.11133V3.36133C17.73 3.77133 17.39 4.11133 16.98 4.11133C16.57 4.11133 16.23 3.77133 16.23 3.36133V2.11133C16.23 1.70133 16.56 1.36133 16.98 1.36133C17.4 1.36133 17.73 1.70133 17.73 2.11133Z" fill="white"/> <path d="M7.77 17.0208C7.77 17.4308 7.44 17.7708 7.02 17.7708H2C1.59 17.7708 1.25 17.4308 1.25 17.0208V9.55078C1.25 9.14078 1.59 8.80078 2 8.80078H4.14C4.07 9.04078 4.04 9.29078 4.04 9.55078C4.04 9.97078 3.7 10.3008 3.29 10.3008H2.75V16.2708H7.02C7.44 16.2708 7.77 16.6108 7.77 17.0208Z" fill="white"/> <path d="M11.5099 9.55078C11.5099 9.78078 11.3999 9.99078 11.2399 10.1208C11.2199 10.1408 11.1899 10.1608 11.1699 10.1708C11.1299 10.2008 11.0899 10.2208 11.0499 10.2408C11.0099 10.2608 10.9599 10.2808 10.9099 10.2808C10.8599 10.2808 10.8099 10.3008 10.7599 10.3008H10.1499C10.0799 10.1108 10.0299 9.91078 10.0199 9.70078C10.0199 9.65078 10.0099 9.60078 10.0099 9.55078C10.0099 9.29078 9.97991 9.04078 9.90991 8.80078H10.7599C11.1699 8.80078 11.5099 9.14078 11.5099 9.55078Z" fill="white"/> <path d="M8.27003 15.281H7.77003V17.021C7.77003 16.611 7.44003 16.271 7.02003 16.271H3.78003V14.531C3.78003 12.741 5.23003 11.291 7.02003 11.291C7.55003 11.291 8.07003 11.421 8.54003 11.681C8.23003 12.071 7.97003 12.511 7.80003 12.981C7.70003 13.241 7.63003 13.501 7.59003 13.781C7.54003 14.021 7.52003 14.271 7.52003 14.531C7.52003 14.951 7.85003 15.281 8.27003 15.281Z" fill="white"/> <path d="M3.78003 16.2715H5.28003V17.0215C5.28003 17.4315 4.94003 17.7715 4.53003 17.7715C4.12003 17.7715 3.78003 17.4315 3.78003 17.0215V16.2715Z" fill="white"/> <path d="M9.38005 13.1116C9.38005 13.1116 9.37005 13.1216 9.37005 13.1316C9.34005 13.1716 9.32005 13.2016 9.28005 13.2416C8.99005 13.5416 8.52005 13.5516 8.22005 13.2716C8.09005 13.1516 7.95005 13.0516 7.80005 12.9816C7.97005 12.5116 8.23005 12.0716 8.54005 11.6816C8.79005 11.8116 9.03005 11.9816 9.25005 12.1816C9.51005 12.4216 9.55005 12.8116 9.38005 13.1116Z" fill="white"/> <path d="M11.13 7.75945C10.69 7.96945 10.34 8.34945 10.15 8.79945H9.91004C9.98004 9.03945 10.01 9.28945 10.01 9.54945C10.01 9.59945 10.02 9.64945 10.02 9.69945C10.03 9.90945 10.08 10.1095 10.15 10.2995H3.29004C3.70004 10.2995 4.04004 9.96945 4.04004 9.54945C4.04004 9.28945 4.07004 9.03945 4.14004 8.79945C4.47004 7.51945 5.64004 6.56945 7.02004 6.56945C7.81004 6.56945 8.49004 6.10945 8.82004 5.43945C9.85004 5.89945 10.68 6.72945 11.13 7.75945Z" fill="white"/> <path d="M7.02004 5.07031C7.66004 5.07031 8.27004 5.20031 8.82004 5.44031C8.49004 6.11031 7.81004 6.57031 7.02004 6.57031C5.64004 6.57031 4.47004 7.52031 4.14004 8.80031C4.07004 9.04031 4.04004 9.29031 4.04004 9.55031C4.04004 9.97031 3.70004 10.3003 3.29004 10.3003C2.88004 10.3003 2.54004 9.97031 2.54004 9.55031C2.54004 9.29031 2.56004 9.04031 2.61004 8.80031C2.86004 7.29031 3.87004 6.03031 5.23004 5.44031C5.78004 5.20031 6.38004 5.07031 7.02004 5.07031Z" fill="white"/> <path d="M11.5102 9.54977C11.5102 9.77977 11.4002 9.98977 11.2402 10.1198C11.2202 10.1398 11.1902 10.1598 11.1702 10.1698C11.1302 10.1998 11.0902 10.2198 11.0502 10.2398C11.0102 10.2598 10.9602 10.2798 10.9102 10.2798C10.8602 10.2798 10.8102 10.2998 10.7602 10.2998C10.7002 10.2998 10.6502 10.2898 10.6002 10.2798H10.5902C10.3002 10.2098 10.0802 9.98977 10.0202 9.69977C10.0202 9.64977 10.0102 9.59977 10.0102 9.54977C10.0102 9.28977 9.98016 9.03977 9.91016 8.79977H10.1502C10.3402 8.34977 10.6902 7.96977 11.1302 7.75977C11.1802 7.85977 11.2202 7.95977 11.2502 8.06977C11.3402 8.30977 11.4002 8.55977 11.4502 8.80977C11.4902 9.05977 11.5102 9.29977 11.5102 9.54977Z" fill="white"/> <path d="M7.01998 2.58008C6.75998 2.58008 6.49998 2.63008 6.26998 2.73008V3.33008C6.26998 3.74008 6.60998 4.08008 7.01998 4.08008C7.42998 4.08008 7.76998 3.74008 7.76998 3.33008V2.73008C7.53998 2.63008 7.27998 2.58008 7.01998 2.58008ZM7.01998 5.07008C6.37998 5.07008 5.77998 5.20008 5.22998 5.44008C5.54998 6.11008 6.22998 6.57008 7.01998 6.57008C7.80998 6.57008 8.48998 6.11008 8.81998 5.44008C8.26998 5.20008 7.65998 5.07008 7.01998 5.07008Z" fill="white"/> <path d="M9.02003 4.57047C9.02003 4.88047 8.95003 5.18047 8.82003 5.44047C8.27003 5.20047 7.66003 5.07047 7.02003 5.07047C6.38003 5.07047 5.78003 5.20047 5.23003 5.44047C5.10003 5.18047 5.03003 4.88047 5.03003 4.57047C5.03003 3.73047 5.54003 3.02047 6.27003 2.73047V3.33047C6.27003 3.74047 6.61003 4.08047 7.02003 4.08047C7.43003 4.08047 7.77003 3.74047 7.77003 3.33047V2.73047C8.50003 3.02047 9.02003 3.73047 9.02003 4.57047Z" fill="white"/> <path d="M7.77002 2.08008V3.33008C7.77002 3.74008 7.44002 4.08008 7.02002 4.08008C6.60002 4.08008 6.27002 3.74008 6.27002 3.33008V2.08008C6.27002 1.67008 6.61002 1.33008 7.02002 1.33008C7.43002 1.33008 7.77002 1.67008 7.77002 2.08008Z" fill="white"/> </g> <defs> <clipPath id="clip0_2085_384603"> <rect width="24" height="24" fill="white"/> </clipPath> </defs> </svg>
