<svg width="24" height="24" viewBox="0 0 24 24" fill="none" xmlns="http://www.w3.org/2000/svg"> <g clip-path="url(#clip0_4482_14603)"> <path d="M17 2H7C4.24 2 2 4.24 2 7V17C2 19.76 4.24 22 7 22H17C19.76 22 22 19.76 22 17V7C22 4.24 19.76 2 17 2ZM16.44 13.47C16.85 13.47 17.19 13.81 17.19 14.22C17.19 14.63 16.85 14.97 16.44 14.97H11.5L10.46 17.3C10.34 17.58 10.06 17.75 9.77 17.75C9.67 17.75 9.56 17.73 9.47 17.69C9.09 17.52 8.92 17.08 9.09 16.7L9.86 14.98H7.56C7.15 14.98 6.81 14.64 6.81 14.23C6.81 13.82 7.15 13.48 7.56 13.48H10.53L11.84 10.54H7.56C7.15 10.54 6.81 10.2 6.81 9.79C6.81 9.38 7.15 9.04 7.56 9.04H12.5L13.54 6.71C13.71 6.33 14.15 6.16 14.53 6.33C14.91 6.5 15.08 6.94 14.91 7.32L14.14 9.04H16.44C16.85 9.04 17.19 9.38 17.19 9.79C17.19 10.2 16.85 10.54 16.44 10.54H13.47L12.16 13.48H16.44V13.47Z" fill="white"/> </g> <defs> <clipPath id="clip0_4482_14603"> <rect width="24" height="24" fill="white"/> </clipPath> </defs> </svg>
