<svg width="24" height="24" viewBox="0 0 24 24" fill="none" xmlns="http://www.w3.org/2000/svg"> <g clip-path="url(#clip0_2085_393681)"> <path d="M15.62 4.80015C15.12 5.25015 14.59 5.87015 14.22 6.68015L14.03 7.18015C14.03 7.18015 13.98 7.16015 13.95 7.15015C13.81 7.09015 13.68 7.04015 13.54 7.00015C13.53 6.99015 13.51 6.99015 13.49 6.98015C13.37 6.94015 13.25 6.91015 13.13 6.89015C13.06 6.87015 12.99 6.87015 12.91 6.85015C12.61 6.80015 12.31 6.77015 12 6.77015C11.83 6.77015 11.67 6.78015 11.5 6.80015C11.54 6.30015 11.64 5.74015 11.81 5.19015C12.1 4.24015 12.61 3.27015 13.43 2.46015C14.01 1.89015 14.96 1.83015 15.56 2.39015C16.36 3.12015 16.34 4.16015 15.62 4.80015Z" fill="white"/> <path d="M11.8101 5.18952C11.6401 5.73952 11.5401 6.29952 11.5001 6.79952C11.3601 6.80952 11.2301 6.82952 11.0901 6.84952C11.0101 6.86952 10.9401 6.86952 10.8701 6.88952C10.7501 6.90952 10.6301 6.93952 10.5101 6.97952C10.4901 6.98952 10.4801 6.98952 10.4601 6.99952C10.3501 7.02952 10.2401 7.06952 10.1301 7.11952C9.81009 6.47952 9.38009 5.89952 9.07009 5.49952C8.27009 4.45952 9.12009 3.62952 9.12009 3.62952C9.71009 3.10952 10.6301 3.21952 11.0601 3.87952C11.3201 4.27952 11.6301 4.76952 11.8101 5.18952Z" fill="white"/> <path d="M17.0899 11.8595C17.0899 14.6795 14.8099 21.9995 11.9999 21.9995C9.18991 21.9995 6.90991 14.6795 6.90991 11.8595C6.90991 11.6795 6.91991 11.4895 6.93991 11.3195C6.94991 11.1895 6.95991 11.0495 6.98991 10.9195C6.99991 10.8395 7.01991 10.7495 7.03991 10.6695C7.06991 10.5395 7.10991 10.4095 7.14991 10.2895C7.17991 10.2095 7.20991 10.1195 7.24991 10.0295C7.26991 9.95953 7.29991 9.87953 7.33991 9.79953C7.50991 9.41953 7.71991 9.06953 7.96991 8.74953C8.48991 8.06953 9.17991 7.52953 9.96991 7.17953C9.98991 7.16953 10.0199 7.15953 10.0499 7.14953C10.0799 7.13953 10.0999 7.12953 10.1299 7.11953C10.2399 7.06953 10.3499 7.02953 10.4599 6.99953C10.4799 6.98953 10.4899 6.98953 10.5099 6.97953C10.6299 6.93953 10.7499 6.90953 10.8699 6.88953C10.9399 6.86953 11.0099 6.86953 11.0899 6.84953C11.2299 6.82953 11.3599 6.80953 11.4999 6.79953C11.6699 6.77953 11.8299 6.76953 11.9999 6.76953C12.3099 6.76953 12.6099 6.79953 12.9099 6.84953C12.9899 6.86953 13.0599 6.86953 13.1299 6.88953C13.2499 6.90953 13.3699 6.93953 13.4899 6.97953C13.5099 6.98953 13.5299 6.98953 13.5399 6.99953C13.6799 7.03953 13.8099 7.08953 13.9499 7.14953C13.9799 7.14953 13.9999 7.16953 14.0299 7.17953C14.8199 7.52953 15.5099 8.06953 16.0299 8.74953C16.2799 9.07953 16.4899 9.41953 16.6599 9.79953C16.6999 9.87953 16.7299 9.95953 16.7499 10.0295C16.7899 10.1195 16.8199 10.2095 16.8499 10.2895C16.8899 10.4095 16.9299 10.5395 16.9599 10.6695C16.9799 10.7495 16.9999 10.8395 17.0099 10.9195C17.0399 11.0495 17.0499 11.1895 17.0599 11.3195C17.0799 11.4895 17.0899 11.6695 17.0899 11.8595Z" fill="white"/> </g> <defs> <clipPath id="clip0_2085_393681"> <rect width="24" height="24" fill="white"/> </clipPath> </defs> </svg>
