<svg width="24" height="24" viewBox="0 0 24 24" fill="none" xmlns="http://www.w3.org/2000/svg"> <g clip-path="url(#clip0_4482_11910)"> <path d="M11.8701 5C14.0793 5 15.8701 4.32843 15.8701 3.5C15.8701 2.67157 14.0793 2 11.8701 2C9.66098 2 7.87012 2.67157 7.87012 3.5C7.87012 4.32843 9.66098 5 11.8701 5Z" fill="white"/> <path d="M7.87012 3.5V4.37C7.87012 4.75 7.65012 5.11 7.30012 5.27L5.14012 6.29C4.17012 6.74 3.42012 7.57 3.07012 8.58L2.10012 11.36C1.95012 11.78 1.87012 12.23 1.87012 12.68V17C1.87012 17.55 2.32012 18 2.87012 18H5.87012V20.5C5.87012 21.33 6.54012 22 7.37012 22H11.1101V4.97C9.27012 4.84 7.87012 4.23 7.87012 3.5ZM9.60012 8.62L9.10012 10.62C9.02012 10.96 8.71012 11.19 8.37012 11.19C8.31012 11.19 8.25012 11.19 8.19012 11.17C7.79012 11.07 7.54012 10.66 7.64012 10.26L8.14012 8.26C8.24012 7.86 8.65012 7.61 9.05012 7.71C9.45012 7.81 9.70012 8.22 9.60012 8.62Z" fill="white"/> <path d="M21.6504 11.36L20.6704 8.58C20.3204 7.57 19.5704 6.74 18.6004 6.29L16.4504 5.27C16.1004 5.11 15.8704 4.75 15.8704 4.37V3.5C15.8704 4.24 14.4704 4.85 12.6104 4.97V22H16.3704C17.2004 22 17.8704 21.33 17.8704 20.5V18H20.8704C21.4204 18 21.8704 17.55 21.8704 17V12.68C21.8704 12.23 21.8004 11.78 21.6504 11.36ZM15.5504 11.16C15.4904 11.18 15.4304 11.18 15.3704 11.18C15.0304 11.18 14.7304 10.95 14.6404 10.61L14.1404 8.61C14.0404 8.21 14.2804 7.8 14.6904 7.7C15.0904 7.6 15.5004 7.84 15.6004 8.25L16.1004 10.25C16.2004 10.65 15.9604 11.06 15.5504 11.16Z" fill="white"/> </g> <defs> <clipPath id="clip0_4482_11910"> <rect width="24" height="24" fill="white"/> </clipPath> </defs> </svg>
