<svg width="24" height="24" viewBox="0 0 24 24" fill="none" xmlns="http://www.w3.org/2000/svg"> <g clip-path="url(#clip0_2085_384592)"> <path d="M7.75 18.2207V22.0007C7.75 22.4107 7.42 22.7507 7 22.7507C6.58 22.7507 6.25 22.4107 6.25 22.0007V18.2207C6.25 17.8107 6.59 17.4707 7 17.4707C7.41 17.4707 7.75 17.8107 7.75 18.2207Z" fill="white"/> <path d="M17.71 18.7598V21.2498H15.22V18.9698H15.43C15.7 18.9698 15.96 18.9698 16.21 18.9398C16.74 18.9098 17.24 18.8498 17.71 18.7598Z" fill="white"/> <path d="M17.71 18.2207V18.7607C17.24 18.8507 16.74 18.9107 16.21 18.9407V18.2207C16.21 17.8107 16.55 17.4707 16.96 17.4707C17.37 17.4707 17.71 17.8107 17.71 18.2207Z" fill="white"/> <path d="M16.21 21.25H17.71V22C17.71 22.41 17.37 22.75 16.96 22.75C16.55 22.75 16.21 22.41 16.21 22V21.25Z" fill="white"/> <path d="M15.22 18.2207V22.0007C15.22 22.4107 14.88 22.7507 14.47 22.7507C14.06 22.7507 13.72 22.4107 13.72 22.0007V18.2207C13.72 17.8107 14.06 17.4707 14.47 17.4707C14.88 17.4707 15.22 17.8107 15.22 18.2207Z" fill="white"/> <path d="M10.24 18.9714V21.2514H7.75V18.9414C8.01 18.9614 8.28 18.9714 8.54 18.9714H10.24Z" fill="white"/> <path d="M10.24 18.2207V18.9707H8.73999V18.2207C8.73999 17.8107 9.07999 17.4707 9.48999 17.4707C9.89999 17.4707 10.24 17.8107 10.24 18.2207Z" fill="white"/> <path d="M8.73999 21.25H10.24V22C10.24 22.41 9.89999 22.75 9.48999 22.75C9.07999 22.75 8.73999 22.41 8.73999 22V21.25Z" fill="white"/> <path d="M21.44 16.8005C21.35 16.4605 21.05 16.2305 20.71 16.2305H20.7C18.79 16.2205 17.68 15.9505 16.47 15.1205C16.43 15.0905 16.38 15.0605 16.33 15.0505C16.24 15.0005 16.15 14.9805 16.05 14.9805H14.78L14.98 15.9005C15.06 16.2505 15.37 16.4805 15.71 16.4805H15.82C16.35 16.8305 16.88 17.1005 17.44 17.2905C16.83 17.4005 16.15 17.4705 15.43 17.4705H8.53996C7.86996 17.4705 7.19996 17.4105 6.53996 17.2905C7.09996 17.1005 7.62996 16.8305 8.15996 16.4805H8.24996C8.58996 16.4805 8.89996 16.2505 8.97996 15.9005L9.17996 14.9805H7.92996C7.81996 14.9805 7.71996 15.0005 7.61996 15.0605C7.57996 15.0705 7.53996 15.0905 7.49996 15.1205C6.29996 15.9505 5.23996 16.2305 3.28996 16.2405C2.93996 16.2405 2.63996 16.4805 2.55996 16.8205C2.47996 17.1605 2.64996 17.5105 2.95996 17.6605C3.99996 18.1805 5.10996 18.5505 6.24996 18.7505C6.73996 18.8505 7.23996 18.9105 7.74996 18.9405C8.00996 18.9605 8.27996 18.9705 8.53996 18.9705H15.43C15.7 18.9705 15.96 18.9705 16.21 18.9405C16.74 18.9105 17.24 18.8505 17.71 18.7605C19.11 18.5005 20.24 18.0505 21.04 17.6505C21.35 17.4905 21.52 17.1405 21.44 16.8005Z" fill="white"/> <path d="M20.2 22C20.2 22.41 19.86 22.75 19.45 22.75H4.51001C4.10001 22.75 3.76001 22.41 3.76001 22C3.76001 21.59 4.10001 21.25 4.51001 21.25H19.45C19.86 21.25 20.2 21.59 20.2 22Z" fill="white"/> <path d="M11.98 22.7498C11.57 22.7498 11.23 22.4098 11.23 21.9998V20.7598C11.23 20.3498 11.57 20.0098 11.98 20.0098C12.39 20.0098 12.73 20.3498 12.73 20.7598V21.9998C12.73 22.4098 12.39 22.7498 11.98 22.7498Z" fill="white"/> <path d="M15.62 4.43961C15.35 4.70961 15.04 4.91961 14.69 5.05961C14.62 5.08961 14.55 5.11961 14.48 5.13961C14.37 5.17961 14.26 5.19961 14.15 5.21961C13.97 5.25961 13.78 5.27961 13.59 5.27961H10.37C10.18 5.27961 9.98999 5.25961 9.80999 5.21961C9.69999 5.19961 9.59999 5.17961 9.49999 5.13961C9.43999 5.11961 9.38999 5.10961 9.33999 5.07961C8.96999 4.93961 8.61999 4.71961 8.33999 4.43961C8.03999 4.14961 8.03999 3.66961 8.33999 3.37961C8.62999 3.08961 9.10999 3.08961 9.39999 3.37961C9.42999 3.40961 9.46999 3.43961 9.49999 3.45961C9.73999 3.66961 10.06 3.77961 10.37 3.77961H13.59C13.92 3.77961 14.23 3.66961 14.47 3.45961C14.5 3.42961 14.53 3.40961 14.56 3.37961C14.85 3.08961 15.33 3.08961 15.62 3.37961C15.92 3.66961 15.92 4.14961 15.62 4.43961Z" fill="white"/> <path d="M16.8701 10.0392C16.4601 10.4392 15.9501 10.7192 15.4001 10.8192H15.3901C15.2101 10.8592 15.0201 10.8792 14.8301 10.8792H9.13006C8.94006 10.8792 8.75006 10.8592 8.57006 10.8192C8.01006 10.7192 7.50006 10.4392 7.09006 10.0392C6.80006 9.74922 6.80006 9.26922 7.09006 8.97922C7.39006 8.68922 7.86006 8.68922 8.16006 8.97922C8.35006 9.17922 8.61006 9.30922 8.89006 9.34922C8.97006 9.36922 9.05006 9.37922 9.13006 9.37922H14.8301C14.9101 9.37922 14.9901 9.36922 15.0701 9.34922C15.3501 9.30922 15.6101 9.17922 15.8101 8.97922C16.1001 8.68922 16.5801 8.68922 16.8701 8.97922C17.1601 9.26922 17.1601 9.74922 16.8701 10.0392Z" fill="white"/> <path d="M13.5299 9.37953H10.4299L10.7899 7.76953L11.1199 6.26953H12.8399L13.1699 7.76953L13.5299 9.37953Z" fill="white"/> <path d="M9.74987 6.26984H11.1199L10.7899 7.76984H9.74987C9.57987 7.76984 9.40987 7.74984 9.24987 7.71984C8.66987 7.61984 8.12987 7.33984 7.71987 6.92984C7.41987 6.63984 7.41987 6.15984 7.71987 5.86984C8.00987 5.57984 8.47987 5.57984 8.77987 5.86984C8.98987 6.07984 9.27987 6.21984 9.57987 6.24984C9.63987 6.26984 9.68987 6.26984 9.74987 6.26984Z" fill="white"/> <path d="M16.2498 6.92984C15.8198 7.34984 15.2898 7.62984 14.7098 7.71984C14.5398 7.75984 14.3798 7.76984 14.2098 7.76984H13.1698L12.8398 6.26984H14.2098C14.2698 6.26984 14.3298 6.26984 14.3798 6.24984C14.6898 6.21984 14.9598 6.08984 15.1798 5.86984C15.4798 5.57984 15.9498 5.57984 16.2498 5.86984C16.5398 6.15984 16.5398 6.63984 16.2498 6.92984Z" fill="white"/> <path d="M15.71 16.4802H8.25C8.59 16.4802 8.9 16.2502 8.98 15.9002L9.18 14.9802L9.4 13.9902L9.74 12.4902H14.22L14.56 13.9902L14.78 14.9802L14.98 15.9002C15.06 16.2502 15.37 16.4802 15.71 16.4802Z" fill="white"/> <path d="M8.49994 12.4905H9.73994L9.39994 13.9905H8.49994C8.28994 13.9905 8.07994 13.9705 7.87994 13.9205C7.34994 13.8005 6.85994 13.5405 6.46994 13.1505C6.17994 12.8605 6.17994 12.3905 6.46994 12.0905C6.75994 11.8005 7.23994 11.8005 7.52994 12.0905C7.71994 12.2805 7.94994 12.4005 8.19994 12.4505C8.29994 12.4805 8.39994 12.4905 8.49994 12.4905Z" fill="white"/> <path d="M17.49 13.1505C17.11 13.5405 16.61 13.8005 16.08 13.9205C15.88 13.9705 15.67 13.9905 15.46 13.9905H14.56L14.22 12.4905H15.46C15.56 12.4905 15.66 12.4805 15.76 12.4505C16.01 12.4005 16.24 12.2805 16.43 12.0905C16.72 11.8005 17.2 11.8005 17.49 12.0905C17.78 12.3905 17.78 12.8605 17.49 13.1505Z" fill="white"/> <path d="M14.47 3.45977C14.23 3.66977 13.92 3.77977 13.59 3.77977H10.37C10.06 3.77977 9.74 3.66977 9.5 3.45977L11.45 1.46977C11.73 1.18977 12.24 1.18977 12.52 1.46977L14.47 3.45977Z" fill="white"/> <path d="M11.2899 3.77898L11.1599 3.90898L10.1699 4.91898C10.0699 5.01898 9.94993 5.08898 9.82993 5.11898C9.71993 5.14898 9.60993 5.14898 9.49993 5.13898C9.43993 5.11898 9.38993 5.10898 9.33993 5.07898C9.24993 5.04898 9.16993 4.99898 9.09993 4.92898C8.80993 4.63898 8.79993 4.16898 9.09993 3.86898L9.50993 3.45898C9.74993 3.66898 10.0699 3.77898 10.3799 3.77898H11.2999H11.2899Z" fill="white"/> <path d="M14.8599 4.92898C14.8599 4.92898 14.7499 5.01898 14.6899 5.05898C14.6199 5.08898 14.5499 5.11898 14.4799 5.13898C14.4399 5.13898 14.3899 5.14898 14.3399 5.14898C14.2699 5.14898 14.1999 5.13898 14.1299 5.11898C14.0099 5.07898 13.8999 5.01898 13.7999 4.91898L12.8099 3.90898L12.6799 3.77898H13.5899C13.9199 3.77898 14.2299 3.66898 14.4699 3.45898L14.8699 3.86898C15.1599 4.16898 15.1599 4.63898 14.8599 4.92898Z" fill="white"/> <path d="M15.8799 16.4693C15.8199 16.4793 15.7699 16.4793 15.7099 16.4793C15.3699 16.4793 15.0599 16.2493 14.9799 15.8993L14.7799 14.9793L14.5599 13.9893L14.2199 12.4893L13.8599 10.8793L13.5299 9.3793L13.1699 7.7693L12.8399 6.2693L12.6199 5.2793L12.4899 4.6893C12.4199 4.3793 12.5599 4.0693 12.8099 3.9093C12.8799 3.8593 12.9699 3.8193 13.0599 3.7993C13.1199 3.7893 13.1699 3.7793 13.2299 3.7793C13.5699 3.7793 13.8799 4.0193 13.9599 4.3693L14.1299 5.1193L14.1499 5.2193L14.3799 6.2493L14.7099 7.7193L15.0699 9.3493L15.3899 10.8193H15.3999L15.7599 12.4493L16.0799 13.9193L16.3299 15.0493L16.4499 15.5693C16.5399 15.9793 16.2799 16.3793 15.8799 16.4693Z" fill="white"/> <path d="M11.47 4.6893L11.34 5.2793L11.12 6.2693L10.79 7.7693L10.43 9.3793L10.1 10.8793L9.74002 12.4893L9.40002 13.9893L9.18002 14.9793L8.98002 15.8993C8.90002 16.2493 8.59002 16.4793 8.25002 16.4793H8.16002C8.16002 16.4793 8.11002 16.4693 8.08002 16.4693C7.68002 16.3793 7.42002 15.9793 7.51002 15.5693L7.62002 15.0593L7.88002 13.9193L8.20002 12.4493L8.57002 10.8193L8.89002 9.3493L9.25002 7.7193L9.58002 6.2493L9.81002 5.2193L9.83002 5.1193L10 4.3693C10.08 4.0193 10.39 3.7793 10.74 3.7793C10.79 3.7793 10.85 3.7793 10.9 3.7993C11 3.8193 11.08 3.8593 11.16 3.9093C11.4 4.0793 11.54 4.3893 11.47 4.6893Z" fill="white"/> </g> <defs> <clipPath id="clip0_2085_384592"> <rect width="24" height="24" fill="white"/> </clipPath> </defs> </svg>
