<svg width="24" height="24" viewBox="0 0 24 24" fill="none" xmlns="http://www.w3.org/2000/svg"> <g clip-path="url(#clip0_2085_393351)"> <path d="M20.1702 12.6703L20.0602 12.8003C19.4402 13.4103 18.4602 13.4103 17.8502 12.8003C17.8002 12.7503 17.7502 12.6903 17.6902 12.6203C17.6802 12.6003 17.6702 12.5903 17.6502 12.5703V12.5503C17.5902 12.4703 17.5502 12.3803 17.5002 12.3003V12.2803C17.4602 12.2003 17.4402 12.1003 17.4202 12.0103C17.3302 11.5203 17.4602 10.9903 17.8502 10.6003C17.6902 10.7503 17.5302 10.8703 17.3302 10.9403C16.9502 11.1003 16.5402 11.1003 16.1602 10.9403C15.9702 10.8703 15.7902 10.7403 15.6502 10.6003C15.0402 9.99027 15.0302 9.01027 15.6502 8.39027C15.0302 9.01027 14.0502 9.00027 13.4402 8.39027C12.8302 7.78027 12.8302 6.82027 13.4202 6.22027C13.4202 6.22027 13.4269 6.21361 13.4402 6.20027C13.2902 6.34027 13.1202 6.45027 12.9302 6.53027C12.6302 6.66027 12.3002 6.68027 12.0002 6.60027C11.9302 6.59027 11.8502 6.57027 11.7902 6.54027C11.7602 6.53027 11.7302 6.52027 11.7102 6.51027C11.6502 6.48027 11.5802 6.45027 11.5202 6.41027C11.5002 6.40027 11.4802 6.39027 11.4702 6.38027C11.3902 6.33027 11.3102 6.27027 11.2402 6.19027C10.6302 5.58027 10.6302 4.60027 11.2402 3.98027L11.3702 3.86027C13.8102 1.42027 17.7502 1.42027 20.1802 3.86027C22.6202 6.30027 22.6202 10.2403 20.1802 12.6703H20.1702Z" fill="white"/> <path d="M17.6501 12.5507C17.5901 12.4707 17.5501 12.3807 17.5001 12.3007V12.2807C17.4601 12.2007 17.4401 12.1007 17.4201 12.0107C17.3301 11.5207 17.4601 10.9907 17.8501 10.6007C17.6901 10.7607 17.5301 10.8707 17.3301 10.9407C16.9501 11.1007 16.5401 11.1007 16.1601 10.9407C15.9701 10.8707 15.7901 10.7507 15.6501 10.6007C15.0401 9.9907 15.0301 9.0107 15.6501 8.3907C15.0301 9.0107 14.0501 9.0007 13.4401 8.3907C12.8301 7.7807 12.8301 6.8207 13.4201 6.2207C13.2701 6.3607 13.1101 6.4707 12.9301 6.5307C12.6301 6.6607 12.3001 6.6807 12.0001 6.6007C11.9301 6.5907 11.8501 6.5707 11.7901 6.5407C11.7601 6.5307 11.7301 6.5207 11.7101 6.5107C11.6501 6.4807 11.5801 6.4507 11.5201 6.4107C11.5001 6.4007 11.4801 6.3907 11.4701 6.3807C11.4501 6.3707 11.4401 6.3607 11.4201 6.3507C10.8101 6.7207 10.4801 7.3107 10.3801 7.9207C10.5001 7.8907 10.6201 7.8507 10.7501 7.8207C11.1501 7.7307 11.5501 7.9807 11.6501 8.3907C11.7401 8.7907 11.4801 9.1907 11.0801 9.2907C10.9401 9.3207 10.7901 9.3607 10.6401 9.4107C10.8301 9.7507 11.1201 10.0407 11.5001 10.2507C11.3301 10.6207 11.3101 11.0307 11.4101 11.4107C11.4801 11.3207 11.5401 11.2307 11.6101 11.1507C11.8801 10.8407 12.3601 10.8107 12.6701 11.0807C12.9801 11.3507 13.0101 11.8307 12.7401 12.1407C12.6201 12.2807 12.5101 12.4207 12.4101 12.5707C12.8601 12.7507 13.3601 12.7607 13.7901 12.5607C13.9601 12.8707 14.1901 13.1007 14.4501 13.2907C14.4701 13.1907 14.4901 13.1007 14.5001 12.9907C14.5501 12.5807 14.9301 12.2907 15.3401 12.3407C15.7501 12.3907 16.0401 12.7707 15.9901 13.1807C15.9701 13.3507 15.9401 13.5307 15.9101 13.7207C16.6001 13.6807 17.2801 13.3307 17.6901 12.6607C17.6801 12.6407 17.6701 12.6307 17.6501 12.6107V12.5907V12.5507Z" fill="white"/> <path d="M10.3701 7.91113C8.95012 8.31113 8.01012 9.06113 7.66012 10.1211C7.39012 10.9311 7.36012 11.7211 7.33012 12.4211C7.28012 13.7211 7.21012 14.4211 6.29012 15.0411C5.72012 15.4211 5.12012 15.6511 4.54012 15.8711C3.21012 16.3711 1.83012 16.8911 1.29012 19.1411C1.19012 19.5411 1.44012 19.9511 1.84012 20.0511C1.90012 20.0611 1.96012 20.0711 2.02012 20.0711C2.36012 20.0711 2.67012 19.8411 2.75012 19.5011C3.10012 18.0311 3.84012 17.7511 5.07012 17.2811C5.70012 17.0411 6.40012 16.7811 7.12012 16.3011C8.72012 15.2311 8.78012 13.7811 8.82012 12.4911C8.84012 11.8311 8.87012 11.2111 9.07012 10.6111C9.28012 9.97113 9.96012 9.61113 10.6201 9.41113C10.3601 8.96113 10.2801 8.43113 10.3601 7.93113L10.3701 7.91113Z" fill="white"/> <path d="M11.41 11.4004C10.8 12.1804 10.41 13.0204 10.28 13.9004C10.04 15.5704 9.41002 16.6204 8.46002 16.9404C7.78002 17.1704 5.72002 17.8504 4.13002 19.8304C3.09002 21.1304 2.08002 21.2004 2.01002 21.2104C1.60002 21.2104 1.27002 21.5504 1.27002 21.9604C1.27002 22.3704 1.61002 22.7104 2.02002 22.7104C2.20002 22.7104 3.79002 22.6604 5.30002 20.7704C6.47002 19.3004 7.93002 18.6904 8.93002 18.3604C9.99002 18.0104 11.35 16.9804 11.76 14.1104C11.84 13.5704 12.06 13.0504 12.41 12.5504C12.2 12.4704 12.01 12.3604 11.84 12.1904C11.62 11.9604 11.48 11.6904 11.41 11.4004Z" fill="white"/> <path d="M14.4601 13.2607C14.2901 14.3007 13.9701 15.0807 13.5601 15.3907C12.9601 15.8407 12.5801 16.4807 12.1601 17.1607C11.5201 18.2207 10.9101 19.2207 9.52007 19.5707C6.61007 20.3007 6.08007 21.5307 6.00007 21.7707C5.87007 22.1607 6.08007 22.6107 6.48007 22.7407C6.56007 22.7707 6.64007 22.7807 6.72007 22.7807C7.03007 22.7807 7.31007 22.5907 7.41007 22.2807C7.41007 22.2807 7.79007 21.5507 9.88007 21.0307C11.8701 20.5307 12.7401 19.0907 13.4401 17.9407C13.7701 17.3907 14.0901 16.8707 14.4501 16.5907C15.3101 15.9407 15.7201 14.7307 15.9101 13.6807C15.4001 13.7107 14.8801 13.5707 14.4501 13.2607H14.4601Z" fill="white"/> </g> <defs> <clipPath id="clip0_2085_393351"> <rect width="24" height="24" fill="white"/> </clipPath> </defs> </svg>
