<svg width="24" height="24" viewBox="0 0 24 24" fill="none" xmlns="http://www.w3.org/2000/svg"> <g clip-path="url(#clip0_2085_388816)"> <path d="M3.83008 12.2003C3.42008 12.2003 3.08008 11.8603 3.08008 11.4503V7.9703C3.08008 4.8903 5.29008 2.2603 8.33008 1.7003C9.71008 1.4503 11.1001 1.6503 12.3401 2.2803C12.7101 2.4703 12.8601 2.9203 12.6701 3.2903C12.4801 3.6603 12.0301 3.8103 11.6601 3.6203C10.7101 3.1403 9.65008 2.9803 8.60008 3.1703C6.27008 3.5903 4.59008 5.6103 4.59008 7.9603V11.4403C4.59008 11.8503 4.25008 12.1903 3.84008 12.1903L3.83008 12.2003Z" fill="white"/> <path d="M20.17 12.2001C19.76 12.2001 19.42 11.8601 19.42 11.4501V7.97007C19.42 5.62007 17.73 3.60007 15.4 3.18007C14.35 2.99007 13.29 3.14007 12.34 3.63007C11.97 3.82007 11.52 3.67007 11.33 3.30007C11.14 2.93007 11.29 2.48007 11.66 2.29007C12.91 1.66007 14.29 1.46007 15.67 1.71007C18.71 2.26007 20.92 4.90007 20.92 7.98007V11.4601C20.92 11.8701 20.58 12.2101 20.17 12.2101V12.2001Z" fill="white"/> <path d="M12.0002 14.2405C9.90019 14.2405 8.19019 12.5305 8.19019 10.4305V7.92051C8.19019 5.53051 9.52019 3.38051 11.6602 2.29051C11.8702 2.18051 12.1302 2.18051 12.3402 2.29051C14.4802 3.38051 15.8102 5.54051 15.8102 7.92051V10.4305C15.8102 12.5305 14.1002 14.2405 12.0002 14.2405ZM12.0002 3.81051C10.5602 4.69051 9.69019 6.23051 9.69019 7.91051V10.4205C9.69019 11.7005 10.7302 12.7305 12.0002 12.7305C13.2702 12.7305 14.3102 11.6905 14.3102 10.4205V7.91051C14.3102 6.22051 13.4302 4.68051 12.0002 3.81051Z" fill="white"/> <path d="M5.5301 12.8692C5.0901 13.5992 4.9101 14.4592 5.0301 15.2992L5.6101 19.6292C5.7501 20.6992 4.9201 21.6492 3.8401 21.6492C2.7601 21.6492 1.9201 20.6992 2.0701 19.6292L2.6501 15.2992C2.7601 14.4592 2.5801 13.5992 2.1501 12.8692C1.7701 12.2392 2.2301 11.4492 2.9601 11.4492H4.7401C5.4701 11.4492 5.9201 12.2492 5.5501 12.8692H5.5301Z" fill="white"/> <path d="M3.83004 22.3997C3.10004 22.3997 2.40004 22.0797 1.92004 21.5297C1.44004 20.9797 1.22004 20.2497 1.31004 19.5197L1.89004 15.1897C1.98004 14.5197 1.84004 13.8297 1.49004 13.2397C1.17004 12.7097 1.16004 12.0697 1.47004 11.5397C1.77004 10.9997 2.32004 10.6797 2.94004 10.6797H4.72004C5.34004 10.6797 5.89004 10.9997 6.19004 11.5397C6.49004 12.0797 6.49004 12.7097 6.17004 13.2397C5.82004 13.8197 5.68004 14.5097 5.77004 15.1897L6.35004 19.5197C6.45004 20.2397 6.23004 20.9797 5.74004 21.5297C5.26004 22.0797 4.56004 22.3997 3.83004 22.3997ZM2.94004 12.1997C2.85004 12.1997 2.80004 12.2497 2.77004 12.2997C2.75004 12.3397 2.73004 12.4097 2.77004 12.4897C3.29004 13.3597 3.51004 14.3997 3.37004 15.4097L2.79004 19.7397C2.75004 20.0397 2.84004 20.3297 3.04004 20.5597C3.44004 21.0197 4.20004 21.0197 4.60004 20.5597C4.80004 20.3297 4.89004 20.0397 4.85004 19.7397L4.27004 15.4097C4.14004 14.3997 4.35004 13.3697 4.87004 12.4897C4.92004 12.4097 4.90004 12.3397 4.87004 12.2997C4.84004 12.2597 4.80004 12.1997 4.70004 12.1997H2.92004H2.94004Z" fill="white"/> <path d="M21.8599 12.8692C21.4199 13.5992 21.2399 14.4592 21.3599 15.2992L21.9399 19.6292C22.0799 20.6992 21.2499 21.6492 20.1699 21.6492C19.0899 21.6492 18.2499 20.6992 18.3999 19.6292L18.9799 15.2992C19.0899 14.4592 18.9099 13.5992 18.4799 12.8692C18.0999 12.2392 18.5599 11.4492 19.2899 11.4492H21.0699C21.7999 11.4492 22.2499 12.2492 21.8799 12.8692H21.8599Z" fill="white"/> <path d="M20.1699 22.3997C19.4399 22.3997 18.7399 22.0797 18.2599 21.5297C17.7799 20.9797 17.5599 20.2497 17.6499 19.5197L18.2299 15.1897C18.3199 14.5197 18.1799 13.8297 17.8299 13.2397C17.5099 12.7097 17.4999 12.0697 17.8099 11.5397C18.1099 10.9997 18.6599 10.6797 19.2799 10.6797H21.0599C21.6799 10.6797 22.2299 10.9997 22.5299 11.5397C22.8299 12.0797 22.8299 12.7097 22.5099 13.2397C22.1599 13.8197 22.0199 14.5097 22.1099 15.1897L22.6899 19.5197C22.7899 20.2397 22.5699 20.9797 22.0799 21.5297C21.5999 22.0797 20.8999 22.3997 20.1699 22.3997ZM19.2799 12.1997C19.1899 12.1997 19.1399 12.2497 19.1099 12.2997C19.0899 12.3397 19.0699 12.4097 19.1099 12.4897C19.6299 13.3597 19.8499 14.3997 19.7099 15.4097L19.1299 19.7397C19.0899 20.0397 19.1799 20.3297 19.3799 20.5597C19.7799 21.0197 20.5399 21.0197 20.9399 20.5597C21.1399 20.3297 21.2299 20.0397 21.1899 19.7397L20.6099 15.4097C20.4799 14.3997 20.6899 13.3697 21.2099 12.4897C21.2599 12.4097 21.2399 12.3397 21.2099 12.2997C21.1799 12.2597 21.1399 12.1997 21.0399 12.1997H19.2599H19.2799Z" fill="white"/> </g> <defs> <clipPath id="clip0_2085_388816"> <rect width="24" height="24" fill="white"/> </clipPath> </defs> </svg>
