<svg width="24" height="24" viewBox="0 0 24 24" fill="none" xmlns="http://www.w3.org/2000/svg"> <g clip-path="url(#clip0_2085_388817)"> <path d="M12.0001 9.6C9.69007 9.6 7.82007 7.73 7.82007 5.43C7.82007 3.13 9.70007 1.25 12.0001 1.25C14.3001 1.25 16.1801 3.13 16.1801 5.43C16.1801 7.73 14.3001 9.6 12.0001 9.6ZM12.0001 2.75C10.5201 2.75 9.32007 3.95 9.32007 5.43C9.32007 6.91 10.5201 8.1 12.0001 8.1C13.4801 8.1 14.6801 6.9 14.6801 5.43C14.6801 3.96 13.4801 2.75 12.0001 2.75Z" fill="white"/> <path d="M8.78992 4.21017C8.39992 4.11017 7.97992 4.35017 7.87992 4.75017L6.16992 11.2302L7.60992 11.6202L9.32992 5.13017C9.42992 4.73017 9.18992 4.32017 8.78992 4.21017ZM16.1799 4.75017C16.0699 4.35017 15.6599 4.11017 15.2599 4.21017C14.8599 4.32017 14.6199 4.73017 14.7199 5.13017L16.4499 11.7202L17.9099 11.3302L16.1799 4.75017Z" fill="white"/> <path d="M21.0201 22.1799L19.1301 22.6899C18.9801 22.7299 18.8301 22.7499 18.6701 22.7499C18.3801 22.7499 18.0801 22.6799 17.8101 22.5199C17.4101 22.2899 17.1201 21.9099 17.0001 21.4599L14.9801 13.8999C14.8601 13.4599 14.9201 12.9899 15.1501 12.5899C15.3801 12.1899 15.7501 11.9099 16.1901 11.7899L16.4501 11.7199L17.9101 11.3299L18.1001 11.2799C19.0101 11.0399 19.9601 11.5899 20.2001 12.4999L22.2301 20.0699C22.4801 20.9899 21.9401 21.9399 21.0201 22.1799Z" fill="white"/> <path d="M9.02009 13.78L6.99009 21.34C6.79009 22.12 6.09009 22.62 5.32009 22.62C5.18009 22.62 5.02009 22.6 4.87009 22.56L2.99009 22.06C2.54009 21.94 2.17009 21.66 1.94009 21.26C1.71009 20.86 1.65009 20.39 1.77009 19.94L3.80009 12.39C3.91009 11.94 4.20009 11.56 4.60009 11.33C5.00009 11.1 5.46009 11.04 5.90009 11.16L6.17009 11.23L7.61009 11.62L7.80009 11.67C8.25009 11.79 8.62009 12.07 8.85009 12.47C9.08009 12.87 9.14009 13.34 9.02009 13.78Z" fill="white"/> </g> <defs> <clipPath id="clip0_2085_388817"> <rect width="24" height="24" fill="white"/> </clipPath> </defs> </svg>
