<svg width="24" height="24" viewBox="0 0 24 24" fill="none" xmlns="http://www.w3.org/2000/svg"> <g clip-path="url(#clip0_2085_391739)"> <path d="M12.2867 12.174C12.202 12.0735 12.202 11.9265 12.2867 11.826L17.9801 5.07C18.6501 4.28 18.5501 3.1 17.7601 2.44C16.9701 1.78 15.7901 1.88 15.1301 2.66L9.78647 8.99521C9.62416 9.18763 9.31008 9.07286 9.31008 8.82113V3.87C9.31008 2.84 8.48008 2 7.44008 2C6.40008 2 5.58008 2.84 5.58008 3.87V20.13C5.58008 21.16 6.41008 22 7.44008 22C8.47008 22 9.31008 21.16 9.31008 20.13V15.35C9.31008 15.157 9.54858 15.0663 9.67687 15.2105L15.1301 21.34C15.5001 21.77 16.0301 22 16.5601 22C16.9801 22 17.4101 21.86 17.7601 21.56C18.5501 20.89 18.6501 19.72 17.9801 18.93L12.2867 12.174Z" fill="white"/> </g> <defs> <clipPath id="clip0_2085_391739"> <rect width="24" height="24" fill="white"/> </clipPath> </defs> </svg>
