<svg width="24" height="24" viewBox="0 0 24 24" fill="none" xmlns="http://www.w3.org/2000/svg"> <g clip-path="url(#clip0_4482_15701)"> <path d="M16.21 10.9501C16.21 11.7101 15.67 12.3501 14.95 12.5001C14.84 12.5201 14.74 12.5301 14.63 12.5301H9.37004C9.26004 12.5301 9.16004 12.5201 9.05004 12.5001C8.33004 12.3501 7.79004 11.7101 7.79004 10.9501C7.79004 10.0801 8.50004 9.37012 9.37004 9.37012H14.63C15.5 9.37012 16.21 10.0801 16.21 10.9501Z" fill="white"/> <path d="M9.47016 9.37H14.5302L15.1302 6.99C15.2002 6.68 15.1302 6.34 14.9302 6.09C14.7302 5.83 14.4302 5.68 14.1002 5.68H12.7502V3.8H13.0502C13.4702 3.8 13.8002 3.47 13.8002 3.05C13.8002 2.63 13.4702 2.3 13.0502 2.3H12.7502V2C12.7502 1.59 12.4102 1.25 12.0002 1.25C11.5902 1.25 11.2502 1.59 11.2502 2V2.3H10.9502C10.5302 2.3 10.2002 2.64 10.2002 3.05C10.2002 3.46 10.5302 3.8 10.9502 3.8H11.2502V5.68H9.90016C9.57016 5.68 9.27016 5.83 9.07016 6.09C8.87016 6.34 8.80016 6.68 8.87016 6.99L9.47016 9.37Z" fill="white"/> <path d="M19.41 18.59C19.05 18.22 18.55 18 18 18H15.83L14.95 12.5C14.84 12.52 14.74 12.53 14.63 12.53H9.37C9.26 12.53 9.16 12.52 9.05 12.5L8.17 18H6C4.9 18 4 18.9 4 20C4 20.55 4.22 21.05 4.59 21.41C4.95 21.78 5.45 22 6 22H18C19.1 22 20 21.1 20 20C20 19.45 19.78 18.95 19.41 18.59Z" fill="white"/> </g> <defs> <clipPath id="clip0_4482_15701"> <rect width="24" height="24" fill="white"/> </clipPath> </defs> </svg>
