<svg width="24" height="24" viewBox="0 0 24 24" fill="none" xmlns="http://www.w3.org/2000/svg"> <g clip-path="url(#clip0_2085_389419)"> <path d="M18.32 14.3598L14.24 12.3798C13.83 12.1798 13.57 11.7598 13.59 11.2998C13.59 11.1398 13.58 10.9898 13.53 10.8398L9.96997 12.6598L5.94997 14.6598C3.56997 15.8098 2.34997 18.3898 2.81997 20.8698C2.96997 21.6298 3.79997 22.0498 4.49997 21.7098C4.96997 21.3198 6.69997 19.0298 9.90997 19.0298L15.39 16.3598L18.85 14.5198C18.67 14.4998 18.49 14.4398 18.32 14.3598ZM12.38 15.4198L9.49997 16.8598C9.38997 16.9098 9.27997 16.9398 9.16997 16.9398C8.88997 16.9398 8.62997 16.7898 8.49997 16.5298C8.30997 16.1598 8.45997 15.7098 8.82997 15.5198L11.71 14.0798C12.08 13.8998 12.53 14.0498 12.72 14.4098C12.91 14.7798 12.76 15.2298 12.39 15.4198H12.38Z" fill="white"/> <path d="M21.8 10.51C21.73 9.94999 21.39 9.45999 20.9 9.18999C15.65 6.28999 10.48 3.78999 6.08996 2.10999C4.67997 1.41999 2.97996 2.01999 2.29996 3.42999L2.27996 3.45999C1.59996 4.86999 2.18996 6.57999 3.60996 7.25999C3.98996 7.43999 4.43997 7.37999 4.75996 7.09999C4.77996 7.07999 4.79996 7.05999 4.81996 7.04999C5.45996 6.53999 6.37996 6.55999 6.98996 7.09999C7.32996 7.39999 7.51996 7.79999 7.55996 8.19999C7.57996 8.40999 7.97996 8.37999 8.02996 8.34999C8.69996 7.96999 9.55997 8.07999 10.1 8.63999C10.4 8.93999 10.56 9.32999 10.57 9.72999C10.58 9.90999 10.86 9.89999 10.96 9.83999C11.62 9.39999 12.51 9.47999 13.09 10.06C13.31 10.28 13.46 10.55 13.53 10.84C13.58 10.99 13.59 11.14 13.59 11.3C13.57 11.76 13.83 12.18 14.24 12.38L18.32 14.36C18.49 14.44 18.67 14.5 18.85 14.52C19.25 14.57 19.66 14.49 20.02 14.28L21.13 13.61C21.75 13.24 22.08 12.55 21.98 11.84L21.8 10.51ZM18.27 12.21C17.69 12.21 17.21 11.74 17.21 11.15C17.21 10.56 17.68 10.09 18.27 10.09C18.86 10.09 19.33 10.56 19.33 11.15C19.33 11.74 18.86 12.21 18.27 12.21Z" fill="white"/> </g> <defs> <clipPath id="clip0_2085_389419"> <rect width="24" height="24" fill="white"/> </clipPath> </defs> </svg>
