<svg width="24" height="24" viewBox="0 0 24 24" fill="none" xmlns="http://www.w3.org/2000/svg"> <g clip-path="url(#clip0_655_9478)"> <path d="M18.8197 7.87001C18.8197 7.87001 18.7997 7.77001 18.7797 7.73001C18.7397 7.64001 18.6897 7.56001 18.6197 7.49001C18.5997 7.45001 18.5797 7.43001 18.5497 7.41001L13.9597 3.89001C13.9597 3.89001 13.9097 3.86001 13.8897 3.85001C13.7697 3.77001 13.6397 3.74001 13.4997 3.74001H10.5197C10.3697 3.74001 10.2197 3.78001 10.0997 3.87001C10.0797 3.87001 10.0697 3.88001 10.0597 3.89001L5.46969 7.41001C5.46969 7.41001 5.41969 7.45001 5.39969 7.49001C5.25969 7.62001 5.17969 7.81001 5.17969 8.02001V17.34C5.17969 17.4 5.18969 17.45 5.19969 17.51C5.20969 17.56 5.22969 17.62 5.25969 17.67C5.27969 17.71 5.29969 17.75 5.32969 17.78C5.37969 17.84 5.42969 17.89 5.48969 17.93L11.5097 22.56C11.5097 22.56 11.5397 22.58 11.5497 22.59C11.5797 22.62 11.6097 22.64 11.6497 22.65C11.7597 22.72 11.8797 22.75 12.0097 22.75C12.1397 22.75 12.2597 22.72 12.3697 22.65C12.4097 22.65 12.4397 22.62 12.4697 22.59C12.4797 22.58 12.4997 22.57 12.5097 22.56L18.5497 17.93C18.7297 17.79 18.8397 17.57 18.8397 17.34V8.02001C18.8397 8.02001 18.8297 7.92001 18.8197 7.87001ZM13.6397 19.8L12.0097 21.05L10.3797 19.8L8.09969 18.06L6.67969 16.97V8.38001L8.12969 7.27001L10.3797 5.54001L10.7697 5.24001H13.2497L13.6397 5.54001L15.8897 7.27001L17.3397 8.38001V16.97L15.9197 18.06L13.6397 19.8Z" fill="white"/> <path d="M15.9196 18.06L13.6396 19.8L14.2996 18.06H15.9196Z" fill="white"/> <path d="M10.3796 19.8L8.09961 18.06H9.71961L10.3796 19.8Z" fill="white"/> <path d="M10.3799 5.54001L9.72988 7.27001H8.12988L10.3799 5.54001Z" fill="white"/> <path d="M15.8896 7.27001H14.2896L13.6396 5.54001L15.8896 7.27001Z" fill="white"/> <path d="M14.52 17.31V17.34C14.52 17.43 14.51 17.52 14.47 17.6L14.3 18.06L13.64 19.8L12.71 22.27C12.67 22.38 12.6 22.48 12.51 22.56C12.5 22.57 12.48 22.58 12.47 22.59C12.44 22.62 12.41 22.64 12.37 22.65C12.26 22.72 12.14 22.75 12.01 22.75C11.88 22.75 11.76 22.72 11.65 22.65C11.61 22.65 11.58 22.62 11.55 22.59C11.54 22.58 11.52 22.57 11.51 22.56C11.42 22.48 11.35 22.38 11.31 22.27L10.38 19.8L9.72 18.06L9.55 17.6C9.51 17.52 9.5 17.43 9.5 17.34C9.5 16.92 9.83 16.57 10.25 16.57C10.61 16.57 10.91 16.82 10.98 17.16L11.32 18.06L12.01 19.88L12.7 18.06L13.06 17.1C13.16 16.8 13.44 16.57 13.77 16.57C14.19 16.57 14.52 16.9 14.52 17.31Z" fill="white"/> <path d="M14.2905 7.27001H12.6905L12.0105 5.46001L11.3305 7.27001H9.73047L10.3805 5.54001L10.7705 5.24001H13.2505L13.6405 5.54001L14.2905 7.27001Z" fill="white"/> <path d="M9.73 7.27H11.33L10.96 8.25C10.86 8.55 10.58 8.76 10.25 8.76C9.83 8.76 9.5 8.43 9.5 8.02C9.5 7.92 9.51 7.83 9.55 7.74L9.73 7.27Z" fill="white"/> <path d="M13.2499 5.24001H10.7699L10.3799 5.54001L10.6799 4.74001L10.8799 4.22001C10.9899 3.93001 11.2699 3.74001 11.5799 3.74001H12.4399C12.7499 3.74001 13.0299 3.93001 13.1399 4.22001L13.3299 4.72001L13.6399 5.54001L13.2499 5.24001Z" fill="white"/> <path d="M14.5204 8.01C14.5204 8.42 14.1904 8.76 13.7704 8.76C13.4304 8.76 13.1404 8.53 13.0504 8.22L12.6904 7.27H14.2904L14.4704 7.74C14.5104 7.83 14.5204 7.92 14.5204 8.01Z" fill="white"/> <path d="M13.4996 3.74001H10.5196C10.3696 3.74001 10.2196 3.78001 10.0996 3.87001C10.2096 4.21001 10.4196 4.51001 10.6796 4.74001C11.0296 5.06001 11.4896 5.24001 11.9896 5.24001C12.4896 5.24001 12.9796 5.05001 13.3296 4.72001C13.5796 4.49001 13.7796 4.19001 13.8896 3.85001C13.7696 3.77001 13.6396 3.74001 13.4996 3.74001Z" fill="white"/> <path d="M13.98 3.25C13.98 3.46 13.95 3.66 13.89 3.85C13.77 3.77 13.64 3.74 13.5 3.74H10.52C10.37 3.74 10.22 3.78 10.1 3.87C10.03 3.68 10 3.47 10 3.25C10 2.14 10.89 1.25 11.99 1.25C13.09 1.25 13.98 2.14 13.98 3.25Z" fill="white"/> <path d="M18.8397 8.02C18.8397 8.43 18.4997 8.77 18.0897 8.77H5.92969C5.51969 8.77 5.17969 8.43 5.17969 8.02C5.17969 7.81 5.25969 7.62 5.39969 7.49C5.53969 7.35 5.71969 7.27 5.92969 7.27H18.0897C18.2997 7.27 18.4797 7.35 18.6197 7.49C18.6897 7.56 18.7397 7.64 18.7797 7.73C18.7997 7.77 18.8097 7.82 18.8197 7.87C18.8297 7.92 18.8397 7.97 18.8397 8.02Z" fill="white"/> <path d="M18.8202 17.31C18.8202 17.73 18.4802 18.06 18.0702 18.06H5.91016C5.76016 18.06 5.61016 18.01 5.49016 17.93C5.43016 17.89 5.38016 17.84 5.33016 17.78C5.30016 17.75 5.28016 17.71 5.26016 17.67C5.23016 17.62 5.21016 17.56 5.20016 17.51C5.17016 17.45 5.16016 17.38 5.16016 17.31C5.16016 17.26 5.17016 17.21 5.18016 17.16C5.25016 16.82 5.55016 16.56 5.91016 16.56H18.0702C18.4802 16.56 18.8202 16.9 18.8202 17.31Z" fill="white"/> <path d="M14.9803 11.92C14.9103 11.68 14.7103 11.5 14.4703 11.43L13.3003 11.11L12.6203 10.09C12.3503 9.66999 11.6503 9.66999 11.3803 10.09L10.7003 11.11L9.53027 11.43C9.29027 11.5 9.09027 11.68 9.02027 11.92C8.94027 12.16 8.99027 12.42 9.14027 12.62L9.90027 13.57L9.85027 14.79C9.83027 15.04 9.95027 15.28 10.1503 15.43C10.3603 15.58 10.6203 15.62 10.8603 15.53L12.0003 15.1L13.1403 15.53C13.2303 15.56 13.3203 15.57 13.4003 15.57C13.5603 15.57 13.7103 15.53 13.8503 15.43C14.0503 15.28 14.1703 15.04 14.1503 14.79L14.1003 13.57L14.8603 12.62C15.0103 12.42 15.0603 12.16 14.9803 11.92ZM12.7503 12.86C12.6403 13 12.5803 13.18 12.5903 13.36L12.6103 13.73L12.2603 13.6C12.1803 13.57 12.0903 13.55 12.0003 13.55C11.9103 13.55 11.8203 13.57 11.7403 13.6L11.3903 13.73L11.4103 13.36C11.4203 13.18 11.3603 13 11.2503 12.86L11.0203 12.57L11.3703 12.48C11.5503 12.43 11.7003 12.32 11.8003 12.17L12.0003 11.86L12.2003 12.17C12.3003 12.32 12.4503 12.43 12.6303 12.48L12.9803 12.57L12.7503 12.86Z" fill="white"/> <path d="M12.7505 12.86C12.6405 13 12.5805 13.18 12.5905 13.36L12.6105 13.73L12.2605 13.6C12.1805 13.57 12.0905 13.55 12.0005 13.55C11.9105 13.55 11.8205 13.57 11.7405 13.6L11.3905 13.73L11.4105 13.36C11.4205 13.18 11.3605 13 11.2505 12.86L11.0205 12.57L11.3705 12.48C11.5505 12.43 11.7005 12.32 11.8005 12.17L12.0005 11.86L12.2005 12.17C12.3005 12.32 12.4505 12.43 12.6305 12.48L12.9805 12.57L12.7505 12.86Z" fill="white"/> </g> <defs> <clipPath id="clip0_655_9478"> <rect width="24" height="24" fill="white"/> </clipPath> </defs> </svg>
