<svg width="24" height="24" viewBox="0 0 24 24" fill="none" xmlns="http://www.w3.org/2000/svg"> <g clip-path="url(#clip0_4482_15399)"> <path d="M21.7603 12.55L16.9503 19.76C16.5603 20.35 15.6903 20.35 15.2903 19.76L10.3903 12.55C10.1603 12.21 10.1603 11.77 10.3903 11.43L15.2903 4.22001C15.6903 3.63001 16.5503 3.64001 16.9503 4.22001L21.7603 11.43C21.9803 11.77 21.9803 12.2 21.7603 12.54V12.55Z" fill="white"/> <path d="M7.5998 4.59023C7.1898 4.59023 6.7998 4.20023 6.7998 3.79023C6.7998 3.38023 7.1898 2.99023 7.5998 2.99023C7.7998 2.99023 8.0298 3.09023 8.1798 3.23023C8.3198 3.38023 8.4098 3.61023 8.3998 3.81023C8.3898 4.21023 7.9998 4.58023 7.5998 4.58023V4.59023Z" fill="white"/> <path d="M11.5902 20.9604C11.3502 20.9604 11.1102 20.8504 10.9702 20.6304L6.70016 14.3504C5.73016 12.9204 5.73016 11.0704 6.70016 9.64041L10.9702 3.37041C11.2002 3.03041 11.6702 2.94041 12.0102 3.17041C12.3502 3.40041 12.4402 3.87041 12.2102 4.21041L7.94016 10.4904C7.32016 11.4104 7.32016 12.5904 7.94016 13.5104L12.2102 19.7904C12.4402 20.1304 12.3502 20.6004 12.0102 20.8304C11.8802 20.9204 11.7302 20.9604 11.5902 20.9604Z" fill="white"/> <path d="M2.13008 12.8002C1.72008 12.8002 1.33008 12.4102 1.33008 12.0002C1.33008 11.5902 1.72008 11.2002 2.13008 11.2002C2.33008 11.2002 2.56008 11.3002 2.71008 11.4402C2.85008 11.5902 2.94008 11.8202 2.93008 12.0202C2.92008 12.4202 2.53008 12.7902 2.13008 12.7902V12.8002Z" fill="white"/> <path d="M3.95039 10.06C3.54039 10.06 3.15039 9.66996 3.15039 9.25996C3.15039 8.84996 3.54039 8.45996 3.95039 8.45996C4.15039 8.45996 4.38039 8.55996 4.53039 8.69996C4.67039 8.84996 4.76039 9.07996 4.75039 9.27996C4.74039 9.67996 4.35039 10.05 3.95039 10.05V10.06Z" fill="white"/> <path d="M5.78047 7.33047C5.37047 7.33047 4.98047 6.94047 4.98047 6.53047C4.98047 6.12047 5.37047 5.73047 5.78047 5.73047C5.98047 5.73047 6.21047 5.83047 6.36047 5.97047C6.50047 6.12047 6.59047 6.35047 6.58047 6.55047C6.57047 6.95047 6.18047 7.32047 5.78047 7.32047V7.33047Z" fill="white"/> <path d="M5.72969 18.2699C5.31969 18.2699 4.92969 17.8799 4.92969 17.4699C4.92969 17.0599 5.31969 16.6699 5.72969 16.6699C5.92969 16.6699 6.15969 16.7699 6.30969 16.9099C6.44969 17.0599 6.53969 17.2899 6.52969 17.4899C6.51969 17.8899 6.12969 18.2599 5.72969 18.2599V18.2699Z" fill="white"/> <path d="M3.95039 15.5404C3.54039 15.5404 3.15039 15.1504 3.15039 14.7404C3.15039 14.3304 3.54039 13.9404 3.95039 13.9404C4.15039 13.9404 4.38039 14.0404 4.53039 14.1804C4.67039 14.3304 4.76039 14.5604 4.75039 14.7604C4.74039 15.1604 4.35039 15.5304 3.95039 15.5304V15.5404Z" fill="white"/> <path d="M7.5998 21.0102C7.1898 21.0102 6.7998 20.6202 6.7998 20.2102C6.7998 19.8002 7.1898 19.4102 7.5998 19.4102C7.7998 19.4102 8.0298 19.5102 8.1798 19.6502C8.3198 19.8002 8.4098 20.0302 8.3998 20.2302C8.3898 20.6302 7.9998 21.0002 7.5998 21.0002V21.0102Z" fill="white"/> </g> <defs> <clipPath id="clip0_4482_15399"> <rect width="24" height="24" fill="white"/> </clipPath> </defs> </svg>
