<svg width="24" height="24" viewBox="0 0 24 24" fill="none" xmlns="http://www.w3.org/2000/svg"> <g clip-path="url(#clip0_4482_1510)"> <path d="M15.5 2H8.5C6.02 2 4 4.03 4 6.5V17.5C4 19.98 6.03 22 8.5 22H15.5C15.75 22 16 21.98 16.24 21.94C14.98 20.99 13.71 19.44 13.71 17.33C13.71 15.89 14.87 14.73 16.29 14.73C17.14 14.73 17.89 15.14 18.35 15.78C18.74 15.25 19.32 14.88 20 14.77V6.5C20 4.02 17.97 2 15.5 2ZM14 6.75H10C9.59 6.75 9.25 6.41 9.25 6C9.25 5.59 9.59 5.25 10 5.25H14C14.41 5.25 14.75 5.59 14.75 6C14.75 6.41 14.41 6.75 14 6.75Z" fill="white"/> <path d="M18.3499 23.75C18.1799 23.75 17.9999 23.72 17.8199 23.66C17.1899 23.45 16.4499 23.04 15.7899 22.54C14.7299 21.74 12.96 20.01 12.96 17.33C12.96 15.48 14.4499 13.98 16.2899 13.98C17.0499 13.98 17.7799 14.24 18.3499 14.7C18.7899 14.35 19.3099 14.12 19.8799 14.03C19.9999 14 20.1999 13.98 20.4199 13.98C22.2599 13.98 23.7499 15.48 23.7499 17.33C23.7499 20.75 20.77 23.03 18.89 23.66C18.71 23.72 18.5299 23.75 18.3499 23.75ZM16.2899 15.48C15.2799 15.48 14.46 16.31 14.46 17.33C14.46 19.36 15.8599 20.71 16.6899 21.34C17.2299 21.74 17.8299 22.08 18.2999 22.24L18.65 22.95L18.4099 22.24C19.6599 21.82 22.2499 20.07 22.2499 17.33C22.2499 16.31 21.4299 15.48 20.4199 15.48C20.2699 15.48 20.1899 15.49 20.1699 15.5C19.6599 15.58 19.24 15.84 18.96 16.22C18.82 16.41 18.5599 16.5 18.3499 16.53C18.1099 16.53 17.8899 16.41 17.7499 16.22C17.3999 15.75 16.8799 15.48 16.2899 15.48Z" fill="white"/> </g> <defs> <clipPath id="clip0_4482_1510"> <rect width="24" height="24" fill="white"/> </clipPath> </defs> </svg>
