<svg width="24" height="24" viewBox="0 0 24 24" fill="none" xmlns="http://www.w3.org/2000/svg"> <g clip-path="url(#clip0_2085_393130)"> <path d="M9.47001 11.3796C9.47001 9.24956 7.69001 7.53956 5.54001 7.64956C3.52001 7.75956 2.01001 9.56956 2.01001 11.5896V16.8496C2.01001 17.9496 2.91001 18.8496 4.01001 18.8496H9.27001C11.29 18.8496 13.1 17.3396 13.21 15.3196C13.32 13.1696 11.61 11.3896 9.48001 11.3896L9.47001 11.3796ZM6.98001 15.1096C6.90001 15.1096 6.84001 15.0796 6.77001 15.0696C6.73001 15.1396 6.69001 15.2196 6.63001 15.2796L5.02001 16.8896C4.87001 17.0396 4.68001 17.1096 4.49001 17.1096C4.30001 17.1096 4.11001 17.0396 3.96001 16.8896C3.67001 16.5996 3.67001 16.1196 3.96001 15.8296L5.57001 14.2196C5.63001 14.1596 5.70001 14.1196 5.78001 14.0796C5.77001 14.0096 5.74001 13.9396 5.74001 13.8696C5.74001 13.1796 6.30001 12.6296 6.98001 12.6296C7.66001 12.6296 8.22001 13.1896 8.22001 13.8696C8.22001 14.5496 7.66001 15.1096 6.98001 15.1096Z" fill="white"/> <path d="M12.88 14.3404C12.58 14.3404 12.29 14.1604 12.18 13.8604C12.03 13.4704 12.23 13.0404 12.62 12.8904C14.04 12.3504 14.99 11.0004 14.99 9.51039C14.99 7.52039 13.35 5.90039 11.34 5.90039C9.85003 5.90039 8.49003 6.84039 7.97003 8.23039C7.82003 8.62039 7.39003 8.81039 7.00003 8.67039C6.61003 8.52039 6.42003 8.09039 6.56003 7.70039C7.31003 5.73039 9.23003 4.40039 11.34 4.40039C14.18 4.40039 16.49 6.69039 16.49 9.51039C16.49 11.6104 15.15 13.5304 13.15 14.2904C13.06 14.3204 12.97 14.3404 12.88 14.3404Z" fill="white"/> <path d="M15.73 13.3696C13.92 13.3696 12.45 11.9196 12.45 10.1296C12.45 8.33965 13.92 6.88965 15.73 6.88965C17.54 6.88965 18.97 8.33965 18.97 10.1296C18.97 11.9196 17.52 13.3696 15.73 13.3696ZM15.73 8.38965C14.77 8.38965 13.95 9.18965 13.95 10.1296C13.95 11.0696 14.77 11.8696 15.73 11.8696C16.69 11.8696 17.47 11.0896 17.47 10.1296C17.47 9.16965 16.69 8.38965 15.73 8.38965Z" fill="white"/> <path d="M22.2044 15.4983C22.3896 15.6812 22.3908 15.9799 22.2071 16.1643L20.5924 17.7861C20.409 17.9704 20.1108 17.9707 19.927 17.7869L18.1624 16.0223C17.9789 15.8387 17.9789 15.5411 18.1624 15.3576L20.1001 13.4199L22.2044 15.4983Z" fill="white"/> <path d="M20.1199 15.2501C19.9299 15.2501 19.7399 15.1801 19.5899 15.0301L16.9699 12.4201C16.6799 12.1301 16.6799 11.6501 16.9699 11.3601C17.2599 11.0701 17.7399 11.0701 18.0299 11.3601L20.5799 13.9001C20.5799 13.9001 20.6299 13.9401 20.6599 13.9701C20.9499 14.2601 20.9599 14.7301 20.6599 15.0301C20.5099 15.1901 20.3199 15.2601 20.1299 15.2601L20.1199 15.2501Z" fill="white"/> </g> <defs> <clipPath id="clip0_2085_393130"> <rect width="24" height="24" fill="white"/> </clipPath> </defs> </svg>
