<svg width="24" height="24" viewBox="0 0 24 24" fill="none" xmlns="http://www.w3.org/2000/svg"> <g clip-path="url(#clip0_4482_12597)"> <path d="M11.9999 6.96973C11.2399 6.96973 10.6299 7.57973 10.6299 8.33973V9.36973H13.3699V8.33973C13.3699 7.57973 12.7599 6.96973 11.9999 6.96973Z" fill="white"/> <path d="M17 2H7C4.24 2 2 4.24 2 7V17C2 19.76 4.24 22 7 22H17C19.76 22 22 19.76 22 17V7C22 4.24 19.76 2 17 2ZM14.93 18.53H9.08C8.67 18.53 8.33 18.19 8.33 17.78C8.33 17.37 8.67 17.03 9.08 17.03H14.93C15.34 17.03 15.68 17.37 15.68 17.78C15.68 18.19 15.34 18.53 14.93 18.53ZM16 13.22C16 14.32 15.1 15.22 14 15.22H10C8.9 15.22 8 14.32 8 13.22V11.37C8 10.58 8.46 9.9 9.13 9.58V8.34C9.13 6.76 10.42 5.47 12 5.47C13.58 5.47 14.87 6.76 14.87 8.34V9.58C15.54 9.9 16 10.58 16 11.37V13.22Z" fill="white"/> </g> <defs> <clipPath id="clip0_4482_12597"> <rect width="24" height="24" fill="white"/> </clipPath> </defs> </svg>
