<svg width="24" height="24" viewBox="0 0 24 24" fill="none" xmlns="http://www.w3.org/2000/svg"> <g clip-path="url(#clip0_4482_14018)"> <path d="M18 20H6C3.79 20 2 18.21 2 16V8C2 5.79 3.79 4 6 4H18C20.21 4 22 5.79 22 8V16C22 18.21 20.21 20 18 20Z" stroke="white" stroke-width="1.5" stroke-linecap="round" stroke-linejoin="round"/> <path d="M20.4603 18.0002L14.7803 12.9102" stroke="white" stroke-width="1.5" stroke-linecap="round" stroke-linejoin="round"/> <path d="M9.25 12.96L3 18.69" stroke="white" stroke-width="1.5" stroke-linecap="round" stroke-linejoin="round"/> <path d="M20.8401 6L15.3701 10.28" stroke="white" stroke-width="1.5" stroke-linecap="round" stroke-linejoin="round"/> <path d="M8.70004 10.14L3.29004 6" stroke="white" stroke-width="1.5" stroke-linecap="round" stroke-linejoin="round"/> <path d="M13.9702 8C15.6602 8 16.8002 9.49 16.8002 10.88C16.8002 13.7 12.0902 16 12.0002 16C11.9102 16 7.2002 13.69 7.2002 10.88C7.2002 9.49 8.3402 8 10.0302 8C11.0002 8 11.6302 8.45 12.0002 8.86C12.3702 8.46 13.0002 8 13.9702 8Z" fill="white"/> </g> <defs> <clipPath id="clip0_4482_14018"> <rect width="24" height="24" fill="white"/> </clipPath> </defs> </svg>
