<svg width="24" height="24" viewBox="0 0 24 24" fill="none" xmlns="http://www.w3.org/2000/svg"> <g clip-path="url(#clip0_2085_393135)"> <path d="M2.01001 14.4502V17.4302C2.01001 18.5302 2.90001 19.4302 4.01001 19.4302H20C21.1 19.4302 22 18.5302 22 17.4302V14.4502H2.01001ZM7.03001 17.6902H4.54001C4.13001 17.6902 3.79001 17.3502 3.79001 16.9402C3.79001 16.5302 4.13001 16.1902 4.54001 16.1902H7.03001C7.44001 16.1902 7.78001 16.5302 7.78001 16.9402C7.78001 17.3502 7.44001 17.6902 7.03001 17.6902ZM9.51001 17.5602C9.17001 17.5602 8.89001 17.2802 8.89001 16.9402C8.89001 16.6002 9.17001 16.3202 9.51001 16.3202C9.85001 16.3202 10.13 16.6002 10.13 16.9402C10.13 17.2802 9.85001 17.5602 9.51001 17.5602ZM12 17.5602C11.66 17.5602 11.38 17.2802 11.38 16.9402C11.38 16.6002 11.66 16.3202 12 16.3202C12.34 16.3202 12.62 16.6002 12.62 16.9402C12.62 17.2802 12.34 17.5602 12 17.5602ZM14.49 17.5602C14.15 17.5602 13.87 17.2802 13.87 16.9402C13.87 16.6002 14.15 16.3202 14.49 16.3202C14.83 16.3202 15.11 16.6002 15.11 16.9402C15.11 17.2802 14.83 17.5602 14.49 17.5602ZM19.47 17.6902H16.98C16.57 17.6902 16.23 17.3502 16.23 16.9402C16.23 16.5302 16.57 16.1902 16.98 16.1902H19.47C19.88 16.1902 20.22 16.5302 20.22 16.9402C20.22 17.3502 19.88 17.6902 19.47 17.6902Z" fill="white"/> <path d="M20.7601 19.1504V20.1604C20.7601 21.1804 19.9301 22.0004 18.9201 22.0004C17.9101 22.0004 17.0801 21.1804 17.0801 20.1604V19.1504H20.7601Z" fill="white"/> <path d="M6.93 19.1504V20.1604C6.93 21.1804 6.11 22.0004 5.09 22.0004C4.07 22.0004 3.25 21.1804 3.25 20.1604V19.1504H6.93Z" fill="white"/> <path d="M18.99 2.00977H5C3.34 2.00977 2 3.34977 2 5.00977V14.4498H21.99V5.00977C21.99 3.34977 20.65 2.00977 18.99 2.00977ZM18.0429 10.6784C17.7711 10.8534 17.4288 10.8528 17.1569 10.6781C16.8364 10.4722 16.3986 10.156 16.04 9.76977C15.98 9.78977 15.92 9.80977 15.85 9.80977H14.48C14.22 9.80977 13.97 9.66976 13.84 9.44977L13.35 8.62977L12.68 10.1898C12.56 10.4598 12.3 10.6398 12.01 10.6398C11.7 10.6498 11.45 10.4898 11.32 10.2298L10.06 7.69977L8.97 10.9598C8.87 11.2498 8.6 11.4598 8.29 11.4698C8.28 11.4698 8.27 11.4698 8.25 11.4698C7.95 11.4698 7.69 11.2998 7.56 11.0198L6.49 8.60977L5.99 9.44977C5.85 9.67977 5.61 9.80977 5.35 9.80977H4.52C4.11 9.80977 3.77 9.46977 3.77 9.05977C3.77 8.64977 4.11 8.30977 4.52 8.30977H4.92L5.95 6.59977C6.09 6.35977 6.35 6.21977 6.64 6.23977C6.92 6.25977 7.17 6.42977 7.28 6.67977L8.15 8.64977L9.2 5.50977C9.3 5.21977 9.56 5.01977 9.86 4.99977C10.17 4.96977 10.45 5.13977 10.58 5.40977L11.93 8.10977L12.54 6.68977C12.65 6.42977 12.9 6.25977 13.18 6.23977C13.47 6.21977 13.73 6.35977 13.87 6.59977L14.9 8.30977H15.41C15.47 7.67977 15.99 7.16977 16.64 7.16977C17.02 7.16977 17.35 7.33977 17.58 7.59977C17.81 7.33977 18.15 7.16977 18.52 7.16977C19.21 7.16977 19.78 7.72977 19.78 8.42977C19.78 9.41707 18.6802 10.2681 18.0429 10.6784Z" fill="white"/> </g> <defs> <clipPath id="clip0_2085_393135"> <rect width="24" height="24" fill="white"/> </clipPath> </defs> </svg>
