<svg width="24" height="24" viewBox="0 0 24 24" fill="none" xmlns="http://www.w3.org/2000/svg"> <g clip-path="url(#clip0_2085_389423)"> <path d="M9.99994 17.4498C9.78994 17.6598 9.47994 17.7298 9.20994 17.6598C8.94994 17.5898 8.66994 17.5998 8.45994 17.7798L7.59994 18.4998L6.35994 19.5598L4.43994 17.6398L5.49994 16.3998L6.21994 15.5498C6.39994 15.3298 6.40994 15.0498 6.33994 14.7798C6.26994 14.5098 6.33994 14.2098 6.54994 13.9998C6.85994 13.6798 7.37994 13.6798 7.69994 13.9998L9.99994 16.2998C10.3099 16.6098 10.3099 17.1298 9.99994 17.4498Z" fill="white"/> <path d="M6.36 19.5596L6.3 19.6096C5.76 20.0596 5.5 20.7196 5.32 21.3996C5.29 21.5296 5.22 21.6596 5.11 21.7596C4.8 22.0796 4.28 22.0796 3.96 21.7596L2.24 20.0396C1.92 19.7197 1.92 19.2096 2.24 18.8896C2.34 18.7796 2.47 18.7096 2.6 18.6796C3.28 18.4996 3.94 18.2396 4.39 17.6996L4.44 17.6396L6.36 19.5596Z" fill="white"/> <path d="M21.0961 2.34478C20.992 2.18342 20.749 2.19375 20.6421 2.35323C20.4746 2.60308 20.2134 2.95433 19.8682 3.30258C19.8188 3.35249 19.799 3.41858 19.8084 3.48823C19.8094 3.49572 19.81 3.50301 19.81 3.51C19.82 4.83 19.72 5.72 19.46 6.48C19.36 6.79 19.06 6.99 18.75 6.99C18.67 6.99 18.59 6.98 18.51 6.95C18.12 6.82 17.91 6.39 18.04 6C18.1599 5.65633 18.2351 5.26156 18.2706 4.76975C18.284 4.58466 18.0982 4.45254 17.9179 4.49649C17.5937 4.57552 17.2499 4.60117 16.8807 4.55913C16.7928 4.54912 16.7044 4.5799 16.6456 4.64592L8.02002 14.32L9.61002 15.91L19.28 9.74C19.28 9.74 23.9047 6.70117 21.0961 2.34478Z" fill="white"/> </g> <defs> <clipPath id="clip0_2085_389423"> <rect width="24" height="24" fill="white"/> </clipPath> </defs> </svg>
