<svg width="24" height="24" viewBox="0 0 24 24" fill="none" xmlns="http://www.w3.org/2000/svg"> <g clip-path="url(#clip0_4418_8185)"> <path d="M5.21 13.5098C4.12 13.4398 3 13.8398 2.17 14.6698C0.61 16.2298 0.61 18.7598 2.17 20.3298C2.7 20.8598 3.35 21.2098 4.04 21.3798C4.42 21.4798 4.82 21.5098 5.22 21.4898C6.17 21.4498 7.1 21.0698 7.83 20.3398C8.86 19.3098 9.21 17.8598 8.88 16.5498C8.72 15.8598 8.36 15.2098 7.83 14.6798C7.11 13.9498 6.17 13.5598 5.21 13.5098ZM7.24 17.4798C7.24 17.6898 7.16 17.8698 7.02 18.0098C6.88 18.1498 6.7 18.2298 6.49 18.2298H5.75V19.0098C5.75 19.2198 5.67 19.3998 5.53 19.5398C5.39 19.6798 5.21 19.7598 5 19.7598C4.59 19.7598 4.25 19.4198 4.25 19.0098V18.2298H3.5C3.09 18.2298 2.75 17.8898 2.75 17.4798C2.75 17.0698 3.09 16.7298 3.5 16.7298H4.25V16.0198C4.25 15.6098 4.59 15.2698 5 15.2698C5.41 15.2698 5.75 15.6098 5.75 16.0198V16.7298H6.49C6.91 16.7298 7.24 17.0698 7.24 17.4798Z" fill="white"/> <path d="M17.25 2.42969H7.75C4.9 2.42969 3 4.32969 3 7.17969V11.6397C3 11.9897 3.36 12.2397 3.7 12.1497C4.12 12.0497 4.55 11.9997 5 11.9997C7.86 11.9997 10.22 14.3197 10.48 17.1297C10.5 17.4097 10.73 17.6297 11 17.6297H11.55L15.78 20.4497C16.4 20.8697 17.25 20.4097 17.25 19.6497V17.6297C18.67 17.6297 19.86 17.1497 20.69 16.3297C21.52 15.4897 22 14.2997 22 12.8797V7.17969C22 4.32969 20.1 2.42969 17.25 2.42969ZM15.83 10.8097H9.17C8.78 10.8097 8.46 10.4897 8.46 10.0997C8.46 9.69969 8.78 9.37969 9.17 9.37969H15.83C16.22 9.37969 16.54 9.69969 16.54 10.0997C16.54 10.4897 16.22 10.8097 15.83 10.8097Z" fill="white"/> </g> <defs> <clipPath id="clip0_4418_8185"> <rect width="24" height="24" fill="white"/> </clipPath> </defs> </svg>
