<svg width="24" height="24" viewBox="0 0 24 24" fill="none" xmlns="http://www.w3.org/2000/svg"> <g clip-path="url(#clip0_2085_388610)"> <path d="M20.33 11.49L19.16 9.68998C18.23 8.24998 16.24 8.04998 15.05 9.26998C14.54 9.78998 14.29 10.05 14.02 10.15C13.64 10.29 13.23 10.24 12.89 10.01C12.65 9.84998 12.47 9.52998 12.1 8.89998L10.61 6.33998C9.88999 5.10998 8.36999 4.65998 7.12999 5.29998L5.53999 6.11998C4.55999 6.61998 3.81999 7.51998 3.49999 8.58998L2.17999 12.99C1.66999 14.68 2.27999 16.52 3.67999 17.55L8.70999 21.24C9.91999 22.13 11.5 22.25 12.83 21.57L18.44 18.69C19.44 18.17 20.19 17.25 20.5 16.14L20.84 14.91C21.16 13.75 20.97 12.5 20.32 11.5L20.33 11.49ZM8.59999 11.39C8.11999 11.09 7.57999 10.75 7.41999 10.75C7.27999 10.83 6.96999 11.6 6.69999 12.28C6.57999 12.57 6.29999 12.75 5.99999 12.75C5.90999 12.75 5.80999 12.73 5.71999 12.7C5.33999 12.55 5.14999 12.11 5.29999 11.72C5.82999 10.39 6.11999 9.65998 6.84999 9.35998C7.64999 9.02998 8.33999 9.45998 9.38999 10.11C9.73999 10.33 9.84999 10.79 9.62999 11.14C9.40999 11.49 8.94999 11.6 8.59999 11.38V11.39ZM11.53 16.03L10.03 17.53C9.87999 17.68 9.68999 17.75 9.49999 17.75C9.30999 17.75 9.11999 17.68 8.96999 17.53C8.67999 17.24 8.67999 16.76 8.96999 16.47L10.47 14.97C10.76 14.68 11.24 14.68 11.53 14.97C11.82 15.26 11.82 15.74 11.53 16.03ZM16.01 14.75C15.6 14.75 15.26 14.41 15.26 14C15.26 13.59 15.59 13.25 16.01 13.25C16.42 13.25 16.76 13.59 16.76 14C16.76 14.41 16.42 14.75 16.01 14.75Z" fill="white"/> <path d="M19.9599 2H18.2399C17.9699 2 17.8299 2 17.7099 2.02C17.4099 2.07 17.1299 2.2 16.9199 2.39C16.8299 2.47 16.7599 2.57 16.6099 2.77C16.2899 3.19 16.1299 3.41 16.0599 3.6C15.9099 4.08 16.0899 4.58 16.5199 4.9C16.6999 5.03 16.9699 5.13 17.5099 5.32L18.5199 5.68C19.1699 5.91 19.4899 6.02 19.8099 6C19.9499 6 20.0799 5.97 20.2099 5.93C20.5199 5.83 20.7599 5.62 21.2499 5.19L21.3999 5.06C21.5699 4.91 21.6599 4.83 21.7299 4.75C21.8599 4.59 21.9499 4.41 21.9799 4.22C21.9999 4.12 21.9999 4.01 21.9999 3.8C21.9999 3.31 21.9999 3.07 21.9199 2.87C21.7799 2.5 21.4399 2.2 21.0099 2.08C20.7899 2.01 20.5099 2.01 19.9499 2.01L19.9599 2Z" fill="white"/> </g> <defs> <clipPath id="clip0_2085_388610"> <rect width="24" height="24" fill="white"/> </clipPath> </defs> </svg>
