<svg width="24" height="24" viewBox="0 0 24 24" fill="none" xmlns="http://www.w3.org/2000/svg"> <g clip-path="url(#clip0_2085_384503)"> <path d="M12.0901 20.8801C11.6801 20.8801 11.3401 20.5401 11.3401 20.1301V5.33008C11.3401 4.92008 11.6801 4.58008 12.0901 4.58008C12.5001 4.58008 12.8401 4.92008 12.8401 5.33008V20.1201C12.8401 20.5301 12.5001 20.8701 12.0901 20.8701V20.8801Z" fill="white"/> <path d="M13.7599 3.67C13.7599 4.59 13.0099 5.33 12.0899 5.33C11.1699 5.33 10.4199 4.59 10.4199 3.67C10.4199 2.75 11.1699 2 12.0899 2C13.0099 2 13.7599 2.75 13.7599 3.67Z" fill="white"/> <path d="M18.56 18.5001C17.75 19.3101 16.43 19.3101 15.62 18.5001C14.81 17.6901 14.81 16.3701 15.62 15.5601C16.43 14.7501 17.75 14.7501 18.56 15.5601C19.37 16.3701 19.37 17.6901 18.56 18.5001Z" fill="white"/> <path d="M13.26 21.9998H10.92C10.18 21.9998 9.68999 21.2198 10.03 20.5498L11.2 18.2098C11.57 17.4698 12.62 17.4698 12.99 18.2098L14.16 20.5498C14.49 21.2098 14.01 21.9998 13.27 21.9998H13.26Z" fill="white"/> <path d="M8.93009 17.3502L7.78009 18.5002C7.40009 18.8802 6.79009 18.8802 6.41009 18.5002L5.25009 17.3502C4.87009 16.9702 4.87009 16.3602 5.25009 15.9802L6.41009 14.8202C6.79009 14.4402 7.41009 14.4402 7.78009 14.8202L8.93009 15.9802C9.31009 16.3602 9.31009 16.9702 8.93009 17.3502Z" fill="white"/> <path d="M18.9 7.98988C14.45 6.50988 9.54002 6.50988 5.09002 7.98988C4.70002 8.11988 4.49002 8.54988 4.62002 8.93988C4.75002 9.32988 5.18002 9.54988 5.57002 9.40988C5.79002 9.33988 6.02002 9.27988 6.25002 9.20988V15.3899C6.25002 15.7999 6.59002 16.1399 7.00002 16.1399C7.41002 16.1399 7.75002 15.7999 7.75002 15.3899V8.82988C10.55 8.23988 13.45 8.23988 16.25 8.82988V15.6399C16.25 16.0499 16.59 16.3899 17 16.3899C17.41 16.3899 17.75 16.0499 17.75 15.6399V9.20988C17.98 9.27988 18.21 9.32988 18.43 9.40988C18.51 9.43988 18.59 9.44988 18.67 9.44988C18.98 9.44988 19.28 9.24988 19.38 8.93988C19.51 8.54988 19.3 8.11988 18.91 7.98988H18.9Z" fill="white"/> </g> <defs> <clipPath id="clip0_2085_384503"> <rect width="24" height="24" fill="white"/> </clipPath> </defs> </svg>
