<svg width="24" height="24" viewBox="0 0 24 24" fill="none" xmlns="http://www.w3.org/2000/svg"> <g clip-path="url(#clip0_2085_393890)"> <path d="M5.33 2H3.11C2.49696 2 2 2.49696 2 3.11V5.33C2 5.94304 2.49696 6.44 3.11 6.44H5.33C5.94304 6.44 6.44 5.94304 6.44 5.33V3.11C6.44 2.49696 5.94304 2 5.33 2Z" fill="white"/> <path d="M6.27011 11.0596H4.22011C3.60707 11.0596 3.11011 11.5565 3.11011 12.1696V14.2196C3.11011 14.8326 3.60707 15.3296 4.22011 15.3296H6.27011C6.88314 15.3296 7.38011 14.8326 7.38011 14.2196V12.1696C7.38011 11.5565 6.88314 11.0596 6.27011 11.0596Z" fill="white"/> <path d="M13.11 5.33008H10.89C10.277 5.33008 9.78003 5.82704 9.78003 6.44008V8.66008C9.78003 9.27311 10.277 9.77008 10.89 9.77008H13.11C13.7231 9.77008 14.22 9.27311 14.22 8.66008V6.44008C14.22 5.82704 13.7231 5.33008 13.11 5.33008Z" fill="white"/> <path d="M20.8899 8.67016H18.6699C18.0599 8.67016 17.5599 9.17016 17.5599 9.78016V13.1102H14.2299C13.6199 13.1102 13.1199 13.6102 13.1199 14.2202V17.5502H9.78993C9.17993 17.5502 8.67993 18.0502 8.67993 18.6602V20.8802C8.67993 21.4902 9.17993 21.9902 9.78993 21.9902H20.8999C21.5099 21.9902 22.0099 21.4902 22.0099 20.8802V9.77016C22.0099 9.16016 21.5099 8.66016 20.8999 8.66016L20.8899 8.67016Z" fill="white"/> </g> <defs> <clipPath id="clip0_2085_393890"> <rect width="24" height="24" fill="white"/> </clipPath> </defs> </svg>
