<svg width="24" height="24" viewBox="0 0 24 24" fill="none" xmlns="http://www.w3.org/2000/svg"> <g clip-path="url(#clip0_2085_388611)"> <path d="M9.76012 15.7699C9.76012 17.7099 8.20012 19.2699 6.26012 19.2699C4.97012 19.2699 3.84012 18.5699 3.24012 17.5199C3.20012 17.4499 3.15012 17.3699 3.12012 17.2899C3.59012 16.5199 4.18012 15.7999 4.88012 15.1799C5.82012 14.3499 6.93012 13.6899 8.15012 13.2399C8.28012 13.1899 8.40012 13.1499 8.53012 13.1099C9.29012 13.7499 9.76012 14.7099 9.76012 15.7699Z" fill="white"/> <path d="M20.61 16.8802C20.2 17.1002 19.74 17.2102 19.25 17.2102C17.6 17.2102 16.27 15.8802 16.27 14.2302C16.27 13.9702 16.3 13.7102 16.38 13.4702C17.39 13.8902 18.32 14.4702 19.12 15.1802C19.69 15.6902 20.2 16.2602 20.61 16.8802Z" fill="white"/> <path d="M16.2299 20.6999C16.2299 20.9899 16.1799 21.2599 16.0899 21.5099H11.2599C11.1699 21.2599 11.1299 20.9899 11.1299 20.6999C11.1299 19.2899 12.2699 18.1499 13.6799 18.1499C15.0899 18.1499 16.2299 19.2899 16.2299 20.6999Z" fill="white"/> <path d="M12.0001 14.0601C13.1501 14.0601 14.2701 14.2601 15.3101 14.6401C15.4501 14.7001 15.5901 14.7501 15.6801 14.8001L15.7401 14.8301L15.8001 14.8601C16.6601 15.2201 17.4401 15.7101 18.1201 16.3001C18.6201 16.7501 19.0401 17.2201 19.3601 17.7101V17.7301L19.3901 17.7501C19.6001 18.0501 19.7901 18.3701 19.9401 18.7201C20.1401 19.1401 20.2901 19.5701 20.3901 20.0201H3.6101C3.7101 19.5801 3.8701 19.1401 4.0701 18.7001C4.1601 18.5001 4.2801 18.2801 4.4001 18.0801C4.8101 17.4101 5.3001 16.8201 5.8701 16.3101C6.6801 15.6001 7.6201 15.0401 8.6901 14.6501C8.7901 14.6101 8.8801 14.5801 9.0101 14.5401C9.9501 14.2301 10.9601 14.0701 12.0101 14.0701M12.0001 12.5601C10.8201 12.5601 9.6401 12.7401 8.5301 13.1101C8.4001 13.1501 8.2801 13.1901 8.1501 13.2401C6.9301 13.6901 5.8201 14.3501 4.8801 15.1801C4.1801 15.8001 3.5901 16.5201 3.1201 17.2901C2.9701 17.5501 2.8201 17.8101 2.7001 18.0801C2.3501 18.8301 2.1201 19.6001 2.0101 20.3901C1.9201 21.0101 2.4301 21.5101 3.0501 21.5101H20.9501C21.5701 21.5101 22.0801 21.0101 21.9901 20.3901C21.8801 19.6001 21.6501 18.8301 21.3001 18.0801C21.1101 17.6601 20.8801 17.2601 20.6101 16.8801C20.2001 16.2601 19.6901 15.6901 19.1201 15.1801C18.3201 14.4701 17.3901 13.8901 16.3801 13.4701C16.2101 13.3801 16.0301 13.3101 15.8501 13.2401C14.6301 12.7901 13.3201 12.5601 12.0001 12.5601Z" fill="white"/> <path d="M17.3699 3.03024C17.1399 2.90024 16.7799 2.89024 16.5499 3.03024C15.6399 3.55024 14.5099 3.55024 13.5999 3.03024L13.4899 2.97024C12.2499 2.26024 10.7499 2.17024 9.42993 2.68024L9.37993 2.38024C9.30993 1.97024 8.91993 1.69024 8.51993 1.76024C8.10993 1.83024 7.83993 2.22024 7.89993 2.62024L9.57993 12.6902C9.63993 13.0602 9.95993 13.3202 10.3199 13.3202C10.3599 13.3202 10.3999 13.3202 10.4399 13.3202C10.8499 13.2502 11.1199 12.8602 11.0599 12.4602L10.4099 8.59024C10.9999 8.22024 11.7299 8.18024 12.3399 8.53024L12.7799 8.78024C13.4899 9.18024 14.2799 9.39024 15.0699 9.39024C15.8599 9.39024 16.6499 9.19024 17.3499 8.79024C17.5899 8.66024 17.7699 8.34024 17.7699 8.07024V3.74024C17.7699 3.45024 17.6099 3.17024 17.3599 3.03024H17.3699Z" fill="white"/> </g> <defs> <clipPath id="clip0_2085_388611"> <rect width="24" height="24" fill="white"/> </clipPath> </defs> </svg>
