<svg width="24" height="24" viewBox="0 0 24 24" fill="none" xmlns="http://www.w3.org/2000/svg"> <g clip-path="url(#clip0_2085_384102)"> <path d="M18.9199 4.71005C17.6199 3.41005 15.9899 2.48005 14.2099 2.02005C13.9799 1.96005 13.7299 2.03005 13.5699 2.21005C13.4099 2.39005 13.3699 2.64005 13.4599 2.87005C14.9499 5.91005 14.3699 9.57004 11.9999 12C9.56991 14.38 5.90991 14.96 2.86991 13.46C2.64991 13.37 2.38991 13.41 2.20991 13.57C2.02991 13.73 1.95991 13.99 2.02991 14.22C2.13991 14.67 2.27991 15.1 2.45991 15.52C2.71991 16.16 3.03991 16.77 3.40991 17.34C3.78991 17.91 4.21991 18.44 4.70991 18.93C8.62991 22.95 15.0799 23.04 19.1099 19.11C21.0399 17.13 21.9999 14.56 21.9999 12C21.9999 9.44004 20.9699 6.70005 18.9199 4.71005Z" fill="white"/> </g> <defs> <clipPath id="clip0_2085_384102"> <rect width="24" height="24" fill="white"/> </clipPath> </defs> </svg>
