<svg width="24" height="24" viewBox="0 0 24 24" fill="none" xmlns="http://www.w3.org/2000/svg"> <g clip-path="url(#clip0_2085_389332)"> <path d="M19.4701 2.5398H18.7901C18.5101 1.8098 17.8001 1.2998 16.9801 1.2998H13.2501C12.7701 1.2998 12.3401 1.4798 12.0001 1.7598C11.6701 1.4698 11.2301 1.2998 10.7501 1.2998H7.02008C6.20008 1.2998 5.48008 1.8198 5.20008 2.5398H4.53008C3.46008 2.5398 2.58008 3.4098 2.58008 4.4898C2.58008 5.5698 3.45008 6.43981 4.53008 6.43981C5.61008 6.43981 6.48008 5.5698 6.48008 4.4898V3.2498C6.48008 2.9598 6.72008 2.7098 7.02008 2.7098H10.7501C11.0501 2.7098 11.2901 2.9498 11.3001 3.2398C11.3001 3.2398 11.3001 3.2498 11.3001 3.2598C11.3001 3.2598 11.3001 3.2698 11.3001 3.2798V4.5098C11.3001 4.5798 11.3101 4.6498 11.3301 4.7098C10.9801 4.9298 10.7501 5.3098 10.7501 5.7498V10.7298C10.7501 11.1698 10.9801 11.5598 11.3301 11.7798C11.3101 11.8398 11.3001 11.9098 11.3001 11.9798V14.3198L10.3101 16.0298C10.1401 16.3198 10.0501 16.6598 10.0501 16.9998C10.0501 17.5998 10.3301 18.1398 10.7601 18.4998C10.3201 18.9498 10.0501 19.6098 10.0501 20.2598C10.0501 20.8398 9.58008 21.3198 8.99008 21.3198H8.26008C7.87008 21.3198 7.56008 21.6298 7.56008 22.0198C7.56008 22.4098 7.87008 22.7198 8.26008 22.7198H8.99008C10.3501 22.7198 11.4501 21.6198 11.4501 20.2598C11.4501 19.9598 11.5701 19.6598 11.7601 19.4698L11.9901 19.2398L12.2201 19.4698C12.4101 19.6598 12.5301 19.9698 12.5301 20.2598C12.5301 21.6198 13.6401 22.7198 14.9901 22.7198H15.7201C16.1101 22.7198 16.4201 22.4098 16.4201 22.0198C16.4201 21.6298 16.1101 21.3198 15.7201 21.3198H14.9901C14.4101 21.3198 13.9301 20.8498 13.9301 20.2598C13.9301 19.5998 13.6701 18.9498 13.2301 18.4998C13.6601 18.1398 13.9401 17.5998 13.9401 16.9998C13.9401 16.6598 13.8501 16.3198 13.6801 16.0298L12.6901 14.3198V11.9798C12.6901 11.9098 12.6801 11.8398 12.6601 11.7798C13.0001 11.5598 13.2301 11.1698 13.2301 10.7298V5.7498C13.2301 5.3098 13.0001 4.9298 12.6601 4.7098C12.6801 4.6498 12.6901 4.5798 12.6901 4.5098V3.2798C12.6901 3.2798 12.6901 3.2798 12.6901 3.2698C12.6901 2.9698 12.9301 2.7298 13.2301 2.7298H16.9601C17.2601 2.7298 17.5001 2.9698 17.5001 3.2698V4.5198C17.5001 5.5898 18.3701 6.4698 19.4501 6.4698C20.5301 6.4698 21.4001 5.5998 21.4001 4.5198C21.4001 3.4398 20.5301 2.5698 19.4501 2.5698L19.4701 2.5398Z" fill="white"/> </g> <defs> <clipPath id="clip0_2085_389332"> <rect width="24" height="24" fill="white"/> </clipPath> </defs> </svg>
