<svg width="24" height="24" viewBox="0 0 24 24" fill="none" xmlns="http://www.w3.org/2000/svg"> <g clip-path="url(#clip0_4482_4719)"> <path d="M9 17C9.55228 17 10 16.5523 10 16C10 15.4477 9.55228 15 9 15C8.44772 15 8 15.4477 8 16C8 16.5523 8.44772 17 9 17Z" fill="white"/> <path d="M13 2H5C3.35 2 2 3.35 2 5V19C2 20.65 3.35 22 5 22H13C14.39 22 15.57 21.04 15.9 19.74C15.97 19.5 16 19.25 16 19V5C16 3.35 14.65 2 13 2ZM9 19.5C7.07 19.5 5.5 17.93 5.5 16C5.5 14.07 7.07 12.5 9 12.5C10.93 12.5 12.5 14.07 12.5 16C12.5 17.93 10.93 19.5 9 19.5ZM13 9C13 9.55 12.55 10 12 10C11.59 10 11.25 9.66 11.25 9.25V8C11.25 7.59 10.91 7.25 10.5 7.25C10.09 7.25 9.75 7.59 9.75 8V9.25C9.75 9.66 9.41 10 9 10C8.59 10 8.25 9.66 8.25 9.25V8C8.25 7.59 7.91 7.25 7.5 7.25C7.09 7.25 6.75 7.59 6.75 8V9.25C6.75 9.66 6.41 10 6 10C5.45 10 5 9.55 5 9V6C5 5.45 5.45 5 6 5H12C12.55 5 13 5.45 13 6V9Z" fill="white"/> <path d="M20.7499 11V17C20.7499 18.52 19.5199 19.75 17.9999 19.75H15.9999C15.9699 19.75 15.9299 19.75 15.8999 19.74C15.9699 19.5 15.9999 19.25 15.9999 19V18.25H17.9999C18.6899 18.25 19.2499 17.69 19.2499 17V11C19.2499 10.59 19.5899 10.25 19.9999 10.25C20.4099 10.25 20.7499 10.59 20.7499 11Z" fill="white"/> <path d="M19.85 11H20.14C20.77 11 21.3 10.53 21.38 9.91L21.69 7.41C21.78 6.66 21.2 6 20.45 6H19.53C18.78 6 18.2 6.66 18.29 7.41L18.6 9.91C18.69 10.53 19.22 11 19.85 11Z" fill="white"/> <path d="M20 6.75C19.59 6.75 19.25 6.41 19.25 6V3C19.25 2.59 19.59 2.25 20 2.25C20.41 2.25 20.75 2.59 20.75 3V6C20.75 6.41 20.41 6.75 20 6.75Z" fill="white"/> </g> <defs> <clipPath id="clip0_4482_4719"> <rect width="24" height="24" fill="white"/> </clipPath> </defs> </svg>
