<svg width="24" height="24" viewBox="0 0 24 24" fill="none" xmlns="http://www.w3.org/2000/svg"> <g clip-path="url(#clip0_4482_10799)"> <path d="M12 2C6.48 2 2 6.48 2 12C2 17.52 6.48 22 12 22C17.52 22 22 17.52 22 12C22 6.48 17.52 2 12 2ZM14.72 15.24C13.25 16.68 11 16.82 9.37 15.67C9.35 15.69 9.35 15.71 9.33 15.73L8.08 16.98C7.93 17.13 7.74 17.2 7.55 17.2C7.36 17.2 7.16 17.13 7.02 16.98C6.73 16.69 6.73 16.21 7.02 15.92L8.27 14.67C8.27 14.67 8.31 14.65 8.33 14.63C7.84 13.94 7.56 13.11 7.55 12.24C7.55 11.13 7.97 10.06 8.75 9.27C10.2 7.82 12.59 7.35 15.39 7.62C15.91 7.67 16.31 8.08 16.37 8.6C16.64 11.4 16.17 13.79 14.72 15.24Z" fill="white"/> </g> <defs> <clipPath id="clip0_4482_10799"> <rect width="24" height="24" fill="white"/> </clipPath> </defs> </svg>
