<svg width="24" height="24" viewBox="0 0 24 24" fill="none" xmlns="http://www.w3.org/2000/svg"> <g clip-path="url(#clip0_2085_389185)"> <path d="M18.27 11.3799V11.8699C18.27 12.4199 17.82 12.8699 17.27 12.8699H14.2C13.65 12.8699 13.2 12.4199 13.2 11.8699V11.1299C13.2 10.5799 13.65 10.1299 14.2 10.1299H17.02C17.71 10.1299 18.27 10.6899 18.27 11.3799Z" fill="white"/> <path d="M22.0001 12.1299H16.8401C16.4301 12.1299 16.0901 11.7899 16.0901 11.3799C16.0901 10.9699 16.4301 10.6299 16.8401 10.6299H22.0001C22.4101 10.6299 22.7501 10.9699 22.7501 11.3799C22.7501 11.7899 22.4101 12.1299 22.0001 12.1299Z" fill="white"/> <path d="M20.23 13.8701H13.61C13.34 13.8701 13.09 13.9801 12.9 14.1601L11.95 15.1101H2V18.0901C2 19.2001 2.9 20.0901 4 20.0901H17.13C17.84 20.0901 18.49 19.7201 18.85 19.1201L21.09 15.3801C21.49 14.7201 21.01 13.8701 20.23 13.8701ZM11.96 18.9701C11.39 18.9701 10.91 18.6401 10.71 18.1601C10.51 18.6401 10.03 18.9701 9.47 18.9701C8.91 18.9701 8.42 18.6401 8.22 18.1601C8.02 18.6401 7.54 18.9701 6.98 18.9701C6.42 18.9701 5.94 18.6401 5.74 18.1601C5.53 18.6401 5.05 18.9701 4.49 18.9701C3.73 18.9701 3.12 18.3601 3.12 17.6001C3.12 16.8401 3.73 16.2301 4.49 16.2301C5.05 16.2301 5.53 16.5601 5.74 17.0401C5.94 16.5601 6.42 16.2301 6.98 16.2301C7.54 16.2301 8.02 16.5601 8.23 17.0401C8.43 16.5601 8.91 16.2301 9.47 16.2301C10.03 16.2301 10.51 16.5601 10.72 17.0401C10.92 16.5601 11.4 16.2301 11.96 16.2301C12.72 16.2301 13.33 16.8401 13.33 17.6001C13.33 18.3601 12.72 18.9701 11.96 18.9701ZM17.02 17.1101H15.78C15.37 17.1101 15.03 16.7701 15.03 16.3601C15.03 15.9501 15.37 15.6101 15.78 15.6101H17.02C17.43 15.6101 17.77 15.9501 17.77 16.3601C17.77 16.7701 17.43 17.1101 17.02 17.1101Z" fill="white"/> <path d="M9.47 13.6201V15.1101H2V12.6201H8.47C9.02 12.6201 9.47 13.0701 9.47 13.6201Z" fill="white"/> <path d="M14.45 10.8796C14.04 10.8796 13.7 10.5396 13.7 10.1296V7.63965C13.7 7.22965 14.04 6.88965 14.45 6.88965C14.86 6.88965 15.2 7.22965 15.2 7.63965V10.1296C15.2 10.5396 14.86 10.8796 14.45 10.8796Z" fill="white"/> <path d="M5.23999 3.91016V7.64016H3.99999C3.90999 7.64016 3.81999 7.65016 3.73999 7.66016V3.91016C3.73999 3.49016 4.07999 3.16016 4.48999 3.16016C4.89999 3.16016 5.23999 3.49016 5.23999 3.91016Z" fill="white"/> <path d="M6.98 5.90039H2C1.59 5.90039 1.25 5.56039 1.25 5.15039C1.25 4.74039 1.59 4.40039 2 4.40039H6.98C7.39 4.40039 7.73 4.74039 7.73 5.15039C7.73 5.56039 7.39 5.90039 6.98 5.90039Z" fill="white"/> <path d="M4.49 10.8796C4.08 10.8796 3.74 10.5396 3.74 10.1296C3.74 9.71965 4.08 9.37965 4.49 9.37965H6.98V8.63965C6.98 8.08965 6.53 7.63965 5.98 7.63965H4C3.91 7.63965 3.82 7.64965 3.74 7.65965C2.76 7.78965 2 8.62965 2 9.63965V12.6196H6.98V10.8796H4.49Z" fill="white"/> <path d="M7.72998 10.1299C7.72998 9.71988 7.38998 9.37988 6.97998 9.37988V10.8799C7.38998 10.8799 7.72998 10.5399 7.72998 10.1299Z" fill="white"/> </g> <defs> <clipPath id="clip0_2085_389185"> <rect width="24" height="24" fill="white"/> </clipPath> </defs> </svg>
