<svg width="24" height="24" viewBox="0 0 24 24" fill="none" xmlns="http://www.w3.org/2000/svg"> <g clip-path="url(#clip0_2085_393139)"> <path d="M21.5299 16.6403L20.5799 9.42026C20.3599 7.78026 18.8599 6.62026 17.2099 6.84026L5.0599 8.44025C3.4199 8.66025 2.2599 10.1603 2.4799 11.8103L3.4299 19.0303C3.6499 20.6703 5.1499 21.8303 6.7999 21.6103L18.9499 20.0103C20.5899 19.7903 21.7499 18.2903 21.5299 16.6403ZM5.6399 18.3303C5.6399 18.3303 5.5699 18.3303 5.5399 18.3303C5.1699 18.3303 4.8499 18.0603 4.7999 17.6803L4.1499 12.7403C4.0999 12.3303 4.3799 11.9503 4.7999 11.9003C5.2099 11.8503 5.5899 12.1303 5.6399 12.5503L6.2899 17.4903C6.3399 17.9003 6.0599 18.2803 5.6399 18.3303ZM11.0749 16.6037C10.8261 16.8043 10.4918 16.8477 10.1999 16.7175C9.33012 16.3295 7.54083 15.3723 7.3599 14.0003C7.2399 13.0903 7.8799 12.2603 8.7899 12.1403C9.2799 12.0803 9.7499 12.2403 10.0999 12.5503C10.3599 12.1603 10.7599 11.8903 11.2599 11.8203C12.1699 11.7003 12.9999 12.3403 13.1199 13.2503C13.3008 14.6224 11.8164 16.0058 11.0749 16.6037ZM18.5799 16.3603C18.2499 16.5803 17.8699 16.7203 17.4599 16.7803C17.3499 16.8003 17.2299 16.8003 17.1199 16.8003C16.7699 16.8003 16.4199 16.7203 16.0999 16.5703C15.2999 16.1903 14.8299 15.6003 14.7299 14.8103L14.2799 11.4103C14.2299 11.0003 14.5099 10.6203 14.9299 10.5703C15.3399 10.5203 15.7199 10.8003 15.7699 11.2203L16.2199 14.6203C16.2499 14.8503 16.3499 15.0303 16.7399 15.2203C16.8999 15.3003 17.0799 15.3203 17.2699 15.3003C17.4499 15.2803 17.5999 15.2203 17.7399 15.1303C18.1699 14.8403 18.1999 14.5803 18.1699 14.3703L17.7199 10.9803C17.6699 10.5703 17.9599 10.1903 18.3699 10.1403C18.7799 10.0903 19.1599 10.3803 19.2099 10.7903L19.6599 14.1803C19.7699 15.0503 19.3899 15.8303 18.5899 16.3803L18.5799 16.3603Z" fill="white"/> <path d="M13.58 3.66C13.58 2.74 12.84 2 11.92 2C11 2 10.26 2.74 10.26 3.66C10.26 4.58 11 5.32 11.92 5.32C12.84 5.32 13.58 4.58 13.58 3.66Z" fill="white"/> <path d="M11.9199 9.89031C11.5099 9.89031 11.1699 9.55031 11.1699 9.14031V5.32031C11.1699 4.91031 11.5099 4.57031 11.9199 4.57031C12.3299 4.57031 12.6699 4.91031 12.6699 5.32031V9.14031C12.6699 9.55031 12.3299 9.89031 11.9199 9.89031Z" fill="white"/> </g> <defs> <clipPath id="clip0_2085_393139"> <rect width="24" height="24" fill="white"/> </clipPath> </defs> </svg>
