<svg width="24" height="24" viewBox="0 0 24 24" fill="none" xmlns="http://www.w3.org/2000/svg"> <g clip-path="url(#clip0_2085_384504)"> <path d="M18.96 17.38V18.31C18.96 18.7 18.72 19.06 18.36 19.22L12.4 21.83C12.15 21.94 11.86 21.94 11.6 21.83L5.64004 19.22C5.28004 19.06 5.04004 18.7 5.04004 18.31V17.38L11.65 15.73L11.81 15.69C11.94 15.66 12.07 15.66 12.2 15.69L18.96 17.38Z" fill="white"/> <path d="M14.61 9.20984C14.61 9.58984 14.4 9.93984 14.06 10.1098L12.45 10.9098C12.17 11.0498 11.84 11.0498 11.56 10.9098L9.95005 10.1098C9.61005 9.93984 9.40005 9.58984 9.40005 9.20984V9.00984C9.40005 8.91596 9.32394 8.83984 9.23005 8.83984H5.05005V16.3498L11.52 14.7298C11.52 14.7298 11.55 14.7198 11.57 14.7198C11.86 14.6498 12.16 14.6498 12.45 14.7198C12.47 14.7198 12.48 14.7298 12.5 14.7298L18.97 16.3498V8.83984H14.79C14.6962 8.83984 14.62 8.91596 14.62 9.00984V9.20984H14.61ZM10.14 13.2998C10.14 13.7098 9.80005 14.0498 9.39005 14.0498C8.98005 14.0498 8.64005 13.7098 8.64005 13.2998V12.4298C8.64005 12.0198 8.98005 11.6798 9.39005 11.6798C9.80005 11.6798 10.14 12.0198 10.14 12.4298V13.2998ZM15.36 12.4298V13.2998C15.36 13.7098 15.02 14.0498 14.61 14.0498C14.2 14.0498 13.86 13.7098 13.86 13.2998V12.4298C13.86 12.0198 14.2 11.6798 14.61 11.6798C15.02 11.6798 15.36 12.0198 15.36 12.4298Z" fill="white"/> <path d="M17.76 4.52006L12.8 2.35006C12.29 2.13006 11.71 2.13006 11.2 2.35006L6.24004 4.52006C5.51004 4.83006 5.04004 5.55006 5.04004 6.35006V7.34006H9.22004C9.31393 7.34006 9.39004 7.26395 9.39004 7.17006V6.97006C9.39004 6.59006 9.60004 6.25006 9.94004 6.08006L11.55 5.27006C11.83 5.13006 12.16 5.13006 12.45 5.27006L14.06 6.08006C14.4 6.25006 14.61 6.60006 14.61 6.97006V7.17006C14.61 7.26395 14.6862 7.34006 14.78 7.34006H18.96V6.35006C18.96 5.55006 18.49 4.83006 17.76 4.52006Z" fill="white"/> <path d="M3 12.75C2.59 12.75 2.25 12.41 2.25 12V8C2.25 7.59 2.59 7.25 3 7.25C3.41 7.25 3.75 7.59 3.75 8V12C3.75 12.41 3.41 12.75 3 12.75Z" fill="white"/> <path d="M21 12.75C20.59 12.75 20.25 12.41 20.25 12V8C20.25 7.59 20.59 7.25 21 7.25C21.41 7.25 21.75 7.59 21.75 8V12C21.75 12.41 21.41 12.75 21 12.75Z" fill="white"/> </g> <defs> <clipPath id="clip0_2085_384504"> <rect width="24" height="24" fill="white"/> </clipPath> </defs> </svg>
