<svg width="24" height="24" viewBox="0 0 24 24" fill="none" xmlns="http://www.w3.org/2000/svg"> <g clip-path="url(#clip0_4482_9461)"> <path d="M22 13.31C22 12.74 21.78 12.23 21.41 11.85C21.05 11.48 20.55 11.25 20 11.25C19.45 11.25 18.95 11.48 18.59 11.85C18.22 12.23 18 12.74 18 13.31C18 13.88 17.78 14.39 17.41 14.77C17.05 15.14 16.55 15.37 16 15.37H8C6.9 15.37 6 14.45 6 13.31C6 12.74 5.78 12.23 5.41 11.85C5.05 11.48 4.55 11.25 4 11.25C3.45 11.25 2.95 11.48 2.59 11.85C2.22 12.23 2 12.74 2 13.31C2 15.02 2.67 16.57 3.76 17.69C3.91 17.85 4.08 18 4.25 18.14V20.25C4.25 20.66 4.59 21 5 21C5.41 21 5.75 20.66 5.75 20.25V19.05C6.44 19.34 7.2 19.5 8 19.5H16C16.8 19.5 17.55 19.34 18.25 19.05V20.25C18.25 20.66 18.59 21 19 21C19.41 21 19.75 20.66 19.75 20.25V18.14C21.12 17.01 22 15.27 22 13.31Z" fill="white"/> <path d="M6.13 11.15C6.69 11.73 7 12.49 7 13.31C7 13.89 7.45 14.37 8 14.37H16C16.26 14.37 16.51 14.26 16.69 14.07C16.89 13.86 17 13.6 17 13.31C17 12.5 17.31 11.73 17.87 11.15C18.44 10.57 19.22 10.28 20 10.28V7.13C20 4.85 18.21 3 16 3H8C5.79 3 4 4.85 4 7.13V10.28C4.78 10.28 5.56 10.57 6.13 11.15Z" fill="white"/> </g> <defs> <clipPath id="clip0_4482_9461"> <rect width="24" height="24" fill="white"/> </clipPath> </defs> </svg>
