<svg width="24" height="24" viewBox="0 0 24 24" fill="none" xmlns="http://www.w3.org/2000/svg"> <g clip-path="url(#clip0_2085_388616)"> <path d="M16.7899 12.9C16.9499 13.23 17.0399 13.39 16.9799 13.55C16.9299 13.7 16.7699 13.78 16.4299 13.95L15.8599 14.24C15.6799 14.33 15.5899 14.38 15.5399 14.45C15.4799 14.52 15.4599 14.62 15.4299 14.81L15.3199 15.41C15.2499 15.77 15.2199 15.95 15.0799 16.05C14.9499 16.14 14.7599 16.11 14.3799 16.06L13.7399 15.98C13.5399 15.95 13.4399 15.94 13.3499 15.97C13.2599 15.99 13.1899 16.06 13.0399 16.19L12.5799 16.62C12.2999 16.87 12.1699 17 11.9999 17C11.8299 17 11.6999 16.87 11.4199 16.62L10.9599 16.19C10.8099 16.06 10.7399 15.99 10.6499 15.97C10.5599 15.94 10.4599 15.95 10.2599 15.98L9.61992 16.06C9.23992 16.11 9.04992 16.14 8.91992 16.05C8.77992 15.95 8.74992 15.77 8.67992 15.41L8.56992 14.81C8.53992 14.62 8.51992 14.52 8.45992 14.45C8.40992 14.38 8.31992 14.33 8.13992 14.24L7.56992 13.95C7.22992 13.78 7.06992 13.7 7.01992 13.55C6.95992 13.39 7.04992 13.23 7.20992 12.9L7.49992 12.35C7.58992 12.18 7.62992 12.09 7.62992 12C7.62992 11.91 7.58992 11.82 7.49992 11.65L7.20992 11.1C7.04992 10.77 6.95992 10.61 7.01992 10.45C7.06992 10.3 7.22992 10.22 7.56992 10.05L8.13992 9.76C8.31992 9.67 8.40992 9.62 8.45992 9.55C8.51992 9.48 8.53992 9.38 8.56992 9.19L8.67992 8.59C8.74992 8.23 8.77992 8.05 8.91992 7.95C9.04992 7.86 9.23992 7.89 9.61992 7.94L10.2599 8.02C10.4599 8.05 10.5599 8.06 10.6499 8.04C10.7399 8.01 10.8099 7.94 10.9599 7.81L11.4199 7.38C11.6999 7.13 11.8299 7 11.9999 7C12.1699 7 12.2999 7.13 12.5799 7.38L13.0399 7.81C13.1899 7.94 13.2599 8.01 13.3499 8.04C13.4399 8.06 13.5399 8.05 13.7399 8.02L14.3799 7.94C14.7599 7.89 14.9499 7.86 15.0799 7.95C15.2199 8.05 15.2499 8.23 15.3199 8.59L15.4299 9.19C15.4599 9.38 15.4799 9.48 15.5399 9.55C15.5899 9.62 15.6799 9.67 15.8599 9.76L16.4299 10.05C16.7699 10.22 16.9299 10.3 16.9799 10.45C17.0399 10.61 16.9499 10.77 16.7899 11.1L16.4999 11.65C16.4099 11.82 16.3699 11.91 16.3699 12C16.3699 12.09 16.4099 12.18 16.4999 12.35L16.7899 12.9Z" fill="white"/> <path d="M12 22.7502C6.07 22.7502 1.25 17.9302 1.25 12.0002C1.25 9.88023 1.87 7.82023 3.04 6.06023C3.27 5.71023 3.73 5.62023 4.08 5.85023C4.42 6.08023 4.52 6.54023 4.29 6.89023C3.29 8.40023 2.75 10.1702 2.75 11.9902C2.75 17.0902 6.9 21.2402 12 21.2402C13.83 21.2402 15.59 20.7102 17.1 19.7102C17.44 19.4802 17.91 19.5702 18.14 19.9202C18.37 20.2702 18.28 20.7302 17.93 20.9602C16.17 22.1302 14.12 22.7502 12 22.7502ZM20.35 18.2502C20.21 18.2502 20.07 18.2102 19.94 18.1302C19.59 17.9002 19.5 17.4402 19.73 17.0902C20.73 15.5702 21.26 13.8102 21.26 12.0002C21.26 6.90023 17.11 2.75023 12.01 2.75023C10.18 2.75023 8.42 3.28023 6.91 4.28023C6.57 4.51023 6.1 4.42023 5.87 4.07023C5.64 3.72023 5.73 3.26023 6.08 3.03023C7.84 1.86023 9.89 1.24023 12.01 1.24023C17.94 1.24023 22.76 6.06023 22.76 11.9902C22.76 14.0902 22.15 16.1402 20.99 17.9002C20.85 18.1202 20.61 18.2402 20.36 18.2402L20.35 18.2502Z" fill="white"/> <path d="M21 19C21 20.1 20.11 21 19 21C18.41 21 17.88 20.75 17.52 20.34C17.2 19.99 17 19.52 17 19C17 17.9 17.89 17 19 17C20.11 17 21 17.9 21 19Z" fill="white"/> <path d="M7 5C7 6.1 6.11 7 5 7C4.48 7 4.01 6.8 3.66 6.48C3.25 6.12 3 5.59 3 5C3 3.9 3.89 3 5 3C5.59 3 6.12 3.25 6.48 3.66C6.8 4.01 7 4.48 7 5Z" fill="white"/> </g> <defs> <clipPath id="clip0_2085_388616"> <rect width="24" height="24" fill="white"/> </clipPath> </defs> </svg>
