<svg width="24" height="24" viewBox="0 0 24 24" fill="none" xmlns="http://www.w3.org/2000/svg"> <g clip-path="url(#clip0_2085_383971)"> <path d="M19.6309 14.1111C19.6706 14.0418 19.7799 14.0695 19.7799 14.1494C19.7799 18.5694 16.1999 22.0001 11.7799 22.0001H11.3169C11.1221 22.0001 11.0344 21.739 11.1796 21.609C11.9994 20.8746 12.5978 19.898 12.8499 18.7801L12.8787 18.6508C12.8973 18.5668 12.9679 18.5043 13.0534 18.494C15.8741 18.1544 18.2796 16.4691 19.6309 14.1111Z" fill="white"/> <path d="M18.5087 5.52386C18.5298 5.5564 18.4832 5.59997 18.4499 5.58C18.3399 5.52 18.2399 5.46 18.1799 5.43C17.9699 5.31 17.7599 5.22 17.5399 5.14C16.0199 4.59 14.3899 4.81 13.0699 5.74C12.7694 5.95254 12.4958 6.19731 12.2529 6.47036C12.12 6.61981 11.8798 6.61981 11.7468 6.47036C11.504 6.19731 11.2304 5.95254 10.9299 5.74C9.60989 4.81 7.97989 4.59 6.46989 5.14C6.23989 5.22 6.02989 5.31 5.85989 5.41C5.75989 5.46 5.65989 5.52 5.55989 5.58C5.51138 5.61234 5.46628 5.56747 5.49804 5.51857C6.87738 3.39464 9.27261 2 11.9999 2C14.7252 2 17.1284 3.40206 18.5087 5.52386Z" fill="white"/> <path fill-rule="evenodd" clip-rule="evenodd" d="M12.8232 7.4144C13.8067 6.58724 15.5296 5.48192 17.2002 6.08042C17.3699 6.14036 17.5297 6.21028 17.6895 6.30015C17.7694 6.34013 17.8497 6.38981 17.9297 6.43979C18.0296 6.49977 18.1295 6.57002 18.2295 6.63999C18.3595 6.72998 18.4701 6.83957 18.5801 6.94956C18.7 7.04949 18.7997 7.15974 18.8896 7.27964C18.9796 7.37958 19.0597 7.48979 19.1396 7.60972C19.2596 7.79964 19.37 7.98966 19.46 8.19956C19.5199 8.32947 19.5694 8.46982 19.6094 8.60972C19.6693 8.77963 19.7093 8.96983 19.7393 9.14976C19.7493 9.23975 19.7595 9.34003 19.7695 9.43003C19.7795 9.53987 19.7793 9.63974 19.7793 9.7396V9.77964C19.7793 14.0695 16.2999 17.5598 12 17.5599C7.7 17.5599 4.21973 14.0696 4.21973 9.77964V9.7396C4.21973 9.63975 4.21951 9.53986 4.22949 9.43003C4.23949 9.34003 4.24977 9.23975 4.25977 9.14976C4.28976 8.96981 4.32967 8.77966 4.38965 8.60972C4.42964 8.46978 4.48007 8.3295 4.54004 8.19956C4.63 7.98973 4.73946 7.79958 4.85938 7.60972C4.93937 7.48972 5.01938 7.37963 5.10938 7.27964C5.19937 7.15965 5.29993 7.04955 5.41992 6.94956C5.52978 6.8397 5.63971 6.72989 5.76953 6.63999C5.86946 6.57004 5.96941 6.49976 6.06934 6.43979C6.14927 6.38984 6.22964 6.34013 6.30957 6.30015C6.46954 6.21016 6.62984 6.14041 6.7998 6.08042C8.47022 5.48197 10.1923 6.58726 11.1758 7.4144C11.6378 7.803 12.3612 7.803 12.8232 7.4144ZM12.6602 11.4203C12.2902 11.0603 11.7001 11.0603 11.3301 11.4203L10.71 12.0501C10.42 12.3401 10.42 12.8197 10.71 13.1097C11 13.3997 11.4795 13.3997 11.7695 13.1097L12 12.8802L12.2295 13.1097C12.3795 13.2597 12.5698 13.3304 12.7598 13.3304C12.9498 13.3304 13.14 13.2597 13.29 13.1097C13.5797 12.8198 13.5797 12.3401 13.29 12.0501L12.6602 11.4203ZM6.91406 9.09018C6.70207 9.09018 6.50504 9.22302 6.47559 9.43296C6.46569 9.50354 6.45997 9.57595 6.45996 9.64976C6.45996 10.5797 7.20979 11.3293 8.13965 11.3294C9.06965 11.3294 9.82031 10.5798 9.82031 9.64976C9.82031 9.57056 9.8157 9.49443 9.80566 9.42026C9.77801 9.21592 9.58414 9.09019 9.37793 9.09018H6.91406ZM14.6641 9.09018C14.4521 9.09018 14.255 9.22302 14.2256 9.43296C14.2157 9.50354 14.21 9.57595 14.21 9.64976C14.21 10.5797 14.9598 11.3293 15.8896 11.3294C16.8196 11.3294 17.5703 10.5798 17.5703 9.64976C17.5703 9.57056 17.5657 9.49443 17.5557 9.42026C17.528 9.21592 17.3341 9.09019 17.1279 9.09018H14.6641Z" fill="white"/> <path d="M4.62998 14.5422C4.51635 14.3668 4.21997 14.4444 4.21997 14.6534V21.2651C4.21997 21.671 4.54904 22.0001 4.95497 22.0001C5.3609 22.0001 5.68997 21.671 5.68997 21.2651V18.6701C5.68997 18.2501 6.02997 17.9201 6.43997 17.9201C6.84997 17.9201 7.18997 18.2501 7.18997 18.6701V21.6301C7.18997 21.8344 7.35563 22.0001 7.55997 22.0001C9.57404 22.0001 11.2846 20.6479 11.8182 18.7993C11.8534 18.6771 11.76 18.5584 11.6329 18.553C8.69543 18.4275 6.13221 16.8617 4.62998 14.5422Z" fill="white"/> </g> <defs> <clipPath id="clip0_2085_383971"> <rect width="24" height="24" fill="white"/> </clipPath> </defs> </svg>
