<svg width="24" height="24" viewBox="0 0 24 24" fill="none" xmlns="http://www.w3.org/2000/svg"> <g clip-path="url(#clip0_4482_14968)"> <path d="M10.6104 12.75H7.83043C7.47697 12.75 7.19043 13.0365 7.19043 13.39V16.17C7.19043 16.5235 7.47697 16.81 7.83043 16.81H10.6104C10.9639 16.81 11.2504 16.5235 11.2504 16.17V13.39C11.2504 13.0365 10.9639 12.75 10.6104 12.75Z" fill="white"/> <path d="M13.3897 7.19043H10.6097C10.2563 7.19043 9.96973 7.47697 9.96973 7.83043V10.6104C9.96973 10.9639 10.2563 11.2504 10.6097 11.2504H13.3897C13.7432 11.2504 14.0297 10.9639 14.0297 10.6104V7.83043C14.0297 7.47697 13.7432 7.19043 13.3897 7.19043Z" fill="white"/> <path d="M17 2H7C4.24 2 2 4.24 2 7V17C2 19.76 4.24 22 7 22H17C19.76 22 22 19.76 22 17V7C22 4.24 19.76 2 17 2ZM18.31 16.17C18.31 17.35 17.35 18.31 16.17 18.31H13.39C12.86 18.31 12.38 18.11 12 17.78C11.63 18.1 11.14 18.31 10.61 18.31H7.83C6.65 18.31 5.69 17.35 5.69 16.17V13.39C5.69 12.21 6.65 11.25 7.83 11.25H8.58C8.52 11.05 8.47 10.84 8.47 10.61V7.83C8.47 6.65 9.43 5.69 10.61 5.69H13.39C14.57 5.69 15.53 6.65 15.53 7.83V10.61C15.53 10.83 15.49 11.05 15.42 11.25H16.17C17.35 11.25 18.31 12.21 18.31 13.39V16.17Z" fill="white"/> <path d="M16.17 12.75H13.39C13.0365 12.75 12.75 13.0365 12.75 13.39V16.17C12.75 16.5235 13.0365 16.81 13.39 16.81H16.17C16.5235 16.81 16.81 16.5235 16.81 16.17V13.39C16.81 13.0365 16.5235 12.75 16.17 12.75Z" fill="white"/> </g> <defs> <clipPath id="clip0_4482_14968"> <rect width="24" height="24" fill="white"/> </clipPath> </defs> </svg>
