<svg width="24" height="24" viewBox="0 0 24 24" fill="none" xmlns="http://www.w3.org/2000/svg"> <g clip-path="url(#clip0_2085_393409)"> <path d="M2.04991 11.5899C2.31991 13.1599 3.53991 14.2599 4.77991 14.0499C6.00991 13.8399 6.79991 12.3999 6.52991 10.8299C6.25991 9.2599 5.08991 8.4799 3.85991 8.6899C2.62991 8.8999 1.78991 10.0299 2.05991 11.5999L2.04991 11.5899Z" fill="white"/> <path d="M21.9499 11.5499C21.6799 13.1199 20.4599 14.2199 19.2199 14.0099C17.9899 13.7999 17.1999 12.3599 17.4699 10.7899C17.7399 9.21986 18.9099 8.43986 20.1399 8.64986C21.3699 8.85986 22.2099 9.98986 21.9399 11.5599L21.9499 11.5499Z" fill="white"/> <path d="M17.83 4.83037C17.67 6.43037 16.54 7.63037 15.31 7.50037C14.08 7.37037 13.22 5.96037 13.38 4.36037C13.54 2.76037 14.64 1.88037 15.87 2.02037C17.1 2.15037 18 3.24037 17.83 4.84037V4.83037Z" fill="white"/> <path d="M6.28992 4.83037C6.44992 6.43037 7.58992 7.63037 8.81992 7.50037C10.0499 7.37037 10.9199 5.96037 10.7499 4.36037C10.5899 2.76037 9.48992 1.88037 8.25992 2.02037C7.02992 2.15037 6.12992 3.24037 6.28992 4.84037V4.83037Z" fill="white"/> <path d="M12.0799 22.0004C15.2599 22.0004 17.6799 21.9504 17.6799 19.5204C17.6799 17.9304 14.6899 11.1504 12.0399 11.1504C9.3899 11.1504 6.3999 17.8904 6.3999 19.5204C6.3999 21.9504 8.8999 22.0004 12.0799 22.0004Z" fill="white"/> </g> <defs> <clipPath id="clip0_2085_393409"> <rect width="24" height="24" fill="white"/> </clipPath> </defs> </svg>
