<svg width="24" height="24" viewBox="0 0 24 24" fill="none" xmlns="http://www.w3.org/2000/svg"> <g clip-path="url(#clip0_2085_384509)"> <path d="M20.94 3.06C19.78 1.89 18.23 1.25 16.58 1.25C14.93 1.25 13.39 1.89 12.23 3.06L11.45 3.83C10.823 4.46641 10.6251 5.3393 10.8482 6.13719C10.8763 6.23768 10.853 6.34704 10.7792 6.42082L2.66 14.54C1.75 15.45 1.25 16.65 1.25 17.94C1.25 19.23 1.75 20.44 2.66 21.34C3.57 22.25 4.78 22.75 6.06 22.75C7.34 22.75 8.54 22.25 9.45 21.34L17.5805 13.2095C17.6536 13.1364 17.7617 13.1127 17.8613 13.1406C18.0679 13.1985 18.2758 13.23 18.49 13.23C19.1 13.23 19.7 13 20.18 12.53L20.94 11.76C22.11 10.6 22.75 9.05 22.75 7.41C22.75 5.77 22.11 4.22 20.94 3.06ZM14.45 7.74L15.68 6.51C16.16 6.03 17 6.03 17.49 6.51C17.73 6.75 17.87 7.07 17.87 7.41C17.87 7.75 17.74 8.07 17.49 8.31L16.26 9.54C15.59 10.21 15.59 11.3 16.26 11.97L16.3598 12.0698C16.4262 12.1362 16.4262 12.2438 16.3598 12.3102L11.1406 17.5294C11.0349 17.6351 10.8501 17.5628 10.8346 17.4141C10.7205 16.3227 10.2457 15.3068 9.46 14.53C8.67437 13.7444 7.66556 13.2696 6.5759 13.1554C6.42723 13.1399 6.35486 12.9551 6.46056 12.8494L11.6798 7.63021C11.7462 7.56382 11.8538 7.56382 11.9202 7.63021L12.02 7.73C12.69 8.4 13.78 8.4 14.45 7.73V7.74Z" fill="white"/> </g> <defs> <clipPath id="clip0_2085_384509"> <rect width="24" height="24" fill="white"/> </clipPath> </defs> </svg>
