<svg width="24" height="24" viewBox="0 0 24 24" fill="none" xmlns="http://www.w3.org/2000/svg"> <g clip-path="url(#clip0_4482_4624)"> <path d="M16.7999 17.0004H7.19992C5.86992 17.0004 5.0899 15.4904 5.8699 14.4104L9.01993 10.0004H8.15988C7.08988 10.0004 6.46994 8.79043 7.08994 7.93043L10.9299 2.55043C11.4599 1.82043 12.5499 1.82043 13.0699 2.55043L16.9099 7.93043C17.5299 8.79043 16.9099 10.0004 15.8399 10.0004H14.9799L18.1299 14.4104C18.9099 15.4904 18.1299 17.0004 16.7999 17.0004Z" fill="white"/> <path d="M12.75 17V22C12.75 22.41 12.41 22.75 12 22.75C11.59 22.75 11.25 22.41 11.25 22V17H12.75Z" fill="white"/> </g> <defs> <clipPath id="clip0_4482_4624"> <rect width="24" height="24" fill="white"/> </clipPath> </defs> </svg>
