<svg width="24" height="24" viewBox="0 0 24 24" fill="none" xmlns="http://www.w3.org/2000/svg"> <g clip-path="url(#clip0_2085_393461)"> <path d="M12.0199 4.58042V6.41042C10.1999 6.27042 8.6299 6.71042 7.3999 8.07042C7.6199 5.10042 9.4299 4.02042 10.7099 3.63042C11.3599 3.43042 12.0199 3.90042 12.0199 4.58042Z" fill="white"/> <path d="M5.49011 15.24C4.87473 15.7268 4.17498 16.4245 3.49936 17.3873C3.40498 17.5218 3.21122 17.5416 3.10113 17.4196C2.1139 16.326 1.55501 14.8948 2.63425 13.6213C2.72685 13.512 2.72654 13.3482 2.63363 13.2392C1.55492 11.9736 2.1144 10.5424 3.10195 9.44116C3.21165 9.31882 3.40555 9.33785 3.50041 9.47202C4.23517 10.5112 4.99243 11.2409 5.63012 11.74C5.35012 12.96 5.28011 14.02 5.49011 15.24Z" fill="white"/> <path d="M9.3801 19.43L9.2401 19.95L9.0001 20.88C8.8401 21.47 8.2001 21.79 7.6401 21.55L6.4901 21.05C5.7401 20.74 5.6601 19.71 6.3501 19.29L7.2101 18.75L7.8801 18.33C8.6501 17.85 9.6101 18.55 9.3801 19.43Z" fill="white"/> <path d="M14.38 8.71052C13.97 8.71052 13.63 8.37052 13.63 7.96052V6.71052C13.15 6.56052 12.61 6.45052 12.02 6.41052C10.2 6.27052 8.63002 6.71052 7.40002 8.07052C6.39002 9.19052 5.88002 10.6405 5.63002 11.7405C5.35002 12.9605 5.28002 14.0205 5.49002 15.2405C5.67002 16.3405 6.12002 17.7105 7.21002 18.7505L7.88002 18.3305C8.65002 17.8505 9.61002 18.5505 9.38002 19.4305L9.24002 19.9505C9.93002 20.1705 10.74 20.3005 11.68 20.3005C18.05 20.3005 19.53 16.5005 19.87 14.5205C19.98 13.9005 19.51 13.3405 18.88 13.3405H17.98C17.98 13.3405 17.98 9.39052 15.13 7.44052V7.97052C15.13 8.38052 14.79 8.72052 14.38 8.72052V8.71052Z" fill="white"/> <path d="M21.0401 4.90027C20.9601 2.73027 19.1001 1.28027 17.3501 1.28027C15.3001 1.28027 13.6401 2.96027 13.6401 5.04027V6.72027C14.1501 6.88027 14.6101 7.09027 15.0101 7.35027C15.0601 7.38027 15.1001 7.42027 15.1401 7.45027V5.05027C15.1401 3.83027 16.1501 2.79027 17.3501 2.79027C18.3601 2.79027 19.4801 3.67027 19.5501 4.93027C19.0201 5.21027 18.6501 5.75027 18.6501 6.39027C18.6501 7.31027 19.4001 8.05027 20.3101 8.05027C21.2201 8.05027 22.0101 7.31027 22.0101 6.39027C22.0101 5.74027 21.6101 5.18027 21.0501 4.91027L21.0401 4.90027Z" fill="white"/> </g> <defs> <clipPath id="clip0_2085_393461"> <rect width="24" height="24" fill="white"/> </clipPath> </defs> </svg>
