<svg width="24" height="24" viewBox="0 0 24 24" fill="none" xmlns="http://www.w3.org/2000/svg"> <g clip-path="url(#clip0_4482_13627)"> <path d="M10.3003 1.93945C9.84027 1.93945 9.46027 2.31945 9.46027 2.77945V7.35945C9.46027 8.37945 9.06027 9.31945 8.37027 9.94945C7.75027 10.4995 7.41027 11.2295 7.41027 11.9895V19.6295C7.41027 20.0095 7.10027 20.3295 6.71027 20.3295C6.32027 20.3295 6.01027 20.0195 6.01027 19.6295V11.9895C6.01027 11.2295 5.67027 10.5095 5.05027 9.94945C4.35027 9.32945 3.96027 8.37945 3.96027 7.35945V2.77945C3.96027 2.31945 3.58027 1.93945 3.12027 1.93945C2.66027 1.93945 2.28027 2.31945 2.28027 2.77945V7.49945C2.32027 8.93945 2.92027 10.2895 3.93027 11.1895C4.08027 11.3195 4.33027 11.5995 4.33027 11.9695V19.6095C4.33027 20.9195 5.40027 21.9895 6.71027 21.9895C8.02027 21.9895 9.09027 20.9195 9.09027 19.6095V11.9695C9.09027 11.5995 9.34027 11.3195 9.49027 11.1895C10.5403 10.2495 11.1403 8.84945 11.1403 7.34945V2.77945C11.1403 2.31945 10.7603 1.93945 10.3003 1.93945Z" fill="white"/> <path d="M6.71012 8.65961C7.17012 8.65961 7.55012 8.27961 7.55012 7.81961V2.68961C7.55012 2.22961 7.17012 1.84961 6.71012 1.84961C6.25012 1.84961 5.87012 2.22961 5.87012 2.68961V7.81961C5.87012 8.27961 6.25012 8.65961 6.71012 8.65961Z" fill="white"/> <path d="M21.7202 3.11C21.7202 2.49 21.2202 2 20.6102 2H19.5002C17.6502 2 16.1602 3.5 16.1602 5.34V12.03C16.1602 13.48 17.0902 14.71 18.3902 15.17V20.33C18.3902 21.25 19.1402 22 20.0602 22C20.9802 22 21.7302 21.25 21.7302 20.33V3.11H21.7202Z" fill="white"/> </g> <defs> <clipPath id="clip0_4482_13627"> <rect width="24" height="24" fill="white"/> </clipPath> </defs> </svg>
