<svg width="24" height="24" viewBox="0 0 24 24" fill="none" xmlns="http://www.w3.org/2000/svg"> <g clip-path="url(#clip0_2085_388493)"> <path d="M16.36 22.7501H7C3.83 22.7501 1.25 20.1701 1.25 17.0001V7.64014C1.25 6.12014 2.48 4.89014 4 4.89014H5.48V16.2701C5.48 17.5101 6.49 18.5201 7.73 18.5201H19.11V20.0001C19.11 21.5201 17.88 22.7501 16.36 22.7501ZM3.98 6.39014C3.3 6.40014 2.75 6.96014 2.75 7.64014V17.0001C2.75 19.3401 4.66 21.2501 7 21.2501H16.36C17.04 21.2501 17.6 20.7001 17.61 20.0201H7.73C5.66 20.0201 3.98 18.3401 3.98 16.2701V6.39014Z" fill="white"/> <path d="M19 2H7.72998C6.06998 2 4.72998 3.34 4.72998 5V16.27C4.72998 17.93 6.06998 19.27 7.72998 19.27H19C20.66 19.27 22 17.93 22 16.27V5C22 3.34 20.66 2 19 2ZM15.94 11.5L12.59 13.42C11.92 13.8 11.09 13.32 11.09 12.55V8.72C11.09 7.96 11.92 7.47 12.59 7.86L15.94 9.77C16.61 10.15 16.61 11.12 15.94 11.5Z" fill="white"/> </g> <defs> <clipPath id="clip0_2085_388493"> <rect width="24" height="24" fill="white"/> </clipPath> </defs> </svg>
