<svg width="24" height="24" viewBox="0 0 24 24" fill="none" xmlns="http://www.w3.org/2000/svg"> <g clip-path="url(#clip0_4482_13154)"> <path d="M19.0697 4.92957C15.1597 1.01957 8.82973 1.01957 4.92973 4.92957C1.02973 8.83957 1.01973 15.1696 4.92973 19.0696C8.83973 22.9796 15.1697 22.9796 19.0697 19.0696C22.9797 15.1596 22.9797 8.82957 19.0697 4.92957ZM15.1597 17.7496H9.11973C8.81973 17.7496 8.54973 17.5696 8.42973 17.2996C8.30973 17.0296 8.35973 16.7096 8.56973 16.4896C8.58973 16.4696 9.94973 14.9696 10.2797 13.1496H8.82973C8.41973 13.1496 8.07973 12.8096 8.07973 12.3996C8.07973 11.9896 8.41973 11.6496 8.82973 11.6496H10.0097L9.97973 11.6096C9.62973 11.0496 9.14973 10.2896 9.14973 9.14957C9.14973 7.81957 9.77973 6.78957 10.8897 6.32957C12.1397 5.80957 13.8297 6.11957 14.7397 7.01957C15.0297 7.30957 15.0297 7.78957 14.7397 8.07957C14.4497 8.36957 13.9697 8.36957 13.6797 8.07957C13.2497 7.64957 12.2097 7.39957 11.4597 7.70957C10.9097 7.93957 10.6497 8.39957 10.6497 9.13957C10.6497 9.84957 10.9397 10.3096 11.2497 10.7996C11.4197 11.0696 11.5797 11.3396 11.6997 11.6396H14.2897C14.6997 11.6396 15.0397 11.9796 15.0397 12.3896C15.0397 12.7996 14.6997 13.1396 14.2897 13.1396H11.7897C11.6197 14.3596 11.0997 15.4496 10.5997 16.2396H15.1497C15.5597 16.2396 15.8997 16.5796 15.8997 16.9896C15.8997 17.3996 15.5597 17.7396 15.1497 17.7396L15.1597 17.7496Z" fill="white"/> </g> <defs> <clipPath id="clip0_4482_13154"> <rect width="24" height="24" fill="white"/> </clipPath> </defs> </svg>
