<svg width="24" height="24" viewBox="0 0 24 24" fill="none" xmlns="http://www.w3.org/2000/svg"> <g clip-path="url(#clip0_2085_391747)"> <path d="M20.4279 17.7879C20.3362 17.6962 20.323 17.5527 20.3934 17.4439C21.4347 15.8349 22 13.9638 22 12C22 9.33 20.96 6.82 19.07 4.93C17.18 3.04 14.67 2 12 2C9.33 2 6.82 3.04 4.93 4.93C3.04 6.82 2 9.33 2 12C2 14.67 3.04 17.18 4.93 19.07C6.82 20.96 9.33 22 12 22C13.9638 22 15.8349 21.4347 17.4439 20.3934C17.5527 20.323 17.6962 20.3362 17.7879 20.4279L18.81 21.45C19.18 21.82 19.65 22 20.13 22C20.61 22 21.09 21.82 21.45 21.45C22.18 20.72 22.18 19.54 21.45 18.81L20.4279 17.7879ZM17.7114 14.5818C17.636 14.7472 17.4199 14.7799 17.2914 14.6514L16.39 13.75C15.66 13.02 14.48 13.02 13.75 13.75C13.02 14.48 13.02 15.66 13.75 16.39L14.6514 17.2914C14.7799 17.4199 14.7472 17.636 14.5818 17.7114C13.7942 18.0703 12.9201 18.27 12 18.27C8.55 18.27 5.73 15.45 5.73 12C5.73 8.55 8.55 5.73 12 5.73C15.45 5.73 18.27 8.54 18.27 12C18.27 12.9201 18.0703 13.7942 17.7114 14.5818Z" fill="white"/> </g> <defs> <clipPath id="clip0_2085_391747"> <rect width="24" height="24" fill="white"/> </clipPath> </defs> </svg>
