<svg width="24" height="24" viewBox="0 0 24 24" fill="none" xmlns="http://www.w3.org/2000/svg"> <g clip-path="url(#clip0_4482_4531)"> <path d="M15 8.5V10.25C15 11.13 14.35 11.86 13.5 11.97C13.42 11.99 13.34 12 13.25 12H10.75C10.66 12 10.58 11.99 10.5 11.97C9.65 11.86 9 11.13 9 10.25V8.5H15Z" fill="white"/> <path d="M5.5 2.5C4.4 2.5 3.5 3.4 3.5 4.5V6.5C3.5 7.6 4.4 8.5 5.5 8.5C5.91 8.5 6.25 8.16 6.25 7.75V3.25C6.25 2.84 5.91 2.5 5.5 2.5Z" fill="white"/> <path d="M16.25 4V3.25C16.25 2.84 15.91 2.5 15.5 2.5H8.5C8.09 2.5 7.75 2.84 7.75 3.25V4C7.75 4.41 8.09 4.75 8.5 4.75H15.5C15.91 4.75 16.25 4.41 16.25 4Z" fill="white"/> <path d="M18.5 2.5C18.09 2.5 17.75 2.84 17.75 3.25V7.75C17.75 8.16 18.09 8.5 18.5 8.5C19.6 8.5 20.5 7.6 20.5 6.5V4.5C20.5 3.4 19.6 2.5 18.5 2.5Z" fill="white"/> <path d="M7.75 7V7.75C7.75 8.16 8.09 8.5 8.5 8.5H15.5C15.91 8.5 16.25 8.16 16.25 7.75V7C16.25 6.59 15.91 6.25 15.5 6.25H8.5C8.09 6.25 7.75 6.59 7.75 7Z" fill="white"/> <path d="M12.5 13.5C13.05 13.5 13.5 13.95 13.5 14.5V15.75V20.5C13.5 21.33 12.83 22 12 22C11.17 22 10.5 21.33 10.5 20.5V15.75V14.5C10.5 13.95 10.95 13.5 11.5 13.5H12.5Z" fill="white"/> </g> <defs> <clipPath id="clip0_4482_4531"> <rect width="24" height="24" fill="white"/> </clipPath> </defs> </svg>
