<svg width="24" height="24" viewBox="0 0 24 24" fill="none" xmlns="http://www.w3.org/2000/svg"> <g clip-path="url(#clip0_2085_384402)"> <path d="M20.3999 19.0999L10.0099 21.8899C9.25992 22.0899 8.45992 22.0199 7.74992 21.6899L3.46992 19.7099C3.12992 19.5599 2.90992 19.2299 2.88992 18.8699L2.61992 14.3399C2.58992 13.8699 2.89992 13.4399 3.34992 13.3199L7.32992 12.2499L9.65992 11.6299C10.5199 11.3999 11.4599 11.7699 11.8299 12.5699C12.2899 13.5999 11.7099 14.7399 10.6699 15.0199L8.86463 15.5059C8.41526 15.6269 8.36038 16.2423 8.78125 16.4409L10.5841 17.2916C10.6912 17.3421 10.8127 17.353 10.927 17.3224L17.9799 15.4299C18.2699 15.3499 18.5499 15.3199 18.8299 15.3399C20.0199 15.3899 21.0699 16.1999 21.3899 17.4199C21.5799 18.1499 21.1299 18.9099 20.3999 19.0999Z" fill="white"/> <path d="M18.8198 4.23C18.7298 2.99 16.1898 2 13.0798 2C10.1698 2 7.78982 2.86 7.38982 3.98C7.37982 4.01 7.36982 4.03 7.35982 4.06V4.08C7.33982 4.15 7.31982 4.22 7.31982 4.3V13.31C7.31982 13.72 7.65982 14.06 8.06982 14.06C8.47982 14.06 8.81982 13.72 8.81982 13.31V5.84C9.86982 6.31 11.3898 6.6 13.0898 6.6C14.7898 6.6 16.2898 6.31 17.3398 5.84V16.81C17.3398 17.22 17.6798 17.56 18.0898 17.56C18.4998 17.56 18.8398 17.22 18.8398 16.81V4.3C18.8398 4.3 18.8298 4.26 18.8298 4.23H18.8198Z" fill="white"/> </g> <defs> <clipPath id="clip0_2085_384402"> <rect width="24" height="24" fill="white"/> </clipPath> </defs> </svg>
