<svg width="24" height="24" viewBox="0 0 24 24" fill="none" xmlns="http://www.w3.org/2000/svg"> <g clip-path="url(#clip0_4482_1507)"> <path d="M15.5 2H8.5C6.02 2 4 4.03 4 6.5V16.5C4 18.98 6.03 21 8.5 21H14C13.37 20.17 13 19.13 13 18C13 15.24 15.24 13 18 13C18.71 13 19.39 13.15 20 13.41V6.5C20 4.02 17.97 2 15.5 2ZM14 6.75H10C9.59 6.75 9.25 6.41 9.25 6C9.25 5.59 9.59 5.25 10 5.25H14C14.41 5.25 14.75 5.59 14.75 6C14.75 6.41 14.41 6.75 14 6.75Z" fill="white"/> <path d="M18 23.75C16.2 23.75 14.48 22.89 13.4 21.45C12.65 20.46 12.25 19.26 12.25 18C12.25 14.83 14.83 12.25 18 12.25C18.79 12.25 19.56 12.41 20.29 12.72C22.39 13.65 23.75 15.72 23.75 18C23.75 21.17 21.17 23.75 18 23.75ZM18 13.75C15.66 13.75 13.75 15.66 13.75 18C13.75 18.94 14.04 19.82 14.6 20.55C15.4 21.62 16.67 22.25 18 22.25C20.34 22.25 22.25 20.34 22.25 18C22.25 16.32 21.25 14.78 19.7 14.1C19.16 13.87 18.59 13.75 18 13.75Z" fill="white"/> <path d="M17.5901 20.75C17.4901 20.75 17.4 20.73 17.3 20.69C17.02 20.57 16.8401 20.3 16.8401 20V16C16.8401 15.59 17.1801 15.25 17.5901 15.25C18.0001 15.25 18.3401 15.59 18.3401 16V18.19L18.72 17.81C19.01 17.52 19.4901 17.52 19.7801 17.81C20.0701 18.1 20.0701 18.58 19.7801 18.87L18.1201 20.53C17.9801 20.67 17.7801 20.75 17.5901 20.75Z" fill="white"/> </g> <defs> <clipPath id="clip0_4482_1507"> <rect width="24" height="24" fill="white"/> </clipPath> </defs> </svg>
