<svg width="24" height="24" viewBox="0 0 24 24" fill="none" xmlns="http://www.w3.org/2000/svg"> <g clip-path="url(#clip0_4482_15704)"> <path d="M17.2699 2.50969L15.0499 5.46969C14.7099 5.92969 14.7099 6.53969 15.0499 6.98969L17.2699 9.94969C17.7799 10.6197 18.7899 10.6197 19.2999 9.94969L21.5199 6.98969C21.8599 6.52969 21.8599 5.91969 21.5199 5.46969L19.2999 2.50969C18.7899 1.81969 17.7799 1.81969 17.2699 2.50969Z" fill="white"/> <path d="M20.9897 15.5102C20.4197 14.9402 19.5097 14.8802 18.8697 15.3602L16.2897 17.3002C15.9197 17.5702 15.4697 17.7202 14.9997 17.7202H14.4997C14.9197 17.7202 15.3397 17.5502 15.6397 17.2502C15.9397 16.9502 16.1097 16.5302 16.1097 16.1002V15.7802C16.1097 15.0402 15.6097 14.3902 14.8897 14.2102L12.4397 13.6002C12.0397 13.5002 11.6297 13.4502 11.2197 13.4502C10.2297 13.4502 9.25973 13.7402 8.43973 14.2902L6.48973 15.5902V14.5202C6.48973 13.9302 6.01973 13.4502 5.41973 13.4502H3.28973C2.69973 13.4502 2.21973 13.9302 2.21973 14.5202V20.9302C2.21973 21.5202 2.69973 22.0002 3.28973 22.0002H5.41973C6.01973 22.0002 6.48973 21.5202 6.48973 20.9302H7.70973C8.05973 20.9302 8.39973 20.9702 8.73973 21.0602L11.5797 21.7702C12.1897 21.9202 12.8297 21.9402 13.4497 21.8102L16.5797 21.1902C17.4097 21.0202 18.1697 20.6102 18.7697 20.0202L20.9897 17.8002C21.2897 17.5002 21.4597 17.0802 21.4597 16.6602C21.4597 16.2402 21.2897 15.8102 20.9897 15.5102Z" fill="white"/> </g> <defs> <clipPath id="clip0_4482_15704"> <rect width="24" height="24" fill="white"/> </clipPath> </defs> </svg>
