<svg width="24" height="24" viewBox="0 0 24 24" fill="none" xmlns="http://www.w3.org/2000/svg"> <g clip-path="url(#clip0_4482_1496)"> <path d="M15.5 2H8.5C6.02 2 4 4.03 4 6.5V16.5C4 18.98 6.03 21 8.5 21H14C13.37 20.17 13 19.13 13 18C13 15.24 15.24 13 18 13C18.71 13 19.39 13.15 20 13.41V6.5C20 4.02 17.97 2 15.5 2ZM14 6.75H10C9.59 6.75 9.25 6.41 9.25 6C9.25 5.59 9.59 5.25 10 5.25H14C14.41 5.25 14.75 5.59 14.75 6C14.75 6.41 14.41 6.75 14 6.75Z" fill="white"/> <path d="M18 23.75C16.2 23.75 14.48 22.89 13.4 21.45C12.65 20.46 12.25 19.26 12.25 18C12.25 14.83 14.83 12.25 18 12.25C18.79 12.25 19.56 12.41 20.29 12.72C22.39 13.65 23.75 15.72 23.75 18C23.75 21.17 21.17 23.75 18 23.75ZM18 13.75C15.66 13.75 13.75 15.66 13.75 18C13.75 18.94 14.04 19.82 14.6 20.55C15.4 21.62 16.67 22.25 18 22.25C20.34 22.25 22.25 20.34 22.25 18C22.25 16.32 21.25 14.78 19.7 14.1C19.16 13.87 18.59 13.75 18 13.75Z" fill="white"/> <path d="M18.02 20.7401C17.86 20.7401 17.7 20.7301 17.54 20.7001C17.13 20.6301 16.86 20.2401 16.93 19.8301C17 19.4201 17.39 19.1501 17.8 19.2201C18.19 19.2901 18.59 19.1701 18.88 18.8801C19.23 18.5301 19.34 17.9901 19.14 17.5101C18.98 17.1301 19.16 16.6901 19.55 16.5301C19.94 16.3701 20.37 16.5601 20.53 16.9401C20.96 17.9801 20.73 19.1601 19.95 19.9401C19.43 20.4601 18.74 20.7401 18.02 20.7401Z" fill="white"/> <path d="M16.1599 19.53C15.8599 19.53 15.5799 19.36 15.4699 19.07C15.0399 18.03 15.2699 16.85 16.0499 16.06C16.7199 15.39 17.6999 15.12 18.6199 15.34C19.0199 15.44 19.2699 15.84 19.1699 16.25C19.0699 16.65 18.6599 16.9 18.2599 16.8C17.8499 16.7 17.4099 16.82 17.1099 17.12C16.7599 17.47 16.6599 18.01 16.8499 18.5C17.0099 18.88 16.8199 19.32 16.4399 19.48C16.3499 19.51 16.2599 19.53 16.1599 19.53Z" fill="white"/> </g> <defs> <clipPath id="clip0_4482_1496"> <rect width="24" height="24" fill="white"/> </clipPath> </defs> </svg>
