<svg width="24" height="24" viewBox="0 0 24 24" fill="none" xmlns="http://www.w3.org/2000/svg"> <g clip-path="url(#clip0_4482_4707)"> <path d="M18.97 7.98958C18.72 7.33958 18.33 6.72958 17.8 6.19958C17.27 5.66958 16.66 5.27958 16.01 5.02958C14.08 4.25958 11.8 4.65958 10.26 6.19958L3.54999 12.8996C2.50999 13.9296 2 15.2996 2 16.6796C2 18.0396 2.50999 19.3996 3.54999 20.4396C5.62999 22.5196 9.03001 22.5196 11.1 20.4396L17.8 13.7396C18.84 12.6896 19.35 11.3296 19.35 9.96958C19.35 9.29958 19.23 8.62958 18.97 7.98958ZM9.63 17.7196C8.71 18.6396 7.2 18.6396 6.28 17.7196C5.36 16.7996 5.36 15.2896 6.28 14.3696C7.2 13.4496 8.71 13.4496 9.63 14.3696C10.55 15.2896 10.55 16.7996 9.63 17.7196ZM15.08 12.2696C14.16 13.1896 12.65 13.1896 11.73 12.2696C10.81 11.3496 10.81 9.83958 11.73 8.91958C12.65 7.99958 14.16 7.99958 15.08 8.91958C16 9.83958 16 11.3496 15.08 12.2696Z" fill="white"/> <path d="M19.48 7.49039L18.97 7.99039C18.72 7.34039 18.33 6.73039 17.8 6.20039C17.27 5.67039 16.66 5.28039 16.01 5.03039L16.51 4.52039C16.92 4.11039 17.46 3.90039 18 3.90039C18.53 3.90039 19.07 4.11039 19.48 4.52039C20.3 5.34039 20.3 6.67039 19.48 7.49039Z" fill="white"/> <path d="M19.4799 5.27043C19.2899 5.27043 19.0999 5.20043 18.9499 5.05043C18.6599 4.76043 18.6599 4.28043 18.9499 3.99043L21.4699 1.47043C21.7599 1.18043 22.2399 1.18043 22.5299 1.47043C22.8199 1.76043 22.8199 2.24043 22.5299 2.53043L20.0099 5.05043C19.8599 5.20043 19.6699 5.27043 19.4799 5.27043Z" fill="white"/> </g> <defs> <clipPath id="clip0_4482_4707"> <rect width="24" height="24" fill="white"/> </clipPath> </defs> </svg>
