<svg width="24" height="24" viewBox="0 0 24 24" fill="none" xmlns="http://www.w3.org/2000/svg"> <g clip-path="url(#clip0_2085_393142)"> <path d="M9.79005 19.0998C9.47005 18.8798 9.10005 18.7598 8.69005 18.7598H3.29005C2.99005 18.7598 2.71005 18.8198 2.46005 18.9398C1.78005 19.2598 1.30005 19.9598 1.30005 20.7598C1.30005 21.8498 2.19005 22.7498 3.29005 22.7498H8.69005C9.78005 22.7498 10.68 21.8498 10.68 20.7598C10.68 20.0698 10.32 19.4598 9.79005 19.0998ZM8.69005 21.2498H3.29005C3.02005 21.2498 2.80005 21.0298 2.80005 20.7598C2.80005 20.4898 2.99005 20.2898 3.24005 20.2598H8.69005C8.96005 20.2598 9.18005 20.4798 9.18005 20.7598C9.18005 21.0398 8.96005 21.2498 8.69005 21.2498Z" fill="white"/> <path d="M9.18005 20.7598C9.18005 21.0298 8.96005 21.2498 8.69005 21.2498H3.29005C3.02005 21.2498 2.80005 21.0298 2.80005 20.7598C2.80005 20.4898 2.99005 20.2898 3.24005 20.2598H8.69005C8.96005 20.2598 9.18005 20.4798 9.18005 20.7598Z" fill="white"/> <path d="M9.78999 19.1002V19.5002C9.78999 19.7002 9.71999 19.8902 9.57999 20.0402C9.43999 20.1802 9.24999 20.2602 9.04999 20.2602H3.23999C2.83999 20.2602 2.49999 19.9402 2.48999 19.5402L2.45999 18.9402L2.11999 10.7502C2.07999 9.79021 2.46999 8.86021 3.18999 8.21021L5.12999 6.45021L5.44999 6.16021C5.75999 5.89021 6.22999 5.91021 6.50999 6.22021C6.78999 6.52021 6.75999 7.00021 6.45999 7.28021L5.67999 7.98021L4.18999 9.32021C3.80999 9.67021 3.59999 10.1702 3.61999 10.6902L3.95999 18.7602H8.29999C8.33999 18.2402 8.43999 17.7202 8.59999 17.2302C8.92999 16.2502 8.93999 15.2502 8.63999 14.3002L8.51999 13.9202C8.48999 13.8102 8.47999 13.7002 8.50999 13.6002C8.50999 13.5402 8.51999 13.4902 8.53999 13.4402C8.60999 13.2302 8.77999 13.0502 9.01999 12.9802C9.41999 12.8602 9.83999 13.0902 9.95999 13.4802L10.03 13.7302L10.07 13.8602C10.46 15.1102 10.45 16.4202 10.04 17.6702C9.86999 18.1502 9.79999 18.6202 9.78999 19.1002Z" fill="white"/> <path d="M21.8801 10.7502L21.5401 18.9402L21.5101 19.5402C21.5001 19.9402 21.1701 20.2602 20.7601 20.2602H14.9601C14.7501 20.2602 14.5601 20.1802 14.4201 20.0402C14.2801 19.8902 14.2001 19.7002 14.2101 19.5002V19.0902C14.2101 18.6202 14.1301 18.1402 13.9801 17.7002C13.5501 16.4302 13.5401 15.1102 13.9301 13.8602L13.9701 13.7402L14.0501 13.4802C14.1701 13.0802 14.5901 12.8602 14.9801 12.9802C15.2201 13.0602 15.3901 13.2302 15.4601 13.4402C15.4901 13.5202 15.5001 13.6102 15.5001 13.7002C15.5101 13.7702 15.5001 13.8502 15.4801 13.9202L15.3601 14.3002C15.0601 15.2502 15.0701 16.2502 15.3901 17.2002C15.5601 17.7202 15.6701 18.2402 15.7001 18.7602H20.0401L20.3801 10.6902C20.4001 10.1702 20.1901 9.67021 19.8101 9.32021L18.3301 7.99021L17.5501 7.28021C17.3101 7.06021 17.2401 6.73021 17.3501 6.45021C17.3801 6.36021 17.4301 6.29021 17.4901 6.22021C17.7701 5.91021 18.2501 5.89021 18.5501 6.16021L18.8801 6.46021L20.8201 8.21021C21.5301 8.86021 21.9201 9.79021 21.8801 10.7502Z" fill="white"/> <path d="M21.5401 18.9398C21.2901 18.8198 21.0101 18.7598 20.7201 18.7598H15.3201C14.9101 18.7598 14.5301 18.8798 14.2101 19.0898C13.6801 19.4598 13.3301 20.0698 13.3301 20.7598C13.3301 21.8498 14.2201 22.7498 15.3201 22.7498H20.7201C21.8201 22.7498 22.7101 21.8498 22.7101 20.7598C22.7101 19.9498 22.2301 19.2498 21.5401 18.9398ZM20.7201 21.2498H15.3201C15.0501 21.2498 14.8301 21.0298 14.8301 20.7598C14.8301 20.4898 15.0501 20.2598 15.3201 20.2598H20.7601C21.0101 20.2798 21.2101 20.4898 21.2101 20.7598C21.2101 21.0298 20.9901 21.2498 20.7201 21.2498Z" fill="white"/> <path d="M21.2101 20.7598C21.2101 21.0298 20.9901 21.2498 20.7201 21.2498H15.3201C15.0501 21.2498 14.8301 21.0298 14.8301 20.7598C14.8301 20.4898 15.0501 20.2598 15.3201 20.2598H20.7601C21.0101 20.2798 21.2101 20.4898 21.2101 20.7598Z" fill="white"/> <path d="M14.3801 12.08C14.0901 12.29 13.8101 12.47 13.5601 12.62C12.8601 13.07 12.3701 13.33 12.3401 13.34C12.2401 13.39 12.1201 13.42 12.0001 13.42C11.8801 13.42 11.7701 13.39 11.6601 13.34C11.6301 13.33 11.1401 13.07 10.4401 12.62C10.1901 12.47 9.91013 12.28 9.62013 12.08C9.35013 11.89 9.24013 11.55 9.34013 11.25C9.36013 11.18 9.40013 11.1 9.44013 11.04C9.68013 10.7 10.1401 10.62 10.4801 10.86C10.6401 10.97 10.8101 11.08 10.9601 11.17C11.3901 11.45 11.7601 11.67 12.0001 11.82C12.2501 11.67 12.6201 11.45 13.0401 11.17C13.2001 11.08 13.3501 10.97 13.5201 10.86C13.8601 10.62 14.3301 10.7 14.5601 11.04C14.6001 11.1 14.6401 11.18 14.6601 11.25C14.7601 11.55 14.6501 11.89 14.3801 12.08Z" fill="white"/> <path d="M18.98 5.56C18.98 5.86 18.95 6.16 18.88 6.46C18.79 6.97 18.6 7.48 18.33 7.99C17.99 8.66 17.49 9.32 16.85 9.99C16.75 10.11 16.64 10.22 16.52 10.34C16.37 10.48 16.18 10.55 15.99 10.55C15.8 10.55 15.6 10.47 15.46 10.32C15.17 10.03 15.17 9.55 15.47 9.26C15.76 8.98 16.01 8.7 16.24 8.43C16.8 7.75 17.17 7.09 17.35 6.45C17.44 6.14 17.48 5.85 17.48 5.56C17.48 4.01 16.22 2.75 14.67 2.75C13.87 2.75 13.11 3.1 12.57 3.72C12.28 4.05 11.72 4.05 11.44 3.72C10.9 3.1 10.13 2.75 9.34003 2.75C7.79003 2.75 6.53003 4.01 6.53003 5.56C6.53003 6.47 6.95003 7.42 7.76003 8.42C7.99003 8.69 8.25003 8.98 8.54003 9.26C8.73003 9.44 8.80003 9.7 8.76003 9.94L8.71003 10.08C8.68003 10.17 8.62003 10.25 8.55003 10.32C8.26003 10.62 7.79003 10.63 7.49003 10.34C7.37003 10.22 7.25003 10.1 7.15003 9.98C6.51003 9.31 6.02003 8.65 5.68003 7.98C5.40003 7.47 5.22003 6.96 5.13003 6.45C5.06003 6.15 5.03003 5.86 5.03003 5.56C5.03003 3.18 6.96003 1.25 9.34003 1.25C10.31 1.25 11.25 1.59 12 2.19C12.76 1.59 13.7 1.25 14.67 1.25C17.05 1.25 18.98 3.18 18.98 5.56Z" fill="white"/> <path d="M17.8102 14.8002C17.7202 14.8302 17.6402 14.8402 17.5502 14.8402C17.2402 14.8402 16.9602 14.6602 16.8502 14.3502L15.0002 9.28018C14.9102 9.03018 14.6202 8.89018 14.3702 8.99018C14.2402 9.03018 14.1402 9.12018 14.0902 9.24018C14.0302 9.36018 14.0302 9.50019 14.0702 9.62018L14.6602 11.2502L15.4602 13.4402C15.4902 13.5202 15.5002 13.6102 15.5002 13.7002C15.5002 14.0002 15.3202 14.2902 15.0102 14.4102C14.6302 14.5502 14.1902 14.3502 14.0502 13.9602L13.9702 13.7402L13.5602 12.6202L13.0402 11.1702L12.6602 10.1302C12.4802 9.63019 12.5002 9.09018 12.7302 8.61018C12.9502 8.13018 13.3502 7.76019 13.8502 7.58019C14.7702 7.24019 15.7702 7.63019 16.2402 8.43019C16.3102 8.54019 16.3702 8.65019 16.4102 8.77019L16.8502 9.99018L18.2502 13.8402C18.4002 14.2302 18.2002 14.6602 17.8102 14.8002Z" fill="white"/> <path d="M17.4803 5.56C17.4803 5.85 17.4403 6.14 17.3503 6.44C17.1703 7.09 16.8003 7.75 16.2403 8.43C15.7703 7.63 14.7703 7.24 13.8503 7.58C13.3503 7.76 12.9503 8.13 12.7303 8.61C12.5003 9.09 12.4803 9.63 12.6603 10.13L13.0403 11.17C12.6203 11.45 12.2503 11.67 12.0003 11.82C11.7603 11.67 11.3903 11.45 10.9603 11.17L11.3403 10.13C11.7203 9.1 11.1803 7.95 10.1503 7.58C9.24027 7.25 8.25027 7.62 7.76027 8.42C6.95027 7.42 6.53027 6.47 6.53027 5.56C6.53027 4.01 7.79027 2.75 9.34027 2.75C10.1303 2.75 10.9003 3.1 11.4403 3.72C11.7203 4.05 12.2803 4.05 12.5703 3.72C13.1103 3.1 13.8703 2.75 14.6703 2.75C16.2203 2.75 17.4803 4.01 17.4803 5.56Z" fill="white"/> <path d="M11.3402 10.1304L10.9602 11.1704L10.4402 12.6204L10.0302 13.7304L9.95017 13.9604C9.81017 14.3504 9.37017 14.5504 8.99017 14.4104C8.68017 14.2904 8.50017 14.0004 8.50017 13.7004C8.50017 13.6104 8.51017 13.5204 8.54017 13.4404L9.34017 11.2504L9.93017 9.62044C10.0202 9.36044 9.89017 9.08044 9.63017 8.99044C9.38017 8.89044 9.09017 9.03044 9.00017 9.28044L8.76017 9.94044L8.71017 10.0804L7.16017 14.3504C7.04017 14.6604 6.76017 14.8404 6.45017 14.8404C6.37017 14.8404 6.28017 14.8304 6.19017 14.8004C5.81017 14.6604 5.60017 14.2304 5.75017 13.8404L7.15017 9.98044L7.59017 8.77044C7.64017 8.65044 7.69017 8.53044 7.76017 8.42044C8.25017 7.62044 9.24017 7.25044 10.1502 7.58044C11.1802 7.95044 11.7202 9.10044 11.3402 10.1304Z" fill="white"/> </g> <defs> <clipPath id="clip0_2085_393142"> <rect width="24" height="24" fill="white"/> </clipPath> </defs> </svg>
