<svg width="24" height="24" viewBox="0 0 24 24" fill="none" xmlns="http://www.w3.org/2000/svg"> <g clip-path="url(#clip0_4482_14604)"> <path d="M17 2H7C6.66 2 6.33 2.03 6.01 2.1L8.7 5.64C8.95 5.97 8.89 6.44 8.56 6.69C8.42 6.8 8.26 6.85 8.1 6.85C7.88 6.85 7.65 6.74 7.51 6.55L4.55 2.64C3.03 3.5 2 5.13 2 7V17C2 19.76 4.24 22 7 22H17C17.39 22 17.77 21.96 18.13 21.87L15.32 18.37C15.06 18.05 15.11 17.58 15.43 17.32C15.75 17.06 16.22 17.11 16.48 17.43L19.58 21.28C21.03 20.41 22 18.82 22 17V7C22 4.24 19.76 2 17 2ZM15.24 14.05C15.05 15.39 14.02 16.4 12.75 16.61V17C12.75 17.41 12.41 17.75 12 17.75C11.59 17.75 11.25 17.41 11.25 17V16.58C10.26 16.39 9.4 15.76 8.94 14.83C8.76 14.46 8.91 14.01 9.28 13.83C9.65 13.64 10.1 13.8 10.28 14.17C10.59 14.8 11.27 15.18 11.95 15.14C11.96 15.14 11.97 15.14 11.99 15.14H12.01C12.01 15.14 12.06 15.14 12.08 15.14C12.87 15.23 13.61 14.68 13.75 13.89C13.73 13.43 13.39 13.04 12.94 12.95L10.77 12.52C9.6 12.29 8.75 11.25 8.75 10.06C8.75 10.02 8.75 9.99 8.75 9.96C8.94 8.62 9.97 7.62 11.24 7.41V7.01C11.24 6.6 11.58 6.26 11.99 6.26C12.4 6.26 12.74 6.6 12.74 7.01V7.44C13.73 7.63 14.59 8.25 15.05 9.18C15.23 9.55 15.08 10 14.71 10.18C14.34 10.36 13.89 10.21 13.71 9.84C13.4 9.21 12.73 8.83 12.04 8.87C12.03 8.87 12.02 8.87 12.01 8.87H11.98C11.98 8.87 11.93 8.87 11.91 8.87C11.09 8.78 10.38 9.33 10.24 10.12C10.26 10.58 10.6 10.97 11.05 11.06L13.22 11.49C14.39 11.72 15.24 12.76 15.24 13.95C15.24 13.99 15.24 14.02 15.24 14.05Z" fill="white"/> </g> <defs> <clipPath id="clip0_4482_14604"> <rect width="24" height="24" fill="white"/> </clipPath> </defs> </svg>
