<svg width="24" height="24" viewBox="0 0 24 24" fill="none" xmlns="http://www.w3.org/2000/svg"> <path d="M22 11.1445C22.4722 11.1445 22.8555 11.5278 22.8555 12C22.8555 12.4722 22.4722 12.8555 22 12.8555H2C1.5278 12.8555 1.14453 12.4722 1.14453 12C1.14453 11.5278 1.5278 11.1445 2 11.1445H22Z" fill="white"/> <path d="M16.6201 17.3791L22.0001 11.9991L16.6201 6.61914" fill="white"/> <path d="M16.293 5.8287C16.6124 5.69641 16.9801 5.76974 17.2246 6.01425L22.6045 11.3941C22.9384 11.728 22.9384 12.2692 22.6045 12.6031L17.2246 17.983C16.9801 18.2275 16.6125 18.3009 16.293 18.1685C15.9735 18.0362 15.7646 17.7243 15.7646 17.3785V6.61874C15.7646 6.27293 15.9735 5.96104 16.293 5.8287ZM17.4756 15.3141L20.791 11.9986L17.4756 8.68319V15.3141Z" fill="white"/> </svg>
