<svg width="24" height="24" viewBox="0 0 24 24" fill="none" xmlns="http://www.w3.org/2000/svg"> <g clip-path="url(#clip0_2085_388884)"> <path d="M13.1701 10.66C14.3801 10.95 15.4401 11.67 16.1601 12.69C16.8701 13.71 17.1901 14.95 17.0401 16.18C16.8901 17.42 16.3001 18.56 15.3701 19.39C14.4401 20.21 13.2401 20.67 12.0001 20.67C10.7601 20.67 9.56006 20.21 8.63006 19.39C7.71006 18.56 7.11006 17.42 6.96006 16.18C6.82006 14.95 7.13006 13.71 7.84006 12.69C8.56006 11.67 9.62006 10.95 10.8301 10.66V12.94C10.2201 13.21 9.72006 13.67 9.42006 14.27C9.11006 14.86 9.02006 15.55 9.16006 16.2C9.29006 16.86 9.66006 17.44 10.1701 17.86C10.6901 18.28 11.3401 18.51 12.0001 18.51C12.6601 18.51 13.3101 18.28 13.8301 17.86C14.3401 17.44 14.7001 16.86 14.8401 16.2C14.9701 15.55 14.8801 14.86 14.5801 14.27C14.2701 13.68 13.7701 13.21 13.1701 12.94V10.66ZM12.3301 8.75L12.0001 8.83L11.6701 8.75V8.91L10.4801 9.2C8.92006 9.58 7.55006 10.51 6.62006 11.82C5.69006 13.15 5.29006 14.75 5.47006 16.35C5.66006 17.96 6.43006 19.43 7.63006 20.5C8.85006 21.58 10.4001 22.16 12.0101 22.16C13.6201 22.16 15.1601 21.57 16.3801 20.51C17.5901 19.43 18.3501 17.96 18.5401 16.36C18.7201 14.76 18.3201 13.15 17.4001 11.83C16.4701 10.51 15.1001 9.58 13.5401 9.2L12.3501 8.91V8.75H12.3301ZM12.0001 17C11.6801 17 11.3601 16.89 11.1101 16.68C10.8701 16.48 10.6901 16.2 10.6301 15.89C10.5601 15.57 10.6101 15.24 10.7501 14.96C10.9001 14.67 11.1401 14.45 11.4401 14.31L12.0001 14.06L12.5601 14.31C12.8601 14.44 13.1001 14.67 13.2501 14.96C13.3901 15.24 13.4401 15.58 13.3701 15.89C13.3001 16.2 13.1301 16.49 12.8801 16.69C12.6301 16.89 12.3201 17 11.9901 17H12.0001Z" fill="white"/> <path d="M15.2699 13.89C14.8799 13.14 14.2499 12.55 13.4799 12.21V8.43996C13.4699 8.24996 13.3999 8.05996 13.2599 7.91996C13.1199 7.78996 12.9399 7.70996 12.7399 7.70996H11.2599C11.0599 7.70996 10.8799 7.78996 10.7399 7.91996C10.5999 8.05996 10.5299 8.24996 10.5199 8.43996V12.21C9.74992 12.55 9.11992 13.14 8.72992 13.89C8.33992 14.64 8.22992 15.51 8.39992 16.33C8.56992 17.16 9.02992 17.9 9.67992 18.43C10.3399 18.96 11.1599 19.25 11.9999 19.25C12.8399 19.25 13.6599 18.96 14.3199 18.43C14.9699 17.9 15.4199 17.16 15.5999 16.33C15.7699 15.51 15.6499 14.64 15.2699 13.89Z" fill="white"/> <path d="M12 8.28C11.59 8.28 11.25 7.94 11.25 7.53V2C11.25 1.59 11.59 1.25 12 1.25C12.41 1.25 12.75 1.59 12.75 2V7.53C12.75 7.94 12.41 8.28 12 8.28Z" fill="white"/> <path d="M15.1901 2.75H8.81006C8.40006 2.75 8.06006 2.41 8.06006 2C8.06006 1.59 8.40006 1.25 8.81006 1.25H15.1901C15.6001 1.25 15.9401 1.59 15.9401 2C15.9401 2.41 15.6001 2.75 15.1901 2.75Z" fill="white"/> </g> <defs> <clipPath id="clip0_2085_388884"> <rect width="24" height="24" fill="white"/> </clipPath> </defs> </svg>
