<svg width="24" height="24" viewBox="0 0 24 24" fill="none" xmlns="http://www.w3.org/2000/svg"> <g clip-path="url(#clip0_2085_391872)"> <path d="M18.9198 5.87117L18.6798 5.63117L18.1298 5.08117C17.8398 4.79117 17.5098 4.58117 17.1498 4.45117H17.1398C17.0398 4.62117 16.9098 4.81117 16.7798 5.01117C16.5798 5.30117 16.6198 5.70117 16.8698 5.95117L18.0498 7.13117C18.1998 7.27117 18.3898 7.35117 18.5798 7.35117C18.7198 7.35117 18.8698 7.31117 18.9898 7.22117C19.1898 7.09117 19.3798 6.96117 19.5498 6.85117C19.4198 6.49117 19.1998 6.15117 18.9198 5.87117Z" fill="white"/> <path d="M22.7499 3.53039C22.7499 4.14039 22.5099 4.71039 22.0799 5.14039C22.0499 5.18039 22.0199 5.21039 21.6199 5.48039C21.2699 5.71039 20.6599 6.12039 19.5499 6.85039C19.4199 6.49039 19.1999 6.15039 18.9199 5.87039L18.6799 5.63039C19.7599 4.92039 20.8299 4.21039 21.0499 4.05039C21.1799 3.91039 21.2499 3.72039 21.2499 3.53039C21.2499 3.32039 21.1699 3.13039 21.0199 2.98039C20.7299 2.68039 20.2099 2.68039 19.9199 2.98039C19.8599 3.07039 19.1199 4.18039 18.3699 5.32039L18.1299 5.08039C17.8399 4.79039 17.5099 4.58039 17.1499 4.45039C18.7299 2.05039 18.7899 1.98039 18.8599 1.92039C19.7199 1.06039 21.2199 1.06039 22.0799 1.92039C22.5099 2.35039 22.7499 2.92039 22.7499 3.53039Z" fill="white"/> <path d="M21.2499 3.53086C21.2499 3.72086 21.1799 3.91086 21.0499 4.05086C20.8299 4.21086 19.7599 4.92086 18.6799 5.63086L18.3699 5.32086C19.1199 4.18086 19.8599 3.07086 19.9199 2.98086C20.2099 2.68086 20.7299 2.68086 21.0199 2.98086C21.1699 3.13086 21.2499 3.32086 21.2499 3.53086Z" fill="white"/> <path d="M7.12995 18.0496L5.94995 16.8696C5.69995 16.6196 5.29995 16.5796 5.00995 16.7796C4.80995 16.9096 4.61995 17.0396 4.44995 17.1396C4.57995 17.4996 4.78995 17.8396 5.07995 18.1296L5.86995 18.9196C6.15995 19.2096 6.49995 19.4196 6.85995 19.5496C6.95995 19.3796 7.08995 19.1896 7.21995 18.9896C7.41995 18.6996 7.37995 18.2996 7.12995 18.0496Z" fill="white"/> <path d="M6.85994 19.5487C5.26994 21.9487 5.20994 22.0187 5.13994 22.0787C4.70994 22.5087 4.13994 22.7487 3.52994 22.7487C2.91994 22.7487 2.34994 22.5087 1.91994 22.0787C1.02994 21.1887 1.02994 19.7487 1.91994 18.8587C1.97994 18.7887 2.04994 18.7287 4.44994 17.1387C4.57994 17.4987 4.78994 17.8387 5.07994 18.1287L5.86994 18.9187C6.15994 19.2087 6.49994 19.4187 6.85994 19.5487Z" fill="white"/> <path d="M19.5498 6.84982C19.4198 6.48982 19.1998 6.14982 18.9198 5.86982L18.6798 5.62982L18.1298 5.07982C17.8398 4.78982 17.5098 4.57982 17.1498 4.44982H17.1398C16.1598 4.08982 15.0198 4.29982 14.2398 5.07982L13.9998 5.32982C13.9998 5.32982 13.9598 5.35982 13.9398 5.37982L5.37982 13.9398C5.37982 13.9398 5.34982 13.9798 5.32982 13.9998L5.07982 14.2398C4.29982 15.0198 4.08982 16.1598 4.44982 17.1398C4.57982 17.4998 4.78982 17.8398 5.07982 18.1298L5.86982 18.9198C6.15982 19.2098 6.49982 19.4198 6.85982 19.5498C7.16982 19.6598 7.48982 19.7198 7.81982 19.7198C8.51982 19.7198 9.22982 19.4598 9.75982 18.9198L18.9198 9.75982C19.4398 9.23982 19.7298 8.54982 19.7298 7.81982C19.7298 7.47982 19.6698 7.15982 19.5498 6.84982ZM9.57982 16.9798L8.69982 17.8598C8.63982 17.9198 8.56982 17.9798 8.49982 18.0198C8.01982 18.3398 7.35982 18.2898 6.93982 17.8598L6.13982 17.0598C5.70982 16.6398 5.65982 15.9798 5.97982 15.4998C6.01982 15.4298 6.07982 15.3598 6.13982 15.2998L7.01982 14.4198L14.4198 7.01982L15.2998 6.13982C15.3598 6.07982 15.4198 6.02982 15.4898 5.97982H15.4998C15.7098 5.84982 15.9398 5.77982 16.1798 5.77982C16.4998 5.77982 16.8198 5.89982 17.0598 6.13982L17.8598 6.93982C18.0998 7.16982 18.2298 7.47982 18.2298 7.81982C18.2298 8.05982 18.1598 8.29982 18.0198 8.49982C17.9698 8.57982 17.9198 8.63982 17.8598 8.69982L16.9798 9.57982L9.57982 16.9798Z" fill="white"/> <path d="M18.2298 7.8193C18.2298 8.0593 18.1598 8.2993 18.0198 8.4993L15.4998 5.9793C15.7098 5.8493 15.9398 5.7793 16.1798 5.7793C16.4998 5.7793 16.8198 5.8993 17.0598 6.1393L17.8598 6.9393C18.0998 7.1693 18.2298 7.4793 18.2298 7.8193Z" fill="white"/> <path d="M8.49972 18.02C8.01972 18.34 7.35972 18.29 6.93972 17.86L6.13972 17.06C5.70972 16.64 5.65972 15.98 5.97972 15.5L8.49972 18.02Z" fill="white"/> <path d="M9.98986 18.4499C9.84986 18.5899 9.65986 18.6699 9.45986 18.6699C9.25986 18.6699 9.07986 18.5899 8.92986 18.4499L8.49986 18.0199L5.97986 15.4999L5.42986 14.9499C5.17986 14.6899 5.13986 14.2899 5.32986 13.9999C5.34986 13.9799 5.35986 13.9599 5.37986 13.9399C5.38986 13.9199 5.40986 13.8999 5.42986 13.8799C5.43986 13.8699 5.45986 13.8599 5.46986 13.8499C5.76986 13.5899 6.20986 13.5999 6.48986 13.8799L7.01986 14.4199L9.57986 16.9799L9.98986 17.3899C10.2899 17.6799 10.2899 18.1499 9.98986 18.4499Z" fill="white"/> <path d="M18.4499 9.9901C18.2999 10.1401 18.1099 10.2101 17.9199 10.2101C17.7299 10.2101 17.5299 10.1401 17.3899 9.9901L14.4199 7.0201L13.8799 6.4901C13.5999 6.2101 13.5899 5.7701 13.8499 5.4701C13.8499 5.4701 13.8699 5.4401 13.8799 5.4301C13.8999 5.4101 13.9199 5.3901 13.9399 5.3801C13.9599 5.3601 13.9799 5.3501 13.9999 5.3301C14.2899 5.1401 14.6899 5.1801 14.9499 5.4301L15.4899 5.9801H15.4999L18.0199 8.5001L18.4499 8.9301C18.7399 9.2301 18.7399 9.7001 18.4499 9.9901Z" fill="white"/> </g> <defs> <clipPath id="clip0_2085_391872"> <rect width="24" height="24" fill="white"/> </clipPath> </defs> </svg>
