<svg width="24" height="24" viewBox="0 0 24 24" fill="none" xmlns="http://www.w3.org/2000/svg"> <g clip-path="url(#clip0_2085_391873)"> <path d="M7.43004 10.7293C7.43004 11.1093 7.12004 11.4193 6.73004 11.4193C6.34004 11.4193 6.04004 11.1093 6.04004 10.7293C6.04004 10.3493 6.35004 10.0293 6.73004 10.0293C7.11004 10.0293 7.43004 10.3393 7.43004 10.7293Z" fill="white"/> <path d="M22 14.7207H2C1.59 14.7207 1.25 15.0507 1.25 15.4707V16.6207C1.25 17.8007 2.21 18.7607 3.38 18.7607H20.62C21.79 18.7607 22.75 17.8007 22.75 16.6207V15.4707C22.75 15.0507 22.41 14.7207 22 14.7207ZM21.25 16.6207C21.25 16.9707 20.97 17.2607 20.62 17.2607H3.38C3.03 17.2607 2.75 16.9707 2.75 16.6207V16.2207H21.25V16.6207Z" fill="white"/> <path d="M10.49 6.74023C9.51 5.81023 8.19 5.24023 6.74 5.24023C3.71 5.24023 1.25 7.71023 1.25 10.7302C1.25 12.3002 1.91 13.7202 2.98 14.7202C3.96 15.6502 5.28 16.2202 6.74 16.2202C8.2 16.2202 9.51 15.6502 10.49 14.7202C11.56 13.7202 12.22 12.3002 12.22 10.7302C12.22 9.16023 11.56 7.74023 10.49 6.74023ZM6.74 14.7202C4.54 14.7202 2.75 12.9302 2.75 10.7302C2.75 8.53023 4.54 6.74023 6.74 6.74023C8.94 6.74023 10.72 8.53023 10.72 10.7302C10.72 12.9302 8.94 14.7202 6.74 14.7202Z" fill="white"/> <path d="M21.25 10.7302C21.25 12.9302 19.46 14.7202 17.26 14.7202H10.49C11.56 13.7202 12.22 12.3002 12.22 10.7302C12.22 9.16023 11.56 7.74023 10.49 6.74023H17.26C19.46 6.74023 21.25 8.53023 21.25 10.7302Z" fill="white"/> <path d="M22.75 10.7302C22.75 12.3002 22.09 13.7202 21.02 14.7202C20.04 15.6502 18.72 16.2202 17.26 16.2202H6.73999C6.31999 16.2202 5.98999 15.8802 5.98999 15.4702C5.98999 15.0602 6.31999 14.7202 6.73999 14.7202H17.26C19.46 14.7202 21.25 12.9302 21.25 10.7302C21.25 8.53023 19.46 6.74023 17.26 6.74023H6.73999C6.31999 6.74023 5.98999 6.41023 5.98999 5.99023C5.98999 5.57023 6.31999 5.24023 6.73999 5.24023H17.26C20.29 5.24023 22.75 7.71023 22.75 10.7302Z" fill="white"/> <path d="M9.87011 10.7296C9.87011 12.4596 8.46011 13.8596 6.74011 13.8596C5.02011 13.8596 3.61011 12.4596 3.61011 10.7296C3.61011 8.99961 5.01011 7.59961 6.74011 7.59961C8.47011 7.59961 9.87011 9.00961 9.87011 10.7296Z" fill="white"/> <path d="M7.43004 10.7293C7.43004 11.1093 7.12004 11.4193 6.73004 11.4193C6.34004 11.4193 6.04004 11.1093 6.04004 10.7293C6.04004 10.3493 6.35004 10.0293 6.73004 10.0293C7.11004 10.0293 7.43004 10.3393 7.43004 10.7293Z" fill="white"/> </g> <defs> <clipPath id="clip0_2085_391873"> <rect width="24" height="24" fill="white"/> </clipPath> </defs> </svg>
