<svg width="24" height="24" viewBox="0 0 24 24" fill="none" xmlns="http://www.w3.org/2000/svg"> <g clip-path="url(#clip0_4482_4349)"> <path d="M12 2.25C6.62 2.25 2.25 6.62 2.25 12C2.25 17.38 6.62 21.75 12 21.75C17.38 21.75 21.75 17.38 21.75 12C21.75 6.62 17.38 2.25 12 2.25ZM15.78 17.13C15.63 17.28 15.44 17.35 15.25 17.35C15.06 17.35 14.87 17.28 14.72 17.13C13.27 15.68 10.73 15.68 9.28003 17.13C8.99003 17.42 8.50997 17.42 8.21997 17.13C7.92997 16.84 7.92997 16.36 8.21997 16.07C9.22997 15.06 10.57 14.5 12 14.5C13.43 14.5 14.77 15.06 15.78 16.07C16.07 16.36 16.07 16.83 15.78 17.13Z" fill="white"/> </g> <defs> <clipPath id="clip0_4482_4349"> <rect width="24" height="24" fill="white"/> </clipPath> </defs> </svg>
