<svg width="24" height="24" viewBox="0 0 24 24" fill="none" xmlns="http://www.w3.org/2000/svg"> <g clip-path="url(#clip0_2085_384106)"> <path d="M22.53 15.1501L20.42 13.0401C20.28 12.9001 20.1 12.8201 19.89 12.8201C19.68 12.8201 19.5 12.9001 19.36 13.0401L17.26 15.1501C16.97 15.4401 16.97 15.9201 17.26 16.2101C17.41 16.3601 17.6 16.4301 17.79 16.4301C17.98 16.4301 18.17 16.3601 18.32 16.2101L19.14 15.3901V17.7901C19.14 18.8301 18.3 19.6701 17.26 19.6701C16.22 19.6701 15.38 18.8301 15.38 17.7901V7.53008C15.38 5.66008 13.86 4.15008 12 4.15008C10.93 4.15008 9.99 4.66008 9.37 5.43008C8.75 4.65008 7.81 4.15008 6.74 4.15008C5.98 4.15008 5.28 4.41008 4.71 4.84008C4.35 3.68008 3.28 2.83008 2 2.83008C1.59 2.83008 1.25 3.17008 1.25 3.58008C1.25 3.99008 1.59 4.33008 2 4.33008C2.75 4.33008 3.36 4.94008 3.36 5.69008V19.3701C3.36 19.7801 3.7 20.1201 4.11 20.1201C4.52 20.1201 4.86 19.7801 4.86 19.3701V7.53008C4.86 6.49008 5.7 5.65008 6.74 5.65008C7.78 5.65008 8.62 6.49008 8.62 7.53008V19.3701C8.62 19.7801 8.96 20.1201 9.37 20.1201C9.78 20.1201 10.12 19.7801 10.12 19.3701V7.53008C10.12 6.49008 10.96 5.65008 12 5.65008C13.04 5.65008 13.88 6.49008 13.88 7.53008V17.7901C13.88 19.6601 15.4 21.1701 17.26 21.1701C19.12 21.1701 20.64 19.6501 20.64 17.7901V15.3901L21.47 16.2201C21.76 16.5101 22.24 16.5101 22.53 16.2201C22.82 15.9301 22.82 15.4501 22.53 15.1601V15.1501Z" fill="white"/> </g> <defs> <clipPath id="clip0_2085_384106"> <rect width="24" height="24" fill="white"/> </clipPath> </defs> </svg>
