<svg width="24" height="24" viewBox="0 0 24 24" fill="none" xmlns="http://www.w3.org/2000/svg"> <g clip-path="url(#clip0_4482_8968)"> <path d="M10.33 10.3301L2.69 17.9701C2.25 18.4101 2 19.0101 2 19.6401C2 20.2701 2.25 20.8601 2.69 21.3101C3.13 21.7501 3.73 22.0001 4.36 22.0001C4.99 22.0001 5.58 21.7501 6.03 21.3101L13.67 13.6701" fill="white"/> <path d="M20.1798 2.03989L16.9198 3.12989C16.3798 3.30989 16.0098 3.81989 16.0098 4.38989V6.65989C16.0098 7.39989 16.6098 7.98989 17.3398 7.98989H19.6198C20.1898 7.98989 20.6998 7.61989 20.8798 7.07989L21.9698 3.81989C22.0498 3.57989 21.9898 3.31989 21.8098 3.13989L20.8698 2.19989C20.6898 2.01989 20.4298 1.95989 20.1898 2.03989H20.1798Z" fill="white"/> <path d="M12.0004 12.7501C11.8104 12.7501 11.6204 12.6801 11.4704 12.5301C11.1804 12.2401 11.1804 11.7601 11.4704 11.4701L16.7904 6.15012C17.0804 5.86012 17.5604 5.86012 17.8504 6.15012C18.1404 6.44012 18.1404 6.92012 17.8504 7.21012L12.5304 12.5301C12.3804 12.6801 12.1904 12.7501 12.0004 12.7501Z" fill="white"/> <path d="M14.2197 14.97C14.0297 14.97 13.8397 14.9 13.6897 14.75L9.24973 10.31C8.95973 10.02 8.95973 9.53997 9.24973 9.24997C9.53973 8.95997 10.0197 8.95997 10.3097 9.24997L14.7497 13.69C15.0397 13.98 15.0397 14.46 14.7497 14.75C14.5997 14.9 14.4097 14.97 14.2197 14.97Z" fill="white"/> <path d="M12.8201 6.74012L7.89012 1.80012C7.15012 1.06012 5.95012 1.06012 5.22012 1.80012L1.80012 5.21012C1.06012 5.95012 1.06012 7.14012 1.80012 7.88012L5.07012 11.1501C5.22012 11.3001 5.41012 11.3701 5.60012 11.3701C5.79012 11.3701 5.98012 11.3001 6.13012 11.1501C6.42012 10.8601 6.42012 10.3801 6.13012 10.0901L2.86012 6.82012C2.71012 6.67012 2.71012 6.42012 2.86012 6.27012L6.27012 2.86012C6.42012 2.71012 6.67012 2.71012 6.82012 2.86012L11.7501 7.79012C12.0401 8.08012 12.5201 8.08012 12.8101 7.79012C13.1001 7.50012 13.1001 7.02012 12.8101 6.73012L12.8201 6.74012Z" fill="white"/> <path d="M22.2003 16.1101L17.2703 11.1801C16.9803 10.8901 16.5003 10.8901 16.2103 11.1801C15.9203 11.4701 15.9203 11.9501 16.2103 12.2401L21.1403 17.1701C21.2903 17.3201 21.2903 17.5701 21.1403 17.7201L17.7303 21.1301C17.5803 21.2801 17.3303 21.2801 17.1803 21.1301L13.9103 17.8601C13.6203 17.5701 13.1403 17.5701 12.8503 17.8601C12.5603 18.1501 12.5603 18.6301 12.8503 18.9201L16.1203 22.1901C16.4903 22.5601 16.9703 22.7401 17.4503 22.7401C17.9303 22.7401 18.4203 22.5601 18.7903 22.1901L22.2003 18.7801C22.9403 18.0401 22.9403 16.8501 22.2003 16.1101Z" fill="white"/> </g> <defs> <clipPath id="clip0_4482_8968"> <rect width="24" height="24" fill="white"/> </clipPath> </defs> </svg>
