<svg width="24" height="24" viewBox="0 0 24 24" fill="none" xmlns="http://www.w3.org/2000/svg"> <g clip-path="url(#clip0_4482_4779)"> <path d="M13.3399 22.0005H8.59992C7.55992 22.0005 6.57993 21.5005 5.97993 20.6505L2.37992 15.6205C1.88992 14.9305 1.87991 14.0205 2.33991 13.3205C3.04991 12.2505 4.55991 12.1105 5.45991 13.0105L6.92991 14.4805V10.1805V5.88046C6.92991 4.69046 7.8899 3.73047 9.0799 3.73047C10.2699 3.73047 11.2299 4.69046 11.2299 5.88046V9.47047C11.2299 9.89047 11.5099 10.2505 11.9099 10.3505L15.9399 11.4105C17.1499 11.7305 17.9899 12.8205 17.9899 14.0605V17.4305C17.9899 19.9505 15.9399 22.0005 13.4199 22.0005H13.3399Z" fill="white"/> <path d="M20.46 4.09031C20.27 4.09031 20.08 4.02032 19.93 3.87032L19 2.95031L18.08 3.87032C17.79 4.16032 17.31 4.16032 17.02 3.87032C16.73 3.58032 16.73 3.10031 17.02 2.81031L18.48 1.35031C18.77 1.06031 19.25 1.06031 19.54 1.35031L21 2.81031C21.29 3.10031 21.29 3.58032 21 3.87032C20.84 4.02032 20.65 4.09031 20.46 4.09031Z" fill="white"/> <path d="M19 8.75047C18.81 8.75047 18.62 8.68047 18.47 8.53047L17.01 7.07047C16.72 6.78047 16.72 6.30047 17.01 6.01047C17.3 5.72047 17.78 5.72047 18.07 6.01047L18.99 6.93047L19.91 6.01047C20.2 5.72047 20.68 5.72047 20.97 6.01047C21.26 6.30047 21.26 6.78047 20.97 7.07047L19.51 8.53047C19.38 8.68047 19.19 8.75047 19 8.75047Z" fill="white"/> </g> <defs> <clipPath id="clip0_4482_4779"> <rect width="24" height="24" fill="white"/> </clipPath> </defs> </svg>
