<svg width="24" height="24" viewBox="0 0 24 24" fill="none" xmlns="http://www.w3.org/2000/svg"> <g clip-path="url(#clip0_3247_9523)"> <path d="M6.56992 7.90989C6.26992 7.73989 5.9 7.7899 5.66 8.0299L2.21994 11.4699C1.92994 11.7599 1.92994 12.2399 2.21994 12.5299L5.66 15.9699C5.81 16.1199 5.99991 16.1899 6.18991 16.1899C6.31991 16.1899 6.44992 16.1599 6.56992 16.0899C6.85992 15.9199 7.00001 15.5799 6.92001 15.2499L6.05002 11.9999L6.92001 8.74989C7.00001 8.41989 6.85992 8.07989 6.56992 7.90989Z" fill="white"/> <path d="M21.7801 11.4696L18.34 8.02957C18.19 7.87957 18.0001 7.80957 17.8101 7.80957C17.6801 7.80957 17.5501 7.83957 17.4301 7.90957C17.1401 8.07957 17 8.41957 17.08 8.74957L17.95 11.9996L17.08 15.2496C17 15.5796 17.1401 15.9196 17.4301 16.0896C17.7301 16.2596 18.1 16.2096 18.34 15.9696L21.7801 12.5296C22.0701 12.2396 22.0701 11.7596 21.7801 11.4696Z" fill="white"/> <path d="M14.87 11.0996H9.14001C8.64001 11.0996 8.23999 11.4996 8.23999 11.9996C8.23999 12.4996 8.64001 12.8996 9.14001 12.8996H14.87C15.37 12.8996 15.77 12.4996 15.77 11.9996C15.77 11.4996 15.36 11.0996 14.87 11.0996Z" fill="white"/> </g> <defs> <clipPath id="clip0_3247_9523"> <rect width="24" height="24" fill="white"/> </clipPath> </defs> </svg>
