<svg width="24" height="24" viewBox="0 0 24 24" fill="none" xmlns="http://www.w3.org/2000/svg"> <g clip-path="url(#clip0_3247_9522)"> <path d="M8.75 6.90968L12 6.03968L15.25 6.90968C15.58 6.98968 15.92 6.84969 16.09 6.55969C16.26 6.25969 16.21 5.88968 15.97 5.64968L12.53 2.20969C12.24 1.91969 11.76 1.91969 11.47 2.20969L8.03003 5.64968C7.88003 5.79968 7.81006 5.98968 7.81006 6.17968C7.81006 6.30968 7.84003 6.43969 7.91003 6.55969C8.08003 6.84969 8.42 6.98968 8.75 6.90968Z" fill="white"/> <path d="M16.09 17.4299C15.92 17.1399 15.58 16.9999 15.25 17.0799L12 17.9499L8.74999 17.0799C8.41999 16.9999 8.08002 17.1399 7.91002 17.4299C7.74002 17.7299 7.79001 18.0999 8.03001 18.3399L11.47 21.7799C11.76 22.0699 12.24 22.0699 12.53 21.7799L15.97 18.3399C16.12 18.1899 16.1899 17.9999 16.1899 17.8099C16.1899 17.6799 16.16 17.5499 16.09 17.4299Z" fill="white"/> <path d="M11.1 9.13047V14.8605C11.1 15.3605 11.5 15.7605 12 15.7605C12.5 15.7605 12.9 15.3605 12.9 14.8605V9.13047C12.9 8.63047 12.5 8.23047 12 8.23047C11.5 8.23047 11.1 8.63047 11.1 9.13047Z" fill="white"/> </g> <defs> <clipPath id="clip0_3247_9522"> <rect width="24" height="24" fill="white"/> </clipPath> </defs> </svg>
