<svg width="24" height="24" viewBox="0 0 24 24" fill="none" xmlns="http://www.w3.org/2000/svg"> <g clip-path="url(#clip0_4482_1414)"> <path d="M12.1499 22.75H7.1499C4.5299 22.75 2.3999 20.62 2.3999 18V6C2.3999 3.38 4.5299 1.25 7.1499 1.25H16.1499C18.7699 1.25 20.8999 3.38 20.8999 6V13C20.8999 13.41 20.5599 13.75 20.1499 13.75C19.7399 13.75 19.3999 13.41 19.3999 13V6C19.3999 4.21 17.9399 2.75 16.1499 2.75H7.1499C5.3599 2.75 3.8999 4.21 3.8999 6V18C3.8999 19.79 5.3599 21.25 7.1499 21.25H12.1499C12.5599 21.25 12.8999 21.59 12.8999 22C12.8999 22.41 12.5599 22.75 12.1499 22.75Z" fill="white"/> <path d="M17.1499 8.75H16.1499C14.6299 8.75 13.3999 7.52 13.3999 6V5C13.3999 4.59 13.7399 4.25 14.1499 4.25C14.5599 4.25 14.8999 4.59 14.8999 5V6C14.8999 6.69 15.4599 7.25 16.1499 7.25H17.1499C17.5599 7.25 17.8999 7.59 17.8999 8C17.8999 8.41 17.5599 8.75 17.1499 8.75Z" fill="white"/> <path d="M14 12.75H8C7.59 12.75 7.25 12.41 7.25 12C7.25 11.59 7.59 11.25 8 11.25H14C14.41 11.25 14.75 11.59 14.75 12C14.75 12.41 14.41 12.75 14 12.75Z" fill="white"/> <path d="M11 16.75H8C7.59 16.75 7.25 16.41 7.25 16C7.25 15.59 7.59 15.25 8 15.25H11C11.41 15.25 11.75 15.59 11.75 16C11.75 16.41 11.41 16.75 11 16.75Z" fill="white"/> <path d="M21.5299 21.4701L19.8499 19.7901C20.1799 19.2701 20.3699 18.6601 20.3699 18.0001C20.3699 16.1401 18.8599 14.6201 16.9899 14.6201C15.1199 14.6201 13.6099 16.1301 13.6099 18.0001C13.6099 19.8701 15.1199 21.3801 16.9899 21.3801C17.6499 21.3801 18.2599 21.1801 18.7799 20.8601L20.4598 22.5401C20.6098 22.6901 20.7999 22.7601 20.9899 22.7601C21.1799 22.7601 21.3699 22.6901 21.5199 22.5401C21.8199 22.2401 21.8199 21.7601 21.5299 21.4701Z" fill="white"/> </g> <defs> <clipPath id="clip0_4482_1414"> <rect width="24" height="24" fill="white"/> </clipPath> </defs> </svg>
