<svg width="24" height="24" viewBox="0 0 24 24" fill="none" xmlns="http://www.w3.org/2000/svg"> <g clip-path="url(#clip0_4482_8200)"> <path d="M22.5295 22.53C22.3795 22.68 22.1895 22.75 21.9995 22.75C21.8095 22.75 21.6195 22.68 21.4695 22.53L18.5195 19.58C18.8995 19.25 19.2495 18.9 19.5795 18.52L22.5295 21.47C22.8195 21.76 22.8195 22.24 22.5295 22.53Z" fill="white"/> <path d="M12 2C6.48 2 2 6.48 2 12C2 17.52 6.48 22 12 22C14.49 22 16.77 21.09 18.52 19.58C18.9 19.25 19.25 18.9 19.58 18.52C21.09 16.77 22 14.49 22 12C22 6.48 17.52 2 12 2ZM13.22 14.81H8.92C8.51 14.81 8.17 14.47 8.17 14.06C8.17 13.65 8.51 13.31 8.92 13.31H13.22C13.63 13.31 13.97 13.65 13.97 14.06C13.97 14.47 13.63 14.81 13.22 14.81ZM15 11.5H8.92C8.51 11.5 8.17 11.16 8.17 10.75C8.17 10.34 8.51 10 8.92 10H15C15.41 10 15.75 10.34 15.75 10.75C15.75 11.16 15.41 11.5 15 11.5Z" fill="white"/> </g> <defs> <clipPath id="clip0_4482_8200"> <rect width="24" height="24" fill="white"/> </clipPath> </defs> </svg>
