<svg width="24" height="24" viewBox="0 0 24 24" fill="none" xmlns="http://www.w3.org/2000/svg"> <g clip-path="url(#clip0_3111_13147)"> <path d="M21.8901 20.23C21.5601 19.62 20.8601 19.28 19.9201 19.28C19.2101 19.28 18.6001 19.57 18.2401 20.07C17.8801 20.57 17.8001 21.24 18.0201 21.91C18.4501 23.21 19.2001 23.5 19.6101 23.55C19.6701 23.56 19.7301 23.56 19.8001 23.56C20.2401 23.56 20.9201 23.37 21.5801 22.38C22.1101 21.61 22.2101 20.84 21.8901 20.23Z" fill="white"/> <path d="M18.3701 8.26L18.0301 9.5C17.8101 10.3 17.1101 10.84 16.2801 10.84C15.4501 10.84 14.7501 10.31 14.5301 9.5L14.1901 8.26C14.0201 7.66 13.5601 7.2 12.9601 7.03L11.6901 6.69C10.9101 6.47 10.3801 5.77 10.3801 4.95C10.3801 4.24 10.7901 3.64 11.4201 3.33C11.2601 3.33 11.1001 3.31 10.9301 3.31C5.96005 3.31 1.93005 7.33 1.93005 12.3C1.93005 17.27 5.96005 21.3 10.9301 21.3C15.9001 21.3 19.9201 17.27 19.9201 12.3C19.9201 10.62 19.4501 9.05 18.6501 7.7C18.5301 7.87 18.4301 8.05 18.3701 8.26Z" fill="white"/> <path d="M20.78 4.98C20.78 5.07 20.73 5.27 20.49 5.35L19.22 5.7C18.13 6 17.31 6.82 17.01 7.91L16.67 9.15C16.59 9.43 16.37 9.46 16.27 9.46C16.17 9.46 15.95 9.43 15.87 9.15L15.53 7.9C15.23 6.82 14.4 6 13.32 5.7L12.07 5.36C11.8 5.28 11.77 5.05 11.77 4.96C11.77 4.86 11.8 4.63 12.07 4.55L13.33 4.22C14.41 3.91 15.23 3.09 15.53 2.01L15.89 0.699997C15.98 0.479997 16.18 0.449997 16.27 0.449997C16.36 0.449997 16.57 0.479997 16.65 0.679997L17.01 2C17.31 3.08 18.14 3.9 19.22 4.21L20.51 4.56C20.77 4.66 20.78 4.9 20.78 4.98Z" fill="white"/> </g> <defs> <clipPath id="clip0_3111_13147"> <rect width="24" height="24" fill="white"/> </clipPath> </defs> </svg>
