<svg width="24" height="24" viewBox="0 0 24 24" fill="none" xmlns="http://www.w3.org/2000/svg"> <g clip-path="url(#clip0_4482_4620)"> <path d="M12.75 8.75V13H11.25V8.75C11.25 8.34 11.59 8 12 8C12.41 8 12.75 8.34 12.75 8.75Z" fill="white"/> <path d="M12.0001 10C10.1101 10 8.57007 8.46 8.57007 6.57V5.43C8.57007 3.54 10.1101 2 12.0001 2C13.8901 2 15.4301 3.54 15.4301 5.43V6.57C15.4301 8.46 13.8901 10 12.0001 10Z" fill="white"/> <path d="M13.4999 17.5002C13.4999 17.0902 13.8399 16.7502 14.2499 16.7502H16.1699C16.4299 16.7502 16.6399 16.5602 16.6699 16.3002L16.78 15.2002C16.9 14.0202 15.9799 12.9902 14.7899 12.9902H9.20996C8.02996 12.9902 7.09991 14.0102 7.21991 15.1902L7.72992 20.1902C7.82992 21.2102 8.68991 21.9902 9.71991 21.9902H14.28C15.31 21.9902 16.16 21.2102 16.27 20.1902L16.4099 18.7902C16.4399 18.5002 16.2099 18.2402 15.9099 18.2402H14.2399C13.8399 18.2502 13.4999 17.9102 13.4999 17.5002Z" fill="white"/> </g> <defs> <clipPath id="clip0_4482_4620"> <rect width="24" height="24" fill="white"/> </clipPath> </defs> </svg>
