<svg width="24" height="24" viewBox="0 0 24 24" fill="none" xmlns="http://www.w3.org/2000/svg"> <g clip-path="url(#clip0_4482_12624)"> <path d="M9.2198 10.7004C9.72791 10.7004 10.1398 10.2885 10.1398 9.78035C10.1398 9.27225 9.72791 8.86035 9.2198 8.86035C8.7117 8.86035 8.2998 9.27225 8.2998 9.78035C8.2998 10.2885 8.7117 10.7004 9.2198 10.7004Z" fill="white"/> <path d="M14.7804 15.1398C15.2885 15.1398 15.7004 14.7279 15.7004 14.2198C15.7004 13.7117 15.2885 13.2998 14.7804 13.2998C14.2722 13.2998 13.8604 13.7117 13.8604 14.2198C13.8604 14.7279 14.2722 15.1398 14.7804 15.1398Z" fill="white"/> <path d="M21.41 6.97L17.03 2.59C16.65 2.22 16.15 2 15.62 2H8.39C7.86 2 7.35 2.21 6.98 2.59L2.59 6.97C2.21 7.35 2 7.85 2 8.38V15.61C2 16.14 2.21 16.65 2.59 17.02L6.98 21.41C7.36 21.79 7.86 22 8.39 22H15.62C16.15 22 16.66 21.79 17.03 21.41L21.02 17.42C21.65 16.79 22 15.95 22 15.06V8.38C22 7.85 21.79 7.34 21.41 6.97ZM9.97 12.06V15.33C9.97 15.74 9.63 16.08 9.22 16.08C8.81 16.08 8.47 15.74 8.47 15.33V12.06C7.51 11.74 6.8 10.84 6.8 9.77C6.8 8.44 7.88 7.35 9.22 7.35C10.56 7.35 11.64 8.43 11.64 9.77C11.64 10.84 10.94 11.74 9.97 12.06ZM14.78 16.64C13.45 16.64 12.36 15.56 12.36 14.22C12.36 13.15 13.06 12.25 14.03 11.93V8.66C14.03 8.25 14.37 7.91 14.78 7.91C15.19 7.91 15.53 8.25 15.53 8.66V11.93C16.49 12.25 17.2 13.15 17.2 14.22C17.2 15.55 16.12 16.64 14.78 16.64Z" fill="white"/> </g> <defs> <clipPath id="clip0_4482_12624"> <rect width="24" height="24" fill="white"/> </clipPath> </defs> </svg>
