<svg width="24" height="24" viewBox="0 0 24 24" fill="none" xmlns="http://www.w3.org/2000/svg"> <g clip-path="url(#clip0_4418_8721)"> <path d="M18.5101 8.25078C19.0101 8.25078 19.4101 7.85078 19.4101 7.35078V2.70078C19.4101 2.20078 19.0101 1.80078 18.5101 1.80078C18.0101 1.80078 17.6101 2.20078 17.6101 2.70078V7.35078C17.6101 7.84078 18.0201 8.25078 18.5101 8.25078Z" fill="white"/> <path d="M12.0001 15.75C11.5001 15.75 11.1001 16.15 11.1001 16.65V21.3C11.1001 21.8 11.5001 22.2 12.0001 22.2C12.5001 22.2 12.9001 21.8 12.9001 21.3V16.65C12.9001 16.16 12.5001 15.75 12.0001 15.75Z" fill="white"/> <path d="M5.49009 8.25078C5.99009 8.25078 6.39009 7.85078 6.39009 7.35078V2.70078C6.39009 2.20078 5.99009 1.80078 5.49009 1.80078C4.99009 1.80078 4.59009 2.20078 4.59009 2.70078V7.35078C4.59009 7.84078 4.99009 8.25078 5.49009 8.25078Z" fill="white"/> <path d="M7.34998 10.1699H3.62998C3.12998 10.1699 2.72998 10.5699 2.72998 11.0699C2.72998 11.5699 3.12998 11.9699 3.62998 11.9699H4.58998V21.2999C4.58998 21.7999 4.98998 22.1999 5.48998 22.1999C5.98998 22.1999 6.38998 21.7999 6.38998 21.2999V11.9699H7.34998C7.84998 11.9699 8.24998 11.5699 8.24998 11.0699C8.24998 10.5699 7.83998 10.1699 7.34998 10.1699Z" fill="white"/> <path d="M20.37 10.1699H16.65C16.15 10.1699 15.75 10.5699 15.75 11.0699C15.75 11.5699 16.15 11.9699 16.65 11.9699H17.61V21.2999C17.61 21.7999 18.01 22.1999 18.51 22.1999C19.01 22.1999 19.41 21.7999 19.41 21.2999V11.9699H20.37C20.87 11.9699 21.27 11.5699 21.27 11.0699C21.27 10.5699 20.87 10.1699 20.37 10.1699Z" fill="white"/> <path d="M13.86 12.0308H12.9V2.70078C12.9 2.20078 12.5 1.80078 12 1.80078C11.5 1.80078 11.1 2.20078 11.1 2.70078V12.0308H10.14C9.63999 12.0308 9.23999 12.4308 9.23999 12.9308C9.23999 13.4308 9.63999 13.8308 10.14 13.8308H13.86C14.36 13.8308 14.76 13.4308 14.76 12.9308C14.76 12.4308 14.36 12.0308 13.86 12.0308Z" fill="white"/> </g> <defs> <clipPath id="clip0_4418_8721"> <rect width="24" height="24" fill="white"/> </clipPath> </defs> </svg>
