<svg width="24" height="24" viewBox="0 0 24 24" fill="none" xmlns="http://www.w3.org/2000/svg"> <g clip-path="url(#clip0_2085_389344)"> <path d="M13.33 19.3301V22.0001H4C2.9 22.0001 2 21.1001 2 20.0001V19.3301H13.33Z" fill="white"/> <path d="M22.0001 19.3301V20.0001C22.0001 21.1001 21.1001 22.0001 20.0001 22.0001H19.3301V19.3301H22.0001Z" fill="white"/> <path d="M20 5.33008H19.33V6.67008C19.33 7.77008 18.44 8.67008 17.33 8.67008H6.67C5.56 8.67008 4.67 7.77008 4.67 6.67008V5.33008H4C2.9 5.33008 2 6.23008 2 7.33008V19.3301H13.33V12.3301C13.33 11.7801 13.78 11.3301 14.33 11.3301H18.33C18.88 11.3301 19.33 11.7801 19.33 12.3301V19.3301H22V7.33008C22 6.23008 21.1 5.33008 20 5.33008ZM10.67 15.6701C10.67 16.2201 10.22 16.6701 9.67 16.6701H5.67C5.12 16.6701 4.67 16.2201 4.67 15.6701V12.3401C4.67 11.7901 5.12 11.3401 5.67 11.3401H9.67C10.22 11.3401 10.67 11.7901 10.67 12.3401V15.6701Z" fill="white"/> <path d="M17.3299 2H6.66992C5.55992 2 4.66992 2.9 4.66992 4V6.67C4.66992 7.77 5.55992 8.67 6.66992 8.67H17.3299C18.4399 8.67 19.3299 7.77 19.3299 6.67V4C19.3299 2.9 18.4399 2 17.3299 2ZM9.58992 5.94C9.80992 6.26 9.71992 6.7 9.39992 6.92C9.27992 7 9.13992 7.04 9.00992 7.04C8.77992 7.04 8.55992 6.93 8.41992 6.73L8.33992 6.61L8.25992 6.73C8.11992 6.93 7.89992 7.04 7.66992 7.04C7.53992 7.04 7.39992 7 7.27992 6.92C6.95992 6.7 6.86992 6.27 7.08992 5.94L7.49992 5.33L7.08992 4.72C6.86992 4.4 6.95992 3.96 7.27992 3.74C7.59992 3.52 8.03992 3.61 8.25992 3.93L8.33992 4.05L8.41992 3.93C8.62992 3.61 9.06992 3.52 9.39992 3.74C9.71992 3.96 9.80992 4.39 9.58992 4.72L9.17992 5.33L9.58992 5.94ZM13.2499 5.94C13.4699 6.26 13.3799 6.7 13.0499 6.92C12.9299 7 12.7999 7.04 12.6599 7.04C12.4299 7.04 12.2099 6.93 12.0699 6.73L11.9899 6.61L11.9099 6.73C11.7699 6.93 11.5499 7.04 11.3199 7.04C11.1899 7.04 11.0499 7 10.9299 6.92C10.6099 6.7 10.5199 6.27 10.7299 5.94L11.1399 5.33L10.7299 4.72C10.5099 4.4 10.5999 3.96 10.9299 3.74C11.2499 3.52 11.6899 3.61 11.8999 3.93L11.9799 4.05L12.0599 3.93C12.2699 3.61 12.7099 3.52 13.0299 3.74C13.3499 3.96 13.4399 4.39 13.2299 4.72L12.8199 5.33L13.2299 5.94H13.2499ZM16.9199 5.94C17.1399 6.26 17.0499 6.7 16.7199 6.92C16.5999 7 16.4699 7.04 16.3299 7.04C16.0999 7.04 15.8799 6.93 15.7399 6.73L15.6599 6.61L15.5799 6.73C15.4399 6.93 15.2199 7.04 14.9899 7.04C14.8599 7.04 14.7199 7 14.5999 6.92C14.2799 6.7 14.1899 6.27 14.3999 5.94L14.8099 5.33L14.3999 4.72C14.1799 4.4 14.2699 3.96 14.5999 3.74C14.9199 3.52 15.3599 3.61 15.5699 3.93L15.6499 4.05L15.7299 3.93C15.9499 3.61 16.3799 3.52 16.6999 3.74C17.0199 3.96 17.1099 4.39 16.8999 4.72L16.4899 5.33L16.8999 5.94H16.9199Z" fill="white"/> <path d="M14.6699 17.3697H13.3399C12.9499 17.3697 12.6399 17.0597 12.6399 16.6697C12.6399 16.2797 12.9499 15.9697 13.3399 15.9697H14.6699C15.0599 15.9697 15.3699 16.2797 15.3699 16.6697C15.3699 17.0597 15.0599 17.3697 14.6699 17.3697Z" fill="white"/> </g> <defs> <clipPath id="clip0_2085_389344"> <rect width="24" height="24" fill="white"/> </clipPath> </defs> </svg>
