<svg width="24" height="24" viewBox="0 0 24 24" fill="none" xmlns="http://www.w3.org/2000/svg"> <g clip-path="url(#clip0_2085_384564)"> <path d="M19.4099 4.71L13.7399 2.39C12.4599 1.87 11.0299 1.87 9.74992 2.39L4.07992 4.71C3.22992 5.06 2.66992 5.89 2.66992 6.81V10.86C2.66992 16.01 6.53992 20.83 11.7499 22C16.9499 20.83 20.8299 16.01 20.8299 10.86V6.81C20.8299 5.89 20.2699 5.06 19.4199 4.71H19.4099ZM9.16992 14.22C9.16992 14.63 8.82992 14.97 8.41992 14.97C8.00992 14.97 7.66992 14.63 7.66992 14.22V11.16C7.66992 10.75 8.00992 10.41 8.41992 10.41C8.82992 10.41 9.16992 10.75 9.16992 11.16V14.22ZM12.4999 14.22C12.4999 14.63 12.1599 14.97 11.7499 14.97C11.3399 14.97 10.9999 14.63 10.9999 14.22V7.55C10.9999 7.14 11.3399 6.8 11.7499 6.8C12.1599 6.8 12.4999 7.14 12.4999 7.55V14.22ZM15.8299 14.22C15.8299 14.63 15.4899 14.97 15.0799 14.97C14.6699 14.97 14.3299 14.63 14.3299 14.22V9.78C14.3299 9.37 14.6699 9.03 15.0799 9.03C15.4899 9.03 15.8299 9.37 15.8299 9.78V14.22Z" fill="white"/> </g> <defs> <clipPath id="clip0_2085_384564"> <rect width="24" height="24" fill="white"/> </clipPath> </defs> </svg>
