<svg width="24" height="24" viewBox="0 0 24 24" fill="none" xmlns="http://www.w3.org/2000/svg"> <path d="M15.8501 2H22.0001V8.15" fill="white"/> <path d="M22.0003 1.14453C22.4724 1.14474 22.8548 1.52793 22.8548 2V8.15039C22.8547 8.49588 22.6466 8.80706 22.3275 8.93945C22.0082 9.07172 21.6404 8.9991 21.3958 8.75488L15.2454 2.60449C15.0009 2.35998 14.9276 1.99232 15.0599 1.67285C15.1922 1.35336 15.5041 1.14453 15.8499 1.14453H22.0003ZM21.1449 6.08594V2.85547H17.9144L21.1449 6.08594Z" fill="white"/> <path d="M21.395 1.39495C21.7289 1.06106 22.271 1.06106 22.6049 1.39495C22.9385 1.7288 22.9385 2.2701 22.6049 2.60394L14.9145 10.2944C14.5806 10.628 14.0393 10.628 13.7055 10.2944C13.3716 9.96047 13.3716 9.41831 13.7055 9.08441L21.395 1.39495Z" fill="white"/> <path d="M9.0849 13.7055C9.41879 13.3716 9.96096 13.3716 10.2949 13.7055C10.6285 14.0393 10.6285 14.5806 10.2949 14.9145L2.60443 22.6049C2.27058 22.9385 1.72929 22.9385 1.39544 22.6049C1.06154 22.271 1.06154 21.7289 1.39544 21.395L9.0849 13.7055Z" fill="white"/> <path d="M8.15 21.9996H2V15.8496" fill="white"/> <path d="M1.67285 15.0592C1.99232 14.9269 2.35998 15.0002 2.60449 15.2447L8.75488 21.3951C8.9991 21.6396 9.07172 22.0074 8.93945 22.3267C8.80706 22.6459 8.49588 22.8539 8.15039 22.8541H2C1.52793 22.8541 1.14474 22.4716 1.14453 21.9996V15.8492C1.14453 15.5034 1.35336 15.1915 1.67285 15.0592ZM2.85547 21.1441H6.08594L2.85547 17.9137V21.1441Z" fill="white"/> </svg>
