<svg width="24" height="24" viewBox="0 0 24 24" fill="none" xmlns="http://www.w3.org/2000/svg"> <g clip-path="url(#clip0_4418_8640)"> <path d="M19.53 5.53L5.53 19.53C5.51 19.55 5.5 19.56 5.48 19.57C5.1 19.25 4.75 18.9 4.43 18.52C2.91 16.77 2 14.49 2 12C2 6.48 6.48 2 12 2C14.49 2 16.77 2.91 18.52 4.43C18.9 4.75 19.25 5.1 19.57 5.48C19.56 5.5 19.55 5.51 19.53 5.53Z" fill="white"/> <path d="M22.0001 12.0008C22.0001 17.4908 17.4901 22.0008 12.0001 22.0008C10.5001 22.0008 9.0801 21.6708 7.8001 21.0708C7.1801 20.7808 7.0601 19.9508 7.5401 19.4608L19.4601 7.54084C19.9401 7.06084 20.7801 7.18084 21.0701 7.80084C21.6701 9.07084 22.0001 10.5008 22.0001 12.0008Z" fill="white"/> <path d="M21.7699 2.23086C21.4699 1.93086 20.9799 1.93086 20.6799 2.23086L2.22988 20.6909C1.92988 20.9909 1.92988 21.4809 2.22988 21.7809C2.37988 21.9209 2.56988 22.0009 2.76988 22.0009C2.96988 22.0009 3.15988 21.9209 3.30988 21.7709L21.7699 3.31086C22.0799 3.01086 22.0799 2.53086 21.7699 2.23086Z" fill="white"/> </g> <defs> <clipPath id="clip0_4418_8640"> <rect width="24" height="24" fill="white"/> </clipPath> </defs> </svg>
