<svg width="24" height="24" viewBox="0 0 24 24" fill="none" xmlns="http://www.w3.org/2000/svg"> <g clip-path="url(#clip0_3247_9511)"> <path d="M12.05 5.38965H2.5C2.09 5.38965 1.75 5.04965 1.75 4.63965C1.75 4.22965 2.09 3.88965 2.5 3.88965H12.05C12.46 3.88965 12.8 4.22965 12.8 4.63965C12.8 5.04965 12.46 5.38965 12.05 5.38965Z" fill="white"/> <path d="M12.05 10.71H2.5C2.09 10.71 1.75 10.37 1.75 9.95996C1.75 9.54996 2.09 9.20996 2.5 9.20996H12.05C12.46 9.20996 12.8 9.54996 12.8 9.95996C12.8 10.37 12.46 10.71 12.05 10.71Z" fill="white"/> <path d="M21.5 16.0303H13.36C12.95 16.0303 12.61 15.6903 12.61 15.2803C12.61 14.8703 12.95 14.5303 13.36 14.5303H21.5C21.91 14.5303 22.25 14.8703 22.25 15.2803C22.25 15.6903 21.91 16.0303 21.5 16.0303Z" fill="white"/> <path d="M17.4299 20.1C17.0199 20.1 16.6799 19.76 16.6799 19.35V11.21C16.6799 10.8 17.0199 10.46 17.4299 10.46C17.8399 10.46 18.1799 10.8 18.1799 11.21V19.35C18.1799 19.77 17.8399 20.1 17.4299 20.1Z" fill="white"/> <path d="M6.44 16.0303H2.5C2.09 16.0303 1.75 15.6903 1.75 15.2803C1.75 14.8703 2.09 14.5303 2.5 14.5303H6.44C6.85 14.5303 7.19 14.8703 7.19 15.2803C7.19 15.6903 6.85 16.0303 6.44 16.0303Z" fill="white"/> </g> <defs> <clipPath id="clip0_3247_9511"> <rect width="24" height="24" fill="white"/> </clipPath> </defs> </svg>
