<svg width="24" height="24" viewBox="0 0 24 24" fill="none" xmlns="http://www.w3.org/2000/svg"> <g clip-path="url(#clip0_3247_9509)"> <path d="M18.0901 20.0604C17.6801 20.0604 17.3401 19.7204 17.3401 19.3104V4.69043C17.3401 4.28043 17.6801 3.94043 18.0901 3.94043C18.5001 3.94043 18.8401 4.28043 18.8401 4.69043V19.3104C18.8401 19.7204 18.5001 20.0604 18.0901 20.0604Z" fill="white"/> <path d="M10.65 6.66016H2.25C1.84 6.66016 1.5 6.32016 1.5 5.91016C1.5 5.50016 1.84 5.16016 2.25 5.16016H10.65C11.06 5.16016 11.4 5.50016 11.4 5.91016C11.4 6.32016 11.06 6.66016 10.65 6.66016Z" fill="white"/> <path d="M10.65 12.1396H2.25C1.84 12.1396 1.5 11.7996 1.5 11.3896C1.5 10.9796 1.84 10.6396 2.25 10.6396H10.65C11.06 10.6396 11.4 10.9796 11.4 11.3896C11.4 11.7996 11.06 12.1396 10.65 12.1396Z" fill="white"/> <path d="M6.31 17.6201H2.25C1.84 17.6201 1.5 17.2801 1.5 16.8701C1.5 16.4601 1.84 16.1201 2.25 16.1201H6.31C6.72 16.1201 7.06 16.4601 7.06 16.8701C7.06 17.2801 6.72 17.6201 6.31 17.6201Z" fill="white"/> <path d="M21.7499 15.6602L18.09 19.3102L14.4399 15.6602H21.7499Z" fill="white"/> <path d="M18.09 20.0602C17.9 20.0602 17.7099 19.9902 17.5599 19.8402L13.9099 16.1902C13.6999 15.9802 13.6299 15.6502 13.7499 15.3702C13.8699 15.0902 14.1399 14.9102 14.4399 14.9102H21.7499C22.0499 14.9102 22.3299 15.0902 22.4399 15.3702C22.5599 15.6502 22.49 15.9702 22.28 16.1902L18.6199 19.8402C18.4699 19.9802 18.28 20.0602 18.09 20.0602ZM16.2499 16.4102L18.09 18.2502L19.9299 16.4102H16.2499Z" fill="white"/> </g> <defs> <clipPath id="clip0_3247_9509"> <rect width="24" height="24" fill="white"/> </clipPath> </defs> </svg>
