<svg width="24" height="24" viewBox="0 0 24 24" fill="none" xmlns="http://www.w3.org/2000/svg"> <g clip-path="url(#clip0_4482_14417)"> <path d="M20.3496 6.68C20.3496 3.64 18.8196 1.25 16.8696 1.25C14.9196 1.25 13.3896 3.63 13.3896 6.68C13.3896 8.53 14.5596 10.07 16.1196 10.45V12.49C15.1596 12.81 14.4496 13.71 14.4496 14.78V20.34C14.4496 21.67 15.5296 22.76 16.8696 22.76C18.2096 22.76 19.2896 21.68 19.2896 20.34V14.78C19.2896 13.71 18.5896 12.81 17.6196 12.49V10.45C19.1796 10.07 20.3496 8.52 20.3496 6.68Z" fill="white"/> <path d="M9.96039 1.25C9.55039 1.25 9.21039 1.59 9.21039 2V6.25H7.93039V2.28C7.93039 1.87 7.59039 1.53 7.18039 1.53C6.77039 1.53 6.43039 1.87 6.43039 2.28V6.25H5.15039V2C5.15039 1.59 4.81039 1.25 4.40039 1.25C3.99039 1.25 3.65039 1.59 3.65039 2V8C3.65039 9.57 4.88039 10.85 6.43039 10.95V12.49C5.47039 12.81 4.76039 13.71 4.76039 14.78V20.34C4.76039 21.67 5.84039 22.76 7.18039 22.76C8.52039 22.76 9.60039 21.68 9.60039 20.34V14.78C9.60039 13.71 8.90039 12.81 7.93039 12.49V10.95C9.48039 10.85 10.7104 9.57 10.7104 8V2C10.7104 1.59 10.3704 1.25 9.96039 1.25Z" fill="white"/> </g> <defs> <clipPath id="clip0_4482_14417"> <rect width="24" height="24" fill="white"/> </clipPath> </defs> </svg>
