<svg width="24" height="24" viewBox="0 0 24 24" fill="none" xmlns="http://www.w3.org/2000/svg"> <g clip-path="url(#clip0_4482_1267)"> <path d="M17 2H7C4.25 2 2 4.25 2 7V17C2 19.75 4.25 22 7 22H17C19.75 22 22 19.75 22 17V7C22 4.25 19.75 2 17 2ZM18.28 18.28C18.13 18.43 17.94 18.5 17.75 18.5C17.56 18.5 17.37 18.43 17.22 18.28L15.29 16.35C14.26 17.15 12.97 17.64 11.57 17.64C8.22001 17.64 5.5 14.92 5.5 11.57C5.5 8.22 8.22001 5.5 11.57 5.5C14.92 5.5 17.64 8.22 17.64 11.57C17.64 12.97 17.16 14.26 16.35 15.29L18.28 17.22C18.57 17.51 18.57 17.99 18.28 18.28Z" fill="white"/> <path d="M16.14 11.57C16.14 9.05 14.09 7 11.57 7C9.05001 7 7 9.05 7 11.57C7 14.09 9.05001 16.14 11.57 16.14C14.09 16.14 16.14 14.09 16.14 11.57ZM14.03 13.24L12.45 14.82C12.3 14.97 12.11 15.04 11.92 15.04C11.73 15.04 11.54 14.97 11.39 14.82C11.1 14.53 11.1 14.05 11.39 13.76L11.69 13.46H9.70001C9.29001 13.46 8.95001 13.12 8.95001 12.71C8.95001 12.3 9.29001 11.96 9.70001 11.96H13.5C13.8 11.96 14.08 12.14 14.19 12.42C14.3 12.7 14.24 13.03 14.03 13.24ZM13.5 11.24H9.70001C9.40001 11.24 9.12001 11.06 9.01001 10.78C8.90001 10.5 8.95998 10.18 9.16998 9.96L10.75 8.38C11.04 8.09 11.52 8.09 11.81 8.38C12.1 8.67 12.1 9.15 11.81 9.44L11.51 9.74H13.5C13.91 9.74 14.25 10.08 14.25 10.49C14.25 10.9 13.91 11.24 13.5 11.24Z" fill="white"/> </g> <defs> <clipPath id="clip0_4482_1267"> <rect width="24" height="24" fill="white"/> </clipPath> </defs> </svg>
