<svg width="24" height="24" viewBox="0 0 24 24" fill="none" xmlns="http://www.w3.org/2000/svg"> <g clip-path="url(#clip0_4482_1743)"> <path d="M13.3801 9.2202V8.5802C13.3801 7.8202 12.7601 7.2002 12.0001 7.2002C11.2401 7.2002 10.6201 7.8202 10.6201 8.5802V9.2202H13.3801Z" fill="white"/> <path d="M17 2H7C4.25 2 2 4.25 2 7V17C2 19.75 4.25 22 7 22H17C19.75 22 22 19.75 22 17V7C22 4.25 19.75 2 17 2ZM17 14.56C17 16.21 15.65 17.56 14 17.56H10C8.35 17.56 7 16.21 7 14.56V12.23C7 10.89 7.89999 9.76 9.12 9.38V8.59C9.12 7 10.41 5.71 12 5.71C13.59 5.71 14.88 7 14.88 8.59V9.38C16.1 9.76 17 10.89 17 12.23V14.56Z" fill="white"/> </g> <defs> <clipPath id="clip0_4482_1743"> <rect width="24" height="24" fill="white"/> </clipPath> </defs> </svg>
