<svg width="24" height="24" viewBox="0 0 24 24" fill="none" xmlns="http://www.w3.org/2000/svg"> <g clip-path="url(#clip0_4482_1654)"> <path d="M17 2H7C4.25 2 2 4.25 2 7V17C2 19.75 4.25 22 7 22H17C19.75 22 22 19.75 22 17V7C22 4.25 19.75 2 17 2ZM12.57 13.04H10.03V16C10.03 16.41 9.69 16.75 9.28 16.75C8.87 16.75 8.53 16.41 8.53 16V8C8.53 7.59 8.87 7.25 9.28 7.25H12.57C14.16 7.25 15.46 8.55 15.46 10.14C15.46 11.74 14.17 13.04 12.57 13.04Z" fill="white"/> <path d="M12.57 8.75H10.03V11.54H12.57C13.34 11.54 13.96 10.92 13.96 10.15C13.96 9.38 13.34 8.75 12.57 8.75Z" fill="white"/> </g> <defs> <clipPath id="clip0_4482_1654"> <rect width="24" height="24" fill="white"/> </clipPath> </defs> </svg>
