<svg width="24" height="24" viewBox="0 0 24 24" fill="none" xmlns="http://www.w3.org/2000/svg"> <g clip-path="url(#clip0_4482_8690)"> <path d="M17 2H7C4.24 2 2 4.24 2 7V17C2 19.76 4.24 22 7 22H17C19.76 22 22 19.76 22 17V7C22 4.24 19.76 2 17 2ZM9.11 13.83C9.4 13.54 9.88 13.54 10.17 13.83C10.99 14.66 12.27 14.82 13.29 14.24C14.3 13.66 14.8 12.46 14.49 11.33C14.19 10.2 13.16 9.41 12 9.41C11.59 9.41 11.25 9.07 11.25 8.66C11.25 8.25 11.59 7.91 12 7.91C13.85 7.91 15.47 9.15 15.94 10.94C16.42 12.72 15.64 14.61 14.04 15.53C13.4 15.9 12.7 16.08 12 16.08C10.94 16.08 9.9 15.67 9.11 14.89C8.82 14.6 8.82 14.12 9.11 13.83ZM12 19.42C7.91 19.42 4.58 16.09 4.58 12C4.58 11.59 4.92 11.25 5.33 11.25C5.74 11.25 6.08 11.59 6.08 12C6.08 15.26 8.73 17.92 12 17.92C15.27 17.92 17.92 15.27 17.92 12C17.92 8.73 15.27 6.08 12 6.08C11.59 6.08 11.25 5.74 11.25 5.33C11.25 4.92 11.59 4.58 12 4.58C16.09 4.58 19.42 7.91 19.42 12C19.42 16.09 16.09 19.42 12 19.42Z" fill="white"/> </g> <defs> <clipPath id="clip0_4482_8690"> <rect width="24" height="24" fill="white"/> </clipPath> </defs> </svg>
