<svg width="24" height="24" viewBox="0 0 24 24" fill="none" xmlns="http://www.w3.org/2000/svg"> <g clip-path="url(#clip0_4482_4507)"> <path d="M12 22C13.3807 22 14.5 20.8807 14.5 19.5C14.5 18.1193 13.3807 17 12 17C10.6193 17 9.5 18.1193 9.5 19.5C9.5 20.8807 10.6193 22 12 22Z" fill="white"/> <path d="M19.5 22C20.8807 22 22 20.8807 22 19.5C22 18.1193 20.8807 17 19.5 17C18.1193 17 17 18.1193 17 19.5C17 20.8807 18.1193 22 19.5 22Z" fill="white"/> <path d="M4.5 22C5.88071 22 7 20.8807 7 19.5C7 18.1193 5.88071 17 4.5 17C3.11929 17 2 18.1193 2 19.5C2 20.8807 3.11929 22 4.5 22Z" fill="white"/> <path d="M12 7C13.3807 7 14.5 5.88071 14.5 4.5C14.5 3.11929 13.3807 2 12 2C10.6193 2 9.5 3.11929 9.5 4.5C9.5 5.88071 10.6193 7 12 7Z" fill="white"/> <path d="M19.5 7C20.8807 7 22 5.88071 22 4.5C22 3.11929 20.8807 2 19.5 2C18.1193 2 17 3.11929 17 4.5C17 5.88071 18.1193 7 19.5 7Z" fill="white"/> <path d="M19.5 6.25C19.09 6.25 18.75 6.59 18.75 7V11.25H12.75V7C12.75 6.59 12.41 6.25 12 6.25C11.59 6.25 11.25 6.59 11.25 7V11.25H6.44C4.96 11.25 3.75 12.48 3.75 14V17C3.75 17.41 4.09 17.75 4.5 17.75C4.91 17.75 5.25 17.41 5.25 17V14C5.25 13.31 5.78 12.75 6.44 12.75H11.25V17C11.25 17.41 11.59 17.75 12 17.75C12.41 17.75 12.75 17.41 12.75 17V12.75H18.75V17C18.75 17.41 19.09 17.75 19.5 17.75C19.91 17.75 20.25 17.41 20.25 17V7C20.25 6.59 19.91 6.25 19.5 6.25Z" fill="white"/> </g> <defs> <clipPath id="clip0_4482_4507"> <rect width="24" height="24" fill="white"/> </clipPath> </defs> </svg>
