<svg width="24" height="24" viewBox="0 0 24 24" fill="none" xmlns="http://www.w3.org/2000/svg"> <g clip-path="url(#clip0_4482_15410)"> <path d="M2 7.75C1.59 7.75 1.25 7.41 1.25 7V4.5C1.25 2.71 2.71 1.25 4.5 1.25H7C7.41 1.25 7.75 1.59 7.75 2C7.75 2.41 7.41 2.75 7 2.75H4.5C3.54 2.75 2.75 3.54 2.75 4.5V7C2.75 7.41 2.41 7.75 2 7.75Z" fill="white"/> <path d="M7 22.75H4.5C2.71 22.75 1.25 21.29 1.25 19.5V17C1.25 16.59 1.59 16.25 2 16.25C2.41 16.25 2.75 16.59 2.75 17V19.5C2.75 20.46 3.54 21.25 4.5 21.25H7C7.41 21.25 7.75 21.59 7.75 22C7.75 22.41 7.41 22.75 7 22.75Z" fill="white"/> <path d="M19.5 22.75H17C16.59 22.75 16.25 22.41 16.25 22C16.25 21.59 16.59 21.25 17 21.25H19.5C20.46 21.25 21.25 20.46 21.25 19.5V17C21.25 16.59 21.59 16.25 22 16.25C22.41 16.25 22.75 16.59 22.75 17V19.5C22.75 21.29 21.29 22.75 19.5 22.75Z" fill="white"/> <path d="M22 7.75C21.59 7.75 21.25 7.41 21.25 7V4.5C21.25 3.54 20.46 2.75 19.5 2.75H17C16.59 2.75 16.25 2.41 16.25 2C16.25 1.59 16.59 1.25 17 1.25H19.5C21.29 1.25 22.75 2.71 22.75 4.5V7C22.75 7.41 22.41 7.75 22 7.75Z" fill="white"/> <path d="M16.0202 8.66992H16.0102C15.5902 8.66992 15.2002 8.44992 14.9802 8.08992L14.4802 7.24992C14.2602 6.88992 13.8702 6.66992 13.4502 6.66992H10.5202C10.0902 6.66992 9.70023 6.89992 9.48023 7.25992L9.01023 8.06992C8.79023 8.43992 8.40023 8.65992 7.97023 8.65992C6.88023 8.65992 5.99023 9.54992 5.99023 10.6399V15.3499C5.99023 16.4399 6.88023 17.3299 7.97023 17.3299H16.0102C17.1002 17.3299 17.9902 16.4399 17.9902 15.3499V10.6399C17.9902 9.54992 17.1002 8.65992 16.0102 8.65992L16.0202 8.66992ZM13.9202 14.5399C12.8802 15.5799 11.2002 15.5799 10.1602 14.5399C9.12023 13.4999 9.12023 11.8199 10.1602 10.7799C11.2002 9.73992 12.8802 9.73992 13.9202 10.7799C14.9602 11.8199 14.9602 13.4999 13.9202 14.5399Z" fill="white"/> </g> <defs> <clipPath id="clip0_4482_15410"> <rect width="24" height="24" fill="white"/> </clipPath> </defs> </svg>
