<svg width="24" height="24" viewBox="0 0 24 24" fill="none" xmlns="http://www.w3.org/2000/svg"> <g clip-path="url(#clip0_2085_389249)"> <path d="M4.86 13.4398V16.2998C4.85 17.0898 4.22 17.7198 3.43 17.7198H3C2.45 17.7198 2 17.2798 2 16.7198V13.0098C2 12.4598 2.45 12.0098 3 12.0098H3.43C4.22 12.0098 4.86 12.6498 4.86 13.4398Z" fill="white"/> <path d="M14.8601 8.48961C14.4501 8.48961 14.1101 8.14961 14.1101 7.73961V6.27961C14.1101 5.07961 15.0901 4.09961 16.2901 4.09961H16.9101C17.3201 4.09961 17.6601 4.43961 17.6601 4.84961C17.6601 5.25961 17.3201 5.59961 16.9101 5.59961H16.2901C15.9201 5.59961 15.6101 5.89961 15.6101 6.27961V7.73961C15.6101 8.14961 15.2701 8.48961 14.8601 8.48961Z" fill="white"/> <path d="M17.71 8.71973V10.5897C17.65 10.5797 17.59 10.5797 17.53 10.5797H12V8.71973C12 8.16973 12.45 7.71973 13 7.71973H16.71C17.27 7.71973 17.71 8.16973 17.71 8.71973Z" fill="white"/> <path d="M17.7101 10.5901C17.6501 10.5801 17.5901 10.5801 17.5301 10.5801H12.0001C9.86011 10.5801 7.78011 11.2701 6.07011 12.5401L4.86011 13.4401V16.2901L6.07011 17.1901C7.78011 18.4601 9.86011 19.1501 12.0001 19.1501H17.7101C20.2201 19.1501 22.2201 17.0001 21.9801 14.4501C21.7801 12.2801 19.8801 10.6701 17.7101 10.5901ZM8.33011 15.6201H7.08011C6.67011 15.6201 6.33011 15.2801 6.33011 14.8701C6.33011 14.4601 6.67011 14.1201 7.08011 14.1201H8.33011C8.74011 14.1201 9.08011 14.4601 9.08011 14.8701C9.08011 15.2801 8.74011 15.6201 8.33011 15.6201ZM11.1901 15.6201H9.94011C9.53011 15.6201 9.19011 15.2801 9.19011 14.8701C9.19011 14.4601 9.53011 14.1201 9.94011 14.1201H11.1901C11.6001 14.1201 11.9401 14.4601 11.9401 14.8701C11.9401 15.2801 11.6001 15.6201 11.1901 15.6201ZM14.0501 15.6201H12.8001C12.3901 15.6201 12.0501 15.2801 12.0501 14.8701C12.0501 14.4601 12.3901 14.1201 12.8001 14.1201H14.0501C14.4601 14.1201 14.8001 14.4601 14.8001 14.8701C14.8001 15.2801 14.4601 15.6201 14.0501 15.6201ZM17.7101 16.3001C16.9201 16.3001 16.2801 15.6601 16.2801 14.8701C16.2801 14.0801 16.9201 13.4401 17.7101 13.4401C18.5001 13.4401 19.1401 14.0801 19.1401 14.8701C19.1401 15.6601 18.5001 16.3001 17.7101 16.3001Z" fill="white"/> </g> <defs> <clipPath id="clip0_2085_389249"> <rect width="24" height="24" fill="white"/> </clipPath> </defs> </svg>
