<svg width="24" height="24" viewBox="0 0 24 24" fill="none" xmlns="http://www.w3.org/2000/svg"> <g clip-path="url(#clip0_4482_7463)"> <path d="M15.6 18.54C14.87 18.54 14.14 18.39 13.49 18.1C12.59 17.69 11.42 17.69 10.51 18.1C9.21003 18.69 7.59003 18.69 6.29003 18.1C5.38003 17.69 4.21003 17.69 3.31003 18.1C2.93003 18.27 2.49003 18.1 2.32003 17.73C2.15003 17.35 2.32003 16.91 2.69003 16.74C3.99003 16.15 5.61003 16.15 6.91003 16.74C7.81003 17.15 8.98003 17.15 9.89003 16.74C11.19 16.15 12.81 16.15 14.11 16.74C15.01 17.15 16.18 17.15 17.09 16.74C18.39 16.15 20.01 16.15 21.31 16.74C21.69 16.91 21.85 17.36 21.68 17.73C21.51 18.11 21.07 18.27 20.69 18.1C19.79 17.69 18.62 17.69 17.71 18.1C17.06 18.4 16.33 18.54 15.6 18.54Z" fill="white"/> <path d="M12 5.75999C12.41 5.75999 12.75 5.41999 12.75 5.00999V3.00999C12.75 2.59999 12.41 2.25999 12 2.25999C11.59 2.25999 11.25 2.59999 11.25 3.00999V5.00999C11.25 5.41999 11.59 5.75999 12 5.75999Z" fill="white"/> <path d="M4 12.26H2C1.59 12.26 1.25 12.6 1.25 13.01C1.25 13.42 1.59 13.76 2 13.76H4C4.41 13.76 4.75 13.42 4.75 13.01C4.75 12.6 4.41 12.26 4 12.26Z" fill="white"/> <path d="M6.52984 7.53999C6.81984 7.24999 6.81984 6.76999 6.52984 6.47999L5.42984 5.37999C5.13984 5.08999 4.65984 5.08999 4.36984 5.37999C4.07984 5.66999 4.07984 6.14999 4.36984 6.43999L5.46984 7.53999C5.61984 7.68999 5.80984 7.75999 5.99984 7.75999C6.18984 7.75999 6.37984 7.68999 6.52984 7.53999Z" fill="white"/> <path d="M19.6304 5.37999C19.3404 5.08999 18.8604 5.08999 18.5704 5.37999L17.4704 6.47999C17.1804 6.76999 17.1804 7.24999 17.4704 7.53999C17.6204 7.68999 17.8104 7.75999 18.0004 7.75999C18.1904 7.75999 18.3804 7.68999 18.5304 7.53999L19.6304 6.43999C19.9204 6.14999 19.9204 5.66999 19.6304 5.37999Z" fill="white"/> <path d="M22 12.16H20C19.59 12.16 19.25 12.5 19.25 12.91C19.25 13.32 19.59 13.66 20 13.66H22C22.41 13.66 22.75 13.32 22.75 12.91C22.75 12.5 22.41 12.16 22 12.16Z" fill="white"/> <path d="M17.0896 19.93C16.1896 20.34 15.0196 20.34 14.1096 19.93C12.8096 19.34 11.1896 19.34 9.88964 19.93C8.97964 20.34 7.80964 20.34 6.90964 19.93C6.52964 19.76 6.08964 19.93 5.91964 20.3C5.74964 20.68 5.91964 21.12 6.28964 21.29C7.58964 21.88 9.20964 21.88 10.5096 21.29C11.4096 20.88 12.5796 20.88 13.4896 21.29C14.1396 21.59 14.8696 21.73 15.5996 21.73C16.3296 21.73 17.0596 21.58 17.7096 21.29C18.0896 21.12 18.2496 20.67 18.0796 20.3C17.9096 19.92 17.4696 19.75 17.0896 19.93Z" fill="white"/> <path d="M17 13.76C16.59 13.76 16.25 13.42 16.25 13.01C16.25 10.63 14.38 8.75999 12 8.75999C9.62 8.75999 7.75 10.63 7.75 13.01C7.75 13.42 7.41 13.76 7 13.76C6.59 13.76 6.25 13.42 6.25 13.01C6.25 9.78999 8.78 7.25999 12 7.25999C15.22 7.25999 17.75 9.78999 17.75 13.01C17.75 13.42 17.41 13.76 17 13.76Z" fill="white"/> </g> <defs> <clipPath id="clip0_4482_7463"> <rect width="24" height="24" fill="white"/> </clipPath> </defs> </svg>
