<svg width="24" height="24" viewBox="0 0 24 24" fill="none" xmlns="http://www.w3.org/2000/svg"> <g clip-path="url(#clip0_2085_389436)"> <path d="M12.94 19.1102C12.43 19.1102 11.91 18.9102 11.52 18.5202L9.72995 16.7302C9.43995 16.4402 9.43995 15.9602 9.72995 15.6702C10.02 15.3802 10.5 15.3802 10.79 15.6702L12.58 17.4602C12.78 17.6602 13.1 17.6602 13.3 17.4602C13.5 17.2602 13.5 16.9302 13.3 16.7302L12.86 16.2902C12.57 16.0002 12.57 15.5202 12.86 15.2302C13.15 14.9402 13.63 14.9402 13.92 15.2302L14.36 15.6702C15.15 16.4702 15.15 17.7202 14.36 18.5202C13.97 18.9102 13.45 19.1102 12.93 19.1102H12.94Z" fill="white"/> <path d="M7.72995 14.5102C7.53995 14.5102 7.34995 14.4402 7.19995 14.2902L5.40995 12.5002C4.62995 11.7202 4.62995 10.4402 5.40995 9.6602C6.20995 8.8802 7.47995 8.8802 8.25995 9.6602L8.70995 10.1202C8.99995 10.4202 8.98995 10.8902 8.69995 11.1802C8.40995 11.4702 7.92995 11.4702 7.63995 11.1702L7.19995 10.7202C7.00995 10.5302 6.67995 10.5302 6.46995 10.7302C6.27995 10.9202 6.27995 11.2502 6.46995 11.4402L8.25995 13.2302C8.54995 13.5202 8.54995 14.0002 8.25995 14.2902C8.10995 14.4402 7.91995 14.5102 7.72995 14.5102Z" fill="white"/> <path d="M10.02 13.9802L9.49997 13.4502C9.20997 13.7402 9.20997 14.2202 9.49997 14.5102C9.64997 14.6602 9.83997 14.7302 10.03 14.7302C10.22 14.7302 10.41 14.6602 10.56 14.5102L10.03 13.9802H10.02Z" fill="white"/> <path fill-rule="evenodd" clip-rule="evenodd" d="M21 2C21.55 2 22 2.45 22 3V4.74023C22 5.27015 21.7901 5.78045 21.4102 6.15039L11.8096 15.7598L10.3663 17.1953C10.1737 17.3868 9.86319 17.3779 9.61137 17.2764C9.15343 17.0919 8.60544 17.1741 8.24028 17.5391L7.78032 17.999L7.7813 18L5.57036 20.2207L5.56938 20.2197L4.67973 21.1094C4.42979 21.3593 4.10023 21.4795 3.78032 21.4795C3.46035 21.4795 3.13967 21.3594 2.8897 21.1094C2.40016 20.6094 2.39994 19.8192 2.8897 19.3193L3.78032 18.4297L5.77739 16.4414L6.46001 15.7598C6.8166 15.3956 6.8885 14.8447 6.7061 14.3818C6.60886 14.1349 6.60778 13.8337 6.79595 13.6465L8.25005 12.2002L17.8497 2.58984C18.2196 2.2099 18.7299 2.00006 19.2598 2H21ZM16.5303 7.46973C16.2403 7.17973 15.7598 7.17973 15.4698 7.46973L10.0314 12.7385C9.68207 13.0769 9.67677 13.6355 10.0196 13.9805H10.0303C10.3226 14.2727 10.7965 14.2726 11.0885 13.9801L16.5303 8.53027C16.8203 8.24027 16.8203 7.75973 16.5303 7.46973Z" fill="white"/> </g> <defs> <clipPath id="clip0_2085_389436"> <rect width="24" height="24" fill="white"/> </clipPath> </defs> </svg>
