<svg width="24" height="24" viewBox="0 0 24 24" fill="none" xmlns="http://www.w3.org/2000/svg"> <g clip-path="url(#clip0_2085_393898)"> <path d="M6.2099 5.91043C6.0199 5.91043 5.8299 5.84043 5.6799 5.69043C5.3899 5.40043 5.3899 4.92043 5.6799 4.63043L6.7299 3.58043L5.6799 2.53043C5.3899 2.24043 5.3899 1.76043 5.6799 1.47043C5.9699 1.18043 6.4499 1.18043 6.7399 1.47043L8.3199 3.05043C8.4599 3.19043 8.5399 3.38043 8.5399 3.58043C8.5399 3.78043 8.4599 3.97043 8.3199 4.11043L6.7399 5.69043C6.5899 5.84043 6.3999 5.91043 6.2099 5.91043Z" fill="white"/> <path d="M2.53003 7.49008C2.12003 7.49008 1.78003 7.15008 1.78003 6.74008C1.78003 4.59008 3.53003 2.83008 5.69003 2.83008H7.80003C8.21003 2.83008 8.55003 3.17008 8.55003 3.58008C8.55003 3.99008 8.21003 4.33008 7.80003 4.33008H5.69003C4.36003 4.33008 3.28003 5.41008 3.28003 6.74008C3.28003 7.15008 2.94003 7.49008 2.53003 7.49008Z" fill="white"/> <path d="M17.79 22.7503C17.6 22.7503 17.41 22.6803 17.26 22.5303L15.68 20.9503C15.54 20.8103 15.46 20.6203 15.46 20.4203C15.46 20.2203 15.54 20.0303 15.68 19.8903L17.26 18.3103C17.55 18.0203 18.03 18.0203 18.32 18.3103C18.61 18.6003 18.61 19.0803 18.32 19.3703L17.27 20.4203L18.32 21.4703C18.61 21.7603 18.61 22.2403 18.32 22.5303C18.17 22.6803 17.98 22.7503 17.79 22.7503Z" fill="white"/> <path d="M18.32 21.1698H16.21C15.8 21.1698 15.46 20.8298 15.46 20.4198C15.46 20.0098 15.8 19.6698 16.21 19.6698H18.32C19.65 19.6698 20.73 18.5898 20.73 17.2598C20.73 16.8498 21.07 16.5098 21.48 16.5098C21.89 16.5098 22.23 16.8498 22.23 17.2598C22.23 19.4098 20.48 21.1698 18.32 21.1698Z" fill="white"/> <path d="M21.47 6.58008V11.1101C21.47 12.7601 20.13 14.1101 18.47 14.1101H13.05V12.8901C13.05 11.5501 12.17 10.4101 10.95 10.0301V6.58008C10.95 4.92008 12.29 3.58008 13.95 3.58008H18.47C20.13 3.58008 21.47 4.92008 21.47 6.58008Z" fill="white"/> <path d="M10.95 10.0296C10.67 9.93965 10.36 9.88965 10.05 9.88965H5.53003C3.87003 9.88965 2.53003 11.2396 2.53003 12.8896V17.4196C2.53003 19.0796 3.87003 20.4196 5.53003 20.4196H10.05C11.71 20.4196 13.05 19.0796 13.05 17.4196V12.8896C13.05 11.5496 12.17 10.4096 10.95 10.0296ZM9.73003 15.6896L7.62003 17.7996C7.47003 17.9496 7.28003 18.0196 7.09003 18.0196C6.90003 18.0196 6.71003 17.9496 6.56003 17.7996C6.27003 17.5096 6.27003 17.0296 6.56003 16.7396L8.14003 15.1596L6.56003 13.5896C6.27003 13.2996 6.27003 12.8196 6.56003 12.5296C6.85003 12.2396 7.33003 12.2396 7.62003 12.5296L9.73003 14.6296C9.87003 14.7696 9.95003 14.9596 9.95003 15.1596C9.95003 15.3596 9.87003 15.5496 9.73003 15.6896Z" fill="white"/> </g> <defs> <clipPath id="clip0_2085_393898"> <rect width="24" height="24" fill="white"/> </clipPath> </defs> </svg>
