<svg width="24" height="24" viewBox="0 0 24 24" fill="none" xmlns="http://www.w3.org/2000/svg">
<path d="M15 6.92969C15 7.59837 15.3342 8.22283 15.8906 8.59375L16.2188 8.8125C17.3315 9.55434 18 10.8033 18 12.1406V18C18 20.2091 16.2091 22 14 22H10C7.79086 22 6 20.2091 6 18V12.1406C6.00004 10.8033 6.66849 9.55434 7.78125 8.8125L8.10938 8.59375C8.66576 8.22283 8.99998 7.59837 9 6.92969V6.5H15V6.92969ZM12 12C10.3431 12 9 13.3431 9 15C9 16.6569 10.3431 18 12 18C13.6569 18 15 16.6569 15 15C15 13.3431 13.6569 12 12 12ZM14.5 2C15.3284 2 16 2.67157 16 3.5C16 4.32843 15.3284 5 14.5 5H9.5C8.67157 5 8 4.32843 8 3.5C8 2.67157 8.67157 2 9.5 2H14.5Z" fill="black"/>
</svg>
