<svg width="24" height="24" viewBox="0 0 24 24" fill="none" xmlns="http://www.w3.org/2000/svg"> <g clip-path="url(#clip0_4482_14978)"> <path d="M13.56 2H6C3.79 2 2 3.79 2 6V12.44C2 14.42 3.44 16.06 5.33 16.38C5.55 16.42 5.77 16.44 6 16.44H13.56C15.76 16.44 17.56 14.65 17.56 12.44V6C17.56 3.79 15.76 2 13.56 2ZM8.64 10.91C8.93 11.2 8.93 11.68 8.64 11.97C8.49 12.12 8.3 12.19 8.11 12.19C7.92 12.19 7.73 12.12 7.58 11.97L5.36 9.75C5.22 9.61 5.14 9.42 5.14 9.22C5.14 9.02 5.22 8.83 5.36 8.69L7.58 6.47C7.87 6.18 8.35 6.18 8.64 6.47C8.93 6.76 8.93 7.24 8.64 7.53L6.95 9.22L8.64 10.91ZM14.2 9.75L11.98 11.97C11.83 12.12 11.64 12.19 11.45 12.19C11.26 12.19 11.07 12.12 10.92 11.97C10.63 11.68 10.63 11.2 10.92 10.91L12.61 9.22L10.92 7.53C10.63 7.24 10.63 6.76 10.92 6.47C11.21 6.18 11.69 6.18 11.98 6.47L14.2 8.69C14.34 8.83 14.42 9.02 14.42 9.22C14.42 9.42 14.34 9.61 14.2 9.75Z" fill="white"/> <path d="M22.0001 11.5596V17.9996C22.0001 20.2096 20.2101 21.9996 18.0001 21.9996H9.33008C7.12008 21.9996 5.33008 20.2096 5.33008 17.9996V17.3896C5.55008 17.4296 5.77008 17.4396 6.00008 17.4396H13.5601C16.3201 17.4396 18.5601 15.1996 18.5601 12.4396V7.59961C20.5101 7.86961 22.0001 9.53961 22.0001 11.5596Z" fill="white"/> </g> <defs> <clipPath id="clip0_4482_14978"> <rect width="24" height="24" fill="white"/> </clipPath> </defs> </svg>
