<svg width="24" height="24" viewBox="0 0 24 24" fill="none" xmlns="http://www.w3.org/2000/svg"> <g clip-path="url(#clip0_4482_8228)"> <path d="M12 2C6.48 2 2 6.48 2 12C2 17.52 6.48 22 12 22C17.52 22 22 17.52 22 12C22 6.48 17.52 2 12 2ZM8.67 16.08H6.45C6.04 16.08 5.7 15.74 5.7 15.33C5.7 14.92 6.04 14.58 6.45 14.58H8.67C9.08 14.58 9.42 14.92 9.42 15.33C9.42 15.74 9.08 16.08 8.67 16.08ZM8.67 12.75H6.45C6.04 12.75 5.7 12.41 5.7 12C5.7 11.59 6.04 11.25 6.45 11.25H8.67C9.08 11.25 9.42 11.59 9.42 12C9.42 12.41 9.08 12.75 8.67 12.75ZM17.11 14.81L15.76 16.19C15.5 16.45 15.15 16.6 14.79 16.6C14.43 16.6 14.07 16.45 13.82 16.19L12.47 14.81C11.87 14.2 11.87 13.22 12.47 12.61C12.76 12.32 13.15 12.15 13.56 12.15C13.97 12.15 14.36 12.31 14.65 12.61L14.81 12.77L14.97 12.61C15.26 12.32 15.65 12.15 16.06 12.15C16.47 12.15 16.86 12.31 17.15 12.61C17.75 13.22 17.75 14.2 17.15 14.81H17.11ZM17.56 9.42H6.44C6.03 9.42 5.69 9.08 5.69 8.67C5.69 8.26 6.03 7.92 6.44 7.92H17.55C17.96 7.92 18.3 8.26 18.3 8.67C18.3 9.08 17.96 9.42 17.55 9.42H17.56Z" fill="white"/> </g> <defs> <clipPath id="clip0_4482_8228"> <rect width="24" height="24" fill="white"/> </clipPath> </defs> </svg>
