<svg width="24" height="24" viewBox="0 0 24 24" fill="none" xmlns="http://www.w3.org/2000/svg">
<path d="M5.47022 16.5303L7.47022 18.5303C7.4814 18.5415 7.49369 18.5513 7.50538 18.5616L5.49659 20.5713C4.92541 21.1425 3.99942 21.1425 3.42823 20.5713C2.85736 20.0001 2.85715 19.0741 3.42823 18.503L5.43702 16.4932C5.44785 16.5056 5.45844 16.5185 5.47022 16.5303ZM16.0064 3.8565C17.1486 2.71448 19.0008 2.71452 20.1431 3.8565C21.2854 4.99887 21.2854 6.85183 20.1431 7.9942L13.8267 14.3106C13.5283 14.609 13.1409 14.8027 12.7232 14.8624L11.5972 15.0235C11.1795 15.0832 10.792 15.276 10.4937 15.5743L8.56202 17.5049C8.55171 17.4933 8.54193 17.4809 8.53077 17.4698L6.53077 15.4698C6.51901 15.458 6.50599 15.4474 6.49366 15.4366L8.4253 13.5059C8.72354 13.2076 8.91736 12.8209 8.97706 12.4034L9.13819 11.2774C9.19787 10.8597 9.39158 10.4722 9.68995 10.1739L16.0064 3.8565Z" fill="black"/>
</svg>
