<svg width="24" height="24" viewBox="0 0 24 24" fill="none" xmlns="http://www.w3.org/2000/svg"> <g clip-path="url(#clip0_2085_383889)"> <path d="M22 7C22 4.24 17.52 2 12 2C6.48 2 2 4.24 2 7C2.09 8.16 2.73 9.2 3.73 9.81C4.04 10.05 4.2 10.44 4.16 10.83L3.45 18.36C3.36 19.29 3.67 20.22 4.3 20.92C4.93 21.62 5.83 22.01 6.76 22.01H17.22C18.16 22.01 19.05 21.61 19.68 20.92C20.31 20.23 20.62 19.3 20.53 18.36L19.82 10.83C19.78 10.44 19.94 10.05 20.25 9.81C21.24 9.21 21.89 8.16 21.98 7H22ZM13.67 17.64C13.52 17.79 13.33 17.86 13.14 17.86C12.95 17.86 12.76 17.79 12.61 17.64L10.34 15.37C10.05 15.08 10.05 14.6 10.34 14.31C10.63 14.02 11.11 14.02 11.4 14.31L13.67 16.58C13.96 16.87 13.96 17.35 13.67 17.64ZM13.67 12.8C13.52 12.95 13.33 13.02 13.14 13.02C12.95 13.02 12.76 12.95 12.61 12.8L10.34 10.53C10.05 10.24 10.05 9.76 10.34 9.47C10.63 9.18 11.11 9.18 11.4 9.47L13.67 11.74C13.96 12.03 13.96 12.51 13.67 12.8Z" fill="white"/> </g> <defs> <clipPath id="clip0_2085_383889"> <rect width="24" height="24" fill="white"/> </clipPath> </defs> </svg>
