<svg width="24" height="24" viewBox="0 0 24 24" fill="none" xmlns="http://www.w3.org/2000/svg"> <g clip-path="url(#clip0_4482_4552)"> <path d="M17 4H16.25C15.97 4 15.75 4.22 15.75 4.5V7C15.75 7.41 15.41 7.75 15 7.75C14.59 7.75 14.25 7.41 14.25 7V4.5C14.25 4.22 14.03 4 13.75 4H7C4.24 4 2 6.24 2 9V15C2 17.76 4.24 20 7 20H13.75C14.03 20 14.25 19.78 14.25 19.5V17C14.25 16.59 14.59 16.25 15 16.25C15.41 16.25 15.75 16.59 15.75 17V19.5C15.75 19.78 15.97 20 16.25 20H17C19.76 20 22 17.76 22 15V9C22 6.24 19.76 4 17 4ZM9.8 11.8L8.05 12.58L8.41 12.82C8.62 12.96 8.74 13.19 8.74 13.44V15C8.74 15.41 8.4 15.75 7.99 15.75C7.58 15.75 7.24 15.41 7.24 15V13.84L6.07 13.06C5.84 12.91 5.72 12.64 5.74 12.37C5.76 12.1 5.93 11.86 6.18 11.75L7.93 10.97L7.57 10.73C7.36 10.59 7.24 10.36 7.24 10.11V9C7.24 8.59 7.58 8.25 7.99 8.25C8.4 8.25 8.74 8.59 8.74 9V9.71L9.91 10.49C10.14 10.64 10.26 10.91 10.24 11.18C10.22 11.45 10.05 11.69 9.8 11.8ZM15.75 13.5C15.75 13.91 15.41 14.25 15 14.25C14.59 14.25 14.25 13.91 14.25 13.5V10.5C14.25 10.09 14.59 9.75 15 9.75C15.41 9.75 15.75 10.09 15.75 10.5V13.5Z" fill="white"/> </g> <defs> <clipPath id="clip0_4482_4552"> <rect width="24" height="24" fill="white"/> </clipPath> </defs> </svg>
