<svg width="24" height="24" viewBox="0 0 24 24" fill="none" xmlns="http://www.w3.org/2000/svg"> <g clip-path="url(#clip0_2085_384108)"> <path d="M18.87 14.9999C18.54 14.9999 18.23 15.0499 17.93 15.1299L18.84 13.7199C19.76 12.3099 20.24 10.6699 20.25 8.9599C20.09 4.5799 16.41 1.1299 12.03 1.2599H12.01C12 1.2599 11.99 1.2599 11.98 1.2599C7.59002 1.1499 3.92002 4.5799 3.76002 8.9899C3.76002 10.6699 4.25002 12.3099 5.17002 13.7199L6.08002 15.1399C5.78002 15.0599 5.46002 15.0099 5.14002 15.0099C3.00002 15.0099 1.27002 16.7499 1.27002 18.8799C1.27002 21.0099 3.01002 22.7499 5.14002 22.7499C7.27002 22.7499 9.01002 21.0099 9.01002 18.8799C9.01002 17.5799 8.63002 16.3199 7.93002 15.2299L6.43002 12.8999C5.67002 11.7299 5.27002 10.3799 5.26002 9.0099C5.39002 5.4299 8.42002 2.6299 11.98 2.7499C11.98 2.7499 12 2.7499 12.01 2.7499C12.01 2.7499 12.03 2.7499 12.04 2.7499C15.6 2.6499 18.63 5.4299 18.76 8.9799C18.76 10.3699 18.35 11.7299 17.59 12.8999L16.09 15.2199C15.38 16.3099 15.01 17.5699 15.01 18.8699C15.01 21.0099 16.75 22.7399 18.88 22.7399C21.01 22.7399 22.75 20.9999 22.75 18.8699C22.75 16.7399 21.01 14.9999 18.88 14.9999H18.87Z" fill="white"/> </g> <defs> <clipPath id="clip0_2085_384108"> <rect width="24" height="24" fill="white"/> </clipPath> </defs> </svg>
