<svg width="24" height="24" viewBox="0 0 24 24" fill="none" xmlns="http://www.w3.org/2000/svg"> <g clip-path="url(#clip0_4482_9472)"> <path d="M19.3703 2H4.64027C3.47495 2 2.53027 2.94468 2.53027 4.11V8.31C2.53027 9.47532 3.47495 10.42 4.64027 10.42H19.3703C20.5356 10.42 21.4803 9.47532 21.4803 8.31V4.11C21.4803 2.94468 20.5356 2 19.3703 2Z" fill="white"/> <path d="M4.62988 22.7499C4.21988 22.7499 3.87988 22.4099 3.87988 21.9999V19.8899C3.87988 19.4799 4.21988 19.1399 4.62988 19.1399C5.03988 19.1399 5.37988 19.4799 5.37988 19.8899V21.9999C5.37988 22.4099 5.03988 22.7499 4.62988 22.7499Z" fill="white"/> <path d="M19.3701 22.7499C18.9601 22.7499 18.6201 22.4099 18.6201 21.9999V19.8899C18.6201 19.4799 18.9601 19.1399 19.3701 19.1399C19.7801 19.1399 20.1201 19.4799 20.1201 19.8899V21.9999C20.1201 22.4099 19.7801 22.7499 19.3701 22.7499Z" fill="white"/> <path d="M20.1 13.5801H3.9C2.85 13.5801 2 14.4801 2 15.5801V17.9001C2 19.0001 2.85 19.9001 3.9 19.9001H20.1C21.15 19.9001 22 19.0001 22 17.9001V15.5801C22 14.4801 21.15 13.5801 20.1 13.5801ZM13.05 17.4901H10.94C10.53 17.4901 10.19 17.1501 10.19 16.7401C10.19 16.3301 10.53 15.9901 10.94 15.9901H13.05C13.46 15.9901 13.8 16.3301 13.8 16.7401C13.8 17.1501 13.46 17.4901 13.05 17.4901Z" fill="white"/> </g> <defs> <clipPath id="clip0_4482_9472"> <rect width="24" height="24" fill="white"/> </clipPath> </defs> </svg>
