<svg width="24" height="24" viewBox="0 0 24 24" fill="none" xmlns="http://www.w3.org/2000/svg"> <g clip-path="url(#clip0_2085_384585)"> <path d="M14.49 6.89062H10.76C10.34 6.89062 10.01 7.23063 10.01 7.64062V13.5706C9.20001 14.4806 8.76001 15.6406 8.76001 16.8706V20.0906C8.76001 20.5106 9.10001 20.8406 9.51001 20.8406H14.49C14.9 20.8406 15.24 20.5106 15.24 20.0906V7.64062C15.24 7.23063 14.9 6.89062 14.49 6.89062ZM13.74 19.3406H10.26V16.8706C10.26 16.2006 10.45 15.5506 10.82 14.9906C10.94 14.7806 11.11 14.5806 11.29 14.4006C11.43 14.2606 11.51 14.0706 11.51 13.8706V8.39063H13.74V19.3406Z" fill="white"/> <path d="M12 18.3505C11.59 18.3505 11.25 18.0105 11.25 17.6005V15.4205L10.23 14.4005C9.93995 14.1105 9.93995 13.6305 10.23 13.3405C10.52 13.0505 11 13.0505 11.29 13.3405L12.53 14.5805C12.67 14.7205 12.75 14.9105 12.75 15.1105V17.6005C12.75 18.0105 12.41 18.3505 12 18.3505Z" fill="white"/> <path d="M5.73 6.89062H3.24C2.92 6.89062 2.63 7.10062 2.53 7.41062L1.31 11.0806C1.27 11.1706 1.25 11.2706 1.25 11.3806C1.25 11.5706 1.32 11.7606 1.47 11.9106L2.71 13.1506C2.71 13.1506 2.74 13.1706 2.75 13.1806V11.5006L2.86 11.1806L3.79 8.39063H4.49C4.6 8.39063 4.72 8.37063 4.83 8.31063C4.95 8.25063 5.04 8.17063 5.11 8.06063C5.24 8.26063 5.47 8.39063 5.73 8.39063H6.48V7.64062C6.48 7.23063 6.15 6.89062 5.73 6.89062Z" fill="white"/> <path d="M6.48 8.39055V20.0905C6.48 20.5105 6.15 20.8405 5.73 20.8405H2C1.59 20.8405 1.25 20.5105 1.25 20.0905V11.3805C1.25 11.5705 1.32 11.7605 1.47 11.9105L2.71 13.1505C2.71 13.1505 2.74 13.1705 2.75 13.1805V11.5005L2.86 11.1805L3.79 8.39055H4.49C4.6 8.39055 4.72 8.37055 4.83 8.31055C4.95 8.25055 5.04 8.17055 5.11 8.06055C5.24 8.26055 5.47 8.39055 5.73 8.39055H6.48Z" fill="white"/> <path d="M2.86 11.18L2.75 11.5V13.18C2.75 13.18 2.72 13.16 2.71 13.15L1.47 11.91C1.32 11.76 1.25 11.57 1.25 11.38C1.25 11.27 1.27 11.17 1.31 11.08C1.35 10.99 1.4 10.92 1.47 10.85C1.76 10.55 2.24 10.55 2.53 10.85L2.86 11.18Z" fill="white"/> <path d="M22.75 3.91016V6.40016C22.75 7.16016 22.3201 7.82016 21.7001 8.15016C21.6301 7.90016 21.55 7.66016 21.47 7.41016C21.37 7.10016 21.08 6.89016 20.76 6.89016H3.27005L2.57005 5.49016C2.46005 5.26016 2.47005 4.98016 2.61005 4.76016C2.74005 4.54016 2.98005 4.40016 3.24005 4.40016H5.61005L9.27005 3.20016C9.35005 3.17016 9.43005 3.16016 9.51005 3.16016H14.4901C14.4901 3.16016 14.6 3.17016 14.6601 3.18016C15.8901 3.46016 18.21 3.72016 19.17 3.24016C19.2801 3.19016 19.39 3.16016 19.51 3.16016H22C22.41 3.16016 22.75 3.49016 22.75 3.91016Z" fill="white"/> <path d="M5.11002 8.06063C5.04002 8.17063 4.95002 8.25063 4.83002 8.31063C4.72002 8.37063 4.60002 8.39063 4.49002 8.39063C4.21002 8.39063 3.95002 8.24063 3.82002 7.98063L3.27002 6.89062H4.95002L5.11002 7.22062L5.16002 7.31063C5.29002 7.56063 5.26002 7.85063 5.11002 8.06063Z" fill="white"/> <path d="M21.7 8.15062C21.42 8.31062 21.1 8.39063 20.76 8.39063C20.34 8.39063 20.01 8.06062 20.01 7.64062C20.01 7.22063 20.34 6.89062 20.76 6.89062C21.08 6.89062 21.37 7.10062 21.47 7.41062C21.55 7.66062 21.63 7.90062 21.7 8.15062Z" fill="white"/> <path d="M11.51 7.64062C11.51 8.06062 11.17 8.39063 10.76 8.39063H5.72998C5.46998 8.39063 5.23998 8.26063 5.10998 8.06063C5.02998 7.94063 4.97998 7.80062 4.97998 7.64062C4.97998 7.49063 5.02998 7.34062 5.10998 7.22062C5.23998 7.02062 5.46998 6.89062 5.72998 6.89062H10.76C11.17 6.89062 11.51 7.23063 11.51 7.64062Z" fill="white"/> <path d="M19.02 7.64062C19.02 8.06062 18.68 8.39063 18.27 8.39063H14.49C14.08 8.39063 13.74 8.06062 13.74 7.64062C13.74 7.22063 14.08 6.89062 14.49 6.89062H18.27C18.68 6.89062 19.02 7.23063 19.02 7.64062Z" fill="white"/> <path d="M21.47 7.41062C21.37 7.10062 21.08 6.89062 20.76 6.89062C20.34 6.89062 20.01 7.23063 20.01 7.64062C20.01 8.05062 20.34 8.39063 20.76 8.39063C21.1 8.39063 21.42 8.31062 21.7 8.15062C21.63 7.90062 21.55 7.66062 21.47 7.41062ZM18.27 6.89062C17.85 6.89062 17.52 7.23063 17.52 7.64062V8.39063H18.27C18.68 8.39063 19.02 8.06062 19.02 7.64062C19.02 7.22063 18.68 6.89062 18.27 6.89062Z" fill="white"/> <path d="M22.75 15.3106V20.0906C22.75 20.5106 22.41 20.8406 22 20.8406H18.27C17.85 20.8406 17.52 20.5106 17.52 20.0906V19.8606C17.52 19.0106 17.85 18.2006 18.45 17.6006C18.65 17.4006 18.76 17.1406 18.76 16.8506V14.6106C18.76 14.3406 18.65 14.0706 18.45 13.8706L17.74 13.1506C17.59 13.0106 17.52 12.8206 17.52 12.6206V8.39063H18.27C18.68 8.39063 19.02 8.06062 19.02 7.64062C19.02 7.22063 18.68 6.89062 18.27 6.89062H20.76C20.34 6.89062 20.01 7.23063 20.01 7.64062C20.01 8.05062 20.34 8.39063 20.76 8.39063C21.1 8.39063 21.42 8.31062 21.7 8.15062C22.4 10.4706 22.75 12.8806 22.75 15.3106Z" fill="white"/> </g> <defs> <clipPath id="clip0_2085_384585"> <rect width="24" height="24" fill="white"/> </clipPath> </defs> </svg>
