<svg width="24" height="24" viewBox="0 0 24 24" fill="none" xmlns="http://www.w3.org/2000/svg"> <g clip-path="url(#clip0_2085_384587)"> <path d="M19.96 15.1094V14.3594H16.88C16.81 14.4694 16.74 14.5894 16.69 14.7094C16.68 14.7294 16.67 14.7594 16.66 14.7794C16.6 14.8994 16.55 15.0294 16.51 15.1594L16.45 15.3494C16.45 15.3494 16.44 15.3894 16.42 15.3994C16.4 15.4494 16.38 15.4894 16.35 15.5294C16.33 15.5594 16.31 15.5894 16.28 15.6194C16.24 15.6594 16.2 15.6994 16.15 15.7294C16.1 15.7694 16.04 15.7994 15.98 15.8094C15.95 15.8294 15.92 15.8394 15.89 15.8294C15.84 15.8494 15.79 15.8594 15.73 15.8594H20.71C20.3 15.8594 19.96 15.5294 19.96 15.1094ZM9.85 14.4394C9.74 14.3894 9.63 14.3594 9.51 14.3594C9.44 14.3594 9.38 14.3694 9.31 14.3894C9.25 14.3894 9.2 14.4294 9.15 14.4594C9.12 14.4794 9.08 14.4994 9.05 14.5294C9.02 14.6794 9.01 14.8294 9.01 14.9894C9.07 15.3494 8.86 15.6994 8.5 15.8194C8.43 15.8494 8.36 15.8594 8.3 15.8594H9.98L10.18 15.4494C10.37 15.0794 10.22 14.6294 9.85 14.4394ZM15.5 15.8194C15.5 15.8194 15.48 15.8094 15.47 15.7994C15.41 15.7894 15.36 15.7594 15.31 15.7294C15.25 15.6894 15.19 15.6394 15.15 15.5794C15.12 15.5494 15.1 15.5194 15.09 15.4894C15.08 15.4794 15.07 15.4594 15.07 15.4494C15.05 15.4194 15.03 15.3794 15.03 15.3494C15.03 15.3494 15.0267 15.3427 15.02 15.3294C14.99 15.2694 14.98 15.1994 14.98 15.1394V15.1094C14.98 15.0294 14.98 14.9594 15.02 14.8794L15.09 14.6794C15.06 14.6094 15 14.5494 14.93 14.5094C14.93 14.4594 14.93 14.4094 14.9 14.3594H14.49C14.38 14.3594 14.26 14.3894 14.15 14.4394C13.78 14.6294 13.63 15.0794 13.82 15.4494L14.03 15.8594H15.7C15.64 15.8594 15.57 15.8494 15.5 15.8194ZM9.85 14.4394C9.74 14.3894 9.63 14.3594 9.51 14.3594C9.44 14.3594 9.38 14.3694 9.31 14.3894C9.25 14.3894 9.2 14.4294 9.15 14.4594C9.12 14.4794 9.08 14.4994 9.05 14.5294C9.02 14.6794 9.01 14.8294 9.01 14.9894C9.07 15.3494 8.86 15.6994 8.5 15.8194C8.43 15.8494 8.36 15.8594 8.3 15.8594H9.98L10.18 15.4494C10.37 15.0794 10.22 14.6294 9.85 14.4394ZM19.96 15.1094V14.3594H16.88C16.81 14.4694 16.74 14.5894 16.69 14.7094C16.68 14.7294 16.67 14.7594 16.66 14.7794C16.6 14.8994 16.55 15.0294 16.51 15.1594L16.45 15.3494C16.45 15.3494 16.44 15.3894 16.42 15.3994C16.46 15.3094 16.48 15.2194 16.48 15.1094C16.48 14.8494 16.46 14.5994 16.43 14.3594H15.21C15.17 14.4594 15.13 14.5694 15.09 14.6794C15.06 14.6094 15 14.5494 14.93 14.5094C14.93 14.4594 14.93 14.4094 14.9 14.3594H14.49C14.38 14.3594 14.26 14.3894 14.15 14.4394C13.78 14.6294 13.63 15.0794 13.82 15.4494L14.03 15.8594H20.71C20.3 15.8594 19.96 15.5294 19.96 15.1094ZM9.85 14.4394C9.74 14.3894 9.63 14.3594 9.51 14.3594H7.12C7.28 14.6094 7.4 14.8794 7.49 15.1594L7.52 15.2494L7.55 15.3494C7.58 15.4194 7.61 15.4894 7.66 15.5494C7.66 15.5594 7.67 15.5594 7.67 15.5694C7.72 15.6294 7.77 15.6794 7.83 15.7194C7.89 15.7594 7.96 15.7994 8.03 15.8094C8.03 15.8094 8.04 15.8194 8.05 15.8194C8.09 15.8394 8.14 15.8494 8.19 15.8494C8.21 15.8594 8.24 15.8594 8.27 15.8594H9.98L10.18 15.4494C10.37 15.0794 10.22 14.6294 9.85 14.4394ZM22 14.3594H14.49C14.38 14.3594 14.26 14.3894 14.15 14.4394C13.78 14.6294 13.63 15.0794 13.82 15.4494L14.03 15.8594H21.25V19.3394H15.77L16.31 20.4294C16.44 20.6894 16.71 20.8394 16.98 20.8394H22C22.41 20.8394 22.75 20.4994 22.75 20.0894V15.1094C22.75 14.6994 22.41 14.3594 22 14.3594ZM2.75 19.3394V15.8594H3.29C3.7 15.8594 4.04 15.5294 4.04 15.1094V14.3594H2C1.59 14.3594 1.25 14.6994 1.25 15.1094V20.0894C1.25 20.4994 1.59 20.8394 2 20.8394H7.02C7.3 20.8394 7.56 20.6894 7.69 20.4294L8.24 19.3394H2.75ZM9.85 14.4394C9.74 14.3894 9.63 14.3594 9.51 14.3594C9.44 14.3594 9.38 14.3694 9.31 14.3894C9.25 14.3894 9.2 14.4294 9.15 14.4594C9.12 14.4794 9.08 14.4994 9.05 14.5294C9.02 14.6794 9.01 14.8294 9.01 14.9894C9.07 15.3494 8.86 15.6994 8.5 15.8194C8.43 15.8494 8.36 15.8594 8.3 15.8594H9.98L10.18 15.4494C10.37 15.0794 10.22 14.6294 9.85 14.4394ZM15.5 15.8194C15.5 15.8194 15.48 15.8094 15.47 15.7994C15.41 15.7894 15.36 15.7594 15.31 15.7294C15.25 15.6894 15.19 15.6394 15.15 15.5794C15.12 15.5494 15.1 15.5194 15.09 15.4894C15.08 15.4794 15.07 15.4594 15.07 15.4494C15.05 15.4194 15.03 15.3794 15.03 15.3494C15.03 15.3494 15.0267 15.3427 15.02 15.3294C14.99 15.2694 14.98 15.1994 14.98 15.1394V15.1094C14.98 15.0294 14.98 14.9594 15.02 14.8794L15.09 14.6794C15.06 14.6094 15 14.5494 14.93 14.5094C14.93 14.4594 14.93 14.4094 14.9 14.3594H14.49C14.38 14.3594 14.26 14.3894 14.15 14.4394C13.78 14.6294 13.63 15.0794 13.82 15.4494L14.03 15.8594H15.7C15.64 15.8594 15.57 15.8494 15.5 15.8194ZM19.96 15.1094V14.3594H16.88C16.81 14.4694 16.74 14.5894 16.69 14.7094C16.68 14.7294 16.67 14.7594 16.66 14.7794C16.6 14.8994 16.55 15.0294 16.51 15.1594L16.45 15.3494C16.45 15.3494 16.44 15.3894 16.42 15.3994C16.4 15.4494 16.38 15.4894 16.35 15.5294C16.33 15.5594 16.31 15.5894 16.28 15.6194C16.24 15.6594 16.2 15.6994 16.15 15.7294C16.1 15.7694 16.04 15.7994 15.98 15.8094C15.95 15.8294 15.92 15.8394 15.89 15.8294C15.84 15.8494 15.79 15.8594 15.73 15.8594H20.71C20.3 15.8594 19.96 15.5294 19.96 15.1094Z" fill="white"/> <path d="M16.03 12.9285C15.69 13.3585 15.42 13.8385 15.21 14.3585H14.49C14.38 14.3585 14.26 14.3885 14.15 14.4385C13.78 14.6285 13.63 15.0785 13.82 15.4485L14.03 15.8585H9.97997L10.18 15.4485C10.37 15.0785 10.22 14.6285 9.84997 14.4385C9.73997 14.3885 9.62997 14.3585 9.50997 14.3585H8.78997C8.57997 13.8285 8.29997 13.3585 7.96997 12.9285C8.36997 11.9985 9.03997 11.1985 9.90997 10.6185L11.24 9.72852C11.25 9.85852 11.25 9.99852 11.25 10.1285C11.25 10.5485 11.59 10.8785 12 10.8785C12.41 10.8785 12.75 10.5485 12.75 10.1285C12.75 9.99852 12.75 9.86852 12.76 9.73852L14.08 10.6185C14.95 11.1985 15.62 11.9985 16.03 12.9285Z" fill="white"/> <path d="M8.79 14.3577H9.08C9.08 14.3577 9.06 14.4677 9.05 14.5277C9.02 14.6777 9.01 14.8277 9.01 14.9877C9.01 14.9877 9 15.0677 9 15.0977C9 15.4877 8.69 15.8177 8.31 15.8377C8.29 15.8477 8.27 15.8477 8.25 15.8477H8.19C8.19 15.8477 8.09 15.8377 8.05 15.8177L8.03 15.8077C7.96 15.7977 7.89 15.7577 7.83 15.7177C7.77 15.6777 7.72 15.6277 7.67 15.5677C7.67 15.5577 7.66 15.5577 7.66 15.5477C7.61 15.4877 7.58 15.4177 7.55 15.3477L7.52 15.2477C7.52 15.2477 7.5 15.1577 7.5 15.1077C7.5 14.8477 7.52 14.5977 7.55 14.3577C7.62 13.8577 7.76 13.3777 7.97 12.9277C8.3 13.3577 8.58 13.8277 8.79 14.3577Z" fill="white"/> <path d="M12.74 9.72836H12.76C12.75 9.86836 12.75 9.99836 12.75 10.1284C12.75 10.5484 12.41 10.8784 12 10.8784C11.59 10.8784 11.25 10.5484 11.25 10.1284C11.25 9.99836 11.25 9.85836 11.24 9.72836H11.26L11.58 9.50836C11.84 9.33836 12.16 9.33836 12.42 9.50836L12.74 9.72836Z" fill="white"/> <path d="M16.4799 15.1075C16.4799 15.2175 16.4599 15.3075 16.4199 15.3975C16.3999 15.4475 16.3799 15.4875 16.3499 15.5275C16.3299 15.5575 16.3099 15.5875 16.2799 15.6175C16.2399 15.6575 16.1999 15.6975 16.1499 15.7275C16.0999 15.7675 16.0399 15.7975 15.9799 15.8075C15.9499 15.8275 15.9199 15.8375 15.8899 15.8275C15.8399 15.8475 15.7899 15.8575 15.7299 15.8575H15.6999C15.6399 15.8575 15.5699 15.8475 15.4999 15.8175C15.4899 15.8175 15.4799 15.8075 15.4699 15.7975C15.4099 15.7875 15.3599 15.7575 15.3099 15.7275C15.2499 15.6875 15.1899 15.6375 15.1499 15.5775C15.1199 15.5475 15.0999 15.5175 15.0899 15.4875C15.0799 15.4775 15.0699 15.4575 15.0699 15.4475C15.0499 15.4175 15.0299 15.3775 15.0299 15.3475C15.0299 15.3475 15.0266 15.3408 15.0199 15.3275C14.9899 15.2675 14.9799 15.1975 14.9799 15.1375V15.1075C14.9799 14.9075 14.9599 14.7075 14.9299 14.5075C14.9299 14.4575 14.9299 14.4075 14.8999 14.3575H15.2099C15.4199 13.8375 15.6899 13.3575 16.0299 12.9375C16.2299 13.3875 16.3599 13.8575 16.4299 14.3575C16.4599 14.5975 16.4799 14.8475 16.4799 15.1075Z" fill="white"/> <path d="M21.46 11.3789V14.3589H16.43C16.36 13.8589 16.23 13.3889 16.03 12.9389C16.09 12.8489 16.16 12.7689 16.23 12.6889V12.9689C16.23 13.3789 16.57 13.6989 16.98 13.6989C17.39 13.6989 17.73 13.3389 17.73 12.9189C17.73 12.7289 17.73 12.5389 17.71 12.3589C17.71 12.3589 17.71 12.3522 17.71 12.3389C17.71 12.3389 17.73 12.2489 17.73 12.2089V11.4489C18.14 11.1989 18.59 10.9989 19.06 10.8689C19.18 11.1289 19.27 11.3889 19.36 11.6489C19.49 12.0389 19.91 12.2589 20.31 12.1289C20.7 11.9989 20.91 11.5789 20.78 11.1789C20.72 10.9989 20.66 10.8189 20.58 10.6389C20.62 10.6289 20.67 10.6289 20.71 10.6289C21.13 10.6289 21.46 10.9589 21.46 11.3789Z" fill="white"/> <path d="M16.88 14.3595C16.8 14.4695 16.74 14.5895 16.69 14.7095C16.68 14.7295 16.67 14.7595 16.66 14.7795C16.6 14.8995 16.55 15.0295 16.51 15.1595L16.45 15.3495C16.45 15.3495 16.44 15.3895 16.42 15.3995C16.4 15.4495 16.38 15.4895 16.35 15.5295C16.33 15.5595 16.31 15.5895 16.28 15.6195C16.24 15.6595 16.2 15.6995 16.15 15.7295C16.1 15.7695 16.04 15.7995 15.98 15.8095C15.95 15.8295 15.92 15.8395 15.89 15.8295C15.84 15.8495 15.79 15.8595 15.73 15.8595H15.7C15.64 15.8595 15.57 15.8495 15.5 15.8195C15.49 15.8195 15.48 15.8095 15.47 15.7995C15.41 15.7895 15.36 15.7595 15.31 15.7295C15.25 15.6895 15.19 15.6395 15.15 15.5795C15.12 15.5495 15.1 15.5195 15.09 15.4895C15.08 15.4795 15.07 15.4595 15.07 15.4495C15.05 15.4195 15.03 15.3795 15.03 15.3495C15.03 15.3495 15.0266 15.3428 15.02 15.3295C14.99 15.2695 14.98 15.1995 14.98 15.1395V15.1095C14.98 15.0295 14.98 14.9595 15.02 14.8795L15.09 14.6795C15.13 14.5695 15.17 14.4595 15.21 14.3595C15.42 13.8395 15.69 13.3595 16.03 12.9395C16.23 13.3895 16.36 13.8595 16.43 14.3595H16.88Z" fill="white"/> <path d="M17.65 11.4892C17.65 11.4892 17.7 11.4492 17.73 11.4492V12.2092C17.73 12.2092 17.73 12.2992 17.71 12.3392C17.71 12.3392 17.71 12.3459 17.71 12.3592C17.73 12.5392 17.73 12.7292 17.73 12.9192C17.73 13.3392 17.39 13.6992 16.98 13.6992C16.57 13.6992 16.23 13.3792 16.23 12.9692V12.6892C16.23 12.6892 16.29 12.6092 16.33 12.5692C16.72 12.1392 17.16 11.7792 17.65 11.4892Z" fill="white"/> <path d="M19.3601 11.6487C19.2701 11.3887 19.1801 11.1287 19.0601 10.8687C19.5501 10.7187 20.0601 10.6387 20.5801 10.6387C20.6601 10.8187 20.7201 10.9987 20.7801 11.1787C20.9101 11.5787 20.7001 11.9987 20.3101 12.1287C19.9101 12.2587 19.4901 12.0387 19.3601 11.6487Z" fill="white"/> <path d="M21.46 14.3594V15.1094C21.46 15.5294 21.13 15.8594 20.71 15.8594C20.29 15.8594 19.96 15.5294 19.96 15.1094V14.3594H21.46Z" fill="white"/> <path d="M4.04004 14.3594V15.1094C4.04004 15.5294 3.70004 15.8594 3.29004 15.8594C2.88004 15.8594 2.54004 15.5294 2.54004 15.1094V14.3594H4.04004Z" fill="white"/> <path d="M4.94012 10.8687C4.82012 11.1287 4.73012 11.3887 4.64012 11.6487C4.51012 12.0387 4.09012 12.2587 3.69012 12.1287C3.30012 11.9987 3.09012 11.5787 3.22012 11.1787C3.28012 10.9987 3.34012 10.8187 3.42012 10.6387C3.94012 10.6387 4.45012 10.7187 4.94012 10.8687Z" fill="white"/> <path d="M7.67004 12.5683C7.55004 12.7983 7.31004 12.9583 7.02004 12.9583C6.66004 12.9583 6.36004 12.6983 6.29004 12.3583C6.29004 12.3583 6.29004 12.3516 6.29004 12.3383C6.29004 12.0483 6.31004 11.7683 6.35004 11.4883C6.84004 11.7783 7.28004 12.1383 7.67004 12.5683Z" fill="white"/> <path d="M9.01012 14.9877C9.07012 15.3477 8.86012 15.6977 8.50012 15.8177C8.43012 15.8477 8.36012 15.8577 8.30012 15.8577H8.27012C8.27012 15.8577 8.21012 15.8577 8.19012 15.8477C8.14012 15.8477 8.09012 15.8377 8.05012 15.8177L8.03012 15.8077C7.96012 15.7977 7.89012 15.7577 7.83012 15.7177C7.77012 15.6777 7.72012 15.6277 7.67012 15.5677C7.67012 15.5577 7.66012 15.5577 7.66012 15.5477C7.61012 15.4877 7.58012 15.4177 7.55012 15.3477L7.52012 15.2477L7.49012 15.1577C7.40012 14.8777 7.28012 14.6077 7.12012 14.3577H7.55012C7.62012 13.8577 7.76012 13.3777 7.97012 12.9277C8.30012 13.3577 8.58012 13.8277 8.79012 14.3577C8.83012 14.4577 8.87012 14.5677 8.91012 14.6777L8.98012 14.8777C8.98012 14.8777 9.00012 14.9477 9.01012 14.9877Z" fill="white"/> <path d="M4.04004 15.1083V14.3583H2.54004V11.3783C2.54004 10.9583 2.87004 10.6283 3.29004 10.6283C3.33004 10.6283 3.38004 10.6283 3.42004 10.6383C3.34004 10.8183 3.28004 10.9983 3.22004 11.1783C3.09004 11.5783 3.30004 11.9983 3.69004 12.1283C4.09004 12.2583 4.51004 12.0383 4.64004 11.6483C4.73004 11.3883 4.82004 11.1283 4.94004 10.8683C4.45004 10.7183 3.94004 10.6383 3.42004 10.6383C4.09004 8.85826 5.14004 7.21826 6.49004 5.86826C6.71004 5.64826 7.03004 5.58826 7.31004 5.69826C7.59004 5.81826 7.77004 6.08826 7.77004 6.39826V12.2083C7.77004 12.3383 7.74004 12.4583 7.67004 12.5683C7.28004 12.1383 6.84004 11.7783 6.35004 11.4883C6.31004 11.7683 6.29004 12.0483 6.29004 12.3383C6.29004 12.3383 6.29004 12.3449 6.29004 12.3583C6.36004 12.6983 6.66004 12.9583 7.02004 12.9583C7.31004 12.9583 7.55004 12.7983 7.67004 12.5683C7.71004 12.6083 7.74004 12.6483 7.77004 12.6883C7.84004 12.7683 7.91004 12.8483 7.97004 12.9283C7.76004 13.3783 7.62004 13.8583 7.55004 14.3583H7.12004C7.28004 14.6083 7.40004 14.8783 7.49004 15.1583L7.52004 15.2483L7.55004 15.3483C7.58004 15.4183 7.61004 15.4883 7.66004 15.5483C7.66004 15.5583 7.67004 15.5583 7.67004 15.5683C7.72004 15.6283 7.77004 15.6783 7.83004 15.7183C7.89004 15.7583 7.96004 15.7983 8.03004 15.8083C8.03004 15.8083 8.04004 15.8183 8.05004 15.8183C8.09004 15.8383 8.14004 15.8483 8.19004 15.8483C8.21004 15.8583 8.24004 15.8583 8.27004 15.8583H3.29004C3.70004 15.8583 4.04004 15.5283 4.04004 15.1083Z" fill="white"/> <path d="M6.35004 11.4883C6.84004 11.7783 7.28004 12.1383 7.67004 12.5683C7.55004 12.7983 7.31004 12.9583 7.02004 12.9583C6.66004 12.9583 6.36004 12.6983 6.29004 12.3583C6.29004 12.3583 6.29004 12.3516 6.29004 12.3383C6.29004 12.0483 6.31004 11.7683 6.35004 11.4883Z" fill="white"/> <path d="M12.7499 10.1291C12.7499 10.5491 12.4099 10.8791 11.9999 10.8791C11.5899 10.8791 11.2499 10.5491 11.2499 10.1291C11.2499 9.9991 11.2499 9.8591 11.2399 9.7291C11.2099 8.2991 10.9599 6.8791 10.4999 5.5191L10.4499 5.3591C8.75992 7.4391 7.81992 9.9891 7.76992 12.6891C7.73992 12.6491 7.70992 12.6091 7.66992 12.5691C7.73992 12.4591 7.76992 12.3391 7.76992 12.2091V6.7291C8.39992 5.5091 9.22992 4.3791 10.2299 3.3791C10.4099 3.1891 10.6799 3.1191 10.9299 3.1791C11.1799 3.2391 11.3799 3.4291 11.4699 3.6691L11.9199 5.0391C11.9499 5.1291 11.9799 5.2091 11.9999 5.2991C12.4599 6.7391 12.7099 8.2291 12.7399 9.7291C12.7499 9.8591 12.7499 9.9991 12.7499 10.1291Z" fill="white"/> <path d="M17.73 12.9199C17.73 13.3399 17.39 13.6999 16.98 13.6999C16.57 13.6999 16.23 13.3799 16.23 12.9699V12.6899C16.18 9.98985 15.24 7.43985 13.55 5.35985L13.5 5.51985C13.04 6.88985 12.79 8.29985 12.76 9.73985C12.75 9.86985 12.75 9.99985 12.75 10.1299C12.75 10.5499 12.41 10.8799 12 10.8799C11.59 10.8799 11.25 10.5499 11.25 10.1299C11.25 9.99985 11.25 9.85985 11.26 9.72985C11.29 8.22985 11.54 6.73986 12 5.29985C12.02 5.20986 12.05 5.12985 12.08 5.03985L12.53 3.66985C12.62 3.42985 12.82 3.23985 13.07 3.17985C13.33 3.11985 13.59 3.19985 13.77 3.37985C14.77 4.37985 15.6 5.50985 16.23 6.72985V12.2099C16.23 12.3399 16.26 12.4599 16.33 12.5699C16.72 12.1399 17.16 11.7799 17.65 11.4899C17.69 11.7699 17.71 12.0499 17.71 12.3399C17.71 12.3399 17.71 12.3465 17.71 12.3599C17.73 12.5399 17.73 12.7299 17.73 12.9199Z" fill="white"/> <path d="M4.94012 10.8687C4.82012 11.1287 4.73012 11.3887 4.64012 11.6487C4.51012 12.0387 4.09012 12.2587 3.69012 12.1287C3.30012 11.9987 3.09012 11.5787 3.22012 11.1787C3.28012 10.9987 3.34012 10.8187 3.42012 10.6387C3.94012 10.6387 4.45012 10.7187 4.94012 10.8687Z" fill="white"/> <path d="M7.67004 12.5683C7.55004 12.7983 7.31004 12.9583 7.02004 12.9583C6.66004 12.9583 6.36004 12.6983 6.29004 12.3583C6.29004 12.3583 6.29004 12.3516 6.29004 12.3383C6.29004 12.0483 6.31004 11.7683 6.35004 11.4883C6.84004 11.7783 7.28004 12.1383 7.67004 12.5683Z" fill="white"/> <path d="M20.58 10.6383C20.06 10.6383 19.55 10.7183 19.06 10.8683C18.59 10.9983 18.14 11.1983 17.73 11.4483C17.7 11.4483 17.67 11.4683 17.65 11.4883C17.16 11.7783 16.72 12.1383 16.33 12.5683C16.26 12.4583 16.23 12.3383 16.23 12.2083V6.39826C16.23 6.08826 16.41 5.81826 16.69 5.69826C16.97 5.58826 17.3 5.64826 17.51 5.86826C18.86 7.21826 19.92 8.85826 20.58 10.6383Z" fill="white"/> <path d="M17.7301 11.4492V12.2092C17.7301 12.2092 17.7301 12.2992 17.7101 12.3392C17.7101 12.3392 17.7101 12.3459 17.7101 12.3592C17.6401 12.6992 17.3401 12.9592 16.9801 12.9592C16.7001 12.9592 16.4501 12.7992 16.3301 12.5692C16.7201 12.1392 17.1601 11.7792 17.6501 11.4892C17.6701 11.4692 17.7001 11.4492 17.7301 11.4492Z" fill="white"/> <path d="M20.3101 12.1287C19.9101 12.2587 19.4901 12.0387 19.3601 11.6487C19.2701 11.3887 19.1801 11.1287 19.0601 10.8687C19.5501 10.7187 20.0601 10.6387 20.5801 10.6387C20.6601 10.8187 20.7201 10.9987 20.7801 11.1787C20.9101 11.5787 20.7001 11.9987 20.3101 12.1287Z" fill="white"/> <path d="M10.18 15.4494L9.98003 15.8594L9.48003 16.8494L8.73003 18.3494L8.24003 19.3394L7.69004 20.4294C7.56004 20.6894 7.30004 20.8394 7.02004 20.8394C6.91004 20.8394 6.79004 20.8194 6.69004 20.7594C6.31004 20.5794 6.17004 20.1294 6.35004 19.7594L6.56004 19.3394L7.58004 17.3094C7.58004 17.3094 7.62004 17.2194 7.65004 17.1794L8.30004 15.8594V15.8394L8.84004 14.7794C8.86004 14.7394 8.88004 14.7094 8.91004 14.6794C8.94004 14.6194 8.99004 14.5594 9.05004 14.5294C9.08004 14.4994 9.12003 14.4794 9.15003 14.4594C9.20003 14.4294 9.25004 14.3994 9.31004 14.3894C9.38004 14.3694 9.44004 14.3594 9.51004 14.3594C9.63004 14.3594 9.74004 14.3894 9.85004 14.4394C10.22 14.6294 10.37 15.0794 10.18 15.4494Z" fill="white"/> <path d="M17.31 20.7594C17.21 20.8194 17.09 20.8394 16.98 20.8394C16.71 20.8394 16.44 20.6894 16.31 20.4294L15.77 19.3394L15.27 18.3494L14.52 16.8494L14.03 15.8594L13.82 15.4494C13.63 15.0794 13.78 14.6294 14.15 14.4394C14.26 14.3894 14.38 14.3594 14.49 14.3594C14.65 14.3594 14.81 14.4094 14.93 14.5094C15 14.5494 15.06 14.6094 15.09 14.6794C15.12 14.7094 15.14 14.7394 15.16 14.7794L15.7 15.8594L16.35 17.1794C16.35 17.1794 16.4 17.2694 16.42 17.3094L17.44 19.3394L17.65 19.7594C17.84 20.1294 17.69 20.5794 17.31 20.7594Z" fill="white"/> <path d="M16.98 20.8396H7.02002C7.30002 20.8396 7.56002 20.6896 7.69002 20.4296L8.24002 19.3396L8.73002 18.3496L9.48002 16.8496H14.52L15.27 18.3496L15.77 19.3396L16.31 20.4296C16.44 20.6896 16.71 20.8396 16.98 20.8396Z" fill="white"/> <path d="M8.27002 16.8496H9.48002L8.73002 18.3496H8.27002C7.85002 18.3496 7.52002 18.0096 7.52002 17.5996C7.52002 17.4996 7.54002 17.3996 7.58002 17.3096C7.60002 17.2696 7.62002 17.2196 7.65002 17.1796C7.78002 16.9796 8.01002 16.8496 8.27002 16.8496Z" fill="white"/> <path d="M16.48 17.5996C16.48 18.0096 16.15 18.3496 15.73 18.3496H15.27L14.52 16.8496H15.73C15.99 16.8496 16.22 16.9796 16.35 17.1796C16.38 17.2196 16.4 17.2696 16.42 17.3096C16.46 17.3996 16.48 17.4996 16.48 17.5996Z" fill="white"/> </g> <defs> <clipPath id="clip0_2085_384587"> <rect width="24" height="24" fill="white"/> </clipPath> </defs> </svg>
