<svg width="24" height="24" viewBox="0 0 24 24" fill="none" xmlns="http://www.w3.org/2000/svg"> <g clip-path="url(#clip0_4482_1750)"> <path d="M16 2H8C5.25 2 3 4.25 3 7V19.9C3 20.82 4.01005 21.39 4.80005 20.92L7.14001 19.52C7.66001 19.21 8.32006 19.24 8.81006 19.61L11.1 21.33C11.63 21.73 12.37 21.73 12.9 21.33L15.1899 19.61C15.6799 19.24 16.34 19.21 16.86 19.52L19.2 20.92C19.99 21.39 21 20.82 21 19.9V7C21 4.25 18.75 2 16 2ZM13 14.75H10.5C10.09 14.75 9.75 14.41 9.75 14C9.75 13.59 10.09 13.25 10.5 13.25H13C13.96 13.25 14.75 12.46 14.75 11.5C14.75 10.54 13.96 9.75 13 9.75H10.47L11.25 10.44C11.56 10.72 11.5901 11.19 11.3101 11.5C11.1601 11.67 10.96 11.75 10.75 11.75C10.57 11.75 10.4 11.69 10.25 11.56L8 9.56C7.84 9.42 7.75 9.21 7.75 9C7.75 8.79 7.84 8.58 8 8.44L10.25 6.44C10.56 6.16 11.0301 6.19 11.3101 6.5C11.5901 6.81 11.56 7.28 11.25 7.56L10.47 8.25H13C14.79 8.25 16.25 9.71 16.25 11.5C16.25 13.29 14.79 14.75 13 14.75Z" fill="white"/> </g> <defs> <clipPath id="clip0_4482_1750"> <rect width="24" height="24" fill="white"/> </clipPath> </defs> </svg>
