<svg width="24" height="24" viewBox="0 0 24 24" fill="none" xmlns="http://www.w3.org/2000/svg"> <g clip-path="url(#clip0_2085_384109)"> <path d="M2.00007 20.2501C1.80007 20.2501 1.60007 20.1701 1.46007 20.0201C1.17007 19.7201 1.19007 19.2401 1.49007 18.9601C3.72007 16.8301 5.01007 13.8401 5.01007 10.7501C5.01007 7.66007 3.72007 4.67007 1.48007 2.54007C1.18007 2.25007 1.17007 1.78007 1.45007 1.48007C1.74007 1.18007 2.21007 1.17007 2.51007 1.45007C5.04007 3.86007 6.49007 7.25007 6.49007 10.7401C6.49007 14.2301 5.04007 17.6201 2.51007 20.0301C2.36007 20.1701 2.18007 20.2401 1.99007 20.2401L2.00007 20.2501Z" fill="white"/> <path d="M22 20.2501C21.81 20.2501 21.63 20.1801 21.48 20.0401C18.95 17.6301 17.5 14.2401 17.5 10.7501C17.5 7.26007 18.95 3.87006 21.48 1.46006C21.78 1.17006 22.25 1.19006 22.54 1.49006C22.83 1.79006 22.81 2.27006 22.51 2.55006C20.28 4.68006 18.99 7.67006 18.99 10.7601C18.99 13.8501 20.27 16.8401 22.51 18.9701C22.81 19.2601 22.82 19.7301 22.54 20.0301C22.39 20.1801 22.19 20.2601 22 20.2601V20.2501Z" fill="white"/> <path d="M18.25 11.5H5.75C5.34 11.5 5 11.16 5 10.75C5 10.34 5.34 10 5.75 10H18.25C18.66 10 19 10.34 19 10.75C19 11.16 18.66 11.5 18.25 11.5Z" fill="white"/> <path d="M12 16.5C11.59 16.5 11.25 16.16 11.25 15.75V2C11.25 1.59 11.59 1.25 12 1.25C12.41 1.25 12.75 1.59 12.75 2V15.75C12.75 16.16 12.41 16.5 12 16.5Z" fill="white"/> <path d="M12 22C14.2091 22 16 20.2091 16 18C16 15.7909 14.2091 14 12 14C9.79086 14 8 15.7909 8 18C8 20.2091 9.79086 22 12 22Z" fill="white"/> </g> <defs> <clipPath id="clip0_2085_384109"> <rect width="24" height="24" fill="white"/> </clipPath> </defs> </svg>
