<svg width="24" height="24" viewBox="0 0 24 24" fill="none" xmlns="http://www.w3.org/2000/svg"> <g clip-path="url(#clip0_4482_1503)"> <path d="M15.5 2H8.5C6.02 2 4 4.03 4 6.5V16.5C4 18.98 6.03 21 8.5 21H14C13.37 20.17 13 19.13 13 18C13 15.24 15.24 13 18 13C18.71 13 19.39 13.15 20 13.41V6.5C20 4.02 17.97 2 15.5 2ZM14 6.75H10C9.59 6.75 9.25 6.41 9.25 6C9.25 5.59 9.59 5.25 10 5.25H14C14.41 5.25 14.75 5.59 14.75 6C14.75 6.41 14.41 6.75 14 6.75Z" fill="white"/> <path d="M18 23.75C16.2 23.75 14.48 22.89 13.4 21.45C12.65 20.46 12.25 19.26 12.25 18C12.25 14.83 14.83 12.25 18 12.25C18.79 12.25 19.56 12.41 20.29 12.72C22.39 13.65 23.75 15.72 23.75 18C23.75 21.17 21.17 23.75 18 23.75ZM18 13.75C15.66 13.75 13.75 15.66 13.75 18C13.75 18.94 14.04 19.82 14.6 20.55C15.4 21.62 16.67 22.25 18 22.25C20.34 22.25 22.25 20.34 22.25 18C22.25 16.32 21.25 14.78 19.7 14.1C19.16 13.87 18.59 13.75 18 13.75Z" fill="white"/> <path d="M17.9999 20.75C17.6999 20.75 17.4199 20.62 17.2399 20.39L15.2699 18.22C15.2699 18.22 15.2699 18.22 15.2699 18.21C14.9799 17.88 14.9299 17.41 15.1299 17.04L16.0599 15.68C16.2599 15.4 16.5599 15.24 16.8899 15.24H19.1199C19.4499 15.24 19.7499 15.4 19.9399 15.67L20.8399 16.98C21.0999 17.32 21.0799 17.85 20.7599 18.21L18.7599 20.42C18.5199 20.64 18.2599 20.75 17.9999 20.75ZM18.3399 19.38L18.3699 19.41C18.3599 19.4 18.3499 19.39 18.3399 19.38ZM16.6299 17.5L18.0099 19.01L19.3699 17.51L18.8499 16.75H17.1399L16.6299 17.5ZM19.5799 17.82C19.5899 17.84 19.5999 17.86 19.6199 17.87L19.5799 17.82Z" fill="white"/> </g> <defs> <clipPath id="clip0_4482_1503"> <rect width="24" height="24" fill="white"/> </clipPath> </defs> </svg>
