<svg width="24" height="24" viewBox="0 0 24 24" fill="none" xmlns="http://www.w3.org/2000/svg"> <g clip-path="url(#clip0_4482_11132)"> <path d="M16.44 2H7.56C4.49 2 2 4.49 2 7.56V16.45C2 19.52 4.49 22.01 7.56 22.01H16.45C19.52 22.01 22.01 19.52 22.01 16.45V7.56C22.01 4.49 19.52 2 16.45 2H16.44ZM17.17 17.17C16.74 17.59 16.17 17.83 15.56 17.83H8.44C7.83 17.83 7.26 17.59 6.83 17.17C6.41 16.74 6.17 16.17 6.17 15.56V8.44C6.17 7.18 7.18 6.17 8.44 6.17C9.06 6.17 9.63 6.42 10.04 6.83C10.45 7.24 10.7 7.81 10.7 8.44V10.09L12.57 8.22C13.02 7.78 13.6 7.55 14.18 7.55C14.76 7.55 15.34 7.78 15.78 8.22C16.67 9.11 16.67 10.54 15.78 11.43L13.91 13.3H15.56C16.17 13.3 16.74 13.54 17.17 13.96C17.59 14.39 17.83 14.96 17.83 15.57C17.83 16.18 17.59 16.74 17.17 17.17Z" fill="white"/> </g> <defs> <clipPath id="clip0_4482_11132"> <rect width="24" height="24" fill="white"/> </clipPath> </defs> </svg>
