<svg width="24" height="24" viewBox="0 0 24 24" fill="none" xmlns="http://www.w3.org/2000/svg"> <g clip-path="url(#clip0_4482_1734)"> <path d="M15.8399 8.75C15.4299 8.75 15.0899 8.41 15.0899 8V5.84C15.0899 4.14 13.7099 2.75 11.9999 2.75C10.2899 2.75 8.90991 4.13 8.90991 5.84V8C8.90991 8.41 8.56991 8.75 8.15991 8.75C7.74991 8.75 7.40991 8.41 7.40991 8V5.84C7.40991 3.31 9.46991 1.25 11.9999 1.25C14.5299 1.25 16.5899 3.31 16.5899 5.84V8C16.5899 8.41 16.2499 8.75 15.8399 8.75Z" fill="white"/> <path d="M16 7H8C5.25 7 3 9.25 3 12V17C3 19.75 5.25 22 8 22H16C18.75 22 21 19.75 21 17V12C21 9.25 18.75 7 16 7ZM14.19 14.22L12.19 16.42C12.14 16.47 12.07 16.5 12 16.5C11.93 16.5 11.86 16.47 11.82 16.42L9.82001 14.22C9.74001 14.13 9.73 14 9.78 13.91L10.67 12.61C10.72 12.54 10.8 12.5 10.88 12.5H13.11C13.2 12.5 13.27 12.54 13.32 12.61L14.21 13.91C14.28 14 14.27 14.13 14.19 14.22Z" fill="white"/> </g> <defs> <clipPath id="clip0_4482_1734"> <rect width="24" height="24" fill="white"/> </clipPath> </defs> </svg>
