<svg width="24" height="24" viewBox="0 0 24 24" fill="none" xmlns="http://www.w3.org/2000/svg"> <g clip-path="url(#clip0_2085_384446)"> <path d="M17.7 12.9501C17.66 12.7401 17.53 12.5701 17.34 12.4601C17.15 12.3501 16.94 12.3301 16.74 12.3901C14.8 12.9901 13.66 13.7201 12.72 14.8001V13.2701C13.55 13.1201 14.33 12.7201 14.93 12.1201C15.72 11.3301 16.16 10.2801 16.16 9.16009V6.65009C16.16 6.43009 16.1 6.21009 15.99 6.01009C15.88 5.81009 15.72 5.65009 15.54 5.53009C15.35 5.41009 15.13 5.34009 14.9 5.33009C14.68 5.32009 14.45 5.36009 14.24 5.47009L12.4062 6.38698C12.1253 6.52746 11.7946 6.52775 11.5134 6.38776L9.67001 5.47009C9.47001 5.37009 9.25001 5.33009 9.01001 5.34009C8.78001 5.35009 8.56001 5.42009 8.38001 5.54009C8.19001 5.66009 8.03001 5.83009 7.92001 6.02009C7.81001 6.22009 7.76001 6.44009 7.76001 6.66009V9.17009C7.76001 10.2901 8.20001 11.3401 8.99001 12.1301C9.60001 12.7401 10.37 13.1301 11.2 13.2801V14.8001C10.26 13.7201 9.12001 13.0001 7.18001 12.3901C6.98001 12.3301 6.76001 12.3501 6.58001 12.4601C6.40001 12.5701 6.27001 12.7401 6.22001 12.9501C6.00001 13.9501 6.08001 15.4001 6.95001 16.4801C7.73001 17.4501 8.94001 17.9401 10.56 17.9401H13.32C14.94 17.9401 16.15 17.4501 16.93 16.4801C17.8 15.4001 17.92 13.9401 17.7 12.9501Z" fill="white"/> <path d="M20.1701 19.21H21.4201C21.8301 19.21 22.1701 18.87 22.1701 18.46C22.1701 18.05 21.8301 17.71 21.4201 17.71H18.3601C18.2601 17.71 18.1701 17.73 18.0701 17.77C17.8901 17.85 17.7401 17.99 17.6601 18.18C17.6201 18.27 17.6001 18.37 17.6001 18.47V21.53C17.6001 21.94 17.9401 22.28 18.3501 22.28C18.7601 22.28 19.1001 21.94 19.1001 21.53V20.28L21.3601 22.54C21.5101 22.69 21.7001 22.76 21.8901 22.76C22.0801 22.76 22.2701 22.69 22.4201 22.54C22.7101 22.25 22.7101 21.77 22.4201 21.48L20.1601 19.22L20.1701 19.21Z" fill="white"/> <path d="M3.79004 4.74994H2.54004C2.13004 4.74994 1.79004 5.08994 1.79004 5.49994C1.79004 5.90994 2.13004 6.24994 2.54004 6.24994H5.60004C5.66004 6.24994 5.71004 6.22994 5.76004 6.21994C5.80004 6.21994 5.84004 6.21994 5.88004 6.18994C6.07004 6.10994 6.21004 5.96994 6.29004 5.77994C6.31004 5.73994 6.31004 5.69994 6.32004 5.65994C6.33004 5.60994 6.35004 5.55994 6.35004 5.49994V2.43994C6.35004 2.02994 6.01004 1.68994 5.60004 1.68994C5.19004 1.68994 4.85004 2.02994 4.85004 2.43994V3.68994L2.63004 1.46994C2.34004 1.17994 1.86004 1.17994 1.57004 1.46994C1.28004 1.75994 1.28004 2.23994 1.57004 2.52994L3.79004 4.74994Z" fill="white"/> <path d="M6.32004 18.19C6.24004 18.01 6.10004 17.86 5.91004 17.78C5.83004 17.75 5.74004 17.73 5.65004 17.73C5.65004 17.73 5.63004 17.73 5.62004 17.73H2.56004C2.15004 17.73 1.81004 18.07 1.81004 18.48C1.81004 18.89 2.15004 19.23 2.56004 19.23H3.81004L1.57004 21.47C1.28004 21.76 1.28004 22.24 1.57004 22.53C1.72004 22.68 1.91004 22.75 2.10004 22.75C2.29004 22.75 2.48004 22.68 2.63004 22.53L4.87004 20.29V21.54C4.87004 21.95 5.21004 22.29 5.62004 22.29C6.03004 22.29 6.37004 21.95 6.37004 21.54V18.48C6.37004 18.48 6.35004 18.39 6.34004 18.35C6.34004 18.3 6.33004 18.25 6.31004 18.2L6.32004 18.19Z" fill="white"/> <path d="M18.2 6.09994C18.29 6.13994 18.39 6.15994 18.49 6.15994H21.55C21.96 6.15994 22.3 5.81994 22.3 5.40994C22.3 4.99994 21.96 4.65994 21.55 4.65994H20.3L22.43 2.52994C22.72 2.23994 22.72 1.75994 22.43 1.46994C22.14 1.17994 21.66 1.17994 21.37 1.46994L19.24 3.59994V2.34994C19.24 1.93994 18.9 1.59994 18.49 1.59994C18.08 1.59994 17.74 1.93994 17.74 2.34994V5.40994C17.74 5.50994 17.76 5.59994 17.8 5.69994C17.88 5.87994 18.02 6.02994 18.21 6.10994L18.2 6.09994Z" fill="white"/> </g> <defs> <clipPath id="clip0_2085_384446"> <rect width="24" height="24" fill="white"/> </clipPath> </defs> </svg>
