<svg width="24" height="24" viewBox="0 0 24 24" fill="none" xmlns="http://www.w3.org/2000/svg"> <g clip-path="url(#clip0_2085_394189)"> <path d="M17.2 10.1802C17.27 10.0102 17.5 10.0102 17.56 10.1802C17.92 11.1302 18.67 11.8802 19.62 12.2402C19.79 12.3102 19.79 12.5402 19.62 12.6002C18.67 12.9602 17.92 13.7102 17.56 14.6602C17.49 14.8302 17.26 14.8302 17.2 14.6602C16.84 13.7102 16.09 12.9602 15.14 12.6002C14.97 12.5302 14.97 12.3002 15.14 12.2402C16.09 11.8802 16.84 11.1302 17.2 10.1802Z" fill="white"/> <path d="M20.74 8.22998H21.07C21.19 8.43998 21.37 8.61998 21.58 8.73998V9.06998C21.37 9.18998 21.19 9.36998 21.07 9.57998H20.74C20.62 9.36998 20.44 9.18998 20.23 9.06998V8.73998C20.44 8.61998 20.62 8.43998 20.74 8.22998Z" fill="white"/> <path d="M10.3799 21.6598C9.96988 21.6598 9.62988 21.3198 9.62988 20.9098V3.08984C9.62988 2.67984 9.96988 2.33984 10.3799 2.33984C10.7899 2.33984 11.1299 2.67984 11.1299 3.08984V20.8998C11.1299 21.3098 10.7899 21.6498 10.3799 21.6498V21.6598Z" fill="white"/> <path d="M14.5701 9.07978C14.1601 9.07978 13.8201 8.73978 13.8201 8.32978V7.27979C13.8201 6.86979 14.1601 6.52979 14.5701 6.52979C14.9801 6.52979 15.3201 6.86979 15.3201 7.27979V8.32978C15.3201 8.73978 14.9801 9.07978 14.5701 9.07978Z" fill="white"/> <path d="M14.5701 17.4602C14.1601 17.4602 13.8201 17.1202 13.8201 16.7102V15.6602C13.8201 15.2502 14.1601 14.9102 14.5701 14.9102C14.9801 14.9102 15.3201 15.2502 15.3201 15.6602V16.7102C15.3201 17.1202 14.9801 17.4602 14.5701 17.4602Z" fill="white"/> <path d="M6.18994 17.46C5.77994 17.46 5.43994 17.12 5.43994 16.71V7.29004C5.43994 6.88004 5.77994 6.54004 6.18994 6.54004C6.59994 6.54004 6.93994 6.88004 6.93994 7.29004V16.72C6.93994 17.13 6.59994 17.47 6.18994 17.47V17.46Z" fill="white"/> <path d="M2 13.8002C1.59 13.8002 1.25 13.4602 1.25 13.0502V10.9502C1.25 10.5402 1.59 10.2002 2 10.2002C2.41 10.2002 2.75 10.5402 2.75 10.9502V13.0502C2.75 13.4602 2.41 13.8002 2 13.8002Z" fill="white"/> </g> <defs> <clipPath id="clip0_2085_394189"> <rect width="24" height="24" fill="white"/> </clipPath> </defs> </svg>
