<svg width="24" height="24" viewBox="0 0 24 24" fill="none" xmlns="http://www.w3.org/2000/svg"> <g clip-path="url(#clip0_2085_388554)"> <path d="M11.9999 6.22C13.1652 6.22 14.1099 5.27532 14.1099 4.11C14.1099 2.94468 13.1652 2 11.9999 2C10.8346 2 9.88989 2.94468 9.88989 4.11C9.88989 5.27532 10.8346 6.22 11.9999 6.22Z" fill="white"/> <path d="M22.53 21.2498H22.23V8.31982C22.23 7.90982 21.89 7.56982 21.48 7.56982C21.07 7.56982 20.73 7.90982 20.73 8.31982V8.61982H3.27998V8.31982C3.27998 7.90982 2.93998 7.56982 2.52998 7.56982C2.11998 7.56982 1.77998 7.90982 1.77998 8.31982V21.2498H1.47998C1.06998 21.2498 0.72998 21.5898 0.72998 21.9998C0.72998 22.4098 1.06998 22.7498 1.47998 22.7498H3.58998C3.99998 22.7498 4.33998 22.4098 4.33998 21.9998C4.33998 21.5898 3.99998 21.2498 3.58998 21.2498H3.28998V18.5398H20.74V21.2498H20.44C20.03 21.2498 19.69 21.5898 19.69 21.9998C19.69 22.4098 20.03 22.7498 20.44 22.7498H22.55C22.96 22.7498 23.3 22.4098 23.3 21.9998C23.3 21.5898 22.96 21.2498 22.55 21.2498H22.53ZM20.72 12.8298H17.48V10.1198H20.72V12.8298ZM11.25 14.3298V17.0398H8.00998V14.3298H11.25ZM8.00998 12.8298V10.1198H11.25V12.8298H8.00998ZM12.75 14.3298H15.99V17.0398H12.75V14.3298ZM12.75 12.8298V10.1198H15.99V12.8298H12.75ZM6.50998 10.1198V12.8298H3.26998V10.1198H6.50998ZM3.27998 14.3298H6.51998V17.0398H3.27998V14.3298ZM17.49 17.0398V14.3298H20.73V17.0398H17.49Z" fill="white"/> </g> <defs> <clipPath id="clip0_2085_388554"> <rect width="24" height="24" fill="white"/> </clipPath> </defs> </svg>
