<svg width="24" height="24" viewBox="0 0 24 24" fill="none" xmlns="http://www.w3.org/2000/svg"> <g clip-path="url(#clip0_2085_383842)"> <path d="M12 1.25C5.97 1.25 1.25 3.74 1.25 6.91V18.38C1.25 20.13 2.93 21.67 5.87 22.61C6.04 22.66 6.22 22.69 6.4 22.69C6.62 22.69 6.85 22.64 7.07 22.55L12 20.48L16.94 22.55C17.15 22.64 17.37 22.69 17.6 22.69C17.78 22.69 17.96 22.66 18.14 22.6C21.07 21.67 22.75 20.13 22.75 18.38V6.91C22.75 3.74 18.03 1.25 12 1.25ZM5.69 20.95C3.86 20.26 2.75 19.3 2.75 18.38V15.32C2.81 15.37 2.87 15.42 2.94 15.47C3.04 15.54 3.15 15.62 3.27 15.69C3.45 15.81 3.64 15.92 3.84 16.03C3.97 16.1 4.11 16.17 4.26 16.24C4.4 16.31 4.55 16.38 4.71 16.44C5.02 16.57 5.34 16.69 5.69 16.81V20.95ZM5.69 15.22C5.12 15 4.62 14.76 4.2 14.5C4.03 14.4 3.88 14.29 3.74 14.18C3.46 13.96 3.23 13.74 3.07 13.51C3.02 13.45 2.98 13.4 2.95 13.34C2.92 13.28 2.89 13.22 2.87 13.17C2.84 13.11 2.82 13.05 2.8 12.99C2.8 12.94 2.77 12.89 2.77 12.84C2.76 12.78 2.75 12.71 2.75 12.65V9.59C2.75 9.59 2.84 9.66 2.89 9.69C3.01 9.79 3.14 9.87 3.27 9.95C3.4 10.04 3.53 10.12 3.67 10.2C3.82 10.29 3.96 10.37 4.12 10.44C4.27 10.52 4.43 10.59 4.6 10.66C4.76 10.74 4.93 10.81 5.11 10.87C5.3 10.95 5.49 11.02 5.69 11.08V15.22ZM11.25 19.17L7.19 20.88V16.76L11.25 15.07V19.17ZM11.25 13.44L7.19 15.13V11.03L11.25 9.33V13.44ZM16.81 20.88L12.75 19.17V15.07L16.81 16.76V20.88ZM16.81 15.13L12.75 13.44V9.33L16.81 11.03V15.13ZM21.25 18.38C21.25 19.3 20.14 20.26 18.31 20.95V16.81C18.46 16.76 18.62 16.71 18.76 16.65C18.9 16.6 19.04 16.55 19.18 16.49C19.34 16.43 19.49 16.36 19.64 16.29C19.75 16.24 19.86 16.19 19.96 16.13C20.46 15.88 20.89 15.61 21.25 15.32V18.38ZM21.25 12.65C21.25 13.56 20.12 14.53 18.31 15.22V11.08C19.22 10.78 20 10.42 20.65 10.01C20.87 9.88 21.07 9.74 21.25 9.59V12.65Z" fill="white"/> </g> <defs> <clipPath id="clip0_2085_383842"> <rect width="24" height="24" fill="white"/> </clipPath> </defs> </svg>
