<svg width="24" height="24" viewBox="0 0 24 24" fill="none" xmlns="http://www.w3.org/2000/svg"> <g clip-path="url(#clip0_2085_393568)"> <path d="M13.8701 10.35C13.8701 10.35 13.8601 10.4 13.8501 10.42C13.7101 10.83 13.4401 11.19 13.1501 11.48C12.8401 11.8 12.4201 11.95 12.0001 11.95C11.5801 11.95 11.1801 11.8 10.8601 11.48C10.5501 11.18 10.2701 10.8 10.1401 10.38C10.1401 10.37 10.1401 10.36 10.1301 10.35C10.0401 9.99996 10.1901 9.60996 10.5001 9.40996C10.9301 9.12996 11.4501 8.95996 12.0001 8.95996C12.5501 8.95996 13.0501 9.11996 13.4701 9.38996C13.8001 9.59996 13.9601 9.97996 13.8701 10.35Z" fill="white"/> <path d="M18.79 17.0596C18.7 17.1496 18.6 17.2396 18.5 17.3196C18.56 17.2796 18.62 17.2196 18.68 17.1696C18.2699 20.1014 16.8559 21.366 16.1996 21.8047C16.0447 21.9082 15.86 21.7928 15.86 21.6064V18.2396C15.68 18.2396 15.51 18.2296 15.34 18.1996C14.86 18.1196 14.4 17.9196 14 17.6396C13.86 17.5396 13.72 17.4596 13.57 17.3796C13.26 17.2296 12.92 17.1196 12.56 17.0596C12.38 17.0296 12.19 17.0196 12 17.0196C11.81 17.0196 11.62 17.0296 11.44 17.0596C11.08 17.1196 10.74 17.2296 10.43 17.3796C10.28 17.4596 10.14 17.5396 10 17.6396C9.60002 17.9196 9.14002 18.1196 8.66002 18.1996C8.49002 18.2296 8.32002 18.2396 8.14002 18.2396V21.6064C8.14002 21.7928 7.95535 21.9082 7.80041 21.8047C7.14412 21.366 5.73017 20.1014 5.32002 17.1696C4.52002 16.4296 4.02002 15.3596 4.02002 14.1896C4.02002 13.2396 4.34002 12.3796 4.88002 11.6896C4.98002 11.5696 5.09002 11.4696 5.21002 11.3696C5.94002 10.7396 6.96002 10.3496 8.08002 10.3496H9.11002C9.12002 10.3996 9.13002 10.4596 9.14002 10.5096L9.23002 10.8796L9.27002 10.9096C9.50002 11.4796 9.87002 11.9196 10.15 12.1896C10.65 12.6796 11.3 12.9496 12 12.9496C12.7 12.9496 13.38 12.6796 13.86 12.1896C14.3 11.7496 14.61 11.2696 14.79 10.7696L14.84 10.5896C14.86 10.5096 14.87 10.4296 14.88 10.3496H15.92C17.22 10.3496 18.38 10.8696 19.12 11.6896C19.66 12.3796 19.98 13.2396 19.98 14.1896C19.98 15.3096 19.53 16.3196 18.79 17.0596Z" fill="white"/> <path d="M18.9099 9.06043C18.7699 8.44043 18.5899 7.81043 18.3599 7.18043C18.0399 6.34043 17.6299 5.52043 17.0799 4.76043C16.4699 3.91043 15.6599 3.10043 14.5599 2.57043C14.1299 2.37043 13.6499 2.21043 13.1099 2.10043C12.3799 1.97043 11.6199 1.97043 10.8899 2.10043C10.8699 2.11043 10.8499 2.11043 10.8399 2.11043C10.3299 2.22043 9.85988 2.37043 9.43988 2.57043C8.33988 3.09043 7.52988 3.91043 6.91988 4.76043C6.36988 5.52043 5.95988 6.34043 5.63988 7.18043C5.40988 7.80043 5.22988 8.44043 5.08988 9.06043C4.98988 9.51043 4.91988 9.94043 4.87988 10.3604C5.76988 9.71043 6.88988 9.35043 8.07988 9.35043H9.28988C9.42988 9.04043 9.65988 8.76043 9.95988 8.57043C11.1699 7.78043 12.8099 7.77043 14.0099 8.55043C14.3299 8.75043 14.5699 9.03043 14.7099 9.35043H15.9199C17.1099 9.35043 18.2299 9.71043 19.1199 10.3604C19.0799 9.94043 19.0099 9.51043 18.9099 9.06043ZM8.08988 8.48043C7.73988 8.48043 7.45988 8.20043 7.45988 7.85043C7.45988 7.50043 7.73988 7.23043 8.08988 7.23043C8.43988 7.23043 8.70988 7.51043 8.70988 7.85043C8.70988 8.19043 8.42988 8.48043 8.08988 8.48043ZM15.9199 8.48043C15.5799 8.48043 15.2999 8.20043 15.2999 7.85043C15.2999 7.50043 15.5799 7.23043 15.9199 7.23043C16.2599 7.23043 16.5399 7.51043 16.5399 7.85043C16.5399 8.19043 16.2599 8.48043 15.9199 8.48043Z" fill="white"/> </g> <defs> <clipPath id="clip0_2085_393568"> <rect width="24" height="24" fill="white"/> </clipPath> </defs> </svg>
