<svg width="24" height="24" viewBox="0 0 24 24" fill="none" xmlns="http://www.w3.org/2000/svg"> <g clip-path="url(#clip0_2085_388999)"> <path d="M14.9701 8.99043C14.5601 8.99043 14.2201 8.65043 14.2201 8.24043C14.2201 5.91043 12.7201 4.32043 9.75008 3.53043C9.35008 3.42043 9.11008 3.01043 9.22008 2.61043C9.33008 2.21043 9.74008 1.97043 10.1401 2.08043C14.7501 3.32043 15.7201 6.12043 15.7201 8.24043C15.7201 8.65043 15.3801 8.99043 14.9701 8.99043Z" fill="white"/> <path d="M2 21.9504C1.59 21.9504 1.25 21.6104 1.25 21.2004C1.25 20.7904 1.59 20.4504 2 20.4504C7.67 20.4504 10.78 18.9604 11.26 16.0204C11.33 15.6104 11.71 15.3304 12.12 15.4004C12.53 15.4704 12.81 15.8504 12.74 16.2604C12.13 20.0404 8.51 21.9504 2 21.9504Z" fill="white"/> <path d="M16.46 21.9502C16.08 21.9502 15.75 21.6602 15.71 21.2702C15.67 20.8602 15.98 20.4902 16.39 20.4602C20.65 20.0802 21.08 19.3002 21.08 19.2902C20.95 18.8502 18.7 17.6302 14.87 17.1102C14.46 17.0502 14.17 16.6702 14.23 16.2602C14.29 15.8502 14.67 15.5602 15.08 15.6202C17.89 16.0102 22.62 17.2302 22.57 19.3602C22.54 20.7802 20.67 21.5802 16.52 21.9502C16.5 21.9502 16.47 21.9502 16.45 21.9502H16.46Z" fill="white"/> <path d="M14.9801 16.3602C14.0101 16.2202 13.0001 16.1502 12.0001 16.1402C12.1701 15.0602 12.0201 14.0002 11.8601 13.2102C13.1401 12.2802 13.9901 11.2002 14.4701 10.2002C15.3901 12.2902 15.0501 15.7202 14.9801 16.3602Z" fill="white"/> <path d="M14.9801 17.1102C14.9801 17.1102 14.9101 17.1102 14.8701 17.1102C13.9601 16.9802 12.9901 16.9102 11.9901 16.9002C11.7701 16.9002 11.5701 16.8002 11.4301 16.6302C11.2901 16.4602 11.2301 16.2402 11.2601 16.0302C11.4201 15.0202 11.2601 14.0302 11.1301 13.3702C11.0701 13.0802 11.1901 12.7902 11.4201 12.6102C12.7701 11.6302 13.4601 10.5902 13.8001 9.8802C13.9301 9.6202 14.2001 9.4502 14.4901 9.4502C14.7801 9.4502 15.0501 9.6302 15.1601 9.9002C16.0901 12.0102 15.8701 15.1802 15.7301 16.4402C15.7101 16.6402 15.6001 16.8302 15.4401 16.9502C15.3101 17.0502 15.1501 17.1102 14.9801 17.1102ZM12.8201 15.4102C13.3201 15.4302 13.8201 15.4702 14.3001 15.5202C14.3801 14.3902 14.3701 13.1202 14.2001 12.0202C13.8101 12.5102 13.3201 13.0202 12.6801 13.5202C12.7701 14.0502 12.8401 14.7002 12.8201 15.4002V15.4102Z" fill="white"/> <path d="M3.98999 16.4695C3.59999 16.4695 3.26999 16.1595 3.23999 15.7695C3.20999 15.3595 3.52999 14.9995 3.93999 14.9795C6.94999 14.7895 9.53999 13.9695 11.42 12.6095C11.75 12.3695 12.23 12.4395 12.47 12.7795C12.71 13.1095 12.64 13.5795 12.3 13.8295C10.19 15.3595 7.32999 16.2795 4.03999 16.4795C4.01999 16.4795 4.00999 16.4795 3.98999 16.4795V16.4695Z" fill="white"/> <path d="M14.4701 10.9497C14.3601 10.9497 14.2501 10.9297 14.1501 10.8797C13.7801 10.6997 13.6201 10.2497 13.8001 9.87969C14.0701 9.30969 14.2301 8.71969 14.2301 8.23969C14.2301 5.90969 12.7201 4.31969 9.75008 3.51969C9.35008 3.40969 9.11008 2.99969 9.22008 2.59969C9.33008 2.19969 9.74008 1.95969 10.1401 2.06969C14.7601 3.30969 15.7301 6.10969 15.7301 8.22969C15.7301 8.93969 15.5301 9.72969 15.1601 10.5097C15.0301 10.7797 14.7601 10.9397 14.4801 10.9397L14.4701 10.9497Z" fill="white"/> <path d="M9.97999 10.23C11.079 10.23 11.97 9.33905 11.97 8.24C11.97 7.14095 11.079 6.25 9.97999 6.25C8.88094 6.25 7.98999 7.14095 7.98999 8.24C7.98999 9.33905 8.88094 10.23 9.97999 10.23Z" fill="white"/> <path d="M9.97998 10.9802C8.46998 10.9802 7.22998 9.75023 7.22998 8.24023C7.22998 6.73023 8.45998 5.49023 9.97998 5.49023C11.5 5.49023 12.72 6.72023 12.72 8.24023C12.72 9.76023 11.49 10.9802 9.97998 10.9802ZM9.97998 6.99023C9.28998 6.99023 8.72998 7.55023 8.72998 8.24023C8.72998 8.93023 9.28998 9.48023 9.97998 9.48023C10.67 9.48023 11.22 8.92023 11.22 8.24023C11.22 7.56023 10.66 6.99023 9.97998 6.99023Z" fill="white"/> </g> <defs> <clipPath id="clip0_2085_388999"> <rect width="24" height="24" fill="white"/> </clipPath> </defs> </svg>
