<svg width="24" height="24" viewBox="0 0 24 24" fill="none" xmlns="http://www.w3.org/2000/svg"> <g clip-path="url(#clip0_4482_1538)"> <path d="M3.05007 18.3901C2.87007 18.3901 2.69009 18.3201 2.54009 18.1901C2.24009 17.9101 2.22008 17.4301 2.50008 17.1301L8.45009 10.6901C9.01009 10.0801 9.93009 9.9501 10.6401 10.3801L14.0801 12.4601C14.1801 12.5201 14.3101 12.5001 14.3901 12.4201L20.3601 5.90011C20.6401 5.59011 21.1101 5.5701 21.4201 5.8501C21.7301 6.1301 21.7501 6.60011 21.4701 6.91011L15.5001 13.4301C14.9401 14.0401 14.0201 14.1801 13.3001 13.7501L9.86006 11.6701C9.76007 11.6101 9.63007 11.6301 9.55007 11.7101L3.60009 18.1501C3.46009 18.3001 3.25007 18.3901 3.05007 18.3901Z" fill="white"/> <path d="M7.17015 9.50002L3.76014 13.19C3.17014 13.83 2.07012 13.46 2.02012 12.59C1.97012 11.7 2.03015 10.79 2.23015 9.85001C3.08015 5.90001 6.34012 2.79002 10.3301 2.14002C13.2901 1.66002 16.0501 2.48002 18.1501 4.12002C18.6101 4.48002 18.6701 5.16001 18.2701 5.59001L14.5001 9.72002C14.1801 10.07 13.6501 10.15 13.2501 9.90002L11.5601 8.88001C10.1301 8.03001 8.29015 8.29002 7.17015 9.50002Z" fill="white"/> <path d="M21.7199 14.37C20.7799 18.3 17.4499 21.33 13.4499 21.89C10.5699 22.29 7.8999 21.47 5.8599 19.88C5.3999 19.52 5.3399 18.84 5.7399 18.41L9.44992 14.39C9.76992 14.04 10.2999 13.97 10.6999 14.21L12.3899 15.24C13.8199 16.1 15.6699 15.83 16.7799 14.61L20.2399 10.83C20.8499 10.17 21.9299 10.58 21.9799 11.48C22.0399 12.42 21.9499 13.39 21.7199 14.37Z" fill="white"/> </g> <defs> <clipPath id="clip0_4482_1538"> <rect width="24" height="24" fill="white"/> </clipPath> </defs> </svg>
