<svg width="24" height="24" viewBox="0 0 24 24" fill="none" xmlns="http://www.w3.org/2000/svg"> <g clip-path="url(#clip0_4482_4706)"> <path d="M10.6101 14C10.2501 15.64 9.47008 17.16 8.35008 18.41L7.83008 19H16.1601L15.6401 18.41C14.5201 17.15 13.7501 15.64 13.3801 14H10.6101Z" fill="white"/> <path d="M18 20.5C18 21.33 17.33 22 16.5 22H7.5C6.67 22 6 21.33 6 20.5C6 19.67 6.67 19 7.5 19H16.5C17.33 19 18 19.67 18 20.5Z" fill="white"/> <path d="M18 3H6C3.8 3 2 4.8 2 7V10C2 12.2 3.8 14 6 14H18C20.2 14 22 12.2 22 10V7C22 4.8 20.2 3 18 3ZM8 10.6C6.9 10.6 6 9.7 6 8.6C6 7.5 6.9 6.6 8 6.6C9.1 6.6 10 7.5 10 8.6C10 9.7 9.1 10.6 8 10.6ZM18 9.25H14C13.59 9.25 13.25 8.91 13.25 8.5C13.25 8.09 13.59 7.75 14 7.75H18C18.41 7.75 18.75 8.09 18.75 8.5C18.75 8.91 18.41 9.25 18 9.25Z" fill="white"/> </g> <defs> <clipPath id="clip0_4482_4706"> <rect width="24" height="24" fill="white"/> </clipPath> </defs> </svg>
