<svg width="24" height="24" viewBox="0 0 24 24" fill="none" xmlns="http://www.w3.org/2000/svg"> <g clip-path="url(#clip0_2085_384455)"> <path d="M16.02 10.23C15.61 10.23 15.27 9.88998 15.27 9.47998V4.26514C15.27 4.09247 15.1506 3.94226 14.9815 3.9073C13.0157 3.50087 10.9743 3.50087 9.00841 3.9073C8.83931 3.94226 8.71997 4.09247 8.71997 4.26514V9.47998C8.71997 9.88998 8.37997 10.23 7.96997 10.23C7.55997 10.23 7.21997 9.88998 7.21997 9.47998V3.37998C7.21997 3.03998 7.44997 2.73998 7.76997 2.65998C10.52 1.91998 13.46 1.91998 16.21 2.65998C16.54 2.74998 16.76 3.03998 16.76 3.37998V9.46998C16.76 9.87998 16.42 10.22 16.01 10.22L16.02 10.23Z" fill="white"/> <path d="M22.61 6.69989C21.8 5.55989 20.59 4.54989 19.1 3.77989C18.87 3.65989 18.59 3.66989 18.36 3.79989C18.14 3.93989 18 4.17989 18 4.43989V12.6399C18 12.9199 18.16 13.1799 18.4 13.3099C19.68 13.9799 20.71 14.8299 21.37 15.7699C21.51 15.9699 21.74 16.0899 21.98 16.0899C22.06 16.0899 22.13 16.0799 22.21 16.0499C22.52 15.9499 22.73 15.6599 22.73 15.3399V7.12989C22.73 6.96989 22.68 6.81989 22.59 6.69989H22.61Z" fill="white"/> <path d="M4.9 3.78004C3.41 4.55004 2.2 5.57004 1.39 6.70004C1.3 6.83004 1.25 6.98004 1.25 7.13004V15.34C1.25 15.67 1.46 15.96 1.77 16.05C1.85 16.07 1.92 16.09 2 16.09C2.24 16.09 2.47 15.98 2.61 15.77C3.28 14.82 4.31 13.97 5.59 13.31C5.84 13.18 5.99 12.92 5.99 12.64V4.44004C5.99 4.18004 5.85 3.94004 5.63 3.80004C5.41 3.66004 5.13 3.65004 4.89 3.78004H4.9Z" fill="white"/> <path d="M11.9999 18.75C14.1152 18.75 15.8299 17.0711 15.8299 15C15.8299 12.9289 14.1152 11.25 11.9999 11.25C9.88467 11.25 8.16992 12.9289 8.16992 15C8.16992 17.0711 9.88467 18.75 11.9999 18.75Z" fill="white"/> <path d="M7.29292 21.7958C9.37103 18.371 14.4184 18.3571 16.539 21.7392L16.5585 21.7685C16.7883 22.1131 16.6951 22.5787 16.3505 22.8085C16.0059 23.0383 15.5403 22.9451 15.3105 22.6005L15.2773 22.5507C13.7505 20.0927 10.0739 20.1057 8.57612 22.5741C8.3613 22.9281 7.89991 23.0407 7.54584 22.8261C7.19181 22.6113 7.07824 22.1499 7.29292 21.7958Z" fill="white"/> </g> <defs> <clipPath id="clip0_2085_384455"> <rect width="24" height="24" fill="white"/> </clipPath> </defs> </svg>
