<svg width="24" height="24" viewBox="0 0 24 24" fill="none" xmlns="http://www.w3.org/2000/svg"> <g clip-path="url(#clip0_655_9491)"> <path d="M14.8604 5.21997H14.1904C13.7704 5.21997 13.4404 5.54997 13.4404 5.96997C13.4404 6.38997 13.7704 6.71997 14.1904 6.71997H14.8604L15.0204 5.23997C15.0204 5.23997 14.9104 5.21997 14.8604 5.21997ZM21.7304 13.01L20.9204 5.81997C20.8504 5.46997 20.5504 5.21997 20.1804 5.21997H19.5104C19.5104 5.21997 19.4004 5.21997 19.3504 5.23997L19.5104 6.71997H19.5204L20.2404 13.18C20.3104 13.79 20.1204 14.37 19.7204 14.82C19.3704 15.21 18.8804 15.45 18.3704 15.51C18.7704 15.51 19.1004 15.86 19.1004 16.26V16.89C19.7604 16.71 20.3704 16.34 20.8304 15.82C21.5204 15.05 21.8404 14.03 21.7304 13.01ZM16.2304 15.52C16.1604 15.52 16.1004 15.52 16.0304 15.52H16.0004C15.6004 15.52 15.2704 15.87 15.2704 16.27V16.89C15.5804 16.99 15.9004 17.03 16.2304 17.03H17.6004V16.27C17.6004 15.86 17.9204 15.53 18.3404 15.52C18.2804 15.52 18.2104 15.52 18.1504 15.52H16.2304ZM14.1904 5.21997C13.7704 5.21997 13.4404 5.54997 13.4404 5.96997C13.4404 6.38997 13.7704 6.71997 14.1904 6.71997H14.8604L15.0204 5.23997C15.0204 5.23997 14.9104 5.21997 14.8604 5.21997H14.1904Z" fill="white"/> <path d="M19.0995 16.26V18.41C19.0195 18.52 18.9595 18.64 18.9095 18.76H16.7695V17.02H17.5995V16.26C17.5995 15.85 17.9195 15.52 18.3395 15.51H18.3695C18.7695 15.51 19.0995 15.86 19.0995 16.26Z" fill="white"/> <path d="M20.9199 5.82C20.8499 5.47 20.5499 5.22 20.1799 5.22H19.5099C19.5099 5.22 19.3999 5.22 19.3499 5.24C18.3699 5.31 17.5999 6.12 17.5999 7.13V7.53C17.5999 7.76 17.4099 7.94 17.1899 7.94C16.9699 7.94 16.7699 7.76 16.7699 7.53V7.13C16.7699 6.12 15.9999 5.31 15.0199 5.24C14.9699 5.22 14.9099 5.22 14.8599 5.22H14.1899C13.7699 5.22 13.4399 5.55 13.4399 5.97C13.4399 6.39 13.7699 6.72 14.1899 6.72H14.8499L14.1299 13.18C14.0699 13.79 14.2499 14.37 14.6599 14.82C15.0099 15.21 15.4799 15.45 15.9999 15.51C15.5999 15.51 15.2699 15.86 15.2699 16.26V16.88C14.5999 16.71 13.9999 16.34 13.5399 15.82C12.8599 15.06 12.5299 14.03 12.6399 13.02L13.5999 4.45C13.8099 2.63 15.3499 1.25 17.1899 1.25C19.0299 1.25 20.5599 2.63 20.7699 4.45L20.9199 5.82Z" fill="white"/> <path d="M20.9304 5.96997C20.9304 6.37997 20.6004 6.71997 20.1804 6.71997H19.5104C19.2804 6.71997 19.1004 6.89997 19.1004 7.12997V7.52997C19.1004 8.57997 18.2404 9.43997 17.1904 9.43997C16.1404 9.43997 15.2704 8.57997 15.2704 7.52997V7.12997C15.2704 6.89997 15.0904 6.71997 14.8604 6.71997H14.1904C13.7704 6.71997 13.4404 6.37997 13.4404 5.96997C13.4404 5.55997 13.7704 5.21997 14.1904 5.21997H14.8604C14.9104 5.21997 14.9704 5.21997 15.0204 5.23997C16.0004 5.30997 16.7704 6.11997 16.7704 7.12997V7.52997C16.7704 7.75997 16.9604 7.93997 17.1904 7.93997C17.4204 7.93997 17.6004 7.75997 17.6004 7.52997V7.12997C17.6004 6.11997 18.3704 5.30997 19.3504 5.23997C19.4004 5.21997 19.4604 5.21997 19.5104 5.21997H20.1804C20.5504 5.21997 20.8504 5.46997 20.9204 5.81997C20.9204 5.86997 20.9204 5.91997 20.9204 5.96997H20.9304Z" fill="white"/> <path d="M16.7695 16.26V19.51C16.7695 19.92 16.4395 20.26 16.0195 20.26C15.5995 20.26 15.2695 19.92 15.2695 19.51V16.26C15.2695 15.86 15.5995 15.52 15.9995 15.51H16.0295C16.4495 15.51 16.7695 15.85 16.7695 16.26Z" fill="white"/> <path d="M19.0996 18.41V19.51C19.0996 19.92 18.7596 20.26 18.3496 20.26C17.9396 20.26 17.5996 19.92 17.5996 19.51V18.76H18.9096C18.9596 18.64 19.0196 18.52 19.0996 18.41Z" fill="white"/> <path d="M17.6 19.51V18.76H16.77V19.51C16.77 19.92 16.44 20.26 16.02 20.26H18.35C17.93 20.26 17.6 19.92 17.6 19.51ZM17.6 19.51V18.76H16.77V19.51C16.77 19.92 16.44 20.26 16.02 20.26H18.35C17.93 20.26 17.6 19.92 17.6 19.51ZM22 17.52H20.76C20.06 17.52 19.45 17.87 19.1 18.41C19.02 18.52 18.96 18.64 18.91 18.76H5.09C5.04 18.64 4.98 18.52 4.9 18.41C4.55 17.87 3.94 17.52 3.24 17.52H2C1.59 17.52 1.25 17.85 1.25 18.27V22C1.25 22.41 1.59 22.75 2 22.75H22C22.41 22.75 22.75 22.41 22.75 22V18.27C22.75 17.85 22.41 17.52 22 17.52ZM21.25 21.25H2.75V19.02H3.24C3.52 19.02 3.74 19.24 3.74 19.51C3.74 19.92 4.08 20.26 4.49 20.26H19.51C19.92 20.26 20.26 19.92 20.26 19.51C20.26 19.24 20.48 19.02 20.76 19.02H21.25V21.25ZM17.6 19.51V18.76H16.77V19.51C16.77 19.92 16.44 20.26 16.02 20.26H18.35C17.93 20.26 17.6 19.92 17.6 19.51Z" fill="white"/> <path d="M21.25 19.02V21.25H2.75V19.02H3.24C3.52 19.02 3.74 19.24 3.74 19.51C3.74 19.92 4.08 20.26 4.49 20.26H19.51C19.92 20.26 20.26 19.92 20.26 19.51C20.26 19.24 20.48 19.02 20.76 19.02H21.25Z" fill="white"/> <path d="M7.98951 15.51H7.96951C7.90951 15.51 7.83951 15.51 7.76951 15.51H5.84951C5.78951 15.51 5.71951 15.51 5.65951 15.51H5.62951C5.11951 15.45 4.62951 15.21 4.27951 14.82C3.87951 14.37 3.68951 13.79 3.75951 13.18L4.47951 6.71997L4.63951 5.23997C4.63951 5.23997 4.52951 5.21997 4.47951 5.21997H3.80951C3.43951 5.21997 3.13951 5.46997 3.06951 5.81997L2.25951 13.01C2.14951 14.03 2.46951 15.05 3.15951 15.82C3.61951 16.34 4.22951 16.71 4.88951 16.89C5.19951 16.98 5.51951 17.02 5.83951 17.02H7.75951C8.08951 17.02 8.40951 16.98 8.71951 16.88V16.26C8.71951 15.85 8.38951 15.52 7.97951 15.51H7.98951ZM9.80951 5.21997H9.13951C9.13951 5.21997 9.02951 5.21997 8.97951 5.23997L9.13951 6.71997H9.80951C10.2295 6.71997 10.5595 6.37997 10.5595 5.96997C10.5595 5.55997 10.2295 5.21997 9.80951 5.21997Z" fill="white"/> <path d="M10.4591 15.82C9.9991 16.34 9.3991 16.71 8.7291 16.88V16.26C8.7291 15.85 8.3991 15.52 7.9891 15.51C8.5091 15.45 8.9891 15.21 9.3391 14.82C9.7491 14.37 9.9291 13.79 9.8691 13.18L9.1491 6.72H9.8091C10.2291 6.72 10.5591 6.38 10.5591 5.97C10.5591 5.56 10.2291 5.22 9.8091 5.22H9.1391C9.1391 5.22 9.0291 5.22 8.9791 5.24C7.9991 5.31 7.2291 6.12 7.2291 7.13V7.53C7.2291 7.76 7.0391 7.94 6.8091 7.94C6.5791 7.94 6.3991 7.76 6.3991 7.53V7.13C6.3991 6.12 5.6291 5.31 4.6491 5.24C4.5991 5.22 4.5391 5.22 4.4891 5.22H3.8191C3.4491 5.22 3.1491 5.47 3.0791 5.82L3.2291 4.45C3.4391 2.63 4.9791 1.25 6.8091 1.25C8.6391 1.25 10.1891 2.63 10.3991 4.45L11.3591 13.01C11.4691 14.03 11.1391 15.05 10.4591 15.82Z" fill="white"/> <path d="M10.5603 5.96997C10.5603 6.37997 10.2303 6.71997 9.81031 6.71997H9.14031C8.91031 6.71997 8.73031 6.89997 8.73031 7.12997V7.52997C8.73031 8.57997 7.87031 9.43997 6.81031 9.43997C5.75031 9.43997 4.90031 8.57997 4.90031 7.52997V7.12997C4.90031 6.89997 4.72031 6.71997 4.49031 6.71997H3.82031C3.40031 6.71997 3.07031 6.37997 3.07031 5.96997C3.07031 5.91997 3.08031 5.86997 3.08031 5.81997C3.15031 5.46997 3.45031 5.21997 3.82031 5.21997H4.49031C4.54031 5.21997 4.60031 5.21997 4.65031 5.23997C5.63031 5.30997 6.40031 6.11997 6.40031 7.12997V7.52997C6.40031 7.75997 6.59031 7.93997 6.81031 7.93997C7.03031 7.93997 7.23031 7.75997 7.23031 7.52997V7.12997C7.23031 6.11997 8.00031 5.30997 8.98031 5.23997C9.03031 5.21997 9.09031 5.21997 9.14031 5.21997H9.81031C10.2303 5.21997 10.5603 5.54997 10.5603 5.96997Z" fill="white"/> <path d="M8.73039 16.88V18.76H5.09039C5.04039 18.64 4.98039 18.52 4.90039 18.41V16.89C5.21039 16.98 5.53039 17.02 5.85039 17.02H7.77039C8.10039 17.02 8.42039 16.98 8.73039 16.88Z" fill="white"/> <path d="M8.73047 16.26V16.88C8.42047 16.98 8.10047 17.02 7.77047 17.02H7.23047V16.26C7.23047 15.85 7.55047 15.52 7.97047 15.51H7.99047C8.40047 15.51 8.73047 15.85 8.73047 16.26Z" fill="white"/> <path d="M7.23047 18.76H8.73047V19.51C8.73047 19.92 8.39047 20.26 7.98047 20.26C7.57047 20.26 7.23047 19.92 7.23047 19.51V18.76Z" fill="white"/> <path d="M6.40039 16.26V17.02H5.85039C5.53039 17.02 5.21039 16.98 4.90039 16.89V16.26C4.90039 15.86 5.23039 15.52 5.63039 15.51H5.66039C6.08039 15.51 6.40039 15.85 6.40039 16.26Z" fill="white"/> <path d="M5.09039 18.76H6.40039V19.51C6.40039 19.92 6.07039 20.26 5.65039 20.26C5.23039 20.26 4.90039 19.92 4.90039 19.51V18.41C4.98039 18.52 5.04039 18.64 5.09039 18.76Z" fill="white"/> </g> <defs> <clipPath id="clip0_655_9491"> <rect width="24" height="24" fill="white"/> </clipPath> </defs> </svg>
