<svg width="24" height="24" viewBox="0 0 24 24" fill="none" xmlns="http://www.w3.org/2000/svg"> <g clip-path="url(#clip0_4482_11140)"> <path d="M17.9996 1.25H11.5596C8.93957 1.25 6.80957 3.38 6.80957 6V12.44C6.80957 15.06 8.93957 17.19 11.5596 17.19H17.9996C20.6196 17.19 22.7496 15.06 22.7496 12.44V6C22.7496 3.38 20.6196 1.25 17.9996 1.25ZM21.2496 12.44C21.2496 14.23 19.7896 15.69 17.9996 15.69H17.1896V13.11C17.1896 12.7 16.8496 12.36 16.4396 12.36C16.0296 12.36 15.6896 12.7 15.6896 13.11V15.69H11.5496C9.75957 15.69 8.29957 14.23 8.29957 12.44V8.3H10.8796C11.2896 8.3 11.6296 7.96 11.6296 7.55C11.6296 7.14 11.2896 6.8 10.8796 6.8H8.29957V5.99C8.29957 4.2 9.75957 2.74 11.5496 2.74H17.9896C19.7796 2.74 21.2396 4.2 21.2396 5.99V12.43L21.2496 12.44Z" fill="white"/> <path d="M14.2197 6.81006C13.8097 6.81006 13.4697 7.15006 13.4697 7.56006C13.4697 7.97006 13.8097 8.31006 14.2197 8.31006C15.0297 8.31006 15.6897 8.97006 15.6897 9.78006C15.6897 10.1901 16.0297 10.5301 16.4397 10.5301C16.8497 10.5301 17.1897 10.1901 17.1897 9.78006C17.1897 8.14006 15.8597 6.81006 14.2197 6.81006Z" fill="white"/> <path d="M4.22 21.2498C3.41 21.2498 2.75 20.5898 2.75 19.7798C2.75 19.3698 2.41 19.0298 2 19.0298C1.59 19.0298 1.25 19.3698 1.25 19.7798C1.25 21.4198 2.58 22.7498 4.22 22.7498C4.63 22.7498 4.97 22.4098 4.97 21.9998C4.97 21.5898 4.63 21.2498 4.22 21.2498Z" fill="white"/> <path d="M2 17.1899C2.41 17.1899 2.75 16.8499 2.75 16.4399V13.1099C2.75 12.6999 2.41 12.3599 2 12.3599C1.59 12.3599 1.25 12.6999 1.25 13.1099V16.4399C1.25 16.8499 1.59 17.1899 2 17.1899Z" fill="white"/> <path d="M4.22 6.81006C2.58 6.81006 1.25 8.14006 1.25 9.78006C1.25 10.1901 1.59 10.5301 2 10.5301C2.41 10.5301 2.75 10.1901 2.75 9.78006C2.75 8.97006 3.41 8.31006 4.22 8.31006C4.63 8.31006 4.97 7.97006 4.97 7.56006C4.97 7.15006 4.63 6.81006 4.22 6.81006Z" fill="white"/> <path d="M16.4397 19.0298C16.0297 19.0298 15.6897 19.3698 15.6897 19.7798C15.6897 20.5898 15.0297 21.2498 14.2197 21.2498C13.8097 21.2498 13.4697 21.5898 13.4697 21.9998C13.4697 22.4098 13.8097 22.7498 14.2197 22.7498C15.8597 22.7498 17.1897 21.4198 17.1897 19.7798C17.1897 19.3698 16.8497 19.0298 16.4397 19.0298Z" fill="white"/> <path d="M10.8896 21.25H7.55957C7.14957 21.25 6.80957 21.59 6.80957 22C6.80957 22.41 7.14957 22.75 7.55957 22.75H10.8896C11.2996 22.75 11.6396 22.41 11.6396 22C11.6396 21.59 11.2996 21.25 10.8896 21.25Z" fill="white"/> </g> <defs> <clipPath id="clip0_4482_11140"> <rect width="24" height="24" fill="white"/> </clipPath> </defs> </svg>
