<svg width="24" height="24" viewBox="0 0 24 24" fill="none" xmlns="http://www.w3.org/2000/svg"> <g clip-path="url(#clip0_2085_384057)"> <path d="M13.8999 4.54H15.1699C15.8799 4.54 16.4399 3.97 16.4399 3.27C16.4399 2.57 15.8799 2 15.1699 2H12.0799C11.2699 2 10.5499 2.51 10.2799 3.27L4.9799 15.61C4.6999 16.27 5.1799 17 5.8999 17H18.0599C18.7899 17 19.2699 16.25 18.9699 15.58L13.8999 4.54ZM13.5399 15.25C13.3399 15.33 13.0799 15.33 12.5599 15.33H11.4499C10.9299 15.33 10.6699 15.33 10.4699 15.25C10.1999 15.14 9.9799 14.92 9.8699 14.65C9.7899 14.45 9.7899 14.19 9.7899 13.67C9.7899 13.15 9.7899 12.89 9.8699 12.69C9.9799 12.42 10.1999 12.2 10.4699 12.09C10.6699 12.01 10.9299 12.01 11.4499 12.01H12.5599C13.0799 12.01 13.3399 12.01 13.5399 12.09C13.8099 12.2 14.0299 12.42 14.1399 12.69C14.2199 12.89 14.2199 13.15 14.2199 13.67C14.2199 14.19 14.2199 14.45 14.1399 14.65C14.0299 14.92 13.8099 15.14 13.5399 15.25Z" fill="white"/> <path d="M20.1299 18H3.86992C3.20718 18 2.66992 18.5373 2.66992 19.2V20.8C2.66992 21.4627 3.20718 22 3.86992 22H20.1299C20.7927 22 21.3299 21.4627 21.3299 20.8V19.2C21.3299 18.5373 20.7927 18 20.1299 18Z" fill="white"/> </g> <defs> <clipPath id="clip0_2085_384057"> <rect width="24" height="24" fill="white"/> </clipPath> </defs> </svg>
