<svg width="24" height="24" viewBox="0 0 24 24" fill="none" xmlns="http://www.w3.org/2000/svg"> <g clip-path="url(#clip0_4482_8980)"> <path d="M12 2C6.48 2 2 6.48 2 12C2 16.55 5.05 20.4 9.22 21.6V16.81C8.62 16.47 8.07 16 7.62 15.42C6.3 13.7 6.09 11.39 7.07 9.46C7.58 8.43 8.42 7.6 9.44 7.08C9.62 7 9.82 7.01 9.99 7.11C10.15 7.22 10.25 7.4 10.25 7.59V12H13.76V7.59C13.76 7.4 13.85 7.22 14.02 7.12C14.18 7.01 14.38 7 14.56 7.08C15.58 7.6 16.41 8.43 16.93 9.46C18.25 12.01 17.4 15.14 14.99 16.69C14.92 16.73 14.85 16.78 14.78 16.82V21.6C18.95 20.4 22 16.55 22 12C22 6.48 17.52 2 12 2Z" fill="white"/> <path d="M12 2C6.48 2 2 6.48 2 12C2 17.52 6.48 22 12 22C17.52 22 22 17.52 22 12C22 6.48 17.52 2 12 2ZM12 20.5C7.31 20.5 3.5 16.69 3.5 12C3.5 7.31 7.31 3.5 12 3.5C16.69 3.5 20.5 7.31 20.5 12C20.5 16.69 16.69 20.5 12 20.5Z" fill="white"/> </g> <defs> <clipPath id="clip0_4482_8980"> <rect width="24" height="24" fill="white"/> </clipPath> </defs> </svg>
