<svg width="24" height="24" viewBox="0 0 24 24" fill="none" xmlns="http://www.w3.org/2000/svg"> <g clip-path="url(#clip0_4482_1427)"> <path d="M9.78003 17.5702H4.21997C4.11997 17.5702 4.00002 17.5702 3.90002 17.5502C2.40002 17.4002 1.25 16.1302 1.25 14.6002V9.40018C1.25 7.86018 2.40005 6.59018 3.93005 6.44018C4.00005 6.43018 4.11997 6.43018 4.21997 6.43018H9.78003C11.42 6.43018 12.75 7.76018 12.75 9.40018V14.6002C12.75 16.2402 11.42 17.5702 9.78003 17.5702ZM4.17004 7.93018C4.15004 7.93018 4.12999 7.93018 4.10999 7.93018C3.33999 8.01018 2.76001 8.65018 2.76001 9.40018V14.6002C2.76001 15.3502 3.33996 15.9902 4.07996 16.0602C4.14996 16.0702 4.18998 16.0702 4.22998 16.0702H9.79004C10.6 16.0702 11.26 15.4102 11.26 14.6002V9.40018C11.26 8.59018 10.6 7.93018 9.79004 7.93018H4.22998C4.19998 7.93018 4.18004 7.93018 4.17004 7.93018Z" fill="white"/> <path d="M16.5 2.29004H8C5.8 2.29004 4 4.09004 4 6.29004V7.19004C4.07 7.18004 4.14997 7.18004 4.21997 7.18004H9.78003C11 7.18004 12 8.18004 12 9.40004V14.6C12 15.82 11 16.82 9.78003 16.82H4.21997C4.14997 16.82 4.07 16.82 4 16.81V17.71C4 19.91 5.8 21.71 8 21.71H16.5C18.7 21.71 20.5 19.91 20.5 17.71V6.29004C20.5 4.09004 18.7 2.29004 16.5 2.29004ZM17.59 8.87004H16.62C15.14 8.87004 13.9301 7.66004 13.9301 6.18004V5.21004C13.9301 4.80004 14.2701 4.46004 14.6801 4.46004C15.0901 4.46004 15.4301 4.80004 15.4301 5.21004V6.18004C15.4301 6.84004 15.96 7.37004 16.62 7.37004H17.59C18 7.37004 18.34 7.71004 18.34 8.12004C18.34 8.53004 18 8.87004 17.59 8.87004Z" fill="white"/> <path d="M7 12.4999C6.59 12.4999 6.25 12.1599 6.25 11.7499V9.90991C6.25 9.49991 6.59 9.15991 7 9.15991C7.41 9.15991 7.75 9.49991 7.75 9.90991V11.7499C7.75 12.1599 7.41 12.4999 7 12.4999Z" fill="white"/> <path d="M7.00012 14.8701C6.52012 14.8701 6.12012 14.4801 6.12012 14.0001V13.9901C6.12012 13.5101 6.51012 13.1101 7.00012 13.1101C7.49012 13.1101 7.88013 13.5001 7.88013 13.9901C7.88013 14.4801 7.48012 14.8701 7.00012 14.8701Z" fill="white"/> </g> <defs> <clipPath id="clip0_4482_1427"> <rect width="24" height="24" fill="white"/> </clipPath> </defs> </svg>
