<svg width="24" height="24" viewBox="0 0 24 24" fill="none" xmlns="http://www.w3.org/2000/svg"> <g clip-path="url(#clip0_4482_11606)"> <path d="M16.44 2H7.56C4.49 2 2 4.49 2 7.56V16.44C2 19.51 4.49 22 7.56 22H16.44C19.51 22 22 19.51 22 16.44V7.56C22 4.49 19.51 2 16.44 2ZM10.81 15.89C10.81 16.3 10.47 16.64 10.06 16.64C9.65 16.64 9.31 16.3 9.31 15.89V11.82C9.31 11.41 9.65 11.07 10.06 11.07C10.47 11.07 10.81 11.41 10.81 11.82V15.89ZM14.41 15.89C14.41 16.3 14.07 16.64 13.66 16.64C13.25 16.64 12.91 16.3 12.91 15.89V10.33C12.91 9.52 12.25 8.86 11.44 8.86H7.19V15.89C7.19 16.3 6.85 16.64 6.44 16.64C6.03 16.64 5.69 16.3 5.69 15.89V8.11C5.69 7.7 6.03 7.36 6.44 7.36H11.44C13.08 7.36 14.41 8.69 14.41 10.33V15.89ZM18.31 15.89C18.31 16.3 17.97 16.64 17.56 16.64C17.15 16.64 16.81 16.3 16.81 15.89V8.11C16.81 7.7 17.15 7.36 17.56 7.36C17.97 7.36 18.31 7.7 18.31 8.11V15.89Z" fill="white"/> </g> <defs> <clipPath id="clip0_4482_11606"> <rect width="24" height="24" fill="white"/> </clipPath> </defs> </svg>
