<svg width="24" height="24" viewBox="0 0 24 24" fill="none" xmlns="http://www.w3.org/2000/svg"> <g clip-path="url(#clip0_4418_9583)"> <g clip-path="url(#clip1_4418_9583)"> <path d="M8 16H5.43C3.14 16 2 14.86 2 12.57V5.43C2 3.14 3.14 2 5.43 2H10C12.29 2 13.43 3.14 13.43 5.43" stroke="white" stroke-width="1.5" stroke-linecap="round" stroke-linejoin="round"/> <path d="M18.5699 22H13.9999C11.7099 22 10.5699 20.86 10.5699 18.57V11.43C10.5699 9.14 11.7099 8 13.9999 8H18.5699C20.8599 8 21.9999 9.14 21.9999 11.43V18.57C21.9999 20.86 20.8599 22 18.5699 22Z" stroke="white" stroke-width="1.5" stroke-linecap="round" stroke-linejoin="round"/> <path d="M14.87 15H18.13" stroke="white" stroke-width="1.5" stroke-linecap="round" stroke-linejoin="round"/> <path d="M16.5 16.6291V13.3691" stroke="white" stroke-width="1.5" stroke-linecap="round" stroke-linejoin="round"/> </g> </g> <defs> <clipPath id="clip0_4418_9583"> <rect width="24" height="24" fill="white"/> </clipPath> <clipPath id="clip1_4418_9583"> <rect width="24" height="24" fill="white"/> </clipPath> </defs> </svg>
