<svg width="24" height="24" viewBox="0 0 24 24" fill="none" xmlns="http://www.w3.org/2000/svg"> <g clip-path="url(#clip0_4418_9480)"> <path d="M4.26001 11.0195V15.9895C4.26001 17.8095 4.26001 17.8095 5.98001 18.9695L10.71 21.6995C11.42 22.1095 12.58 22.1095 13.29 21.6995L18.02 18.9695C19.74 17.8095 19.74 17.8095 19.74 15.9895V11.0195C19.74 9.19945 19.74 9.19945 18.02 8.03945L13.29 5.30945C12.58 4.89945 11.42 4.89945 10.71 5.30945L5.98001 8.03945C4.26001 9.19945 4.26001 9.19945 4.26001 11.0195Z" stroke="white" stroke-width="1.5" stroke-linecap="round" stroke-linejoin="round"/> <path d="M17.5 7.63V5C17.5 3 16.5 2 14.5 2H9.5C7.5 2 6.5 3 6.5 5V7.56" stroke="white" stroke-width="1.5" stroke-linecap="round" stroke-linejoin="round"/> <path d="M12.63 10.9909L13.2 11.8809C13.29 12.0209 13.49 12.1609 13.64 12.2009L14.66 12.4609C15.29 12.6209 15.46 13.1609 15.05 13.6609L14.38 14.4709C14.28 14.6009 14.2 14.8309 14.21 14.9909L14.27 16.0409C14.31 16.6909 13.85 17.0209 13.25 16.7809L12.27 16.3909C12.12 16.3309 11.87 16.3309 11.72 16.3909L10.74 16.7809C10.14 17.0209 9.68002 16.6809 9.72002 16.0409L9.78002 14.9909C9.79002 14.8309 9.71002 14.5909 9.61002 14.4709L8.94002 13.6609C8.53002 13.1609 8.70002 12.6209 9.33002 12.4609L10.35 12.2009C10.51 12.1609 10.71 12.0109 10.79 11.8809L11.36 10.9909C11.72 10.4509 12.28 10.4509 12.63 10.9909Z" stroke="white" stroke-width="1.5" stroke-linecap="round" stroke-linejoin="round"/> </g> <defs> <clipPath id="clip0_4418_9480"> <rect width="24" height="24" fill="white"/> </clipPath> </defs> </svg>
