<svg width="24" height="24" viewBox="0 0 24 24" fill="none" xmlns="http://www.w3.org/2000/svg"> <g clip-path="url(#clip0_655_7159)"> <path d="M22.0004 2L19.1104 4.89" stroke="white" stroke-width="1.5" stroke-linecap="round" stroke-linejoin="round"/> <path d="M4.92012 19.08C8.82012 22.98 15.1701 22.98 19.0701 19.08C22.9701 15.18 22.9701 8.83001 19.0701 4.93001C15.1701 1.03 8.82012 1.03 4.92012 4.93001C1.02012 8.83001 1.02012 15.18 4.92012 19.08Z" stroke="white" stroke-width="1.5" stroke-linecap="round" stroke-linejoin="round"/> <path d="M9.7104 14.29C9.2104 13.29 8.4904 10.35 10.2804 8.56C11.0704 7.77 12.3604 7.77 13.1504 8.56C13.6204 9.03 13.8104 9.67 13.7204 10.28C14.3304 10.19 14.9704 10.39 15.4404 10.85C16.2304 11.64 16.2304 12.92 15.4404 13.72C13.6504 15.51 10.7104 14.79 9.7104 14.29Z" stroke="white" stroke-width="1.5" stroke-linecap="round" stroke-linejoin="round"/> </g> <defs> <clipPath id="clip0_655_7159"> <rect width="24" height="24" fill="white"/> </clipPath> </defs> </svg>
