<svg width="24" height="24" viewBox="0 0 24 24" fill="none" xmlns="http://www.w3.org/2000/svg"> <g clip-path="url(#clip0_655_7178)"> <path d="M12 17V17.33C11.89 19.89 9.67 22 7 22C4.33 22 2 19.78 2 17H6C6 15.33 7.33 14 9 14C10.56 14 11.78 15.22 12 16.67V17Z" stroke="white" stroke-width="1.5" stroke-linecap="round" stroke-linejoin="round"/> <path d="M12 17V17.33C12.11 20 14.33 22 17 22C19.67 22 22 19.78 22 17H18C18 15.33 16.67 14 15 14C13.44 14 12.22 15.22 12 16.67V17Z" stroke="white" stroke-width="1.5" stroke-linecap="round" stroke-linejoin="round"/> <path d="M12.0003 9.94C10.7003 9.5 7.53027 7.58 7.53027 4.48C7.53027 3.11 8.64027 2 10.0103 2C10.8203 2 11.5403 2.39 12.0003 2.99C12.4503 2.38 13.1803 2 13.9903 2C15.3603 2 16.4703 3.11 16.4703 4.48C16.4703 7.59 13.3003 9.5 12.0003 9.94Z" stroke="white" stroke-width="1.5" stroke-linecap="round" stroke-linejoin="round"/> </g> <defs> <clipPath id="clip0_655_7178"> <rect width="24" height="24" fill="white"/> </clipPath> </defs> </svg>
