<svg width="24" height="24" viewBox="0 0 24 24" fill="none" xmlns="http://www.w3.org/2000/svg"> <g clip-path="url(#clip0_655_7180)"> <path d="M4.22 12H19.78C21 12 22 13 22 14.22V19.78C22 21 21 22 19.78 22H4.22C3 22 2 21 2 19.78V14.22C2 13 3 12 4.22 12Z" stroke="white" stroke-width="1.5" stroke-linecap="round" stroke-linejoin="round"/> <path d="M16.9998 2L18.9998 4C20.1098 5.11 20.1098 6.89 18.9998 7.89C17.8898 9 16.1098 9 15.1098 7.89C13.9998 6.78 13.9998 5 15.1098 4L16.9998 2Z" stroke="white" stroke-width="1.5" stroke-linecap="round" stroke-linejoin="round"/> <path d="M8.1102 2L10.1102 4C11.2202 5.11 11.2202 6.89 10.1102 7.89C9.0002 9 7.2202 9 6.2202 7.89C5.1102 6.78 5.1102 5 6.2202 4L8.1102 2Z" stroke="white" stroke-width="1.5" stroke-linecap="round" stroke-linejoin="round"/> <path d="M8.11035 12V8.85" stroke="white" stroke-width="1.5" stroke-linecap="round" stroke-linejoin="round"/> <path d="M17 12V8.85" stroke="white" stroke-width="1.5" stroke-linecap="round" stroke-linejoin="round"/> <path d="M2 16.22C2.67 15.55 3.56 15.22 4.56 15.22C6.56 15.22 8.23 16.89 8.23 18.89" stroke="white" stroke-width="1.5" stroke-linecap="round" stroke-linejoin="round"/> <path d="M8.33008 19C8.33008 17 10.0001 15.33 12.0001 15.33C14.0001 15.33 15.6701 17 15.6701 19" stroke="white" stroke-width="1.5" stroke-linecap="round" stroke-linejoin="round"/> <path d="M15.7803 19C15.7803 17 17.4503 15.33 19.4503 15.33C20.4503 15.33 21.3403 15.77 22.0103 16.33" stroke="white" stroke-width="1.5" stroke-linecap="round" stroke-linejoin="round"/> </g> <defs> <clipPath id="clip0_655_7180"> <rect width="24" height="24" fill="white"/> </clipPath> </defs> </svg>
