<svg width="24" height="24" viewBox="0 0 24 24" fill="none" xmlns="http://www.w3.org/2000/svg"> <g clip-path="url(#clip0_655_7182)"> <path d="M3 18V8C3 5.8 4.8 4 7 4H17C19.2 4 21 5.8 21 8V18C21 20.2 19.2 22 17 22H7C4.8 22 3 20.2 3 18Z" stroke="white" stroke-width="1.5" stroke-linecap="round" stroke-linejoin="round"/> <path d="M15.5 6V2" stroke="white" stroke-width="1.5" stroke-linecap="round" stroke-linejoin="round"/> <path d="M8.5 6V2" stroke="white" stroke-width="1.5" stroke-linecap="round" stroke-linejoin="round"/> <path d="M8.7998 14C9.8998 14 10.7998 13.1 10.7998 12C10.7998 10.9 9.8998 10 8.7998 10C7.6998 10 6.7998 10.9 6.7998 12" stroke="white" stroke-width="1.5" stroke-linecap="round" stroke-linejoin="round"/> <path d="M6.7998 16C6.7998 17.1 7.6998 18 8.7998 18C9.8998 18 10.7998 17.1 10.7998 16C10.7998 14.9 9.8998 14 8.7998 14" stroke="white" stroke-width="1.5" stroke-linecap="round" stroke-linejoin="round"/> <path d="M17.1998 18V10L13.7998 13.4" stroke="white" stroke-width="1.5" stroke-linecap="round" stroke-linejoin="round"/> </g> <defs> <clipPath id="clip0_655_7182"> <rect width="24" height="24" fill="white"/> </clipPath> </defs> </svg>
