<svg width="24" height="24" viewBox="0 0 24 24" fill="none" xmlns="http://www.w3.org/2000/svg"> <g clip-path="url(#clip0_655_7305)"> <path d="M9.74047 12.57H14.2505L11.9905 9.42001L9.73047 12.57H9.74047Z" stroke="white" stroke-width="1.5" stroke-linecap="round" stroke-linejoin="round"/> <path d="M11.2304 12.57L9.36035 15.34H14.6304L12.7604 12.57" stroke="white" stroke-width="1.5" stroke-linecap="round" stroke-linejoin="round"/> <path d="M12 15.47V17.35" stroke="white" stroke-width="1.5" stroke-linecap="round" stroke-linejoin="round"/> <path d="M5.64039 16.63L2.87039 16.16C2.28039 16.06 1.90039 15.49 2.03039 14.91L3.92039 6.37001C4.18039 5.14001 5.15039 4.18001 6.39039 3.94001L7.57039 3.71001C8.13039 3.60001 8.6804 3.93001 8.8504 4.48001C9.2704 5.83001 10.5204 6.80001 12.0104 6.80001" stroke="white" stroke-width="1.5" stroke-linecap="round" stroke-linejoin="round"/> <path d="M11.9999 20.31H7.91991C6.75991 20.31 5.83991 19.32 5.92991 18.16L6.64991 8.27002" stroke="white" stroke-width="1.5" stroke-linecap="round" stroke-linejoin="round"/> <path d="M6.14004 14.12L2.54004 13.49" stroke="white" stroke-width="1.5" stroke-linecap="round" stroke-linejoin="round"/> <path d="M12 6.8C13.48 6.8 14.74 5.82 15.16 4.48C15.33 3.94 15.88 3.61 16.44 3.71L17.62 3.94C18.86 4.18 19.83 5.14 20.09 6.37L21.98 14.91C22.11 15.49 21.72 16.06 21.14 16.16L18.37 16.63" stroke="white" stroke-width="1.5" stroke-linecap="round" stroke-linejoin="round"/> <path d="M17.3607 8.28L18.0807 18.17C18.1607 19.33 17.2507 20.32 16.0907 20.32H12.0107" stroke="white" stroke-width="1.5" stroke-linecap="round" stroke-linejoin="round"/> <path d="M21.4604 13.49L17.8604 14.12" stroke="white" stroke-width="1.5" stroke-linecap="round" stroke-linejoin="round"/> </g> <defs> <clipPath id="clip0_655_7305"> <rect width="24" height="24" fill="white"/> </clipPath> </defs> </svg>
