<svg width="24" height="24" viewBox="0 0 24 24" fill="none" xmlns="http://www.w3.org/2000/svg"> <g clip-path="url(#clip0_4418_9740)"> <path d="M14.4 9.59961H9.59998V14.3996H14.4V9.59961Z" stroke="white" stroke-width="1.5" stroke-linecap="round" stroke-linejoin="round"/> <path d="M7.79999 18.0004C8.78999 18.0004 9.59998 17.1904 9.59998 16.2004V14.4004H7.79999C6.80999 14.4004 6 15.2104 6 16.2004C6 17.1904 6.80999 18.0004 7.79999 18.0004Z" stroke="white" stroke-width="1.5" stroke-linecap="round" stroke-linejoin="round"/> <path d="M7.79999 9.60001H9.59998V7.79999C9.59998 6.80999 8.78999 6 7.79999 6C6.80999 6 6 6.80999 6 7.79999C6 8.78999 6.80999 9.60001 7.79999 9.60001Z" stroke="white" stroke-width="1.5" stroke-linecap="round" stroke-linejoin="round"/> <path d="M14.4 9.60001H16.2C17.19 9.60001 18 8.78999 18 7.79999C18 6.80999 17.19 6 16.2 6C15.21 6 14.4 6.80999 14.4 7.79999V9.60001Z" stroke="white" stroke-width="1.5" stroke-linecap="round" stroke-linejoin="round"/> <path d="M16.2 18.0004C17.19 18.0004 18 17.1904 18 16.2004C18 15.2104 17.19 14.4004 16.2 14.4004H14.4V16.2004C14.4 17.1904 15.21 18.0004 16.2 18.0004Z" stroke="white" stroke-width="1.5" stroke-linecap="round" stroke-linejoin="round"/> <path d="M9 22H15C20 22 22 20 22 15V9C22 4 20 2 15 2H9C4 2 2 4 2 9V15C2 20 4 22 9 22Z" stroke="white" stroke-width="1.5" stroke-linecap="round" stroke-linejoin="round"/> </g> <defs> <clipPath id="clip0_4418_9740"> <rect width="24" height="24" fill="white"/> </clipPath> </defs> </svg>
