<svg width="24" height="24" viewBox="0 0 24 24" fill="none" xmlns="http://www.w3.org/2000/svg"> <g clip-path="url(#clip0_4418_9206)"> <path d="M15.9601 10.8301H12.9001L12.1401 13.1201H14.4301C15.2701 13.1201 15.9601 13.8001 15.9601 14.6501C15.9601 15.4901 15.2801 16.1801 14.4301 16.1801H12.1401" stroke="white" stroke-width="1.5" stroke-linecap="round" stroke-linejoin="round"/> <path d="M9.54004 16.17V10.8301L8.04004 12.5001" stroke="white" stroke-width="1.5" stroke-linecap="round" stroke-linejoin="round"/> <path d="M13.98 4.46997L12 2" stroke="white" stroke-width="1.5" stroke-linecap="round" stroke-linejoin="round"/> <path d="M19.09 7.79974C20.2 9.27974 20.89 11.1097 20.89 13.1097C20.89 18.0197 16.91 21.9998 12 21.9998C7.09 21.9998 3.10999 18.0197 3.10999 13.1097C3.10999 8.19974 7.09 4.21973 12 4.21973C12.68 4.21973 13.34 4.30978 13.98 4.45978" stroke="white" stroke-width="1.5" stroke-linecap="round" stroke-linejoin="round"/> </g> <defs> <clipPath id="clip0_4418_9206"> <rect width="24" height="24" fill="white"/> </clipPath> </defs> </svg>
