<svg width="24" height="24" viewBox="0 0 24 24" fill="none" xmlns="http://www.w3.org/2000/svg"> <g clip-path="url(#clip0_655_7221)"> <path d="M9.78 4.22H4.22C3 4.22 2 5.22 2 6.44V19.77C2 20.99 3 21.99 4.22 21.99H9.78C11 21.99 12 20.99 12 19.77V6.44C12 5.22 11 4.22 9.78 4.22Z" stroke="white" stroke-width="1.5" stroke-linecap="round" stroke-linejoin="round"/> <path d="M19.78 12H14.22C13 12 12 13 12 14.22V19.78C12 21 13 22 14.22 22H19.78C21 22 22 21 22 19.78V14.22C22 13 21 12 19.78 12Z" stroke="white" stroke-width="1.5" stroke-linecap="round" stroke-linejoin="round"/> <path d="M4.78027 2L7.00027 4.22L9.22027 2" stroke="white" stroke-width="1.5" stroke-linecap="round" stroke-linejoin="round"/> <path d="M14.7803 9.78L17.0003 12L19.2203 9.78" stroke="white" stroke-width="1.5" stroke-linecap="round" stroke-linejoin="round"/> <path d="M7 22V4.22" stroke="white" stroke-width="1.5" stroke-linecap="round" stroke-linejoin="round"/> <path d="M17 22V12" stroke="white" stroke-width="1.5" stroke-linecap="round" stroke-linejoin="round"/> </g> <defs> <clipPath id="clip0_655_7221"> <rect width="24" height="24" fill="white"/> </clipPath> </defs> </svg>
