<svg width="16" height="20" viewBox="0 0 16 20" fill="none" xmlns="http://www.w3.org/2000/svg"> <g clip-path="url(#clip0_4418_10005)"> <path d="M16 5V15C16 19 15 20 11 20H5C1 20 0 19 0 15V5C0 1 1 0 5 0H11C15 0 16 1 16 5Z" stroke="white" stroke-width="1.5" stroke-linecap="round" stroke-linejoin="round"/> <path d="M10 3.5H6" stroke="white" stroke-width="1.5" stroke-linecap="round" stroke-linejoin="round"/> <path d="M7.99995 17.1C8.85599 17.1 9.54995 16.406 9.54995 15.55C9.54995 14.694 8.85599 14 7.99995 14C7.14391 14 6.44995 14.694 6.44995 15.55C6.44995 16.406 7.14391 17.1 7.99995 17.1Z" stroke="white" stroke-width="1.5" stroke-linecap="round" stroke-linejoin="round"/> </g> <defs> <clipPath id="clip0_4418_10005"> <rect width="16" height="20" fill="white"/> </clipPath> </defs> </svg>
