<svg width="24" height="24" viewBox="0 0 24 24" fill="none" xmlns="http://www.w3.org/2000/svg"> <g clip-path="url(#clip0_655_7233)"> <path d="M4.22 22C3 22 2 21 2 19.78C2 18.56 3 17.56 4.22 17.56M4.22 22C4.78 22 5.34 21.77 5.78 21.33C5.78 21.22 5.89 21.11 6 21C6.22 20.67 6.33 20.22 6.33 19.78V4.22C6.33 3.89 6.44 3.55 6.55 3.33C6.55 3.22 6.66 3.22 6.66 3.11C7.1 2.44 7.77 2 8.66 2C9.88 2 10.88 3 10.88 4.22C10.88 5.44 9.88 6.44 8.66 6.44H17.55V19.78C17.55 21 16.55 22 15.33 22H4.22ZM10.89 4.22C10.89 5.44 9.89 6.44 8.67 6.44H19.78C21 6.44 22 5.44 22 4.22C22 3 21 2 19.78 2H8.67C9.89 2 10.89 3 10.89 4.22Z" stroke="white" stroke-width="1.5" stroke-linecap="round" stroke-linejoin="round"/> </g> <defs> <clipPath id="clip0_655_7233"> <rect width="24" height="24" fill="white"/> </clipPath> </defs> </svg>
