<svg width="24" height="24" viewBox="0 0 24 24" fill="none" xmlns="http://www.w3.org/2000/svg"> <g clip-path="url(#clip0_655_7299)"> <path d="M8.8002 10.98L7.1702 9.34L7.1302 9.23L8.4302 7.93C8.9202 7.44 8.9202 6.66 8.4302 6.17C7.9402 5.68 7.1602 5.68 6.6702 6.17L6.37019 6.47V3.24C6.37019 2.55 5.8102 2 5.1302 2C4.4502 2 3.8902 2.56 3.8902 3.24V3.77C3.4102 3.49 2.7902 3.55 2.3802 3.96C1.8902 4.45 1.8902 5.23 2.3802 5.72L3.8902 7.23V9.05C3.8902 9.38 4.0202 9.7 4.2502 9.93L6.9202 12.6" stroke="white" stroke-width="1.5" stroke-linecap="round" stroke-linejoin="round"/> <path d="M15.4804 10.71L16.8404 9.34999L16.8804 9.23999L15.5804 7.93999C15.0904 7.44999 15.0904 6.66999 15.5804 6.17999C16.0704 5.68999 16.8504 5.68999 17.3404 6.17999L17.6404 6.47999V3.24999C17.6404 2.55999 18.2004 2.00999 18.8904 2.00999C19.5804 2.00999 20.1304 2.56999 20.1304 3.24999V3.77999C20.6104 3.49999 21.2304 3.55999 21.6404 3.96999C22.1304 4.45999 22.1304 5.23999 21.6404 5.72999L20.1304 7.23999V9.05999C20.1304 9.38999 20.0004 9.70999 19.7704 9.93999L17.5604 12.15" stroke="white" stroke-width="1.5" stroke-linecap="round" stroke-linejoin="round"/> <path d="M18.1703 22C17.4203 22 16.8203 21.4 16.8203 20.65V17.23C16.8203 14.8 14.8503 12.83 12.4203 12.83C9.99031 12.83 8.02031 14.8 8.02031 17.23V20.65C8.02031 21.4 7.42031 22 6.67031 22C5.92031 22 5.32031 21.4 5.32031 20.65V17.23C5.32031 15.33 6.06031 13.55 7.40031 12.21C8.74031 10.87 10.5203 10.13 12.4203 10.13C14.3203 10.13 16.1003 10.87 17.4403 12.21C18.7803 13.55 19.5203 15.33 19.5203 17.23V20.65C19.5203 21.4 18.9203 22 18.1703 22Z" stroke="white" stroke-width="1.5" stroke-linecap="round" stroke-linejoin="round"/> </g> <defs> <clipPath id="clip0_655_7299"> <rect width="24" height="24" fill="white"/> </clipPath> </defs> </svg>
