<svg width="24" height="24" viewBox="0 0 24 24" fill="none" xmlns="http://www.w3.org/2000/svg"> <g clip-path="url(#clip0_655_7239)"> <path d="M9.03012 22L20.6001 10.21C22.4601 8.35 22.4601 5.3 20.6001 3.44M2.37012 15.23C4.23012 17.09 7.17012 17.09 9.03012 15.23M9.03012 15.23L16.4501 7.59M9.03012 15.23L12.3001 18.61M13.1801 11.08L16.4501 14.46" stroke="white" stroke-width="1.5" stroke-linecap="round" stroke-linejoin="round"/> <path d="M5.65 8.87C4.59 8.51 2 6.94 2 4.41C2 3.29 2.91 2.38 4.03 2.38C4.69 2.38 5.28 2.7 5.65 3.19C6.02 2.7 6.61 2.38 7.27 2.38C8.39 2.38 9.3 3.28 9.3 4.41C9.3 6.95 6.71 8.51 5.65 8.87Z" stroke="white" stroke-width="1.5" stroke-linecap="round" stroke-linejoin="round"/> </g> <defs> <clipPath id="clip0_655_7239"> <rect width="24" height="24" fill="white"/> </clipPath> </defs> </svg>
