<svg width="24" height="24" viewBox="0 0 24 24" fill="none" xmlns="http://www.w3.org/2000/svg"> <g clip-path="url(#clip0_4418_10207)"> <path fill-rule="evenodd" clip-rule="evenodd" d="M17.2999 15.2992C16.9999 15.4992 16.8 15.4992 16.6 15.5992C16.4 15.5992 16.3 15.6992 16.2 15.7992C16 15.7992 16 15.9992 16 16.0992C16 16.1992 16 16.2992 15.9 16.3992C15.8 16.4992 15.6 16.4992 15.4 16.4992C15.1 16.4992 14.7 16.4992 14.3 16.6992C14.1 16.7992 13.8999 16.8992 13.6999 16.9992C13.2999 17.2992 12.9 17.4992 12.1 17.4992C11.3 17.4992 10.8999 17.1992 10.4999 16.9992C10.2999 16.8992 10.0999 16.6992 9.89995 16.6992C9.49995 16.5992 9.09995 16.4992 8.79995 16.4992C8.59995 16.4992 8.39995 16.4992 8.29995 16.3992C7.99995 16.2992 7.99995 16.1992 7.99995 16.0992C7.99995 15.9992 7.99995 15.7992 7.79995 15.7992C7.69995 15.6992 7.49995 15.6992 7.39995 15.5992C7.19995 15.4992 6.99995 15.4992 6.69995 15.2992C6.39995 15.0992 6.59995 14.9992 6.69995 14.8992C8.59995 13.9992 8.89995 12.4992 8.89995 12.3992C8.89995 12.2992 8.89995 12.1992 8.79995 12.0992C8.69995 11.9992 8.39995 11.7992 8.09995 11.6992C7.99995 11.5992 7.89995 11.5992 7.79995 11.4992C7.49995 11.2992 7.39995 11.0992 7.49995 10.8992C7.59995 10.6992 7.69995 10.6992 7.89995 10.6992C7.99995 10.6992 7.99995 10.6992 8.09995 10.6992C8.29995 10.6992 8.49995 10.7992 8.59995 10.8992C8.69995 10.8992 8.79995 10.9992 8.89995 10.9992C8.89995 10.9992 8.89995 10.9992 8.99995 10.9992C9.09995 10.9992 9.09995 10.9992 9.09995 10.7992V10.6992C9.09995 10.3992 8.99995 9.69922 9.09995 9.19922C9.19995 8.39922 9.39995 7.89922 9.79995 7.59922C9.99995 7.39922 10.7 6.69922 12.1 6.69922C13.5 6.69922 14.1999 7.49922 14.3999 7.59922C14.6999 7.99922 15 8.39922 15.1 9.19922C15.2 9.79922 15.1 10.3992 15.1 10.7992C15.1 10.8992 15.1 10.9992 15.2 10.9992C15.2 10.9992 15.2 10.9992 15.3 10.9992C15.4 10.9992 15.5 10.8992 15.6 10.8992C15.8 10.7992 15.9 10.7992 16.1 10.6992C16.1 10.6992 16.1999 10.6992 16.2999 10.6992C16.4999 10.6992 16.6 10.7992 16.7 10.8992C16.8 11.0992 16.7 11.2992 16.4 11.4992C16.3 11.4992 16.2 11.5992 16.1 11.6992C15.9 11.8992 15.5 12.0992 15.4 12.0992C15.3 12.1992 15.3 12.2992 15.3 12.3992C15.3 12.4992 15.6 13.8992 17.5 14.8992C17.5 14.9992 17.6999 15.0992 17.2999 15.2992Z" stroke="white" stroke-width="1.5" stroke-miterlimit="10" stroke-linejoin="round"/> <path d="M12 22C17.5228 22 22 17.5228 22 12C22 6.47715 17.5228 2 12 2C6.47715 2 2 6.47715 2 12C2 17.5228 6.47715 22 12 22Z" stroke="white" stroke-width="1.5" stroke-miterlimit="10" stroke-linejoin="round"/> </g> <defs> <clipPath id="clip0_4418_10207"> <rect width="24" height="24" fill="white"/> </clipPath> </defs> </svg>
