<svg width="24" height="24" viewBox="0 0 24 24" fill="none" xmlns="http://www.w3.org/2000/svg"> <g clip-path="url(#clip0_655_7254)"> <path d="M12 22V14.78" stroke="white" stroke-width="1.5" stroke-linecap="round" stroke-linejoin="round"/> <path d="M12 9.22V2" stroke="white" stroke-width="1.5" stroke-linecap="round" stroke-linejoin="round"/> <path d="M22.0003 12H14.7803" stroke="white" stroke-width="1.5" stroke-linecap="round" stroke-linejoin="round"/> <path d="M9.22 12H2" stroke="white" stroke-width="1.5" stroke-linecap="round" stroke-linejoin="round"/> <path d="M9.99965 14L4.88965 19.11" stroke="white" stroke-width="1.5" stroke-linecap="round" stroke-linejoin="round"/> <path d="M19.11 4.89001L14 10" stroke="white" stroke-width="1.5" stroke-linecap="round" stroke-linejoin="round"/> <path d="M14.7797 12C14.7797 12.78 14.4497 13.44 13.9997 14C13.4397 14.44 12.7797 14.78 11.9997 14.78C11.2197 14.78 10.5597 14.45 9.99973 14C9.43973 13.44 9.21973 12.78 9.21973 12C9.21973 11.22 9.54973 10.56 9.99973 10C10.5597 9.56 11.2197 9.22 11.9997 9.22C12.7797 9.22 13.4397 9.55 13.9997 10C14.4397 10.56 14.7797 11.22 14.7797 12Z" stroke="white" stroke-width="1.5" stroke-linecap="round" stroke-linejoin="round"/> <path d="M19.11 19.11L14 14" stroke="white" stroke-width="1.5" stroke-linecap="round" stroke-linejoin="round"/> <path d="M9.99965 10L4.88965 4.89001" stroke="white" stroke-width="1.5" stroke-linecap="round" stroke-linejoin="round"/> </g> <defs> <clipPath id="clip0_655_7254"> <rect width="24" height="24" fill="white"/> </clipPath> </defs> </svg>
