<svg width="24" height="24" viewBox="0 0 24 24" fill="none" xmlns="http://www.w3.org/2000/svg"> <g clip-path="url(#clip0_655_7280)"> <path d="M4.21973 15C4.54973 14.89 4.99973 14.78 5.32973 14.78C7.21973 14.78 8.65973 16.22 8.65973 18.11" stroke="white" stroke-width="1.5" stroke-linecap="round" stroke-linejoin="round"/> <path d="M8.66992 18.11C8.66992 16.22 10.1099 14.78 11.9999 14.78C13.8899 14.78 15.3299 16.22 15.3299 18.11" stroke="white" stroke-width="1.5" stroke-linecap="round" stroke-linejoin="round"/> <path d="M15.3301 18.11C15.3301 16.22 16.7701 14.78 18.6601 14.78C19.1001 14.78 19.4401 14.89 19.7701 15" stroke="white" stroke-width="1.5" stroke-linecap="round" stroke-linejoin="round"/> <path d="M17.5597 22H6.43973C5.21973 22 4.21973 21 4.21973 19.78V13.11C4.21973 11.89 5.21973 10.89 6.43973 10.89H17.5497C18.7697 10.89 19.7697 11.89 19.7697 13.11V19.78C19.7697 21 18.7697 22 17.5497 22H17.5597Z" stroke="white" stroke-width="1.5" stroke-linecap="round" stroke-linejoin="round"/> <path d="M2 6.44L22 2" stroke="white" stroke-width="1.5" stroke-linecap="round" stroke-linejoin="round"/> <path d="M12 4.21997V10.89" stroke="white" stroke-width="1.5" stroke-linecap="round" stroke-linejoin="round"/> </g> <defs> <clipPath id="clip0_655_7280"> <rect width="24" height="24" fill="white"/> </clipPath> </defs> </svg>
