<svg width="24" height="24" viewBox="0 0 24 24" fill="none" xmlns="http://www.w3.org/2000/svg"> <g clip-path="url(#clip0_3280_12960)"> <path d="M16.47 20.7L15.49 20.43C14.92 20.27 14.53 19.77 14.53 19.16C14.53 18.55 14.91 18.05 15.51 17.88L16.47 17.63C16.98 17.48 17.35 17.11 17.49 16.61L17.75 15.66L17.81 15.49C18 14.99 18.48 14.66 19.03 14.66C19.59 14.66 20.04 15 20.23 15.5L20.26 15.6L20.54 16.62C20.57 16.73 20.62 16.83 20.67 16.93C21.5 15.47 21.98 13.79 21.98 12C21.98 6.49 17.49 2 11.98 2C6.46998 2 1.97998 6.49 1.97998 12C1.97998 17.51 6.46998 22 11.98 22C13.69 22 15.3 21.57 16.71 20.8C16.63 20.76 16.55 20.72 16.47 20.7ZM12.73 16C12.73 16.41 12.39 16.75 11.98 16.75C11.57 16.75 11.23 16.41 11.23 16V12.75H7.97998C7.56998 12.75 7.22998 12.41 7.22998 12C7.22998 11.59 7.56998 11.25 7.97998 11.25H11.23V8C11.23 7.59 11.57 7.25 11.98 7.25C12.39 7.25 12.73 7.59 12.73 8V11.25H15.98C16.39 11.25 16.73 11.59 16.73 12C16.73 12.41 16.39 12.75 15.98 12.75H12.73V16Z" fill="white"/> <path d="M22.53 19.18C22.53 19.25 22.49 19.41 22.3 19.47L21.32 19.74C20.47 19.97 19.83 20.61 19.6 21.46L19.34 22.42C19.28 22.64 19.11 22.66 19.03 22.66C18.95 22.66 18.78 22.64 18.72 22.42L18.46 21.45C18.23 20.61 17.58 19.97 16.74 19.74L15.77 19.48C15.56 19.42 15.54 19.24 15.54 19.17C15.54 19.09 15.56 18.91 15.77 18.85L16.75 18.59C17.59 18.35 18.23 17.71 18.46 16.87L18.74 15.85C18.81 15.68 18.97 15.65 19.03 15.65C19.09 15.65 19.26 15.67 19.32 15.83L19.6 16.86C19.83 17.7 20.48 18.34 21.32 18.58L22.32 18.86C22.52 18.94 22.53 19.12 22.53 19.18Z" fill="white"/> </g> <defs> <clipPath id="clip0_3280_12960"> <rect width="24" height="24" fill="white"/> </clipPath> </defs> </svg>
