<svg width="24" height="24" viewBox="0 0 24 24" fill="none" xmlns="http://www.w3.org/2000/svg"> <g clip-path="url(#clip0_3261_12960)"> <path d="M16.88 21.1098L15.9 20.8398C15.33 20.6798 14.94 20.1798 14.94 19.5698C14.94 18.9598 15.32 18.4598 15.92 18.2898L16.88 18.0398C17.39 17.8898 17.76 17.5198 17.9 17.0198L18.16 16.0698L18.22 15.8998C18.41 15.3998 18.89 15.0698 19.44 15.0698C20 15.0698 20.45 15.4098 20.64 15.9098L20.95 17.0298C21.06 17.4698 21.38 17.7998 21.79 17.9798C21.84 17.3498 21.74 16.7198 21.48 16.1198L18.35 8.79983C17.78 7.45983 16.93 6.69983 15.96 6.64983C15 6.59983 14.07 7.26983 13.36 8.54983L11.46 11.9598C11.06 12.6798 10.49 13.1098 9.86998 13.1598C9.23998 13.2198 8.60998 12.8898 8.09998 12.2398L7.87998 11.9598C7.16998 11.0698 6.28998 10.6398 5.38998 10.7298C4.48998 10.8198 3.71998 11.4398 3.20998 12.4498L1.47998 15.8998C0.859977 17.1498 0.919977 18.5998 1.64998 19.7798C2.37998 20.9598 3.64998 21.6698 5.03998 21.6698H17.67C17.48 21.3998 17.21 21.1998 16.88 21.1098Z" fill="white"/> <path d="M22.94 19.5898C22.94 19.6598 22.9 19.8198 22.71 19.8798L21.73 20.1498C20.88 20.3798 20.24 21.0198 20.01 21.8698L19.75 22.8298C19.69 23.0498 19.52 23.0698 19.44 23.0698C19.36 23.0698 19.19 23.0498 19.13 22.8298L18.87 21.8598C18.64 21.0198 17.99 20.3798 17.15 20.1498L16.18 19.8898C15.97 19.8298 15.95 19.6498 15.95 19.5798C15.95 19.4998 15.97 19.3198 16.18 19.2598L17.16 18.9998C18 18.7598 18.64 18.1198 18.87 17.2798L19.15 16.2598C19.22 16.0898 19.38 16.0598 19.44 16.0598C19.5 16.0598 19.67 16.0798 19.73 16.2398L20.01 17.2698C20.24 18.1098 20.89 18.7498 21.73 18.9898L22.73 19.2698C22.93 19.3498 22.94 19.5298 22.94 19.5898Z" fill="white"/> <path d="M6.42999 7.68993C8.29999 7.68993 9.80999 6.17993 9.80999 4.30993C9.80999 2.43993 8.29999 0.929932 6.42999 0.929932C4.55999 0.929932 3.04999 2.43993 3.04999 4.30993C3.04999 6.17993 4.55999 7.68993 6.42999 7.68993Z" fill="white"/> </g> <defs> <clipPath id="clip0_3261_12960"> <rect width="24" height="24" fill="white"/> </clipPath> </defs> </svg>
