<svg width="24" height="24" viewBox="0 0 24 24" fill="none" xmlns="http://www.w3.org/2000/svg"> <g clip-path="url(#clip0_4418_7972)"> <path d="M22 8.34032V15.6603C22 17.1603 20.37 18.1003 19.07 17.3503L15.9 15.5203L12.73 13.6903L12.24 13.4103V10.5903L12.73 10.3103L15.9 8.48032L19.07 6.65032C20.37 5.90032 22 6.84032 22 8.34032Z" fill="white"/> <path d="M12.2399 8.34032V15.6603C12.2399 17.1603 10.6099 18.1003 9.31994 17.3503L6.13994 15.5203L2.96994 13.6903C1.67994 12.9403 1.67994 11.0603 2.96994 10.3103L6.13994 8.48032L9.31994 6.65032C10.6099 5.90032 12.2399 6.84032 12.2399 8.34032Z" fill="white"/> </g> <defs> <clipPath id="clip0_4418_7972"> <rect width="24" height="24" fill="white"/> </clipPath> </defs> </svg>
