<svg width="24" height="24" viewBox="0 0 24 24" fill="none" xmlns="http://www.w3.org/2000/svg"> <g clip-path="url(#clip0_4418_8355)"> <path d="M21.25 5.15V7.85C21.25 9.69 20.69 10.25 18.85 10.25H16.15C14.31 10.25 13.75 9.69 13.75 7.85V5.15C13.75 3.31 14.31 2.75 16.15 2.75H18.85C20.69 2.75 21.25 3.31 21.25 5.15Z" fill="white"/> <path d="M10.25 16.15V18.85C10.25 20.69 9.69 21.25 7.85 21.25H5.15C3.31 21.25 2.75 20.69 2.75 18.85V16.15C2.75 14.31 3.31 13.75 5.15 13.75H7.85C9.69 13.75 10.25 14.31 10.25 16.15Z" fill="white"/> <path d="M16.1501 11.7491C16.4152 11.7491 16.6301 11.964 16.6301 12.2291V13.6191C16.6301 15.8991 15.9001 16.6291 13.6201 16.6291H12.2301C11.965 16.6291 11.7501 16.4142 11.7501 16.1491C11.7501 13.4891 10.5101 12.2491 7.85012 12.2491C7.58502 12.2491 7.37012 12.0342 7.37012 11.7691V10.3791C7.37012 8.09914 8.10012 7.36914 10.3801 7.36914H11.7701C12.0352 7.36914 12.2501 7.58404 12.2501 7.84914C12.2501 10.5091 13.4901 11.7491 16.1501 11.7491Z" fill="white"/> </g> <defs> <clipPath id="clip0_4418_8355"> <rect width="24" height="24" fill="white"/> </clipPath> </defs> </svg>
