<svg width="24" height="24" viewBox="0 0 24 24" fill="none" xmlns="http://www.w3.org/2000/svg"> <g clip-path="url(#clip0_655_9330)"> <path d="M22.5295 1.47C22.2395 1.18 21.7595 1.18 21.4695 1.47L18.5195 4.42C18.7095 4.58 18.8995 4.74 19.0795 4.92C19.2595 5.1 19.4195 5.29 19.5795 5.48L22.5295 2.53C22.8195 2.24 22.8195 1.76 22.5295 1.47Z" fill="white"/> <path d="M19.0805 19.08C15.5005 22.65 9.83046 22.94 5.91046 19.95C5.67046 19.77 5.66046 19.41 5.87046 19.2L10.0905 14.98C10.0905 14.98 10.1505 14.89 10.1805 14.85L11.1905 15.87C11.7105 16.4 12.6105 16.19 12.8505 15.49L14.4605 10.7C14.7305 9.91999 13.9805 9.16999 13.2005 9.42999L8.41046 11.05C7.71046 11.29 7.50046 12.18 8.03046 12.7L9.16046 13.83C9.16046 13.83 9.07046 13.88 9.03046 13.92L4.81046 18.14C4.60046 18.35 4.24046 18.34 4.06046 18.1C1.06046 14.18 1.35046 8.50999 4.93046 4.92999C8.65046 1.21999 14.6105 1.05999 18.5305 4.42999L17.8805 5.07999C17.5905 5.36999 17.5905 5.83999 17.8805 6.13999C18.0305 6.27999 18.2205 6.35999 18.4105 6.35999C18.6105 6.35999 18.8005 6.27999 18.9405 6.13999L19.5905 5.48999C22.9605 9.40999 22.8005 15.37 19.0905 19.09L19.0805 19.08Z" fill="white"/> </g> <defs> <clipPath id="clip0_655_9330"> <rect width="24" height="24" fill="white"/> </clipPath> </defs> </svg>
