<svg width="24" height="24" viewBox="0 0 24 24" fill="none" xmlns="http://www.w3.org/2000/svg"> <g clip-path="url(#clip0_655_9336)"> <path d="M21.5195 2.22C21.2195 1.93 20.7495 1.93 20.4595 2.22L18.2695 4.4C18.4595 4.56 18.6395 4.73 18.8195 4.91C18.9995 5.09 19.1695 5.27 19.3295 5.46L21.5195 3.28C21.8095 2.99 21.8095 2.52 21.5195 2.22Z" fill="white"/> <path d="M17.4003 12.1C17.4003 11.69 17.7403 11.35 18.1503 11.35H21.8603C21.7203 9.27 20.9303 7.23 19.4903 5.56C19.3303 5.37 19.1603 5.19 18.9803 5.01C18.8003 4.83 18.6203 4.66 18.4303 4.5C16.7903 3.09 14.7903 2.31 12.7503 2.15V5.84C12.7503 6.25 12.4103 6.59 12.0003 6.59C11.5903 6.59 11.2503 6.25 11.2503 5.84V2.14C9.18027 2.28 7.13027 3.07 5.46027 4.51C5.46027 4.52 5.49027 4.53 5.50027 4.54L6.27027 5.31C6.56027 5.6 6.56027 6.08 6.27027 6.37C6.12027 6.52 5.93027 6.59 5.74027 6.59C5.54027 6.59 5.35027 6.52 5.21027 6.37L4.44027 5.6C4.44027 5.6 4.42027 5.58 4.41027 5.56C2.96027 7.23 2.17027 9.27 2.03027 11.35H5.74027C6.15027 11.35 6.49027 11.69 6.49027 12.1C6.49027 12.51 6.15027 12.85 5.74027 12.85H2.04027C2.19027 14.89 2.98027 16.89 4.41027 18.54C4.42027 18.52 4.43027 18.51 4.44027 18.5L5.21027 17.73C5.50027 17.43 5.97027 17.44 6.27027 17.73C6.56027 18.02 6.56027 18.5 6.27027 18.79L5.50027 19.56C5.50027 19.56 5.47027 19.58 5.46027 19.59C7.13027 21.03 9.18027 21.82 11.2503 21.96V18.26C11.2503 17.84 11.5903 17.51 12.0003 17.51C12.4103 17.51 12.7503 17.84 12.7503 18.26V21.95C14.7903 21.79 16.7903 21.01 18.4303 19.59C18.4203 19.58 18.4003 19.57 18.3903 19.56L17.6203 18.79C17.3303 18.5 17.3303 18.02 17.6203 17.73C17.9203 17.44 18.3903 17.43 18.6803 17.73L19.4503 18.5C19.4503 18.5 19.4703 18.52 19.4803 18.54C20.9103 16.89 21.7003 14.89 21.8503 12.85H18.1503C17.7403 12.85 17.4003 12.52 17.4003 12.1ZM14.8203 14.41C14.9603 14.69 14.6803 14.96 14.4103 14.82C12.8903 14.06 11.1203 14.06 9.59027 14.82C9.31027 14.96 9.04027 14.68 9.18027 14.41C9.94027 12.89 9.94027 11.12 9.18027 9.59C9.04027 9.31 9.32027 9.04 9.59027 9.18C11.1103 9.94 12.8803 9.94 14.4103 9.18C14.6903 9.04 14.9603 9.32 14.8203 9.59C14.0603 11.11 14.0603 12.88 14.8203 14.41Z" fill="white"/> </g> <defs> <clipPath id="clip0_655_9336"> <rect width="24" height="24" fill="white"/> </clipPath> </defs> </svg>
