<svg width="24" height="24" viewBox="0 0 24 24" fill="none" xmlns="http://www.w3.org/2000/svg"> <g clip-path="url(#clip0_655_9356)"> <path d="M17.8699 8.78C16.8899 9.01 16.0699 9.7 15.6499 10.6C15.5299 10.86 15.1599 10.85 15.0399 10.6C14.5299 9.45 13.3799 8.68 11.9999 8.68C10.6199 8.68 9.47988 9.45 8.95988 10.6C8.83988 10.86 8.46988 10.86 8.34988 10.6C7.91988 9.7 7.09988 9.01 6.12988 8.78L6.21988 7.89C6.43988 6.33 7.43988 5.11 8.88988 4.44L10.3299 3.89C10.7799 3.67 11.1099 3.22 11.2199 2.78L11.2879 2.53897C11.3778 2.22018 11.6686 2 11.9999 2C12.3311 2 12.622 2.22018 12.7119 2.53897L12.7799 2.78C12.8899 3.22 13.2199 3.67 13.6699 3.89L15.1099 4.44C16.5599 5.11 17.5599 6.33 17.7799 7.89L17.8699 8.78Z" fill="white"/> <path d="M12.0004 4.44C12.2804 4.77 12.6304 5.05 13.0104 5.23C13.0504 5.25 13.0904 5.27 13.1304 5.28L14.5204 5.81C15.5104 6.28 16.1404 7.08 16.2904 8.06L16.3804 8.92L16.9404 14.3C16.9704 15 17.3004 15.62 17.8304 16.04H6.17035C6.70035 15.61 7.03035 14.99 7.06035 14.3L7.62035 8.91L7.71035 8.05C7.86035 7.07 8.48035 6.27 9.48035 5.8L10.8704 5.27C10.8704 5.27 10.9504 5.24 10.9904 5.22C11.3704 5.03 11.7204 4.75 12.0004 4.43M12.7124 2.53897C12.6225 2.22018 12.3316 2 12.0004 2C11.6691 2 11.3783 2.22018 11.2883 2.53897L11.2204 2.78C11.1104 3.22 10.7804 3.67 10.3304 3.89L8.89035 4.44C7.44035 5.11 6.44035 6.33 6.22035 7.89L6.13035 8.78L5.56035 14.22C5.56035 14.67 5.22035 15 4.78035 15.11L4.00035 15.44C3.44035 15.78 3.11035 16.22 3.11035 16.78C3.11035 17.2108 3.45957 17.56 3.89035 17.56H20.1104C20.5411 17.56 20.8904 17.2108 20.8904 16.78C20.8904 16.22 20.5604 15.78 20.0004 15.44L19.2204 15.11C18.7804 15 18.4404 14.67 18.4404 14.22L17.8704 8.78L17.7804 7.89C17.5604 6.33 16.5604 5.11 15.1104 4.44L13.6704 3.89C13.2204 3.67 12.8904 3.22 12.7804 2.78L12.7124 2.53897Z" fill="white"/> <path d="M16.4396 17.56C16.4396 20 14.4396 22 11.9996 22C9.55957 22 7.55957 20 7.55957 17.56H16.4396Z" fill="white"/> </g> <defs> <clipPath id="clip0_655_9356"> <rect width="24" height="24" fill="white"/> </clipPath> </defs> </svg>
