<svg width="24" height="24" viewBox="0 0 24 24" fill="none" xmlns="http://www.w3.org/2000/svg"> <g clip-path="url(#clip0_4418_169742)"> <path d="M18.8999 15.0303C16.6899 15.0303 14.8999 16.8203 14.8999 19.0303C14.8999 21.2403 16.6899 23.0303 18.8999 23.0303C21.1099 23.0303 22.8999 21.2403 22.8999 19.0303C22.8999 16.8203 21.1099 15.0303 18.8999 15.0303ZM20.4999 20.6803C20.3499 20.8303 20.1599 20.9003 19.9699 20.9003C19.7799 20.9003 19.5899 20.8303 19.4399 20.6803L18.9099 20.1503L18.3599 20.7003C18.2099 20.8503 18.0199 20.9203 17.8299 20.9203C17.6399 20.9203 17.4499 20.8503 17.2999 20.7003C17.0099 20.4103 17.0099 19.9303 17.2999 19.6403L17.8499 19.0903L17.3199 18.5603C17.0299 18.2703 17.0299 17.7903 17.3199 17.5003C17.6099 17.2103 18.0899 17.2103 18.3799 17.5003L18.9099 18.0303L19.4099 17.5303C19.6999 17.2403 20.1799 17.2403 20.4699 17.5303C20.7599 17.8203 20.7599 18.3003 20.4699 18.5903L19.9699 19.0903L20.4999 19.6203C20.7899 19.9103 20.7899 20.3903 20.4999 20.6803Z" fill="white"/> <path d="M22 7.55039V8.00039C22 8.55039 21.55 9.00039 21 9.00039H3C2.45 9.00039 2 8.55039 2 8.00039V7.54039C2 5.25039 3.85 3.40039 6.14 3.40039H17.85C20.14 3.40039 22 5.26039 22 7.55039Z" fill="white"/> <path d="M2 11.5002V16.4602C2 18.7502 3.85 20.6002 6.14 20.6002H12.4C12.98 20.6002 13.48 20.1102 13.43 19.5302C13.29 18.0002 13.78 16.3402 15.14 15.0202C15.7 14.4702 16.39 14.0502 17.14 13.8102C18.39 13.4102 19.6 13.4602 20.67 13.8202C21.32 14.0402 22 13.5702 22 12.8802V11.4902C22 10.9402 21.55 10.4902 21 10.4902H3C2.45 10.5002 2 10.9502 2 11.5002ZM8 17.2502H6C5.59 17.2502 5.25 16.9102 5.25 16.5002C5.25 16.0902 5.59 15.7502 6 15.7502H8C8.41 15.7502 8.75 16.0902 8.75 16.5002C8.75 16.9102 8.41 17.2502 8 17.2502Z" fill="white"/> </g> <defs> <clipPath id="clip0_4418_169742"> <rect width="24" height="24" fill="white"/> </clipPath> </defs> </svg>
