<svg width="24" height="24" viewBox="0 0 24 24" fill="none" xmlns="http://www.w3.org/2000/svg"> <g clip-path="url(#clip0_4418_8502)"> <path d="M14.35 2H9.65001C8.61001 2 7.76001 2.84 7.76001 3.88V4.82C7.76001 5.86 8.60001 6.7 9.64001 6.7H14.35C15.39 6.7 16.23 5.86 16.23 4.82V3.88C16.24 2.84 15.39 2 14.35 2Z" fill="white"/> <path d="M17.24 4.81949C17.24 6.40949 15.94 7.70949 14.35 7.70949H9.65004C8.06004 7.70949 6.76004 6.40949 6.76004 4.81949C6.76004 4.25949 6.16004 3.90949 5.66004 4.16949C4.25004 4.91949 3.29004 6.40949 3.29004 8.11949V17.5295C3.29004 19.9895 5.30004 21.9995 7.76004 21.9995H16.24C18.7 21.9995 20.71 19.9895 20.71 17.5295V8.11949C20.71 6.40949 19.75 4.91949 18.34 4.16949C17.84 3.90949 17.24 4.25949 17.24 4.81949ZM12.38 16.9495H8.00004C7.59004 16.9495 7.25004 16.6095 7.25004 16.1995C7.25004 15.7895 7.59004 15.4495 8.00004 15.4495H12.38C12.79 15.4495 13.13 15.7895 13.13 16.1995C13.13 16.6095 12.79 16.9495 12.38 16.9495ZM15 12.9495H8.00004C7.59004 12.9495 7.25004 12.6095 7.25004 12.1995C7.25004 11.7895 7.59004 11.4495 8.00004 11.4495H15C15.41 11.4495 15.75 11.7895 15.75 12.1995C15.75 12.6095 15.41 12.9495 15 12.9495Z" fill="white"/> </g> <defs> <clipPath id="clip0_4418_8502"> <rect width="24" height="24" fill="white"/> </clipPath> </defs> </svg>
