<svg width="24" height="24" viewBox="0 0 24 24" fill="none" xmlns="http://www.w3.org/2000/svg"> <path d="M12.0293 2.0293C10.0793 2.0293 8.2593 2.5893 6.7293 3.5493L13.5893 10.4193L13.5993 7.6793C13.5993 7.2693 13.9393 6.9293 14.3493 6.9293C14.7693 6.9293 15.0993 7.2693 15.0993 7.6793L15.0893 12.2293C15.0893 12.5393 14.8993 12.8093 14.6193 12.9193C14.5293 12.9593 14.4293 12.9793 14.3393 12.9793C14.1393 12.9793 13.9493 12.8993 13.8093 12.7593L5.6193 4.5593C5.5793 4.5193 5.5493 4.4793 5.5193 4.4393C3.3793 6.2793 2.0293 8.9993 2.0293 12.0293C2.0293 17.5493 6.5093 22.0293 12.0293 22.0293C13.9793 22.0293 15.7993 21.4693 17.3293 20.5093L10.4693 13.6393L10.4593 16.3793C10.4593 16.7893 10.1193 17.1293 9.7093 17.1293C9.2893 17.1293 8.9593 16.7893 8.9593 16.3793L8.9693 11.8293C8.9693 11.5193 9.1593 11.2493 9.4393 11.1393C9.7093 11.0193 10.0393 11.0793 10.2493 11.2993L18.4393 19.4993C18.4793 19.5393 18.5093 19.5793 18.5393 19.6193C20.6793 17.7793 22.0293 15.0593 22.0293 12.0293C22.0293 6.5093 17.5493 2.0293 12.0293 2.0293Z" fill="white"/> </svg>
