<svg width="24" height="24" viewBox="0 0 24 24" fill="none" xmlns="http://www.w3.org/2000/svg"> <g clip-path="url(#clip0_655_9377)"> <path d="M11.25 17.5596C11.2502 14.0366 14.0248 11.2502 17.5596 11.25C19.5854 11.25 21.25 9.58536 21.25 7.55957V2C21.25 1.58579 21.5858 1.25 22 1.25C22.4142 1.25 22.75 1.58579 22.75 2V7.55957C22.75 10.4138 20.4138 12.75 17.5596 12.75C14.855 12.7502 12.7502 14.8632 12.75 17.5596C12.75 17.9738 12.4142 18.3096 12 18.3096C11.5858 18.3096 11.25 17.9738 11.25 17.5596Z" fill="white"/> <path d="M16.8096 11.9996V6.44C16.8096 6.02579 17.1454 5.69 17.5596 5.69C17.9738 5.69 18.3096 6.02579 18.3096 6.44V11.9996C18.3096 12.4138 17.9738 12.7496 17.5596 12.7496C17.1454 12.7496 16.8096 12.4138 16.8096 11.9996Z" fill="white"/> <path d="M11.25 17.5596C11.2498 14.8632 9.14498 12.7502 6.44043 12.75C3.58622 12.75 1.25 10.4138 1.25 7.55957V2C1.25 1.58579 1.58579 1.25 2 1.25C2.41421 1.25 2.75 1.58579 2.75 2V7.55957C2.75 9.58536 4.41464 11.25 6.44043 11.25C9.97518 11.2502 12.7498 14.0366 12.75 17.5596C12.75 17.9738 12.4142 18.3096 12 18.3096C11.5858 18.3096 11.25 17.9738 11.25 17.5596Z" fill="white"/> <path d="M5.69043 11.9996V6.44C5.69043 6.02579 6.02622 5.69 6.44043 5.69C6.85464 5.69 7.19043 6.02579 7.19043 6.44V11.9996C7.19043 12.4138 6.85464 12.7496 6.44043 12.7496C6.02622 12.7496 5.69043 12.4138 5.69043 11.9996Z" fill="white"/> <path d="M1.45475 21.4848C7.31064 15.2818 16.6887 15.2818 22.5446 21.4848C22.8289 21.7861 22.8155 22.2611 22.5143 22.5454C22.2132 22.8295 21.7391 22.8159 21.4547 22.5151C16.1907 16.9387 7.8086 16.9387 2.54459 22.5151C2.26025 22.8159 1.78611 22.8295 1.48502 22.5454C1.18381 22.2611 1.17041 21.7861 1.45475 21.4848Z" fill="white"/> </g> <defs> <clipPath id="clip0_655_9377"> <rect width="24" height="24" fill="white"/> </clipPath> </defs> </svg>
