<svg width="24" height="24" viewBox="0 0 24 24" fill="none" xmlns="http://www.w3.org/2000/svg"> <g clip-path="url(#clip0_4418_8199)"> <path d="M18.6899 11.5308C18.1199 11.3808 17.4499 11.3008 16.6499 11.3008C15.5399 11.3008 15.1299 11.5708 14.5599 12.0008C14.5299 12.0208 14.4999 12.0508 14.4699 12.0808L13.5199 13.0908C12.7299 13.9408 11.2799 13.9408 10.4799 13.0908L9.52993 12.0908C9.49993 12.0508 9.46993 12.0208 9.43993 12.0008C8.85993 11.5708 8.44993 11.3008 7.34993 11.3008C6.54993 11.3008 5.87993 11.3708 5.30993 11.5308C2.92993 12.1708 2.92993 14.0608 2.92993 15.7208V16.6508C2.92993 19.1608 2.92993 22.0008 8.27993 22.0008H15.7199C19.2699 22.0008 21.0699 20.2008 21.0699 16.6508V15.7208C21.0699 14.0608 21.0699 12.1708 18.6899 11.5308Z" fill="white"/> <path d="M14.79 2H9.21004C4.79004 2 4.79004 4.35 4.79004 6.42V10.12C4.83004 10.1 4.88004 10.09 4.92004 10.08C5.62004 9.89 6.41004 9.8 7.35004 9.8C8.89004 9.8 9.62004 10.25 10.34 10.8C10.44 10.87 10.54 10.96 10.63 11.06L11.57 12.05C11.67 12.16 11.83 12.22 12 12.22C12.17 12.22 12.33 12.16 12.42 12.06L13.38 11.05C13.46 10.97 13.55 10.88 13.65 10.81C14.39 10.25 15.11 9.8 16.65 9.8C17.59 9.8 18.38 9.89 19.08 10.08C19.12 10.09 19.17 10.1 19.21 10.12V6.42C19.21 4.35 19.21 2 14.79 2ZM13.55 8.5H10.45C10.07 8.5 9.75004 8.18 9.75004 7.8C9.75004 7.41 10.07 7.1 10.45 7.1H13.55C13.93 7.1 14.25 7.41 14.25 7.8C14.25 8.18 13.93 8.5 13.55 8.5ZM14.33 5.71H9.67004C9.29004 5.71 8.98004 5.39 8.98004 5.01C8.98004 4.62 9.29004 4.31 9.67004 4.31H14.33C14.71 4.31 15.02 4.62 15.02 5.01C15.02 5.39 14.71 5.71 14.33 5.71Z" fill="white"/> </g> <defs> <clipPath id="clip0_4418_8199"> <rect width="24" height="24" fill="white"/> </clipPath> </defs> </svg>
