<svg width="24" height="24" viewBox="0 0 24 24" fill="none" xmlns="http://www.w3.org/2000/svg"> <g clip-path="url(#clip0_4418_8313)"> <path d="M22 9.75C21.59 9.75 21.25 9.41 21.25 9V7C21.25 4.42 19.58 2.75 17 2.75H15C14.59 2.75 14.25 2.41 14.25 2C14.25 1.59 14.59 1.25 15 1.25H17C20.44 1.25 22.75 3.56 22.75 7V9C22.75 9.41 22.41 9.75 22 9.75Z" fill="white"/> <path d="M2 9.75C1.59 9.75 1.25 9.41 1.25 9V7C1.25 3.56 3.56 1.25 7 1.25H9C9.41 1.25 9.75 1.59 9.75 2C9.75 2.41 9.41 2.75 9 2.75H7C4.42 2.75 2.75 4.42 2.75 7V9C2.75 9.41 2.41 9.75 2 9.75Z" fill="white"/> <path d="M17 22.75H15C14.59 22.75 14.25 22.41 14.25 22C14.25 21.59 14.59 21.25 15 21.25H17C19.58 21.25 21.25 19.58 21.25 17V15C21.25 14.59 21.59 14.25 22 14.25C22.41 14.25 22.75 14.59 22.75 15V17C22.75 20.44 20.44 22.75 17 22.75Z" fill="white"/> <path d="M9 22.75H7C3.56 22.75 1.25 20.44 1.25 17V15C1.25 14.59 1.59 14.25 2 14.25C2.41 14.25 2.75 14.59 2.75 15V17C2.75 19.58 4.42 21.25 7 21.25H9C9.41 21.25 9.75 21.59 9.75 22C9.75 22.41 9.41 22.75 9 22.75Z" fill="white"/> <path d="M12.0001 9.86914C11.5101 9.86914 11.1001 10.2691 11.1001 10.7691V13.2391C11.1001 13.7391 11.5001 14.1391 12.0001 14.1391C12.5001 14.1391 12.9001 13.7391 12.9001 13.2391V10.7691C12.9001 10.2691 12.4901 9.86914 12.0001 9.86914Z" fill="white"/> <path d="M15.53 7.39969C15.19 7.05969 14.8 6.76969 14.38 6.52969C14.24 6.45969 14.09 6.38969 13.94 6.31969C13.79 6.25969 13.64 6.19969 13.48 6.15969C13.32 6.10969 13.16 6.06969 13 6.02969C12.99 6.02969 12.97 6.02969 12.96 6.01969C12.65 5.95969 12.33 5.92969 12.01 5.92969H11.99C11.67 5.92969 11.36 5.95969 11.05 6.01969C11.01 6.02969 10.97 6.02969 10.94 6.04969C10.8 6.07969 10.66 6.10969 10.52 6.15969C10.35 6.19969 10.18 6.26969 10.01 6.33969C9.88001 6.39969 9.75001 6.46969 9.63001 6.52969C9.48001 6.60969 9.35001 6.69969 9.21001 6.78969C8.95001 6.96969 8.70001 7.16969 8.47001 7.39969C8.36001 7.50969 8.25001 7.62969 8.15001 7.74969C8.05001 7.87969 7.95001 7.99969 7.86001 8.13969C7.77001 8.26969 7.69001 8.40969 7.61001 8.54969C7.23001 9.25969 7.01001 10.0697 7.01001 10.9297V13.0697C7.01001 14.7997 7.89001 16.3197 9.21001 17.2097C9.33001 17.2997 9.46001 17.3697 9.59001 17.4497L10.14 17.7097C10.42 17.8197 10.71 17.9097 11 17.9697C11.32 18.0297 11.65 18.0697 11.99 18.0697C12 18.0697 12 18.0697 12.01 18.0697C12.35 18.0697 12.68 18.0297 13 17.9697C13.3 17.9097 13.59 17.8197 13.87 17.7097C14.06 17.6297 14.24 17.5397 14.41 17.4497C15.95 16.5997 16.99 14.9497 16.99 13.0697V10.9297C16.99 9.54969 16.43 8.29969 15.53 7.39969ZM14.4 13.2397C14.4 14.5597 13.32 15.6397 12 15.6397C10.68 15.6397 9.60001 14.5597 9.60001 13.2397V10.7697C9.60001 9.44969 10.68 8.36969 12 8.36969C13.32 8.36969 14.4 9.44969 14.4 10.7697V13.2397Z" fill="white"/> </g> <defs> <clipPath id="clip0_4418_8313"> <rect width="24" height="24" fill="white"/> </clipPath> </defs> </svg>
