<svg width="24" height="24" viewBox="0 0 24 24" fill="none" xmlns="http://www.w3.org/2000/svg"> <g clip-path="url(#clip0_655_9470)"> <path d="M16.4398 22.75H7.54982C6.30982 22.75 5.14982 22.19 4.37982 21.21C3.60982 20.23 3.32982 18.98 3.61982 17.77C4.59982 13.62 5.34982 10.75 5.82982 9.24C5.95982 8.85 6.37982 8.63 6.76982 8.76C7.15982 8.89 7.37982 9.31 7.25982 9.7C6.78982 11.15 6.03982 14.06 5.07982 18.12C4.89982 18.88 5.07982 19.67 5.55982 20.29C6.04982 20.9 6.76982 21.26 7.55982 21.26H16.4598C17.2398 21.26 17.9698 20.91 18.4598 20.29C18.9498 19.67 19.1198 18.88 18.9398 18.12C18.2798 15.36 17.3598 11.67 16.7698 9.83C16.6398 9.44 16.8598 9.01 17.2498 8.89C17.6498 8.77 18.0698 8.98 18.1898 9.37C18.7998 11.26 19.7198 14.98 20.3898 17.77C20.6798 18.98 20.3998 20.24 19.6298 21.22C18.8598 22.2 17.6998 22.76 16.4498 22.76L16.4398 22.75Z" fill="white"/> <path d="M11.9999 16.32C11.5899 16.32 11.2499 15.98 11.2499 15.57V12.8L10.4699 12.11C10.1599 11.84 10.1299 11.36 10.3999 11.05C10.6699 10.74 11.1499 10.71 11.4599 10.98L12.4999 11.89C12.6599 12.03 12.7499 12.24 12.7499 12.45V15.56C12.7499 15.97 12.4099 16.31 11.9999 16.31V16.32Z" fill="white"/> <path d="M12 16.32C11.59 16.32 11.25 15.98 11.25 15.57V12.46C11.25 12.24 11.34 12.04 11.5 11.9L12.54 10.99C12.85 10.72 13.32 10.75 13.6 11.06C13.87 11.37 13.84 11.84 13.53 12.12L12.75 12.81V15.58C12.75 15.99 12.41 16.33 12 16.33V16.32Z" fill="white"/> <path d="M12.0004 16.32C11.9204 16.32 11.8504 16.31 11.7704 16.28L9.13039 15.42L8.23039 15.95C7.87039 16.16 7.41039 16.04 7.20039 15.69C6.99039 15.33 7.11039 14.87 7.46039 14.66L8.65039 13.96C8.84039 13.85 9.06039 13.82 9.26039 13.89L12.2204 14.85C12.6104 14.98 12.8304 15.4 12.7004 15.79C12.6004 16.11 12.3004 16.31 11.9904 16.31L12.0004 16.32Z" fill="white"/> <path d="M12.0002 16.32C11.9202 16.32 11.8503 16.31 11.7703 16.28L8.81025 15.32C8.60025 15.25 8.44025 15.1 8.35025 14.9L7.80025 13.63C7.64025 13.25 7.81025 12.81 8.19025 12.64C8.57025 12.47 9.01025 12.64 9.18025 13.03L9.59025 13.99L12.2302 14.85C12.6202 14.98 12.8403 15.4 12.7102 15.79C12.6102 16.11 12.3102 16.31 12.0002 16.31V16.32Z" fill="white"/> <path d="M10.4701 20.18C10.1301 20.18 9.82015 19.94 9.74015 19.59L9.44015 18.24C9.39015 18.03 9.44015 17.81 9.56015 17.64L11.3901 15.12C11.6301 14.78 12.1001 14.71 12.4401 14.95C12.7701 15.19 12.8501 15.66 12.6101 16L10.9801 18.24L11.2101 19.26C11.3001 19.66 11.0501 20.06 10.6401 20.16C10.5801 20.17 10.5301 20.18 10.4701 20.18Z" fill="white"/> <path d="M8.78971 18.96C8.40971 18.96 8.07971 18.67 8.03971 18.28C7.99971 17.87 8.29971 17.5 8.71971 17.46L9.75971 17.36L11.3897 15.12C11.6297 14.78 12.0997 14.71 12.4397 14.95C12.7697 15.19 12.8497 15.66 12.6097 16L10.7797 18.52C10.6497 18.69 10.4597 18.81 10.2397 18.83L8.85971 18.96C8.85971 18.96 8.80971 18.96 8.78971 18.96Z" fill="white"/> <path d="M15.2098 18.96C15.2098 18.96 15.1598 18.96 15.1398 18.96L13.7598 18.83C13.5498 18.81 13.3498 18.7 13.2198 18.52L11.3898 16C11.1498 15.67 11.2198 15.2 11.5598 14.95C11.8998 14.71 12.3598 14.78 12.6098 15.12L14.2398 17.36L15.2798 17.46C15.6898 17.5 15.9998 17.86 15.9598 18.28C15.9198 18.67 15.5998 18.96 15.2098 18.96Z" fill="white"/> <path d="M13.5296 20.18C13.4796 20.18 13.4196 20.18 13.3696 20.16C12.9696 20.07 12.7096 19.67 12.7996 19.26L13.0296 18.24L11.3996 16C11.1596 15.67 11.2296 15.2 11.5696 14.95C11.9096 14.71 12.3696 14.78 12.6196 15.12L14.4496 17.64C14.5796 17.81 14.6196 18.03 14.5696 18.24L14.2696 19.59C14.1896 19.94 13.8796 20.18 13.5396 20.18H13.5296Z" fill="white"/> <path d="M12.0004 16.32C11.6804 16.32 11.3904 16.12 11.2904 15.8C11.1604 15.41 11.3804 14.98 11.7704 14.86L14.4104 14L14.8204 13.04C14.9804 12.66 15.4204 12.48 15.8104 12.65C16.1904 12.81 16.3704 13.26 16.2004 13.64L15.6504 14.91C15.5604 15.11 15.4004 15.26 15.1904 15.33L12.2304 16.29C12.1504 16.32 12.0704 16.33 12.0004 16.33V16.32Z" fill="white"/> <path d="M12.0004 16.32C11.6804 16.32 11.3904 16.12 11.2904 15.8C11.1604 15.41 11.3804 14.98 11.7704 14.86L14.7304 13.9C14.9404 13.83 15.1604 13.86 15.3404 13.97L16.5304 14.67C16.8904 14.88 17.0004 15.34 16.7904 15.7C16.5804 16.06 16.1204 16.17 15.7604 15.96L14.8604 15.43L12.2204 16.29C12.1404 16.32 12.0604 16.33 11.9904 16.33L12.0004 16.32Z" fill="white"/> <path d="M19.5596 6.07V7.87C19.5596 8.51 19.2996 9.1 18.8496 9.53C18.7296 9.65 18.5996 9.76 18.4496 9.85C18.4196 9.87 18.3796 9.89 18.3496 9.9C17.9996 10.1 17.6096 10.2 17.2296 10.2C17.2096 10.2 17.1796 10.2 17.1596 10.19C17.0596 10.2 16.9496 10.19 16.8496 10.16C16.6196 10.13 16.3996 10.06 16.1896 9.95L14.3696 9.04L13.7096 8.71C13.3396 8.53 13.1896 8.08 13.3696 7.71C13.5596 7.34 14.0096 7.19 14.3796 7.37L16.8596 8.61C17.1196 8.74 17.4096 8.73 17.6596 8.58C17.9096 8.42 18.0596 8.16 18.0596 7.87V6.07C18.0596 5.78 17.9096 5.52 17.6596 5.37C17.4096 5.21 17.1196 5.2 16.8496 5.33L15.8596 5.82C15.7996 5.86 15.7296 5.9 15.6596 5.92L14.7796 6.37L14.3696 6.57C13.9996 6.76 13.5496 6.61 13.3696 6.24C13.1796 5.87 13.3296 5.42 13.6996 5.23L14.3496 4.9L14.8096 4.68L16.1796 3.99C16.3296 3.91 16.4896 3.85 16.6496 3.81C17.2596 3.65 17.9096 3.75 18.4496 4.09C19.1396 4.52 19.5596 5.26 19.5596 6.07Z" fill="white"/> <path d="M10.6295 7.71C10.8095 8.08 10.6595 8.53 10.2895 8.71L9.62945 9.04L7.81945 9.95C7.57945 10.07 7.33945 10.14 7.09945 10.17C7.00945 10.19 6.92945 10.2 6.83945 10.19C6.81945 10.2 6.78945 10.2 6.76945 10.2C6.37945 10.2 5.97945 10.09 5.61945 9.89C5.59945 9.88 5.56945 9.86 5.54945 9.85C5.39945 9.76 5.26945 9.65 5.14945 9.53C4.69945 9.1 4.43945 8.51 4.43945 7.87V6.07C4.43945 5.26 4.85945 4.52 5.54945 4.09C6.09945 3.75 6.74945 3.65 7.34945 3.82C7.50945 3.85 7.65945 3.91 7.80945 3.99L9.18945 4.68L9.64945 4.9L10.2995 5.23C10.6695 5.42 10.8195 5.87 10.6295 6.24C10.4495 6.61 9.99945 6.76 9.62945 6.57L9.21945 6.37L7.13945 5.33C6.87945 5.2 6.58945 5.21 6.33945 5.37C6.08945 5.52 5.93945 5.78 5.93945 6.07V7.87C5.93945 8.16 6.08945 8.42 6.33945 8.58C6.58945 8.73 6.87945 8.74 7.14945 8.61L9.21945 7.57L9.61945 7.37C9.98945 7.19 10.4395 7.34 10.6295 7.71Z" fill="white"/> <path d="M14.3497 4.9C14.0097 4.47 13.4897 4.2 12.8897 4.2H11.1097C10.5097 4.2 9.98973 4.47 9.64973 4.9C9.37973 5.23 9.21973 5.64 9.21973 6.09V7.87C9.21973 8.32 9.36973 8.72 9.62973 9.04C9.96973 9.48 10.5097 9.76 11.1097 9.76H12.8897C13.4897 9.76 14.0297 9.48 14.3697 9.04C14.6297 8.72 14.7797 8.32 14.7797 7.87V6.09C14.7797 5.64 14.6197 5.23 14.3497 4.9ZM13.2797 7.87C13.2797 8.09 13.1097 8.26 12.8897 8.26H11.1097C10.8897 8.26 10.7197 8.09 10.7197 7.87V6.09C10.7197 5.87 10.8897 5.7 11.1097 5.7H12.8897C13.1097 5.7 13.2797 5.87 13.2797 6.09V7.87Z" fill="white"/> <path d="M9.21945 6.37V7.57L7.14945 8.61C6.87945 8.74 6.58945 8.73 6.33945 8.58C6.08945 8.42 5.93945 8.16 5.93945 7.87V6.07C5.93945 5.78 6.08945 5.52 6.33945 5.37C6.58945 5.21 6.87945 5.2 7.13945 5.33L9.21945 6.37Z" fill="white"/> <path d="M12.7499 2C12.7499 2.41 12.4099 2.75 11.9999 2.75H8.57995L9.18995 4.68L9.28995 4.98C9.40995 5.38 9.19995 5.8 8.79995 5.92C8.72995 5.95 8.64995 5.96 8.56995 5.96C8.25995 5.96 7.95995 5.75 7.85995 5.43L7.34995 3.82L6.84995 2.23C6.76995 2 6.80995 1.75 6.95995 1.56C7.09995 1.36 7.31995 1.25 7.55995 1.25H11.9999C12.4099 1.25 12.7499 1.59 12.7499 2Z" fill="white"/> <path d="M15.4201 2.75L14.8101 4.68L14.3501 4.9C14.0101 4.47 13.4901 4.2 12.8901 4.2H11.1101C10.5101 4.2 9.99008 4.47 9.65008 4.9L9.19008 4.68L8.58008 2.75H15.4201Z" fill="white"/> <path d="M18.0603 6.07V7.87C18.0603 8.16 17.9103 8.42 17.6603 8.58C17.4103 8.73 17.1203 8.74 16.8603 8.61L14.7803 7.57V6.37L15.6603 5.92C15.7303 5.9 15.8003 5.86 15.8603 5.82L16.8503 5.33C17.1203 5.2 17.4103 5.21 17.6603 5.37C17.9103 5.52 18.0603 5.78 18.0603 6.07Z" fill="white"/> <path d="M17.15 2.23L16.65 3.81L16.14 5.43C16.09 5.59 15.99 5.72 15.86 5.82C15.8 5.86 15.73 5.9 15.66 5.92C15.58 5.95 15.51 5.96 15.43 5.96C15.35 5.96 15.27 5.96 15.2 5.92C14.8 5.8 14.59 5.38 14.71 4.98L14.81 4.68L15.42 2.75H12C11.59 2.75 11.25 2.41 11.25 2C11.25 1.59 11.59 1.25 12 1.25H16.44C16.68 1.25 16.9 1.36 17.04 1.56C17.19 1.75 17.23 2 17.15 2.23Z" fill="white"/> <path d="M1.99991 11.96C1.59991 11.96 1.26991 11.65 1.24991 11.24C1.22991 10.83 1.54991 10.48 1.96991 10.46C4.45991 10.35 6.00991 8.93 6.02991 8.92C6.32991 8.64 6.80991 8.66 7.08991 8.96C7.36991 9.26 7.35991 9.73 7.05991 10.02C6.97991 10.09 5.10991 11.83 2.03991 11.97C2.02991 11.97 2.01991 11.97 2.00991 11.97L1.99991 11.96Z" fill="white"/> <path d="M21.9996 11.96C21.9996 11.96 21.9796 11.96 21.9696 11.96C18.8996 11.82 17.0296 10.09 16.9496 10.01C16.6496 9.73 16.6396 9.25 16.9196 8.95C17.1996 8.65 17.6796 8.64 17.9796 8.92C17.9996 8.94 19.5596 10.35 22.0396 10.46C22.4496 10.48 22.7696 10.83 22.7596 11.24C22.7396 11.64 22.4096 11.96 22.0096 11.96H21.9996Z" fill="white"/> </g> <defs> <clipPath id="clip0_655_9470"> <rect width="24" height="24" fill="white"/> </clipPath> </defs> </svg>
