<svg width="24" height="24" viewBox="0 0 24 24" fill="none" xmlns="http://www.w3.org/2000/svg"> <g clip-path="url(#clip0_4418_8404)"> <path d="M22 7.8093V11.2493H16.75V2.0293C20.05 2.2293 22 4.3593 22 7.8093Z" fill="white"/> <path d="M22 12.75V16.19C22 19.64 20.05 21.77 16.75 21.97V12.75H22Z" fill="white"/> <path d="M7.25 12.75V21.97C3.95 21.77 2 19.64 2 16.19V12.75H7.25Z" fill="white"/> <path d="M7.25 2.0293V11.2493H2V7.8093C2 4.3593 3.95 2.2293 7.25 2.0293Z" fill="white"/> <path d="M15.25 2H8.75V11.25H15.25V2Z" fill="white"/> <path d="M15.25 12.75H8.75V22H15.25V12.75Z" fill="white"/> </g> <defs> <clipPath id="clip0_4418_8404"> <rect width="24" height="24" fill="white"/> </clipPath> </defs> </svg>
