<svg width="24" height="24" viewBox="0 0 24 24" fill="none" xmlns="http://www.w3.org/2000/svg"> <g clip-path="url(#clip0_655_9479)"> <path d="M12.9098 12.25C12.0798 12.25 11.2498 11.93 10.6198 11.3C9.3598 10.04 9.3598 7.98 10.6198 6.72C10.9098 6.43 11.3898 6.43 11.6798 6.72C11.9698 7.01 11.9698 7.49 11.6798 7.78C10.9998 8.46 10.9998 9.56 11.6798 10.24C12.3598 10.92 13.4598 10.92 14.1398 10.24C14.4298 9.95 14.9098 9.95 15.1998 10.24C15.4898 10.53 15.4898 11.01 15.1998 11.3C14.5698 11.93 13.7398 12.25 12.9098 12.25Z" fill="white"/> <path d="M12.9097 14.73C11.4397 14.73 9.97969 14.17 8.85969 13.06C7.73969 11.95 7.17969 10.54 7.17969 9.00999C7.17969 7.47999 7.77969 6.03999 8.85969 4.95999C9.14969 4.66999 9.62969 4.66999 9.91969 4.95999C10.2097 5.24999 10.2097 5.72999 9.91969 6.01999C9.11969 6.81999 8.67969 7.87999 8.67969 9.00999C8.67969 10.14 9.11969 11.2 9.91969 12C11.5697 13.65 14.2497 13.65 15.8997 12C16.1897 11.71 16.6697 11.71 16.9597 12C17.2497 12.29 17.2497 12.77 16.9597 13.06C15.8397 14.18 14.3797 14.73 12.9097 14.73Z" fill="white"/> <path d="M12.9098 9.75999C12.7198 9.75999 12.5298 9.68999 12.3798 9.53999C12.0898 9.24999 12.0898 8.76999 12.3798 8.47999C12.5698 8.28999 12.5698 7.97 12.3798 7.77999C12.1898 7.57999 11.8698 7.58999 11.6798 7.77999C11.3898 8.06999 10.9098 8.06999 10.6198 7.77999C10.3298 7.49 10.3298 7.00999 10.6198 6.71999C11.3998 5.93999 12.6598 5.93999 13.4398 6.71999C14.2198 7.49999 14.2198 8.75999 13.4398 9.53999C13.2898 9.68999 13.0998 9.75999 12.9098 9.75999Z" fill="white"/> <path d="M14.6701 11.52C14.4801 11.52 14.2901 11.45 14.1401 11.3C13.8501 11.01 13.8501 10.53 14.1401 10.24C15.3001 9.07999 15.3001 7.17999 14.1401 6.01999C13.0101 4.88999 11.0501 4.88999 9.92008 6.01999C9.63008 6.30999 9.15008 6.30999 8.86008 6.01999C8.57008 5.72999 8.57008 5.24999 8.86008 4.95999C9.71008 4.10999 10.8301 3.64999 12.0301 3.64999C13.2301 3.64999 14.3501 4.11999 15.2001 4.95999C16.9501 6.70999 16.9501 9.54999 15.2001 11.3C15.0501 11.45 14.8601 11.52 14.6701 11.52Z" fill="white"/> <path d="M16.4301 13.28C16.2401 13.28 16.0501 13.21 15.9001 13.06C15.6101 12.77 15.6101 12.29 15.9001 12C17.6401 10.26 18.0001 7.56 16.7901 5.43C16.6101 5.14 16.6401 4.75 16.9001 4.5C17.1901 4.21 17.6701 4.21 17.9601 4.5C18.0201 4.56 18.0701 4.63 18.1001 4.7C19.6401 7.38 19.1801 10.84 16.9601 13.06C16.8101 13.21 16.6201 13.28 16.4301 13.28Z" fill="white"/> <path d="M12.0001 15.51C8.07012 15.51 4.87012 12.31 4.87012 8.38C4.87012 4.45 8.07012 1.25 12.0001 1.25C15.9301 1.25 19.1301 4.45 19.1301 8.38C19.1301 12.31 15.9301 15.51 12.0001 15.51ZM12.0001 2.75C8.90012 2.75 6.37012 5.28 6.37012 8.38C6.37012 11.48 8.90012 14.01 12.0001 14.01C15.1001 14.01 17.6301 11.48 17.6301 8.38C17.6301 5.28 15.1001 2.75 12.0001 2.75Z" fill="white"/> <path d="M12 22.75C11.59 22.75 11.25 22.41 11.25 22V14.76C11.25 14.35 11.59 14.01 12 14.01C12.41 14.01 12.75 14.35 12.75 14.76V22C12.75 22.41 12.41 22.75 12 22.75Z" fill="white"/> <path d="M12.3402 17.65L12.0002 17.48L11.2502 17.11L8.93016 15.95C8.33016 15.65 7.64016 15.68 7.07016 16.03C6.50016 16.39 6.16016 16.99 6.16016 17.66V18.99C6.16016 19.66 6.50016 20.26 7.07016 20.62C7.38016 20.81 7.72016 20.9 8.07016 20.9C8.36016 20.9 8.66016 20.83 8.93016 20.7L11.2502 19.54L12.0002 19.17L12.3302 19C12.5902 18.87 12.7502 18.61 12.7502 18.33C12.7502 18.05 12.5902 17.78 12.3402 17.65ZM8.26016 19.36C8.07016 19.45 7.92016 19.38 7.86016 19.34C7.80016 19.3 7.66016 19.2 7.66016 18.99V17.66C7.66016 17.45 7.80016 17.35 7.86016 17.31C7.89016 17.29 7.97016 17.25 8.07016 17.25C8.13016 17.25 8.19016 17.26 8.26016 17.29L10.3202 18.33L8.26016 19.36Z" fill="white"/> <path d="M10.3202 18.33L8.26016 19.36C8.07016 19.45 7.92016 19.38 7.86016 19.34C7.80016 19.3 7.66016 19.2 7.66016 18.99V17.66C7.66016 17.45 7.80016 17.35 7.86016 17.31C7.89016 17.29 7.97016 17.25 8.07016 17.25C8.13016 17.25 8.19016 17.26 8.26016 17.29L10.3202 18.33Z" fill="white"/> <path d="M16.93 16.03C16.36 15.68 15.67 15.65 15.07 15.95L12.75 17.11L12 17.48L11.66 17.65C11.41 17.78 11.25 18.04 11.25 18.33C11.25 18.62 11.41 18.87 11.67 19L12 19.17L12.75 19.54L15.07 20.7C15.34 20.83 15.64 20.9 15.93 20.9C16.28 20.9 16.62 20.81 16.93 20.62C17.5 20.26 17.84 19.66 17.84 18.99V17.66C17.84 16.99 17.5 16.39 16.93 16.03ZM16.34 18.99C16.34 19.2 16.2 19.3 16.14 19.34C16.08 19.38 15.93 19.45 15.74 19.36L13.68 18.33L15.74 17.29C15.93 17.2 16.08 17.27 16.14 17.31C16.2 17.35 16.34 17.45 16.34 17.66V18.99Z" fill="white"/> <path d="M16.3397 17.66V18.99C16.3397 19.2 16.1997 19.3 16.1397 19.34C16.0797 19.38 15.9297 19.45 15.7397 19.36L13.6797 18.33L15.7397 17.29C15.9297 17.2 16.0797 17.27 16.1397 17.31C16.1997 17.35 16.3397 17.45 16.3397 17.66Z" fill="white"/> </g> <defs> <clipPath id="clip0_655_9479"> <rect width="24" height="24" fill="white"/> </clipPath> </defs> </svg>
