<svg width="24" height="24" viewBox="0 0 24 24" fill="none" xmlns="http://www.w3.org/2000/svg"> <g clip-path="url(#clip0_655_9483)"> <path d="M17.3395 10.14C17.2895 9.97001 17.2295 9.81001 17.1495 9.65001C16.9395 9.18001 16.6395 8.76001 16.2695 8.41001C15.6995 7.86001 14.9795 7.49001 14.1695 7.37001C13.9795 7.34001 13.7895 7.32001 13.5895 7.32001H10.4095C10.2095 7.32001 10.0195 7.34001 9.82949 7.37001C9.01949 7.49001 8.29949 7.86001 7.72949 8.41001C7.35949 8.76001 7.05949 9.18001 6.84949 9.65001C6.76949 9.81001 6.70949 9.97001 6.65949 10.14C6.53949 10.52 6.47949 10.92 6.47949 11.34V13.22C6.47949 13.28 6.47949 13.34 6.49949 13.4L8.63949 22.1C8.72949 22.43 9.02949 22.67 9.36949 22.67H14.6295C14.9695 22.67 15.2695 22.43 15.3595 22.1L16.1695 18.79L17.4995 13.4C17.5095 13.34 17.5195 13.28 17.5195 13.22V11.34C17.5195 10.92 17.4595 10.52 17.3395 10.14ZM14.0395 21.17H9.95949L9.47949 19.21L9.10949 17.73L7.97949 13.13V11.34C7.97949 9.95001 9.06949 8.82001 10.4095 8.82001H13.5895C14.9295 8.82001 16.0195 9.95001 16.0195 11.34V13.13L14.8995 17.69L14.5395 19.14L14.0395 21.17Z" fill="white"/> <path d="M14.5398 19.14L14.0398 21.17H12.7598V19.47C13.0598 19.34 13.3298 19.14 13.5298 18.88L14.5398 19.14Z" fill="white"/> <path d="M11.2595 21.17H9.95949L9.47949 19.21L10.4295 18.82C10.6295 19.11 10.9195 19.33 11.2495 19.47V21.17H11.2595Z" fill="white"/> <path d="M10.9694 18.59L10.4294 18.82L9.47938 19.21L8.99938 19.41C8.90938 19.45 8.80938 19.47 8.70938 19.47C8.41938 19.47 8.13938 19.29 8.01938 19C7.85938 18.62 8.03938 18.18 8.41938 18.02L9.10938 17.73L10.0794 17.33L10.3994 17.2C10.7794 17.04 11.2194 17.23 11.3794 17.61C11.5394 17.99 11.3594 18.43 10.9694 18.59Z" fill="white"/> <path d="M16.1693 18.79C16.0793 19.13 15.7793 19.35 15.4393 19.35C15.3793 19.35 15.3193 19.35 15.2593 19.33L14.5393 19.14L13.5293 18.88L13.0793 18.76C12.6793 18.66 12.4393 18.25 12.5393 17.85C12.6393 17.45 13.0493 17.21 13.4493 17.31L13.9293 17.44L14.8993 17.69L15.6293 17.88C16.0293 17.98 16.2693 18.39 16.1693 18.79Z" fill="white"/> <path d="M13.9298 17.44C13.8198 16.47 12.9998 15.72 11.9998 15.72C10.9998 15.72 10.2398 16.41 10.0798 17.33C10.0598 17.44 10.0498 17.55 10.0498 17.67C10.0498 18.1 10.1898 18.5 10.4298 18.82C10.6298 19.11 10.9198 19.33 11.2498 19.47C11.4798 19.57 11.7298 19.62 11.9998 19.62C12.2698 19.62 12.5198 19.57 12.7498 19.47C13.0598 19.34 13.3298 19.14 13.5298 18.88C13.7898 18.55 13.9498 18.13 13.9498 17.67C13.9498 17.59 13.9498 17.51 13.9298 17.44ZM11.9998 17.22C12.2498 17.22 12.4498 17.42 12.4498 17.67C12.4498 17.92 12.2498 18.12 11.9998 18.12C11.7498 18.12 11.5498 17.92 11.5498 17.67C11.5498 17.42 11.7498 17.22 11.9998 17.22Z" fill="white"/> <path d="M11.9998 18.12C12.2483 18.12 12.4498 17.9185 12.4498 17.67C12.4498 17.4215 12.2483 17.22 11.9998 17.22C11.7513 17.22 11.5498 17.4215 11.5498 17.67C11.5498 17.9185 11.7513 18.12 11.9998 18.12Z" fill="white"/> <path d="M10.66 13.31H9.45996C9.04996 13.31 8.70996 12.97 8.70996 12.56C8.70996 12.15 9.04996 11.81 9.45996 11.81H10.66C11.07 11.81 11.41 12.15 11.41 12.56C11.41 12.97 11.07 13.31 10.66 13.31Z" fill="white"/> <path d="M14.5398 13.31H13.3398C12.9298 13.31 12.5898 12.97 12.5898 12.56C12.5898 12.15 12.9298 11.81 13.3398 11.81H14.5398C14.9498 11.81 15.2898 12.15 15.2898 12.56C15.2898 12.97 14.9498 13.31 14.5398 13.31Z" fill="white"/> <path d="M6.84891 9.65001C6.76891 9.81001 6.70891 9.97001 6.65891 10.14H6.36891C5.46891 10.14 4.71891 9.45001 4.62891 8.57001L6.84891 9.65001Z" fill="white"/> <path d="M8.42914 9.58001C8.24914 9.95001 7.79914 10.11 7.42914 9.93001L6.84914 9.65001L4.62914 8.57001C4.71914 9.45001 5.46914 10.14 6.36914 10.14H6.94914C7.36914 10.14 7.69914 10.47 7.69914 10.89C7.69914 11.31 7.36914 11.64 6.94914 11.64H6.36914C4.57914 11.64 3.11914 10.18 3.11914 8.38001V7.37001C3.11914 7.11001 3.24914 6.87001 3.46914 6.74001C3.68914 6.60001 3.95914 6.58001 4.19914 6.70001L7.72914 8.41001L8.07914 8.58001C8.44914 8.76001 8.60914 9.21001 8.42914 9.58001Z" fill="white"/> <path d="M19.3694 8.57001C19.2794 9.45001 18.5294 10.14 17.6294 10.14H17.3394C17.2894 9.97001 17.2294 9.81001 17.1494 9.65001L19.3694 8.57001Z" fill="white"/> <path d="M20.8795 7.37001V8.38001C20.8795 10.18 19.4195 11.64 17.6295 11.64H17.5195V11.34C17.5195 10.92 17.4595 10.52 17.3395 10.14H17.6295C18.5295 10.14 19.2795 9.45001 19.3695 8.57001L17.1495 9.65001C16.9395 9.18001 16.6395 8.76001 16.2695 8.41001L19.7995 6.70001C20.0395 6.58001 20.3095 6.60001 20.5295 6.74001C20.7495 6.87001 20.8795 7.11001 20.8795 7.37001Z" fill="white"/> <path d="M16.5692 9.93C16.1992 10.11 15.7492 9.95 15.5692 9.58C15.3892 9.21 15.5492 8.76 15.9192 8.58L16.2692 8.41C16.6392 8.76 16.9392 9.18 17.1492 9.65L16.5692 9.93Z" fill="white"/> <path d="M17.5188 11.34V11.64H17.0488C16.6288 11.64 16.2988 11.3 16.2988 10.89C16.2988 10.48 16.6288 10.14 17.0488 10.14H17.3388C17.4588 10.52 17.5188 10.92 17.5188 11.34Z" fill="white"/> <path d="M10.6796 8.48C10.3296 8.48 10.0196 8.24 9.94961 7.89L9.63961 6.41C9.54961 5.96 9.13961 5.64 8.68961 5.64H4.56961C2.92961 5.64 1.59961 4.31 1.59961 2.67V2C1.59961 1.59 1.93961 1.25 2.34961 1.25C2.75961 1.25 3.09961 1.59 3.09961 2V2.67C3.09961 3.48 3.75961 4.14 4.56961 4.14H8.68961C9.84961 4.14 10.8696 4.97 11.1096 6.1L11.4196 7.58C11.5096 7.99 11.2496 8.38 10.8396 8.47C10.7896 8.48 10.7396 8.49 10.6796 8.49V8.48Z" fill="white"/> <path d="M6.50926 5.64C5.25926 5.64 4.23926 4.62 4.23926 3.37V2.69C4.23926 2.28 4.57926 1.94 4.98926 1.94C5.39926 1.94 5.73926 2.28 5.73926 2.69V3.37C5.73926 3.8 6.08926 4.14 6.50926 4.14C6.92926 4.14 7.25926 4.48 7.25926 4.89C7.25926 5.3 6.91926 5.64 6.50926 5.64Z" fill="white"/> <path d="M8.62937 5.64C7.37937 5.64 6.35938 4.62 6.35938 3.37V2.69C6.35938 2.28 6.69938 1.94 7.10938 1.94C7.51937 1.94 7.85938 2.28 7.85938 2.69V3.37C7.85938 3.8 8.20938 4.14 8.62937 4.14C9.04938 4.14 9.37937 4.48 9.37937 4.89C9.37937 5.3 9.03938 5.64 8.62937 5.64Z" fill="white"/> <path d="M13.3193 8.48001C13.2693 8.48001 13.2193 8.48001 13.1593 8.46001C12.7493 8.38001 12.4993 7.98001 12.5793 7.57001L12.8893 6.09001C13.1293 4.95001 14.1493 4.13001 15.3093 4.13001H19.4293C20.2393 4.13001 20.8993 3.47001 20.8993 2.66001V1.99001C20.8993 1.58001 21.2393 1.24001 21.6493 1.24001C22.0593 1.24001 22.3993 1.58001 22.3993 1.99001V2.66001C22.3993 4.30001 21.0693 5.63001 19.4293 5.63001H15.3093C14.8493 5.63001 14.4493 5.96001 14.3593 6.40001L14.0493 7.88001C13.9793 8.23001 13.6593 8.47001 13.3193 8.47001V8.48001Z" fill="white"/> <path d="M17.4893 5.64C17.0793 5.64 16.7393 5.3 16.7393 4.89C16.7393 4.48 17.0793 4.14 17.4893 4.14C17.8993 4.14 18.2593 3.79 18.2593 3.37V2.69C18.2593 2.28 18.5993 1.94 19.0093 1.94C19.4193 1.94 19.7593 2.28 19.7593 2.69V3.37C19.7593 4.62 18.7393 5.64 17.4893 5.64Z" fill="white"/> <path d="M15.3691 5.64C14.9591 5.64 14.6191 5.3 14.6191 4.89C14.6191 4.48 14.9591 4.14 15.3691 4.14C15.7791 4.14 16.1391 3.79 16.1391 3.37V2.69C16.1391 2.28 16.4791 1.94 16.8891 1.94C17.2991 1.94 17.6391 2.28 17.6391 2.69V3.37C17.6391 4.62 16.6191 5.64 15.3691 5.64Z" fill="white"/> <path d="M12.76 21.17V21.86C12.76 22.27 12.42 22.61 12.01 22.61C11.6 22.61 11.26 22.27 11.26 21.86V19.47L11.25 18.98C11.25 18.57 11.59 18.23 12 18.23C12.41 18.23 12.75 18.57 12.75 18.98V21.17H12.76Z" fill="white"/> </g> <defs> <clipPath id="clip0_655_9483"> <rect width="24" height="24" fill="white"/> </clipPath> </defs> </svg>
