<svg width="24" height="24" viewBox="0 0 24 24" fill="none" xmlns="http://www.w3.org/2000/svg"> <path d="M17.4201 4.41043H5.39008L7.27008 2.53043C7.56008 2.24043 7.56008 1.76043 7.27008 1.47043C6.98008 1.18043 6.50008 1.18043 6.21008 1.47043L3.05008 4.63043C2.98008 4.70043 2.93008 4.78043 2.89008 4.87043C2.85008 4.96043 2.83008 5.06043 2.83008 5.16043C2.83008 5.26043 2.85008 5.36043 2.89008 5.45043C2.93008 5.54043 2.98008 5.62043 3.05008 5.69043L6.21008 8.85043C6.36008 9.00043 6.55008 9.07043 6.74008 9.07043C6.93008 9.07043 7.12008 9.00043 7.27008 8.85043C7.56008 8.56043 7.56008 8.08043 7.27008 7.79043L5.39008 5.91043H17.4201C18.6601 5.91043 19.6701 6.92043 19.6701 8.16043V11.4804C19.6701 11.8904 20.0101 12.2304 20.4201 12.2304C20.8301 12.2304 21.1701 11.8904 21.1701 11.4804V8.16043C21.1701 6.09043 19.4901 4.41043 17.4201 4.41043Z" fill="white"/> <path d="M21.1701 18.8395C21.1701 18.7395 21.1501 18.6395 21.1101 18.5495C21.0701 18.4595 21.0201 18.3795 20.9501 18.3095L17.7901 15.1495C17.5001 14.8595 17.0201 14.8595 16.7301 15.1495C16.4401 15.4395 16.4401 15.9195 16.7301 16.2095L18.6101 18.0895H6.58008C5.34008 18.0895 4.33008 17.0795 4.33008 15.8395V12.5195C4.33008 12.1095 3.99008 11.7695 3.58008 11.7695C3.17008 11.7695 2.83008 12.1095 2.83008 12.5195V15.8395C2.83008 17.9095 4.51008 19.5895 6.58008 19.5895H18.6101L16.7301 21.4695C16.4401 21.7595 16.4401 22.2395 16.7301 22.5295C16.8801 22.6795 17.0701 22.7495 17.2601 22.7495C17.4501 22.7495 17.6401 22.6795 17.7901 22.5295L20.9501 19.3695C21.0201 19.2995 21.0701 19.2195 21.1101 19.1295C21.1501 19.0395 21.1701 18.9395 21.1701 18.8395Z" fill="white"/> </svg>
