<svg width="24" height="24" viewBox="0 0 24 24" fill="none" xmlns="http://www.w3.org/2000/svg"> <g clip-path="url(#clip0_4418_8238)"> <path d="M11.9997 19.75H9.3197C8.1597 19.75 7.1497 19.05 6.7497 17.97C6.3397 16.89 6.6397 15.7 7.5097 14.93L15.4997 7.94C15.9797 7.52 15.9897 6.95 15.8497 6.56C15.6997 6.17 15.3197 5.75 14.6797 5.75H11.9997C11.5897 5.75 11.2497 5.41 11.2497 5C11.2497 4.59 11.5897 4.25 11.9997 4.25H14.6797C15.8397 4.25 16.8497 4.95 17.2497 6.03C17.6597 7.11 17.3597 8.3 16.4897 9.07L8.4997 16.06C8.0197 16.48 8.0097 17.05 8.1497 17.44C8.2997 17.83 8.6797 18.25 9.3197 18.25H11.9997C12.4097 18.25 12.7497 18.59 12.7497 19C12.7497 19.41 12.4097 19.75 11.9997 19.75Z" fill="white"/> <path d="M19.9998 15H16.9998C15.8998 15 14.9998 15.9 14.9998 17V20C14.9998 21.1 15.8998 22 16.9998 22H19.9998C21.0998 22 21.9998 21.1 21.9998 20V17C21.9998 15.9 21.0998 15 19.9998 15ZM18.5098 19.5C17.9598 19.5 17.5098 19.05 17.5098 18.5C17.5098 17.95 17.9498 17.5 18.5098 17.5H18.5198C19.0698 17.5 19.5198 17.95 19.5198 18.5C19.5198 19.05 19.0698 19.5 18.5098 19.5Z" fill="white"/> <path d="M5.46973 2C3.53973 2 1.96973 3.57 1.96973 5.5C1.96973 7.43 3.53973 9 5.46973 9C7.39973 9 8.96973 7.43 8.96973 5.5C8.96973 3.57 7.40973 2 5.46973 2ZM5.50973 6.5C4.95973 6.5 4.50973 6.05 4.50973 5.5C4.50973 4.95 4.94973 4.5 5.50973 4.5H5.51973C6.06973 4.5 6.51973 4.95 6.51973 5.5C6.51973 6.05 6.06973 6.5 5.50973 6.5Z" fill="white"/> </g> <defs> <clipPath id="clip0_4418_8238"> <rect width="24" height="24" fill="white" transform="translate(0.000976562)"/> </clipPath> </defs> </svg>
