<svg width="24" height="24" viewBox="0 0 24 24" fill="none" xmlns="http://www.w3.org/2000/svg"> <g clip-path="url(#clip0_3186_7151)"> <path d="M22.3101 19.02C22.0501 18.29 21.3201 17.78 20.3201 17.63C19.5401 17.5 18.8201 17.72 18.3301 18.21C17.8401 18.71 17.6301 19.44 17.7601 20.23C18.0101 21.72 18.8101 22.16 19.2601 22.29C19.3901 22.33 19.5501 22.36 19.7501 22.36C20.2401 22.36 20.9101 22.16 21.6401 21.36C22.3201 20.61 22.5701 19.75 22.3101 19.02Z" fill="white"/> <path d="M10.6101 1.63989C5.6401 1.63989 1.6001 5.66989 1.6001 10.6499C1.6001 15.6299 5.6301 19.6599 10.6101 19.6599C15.5901 19.6599 19.6201 15.6299 19.6201 10.6499C19.6201 5.66989 15.5901 1.63989 10.6101 1.63989ZM13.7901 10.9099C13.2301 12.6999 11.2801 13.6599 10.6101 13.6599C9.9401 13.6599 8.0101 12.7199 7.4301 10.9099C7.0501 9.72989 7.4801 8.17989 8.8401 7.73989C9.4701 7.53989 10.1201 7.65989 10.6101 8.02989C11.0901 7.65989 11.7601 7.53989 12.3901 7.73989C13.7501 8.17989 14.1801 9.72989 13.7901 10.9099Z" fill="white"/> </g> <defs> <clipPath id="clip0_3186_7151"> <rect width="24" height="24" fill="white"/> </clipPath> </defs> </svg>
