<svg width="24" height="24" viewBox="0 0 24 24" fill="none" xmlns="http://www.w3.org/2000/svg"> <g clip-path="url(#clip0_4418_8749)"> <path d="M12 8.25C10.21 8.25 8.75 9.71 8.75 11.5C8.75 13.29 10.21 14.75 12 14.75C13.79 14.75 15.25 13.29 15.25 11.5C15.25 9.71 13.79 8.25 12 8.25ZM13 11.18C13 11.79 12.67 12.37 12.15 12.68L11.38 13.14C11.26 13.21 11.13 13.25 10.99 13.25C10.74 13.25 10.49 13.12 10.35 12.89C10.14 12.53 10.25 12.07 10.61 11.86L11.37 11.4C11.45 11.35 11.49 11.27 11.49 11.19V10.26C11.49 9.85 11.83 9.51 12.24 9.51C12.65 9.51 13 9.84 13 10.25V11.18Z" fill="white"/> <path d="M18.54 4.17063L13.04 2.11062C12.47 1.90063 11.54 1.90063 10.97 2.11062L5.47005 4.17063C4.41005 4.57063 3.55005 5.81063 3.55005 6.94063V15.0406C3.55005 15.8506 4.08005 16.9206 4.73005 17.4006L10.23 21.5106C11.2 22.2406 12.79 22.2406 13.76 21.5106L19.26 17.4006C19.91 16.9106 20.4401 15.8506 20.4401 15.0406V6.94063C20.4501 5.81063 19.59 4.57063 18.54 4.17063ZM12 16.2506C9.38005 16.2506 7.25005 14.1206 7.25005 11.5006C7.25005 8.88062 9.38005 6.75063 12 6.75063C14.62 6.75063 16.75 8.88062 16.75 11.5006C16.75 14.1206 14.62 16.2506 12 16.2506Z" fill="white"/> </g> <defs> <clipPath id="clip0_4418_8749"> <rect width="24" height="24" fill="white"/> </clipPath> </defs> </svg>
