<svg width="24" height="24" viewBox="0 0 24 24" fill="none" xmlns="http://www.w3.org/2000/svg"> <g clip-path="url(#clip0_655_9442)"> <path d="M17.1696 10.9C16.8896 11.18 16.7596 11.58 16.8296 11.97L17.2696 14.49C17.3796 15.12 17.1296 15.75 16.5996 16.12C16.0896 16.5 15.4096 16.54 14.8296 16.24L14.4596 16.05L12.5496 15.05C12.2096 14.87 11.7796 14.87 11.4396 15.05L9.52957 16.05L9.15957 16.24C8.59957 16.54 7.91957 16.5 7.38957 16.12C6.86957 15.74 6.60957 15.12 6.71957 14.49L7.15957 11.97C7.22957 11.58 7.08957 11.18 6.81957 10.9L4.98957 9.11C4.51957 8.68 4.36957 8.01 4.55957 7.4C4.74957 6.8 5.26957 6.36 5.89957 6.27L8.42957 5.9C8.81957 5.84 9.15957 5.6 9.33957 5.24L10.4696 2.93H10.4996C10.7896 2.36 11.3596 2 11.9896 2C12.6196 2 13.2096 2.37 13.4896 2.93L14.6196 5.24C14.7996 5.6 15.1396 5.84 15.5296 5.9L18.0596 6.27C18.6896 6.36 19.2196 6.8 19.3996 7.4C19.5896 8.01 19.4296 8.68 18.9696 9.11L17.1396 10.9H17.1696Z" fill="white"/> <path d="M14.9 22H9.10004C8.34004 22 7.80004 21.26 8.04004 20.54L9.10004 17.34C9.28004 17.29 9.46004 17.22 9.63004 17.13L11.9 15.94C11.96 15.91 12.04 15.92 12.09 15.94L14.37 17.13C14.54 17.22 14.71 17.29 14.89 17.33L15.96 20.54C16.2 21.26 15.66 22 14.9 22Z" fill="white"/> </g> <defs> <clipPath id="clip0_655_9442"> <rect width="24" height="24" fill="white"/> </clipPath> </defs> </svg>
