<svg width="24" height="24" viewBox="0 0 24 24" fill="none" xmlns="http://www.w3.org/2000/svg"> <g clip-path="url(#clip0_655_9456)"> <path d="M19.9999 8.22C19.2199 5 16.4399 2.56 13.1099 2.11C12.7799 2 12.3299 2 11.9999 2C8.88992 2 5.99992 3.78 4.66992 6.44C3.99992 7.67 3.66992 8.89 3.66992 10.33C3.66992 12.67 4.55992 14.67 6.10992 16.22C6.71992 16.74 7.31992 17.19 7.97992 17.57C8.16992 17.68 8.35992 17.79 8.55992 17.89C9.55992 18.44 10.7799 18.67 11.9999 18.67C13.2199 18.67 14.3299 18.44 15.4399 17.89C15.6399 17.8 15.8399 17.7 16.0299 17.58C18.5999 16.15 20.3299 13.44 20.3299 10.33C20.3299 9.56 20.2199 8.89 19.9999 8.22ZM11.9999 15.61C10.1399 15.61 8.63992 14.11 8.63992 12.25C8.63992 11.1106 9.20072 10.1094 10.0597 9.50243C10.2337 9.37951 10.2625 9.11745 10.1275 8.95263C9.79139 8.54193 9.58992 8.02039 9.58992 7.45C9.58992 6.13 10.6699 5.05 11.9899 5.05C13.3099 5.05 14.3899 6.13 14.3899 7.45C14.3899 8.02039 14.1885 8.54193 13.8523 8.95263C13.7174 9.11745 13.7462 9.37951 13.9201 9.50243C14.7791 10.1094 15.3399 11.1106 15.3399 12.25C15.3399 14.11 13.8399 15.61 11.9799 15.61H11.9999Z" fill="white"/> <path d="M16.2401 22H7.77012C7.07012 22 6.59012 21.31 6.83012 20.66L7.45995 18.9468C7.52323 18.7747 7.72462 18.6995 7.88868 18.7814C9.18208 19.4272 10.6268 19.77 12.0801 19.77C13.4527 19.77 14.8339 19.4604 16.096 18.865C16.2554 18.7898 16.4473 18.8605 16.5138 19.0237L17.1801 20.66C17.4201 21.31 16.9301 22 16.2401 22Z" fill="white"/> </g> <defs> <clipPath id="clip0_655_9456"> <rect width="24" height="24" fill="white"/> </clipPath> </defs> </svg>
