<svg width="24" height="24" viewBox="0 0 24 24" fill="none" xmlns="http://www.w3.org/2000/svg"> <g clip-path="url(#clip0_4418_8563)"> <path d="M16.1701 10.0603H7.83007C6.65007 10.0603 6.24007 9.27031 6.93007 8.31031L11.1001 2.47031C11.5901 1.77031 12.4101 1.77031 12.9001 2.47031L17.0701 8.31031C17.7601 9.27031 17.3501 10.0603 16.1701 10.0603Z" fill="white"/> <path d="M17.5901 18.0005H6.41009C4.83009 18.0005 4.29009 16.9505 5.22009 15.6705L9.21009 10.0605H14.7901L18.7801 15.6705C19.7101 16.9505 19.1701 18.0005 17.5901 18.0005Z" fill="white"/> <path d="M12.75 18V22C12.75 22.41 12.41 22.75 12 22.75C11.59 22.75 11.25 22.41 11.25 22V18H12.75Z" fill="white"/> </g> <defs> <clipPath id="clip0_4418_8563"> <rect width="24" height="24" fill="white"/> </clipPath> </defs> </svg>
