<svg width="24" height="24" viewBox="0 0 24 24" fill="none" xmlns="http://www.w3.org/2000/svg"> <g clip-path="url(#clip0_4482_14828)"> <path d="M5.89014 2V16.44" stroke="white" stroke-width="1.5" stroke-linecap="round" stroke-linejoin="round"/> <path d="M18.1101 7.56C19.6454 7.56 20.8901 6.31535 20.8901 4.78C20.8901 3.24465 19.6454 2 18.1101 2C16.5747 2 15.3301 3.24465 15.3301 4.78C15.3301 6.31535 16.5747 7.56 18.1101 7.56Z" stroke="white" stroke-width="1.5" stroke-linecap="round" stroke-linejoin="round"/> <path d="M5.88986 22.0004C7.42521 22.0004 8.66986 20.7558 8.66986 19.2204C8.66986 17.6851 7.42521 16.4404 5.88986 16.4404C4.35451 16.4404 3.10986 17.6851 3.10986 19.2204C3.10986 20.7558 4.35451 22.0004 5.88986 22.0004Z" stroke="white" stroke-width="1.5" stroke-linecap="round" stroke-linejoin="round"/> <path d="M18.1099 7.55957V13.9996C18.1099 16.7596 15.8699 18.9996 13.1099 18.9996H8.66992" stroke="white" stroke-width="1.5" stroke-linecap="round" stroke-linejoin="round"/> </g> <defs> <clipPath id="clip0_4482_14828"> <rect width="24" height="24" fill="white"/> </clipPath> </defs> </svg>
