<svg width="24" height="24" viewBox="0 0 24 24" fill="none" xmlns="http://www.w3.org/2000/svg"> <g clip-path="url(#clip0_4482_14831)"> <path d="M22.0001 13.8496H10.8901" stroke="white" stroke-width="1.5" stroke-linecap="round" stroke-linejoin="round"/> <path d="M22.0001 10H10.8901" stroke="white" stroke-width="1.5" stroke-linecap="round" stroke-linejoin="round"/> <path d="M22.0001 21.4404H10.8901" stroke="white" stroke-width="1.5" stroke-linecap="round" stroke-linejoin="round"/> <path d="M10.8901 17.5996H17.5601" stroke="white" stroke-width="1.5" stroke-linecap="round" stroke-linejoin="round"/> <path d="M10.8901 6.25H22.0001" stroke="white" stroke-width="1.5" stroke-linecap="round" stroke-linejoin="round"/> <path d="M10.8901 3H17.5601" stroke="white" stroke-width="1.5" stroke-linecap="round" stroke-linejoin="round"/> <path d="M4.22 6.99957C5.44607 6.99957 6.44 6.00564 6.44 4.77957C6.44 3.5535 5.44607 2.55957 4.22 2.55957C2.99393 2.55957 2 3.5535 2 4.77957C2 6.00564 2.99393 6.99957 4.22 6.99957Z" stroke="white" stroke-width="1.5" stroke-linecap="round" stroke-linejoin="round"/> <path d="M4.22 14.7798C5.44607 14.7798 6.44 13.7859 6.44 12.5598C6.44 11.3338 5.44607 10.3398 4.22 10.3398C2.99393 10.3398 2 11.3338 2 12.5598C2 13.7859 2.99393 14.7798 4.22 14.7798Z" stroke="white" stroke-width="1.5" stroke-linecap="round" stroke-linejoin="round"/> <path d="M4.22021 7V10.33" stroke="white" stroke-width="1.5" stroke-linecap="round" stroke-linejoin="round"/> <path d="M5.89006 19.2197L3.67006 21.4397L2.56006 20.3297" stroke="white" stroke-width="1.5" stroke-linecap="round" stroke-linejoin="round"/> </g> <defs> <clipPath id="clip0_4482_14831"> <rect width="24" height="24" fill="white"/> </clipPath> </defs> </svg>
