<svg width="24" height="24" viewBox="0 0 24 24" fill="none" xmlns="http://www.w3.org/2000/svg"> <g clip-path="url(#clip0_4482_10983)"> <path d="M6.43994 19.7798H17.5499" stroke="white" stroke-width="1.5" stroke-linecap="round" stroke-linejoin="round"/> <path d="M19.7801 17.5601C21.0101 17.5601 22.0001 18.5501 22.0001 19.7801C22.0001 21.0101 21.0101 22.0001 19.7801 22.0001C18.5501 22.0001 17.5601 21.0101 17.5601 19.7801C17.5601 18.5501 18.5501 17.5601 19.7801 17.5601Z" stroke="white" stroke-width="1.5" stroke-linecap="round" stroke-linejoin="round"/> <path d="M17.5599 4.22021H6.43994" stroke="white" stroke-width="1.5" stroke-linecap="round" stroke-linejoin="round"/> <path d="M17.5601 4.22C17.5601 2.99 18.5501 2 19.7801 2C21.0101 2 22.0001 2.99 22.0001 4.22C22.0001 5.45 21.0101 6.44 19.7801 6.44C18.5501 6.44 17.5601 5.45 17.5601 4.22Z" stroke="white" stroke-width="1.5" stroke-linecap="round" stroke-linejoin="round"/> <path d="M4.22 6.44C2.99 6.44 2 5.45 2 4.22C2 2.99 2.99 2 4.22 2C5.45 2 6.44 2.99 6.44 4.22C6.44 5.45 5.45 6.44 4.22 6.44Z" stroke="white" stroke-width="1.5" stroke-linecap="round" stroke-linejoin="round"/> <path d="M4.22 22.0001C2.99 22.0001 2 21.0101 2 19.7801C2 18.5501 2.99 17.5601 4.22 17.5601C5.45 17.5601 6.44 18.5501 6.44 19.7801C6.44 21.0101 5.45 22.0001 4.22 22.0001Z" stroke="white" stroke-width="1.5" stroke-linecap="round" stroke-linejoin="round"/> <path d="M4.22021 6.43994V17.5499" stroke="white" stroke-width="1.5" stroke-linecap="round" stroke-linejoin="round"/> <path d="M19.7798 17.5599V6.43994" stroke="white" stroke-width="1.5" stroke-linecap="round" stroke-linejoin="round"/> <path d="M9.77979 12H14.2198" stroke="white" stroke-width="1.5" stroke-linecap="round" stroke-linejoin="round"/> <path d="M12 14.2198V9.77979" stroke="white" stroke-width="1.5" stroke-linecap="round" stroke-linejoin="round"/> </g> <defs> <clipPath id="clip0_4482_10983"> <rect width="24" height="24" fill="white"/> </clipPath> </defs> </svg>
