<svg width="24" height="24" viewBox="0 0 24 24" fill="none" xmlns="http://www.w3.org/2000/svg"> <g clip-path="url(#clip0_3111_12228)"> <path d="M9.76 17.89L8.72 18.13C7.98 18.3 7.4 18.88 7.22 19.63L6.98 20.67C6.95 20.78 6.8 20.78 6.77 20.67L6.53 19.63C6.36 18.89 5.78 18.31 5.03 18.13L3.99 17.89C3.88 17.86 3.88 17.71 3.99 17.68L5.03 17.44C5.77 17.27 6.35 16.69 6.53 15.94L6.77 14.9C6.8 14.79 6.95 14.79 6.98 14.9L7.22 15.94C7.39 16.68 7.97 17.26 8.72 17.44L9.76 17.68C9.87 17.71 9.87 17.86 9.76 17.89Z" stroke="white" stroke-width="1.5" stroke-miterlimit="10"/> <path d="M12.25 19.66H19.91V9.7C19.91 5.43 18.82 4.34 14.55 4.34H4.59V12.78" stroke="white" stroke-width="1.5" stroke-linecap="round" stroke-linejoin="round"/> <path d="M4.59 4.34V1.06" stroke="white" stroke-width="1.5" stroke-linecap="round" stroke-linejoin="round"/> <path d="M4.59 4.34H1.31" stroke="white" stroke-width="1.5" stroke-linecap="round" stroke-linejoin="round"/> <path d="M19.91 19.66V22.94" stroke="white" stroke-width="1.5" stroke-linecap="round" stroke-linejoin="round"/> <path d="M19.91 19.66H23.19" stroke="white" stroke-width="1.5" stroke-linecap="round" stroke-linejoin="round"/> </g> <defs> <clipPath id="clip0_3111_12228"> <rect width="24" height="24" fill="white"/> </clipPath> </defs> </svg>
