<svg width="24" height="24" viewBox="0 0 24 24" fill="none" xmlns="http://www.w3.org/2000/svg"> <g clip-path="url(#clip0_3111_12842)"> <path d="M19.15 4.14001L18.28 4.34001C17.66 4.49001 17.17 4.97001 17.03 5.59001L16.83 6.46001C16.81 6.55001 16.68 6.55001 16.65 6.46001L16.45 5.59001C16.3 4.97001 15.82 4.48001 15.2 4.34001L14.33 4.14001C14.24 4.12001 14.24 3.99001 14.33 3.96001L15.2 3.76001C15.82 3.61001 16.31 3.13001 16.45 2.51001L16.65 1.64001C16.67 1.55001 16.8 1.55001 16.83 1.64001L17.03 2.51001C17.18 3.13001 17.66 3.62001 18.28 3.76001L19.15 3.96001C19.24 3.98001 19.24 4.11001 19.15 4.14001Z" stroke="white" stroke-width="1.5" stroke-miterlimit="10"/> <path d="M11.72 2.41998H7.98C7.02 2.41998 6.01 3.18998 5.76 4.11998L3.56 12.2C3.12 13.81 4.12 15.12 5.78 15.12H18.21C19.87 15.12 20.87 13.81 20.44 12.21L19.3 8.01998" stroke="white" stroke-width="1.5" stroke-linecap="round" stroke-linejoin="round"/> <path d="M12 15.42V22.42" stroke="white" stroke-width="1.5" stroke-linecap="round" stroke-linejoin="round"/> <path d="M7.99 22.43H16" stroke="white" stroke-width="1.5" stroke-linecap="round" stroke-linejoin="round"/> </g> <defs> <clipPath id="clip0_3111_12842"> <rect width="24" height="24" fill="white"/> </clipPath> </defs> </svg>
