<svg width="24" height="24" viewBox="0 0 24 24" fill="none" xmlns="http://www.w3.org/2000/svg"> <g clip-path="url(#clip0_3111_11927)"> <path d="M9.35 18.49H13.7" stroke="white" stroke-width="1.5" stroke-linecap="round" stroke-linejoin="round"/> <path d="M18.02 14.16V18.73C18.02 20.39 16.68 21.73 15.02 21.73H8.05C6.39 21.73 5.05 20.39 5.05 18.73V5.27C5.05 3.61 6.39 2.27 8.05 2.27H10.46" stroke="white" stroke-width="1.5" stroke-linecap="round" stroke-linejoin="round"/> <path d="M18.84 6.60001L17.49 6.91001C16.52 7.13001 15.77 7.88001 15.54 8.84001L15.22 10.19C15.19 10.33 14.98 10.33 14.95 10.19L14.64 8.84001C14.42 7.87001 13.67 7.12001 12.71 6.89001L11.36 6.57001C11.22 6.54001 11.22 6.33001 11.36 6.30001L12.71 5.99001C13.68 5.77001 14.43 5.02001 14.66 4.06001L14.98 2.71001C15.01 2.57001 15.22 2.57001 15.25 2.71001L15.56 4.06001C15.78 5.03001 16.53 5.78001 17.49 6.01001L18.84 6.33001C18.98 6.36001 18.98 6.57001 18.84 6.60001Z" stroke="white" stroke-width="1.5" stroke-miterlimit="10"/> </g> <defs> <clipPath id="clip0_3111_11927"> <rect width="24" height="24" fill="white"/> </clipPath> </defs> </svg>
