<svg width="24" height="24" viewBox="0 0 24 24" fill="none" xmlns="http://www.w3.org/2000/svg"> <g clip-path="url(#clip0_3111_11584)"> <path d="M21.74 16.61L20.22 16.97C19.13 17.22 18.29 18.07 18.03 19.16L17.67 20.68C17.63 20.84 17.4 20.84 17.36 20.68L17 19.16C16.75 18.07 15.9 17.23 14.81 16.97L13.29 16.61C13.13 16.57 13.13 16.34 13.29 16.3L14.81 15.94C15.9 15.69 16.74 14.84 17 13.75L17.36 12.23C17.4 12.07 17.63 12.07 17.67 12.23L18.03 13.75C18.28 14.84 19.13 15.68 20.22 15.94L21.74 16.3C21.9 16.34 21.9 16.57 21.74 16.61Z" stroke="white" stroke-width="1.5" stroke-miterlimit="10"/> <path d="M5.81 15.29V16.34" stroke="white" stroke-width="1.5" stroke-linecap="round" stroke-linejoin="round"/> <path d="M8.97 15.29V16.34" stroke="white" stroke-width="1.5" stroke-linecap="round" stroke-linejoin="round"/> <path d="M12.67 7.42H17.95" stroke="white" stroke-width="1.5" stroke-linecap="round" stroke-linejoin="round"/> <path d="M5.82 6.89V7.94" stroke="white" stroke-width="1.5" stroke-linecap="round" stroke-linejoin="round"/> <path d="M8.98 6.89V7.94" stroke="white" stroke-width="1.5" stroke-linecap="round" stroke-linejoin="round"/> <path d="M9.51 11.62H6.35C4.02 11.62 2.14 9.73 2.14 7.41C2.14 5.09 4.03 3.2 6.35 3.2H16.88C19.21 3.2 21.09 5.09 21.09 7.41V9.52" stroke="white" stroke-width="1.5" stroke-linecap="round" stroke-linejoin="round"/> <path d="M9.51 11.62H6.35C4.02 11.62 2.14 13.51 2.14 15.83C2.14 18.15 4.03 20.04 6.35 20.04H9.51" stroke="white" stroke-width="1.5" stroke-linecap="round" stroke-linejoin="round"/> </g> <defs> <clipPath id="clip0_3111_11584"> <rect width="24" height="24" fill="white"/> </clipPath> </defs> </svg>
