<svg width="24" height="24" viewBox="0 0 24 24" fill="none" xmlns="http://www.w3.org/2000/svg"> <g clip-path="url(#clip0_2085_386675)"> <path d="M4.93 21.29C4.5 21.02 4.5 20.35 4.5 19V13.5H3.5C2.67 13.5 2 12.83 2 12C2 11.17 2.67 10.5 3.5 10.5H4.5C4.5 6.36 7.86 3 12 3C16.14 3 19.5 6.36 19.5 10.5H20.5C21.33 10.5 22 11.17 22 12C22 12.83 21.33 13.5 20.5 13.5H19.5V19C19.5 20.35 19.5 21.03 19.07 21.29C18.41 21.69 17.67 21.38 17.13 21.07C17.08 21.04 17.06 21.03 17.03 21.01C17 20.99 16.97 20.96 16.89 20.91C16.51 20.62 15.58 20.01 14.79 20.49C13.84 21.06 12.94 22 12 22C11.06 22 10.17 21.06 9.21 20.49C8.42 20.01 7.49 20.62 7.11 20.91C7.04 20.97 7 20.99 6.97 21.01C6.94 21.03 6.92 21.04 6.87 21.07C6.33 21.38 5.58 21.69 4.93 21.29Z" stroke="white" stroke-width="1.5" stroke-linecap="round" stroke-linejoin="round"/> <path d="M15 10C15 11.66 13.66 13 12 13C10.34 13 9 11.66 9 10C9 8.34 10.34 7 12 7C13.66 7 15 8.34 15 10Z" stroke="white" stroke-width="1.5" stroke-linecap="round" stroke-linejoin="round"/> <path d="M20.5 2C20.33 2.9 19.5 4.76 17.5 5" stroke="white" stroke-width="1.5" stroke-linecap="round" stroke-linejoin="round"/> <path d="M3.5 2C3.67 2.9 4.5 4.76 6.5 5" stroke="white" stroke-width="1.5" stroke-linecap="round" stroke-linejoin="round"/> </g> <defs> <clipPath id="clip0_2085_386675"> <rect width="24" height="24" fill="white"/> </clipPath> </defs> </svg>
