<svg width="24" height="24" viewBox="0 0 24 24" fill="none" xmlns="http://www.w3.org/2000/svg"> <g clip-path="url(#clip0_2085_391106)"> <path d="M14.32 4.5H9.68C7.51 4.5 5.75 6.26 5.75 8.43V19C5.75 20.66 7.09 22 8.75 22H15.25C16.91 22 18.25 20.66 18.25 19V8.43C18.25 6.26 16.49 4.5 14.32 4.5Z" stroke="white" stroke-width="1.41" stroke-linejoin="round"/> <path d="M5.75 14.5V11.96C5.75 9.22 7.97 7 10.71 7H13.28C16.02 7 18.24 9.22 18.24 11.96V14.5" stroke="white" stroke-width="1.41" stroke-linejoin="round"/> <path d="M5.9 10.75H18.1" stroke="white" stroke-width="1.41" stroke-linejoin="round"/> <path d="M8.25 10.75V19.5" stroke="white" stroke-width="1.41" stroke-linejoin="round"/> <path d="M5.75 19.5H18.1" stroke="white" stroke-width="1.41" stroke-linejoin="round"/> <path d="M13.6 2H10.39C9.89 2 9.49 2.4 9.49 2.9V4.5H14.49V2.9C14.49 2.4 14.09 2 13.59 2H13.6Z" stroke="white" stroke-width="1.41" stroke-linejoin="round"/> <path d="M5.08 13.25H5.75V19.5H5.25C4.15 19.5 3.25 18.6 3.25 17.5V15.08C3.25 14.07 4.07 13.25 5.08 13.25Z" stroke="white" stroke-width="1.41" stroke-linejoin="round"/> <path d="M18.92 13.25H18.25V19.5H18.75C19.85 19.5 20.75 18.6 20.75 17.5V15.08C20.75 14.07 19.93 13.25 18.92 13.25Z" stroke="white" stroke-width="1.41" stroke-linejoin="round"/> </g> <defs> <clipPath id="clip0_2085_391106"> <rect width="24" height="24" fill="white"/> </clipPath> </defs> </svg>
