<svg width="24" height="24" viewBox="0 0 24 24" fill="none" xmlns="http://www.w3.org/2000/svg"> <g clip-path="url(#clip0_4482_3833)"> <path d="M12 21.25C17.1086 21.25 21.25 17.1086 21.25 12C21.25 6.89137 17.1086 2.75 12 2.75C6.89137 2.75 2.75 6.89137 2.75 12C2.75 17.1086 6.89137 21.25 12 21.25Z" stroke="white" stroke-width="1.5" stroke-miterlimit="10"/> <path d="M2.77002 11.4102C4.10002 11.9002 6.21003 12.5402 8.91003 12.8302C8.93003 12.8302 8.95998 12.8402 8.97998 12.8402C9.89998 12.9402 10.9 13.0002 11.96 13.0002C13.06 13.0002 14.08 12.9402 15.03 12.8402C15.05 12.8302 15.07 12.8302 15.09 12.8302C17.79 12.5402 19.9 11.9102 21.23 11.4102" stroke="white" stroke-width="1.5" stroke-miterlimit="10" stroke-linecap="round"/> <path d="M5.59998 5.33008C6.54998 5.97008 7.53998 6.96008 8.22998 8.48008C8.32998 8.70008 9.04999 10.3701 8.98999 12.5601C8.98999 12.6501 8.97998 12.7501 8.97998 12.8401C8.92998 13.8001 8.71998 14.8601 8.22998 15.9301C7.58998 17.3101 6.72998 18.2701 5.84998 18.9001" stroke="white" stroke-width="1.5" stroke-miterlimit="10" stroke-linecap="round"/> <path d="M18.1401 18.9103C17.2701 18.2703 16.4001 17.3103 15.7701 15.9403C15.6901 15.7503 15.1701 14.5303 15.0301 12.8403C15.0201 12.7503 15.0201 12.6603 15.0101 12.5703C14.9601 11.3503 15.1101 9.93031 15.7701 8.47031C16.4601 6.96031 17.4401 5.97031 18.3801 5.32031" stroke="white" stroke-width="1.5" stroke-miterlimit="10" stroke-linecap="round"/> </g> <defs> <clipPath id="clip0_4482_3833"> <rect width="24" height="24" fill="white"/> </clipPath> </defs> </svg>
