<svg width="24" height="24" viewBox="0 0 24 24" fill="none" xmlns="http://www.w3.org/2000/svg"> <g clip-path="url(#clip0_4482_4204)"> <path d="M19.19 10H4.80998C3.25998 10 2.14999 11.26 2.32999 12.79L2.73999 16.29C2.87999 17.5 3.99999 18.5 5.21999 18.5H18.77C19.99 18.5 21.11 17.51 21.25 16.29L21.66 12.79C21.85 11.26 20.73 10 19.19 10Z" stroke="white" stroke-width="1.5" stroke-miterlimit="10" stroke-linecap="round" stroke-linejoin="round"/> <path d="M7 20.5V18.5" stroke="white" stroke-width="1.5" stroke-miterlimit="10" stroke-linecap="round" stroke-linejoin="round"/> <path d="M17 20.5V18.5" stroke="white" stroke-width="1.5" stroke-miterlimit="10" stroke-linecap="round" stroke-linejoin="round"/> <path d="M19.5 10H4.5L5.24001 5.2C5.39001 4.22 6.23 3.5 7.22 3.5H16.79C17.78 3.5 18.62 4.22 18.77 5.2L19.5 10Z" stroke="white" stroke-width="1.5" stroke-miterlimit="10" stroke-linecap="round" stroke-linejoin="round"/> <path d="M12 4V5" stroke="white" stroke-width="1.5" stroke-miterlimit="10" stroke-linecap="round" stroke-linejoin="round"/> <path d="M9.5 14.25H14.5" stroke="white" stroke-width="1.5" stroke-miterlimit="10" stroke-linecap="round" stroke-linejoin="round"/> </g> <defs> <clipPath id="clip0_4482_4204"> <rect width="24" height="24" fill="white"/> </clipPath> </defs> </svg>
