<svg width="24" height="24" viewBox="0 0 24 24" fill="none" xmlns="http://www.w3.org/2000/svg"> <g clip-path="url(#clip0_2085_386749)"> <path d="M15.81 12C15.81 14.1 14.1 15.81 12 15.81M15.81 12C15.81 9.9 14.1 8.19 12 8.19M15.81 12H22M12 15.81C9.9 15.81 8.19 14.1 8.19 12M12 15.81V22M12 8.19C9.9 8.19 8.19 9.9 8.19 12M12 8.19V2M8.19 12H2M20.1 12C20.1 16.47 16.48 20.1 12 20.1C7.52 20.1 3.9 16.47 3.9 12C3.9 7.53 7.53 3.9 12 3.9C16.47 3.9 20.1 7.52 20.1 12Z" stroke="white" stroke-width="1.5" stroke-linecap="round" stroke-linejoin="round"/> </g> <defs> <clipPath id="clip0_2085_386749"> <rect width="24" height="24" fill="white"/> </clipPath> </defs> </svg>
