<svg width="24" height="24" viewBox="0 0 24 24" fill="none" xmlns="http://www.w3.org/2000/svg"> <g clip-path="url(#clip0_2085_386957)"> <path d="M9.42998 19.5098H16.98C18.33 19.5098 19.43 20.6098 19.43 21.9598V21.9998H6.97998V21.9598C6.97998 20.6098 8.07998 19.5098 9.42998 19.5098Z" stroke="white" stroke-width="1.5" stroke-linecap="round" stroke-linejoin="round"/> <path d="M11.25 19.5095H15.15V17.0195H11.25V19.5095Z" stroke="white" stroke-width="1.5" stroke-linecap="round" stroke-linejoin="round"/> <path d="M17.56 14.1201V16.0201C17.56 16.5701 17.11 17.0201 16.56 17.0201H9.84C9.29 17.0201 8.84 16.5701 8.84 16.0201V14.1201" stroke="white" stroke-width="1.5" stroke-linecap="round" stroke-linejoin="round"/> <path d="M8.84998 14.0495C8.84998 14.0495 8.84998 14.0095 8.84998 13.9895C8.84998 12.7595 10.8 11.7695 13.21 11.7695C15.62 11.7695 17.57 12.7595 17.57 13.9895V14.0095" stroke="white" stroke-width="1.5" stroke-linecap="round" stroke-linejoin="round"/> <path d="M14.45 2V7.84C14.45 8.52 13.89 9.08 13.21 9.08C12.53 9.08 11.97 8.52 11.97 7.84V4.92C11.96 5.6 11.4 6.15 10.73 6.15C10.12 6.15 9.60999 5.71 9.50999 5.13C9.39999 5.71 8.88999 6.15 8.28999 6.15C7.68999 6.15 7.16999 5.71 7.06999 5.13C6.95999 5.71 6.44999 6.15 5.84999 6.15C5.16999 6.15 4.60999 5.59 4.60999 4.91V2.01" stroke="white" stroke-width="1.5" stroke-linecap="round" stroke-linejoin="round"/> <path d="M7.03998 5.13027V3.78027" stroke="white" stroke-width="1.5" stroke-linecap="round" stroke-linejoin="round"/> <path d="M9.46997 5.13027V3.78027" stroke="white" stroke-width="1.5" stroke-linecap="round" stroke-linejoin="round"/> <path d="M11.96 5.13027V3.78027" stroke="white" stroke-width="1.5" stroke-linecap="round" stroke-linejoin="round"/> </g> <defs> <clipPath id="clip0_2085_386957"> <rect width="24" height="24" fill="white"/> </clipPath> </defs> </svg>
