<svg width="24" height="24" viewBox="0 0 24 24" fill="none" xmlns="http://www.w3.org/2000/svg"> <g clip-path="url(#clip0_4482_402)"> <path d="M22 6V15.5C22 17.7 20.2 19.5 18 19.5H16.23C16.28 19.38 16.32 19.25 16.35 19.12C16.46 18.76 16.5 18.39 16.5 18C16.5 16.76 15.99 15.64 15.17 14.83C14.36 14.01 13.24 13.5 12 13.5C10.76 13.5 9.64 14.01 8.83 14.83C8.01 15.64 7.5 16.76 7.5 18C7.5 18.39 7.55 18.76 7.65 19.12C7.68 19.25 7.72 19.37 7.77 19.5H6C3.8 19.5 2 17.7 2 15.5V6C2 3.8 3.8 2 6 2H18C20.2 2 22 3.8 22 6Z" stroke="white" stroke-width="1.5" stroke-linecap="round" stroke-linejoin="round"/> <path d="M5.99023 5.5H6.00023" stroke="white" stroke-width="1.5" stroke-linecap="round" stroke-linejoin="round"/> <path d="M8.49023 5.5H8.50023" stroke="white" stroke-width="1.5" stroke-linecap="round" stroke-linejoin="round"/> <path d="M10.9902 5.5H11.0002" stroke="white" stroke-width="1.5" stroke-linecap="round" stroke-linejoin="round"/> <path d="M2 8.52979H22" stroke="white" stroke-width="1.5" stroke-linecap="round" stroke-linejoin="round"/> <path d="M16.5 18C16.5 18.39 16.46 18.76 16.35 19.12C16.32 19.25 16.28 19.38 16.23 19.5C16.01 20.14 15.65 20.71 15.17 21.17C14.36 21.99 13.24 22.5 12 22.5C10.06 22.5 8.39 21.24 7.77 19.5C7.72 19.37 7.68 19.25 7.65 19.12C7.55 18.76 7.5 18.39 7.5 18C7.5 16.76 8.01 15.64 8.83 14.83C9.64 14.01 10.76 13.5 12 13.5C13.24 13.5 14.36 14.01 15.17 14.83C15.99 15.64 16.5 16.76 16.5 18Z" stroke="white" stroke-width="1.5" stroke-linecap="round" stroke-linejoin="round"/> <path d="M13 17L11 19" stroke="white" stroke-width="1.5" stroke-linecap="round" stroke-linejoin="round"/> <path d="M11 17L13 19" stroke="white" stroke-width="1.5" stroke-linecap="round" stroke-linejoin="round"/> </g> <defs> <clipPath id="clip0_4482_402"> <rect width="24" height="24" fill="white"/> </clipPath> </defs> </svg>
