<svg width="24" height="24" viewBox="0 0 24 24" fill="none" xmlns="http://www.w3.org/2000/svg"> <g clip-path="url(#clip0_4482_9365)"> <path d="M18.1098 13.1101H5.88978C5.27675 13.1101 4.77979 13.6071 4.77979 14.2201V15.3301C4.77979 15.9431 5.27675 16.4401 5.88978 16.4401H18.1098C18.7228 16.4401 19.2198 15.9431 19.2198 15.3301V14.2201C19.2198 13.6071 18.7228 13.1101 18.1098 13.1101Z" stroke="white" stroke-width="1.5" stroke-linecap="round" stroke-linejoin="round"/> <path d="M17.5597 13.11V4.22C17.5597 2.99 16.5697 2 15.3397 2H8.66971C7.43971 2 6.44971 2.99 6.44971 4.22V13.11" stroke="white" stroke-width="1.5" stroke-linecap="round" stroke-linejoin="round"/> <path d="M17.5596 21.9999V16.4399" stroke="white" stroke-width="1.5" stroke-linecap="round" stroke-linejoin="round"/> <path d="M6.43994 21.9999V16.4399" stroke="white" stroke-width="1.5" stroke-linecap="round" stroke-linejoin="round"/> <path d="M17.5599 7.56006H6.43994" stroke="white" stroke-width="1.5" stroke-linecap="round" stroke-linejoin="round"/> </g> <defs> <clipPath id="clip0_4482_9365"> <rect width="24" height="24" fill="white"/> </clipPath> </defs> </svg>
