<svg width="24" height="24" viewBox="0 0 24 24" fill="none" xmlns="http://www.w3.org/2000/svg"> <g clip-path="url(#clip0_4482_3685)"> <path d="M12.31 16.4098C12.14 16.4698 11.86 16.4698 11.69 16.4098C10.24 15.9098 7 13.8498 7 10.3398C7 8.7998 8.24 7.5498 9.78 7.5498C10.69 7.5498 11.5 7.9898 12 8.6698C12.51 7.9898 13.32 7.5498 14.22 7.5498C15.76 7.5498 17 8.7998 17 10.3398C17 13.8498 13.76 15.9098 12.31 16.4098Z" stroke="white" stroke-width="1.5" stroke-linecap="round" stroke-linejoin="round"/> <path d="M22 15C22 18.87 18.87 22 15 22L16.05 20.25" stroke="white" stroke-width="1.5" stroke-linecap="round" stroke-linejoin="round"/> <path d="M2 9C2 5.13 5.13 2 9 2L7.95001 3.75" stroke="white" stroke-width="1.5" stroke-linecap="round" stroke-linejoin="round"/> </g> <defs> <clipPath id="clip0_4482_3685"> <rect width="24" height="24" fill="white"/> </clipPath> </defs> </svg>
