<svg width="24" height="24" viewBox="0 0 24 24" fill="none" xmlns="http://www.w3.org/2000/svg"> <g clip-path="url(#clip0_2085_391110)"> <path d="M5.78001 4.49023L3.29001 5.73023L2.21001 17.3202C2.10001 18.4902 3.02001 19.5102 4.20001 19.5102H5.78001" stroke="white" stroke-width="1.41" stroke-linecap="round" stroke-linejoin="round"/> <path d="M18.22 19.5102H19.8C20.98 19.5102 21.9 18.5002 21.79 17.3202L20.71 5.73023L18.22 4.49023" stroke="white" stroke-width="1.41" stroke-linecap="round" stroke-linejoin="round"/> <path d="M13.24 14.4905V19.5105C13.24 20.8805 14.35 22.0005 15.73 22.0005H17.22C17.77 22.0005 18.22 21.5505 18.22 21.0005V16.3205C18.22 12.6605 19.07 9.01047 20.71 5.73047" stroke="white" stroke-width="1.41" stroke-linecap="round" stroke-linejoin="round"/> <path d="M10.76 14.4905V19.5105C10.76 20.8805 9.65001 22.0005 8.27001 22.0005H6.78001C6.23001 22.0005 5.78001 21.5505 5.78001 21.0005V16.3205C5.78001 12.6605 4.93001 9.01047 3.29001 5.73047" stroke="white" stroke-width="1.41" stroke-linecap="round" stroke-linejoin="round"/> <path d="M9.76001 4.49023H14.24" stroke="white" stroke-width="1.41" stroke-linecap="round" stroke-linejoin="round"/> <path d="M10.42 20.7598H13.58" stroke="white" stroke-width="1.41" stroke-linecap="round" stroke-linejoin="round"/> <path d="M15.73 16.9805H18.22" stroke="white" stroke-width="1.41" stroke-linecap="round" stroke-linejoin="round"/> <path d="M5.77002 16.9805H8.26002" stroke="white" stroke-width="1.41" stroke-linecap="round" stroke-linejoin="round"/> <path d="M13.24 14.49L14.48 2C15.99 2 17.85 3.03 18.21 4.49L16.34 5.73L16.96 6.97L13.23 14.48L13.24 14.49Z" stroke="white" stroke-width="1.41" stroke-linecap="round" stroke-linejoin="round"/> <path d="M10.76 14.49L9.52001 2C8.01001 2 6.15001 3.03 5.79001 4.49L7.66001 5.73L7.04001 6.97L10.77 14.48L10.76 14.49Z" stroke="white" stroke-width="1.41" stroke-linecap="round" stroke-linejoin="round"/> <path d="M9.51001 2H14.49" stroke="white" stroke-width="1.41" stroke-linecap="round" stroke-linejoin="round"/> </g> <defs> <clipPath id="clip0_2085_391110"> <rect width="24" height="24" fill="white"/> </clipPath> </defs> </svg>
