<svg width="24" height="24" viewBox="0 0 24 24" fill="none" xmlns="http://www.w3.org/2000/svg"> <g clip-path="url(#clip0_4482_13019)"> <path d="M12 5.72004V4.79004" stroke="white" stroke-width="1.5" stroke-linecap="round" stroke-linejoin="round"/> <path d="M12 11.2803V12.2103" stroke="white" stroke-width="1.5" stroke-linecap="round" stroke-linejoin="round"/> <path d="M10.3901 10.6097C10.6301 11.0097 11.0401 11.2797 11.5401 11.2797H12.5501C13.2701 11.2797 13.8501 10.6897 13.8501 9.97973C13.8501 9.38973 13.4501 8.85973 12.8601 8.71973L11.1201 8.27973C10.5401 8.12973 10.1401 7.60973 10.1401 7.01973C10.1401 6.29973 10.7301 5.71973 11.4401 5.71973H12.4501C12.9401 5.71973 13.3601 5.98973 13.6001 6.37973" stroke="white" stroke-width="1.5" stroke-linecap="round" stroke-linejoin="round"/> <path d="M18.5 8.5C18.5 8.57 18.5 8.66 18.5 8.73C18.43 10.85 17.35 12.7 15.71 13.84C14.66 14.57 13.39 15 12.01 15C10.63 15 9.35002 14.57 8.31002 13.84C6.68002 12.71 5.59002 10.85 5.52002 8.73C5.52002 8.66 5.52002 8.57 5.52002 8.5C5.52002 4.91 8.43002 2 12.02 2C15.61 2 18.52 4.91 18.52 8.5H18.5Z" stroke="white" stroke-width="1.5" stroke-linecap="round" stroke-linejoin="round"/> <path d="M10.3799 19.62L11.9999 18L13.6199 19.63" stroke="white" stroke-width="1.5" stroke-linecap="round" stroke-linejoin="round"/> <path d="M12 21.62V19" stroke="white" stroke-width="1.5" stroke-linecap="round" stroke-linejoin="round"/> </g> <defs> <clipPath id="clip0_4482_13019"> <rect width="24" height="24" fill="white"/> </clipPath> </defs> </svg>
