<svg width="24" height="24" viewBox="0 0 24 24" fill="none" xmlns="http://www.w3.org/2000/svg"> <g clip-path="url(#clip0_2085_391209)"> <path d="M19.3 10.0605V19.7605C19.3 20.7705 18.48 21.5905 17.47 21.5905H6.53001C5.52001 21.5905 4.70001 20.7705 4.70001 19.7605V10.0605H19.3Z" stroke="white" stroke-width="1.5" stroke-linecap="round" stroke-linejoin="round"/> <path d="M19.08 7.62094H4.92001C5.81001 5.79094 8.64001 4.46094 12 4.46094C15.36 4.46094 18.19 5.79094 19.08 7.62094Z" stroke="white" stroke-width="1.5" stroke-linecap="round" stroke-linejoin="round"/> <path d="M19.14 7.62109H4.85999C4.3077 7.62109 3.85999 8.06881 3.85999 8.62109V9.06109C3.85999 9.61338 4.3077 10.0611 4.85999 10.0611H19.14C19.6923 10.0611 20.14 9.61338 20.14 9.06109V8.62109C20.14 8.06881 19.6923 7.62109 19.14 7.62109Z" stroke="white" stroke-width="1.5" stroke-linecap="round" stroke-linejoin="round"/> <path d="M19.3 12.4902H22" stroke="white" stroke-width="1.5" stroke-linecap="round" stroke-linejoin="round"/> <path d="M2 12.4902H4.7" stroke="white" stroke-width="1.5" stroke-linecap="round" stroke-linejoin="round"/> <path d="M10.85 4.46016V3.41016C10.85 2.86016 11.3 2.41016 11.85 2.41016H12.16C12.71 2.41016 13.16 2.86016 13.16 3.41016V4.46016" stroke="white" stroke-width="1.5" stroke-linecap="round" stroke-linejoin="round"/> </g> <defs> <clipPath id="clip0_2085_391209"> <rect width="24" height="24" fill="white"/> </clipPath> </defs> </svg>
