<svg width="24" height="24" viewBox="0 0 24 24" fill="none" xmlns="http://www.w3.org/2000/svg"> <g clip-path="url(#clip0_4482_8644)"> <path d="M5 20.49L9 16.49" stroke="white" stroke-width="1.5" stroke-linecap="round" stroke-linejoin="round"/> <path d="M18.78 10.71L13.58 15.91C13.21 16.28 12.7 16.5 12.17 16.5H9V13.33C9 12.8 9.21 12.29 9.59 11.92L14.79 6.71997" stroke="white" stroke-width="1.5" stroke-linecap="round" stroke-linejoin="round"/> <path d="M11 10.5L15 14.5" stroke="white" stroke-width="1.5" stroke-linecap="round" stroke-linejoin="round"/> <path d="M14.7802 3.92994C15.3502 3.35994 16.2702 3.35994 16.8402 3.92994L21.5602 8.64994C22.1302 9.21994 22.1302 10.1399 21.5602 10.7099L21.2002 11.0699C20.6302 11.6399 19.7102 11.6399 19.1402 11.0699L14.4202 6.34994C13.8502 5.77994 13.8502 4.85994 14.4202 4.28994L14.7802 3.92994Z" stroke="white" stroke-width="1.5" stroke-linecap="round" stroke-linejoin="round"/> <path d="M9.99996 7.49996L9.20996 6.70996" stroke="white" stroke-width="1.5" stroke-linecap="round" stroke-linejoin="round"/> <path d="M5.21973 10.71L6.50973 12" stroke="white" stroke-width="1.5" stroke-linecap="round" stroke-linejoin="round"/> <path d="M9.56994 4.28994C10.1399 4.85994 10.1399 5.77994 9.56994 6.34994L4.84994 11.0699C4.27994 11.6399 3.35994 11.6399 2.78994 11.0699L2.42994 10.7099C1.85994 10.1399 1.85994 9.21994 2.42994 8.64994L7.14994 3.92994C7.71994 3.35994 8.63994 3.35994 9.20994 3.92994L9.56994 4.28994Z" stroke="white" stroke-width="1.5" stroke-linecap="round" stroke-linejoin="round"/> <path d="M19 20.49L16 17.49" stroke="white" stroke-width="1.5" stroke-linecap="round" stroke-linejoin="round"/> </g> <defs> <clipPath id="clip0_4482_8644"> <rect width="24" height="24" fill="white"/> </clipPath> </defs> </svg>
