<svg width="24" height="24" viewBox="0 0 24 24" fill="none" xmlns="http://www.w3.org/2000/svg"> <g clip-path="url(#clip0_4482_3837)"> <path d="M10.97 17.0999C13.2399 17.0999 15.08 15.2598 15.08 12.9899C15.08 10.72 13.2399 8.87988 10.97 8.87988C8.70008 8.87988 6.85999 10.72 6.85999 12.9899C6.85999 15.2598 8.70008 17.0999 10.97 17.0999Z" stroke="white" stroke-width="1.5" stroke-miterlimit="10" stroke-linecap="round"/> <path d="M18.65 10.0603C19 10.9703 19.1899 11.9603 19.1899 13.0003C19.1899 17.5403 15.51 21.2203 10.97 21.2203C6.42997 21.2203 2.75 17.5403 2.75 13.0003C2.75 8.46027 6.42997 4.78027 10.97 4.78027C12 4.78027 12.99 4.97027 13.91 5.32027" stroke="white" stroke-width="1.5" stroke-miterlimit="10" stroke-linecap="round"/> <path d="M18.13 5.83008L10.97 12.9901" stroke="white" stroke-width="1.5" stroke-miterlimit="10" stroke-linecap="round"/> <path d="M21.25 5.87027H18.17V2.78027" stroke="white" stroke-width="1.5" stroke-miterlimit="10" stroke-linecap="round"/> </g> <defs> <clipPath id="clip0_4482_3837"> <rect width="24" height="24" fill="white"/> </clipPath> </defs> </svg>
