<svg width="24" height="24" viewBox="0 0 24 24" fill="none" xmlns="http://www.w3.org/2000/svg"> <g clip-path="url(#clip0_2085_391002)"> <path d="M19.36 22.0003H4.42V15.5303C4.42 14.9803 4.87 14.5303 5.42 14.5303H18.36C18.91 14.5303 19.36 14.9803 19.36 15.5303V22.0003Z" stroke="white" stroke-width="1.41" stroke-linecap="round" stroke-linejoin="round"/> <path d="M20.65 22H3.14" stroke="white" stroke-width="1.41" stroke-linecap="round" stroke-linejoin="round"/> <path d="M9.4 4.49023V7.06023C9.4 8.43023 10.51 9.55023 11.89 9.55023C13.27 9.55023 14.38 8.44023 14.38 7.06023" stroke="white" stroke-width="1.41" stroke-linecap="round" stroke-linejoin="round"/> <path d="M10.65 9.21973V10.7997H8.16C6.79 10.7997 5.67 11.9097 5.67 13.2897V14.5297" stroke="white" stroke-width="1.41" stroke-linecap="round" stroke-linejoin="round"/> <path d="M18.11 14.5297V13.2897C18.11 11.9197 17 10.7997 15.62 10.7997H13.13V9.21973" stroke="white" stroke-width="1.41" stroke-linecap="round" stroke-linejoin="round"/> <path d="M14.38 7.06V3.24C14.38 2.55 13.82 2 13.14 2H8.16" stroke="white" stroke-width="1.41" stroke-linecap="round" stroke-linejoin="round"/> <path d="M14.38 4.49023H9.4" stroke="white" stroke-width="1.41" stroke-linecap="round" stroke-linejoin="round"/> <path d="M8.16 2V3.24C8.16 3.93 8.72 4.48 9.4 4.48" stroke="white" stroke-width="1.41" stroke-linecap="round" stroke-linejoin="round"/> <path d="M13.14 10.7998C13.14 11.4898 12.58 12.0398 11.9 12.0398C11.22 12.0398 10.66 11.4798 10.66 10.7998" stroke="white" stroke-width="1.41" stroke-linecap="round" stroke-linejoin="round"/> <path d="M9.4 17.0195L8.16 18.2595" stroke="white" stroke-width="1.41" stroke-linecap="round" stroke-linejoin="round"/> <path d="M8.16 18.2695L9.4 19.5095" stroke="white" stroke-width="1.41" stroke-linecap="round" stroke-linejoin="round"/> <path d="M14.38 17.0195L15.62 18.2595" stroke="white" stroke-width="1.41" stroke-linecap="round" stroke-linejoin="round"/> <path d="M15.63 18.2695L14.39 19.5095" stroke="white" stroke-width="1.41" stroke-linecap="round" stroke-linejoin="round"/> <path d="M12.24 16.29L11.51 20.17" stroke="white" stroke-width="1.41" stroke-linecap="round" stroke-linejoin="round"/> </g> <defs> <clipPath id="clip0_2085_391002"> <rect width="24" height="24" fill="white"/> </clipPath> </defs> </svg>
