<svg width="24" height="24" viewBox="0 0 24 24" fill="none" xmlns="http://www.w3.org/2000/svg"> <g clip-path="url(#clip0_4482_3668)"> <path d="M18.24 11.8801H15.97C15.81 11.8801 15.67 11.9701 15.59 12.1201L14.39 14.5101C14.24 14.8201 13.79 14.8201 13.64 14.5101L11 9.23006C10.85 8.93006 10.42 8.92006 10.25 9.22006L8.92999 11.6601C8.85999 11.8001 8.72 11.8801 8.56 11.8801H8.09998H6" stroke="white" stroke-width="1.5" stroke-linecap="round" stroke-linejoin="round"/> <path d="M19 8C20.6569 8 22 6.65685 22 5C22 3.34315 20.6569 2 19 2C17.3431 2 16 3.34315 16 5C16 6.65685 17.3431 8 19 8Z" stroke="white" stroke-width="1.5" stroke-linecap="round" stroke-linejoin="round"/> <path d="M14.02 2.2C13.36 2.07 12.69 2 12 2C6.48 2 2 6.48 2 12C2 17.52 6.48 22 12 22C17.52 22 22 17.52 22 12C22 11.32 21.93 10.65 21.8 10.01" stroke="white" stroke-width="1.5" stroke-linecap="round" stroke-linejoin="round"/> </g> <defs> <clipPath id="clip0_4482_3668"> <rect width="24" height="24" fill="white"/> </clipPath> </defs> </svg>
