<svg width="24" height="24" viewBox="0 0 24 24" fill="none" xmlns="http://www.w3.org/2000/svg"> <g clip-path="url(#clip0_2085_390336)"> <path d="M8.05 10.49C8.14 10.06 8.75 10.06 8.84 10.49C9.38 13.11 11.42 15.16 14.04 15.69C14.47 15.78 14.47 16.39 14.04 16.47C11.42 17.01 9.37 19.05 8.84 21.67C8.75 22.1 8.14 22.1 8.05 21.67C7.51 19.05 5.47 17 2.85 16.47C2.42 16.38 2.42 15.77 2.85 15.69C5.47 15.15 7.52 13.11 8.05 10.49Z" stroke="white" stroke-width="1.5" stroke-linecap="round" stroke-linejoin="round"/> <path d="M18.27 7.29995C18.27 7.29995 18.32 7.26995 18.33 7.29995C18.65 8.86995 19.88 10.1 21.45 10.42C21.48 10.42 21.48 10.47 21.45 10.48C19.88 10.8 18.65 12.03 18.33 13.6C18.33 13.63 18.28 13.63 18.27 13.6C17.95 12.03 16.72 10.8 15.15 10.48C15.12 10.48 15.12 10.43 15.15 10.42C16.72 10.1 17.95 8.86995 18.27 7.29995Z" stroke="white" stroke-width="1.5" stroke-linecap="round" stroke-linejoin="round"/> <path d="M11.7 2.02017C11.7 2.02017 11.74 1.99017 11.75 2.02017C12.04 3.42017 13.13 4.51017 14.52 4.79017C14.55 4.79017 14.55 4.83017 14.52 4.84017C13.12 5.13017 12.03 6.22017 11.75 7.61017C11.75 7.64017 11.71 7.64017 11.7 7.61017C11.41 6.21017 10.32 5.12017 8.93 4.84017C8.9 4.84017 8.9 4.80017 8.93 4.79017C10.33 4.50017 11.42 3.41017 11.7 2.02017Z" stroke="white" stroke-width="1.5" stroke-linecap="round" stroke-linejoin="round"/> </g> <defs> <clipPath id="clip0_2085_390336"> <rect width="24" height="24" fill="white"/> </clipPath> </defs> </svg>
