<svg width="24" height="24" viewBox="0 0 24 24" fill="none" xmlns="http://www.w3.org/2000/svg"> <g clip-path="url(#clip0_4482_3830)"> <path d="M12 21.5003C15.7887 21.5003 18.86 18.4289 18.86 14.6403C18.86 10.8516 15.7887 7.78027 12 7.78027C8.21133 7.78027 5.14001 10.8516 5.14001 14.6403C5.14001 18.4289 8.21133 21.5003 12 21.5003Z" stroke="white" stroke-width="1.5" stroke-miterlimit="10"/> <path d="M14.64 14.6396C14.64 16.0996 13.46 17.2796 12 17.2796" stroke="white" stroke-width="1.5" stroke-miterlimit="10" stroke-linecap="round"/> <path d="M6.78003 10.18C6.10003 9.6 5.67004 8.73 5.67004 7.77V5.67C5.67004 3.92 7.07997 2.5 8.83997 2.5H15.17C16.92 2.5 18.34 3.91 18.34 5.67V7.78C18.34 8.74 17.91 9.61 17.23 10.19" stroke="white" stroke-width="1.5" stroke-miterlimit="10"/> </g> <defs> <clipPath id="clip0_4482_3830"> <rect width="24" height="24" fill="white"/> </clipPath> </defs> </svg>
