<svg width="24" height="24" viewBox="0 0 24 24" fill="none" xmlns="http://www.w3.org/2000/svg"> <g clip-path="url(#clip0_4482_15630)"> <path d="M12.2398 15.97C12.0998 16.01 11.8798 16.01 11.7598 15.97C10.6098 15.58 8.06982 13.95 8.06982 11.2C8.06982 9.98 9.04982 9 10.2598 9C10.9698 9 11.6198 9.35 11.9998 9.88C12.3998 9.34 13.0398 9 13.7398 9C14.9498 9 15.9298 9.99 15.9298 11.2C15.9398 13.95 13.3898 15.58 12.2398 15.97Z" stroke="white" stroke-width="1.5" stroke-linecap="round" stroke-linejoin="round"/> <path d="M12 22C17.5228 22 22 17.5228 22 12C22 6.47715 17.5228 2 12 2C6.47715 2 2 6.47715 2 12C2 17.5228 6.47715 22 12 22Z" stroke="white" stroke-width="1.5" stroke-linecap="round" stroke-linejoin="round"/> </g> <defs> <clipPath id="clip0_4482_15630"> <rect width="24" height="24" fill="white"/> </clipPath> </defs> </svg>
