<svg width="24" height="24" viewBox="0 0 24 24" fill="none" xmlns="http://www.w3.org/2000/svg"> <g clip-path="url(#clip0_2085_382525)"> <path d="M9.41002 19.5098H1.90002V21.9998H21.9V19.5098H14.39" stroke="white" stroke-width="1.5" stroke-linecap="round" stroke-linejoin="round"/> <path d="M4.44 19.5095V17.0195H19.38V19.5095" stroke="white" stroke-width="1.5" stroke-linecap="round" stroke-linejoin="round"/> <path d="M19.3701 10.7109H4.43005L4.58005 11.3109C4.86005 12.4209 5.85005 13.2009 6.99005 13.2009H16.8001C17.9401 13.2009 18.9401 12.4209 19.2201 11.3109L19.3701 10.7109Z" stroke="white" stroke-width="1.5" stroke-linecap="round" stroke-linejoin="round"/> <path d="M15.5601 10.7107C16.7001 10.7107 17.7001 9.9307 17.9801 8.8207L18.1301 8.2207H5.68005L5.83005 8.8207C6.11005 9.9307 7.10005 10.7107 8.25005 10.7107" stroke="white" stroke-width="1.5" stroke-linecap="round" stroke-linejoin="round"/> <path d="M14.32 8.22047C15.46 8.22047 16.46 7.44047 16.73 6.33047L16.88 5.73047H6.92004L7.07004 6.33047C7.35004 7.44047 8.34004 8.22047 9.49004 8.22047" stroke="white" stroke-width="1.5" stroke-linecap="round" stroke-linejoin="round"/> <path d="M13.07 5.73023C14.21 5.73023 15.21 4.95023 15.48 3.84023L15.63 3.24023H8.16003L8.31003 3.84023C8.59003 4.95023 9.58003 5.73023 10.72 5.73023" stroke="white" stroke-width="1.5" stroke-linecap="round" stroke-linejoin="round"/> <path d="M11.9 2V3.24" stroke="white" stroke-width="1.5" stroke-linecap="round" stroke-linejoin="round"/> <path d="M16.88 13.1992V17.0192" stroke="white" stroke-width="1.5" stroke-linecap="round" stroke-linejoin="round"/> <path d="M6.92004 17.0192V13.1992" stroke="white" stroke-width="1.5" stroke-linecap="round" stroke-linejoin="round"/> <path d="M9.41003 17.0192V13.1992" stroke="white" stroke-width="1.5" stroke-linecap="round" stroke-linejoin="round"/> <path d="M14.39 13.1992V17.0192" stroke="white" stroke-width="1.5" stroke-linecap="round" stroke-linejoin="round"/> <path d="M8.17004 21.9995L10.66 17.0195" stroke="white" stroke-width="1.5" stroke-linecap="round" stroke-linejoin="round"/> <path d="M13.15 17.0195L15.64 21.9995" stroke="white" stroke-width="1.5" stroke-linecap="round" stroke-linejoin="round"/> </g> <defs> <clipPath id="clip0_2085_382525"> <rect width="24" height="24" fill="white"/> </clipPath> </defs> </svg>
