<svg width="24" height="24" viewBox="0 0 24 24" fill="none" xmlns="http://www.w3.org/2000/svg"> <g clip-path="url(#clip0_4482_15633)"> <path d="M12.0002 7.46031C13.0053 7.46031 13.8202 6.64547 13.8202 5.64031C13.8202 4.63515 13.0053 3.82031 12.0002 3.82031C10.995 3.82031 10.1802 4.63515 10.1802 5.64031C10.1802 6.64547 10.995 7.46031 12.0002 7.46031Z" stroke="white" stroke-width="1.5" stroke-linecap="round" stroke-linejoin="round"/> <path d="M20.1799 12.4603C21.185 12.4603 21.9999 11.6455 21.9999 10.6403C21.9999 9.63515 21.185 8.82031 20.1799 8.82031C19.1747 8.82031 18.3599 9.63515 18.3599 10.6403C18.3599 11.6455 19.1747 12.4603 20.1799 12.4603Z" stroke="white" stroke-width="1.5" stroke-linecap="round" stroke-linejoin="round"/> <path d="M17.4498 16.5508H6.5498" stroke="white" stroke-width="1.5" stroke-linecap="round" stroke-linejoin="round"/> <path d="M15.5798 12.0402L13.2998 6.91016" stroke="white" stroke-width="1.5" stroke-linecap="round" stroke-linejoin="round"/> <path d="M10.6999 6.91016L8.41992 12.0402" stroke="white" stroke-width="1.5" stroke-linecap="round" stroke-linejoin="round"/> <path d="M17.92 16.5508H6.08998C5.33887 16.5508 4.72998 17.1597 4.72998 17.9108V18.8308C4.72998 19.5819 5.33887 20.1908 6.08998 20.1908H17.92C18.6711 20.1908 19.28 19.5819 19.28 18.8308V17.9108C19.28 17.1597 18.6711 16.5508 17.92 16.5508Z" stroke="white" stroke-width="1.5" stroke-linecap="round" stroke-linejoin="round"/> <path d="M12 16.5507C12 13.9307 14.77 11.7407 18.47 11.2207" stroke="white" stroke-width="1.5" stroke-linecap="round" stroke-linejoin="round"/> <path d="M17.6099 16.5505C17.7299 14.9505 18.1799 13.3905 18.9499 11.9805" stroke="white" stroke-width="1.5" stroke-linecap="round" stroke-linejoin="round"/> <path d="M3.82 12.4603C4.82516 12.4603 5.64 11.6455 5.64 10.6403C5.64 9.63515 4.82516 8.82031 3.82 8.82031C2.81484 8.82031 2 9.63515 2 10.6403C2 11.6455 2.81484 12.4603 3.82 12.4603Z" stroke="white" stroke-width="1.5" stroke-linecap="round" stroke-linejoin="round"/> <path d="M11.9998 16.5507C11.9998 13.9307 9.22979 11.7407 5.52979 11.2207" stroke="white" stroke-width="1.5" stroke-linecap="round" stroke-linejoin="round"/> <path d="M6.3898 16.5505C6.2698 14.9505 5.8198 13.3905 5.0498 11.9805" stroke="white" stroke-width="1.5" stroke-linecap="round" stroke-linejoin="round"/> </g> <defs> <clipPath id="clip0_4482_15633"> <rect width="24" height="24" fill="white"/> </clipPath> </defs> </svg>
