<svg width="24" height="24" viewBox="0 0 24 24" fill="none" xmlns="http://www.w3.org/2000/svg"> <g clip-path="url(#clip0_4482_15642)"> <path d="M12 2V5.16" stroke="white" stroke-width="1.5" stroke-linecap="round" stroke-linejoin="round"/> <path d="M9.37004 9.37012H14.63C15.5 9.37012 16.21 10.0801 16.21 10.9501C16.21 11.8201 15.5 12.5301 14.63 12.5301H9.37004C8.50004 12.5301 7.79004 11.8201 7.79004 10.9501C7.79004 10.0801 8.50004 9.37012 9.37004 9.37012Z" stroke="white" stroke-width="1.5" stroke-linecap="round" stroke-linejoin="round"/> <path d="M10.9502 3.0498H13.0602" stroke="white" stroke-width="1.5" stroke-linecap="round" stroke-linejoin="round"/> <path d="M9.37004 9.37012H14.63C15.5 9.37012 16.21 10.0801 16.21 10.9501C16.21 11.8201 15.5 12.5301 14.63 12.5301H9.37004C8.50004 12.5301 7.79004 11.8201 7.79004 10.9501C7.79004 10.0801 8.50004 9.37012 9.37004 9.37012Z" stroke="white" stroke-width="1.5" stroke-linecap="round" stroke-linejoin="round"/> <path d="M14.1099 12.5303L15.1599 18.0003" stroke="white" stroke-width="1.5" stroke-linecap="round" stroke-linejoin="round"/> <path d="M8.83984 18.0003L9.88984 12.5303" stroke="white" stroke-width="1.5" stroke-linecap="round" stroke-linejoin="round"/> <path d="M14.5298 9.36969L15.1198 6.98969C15.1998 6.67969 15.1198 6.33969 14.9298 6.08969C14.7298 5.82969 14.4198 5.67969 14.0998 5.67969H9.88979C9.56979 5.67969 9.25979 5.82969 9.05979 6.08969C8.85979 6.33969 8.78979 6.67969 8.86979 6.98969L9.45979 9.36969" stroke="white" stroke-width="1.5" stroke-linecap="round" stroke-linejoin="round"/> <path d="M18 18H6C4.89543 18 4 18.8954 4 20C4 21.1046 4.89543 22 6 22H18C19.1046 22 20 21.1046 20 20C20 18.8954 19.1046 18 18 18Z" stroke="white" stroke-width="1.5" stroke-linecap="round" stroke-linejoin="round"/> </g> <defs> <clipPath id="clip0_4482_15642"> <rect width="24" height="24" fill="white"/> </clipPath> </defs> </svg>
