<svg width="24" height="24" viewBox="0 0 24 24" fill="none" xmlns="http://www.w3.org/2000/svg"> <g clip-path="url(#clip0_2085_387047)"> <path d="M15.33 3.33C15.33 2.59 14.73 2 14 2H9.99998C9.25998 2 8.66998 2.6 8.66998 3.33V5.66C8.66998 6.21 9.11998 6.66 9.66998 6.66H14.34C14.89 6.66 15.34 6.21 15.34 5.66V3.33H15.33Z" stroke="white" stroke-width="1.41" stroke-linecap="round" stroke-linejoin="round"/> <path d="M13.67 9.33008H10.34C9.78997 9.33008 9.33997 9.78008 9.33997 10.3301V21.0001C9.33997 21.5501 9.78997 22.0001 10.34 22.0001H13.67C14.22 22.0001 14.67 21.5501 14.67 21.0001V10.3301C14.67 9.78008 14.22 9.33008 13.67 9.33008Z" stroke="white" stroke-width="1.41" stroke-linecap="round" stroke-linejoin="round"/> <path d="M13.33 6.66992H10.66V9.33992H13.33V6.66992Z" stroke="white" stroke-width="1.41" stroke-linecap="round" stroke-linejoin="round"/> <path d="M12 12.6699V14.6699" stroke="white" stroke-width="1.41" stroke-linecap="round" stroke-linejoin="round"/> </g> <defs> <clipPath id="clip0_2085_387047"> <rect width="24" height="24" fill="white"/> </clipPath> </defs> </svg>
