<svg width="24" height="24" viewBox="0 0 24 24" fill="none" xmlns="http://www.w3.org/2000/svg"> <g clip-path="url(#clip0_4482_13043)"> <path d="M12.6899 9.64004C13.9899 10.94 13.9899 13.05 12.6899 14.35C11.3899 15.65 9.27988 15.65 7.97988 14.35C6.67988 13.05 6.67988 10.94 7.97988 9.64004C9.27988 8.34004 11.3899 8.34004 12.6899 9.64004Z" stroke="white" stroke-width="1.5" stroke-linecap="round" stroke-linejoin="round"/> <path d="M16.02 9.64004C17.32 10.94 17.32 13.05 16.02 14.35C14.72 15.65 12.61 15.65 11.31 14.35C10.01 13.05 10.01 10.94 11.31 9.64004C12.61 8.34004 14.72 8.34004 16.02 9.64004Z" stroke="white" stroke-width="1.5" stroke-linecap="round" stroke-linejoin="round"/> <path d="M19 20H5C3.34 20 2 18.66 2 17V7C2 5.34 3.34 4 5 4H19C20.66 4 22 5.34 22 7V17C22 18.66 20.66 20 19 20Z" stroke="white" stroke-width="1.5" stroke-linecap="round" stroke-linejoin="round"/> </g> <defs> <clipPath id="clip0_4482_13043"> <rect width="24" height="24" fill="white"/> </clipPath> </defs> </svg>
