<svg width="24" height="24" viewBox="0 0 24 24" fill="none" xmlns="http://www.w3.org/2000/svg"> <g clip-path="url(#clip0_2085_387109)"> <path d="M9.04001 18.4804L11.26 18.5404C11.51 18.5804 11.77 18.5004 11.96 18.3104C12.27 18.0004 12.27 17.4804 11.96 17.1604L7.93001 13.1404C7.62001 12.8204 7.10001 12.8204 6.78001 13.1404C6.63001 13.3004 6.55001 13.5104 6.55001 13.7104L6.61001 16.1704L6.59001 16.4004L5.54001 17.6404L7.46001 19.5604L8.70001 18.5104L9.05001 18.4804H9.04001Z" stroke="white" stroke-width="1.5" stroke-linecap="round" stroke-linejoin="round"/> <path d="M7.39 19.6096C6.85 20.0596 6.59 20.7196 6.42 21.3896C6.38 21.5196 6.31 21.6496 6.21 21.7496C5.89 22.0696 5.38 22.0696 5.06 21.7496L3.33 20.0296C3.02 19.7096 3.02 19.1996 3.33 18.8796C3.44 18.7696 3.57 18.6996 3.7 18.6696C4.38 18.4896 5.03 18.2396 5.48 17.7096L5.54 17.6396L7.46 19.5596L7.4 19.6096H7.39Z" stroke="white" stroke-width="1.5" stroke-linecap="round" stroke-linejoin="round"/> <path d="M7.92001 13.14L19.06 2C21.85 4.79 22.84 10.87 11.95 17.16" stroke="white" stroke-width="1.5" stroke-linecap="round" stroke-linejoin="round"/> </g> <defs> <clipPath id="clip0_2085_387109"> <rect width="24" height="24" fill="white"/> </clipPath> </defs> </svg>
