<svg width="24" height="24" viewBox="0 0 24 24" fill="none" xmlns="http://www.w3.org/2000/svg"> <g clip-path="url(#clip0_2085_391232)"> <path d="M14.88 19.4297H6.58L5.98 20.1697C5.39 20.9097 5.91 21.9997 6.86 21.9997H14.6C15.55 21.9997 16.07 20.8997 15.48 20.1697L14.88 19.4297Z" stroke="white" stroke-width="1.5" stroke-linecap="round" stroke-linejoin="round"/> <path d="M16.54 6.56055H4.92001L6.58001 19.4205H14.88L16.54 6.56055Z" stroke="white" stroke-width="1.5" stroke-linecap="round" stroke-linejoin="round"/> <path d="M13.64 4.07C13.64 2.92 12.34 2 10.74 2C9.14002 2 7.84002 2.93 7.84002 4.07H7.42002C6.05002 4.07 4.93002 5.18 4.93002 6.56H16.55C16.55 5.19 15.44 4.07 14.06 4.07H13.64Z" stroke="white" stroke-width="1.5" stroke-linecap="round" stroke-linejoin="round"/> <path d="M15.36 15.6906H17.78C18.7 15.6906 19.44 14.9506 19.44 14.0306V10.3006C19.44 9.38062 18.7 8.64062 17.78 8.64062H16.27" stroke="white" stroke-width="1.5" stroke-linecap="round" stroke-linejoin="round"/> <path d="M16.11 9.88086C13.43 9.88086 13.42 10.7109 10.73 10.7109C8.04001 10.7109 8.03001 9.88086 5.35001 9.88086" stroke="white" stroke-width="1.5" stroke-linecap="round" stroke-linejoin="round"/> </g> <defs> <clipPath id="clip0_2085_391232"> <rect width="24" height="24" fill="white"/> </clipPath> </defs> </svg>
