<svg width="24" height="24" viewBox="0 0 24 24" fill="none" xmlns="http://www.w3.org/2000/svg"> <g clip-path="url(#clip0_2085_391123)"> <path d="M14.49 2L10.76 11.96L15.74 5.74L14.49 2.01V2Z" stroke="white" stroke-width="1.41" stroke-linecap="round" stroke-linejoin="round"/> <path d="M11.55 9.84L8.26999 5.73L9.51999 2L12.01 8.64" stroke="white" stroke-width="1.41" stroke-linecap="round" stroke-linejoin="round"/> <path d="M9.81001 2H14.18C14.38 2 14.57 2.06 14.73 2.17L18.21 4.49L15.72 11.96H8.25001L5.76001 4.49L9.24001 2.17C9.40001 2.06 9.60001 2 9.79001 2H9.81001Z" stroke="white" stroke-width="1.41" stroke-linecap="round" stroke-linejoin="round"/> <path d="M8.26998 11.96L6.31998 18.85C6.00998 19.93 6.64998 21.05 7.73998 21.33C8.98998 21.66 10.64 22 12.01 22C13.38 22 15.02 21.66 16.28 21.33C17.37 21.05 18 19.93 17.7 18.85L15.75 11.96" stroke="white" stroke-width="1.41" stroke-linecap="round" stroke-linejoin="round"/> <path d="M5.78 4.49023L4.88 12.5902" stroke="white" stroke-width="1.41" stroke-linecap="round" stroke-linejoin="round"/> <path d="M19.12 12.5902L18.22 4.49023" stroke="white" stroke-width="1.41" stroke-linecap="round" stroke-linejoin="round"/> <path d="M10.76 11.96L12 22" stroke="white" stroke-width="1.41" stroke-linecap="round" stroke-linejoin="round"/> <path d="M16.25 13.7499L19.6 12.4099C20.04 12.2299 20.49 12.6499 20.34 13.0999L19.56 15.4299C19.5 15.5999 19.37 15.7299 19.21 15.7799L17.04 16.4999" stroke="white" stroke-width="1.41" stroke-linecap="round" stroke-linejoin="round"/> <path d="M6.97 16.4999L4.8 15.7799C4.63 15.7199 4.5 15.5899 4.45 15.4299L3.67 13.0999C3.52 12.6499 3.96 12.2299 4.41 12.4099L7.76 13.7499" stroke="white" stroke-width="1.41" stroke-linecap="round" stroke-linejoin="round"/> </g> <defs> <clipPath id="clip0_2085_391123"> <rect width="24" height="24" fill="white"/> </clipPath> </defs> </svg>
