<svg width="24" height="24" viewBox="0 0 24 24" fill="none" xmlns="http://www.w3.org/2000/svg"> <g clip-path="url(#clip0_4482_491)"> <path d="M20.46 7.69018L14.46 3.02018C13.02 1.90018 10.99 1.90018 9.55005 3.02018L3.55005 7.69018C2.58005 8.45018 2.01001 9.61018 2.01001 10.8502V18.0002C2.01001 20.2102 3.80001 22.0002 6.01001 22.0002H18.01C20.22 22.0002 22.01 20.2102 22.01 18.0002V10.8502C22 9.61018 21.43 8.45018 20.46 7.69018Z" stroke="white" stroke-width="1.5"/> <path d="M11.99 12.9002C13 12.9002 13.8199 12.0802 13.8199 11.0702C13.8199 10.0602 13 9.24023 11.99 9.24023C10.98 9.24023 10.16 10.0602 10.16 11.0702C10.16 12.0802 10.98 12.9002 11.99 12.9002Z" stroke="white" stroke-width="1.5" stroke-linecap="round" stroke-linejoin="round"/> <path d="M15.14 17.3998C15.14 15.9798 13.73 14.8398 12 14.8398C10.27 14.8398 8.85999 15.9898 8.85999 17.3998" stroke="white" stroke-width="1.5" stroke-linecap="round" stroke-linejoin="round"/> </g> <defs> <clipPath id="clip0_4482_491"> <rect width="24" height="24" fill="white"/> </clipPath> </defs> </svg>
