<svg width="24" height="24" viewBox="0 0 24 24" fill="none" xmlns="http://www.w3.org/2000/svg"> <g clip-path="url(#clip0_4482_4132)"> <path d="M14.9 22H9.71C8.57 22 7.5 21.45 6.84 20.52L2.9 15.01C2.36 14.26 2.35 13.25 2.86 12.49C3.64 11.32 5.29 11.16 6.28 12.15L7.89 13.76V9.06V4.35C7.89 3.05 8.95 2 10.25 2C11.55 2 12.6 3.05 12.6 4.35V8.28C12.6 8.73 12.91 9.13 13.35 9.25L17.77 10.41C19.09 10.76 20.01 11.95 20.01 13.31V17C20.01 19.76 17.77 22 15.01 22H14.9Z" stroke="white" stroke-width="1.5" stroke-miterlimit="10" stroke-linecap="round" stroke-linejoin="round"/> </g> <defs> <clipPath id="clip0_4482_4132"> <rect width="24" height="24" fill="white"/> </clipPath> </defs> </svg>
