<svg width="24" height="24" viewBox="0 0 24 24" fill="none" xmlns="http://www.w3.org/2000/svg"> <g clip-path="url(#clip0_4482_15644)"> <path d="M17.4601 8.57957C17.9401 7.92957 18.5001 7.33957 19.1101 6.81957H19.1201C19.1701 6.75957 19.2101 6.69957 19.2101 6.61957C19.2101 6.53957 19.1801 6.47957 19.1201 6.42957H19.1101C18.5001 5.89957 17.9401 5.30957 17.4601 4.65957C17.4101 4.59957 17.3401 4.55957 17.2701 4.55957C17.2001 4.55957 17.1201 4.59957 17.0801 4.65957C16.6001 5.30957 16.0401 5.89957 15.4301 6.41957H15.4201C15.3701 6.47957 15.3301 6.53957 15.3301 6.61957C15.3301 6.69957 15.3601 6.75957 15.4201 6.80957H15.4301C16.0401 7.33957 16.6001 7.92957 17.0801 8.57957C17.1301 8.63957 17.2001 8.67957 17.2701 8.67957C17.3401 8.67957 17.4201 8.63957 17.4601 8.57957Z" stroke="white" stroke-width="1.5" stroke-linecap="round" stroke-linejoin="round"/> <path d="M20.5401 3.34969C21.8601 4.66969 22.2601 6.65969 21.5401 8.38969C20.8201 10.1197 19.1401 11.2397 17.2701 11.2397C15.4001 11.2397 13.7101 10.1097 13.0001 8.38969C12.2801 6.65969 12.6801 4.66969 14.0001 3.34969C15.8101 1.53969 18.7301 1.53969 20.5401 3.34969Z" stroke="white" stroke-width="1.5" stroke-linecap="round" stroke-linejoin="round"/> <path d="M5.21986 21.9997H3.14986C2.57986 21.9997 2.10986 21.5297 2.10986 20.9597V14.7197C2.10986 14.1497 2.57986 13.6797 3.14986 13.6797H5.22986C5.79986 13.6797 6.26986 14.1497 6.26986 14.7197V20.9597C6.26986 21.5297 5.79986 21.9997 5.22986 21.9997H5.21986Z" stroke="white" stroke-width="1.5" stroke-linecap="round" stroke-linejoin="round"/> <path d="M12.4998 17.8399H14.5398C14.9898 17.8399 15.4298 17.6899 15.7898 17.4199L18.2998 15.5399C18.9298 15.0699 19.7998 15.1299 20.3598 15.6899C20.6598 15.9899 20.8198 16.3899 20.8198 16.7999C20.8198 17.2099 20.6498 17.6199 20.3598 17.9099L18.2098 20.0599C17.6298 20.6399 16.8898 21.0399 16.0898 21.1999L13.0398 21.8099C12.4398 21.9299 11.8098 21.9199 11.2198 21.7699L8.46979 21.0799C8.13979 20.9999 7.79978 20.9599 7.45978 20.9599H6.27979" stroke="white" stroke-width="1.5" stroke-linecap="round" stroke-linejoin="round"/> <path d="M12.4998 17.8397H14.0398C14.4598 17.8397 14.8598 17.6697 15.1498 17.3797C15.4498 17.0797 15.6098 16.6797 15.6098 16.2697V15.9597C15.6098 15.2397 15.1198 14.6097 14.4198 14.4297L12.0398 13.8297C11.6498 13.7297 11.2598 13.6797 10.8598 13.6797C9.89977 13.6797 8.94977 13.9697 8.14977 14.4997L6.25977 15.7597" stroke="white" stroke-width="1.5" stroke-linecap="round" stroke-linejoin="round"/> </g> <defs> <clipPath id="clip0_4482_15644"> <rect width="24" height="24" fill="white"/> </clipPath> </defs> </svg>
