<svg width="24" height="24" viewBox="0 0 24 24" fill="none" xmlns="http://www.w3.org/2000/svg"> <g clip-path="url(#clip0_4482_193)"> <path d="M11.0703 17.2996L12.3103 16.0596L13.5503 17.2996" stroke="white" stroke-width="1.5" stroke-linecap="round" stroke-linejoin="round"/> <path d="M12.5301 16.8899C12.2001 17.8899 12.28 19.0099 12.82 19.9899C13.78 21.7299 15.9 22.4699 17.74 21.6999C19.58 20.9299 20.54 18.8999 19.97 16.9899C19.4 15.0799 17.4901 13.9099 15.5301 14.2599" stroke="white" stroke-width="1.5" stroke-linecap="round" stroke-linejoin="round"/> <path d="M20.1504 12V6C20.1504 3.8 18.3504 2 16.1504 2H7.15039C4.95039 2 3.15039 3.8 3.15039 6V18C3.15039 20.2 4.95039 22 7.15039 22H10.1504" stroke="white" stroke-width="1.5" stroke-linecap="round" stroke-linejoin="round"/> <path d="M14.1504 5V6C14.1504 7.1 15.0504 8 16.1504 8H17.1504" stroke="white" stroke-width="1.5" stroke-linecap="round" stroke-linejoin="round"/> </g> <defs> <clipPath id="clip0_4482_193"> <rect width="24" height="24" fill="white"/> </clipPath> </defs> </svg>
