<svg width="24" height="24" viewBox="0 0 24 24" fill="none" xmlns="http://www.w3.org/2000/svg"> <g clip-path="url(#clip0_4482_11886)"> <path d="M11.8697 8.67L8.49973 9.51C7.89973 9.66 7.29973 9.3 7.14973 8.7L6.46973 5.96C6.36973 5.55 6.37973 5.12 6.51973 4.72L7.16973 2.76C7.31973 2.31 7.74973 2 8.21973 2H15.5097C15.9897 2 16.4097 2.31 16.5597 2.76L17.3197 5.03C17.3897 5.23 17.3897 5.45 17.3397 5.65L16.5797 8.7C16.4297 9.3 15.8297 9.66 15.2297 9.51L11.8597 8.67H11.8697Z" stroke="white" stroke-width="1.5" stroke-linecap="round" stroke-linejoin="round"/> <path d="M6.40988 5.33008H5.20988C3.36988 5.33008 1.87988 6.82008 1.87988 8.66008V18.6601C1.87988 20.5001 3.36988 21.9901 5.20988 21.9901H18.5399C20.3799 21.9901 21.8699 20.5001 21.8699 18.6601V8.67008C21.8699 6.83008 20.3799 5.34008 18.5399 5.34008H17.3799" stroke="white" stroke-width="1.5" stroke-linecap="round" stroke-linejoin="round"/> <path d="M16.1703 2.22021L11.8703 8.67021L7.57031 2.22021" stroke="white" stroke-width="1.5" stroke-linecap="round" stroke-linejoin="round"/> <path d="M11.9198 18.6C11.9198 18.6 11.8998 18.66 11.8598 18.66C11.8198 18.66 11.7998 18.64 11.7998 18.6C11.7998 18.56 11.8298 18.54 11.8598 18.54" stroke="white" stroke-width="1.5" stroke-linecap="round" stroke-linejoin="round"/> <path d="M11.8701 18.54C11.8701 18.54 11.9301 18.56 11.9301 18.6" stroke="white" stroke-width="1.5" stroke-linecap="round" stroke-linejoin="round"/> <path d="M11.9198 15.33C11.9198 15.33 11.8998 15.39 11.8598 15.39C11.8198 15.39 11.7998 15.37 11.7998 15.33C11.7998 15.29 11.8298 15.27 11.8598 15.27" stroke="white" stroke-width="1.5" stroke-linecap="round" stroke-linejoin="round"/> <path d="M11.8701 15.2798C11.8701 15.2798 11.9301 15.2998 11.9301 15.3398" stroke="white" stroke-width="1.5" stroke-linecap="round" stroke-linejoin="round"/> <path d="M11.9198 12.0698C11.9198 12.0698 11.8998 12.1298 11.8598 12.1298C11.8198 12.1298 11.7998 12.1098 11.7998 12.0698C11.7998 12.0298 11.8298 12.0098 11.8598 12.0098" stroke="white" stroke-width="1.5" stroke-linecap="round" stroke-linejoin="round"/> <path d="M11.8701 12.0098C11.8701 12.0098 11.9301 12.0298 11.9301 12.0698" stroke="white" stroke-width="1.5" stroke-linecap="round" stroke-linejoin="round"/> </g> <defs> <clipPath id="clip0_4482_11886"> <rect width="24" height="24" fill="white"/> </clipPath> </defs> </svg>
