<svg width="24" height="24" viewBox="0 0 24 24" fill="none" xmlns="http://www.w3.org/2000/svg"> <g clip-path="url(#clip0_4482_4207)"> <path d="M19.19 10.5H4.81C3.26 10.5 2.14999 11.76 2.32999 13.29L2.73999 16.79C2.87999 18 4 19 5.22 19H18.77C19.99 19 21.11 18.01 21.25 16.79L21.66 13.29C21.85 11.76 20.73 10.5 19.19 10.5Z" stroke="white" stroke-width="1.5" stroke-miterlimit="10" stroke-linecap="round" stroke-linejoin="round"/> <path d="M7 21V19" stroke="white" stroke-width="1.5" stroke-miterlimit="10" stroke-linecap="round" stroke-linejoin="round"/> <path d="M17 21V19" stroke="white" stroke-width="1.5" stroke-miterlimit="10" stroke-linecap="round" stroke-linejoin="round"/> <path d="M19.5 10.5H4.5V6C4.5 4.34 5.84 3 7.5 3H16.5C18.16 3 19.5 4.34 19.5 6V10.5Z" stroke="white" stroke-width="1.5" stroke-miterlimit="10" stroke-linecap="round" stroke-linejoin="round"/> <path d="M8 10.5V9C8 8.17 8.67 7.5 9.5 7.5H14.5C15.33 7.5 16 8.17 16 9V10.5" stroke="white" stroke-width="1.5" stroke-miterlimit="10" stroke-linecap="round" stroke-linejoin="round"/> </g> <defs> <clipPath id="clip0_4482_4207"> <rect width="24" height="24" fill="white"/> </clipPath> </defs> </svg>
