<svg width="24" height="24" viewBox="0 0 24 24" fill="none" xmlns="http://www.w3.org/2000/svg"> <g clip-path="url(#clip0_4482_212)"> <path d="M16.5 22H7.5C5.3 22 3.5 20.2 3.5 18V6C3.5 3.8 5.3 2 7.5 2H16.5C18.7 2 20.5 3.8 20.5 6V18C20.5 20.2 18.7 22 16.5 22Z" stroke="white" stroke-width="1.5" stroke-linecap="round" stroke-linejoin="round"/> <path d="M14.5 5V6C14.5 7.1 15.4 8 16.5 8H17.5" stroke="white" stroke-width="1.5" stroke-linecap="round" stroke-linejoin="round"/> <path d="M14.5 18.25H9.5C8.12 18.25 7 17.13 7 15.75V13.25C7 11.87 8.12 10.75 9.5 10.75H14.5C15.88 10.75 17 11.87 17 13.25V15.75C17 17.12 15.88 18.25 14.5 18.25Z" stroke="white" stroke-width="1.5" stroke-linecap="round" stroke-linejoin="round"/> <path d="M10.25 14.5H11.5" stroke="white" stroke-width="1.5" stroke-linecap="round" stroke-linejoin="round"/> <path d="M13.7402 14.5H13.7502" stroke="white" stroke-width="1.5" stroke-linecap="round" stroke-linejoin="round"/> </g> <defs> <clipPath id="clip0_4482_212"> <rect width="24" height="24" fill="white"/> </clipPath> </defs> </svg>
