<svg width="24" height="24" viewBox="0 0 24 24" fill="none" xmlns="http://www.w3.org/2000/svg"> <g clip-path="url(#clip0_4482_8642)"> <path d="M9.64014 14.3599C10.7101 15.4299 12.3601 15.6399 13.6601 14.8899C14.9601 14.1399 15.6001 12.5999 15.2101 11.1399C14.8201 9.67992 13.5001 8.66992 11.9901 8.66992" stroke="white" stroke-width="1.5" stroke-linecap="round" stroke-linejoin="round"/> <path d="M12.0001 5.33008C15.6801 5.33008 18.6701 8.32008 18.6701 12.0001C18.6701 15.6801 15.6901 18.6701 12.0001 18.6701C8.31008 18.6701 5.33008 15.6901 5.33008 12.0001" stroke="white" stroke-width="1.5" stroke-linecap="round" stroke-linejoin="round"/> <path d="M17 2H7C4.23858 2 2 4.23858 2 7V17C2 19.7614 4.23858 22 7 22H17C19.7614 22 22 19.7614 22 17V7C22 4.23858 19.7614 2 17 2Z" stroke="white" stroke-width="1.5" stroke-linecap="round" stroke-linejoin="round"/> </g> <defs> <clipPath id="clip0_4482_8642"> <rect width="24" height="24" fill="white"/> </clipPath> </defs> </svg>
