<svg width="24" height="24" viewBox="0 0 24 24" fill="none" xmlns="http://www.w3.org/2000/svg"> <g clip-path="url(#clip0_4482_7445)"> <path d="M5 12H6" stroke="white" stroke-width="1.5" stroke-linecap="round" stroke-linejoin="round"/> <path d="M18 12H19" stroke="white" stroke-width="1.5" stroke-linecap="round" stroke-linejoin="round"/> <path d="M12 5V6" stroke="white" stroke-width="1.5" stroke-linecap="round" stroke-linejoin="round"/> <path d="M17 7.05L16.29 7.76" stroke="white" stroke-width="1.5" stroke-linecap="round" stroke-linejoin="round"/> <path d="M7 7.05L7.71 7.76" stroke="white" stroke-width="1.5" stroke-linecap="round" stroke-linejoin="round"/> <path d="M9 18.25C9.62 18.58 10.38 18.58 11 18.25C11.62 17.92 12.37 17.92 13 18.25C13.63 18.58 14.38 18.58 15 18.25" stroke="white" stroke-width="1.5" stroke-linecap="round" stroke-linejoin="round"/> <path d="M9 12C9 10.34 10.34 9 12 9C13.66 9 15 10.34 15 12" stroke="white" stroke-width="1.5" stroke-linecap="round" stroke-linejoin="round"/> <path d="M7 15.25C7.63 14.92 8.38 14.92 9 15.25C9.62 15.58 10.38 15.58 11 15.25C11.62 14.92 12.37 14.92 13 15.25C13.63 15.58 14.38 15.58 15 15.25C15.62 14.92 16.37 14.92 17 15.25" stroke="white" stroke-width="1.5" stroke-linecap="round" stroke-linejoin="round"/> <path d="M17 2H7C4.23858 2 2 4.23858 2 7V17C2 19.7614 4.23858 22 7 22H17C19.7614 22 22 19.7614 22 17V7C22 4.23858 19.7614 2 17 2Z" stroke="white" stroke-width="1.5" stroke-linecap="round" stroke-linejoin="round"/> </g> <defs> <clipPath id="clip0_4482_7445"> <rect width="24" height="24" fill="white"/> </clipPath> </defs> </svg>
