<svg width="24" height="24" viewBox="0 0 24 24" fill="none" xmlns="http://www.w3.org/2000/svg"> <g clip-path="url(#clip0_4482_4092)"> <path d="M4.57996 17.4102H4.25C3.15 17.4102 2.25 16.5102 2.25 15.4102V12.9102C2.25 11.8102 3.15 10.9102 4.25 10.9102H4.57996C5.67996 10.9102 6.57996 11.8102 6.57996 12.9102V15.4102C6.57996 16.5202 5.68996 17.4102 4.57996 17.4102Z" stroke="white" stroke-width="1.5" stroke-miterlimit="10" stroke-linecap="round"/> <path d="M4.42004 10.92V9.83C4.42004 5.64 7.81 2.25 12 2.25C16.19 2.25 19.58 5.64 19.58 9.83V10.91" stroke="white" stroke-width="1.5" stroke-miterlimit="10" stroke-linecap="round"/> <path d="M13.08 21.7502H14.16C16.78 21.7502 18.97 19.8902 19.47 17.4102" stroke="white" stroke-width="1.5" stroke-miterlimit="10" stroke-linecap="round"/> <path d="M19.75 17.4102H19.42C18.32 17.4102 17.42 16.5102 17.42 15.4102V12.9102C17.42 11.8102 18.32 10.9102 19.42 10.9102H19.75C20.85 10.9102 21.75 11.8102 21.75 12.9102V15.4102C21.75 16.5202 20.85 17.4102 19.75 17.4102Z" stroke="white" stroke-width="1.5" stroke-miterlimit="10" stroke-linecap="round"/> </g> <defs> <clipPath id="clip0_4482_4092"> <rect width="24" height="24" fill="white"/> </clipPath> </defs> </svg>
