<svg width="24" height="24" viewBox="0 0 24 24" fill="none" xmlns="http://www.w3.org/2000/svg"> <g clip-path="url(#clip0_2085_391135)"> <path d="M8.26996 2C8.26996 2 9.93996 4.49 12 4.49C14.06 4.49 15.73 2 15.73 2" stroke="white" stroke-width="1.41" stroke-linecap="round" stroke-linejoin="round"/> <path d="M15.73 2C15.73 2 15.26 6.98 12 6.98C8.73998 6.98 8.26998 2 8.26998 2H6.80998C6.24998 2 5.79998 2.46 5.80998 3.01C5.82998 4.78 5.73998 8.43 4.75998 10.37C4.62998 10.63 4.53998 10.91 4.53998 11.2V19C4.53998 20.66 5.87998 22 7.53998 22H16.48C18.14 22 19.48 20.66 19.48 19V11.2C19.48 10.91 19.39 10.63 19.26 10.37C18.28 8.44 18.19 4.79 18.21 3.01C18.21 2.45 17.77 2 17.21 2H15.75H15.73Z" stroke="white" stroke-width="1.41" stroke-linecap="round" stroke-linejoin="round"/> <path d="M5.40997 9.13965L5.92997 9.65965C6.62997 10.3596 7.01997 11.3096 7.01997 12.2996V21.9496" stroke="white" stroke-width="1.41" stroke-linecap="round" stroke-linejoin="round"/> <path d="M16.98 21.9596V11.8896C16.98 11.1496 17.2 10.4296 17.61 9.81965L18.39 8.63965" stroke="white" stroke-width="1.41" stroke-linecap="round" stroke-linejoin="round"/> </g> <defs> <clipPath id="clip0_2085_391135"> <rect width="24" height="24" fill="white"/> </clipPath> </defs> </svg>
