<svg width="24" height="24" viewBox="0 0 24 24" fill="none" xmlns="http://www.w3.org/2000/svg"> <g clip-path="url(#clip0_2085_391031)"> <path d="M19.78 6.38035H12.59C12.22 6.38035 11.88 6.20035 11.67 5.89035L10.11 3.60035C9.9 3.30035 9.56 3.11035 9.19 3.11035H4.22C3.63 3.11035 3.06 3.34035 2.65 3.76035C2.24 4.18035 2 4.74035 2 5.33035V18.6604C2 19.2504 2.23 19.8104 2.65 20.2304C3.07 20.6504 3.63 20.8804 4.22 20.8804H19.78C20.37 20.8804 20.94 20.6504 21.35 20.2304C21.77 19.8104 22 19.2504 22 18.6604V8.59035C22 7.36035 21 6.37035 19.78 6.37035V6.38035Z" stroke="white" stroke-width="1.5" stroke-linecap="round" stroke-linejoin="round"/> <path d="M13.12 16.4404H15.34" stroke="white" stroke-width="1.5" stroke-linecap="round" stroke-linejoin="round"/> <path d="M8.65997 10.8906L10.88 13.1106L8.65997 15.3306" stroke="white" stroke-width="1.5" stroke-linecap="round" stroke-linejoin="round"/> </g> <defs> <clipPath id="clip0_2085_391031"> <rect width="24" height="24" fill="white"/> </clipPath> </defs> </svg>
