<svg width="24" height="24" viewBox="0 0 24 24" fill="none" xmlns="http://www.w3.org/2000/svg"> <g clip-path="url(#clip0_4482_9410)"> <path d="M3.9 13.5801H20.1C21.15 13.5801 22 14.4801 22 15.5801V17.9001C22 19.0001 21.15 19.9001 20.1 19.9001H3.9C2.85 19.9001 2 19.0001 2 17.9001V15.5801C2 14.4801 2.85 13.5801 3.9 13.5801Z" stroke="white" stroke-width="1.5" stroke-linecap="round" stroke-linejoin="round"/> <path d="M19.3698 2H4.63979C3.47446 2 2.52979 2.94468 2.52979 4.11V8.31C2.52979 9.47532 3.47446 10.42 4.63979 10.42H19.3698C20.5351 10.42 21.4798 9.47532 21.4798 8.31V4.11C21.4798 2.94468 20.5351 2 19.3698 2Z" stroke="white" stroke-width="1.5" stroke-linecap="round" stroke-linejoin="round"/> <path d="M4.62988 19.8899V21.9999" stroke="white" stroke-width="1.5" stroke-linecap="round" stroke-linejoin="round"/> <path d="M19.3701 19.8899V21.9999" stroke="white" stroke-width="1.5" stroke-linecap="round" stroke-linejoin="round"/> <path d="M13.0499 16.74H10.9399" stroke="white" stroke-width="1.5" stroke-linecap="round" stroke-linejoin="round"/> </g> <defs> <clipPath id="clip0_4482_9410"> <rect width="24" height="24" fill="white"/> </clipPath> </defs> </svg>
