<svg width="24" height="24" viewBox="0 0 24 24" fill="none" xmlns="http://www.w3.org/2000/svg"> <g clip-path="url(#clip0_4482_12548)"> <path d="M12.98 5.95996V10.9" stroke="white" stroke-width="1.5" stroke-linecap="round" stroke-linejoin="round"/> <path d="M16.27 8.70996V9.80996" stroke="white" stroke-width="1.5" stroke-linecap="round" stroke-linejoin="round"/> <path d="M9.68018 14.74V9.25" stroke="white" stroke-width="1.5" stroke-linecap="round" stroke-linejoin="round"/> <path d="M2 16.3896V17.8796C2 20.0896 3.79 21.8796 6 21.8796H7.49" stroke="white" stroke-width="1.5" stroke-linecap="round" stroke-linejoin="round"/> <path d="M2 7.61012V6.12012C2 3.91012 3.79 2.12012 6 2.12012H7.49" stroke="white" stroke-width="1.5" stroke-linecap="round" stroke-linejoin="round"/> <path d="M16.27 2.12012H17.76C19.97 2.12012 21.76 3.91012 21.76 6.12012V7.61012" stroke="white" stroke-width="1.5" stroke-linecap="round" stroke-linejoin="round"/> <path d="M6.39014 13.1004V10.9004" stroke="white" stroke-width="1.5" stroke-linecap="round" stroke-linejoin="round"/> <path d="M19.1301 21.4102L18.0301 21.8802L16.9301 21.4102C15.3901 20.7502 14.3501 19.3002 14.2301 17.6302L14.0701 15.3702C14.0401 14.9902 14.2601 14.6402 14.6001 14.4902L17.5201 13.2102C17.8601 13.0602 18.2601 13.0602 18.6001 13.2102L21.4601 14.4902C21.8001 14.6402 22.0101 14.9902 21.9901 15.3702L21.8301 17.6302C21.7101 19.3002 20.6701 20.7502 19.1301 21.4102Z" stroke="white" stroke-width="1.5" stroke-linecap="round" stroke-linejoin="round"/> </g> <defs> <clipPath id="clip0_4482_12548"> <rect width="24" height="24" fill="white"/> </clipPath> </defs> </svg>
