<svg width="24" height="24" viewBox="0 0 24 24" fill="none" xmlns="http://www.w3.org/2000/svg"> <g clip-path="url(#clip0_2085_391332)"> <path d="M12.77 2C13.48 2 14.17 2.28 14.67 2.79C15.17 3.29 15.46 3.98 15.46 4.69C15.46 5.4 15.18 6.09 14.67 6.59C14.16 7.1 13.48 7.38 12.77 7.38H2" stroke="white" stroke-width="1.71" stroke-linecap="round" stroke-linejoin="round"/> <path d="M19.31 17.38C20.02 17.38 20.71 17.1 21.21 16.59C21.72 16.09 22 15.4 22 14.69C22 13.98 21.72 13.29 21.21 12.79C20.71 12.28 20.02 12 19.31 12H4.31" stroke="white" stroke-width="1.71" stroke-linecap="round" stroke-linejoin="round"/> <path d="M12.38 21.9991C13.09 21.9991 13.78 21.7191 14.28 21.2091C14.79 20.7091 15.07 20.0191 15.07 19.3091C15.07 18.5991 14.79 17.9091 14.28 17.4091C13.78 16.8991 13.09 16.6191 12.38 16.6191H3.53999" stroke="white" stroke-width="1.71" stroke-linecap="round" stroke-linejoin="round"/> </g> <defs> <clipPath id="clip0_2085_391332"> <rect width="24" height="24" fill="white"/> </clipPath> </defs> </svg>
