<svg width="24" height="24" viewBox="0 0 24 24" fill="none" xmlns="http://www.w3.org/2000/svg"> <g clip-path="url(#clip0_4482_14996)"> <path d="M19.2204 22.0004C20.7558 22.0004 22.0004 20.7558 22.0004 19.2204C22.0004 17.6851 20.7558 16.4404 19.2204 16.4404C17.6851 16.4404 16.4404 17.6851 16.4404 19.2204C16.4404 20.7558 17.6851 22.0004 19.2204 22.0004Z" fill="white"/> <path d="M4.78 7.56C6.31535 7.56 7.56 6.31535 7.56 4.78C7.56 3.24465 6.31535 2 4.78 2C3.24465 2 2 3.24465 2 4.78C2 6.31535 3.24465 7.56 4.78 7.56Z" fill="white"/> <g opacity="0.4"> <path d="M19.2196 17.1895C18.8096 17.1895 18.4696 16.8495 18.4696 16.4395V9.76953C18.4696 7.42953 16.5596 5.51953 14.2196 5.51953H10.8896C10.4796 5.51953 10.1396 5.17953 10.1396 4.76953C10.1396 4.35953 10.4796 4.01953 10.8896 4.01953H14.2196C17.3896 4.01953 19.9696 6.59953 19.9696 9.76953V16.4395C19.9696 16.8495 19.6296 17.1895 19.2196 17.1895Z" fill="white"/> </g> <g opacity="0.4"> <path d="M4.78027 21.6396C4.37027 21.6396 4.03027 21.2996 4.03027 20.8896V7.55957C4.03027 7.14957 4.37027 6.80957 4.78027 6.80957C5.19027 6.80957 5.53027 7.14957 5.53027 7.55957V20.8896C5.53027 21.2996 5.19027 21.6396 4.78027 21.6396Z" fill="white"/> </g> </g> <defs> <clipPath id="clip0_4482_14996"> <rect width="24" height="24" fill="white"/> </clipPath> </defs> </svg>
