<svg width="24" height="24" viewBox="0 0 24 24" fill="none" xmlns="http://www.w3.org/2000/svg"> <g clip-path="url(#clip0_3111_16002)"> <path opacity="0.4" d="M20.33 10.68L19.85 18.24C19.72 20.29 18.62 21.98 15.87 21.98H5.41C2.65 21.98 1.54 20.29 1.43 18.24L0.91 9.99C0.77 7.84 2.48 6.01 4.65 6.01C5.26 6.01 5.82 5.66 6.1 5.12L6.82 3.68C7.27 2.77 8.47 2.02 9.5 2.02H11.79C12.8 2.02 14 2.77 14.46 3.68L15.18 5.12C15.25 5.27 15.35 5.39 15.46 5.51C15.24 5.74 15.1 6.05 15.1 6.4C15.1 7.01 15.49 7.51 16.06 7.67L17.04 7.94C17.54 8.08 17.92 8.46 18.06 8.96L18.32 9.93C18.48 10.53 18.98 10.91 19.59 10.91C19.87 10.91 20.12 10.83 20.33 10.68Z" fill="white"/> <path d="M12.88 8.01C12.88 8.42 12.54 8.76 12.14 8.76H9.14001C8.73001 8.76 8.39001 8.42 8.39001 8.01C8.39001 7.6 8.73001 7.26 9.14001 7.26H12.14C12.54 7.26 12.88 7.6 12.88 8.01Z" fill="white"/> <path d="M14.01 14.74C14.01 16.6 12.49 18.11 10.64 18.11C8.79001 18.11 7.26001 16.6 7.26001 14.74C7.26001 12.88 8.77001 11.36 10.64 11.36C12.51 11.36 14.01 12.87 14.01 14.74Z" fill="white"/> <path d="M23.1 6.42C23.1 6.49 23.06 6.65 22.87 6.71L21.89 6.98C21.04 7.21 20.4 7.85 20.17 8.7L19.91 9.66C19.85 9.88 19.68 9.9 19.6 9.9C19.52 9.9 19.35 9.88 19.29 9.66L19.03 8.69C18.8 7.85 18.15 7.21 17.31 6.98L16.34 6.72C16.13 6.66 16.11 6.48 16.11 6.41C16.11 6.33 16.13 6.15 16.34 6.09L17.32 5.83C18.16 5.59 18.8 4.95 19.03 4.11L19.29 3.16L19.31 3.09C19.38 2.92 19.54 2.89 19.6 2.89C19.66 2.89 19.83 2.91 19.89 3.07L20.17 4.1C20.4 4.94 21.05 5.58 21.89 5.82L22.86 6.08L22.89 6.1C23.09 6.18 23.1 6.36 23.1 6.42Z" fill="white"/> </g> <defs> <clipPath id="clip0_3111_16002"> <rect width="24" height="24" fill="white"/> </clipPath> </defs> </svg>
