<svg width="24" height="24" viewBox="0 0 24 24" fill="none" xmlns="http://www.w3.org/2000/svg"> <g clip-path="url(#clip0_3111_16727)"> <path opacity="0.4" d="M19.65 10.11V16.33C19.65 20.01 17.81 21.85 14.13 21.85H2.17C1.66 21.85 1.25 21.43 1.25 20.93V8.97001C1.25 5.29001 3.09 3.45001 6.77 3.45001H14.13C15.27 3.45001 16.21 3.65001 17 4.00001C16.9 4.05001 16.8 4.10001 16.69 4.13001L15.73 4.38001C15.13 4.55001 14.75 5.05001 14.75 5.66001C14.75 6.27001 15.14 6.77001 15.71 6.93001L16.69 7.20001C17.19 7.34001 17.57 7.72001 17.71 8.22001L17.97 9.19001C18.13 9.79001 18.63 10.17 19.24 10.17C19.39 10.17 19.52 10.15 19.65 10.11Z" fill="white"/> <path d="M12.98 14.95C12.98 15.33 12.66 15.64 12.29 15.64H5.85003C5.47003 15.64 5.16003 15.33 5.16003 14.95C5.16003 14.57 5.47003 14.26 5.85003 14.26H12.29C12.66 14.26 12.98 14.57 12.98 14.95Z" fill="white"/> <path d="M15.74 10.35C15.74 10.72 15.42 11.04 15.05 11.04H5.85003C5.47003 11.04 5.16003 10.72 5.16003 10.35C5.16003 9.98003 5.47003 9.66003 5.85003 9.66003H15.05C15.42 9.66003 15.74 9.97003 15.74 10.35Z" fill="white"/> <path d="M22.75 5.68002C22.75 5.75002 22.71 5.91002 22.52 5.97002L21.54 6.24002C20.69 6.47002 20.05 7.11002 19.82 7.96002L19.56 8.92002C19.5 9.14002 19.33 9.16002 19.25 9.16002C19.17 9.16002 19 9.14002 18.94 8.92002L18.68 7.95002C18.45 7.11002 17.8 6.47002 16.96 6.24002L15.99 5.98002C15.78 5.92002 15.76 5.74002 15.76 5.67002C15.76 5.59002 15.78 5.41002 15.99 5.35002L16.97 5.09002C17.81 4.85002 18.45 4.21002 18.68 3.37002L18.96 2.35002C19.03 2.18002 19.19 2.15002 19.25 2.15002C19.31 2.15002 19.48 2.17002 19.54 2.33002L19.82 3.36002C20.05 4.20002 20.7 4.84002 21.54 5.08002L22.54 5.36002C22.74 5.44002 22.75 5.62002 22.75 5.68002Z" fill="white"/> </g> <defs> <clipPath id="clip0_3111_16727"> <rect width="24" height="24" fill="white"/> </clipPath> </defs> </svg>
