<svg width="24" height="24" viewBox="0 0 24 24" fill="none" xmlns="http://www.w3.org/2000/svg"> <g clip-path="url(#clip0_3111_16818)"> <path opacity="0.4" d="M20.4899 9.23995V16.8299C20.4899 20.4399 18.3299 22.5899 14.7299 22.5899H6.42991C2.81991 22.5899 0.659912 20.4399 0.659912 16.8199V8.51995C0.659912 4.90995 2.81991 2.75995 6.42991 2.75995H14.7399C15.7799 2.75995 16.6899 2.95995 17.4699 3.29995C17.4099 3.32995 17.3499 3.36995 17.2799 3.38995L16.3199 3.63995C15.7199 3.80995 15.3399 4.30995 15.3399 4.91995C15.3399 5.52995 15.7299 6.02995 16.2999 6.18995L17.2799 6.45995C17.7799 6.59995 18.1599 6.97995 18.2999 7.47995L18.5599 8.44995C18.7199 9.04995 19.2199 9.42995 19.8299 9.42995C20.0699 9.42995 20.2899 9.34995 20.4899 9.23995Z" fill="white"/> <path d="M16.4398 16.37C16.2898 16.57 16.0698 16.67 15.8498 16.67C15.6898 16.67 15.5398 16.62 15.3998 16.52L11.4798 13.6L9.0898 15.38C9.0898 15.48 9.1198 15.58 9.1198 15.68C9.1198 16.94 8.0998 17.96 6.8398 17.96C5.5798 17.96 4.5598 16.94 4.5598 15.68C4.5598 14.42 5.5798 13.4 6.8398 13.4C7.4598 13.4 7.9998 13.65 8.4098 14.03L10.2298 12.66L8.4198 11.31C8.0098 11.7 7.4498 11.95 6.8298 11.95C5.5698 11.95 4.5498 10.93 4.5498 9.66995C4.5498 8.40995 5.5698 7.38995 6.8298 7.38995C8.0898 7.38995 9.1098 8.40995 9.1098 9.66995C9.1098 9.76995 9.0898 9.85995 9.0798 9.94995L11.4598 11.73L15.3798 8.80995C15.7098 8.55995 16.1698 8.62995 16.4198 8.95995C16.6698 9.27995 16.5998 9.74995 16.2698 9.99995L12.6998 12.66L16.2898 15.33C16.6198 15.58 16.6898 16.05 16.4398 16.37Z" fill="white"/> <path d="M23.3399 4.93997C23.3399 5.00997 23.2999 5.16997 23.1099 5.22997L22.1299 5.49997C21.2799 5.72997 20.6399 6.36997 20.4099 7.21997L20.1499 8.17997C20.0899 8.39997 19.9199 8.41997 19.8399 8.41997C19.7599 8.41997 19.5899 8.39997 19.5299 8.17997L19.2699 7.20997C19.0399 6.36997 18.3899 5.72997 17.5499 5.49997L16.5799 5.23997C16.3699 5.17997 16.3499 4.99997 16.3499 4.92997C16.3499 4.84997 16.3699 4.66997 16.5799 4.60997L17.5599 4.34997C18.3999 4.10997 19.0399 3.46997 19.2699 2.62997L19.5499 1.60997C19.6199 1.43997 19.7799 1.40997 19.8399 1.40997C19.8999 1.40997 20.0699 1.42997 20.1299 1.58997L20.4099 2.61997C20.6399 3.45997 21.2899 4.09997 22.1299 4.33997L23.1299 4.61997C23.3299 4.69997 23.3399 4.87997 23.3399 4.93997Z" fill="white"/> </g> <defs> <clipPath id="clip0_3111_16818"> <rect width="24" height="24" fill="white"/> </clipPath> </defs> </svg>
