<svg width="24" height="24" viewBox="0 0 24 24" fill="none" xmlns="http://www.w3.org/2000/svg"> <g clip-path="url(#clip0_3111_17105)"> <path opacity="0.4" d="M18.73 15.33C18.41 15.33 18.15 15.59 18.15 15.91V18.06C18.15 18.57 17.74 18.99 17.23 18.99H15.05C14.28 18.99 13.65 19.61 13.65 20.39V21.32C13.65 21.89 13.19 22.36 12.62 22.36H7.39996C6.82996 22.36 6.36996 21.89 6.36996 21.32V16.2C6.36996 15.77 6.15996 15.37 5.83996 15.08C4.29996 13.67 3.32996 11.65 3.32996 9.40003C3.32996 4.88003 7.20996 1.27003 11.82 1.72003C13.59 1.89003 15.18 2.83003 16.4 4.12003C18.52 6.39003 18.93 8.42003 18.71 10.26C18.67 10.6 18.71 10.94 18.84 11.26L19.87 13.59C20.24 14.41 19.63 15.34 18.73 15.33Z" fill="white"/> <path d="M12.4799 11.47L10.2699 6.93004C10.0199 6.41004 9.16995 6.41004 8.91995 6.93004L6.70995 11.47C6.52995 11.84 6.67995 12.29 7.04995 12.47C7.42995 12.65 7.87995 12.5 8.05995 12.12L8.35995 11.5H10.8299L11.1299 12.12C11.2599 12.39 11.5299 12.54 11.7999 12.54C11.9099 12.54 12.0299 12.52 12.1299 12.47C12.4999 12.29 12.6599 11.84 12.4799 11.47ZM9.08995 10L9.58995 8.97004L10.0999 10H9.08995Z" fill="white"/> <path d="M15.4199 7.25V11.79C15.4199 12.21 15.0899 12.54 14.6699 12.54C14.2499 12.54 13.9199 12.21 13.9199 11.79V7.25C13.9199 6.84 14.2599 6.5 14.6699 6.5C15.0799 6.5 15.4199 6.84 15.4199 7.25Z" fill="white"/> </g> <defs> <clipPath id="clip0_3111_17105"> <rect width="24" height="24" fill="white"/> </clipPath> </defs> </svg>
