<svg width="24" height="24" viewBox="0 0 24 24" fill="none" xmlns="http://www.w3.org/2000/svg"> <g clip-path="url(#clip0_3111_16836)"> <path opacity="0.4" d="M21.75 6.86999V10.08C21.75 10.83 20.98 11.3 20.29 11.01C19.16 10.51 17.88 10.33 16.54 10.54C13.85 10.99 11.65 13.11 11.11 15.78C10.95 16.56 10.93 17.32 11.04 18.05C11.12 18.65 10.63 19.18 10.02 19.18H6.35998C3.27998 19.18 1.22998 17.65 1.22998 14.05V6.86999C1.22998 3.27999 3.27998 1.73999 6.35998 1.73999H16.62C19.7 1.73999 21.75 3.27999 21.75 6.86999Z" fill="white"/> <path d="M17.1 7.47998L13.89 10.04C13.21 10.59 12.35 10.85 11.49 10.85C10.63 10.85 9.75001 10.59 9.09001 10.04L5.88001 7.47998C5.55001 7.20998 5.50001 6.72998 5.75001 6.38998C6.02001 6.05998 6.50001 5.99998 6.83001 6.26998L10.04 8.82998C10.82 9.45998 12.15 9.45998 12.92 8.82998L16.14 6.26998C16.46 5.99998 16.96 6.04998 17.21 6.38998C17.48 6.72998 17.43 7.20998 17.1 7.47998Z" fill="white"/> <path d="M17.64 12C14.81 12 12.51 14.29 12.51 17.13C12.51 19.97 14.81 22.26 17.64 22.26C20.47 22.26 22.77 19.97 22.77 17.13C22.77 14.29 20.49 12 17.64 12ZM20.84 17.43L19.89 17.69C19.07 17.92 18.43 18.55 18.2 19.38L17.94 20.33C17.85 20.64 17.41 20.64 17.33 20.33L17.07 19.38C16.84 18.56 16.21 17.92 15.38 17.69L14.43 17.43C14.12 17.34 14.12 16.9 14.43 16.82L15.38 16.56C16.2 16.33 16.84 15.7 17.07 14.87L17.33 13.92C17.42 13.61 17.86 13.61 17.94 13.92L18.2 14.87C18.43 15.69 19.06 16.33 19.89 16.56L20.84 16.82C21.15 16.91 21.15 17.35 20.84 17.43Z" fill="white"/> </g> <defs> <clipPath id="clip0_3111_16836"> <rect width="24" height="24" fill="white"/> </clipPath> </defs> </svg>
