<svg width="24" height="24" viewBox="0 0 24 24" fill="none" xmlns="http://www.w3.org/2000/svg"> <g clip-path="url(#clip0_3111_16824)"> <path opacity="0.4" d="M21.96 12C21.96 13.08 21.39 14.07 20.46 14.61L20.22 14.75L20.19 14.65C20 14.15 19.55 13.81 18.99 13.81C18.44 13.81 17.96 14.14 17.77 14.64L17.71 14.81L17.45 15.76C17.31 16.26 16.94 16.63 16.43 16.78L15.47 17.03C14.87 17.2 14.49 17.7 14.49 18.31C14.49 18.92 14.88 19.42 15.45 19.58L16.43 19.85C16.77 19.94 17.04 20.15 17.23 20.43C17.15 20.5 17.07 20.57 16.98 20.63C16.04 21.17 14.9 21.17 13.97 20.63L13.51 20.36C12.58 19.82 11.42 19.82 10.49 20.36L10.04 20.63C9.11004 21.17 7.96004 21.17 7.03004 20.63C6.09004 20.09 5.52004 19.1 5.52004 18.02V17.49C5.52004 16.41 4.93004 15.42 4.01004 14.88L3.55004 14.61C2.61004 14.07 2.04004 13.08 2.04004 12C2.04004 10.92 2.61004 9.93003 3.55004 9.39003L4.01004 9.12003C4.95004 8.58003 5.52004 7.59003 5.52004 6.51003V5.98003C5.52004 4.90003 6.10004 3.91003 7.03004 3.37003C7.96004 2.83003 9.11004 2.83003 10.04 3.37003L10.49 3.64003C11.42 4.18003 12.58 4.18003 13.51 3.64003L13.97 3.37003C14.9 2.83003 16.04 2.83003 16.98 3.37003C17.91 3.91003 18.48 4.90003 18.48 5.98003V6.51003C18.48 7.59003 19.07 8.58003 20 9.12003L20.46 9.39003C21.39 9.93003 21.96 10.92 21.96 12Z" fill="white"/> <path d="M11.8901 15.0101C13.5525 15.0101 14.9001 13.6624 14.9001 12.0001C14.9001 10.3377 13.5525 8.99005 11.8901 8.99005C10.2278 8.99005 8.88013 10.3377 8.88013 12.0001C8.88013 13.6624 10.2278 15.0101 11.8901 15.0101Z" fill="white"/> <path d="M22.49 18.33C22.49 18.4 22.45 18.56 22.26 18.62L21.28 18.89C20.43 19.12 19.79 19.76 19.56 20.61L19.3 21.57C19.24 21.79 19.07 21.81 18.99 21.81C18.91 21.81 18.74 21.79 18.68 21.57L18.42 20.6C18.19 19.76 17.54 19.12 16.7 18.89L15.73 18.63C15.52 18.57 15.5 18.39 15.5 18.32C15.5 18.24 15.52 18.06 15.73 18L16.71 17.74C17.55 17.5 18.19 16.86 18.42 16.02L18.7 15C18.77 14.83 18.93 14.8 18.99 14.8C19.05 14.8 19.22 14.82 19.28 14.98L19.56 16.01C19.79 16.85 20.44 17.49 21.28 17.73L22.28 18.01C22.48 18.09 22.49 18.27 22.49 18.33Z" fill="white"/> </g> <defs> <clipPath id="clip0_3111_16824"> <rect width="24" height="24" fill="white"/> </clipPath> </defs> </svg>
