<svg width="24" height="24" viewBox="0 0 24 24" fill="none" xmlns="http://www.w3.org/2000/svg"> <g clip-path="url(#clip0_3111_16580)"> <path d="M16.85 1.05999C15.7 1.05999 14.77 1.98999 14.77 3.13999V7.50999C14.77 8.65999 15.7 9.58999 16.85 9.58999H21.22C22.37 9.58999 23.3 8.65999 23.3 7.50999V3.12999C23.3 1.97999 22.37 1.04999 21.22 1.04999L16.85 1.05999ZM21.87 8.15999C21.79 8.23999 21.68 8.27999 21.58 8.27999C21.48 8.27999 21.37 8.23999 21.29 8.15999L20.19 7.05999C19.76 7.36999 19.24 7.55999 18.67 7.55999C17.23 7.55999 16.07 6.39999 16.07 4.95999C16.07 3.51999 17.23 2.35999 18.67 2.35999C20.11 2.35999 21.27 3.51999 21.27 4.95999C21.27 5.52999 21.08 6.04999 20.77 6.47999L21.87 7.57999C22.03 7.73999 22.03 7.99999 21.87 8.15999Z" fill="white"/> <path opacity="0.4" d="M16.8499 10.83C15.0099 10.83 13.5199 9.33999 13.5199 7.49999V3.12999C13.5199 2.40999 13.7499 1.74999 14.1399 1.20999H8.2699C5.1599 1.20999 2.6499 3.72999 2.6499 6.82999V15.61C2.6499 15.71 2.6499 15.81 2.6599 15.91C2.8699 15.7 3.0299 15.43 3.1199 15.13L3.4499 13.91L3.5199 13.68C3.7899 12.99 4.4299 12.51 5.1799 12.51C5.9499 12.51 6.6099 12.95 6.8699 13.64L6.9199 13.78L7.2799 15.1C7.4499 15.71 7.8999 16.16 8.4999 16.33L9.7499 16.66C10.5198 16.9166 11.0999 17.6104 11.0999 18.44C11.0999 19.215 10.5919 19.9134 9.8499 20.15L8.5199 20.52C8.1199 20.63 7.7999 20.87 7.5699 21.19C7.7999 21.22 8.0299 21.24 8.2699 21.24H17.0499C20.1599 21.24 22.6699 18.72 22.6699 15.62V10.5C22.2299 10.72 21.7399 10.85 21.2199 10.85L16.8499 10.83Z" fill="white"/> <path d="M9.70995 18.46C9.70995 18.55 9.65995 18.75 9.41995 18.83L8.14995 19.18C7.05995 19.48 6.23995 20.3 5.93995 21.39L5.59995 22.63C5.51995 22.91 5.29995 22.94 5.19995 22.94C5.09995 22.94 4.87995 22.91 4.79995 22.63L4.45995 21.38C4.15995 20.3 3.32995 19.48 2.24995 19.18L0.999951 18.84C0.729951 18.76 0.699951 18.53 0.699951 18.44C0.699951 18.34 0.729951 18.11 0.999951 18.03L2.25995 17.7C3.33995 17.39 4.15995 16.57 4.45995 15.49L4.81995 14.18C4.90995 13.96 5.10995 13.93 5.19995 13.93C5.28995 13.93 5.49995 13.96 5.57995 14.16L5.93995 15.48C6.23995 16.56 7.06995 17.38 8.14995 17.69L9.43995 18.04C9.69995 18.14 9.70995 18.38 9.70995 18.46Z" fill="white"/> </g> <defs> <clipPath id="clip0_3111_16580"> <rect width="24" height="24" fill="white"/> </clipPath> </defs> </svg>
