<svg width="24" height="24" viewBox="0 0 24 24" fill="none" xmlns="http://www.w3.org/2000/svg"> <g clip-path="url(#clip0_2085_382782)"> <path d="M20.36 8.03C20.1 7.98 19.88 7.81 19.75 7.58L19.57 7.29C17.98 4.63 15.1 3 12 3C10.45 3 8.95996 3.41 7.64996 4.15C6.33996 4.89 5.21996 5.96 4.42996 7.29L4.24996 7.58C4.11996 7.81 3.89996 7.98 3.63996 8.03C2.71996 8.2 2.03996 8.99 1.99996 9.93C1.96996 10.86 2.57996 11.7 3.48996 11.94C3.65996 11.98 3.82996 12 3.99996 12C4.73996 12 5.42996 11.6 5.77996 10.92C5.81996 10.83 5.90996 10.78 5.99996 10.78C6.09996 10.78 6.17996 10.83 6.21996 10.92C6.56996 11.58 7.24996 12 7.99996 12C8.74996 12 9.42996 11.58 9.77996 10.92C9.81996 10.83 9.89996 10.78 9.99996 10.78C10.1 10.78 10.18 10.83 10.22 10.92C10.57 11.58 11.25 12 12 12C12.75 12 13.43 11.58 13.78 10.92C13.82 10.83 13.9 10.78 14 10.78C14.1 10.78 14.18 10.83 14.22 10.92C14.57 11.58 15.25 12 16 12C16.75 12 17.43 11.58 17.78 10.92C17.82 10.83 17.9 10.78 18 10.78C18.1 10.78 18.18 10.83 18.22 10.92C18.57 11.6 19.26 12 20 12C20.17 12 20.34 11.98 20.51 11.94C21.42 11.7 22.04 10.86 22 9.92C21.96 8.99 21.28 8.2 20.36 8.03ZM10.78 7.53L10.28 8.03C10.13 8.18 9.93996 8.25 9.74996 8.25C9.55996 8.25 9.36996 8.18 9.21996 8.03C8.92996 7.74 8.92996 7.26 9.21996 6.97L9.71996 6.47C10.01 6.18 10.49 6.18 10.78 6.47C11.07 6.76 11.07 7.24 10.78 7.53ZM14.78 8.03C14.63 8.18 14.44 8.25 14.25 8.25C14.06 8.25 13.87 8.18 13.72 8.03L13.22 7.53C12.93 7.24 12.93 6.76 13.22 6.47C13.51 6.18 13.99 6.18 14.28 6.47L14.78 6.97C15.07 7.26 15.07 7.74 14.78 8.03Z" fill="white"/> <g opacity="0.4"> <path d="M20 12L19.24 18.36C19.06 19.86 17.78 21 16.26 21H7.74C6.22 21 4.94 19.86 4.76 18.36L4 12C4.74 12 5.43 11.6 5.78 10.92C5.82 10.83 5.91 10.78 6 10.78C6.1 10.78 6.18 10.83 6.22 10.92C6.57 11.58 7.25 12 8 12C8.75 12 9.43 11.58 9.78 10.92C9.82 10.83 9.9 10.78 10 10.78C10.1 10.78 10.18 10.83 10.22 10.92C10.57 11.58 11.25 12 12 12C12.75 12 13.43 11.58 13.78 10.92C13.82 10.83 13.9 10.78 14 10.78C14.1 10.78 14.18 10.83 14.22 10.92C14.57 11.58 15.25 12 16 12C16.75 12 17.43 11.58 17.78 10.92C17.82 10.83 17.9 10.78 18 10.78C18.1 10.78 18.18 10.83 18.22 10.92C18.57 11.6 19.26 12 20 12Z" fill="white"/> </g> </g> <defs> <clipPath id="clip0_2085_382782"> <rect width="24" height="24" fill="white"/> </clipPath> </defs> </svg>
