<svg width="24" height="24" viewBox="0 0 24 24" fill="none" xmlns="http://www.w3.org/2000/svg"> <g clip-path="url(#clip0_4482_14043)"> <g opacity="0.4"> <path d="M14.0401 20.7904C13.9101 20.8104 13.7601 20.8204 13.6001 20.8204C12.2101 20.8204 9.76011 19.9204 7.80011 18.6404C7.45011 18.4104 7.36011 17.9504 7.5801 17.6004C7.8101 17.2504 8.2801 17.1604 8.6201 17.3804C10.8601 18.8404 13.1901 19.4204 13.7501 19.3104C14.9201 19.0804 20.3701 14.2304 19.4101 9.38041C19.2201 8.47041 18.7401 7.59041 18.0601 6.93041C18.0101 6.89041 17.9701 6.85041 17.9301 6.81041C17.9301 6.81041 17.9301 6.80375 17.9301 6.79041C17.0301 5.96041 15.8201 5.50041 14.5101 5.76041C13.1101 6.04041 12.3701 6.91041 12.0001 7.58041C11.8901 7.78041 11.7001 7.91041 11.4901 7.96041C11.2701 8.00041 11.0401 7.94041 10.8701 7.80041C10.2701 7.32041 9.2501 6.80041 7.8701 7.08041C6.6001 7.33041 5.8401 8.12041 5.4301 8.74041C4.7401 9.77041 4.4801 11.1004 4.7201 12.3004C4.8701 13.0604 5.1701 13.7804 5.6501 14.5104C5.88011 14.8604 5.7801 15.3204 5.4301 15.5504C5.0901 15.7704 4.6201 15.6804 4.3901 15.3304C3.8201 14.4504 3.4301 13.5304 3.2501 12.6004C2.9301 11.0204 3.2801 9.26041 4.1801 7.91041C5.0001 6.68041 6.1701 5.88041 7.57011 5.60041C8.82011 5.35041 10.0601 5.55041 11.1401 6.17041C11.7101 5.44041 12.6701 4.60041 14.2101 4.29041C15.8301 3.96041 17.3301 4.42041 18.5001 5.32041C18.9001 5.62041 19.2601 5.97041 19.5801 6.36041C20.2301 7.16041 20.6901 8.11041 20.8901 9.08041C22.0201 14.7904 15.8901 20.4204 14.0501 20.7904H14.0401Z" fill="white"/> </g> <path d="M22.7498 3.22006L22.7198 6.45006C22.7198 6.86006 22.3798 7.19006 21.9698 7.19006C21.5598 7.19006 21.2198 6.85006 21.2198 6.43006L21.2398 4.89006L19.5698 6.36006C19.2498 5.97006 18.8898 5.62006 18.4898 5.32006L20.2698 3.75006L18.7298 3.55006C18.3198 3.50006 18.0298 3.13006 18.0798 2.72006C18.1298 2.31006 18.5098 2.02006 18.9198 2.07006L22.0998 2.47006C22.3898 2.50006 22.6198 2.71006 22.7098 2.98006C22.7198 3.00006 22.7198 3.02006 22.7198 3.05006C22.7298 3.10006 22.7498 3.16006 22.7498 3.22006Z" fill="white"/> <path d="M12.8195 11.2805C12.5495 10.9705 12.0695 10.9405 11.7595 11.2105L7.78953 14.6905L5.02953 14.1705C4.79953 14.1305 4.56953 14.1905 4.39953 14.3405L1.74953 16.6605C1.32953 17.0305 1.15953 17.6005 1.30953 18.1405C1.45953 18.6905 1.88953 19.1005 2.45953 19.2105L3.55953 19.4105L3.61953 20.5305C3.64953 21.1005 3.98953 21.6005 4.51953 21.8205C4.69953 21.9005 4.89953 21.9305 5.08953 21.9305C5.43953 21.9305 5.77953 21.8005 6.04953 21.5705L8.69953 19.2605C8.86953 19.1105 8.96953 18.8805 8.95953 18.6505L8.81953 15.8005L12.7795 12.3305C13.0895 12.0605 13.1195 11.5805 12.8495 11.2705L12.8195 11.2805Z" fill="white"/> </g> <defs> <clipPath id="clip0_4482_14043"> <rect width="24" height="24" fill="white"/> </clipPath> </defs> </svg>
