<svg width="24" height="24" viewBox="0 0 24 24" fill="none" xmlns="http://www.w3.org/2000/svg"> <path d="M2 16.8502L11.46 7.39016C11.53 7.32016 11.61 7.26016 11.7 7.22016C11.79 7.18016 11.89 7.16016 11.99 7.16016C12.09 7.16016 12.19 7.18016 12.28 7.22016C12.37 7.26016 12.46 7.32016 12.52 7.39016L21.98 16.8502" fill="white"/> <path d="M12.1494 6.31348C12.2567 6.3242 12.3647 6.34516 12.4707 6.37891L12.6269 6.43848L12.7607 6.50586C12.8823 6.57355 13.0093 6.66712 13.123 6.78711L13.125 6.78516L22.585 16.2451C22.8295 16.4896 22.9019 16.8582 22.7695 17.1777C22.6371 17.4968 22.3259 17.7049 21.9805 17.7051H1.99999C1.65428 17.7051 1.34236 17.4971 1.20995 17.1777C1.07761 16.8582 1.15097 16.4896 1.3955 16.2451L10.8555 6.78516C10.9811 6.65958 11.1454 6.53053 11.3525 6.43848L11.5098 6.37891C11.6684 6.32845 11.8316 6.30469 11.9902 6.30469L12.1494 6.31348ZM4.06444 15.9951H19.915L11.9892 8.06934L4.06444 15.9951Z" fill="white"/> </svg>
