<svg width="24" height="24" viewBox="0 0 24 24" fill="none" xmlns="http://www.w3.org/2000/svg"> <g clip-path="url(#clip0_2085_393609)"> <path d="M18.1201 16.6302C17.9301 16.6302 17.7401 16.5602 17.5901 16.4102C17.3001 16.1202 17.3001 15.6402 17.5901 15.3502L18.1401 14.8002L17.5901 14.2502C17.3001 13.9602 17.3001 13.4802 17.5901 13.1902C17.8801 12.9002 18.3601 12.9002 18.6501 13.1902L19.7301 14.2702C20.0201 14.5602 20.0201 15.0402 19.7301 15.3302L18.6501 16.4102C18.5001 16.5602 18.3101 16.6302 18.1201 16.6302Z" fill="white"/> <path d="M5.86998 16.6302C5.67998 16.6302 5.48998 16.5602 5.33998 16.4102L4.25998 15.3302C3.96998 15.0402 3.96998 14.5602 4.25998 14.2702L5.33998 13.1902C5.62998 12.9002 6.10998 12.9002 6.39998 13.1902C6.68998 13.4802 6.68998 13.9602 6.39998 14.2502L5.84998 14.8002L6.39998 15.3502C6.68998 15.6402 6.68998 16.1202 6.39998 16.4102C6.24998 16.5602 6.05998 16.6302 5.86998 16.6302Z" fill="white"/> <path d="M12 16.0101C11.81 16.0101 11.62 15.9401 11.47 15.7901L10.39 14.7101C10.1 14.4201 10.1 13.9401 10.39 13.6501C10.68 13.3601 11.16 13.3601 11.45 13.6501L12 14.2001L12.55 13.6501C12.84 13.3601 13.32 13.3601 13.61 13.6501C13.9 13.9401 13.9 14.4201 13.61 14.7101L12.53 15.7901C12.38 15.9401 12.19 16.0101 12 16.0101Z" fill="white"/> <path d="M13.08 9.51012C12.89 9.51012 12.7 9.44012 12.55 9.29012L12 8.74012L11.45 9.29012C11.16 9.58012 10.68 9.58012 10.39 9.29012C10.1 9.00012 10.1 8.52012 10.39 8.23012L11.47 7.15012C11.76 6.86012 12.24 6.86012 12.53 7.15012L13.61 8.23012C13.9 8.52012 13.9 9.00012 13.61 9.29012C13.46 9.44012 13.27 9.51012 13.08 9.51012Z" fill="white"/> <g opacity="0.4"> <path d="M7.67001 11.46H3.01001C2.45772 11.46 2.01001 11.9077 2.01001 12.46V17.13C2.01001 17.6822 2.45772 18.13 3.01001 18.13H7.67001C8.22229 18.13 8.67001 17.6822 8.67001 17.13V12.46C8.67001 11.9077 8.22229 11.46 7.67001 11.46Z" fill="white"/> </g> <g opacity="0.4"> <path d="M22 12.4598V17.1298C22 17.6798 21.55 18.1298 21 18.1298H16.33C15.78 18.1298 15.33 17.6798 15.33 17.1298C15.33 17.6798 14.88 18.1298 14.33 18.1298H9.67003C9.12003 18.1298 8.67003 17.6798 8.67003 17.1298V12.4598C8.67003 11.9098 9.11003 11.4698 9.66003 11.4598C9.11003 11.4598 8.66003 11.0098 8.66003 10.4598V5.7998C8.66003 5.2498 9.11003 4.7998 9.66003 4.7998H14.33C14.88 4.7998 15.33 5.2498 15.33 5.7998V10.4598C15.33 11.0098 14.88 11.4598 14.33 11.4598C14.88 11.4598 15.33 11.9098 15.33 12.4598C15.33 11.9098 15.78 11.4598 16.33 11.4598H21C21.55 11.4598 22 11.9098 22 12.4598Z" fill="white"/> </g> </g> <defs> <clipPath id="clip0_2085_393609"> <rect width="24" height="24" fill="white"/> </clipPath> </defs> </svg>
