<svg width="24" height="24" viewBox="0 0 24 24" fill="none" xmlns="http://www.w3.org/2000/svg"> <g clip-path="url(#clip0_4482_10075)"> <g opacity="0.4"> <path d="M22 6.65006V17.3501C22 19.6101 20.17 21.4401 17.9 21.4401H6.1C3.83 21.4401 2 19.6101 2 17.3501V6.65006C2 4.39006 3.83 2.56006 6.1 2.56006H17.9C20.17 2.56006 22 4.39006 22 6.65006Z" fill="white"/> </g> <path d="M22 8.47008H16.01L13.39 6.38008C12.58 5.73008 11.42 5.73008 10.61 6.38008L7.99 8.47008H2V9.97008H6.61C6.51 10.2301 6.44 10.5001 6.44 10.7801V21.4401H10.17V18.8301C10.17 17.8201 10.99 17.0001 12 17.0001C13.01 17.0001 13.83 17.8201 13.83 18.8301V21.4401H17.55V10.7801C17.55 10.5001 17.49 10.2301 17.39 9.97008H22V8.47008ZM12.71 11.2901C12.51 11.4801 12.25 11.5801 12 11.5801C11.73 11.5801 11.46 11.4801 11.26 11.2701C10.87 10.8701 10.88 10.2201 11.28 9.82008C11.48 9.63008 11.73 9.55008 12.01 9.53008C12.28 9.54008 12.54 9.65008 12.73 9.84008C13.12 10.2501 13.11 10.8901 12.71 11.2901Z" fill="white"/> </g> <defs> <clipPath id="clip0_4482_10075"> <rect width="24" height="24" fill="white"/> </clipPath> </defs> </svg>
