<svg width="24" height="24" viewBox="0 0 24 24" fill="none" xmlns="http://www.w3.org/2000/svg"> <g clip-path="url(#clip0_2085_387908)"> <path d="M3.43994 17.3096C3.24994 17.3096 3.05994 17.2396 2.90994 17.0896L1.46994 15.6496C1.17994 15.3596 1.17994 14.8796 1.46994 14.5896C1.75994 14.2996 2.23994 14.2996 2.52994 14.5896L3.96994 16.0296C4.25994 16.3196 4.25994 16.7996 3.96994 17.0896C3.81994 17.2396 3.62994 17.3096 3.43994 17.3096Z" fill="white"/> <path d="M8.87994 22.7496C8.68994 22.7496 8.49994 22.6796 8.34994 22.5296L1.46994 15.6496C1.17994 15.3596 1.17994 14.8796 1.46994 14.5896C1.75994 14.2996 2.23994 14.2996 2.52994 14.5896L9.40994 21.4696C9.69994 21.7596 9.69994 22.2396 9.40994 22.5296C9.25994 22.6796 9.06994 22.7496 8.87994 22.7496Z" fill="white"/> <g opacity="0.4"> <path d="M17.4499 10.5498L16.4499 13.5598L10.4399 7.5498L13.4499 6.5498L17.4499 10.5498Z" fill="white"/> </g> <path d="M16.4499 13.5598L11.1499 18.8598C10.7599 19.2498 10.1299 19.2498 9.73991 18.8598L5.43991 14.5598L5.13991 14.2698C4.74991 13.8698 4.74991 13.2398 5.13991 12.8498L10.4399 7.5498L16.4499 13.5598Z" fill="white"/> <g opacity="0.4"> <path d="M5.44349 14.5575L3.44238 16.5586L7.44461 20.5608L9.44572 18.5597L5.44349 14.5575Z" fill="white"/> </g> <path d="M20.75 7.25L17.45 10.55L13.45 6.55L16.74 3.25C18.75 1.25 21.75 2.25 21.75 2.25C21.75 2.25 22.75 5.25 20.75 7.25Z" fill="white"/> </g> <defs> <clipPath id="clip0_2085_387908"> <rect width="24" height="24" fill="white"/> </clipPath> </defs> </svg>
