<svg width="24" height="24" viewBox="0 0 24 24" fill="none" xmlns="http://www.w3.org/2000/svg"> <g clip-path="url(#clip0_2085_391357)"> <path d="M13.25 7.32031V12.6103H10.76V7.32031C10.76 6.90031 10.96 6.53031 11.27 6.31031C11.48 6.16031 11.73 6.07031 12 6.07031C12.34 6.07031 12.65 6.21031 12.88 6.44031C13.11 6.66031 13.25 6.97031 13.25 7.32031Z" fill="white"/> <path d="M13.25 15.0996V18.5596C13.25 19.2496 12.69 19.8096 12 19.8096C11.31 19.8096 10.76 19.2496 10.76 18.5596V15.0996H13.25Z" fill="white"/> <path d="M11.9999 7.85954C11.7299 7.85954 11.4599 7.70954 11.3299 7.44954L9.86994 4.58954C9.67994 4.21954 9.82994 3.76954 10.1999 3.57954C10.5699 3.38954 11.0199 3.53954 11.2099 3.90954L12.6699 6.76954C12.8599 7.13954 12.7099 7.58954 12.3399 7.77954C12.2299 7.83954 12.1099 7.85954 11.9999 7.85954Z" fill="white"/> <path d="M12.0001 8.00971C11.8901 8.00971 11.7801 7.98971 11.6701 7.93971C11.3001 7.75971 11.1401 7.30971 11.3201 6.93971L12.7701 3.93971C12.9501 3.56971 13.4001 3.40971 13.7701 3.58971C14.1401 3.76971 14.3001 4.21971 14.1201 4.58971L12.6701 7.58971C12.5401 7.85971 12.2701 8.00971 11.9901 8.00971H12.0001Z" fill="white"/> <path d="M13.25 12.6104H10.76V15.1004H13.25V12.6104Z" fill="white"/> <g opacity="0.4"> <path d="M10.76 10.61V13.68H6.11C3.84 13.68 2 11.84 2 9.57V7.5C2 6.95 2.45 6.5 3 6.5H6.65C8.92 6.5 10.76 8.34 10.76 10.61Z" fill="white"/> </g> <g opacity="0.4"> <path d="M22 7.5V9.57C22 11.84 20.16 13.68 17.89 13.68H13.25V10.61C13.25 8.34 15.08 6.5 17.35 6.5H21C21.55 6.5 22 6.95 22 7.5Z" fill="white"/> </g> <path d="M10.75 13.6797H7.62997C7.05997 13.8197 6.50997 14.0697 6.08997 14.4897C5.04997 15.5297 5.01997 17.2997 5.10997 18.3397C5.14997 18.8297 5.53997 19.2197 6.02997 19.2597C7.06997 19.3497 8.83997 19.3197 9.87997 18.2797C10.35 17.8097 10.62 17.1797 10.76 16.5497V13.6797H10.75ZM7.61997 17.4297C7.27997 17.4297 6.99997 17.1497 6.99997 16.8097C6.99997 16.4697 7.27997 16.1897 7.61997 16.1897C7.95997 16.1897 8.23997 16.4697 8.23997 16.8097C8.23997 17.1497 7.95997 17.4297 7.61997 17.4297Z" fill="white"/> <path d="M17.91 14.4897C17.49 14.0697 16.94 13.8197 16.37 13.6797H13.26L13.25 13.6897V16.5497C13.38 17.1797 13.65 17.8097 14.13 18.2797C15.16 19.3197 16.93 19.3497 17.97 19.2597C18.46 19.2197 18.85 18.8297 18.89 18.3397C18.98 17.2997 18.95 15.5297 17.91 14.4897ZM16.38 17.4297C16.04 17.4297 15.76 17.1497 15.76 16.8097C15.76 16.4697 16.04 16.1897 16.38 16.1897C16.72 16.1897 17 16.4697 17 16.8097C17 17.1497 16.72 17.4297 16.38 17.4297Z" fill="white"/> <path d="M8.27002 11.0299C7.96002 11.6399 6.87002 11.7199 5.82002 11.1999C4.78002 10.6799 4.18002 9.7599 4.49002 9.1399C4.80002 8.5299 5.89002 8.4499 6.94002 8.9699C7.98002 9.4899 8.58002 10.4099 8.27002 11.0299Z" fill="white"/> <path d="M15.73 11.0299C16.04 11.6399 17.13 11.7199 18.18 11.1999C19.22 10.6799 19.82 9.7599 19.51 9.1399C19.2 8.5299 18.11 8.4499 17.06 8.9699C16.02 9.4899 15.42 10.4099 15.73 11.0299Z" fill="white"/> </g> <defs> <clipPath id="clip0_2085_391357"> <rect width="24" height="24" fill="white"/> </clipPath> </defs> </svg>
