<svg width="24" height="24" viewBox="0 0 24 24" fill="none" xmlns="http://www.w3.org/2000/svg"> <g clip-path="url(#clip0_2085_388143)"> <path d="M18.2302 21.2949C18.6195 21.295 18.9353 21.6107 18.9353 22C18.9353 22.3893 18.6195 22.705 18.2302 22.7051H5.78003C5.39067 22.7051 5.07495 22.3894 5.07495 22C5.07495 21.6106 5.39067 21.2949 5.78003 21.2949H18.2302Z" fill="white"/> <path opacity="0.4" d="M16.98 22V9.47C16.98 7.43 15.75 5.69 13.99 4.92C13.54 4.72 13.25 4.28 13.25 3.79V3.24C13.25 2.55 12.69 2 12.01 2C11.33 2 10.77 2.56 10.77 3.24V3.79C10.77 4.28 10.48 4.72 10.03 4.92C8.27004 5.69 7.04004 7.43 7.04004 9.47V22" fill="white"/> <path d="M14.49 9.47047C14.49 10.8505 13.38 11.9605 12 11.9605C10.62 11.9605 9.51001 10.8505 9.51001 9.47047C9.51001 8.09047 10.62 6.98047 12 6.98047C13.38 6.98047 14.49 8.09047 14.49 9.47047Z" fill="white"/> <path d="M11.2949 15.5703V11.96C11.2949 11.5706 11.6106 11.2549 12 11.2549C12.3894 11.2549 12.7051 11.5706 12.7051 11.96V15.5703C12.7049 15.9595 12.3892 16.2754 12 16.2754C11.6108 16.2754 11.2951 15.9595 11.2949 15.5703Z" fill="white"/> <path d="M12.7414 13.9516C13.0167 13.6763 13.4632 13.6763 13.7385 13.9516C14.0135 14.2269 14.0135 14.6724 13.7385 14.9477L12.4982 16.1879C12.2229 16.4633 11.7765 16.4633 11.5012 16.1879L10.2619 14.9477C9.98659 14.6724 9.98659 14.2269 10.2619 13.9516C10.5372 13.6763 10.9827 13.6763 11.258 13.9516L11.9992 14.6918L12.7414 13.9516Z" fill="white"/> </g> <defs> <clipPath id="clip0_2085_388143"> <rect width="24" height="24" fill="white"/> </clipPath> </defs> </svg>
