<svg width="24" height="24" viewBox="0 0 24 24" fill="none" xmlns="http://www.w3.org/2000/svg"> <g clip-path="url(#clip0_4482_9494)"> <g opacity="0.4"> <path d="M20.0005 5.97998V11.99H18.0005C17.4405 11.99 16.9405 12.21 16.5805 12.57C16.2205 12.94 16.0005 13.44 16.0005 13.99C16.0005 15.09 16.8905 15.99 18.0005 15.99H5.98047C6.54047 15.99 7.04047 15.76 7.40047 15.4C7.76047 15.04 7.98047 14.54 7.98047 13.99C7.98047 12.88 7.09047 11.99 5.98047 11.99H3.98047V5.97998C3.98047 3.76998 5.77047 1.97998 7.98047 1.97998H16.0005C18.2105 1.97998 20.0005 3.76998 20.0005 5.97998Z" fill="white"/> </g> <path d="M20.5005 15.99H20.0005C20.5605 15.99 21.0605 15.76 21.4205 15.4C21.7805 15.04 22.0005 14.54 22.0005 13.99C22.0005 12.88 21.1105 11.99 20.0005 11.99H18.0005C17.4405 11.99 16.9405 12.21 16.5805 12.57C16.2205 12.94 16.0005 13.44 16.0005 13.99C16.0005 15.09 16.8905 15.99 18.0005 15.99H5.98047C6.54047 15.99 7.04047 15.76 7.40047 15.4C7.76047 15.04 7.98047 14.54 7.98047 13.99C7.98047 12.88 7.09047 11.99 5.98047 11.99H3.98047C3.42047 11.99 2.92047 12.21 2.56047 12.57C2.20047 12.94 1.98047 13.44 1.98047 13.99C1.98047 15.09 2.87047 15.99 3.98047 15.99H3.48047C2.65047 15.99 1.98047 16.66 1.98047 17.49V18.49C1.98047 19.24 2.52047 19.86 3.23047 19.97C3.23047 19.97 3.23047 19.98 3.23047 19.99V21.99C3.23047 22.4 3.57047 22.74 3.98047 22.74C4.39047 22.74 4.73047 22.4 4.73047 21.99V19.99H19.2505V21.99C19.2505 22.4 19.5905 22.74 20.0005 22.74C20.4105 22.74 20.7505 22.4 20.7505 21.99V19.99C20.7505 19.99 20.7505 19.98 20.7505 19.97C21.4605 19.85 22.0005 19.23 22.0005 18.49V17.49C22.0005 16.66 21.3305 15.99 20.5005 15.99Z" fill="white"/> </g> <defs> <clipPath id="clip0_4482_9494"> <rect width="24" height="24" fill="white"/> </clipPath> </defs> </svg>
