<svg width="24" height="24" viewBox="0 0 24 24" fill="none" xmlns="http://www.w3.org/2000/svg"> <g clip-path="url(#clip0_4482_6242)"> <path opacity="0.4" d="M12.31 16.4098C12.14 16.4698 11.86 16.4698 11.69 16.4098C10.24 15.9098 7 13.8498 7 10.3398C7 8.79981 8.24 7.5498 9.78 7.5498C10.69 7.5498 11.5 7.9898 12 8.6698C12.51 7.9898 13.32 7.5498 14.22 7.5498C15.76 7.5498 17 8.79981 17 10.3398C17 13.8498 13.76 15.9098 12.31 16.4098Z" fill="white"/> <path opacity="0.4" d="M12 16.8299C11.85 16.8299 11.69 16.8099 11.57 16.7599C9.66001 16.0999 6.63 13.7799 6.63 10.3399C6.63 8.58992 8.05001 7.16992 9.79001 7.16992C10.63 7.16992 11.43 7.50992 12.01 8.08992C12.6 7.50992 13.4 7.16992 14.23 7.16992C15.97 7.16992 17.39 8.58992 17.39 10.3399C17.39 13.7799 14.36 16.0999 12.45 16.7599C12.31 16.8099 12.15 16.8299 12 16.8299ZM9.78 7.91992C8.45 7.91992 7.37 8.99992 7.37 10.3399C7.37 13.7599 10.66 15.6599 11.81 16.0599C11.9 16.0899 12.09 16.0899 12.18 16.0599C13.33 15.6599 16.62 13.7599 16.62 10.3399C16.62 9.00992 15.54 7.91992 14.21 7.91992C13.46 7.91992 12.75 8.27992 12.29 8.88992C12.22 8.97992 12.09 9.02992 11.99 9.03992C11.87 9.03992 11.76 8.97992 11.69 8.88992C11.25 8.28992 10.54 7.91992 9.78 7.91992Z" fill="white"/> <path d="M15 22.7502C14.73 22.7502 14.48 22.6002 14.35 22.3702C14.22 22.1302 14.2199 21.8502 14.3599 21.6102L15.41 19.8602C15.62 19.5102 16.08 19.3902 16.44 19.6002C16.8 19.8102 16.91 20.2702 16.7 20.6302L16.4299 21.0802C19.1899 20.4302 21.26 17.9502 21.26 14.9902C21.26 14.5802 21.6 14.2402 22.01 14.2402C22.42 14.2402 22.76 14.5802 22.76 14.9902C22.75 19.2702 19.27 22.7502 15 22.7502Z" fill="white"/> <path d="M2 9.75C1.59 9.75 1.25 9.41 1.25 9C1.25 4.73 4.73 1.25 9 1.25C9.27 1.25 9.51999 1.4 9.64999 1.63C9.77999 1.87 9.78001 2.15 9.64001 2.39L8.59 4.14C8.38 4.49 7.92 4.61 7.56 4.4C7.2 4.19 7.08999 3.73 7.29999 3.37L7.57001 2.92C4.81001 3.57 2.73999 6.05 2.73999 9.01C2.74999 9.41 2.41 9.75 2 9.75Z" fill="white"/> </g> <defs> <clipPath id="clip0_4482_6242"> <rect width="24" height="24" fill="white"/> </clipPath> </defs> </svg>
