<svg width="24" height="24" viewBox="0 0 24 24" fill="none" xmlns="http://www.w3.org/2000/svg"> <g clip-path="url(#clip0_4482_634)"> <path opacity="0.4" d="M17 22H7C4.25 22 2 19.75 2 17V7C2 4.25 4.25 2 7 2H17C19.75 2 22 4.25 22 7V17C22 19.75 19.75 22 17 22Z" fill="white"/> <path d="M17.65 14.75H16.52V10.5C16.52 10.09 16.18 9.75 15.77 9.75C15.36 9.75 15.02 10.09 15.02 10.5V14.75H12.75V8.5C12.75 8.09 12.41 7.75 12 7.75C11.59 7.75 11.25 8.09 11.25 8.5V14.75H8.97998V11.5C8.97998 11.09 8.63998 10.75 8.22998 10.75C7.81998 10.75 7.47998 11.09 7.47998 11.5V14.75H6.33997C5.92997 14.75 5.58997 15.09 5.58997 15.5C5.58997 15.91 5.92997 16.25 6.33997 16.25H17.65C18.06 16.25 18.4 15.91 18.4 15.5C18.4 15.09 18.06 14.75 17.65 14.75Z" fill="white"/> </g> <defs> <clipPath id="clip0_4482_634"> <rect width="24" height="24" fill="white"/> </clipPath> </defs> </svg>
