<svg width="24" height="24" viewBox="0 0 24 24" fill="none" xmlns="http://www.w3.org/2000/svg"> <g clip-path="url(#clip0_2085_393036)"> <g opacity="0.4"> <path d="M18.85 2H5.15002C6.19002 2 7.02002 3.24 7.02002 5.73V19C7.02002 20.66 8.36002 22 10.02 22H17.71C19.37 22 20.71 20.66 20.71 19V5.73C20.71 3.24 19.88 2 18.85 2ZM14.0327 8.14774C13.9364 8.21984 13.8035 8.22006 13.707 8.14823C12.3163 7.11356 11.38 6.5073 11.38 5.66C11.38 5.02 11.88 4.49 12.62 4.49C13.57 4.49 13.87 5.42 13.87 5.42C13.87 5.42 14.17 4.49 15.11 4.49C15.85 4.49 16.36 5.02 16.36 5.66C16.36 6.50716 15.4147 7.11336 14.0327 8.14774Z" fill="white"/> </g> <path d="M7.02004 5.73H4.29004C3.73775 5.73 3.28157 5.28007 3.33991 4.73088C3.53354 2.9082 4.26855 2 5.15004 2C6.18004 2 7.02004 3.24 7.02004 5.73Z" fill="white"/> <path d="M16.36 5.66023C16.36 6.50739 15.4147 7.1136 14.0327 8.14797C13.9363 8.22007 13.8035 8.22029 13.707 8.14847C12.3163 7.11379 11.38 6.50753 11.38 5.66023C11.38 5.02023 11.88 4.49023 12.62 4.49023C13.2256 4.49023 13.567 4.86812 13.735 5.14213C13.7858 5.2249 13.9541 5.22482 14.0046 5.14194C14.1718 4.86795 14.511 4.49023 15.11 4.49023C15.85 4.49023 16.36 5.02023 16.36 5.66023Z" fill="white"/> <path d="M15.73 11.5098H12C11.59 11.5098 11.25 11.1698 11.25 10.7598C11.25 10.3498 11.59 10.0098 12 10.0098H15.73C16.14 10.0098 16.48 10.3498 16.48 10.7598C16.48 11.1698 16.14 11.5098 15.73 11.5098Z" fill="white"/> <path d="M18.22 13.9902H9.51001C9.10001 13.9902 8.76001 13.6502 8.76001 13.2402C8.76001 12.8302 9.10001 12.4902 9.51001 12.4902H18.22C18.63 12.4902 18.97 12.8302 18.97 13.2402C18.97 13.6502 18.63 13.9902 18.22 13.9902Z" fill="white"/> <path d="M18.22 16.4805H9.51001C9.10001 16.4805 8.76001 16.1405 8.76001 15.7305C8.76001 15.3205 9.10001 14.9805 9.51001 14.9805H18.22C18.63 14.9805 18.97 15.3205 18.97 15.7305C18.97 16.1405 18.63 16.4805 18.22 16.4805Z" fill="white"/> <path d="M12 20.2598H9.51001C9.10001 20.2598 8.76001 19.9198 8.76001 19.5098C8.76001 19.0998 9.10001 18.7598 9.51001 18.7598H12C12.41 18.7598 12.75 19.0998 12.75 19.5098C12.75 19.9198 12.41 20.2598 12 20.2598Z" fill="white"/> <path d="M18.22 20.2598H15.73C15.32 20.2598 14.98 19.9198 14.98 19.5098C14.98 19.0998 15.32 18.7598 15.73 18.7598H18.22C18.63 18.7598 18.97 19.0998 18.97 19.5098C18.97 19.9198 18.63 20.2598 18.22 20.2598Z" fill="white"/> </g> <defs> <clipPath id="clip0_2085_393036"> <rect width="24" height="24" fill="white"/> </clipPath> </defs> </svg>
