<svg width="24" height="24" viewBox="0 0 24 24" fill="none" xmlns="http://www.w3.org/2000/svg"> <g clip-path="url(#clip0_4482_707)"> <path d="M12.0001 13.04C11.8701 13.04 11.7402 13.01 11.6202 12.94L7.03009 10.28C6.67009 10.07 6.55007 9.60998 6.76007 9.24998C6.97007 8.88998 7.4301 8.76998 7.7901 8.97998L12.0101 11.42L16.19 8.99998C16.55 8.78998 17.01 8.91998 17.22 9.26998C17.43 9.62998 17.3 10.09 16.95 10.3L12.3899 12.94C12.2599 13 12.1301 13.04 12.0001 13.04Z" fill="white"/> <path d="M12 17.75C11.59 17.75 11.25 17.41 11.25 17V12.28C11.25 11.87 11.59 11.53 12 11.53C12.41 11.53 12.75 11.87 12.75 12.28V17C12.75 17.41 12.41 17.75 12 17.75Z" fill="white"/> <path d="M12 17.95C11.49 17.95 10.9701 17.84 10.5601 17.61L7.78003 16.06C6.91003 15.58 6.25 14.46 6.25 13.47V10.53C6.25 9.53002 6.91003 8.42002 7.78003 7.93002L10.55 6.39002C11.37 5.93002 12.6099 5.93002 13.4299 6.38002L16.21 7.93002C17.08 8.41002 17.74 9.53002 17.74 10.52V13.46C17.74 14.46 17.08 15.57 16.21 16.06L13.4299 17.6C13.0299 17.84 12.51 17.95 12 17.95ZM12 7.55002C11.73 7.55002 11.47 7.60002 11.28 7.70002L8.5 9.24002C8.11 9.46002 7.73999 10.08 7.73999 10.52V13.46C7.73999 13.9 8.11 14.53 8.5 14.74L11.28 16.29C11.65 16.49 12.34 16.49 12.71 16.29L15.48 14.75C15.87 14.53 16.24 13.91 16.24 13.47V10.53C16.24 10.09 15.87 9.46002 15.48 9.25002L12.7 7.71002C12.53 7.60002 12.27 7.55002 12 7.55002Z" fill="white"/> <path opacity="0.4" d="M12 22C17.5228 22 22 17.5228 22 12C22 6.47715 17.5228 2 12 2C6.47715 2 2 6.47715 2 12C2 17.5228 6.47715 22 12 22Z" fill="white"/> </g> <defs> <clipPath id="clip0_4482_707"> <rect width="24" height="24" fill="white"/> </clipPath> </defs> </svg>
