<svg width="24" height="24" viewBox="0 0 24 24" fill="none" xmlns="http://www.w3.org/2000/svg"> <g clip-path="url(#clip0_4482_9502)"> <g opacity="0.4"> <path d="M22 17.5601V18.0001C22 20.2101 20.21 22.0001 18 22.0001H6C3.79 22.0001 2 20.2101 2 18.0001V17.5601H22Z" fill="white"/> </g> <path d="M18 2H12.75V17.56H22V6C22 3.79 20.21 2 18 2ZM16.08 12C16.08 12.41 15.75 12.75 15.33 12.75C14.91 12.75 14.58 12.41 14.58 12V9.78C14.58 9.36 14.92 9.03 15.33 9.03C15.74 9.03 16.08 9.36 16.08 9.78V12Z" fill="white"/> <path d="M6 2C3.79 2 2 3.79 2 6V17.56H11.25V2H6ZM9.42 12C9.42 12.41 9.08 12.75 8.67 12.75C8.26 12.75 7.92 12.41 7.92 12V9.78C7.92 9.36 8.25 9.03 8.67 9.03C9.09 9.03 9.42 9.36 9.42 9.78V12Z" fill="white"/> </g> <defs> <clipPath id="clip0_4482_9502"> <rect width="24" height="24" fill="white"/> </clipPath> </defs> </svg>
