<svg width="24" height="24" viewBox="0 0 24 24" fill="none" xmlns="http://www.w3.org/2000/svg"> <g clip-path="url(#clip0_4482_6633)"> <path opacity="0.4" d="M12 22C17.5228 22 22 17.5228 22 12C22 6.47715 17.5228 2 12 2C6.47715 2 2 6.47715 2 12C2 17.5228 6.47715 22 12 22Z" fill="white"/> <path d="M12 16.75C11.59 16.75 11.25 16.41 11.25 16V12C11.25 11.59 11.59 11.25 12 11.25C12.41 11.25 12.75 11.59 12.75 12V16C12.75 16.41 12.41 16.75 12 16.75Z" fill="white"/> <path d="M13.91 10.0398C14.11 9.32981 13.85 8.55981 13.26 8.10981C12.92 7.74981 12.44 7.5498 11.94 7.5498C11.33 7.5598 10.7601 7.84981 10.4001 8.33981C10.0401 8.82981 9.92004 9.44981 10.08 10.0398C9.10004 10.0098 8.24003 10.6998 8.06003 11.6598C7.88003 12.6298 8.44002 13.5798 9.37002 13.8898C10.3 14.1998 11.32 13.7898 11.77 12.9198C11.81 12.8398 11.9 12.7798 11.99 12.7798C12.08 12.7798 12.17 12.8398 12.21 12.9198C12.48 13.4498 12.97 13.8198 13.55 13.9498C14.13 14.0798 14.73 13.9398 15.2 13.5698C15.88 13.0398 16.1401 12.1298 15.8401 11.3298C15.5501 10.5298 14.77 9.99981 13.91 10.0398Z" fill="white"/> </g> <defs> <clipPath id="clip0_4482_6633"> <rect width="24" height="24" fill="white"/> </clipPath> </defs> </svg>
