<svg width="24" height="24" viewBox="0 0 24 24" fill="none" xmlns="http://www.w3.org/2000/svg"> <g clip-path="url(#clip0_4482_11621)"> <g opacity="0.4"> <path d="M21 7.92986V15.9699C21 16.6799 20.62 17.3399 20 17.6999L17.25 19.2799L15.85 20.0899L13 21.7299C12.92 21.7799 12.84 21.8199 12.75 21.8499C12.27 22.0499 11.73 22.0499 11.25 21.8499C11.16 21.8199 11.08 21.7799 11 21.7299L8.15 20.0899L6.75 19.2799L4 17.6999C3.38 17.3399 3 16.6799 3 15.9699V7.90986C3 7.81986 3.01 7.72986 3.02 7.63986C3.09 7.11986 3.36 6.64986 3.78 6.33986C3.85 6.27986 3.93 6.22986 4.01 6.17986L6.81 4.58986L8.22 3.77986L10.89 2.25986C11.5 1.90986 12.24 1.90986 12.85 2.24986L15.7 3.81986L17.12 4.60986L19.97 6.17986C20.05 6.22986 20.13 6.27986 20.21 6.33986C20.63 6.64986 20.9 7.10986 20.98 7.62986C20.99 7.72986 21 7.82986 21 7.92986Z" fill="white"/> </g> <path d="M12.75 11.7998V21.8498C12.27 22.0498 11.73 22.0498 11.25 21.8498V11.7998C11.25 11.3898 11.59 11.0498 12 11.0498C12.41 11.0498 12.75 11.3898 12.75 11.7998Z" fill="white"/> <path d="M20.9795 7.62984L12.7495 12.2498L12.3695 12.4598C12.2495 12.5198 12.1295 12.5498 11.9995 12.5498C11.8695 12.5498 11.7495 12.5198 11.6295 12.4598L11.2495 12.2498L3.01953 7.63984C3.08953 7.11984 3.35953 6.64984 3.77953 6.33984L11.9995 10.9398L20.2095 6.33984C20.6295 6.64984 20.8995 7.10984 20.9795 7.62984Z" fill="white"/> <path d="M8.25 14.4599V19.7199C8.25 19.8599 8.21 19.9799 8.15 20.0899L6.75 19.2799V14.8999L3 12.8099V11.1899C3.13 11.1899 3.25 11.2199 3.37 11.2899L7.87 13.8099C8.1 13.9399 8.25 14.1899 8.25 14.4599Z" fill="white"/> <path d="M21 11.1899V12.8099L17.25 14.8999V19.2799L15.85 20.0899C15.79 19.9799 15.75 19.8599 15.75 19.7199V14.4599C15.75 14.1899 15.9 13.9399 16.13 13.8099L20.63 11.2899C20.75 11.2199 20.87 11.1899 21 11.1899Z" fill="white"/> <path d="M17.1196 4.60979C17.0596 4.72979 16.9596 4.83978 16.8296 4.90979L12.3696 7.40979C12.2496 7.46978 12.1296 7.49979 11.9996 7.49979C11.8796 7.49979 11.7496 7.46978 11.6296 7.40979L7.08957 4.86979C6.96957 4.79979 6.87957 4.69979 6.80957 4.58979L8.21957 3.77979L11.9996 5.88979L15.6996 3.81979L17.1196 4.60979Z" fill="white"/> </g> <defs> <clipPath id="clip0_4482_11621"> <rect width="24" height="24" fill="white"/> </clipPath> </defs> </svg>
