<svg width="24" height="24" viewBox="0 0 24 24" fill="none" xmlns="http://www.w3.org/2000/svg"> <g clip-path="url(#clip0_2085_382824)"> <g opacity="0.4"> <path d="M18.4901 9.2C18.4901 9.58 18.4101 9.97 18.2501 10.74L16.1607 21.1959C16.0673 21.6635 15.6569 22 15.1801 22H8.82205C8.34438 22 7.93341 21.6622 7.84096 21.1935L7.71005 20.53L7.41005 19.03L5.75005 10.74C5.59005 9.97 5.52005 9.58 5.51005 9.2C5.50005 8.85 5.53005 8.51 5.60005 8.18C5.68005 7.8 5.83005 7.43 6.12005 6.7L7.74861 2.62861C7.90047 2.24895 8.26818 2 8.67709 2H15.3197C15.7303 2 16.0991 2.25095 16.2499 2.63283L16.3001 2.76L17.8801 6.7C18.1701 7.43 18.3201 7.8 18.4001 8.18C18.4701 8.51 18.5001 8.85 18.4901 9.2Z" fill="white"/> </g> <path d="M12 15.7899C11.59 15.7899 11.25 15.4499 11.25 15.0399V8.40991C11.25 7.99991 11.59 7.65991 12 7.65991C12.41 7.65991 12.75 7.99991 12.75 8.40991V15.0399C12.75 15.4499 12.41 15.7899 12 15.7899Z" fill="white"/> <path d="M14.49 11.6499H9.52002C9.11002 11.6499 8.77002 11.3099 8.77002 10.8999C8.77002 10.4899 9.11002 10.1499 9.52002 10.1499H14.49C14.9 10.1499 15.24 10.4899 15.24 10.8999C15.24 11.3099 14.9 11.6499 14.49 11.6499Z" fill="white"/> <path d="M13.86 19.78C13.86 20.19 13.53 20.53 13.11 20.53H7.71003L7.41003 19.03H13.11C13.53 19.03 13.86 19.36 13.86 19.78Z" fill="white"/> <path d="M15.5 4.22C15.74 4.47 15.88 4.8 15.88 5.16C15.88 5.52 15.74 5.84 15.5 6.09L14.63 6.95C14.49 7.1 14.3 7.17 14.1 7.17C13.9 7.17 13.72 7.1 13.57 6.95C13.28 6.66 13.28 6.18 13.57 5.89L14.31 5.16L13.98 4.83C13.46 4.31 13.46 3.48 13.98 2.96L14.94 2H15.3197C15.7302 2 16.0991 2.25095 16.2498 2.63283L16.3 2.76L15.17 3.89L15.5 4.22Z" fill="white"/> </g> <defs> <clipPath id="clip0_2085_382824"> <rect width="24" height="24" fill="white"/> </clipPath> </defs> </svg>
