<svg width="24" height="24" viewBox="0 0 24 24" fill="none" xmlns="http://www.w3.org/2000/svg"> <g clip-path="url(#clip0_3242_29151)"> <path opacity="0.4" d="M23.4999 16.71V19.71C23.4999 21.09 22.3799 22.21 20.9999 22.21H13.8599C12.9699 22.21 12.5299 21.14 13.1499 20.51L19.0199 14.51C19.2099 14.32 19.4699 14.21 19.7299 14.21H20.9999C22.3799 14.21 23.4999 15.33 23.4999 16.71Z" fill="white"/> <path d="M17.16 14.21L14.7 16.66C14.07 17.29 12.99 16.85 12.99 15.96V7.46998C12.99 7.19998 13.1 6.94998 13.28 6.75998L14.2 5.83998C15.18 4.85998 16.76 4.85998 17.74 5.83998L19.86 7.95998C20.85 8.93998 20.85 10.52 19.86 11.5L17.16 14.21Z" fill="white"/> <path opacity="0.4" d="M11.5 18.21C11.5 19.29 11.06 20.28 10.36 21L10.32 21.04C10.23 21.13 10.13 21.22 10.04 21.29C9.74003 21.55 9.40003 21.75 9.05003 21.89C8.94003 21.94 8.83003 21.98 8.72003 22.02C8.33003 22.15 7.91003 22.21 7.50003 22.21C7.23003 22.21 6.96003 22.18 6.70003 22.13C6.57003 22.1 6.44003 22.07 6.31003 22.03C6.15003 21.98 6.00003 21.93 5.85003 21.86C5.57003 21.72 5.30003 21.56 5.05003 21.37C4.92003 21.26 4.80003 21.16 4.69003 21.04C4.58003 20.92 4.47003 20.8 4.36003 20.67C4.17003 20.42 4.01003 20.12 3.87003 19.84C3.87003 19.83 3.87003 19.85 3.87003 19.84C3.81003 19.7 3.76003 19.55 3.71003 19.4C3.67003 19.27 3.64003 19.14 3.61003 19.01C3.56003 18.75 3.53003 18.48 3.53003 18.21V9.71996C3.68003 9.76996 3.84003 9.80996 4.01003 9.80996C4.62003 9.80996 5.12003 9.42996 5.28003 8.83996L5.54003 7.87996C5.68003 7.36996 6.05003 6.99996 6.56003 6.85996L7.55003 6.58996C8.10121 6.41644 8.50003 5.92259 8.50003 5.33996C8.50003 4.78996 8.20003 4.31996 7.70003 4.10996L6.54003 3.77996C6.05003 3.63996 5.66003 3.25996 5.53003 2.75996L5.40003 2.28996C5.60003 2.23996 5.81003 2.20996 6.03003 2.20996H9.03003C10.53 2.20996 11.53 3.20996 11.53 4.70996L11.5 18.21Z" fill="white"/> <path d="M7.5 19.71C8.32843 19.71 9 19.0384 9 18.21C9 17.3815 8.32843 16.71 7.5 16.71C6.67157 16.71 6 17.3815 6 18.21C6 19.0384 6.67157 19.71 7.5 19.71Z" fill="white"/> <path d="M7.49 5.32004C7.49 5.39004 7.45 5.55004 7.26 5.61004L6.28 5.88004C5.43 6.11004 4.79 6.75004 4.56 7.60004L4.3 8.56004C4.24 8.78004 4.07 8.80004 3.99 8.80004C3.91 8.80004 3.74 8.78004 3.68 8.56004L3.42 7.59004C3.19 6.75004 2.54 6.11004 1.7 5.88004L0.73 5.62004C0.52 5.56004 0.5 5.38004 0.5 5.31004C0.5 5.23004 0.52 5.05004 0.73 4.99004L1.71 4.73004C2.55 4.49004 3.19 3.85004 3.42 3.01004L3.7 1.99004C3.77 1.82004 3.93 1.79004 3.99 1.79004C4.05 1.79004 4.22 1.81004 4.28 1.97004L4.56 3.00004C4.79 3.84004 5.44 4.48004 6.28 4.72004L7.28 5.00004C7.48 5.08004 7.49 5.26004 7.49 5.32004Z" fill="white"/> </g> <defs> <clipPath id="clip0_3242_29151"> <rect width="24" height="24" fill="white"/> </clipPath> </defs> </svg>
