<svg width="24" height="24" viewBox="0 0 24 24" fill="none" xmlns="http://www.w3.org/2000/svg"> <g clip-path="url(#clip0_4482_9505)"> <g opacity="0.4"> <path d="M22.0604 6.38V17.62C22.0604 19.89 20.2804 21.73 18.0704 21.75H5.93043C3.72043 21.73 1.94043 19.89 1.94043 17.62V6.38C1.94043 4.1 3.74043 2.25 5.96043 2.25H18.0404C20.2604 2.25 22.0604 4.1 22.0604 6.38Z" fill="white"/> </g> <path d="M22.0604 13.47V14.97H19.0404L18.0704 21.75H16.5604L17.0504 18.31H6.95043L7.44043 21.75H5.93043L4.96043 14.97H1.94043V13.47H5.23043C7.51043 10.21 8.76043 6.24 8.75043 2.25H10.2504C10.2704 6.57 8.89043 10.87 6.39043 14.4L6.74043 16.81H17.2604L17.6104 14.4C15.1104 10.87 13.7304 6.58 13.7504 2.25H15.2504C15.2404 6.24 16.4904 10.21 18.7704 13.47H22.0604Z" fill="white"/> </g> <defs> <clipPath id="clip0_4482_9505"> <rect width="24" height="24" fill="white"/> </clipPath> </defs> </svg>
