<svg width="24" height="24" viewBox="0 0 24 24" fill="none" xmlns="http://www.w3.org/2000/svg"> <g clip-path="url(#clip0_2085_393806)"> <g opacity="0.4"> <path d="M14.45 9.01953V14.9795C14.45 15.3195 14.36 15.6395 14.21 15.9195C13.88 16.5495 13.21 16.9795 12.45 16.9795H5C3.34 16.9795 2 15.6395 2 13.9795V10.0195C2 8.35953 3.34 7.01953 5 7.01953H12.45C13.21 7.01953 13.88 7.44953 14.21 8.07953C14.36 8.35953 14.45 8.67953 14.45 9.01953Z" fill="white"/> </g> <path d="M4.48998 12.7C4.30998 12.7 4.12998 12.63 3.98998 12.49C3.71998 12.22 3.71998 11.77 3.98998 11.5L5.23998 10.25C5.50998 9.97004 5.95998 9.97004 6.22998 10.25C6.49998 10.52 6.49998 10.97 6.22998 11.24L4.97998 12.49C4.83998 12.63 4.65998 12.7 4.47998 12.7H4.48998Z" fill="white"/> <path d="M5.72997 13.95C5.54997 13.95 5.36997 13.88 5.22997 13.74L3.97997 12.49C3.70997 12.22 3.70997 11.77 3.97997 11.5C4.24997 11.22 4.69997 11.22 4.96997 11.5L6.21997 12.75C6.48997 13.02 6.48997 13.47 6.21997 13.74C6.07997 13.88 5.89997 13.95 5.71997 13.95H5.72997Z" fill="white"/> <path d="M11.96 12.7002C11.78 12.7002 11.6 12.6302 11.46 12.4902L10.22 11.2402C9.94996 10.9702 9.94996 10.5202 10.22 10.2502C10.49 9.98021 10.94 9.97021 11.21 10.2502L12.45 11.5002C12.72 11.7702 12.72 12.2202 12.45 12.4902C12.31 12.6302 12.13 12.7002 11.95 12.7002H11.96Z" fill="white"/> <path d="M10.7099 13.95C10.5299 13.95 10.3499 13.88 10.2099 13.74C9.93995 13.47 9.93995 13.02 10.2099 12.75L11.4499 11.5C11.7199 11.22 12.1699 11.22 12.4399 11.5C12.7099 11.78 12.7099 12.22 12.4399 12.49L11.1999 13.74C11.0599 13.88 10.8799 13.95 10.6999 13.95H10.7099Z" fill="white"/> <path d="M7.6 15.1897C7.54 15.1897 7.49 15.1897 7.43 15.1697C7.05 15.0797 6.82 14.6897 6.92 14.3197L8.16 9.33965C8.25 8.95965 8.64 8.73965 9.01 8.82965C9.39 8.91965 9.62 9.30965 9.52 9.67965L8.28 14.6597C8.2 14.9797 7.91 15.1897 7.6 15.1897Z" fill="white"/> <path d="M19.9 8.08008H14.21C14.36 8.36008 14.45 8.68008 14.45 9.02008V14.9801C14.45 15.3201 14.36 15.6401 14.21 15.9201H19.9C21.06 15.9201 22 14.9801 22 13.8201V10.1801C22 9.02008 21.06 8.08008 19.9 8.08008ZM19.51 13.9501H18.27C17.88 13.9501 17.56 13.6301 17.56 13.2501C17.56 12.8701 17.88 12.5401 18.27 12.5401H19.51C19.9 12.5401 20.21 12.8601 20.21 13.2501C20.21 13.6401 19.9 13.9501 19.51 13.9501ZM19.51 11.4601H18.27C17.88 11.4601 17.56 11.1401 17.56 10.7501C17.56 10.3601 17.88 10.0501 18.27 10.0501H19.51C19.9 10.0501 20.21 10.3701 20.21 10.7501C20.21 11.1301 19.9 11.4601 19.51 11.4601Z" fill="white"/> </g> <defs> <clipPath id="clip0_2085_393806"> <rect width="24" height="24" fill="white"/> </clipPath> </defs> </svg>
