<svg width="24" height="24" viewBox="0 0 24 24" fill="none" xmlns="http://www.w3.org/2000/svg"> <g clip-path="url(#clip0_2085_383304)"> <g opacity="0.4"> <path d="M13.76 13.4101L16.33 11.9101C16.95 11.5501 17.72 11.5501 18.35 11.9101L20.92 13.4101C21.53 13.7701 21.91 14.4301 21.91 15.1401V17.4101C21.91 18.1201 21.53 18.7801 20.92 19.1401L18.35 20.6401C17.73 21.0001 16.96 21.0001 16.33 20.6401L13.76 19.1401C13.15 18.7801 12.77 18.1201 12.77 17.4101V15.1401C12.77 14.4301 13.15 13.7701 13.76 13.4101Z" fill="white"/> </g> <path d="M17.34 17.5902C18.069 17.5902 18.66 16.9992 18.66 16.2702C18.66 15.5412 18.069 14.9502 17.34 14.9502C16.611 14.9502 16.02 15.5412 16.02 16.2702C16.02 16.9992 16.611 17.5902 17.34 17.5902Z" fill="white"/> <path d="M20.02 5.45V5.6H2.02002V5.45C2.02002 4.97 2.21002 4.51 2.55002 4.18L4.20002 2.53C4.54002 2.19 4.99002 2 5.47002 2H16.57C17.05 2 17.51 2.19 17.84 2.53L19.49 4.18C19.82 4.51 20.02 4.97 20.02 5.45Z" fill="white"/> <path d="M20.02 6.35H2.02002C1.61002 6.35 1.27002 6.01 1.27002 5.6V5.45C1.27002 4.77 1.55002 4.11 2.03002 3.64L3.67002 2C4.15002 1.52 4.79002 1.25 5.47002 1.25H16.57C17.25 1.25 17.91 1.53 18.38 2.01L20.02 3.65C20.5 4.13 20.77 4.78 20.77 5.45V5.6C20.77 6.01 20.43 6.35 20.02 6.35ZM2.96002 4.85H19.08C19.08 4.85 19.01 4.75 18.96 4.71L17.31 3.06C17.12 2.86 16.85 2.75 16.57 2.75H5.47002C5.19002 2.75 4.93002 2.86 4.73002 3.06L3.08002 4.71C3.08002 4.71 3.00002 4.8 2.96002 4.85Z" fill="white"/> <path d="M20.02 10.7501C19.61 10.7501 19.27 10.4101 19.27 10.0001V5.6001C19.27 5.1901 19.61 4.8501 20.02 4.8501C20.43 4.8501 20.77 5.1901 20.77 5.6001V10.0001C20.77 10.4101 20.43 10.7501 20.02 10.7501Z" fill="white"/> <path d="M7.87002 15.3501H4.72002C2.82002 15.3501 1.27002 13.8001 1.27002 11.9001V5.6001C1.27002 5.1901 1.61002 4.8501 2.02002 4.8501C2.43002 4.8501 2.77002 5.1901 2.77002 5.6001V11.9001C2.77002 12.9801 3.65002 13.8501 4.72002 13.8501H7.87002C7.87002 13.8501 7.97002 13.8201 8.00002 13.7801L9.70002 11.5101C10.35 10.6701 11.69 10.6701 12.33 11.5101C12.58 11.8401 12.52 12.3101 12.2 12.5601C11.87 12.8101 11.4 12.7501 11.15 12.4301C11.11 12.3801 10.93 12.3901 10.9 12.4301L9.20002 14.7001C8.88002 15.1201 8.39002 15.3601 7.88002 15.3601L7.87002 15.3501Z" fill="white"/> <path d="M2.02 6.3501H2C1.59 6.3501 1.25 6.0101 1.25 5.6001C1.25 5.1901 1.59 4.8501 2 4.8501C2.41 4.8501 2.76 5.1901 2.76 5.6001C2.76 6.0101 2.43 6.3501 2.02 6.3501Z" fill="white"/> </g> <defs> <clipPath id="clip0_2085_383304"> <rect width="24" height="24" fill="white"/> </clipPath> </defs> </svg>
