<svg width="24" height="24" viewBox="0 0 24 24" fill="none" xmlns="http://www.w3.org/2000/svg"> <g clip-path="url(#clip0_2085_391660)"> <g opacity="0.4"> <path d="M22.0001 12.4395V15.7595C22.0001 16.4395 21.4401 16.9995 20.7501 16.9995C20.0601 16.9995 19.5101 16.4395 19.5101 15.7595V20.3195C19.5101 21.0095 18.9501 21.5595 18.2701 21.5595C17.5901 21.5595 17.0201 21.0095 17.0201 20.3195V14.0995C17.0201 13.1795 16.2801 12.4395 15.3601 12.4395H14.9001C14.9001 10.8295 13.6001 9.52945 12.0001 9.52945C10.4001 9.52945 9.10005 10.8295 9.10005 12.4395H3.06005C2.98005 12.4395 2.90005 12.4295 2.83005 12.4095C2.35005 12.2995 2.01005 11.8295 2.06005 11.3095C2.62005 6.31945 6.86005 2.43945 12.0001 2.43945C17.5201 2.43945 22.0001 6.90945 22.0001 12.4395Z" fill="white"/> </g> <path d="M17.02 14.1002V20.0902C15.6 21.0102 13.82 21.5602 12 21.5602C6.98996 21.5602 2.87996 17.4102 2.82996 12.4102C2.89996 12.4302 2.97996 12.4402 3.05996 12.4402H9.09996C9.09996 14.0402 10.4 15.3402 12 15.3402C13.6 15.3402 14.9 14.0402 14.9 12.4402H15.36C16.28 12.4402 17.02 13.1802 17.02 14.1002Z" fill="white"/> <path d="M12 6.96094C11.59 6.96094 11.25 6.62094 11.25 6.21094V4.96094C11.25 4.55094 11.59 4.21094 12 4.21094C12.41 4.21094 12.75 4.55094 12.75 4.96094V6.21094C12.75 6.62094 12.41 6.96094 12 6.96094Z" fill="white"/> <path d="M14.73 8.00081C14.42 8.00081 14.14 7.81081 14.03 7.51081C13.89 7.12081 14.09 6.69081 14.48 6.55081L15.65 6.12081C16.04 5.98081 16.47 6.18081 16.61 6.57081C16.75 6.96081 16.55 7.39081 16.16 7.53081L14.99 7.96081C14.91 7.99081 14.82 8.00081 14.73 8.00081Z" fill="white"/> <path d="M18.64 10.6998C18.45 10.6998 18.26 10.6298 18.11 10.4798L17.23 9.59977C16.94 9.30977 16.94 8.82977 17.23 8.53977C17.52 8.24977 18 8.24977 18.29 8.53977L19.17 9.41977C19.46 9.70977 19.46 10.1898 19.17 10.4798C19.02 10.6298 18.83 10.6998 18.64 10.6998Z" fill="white"/> <path d="M19.16 14.1397C19.03 14.1397 18.9 14.1097 18.79 14.0397C18.43 13.8297 18.31 13.3697 18.52 13.0197L19.14 11.9397C19.35 11.5797 19.81 11.4597 20.16 11.6697C20.52 11.8797 20.64 12.3397 20.43 12.6897L19.81 13.7697C19.67 14.0097 19.42 14.1497 19.16 14.1497V14.1397Z" fill="white"/> <path d="M9.26998 8.00081C9.17998 8.00081 9.09998 7.99081 9.00998 7.96081L7.83998 7.53081C7.44998 7.39081 7.24998 6.96081 7.38998 6.57081C7.52998 6.18081 7.95998 5.98081 8.34998 6.12081L9.51998 6.55081C9.90998 6.69081 10.11 7.12081 9.96998 7.51081C9.85998 7.81081 9.56998 8.00081 9.26998 8.00081Z" fill="white"/> <path d="M5.36005 10.6998C5.17005 10.6998 4.98005 10.6298 4.83005 10.4798C4.54005 10.1898 4.54005 9.70977 4.83005 9.41977L5.71005 8.53977C6.00005 8.24977 6.48005 8.24977 6.77005 8.53977C7.06005 8.82977 7.06005 9.30977 6.77005 9.59977L5.89005 10.4798C5.74005 10.6298 5.55005 10.6998 5.36005 10.6998Z" fill="white"/> </g> <defs> <clipPath id="clip0_2085_391660"> <rect width="24" height="24" fill="white"/> </clipPath> </defs> </svg>
