<svg width="24" height="24" viewBox="0 0 24 24" fill="none" xmlns="http://www.w3.org/2000/svg"> <g clip-path="url(#clip0_4482_14655)"> <path opacity="0.4" d="M22 7V17C22 18.55 21.29 19.94 20.18 20.86C19.79 21.18 19.35 21.44 18.88 21.64C18.3 21.87 17.66 22 17 22H7C4.24 22 2 19.76 2 17V7C2 5.45 2.71 4.06 3.82 3.14C4.21 2.82 4.65 2.56 5.12 2.36C5.7 2.13 6.34 2 7 2H17C19.76 2 22 4.24 22 7Z" fill="white"/> <path d="M20.1804 20.8603C19.7904 21.1803 19.3504 21.4403 18.8804 21.6403L16.4104 18.5203C16.1604 18.2003 16.2104 17.7303 16.5304 17.4703C16.8604 17.2103 17.3304 17.2703 17.5904 17.5903L20.1804 20.8603Z" fill="white"/> <path d="M7.47031 6.53035C7.33031 6.64035 7.17031 6.69035 7.00031 6.69035C6.78031 6.69035 6.56031 6.60035 6.41031 6.41035L3.82031 3.14035C4.21031 2.82035 4.65031 2.56035 5.12031 2.36035L7.59031 5.48035C7.85031 5.80035 7.79031 6.27035 7.47031 6.53035Z" fill="white"/> <path d="M16.1702 6.45043H11.7302C10.9602 6.45043 10.3402 7.07043 10.3402 7.84043V9.78043H7.8402C7.0702 9.78043 6.4502 10.4004 6.4502 11.1704V16.1704C6.4502 16.9404 7.0702 17.5604 7.8402 17.5604H12.2802C13.0502 17.5604 13.6702 16.9404 13.6702 16.1704V14.2304H16.1702C16.9402 14.2304 17.5602 13.6104 17.5602 12.8404V7.83043C17.5602 7.06043 16.9402 6.44043 16.1702 6.44043V6.45043Z" fill="white"/> </g> <defs> <clipPath id="clip0_4482_14655"> <rect width="24" height="24" fill="white"/> </clipPath> </defs> </svg>
