<svg width="24" height="24" viewBox="0 0 24 24" fill="none" xmlns="http://www.w3.org/2000/svg"> <g clip-path="url(#clip0_4482_10089)"> <g opacity="0.4"> <path d="M20.2295 9.6001V19.9401C20.2295 21.0801 19.3095 22.0001 18.1695 22.0001H5.82953C4.68953 22.0001 3.76953 21.0801 3.76953 19.9401V9.6001C3.76953 8.5001 4.66953 7.6001 5.76953 7.6001H18.2295C19.3295 7.6001 20.2295 8.5001 20.2295 9.6001Z" fill="white"/> </g> <path d="M20.2295 10.9702V12.4702H16.8595V22.0002H15.3595V12.4702H12.7495V22.0002H11.2495V12.4702H8.63953V22.0002H7.13953V12.4702H3.76953V10.9702H20.2295Z" fill="white"/> <path d="M16.86 2.4602V4.5202C16.86 5.2202 16.3 5.7802 15.6 5.7802H12.75V7.60019H11.25V2.4602C11.25 1.7702 11.82 1.2002 12.51 1.2002H15.6C16.3 1.2002 16.86 1.7702 16.86 2.4602Z" fill="white"/> </g> <defs> <clipPath id="clip0_4482_10089"> <rect width="24" height="24" fill="white"/> </clipPath> </defs> </svg>
