<svg width="24" height="24" viewBox="0 0 24 24" fill="none" xmlns="http://www.w3.org/2000/svg"> <g clip-path="url(#clip0_2085_388163)"> <path opacity="0.4" d="M17.33 16.67C17.33 19.61 14.94 22 12 22C9.06004 22 6.67004 19.61 6.67004 16.67C6.67004 14.93 7.50004 13.38 8.80004 12.42C9.48771 11.9043 9.91339 11.1183 9.98819 10.2697C10.0013 10.1211 10.1209 10 10.27 10H13.73C13.8792 10 13.9988 10.1211 14.0119 10.2697C14.0866 11.1183 14.5114 11.9043 15.19 12.42C16.5 13.38 17.33 14.93 17.33 16.67Z" fill="white"/> <path d="M8.62488 16.6699C8.62488 16.2806 8.9406 15.9648 9.32996 15.9648C9.71932 15.9648 10.035 16.2806 10.035 16.6699C10.035 17.5782 10.6577 18.3455 11.5077 18.5674C11.8844 18.6656 12.1107 19.0511 12.0126 19.4277C11.9143 19.8045 11.5289 20.0299 11.1522 19.9316C9.70235 19.5534 8.62488 18.2415 8.62488 16.6699Z" fill="white"/> <path d="M13.5 10H10.5C10.5 10 11.07 4.58 11.26 2.66C11.3 2.29 11.62 2 12 2C12.38 2 12.7 2.29 12.74 2.66C12.94 4.58 13.5 10 13.5 10Z" fill="white"/> </g> <defs> <clipPath id="clip0_2085_388163"> <rect width="24" height="24" fill="white"/> </clipPath> </defs> </svg>
