<svg width="24" height="24" viewBox="0 0 24 24" fill="none" xmlns="http://www.w3.org/2000/svg"> <g clip-path="url(#clip0_2085_383453)"> <path opacity="0.4" d="M21.9999 3V3.99C21.9999 4.19 21.9399 4.38 21.8299 4.54L21.0799 5.67L21.6799 6.86C21.8699 7.24 21.7899 7.71 21.4899 8.01L20.1699 9.34L14.6599 3.83L15.9899 2.51C16.2899 2.21 16.7599 2.13 17.1399 2.32L18.3299 2.92L19.4599 2.17C19.6199 2.06 19.8099 2 20.0099 2H20.9999C21.5499 2 21.9999 2.45 21.9999 3Z" fill="white"/> <path fill-rule="evenodd" clip-rule="evenodd" d="M14.6595 3.82973C17.6976 4.00325 19.9967 6.30234 20.1702 9.34048C20.2349 10.4748 19.5941 11.9371 19.1636 12.7796C18.9318 13.2333 18.5582 13.5922 18.1158 13.8448L13.2201 16.6403C12.6701 16.9603 12.23 17.45 11.9701 18.0299L10.9202 20.4C10.6702 20.95 10.2195 21.38 9.6595 21.61C9.37964 21.7199 9.08975 21.7702 8.80989 21.7702C8.19991 21.7702 7.60949 21.5395 7.1595 21.0895L2.9095 16.8395C2.2498 16.1795 2.05004 15.1993 2.38997 14.3395C2.62 13.7796 3.05003 13.3297 3.59993 13.0797L5.97005 12.0299C6.54996 11.77 7.03971 11.3298 7.3597 10.7799L10.1553 5.88239C10.4072 5.44111 10.765 5.06861 11.2174 4.8374C12.0596 4.40701 13.524 3.76501 14.6595 3.82973ZM9.86946 14.6696C9.57946 14.38 9.09979 14.3798 8.80989 14.6696C8.51989 14.9596 8.51989 15.4401 8.80989 15.7301L9.72982 16.65C9.87981 16.8 10.0701 16.8698 10.2601 16.8698C10.45 16.8697 10.6404 16.8 10.7904 16.65C11.0802 16.3601 11.0803 15.8795 10.7904 15.5895L9.86946 14.6696ZM11.7103 12.8395C11.4203 12.5495 10.9397 12.5496 10.6497 12.8395C10.3597 13.1295 10.3597 13.61 10.6497 13.9L11.5697 14.82C11.7197 14.97 11.9099 15.0397 12.0999 15.0397C12.2899 15.0397 12.4802 14.97 12.6302 14.82C12.9201 14.53 12.9202 14.0494 12.6302 13.7594L11.7103 12.8395ZM13.5404 10.9997C13.2504 10.7097 12.7698 10.7097 12.4798 10.9997C12.1898 11.2897 12.1898 11.7702 12.4798 12.0602L13.3997 12.9801C13.5497 13.1301 13.74 13.1999 13.93 13.1999C14.12 13.1998 14.3103 13.1301 14.4603 12.9801C14.7502 12.6901 14.7502 12.2096 14.4603 11.9196L13.5404 10.9997Z" fill="white"/> </g> <defs> <clipPath id="clip0_2085_383453"> <rect width="24" height="24" fill="white"/> </clipPath> </defs> </svg>
