<svg width="24" height="24" viewBox="0 0 24 24" fill="none" xmlns="http://www.w3.org/2000/svg"> <path d="M13.3489 4.25024V22.0002H10.4689C9.32891 22.0002 8.2589 21.4502 7.5889 20.5202L3.65891 15.0102C3.11891 14.2602 3.0989 13.2602 3.6189 12.4902C4.0489 11.8402 4.74891 11.5002 5.45891 11.5002C6.02891 11.5002 6.58891 11.7102 7.02891 12.1502L8.6489 13.7602V4.48024C8.6489 3.24024 9.55891 2.11024 10.7989 2.01024C11.5289 1.95024 12.1989 2.22024 12.6589 2.69024C13.0689 3.09024 13.3189 3.64024 13.3489 4.25024Z" fill="white"/> <path opacity="0.4" d="M20.7589 13.33V17C20.7589 18.38 20.1989 19.63 19.2989 20.54C18.3889 21.44 17.1389 22 15.7589 22H13.3489V4.25C13.3489 3.63 13.5989 3.07 14.0089 2.66C14.4189 2.25 14.9689 2 15.5789 2C15.6489 2 15.7089 2 15.7789 2.01C16.9689 2.1 17.8489 3.18 17.8489 4.38V9.54C17.8489 9.95 18.1189 10.3 18.5189 10.41C19.1789 10.58 19.7389 10.97 20.1389 11.49C20.5289 12 20.7589 12.64 20.7589 13.33Z" fill="white"/> </svg>
