<svg width="24" height="24" viewBox="0 0 24 24" fill="none" xmlns="http://www.w3.org/2000/svg"> <g clip-path="url(#clip0_4482_11638)"> <path d="M8.1502 18.7298C7.8602 18.7298 7.5602 18.6498 7.3002 18.4998C6.7702 18.1898 6.4502 17.6398 6.4502 17.0298V6.96978C6.4502 6.36978 6.7802 5.82978 7.3002 5.51978C7.8302 5.21978 8.4602 5.20978 8.9902 5.51978L17.8102 10.5298C18.3502 10.8398 18.6702 11.3998 18.6702 12.0298C18.6702 12.6498 18.3402 13.1998 17.8102 13.4998L8.9902 18.5098C8.7302 18.6598 8.4402 18.7298 8.1502 18.7298ZM7.9502 6.99978V17.0198C7.9502 17.1198 8.0102 17.1698 8.0502 17.1998C8.1002 17.2298 8.1702 17.2498 8.2502 17.1998L17.0702 12.1898C17.1502 12.1398 17.1702 12.0698 17.1702 12.0198C17.1702 11.9698 17.1602 11.8898 17.0602 11.8298L8.2402 6.81978C8.1602 6.76978 8.0902 6.79978 8.0402 6.81978C8.0002 6.83978 7.9402 6.88978 7.9402 6.99978H7.9502Z" fill="white"/> <path d="M7.41983 18.3601C7.24983 18.3601 7.07983 18.3001 6.93983 18.1801C6.61983 17.9101 6.57983 17.4401 6.84983 17.1201L13.7798 8.9201C14.0498 8.6001 14.5198 8.5701 14.8398 8.8301C15.1598 9.1001 15.1998 9.5701 14.9298 9.8901L7.99983 18.0901C7.84983 18.2601 7.63983 18.3601 7.42983 18.3601H7.41983Z" fill="white"/> <path d="M14.3401 15.3401C14.1301 15.3401 13.9201 15.2501 13.7701 15.0701L6.84006 6.87008C6.57006 6.55008 6.61006 6.08008 6.93006 5.81008C7.25006 5.55008 7.72006 5.58008 7.99006 5.90008L14.9201 14.1001C15.1901 14.4201 15.1501 14.8901 14.8301 15.1601C14.6901 15.2801 14.5201 15.3401 14.3501 15.3401H14.3401Z" fill="white"/> <g opacity="0.4"> <path d="M7.01023 2H17.0102C19.7702 2 22.0102 4.24 22.0102 7V17.01C22.0102 19.77 19.7702 22 17.0102 22H6.99023C4.23023 22 1.99023 19.76 1.99023 17V7C1.99023 4.24 4.23023 2 6.99023 2H7.00023H7.01023Z" fill="white"/> </g> </g> <defs> <clipPath id="clip0_4482_11638"> <rect width="24" height="24" fill="white"/> </clipPath> </defs> </svg>
