<svg width="24" height="24" viewBox="0 0 24 24" fill="none" xmlns="http://www.w3.org/2000/svg"> <g clip-path="url(#clip0_2085_387566)"> <path d="M16.9199 11.5801H7.06995C6.51995 11.5801 6.06995 12.0301 6.06995 12.5801V13.9601C6.06995 14.5101 6.51995 14.9601 7.06995 14.9601H16.9199C17.4699 14.9601 17.9199 14.5101 17.9199 13.9601V12.5801C17.9199 12.0301 17.4699 11.5801 16.9199 11.5801Z" fill="white"/> <path opacity="0.4" d="M16.9199 14.96H7.06995C6.51995 14.96 6.06995 15.41 6.06995 15.96V17.34C6.06995 17.89 6.51995 18.34 7.06995 18.34H16.9199C17.4699 18.34 17.9199 17.89 17.9199 17.34V15.96C17.9199 15.41 17.4699 14.96 16.9199 14.96Z" fill="white"/> <path d="M16.9199 18.3398H7.06995C6.51995 18.3398 6.06995 18.7898 6.06995 19.3398V20.7198C6.06995 21.2698 6.51995 21.7198 7.06995 21.7198H16.9199C17.4699 21.7198 17.9199 21.2698 17.9199 20.7198V19.3398C17.9199 18.7898 17.4699 18.3398 16.9199 18.3398Z" fill="white"/> <path d="M7.39001 11.5801V2.28027C7.39001 1.86606 7.7258 1.53027 8.14001 1.53027C8.55423 1.53027 8.89001 1.86606 8.89001 2.28027V11.5801C8.89001 11.9943 8.55423 12.3301 8.14001 12.3301C7.7258 12.3301 7.39001 11.9943 7.39001 11.5801Z" fill="white"/> <path d="M15.1 11.5801V2.28027C15.1 1.86606 15.4358 1.53027 15.85 1.53027C16.2642 1.53027 16.6 1.86606 16.6 2.28027V11.5801C16.6 11.9943 16.2642 12.3301 15.85 12.3301C15.4358 12.3301 15.1 11.9943 15.1 11.5801Z" fill="white"/> <path d="M15.85 4.62988C16.2642 4.62988 16.6 4.96567 16.6 5.37988C16.6 5.7941 16.2642 6.12988 15.85 6.12988H8.14001C7.7258 6.12988 7.39001 5.7941 7.39001 5.37988C7.39001 4.96567 7.7258 4.62988 8.14001 4.62988H15.85Z" fill="white"/> <path opacity="0.4" d="M6.15033 4.62988C6.56437 4.63009 6.90033 4.9658 6.90033 5.37988C6.90033 5.79397 6.56437 6.12967 6.15033 6.12988H4.831L2.53022 8.43066C2.23739 8.72322 1.7625 8.72322 1.46967 8.43066C1.17678 8.13777 1.17678 7.66203 1.46967 7.36914L3.9892 4.84961C4.12974 4.70907 4.32073 4.63001 4.51947 4.62988H6.15033Z" fill="white"/> <path opacity="0.4" d="M19.4799 4.62988C19.6787 4.62988 19.8695 4.70899 20.0101 4.84961L22.5306 7.36914C22.8235 7.66203 22.8235 8.13777 22.5306 8.43066C22.2379 8.72335 21.763 8.72309 21.4701 8.43066L19.1693 6.12988H17.85C17.4358 6.12988 17.1 5.7941 17.1 5.37988C17.1 4.96567 17.4358 4.62988 17.85 4.62988H19.4799Z" fill="white"/> </g> <defs> <clipPath id="clip0_2085_387566"> <rect width="24" height="24" fill="white"/> </clipPath> </defs> </svg>
