<svg width="24" height="24" viewBox="0 0 24 24" fill="none" xmlns="http://www.w3.org/2000/svg"> <g clip-path="url(#clip0_2085_393724)"> <path d="M6.6001 11.25C6.6001 11.25 6.6501 11.29 6.6801 11.31C6.6801 11.31 6.6301 11.26 6.6001 11.25ZM8.9401 13.56H8.9301C8.9801 13.63 9.0401 13.7 9.0901 13.78C9.0401 13.7 8.9901 13.63 8.9401 13.56ZM9.5201 14.65C9.6601 15.02 9.7801 15.4 9.8501 15.75C9.7701 15.4 9.6601 15.01 9.5101 14.65H9.5201ZM9.8201 11.31C9.7801 11.21 9.7201 11.12 9.6601 11.03C9.7201 11.12 9.7701 11.21 9.8101 11.31C9.8401 11.36 9.8601 11.42 9.8801 11.48C9.8601 11.42 9.8401 11.36 9.8201 11.31ZM9.8101 12.69C9.7701 12.79 9.7201 12.88 9.6601 12.97C9.7201 12.88 9.7801 12.79 9.8201 12.69C9.8401 12.64 9.8601 12.58 9.8801 12.52C9.8601 12.58 9.8401 12.64 9.8101 12.69ZM9.8501 8.25C9.7501 8.71 9.5801 9.25 9.3701 9.71C9.5901 9.25 9.7601 8.71 9.8601 8.25H9.8501ZM8.9301 10.44H8.9401C8.9901 10.37 9.0401 10.3 9.0901 10.22C9.0401 10.3 8.9801 10.37 8.9301 10.44Z" fill="white"/> <g opacity="0.4"> <path d="M6.83989 12.9604C6.76989 12.8704 6.71989 12.7804 6.67989 12.6904C6.53989 12.8004 6.36989 12.9104 6.17989 13.0004C6.10989 13.0504 6.02989 13.0904 5.94989 13.1204C5.77989 13.2004 5.59989 13.2804 5.41989 13.3404C5.32989 13.3704 5.22989 13.4004 5.13989 13.4304C5.01989 13.4704 4.90989 13.5004 4.79989 13.5304C4.62989 13.5804 4.47989 13.6104 4.32989 13.6404C4.27989 13.6504 4.23989 13.6604 4.19989 13.6604C4.08989 13.6804 3.97989 13.6904 3.88989 13.7004C4.23989 14.5504 5.02989 15.2104 6.68989 15.5404C6.71989 15.4504 6.73989 15.3604 6.76989 15.2704C6.89989 14.8204 7.07989 14.3604 7.28989 13.9704C7.36989 13.8204 7.45989 13.6804 7.55989 13.5604C7.25989 13.4304 7.01989 13.2204 6.83989 12.9604Z" fill="white"/> </g> <g opacity="0.4"> <path d="M7.04989 9.52996C6.97989 9.35996 6.90989 9.17996 6.84989 8.99996C6.78989 8.81996 6.73989 8.63996 6.68989 8.45996C5.02989 8.78996 4.23989 9.44996 3.88989 10.3C4.11989 10.32 4.39989 10.37 4.70989 10.45C4.82989 10.48 4.95989 10.51 5.08989 10.55C5.10989 10.55 5.12989 10.56 5.15989 10.57C5.29989 10.62 5.43989 10.67 5.57989 10.72C5.64989 10.75 5.72989 10.78 5.79989 10.81C6.09989 10.93 6.37989 11.08 6.59989 11.25C6.62989 11.26 6.64989 11.28 6.67989 11.3C6.71989 11.2 6.77989 11.12 6.83989 11.03C7.01989 10.78 7.25989 10.57 7.55989 10.44C7.45989 10.32 7.36989 10.18 7.28989 10.03C7.20989 9.86996 7.12989 9.70996 7.04989 9.52996Z" fill="white"/> </g> <g opacity="0.4"> <path d="M9.85994 8.25C9.75994 8.71 9.58994 9.25 9.36994 9.71C9.28994 9.89 9.18994 10.07 9.08994 10.22C9.03994 10.3 8.98994 10.37 8.93994 10.44C9.22994 10.57 9.47994 10.77 9.65994 11.03C9.71994 11.12 9.77994 11.21 9.81994 11.31C10.5599 10.71 12.0899 10.29 12.7899 10.29C13.7399 10.29 14.4999 11.06 14.4999 12C14.4999 12.94 13.7399 13.71 12.7899 13.71C12.0899 13.71 10.5599 13.29 9.81994 12.69C9.77994 12.79 9.71994 12.88 9.65994 12.97C9.47994 13.23 9.22994 13.43 8.93994 13.56C8.98994 13.63 9.03994 13.7 9.08994 13.78C9.18994 13.93 9.28994 14.11 9.36994 14.29C9.41994 14.4 9.46994 14.52 9.51994 14.65C9.66994 15.01 9.77994 15.4 9.85994 15.75C14.9199 15.64 21.9999 14.01 21.9999 12C21.9999 9.99 14.9199 8.36 9.85994 8.25Z" fill="white"/> </g> <path d="M9.96005 7.46C9.96005 7.66 9.92005 7.94 9.86005 8.25C9.76005 8.71 9.59005 9.25 9.38005 9.71C9.30005 9.89 9.20005 10.07 9.10005 10.22C9.05005 10.3 8.99005 10.37 8.94005 10.44C8.73005 10.34 8.51005 10.29 8.26005 10.29C8.01005 10.29 7.79005 10.34 7.58005 10.44C7.48005 10.32 7.39005 10.18 7.30005 10.03C7.22005 9.87 7.14005 9.71 7.06005 9.53C6.99005 9.36 6.92005 9.18 6.86005 9C6.80005 8.82 6.75005 8.64 6.71005 8.46C6.61005 8.07 6.55005 7.71 6.55005 7.46C6.55005 6.51 7.32005 5.75 8.26005 5.75C9.20005 5.75 9.97005 6.51 9.97005 7.46H9.96005Z" fill="white"/> <path d="M8.92993 10.4397C8.97993 10.3697 9.03993 10.2997 9.08993 10.2197C9.03993 10.2997 8.98993 10.3697 8.93993 10.4397H8.92993Z" fill="white"/> <path d="M9.86012 8.25C9.76012 8.71 9.59012 9.25 9.37012 9.71C9.58012 9.25 9.75012 8.71 9.85012 8.25H9.86012Z" fill="white"/> <path d="M6.58 12.36C6.61 12.47 6.64 12.58 6.69 12.68C6.69 12.68 6.68 12.68 6.68 12.69C6.54 12.8 6.37 12.91 6.18 13C6.11 13.05 6.03 13.09 5.95 13.12C5.78 13.2 5.6 13.28 5.42 13.34C5.33 13.37 5.23 13.4 5.14 13.43C5.02 13.47 4.91 13.5 4.8 13.53C4.63 13.58 4.48 13.61 4.33 13.64C4.28 13.65 4.24 13.66 4.2 13.66C4.09 13.68 3.98 13.69 3.89 13.7C3.82 13.71 3.76 13.71 3.71 13.71C2.76 13.71 2 12.94 2 12C2 11.06 2.76 10.29 3.71 10.29C3.76 10.29 3.82 10.29 3.89 10.3C4.12 10.32 4.4 10.37 4.71 10.45C4.83 10.48 4.96 10.51 5.09 10.55C5.11 10.55 5.13 10.56 5.16 10.57C5.3 10.62 5.44 10.67 5.58 10.72C5.65 10.75 5.73 10.78 5.8 10.81C6.1 10.93 6.38 11.08 6.6 11.25C6.63 11.27 6.65 11.29 6.68 11.31H6.69C6.64 11.42 6.6 11.53 6.58 11.64C6.55 11.76 6.54 11.88 6.54 12C6.54 12.12 6.54 12.24 6.58 12.36Z" fill="white"/> <path d="M6.6801 11.3C6.6801 11.3 6.6301 11.27 6.6001 11.25C6.6301 11.26 6.6501 11.28 6.6801 11.3Z" fill="white"/> <path d="M9.96004 16.5396C9.96004 17.4896 9.20004 18.2496 8.25004 18.2496C7.30004 18.2496 6.54004 17.4896 6.54004 16.5396C6.54004 16.2896 6.60004 15.9296 6.70004 15.5396C6.72004 15.4496 6.74004 15.3596 6.77004 15.2696C6.90004 14.8196 7.08004 14.3596 7.29004 13.9696C7.38004 13.8196 7.47004 13.6796 7.57004 13.5596C7.78004 13.6596 8.01004 13.7096 8.25004 13.7096C8.49004 13.7096 8.72004 13.6596 8.93004 13.5596C8.98004 13.6296 9.04004 13.6996 9.09004 13.7796C9.19004 13.9296 9.29004 14.1096 9.37004 14.2896C9.42004 14.3996 9.47004 14.5196 9.52004 14.6496C9.66004 15.0196 9.78004 15.3996 9.85004 15.7496C9.91004 16.0596 9.95004 16.3396 9.95004 16.5396H9.96004Z" fill="white"/> <path d="M9.08993 13.7796C9.03993 13.6996 8.97993 13.6296 8.92993 13.5596H8.93993C8.98993 13.6296 9.03993 13.6996 9.08993 13.7796Z" fill="white"/> <path d="M9.86003 15.7504C9.79003 15.4004 9.67003 15.0204 9.53003 14.6504C9.68003 15.0104 9.79003 15.4004 9.87003 15.7504H9.86003Z" fill="white"/> <path d="M14.5001 12C14.5001 12.94 13.7401 13.71 12.7901 13.71C12.0901 13.71 10.5601 13.29 9.82007 12.69C9.84007 12.64 9.86007 12.58 9.88007 12.52C9.90007 12.47 9.91007 12.42 9.92007 12.36C9.95007 12.24 9.96007 12.12 9.96007 12C9.96007 11.88 9.95007 11.76 9.92007 11.64C9.91007 11.58 9.90007 11.53 9.88007 11.48C9.86007 11.42 9.84007 11.36 9.82007 11.31C10.5601 10.71 12.0901 10.29 12.7901 10.29C13.7401 10.29 14.5001 11.06 14.5001 12Z" fill="white"/> <path d="M9.96004 12C9.96004 12.12 9.95004 12.24 9.92004 12.36C9.91004 12.42 9.90004 12.47 9.88004 12.52C9.86004 12.58 9.84004 12.64 9.81004 12.69C9.77004 12.79 9.72004 12.88 9.66004 12.97C9.48004 13.23 9.23004 13.43 8.94004 13.56H8.93004C8.72004 13.66 8.50004 13.71 8.25004 13.71C8.00004 13.71 7.78004 13.66 7.57004 13.56H7.56004C7.26004 13.43 7.02004 13.22 6.84004 12.96C6.78004 12.87 6.73004 12.78 6.69004 12.68C6.64004 12.58 6.61004 12.47 6.58004 12.36C6.55004 12.24 6.54004 12.12 6.54004 12C6.54004 11.88 6.54004 11.76 6.58004 11.64C6.60004 11.53 6.64004 11.42 6.69004 11.31C6.73004 11.21 6.78004 11.12 6.84004 11.03C7.02004 10.78 7.26004 10.57 7.56004 10.44H7.57004C7.78004 10.34 8.01004 10.29 8.25004 10.29C8.49004 10.29 8.72004 10.34 8.93004 10.44H8.94004C9.23004 10.57 9.48004 10.77 9.66004 11.03C9.72004 11.12 9.77004 11.21 9.81004 11.31C9.84004 11.36 9.86004 11.42 9.88004 11.48C9.90004 11.53 9.91004 11.58 9.92004 11.64C9.95004 11.76 9.96004 11.88 9.96004 12Z" fill="white"/> <path d="M9.80991 12.6895C9.80991 12.6895 9.85991 12.5795 9.87991 12.5195C9.85991 12.5795 9.83991 12.6395 9.81991 12.6895C9.77991 12.7895 9.71991 12.8795 9.65991 12.9695C9.71991 12.8795 9.76991 12.7895 9.80991 12.6895Z" fill="white"/> <path d="M9.80991 11.3103C9.76991 11.2103 9.71991 11.1203 9.65991 11.0303C9.71991 11.1203 9.77991 11.2103 9.81991 11.3103C9.83991 11.3603 9.85991 11.4203 9.87991 11.4803C9.85991 11.4203 9.83991 11.3603 9.80991 11.3103Z" fill="white"/> </g> <defs> <clipPath id="clip0_2085_393724"> <rect width="24" height="24" fill="white"/> </clipPath> </defs> </svg>
