<svg width="24" height="24" viewBox="0 0 24 24" fill="none" xmlns="http://www.w3.org/2000/svg"> <g clip-path="url(#clip0_4482_1103)"> <path opacity="0.4" d="M22 10V18C22 20.2 20.2 22 18 22H6C3.8 22 2 20.2 2 18V10C2 7.8 3.8 6 6 6H18C20.2 6 22 7.8 22 10Z" fill="white"/> <path d="M11.5099 12.5998L9.59985 11.1098C9.13985 10.7498 8.48991 10.7498 8.02991 11.1098L6.11987 12.5998C5.80987 12.8398 5.62988 13.2098 5.62988 13.6098V15.8898C5.62988 16.5898 6.19991 17.1698 6.90991 17.1698H10.7399C11.4399 17.1698 12.0199 16.5998 12.0199 15.8898V13.5998C11.9999 13.2098 11.8199 12.8398 11.5099 12.5998Z" fill="white"/> <path d="M18.3799 12.75H15.3799C14.9699 12.75 14.6299 12.41 14.6299 12C14.6299 11.59 14.9699 11.25 15.3799 11.25H18.3799C18.7899 11.25 19.1299 11.59 19.1299 12C19.1299 12.41 18.7899 12.75 18.3799 12.75Z" fill="white"/> <path d="M18.3799 16.75H15.3799C14.9699 16.75 14.6299 16.41 14.6299 16C14.6299 15.59 14.9699 15.25 15.3799 15.25H18.3799C18.7899 15.25 19.1299 15.59 19.1299 16C19.1299 16.41 18.7899 16.75 18.3799 16.75Z" fill="white"/> <path d="M16.77 4V6H15.27V4C15.27 3.31 14.71 2.75 14.02 2.75H9.97998C9.28998 2.75 8.72998 3.31 8.72998 4V6H7.22998V4C7.22998 2.48 8.45998 1.25 9.97998 1.25H14.02C15.54 1.25 16.77 2.48 16.77 4Z" fill="white"/> </g> <defs> <clipPath id="clip0_4482_1103"> <rect width="24" height="24" fill="white"/> </clipPath> </defs> </svg>
