<svg width="24" height="24" viewBox="0 0 24 24" fill="none" xmlns="http://www.w3.org/2000/svg"> <g clip-path="url(#clip0_4482_11641)"> <g opacity="0.4"> <path d="M12 22C17.52 22 22 17.52 22 12C22 6.48 17.52 2 12 2C6.48 2 2 6.48 2 12C2 17.52 6.48 22 12 22Z" fill="white"/> </g> <path d="M16.9995 16.25H16.3995C15.8495 16.25 15.3395 16 15.0095 15.56C14.6795 15.15 14.5595 14.58 14.6995 14.05L15.1695 12.17C15.2295 11.94 15.1695 11.7 15.0295 11.51C14.8995 11.34 14.6695 11.23 14.4495 11.23H13.4595C13.3395 11.23 13.2495 11.31 13.2195 11.42L12.4395 14.53C12.1795 15.54 11.2895 16.24 10.2495 16.24H9.64953C8.94953 16.24 8.28953 15.91 7.86953 15.36C7.45953 14.83 7.30953 14.11 7.46953 13.44L8.01953 11.24H7.01953C6.60953 11.24 6.26953 10.9 6.26953 10.49C6.26953 10.08 6.60953 9.73998 7.01953 9.73998H8.34953C8.73953 9.73998 9.10953 9.91998 9.33953 10.23C9.56953 10.54 9.64953 10.94 9.54953 11.3L8.91953 13.8C8.85953 14.02 8.91953 14.27 9.04953 14.45C9.18953 14.64 9.40953 14.74 9.63953 14.74H10.2395C10.5895 14.74 10.8895 14.5 10.9695 14.17L11.7495 11.06C11.9395 10.28 12.6395 9.72998 13.4495 9.72998H14.4395C15.1295 9.72998 15.7895 10.06 16.2095 10.6C16.6295 11.16 16.7795 11.86 16.6195 12.53L16.1495 14.42C16.1295 14.5 16.1495 14.58 16.1895 14.63C16.2495 14.7 16.3095 14.74 16.3895 14.74H16.9895C17.3995 14.74 17.7395 15.08 17.7395 15.49C17.7395 15.9 17.3995 16.24 16.9895 16.24L16.9995 16.25Z" fill="white"/> <path d="M9.33984 8.89014C9.89213 8.89014 10.3398 8.44242 10.3398 7.89014C10.3398 7.33785 9.89213 6.89014 9.33984 6.89014C8.78756 6.89014 8.33984 7.33785 8.33984 7.89014C8.33984 8.44242 8.78756 8.89014 9.33984 8.89014Z" fill="white"/> </g> <defs> <clipPath id="clip0_4482_11641"> <rect width="24" height="24" fill="white"/> </clipPath> </defs> </svg>
