<svg width="24" height="24" viewBox="0 0 24 24" fill="none" xmlns="http://www.w3.org/2000/svg"> <g clip-path="url(#clip0_2085_385483)"> <path d="M21.5 13.3301C21.7761 13.3301 22 13.5539 22 13.8301V17.0601C22 16.3701 21.4 15.8201 20.71 15.8201C20.02 15.8201 19.47 16.3701 19.47 17.0601C19.47 16.3701 18.91 15.8201 18.22 15.8201C17.53 15.8201 16.98 16.3701 16.98 17.0601C16.98 16.3701 16.42 15.8201 15.73 15.8201C15.04 15.8201 14.49 16.3701 14.49 17.0601V19.5501C14.49 18.1801 13.37 17.0601 12 17.0601C10.63 17.0601 9.51 18.1801 9.51 19.5501V17.0601C9.51 16.3701 8.95 15.8201 8.27 15.8201C7.59 15.8201 7.02 16.3701 7.02 17.0601C7.02 16.3701 6.46 15.8201 5.78 15.8201C5.1 15.8201 4.53 16.3701 4.53 17.0601C4.53 16.3701 3.97 15.8201 3.29 15.8201C2.61 15.8201 2 16.3701 2 17.0601V13.8301C2 13.5539 2.22386 13.3301 2.5 13.3301H21.5Z" fill="white"/> <g opacity="0.4"> <path d="M9.51002 17.0603V22.0803H7.02002V17.0603C7.02002 16.3703 7.58002 15.8203 8.27002 15.8203C8.96002 15.8203 9.51002 16.3703 9.51002 17.0603Z" fill="white"/> </g> <path d="M7.02003 17.0603V22.0803H4.53003V17.0603C4.53003 16.3703 5.09003 15.8203 5.78003 15.8203C6.47003 15.8203 7.02003 16.3703 7.02003 17.0603Z" fill="white"/> <g opacity="0.4"> <path d="M4.53 17.0603V22.0803H2.5C2.22386 22.0803 2 21.8565 2 21.5803V17.0603C2 16.3703 2.6 15.8203 3.29 15.8203C3.98 15.8203 4.53 16.3703 4.53 17.0603Z" fill="white"/> </g> <path d="M14.49 19.5508H9.51001V22.0808H14.49V19.5508Z" fill="white"/> <g opacity="0.4"> <path d="M14.49 19.5505H9.51001C9.51001 18.1805 10.63 17.0605 12 17.0605C13.37 17.0605 14.49 18.1805 14.49 19.5505Z" fill="white"/> </g> <g opacity="0.4"> <path d="M16.98 17.0603V22.0803H14.49V17.0603C14.49 16.3703 15.05 15.8203 15.73 15.8203C16.41 15.8203 16.98 16.3703 16.98 17.0603Z" fill="white"/> </g> <path d="M19.47 17.0603V22.0803H16.98V17.0603C16.98 16.3703 17.54 15.8203 18.22 15.8203C18.9 15.8203 19.47 16.3703 19.47 17.0603Z" fill="white"/> <g opacity="0.4"> <path d="M22 17.0603V21.5803C22 21.8565 21.7761 22.0803 21.5 22.0803H19.47V17.0603C19.47 16.3703 20.03 15.8203 20.71 15.8203C21.39 15.8203 22 16.3703 22 17.0603Z" fill="white"/> </g> <g opacity="0.4"> <path d="M16.98 9.59031H7.02002C7.02002 6.84031 9.25002 4.57031 12 4.57031C14.75 4.57031 16.98 6.84031 16.98 9.59031Z" fill="white"/> </g> <path d="M12 5.32008C11.59 5.32008 11.25 4.98008 11.25 4.57008V2.08008C11.25 1.67008 11.59 1.33008 12 1.33008C12.41 1.33008 12.75 1.67008 12.75 2.08008V4.57008C12.75 4.98008 12.41 5.32008 12 5.32008Z" fill="white"/> <path d="M18.22 10.3398H6.07996C5.66996 10.3398 5.32996 9.99984 5.32996 9.58984C5.32996 9.17984 5.66996 8.83984 6.07996 8.83984H18.22C18.63 8.83984 18.97 9.17984 18.97 9.58984C18.97 9.99984 18.63 10.3398 18.22 10.3398Z" fill="white"/> <path d="M7.02003 10.3398H5.78003C5.37003 10.3398 5.03003 9.99984 5.03003 9.58984C5.03003 9.17984 5.37003 8.83984 5.78003 8.83984H7.02003C7.43003 8.83984 7.77003 9.17984 7.77003 9.58984C7.77003 9.99984 7.43003 10.3398 7.02003 10.3398Z" fill="white"/> <g opacity="0.4"> <path d="M9.51002 9.58984H7.02002V13.3298H9.51002V9.58984Z" fill="white"/> </g> <path d="M12 9.58984H9.51001V13.3298H12V9.58984Z" fill="white"/> <g opacity="0.4"> <path d="M14.49 9.58984H12V13.3298H14.49V9.58984Z" fill="white"/> </g> <path d="M16.98 9.58984H14.49V13.3298H16.98V9.58984Z" fill="white"/> </g> <defs> <clipPath id="clip0_2085_385483"> <rect width="24" height="24" fill="white"/> </clipPath> </defs> </svg>
