<svg width="24" height="24" viewBox="0 0 24 24" fill="none" xmlns="http://www.w3.org/2000/svg"> <g clip-path="url(#clip0_2085_385464)"> <path d="M15.3611 4.30056C15.4555 4.34775 15.4219 4.49 15.3164 4.49H8.68951C8.58423 4.49 8.55044 4.34825 8.6444 4.30075L9.18002 4.03C10.1393 3.55034 11.0306 2.92603 11.8067 2.18846C11.9148 2.08574 12.0853 2.08574 12.1933 2.18846C12.9694 2.92603 13.8607 3.55034 14.82 4.03L15.3611 4.30056Z" fill="white"/> <g opacity="0.4"> <path d="M14.49 4.49023H9.51001V6.52023C9.51001 6.79638 9.73387 7.02023 10.01 7.02023H13.99C14.2662 7.02023 14.49 6.79638 14.49 6.52023V4.49023Z" fill="white"/> </g> <path d="M17.76 13.1405C17.37 13.5405 16.89 13.8005 16.36 13.9205V13.2405H15.74V12.4905C16.1 12.4805 16.44 12.3505 16.68 12.1005C16.97 11.8005 17.45 11.7905 17.74 12.0805C18.04 12.3705 18.05 12.8505 17.76 13.1405Z" fill="white"/> <path d="M8.26996 12.4905V13.2405H7.63996V13.9205C7.10996 13.8005 6.62996 13.5405 6.23996 13.1405C5.94996 12.8505 5.95996 12.3705 6.25996 12.0805C6.54996 11.7905 7.02996 11.8005 7.31996 12.1005C7.55996 12.3505 7.89996 12.4905 8.26996 12.4905Z" fill="white"/> <g opacity="0.4"> <path d="M15.47 10.1309C15.6191 10.1309 15.74 10.2517 15.74 10.4009V13.2409H12.75V12.0009C12.75 11.5909 12.41 11.2509 12 11.2509C11.59 11.2509 11.25 11.5909 11.25 12.0009V13.2409H8.27002V10.4009C8.27002 10.2517 8.3909 10.1309 8.54002 10.1309H15.47Z" fill="white"/> <path d="M12.75 12V13.24H11.25V12C11.25 11.59 11.59 11.25 12 11.25C12.41 11.25 12.75 11.59 12.75 12Z" fill="white"/> </g> <path d="M17.13 10.0392C16.74 10.4292 16.26 10.6892 15.74 10.7992V10.3992C15.74 10.2501 15.6191 10.1292 15.47 10.1292H15.11V9.37922C15.48 9.37922 15.81 9.23922 16.07 8.97922C16.36 8.68922 16.83 8.68922 17.13 8.97922C17.42 9.26922 17.42 9.74922 17.13 10.0392Z" fill="white"/> <path d="M8.88997 9.37922V10.1292H8.53997C8.39085 10.1292 8.26997 10.2501 8.26997 10.3992V10.8092C7.73997 10.6892 7.25997 10.4292 6.86997 10.0392C6.57997 9.74922 6.57997 9.26922 6.86997 8.97922C7.15997 8.68922 7.63997 8.68922 7.92997 8.97922C8.18997 9.23922 8.51997 9.37922 8.88997 9.37922Z" fill="white"/> <path d="M18.38 16.8908C17.99 17.2808 17.51 17.5408 16.98 17.6508V17.2508C16.98 17.1017 16.8591 16.9808 16.71 16.9808H16.36V16.2308C16.72 16.2208 17.06 16.0908 17.32 15.8308C17.61 15.5408 18.09 15.5408 18.38 15.8308C18.67 16.1208 18.67 16.6008 18.38 16.8908Z" fill="white"/> <path d="M7.63997 16.2308V16.9808H7.28997C7.14085 16.9808 7.01997 17.1017 7.01997 17.2508V17.6508C6.48997 17.5408 6.00997 17.2808 5.61997 16.8908C5.32997 16.6008 5.32997 16.1208 5.61997 15.8308C5.90997 15.5408 6.38997 15.5408 6.67997 15.8308C6.93997 16.0908 7.27997 16.2208 7.63997 16.2308Z" fill="white"/> <g opacity="0.4"> <path d="M16.71 16.9805C16.8591 16.9805 16.98 17.1014 16.98 17.2505V21.2505H13.25V20.7605C13.25 20.0705 12.69 19.5105 12 19.5105C11.31 19.5105 10.76 20.0705 10.76 20.7605V21.2505H7.02002V17.2505C7.02002 17.1014 7.1409 16.9805 7.29002 16.9805H16.71Z" fill="white"/> </g> <path d="M7.64001 13.2402V16.9802H11.25V15.7302C11.25 15.3202 11.59 14.9802 12 14.9802C12.41 14.9802 12.75 15.3202 12.75 15.7302V16.9802H16.36V13.2402H7.64001Z" fill="white"/> <path d="M12.75 12V13.24H11.25V12C11.25 11.59 11.59 11.25 12 11.25C12.41 11.25 12.75 11.59 12.75 12Z" fill="white"/> <path d="M15.4505 5.86977C15.7404 5.58029 16.2202 5.58011 16.51 5.86977C16.8 6.15977 16.8 6.64032 16.51 6.93032C16.12 7.3203 15.6396 7.57985 15.1096 7.69985V10.1295H12.7503V8.89028C12.7503 8.47037 12.4101 8.14042 12.0003 8.14028C11.5903 8.14028 11.2503 8.47028 11.2503 8.89028V10.1295H8.88991V7.69985C8.35995 7.57984 7.87949 7.32029 7.48952 6.93032C7.19967 6.6403 7.19957 6.15972 7.48952 5.86977C7.77947 5.57982 8.25006 5.57992 8.55006 5.86977C8.81006 6.12977 9.14002 6.27016 9.51002 6.27016V6.52016C9.51002 6.7963 9.73388 7.02016 10.01 7.02016H13.9895C14.2657 7.02016 14.4895 6.7963 14.4895 6.52016V6.27016C14.8595 6.27016 15.1905 6.12977 15.4505 5.86977Z" fill="white"/> <path d="M20.22 22C20.22 22.41 19.88 22.75 19.47 22.75H4.53003C4.12003 22.75 3.78003 22.41 3.78003 22C3.78003 21.59 4.12003 21.25 4.53003 21.25H19.47C19.88 21.25 20.22 21.59 20.22 22Z" fill="white"/> <path d="M13.25 20.7598V21.2498H10.76V20.7598C10.76 20.0698 11.31 19.5098 12 19.5098C12.69 19.5098 13.25 20.0698 13.25 20.7598Z" fill="white"/> </g> <defs> <clipPath id="clip0_2085_385464"> <rect width="24" height="24" fill="white"/> </clipPath> </defs> </svg>
