<svg width="24" height="24" viewBox="0 0 24 24" fill="none" xmlns="http://www.w3.org/2000/svg"> <g clip-path="url(#clip0_2085_387603)"> <path opacity="0.4" d="M20.15 15.8805C20.15 18.3205 19.08 20.5105 17.38 22.0005H6.61998C4.91998 20.5105 3.84998 18.3205 3.84998 15.8805C3.84998 11.3805 7.49998 7.73047 12 7.73047C16.5 7.73047 20.15 11.3805 20.15 15.8805Z" fill="white"/> <path d="M12 18.9301C13.69 18.9301 15.05 17.5601 15.05 15.8801C15.05 14.2001 13.68 12.8301 12 12.8301C10.32 12.8301 8.94995 14.2001 8.94995 15.8801C8.94995 17.5601 10.32 18.9301 12 18.9301Z" fill="white"/> <path d="M17.4698 15.1299C17.8841 15.1299 18.2198 15.4657 18.2198 15.8799C18.2198 16.2941 17.8841 16.6299 17.4698 16.6299H15.0499C14.6357 16.6299 14.2999 16.2941 14.2999 15.8799C14.2999 15.4657 14.6357 15.1299 15.0499 15.1299H17.4698Z" fill="white"/> <path d="M8.94995 15.1299C9.36416 15.1299 9.69995 15.4657 9.69995 15.8799C9.69995 16.2941 9.36416 16.6299 8.94995 16.6299H6.53003C6.11582 16.6299 5.78003 16.2941 5.78003 15.8799C5.78003 15.4657 6.11582 15.1299 6.53003 15.1299H8.94995Z" fill="white"/> <path d="M17.0499 11.11C16.9699 11.11 16.8999 11.1 16.8199 11.07C16.4299 10.94 16.2099 10.52 16.3299 10.13L17.8499 5.39C18.0499 4.77 17.9399 4.11 17.5599 3.58C17.1699 3.05 16.5799 2.75 15.9199 2.75H8.06992C7.41992 2.75 6.81992 3.05 6.43992 3.58C6.04992 4.11 5.94992 4.77 6.14992 5.39L7.93992 10.09C8.08992 10.48 7.88992 10.91 7.49992 11.06C7.11992 11.21 6.67992 11.01 6.52992 10.63L4.72992 5.89C4.36992 4.77 4.55992 3.62 5.22992 2.7C5.89992 1.78 6.93992 1.25 8.07992 1.25H15.9299C17.0699 1.25 18.1099 1.78 18.7799 2.7C19.4499 3.62 19.6399 4.77 19.2899 5.85L17.7699 10.59C17.6699 10.91 17.3699 11.11 17.0599 11.11H17.0499Z" fill="white"/> </g> <defs> <clipPath id="clip0_2085_387603"> <rect width="24" height="24" fill="white"/> </clipPath> </defs> </svg>
