<svg width="24" height="24" viewBox="0 0 24 24" fill="none" xmlns="http://www.w3.org/2000/svg"> <g clip-path="url(#clip0_4482_6256)"> <path d="M7.09003 10.61C6.90003 10.61 6.71003 10.54 6.56003 10.39C6.27003 10.1 6.27003 9.61998 6.56003 9.32998L6.93002 8.95997C8.00002 7.88997 9.64004 7.61997 10.99 8.29997C11.36 8.48997 11.51 8.93997 11.33 9.30997C11.14 9.67997 10.69 9.82997 10.32 9.64997C9.54004 9.25997 8.60004 9.40997 7.99004 10.03L7.62003 10.4C7.47003 10.53 7.28003 10.61 7.09003 10.61Z" fill="white"/> <path d="M16.91 10.6102C16.72 10.6102 16.53 10.5402 16.38 10.3902L16.01 10.0202C15.39 9.40021 14.46 9.25021 13.68 9.64021C13.31 9.83021 12.86 9.68021 12.67 9.30021C12.48 8.93021 12.63 8.48021 13.01 8.29021C14.37 7.61021 16 7.88021 17.07 8.95021L17.44 9.32021C17.73 9.61021 17.73 10.0902 17.44 10.3802C17.29 10.5302 17.1 10.6102 16.91 10.6102Z" fill="white"/> <path d="M22.36 17.01C22.21 17.43 21.99 17.78 21.73 18.07C21.61 18.22 21.47 18.35 21.33 18.47C20.59 19.1 19.67 19.38 18.96 19.49C18.82 19.51 18.7 19.52 18.58 19.52C18.5 19.53 18.42 19.53 18.35 19.53C18.24 19.53 18.08 19.47 17.99 19.4C17.26 18.81 15.84 16.96 16.53 14.94L16.56 14.88C16.89 13.98 17.88 13.52 18.77 13.85C18.93 13.91 19.06 13.99 19.2 14.08C19.5 14.3 19.71 14.61 19.82 14.97C19.88 14.94 19.93 14.89 20.01 14.86C20.4 14.66 20.89 14.63 21.35 14.79C21.43 14.82 21.5 14.85 21.57 14.9C22.31 15.29 22.66 16.19 22.36 17.01Z" fill="white"/> <path opacity="0.4" d="M22 12C22 13.01 21.85 13.98 21.57 14.9C21.5 14.85 21.43 14.82 21.35 14.79C20.89 14.63 20.4 14.66 20.01 14.86C19.93 14.89 19.88 14.94 19.82 14.97C19.71 14.61 19.5 14.3 19.2 14.08C19.06 13.99 18.93 13.91 18.77 13.85C17.88 13.52 16.89 13.98 16.56 14.88L16.53 14.94C15.84 16.96 17.26 18.81 17.99 19.4C18.08 19.47 18.24 19.53 18.35 19.53C18.42 19.53 18.5 19.53 18.58 19.52C16.82 21.07 14.52 22 12 22C6.48 22 2 17.52 2 12C2 6.48 6.48 2 12 2C17.52 2 22 6.48 22 12Z" fill="white"/> <path d="M11.5001 18.7504C11.2901 18.7504 11.07 18.6604 10.92 18.4804C10.65 18.1604 10.7001 17.6904 11.0201 17.4204L11.23 17.2504C11.57 16.9704 11.9401 16.7104 12.3301 16.4904L12.2101 16.3404C11.8101 15.8404 11.8101 15.1704 12.2101 14.6704L12.3301 14.5204C11.9401 14.3004 11.57 14.0404 11.23 13.7604L11.0201 13.5904C10.7001 13.3204 10.66 12.8504 10.92 12.5304C11.18 12.2104 11.66 12.1704 11.98 12.4304L12.1901 12.6004C12.6501 12.9904 13.19 13.3104 13.79 13.5604C14.01 13.6504 14.17 13.8404 14.23 14.0704C14.29 14.3004 14.24 14.5404 14.09 14.7204L13.4701 15.5004L14.09 16.2804C14.24 16.4604 14.29 16.7104 14.23 16.9304C14.17 17.1604 14.01 17.3504 13.79 17.4404C13.19 17.6904 12.6601 18.0104 12.1901 18.4004L11.98 18.5704C11.84 18.6904 11.6701 18.7504 11.5001 18.7504Z" fill="white"/> </g> <defs> <clipPath id="clip0_4482_6256"> <rect width="24" height="24" fill="white"/> </clipPath> </defs> </svg>
