<svg width="24" height="24" viewBox="0 0 24 24" fill="none" xmlns="http://www.w3.org/2000/svg"> <g clip-path="url(#clip0_4482_9516)"> <g opacity="0.4"> <path d="M22 6V18C22 19.66 20.66 21 19 21H13V6C13 4.34 14.34 3 16 3H19C20.66 3 22 4.34 22 6Z" fill="white"/> </g> <path d="M22 10H13V11.5H22V10Z" fill="white"/> <path d="M19 8.75C18.59 8.75 18.25 8.41 18.25 8V6C18.25 5.59 18.59 5.25 19 5.25C19.41 5.25 19.75 5.59 19.75 6V8C19.75 8.41 19.41 8.75 19 8.75Z" fill="white"/> <path d="M19 16.75C18.59 16.75 18.25 16.41 18.25 16V14C18.25 13.59 18.59 13.25 19 13.25C19.41 13.25 19.75 13.59 19.75 14V16C19.75 16.41 19.41 16.75 19 16.75Z" fill="white"/> <path d="M5 10C3.34 10 2 11.34 2 13V18C2 19.66 3.34 21 5 21H13V10H5ZM7.5 18C6.12 18 5 16.88 5 15.5C5 14.12 6.12 13 7.5 13C8.88 13 10 14.12 10 15.5C10 16.88 8.88 18 7.5 18Z" fill="white"/> </g> <defs> <clipPath id="clip0_4482_9516"> <rect width="24" height="24" fill="white"/> </clipPath> </defs> </svg>
