<svg width="24" height="24" viewBox="0 0 24 24" fill="none" xmlns="http://www.w3.org/2000/svg"> <g clip-path="url(#clip0_2085_393633)"> <path d="M8.75 12.2705H4C2.9 12.2705 2 13.1705 2 14.2705V16.5205C2 17.6205 2.9 18.5205 4 18.5205H8.75C9.85 18.5205 10.75 17.6205 10.75 16.5205V14.2705C10.75 13.1705 9.85 12.2705 8.75 12.2705Z" fill="white"/> <g opacity="0.4"> <path d="M7.63 18.5205H5.13V21.0205H7.63V18.5205Z" fill="white"/> </g> <path d="M9.5 21.7705H3.25C2.84 21.7705 2.5 21.4305 2.5 21.0205C2.5 20.6105 2.84 20.2705 3.25 20.2705H9.5C9.91 20.2705 10.25 20.6105 10.25 21.0205C10.25 21.4305 9.91 21.7705 9.5 21.7705Z" fill="white"/> <path d="M20 12.2705H15.25C14.15 12.2705 13.25 13.1705 13.25 14.2705V16.5205C13.25 17.6205 14.15 18.5205 15.25 18.5205H20C21.1 18.5205 22 17.6205 22 16.5205V14.2705C22 13.1705 21.1 12.2705 20 12.2705Z" fill="white"/> <g opacity="0.4"> <path d="M18.88 18.5205H16.38V21.0205H18.88V18.5205Z" fill="white"/> </g> <path d="M20.75 21.7705H14.5C14.09 21.7705 13.75 21.4305 13.75 21.0205C13.75 20.6105 14.09 20.2705 14.5 20.2705H20.75C21.16 20.2705 21.5 20.6105 21.5 21.0205C21.5 21.4305 21.16 21.7705 20.75 21.7705Z" fill="white"/> <path d="M6.37999 8.90988C7.28999 8.90988 8.01999 8.17988 8.01999 7.26988C8.01999 6.35988 7.28999 5.62988 6.37999 5.62988C5.46999 5.62988 4.73999 6.35988 4.73999 7.26988C4.73999 8.17988 5.47999 8.90988 6.37999 8.90988Z" fill="white"/> <path d="M17.63 8.90988C18.54 8.90988 19.27 8.17988 19.27 7.26988C19.27 6.35988 18.54 5.62988 17.63 5.62988C16.72 5.62988 15.99 6.35988 15.99 7.26988C15.99 8.17988 16.73 8.90988 17.63 8.90988Z" fill="white"/> <g opacity="0.4"> <path d="M17.63 13.0205C17.22 13.0205 16.88 12.6805 16.88 12.2705V8.52051C16.88 8.11051 17.22 7.77051 17.63 7.77051C18.04 7.77051 18.38 8.11051 18.38 8.52051V12.2705C18.38 12.6805 18.04 13.0205 17.63 13.0205Z" fill="white"/> </g> <g opacity="0.4"> <path d="M6.38 13.0205C5.97 13.0205 5.63 12.6805 5.63 12.2705V8.52051C5.63 8.11051 5.97 7.77051 6.38 7.77051C6.79 7.77051 7.13 8.11051 7.13 8.52051V12.2705C7.13 12.6805 6.79 13.0205 6.38 13.0205Z" fill="white"/> </g> <g opacity="0.4"> <path d="M16.38 8.02051H7.63C7.22 8.02051 6.88 7.68051 6.88 7.27051C6.88 6.86051 7.22 6.52051 7.63 6.52051H16.38C16.79 6.52051 17.13 6.86051 17.13 7.27051C17.13 7.68051 16.79 8.02051 16.38 8.02051Z" fill="white"/> </g> <path d="M12.88 5.52027C12.69 5.52027 12.5 5.45027 12.35 5.30027C12.16 5.10027 11.84 5.10027 11.64 5.30027C11.35 5.59027 10.87 5.59027 10.58 5.30027C10.29 5.01027 10.29 4.53027 10.58 4.24027C11.36 3.46027 12.63 3.46027 13.41 4.24027C13.7 4.53027 13.7 5.01027 13.41 5.30027C13.26 5.45027 13.07 5.52027 12.88 5.52027Z" fill="white"/> <path d="M14.65 3.76016C14.46 3.76016 14.27 3.69016 14.12 3.54016C12.99 2.41016 11.01 2.41016 9.88004 3.54016C9.59004 3.83016 9.11004 3.83016 8.82004 3.54016C8.53004 3.25016 8.53004 2.77016 8.82004 2.48016C9.67004 1.63016 10.8 1.16016 12 1.16016C13.2 1.16016 14.33 1.63016 15.18 2.48016C15.47 2.77016 15.47 3.25016 15.18 3.54016C15.03 3.69016 14.84 3.76016 14.65 3.76016Z" fill="white"/> </g> <defs> <clipPath id="clip0_2085_393633"> <rect width="24" height="24" fill="white"/> </clipPath> </defs> </svg>
