<svg width="24" height="24" viewBox="0 0 24 24" fill="none" xmlns="http://www.w3.org/2000/svg"> <g clip-path="url(#clip0_4482_9519)"> <g opacity="0.4"> <path d="M19 2H5C3.34315 2 2 3.34315 2 5V17.89C2 19.5469 3.34315 20.89 5 20.89H19C20.6569 20.89 22 19.5469 22 17.89V5C22 3.34315 20.6569 2 19 2Z" fill="white"/> </g> <path d="M22 11.25H2V12.75H22V11.25Z" fill="white"/> <path d="M18.5303 20.8899V21.9999C18.5303 22.4099 18.1903 22.7499 17.7803 22.7499C17.3703 22.7499 17.0303 22.4099 17.0303 21.9999V20.8899H18.5303Z" fill="white"/> <path d="M6.96973 20.8899V21.9999C6.96973 22.4099 6.63973 22.7499 6.21973 22.7499C5.79973 22.7499 5.46973 22.4099 5.46973 21.9999V20.8899H6.96973Z" fill="white"/> <path d="M14.2203 17.1899H9.78027C9.37027 17.1899 9.03027 16.8499 9.03027 16.4399C9.03027 16.0299 9.37027 15.6899 9.78027 15.6899H14.2203C14.6303 15.6899 14.9703 16.0299 14.9703 16.4399C14.9703 16.8499 14.6303 17.1899 14.2203 17.1899Z" fill="white"/> <path d="M12.75 2V12C12.75 12.41 12.41 12.75 12 12.75C11.59 12.75 11.25 12.41 11.25 12V2H12.75Z" fill="white"/> </g> <defs> <clipPath id="clip0_4482_9519"> <rect width="24" height="24" fill="white"/> </clipPath> </defs> </svg>
