<svg width="24" height="24" viewBox="0 0 24 24" fill="none" xmlns="http://www.w3.org/2000/svg"> <g clip-path="url(#clip0_2085_387606)"> <path d="M11.9995 2.70996C15.1888 2.70996 17.5271 2.83287 19.0727 2.95703C19.8452 3.01908 20.4198 3.08167 20.8042 3.12891C20.9961 3.15249 21.1409 3.17235 21.2387 3.18652C21.2876 3.1936 21.3253 3.19912 21.351 3.20312C21.3639 3.20513 21.3742 3.20686 21.3813 3.20801C21.3846 3.20854 21.3871 3.20963 21.3891 3.20996H21.393C21.8013 3.2784 22.0773 3.66493 22.0093 4.07324C21.9409 4.48178 21.5545 4.75778 21.146 4.68945C21.1452 4.68933 21.1439 4.68878 21.1421 4.68848C21.1377 4.68777 21.1298 4.68713 21.1196 4.68555C21.0993 4.68238 21.0673 4.67718 21.0239 4.6709C20.9368 4.65828 20.8029 4.64045 20.6216 4.61816C20.2585 4.57354 19.7047 4.51256 18.9526 4.45215C17.4483 4.33131 15.1502 4.20996 11.9995 4.20996C8.84905 4.20997 6.55159 4.33132 5.04734 4.45215C4.29526 4.51256 3.7415 4.57353 3.37839 4.61816C3.19706 4.64045 3.06319 4.65828 2.97605 4.6709C2.93272 4.67717 2.90067 4.68238 2.88035 4.68555C2.87019 4.68713 2.86227 4.68777 2.85788 4.68848C2.85602 4.68878 2.85475 4.68933 2.85398 4.68945L2.77781 4.69824C2.39829 4.72297 2.05477 4.45639 1.9907 4.07324C1.9226 3.66491 2.19765 3.27839 2.60593 3.20996H2.61081C2.61284 3.20963 2.61537 3.20853 2.61863 3.20801C2.62572 3.20686 2.63605 3.20513 2.6489 3.20312C2.6746 3.19912 2.71235 3.1936 2.76121 3.18652C2.85907 3.17235 3.00391 3.15249 3.19578 3.12891C3.58012 3.08167 4.15476 3.01908 4.92722 2.95703C6.47282 2.83288 8.8104 2.70997 11.9995 2.70996Z" fill="white"/> <path d="M2.14631 1.25593C2.55721 1.2043 2.93244 1.49547 2.9842 1.90632L3.47444 5.80671C3.52598 6.21763 3.234 6.59297 2.82307 6.6446C2.41229 6.69592 2.03777 6.40404 1.98615 5.99324L1.49592 2.09382C1.44429 1.68292 1.73546 1.30769 2.14631 1.25593Z" fill="white"/> <path d="M21.853 1.25587C22.2639 1.30751 22.556 1.68278 22.5043 2.09376L22.0141 5.99318C21.9625 6.40416 21.5872 6.69618 21.1762 6.64454C20.7654 6.59281 20.4743 6.21751 20.5258 5.80665L21.016 1.90626C21.0678 1.49559 21.4423 1.20453 21.853 1.25587Z" fill="white"/> <path d="M4.42004 4.44043C4.42004 4.02622 4.75583 3.69043 5.17004 3.69043C5.58426 3.69043 5.92004 4.02622 5.92004 4.44043C5.92004 5.95924 6.58417 7.87891 7.72473 9.41797C8.86766 10.9602 10.3783 11.9805 12.0001 11.9805C13.6218 11.9804 15.1317 10.96 16.2745 9.41797C17.4151 7.87891 18.0802 5.95924 18.0802 4.44043C18.0802 4.02622 18.416 3.69043 18.8302 3.69043C19.2443 3.69051 19.5802 4.02627 19.5802 4.44043C19.5802 6.3315 18.7799 8.55716 17.4806 10.3105C16.1835 12.0608 14.2783 13.4804 12.0001 13.4805C9.72194 13.4805 7.81672 12.0608 6.51965 10.3105C5.22033 8.55715 4.42004 6.33152 4.42004 4.44043Z" fill="white"/> <path d="M9.78987 12.7305C9.78987 12.3163 10.1257 11.9805 10.5399 11.9805C10.9541 11.9805 11.2899 12.3163 11.2899 12.7305V17.1201C11.2899 17.4111 11.1217 17.6763 10.8582 17.7998C10.5949 17.9231 10.2839 17.8831 10.0604 17.6973C9.35888 17.1131 8.64859 16.642 8.06135 16.3789C7.76655 16.2468 7.53598 16.183 7.37385 16.166C7.30061 16.1584 7.25607 16.1621 7.23225 16.166C7.22429 16.187 7.21341 16.2236 7.20589 16.2842C7.18379 16.4622 7.19912 16.7661 7.31624 17.2383C7.54972 18.1795 8.13663 19.6005 9.24885 21.6416C9.37542 21.874 9.3703 22.1563 9.23518 22.3838C9.10003 22.6113 8.85428 22.75 8.58967 22.75H6.64046C6.22624 22.75 5.89046 22.4142 5.89046 22C5.89071 21.586 6.2264 21.25 6.64046 21.25H7.34846C6.56816 19.7154 6.08776 18.5169 5.86018 17.5996C5.72075 17.0375 5.66289 16.5327 5.71663 16.0996C5.7718 15.6552 5.95564 15.2289 6.3426 14.9482C6.71636 14.6773 7.15416 14.6347 7.52913 14.6738C7.90659 14.7133 8.29872 14.8423 8.67464 15.0107C9.03483 15.1722 9.4114 15.3843 9.78987 15.6309V12.7305Z" fill="white"/> <path d="M12.71 12.7305C12.71 12.3163 13.0457 11.9805 13.46 11.9805C13.8742 11.9805 14.21 12.3163 14.21 12.7305V15.6309C14.5884 15.3843 14.965 15.1722 15.3252 15.0107C15.7011 14.8423 16.0932 14.7133 16.4707 14.6738C16.8458 14.6347 17.2843 14.6771 17.6582 14.9482C18.045 15.2289 18.228 15.6553 18.2832 16.0996C18.3369 16.5327 18.2791 17.0375 18.1396 17.5996C17.9121 18.5168 17.4325 19.7156 16.6523 21.25H17.3604C17.7742 21.2502 18.1101 21.5861 18.1104 22C18.1104 22.4141 17.7744 22.7498 17.3604 22.75H15.4102C15.1455 22.75 14.8998 22.6113 14.7646 22.3838C14.6295 22.1563 14.6244 21.874 14.751 21.6416C15.8632 19.6005 16.4501 18.1795 16.6836 17.2383C16.8007 16.7661 16.816 16.4622 16.7939 16.2842C16.7864 16.2233 16.7746 16.1869 16.7666 16.166C16.7425 16.1622 16.6981 16.1585 16.626 16.166C16.4639 16.183 16.2332 16.2468 15.9385 16.3789C15.3513 16.642 14.6409 17.1131 13.9395 17.6973C13.7159 17.8831 13.4049 17.9232 13.1416 17.7998C12.8781 17.6763 12.71 17.4111 12.71 17.1201V12.7305Z" fill="white"/> <path opacity="0.4" d="M11.95 10.2301C13.027 10.2301 13.9 9.35703 13.9 8.28008C13.9 7.20312 13.027 6.33008 11.95 6.33008C10.873 6.33008 10 7.20312 10 8.28008C10 9.35703 10.873 10.2301 11.95 10.2301Z" fill="white" stroke="white" stroke-width="1.5" stroke-linecap="round" stroke-linejoin="round"/> </g> <defs> <clipPath id="clip0_2085_387606"> <rect width="24" height="24" fill="white"/> </clipPath> </defs> </svg>
