<svg width="24" height="24" viewBox="0 0 24 24" fill="none" xmlns="http://www.w3.org/2000/svg"> <g clip-path="url(#clip0_2085_393068)"> <g opacity="0.4"> <path d="M21.99 5.00977V14.4498H2V5.00977C2 3.34977 3.34 2.00977 5 2.00977H18.99C20.65 2.00977 21.99 3.34977 21.99 5.00977Z" fill="white"/> </g> <path d="M8.27004 11.4695C7.97004 11.4695 7.71004 11.2995 7.58004 11.0195L6.51004 8.60951L6.01004 9.44951C5.87004 9.67951 5.63004 9.80951 5.37004 9.80951H4.54004C4.13004 9.80951 3.79004 9.46951 3.79004 9.05951C3.79004 8.64951 4.13004 8.30951 4.54004 8.30951H4.94004L5.97004 6.59951C6.11004 6.35951 6.37004 6.21951 6.66004 6.23951C6.94004 6.25951 7.19004 6.42951 7.30004 6.67951L8.17004 8.64951L9.22004 5.50951C9.32004 5.21951 9.58004 5.01951 9.88004 4.99951C10.19 4.96951 10.47 5.13951 10.6 5.40951L11.95 8.10951L12.56 6.68951C12.67 6.42951 12.92 6.25951 13.2 6.23951C13.49 6.21951 13.75 6.35951 13.89 6.59951L14.92 8.30951H15.86C16.27 8.30951 16.61 8.64951 16.61 9.05951C16.61 9.46951 16.27 9.80951 15.86 9.80951H14.49C14.23 9.80951 13.98 9.66951 13.85 9.44951L13.36 8.62951L12.69 10.1895C12.57 10.4595 12.31 10.6395 12.02 10.6395C11.71 10.6495 11.46 10.4895 11.33 10.2295L10.07 7.69951L8.98004 10.9595C8.88004 11.2495 8.61004 11.4595 8.30004 11.4695C8.29004 11.4695 8.28004 11.4695 8.26004 11.4695H8.27004Z" fill="white"/> <path d="M2.01001 14.4502V17.4302C2.01001 18.5302 2.90001 19.4302 4.01001 19.4302H20C21.1 19.4302 22 18.5302 22 17.4302V14.4502H2.01001ZM7.03001 17.6902H4.54001C4.13001 17.6902 3.79001 17.3502 3.79001 16.9402C3.79001 16.5302 4.13001 16.1902 4.54001 16.1902H7.03001C7.44001 16.1902 7.78001 16.5302 7.78001 16.9402C7.78001 17.3502 7.44001 17.6902 7.03001 17.6902ZM9.51001 17.5602C9.17001 17.5602 8.89001 17.2802 8.89001 16.9402C8.89001 16.6002 9.17001 16.3202 9.51001 16.3202C9.85001 16.3202 10.13 16.6002 10.13 16.9402C10.13 17.2802 9.85001 17.5602 9.51001 17.5602ZM12 17.5602C11.66 17.5602 11.38 17.2802 11.38 16.9402C11.38 16.6002 11.66 16.3202 12 16.3202C12.34 16.3202 12.62 16.6002 12.62 16.9402C12.62 17.2802 12.34 17.5602 12 17.5602ZM14.49 17.5602C14.15 17.5602 13.87 17.2802 13.87 16.9402C13.87 16.6002 14.15 16.3202 14.49 16.3202C14.83 16.3202 15.11 16.6002 15.11 16.9402C15.11 17.2802 14.83 17.5602 14.49 17.5602ZM19.47 17.6902H16.98C16.57 17.6902 16.23 17.3502 16.23 16.9402C16.23 16.5302 16.57 16.1902 16.98 16.1902H19.47C19.88 16.1902 20.22 16.5302 20.22 16.9402C20.22 17.3502 19.88 17.6902 19.47 17.6902Z" fill="white"/> <path d="M20.76 19.1504V20.1604C20.76 21.1804 19.93 22.0004 18.92 22.0004C17.91 22.0004 17.08 21.1804 17.08 20.1604V19.1504H20.76Z" fill="white"/> <path d="M6.93 19.1504V20.1604C6.93 21.1804 6.11 22.0004 5.09 22.0004C4.07 22.0004 3.25 21.1804 3.25 20.1604V19.1504H6.93Z" fill="white"/> <path d="M16.66 7.16992C17.04 7.16992 17.37 7.33992 17.6 7.59992C17.83 7.33992 18.17 7.16992 18.54 7.16992C19.23 7.16992 19.8 7.72992 19.8 8.42992C19.8 9.42031 18.6832 10.2736 18.041 10.6824C17.7701 10.8549 17.4303 10.8542 17.1598 10.6811C16.5177 10.2702 15.4 9.41356 15.4 8.42992C15.4 7.73992 15.96 7.16992 16.66 7.16992Z" fill="white"/> </g> <defs> <clipPath id="clip0_2085_393068"> <rect width="24" height="24" fill="white"/> </clipPath> </defs> </svg>
