<svg width="24" height="24" viewBox="0 0 24 24" fill="none" xmlns="http://www.w3.org/2000/svg"> <g clip-path="url(#clip0_4482_918)"> <path opacity="0.4" d="M15.5 22H8.5C6.03 22 4 19.97 4 17.5V6.5C4 4.03 6.03 2 8.5 2H15.5C17.98 2 20 4.03 20 6.5V17.5C20 19.97 17.98 22 15.5 22Z" fill="white"/> <path d="M14 6.75H10C9.59 6.75 9.25 6.41 9.25 6C9.25 5.59 9.59 5.25 10 5.25H14C14.41 5.25 14.75 5.59 14.75 6C14.75 6.41 14.41 6.75 14 6.75Z" fill="white"/> <path d="M12 19.25C11.31 19.25 10.75 18.69 10.75 18C10.75 17.31 11.3 16.75 12 16.75C12.69 16.75 13.25 17.31 13.25 18C13.25 18.69 12.7 19.25 12 19.25Z" fill="white"/> </g> <defs> <clipPath id="clip0_4482_918"> <rect width="24" height="24" fill="white"/> </clipPath> </defs> </svg>
