<svg width="24" height="24" viewBox="0 0 24 24" fill="none" xmlns="http://www.w3.org/2000/svg"> <g clip-path="url(#clip0_4482_14665)"> <path opacity="0.4" d="M17 2H7C4.23858 2 2 4.23858 2 7V17C2 19.7614 4.23858 22 7 22H17C19.7614 22 22 19.7614 22 17V7C22 4.23858 19.7614 2 17 2Z" fill="white"/> <path d="M8.66992 8.46973H6.16992C5.75992 8.46973 5.41992 8.80973 5.41992 9.21973V14.7797C5.41992 15.1897 5.75992 15.5297 6.16992 15.5297C6.57992 15.5297 6.91992 15.1897 6.91992 14.7797V13.3097H8.66992C9.23992 13.3097 9.77992 13.0897 10.1799 12.6797C10.5799 12.2697 10.8099 11.7397 10.8099 11.1697V10.6097C10.8099 10.0397 10.5899 9.49973 10.1799 9.09973C9.76992 8.69973 9.23992 8.46973 8.66992 8.46973ZM9.30992 11.1597C9.30992 11.3297 9.23992 11.4897 9.11992 11.6097C8.99992 11.7297 8.83992 11.7997 8.66992 11.7997H6.91992V9.96973H8.66992C8.83992 9.96973 8.99992 10.0397 9.11992 10.1597C9.23992 10.2797 9.30992 10.4397 9.30992 10.6097V11.1697V11.1597Z" fill="white"/> <path d="M18.0904 8.52011C17.8004 8.41011 17.4604 8.5001 17.2604 8.7401L15.4704 10.8501L13.6804 8.7401C13.4804 8.5001 13.1504 8.41011 12.8504 8.52011C12.5604 8.63011 12.3604 8.91011 12.3604 9.22011V14.7801C12.3604 15.1901 12.7004 15.5301 13.1104 15.5301C13.5204 15.5301 13.8604 15.1901 13.8604 14.7801V11.2701L14.9004 12.4901C15.1804 12.8301 15.7604 12.8301 16.0404 12.4901L17.0804 11.2701V14.7801C17.0804 15.1901 17.4204 15.5301 17.8304 15.5301C18.2404 15.5301 18.5804 15.1901 18.5804 14.7801V9.22011C18.5804 8.91011 18.3804 8.62011 18.0904 8.52011Z" fill="white"/> </g> <defs> <clipPath id="clip0_4482_14665"> <rect width="24" height="24" fill="white"/> </clipPath> </defs> </svg>
