<svg width="24" height="24" viewBox="0 0 24 24" fill="none" xmlns="http://www.w3.org/2000/svg"> <g clip-path="url(#clip0_2085_383551)"> <path d="M6.21008 5.54992C5.80008 5.54992 5.46008 5.20992 5.46008 4.79992V4.66992C5.46008 4.25992 5.80008 3.91992 6.21008 3.91992C6.62008 3.91992 6.96008 4.25992 6.96008 4.66992V4.79992C6.96008 5.20992 6.62008 5.54992 6.21008 5.54992Z" fill="white"/> <path d="M18.23 20.6406H18.12C17.71 20.6406 17.37 20.3006 17.37 19.8906C17.37 19.4806 17.71 19.1406 18.12 19.1406H18.23C18.64 19.1406 18.98 19.4806 18.98 19.8906C18.98 20.3006 18.64 20.6406 18.23 20.6406Z" fill="white"/> <path fill-rule="evenodd" clip-rule="evenodd" d="M14.4402 2.52148C15.2065 2.52158 15.9518 2.82948 16.4871 3.38867L19.8367 6.83789C20.3573 7.37221 20.6393 8.09188 20.6394 8.83105V16.7412C20.6394 17.0613 20.4362 17.346 20.1335 17.4502C19.8309 17.5542 19.4956 17.4553 19.2986 17.2031L8.77905 3.7334C8.60257 3.50743 8.57033 3.20007 8.69605 2.94238C8.82182 2.68488 9.08327 2.52148 9.36987 2.52148H14.4402ZM18.8669 14.2129L14.7595 4.06055C14.6562 4.03564 14.5491 4.02151 14.4402 4.02148H10.907L18.8669 14.2129Z" fill="white"/> <path d="M18.8669 14.2129L14.7595 4.06055C14.6562 4.03564 14.5491 4.02151 14.4402 4.02148H10.907L18.8669 14.2129Z" fill="white"/> <path d="M19.9 22.7508C19.68 22.7508 19.46 22.6508 19.31 22.4608L3.52001 2.46076C3.26001 2.13076 3.32001 1.66076 3.64001 1.41076C3.97001 1.15076 4.44001 1.21076 4.69001 1.53076L20.48 21.5308C20.74 21.8608 20.68 22.3308 20.36 22.5808C20.22 22.6908 20.06 22.7408 19.9 22.7408V22.7508Z" fill="white"/> <g opacity="0.4"> <path d="M18.1201 19.8908H8.32008C7.15008 19.8908 6.21008 18.9508 6.21008 17.7908V4.80078L18.1201 19.8908Z" fill="white"/> </g> <path d="M6.21002 5.55076C5.99002 5.55076 5.77002 5.45076 5.62002 5.26076L3.41002 2.46076C3.15002 2.13076 3.21002 1.66076 3.53002 1.41076C3.86002 1.15076 4.33002 1.21076 4.58002 1.53076L6.79002 4.33076C7.05002 4.66076 6.99002 5.13076 6.67002 5.38076C6.53002 5.49076 6.37002 5.54076 6.21002 5.54076V5.55076Z" fill="white"/> <path d="M19.79 22.7511C19.57 22.7511 19.35 22.6511 19.2 22.4711L17.53 20.3611C17.27 20.0411 17.33 19.5611 17.65 19.3111C17.98 19.0511 18.45 19.1111 18.7 19.4311L20.37 21.5411C20.63 21.8611 20.57 22.3411 20.25 22.5911C20.11 22.7011 19.95 22.7511 19.79 22.7511Z" fill="white"/> </g> <defs> <clipPath id="clip0_2085_383551"> <rect width="24" height="24" fill="white"/> </clipPath> </defs> </svg>
