<svg width="24" height="24" viewBox="0 0 24 24" fill="none" xmlns="http://www.w3.org/2000/svg"> <g clip-path="url(#clip0_2085_391429)"> <g opacity="0.4"> <path d="M22.66 12.0496V15.6896C22.66 17.7312 21.7488 19.6388 20.2219 20.9057C20.0691 21.0326 19.8459 21.0155 19.7054 20.875L17.8287 18.9983C17.7196 18.8892 17.683 18.7272 17.7339 18.5815C18.4142 16.6331 19.0612 14.3715 19.09 12.7096C19.09 10.6296 17.61 8.96965 15.62 8.96965C14.1381 8.96965 12.8614 10.8218 12.3061 11.7676C12.1792 11.9837 11.8409 11.9837 11.714 11.7676C11.1587 10.8218 9.88196 8.96965 8.40005 8.96965C6.41005 8.96965 4.93005 10.6296 4.93005 12.7096C4.95885 14.3708 5.59616 16.5851 6.28424 18.5204C6.33623 18.6666 6.29996 18.8297 6.19024 18.9395L4.29607 20.8336C4.155 20.9747 3.93064 20.9912 3.7778 20.863C2.26987 19.598 1.36005 17.7102 1.36005 15.6796V12.0396C1.34005 6.16965 6.12005 1.38965 12 1.38965C17.88 1.38965 22.66 6.15965 22.66 12.0496Z" fill="white"/> </g> <path d="M14.29 12.5502C14.29 13.1302 14.76 13.6102 15.35 13.6102C15.94 13.6102 16.41 13.1402 16.41 12.5502C16.41 11.9602 15.94 11.4902 15.35 11.4902C14.76 11.4902 14.29 11.9602 14.29 12.5502Z" fill="white"/> <path d="M7.68005 12.5502C7.68005 13.1302 8.15005 13.6102 8.74005 13.6102C9.33005 13.6102 9.80005 13.1402 9.80005 12.5502C9.80005 11.9602 9.33005 11.4902 8.74005 11.4902C8.15005 11.4902 7.68005 11.9602 7.68005 12.5502Z" fill="white"/> <path d="M14.4592 15.1211C14.836 15.3624 14.9232 15.8569 14.725 16.2582L13.0999 19.5498C12.6499 20.4598 11.3499 20.4598 10.8999 19.5498L9.27484 16.2582C9.07673 15.8569 9.16387 15.3624 9.54073 15.1211C11.0371 14.1628 12.9627 14.1628 14.4592 15.1211Z" fill="white"/> </g> <defs> <clipPath id="clip0_2085_391429"> <rect width="24" height="24" fill="white"/> </clipPath> </defs> </svg>
