<svg width="19" height="20" viewBox="0 0 19 20" fill="none" xmlns="http://www.w3.org/2000/svg"> <g clip-path="url(#clip0_2085_391428)"> <g opacity="0.4"> <path d="M18.61 14.61C15.26 12.59 15.36 8.21 15.36 8.21V7.22C15.34 5.98 14.33 4.99 13.09 4.99H12.87C12.25 4.99 11.68 5.24 11.28 5.65C10.87 6.06 10.61 6.62 10.61 7.25V8.93L9.81999 8.45C9.54 8.29 9.19 8.29 8.92 8.45L8.12 8.93V7.25C8.12 6.62 7.87 6.06 7.46 5.65C7.05 5.24 6.49 4.98 5.86 4.98H5.65C4.41 4.98 3.4 5.98 3.38 7.22V8.21C3.37 8.36 3.34 12.58 0.119995 14.57L0.529995 8.18C0.819995 3.75 4.49999 0 8.93999 0H9.79C14.24 0 17.92 3.75 18.2 8.18L18.61 14.61Z" fill="white"/> </g> <g opacity="0.4"> <path d="M15.26 20.0003H3.47998C4.37998 14.4903 6.92998 12.0703 6.92998 12.0703L8.29998 13.3303C8.89998 13.8803 9.82998 13.8803 10.44 13.3303L11.81 12.0703C11.81 12.0703 14.35 14.4903 15.26 20.0003Z" fill="white"/> </g> <path d="M12.76 11.2001L11.81 12.0701L10.44 13.3301C9.82999 13.8801 8.89999 13.8801 8.29999 13.3301L6.92999 12.0701L5.97999 11.2001C5.65999 10.9101 5.70999 10.3901 6.07999 10.1601L8.11999 8.93008L8.91999 8.45008C9.18999 8.29008 9.53999 8.29008 9.81999 8.45008L10.61 8.93008L12.65 10.1601C13.02 10.3901 13.08 10.9101 12.76 11.2001Z" fill="white"/> <path d="M8.11999 8.93047V7.25047C8.11999 6.62047 7.86999 6.06047 7.45999 5.65047C7.04999 5.24047 6.48999 4.98047 5.85999 4.98047H5.64999C4.40999 4.98047 3.39999 5.98047 3.37999 7.22047V8.21047C3.36999 8.36047 3.33999 12.5805 0.119989 14.5705L0.00998904 16.3505C-0.110011 18.3305 1.45999 20.0005 3.43999 20.0005H3.47999C4.37999 14.4905 6.92999 12.0705 6.92999 12.0705L5.97999 11.2005C5.65999 10.9105 5.70999 10.3905 6.07999 10.1605L8.11999 8.93047ZM5.75999 7.95047C5.41999 7.95047 5.13999 7.67047 5.13999 7.33047C5.13999 6.99047 5.41999 6.71047 5.75999 6.71047C6.09999 6.71047 6.37999 6.99047 6.37999 7.33047C6.37999 7.67047 6.09999 7.95047 5.75999 7.95047Z" fill="white"/> <path d="M18.61 14.6102C15.26 12.5902 15.36 8.21023 15.36 8.21023V7.22023C15.34 5.98023 14.33 4.99023 13.09 4.99023H12.87C12.25 4.99023 11.68 5.24023 11.28 5.65023C10.87 6.06023 10.61 6.62023 10.61 7.25023V8.93023L12.65 10.1602C13.02 10.3902 13.08 10.9102 12.76 11.2002L11.81 12.0702C11.81 12.0702 14.35 14.4902 15.26 20.0002H15.29C17.27 20.0002 18.85 18.3302 18.72 16.3502L18.61 14.6102ZM12.96 7.95023C12.62 7.95023 12.34 7.67023 12.34 7.33023C12.34 6.99023 12.62 6.71023 12.96 6.71023C13.3 6.71023 13.58 6.99023 13.58 7.33023C13.58 7.67023 13.3 7.95023 12.96 7.95023Z" fill="white"/> </g> <defs> <clipPath id="clip0_2085_391428"> <rect width="18.72" height="20" fill="white"/> </clipPath> </defs> </svg>
