<svg width="24" height="24" viewBox="0 0 24 24" fill="none" xmlns="http://www.w3.org/2000/svg"> <g clip-path="url(#clip0_2085_388189)"> <path d="M21.61 4.28C20.24 5.65 17.84 8.05 17.84 8.05L15.95 6.16C15.95 6.16 18.35 3.77 19.73 2.39C20.25 1.87 21.09 1.87 21.61 2.39C22.13 2.91 22.13 3.76 21.61 4.28Z" fill="white"/> <path d="M16.9001 7.11035L15.0601 8.95035" stroke="white" stroke-width="1.41" stroke-linecap="round" stroke-linejoin="round"/> <path d="M14.982 5.19184C15.2573 4.91652 15.7028 4.91652 15.9781 5.19184L18.8082 8.02094C19.0835 8.29626 19.0835 8.74269 18.8082 9.01801C18.5329 9.29333 18.0864 9.29333 17.8111 9.01801L14.982 6.18793C14.7067 5.91262 14.7067 5.46716 14.982 5.19184Z" fill="white"/> <path d="M12.6699 21.2949C13.0593 21.2949 13.375 21.6106 13.375 22C13.375 22.3894 13.0593 22.7051 12.6699 22.7051H2C1.61064 22.7051 1.29492 22.3894 1.29492 22C1.29492 21.6106 1.61064 21.2949 2 21.2949H12.6699Z" fill="white"/> <path d="M15.8101 9.69908C15.915 9.80461 15.9148 9.97517 15.8096 10.0804L14.12 11.77L12.23 9.89L13.9286 8.19143C14.0342 8.08579 14.2055 8.08601 14.3109 8.19193L15.8101 9.69908Z" fill="white"/> <path opacity="0.4" d="M14.35 13.4199L12.49 15.2899C12.47 15.2299 12.46 15.1799 12.44 15.1199C12.44 15.0999 12.43 15.0799 12.42 15.0599C12.38 14.9299 12.33 14.7899 12.28 14.6599C12.23 14.5399 12.18 14.4199 12.11 14.2999C12.06 14.1999 12.01 14.0899 11.95 13.9899C11.72 13.5899 11.44 13.2299 11.11 12.8999C11.07 12.8499 11.01 12.7999 10.96 12.7499C10.66 12.4699 10.32 12.2299 9.95997 12.0199C9.87997 11.9699 9.79997 11.9299 9.71997 11.8899C9.61997 11.8399 9.50997 11.7899 9.38997 11.7399C9.23997 11.6799 9.07997 11.6199 8.91997 11.5699C8.84997 11.5499 8.78997 11.5299 8.71997 11.5099L10.58 9.64992C10.97 9.25992 11.61 9.25992 12 9.64992L12.23 9.88992L14.12 11.7699L14.35 12.0099C14.74 12.3999 14.74 13.0299 14.35 13.4199Z" fill="white"/> <path d="M12.67 16.6701C12.67 18.0201 12.16 19.2501 11.34 20.1901V22.0001H3.34V20.1901C2.51 19.2501 2 18.0201 2 16.6701C2 13.7201 4.39 11.3301 7.34 11.3301C7.82 11.3301 8.28 11.3901 8.72 11.5101C8.79 11.5301 8.85 11.5501 8.92 11.5701C9.08 11.6201 9.24 11.6801 9.39 11.7401C9.51 11.7901 9.62 11.8401 9.72 11.8901C9.8 11.9301 9.88 11.9701 9.96 12.0201C10.32 12.2301 10.66 12.4701 10.96 12.7501L11.11 12.9001C11.44 13.2301 11.72 13.5901 11.95 13.9901C12.01 14.0901 12.06 14.2001 12.11 14.3001C12.18 14.4201 12.23 14.5401 12.28 14.6601C12.33 14.7901 12.38 14.9301 12.42 15.0601C12.42 15.0801 12.44 15.1001 12.44 15.1201C12.46 15.1801 12.47 15.2301 12.49 15.2901C12.61 15.7301 12.67 16.1901 12.67 16.6701Z" fill="white"/> </g> <defs> <clipPath id="clip0_2085_388189"> <rect width="24" height="24" fill="white"/> </clipPath> </defs> </svg>
