<svg width="24" height="24" viewBox="0 0 24 24" fill="none" xmlns="http://www.w3.org/2000/svg"> <g clip-path="url(#clip0_2085_383426)"> <path d="M19.97 13.8298C18.72 15.0798 16.98 15.8598 15.07 15.8598C14.1 15.8598 13.17 15.6598 12.33 15.2898C10.7 14.5998 9.40001 13.2898 8.70001 11.6598C8.34001 10.8198 8.14001 9.89979 8.14001 8.92979C8.14001 7.01979 8.92001 5.27979 10.17 4.02979C10.17 9.43979 14.56 13.8298 19.97 13.8298Z" fill="white"/> <g opacity="0.4"> <path d="M22 8.93C22 10.84 21.22 12.58 19.97 13.83C14.56 13.83 10.17 9.44 10.17 4.03C11.42 2.78 13.16 2 15.07 2C16.98 2 18.58 2.72 19.81 3.89C19.43 3.57 18.94 3.38 18.4 3.38C17.17 3.38 16.18 4.37 16.18 5.6C16.18 6.83 17.17 7.82 18.4 7.82C19.63 7.82 20.62 6.83 20.62 5.6C20.62 5.06 20.43 4.57 20.11 4.19C21.28 5.42 22 7.1 22 8.93Z" fill="white"/> </g> <path d="M20.6201 5.59988C20.6201 6.82988 19.6301 7.81988 18.4001 7.81988C17.1701 7.81988 16.1801 6.82988 16.1801 5.59988C16.1801 4.36988 17.1701 3.37988 18.4001 3.37988C18.9401 3.37988 19.4301 3.56988 19.8101 3.88988C19.9201 3.97988 20.0201 4.07988 20.1101 4.18988C20.4301 4.56988 20.6201 5.05988 20.6201 5.59988Z" fill="white"/> <path d="M12.33 15.2902L12.27 15.3202C10.19 16.4202 8.49001 18.1102 7.37001 20.1802L7.18001 20.5502C6.62001 21.5802 5.46001 22.1502 4.30001 21.9602C3.14001 21.7702 2.23001 20.8602 2.04001 19.6902C1.84001 18.5302 2.41001 17.3802 3.45001 16.8202L3.82001 16.6202C5.88001 15.5102 7.58001 13.8002 8.67001 11.7302L8.70001 11.6602C9.40001 13.2902 10.7 14.6002 12.33 15.2902Z" fill="white"/> </g> <defs> <clipPath id="clip0_2085_383426"> <rect width="24" height="24" fill="white"/> </clipPath> </defs> </svg>
