<svg width="24" height="24" viewBox="0 0 24 24" fill="none" xmlns="http://www.w3.org/2000/svg"> <g clip-path="url(#clip0_2085_393075)"> <path d="M9.93005 20.7598C9.93005 21.4398 9.37005 21.9998 8.68005 21.9998H3.29005C2.60005 21.9998 2.05005 21.4398 2.05005 20.7598C2.05005 20.0798 2.59005 19.5198 3.28005 19.5098H8.68005C8.81005 19.5098 8.94005 19.5298 9.06005 19.5798C9.57005 19.7298 9.93005 20.1998 9.93005 20.7598Z" fill="white"/> <g opacity="0.4"> <path d="M10.64 9.87973L10.06 11.4697L9.35727 13.3807C9.28121 13.5876 9.27551 13.8138 9.3422 14.0238C9.34796 14.042 9.35389 14.0606 9.35997 14.0797C9.69997 15.1697 9.68997 16.3397 9.31997 17.4297V17.4697C9.12997 18.0197 9.03997 18.6097 9.03997 19.1997L9.05997 19.5797C8.93997 19.5297 8.80997 19.5097 8.67997 19.5097H3.27997L2.86997 10.7197C2.83997 9.97973 3.13997 9.25973 3.68997 8.76973L5.95997 6.71973C6.29997 7.85973 7.09997 8.90973 8.01997 9.79973L8.29997 9.02973C8.52997 8.37973 9.24997 8.04973 9.88997 8.27973C10.54 8.51973 10.87 9.22973 10.64 9.87973Z" fill="white"/> </g> <g opacity="0.4"> <path d="M21.13 10.7197L20.76 19.5097H14.96V19.1997C14.97 18.6097 14.88 18.0197 14.69 17.4697V17.4297C14.31 16.3397 14.3 15.1697 14.65 14.0797C14.6553 14.0606 14.6604 14.042 14.6654 14.0238C14.724 13.8128 14.7195 13.5882 14.6448 13.3823L13.95 11.4697L13.37 9.87973C13.13 9.22973 13.46 8.51973 14.11 8.27973C14.76 8.04973 15.47 8.37973 15.71 9.02973L15.99 9.79973C16.91 8.90973 17.71 7.85973 18.05 6.71973L20.31 8.76973C20.86 9.25973 21.16 9.97973 21.13 10.7197Z" fill="white"/> </g> <path d="M21.96 20.7598C21.96 21.4398 21.41 21.9998 20.72 21.9998H15.32C14.64 21.9998 14.08 21.4398 14.08 20.7598C14.08 20.0798 14.64 19.5098 15.32 19.5098H20.76C21.43 19.5298 21.96 20.0798 21.96 20.7598Z" fill="white"/> <path d="M18.23 5.56C18.23 5.96 18.17 6.34 18.05 6.72C17.71 7.86 16.91 8.91 15.99 9.8L15.71 9.03C15.47 8.38 14.76 8.05 14.11 8.28C13.46 8.52 13.13 9.23 13.37 9.88L13.95 11.47C13.3451 11.8957 12.8061 12.221 12.4489 12.4248C12.1698 12.584 11.8312 12.5825 11.553 12.4216C11.2002 12.2176 10.6674 11.8935 10.06 11.47L10.64 9.88C10.87 9.23 10.54 8.52 9.89003 8.28C9.25003 8.05 8.53003 8.38 8.30003 9.03L8.02003 9.8C7.10003 8.91 6.30003 7.86 5.96003 6.72C5.84003 6.34 5.78003 5.96 5.78003 5.56C5.78003 3.59 7.37003 2 9.34003 2C10.2988 2 11.1532 2.38537 11.7881 3.00505C11.9051 3.11929 12.0958 3.12003 12.2134 3.00639C12.8557 2.38593 13.7106 2 14.67 2C16.64 2 18.23 3.59 18.23 5.56Z" fill="white"/> </g> <defs> <clipPath id="clip0_2085_393075"> <rect width="24" height="24" fill="white"/> </clipPath> </defs> </svg>
