<svg width="24" height="24" viewBox="0 0 24 24" fill="none" xmlns="http://www.w3.org/2000/svg"> <g clip-path="url(#clip0_2085_387690)"> <path d="M16.3699 22.3751C19.3799 22.3751 21.8099 19.9351 21.8099 16.9351C21.8099 13.9351 19.3699 11.4951 16.3699 11.4951C13.3699 11.4951 10.9299 13.9351 10.9299 16.9351C10.9299 19.9351 13.3699 22.3751 16.3699 22.3751Z" fill="white"/> <path d="M16.37 11.485V2.375" stroke="white" stroke-width="1.5" stroke-linecap="round" stroke-linejoin="round"/> <g opacity="0.4"> <path d="M9.42994 16.9352C9.42994 17.1315 9.4383 17.3245 9.45435 17.5154C9.49456 17.9942 9.24835 18.4747 8.77936 18.5792C8.408 18.6619 8.0223 18.7052 7.62994 18.7052C4.62994 18.7052 2.18994 16.2652 2.18994 13.2652C2.18994 10.2652 4.62994 7.8252 7.62994 7.8252C9.55817 7.8252 11.2621 8.83454 12.2245 10.3554C12.4862 10.769 12.3121 11.2931 11.9352 11.6054C10.4038 12.8744 9.42994 14.7898 9.42994 16.9352Z" fill="white"/> <path d="M7.62988 7.815V2.375" stroke="white" stroke-width="1.5" stroke-linecap="round" stroke-linejoin="round"/> </g> </g> <defs> <clipPath id="clip0_2085_387690"> <rect width="19.62" height="20.75" fill="white" transform="translate(2.18994 1.625)"/> </clipPath> </defs> </svg>
