<svg width="24" height="24" viewBox="0 0 24 24" fill="none" xmlns="http://www.w3.org/2000/svg"> <g clip-path="url(#clip0_2085_388091)"> <path d="M11.53 15.1195L9.89001 16.7595C9.49001 17.1495 8.86001 17.1495 8.47001 16.7595L7.24001 15.5395C6.85001 15.1495 6.85001 14.5095 7.24001 14.1195L8.89001 12.4795L11.53 15.1195Z" fill="white"/> <g opacity="0.4"> <path d="M16.69 9.95934L14.24 12.4093L11.94 14.7193L11.53 15.1193L8.89001 12.4793L9.29001 12.0693L13.26 8.10934L14.05 7.31934L16.69 9.95934Z" fill="white"/> </g> <path d="M19.6 7.06016L16.69 9.96016L14.05 7.32016L16.95 4.41016L19.6 7.06016Z" fill="white"/> <path d="M21.335 2.31646C21.5629 2.21135 21.7984 2.44684 21.6933 2.67472L19.74 6.90977L19.6 7.05977L16.95 4.40977L17.1 4.26977L21.335 2.31646Z" fill="white"/> <path d="M13.26 8.10938L9.29 12.0694L7.98 10.7594C7.59 10.3694 7.59 9.72938 7.98 9.33938L8.46148 8.85789C8.62234 8.69704 8.83323 8.59583 9.05936 8.57098L13.26 8.10938Z" fill="white"/> <path d="M15.9399 10.71L15.4405 14.9552C15.4142 15.1785 15.3135 15.3864 15.1545 15.5454L14.6699 16.03C14.2799 16.42 13.6399 16.42 13.2499 16.03L11.9399 14.72L14.2399 12.41L15.9399 10.71Z" fill="white"/> <path d="M5.86 18.14C6.3 18.58 5.66 20.81 4.98 21.49C4.3 22.17 3.19 22.17 2.51 21.49C1.83 20.81 1.83 19.7 2.51 19.02C3.19 18.34 5.42 17.7 5.86 18.14Z" fill="white"/> </g> <defs> <clipPath id="clip0_2085_388091"> <rect width="24" height="24" fill="white"/> </clipPath> </defs> </svg>
