<svg width="24" height="24" viewBox="0 0 24 24" fill="none" xmlns="http://www.w3.org/2000/svg"> <g clip-path="url(#clip0_4482_12247)"> <path d="M22.0002 8.01C21.5902 8.01 21.2502 7.67 21.2502 7.26C21.2502 4.77 19.2302 2.75 16.7402 2.75C16.3302 2.75 15.9902 2.41 15.9902 2C15.9902 1.59 16.3302 1.25 16.7402 1.25C20.0602 1.25 22.7502 3.95 22.7502 7.26C22.7502 7.67 22.4102 8.01 22.0002 8.01Z" fill="white"/> <path d="M18.8405 8.01016C18.4305 8.01016 18.0905 7.67016 18.0905 7.26016C18.0905 6.51016 17.4805 5.91016 16.7305 5.91016C16.3205 5.91016 15.9805 5.57016 15.9805 5.16016C15.9805 4.75016 16.3205 4.41016 16.7305 4.41016C18.3005 4.41016 19.5905 5.69016 19.5905 7.26016C19.5905 7.67016 19.2505 8.01016 18.8405 8.01016Z" fill="white"/> <g opacity="0.4"> <path d="M16.44 22.75H7.56C4.08 22.75 1.25 19.92 1.25 16.44V7.56C1.25 4.08 4.08 1.25 7.56 1.25H13.12C13.53 1.25 13.87 1.59 13.87 2C13.87 2.41 13.53 2.75 13.12 2.75H7.56C4.91 2.75 2.75 4.91 2.75 7.56V16.45C2.75 19.1 4.91 21.26 7.56 21.26H16.45C19.1 21.26 21.26 19.1 21.26 16.45V10.89C21.26 10.48 21.6 10.14 22.01 10.14C22.42 10.14 22.76 10.48 22.76 10.89V16.45C22.76 19.93 19.93 22.76 16.45 22.76L16.44 22.75Z" fill="white"/> </g> <path d="M13.8402 17.4902H10.1602C9.75016 17.4902 9.41016 17.1502 9.41016 16.7402C9.41016 16.3302 9.75016 15.9902 10.1602 15.9902H13.8402C14.2502 15.9902 14.5902 16.3302 14.5902 16.7402C14.5902 17.1502 14.2502 17.4902 13.8402 17.4902Z" fill="white"/> <path d="M14.21 8.32031H9.79004C8.68547 8.32031 7.79004 9.21574 7.79004 10.3203V12.1103C7.79004 13.2149 8.68547 14.1103 9.79004 14.1103H14.21C15.3146 14.1103 16.21 13.2149 16.21 12.1103V10.3203C16.21 9.21574 15.3146 8.32031 14.21 8.32031Z" fill="white"/> </g> <defs> <clipPath id="clip0_4482_12247"> <rect width="24" height="24" fill="white"/> </clipPath> </defs> </svg>
