<svg width="24" height="24" viewBox="0 0 24 24" fill="none" xmlns="http://www.w3.org/2000/svg"> <g clip-path="url(#clip0_2085_393837)"> <g opacity="0.4"> <path d="M21.89 7.05957V18.9996C21.89 20.6596 20.55 21.9996 18.89 21.9996H4.89001C3.23001 21.9996 1.89001 20.6596 1.89001 18.9996V9.54957H12.72C12.99 9.54957 13.24 9.44957 13.43 9.25957L15.33 7.35957C15.52 7.16957 15.77 7.05957 16.04 7.05957H21.89Z" fill="white"/> </g> <path d="M8.15001 17.1002C7.97001 17.1002 7.79001 17.0302 7.65001 16.8902C7.38001 16.6202 7.38001 16.1702 7.65001 15.9002L8.89001 14.6602C9.16001 14.3802 9.61001 14.3802 9.88001 14.6602C10.15 14.9302 10.15 15.3802 9.88001 15.6502L8.64001 16.8902C8.50001 17.0302 8.32001 17.1002 8.14001 17.1002H8.15001Z" fill="white"/> <path d="M9.39001 18.3504C9.21001 18.3504 9.03001 18.2804 8.89001 18.1404L7.65001 16.8904C7.38001 16.6204 7.38001 16.1704 7.65001 15.9004C7.92001 15.6204 8.37001 15.6204 8.64001 15.9004L9.88001 17.1504C10.15 17.4204 10.15 17.8704 9.88001 18.1404C9.74001 18.2804 9.56001 18.3504 9.38001 18.3504H9.39001Z" fill="white"/> <path d="M15.62 17.1004C15.44 17.1004 15.26 17.0304 15.12 16.8904L13.87 15.6504C13.6 15.3804 13.6 14.9304 13.87 14.6604C14.14 14.3904 14.59 14.3804 14.86 14.6604L16.11 15.9004C16.38 16.1704 16.38 16.6204 16.11 16.8904C15.97 17.0304 15.79 17.1004 15.61 17.1004H15.62Z" fill="white"/> <path d="M14.37 18.3504C14.19 18.3504 14.01 18.2804 13.87 18.1404C13.6 17.8704 13.6 17.4204 13.87 17.1504L15.12 15.9004C15.39 15.6204 15.84 15.6204 16.11 15.9004C16.38 16.1704 16.38 16.6204 16.11 16.8904L14.86 18.1404C14.72 18.2804 14.54 18.3504 14.36 18.3504H14.37Z" fill="white"/> <path d="M11.26 19.59C11.2 19.59 11.15 19.59 11.09 19.57C10.71 19.48 10.48 19.09 10.58 18.72L11.82 13.74C11.91 13.36 12.29 13.14 12.67 13.23C13.05 13.32 13.28 13.71 13.18 14.08L11.94 19.06C11.86 19.38 11.57 19.59 11.26 19.59Z" fill="white"/> <path d="M21.89 5V7.06H16.04C15.77 7.06 15.52 7.17 15.33 7.36L13.43 9.26C13.24 9.45 12.99 9.55 12.72 9.55H1.89001V7.49C1.89001 5.83 3.23001 4.49 4.89001 4.49H12.72C12.99 4.49 13.24 4.38 13.43 4.2L15.33 2.29C15.52 2.11 15.77 2 16.04 2H18.89C20.55 2 21.89 3.34 21.89 5Z" fill="white"/> </g> <defs> <clipPath id="clip0_2085_393837"> <rect width="24" height="24" fill="white"/> </clipPath> </defs> </svg>
