<svg width="24" height="24" viewBox="0 0 24 24" fill="none" xmlns="http://www.w3.org/2000/svg"> <g clip-path="url(#clip0_4482_709)"> <path d="M10 10.75H8C6.48 10.75 5.25 9.52 5.25 8C5.25 6.48 6.48 5.25 8 5.25C9.52 5.25 10.75 6.48 10.75 8V10C10.75 10.41 10.41 10.75 10 10.75ZM8 6.75C7.31 6.75 6.75 7.31 6.75 8C6.75 8.69 7.31 9.25 8 9.25H9.25V8C9.25 7.31 8.69 6.75 8 6.75Z" fill="white"/> <path d="M14 14.75H10C9.59 14.75 9.25 14.41 9.25 14V10C9.25 9.59 9.59 9.25 10 9.25H14C14.41 9.25 14.75 9.59 14.75 10V14C14.75 14.41 14.41 14.75 14 14.75ZM10.75 13.25H13.25V10.75H10.75V13.25Z" fill="white"/> <path d="M8 18.75C6.48 18.75 5.25 17.52 5.25 16C5.25 14.48 6.48 13.25 8 13.25H10C10.41 13.25 10.75 13.59 10.75 14V16C10.75 17.52 9.51 18.75 8 18.75ZM8 14.75C7.31 14.75 6.75 15.31 6.75 16C6.75 16.69 7.31 17.25 8 17.25C8.69 17.25 9.25 16.69 9.25 16V14.75H8Z" fill="white"/> <path d="M16 18.75C14.48 18.75 13.25 17.52 13.25 16V14C13.25 13.59 13.59 13.25 14 13.25H16C17.52 13.25 18.75 14.48 18.75 16C18.75 17.52 17.51 18.75 16 18.75ZM14.75 14.75V16C14.75 16.69 15.31 17.25 16 17.25C16.69 17.25 17.25 16.69 17.25 16C17.25 15.31 16.69 14.75 16 14.75H14.75Z" fill="white"/> <path d="M16 10.75H14C13.59 10.75 13.25 10.41 13.25 10V8C13.25 6.48 14.49 5.25 16 5.25C17.52 5.25 18.75 6.48 18.75 8C18.75 9.52 17.52 10.75 16 10.75ZM14.75 9.25H16C16.69 9.25 17.25 8.69 17.25 8C17.25 7.31 16.69 6.75 16 6.75C15.31 6.75 14.75 7.31 14.75 8V9.25Z" fill="white"/> <path opacity="0.4" d="M17 22H7C4.25 22 2 19.75 2 17V7C2 4.25 4.25 2 7 2H17C19.75 2 22 4.25 22 7V17C22 19.75 19.75 22 17 22Z" fill="white"/> </g> <defs> <clipPath id="clip0_4482_709"> <rect width="24" height="24" fill="white"/> </clipPath> </defs> </svg>
