<svg width="24" height="24" viewBox="0 0 24 24" fill="none" xmlns="http://www.w3.org/2000/svg"> <g clip-path="url(#clip0_4482_710)"> <path opacity="0.4" d="M17 22H7C4.25 22 2 19.75 2 17V7C2 4.25 4.25 2 7 2H17C19.75 2 22 4.25 22 7V17C22 19.75 19.75 22 17 22Z" fill="white"/> <path d="M13.9098 14.7L9.5099 15.78C8.7299 15.97 8.01985 15.27 8.20985 14.48L9.28993 10.08C9.38993 9.69001 9.68996 9.39001 10.07 9.30001L14.4699 8.22001C15.2499 8.03001 15.9599 8.73001 15.7699 9.52001L14.6898 13.92C14.5998 14.3 14.2998 14.6 13.9098 14.7Z" fill="white"/> </g> <defs> <clipPath id="clip0_4482_710"> <rect width="24" height="24" fill="white"/> </clipPath> </defs> </svg>
