<svg width="24" height="24" viewBox="0 0 24 24" fill="none" xmlns="http://www.w3.org/2000/svg"> <g clip-path="url(#clip0_4482_770)"> <path d="M21.76 10.3C21.43 10.3 21.12 10.07 21.03 9.72999C19.99 5.61999 16.3 2.74999 12.07 2.74999C11.44 2.74999 10.8 2.81999 10.18 2.94999L11.16 3.67999C11.49 3.92999 11.56 4.39999 11.32 4.72999C11.07 5.05999 10.6 5.12999 10.27 4.87999L8.07999 3.25999C7.85999 3.09999 7.75001 2.82999 7.78001 2.54999C7.82001 2.27999 8.00002 2.04999 8.26002 1.94999C9.50002 1.47999 10.78 1.23999 12.07 1.23999C16.99 1.23999 21.28 4.57999 22.49 9.35999C22.59 9.75999 22.35 10.17 21.95 10.27C21.88 10.29 21.82 10.3 21.76 10.3Z" fill="white"/> <path d="M5.75002 20.5C5.58002 20.5 5.41002 20.44 5.28002 20.33C4.26002 19.49 3.41003 18.5 2.76003 17.38C0.30003 13.12 1.05001 7.73997 4.58001 4.29997C4.88001 4.00997 5.35004 4.01997 5.64004 4.30997C5.93004 4.60997 5.92003 5.07997 5.63003 5.36997C2.59003 8.32997 1.95002 12.95 4.06002 16.62C4.38002 17.17 4.75001 17.68 5.18001 18.16L5.32003 16.94C5.37003 16.53 5.73001 16.24 6.15001 16.28C6.56001 16.33 6.86002 16.7 6.81002 17.11L6.50002 19.82C6.47002 20.09 6.29003 20.33 6.04003 20.43C5.94003 20.48 5.84002 20.5 5.75002 20.5Z" fill="white"/> <path d="M12.08 22.75C11.1 22.75 10.12 22.62 9.14001 22.34C8.74001 22.23 8.50999 21.81 8.61999 21.41C8.72999 21.01 9.14998 20.78 9.54998 20.89C13.63 22.05 17.96 20.29 20.08 16.62C20.4 16.07 20.66 15.49 20.85 14.88L19.73 15.37C19.35 15.53 18.91 15.36 18.74 14.98C18.58 14.6 18.75 14.16 19.13 13.99L21.63 12.91C21.88 12.8 22.17 12.84 22.39 13.01C22.61 13.18 22.71 13.45 22.67 13.72C22.46 15.02 22.02 16.25 21.38 17.37C19.43 20.77 15.85 22.75 12.08 22.75Z" fill="white"/> <path opacity="0.4" d="M12 14C13.1 14 14 13.1 14 12C14 10.9 13.1 10 12 10C10.9 10 10 10.9 10 12C10 13.1 10.9 14 12 14Z" fill="white"/> <path opacity="0.4" d="M12 17.73C11.59 17.73 11.25 17.41 11.25 17V16.96C11.25 16.55 11.59 16.21 12 16.21C12.41 16.21 12.75 16.55 12.75 16.96C12.75 17.37 12.41 17.73 12 17.73ZM15.53 16.31C15.37 16.31 15.22 16.26 15.08 16.14L15.01 16.08C14.84 15.93 14.75 15.72 14.75 15.51C14.75 15.34 14.81 15.16 14.93 15.02C15.2 14.7 15.68 14.67 15.99 14.94C16.17 15.1 16.27 15.33 16.27 15.56C16.27 15.73 16.22 15.89 16.1 16.03C15.95 16.21 15.74 16.31 15.53 16.31ZM8.45001 16.27C8.24001 16.27 8.03001 16.19 7.89001 16.03C7.76001 15.88 7.69 15.7 7.69 15.52C7.69 15.33 7.76999 15.14 7.92999 15L8 14.94C8.31 14.67 8.79 14.7 9.06 15.02C9.18 15.16 9.23999 15.34 9.23999 15.51C9.23999 15.72 9.15001 15.93 8.98001 16.08C8.84001 16.21 8.65001 16.27 8.45001 16.27ZM17 12.75H16.96C16.55 12.75 16.21 12.41 16.21 12C16.21 11.59 16.55 11.25 16.96 11.25C17.37 11.25 17.73 11.59 17.73 12C17.73 12.41 17.41 12.75 17 12.75ZM7.04001 12.75H7C6.59 12.75 6.25 12.41 6.25 12C6.25 11.59 6.59 11.25 7 11.25C7.41 11.25 7.76999 11.59 7.76999 12C7.76999 12.41 7.45001 12.75 7.04001 12.75ZM8.44 9.22C8.27 9.22 8.09999 9.15 7.95999 9.02L7.89001 8.95C7.74001 8.8 7.67001 8.61 7.67001 8.42C7.67001 8.23 7.74001 8.04 7.89001 7.89C8.18001 7.6 8.66001 7.6 8.95001 7.89C9.11001 8.04 9.19 8.26 9.19 8.47C9.19 8.66 9.11999 8.85 8.98999 8.98C8.82999 9.14 8.63 9.22 8.44 9.22ZM15.53 9.19C15.34 9.19 15.16 9.12 15.02 8.99C14.86 8.84 14.78 8.64 14.78 8.45C14.78 8.28 14.85 8.11 14.98 7.97L15.05 7.9C15.34 7.61 15.82 7.61 16.11 7.9C16.26 8.05 16.33 8.24 16.33 8.43C16.33 8.62 16.26 8.81 16.11 8.96C15.96 9.11 15.74 9.19 15.53 9.19ZM12 7.77C11.59 7.77 11.25 7.45 11.25 7.04V7C11.25 6.59 11.59 6.25 12 6.25C12.41 6.25 12.75 6.59 12.75 7C12.75 7.41 12.41 7.77 12 7.77Z" fill="white"/> </g> <defs> <clipPath id="clip0_4482_770"> <rect width="24" height="24" fill="white"/> </clipPath> </defs> </svg>
