<svg width="24" height="24" viewBox="0 0 24 24" fill="none" xmlns="http://www.w3.org/2000/svg"> <g clip-path="url(#clip0_2085_393745)"> <path d="M14.49 2C14.49 2.69 13.37 4.49 12 4.49C10.63 4.49 9.51001 2.69 9.51001 2H14.49Z" fill="white"/> <g opacity="0.4"> <path d="M20.09 11.39L18.22 12V19C18.22 20.66 16.88 22 15.22 22H8.78002C7.12002 22 5.78002 20.66 5.78002 19V12L3.91002 11.39C2.86002 11.04 2.29002 9.9 2.65002 8.85L3.88002 5.19C4.29002 3.98 5.28002 3.06 6.52002 2.75L9.51002 2C9.51002 2.69 10.63 4.49 12 4.49C13.37 4.49 14.49 2.69 14.49 2L17.48 2.75C18.72 3.06 19.71 3.98 20.12 5.19L21.35 8.85C21.71 9.9 21.14 11.04 20.09 11.39Z" fill="white"/> </g> <path d="M12 9.24477C12 8.97089 11.6393 8.87103 11.4985 9.10591L8.5152 14.0807C8.40728 14.2606 8.53692 14.4895 8.74676 14.4895H11.73C11.8791 14.4895 12 14.6104 12 14.7595V17.2443C12 17.5182 12.3607 17.618 12.5016 17.3832L15.4848 12.4084C15.5928 12.2284 15.4631 11.9995 15.2533 11.9995H12.27C12.1209 11.9995 12 11.8786 12 11.7295V9.24477Z" fill="white"/> </g> <defs> <clipPath id="clip0_2085_393745"> <rect width="24" height="24" fill="white"/> </clipPath> </defs> </svg>
