<svg width="24" height="24" viewBox="0 0 24 24" fill="none" xmlns="http://www.w3.org/2000/svg"> <g clip-path="url(#clip0_2085_388312)"> <path d="M6.89008 7.61998C6.70008 7.61998 6.51008 7.54998 6.37008 7.40998L4.51008 5.58998C4.21008 5.29998 4.21008 4.82998 4.50008 4.52998C4.79008 4.22998 5.26008 4.22998 5.56008 4.51998L7.42008 6.33998C7.72008 6.62998 7.72008 7.09998 7.43008 7.39998C7.28008 7.54998 7.09008 7.62998 6.89008 7.62998V7.61998Z" fill="white"/> <path d="M2.02002 4.21C2.02002 2.99 3.01002 2 4.23002 2C5.45002 2 6.44002 2.99 6.44002 4.21C6.44002 5.43 5.45002 6.42 4.23002 6.42C3.01002 6.42 2.02002 5.43 2.02002 4.21Z" fill="white"/> <g opacity="0.4"> <path d="M10.9301 6.21973H8.67006C7.30006 6.21973 6.19006 7.32973 6.19006 8.69973V10.9597C6.19006 12.3297 6.90006 13.6097 8.07006 14.3397L20.4501 21.8497C21.3401 22.3997 22.3701 21.3697 21.8201 20.4797L14.3101 8.09973C13.5801 6.92973 12.3101 6.21973 10.9301 6.21973Z" fill="white"/> </g> <path d="M14.82 15.5501C14.63 15.5501 14.44 15.4801 14.29 15.3301L11.41 12.4901C11.12 12.2001 11.11 11.7201 11.41 11.4301C11.7 11.1301 12.18 11.1301 12.47 11.4301L15.35 14.2701C15.64 14.5601 15.65 15.0401 15.35 15.3301C15.2 15.4801 15.01 15.5501 14.82 15.5501Z" fill="white"/> </g> <defs> <clipPath id="clip0_2085_388312"> <rect width="24" height="24" fill="white"/> </clipPath> </defs> </svg>
