<svg width="24" height="24" viewBox="0 0 24 24" fill="none" xmlns="http://www.w3.org/2000/svg"> <g clip-path="url(#clip0_4482_8055)"> <g opacity="0.4"> <path d="M18.0004 22.7499H16.4404C16.0304 22.7499 15.6904 22.4099 15.6904 21.9999C15.6904 21.5899 16.0304 21.2499 16.4404 21.2499H18.0004C19.7904 21.2499 21.2504 19.7899 21.2504 17.9999V16.4399C21.2504 16.0299 21.5904 15.6899 22.0004 15.6899C22.4104 15.6899 22.7504 16.0299 22.7504 16.4399V17.9999C22.7504 20.6199 20.6204 22.7499 18.0004 22.7499Z" fill="white"/> </g> <path d="M15.8904 10.3299C15.8904 11.6099 15.2504 12.7999 14.2004 13.5199C14.1404 13.5599 14.0904 13.6099 14.0504 13.6699H9.95035C9.91035 13.6099 9.86035 13.5599 9.80035 13.5199C8.75035 12.7999 8.11035 11.6099 8.11035 10.3299C8.11035 8.18994 9.85035 6.43994 12.0004 6.43994C14.1504 6.43994 15.8904 8.18994 15.8904 10.3299Z" fill="white"/> <path d="M13.9396 14.5V15.89C13.9396 16.81 13.1996 17.56 12.2796 17.56H11.7196C10.7996 17.56 10.0596 16.81 10.0596 15.89V14.5H13.9396Z" fill="white"/> <g opacity="0.4"> <path d="M22.0004 8.31C21.5904 8.31 21.2504 7.97 21.2504 7.56V6C21.2504 4.21 19.7904 2.75 18.0004 2.75H16.4404C16.0304 2.75 15.6904 2.41 15.6904 2C15.6904 1.59 16.0304 1.25 16.4404 1.25H18.0004C20.6204 1.25 22.7504 3.38 22.7504 6V7.56C22.7504 7.97 22.4104 8.31 22.0004 8.31Z" fill="white"/> </g> <g opacity="0.4"> <path d="M7.56 22.7499H6C3.38 22.7499 1.25 20.6199 1.25 17.9999V16.4399C1.25 16.0299 1.59 15.6899 2 15.6899C2.41 15.6899 2.75 16.0299 2.75 16.4399V17.9999C2.75 19.7899 4.21 21.2499 6 21.2499H7.56C7.97 21.2499 8.31 21.5899 8.31 21.9999C8.31 22.4099 7.97 22.7499 7.56 22.7499Z" fill="white"/> </g> <g opacity="0.4"> <path d="M2 8.31C1.59 8.31 1.25 7.97 1.25 7.56V6C1.25 3.38 3.38 1.25 6 1.25H7.56C7.97 1.25 8.31 1.59 8.31 2C8.31 2.41 7.97 2.75 7.56 2.75H6C4.21 2.75 2.75 4.21 2.75 6V7.56C2.75 7.97 2.41 8.31 2 8.31Z" fill="white"/> </g> </g> <defs> <clipPath id="clip0_4482_8055"> <rect width="24" height="24" fill="white"/> </clipPath> </defs> </svg>
