<svg width="24" height="24" viewBox="0 0 24 24" fill="none" xmlns="http://www.w3.org/2000/svg"> <g clip-path="url(#clip0_2085_393749)"> <path d="M18.22 16.3604V19.0004C18.22 20.6604 16.88 22.0004 15.22 22.0004H12V18.7204C12 18.4442 12.2239 18.2204 12.5 18.2204H16.36C17.39 18.2204 18.22 17.3904 18.22 16.3604Z" fill="white"/> <path d="M18.22 8.84961V12.6196C18.22 13.6496 17.39 14.4896 16.36 14.4896H12.5C12.2239 14.4896 12 14.2658 12 13.9896V11.2096C12 10.9335 12.2239 10.7096 12.5 10.7096H16.36C17.39 10.7096 18.22 9.87961 18.22 8.84961Z" fill="white"/> <path d="M11.5 14.4901C11.7762 14.4901 12 14.714 12 14.9901V17.7201C12 17.9963 11.7762 18.2201 11.5 18.2201H7.64003C6.61003 18.2201 5.78003 17.3901 5.78003 16.3601V12.6201C5.78003 13.6501 6.61003 14.4901 7.64003 14.4901H11.5Z" fill="white"/> <path opacity="0.4" d="M15.7305 5.73047C15.7306 6.8937 16.5261 7.86525 17.5967 8.1416C17.9335 8.22861 18.2197 8.5027 18.2197 8.85059C18.2195 9.88031 17.3901 10.7098 16.3604 10.71L12 11.7588V13.6846L16.3604 14.4902C17.3902 14.49 18.2197 13.65 18.2197 12.6201V16.3604C18.2196 17.3901 17.3901 18.2195 16.3604 18.2197H12.8398L12 22H8.78027C7.12027 22 5.78027 20.66 5.78027 19V16.3604C5.78027 17.3902 6.60982 18.2205 7.63965 18.2207L11.8789 17.6504L11.21 14.4893H7.63965C6.60982 14.4891 5.78027 13.649 5.78027 12.6191V8.84961C5.78027 9.87948 6.60982 10.7098 7.63965 10.71H11.2852L12 7.4707L15.7305 5.24023V5.73047Z" fill="white"/> <path d="M15.4209 2C15.6104 2.00018 15.7837 2.10772 15.8682 2.27734L16.7646 4.07812C16.8803 4.31101 16.7977 4.59392 16.5752 4.72852L15.7295 5.24023L15.4297 5.41992L12.2435 7.3242C12.0925 7.41446 12 7.57745 12 7.75339V10.21C12 10.4861 11.7761 10.71 11.5 10.71H7.63965C6.60982 10.7098 5.78027 9.87948 5.78027 8.84961C5.78049 8.50194 6.06665 8.2286 6.40332 8.1416C7.47382 7.86527 8.27029 6.89359 8.27051 5.73047V5.25L8.26953 5.24023L7.41699 4.72852C7.19318 4.59383 7.11042 4.30874 7.22754 4.0752L8.13184 2.27539C8.21669 2.10668 8.38927 2.00012 8.57812 2H15.4209Z" fill="white"/> </g> <defs> <clipPath id="clip0_2085_393749"> <rect width="24" height="24" fill="white"/> </clipPath> </defs> </svg>
