<svg width="24" height="24" viewBox="0 0 24 24" fill="none" xmlns="http://www.w3.org/2000/svg"> <g clip-path="url(#clip0_2085_387774)"> <path d="M21.2869 7.0628C21.6887 6.9619 22.0962 7.20598 22.1971 7.60772C22.298 8.00933 22.0547 8.41682 21.6532 8.51787C19.4653 9.06739 17.2795 9.47595 14.2479 9.66924C13.8345 9.6956 13.4784 9.38142 13.452 8.96807C13.4256 8.55475 13.7389 8.1986 14.1522 8.17217C17.0804 7.98547 19.175 7.59323 21.2869 7.0628Z" fill="white"/> <path d="M2.56901 8.09086C5.65779 8.25027 8.19236 8.3099 10.3434 8.29008C10.7574 8.28647 11.0964 8.61917 11.1003 9.03324C11.1039 9.44723 10.7711 9.78614 10.3571 9.79008C8.16825 9.81025 5.60192 9.74948 2.49088 9.58891C2.07742 9.56735 1.75958 9.21435 1.78092 8.80082C1.80248 8.38735 2.15548 8.06952 2.56901 8.09086Z" fill="white"/> <path d="M10.49 13.51V13.5" stroke="white" stroke-width="1.5" stroke-linecap="round" stroke-linejoin="round"/> <path d="M10.4657 12.7504C10.8797 12.7372 11.226 13.0629 11.2391 13.4769C11.2521 13.8908 10.9274 14.2372 10.5135 14.2504C8.6433 14.3098 7.70526 14.6158 7.14832 15.474C6.84547 15.9407 6.60868 16.6381 6.48035 17.7074C6.3524 18.7736 6.33696 20.158 6.43835 21.9584C6.4499 22.1642 6.37686 22.3662 6.23523 22.516C6.09365 22.6657 5.89637 22.7503 5.69031 22.7504H3.57996C3.16574 22.7504 2.82996 22.4146 2.82996 22.0004C2.82996 21.5862 3.16574 21.2504 3.57996 21.2504H4.90417C4.8449 19.7712 4.86925 18.544 4.99109 17.5287C5.13369 16.3405 5.41364 15.3899 5.88953 14.6566C6.89001 13.1153 8.5564 12.811 10.4657 12.7504Z" fill="white"/> <path d="M14.4 13.5099C12.89 13.5099 11.59 13.4599 10.49 13.4999C10.29 12.5099 10.34 9.80992 10.35 9.03992C11.79 9.03992 13.06 8.98992 14.2 8.91992C14.08 10.6599 14.16 12.1699 14.4 13.5099Z" fill="white" stroke="white" stroke-width="1.5" stroke-linecap="round" stroke-linejoin="round"/> <path d="M14.2681 12.7715C14.6758 12.6988 15.0654 12.9703 15.1382 13.378C15.7869 17.0163 17.7014 19.2801 19.899 21.4678C20.1142 21.6821 20.1789 22.0055 20.063 22.2862C19.9471 22.5668 19.6733 22.7501 19.3697 22.7501H17.2603C16.8462 22.7501 16.5104 22.4142 16.5103 22.0001C16.5103 21.5858 16.8461 21.2501 17.2603 21.2501H17.608C15.8234 19.2918 14.2583 16.9879 13.6617 13.6417C13.589 13.2339 13.8604 12.8443 14.2681 12.7715Z" fill="white"/> <path opacity="0.4" d="M14.11 4.11C14.11 5.27 13.16 6.21 12 6.21C10.84 6.21 9.89001 5.27 9.89001 4.11C9.89001 2.95 10.84 2 12 2C13.16 2 14.11 2.94 14.11 4.11Z" fill="white" stroke="white" stroke-width="1.5" stroke-linecap="round" stroke-linejoin="round"/> </g> <defs> <clipPath id="clip0_2085_387774"> <rect width="24" height="24" fill="white"/> </clipPath> </defs> </svg>
