<svg width="24" height="24" viewBox="0 0 24 24" fill="none" xmlns="http://www.w3.org/2000/svg"> <g clip-path="url(#clip0_4482_6715)"> <path opacity="0.4" d="M22 7V17C22 19.76 19.76 22 17 22H7C4.24 22 2 19.76 2 17V7C2 4.24 4.24 2 7 2H17C19.76 2 22 4.24 22 7Z" fill="white"/> <path d="M22 8.25H2V9.75H22V8.25Z" fill="white"/> <path d="M18 6.5H14C13.59 6.5 13.25 6.16 13.25 5.75C13.25 5.34 13.59 5 14 5H18C18.41 5 18.75 5.34 18.75 5.75C18.75 6.16 18.41 6.5 18 6.5Z" fill="white"/> <path d="M8 6.5H7C6.59 6.5 6.25 6.16 6.25 5.75C6.25 5.34 6.59 5 7 5H8C8.41 5 8.75 5.34 8.75 5.75C8.75 6.16 8.41 6.5 8 6.5Z" fill="white"/> <path d="M12 19C13.6569 19 15 17.6569 15 16C15 14.3431 13.6569 13 12 13C10.3431 13 9 14.3431 9 16C9 17.6569 10.3431 19 12 19Z" fill="white"/> </g> <defs> <clipPath id="clip0_4482_6715"> <rect width="24" height="24" fill="white"/> </clipPath> </defs> </svg>
