<svg width="24" height="24" viewBox="0 0 24 24" fill="none" xmlns="http://www.w3.org/2000/svg"> <g clip-path="url(#clip0_3111_17160)"> <path d="M21.9601 4.86L20.9901 5.09C20.3001 5.25 19.7501 5.79 19.5901 6.49L19.3601 7.46C19.3401 7.56 19.1901 7.56 19.1601 7.46L18.9301 6.49C18.7701 5.8 18.2301 5.25 17.5301 5.09L16.5601 4.86C16.4601 4.84 16.4601 4.69 16.5601 4.66L17.5301 4.43C18.2201 4.27 18.7701 3.73 18.9301 3.03L19.1601 2.06C19.1801 1.96 19.3301 1.96 19.3601 2.06L19.5901 3.03C19.7501 3.72 20.2901 4.27 20.9901 4.43L21.9601 4.66C22.0601 4.68 22.0601 4.83 21.9601 4.86Z" stroke="white" stroke-width="1.5" stroke-miterlimit="10"/> <path opacity="0.4" d="M16.605 9.79505C16.8809 9.53349 17.3157 9.51821 17.6099 9.77162C17.9235 10.0421 17.9585 10.5165 17.688 10.8302L15.7915 13.0285L17.687 15.2189L17.7349 15.2794C17.9533 15.5905 17.9044 16.0233 17.6108 16.2775C17.3171 16.5314 16.8824 16.517 16.606 16.256L16.5532 16.2013L14.6001 13.9445V15.6906L14.5962 15.7667C14.5578 16.1449 14.2384 16.4406 13.8501 16.4406C13.4618 16.4406 13.1424 16.1449 13.104 15.7667L13.1001 15.6906V10.3702C13.1001 9.95604 13.4359 9.62025 13.8501 9.62025C14.2643 9.62025 14.6001 9.95604 14.6001 10.3702V12.1124L16.5522 9.84974L16.605 9.79505Z" fill="white"/> <path opacity="0.4" d="M11.74 14.92H7.14C6.93 14.92 6.81 14.68 6.93 14.51L9.98 10.45C10.13 10.25 10.45 10.36 10.44 10.61L10.34 16.01" stroke="white" stroke-width="1.5" stroke-linecap="round" stroke-linejoin="round"/> <path d="M22 10.12V17C22 19.75 19.75 22 17 22H7C4.25 22 2 19.75 2 17V7C2 4.25 4.25 2 7 2H14.83" stroke="white" stroke-width="1.5" stroke-linecap="round" stroke-linejoin="round"/> </g> <defs> <clipPath id="clip0_3111_17160"> <rect width="24" height="24" fill="white"/> </clipPath> </defs> </svg>
