<svg width="24" height="24" viewBox="0 0 24 24" fill="none" xmlns="http://www.w3.org/2000/svg"> <g clip-path="url(#clip0_3111_18096)"> <path d="M12.7502 13.26V17.8" stroke="white" stroke-width="1.5" stroke-linecap="round" stroke-linejoin="round"/> <path d="M9.88021 17.8L7.67021 13.26L5.46021 17.8" stroke="white" stroke-width="1.5" stroke-linecap="round" stroke-linejoin="round"/> <path d="M6.01025 16.76H9.34025" stroke="white" stroke-width="1.5" stroke-linecap="round" stroke-linejoin="round"/> <path d="M21.8901 11.01V16.94C21.8901 20.9 20.9001 21.88 16.9501 21.88H7.06012C3.10012 21.88 2.12012 20.89 2.12012 16.94V7.06C2.12012 3.1 3.11012 2.12 7.06012 2.12H8.54012C10.0201 2.12 10.3501 2.56 10.9101 3.31L12.3901 5.29C12.7701 5.78 12.9801 6.08 13.9701 6.08H16.9401C20.9001 6.08 21.8801 7.07 21.8801 11.02L21.8901 11.01Z" stroke="white" stroke-width="1.5" stroke-miterlimit="10"/> <path opacity="0.4" d="M8.04004 2.10999H16.94C18.92 2.10999 19.91 3.09999 19.91 5.07999V6.43999" stroke="white" stroke-width="1.5" stroke-linecap="round" stroke-linejoin="round"/> </g> <defs> <clipPath id="clip0_3111_18096"> <rect width="24" height="24" fill="white"/> </clipPath> </defs> </svg>
