<svg width="24" height="24" viewBox="0 0 24 24" fill="none" xmlns="http://www.w3.org/2000/svg"> <g clip-path="url(#clip0_3111_18669)"> <path d="M5.52002 21.55H3.35002C2.75002 21.55 2.27002 21.07 2.27002 20.47V13.98C2.27002 13.38 2.75002 12.9 3.35002 12.9H5.51002C6.11002 12.9 6.59002 13.38 6.59002 13.98V20.47C6.59002 21.07 6.11002 21.55 5.51002 21.55H5.52002Z" stroke="white" stroke-width="1.5" stroke-linecap="round" stroke-linejoin="round"/> <path d="M13.0801 17.22H15.2001C15.6701 17.22 16.1201 17.07 16.5001 16.79L19.1101 14.83C19.7601 14.34 20.6801 14.41 21.2501 14.98C21.5601 15.29 21.7301 15.7 21.7301 16.14C21.7301 16.58 21.5601 16.99 21.2501 17.3L19.0101 19.54C18.4101 20.14 17.6401 20.56 16.8001 20.72L13.6301 21.35C13.0001 21.48 12.3501 21.46 11.7301 21.3L8.86008 20.58C8.52008 20.49 8.17008 20.45 7.81008 20.45H6.58008" stroke="white" stroke-width="1.5" stroke-linecap="round" stroke-linejoin="round"/> <path d="M13.0901 17.22H14.7001C15.1301 17.22 15.5501 17.05 15.8601 16.74C16.1701 16.43 16.3401 16.02 16.3401 15.58V15.25C16.3401 14.5 15.8301 13.84 15.1001 13.66L12.6201 13.04C12.2201 12.94 11.8001 12.89 11.3901 12.89C10.3901 12.89 9.4101 13.19 8.5701 13.74L6.6001 15.05" stroke="white" stroke-width="1.5" stroke-linecap="round" stroke-linejoin="round"/> <path opacity="0.4" d="M20.2301 6.41002L18.8901 6.72002C17.9301 6.94002 17.1801 7.69002 16.9601 8.65002L16.6501 9.99002C16.6201 10.13 16.4101 10.13 16.3801 9.99002L16.0701 8.65002C15.8501 7.69002 15.1001 6.94002 14.1401 6.72002L12.8001 6.41002C12.6601 6.38002 12.6601 6.17002 12.8001 6.14002L14.1401 5.83002C15.1001 5.61002 15.8501 4.86002 16.0701 3.90002L16.3801 2.56002C16.4101 2.42002 16.6201 2.42002 16.6501 2.56002L16.9601 3.90002C17.1801 4.86002 17.9301 5.61002 18.8901 5.83002L20.2301 6.14002C20.3701 6.17002 20.3701 6.38002 20.2301 6.41002Z" stroke="white" stroke-width="1.5" stroke-miterlimit="10"/> </g> <defs> <clipPath id="clip0_3111_18669"> <rect width="24" height="24" fill="white"/> </clipPath> </defs> </svg>
