<svg width="24" height="24" viewBox="0 0 24 24" fill="none" xmlns="http://www.w3.org/2000/svg"> <g clip-path="url(#clip0_3111_18306)"> <path d="M20.0201 8.22002V3.77002C20.0201 2.64002 19.09 1.71002 17.96 1.71002H5.61005C4.48005 1.71002 3.55005 2.64002 3.55005 3.77002V8.22002" stroke="white" stroke-width="1.5" stroke-linecap="round" stroke-linejoin="round"/> <path d="M20.0201 9.66979V8.21979M3.55005 8.21979V11.8798C3.55005 12.9898 4.15005 14.0198 5.12005 14.5698L8.17005 16.2898C8.82005 16.6498 9.22005 17.3398 9.22005 18.0798V20.2398C9.22005 21.3698 10.15 22.2998 11.28 22.2998H12.31C13.44 22.2998 14.37 21.3698 14.37 20.2398V18.0798C14.37 17.5798 14.55 17.0998 14.87 16.7298" stroke="white" stroke-width="1.5" stroke-linecap="round" stroke-linejoin="round"/> <path opacity="0.4" d="M20.0201 8.21979H3.55005" stroke="white" stroke-width="1.5" stroke-linecap="round" stroke-linejoin="round"/> <path opacity="0.4" d="M20.3701 13.92L19.4101 14.14C18.7301 14.3 18.1901 14.83 18.0301 15.52L17.8101 16.48C17.7901 16.58 17.6401 16.58 17.6201 16.48L17.4001 15.52C17.2401 14.84 16.7101 14.3 16.0201 14.14L15.0601 13.92C14.9601 13.9 14.9601 13.75 15.0601 13.73L16.0201 13.51C16.7001 13.35 17.2401 12.82 17.4001 12.13L17.6201 11.17C17.6401 11.07 17.7901 11.07 17.8101 11.17L18.0301 12.13C18.1901 12.81 18.7201 13.35 19.4101 13.51L20.3701 13.73C20.4701 13.75 20.4701 13.9 20.3701 13.92Z" stroke="white" stroke-width="1.5" stroke-miterlimit="10"/> </g> <defs> <clipPath id="clip0_3111_18306"> <rect width="24" height="24" fill="white"/> </clipPath> </defs> </svg>
