<svg width="24" height="24" viewBox="0 0 24 24" fill="none" xmlns="http://www.w3.org/2000/svg"> <g clip-path="url(#clip0_3111_17473)"> <path d="M22.28 4.93L21.17 5.19C20.37 5.38 19.75 6 19.57 6.79L19.31 7.9C19.28 8.02 19.11 8.02 19.08 7.9L18.82 6.79C18.63 5.99 18.01 5.37 17.22 5.19L16.11 4.93C15.99 4.9 15.99 4.73 16.11 4.7L17.22 4.44C18.02 4.25 18.64 3.63 18.82 2.84L19.08 1.73C19.11 1.61 19.28 1.61 19.31 1.73L19.57 2.84C19.76 3.64 20.38 4.26 21.17 4.44L22.28 4.7C22.4 4.73 22.4 4.9 22.28 4.93Z" stroke="white" stroke-width="1.5" stroke-miterlimit="10"/> <path d="M10.01 14.55L7.79004 12.33L10.01 10.11" stroke="white" stroke-width="1.5" stroke-linecap="round" stroke-linejoin="round"/> <path d="M13.3301 10.12L15.5501 12.34L13.3301 14.56" stroke="white" stroke-width="1.5" stroke-linecap="round" stroke-linejoin="round"/> <path opacity="0.4" d="M21.38 10.12C22.38 14.47 20.38 18.95 16.48 21.11C12.58 23.27 7.71998 22.59 4.55998 19.43C1.40998 16.29 0.729975 11.43 2.88998 7.51999C5.05998 3.61999 9.53998 1.61999 13.89 2.62999" stroke="white" stroke-width="1.5" stroke-linecap="round" stroke-linejoin="round"/> </g> <defs> <clipPath id="clip0_3111_17473"> <rect width="24" height="24" fill="white"/> </clipPath> </defs> </svg>
