<svg width="24" height="24" viewBox="0 0 24 24" fill="none" xmlns="http://www.w3.org/2000/svg"> <g clip-path="url(#clip0_3111_17277)"> <path d="M9.5101 18.31L8.1701 18.62C7.2101 18.84 6.4601 19.59 6.2401 20.55L5.9301 21.89C5.9001 22.03 5.6901 22.03 5.6601 21.89L5.3501 20.55C5.1301 19.59 4.3801 18.84 3.4201 18.62L2.0801 18.31C1.9401 18.28 1.9401 18.07 2.0801 18.04L3.4201 17.73C4.3801 17.51 5.1301 16.76 5.3501 15.8L5.6601 14.46C5.6901 14.32 5.9001 14.32 5.9301 14.46L6.2401 15.8C6.4601 16.76 7.2101 17.51 8.1701 17.73L9.5101 18.04C9.6501 18.07 9.6501 18.28 9.5101 18.31Z" stroke="white" stroke-width="1.5" stroke-miterlimit="10"/> <path opacity="0.4" d="M15.3301 22H18.4201C19.6001 22 20.5601 21.04 20.5601 19.86V4.14C20.5601 2.96 19.6001 2 18.4201 2C17.2401 2 16.2801 2.96 16.2801 4.14V5.67" stroke="white" stroke-width="1.5" stroke-linecap="round" stroke-linejoin="round"/> <path d="M2 10.57L10.56 3.24C11.39 2.53 12.62 2.53 13.45 3.24L22.01 10.57" stroke="white" stroke-width="1.5" stroke-linecap="round" stroke-linejoin="round"/> </g> <defs> <clipPath id="clip0_3111_17277"> <rect width="24" height="24" fill="white"/> </clipPath> </defs> </svg>
