<svg width="24" height="24" viewBox="0 0 24 24" fill="none" xmlns="http://www.w3.org/2000/svg"> <g clip-path="url(#clip0_3111_17240)"> <path d="M21.9601 4.86L20.9901 5.09C20.3001 5.25 19.7501 5.79 19.5901 6.49L19.3601 7.46C19.3401 7.56 19.1901 7.56 19.1601 7.46L18.9301 6.49C18.7701 5.8 18.2301 5.25 17.5301 5.09L16.5601 4.86C16.4601 4.84 16.4601 4.69 16.5601 4.66L17.5301 4.43C18.2201 4.27 18.7701 3.73 18.9301 3.03L19.1601 2.06C19.1801 1.96 19.3301 1.96 19.3601 2.06L19.5901 3.03C19.7501 3.72 20.2901 4.27 20.9901 4.43L21.9601 4.66C22.0601 4.68 22.0601 4.83 21.9601 4.86Z" stroke="white" stroke-width="1.5" stroke-miterlimit="10"/> <path opacity="0.4" d="M10.6094 9.69994C11.0236 9.69994 11.3593 10.0358 11.3594 10.4499V13.2195C11.3594 13.223 11.3604 13.2267 11.3604 13.2302C11.3604 13.2335 11.3594 13.2367 11.3594 13.24V15.9997C11.3594 16.414 11.0236 16.7497 10.6094 16.7497C10.1954 16.7495 9.85938 16.4138 9.85938 15.9997V13.9802H7.66992V15.9997C7.66992 16.4139 7.33412 16.7497 6.91992 16.7497C6.50571 16.7497 6.16992 16.414 6.16992 15.9997V10.4499C6.16996 10.0358 6.50573 9.69994 6.91992 9.69994C7.3341 9.69995 7.66989 10.0358 7.66992 10.4499V12.4802H9.85938V10.4499C9.85941 10.0359 10.1954 9.70019 10.6094 9.69994ZM15.2295 9.69994C16.6635 9.69995 17.8298 10.8655 17.8301 12.2995V14.1501C17.83 15.5895 16.6583 16.74 15.2295 16.74H13.3799C12.9657 16.74 12.6299 16.4042 12.6299 15.99V10.4499L12.6338 10.3728C12.6724 9.99485 12.9917 9.69994 13.3799 9.69994H15.2295ZM14.1299 15.24H15.2295C15.8405 15.24 16.33 14.7505 16.3301 14.1501V12.2995C16.3298 11.694 15.8351 11.2 15.2295 11.1999H14.1299V15.24Z" fill="white"/> <path d="M22 10.12V17C22 19.75 19.75 22 17 22H7C4.25 22 2 19.75 2 17V7C2 4.25 4.25 2 7 2H14.83" stroke="white" stroke-width="1.5" stroke-linecap="round" stroke-linejoin="round"/> </g> <defs> <clipPath id="clip0_3111_17240"> <rect width="24" height="24" fill="white"/> </clipPath> </defs> </svg>
