<svg width="24" height="24" viewBox="0 0 24 24" fill="none" xmlns="http://www.w3.org/2000/svg"> <g clip-path="url(#clip0_3111_18228)"> <path opacity="0.4" d="M2 11V7C2 4.25 4.25 2 7 2H17C19.75 2 22 4.25 22 7V17C22 19.75 19.75 22 17 22H14" stroke="white" stroke-width="1.5" stroke-miterlimit="10" stroke-linecap="round"/> <path d="M4.32007 20.63L5.73007 21.72C5.92007 21.91 6.33007 22 6.60007 22H8.33007C8.88007 22 9.47007 21.59 9.60007 21.04L10.6901 17.72C10.9201 17.08 10.5101 16.54 9.82007 16.54H8.01007C7.74007 16.54 7.51007 16.31 7.55007 15.99L7.78007 14.53C7.87007 14.12 7.60007 13.66 7.19007 13.53C6.83007 13.39 6.37007 13.58 6.19007 13.85L4.32007 16.63" stroke="white" stroke-width="1.5" stroke-miterlimit="10"/> <path d="M2 20.63V16.17C2 15.53 2.27 15.3 2.91 15.3H3.37C4.01 15.3 4.28 15.53 4.28 16.17V20.63C4.28 21.27 4.01 21.5 3.37 21.5H2.91C2.27 21.5 2 21.27 2 20.63Z" stroke="white" stroke-width="1.5" stroke-linecap="round" stroke-linejoin="round"/> <path d="M18.1599 9.71997L16.9799 9.99997C16.1299 10.2 15.4699 10.86 15.2799 11.7L14.9999 12.88C14.9699 13.01 14.7899 13.01 14.7599 12.88L14.4799 11.7C14.2799 10.85 13.6199 10.19 12.7799 9.99997L11.5999 9.71997C11.4699 9.68997 11.4699 9.50997 11.5999 9.47997L12.7799 9.19997C13.6299 8.99997 14.2899 8.33997 14.4799 7.49997L14.7599 6.31997C14.7899 6.18997 14.9699 6.18997 14.9999 6.31997L15.2799 7.49997C15.4799 8.34997 16.1399 9.00997 16.9799 9.19997L18.1599 9.47997C18.2899 9.50997 18.2899 9.68997 18.1599 9.71997Z" stroke="white" stroke-width="1.5" stroke-miterlimit="10"/> </g> <defs> <clipPath id="clip0_3111_18228"> <rect width="24" height="24" fill="white"/> </clipPath> </defs> </svg>
