<svg width="24" height="24" viewBox="0 0 24 24" fill="none" xmlns="http://www.w3.org/2000/svg"> <g clip-path="url(#clip0_3111_18187)"> <path d="M6.95991 18.49H10.9899L15.4799 21.47C16.1499 21.91 17.0399 21.44 17.0399 20.63V18.48C20.0699 18.48 22.0799 16.46 22.0799 13.44V7.38998C22.0799 4.35998 20.0599 2.34998 17.0399 2.34998H6.95991C5.50991 2.34998 4.29991 2.80998 3.41991 3.61998C2.45991 4.50998 1.90991 5.80998 1.90991 7.38998V13.44C1.90991 16.47 3.92991 18.48 6.94991 18.48L6.95991 18.49Z" stroke="white" stroke-width="1.5" stroke-linecap="round" stroke-linejoin="round"/> <path opacity="0.4" d="M10.5702 7.48993C10.857 7.49008 11.1195 7.65391 11.245 7.9118L13.455 12.4518C13.6359 12.8241 13.4803 13.2725 13.1083 13.4538C12.7359 13.6351 12.2877 13.4804 12.1063 13.1081L11.8007 12.4802H9.3407L9.03504 13.1081C8.85379 13.4804 8.40448 13.6349 8.03211 13.4538C7.65984 13.2725 7.50439 12.8242 7.68543 12.4518L9.89637 7.9118L9.9491 7.81903C10.0873 7.61514 10.3193 7.48994 10.5702 7.48993ZM15.6493 7.48016C16.0635 7.48016 16.3993 7.81595 16.3993 8.23016V12.7702C16.3992 13.1843 16.0634 13.5202 15.6493 13.5202C15.2353 13.52 14.8994 13.1842 14.8993 12.7702V8.23016C14.8993 7.81607 15.2352 7.48035 15.6493 7.48016ZM10.0702 10.9802H11.0702L10.5702 9.95282L10.0702 10.9802Z" fill="white"/> </g> <defs> <clipPath id="clip0_3111_18187"> <rect width="24" height="24" fill="white"/> </clipPath> </defs> </svg>
