<svg width="24" height="24" viewBox="0 0 24 24" fill="none" xmlns="http://www.w3.org/2000/svg"> <g clip-path="url(#clip0_3111_17125)"> <path d="M21.91 18.3L20.57 18.61C19.61 18.83 18.86 19.58 18.64 20.54L18.33 21.88C18.3 22.02 18.09 22.02 18.06 21.88L17.75 20.54C17.53 19.58 16.78 18.83 15.82 18.61L14.48 18.3C14.34 18.27 14.34 18.06 14.48 18.03L15.82 17.72C16.78 17.5 17.53 16.75 17.75 15.79L18.06 14.45C18.09 14.31 18.3 14.31 18.33 14.45L18.64 15.79C18.86 16.75 19.61 17.5 20.57 17.72L21.91 18.03C22.05 18.06 22.05 18.27 21.91 18.3Z" stroke="white" stroke-width="1.5" stroke-miterlimit="10"/> <path opacity="0.4" d="M12.69 22H7C4.25 22 2 19.75 2 17V7C2 4.25 4.25 2 7 2H17C19.75 2 22 4.25 22 7V13" stroke="white" stroke-width="1.5" stroke-miterlimit="10" stroke-linecap="round"/> <path d="M8 8.5H15" stroke="white" stroke-width="1.5" stroke-linecap="round" stroke-linejoin="round"/> <path d="M8 13H11.5" stroke="white" stroke-width="1.5" stroke-linecap="round" stroke-linejoin="round"/> </g> <defs> <clipPath id="clip0_3111_17125"> <rect width="24" height="24" fill="white"/> </clipPath> </defs> </svg>
