<svg width="24" height="24" viewBox="0 0 24 24" fill="none" xmlns="http://www.w3.org/2000/svg"> <g clip-path="url(#clip0_3111_18424)"> <path d="M21.5399 19.49L20.6099 19.71C19.9399 19.87 19.4199 20.39 19.2699 21.05L19.0499 21.98C19.0299 22.08 18.8799 22.08 18.8599 21.98L18.6399 21.05C18.4799 20.38 17.9599 19.86 17.2999 19.71L16.3699 19.49C16.2699 19.47 16.2699 19.32 16.3699 19.3L17.2999 19.08C17.9699 18.92 18.4899 18.4 18.6399 17.74L18.8599 16.81C18.8799 16.71 19.0299 16.71 19.0499 16.81L19.2699 17.74C19.4299 18.41 19.9499 18.93 20.6099 19.08L21.5399 19.3C21.6399 19.32 21.6399 19.47 21.5399 19.49Z" stroke="white" stroke-width="1.5" stroke-miterlimit="10"/> <path opacity="0.4" d="M22 12C22 6.48 17.52 2 12 2C6.48 2 2 6.48 2 12C2 17.52 6.48 22 12 22" stroke="white" stroke-width="1.5" stroke-linecap="round" stroke-linejoin="round"/> <path d="M7.56006 12.43H12.4401V6.44" stroke="white" stroke-width="1.5" stroke-linecap="round" stroke-linejoin="round"/> </g> <defs> <clipPath id="clip0_3111_18424"> <rect width="24" height="24" fill="white"/> </clipPath> </defs> </svg>
