<svg width="24" height="24" viewBox="0 0 24 24" fill="none" xmlns="http://www.w3.org/2000/svg"> <g clip-path="url(#clip0_3111_17800)"> <path d="M21.8783 19.1909L20.8147 19.4307C20.0599 19.602 19.4651 20.1957 19.2822 20.9493L19.0306 21.9997C19.0077 22.1139 18.8476 22.1139 18.8133 21.9997L18.5731 20.9379C18.4015 20.1843 17.8068 19.5906 17.052 19.4079L15.9998 19.1567C15.8855 19.1339 15.8855 18.974 15.9998 18.9398L17.0634 18.7C17.8183 18.5287 18.413 17.935 18.596 17.1814L18.8476 16.131C18.8704 16.0168 19.0306 16.0168 19.0649 16.131L19.305 17.1928C19.4766 17.9464 20.0713 18.5401 20.8261 18.7228L21.8783 18.974C21.9927 18.9968 21.9927 19.1567 21.8783 19.1909Z" stroke="white" stroke-width="1.5" stroke-miterlimit="10"/> <path d="M13.16 21.03H7.81C4.88 21.03 2.5 18.65 2.5 15.72V7.60999C2.5 4.67999 4.88 2.29999 7.81 2.29999H15.92C18.85 2.29999 21.23 4.67999 21.23 7.60999V13.59" stroke="white" stroke-width="1.5" stroke-linecap="round" stroke-linejoin="round"/> <g opacity="0.4"> <path d="M7.17969 8.75014C10.1297 7.28014 13.5997 7.28014 16.5497 8.75014" stroke="white" stroke-width="1.5" stroke-linecap="round" stroke-linejoin="round"/> <path d="M11.8604 15.6898V7.84979" stroke="white" stroke-width="1.5" stroke-linecap="round" stroke-linejoin="round"/> </g> </g> <defs> <clipPath id="clip0_3111_17800"> <rect width="24" height="24" fill="white"/> </clipPath> </defs> </svg>
