<svg width="24" height="24" viewBox="0 0 24 24" fill="none" xmlns="http://www.w3.org/2000/svg"> <g clip-path="url(#clip0_4482_9272)"> <g opacity="0.4"> <path d="M6.62988 9.78003H17.7399V11.29C17.7399 12.29 16.9299 13.11 15.9199 13.11H8.44988C7.44988 13.11 6.62988 12.3 6.62988 11.29V9.78003Z" stroke="white" stroke-width="1.5" stroke-linecap="round" stroke-linejoin="round"/> <path d="M22 9.78003H2" stroke="white" stroke-width="1.5" stroke-linecap="round" stroke-linejoin="round"/> </g> <path d="M22 8.76999V15.24C22 18.21 19.67 20.65 16.71 20.79C13.67 20.93 10.33 20.93 7.29 20.79C4.33 20.65 2 18.21 2 15.24V8.76999C2 5.79999 4.33 3.35999 7.29 3.21999C10.33 3.07999 13.67 3.07999 16.71 3.21999C19.67 3.35999 22 5.79999 22 8.76999Z" stroke="white" stroke-width="1.5" stroke-linecap="round" stroke-linejoin="round"/> </g> <defs> <clipPath id="clip0_4482_9272"> <rect width="24" height="24" fill="white"/> </clipPath> </defs> </svg>
