<svg width="24" height="25" viewBox="0 0 24 25" fill="none" xmlns="http://www.w3.org/2000/svg"> <g clip-path="url(#clip0_4482_2185)"> <path d="M17 22.7627H7C4.24 22.7627 2 20.5227 2 17.7627V7.7627C2 5.0027 4.24 2.7627 7 2.7627H17C19.76 2.7627 22 5.0027 22 7.7627V17.7627C22 20.5227 19.76 22.7627 17 22.7627Z" stroke="white" stroke-width="1.5" stroke-linecap="round" stroke-linejoin="round"/> <g opacity="0.4"> <path d="M12.6299 9.83301H11.8199C10.3299 9.83301 9.12988 11.043 9.12988 12.523V13.333" stroke="white" stroke-width="1.5" stroke-linecap="round" stroke-linejoin="round"/> <path d="M15 11.7627C16.1046 11.7627 17 10.8673 17 9.7627C17 8.65813 16.1046 7.7627 15 7.7627C13.8954 7.7627 13 8.65813 13 9.7627C13 10.8673 13.8954 11.7627 15 11.7627Z" stroke="white" stroke-width="1.5" stroke-linecap="round" stroke-linejoin="round"/> <path d="M9 17.7627C10.1046 17.7627 11 16.8673 11 15.7627C11 14.6581 10.1046 13.7627 9 13.7627C7.89543 13.7627 7 14.6581 7 15.7627C7 16.8673 7.89543 17.7627 9 17.7627Z" stroke="white" stroke-width="1.5" stroke-linecap="round" stroke-linejoin="round"/> </g> </g> <defs> <clipPath id="clip0_4482_2185"> <rect width="24" height="24" fill="white" transform="translate(0 0.762695)"/> </clipPath> </defs> </svg>
