<svg width="24" height="24" viewBox="0 0 24 24" fill="none" xmlns="http://www.w3.org/2000/svg"> <g clip-path="url(#clip0_2085_392697)"> <path d="M4.68994 9.08L11.5999 2.17C11.6499 2.12 11.7099 2.07 11.7799 2.04C11.8499 2.01 11.9199 2 11.9999 2C12.0799 2 12.1499 2.02 12.2199 2.04C12.2899 2.07 12.3499 2.11 12.3999 2.17L19.3099 9.08" stroke="white" stroke-width="1.71" stroke-linecap="round" stroke-linejoin="round"/> <path opacity="0.4" d="M4.68994 14.9199L11.5999 21.8299C11.6499 21.8799 11.7099 21.9299 11.7799 21.9599C11.8499 21.9899 11.9199 21.9999 11.9999 21.9999C12.0799 21.9999 12.1499 21.9799 12.2199 21.9599C12.2899 21.9299 12.3499 21.8899 12.3999 21.8299L19.3099 14.9199" stroke="white" stroke-width="1.71" stroke-linecap="round" stroke-linejoin="round"/> </g> <defs> <clipPath id="clip0_2085_392697"> <rect width="24" height="24" fill="white"/> </clipPath> </defs> </svg>
