<svg width="24" height="24" viewBox="0 0 24 24" fill="none" xmlns="http://www.w3.org/2000/svg"> <g clip-path="url(#clip0_2085_389487)"> <path d="M12 21.9999C16.2967 21.9999 19.78 18.5167 19.78 14.2199C19.78 9.92317 16.2967 6.43994 12 6.43994C7.7032 6.43994 4.21997 9.92317 4.21997 14.2199C4.21997 18.5167 7.7032 21.9999 12 21.9999Z" stroke="white" stroke-width="1.5" stroke-linecap="round" stroke-linejoin="round"/> <path opacity="0.4" d="M17.5701 8.8L18.4401 6.53C18.8301 5.5 18.7001 4.35 18.0801 3.45C17.4601 2.54 16.4301 2 15.3301 2H8.67009C7.57009 2 6.54009 2.54 5.92009 3.45C5.30009 4.35 5.16009 5.51 5.56009 6.53L6.43009 8.8" stroke="white" stroke-width="1.5" stroke-linecap="round" stroke-linejoin="round"/> </g> <defs> <clipPath id="clip0_2085_389487"> <rect width="24" height="24" fill="white"/> </clipPath> </defs> </svg>
