<svg width="24" height="24" viewBox="0 0 24 24" fill="none" xmlns="http://www.w3.org/2000/svg"> <g clip-path="url(#clip0_2085_390020)"> <path opacity="0.4" d="M9.01984 14.0902C9.25984 13.8502 9.65984 13.8502 9.89984 14.0902C10.1398 14.3302 10.1398 14.7302 9.89984 14.9702C9.65984 15.2102 9.25984 15.2102 9.01984 14.9702C8.77984 14.7302 8.77984 14.3302 9.01984 14.0902Z" fill="white"/> <path d="M19.1399 10.1401C16.8099 12.4701 12.9899 16.2901 12.9899 16.2901C11.8399 17.4401 10.1399 17.6701 8.75994 17.0001L4.12994 21.6301C3.63994 22.1201 2.85994 22.1201 2.36994 21.6301C1.87994 21.1401 1.87994 20.3601 2.36994 19.8701C2.36994 19.8701 6.98994 15.2501 6.99994 15.2401C6.32994 13.8601 6.55994 12.1601 7.70994 11.0101L15.6299 3.09012C17.0899 1.63012 19.4499 1.63012 20.9099 3.09012C22.3699 4.55012 22.3699 6.91012 20.9099 8.37012C20.9099 8.37012 20.1699 9.11012 19.1399 10.1401Z" stroke="white" stroke-width="1.41" stroke-linecap="round" stroke-linejoin="round"/> <path opacity="0.4" d="M4.11987 18.1104L5.87987 19.8704" stroke="white" stroke-width="1.41" stroke-linecap="round" stroke-linejoin="round"/> <path d="M20.8999 8.38059L15.6199 3.10059" stroke="white" stroke-width="1.41" stroke-linecap="round" stroke-linejoin="round"/> <path opacity="0.4" d="M11.22 12.7803C10.73 12.2903 10.73 11.5103 11.22 11.0203L14.74 7.50031C15.23 7.01031 16.01 7.01031 16.5 7.50031C16.99 7.99031 16.99 8.77031 16.5 9.26031L12.98 12.7803C12.49 13.2703 11.71 13.2703 11.22 12.7803Z" stroke="white" stroke-width="1.41" stroke-linecap="round" stroke-linejoin="round"/> </g> <defs> <clipPath id="clip0_2085_390020"> <rect width="24" height="24" fill="white"/> </clipPath> </defs> </svg>
