<svg width="24" height="24" viewBox="0 0 24 24" fill="none" xmlns="http://www.w3.org/2000/svg"> <g clip-path="url(#clip0_4482_2423)"> <path opacity="0.4" d="M19.9001 18.2899H16.1001L17.6802 16.71" stroke="white" stroke-width="1.5" stroke-linecap="round" stroke-linejoin="round"/> <g opacity="0.4"> <path d="M8.87988 7.31994C8.46988 7.31994 8.12988 6.97994 8.12988 6.56994V5.43994C8.12988 5.02994 8.46988 4.68994 8.87988 4.68994C9.28988 4.68994 9.62988 5.02994 9.62988 5.43994V6.56994C9.62988 6.97994 9.29988 7.31994 8.87988 7.31994Z" fill="white"/> <path d="M8.87988 15.1901C8.46988 15.1901 8.12988 14.8501 8.12988 14.4401V13.3101C8.12988 12.9001 8.46988 12.5601 8.87988 12.5601C9.28988 12.5601 9.62988 12.9001 9.62988 13.3101V14.4401C9.62988 14.8601 9.29988 15.1901 8.87988 15.1901Z" fill="white"/> <path d="M9.54993 14.0701H8.31982C7.48982 14.0701 6.72992 13.6301 6.28992 12.9001C6.06992 12.5501 6.18992 12.0801 6.53992 11.8701C6.88992 11.6601 7.35982 11.7701 7.56982 12.1201C7.64982 12.2501 7.88982 12.5701 8.31982 12.5701H9.54993C10.0099 12.5701 10.3799 12.2001 10.3799 11.7401C10.3799 11.3601 10.1199 11.0301 9.74988 10.9301L7.63989 10.4001C6.59989 10.1401 5.87988 9.21006 5.87988 8.14006C5.87988 6.86006 6.91984 5.81006 8.20984 5.81006H9.43982C10.2598 5.81006 11.0198 6.25006 11.4698 6.97006C11.6898 7.32006 11.5698 7.79006 11.2198 8.00006C10.8598 8.22006 10.3998 8.10006 10.1898 7.75006C10.1098 7.62006 9.86982 7.30006 9.43982 7.30006H8.20984C7.74984 7.30006 7.37988 7.67006 7.37988 8.13006C7.37988 8.51006 7.63989 8.84006 8.00989 8.93006L10.1199 9.46006C11.1599 9.72006 11.8799 10.6501 11.8799 11.7201C11.8799 13.0201 10.8399 14.0701 9.54993 14.0701Z" fill="white"/> </g> <path d="M23 18C23 20.07 21.74 21.84 19.96 22.61C19.36 22.86 18.69 23 18 23C15.95 23 14.19 21.76 13.41 20C13.15 19.39 13 18.71 13 18C13 15.24 15.24 13 18 13C18.69 13 19.36 13.14 19.96 13.39C19.97 13.4 19.99 13.4 20 13.41C21.76 14.19 23 15.95 23 18Z" stroke="white" stroke-width="1.5" stroke-linecap="round" stroke-linejoin="round"/> <path d="M20 7V13.41C19.99 13.4 19.97 13.4 19.96 13.39C19.36 13.14 18.69 13 18 13C15.24 13 13 15.24 13 18C13 18.71 13.15 19.39 13.41 20H7C4.25 20 2 17.75 2 15V7C2 4.25 4.25 2 7 2H15C17.75 2 20 4.25 20 7Z" stroke="white" stroke-width="1.5" stroke-linecap="round" stroke-linejoin="round"/> </g> <defs> <clipPath id="clip0_4482_2423"> <rect width="24" height="24" fill="white"/> </clipPath> </defs> </svg>
