<svg width="24" height="24" viewBox="0 0 24 24" fill="none" xmlns="http://www.w3.org/2000/svg"> <g clip-path="url(#clip0_2085_389869)"> <path d="M18.22 15.7695H21.99" stroke="white" stroke-width="1.5" stroke-linecap="round" stroke-linejoin="round"/> <path d="M5.78003 13.2799V9.12988" stroke="white" stroke-width="1.5" stroke-linecap="round" stroke-linejoin="round"/> <path d="M5.77 15.7695H2" stroke="white" stroke-width="1.5" stroke-linecap="round" stroke-linejoin="round"/> <path d="M3.23999 20.7493H5.76999V13.2793H4.47999C3.10999 13.2793 1.98999 14.3893 1.98999 15.7693V19.4993C1.98999 20.1893 2.54999 20.7393 3.22999 20.7393L3.23999 20.7493Z" stroke="white" stroke-width="1.5" stroke-linecap="round" stroke-linejoin="round"/> <path d="M18.22 9.12988V13.2799" stroke="white" stroke-width="1.5" stroke-linecap="round" stroke-linejoin="round"/> <path d="M5.77002 20.75C5.77002 21.44 6.33002 21.99 7.01002 21.99H16.96C17.65 21.99 18.2 21.43 18.2 20.75" stroke="white" stroke-width="1.5" stroke-linecap="round" stroke-linejoin="round"/> <path d="M14.48 4.48977H9.5V3.24977C9.5 2.55977 10.06 2.00977 10.74 2.00977H13.23C13.92 2.00977 14.47 2.56977 14.47 3.24977V4.48977H14.48Z" stroke="white" stroke-width="1.5" stroke-linecap="round" stroke-linejoin="round"/> <path d="M10.75 9.47H7.02003C5.65003 9.47 4.53003 8.36 4.53003 6.98V5.74C4.53003 5.05 5.09003 4.5 5.77003 4.5H18.21C18.9 4.5 19.45 5.06 19.45 5.74V6.98C19.45 8.35 18.34 9.47 16.96 9.47H13.23" stroke="white" stroke-width="1.5" stroke-linecap="round" stroke-linejoin="round"/> <g opacity="0.4"> <path d="M13.24 13.2793H14.48C15.17 13.2793 15.72 13.8393 15.72 14.5193V17.0093H8.25V14.5193C8.25 13.8293 8.81 13.2793 9.49 13.2793H10.73" stroke="white" stroke-width="1.5" stroke-linecap="round" stroke-linejoin="round"/> <path d="M12 14.5293C11.31 14.5293 10.76 13.9693 10.76 13.2893V6.98926H13.25V13.2893C13.25 13.9793 12.69 14.5293 12.01 14.5293H12Z" stroke="white" stroke-width="1.5" stroke-linecap="round" stroke-linejoin="round"/> <path d="M9.51001 6.97949H10.75" stroke="white" stroke-width="1.5" stroke-linecap="round" stroke-linejoin="round"/> <path d="M13.24 6.97949H14.48" stroke="white" stroke-width="1.5" stroke-linecap="round" stroke-linejoin="round"/> <path d="M8.26001 17.0098V19.4998C8.26001 20.8698 9.37001 21.9898 10.75 21.9898H13.24C14.61 21.9898 15.73 20.8798 15.73 19.4998V17.0098" stroke="white" stroke-width="1.5" stroke-linecap="round" stroke-linejoin="round"/> <path d="M10.75 19.499H13.24" stroke="white" stroke-width="1.5" stroke-linecap="round" stroke-linejoin="round"/> <path d="M12 17.0098V19.4998" stroke="white" stroke-width="1.5" stroke-linecap="round" stroke-linejoin="round"/> <path d="M10.75 12.0391H13.24" stroke="white" stroke-width="1.5" stroke-linecap="round" stroke-linejoin="round"/> </g> <path d="M20.75 20.7493H18.22V13.2793H19.51C20.88 13.2793 22 14.3893 22 15.7693V19.4993C22 20.1893 21.44 20.7393 20.76 20.7393L20.75 20.7493Z" stroke="white" stroke-width="1.5" stroke-linecap="round" stroke-linejoin="round"/> </g> <defs> <clipPath id="clip0_2085_389869"> <rect width="24" height="24" fill="white"/> </clipPath> </defs> </svg>
