<svg width="24" height="24" viewBox="0 0 24 24" fill="none" xmlns="http://www.w3.org/2000/svg"> <g clip-path="url(#clip0_2085_389656)"> <g opacity="0.4"> <path d="M17.1901 13.5103C16.9401 14.1003 16.6601 14.6803 16.3301 15.2503C16.0001 15.8203 15.6401 16.3603 15.2501 16.8703C14.4801 17.8803 13.6001 18.7603 12.6401 19.5203" stroke="white" stroke-width="1.5" stroke-linecap="round" stroke-linejoin="round"/> <path d="M17.1902 13.5103C17.5302 13.6603 17.8702 13.8303 18.1902 14.0203C19.4002 14.7203 20.4002 15.6303 21.1902 16.6803" stroke="white" stroke-width="1.5" stroke-linecap="round" stroke-linejoin="round"/> <path d="M17.19 13.5102C15.5 12.7702 13.73 12.5302 12 12.7502" stroke="white" stroke-width="1.5" stroke-linecap="round" stroke-linejoin="round"/> <path d="M11.25 7.81008C11.39 6.45008 11.81 5.09008 12.54 3.83008C12.74 3.48008 12.96 3.14008 13.2 2.83008" stroke="white" stroke-width="1.5" stroke-linecap="round" stroke-linejoin="round"/> <path d="M11.25 7.81019C14.41 7.39019 17.73 7.98019 20.7 9.69019C21.05 9.89019 21.38 10.1002 21.7 10.3202" stroke="white" stroke-width="1.5" stroke-linecap="round" stroke-linejoin="round"/> <path d="M11.2501 7.81006C11.0801 9.52006 11.3301 11.1901 12.0001 12.7501" stroke="white" stroke-width="1.5" stroke-linecap="round" stroke-linejoin="round"/> <path d="M12 12.75C11.08 14.35 9.78003 15.6 8.28003 16.45" stroke="white" stroke-width="1.5" stroke-linecap="round" stroke-linejoin="round"/> <path d="M8.28019 16.4501C6.12019 12.7801 5.57019 8.28012 6.95019 4.12012" stroke="white" stroke-width="1.5" stroke-linecap="round" stroke-linejoin="round"/> <path d="M8.28009 16.4502C6.78009 17.3002 5.07009 17.7502 3.34009 17.7502" stroke="white" stroke-width="1.5" stroke-linecap="round" stroke-linejoin="round"/> </g> <path d="M13.2 2.81982C14.5 2.97982 15.79 3.38982 17 4.08982C19.44 5.49982 21.06 7.78982 21.7 10.3198" stroke="white" stroke-width="1.5" stroke-linecap="round" stroke-linejoin="round"/> <path d="M13.2 2.81992C11.03 2.55992 8.82995 3.01992 6.94995 4.11992" stroke="white" stroke-width="1.5" stroke-linecap="round" stroke-linejoin="round"/> <path d="M6.94993 4.12012C5.49993 4.97012 4.23993 6.19012 3.33993 7.75012C1.48993 10.9501 1.61993 14.7601 3.33993 17.7501" stroke="white" stroke-width="1.5" stroke-linecap="round" stroke-linejoin="round"/> <path d="M21.7 10.3198C22.22 12.3798 22.08 14.6098 21.2 16.6698" stroke="white" stroke-width="1.5" stroke-linecap="round" stroke-linejoin="round"/> <path d="M21.2001 16.6802C21.0401 17.0402 20.8701 17.4002 20.6601 17.7502C20.2801 18.4002 19.8401 19.0002 19.3501 19.5302" stroke="white" stroke-width="1.5" stroke-linecap="round" stroke-linejoin="round"/> <path d="M3.34009 17.75C3.70009 18.38 4.14009 18.98 4.65009 19.53" stroke="white" stroke-width="1.5" stroke-linecap="round" stroke-linejoin="round"/> <path d="M2 21.2498L3.67 19.9998C3.97 19.7798 4.3 19.6198 4.65 19.5298" stroke="white" stroke-width="1.5" stroke-linecap="round" stroke-linejoin="round"/> <path d="M22.0001 21.2498L20.3301 19.9998C20.0301 19.7798 19.7001 19.6198 19.3501 19.5298" stroke="white" stroke-width="1.5" stroke-linecap="round" stroke-linejoin="round"/> <path d="M4.6499 19.5302C5.0499 19.4302 5.4699 19.4202 5.8799 19.5002C6.2799 19.5802 6.6599 19.7502 7.0099 20.0002C7.9999 20.7402 9.3499 20.7402 10.3399 20.0002C11.0199 19.4902 11.8599 19.3302 12.6499 19.5202" stroke="white" stroke-width="1.5" stroke-linecap="round" stroke-linejoin="round"/> <path d="M19.3499 19.5301C18.9499 19.4301 18.5299 19.4201 18.1199 19.5001C17.7199 19.5801 17.3399 19.7501 16.9899 20.0001C15.9999 20.7401 14.6399 20.7401 13.6599 20.0001C13.3499 19.7701 12.9999 19.6101 12.6399 19.5201" stroke="white" stroke-width="1.5" stroke-linecap="round" stroke-linejoin="round"/> </g> <defs> <clipPath id="clip0_2085_389656"> <rect width="24" height="24" fill="white"/> </clipPath> </defs> </svg>
