<svg width="24" height="24" viewBox="0 0 24 24" fill="none" xmlns="http://www.w3.org/2000/svg"> <g clip-path="url(#clip0_655_9515)"> <path opacity="0.4" d="M21.9994 2L19.1094 4.89" stroke="white" stroke-width="1.5" stroke-linecap="round" stroke-linejoin="round"/> <g opacity="0.4"> <path d="M11.1084 12.89C12.2184 14 14.1084 14 15.2184 12.89C16.3284 11.78 16.3284 9.88999 15.2184 8.77999C14.1084 7.66999 12.2184 7.66999 11.1084 8.77999C9.88836 9.99999 9.88836 11.78 11.1084 12.89Z" stroke="white" stroke-width="1.5" stroke-linecap="round" stroke-linejoin="round"/> <path d="M4.88922 19.11C6.55922 20.78 9.32922 20.78 10.9992 19.11C12.6692 17.44 12.6692 14.67 10.9992 13C9.32922 11.33 6.55922 11.33 4.88922 13C3.21922 14.67 3.21922 17.33 4.88922 19.11Z" stroke="white" stroke-width="1.5" stroke-linecap="round" stroke-linejoin="round"/> </g> <path d="M4.91914 19.08C8.81914 22.98 15.1691 22.98 19.0691 19.08C22.9691 15.18 22.9691 8.83001 19.0691 4.93001C15.1691 1.03 8.81914 1.03 4.91914 4.93001C1.01914 8.83001 1.01914 15.18 4.91914 19.08Z" stroke="white" stroke-width="1.5" stroke-linecap="round" stroke-linejoin="round"/> </g> <defs> <clipPath id="clip0_655_9515"> <rect width="24" height="24" fill="white"/> </clipPath> </defs> </svg>
