<svg width="24" height="24" viewBox="0 0 24 24" fill="none" xmlns="http://www.w3.org/2000/svg"> <g clip-path="url(#clip0_655_9505)"> <path d="M12 22C16.97 22 21 17.97 21 13C21 8.03 16.97 4 12 4C7.03 4 3 8.03 3 13C3 17.97 7.03 22 12 22Z" stroke="white" stroke-width="1.5" stroke-linecap="round" stroke-linejoin="round"/> <path d="M12 4V2" stroke="white" stroke-width="1.5" stroke-linecap="round" stroke-linejoin="round"/> <path d="M3.16016 13H4.14016M19.8602 13H20.8402M12.0002 21.84V20.86M12.0002 5.14V4.16M16.9102 13L18.2902 19.29L15.9302 16.93H8.07016L5.71016 19.29L8.07016 9.07L5.71016 6.71H18.2902L15.9302 9.07L16.9102 13ZM16.9102 13C14.1602 13 12.0002 15.16 12.0002 17.91C12.0002 15.16 9.84016 13 7.09016 13C9.84016 13 12.0002 10.84 12.0002 8.09C12.0002 10.84 14.1602 13 16.9102 13Z" stroke="white" stroke-width="1.5" stroke-linecap="round" stroke-linejoin="round"/> <g opacity="0.4"> <path d="M18.2916 6.70999L15.9316 9.06999" stroke="white" stroke-width="1.5" stroke-linecap="round" stroke-linejoin="round"/> <path d="M8.07094 9.06999L5.71094 6.70999" stroke="white" stroke-width="1.5" stroke-linecap="round" stroke-linejoin="round"/> <path d="M8.07094 16.93L5.71094 19.29" stroke="white" stroke-width="1.5" stroke-linecap="round" stroke-linejoin="round"/> <path d="M18.2916 19.29L15.9316 16.93" stroke="white" stroke-width="1.5" stroke-linecap="round" stroke-linejoin="round"/> </g> </g> <defs> <clipPath id="clip0_655_9505"> <rect width="24" height="24" fill="white"/> </clipPath> </defs> </svg>
