<svg width="24" height="24" viewBox="0 0 24 24" fill="none" xmlns="http://www.w3.org/2000/svg"> <g clip-path="url(#clip0_655_9533)"> <g opacity="0.4"> <path d="M6.23047 8.78C7.67047 9.11 8.66047 10.45 8.66047 12" stroke="white" stroke-width="1.5" stroke-linecap="round" stroke-linejoin="round"/> <path d="M8.66992 12C8.66992 10.11 10.1099 8.67 11.9999 8.67C13.8899 8.67 15.3299 10.11 15.3299 12" stroke="white" stroke-width="1.5" stroke-linecap="round" stroke-linejoin="round"/> <path d="M15.3301 12C15.3301 10.44 16.4401 9.27999 17.8901 8.93999" stroke="white" stroke-width="1.5" stroke-linecap="round" stroke-linejoin="round"/> </g> <path d="M20.8896 17.56V16.78C20.8896 16.22 20.5596 15.78 19.9996 15.45L19.2196 15.12C18.7796 15.01 18.4396 14.68 18.4396 14.23L17.7696 7.9C17.5496 6.34 16.5496 5.12 15.0996 4.46L13.6596 3.9C13.2196 3.68 12.8796 3.23 12.7696 2.79L12.5496 2.01H11.4396L11.2196 2.79C11.1096 3.23 10.7796 3.68 10.3296 3.9L8.88961 4.46C7.44961 5.13 6.44961 6.35 6.21961 7.9L5.54961 14.23C5.54961 14.67 5.21961 15.01 4.76961 15.12L3.98961 15.45C3.42961 15.78 3.09961 16.23 3.09961 16.78V17.56H20.8796H20.8896Z" stroke="white" stroke-width="1.5" stroke-linecap="round" stroke-linejoin="round"/> <path opacity="0.4" d="M7.56055 17.56C7.56055 20 9.56055 22 12.0005 22C14.4405 22 16.4405 20 16.4405 17.56" stroke="white" stroke-width="1.5" stroke-linecap="round" stroke-linejoin="round"/> </g> <defs> <clipPath id="clip0_655_9533"> <rect width="24" height="24" fill="white"/> </clipPath> </defs> </svg>
