<svg width="24" height="24" viewBox="0 0 24 24" fill="none" xmlns="http://www.w3.org/2000/svg"> <g clip-path="url(#clip0_4482_10471)"> <path d="M17.1901 13.1101H14.4401C13.7101 13.1101 13.1201 13.7001 13.1201 14.4301V17.1801C13.1201 17.5301 13.2601 17.8701 13.5101 18.1101L17.0001 21.6001C17.5201 22.1201 18.3501 22.1201 18.8701 21.6001L21.6201 18.8501C22.1401 18.3301 22.1401 17.5001 21.6201 16.9801L18.1301 13.4901C17.8801 13.2401 17.5501 13.1001 17.2001 13.1001L17.1901 13.1101Z" stroke="white" stroke-width="1.5" stroke-linecap="round" stroke-linejoin="round"/> <path d="M15.92 15.9198C15.92 15.9198 15.9 15.9698 15.92 15.9898C15.94 16.0098 15.97 16.0098 15.99 15.9898C16.01 15.9698 16.01 15.9398 15.99 15.9198C15.97 15.8998 15.94 15.8998 15.92 15.9198Z" stroke="white" stroke-width="1.5" stroke-linecap="round" stroke-linejoin="round"/> <path opacity="0.4" d="M22 11.9801V10.5701C22 9.22012 21.39 7.94012 20.33 7.10012L15.47 3.21012C13.44 1.59012 10.56 1.59012 8.53 3.21012L3.67 7.11012C2.62 7.95012 2 9.23012 2 10.5801V17.5601C2 20.0101 3.99 22.0001 6.44 22.0001H11.98" stroke="white" stroke-width="1.5" stroke-linecap="round" stroke-linejoin="round"/> </g> <defs> <clipPath id="clip0_4482_10471"> <rect width="24" height="24" fill="white"/> </clipPath> </defs> </svg>
