<svg width="24" height="24" viewBox="0 0 24 24" fill="none" xmlns="http://www.w3.org/2000/svg"> <g clip-path="url(#clip0_2085_389870)"> <path d="M10.76 12V14.49C9.39002 14.49 8.27002 15.6 8.27002 16.98V18.22" stroke="white" stroke-width="1.5" stroke-linecap="round" stroke-linejoin="round"/> <path d="M9.51 19.2197V19.7097C9.51 20.2597 9.06 20.7097 8.51 20.7097H3C2.45 20.7097 2 20.2697 2 19.7097V19.2197C2 18.6697 2.45 18.2197 3 18.2197H8.51C9.06 18.2197 9.51 18.6697 9.51 19.2197Z" stroke="white" stroke-width="1.5" stroke-linecap="round" stroke-linejoin="round"/> <path d="M10.76 8.27027V5.78027H5.78004V8.27027C5.78004 9.65027 4.67004 10.7603 3.29004 10.7603V18.2303" stroke="white" stroke-width="1.5" stroke-linecap="round" stroke-linejoin="round"/> <path d="M7.02002 5.78004V4.29004C7.02002 3.74004 7.47002 3.29004 8.02002 3.29004H8.51002C9.06002 3.29004 9.51002 3.74004 9.51002 4.29004V5.78004" stroke="white" stroke-width="1.5" stroke-linecap="round" stroke-linejoin="round"/> <g opacity="0.4"> <path d="M20.71 18.2205V10.7505C19.34 10.7505 18.22 9.64051 18.22 8.26051V5.77051H13.24V8.26051" stroke="white" stroke-width="1.5" stroke-linecap="round" stroke-linejoin="round"/> <path d="M13.24 12V14.49C14.61 14.49 15.73 15.6 15.73 16.98V18.22" stroke="white" stroke-width="1.5" stroke-linecap="round" stroke-linejoin="round"/> <path d="M22 19.2197V19.7097C22 20.2697 21.55 20.7097 21 20.7097H15.73C15.04 20.7097 14.49 20.1497 14.49 19.4697C14.49 18.7797 15.05 18.2197 15.73 18.2197H21C21.55 18.2197 22 18.6697 22 19.2197Z" stroke="white" stroke-width="1.5" stroke-linecap="round" stroke-linejoin="round"/> <path d="M14.49 5.78004V4.29004C14.49 3.74004 14.94 3.29004 15.49 3.29004H15.98C16.53 3.29004 16.98 3.74004 16.98 4.29004V5.78004" stroke="white" stroke-width="1.5" stroke-linecap="round" stroke-linejoin="round"/> </g> <path d="M15.1099 12.0005H8.88989V8.27051H15.1099V12.0005Z" stroke="white" stroke-width="1.5" stroke-linecap="round" stroke-linejoin="round"/> </g> <defs> <clipPath id="clip0_2085_389870"> <rect width="24" height="24" fill="white"/> </clipPath> </defs> </svg>
