<svg width="24" height="24" viewBox="0 0 24 24" fill="none" xmlns="http://www.w3.org/2000/svg"> <g clip-path="url(#clip0_4482_13872)"> <path d="M17.1299 14.0404V9.45043C17.1299 9.04043 16.9099 8.66043 16.5599 8.46043L12.5799 6.16043C12.2199 5.95043 11.7899 5.95043 11.4299 6.16043L7.44988 8.46043C7.08988 8.67043 6.87988 9.04043 6.87988 9.45043V14.0404C6.87988 14.4504 7.09988 14.8304 7.44988 15.0304L11.4299 17.3304C11.7899 17.5404 12.2199 17.5404 12.5799 17.3304L16.5599 15.0304C16.9199 14.8204 17.1299 14.4504 17.1299 14.0404Z" stroke="white" stroke-width="1.5" stroke-linecap="round" stroke-linejoin="round"/> <path d="M7.03027 8.87012L12.0003 11.7401L16.9703 8.87012" stroke="white" stroke-width="1.5" stroke-linecap="round" stroke-linejoin="round"/> <path d="M12 17.4802V11.7402" stroke="white" stroke-width="1.5" stroke-linecap="round" stroke-linejoin="round"/> <path opacity="0.4" d="M20.6803 8.18969V15.4497C20.6803 16.1297 20.3203 16.7597 19.7203 17.0997L13.2303 20.8497C12.9903 20.4197 12.5203 20.1297 12.0003 20.1297C11.4803 20.1297 11.0103 20.4197 10.7703 20.8497L4.28031 17.0997C3.69031 16.7597 3.32031 16.1297 3.32031 15.4497V8.18969C3.32031 8.18969 3.38031 8.18969 3.41031 8.18969C4.20031 8.18969 4.84031 7.54969 4.84031 6.75969C4.84031 6.40969 4.72031 6.08969 4.50031 5.83969L11.0503 2.05969C11.6403 1.71969 12.3703 1.71969 12.9603 2.05969L19.5103 5.83969C19.2903 6.08969 19.1703 6.39969 19.1703 6.75969C19.1703 7.54969 19.8103 8.18969 20.6003 8.18969C20.6303 8.18969 20.6603 8.18969 20.6903 8.18969H20.6803Z" stroke="white" stroke-width="1.5" stroke-linecap="round" stroke-linejoin="round"/> <path d="M22.0302 6.77031C22.0302 7.53031 21.4402 8.15031 20.6802 8.19031C20.6502 8.19031 20.6202 8.19031 20.5902 8.19031C19.8002 8.19031 19.1602 7.55031 19.1602 6.76031C19.1602 6.41031 19.2802 6.09031 19.5002 5.84031C19.7602 5.52031 20.1502 5.32031 20.5902 5.32031C21.3802 5.32031 22.0202 5.96031 22.0202 6.75031L22.0302 6.77031Z" stroke="white" stroke-width="1.5" stroke-linecap="round" stroke-linejoin="round"/> <path d="M4.83973 6.76961C4.83973 7.55961 4.19973 8.19961 3.40973 8.19961C3.37973 8.19961 3.34973 8.19961 3.31973 8.19961C2.56973 8.15961 1.96973 7.53961 1.96973 6.77961C1.96973 6.01961 2.60973 5.34961 3.39973 5.34961C3.83973 5.34961 4.22973 5.54961 4.48973 5.86961C4.70973 6.11961 4.82973 6.42961 4.82973 6.78961L4.83973 6.76961Z" stroke="white" stroke-width="1.5" stroke-linecap="round" stroke-linejoin="round"/> <path d="M13.4303 21.5699C13.4303 22.3599 12.7903 22.9999 12.0003 22.9999C11.2103 22.9999 10.5703 22.3599 10.5703 21.5699C10.5703 21.2999 10.6403 21.0599 10.7703 20.8499C11.0103 20.4199 11.4803 20.1299 12.0003 20.1299C12.5203 20.1299 12.9903 20.4199 13.2303 20.8499C13.3603 21.0599 13.4303 21.2999 13.4303 21.5699Z" stroke="white" stroke-width="1.5" stroke-linecap="round" stroke-linejoin="round"/> </g> <defs> <clipPath id="clip0_4482_13872"> <rect width="24" height="24" fill="white"/> </clipPath> </defs> </svg>
