<svg width="24" height="24" viewBox="0 0 24 24" fill="none" xmlns="http://www.w3.org/2000/svg"> <g clip-path="url(#clip0_2085_389664)"> <path d="M15.81 12C15.81 14.1 14.1 15.81 12 15.81" stroke="white" stroke-width="1.5" stroke-linecap="round" stroke-linejoin="round"/> <path d="M15.81 11.9999C15.81 9.89994 14.1 8.18994 12 8.18994" stroke="white" stroke-width="1.5" stroke-linecap="round" stroke-linejoin="round"/> <path d="M15.8101 12H22.0001" stroke="white" stroke-width="1.5" stroke-linecap="round" stroke-linejoin="round"/> <path d="M11.9999 15.81C9.89994 15.81 8.18994 14.1 8.18994 12" stroke="white" stroke-width="1.5" stroke-linecap="round" stroke-linejoin="round"/> <path d="M12 15.8101V22.0001" stroke="white" stroke-width="1.5" stroke-linecap="round" stroke-linejoin="round"/> <path d="M8.18994 11.9999C8.18994 9.89994 9.89994 8.18994 11.9999 8.18994" stroke="white" stroke-width="1.5" stroke-linecap="round" stroke-linejoin="round"/> <path d="M8.19 12H2" stroke="white" stroke-width="1.5" stroke-linecap="round" stroke-linejoin="round"/> <path d="M12 8.19V2" stroke="white" stroke-width="1.5" stroke-linecap="round" stroke-linejoin="round"/> <path opacity="0.4" d="M11.9999 20.0999C16.4734 20.0999 20.0999 16.4734 20.0999 11.9999C20.0999 7.5264 16.4734 3.8999 11.9999 3.8999C7.5264 3.8999 3.8999 7.5264 3.8999 11.9999C3.8999 16.4734 7.5264 20.0999 11.9999 20.0999Z" stroke="white" stroke-width="1.5" stroke-linecap="round" stroke-linejoin="round"/> </g> <defs> <clipPath id="clip0_2085_389664"> <rect width="24" height="24" fill="white"/> </clipPath> </defs> </svg>
