<svg width="24" height="24" viewBox="0 0 24 24" fill="none" xmlns="http://www.w3.org/2000/svg"> <g clip-path="url(#clip0_2085_392374)"> <path d="M22 19.58V20C22 21.1 21.1 22 20 22H15.82C15.46 22 15.11 21.93 14.78 21.8C15.12 21.58 15.34 21.2 15.34 20.76V19.46C15.76 19.53 16.2 19.58 16.67 19.58C19.24 19.58 22 19.58 22 19.58Z" stroke="white" stroke-width="1.41" stroke-linejoin="round"/> <path d="M21.9999 18.21V19.58C21.9999 19.58 19.2399 19.58 16.6699 19.58C16.1899 19.58 15.7599 19.53 15.3399 19.46V18.21C15.3399 17.43 14.8399 16.75 14.1099 16.5L9.90993 15.1C9.17993 14.86 8.68993 14.18 8.67993 13.41V2H12.3499C14.0099 2 15.3499 3.34 15.3499 5V13.4C15.3499 14.18 15.8499 14.86 16.5799 15.11L20.7799 16.51C21.5199 16.75 22.0099 17.44 22.0099 18.22L21.9999 18.21Z" stroke="white" stroke-width="1.41" stroke-linecap="round" stroke-linejoin="round"/> <path d="M8.66992 4.66992H15.3399" stroke="white" stroke-width="1.41" stroke-linejoin="round"/> <path d="M15.33 19.58V20.76C15.33 21.19 15.11 21.58 14.77 21.8C14.58 21.93 14.34 22 14.09 22H11.16H9.14C8.7 22 8.27 21.9 7.89 21.7L7.51 21.51C6.77 21.14 5.92 21.3 5.23 21.77C5.02 21.91 4.76 22 4.49 22C4.2 22 4.09 22 4 22C2.9 22 2 21.1 2 20V18.25L5.13 18.56C6.51 18.85 7.53 19.26 8.67 19.46C9.09 19.53 9.53 19.58 10 19.58C12.57 19.58 15.33 19.58 15.33 19.58Z" stroke="white" stroke-width="1.41" stroke-linejoin="round"/> <path opacity="0.4" d="M15.33 18.21V19.58C15.33 19.58 12.57 19.58 10 19.58C9.52 19.58 9.09 19.53 8.67 19.46C7.53 19.26 6.51 18.85 5.13 18.56C4.27 18.38 3.26 18.25 2 18.25V5C2 3.34 3.34 2 5 2H8.67V13.4V13.42C8.69 14.2 9.19 14.88 9.93 15.12L14.1 16.51C14.84 16.75 15.33 17.44 15.33 18.22V18.21Z" stroke="white" stroke-width="1.41" stroke-linecap="round" stroke-linejoin="round"/> <path d="M2 4.66992H8.67" stroke="white" stroke-width="1.41" stroke-linecap="round" stroke-linejoin="round"/> </g> <defs> <clipPath id="clip0_2085_392374"> <rect width="24" height="24" fill="white"/> </clipPath> </defs> </svg>
