<svg width="24" height="24" viewBox="0 0 24 24" fill="none" xmlns="http://www.w3.org/2000/svg"> <g clip-path="url(#clip0_2085_392560)"> <path d="M14.1399 7.73047L16.2899 8.48047" stroke="white" stroke-width="1.5" stroke-linecap="round" stroke-linejoin="round"/> <path d="M8.07995 11.1602L7.63995 11.4102L7.19995 11.1602H8.07995Z" stroke="white" stroke-width="1.5" stroke-linecap="round" stroke-linejoin="round"/> <path d="M19.9799 7.12909L18.6099 11.0491L17.8199 10.5991L16.3399 11.4091L14.8899 10.5991L13.9699 11.1091C13.9999 10.9391 14.0099 10.7691 14.0099 10.5991C14.0099 10.0591 13.8899 9.53909 13.6699 9.07909L14.1399 7.72909L14.8399 5.72909L14.9599 5.37909C15.4399 3.99909 16.9599 3.25909 18.3399 3.74909C19.7299 4.22909 20.4599 5.74909 19.9799 7.12909Z" stroke="white" stroke-width="1.5" stroke-linecap="round" stroke-linejoin="round"/> <path d="M14.8401 5.73047L16.9901 6.48047" stroke="white" stroke-width="1.5" stroke-linecap="round" stroke-linejoin="round"/> <path d="M9.86005 4.66V6.98C8.08005 7.22 6.71005 8.75 6.71005 10.6C6.71005 10.7 6.71005 10.8 6.73005 10.89L6.21005 10.6L5.18005 11.16H4.55005V4.66C4.55005 3.19 5.74005 2 7.21005 2C8.68005 2 9.86005 3.19 9.86005 4.66Z" stroke="white" stroke-width="1.5" stroke-linecap="round" stroke-linejoin="round"/> <path d="M4.55005 5.0293H6.83005" stroke="white" stroke-width="1.5" stroke-linecap="round" stroke-linejoin="round"/> <path d="M4.55005 7.15039H6.83005" stroke="white" stroke-width="1.5" stroke-linecap="round" stroke-linejoin="round"/> <path d="M14.01 10.5995C14.01 10.7695 14 10.9395 13.97 11.1095L13.44 11.4095L12.95 11.1395L11.99 10.5995L10.53 11.4095L9.85996 11.0395L9.06996 10.5995L8.07996 11.1595H7.19996L6.72996 10.8895C6.70996 10.7995 6.70996 10.6995 6.70996 10.5995C6.70996 8.74945 8.07996 7.21945 9.85996 6.97945C10.02 6.94945 10.19 6.93945 10.36 6.93945C11.84 6.93945 13.1 7.81945 13.67 9.07945C13.89 9.53945 14.01 10.0595 14.01 10.5995Z" stroke="white" stroke-width="1.5" stroke-linecap="round" stroke-linejoin="round"/> <path d="M20.67 14.25V20C20.67 21.1 19.77 22 18.67 22H5.26001C4.16001 22 3.26001 21.1 3.26001 20V14.25" stroke="white" stroke-width="1.5" stroke-linecap="round" stroke-linejoin="round"/> <path opacity="0.4" d="M20.67 10.5996V14.2496H3.26001V10.5996L4.72001 11.4096L5.18001 11.1596L6.21001 10.5996L6.73001 10.8896L7.20001 11.1596L7.64001 11.4096L8.08001 11.1596L9.07001 10.5996L9.86001 11.0396L10.53 11.4096L11.99 10.5996L12.95 11.1396L13.44 11.4096L13.97 11.1096L14.89 10.5996L16.34 11.4096L17.82 10.5996L18.61 11.0496L19.24 11.4096L20.67 10.5996Z" stroke="white" stroke-width="1.5" stroke-linecap="round" stroke-linejoin="round"/> </g> <defs> <clipPath id="clip0_2085_392560"> <rect width="24" height="24" fill="white"/> </clipPath> </defs> </svg>
