<svg width="24" height="24" viewBox="0 0 24 24" fill="none" xmlns="http://www.w3.org/2000/svg"> <g clip-path="url(#clip0_4482_11239)"> <path d="M10.21 8.12012L15.88 13.7901" stroke="white" stroke-width="1.5" stroke-linecap="round" stroke-linejoin="round"/> <path d="M11.4403 14.9302L11.9203 15.4102C12.5703 16.0602 13.6303 16.0602 14.2803 15.4102L17.8003 11.8902C18.0103 11.6802 18.1203 11.4102 18.1203 11.1202C18.1203 10.8302 18.0003 10.5502 17.8003 10.3502L13.6803 6.23016C13.4703 6.03016 13.2003 5.91016 12.9103 5.91016C12.6203 5.91016 12.3403 6.03016 12.1403 6.23016L8.62027 9.75016C7.97027 10.4002 7.97027 11.4602 8.62027 12.1102L9.10027 12.5902L7.51027 14.1702C7.09027 14.5902 6.92027 15.2102 7.07027 15.7902C7.22027 16.3702 7.68027 16.8202 8.25027 16.9702C8.83027 17.1202 9.44027 16.9602 9.87027 16.5302L11.4603 14.9402L11.4403 14.9302Z" stroke="white" stroke-width="1.5" stroke-linecap="round" stroke-linejoin="round"/> <path opacity="0.4" d="M12 22C17.5228 22 22 17.5228 22 12C22 6.47715 17.5228 2 12 2C6.47715 2 2 6.47715 2 12C2 17.5228 6.47715 22 12 22Z" stroke="white" stroke-width="1.5" stroke-linecap="round" stroke-linejoin="round"/> </g> <defs> <clipPath id="clip0_4482_11239"> <rect width="24" height="24" fill="white"/> </clipPath> </defs> </svg>
