<svg width="24" height="24" viewBox="0 0 24 24" fill="none" xmlns="http://www.w3.org/2000/svg"> <g clip-path="url(#clip0_2085_390023)"> <path d="M2.40996 4.02047C2.05996 4.41047 2.05996 4.99047 2.40996 5.38047C3.12996 6.18047 4.43996 7.40047 5.75996 7.40047C7.24996 7.40047 8.46996 6.19047 8.46996 4.69047C8.46996 3.19047 7.25996 1.98047 5.75996 1.98047C4.44996 1.98047 3.12996 3.20047 2.40996 4.00047V4.02047Z" stroke="white" stroke-width="1.41" stroke-linecap="round" stroke-linejoin="round"/> <path d="M8.45996 4.71094H10.64" stroke="white" stroke-width="1.41" stroke-linecap="round" stroke-linejoin="round"/> <path opacity="0.4" d="M10.6399 7.41V2" stroke="white" stroke-width="1.41" stroke-linecap="round" stroke-linejoin="round"/> <path d="M11.3201 4.71C11.3201 4.71 12.6701 2 16.0601 2C20.8001 2 22.1501 8.09 22.1501 13.5L20.8001 12.15L19.4501 13.5L18.1001 12.15L16.7501 13.5L15.4001 12.15L14.0501 13.5C14.0501 4.7 11.3401 4.7 11.3401 4.7L11.3201 4.71Z" stroke="white" stroke-width="1.41" stroke-linecap="round" stroke-linejoin="round"/> <path opacity="0.4" d="M22.15 13.5004L20.8 12.1504L19.45 13.5004L18.1 12.1504L16.75 13.5004L15.4 12.1504L14.05 13.5004C14.05 17.9804 16.25 20.6304 17.41 21.7204C17.81 22.0904 18.41 22.0904 18.8 21.7204C19.96 20.6304 22.16 17.9804 22.16 13.5004H22.15Z" stroke="white" stroke-width="1.41" stroke-linecap="round" stroke-linejoin="round"/> </g> <defs> <clipPath id="clip0_2085_390023"> <rect width="24" height="24" fill="white"/> </clipPath> </defs> </svg>
