<svg width="24" height="24" viewBox="0 0 24 24" fill="none" xmlns="http://www.w3.org/2000/svg"> <g clip-path="url(#clip0_4482_14083)"> <path opacity="0.4" d="M3.03027 9.84961H21.2603" stroke="white" stroke-width="1.5" stroke-linecap="round" stroke-linejoin="round"/> <g opacity="0.4"> <path d="M13.3896 13.3896C14.4596 13.3896 15.1796 14.3296 15.1796 15.2096C15.1796 16.9896 12.1996 18.4496 12.1396 18.4496" stroke="white" stroke-width="1.5" stroke-linecap="round" stroke-linejoin="round"/> <path d="M10.8896 13.3896C9.81961 13.3896 9.09961 14.3296 9.09961 15.2096C9.09961 16.9896 12.0796 18.4496 12.1396 18.4496" stroke="white" stroke-width="1.5" stroke-linecap="round" stroke-linejoin="round"/> <path d="M12.1396 13.9296C12.3696 13.6696 12.7696 13.3896 13.3896 13.3896" stroke="white" stroke-width="1.5" stroke-linecap="round" stroke-linejoin="round"/> <path d="M12.1396 13.9296C11.9096 13.6696 11.5096 13.3896 10.8896 13.3896" stroke="white" stroke-width="1.5" stroke-linecap="round" stroke-linejoin="round"/> </g> <path d="M17.4495 21.9998H6.54953C4.46953 21.9998 2.76953 20.2898 2.76953 18.2198V9.11984C2.76953 7.03984 4.47953 5.33984 6.54953 5.33984H17.4495C19.5295 5.33984 21.2295 7.03984 21.2295 9.11984V18.2198C21.2295 20.2998 19.5195 21.9998 17.4495 21.9998Z" stroke="white" stroke-width="1.5" stroke-miterlimit="10" stroke-linecap="round"/> <path d="M16.9893 2L17.5493 5.33" stroke="white" stroke-width="1.5" stroke-miterlimit="10" stroke-linecap="round"/> <path d="M6.97945 2L6.43945 5.33" stroke="white" stroke-width="1.5" stroke-miterlimit="10" stroke-linecap="round"/> </g> <defs> <clipPath id="clip0_4482_14083"> <rect width="24" height="24" fill="white"/> </clipPath> </defs> </svg>
