<svg width="24" height="24" viewBox="0 0 24 24" fill="none" xmlns="http://www.w3.org/2000/svg"> <g clip-path="url(#clip0_655_9542)"> <path d="M15.8899 5H8.10992C5.65992 5 3.66992 6.99 3.66992 9.44V17.55C3.66992 20 5.65992 21.99 8.10992 21.99H15.8899C18.3399 21.99 20.3299 20 20.3299 17.55V9.44C20.3299 6.99 18.3399 5 15.8899 5Z" stroke="white" stroke-width="1.5" stroke-miterlimit="10" stroke-linecap="round"/> <path opacity="0.4" d="M8.03906 2L7.03906 5" stroke="white" stroke-width="1.5" stroke-miterlimit="10" stroke-linecap="round"/> <path opacity="0.4" d="M15.9609 2L16.9609 5" stroke="white" stroke-width="1.5" stroke-miterlimit="10" stroke-linecap="round"/> <path d="M12 12V19.21" stroke="white" stroke-linecap="round" stroke-linejoin="round"/> <path d="M8.40039 15.61H15.6104" stroke="white" stroke-linecap="round" stroke-linejoin="round"/> <path d="M10.6504 12.91L12.0004 13.81L13.3504 12.91" stroke="white" stroke-linecap="round" stroke-linejoin="round"/> <path d="M13.3504 18.31L12.0004 17.41L10.6504 18.31" stroke="white" stroke-linecap="round" stroke-linejoin="round"/> <path d="M14.7008 14.26L13.8008 15.61L14.7008 16.96" stroke="white" stroke-linecap="round" stroke-linejoin="round"/> <path d="M9.31055 16.96L10.2105 15.61L9.31055 14.26" stroke="white" stroke-linecap="round" stroke-linejoin="round"/> <path opacity="0.4" d="M4 10H20" stroke="white" stroke-width="1.5" stroke-linecap="round" stroke-linejoin="round"/> </g> <defs> <clipPath id="clip0_655_9542"> <rect width="24" height="24" fill="white"/> </clipPath> </defs> </svg>
