<svg width="24" height="24" viewBox="0 0 24 24" fill="none" xmlns="http://www.w3.org/2000/svg"> <g clip-path="url(#clip0_4482_15477)"> <path d="M14.9196 12.2598L15.5896 11.5898C16.1896 13.0098 15.9196 14.7098 14.7596 15.8698C13.8296 16.7998 12.5496 17.1498 11.3496 16.9398" stroke="white" stroke-width="1.5" stroke-linecap="round" stroke-linejoin="round"/> <path d="M9.08012 13.96L8.41012 14.63C7.81012 13.21 8.08012 11.51 9.24012 10.35C10.2301 9.35998 11.6101 9.02998 12.8701 9.31998" stroke="white" stroke-width="1.5" stroke-linecap="round" stroke-linejoin="round"/> <path opacity="0.4" d="M22.0597 9.67023V17.5702C22.0597 19.4002 20.5797 20.8902 18.7397 20.8902H5.24969C3.41969 20.8902 1.92969 19.4102 1.92969 17.5702V9.67023C1.92969 7.84023 3.40969 6.35023 5.24969 6.35023C5.96969 6.35023 6.62969 5.97023 6.98969 5.35023L7.77969 3.99023C8.13969 3.37023 8.79969 2.99023 9.51969 2.99023H14.4297C15.1397 2.99023 15.7897 3.36023 16.1497 3.97023L16.9897 5.37023C17.3497 5.98023 18.0097 6.35023 18.7097 6.35023H18.7297C20.5597 6.35023 22.0497 7.83023 22.0497 9.67023H22.0597Z" stroke="white" stroke-width="1.5" stroke-linecap="round" stroke-linejoin="round"/> </g> <defs> <clipPath id="clip0_4482_15477"> <rect width="24" height="24" fill="white"/> </clipPath> </defs> </svg>
