<svg width="24" height="24" viewBox="0 0 24 24" fill="none" xmlns="http://www.w3.org/2000/svg"> <g clip-path="url(#clip0_2085_384869)"> <path opacity="0.4" d="M8.10997 9.64009C6.56997 9.02009 4.64997 8.61009 2.46997 8.95009C3.22997 6.56009 4.86997 4.57009 6.99997 3.34009C8.75997 4.36009 10.18 5.89009 11.05 7.74009" stroke="white" stroke-width="1.5" stroke-linecap="round" stroke-linejoin="round"/> <path opacity="0.4" d="M9.88008 15.89C9.24008 17.48 8.75008 19.43 8.95008 21.53C6.56008 20.77 4.57008 19.13 3.33008 17C4.34008 15.25 5.86008 13.84 7.69008 12.97" stroke="white" stroke-width="1.5" stroke-linecap="round" stroke-linejoin="round"/> <path opacity="0.4" d="M12.98 16.33C13.85 18.15 15.26 19.66 17 20.67C19.13 19.44 20.77 17.44 21.53 15.06C19.29 15.24 17.39 14.83 15.89 14.26" stroke="white" stroke-width="1.5" stroke-linecap="round" stroke-linejoin="round"/> <path opacity="0.4" d="M14.3401 8.23997C14.8701 6.78997 15.2301 4.88997 15.0501 2.46997C17.4401 3.22997 19.4301 4.86997 20.6701 6.99997C19.6601 8.73997 18.1501 10.15 16.3301 11.02" stroke="white" stroke-width="1.5" stroke-linecap="round" stroke-linejoin="round"/> <path d="M12 16C14.2091 16 16 14.2091 16 12C16 9.79086 14.2091 8 12 8C9.79086 8 8 9.79086 8 12C8 14.2091 9.79086 16 12 16Z" stroke="white" stroke-width="1.5" stroke-miterlimit="10"/> <path d="M12 22C17.5228 22 22 17.5228 22 12C22 6.47715 17.5228 2 12 2C6.47715 2 2 6.47715 2 12C2 17.5228 6.47715 22 12 22Z" stroke="white" stroke-width="1.5" stroke-miterlimit="10"/> </g> <defs> <clipPath id="clip0_2085_384869"> <rect width="24" height="24" fill="white"/> </clipPath> </defs> </svg>
