<svg width="24" height="24" viewBox="0 0 24 24" fill="none" xmlns="http://www.w3.org/2000/svg"> <g clip-path="url(#clip0_2085_390027)"> <path d="M21.0099 4.74043C20.8499 4.95043 20.7399 5.16043 20.7399 5.42043C20.7399 6.27043 21.9799 6.79043 21.9799 7.64043C21.9799 8.49043 20.7399 8.97043 20.7399 9.82043C20.7399 10.6704 21.9799 11.1504 21.9799 12.0004C21.9799 12.8504 20.7399 13.3304 20.7399 14.1804C20.7399 15.0304 21.9799 15.5104 21.9799 16.3604C21.9799 17.2104 20.7399 17.7304 20.7399 18.5804C20.7399 18.8404 20.8599 19.0604 21.0199 19.2804L21.6199 19.8804C22.1099 20.3704 22.1099 21.1504 21.6199 21.6404C21.1299 22.1304 20.3499 22.1304 19.8599 21.6404L19.2499 21.0304C19.0399 20.8704 18.8199 20.7604 18.5599 20.7604C17.7099 20.7604 17.1899 22.0004 16.3399 22.0004C15.4899 22.0004 15.0099 20.7604 14.1599 20.7604C13.3099 20.7604 12.8299 22.0004 11.9799 22.0004C11.1299 22.0004 10.6499 20.7604 9.79991 20.7604C8.94991 20.7604 8.46991 22.0004 7.61991 22.0004C6.76991 22.0004 6.24991 20.7604 5.39991 20.7604C5.13991 20.7604 4.91991 20.8804 4.69991 21.0404L4.09991 21.6404C3.60991 22.1304 2.82991 22.1304 2.33991 21.6404C1.84991 21.1504 1.84991 20.3704 2.33991 19.8804L2.93991 19.2804C3.09991 19.0704 3.21991 18.8404 3.21991 18.5804C3.21991 17.7304 1.97991 17.2104 1.97991 16.3604C1.97991 15.5104 3.21991 15.0304 3.21991 14.1804C3.21991 13.3304 1.97991 12.8504 1.97991 12.0004C1.97991 11.1504 3.21991 10.6704 3.21991 9.82043C3.21991 8.97043 1.97991 8.49043 1.97991 7.64043C1.97991 6.79043 3.21991 6.27043 3.21991 5.42043C3.21991 5.16043 3.10991 4.94043 2.94991 4.73043L2.34991 4.13043C1.85991 3.64043 1.85991 2.86043 2.34991 2.37043C2.83991 1.88043 3.61991 1.88043 4.10991 2.37043L4.70991 2.97043C4.91991 3.13043 5.14991 3.25043 5.40991 3.25043C6.25991 3.25043 6.77991 2.01043 7.62991 2.01043C8.47991 2.01043 8.95991 3.25043 9.80991 3.25043C10.6599 3.25043 11.1399 2.01043 11.9899 2.01043C12.8399 2.01043 13.3199 3.25043 14.1699 3.25043C15.0199 3.25043 15.4999 2.01043 16.3499 2.01043C17.1999 2.01043 17.7199 3.25043 18.5699 3.25043C18.8299 3.25043 19.0499 3.14043 19.2599 2.98043L19.8699 2.38043C20.3599 1.89043 21.1399 1.89043 21.6299 2.38043C22.1199 2.87043 22.1199 3.65043 21.6299 4.14043L21.0199 4.75043L21.0099 4.74043Z" stroke="white" stroke-width="1.41" stroke-linecap="round" stroke-linejoin="round"/> <path opacity="0.4" d="M18.26 12.0003C18.26 15.4403 15.43 18.2603 12 18.2603C8.56999 18.2603 5.73999 15.4303 5.73999 12.0003C5.73999 8.57027 8.56999 5.78027 12 5.78027C15.43 5.78027 18.26 8.57027 18.26 12.0003Z" stroke="white" stroke-width="1.41" stroke-linecap="round" stroke-linejoin="round"/> <path opacity="0.4" d="M10.4499 9.51074C11.6199 9.51074 11.9899 10.8507 11.9899 10.8507C11.9899 10.8507 12.3599 9.51074 13.5299 9.51074C14.4399 9.51074 15.0699 10.2807 15.0699 11.1907C15.0699 11.9207 14.6399 12.5107 13.9299 13.1907C13.4199 13.6807 12.7499 14.2107 11.9899 14.8707C10.1599 13.2807 8.8999 12.4507 8.8999 11.2007C8.8999 10.2907 9.5299 9.52074 10.4399 9.52074L10.4499 9.51074Z" stroke="white" stroke-width="1.41" stroke-linecap="round" stroke-linejoin="round"/> </g> <defs> <clipPath id="clip0_2085_390027"> <rect width="24" height="24" fill="white"/> </clipPath> </defs> </svg>
