<svg width="24" height="24" viewBox="0 0 24 24" fill="none" xmlns="http://www.w3.org/2000/svg"> <g clip-path="url(#clip0_2085_392004)"> <path d="M17.21 2H6.43998C6.16998 2 5.91998 2.11 5.72998 2.29L4.51998 3.5C4.32998 3.69 4.22998 3.94 4.22998 4.21V19.8C4.22998 20.07 4.33998 20.32 4.51998 20.51L5.72998 21.72C5.91998 21.91 6.16998 22.01 6.43998 22.01H17.22C17.49 22.01 17.74 21.9 17.93 21.72L19.14 20.51C19.33 20.32 19.43 20.07 19.43 19.8V4.21C19.43 3.94 19.32 3.69 19.14 3.5L17.93 2.29C17.74 2.1 17.49 2 17.22 2H17.21Z" stroke="white" stroke-width="1.5" stroke-linecap="round" stroke-linejoin="round"/> <path d="M16.3401 19.5101V17.0801" stroke="white" stroke-width="1.5" stroke-linecap="round" stroke-linejoin="round"/> <path opacity="0.4" d="M14.31 9.77043C13.62 9.08043 12.51 9.08043 11.82 9.77043C11.13 9.08043 10.02 9.08043 9.33 9.77043C8.64 10.4604 8.64 11.5704 9.33 12.2604L11.82 14.7504L14.31 12.2604C15 11.5704 15 10.4604 14.31 9.77043Z" stroke="white" stroke-width="1.5" stroke-linecap="round" stroke-linejoin="round"/> <path d="M7.31006 6.93V4.5" stroke="white" stroke-width="1.5" stroke-linecap="round" stroke-linejoin="round"/> </g> <defs> <clipPath id="clip0_2085_392004"> <rect width="24" height="24" fill="white"/> </clipPath> </defs> </svg>
