<svg width="24" height="24" viewBox="0 0 24 24" fill="none" xmlns="http://www.w3.org/2000/svg"> <g clip-path="url(#clip0_2085_384845)"> <path d="M1.94993 20.5301C1.54993 21.4601 2.47993 22.4101 3.38993 22.0001L17.6599 14.5901C18.3999 14.2101 18.8199 13.4001 18.7299 12.5801C18.3299 9.18005 16.2499 4.86005 10.1399 4.77005C9.33993 4.76005 8.60993 5.24005 8.28993 5.98005L1.94993 20.5301Z" stroke="white" stroke-width="1.5" stroke-linejoin="round"/> <path opacity="0.4" d="M7.25 8.93005L9.71 10.8201" stroke="white" stroke-width="1.5" stroke-linecap="round"/> <path opacity="0.4" d="M5.36011 13.74L8.58011 16.2" stroke="white" stroke-width="1.5" stroke-linecap="round"/> <path opacity="0.4" d="M11.01 14.7L13.62 16.69" stroke="white" stroke-width="1.5" stroke-linecap="round"/> <path opacity="0.4" d="M7.25 18.54L8.2 19.27" stroke="white" stroke-width="1.5" stroke-linecap="round"/> <g opacity="0.4"> <path d="M20.69 3.25L16.99 6.08" stroke="white" stroke-width="1.5" stroke-linecap="round"/> <path d="M16.5901 6.45C16.7601 5.34 16.5901 3.12 15.5601 2" stroke="white" stroke-width="1.5" stroke-linecap="round"/> <path d="M22.0001 8.70006C21.0501 7.84006 18.8201 6.66006 17.1001 7.06006" stroke="white" stroke-width="1.5" stroke-linecap="round"/> </g> </g> <defs> <clipPath id="clip0_2085_384845"> <rect width="24" height="24" fill="white"/> </clipPath> </defs> </svg>
