<svg width="24" height="24" viewBox="0 0 24 24" fill="none" xmlns="http://www.w3.org/2000/svg"> <g clip-path="url(#clip0_2085_384923)"> <path d="M18.95 2H5.05005C4.22005 2 3.55005 2.67 3.55005 3.5C3.55005 4.33 4.22005 5 5.05005 5H18.94C19.77 5 20.4401 4.33 20.4401 3.5C20.4401 2.67 19.77 2 18.94 2H18.95Z" stroke="white" stroke-width="1.5" stroke-linecap="round" stroke-linejoin="round"/> <path d="M18.95 18.99H5.05005C4.22005 18.99 3.55005 19.66 3.55005 20.49C3.55005 21.32 4.22005 21.99 5.05005 21.99H18.94C19.77 21.99 20.4401 21.32 20.4401 20.49C20.4401 19.66 19.77 18.99 18.94 18.99H18.95Z" stroke="white" stroke-width="1.5" stroke-linecap="round" stroke-linejoin="round"/> <path d="M14.9001 5.01001H9.11011V19H14.9001V5.01001Z" stroke="white" stroke-width="1.5" stroke-linecap="round" stroke-linejoin="round"/> <path opacity="0.4" d="M14.9001 5.01001L9.11011 10.58" stroke="white" stroke-width="1.5" stroke-linecap="round" stroke-linejoin="round"/> <path opacity="0.4" d="M14.9001 13.3701L9.11011 18.9401" stroke="white" stroke-width="1.5" stroke-linecap="round" stroke-linejoin="round"/> <path opacity="0.4" d="M14.9001 9.18994L9.11011 14.7599" stroke="white" stroke-width="1.5" stroke-linecap="round" stroke-linejoin="round"/> <path opacity="0.4" d="M6.01001 5.01001V10.12" stroke="white" stroke-width="1.5" stroke-linecap="round" stroke-linejoin="round"/> <path d="M6.01004 13.5499C6.96004 13.5499 7.73004 12.7799 7.73004 11.8399C7.73004 10.8999 6.96004 10.1299 6.01004 10.1299C5.06004 10.1299 4.29004 10.8999 4.29004 11.8399C4.29004 12.7799 5.06004 13.5499 6.01004 13.5499Z" stroke="white" stroke-width="1.5" stroke-linecap="round" stroke-linejoin="round"/> </g> <defs> <clipPath id="clip0_2085_384923"> <rect width="24" height="24" fill="white"/> </clipPath> </defs> </svg>
