<svg width="24" height="24" viewBox="0 0 24 24" fill="none" xmlns="http://www.w3.org/2000/svg"> <g clip-path="url(#clip0_4418_6478)"> <path opacity="0.4" d="M16.3301 15.2808C15.3401 16.5908 13.7601 17.4308 12.0001 17.4308C9.00006 17.4308 6.56006 15.0008 6.56006 11.9908C6.56006 8.98078 8.99006 6.55078 12.0001 6.55078C13.2301 6.55078 14.3601 6.96078 15.2701 7.64078" stroke="white" stroke-width="1.5" stroke-miterlimit="10" stroke-linecap="round" stroke-linejoin="round"/> <path opacity="0.4" d="M17.42 11.34C18.0662 11.34 18.59 10.8162 18.59 10.17C18.59 9.52382 18.0662 9 17.42 9C16.7738 9 16.25 9.52382 16.25 10.17C16.25 10.8162 16.7738 11.34 17.42 11.34Z" stroke="white" stroke-width="1.5" stroke-miterlimit="10" stroke-linecap="round" stroke-linejoin="round"/> <path d="M12 22C17.5228 22 22 17.5228 22 12C22 6.47715 17.5228 2 12 2C6.47715 2 2 6.47715 2 12C2 17.5228 6.47715 22 12 22Z" stroke="white" stroke-width="1.5" stroke-miterlimit="10" stroke-linecap="round" stroke-linejoin="round"/> </g> <defs> <clipPath id="clip0_4418_6478"> <rect width="24" height="24" fill="white"/> </clipPath> </defs> </svg>
