<svg width="24" height="24" viewBox="0 0 24 24" fill="none" xmlns="http://www.w3.org/2000/svg"> <g clip-path="url(#clip0_4482_8446)"> <path opacity="0.4" d="M12 22H7.56C4.49 22 2 19.51 2 16.44V7.56C2 4.49 4.49 2 7.56 2H16.45C19.52 2 22.01 4.49 22.01 7.56V13.12" stroke="white" stroke-width="1.5" stroke-linecap="round" stroke-linejoin="round"/> <path d="M13.1801 8.05003L15.9601 10.83C16.2701 11.14 16.4401 11.56 16.4401 12C16.4401 12.44 16.2701 12.86 15.9601 13.17L13.1801 15.96C12.8701 16.27 12.4501 16.44 12.0101 16.44C11.5701 16.44 11.1501 16.27 10.8401 15.96L8.06008 13.17C7.75008 12.86 7.58008 12.44 7.58008 12C7.58008 11.56 7.75008 11.14 8.06008 10.83L10.8401 8.04003C11.1501 7.73003 11.5701 7.55003 12.0201 7.56003C12.4701 7.57003 12.8801 7.74003 13.1901 8.05003H13.1801Z" stroke="white" stroke-width="1.5" stroke-linecap="round" stroke-linejoin="round"/> <path d="M20.8904 18.11L18.1104 20.89L16.4404 19.22" stroke="white" stroke-width="1.5" stroke-linecap="round" stroke-linejoin="round"/> </g> <defs> <clipPath id="clip0_4482_8446"> <rect width="24" height="24" fill="white"/> </clipPath> </defs> </svg>
