<svg width="24" height="24" viewBox="0 0 24 24" fill="none" xmlns="http://www.w3.org/2000/svg"> <g clip-path="url(#clip0_2085_385193)"> <path d="M17.1301 2.89867H6.88006C6.22006 3.55867 4.46006 4.18867 3.06006 4.18867C4.06006 4.68867 4.67006 5.45867 7.18006 5.45867H16.8401C19.3601 5.45867 19.9901 4.67867 20.9901 4.16867C19.5701 4.16867 17.8101 3.56867 17.1401 2.88867L17.1301 2.89867Z" stroke="white" stroke-width="1.5" stroke-linecap="round" stroke-linejoin="round"/> <path d="M20.97 17.0886V9.30859H13.28" stroke="white" stroke-width="1.5" stroke-linecap="round" stroke-linejoin="round"/> <path d="M10.72 9.30859H2.97998V17.0886" stroke="white" stroke-width="1.5" stroke-linecap="round" stroke-linejoin="round"/> <path d="M2.97998 8.0293V9.3093" stroke="white" stroke-width="1.5" stroke-linecap="round" stroke-linejoin="round"/> <path d="M20.97 8.0293V9.3093" stroke="white" stroke-width="1.5" stroke-linecap="round" stroke-linejoin="round"/> <path d="M5.58984 5.33008V9.31008" stroke="white" stroke-width="1.5" stroke-linecap="round" stroke-linejoin="round"/> <path opacity="0.4" d="M8.1499 5.46875V9.31875" stroke="white" stroke-width="1.5" stroke-linecap="round" stroke-linejoin="round"/> <path opacity="0.4" d="M15.8499 5.46875V9.31875" stroke="white" stroke-width="1.5" stroke-linecap="round" stroke-linejoin="round"/> <path d="M18.4099 5.33008V9.31008" stroke="white" stroke-width="1.5" stroke-linecap="round" stroke-linejoin="round"/> <path d="M6.86987 1.61914V2.89914" stroke="white" stroke-width="1.5" stroke-linecap="round" stroke-linejoin="round"/> <path d="M17.1299 1.61914V2.89914" stroke="white" stroke-width="1.5" stroke-linecap="round" stroke-linejoin="round"/> <path d="M13.28 10.5893H10.72V8.0293H13.28V10.5893Z" stroke="white" stroke-width="1.5" stroke-linecap="round" stroke-linejoin="round"/> <path opacity="0.4" d="M10.72 17.0882V14.4382C10.72 13.7282 11.29 13.1582 12 13.1582C12.71 13.1582 13.28 13.7282 13.28 14.4382V17.0882" stroke="white" stroke-width="1.5" stroke-linecap="round" stroke-linejoin="round"/> <path opacity="0.4" d="M5.58984 17.0888V15.0788C5.58984 14.3688 6.15984 13.7988 6.86984 13.7988C7.57984 13.7988 8.14984 14.3688 8.14984 15.0788V17.0888" stroke="white" stroke-width="1.5" stroke-linecap="round" stroke-linejoin="round"/> <path opacity="0.4" d="M15.8499 17.0888V15.0788C15.8499 14.3688 16.4199 13.7988 17.1299 13.7988C17.8399 13.7988 18.4099 14.3688 18.4099 15.0788V17.0888" stroke="white" stroke-width="1.5" stroke-linecap="round" stroke-linejoin="round"/> <path d="M20.97 19.6498V17.0898H2.97998V19.6498" stroke="white" stroke-width="1.5" stroke-linecap="round" stroke-linejoin="round"/> <path d="M10.08 19.6484H1.69995V22.2084H22.29V19.6484H13.92" stroke="white" stroke-width="1.5" stroke-linecap="round" stroke-linejoin="round"/> <path d="M13.2799 17.0898H10.7199L9.43994 22.2198H14.5699L13.2899 17.0898H13.2799Z" stroke="white" stroke-width="1.5" stroke-linecap="round" stroke-linejoin="round"/> </g> <defs> <clipPath id="clip0_2085_385193"> <rect width="24" height="24" fill="white"/> </clipPath> </defs> </svg>
