<svg width="24" height="24" viewBox="0 0 24 24" fill="none" xmlns="http://www.w3.org/2000/svg"> <g clip-path="url(#clip0_2085_385201)"> <path d="M14.49 17.0996H22V22.0796H9.51001" stroke="white" stroke-width="1.5" stroke-linecap="round" stroke-linejoin="round"/> <path d="M22 13.3691C22 14.0591 21.44 14.6091 20.76 14.6091H14.49" stroke="white" stroke-width="1.5" stroke-linecap="round" stroke-linejoin="round"/> <path d="M20.71 9.58984C20.71 10.2798 20.15 10.8398 19.46 10.8398H14.48" stroke="white" stroke-width="1.5" stroke-linecap="round" stroke-linejoin="round"/> <path d="M19.47 5.85938C19.47 6.54937 18.91 7.09937 18.23 7.09937H14.5" stroke="white" stroke-width="1.5" stroke-linecap="round" stroke-linejoin="round"/> <path d="M18.22 2.08008C18.22 2.77008 17.66 3.32008 16.98 3.32008H14.49V19.5901" stroke="white" stroke-width="1.5" stroke-linecap="round" stroke-linejoin="round"/> <path opacity="0.4" d="M20.76 14.6094V17.0994" stroke="white" stroke-width="1.5" stroke-linecap="round" stroke-linejoin="round"/> <path opacity="0.4" d="M19.47 10.8398V14.6198" stroke="white" stroke-width="1.5" stroke-linecap="round" stroke-linejoin="round"/> <path opacity="0.4" d="M18.22 7.09961V10.8296" stroke="white" stroke-width="1.5" stroke-linecap="round" stroke-linejoin="round"/> <path opacity="0.4" d="M16.98 3.33008V7.11008" stroke="white" stroke-width="1.5" stroke-linecap="round" stroke-linejoin="round"/> <path d="M9.51 17.0996H2V22.0796H9.51" stroke="white" stroke-width="1.5" stroke-linecap="round" stroke-linejoin="round"/> <path d="M2 13.3691C2 14.0591 2.56 14.6091 3.24 14.6091H9.51" stroke="white" stroke-width="1.5" stroke-linecap="round" stroke-linejoin="round"/> <path d="M3.29004 9.58984C3.29004 10.2798 3.85004 10.8398 4.53004 10.8398H9.51004" stroke="white" stroke-width="1.5" stroke-linecap="round" stroke-linejoin="round"/> <path d="M4.53003 5.85938C4.53003 6.54937 5.09003 7.09937 5.78003 7.09937H9.51003" stroke="white" stroke-width="1.5" stroke-linecap="round" stroke-linejoin="round"/> <path d="M5.78 2.08008C5.78 2.77008 6.34 3.32008 7.02 3.32008H9.51V19.5901H2" stroke="white" stroke-width="1.5" stroke-linecap="round" stroke-linejoin="round"/> <path opacity="0.4" d="M3.23999 14.6094V17.0994" stroke="white" stroke-width="1.5" stroke-linecap="round" stroke-linejoin="round"/> <path opacity="0.4" d="M4.53003 10.8398V14.6198" stroke="white" stroke-width="1.5" stroke-linecap="round" stroke-linejoin="round"/> <path opacity="0.4" d="M5.78003 7.09961V10.8296" stroke="white" stroke-width="1.5" stroke-linecap="round" stroke-linejoin="round"/> <path opacity="0.4" d="M7.02002 3.33008V7.11008" stroke="white" stroke-width="1.5" stroke-linecap="round" stroke-linejoin="round"/> <path d="M9.51001 19.5898H22" stroke="white" stroke-width="1.5" stroke-linecap="round" stroke-linejoin="round"/> </g> <defs> <clipPath id="clip0_2085_385201"> <rect width="24" height="24" fill="white"/> </clipPath> </defs> </svg>
