<svg width="24" height="24" viewBox="0 0 24 24" fill="none" xmlns="http://www.w3.org/2000/svg"> <g clip-path="url(#clip0_2085_392243)"> <path d="M8.26987 5.32H4.11987V4C4.11987 2.9 5.01987 2 6.11987 2H8.26987V5.32Z" stroke="white" stroke-width="1.5" stroke-linecap="round" stroke-linejoin="round"/> <path d="M12.42 5.32H8.27002V2H12.42V5.32Z" stroke="white" stroke-width="1.5" stroke-linecap="round" stroke-linejoin="round"/> <path d="M16.5699 5.32H12.4199V2H14.5699C15.6699 2 16.5699 2.9 16.5699 4V5.32Z" stroke="white" stroke-width="1.5" stroke-linecap="round" stroke-linejoin="round"/> <path d="M12.4199 7.81031V5.32031H16.5699V7.81031" stroke="white" stroke-width="1.5" stroke-linecap="round" stroke-linejoin="round"/> <path d="M12.7399 15.3203H16.9899V17.8103H11.6599" stroke="white" stroke-width="1.5" stroke-linecap="round" stroke-linejoin="round"/> <path d="M7.94995 15.3203H3.69995V17.8103H9.02995" stroke="white" stroke-width="1.5" stroke-linecap="round" stroke-linejoin="round"/> <path opacity="0.4" d="M11.4099 14.4297C10.9799 14.4297 10.5999 14.6197 10.3399 14.9197C10.0799 14.6197 9.69985 14.4297 9.26985 14.4297C8.47985 14.4297 7.84985 15.0697 7.84985 15.8497C7.84985 17.4197 10.3399 18.6997 10.3399 18.6997C10.3399 18.6997 12.8299 17.4297 12.8299 15.8497C12.8299 15.0597 12.1899 14.4297 11.4099 14.4297Z" stroke="white" stroke-width="1.5" stroke-linecap="round" stroke-linejoin="round"/> <path d="M8.27002 7.81031V5.32031H12.42V7.81031" stroke="white" stroke-width="1.5" stroke-linecap="round" stroke-linejoin="round"/> <path d="M8.26987 7.81031V5.32031H4.11987V8.64031H7.01987" stroke="white" stroke-width="1.5" stroke-linecap="round" stroke-linejoin="round"/> <path d="M16.98 11.1297V19.9997C16.98 21.0997 16.08 21.9997 14.98 21.9997H5.69995C4.59995 21.9997 3.69995 21.0997 3.69995 19.9997V9.46973" stroke="white" stroke-width="1.5" stroke-linecap="round" stroke-linejoin="round"/> <path d="M5.35995 11.1296C4.43995 11.1296 3.69995 10.3896 3.69995 9.46965V8.63965H7.01995V9.46965C7.01995 10.3896 6.27995 11.1296 5.35995 11.1296Z" stroke="white" stroke-width="1.5" stroke-linecap="round" stroke-linejoin="round"/> <path opacity="0.4" d="M20.2999 9.46957C20.2999 10.3896 19.5599 11.1296 18.6399 11.1296H5.35986C6.27986 11.1296 7.01986 10.3896 7.01986 9.46957V7.80957H20.2999V9.46957Z" stroke="white" stroke-width="1.5" stroke-linecap="round" stroke-linejoin="round"/> </g> <defs> <clipPath id="clip0_2085_392243"> <rect width="24" height="24" fill="white"/> </clipPath> </defs> </svg>
