<svg width="24" height="24" viewBox="0 0 24 24" fill="none" xmlns="http://www.w3.org/2000/svg"> <g clip-path="url(#clip0_4482_11686)"> <path d="M19.0696 4.93006C22.9796 8.84006 22.9796 15.1701 19.0696 19.0701C15.1596 22.9801 8.82957 22.9801 4.92957 19.0701C1.01957 15.1601 1.01957 8.83006 4.92957 4.93006C8.83957 1.02006 15.1696 1.02006 19.0696 4.93006Z" stroke="white" stroke-width="1.5" stroke-linecap="round" stroke-linejoin="round"/> <path d="M15.2096 8.79008C16.9796 10.5701 16.9796 13.4401 15.2096 15.2201C13.4296 17.0001 10.5596 17.0001 8.77965 15.2201C7.00965 13.4401 7.00965 10.5701 8.77965 8.79008C10.5596 7.01008 13.4296 7.01008 15.2096 8.79008Z" stroke="white" stroke-width="1.5" stroke-linecap="round" stroke-linejoin="round"/> <path opacity="0.4" d="M15.9395 14.27L11.5195 22" stroke="white" stroke-width="1.5" stroke-linecap="round" stroke-linejoin="round"/> <path opacity="0.4" d="M3.58984 6.6001L8.06984 14.2801" stroke="white" stroke-width="1.5" stroke-linecap="round" stroke-linejoin="round"/> <path opacity="0.4" d="M12 7.45996H20.91" stroke="white" stroke-width="1.5" stroke-linecap="round" stroke-linejoin="round"/> </g> <defs> <clipPath id="clip0_4482_11686"> <rect width="24" height="24" fill="white"/> </clipPath> </defs> </svg>
