<svg width="24" height="24" viewBox="0 0 24 24" fill="none" xmlns="http://www.w3.org/2000/svg"> <g clip-path="url(#clip0_4482_2167)"> <path d="M12 22C6.5 22 2 17.5 2 12C2 6.5 6.5 2 12 2C17.5 2 22 6.5 22 12C22 17.5 17.5 22 12 22Z" stroke="white" stroke-width="1.5" stroke-linecap="round" stroke-linejoin="round"/> <g opacity="0.4"> <path d="M17.5 11C17.5 12.1 16.6 13 15.5 13C14.98 13 14.5 12.8 14.15 12.47C13.75 12.1 13.5 11.58 13.5 11C13.5 9.9 14.4 9 15.5 9C16.24 9 16.88 9.4 17.23 10C17.4 10.29 17.5 10.64 17.5 11Z" stroke="white" stroke-width="1.5" stroke-linecap="round" stroke-linejoin="round"/> <path d="M21.24 10H17.23" stroke="white" stroke-width="1.5" stroke-linecap="round" stroke-linejoin="round"/> <path d="M3.06006 15.83L7.63 10.76C8.01 10.34 8.65006 10.32 9.06006 10.71L11.84 13.35C12.22 13.71 12.83 13.71 13.22 13.35L14.15 12.47" stroke="white" stroke-width="1.5" stroke-linecap="round" stroke-linejoin="round"/> </g> </g> <defs> <clipPath id="clip0_4482_2167"> <rect width="24" height="24" fill="white"/> </clipPath> </defs> </svg>
