<svg width="24" height="24" viewBox="0 0 24 24" fill="none" xmlns="http://www.w3.org/2000/svg"> <g clip-path="url(#clip0_4482_1888)"> <path d="M12 22C6.5 22 2 17.5 2 12C2 6.5 6.5 2 12 2C17.5 2 22 6.5 22 12C22 17.5 17.5 22 12 22Z" stroke="white" stroke-width="1.5" stroke-linecap="round" stroke-linejoin="round"/> <path opacity="0.4" d="M15.03 13.31C13.22 11.59 10.81 11.59 9 13.31" stroke="white" stroke-width="1.5" stroke-linecap="round" stroke-linejoin="round"/> <path opacity="0.4" d="M5.97998 10.57C6.74998 9.82001 7.59997 9.22001 8.46997 8.82001C10.74 7.74001 13.26 7.74001 15.53 8.82001C16.42 9.24001 17.26 9.83001 18.02 10.57" stroke="white" stroke-width="1.5" stroke-linecap="round" stroke-linejoin="round"/> <path opacity="0.4" d="M11.9102 16L11.9302 15.98" stroke="white" stroke-width="2" stroke-linecap="round" stroke-linejoin="round"/> </g> <defs> <clipPath id="clip0_4482_1888"> <rect width="24" height="24" fill="white"/> </clipPath> </defs> </svg>
