<svg width="24" height="24" viewBox="0 0 24 24" fill="none" xmlns="http://www.w3.org/2000/svg"> <g clip-path="url(#clip0_4482_1915)"> <path d="M12 22C6.5 22 2 17.5 2 12C2 6.5 6.5 2 12 2C17.5 2 22 6.5 22 12C22 17.5 17.5 22 12 22Z" stroke="white" stroke-width="1.5" stroke-linecap="round" stroke-linejoin="round"/> <path opacity="0.4" d="M12.71 15.59C12.65 13.09 10.9499 11.39 8.43994 11.32" stroke="white" stroke-width="1.5" stroke-linecap="round" stroke-linejoin="round"/> <path opacity="0.4" d="M8.25 7.23999C9.32 7.25999 10.35 7.42998 11.25 7.75998C13.62 8.59998 15.4 10.39 16.24 12.75C16.57 13.67 16.75 14.69 16.76 15.75" stroke="white" stroke-width="1.5" stroke-linecap="round" stroke-linejoin="round"/> <path opacity="0.4" d="M8.61011 15.28H8.63989" stroke="white" stroke-width="2" stroke-linecap="round" stroke-linejoin="round"/> </g> <defs> <clipPath id="clip0_4482_1915"> <rect width="24" height="24" fill="white"/> </clipPath> </defs> </svg>
