<svg width="24" height="24" viewBox="0 0 24 24" fill="none" xmlns="http://www.w3.org/2000/svg"> <g clip-path="url(#clip0_4482_15090)"> <path d="M14.4496 2H9.55957C8.455 2 7.55957 2.89543 7.55957 4V4.44C7.55957 5.54457 8.455 6.44 9.55957 6.44H14.4496C15.5541 6.44 16.4496 5.54457 16.4496 4.44V4C16.4496 2.89543 15.5541 2 14.4496 2Z" stroke="white" stroke-width="1.5" stroke-linecap="round" stroke-linejoin="round"/> <path d="M16.4404 4.21973H16.8804C19.0904 4.21973 20.8804 6.00973 20.8804 8.21973V17.9997C20.8804 20.2097 19.0904 21.9997 16.8804 21.9997H7.11035C4.90035 21.9997 3.11035 20.2097 3.11035 17.9997V8.21973C3.11035 6.00973 4.90035 4.21973 7.11035 4.21973H7.55035" stroke="white" stroke-width="1.5" stroke-linecap="round" stroke-linejoin="round"/> <path opacity="0.4" d="M13.1104 17H15.3304" stroke="white" stroke-width="1.5" stroke-linecap="round" stroke-linejoin="round"/> <path opacity="0.4" d="M8.66992 11.4404L10.8899 13.6604L8.66992 15.8804" stroke="white" stroke-width="1.5" stroke-linecap="round" stroke-linejoin="round"/> </g> <defs> <clipPath id="clip0_4482_15090"> <rect width="24" height="24" fill="white"/> </clipPath> </defs> </svg>
