<svg width="24" height="24" viewBox="0 0 24 24" fill="none" xmlns="http://www.w3.org/2000/svg"> <g clip-path="url(#clip0_655_9552)"> <path d="M11.9093 4.3C11.9093 4.3 11.9293 4.26 11.9493 4.25C11.9693 4.24 11.9893 4.23 12.0093 4.23C12.0293 4.23 12.0493 4.23 12.0693 4.25C12.0893 4.26 12.0993 4.28 12.1093 4.3C12.2393 4.81 12.5093 5.27 12.8893 5.64C13.2693 6.04 13.7593 6.31 14.2893 6.44C13.9493 6.93 13.7793 7.51 13.7793 8.11C13.7793 8.71 13.9593 9.29 14.2893 9.78C13.7593 9.9 13.2693 10.17 12.8893 10.57C12.5093 10.94 12.2393 11.4 12.1093 11.91C12.1093 11.93 12.0893 11.95 12.0693 11.96C12.0493 11.97 12.0293 11.98 12.0093 11.98C11.9893 11.98 11.9693 11.98 11.9493 11.96C11.9293 11.95 11.9193 11.93 11.9093 11.91C11.7793 11.4 11.5093 10.92 11.1393 10.55C10.7593 10.17 10.2893 9.91 9.7793 9.78C10.1293 9.29 10.3193 8.7 10.3093 8.1C10.3093 7.51 10.1193 6.93 9.7793 6.44C10.2993 6.31 10.7693 6.04 11.1393 5.66C11.5193 5.28 11.7793 4.81 11.9093 4.3Z" stroke="white" stroke-width="1.5" stroke-linecap="round" stroke-linejoin="round"/> <path d="M12.0005 12.12C12.0005 12.12 11.9905 12.08 12.0005 12.06C12.0005 12.04 12.0105 12.02 12.0305 12.01C12.0405 12 12.0605 11.99 12.0805 11.98C12.1005 11.98 12.1205 11.98 12.1405 11.98C12.6005 12.25 13.1305 12.4 13.6705 12.4C14.2105 12.4 14.7305 12.26 15.2005 11.98C15.3105 12.56 15.6005 13.09 16.0205 13.51C16.4405 13.92 16.9805 14.2 17.5605 14.3C17.2705 14.77 17.1305 15.31 17.1405 15.86C17.1405 16.39 17.2905 16.91 17.5605 17.36C17.5605 17.38 17.5705 17.4 17.5605 17.42C17.5605 17.44 17.5505 17.46 17.5305 17.47C17.5205 17.48 17.5005 17.49 17.4805 17.5C17.4605 17.5 17.4405 17.5 17.4205 17.5C16.9605 17.22 16.4305 17.07 15.8905 17.07C15.3505 17.07 14.8205 17.22 14.3605 17.5C14.2505 16.91 13.9605 16.37 13.5405 15.94C13.1205 15.52 12.5705 15.23 11.9805 15.13C12.2505 14.68 12.4005 14.16 12.4005 13.63C12.4005 13.1 12.2605 12.58 11.9905 12.12H12.0005Z" stroke="white" stroke-width="1.5" stroke-linecap="round" stroke-linejoin="round"/> <path opacity="0.4" d="M12 22C17.52 22 22 17.52 22 12C22 6.48 17.52 2 12 2C6.48 2 2 6.48 2 12C2 17.52 6.48 22 12 22Z" stroke="white" stroke-width="1.5" stroke-linecap="round" stroke-linejoin="round"/> </g> <defs> <clipPath id="clip0_655_9552"> <rect width="24" height="24" fill="white"/> </clipPath> </defs> </svg>
