<svg width="24" height="24" viewBox="0 0 24 24" fill="none" xmlns="http://www.w3.org/2000/svg"> <g clip-path="url(#clip0_3111_20398)"> <path d="M18 1.25C20.6142 1.25 22.75 3.38579 22.75 6V9.5C22.75 10.3864 22.3857 11.2049 21.8008 11.79L21.7998 11.7891C21.6401 11.9582 21.4679 12.0891 21.3271 12.1865L21.293 12.209C21.2795 12.2173 21.2648 12.2253 21.25 12.2344V18C21.25 20.6142 19.1142 22.75 16.5 22.75H15.6602C15.2459 22.75 14.9102 22.4142 14.9102 22C14.9102 21.5858 15.2459 21.25 15.6602 21.25H16.5C18.2858 21.25 19.75 19.7858 19.75 18V12.7383C19.6681 12.7448 19.5849 12.75 19.5 12.75C18.4948 12.75 17.5963 12.2926 17 11.5752C16.4037 12.2926 15.5052 12.75 14.5 12.75C13.4948 12.75 12.5963 12.2926 12 11.5752C11.4037 12.2926 10.5052 12.75 9.5 12.75C8.49477 12.75 7.59627 12.2926 7 11.5752C6.40373 12.2926 5.50523 12.75 4.5 12.75C4.41513 12.75 4.33191 12.7448 4.25 12.7383V18C4.25 19.7858 5.71421 21.25 7.5 21.25H8.40039L8.47656 21.2539C8.85476 21.2923 9.15039 21.6117 9.15039 22C9.15039 22.3883 8.85476 22.7077 8.47656 22.7461L8.40039 22.75H7.5C4.88579 22.75 2.75 20.6142 2.75 18V12.2344L2.70703 12.209C2.69556 12.2019 2.68393 12.1942 2.67285 12.1865C2.33906 11.9554 2.04481 11.6612 1.81348 11.3271L1.80859 11.3193C1.45918 10.8017 1.25 10.1769 1.25 9.5V6C1.25 3.37579 3.37579 1.25 6 1.25H18ZM6 2.75C4.20421 2.75 2.75 4.20421 2.75 6V9.5C2.75 9.85986 2.85938 10.1919 3.04688 10.4727L3.14941 10.6084C3.25715 10.7372 3.38376 10.8516 3.52051 10.9473C3.64282 11.0223 3.72051 11.0683 3.7959 11.1006H3.79492C3.85296 11.1248 3.91076 11.1465 3.96875 11.165C4.06178 11.1948 4.15551 11.2142 4.25 11.2285C4.33232 11.241 4.41518 11.25 4.5 11.25C4.56032 11.25 4.61996 11.2472 4.67871 11.2412C4.91392 11.2173 5.1356 11.1469 5.33398 11.0391C5.4332 10.9851 5.52681 10.922 5.61328 10.8506C6.00226 10.5295 6.25 10.0432 6.25 9.5C6.25 9.08579 6.58579 8.75 7 8.75C7.41421 8.75 7.75 9.08579 7.75 9.5C7.75 10.4658 8.53421 11.25 9.5 11.25C10.4658 11.25 11.25 10.4658 11.25 9.5C11.25 9.08579 11.5858 8.75 12 8.75C12.4142 8.75 12.75 9.08579 12.75 9.5C12.75 10.4658 13.5342 11.25 14.5 11.25C15.4658 11.25 16.25 10.4658 16.25 9.5C16.25 9.08579 16.5858 8.75 17 8.75C17.4142 8.75 17.75 9.08579 17.75 9.5C17.75 10.4658 18.5342 11.25 19.5 11.25C19.5845 11.25 19.667 11.241 19.749 11.2285C19.8067 11.2198 19.8639 11.2089 19.9209 11.1943C20.0154 11.1701 20.1098 11.1398 20.2041 11.1006L20.334 11.0352C20.3758 11.0114 20.4226 10.9822 20.4795 10.9473C20.5883 10.8715 20.6637 10.8109 20.7168 10.7529L20.7393 10.7295C21.0541 10.4146 21.25 9.97345 21.25 9.5V6C21.25 4.21421 19.7858 2.75 18 2.75H6Z" fill="white"/> <path opacity="0.4" d="M13.1171 16.2286C13.4116 15.9886 13.8464 16.0059 14.121 16.2804C14.4135 16.5732 14.4135 17.0481 14.121 17.3409L13.0604 18.4005L14.121 19.4601L14.1717 19.5177C14.4118 19.8121 14.3951 20.246 14.121 20.5206C13.8464 20.7952 13.4116 20.8126 13.1171 20.5724L13.0594 20.5206L11.9999 19.4611L10.9403 20.5206C10.6474 20.8135 10.1726 20.8135 9.87975 20.5206C9.58701 20.2277 9.5869 19.7529 9.87975 19.4601L10.9393 18.4005L9.87975 17.3409L9.82799 17.2843C9.58769 16.9897 9.60516 16.555 9.87975 16.2804C10.1544 16.0058 10.5891 15.9883 10.8837 16.2286L10.9403 16.2804L11.9999 17.339L13.0594 16.2804L13.1171 16.2286Z" fill="white"/> </g> <defs> <clipPath id="clip0_3111_20398"> <rect width="24" height="24" fill="white"/> </clipPath> </defs> </svg>
