<svg width="24" height="24" viewBox="0 0 24 24" fill="none" xmlns="http://www.w3.org/2000/svg"> <g clip-path="url(#clip0_4482_12267)"> <path opacity="0.4" d="M16.4502 20.8896H20.8902" stroke="white" stroke-width="1.5" stroke-linecap="round" stroke-linejoin="round"/> <path opacity="0.4" d="M3.11035 20.8896H7.56035" stroke="white" stroke-width="1.5" stroke-linecap="round" stroke-linejoin="round"/> <path opacity="0.4" d="M12 15.3594V17.5794" stroke="white" stroke-width="1.5" stroke-linecap="round" stroke-linejoin="round"/> <path opacity="0.4" d="M10.5303 20.67L11.8603 22L13.8603 20" stroke="white" stroke-width="1.5" stroke-linecap="round" stroke-linejoin="round"/> <path d="M6.71033 5.94956C4.23033 6.23956 2.41033 8.41956 2.57033 10.9096C2.72033 13.3996 4.79033 15.3396 7.28033 15.3296H17.5603C18.9503 15.3296 20.2303 14.5896 20.9303 13.3896C21.6303 12.1896 21.6203 10.6996 20.9303 9.49956C20.2403 8.29956 18.9503 7.55956 17.5603 7.55956C17.5603 4.80956 15.5503 2.46956 12.8303 2.05956C10.1103 1.65956 7.50033 3.30956 6.71033 5.94956Z" stroke="white" stroke-width="1.5" stroke-linecap="round" stroke-linejoin="round"/> </g> <defs> <clipPath id="clip0_4482_12267"> <rect width="24" height="24" fill="white"/> </clipPath> </defs> </svg>
