<svg width="24" height="24" viewBox="0 0 24 24" fill="none" xmlns="http://www.w3.org/2000/svg"> <g clip-path="url(#clip0_4482_15795)"> <path opacity="0.4" d="M12.0098 22.0002V14.4502" stroke="white" stroke-width="1.5" stroke-linecap="round" stroke-linejoin="round"/> <path d="M16.5299 7.89023C16.9999 6.21023 16.3899 4.39023 14.9899 3.32023C14.1899 2.47023 13.0499 1.99023 11.8699 1.99023C10.4299 2.01023 9.07987 2.70023 8.22987 3.86023C7.37987 5.02023 7.08987 6.49023 7.46987 7.88023C5.14987 7.81023 3.11987 9.44023 2.68987 11.7102C2.25987 14.0102 3.58987 16.2502 5.78987 16.9902C7.98987 17.7202 10.4099 16.7502 11.4699 14.6902C11.5599 14.5002 11.7799 14.3602 11.9899 14.3602C12.1999 14.3602 12.4199 14.5002 12.5099 14.6902C13.1499 15.9402 14.3099 16.8202 15.6799 17.1302C17.0499 17.4402 18.4699 17.1102 19.5899 16.2302C21.1999 14.9802 21.8099 12.8202 21.0999 10.9302C20.4099 9.04023 18.5699 7.78023 16.5299 7.88023V7.89023Z" stroke="white" stroke-width="1.5" stroke-linecap="round" stroke-linejoin="round"/> </g> <defs> <clipPath id="clip0_4482_15795"> <rect width="24" height="24" fill="white"/> </clipPath> </defs> </svg>
