<svg width="24" height="24" viewBox="0 0 24 24" fill="none" xmlns="http://www.w3.org/2000/svg"> <g clip-path="url(#clip0_4482_15794)"> <path d="M12 16.0005V12.9805" stroke="white" stroke-width="1.5" stroke-linecap="round" stroke-linejoin="round"/> <path d="M13.8099 10.36C13.9999 9.69 13.7499 8.96 13.1899 8.53C12.8699 8.19 12.4099 8 11.9399 8C11.3599 8 10.8199 8.28 10.4799 8.75C10.1399 9.22 10.0299 9.8 10.1799 10.36C9.2499 10.33 8.4399 10.98 8.2699 11.89C8.0999 12.81 8.6299 13.71 9.5099 14C10.3899 14.29 11.3599 13.91 11.7799 13.08C11.8199 13 11.8999 12.95 11.9899 12.95C12.0799 12.95 12.1599 13.01 12.1999 13.08C12.4599 13.58 12.9199 13.93 13.4699 14.06C14.0199 14.18 14.5899 14.06 15.0299 13.7C15.6699 13.2 15.9199 12.34 15.6399 11.58C15.3699 10.82 14.6299 10.32 13.8099 10.36Z" stroke="white" stroke-width="1.5" stroke-linecap="round" stroke-linejoin="round"/> <path opacity="0.4" d="M12 22C17.5228 22 22 17.5228 22 12C22 6.47715 17.5228 2 12 2C6.47715 2 2 6.47715 2 12C2 17.5228 6.47715 22 12 22Z" stroke="white" stroke-width="1.5" stroke-linecap="round" stroke-linejoin="round"/> </g> <defs> <clipPath id="clip0_4482_15794"> <rect width="24" height="24" fill="white"/> </clipPath> </defs> </svg>
