<svg width="24" height="24" viewBox="0 0 24 24" fill="none" xmlns="http://www.w3.org/2000/svg"> <g clip-path="url(#clip0_2085_392123)"> <path d="M7 20C5.62 20 4.5 18.88 4.5 17.5V14.5C4.5 13.84 4.24 13.2 3.77 12.73C3.3 12.26 2.67 12 2 12C2.66 12 3.3 11.74 3.77 11.27C4.24 10.8 4.5 10.17 4.5 9.5V6.5C4.5 5.12 5.62 4 7 4" stroke="white" stroke-width="1.5" stroke-linecap="round" stroke-linejoin="round"/> <path d="M13.3901 10.8896L10.6101 13.6696" stroke="white" stroke-width="1.5" stroke-linecap="round" stroke-linejoin="round"/> <path d="M10.6101 10.8896L13.3901 13.6696" stroke="white" stroke-width="1.5" stroke-linecap="round" stroke-linejoin="round"/> <path opacity="0.4" d="M17 4C18.38 4 19.5 5.12 19.5 6.5V9.5C19.5 10.88 20.62 12 22 12C20.62 12 19.5 13.12 19.5 14.5V17.5C19.5 18.88 18.38 20 17 20" stroke="white" stroke-width="1.5" stroke-linecap="round" stroke-linejoin="round"/> </g> <defs> <clipPath id="clip0_2085_392123"> <rect width="24" height="24" fill="white"/> </clipPath> </defs> </svg>
