<svg width="24" height="24" viewBox="0 0 24 24" fill="none" xmlns="http://www.w3.org/2000/svg"> <g clip-path="url(#clip0_2085_384871)"> <path d="M8.00001 2H16L17.88 6.7C18.17 7.43 18.32 7.79 18.4 8.17C18.47 8.51 18.5 8.85 18.49 9.19C18.49 9.58 18.4 9.96 18.25 10.73L16 21.99H8.00001L5.75001 10.73C5.60001 9.96 5.52001 9.57 5.51001 9.19C5.51001 8.85 5.53001 8.5 5.60001 8.17C5.68001 7.79 5.83001 7.43 6.12001 6.7L8.00001 2Z" stroke="white" stroke-width="1.5" stroke-linecap="round" stroke-linejoin="round"/> <g opacity="0.4"> <path d="M12 15.0399V8.40991" stroke="white" stroke-width="1.5" stroke-linecap="round" stroke-linejoin="round"/> <path d="M9.51001 10.9001H14.48" stroke="white" stroke-width="1.5" stroke-linecap="round" stroke-linejoin="round"/> <path d="M7.56006 19.78H13.1201" stroke="white" stroke-width="1.5" stroke-linecap="round" stroke-linejoin="round"/> <path d="M15.7701 2.53003L14.4601 3.84003C14.2601 4.04003 14.2601 4.35003 14.4601 4.55003L14.8601 4.95003C15.0601 5.15003 15.0601 5.46003 14.8601 5.66003L14.1001 6.42003" stroke="white" stroke-width="1.5" stroke-linecap="round" stroke-linejoin="round"/> </g> </g> <defs> <clipPath id="clip0_2085_384871"> <rect width="24" height="24" fill="white"/> </clipPath> </defs> </svg>
