<svg width="24" height="24" viewBox="0 0 24 24" fill="none" xmlns="http://www.w3.org/2000/svg"> <g clip-path="url(#clip0_4482_6037)"> <path d="M12.1357 11.6447C17.0144 10.7847 20.6204 8.10784 20.1899 5.66577C19.7595 3.22371 15.4555 1.9412 10.5768 2.80121C5.6981 3.66122 2.09214 6.33809 2.52263 8.78016C2.95312 11.2222 7.25702 12.5047 12.1357 11.6447Z" stroke="white" stroke-width="1.5" stroke-miterlimit="10" stroke-linecap="round"/> <path d="M3.78994 10.5399C3.62994 11.7299 4.41998 12.9699 5.83998 14.0099H5.84993C7.30993 15.0999 9.41994 15.98 11.8599 16.42C15.6199 17.07 19.0299 16.47 20.5999 15.05C21.0699 14.62 21.3799 14.12 21.4799 13.56C21.7399 12.03 20.44 10.41 18.21 9.20996" stroke="white" stroke-width="1.5" stroke-miterlimit="10" stroke-linecap="round"/> <path opacity="0.4" d="M20.5901 15.0498C21.1701 15.6398 21.5001 16.3098 21.5001 17.0098C21.5001 19.4898 17.4801 21.4998 12.5301 21.4998C7.58009 21.4998 3.56006 19.4898 3.56006 17.0098C3.56006 15.8598 4.43004 14.7998 5.85004 14.0098" stroke="white" stroke-width="1.5" stroke-miterlimit="10" stroke-linecap="round"/> </g> <defs> <clipPath id="clip0_4482_6037"> <rect width="24" height="24" fill="white"/> </clipPath> </defs> </svg>
