<svg width="24" height="24" viewBox="0 0 24 24" fill="none" xmlns="http://www.w3.org/2000/svg"> <g clip-path="url(#clip0_2085_384834)"> <path opacity="0.4" d="M12.0629 22.0008C16.9729 22.0008 21.0729 18.4908 21.9429 13.8608C22.2029 12.5008 21.5929 12.5708 20.3129 12.3508C19.4029 12.1908 18.5529 11.5708 18.2329 10.5908C18.0129 9.92078 17.9329 9.90078 17.2329 9.87078C15.7829 9.81078 14.6229 8.27078 15.2029 7.03078C15.4229 6.57078 15.4129 6.51078 15.0029 6.20078C14.2929 5.65078 13.9629 4.62078 14.0929 3.63078C14.2329 2.56078 14.3129 2.18078 13.1829 2.06078C7.46293 1.45078 2.00293 6.02078 2.00293 11.9908C2.00293 17.5208 6.50293 22.0008 12.0629 22.0008Z" stroke="white" stroke-width="1.5"/> <path d="M10.0029 6.00073L9.00293 7.00073" stroke="white" stroke-width="1.5" stroke-linecap="round" stroke-linejoin="round"/> <path d="M17.0029 14.0007L16.0029 15.0007" stroke="white" stroke-width="1.5" stroke-linecap="round" stroke-linejoin="round"/> <path d="M7.00293 15.0007L8.00293 16.0007" stroke="white" stroke-width="1.5" stroke-linecap="round" stroke-linejoin="round"/> </g> <defs> <clipPath id="clip0_2085_384834"> <rect width="24" height="24" fill="white"/> </clipPath> </defs> </svg>
