<svg width="24" height="24" viewBox="0 0 24 24" fill="none" xmlns="http://www.w3.org/2000/svg"> <g clip-path="url(#clip0_2085_392575)"> <path d="M19.3 10.0605V19.7605C19.3 20.7705 18.48 21.5905 17.47 21.5905H6.52995C5.51995 21.5905 4.69995 20.7705 4.69995 19.7605V10.0605H19.3Z" stroke="white" stroke-width="1.5" stroke-linecap="round" stroke-linejoin="round"/> <path d="M19.0799 7.62094H4.91992C5.80992 5.79094 8.63992 4.46094 11.9999 4.46094C15.3599 4.46094 18.1899 5.79094 19.0799 7.62094Z" stroke="white" stroke-width="1.5" stroke-linecap="round" stroke-linejoin="round"/> <path opacity="0.4" d="M19.1401 7.62109H4.86011C4.30782 7.62109 3.86011 8.06881 3.86011 8.62109V9.06109C3.86011 9.61338 4.30782 10.0611 4.86011 10.0611H19.1401C19.6924 10.0611 20.1401 9.61338 20.1401 9.06109V8.62109C20.1401 8.06881 19.6924 7.62109 19.1401 7.62109Z" stroke="white" stroke-width="1.5" stroke-linecap="round" stroke-linejoin="round"/> <path d="M19.3 12.4902H22" stroke="white" stroke-width="1.5" stroke-linecap="round" stroke-linejoin="round"/> <path d="M2 12.4902H4.7" stroke="white" stroke-width="1.5" stroke-linecap="round" stroke-linejoin="round"/> <path opacity="0.4" d="M10.8501 4.46016V3.41016C10.8501 2.86016 11.3001 2.41016 11.8501 2.41016H12.1601C12.7101 2.41016 13.1601 2.86016 13.1601 3.41016V4.46016" stroke="white" stroke-width="1.5" stroke-linecap="round" stroke-linejoin="round"/> </g> <defs> <clipPath id="clip0_2085_392575"> <rect width="24" height="24" fill="white"/> </clipPath> </defs> </svg>
