<svg width="24" height="24" viewBox="0 0 24 24" fill="none" xmlns="http://www.w3.org/2000/svg"> <g clip-path="url(#clip0_2085_385132)"> <path d="M18.67 17.56H5.33M12.56 7H11.45M3.67 22C2.75 22 2 21.25 2 20.33V3.67C2 2.75 2.75 2 3.67 2C4.59 2 5.34 2.75 5.34 3.67V20.34C5.34 21.26 4.59 22.01 3.67 22.01V22ZM20.33 22C19.41 22 18.66 21.25 18.66 20.33V3.67C18.66 2.75 19.41 2 20.33 2C21.25 2 22 2.75 22 3.67V20.34C22 21.26 21.25 22.01 20.33 22.01V22ZM12 3.67C13.15 3.67 14.14 4.37 14.56 5.37C14.8 5.94 15.28 6.45 15.89 6.45H18.6098V9.78C13.4237 9.78 10.5895 9.78 5.40343 9.78V6.45H8.11C8.72 6.45 9.2 5.93 9.44 5.37C9.86 4.37 10.85 3.67 12 3.67Z" stroke="white" stroke-width="1.5" stroke-linecap="round" stroke-linejoin="round"/> <g opacity="0.4"> <path d="M8.66992 9.77979V17.5598" stroke="white" stroke-width="1.5" stroke-linecap="round" stroke-linejoin="round"/> <path d="M12 9.77979V17.5598" stroke="white" stroke-width="1.5" stroke-linecap="round" stroke-linejoin="round"/> <path d="M15.3298 9.77979V17.5598" stroke="white" stroke-width="1.5" stroke-linecap="round" stroke-linejoin="round"/> </g> </g> <defs> <clipPath id="clip0_2085_385132"> <rect width="24" height="24" fill="white"/> </clipPath> </defs> </svg>
