<svg width="24" height="24" viewBox="0 0 24 24" fill="none" xmlns="http://www.w3.org/2000/svg"> <g clip-path="url(#clip0_2085_389503)"> <path opacity="0.4" d="M5.49002 13.0699L10.97 9.89986L8.06002 4.85986L2.58002 8.02986C1.71002 8.52986 1.84002 9.81986 2.79002 10.1399L4.02002 10.5599L3.77002 11.8399C3.58002 12.8199 4.63002 13.5799 5.49002 13.0699Z" stroke="white" stroke-width="1.5" stroke-linecap="round" stroke-linejoin="round"/> <path d="M7.30005 3.52979L17.08 20.4598" stroke="white" stroke-width="1.5" stroke-linecap="round" stroke-linejoin="round"/> <path opacity="0.4" d="M18.51 13.0699L13.03 9.89986L15.94 4.85986L21.42 8.02986C22.29 8.52986 22.16 9.81986 21.21 10.1399L19.98 10.5599L20.23 11.8399C20.42 12.8199 19.37 13.5799 18.51 13.0699Z" stroke="white" stroke-width="1.5" stroke-linecap="round" stroke-linejoin="round"/> <path d="M16.6999 3.52979L6.92993 20.4698" stroke="white" stroke-width="1.5" stroke-linecap="round" stroke-linejoin="round"/> </g> <defs> <clipPath id="clip0_2085_389503"> <rect width="24" height="24" fill="white"/> </clipPath> </defs> </svg>
