<svg width="24" height="24" viewBox="0 0 24 24" fill="none" xmlns="http://www.w3.org/2000/svg"> <g clip-path="url(#clip0_4482_5929)"> <path opacity="0.4" d="M20.9101 11.1203C20.9101 16.0103 17.3601 20.5903 12.5101 21.9303C12.1801 22.0203 11.8201 22.0203 11.4901 21.9303C6.64009 20.5903 3.09009 16.0103 3.09009 11.1203V6.73031C3.09009 5.91031 3.71009 4.98031 4.48009 4.67031L10.0501 2.39031C11.3001 1.88031 12.7101 1.88031 13.9601 2.39031L19.5301 4.67031C20.2901 4.98031 20.9201 5.91031 20.9201 6.73031L20.9101 11.1203Z" stroke="white" stroke-width="1.5" stroke-linecap="round" stroke-linejoin="round"/> <path d="M9 8.25H13.38C14.35 8.25 15.13 9.13 15.13 10C15.13 10.97 14.35 11.75 13.38 11.75H9V8.25Z" stroke="white" stroke-width="1.5" stroke-miterlimit="10" stroke-linecap="round" stroke-linejoin="round"/> <path d="M9 11.75H14C15.1 11.75 16 12.53 16 13.5C16 14.47 15.1 15.25 14 15.25H9V11.75Z" stroke="white" stroke-width="1.5" stroke-miterlimit="10" stroke-linecap="round" stroke-linejoin="round"/> <path d="M11.8 15.25V17" stroke="white" stroke-width="1.5" stroke-miterlimit="10" stroke-linecap="round" stroke-linejoin="round"/> <path d="M11.8 6.5V8.25" stroke="white" stroke-width="1.5" stroke-miterlimit="10" stroke-linecap="round" stroke-linejoin="round"/> </g> <defs> <clipPath id="clip0_4482_5929"> <rect width="24" height="24" fill="white"/> </clipPath> </defs> </svg>
