<svg width="24" height="24" viewBox="0 0 24 24" fill="none" xmlns="http://www.w3.org/2000/svg"> <g clip-path="url(#clip0_2085_385034)"> <path opacity="0.4" d="M17.1101 18.9902C18.9105 18.9902 20.3701 17.5307 20.3701 15.7302C20.3701 13.9298 18.9105 12.4702 17.1101 12.4702C15.3096 12.4702 13.8501 13.9298 13.8501 15.7302C13.8501 17.5307 15.3096 18.9902 17.1101 18.9902Z" stroke="white" stroke-width="1.5" stroke-linecap="round" stroke-linejoin="round"/> <path d="M17.1101 20.6198V10.8398" stroke="white" stroke-width="1.5" stroke-linecap="round" stroke-linejoin="round"/> <path d="M12.22 15.73H22" stroke="white" stroke-width="1.5" stroke-linecap="round" stroke-linejoin="round"/> <path d="M11.72 11.96C11.55 11.74 11.29 11.6 11 11.6C10.71 11.6 10.45 11.73 10.28 11.96L8.57 14.24C8.4 14.46 8.13 14.6 7.85 14.6H4.7C3.21 14.6 2 13.39 2 11.9V5.45C2 4.97 2.19 4.51 2.53 4.18L4.18 2.53C4.52 2.19 4.97 2 5.45 2H16.56C17.04 2 17.5 2.19 17.83 2.53L19.48 4.18C19.81 4.51 20.01 4.97 20.01 5.45V10" stroke="white" stroke-width="1.5" stroke-linecap="round" stroke-linejoin="round"/> <path opacity="0.4" d="M1.97998 5.6001H20" stroke="white" stroke-width="1.5" stroke-linecap="round" stroke-linejoin="round"/> </g> <defs> <clipPath id="clip0_2085_385034"> <rect width="24" height="24" fill="white"/> </clipPath> </defs> </svg>
