<svg width="24" height="24" viewBox="0 0 24 24" fill="none" xmlns="http://www.w3.org/2000/svg"> <g clip-path="url(#clip0_4482_11688)"> <path opacity="0.4" d="M12.5503 17.5498H18.1103C18.7803 17.5498 19.2203 17.1098 19.2203 16.4398V14.2198C19.2203 13.5498 18.7803 13.1098 18.1103 13.1098H14.7803L18.1103 6.43977V2.00977H13.6703L11.4503 6.44977H5.89027C5.22027 6.44977 4.78027 6.88977 4.78027 7.55977V9.77977C4.78027 10.4498 5.22027 10.8898 5.89027 10.8898H9.22027L5.89027 17.5598V21.9998H10.3303L12.5503 17.5598V17.5498Z" stroke="white" stroke-width="1.5" stroke-linecap="round" stroke-linejoin="round"/> <path d="M5.88965 17.5499V21.9899H10.3296L12.5496 17.5499H18.1096C18.7796 17.5499 19.2196 17.1099 19.2196 16.4399V14.2199C19.2196 13.5499 18.7796 13.1099 18.1096 13.1099H14.7796L18.1096 6.43994" stroke="white" stroke-width="1.5" stroke-linecap="round" stroke-linejoin="round"/> </g> <defs> <clipPath id="clip0_4482_11688"> <rect width="24" height="24" fill="white"/> </clipPath> </defs> </svg>
