<svg width="24" height="24" viewBox="0 0 24 24" fill="none" xmlns="http://www.w3.org/2000/svg"> <g clip-path="url(#clip0_2085_392470)"> <path opacity="0.4" d="M17.29 15.3098C17.31 12.2898 14.86 9.81977 11.84 9.81977C11.04 9.81977 10.39 9.13977 10.44 8.31977C10.49 7.62977 11.05 7.06977 11.74 7.01977C12.25 6.97977 12.72 7.22977 12.99 7.61977C13.34 8.10977 13.89 8.41977 14.49 8.41977H14.58C16.06 8.41977 16.93 6.76977 16.1 5.53977C15.4 4.50977 14.34 3.74977 13.1 3.43977V3.24977C13.1 2.55977 12.54 2.00977 11.86 2.00977C11.18 2.00977 10.62 2.56977 10.62 3.24977V3.43977C8.45004 3.97977 6.82004 5.90977 6.73004 8.21977C6.62004 11.1398 8.96004 13.5598 11.86 13.5598C12.84 13.5598 13.64 14.3998 13.57 15.3898C13.51 16.2298 12.83 16.9198 11.98 16.9798C11.31 17.0298 10.72 16.6898 10.4 16.1698C10.06 15.6198 9.46004 15.2698 8.80004 15.2698C7.34004 15.2698 6.45004 16.8698 7.21004 18.1198C7.96004 19.3398 9.18004 20.2398 10.61 20.5698V20.7598C10.61 21.4498 11.17 21.9998 11.85 21.9998C12.53 21.9998 13.09 21.4398 13.09 20.7598V20.5698C15.48 20.0098 17.27 17.8598 17.29 15.3098Z" stroke="white" stroke-width="1.5" stroke-linejoin="round"/> <path d="M13.09 3.43977V3.24977C13.09 2.55977 12.53 2.00977 11.85 2.00977C11.17 2.00977 10.61 2.56977 10.61 3.24977V3.43977C8.44003 3.97977 6.81003 5.90977 6.72003 8.21977C6.61003 11.1398 8.95003 13.5598 11.85 13.5598C12.83 13.5598 13.63 14.3998 13.56 15.3898C13.5 16.2298 12.82 16.9198 11.97 16.9798C11.3 17.0298 10.71 16.6898 10.39 16.1698C10.05 15.6198 9.45003 15.2698 8.79003 15.2698C7.33003 15.2698 6.44003 16.8698 7.20003 18.1198C7.95003 19.3398 9.17004 20.2398 10.6 20.5698V20.7598C10.6 21.4498 11.16 21.9998 11.84 21.9998C12.52 21.9998 13.08 21.4398 13.08 20.7598V20.5698C15.47 20.0098 17.26 17.8598 17.28 15.3098C17.3 12.2898 14.85 9.81977 11.83 9.81977C11.03 9.81977 10.38 9.13977 10.43 8.31977" stroke="white" stroke-width="1.5" stroke-linecap="round" stroke-linejoin="round"/> </g> <defs> <clipPath id="clip0_2085_392470"> <rect width="24" height="24" fill="white"/> </clipPath> </defs> </svg>
