<svg width="24" height="24" viewBox="0 0 24 24" fill="none" xmlns="http://www.w3.org/2000/svg"> <g clip-path="url(#clip0_2085_392718)"> <path opacity="0.4" d="M11.9999 14.3095C13.2699 14.3095 14.3099 13.2795 14.3099 11.9995C14.3099 10.7195 13.2799 9.68945 11.9999 9.68945C10.7199 9.68945 9.68994 10.7195 9.68994 11.9995C9.68994 13.2795 10.7199 14.3095 11.9999 14.3095Z" stroke="white" stroke-width="1.71" stroke-linecap="round" stroke-linejoin="round"/> <path d="M8.92 2H2.77C2.57 2 2.37 2.08 2.23 2.23C2.09 2.37 2 2.57 2 2.77V8.92" stroke="white" stroke-width="1.71" stroke-linecap="round" stroke-linejoin="round"/> <path d="M15.0801 22.0001H21.2301C21.4301 22.0001 21.6301 21.9201 21.7701 21.7701C21.9101 21.6301 22.0001 21.4301 22.0001 21.2301V15.0801" stroke="white" stroke-width="1.71" stroke-linecap="round" stroke-linejoin="round"/> </g> <defs> <clipPath id="clip0_2085_392718"> <rect width="24" height="24" fill="white"/> </clipPath> </defs> </svg>
