<svg width="24" height="24" viewBox="0 0 24 24" fill="none" xmlns="http://www.w3.org/2000/svg"> <g clip-path="url(#clip0_4482_6125)"> <path d="M6.5 21.25H8.32999" stroke="white" stroke-width="1.5" stroke-miterlimit="10" stroke-linecap="round" stroke-linejoin="round"/> <path d="M15.6699 21.25H17.4999" stroke="white" stroke-width="1.5" stroke-miterlimit="10" stroke-linecap="round" stroke-linejoin="round"/> <path d="M19.7301 12.75H4.26008C3.06008 12.75 2.13007 13.8 2.28007 15L2.78007 19C2.91007 20 3.76008 20.75 4.76008 20.75H19.2301C20.2401 20.75 21.0901 20 21.2101 19L21.7101 15C21.8701 13.8 20.9401 12.75 19.7301 12.75Z" stroke="white" stroke-width="1.5" stroke-miterlimit="10" stroke-linecap="round" stroke-linejoin="round"/> <path d="M17 2.75H7C5.34 2.75 4 4.09 4 5.75V12.75H20V5.75C20 4.09 18.66 2.75 17 2.75Z" stroke="white" stroke-width="1.5" stroke-miterlimit="10" stroke-linecap="round" stroke-linejoin="round"/> <path d="M9 8.75H7C5.34 8.75 4 10.09 4 11.75V12.75H12V11.75C12 10.09 10.66 8.75 9 8.75Z" stroke="white" stroke-width="1.5" stroke-miterlimit="10" stroke-linecap="round" stroke-linejoin="round"/> <path d="M17 8.75H15C13.34 8.75 12 10.09 12 11.75V12.75H20V11.75C20 10.09 18.66 8.75 17 8.75Z" stroke="white" stroke-width="1.5" stroke-miterlimit="10" stroke-linecap="round" stroke-linejoin="round"/> <path d="M9.5 17H14.5" stroke="white" stroke-width="1.5" stroke-miterlimit="10" stroke-linecap="round" stroke-linejoin="round"/> </g> <defs> <clipPath id="clip0_4482_6125"> <rect width="24" height="24" fill="white"/> </clipPath> </defs> </svg>
