<svg width="24" height="24" viewBox="0 0 24 24" fill="none" xmlns="http://www.w3.org/2000/svg"> <g clip-path="url(#clip0_4482_14703)"> <g opacity="0.4"> <path d="M4.92957 4.92957C8.83957 1.01957 15.1696 1.01957 19.0696 4.92957C22.9696 8.83957 22.9796 15.1696 19.0696 19.0696C15.1596 22.9696 8.82957 22.9796 4.92957 19.0696C1.01957 15.1596 1.01957 8.82957 4.92957 4.92957Z" stroke="white" stroke-width="1.5" stroke-linecap="round" stroke-linejoin="round"/> <path d="M5.75977 4.18945L7.13977 5.94945" stroke="white" stroke-width="1.5" stroke-linecap="round" stroke-linejoin="round"/> <path d="M18.2394 19.8098L16.8594 18.0498" stroke="white" stroke-width="1.5" stroke-linecap="round" stroke-linejoin="round"/> </g> <path d="M8.88965 17.5805H12.0196C13.1196 17.5805 14.0196 16.6805 14.0196 15.5805V11.4805C14.0196 10.3805 13.1196 9.48047 12.0196 9.48047H8.88965C7.78965 9.48047 6.88965 10.3805 6.88965 11.4805V15.5805C6.88965 16.6805 7.78965 17.5805 8.88965 17.5805Z" stroke="white" stroke-width="1.5" stroke-linecap="round" stroke-linejoin="round"/> <path d="M9.9502 9.47992V8.41992C9.9502 7.31992 10.8502 6.41992 11.9502 6.41992H15.1202C16.2202 6.41992 17.1202 7.31992 17.1202 8.41992V12.5199C17.1202 13.6199 16.2202 14.5199 15.1202 14.5199H14.0302" stroke="white" stroke-width="1.5" stroke-linecap="round" stroke-linejoin="round"/> </g> <defs> <clipPath id="clip0_4482_14703"> <rect width="24" height="24" fill="white"/> </clipPath> </defs> </svg>
