<svg width="24" height="24" viewBox="0 0 24 24" fill="none" xmlns="http://www.w3.org/2000/svg"> <path fill-rule="evenodd" clip-rule="evenodd" d="M8 3.04004C6.21421 3.04004 4.75 4.50425 4.75 6.29004V6.43004H9.78003C11.4143 6.43004 12.75 7.76584 12.75 9.40004V14.6001C12.75 16.2343 11.4143 17.5701 9.78003 17.5701H4.75V17.7101C4.75 19.4958 6.21421 20.9601 8 20.9601H16.5C18.2858 20.9601 19.75 19.4958 19.75 17.7101V6.29004C19.75 4.50425 18.2858 3.04004 16.5 3.04004H8ZM3.25 6.29004C3.25 3.67583 5.38579 1.54004 8 1.54004H16.5C19.1142 1.54004 21.25 3.67583 21.25 6.29004V17.7101C21.25 20.3243 19.1142 22.4601 16.5 22.4601H8C5.38579 22.4601 3.25 20.3243 3.25 17.7101V16.81C3.25 16.5926 3.34435 16.3859 3.5086 16.2435C3.67285 16.101 3.89083 16.0368 4.10607 16.0676C4.10587 16.0676 4.10576 16.0675 4.10576 16.0675C4.10576 16.0675 4.11426 16.0685 4.13503 16.0692C4.158 16.07 4.18315 16.0701 4.21997 16.0701H9.78003C10.5858 16.0701 11.25 15.4059 11.25 14.6001V9.40004C11.25 8.59424 10.5858 7.93004 9.78003 7.93004H4.21997C4.18315 7.93004 4.158 7.93011 4.13503 7.93088C4.11426 7.93157 4.10577 7.93257 4.10576 7.93256C4.10576 7.93255 4.10587 7.93254 4.10607 7.93251C3.89083 7.96326 3.67285 7.89909 3.5086 7.75664C3.34435 7.61419 3.25 7.40747 3.25 7.19005V6.29004Z" fill="white"/> <path fill-rule="evenodd" clip-rule="evenodd" d="M4.13503 7.93079C4.11426 7.93148 4.10576 7.93249 4.10576 7.93247C4.10576 7.93247 4.10587 7.93245 4.10607 7.93243C4.09518 7.93398 4.08425 7.9353 4.07331 7.93637C3.33375 8.00901 2.75 8.63932 2.75 9.39996V14.6C2.75 15.3606 3.33375 15.9909 4.07331 16.0636C4.08425 16.0646 4.09518 16.0659 4.10607 16.0675C4.10404 16.0672 4.11197 16.0684 4.13503 16.0691C4.158 16.0699 4.18315 16.07 4.21997 16.07H9.78003C10.5858 16.07 11.25 15.4058 11.25 14.6V9.39996C11.25 8.59416 10.5858 7.92995 9.78003 7.92995H4.21997C4.18315 7.92995 4.158 7.93002 4.13503 7.93079ZM4.20883 6.42994C4.21281 6.42995 4.21653 6.42995 4.21997 6.42995H9.78003C11.4143 6.42995 12.75 7.76576 12.75 9.39996V14.6C12.75 16.2342 11.4143 17.57 9.78003 17.57H4.21997C4.21653 17.57 4.21281 17.57 4.20883 17.57C4.14906 17.5701 4.03102 17.5702 3.91242 17.5549C2.4188 17.4009 1.25 16.1344 1.25 14.6V9.39996C1.25 7.86547 2.41881 6.59897 3.91243 6.44499C4.03103 6.42971 4.14906 6.42987 4.20883 6.42994Z" fill="white"/> <path opacity="0.4" fill-rule="evenodd" clip-rule="evenodd" d="M14.6802 4.45996C15.0944 4.45996 15.4302 4.79575 15.4302 5.20996V6.17995C15.4302 6.83576 15.9644 7.36995 16.6201 7.36995H17.5901C18.0043 7.36995 18.3401 7.70574 18.3401 8.11995C18.3401 8.53416 18.0043 8.86995 17.5901 8.86995H16.6201C15.1359 8.86995 13.9302 7.66413 13.9302 6.17995V5.20996C13.9302 4.79575 14.266 4.45996 14.6802 4.45996Z" fill="white"/> <path opacity="0.4" fill-rule="evenodd" clip-rule="evenodd" d="M7.86776 10.9661C7.72731 10.844 7.50542 10.8596 7.38203 11.0052L7.37741 11.0106L6.11761 12.4404L6.08251 13.0074L6.63751 12.8824C6.63854 12.8819 6.64009 12.881 6.64221 12.8797C6.64875 12.8756 6.66016 12.8675 6.67638 12.8525L7.91508 11.4467C8.03532 11.307 8.0207 11.0958 7.87488 10.9722L7.86776 10.9661ZM8.84848 9.83111C8.07097 9.15842 6.89975 9.26129 6.24312 10.029L4.99123 11.4498C4.76226 11.7026 4.64124 12.0153 4.62136 12.3334L4.5517 13.4587C4.52752 13.7907 4.64323 14.137 4.92718 14.3737C5.20635 14.6065 5.55747 14.658 5.86283 14.5944L6.99322 14.3399L7.00175 14.3378C7.33242 14.2551 7.57697 14.0737 7.75021 13.9005L7.76694 13.8837L9.0426 12.436L9.04584 12.4323C9.72331 11.6532 9.61894 10.4876 8.84848 9.83111Z" fill="white"/> </svg>
