<svg width="24" height="24" viewBox="0 0 24 24" fill="none" xmlns="http://www.w3.org/2000/svg"> <g clip-path="url(#clip0_655_9555)"> <path d="M3.13 8.21L10.13 2.65C11.23 1.78 12.78 1.78 13.88 2.65L20.88 8.21C21.59 8.78 22 9.63 22 10.53V19.02C22 20.67 20.66 22 19 22H5C3.34 22 2 20.67 2 19.02V10.53C2 9.63 2.41 8.77 3.13 8.21Z" stroke="white" stroke-width="1.5" stroke-linecap="round" stroke-linejoin="round"/> <path opacity="0.4" d="M2 10.96C2 11.65 2.37 12.3 2.97 12.66L10.46 17.11C11.41 17.68 12.6 17.68 13.55 17.11L21.04 12.66C21.64 12.3 22.01 11.66 22.01 10.96" stroke="white" stroke-width="1.5" stroke-linecap="round" stroke-linejoin="round"/> <path d="M12 7V13" stroke="white" stroke-width="1.5" stroke-miterlimit="10" stroke-linecap="round"/> <path d="M9.40039 8.5L14.6004 11.5" stroke="white" stroke-width="1.5" stroke-miterlimit="10" stroke-linecap="round"/> <path d="M9.40039 11.5L14.6004 8.5" stroke="white" stroke-width="1.5" stroke-miterlimit="10" stroke-linecap="round"/> </g> <defs> <clipPath id="clip0_655_9555"> <rect width="24" height="24" fill="white"/> </clipPath> </defs> </svg>
