<svg width="24" height="24" viewBox="0 0 24 24" fill="none" xmlns="http://www.w3.org/2000/svg"> <g clip-path="url(#clip0_2085_390038)"> <path d="M9.99993 10H13.9999C13.9999 10.95 14.4399 11.85 15.1999 12.42C16.4999 13.38 17.3399 14.92 17.3399 16.66C17.3399 19.6 14.9499 21.99 12.0099 21.99C9.06993 21.99 6.67993 19.6 6.67993 16.66C6.67993 14.92 7.50993 13.37 8.81993 12.42C9.56993 11.84 10.0199 10.95 10.0199 10H9.99993Z" stroke="white" stroke-width="1.41" stroke-linecap="round" stroke-linejoin="round"/> <path opacity="0.4" d="M11.3298 19.2499C10.1798 18.9499 9.32983 17.9099 9.32983 16.6699" stroke="white" stroke-width="1.41" stroke-linecap="round" stroke-linejoin="round"/> <path opacity="0.4" d="M13.5 10C13.5 10 12.94 4.58 12.74 2.66C12.7 2.28 12.38 2 12.01 2C11.63 2 11.31 2.29 11.27 2.66C11.07 4.58 10.51 10 10.51 10H13.51H13.5Z" stroke="white" stroke-width="1.41" stroke-linecap="round" stroke-linejoin="round"/> </g> <defs> <clipPath id="clip0_2085_390038"> <rect width="24" height="24" fill="white"/> </clipPath> </defs> </svg>
