<svg width="24" height="24" viewBox="0 0 24 24" fill="none" xmlns="http://www.w3.org/2000/svg"> <g clip-path="url(#clip0_2085_392472)"> <path opacity="0.4" d="M17.82 16.7095C16.85 17.7095 15.6 18.2595 14.32 18.2595C12.57 18.2595 11.02 17.2595 10.05 15.7295H14.19C14.88 15.7295 15.43 15.1695 15.43 14.4895C15.43 13.8095 14.87 13.2495 14.19 13.2495H9.10999C9.03999 12.8495 8.99999 12.4295 8.99999 12.0095C8.99999 11.5895 9.03999 11.1695 9.10999 10.7695H14.19C14.88 10.7695 15.43 10.2095 15.43 9.52953C15.43 8.84953 14.87 8.28953 14.19 8.28953H10.05C11.02 6.75953 12.57 5.75953 14.32 5.75953C15.61 5.75953 16.85 6.30953 17.82 7.30953C18.54 8.04953 19.72 8.06953 20.46 7.34953C21.2 6.62953 21.22 5.44953 20.5 4.70953C18.82 2.97953 16.62 2.01953 14.32 2.01953C13.07 2.01953 11.86 2.29953 10.72 2.83953C9.63999 3.35953 8.66999 4.09953 7.83999 5.02953C6.99999 5.97953 6.34999 7.07953 5.91999 8.27953H4.22999C3.53999 8.27953 2.98999 8.83953 2.98999 9.51953C2.98999 10.1995 3.54999 10.7595 4.22999 10.7595H5.33999C5.28999 11.1695 5.26999 11.5895 5.26999 11.9995C5.26999 12.4095 5.28999 12.8295 5.33999 13.2395H4.22999C3.53999 13.2395 2.98999 13.7995 2.98999 14.4795C2.98999 15.1595 3.54999 15.7195 4.22999 15.7195H5.91999C6.35999 16.9195 7.00999 18.0195 7.83999 18.9695C8.66999 19.9095 9.63999 20.6395 10.72 21.1595C11.86 21.7095 13.07 21.9795 14.32 21.9795C16.63 21.9795 18.82 21.0295 20.5 19.2895C21.22 18.5495 21.2 17.3695 20.46 16.6495C19.72 15.9295 18.54 15.9495 17.82 16.6895V16.7095Z" stroke="white" stroke-width="1.5" stroke-linejoin="round"/> <path d="M20.5 4.69C18.82 2.96 16.62 2 14.32 2C13.07 2 11.86 2.28 10.72 2.82C9.63999 3.34 8.66999 4.08 7.83999 5.01C6.99999 5.96 6.34999 7.06 5.91999 8.26H4.22999C3.53999 8.26 2.98999 8.82 2.98999 9.5C2.98999 10.18 3.54999 10.74 4.22999 10.74H5.33999C5.28999 11.15 5.26999 11.57 5.26999 11.98C5.26999 12.39 5.28999 12.81 5.33999 13.22H4.22999C3.53999 13.22 2.98999 13.78 2.98999 14.46C2.98999 15.14 3.54999 15.7 4.22999 15.7H5.91999C6.35999 16.9 7.00999 18 7.83999 18.95C8.66999 19.89 9.63999 20.62 10.72 21.14C11.86 21.69 13.07 21.96 14.32 21.96C16.63 21.96 18.82 21.01 20.5 19.27C21.22 18.53 21.2 17.35 20.46 16.63C19.72 15.91 18.54 15.93 17.82 16.67C16.85 17.67 15.6 18.22 14.32 18.22C12.57 18.22 11.02 17.22 10.05 15.69H14.19C14.88 15.69 15.43 15.13 15.43 14.45C15.43 13.77 14.87 13.21 14.19 13.21H9.10999C9.03999 12.81 8.99999 12.39 8.99999 11.97C8.99999 11.55 9.03999 11.13 9.10999 10.73H14.19C14.88 10.73 15.43 10.17 15.43 9.49C15.43 8.81 14.87 8.25 14.19 8.25H10.05" stroke="white" stroke-width="1.5" stroke-linecap="round" stroke-linejoin="round"/> </g> <defs> <clipPath id="clip0_2085_392472"> <rect width="24" height="24" fill="white"/> </clipPath> </defs> </svg>
