<svg width="24" height="24" viewBox="0 0 24 24" fill="none" xmlns="http://www.w3.org/2000/svg"> <g clip-path="url(#clip0_4482_13336)"> <path d="M15.9097 15.9595C13.7497 18.1195 10.2497 18.1195 8.08973 15.9595C5.92973 13.7995 5.92973 10.2995 8.08973 8.13953C10.2497 5.97953 13.7497 5.97953 15.9097 8.13953" stroke="white" stroke-width="1.5" stroke-linecap="round" stroke-linejoin="round"/> <path d="M12.0004 10.5195H5.36035" stroke="white" stroke-width="1.5" stroke-linecap="round" stroke-linejoin="round"/> <path d="M12.0004 13.5703H5.36035" stroke="white" stroke-width="1.5" stroke-linecap="round" stroke-linejoin="round"/> <path opacity="0.4" d="M17 2H7C4.23858 2 2 4.23858 2 7V17C2 19.7614 4.23858 22 7 22H17C19.7614 22 22 19.7614 22 17V7C22 4.23858 19.7614 2 17 2Z" stroke="white" stroke-width="1.5" stroke-linecap="round" stroke-linejoin="round"/> </g> <defs> <clipPath id="clip0_4482_13336"> <rect width="24" height="24" fill="white"/> </clipPath> </defs> </svg>
