<svg width="24" height="24" viewBox="0 0 24 24" fill="none" xmlns="http://www.w3.org/2000/svg"> <g clip-path="url(#clip0_4482_11693)"> <path d="M12.29 10.2402H10.25C9.11996 10.2402 8.20996 9.33016 8.20996 8.20016C8.20996 7.07016 9.11996 6.16016 10.25 6.16016H12.29V10.2302V10.2402Z" stroke="white" stroke-width="1.5" stroke-linecap="round" stroke-linejoin="round"/> <path d="M12.29 10.2402H10.25C9.11996 10.2402 8.20996 11.1502 8.20996 12.2802C8.20996 13.4102 9.11996 14.3202 10.25 14.3202H12.29V10.2502V10.2402Z" stroke="white" stroke-width="1.5" stroke-linecap="round" stroke-linejoin="round"/> <path d="M12.29 14.3101H10.25C9.11996 14.3101 8.20996 15.2201 8.20996 16.3501C8.20996 17.4801 9.11996 18.3901 10.25 18.3901C11.38 18.3901 12.29 17.4801 12.29 16.3501V14.3101Z" stroke="white" stroke-width="1.5" stroke-linecap="round" stroke-linejoin="round"/> <path d="M15.7495 10.8402C16.5495 11.6402 16.5495 12.9202 15.7495 13.7202C14.9495 14.5202 13.6695 14.5202 12.8695 13.7202C12.0695 12.9202 12.0695 11.6402 12.8695 10.8402C13.6695 10.0402 14.9495 10.0402 15.7495 10.8402Z" stroke="white" stroke-width="1.5" stroke-linecap="round" stroke-linejoin="round"/> <path d="M14.3095 10.2399H12.2695V6.16992H14.3095C15.4395 6.16992 16.3495 7.07992 16.3495 8.20992C16.3495 9.33992 15.4395 10.2499 14.3095 10.2499V10.2399Z" stroke="white" stroke-width="1.5" stroke-linecap="round" stroke-linejoin="round"/> <path opacity="0.4" d="M7 2H17C19.76 2 22 4.24 22 7V17.01C22 19.77 19.76 22 17 22H7C4.24 22 2 19.76 2 17V7C2 4.24 4.24 2 7 2Z" stroke="white" stroke-width="1.5" stroke-linecap="round" stroke-linejoin="round"/> </g> <defs> <clipPath id="clip0_4482_11693"> <rect width="24" height="24" fill="white"/> </clipPath> </defs> </svg>
