<svg width="24" height="24" viewBox="0 0 24 24" fill="none" xmlns="http://www.w3.org/2000/svg"> <g clip-path="url(#clip0_4482_8482)"> <path d="M15.5298 12.59L20.8298 7.29C21.2098 6.91 21.4198 6.41 21.4198 5.88V4C21.4198 2.9 20.5198 2 19.4198 2H4.58984C3.48984 2 2.58984 2.9 2.58984 4V5.88C2.58984 6.41 2.79984 6.92 3.17984 7.29L8.47984 12.59C8.85984 12.97 9.06984 13.47 9.06984 14V20.52C9.06984 21.48 9.96984 22.18 10.8998 21.95L13.8398 21.21C14.4898 21.05 14.9498 20.46 14.9498 19.78V13.99C14.9498 13.46 15.1598 12.95 15.5398 12.58L15.5298 12.59Z" stroke="white" stroke-width="1.5" stroke-linecap="round" stroke-linejoin="round"/> </g> <defs> <clipPath id="clip0_4482_8482"> <rect width="24" height="24" fill="white"/> </clipPath> </defs> </svg>
