<svg width="24" height="24" viewBox="0 0 24 24" fill="none" xmlns="http://www.w3.org/2000/svg"> <g clip-path="url(#clip0_2085_389513)"> <path d="M8.04004 5C9.40004 5 10.5 8.13 10.5 12C10.5 15.87 9.40004 19 8.04004 19" stroke="white" stroke-width="1.5" stroke-linecap="round" stroke-linejoin="round"/> <path d="M8.03997 19H4.46997" stroke="white" stroke-width="1.5" stroke-linecap="round" stroke-linejoin="round"/> <path d="M8.03997 5H4.46997" stroke="white" stroke-width="1.5" stroke-linecap="round" stroke-linejoin="round"/> <path d="M4.46 19C5.81862 19 6.92 15.866 6.92 12C6.92 8.13401 5.81862 5 4.46 5C3.10138 5 2 8.13401 2 12C2 15.866 3.10138 19 4.46 19Z" stroke="white" stroke-width="1.5" stroke-linecap="round" stroke-linejoin="round"/> <g opacity="0.4"> <path d="M15.71 5C17.21 5 18.42 8.13 18.42 12C18.42 15.87 17.2 19 15.71 19" stroke="white" stroke-width="1.5" stroke-linecap="round" stroke-linejoin="round"/> <path d="M19.54 5C20.9 5 22 8.13 22 12C22 15.87 20.9 19 19.54 19" stroke="white" stroke-width="1.5" stroke-linecap="round" stroke-linejoin="round"/> <path d="M19.54 19H15.72" stroke="white" stroke-width="1.5" stroke-linecap="round" stroke-linejoin="round"/> <path d="M19.54 5H15.72" stroke="white" stroke-width="1.5" stroke-linecap="round" stroke-linejoin="round"/> <path d="M10.4399 10.4199H14.9499C15.2299 10.4199 15.4999 10.5299 15.6899 10.7299C15.8899 10.9299 15.9999 11.1899 15.9999 11.4699V12.5199C15.9999 12.7999 15.8899 13.0699 15.6899 13.2599C15.4899 13.4599 15.2299 13.5699 14.9499 13.5699H10.4399" stroke="white" stroke-width="1.5" stroke-linecap="round" stroke-linejoin="round"/> <path d="M13.0698 10.42C13.3498 7.32 14.4198 5 15.7098 5" stroke="white" stroke-width="1.5" stroke-linecap="round" stroke-linejoin="round"/> <path d="M15.7098 19.0001C14.4198 19.0001 13.3498 16.6801 13.0698 13.5801" stroke="white" stroke-width="1.5" stroke-linecap="round" stroke-linejoin="round"/> </g> </g> <defs> <clipPath id="clip0_2085_389513"> <rect width="24" height="24" fill="white"/> </clipPath> </defs> </svg>
