<svg width="24" height="24" viewBox="0 0 24 24" fill="none" xmlns="http://www.w3.org/2000/svg"> <g clip-path="url(#clip0_4482_5988)"> <path opacity="0.4" d="M2.9399 21.0601C1.7199 19.8401 1.7199 17.8701 2.9399 16.6501L6.7799 12.8101C6.9199 12.6701 7.1399 12.6701 7.2799 12.8101L11.1899 16.7201C11.3299 16.8601 11.3299 17.0801 11.1899 17.2201L7.34991 21.0601C6.12991 22.2801 4.1499 22.2801 2.9399 21.0601Z" stroke="white" stroke-width="1.5" stroke-miterlimit="10" stroke-linecap="round" stroke-linejoin="round"/> <path d="M7.34 9.11035L6.37 11.0504C6.2 11.3904 6.27001 11.8104 6.54001 12.0804L11.93 17.4704C12.2 17.7404 12.61 17.8104 12.96 17.6404L14.9 16.6703L7.34 9.11035Z" stroke="white" stroke-width="1.5" stroke-miterlimit="10" stroke-linecap="round" stroke-linejoin="round"/> <path d="M10.5201 6.83032L7.34009 9.10033L14.8901 16.6503L17.1601 13.4703C17.6701 12.7603 17.5901 11.7903 16.9701 11.1803L12.8101 7.02033C12.2001 6.41033 11.2301 6.33032 10.5201 6.83032Z" stroke="white" stroke-width="1.5" stroke-miterlimit="10" stroke-linecap="round" stroke-linejoin="round"/> <path opacity="0.4" d="M18.88 5.12012L17.29 6.71013" stroke="white" stroke-width="1.5" stroke-miterlimit="10" stroke-linecap="round" stroke-linejoin="round"/> <path opacity="0.4" d="M14.5599 2L14.4299 4.25" stroke="white" stroke-width="1.5" stroke-miterlimit="10" stroke-linecap="round" stroke-linejoin="round"/> <path opacity="0.4" d="M22 9.44043L19.75 9.57043" stroke="white" stroke-width="1.5" stroke-miterlimit="10" stroke-linecap="round" stroke-linejoin="round"/> </g> <defs> <clipPath id="clip0_4482_5988"> <rect width="24" height="24" fill="white"/> </clipPath> </defs> </svg>
