<svg width="24" height="24" viewBox="0 0 24 24" fill="none" xmlns="http://www.w3.org/2000/svg"> <g clip-path="url(#clip0_4482_2331)"> <path d="M16 22H8C5.25 22 3 19.75 3 17V12C3 9.25 5.25 7 8 7H16C18.75 7 21 9.25 21 12V17C21 19.75 18.75 22 16 22Z" stroke="white" stroke-width="1.5" stroke-linecap="round" stroke-linejoin="round"/> <path opacity="0.4" d="M8.15991 8V5.84C8.15991 3.72 9.87991 2 11.9999 2C14.1199 2 15.8399 3.72 15.8399 5.84V8" stroke="white" stroke-width="1.5" stroke-linecap="round" stroke-linejoin="round"/> <g opacity="0.4"> <path d="M14.5 14.5C14.5 15.88 13.38 17 12 17C10.62 17 9.5 15.88 9.5 14.5C9.5 13.12 10.62 12 12 12C13.38 12 14.5 13.12 14.5 14.5Z" stroke="white" stroke-width="1.5" stroke-linecap="round" stroke-linejoin="round"/> <path d="M10.23 16.27L13.77 12.73" stroke="white" stroke-width="1.5" stroke-linecap="round" stroke-linejoin="round"/> </g> </g> <defs> <clipPath id="clip0_4482_2331"> <rect width="24" height="24" fill="white"/> </clipPath> </defs> </svg>
