<svg width="24" height="24" viewBox="0 0 24 24" fill="none" xmlns="http://www.w3.org/2000/svg"> <g clip-path="url(#clip0_2085_392014)"> <path d="M16.9401 22H7.06012C5.82012 20.76 5.12012 20.06 3.87012 18.81V5.19L7.06012 2H16.9401L20.1301 5.19V18.81C18.8901 20.05 18.1901 20.75 16.9401 22Z" stroke="white" stroke-width="1.5" stroke-linecap="round" stroke-linejoin="round"/> <path opacity="0.4" d="M15.7301 19.5H8.27012C7.53012 18.76 7.11012 18.34 6.37012 17.6V6.4C7.11012 5.66 7.53012 5.24 8.27012 4.5H15.7301C16.4701 5.24 16.8901 5.66 17.6301 6.4V17.61C16.8901 18.35 16.4701 18.77 15.7301 19.51V19.5Z" stroke="white" stroke-width="1.5" stroke-linecap="round" stroke-linejoin="round"/> <path d="M15.7302 4.5L16.9402 2" stroke="white" stroke-width="1.5" stroke-linecap="round" stroke-linejoin="round"/> <path d="M17.6301 6.40043L20.1301 5.19043" stroke="white" stroke-width="1.5" stroke-linecap="round" stroke-linejoin="round"/> <path d="M7.06006 2L8.27006 4.5" stroke="white" stroke-width="1.5" stroke-linecap="round" stroke-linejoin="round"/> <path d="M3.87012 5.19043L6.37012 6.40043" stroke="white" stroke-width="1.5" stroke-linecap="round" stroke-linejoin="round"/> <path d="M17.6301 17.5996L20.1301 18.8096" stroke="white" stroke-width="1.5" stroke-linecap="round" stroke-linejoin="round"/> <path d="M15.7302 19.5L17.0002 22" stroke="white" stroke-width="1.5" stroke-linecap="round" stroke-linejoin="round"/> <path d="M7 22L8.27 19.5" stroke="white" stroke-width="1.5" stroke-linecap="round" stroke-linejoin="round"/> <path d="M3.87012 18.8804L6.37012 17.6104" stroke="white" stroke-width="1.5" stroke-linecap="round" stroke-linejoin="round"/> <path opacity="0.4" d="M12 7V17" stroke="white" stroke-width="1.5" stroke-linecap="round" stroke-linejoin="round"/> <path d="M15.1301 8.87988L12.0001 11.9999L8.88013 8.87988" stroke="white" stroke-width="1.5" stroke-linecap="round" stroke-linejoin="round"/> </g> <defs> <clipPath id="clip0_2085_392014"> <rect width="24" height="24" fill="white"/> </clipPath> </defs> </svg>
