<svg width="24" height="24" viewBox="0 0 24 24" fill="none" xmlns="http://www.w3.org/2000/svg"> <g clip-path="url(#clip0_2085_390383)"> <path opacity="0.4" d="M8.05009 10.49C8.14009 10.06 8.75009 10.06 8.84009 10.49C9.38009 13.11 11.4201 15.16 14.0401 15.69C14.4701 15.78 14.4701 16.39 14.0401 16.47C11.4201 17.01 9.37009 19.05 8.84009 21.67C8.75009 22.1 8.14009 22.1 8.05009 21.67C7.51009 19.05 5.47009 17 2.85009 16.47C2.42009 16.38 2.42009 15.77 2.85009 15.69C5.47009 15.15 7.52009 13.11 8.05009 10.49Z" stroke="white" stroke-width="1.5" stroke-linecap="round" stroke-linejoin="round"/> <path d="M18.2699 7.29995C18.2699 7.29995 18.3199 7.26995 18.3299 7.29995C18.6499 8.86995 19.8799 10.1 21.4499 10.42C21.4799 10.42 21.4799 10.47 21.4499 10.48C19.8799 10.8 18.6499 12.03 18.3299 13.6C18.3299 13.63 18.2799 13.63 18.2699 13.6C17.9499 12.03 16.7199 10.8 15.1499 10.48C15.1199 10.48 15.1199 10.43 15.1499 10.42C16.7199 10.1 17.9499 8.86995 18.2699 7.29995Z" stroke="white" stroke-width="1.5" stroke-linecap="round" stroke-linejoin="round"/> <path d="M11.7 2.02017C11.7 2.02017 11.74 1.99017 11.75 2.02017C12.04 3.42017 13.13 4.51017 14.52 4.79017C14.55 4.79017 14.55 4.83017 14.52 4.84017C13.12 5.13017 12.03 6.22017 11.75 7.61017C11.75 7.64017 11.71 7.64017 11.7 7.61017C11.41 6.21017 10.32 5.12017 8.92997 4.84017C8.89997 4.84017 8.89997 4.80017 8.92997 4.79017C10.33 4.50017 11.42 3.41017 11.7 2.02017Z" stroke="white" stroke-width="1.5" stroke-linecap="round" stroke-linejoin="round"/> </g> <defs> <clipPath id="clip0_2085_390383"> <rect width="24" height="24" fill="white"/> </clipPath> </defs> </svg>
