<svg width="24" height="24" viewBox="0 0 24 24" fill="none" xmlns="http://www.w3.org/2000/svg"> <g clip-path="url(#clip0_2085_384873)"> <path d="M5.33008 22C5.33008 20.77 6.32008 19.78 7.55008 19.78C8.78008 19.78 9.77008 20.77 9.77008 22" stroke="white" stroke-width="1.5" stroke-linecap="round" stroke-linejoin="round"/> <path d="M9.78003 22C9.78003 20.77 10.77 19.78 12 19.78C13.23 19.78 14.22 20.77 14.22 22" stroke="white" stroke-width="1.5" stroke-linecap="round" stroke-linejoin="round"/> <path d="M14.22 22C14.22 20.77 15.21 19.78 16.44 19.78C17.67 19.78 18.66 20.77 18.66 22" stroke="white" stroke-width="1.5" stroke-linecap="round" stroke-linejoin="round"/> <path d="M5.33007 22V20.14C5.33007 19.31 5.33007 18.89 5.29007 18.48C5.20007 17.53 4.96007 16.59 4.57007 15.72C4.40007 15.34 4.20007 14.98 3.80007 14.25L3.17007 13.11C2.89007 12.61 3.25007 11.99 3.83007 11.99H4.56007C4.98007 11.99 5.33007 11.65 5.33007 11.22V8.65999C5.33007 4.97999 8.31007 1.98999 12.0001 1.98999C15.6901 1.98999 18.6701 4.96999 18.6701 8.65999V11.22C18.6701 11.64 19.0101 11.99 19.4401 11.99H20.1701C20.7401 11.99 21.1001 12.61 20.8301 13.11L20.2001 14.25C19.7901 14.98 19.5901 15.34 19.4301 15.72C19.0401 16.6 18.8001 17.53 18.7101 18.48C18.6701 18.89 18.6701 19.31 18.6701 20.14V22" stroke="white" stroke-width="1.5" stroke-linecap="round" stroke-linejoin="round"/> <path opacity="0.4" d="M8.66992 13.1101L9.57992 14.0201C9.68992 14.1301 9.85992 14.1301 9.96992 14.0201L10.6899 13.3001C10.7999 13.1901 10.9699 13.1901 11.0799 13.3001L11.7999 14.0201C11.9099 14.1301 12.0799 14.1301 12.1899 14.0201L12.9099 13.3001C13.0199 13.1901 13.1899 13.1901 13.2999 13.3001L14.0199 14.0201C14.1299 14.1301 14.2999 14.1301 14.4099 14.0201L15.3199 13.1101" stroke="white" stroke-width="1.5" stroke-linecap="round" stroke-linejoin="round"/> <path opacity="0.4" d="M8.69006 8.20996C8.48006 8.32996 8.29006 8.49996 8.16006 8.72996C7.78006 9.38996 8.01006 10.22 8.66006 10.6C9.31006 10.98 10.1501 10.75 10.5301 10.1C10.6601 9.86996 10.7201 9.62996 10.7101 9.37996L8.68006 8.20996H8.69006Z" stroke="white" stroke-width="1.5" stroke-linecap="round" stroke-linejoin="round"/> <path opacity="0.4" d="M15.36 8.23999C15.55 8.35999 15.72 8.51999 15.84 8.72999C16.22 9.38999 15.99 10.22 15.34 10.6C14.69 10.98 13.85 10.75 13.47 10.1C13.35 9.88999 13.29 9.66999 13.29 9.43999L15.37 8.23999H15.36Z" stroke="white" stroke-width="1.5" stroke-linecap="round" stroke-linejoin="round"/> </g> <defs> <clipPath id="clip0_2085_384873"> <rect width="24" height="24" fill="white"/> </clipPath> </defs> </svg>
