<svg width="24" height="24" viewBox="0 0 24 24" fill="none" xmlns="http://www.w3.org/2000/svg"> <g clip-path="url(#clip0_4482_5719)"> <path d="M3 17V7C3 4 5 2 8 2H16C19 2 21 4 21 7V17" stroke="white" stroke-width="1.5" stroke-miterlimit="10" stroke-linecap="round" stroke-linejoin="round"/> <g opacity="0.4"> <path d="M6.40039 5.40039L17.6004 16.6004" stroke="white" stroke-width="1.5" stroke-miterlimit="10" stroke-linecap="round" stroke-linejoin="round"/> <path d="M6 10.2803L12.72 17.0003" stroke="white" stroke-width="1.5" stroke-miterlimit="10" stroke-linecap="round" stroke-linejoin="round"/> <path d="M11.2803 5L18.0003 11.72" stroke="white" stroke-width="1.5" stroke-miterlimit="10" stroke-linecap="round" stroke-linejoin="round"/> <path d="M6.40039 16.6004L17.6004 5.40039" stroke="white" stroke-width="1.5" stroke-miterlimit="10" stroke-linecap="round" stroke-linejoin="round"/> <path d="M12 16.28L17.28 11" stroke="white" stroke-width="1.5" stroke-miterlimit="10" stroke-linecap="round" stroke-linejoin="round"/> <path d="M6.71973 10.9997L11.9997 5.71973" stroke="white" stroke-width="1.5" stroke-miterlimit="10" stroke-linecap="round" stroke-linejoin="round"/> </g> <path d="M4 17H2C1.72 17 1.5 17.22 1.5 17.5V21.5C1.5 21.78 1.72 22 2 22H4C4.28 22 4.5 21.78 4.5 21.5V17.5C4.5 17.22 4.28 17 4 17Z" stroke="white" stroke-width="1.5" stroke-miterlimit="10" stroke-linecap="round" stroke-linejoin="round"/> <path d="M22 17H20C19.72 17 19.5 17.22 19.5 17.5V21.5C19.5 21.78 19.72 22 20 22H22C22.28 22 22.5 21.78 22.5 21.5V17.5C22.5 17.22 22.28 17 22 17Z" stroke="white" stroke-width="1.5" stroke-miterlimit="10" stroke-linecap="round" stroke-linejoin="round"/> <path d="M5 20H19" stroke="white" stroke-width="1.5" stroke-miterlimit="10" stroke-linecap="round" stroke-linejoin="round"/> </g> <defs> <clipPath id="clip0_4482_5719"> <rect width="24" height="24" fill="white"/> </clipPath> </defs> </svg>
