<svg width="24" height="24" viewBox="0 0 24 24" fill="none" xmlns="http://www.w3.org/2000/svg"> <g clip-path="url(#clip0_4482_5650)"> <path d="M16.14 7H7.84991C6.27991 7 4.97992 8.21 4.85992 9.77L4.16992 18.77C4.03992 20.51 5.40991 22 7.15991 22H16.83C18.58 22 19.9599 20.51 19.8199 18.77L19.1299 9.77C19.0199 8.21 17.71 7 16.14 7Z" stroke="white" stroke-width="1.5" stroke-miterlimit="10" stroke-linecap="round" stroke-linejoin="round"/> <path opacity="0.4" d="M8 7V4C8 2.9 8.9 2 10 2H14C15.1 2 16 2.9 16 4V7" stroke="white" stroke-width="1.5" stroke-miterlimit="10" stroke-linecap="round" stroke-linejoin="round"/> <path opacity="0.4" d="M8.89014 17.9997V17.2197" stroke="white" stroke-width="1.5" stroke-miterlimit="10" stroke-linecap="round" stroke-linejoin="round"/> <path opacity="0.4" d="M12 17.9997V17.2197" stroke="white" stroke-width="1.5" stroke-miterlimit="10" stroke-linecap="round" stroke-linejoin="round"/> <path opacity="0.4" d="M15.1099 17.9997V17.2197" stroke="white" stroke-width="1.5" stroke-miterlimit="10" stroke-linecap="round" stroke-linejoin="round"/> <path opacity="0.4" d="M10.4399 14.8904V14.1104" stroke="white" stroke-width="1.5" stroke-miterlimit="10" stroke-linecap="round" stroke-linejoin="round"/> <path opacity="0.4" d="M13.5601 14.8904V14.1104" stroke="white" stroke-width="1.5" stroke-miterlimit="10" stroke-linecap="round" stroke-linejoin="round"/> <path opacity="0.4" d="M12 11.78V11" stroke="white" stroke-width="1.5" stroke-miterlimit="10" stroke-linecap="round" stroke-linejoin="round"/> </g> <defs> <clipPath id="clip0_4482_5650"> <rect width="24" height="24" fill="white"/> </clipPath> </defs> </svg>
