<svg width="24" height="24" viewBox="0 0 24 24" fill="none" xmlns="http://www.w3.org/2000/svg"> <g clip-path="url(#clip0_2085_385205)"> <path d="M17.03 14.4902H6.98999" stroke="white" stroke-width="1.5" stroke-linecap="round" stroke-linejoin="round"/> <path d="M22 15.7295V8.77953C22 7.64953 21.55 6.56953 20.76 5.76953C19.96 6.56953 19.51 7.64953 19.51 8.77953V15.7295" stroke="white" stroke-width="1.5" stroke-linecap="round" stroke-linejoin="round"/> <path d="M20.76 4.5293V5.7693" stroke="white" stroke-width="1.5" stroke-linecap="round" stroke-linejoin="round"/> <path d="M6.97998 22V12H17.02V22" stroke="white" stroke-width="1.5" stroke-linecap="round" stroke-linejoin="round"/> <path d="M12 4.49023V6.36023" stroke="white" stroke-width="1.5" stroke-linecap="round" stroke-linejoin="round"/> <path d="M15.7401 11.9994C16.9801 9.50937 12.6901 6.70937 12.0101 6.35938C11.3101 6.72938 7.03008 9.50937 8.28008 11.9994" stroke="white" stroke-width="1.5" stroke-linecap="round" stroke-linejoin="round"/> <path opacity="0.4" d="M9.51001 21.9989V19.5489C9.51001 16.2389 14.49 16.2389 14.49 19.5489V21.9989" stroke="white" stroke-width="1.5" stroke-linecap="round" stroke-linejoin="round"/> <path d="M12.88 4.12977C12.66 4.35977 12.34 4.48977 12 4.48977C11.31 4.48977 10.76 3.92977 10.76 3.24977C10.76 2.56977 11.32 2.00977 12 2.00977" stroke="white" stroke-width="1.5" stroke-linecap="round" stroke-linejoin="round"/> <path opacity="0.4" d="M22 9.50977H19.51" stroke="white" stroke-width="1.5" stroke-linecap="round" stroke-linejoin="round"/> <path d="M17.02 15.7305H22V22.0005H2V15.7305H6.98" stroke="white" stroke-width="1.5" stroke-linecap="round" stroke-linejoin="round"/> <path d="M2 15.7295V8.77953C2 7.64953 2.45 6.56953 3.24 5.76953C4.04 6.56953 4.48 7.64953 4.48 8.77953V15.7295" stroke="white" stroke-width="1.5" stroke-linecap="round" stroke-linejoin="round"/> <path d="M3.23999 4.5293V5.7693" stroke="white" stroke-width="1.5" stroke-linecap="round" stroke-linejoin="round"/> <path opacity="0.4" d="M2 9.50977H4.49" stroke="white" stroke-width="1.5" stroke-linecap="round" stroke-linejoin="round"/> <path opacity="0.4" d="M4.48999 18.2207V22.0007" stroke="white" stroke-width="1.5" stroke-linecap="round" stroke-linejoin="round"/> <path opacity="0.4" d="M19.51 18.2207V22.0007" stroke="white" stroke-width="1.5" stroke-linecap="round" stroke-linejoin="round"/> </g> <defs> <clipPath id="clip0_2085_385205"> <rect width="24" height="24" fill="white"/> </clipPath> </defs> </svg>
