<svg width="24" height="24" viewBox="0 0 24 24" fill="none" xmlns="http://www.w3.org/2000/svg"> <g clip-path="url(#clip0_4482_11268)"> <path d="M22 12V7.56C22 4.49 19.51 2 16.44 2H7.56C4.49 2 2 4.49 2 7.56V16.45C2 19.52 4.49 22.01 7.56 22.01H12" stroke="white" stroke-width="1.5" stroke-linecap="round" stroke-linejoin="round"/> <g opacity="0.4"> <path d="M15.3301 2V12" stroke="white" stroke-width="1.5" stroke-linecap="round" stroke-linejoin="round"/> <path d="M8.66992 2V22" stroke="white" stroke-width="1.5" stroke-linecap="round" stroke-linejoin="round"/> <path d="M2 15.27H12" stroke="white" stroke-width="1.5" stroke-linecap="round" stroke-linejoin="round"/> <path d="M2 8.6001H22" stroke="white" stroke-width="1.5" stroke-linecap="round" stroke-linejoin="round"/> </g> <path d="M16.7197 17.56V16.17C16.7197 15.1 17.5897 14.23 18.6597 14.23C19.7297 14.23 20.5997 15.1 20.5997 16.17V17.56" stroke="white" stroke-width="1.5" stroke-linecap="round" stroke-linejoin="round"/> <path d="M20.6101 17.5601H16.7201C15.9524 17.5601 15.3301 18.1824 15.3301 18.9501V20.6101C15.3301 21.3777 15.9524 22.0001 16.7201 22.0001H20.6101C21.3778 22.0001 22.0001 21.3777 22.0001 20.6101V18.9501C22.0001 18.1824 21.3778 17.5601 20.6101 17.5601Z" stroke="white" stroke-width="1.5" stroke-linecap="round" stroke-linejoin="round"/> </g> <defs> <clipPath id="clip0_4482_11268"> <rect width="24" height="24" fill="white"/> </clipPath> </defs> </svg>
