<svg width="24" height="24" viewBox="0 0 24 24" fill="none" xmlns="http://www.w3.org/2000/svg"> <g clip-path="url(#clip0_2085_389715)"> <path d="M16.62 12.4005L6.73998 11.5705C6.35998 11.5405 5.96998 11.5705 5.59998 11.6805C4.84998 11.8805 4.17998 12.3205 3.70998 12.9305C3.23998 13.5505 2.97998 14.3005 2.97998 15.0805V15.2205C2.97998 15.7005 3.07998 16.1805 3.26998 16.6205C3.45998 17.0605 3.73998 17.4605 4.08998 17.7905C4.27998 17.9705 4.48998 18.1205 4.71998 18.2605C5.19998 18.5405 5.73998 18.7005 6.28998 18.7405C6.42998 18.7505 6.57998 18.7505 6.71998 18.7405L16.54 17.9305C17.24 17.8805 17.9 17.5705 18.38 17.0505C18.86 16.5405 19.12 15.8605 19.13 15.1605V15.1005C19.13 14.4205 18.87 13.7605 18.41 13.2605C17.95 12.7605 17.31 12.4505 16.63 12.4005H16.62Z" stroke="white" stroke-width="1.5" stroke-linecap="round" stroke-linejoin="round"/> <path d="M6.29006 7.24031L3.44007 7.27031C3.22007 7.27031 3.00007 7.23031 2.80007 7.13031C2.60007 7.03031 2.43007 6.89031 2.29007 6.72031C2.16007 6.55031 2.06007 6.34031 2.02007 6.13031C1.98007 5.91031 1.98007 5.69031 2.04007 5.48031C2.13007 5.16031 2.33006 4.88031 2.62006 4.71031C2.90006 4.53031 3.24007 4.47031 3.57007 4.53031L6.29006 5.50031C6.47006 5.53031 6.64007 5.62031 6.76007 5.76031C6.89007 5.89031 6.97006 6.06031 6.99006 6.25031C7.01006 6.43031 6.98006 6.62031 6.89006 6.78031C6.80006 6.94031 6.66006 7.07031 6.50006 7.15031L6.35006 7.24031C6.35006 7.24031 6.31006 7.24031 6.29006 7.24031Z" stroke="white" stroke-width="1.5" stroke-linecap="round" stroke-linejoin="round"/> <path opacity="0.4" d="M5.60011 11.6905L4.11011 7.27051" stroke="white" stroke-width="1.5" stroke-linecap="round" stroke-linejoin="round"/> <path d="M13.1401 4.64062L16.6201 12.4006" stroke="white" stroke-width="1.5" stroke-linecap="round" stroke-linejoin="round"/> <path d="M12.01 4.64027H15.53C16.03 4.64027 16.5 4.44027 16.85 4.10027C17.2 3.75027 17.4 3.27027 17.4 2.78027" stroke="white" stroke-width="1.5" stroke-linecap="round" stroke-linejoin="round"/> <path d="M5.60011 18.7402L3.86011 21.2302" stroke="white" stroke-width="1.5" stroke-linecap="round" stroke-linejoin="round"/> <g opacity="0.4"> <path d="M11.3301 11.9906C11.3501 11.8106 11.4301 11.6406 11.5401 11.5006C12.0401 10.9106 12.6601 10.4306 13.3601 10.0906C14.0601 9.75059 14.8201 9.56059 15.6001 9.53059C16.3801 9.50059 17.1501 9.63059 17.8701 9.92059C18.5901 10.2106 19.2501 10.6406 19.7901 11.1906C20.3401 11.7406 20.7601 12.4006 21.0401 13.1206C21.3201 13.8406 21.4501 14.6206 21.4101 15.4006C21.3701 16.1806 21.1801 16.9406 20.8301 17.6306C20.4901 18.3306 20.0001 18.9406 19.4101 19.4406C18.8501 19.9106 18.2001 20.2706 17.5101 20.5006C16.9501 20.6806 16.3601 20.7706 15.7801 20.7706C14.9701 20.7706 14.1701 20.5906 13.4401 20.2506C12.7001 19.9106 12.0501 19.4206 11.5301 18.8006C11.4101 18.6706 11.3401 18.5006 11.3201 18.3206L16.5501 17.9206C17.2501 17.8706 17.9101 17.5606 18.3901 17.0406C18.8701 16.5306 19.1301 15.8506 19.1401 15.1506V15.0906C19.1401 14.4006 18.8801 13.7506 18.4101 13.2406C17.9401 12.7406 17.3001 12.4406 16.6201 12.3906L11.3501 11.9806L11.3301 11.9906Z" stroke="white" stroke-width="1.5" stroke-linecap="round" stroke-linejoin="round"/> <path d="M20.1602 18.7109L22.0002 21.2209" stroke="white" stroke-width="1.5" stroke-linecap="round" stroke-linejoin="round"/> </g> </g> <defs> <clipPath id="clip0_2085_389715"> <rect width="24" height="24" fill="white"/> </clipPath> </defs> </svg>
