<svg width="24" height="24" viewBox="0 0 24 24" fill="none" xmlns="http://www.w3.org/2000/svg"> <g clip-path="url(#clip0_2085_389714)"> <path d="M11.8799 6.02008C11.5399 6.97008 10.6299 7.64008 9.56992 7.64008C9.08992 7.64008 8.62992 7.50008 8.24992 7.26008C7.71992 6.93008 7.41992 6.33008 7.41992 5.70008V4.70008C7.41992 4.08008 7.92992 3.58008 8.53992 3.58008H15.5299C16.1499 3.58008 16.6499 4.09008 16.6499 4.70008V5.71008C16.6499 6.27008 16.4199 6.82008 15.9799 7.15008C15.5699 7.46008 15.0599 7.64008 14.5099 7.64008C13.4399 7.64008 12.5299 6.97008 12.1899 6.02008H11.8899H11.8799Z" stroke="white" stroke-width="1.5" stroke-linecap="round" stroke-linejoin="round"/> <path opacity="0.4" d="M16.6499 5.23047H18.1899C19.3099 5.23047 20.2099 6.13047 20.2099 7.25047V10.4505" stroke="white" stroke-width="1.5" stroke-linecap="round" stroke-linejoin="round"/> <path opacity="0.4" d="M3.79004 10.4505V7.25047C3.79004 6.14047 4.69004 5.23047 5.81004 5.23047H7.41004" stroke="white" stroke-width="1.5" stroke-linecap="round" stroke-linejoin="round"/> <path d="M2 10.4502H5.58" stroke="white" stroke-width="1.5" stroke-linecap="round" stroke-linejoin="round"/> <path d="M18.4199 10.4502H21.9999" stroke="white" stroke-width="1.5" stroke-linecap="round" stroke-linejoin="round"/> <path d="M11.8799 15.9898C11.5399 16.9398 10.6299 17.6098 9.56992 17.6098C9.08992 17.6098 8.62992 17.4698 8.24992 17.2298C7.71992 16.8998 7.41992 16.2998 7.41992 15.6698V14.6698C7.41992 14.0498 7.92992 13.5498 8.53992 13.5498H15.5299C16.1499 13.5498 16.6499 14.0598 16.6499 14.6698V15.6798C16.6499 16.2398 16.4199 16.7898 15.9799 17.1198C15.5699 17.4298 15.0599 17.6098 14.5099 17.6098C13.4399 17.6098 12.5299 16.9398 12.1899 15.9898H11.8899H11.8799Z" stroke="white" stroke-width="1.5" stroke-linecap="round" stroke-linejoin="round"/> <path opacity="0.4" d="M16.6499 15.2002H18.1899C19.3099 15.2002 20.2099 16.1002 20.2099 17.2202V20.4202" stroke="white" stroke-width="1.5" stroke-linecap="round" stroke-linejoin="round"/> <path opacity="0.4" d="M3.79004 20.4202V17.2202C3.79004 16.1102 4.69004 15.2002 5.81004 15.2002H7.41004" stroke="white" stroke-width="1.5" stroke-linecap="round" stroke-linejoin="round"/> <path d="M2 20.4199H5.58" stroke="white" stroke-width="1.5" stroke-linecap="round" stroke-linejoin="round"/> <path d="M18.4199 20.4199H21.9999" stroke="white" stroke-width="1.5" stroke-linecap="round" stroke-linejoin="round"/> </g> <defs> <clipPath id="clip0_2085_389714"> <rect width="24" height="24" fill="white"/> </clipPath> </defs> </svg>
