<svg width="24" height="24" viewBox="0 0 24 24" fill="none" xmlns="http://www.w3.org/2000/svg"> <g clip-path="url(#clip0_2085_385046)"> <path d="M8.66016 8.43018V19.3902C8.66016 20.2602 9.17016 22.0002 11.2102 22.0002C13.2502 22.0002 13.7602 20.2602 13.7602 19.3902V16.2602C14.4302 15.3502 15.5002 14.1902 16.5902 13.0502" stroke="white" stroke-width="1.5" stroke-linecap="round" stroke-linejoin="round"/> <path opacity="0.4" d="M14.1501 18.87H15.8601C16.3501 18.87 16.7501 18.47 16.7501 17.98V16.64C16.7501 16.15 16.3501 15.75 15.8601 15.75H14.5601" stroke="white" stroke-width="1.5" stroke-linecap="round" stroke-linejoin="round"/> <path opacity="0.4" d="M7.8601 2L6.0301 2.49L6.5201 4.32L4.6901 4.81L5.1801 6.64L3.3501 7.13L3.8401 8.96" stroke="white" stroke-width="1.5" stroke-linecap="round" stroke-linejoin="round"/> <path d="M16.1245 6.68506C16.0206 6.68529 15.9353 6.77063 15.9351 6.87451L15.939 6.9126C15.9566 6.99889 16.0334 7.06474 16.1245 7.06494C16.2287 7.06494 16.3149 6.97872 16.3149 6.87451C16.3147 6.78338 16.2489 6.70663 16.1626 6.68896L16.1245 6.68506ZM17.4351 6.87451C17.4351 7.59873 16.8487 8.18506 16.1245 8.18506C15.4005 8.18483 14.8149 7.59858 14.8149 6.87451C14.8152 6.15064 15.4006 5.56517 16.1245 5.56494C16.8486 5.56494 17.4348 6.1505 17.4351 6.87451Z" fill="white"/> <path d="M16.1245 6.68506C16.0206 6.68529 15.9353 6.77063 15.9351 6.87451L15.939 6.9126C15.9566 6.99889 16.0334 7.06474 16.1245 7.06494C16.2287 7.06494 16.3149 6.97872 16.3149 6.87451C16.3147 6.78338 16.2489 6.70663 16.1626 6.68896L16.1245 6.68506Z" fill="white"/> <path d="M13.4246 9.39014C13.3207 9.39037 13.2353 9.47571 13.2351 9.57959L13.239 9.61768C13.2567 9.70396 13.3334 9.76981 13.4246 9.77002C13.5288 9.77002 13.615 9.6838 13.615 9.57959C13.6148 9.48845 13.5489 9.41171 13.4626 9.39404L13.4246 9.39014ZM14.7351 9.57959C14.7351 10.3038 14.1488 10.8901 13.4246 10.8901C12.7005 10.8899 12.115 10.3037 12.115 9.57959C12.1152 8.85572 12.7007 8.27025 13.4246 8.27002C14.1486 8.27002 14.7349 8.85558 14.7351 9.57959Z" fill="white"/> <path d="M13.4246 9.39014C13.3207 9.39037 13.2353 9.47571 13.2351 9.57959L13.239 9.61768C13.2567 9.70396 13.3334 9.76981 13.4246 9.77002C13.5288 9.77002 13.615 9.6838 13.615 9.57959C13.6148 9.48845 13.5489 9.41171 13.4626 9.39404L13.4246 9.39014Z" fill="white"/> <path d="M15.6602 3H13.6602C10.8987 3 8.66016 5.23858 8.66016 8C8.66016 10.7614 10.8987 13 13.6602 13H15.6602C18.4216 13 20.6602 10.7614 20.6602 8C20.6602 5.23858 18.4216 3 15.6602 3Z" stroke="white" stroke-width="1.5" stroke-linecap="round" stroke-linejoin="round"/> </g> <defs> <clipPath id="clip0_2085_385046"> <rect width="24" height="24" fill="white"/> </clipPath> </defs> </svg>
