<svg width="24" height="24" viewBox="0 0 24 24" fill="none" xmlns="http://www.w3.org/2000/svg"> <path fill-rule="evenodd" clip-rule="evenodd" d="M7.5 2.75C5.71421 2.75 4.25 4.21421 4.25 6V18C4.25 19.7858 5.71421 21.25 7.5 21.25H16.5C18.2858 21.25 19.75 19.7858 19.75 18V6C19.75 4.21421 18.2858 2.75 16.5 2.75H7.5ZM2.75 6C2.75 3.38579 4.88579 1.25 7.5 1.25H16.5C19.1142 1.25 21.25 3.38579 21.25 6V18C21.25 20.6142 19.1142 22.75 16.5 22.75H7.5C4.88579 22.75 2.75 20.6142 2.75 18V6Z" fill="white"/> <path fill-rule="evenodd" clip-rule="evenodd" d="M14.5 4.25C14.9142 4.25 15.25 4.58579 15.25 5V6C15.25 6.68579 15.8142 7.25 16.5 7.25H17.5C17.9142 7.25 18.25 7.58579 18.25 8C18.25 8.41421 17.9142 8.75 17.5 8.75H16.5C14.9858 8.75 13.75 7.51421 13.75 6V5C13.75 4.58579 14.0858 4.25 14.5 4.25Z" fill="white"/> <g opacity="0.4"> <path fill-rule="evenodd" clip-rule="evenodd" d="M10.9732 10.8702C11.3818 10.9382 11.6579 11.3245 11.5899 11.7331L10.4399 18.6431C10.3719 19.0517 9.98554 19.3278 9.57694 19.2598C9.16835 19.1918 8.89224 18.8055 8.96024 18.3969L10.1102 11.4869C10.1782 11.0783 10.5646 10.8022 10.9732 10.8702Z" fill="white"/> <path fill-rule="evenodd" clip-rule="evenodd" d="M14.4231 10.8702C14.8317 10.9382 15.1078 11.3245 15.0398 11.7331L13.8898 18.6431C13.8218 19.0517 13.4355 19.3278 13.0269 19.2598C12.6183 19.1918 12.3422 18.8055 12.4102 18.3969L13.5602 11.4869C13.6282 11.0783 14.0146 10.8022 14.4231 10.8702Z" fill="white"/> <path fill-rule="evenodd" clip-rule="evenodd" d="M8.05005 13.3699C8.05005 12.9557 8.38584 12.6199 8.80005 12.6199H15.8C16.2143 12.6199 16.55 12.9557 16.55 13.3699C16.55 13.7841 16.2143 14.1199 15.8 14.1199H8.80005C8.38584 14.1199 8.05005 13.7841 8.05005 13.3699Z" fill="white"/> <path fill-rule="evenodd" clip-rule="evenodd" d="M7.44995 16.77C7.44995 16.3558 7.78574 16.02 8.19995 16.02H15.2C15.6142 16.02 15.95 16.3558 15.95 16.77C15.95 17.1842 15.6142 17.52 15.2 17.52H8.19995C7.78574 17.52 7.44995 17.1842 7.44995 16.77Z" fill="white"/> </g> </svg>
