<svg width="24" height="24" viewBox="0 0 24 24" fill="none" xmlns="http://www.w3.org/2000/svg"> <g clip-path="url(#clip0_2085_392015)"> <path d="M13.39 6.12012L2.93 16.5801C1.69 17.8201 1.69 19.8301 2.93 21.0701C4.17 22.3101 6.18 22.3101 7.42 21.0701L17.88 10.6101L13.39 6.12012Z" stroke="white" stroke-width="1.5" stroke-linecap="round" stroke-linejoin="round"/> <path opacity="0.4" d="M14.3101 4.10012L13.5501 4.86012C13.1601 5.25012 13.1601 5.88012 13.5501 6.27012L17.7201 10.4401C18.1101 10.8301 18.7401 10.8301 19.1301 10.4401L19.8901 9.68012C20.2801 9.29012 20.2801 8.66012 19.8901 8.27012L15.7201 4.10012C15.3301 3.71012 14.7001 3.71012 14.3101 4.10012Z" stroke="white" stroke-width="1.5" stroke-linecap="round" stroke-linejoin="round"/> <path d="M21.1999 4.5604L19.4399 2.8004C19.0099 2.3704 18.3099 2.4204 17.9399 2.8904L16.4399 4.8204L19.1699 7.5504L21.0999 6.0504C21.5799 5.6804 21.6199 4.9804 21.1899 4.5504L21.1999 4.5604Z" stroke="white" stroke-width="1.5" stroke-linecap="round" stroke-linejoin="round"/> <path opacity="0.4" d="M11.22 10.9805L12.12 11.8805" stroke="white" stroke-width="1.5" stroke-linecap="round" stroke-linejoin="round"/> <path d="M5.97998 16.2207L6.87998 17.1207" stroke="white" stroke-width="1.5" stroke-linecap="round" stroke-linejoin="round"/> <path opacity="0.4" d="M9.5 14.5L10.4 15.4" stroke="white" stroke-width="1.5" stroke-linecap="round" stroke-linejoin="round"/> </g> <defs> <clipPath id="clip0_2085_392015"> <rect width="24" height="24" fill="white"/> </clipPath> </defs> </svg>
