<svg width="24" height="24" viewBox="0 0 24 24" fill="none" xmlns="http://www.w3.org/2000/svg"> <g clip-path="url(#clip0_2085_392017)"> <path d="M12 17.99C12.7 17.99 13.26 18.55 13.26 19.25V20.44H21C21.55 20.44 22 19.99 22 19.44V18.95C22 18.4 21.55 17.95 21 17.95H15.52C14.99 16.52 13.62 15.5 12 15.5C10.38 15.5 9.01 16.52 8.48 17.95H3C2.45 17.95 2 18.4 2 18.95V19.44C2 19.99 2.45 20.44 3 20.44H10.74V19.25C10.74 18.55 11.3 17.99 12 17.99Z" stroke="white" stroke-width="1.5" stroke-linecap="round" stroke-linejoin="round"/> <path d="M2.87012 17.9497V15.2197C2.87012 14.6697 3.32012 14.2197 3.87012 14.2197H4.07012C6.71012 14.2197 9.33012 14.6297 11.8401 15.4397L12.0001 15.4897" stroke="white" stroke-width="1.5" stroke-linecap="round" stroke-linejoin="round"/> <path opacity="0.4" d="M21.13 17.9497V15.2197C21.13 14.6697 20.68 14.2197 20.13 14.2197H19.93C17.29 14.2197 14.67 14.6297 12.16 15.4397L12 15.4897" stroke="white" stroke-width="1.5" stroke-linecap="round" stroke-linejoin="round"/> <path d="M18.1499 4.13965V6.76965" stroke="white" stroke-width="1.5" stroke-linecap="round" stroke-linejoin="round"/> <path d="M19.4601 5.44922H16.8301" stroke="white" stroke-width="1.5" stroke-linecap="round" stroke-linejoin="round"/> <path d="M8.69995 7.61914V10.2491" stroke="white" stroke-width="1.5" stroke-linecap="round" stroke-linejoin="round"/> <path d="M10.0199 8.92969H7.38989" stroke="white" stroke-width="1.5" stroke-linecap="round" stroke-linejoin="round"/> <path opacity="0.4" d="M5.53005 5.18922C5.53005 5.87922 4.97005 6.42922 4.29005 6.42922C3.61005 6.42922 3.05005 5.86922 3.05005 5.18922C3.05005 4.50922 3.61005 3.94922 4.29005 3.94922C4.97005 3.94922 5.53005 4.50922 5.53005 5.18922Z" stroke="white" stroke-width="1.5" stroke-linecap="round" stroke-linejoin="round"/> <path opacity="0.4" d="M14.8699 11.1199C14.8699 11.8099 14.3099 12.3599 13.6299 12.3599C12.9499 12.3599 12.3799 11.7999 12.3799 11.1199C12.3799 10.4399 12.9399 9.87988 13.6299 9.87988C14.3199 9.87988 14.8699 10.4399 14.8699 11.1199Z" stroke="white" stroke-width="1.5" stroke-linecap="round" stroke-linejoin="round"/> <path d="M9.95996 3.55957H11.2" stroke="white" stroke-width="1.5" stroke-linecap="round" stroke-linejoin="round"/> <path d="M18.3999 10.25H19.6499" stroke="white" stroke-width="1.5" stroke-linecap="round" stroke-linejoin="round"/> <path d="M12.1001 6.59961H13.3401" stroke="white" stroke-width="1.5" stroke-linecap="round" stroke-linejoin="round"/> <path d="M4.04004 11.4492H5.28004" stroke="white" stroke-width="1.5" stroke-linecap="round" stroke-linejoin="round"/> </g> <defs> <clipPath id="clip0_2085_392017"> <rect width="24" height="24" fill="white"/> </clipPath> </defs> </svg>
