<svg width="24" height="24" viewBox="0 0 24 24" fill="none" xmlns="http://www.w3.org/2000/svg"> <g clip-path="url(#clip0_4418_6217)"> <path opacity="0.4" d="M21.49 11.9996C21.81 10.9796 22 9.87964 22 8.68964C22 5.59964 19.51 3.09961 16.44 3.09961C14.62 3.09961 13.01 3.97966 12 5.33966C10.99 3.97966 9.37 3.09961 7.56 3.09961C4.49 3.09961 2 5.59964 2 8.68964C2 15.6896 8.48 19.8196 11.38 20.8196C11.55 20.8796 11.77 20.9096 12 20.9096" stroke="white" stroke-width="1.5" stroke-linecap="round" stroke-linejoin="round"/> <path d="M19.21 15.741L15.67 19.281C15.53 19.421 15.4 19.681 15.37 19.871L15.18 21.221C15.11 21.711 15.45 22.051 15.94 21.981L17.29 21.791C17.48 21.761 17.75 21.631 17.88 21.491L21.42 17.951C22.03 17.341 22.32 16.631 21.42 15.731C20.53 14.841 19.82 15.131 19.21 15.741Z" stroke="white" stroke-width="1.5" stroke-miterlimit="10" stroke-linecap="round" stroke-linejoin="round"/> <path d="M18.7002 16.25C19.0002 17.33 19.8402 18.17 20.9202 18.47" stroke="white" stroke-width="1.5" stroke-miterlimit="10" stroke-linecap="round" stroke-linejoin="round"/> </g> <defs> <clipPath id="clip0_4418_6217"> <rect width="24" height="24" fill="white"/> </clipPath> </defs> </svg>
