<svg width="24" height="24" viewBox="0 0 24 24" fill="none" xmlns="http://www.w3.org/2000/svg"> <g clip-path="url(#clip0_4482_15122)"> <path d="M19.2204 22.0004C20.7558 22.0004 22.0004 20.7558 22.0004 19.2204C22.0004 17.6851 20.7558 16.4404 19.2204 16.4404C17.6851 16.4404 16.4404 17.6851 16.4404 19.2204C16.4404 20.7558 17.6851 22.0004 19.2204 22.0004Z" stroke="white" stroke-width="1.5" stroke-linecap="round" stroke-linejoin="round"/> <path d="M4.78 7.56C6.31535 7.56 7.56 6.31535 7.56 4.78C7.56 3.24465 6.31535 2 4.78 2C3.24465 2 2 3.24465 2 4.78C2 6.31535 3.24465 7.56 4.78 7.56Z" stroke="white" stroke-width="1.5" stroke-linecap="round" stroke-linejoin="round"/> <path d="M19.2204 7.56C20.7558 7.56 22.0004 6.31535 22.0004 4.78C22.0004 3.24465 20.7558 2 19.2204 2C17.6851 2 16.4404 3.24465 16.4404 4.78C16.4404 6.31535 17.6851 7.56 19.2204 7.56Z" stroke="white" stroke-width="1.5" stroke-linecap="round" stroke-linejoin="round"/> <g opacity="0.4"> <path d="M13.1103 19.2196H8.78027C6.57027 19.2196 4.78027 17.4296 4.78027 15.2196V7.55957" stroke="white" stroke-width="1.5" stroke-linecap="round" stroke-linejoin="round"/> <path d="M13.1101 19.2197L10.3301 21.9997" stroke="white" stroke-width="1.5" stroke-linecap="round" stroke-linejoin="round"/> </g> <path opacity="0.4" d="M19.2197 16.4396V7.55957" stroke="white" stroke-width="1.5" stroke-linecap="round" stroke-linejoin="round"/> </g> <defs> <clipPath id="clip0_4482_15122"> <rect width="24" height="24" fill="white"/> </clipPath> </defs> </svg>
