<svg width="24" height="24" viewBox="0 0 24 24" fill="none" xmlns="http://www.w3.org/2000/svg"> <g clip-path="url(#clip0_4482_10496)"> <path opacity="0.4" d="M10.89 21.9999H6.44C3.99 21.9999 2 20.0099 2 17.5599V10.9999C2 9.47988 2.69 8.03988 3.88 7.09988L8.88 3.09988C10.71 1.63988 13.3 1.63988 15.13 3.09988L20.13 7.09988C21.32 8.04988 22.01 9.48988 22.01 10.9999V13.1099" stroke="white" stroke-width="1.5" stroke-linecap="round" stroke-linejoin="round"/> <path d="M15.3301 11.9999L15.8901 11.4399" stroke="white" stroke-width="1.5" stroke-linecap="round" stroke-linejoin="round"/> <path d="M20.2096 18.7799L18.7896 19.3799C18.5496 19.4799 18.3696 19.6699 18.2696 19.8999L17.6696 21.3199C17.4896 21.7499 17.0496 22.0299 16.5796 21.9999C16.1096 21.9699 15.7096 21.6599 15.5796 21.1999L14.2696 16.7599C14.1596 16.3699 14.2696 15.9499 14.5496 15.6599C14.8396 15.3699 15.2596 15.2599 15.6496 15.3799L20.0896 16.6899C20.5396 16.8199 20.8596 17.2199 20.8896 17.6899C20.9196 18.1599 20.6396 18.5899 20.2096 18.7799Z" stroke="white" stroke-width="1.5" stroke-linecap="round" stroke-linejoin="round"/> <path d="M10.3301 16.9999L10.8901 16.4399" stroke="white" stroke-width="1.5" stroke-linecap="round" stroke-linejoin="round"/> <path d="M11.4399 12.56L10.8799 12" stroke="white" stroke-width="1.5" stroke-linecap="round" stroke-linejoin="round"/> </g> <defs> <clipPath id="clip0_4482_10496"> <rect width="24" height="24" fill="white"/> </clipPath> </defs> </svg>
