<svg width="24" height="24" viewBox="0 0 24 24" fill="none" xmlns="http://www.w3.org/2000/svg"> <g clip-path="url(#clip0_4482_8495)"> <path d="M12 17.08V14.89" stroke="white" stroke-width="1.5" stroke-linecap="round" stroke-linejoin="round"/> <path d="M11.9996 14.89C13.2091 14.89 14.1896 13.9095 14.1896 12.7C14.1896 11.4905 13.2091 10.51 11.9996 10.51C10.7901 10.51 9.80957 11.4905 9.80957 12.7C9.80957 13.9095 10.7901 14.89 11.9996 14.89Z" stroke="white" stroke-width="1.5" stroke-linecap="round" stroke-linejoin="round"/> <path opacity="0.4" d="M16.8504 22H7.15039C4.39039 22 2.15039 19.76 2.15039 17V11.05C2.15039 9.52999 2.84039 8.08999 4.03039 7.14999L8.88039 3.26999C10.7104 1.80999 13.3004 1.80999 15.1304 3.26999L19.9804 7.14999C21.1704 8.09999 21.8604 9.53999 21.8604 11.05V17C21.8604 19.76 19.6204 22 16.8604 22H16.8504Z" stroke="white" stroke-width="1.5" stroke-linecap="round" stroke-linejoin="round"/> </g> <defs> <clipPath id="clip0_4482_8495"> <rect width="24" height="24" fill="white"/> </clipPath> </defs> </svg>
