<svg width="24" height="24" viewBox="0 0 24 24" fill="none" xmlns="http://www.w3.org/2000/svg"> <g clip-path="url(#clip0_4482_10508)"> <path opacity="0.4" d="M2 17.5601V10.8501C2 9.33014 2.69 7.89014 3.88 6.95014L8.53 3.23014C10.56 1.61014 13.44 1.61014 15.47 3.23014L20.12 6.95014C21.31 7.90014 22 9.34014 22 10.8501V17.5601C22 20.0101 20.01 22.0001 17.56 22.0001H6.44C3.99 22.0001 2 20.0101 2 17.5601Z" stroke="white" stroke-width="1.5" stroke-linecap="round" stroke-linejoin="round"/> <path d="M8.21964 11.4198C9.10964 7.5098 14.8996 7.5098 15.7896 11.4198C16.3096 13.7098 14.8796 15.6598 13.6296 16.8598C12.7196 17.7398 11.2896 17.7398 10.3696 16.8598C9.11964 15.6598 7.69964 13.7098 8.21964 11.4198Z" stroke="white" stroke-width="1.5"/> </g> <defs> <clipPath id="clip0_4482_10508"> <rect width="24" height="24" fill="white"/> </clipPath> </defs> </svg>
