<svg width="24" height="24" viewBox="0 0 24 24" fill="none" xmlns="http://www.w3.org/2000/svg"> <g clip-path="url(#clip0_2085_392018)"> <path d="M15.1499 10.1698L11.9999 11.9998L8.84985 10.1698C8.53985 9.98977 8.34985 9.65977 8.34985 9.30977V4.50977H15.6399V9.30977C15.6399 9.66977 15.4499 9.99977 15.1399 10.1698H15.1499Z" stroke="white" stroke-width="1.5" stroke-linecap="round" stroke-linejoin="round"/> <path opacity="0.4" d="M8.84986 13.83L11.9999 12L15.1499 13.83C15.4599 14.01 15.6499 14.34 15.6499 14.69V19.49H8.35986V14.69C8.35986 14.33 8.54986 14 8.85986 13.83H8.84986Z" stroke="white" stroke-width="1.5" stroke-linecap="round" stroke-linejoin="round"/> <path d="M16.1099 2H7.88989C7.33989 2 6.88989 2.45 6.88989 3V3.51C6.88989 4.06 7.33989 4.51 7.88989 4.51H16.1199C16.6699 4.51 17.1199 4.06 17.1199 3.51V3C17.1199 2.45 16.6699 2 16.1199 2H16.1099Z" stroke="white" stroke-width="1.5" stroke-linecap="round" stroke-linejoin="round"/> <path d="M16.1099 19.4902H7.88989C7.33989 19.4902 6.88989 19.9402 6.88989 20.4902V21.0002C6.88989 21.5502 7.33989 22.0002 7.88989 22.0002H16.1199C16.6699 22.0002 17.1199 21.5502 17.1199 21.0002V20.4902C17.1199 19.9402 16.6699 19.4902 16.1199 19.4902H16.1099Z" stroke="white" stroke-width="1.5" stroke-linecap="round" stroke-linejoin="round"/> <path d="M15.1399 19.4896L12.6899 17.1496C12.2999 16.7796 11.6899 16.7796 11.3099 17.1496L8.85986 19.4896" stroke="white" stroke-width="1.5" stroke-linecap="round" stroke-linejoin="round"/> <path opacity="0.4" d="M8.35986 7.82031H15.6499" stroke="white" stroke-width="1.5" stroke-linecap="round" stroke-linejoin="round"/> </g> <defs> <clipPath id="clip0_2085_392018"> <rect width="24" height="24" fill="white"/> </clipPath> </defs> </svg>
