<svg width="24" height="24" viewBox="0 0 24 24" fill="none" xmlns="http://www.w3.org/2000/svg"> <g clip-path="url(#clip0_4482_12755)"> <path d="M18.1096 11.4404H5.88965" stroke="white" stroke-width="1.5" stroke-linecap="round" stroke-linejoin="round"/> <path d="M13.3996 15.8896H10.5996" stroke="white" stroke-width="1.5" stroke-linecap="round" stroke-linejoin="round"/> <path d="M8.67047 18.1105C9.7419 18.1105 10.6105 17.2419 10.6105 16.1705C10.6105 15.099 9.7419 14.2305 8.67047 14.2305C7.59904 14.2305 6.73047 15.099 6.73047 16.1705C6.73047 17.2419 7.59904 18.1105 8.67047 18.1105Z" stroke="white" stroke-width="1.5" stroke-linecap="round" stroke-linejoin="round"/> <path d="M15.3296 18.1105C16.4011 18.1105 17.2696 17.2419 17.2696 16.1705C17.2696 15.099 16.4011 14.2305 15.3296 14.2305C14.2582 14.2305 13.3896 15.099 13.3896 16.1705C13.3896 17.2419 14.2582 18.1105 15.3296 18.1105Z" stroke="white" stroke-width="1.5" stroke-linecap="round" stroke-linejoin="round"/> <path d="M7.55957 11.4399L8.27957 7.11988C8.39957 6.40988 9.01957 5.87988 9.73957 5.87988H14.2696C14.9896 5.87988 15.6096 6.39988 15.7296 7.11988L16.4496 11.4399" stroke="white" stroke-width="1.5" stroke-linecap="round" stroke-linejoin="round"/> <path opacity="0.4" d="M17 2H7C4.23858 2 2 4.23858 2 7V17C2 19.7614 4.23858 22 7 22H17C19.7614 22 22 19.7614 22 17V7C22 4.23858 19.7614 2 17 2Z" stroke="white" stroke-width="1.5" stroke-linecap="round" stroke-linejoin="round"/> </g> <defs> <clipPath id="clip0_4482_12755"> <rect width="24" height="24" fill="white"/> </clipPath> </defs> </svg>
