<svg width="24" height="24" viewBox="0 0 24 24" fill="none" xmlns="http://www.w3.org/2000/svg"> <g clip-path="url(#clip0_2085_385214)"> <path d="M9.4099 19.5098H1.8999V21.9998H21.8999V19.5098H14.3899" stroke="white" stroke-width="1.5" stroke-linecap="round" stroke-linejoin="round"/> <path d="M4.43994 19.5095V17.0195H19.3799V19.5095" stroke="white" stroke-width="1.5" stroke-linecap="round" stroke-linejoin="round"/> <path d="M19.3699 10.7109H4.42993L4.57993 11.3109C4.85993 12.4209 5.84993 13.2009 6.98993 13.2009H16.7999C17.9399 13.2009 18.9399 12.4209 19.2199 11.3109L19.3699 10.7109Z" stroke="white" stroke-width="1.5" stroke-linecap="round" stroke-linejoin="round"/> <path opacity="0.4" d="M15.5599 10.7107C16.6999 10.7107 17.6999 9.9307 17.9799 8.8207L18.1299 8.2207H5.67993L5.82993 8.8207C6.10993 9.9307 7.09993 10.7107 8.24993 10.7107" stroke="white" stroke-width="1.5" stroke-linecap="round" stroke-linejoin="round"/> <path d="M14.3199 8.22047C15.4599 8.22047 16.4599 7.44047 16.7299 6.33047L16.8799 5.73047H6.91992L7.06992 6.33047C7.34992 7.44047 8.33992 8.22047 9.48992 8.22047" stroke="white" stroke-width="1.5" stroke-linecap="round" stroke-linejoin="round"/> <path d="M13.0699 5.73023C14.2099 5.73023 15.2099 4.95023 15.4799 3.84023L15.6299 3.24023H8.15991L8.30991 3.84023C8.58991 4.95023 9.57991 5.73023 10.7199 5.73023" stroke="white" stroke-width="1.5" stroke-linecap="round" stroke-linejoin="round"/> <path d="M11.8999 2V3.24" stroke="white" stroke-width="1.5" stroke-linecap="round" stroke-linejoin="round"/> <path d="M16.8799 13.1992V17.0192" stroke="white" stroke-width="1.5" stroke-linecap="round" stroke-linejoin="round"/> <path d="M6.91992 17.0192V13.1992" stroke="white" stroke-width="1.5" stroke-linecap="round" stroke-linejoin="round"/> <path opacity="0.4" d="M9.40991 17.0192V13.1992" stroke="white" stroke-width="1.5" stroke-linecap="round" stroke-linejoin="round"/> <path opacity="0.4" d="M14.3899 13.1992V17.0192" stroke="white" stroke-width="1.5" stroke-linecap="round" stroke-linejoin="round"/> <path opacity="0.4" d="M8.16992 21.9995L10.6599 17.0195" stroke="white" stroke-width="1.5" stroke-linecap="round" stroke-linejoin="round"/> <path opacity="0.4" d="M13.1499 17.0195L15.6399 21.9995" stroke="white" stroke-width="1.5" stroke-linecap="round" stroke-linejoin="round"/> </g> <defs> <clipPath id="clip0_2085_385214"> <rect width="24" height="24" fill="white"/> </clipPath> </defs> </svg>
