<svg width="24" height="24" viewBox="0 0 24 24" fill="none" xmlns="http://www.w3.org/2000/svg"> <g clip-path="url(#clip0_2085_392020)"> <path d="M16.1299 8.22953H7.85986C8.28986 6.00953 9.54986 4.01953 11.4199 2.68953L11.9999 2.26953L12.5799 2.68953C14.4499 4.01953 15.7099 6.00953 16.1299 8.22953Z" stroke="white" stroke-width="1.5" stroke-linecap="round" stroke-linejoin="round"/> <path d="M16.13 8.22949H7.85995C7.75995 8.77949 7.69995 9.33949 7.69995 9.90949V11.9195H7.70995V18.0495H16.29V9.90949C16.29 9.33949 16.23 8.77949 16.13 8.22949ZM12 14.9795C10.98 14.9795 10.16 14.1495 10.16 13.1395C10.16 12.1295 10.98 11.2995 12 11.2995C13.02 11.2995 13.84 12.1195 13.84 13.1395C13.84 14.1595 13.02 14.9795 12 14.9795Z" stroke="white" stroke-width="1.5" stroke-linecap="round" stroke-linejoin="round"/> <path d="M10.1599 13.1398C10.1599 12.1198 10.9799 11.2998 11.9999 11.2998C13.0199 11.2998 13.8399 12.1198 13.8399 13.1398C13.8399 14.1598 13.0199 14.9798 11.9999 14.9798C10.9799 14.9798 10.1599 14.1498 10.1599 13.1398Z" stroke="white" stroke-width="1.5" stroke-linecap="round" stroke-linejoin="round"/> <path d="M16.29 18.0492V20.4992H7.69995V11.9192L7.70995 11.9092V18.0492H16.29Z" stroke="white" stroke-width="1.5" stroke-linecap="round" stroke-linejoin="round"/> <path opacity="0.4" d="M13.8399 13.1398C13.8399 14.1498 13.0199 14.9798 11.9999 14.9798C10.9799 14.9798 10.1599 14.1498 10.1599 13.1398C10.1599 12.1298 10.9799 11.2998 11.9999 11.2998C13.0199 11.2998 13.8399 12.1198 13.8399 13.1398Z" stroke="white" stroke-width="1.5" stroke-linecap="round" stroke-linejoin="round"/> <path d="M7.70995 18.0498H7.69995" stroke="white" stroke-width="1.5" stroke-linecap="round" stroke-linejoin="round"/> <path opacity="0.4" d="M8.92993 5.7793H15.0599" stroke="white" stroke-width="1.5" stroke-linecap="round" stroke-linejoin="round"/> <path d="M19.36 14.3692V19.2692H16.29V11.9092L19.36 14.3692Z" stroke="white" stroke-width="1.5" stroke-linecap="round" stroke-linejoin="round"/> <path d="M21.8199 19.2692H19.3699V14.8692C19.3699 13.7592 19.8099 12.6892 20.5999 11.9092C21.3899 12.6992 21.8299 13.7592 21.8299 14.8692V19.2692H21.8199Z" stroke="white" stroke-width="1.5" stroke-linecap="round" stroke-linejoin="round"/> <path d="M21.81 19.2695H16.29V21.7195H21.81V19.2695Z" stroke="white" stroke-width="1.5" stroke-linecap="round" stroke-linejoin="round"/> <path d="M19.3599 16.8193H21.8099" stroke="white" stroke-width="1.5" stroke-linecap="round" stroke-linejoin="round"/> <path d="M21 3.99934V3.31934" stroke="white" stroke-width="1.5" stroke-linecap="round" stroke-linejoin="round"/> <path d="M21 6.67902V5.99902" stroke="white" stroke-width="1.5" stroke-linecap="round" stroke-linejoin="round"/> <path d="M3 3.99934V3.31934" stroke="white" stroke-width="1.5" stroke-linecap="round" stroke-linejoin="round"/> <path d="M3 6.67902V5.99902" stroke="white" stroke-width="1.5" stroke-linecap="round" stroke-linejoin="round"/> <path d="M7.70989 11.9092V19.2692H4.63989V14.3692L7.69989 11.9192L7.70989 11.9092Z" stroke="white" stroke-width="1.5" stroke-linecap="round" stroke-linejoin="round"/> <path d="M2.17992 19.2692H4.62992V14.8692C4.62992 13.7592 4.18992 12.6892 3.39992 11.9092C2.60992 12.6992 2.16992 13.7592 2.16992 14.8692V19.2692H2.17992Z" stroke="white" stroke-width="1.5" stroke-linecap="round" stroke-linejoin="round"/> <path d="M2.17993 21.7293H7.69993V19.2793H2.17993V21.7293Z" stroke="white" stroke-width="1.5" stroke-linecap="round" stroke-linejoin="round"/> <path d="M4.63994 16.8193H2.18994" stroke="white" stroke-width="1.5" stroke-linecap="round" stroke-linejoin="round"/> </g> <defs> <clipPath id="clip0_2085_392020"> <rect width="24" height="24" fill="white"/> </clipPath> </defs> </svg>
