<svg width="24" height="24" viewBox="0 0 24 24" fill="none" xmlns="http://www.w3.org/2000/svg"> <g clip-path="url(#clip0_2085_385219)"> <path d="M2 22H22" stroke="white" stroke-width="1.5" stroke-linecap="round" stroke-linejoin="round"/> <path d="M16.98 10.8008V22.0008" stroke="white" stroke-width="1.5" stroke-linecap="round" stroke-linejoin="round"/> <path d="M7.02002 22.0008V10.8008" stroke="white" stroke-width="1.5" stroke-linecap="round" stroke-linejoin="round"/> <path d="M2 18.2695V21.9995" stroke="white" stroke-width="1.5" stroke-linecap="round" stroke-linejoin="round"/> <path d="M22 18.2695V21.9995" stroke="white" stroke-width="1.5" stroke-linecap="round" stroke-linejoin="round"/> <path d="M4.53003 20.7598V21.9998" stroke="white" stroke-width="1.5" stroke-linecap="round" stroke-linejoin="round"/> <path d="M19.47 20.7598V21.9998" stroke="white" stroke-width="1.5" stroke-linecap="round" stroke-linejoin="round"/> <path d="M18.22 7.0193C17.47 7.6093 16.45 7.7093 15.6 7.2793C15.26 7.1093 14.88 7.0193 14.48 7.0193C14.02 7.0193 13.6 7.1493 13.24 7.3693C12.87 7.1593 12.45 7.0193 12 7.0193C11.55 7.0193 11.12 7.1493 10.76 7.3693C10.39 7.1593 9.97002 7.0193 9.51002 7.0193C9.11002 7.0193 8.73002 7.1193 8.39002 7.2793C7.54002 7.7093 6.52002 7.5993 5.77002 7.0193L8.26002 4.5293H15.73L18.22 7.0193Z" stroke="white" stroke-width="1.5" stroke-linecap="round" stroke-linejoin="round"/> <path d="M16.98 18.2691H22V13.2891H2V18.2691H7.02" stroke="white" stroke-width="1.5" stroke-linecap="round" stroke-linejoin="round"/> <path d="M8.27002 7.33984V10.7898" stroke="white" stroke-width="1.5" stroke-linecap="round" stroke-linejoin="round"/> <path opacity="0.4" d="M10.76 7.33984V10.7898" stroke="white" stroke-width="1.5" stroke-linecap="round" stroke-linejoin="round"/> <path opacity="0.4" d="M13.24 7.33984V10.7898" stroke="white" stroke-width="1.5" stroke-linecap="round" stroke-linejoin="round"/> <path d="M15.73 7.33984V10.7898" stroke="white" stroke-width="1.5" stroke-linecap="round" stroke-linejoin="round"/> <path d="M12 2V4.53" stroke="white" stroke-width="1.5" stroke-linecap="round" stroke-linejoin="round"/> <path d="M9.51001 2V4.53" stroke="white" stroke-width="1.5" stroke-linecap="round" stroke-linejoin="round"/> <path d="M14.49 2V4.53" stroke="white" stroke-width="1.5" stroke-linecap="round" stroke-linejoin="round"/> <path opacity="0.4" d="M14.49 21.9993V18.8893C14.49 18.0493 13.93 17.3393 13.16 17.1093C12.98 16.4693 12.53 15.7793 12 15.7793C11.47 15.7793 11.02 16.4793 10.84 17.1093C10.07 17.3393 9.51001 18.0493 9.51001 18.8893V21.9993" stroke="white" stroke-width="1.5" stroke-linecap="round" stroke-linejoin="round"/> <path d="M2 15.7793H7.02" stroke="white" stroke-width="1.5" stroke-linecap="round" stroke-linejoin="round"/> <path d="M16.98 15.7793H22" stroke="white" stroke-width="1.5" stroke-linecap="round" stroke-linejoin="round"/> <path opacity="0.4" d="M19.47 15.7793V18.2693" stroke="white" stroke-width="1.5" stroke-linecap="round" stroke-linejoin="round"/> <path opacity="0.4" d="M4.53003 15.7793V18.2693" stroke="white" stroke-width="1.5" stroke-linecap="round" stroke-linejoin="round"/> <path d="M5.78003 10.8008H18.23" stroke="white" stroke-width="1.5" stroke-linecap="round" stroke-linejoin="round"/> <path opacity="0.4" d="M9.51001 10.8008V13.2908" stroke="white" stroke-width="1.5" stroke-linecap="round" stroke-linejoin="round"/> <path d="M12 10.8008V13.2908" stroke="white" stroke-width="1.5" stroke-linecap="round" stroke-linejoin="round"/> <path opacity="0.4" d="M14.49 10.8008V13.2908" stroke="white" stroke-width="1.5" stroke-linecap="round" stroke-linejoin="round"/> </g> <defs> <clipPath id="clip0_2085_385219"> <rect width="24" height="24" fill="white"/> </clipPath> </defs> </svg>
