<svg width="24" height="24" viewBox="0 0 24 24" fill="none" xmlns="http://www.w3.org/2000/svg"> <g clip-path="url(#clip0_4482_5621)"> <path d="M5.70996 12.0899L9.23996 11.3799L8.52997 14.9199" stroke="white" stroke-width="1.5" stroke-miterlimit="10" stroke-linecap="round" stroke-linejoin="round"/> <path d="M12.0699 5.71973L11.3599 9.25972L14.8999 8.54973" stroke="white" stroke-width="1.5" stroke-miterlimit="10" stroke-linecap="round" stroke-linejoin="round"/> <path d="M20.76 5.35984C20.89 5.80984 20.84 6.26985 20.65 6.65985C20.62 6.71985 20.59 6.76985 20.55 6.81985C20.32 7.18985 19.96 7.47985 19.52 7.59985C18.35 7.93985 16.96 7.01985 16.54 6.70985C16.46 6.63985 16.42 6.52984 16.46 6.42984C16.57 6.12984 16.87 5.46984 17.35 4.91984C17.6 4.62984 17.89 4.36985 18.25 4.20985C18.33 4.16985 18.43 4.12984 18.52 4.10984C19.48 3.83984 20.48 4.39984 20.76 5.35984Z" stroke="white" stroke-width="1.5" stroke-miterlimit="10"/> <path d="M6.75989 16.4902C7.06989 16.9102 7.98988 18.3002 7.64988 19.4702C7.51988 19.9102 7.22988 20.2702 6.86988 20.5002C6.83988 20.5102 6.81989 20.5402 6.78989 20.5502C6.76989 20.5702 6.73988 20.5902 6.70988 20.6002C6.31988 20.7902 5.85989 20.8402 5.40989 20.7102C4.43989 20.4302 3.88989 19.4302 4.15989 18.4702C4.16989 18.4102 4.19988 18.3502 4.21988 18.2902C4.22988 18.2502 4.23989 18.2302 4.25989 18.2002C4.41989 17.8402 4.67988 17.5502 4.96988 17.3002C5.51988 16.8202 6.18989 16.5202 6.47989 16.4102C6.57989 16.3702 6.68989 16.4102 6.75989 16.4902Z" stroke="white" stroke-width="1.5" stroke-miterlimit="10" stroke-linecap="round" stroke-linejoin="round"/> <path opacity="0.4" d="M20.55 6.82025C22.9 10.6702 22.42 15.7702 19.09 19.1002C15.75 22.4402 10.64 22.9302 6.79005 20.5502C6.82005 20.5402 6.84003 20.5102 6.87003 20.5002C7.24003 20.2702 7.53003 19.9102 7.65003 19.4702C7.99003 18.3002 7.07005 16.9102 6.76005 16.4902C6.69005 16.4102 6.58005 16.3702 6.48005 16.4102C6.18005 16.5202 5.52004 16.8202 4.97004 17.3002C4.68004 17.5502 4.42005 17.8402 4.26005 18.2002C4.25005 18.2302 4.23004 18.2602 4.22004 18.2902C1.06004 14.3702 1.30004 8.60024 4.94004 4.95024C8.57004 1.32024 14.32 1.07024 18.25 4.20024C17.89 4.36024 17.6 4.62024 17.35 4.91024C16.87 5.46024 16.57 6.13024 16.46 6.42024C16.42 6.52024 16.45 6.63024 16.54 6.70024C16.96 7.01024 18.35 7.93024 19.52 7.59024C19.96 7.48024 20.32 7.19025 20.55 6.82025Z" stroke="white" stroke-width="1.5" stroke-miterlimit="10" stroke-linecap="round" stroke-linejoin="round"/> <path d="M10.92 17.2202C12.46 18.0502 14.24 18.0602 15.64 17.2702C16.31 16.8902 16.87 16.3302 17.25 15.6602C18.05 14.2602 18.03 12.4802 17.2 10.9402C17.12 10.8002 16.94 10.7602 16.83 10.8602C15.32 13.3002 13.27 15.3502 10.84 16.8502C10.74 16.9602 10.77 17.1402 10.92 17.2202Z" stroke="white" stroke-width="1.5" stroke-miterlimit="10" stroke-linecap="round" stroke-linejoin="round"/> </g> <defs> <clipPath id="clip0_4482_5621"> <rect width="24" height="24" fill="white"/> </clipPath> </defs> </svg>
