<svg width="24" height="24" viewBox="0 0 24 24" fill="none" xmlns="http://www.w3.org/2000/svg"> <g clip-path="url(#clip0_4482_5620)"> <path d="M22.9 13.4703C22.67 13.8803 22.31 14.1703 21.9 14.3103C21.84 14.3303 21.78 14.3403 21.72 14.3503C21.3 14.4503 20.84 14.4003 20.44 14.1803C19.37 13.5903 19.04 11.9603 18.96 11.4403C18.95 11.3303 19 11.2303 19.1 11.1903C19.39 11.0603 20.07 10.8003 20.8 10.7503C21.18 10.7203 21.57 10.7403 21.94 10.8803C22.03 10.9103 22.12 10.9503 22.2 11.0003C23.07 11.4903 23.39 12.5903 22.9 13.4703Z" stroke="white" stroke-width="1.5" stroke-miterlimit="10"/> <path opacity="0.4" d="M7.09009 9.85965L7.46008 9.48965C8.30008 8.64965 9.5901 8.43965 10.6601 8.96965" stroke="white" stroke-width="1.5" stroke-miterlimit="10" stroke-linecap="round" stroke-linejoin="round"/> <path opacity="0.4" d="M16.9101 9.85965L16.5401 9.48965C15.7001 8.64965 14.4101 8.43965 13.3401 8.96965" stroke="white" stroke-width="1.5" stroke-miterlimit="10" stroke-linecap="round" stroke-linejoin="round"/> <path d="M5.13005 11.4403C5.05005 11.9603 4.72004 13.5903 3.65004 14.1803C3.25004 14.4003 2.79004 14.4503 2.37004 14.3503C2.34004 14.3403 2.31005 14.3403 2.28005 14.3303C2.25005 14.3303 2.22005 14.3203 2.19005 14.3103C1.78005 14.1703 1.42005 13.8803 1.19005 13.4703C0.700049 12.5903 1.02006 11.4903 1.89006 11.0003C1.94006 10.9703 2.00004 10.9403 2.06004 10.9203C2.09004 10.9003 2.12004 10.8903 2.15004 10.8803C2.52004 10.7403 2.91006 10.7203 3.29006 10.7503C4.02006 10.8003 4.70004 11.0603 4.99004 11.1903C5.09004 11.2303 5.14005 11.3303 5.13005 11.4403Z" stroke="white" stroke-width="1.5" stroke-miterlimit="10" stroke-linecap="round" stroke-linejoin="round"/> <path opacity="0.4" d="M21.7201 14.35C20.6601 18.74 16.7101 22 12.0001 22C7.28006 22 3.32006 18.73 2.28006 14.33C2.31006 14.34 2.34006 14.34 2.37006 14.35C2.79006 14.45 3.25005 14.4 3.65005 14.18C4.72005 13.59 5.05007 11.96 5.13007 11.44C5.14007 11.33 5.09005 11.23 4.99005 11.19C4.70005 11.06 4.02007 10.8 3.29007 10.75C2.91007 10.72 2.52005 10.74 2.15005 10.88C2.12005 10.89 2.09006 10.9 2.06006 10.92C2.60006 5.91 6.85006 2 12.0001 2C17.1401 2 21.3801 5.89001 21.9401 10.88C21.5701 10.74 21.18 10.72 20.8 10.75C20.07 10.8 19.3901 11.06 19.1001 11.19C19.0001 11.23 18.9501 11.33 18.9601 11.44C19.0401 11.96 19.3701 13.59 20.4401 14.18C20.8401 14.4 21.3001 14.45 21.7201 14.35Z" stroke="white" stroke-width="1.5" stroke-miterlimit="10" stroke-linecap="round" stroke-linejoin="round"/> <path opacity="0.4" d="M7.56007 14.8901C8.07007 16.5601 9.31007 17.8401 10.8701 18.2601C11.6101 18.4601 12.4001 18.4601 13.1401 18.2601C14.6901 17.8301 15.9401 16.5601 16.4501 14.8901C16.5001 14.7401 16.3901 14.5801 16.2501 14.5801C13.4601 15.2401 10.5601 15.2401 7.77006 14.5801C7.61006 14.5801 7.51007 14.7401 7.56007 14.8901Z" stroke="white" stroke-width="1.5" stroke-miterlimit="10" stroke-linecap="round" stroke-linejoin="round"/> </g> <defs> <clipPath id="clip0_4482_5620"> <rect width="24" height="24" fill="white"/> </clipPath> </defs> </svg>
