<svg width="24" height="24" viewBox="0 0 24 24" fill="none" xmlns="http://www.w3.org/2000/svg"> <g clip-path="url(#clip0_2085_392023)"> <path d="M21 19.4404H3C2.45 19.4404 2 19.8904 2 20.4404V21.0004C2 21.5504 2.45 22.0004 3 22.0004H21C21.55 22.0004 22 21.5504 22 21.0004V20.4404C22 19.8904 21.55 19.4404 21 19.4404Z" stroke="white" stroke-width="1.5" stroke-linecap="round" stroke-linejoin="round"/> <path d="M15.53 5.54C15.53 7.49 13.95 9.08 11.99 9.08C10.03 9.08 8.44995 7.5 8.44995 5.54C8.44995 3.58 10.03 2 11.99 2C13.95 2 15.53 3.58 15.53 5.54Z" stroke="white" stroke-width="1.5" stroke-linecap="round" stroke-linejoin="round"/> <g opacity="0.4"> <path d="M17.78 19.4401L16.63 16.5101C16.48 16.1301 16.11 15.8701 15.7 15.8701H8.29997C7.88997 15.8701 7.51997 16.1201 7.36997 16.5101L6.21997 19.4401" stroke="white" stroke-width="1.5" stroke-linecap="round" stroke-linejoin="round"/> <path d="M13.28 9.07031V15.8803" stroke="white" stroke-width="1.5" stroke-linecap="round" stroke-linejoin="round"/> <path d="M10.71 15.8803V9.07031" stroke="white" stroke-width="1.5" stroke-linecap="round" stroke-linejoin="round"/> </g> </g> <defs> <clipPath id="clip0_2085_392023"> <rect width="24" height="24" fill="white"/> </clipPath> </defs> </svg>
