<svg width="24" height="24" viewBox="0 0 24 24" fill="none" xmlns="http://www.w3.org/2000/svg"> <g clip-path="url(#clip0_2085_389737)"> <path opacity="0.4" d="M16.5001 9L17.7401 5.59C18.1901 4.35 17.7401 2.98 16.4801 2.6C15.4301 2.28 13.9501 2 12.0001 2C10.0501 2 8.58012 2.28 7.52012 2.6C6.26012 2.98 5.80012 4.35 6.26012 5.59L7.50012 9" stroke="white" stroke-width="1.5" stroke-linecap="round" stroke-linejoin="round"/> <path opacity="0.4" d="M12 19C13.6569 19 15 17.6569 15 16C15 14.3431 13.6569 13 12 13C10.3431 13 9 14.3431 9 16C9 17.6569 10.3431 19 12 19Z" stroke="white" stroke-width="1.5" stroke-linecap="round" stroke-linejoin="round"/> <path d="M3.99999 16C3.99999 11.58 7.57999 8 12 8C16.42 8 20 11.58 20 16C20 18.12 19.18 20.04 17.83 21.47C17.5 21.83 17.02 22 16.53 22H7.45999C6.96999 22 6.48999 21.83 6.15999 21.47C4.81999 20.04 3.98999 18.11 3.98999 16H3.99999Z" stroke="white" stroke-width="1.5" stroke-linecap="round" stroke-linejoin="round"/> </g> <defs> <clipPath id="clip0_2085_389737"> <rect width="24" height="24" fill="white"/> </clipPath> </defs> </svg>
