<svg width="24" height="24" viewBox="0 0 24 24" fill="none" xmlns="http://www.w3.org/2000/svg"> <g clip-path="url(#clip0_4482_15127)"> <path d="M9 14H10" stroke="white" stroke-width="1.5" stroke-linecap="round" stroke-linejoin="round"/> <path opacity="0.4" d="M10 18H6C3.79 18 2 16.21 2 14V8C2 5.79 3.79 4 6 4H18C20.21 4 22 5.79 22 8" stroke="white" stroke-width="1.5" stroke-linecap="round" stroke-linejoin="round"/> <path opacity="0.4" d="M19.5 11H15.5C14.1193 11 13 12.1193 13 13.5V17.5C13 18.8807 14.1193 20 15.5 20H19.5C20.8807 20 22 18.8807 22 17.5V13.5C22 12.1193 20.8807 11 19.5 11Z" stroke="white" stroke-width="1.5" stroke-linecap="round" stroke-linejoin="round"/> <path d="M16.75 17L18.25 15.5L16.75 14" stroke="white" stroke-width="1.5" stroke-linecap="round" stroke-linejoin="round"/> </g> <defs> <clipPath id="clip0_4482_15127"> <rect width="24" height="24" fill="white"/> </clipPath> </defs> </svg>
