<svg width="24" height="24" viewBox="0 0 24 24" fill="none" xmlns="http://www.w3.org/2000/svg"> <g clip-path="url(#clip0_2085_392024)"> <path d="M8.75 12.2705H4C2.9 12.2705 2 13.1705 2 14.2705V16.5205C2 17.6205 2.9 18.5205 4 18.5205H8.75C9.85 18.5205 10.75 17.6205 10.75 16.5205V14.2705C10.75 13.1705 9.85 12.2705 8.75 12.2705Z" stroke="white" stroke-width="1.5" stroke-linecap="round" stroke-linejoin="round"/> <path opacity="0.4" d="M7.62988 18.5205H5.12988V21.0205H7.62988V18.5205Z" stroke="white" stroke-width="1.5" stroke-linecap="round" stroke-linejoin="round"/> <path d="M3.25 21.0205H9.5" stroke="white" stroke-width="1.5" stroke-linecap="round" stroke-linejoin="round"/> <path d="M20 12.2705H15.25C14.15 12.2705 13.25 13.1705 13.25 14.2705V16.5205C13.25 17.6205 14.15 18.5205 15.25 18.5205H20C21.1 18.5205 22 17.6205 22 16.5205V14.2705C22 13.1705 21.1 12.2705 20 12.2705Z" stroke="white" stroke-width="1.5" stroke-linecap="round" stroke-linejoin="round"/> <path opacity="0.4" d="M18.8799 18.5205H16.3799V21.0205H18.8799V18.5205Z" stroke="white" stroke-width="1.5" stroke-linecap="round" stroke-linejoin="round"/> <path d="M14.5 21.0205H20.75" stroke="white" stroke-width="1.5" stroke-linecap="round" stroke-linejoin="round"/> <path d="M6.37988 8.52051C7.06988 8.52051 7.62988 7.96051 7.62988 7.27051C7.62988 6.58051 7.06988 6.02051 6.37988 6.02051C5.68988 6.02051 5.12988 6.58051 5.12988 7.27051C5.12988 7.96051 5.68988 8.52051 6.37988 8.52051Z" stroke="white" stroke-width="1.5" stroke-linecap="round" stroke-linejoin="round"/> <path d="M17.6299 8.52051C18.3199 8.52051 18.8799 7.96051 18.8799 7.27051C18.8799 6.58051 18.3199 6.02051 17.6299 6.02051C16.9399 6.02051 16.3799 6.58051 16.3799 7.27051C16.3799 7.96051 16.9399 8.52051 17.6299 8.52051Z" stroke="white" stroke-width="1.5" stroke-linecap="round" stroke-linejoin="round"/> <path opacity="0.4" d="M17.6299 8.52051V12.2705" stroke="white" stroke-width="1.5" stroke-linecap="round" stroke-linejoin="round"/> <path opacity="0.4" d="M6.37988 8.52051V12.2705" stroke="white" stroke-width="1.5" stroke-linecap="round" stroke-linejoin="round"/> <path opacity="0.4" d="M7.62988 7.27051H16.3799" stroke="white" stroke-width="1.5" stroke-linecap="round" stroke-linejoin="round"/> <path d="M11.1201 4.76984C11.6101 4.27984 12.4001 4.27984 12.8901 4.76984" stroke="white" stroke-width="1.5" stroke-linecap="round" stroke-linejoin="round"/> <path d="M9.3501 3.01004C10.8101 1.55004 13.1901 1.55004 14.6501 3.01004" stroke="white" stroke-width="1.5" stroke-linecap="round" stroke-linejoin="round"/> </g> <defs> <clipPath id="clip0_2085_392024"> <rect width="24" height="24" fill="white"/> </clipPath> </defs> </svg>
