<svg width="24" height="24" viewBox="0 0 24 24" fill="none" xmlns="http://www.w3.org/2000/svg"> <g clip-path="url(#clip0_4482_1971)"> <path opacity="0.4" d="M10.95 22H7C4.25 22 2 19.75 2 17V7C2 4.25 4.25 2 7 2H17C19.75 2 22 4.25 22 7V11.9" stroke="white" stroke-width="1.5" stroke-miterlimit="10" stroke-linecap="round"/> <path d="M10.3501 12.53C11.7701 14.33 10.9501 18.63 14.2401 19.89C15.7801 20.47 17.5501 20.08 18.7101 18.97C18.9401 18.75 19.1501 18.49 19.3301 18.21C20.7801 15.9 19.7501 12.97 17.3401 11.99C15.0601 11.04 12.4601 11.24 10.3501 12.53Z" stroke="white" stroke-width="1.5" stroke-linecap="round" stroke-linejoin="round"/> <path d="M15.45 15.3101C17.5 16.5601 18.92 18.6301 19.35 21.0001" stroke="white" stroke-width="1.5" stroke-linecap="round" stroke-linejoin="round"/> </g> <defs> <clipPath id="clip0_4482_1971"> <rect width="24" height="24" fill="white"/> </clipPath> </defs> </svg>
