<svg width="24" height="24" viewBox="0 0 24 24" fill="none" xmlns="http://www.w3.org/2000/svg"> <g clip-path="url(#clip0_4482_1972)"> <path d="M10.3501 12.53C11.7701 14.33 10.9501 18.63 14.2401 19.89C15.7801 20.47 17.5501 20.08 18.7101 18.97C18.9401 18.75 19.1501 18.49 19.3301 18.21C20.7801 15.9 19.7501 12.97 17.3401 11.99C15.0601 11.04 12.4601 11.24 10.3501 12.53Z" stroke="white" stroke-width="1.5" stroke-linecap="round" stroke-linejoin="round"/> <path d="M15.45 15.3101C17.5 16.5601 18.9199 18.6301 19.3499 21.0001" stroke="white" stroke-width="1.5" stroke-linecap="round" stroke-linejoin="round"/> <path opacity="0.4" d="M12 22C6.48 22 2 17.52 2 12C2 6.48 6.48 2 12 2C17.52 2 22 6.48 22 12" stroke="white" stroke-width="1.5" stroke-miterlimit="10" stroke-linecap="round"/> </g> <defs> <clipPath id="clip0_4482_1972"> <rect width="24" height="24" fill="white"/> </clipPath> </defs> </svg>
