<svg width="24" height="24" viewBox="0 0 24 24" fill="none" xmlns="http://www.w3.org/2000/svg"> <g clip-path="url(#clip0_2085_392025)"> <path opacity="0.4" d="M19.9799 2.00983H15.1799C9.86989 1.98983 5.54989 6.29983 5.56989 11.6098V17.8998L6.08989 18.4098L12.3699 18.4298C17.6899 18.4398 21.9999 14.1298 21.9799 8.80984L21.9599 4.00984C21.9599 2.90984 21.0599 2.01983 19.9599 2.01983L19.9799 2.00983Z" stroke="white" stroke-width="1.5" stroke-linecap="round" stroke-linejoin="round"/> <path d="M13.6899 10.3195C15.6699 9.60952 17.8399 9.55952 19.8499 10.1595" stroke="white" stroke-width="1.5" stroke-linecap="round" stroke-linejoin="round"/> <path d="M9.66992 14.3303C11.6499 13.6203 13.8199 13.5703 15.8299 14.1703" stroke="white" stroke-width="1.5" stroke-linecap="round" stroke-linejoin="round"/> <path d="M13.6899 10.3202C14.3999 8.34016 14.4499 6.17016 13.8499 4.16016" stroke="white" stroke-width="1.5" stroke-linecap="round" stroke-linejoin="round"/> <path d="M9.66992 14.3299C10.3799 12.3499 10.4299 10.1799 9.82992 8.16992" stroke="white" stroke-width="1.5" stroke-linecap="round" stroke-linejoin="round"/> <path d="M2 22.0001L18.43 5.58008" stroke="white" stroke-width="1.5" stroke-linecap="round" stroke-linejoin="round"/> </g> <defs> <clipPath id="clip0_2085_392025"> <rect width="24" height="24" fill="white"/> </clipPath> </defs> </svg>
