<svg width="24" height="24" viewBox="0 0 24 24" fill="none" xmlns="http://www.w3.org/2000/svg"> <g clip-path="url(#clip0_4482_5802)"> <path d="M14.7 12H9.29004C8.74004 12 8.29004 12.45 8.29004 13V20C8.29004 21.1 9.19004 22 10.29 22H13.7C14.8 22 15.7 21.1 15.7 20V13C15.7 12.45 15.26 12 14.7 12Z" stroke="white" stroke-width="1.5" stroke-miterlimit="10" stroke-linecap="round" stroke-linejoin="round"/> <path d="M14.5799 12.0003H9.42993V10.0703C9.42993 9.52031 9.87993 9.07031 10.4299 9.07031H13.5799C14.1299 9.07031 14.5799 9.52031 14.5799 10.0703V12.0003Z" stroke="white" stroke-width="1.5" stroke-miterlimit="10" stroke-linecap="round" stroke-linejoin="round"/> <path opacity="0.4" d="M13.1699 3.38966L11.2199 2.08966C10.8599 1.84966 10.3799 2.10965 10.3799 2.53965V9.06967H13.6099V4.21966C13.6199 3.88966 13.4499 3.57966 13.1699 3.38966Z" stroke="white" stroke-width="1.5" stroke-miterlimit="10" stroke-linecap="round" stroke-linejoin="round"/> <path opacity="0.4" d="M8.5 15H15.5" stroke="white" stroke-width="1.5" stroke-miterlimit="10" stroke-linecap="round" stroke-linejoin="round"/> </g> <defs> <clipPath id="clip0_4482_5802"> <rect width="24" height="24" fill="white"/> </clipPath> </defs> </svg>
