<svg width="24" height="24" viewBox="0 0 24 24" fill="none" xmlns="http://www.w3.org/2000/svg"> <g clip-path="url(#clip0_4482_5808)"> <path d="M17.8899 11.1201C14.1599 12.7901 9.89992 12.8001 6.16992 11.1401C6.46992 11.0001 6.7199 10.7901 6.9599 10.5601C7.3899 10.1601 7.79992 9.74008 8.22992 9.35008C8.62992 8.98008 9.05991 8.65008 9.62991 8.58008H9.74991C9.85991 8.59008 9.9699 8.60007 10.0899 8.62007C10.4699 8.67007 10.8299 8.81008 11.1799 8.97008C11.7199 9.23008 12.2499 9.23008 12.7999 8.97008C13.0699 8.85008 13.3599 8.75008 13.6499 8.66008C13.8399 8.61008 14.0399 8.61008 14.2399 8.58008H14.3299C14.3399 8.59008 14.3499 8.60008 14.3699 8.60008C14.7399 8.62008 15.0599 8.77008 15.3399 9.00008C15.7599 9.35008 16.1599 9.71008 16.5699 10.0801C16.9699 10.4601 17.3799 10.8601 17.8899 11.1201Z" stroke="white" stroke-width="1.5" stroke-miterlimit="10" stroke-linecap="round" stroke-linejoin="round"/> <path d="M18 11.2001C17.96 11.2501 17.92 11.3001 17.89 11.3401C17.72 11.5801 17.54 11.8101 17.39 12.0501C17.22 12.3201 17.07 12.6001 16.9 12.8801C16.61 13.3901 16.28 13.8701 15.88 14.3001C15.2 15.0401 14.37 15.5401 13.38 15.7601C12.61 15.9401 11.83 15.9501 11.05 15.8501C10.13 15.7201 9.29999 15.3901 8.57999 14.7701C8.03999 14.3001 7.62999 13.7301 7.26999 13.1301C6.87999 12.4901 6.53 11.8201 6 11.2701V11.2201C6.05 11.2001 6.11 11.1701 6.16 11.1401C9.89 12.8001 14.16 12.8001 17.88 11.1201C17.91 11.1301 17.93 11.1501 17.96 11.1601C17.98 11.1701 17.99 11.1801 18 11.2001Z" stroke="white" stroke-width="1.5" stroke-miterlimit="10" stroke-linecap="round" stroke-linejoin="round"/> <path d="M12 22C17.5228 22 22 17.5228 22 12C22 6.47715 17.5228 2 12 2C6.47715 2 2 6.47715 2 12C2 17.5228 6.47715 22 12 22Z" stroke="white" stroke-width="1.5" stroke-miterlimit="10" stroke-linecap="round" stroke-linejoin="round"/> </g> <defs> <clipPath id="clip0_4482_5808"> <rect width="24" height="24" fill="white"/> </clipPath> </defs> </svg>
