<svg width="24" height="24" viewBox="0 0 24 24" fill="none" xmlns="http://www.w3.org/2000/svg"> <g clip-path="url(#clip0_2085_390047)"> <path opacity="0.4" d="M12 22.01C17.52 22.01 22 17.53 22 12.01C22 6.49 17.52 2 12 2C6.48 2 2 6.48 2 12C2 17.52 6.48 22 12 22V22.01Z" stroke="white" stroke-width="1.41" stroke-linecap="round" stroke-linejoin="round"/> <path d="M12 9.33984C12 9.33984 10.67 10.6698 10.67 12.6698C10.67 14.6698 12 15.3398 12 19.3398C12 19.3398 8 16.6698 8 12.6698C8 9.33984 12 9.33984 12 9.33984Z" stroke="white" stroke-width="1.41" stroke-linecap="round" stroke-linejoin="round"/> <path d="M12 9.33984C12 9.33984 13.33 10.6698 13.33 12.6698C13.33 14.6698 12 15.3398 12 19.3398C12 19.3398 16 16.6698 16 12.6698C16 9.33984 12 9.33984 12 9.33984Z" stroke="white" stroke-width="1.41" stroke-linecap="round" stroke-linejoin="round"/> <path opacity="0.4" d="M8 12.6699C8 8.66992 12 6.66992 12 4.66992C12 6.66992 16 8.66992 16 12.6699" stroke="white" stroke-width="1.41" stroke-linecap="round" stroke-linejoin="round"/> </g> <defs> <clipPath id="clip0_2085_390047"> <rect width="24" height="24" fill="white"/> </clipPath> </defs> </svg>
