<svg width="24" height="24" viewBox="0 0 24 24" fill="none" xmlns="http://www.w3.org/2000/svg"> <g clip-path="url(#clip0_4482_5744)"> <path d="M16.7099 18.21L14.93 18.47C14.51 18.54 14.1499 18.81 13.9599 19.19L13.17 20.8C12.69 21.75 11.3299 21.75 10.8499 20.8L10.06 19.19C9.87002 18.81 9.50993 18.54 9.08993 18.47L7.31002 18.21C6.26002 18.06 5.82993 16.76 6.58993 16.01L7.87997 14.76C8.17997 14.46 8.32996 14.03 8.24996 13.62L7.94991 11.85C7.90991 11.6 7.93998 11.38 8.01998 11.18C8.26998 10.49 9.08992 10.1 9.82992 10.49L10.89 11.04L11.42 11.32C11.8 11.52 12.25 11.52 12.63 11.32L13.1099 11.06L14.2199 10.49C14.9399 10.11 15.73 10.47 16.01 11.12C16.11 11.34 16.1399 11.59 16.0999 11.86L15.8 13.63C15.72 14.04 15.87 14.47 16.17 14.77L17.4599 16.02C18.1799 16.75 17.7599 18.06 16.7099 18.21Z" stroke="white" stroke-width="1.5" stroke-miterlimit="10"/> <path d="M13.1101 11.05L14.2201 10.48C14.9401 10.1 15.7301 10.46 16.0101 11.11L20.4901 3.34C20.7601 2.88 20.5401 2.5 20.0101 2.5H16.4701C16.1101 2.5 15.6801 2.75 15.5001 3.06L12.0101 9.12L10.8079 11.11" stroke="white" stroke-width="1.5" stroke-miterlimit="10"/> <path opacity="0.4" d="M12.01 9.12022L10.9 11.0302L9.83991 10.4802C9.09991 10.0902 8.27997 10.4802 8.02997 11.1702L3.51997 3.33023C3.24997 2.87023 3.46995 2.49023 3.99995 2.49023H7.53998C7.88998 2.49023 8.32996 2.74023 8.50996 3.05023L12.01 9.12022Z" stroke="white" stroke-width="1.5" stroke-miterlimit="10"/> </g> <defs> <clipPath id="clip0_4482_5744"> <rect width="24" height="24" fill="white"/> </clipPath> </defs> </svg>
