<svg width="24" height="24" viewBox="0 0 24 24" fill="none" xmlns="http://www.w3.org/2000/svg"> <g clip-path="url(#clip0_2085_390166)"> <path d="M7.03 21C7.19 21.16 7.19 21.42 7.03 21.58C6.55 22.07 5.76 22.07 5.28 21.58L2.36 18.67C1.88 18.19 1.88 17.4 2.36 16.92C2.52 16.76 2.78 16.76 2.94 16.92L3.53 17.5L4.99 16.04L7.91 18.96L6.44 20.42L7.03 21Z" stroke="white" stroke-width="1.5" stroke-linecap="round" stroke-linejoin="round"/> <path d="M12.87 16.9098C12.55 17.2298 12.02 17.2298 11.7 16.9098L10.83 16.0398L7.90999 18.9598L4.98999 16.0398L6.44999 14.5798L7.90999 13.1198L7.03999 12.2398C6.71999 11.9198 6.71999 11.3998 7.03999 11.0798C7.35999 10.7598 7.87999 10.7598 8.19999 11.0798L12.87 15.7498C13.19 16.0698 13.19 16.5898 12.87 16.9098Z" stroke="white" stroke-width="1.5" stroke-linecap="round" stroke-linejoin="round"/> <path opacity="0.4" d="M8.90991 11.5397C10.4699 9.97972 11.9099 8.53972 13.4699 6.97972C13.9699 6.47972 14.1099 6.38972 14.7999 6.38972H15.7299C16.3499 6.38972 16.4399 6.34972 16.8599 5.92972C18.0499 4.73972 19.2399 3.54972 20.4399 2.34972C20.8599 1.92972 21.2999 1.98972 21.5199 2.33972C22.3099 3.60972 22.1499 5.30972 21.0499 6.40972L12.4199 15.0397" stroke="white" stroke-width="1.5" stroke-linecap="round" stroke-linejoin="round"/> <path d="M12 14.8701H11.99" stroke="white" stroke-width="1.5" stroke-linecap="round" stroke-linejoin="round"/> <path d="M11.4099 9.62012L11.9899 10.2001" stroke="white" stroke-width="1.5" stroke-linecap="round" stroke-linejoin="round"/> <path d="M13.74 7.2793L14.32 7.8593" stroke="white" stroke-width="1.5" stroke-linecap="round" stroke-linejoin="round"/> </g> <defs> <clipPath id="clip0_2085_390166"> <rect width="24" height="24" fill="white"/> </clipPath> </defs> </svg>
