<svg width="24" height="24" viewBox="0 0 24 24" fill="none" xmlns="http://www.w3.org/2000/svg"> <g clip-path="url(#clip0_2085_389759)"> <path d="M15.8099 7.93031C15.5799 7.75031 15.3699 7.54031 15.1699 7.32031" stroke="white" stroke-width="1.5" stroke-linecap="round" stroke-linejoin="round"/> <path d="M12.56 7.20996C12.53 7.33996 12.52 7.46996 12.51 7.59996" stroke="white" stroke-width="1.5" stroke-linecap="round" stroke-linejoin="round"/> <path d="M17.71 7.0596C17.78 7.0596 17.85 7.0896 17.9 7.1396C17.95 7.1896 17.99 7.2496 18 7.3196C18.46 9.2196 20.55 14.2196 20.05 16.8396C19.4 20.2096 18.15 21.3796 15.97 21.6896C13.8 21.9896 6.53 21.5596 6.53 21.5596C3.78 21.0496 2 19.3696 2 16.8596C2 15.8496 2.33 14.8696 2.94 14.0696C3.56 13.2696 4.42 12.6996 5.4 12.4496C6.38 12.1996 7.41 12.2796 8.33 12.6896C9.25 13.0896 10.02 13.7996 10.5 14.6896C11.12 14.3896 11.8 14.2296 12.49 14.2296C13.01 14.2296 13.53 14.3196 14.02 14.4996C13.7 13.6196 13.53 12.6996 13.53 11.7696C13.55 10.8296 13.41 9.8896 13.11 8.9896C12.86 8.1996 12.33 7.5196 11.61 7.0896L12.51 7.1896C12.75 5.9096 13.64 4.5696 14.61 5.0196C15.58 5.4696 14.61 6.6196 14.61 6.6196C14.75 6.8596 14.92 7.0896 15.11 7.2996C16.04 7.2796 17.02 7.1596 17.69 7.0696L17.71 7.0596Z" stroke="white" stroke-width="1.5" stroke-linecap="round" stroke-linejoin="round"/> <path d="M10.5001 14.71C9.97008 15 9.56008 15.46 9.33008 16.01" stroke="white" stroke-width="1.5" stroke-linecap="round" stroke-linejoin="round"/> <path d="M14.05 14.5195C14.05 14.5195 14.87 14.7095 15.57 16.0195" stroke="white" stroke-width="1.5" stroke-linecap="round" stroke-linejoin="round"/> <path d="M10.65 3.91988C10.65 3.57988 10.51 3.24988 10.27 3.00988C10.03 2.76988 9.69997 2.62988 9.35997 2.62988H8.25997C8.08997 2.62988 7.91997 2.65988 7.76997 2.72988C7.60997 2.78988 7.46997 2.88988 7.34997 3.00988C7.22997 3.12988 7.13997 3.26988 7.06997 3.42988C7.00997 3.58988 6.96997 3.75988 6.96997 3.92988V7.12988C6.96997 7.29988 6.99997 7.46988 7.06997 7.62988C7.12997 7.78988 7.22997 7.92988 7.34997 8.04988C7.46997 8.16988 7.60997 8.26988 7.76997 8.32988C7.92997 8.39988 8.08997 8.42988 8.25997 8.42988H9.35997C9.69997 8.42988 10.03 8.28988 10.27 8.04988C10.51 7.80988 10.65 7.47988 10.65 7.13988V3.93988V3.91988Z" stroke="white" stroke-width="1.5" stroke-linecap="round" stroke-linejoin="round"/> <path d="M18.31 7.12012V3.92012C18.31 3.75012 18.34 3.58012 18.41 3.42012C18.48 3.26012 18.57 3.12012 18.69 3.00012C18.81 2.88012 18.96 2.78012 19.11 2.72012C19.27 2.66012 19.44 2.62012 19.61 2.62012H20.71C21.05 2.62012 21.37 2.76012 21.61 3.01012C21.85 3.25012 21.98 3.58012 21.98 3.92012V7.12012C21.98 7.46012 21.84 7.79012 21.6 8.03012C21.36 8.27012 21.03 8.41012 20.69 8.41012H19.44C19.12 8.37012 18.83 8.22012 18.62 7.98012C18.41 7.74012 18.29 7.43012 18.29 7.11012L18.31 7.12012Z" stroke="white" stroke-width="1.5" stroke-linecap="round" stroke-linejoin="round"/> <path d="M11.6499 7.10992L10.6499 6.96992V4.10992L11.0499 4.00992L11.6899 3.91992C11.9399 4.54992 13.1099 4.86992 14.5499 4.86992C15.9899 4.86992 17.1199 4.52992 17.4099 3.91992L17.8099 3.97992L18.3799 4.07992V6.93992L17.7199 7.05992C17.0899 7.14992 16.1099 7.26992 15.1999 7.31992C15.0099 7.10992 14.8399 6.87992 14.6899 6.63992C14.6899 6.63992 15.7599 5.53992 14.6899 5.03992C13.6199 4.53992 12.8299 5.93992 12.5899 7.20992L11.6599 7.10992H11.6499Z" stroke="white" stroke-width="1.5" stroke-linecap="round" stroke-linejoin="round"/> <path d="M11.6999 3.92996C11.6899 3.74996 11.6899 3.55996 11.6999 3.37996C11.6999 2.58996 12.9899 2.20996 14.5599 2.20996C16.1299 2.20996 17.4199 2.58996 17.4199 3.37996C17.4199 3.55996 17.3999 3.74996 17.3699 3.92996C17.1099 4.55996 15.9399 4.87996 14.5099 4.87996C13.0799 4.87996 11.9499 4.55996 11.6999 3.92996Z" stroke="white" stroke-width="1.5" stroke-linecap="round" stroke-linejoin="round"/> </g> <defs> <clipPath id="clip0_2085_389759"> <rect width="24" height="24" fill="white"/> </clipPath> </defs> </svg>
