<svg width="24" height="24" viewBox="0 0 24 24" fill="none" xmlns="http://www.w3.org/2000/svg"> <g clip-path="url(#clip0_2085_390390)"> <path opacity="0.4" d="M18.7 2.02017C18.7 2.02017 18.75 1.99017 18.76 2.02017C19.09 3.64017 20.36 4.91017 21.98 5.24017C22.01 5.24017 22.01 5.29017 21.98 5.30017C20.36 5.63017 19.09 6.90017 18.76 8.52017C18.76 8.55017 18.71 8.55017 18.7 8.52017C18.37 6.90017 17.1 5.63017 15.48 5.30017C15.45 5.30017 15.45 5.25017 15.48 5.24017C17.1 4.91017 18.37 3.64017 18.7 2.02017Z" stroke="white" stroke-width="1.5" stroke-linecap="round" stroke-linejoin="round"/> <path d="M7.6 19.2002V10.4202C7.6 8.59018 7.6 7.67018 7.96 6.97018C8.27 6.35018 8.77 5.85018 9.39 5.54018C10.09 5.18018 11.01 5.18018 12.84 5.18018H12.98M7.6 19.2002C7.6 20.7502 6.35 22.0002 4.8 22.0002C3.25 22.0002 2 20.7502 2 19.2002C2 17.6502 3.25 16.4002 4.8 16.4002C6.35 16.4002 7.6 17.6502 7.6 19.2002ZM20.22 18.2602V15.5502C20.22 13.7202 20.22 12.8002 19.86 12.1002C19.55 11.4802 19.05 10.9802 18.43 10.6702C17.73 10.3102 16.81 10.3102 14.98 10.3102H11.87C10.94 10.3102 10.47 10.3102 10.09 10.4002C8.91 10.6902 7.98 11.6102 7.69 12.8002C7.6 13.1802 7.6 13.6502 7.6 14.5802M20.22 18.2602C20.22 19.8102 18.97 21.0602 17.42 21.0602C15.87 21.0602 14.62 19.8102 14.62 18.2602C14.62 16.7102 15.87 15.4602 17.42 15.4602C18.97 15.4602 20.22 16.7102 20.22 18.2602Z" stroke="white" stroke-width="1.5" stroke-linecap="round" stroke-linejoin="round"/> </g> <defs> <clipPath id="clip0_2085_390390"> <rect width="24" height="24" fill="white"/> </clipPath> </defs> </svg>
