<svg width="24" height="24" viewBox="0 0 24 24" fill="none" xmlns="http://www.w3.org/2000/svg"> <g clip-path="url(#clip0_4482_10879)"> <path d="M8.80957 15.2002L7.55957 16.4502" stroke="white" stroke-width="1.5" stroke-linecap="round" stroke-linejoin="round"/> <path d="M14.7198 15.2399C13.0698 16.8599 10.4198 16.8399 8.7998 15.1899C8.0098 14.4099 7.5598 13.3499 7.5498 12.2399C7.5498 11.1299 7.9698 10.0599 8.7498 9.26985C10.1998 7.81985 12.5898 7.34985 15.3898 7.61985C15.9098 7.66985 16.3098 8.07985 16.3698 8.59985C16.6398 11.3999 16.1698 13.7899 14.7198 15.2399Z" stroke="white" stroke-width="1.5" stroke-linecap="round" stroke-linejoin="round"/> <path opacity="0.4" d="M12 22C17.5228 22 22 17.5228 22 12C22 6.47715 17.5228 2 12 2C6.47715 2 2 6.47715 2 12C2 17.5228 6.47715 22 12 22Z" stroke="white" stroke-width="1.5" stroke-linecap="round" stroke-linejoin="round"/> </g> <defs> <clipPath id="clip0_4482_10879"> <rect width="24" height="24" fill="white"/> </clipPath> </defs> </svg>
