<svg width="24" height="24" viewBox="0 0 24 24" fill="none" xmlns="http://www.w3.org/2000/svg"> <g clip-path="url(#clip0_2085_392278)"> <path d="M2.46989 11.8103L3.41989 19.0303C3.63989 20.6703 5.13989 21.8303 6.78989 21.6103L18.9399 20.0103C20.5799 19.7903 21.7399 18.2903 21.5199 16.6403L20.5699 9.42026C20.3499 7.78026 18.8499 6.62026 17.1999 6.84026L5.04989 8.44025C3.40989 8.66025 2.24989 10.1603 2.46989 11.8103Z" stroke="white" stroke-width="1.5" stroke-linecap="round" stroke-linejoin="round"/> <path opacity="0.4" d="M11.2599 11.8096C10.7699 11.8796 10.3599 12.1596 10.0999 12.5396C9.74992 12.2296 9.28992 12.0696 8.78992 12.1296C7.87992 12.2496 7.23992 13.0796 7.35992 13.9896C7.59992 15.8096 10.6699 16.8996 10.6699 16.8996C10.6699 16.8996 13.3599 15.0496 13.1199 13.2296C12.9999 12.3196 12.1699 11.6796 11.2599 11.7996V11.8096Z" stroke="white" stroke-width="1.5" stroke-linecap="round" stroke-linejoin="round"/> <path d="M4.88989 12.6504L5.53989 17.5904" stroke="white" stroke-width="1.5" stroke-linecap="round" stroke-linejoin="round"/> <path d="M15.0398 11.3199L15.4898 14.7199C15.5698 15.2999 15.8998 15.6499 16.4298 15.8999C16.6898 16.0199 16.9998 16.0899 17.3698 16.0399C17.6898 15.9999 17.9498 15.8899 18.1598 15.7499C18.6898 15.3899 18.9998 14.9099 18.9098 14.2699L18.4598 10.8799" stroke="white" stroke-width="1.5" stroke-linecap="round" stroke-linejoin="round"/> <path d="M13.58 3.66C13.58 2.74 12.84 2 11.92 2C11 2 10.26 2.74 10.26 3.66C10.26 4.58 11 5.32 11.92 5.32C12.84 5.32 13.58 4.58 13.58 3.66Z" stroke="white" stroke-width="1.5" stroke-linecap="round" stroke-linejoin="round"/> <path d="M11.9199 9.14031V5.32031" stroke="white" stroke-width="1.5" stroke-linecap="round" stroke-linejoin="round"/> </g> <defs> <clipPath id="clip0_2085_392278"> <rect width="24" height="24" fill="white"/> </clipPath> </defs> </svg>
