<svg width="24" height="24" viewBox="0 0 24 24" fill="none" xmlns="http://www.w3.org/2000/svg"> <g clip-path="url(#clip0_4482_2429)"> <path d="M14.33 22H6C3.79 22 2 20.21 2 18V12C2 9.79 3.79 8 6 8H14.33C16.54 8 18.33 9.79 18.33 12V18C18.33 20.21 16.54 22 14.33 22Z" stroke="white" stroke-width="1.5" stroke-linecap="round" stroke-linejoin="round"/> <path opacity="0.4" d="M2 13.4902H18.33" stroke="white" stroke-width="1.5" stroke-linecap="round" stroke-linejoin="round"/> <path opacity="0.4" d="M6.80005 18.5H9.68994" stroke="white" stroke-width="1.5" stroke-linecap="round" stroke-linejoin="round"/> <path opacity="0.4" d="M16.79 2.38977C17.86 2.03977 19.03 2.12977 20.03 2.63977C21.03 3.14977 21.79 4.03977 22.14 5.10977" stroke="white" stroke-width="1.5" stroke-linecap="round" stroke-linejoin="round"/> <path opacity="0.4" d="M17.05 5.18986C18.16 4.82986 19.36 5.43986 19.72 6.54986" stroke="white" stroke-width="1.5" stroke-linecap="round" stroke-linejoin="round"/> </g> <defs> <clipPath id="clip0_4482_2429"> <rect width="24" height="24" fill="white"/> </clipPath> </defs> </svg>
