<svg width="24" height="24" viewBox="0 0 24 24" fill="none" xmlns="http://www.w3.org/2000/svg"> <g clip-path="url(#clip0_4482_9585)"> <path d="M5 18.45V21.25" stroke="white" stroke-width="1.5" stroke-linecap="round" stroke-linejoin="round"/> <path d="M19 18.45V21.25" stroke="white" stroke-width="1.5" stroke-linecap="round" stroke-linejoin="round"/> <path opacity="0.4" d="M20 10.75V6.75C20 4.54 18.21 2.75 16 2.75H8C5.79 2.75 4 4.54 4 6.75V10.75" stroke="white" stroke-width="1.5" stroke-linecap="round" stroke-linejoin="round"/> <path d="M16 15.25H8C6.9 15.25 6 14.35 6 13.25C6 12.15 5.1 11.25 4 11.25C2.9 11.25 2 12.15 2 13.25C2 16.56 4.69 19.25 8 19.25H16C19.31 19.25 22 16.56 22 13.25C22 12.15 21.1 11.25 20 11.25C18.9 11.25 18 12.15 18 13.25C18 14.35 17.1 15.25 16 15.25Z" stroke="white" stroke-width="1.5" stroke-linecap="round" stroke-linejoin="round"/> </g> <defs> <clipPath id="clip0_4482_9585"> <rect width="24" height="24" fill="white"/> </clipPath> </defs> </svg>
