<svg width="24" height="24" viewBox="0 0 24 24" fill="none" xmlns="http://www.w3.org/2000/svg"> <g clip-path="url(#clip0_655_9588)"> <path d="M19.7807 2C21.0007 2 22.0007 3 22.0007 4.22C22.0007 5.44 21.0007 6.44 19.7807 6.44M19.7807 2H8.67068C7.45068 2 6.45068 3 6.45068 4.22V17.55H15.3407C13.9607 17.55 12.8607 18.83 13.1707 20.26C13.4007 21.35 14.5007 22.1 15.6107 21.98C16.3707 21.9 16.9407 21.48 17.3407 20.88C17.3407 20.77 17.4507 20.77 17.4507 20.66C17.5607 20.44 17.6707 20.1 17.6707 19.77V5.61C17.6707 4.11 18.4807 2.73 19.7807 2ZM13.1107 19.78C13.1107 18.56 14.1107 17.56 15.3307 17.56H4.28068C3.39068 17.56 2.52068 18.05 2.18068 18.88C1.53068 20.47 2.71068 22 4.22068 22H15.3307C14.1107 22 13.1107 21 13.1107 19.78Z" stroke="white" stroke-width="1.5" stroke-linecap="round" stroke-linejoin="round"/> </g> <defs> <clipPath id="clip0_655_9588"> <rect width="24" height="24" fill="white"/> </clipPath> </defs> </svg>
