<svg width="24" height="24" viewBox="0 0 24 24" fill="none" xmlns="http://www.w3.org/2000/svg"> <g clip-path="url(#clip0_2085_390392)"> <path opacity="0.4" d="M6.32992 7.75015C6.32992 7.75015 6.36992 7.72015 6.37992 7.75015C6.65992 9.11015 7.71992 10.1701 9.07992 10.4501C9.10992 10.4501 9.10992 10.4901 9.07992 10.5001C7.71992 10.7801 6.65992 11.8401 6.37992 13.2001C6.37992 13.2301 6.33992 13.2301 6.32992 13.2001C6.04992 11.8401 4.98992 10.7801 3.62992 10.5001C3.59992 10.5001 3.59992 10.4601 3.62992 10.4501C4.98992 10.1701 6.04992 9.11015 6.32992 7.75015Z" stroke="white" stroke-width="1.5" stroke-linecap="round" stroke-linejoin="round"/> <path d="M3.44 4.5098C3.5 4.2298 3.9 4.2298 3.95 4.5098C4.08 5.1298 4.56 5.6098 5.18 5.7398C5.46 5.7998 5.46 6.1998 5.18 6.2498C4.56 6.3798 4.08 6.8598 3.95 7.4798C3.89 7.7598 3.49 7.7598 3.44 7.4798C3.31 6.8598 2.83 6.3798 2.21 6.2498C1.93 6.1898 1.93 5.7898 2.21 5.7398C2.83 5.6098 3.31 5.1298 3.44 4.5098Z" stroke="white" stroke-width="1.5" stroke-linecap="round" stroke-linejoin="round"/> <path d="M8.96005 6.80993L9.59005 6.63993C10.53 6.37993 11 6.24993 11.46 6.27993C11.87 6.29993 12.26 6.39993 12.62 6.58993C13.03 6.79993 13.3701 7.13993 14.0601 7.82993L17.82 11.5899C18.51 12.2799 18.85 12.6199 19.06 13.0299C19.24 13.3899 19.3501 13.7899 19.3701 14.1899C19.3901 14.6499 19.26 15.1199 19 16.0599L18.83 16.6899C18.51 17.8399 18.3601 18.4199 18.0301 18.8599C17.7401 19.2499 17.36 19.5499 16.92 19.7499C16.42 19.9799 15.82 20.0099 14.63 20.0699L10.19 20.2999C8.43005 20.3899 7.55005 20.4299 6.88005 20.1099C6.30005 19.8299 5.83005 19.3599 5.54005 18.7699C5.22005 18.1099 5.26005 17.2299 5.35005 15.4599L5.37005 15.1399M6.79005 18.8499L11.2 14.4399M18.66 12.4099L20.0401 11.4499C21.0801 10.7299 21.6 10.3699 21.82 9.90993C22.01 9.49993 22.0501 9.03993 21.9401 8.59993C21.8101 8.09993 21.36 7.65993 20.47 6.75993C19.94 6.22993 19.42 5.70993 18.89 5.17993C18 4.28993 17.55 3.83993 17.05 3.70993C16.61 3.58993 16.15 3.63993 15.74 3.82993C15.27 4.04993 14.91 4.56993 14.19 5.60993L13.23 6.98993L18.65 12.4099H18.66Z" stroke="white" stroke-width="1.5" stroke-linecap="round" stroke-linejoin="round"/> </g> <defs> <clipPath id="clip0_2085_390392"> <rect width="24" height="24" fill="white"/> </clipPath> </defs> </svg>
