<svg width="24" height="24" viewBox="0 0 24 24" fill="none" xmlns="http://www.w3.org/2000/svg"> <g clip-path="url(#clip0_2085_391920)"> <path d="M20 21.9999H4C2.9 21.9999 2 21.0999 2 19.9999V12.3399C2 7.00992 6.02 2.35992 11.34 2.01992C17.16 1.63992 22 6.25992 22 11.9999V19.9999C22 21.0999 21.1 21.9999 20 21.9999Z" stroke="white" stroke-width="1.5" stroke-linecap="round" stroke-linejoin="round"/> <path d="M8.25 22C6.18 22 4.5 20.32 4.5 18.25V13.25C4.5 11.18 6.18 9.5 8.25 9.5C10.32 9.5 12 11.18 12 13.25V15.75" stroke="white" stroke-width="1.5" stroke-linecap="round" stroke-linejoin="round"/> <path d="M15.75 22C17.82 22 19.5 20.32 19.5 18.25V13.25C19.5 11.18 17.82 9.5 15.75 9.5C13.68 9.5 12 11.18 12 13.25V15.75" stroke="white" stroke-width="1.5" stroke-linecap="round" stroke-linejoin="round"/> <path opacity="0.4" d="M10.17 18.5802L11.55 19.2702C11.83 19.4102 12.16 19.4102 12.44 19.2702L13.82 18.5802C14.29 18.3402 14.5 17.7802 14.3 17.2902C13.93 16.3802 13.03 15.7402 11.99 15.7402C10.95 15.7402 10.05 16.3802 9.68002 17.2902C9.48002 17.7802 9.68002 18.3402 10.16 18.5802H10.17Z" stroke="white" stroke-width="1.5" stroke-linecap="round" stroke-linejoin="round"/> <path opacity="0.4" d="M7.62988 13.25H8.87988" stroke="white" stroke-width="1.5" stroke-linecap="round" stroke-linejoin="round"/> <path opacity="0.4" d="M15.1201 13.25H16.3601" stroke="white" stroke-width="1.5" stroke-linecap="round" stroke-linejoin="round"/> </g> <defs> <clipPath id="clip0_2085_391920"> <rect width="24" height="24" fill="white"/> </clipPath> </defs> </svg>
