<svg width="24" height="24" viewBox="0 0 24 24" fill="none" xmlns="http://www.w3.org/2000/svg"> <g clip-path="url(#clip0_2085_385060)"> <path opacity="0.4" d="M19.58 5.59L21.41 7.42C21.78 7.79 22 8.3 22 8.83V16C22 17.66 20.66 19 19 19H15.5C15.19 19 14.89 18.85 14.7 18.6L12.8 16.07C12.61 15.82 12.32 15.67 12 15.67C11.68 15.67 11.39 15.82 11.2 16.07L9.3 18.6C9.11 18.85 8.81 19 8.5 19H5C3.34 19 2 17.66 2 16V8.83C2 8.3 2.21 7.79 2.59 7.42L4.42 5.59C4.8 5.21 5.3 5 5.83 5H18.17C18.7 5 19.21 5.21 19.58 5.59Z" stroke="white" stroke-width="1.5" stroke-linecap="round" stroke-linejoin="round"/> <path d="M5.98999 9H17.99" stroke="white" stroke-width="1.5" stroke-linecap="round" stroke-linejoin="round"/> </g> <defs> <clipPath id="clip0_2085_385060"> <rect width="24" height="24" fill="white"/> </clipPath> </defs> </svg>
