<svg width="24" height="24" viewBox="0 0 24 24" fill="none" xmlns="http://www.w3.org/2000/svg"> <g clip-path="url(#clip0_4482_12785)"> <path opacity="0.4" d="M19.89 8.83953V6.51953C19.89 4.30953 18.1 2.51953 15.89 2.51953H6C3.79 2.51953 2 4.30953 2 6.51953V17.4695C2 19.6795 3.79 21.4695 6 21.4695H11.47" stroke="white" stroke-width="1.5" stroke-linecap="round" stroke-linejoin="round"/> <path d="M6.20996 7.79004H15.68" stroke="white" stroke-width="1.5" stroke-linecap="round" stroke-linejoin="round"/> <path d="M6.20996 12H10.42" stroke="white" stroke-width="1.5" stroke-linecap="round" stroke-linejoin="round"/> <path d="M6.20996 16.21H8.31996" stroke="white" stroke-width="1.5" stroke-linecap="round" stroke-linejoin="round"/> <path d="M22 15.1498V17.1198C22 19.3098 20.4 21.3698 18.23 21.9698C18.08 22.0098 17.92 22.0098 17.77 21.9698C15.59 21.3698 14 19.3098 14 17.1198V15.1498C14 14.7798 14.28 14.3598 14.62 14.2298L17.12 13.1998C17.68 12.9698 18.32 12.9698 18.88 13.1998L20.64 13.9198L21.38 14.2298C21.72 14.3598 22 14.7798 22 15.1498Z" stroke="white" stroke-width="1.5" stroke-linecap="round" stroke-linejoin="round"/> </g> <defs> <clipPath id="clip0_4482_12785"> <rect width="24" height="24" fill="white"/> </clipPath> </defs> </svg>
