<svg width="24" height="24" viewBox="0 0 24 24" fill="none" xmlns="http://www.w3.org/2000/svg"> <g clip-path="url(#clip0_4482_8539)"> <path d="M12.0003 13.66V11.99C13.2303 11.99 14.2203 10.99 14.2203 9.77005C14.2203 8.55005 13.2203 7.55005 12.0003 7.55005C10.7803 7.55005 9.78027 8.54005 9.78027 9.77005" stroke="white" stroke-width="1.5" stroke-linecap="round" stroke-linejoin="round"/> <path opacity="0.4" d="M12 22C17.5228 22 22 17.5228 22 12C22 6.47715 17.5228 2 12 2C6.47715 2 2 6.47715 2 12C2 17.5228 6.47715 22 12 22Z" stroke="white" stroke-width="1.5" stroke-linecap="round" stroke-linejoin="round"/> <path d="M11.9395 16.39C11.9395 16.39 11.9395 16.39 11.9395 16.3901C11.9395 16.3901 11.9395 16.3901 11.9395 16.3901C11.9395 16.3901 11.9395 16.3901 11.9395 16.3901C11.9395 16.39 11.9395 16.39 11.9395 16.39Z" stroke="white" stroke-width="1.5" stroke-linecap="round" stroke-linejoin="round"/> </g> <defs> <clipPath id="clip0_4482_8539"> <rect width="24" height="24" fill="white"/> </clipPath> </defs> </svg>
