<svg width="24" height="24" viewBox="0 0 24 24" fill="none" xmlns="http://www.w3.org/2000/svg"> <path fill-rule="evenodd" clip-rule="evenodd" d="M2.3999 6C2.3999 3.38579 4.53569 1.25 7.1499 1.25H16.1499C18.7641 1.25 20.8999 3.38579 20.8999 6V12C20.8999 12.4142 20.5641 12.75 20.1499 12.75C19.7357 12.75 19.3999 12.4142 19.3999 12V6C19.3999 4.21421 17.9357 2.75 16.1499 2.75H7.1499C5.36412 2.75 3.8999 4.21421 3.8999 6V18C3.8999 19.7858 5.36412 21.25 7.1499 21.25H10.1499C10.5641 21.25 10.8999 21.5858 10.8999 22C10.8999 22.4142 10.5641 22.75 10.1499 22.75H7.1499C4.53569 22.75 2.3999 20.6142 2.3999 18V6Z" fill="white"/> <path fill-rule="evenodd" clip-rule="evenodd" d="M14.1499 4.25C14.5641 4.25 14.8999 4.58579 14.8999 5V6C14.8999 6.68579 15.4641 7.25 16.1499 7.25H17.1499C17.5641 7.25 17.8999 7.58579 17.8999 8C17.8999 8.41421 17.5641 8.75 17.1499 8.75H16.1499C14.6357 8.75 13.3999 7.51421 13.3999 6V5C13.3999 4.58579 13.7357 4.25 14.1499 4.25Z" fill="white"/> <path opacity="0.4" d="M11.0703 17.2996L12.3103 16.0596L13.5503 17.2996M12.5303 16.8899C12.2003 17.8899 12.2803 19.0099 12.8203 19.9899C13.7803 21.7299 15.9003 22.4699 17.7403 21.6999C19.5803 20.9299 20.5402 18.8999 19.9702 16.9899C19.4002 15.0799 17.4903 13.9099 15.5303 14.2599" stroke="white" stroke-width="1.5" stroke-linecap="round" stroke-linejoin="round"/> </svg>
