<svg width="24" height="24" viewBox="0 0 24 24" fill="none" xmlns="http://www.w3.org/2000/svg"> <g clip-path="url(#clip0_4482_5985)"> <path d="M19.35 9.96996C19.35 11.33 18.84 12.7 17.8 13.74L11.1 20.45C9.03001 22.52 5.62999 22.52 3.54999 20.45C2.50999 19.41 2 18.04 2 16.68C2 15.31 2.50999 13.93 3.54999 12.9L10.26 6.19996C12.33 4.12996 15.72 4.12996 17.8 6.19996C18.84 7.23996 19.35 8.60996 19.35 9.96996Z" stroke="white" stroke-width="1.5" stroke-miterlimit="10" stroke-linecap="round" stroke-linejoin="round"/> <path opacity="0.4" d="M9.63009 17.7197C10.5501 16.7997 10.5501 15.2897 9.63009 14.3697C8.71009 13.4497 7.20009 13.4497 6.28009 14.3697C5.36009 15.2897 5.36009 16.7997 6.28009 17.7197C7.20009 18.6397 8.71009 18.6397 9.63009 17.7197Z" stroke="white" stroke-width="1.5" stroke-miterlimit="10" stroke-linecap="round" stroke-linejoin="round"/> <path opacity="0.4" d="M15.08 12.2705C16 11.3505 16 9.84047 15.08 8.92047C14.16 8.00047 12.65 8.00047 11.73 8.92047C10.81 9.84047 10.81 11.3505 11.73 12.2705C12.65 13.1905 14.16 13.1905 15.08 12.2705Z" stroke="white" stroke-width="1.5" stroke-miterlimit="10" stroke-linecap="round" stroke-linejoin="round"/> <path d="M19.0601 7.45042L19.4801 7.03042C20.1701 6.34042 20.1701 5.21043 19.4801 4.52043C18.7901 3.83043 17.6601 3.83043 16.9701 4.52043L16.55 4.94043" stroke="white" stroke-width="1.5" stroke-miterlimit="10" stroke-linecap="round" stroke-linejoin="round"/> <path d="M22 2L19.48 4.52" stroke="white" stroke-width="1.5" stroke-miterlimit="10" stroke-linecap="round" stroke-linejoin="round"/> </g> <defs> <clipPath id="clip0_4482_5985"> <rect width="24" height="24" fill="white"/> </clipPath> </defs> </svg>
