<svg width="24" height="24" viewBox="0 0 24 24" fill="none" xmlns="http://www.w3.org/2000/svg"> <g clip-path="url(#clip0_2085_389775)"> <path opacity="0.4" d="M13.4801 9.33008C15.0101 9.69008 16.3601 10.6001 17.2601 11.8901C18.1601 13.1801 18.5601 14.7501 18.3801 16.3201C18.2001 17.8801 17.4501 19.3201 16.2701 20.3701C15.0901 21.4201 13.5801 21.9901 12.0001 21.9901C10.4201 21.9901 8.91008 21.4101 7.73008 20.3701C6.55008 19.3201 5.80008 17.8801 5.62008 16.3201C5.44008 14.7601 5.84008 13.1801 6.74008 11.8901C7.64008 10.6001 8.99008 9.69008 10.5201 9.33008V12.3901C10.5201 12.5801 10.6001 12.7701 10.7301 12.9101C10.8701 13.0501 11.0501 13.1301 11.2501 13.1301H12.7401C12.9301 13.1301 13.1201 13.0501 13.2601 12.9101C13.4001 12.7701 13.4701 12.5901 13.4701 12.3901V9.33008H13.4801Z" stroke="white" stroke-width="1.5" stroke-linecap="round" stroke-linejoin="round"/> <path d="M13.4799 12.21C14.2499 12.55 14.8899 13.14 15.2699 13.89C15.6599 14.64 15.7699 15.5 15.5999 16.33C15.4299 17.16 14.9699 17.9 14.3199 18.43C13.6599 18.96 12.8499 19.25 11.9999 19.25C11.1499 19.25 10.3399 18.96 9.67992 18.43C9.01992 17.9 8.56992 17.16 8.39992 16.33C8.22992 15.5 8.33992 14.64 8.72992 13.89C9.11992 13.14 9.74992 12.55 10.5199 12.21V12.39C10.5199 12.58 10.5999 12.77 10.7299 12.91C10.8699 13.05 11.0499 13.13 11.2499 13.13H12.7399C12.9299 13.13 13.1199 13.05 13.2599 12.91C13.3999 12.77 13.4699 12.59 13.4699 12.39V12.21H13.4799Z" stroke="white" stroke-width="1.5" stroke-linecap="round" stroke-linejoin="round"/> <path d="M13.48 12.3902C13.48 12.5802 13.4 12.7702 13.27 12.9102C13.13 13.0502 12.95 13.1302 12.75 13.1302H11.26C11.07 13.1302 10.88 13.0502 10.74 12.9102C10.6 12.7702 10.53 12.5902 10.53 12.3902V8.4402C10.53 8.2502 10.61 8.0602 10.75 7.9202C10.89 7.7802 11.07 7.7102 11.27 7.7002H12.76C12.95 7.7002 13.14 7.7802 13.28 7.9202C13.42 8.0602 13.5 8.2402 13.5 8.4402V12.3902H13.48Z" stroke="white" stroke-width="1.5" stroke-linecap="round" stroke-linejoin="round"/> <path opacity="0.4" d="M12 2V7.53" stroke="white" stroke-width="1.5" stroke-linecap="round" stroke-linejoin="round"/> <path d="M8.81006 2H15.1901" stroke="white" stroke-width="1.5" stroke-linecap="round" stroke-linejoin="round"/> </g> <defs> <clipPath id="clip0_2085_389775"> <rect width="24" height="24" fill="white"/> </clipPath> </defs> </svg>
