<svg width="24" height="24" viewBox="0 0 24 24" fill="none" xmlns="http://www.w3.org/2000/svg"> <g clip-path="url(#clip0_2085_392746)"> <path d="M8.53994 2L4.68994 5.85L8.53994 9.7" stroke="white" stroke-width="1.71" stroke-linecap="round" stroke-linejoin="round"/> <path opacity="0.4" d="M3.91992 13.9198C3.91992 15.5198 4.38992 17.0798 5.27992 18.4098C6.16992 19.7398 7.42992 20.7698 8.89992 21.3798C10.3799 21.9898 11.9999 22.1498 13.5699 21.8398C15.1399 21.5298 16.5799 20.7598 17.7099 19.6298C18.8399 18.4998 19.6099 17.0598 19.9199 15.4898C20.2299 13.9198 20.0699 12.2998 19.4599 10.8198C18.8499 9.33984 17.8099 8.07984 16.4899 7.19984C15.1599 6.30984 13.5999 5.83984 11.9999 5.83984H4.68992" stroke="white" stroke-width="1.71" stroke-linecap="round" stroke-linejoin="round"/> </g> <defs> <clipPath id="clip0_2085_392746"> <rect width="24" height="24" fill="white"/> </clipPath> </defs> </svg>
