<svg width="24" height="24" viewBox="0 0 24 24" fill="none" xmlns="http://www.w3.org/2000/svg"> <g clip-path="url(#clip0_2085_392605)"> <path d="M7.43004 10.7293C7.43004 11.1093 7.12004 11.4193 6.73004 11.4193C6.34004 11.4193 6.04004 11.1093 6.04004 10.7293C6.04004 10.3493 6.35004 10.0293 6.73004 10.0293C7.11004 10.0293 7.43004 10.3393 7.43004 10.7293Z" fill="white"/> <path d="M20.62 18.0107H3.38C2.62 18.0107 2 17.3907 2 16.6307V15.4707H22V16.6307C22 17.3907 21.38 18.0107 20.62 18.0107Z" stroke="white" stroke-width="1.5" stroke-linecap="round" stroke-linejoin="round"/> <path d="M11.47 10.7302C11.47 13.3502 9.34999 15.4702 6.72999 15.4702C4.10999 15.4702 1.98999 13.3502 1.98999 10.7302C1.98999 8.11023 4.10999 5.99023 6.72999 5.99023C9.34999 5.99023 11.47 8.11023 11.47 10.7302Z" stroke="white" stroke-width="1.5" stroke-linecap="round" stroke-linejoin="round"/> <path d="M6.73999 5.99023H17.27C19.89 5.99023 22.01 8.11023 22.01 10.7302C22.01 13.3502 19.89 15.4702 17.27 15.4702H6.73999" stroke="white" stroke-width="1.5" stroke-linecap="round" stroke-linejoin="round"/> <path opacity="0.4" d="M9.12011 10.7296C9.12011 12.0396 8.05011 13.1096 6.74011 13.1096C5.43011 13.1096 4.36011 12.0396 4.36011 10.7296C4.36011 9.41961 5.43011 8.34961 6.74011 8.34961C8.05011 8.34961 9.12011 9.41961 9.12011 10.7296Z" stroke="white" stroke-width="1.5" stroke-linecap="round" stroke-linejoin="round"/> <path opacity="0.4" d="M7.43004 10.7293C7.43004 11.1093 7.12004 11.4193 6.73004 11.4193C6.34004 11.4193 6.04004 11.1093 6.04004 10.7293C6.04004 10.3493 6.35004 10.0293 6.73004 10.0293C7.11004 10.0293 7.43004 10.3393 7.43004 10.7293Z" fill="white"/> </g> <defs> <clipPath id="clip0_2085_392605"> <rect width="24" height="24" fill="white"/> </clipPath> </defs> </svg>
