<svg width="24" height="24" viewBox="0 0 24 24" fill="none" xmlns="http://www.w3.org/2000/svg"> <g clip-path="url(#clip0_2085_389923)"> <path d="M17.1099 3.14042L20.6099 2.05042C21.4299 1.79042 22.1999 2.56042 21.9399 3.38042L20.8499 6.89042L16.2499 9.62042C15.6499 9.02042 14.9899 8.36042 14.3799 7.75042" stroke="white" stroke-width="1.5" stroke-linecap="round" stroke-linejoin="round"/> <path d="M16.2498 9.61086L15.3098 12.4209L11.5598 8.67086L14.3698 7.73086L17.0998 3.13086L18.9698 5.00086" stroke="white" stroke-width="1.5" stroke-linecap="round" stroke-linejoin="round"/> <path d="M14.3799 11.4902L12.5099 13.3602L16.2599 15.2302L13.4499 18.0402L11.5799 16.1702C11.0599 15.6502 10.2199 15.6502 9.7099 16.1702L6.8999 18.9802L9.7099 21.7902L11.5799 19.9202L8.7699 17.1102" stroke="white" stroke-width="1.5" stroke-linecap="round" stroke-linejoin="round"/> <g opacity="0.4"> <path d="M5.00989 17.1104L6.87989 18.9804L5.66989 21.4104C5.34989 22.0604 4.47989 22.2004 3.96989 21.6904L2.30989 20.0304C1.79989 19.5204 1.93989 18.6504 2.58989 18.3304L5.01989 17.1204L5.00989 17.1104Z" stroke="white" stroke-width="1.5" stroke-linecap="round" stroke-linejoin="round"/> <path d="M5.00977 17.1104L12.5098 9.61035" stroke="white" stroke-width="1.5" stroke-linecap="round" stroke-linejoin="round"/> <path d="M5.01978 15.2305L5.95978 16.1705" stroke="white" stroke-width="1.5" stroke-linecap="round" stroke-linejoin="round"/> <path d="M9.69995 10.5508L10.64 11.4908" stroke="white" stroke-width="1.5" stroke-linecap="round" stroke-linejoin="round"/> </g> <path d="M11.5698 16.1705L13.7498 13.9805" stroke="white" stroke-width="1.5" stroke-linecap="round" stroke-linejoin="round"/> </g> <defs> <clipPath id="clip0_2085_389923"> <rect width="24" height="24" fill="white"/> </clipPath> </defs> </svg>
