<svg width="24" height="24" viewBox="0 0 24 24" fill="none" xmlns="http://www.w3.org/2000/svg"> <g clip-path="url(#clip0_2085_392606)"> <path d="M7 17.3594H3.15991V18.3894C3.15991 19.4894 4.05991 20.3894 5.15991 20.3894H18.8399C19.9399 20.3894 20.8399 19.4894 20.8399 18.3894V17.3594H10.7491" stroke="white" stroke-width="1.5" stroke-linecap="round" stroke-linejoin="round"/> <path opacity="0.4" d="M20.8399 11.7995H3.15991V10.7695C3.15991 9.66953 4.05991 8.76953 5.15991 8.76953H18.8399C19.9399 8.76953 20.8399 9.66953 20.8399 10.7695V11.7995Z" stroke="white" stroke-width="1.5" stroke-linecap="round" stroke-linejoin="round"/> <path d="M4.51991 14.5801L7.63991 17.3601H3.15991V14.5801H4.51991Z" stroke="white" stroke-width="1.5" stroke-linecap="round" stroke-linejoin="round"/> <path d="M20.84 14.5801V17.3601H10.28L13.41 14.5801H20.84Z" stroke="white" stroke-width="1.5" stroke-linecap="round" stroke-linejoin="round"/> <path d="M20.61 14.5808H3.39C2.62 14.5808 2 13.9608 2 13.1908C2 12.4208 2.62 11.8008 3.39 11.8008H20.61C21.38 11.8008 22 12.4208 22 13.1908C22 13.9608 21.38 14.5808 20.61 14.5808Z" stroke="white" stroke-width="1.5" stroke-linecap="round" stroke-linejoin="round"/> <path opacity="0.4" d="M13.41 14.5801L8.97003 18.5301L4.53003 14.5801H13.42H13.41Z" fill="white"/> <path d="M13.41 14.5801L10.28 17.3601L8.96002 18.5301L7.64002 17.3601L4.52002 14.5801H13.41Z" stroke="white" stroke-width="1.5" stroke-linecap="round" stroke-linejoin="round"/> <path d="M12 8.7707V5.9707" stroke="white" stroke-width="1.5" stroke-linecap="round" stroke-linejoin="round"/> <path opacity="0.4" d="M13.99 3.99C13.99 5.09 13.1 5.98 12 5.98C10.9 5.98 10.01 5.09 10.01 3.99C10.01 2.89 10.9 2 12 2C13.1 2 13.99 2.89 13.99 3.99Z" stroke="white" stroke-width="1.5" stroke-linecap="round" stroke-linejoin="round"/> </g> <defs> <clipPath id="clip0_2085_392606"> <rect width="24" height="24" fill="white"/> </clipPath> </defs> </svg>
