<svg width="24" height="24" viewBox="0 0 24 24" fill="none" xmlns="http://www.w3.org/2000/svg"> <g clip-path="url(#clip0_2085_389617)"> <path d="M20.31 15.3298C16.79 18.8498 11.14 18.9098 7.61996 15.3898C4.09996 11.8698 4.15996 6.21976 7.67996 2.69976M20.31 15.3298C21.99 13.6498 20.52 9.45976 17.03 5.96976C13.54 2.47976 9.34996 1.00976 7.66996 2.68976C5.98996 4.36976 7.45996 8.55976 10.95 12.0498M20.31 15.3298C18.63 17.0098 14.44 15.5398 10.95 12.0498M10.95 12.0498L14 8.99976" stroke="white" stroke-width="1.5" stroke-linecap="round" stroke-linejoin="round"/> <path opacity="0.4" d="M6.48993 15L4.74993 17.49C3.34993 19.49 2.64993 20.5 3.16993 21.25C3.68993 22 5.07993 22 7.84993 22H12.1499C14.9299 22 16.3099 22 16.8299 21.25C17.2999 20.56 16.7599 19.67 15.6099 18" stroke="white" stroke-width="1.5" stroke-linecap="round" stroke-linejoin="round"/> </g> <defs> <clipPath id="clip0_2085_389617"> <rect width="24" height="24" fill="white"/> </clipPath> </defs> </svg>
