<svg width="24" height="24" viewBox="0 0 24 24" fill="none" xmlns="http://www.w3.org/2000/svg"> <g clip-path="url(#clip0_4482_9903)"> <path d="M17.7901 21.4698C20.1152 21.4698 22.0001 19.5849 22.0001 17.2598C22.0001 14.9347 20.1152 13.0498 17.7901 13.0498C15.465 13.0498 13.5801 14.9347 13.5801 17.2598C13.5801 19.5849 15.465 21.4698 17.7901 21.4698Z" stroke="white" stroke-width="1.5" stroke-linecap="round" stroke-linejoin="round"/> <path d="M18.0498 15.8398V17.5198" stroke="white" stroke-width="1.5" stroke-linecap="round" stroke-linejoin="round"/> <path d="M18.0505 17.5298L16.7305 18.3198" stroke="white" stroke-width="1.5" stroke-linecap="round" stroke-linejoin="round"/> <path opacity="0.4" d="M10.42 18.3198H6.21C3.88 18.3198 2 16.4298 2 14.1098V6.73979C2 4.40979 3.89 2.52979 6.21 2.52979H16.74C19.07 2.52979 20.95 4.41979 20.95 6.73979V9.89979" stroke="white" stroke-width="1.5" stroke-linecap="round" stroke-linejoin="round"/> <path d="M6.20996 7.25977L10.64 9.18976C11.17 9.41976 11.78 9.41976 12.32 9.18976L16.74 7.27977" stroke="white" stroke-width="1.5" stroke-linecap="round" stroke-linejoin="round"/> </g> <defs> <clipPath id="clip0_4482_9903"> <rect width="24" height="24" fill="white"/> </clipPath> </defs> </svg>
