<svg width="24" height="24" viewBox="0 0 24 24" fill="none" xmlns="http://www.w3.org/2000/svg"> <g clip-path="url(#clip0_2085_381071)"> <path d="M19.8901 13.5799V17.7899C19.8901 19.2399 18.7101 20.4199 17.2601 20.4199C15.8101 20.4199 14.6301 19.2399 14.6301 17.7899V7.5299C14.6301 6.0799 13.4501 4.8999 12.0001 4.8999C10.5501 4.8999 9.37012 6.0799 9.37012 7.5299V19.3699" stroke="white" stroke-width="1.5" stroke-linecap="round" stroke-linejoin="round"/> <path d="M22 15.6801L19.89 13.5701L17.78 15.6801" stroke="white" stroke-width="1.5" stroke-linecap="round" stroke-linejoin="round"/> <g opacity="0.4"> <path d="M9.37011 7.53015C9.37011 6.08015 8.19011 4.90015 6.74011 4.90015C5.29011 4.90015 4.11011 6.08015 4.11011 7.53015V19.3701" stroke="white" stroke-width="1.5" stroke-linecap="round" stroke-linejoin="round"/> <path d="M4.11 7.53008V5.69008C4.11 4.53008 3.17 3.58008 2 3.58008" stroke="white" stroke-width="1.5" stroke-linecap="round" stroke-linejoin="round"/> </g> </g> <defs> <clipPath id="clip0_2085_381071"> <rect width="24" height="24" fill="white"/> </clipPath> </defs> </svg>
