<svg width="24" height="24" viewBox="0 0 24 24" fill="none" xmlns="http://www.w3.org/2000/svg"> <g clip-path="url(#clip0_2085_389555)"> <path d="M13.8301 17.5601H6.83008C6.00165 17.5601 5.33008 18.2316 5.33008 19.0601V20.5001C5.33008 21.3285 6.00165 22.0001 6.83008 22.0001H13.8301C14.6585 22.0001 15.3301 21.3285 15.3301 20.5001V19.0601C15.3301 18.2316 14.6585 17.5601 13.8301 17.5601Z" stroke="white" stroke-width="1.5" stroke-linecap="round" stroke-linejoin="round"/> <path d="M15.3301 19.78H18.6601C20.5001 19.78 21.9901 18.29 21.9901 16.45V2" stroke="white" stroke-width="1.5" stroke-linecap="round" stroke-linejoin="round"/> <path opacity="0.4" d="M5.33 5.33008C3.49 5.33008 2 6.82008 2 8.66008V10.8801C2 12.7201 3.49 14.2101 5.33 14.2101H7C8.84 14.2101 10.33 12.7201 10.33 10.8801C10.33 12.7201 11.82 14.2101 13.66 14.2101H15.33C17.17 14.2101 18.66 12.7201 18.66 10.8801V8.66008C18.66 6.82008 17.17 5.33008 15.33 5.33008H5.33Z" stroke="white" stroke-width="1.5" stroke-linecap="round" stroke-linejoin="round"/> </g> <defs> <clipPath id="clip0_2085_389555"> <rect width="24" height="24" fill="white"/> </clipPath> </defs> </svg>
