<svg width="24" height="24" viewBox="0 0 24 24" fill="none" xmlns="http://www.w3.org/2000/svg"> <g clip-path="url(#clip0_2085_392155)"> <path d="M2.11011 7.56055H21.7301" stroke="white" stroke-width="1.5" stroke-linecap="round" stroke-linejoin="round"/> <path opacity="0.4" d="M12 22.0005V7.56055" stroke="white" stroke-width="1.5" stroke-linecap="round" stroke-linejoin="round"/> <path d="M6.44012 2.00023H17.5501C18.8401 2.00023 20.0601 2.56023 20.9001 3.53023C21.7401 4.50023 22.1301 5.79023 21.9501 7.06023L20.7301 15.7602C20.5301 17.2102 19.6201 18.4702 18.3001 19.1202L12.9701 21.7602C12.3601 22.0702 11.6401 22.0702 11.0301 21.7602L5.70012 19.1202C4.38012 18.4702 3.48012 17.2102 3.27012 15.7502L2.05012 7.05023C1.87012 5.78023 2.25012 4.49023 3.10012 3.52023C3.94012 2.55023 5.16012 1.99023 6.45012 1.99023L6.44012 2.00023Z" stroke="white" stroke-width="1.5" stroke-linecap="round" stroke-linejoin="round"/> </g> <defs> <clipPath id="clip0_2085_392155"> <rect width="24" height="24" fill="white"/> </clipPath> </defs> </svg>
