<svg width="24" height="24" viewBox="0 0 24 24" fill="none" xmlns="http://www.w3.org/2000/svg"> <g clip-path="url(#clip0_2085_391929)"> <path opacity="0.4" d="M10.3 17.2998C10.3 17.2998 11.06 18.1098 11.99 18.1098C12.92 18.1098 13.68 17.2998 13.68 17.2998" stroke="white" stroke-width="1.5" stroke-linecap="round" stroke-linejoin="round"/> <path d="M18.6101 9.54004C18.6101 9.54004 19.6701 11.33 21.4601 12.64C22.2101 13.19 22.1801 14.32 21.3801 14.82C20.7301 15.22 19.8701 15.56 18.7301 15.56" stroke="white" stroke-width="1.5" stroke-linecap="round" stroke-linejoin="round"/> <path d="M5.39003 9.54004C5.39003 9.54004 4.33003 11.33 2.54003 12.64C1.79003 13.19 1.82003 14.32 2.62003 14.82C3.27003 15.22 4.13003 15.56 5.27003 15.56" stroke="white" stroke-width="1.5" stroke-linecap="round" stroke-linejoin="round"/> <path d="M18.61 9.45996V15.22C18.61 18.96 17.99 22 14.25 22C12.99 22 12 20.98 12 19.71V18.14" stroke="white" stroke-width="1.5" stroke-linecap="round" stroke-linejoin="round"/> <path d="M12.0001 18.1394V19.7094C12.0001 20.9694 11.0201 21.9994 9.75014 21.9994C6.01014 21.9994 5.39014 18.9594 5.39014 15.2194V9.45941C5.39014 9.45941 7.93014 10.1794 9.54014 8.14941C9.80014 9.01941 11.0501 9.62941 12.0001 9.62941C12.9501 9.62941 14.2001 9.01941 14.4601 8.14941C16.0601 10.1794 18.6101 9.45941 18.6101 9.45941" stroke="white" stroke-width="1.5" stroke-linecap="round" stroke-linejoin="round"/> <path opacity="0.4" d="M13.6501 12.9301C13.6501 13.5101 14.1201 13.9901 14.7101 13.9901C15.3001 13.9901 15.7701 13.5201 15.7701 12.9301C15.7701 12.3401 15.3001 11.8701 14.7101 11.8701C14.1201 11.8701 13.6501 12.3401 13.6501 12.9301Z" fill="white"/> <path opacity="0.4" d="M10.35 12.9301C10.35 13.5101 9.87998 13.9901 9.28998 13.9901C8.69998 13.9901 8.22998 13.5201 8.22998 12.9301C8.22998 12.3401 8.69998 11.8701 9.28998 11.8701C9.87998 11.8701 10.35 12.3401 10.35 12.9301Z" fill="white"/> <path d="M22 8.35977C22 7.35977 21.31 6.52977 20.39 6.29977C20.42 6.15977 20.44 6.00977 20.44 5.85977C20.44 4.68977 19.49 3.73977 18.32 3.73977C18 3.73977 17.7 3.80977 17.43 3.93977C17.17 3.06977 16.36 2.42977 15.4 2.42977C14.8 2.42977 14.25 2.67977 13.87 3.08977C13.51 2.43977 12.81 2.00977 12.01 2.00977C11.21 2.00977 10.52 2.44977 10.15 3.08977C9.76002 2.68977 9.22002 2.42977 8.62002 2.42977C7.66002 2.42977 6.85002 3.06977 6.59002 3.93977C6.32002 3.80977 6.02002 3.73977 5.70002 3.73977C4.53002 3.73977 3.58002 4.68977 3.58002 5.85977C3.58002 6.00977 3.60002 6.15977 3.63002 6.29977C2.70002 6.52977 2.02002 7.35977 2.02002 8.35977" stroke="white" stroke-width="1.5" stroke-linecap="round" stroke-linejoin="round"/> </g> <defs> <clipPath id="clip0_2085_391929"> <rect width="24" height="24" fill="white"/> </clipPath> </defs> </svg>
