<svg width="24" height="24" viewBox="0 0 24 24" fill="none" xmlns="http://www.w3.org/2000/svg"> <g clip-path="url(#clip0_2085_389790)"> <path d="M3.70999 5.41016C6.38999 5.41016 13.95 6.39016 13.47 8.82016C12.99 11.2502 6.08999 17.1102 2.73999 19.0602C3.30999 19.8202 3.62999 20.2502 4.19999 21.0102" stroke="white" stroke-width="1.5" stroke-linecap="round" stroke-linejoin="round"/> <path opacity="0.4" d="M11.5099 7.37012C9.06993 9.81012 7.11993 11.7601 11.5099 12.2501C15.8999 12.7401 15.8999 13.2301 11.9999 17.6201H13.9499" stroke="white" stroke-width="1.5" stroke-linecap="round" stroke-linejoin="round"/> <path d="M13.46 8.33988C15.41 10.7799 19.31 9.79988 19.31 6.87988" stroke="white" stroke-width="1.5" stroke-linecap="round" stroke-linejoin="round"/> <path d="M7.61011 19.0698H19.8901C20.1501 19.0698 20.4001 18.9698 20.5801 18.7798L21.2701 18.0898" stroke="white" stroke-width="1.5" stroke-linecap="round" stroke-linejoin="round"/> <path opacity="0.4" d="M15.41 5.9C16.4869 5.9 17.36 5.02696 17.36 3.95C17.36 2.87304 16.4869 2 15.41 2C14.333 2 13.46 2.87304 13.46 3.95C13.46 5.02696 14.333 5.9 15.41 5.9Z" stroke="white" stroke-width="1.5" stroke-linecap="round" stroke-linejoin="round"/> <path d="M17.3699 22.0001C18.1762 22.0001 18.8299 21.3464 18.8299 20.5401C18.8299 19.7337 18.1762 19.0801 17.3699 19.0801C16.5636 19.0801 15.9099 19.7337 15.9099 20.5401C15.9099 21.3464 16.5636 22.0001 17.3699 22.0001Z" stroke="white" stroke-width="1.5" stroke-linecap="round" stroke-linejoin="round"/> <path d="M10.5401 22.0001C11.3464 22.0001 12.0001 21.3464 12.0001 20.5401C12.0001 19.7337 11.3464 19.0801 10.5401 19.0801C9.73374 19.0801 9.08008 19.7337 9.08008 20.5401C9.08008 21.3464 9.73374 22.0001 10.5401 22.0001Z" stroke="white" stroke-width="1.5" stroke-linecap="round" stroke-linejoin="round"/> </g> <defs> <clipPath id="clip0_2085_389790"> <rect width="24" height="24" fill="white"/> </clipPath> </defs> </svg>
