<svg width="24" height="24" viewBox="0 0 24 24" fill="none" xmlns="http://www.w3.org/2000/svg"> <g clip-path="url(#clip0_4482_14281)"> <path d="M12 22C17.5228 22 22 17.5228 22 12C22 6.47715 17.5228 2 12 2C6.47715 2 2 6.47715 2 12C2 17.5228 6.47715 22 12 22Z" stroke="white" stroke-width="1.5" stroke-linecap="round" stroke-linejoin="round"/> <path d="M11.9996 14.1096C13.165 14.1096 14.1096 13.165 14.1096 11.9996C14.1096 10.8343 13.165 9.88965 11.9996 9.88965C10.8343 9.88965 9.88965 10.8343 9.88965 11.9996C9.88965 13.165 10.8343 14.1096 11.9996 14.1096Z" stroke="white" stroke-width="1.5" stroke-linecap="round" stroke-linejoin="round"/> <path d="M10.9502 6.74023H13.0602" stroke="white" stroke-width="1.5" stroke-linecap="round" stroke-linejoin="round"/> <path opacity="0.4" d="M17.2602 3.5V12C17.2602 14.91 14.9002 17.26 12.0002 17.26C9.09023 17.26 6.74023 14.9 6.74023 12V3.5" stroke="white" stroke-width="1.5" stroke-linecap="round" stroke-linejoin="round"/> </g> <defs> <clipPath id="clip0_4482_14281"> <rect width="24" height="24" fill="white"/> </clipPath> </defs> </svg>
