<svg width="24" height="24" viewBox="0 0 24 24" fill="none" xmlns="http://www.w3.org/2000/svg"> <g clip-path="url(#clip0_655_9612)"> <path d="M8.0007 22C5.7807 20.67 4.2207 18.11 4.2207 15.33C4.2207 12.55 5.7807 9.99999 8.1107 8.54999C9.2207 7.87999 10.5507 7.54999 12.0007 7.54999C16.3307 7.54999 19.7807 10.99 19.7807 15.33C19.7807 18.11 18.2207 20.66 16.0007 22" stroke="white" stroke-width="1.5" stroke-linecap="round" stroke-linejoin="round"/> <path d="M3.10938 10C5.77938 8.44 8.77938 7.56 11.9994 7.56C15.2194 7.56 18.3294 8.45 20.8894 10" stroke="white" stroke-width="1.5" stroke-linecap="round" stroke-linejoin="round"/> <path d="M6.43945 8.44V2H17.5495V8.44" stroke="white" stroke-width="1.5" stroke-linecap="round" stroke-linejoin="round"/> <path opacity="0.4" d="M9.22016 14.22C9.53016 14.22 9.78016 13.97 9.78016 13.66C9.78016 13.35 9.53016 13.1 9.22016 13.1C8.91016 13.1 8.66016 13.35 8.66016 13.66C8.66016 13.97 8.91016 14.22 9.22016 14.22Z" fill="white" stroke="white" stroke-width="1.5" stroke-linecap="round" stroke-linejoin="round"/> <path opacity="0.4" d="M14.7807 14.22C15.0907 14.22 15.3407 13.97 15.3407 13.66C15.3407 13.35 15.0907 13.1 14.7807 13.1C14.4707 13.1 14.2207 13.35 14.2207 13.66C14.2207 13.97 14.4707 14.22 14.7807 14.22Z" fill="white" stroke="white" stroke-width="1.5" stroke-linecap="round" stroke-linejoin="round"/> <path opacity="0.4" d="M10.8906 17.56H13.1106L12.0006 20L10.8906 17.56Z" stroke="white" stroke-width="1.5" stroke-linecap="round" stroke-linejoin="round"/> </g> <defs> <clipPath id="clip0_655_9612"> <rect width="24" height="24" fill="white"/> </clipPath> </defs> </svg>
