<svg width="24" height="24" viewBox="0 0 24 24" fill="none" xmlns="http://www.w3.org/2000/svg"> <path fill-rule="evenodd" clip-rule="evenodd" d="M7.5 2.75C5.71421 2.75 4.25 4.21421 4.25 6V18C4.25 19.7858 5.71421 21.25 7.5 21.25H16.5C18.2858 21.25 19.75 19.7858 19.75 18V6C19.75 4.21421 18.2858 2.75 16.5 2.75H7.5ZM2.75 6C2.75 3.38579 4.88579 1.25 7.5 1.25H16.5C19.1142 1.25 21.25 3.38579 21.25 6V18C21.25 20.6142 19.1142 22.75 16.5 22.75H7.5C4.88579 22.75 2.75 20.6142 2.75 18V6Z" fill="white"/> <path opacity="0.4" fill-rule="evenodd" clip-rule="evenodd" d="M14.5 4.25C14.9142 4.25 15.25 4.58579 15.25 5V6C15.25 6.68579 15.8142 7.25 16.5 7.25H17.5C17.9142 7.25 18.25 7.58579 18.25 8C18.25 8.41421 17.9142 8.75 17.5 8.75H16.5C14.9858 8.75 13.75 7.51421 13.75 6V5C13.75 4.58579 14.0858 4.25 14.5 4.25Z" fill="white"/> <path opacity="0.4" fill-rule="evenodd" clip-rule="evenodd" d="M9.5 11.5C8.53421 11.5 7.75 12.2842 7.75 13.25V15.75C7.75 16.7158 8.53421 17.5 9.5 17.5H14.5C15.4638 17.5 16.25 16.7077 16.25 15.75V13.25C16.25 12.2842 15.4658 11.5 14.5 11.5H9.5ZM6.25 13.25C6.25 11.4558 7.70579 10 9.5 10H14.5C16.2942 10 17.75 11.4558 17.75 13.25V15.75C17.75 17.5323 16.2962 19 14.5 19H9.5C7.70579 19 6.25 17.5442 6.25 15.75V13.25Z" fill="white"/> <path opacity="0.4" fill-rule="evenodd" clip-rule="evenodd" d="M9.5 14.5C9.5 14.0858 9.83579 13.75 10.25 13.75H11.5C11.9142 13.75 12.25 14.0858 12.25 14.5C12.25 14.9142 11.9142 15.25 11.5 15.25H10.25C9.83579 15.25 9.5 14.9142 9.5 14.5Z" fill="white"/> <path opacity="0.4" fill-rule="evenodd" clip-rule="evenodd" d="M12.99 14.5C12.99 14.0858 13.3258 13.75 13.74 13.75H13.75C14.1642 13.75 14.5 14.0858 14.5 14.5C14.5 14.9142 14.1642 15.25 13.75 15.25H13.74C13.3258 15.25 12.99 14.9142 12.99 14.5Z" fill="white"/> </svg>
