<svg width="24" height="24" viewBox="0 0 24 24" fill="none" xmlns="http://www.w3.org/2000/svg"> <g clip-path="url(#clip0_2085_392157)"> <path d="M21.8899 9.54957V7.05957H16.0399C15.7699 7.05957 15.5199 7.16957 15.3299 7.34957L13.4299 9.24957C13.2399 9.43957 12.9899 9.53957 12.7199 9.53957H1.88989V18.9896C1.88989 20.6496 3.22989 21.9896 4.88989 21.9896H18.8899C20.5499 21.9896 21.8899 20.6496 21.8899 18.9896V9.53957V9.54957Z" stroke="white" stroke-width="1.41" stroke-linecap="round" stroke-linejoin="round"/> <path d="M9.3899 15.1504L8.1499 16.3904" stroke="white" stroke-width="1.41" stroke-linecap="round" stroke-linejoin="round"/> <path opacity="0.4" d="M8.1499 16.4004L9.3899 17.6404" stroke="white" stroke-width="1.41" stroke-linecap="round" stroke-linejoin="round"/> <path d="M14.3699 15.1504L15.6199 16.3904" stroke="white" stroke-width="1.41" stroke-linecap="round" stroke-linejoin="round"/> <path opacity="0.4" d="M15.6199 16.4004L14.3699 17.6404" stroke="white" stroke-width="1.41" stroke-linecap="round" stroke-linejoin="round"/> <path d="M12.5098 13.9102L11.2698 18.8902" stroke="white" stroke-width="1.41" stroke-linecap="round" stroke-linejoin="round"/> <path d="M21.8899 7.06V5C21.8899 3.34 20.5499 2 18.8899 2H16.0399C15.7699 2 15.5199 2.11 15.3299 2.29L13.4299 4.19C13.2399 4.38 12.9899 4.48 12.7199 4.48H4.88989C3.22989 4.48 1.88989 5.82 1.88989 7.48V9.54" stroke="white" stroke-width="1.41" stroke-linecap="round" stroke-linejoin="round"/> </g> <defs> <clipPath id="clip0_2085_392157"> <rect width="24" height="24" fill="white"/> </clipPath> </defs> </svg>
