<svg width="24" height="24" viewBox="0 0 24 24" fill="none" xmlns="http://www.w3.org/2000/svg"> <g clip-path="url(#clip0_4482_2690)"> <path opacity="0.4" d="M5.46997 12.57V11.05C5.46997 10.19 6.17003 9.48997 7.03003 9.48997H8.56995C8.78995 9.48997 8.99994 9.42997 9.18994 9.32997L11.5601 7.96996C12.1801 7.60996 12.96 8.05996 12.96 8.77996V15.21C12.96 15.97 12.1 16.42 11.48 15.97L9.22998 14.36C9.01998 14.21 8.76 14.13 8.5 14.13H7.03003C6.17003 14.13 5.46997 13.43 5.46997 12.57Z" stroke="white" stroke-width="1.5" stroke-linecap="round" stroke-linejoin="round"/> <path opacity="0.4" d="M17.5485 10.2909C17.8407 9.99748 18.3155 9.99677 18.6091 10.2889C18.9024 10.5811 18.9031 11.0559 18.611 11.3495L18.0719 11.8895L18.611 12.4315C18.9032 12.7251 18.9026 13.1998 18.6091 13.492C18.3155 13.7841 17.8407 13.7826 17.5485 13.4891L17.0143 12.952L16.4811 13.4891C16.1889 13.7826 15.7141 13.7842 15.4206 13.492C15.127 13.1998 15.1265 12.7251 15.4186 12.4315L15.9567 11.8895L15.4186 11.3495C15.1265 11.056 15.1273 10.5811 15.4206 10.2889C15.7141 9.99679 16.1889 9.99754 16.4811 10.2909L17.0143 10.827L17.5485 10.2909Z" fill="white"/> <path d="M17 22H7C4.25 22 2 19.75 2 17V7C2 4.25 4.25 2 7 2H17C19.75 2 22 4.25 22 7V17C22 19.75 19.75 22 17 22Z" stroke="white" stroke-width="1.5" stroke-linecap="round" stroke-linejoin="round"/> </g> <defs> <clipPath id="clip0_4482_2690"> <rect width="24" height="24" fill="white"/> </clipPath> </defs> </svg>
