<svg width="24" height="24" viewBox="0 0 24 24" fill="none" xmlns="http://www.w3.org/2000/svg"> <g clip-path="url(#clip0_4482_1871)"> <path d="M17 22H7C4.25 22 2 19.75 2 17V7C2 4.25 4.25 2 7 2H17C19.75 2 22 4.25 22 7V17C22 19.75 19.75 22 17 22Z" stroke="white" stroke-width="1.5" stroke-linecap="round" stroke-linejoin="round"/> <g opacity="0.4"> <path d="M13.4999 10.4899H9.69995L11.28 8.90991" stroke="white" stroke-width="1.5" stroke-linecap="round" stroke-linejoin="round"/> <path d="M9.69995 12.71H13.4999L11.9199 14.2899" stroke="white" stroke-width="1.5" stroke-linecap="round" stroke-linejoin="round"/> <path d="M11.57 16.89C14.5082 16.89 16.89 14.5082 16.89 11.57C16.89 8.63185 14.5082 6.25 11.57 6.25C8.63185 6.25 6.25 8.63185 6.25 11.57C6.25 14.5082 8.63185 16.89 11.57 16.89Z" stroke="white" stroke-width="1.5" stroke-linecap="round" stroke-linejoin="round"/> <path d="M17.7501 17.7501L15.3301 15.3301" stroke="white" stroke-width="1.5" stroke-linecap="round" stroke-linejoin="round"/> </g> </g> <defs> <clipPath id="clip0_4482_1871"> <rect width="24" height="24" fill="white"/> </clipPath> </defs> </svg>
