<svg width="24" height="24" viewBox="0 0 24 24" fill="none" xmlns="http://www.w3.org/2000/svg"> <g clip-path="url(#clip0_4482_2692)"> <path d="M17 22H7C4.25 22 2 19.75 2 17V7C2 4.25 4.25 2 7 2H17C19.75 2 22 4.25 22 7V17C22 19.75 19.75 22 17 22Z" stroke="white" stroke-width="1.5" stroke-linecap="round" stroke-linejoin="round"/> <path opacity="0.4" d="M5.96997 12.57V11.05C5.96997 10.19 6.67003 9.48997 7.53003 9.48997H9.06995C9.28995 9.48997 9.49994 9.42997 9.68994 9.32997L12.0601 7.96996C12.6801 7.60996 13.46 8.05996 13.46 8.77996V15.21C13.46 15.97 12.6 16.42 11.98 15.97L9.72998 14.36C9.51998 14.21 9.26 14.13 9 14.13H7.53003C6.67003 14.13 5.96997 13.43 5.96997 12.57Z" stroke="white" stroke-width="1.5" stroke-linecap="round" stroke-linejoin="round"/> <path opacity="0.4" d="M17.0798 7.25C17.494 7.25 17.8298 7.58579 17.8298 8V9.25H18.03C18.4442 9.25 18.78 9.58579 18.78 10C18.78 10.4142 18.4442 10.75 18.03 10.75H17.8298V15.9199C17.8298 16.3341 17.494 16.6699 17.0798 16.6699C16.6657 16.6698 16.3298 16.3341 16.3298 15.9199V10.75H16.03C15.6158 10.75 15.28 10.4142 15.28 10C15.28 9.58579 15.6158 9.25 16.03 9.25H16.3298V8C16.3298 7.58587 16.6657 7.25013 17.0798 7.25Z" fill="white"/> </g> <defs> <clipPath id="clip0_4482_2692"> <rect width="24" height="24" fill="white"/> </clipPath> </defs> </svg>
