<svg width="24" height="24" viewBox="0 0 24 24" fill="none" xmlns="http://www.w3.org/2000/svg"> <g clip-path="url(#clip0_4482_2256)"> <path d="M17 22H7C4.25 22 2 19.75 2 17V7C2 4.25 4.25 2 7 2H17C19.75 2 22 4.25 22 7V17C22 19.75 19.75 22 17 22Z" stroke="white" stroke-width="1.5" stroke-linecap="round" stroke-linejoin="round"/> <path opacity="0.4" d="M15 14.7101C14.36 15.2701 13.53 15.6101 12.62 15.6101C10.62 15.6101 9 13.9901 9 11.9901C9 9.99013 10.62 8.37012 12.62 8.37012C13.54 8.37012 14.37 8.71013 15 9.27013" stroke="white" stroke-width="1.5" stroke-linecap="round" stroke-linejoin="round"/> </g> <defs> <clipPath id="clip0_4482_2256"> <rect width="24" height="24" fill="white"/> </clipPath> </defs> </svg>
