<svg width="24" height="24" viewBox="0 0 24 24" fill="none" xmlns="http://www.w3.org/2000/svg"> <g clip-path="url(#clip0_4482_2264)"> <path opacity="0.4" d="M6.44006 16.5698L3.07007 19.3298" stroke="white" stroke-width="1.5" stroke-linecap="round" stroke-linejoin="round"/> <path opacity="0.4" d="M17.5701 7.4502L20.9301 4.7002" stroke="white" stroke-width="1.5" stroke-linecap="round" stroke-linejoin="round"/> <g opacity="0.4"> <path d="M12.52 12.5303L14.62 15.6803" stroke="white" stroke-width="1.5" stroke-linecap="round" stroke-linejoin="round"/> <path d="M9.37988 12.5301H12.5299C13.6899 12.5301 14.6299 11.5901 14.6299 10.4301C14.6299 9.27007 13.6899 8.33008 12.5299 8.33008H9.37988V8.34007V15.6901" stroke="white" stroke-width="1.5" stroke-linecap="round" stroke-linejoin="round"/> </g> <path d="M17 22H7C4.25 22 2 19.75 2 17V7C2 4.25 4.25 2 7 2H17C19.75 2 22 4.25 22 7V17C22 19.75 19.75 22 17 22Z" stroke="white" stroke-width="1.5" stroke-linecap="round" stroke-linejoin="round"/> </g> <defs> <clipPath id="clip0_4482_2264"> <rect width="24" height="24" fill="white"/> </clipPath> </defs> </svg>
