<svg width="24" height="24" viewBox="0 0 24 24" fill="none" xmlns="http://www.w3.org/2000/svg"> <g clip-path="url(#clip0_4482_5598)"> <path d="M6.25 17H7.36L8.36 15.5L9.69 18.5L10.69 17H12.25" stroke="white" stroke-width="1.5" stroke-linecap="round" stroke-linejoin="round"/> <path d="M14.5 7H17.5" stroke="white" stroke-width="1.5" stroke-miterlimit="10" stroke-linecap="round" stroke-linejoin="round"/> <path d="M16 5.5V8.5" stroke="white" stroke-width="1.5" stroke-miterlimit="10" stroke-linecap="round" stroke-linejoin="round"/> <path d="M21.5 7.13C21.5 9.13 20.28 10.85 18.5 11.7C18.02 11.93 17.5 12.09 16.95 12.18C16.64 12.24 16.33 12.26 16 12.26L15.32 13.08L14.92 13.56C14.58 13.97 13.91 13.89 13.68 13.4L12.7 11.23C11.37 10.3 10.5 8.81 10.5 7.13C10.5 6.76 10.55 6.38999 10.63 6.03999C10.79 5.36999 11.08 4.76 11.48 4.22C12.47 2.88 14.13 2 16 2C18.22 2 20.13 3.23 20.99 4.98C21.32 5.64 21.5 6.36 21.5 7.13Z" stroke="white" stroke-width="1.5" stroke-miterlimit="10" stroke-linecap="round" stroke-linejoin="round"/> <path opacity="0.4" d="M18.5 11.7002V17.5602C18.5 20.2202 17.17 22.0002 14.06 22.0002H6.94C3.83 22.0002 2.5 20.2202 2.5 17.5602V8.67021C2.5 6.00021 3.83 4.22021 6.94 4.22021H11.48C11.08 4.76021 10.79 5.37021 10.63 6.04021C10.55 6.39021 10.5 6.76022 10.5 7.13022C10.5 8.81022 11.37 10.3002 12.7 11.2302L13.68 13.4002C13.91 13.8902 14.58 13.9702 14.92 13.5602L15.32 13.0802L16 12.2602C16.33 12.2602 16.64 12.2402 16.95 12.1802C17.5 12.0902 18.02 11.9302 18.5 11.7002Z" stroke="white" stroke-width="1.5" stroke-miterlimit="10" stroke-linecap="round" stroke-linejoin="round"/> </g> <defs> <clipPath id="clip0_4482_5598"> <rect width="24" height="24" fill="white"/> </clipPath> </defs> </svg>
