<svg width="24" height="24" viewBox="0 0 24 24" fill="none" xmlns="http://www.w3.org/2000/svg"> <g clip-path="url(#clip0_4418_6109)"> <path d="M16.42 7.94914C18.86 10.3891 18.86 14.3491 16.42 16.7891C13.98 19.2291 10.02 19.2291 7.58 16.7891C5.14 14.3491 5.14 10.3891 7.58 7.94914C10.02 5.50914 13.98 5.50914 16.42 7.94914Z" stroke="white" stroke-width="1.5" stroke-linecap="round" stroke-linejoin="round"/> <path opacity="0.4" d="M8.24999 21.6409C6.24999 20.8409 4.49999 19.3909 3.33999 17.3809C2.19999 15.4109 1.81999 13.2209 2.08999 11.1309" stroke="white" stroke-width="1.5" stroke-linecap="round" stroke-linejoin="round"/> <path opacity="0.4" d="M5.8501 4.47937C7.5501 3.14937 9.68009 2.35938 12.0001 2.35938C14.2701 2.35938 16.3601 3.12936 18.0401 4.40936" stroke="white" stroke-width="1.5" stroke-linecap="round" stroke-linejoin="round"/> <path opacity="0.4" d="M15.75 21.6409C17.75 20.8409 19.5 19.3909 20.66 17.3809C21.8 15.4109 22.18 13.2209 21.91 11.1309" stroke="white" stroke-width="1.5" stroke-linecap="round" stroke-linejoin="round"/> </g> <defs> <clipPath id="clip0_4418_6109"> <rect width="24" height="24" fill="white"/> </clipPath> </defs> </svg>
