<svg width="24" height="24" viewBox="0 0 24 24" fill="none" xmlns="http://www.w3.org/2000/svg"> <g clip-path="url(#clip0_2085_389803)"> <path d="M9.65998 2.00977C13.07 3.46977 17.26 7.05977 15.05 10.8898C12.84 14.7198 7.89998 13.4698 5.22998 11.9398" stroke="white" stroke-width="1.5" stroke-linecap="round" stroke-linejoin="round"/> <path d="M15.5099 9.80957C19.4099 11.2696 20.8699 13.7096 16.4899 14.6796C12.1099 15.6496 12.5899 15.1696 13.0799 20.5296H11.1299" stroke="white" stroke-width="1.5" stroke-linecap="round" stroke-linejoin="round"/> <path opacity="0.4" d="M14.54 12.25C17.46 12.98 16.49 14.98 20.88 19.85L18.93 20.34" stroke="white" stroke-width="1.5" stroke-linecap="round" stroke-linejoin="round"/> <path d="M9.67003 2L4.28003 13.55" stroke="white" stroke-width="1.5" stroke-linecap="round" stroke-linejoin="round"/> <path d="M4.28011 13.5498C4.28011 13.5498 2.76011 13.9198 2.35011 14.7998C1.94011 15.6798 2.17011 16.3298 2.84011 16.6398C3.50011 16.9498 4.15011 16.7098 4.56011 15.8298C4.97011 14.9498 4.28011 13.5498 4.28011 13.5498Z" stroke="white" stroke-width="1.5" stroke-linecap="round" stroke-linejoin="round"/> <path d="M21.8501 21.0303C21.8501 21.0303 18.7601 22.0003 12.5901 22.0003C6.42008 22.0003 3.33008 21.0303 3.33008 21.0303" stroke="white" stroke-width="1.5" stroke-linecap="round" stroke-linejoin="round"/> <path opacity="0.4" d="M11.6099 10.7896C12.6869 10.7896 13.5599 9.9166 13.5599 8.83965C13.5599 7.76269 12.6869 6.88965 11.6099 6.88965C10.533 6.88965 9.65991 7.76269 9.65991 8.83965C9.65991 9.9166 10.533 10.7896 11.6099 10.7896Z" stroke="white" stroke-width="1.5" stroke-linecap="round" stroke-linejoin="round"/> </g> <defs> <clipPath id="clip0_2085_389803"> <rect width="24" height="24" fill="white"/> </clipPath> </defs> </svg>
