<svg width="24" height="24" viewBox="0 0 24 24" fill="none" xmlns="http://www.w3.org/2000/svg"> <g clip-path="url(#clip0_4482_5619)"> <path d="M7.09009 9.85965L7.46008 9.48965C8.30008 8.64965 9.5901 8.43965 10.6601 8.96965" stroke="white" stroke-width="1.5" stroke-miterlimit="10" stroke-linecap="round" stroke-linejoin="round"/> <path d="M16.9101 9.85965L16.5401 9.48965C15.7001 8.64965 14.4101 8.43965 13.3401 8.96965" stroke="white" stroke-width="1.5" stroke-miterlimit="10" stroke-linecap="round" stroke-linejoin="round"/> <path opacity="0.4" d="M22 12C22 17.52 17.52 22 12 22C6.48 22 2 17.52 2 12C2 6.48 6.48 2 12 2C14.01 2 15.88 2.59 17.44 3.62C17.12 4.11 16.88 4.67 16.88 5.27C16.88 6.5 17.88 7.5 19.11 7.5C19.69 7.5 20.22 7.28 20.61 6.92C21.49 8.41 22 10.14 22 12Z" stroke="white" stroke-width="1.5" stroke-miterlimit="10" stroke-linecap="round" stroke-linejoin="round"/> <path d="M7.56007 14.8901C8.07007 16.5601 9.31007 17.8401 10.8701 18.2601C11.6101 18.4601 12.4001 18.4601 13.1401 18.2601C14.6901 17.8301 15.9401 16.5601 16.4501 14.8901C16.5001 14.7401 16.3901 14.5801 16.2501 14.5801C13.4601 15.2401 10.5601 15.2401 7.77006 14.5801C7.61006 14.5801 7.51007 14.7401 7.56007 14.8901Z" stroke="white" stroke-width="1.5" stroke-miterlimit="10" stroke-linecap="round" stroke-linejoin="round"/> <path d="M21.3299 5.28C21.3299 5.92 21.0499 6.51 20.6099 6.92C20.2199 7.28 19.6899 7.5 19.1099 7.5C17.8799 7.5 16.8799 6.50001 16.8799 5.27001C16.8799 4.67001 17.1199 4.11 17.4399 3.62C17.9299 2.87 18.6099 2.3 18.9299 2.06C19.0299 1.98 19.1699 1.98 19.2699 2.06C19.7899 2.46 21.3399 3.78 21.3299 5.28Z" stroke="white" stroke-width="1.5" stroke-miterlimit="10"/> </g> <defs> <clipPath id="clip0_4482_5619"> <rect width="24" height="24" fill="white"/> </clipPath> </defs> </svg>
