<svg width="24" height="24" viewBox="0 0 24 24" fill="none" xmlns="http://www.w3.org/2000/svg"> <g clip-path="url(#clip0_2085_389808)"> <path d="M2 13.4996C11.5 7.9996 14 17.4996 22 13.4996" stroke="white" stroke-width="1.5" stroke-linecap="round" stroke-linejoin="round"/> <path opacity="0.4" d="M14.4999 9.5C13.4999 12.5 11.4999 19 15.4999 21.5" stroke="white" stroke-width="1.5" stroke-linecap="round" stroke-linejoin="round"/> <path opacity="0.4" d="M11 8.5C10 14 9 16.5 6 22.5" stroke="white" stroke-width="1.5" stroke-linecap="round" stroke-linejoin="round"/> <path d="M22 9C14.5 10.5 8.41 8.38 4 4" stroke="white" stroke-width="1.5" stroke-linecap="round" stroke-linejoin="round"/> <path opacity="0.4" d="M14 6.5C15.1046 6.5 16 5.60457 16 4.5C16 3.39543 15.1046 2.5 14 2.5C12.8954 2.5 12 3.39543 12 4.5C12 5.60457 12.8954 6.5 14 6.5Z" stroke="white" stroke-width="1.5" stroke-linecap="round" stroke-linejoin="round"/> </g> <defs> <clipPath id="clip0_2085_389808"> <rect width="24" height="24" fill="white"/> </clipPath> </defs> </svg>
