<svg width="24" height="24" viewBox="0 0 24 24" fill="none" xmlns="http://www.w3.org/2000/svg"> <g clip-path="url(#clip0_2085_392034)"> <path d="M9.39985 19.9001L4.09985 14.6001V12.8301H5.86985L11.1699 18.1301V19.9001H9.39985Z" stroke="white" stroke-width="1.5" stroke-linecap="round" stroke-linejoin="round"/> <path opacity="0.4" d="M2.36994 21.6304C1.87994 21.1404 1.87994 20.3504 2.36994 19.8604L5.86994 16.3604L7.63994 18.1304L4.13994 21.6304C3.64994 22.1204 2.85994 22.1204 2.36994 21.6304Z" stroke="white" stroke-width="1.5" stroke-linecap="round" stroke-linejoin="round"/> <path d="M21 2H16.26C15.94 2 15.64 2.15 15.46 2.41L6.94995 13.92L10.07 17.04L21.58 8.54C21.84 8.35 21.99 8.05 21.99 7.74V3C21.99 2.45 21.54 2 20.99 2H21Z" stroke="white" stroke-width="1.5" stroke-linecap="round" stroke-linejoin="round"/> <g opacity="0.4"> <path d="M15.75 2L16.79 7.21L22 8.25" stroke="white" stroke-width="1.5" stroke-linecap="round" stroke-linejoin="round"/> <path d="M16.79 7.20996L8.51001 15.49" stroke="white" stroke-width="1.5" stroke-linecap="round" stroke-linejoin="round"/> </g> </g> <defs> <clipPath id="clip0_2085_392034"> <rect width="24" height="24" fill="white"/> </clipPath> </defs> </svg>
