<svg width="24" height="24" viewBox="0 0 24 24" fill="none" xmlns="http://www.w3.org/2000/svg"> <g clip-path="url(#clip0_2085_384921)"> <path d="M5.49 16.12C4.84 15.34 4.55 14.41 4.84 13.46H11.44L14.11 16.12H5.49Z" stroke="white" stroke-width="1.5" stroke-linecap="round" stroke-linejoin="round"/> <path d="M5.48999 16.1299H14.1L11.96 18.2699C10.44 19.7899 8.77999 19.4499 7.55999 18.2299L5.77999 16.4499C5.67999 16.3499 5.57999 16.2399 5.48999 16.1299Z" stroke="white" stroke-width="1.5" stroke-linecap="round" stroke-linejoin="round"/> <path d="M11.4401 13.4499H4.84009C4.99009 12.9799 5.28009 12.4999 5.74009 12.0399L7.89009 9.8999L11.4401 13.4499Z" stroke="white" stroke-width="1.5" stroke-linecap="round" stroke-linejoin="round"/> <path d="M7.78004 18.89L6.89004 19.78C6.40004 20.27 5.60004 20.27 5.11004 19.78L4.22004 18.89C3.73004 18.4 3.73004 17.6 4.22004 17.11L5.11004 16.22" stroke="white" stroke-width="1.5" stroke-linecap="round" stroke-linejoin="round"/> <path opacity="0.4" d="M2 22.0001L4.67 19.3301" stroke="white" stroke-width="1.5" stroke-linecap="round" stroke-linejoin="round"/> <path d="M18.4399 11.7801L14.1199 16.1201H14.1099L11.4399 13.4601V13.4501L7.88988 9.90006L7.87988 9.89006H7.88988L12.2199 5.56006L13.5599 6.89006L17.1099 10.4401L18.4399 11.7801Z" stroke="white" stroke-width="1.5" stroke-linecap="round" stroke-linejoin="round"/> <path d="M19.3399 12.67L18.4399 11.78" stroke="white" stroke-width="1.5" stroke-linecap="round" stroke-linejoin="round"/> <path d="M12.2201 5.55991L11.3301 4.65991" stroke="white" stroke-width="1.5" stroke-linecap="round" stroke-linejoin="round"/> <g opacity="0.4"> <path d="M20.6701 6.89008L17.1101 10.4401L13.5601 6.89008L17.1101 3.33008L20.6701 6.89008Z" stroke="white" stroke-width="1.5" stroke-linecap="round" stroke-linejoin="round"/> <path d="M21.9999 8.21989L20.6699 6.88989" stroke="white" stroke-width="1.5" stroke-linecap="round" stroke-linejoin="round"/> <path d="M17.1098 3.33L15.7798 2" stroke="white" stroke-width="1.5" stroke-linecap="round" stroke-linejoin="round"/> </g> <path d="M5.48997 16.1201H5.21997" stroke="white" stroke-width="1.5" stroke-linecap="round" stroke-linejoin="round"/> </g> <defs> <clipPath id="clip0_2085_384921"> <rect width="24" height="24" fill="white"/> </clipPath> </defs> </svg>
