<svg width="24" height="24" viewBox="0 0 24 24" fill="none" xmlns="http://www.w3.org/2000/svg"> <g clip-path="url(#clip0_4482_2361)"> <path d="M20.8701 10.1802C20.9201 11.0402 20.6101 11.8802 20.0001 12.4902L12.7801 19.7102C11.2201 21.2702 8.68007 21.2702 7.12007 19.7102L4.29012 16.8802C2.73012 15.3202 2.73012 12.7802 4.29012 11.2202L11.5101 4.00022C12.1201 3.39022 12.96 3.08023 13.82 3.13023L18.7 3.43022C19.71 3.49022 20.51 4.29023 20.57 5.30023L20.8701 10.1802Z" stroke="white" stroke-width="1.5" stroke-linecap="round" stroke-linejoin="round"/> <path opacity="0.4" d="M15.6099 10.5101C16.1899 9.93007 16.1899 8.97008 15.6099 8.39008C15.0299 7.81008 14.0699 7.81008 13.4899 8.39008C12.9099 8.97008 12.9099 9.93007 13.4899 10.5101C14.0699 11.0901 15.0299 11.0901 15.6099 10.5101Z" stroke="white" stroke-width="1.5" stroke-linecap="round" stroke-linejoin="round"/> <path opacity="0.4" d="M5.70996 9.7998L14.2 18.2898" stroke="white" stroke-width="1.5" stroke-linecap="round" stroke-linejoin="round"/> </g> <defs> <clipPath id="clip0_4482_2361"> <rect width="24" height="24" fill="white"/> </clipPath> </defs> </svg>
