<svg width="24" height="24" viewBox="0 0 24 24" fill="none" xmlns="http://www.w3.org/2000/svg"> <g clip-path="url(#clip0_4482_1975)"> <path d="M12 22C17.5228 22 22 17.5228 22 12C22 6.47715 17.5228 2 12 2C6.47715 2 2 6.47715 2 12C2 17.5228 6.47715 22 12 22Z" stroke="white" stroke-width="1.5" stroke-miterlimit="10" stroke-linecap="round" stroke-linejoin="round"/> <path opacity="0.4" d="M10.4999 12V8.98999C10.4999 8.15999 11.1699 7.48999 11.9999 7.48999C12.8299 7.48999 13.4999 8.15999 13.4999 8.98999V12C14.3599 12.65 14.7099 13.77 14.3699 14.79C14.0299 15.81 13.0699 16.5 11.9999 16.5C10.9299 16.5 9.96995 15.81 9.62995 14.79C9.28995 13.77 9.63994 12.65 10.4999 12Z" stroke="white" stroke-width="1.5" stroke-linecap="round" stroke-linejoin="round"/> </g> <defs> <clipPath id="clip0_4482_1975"> <rect width="24" height="24" fill="white"/> </clipPath> </defs> </svg>
