<svg width="24" height="24" viewBox="0 0 24 24" fill="none" xmlns="http://www.w3.org/2000/svg"> <g clip-path="url(#clip0_2085_390178)"> <path d="M21.97 3.26022C21.26 6.40023 18.35 9.07022 16.43 10.9902L14.92 10.8302L12.34 13.4102L10.83 14.9302L10.99 16.4302C9.05998 18.3502 6.38998 21.2602 3.25998 21.9702C2.50998 22.1402 1.85998 21.4902 2.02998 20.7402C2.73998 17.6002 5.64998 14.9302 7.56998 13.0102L9.06998 13.1702H9.07998L10.59 11.6602L11.88 10.3602L13.17 9.08022L13.01 7.58022C14.94 5.65023 17.61 2.74022 20.74 2.03022C21.49 1.86022 22.14 2.51022 21.97 3.26022Z" stroke="white" stroke-width="1.5" stroke-linecap="round" stroke-linejoin="round"/> <path d="M13.1001 7.60059L15.4701 8.53059L16.3801 10.8406" stroke="white" stroke-width="1.5" stroke-linecap="round" stroke-linejoin="round"/> <path opacity="0.4" d="M15.47 8.53L18.5 5.5" stroke="white" stroke-width="1.5" stroke-linecap="round" stroke-linejoin="round"/> <path d="M7.6001 13.1006L8.5301 15.4706L10.8401 16.3806" stroke="white" stroke-width="1.5" stroke-linecap="round" stroke-linejoin="round"/> <path opacity="0.4" d="M8.53 15.4707L6 18.0007" stroke="white" stroke-width="1.5" stroke-linecap="round" stroke-linejoin="round"/> </g> <defs> <clipPath id="clip0_2085_390178"> <rect width="24" height="24" fill="white"/> </clipPath> </defs> </svg>
