<svg width="24" height="24" viewBox="0 0 24 24" fill="none" xmlns="http://www.w3.org/2000/svg"> <g clip-path="url(#clip0_655_9631)"> <path d="M20.3297 10.33C20.3297 13.66 18.3297 16.55 15.4397 17.89C14.3297 18.45 13.2197 18.67 11.9997 18.67C10.7797 18.67 9.55969 18.45 8.55969 17.89C7.66969 17.45 6.88969 16.89 6.11969 16.22C4.55969 14.66 3.67969 12.66 3.67969 10.33C3.67969 8.89 4.00969 7.66 4.67969 6.44C6.00969 3.77 8.89969 2 12.0097 2C12.3397 2 12.7897 2 13.1197 2.11C16.4497 2.55 19.2297 5 20.0097 8.22C20.2297 8.89 20.3397 9.55 20.3397 10.33H20.3297Z" stroke="white" stroke-width="1.5" stroke-linecap="round" stroke-linejoin="round"/> <path opacity="0.4" d="M15.999 17.67L17.079 20.67C17.309 21.32 16.829 22.01 16.139 22.01H7.86896C7.17896 22.01 6.68896 21.32 6.92896 20.67L8.00896 17.67" stroke="white" stroke-width="1.5" stroke-linecap="round" stroke-linejoin="round"/> <g opacity="0.4"> <path d="M8.10938 8.10999H11.4394" stroke="white" stroke-width="1.5" stroke-linecap="round" stroke-linejoin="round"/> <path d="M9.7793 6.44V9.77" stroke="white" stroke-width="1.5" stroke-linecap="round" stroke-linejoin="round"/> <path d="M12.5586 12.56H15.8886" stroke="white" stroke-width="1.5" stroke-linecap="round" stroke-linejoin="round"/> <path d="M14.2188 10.89V14.22" stroke="white" stroke-width="1.5" stroke-linecap="round" stroke-linejoin="round"/> </g> </g> <defs> <clipPath id="clip0_655_9631"> <rect width="24" height="24" fill="white"/> </clipPath> </defs> </svg>
