<svg width="24" height="24" viewBox="0 0 24 24" fill="none" xmlns="http://www.w3.org/2000/svg"> <g clip-path="url(#clip0_4482_7504)"> <path d="M21.5405 7.80001C21.0005 7.47001 20.3605 7.42001 19.7705 7.65001L16.2805 9.04001L12.9905 6.46001C12.8705 6.37001 12.7205 6.33001 12.5805 6.36001L10.4005 6.82001C10.2305 6.86001 10.0905 6.98001 10.0305 7.14001C9.97051 7.30001 10.0005 7.48001 10.1105 7.62001L12.3905 10.5L10.6805 11.25L9.85051 10.67C9.53051 10.45 9.12051 10.39 8.75051 10.51L7.52051 10.92C7.37051 10.97 7.25051 11.09 7.20051 11.25C7.15051 11.4 7.18051 11.57 7.28051 11.7L8.95051 13.92C9.18051 14.23 9.55051 14.42 9.93051 14.42H9.97051L13.8405 14.32C14.0905 14.32 14.3305 14.26 14.5705 14.16L21.3005 11.31C22.1105 10.97 22.6005 10.14 22.5005 9.27001C22.4405 8.64001 22.0905 8.10001 21.5505 7.77001L21.5405 7.80001Z" fill="white"/> <g opacity="0.4"> <path d="M20.8801 11.23C20.8401 10.82 20.4801 10.51 20.0701 10.55C19.6601 10.59 19.3501 10.95 19.3901 11.36C19.4101 11.57 19.4201 11.78 19.4201 12C19.4201 15.97 16.1901 19.2 12.2201 19.2C10.4801 19.2 8.88005 18.58 7.63005 17.54C8.30005 17.37 8.99005 17.15 9.67005 16.88C10.0501 16.73 10.2401 16.29 10.0801 15.9C9.93005 15.52 9.49006 15.33 9.10005 15.49C8.18005 15.86 7.28005 16.12 6.43005 16.28C5.54005 15.08 5.01005 13.6 5.01005 12C5.01005 8.03 8.24005 4.8 12.2101 4.8C14.9301 4.8 17.3801 6.31 18.6201 8.74C18.8101 9.11 19.2601 9.26 19.6301 9.07C20.0001 8.88 20.1501 8.43 19.9601 8.06C18.4701 5.12 15.5001 3.3 12.2101 3.3C7.43005 3.3 3.53005 7.2 3.53005 12C3.53005 12.06 3.53005 12.12 3.53005 12.18C1.66005 13.65 0.870054 15.18 1.39005 16.4C1.79005 17.39 2.95005 17.95 4.65005 17.97C4.68005 17.97 4.70005 17.97 4.73005 17.97C5.08005 17.97 5.45005 17.95 5.84005 17.9C7.43005 19.62 9.70005 20.7 12.2201 20.7C17.0101 20.7 20.9101 16.8 20.9101 12C20.9101 11.74 20.8901 11.49 20.8701 11.23H20.8801ZM4.68005 16.47C3.68005 16.47 2.94005 16.21 2.79005 15.83C2.64005 15.47 2.95005 14.77 3.77005 13.97C3.98005 14.86 4.32005 15.7 4.78005 16.47C4.75005 16.47 4.71005 16.47 4.68005 16.47Z" fill="white"/> </g> </g> <defs> <clipPath id="clip0_4482_7504"> <rect width="24" height="24" fill="white"/> </clipPath> </defs> </svg>
