<svg width="24" height="24" viewBox="0 0 24 24" fill="none" xmlns="http://www.w3.org/2000/svg"> <g clip-path="url(#clip0_4482_9066)"> <path d="M8.14025 11.1201L4.70025 20.5901C4.56025 20.9701 4.66025 21.4001 4.95025 21.6901C5.24025 21.9801 5.67025 22.0701 6.05025 21.9301L15.5202 18.4901C15.8602 18.3701 16.1102 18.0801 16.1902 17.7301C16.2702 17.3801 16.1602 17.0101 15.9102 16.7601L9.88025 10.7301C9.63025 10.4801 9.26025 10.3701 8.91025 10.4501C8.56025 10.5301 8.27025 10.7801 8.15025 11.1201H8.14025Z" stroke="white" stroke-width="1.5" stroke-linecap="round" stroke-linejoin="round"/> <path d="M13.8703 10.18L18.8203 5.22999C19.5603 4.48999 19.5603 3.28999 18.8203 2.54999C18.4603 2.18999 17.9803 1.98999 17.4803 1.98999C16.9803 1.98999 16.5003 2.18999 16.1403 2.54999L11.9403 6.74999C11.5303 7.15999 11.5303 7.82999 11.9403 8.23999L13.8803 10.18H13.8703Z" stroke="white" stroke-width="1.5" stroke-linecap="round" stroke-linejoin="round"/> <path opacity="0.4" d="M11.9304 8.25L14.4104 10.73C14.6104 10.93 14.7204 11.2 14.7204 11.47C14.7204 11.74 14.6104 12.02 14.4104 12.21L10.9404 15.68" stroke="white" stroke-width="1.5" stroke-linecap="round" stroke-linejoin="round"/> </g> <defs> <clipPath id="clip0_4482_9066"> <rect width="24" height="24" fill="white"/> </clipPath> </defs> </svg>
