<svg width="24" height="24" viewBox="0 0 24 24" fill="none" xmlns="http://www.w3.org/2000/svg"> <g clip-path="url(#clip0_4482_11733)"> <path d="M16.4307 6.4502V9.7802" stroke="white" stroke-width="1.5" stroke-linecap="round" stroke-linejoin="round"/> <path d="M16.4307 6.4502V9.7802" stroke="white" stroke-width="1.5" stroke-linecap="round" stroke-linejoin="round"/> <path d="M11.9902 6.4502V9.7802" stroke="white" stroke-width="1.5" stroke-linecap="round" stroke-linejoin="round"/> <path opacity="0.4" d="M20.5504 13.4502L16.7604 17.2402C16.5504 17.4502 16.2704 17.5702 15.9704 17.5702H11.9904L7.55035 22.0102V17.5702H4.22035C3.61035 17.5702 3.11035 17.0702 3.11035 16.4602V6.90023C3.11035 6.61023 3.23035 6.32023 3.44035 6.11023L7.23035 2.32023C7.44035 2.11023 7.72035 1.99023 8.02035 1.99023H19.7804C20.3904 1.99023 20.8904 2.49023 20.8904 3.10023V12.6602C20.8904 12.9502 20.7704 13.2402 20.5604 13.4502H20.5504Z" stroke="white" stroke-width="1.5" stroke-linecap="round" stroke-linejoin="round"/> </g> <defs> <clipPath id="clip0_4482_11733"> <rect width="24" height="24" fill="white"/> </clipPath> </defs> </svg>
