<svg width="24" height="24" viewBox="0 0 24 24" fill="none" xmlns="http://www.w3.org/2000/svg"> <g clip-path="url(#clip0_4482_8506)"> <path d="M7.50969 12.0251C7.50969 12.2477 7.31815 12.4384 7.09469 12.4066C6.87123 12.4066 6.67969 12.2159 6.67969 11.9933C6.67969 11.7708 6.87123 11.5801 7.09469 11.5801C7.19046 11.5801 7.31815 11.6119 7.382 11.7072C7.44584 11.7708 7.50969 11.898 7.50969 11.9933" stroke="white" stroke-width="1.5" stroke-linecap="round" stroke-linejoin="round"/> <path d="M12.4101 12.0251C12.4101 12.2477 12.2185 12.4384 11.9951 12.4066C11.7716 12.4066 11.5801 12.2159 11.5801 11.9933C11.5801 11.7708 11.7716 11.5801 11.9951 11.5801C12.0909 11.5801 12.2185 11.6119 12.2824 11.7072C12.3462 11.7708 12.4101 11.898 12.4101 11.9933" stroke="white" stroke-width="1.5" stroke-linecap="round" stroke-linejoin="round"/> <path d="M17.5598 15.33H15.3398" stroke="white" stroke-width="1.5" stroke-linecap="round" stroke-linejoin="round"/> <path opacity="0.4" d="M16.44 22H7.56C4.49 22 2 19.51 2 16.44V7.55C2 4.48 4.49 2 7.56 2H16.45C19.52 2 22.01 4.49 22.01 7.56V16.45C22.01 19.52 19.52 22.01 16.45 22.01L16.44 22Z" stroke="white" stroke-width="1.5" stroke-linecap="round" stroke-linejoin="round"/> </g> <defs> <clipPath id="clip0_4482_8506"> <rect width="24" height="24" fill="white"/> </clipPath> </defs> </svg>
