<svg width="24" height="24" viewBox="0 0 24 24" fill="none" xmlns="http://www.w3.org/2000/svg"> <g clip-path="url(#clip0_4482_5866)"> <path d="M22 10.5C22 11.46 21.61 12.34 20.97 12.97C20.34 13.61 19.46 14 18.5 14H5.5C3.57 14 2 12.43 2 10.5C2 9.54 2.39 8.66 3.03 8.03C3.61 7.44 4.41 7.05999 5.29 7.00999C5.36 6.99999 5.43 7 5.5 7H18.5C18.57 7 18.64 6.99999 18.71 7.00999C20.54 7.10999 22 8.64 22 10.5Z" stroke="white" stroke-width="1.5" stroke-miterlimit="10" stroke-linecap="round" stroke-linejoin="round"/> <path opacity="0.4" d="M8 10V11" stroke="white" stroke-width="1.5" stroke-miterlimit="10" stroke-linecap="round" stroke-linejoin="round"/> <path opacity="0.4" d="M12 10V11" stroke="white" stroke-width="1.5" stroke-miterlimit="10" stroke-linecap="round" stroke-linejoin="round"/> <path opacity="0.4" d="M16 10V11" stroke="white" stroke-width="1.5" stroke-miterlimit="10" stroke-linecap="round" stroke-linejoin="round"/> <path d="M15.5 18H8.5C6.84 18 5.5 16.66 5.5 15V14H18.5V15C18.5 16.66 17.16 18 15.5 18Z" stroke="white" stroke-width="1.5" stroke-miterlimit="10" stroke-linecap="round" stroke-linejoin="round"/> <path d="M20 22C19.37 20.11 17.89 18.63 16 18" stroke="white" stroke-width="1.5" stroke-miterlimit="10" stroke-linecap="round" stroke-linejoin="round"/> <path d="M18.25 22H21.25" stroke="white" stroke-width="1.5" stroke-miterlimit="10" stroke-linecap="round" stroke-linejoin="round"/> <path d="M4 22C4.63 20.11 6.11 18.63 8 18" stroke="white" stroke-width="1.5" stroke-miterlimit="10" stroke-linecap="round" stroke-linejoin="round"/> <path d="M5.75 22H2.75" stroke="white" stroke-width="1.5" stroke-miterlimit="10" stroke-linecap="round" stroke-linejoin="round"/> <path d="M12 18V22" stroke="white" stroke-width="1.5" stroke-miterlimit="10" stroke-linecap="round" stroke-linejoin="round"/> <path d="M10.25 22H13.75" stroke="white" stroke-width="1.5" stroke-miterlimit="10" stroke-linecap="round" stroke-linejoin="round"/> <path opacity="0.4" d="M18.71 7.00999C18.64 6.99999 18.57 7 18.5 7H5.50004C5.43004 7 5.36004 6.99999 5.29004 7.00999C6.14004 4.10999 8.82004 2 12 2C15.18 2 17.86 4.10999 18.71 7.00999Z" stroke="white" stroke-width="1.5" stroke-miterlimit="10" stroke-linecap="round" stroke-linejoin="round"/> </g> <defs> <clipPath id="clip0_4482_5866"> <rect width="24" height="24" fill="white"/> </clipPath> </defs> </svg>
