<svg width="24" height="24" viewBox="0 0 24 24" fill="none" xmlns="http://www.w3.org/2000/svg"> <g clip-path="url(#clip0_2085_390064)"> <path opacity="0.4" d="M8.66992 16.6699C10.8699 17.1099 13.1399 17.1099 15.3399 16.6699C15.3399 16.6699 14.0699 19.5599 13.4099 21.0899C13.1699 21.6499 12.6199 22.0099 12.0099 22.0099C11.3999 22.0099 10.8499 21.6499 10.6099 21.0899C9.93992 19.5599 8.67992 16.6699 8.67992 16.6699H8.66992Z" stroke="white" stroke-width="1.41" stroke-linecap="round" stroke-linejoin="round"/> <path d="M5.32997 4.67016C7.63997 5.82016 9.50997 7.69016 10.66 10.0002C9.94997 10.7102 8.98997 11.1002 7.98997 11.1002C6.98997 11.1002 6.02997 10.7002 5.31997 10.0002C4.60997 9.29016 4.21997 8.33016 4.21997 7.33016C4.21997 6.33016 4.61997 5.37016 5.31997 4.66016L5.32997 4.67016Z" stroke="white" stroke-width="1.41" stroke-linecap="round" stroke-linejoin="round"/> <path d="M18.6701 4.67016C16.3601 5.82016 14.4901 7.69016 13.3401 10.0002C14.0501 10.7102 15.0101 11.1002 16.0101 11.1002C17.0101 11.1002 17.9701 10.7002 18.6801 10.0002C19.3901 9.29016 19.7801 8.33016 19.7801 7.33016C19.7801 6.33016 19.3801 5.37016 18.6801 4.66016L18.6701 4.67016Z" stroke="white" stroke-width="1.41" stroke-linecap="round" stroke-linejoin="round"/> <path d="M10.6699 10.0002C11.0199 9.6502 11.4999 9.4502 11.9999 9.4502C12.4999 9.4502 12.9799 9.6502 13.3299 10.0002" stroke="white" stroke-width="1.41" stroke-linecap="round" stroke-linejoin="round"/> <path d="M5.33008 4.67V2" stroke="white" stroke-width="1.41" stroke-linecap="round" stroke-linejoin="round"/> <path d="M18.6699 4.67V2" stroke="white" stroke-width="1.41" stroke-linecap="round" stroke-linejoin="round"/> <path d="M15.3301 16.67L18.6601 16" stroke="white" stroke-width="1.41" stroke-linecap="round" stroke-linejoin="round"/> <path d="M8.67009 16.67L5.34009 16" stroke="white" stroke-width="1.41" stroke-linecap="round" stroke-linejoin="round"/> <path opacity="0.4" d="M5.33008 10C5.95008 11.03 5.95008 12.31 5.33008 13.33H18.6601C18.0401 12.3 18.0401 11.02 18.6601 10" stroke="white" stroke-width="1.41" stroke-linecap="round" stroke-linejoin="round"/> </g> <defs> <clipPath id="clip0_2085_390064"> <rect width="24" height="24" fill="white"/> </clipPath> </defs> </svg>
