<svg width="24" height="24" viewBox="0 0 24 24" fill="none" xmlns="http://www.w3.org/2000/svg"> <g clip-path="url(#clip0_4482_12319)"> <path d="M20.2396 21.9998C18.9396 21.9998 17.8896 20.9498 17.8896 19.6498C17.8896 18.3498 18.9396 17.2998 20.2396 17.2998C21.5396 17.2998 22.5896 18.3498 22.5896 19.6498C22.5896 20.9498 21.5396 21.9998 20.2396 21.9998Z" stroke="white" stroke-width="1.5" stroke-linecap="round" stroke-linejoin="round"/> <path d="M12.0004 21.9998C10.7004 21.9998 9.65039 20.9498 9.65039 19.6498C9.65039 18.3498 10.7004 17.2998 12.0004 17.2998C13.3004 17.2998 14.3504 18.3498 14.3504 19.6498C14.3504 20.9498 13.3004 21.9998 12.0004 21.9998Z" stroke="white" stroke-width="1.5" stroke-linecap="round" stroke-linejoin="round"/> <path d="M3.76016 21.9998C2.46016 21.9998 1.41016 20.9498 1.41016 19.6498C1.41016 18.3498 2.46016 17.2998 3.76016 17.2998C5.06016 17.2998 6.11016 18.3498 6.11016 19.6498C6.11016 20.9498 5.06016 21.9998 3.76016 21.9998Z" stroke="white" stroke-width="1.5" stroke-linecap="round" stroke-linejoin="round"/> <path d="M16.8898 8.69023H7.10977C5.25977 8.69023 3.75977 7.19023 3.75977 5.34023C3.75977 3.49023 5.25977 1.99023 7.10977 1.99023H16.8898C18.7398 1.99023 20.2398 3.49023 20.2398 5.34023C20.2398 7.19023 18.7398 8.69023 16.8898 8.69023Z" stroke="white" stroke-width="1.5" stroke-linecap="round" stroke-linejoin="round"/> <path opacity="0.4" fill-rule="evenodd" clip-rule="evenodd" d="M12.7498 8.68945C12.7498 8.27524 12.414 7.93945 11.9998 7.93945C11.5855 7.93945 11.2498 8.27524 11.2498 8.68945V11.8301H7.75977C5.13555 11.8301 3.00977 13.9559 3.00977 16.5801V17.2901C3.00977 17.7043 3.34555 18.0401 3.75977 18.0401C4.17398 18.0401 4.50977 17.7043 4.50977 17.2901V16.5801C4.50977 14.7843 5.96398 13.3301 7.75977 13.3301H11.2498V17.2895C11.2498 17.7037 11.5855 18.0395 11.9998 18.0395C12.414 18.0395 12.7498 17.7037 12.7498 17.2895V13.3301H16.2298C18.0256 13.3301 19.4798 14.7843 19.4798 16.5801V17.2901C19.4798 17.7043 19.8156 18.0401 20.2298 18.0401C20.644 18.0401 20.9798 17.7043 20.9798 17.2901V16.5801C20.9798 13.9559 18.854 11.8301 16.2298 11.8301H12.7498V8.68945Z" fill="white"/> </g> <defs> <clipPath id="clip0_4482_12319"> <rect width="24" height="24" fill="white"/> </clipPath> </defs> </svg>
