<svg width="24" height="24" viewBox="0 0 24 24" fill="none" xmlns="http://www.w3.org/2000/svg"> <g clip-path="url(#clip0_4482_11302)"> <path d="M17.5598 10.8901H16.4498C15.8398 10.8901 15.3398 10.3901 15.3398 9.78006V8.67006C15.3398 8.06006 15.8398 7.56006 16.4498 7.56006H17.5598C18.1698 7.56006 18.6698 8.06006 18.6698 8.67006V9.78006C18.6698 10.3901 18.1698 10.8901 17.5598 10.8901Z" stroke="white" stroke-width="1.5" stroke-linecap="round" stroke-linejoin="round"/> <path opacity="0.4" d="M16.44 2H7.56C4.4893 2 2 4.4893 2 7.56V16.44C2 19.5107 4.4893 22 7.56 22H16.44C19.5107 22 22 19.5107 22 16.44V7.56C22 4.4893 19.5107 2 16.44 2Z" stroke="white" stroke-width="1.5" stroke-linecap="round" stroke-linejoin="round"/> <path d="M7.00008 10.8898C6.08008 10.8898 5.33008 10.1398 5.33008 9.2198C5.33008 8.2998 6.08008 7.5498 7.00008 7.5498C7.92008 7.5498 8.67008 8.2998 8.67008 9.2198C8.67008 10.1398 7.92008 10.8898 7.00008 10.8898Z" stroke="white" stroke-width="1.5" stroke-linecap="round" stroke-linejoin="round"/> <path d="M11.0499 17.56H9.61992C9.08992 17.56 8.66992 17.13 8.66992 16.61V15.18C8.66992 14.93 8.76992 14.69 8.94992 14.51C9.12992 14.33 9.36992 14.23 9.61992 14.23H11.0499C11.5799 14.23 11.9999 14.66 11.9999 15.18V16.61C11.9999 16.86 11.8999 17.1 11.7199 17.28C11.5399 17.46 11.2999 17.56 11.0499 17.56Z" stroke="white" stroke-width="1.5" stroke-linecap="round" stroke-linejoin="round"/> <path d="M15.3302 9.22021H8.66016" stroke="white" stroke-width="1.5" stroke-linecap="round" stroke-linejoin="round"/> <path d="M10.3301 14.2202C10.3301 11.4602 12.5701 9.22021 15.3301 9.22021" stroke="white" stroke-width="1.5" stroke-linecap="round" stroke-linejoin="round"/> </g> <defs> <clipPath id="clip0_4482_11302"> <rect width="24" height="24" fill="white"/> </clipPath> </defs> </svg>
