<svg width="24" height="24" viewBox="0 0 24 24" fill="none" xmlns="http://www.w3.org/2000/svg"> <g clip-path="url(#clip0_4482_2373)"> <path d="M21.5 5.80023V9.12022C21.5 9.77022 21.2301 10.3602 20.8101 10.7902C20.7101 10.9002 20.58 11.0002 20.46 11.0802C20.34 11.1602 20.2101 11.2302 20.0801 11.2902C19.7901 11.4102 19.4699 11.4902 19.1299 11.4902C17.8199 11.4902 16.75 10.4302 16.75 9.11023C16.75 10.4202 15.6901 11.4902 14.3701 11.4902C13.0501 11.4902 11.99 10.4302 11.99 9.11023C11.99 10.4202 10.9301 11.4902 9.61011 11.4902C8.29011 11.4902 7.22998 10.4302 7.22998 9.11023C7.22998 10.4202 6.1701 11.4902 4.8501 11.4902C4.5101 11.4902 4.1899 11.4102 3.8999 11.2902C3.7699 11.2302 3.64002 11.1602 3.52002 11.0802C3.27002 10.9102 3.04988 10.6902 2.87988 10.4402C2.61988 10.0602 2.46997 9.60023 2.46997 9.11023V5.79022C2.46997 3.69022 4.17002 1.99023 6.27002 1.99023H17.6699C19.7899 2.00023 21.5 3.71023 21.5 5.80023Z" stroke="white" stroke-width="1.5" stroke-linecap="round" stroke-linejoin="round"/> <path opacity="0.4" d="M8 21.0001H7.72998C5.63998 21.0001 3.92993 19.2901 3.92993 17.2001V11.3001C4.21993 11.4201 4.53988 11.5001 4.87988 11.5001C6.18988 11.5001 7.26001 10.4401 7.26001 9.12012C7.26001 10.4301 8.31989 11.5001 9.63989 11.5001C10.9599 11.5001 12.02 10.4401 12.02 9.12012C12.02 10.4301 13.0799 11.5001 14.3999 11.5001C15.7199 11.5001 16.78 10.4401 16.78 9.12012C16.78 10.4301 17.8399 11.5001 19.1599 11.5001C19.4999 11.5001 19.8201 11.4201 20.1101 11.3001V17.2001C20.1101 19.2901 18.4001 21.0001 16.3101 21.0001H16" stroke="white" stroke-width="1.5" stroke-linecap="round" stroke-linejoin="round"/> <path d="M13.3899 17.8198L11.6499 19.5598L10.6001 18.5098" stroke="white" stroke-width="1.5" stroke-linecap="round" stroke-linejoin="round"/> <path d="M7.76996 19.25L8.37006 20.03L8.49994 21C8.56994 21.54 8.98997 21.96 9.52997 22.03L10.4999 22.16L11.28 22.75C11.71 23.08 12.3099 23.08 12.7399 22.75L13.52 22.16L14.4899 22.03C15.0299 21.96 15.45 21.54 15.52 21L15.6498 20.03C15.6498 20.03 15.9499 19.64 16.2499 19.25C16.5799 18.82 16.5799 18.22 16.2499 17.79L15.6498 17.01L15.52 16.04C15.45 15.5 15.0299 15.08 14.4899 15.01L13.52 14.88L12.7399 14.29C12.3099 13.96 11.71 13.96 11.28 14.29L10.4999 14.88L9.52997 15.01C8.98997 15.08 8.56994 15.5 8.49994 16.04L8.37006 17.01C8.37006 17.01 8.06996 17.4 7.76996 17.79C7.43996 18.22 7.43996 18.82 7.76996 19.25Z" stroke="white" stroke-width="1.5" stroke-linecap="round" stroke-linejoin="round"/> </g> <defs> <clipPath id="clip0_4482_2373"> <rect width="24" height="24" fill="white"/> </clipPath> </defs> </svg>
