<svg width="24" height="24" viewBox="0 0 24 24" fill="none" xmlns="http://www.w3.org/2000/svg"> <g clip-path="url(#clip0_4482_9068)"> <path d="M15.7202 2.79004L11.9802 9.19004L8.24023 2.79004" stroke="white" stroke-width="1.5" stroke-linecap="round" stroke-linejoin="round"/> <path opacity="0.4" d="M17.3204 13.46H15.1904" stroke="white" stroke-width="1.5" stroke-linecap="round" stroke-linejoin="round"/> <path opacity="0.4" d="M17.3204 17.73H15.1904" stroke="white" stroke-width="1.5" stroke-linecap="round" stroke-linejoin="round"/> <path opacity="0.4" d="M8.78039 13.46H6.65039" stroke="white" stroke-width="1.5" stroke-linecap="round" stroke-linejoin="round"/> <path opacity="0.4" d="M8.78039 17.73H6.65039" stroke="white" stroke-width="1.5" stroke-linecap="round" stroke-linejoin="round"/> <path d="M11.9802 19.8701C11.9802 21.0501 11.0202 22 9.8502 22H5.5802C4.4002 22 3.4502 21.0401 3.4502 19.8701V11.15C3.4502 10.58 3.6802 10.04 4.0802 9.64005L5.5902 8.13005V4.93005C5.5902 3.75005 6.55019 2.80005 7.72019 2.80005H16.2602C17.4402 2.80005 18.3902 3.76005 18.3902 4.93005V8.13005L19.9002 9.64005C20.3002 10.04 20.5302 10.58 20.5302 11.15V19.8701C20.5302 21.0501 19.5702 22 18.4002 22H14.1302C12.9502 22 12.0002 21.0401 12.0002 19.8701H11.9802Z" stroke="white" stroke-width="1.5" stroke-linecap="round" stroke-linejoin="round"/> <path opacity="0.4" d="M11.9805 19.8699V9.18994" stroke="white" stroke-width="1.5" stroke-linecap="round" stroke-linejoin="round"/> </g> <defs> <clipPath id="clip0_4482_9068"> <rect width="24" height="24" fill="white"/> </clipPath> </defs> </svg>
