<svg width="24" height="24" viewBox="0 0 24 24" fill="none" xmlns="http://www.w3.org/2000/svg"> <g clip-path="url(#clip0_4482_2332)"> <path d="M16 22H8C5.25 22 3 19.75 3 17V12C3 9.25 5.25 7 8 7H16C18.75 7 21 9.25 21 12V17C21 19.75 18.75 22 16 22Z" stroke="white" stroke-width="1.5" stroke-linecap="round" stroke-linejoin="round"/> <path opacity="0.4" d="M8.15991 8V5.84C8.15991 3.72 9.87991 2 11.9999 2C14.1199 2 15.8399 3.72 15.8399 5.84V8" stroke="white" stroke-width="1.5" stroke-linecap="round" stroke-linejoin="round"/> <path opacity="0.4" d="M9.82008 14.22L11.8201 16.42C11.8601 16.47 11.9301 16.5 12.0001 16.5C12.0701 16.5 12.1401 16.47 12.1901 16.42L14.1901 14.22C14.2701 14.13 14.2801 14 14.2101 13.91L13.3201 12.61C13.2701 12.54 13.2001 12.5 13.1101 12.5H10.8801C10.8001 12.5 10.7201 12.54 10.6701 12.61L9.78007 13.91C9.73007 14 9.74008 14.13 9.82008 14.22Z" stroke="white" stroke-width="1.5" stroke-linecap="round" stroke-linejoin="round"/> </g> <defs> <clipPath id="clip0_4482_2332"> <rect width="24" height="24" fill="white"/> </clipPath> </defs> </svg>
