<svg width="24" height="24" viewBox="0 0 24 24" fill="none" xmlns="http://www.w3.org/2000/svg"> <g clip-path="url(#clip0_4482_5801)"> <path opacity="0.4" d="M13.5 14H10.5V20.5C10.5 21.32 11.18 22 12 22C12.82 22 13.5 21.32 13.5 20.5V14Z" stroke="white" stroke-width="1.5" stroke-miterlimit="10" stroke-linecap="round" stroke-linejoin="round"/> <path d="M14 14H10C9.45 14 9 13.55 9 13V12C9 11.45 9.45 11 10 11H14C14.55 11 15 11.45 15 12V13C15 13.55 14.55 14 14 14Z" stroke="white" stroke-width="1.5" stroke-miterlimit="10" stroke-linecap="round" stroke-linejoin="round"/> <path d="M9 12C6.79 12 5 10.21 5 8V6C5 5.45 5.45 5 6 5H7" stroke="white" stroke-width="1.5" stroke-miterlimit="10" stroke-linecap="round" stroke-linejoin="round"/> <path d="M15 12C17.21 12 19 10.21 19 8V6C19 5.45 18.55 5 18 5H17" stroke="white" stroke-width="1.5" stroke-miterlimit="10" stroke-linecap="round" stroke-linejoin="round"/> <path d="M15 8H9C7.9 8 7 7.1 7 6V4C7 2.9 7.9 2 9 2H15C16.1 2 17 2.9 17 4V6C17 7.1 16.1 8 15 8Z" stroke="white" stroke-width="1.5" stroke-miterlimit="10" stroke-linecap="round" stroke-linejoin="round"/> <path opacity="0.4" d="M10 2V8" stroke="white" stroke-width="1.5" stroke-miterlimit="10" stroke-linecap="round" stroke-linejoin="round"/> <path opacity="0.4" d="M14 2V8" stroke="white" stroke-width="1.5" stroke-miterlimit="10" stroke-linecap="round" stroke-linejoin="round"/> </g> <defs> <clipPath id="clip0_4482_5801"> <rect width="24" height="24" fill="white"/> </clipPath> </defs> </svg>
