<svg width="24" height="24" viewBox="0 0 24 24" fill="none" xmlns="http://www.w3.org/2000/svg"> <g clip-path="url(#clip0_2085_389849)"> <path opacity="0.4" d="M13.2699 5.67023C14.2799 5.67023 15.1099 4.85023 15.1099 3.83023C15.1099 2.81023 14.2899 1.99023 13.2699 1.99023C12.2499 1.99023 11.4299 2.81023 11.4299 3.83023C11.4299 4.85023 12.2499 5.67023 13.2699 5.67023Z" stroke="white" stroke-width="1.5" stroke-linecap="round" stroke-linejoin="round"/> <path d="M20.05 8.53071L11.76 7.73071C11.22 7.68071 10.71 8.00071 10.53 8.52071L8.99999 12.9507C8.70999 13.7907 9.38999 14.6507 10.27 14.5607L16.32 13.9607C17.31 13.8607 18.21 14.5507 18.39 15.5207L19.52 21.9907" stroke="white" stroke-width="1.5" stroke-linecap="round" stroke-linejoin="round"/> <path opacity="0.4" d="M10.5099 16.96C8.94994 18.99 6.80994 20.79 3.93994 21.73" stroke="white" stroke-width="1.5" stroke-linecap="round" stroke-linejoin="round"/> <path opacity="0.4" d="M12.1699 14.3802C13.4899 11.9102 14.1599 9.46023 14.4799 7.99023" stroke="white" stroke-width="1.5" stroke-linecap="round" stroke-linejoin="round"/> </g> <defs> <clipPath id="clip0_2085_389849"> <rect width="24" height="24" fill="white"/> </clipPath> </defs> </svg>
