<svg width="24" height="24" viewBox="0 0 24 24" fill="none" xmlns="http://www.w3.org/2000/svg"> <g clip-path="url(#clip0_2085_389824)"> <path d="M21.0001 17.7505C18.0001 15.2505 16.4501 9.6105 15.5001 9.2505C14.5501 8.8905 10.0001 10.5005 9.50012 11.7505C9.00012 13.0005 15.5001 14.7505 15.0001 15.7505C14.5001 16.7505 11.5001 18.7505 11.5001 18.7505H13.5001" stroke="white" stroke-width="1.5" stroke-linecap="round" stroke-linejoin="round"/> <path opacity="0.4" d="M16 11.25C12 13.25 6 16.73 2 18.25" stroke="white" stroke-width="1.5" stroke-linecap="round" stroke-linejoin="round"/> <path opacity="0.4" d="M21.4128 8.6691C22.1939 7.88805 22.1939 6.62172 21.4128 5.84067C20.6318 5.05962 19.3654 5.05962 18.5844 5.84067C17.8033 6.62172 17.8033 7.88805 18.5844 8.6691C19.3654 9.45014 20.6318 9.45014 21.4128 8.6691Z" stroke="white" stroke-width="1.5" stroke-linecap="round" stroke-linejoin="round"/> </g> <defs> <clipPath id="clip0_2085_389824"> <rect width="24" height="24" fill="white"/> </clipPath> </defs> </svg>
