<svg width="24" height="24" viewBox="0 0 24 24" fill="none" xmlns="http://www.w3.org/2000/svg"> <g clip-path="url(#clip0_4482_5982)"> <path d="M19 9C19 12.11 16.98 14.74 14.17 15.66C13.49 15.88 12.76 16 12 16C11.24 16 10.51 15.88 9.83 15.66C7.02 14.74 5 12.11 5 9C5 5.13 8.13 2 12 2C15.87 2 19 5.13 19 9Z" stroke="white" stroke-width="1.5" stroke-miterlimit="10" stroke-linecap="round" stroke-linejoin="round"/> <path opacity="0.4" d="M16.1301 19.0002H7.87012C8.71012 18.0002 9.37012 16.8702 9.83012 15.6602C10.5101 15.8802 11.2401 16.0002 12.0001 16.0002C12.7601 16.0002 13.4901 15.8802 14.1701 15.6602C14.6301 16.8702 15.2901 18.0002 16.1301 19.0002Z" stroke="white" stroke-width="1.5" stroke-miterlimit="10" stroke-linecap="round" stroke-linejoin="round"/> <path d="M18 20.5C18 21.33 17.33 22 16.5 22H7.5C6.67 22 6 21.33 6 20.5C6 19.67 6.67 19 7.5 19H16.5C17.33 19 18 19.67 18 20.5Z" stroke="white" stroke-width="1.5" stroke-miterlimit="10" stroke-linecap="round" stroke-linejoin="round"/> <path opacity="0.4" d="M12 12C13.65 12 15 10.65 15 9C15 7.35 13.65 6 12 6C10.35 6 9 7.35 9 9C9 10.65 10.35 12 12 12Z" stroke="white" stroke-width="1.5" stroke-miterlimit="10" stroke-linecap="round" stroke-linejoin="round"/> </g> <defs> <clipPath id="clip0_4482_5982"> <rect width="24" height="24" fill="white"/> </clipPath> </defs> </svg>
