<svg width="24" height="24" viewBox="0 0 24 24" fill="none" xmlns="http://www.w3.org/2000/svg"> <g clip-path="url(#clip0_4482_9070)"> <path d="M8.36047 3.82006H15.6305C17.6405 3.82006 19.2705 5.45006 19.2705 7.46006V12.9101C19.2705 16.9301 16.0105 20.1801 12.0005 20.1801C7.98047 20.1801 4.73047 16.9201 4.73047 12.9101V7.45006C4.73047 5.44006 6.36047 3.81006 8.37047 3.81006L8.36047 3.82006Z" stroke="white" stroke-width="1.5" stroke-linecap="round" stroke-linejoin="round"/> <path opacity="0.4" d="M15.6302 8.36011H8.3602C7.85762 8.36011 7.4502 8.76753 7.4502 9.27011V11.0901C7.4502 11.5927 7.85762 12.0001 8.3602 12.0001H15.6302C16.1328 12.0001 16.5402 11.5927 16.5402 11.0901V9.27011C16.5402 8.76753 16.1328 8.36011 15.6302 8.36011Z" stroke="white" stroke-width="1.5" stroke-linecap="round" stroke-linejoin="round"/> <path opacity="0.4" d="M19.2695 7.44995H21.0895C21.5895 7.44995 21.9995 7.85995 21.9995 8.35995V11.09C21.9995 11.59 21.5895 12 21.0895 12H19.2695" stroke="white" stroke-width="1.5" stroke-linecap="round" stroke-linejoin="round"/> <path opacity="0.4" d="M4.73 12H2.91C2.41 12 2 11.59 2 11.09V8.35995C2 7.85995 2.41 7.44995 2.91 7.44995H4.73" stroke="white" stroke-width="1.5" stroke-linecap="round" stroke-linejoin="round"/> </g> <defs> <clipPath id="clip0_4482_9070"> <rect width="24" height="24" fill="white"/> </clipPath> </defs> </svg>
