<svg width="24" height="24" viewBox="0 0 24 24" fill="none" xmlns="http://www.w3.org/2000/svg"> <g clip-path="url(#clip0_4482_2229)"> <path d="M5.98999 6H6" stroke="white" stroke-width="1.5" stroke-linecap="round" stroke-linejoin="round"/> <path d="M8.48999 6H8.5" stroke="white" stroke-width="1.5" stroke-linecap="round" stroke-linejoin="round"/> <path d="M10.99 6H11" stroke="white" stroke-width="1.5" stroke-linecap="round" stroke-linejoin="round"/> <path opacity="0.4" d="M2 9.02979H22" stroke="white" stroke-width="1.5" stroke-linecap="round" stroke-linejoin="round"/> <path d="M2 11V7C2 4.8 3.8 3 6 3H18C20.2 3 22 4.8 22 7V17C22 19.2 20.2 21 18 21H13" stroke="white" stroke-width="1.5" stroke-linecap="round" stroke-linejoin="round"/> <path opacity="0.4" d="M6.44995 20.8999C6.40995 18.8499 4.99995 17.4399 2.94995 17.3999" stroke="white" stroke-width="1.5" stroke-linecap="round" stroke-linejoin="round"/> <path opacity="0.4" d="M2.94995 13.8999C3.83995 13.9099 4.65992 14.0599 5.41992 14.3299C7.35992 15.0199 8.82996 16.4799 9.51996 18.4299C9.78996 19.1899 9.93995 20.0199 9.94995 20.8999" stroke="white" stroke-width="1.5" stroke-linecap="round" stroke-linejoin="round"/> <path opacity="0.4" d="M3.23999 20.5H3.26001" stroke="white" stroke-width="2" stroke-linecap="round" stroke-linejoin="round"/> </g> <defs> <clipPath id="clip0_4482_2229"> <rect width="24" height="24" fill="white"/> </clipPath> </defs> </svg>
