<svg width="24" height="24" viewBox="0 0 24 24" fill="none" xmlns="http://www.w3.org/2000/svg"> <g clip-path="url(#clip0_2085_392048)"> <path opacity="0.4" d="M4.8999 8.89062V9.85063C4.8999 11.5006 6.2399 12.8506 7.8999 12.8506H15.3399" stroke="white" stroke-width="1.5" stroke-linecap="round" stroke-linejoin="round"/> <path d="M7.79 12.8402V13.8002C7.79 15.4502 9.13 16.8002 10.79 16.8002H16.93C17.46 16.8002 17.89 17.2302 17.89 17.7602V18.1102C17.89 18.6402 18.32 19.0702 18.85 19.0702H21.06C21.59 19.0702 22.02 18.6402 22.02 18.1102V10.3002C22.02 7.3402 19.62 4.9502 16.67 4.9502H2.96C2.43 4.9502 2 5.3802 2 5.9102C2 7.5602 3.34 8.9002 4.99 8.9002H13.29" stroke="white" stroke-width="1.5" stroke-linecap="round" stroke-linejoin="round"/> </g> <defs> <clipPath id="clip0_2085_392048"> <rect width="24" height="24" fill="white"/> </clipPath> </defs> </svg>
