<svg width="24" height="24" viewBox="0 0 24 24" fill="none" xmlns="http://www.w3.org/2000/svg"> <g clip-path="url(#clip0_2085_390069)"> <path d="M4.91009 10.8305C4.42009 11.3205 3.44009 11.1205 2.71009 10.3905C1.98009 9.6605 1.78009 8.6805 2.27009 8.1905C2.76009 7.7005 3.74009 7.9005 4.47009 8.6305C5.20009 9.3605 5.40009 10.3405 4.91009 10.8305Z" stroke="white" stroke-width="1.41" stroke-linecap="round" stroke-linejoin="round"/> <path d="M21.7299 8.1905C22.2199 8.6805 22.0199 9.6605 21.2899 10.3905C20.5599 11.1205 19.5799 11.3205 19.0899 10.8305C18.5999 10.3405 18.7999 9.3605 19.5299 8.6305C20.2599 7.9005 21.2399 7.7005 21.7299 8.1905Z" stroke="white" stroke-width="1.41" stroke-linecap="round" stroke-linejoin="round"/> <path d="M9.51001 7.02051L12 8.26051L14.49 7.02051" stroke="white" stroke-width="1.41" stroke-linecap="round" stroke-linejoin="round"/> <path opacity="0.4" d="M12 12.0005V8.27051" stroke="white" stroke-width="1.41" stroke-linecap="round" stroke-linejoin="round"/> <path opacity="0.4" d="M2.21002 8.24968C2.03002 7.72968 2.01002 7.22968 2.00002 6.76968C1.97002 4.14968 4.49002 2.66968 6.98002 4.52968" stroke="white" stroke-width="1.41" stroke-linecap="round" stroke-linejoin="round"/> <path opacity="0.4" d="M17.02 4.53001C19.5 2.67001 22 4.13001 22 6.73001C22 7.20001 21.98 7.72001 21.79 8.25001" stroke="white" stroke-width="1.41" stroke-linecap="round" stroke-linejoin="round"/> <path d="M11.9999 3.29004C9.50992 3.29004 6.97992 4.53004 6.97992 4.53004C6.50992 8.32004 8.11992 11.03 10.7599 14.49C8.99992 15.12 9.81992 18.65 11.0299 20.3C11.2199 20.56 11.5199 20.71 11.8499 20.71H12.1599C12.4799 20.71 12.7799 20.56 12.9799 20.3C14.1899 18.65 15.0199 15.12 13.2499 14.49C15.8799 11.03 17.4999 8.32004 17.0299 4.53004C17.0299 4.53004 14.4999 3.29004 12.0099 3.29004H11.9999Z" stroke="white" stroke-width="1.41" stroke-linecap="round" stroke-linejoin="round"/> </g> <defs> <clipPath id="clip0_2085_390069"> <rect width="24" height="24" fill="white"/> </clipPath> </defs> </svg>
