<svg width="24" height="24" viewBox="0 0 24 24" fill="none" xmlns="http://www.w3.org/2000/svg"> <g clip-path="url(#clip0_4482_8536)"> <path d="M20.1897 15.77C21.5997 17.18 21.5997 19.46 20.1897 20.87C18.7797 22.28 16.4997 22.28 15.0897 20.87C13.6797 19.46 13.6797 17.18 15.0897 15.77C16.4997 14.36 18.7797 14.36 20.1897 15.77Z" stroke="white" stroke-width="1.5" stroke-linecap="round" stroke-linejoin="round"/> <path opacity="0.4" d="M5.61035 9.89001V14.71" stroke="white" stroke-width="1.5" stroke-linecap="round" stroke-linejoin="round"/> <path d="M7.21 21.93H4.01C2.9 21.93 2 21.03 2 19.92V16.72C2 15.61 2.9 14.71 4.01 14.71H7.21C8.32 14.71 9.22 15.61 9.22 16.72V19.92C9.22 21.03 8.32 21.93 7.21 21.93Z" stroke="white" stroke-width="1.5" stroke-linecap="round" stroke-linejoin="round"/> <path d="M21.34 7.69L19.07 9.96C18.29 10.74 17.02 10.74 16.23 9.96L13.96 7.69C13.18 6.91 13.18 5.64 13.96 4.85L16.23 2.58C17.01 1.8 18.28 1.8 19.07 2.58L21.34 4.85C22.12 5.63 22.12 6.9 21.34 7.69Z" stroke="white" stroke-width="1.5" stroke-linecap="round" stroke-linejoin="round"/> <path opacity="0.4" d="M17.6396 14.71V10.52" stroke="white" stroke-width="1.5" stroke-linecap="round" stroke-linejoin="round"/> <path d="M8.16043 3.74C9.57043 5.15 9.57043 7.43 8.16043 8.84C6.75043 10.25 4.47043 10.25 3.06043 8.84C1.65043 7.43 1.65043 5.14 3.06043 3.74C4.47043 2.33 6.75043 2.33 8.16043 3.74Z" stroke="white" stroke-width="1.5" stroke-linecap="round" stroke-linejoin="round"/> <path opacity="0.4" d="M13.3297 6.28003H9.21973" stroke="white" stroke-width="1.5" stroke-linecap="round" stroke-linejoin="round"/> </g> <defs> <clipPath id="clip0_4482_8536"> <rect width="24" height="24" fill="white"/> </clipPath> </defs> </svg>
