<svg width="24" height="24" viewBox="0 0 24 24" fill="none" xmlns="http://www.w3.org/2000/svg"> <g clip-path="url(#clip0_4482_1850)"> <path opacity="0.4" d="M10.95 22H7C4.25 22 2 19.75 2 17V7C2 4.25 4.25 2 7 2H17C19.75 2 22 4.25 22 7V11.9" stroke="white" stroke-width="1.5" stroke-miterlimit="10" stroke-linecap="round"/> <path d="M8 8.5H15" stroke="white" stroke-width="1.5" stroke-linecap="round" stroke-linejoin="round"/> <path d="M8 13H11.5" stroke="white" stroke-width="1.5" stroke-linecap="round" stroke-linejoin="round"/> <path d="M16.5501 21.73L14.6801 22C14.5101 22.02 14.3801 21.9 14.4101 21.73L14.6701 19.87C14.7001 19.65 14.8001 19.45 14.9601 19.29L19.3901 14.86C19.9901 14.26 20.9501 14.26 21.5501 14.86C22.1501 15.46 22.1501 16.42 21.5501 17.02L17.1201 21.45C16.9701 21.6 16.7601 21.7 16.5501 21.73Z" stroke="white" stroke-width="1.5" stroke-miterlimit="10"/> </g> <defs> <clipPath id="clip0_4482_1850"> <rect width="24" height="24" fill="white"/> </clipPath> </defs> </svg>
