<svg width="24" height="24" viewBox="0 0 24 24" fill="none" xmlns="http://www.w3.org/2000/svg"> <g clip-path="url(#clip0_4482_8597)"> <g opacity="0.4"> <path d="M12 17.26H13.58" stroke="white" stroke-width="1.5" stroke-linecap="round" stroke-linejoin="round"/> <path d="M10.4199 18.8401H11.9999" stroke="white" stroke-width="1.5" stroke-linecap="round" stroke-linejoin="round"/> <path d="M11.9999 15.6801H10.4199" stroke="white" stroke-width="1.5" stroke-linecap="round" stroke-linejoin="round"/> <path d="M12 8.32007V22.0001" stroke="white" stroke-width="1.5" stroke-linecap="round" stroke-linejoin="round"/> <path d="M12 14.1101H13.58" stroke="white" stroke-width="1.5" stroke-linecap="round" stroke-linejoin="round"/> <path d="M11.9999 12.53H10.4199" stroke="white" stroke-width="1.5" stroke-linecap="round" stroke-linejoin="round"/> <path d="M12 10.9501H13.58" stroke="white" stroke-width="1.5" stroke-linecap="round" stroke-linejoin="round"/> </g> <path d="M12.0006 8.32001C11.2606 8.32001 10.5606 8.01001 10.0706 7.46001C9.58063 6.91001 9.35063 6.18001 9.43063 5.45001L9.66063 3.41001C9.75063 2.61001 10.4306 2.01001 11.2306 2.01001H12.7606C13.5606 2.01001 14.2406 2.61001 14.3306 3.41001L14.5606 5.45001C14.6406 6.18001 14.4106 6.91001 13.9206 7.46001C13.4306 8.01001 12.7306 8.32001 11.9906 8.32001H12.0006Z" stroke="white" stroke-width="1.5" stroke-linecap="round" stroke-linejoin="round"/> <path d="M9.75027 3.05005H7.53027C4.77027 3.05005 2.53027 5.29005 2.53027 8.05005V17C2.53027 19.76 4.77027 22 7.53027 22H16.4803C19.2403 22 21.4803 19.76 21.4803 17V8.05005C21.4803 5.29005 19.2403 3.05005 16.4803 3.05005H14.2603" stroke="white" stroke-width="1.5" stroke-linecap="round" stroke-linejoin="round"/> </g> <defs> <clipPath id="clip0_4482_8597"> <rect width="24" height="24" fill="white"/> </clipPath> </defs> </svg>
