<svg width="24" height="24" viewBox="0 0 24 24" fill="none" xmlns="http://www.w3.org/2000/svg"> <g clip-path="url(#clip0_2085_384901)"> <path d="M19.78 14.22C19.78 18.52 16.3 22 12 22C7.69997 22 4.21997 18.52 4.21997 14.22V7C4.21997 4.24 6.45997 2 9.21997 2H14.78C17.54 2 19.78 4.24 19.78 7V14.22Z" stroke="white" stroke-width="1.5" stroke-linecap="round" stroke-linejoin="round"/> <path d="M2.56006 8.66992V9.22992C2.56006 11.0299 3.14006 12.7899 4.23006 14.2299" stroke="white" stroke-width="1.5" stroke-linecap="round" stroke-linejoin="round"/> <path d="M21.44 8.66992V9.22992C21.44 11.0299 20.86 12.7899 19.77 14.2299" stroke="white" stroke-width="1.5" stroke-linecap="round" stroke-linejoin="round"/> <path d="M12 9.77995C12 7.93995 10.51 6.44995 8.66998 6.44995H7.55998C5.71998 6.44995 4.22998 7.93995 4.22998 9.77995" stroke="white" stroke-width="1.5" stroke-linecap="round" stroke-linejoin="round"/> <path d="M12 9.77995C12 7.93995 13.49 6.44995 15.33 6.44995H16.44C18.28 6.44995 19.77 7.93995 19.77 9.77995" stroke="white" stroke-width="1.5" stroke-linecap="round" stroke-linejoin="round"/> <g opacity="0.4"> <path d="M7.14991 10.9499C6.96991 11.0999 6.80991 11.2899 6.68991 11.5099C6.09991 12.5399 6.44991 13.8499 7.47991 14.4399C8.50991 15.0299 9.81991 14.6799 10.4099 13.6499C10.5399 13.4299 10.6199 13.1999 10.6599 12.9699L7.14991 10.9399V10.9499Z" stroke="white" stroke-width="1.5" stroke-linecap="round" stroke-linejoin="round"/> <path d="M16.8498 10.9499C17.0298 11.0999 17.1898 11.2899 17.3098 11.5099C17.8998 12.5399 17.5498 13.8499 16.5198 14.4399C15.4898 15.0299 14.1798 14.6799 13.5898 13.6499C13.4598 13.4299 13.3798 13.1999 13.3398 12.9699L16.8498 10.9399V10.9499Z" stroke="white" stroke-width="1.5" stroke-linecap="round" stroke-linejoin="round"/> <path d="M8.66992 18.1099H15.3399" stroke="white" stroke-width="1.5" stroke-linecap="round" stroke-linejoin="round"/> <path d="M10.3298 18.1099V19.7799" stroke="white" stroke-width="1.5" stroke-linecap="round" stroke-linejoin="round"/> <path d="M13.6699 18.1099V19.7799" stroke="white" stroke-width="1.5" stroke-linecap="round" stroke-linejoin="round"/> <path d="M12 15.3298V16.4398" stroke="white" stroke-width="1.5" stroke-linecap="round" stroke-linejoin="round"/> </g> </g> <defs> <clipPath id="clip0_2085_384901"> <rect width="24" height="24" fill="white"/> </clipPath> </defs> </svg>
