<svg width="24" height="24" viewBox="0 0 24 24" fill="none" xmlns="http://www.w3.org/2000/svg"> <g clip-path="url(#clip0_2085_384538)"> <path d="M6.90931 12.6542H5.77649C6.13725 12.0417 6.52339 11.3791 6.90931 10.7499V12.6542Z" fill="white"/> <path fill-rule="evenodd" clip-rule="evenodd" d="M4.93274 4.9325C8.84274 1.0225 15.1724 1.0225 19.0724 4.9325C22.9823 8.84251 22.9824 15.1722 19.0724 19.0721C15.1624 22.9821 8.83275 22.9821 4.93274 19.0721C1.02274 15.1621 1.02274 8.8325 4.93274 4.9325ZM7.39563 9.04578C6.92592 8.91174 6.4481 9.09675 6.19642 9.5077C5.65947 10.3802 5.06368 11.3787 4.55188 12.2596C4.3505 12.6037 4.3505 13.0152 4.55188 13.3593C4.74492 13.7031 5.11371 13.913 5.50794 13.913H6.90931V14.3661C6.90937 14.71 7.19438 14.9948 7.53821 14.995L7.547 15.0038C7.89101 15.0038 8.17591 14.7179 8.17591 14.3739V13.9208H8.26868C8.61266 13.9207 8.89759 13.6359 8.89759 13.2919C8.89755 12.9479 8.61264 12.663 8.26868 12.663H8.17591V10.078C8.17581 9.59143 7.85706 9.18002 7.39563 9.04578ZM12.3458 9.22254C10.8189 9.22279 9.56849 10.4729 9.56849 11.9999C9.56851 13.5269 10.8105 14.777 12.3458 14.7772H13.1515C13.6464 14.7772 14.0497 14.3747 14.0499 13.8798V11.9999C14.0499 11.6559 13.7641 11.371 13.42 11.371H12.5812C12.2372 11.371 11.9523 11.6559 11.9523 11.9999C11.9523 12.3439 12.2372 12.6288 12.5812 12.6288H12.7911V13.5184H12.3458C11.507 13.5182 10.8273 12.8388 10.8273 11.9999C10.8273 11.1609 11.5069 10.4816 12.3458 10.4813H13.1271C13.4709 10.4811 13.756 10.1953 13.756 9.85145C13.7558 9.50771 13.4708 9.22278 13.1271 9.22254H12.3458ZM17.1124 9.90223C16.7649 9.90227 16.4835 10.1846 16.4835 10.5321V11.161H15.7863C15.4389 11.1612 15.1574 11.4435 15.1574 11.7909C15.1576 12.1382 15.439 12.4196 15.7863 12.4198H16.4835V13.0487C16.4835 13.3962 16.7649 13.6785 17.1124 13.6786C17.46 13.6786 17.7423 13.3963 17.7423 13.0487V12.4198H18.3712C18.7186 12.4197 18.9999 12.1382 19.0001 11.7909C19.0001 11.4434 18.7187 11.1611 18.3712 11.161H17.7423V10.5321C17.7423 10.1845 17.46 9.90223 17.1124 9.90223Z" fill="white"/> </g> <defs> <clipPath id="clip0_2085_384538"> <rect width="24" height="24" fill="white"/> </clipPath> </defs> </svg>
