<svg width="24" height="24" viewBox="0 0 24 24" fill="none" xmlns="http://www.w3.org/2000/svg"> <g clip-path="url(#clip0_3111_13632)"> <path d="M21.16 12.71H17.73C16.77 12.71 15.91 13.24 15.48 14.11L14.65 15.74C14.45 16.13 14.06 16.38 13.63 16.38H10.4C10.09 16.38 9.66003 16.31 9.38003 15.74L8.55003 14.12C8.12003 13.26 7.25003 12.72 6.30003 12.72H2.85003C2.47003 12.72 2.16003 13.03 2.16003 13.41V16.62C2.16003 20.19 4.31003 22.33 7.89003 22.33H16.14C19.52 22.33 21.59 20.48 21.85 17.19V13.4C21.85 13.03 21.54 12.71 21.16 12.71Z" fill="white"/> <path d="M20.14 7.87L19.88 8.83C19.72 9.42 19.22 9.8 18.61 9.8C18 9.8 17.5 9.41999 17.34 8.81999L17.08 7.85C16.94 7.35 16.56 6.97 16.06 6.83L15.08 6.56C14.51 6.4 14.12 5.9 14.12 5.29C14.12 5.04 14.2 4.82 14.31 4.62H7.64002C4.20002 4.71 2.15002 6.81999 2.15002 10.32V11.34C2.37002 11.26 2.60002 11.22 2.84002 11.22H6.29002C7.82002 11.22 9.18002 12.07 9.86002 13.43L10.6 14.88H13.42L14.16 13.42C14.84 12.06 16.21 11.21 17.73 11.21H21.16C21.4 11.21 21.63 11.25 21.85 11.33V10.31C21.85 8.96 21.54 7.82 20.96 6.92C20.56 7.09 20.26 7.43 20.14 7.87Z" fill="white"/> <path d="M22.12 5.31C22.12 5.38 22.08 5.54 21.89 5.6L20.91 5.87C20.06 6.1 19.42 6.74 19.19 7.59L18.93 8.55C18.87 8.77 18.7 8.79 18.62 8.79C18.54 8.79 18.37 8.77 18.31 8.55L18.05 7.58C17.82 6.74 17.17 6.1 16.33 5.87L15.36 5.61C15.15 5.55 15.13 5.37 15.13 5.3C15.13 5.22 15.15 5.04 15.36 4.98L16.34 4.72C17.18 4.48 17.82 3.84 18.05 3L18.33 1.98C18.4 1.81 18.56 1.78 18.62 1.78C18.68 1.78 18.85 1.8 18.91 1.96L19.19 2.99C19.42 3.83 20.07 4.47 20.91 4.71L21.91 4.99C22.11 5.07 22.12 5.25 22.12 5.31Z" fill="white"/> </g> <defs> <clipPath id="clip0_3111_13632"> <rect width="24" height="24" fill="white"/> </clipPath> </defs> </svg>
