<svg width="24" height="24" viewBox="0 0 24 24" fill="none" xmlns="http://www.w3.org/2000/svg"> <g clip-path="url(#clip0_3111_13350)"> <path d="M8.70001 10.78C8.70001 11.33 8.84001 11.4 9.19001 11.52L9.69001 11.69V9.98999H9.40001C9.01001 9.98999 8.70001 10.35 8.70001 10.78Z" fill="white"/> <path d="M11.49 15.51C11.88 15.51 12.19 15.16 12.19 14.73C12.19 14.18 12.04 14.11 11.7 13.99L11.19 13.81V15.51H11.49Z" fill="white"/> <path d="M19.1 11.59C18.27 11.59 17.57 11.06 17.35 10.25L17.01 9.01C16.84 8.41 16.38 7.95 15.78 7.78L14.51 7.44C13.73 7.22 13.2 6.52 13.2 5.7C13.2 4.88 13.73 4.17 14.55 3.94L15 3.82C13.63 3.12 12.08 2.72 10.44 2.72C4.90002 2.72 0.400024 7.22 0.400024 12.76C0.400024 18.3 4.89002 22.8 10.44 22.8C15.99 22.8 20.48 18.31 20.48 12.76C20.48 12.19 20.42 11.63 20.33 11.09C20 11.4 19.58 11.59 19.1 11.59ZM12.2 12.57C12.84 12.8 13.69 13.27 13.69 14.73C13.69 15.99 12.7 17.01 11.49 17.01H11.19V17.26C11.19 17.67 10.85 18.01 10.44 18.01C10.03 18.01 9.69002 17.67 9.69002 17.26V17.01H9.61002C8.28002 17.01 7.19002 15.89 7.19002 14.51C7.19002 14.1 7.53002 13.76 7.94002 13.76C8.35002 13.76 8.69002 14.1 8.69002 14.51C8.69002 15.06 9.10002 15.51 9.61002 15.51H9.69002V13.29L8.69002 12.94C8.05002 12.71 7.20002 12.24 7.20002 10.78C7.20002 9.52 8.19002 8.5 9.40002 8.5H9.69002V8.26C9.69002 7.85 10.03 7.51 10.44 7.51C10.85 7.51 11.19 7.85 11.19 8.26V8.5H11.28C12.61 8.5 13.7 9.62 13.7 11C13.7 11.41 13.36 11.75 12.95 11.75C12.54 11.75 12.2 11.41 12.2 11C12.2 10.45 11.79 10 11.28 10H11.19V12.22L12.2 12.57Z" fill="white"/> <path d="M23.6 5.73C23.6 5.82 23.55 6.02 23.31 6.1L22.04 6.45C20.95 6.75 20.13 7.57 19.83 8.66L19.49 9.9C19.41 10.18 19.19 10.21 19.09 10.21C18.99 10.21 18.77 10.18 18.69 9.9L18.35 8.65C18.05 7.57 17.22 6.75 16.14 6.45L14.89 6.11C14.62 6.03 14.59 5.8 14.59 5.71C14.59 5.61 14.62 5.38 14.89 5.3L16.15 4.97C17.23 4.66 18.05 3.84 18.35 2.76L18.71 1.45C18.8 1.23 19 1.2 19.09 1.2C19.18 1.2 19.39 1.23 19.47 1.43L19.83 2.75C20.13 3.83 20.96 4.65 22.04 4.96L23.33 5.31C23.59 5.41 23.6 5.64 23.6 5.72V5.73Z" fill="white"/> </g> <defs> <clipPath id="clip0_3111_13350"> <rect width="24" height="24" fill="white"/> </clipPath> </defs> </svg>
