<svg width="24" height="24" viewBox="0 0 24 24" fill="none" xmlns="http://www.w3.org/2000/svg"> <g clip-path="url(#clip0_3111_13802)"> <path d="M17.77 1.35999H8.01996C5.18996 1.35999 2.89996 3.64999 2.89996 6.47999V15.73C3.19996 15.5 3.42996 15.19 3.52996 14.81L3.85996 13.59L3.92996 13.36C4.19996 12.67 4.83996 12.19 5.58996 12.19C6.35996 12.19 7.01996 12.63 7.27996 13.32L7.32996 13.46L7.68996 14.78C7.85996 15.39 8.30996 15.84 8.90996 16.01L10.16 16.34C10.9299 16.5966 11.51 17.2904 11.51 18.12C11.51 18.895 11.002 19.5934 10.26 19.83L8.92996 20.2C8.35996 20.36 7.93492 20.8 7.73492 21.35C7.82492 21.35 7.91996 21.35 8.01996 21.35H17.77C20.6 21.35 22.89 19.06 22.89 16.23V6.48998C22.89 3.65999 20.6 1.36999 17.77 1.36999V1.35999ZM18.64 8.69999C18.35 8.98998 17.87 8.99999 17.58 8.70999L16.65 7.77999V12.38C16.65 12.79 16.31 13.13 15.9 13.13C15.49 13.13 15.15 12.79 15.15 12.38V7.77999L14.22 8.70999C14.07 8.85999 13.88 8.92999 13.69 8.92999C13.5 8.92999 13.31 8.85999 13.16 8.70999C12.87 8.41999 12.87 7.93999 13.16 7.64999L15.37 5.43999C15.66 5.14999 16.14 5.14999 16.43 5.43999L18.64 7.63999C18.93 7.92999 18.93 8.40999 18.64 8.69999Z" fill="white"/> <path d="M10.11 18.16C10.11 18.25 10.06 18.45 9.81997 18.53L8.54998 18.88C7.45998 19.18 6.63998 20 6.33998 21.09L5.99998 22.33C5.91998 22.61 5.69998 22.64 5.59998 22.64C5.49998 22.64 5.27998 22.61 5.19998 22.33L4.85998 21.08C4.55998 20 3.72998 19.18 2.64998 18.88L1.39998 18.54C1.12998 18.46 1.09998 18.23 1.09998 18.14C1.09998 18.04 1.12998 17.81 1.39998 17.73L2.65998 17.4C3.73998 17.09 4.55998 16.27 4.85998 15.19L5.21998 13.88C5.30998 13.66 5.50998 13.63 5.59998 13.63C5.68998 13.63 5.89998 13.66 5.97998 13.86L6.33998 15.18C6.63998 16.26 7.46998 17.08 8.54998 17.39L9.83998 17.74C10.1 17.84 10.11 18.08 10.11 18.16Z" fill="white"/> </g> <defs> <clipPath id="clip0_3111_13802"> <rect width="24" height="24" fill="white"/> </clipPath> </defs> </svg>
