<svg width="24" height="24" viewBox="0 0 24 24" fill="none" xmlns="http://www.w3.org/2000/svg"> <g clip-path="url(#clip0_4482_4463)"> <path d="M3.54993 15.8598C5.69993 16.5998 7.39996 18.3098 8.13996 20.4498C6.75996 20.2998 5.61993 19.7498 4.79993 18.8298C4.09993 18.0598 3.67993 17.0298 3.54993 15.8598ZM2.06995 14.0098C1.52995 18.6998 4.43993 21.9898 8.89993 21.9898C9.24993 21.9898 9.61993 21.9698 9.98993 21.9298C9.55993 17.7498 6.24995 14.4398 2.06995 14.0098Z" fill="white"/> <path d="M15.86 3.54977C17.24 3.69977 18.38 4.24976 19.21 5.16976C19.9 5.94976 20.33 6.96976 20.46 8.13976C18.31 7.39976 16.6 5.68977 15.86 3.54977ZM15.1 2.00977C14.75 2.00977 14.38 2.02976 14.01 2.06976C14.44 6.24976 17.76 9.55977 21.94 9.97977C22.47 5.29977 19.56 2.00977 15.1 2.00977Z" fill="white"/> <path d="M14.0101 2.07031C13.8601 2.08031 13.7101 2.10032 13.5601 2.12032C8.10006 2.99032 2.99006 8.10031 2.12006 13.5603C2.10006 13.7103 2.08007 13.8603 2.07007 14.0103C6.25007 14.4403 9.56005 17.7503 9.99005 21.9303C11.0401 21.8203 12.1701 21.5303 13.3501 21.0303C16.8001 19.5803 19.5801 16.8003 21.0301 13.3503C21.5301 12.1703 21.8201 11.0403 21.9401 9.98032C17.7601 9.56032 14.4401 6.25031 14.0101 2.07031ZM14.5301 11.4703C14.8201 11.7603 14.8201 12.2403 14.5301 12.5303C14.3801 12.6803 14.1901 12.7503 14.0001 12.7503C13.8101 12.7503 13.6201 12.6803 13.4701 12.5303L13.0001 12.0603L12.0601 13.0003L12.5301 13.4703C12.8201 13.7603 12.8201 14.2403 12.5301 14.5303C12.3801 14.6803 12.1901 14.7503 12.0001 14.7503C11.8101 14.7503 11.6201 14.6803 11.4701 14.5303L11.0001 14.0603L10.5301 14.5303C10.3801 14.6803 10.1901 14.7503 10.0001 14.7503C9.81006 14.7503 9.62006 14.6803 9.47006 14.5303C9.18006 14.2403 9.18006 13.7603 9.47006 13.4703L9.94006 13.0003L9.47006 12.5303C9.18006 12.2403 9.18006 11.7603 9.47006 11.4703C9.76006 11.1803 10.2401 11.1803 10.5301 11.4703L11.0001 11.9403L11.9401 11.0003L11.4701 10.5303C11.1801 10.2403 11.1801 9.76031 11.4701 9.47031C11.7601 9.18031 12.2401 9.18031 12.5301 9.47031L13.0001 9.94032L13.4701 9.47031C13.7601 9.18031 14.2401 9.18031 14.5301 9.47031C14.8201 9.76031 14.8201 10.2403 14.5301 10.5303L14.0601 11.0003L14.5301 11.4703Z" fill="white"/> </g> <defs> <clipPath id="clip0_4482_4463"> <rect width="24" height="24" fill="white"/> </clipPath> </defs> </svg>
