<svg width="24" height="24" viewBox="0 0 24 24" fill="none" xmlns="http://www.w3.org/2000/svg"> <g clip-path="url(#clip0_4482_1620)"> <path d="M2 9.77979V15.4998C2 17.6998 3.8 19.4998 6 19.4998H7.76999C7.71999 19.3698 7.67999 19.2498 7.64999 19.1198C7.54999 18.7598 7.5 18.3898 7.5 17.9998C7.5 16.7598 8.00999 15.6398 8.82999 14.8298C9.63999 14.0098 10.76 13.4998 12 13.4998C13.24 13.4998 14.36 14.0098 15.17 14.8298C15.99 15.6398 16.5 16.7598 16.5 17.9998C16.5 18.3898 16.46 18.7598 16.35 19.1198C16.32 19.2498 16.28 19.3798 16.23 19.4998H18C20.2 19.4998 22 17.6998 22 15.4998V9.77979C22 9.49979 21.78 9.27979 21.5 9.27979H2.5C2.22 9.27979 2 9.50979 2 9.77979Z" fill="white"/> <path d="M18 2H6C3.8 2 2 3.8 2 6V7.28C2 7.56 2.22 7.78 2.5 7.78H21.5C21.78 7.78 22 7.56 22 7.28V6C22 3.8 20.2 2 18 2ZM6 6.25C5.59 6.25 5.25 5.91 5.25 5.5C5.25 5.09 5.58 4.75 6 4.75C6.41 4.75 6.75 5.09 6.75 5.5C6.75 5.91 6.41 6.25 6 6.25ZM8.5 6.25C8.09 6.25 7.75 5.91 7.75 5.5C7.75 5.09 8.08 4.75 8.5 4.75H8.51001C8.92001 4.75 9.26001 5.09 9.26001 5.5C9.26001 5.91 8.91 6.25 8.5 6.25ZM11 6.25C10.59 6.25 10.25 5.91 10.25 5.5C10.25 5.09 10.58 4.75 11 4.75C11.41 4.75 11.75 5.09 11.75 5.5C11.75 5.91 11.41 6.25 11 6.25Z" fill="white"/> <path d="M12 23.2898C10.6 23.2898 9.28999 22.7398 8.29999 21.7398C7.74999 21.2098 7.33 20.5498 7.06 19.7898C7.01 19.6798 6.96001 19.5098 6.92001 19.3398C6.81001 18.9898 6.75 18.5498 6.75 18.0498C6.75 16.6498 7.29999 15.3398 8.29999 14.3498C9.27999 13.3598 10.6 12.7998 12 12.7998C13.4 12.7998 14.71 13.3498 15.7 14.3498C16.69 15.3298 17.25 16.6498 17.25 18.0498C17.25 18.5098 17.19 18.9398 17.07 19.3698C17.04 19.4998 16.99 19.6498 16.93 19.8198C16.19 21.8798 14.21 23.2898 12 23.2898ZM12 14.2898C11 14.2898 10.07 14.6798 9.35999 15.3998C8.63999 16.1098 8.25 17.0498 8.25 18.0398C8.25 18.3898 8.29 18.6798 8.37 18.9398C8.4 19.0798 8.42999 19.1698 8.45999 19.2498C8.65999 19.8298 8.95001 20.2898 9.35001 20.6698C10.07 21.3998 11.01 21.7898 12 21.7898C13.57 21.7898 14.99 20.7798 15.52 19.2898C15.56 19.1798 15.59 19.0898 15.62 18.9898C15.71 18.6598 15.75 18.3598 15.75 18.0398C15.75 17.0398 15.36 16.1098 14.64 15.3998C13.93 14.6798 13 14.2898 12 14.2898Z" fill="white"/> <path d="M12.7499 20.29C12.5599 20.29 12.3699 20.22 12.2199 20.07L10.7199 18.57C10.4299 18.28 10.4299 17.8 10.7199 17.51L12.2199 16.01C12.5099 15.72 12.9899 15.72 13.2799 16.01C13.5699 16.3 13.5699 16.78 13.2799 17.07L12.3099 18.04L13.2799 19.01C13.5699 19.3 13.5699 19.78 13.2799 20.07C13.1299 20.22 12.9399 20.29 12.7499 20.29Z" fill="white"/> </g> <defs> <clipPath id="clip0_4482_1620"> <rect width="24" height="24" fill="white"/> </clipPath> </defs> </svg>
