<svg width="24" height="24" viewBox="0 0 24 24" fill="none" xmlns="http://www.w3.org/2000/svg"> <g clip-path="url(#clip0_4482_1500)"> <path d="M15.5 2H8.5C6.02 2 4 4.03 4 6.5V16.5C4 18.98 6.03 21 8.5 21H14C13.37 20.17 13 19.13 13 18C13 15.24 15.24 13 18 13C18.71 13 19.39 13.15 20 13.41V6.5C20 4.02 17.97 2 15.5 2ZM14 6.75H10C9.59 6.75 9.25 6.41 9.25 6C9.25 5.59 9.59 5.25 10 5.25H14C14.41 5.25 14.75 5.59 14.75 6C14.75 6.41 14.41 6.75 14 6.75Z" fill="white"/> <path d="M18 23.75C16.2 23.75 14.48 22.89 13.4 21.45C12.65 20.46 12.25 19.26 12.25 18C12.25 14.83 14.83 12.25 18 12.25C18.79 12.25 19.56 12.41 20.29 12.72C22.39 13.65 23.75 15.72 23.75 18C23.75 21.17 21.17 23.75 18 23.75ZM18 13.75C15.66 13.75 13.75 15.66 13.75 18C13.75 18.94 14.04 19.82 14.6 20.55C15.4 21.62 16.67 22.25 18 22.25C20.34 22.25 22.25 20.34 22.25 18C22.25 16.32 21.25 14.78 19.7 14.1C19.16 13.87 18.59 13.75 18 13.75Z" fill="white"/> <path d="M17.9999 20.8901C17.8099 20.8901 17.3499 20.8201 17.0799 20.2101L16.7099 19.2901L15.8099 18.9301C15.3699 18.7401 15.1099 18.3901 15.1099 18.0001C15.1099 17.6101 15.3599 17.2601 15.7899 17.0801L16.7099 16.7101L17.0699 15.8101C17.3299 15.1701 17.7999 15.1001 17.9999 15.1001C18.1899 15.1001 18.6699 15.1701 18.9199 15.8101L19.2799 16.7201L20.1799 17.0801C20.8199 17.3501 20.8799 17.8201 20.8799 18.0101C20.8799 18.2001 20.8099 18.6701 20.1899 18.9301L19.2799 19.3001L18.9199 20.2001C18.7299 20.6401 18.3899 20.8901 17.9999 20.8901ZM17.5299 18.0101L17.5599 18.0201C17.7499 18.1001 17.8999 18.2501 17.9799 18.4401L17.9899 18.4701L17.9999 18.4401C18.0799 18.2501 18.2299 18.1001 18.4199 18.0201L18.4499 18.0101L18.4199 18.0001C18.2299 17.9201 18.0799 17.7701 17.9999 17.5801L17.9899 17.5501L17.9799 17.5801C17.8999 17.7701 17.7499 17.9201 17.5599 18.0001L17.5299 18.0101ZM19.6199 18.4701H19.6299H19.6199Z" fill="white"/> </g> <defs> <clipPath id="clip0_4482_1500"> <rect width="24" height="24" fill="white"/> </clipPath> </defs> </svg>
