<svg width="24" height="24" viewBox="0 0 24 24" fill="none" xmlns="http://www.w3.org/2000/svg"> <g clip-path="url(#clip0_4482_15669)"> <path d="M3.93048 4.49977C3.93048 5.49977 4.05048 6.48977 4.29048 7.44977L4.60048 8.70977C4.80048 9.52977 4.65048 10.3998 4.19048 11.0998L3.25048 12.5098C1.82048 14.6598 1.68048 17.4198 2.90048 19.6998L3.33048 20.4998C3.82048 21.4198 4.79048 21.9998 5.84048 21.9998H7.32048C8.43048 21.9998 9.43048 21.3598 9.90048 20.3598L10.2705 19.5698C11.3005 17.3598 11.1005 14.7698 9.75048 12.7398L8.67048 11.1098C8.20048 10.4098 8.05048 9.53977 8.26048 8.71977L8.64048 7.19977C8.84048 6.40977 8.94048 5.58977 8.94048 4.77977V4.50977C8.94048 3.12977 7.82048 2.00977 6.44048 2.00977C5.06048 2.00977 3.94048 3.12977 3.94048 4.50977L3.93048 4.49977Z" fill="white"/> <path d="M15.4209 9C12.8909 9 10.7009 10.45 9.63086 12.56L10.3009 19.49C11.4909 21.02 13.3409 22 15.4209 22C19.0109 22 21.9209 19.09 21.9209 15.5C21.9209 11.91 19.0109 9 15.4209 9ZM15.1909 14.24C14.9809 14.45 14.7009 14.57 14.4009 14.57C14.1009 14.57 13.8309 14.45 13.6209 14.24C13.4109 14.03 13.2909 13.75 13.2909 13.46C13.2909 13.17 13.4109 12.88 13.6209 12.67C13.8309 12.46 14.1009 12.35 14.4009 12.35C14.7009 12.35 14.9809 12.46 15.1909 12.67C15.4009 12.88 15.5109 13.16 15.5109 13.46C15.5109 13.76 15.4009 14.03 15.1909 14.24ZM18.2509 17.31C18.0309 17.52 17.7509 17.63 17.4709 17.63C17.1909 17.63 16.9009 17.52 16.6809 17.31C16.4709 17.1 16.3509 16.82 16.3509 16.52C16.3509 16.22 16.4709 15.94 16.6809 15.73C17.1109 15.3 17.8209 15.3 18.2509 15.73C18.4609 15.94 18.5809 16.22 18.5809 16.52C18.5809 16.82 18.4609 17.1 18.2509 17.31ZM18.7609 13.73C18.5409 13.95 18.2609 14.06 17.9809 14.06C17.7009 14.06 17.4109 13.95 17.1909 13.73C16.7609 13.3 16.7609 12.59 17.1909 12.16C17.6209 11.73 18.3309 11.73 18.7609 12.16C18.9709 12.37 19.0909 12.65 19.0909 12.95C19.0909 13.25 18.9709 13.52 18.7609 13.73Z" fill="white"/> </g> <defs> <clipPath id="clip0_4482_15669"> <rect width="24" height="24" fill="white"/> </clipPath> </defs> </svg>
