<svg width="24" height="24" viewBox="0 0 24 24" fill="none" xmlns="http://www.w3.org/2000/svg"> <g clip-path="url(#clip0_4482_13104)"> <path d="M17 3.5C18.93 3.5 20.5 5.07 20.5 7V8.1C19.74 7.71 18.88 7.5 18 7.5H6C5.12 7.5 4.26 7.71 3.5 8.1V7C3.5 5.07 5.07 3.5 7 3.5H17ZM17 2H7C4.24 2 2 4.24 2 7V10.87C2 11.05 2.14 11.15 2.28 11.15C2.37 11.15 2.47 11.1 2.53 11C3.22 9.8 4.52 8.99 6 8.99H18C19.49 8.99 20.78 9.8 21.47 11C21.53 11.1 21.62 11.15 21.72 11.15C21.86 11.15 22 11.04 22 10.87V7C22 4.24 19.76 2 17 2Z" fill="white"/> <path d="M8.17 12.25C8.9 12.25 9.6 12.54 10.12 13.06L11.45 14.39C11.75 14.69 12.25 14.69 12.56 14.39L13.89 13.06C14.41 12.54 15.11 12.25 15.84 12.25H21.01C21.56 12.25 22.01 11.8 22.01 11.25V11C22.01 8.79 20.22 7 18.01 7H6C3.79 7 2 8.79 2 11V11.25C2 11.8 2.45 12.25 3 12.25H8.17Z" fill="white"/> <path d="M15.83 13.75C15.5 13.75 15.18 13.88 14.95 14.12L13.62 15.45C13.18 15.89 12.59 16.12 12.01 16.12C11.43 16.12 10.84 15.9 10.4 15.45L9.07 14.12C8.84 13.89 8.52 13.75 8.19 13.75H3C2.45 13.75 2 14.2 2 14.75V17C2 19.76 4.24 22 7 22H17C19.76 22 22 19.76 22 17V14.75C22 14.2 21.55 13.75 21 13.75H15.83Z" fill="white"/> </g> <defs> <clipPath id="clip0_4482_13104"> <rect width="24" height="24" fill="white"/> </clipPath> </defs> </svg>
