<svg width="24" height="24" viewBox="0 0 24 24" fill="none" xmlns="http://www.w3.org/2000/svg"> <g clip-path="url(#clip0_2085_393103)"> <path d="M7.02004 5.73H4.29004C3.73775 5.73 3.28157 5.28007 3.33991 4.73088C3.53354 2.9082 4.26855 2 5.15004 2C6.18004 2 7.02004 3.24 7.02004 5.73Z" fill="white"/> <path d="M18.8499 2H5.1499C6.1899 2 7.0199 3.24 7.0199 5.73V19C7.0199 20.66 8.3599 22 10.0199 22H17.7099C19.3699 22 20.7099 20.66 20.7099 19V5.73C20.7099 3.24 19.8799 2 18.8499 2ZM12.6199 4.49C13.5699 4.49 13.8699 5.42 13.8699 5.42C13.8699 5.42 14.1699 4.49 15.1099 4.49C15.8499 4.49 16.3599 5.02 16.3599 5.66C16.3599 6.50716 15.4146 7.11336 14.0326 8.14774C13.9362 8.21984 13.8034 8.22006 13.7069 8.14823C12.3162 7.11356 11.3799 6.5073 11.3799 5.66C11.3799 5.02 11.8799 4.49 12.6199 4.49ZM11.9999 10.01H15.7299C16.1399 10.01 16.4799 10.35 16.4799 10.76C16.4799 11.17 16.1399 11.51 15.7299 11.51H11.9999C11.5899 11.51 11.2499 11.17 11.2499 10.76C11.2499 10.35 11.5899 10.01 11.9999 10.01ZM11.9999 20.26H9.5099C9.0999 20.26 8.7599 19.92 8.7599 19.51C8.7599 19.1 9.0999 18.76 9.5099 18.76H11.9999C12.4099 18.76 12.7499 19.1 12.7499 19.51C12.7499 19.92 12.4099 20.26 11.9999 20.26ZM18.2199 20.26H15.7299C15.3199 20.26 14.9799 19.92 14.9799 19.51C14.9799 19.1 15.3199 18.76 15.7299 18.76H18.2199C18.6299 18.76 18.9699 19.1 18.9699 19.51C18.9699 19.92 18.6299 20.26 18.2199 20.26ZM18.2199 16.48H9.5099C9.0999 16.48 8.7599 16.14 8.7599 15.73C8.7599 15.32 9.0999 14.98 9.5099 14.98H18.2199C18.6299 14.98 18.9699 15.32 18.9699 15.73C18.9699 16.14 18.6299 16.48 18.2199 16.48ZM18.2199 13.99H9.5099C9.0999 13.99 8.7599 13.65 8.7599 13.24C8.7599 12.83 9.0999 12.49 9.5099 12.49H18.2199C18.6299 12.49 18.9699 12.83 18.9699 13.24C18.9699 13.65 18.6299 13.99 18.2199 13.99Z" fill="white"/> </g> <defs> <clipPath id="clip0_2085_393103"> <rect width="24" height="24" fill="white"/> </clipPath> </defs> </svg>
