<svg width="24" height="24" viewBox="0 0 24 24" fill="none" xmlns="http://www.w3.org/2000/svg"> <g clip-path="url(#clip0_4482_14008)"> <path d="M15.31 4.86023C15.12 4.86023 14.93 4.79023 14.78 4.64023C14.49 4.35023 14.49 3.87023 14.78 3.58023L15.84 2.52023C16.13 2.23023 16.61 2.23023 16.9 2.52023C17.19 2.81023 17.19 3.29023 16.9 3.58023L15.84 4.64023C15.69 4.79023 15.5 4.86023 15.31 4.86023Z" fill="white"/> <path d="M8.98035 4.86023C8.79035 4.86023 8.60035 4.79023 8.45035 4.64023L7.39035 3.58023C7.10035 3.29023 7.10035 2.81023 7.39035 2.52023C7.68035 2.23023 8.16035 2.23023 8.45035 2.52023L9.51035 3.58023C9.80035 3.87023 9.80035 4.35023 9.51035 4.64023C9.36035 4.79023 9.17035 4.86023 8.98035 4.86023Z" fill="white"/> <path d="M12.1396 3.81C11.7296 3.81 11.3896 3.47 11.3896 3.06V2C11.3896 1.59 11.7296 1.25 12.1396 1.25C12.5496 1.25 12.8896 1.59 12.8896 2V3.06C12.8896 3.47 12.5496 3.81 12.1396 3.81Z" fill="white"/> <path d="M22.71 20.6492C22.57 20.2592 22.14 20.0592 21.75 20.1992L20.76 20.5592L20.07 18.6492C20.76 18.2192 21.3 17.5792 21.59 16.8092C21.97 15.8092 21.89 14.6892 21.38 13.7392L21.19 13.3892L18.85 9.05921C18.45 8.28921 17.53 7.93921 16.71 8.22921L14.41 9.05921C13.58 9.37921 13.12 10.2592 13.32 11.0992L13.96 13.9092L14.5 16.3192C14.74 17.3592 15.41 18.2392 16.35 18.7492C16.9 19.0492 17.51 19.1992 18.12 19.1992C18.3 19.1992 18.48 19.1792 18.66 19.1492L19.36 21.0692L18.38 21.4292C17.99 21.5692 17.79 21.9992 17.93 22.3892C18.04 22.6892 18.33 22.8792 18.63 22.8792C18.71 22.8792 18.8 22.8692 18.89 22.8292L20.55 22.2192H20.58L22.26 21.5992C22.65 21.4592 22.85 21.0292 22.71 20.6392V20.6492ZM14.94 10.4692L17.23 9.63921C17.34 9.59921 17.47 9.63921 17.54 9.75921L19.28 12.9892H15.3L14.79 10.7492C14.75 10.6092 14.85 10.4992 14.95 10.4592L14.94 10.4692Z" fill="white"/> <path d="M9.57976 9.05966L7.28976 8.22965C6.46976 7.93965 5.56976 8.27966 5.13976 9.04966L2.80976 13.3897L2.61976 13.7397C2.10976 14.6897 2.02976 15.8097 2.40976 16.8097C2.69976 17.5797 3.23976 18.2197 3.92976 18.6397L3.23976 20.5497L2.24976 20.1897C1.85976 20.0497 1.42976 20.2497 1.28976 20.6397C1.14976 21.0297 1.34976 21.4597 1.73976 21.5997L3.41976 22.2097C3.41976 22.2097 3.41976 22.2097 3.42976 22.2097C3.42976 22.2097 3.43976 22.2097 3.44976 22.2097L5.10976 22.8197C5.18976 22.8497 5.27976 22.8697 5.36976 22.8697C5.67976 22.8697 5.95976 22.6797 6.06976 22.3797C6.20976 21.9897 6.00976 21.5597 5.61976 21.4197L4.63976 21.0597L5.33976 19.1397C5.51976 19.1697 5.69976 19.1897 5.86976 19.1897C6.47976 19.1897 7.08976 19.0397 7.63976 18.7397C8.57976 18.2297 9.24976 17.3497 9.48976 16.2997L10.0298 13.8997L10.6698 11.0897C10.8598 10.2197 10.3998 9.36966 9.55976 9.04966L9.57976 9.05966ZM6.45976 9.75966C6.51976 9.63966 6.65976 9.58966 6.77976 9.63966L9.05976 10.4697C9.18976 10.5197 9.24976 10.6397 9.22976 10.7797L8.71976 12.9997H4.72976L6.45976 9.76966V9.75966Z" fill="white"/> </g> <defs> <clipPath id="clip0_4482_14008"> <rect width="24" height="24" fill="white"/> </clipPath> </defs> </svg>
