<svg width="24" height="24" viewBox="0 0 24 24" fill="none" xmlns="http://www.w3.org/2000/svg"> <g clip-path="url(#clip0_4482_1315)"> <path d="M12 2C6.5 2 2 6.5 2 12C2 17.5 6.5 22 12 22C17.5 22 22 17.5 22 12C22 6.5 17.5 2 12 2ZM15.78 9.51L14.7 13.91C14.6 14.3 14.2999 14.6 13.9199 14.69L9.52002 15.77C8.74002 15.96 8.02997 15.26 8.21997 14.47L9.30005 10.07C9.40005 9.68 9.70008 9.38 10.0801 9.29L14.48 8.21C15.27 8.02 15.98 8.73 15.78 9.51Z" fill="white"/> </g> <defs> <clipPath id="clip0_4482_1315"> <rect width="24" height="24" fill="white"/> </clipPath> </defs> </svg>
