<svg width="24" height="24" viewBox="0 0 24 24" fill="none" xmlns="http://www.w3.org/2000/svg"> <g clip-path="url(#clip0_4482_1283)"> <path d="M12 2C6.5 2 2 6.5 2 12C2 17.5 6.5 22 12 22C17.5 22 22 17.5 22 12C22 6.5 17.5 2 12 2ZM12.64 16.69C12.44 16.89 12.18 16.99 11.92 16.99C11.67 16.99 11.41 16.89 11.22 16.7C10.83 16.31 10.82 15.69 11.21 15.3L11.23 15.28C11.62 14.89 12.25 14.89 12.64 15.28C13.03 15.67 13.03 16.29 12.64 16.69ZM15.5699 13.83C15.4199 13.98 15.22 14.06 15.03 14.06C14.84 14.06 14.66 13.99 14.51 13.85C13 12.41 11.03 12.41 9.51001 13.85C9.21001 14.13 8.72995 14.12 8.44995 13.82C8.15995 13.52 8.17998 13.04 8.47998 12.76C10.6 10.75 13.44 10.75 15.55 12.76C15.85 13.06 15.8599 13.53 15.5699 13.83ZM18.5601 11.09C18.2701 11.38 17.79 11.39 17.5 11.1C16.81 10.42 16.04 9.88 15.21 9.49C13.14 8.5 10.86 8.5 8.79004 9.49C7.99004 9.86 7.22 10.4 6.5 11.11C6.35 11.25 6.16998 11.32 5.97998 11.32C5.77998 11.32 5.58994 11.24 5.43994 11.09C5.14994 10.79 5.15995 10.32 5.44995 10.03C6.28995 9.21 7.20002 8.57 8.15002 8.13C10.63 6.95 13.36 6.95 15.85 8.13C16.83 8.59 17.74 9.23 18.55 10.03C18.84 10.32 18.8501 10.8 18.5601 11.09Z" fill="white"/> </g> <defs> <clipPath id="clip0_4482_1283"> <rect width="24" height="24" fill="white"/> </clipPath> </defs> </svg>
