<svg width="24" height="24" viewBox="0 0 24 24" fill="none" xmlns="http://www.w3.org/2000/svg"> <g clip-path="url(#clip0_4482_11076)"> <path d="M7.98047 13.8599L10.4905 16.3699C11.0405 16.9199 12.0205 16.9199 12.5705 16.3699L15.0805 13.8599H7.98047Z" fill="white"/> <path d="M16.59 12.3599L16.8 12.1499L11.85 7.18994L10.61 8.42994L11.42 9.23994C11.71 9.52994 11.71 10.0099 11.42 10.2999C11.27 10.4499 11.08 10.5199 10.89 10.5199C10.7 10.5199 10.51 10.4499 10.36 10.2999L9.54996 9.48994L7.62996 11.4199C7.37996 11.6699 7.23996 12.0099 7.20996 12.3599H16.59Z" fill="white"/> <path d="M12 2C6.48 2 2 6.48 2 12C2 17.52 6.48 22 12 22C17.52 22 22 17.52 22 12C22 6.48 17.52 2 12 2ZM17.87 13.2L17.43 13.64L13.64 17.43C13.09 17.98 12.32 18.3 11.54 18.3C10.76 18.3 10 17.99 9.44 17.43L6.57 14.56C6.25 14.24 6.02 13.84 5.87 13.42C5.85 13.38 5.85 13.34 5.83 13.3C5.75 13.03 5.69 12.74 5.69 12.45C5.69 11.67 6.01 10.9 6.56 10.35L8.49 8.42L7.58 7.51C7.29 7.22 7.29 6.74 7.58 6.45C7.87 6.16 8.35 6.16 8.64 6.45L9.55 7.36L10.8 6.11C11.37 5.55 12.34 5.55 12.91 6.11L17.87 11.07C18.15 11.35 18.31 11.72 18.31 12.12C18.31 12.52 18.15 12.89 17.87 13.17V13.2Z" fill="white"/> </g> <defs> <clipPath id="clip0_4482_11076"> <rect width="24" height="24" fill="white"/> </clipPath> </defs> </svg>
