<svg width="24" height="24" viewBox="0 0 24 24" fill="none" xmlns="http://www.w3.org/2000/svg"> <g clip-path="url(#clip0_4482_1752)"> <path d="M16 2H8C5.25 2 3 4.25 3 7V19.9C3 20.82 4.01005 21.39 4.80005 20.92L7.14001 19.52C7.66001 19.21 8.32006 19.24 8.81006 19.61L11.1 21.33C11.63 21.73 12.37 21.73 12.9 21.33L15.1899 19.61C15.6799 19.24 16.34 19.21 16.86 19.52L19.2 20.92C19.99 21.39 21 20.82 21 19.9V7C21 4.25 18.75 2 16 2ZM14.5 14.75H9.5C9.09 14.75 8.75 14.41 8.75 14C8.75 13.59 9.09 13.25 9.5 13.25H14.5C14.91 13.25 15.25 13.59 15.25 14C15.25 14.41 14.91 14.75 14.5 14.75ZM15.03 8.53L11.7 11.86C11.55 12.01 11.36 12.08 11.17 12.08C10.98 12.08 10.79 12.01 10.64 11.86L8.96997 10.2C8.67997 9.91 8.67997 9.43 8.96997 9.14C9.25997 8.85 9.74003 8.84 10.03 9.14L11.17 10.27L13.97 7.47C14.26 7.18 14.74 7.18 15.03 7.47C15.32 7.76 15.32 8.24 15.03 8.53Z" fill="white"/> </g> <defs> <clipPath id="clip0_4482_1752"> <rect width="24" height="24" fill="white"/> </clipPath> </defs> </svg>
