<svg width="24" height="24" viewBox="0 0 24 24" fill="none" xmlns="http://www.w3.org/2000/svg"> <g clip-path="url(#clip0_4482_1416)"> <path d="M8.5 12H5C3.62 12 2.5 10.88 2.5 9.5V4.5C2.5 3.12 3.62 2 5 2H8.5C9.88 2 11 3.12 11 4.5V9.5C11 10.88 9.88 12 8.5 12Z" fill="white"/> <path d="M19.5 22.35H15.7C14.32 22.35 13.2 21.23 13.2 19.85V14.5C13.2 13.12 14.32 12 15.7 12H19.5C20.88 12 22 13.12 22 14.5V19.85C22 21.23 20.88 22.35 19.5 22.35Z" fill="white"/> <path d="M8.35999 22.7499C4.43999 22.7499 1.25 19.5599 1.25 15.6399C1.25 15.2299 1.59 14.8899 2 14.8899C2.41 14.8899 2.75 15.2299 2.75 15.6399C2.75 18.2399 4.53005 20.4299 6.93005 21.0599L6.77002 20.7899C6.56002 20.4299 6.67003 19.9699 7.03003 19.7599C7.39003 19.5499 7.85006 19.6599 8.06006 20.0199L9.01001 21.6099C9.15001 21.8399 9.15002 22.1299 9.02002 22.3599C8.89002 22.5899 8.62999 22.7499 8.35999 22.7499Z" fill="white"/> <path d="M22.0001 9.11001C21.5901 9.11001 21.2501 8.77001 21.2501 8.36001C21.2501 5.76001 19.47 3.57001 17.07 2.94001L17.2301 3.21001C17.4401 3.57001 17.3301 4.03001 16.9701 4.24001C16.6201 4.45001 16.15 4.34001 15.94 3.98001L14.9901 2.39001C14.8501 2.16001 14.8501 1.87001 14.9801 1.64001C15.1101 1.41001 15.3601 1.26001 15.6301 1.26001C19.5501 1.26001 22.7401 4.45001 22.7401 8.37001C22.7501 8.77001 22.4101 9.11001 22.0001 9.11001Z" fill="white"/> </g> <defs> <clipPath id="clip0_4482_1416"> <rect width="24" height="24" fill="white"/> </clipPath> </defs> </svg>
