<svg width="24" height="24" viewBox="0 0 24 24" fill="none" xmlns="http://www.w3.org/2000/svg"> <g clip-path="url(#clip0_2085_388756)"> <path d="M4.59008 20.6399C4.45008 20.6399 4.30008 20.5999 4.18008 20.5099L2.60008 19.4599C2.38008 19.3099 2.25008 19.0599 2.27008 18.7999C2.29008 18.5399 2.43008 18.2999 2.66008 18.1699C5.75008 16.5099 6.69008 15.0399 7.78008 13.3499C8.19008 12.7099 8.61008 12.0499 9.17008 11.3599C9.43008 11.0399 9.90008 10.9799 10.2201 11.2399C10.5401 11.4999 10.6001 11.9699 10.3401 12.2899C9.83008 12.9299 9.43008 13.5499 9.04008 14.1599C8.06008 15.6799 7.05008 17.2499 4.43008 18.8799L5.00008 19.2599C5.34008 19.4899 5.44008 19.9499 5.21008 20.2999C5.07008 20.5199 4.83008 20.6299 4.58008 20.6299L4.59008 20.6399Z" fill="white"/> <path d="M3.5399 22.4303C3.3999 22.4303 3.2499 22.3903 3.1199 22.3003L1.5399 21.2503C1.1999 21.0203 1.0999 20.5503 1.3299 20.2103C1.5599 19.8703 2.0199 19.7703 2.3699 20.0003L3.9499 21.0503C4.2899 21.2803 4.3899 21.7503 4.1599 22.0903C4.0199 22.3103 3.7799 22.4203 3.5399 22.4203V22.4303Z" fill="white"/> <path d="M12.4899 22.75H10.3799C9.96988 22.75 9.62988 22.41 9.62988 22C9.62988 21.59 9.96988 21.25 10.3799 21.25H12.4899C12.8999 21.25 13.2399 21.59 13.2399 22C13.2399 22.41 12.8999 22.75 12.4899 22.75Z" fill="white"/> <path d="M21.1999 22.2701C21.0899 22.2701 20.9699 22.2601 20.8599 22.2401C20.3599 22.1401 19.9299 21.8401 19.6599 21.4101L14.4699 12.9201C14.2499 12.5701 14.3699 12.1101 14.7199 11.8901C15.0799 11.6701 15.5399 11.7901 15.7499 12.1401L20.9399 20.6301C20.9999 20.7301 21.0899 20.7601 21.1399 20.7701C21.1899 20.7701 21.2799 20.7901 21.3799 20.7201L21.5899 20.5701C21.9199 20.3201 22.3899 20.3901 22.6399 20.7301C22.8899 21.0601 22.8199 21.5301 22.4799 21.7801L22.2799 21.9301C21.9699 22.1601 21.5899 22.2901 21.1999 22.2901V22.2701Z" fill="white"/> <path d="M14.9701 7.56991C12.2401 9.14991 10.7601 10.5399 9.75015 11.8299C9.45015 11.5599 9.13015 11.2799 8.80015 10.9499C6.70015 8.83991 10.9101 6.20991 12.4901 5.67991C13.2801 5.41991 14.1901 6.06991 14.9701 7.56991Z" fill="white"/> <path d="M9.75011 12.5798C9.57011 12.5798 9.39011 12.5098 9.25011 12.3898L9.10011 12.2498C8.84011 12.0098 8.56011 11.7698 8.28011 11.4798C7.42011 10.6198 7.41011 9.71977 7.55011 9.11977C8.05011 6.98977 11.1801 5.32977 12.2601 4.96977C12.8301 4.77977 14.2901 4.62977 15.6401 7.21977C15.8201 7.57977 15.7001 8.00977 15.3501 8.20977C12.3701 9.92977 11.0701 11.3598 10.3501 12.2798C10.2201 12.4398 10.0301 12.5498 9.82011 12.5598C9.80011 12.5598 9.78011 12.5598 9.75011 12.5598V12.5798ZM12.8301 6.37977C12.8301 6.37977 12.7601 6.37977 12.7301 6.39977C11.5901 6.77977 9.30011 8.23977 9.01011 9.46977C8.95011 9.70977 8.94011 10.0298 9.34011 10.4298C9.46011 10.5498 9.57011 10.6498 9.68011 10.7598C10.7701 9.52977 12.1501 8.41977 13.9501 7.31977C13.5101 6.66977 13.1001 6.38977 12.8301 6.38977V6.37977Z" fill="white"/> <path d="M12.4901 20.6397H10.3801C10.1401 20.6397 9.9201 20.5297 9.7801 20.3397C9.6401 20.1497 9.6001 19.8997 9.6701 19.6697C11.3501 14.2397 10.6101 13.5897 9.2601 12.3897C8.9501 12.1197 8.9201 11.6397 9.2001 11.3297C9.4701 11.0197 9.9501 10.9897 10.2601 11.2697C12.1001 12.8997 12.8001 14.1997 11.4001 19.1397H12.5001C12.9101 19.1397 13.2501 19.4797 13.2501 19.8897C13.2501 20.2997 12.9101 20.6397 12.5001 20.6397H12.4901Z" fill="white"/> <path d="M16.7 15.3796C16.31 15.3796 15.99 15.0796 15.95 14.6896C15.72 11.8996 15.14 9.48961 14.3 7.91961C14.11 7.54961 14.25 7.09961 14.61 6.90961C14.98 6.70961 15.43 6.85961 15.62 7.21961C16.27 8.45961 17.12 10.7296 17.43 14.5696C17.46 14.9796 17.16 15.3396 16.74 15.3796C16.72 15.3796 16.7 15.3796 16.68 15.3796H16.7Z" fill="white"/> <path d="M20.91 4.11C20.91 5.27 19.9699 6.21 18.7999 6.21C17.6299 6.21 16.7 5.27 16.7 4.11C16.7 2.95 17.6399 2 18.7999 2C19.9599 2 20.91 2.94 20.91 4.11Z" fill="white"/> <path d="M18.8 6.96C17.23 6.96 15.95 5.68 15.95 4.11C15.95 2.54 17.23 1.25 18.8 1.25C20.37 1.25 21.66 2.53 21.66 4.11C21.66 5.69 20.38 6.96 18.8 6.96ZM18.8 2.75C18.06 2.75 17.45 3.36 17.45 4.11C17.45 4.86 18.06 5.46 18.8 5.46C19.54 5.46 20.16 4.85 20.16 4.11C20.16 3.37 19.55 2.75 18.8 2.75Z" fill="white"/> </g> <defs> <clipPath id="clip0_2085_388756"> <rect width="24" height="24" fill="white"/> </clipPath> </defs> </svg>
