<svg width="24" height="24" viewBox="0 0 24 24" fill="none" xmlns="http://www.w3.org/2000/svg"> <g clip-path="url(#clip0_4482_13807)"> <path d="M12.9506 8.94C13.6106 8.94 14.1106 9.44 14.1106 10.09C14.1106 10.5 14.4506 10.84 14.8606 10.84C15.2706 10.84 15.6106 10.5 15.6106 10.09C15.6106 8.6 14.4406 7.44 12.9506 7.44H12.7506V7C12.7506 6.59 12.4106 6.25 12.0006 6.25C11.5906 6.25 11.2506 6.59 11.2506 7V7.44H10.8106C9.45063 7.44 8.39062 8.5 8.39062 9.86C8.39062 11.12 8.96062 11.82 10.1506 12.02L11.2506 12.41V15.06H11.0506C10.3906 15.06 9.89062 14.56 9.89062 13.9C9.89062 13.49 9.55062 13.15 9.14062 13.15C8.73063 13.15 8.39062 13.49 8.39062 13.9C8.39062 15.39 9.56062 16.56 11.0506 16.56H11.2506V17C11.2506 17.41 11.5906 17.75 12.0006 17.75C12.4106 17.75 12.7506 17.41 12.7506 17V16.56H13.0706C14.3806 16.56 15.4906 15.45 15.4906 14.14C15.4906 12.58 14.6106 12.04 13.9206 11.77L12.7506 11.35V8.94H12.9506ZM11.2506 10.82L10.5806 10.58C10.5806 10.58 10.4806 10.55 10.4306 10.54C9.98062 10.48 9.88062 10.44 9.88062 9.85C9.88062 9.31 10.2606 8.93 10.8006 8.93H11.2406V10.81L11.2506 10.82ZM13.3906 13.18C13.7706 13.33 13.9906 13.45 13.9906 14.15C13.9906 14.67 13.5106 15.07 13.0706 15.07H12.7506V12.95L13.3906 13.18Z" fill="white"/> <path d="M2.90042 13.6293C2.49042 11.3993 2.95042 9.0693 4.14042 7.1493C4.39042 7.2393 4.65042 7.2893 4.91042 7.2893C5.53042 7.2893 6.13042 7.0493 6.59043 6.5893C7.27042 5.9093 7.48042 4.8893 7.11042 3.9993C6.74043 3.1093 5.88042 2.5293 4.92042 2.5293C4.30043 2.5293 3.68042 2.7793 3.24042 3.2193C2.79042 3.6693 2.54042 4.2593 2.54042 4.8993C2.54042 5.3893 2.69042 5.8493 2.95042 6.2393C1.50042 8.4893 0.940425 11.2593 1.43042 13.8993C1.50042 14.2593 1.81042 14.5093 2.17042 14.5093C2.21042 14.5093 2.26042 14.5093 2.31042 14.4993C2.72042 14.4193 2.99042 14.0293 2.91042 13.6293H2.90042Z" fill="white"/> <path d="M22.5702 10.0994C22.5002 9.6894 22.1102 9.4194 21.7002 9.4994C21.2902 9.5794 21.0202 9.9694 21.1002 10.3694C21.5102 12.5994 21.0502 14.9394 19.8502 16.8494C19.0002 16.5594 18.0602 16.7594 17.4102 17.3994C16.7302 18.0794 16.5302 19.0994 16.8902 19.9894C17.2602 20.8794 18.1202 21.4594 19.0802 21.4594C19.7002 21.4594 20.3102 21.2094 20.7502 20.7694C21.1902 20.3294 21.4502 19.7194 21.4502 19.0894C21.4502 18.5994 21.3002 18.1394 21.0402 17.7494C22.4902 15.4994 23.0502 12.7294 22.5602 10.0894L22.5702 10.0994Z" fill="white"/> <path d="M13.6503 21.0997C11.4103 21.5097 9.07027 21.0497 7.14027 19.8497C7.22027 19.6097 7.27027 19.3597 7.27027 19.0897C7.27027 17.7797 6.20027 16.7197 4.90027 16.7197C3.59027 16.7197 2.53027 17.7797 2.53027 19.0897C2.53027 19.7097 2.78027 20.3297 3.23027 20.7697C3.67027 21.2097 4.28027 21.4597 4.91027 21.4597C5.40027 21.4597 5.86027 21.3097 6.24027 21.0497C7.97027 22.1597 9.94027 22.7497 11.9703 22.7497C12.6203 22.7497 13.2703 22.6897 13.9303 22.5697C14.3403 22.4897 14.6103 22.0997 14.5303 21.6997C14.4603 21.2897 14.0603 21.0197 13.6603 21.0997H13.6503Z" fill="white"/> <path d="M19.0901 7.26962C20.4001 7.26962 21.4601 6.20962 21.4601 4.89962C21.4601 4.27962 21.2101 3.65962 20.7601 3.21962C20.3101 2.76962 19.7201 2.52962 19.0801 2.52962C18.5901 2.52962 18.1301 2.67962 17.7501 2.93962C15.4601 1.46962 12.7501 0.919624 10.0701 1.41962C9.6601 1.49962 9.3901 1.88962 9.4701 2.28962C9.5401 2.69962 9.9401 2.96962 10.3401 2.88962C12.6101 2.46962 14.9001 2.91962 16.8501 4.13962C16.7701 4.37962 16.7201 4.62962 16.7201 4.89962C16.7201 6.20962 17.7901 7.26962 19.0901 7.26962Z" fill="white"/> </g> <defs> <clipPath id="clip0_4482_13807"> <rect width="24" height="24" fill="white"/> </clipPath> </defs> </svg>
