<svg width="24" height="24" viewBox="0 0 24 24" fill="none" xmlns="http://www.w3.org/2000/svg"> <g clip-path="url(#clip0_4482_1612)"> <path d="M17.47 9.46999C15.91 0.0999932 2.38008 3.65999 5.59008 12.59H5.54003C0.860029 12.92 0.860029 19.73 5.54003 20.06H16.6301C17.9801 20.07 19.2801 19.57 20.2701 18.66C23.5601 15.79 21.8 10.02 17.47 9.46999ZM13.7701 13.19L12.24 14.92C12.11 15.05 11.9401 15.16 11.7601 15.21L10.42 15.51C10.13 15.57 9.90003 15.39 9.92003 15.09L10.0001 13.72C10.0101 13.53 10.08 13.34 10.22 13.2L11.7501 11.47C12.2201 10.91 13.0701 10.84 13.6301 11.32C14.1801 11.79 14.2501 12.63 13.7701 13.19Z" fill="white"/> </g> <defs> <clipPath id="clip0_4482_1612"> <rect width="24" height="24" fill="white"/> </clipPath> </defs> </svg>
