<svg width="24" height="24" viewBox="0 0 24 24" fill="none" xmlns="http://www.w3.org/2000/svg"> <g clip-path="url(#clip0_4482_4452)"> <path d="M9 12C9 10.6 9.96 9.42 11.26 9.1C11.25 9.07 11.25 9.03 11.25 9V4.99C11.25 4.44 10.81 4 10.26 4H6C3.79 4 2 5.79 2 8V8.01C2 8.56 2.44 9 2.99 9H3.01C4.11 9 5 9.9 5 11V13.01C5 14.11 4.1 15.01 3 15.01H2.99C2.44 15.01 2 15.45 2 16C2 18.21 3.79 20 6 20H10.26C10.81 20 11.25 19.56 11.25 19.01V15C11.25 14.97 11.25 14.93 11.26 14.9C9.96 14.58 9 13.4 9 12Z" fill="white"/> <path d="M20.99 9H21.01C21.56 9 22 8.55 22 8.01V8C22 5.79 20.21 4 18 4H13.74C13.19 4 12.75 4.44 12.75 4.99V9C12.75 9.03 12.75 9.07 12.74 9.1C14.04 9.42 15 10.6 15 12C15 13.4 14.04 14.58 12.74 14.9C12.75 14.93 12.75 14.97 12.75 15V19.01C12.75 19.56 13.19 20 13.74 20H18C20.21 20 22 18.21 22 16C22 15.45 21.56 15.01 21.01 15.01H21C19.9 15.01 19 14.11 19 13.01V11C19 9.9 19.89 9 20.99 9Z" fill="white"/> </g> <defs> <clipPath id="clip0_4482_4452"> <rect width="24" height="24" fill="white"/> </clipPath> </defs> </svg>
