<svg width="24" height="24" viewBox="0 0 24 24" fill="none" xmlns="http://www.w3.org/2000/svg"> <g clip-path="url(#clip0_4482_4506)"> <path d="M22 14.2305C21.59 14.2305 21.25 13.8905 21.25 13.4805C21.25 8.38047 17.1 4.23047 12 4.23047C6.9 4.23047 2.75 8.38047 2.75 13.4805C2.75 13.8905 2.41 14.2305 2 14.2305C1.59 14.2305 1.25 13.8905 1.25 13.4805C1.25 7.55047 6.07 2.73047 12 2.73047C17.93 2.73047 22.75 7.55047 22.75 13.4805C22.75 13.8905 22.41 14.2305 22 14.2305Z" fill="white"/> <path d="M12 8.23047C11.59 8.23047 11.25 7.89047 11.25 7.48047V6.48047C11.25 6.07047 11.59 5.73047 12 5.73047C12.41 5.73047 12.75 6.07047 12.75 6.48047V7.48047C12.75 7.89047 12.41 8.23047 12 8.23047Z" fill="white"/> <path d="M7.48997 9.94042C7.24997 9.94042 7.01997 9.83041 6.87997 9.62041L6.30997 8.80042C6.06997 8.46042 6.14997 7.99041 6.48997 7.76041C6.82997 7.52041 7.29998 7.60042 7.52998 7.94042L8.09998 8.76041C8.33998 9.10041 8.25997 9.57042 7.91998 9.80042C7.78998 9.90042 7.63997 9.94042 7.48997 9.94042Z" fill="white"/> <path d="M16.5101 9.94042C16.3601 9.94042 16.2101 9.90042 16.0801 9.80042C15.7401 9.56042 15.6601 9.09041 15.9001 8.76041L16.4701 7.94042C16.7101 7.60042 17.1801 7.52041 17.5101 7.76041C17.8501 8.00041 17.9301 8.47042 17.6901 8.80042L17.1201 9.62041C16.9801 9.83041 16.7501 9.94042 16.5101 9.94042Z" fill="white"/> <path d="M11.0699 13.6298C10.8399 13.6998 10.6199 13.8098 10.3999 13.9398C10.1899 14.0798 9.99992 14.2398 9.82992 14.4098C9.79992 14.3898 9.77992 14.3598 9.76992 14.3398L8.16992 11.7998C7.94992 11.4498 8.04992 10.9898 8.39992 10.7698C8.74992 10.5498 9.20992 10.6498 9.43992 10.9998L11.0299 13.5398C11.0499 13.5698 11.0699 13.5998 11.0699 13.6298Z" fill="white"/> <path d="M14.5399 14.88C13.7899 13.69 12.3399 13.21 11.0699 13.63C10.8399 13.7 10.6199 13.81 10.3999 13.94C10.1899 14.08 9.99995 14.24 9.82995 14.41C8.89995 15.39 8.70994 16.89 9.45994 18.08C10.3499 19.48 12.1999 19.9 13.5999 19.02C14.9999 18.13 15.4199 16.28 14.5399 14.88ZM11.9999 17.48C11.4499 17.48 10.9999 17.03 10.9999 16.48C10.9999 15.93 11.4399 15.48 11.9999 15.48C12.5499 15.48 12.9999 15.93 12.9999 16.48C12.9999 17.03 12.5599 17.48 11.9999 17.48Z" fill="white"/> <path d="M4.31001 19.1699H2.01001C1.60001 19.1699 1.26001 18.8299 1.26001 18.4199C1.26001 18.0099 1.60001 17.6699 2.01001 17.6699H4.31001C4.72001 17.6699 5.06001 18.0099 5.06001 18.4199C5.06001 18.8299 4.73001 19.1699 4.31001 19.1699Z" fill="white"/> <path d="M5.00001 21.2701H2.51001C1.82001 21.2701 1.26001 20.7101 1.26001 20.0201V16.8301C1.26001 16.1401 1.82001 15.5801 2.51001 15.5801H5.00001C5.41001 15.5801 5.75001 15.9201 5.75001 16.3301C5.75001 16.7401 5.41001 17.0801 5.00001 17.0801H2.76001V19.7701H5.00001C5.41001 19.7701 5.75001 20.1101 5.75001 20.5201C5.75001 20.9301 5.41001 21.2701 5.00001 21.2701Z" fill="white"/> <path d="M21.31 19.1699H19.01C18.6 19.1699 18.26 18.8299 18.26 18.4199C18.26 18.0099 18.6 17.6699 19.01 17.6699H21.31C21.72 17.6699 22.06 18.0099 22.06 18.4199C22.06 18.8299 21.73 19.1699 21.31 19.1699Z" fill="white"/> <path d="M19.01 21.2701C18.6 21.2701 18.26 20.9301 18.26 20.5201V16.8301C18.26 16.1401 18.82 15.5801 19.51 15.5801H22C22.41 15.5801 22.75 15.9201 22.75 16.3301C22.75 16.7401 22.41 17.0801 22 17.0801H19.76V20.5201C19.76 20.9301 19.42 21.2701 19.01 21.2701Z" fill="white"/> </g> <defs> <clipPath id="clip0_4482_4506"> <rect width="24" height="24" fill="white"/> </clipPath> </defs> </svg>
