<svg width="24" height="24" viewBox="0 0 24 24" fill="none" xmlns="http://www.w3.org/2000/svg"> <g clip-path="url(#clip0_2085_393676)"> <path d="M6.38012 6.40043V17.6004L4.92012 18.8604C4.92012 18.8604 4.89012 18.8304 4.87012 18.8104V5.19043L6.38012 6.40043Z" fill="white"/> <path d="M16.9401 3L15.7301 4.5H8.27006L7.06006 3H16.9401Z" fill="white"/> <path d="M19.1201 5.19043V18.8104L17.6201 17.6004V6.40043L19.1201 5.19043Z" fill="white"/> <path d="M16.98 20.96L16.94 21H7.06002C7.06002 21 7.03002 20.97 7.02002 20.96L8.27002 19.5H15.73L16.98 20.96Z" fill="white"/> <path d="M15.7301 4.5H8.27013C7.53013 5.24 7.12013 5.66 6.38013 6.4V17.6C7.12013 18.34 7.53013 18.76 8.27013 19.5H15.7301C16.4701 18.76 16.8801 18.34 17.6201 17.6V6.4C16.8801 5.66 16.4701 5.24 15.7301 4.5ZM15.6601 9.41L12.9066 12.1636C12.8128 12.2573 12.7601 12.3845 12.7601 12.5171V17C12.7601 17.41 12.4201 17.75 12.0101 17.75C11.6001 17.75 11.2601 17.41 11.2601 17V12.5171C11.2601 12.3845 11.2074 12.2573 11.1137 12.1636L8.35013 9.4C8.06013 9.11 8.06013 8.63 8.35013 8.34C8.64013 8.05 9.12013 8.05 9.41013 8.34L10.4066 9.33645C10.7216 9.65143 11.2601 9.42835 11.2601 8.98289V7C11.2601 6.59 11.6001 6.25 12.0101 6.25C12.4201 6.25 12.7601 6.59 12.7601 7V8.98289C12.7601 9.42835 13.2987 9.65143 13.6137 9.33645L14.6001 8.35C14.8901 8.06 15.3701 8.06 15.6601 8.35C15.9501 8.64 15.9501 9.12 15.6601 9.41Z" fill="white"/> <path d="M16.3201 3.5C17.1601 4.34 17.7801 4.96 18.6201 5.81V18.19C17.7701 19.04 17.1601 19.65 16.3201 20.5H7.68012L5.37012 18.19V5.81L7.68012 3.5H16.3201ZM17.2333 2.29321C17.0458 2.10567 16.7911 2 16.5259 2H7.47433C7.20911 2 6.95476 2.10536 6.76722 2.29289L4.16301 4.89711C3.97547 5.08464 3.87012 5.339 3.87012 5.60421V18.3968C3.87012 18.662 3.97571 18.9166 4.16326 19.1041C5.11678 20.0575 5.82081 20.7608 6.76699 21.7069C6.95454 21.8944 7.20911 22 7.47433 22H16.5259C16.7911 22 17.0458 21.8944 17.2333 21.7068C18.1912 20.7489 18.8638 20.0756 19.8297 19.1026C20.0156 18.9154 20.1201 18.662 20.1201 18.3982V5.60186C20.1201 5.33804 20.0156 5.08456 19.8297 4.89733C18.8581 3.91869 18.2043 3.26422 17.2333 2.29321Z" fill="white"/> </g> <defs> <clipPath id="clip0_2085_393676"> <rect width="24" height="24" fill="white"/> </clipPath> </defs> </svg>
