<svg width="24" height="24" viewBox="0 0 24 24" fill="none" xmlns="http://www.w3.org/2000/svg"> <g clip-path="url(#clip0_2085_393881)"> <path d="M11.8799 2C6.34988 2 1.87988 6.48 1.87988 12C1.87988 17.52 6.35988 22 11.8799 22C17.3999 22 21.8799 17.52 21.8799 12C21.8799 6.48 17.3999 2 11.8799 2ZM16.2199 11.24C16.2199 11.24 16.2499 11.33 16.2499 11.38C16.2499 14 14.1199 16.13 11.4999 16.13H10.4999C10.4999 16.13 10.4099 16.11 10.3599 16.1C10.0699 16.85 9.34988 17.38 8.49988 17.38C7.39988 17.38 6.49988 16.48 6.49988 15.38C6.49988 14.53 7.02988 13.81 7.77988 13.52C7.77988 13.47 7.74988 13.43 7.74988 13.38V7.38C7.74988 6.97 8.08988 6.63 8.49988 6.63C8.90988 6.63 9.24988 6.97 9.24988 7.38V13.38C9.24988 13.38 9.22988 13.47 9.21988 13.52C9.73988 13.72 10.1599 14.14 10.3599 14.66C10.4099 14.66 10.4499 14.63 10.4999 14.63H11.4999C13.2899 14.63 14.7499 13.17 14.7499 11.38C14.7499 11.33 14.7699 11.29 14.7799 11.24C14.0299 10.95 13.4999 10.23 13.4999 9.38C13.4999 8.28 14.3999 7.38 15.4999 7.38C16.5999 7.38 17.4999 8.28 17.4999 9.38C17.4999 10.23 16.9699 10.95 16.2199 11.24Z" fill="white"/> </g> <defs> <clipPath id="clip0_2085_393881"> <rect width="24" height="24" fill="white"/> </clipPath> </defs> </svg>
