<svg width="24" height="24" viewBox="0 0 24 24" fill="none" xmlns="http://www.w3.org/2000/svg"> <g clip-path="url(#clip0_4482_11566)"> <path d="M17 1.25H7C3.83 1.25 1.25 3.83 1.25 7V17C1.25 20.17 3.83 22.75 7 22.75H8.5C8.5 22.75 8.57 22.73 8.61 22.73C8.63 22.73 8.65 22.74 8.67 22.74C9.08 22.74 9.42 22.4 9.42 21.99V20.83C9.42 20.83 9.42 19.23 10.27 17.92C10.42 17.7 10.43 17.42 10.31 17.18C10.19 16.94 9.96 16.78 9.69 16.77C7.81 16.64 6.34 14.92 6.34 12.86C6.34 12.19 6.59 11.53 7.07 10.94C7.17 10.81 7.23 10.65 7.24 10.49L7.37 8.3L9.68 9.13C9.82 9.18 9.97 9.19 10.11 9.15C11.35 8.84 12.7 8.85 13.88 9.15C14.03 9.19 14.18 9.18 14.32 9.13L16.7 8.34L16.76 10.49C16.76 10.66 16.82 10.82 16.93 10.94C17.42 11.54 17.66 12.18 17.66 12.86C17.66 14.92 16.19 16.64 14.31 16.77C14.05 16.79 13.81 16.95 13.69 17.18C13.57 17.42 13.59 17.7 13.73 17.92C14.58 19.22 14.58 20.81 14.58 20.83V21.98C14.58 22.39 14.92 22.73 15.33 22.73H17C20.17 22.73 22.75 20.15 22.75 16.99V7C22.75 3.83 20.17 1.25 17 1.25ZM21.25 17.01C21.25 19.35 19.34 21.25 17 21.25H16.08V20.86C16.08 20.79 16.08 19.48 15.49 18.08C17.61 17.42 19.16 15.32 19.16 12.87C19.16 11.94 18.85 11.02 18.25 10.21L18.2 8.31C18.2 7.81 17.94 7.35 17.52 7.06C17.11 6.78 16.58 6.71 16.12 6.88L14.02 7.63C12.73 7.33 11.3 7.33 9.97 7.63L7.88 6.88C7.41 6.71 6.89 6.77 6.47 7.05C6.06 7.33 5.81 7.8 5.8 8.29L5.75 10.19C5.16 11 4.84 11.91 4.84 12.85C4.84 15.3 6.38 17.39 8.51 18.05C7.92 19.45 7.92 20.76 7.92 20.83V21.24H7C4.66 21.24 2.75 19.33 2.75 16.99V7C2.75 4.66 4.66 2.75 7 2.75H17C19.34 2.75 21.25 4.66 21.25 7V17.01Z" fill="white"/> </g> <defs> <clipPath id="clip0_4482_11566"> <rect width="24" height="24" fill="white"/> </clipPath> </defs> </svg>
