<svg width="24" height="24" viewBox="0 0 24 24" fill="none" xmlns="http://www.w3.org/2000/svg"> <g clip-path="url(#clip0_4482_7460)"> <path d="M21.5303 16.86L15.5803 14.08C14.9403 13.78 14.2503 14.38 14.4603 15.06L16.4603 21.44C16.6903 22.18 17.7403 22.2 18.0003 21.47L18.9103 18.91L21.3603 18.39C22.1203 18.23 22.2403 17.19 21.5303 16.86Z" fill="white"/> <path d="M20 11.75C20.41 11.75 20.75 11.41 20.75 11C20.75 7.89 19.25 4.94 16.73 3.1C15.07 1.89 13.09 1.25 11 1.25C6.87 1.25 3.17 3.86 1.8 7.75C1.43 8.8 1.25 9.89 1.25 11C1.25 13.57 2.23 15.99 4.01 17.81C5.87 19.7 8.35 20.75 11 20.75C11.41 20.75 11.75 20.41 11.75 20C11.75 19.59 11.41 19.25 11 19.25C8.98 19.25 7.07 18.52 5.56 17.2L7.1 15.19C7.29 14.91 7.6 14.75 7.93 14.75C8.87 14.75 9.72 14.23 10.15 13.38L10.28 13.12C10.64 12.42 10.64 11.58 10.28 10.89L9.15 8.63C8.74 7.79 7.87 7.25 6.93 7.25H3.66C5.05 4.52 7.87 2.75 11 2.75C12.46 2.75 13.85 3.14 15.09 3.85L13.3 5.64C12.63 6.31 12.25 7.23 12.25 8.17C12.25 10.14 13.86 11.75 15.83 11.75H20Z" fill="white"/> </g> <defs> <clipPath id="clip0_4482_7460"> <rect width="24" height="24" fill="white"/> </clipPath> </defs> </svg>
