<svg width="24" height="24" viewBox="0 0 24 24" fill="none" xmlns="http://www.w3.org/2000/svg"> <g clip-path="url(#clip0_2085_389391)"> <path d="M10.13 12.3005C9.08996 13.0005 8.03996 13.7005 6.98996 14.3905L5.45996 12.0505L9.31996 9.48047L10.36 11.0305C10.71 11.5505 10.64 11.9605 10.13 12.3005Z" fill="white"/> <path d="M7.12001 20.4798L4.79001 22.0298C4.58001 22.1698 4.29001 22.1098 4.15001 21.8998L3.11001 20.3498C1.41001 17.7898 2.09001 14.3298 4.62001 12.6098C4.64001 12.5998 4.65001 12.5898 4.67001 12.5798L5.46001 12.0498L6.99001 14.3898C5.71001 15.2498 5.36001 16.9998 6.22001 18.2798L7.25001 19.8298C7.39001 20.0398 7.34001 20.3298 7.12001 20.4798Z" fill="white"/> <path d="M19.8201 6.95965L11.4301 12.5596C11.0001 12.8496 10.4201 12.7296 10.1301 12.2996C10.6401 11.9596 10.7101 11.5496 10.3601 11.0296L19.5701 4.88965L20.0801 5.66965C20.3701 6.09965 20.2501 6.67965 19.8201 6.95965Z" fill="white"/> <path d="M8.15994 12.7998C7.83994 13.0198 7.73994 13.4398 7.91994 13.7698C8.32994 13.4998 8.73994 13.2298 9.14994 12.9498C8.90994 12.6498 8.47994 12.5798 8.15994 12.7898V12.7998Z" fill="white"/> <path d="M12 13.4098L11.43 12.5598C11 12.8498 10.42 12.7298 10.13 12.2998C9.79999 12.5198 9.46999 12.7398 9.13999 12.9598C9.15999 12.9798 9.17999 12.9898 9.18999 13.0098C9.36999 13.2898 9.64999 13.4998 9.96999 13.6098C10.36 13.7398 10.57 14.1698 10.44 14.5598C10.33 14.8698 10.04 15.0698 9.72999 15.0698C9.64999 15.0698 9.56999 15.0598 9.48999 15.0298C8.85999 14.8198 8.30999 14.3898 7.94999 13.8398C7.93999 13.8198 7.92999 13.7998 7.91999 13.7698C7.60999 13.9798 7.29999 14.1798 6.98999 14.3898L7.71999 15.4898C8.20999 16.2098 9.18999 16.4098 9.90999 15.9298L11.74 14.7098C12.17 14.4198 12.28 13.8398 12 13.4098Z" fill="white"/> <path d="M21.7501 2.88033L21.2301 2.10033C21.0901 1.89033 20.7901 1.83033 20.5801 1.97033L20.0301 2.34033L20.2001 2.60033C20.4301 2.94033 20.3401 3.41033 19.9901 3.64033C19.8601 3.73033 19.7201 3.77033 19.5701 3.77033C19.3301 3.77033 19.0901 3.65033 18.9501 3.44033L18.7801 3.19033L16.6901 4.58033L13.1901 6.91033L9.31006 9.50033L10.3501 11.0503L19.5601 4.91033L21.6101 3.54033C21.8201 3.40033 21.8801 3.11033 21.7401 2.90033L21.7501 2.88033Z" fill="white"/> <path d="M19.5701 1.64C19.3401 1.3 18.8701 1.2 18.5301 1.43C18.1901 1.66 18.0901 2.13 18.3201 2.47L18.7901 3.17L20.0401 2.34L19.5701 1.64Z" fill="white"/> <path d="M4.65 14.4099C3.94 14.4099 3.24 14.0599 2.83 13.4299C2.51 12.9499 2.39 12.3599 2.51 11.7899C2.63 11.2199 2.96 10.7299 3.44 10.3999C3.78 10.1699 4.25 10.2599 4.48 10.5999C4.71 10.9399 4.62 11.4099 4.28 11.6399C4.12 11.7399 4.02 11.8999 3.98 12.0899C3.94 12.2699 3.98 12.4499 4.08 12.5999C4.28 12.9099 4.69 12.9999 5 12.8199C5.36 12.6099 5.82 12.7299 6.03 13.0899C6.24 13.4499 6.12 13.9099 5.76 14.1199C5.41 14.3199 5.03 14.4199 4.66 14.4199L4.65 14.4099Z" fill="white"/> </g> <defs> <clipPath id="clip0_2085_389391"> <rect width="24" height="24" fill="white"/> </clipPath> </defs> </svg>
