<svg width="24" height="24" viewBox="0 0 24 24" fill="none" xmlns="http://www.w3.org/2000/svg"> <g clip-path="url(#clip0_2085_389411)"> <path d="M21.15 20.1399L17.25 16.2399L17.34 16.1499C17.5 15.9899 17.5 15.7199 17.34 15.5699L15.2614 13.5737C15.1563 13.4728 15.1546 13.3053 15.2576 13.2023L17.09 11.3699C17.22 11.2399 17.25 11.0299 17.17 10.8599L16.1401 8.91969C16.0866 8.81878 16.1052 8.69473 16.1859 8.61394L18.43 6.36988C18.59 6.20988 18.59 5.94988 18.43 5.78988L17.56 4.91988L19 3.47988C19.17 3.30988 19.17 3.03988 19 2.86988L18.45 2.31988C18.28 2.14988 18.01 2.14988 17.84 2.31988L16.4 3.75988L15.53 2.88988C15.37 2.72988 15.11 2.72988 14.95 2.88988L14.9 2.93988C14.9 2.93988 14.81 2.87988 14.76 2.86988L13.85 2.61988C13.45 2.51988 13.04 2.74988 12.93 3.14988C12.82 3.54988 13.06 3.95988 13.46 4.06988L13.71 4.13988L7.34001 10.5099L5.75001 10.0799C5.60001 10.0399 5.44001 10.0799 5.33001 10.1899L3.36001 12.1599C2.56001 12.9599 2.56001 14.2599 3.36001 15.0599L7.42001 19.1199C7.58001 19.2799 7.84001 19.2799 8.00001 19.1199L8.87001 18.2499C9.03001 18.0899 9.03001 17.8299 8.87001 17.6699L8.18426 16.9841C8.08257 16.8824 8.08275 16.7175 8.18466 16.616L10.1813 14.6282C10.2483 14.5614 10.3472 14.5359 10.4372 14.5654C12.4476 15.2255 13.0319 17.0057 14.36 18.4999C14.52 18.6799 14.81 18.6799 14.99 18.5099L15.34 18.1599L19.44 21.8599C19.6 22.0199 19.86 22.0199 20.02 21.8599L21.18 20.6999C21.34 20.5399 21.34 20.2799 21.18 20.1199L21.15 20.1399Z" fill="white"/> </g> <defs> <clipPath id="clip0_2085_389411"> <rect width="24" height="24" fill="white"/> </clipPath> </defs> </svg>
