<svg width="24" height="24" viewBox="0 0 24 24" fill="none" xmlns="http://www.w3.org/2000/svg"> <g clip-path="url(#clip0_4482_15393)"> <path d="M17.75 10.75H16.75V11.75H17.75C18.03 11.75 18.25 11.53 18.25 11.25C18.25 10.97 18.03 10.75 17.75 10.75Z" fill="white"/> <path d="M12 10.75H11.25V13.25H12C12.41 13.25 12.75 12.91 12.75 12.5V11.5C12.75 11.09 12.41 10.75 12 10.75Z" fill="white"/> <path d="M12 2C6.48 2 2 6.48 2 12C2 17.52 6.48 22 12 22C17.52 22 22 17.52 22 12C22 6.48 17.52 2 12 2ZM8.75 14C8.75 14.41 8.41 14.75 8 14.75C7.59 14.75 7.25 14.41 7.25 14V12.75H5.75V14C5.75 14.41 5.41 14.75 5 14.75C4.59 14.75 4.25 14.41 4.25 14V10C4.25 9.59 4.59 9.25 5 9.25C5.41 9.25 5.75 9.59 5.75 10V11.25H7.25V10C7.25 9.59 7.59 9.25 8 9.25C8.41 9.25 8.75 9.59 8.75 10V14ZM14.25 12.5C14.25 13.74 13.24 14.75 12 14.75H10.5C10.09 14.75 9.75 14.41 9.75 14V10C9.75 9.59 10.09 9.25 10.5 9.25H12C13.24 9.25 14.25 10.26 14.25 11.5V12.5ZM19.09 14.62C18.96 14.7 18.82 14.75 18.67 14.75C18.43 14.75 18.19 14.63 18.05 14.42L17.27 13.25H16.75V14C16.75 14.41 16.41 14.75 16 14.75C15.59 14.75 15.25 14.41 15.25 14V10C15.25 9.59 15.59 9.25 16 9.25H17.75C18.85 9.25 19.75 10.15 19.75 11.25C19.75 11.94 19.39 12.56 18.85 12.92L19.3 13.59C19.53 13.93 19.44 14.4 19.09 14.63V14.62Z" fill="white"/> </g> <defs> <clipPath id="clip0_4482_15393"> <rect width="24" height="24" fill="white"/> </clipPath> </defs> </svg>
