<svg width="24" height="24" viewBox="0 0 24 24" fill="none" xmlns="http://www.w3.org/2000/svg"> <g clip-path="url(#clip0_4482_9217)"> <path d="M20.45 6.40994C20.38 6.31994 20.29 6.24994 20.19 6.20994C20.2 6.12994 20.21 6.04994 20.21 5.96994C20.21 5.58994 20.04 5.22994 19.77 4.97994C15.35 1.00994 8.65 1.00994 4.23 4.97994C3.95 5.23994 3.79 5.59994 3.79 5.96994C3.79 6.04994 3.79 6.12994 3.81 6.20994C3.71 6.25994 3.62 6.31994 3.55 6.40994C2.07 8.28994 1.25 10.6399 1.25 13.0399V14.0499C1.25 15.9299 1.67 17.8299 2.47 19.5299L2.87 20.3899C3 20.6599 3.27 20.8199 3.55 20.8199C3.66 20.8199 3.76 20.7999 3.87 20.7499C3.9 20.7399 3.92 20.7099 3.94 20.6999C4.87 21.9099 6.54 22.3599 7.98 21.6799H8.01C9.12 21.1499 9.6 19.8299 9.08 18.7099L7.54 15.3999C7.29 14.8599 6.83 14.4399 6.27 14.2399C5.71 14.0399 5.09 14.0599 4.55 14.3199C3.8 14.6699 3.25 15.2699 2.94 15.9699C2.83 15.3299 2.76 14.6899 2.76 14.0399V13.0299C2.76 10.9999 3.44 9.00994 4.68 7.40994C5.21 7.85994 6 7.86994 6.52 7.38994C8.04 6.05994 9.99 5.32994 12.01 5.32994C14.03 5.32994 15.98 6.05994 17.5 7.38994C18.02 7.86994 18.81 7.86994 19.34 7.40994C20.58 9.00994 21.26 11.0099 21.26 13.0299V14.0399C21.26 14.6799 21.19 15.3299 21.08 15.9699C20.76 15.2699 20.22 14.6699 19.47 14.3199C18.34 13.7899 17 14.2799 16.48 15.4099L14.94 18.7199C14.42 19.8299 14.9 21.1499 16.02 21.6699H16.04C17.48 22.3499 19.15 21.8999 20.08 20.6999C20.11 20.7199 20.12 20.7399 20.15 20.7499C20.25 20.7999 20.36 20.8199 20.47 20.8199C20.75 20.8199 21.02 20.6599 21.15 20.3899L21.55 19.5299C22.34 17.8199 22.77 15.9299 22.77 14.0499V13.0399C22.77 10.6499 21.96 8.28994 20.47 6.40994H20.45Z" fill="white"/> </g> <defs> <clipPath id="clip0_4482_9217"> <rect width="24" height="24" fill="white"/> </clipPath> </defs> </svg>
