<svg width="24" height="24" viewBox="0 0 24 24" fill="none" xmlns="http://www.w3.org/2000/svg"> <g clip-path="url(#clip0_2085_388801)"> <path d="M12.7801 19.1698L7.99006 21.6698C7.68006 21.8698 7.28006 21.8998 6.95006 21.7098C5.72006 20.9898 4.65006 20.0098 3.82006 18.8498C3.40006 18.2598 3.78006 17.4298 4.49006 17.3098L12.0001 16.0498V16.8498C12.0001 17.6998 12.2901 18.5198 12.7801 19.1698Z" fill="white"/> <path d="M12.3001 2.00023C7.00011 1.85023 2.60011 5.80023 2.03011 10.9102C1.96011 11.5102 2.43011 12.0302 3.03011 12.0302H12.0001V16.8502C12.0001 17.7002 12.2901 18.5202 12.7801 19.1702C13.3701 19.9602 14.2701 20.5002 15.3201 20.5602C17.3501 20.6602 19.0201 19.0502 19.0201 17.0502H20.1209C20.4738 17.0502 20.804 16.8659 20.9635 16.5511C21.0472 16.3857 21.1261 16.218 21.2001 16.0502C21.8101 14.6502 22.1101 13.0902 22.0201 11.4502C21.7301 6.33023 17.4201 2.15023 12.3001 2.00023ZM15.5101 18.0502C14.8201 18.0502 14.2601 17.4902 14.2601 16.8002C14.2601 16.1102 14.8201 15.5502 15.5101 15.5502C16.2001 15.5502 16.7601 16.1102 16.7601 16.8002C16.7601 17.4902 16.2001 18.0502 15.5101 18.0502Z" fill="white"/> </g> <defs> <clipPath id="clip0_2085_388801"> <rect width="24" height="24" fill="white"/> </clipPath> </defs> </svg>
