<svg width="24" height="24" viewBox="0 0 24 24" fill="none" xmlns="http://www.w3.org/2000/svg"> <g clip-path="url(#clip0_2085_388466)"> <path d="M22 18.4701C21.59 18.4701 21.25 18.8101 21.25 19.2201C21.25 20.0301 20.59 20.6901 19.78 20.6901H18.02C17.8709 20.6901 17.75 20.5692 17.75 20.4201V18.3801C17.75 18.2309 17.8709 18.1101 18.02 18.1101H18.67C19.59 18.1101 20.33 17.3601 20.33 16.4401V15.0801C20.33 13.4201 19.11 12.0101 17.47 11.7801L17.28 11.7501C14.32 11.3301 12.12 8.83006 12.05 5.86006C12.05 5.81006 12.05 5.75006 12.05 5.70006V3.74006C12.05 3.43006 11.92 3.12006 11.7 2.90006C11.48 2.68006 11.18 2.56006 10.86 2.56006H4.94001C4.62001 2.56006 4.32001 2.68006 4.10001 2.90006C3.88001 3.12006 3.75001 3.43006 3.75001 3.74006V6.19006C3.75001 7.81006 3.55001 9.43006 3.16001 11.0001C2.76001 12.5701 2.57001 14.1901 2.57001 15.8101V16.4401C2.57001 17.3601 3.31001 18.1101 4.23001 18.1101H4.32001C4.46913 18.1101 4.59001 18.2309 4.59001 18.3801V20.4201C4.59001 20.5692 4.46913 20.6901 4.32001 20.6901H2.01001C1.60001 20.6901 1.26001 21.0301 1.26001 21.4401C1.26001 21.8501 1.60001 22.1901 2.01001 22.1901H19.79C21.43 22.1901 22.76 20.8601 22.76 19.2201C22.76 18.8101 22.42 18.4701 22.01 18.4701H22ZM6.08001 18.3801C6.08001 18.2309 6.20089 18.1101 6.35001 18.1101H7.30001C7.61001 18.1101 7.91001 17.9901 8.13001 17.7601C8.36001 17.5401 8.48001 17.2401 8.48001 16.9301C8.48001 16.2701 9.01001 15.7401 9.67001 15.7401H11.06C11.68 15.7401 12.29 15.9901 12.73 16.4401L13.71 17.4201C14.16 17.8601 14.76 18.1101 15.39 18.1101H15.98C16.1291 18.1101 16.25 18.2309 16.25 18.3801V20.4201C16.25 20.5692 16.1291 20.6901 15.98 20.6901H6.35001C6.20089 20.6901 6.08001 20.5692 6.08001 20.4201V18.3801Z" fill="white"/> </g> <defs> <clipPath id="clip0_2085_388466"> <rect width="24" height="24" fill="white"/> </clipPath> </defs> </svg>
