<svg width="24" height="24" viewBox="0 0 24 24" fill="none" xmlns="http://www.w3.org/2000/svg"> <g clip-path="url(#clip0_4482_1678)"> <path d="M23.4299 8.25004L14.3299 1.92004C13.0499 1.03004 11.3899 1.02004 10.0999 1.88004L0.579942 8.24004C0.239942 8.47004 0.139942 8.94004 0.369942 9.28004C0.509942 9.50004 0.749938 9.61004 0.989938 9.61004C1.12994 9.61004 1.27994 9.57004 1.40994 9.48004L3.42994 8.13004V18C3.42994 20.21 5.22994 22 7.42994 22H16.6799C18.8799 22 20.6799 20.21 20.6799 18V8.17004L22.5599 9.48004C22.8999 9.72004 23.3699 9.63004 23.5999 9.29004C23.8499 8.96004 23.7699 8.49004 23.4299 8.25004Z" fill="white"/> </g> <defs> <clipPath id="clip0_4482_1678"> <rect width="24" height="24" fill="white"/> </clipPath> </defs> </svg>
