<svg width="24" height="24" viewBox="0 0 24 24" fill="none" xmlns="http://www.w3.org/2000/svg"> <g clip-path="url(#clip0_2085_393680)"> <path d="M15.6401 7.82031V9.31031C15.6401 9.67031 15.4501 10.0003 15.1501 10.1703L12.0001 12.0003L8.85011 10.1703C8.55011 10.0003 8.36011 9.67031 8.36011 9.31031V7.82031H15.6401Z" fill="white"/> <path d="M14.1401 6.00977V9.01977L12.0001 10.2598L9.86011 9.01977V6.00977H14.1401ZM15.6401 4.50977H8.36011V9.30977C8.36011 9.66977 8.55011 9.99977 8.85011 10.1698L12.0001 11.9998L15.1501 10.1698C15.4501 9.99977 15.6401 9.66977 15.6401 9.30977V4.50977Z" fill="white"/> <path d="M15.6401 14.69V19.49H15.1401L12.6901 17.15C12.3001 16.78 11.7001 16.78 11.3101 17.15L8.86011 19.49H8.36011V14.69C8.36011 14.34 8.55011 14.01 8.85011 13.83L12.0001 12L15.1501 13.83C15.4501 14.01 15.6401 14.34 15.6401 14.69Z" fill="white"/> <path d="M17.1099 3V3.51C17.1099 4.06 16.6699 4.51 16.1099 4.51H7.88989C7.32989 4.51 6.88989 4.06 6.88989 3.51V3C6.88989 2.45 7.32989 2 7.88989 2H16.1099C16.6699 2 17.1099 2.45 17.1099 3Z" fill="white"/> <path d="M17.1099 20.4902V21.0002C17.1099 21.5502 16.6699 22.0002 16.1099 22.0002H7.88989C7.32989 22.0002 6.88989 21.5502 6.88989 21.0002V20.4902C6.88989 19.9402 7.32989 19.4902 7.88989 19.4902H16.1099C16.6699 19.4902 17.1099 19.9402 17.1099 20.4902Z" fill="white"/> </g> <defs> <clipPath id="clip0_2085_393680"> <rect width="24" height="24" fill="white"/> </clipPath> </defs> </svg>
