<svg width="24" height="24" viewBox="0 0 24 24" fill="none" xmlns="http://www.w3.org/2000/svg"> <g clip-path="url(#clip0_4482_1706)"> <path d="M17 2H7C4.25 2 2 4.25 2 7V17C2 19.75 4.25 22 7 22H17C19.75 22 22 19.75 22 17V7C22 4.25 19.75 2 17 2ZM12 13.88C12 14.58 11.43 15.16 10.72 15.16H6.89001C6.19001 15.16 5.60999 14.59 5.60999 13.88V11.6C5.60999 11.21 5.78998 10.84 6.09998 10.59L8.01001 9.1C8.47001 8.74 9.11996 8.74 9.57996 9.1L11.49 10.59C11.8 10.83 11.98 11.2 11.98 11.6V13.88H12ZM18.38 14.75H15.38C14.97 14.75 14.63 14.41 14.63 14C14.63 13.59 14.97 13.25 15.38 13.25H18.38C18.79 13.25 19.13 13.59 19.13 14C19.13 14.41 18.79 14.75 18.38 14.75ZM18.38 10.75H15.38C14.97 10.75 14.63 10.41 14.63 10C14.63 9.59 14.97 9.25 15.38 9.25H18.38C18.79 9.25 19.13 9.59 19.13 10C19.13 10.41 18.79 10.75 18.38 10.75Z" fill="white"/> </g> <defs> <clipPath id="clip0_4482_1706"> <rect width="24" height="24" fill="white"/> </clipPath> </defs> </svg>
