<svg width="24" height="24" viewBox="0 0 24 24" fill="none" xmlns="http://www.w3.org/2000/svg"> <g clip-path="url(#clip0_4482_4533)"> <path d="M21.81 10.1199C15.6 12.9099 8.49002 12.9199 2.27002 10.1499C2.77002 9.90989 3.19003 9.55989 3.59003 9.18989C4.30003 8.51989 4.99002 7.82988 5.71002 7.16988C6.38002 6.55988 7.10002 6.00988 8.05002 5.87988H8.25003C8.44003 5.89988 8.62003 5.91989 8.81003 5.93989C9.45003 6.01989 10.04 6.24988 10.62 6.52988C11.52 6.95988 12.41 6.95988 13.32 6.52988C13.77 6.32988 14.25 6.15988 14.73 6.01988C15.04 5.92988 15.38 5.92988 15.71 5.87988H15.86C15.88 5.88988 15.9 5.90989 15.92 5.90989C16.53 5.93989 17.07 6.19989 17.53 6.57989C18.23 7.15989 18.9 7.76988 19.58 8.37988C20.28 9.01988 20.96 9.68989 21.81 10.1199Z" fill="white"/> <path d="M22 10.2501C21.94 10.3301 21.87 10.4101 21.81 10.4901C21.53 10.8901 21.23 11.2701 20.97 11.6801C20.68 12.1301 20.43 12.6001 20.16 13.0601C19.67 13.9101 19.12 14.7101 18.46 15.4301C17.33 16.6701 15.94 17.4901 14.3 17.8601C13.01 18.1601 11.71 18.1801 10.41 18.0101C8.87 17.8001 7.48999 17.2401 6.29999 16.2101C5.39999 15.4301 4.71999 14.4801 4.10999 13.4701C3.45999 12.4001 2.87 11.2901 2 10.3701V10.2901C2.09 10.2501 2.17999 10.2101 2.26999 10.1501C8.48999 12.9201 15.6 12.9101 21.81 10.1201C21.86 10.1401 21.9 10.1701 21.95 10.1901C21.97 10.2001 21.98 10.2201 22 10.2501Z" fill="white"/> </g> <defs> <clipPath id="clip0_4482_4533"> <rect width="24" height="24" fill="white"/> </clipPath> </defs> </svg>
