<svg width="24" height="24" viewBox="0 0 24 24" fill="none" xmlns="http://www.w3.org/2000/svg"> <g clip-path="url(#clip0_4482_12605)"> <path d="M12.0002 0.25C11.5902 0.25 11.2502 0.59 11.2502 1V2.75C7.97024 3.02 5.02024 5.01 3.60024 8.01C3.42024 8.38 3.58024 8.83 3.96024 9.01C4.06024 9.06 4.17024 9.08 4.28024 9.08C4.56024 9.08 4.83024 8.92 4.96024 8.65C6.13024 6.17 8.55024 4.51 11.2502 4.24V5.88C11.2502 6.29 11.5902 6.63 12.0002 6.63C12.4102 6.63 12.7502 6.29 12.7502 5.88V1C12.7502 0.59 12.4102 0.25 12.0002 0.25Z" fill="white"/> <path d="M22.9999 11.2502H21.2499C20.9799 7.97024 18.9899 5.02024 15.9899 3.60024C15.6199 3.42024 15.1699 3.58024 14.9899 3.96024C14.8099 4.33024 14.9699 4.78024 15.3499 4.96024C17.8299 6.13024 19.4899 8.55024 19.7599 11.2502H18.1199C17.7099 11.2502 17.3699 11.5902 17.3699 12.0002C17.3699 12.4102 17.7099 12.7502 18.1199 12.7502H23.0099C23.4199 12.7502 23.7599 12.4102 23.7599 12.0002C23.7599 11.5902 23.4199 11.2502 23.0099 11.2502H22.9999Z" fill="white"/> <path d="M20.04 14.9899C19.67 14.8099 19.22 14.9699 19.04 15.3499C17.87 17.8299 15.45 19.4899 12.75 19.7599V18.1199C12.75 17.7099 12.41 17.3699 12 17.3699C11.59 17.3699 11.25 17.7099 11.25 18.1199V23.0099C11.25 23.4199 11.59 23.7599 12 23.7599C12.41 23.7599 12.75 23.4199 12.75 23.0099V21.2599C16.03 20.9899 18.98 18.9999 20.4 15.9999C20.58 15.6299 20.42 15.1799 20.04 14.9999V14.9899Z" fill="white"/> <path d="M8.65 19.04C6.17 17.87 4.51 15.45 4.24 12.75H5.88C6.29 12.75 6.63 12.41 6.63 12C6.63 11.59 6.29 11.25 5.88 11.25H1C0.59 11.25 0.25 11.59 0.25 12C0.25 12.41 0.59 12.75 1 12.75H2.75C3.02 16.03 5.01 18.98 8.01 20.4C8.11 20.45 8.22 20.47 8.33 20.47C8.61 20.47 8.88 20.31 9.01 20.04C9.19 19.67 9.03 19.22 8.65 19.04Z" fill="white"/> </g> <defs> <clipPath id="clip0_4482_12605"> <rect width="24" height="24" fill="white"/> </clipPath> </defs> </svg>
