<svg width="24" height="24" viewBox="0 0 24 24" fill="none" xmlns="http://www.w3.org/2000/svg"> <g clip-path="url(#clip0_4482_4538)"> <path d="M14.9001 12.5303H9.1001C8.5501 12.5303 8.1001 12.9803 8.1001 13.5303V14.9903C8.1001 15.5403 8.5501 15.9903 9.1001 15.9903H14.9001C15.4501 15.9903 15.9001 15.5403 15.9001 14.9903V13.5303C15.9001 12.9703 15.4501 12.5303 14.9001 12.5303Z" fill="white"/> <path d="M8.1001 20.0002C8.1001 21.1002 9.0001 22.0002 10.1001 22.0002H13.9001C15.0001 22.0002 15.9001 21.1002 15.9001 20.0002V18.4902C15.9001 17.9402 15.4501 17.4902 14.9001 17.4902H9.1001C8.5501 17.4902 8.1001 17.9402 8.1001 18.4902V20.0002Z" fill="white"/> <path d="M15.5 6.74C15.5 7.15 15.16 7.49 14.75 7.49H12.75V8.62H13.38C13.79 8.62 14.12 8.95 14.12 9.37C14.12 9.78 13.79 10.12 13.38 10.12H12.75V12.53H11.25V10.12H10.62C10.21 10.12 9.88 9.78 9.88 9.37C9.88 8.95 10.21 8.62 10.62 8.62H11.25V7.49H9.25C8.84 7.49 8.5 7.15 8.5 6.74C8.5 6.32 8.84 5.99 9.25 5.99H11.25V4.86H10.62C10.21 4.86 9.88 4.52 9.88 4.11C9.88 3.69 10.21 3.36 10.62 3.36H11.25V2C11.25 1.59 11.59 1.25 12 1.25C12.41 1.25 12.75 1.59 12.75 2V3.36H13.38C13.79 3.36 14.12 3.69 14.12 4.11C14.12 4.52 13.79 4.86 13.38 4.86H12.75V5.99H14.75C15.16 5.99 15.5 6.32 15.5 6.74Z" fill="white"/> </g> <defs> <clipPath id="clip0_4482_4538"> <rect width="24" height="24" fill="white"/> </clipPath> </defs> </svg>
