<svg width="24" height="24" viewBox="0 0 24 24" fill="none" xmlns="http://www.w3.org/2000/svg"> <g clip-path="url(#clip0_4482_4309)"> <path d="M8 5.75C7.59 5.75 7.25 5.41 7.25 5V2C7.25 1.59 7.59 1.25 8 1.25C8.41 1.25 8.75 1.59 8.75 2V5C8.75 5.41 8.41 5.75 8 5.75Z" fill="white"/> <path d="M16 5.75C15.59 5.75 15.25 5.41 15.25 5V2C15.25 1.59 15.59 1.25 16 1.25C16.41 1.25 16.75 1.59 16.75 2V5C16.75 5.41 16.41 5.75 16 5.75Z" fill="white"/> <path d="M10.93 22.7502H9C3.38 22.7502 2.25 20.1002 2.25 15.8202V9.64024C2.25 4.91024 3.85002 2.98023 7.96002 2.74023H16C20.1 2.96023 21.75 4.96024 21.75 9.64024V11.6702C21.75 12.0802 21.41 12.4202 21 12.4202C20.59 12.4202 20.25 12.0802 20.25 11.6702V9.64024C20.25 5.27024 18.8 4.39023 15.96 4.24023H8C5.2 4.40023 3.75 5.28024 3.75 9.64024V15.8202C3.75 19.6502 4.48 21.2502 9 21.2502H10.93C11.34 21.2502 11.68 21.5902 11.68 22.0002C11.68 22.4102 11.35 22.7502 10.93 22.7502Z" fill="white"/> <path d="M12.57 13.75C12.51 13.75 12.45 13.74 12.39 13.73C12.15 13.67 11.96 13.5 11.87 13.27L11.29 11.75L10.93 12.37C10.8 12.6 10.55 12.75 10.28 12.75H8C7.59 12.75 7.25 12.41 7.25 12C7.25 11.59 7.59 11.25 8 11.25H9.84998L10.78 9.63001C10.92 9.38001 11.21 9.24001 11.49 9.25001C11.78 9.27001 12.03 9.46002 12.13 9.73002L12.89 11.72L13.22 11.43C13.36 11.31 13.53 11.24 13.71 11.24H16C16.41 11.24 16.75 11.58 16.75 11.99C16.75 12.4 16.41 12.74 16 12.74H14L13.07 13.55C12.93 13.69 12.75 13.75 12.57 13.75Z" fill="white"/> <path d="M21.4001 15.0598C21.0101 14.6798 20.4801 14.4698 19.9501 14.4798C19.4101 14.4798 18.9001 14.6898 18.5201 15.0798L16.6801 16.9598L16.4701 17.1698L16.3301 17.3098L14.4401 19.2298C14.0601 19.6198 13.8501 20.1198 13.8501 20.6698C13.8601 21.2098 14.0701 21.7198 14.4601 22.0998C14.8401 22.4798 15.3401 22.6798 15.8801 22.6798H15.9001C16.4501 22.6798 16.9601 22.4698 17.3301 22.0798L19.2301 20.1598L19.3801 20.0098L19.5801 19.8098L21.4201 17.9298C21.7901 17.5498 22.0001 17.0398 22.0001 16.4898C22.0001 15.9498 21.7801 15.4398 21.4001 15.0598ZM20.6601 17.1698L18.8101 19.0498L17.4401 17.6998L19.2901 15.8298C19.4701 15.6498 19.7001 15.5498 19.9401 15.5498C20.1401 15.5498 20.4201 15.5998 20.6401 15.8198C20.8301 15.9998 20.9301 16.2398 20.9301 16.4998C20.9301 16.7598 20.8401 16.9998 20.6601 17.1698Z" fill="white"/> </g> <defs> <clipPath id="clip0_4482_4309"> <rect width="24" height="24" fill="white"/> </clipPath> </defs> </svg>
