<svg width="24" height="24" viewBox="0 0 24 24" fill="none" xmlns="http://www.w3.org/2000/svg"> <g clip-path="url(#clip0_4482_4678)"> <path d="M5 6.28035C4.59 6.28035 4.25 5.94035 4.25 5.53035V3.86035C4.25 3.45035 4.59 3.11035 5 3.11035C5.41 3.11035 5.75 3.45035 5.75 3.86035V5.53035C5.75 5.94035 5.41 6.28035 5 6.28035Z" fill="white"/> <path d="M9.43994 5.72C9.02994 5.72 8.68994 5.38 8.68994 4.97V2.75C8.68994 2.34 9.02994 2 9.43994 2C9.84994 2 10.1899 2.34 10.1899 2.75V4.97C10.1899 5.38 9.84994 5.72 9.43994 5.72Z" fill="white"/> <path d="M13.8799 6.28035C13.4699 6.28035 13.1299 5.94035 13.1299 5.53035V3.86035C13.1299 3.45035 13.4699 3.11035 13.8799 3.11035C14.2899 3.11035 14.6299 3.45035 14.6299 3.86035V5.53035C14.6299 5.94035 14.2999 6.28035 13.8799 6.28035Z" fill="white"/> <path d="M19.3101 10.2905H18.8901C18.4601 10.2905 18.0501 10.4005 17.6901 10.5805V10.2705C17.6901 8.48046 16.6801 7.48047 15.4601 7.48047H4.29007C3.06007 7.48047 2.05005 8.48046 2.05005 9.71046V18.0905C2.05005 20.2405 3.81005 22.0005 5.96005 22.0005H13.7801C15.9301 22.0005 17.6901 19.6805 17.6901 18.0905V17.8305C18.0501 18.0205 18.4601 18.1205 18.8901 18.1205H19.3101C20.7701 18.1205 21.9501 16.9405 21.9501 15.4805V12.9205C21.9501 11.4705 20.7701 10.2905 19.3101 10.2905ZM20.5101 15.4805C20.5101 16.1405 19.9801 16.6805 19.3101 16.6805H18.8901C18.2301 16.6805 17.6901 16.1405 17.6901 15.4805V12.9205C17.6901 12.2605 18.2301 11.7205 18.8901 11.7205H19.3101C19.9801 11.7205 20.5101 12.2605 20.5101 12.9205V15.4805Z" fill="white"/> </g> <defs> <clipPath id="clip0_4482_4678"> <rect width="24" height="24" fill="white"/> </clipPath> </defs> </svg>
