<svg width="24" height="24" viewBox="0 0 24 24" fill="none" xmlns="http://www.w3.org/2000/svg"> <g clip-path="url(#clip0_4482_4783)"> <path d="M17.74 10.77C17.77 11.29 17.59 11.82 17.2 12.22L15.5 13.91L15.01 14.39L14.67 14.73L14.53 14.87L13.69 15.72H13.68L11.86 17.54H13.69C14.69 17.54 15.46 18.37 15.46 19.31C15.46 19.44 15.46 19.54 15.44 19.66C15.29 20.4 14.72 20.96 13.98 21.08L8.63 21.96C7.74001 22.12 6.81999 21.82 6.17999 21.17L3.23999 18.23L3.16998 18.18C2.39998 17.41 2 16.38 2 15.35C2 14.32 2.39998 13.3 3.16998 12.52L5.27002 10.43C6.04002 9.65 7.22999 9.51 8.17999 10.05L9.51001 10.83L11.12 11.78L11.33 11.9C11.49 11.99 11.67 12.02 11.84 12C12.01 11.98 12.17 11.91 12.3 11.78L14.53 9.55C14.77 9.31 15.05 9.15 15.36 9.08C15.52 9.02 15.69 9 15.86 9C16.34 9 16.83 9.19 17.2 9.55C17.53 9.89 17.72 10.33 17.74 10.77Z" fill="white"/> <path d="M19.92 3.49996L17.09 2.42996C16.6 2.24996 16.09 2.20996 15.75 2.20996C15.4 2.20996 14.89 2.24996 14.41 2.42996L11.56 3.49996C10.39 3.94996 9.5 5.22997 9.5 6.47997V10.72C9.5 10.76 9.50001 10.79 9.51001 10.83L11.12 11.78C10.95 11.43 10.84 11.05 10.84 10.72V6.47997C10.84 5.77997 11.37 5.00996 12.04 4.75996L14.88 3.67996C15.12 3.59996 15.43 3.54996 15.75 3.54996C16.06 3.54996 16.37 3.59996 16.62 3.67996L19.46 4.75996C20.13 4.99996 20.66 5.76997 20.66 6.47997V10.72C20.66 11.39 20.21 12.28 19.67 12.68L17.21 14.52C16.81 14.82 16.28 14.97 15.75 14.97C15.38 14.97 15 14.89 14.67 14.73L14.53 14.87L13.69 15.72C14.27 16.1 15 16.31 15.75 16.31C16.6 16.31 17.4 16.05 18.02 15.58L20.47 13.76C21.35 13.11 22 11.83 22 10.72V6.47997C22 5.20997 21.11 3.92996 19.92 3.49996Z" fill="white"/> </g> <defs> <clipPath id="clip0_4482_4783"> <rect width="24" height="24" fill="white"/> </clipPath> </defs> </svg>
