<svg width="24" height="24" viewBox="0 0 24 24" fill="none" xmlns="http://www.w3.org/2000/svg"> <g clip-path="url(#clip0_4482_11115)"> <path d="M11.9502 2C6.4302 2 1.9502 6.48 1.9502 12C1.9502 17.52 6.4302 22 11.9502 22C17.4702 22 21.9502 17.52 21.9502 12C21.9502 6.48 17.4802 2 11.9502 2ZM16.6902 9.89C16.6902 10.47 16.2202 10.94 15.6402 10.94H14.0602C13.4802 10.94 13.0102 10.47 13.0102 9.89V9.85H11.4302C10.5402 9.85 9.8102 10.58 9.8102 11.47V13.05H9.8502C10.4302 13.05 10.9002 13.52 10.9002 14.1V15.68C10.9002 16.26 10.4302 16.73 9.8502 16.73H8.2702C7.6902 16.73 7.22019 16.26 7.22019 15.68V14.1C7.22019 13.52 7.6902 13.05 8.2702 13.05H8.3102V11.47C8.3102 9.75 9.7102 8.35 11.4302 8.35H13.0102V8.31C13.0102 7.73 13.4802 7.26 14.0602 7.26H15.6402C16.2202 7.26 16.6902 7.73 16.6902 8.31V9.89Z" fill="white"/> </g> <defs> <clipPath id="clip0_4482_11115"> <rect width="24" height="24" fill="white"/> </clipPath> </defs> </svg>
