<svg width="24" height="24" viewBox="0 0 24 24" fill="none" xmlns="http://www.w3.org/2000/svg"> <g clip-path="url(#clip0_2085_383988)"> <path d="M14.56 2.67002L14.3 2.80002C13.66 3.12002 13.34 3.28002 13.17 3.45002C13.02 3.61002 12.9 3.80002 12.83 4.00002C12.75 4.24002 12.75 4.60002 12.75 5.31002V5.33002H11.25V5.31002C11.25 4.46002 11.25 3.99002 11.41 3.52002C11.56 3.10002 11.79 2.72002 12.1 2.40002C12.45 2.05002 12.86 1.84002 13.62 1.46002L13.89 1.33002C14.26 1.15002 14.71 1.29002 14.89 1.66002C15.08 2.04002 14.93 2.49002 14.56 2.67002Z" fill="white"/> <path d="M12.75 20.8899V21.9999C12.75 22.4099 12.41 22.7499 12 22.7499C11.59 22.7499 11.25 22.4099 11.25 21.9999V20.8899H12.75Z" fill="white"/> <path d="M21.91 10.0201C21.56 8.26008 20.19 6.88008 18.42 6.53008C18.08 6.46008 17.3 6.44008 16.48 6.44008C16.28 6.17008 16.05 5.93008 15.88 5.80008C15.75 5.70008 15.62 5.62008 15.48 5.55008C15.02 5.33008 14.48 5.33008 13.4 5.33008H10.6C9.52 5.33008 8.98 5.33008 8.52 5.55008C8.38 5.62008 8.25 5.70008 8.12 5.80008C7.95 5.93008 7.72 6.17008 7.52 6.44008C6.68 6.44008 5.94 6.45008 5.58 6.53008C3.81 6.88008 2.44 8.26008 2.09 10.0201C2 10.4501 2 10.9701 2 12.0001V14.2201C2 15.2501 2 15.7701 2.09 16.2001C2.44 17.9601 3.81 19.3401 5.58 19.6901C5.98 19.7701 6.6 19.7801 7.51 19.7801C7.72 20.0501 7.95 20.2901 8.12 20.4201C8.25 20.5201 8.38 20.6001 8.52 20.6701C8.98 20.8901 9.52 20.8901 10.6 20.8901H13.4C14.48 20.8901 15.02 20.8901 15.48 20.6701C15.62 20.6001 15.75 20.5201 15.88 20.4201C16.05 20.2901 16.28 20.0501 16.49 19.7801C17.32 19.7801 18.06 19.7601 18.42 19.6901C20.19 19.3401 21.56 17.9601 21.91 16.2001C22 15.7701 22 15.2501 22 14.2201V12.0001C22 10.9701 22 10.4501 21.91 10.0201ZM6.44 13.8601C6.13 13.8601 5.83 13.6601 5.73 13.3501C5.6 12.9601 5.81 12.5301 6.2 12.4001L7.47 11.9801C7.6 11.9401 7.63 11.8301 7.64 11.7701C7.64 11.7101 7.64 11.6001 7.52 11.5301L6.61 10.9801C6.26 10.7701 6.14 10.3101 6.35 9.95008C6.56 9.59008 7.02 9.48008 7.38 9.69008L8.29 10.2401C8.88 10.6001 9.21 11.2401 9.13 11.9301C9.05 12.6201 8.6 13.1801 7.94 13.4001L6.67 13.8201C6.59 13.8501 6.51 13.8601 6.43 13.8601H6.44ZM16.44 16.0801H14.97V17.0001C14.97 17.4101 14.63 17.7501 14.22 17.7501C13.81 17.7501 13.47 17.4101 13.47 17.0001V16.0801H12.75V17.0001C12.75 17.4101 12.41 17.7501 12 17.7501C11.59 17.7501 11.25 17.4101 11.25 17.0001V16.0801H10.53V17.0001C10.53 17.4101 10.19 17.7501 9.78 17.7501C9.37 17.7501 9.03 17.4101 9.03 17.0001V16.0801H7.56C7.15 16.0801 6.81 15.7401 6.81 15.3301C6.81 14.9201 7.15 14.5801 7.56 14.5801H16.45C16.86 14.5801 17.2 14.9201 17.2 15.3301C17.2 15.7401 16.86 16.0801 16.45 16.0801H16.44ZM18.27 13.3501C18.17 13.6601 17.87 13.8601 17.56 13.8601C17.48 13.8601 17.4 13.8501 17.32 13.8201L16.05 13.4001C15.39 13.1801 14.94 12.6201 14.86 11.9301C14.78 11.2401 15.11 10.5901 15.7 10.2401L16.61 9.69008C16.96 9.48008 17.43 9.59008 17.64 9.95008C17.85 10.3101 17.74 10.7701 17.38 10.9801L16.47 11.5301C16.35 11.6001 16.34 11.7101 16.35 11.7701C16.35 11.8301 16.39 11.9401 16.52 11.9801L17.79 12.4001C18.18 12.5301 18.39 12.9601 18.26 13.3501H18.27Z" fill="white"/> </g> <defs> <clipPath id="clip0_2085_383988"> <rect width="24" height="24" fill="white"/> </clipPath> </defs> </svg>
