<svg width="24" height="24" viewBox="0 0 24 24" fill="none" xmlns="http://www.w3.org/2000/svg"> <g clip-path="url(#clip0_4482_14197)"> <path d="M21.3395 7.84004L19.4095 3.97004C19.1195 3.40004 18.5495 3.04004 17.9095 3.04004H16.0895C15.6395 3.04004 15.2195 3.21004 14.9095 3.53004L13.5495 4.89004H9.54953L8.18953 3.53004C7.86953 3.21004 7.44953 3.04004 7.00953 3.04004H5.27953C4.55953 3.04004 3.91953 3.50004 3.68953 4.19004L2.33953 8.25004C2.12953 8.89004 2.01953 9.56004 2.01953 10.24V17H2.06953C2.31953 18.97 3.97953 20.5 6.01953 20.5H18.0195C20.0595 20.5 21.7195 18.97 21.9695 17H22.0195V10.65C22.0195 9.68004 21.7895 8.70004 21.3595 7.83004L21.3395 7.84004ZM5.99953 15.5C5.99953 16.05 5.54953 16.5 4.99953 16.5H3.49953V12.5H4.99953C5.54953 12.5 5.99953 12.95 5.99953 13.5V15.5ZM13.9995 15.25H9.99953C9.58953 15.25 9.24953 14.91 9.24953 14.5C9.24953 14.09 9.58953 13.75 9.99953 13.75H13.9995C14.4095 13.75 14.7495 14.09 14.7495 14.5C14.7495 14.91 14.4095 15.25 13.9995 15.25ZM17.9095 8.50004H6.09953C5.14953 8.50004 4.27953 8.84004 3.58953 9.39004C3.62953 9.17004 3.67953 8.95004 3.74953 8.73004L5.09953 4.67004C5.11953 4.60004 5.18953 4.55004 5.26953 4.55004H6.99953C6.99953 4.55004 7.08953 4.57004 7.11953 4.60004L8.69953 6.18004C8.83953 6.32004 9.02953 6.40004 9.22953 6.40004H13.8495C14.0495 6.40004 14.2395 6.32004 14.3795 6.18004L15.9595 4.60004C15.9595 4.60004 16.0395 4.55004 16.0795 4.55004H17.8995C17.9695 4.55004 18.0295 4.59004 18.0595 4.65004L19.9895 8.52004C20.1095 8.77004 20.2095 9.03004 20.2895 9.29004C19.5995 8.79004 18.7695 8.51004 17.8995 8.51004L17.9095 8.50004ZM17.9995 15.5V13.5C17.9995 12.95 18.4495 12.5 18.9995 12.5H20.4995V16.5H19.2195C18.4495 16.5 17.9995 16.05 17.9995 15.5Z" fill="white"/> </g> <defs> <clipPath id="clip0_4482_14197"> <rect width="24" height="24" fill="white"/> </clipPath> </defs> </svg>
