<svg width="24" height="24" viewBox="0 0 24 24" fill="none" xmlns="http://www.w3.org/2000/svg"> <g clip-path="url(#clip0_4482_9808)"> <path d="M12.75 11.15C13.48 11.45 14 12.16 14 13C14 14.1 13.1 15 12 15C10.9 15 10 14.1 10 13C10 12.16 10.52 11.45 11.25 11.15V8.5H2V17C2 19.76 4.24 22 7 22H17C19.76 22 22 19.76 22 17V8.5H12.75V11.15Z" fill="white"/> <path d="M12.75 6.92H22C21.96 4.2 19.73 2 17 2H7C4.27 2 2.04 4.2 2 6.92H11.25V8.5H12.75V6.92Z" fill="white"/> </g> <defs> <clipPath id="clip0_4482_9808"> <rect width="24" height="24" fill="white"/> </clipPath> </defs> </svg>
