<svg width="24" height="24" viewBox="0 0 24 24" fill="none" xmlns="http://www.w3.org/2000/svg"> <g clip-path="url(#clip0_4482_14397)"> <path d="M21.39 6.68C21.5 4.22 19.59 2.13 17.08 2C14.62 2.12 12.71 4.23 12.82 6.67C12.82 10.08 14.34 12.81 16.39 13.33V15.36C15.72 15.47 15.2 16.06 15.2 16.76V20.09C15.2 21.14 16.05 21.99 17.1 21.99C18.15 21.99 19 21.14 19 20.09V16.76C19 16.05 18.48 15.47 17.81 15.36V13.33C19.86 12.81 21.38 10.08 21.38 6.68H21.39Z" fill="white"/> <path d="M7.59961 5.85V3.5C7.59961 2.67 6.92961 2 6.09961 2C5.26961 2 4.59961 2.67 4.59961 3.5V5.85C3.41961 6.41 2.59961 7.61 2.59961 9V15C2.59961 16.39 3.41961 17.58 4.59961 18.15V20.5C4.59961 21.33 5.26961 22 6.09961 22C6.92961 22 7.59961 21.33 7.59961 20.5V18.15C8.77961 17.59 9.59961 16.39 9.59961 15V9C9.59961 7.61 8.77961 6.41 7.59961 5.85Z" fill="white"/> </g> <defs> <clipPath id="clip0_4482_14397"> <rect width="24" height="24" fill="white"/> </clipPath> </defs> </svg>
