<svg width="24" height="24" viewBox="0 0 24 24" fill="none" xmlns="http://www.w3.org/2000/svg"> <g clip-path="url(#clip0_4482_13161)"> <path d="M5.33008 20.8896V21.9996" stroke="white" stroke-width="1.5" stroke-linecap="round" stroke-linejoin="round"/> <path d="M19.7803 20.5801V22.0001" stroke="white" stroke-width="1.5" stroke-linecap="round" stroke-linejoin="round"/> <path d="M20.2596 3.53003L13.5896 2.06003C12.1996 1.75003 10.8896 2.81003 10.8896 4.23003V19.78C10.8896 21.2 12.1996 22.26 13.5896 21.95L20.2596 20.48C21.2796 20.26 21.9996 19.35 21.9996 18.31V5.70003C21.9996 4.66003 21.2796 3.75003 20.2596 3.53003ZM14.8396 13.55C14.8396 13.96 14.4996 14.3 14.0896 14.3C13.6796 14.3 13.3396 13.96 13.3396 13.55V10.47C13.3396 10.06 13.6796 9.72003 14.0896 9.72003C14.4996 9.72003 14.8396 10.06 14.8396 10.47V13.55Z" fill="white"/> <path d="M9.89 19.7797V4.21973H4.22C2.99 4.21973 2 5.20973 2 6.43973V18.6597C2 19.8897 2.99 20.8797 4.22 20.8797H10.1C9.97 20.5297 9.88 20.1597 9.88 19.7697L9.89 19.7797Z" fill="white"/> </g> <defs> <clipPath id="clip0_4482_13161"> <rect width="24" height="24" fill="white"/> </clipPath> </defs> </svg>
