<svg width="24" height="24" viewBox="0 0 24 24" fill="none" xmlns="http://www.w3.org/2000/svg"> <g clip-path="url(#clip0_2085_384568)"> <path d="M17.75 1.25H7.31C7.72 1.25 8.06 1.59 8.06 2V2.75H17.75C19.54 2.75 21 4.21 21 6V18C21 19.79 19.54 21.25 17.75 21.25H5.75C3.96 21.25 2.5 19.79 2.5 18V6C2.5 4.21 3.96 2.75 5.75 2.75H6.56V2C6.56 1.59 6.89 1.25 7.31 1.25H5.75C3.13 1.25 1 3.38 1 6V18C1 20.62 3.13 22.75 5.75 22.75H17.75C20.37 22.75 22.5 20.62 22.5 18V6C22.5 3.38 20.37 1.25 17.75 1.25Z" fill="white"/> <path d="M20.9999 10.5293H16.9399V15.6893H20.9999V10.5293Z" fill="white"/> <path d="M21 17.1895V17.9995C21 19.7895 19.54 21.2495 17.75 21.2495H5.75C3.96 21.2495 2.5 19.7895 2.5 17.9995V17.1895H21Z" fill="white"/> <path d="M22.5 16.4395C22.5 16.8595 22.16 17.1895 21.75 17.1895H1.75C1.34 17.1895 1 16.8595 1 16.4395C1 16.0195 1.34 15.6895 1.75 15.6895H21.75C22.16 15.6895 22.5 16.0295 22.5 16.4395Z" fill="white"/> <path d="M22.4999 9.7793C22.4999 10.1893 22.1599 10.5293 21.7499 10.5293H16.1899C15.7799 10.5293 15.4399 10.1893 15.4399 9.7793C15.4399 9.3693 15.7799 9.0293 16.1899 9.0293H21.7499C22.1599 9.0293 22.4999 9.3593 22.4999 9.7793Z" fill="white"/> <path d="M8.06 9.7793C8.06 10.1893 7.72 10.5293 7.31 10.5293H1.75C1.34 10.5293 1 10.1893 1 9.7793C1 9.3693 1.34 9.0293 1.75 9.0293H7.31C7.72 9.0293 8.06 9.3593 8.06 9.7793Z" fill="white"/> <path d="M16.9399 2V16.44C16.9399 16.86 16.6099 17.19 16.1899 17.19C15.7699 17.19 15.4399 16.86 15.4399 16.44V2C15.4399 1.59 15.7799 1.25 16.1899 1.25C16.5999 1.25 16.9399 1.59 16.9399 2Z" fill="white"/> <path d="M8.06 2V9.78C8.06 9.36 7.72 9.03 7.31 9.03H2.5V6C2.5 4.21 3.96 2.75 5.75 2.75H6.56V2C6.56 1.59 6.89 1.25 7.31 1.25C7.73 1.25 8.06 1.59 8.06 2Z" fill="white"/> <path d="M8.06006 9.7793V16.4393C8.06006 16.8593 7.72006 17.1893 7.31006 17.1893C6.90006 17.1893 6.56006 16.8593 6.56006 16.4393V9.0293H7.31006C7.72006 9.0293 8.06006 9.3593 8.06006 9.7793Z" fill="white"/> </g> <defs> <clipPath id="clip0_2085_384568"> <rect width="24" height="24" fill="white"/> </clipPath> </defs> </svg>
