<svg width="24" height="24" viewBox="0 0 24 24" fill="none" xmlns="http://www.w3.org/2000/svg"> <g clip-path="url(#clip0_4482_1561)"> <path d="M17.8799 11C17.8799 12.31 16.8099 13.38 15.4999 13.38C15.1499 13.38 14.8199 13.29 14.5199 13.15L13.7399 13.89C13.0499 14.53 11.9898 14.53 11.3198 13.89L8.53993 11.25C8.46993 11.19 8.38987 11.18 8.35987 11.18C8.30987 11.18 8.23983 11.2 8.18983 11.26L2.26991 17.72C2.15991 17.84 2.10991 18.01 2.14991 18.18C2.67991 20.36 4.65989 22 6.99989 22H16.9999C19.7499 22 21.9999 19.75 21.9999 17V11.25C21.9999 10.97 21.7799 10.75 21.4999 10.75H17.8399C17.8499 10.83 17.8799 10.92 17.8799 11Z" fill="white"/> <path d="M17 2H7C4.25 2 2 4.25 2 7V14.51C2 14.97 2.56 15.18 2.87 14.85L7.06995 10.26C7.38995 9.9 7.83005 9.7 8.30005 9.68C8.80005 9.66 9.22996 9.84 9.57996 10.17L12.36 12.81C12.45 12.89 12.61 12.89 12.71 12.8L13.42 12.12C13 11.33 12.91 10.33 13.89 9.36C14.36 8.9 14.97 8.59 15.63 8.63C16.2 8.66 16.72 8.89 17.13 9.28C17.17 9.28 17.2 9.26 17.24 9.26H21.51C21.79 9.26 22.01 9.04 22.01 8.76V7C22 4.25 19.75 2 17 2Z" fill="white"/> </g> <defs> <clipPath id="clip0_4482_1561"> <rect width="24" height="24" fill="white"/> </clipPath> </defs> </svg>
