<svg width="24" height="24" viewBox="0 0 24 24" fill="none" xmlns="http://www.w3.org/2000/svg"> <g clip-path="url(#clip0_2085_388539)"> <path d="M19.7899 18.5902L19.7799 18.6002C19.4999 18.6702 19.2399 18.8202 19.0299 19.0302C18.8199 19.2402 18.6699 19.4902 18.5999 19.7702L18.5799 19.7902L14.4199 16.2702L16.2599 14.4302L19.7899 18.5902Z" fill="white"/> <path d="M7.74003 8.8C7.45003 8.51 7.45003 8.03 7.74003 7.74C8.03003 7.45 8.51003 7.45 8.80003 7.74L15.87 14.81L17.18 13.5L7.70003 2.81C7.56003 2.65 7.36003 2.55 7.15003 2.52L2.49003 2C2.42003 2 2.36003 2 2.30003 2.02C2.24003 2.04 2.18003 2.08 2.13003 2.12C2.08003 2.17 2.05003 2.22 2.03003 2.29C2.01003 2.35 2.00003 2.42 2.01003 2.48L2.53003 7.14C2.55003 7.35 2.66003 7.55 2.82003 7.69L13.51 17.18L14.82 15.87L7.75003 8.8H7.74003Z" fill="white"/> <path d="M14.8101 15.8701C14.9601 16.0201 15.1501 16.0901 15.3401 16.0901C15.5301 16.0901 15.7201 16.0201 15.8701 15.8701C16.1601 15.5801 16.1601 15.1001 15.8701 14.8101L14.8101 15.8701Z" fill="white"/> <path d="M22 20.26C22 20.72 21.81 21.16 21.49 21.49C21.16 21.82 20.72 22 20.26 22C19.8 22 19.36 21.82 19.03 21.49C18.7 21.16 18.52 20.72 18.52 20.26C18.52 20.09 18.54 19.92 18.6 19.77C18.67 19.49 18.82 19.24 19.03 19.03C19.24 18.82 19.5 18.67 19.78 18.6C19.78 18.6 19.78 18.59 19.79 18.59C19.94 18.54 20.1 18.52 20.26 18.52C20.72 18.52 21.16 18.71 21.49 19.03C21.81 19.36 22 19.8 22 20.26Z" fill="white"/> <path d="M19.0249 11.2798C19.4494 11.2798 19.861 11.4461 20.1645 11.7495C20.4603 12.0453 20.624 12.4439 20.6323 12.8569H20.6343C20.6537 13.3049 20.4779 13.727 20.1753 14.0298C19.8824 14.3227 19.4076 14.3226 19.1147 14.0298C18.8218 13.7369 18.8218 13.2621 19.1147 12.9692C19.1316 12.9522 19.1358 12.9342 19.1352 12.9224C19.1348 12.9116 19.1343 12.9009 19.1343 12.8901C19.1343 12.8548 19.1204 12.8264 19.104 12.8101C19.0876 12.7938 19.06 12.7798 19.0249 12.7798C18.9884 12.7798 18.9518 12.7947 18.9292 12.8149L12.7954 18.9497C12.7782 18.9669 12.7734 18.9857 12.7739 18.9976C12.7744 19.0083 12.7749 19.019 12.7749 19.0298C12.7749 19.0651 12.7888 19.0935 12.8052 19.1099C12.8215 19.126 12.8493 19.14 12.8843 19.1401C12.9217 19.1401 12.9595 19.124 12.9819 19.103C13.2841 18.8197 13.7582 18.835 14.0415 19.1372C14.3248 19.4394 14.3095 19.9135 14.0073 20.1968C13.7098 20.4757 13.3068 20.6401 12.8843 20.6401C12.4599 20.64 12.0481 20.4738 11.7446 20.1704C11.4484 19.8742 11.2848 19.4746 11.2768 19.061L11.2749 19.062C11.2555 18.6141 11.4312 18.1919 11.7339 17.8892L17.8843 11.7397C17.89 11.734 17.896 11.7277 17.9018 11.7222C18.1994 11.4434 18.6025 11.2798 19.0249 11.2798Z" fill="white"/> </g> <defs> <clipPath id="clip0_2085_388539"> <rect width="24" height="24" fill="white"/> </clipPath> </defs> </svg>
