<svg width="24" height="24" viewBox="0 0 24 24" fill="none" xmlns="http://www.w3.org/2000/svg"> <g clip-path="url(#clip0_2085_389447)"> <path d="M18.48 16.83V20.3C18.48 18.85 17.31 17.68 15.86 17.68H8.14002C6.69002 17.68 5.52002 18.85 5.52002 20.3V16.83C5.52002 16.08 5.85002 15.4 6.37002 14.94C6.82002 14.54 7.41002 14.29 8.06002 14.29H15.94C16.59 14.29 17.18 14.54 17.63 14.94C18.15 15.4 18.48 16.08 18.48 16.83Z" fill="white"/> <path d="M15.86 17.6797H8.14002C6.69002 17.6797 5.52002 18.8497 5.52002 20.2997C5.52002 21.2397 6.28002 21.9997 7.22002 21.9997H16.78C17.72 21.9997 18.48 21.2397 18.48 20.2997C18.48 18.8497 17.31 17.6797 15.86 17.6797ZM13.86 20.5797C13.71 20.7797 13.49 20.8797 13.26 20.8797C13.1 20.8797 12.95 20.8297 12.81 20.7297L12.61 20.5797C12.24 20.8397 11.74 20.8397 11.36 20.5797L11.24 20.6897C10.93 20.9597 10.46 20.9397 10.18 20.6297C9.91002 20.3197 9.93002 19.8497 10.24 19.5697L10.6 19.2497C10.98 18.9097 11.55 18.8797 11.96 19.1697C12.34 18.8997 12.87 18.9097 13.25 19.1897L13.7 19.5297C14.03 19.7797 14.1 20.2497 13.85 20.5797H13.86Z" fill="white"/> <path d="M13.4001 2H10.6001C8.26012 2 6.37012 3.9 6.37012 6.24V14.94C6.82012 14.54 7.41012 14.29 8.06012 14.29H15.9401C16.5901 14.29 17.1801 14.54 17.6301 14.94V6.24C17.6301 3.9 15.7401 2 13.4001 2ZM14.0001 8.07C13.8001 8.57 13.3201 8.9 12.7901 8.9H11.6301L13.1601 10.36C13.4601 10.65 13.4701 11.12 13.1801 11.42C13.0301 11.57 12.8401 11.65 12.6401 11.65C12.4501 11.65 12.2701 11.58 12.1201 11.44L10.2201 9.63C9.83012 9.25 9.71012 8.7 9.91012 8.21C10.1101 7.72 10.5901 7.4 11.1301 7.4H12.3601L10.8401 5.94C10.5401 5.65 10.5301 5.18 10.8201 4.88C11.1101 4.58 11.5801 4.58 11.8801 4.86L13.6901 6.61C14.0801 6.99 14.2001 7.57 13.9901 8.08L14.0001 8.07Z" fill="white"/> </g> <defs> <clipPath id="clip0_2085_389447"> <rect width="24" height="24" fill="white"/> </clipPath> </defs> </svg>
