<svg width="24" height="24" viewBox="0 0 24 24" fill="none" xmlns="http://www.w3.org/2000/svg"> <g clip-path="url(#clip0_4482_10060)"> <path d="M15.9 7.57L12.75 4.42V2C12.75 1.59 12.41 1.25 12 1.25C11.59 1.25 11.25 1.59 11.25 2V4.42L8.10004 7.57C7.90004 7.77 7.79004 8.04 7.79004 8.32H16.21C16.21 8.04 16.1 7.77 15.9 7.57Z" fill="white"/> <path d="M6.79027 12.5298V21.9998H4.53027C3.42027 21.9998 2.53027 21.0998 2.53027 19.9998V14.5298C2.53027 13.4198 3.42027 12.5298 4.53027 12.5298H6.79027Z" fill="white"/> <path d="M21.47 12.6599V19.9999C21.47 21.0999 20.58 21.9999 19.47 21.9999H17.21V10.4199C17.35 10.4199 17.49 10.4399 17.63 10.4899L20.79 11.6699C21.2 11.8299 21.47 12.2199 21.47 12.6599Z" fill="white"/> <path d="M7.79004 8.31982V21.9998H11.25V12.5298C11.25 12.1098 11.59 11.7798 12 11.7798C12.41 11.7798 12.75 12.1098 12.75 12.5298V21.9998H16.21V8.31982H7.79004Z" fill="white"/> </g> <defs> <clipPath id="clip0_4482_10060"> <rect width="24" height="24" fill="white"/> </clipPath> </defs> </svg>
