<svg width="24" height="24" viewBox="0 0 24 24" fill="none" xmlns="http://www.w3.org/2000/svg"> <g clip-path="url(#clip0_4482_10057)"> <path d="M18.1691 13.2601L18.0591 12.6601C17.5291 9.7301 14.9791 7.6001 11.9991 7.6001C9.0191 7.6001 6.4691 9.7301 5.9391 12.6601L5.8291 13.2601" fill="white"/> <path d="M15.5998 1.2002H12.5198C11.8198 1.2002 11.2598 1.7702 11.2598 2.4602V7.60019C11.2598 8.01019 11.5998 8.3502 12.0098 8.3502C12.4198 8.3502 12.7598 8.01019 12.7598 7.60019V5.7802H15.6098C16.3098 5.7802 16.8698 5.2102 16.8698 4.5202V2.4602C16.8698 1.7602 16.2998 1.2002 15.6098 1.2002H15.5998Z" fill="white"/> <path d="M18.2295 13.2603H16.8595V21.0003H15.3595V13.2603H12.7495V21.0003H11.2495V13.2603H8.63953V21.0003H7.13953V13.2603H5.76953C4.66953 13.2603 3.76953 14.1603 3.76953 15.2603V20.0003C3.76953 21.1003 4.66953 22.0003 5.76953 22.0003H18.2295C19.3295 22.0003 20.2295 21.1003 20.2295 20.0003V15.2603C20.2295 14.1603 19.3295 13.2603 18.2295 13.2603Z" fill="white"/> </g> <defs> <clipPath id="clip0_4482_10057"> <rect width="24" height="24" fill="white"/> </clipPath> </defs> </svg>
