<svg width="24" height="24" viewBox="0 0 24 24" fill="none" xmlns="http://www.w3.org/2000/svg"> <g clip-path="url(#clip0_2085_384584)"> <path d="M21.1099 18.9301C20.9199 18.5701 20.4699 18.4201 20.0999 18.6101C19.7899 18.7701 19.6399 19.1201 19.7199 19.4501C19.7299 19.5101 19.7499 19.5601 19.7799 19.6201C19.7799 19.6501 19.7999 19.6701 19.8199 19.7001C19.9499 19.9001 20.1799 20.0301 20.4399 20.0301C20.8599 20.0301 21.1899 19.6901 21.1899 19.2801V19.0801L21.1099 18.9301ZM2.88994 18.9301L2.80994 19.0801V19.2801C2.80994 19.6901 3.13994 20.0301 3.55994 20.0301C3.97994 20.0301 4.30994 19.6901 4.30994 19.2801V18.5301H3.55994C3.27994 18.5301 3.01994 18.6801 2.88994 18.9301Z" fill="white"/> <path d="M22.33 22.0793C22.2 22.2993 21.95 22.4393 21.69 22.4393H2.30996C2.04996 22.4393 1.79996 22.2993 1.66996 22.0793C1.52996 21.8593 1.51996 21.5793 1.63996 21.3493L2.80996 19.0793V19.2793C2.80996 19.6893 3.13996 20.0293 3.55996 20.0293C3.97996 20.0293 4.30996 19.6893 4.30996 19.2793V18.5293H7.16996C7.25996 18.5293 7.33996 18.5293 7.40996 18.5693L14.53 20.9393H20.46L19.82 19.6993C19.95 19.8993 20.18 20.0293 20.44 20.0293C20.86 20.0293 21.19 19.6893 21.19 19.2793V19.0793L22.36 21.3493C22.48 21.5793 22.47 21.8593 22.33 22.0793Z" fill="white"/> <path d="M4.30994 13.2109V19.2809C4.30994 19.6909 3.96994 20.0309 3.55994 20.0309C3.14994 20.0309 2.80994 19.6909 2.80994 19.2809V13.2109C2.80994 12.7909 3.13994 12.4609 3.55994 12.4609C3.97994 12.4609 4.30994 12.7909 4.30994 13.2109Z" fill="white"/> <path d="M21.1899 13.2109V19.2809C21.1899 19.6909 20.8599 20.0309 20.4399 20.0309C20.1799 20.0309 19.9499 19.9009 19.8199 19.7009C19.7999 19.6709 19.7899 19.6509 19.7799 19.6209C19.7499 19.5609 19.7299 19.5109 19.7199 19.4509C19.6999 19.4009 19.6899 19.3409 19.6899 19.2809V13.2109C19.6899 12.7909 20.0299 12.4609 20.4399 12.4609C20.8499 12.4609 21.1899 12.7909 21.1899 13.2109Z" fill="white"/> <path d="M10.7999 13.9609H2.30994C1.89994 13.9609 1.55994 13.6209 1.55994 13.2109C1.55994 12.8009 1.89994 12.4609 2.30994 12.4609H10.0499V13.2109C10.0499 13.6209 10.3899 13.9609 10.7999 13.9609Z" fill="white"/> <path d="M22.44 13.2109C22.44 13.6209 22.1 13.9609 21.69 13.9609H13.21C13.63 13.9609 13.96 13.6209 13.96 13.2109V12.4609H21.69C22.1 12.4609 22.44 12.7909 22.44 13.2109Z" fill="white"/> <path d="M20.4399 17.5703H3.55994C3.14994 17.5703 2.80994 17.2303 2.80994 16.8203C2.80994 16.4103 3.14994 16.0703 3.55994 16.0703H20.4499C20.8599 16.0703 21.1999 16.4103 21.1999 16.8203C21.1999 17.2303 20.8599 17.5703 20.4499 17.5703H20.4399Z" fill="white"/> <path d="M2.80994 12.461V13.211C2.80994 13.621 3.13994 13.961 3.55994 13.961H5.96994C6.37994 13.961 6.71994 13.621 6.71994 13.211V12.461H2.80994ZM4.69994 11.541H4.84994C5.21994 11.501 5.51994 11.181 5.51994 10.801V10.041H4.01994V10.801C4.01994 11.191 4.31994 11.511 4.69994 11.541Z" fill="white"/> <path d="M6.71994 10.791V12.461H2.80994V10.791C2.80994 10.381 3.13994 10.041 3.55994 10.041H4.01994V10.801C4.01994 11.191 4.31994 11.511 4.69994 11.541C4.71994 11.551 4.74994 11.551 4.76994 11.551C4.79994 11.551 4.81994 11.551 4.84994 11.541C5.21994 11.501 5.51994 11.181 5.51994 10.801V10.041H5.96994C6.37994 10.041 6.71994 10.381 6.71994 10.791Z" fill="white"/> <path d="M5.52002 9.58984V10.7998C5.52002 11.1798 5.22002 11.4998 4.85002 11.5398C4.82002 11.5498 4.80002 11.5498 4.77002 11.5498C4.75002 11.5498 4.72002 11.5498 4.70002 11.5398C4.32002 11.5098 4.02002 11.1898 4.02002 10.7998V9.58984C4.02002 9.17984 4.36002 8.83984 4.77002 8.83984C5.18002 8.83984 5.52002 9.17984 5.52002 9.58984Z" fill="white"/> <path d="M10.7999 10.0508C10.3899 10.0508 10.0499 10.3808 10.0499 10.8008V12.4608H11.5499V11.5508H12.0099C12.4199 11.5508 12.7599 11.2108 12.7599 10.8008V10.0508H10.7999Z" fill="white"/> <path d="M13.9599 10.8008V13.2108C13.9599 13.6208 13.6299 13.9608 13.2099 13.9608H10.7999C10.3899 13.9608 10.0499 13.6208 10.0499 13.2108V12.4608H11.5499V11.5508H12.0099C12.4199 11.5508 12.7599 11.2108 12.7599 10.8008V10.0508H13.2099C13.6299 10.0508 13.9599 10.3808 13.9599 10.8008Z" fill="white"/> <path d="M12.76 9.58984V10.7998C12.76 11.2098 12.42 11.5498 12.01 11.5498C11.6 11.5498 11.26 11.2098 11.26 10.7998V9.58984C11.26 9.17984 11.59 8.83984 12.01 8.83984C12.43 8.83984 12.76 9.17984 12.76 9.58984Z" fill="white"/> <path d="M17.2799 12.461V13.211C17.2799 13.621 17.6199 13.961 18.0299 13.961H20.4399C20.8599 13.961 21.1899 13.621 21.1899 13.211V12.461H17.2799ZM19.1699 11.541H19.3199C19.6999 11.501 19.9899 11.181 19.9899 10.801V10.041H18.4899V10.801C18.4899 11.191 18.7899 11.511 19.1699 11.541Z" fill="white"/> <path d="M21.1899 10.791V12.461H17.2799V10.791C17.2799 10.381 17.6199 10.041 18.0299 10.041H18.4899V10.801C18.4899 11.191 18.7899 11.511 19.1699 11.541C19.1899 11.551 19.2199 11.551 19.2399 11.551C19.2699 11.551 19.2999 11.551 19.3199 11.541C19.6999 11.501 19.9899 11.181 19.9899 10.801V10.041H20.4399C20.8599 10.041 21.1899 10.381 21.1899 10.791Z" fill="white"/> <path d="M19.99 9.58984V10.7998C19.99 11.1798 19.7 11.4998 19.32 11.5398C19.3 11.5498 19.27 11.5498 19.24 11.5498C19.22 11.5498 19.19 11.5498 19.17 11.5398C18.79 11.5098 18.49 11.1898 18.49 10.7998V9.58984C18.49 9.17984 18.83 8.83984 19.24 8.83984C19.65 8.83984 19.99 9.17984 19.99 9.58984Z" fill="white"/> <path d="M16.37 9.58969V13.2097C16.37 13.6197 16.03 13.9597 15.62 13.9597C15.21 13.9597 14.87 13.6197 14.87 13.2097V9.58969C14.87 8.66969 14.12 7.92969 13.21 7.92969C12.79 7.92969 12.46 7.58969 12.46 7.17969C12.46 6.76969 12.79 6.42969 13.21 6.42969C13.47 6.42969 13.72 6.45969 13.96 6.51969C15.34 6.84969 16.37 8.09969 16.37 9.58969Z" fill="white"/> <path d="M11.54 7.17969C11.54 7.58969 11.21 7.92969 10.79 7.92969C9.88 7.92969 9.13 8.66969 9.13 9.58969V13.2097C9.13 13.6197 8.79 13.9597 8.38 13.9597C7.97 13.9597 7.63 13.6197 7.63 13.2097V9.58969C7.63 8.09969 8.66 6.84969 10.04 6.51969C10.28 6.45969 10.53 6.42969 10.79 6.42969C11.21 6.42969 11.54 6.75969 11.54 7.17969Z" fill="white"/> <path d="M13.2099 6.42977C12.7899 6.42977 12.4599 6.75977 12.4599 7.17977C12.4599 7.59977 12.7899 7.92977 13.2099 7.92977C13.6299 7.92977 13.9599 7.58977 13.9599 7.17977V6.51977C13.7199 6.45977 13.4699 6.42977 13.2099 6.42977ZM12.7499 4.75977V4.00977H11.2499V4.75977C11.2499 5.17977 11.5899 5.50977 11.9999 5.50977C12.4099 5.50977 12.7499 5.17977 12.7499 4.75977ZM10.7899 6.42977C10.5299 6.42977 10.2799 6.45977 10.0399 6.51977V7.17977C10.0399 7.58977 10.3799 7.92977 10.7899 7.92977C11.1999 7.92977 11.5399 7.58977 11.5399 7.17977C11.5399 6.76977 11.2099 6.42977 10.7899 6.42977Z" fill="white"/> <path d="M13.9599 4.75977V6.51977C13.7199 6.45977 13.4699 6.42977 13.2099 6.42977C12.7899 6.42977 12.4599 6.75977 12.4599 7.17977C12.4599 7.59977 12.7899 7.92977 13.2099 7.92977H10.7899C11.2099 7.92977 11.5399 7.58977 11.5399 7.17977C11.5399 6.76977 11.2099 6.42977 10.7899 6.42977C10.5299 6.42977 10.2799 6.45977 10.0399 6.51977V4.75977C10.0399 4.34977 10.3799 4.00977 10.7899 4.00977H11.2499V4.75977C11.2499 5.17977 11.5899 5.50977 11.9999 5.50977C12.4099 5.50977 12.7499 5.17977 12.7499 4.75977V4.00977H13.2099C13.6199 4.00977 13.9599 4.34977 13.9599 4.75977Z" fill="white"/> <path d="M12.75 2.31055V4.76055C12.75 5.18055 12.41 5.51055 12 5.51055C11.59 5.51055 11.25 5.18055 11.25 4.76055V2.31055C11.25 1.90055 11.59 1.56055 12 1.56055C12.41 1.56055 12.75 1.90055 12.75 2.31055Z" fill="white"/> <path d="M5.96997 17.5713C5.55997 17.5713 5.21997 17.2313 5.21997 16.8213V15.6113C5.21997 15.2013 5.55997 14.8613 5.96997 14.8613C6.37997 14.8613 6.71997 15.2013 6.71997 15.6113V16.8213C6.71997 17.2313 6.37997 17.5713 5.96997 17.5713Z" fill="white"/> <path d="M8.38 17.5713C7.97 17.5713 7.63 17.2313 7.63 16.8213V15.6113C7.63 15.2013 7.97 14.8613 8.38 14.8613C8.79 14.8613 9.13 15.2013 9.13 15.6113V16.8213C9.13 17.2313 8.79 17.5713 8.38 17.5713Z" fill="white"/> <path d="M10.7899 17.5713C10.3799 17.5713 10.0399 17.2313 10.0399 16.8213V15.6113C10.0399 15.2013 10.3799 14.8613 10.7899 14.8613C11.1999 14.8613 11.5399 15.2013 11.5399 15.6113V16.8213C11.5399 17.2313 11.1999 17.5713 10.7899 17.5713Z" fill="white"/> <path d="M13.21 17.5713C12.8 17.5713 12.46 17.2313 12.46 16.8213V15.6113C12.46 15.2013 12.8 14.8613 13.21 14.8613C13.62 14.8613 13.96 15.2013 13.96 15.6113V16.8213C13.96 17.2313 13.62 17.5713 13.21 17.5713Z" fill="white"/> <path d="M15.62 17.5713C15.21 17.5713 14.87 17.2313 14.87 16.8213V15.6113C14.87 15.2013 15.21 14.8613 15.62 14.8613C16.03 14.8613 16.37 15.2013 16.37 15.6113V16.8213C16.37 17.2313 16.03 17.5713 15.62 17.5713Z" fill="white"/> <path d="M18.0299 17.5713C17.6199 17.5713 17.2799 17.2313 17.2799 16.8213V15.6113C17.2799 15.2013 17.6199 14.8613 18.0299 14.8613C18.4399 14.8613 18.7799 15.2013 18.7799 15.6113V16.8213C18.7799 17.2313 18.4399 17.5713 18.0299 17.5713Z" fill="white"/> </g> <defs> <clipPath id="clip0_2085_384584"> <rect width="24" height="24" fill="white"/> </clipPath> </defs> </svg>
