<svg width="24" height="24" viewBox="0 0 24 24" fill="none" xmlns="http://www.w3.org/2000/svg"> <g clip-path="url(#clip0_2085_384111)"> <path d="M12.0899 16.08C11.6799 16.08 11.3399 15.74 11.3399 15.33C11.3399 14.92 11.6799 14.58 12.0899 14.58C15.3499 14.58 18.0099 11.93 18.0099 8.65999C18.0099 5.38999 15.3599 2.73999 12.0899 2.73999C8.81992 2.73999 6.16992 5.38999 6.16992 8.65999C6.16992 9.06999 5.82992 9.40999 5.41992 9.40999C5.00992 9.40999 4.66992 9.06999 4.66992 8.65999C4.66992 4.56999 7.99992 1.23999 12.0899 1.23999C16.1799 1.23999 19.5099 4.56999 19.5099 8.65999C19.5099 12.75 16.1799 16.08 12.0899 16.08Z" fill="white"/> <path d="M12.0901 22.7501C11.6801 22.7501 11.3401 22.4101 11.3401 22.0001V15.3301C11.3401 14.9201 11.6801 14.5801 12.0901 14.5801C12.5001 14.5801 12.8401 14.9201 12.8401 15.3301V22.0001C12.8401 22.4101 12.5001 22.7501 12.0901 22.7501Z" fill="white"/> <path d="M15.3199 19.4199H8.6499C8.2399 19.4199 7.8999 19.0799 7.8999 18.6699C7.8999 18.2599 8.2399 17.9199 8.6499 17.9199H15.3199C15.7299 17.9199 16.0699 18.2599 16.0699 18.6699C16.0699 19.0799 15.7299 19.4199 15.3199 19.4199Z" fill="white"/> </g> <defs> <clipPath id="clip0_2085_384111"> <rect width="24" height="24" fill="white"/> </clipPath> </defs> </svg>
