<svg width="24" height="24" viewBox="0 0 24 24" fill="none" xmlns="http://www.w3.org/2000/svg"> <g clip-path="url(#clip0_2085_389010)"> <path d="M13.2699 5.67023C14.2799 5.67023 15.1099 4.85023 15.1099 3.83023C15.1099 2.81023 14.2899 1.99023 13.2699 1.99023C12.2499 1.99023 11.4299 2.81023 11.4299 3.83023C11.4299 4.85023 12.2499 5.67023 13.2699 5.67023Z" fill="white"/> <path d="M13.2699 6.42023C11.8399 6.42023 10.6799 5.26023 10.6799 3.83023C10.6799 2.40023 11.8399 1.24023 13.2699 1.24023C14.6999 1.24023 15.8599 2.40023 15.8599 3.83023C15.8599 5.26023 14.6999 6.42023 13.2699 6.42023ZM13.2699 2.75023C12.6699 2.75023 12.1799 3.24023 12.1799 3.84023C12.1799 4.44023 12.6699 4.93023 13.2699 4.93023C13.8699 4.93023 14.3599 4.44023 14.3599 3.84023C14.3599 3.24023 13.8699 2.75023 13.2699 2.75023Z" fill="white"/> <path d="M14.4799 7.98967C14.1699 9.45967 13.4899 11.8997 12.1699 14.3697L10.2699 14.5597C9.37994 14.6497 8.69994 13.7897 8.98994 12.9497L10.5299 8.51967C10.7099 7.99967 11.2199 7.66967 11.7599 7.72967L14.4799 7.98967Z" fill="white"/> <path d="M10.14 15.3198C9.54003 15.3198 8.98003 15.0498 8.60003 14.5698C8.18003 14.0398 8.06003 13.3398 8.28003 12.7098L9.82003 8.27975C10.12 7.41975 10.95 6.87975 11.84 6.98975L14.55 7.24975C14.76 7.26975 14.96 7.37975 15.08 7.54975C15.2 7.71975 15.25 7.93975 15.21 8.14975C14.94 9.44975 14.26 12.0298 12.85 14.6898C12.74 14.9298 12.51 15.0998 12.24 15.1298L10.34 15.3098C10.27 15.3098 10.21 15.3098 10.14 15.3098V15.3198ZM11.64 8.46975C11.46 8.46975 11.3 8.58975 11.24 8.75975L9.70003 13.1898C9.63003 13.4098 9.73003 13.5698 9.78003 13.6298C9.83003 13.6898 9.97003 13.8298 10.2 13.8098L11.69 13.6698C12.67 11.7598 13.24 9.90975 13.56 8.64975L11.69 8.46975C11.69 8.46975 11.66 8.46975 11.64 8.46975Z" fill="white"/> <path d="M19.5201 22.7503C19.1601 22.7503 18.8501 22.4903 18.7801 22.1303L17.6501 15.6603C17.5401 15.0703 16.9901 14.6604 16.3901 14.7204L12.2401 15.1203C11.8301 15.1603 11.4601 14.8603 11.4201 14.4503C11.3801 14.0403 11.6801 13.6703 12.0901 13.6303L16.2401 13.2303C17.6001 13.0903 18.8701 14.0503 19.1201 15.4003L20.2501 21.8803C20.3201 22.2903 20.0501 22.6804 19.6401 22.7503C19.6001 22.7503 19.5501 22.7604 19.5101 22.7604L19.5201 22.7503Z" fill="white"/> <path d="M20.0499 9.28042C20.0499 9.28042 19.9999 9.28042 19.9799 9.28042L14.4099 8.74042C13.9999 8.70042 13.6999 8.33042 13.7399 7.92042C13.7799 7.51042 14.1499 7.20042 14.5599 7.25042L20.1299 7.79042C20.5399 7.83042 20.8399 8.20042 20.7999 8.61042C20.7599 9.00042 20.4399 9.29042 20.0499 9.29042V9.28042Z" fill="white"/> <path d="M3.95006 22.4802C3.63006 22.4802 3.34006 22.2802 3.24006 21.9602C3.11006 21.5702 3.32006 21.1402 3.72006 21.0102C6.14006 20.2102 8.23006 18.6902 9.93006 16.4902C10.1801 16.1602 10.6501 16.1002 10.9801 16.3502C11.3101 16.6002 11.3701 17.0702 11.1201 17.4002C9.24006 19.8402 6.91006 21.5302 4.19006 22.4302C4.11006 22.4602 4.03006 22.4702 3.96006 22.4702L3.95006 22.4802Z" fill="white"/> </g> <defs> <clipPath id="clip0_2085_389010"> <rect width="24" height="24" fill="white"/> </clipPath> </defs> </svg>
