<svg width="24" height="24" viewBox="0 0 24 24" fill="none" xmlns="http://www.w3.org/2000/svg"> <g clip-path="url(#clip0_2085_384573)"> <path d="M19.7398 12.3209C19.4998 12.0509 19.2498 11.8009 18.9798 11.5609C18.6998 11.3109 18.3998 11.0709 18.0998 10.8509C17.9498 10.7409 17.7998 10.6409 17.6498 10.5409C16.6698 9.90086 15.5898 9.44086 14.4498 9.17086C14.3198 9.14086 14.1898 9.11086 14.0498 9.08086C13.9198 9.05086 13.7798 9.03086 13.6398 9.01086C13.4698 8.98086 13.2898 8.96086 13.1098 8.94086C12.7498 8.90086 12.3698 8.88086 11.9998 8.88086C11.2498 8.88086 10.5098 8.96086 9.78983 9.12086C9.62983 9.15086 9.46983 9.19086 9.30983 9.24086C8.59983 9.43086 7.90983 9.69086 7.25983 10.0209C6.78983 10.2609 6.33983 10.5409 5.89983 10.8609C5.60983 11.0609 5.31983 11.2809 5.04983 11.5409C4.76983 11.7809 4.50983 12.0409 4.25983 12.3209C3.99983 12.6009 3.99983 13.0209 4.23983 13.3109C4.37983 13.4709 4.57983 13.5709 4.79983 13.5709C5.01983 13.5609 5.21983 13.4809 5.36983 13.3309C5.51983 13.1609 5.67983 13.0009 5.83983 12.8609C5.87983 12.8109 5.91983 12.7809 5.95983 12.7409C6.09983 12.6009 6.24983 12.4809 6.39983 12.3609C6.48983 12.2809 6.57983 12.2109 6.67983 12.1509C6.86983 11.9909 7.06983 11.8609 7.27983 11.7309C7.42983 11.6409 7.59983 11.5409 7.75983 11.4609C8.10983 11.2609 8.46983 11.1009 8.84983 10.9609C8.97983 10.9109 9.10983 10.8609 9.24983 10.8209C9.38983 10.7709 9.53983 10.7309 9.68983 10.6909C9.83983 10.6509 9.98983 10.6109 10.1398 10.5809C10.2698 10.5509 10.4098 10.5209 10.5398 10.5009C11.0198 10.4209 11.5098 10.3809 11.9998 10.3809C13.0298 10.3809 14.0298 10.5509 14.9698 10.8809C15.0898 10.9209 15.2098 10.9709 15.3298 11.0209C15.5698 11.1109 15.8098 11.2209 16.0398 11.3409C16.4498 11.5409 16.8398 11.7809 17.2198 12.0709C17.3398 12.1609 17.4698 12.2509 17.5898 12.3509C17.7098 12.4409 17.8298 12.5409 17.9498 12.6609C18.0198 12.7209 18.0898 12.7909 18.1598 12.8609C18.3198 13.0009 18.4798 13.1609 18.6298 13.3309C18.7798 13.4809 18.9798 13.5709 19.1898 13.5709H19.1998C19.4198 13.5709 19.6198 13.4709 19.7598 13.3109C19.9998 13.0209 19.9998 12.6009 19.7398 12.3209Z" fill="white"/> <path d="M22.04 10.6509L19.76 13.3109C20 13.0209 20 12.6009 19.74 12.3209C19.5 12.0509 19.25 11.8009 18.9799 11.5609C18.6999 11.3109 18.4 11.0709 18.1 10.8509C17.95 10.7409 17.7999 10.6409 17.65 10.5409C16.67 9.90094 15.59 9.44094 14.45 9.17094C14.32 9.13094 14.18 9.10094 14.05 9.08094C13.92 9.05094 13.78 9.03094 13.64 9.01094C13.46 8.98094 13.29 8.96094 13.11 8.94094C12.75 8.90094 12.37 8.88094 12 8.88094C11.25 8.88094 10.51 8.96094 9.78995 9.12094C9.62995 9.16094 9.46995 9.20094 9.30995 9.24094C8.59995 9.43094 7.90995 9.69094 7.25995 10.0209C6.78995 10.2609 6.33995 10.5409 5.89995 10.8609C5.60995 11.0609 5.31995 11.2809 5.04995 11.5409C4.76995 11.7809 4.50995 12.0409 4.25995 12.3209C3.99995 12.6009 3.99995 13.0209 4.23995 13.3109L1.95995 10.6509C1.41995 10.0309 1.17995 9.24094 1.26995 8.42094C1.35995 7.60094 1.79995 6.85094 2.45995 6.36094C8.16995 2.16094 15.83 2.16094 21.54 6.36094C22.2 6.85094 22.6399 7.60094 22.7299 8.42094C22.82 9.24094 22.58 10.0309 22.04 10.6509Z" fill="white"/> <path d="M19.7401 12.3209C19.5001 12.0509 19.2501 11.8009 18.9801 11.5609C18.7001 11.3109 18.4001 11.0709 18.1001 10.8509C17.9501 10.7409 17.8001 10.6409 17.6501 10.5409C16.6701 9.90086 15.5901 9.44086 14.4501 9.17086C14.3201 9.14086 14.1901 9.11086 14.0501 9.08086C13.9201 9.05086 13.7801 9.03086 13.6401 9.01086C13.4701 8.98086 13.2901 8.96086 13.1101 8.94086C12.7501 8.90086 12.3701 8.88086 12.0001 8.88086C11.2501 8.88086 10.5101 8.96086 9.79007 9.12086C9.63007 9.15086 9.47008 9.19086 9.31008 9.24086C8.60008 9.43086 7.91008 9.69086 7.26008 10.0209C6.79008 10.2709 6.33008 10.5409 5.90008 10.8609C5.60008 11.0709 5.32008 11.3009 5.05008 11.5409C4.77008 11.7809 4.51008 12.0409 4.26008 12.3209C4.00008 12.6009 4.00007 13.0209 4.24007 13.3109L8.05008 17.7309C7.98008 17.6209 7.95007 17.4809 7.95007 17.3509C7.95007 17.2109 7.99007 17.0509 8.07007 16.9309C8.28007 16.6009 8.53008 16.3109 8.81008 16.0509C8.76008 16.0909 8.72008 16.1309 8.68008 16.1709L5.84008 12.8609H5.83007C5.83007 12.8609 5.87008 12.8109 5.90008 12.8009C5.92008 12.7709 5.94008 12.7509 5.96008 12.7409C6.10008 12.6009 6.25008 12.4809 6.40008 12.3609C6.49008 12.2809 6.58008 12.2109 6.68007 12.1509C6.87007 11.9909 7.07008 11.8609 7.28008 11.7309C7.44008 11.6309 7.59008 11.5409 7.76008 11.4609C8.11008 11.2609 8.47008 11.1009 8.85008 10.9609C8.98008 10.9009 9.11007 10.8609 9.25007 10.8209C9.39007 10.7709 9.54007 10.7209 9.69007 10.6909C9.84007 10.6409 9.99008 10.6109 10.1401 10.5809C10.2701 10.5509 10.4001 10.5209 10.5401 10.5009C11.0201 10.4209 11.5101 10.3809 12.0001 10.3809C13.0301 10.3809 14.0301 10.5509 14.9701 10.8809C15.0901 10.9309 15.2101 10.9709 15.3301 11.0209C15.5701 11.1109 15.8101 11.2209 16.0401 11.3409C16.4501 11.5409 16.8401 11.7809 17.2201 12.0709C17.3501 12.1409 17.4701 12.2409 17.5901 12.3509C17.7101 12.4409 17.8301 12.5409 17.9501 12.6609C18.0201 12.7109 18.1001 12.7809 18.1701 12.8509H18.1601L15.3101 16.1809C15.2601 16.1309 15.2101 16.0809 15.1601 16.0409C15.4501 16.3009 15.7001 16.6109 15.9201 16.9509C16.1001 17.2309 16.0701 17.5909 15.8601 17.8409L19.7601 13.3109C20.0001 13.0209 20.0001 12.6009 19.7401 12.3209ZM14.3201 17.3309H14.3301C14.3301 17.3309 14.3001 17.2909 14.2801 17.2809C14.3001 17.3009 14.3101 17.3109 14.3201 17.3309Z" fill="white"/> <path d="M15.92 16.9493C15.7 16.6093 15.45 16.2993 15.16 16.0393C15.05 15.9293 14.93 15.8293 14.8 15.7393H14.79C14.79 15.7393 14.68 15.6493 14.62 15.6093C14.49 15.5093 14.36 15.4293 14.23 15.3593C14.09 15.2793 13.95 15.2093 13.81 15.1593C13.73 15.1193 13.65 15.0893 13.57 15.0693C13.57 15.0693 13.5666 15.066 13.56 15.0593C13.46 15.0093 13.35 14.9793 13.24 14.9593C13.21 14.9393 13.17 14.9293 13.13 14.9193C12.95 14.8793 12.77 14.8393 12.59 14.8193C12.4 14.7893 12.2 14.7793 12 14.7793C11.8 14.7793 11.61 14.7893 11.41 14.8193C11.24 14.8393 11.06 14.8693 10.89 14.9193C10.5 15.0093 10.13 15.1593 9.77995 15.3493C9.60995 15.4393 9.43995 15.5393 9.28995 15.6593C9.11995 15.7793 8.95995 15.9093 8.80995 16.0493C8.52995 16.3093 8.27995 16.5993 8.06995 16.9293C7.98995 17.0493 7.94995 17.2093 7.94995 17.3493C7.94995 17.4793 7.97995 17.6193 8.04995 17.7293C8.06995 17.7693 8.09995 17.8093 8.12995 17.8393L9.77995 19.7493C10.34 20.3993 11.14 20.7693 12 20.7693C12.86 20.7693 13.66 20.3893 14.22 19.7493L15.86 17.8393C16.07 17.5893 16.1 17.2293 15.92 16.9493ZM14.28 17.2793C14.28 17.2793 14.31 17.2993 14.33 17.3193H14.32C14.32 17.3193 14.3 17.2993 14.28 17.2793Z" fill="white"/> </g> <defs> <clipPath id="clip0_2085_384573"> <rect width="24" height="24" fill="white"/> </clipPath> </defs> </svg>
