<svg width="24" height="24" viewBox="0 0 24 24" fill="none" xmlns="http://www.w3.org/2000/svg"> <g clip-path="url(#clip0_2085_391757)"> <path d="M17.4999 18.27H10.651C10.4567 18.27 10.3258 18.0709 10.3982 17.8907C10.6275 17.3197 10.8387 16.6931 11.0099 16C11.1421 15.4622 11.2511 14.8854 11.3161 14.2767C11.331 14.1373 11.4476 14.03 11.5877 14.03H13.3499C14.0399 14.03 14.5899 13.48 14.5899 12.79C14.5899 12.1 14.0399 11.54 13.3499 11.54H11.4347C11.3136 11.54 11.2078 11.4592 11.1717 11.3437C11.0395 10.9212 10.8747 10.5343 10.7099 10.17C10.3899 9.43 10.1099 8.8 10.1099 7.85C10.1099 7.39 10.3899 6.89 10.8599 6.49C11.4299 6.01 12.1799 5.73 12.9299 5.73C13.5599 5.73 15.1299 6.11 15.7299 7.24C16.2099 8.14 17.3399 8.49 18.2499 8C19.1599 7.52 19.5099 6.39 19.0199 5.48C18.3899 4.29 17.3499 3.34 16.0099 2.72C15.0299 2.26 13.9099 2 12.9299 2C11.2899 2 9.68989 2.58 8.44989 3.64C7.12989 4.75 6.37989 6.29 6.37989 7.85C6.37989 9.27152 6.73616 10.3368 7.07782 11.1609C7.15237 11.3407 7.02197 11.54 6.82733 11.54H5.87989C5.18989 11.54 4.63989 12.1 4.63989 12.79C4.63989 13.48 5.18989 14.03 5.87989 14.03H7.27574C7.43754 14.03 7.56334 14.1714 7.53845 14.3313C7.45023 14.8979 7.30533 15.4562 7.10989 16C6.97989 16.41 6.80989 16.8 6.61989 17.19C6.10989 18.21 5.58989 18.81 5.53989 18.87C5.02989 19.41 4.89989 20.19 5.18989 20.88C5.48989 21.56 6.16989 22 6.91989 22H17.4999C18.5299 22 19.3599 21.16 19.3599 20.13C19.3599 19.1 18.5299 18.27 17.4999 18.27Z" fill="white"/> </g> <defs> <clipPath id="clip0_2085_391757"> <rect width="24" height="24" fill="white"/> </clipPath> </defs> </svg>
