<svg width="24" height="24" viewBox="0 0 24 24" fill="none" xmlns="http://www.w3.org/2000/svg">
<path fill-rule="evenodd" clip-rule="evenodd" d="M18 21C19.6569 21 21 19.6569 21 18V16.5C21 16.2239 20.7761 16 20.5 16H3.5C3.22386 16 3 16.2239 3 16.5V18C3 19.6569 4.34315 21 6 21H18ZM5 18.5C5 17.9477 5.44772 17.5 6 17.5H6.01C6.56228 17.5 7.01 17.9477 7.01 18.5C7.01 19.0523 6.56228 19.5 6.01 19.5H6C5.44772 19.5 5 19.0523 5 18.5ZM8 18.5C8 17.9477 8.44772 17.5 9 17.5H10C10.5523 17.5 11 17.9477 11 18.5C11 19.0523 10.5523 19.5 10 19.5H9C8.44772 19.5 8 19.0523 8 18.5Z" fill="black"/>
<path opacity="0.35" fill-rule="evenodd" clip-rule="evenodd" d="M21 6C21 4.34315 19.6569 3 18 3H6C4.34315 3 3 4.34315 3 6V13.5C3 13.7761 3.22386 14 3.5 14H20.5C20.7761 14 21 13.7761 21 13.5V6Z" fill="black"/>
<path d="M6 8.5H8L10 5.5L14 11.5L16 8.5H18" stroke="black" stroke-width="1.5" stroke-linecap="round" stroke-linejoin="round"/>
</svg>
