<svg width="24" height="24" viewBox="0 0 24 24" fill="none" xmlns="http://www.w3.org/2000/svg">
<path opacity="0.35" d="M8.5 2C8.77614 2 9 2.22386 9 2.5V6.99998C9 9.7614 11.2386 12 14 12H17.5C17.7761 12 18 12.2238 18 12.5L16.5 12.5C15.1193 12.5 14 13.6193 14 15C12.6193 15 11.5 16.1193 11.5 17.5V19C11.5 19.3556 11.5742 19.6938 11.708 20H6C4.34315 20 3 18.6569 3 17V5C3 3.34315 4.34315 2 6 2H8.5Z" fill="black"/>
<path d="M16 15.0001C16 14.724 16.2239 14.5001 16.5 14.5001H18C18.2761 14.5001 18.5 14.724 18.5 15.0001V16.7501C18.5 16.8882 18.6119 17.0001 18.75 17.0001H20.5C20.7761 17.0001 21 17.224 21 17.5001V19.0001C21 19.2763 20.7761 19.5001 20.5 19.5001H18.75C18.6119 19.5001 18.5 19.612 18.5 19.7501V21.5001C18.5 21.7763 18.2761 22.0001 18 22.0001H16.5C16.2239 22.0001 16 21.7763 16 21.5001V19.7501C16 19.612 15.8881 19.5001 15.75 19.5001H14C13.7239 19.5001 13.5 19.2763 13.5 19.0001V17.5001C13.5 17.224 13.7239 17.0001 14 17.0001H15.75C15.8881 17.0001 16 16.8882 16 16.7501V15.0001Z" fill="black"/>
<path d="M11.5967 2.6714L17.4948 9.4318C17.5617 9.50704 17.6224 9.58679 17.6767 9.67027C17.7737 9.8194 17.6546 10.0001 17.4767 10.0001H14C12.3431 10.0001 11 8.65699 11 7.00013V2.61857C11 2.4325 11.1954 2.31522 11.3414 2.43054C11.4327 2.50266 11.5182 2.58313 11.5967 2.6714Z" fill="black"/>
</svg>
