<svg width="24" height="24" viewBox="0 0 24 24" fill="none" xmlns="http://www.w3.org/2000/svg">
<path opacity="0.35" d="M2 7V16C2 17.6569 3.34315 19 5 19H13.4998C12.8927 18.5439 12.5 17.8178 12.5 17V15.5C12.5 14.1193 13.6193 13 15 13C15 11.6193 16.1193 10.5 17.5 10.5H19C19.8178 10.5 20.5439 10.8927 21 11.4998V10C21 8.34315 19.6569 7 18 7H14.1056C13.1025 7 12.1658 6.4987 11.6094 5.6641L11.3906 5.3359C10.8342 4.5013 9.89751 4 8.89445 4H5C3.34315 4 2 5.34315 2 7Z" fill="black"/>
<path d="M16.75 17.5C16.8881 17.5 17 17.6119 17 17.75V19.5C17 19.7761 17.2239 20 17.5 20H19C19.2761 20 19.5 19.7761 19.5 19.5V17.75C19.5 17.6119 19.6119 17.5 19.75 17.5H21.5C21.7761 17.5 22 17.2761 22 17V15.5C22 15.2239 21.7761 15 21.5 15H19.75C19.6119 15 19.5 14.8881 19.5 14.75V13C19.5 12.7239 19.2761 12.5 19 12.5H17.5C17.2239 12.5 17 12.7239 17 13V14.75C17 14.8881 16.8881 15 16.75 15H15C14.7239 15 14.5 15.2239 14.5 15.5V17C14.5 17.2761 14.7239 17.5 15 17.5H16.75Z" fill="black"/>
</svg>
