<svg width="24" height="24" viewBox="0 0 24 24" fill="none" xmlns="http://www.w3.org/2000/svg">
<path d="M15.8455 22.0002H8.16547C3.97547 22.0002 3.14547 19.4702 4.50547 16.3902L5.94547 13.1202C5.94547 13.1202 9.00547 13.0002 12.0055 14.0002C15.0055 15.0002 17.8355 13.1102 17.8355 13.1102L18.0255 12.9902L19.5155 16.4002C20.8555 19.4802 19.9755 22.0002 15.8455 22.0002Z" fill="black"/>
<path opacity="0.35" d="M18.0258 12.992L17.8358 13.112C17.8358 13.112 15.0058 15.002 12.0058 14.002C9.0058 13.002 5.9458 13.122 5.9458 13.122L8.7458 6.74195H8.4458C7.7958 6.74195 7.1958 6.48195 6.7658 6.05195C6.3358 5.62195 6.0758 5.02195 6.0758 4.37195C6.0758 3.07195 7.1358 2.00195 8.4458 2.00195H15.5558C16.2158 2.00195 16.8058 2.27195 17.2358 2.70195C17.7958 3.26195 18.0858 4.08195 17.8658 4.95195C17.6058 6.03195 16.5658 6.74195 15.4458 6.74195H15.2858L18.0258 12.992Z" fill="black"/>
</svg>
