<svg width="24" height="24" viewBox="0 0 24 24" fill="none" xmlns="http://www.w3.org/2000/svg">
<path d="M19.6003 5.50098L15.645 9.45632C16.1489 10.177 16.4446 11.0541 16.4446 12.0002C16.4446 12.9463 16.1489 13.8234 15.6449 14.5441L19.6002 18.4994C21.0964 16.7515 22 14.4813 22 12.0001C22 9.519 21.0964 7.24889 19.6003 5.50098Z" fill="black"/>
<path d="M4.39976 18.4994L8.35518 14.544C7.85128 13.8233 7.55566 12.9462 7.55566 12.0002C7.55566 11.0541 7.85124 10.1771 8.35508 9.45648L4.39966 5.50103C2.90359 7.24894 2 9.51902 2 12.0001C2 14.4813 2.90364 16.7515 4.39976 18.4994Z" fill="black"/>
<g opacity="0.35">
<path d="M18.5429 4.43714C16.7892 2.9187 14.502 2 12.0002 2C9.49843 2 7.2112 2.91872 5.45752 4.43719L9.40904 8.38874C10.1385 7.86436 11.0334 7.55556 12.0003 7.55556C12.9672 7.55556 13.862 7.86432 14.5915 8.38863L18.5429 4.43714Z" fill="black"/>
<path d="M18.5428 19.5629L14.5914 15.6115C13.8619 16.1357 12.9672 16.4444 12.0003 16.4444C11.0334 16.4444 10.1386 16.1357 9.40918 15.6114L5.45764 19.5629C7.2113 21.0813 9.49848 22 12.0002 22C14.502 22 16.7892 21.0813 18.5428 19.5629Z" fill="black"/>
</g>
</svg>
