<svg width="24" height="24" viewBox="0 0 24 24" fill="none" xmlns="http://www.w3.org/2000/svg">
<path fill-rule="evenodd" clip-rule="evenodd" d="M11 2.75C9.75736 2.75 8.75 3.75736 8.75 5V7C8.75 7.41421 8.41421 7.75 8 7.75C7.58579 7.75 7.25 7.41421 7.25 7V5C7.25 2.92893 8.92893 1.25 11 1.25H13C15.0711 1.25 16.75 2.92893 16.75 5V7C16.75 7.41421 16.4142 7.75 16 7.75C15.5858 7.75 15.25 7.41421 15.25 7V5C15.25 3.75736 14.2426 2.75 13 2.75H11Z" fill="black"/>
<path opacity="0.35" d="M2 10C2 7.79086 3.79086 6 6 6H18C20.2091 6 22 7.79086 22 10V18C22 20.2091 20.2091 22 18 22H6C3.79086 22 2 20.2091 2 18V10Z" fill="black"/>
<path d="M12.56 10H11.44C11.216 10 11.104 10 11.0184 10.0436C10.9431 10.0819 10.8819 10.1431 10.8436 10.2184C10.8 10.304 10.8 10.416 10.8 10.64V12.16C10.8 12.384 10.8 12.496 10.7564 12.5816C10.7181 12.6569 10.6569 12.7181 10.5816 12.7564C10.496 12.8 10.384 12.8 10.16 12.8H8.64C8.41598 12.8 8.30397 12.8 8.2184 12.8436C8.14314 12.8819 8.08195 12.9431 8.0436 13.0184C8 13.104 8 13.216 8 13.44V14.56C8 14.784 8 14.896 8.0436 14.9816C8.08195 15.0569 8.14314 15.1181 8.2184 15.1564C8.30397 15.2 8.41598 15.2 8.64 15.2H10.16C10.384 15.2 10.496 15.2 10.5816 15.2436C10.6569 15.2819 10.7181 15.3431 10.7564 15.4184C10.8 15.504 10.8 15.616 10.8 15.84V17.36C10.8 17.584 10.8 17.696 10.8436 17.7816C10.8819 17.8569 10.9431 17.9181 11.0184 17.9564C11.104 18 11.216 18 11.44 18H12.56C12.784 18 12.896 18 12.9816 17.9564C13.0569 17.9181 13.1181 17.8569 13.1564 17.7816C13.2 17.696 13.2 17.584 13.2 17.36V15.84C13.2 15.616 13.2 15.504 13.2436 15.4184C13.2819 15.3431 13.3431 15.2819 13.4184 15.2436C13.504 15.2 13.616 15.2 13.84 15.2H15.36C15.584 15.2 15.696 15.2 15.7816 15.1564C15.8569 15.1181 15.9181 15.0569 15.9564 14.9816C16 14.896 16 14.784 16 14.56V13.44C16 13.216 16 13.104 15.9564 13.0184C15.9181 12.9431 15.8569 12.8819 15.7816 12.8436C15.696 12.8 15.584 12.8 15.36 12.8H13.84C13.616 12.8 13.504 12.8 13.4184 12.7564C13.3431 12.7181 13.2819 12.6569 13.2436 12.5816C13.2 12.496 13.2 12.384 13.2 12.16V10.64C13.2 10.416 13.2 10.304 13.1564 10.2184C13.1181 10.1431 13.0569 10.0819 12.9816 10.0436C12.896 10 12.784 10 12.56 10Z" fill="#282930"/>
</svg>
