<svg width="24" height="24" viewBox="0 0 24 24" fill="none" xmlns="http://www.w3.org/2000/svg">
<path opacity="0.35" d="M6 15C6 15.1501 5.84418 15.2518 5.71176 15.1812C3.50323 14.0038 2 11.6775 2 9C2 5.13401 5.13401 2 9 2C11.6775 2 14.0038 3.50323 15.1812 5.71176C15.2518 5.84418 15.1501 6 15 6C10.0294 6 6 10.0294 6 15Z" fill="black"/>
<path d="M20.6064 10.8076C21.4817 11.9762 22 13.4276 22 15C22 18.866 18.866 22 15 22C13.4276 22 11.9762 21.4817 10.8076 20.6064L20.6064 10.8076ZM15 8C16.5724 8 18.0238 8.51829 19.1924 9.39355L9.39355 19.1914C8.51858 18.0229 8 16.5721 8 15C8 11.134 11.134 8 15 8Z" fill="black"/>
</svg>
