<svg width="24" height="24" viewBox="0 0 24 24" fill="none" xmlns="http://www.w3.org/2000/svg">
<path opacity="0.35" d="M20.2635 4.23913C17.8407 1.95243 15.3191 2.87334 13.3945 4.237C12.5612 4.82745 11.4367 4.82964 10.6007 4.243C8.66831 2.88705 6.13711 1.97356 3.73673 4.23913C-1.25783 8.95318 5.85015 20.8619 8.42006 20.8619C10.9738 20.8619 9.12047 13.5665 12.0002 13.4749C14.8796 13.5668 13.0264 20.8619 15.5801 20.8619C18.15 20.8619 25.258 8.95318 20.2635 4.23913Z" fill="black"/>
<path d="M3.73673 4.23909C6.13711 1.97352 8.66831 2.88701 10.6007 4.24296C11.0192 4.53659 11.5099 4.6827 12.0002 4.68136V13.4748C9.12047 13.5665 10.9738 20.8618 8.42006 20.8618C5.85015 20.8618 -1.25783 8.95314 3.73673 4.23909Z" fill="black"/>
</svg>
