<svg width="24" height="24" viewBox="0 0 24 24" fill="none" xmlns="http://www.w3.org/2000/svg"> <g clip-path="url(#clip0_4418_3530)"> <path d="M17.4 19.25H6.6C5.1 19.25 4.5 18.61 4.5 17.02V15.98C4.5 14.39 5.1 13.75 6.6 13.75H17.4C18.9 13.75 19.5 14.39 19.5 15.98V17.02C19.5 18.61 18.9 19.25 17.4 19.25Z" stroke="white" stroke-width="1.5" stroke-linecap="round" stroke-linejoin="round"/> <path d="M15.4 5.25H8.6C7.1 5.25 6.5 5.89 6.5 7.48V8.52C6.5 10.11 7.1 10.75 8.6 10.75H15.4C16.9 10.75 17.5 10.11 17.5 8.52" stroke="white" stroke-width="1.5" stroke-linecap="round" stroke-linejoin="round"/> <path d="M12 21.9996V19.5996" stroke="white" stroke-width="1.5" stroke-linecap="round" stroke-linejoin="round"/> <path d="M12 13V11" stroke="white" stroke-width="1.5" stroke-linecap="round" stroke-linejoin="round"/> <path d="M12 2V4.69" stroke="white" stroke-width="1.5" stroke-linecap="round" stroke-linejoin="round"/> </g> <defs> <clipPath id="clip0_4418_3530"> <rect width="24" height="24" fill="white"/> </clipPath> </defs> </svg>
