<svg width="24" height="24" viewBox="0 0 24 24" fill="none" xmlns="http://www.w3.org/2000/svg"> <g clip-path="url(#clip0_4418_3090)"> <path d="M10.02 4.46997L12 2" stroke="white" stroke-width="1.5" stroke-linecap="round" stroke-linejoin="round"/> <path d="M3.98975 16.9598C5.41975 19.9398 8.46976 21.9998 11.9998 21.9998C16.9098 21.9998 20.8898 18.0197 20.8898 13.1097C20.8898 8.19974 16.9098 4.21973 11.9998 4.21973C11.3198 4.21973 10.6597 4.30978 10.0197 4.45978" stroke="white" stroke-width="1.5" stroke-linecap="round" stroke-linejoin="round"/> <path d="M4.90988 7.7998C3.79988 9.2798 3.10986 11.1098 3.10986 13.1098" stroke="white" stroke-width="1.5" stroke-linecap="round" stroke-linejoin="round"/> <path d="M9.54004 15.92V10.5801L8.04004 12.2501" stroke="white" stroke-width="1.5" stroke-linecap="round" stroke-linejoin="round"/> <path d="M14 10.5801C15.1 10.5801 16 11.4801 16 12.5801V13.9301C16 15.0301 15.1 15.9301 14 15.9301C12.9 15.9301 12 15.0301 12 13.9301V12.5801C12 11.4701 12.9 10.5801 14 10.5801Z" stroke="white" stroke-width="1.5" stroke-linecap="round" stroke-linejoin="round"/> </g> <defs> <clipPath id="clip0_4418_3090"> <rect width="24" height="24" fill="white"/> </clipPath> </defs> </svg>
