<svg width="24" height="24" viewBox="0 0 24 24" fill="none" xmlns="http://www.w3.org/2000/svg"> <g clip-path="url(#clip0_655_9680)"> <path d="M8.66977 12C7.66977 12.78 6.88977 13.78 6.66977 15.11C6.22977 15.22 5.77977 15.33 5.33977 15.33C3.55977 15.33 2.00977 13.89 2.00977 12C2.00977 10.11 3.56977 8.67001 5.33977 8.67001C7.22977 8.67001 8.66977 10.11 8.66977 12Z" stroke="white" stroke-width="1.5" stroke-linecap="round" stroke-linejoin="round"/> <path d="M21.9998 12C21.9998 13.89 20.5598 15.33 18.6698 15.33C18.2298 15.33 17.7798 15.22 17.3398 15.11C17.0098 13.89 16.3398 12.78 15.3398 12C15.3398 10.11 16.7798 8.67001 18.6698 8.67001C20.5598 8.67001 21.9998 10.11 21.9998 12Z" stroke="white" stroke-width="1.5" stroke-linecap="round" stroke-linejoin="round"/> <path d="M12 10.89V2" stroke="white" stroke-width="1.5" stroke-linecap="round" stroke-linejoin="round"/> <path d="M5.33008 8.67V2" stroke="white" stroke-width="1.5" stroke-linecap="round" stroke-linejoin="round"/> <path d="M18.6699 8.67V2" stroke="white" stroke-width="1.5" stroke-linecap="round" stroke-linejoin="round"/> <path d="M6.5 16.5C6.5 13.46 8.96 11 12 11C15.04 11 17.5 13.46 17.5 16.5C17.5 19.54 15.04 22 12 22C10.21 22 8.62 21.14 7.61 19.82" stroke="white" stroke-width="1.5" stroke-linecap="round" stroke-linejoin="round"/> </g> <defs> <clipPath id="clip0_655_9680"> <rect width="24" height="24" fill="white"/> </clipPath> </defs> </svg>
