<svg width="24" height="24" viewBox="0 0 24 24" fill="none" xmlns="http://www.w3.org/2000/svg"> <g clip-path="url(#clip0_655_9684)"> <path d="M21.9994 2L19.1094 4.89" stroke="white" stroke-width="1.5" stroke-linecap="round" stroke-linejoin="round"/> <path d="M12 22C6.48 22 2 17.52 2 12C2 6.48 6.48 2 12 2C17.52 2 22 6.48 22 12C22 17.52 17.52 22 12 22Z" stroke="white" stroke-width="1.5" stroke-linecap="round" stroke-linejoin="round"/> <path d="M21.9991 12C21.9991 7.87 18.6491 4.52 14.5191 4.52C10.3891 4.52 7.03906 7.87 7.03906 12" stroke="white" stroke-width="1.5" stroke-linecap="round" stroke-linejoin="round"/> <path d="M7.0293 12C7.0293 14.65 9.1793 16.8 11.8293 16.8C14.4793 16.8 16.6293 14.65 16.6293 12" stroke="white" stroke-width="1.5" stroke-linecap="round" stroke-linejoin="round"/> </g> <defs> <clipPath id="clip0_655_9684"> <rect width="24" height="24" fill="white"/> </clipPath> </defs> </svg>
