<svg width="24" height="24" viewBox="0 0 24 24" fill="none" xmlns="http://www.w3.org/2000/svg"> <g clip-path="url(#clip0_4418_3404)"> <path d="M3.16992 7.43945L11.9999 12.5495L20.7699 7.46945" stroke="white" stroke-width="1.5" stroke-linecap="round" stroke-linejoin="round"/> <path d="M12 21.6091V12.5391" stroke="white" stroke-width="1.5" stroke-linecap="round" stroke-linejoin="round"/> <path d="M2.39014 13.2505V14.8305C2.39014 16.2105 3.38014 17.8905 4.59014 18.5605L9.93014 21.5305C11.0701 22.1605 12.9401 22.1605 14.0801 21.5305L19.4201 18.5605C20.6301 17.8905 21.6201 16.2105 21.6201 14.8305V9.17055C21.6201 7.79055 20.6301 6.11055 19.4201 5.44055L14.0801 2.47055C12.9401 1.84055 11.0701 1.84055 9.93014 2.47055L4.59014 5.44055C3.38014 6.11055 2.39014 7.79055 2.39014 9.17055" stroke="white" stroke-width="1.5" stroke-linecap="round" stroke-linejoin="round"/> </g> <defs> <clipPath id="clip0_4418_3404"> <rect width="24" height="24" fill="white"/> </clipPath> </defs> </svg>
