<svg width="24" height="24" viewBox="0 0 24 24" fill="none" xmlns="http://www.w3.org/2000/svg"> <g clip-path="url(#clip0_4418_3990)"> <path d="M1 22H23" stroke="white" stroke-width="1.5" stroke-miterlimit="10" stroke-linecap="round" stroke-linejoin="round"/> <path d="M19.7803 22.0108V17.5508" stroke="white" stroke-width="1.5" stroke-miterlimit="10" stroke-linecap="round" stroke-linejoin="round"/> <path d="M19.8001 10.8906C18.5801 10.8906 17.6001 11.8706 17.6001 13.0906V15.3606C17.6001 16.5806 18.5801 17.5606 19.8001 17.5606C21.0201 17.5606 22.0001 16.5806 22.0001 15.3606V13.0906C22.0001 11.8706 21.0201 10.8906 19.8001 10.8906Z" stroke="white" stroke-width="1.5" stroke-miterlimit="10" stroke-linecap="round" stroke-linejoin="round"/> <path d="M2.1001 6.02002C2.1001 4.01002 3.10015 3 5.09015 3H11.3201C13.3101 3 14.3001 4.01002 14.3001 6.02002V22" stroke="white" stroke-width="1.5" stroke-miterlimit="10" stroke-linecap="round" stroke-linejoin="round"/> <path d="M2.1001 21.9998V10.0098" stroke="white" stroke-width="1.5" stroke-miterlimit="10" stroke-linecap="round" stroke-linejoin="round"/> <path d="M5.7998 8.25H10.7498" stroke="white" stroke-width="1.5" stroke-miterlimit="10" stroke-linecap="round" stroke-linejoin="round"/> <path d="M5.7998 12H10.7498" stroke="white" stroke-width="1.5" stroke-miterlimit="10" stroke-linecap="round" stroke-linejoin="round"/> <path d="M8.25 22V18.25" stroke="white" stroke-width="1.5" stroke-miterlimit="10" stroke-linecap="round" stroke-linejoin="round"/> </g> <defs> <clipPath id="clip0_4418_3990"> <rect width="24" height="24" fill="white"/> </clipPath> </defs> </svg>
