<svg width="24" height="24" viewBox="0 0 24 24" fill="none" xmlns="http://www.w3.org/2000/svg"> <g clip-path="url(#clip0_655_9709)"> <path d="M5 12H19C20.65 12 22 13.35 22 15V19C22 20.65 20.65 22 19 22H5C3.35 22 2 20.65 2 19V15C2 13.35 3.35 12 5 12Z" stroke="white" stroke-width="1.5" stroke-linecap="round" stroke-linejoin="round"/> <path d="M9.57031 4.69C9.70031 4.44 9.88031 4.2 10.1103 4L12.0003 2L14.0003 4C15.1103 5.11 15.1103 6.89 14.0003 7.89C12.8903 9 11.1103 9 10.1103 7.89" stroke="white" stroke-width="1.5" stroke-linecap="round" stroke-linejoin="round"/> <path d="M12 12V8.67" stroke="white" stroke-width="1.5" stroke-linecap="round" stroke-linejoin="round"/> <path d="M2 16.22C2.67 15.55 3.56 15.22 4.56 15.22C6.56 15.22 8.23 16.89 8.23 18.89" stroke="white" stroke-width="1.5" stroke-linecap="round" stroke-linejoin="round"/> <path d="M8.33008 19C8.33008 17 10.0001 15.33 12.0001 15.33C14.0001 15.33 15.6701 17 15.6701 19" stroke="white" stroke-width="1.5" stroke-linecap="round" stroke-linejoin="round"/> <path d="M15.7793 19C15.7793 17 17.4493 15.33 19.4493 15.33C20.4493 15.33 21.3393 15.77 22.0093 16.33" stroke="white" stroke-width="1.5" stroke-linecap="round" stroke-linejoin="round"/> </g> <defs> <clipPath id="clip0_655_9709"> <rect width="24" height="24" fill="white"/> </clipPath> </defs> </svg>
