<svg width="24" height="24" viewBox="0 0 24 24" fill="none" xmlns="http://www.w3.org/2000/svg"> <g clip-path="url(#clip0_655_9836)"> <path d="M10.2906 16.53L8.00063 17.68C7.03063 18.17 5.89062 17.46 5.89062 16.37V14.71C5.89062 13.62 7.03063 12.92 8.00063 13.4L10.3006 14.55" stroke="white" stroke-width="1.5" stroke-linecap="round" stroke-linejoin="round"/> <path d="M13.6699 14.55L15.9699 13.4C16.9399 12.91 18.0799 13.62 18.0799 14.71V16.37C18.0799 17.46 16.9399 18.16 15.9699 17.68L13.6799 16.53" stroke="white" stroke-width="1.5" stroke-linecap="round" stroke-linejoin="round"/> <path d="M12.7298 17.27H11.2198C10.6898 17.27 10.2598 16.84 10.2598 16.31V14.8C10.2598 14.27 10.6898 13.84 11.2198 13.84H12.7298C13.2598 13.84 13.6898 14.27 13.6898 14.8V16.31C13.6898 16.84 13.2598 17.27 12.7298 17.27Z" stroke="white" stroke-width="1.5" stroke-linecap="round" stroke-linejoin="round"/> <path d="M11.9805 17.29L14.3805 22L15.1005 20.44L16.8305 20.73L15.0705 17.22" stroke="white" stroke-width="1.5" stroke-linecap="round" stroke-linejoin="round"/> <path d="M8.91039 17.23L7.15039 20.74L8.88039 20.45L9.60039 22.01L12.0004 17.3" stroke="white" stroke-width="1.5" stroke-linecap="round" stroke-linejoin="round"/> <path d="M11.9803 11.09C13.0303 11.09 13.8903 10.24 13.8903 9.18C13.8903 8.12 13.0303 7.27 11.9803 7.27C10.9303 7.27 10.0703 8.12 10.0703 9.18C10.0703 10.24 10.9303 11.09 11.9803 11.09Z" stroke="white" stroke-width="1.5" stroke-linecap="round" stroke-linejoin="round"/> <path d="M11.9794 5.36C12.3218 5.36 12.5994 5.08242 12.5994 4.74C12.5994 4.39758 12.3218 4.12 11.9794 4.12C11.637 4.12 11.3594 4.39758 11.3594 4.74C11.3594 5.08242 11.637 5.36 11.9794 5.36Z" fill="white"/> <path d="M16.4208 9.8C16.7632 9.8 17.0408 9.52242 17.0408 9.18C17.0408 8.83758 16.7632 8.56 16.4208 8.56C16.0784 8.56 15.8008 8.83758 15.8008 9.18C15.8008 9.52242 16.0784 9.8 16.4208 9.8Z" fill="white"/> <path d="M7.53992 9.8C7.88234 9.8 8.15992 9.52242 8.15992 9.18C8.15992 8.83758 7.88234 8.56 7.53992 8.56C7.19751 8.56 6.91992 8.83758 6.91992 9.18C6.91992 9.52242 7.19751 9.8 7.53992 9.8Z" fill="white"/> <path d="M8.85047 6.67C9.19289 6.67 9.47047 6.39242 9.47047 6.05C9.47047 5.70758 9.19289 5.43 8.85047 5.43C8.50805 5.43 8.23047 5.70758 8.23047 6.05C8.23047 6.39242 8.50805 6.67 8.85047 6.67Z" fill="white"/> <path d="M15.1102 6.67C15.4527 6.67 15.7302 6.39242 15.7302 6.05C15.7302 5.70758 15.4527 5.43 15.1102 5.43C14.7678 5.43 14.4902 5.70758 14.4902 6.05C14.4902 6.39242 14.7678 6.67 15.1102 6.67Z" fill="white"/> <path d="M5.26023 9.18V9.15C5.26023 8.94 5.21023 8.73 5.12023 8.53C5.03023 8.33 4.99023 8.11 4.99023 7.9C4.99023 7.46 5.18023 7.03 5.53023 6.73C5.70023 6.59 5.83023 6.42 5.92023 6.23C6.02023 6.03 6.07023 5.82 6.07023 5.6C6.07023 5.26 6.21023 4.95 6.41023 4.69C6.61023 4.44 6.89023 4.25 7.22023 4.17C7.43023 4.11 7.63023 4.01 7.80023 3.88C7.96023 3.75 8.10023 3.58 8.20023 3.39C8.46023 2.87 8.99023 2.56 9.55023 2.56C9.65023 2.56 9.76023 2.57 9.86023 2.59C9.96023 2.61 10.0602 2.62 10.1602 2.62C10.4902 2.62 10.8102 2.51 11.0802 2.31C11.3502 2.1 11.6802 2 12.0002 2C12.3202 2 12.6502 2.1 12.9202 2.31C13.2702 2.57 13.7102 2.67 14.1402 2.59C14.2402 2.57 14.3402 2.56 14.4402 2.56C15.0102 2.56 15.5302 2.87 15.8002 3.39C16.0002 3.77 16.3602 4.06 16.7802 4.17C17.1102 4.25 17.3902 4.44 17.5902 4.69C17.7902 4.95 17.9202 5.26 17.9302 5.6C17.9302 5.82 17.9802 6.03 18.0802 6.23C18.1702 6.42 18.3002 6.59 18.4702 6.73C18.8202 7.03 19.0102 7.46 19.0102 7.9C19.0102 8.11 18.9702 8.33 18.8802 8.53C18.7902 8.73 18.7402 8.94 18.7402 9.15C18.7402 9.36 18.7902 9.58 18.8802 9.78C18.9702 9.98 19.0102 10.19 19.0102 10.4C19.0102 10.84 18.8202 11.28 18.4702 11.57C18.3002 11.71 18.1702 11.89 18.0802 12.08C17.9802 12.27 17.9302 12.48 17.9302 12.7C17.9202 13.04 17.7902 13.36 17.5902 13.61" stroke="white" stroke-width="1.5" stroke-linecap="round" stroke-linejoin="round"/> <path d="M5.89062 12.03C5.89062 12.03 5.91063 12.06 5.92063 12.08C6.02063 12.27 6.07063 12.48 6.07063 12.7C6.07063 13.04 6.20063 13.35 6.39062 13.6" stroke="white" stroke-width="1.5" stroke-linecap="round" stroke-linejoin="round"/> </g> <defs> <clipPath id="clip0_655_9836"> <rect width="24" height="24" fill="white"/> </clipPath> </defs> </svg>
