<svg width="24" height="24" viewBox="0 0 24 24" fill="none" xmlns="http://www.w3.org/2000/svg"> <g clip-path="url(#clip0_4418_3457)"> <path d="M8.67987 11.9098L10.3299 12.3198L9.37988 16.1599C9.15988 17.0599 9.59986 17.3598 10.3599 16.8298L15.5399 13.2398C16.1699 12.7998 16.0799 12.2898 15.3299 12.0998L13.6799 11.6898L14.6299 7.84981C14.8499 6.94981 14.4099 6.64983 13.6499 7.17983L8.46988 10.7699C7.83988 11.2099 7.92987 11.7198 8.67987 11.9098Z" stroke="white" stroke-width="1.5" stroke-miterlimit="10" stroke-linecap="round" stroke-linejoin="round"/> <path d="M4 6C2.75 7.67 2 9.75 2 12C2 17.52 6.48 22 12 22C17.52 22 22 17.52 22 12C22 6.48 17.52 2 12 2C10.57 2 9.2 2.29998 7.97 2.84998" stroke="white" stroke-width="1.5" stroke-linecap="round" stroke-linejoin="round"/> </g> <defs> <clipPath id="clip0_4418_3457"> <rect width="24" height="24" fill="white"/> </clipPath> </defs> </svg>
