<svg width="24" height="24" viewBox="0 0 24 24" fill="none" xmlns="http://www.w3.org/2000/svg"> <g clip-path="url(#clip0_655_9835)"> <path d="M5.38086 13.69C5.80086 12.02 6.22086 10.47 6.54086 9.47" stroke="white" stroke-width="1.5" stroke-linecap="round" stroke-linejoin="round"/> <path d="M17.4601 9.59C18.0601 11.43 18.9601 15.07 19.6501 17.94C20.1401 20.01 18.5701 22 16.4401 22H7.55012C5.42012 22 3.85012 20.01 4.34012 17.95C4.45012 17.5 4.56012 17.02 4.68012 16.54" stroke="white" stroke-width="1.5" stroke-linecap="round" stroke-linejoin="round"/> <path d="M12.0009 15.56V12.45L10.9609 11.54" stroke="white" stroke-width="1.5" stroke-linecap="round" stroke-linejoin="round"/> <path d="M12 15.56V12.45L13.04 11.54" stroke="white" stroke-width="1.5" stroke-linecap="round" stroke-linejoin="round"/> <path d="M11.9996 15.56L9.03961 14.6L7.84961 15.3" stroke="white" stroke-width="1.5" stroke-linecap="round" stroke-linejoin="round"/> <path d="M12.0002 15.57L9.04023 14.61L8.49023 13.34" stroke="white" stroke-width="1.5" stroke-linecap="round" stroke-linejoin="round"/> <path d="M11.9999 15.56L10.1699 18.08L10.4699 19.43" stroke="white" stroke-width="1.5" stroke-linecap="round" stroke-linejoin="round"/> <path d="M11.9991 15.56L10.1691 18.08L8.78906 18.21" stroke="white" stroke-width="1.5" stroke-linecap="round" stroke-linejoin="round"/> <path d="M12 15.56L13.83 18.08L15.21 18.21" stroke="white" stroke-width="1.5" stroke-linecap="round" stroke-linejoin="round"/> <path d="M12 15.56L13.83 18.08L13.53 19.43" stroke="white" stroke-width="1.5" stroke-linecap="round" stroke-linejoin="round"/> <path d="M12 15.57L14.96 14.61L15.51 13.34" stroke="white" stroke-width="1.5" stroke-linecap="round" stroke-linejoin="round"/> <path d="M12 15.56L14.96 14.6L16.15 15.3" stroke="white" stroke-width="1.5" stroke-linecap="round" stroke-linejoin="round"/> <path d="M14.0391 5.9L16.5191 4.66C17.5691 4.14 18.8091 4.9 18.8091 6.07V7.87C18.8091 9.04 17.5691 9.81 16.5191 9.28L14.0391 8.04" stroke="white" stroke-width="1.5" stroke-linecap="round" stroke-linejoin="round"/> <path d="M9.95945 8.04L7.47945 9.28C6.42945 9.8 5.18945 9.04 5.18945 7.87V6.07C5.18945 4.9 6.42945 4.13 7.47945 4.66L9.95945 5.9" stroke="white" stroke-width="1.5" stroke-linecap="round" stroke-linejoin="round"/> <path d="M12.8907 9.01H11.1107C10.4807 9.01 9.9707 8.5 9.9707 7.87V6.08C9.9707 5.45 10.4807 4.94 11.1107 4.94H12.8907C13.5207 4.94 14.0307 5.45 14.0307 6.08V7.87C14.0307 8.5 13.5207 9.01 12.8907 9.01Z" stroke="white" stroke-width="1.5" stroke-linecap="round" stroke-linejoin="round"/> <path d="M8.57055 5.21L7.56055 2H12.0005" stroke="white" stroke-width="1.5" stroke-linecap="round" stroke-linejoin="round"/> <path d="M12 2H16.44L15.43 5.21" stroke="white" stroke-width="1.5" stroke-linecap="round" stroke-linejoin="round"/> <path d="M6.54 9.47C6.54 9.47 4.83 11.09 2 11.21" stroke="white" stroke-width="1.5" stroke-linecap="round" stroke-linejoin="round"/> <path d="M17.4609 9.47C17.4609 9.47 19.1709 11.09 22.0009 11.21" stroke="white" stroke-width="1.5" stroke-linecap="round" stroke-linejoin="round"/> </g> <defs> <clipPath id="clip0_655_9835"> <rect width="24" height="24" fill="white"/> </clipPath> </defs> </svg>
