<svg width="24" height="24" viewBox="0 0 24 24" fill="none" xmlns="http://www.w3.org/2000/svg"> <g clip-path="url(#clip0_655_9750)"> <path d="M2 10.32V19.78C2 21 3 22 4.22 22H9.78C11 22 12 21 12 19.78V6.44C12 5.22 11 4.22 9.78 4.22H4.22C3 4.22 2 5.22 2 6.44" stroke="white" stroke-width="1.5" stroke-linecap="round" stroke-linejoin="round"/> <path d="M4.7793 2L6.9993 4.22L9.2193 2" stroke="white" stroke-width="1.5" stroke-linecap="round" stroke-linejoin="round"/> <path d="M7 22V4.22" stroke="white" stroke-width="1.5" stroke-linecap="round" stroke-linejoin="round"/> <path d="M19.78 4.22H14.22C13 4.22 12 5.22 12 6.44V19.77C12 20.99 13 21.99 14.22 21.99H19.78C21 21.99 22 20.99 22 19.77V6.44C22 5.22 21 4.22 19.78 4.22Z" stroke="white" stroke-width="1.5" stroke-linecap="round" stroke-linejoin="round"/> <path d="M14.7793 2L16.9993 4.22L19.2193 2" stroke="white" stroke-width="1.5" stroke-linecap="round" stroke-linejoin="round"/> <path d="M17 22V4.22" stroke="white" stroke-width="1.5" stroke-linecap="round" stroke-linejoin="round"/> </g> <defs> <clipPath id="clip0_655_9750"> <rect width="24" height="24" fill="white"/> </clipPath> </defs> </svg>
