<svg width="24" height="24" viewBox="0 0 24 24" fill="none" xmlns="http://www.w3.org/2000/svg"> <g clip-path="url(#clip0_655_9833)"> <path d="M13.6803 10.59L12.0003 12.27L10.3203 10.59" stroke="white" stroke-width="1.5" stroke-linecap="round" stroke-linejoin="round"/> <path d="M15.7894 12.7L14.1094 14.38L15.7894 16.06" stroke="white" stroke-width="1.5" stroke-linecap="round" stroke-linejoin="round"/> <path d="M10.3203 18.17L12.0003 16.49L13.6803 18.17" stroke="white" stroke-width="1.5" stroke-linecap="round" stroke-linejoin="round"/> <path d="M8.21094 16.07L9.89094 14.39L8.21094 12.71" stroke="white" stroke-width="1.5" stroke-linecap="round" stroke-linejoin="round"/> <path d="M12 12.28V16.49" stroke="white" stroke-width="1.5" stroke-linecap="round" stroke-linejoin="round"/> <path d="M9.89062 14.38H14.1006" stroke="white" stroke-width="1.5" stroke-linecap="round" stroke-linejoin="round"/> <path d="M18.5392 14.5C18.4792 18.07 15.5792 20.93 11.9992 20.93C8.41922 20.93 5.44922 18 5.44922 14.38C5.44922 11.17 7.75922 8.5 10.8092 7.94C11.1892 7.87 11.5892 7.83 11.9992 7.83C12.4092 7.83 12.8092 7.87 13.1892 7.94C15.3192 8.33 17.0792 9.74 17.9492 11.65" stroke="white" stroke-width="1.5" stroke-linecap="round" stroke-linejoin="round"/> <path d="M13.1905 7.94V4.26C13.1905 3.6 12.6605 3.07 12.0005 3.07C11.3405 3.07 10.8105 3.6 10.8105 4.26V7.94" stroke="white" stroke-width="1.5" stroke-linecap="round" stroke-linejoin="round"/> <path d="M22 4.26C22 4.26 17.83 5.45 12 5.45C6.17 5.45 2 4.26 2 4.26" stroke="white" stroke-width="1.5" stroke-linecap="round" stroke-linejoin="round"/> </g> <defs> <clipPath id="clip0_655_9833"> <rect width="24" height="24" fill="white"/> </clipPath> </defs> </svg>
