<svg width="24" height="24" viewBox="0 0 24 24" fill="none" xmlns="http://www.w3.org/2000/svg"> <g clip-path="url(#clip0_4418_3781)"> <path d="M21.9999 17.2004C21.9999 19.8504 19.8499 22.0004 17.1999 22.0004C15.7799 22.0004 14.5099 21.3804 13.6299 20.4004C12.8699 19.5504 12.3999 18.4304 12.3999 17.2004C12.3999 14.5504 14.5499 12.4004 17.1999 12.4004C18.5699 12.4004 19.8099 12.9803 20.6899 13.9103C20.6799 13.9103 20.6799 13.9103 20.6899 13.9203C21.4999 14.7803 21.9999 15.9304 21.9999 17.2004Z" stroke="white" stroke-width="1.5" stroke-miterlimit="10" stroke-linecap="round" stroke-linejoin="round"/> <path d="M18.4802 18.54L15.9502 16" stroke="white" stroke-width="1.5" stroke-miterlimit="10" stroke-linecap="round" stroke-linejoin="round"/> <path d="M18.45 16.0293L15.9199 18.5693" stroke="white" stroke-width="1.5" stroke-miterlimit="10" stroke-linecap="round" stroke-linejoin="round"/> <path d="M7.56 3.09961C9.37 3.09961 10.99 3.97965 12 5.32965C13.01 3.97965 14.63 3.09961 16.44 3.09961C19.51 3.09961 22 5.59964 22 8.68964C22 10.6596 21.49 12.3996 20.69 13.9096C19.81 12.9796 18.57 12.3997 17.2 12.3997C14.55 12.3997 12.4 14.5496 12.4 17.1996C12.4 18.4296 12.87 19.5497 13.63 20.3997C13.26 20.5697 12.92 20.7096 12.62 20.8096C12.28 20.9296 11.72 20.9296 11.38 20.8096C8.48 19.8196 2 15.6896 2 8.68964C2 7.13964 2.62 5.73961 3.63 4.72961" stroke="white" stroke-width="1.5" stroke-linecap="round" stroke-linejoin="round"/> </g> <defs> <clipPath id="clip0_4418_3781"> <rect width="24" height="24" fill="white"/> </clipPath> </defs> </svg>
