<svg width="24" height="24" viewBox="0 0 24 24" fill="none" xmlns="http://www.w3.org/2000/svg"> <g clip-path="url(#clip0_4418_3794)"> <path d="M12.3301 17.4506C12.1501 17.5106 11.8401 17.5106 11.6601 17.4506C10.1001 16.9206 6.6001 14.6906 6.6001 10.9106C6.6001 9.24061 7.9401 7.89062 9.6001 7.89062C10.5801 7.89062 11.4501 8.36062 12.0001 9.10062C12.5401 8.37062 13.4201 7.89062 14.4001 7.89062C16.0601 7.89062 17.4001 9.24061 17.4001 10.9106C17.4001 14.6906 13.9001 16.9206 12.3301 17.4506Z" stroke="white" stroke-width="1.5" stroke-linecap="round" stroke-linejoin="round"/> <path d="M4 6C2.75 7.67 2 9.75 2 12C2 17.52 6.48 22 12 22C17.52 22 22 17.52 22 12C22 6.48 17.52 2 12 2C10.57 2 9.2 2.30001 7.97 2.85001" stroke="white" stroke-width="1.5" stroke-linecap="round" stroke-linejoin="round"/> </g> <defs> <clipPath id="clip0_4418_3794"> <rect width="24" height="24" fill="white"/> </clipPath> </defs> </svg>
