<svg width="24" height="24" viewBox="0 0 24 24" fill="none" xmlns="http://www.w3.org/2000/svg"> <g clip-path="url(#clip0_4418_3430)"> <path d="M12.9901 2.14972C15.3701 1.68972 17.9401 2.37972 19.7901 4.21972C22.7401 7.16972 22.7401 11.9797 19.7901 14.9197C17.7301 16.9697 14.7801 17.5997 12.1901 16.7897L7.48015 21.4897C7.14015 21.8397 6.47015 22.0497 5.99015 21.9797L3.81015 21.6797C3.09015 21.5797 2.42015 20.8997 2.31015 20.1797L2.01015 17.9997C1.94015 17.5197 2.17015 16.8497 2.50015 16.5097L3.62015 15.3897L7.19015 11.8197C6.39015 9.21972 7.01015 6.26972 9.07015 4.21972" stroke="white" stroke-width="1.5" stroke-miterlimit="10" stroke-linecap="round" stroke-linejoin="round"/> <path d="M6.89014 17.4902L9.19014 19.7902" stroke="white" stroke-width="1.5" stroke-miterlimit="10" stroke-linecap="round" stroke-linejoin="round"/> <path d="M14.5 11C15.3284 11 16 10.3284 16 9.5C16 8.67157 15.3284 8 14.5 8C13.6716 8 13 8.67157 13 9.5C13 10.3284 13.6716 11 14.5 11Z" stroke="white" stroke-width="1.5" stroke-linecap="round" stroke-linejoin="round"/> </g> <defs> <clipPath id="clip0_4418_3430"> <rect width="24" height="24" fill="white"/> </clipPath> </defs> </svg>
