<svg width="24" height="24" viewBox="0 0 24 24" fill="none" xmlns="http://www.w3.org/2000/svg"> <g clip-path="url(#clip0_655_9830)"> <path d="M5.92969 13.7V17.31V17.34L12.0097 22L18.0897 17.34V8.02001V8.01001L13.4997 4.49001H12.4397H11.9897H11.5797H10.5197L5.92969 8.01001V8.02001V10.85" stroke="white" stroke-width="1.5" stroke-linecap="round" stroke-linejoin="round"/> <path d="M13.77 17.31V17.33L12.01 21.99L10.25 17.33V17.31" stroke="white" stroke-width="1.5" stroke-linecap="round" stroke-linejoin="round"/> <path d="M10.25 8.02001L11.58 4.49001H12.45L13.78 8.01001" stroke="white" stroke-width="1.5" stroke-linecap="round" stroke-linejoin="round"/> <path d="M11.99 4.49C12.68 4.49 13.23 3.93 13.23 3.25C13.23 2.57 12.67 2.01 11.99 2.01C11.31 2.01 10.75 2.57 10.75 3.25C10.75 3.93 11.31 4.49 11.99 4.49Z" stroke="white" stroke-width="1.5" stroke-linecap="round" stroke-linejoin="round"/> <path d="M18.0897 8.02H5.92969" stroke="white" stroke-width="1.5" stroke-linecap="round" stroke-linejoin="round"/> <path d="M18.0702 17.31H5.91016" stroke="white" stroke-width="1.5" stroke-linecap="round" stroke-linejoin="round"/> <path d="M12 10.5L12.83 11.75L14.27 12.15L13.34 13.32L13.41 14.82L12.01 14.3L10.61 14.82L10.68 13.32L9.75 12.15L11.19 11.75L12.02 10.5H12Z" stroke="white" stroke-width="1.5" stroke-linecap="round" stroke-linejoin="round"/> </g> <defs> <clipPath id="clip0_655_9830"> <rect width="24" height="24" fill="white"/> </clipPath> </defs> </svg>
