<svg width="24" height="24" viewBox="0 0 24 24" fill="none" xmlns="http://www.w3.org/2000/svg"> <g clip-path="url(#clip0_4418_3492)"> <path d="M7.04021 3.3C4.01021 5.02 1.97021 8.27 1.97021 12C1.97021 17.52 6.45021 22 11.9702 22C17.4902 22 21.9702 17.52 21.9702 12C21.9702 6.48 17.4902 2 11.9702 2" stroke="white" stroke-width="1.5" stroke-linecap="round" stroke-linejoin="round"/> <path d="M12 16.5C14.4853 16.5 16.5 14.4853 16.5 12C16.5 9.51472 14.4853 7.5 12 7.5C9.51472 7.5 7.5 9.51472 7.5 12C7.5 14.4853 9.51472 16.5 12 16.5Z" stroke="white" stroke-width="1.5" stroke-linecap="round" stroke-linejoin="round"/> <path d="M4.8999 4.92969L8.4399 8.45969" stroke="white" stroke-width="1.5" stroke-linecap="round" stroke-linejoin="round"/> <path d="M4.8999 19.0691L8.4399 15.5391" stroke="white" stroke-width="1.5" stroke-linecap="round" stroke-linejoin="round"/> <path d="M19.0498 19.0691L15.5098 15.5391" stroke="white" stroke-width="1.5" stroke-linecap="round" stroke-linejoin="round"/> <path d="M19.0498 4.92969L15.5098 8.45969" stroke="white" stroke-width="1.5" stroke-linecap="round" stroke-linejoin="round"/> </g> <defs> <clipPath id="clip0_4418_3492"> <rect width="24" height="24" fill="white"/> </clipPath> </defs> </svg>
