<svg width="24" height="24" viewBox="0 0 24 24" fill="none" xmlns="http://www.w3.org/2000/svg"> <g clip-path="url(#clip0_4418_3786)"> <path d="M9.6499 13.7994L11.2599 15.0494C11.4699 15.2594 11.9399 15.3593 12.2499 15.3593H14.2299C14.8499 15.3593 15.5299 14.8894 15.6899 14.2694L16.9399 10.4793C17.1999 9.74933 16.7299 9.12935 15.9499 9.12935H13.8699C13.5599 9.12935 13.2999 8.86935 13.3499 8.50935L13.6099 6.84932C13.7099 6.37932 13.3999 5.85931 12.9299 5.70931C12.5099 5.54931 11.9899 5.75929 11.7899 6.06929L9.65991 9.23934" stroke="white" stroke-width="1.5" stroke-miterlimit="10"/> <path d="M7 13.7988V8.70874C7 7.97874 7.30999 7.71875 8.03999 7.71875H8.56C9.29 7.71875 9.60001 7.97874 9.60001 8.70874V13.7988C9.60001 14.5288 9.29 14.7888 8.56 14.7888H8.03999C7.30999 14.7888 7 14.5288 7 13.7988Z" stroke="white" stroke-width="1.5" stroke-linecap="round" stroke-linejoin="round"/> <path d="M3 4.96997C3 3.32997 4.34 2 6 2H18C19.66 2 21 3.32997 21 4.96997V15.88C21 17.52 19.66 18.85 18 18.85H17.24C16.44 18.85 15.68 19.16 15.12 19.72L13.41 21.41C12.63 22.18 11.36 22.18 10.58 21.41L8.87 19.72C8.31 19.16 7.54 18.85 6.75 18.85H6C4.34 18.85 3 17.52 3 15.88V9.06995" stroke="white" stroke-width="1.5" stroke-miterlimit="10" stroke-linecap="round" stroke-linejoin="round"/> </g> <defs> <clipPath id="clip0_4418_3786"> <rect width="24" height="24" fill="white"/> </clipPath> </defs> </svg>
