<svg width="24" height="24" viewBox="0 0 24 24" fill="none" xmlns="http://www.w3.org/2000/svg"> <g clip-path="url(#clip0_655_9760)"> <path d="M19.7807 2C21.0007 2 22.0007 3 22.0007 4.22C22.0007 5.44 21.0007 6.44 19.7807 6.44M15.3307 17.56C14.1107 17.56 13.1107 18.56 13.1107 19.78C13.1107 21 14.1107 22 15.3307 22H4.22068C2.71068 22 1.53068 20.47 2.18068 18.88C2.52068 18.05 3.39068 17.56 4.28068 17.56H15.3307ZM15.3307 17.56H6.44068V7.93M15.3307 17.56C13.9507 17.56 12.8507 18.84 13.1607 20.27C13.3907 21.36 14.4907 22.11 15.6007 21.99C16.3607 21.91 16.9307 21.49 17.3307 20.89C17.3307 20.78 17.4407 20.78 17.4407 20.67C17.5507 20.45 17.6607 20.11 17.6607 19.78V5.61C17.6607 4.11 18.4707 2.73 19.7707 2C19.1807 2 18.5807 2 17.9907 2H8.66068C7.44068 2 6.44068 3 6.44068 4.22" stroke="white" stroke-width="1.5" stroke-linecap="round" stroke-linejoin="round"/> </g> <defs> <clipPath id="clip0_655_9760"> <rect width="24" height="24" fill="white"/> </clipPath> </defs> </svg>
