<svg width="24" height="24" viewBox="0 0 24 24" fill="none" xmlns="http://www.w3.org/2000/svg"> <g clip-path="url(#clip0_655_9785)"> <path d="M3.10938 10.89C3.10938 13.67 4.32938 16.11 6.32938 17.67" stroke="white" stroke-width="1.5" stroke-linecap="round" stroke-linejoin="round"/> <path d="M17.6705 17.67C19.6705 16.11 20.8905 13.67 20.8905 10.89C20.8905 6 16.8905 2 12.0005 2C8.33055 2 5.17055 4.25 3.81055 7.44" stroke="white" stroke-width="1.5" stroke-linecap="round" stroke-linejoin="round"/> <path d="M21.9999 22L17.6699 17.67" stroke="white" stroke-width="1.5" stroke-linecap="round" stroke-linejoin="round"/> <path d="M6.33 17.67L2 22" stroke="white" stroke-width="1.5" stroke-linecap="round" stroke-linejoin="round"/> <path d="M8.66938 10.33C8.97938 10.33 9.22937 10.08 9.22937 9.76999C9.22937 9.45999 8.97938 9.20999 8.66938 9.20999C8.35938 9.20999 8.10938 9.45999 8.10938 9.76999C8.10938 10.08 8.35938 10.33 8.66938 10.33Z" fill="white" stroke="white" stroke-width="1.5" stroke-linecap="round" stroke-linejoin="round"/> <path d="M15.3295 10.33C15.6395 10.33 15.8895 10.08 15.8895 9.76999C15.8895 9.45999 15.6395 9.20999 15.3295 9.20999C15.0195 9.20999 14.7695 9.45999 14.7695 9.76999C14.7695 10.08 15.0195 10.33 15.3295 10.33Z" fill="white" stroke="white" stroke-width="1.5" stroke-linecap="round" stroke-linejoin="round"/> <path d="M12.0007 12L9.2207 14.78" stroke="white" stroke-width="1.5" stroke-linecap="round" stroke-linejoin="round"/> </g> <defs> <clipPath id="clip0_655_9785"> <rect width="24" height="24" fill="white"/> </clipPath> </defs> </svg>
