<svg width="24" height="24" viewBox="0 0 24 24" fill="none" xmlns="http://www.w3.org/2000/svg"> <g clip-path="url(#clip0_4482_12057)"> <path d="M15.2202 20.3799H20.6302" stroke="white" stroke-width="1.5" stroke-linecap="round" stroke-linejoin="round"/> <path d="M3.33008 20.3799H8.74008" stroke="white" stroke-width="1.5" stroke-linecap="round" stroke-linejoin="round"/> <path d="M11.9702 14.9902V18.7502" stroke="white" stroke-width="1.5" stroke-linecap="round" stroke-linejoin="round"/> <path d="M10.35 18.7598H13.59C14.49 18.7598 15.21 19.4898 15.21 20.3798C15.21 21.2798 14.48 21.9998 13.59 21.9998H10.35C9.44998 21.9998 8.72998 21.2698 8.72998 20.3798C8.72998 19.4798 9.45998 18.7598 10.35 18.7598Z" stroke="white" stroke-width="1.5" stroke-linecap="round" stroke-linejoin="round"/> <path d="M6.59006 14.9699C4.50006 14.9699 2.81006 13.2799 2.81006 11.1899C2.81006 9.09991 4.50006 7.40991 6.59006 7.40991H6.86006V7.26991C6.86006 4.53991 8.95006 2.24991 11.6701 2.01991C14.3901 1.78991 16.8401 3.67991 17.3101 6.36991C19.6001 6.59991 21.3001 8.58991 21.1801 10.8899C21.0601 13.1899 19.1601 14.9799 16.8601 14.9799H6.59006V14.9699Z" stroke="white" stroke-width="1.5" stroke-linecap="round" stroke-linejoin="round"/> <path d="M12 7.9502V11.1902" stroke="white" stroke-width="1.5" stroke-linecap="round" stroke-linejoin="round"/> <path d="M10.3799 9.57031H13.6199" stroke="white" stroke-width="1.5" stroke-linecap="round" stroke-linejoin="round"/> </g> <defs> <clipPath id="clip0_4482_12057"> <rect width="24" height="24" fill="white"/> </clipPath> </defs> </svg>
