<svg width="24" height="24" viewBox="0 0 24 24" fill="none" xmlns="http://www.w3.org/2000/svg"> <g clip-path="url(#clip0_4482_7588)"> <path d="M3.10986 11.16V6.35C3.10986 5.78 3.53986 5.30001 4.10986 5.25001C6.75986 5.04001 9.27986 4 11.2899 2.26C11.6999 1.92 12.2999 1.92 12.7099 2.26C14.7299 3.99 17.2399 5.04001 19.8899 5.25001C20.4599 5.30001 20.8899 5.78 20.8899 6.35V11.16C20.7699 16.18 17.3999 20.53 12.5799 21.92C12.1999 22.03 11.7999 22.03 11.4199 21.92C6.59986 20.53 3.22986 16.17 3.10986 11.16Z" stroke="white" stroke-width="1.5" stroke-linecap="round" stroke-linejoin="round"/> <path d="M9.77979 12H14.2298" stroke="white" stroke-width="1.5" stroke-linecap="round" stroke-linejoin="round"/> <path d="M12 14.22V9.78003" stroke="white" stroke-width="1.5" stroke-linecap="round" stroke-linejoin="round"/> </g> <defs> <clipPath id="clip0_4482_7588"> <rect width="24" height="24" fill="white"/> </clipPath> </defs> </svg>
