<svg width="24" height="24" viewBox="0 0 24 24" fill="none" xmlns="http://www.w3.org/2000/svg"> <g clip-path="url(#clip0_4482_14832)"> <path d="M22.0001 13.5195H10.8901" stroke="white" stroke-width="1.5" stroke-linecap="round" stroke-linejoin="round"/> <path d="M22.0001 10H10.8901" stroke="white" stroke-width="1.5" stroke-linecap="round" stroke-linejoin="round"/> <path d="M22.0001 20.8896H10.8901" stroke="white" stroke-width="1.5" stroke-linecap="round" stroke-linejoin="round"/> <path d="M4.22 21.9996C5.44607 21.9996 6.44 21.0056 6.44 19.7796C6.44 18.5535 5.44607 17.5596 4.22 17.5596C2.99393 17.5596 2 18.5535 2 19.7796C2 21.0056 2.99393 21.9996 4.22 21.9996Z" stroke="white" stroke-width="1.5" stroke-linecap="round" stroke-linejoin="round"/> <path d="M10.8901 17.4004H17.5601" stroke="white" stroke-width="1.5" stroke-linecap="round" stroke-linejoin="round"/> <path d="M4.22 6.44C5.44607 6.44 6.44 5.44607 6.44 4.22C6.44 2.99393 5.44607 2 4.22 2C2.99393 2 2 2.99393 2 4.22C2 5.44607 2.99393 6.44 4.22 6.44Z" stroke="white" stroke-width="1.5" stroke-linecap="round" stroke-linejoin="round"/> <path d="M4.22021 9.78027V14.2203" stroke="white" stroke-width="1.5" stroke-linecap="round" stroke-linejoin="round"/> <path d="M2 12H6.44" stroke="white" stroke-width="1.5" stroke-linecap="round" stroke-linejoin="round"/> <path d="M10.8901 6.16016H22.0001" stroke="white" stroke-width="1.5" stroke-linecap="round" stroke-linejoin="round"/> <path d="M10.8901 3H17.5601" stroke="white" stroke-width="1.5" stroke-linecap="round" stroke-linejoin="round"/> </g> <defs> <clipPath id="clip0_4482_14832"> <rect width="24" height="24" fill="white"/> </clipPath> </defs> </svg>
