<svg width="24" height="24" viewBox="0 0 24 24" fill="none" xmlns="http://www.w3.org/2000/svg"> <g clip-path="url(#clip0_4482_7553)"> <path d="M11.9999 7.56C16.9097 7.56 20.8899 6.31535 20.8899 4.78C20.8899 3.24465 16.9097 2 11.9999 2C7.09005 2 3.10986 3.24465 3.10986 4.78C3.10986 6.31535 7.09005 7.56 11.9999 7.56Z" stroke="white" stroke-width="1.5" stroke-linecap="round" stroke-linejoin="round"/> <path d="M20.8799 4.91998C20.8799 4.91998 19.5599 14.42 18.9599 18.77C18.7799 20.15 17.7399 21.27 16.3799 21.57C13.4899 22.15 10.5199 22.15 7.62988 21.57C6.25988 21.27 5.22988 20.15 5.04988 18.77C4.44988 14.42 3.12988 4.91998 3.12988 4.91998" stroke="white" stroke-width="1.5" stroke-linecap="round" stroke-linejoin="round"/> <path d="M12 12.62V15.95" stroke="white" stroke-width="1.5" stroke-linecap="round" stroke-linejoin="round"/> <path d="M13.6698 14.29H10.3398" stroke="white" stroke-width="1.5" stroke-linecap="round" stroke-linejoin="round"/> </g> <defs> <clipPath id="clip0_4482_7553"> <rect width="24" height="24" fill="white"/> </clipPath> </defs> </svg>
