<svg width="24" height="24" viewBox="0 0 24 24" fill="none" xmlns="http://www.w3.org/2000/svg"> <g clip-path="url(#clip0_4482_4111)"> <path d="M13.17 5.67025L13.01 5.33025C12.27 3.75025 10.38 3.06025 8.8 3.80025L4.33003 5.89025C2.75003 6.63025 2.06 8.52025 2.8 10.1002L6.78999 18.6702C7.52999 20.2502 9.42001 20.9402 11 20.2002L15 18.3302" stroke="white" stroke-width="1.5" stroke-miterlimit="10" stroke-linecap="round"/> <path d="M18.5001 18.3299H11.8401C10.1801 18.3299 8.84009 16.9899 8.84009 15.3299V8.66992C8.84009 7.00992 10.1801 5.66992 11.8401 5.66992H18.5001C20.1601 5.66992 21.5001 7.00992 21.5001 8.66992V15.3299C21.5001 16.9899 20.1601 18.3299 18.5001 18.3299Z" stroke="white" stroke-width="1.5" stroke-miterlimit="10" stroke-linecap="round"/> <path d="M15.15 9.49023V14.7702" stroke="white" stroke-width="1.5" stroke-miterlimit="10" stroke-linecap="round"/> <path d="M17.88 12.1299H12.6" stroke="white" stroke-width="1.5" stroke-miterlimit="10" stroke-linecap="round"/> </g> <defs> <clipPath id="clip0_4482_4111"> <rect width="24" height="24" fill="white"/> </clipPath> </defs> </svg>
