<svg width="24" height="24" viewBox="0 0 24 24" fill="none" xmlns="http://www.w3.org/2000/svg"> <g clip-path="url(#clip0_3111_11561)"> <path d="M21.56 12C21.56 7.55 18.61 3.75 14.56 2.46" stroke="white" stroke-width="1.5" stroke-linecap="round" stroke-linejoin="round"/> <path d="M2.00999 14.97C3.27999 19.03 7.08999 22 11.56 22C12.64 22 13.68 21.83 14.65 21.51" stroke="white" stroke-width="1.5" stroke-linecap="round" stroke-linejoin="round"/> <path d="M1.84999 9.6C2.73999 6.01 5.56999 3.18 9.15999 2.29C10.39 1.99 11.56 2.98 11.56 4.25V10C11.56 11.1 10.66 12 9.55999 12H3.80999C2.53999 12 1.54999 10.83 1.84999 9.6Z" stroke="white" stroke-width="1.5" stroke-linecap="round" stroke-linejoin="round"/> <path d="M14.79 17.13L16.03 17.42C16.92 17.63 17.61 18.32 17.81 19.2L18.1 20.44C18.13 20.57 18.32 20.57 18.35 20.44L18.64 19.2C18.85 18.31 19.54 17.62 20.42 17.42L21.66 17.13C21.79 17.1 21.79 16.91 21.66 16.88L20.42 16.59C19.53 16.38 18.84 15.69 18.64 14.81L18.35 13.57C18.32 13.44 18.13 13.44 18.1 13.57L17.81 14.81C17.6 15.7 16.91 16.39 16.03 16.59L14.79 16.88C14.66 16.91 14.66 17.1 14.79 17.13Z" stroke="white" stroke-width="1.5" stroke-miterlimit="10"/> </g> <defs> <clipPath id="clip0_3111_11561"> <rect width="24" height="24" fill="white"/> </clipPath> </defs> </svg>
