<svg width="24" height="24" viewBox="0 0 24 24" fill="none" xmlns="http://www.w3.org/2000/svg"> <g clip-path="url(#clip0_3111_11833)"> <path d="M12.91 20.03H6.91C4.15 20.03 1.91 17.79 1.91 15.03V8.03C1.91 5.27 4.15 3.03 6.91 3.03H16.91C19.67 3.03 21.91 5.27 21.91 8.03V12.03" stroke="white" stroke-width="1.5" stroke-linecap="round" stroke-linejoin="round"/> <path d="M11.91 14.03C13.29 14.03 14.41 12.91 14.41 11.53C14.41 10.15 13.29 9.03 11.91 9.03C10.53 9.03 9.41 10.15 9.41 11.53C9.41 12.91 10.53 14.03 11.91 14.03Z" stroke="white" stroke-width="1.5" stroke-linecap="round" stroke-linejoin="round"/> <path d="M5.91 15.53H7.91" stroke="white" stroke-width="1.5" stroke-linecap="round" stroke-linejoin="round"/> <path d="M15.91 7.53H17.91" stroke="white" stroke-width="1.5" stroke-linecap="round" stroke-linejoin="round"/> <path d="M22 17.83L20.85 18.09C20.03 18.28 19.39 18.91 19.19 19.73L18.92 20.87C18.89 20.99 18.72 20.99 18.69 20.87L18.43 19.72C18.24 18.9 17.61 18.26 16.79 18.06L15.65 17.79C15.53 17.76 15.53 17.59 15.65 17.56L16.8 17.3C17.62 17.11 18.26 16.48 18.46 15.66L18.73 14.52C18.76 14.4 18.93 14.4 18.96 14.52L19.22 15.67C19.41 16.49 20.04 17.13 20.86 17.33L22 17.6C22.12 17.63 22.12 17.8 22 17.83Z" stroke="white" stroke-width="1.5" stroke-miterlimit="10"/> </g> <defs> <clipPath id="clip0_3111_11833"> <rect width="24" height="24" fill="white"/> </clipPath> </defs> </svg>
