<svg width="24" height="24" viewBox="0 0 24 24" fill="none" xmlns="http://www.w3.org/2000/svg"> <g clip-path="url(#clip0_3111_12774)"> <path d="M6.26 8.95001C2.1 9.25001 2.11 15.27 6.26 15.57H16.11C17.3 15.58 18.45 15.13 19.34 14.33C22.26 11.78 20.7 6.68001 16.85 6.20001C15.48 -2.10999 3.46 1.04001 6.3 8.95001" stroke="white" stroke-width="1.5" stroke-linecap="round" stroke-linejoin="round"/> <path d="M12 15.57V18.63" stroke="white" stroke-width="1.5" stroke-linecap="round" stroke-linejoin="round"/> <path d="M12 22.7C13.13 22.7 14.04 21.79 14.04 20.66C14.04 19.53 13.13 18.62 12 18.62C10.87 18.62 9.96001 19.53 9.96001 20.66C9.96001 21.79 10.87 22.7 12 22.7Z" stroke="white" stroke-width="1.5" stroke-linecap="round" stroke-linejoin="round"/> <path d="M18.12 20.67H14.04" stroke="white" stroke-width="1.5" stroke-linecap="round" stroke-linejoin="round"/> <path d="M9.96 20.67H5.88" stroke="white" stroke-width="1.5" stroke-linecap="round" stroke-linejoin="round"/> <path d="M15.23 8.06V12.09" stroke="white" stroke-width="1.5" stroke-linecap="round" stroke-linejoin="round"/> <path d="M12.69 12.09L10.73 8.06L8.77 12.09" stroke="white" stroke-width="1.5" stroke-linecap="round" stroke-linejoin="round"/> <path d="M9.26001 11.16H12.22" stroke="white" stroke-width="1.5" stroke-linecap="round" stroke-linejoin="round"/> </g> <defs> <clipPath id="clip0_3111_12774"> <rect width="24" height="24" fill="white"/> </clipPath> </defs> </svg>
