<svg width="24" height="24" viewBox="0 0 24 24" fill="none" xmlns="http://www.w3.org/2000/svg"> <g clip-path="url(#clip0_3111_11460)"> <path d="M21.38 16.54L19.7 16.93C18.5 17.21 17.57 18.14 17.29 19.34L16.9 21.02C16.86 21.2 16.6 21.2 16.56 21.02L16.17 19.34C15.89 18.14 14.96 17.21 13.76 16.93L12.08 16.54C11.9 16.5 11.9 16.24 12.08 16.2L13.76 15.81C14.96 15.53 15.89 14.6 16.17 13.4L16.56 11.72C16.6 11.54 16.86 11.54 16.9 11.72L17.29 13.4C17.57 14.6 18.5 15.53 19.7 15.81L21.38 16.2C21.56 16.24 21.56 16.5 21.38 16.54Z" stroke="white" stroke-width="1.5" stroke-miterlimit="10"/> <path d="M17.56 4.22H6.44" stroke="white" stroke-width="1.5" stroke-linecap="round" stroke-linejoin="round"/> <path d="M6.44 4.22C6.44 5.45 5.45 6.44 4.22 6.44C2.99 6.44 2 5.45 2 4.22C2 2.99 2.99 2 4.22 2C5.45 2 6.44 2.99 6.44 4.22Z" stroke="white" stroke-width="1.5" stroke-linecap="round" stroke-linejoin="round"/> <path d="M4.22 6.44V17.55" stroke="white" stroke-width="1.5" stroke-linecap="round" stroke-linejoin="round"/> <path d="M19.78 9.78V6.45" stroke="white" stroke-width="1.5" stroke-linecap="round" stroke-linejoin="round"/> <path d="M17.56 4.22C17.56 2.99 18.55 2 19.78 2C21.01 2 22 2.99 22 4.22C22 5.45 21.01 6.44 19.78 6.44C18.55 6.44 17.56 5.45 17.56 4.22Z" stroke="white" stroke-width="1.5" stroke-linecap="round" stroke-linejoin="round"/> <path d="M9.78 19.78H6.45" stroke="white" stroke-width="1.5" stroke-linecap="round" stroke-linejoin="round"/> <path d="M4.22 22C2.99 22 2 21.01 2 19.78C2 18.55 2.99 17.56 4.22 17.56C5.45 17.56 6.44 18.55 6.44 19.78C6.44 21.01 5.45 22 4.22 22Z" stroke="white" stroke-width="1.5" stroke-linecap="round" stroke-linejoin="round"/> </g> <defs> <clipPath id="clip0_3111_11460"> <rect width="24" height="24" fill="white"/> </clipPath> </defs> </svg>
