<svg width="24" height="24" viewBox="0 0 24 24" fill="none" xmlns="http://www.w3.org/2000/svg"> <g clip-path="url(#clip0_3111_12351)"> <path d="M22.08 19.51L21.03 19.76C20.28 19.94 19.69 20.52 19.52 21.27L19.27 22.32C19.24 22.43 19.08 22.43 19.06 22.32L18.81 21.27C18.63 20.52 18.05 19.93 17.3 19.76L16.25 19.51C16.14 19.48 16.14 19.32 16.25 19.3L17.3 19.05C18.05 18.87 18.64 18.29 18.81 17.54L19.06 16.49C19.09 16.38 19.25 16.38 19.27 16.49L19.52 17.54C19.7 18.29 20.28 18.88 21.03 19.05L22.08 19.3C22.19 19.33 22.19 19.49 22.08 19.51Z" stroke="white" stroke-width="1.5" stroke-miterlimit="10"/> <path d="M13.42 21.6H5.23C2.52 21.6 2.4 20.43 2.25 18.9L1.85 13.89C1.77 13.06 2.03 12.29 2.5 11.7C2.5 11.7 2.50667 11.6933 2.52 11.68C3.07 11.01 3.9 10.59 4.83 10.59H18.23C19.16 10.59 19.98 11.01 20.52 11.66C20.52 11.67 20.54 11.68 20.54 11.69C21.03 12.28 21.3 13.05 21.21 13.89" stroke="white" stroke-width="1.5" stroke-miterlimit="10" stroke-linecap="round"/> <path d="M3.01999 11.02V5.86001C3.01999 2.46001 3.86999 1.60001 7.27999 1.60001H8.54999C9.81999 1.60001 10.11 1.98001 10.59 2.62001L11.86 4.32001C12.18 4.74001 12.37 5.00001 13.22 5.00001H15.77C19.17 5.00001 20.03 5.85001 20.03 9.26001V11.05" stroke="white" stroke-width="1.5" stroke-linecap="round" stroke-linejoin="round"/> <path d="M8.95999 16.59H14.11" stroke="white" stroke-width="1.5" stroke-linecap="round" stroke-linejoin="round"/> </g> <defs> <clipPath id="clip0_3111_12351"> <rect width="24" height="24" fill="white"/> </clipPath> </defs> </svg>
