<svg width="24" height="24" viewBox="0 0 24 24" fill="none" xmlns="http://www.w3.org/2000/svg"> <g clip-path="url(#clip0_3111_11995)"> <path d="M21.14 19.2L20.05 19.45C19.27 19.63 18.66 20.23 18.48 21.01L18.22 22.1C18.19 22.22 18.03 22.22 18 22.1L17.75 21.01C17.57 20.23 16.97 19.62 16.19 19.44L15.1 19.18C14.98 19.15 14.98 18.99 15.1 18.96L16.19 18.71C16.97 18.53 17.58 17.93 17.76 17.15L18.02 16.06C18.05 15.94 18.21 15.94 18.24 16.06L18.49 17.15C18.67 17.93 19.27 18.54 20.05 18.72L21.14 18.98C21.26 19.01 21.26 19.17 21.14 19.2Z" stroke="white" stroke-width="1.5" stroke-miterlimit="10"/> <path d="M21.79 15.14V8.85001C21.79 7.31667 21.0633 6.06334 19.61 5.09001L13.63 1.63001C12.74 1.11001 11.27 1.11001 10.37 1.63001L4.39001 5.09001C2.93667 6.07001 2.21001 7.32334 2.21001 8.85001V15.13C2.21001 16.67 2.93667 17.9267 4.39001 18.9L10.37 22.36C11.27 22.88 12.74 22.88 13.63 22.36" stroke="white" stroke-width="1.5" stroke-linecap="round" stroke-linejoin="round"/> <path d="M12 15.26C13.8 15.26 15.26 13.8 15.26 12C15.26 10.2 13.8 8.74001 12 8.74001C10.2 8.74001 8.74001 10.2 8.74001 12C8.74001 13.8 10.2 15.26 12 15.26Z" stroke="white" stroke-width="1.5" stroke-linecap="round" stroke-linejoin="round"/> </g> <defs> <clipPath id="clip0_3111_11995"> <rect width="24" height="24" fill="white"/> </clipPath> </defs> </svg>
