<svg width="24" height="24" viewBox="0 0 24 24" fill="none" xmlns="http://www.w3.org/2000/svg"> <g clip-path="url(#clip0_3111_12931)"> <path d="M12.3 2.21002C13.96 2.37002 15.46 3.25002 16.6 4.47002C18.59 6.60002 18.98 8.51002 18.77 10.24C18.73 10.56 18.77 10.89 18.9 11.18L19.87 13.37C20.21 14.14 19.64 15.01 18.8 15.01C18.5 15.01 18.25 15.25 18.25 15.55V17.58C18.25 18.06 17.86 18.45 17.38 18.45H15.33C14.6 18.45 14.01 19.04 14.01 19.77V20.29C14.01 21.02 13.41 21.62 12.68 21.62H8.49C7.76 21.62 7.16 21.02 7.16 20.29V18.25C7.16 17.84 6.97 17.47 6.67 17.2C6.35 16.91 6.06 16.59 5.8 16.25" stroke="white" stroke-width="1.5" stroke-miterlimit="10" stroke-linecap="round"/> <path d="M14 11.0701L13.22 11.2501C12.66 11.3801 12.22 11.8201 12.09 12.3801L11.91 13.1601C11.89 13.2401 11.77 13.2401 11.75 13.1601L11.57 12.3801C11.44 11.8201 11 11.3801 10.44 11.2501L9.66 11.0701C9.58 11.0501 9.58 10.9301 9.66 10.9101L10.44 10.7301C11 10.6001 11.44 10.1601 11.57 9.60007L11.75 8.82007C11.77 8.74007 11.89 8.74007 11.91 8.82007L12.09 9.60007C12.22 10.1601 12.66 10.6001 13.22 10.7301L14 10.9101C14.08 10.9301 14.08 11.0501 14 11.0701Z" stroke="white" stroke-width="1.5" stroke-miterlimit="10"/> <path d="M9.68 6.74005L8.49 7.01005C7.64 7.20005 6.97 7.87005 6.78 8.72005L6.51 9.91005C6.48 10.0301 6.3 10.0301 6.27 9.91005L6 8.72005C5.81 7.87005 5.14 7.20005 4.29 7.01005L3.1 6.74005C2.98 6.71005 2.98 6.53005 3.1 6.50005L4.29 6.23005C5.14 6.04005 5.81 5.37005 6 4.52005L6.27 3.33005C6.3 3.21005 6.48 3.21005 6.51 3.33005L6.78 4.52005C6.97 5.37005 7.64 6.04005 8.49 6.23005L9.68 6.50005C9.8 6.53005 9.8 6.71005 9.68 6.74005Z" stroke="white" stroke-width="1.5" stroke-miterlimit="10"/> </g> <defs> <clipPath id="clip0_3111_12931"> <rect width="24" height="24" fill="white"/> </clipPath> </defs> </svg>
