<svg width="24" height="24" viewBox="0 0 24 24" fill="none" xmlns="http://www.w3.org/2000/svg"> <g clip-path="url(#clip0_3111_12427)"> <path d="M6.96 18.49H10.99L15.48 21.47C16.15 21.91 17.04 21.44 17.04 20.63V18.48C20.07 18.48 22.08 16.46 22.08 13.44V7.38998C22.08 4.35998 20.06 2.34998 17.04 2.34998H6.96C5.51 2.34998 4.3 2.80998 3.42 3.61998C2.46 4.50998 1.91 5.80998 1.91 7.38998V13.44C1.91 16.47 3.93 18.48 6.95 18.48L6.96 18.49Z" stroke="white" stroke-width="1.5" stroke-linecap="round" stroke-linejoin="round"/> <path d="M15.65 8.22998V12.77" stroke="white" stroke-width="1.5" stroke-linecap="round" stroke-linejoin="round"/> <path d="M12.78 12.78L10.57 8.23999L8.36002 12.78" stroke="white" stroke-width="1.5" stroke-linecap="round" stroke-linejoin="round"/> <path d="M8.91 11.73H12.24" stroke="white" stroke-width="1.5" stroke-linecap="round" stroke-linejoin="round"/> </g> <defs> <clipPath id="clip0_3111_12427"> <rect width="24" height="24" fill="white"/> </clipPath> </defs> </svg>
