<svg width="24" height="24" viewBox="0 0 24 24" fill="none" xmlns="http://www.w3.org/2000/svg"> <g clip-path="url(#clip0_3111_11943)"> <path d="M22.11 18.18L20.81 18.48C19.88 18.69 19.15 19.42 18.93 20.35L18.62 21.65C18.59 21.79 18.39 21.79 18.36 21.65L18.06 20.35C17.85 19.42 17.12 18.69 16.19 18.47L14.89 18.16C14.75 18.13 14.75 17.93 14.89 17.9L16.19 17.6C17.12 17.39 17.85 16.66 18.07 15.73L18.38 14.43C18.41 14.29 18.61 14.29 18.64 14.43L18.94 15.73C19.15 16.66 19.88 17.39 20.81 17.61L22.11 17.92C22.25 17.95 22.25 18.15 22.11 18.18Z" stroke="white" stroke-width="1.5" stroke-miterlimit="10"/> <path d="M17.11 11.05V10.06C17.11 8.74 16.04 7.66 14.71 7.66H8.71C7.39 7.66 6.31 8.73 6.31 10.06V13.9C6.31 15.22 7.38 16.3 8.71 16.3H11.63" stroke="white" stroke-width="1.5" stroke-linecap="round" stroke-linejoin="round"/> <path d="M17.11 11.05H6.32001" stroke="white" stroke-width="1.5" stroke-linecap="round" stroke-linejoin="round"/> <path d="M12 22H7C4.25 22 2 19.75 2 17V7C2 4.25 4.25 2 7 2H17C19.75 2 22 4.25 22 7V11" stroke="white" stroke-width="1.5" stroke-linecap="round" stroke-linejoin="round"/> </g> <defs> <clipPath id="clip0_3111_11943"> <rect width="24" height="24" fill="white"/> </clipPath> </defs> </svg>
