<svg width="24" height="24" viewBox="0 0 24 24" fill="none" xmlns="http://www.w3.org/2000/svg"> <g clip-path="url(#clip0_3111_12574)"> <path d="M9.71 22.75H14.32C16.06 22.75 17.21 21.5 16.87 19.99L16.13 16.68H7.92L7.18 19.99C6.85 21.42 8.07 22.75 9.72 22.75H9.71Z" stroke="white" stroke-width="1.5" stroke-linecap="round" stroke-linejoin="round"/> <path d="M7.91 16.67L4.75 13.87C3.18264 12.5809 2.94848 11.5584 3.76833 10.1963" stroke="white" stroke-width="1.5" stroke-linecap="round" stroke-linejoin="round"/> <path d="M16.12 16.68L19.28 13.88C21.04 12.31 21.12 11.22 19.72 9.44001L14.14 2.37001C12.97 0.89001 11.06 0.89001 9.87 2.37001L9.37677 3.00024" stroke="white" stroke-width="1.5" stroke-linecap="round" stroke-linejoin="round"/> <path d="M12.01 1.97998V6.59998" stroke="white" stroke-width="1.5" stroke-linecap="round" stroke-linejoin="round"/> <path d="M9.00024 6.78061L8.17024 6.97061C7.57024 7.11061 7.11024 7.57061 6.97024 8.17061L6.78024 9.00061C6.76024 9.09061 6.63024 9.09061 6.61024 9.00061L6.42024 8.17061C6.28024 7.58061 5.82024 7.11061 5.22024 6.97061L4.39024 6.78061C4.30024 6.76061 4.30024 6.63061 4.39024 6.61061L5.22024 6.42061C5.82024 6.28061 6.28024 5.82061 6.42024 5.22061L6.61024 4.39061C6.63024 4.30061 6.76024 4.30061 6.78024 4.39061L6.97024 5.22061C7.11024 5.81061 7.57024 6.28061 8.17024 6.42061L9.00024 6.61061C9.09024 6.63061 9.09024 6.76061 9.00024 6.78061Z" stroke="white" stroke-width="1.5" stroke-miterlimit="10"/> </g> <defs> <clipPath id="clip0_3111_12574"> <rect width="24" height="24" fill="white"/> </clipPath> </defs> </svg>
