<svg width="24" height="24" viewBox="0 0 24 24" fill="none" xmlns="http://www.w3.org/2000/svg"> <g clip-path="url(#clip0_3111_12215)"> <path d="M7.60333 6.23438L6.51171 6.49377C5.73352 6.67751 5.11745 7.28277 4.93371 8.07177L4.67432 9.16339C4.64189 9.28228 4.47977 9.28228 4.45815 9.16339L4.19876 8.07177C4.01502 7.29358 3.40976 6.67751 2.62076 6.49377L1.52914 6.23438C1.41025 6.20195 1.41025 6.03983 1.52914 6.01821L2.62076 5.75882C3.39895 5.57508 4.01502 4.96982 4.19876 4.18082L4.45815 3.0892C4.49058 2.97031 4.6527 2.97031 4.67432 3.0892L4.93371 4.18082C5.11745 4.95901 5.72271 5.57508 6.51171 5.75882L7.60333 6.01821C7.72222 6.05064 7.72222 6.21276 7.60333 6.23438Z" stroke="white" stroke-width="1.62123" stroke-miterlimit="10"/> <path d="M21.99 4.19001C20.5 7.91001 16.76 12.96 13.63 15.47L11.72 17C11.48 17.17 11.24 17.33 10.96 17.44C10.96 17.27 10.96 17.07 10.92 16.89C10.81 16.08 10.45 15.32 9.8 14.67C9.14 14.01 8.34 13.62 7.52 13.52C7.33 13.52 7.13 13.49 6.94 13.52C7.05 13.22 7.21 12.94 7.41 12.71L8.92 10.8C11.42 7.67001 16.49 3.92001 20.2 2.44001C20.77 2.23001 21.32 2.38001 21.67 2.74001C22.04 3.10001 22.21 3.65001 21.98 4.21001L21.99 4.19001Z" stroke="white" stroke-width="1.5" stroke-linecap="round" stroke-linejoin="round"/> <path d="M10.97 17.43C10.97 18.49 10.56 19.51 9.8 20.29C9.21 20.88 8.41 21.29 7.45 21.41L5.07 21.67C3.77 21.82 2.66 20.71 2.81 19.39L3.07 17.01C3.3 14.89 5.07 13.53 6.95 13.5C7.14 13.5 7.35 13.5 7.53 13.5C8.35 13.61 9.16 13.98 9.81 14.65C10.46 15.3 10.83 16.05 10.93 16.87C10.93 17.05 10.96 17.24 10.96 17.42L10.97 17.43Z" stroke="white" stroke-width="1.5" stroke-linecap="round" stroke-linejoin="round"/> <path d="M14.66 14.38C14.66 11.85 12.61 9.80002 10.08 9.80002" stroke="white" stroke-width="1.5" stroke-linecap="round" stroke-linejoin="round"/> </g> <defs> <clipPath id="clip0_3111_12215"> <rect width="24" height="24" fill="white"/> </clipPath> </defs> </svg>
