<svg width="24" height="24" viewBox="0 0 24 24" fill="none" xmlns="http://www.w3.org/2000/svg"> <g clip-path="url(#clip0_3111_11646)"> <path d="M22.6841 16.6631L21.677 16.9007C20.9549 17.0717 20.3849 17.6322 20.2234 18.3543L19.9859 19.3614C19.9574 19.4659 19.8053 19.4659 19.7768 19.3614L19.5393 18.3543C19.3683 17.6322 18.8077 17.0622 18.0857 16.9007L17.0786 16.6631C16.9741 16.6346 16.9741 16.4826 17.0786 16.4541L18.0857 16.2166C18.8077 16.0456 19.3778 15.485 19.5393 14.763L19.7768 13.7559C19.8053 13.6514 19.9574 13.6514 19.9859 13.7559L20.2234 14.763C20.3944 15.485 20.9549 16.0551 21.677 16.2166L22.6841 16.4541C22.7886 16.4826 22.7886 16.6346 22.6841 16.6631Z" stroke="white" stroke-width="1.42513" stroke-miterlimit="10"/> <path d="M22.46 11.95V4.68C22.46 3.44 21.45 2.52 20.22 2.62H20.16C17.99 2.81 14.69 3.91 12.85 5.07L12.67 5.18C12.37 5.37 11.87 5.37 11.57 5.18L11.31 5.02C9.47 3.87 6.18 2.78 4.01 2.6C2.78 2.5 1.78 3.43 1.78 4.66V17.15C1.78 18.14 2.59 19.07 3.58 19.2L3.88 19.24C6.12 19.54 9.59 20.68 11.57 21.76L11.61 21.78C11.89 21.94 12.33 21.94 12.6 21.78C13.58 21.24 14.92 20.69 16.3 20.23" stroke="white" stroke-width="1.5" stroke-linecap="round" stroke-linejoin="round"/> <path d="M12.12 5.52V21.03" stroke="white" stroke-width="1.5" stroke-linecap="round" stroke-linejoin="round"/> <path d="M7.72999 8.63H5.39999" stroke="white" stroke-width="1.5" stroke-linecap="round" stroke-linejoin="round"/> <path d="M8.49999 11.73H5.39999" stroke="white" stroke-width="1.5" stroke-linecap="round" stroke-linejoin="round"/> </g> <defs> <clipPath id="clip0_3111_11646"> <rect width="24" height="24" fill="white"/> </clipPath> </defs> </svg>
