<svg width="24" height="24" viewBox="0 0 24 24" fill="none" xmlns="http://www.w3.org/2000/svg"> <g clip-path="url(#clip0_3111_12896)"> <path d="M18.08 12.22L15.89 12.73C14.32 13.09 13.09 14.32 12.73 15.89L12.22 18.08C12.17 18.31 11.83 18.31 11.78 18.08L11.27 15.89C10.91 14.32 9.68 13.09 8.11 12.73L5.92 12.22C5.69 12.17 5.69 11.83 5.92 11.78L8.11 11.27C9.68 10.91 10.91 9.68 11.27 8.11L11.78 5.92C11.83 5.69 12.17 5.69 12.22 5.92L12.73 8.11C13.09 9.68 14.32 10.91 15.89 11.27L18.08 11.78C18.31 11.83 18.31 12.17 18.08 12.22Z" stroke="white" stroke-width="1.5" stroke-miterlimit="10"/> </g> <defs> <clipPath id="clip0_3111_12896"> <rect width="24" height="24" fill="white"/> </clipPath> </defs> </svg>
