<svg width="24" height="24" viewBox="0 0 24 24" fill="none" xmlns="http://www.w3.org/2000/svg"> <g clip-path="url(#clip0_3111_11777)"> <path d="M10.53 4.63L9.57 4.85C8.88 5.01 8.35 5.55 8.19 6.23L7.97 7.19C7.95 7.29 7.8 7.29 7.78 7.19L7.56 6.23C7.4 5.54 6.86 5.01 6.18 4.85L5.22 4.63C5.12 4.61 5.12 4.46 5.22 4.44L6.18 4.22C6.87 4.06 7.4 3.52 7.56 2.84L7.78 1.88C7.8 1.78 7.95 1.78 7.97 1.88L8.19 2.84C8.35 3.53 8.89 4.06 9.57 4.22L10.53 4.44C10.63 4.46 10.63 4.61 10.53 4.63Z" stroke="white" stroke-width="1.5" stroke-miterlimit="10"/> <path d="M4.25001 17.67H3.91001C2.76001 17.67 1.82001 16.73 1.82001 15.58V12.97C1.82001 11.82 2.76001 10.88 3.91001 10.88H4.25001C5.40001 10.88 6.34001 11.82 6.34001 12.97V15.58C6.34001 16.74 5.41001 17.67 4.25001 17.67Z" stroke="white" stroke-width="1.5" stroke-miterlimit="10" stroke-linecap="round"/> <path d="M12 1.84C16.37 1.84 19.91 5.38 19.91 9.75V10.88" stroke="white" stroke-width="1.5" stroke-miterlimit="10" stroke-linecap="round"/> <path d="M4.09001 10.9V9.76C4.09001 9.05 4.18001 8.36 4.36001 7.7" stroke="white" stroke-width="1.5" stroke-miterlimit="10" stroke-linecap="round"/> <path d="M13.13 22.2H14.26C17 22.2 19.28 20.26 19.8 17.67" stroke="white" stroke-width="1.5" stroke-miterlimit="10" stroke-linecap="round"/> <path d="M20.09 17.67H19.75C18.6 17.67 17.66 16.73 17.66 15.58V12.97C17.66 11.82 18.6 10.88 19.75 10.88H20.09C21.24 10.88 22.18 11.82 22.18 12.97V15.58C22.18 16.74 21.24 17.67 20.09 17.67Z" stroke="white" stroke-width="1.5" stroke-miterlimit="10" stroke-linecap="round"/> </g> <defs> <clipPath id="clip0_3111_11777"> <rect width="24" height="24" fill="white"/> </clipPath> </defs> </svg>
