<svg width="24" height="24" viewBox="0 0 24 24" fill="none" xmlns="http://www.w3.org/2000/svg"> <g clip-path="url(#clip0_3111_11612)"> <path d="M15.76 12.14L14.4 12.46C13.43 12.69 12.67 13.44 12.45 14.41L12.13 15.77C12.1 15.91 11.89 15.91 11.86 15.77L11.54 14.41C11.31 13.44 10.56 12.68 9.59 12.46L8.23 12.14C8.09 12.11 8.09 11.9 8.23 11.87L9.59 11.55C10.56 11.32 11.32 10.57 11.54 9.6L11.86 8.24C11.89 8.1 12.1 8.1 12.13 8.24L12.45 9.6C12.68 10.57 13.43 11.33 14.4 11.55L15.76 11.87C15.9 11.9 15.9 12.11 15.76 12.14Z" stroke="white" stroke-width="1.5" stroke-miterlimit="10"/> <path d="M20.9 11.12C20.9 16.01 17.35 20.59 12.5 21.93C12.17 22.02 11.81 22.02 11.48 21.93C6.62999 20.59 3.07999 16.01 3.07999 11.12V6.73C3.07999 5.91 3.69999 4.98 4.46999 4.67L10.04 2.39C11.29 1.88 12.7 1.88 13.95 2.39L19.52 4.67C20.28 4.98 20.91 5.91 20.91 6.73L20.9 11.12Z" stroke="white" stroke-width="1.5" stroke-linecap="round" stroke-linejoin="round"/> </g> <defs> <clipPath id="clip0_3111_11612"> <rect width="24" height="24" fill="white"/> </clipPath> </defs> </svg>
