<svg width="24" height="24" viewBox="0 0 24 24" fill="none" xmlns="http://www.w3.org/2000/svg"> <g clip-path="url(#clip0_3111_12923)"> <path d="M8.00999 3.20002C9.25999 2.49002 10.74 2.15002 12.31 2.30002C13.97 2.46002 15.48 3.34002 16.62 4.56002C18.62 6.69002 19 8.60002 18.8 10.33C18.76 10.65 18.8 10.98 18.93 11.27L19.9 13.46C20.24 14.23 19.67 15.1 18.83 15.1C18.53 15.1 18.28 15.34 18.28 15.64V17.67C18.28 18.15 17.89 18.54 17.41 18.54H15.36C14.63 18.54 14.04 19.13 14.04 19.86V20.74C14.04 21.28 13.61 21.71 13.07 21.71H8.15999C7.61999 21.71 7.18999 21.28 7.18999 20.74V18.19" stroke="white" stroke-width="1.5" stroke-miterlimit="10" stroke-linecap="round"/> <path d="M11.02 8.78003V13.32" stroke="white" stroke-width="1.5" stroke-linecap="round" stroke-linejoin="round"/> <path d="M8.15 13.32L5.94 8.78003L3.73 13.32" stroke="white" stroke-width="1.5" stroke-linecap="round" stroke-linejoin="round"/> <path d="M4.28 12.28H7.61" stroke="white" stroke-width="1.5" stroke-linecap="round" stroke-linejoin="round"/> </g> <defs> <clipPath id="clip0_3111_12923"> <rect width="24" height="24" fill="white"/> </clipPath> </defs> </svg>
