<svg width="24" height="24" viewBox="0 0 24 24" fill="none" xmlns="http://www.w3.org/2000/svg"> <g clip-path="url(#clip0_3111_12671)"> <path d="M19.73 20.07L18.95 20.25C18.39 20.38 17.95 20.82 17.82 21.38L17.64 22.16C17.62 22.24 17.5 22.24 17.48 22.16L17.3 21.38C17.17 20.82 16.73 20.38 16.17 20.25L15.39 20.07C15.31 20.05 15.31 19.93 15.39 19.91L16.17 19.73C16.73 19.6 17.17 19.16 17.3 18.6L17.48 17.82C17.5 17.74 17.62 17.74 17.64 17.82L17.82 18.6C17.95 19.16 18.39 19.6 18.95 19.73L19.73 19.91C19.81 19.93 19.81 20.05 19.73 20.07Z" stroke="white" stroke-width="1.5" stroke-miterlimit="10"/> <path d="M21.16 5.82006C17.77 5.48006 14.36 5.31006 10.96 5.31006C8.94 5.31006 6.93 5.41006 4.91 5.62006L2.83 5.82006" stroke="white" stroke-width="1.5" stroke-linecap="round" stroke-linejoin="round"/> <path d="M8.44 4.80003L8.66 3.47003C8.82 2.50003 8.95 1.78003 10.67 1.78003H13.34C15.06 1.78003 15.19 2.54003 15.35 3.48003L15.57 4.80003" stroke="white" stroke-width="1.5" stroke-linecap="round" stroke-linejoin="round"/> <path d="M12.83 22.14H8.73C5.89 22.14 5.8 20.9 5.69 19.3L5.03 9.05005" stroke="white" stroke-width="1.5" stroke-linecap="round" stroke-linejoin="round"/> <path d="M18.97 9.04004L18.61 14.67" stroke="white" stroke-width="1.5" stroke-linecap="round" stroke-linejoin="round"/> <path d="M10.3 16.54H13.69" stroke="white" stroke-width="1.5" stroke-linecap="round" stroke-linejoin="round"/> <path d="M9.45 12.46H14.54" stroke="white" stroke-width="1.5" stroke-linecap="round" stroke-linejoin="round"/> </g> <defs> <clipPath id="clip0_3111_12671"> <rect width="24" height="24" fill="white"/> </clipPath> </defs> </svg>
