<svg width="24" height="24" viewBox="0 0 24 24" fill="none" xmlns="http://www.w3.org/2000/svg"> <g clip-path="url(#clip0_3111_11959)"> <path d="M6.31997 12.53H5.26997C4.39997 12.53 3.68997 13.24 3.68997 14.11V17.79" stroke="white" stroke-width="1.5" stroke-linecap="round" stroke-linejoin="round"/> <path d="M13.89 12.53H9.47998" stroke="white" stroke-width="1.5" stroke-linecap="round" stroke-linejoin="round"/> <path d="M11.58 12.53V9.37" stroke="white" stroke-width="1.5" stroke-linecap="round" stroke-linejoin="round"/> <path d="M11.58 17.79V15.68" stroke="white" stroke-width="1.5" stroke-linecap="round" stroke-linejoin="round"/> <path d="M11.69 17.79H11.48C10.38 17.79 9.47998 18.69 9.47998 19.79V20C9.47998 21.1 10.38 22 11.48 22H11.69C12.79 22 13.69 21.1 13.69 20V19.79C13.69 18.69 12.79 17.79 11.69 17.79Z" stroke="white" stroke-width="1.5" stroke-linecap="round" stroke-linejoin="round"/> <path d="M3.78999 17.79H3.57999C2.47999 17.79 1.57999 18.69 1.57999 19.79V20C1.57999 21.1 2.47999 22 3.57999 22H3.78999C4.88999 22 5.78999 21.1 5.78999 20V19.79C5.78999 18.69 4.88999 17.79 3.78999 17.79Z" stroke="white" stroke-width="1.5" stroke-linecap="round" stroke-linejoin="round"/> <path d="M13.85 2H9.31998C7.65998 2 6.31998 3.34 6.31998 5V6.37C6.31998 8.03 7.65998 9.37 9.31998 9.37H13.85C15.51 9.37 16.85 8.03 16.85 6.37V5C16.85 3.34 15.51 2 13.85 2Z" stroke="white" stroke-width="1.5" stroke-linecap="round" stroke-linejoin="round"/> <path d="M22.32 16.45L21.12 16.73C20.26 16.93 19.59 17.59 19.38 18.45L19.09 19.65C19.06 19.78 18.88 19.78 18.85 19.65L18.57 18.45C18.37 17.59 17.71 16.92 16.85 16.71L15.65 16.42C15.52 16.39 15.52 16.21 15.65 16.18L16.85 15.9C17.71 15.7 18.38 15.04 18.59 14.18L18.88 12.98C18.91 12.85 19.09 12.85 19.12 12.98L19.4 14.18C19.6 15.04 20.26 15.71 21.12 15.92L22.32 16.21C22.45 16.24 22.45 16.42 22.32 16.45Z" stroke="white" stroke-width="1.5" stroke-miterlimit="10"/> </g> <defs> <clipPath id="clip0_3111_11959"> <rect width="24" height="24" fill="white"/> </clipPath> </defs> </svg>
