<svg width="24" height="24" viewBox="0 0 24 24" fill="none" xmlns="http://www.w3.org/2000/svg"> <g clip-path="url(#clip0_3111_11479)"> <path d="M9.55 17.31L8.21 17.62C7.25 17.84 6.5 18.59 6.28 19.55L5.97 20.89C5.94 21.03 5.73 21.03 5.7 20.89L5.39 19.55C5.17 18.59 4.42 17.84 3.46 17.62L2.12 17.31C1.98 17.28 1.98 17.07 2.12 17.04L3.46 16.73C4.42 16.51 5.17 15.76 5.39 14.8L5.7 13.46C5.73 13.32 5.94 13.32 5.97 13.46L6.28 14.8C6.5 15.76 7.25 16.51 8.21 16.73L9.55 17.04C9.69 17.07 9.69 17.28 9.55 17.31Z" stroke="white" stroke-width="1.5" stroke-miterlimit="10"/> <path d="M5.99023 6H6.00024" stroke="white" stroke-width="1.5" stroke-linecap="round" stroke-linejoin="round"/> <path d="M8.48999 6H8.5" stroke="white" stroke-width="1.5" stroke-linecap="round" stroke-linejoin="round"/> <path d="M10.9901 6H11.0001" stroke="white" stroke-width="1.5" stroke-linecap="round" stroke-linejoin="round"/> <path d="M2 9.03H22" stroke="white" stroke-width="1.5" stroke-linecap="round" stroke-linejoin="round"/> <path d="M2 11V7C2 4.8 3.8 3 6 3H18C20.2 3 22 4.8 22 7V17C22 19.2 20.2 21 18 21H13" stroke="white" stroke-width="1.5" stroke-linecap="round" stroke-linejoin="round"/> </g> <defs> <clipPath id="clip0_3111_11479"> <rect width="24" height="24" fill="white"/> </clipPath> </defs> </svg>
