<svg width="24" height="24" viewBox="0 0 24 24" fill="none" xmlns="http://www.w3.org/2000/svg"> <g clip-path="url(#clip0_4418_10011)"> <path d="M14.13 11.3406C14.52 9.70057 13.09 8.27052 11.45 8.66052C10.68 8.85052 10.05 9.48054 9.85998 10.2505C9.46998 11.8905 10.9 13.3205 12.54 12.9305C13.32 12.7405 13.95 12.1106 14.13 11.3406Z" stroke="white" stroke-width="1.5" stroke-linecap="round" stroke-linejoin="round"/> <path d="M18.0099 17.19C19.7199 15.59 20.7899 13.32 20.7899 10.79C20.7899 5.92998 16.85 2 12 2C7.14995 2 3.20996 5.93998 3.20996 10.79C3.20996 13.33 4.28996 15.62 6.01996 17.22" stroke="white" stroke-width="1.5" stroke-linecap="round" stroke-linejoin="round"/> <path d="M8.00002 14.5508C7.08002 13.5708 6.51001 12.2508 6.51001 10.7908C6.51001 7.76077 8.97002 5.30078 12 5.30078C15.03 5.30078 17.49 7.76077 17.49 10.7908C17.49 12.2508 16.92 13.5608 16 14.5508" stroke="white" stroke-width="1.5" stroke-linecap="round" stroke-linejoin="round"/> <path d="M10.3 16.6593L8.85998 18.4493C7.71998 19.8793 8.72997 21.9893 10.56 21.9893H13.43C15.26 21.9893 16.28 19.8693 15.13 18.4493L13.69 16.6593C12.83 15.5693 11.17 15.5693 10.3 16.6593Z" stroke="white" stroke-width="1.5" stroke-linecap="round" stroke-linejoin="round"/> </g> <defs> <clipPath id="clip0_4418_10011"> <rect width="24" height="24" fill="white"/> </clipPath> </defs> </svg>
