<svg width="24" height="24" viewBox="0 0 24 24" fill="none" xmlns="http://www.w3.org/2000/svg"> <g clip-path="url(#clip0_4418_10027)"> <path d="M2.62 15.75V8.25C2.62 7.48 2.65 6.79 2.73 6.18C3.1 2.89 4.65 2 8.88 2H15.13C19.35 2 20.91 2.89 21.27 6.18C21.36 6.79 21.38 7.48 21.38 8.25V15.75C21.38 16.52 21.35 17.21 21.27 17.83C20.9 21.11 19.35 22 15.12 22H8.88C4.66 22 3.1 21.11 2.74 17.83C2.65 17.21 2.62 16.52 2.62 15.75Z" stroke="white" stroke-width="1.5" stroke-linecap="round" stroke-linejoin="round"/> <path d="M21.23 8.91992H17.13" stroke="white" stroke-width="1.5" stroke-linecap="round" stroke-linejoin="round"/> <path d="M6.87002 8.91992H2.77002" stroke="white" stroke-width="1.5" stroke-linecap="round" stroke-linejoin="round"/> <path d="M17.13 8.91914C17.13 10.0491 16.21 10.9691 15.08 10.9691H8.92C8.36 10.9691 7.84 10.7391 7.47 10.3591C7.1 9.99914 6.87 9.48914 6.87 8.91914C6.87 7.78914 7.79 6.86914 8.92 6.86914H15.07C15.63 6.86914 16.15 7.09914 16.52 7.47914C16.9 7.84914 17.13 8.35914 17.13 8.91914Z" stroke="white" stroke-width="1.5" stroke-linecap="round" stroke-linejoin="round"/> </g> <defs> <clipPath id="clip0_4418_10027"> <rect width="24" height="24" fill="white"/> </clipPath> </defs> </svg>
