<svg width="24" height="24" viewBox="0 0 24 24" fill="none" xmlns="http://www.w3.org/2000/svg"> <g clip-path="url(#clip0_2085_386674)"> <path d="M10.89 17.56H13.11M4.22 4.22L2 2M19.22 4.22L21.44 2M22 10.72C22 15.54 16.24 22 12 22C7.76 22 2 15.54 2 10.72C2 5.9 6.48 2 12 2C17.52 2 22 5.91 22 10.72ZM17.81 13.25C19.23 11.83 19.67 9.98 18.8 9.11C17.93 8.24 16.08 8.68 14.66 10.1C13.24 11.52 12.8 13.37 13.67 14.24C14.54 15.11 16.39 14.67 17.81 13.25ZM6.19 13.25C7.61 14.67 9.46 15.11 10.33 14.24C11.2 13.37 10.76 11.52 9.34 10.1C7.92 8.68 6.07 8.24 5.2 9.11C4.33 9.98 4.77 11.83 6.19 13.25Z" stroke="white" stroke-width="1.5" stroke-linecap="round" stroke-linejoin="round"/> </g> <defs> <clipPath id="clip0_2085_386674"> <rect width="24" height="24" fill="white"/> </clipPath> </defs> </svg>
