<svg width="24" height="24" viewBox="0 0 24 24" fill="none" xmlns="http://www.w3.org/2000/svg"> <g clip-path="url(#clip0_2085_382483)"> <path d="M5.33 19.5305H3.11C2.5 19.5305 2 19.0305 2 18.4205V15.0905C2 14.4805 2.5 13.9805 3.11 13.9805H5.33C5.94 13.9805 6.44 14.4805 6.44 15.0905V18.4205C6.44 19.0305 5.94 19.5305 5.33 19.5305Z" stroke="white" stroke-width="1.5" stroke-linecap="round" stroke-linejoin="round"/> <path d="M13.11 19.5313H10.89C10.28 19.5313 9.78 19.0313 9.78 18.4213V10.6413C9.78 10.0313 10.28 9.53125 10.89 9.53125H13.11C13.72 9.53125 14.22 10.0313 14.22 10.6413V18.4213C14.22 19.0313 13.72 19.5313 13.11 19.5313Z" stroke="white" stroke-width="1.5" stroke-linecap="round" stroke-linejoin="round"/> <path d="M20.89 19.5307H18.67C18.06 19.5307 17.56 19.0307 17.56 18.4207V5.0807C17.56 4.4707 18.06 3.9707 18.67 3.9707H20.89C21.5 3.9707 22 4.4707 22 5.0807V18.4107C22 19.0207 21.5 19.5207 20.89 19.5207V19.5307Z" stroke="white" stroke-width="1.5" stroke-linecap="round" stroke-linejoin="round"/> </g> <defs> <clipPath id="clip0_2085_382483"> <rect width="24" height="24" fill="white"/> </clipPath> </defs> </svg>
