<svg width="24" height="24" viewBox="0 0 24 24" fill="none" xmlns="http://www.w3.org/2000/svg"> <g clip-path="url(#clip0_4482_3831)"> <path d="M20.5899 15.7501C20.5099 15.8801 20.4299 16.0101 20.3399 16.1301C20.3399 16.1301 19.31 17.3301 18.92 17.6801C15.17 20.9501 9.93997 22.0701 4.99997 21.6801C3.32997 20.7301 2.99999 18.5801 2.76999 17.3701C2.60999 16.7401 2.58 16.1101 2.53 15.4801C2.51 15.1601 2.50999 14.8501 2.51999 14.5401C2.53999 13.8701 2.61995 13.1901 2.72995 12.5301C2.80995 12.0601 2.89996 11.6001 2.98996 11.1201C3.05996 10.8101 3.13995 10.5001 3.22995 10.2101C3.63995 8.84014 4.31993 6.61014 4.70993 5.23014L4.87998 4.62014C4.87998 4.62014 5.18996 3.95014 5.23996 3.90014C5.74996 3.00014 7.35993 2.53014 8.32993 2.37014C8.99993 2.28014 9.73001 2.15014 10.41 2.32014C11.25 2.52014 11.73 3.44014 11.49 4.27014C10.97 6.12014 10.27 6.57014 9.01999 6.54014C8.68999 6.53014 8.31001 6.58014 7.79001 6.74014C7.57001 6.81014 7.41993 7.06014 7.45993 7.29014C7.68993 8.77014 8.58001 11.3701 8.04001 14.4001C8.01001 14.5801 8.23996 14.7001 8.35996 14.5701C8.82996 14.0701 9.62993 13.4901 10.8299 13.4901C11.5799 13.4901 12.34 13.5201 13.03 13.8301C12.56 12.6301 12.75 11.2601 13.43 10.1901C13.74 9.70014 14.17 9.37014 14.63 9.02014C15.12 8.66014 15.77 8.45014 16.37 8.36014C17.56 8.20014 18.81 8.51014 19.76 9.23014C20.74 9.97014 21.3399 11.0901 21.4599 12.3101C21.5799 13.5301 21.2299 14.7201 20.5899 15.7501Z" stroke="white" stroke-width="1.5" stroke-miterlimit="10" stroke-linecap="round" stroke-linejoin="round"/> <path d="M14.52 14.8596C14.08 14.3796 13.5201 14.0696 12.9301 13.8096" stroke="white" stroke-width="1.5" stroke-miterlimit="10" stroke-linecap="round" stroke-linejoin="round"/> <path d="M10.29 13.5498C10.28 13.5498 10.28 13.5498 10.27 13.5598" stroke="white" stroke-width="1.5" stroke-miterlimit="10" stroke-linecap="round" stroke-linejoin="round"/> </g> <defs> <clipPath id="clip0_4482_3831"> <rect width="24" height="24" fill="white"/> </clipPath> </defs> </svg>
