<svg width="24" height="24" viewBox="0 0 24 24" fill="none" xmlns="http://www.w3.org/2000/svg"> <g clip-path="url(#clip0_4482_13981)"> <path d="M18.8203 2.80957L22.0003 3.20957L21.9703 6.43957" stroke="white" stroke-width="1.5" stroke-linecap="round" stroke-linejoin="round"/> <path d="M12.2506 11.7695L8.08057 15.4195" stroke="white" stroke-width="1.5" stroke-linecap="round" stroke-linejoin="round"/> <path d="M5.01032 14.9197C4.52032 14.1697 4.15032 13.3497 3.97032 12.4497C3.47032 9.95968 4.85032 6.90968 7.71032 6.33968C9.34032 6.00968 10.5703 6.60968 11.3303 7.21968C11.8003 6.36968 12.7203 5.34968 14.3503 5.01968C17.1903 4.44968 19.6403 6.73968 20.1403 9.22968C21.1803 14.4497 15.4903 19.7297 13.8903 20.0497C13.0303 20.2197 10.5103 19.5097 8.21032 18.0097" stroke="white" stroke-width="1.5" stroke-linecap="round" stroke-linejoin="round"/> <path d="M18.4902 6.30973L22.0002 3.21973" stroke="white" stroke-width="1.5" stroke-linecap="round" stroke-linejoin="round"/> <path d="M8.1802 18.6994L5.5302 21.0094C5.0802 21.4094 4.3802 21.0994 4.3502 20.4994L4.2602 18.7894L2.5802 18.4794C2.0002 18.3594 1.7902 17.6194 2.2402 17.2194L4.8902 14.8994L8.0202 15.4894L8.1802 18.6894V18.6994Z" stroke="white" stroke-width="1.5" stroke-linecap="round" stroke-linejoin="round"/> </g> <defs> <clipPath id="clip0_4482_13981"> <rect width="24" height="24" fill="white"/> </clipPath> </defs> </svg>
