<svg width="24" height="24" viewBox="0 0 24 24" fill="none" xmlns="http://www.w3.org/2000/svg"> <g clip-path="url(#clip0_4482_3805)"> <path d="M14.38 14H9.63C8.53 14 7.63 14.9 7.63 16V18.25C7.63 20.31 9.32 22 11.38 22H12.63C14.69 22 16.38 20.31 16.38 18.25V16C16.38 14.9 15.48 14 14.38 14Z" stroke="white" stroke-width="1.5" stroke-miterlimit="10"/> <path d="M7.75 17.5H16.25" stroke="white" stroke-width="1.5" stroke-miterlimit="10" stroke-linecap="round"/> <path d="M20 10H4C4 5.58 7.58 2 12 2C16.42 2 20 5.58 20 10Z" stroke="white" stroke-width="1.5" stroke-miterlimit="10" stroke-linejoin="round"/> <path d="M4 10L8.85001 14.85" stroke="white" stroke-width="1.5" stroke-miterlimit="10" stroke-linejoin="round"/> <path d="M20 10L15.15 14.85" stroke="white" stroke-width="1.5" stroke-miterlimit="10" stroke-linejoin="round"/> <path d="M12 2C12 2 8.68998 5 8.84998 10" stroke="white" stroke-width="1.5" stroke-miterlimit="10"/> <path d="M11.84 2C11.84 2 15.15 5 14.99 10" stroke="white" stroke-width="1.5" stroke-miterlimit="10"/> </g> <defs> <clipPath id="clip0_4482_3805"> <rect width="24" height="24" fill="white"/> </clipPath> </defs> </svg>
