<svg width="24" height="24" viewBox="0 0 24 24" fill="none" xmlns="http://www.w3.org/2000/svg"> <g clip-path="url(#clip0_4482_10743)"> <path d="M8.39014 2.67988C12.0801 1.24988 16.2701 2.12988 19.0701 4.92988C21.8701 7.72988 22.7501 11.9199 21.3201 15.6099" stroke="white" stroke-width="1.5" stroke-linecap="round" stroke-linejoin="round"/> <path d="M16.8499 16.8499L18.3199 18.3199C18.7399 18.7399 18.6999 19.4499 18.2299 19.8199C14.2999 22.9499 8.55995 22.6999 4.92995 19.0599C1.28995 15.4199 1.03995 9.68992 4.16995 5.75992C4.53995 5.28992 5.24995 5.24992 5.66995 5.66992L7.13995 7.13992" stroke="white" stroke-width="1.5" stroke-linecap="round" stroke-linejoin="round"/> <path d="M8.7998 15.2002L7.5498 16.4502" stroke="white" stroke-width="1.5" stroke-linecap="round" stroke-linejoin="round"/> <path d="M14.7198 15.2501C13.0698 16.8701 10.4198 16.8501 8.7998 15.2001C8.0098 14.4201 7.5598 13.3601 7.5498 12.2501C7.5498 11.1401 7.9698 10.0701 8.7498 9.28011C10.1998 7.83011 12.5898 7.36011 15.3898 7.63011C15.9098 7.68011 16.3098 8.09011 16.3698 8.61011C16.6398 11.4101 16.1698 13.8001 14.7198 15.2501Z" stroke="white" stroke-width="1.5" stroke-linecap="round" stroke-linejoin="round"/> </g> <defs> <clipPath id="clip0_4482_10743"> <rect width="24" height="24" fill="white"/> </clipPath> </defs> </svg>
