<svg width="24" height="24" viewBox="0 0 24 24" fill="none" xmlns="http://www.w3.org/2000/svg"> <g clip-path="url(#clip0_4482_10015)"> <path d="M7.22998 21.4502V9.4502C7.22998 8.3502 8.12998 7.4502 9.22998 7.4502H15.23C16.33 7.4502 17.23 8.3502 17.23 9.4502V21.4502" stroke="white" stroke-width="1.5" stroke-linecap="round" stroke-linejoin="round"/> <path d="M14.23 7.4502V5.4502C14.23 4.9002 13.78 4.4502 13.23 4.4502H11.23C10.68 4.4502 10.23 4.9002 10.23 5.4502V7.4502" stroke="white" stroke-width="1.5" stroke-linecap="round" stroke-linejoin="round"/> <path d="M12.23 2.4502V4.4502" stroke="white" stroke-width="1.5" stroke-linecap="round" stroke-linejoin="round"/> <path d="M17.23 21.4502V10.4502H19.23C20.33 10.4502 21.23 11.3502 21.23 12.4502V19.4502C21.23 20.5502 20.33 21.4502 19.23 21.4502H5.22998C4.12998 21.4502 3.22998 20.5502 3.22998 19.4502V12.4502C3.22998 11.3502 4.12998 10.4502 5.22998 10.4502H7.22998V21.4502" stroke="white" stroke-width="1.5" stroke-linecap="round" stroke-linejoin="round"/> <path d="M10.23 13.4502H14.23" stroke="white" stroke-width="1.5" stroke-linecap="round" stroke-linejoin="round"/> <path d="M10.23 16.4502H14.23" stroke="white" stroke-width="1.5" stroke-linecap="round" stroke-linejoin="round"/> <path d="M10.23 13.4502H14.23" stroke="white" stroke-width="1.5" stroke-linecap="round" stroke-linejoin="round"/> <path d="M10.23 10.4502H14.23" stroke="white" stroke-width="1.5" stroke-linecap="round" stroke-linejoin="round"/> </g> <defs> <clipPath id="clip0_4482_10015"> <rect width="24" height="24" fill="white"/> </clipPath> </defs> </svg>
