<svg width="24" height="24" viewBox="0 0 24 24" fill="none" xmlns="http://www.w3.org/2000/svg"> <g clip-path="url(#clip0_4482_7560)"> <path d="M14.2193 20.89C13.6893 21.59 12.8693 22 11.9993 22C11.1293 22 10.2993 21.59 9.7793 20.89" stroke="white" stroke-width="1.5" stroke-linecap="round" stroke-linejoin="round"/> <path d="M5.29965 11.77C5.29965 12.29 5.07965 12.79 4.70965 13.16L3.75965 14.11C2.99965 14.87 2.86965 16.17 3.57965 17.15C4.04965 17.79 4.84965 18.11 5.64965 18.11H18.5097C19.6597 18.11 20.6697 17.28 20.8597 16.08C20.9797 15.29 20.6397 14.51 20.0697 13.94L19.2397 13.11C18.8597 12.73 18.6497 12.23 18.6497 11.69V8.18999L18.6097 7.68999C17.9897 4.16999 15.0997 1.98999 11.9797 1.98999C8.29965 1.98999 5.30965 4.96999 5.30965 8.65999L5.27965 11.76L5.29965 11.77Z" stroke="white" stroke-width="1.5" stroke-linecap="round" stroke-linejoin="round"/> </g> <defs> <clipPath id="clip0_4482_7560"> <rect width="24" height="24" fill="white"/> </clipPath> </defs> </svg>
