<svg width="24" height="24" viewBox="0 0 24 24" fill="none" xmlns="http://www.w3.org/2000/svg"> <g clip-path="url(#clip0_4482_10987)"> <path d="M2 11.4797C14.22 4.21965 12.99 15.9497 22 11.9997" stroke="white" stroke-width="1.5" stroke-linecap="round" stroke-linejoin="round"/> <path d="M6.20996 3.10986C13.11 6.43986 10.89 17.5499 7.55996 20.8899" stroke="white" stroke-width="1.5" stroke-linecap="round" stroke-linejoin="round"/> <path d="M13.1099 3.10986C20.0099 6.43986 17.9199 17.9199 15.3299 20.8899" stroke="white" stroke-width="1.5" stroke-linecap="round" stroke-linejoin="round"/> <path d="M2 18.71C12.99 11.02 15.33 20.89 15.33 20.89" stroke="white" stroke-width="1.5" stroke-linecap="round" stroke-linejoin="round"/> <path d="M19.78 20.8899H4.22C2.99 20.8899 2 19.8999 2 18.6699V5.32986C2 4.09986 2.99 3.10986 4.22 3.10986H19.78C21.01 3.10986 22 4.09986 22 5.32986V18.6599C22 19.8899 21.01 20.8799 19.78 20.8799V20.8899Z" stroke="white" stroke-width="1.5" stroke-linecap="round" stroke-linejoin="round"/> </g> <defs> <clipPath id="clip0_4482_10987"> <rect width="24" height="24" fill="white"/> </clipPath> </defs> </svg>
