<svg width="24" height="24" viewBox="0 0 24 24" fill="none" xmlns="http://www.w3.org/2000/svg"> <g clip-path="url(#clip0_4482_7561)"> <path d="M19.0701 4.93C22.9801 8.84 22.9801 15.17 19.0701 19.07C15.1601 22.98 8.83006 22.98 4.93006 19.07C1.02006 15.16 1.02006 8.83 4.93006 4.93C8.84006 1.02 15.1701 1.02 19.0701 4.93Z" stroke="white" stroke-width="1.5" stroke-linecap="round" stroke-linejoin="round"/> <path d="M3.33982 17C2.08982 14.83 2.71982 12.06 4.79982 10.66C6.46982 9.53 8.65982 9.57 10.2798 10.75L13.7098 13.25C15.3398 14.43 17.5298 14.47 19.1898 13.34C21.2598 11.93 21.8998 9.17 20.6498 7" stroke="white" stroke-width="1.5" stroke-linecap="round" stroke-linejoin="round"/> <path d="M17 20.66C14.83 21.91 12.06 21.28 10.66 19.2C9.53 17.53 9.57 15.34 10.75 13.71L13.25 10.28C14.43 8.64998 14.47 6.45998 13.34 4.79998C11.94 2.72998 9.17 2.08998 7 3.33998" stroke="white" stroke-width="1.5" stroke-linecap="round" stroke-linejoin="round"/> </g> <defs> <clipPath id="clip0_4482_7561"> <rect width="24" height="24" fill="white"/> </clipPath> </defs> </svg>
