<svg width="24" height="24" viewBox="0 0 24 24" fill="none" xmlns="http://www.w3.org/2000/svg"> <g clip-path="url(#clip0_4482_14837)"> <path d="M4.7 7.66953C6.19117 7.66953 7.4 6.4607 7.4 4.96953C7.4 3.47836 6.19117 2.26953 4.7 2.26953C3.20883 2.26953 2 3.47836 2 4.96953C2 6.4607 3.20883 7.66953 4.7 7.66953Z" stroke="white" stroke-width="1.5" stroke-linecap="round" stroke-linejoin="round"/> <path d="M10.6504 4.96953L13.3504 2.26953" stroke="white" stroke-width="1.5" stroke-linecap="round" stroke-linejoin="round"/> <path d="M19.2996 21.7291C20.7908 21.7291 21.9996 20.5203 21.9996 19.0291C21.9996 17.5379 20.7908 16.3291 19.2996 16.3291C17.8084 16.3291 16.5996 17.5379 16.5996 19.0291C16.5996 20.5203 17.8084 21.7291 19.2996 21.7291Z" stroke="white" stroke-width="1.5" stroke-linecap="round" stroke-linejoin="round"/> <path d="M19.3004 16.3197V9.96973C19.3004 7.20973 17.0604 4.96973 14.3004 4.96973H10.6504" stroke="white" stroke-width="1.5" stroke-linecap="round" stroke-linejoin="round"/> <path d="M6.86004 21.1891L2.54004 16.8691" stroke="white" stroke-width="1.5" stroke-linecap="round" stroke-linejoin="round"/> <path d="M6.86004 16.8594L4.70004 19.0194L2.54004 21.1794" stroke="white" stroke-width="1.5" stroke-linecap="round" stroke-linejoin="round"/> <path d="M4.7002 14.1597V7.67969" stroke="white" stroke-width="1.5" stroke-linecap="round" stroke-linejoin="round"/> </g> <defs> <clipPath id="clip0_4482_14837"> <rect width="24" height="24" fill="white"/> </clipPath> </defs> </svg>
