<svg width="24" height="24" viewBox="0 0 24 24" fill="none" xmlns="http://www.w3.org/2000/svg"> <g clip-path="url(#clip0_2085_386953)"> <path d="M10.31 15.7804L6.80997 19.2804L4.71997 17.1904L8.21997 13.6904" stroke="white" stroke-width="1.5" stroke-linecap="round" stroke-linejoin="round"/> <path d="M20.7 3.30043C22.43 5.03043 22.43 7.85043 20.7 9.58043L15.54 14.7404C13.81 16.4704 10.99 16.4704 9.25996 14.7404C7.52996 13.0104 7.52996 10.1904 9.25996 8.46043L14.42 3.30043C16.15 1.57043 18.97 1.57043 20.7 3.30043Z" stroke="white" stroke-width="1.5" stroke-linecap="round" stroke-linejoin="round"/> <path d="M4.14997 13.5703L7.92997 13.9803L4.51997 17.3903L2.94997 17.2203C2.05997 17.1203 1.67997 16.0403 2.30997 15.4103L4.14997 13.5703Z" stroke="white" stroke-width="1.5" stroke-linecap="round" stroke-linejoin="round"/> <path d="M10.43 19.8503L10.02 16.0703L6.60999 19.4803L6.77999 21.0503C6.87999 21.9403 7.95999 22.3203 8.58999 21.6903L10.43 19.8503Z" stroke="white" stroke-width="1.5" stroke-linecap="round" stroke-linejoin="round"/> <path d="M13.65 2.9502L21.05 10.3502" stroke="white" stroke-width="1.5" stroke-linecap="round" stroke-linejoin="round"/> <path d="M8.90997 7.69043L16.31 15.0904" stroke="white" stroke-width="1.5" stroke-linecap="round" stroke-linejoin="round"/> </g> <defs> <clipPath id="clip0_2085_386953"> <rect width="24" height="24" fill="white"/> </clipPath> </defs> </svg>
