<svg width="24" height="24" viewBox="0 0 24 24" fill="none" xmlns="http://www.w3.org/2000/svg"> <g clip-path="url(#clip0_4482_3739)"> <path d="M10.31 21.3699C9.52001 21.8299 8.13004 21.8399 7.34004 21.3799C6.11004 20.6599 5.60004 19.3299 5.84004 18.1199C4.63004 18.3799 3.30003 17.8599 2.58003 16.6299C2.12003 15.8399 2.13004 14.4499 2.59004 13.6599C3.45004 12.1999 5.15001 11.7799 6.50001 12.3899C7.06001 12.6499 7.88002 12.5099 8.32002 12.0699L12.04 8.34993C12.46 7.92993 12.66 7.12993 12.4 6.59993C11.8 5.36993 12.08 3.80993 13.24 2.87993C14.13 2.16993 15.79 2.06993 16.75 2.68993C17.89 3.41993 18.34 4.70993 18.1 5.86993C19.07 5.66993 20.12 5.94993 20.86 6.69993C22.05 7.88993 22.04 9.81993 20.86 10.9999C19.92 11.9399 18.51 12.1399 17.38 11.5899C16.85 11.3299 16.04 11.5199 15.62 11.9399L11.9 15.6599C11.46 16.0999 11.32 16.9099 11.58 17.4799C12.2 18.8099 11.78 20.5099 10.31 21.3699Z" stroke="white" stroke-width="1.5" stroke-miterlimit="10" stroke-linecap="round" stroke-linejoin="round"/> </g> <defs> <clipPath id="clip0_4482_3739"> <rect width="24" height="24" fill="white"/> </clipPath> </defs> </svg>
