<svg width="24" height="24" viewBox="0 0 24 24" fill="none" xmlns="http://www.w3.org/2000/svg"> <g clip-path="url(#clip0_655_7179)"> <path d="M17.2703 6.21H6.73031C4.99031 6.21 3.57031 7.62 3.57031 9.37V18.84C3.57031 20.58 4.98031 22 6.73031 22H17.2603C19.0003 22 20.4203 20.59 20.4203 18.84V9.37C20.4203 7.63 19.0103 6.21 17.2603 6.21H17.2703Z" stroke="white" stroke-width="1.5" stroke-linecap="round" stroke-linejoin="round"/> <path d="M3.58008 18.51V7.93C3.58008 6.72 4.33008 5.63 5.47008 5.2L13.6101 2.13C13.9901 1.97 14.4201 1.95 14.8201 2.07C15.6501 2.33 16.2101 3.09 16.2201 3.96V5.88" stroke="white" stroke-width="1.5" stroke-linecap="round" stroke-linejoin="round"/> <path d="M12.8596 14.5V13.5L11.9996 13L11.1396 13.5V14.5L11.9996 15L12.8596 14.5Z" stroke="white" stroke-width="1.5" stroke-linecap="round" stroke-linejoin="round"/> <path d="M12 9.24V12.47" stroke="white" stroke-width="1.5" stroke-linecap="round" stroke-linejoin="round"/> <path d="M12 15.52V18.75" stroke="white" stroke-width="1.5" stroke-linecap="round" stroke-linejoin="round"/> <path d="M16.1203 16.38L13.3203 14.76" stroke="white" stroke-width="1.5" stroke-linecap="round" stroke-linejoin="round"/> <path d="M16.1203 11.62L13.3203 13.24" stroke="white" stroke-width="1.5" stroke-linecap="round" stroke-linejoin="round"/> <path d="M7.87988 11.62L10.6799 13.24" stroke="white" stroke-width="1.5" stroke-linecap="round" stroke-linejoin="round"/> <path d="M7.87988 16.38L10.6799 14.76" stroke="white" stroke-width="1.5" stroke-linecap="round" stroke-linejoin="round"/> <path d="M10.9395 17.97L11.9995 17.17L13.0595 17.97" stroke="white" stroke-width="1.5" stroke-linecap="round" stroke-linejoin="round"/> <path d="M13.0595 10.03L11.9995 10.83L10.9395 10.03" stroke="white" stroke-width="1.5" stroke-linecap="round" stroke-linejoin="round"/> <path d="M14.91 16.91L14.75 15.59L15.98 15.07" stroke="white" stroke-width="1.5" stroke-linecap="round" stroke-linejoin="round"/> <path d="M9.08953 11.09L9.24953 12.41L8.01953 12.93" stroke="white" stroke-width="1.5" stroke-linecap="round" stroke-linejoin="round"/> <path d="M8.03027 15.07L9.26027 15.59L9.10027 16.91" stroke="white" stroke-width="1.5" stroke-linecap="round" stroke-linejoin="round"/> <path d="M15.9702 12.93L14.7402 12.41L14.9002 11.09" stroke="white" stroke-width="1.5" stroke-linecap="round" stroke-linejoin="round"/> </g> <defs> <clipPath id="clip0_655_7179"> <rect width="24" height="24" fill="white"/> </clipPath> </defs> </svg>
