<svg width="24" height="24" viewBox="0 0 24 24" fill="none" xmlns="http://www.w3.org/2000/svg"> <g clip-path="url(#clip0_4482_3721)"> <path d="M3.29997 9.37012H9.69996V9.38012C10.15 10.7301 10.17 12.2101 9.62997 13.5301C9.56997 13.6701 9.50997 13.8101 9.43997 13.9401C8.87997 15.0601 7.73997 15.7601 6.48997 15.7601C5.23997 15.7601 4.09996 15.0601 3.53996 13.9401C3.46996 13.8001 3.40997 13.6701 3.34997 13.5301C2.80997 12.2101 2.82996 10.7301 3.27996 9.38012L3.29997 9.37012Z" stroke="white" stroke-width="1.5" stroke-miterlimit="10" stroke-linecap="round" stroke-linejoin="round"/> <path d="M6.5 19.8398V15.8398" stroke="white" stroke-width="1.5" stroke-miterlimit="10" stroke-linecap="round" stroke-linejoin="round"/> <path d="M3.70001 21.9996H9.31001L9.27002 21.8896C8.87002 20.6996 7.76002 19.8896 6.50002 19.8896C5.24002 19.8896 4.13001 20.6896 3.73001 21.8896L3.70001 21.9996Z" stroke="white" stroke-width="1.5" stroke-miterlimit="10" stroke-linecap="round" stroke-linejoin="round"/> <path d="M21.04 12.1201V20.0001C21.04 21.1001 20.14 22.0001 19.04 22.0001H15.03C13.93 22.0001 13.03 21.1001 13.03 20.0001V12.1201C13.03 11.5901 13.19 11.0801 13.48 10.6301L14.51 9.08008C14.71 8.80008 14.81 8.45008 14.81 8.09008V7.08008H19.26V8.10008C19.26 8.46008 19.37 8.80008 19.56 9.09008L20.59 10.6401C20.88 11.0801 21.04 11.6001 21.04 12.1201Z" stroke="white" stroke-width="1.5" stroke-miterlimit="10" stroke-linecap="round" stroke-linejoin="round"/> <path d="M20.37 5.97035C20.37 6.58035 19.87 7.08035 19.26 7.08035H14.81C14.2 7.08035 13.7 6.58035 13.7 5.97035C13.7 5.36035 14.2 4.86035 14.81 4.86035H19.26C19.87 4.86035 20.37 5.36035 20.37 5.97035Z" stroke="white" stroke-width="1.5" stroke-miterlimit="10" stroke-linecap="round" stroke-linejoin="round"/> <path d="M18.93 4.86H15.12V3.16C15.12 2.52 15.64 2 16.28 2H17.77C18.41 2 18.93 2.52 18.93 3.16V4.86Z" stroke="white" stroke-width="1.5" stroke-miterlimit="10" stroke-linecap="round" stroke-linejoin="round"/> </g> <defs> <clipPath id="clip0_4482_3721"> <rect width="24" height="24" fill="white"/> </clipPath> </defs> </svg>
