<svg width="24" height="24" viewBox="0 0 24 24" fill="none" xmlns="http://www.w3.org/2000/svg"> <g clip-path="url(#clip0_4482_3808)"> <path d="M19.07 4.92957C22.98 8.83957 22.98 15.1696 19.07 19.0696C15.16 22.9696 8.82997 22.9796 4.92997 19.0696C1.02997 15.1596 1.01997 8.82957 4.92997 4.92957C8.82997 1.01957 15.17 1.01957 19.07 4.92957Z" stroke="white" stroke-width="1.5" stroke-linecap="round" stroke-linejoin="round"/> <path d="M19.07 4.92957C22.98 8.83957 22.98 15.1696 19.07 19.0696C15.16 22.9696 8.82997 22.9796 4.92997 19.0696C1.02997 15.1596 1.01997 8.82957 4.92997 4.92957C8.82997 1.01957 15.17 1.01957 19.07 4.92957Z" stroke="white" stroke-width="1.5" stroke-linecap="round" stroke-linejoin="round"/> <path d="M10.28 13.5604C11.0035 13.5604 11.59 12.9739 11.59 12.2504C11.59 11.5269 11.0035 10.9404 10.28 10.9404C9.55648 10.9404 8.96997 11.5269 8.96997 12.2504C8.96997 12.9739 9.55648 13.5604 10.28 13.5604Z" stroke="white" stroke-width="1.5" stroke-linecap="round" stroke-linejoin="round"/> <path d="M16.35 11.9003C17.0735 11.9003 17.66 11.3138 17.66 10.5903C17.66 9.86678 17.0735 9.28027 16.35 9.28027C15.6265 9.28027 15.04 9.86678 15.04 10.5903C15.04 11.3138 15.6265 11.9003 16.35 11.9003Z" stroke="white" stroke-width="1.5" stroke-linecap="round" stroke-linejoin="round"/> <path d="M11.45 8.21961C12.1735 8.21961 12.76 7.6331 12.76 6.90961C12.76 6.18612 12.1735 5.59961 11.45 5.59961C10.7265 5.59961 10.14 6.18612 10.14 6.90961C10.14 7.6331 10.7265 8.21961 11.45 8.21961Z" stroke="white" stroke-width="1.5" stroke-linecap="round" stroke-linejoin="round"/> </g> <defs> <clipPath id="clip0_4482_3808"> <rect width="24" height="24" fill="white"/> </clipPath> </defs> </svg>
