<svg width="24" height="24" viewBox="0 0 24 24" fill="none" xmlns="http://www.w3.org/2000/svg"> <g clip-path="url(#clip0_2085_391042)"> <path d="M8.27002 8.02V10.55C8.27002 12.57 9.78002 14.38 11.8 14.49C13.95 14.6 15.73 12.89 15.73 10.76V8.23C15.73 6.17 14.06 4.5 12 4.5H11.79C9.85002 4.5 8.27002 6.08 8.27002 8.02Z" stroke="white" stroke-width="1.5" stroke-linecap="round" stroke-linejoin="round"/> <path d="M8.27002 8.22926H10.76C11.45 8.22926 12 7.66926 12 6.98926" stroke="white" stroke-width="1.5" stroke-linecap="round" stroke-linejoin="round"/> <path d="M15.74 8.22926H13.25C12.56 8.22926 12.01 7.66926 12.01 6.98926" stroke="white" stroke-width="1.5" stroke-linecap="round" stroke-linejoin="round"/> <path d="M10.76 10.7598C10.76 11.4498 11.32 11.9998 12 11.9998C12.68 11.9998 13.24 11.4398 13.24 10.7598" stroke="white" stroke-width="1.5" stroke-linecap="round" stroke-linejoin="round"/> <path d="M13.31 14.26C13.53 15.2 14.27 15.94 15.25 16.14L17.47 16.58C18.63 16.81 19.47 17.83 19.47 19.02V20C19.47 21.1 18.57 22 17.47 22H6.54001C5.44001 22 4.54001 21.1 4.54001 20V19.02C4.54001 17.83 5.38001 16.81 6.54001 16.58L8.76001 16.14C9.74001 15.94 10.49 15.19 10.7 14.25" stroke="white" stroke-width="1.5" stroke-linecap="round" stroke-linejoin="round"/> <path d="M16.98 21.9997V20.7097C16.98 19.3297 15.87 18.2197 14.49 18.2197C14.06 18.2197 13.66 18.3297 13.31 18.5197C12.48 18.9697 11.52 18.9697 10.69 18.5197C10.34 18.3297 9.94002 18.2197 9.51002 18.2197C8.14002 18.2197 7.02002 19.3297 7.02002 20.7097V21.9997" stroke="white" stroke-width="1.5" stroke-linecap="round" stroke-linejoin="round"/> <path d="M19.47 19.4695H19.52C20.8 19.4695 21.75 18.2895 21.47 17.0495L19.53 8.09953C18.77 4.54953 15.63 2.01953 12.01 2.01953C8.39001 2.01953 5.25001 4.55953 4.48001 8.09953L2.54001 17.0495C2.27001 18.2995 3.22001 19.4695 4.49001 19.4695H4.54001" stroke="white" stroke-width="1.5" stroke-linecap="round" stroke-linejoin="round"/> <path d="M9.71 15.7293C9.65 15.7293 9.58 15.7293 9.52 15.7293C8.15 15.7293 7.03 14.6193 7.03 13.2393C7.03 12.2993 7.55 11.4893 8.31 11.0693" stroke="white" stroke-width="1.5" stroke-linecap="round" stroke-linejoin="round"/> <path d="M15.73 11.0791C16.48 11.5091 16.99 12.3191 16.99 13.2391C16.99 14.6091 15.88 15.7291 14.5 15.7291C14.44 15.7291 14.37 15.7291 14.31 15.7291" stroke="white" stroke-width="1.5" stroke-linecap="round" stroke-linejoin="round"/> <path d="M7.26001 16.4395L8.02001 18.7295" stroke="white" stroke-width="1.5" stroke-linecap="round" stroke-linejoin="round"/> <path d="M15.99 18.7197L16.75 16.4297" stroke="white" stroke-width="1.5" stroke-linecap="round" stroke-linejoin="round"/> </g> <defs> <clipPath id="clip0_2085_391042"> <rect width="24" height="24" fill="white"/> </clipPath> </defs> </svg>
