<svg width="24" height="24" viewBox="0 0 24 24" fill="none" xmlns="http://www.w3.org/2000/svg"> <g clip-path="url(#clip0_4482_3916)"> <path d="M16.9 22H7.10001C5.40001 22 4 20.61 4 18.9V5.1C4 3.4 5.39001 2 7.10001 2H16.9C18.6 2 20 3.39 20 5.1V18.9C20 20.61 18.61 22 16.9 22Z" stroke="white" stroke-width="1.5" stroke-linecap="round" stroke-linejoin="round"/> <path d="M18.5 13H5.5C4.67 13 4 12.33 4 11.5V9.5C4 8.67 4.67 8 5.5 8H18.5C19.33 8 20 8.67 20 9.5V11.5C20 12.33 19.33 13 18.5 13Z" stroke="white" stroke-width="1.5" stroke-linecap="round" stroke-linejoin="round"/> <path d="M9.5 5H14.5" stroke="white" stroke-width="1.5" stroke-linecap="round" stroke-linejoin="round"/> <path d="M1.5 6V9" stroke="white" stroke-width="1.5" stroke-linecap="round" stroke-linejoin="round"/> <path d="M22.5 6V9" stroke="white" stroke-width="1.5" stroke-linecap="round" stroke-linejoin="round"/> </g> <defs> <clipPath id="clip0_4482_3916"> <rect width="24" height="24" fill="white"/> </clipPath> </defs> </svg>
