<svg width="24" height="24" viewBox="0 0 24 24" fill="none" xmlns="http://www.w3.org/2000/svg"> <g clip-path="url(#clip0_2085_387023)"> <path d="M17.49 22C17.49 20.48 16.26 19.25 14.74 19.25H9.25001C8.52001 19.25 7.82001 19.54 7.31001 20.05C6.79001 20.57 6.51001 21.26 6.51001 21.99H17.49V22Z" stroke="white" stroke-width="1.41" stroke-linecap="round" stroke-linejoin="round"/> <path d="M13.37 2.52043C12.58 1.83043 11.41 1.83043 10.62 2.52043C8.8 4.12043 5.81 7.22043 5.81 10.3304C5.81 13.7404 8.58 16.5104 11.99 16.5104C15.4 16.5104 18.17 13.7404 18.17 10.3304C18.17 7.23043 15.19 4.13043 13.36 2.52043H13.37Z" stroke="white" stroke-width="1.41" stroke-linecap="round" stroke-linejoin="round"/> <path d="M5.13 22H18.86" stroke="white" stroke-width="1.41" stroke-linecap="round" stroke-linejoin="round"/> <path d="M10.63 16.3506V19.2506H13.38V16.3506C12.94 16.4506 12.48 16.5006 12.01 16.5006C11.54 16.5006 11.08 16.4506 10.64 16.3506H10.63Z" stroke="white" stroke-width="1.41" stroke-linecap="round" stroke-linejoin="round"/> <path d="M11.31 13.6901C9.74 13.3701 8.56 11.9901 8.56 10.3301" stroke="white" stroke-width="1.41" stroke-linecap="round" stroke-linejoin="round"/> </g> <defs> <clipPath id="clip0_2085_387023"> <rect width="24" height="24" fill="white"/> </clipPath> </defs> </svg>
