<svg width="24" height="24" viewBox="0 0 24 24" fill="none" xmlns="http://www.w3.org/2000/svg"> <g clip-path="url(#clip0_2085_391046)"> <path d="M2 6.98047H22" stroke="white" stroke-width="1.5" stroke-linecap="round" stroke-linejoin="round"/> <path d="M18 22.0002H6C3.79 22.0002 2 20.2102 2 18.0002V7.24023C2 5.03023 3.79 3.24023 6 3.24023H18C20.2 3.24023 22 5.04023 22 7.24023V18.0002C22 20.2102 20.21 22.0002 18 22.0002Z" stroke="white" stroke-width="1.5" stroke-linecap="round" stroke-linejoin="round"/> <path d="M12 2V4.49" stroke="white" stroke-width="1.5" stroke-linecap="round" stroke-linejoin="round"/> <path d="M15.73 2V4.49" stroke="white" stroke-width="1.5" stroke-linecap="round" stroke-linejoin="round"/> <path d="M8.27002 2V4.49" stroke="white" stroke-width="1.5" stroke-linecap="round" stroke-linejoin="round"/> <path d="M14.49 15.73C14.49 17.79 12.82 19.46 10.76 19.46C8.70003 19.46 7.03003 17.79 7.03003 15.73C7.03003 13.67 8.70003 12 10.76 12C12.82 12 14.49 13.67 14.49 15.73Z" stroke="white" stroke-width="1.5" stroke-linecap="round" stroke-linejoin="round"/> <path d="M12 15.73C12 17.79 13.67 19.46 15.73 19.46C17.79 19.46 19.46 17.79 19.46 15.73C19.46 13.67 17.79 12 15.73 12C13.67 12 12 13.67 12 15.73Z" stroke="white" stroke-width="1.5" stroke-linecap="round" stroke-linejoin="round"/> <path d="M4.60999 11.3298L6.34999 9.58984H8.13999V13.0798H4.60999V11.3298Z" stroke="white" stroke-width="1.5" stroke-linecap="round" stroke-linejoin="round"/> </g> <defs> <clipPath id="clip0_2085_391046"> <rect width="24" height="24" fill="white"/> </clipPath> </defs> </svg>
