<svg width="24" height="24" viewBox="0 0 24 24" fill="none" xmlns="http://www.w3.org/2000/svg"> <g clip-path="url(#clip0_4482_15334)"> <path d="M15.2202 9.89973C16.9602 11.6397 16.9602 14.4597 15.2202 16.1997C13.4802 17.9397 10.6602 17.9397 8.92023 16.1997C7.18023 14.4597 7.18023 11.6397 8.92023 9.89973C10.6602 8.15973 13.4802 8.15973 15.2202 9.89973Z" stroke="white" stroke-width="1.5" stroke-linecap="round" stroke-linejoin="round"/> <path d="M22.0597 9.67023V17.5702C22.0597 19.4002 20.5797 20.8902 18.7397 20.8902H5.24969C3.41969 20.8902 1.92969 19.4102 1.92969 17.5702V9.67023C1.92969 7.84023 3.40969 6.35023 5.24969 6.35023C5.96969 6.35023 6.62969 5.97023 6.98969 5.35023L7.77969 3.99023C8.13969 3.37023 8.79969 2.99023 9.51969 2.99023H14.4297C15.1397 2.99023 15.7897 3.36023 16.1497 3.97023L16.9897 5.37023C17.3497 5.98023 18.0097 6.35023 18.7097 6.35023H18.7297C20.5597 6.35023 22.0497 7.83023 22.0497 9.67023H22.0597Z" stroke="white" stroke-width="1.5" stroke-linecap="round" stroke-linejoin="round"/> </g> <defs> <clipPath id="clip0_4482_15334"> <rect width="24" height="24" fill="white"/> </clipPath> </defs> </svg>
