<svg width="24" height="24" viewBox="0 0 24 24" fill="none" xmlns="http://www.w3.org/2000/svg"> <g clip-path="url(#clip0_2085_387025)"> <path d="M5.78003 22H18.23" stroke="white" stroke-width="1.41" stroke-linecap="round" stroke-linejoin="round"/> <path d="M16.98 22V9.47C16.98 7.43 15.75 5.69 13.99 4.92C13.54 4.72 13.25 4.28 13.25 3.79V3.24C13.25 2.55 12.69 2 12.01 2C11.33 2 10.77 2.56 10.77 3.24V3.79C10.77 4.28 10.48 4.72 10.03 4.92C8.27004 5.69 7.04004 7.43 7.04004 9.47V22" stroke="white" stroke-width="1.41" stroke-linecap="round" stroke-linejoin="round"/> <path d="M14.49 9.47047C14.49 10.8505 13.38 11.9605 12 11.9605C10.62 11.9605 9.51001 10.8505 9.51001 9.47047C9.51001 8.09047 10.62 6.98047 12 6.98047C13.38 6.98047 14.49 8.09047 14.49 9.47047Z" stroke="white" stroke-width="1.41" stroke-linecap="round" stroke-linejoin="round"/> <path d="M12 15.57V11.96" stroke="white" stroke-width="1.41" stroke-linecap="round" stroke-linejoin="round"/> <path d="M13.24 14.4502L12 15.6902L10.76 14.4502" stroke="white" stroke-width="1.41" stroke-linecap="round" stroke-linejoin="round"/> </g> <defs> <clipPath id="clip0_2085_387025"> <rect width="24" height="24" fill="white"/> </clipPath> </defs> </svg>
