<svg width="24" height="24" viewBox="0 0 24 24" fill="none" xmlns="http://www.w3.org/2000/svg"> <g clip-path="url(#clip0_2085_382205)"> <path d="M8.32001 9.76004C6.86001 9.17004 5.04001 8.78004 2.98001 9.11004C3.70001 6.85004 5.25001 4.96004 7.27001 3.79004C8.94001 4.75004 10.28 6.21004 11.1 7.96004" stroke="white" stroke-width="1.5" stroke-linecap="round" stroke-linejoin="round"/> <path d="M9.99001 15.6799C9.38001 17.1799 8.92001 19.0299 9.11001 21.0199C6.85001 20.2999 4.96001 18.7499 3.79001 16.7299C4.75001 15.0799 6.19001 13.7399 7.92001 12.9099" stroke="white" stroke-width="1.5" stroke-linecap="round" stroke-linejoin="round"/> <path d="M12.93 16.0999C13.76 17.8199 15.09 19.2599 16.74 20.2099C18.76 19.0399 20.31 17.1499 21.03 14.8899C18.91 15.0599 17.11 14.6799 15.69 14.1399" stroke="white" stroke-width="1.5" stroke-linecap="round" stroke-linejoin="round"/> <path d="M14.21 8.43998C14.71 7.06998 15.05 5.25998 14.89 2.97998C17.15 3.69998 19.04 5.24998 20.21 7.26998C19.26 8.91998 17.82 10.25 16.1 11.08" stroke="white" stroke-width="1.5" stroke-linecap="round" stroke-linejoin="round"/> <path d="M12 16C14.2091 16 16 14.2091 16 12C16 9.79086 14.2091 8 12 8C9.79086 8 8 9.79086 8 12C8 14.2091 9.79086 16 12 16Z" stroke="white" stroke-width="1.5" stroke-miterlimit="10"/> <path d="M12 22C17.5228 22 22 17.5228 22 12C22 6.47715 17.5228 2 12 2C6.47715 2 2 6.47715 2 12C2 17.5228 6.47715 22 12 22Z" stroke="white" stroke-width="1.5" stroke-miterlimit="10"/> </g> <defs> <clipPath id="clip0_2085_382205"> <rect width="24" height="24" fill="white"/> </clipPath> </defs> </svg>
