<svg width="24" height="24" viewBox="0 0 24 24" fill="none" xmlns="http://www.w3.org/2000/svg"> <g clip-path="url(#clip0_4482_3923)"> <path d="M7.65002 17.5C8.75459 17.5 9.65002 16.6046 9.65002 15.5C9.65002 14.3954 8.75459 13.5 7.65002 13.5C6.54545 13.5 5.65002 14.3954 5.65002 15.5C5.65002 16.6046 6.54545 17.5 7.65002 17.5Z" stroke="white" stroke-width="1.5" stroke-linecap="round" stroke-linejoin="round"/> <path d="M15.65 17.5C16.7546 17.5 17.65 16.6046 17.65 15.5C17.65 14.3954 16.7546 13.5 15.65 13.5C14.5455 13.5 13.65 14.3954 13.65 15.5C13.65 16.6046 14.5455 17.5 15.65 17.5Z" stroke="white" stroke-width="1.5" stroke-linecap="round" stroke-linejoin="round"/> <path d="M22.34 11.2C22.34 11.29 22.34 11.39 22.32 11.48L22 13.41C21.8 14.62 20.75 15.5 19.53 15.5H17.65C17.65 14.4 16.75 13.5 15.65 13.5C14.55 13.5 13.65 14.4 13.65 15.5H9.65002C9.65002 14.4 8.75002 13.5 7.65002 13.5C6.55002 13.5 5.65002 14.4 5.65002 15.5H4.65002C3.55002 15.5 2.65002 14.6 2.65002 13.5V9.5C4.60002 9.5 6.48999 8.87 8.04999 7.7L9.02002 6.97C9.43002 6.67 9.93 6.5 10.44 6.5H12.66C13.95 6.5 15.21 6.92 16.24 7.69L17.06 8.31C18.09 9.08 19.35 9.5 20.64 9.5C21.59 9.5 22.34 10.28 22.34 11.2Z" stroke="white" stroke-width="1.5" stroke-linecap="round" stroke-linejoin="round"/> <path d="M2.65002 7.08984V10.0898" stroke="white" stroke-width="1.5" stroke-linecap="round" stroke-linejoin="round"/> <path d="M3.62 7.26016L1.65997 6.91016" stroke="white" stroke-width="1.5" stroke-linecap="round" stroke-linejoin="round"/> </g> <defs> <clipPath id="clip0_4482_3923"> <rect width="24" height="24" fill="white"/> </clipPath> </defs> </svg>
