<svg width="24" height="24" viewBox="0 0 24 24" fill="none" xmlns="http://www.w3.org/2000/svg"> <g clip-path="url(#clip0_2085_386761)"> <path d="M18.41 16.87C16.99 16.87 15.85 18.02 15.85 19.43C15.85 20.84 17 21.99 18.41 21.99C19.82 21.99 20.97 20.84 20.97 19.43C20.97 18.02 19.82 16.87 18.41 16.87ZM18.41 16.87V9.18L21.49 6.1M19.95 9.18C15.85 9.18 11.74 8.67 11.23 4.56C8.67002 5.07 6.10002 7.13 6.62002 9.18C7.13002 11.23 16.36 9.74 10.72 15.85M11.74 7.13C11.74 7.13 9.18002 9.18 8.15002 11.23C7.12002 13.28 7.12002 18.41 7.12002 18.41M18.41 19.44C18.41 19.44 6.49002 22 5.08002 22C3.67002 22 2.52002 20.85 2.52002 19.44C2.52002 18.03 3.67002 16.88 5.08002 16.88C6.49002 16.88 18.41 19.44 18.41 19.44ZM17.9 4.05C17.9 5.18 16.98 6.1 15.85 6.1C14.72 6.1 13.8 5.18 13.8 4.05C13.8 2.92 14.72 2 15.85 2C16.98 2 17.9 2.92 17.9 4.05Z" stroke="white" stroke-width="1.5" stroke-linecap="round" stroke-linejoin="round"/> </g> <defs> <clipPath id="clip0_2085_386761"> <rect width="24" height="24" fill="white"/> </clipPath> </defs> </svg>
