<svg width="24" height="24" viewBox="0 0 24 24" fill="none" xmlns="http://www.w3.org/2000/svg"> <g clip-path="url(#clip0_4482_7654)"> <path d="M20.2596 15.7701C21.6596 17.1701 21.6596 19.4401 20.2596 20.8401C18.8596 22.2401 16.5896 22.2401 15.1896 20.8401C13.7896 19.4401 13.7896 17.1701 15.1896 15.7701C16.5896 14.3701 18.8596 14.3701 20.2596 15.7701Z" stroke="white" stroke-width="1.5" stroke-linecap="round" stroke-linejoin="round"/> <path d="M21.6497 7.13006L18.5597 10.2201C18.0897 10.6901 17.3397 10.6901 16.8697 10.2201L13.7797 7.13006C13.3097 6.66006 13.3097 5.91006 13.7797 5.44006L16.8697 2.35006C17.3397 1.88006 18.0897 1.88006 18.5597 2.35006L21.6497 5.44006C22.1197 5.91006 22.1197 6.66006 21.6497 7.13006Z" stroke="white" stroke-width="1.5" stroke-linecap="round" stroke-linejoin="round"/> <path d="M3.60992 9.66003H7.96992C8.62992 9.66003 9.15992 9.13003 9.15992 8.47003V4.10003C9.15992 3.44003 8.62992 2.91003 7.96992 2.91003H3.60992C2.94992 2.91003 2.41992 3.44003 2.41992 4.10003V8.47003C2.41992 9.13003 2.94992 9.66003 3.60992 9.66003Z" stroke="white" stroke-width="1.5" stroke-linecap="round" stroke-linejoin="round"/> <path d="M4.71985 15.6501L2.06985 19.8901C1.54985 20.7301 2.14985 21.8201 3.13985 21.8201H8.42985C9.41985 21.8201 10.0198 20.7301 9.49985 19.8901L6.84985 15.6501C6.35985 14.8601 5.20985 14.8601 4.70985 15.6501H4.71985Z" stroke="white" stroke-width="1.5" stroke-linecap="round" stroke-linejoin="round"/> </g> <defs> <clipPath id="clip0_4482_7654"> <rect width="24" height="24" fill="white"/> </clipPath> </defs> </svg>
