<svg width="24" height="24" viewBox="0 0 24 24" fill="none" xmlns="http://www.w3.org/2000/svg"> <g clip-path="url(#clip0_4482_4218)"> <path d="M6.68003 11.0098L14.21 13.6198C15.25 13.9798 16.39 13.4298 16.76 12.3898L18.2 8.2498C18.56 7.2098 18.01 6.0698 16.97 5.6998L9.44004 3.0898C8.40004 2.7298 7.26003 3.2798 6.89003 4.3198L5.45003 8.4598C5.09003 9.5098 5.64003 10.6498 6.68003 11.0098Z" stroke="white" stroke-width="1.5" stroke-miterlimit="10" stroke-linecap="round" stroke-linejoin="round"/> <path d="M18.05 8.66951L16.91 11.9695L18.73 13.5995C19.59 14.3695 20.6 14.0995 20.98 13.0195L21.9 10.3795C22.28 9.28951 21.65 8.45951 20.5 8.52951L18.05 8.66951Z" stroke="white" stroke-width="1.5" stroke-miterlimit="10" stroke-linecap="round" stroke-linejoin="round"/> <path d="M10.38 12.6104C10.38 15.5004 8.04001 17.8503 5.14001 17.8503" stroke="white" stroke-width="1.5" stroke-miterlimit="10" stroke-linecap="round" stroke-linejoin="round"/> <path d="M3.05 20.9904H4.10001C4.68001 20.9904 5.14999 20.5204 5.14999 19.9404V14.7004C5.14999 14.1204 4.68001 13.6504 4.10001 13.6504H3.05C2.47 13.6504 2 14.1204 2 14.7004V19.9404C2 20.5204 2.47 20.9904 3.05 20.9904Z" stroke="white" stroke-width="1.5" stroke-miterlimit="10" stroke-linecap="round" stroke-linejoin="round"/> </g> <defs> <clipPath id="clip0_4482_4218"> <rect width="24" height="24" fill="white"/> </clipPath> </defs> </svg>
