<svg width="24" height="24" viewBox="0 0 24 24" fill="none" xmlns="http://www.w3.org/2000/svg"> <g clip-path="url(#clip0_2085_390883)"> <path d="M21.94 8.66992H20.49" stroke="white" stroke-width="1.5" stroke-linecap="round" stroke-linejoin="round"/> <path d="M18.66 3.82031C17.66 3.82031 16.84 4.63031 16.84 5.64031V8.67031C16.84 10.0103 15.75 11.1003 14.42 11.1003H9.57001C6.22001 11.1003 3.51001 13.8103 3.51001 17.1603V20.1903C3.51001 21.1903 4.32001 22.0103 5.33001 22.0103C6.34001 22.0103 7.15001 21.2003 7.15001 20.1903V17.1603C7.15001 15.8203 8.24001 14.7403 9.57001 14.7403H14.42C17.77 14.7403 20.48 12.0303 20.48 8.68031V5.65031C20.48 4.65031 19.67 3.83031 18.66 3.83031V3.82031Z" stroke="white" stroke-width="1.5" stroke-linecap="round" stroke-linejoin="round"/> <path d="M20.48 2C20.48 3 19.67 3.82 18.66 3.82C17.65 3.82 16.84 3.01 16.84 2" stroke="white" stroke-width="1.5" stroke-linecap="round" stroke-linejoin="round"/> <path d="M16.85 6.24023H15.4" stroke="white" stroke-width="1.5" stroke-linecap="round" stroke-linejoin="round"/> <path d="M16.85 8.66992H15.4" stroke="white" stroke-width="1.5" stroke-linecap="round" stroke-linejoin="round"/> <path d="M21.94 6.24023H20.49" stroke="white" stroke-width="1.5" stroke-linecap="round" stroke-linejoin="round"/> <path d="M8.60002 17.1504H7.15002" stroke="white" stroke-width="1.5" stroke-linecap="round" stroke-linejoin="round"/> <path d="M8.60002 19.5703H7.15002" stroke="white" stroke-width="1.5" stroke-linecap="round" stroke-linejoin="round"/> <path d="M3.51 17.1504H2.06" stroke="white" stroke-width="1.5" stroke-linecap="round" stroke-linejoin="round"/> <path d="M3.51 19.5703H2.06" stroke="white" stroke-width="1.5" stroke-linecap="round" stroke-linejoin="round"/> <path d="M14.42 11.0896V9.63965" stroke="white" stroke-width="1.5" stroke-linecap="round" stroke-linejoin="round"/> <path d="M12 11.0896V9.63965" stroke="white" stroke-width="1.5" stroke-linecap="round" stroke-linejoin="round"/> <path d="M9.57001 11.0896V9.63965" stroke="white" stroke-width="1.5" stroke-linecap="round" stroke-linejoin="round"/> <path d="M7.32999 11.5201L6.73999 10.0801" stroke="white" stroke-width="1.5" stroke-linecap="round" stroke-linejoin="round"/> <path d="M3.94001 14.9103L2.51001 14.3203" stroke="white" stroke-width="1.5" stroke-linecap="round" stroke-linejoin="round"/> <path d="M5.29 12.8695L4.19 11.7695" stroke="white" stroke-width="1.5" stroke-linecap="round" stroke-linejoin="round"/> <path d="M14.42 14.7803V16.2303" stroke="white" stroke-width="1.5" stroke-linecap="round" stroke-linejoin="round"/> <path d="M16.66 14.3496L17.22 15.6996" stroke="white" stroke-width="1.5" stroke-linecap="round" stroke-linejoin="round"/> <path d="M20.06 10.96L21.43 11.53" stroke="white" stroke-width="1.5" stroke-linecap="round" stroke-linejoin="round"/> <path d="M18.71 13.0098L19.81 14.1098" stroke="white" stroke-width="1.5" stroke-linecap="round" stroke-linejoin="round"/> <path d="M12 16.1805V14.7305" stroke="white" stroke-width="1.5" stroke-linecap="round" stroke-linejoin="round"/> <path d="M9.57001 16.1805V14.7305" stroke="white" stroke-width="1.5" stroke-linecap="round" stroke-linejoin="round"/> </g> <defs> <clipPath id="clip0_2085_390883"> <rect width="24" height="24" fill="white"/> </clipPath> </defs> </svg>
