<svg width="24" height="24" viewBox="0 0 24 24" fill="none" xmlns="http://www.w3.org/2000/svg"> <g clip-path="url(#clip0_4482_9368)"> <path d="M6.89978 19.45C10.2898 19.89 13.7198 19.89 17.1098 19.45C18.9098 19.23 20.4798 18.15 21.3298 16.55C22.1798 14.96 22.2098 13.05 21.3998 11.43L18.7298 6.14C17.4498 3.6 14.8398 2 11.9998 2C9.14978 2 6.54978 3.6 5.26978 6.14L2.59978 11.43C1.78978 13.05 1.81978 14.96 2.66978 16.55C3.51978 18.14 5.09978 19.23 6.88978 19.45H6.89978Z" stroke="white" stroke-width="1.5" stroke-linecap="round" stroke-linejoin="round"/> <path d="M7.55957 15.6101C10.5096 15.9801 13.4996 15.9801 16.4496 15.6101" stroke="white" stroke-width="1.5" stroke-linecap="round" stroke-linejoin="round"/> <path d="M18.6696 21.9999L17.3696 19.3999" stroke="white" stroke-width="1.5" stroke-linecap="round" stroke-linejoin="round"/> <path d="M6.62959 19.3999L5.32959 21.9999" stroke="white" stroke-width="1.5" stroke-linecap="round" stroke-linejoin="round"/> </g> <defs> <clipPath id="clip0_4482_9368"> <rect width="24" height="24" fill="white"/> </clipPath> </defs> </svg>
