<svg width="24" height="24" viewBox="0 0 24 24" fill="none" xmlns="http://www.w3.org/2000/svg"> <g clip-path="url(#clip0_4482_7566)"> <path d="M15.8398 8.16C15.6698 6.65 15.0098 5.19 13.8598 4.03C11.1498 1.32 6.74982 1.32 4.03982 4.03C1.32982 6.74 1.32982 11.14 4.03982 13.85C6.74982 16.56 11.1498 16.56 13.8598 13.85C14.6598 13.05 15.2198 12.1 15.5498 11.09" stroke="white" stroke-width="1.5" stroke-linecap="round" stroke-linejoin="round"/> <path d="M8.16016 15.84C8.33016 17.35 8.99016 18.81 10.1402 19.97C12.8502 22.68 17.2502 22.68 19.9602 19.97C22.6702 17.26 22.6702 12.86 19.9602 10.15C17.2502 7.43999 12.8502 7.43999 10.1402 10.15C9.34016 10.95 8.78016 11.9 8.45016 12.91" stroke="white" stroke-width="1.5" stroke-linecap="round" stroke-linejoin="round"/> </g> <defs> <clipPath id="clip0_4482_7566"> <rect width="24" height="24" fill="white"/> </clipPath> </defs> </svg>
