<svg width="24" height="24" viewBox="0 0 24 24" fill="none" xmlns="http://www.w3.org/2000/svg"> <g clip-path="url(#clip0_4482_13012)"> <path d="M14.5 15C17.2614 15 19.5 12.7614 19.5 10C19.5 7.23858 17.2614 5 14.5 5C11.7386 5 9.5 7.23858 9.5 10C9.5 12.7614 11.7386 15 14.5 15Z" stroke="white" stroke-width="1.5" stroke-linecap="round" stroke-linejoin="round"/> <path d="M9.5 19C12.2614 19 14.5 16.7614 14.5 14C14.5 11.2386 12.2614 9 9.5 9C6.73858 9 4.5 11.2386 4.5 14C4.5 16.7614 6.73858 19 9.5 19Z" stroke="white" stroke-width="1.5" stroke-linecap="round" stroke-linejoin="round"/> <path d="M21.9501 15.6201C21.9501 19.1101 19.1101 21.9501 15.6201 21.9501L16.5701 20.3701" stroke="white" stroke-width="1.5" stroke-linecap="round" stroke-linejoin="round"/> <path d="M2.0498 8.3798C2.0498 4.8898 4.8898 2.0498 8.3798 2.0498L7.4298 3.6298" stroke="white" stroke-width="1.5" stroke-linecap="round" stroke-linejoin="round"/> </g> <defs> <clipPath id="clip0_4482_13012"> <rect width="24" height="24" fill="white"/> </clipPath> </defs> </svg>
