<svg width="24" height="24" viewBox="0 0 24 24" fill="none" xmlns="http://www.w3.org/2000/svg"> <g clip-path="url(#clip0_4482_13011)"> <path d="M4 14H15" stroke="white" stroke-width="1.5" stroke-linecap="round" stroke-linejoin="round"/> <path d="M5.70996 2.07031L7.28996 3.65031" stroke="white" stroke-width="1.5" stroke-linecap="round" stroke-linejoin="round"/> <path d="M7.29004 3.65039H5.19004C3.45004 3.65039 2.04004 5.06039 2.04004 6.80039" stroke="white" stroke-width="1.5" stroke-linecap="round" stroke-linejoin="round"/> <path d="M18.3202 22.04L16.7402 20.46" stroke="white" stroke-width="1.5" stroke-linecap="round" stroke-linejoin="round"/> <path d="M16.75 20.4596H18.85C20.59 20.4596 22 19.0496 22 17.3096" stroke="white" stroke-width="1.5" stroke-linecap="round" stroke-linejoin="round"/> <path d="M12.7204 18.36H5.71035C4.55035 18.36 3.61035 17.42 3.61035 16.26V12.06C3.61035 10.9 4.55035 9.95996 5.71035 9.95996H12.7204C13.8804 9.95996 14.8204 10.9 14.8204 12.06V16.26C14.8204 17.42 13.8804 18.36 12.7204 18.36Z" stroke="white" stroke-width="1.5" stroke-linecap="round" stroke-linejoin="round"/> <path d="M14.82 14.16H18.32C19.48 14.16 20.42 13.22 20.42 12.06V7.85C20.42 6.69 19.48 5.75 18.32 5.75H11.31C10.15 5.75 9.20996 6.69 9.20996 7.85V9.95" stroke="white" stroke-width="1.5" stroke-linecap="round" stroke-linejoin="round"/> </g> <defs> <clipPath id="clip0_4482_13011"> <rect width="24" height="24" fill="white"/> </clipPath> </defs> </svg>
