<svg width="24" height="24" viewBox="0 0 24 24" fill="none" xmlns="http://www.w3.org/2000/svg"> <g clip-path="url(#clip0_2085_391048)"> <path d="M5.14996 2H18.84C19.87 2 20.71 3.24 20.71 5.73V19C20.71 20.66 19.37 22 17.71 22H10.02C8.35996 22 7.01996 20.66 7.01996 19V5.73" stroke="white" stroke-width="1.5" stroke-linecap="round" stroke-linejoin="round"/> <path d="M7.01998 5.73H3.28998C3.28998 3.24 4.11998 2 5.15998 2C6.19998 2 7.02998 3.24 7.02998 5.73H7.01998Z" stroke="white" stroke-width="1.5" stroke-linecap="round" stroke-linejoin="round"/> <path d="M13.87 5.42023C13.87 5.42023 14.17 4.49023 15.11 4.49023C15.85 4.49023 16.36 5.03023 16.36 5.66023C16.36 6.54023 15.35 7.16024 13.87 8.27024C12.39 7.16024 11.38 6.54023 11.38 5.66023C11.38 5.03023 11.89 4.49023 12.62 4.49023C13.57 4.49023 13.86 5.42023 13.86 5.42023H13.87Z" stroke="white" stroke-width="1.5" stroke-linecap="round" stroke-linejoin="round"/> <path d="M12 10.7598H15.73" stroke="white" stroke-width="1.5" stroke-linecap="round" stroke-linejoin="round"/> <path d="M9.50995 13.2402H18.2199" stroke="white" stroke-width="1.5" stroke-linecap="round" stroke-linejoin="round"/> <path d="M9.50995 15.7305H18.2199" stroke="white" stroke-width="1.5" stroke-linecap="round" stroke-linejoin="round"/> <path d="M9.50995 19.5098H11.9999" stroke="white" stroke-width="1.5" stroke-linecap="round" stroke-linejoin="round"/> <path d="M15.73 19.5098H18.22" stroke="white" stroke-width="1.5" stroke-linecap="round" stroke-linejoin="round"/> </g> <defs> <clipPath id="clip0_2085_391048"> <rect width="24" height="24" fill="white"/> </clipPath> </defs> </svg>
