<svg width="24" height="24" viewBox="0 0 24 24" fill="none" xmlns="http://www.w3.org/2000/svg"> <g clip-path="url(#clip0_2085_382544)"> <path d="M3.28998 9.50977H20.72" stroke="white" stroke-width="1.5" stroke-linecap="round" stroke-linejoin="round"/> <path d="M3.28998 9.50977C3.97998 9.50977 4.52998 10.0698 4.52998 10.7598V21.9998H9.50998V14.4898C9.50998 13.1198 10.63 11.9998 12 11.9998C13.37 11.9998 14.49 13.1098 14.49 14.4898V21.9998H19.47V10.7598C19.47 10.0698 20.03 9.50977 20.71 9.50977" stroke="white" stroke-width="1.5" stroke-linecap="round" stroke-linejoin="round"/> <path d="M3.28998 14.4902H9.50998" stroke="white" stroke-width="1.5" stroke-linecap="round" stroke-linejoin="round"/> <path d="M14.49 14.4902H20.71" stroke="white" stroke-width="1.5" stroke-linecap="round" stroke-linejoin="round"/> <path d="M3.28998 16.9805H9.50998" stroke="white" stroke-width="1.5" stroke-linecap="round" stroke-linejoin="round"/> <path d="M14.49 16.9805H20.71" stroke="white" stroke-width="1.5" stroke-linecap="round" stroke-linejoin="round"/> <path d="M7.63996 12.0009C7.63996 12.3409 7.35996 12.6209 7.01996 12.6209C6.67996 12.6209 6.39996 12.3409 6.39996 12.0009C6.39996 11.6609 6.67996 11.3809 7.01996 11.3809C7.35996 11.3809 7.63996 11.6609 7.63996 12.0009Z" fill="white"/> <path d="M17.6 12.0009C17.6 12.3409 17.32 12.6209 16.98 12.6209C16.64 12.6209 16.36 12.3409 16.36 12.0009C16.36 11.6609 16.64 11.3809 16.98 11.3809C17.32 11.3809 17.6 11.6609 17.6 12.0009Z" fill="white"/> <path d="M14.49 9.50977V14.4898" stroke="white" stroke-width="1.5" stroke-linecap="round" stroke-linejoin="round"/> <path d="M9.50995 9.50977V14.4898" stroke="white" stroke-width="1.5" stroke-linecap="round" stroke-linejoin="round"/> <path d="M5.77997 5.7793V9.5093" stroke="white" stroke-width="1.5" stroke-linecap="round" stroke-linejoin="round"/> <path d="M5.77997 7.01953H18.23" stroke="white" stroke-width="1.5" stroke-linecap="round" stroke-linejoin="round"/> <path d="M18.22 5.7793V9.5093" stroke="white" stroke-width="1.5" stroke-linecap="round" stroke-linejoin="round"/> <path d="M8.26996 3.24023V7.02023" stroke="white" stroke-width="1.5" stroke-linecap="round" stroke-linejoin="round"/> <path d="M8.26996 4.49023H15.74" stroke="white" stroke-width="1.5" stroke-linecap="round" stroke-linejoin="round"/> <path d="M15.73 3.24023V7.02023" stroke="white" stroke-width="1.5" stroke-linecap="round" stroke-linejoin="round"/> <path d="M15.73 4.49C14.2 4.49 12.81 3.63 12.13 2.26L12 2" stroke="white" stroke-width="1.5" stroke-linecap="round" stroke-linejoin="round"/> <path d="M8.26996 4.49C9.79996 4.49 11.19 3.63 11.87 2.26L12 2" stroke="white" stroke-width="1.5" stroke-linecap="round" stroke-linejoin="round"/> <path d="M19.47 19.4707H14.49" stroke="white" stroke-width="1.5" stroke-linecap="round" stroke-linejoin="round"/> <path d="M9.50997 19.4707H4.52997" stroke="white" stroke-width="1.5" stroke-linecap="round" stroke-linejoin="round"/> </g> <defs> <clipPath id="clip0_2085_382544"> <rect width="24" height="24" fill="white"/> </clipPath> </defs> </svg>
