<svg width="24" height="24" viewBox="0 0 24 24" fill="none" xmlns="http://www.w3.org/2000/svg"> <g clip-path="url(#clip0_4482_78)"> <path d="M12 12.72V16.5" stroke="white" stroke-width="1.5" stroke-linecap="round" stroke-linejoin="round"/> <path d="M7.65055 13.67C6.53055 11.95 6.53055 9.73 7.65055 8" stroke="white" stroke-width="1.5" stroke-linecap="round" stroke-linejoin="round"/> <path d="M16.3496 13.67C17.4696 11.95 17.4696 9.73 16.3496 8" stroke="white" stroke-width="1.5" stroke-linecap="round" stroke-linejoin="round"/> <path d="M12.0004 12.7199C13.0442 12.7199 13.8904 11.8738 13.8904 10.8299C13.8904 9.78612 13.0442 8.93994 12.0004 8.93994C10.9565 8.93994 10.1104 9.78612 10.1104 10.8299C10.1104 11.8738 10.9565 12.7199 12.0004 12.7199Z" stroke="white" stroke-width="1.5" stroke-linecap="round" stroke-linejoin="round"/> <path d="M12 22C6.5 22 2 17.5 2 12C2 6.5 6.5 2 12 2C17.5 2 22 6.5 22 12C22 17.5 17.5 22 12 22Z" stroke="white" stroke-width="1.5" stroke-linecap="round" stroke-linejoin="round"/> </g> <defs> <clipPath id="clip0_4482_78"> <rect width="24" height="24" fill="white"/> </clipPath> </defs> </svg>
