<svg width="24" height="24" viewBox="0 0 24 24" fill="none" xmlns="http://www.w3.org/2000/svg"> <g clip-path="url(#clip0_4482_380)"> <path d="M22 12C22 14.75 20.88 17.25 19.06 19.06C17.25 20.88 14.75 22 12 22C6.5 22 2 17.5 2 12C2 9.25 3.12 6.75 4.94 4.94C6.75 3.12 9.25 2 12 2C13.89 2 15.66 2.53 17.16 3.45C17.2 3.47 17.24 3.5 17.27 3.52C17.93 3.92 18.52 4.4 19.06 4.94C19.56 5.44 20.01 5.99 20.4 6.59C20.43 6.63 20.45 6.67 20.48 6.72C21.44 8.25 22 10.06 22 12Z" stroke="white" stroke-width="1.5" stroke-miterlimit="10" stroke-linecap="round" stroke-linejoin="round"/> <path d="M20.48 6.72002C18.89 8.13002 17.47 9.73002 16.26 11.48L12.52 7.74002C14.27 6.53002 15.87 5.11002 17.27 3.52002C17.93 3.92002 18.52 4.40002 19.06 4.94002C19.56 5.44002 20.01 5.99002 20.4 6.59002C20.43 6.63002 20.45 6.67002 20.48 6.72002Z" stroke="white" stroke-width="1.5" stroke-miterlimit="10" stroke-linecap="round" stroke-linejoin="round"/> <path d="M13.27 8.49023L10.62 11.1302L12.86 13.3802L15.51 10.7402L13.27 8.49023Z" stroke="white" stroke-width="1.5" stroke-miterlimit="10" stroke-linecap="round" stroke-linejoin="round"/> <path d="M12.87 13.3799L10.93 15.3299L8.01001 15.9999L8.67999 13.0799L10.63 11.1299L12.87 13.3799Z" stroke="white" stroke-width="1.5" stroke-miterlimit="10" stroke-linecap="round" stroke-linejoin="round"/> </g> <defs> <clipPath id="clip0_4482_380"> <rect width="24" height="24" fill="white"/> </clipPath> </defs> </svg>
