<svg width="24" height="24" viewBox="0 0 24 24" fill="none" xmlns="http://www.w3.org/2000/svg"> <g clip-path="url(#clip0_2085_390325)"> <path d="M6.85 11.94H18.28C18.28 11.94 18.22 15.19 18.78 17.16C18.82 17.3 18.87 17.45 18.92 17.59C19.43 19.07 19.69 19.81 19.59 20.24C19.49 20.65 19.31 20.91 18.95 21.14C18.58 21.38 17.91 21.38 16.55 21.38H12.33M10.04 4.48C9.93 3.15 10.98 2 12.32 2C13.66 2 14.71 3.14 14.6 4.48L14.49 5.81C14.39 6.97 15.31 7.96 16.47 7.96H19.77C20.87 7.96 21.76 8.85 21.76 9.95C21.76 11.05 20.87 11.94 19.77 11.94H4.86C3.76 11.94 2.87 11.05 2.87 9.95C2.87 8.85 3.76 7.96 4.86 7.96H8.16C9.32 7.96 10.24 6.97 10.14 5.81L10.03 4.48H10.04Z" stroke="white" stroke-width="1.5" stroke-linecap="round" stroke-linejoin="round"/> <path d="M5.58001 15.3102C5.58001 15.3102 5.63001 15.2802 5.64001 15.3102C5.98001 16.9702 7.28001 18.2702 8.94001 18.6102C8.97001 18.6102 8.97001 18.6602 8.94001 18.6702C7.28001 19.0102 5.98001 20.3102 5.64001 21.9702C5.64001 22.0002 5.59001 22.0002 5.58001 21.9702C5.24001 20.3102 3.94001 19.0102 2.28001 18.6702C2.25001 18.6702 2.25001 18.6202 2.28001 18.6102C3.94001 18.2702 5.24001 16.9702 5.58001 15.3102Z" stroke="white" stroke-width="1.5" stroke-linecap="round" stroke-linejoin="round"/> <path d="M10.71 14.5298C10.71 14.5298 10.73 14.5198 10.74 14.5298C10.89 15.2698 11.47 15.8498 12.21 15.9998C12.22 15.9998 12.22 16.0198 12.21 16.0298C11.47 16.1798 10.89 16.7598 10.74 17.4998C10.74 17.5098 10.72 17.5098 10.71 17.4998C10.56 16.7598 9.98001 16.1798 9.24001 16.0298C9.23001 16.0298 9.23001 16.0098 9.24001 15.9998C9.98001 15.8498 10.56 15.2698 10.71 14.5298Z" stroke="white" stroke-width="1.5" stroke-linecap="round" stroke-linejoin="round"/> </g> <defs> <clipPath id="clip0_2085_390325"> <rect width="24" height="24" fill="white"/> </clipPath> </defs> </svg>
