<svg width="24" height="24" viewBox="0 0 24 24" fill="none" xmlns="http://www.w3.org/2000/svg"> <g clip-path="url(#clip0_4482_7573)"> <path d="M13.92 9.89999C13.35 7.97999 11.42 6.79999 9.45005 7.17999C7.48005 7.55999 6.13005 9.37999 6.32005 11.37C6.51005 13.37 8.19005 14.89 10.19 14.89H13.8C15.16 14.89 16.27 13.81 16.3 12.45C16.33 11.09 15.27 9.95999 13.92 9.89999Z" stroke="white" stroke-width="1.5" stroke-linecap="round" stroke-linejoin="round"/> <path d="M11.3 20C8.91004 20 6.62004 19.05 4.93004 17.36C3.24004 15.67 2.29004 13.38 2.29004 10.99C2.37004 6.06 6.36004 2.07 11.31 2C16.28 2 20.31 6.03 20.31 11.01C20.31 15.99 16.28 20.01 11.3 20.01" stroke="white" stroke-width="1.5" stroke-linecap="round" stroke-linejoin="round"/> </g> <defs> <clipPath id="clip0_4482_7573"> <rect width="24" height="24" fill="white"/> </clipPath> </defs> </svg>
