<svg width="24" height="24" viewBox="0 0 24 24" fill="none" xmlns="http://www.w3.org/2000/svg"> <g clip-path="url(#clip0_3111_11397)"> <path d="M7 18C4.24 18 2 15.76 2 13C2 10.51 3.85 8.4 6.32 8.07C7.15 5.64 9.43 4 12 4C15.31 4 18 6.69 18 10C20.21 10 22 11.79 22 14C22 16.21 20.21 18 18 18H17" stroke="white" stroke-width="1.5" stroke-linecap="round" stroke-linejoin="round"/> <path d="M15.72 15.64L14.38 15.95C13.42 16.17 12.67 16.92 12.45 17.88L12.14 19.22C12.11 19.36 11.9 19.36 11.87 19.22L11.56 17.88C11.34 16.92 10.59 16.17 9.63 15.95L8.29 15.64C8.15 15.61 8.15 15.4 8.29 15.37L9.63 15.06C10.59 14.84 11.34 14.09 11.56 13.13L11.87 11.79C11.9 11.65 12.11 11.65 12.14 11.79L12.45 13.13C12.67 14.09 13.42 14.84 14.38 15.06L15.72 15.37C15.86 15.4 15.86 15.61 15.72 15.64Z" stroke="white" stroke-width="1.5" stroke-miterlimit="10"/> </g> <defs> <clipPath id="clip0_3111_11397"> <rect width="24" height="24" fill="white"/> </clipPath> </defs> </svg>
