<svg width="24" height="24" viewBox="0 0 24 24" fill="none" xmlns="http://www.w3.org/2000/svg"> <g clip-path="url(#clip0_2085_391206)"> <path d="M3.69999 8.22039C2.77999 8.22039 2.03999 7.48039 2.03999 6.56039V4.90039H5.35999V6.56039C5.35999 7.48039 4.61999 8.22039 3.69999 8.22039Z" stroke="white" stroke-width="1.5" stroke-linecap="round" stroke-linejoin="round"/> <path d="M7.02 8.22039C6.1 8.22039 5.36 7.48039 5.36 6.56039V4.90039H8.68V6.56039C8.68 7.48039 7.94 8.22039 7.02 8.22039Z" stroke="white" stroke-width="1.5" stroke-linecap="round" stroke-linejoin="round"/> <path d="M10.34 8.22039C9.41999 8.22039 8.67999 7.48039 8.67999 6.56039V4.90039H12V6.56039C12 7.48039 11.26 8.22039 10.34 8.22039Z" stroke="white" stroke-width="1.5" stroke-linecap="round" stroke-linejoin="round"/> <path d="M13.66 8.22039C12.74 8.22039 12 7.48039 12 6.56039V4.90039H15.32V6.56039C15.32 7.48039 14.58 8.22039 13.66 8.22039Z" stroke="white" stroke-width="1.5" stroke-linecap="round" stroke-linejoin="round"/> <path d="M16.98 8.22039C16.06 8.22039 15.32 7.48039 15.32 6.56039V4.90039H18.64V6.56039C18.64 7.48039 17.9 8.22039 16.98 8.22039Z" stroke="white" stroke-width="1.5" stroke-linecap="round" stroke-linejoin="round"/> <path d="M20.3 8.22039C19.38 8.22039 18.64 7.48039 18.64 6.56039V4.90039H21.96V6.56039C21.96 7.48039 21.22 8.22039 20.3 8.22039Z" stroke="white" stroke-width="1.5" stroke-linecap="round" stroke-linejoin="round"/> <path d="M20.96 19.5098H3.03999C2.48999 19.5098 2.03999 19.9598 2.03999 20.5098V20.9998C2.03999 21.5498 2.48999 21.9998 3.03999 21.9998H20.96C21.51 21.9998 21.96 21.5498 21.96 20.9998V20.5098C21.96 19.9598 21.51 19.5098 20.96 19.5098Z" stroke="white" stroke-width="1.5" stroke-linecap="round" stroke-linejoin="round"/> <path d="M12 19.5105V6.56055" stroke="white" stroke-width="1.5" stroke-linecap="round" stroke-linejoin="round"/> <path d="M9.51 12.0391H5.36V19.5091H9.51V12.0391Z" stroke="white" stroke-width="1.5" stroke-linecap="round" stroke-linejoin="round"/> <path d="M12 14.9492H21.13" stroke="white" stroke-width="1.5" stroke-linecap="round" stroke-linejoin="round"/> <path d="M15.11 14.9492V19.5092" stroke="white" stroke-width="1.5" stroke-linecap="round" stroke-linejoin="round"/> <path d="M18.02 14.9492V19.5092" stroke="white" stroke-width="1.5" stroke-linecap="round" stroke-linejoin="round"/> <path d="M16.98 14.9509H16.15C15.58 14.9509 15.11 14.4909 15.11 13.9109V11.6309H18.01V13.9109C18.01 14.4809 17.55 14.9509 16.97 14.9509H16.98Z" stroke="white" stroke-width="1.5" stroke-linecap="round" stroke-linejoin="round"/> <path d="M18.02 12.4609H19.06" stroke="white" stroke-width="1.5" stroke-linecap="round" stroke-linejoin="round"/> <path d="M21.13 7.99023V19.5102" stroke="white" stroke-width="1.5" stroke-linecap="round" stroke-linejoin="round"/> <path d="M2.87 7.99023V19.5102" stroke="white" stroke-width="1.5" stroke-linecap="round" stroke-linejoin="round"/> <path d="M8.26999 15.7793H9.50999" stroke="white" stroke-width="1.5" stroke-linecap="round" stroke-linejoin="round"/> <path d="M19.14 2H4.85999C4.13999 2 3.47999 2.38 3.11999 3.01L2.03999 4.91H21.96L20.88 3.01C20.52 2.39 19.86 2 19.14 2Z" stroke="white" stroke-width="1.5" stroke-linecap="round" stroke-linejoin="round"/> </g> <defs> <clipPath id="clip0_2085_391206"> <rect width="24" height="24" fill="white"/> </clipPath> </defs> </svg>
