<svg width="24" height="24" viewBox="0 0 24 24" fill="none" xmlns="http://www.w3.org/2000/svg"> <g clip-path="url(#clip0_2085_391202)"> <path d="M13.24 10.1291C16.42 8.29909 20.1 8.73909 21.48 11.1191C22.85 13.4991 21.4 16.9191 18.22 18.7491C15.04 20.5791 11.36 20.1391 9.98 17.7591C8.61 15.3791 10.06 11.9591 13.24 10.1291Z" stroke="white" stroke-width="1.5" stroke-linecap="round" stroke-linejoin="round"/> <path d="M21.48 11.1191L19.55 11.4391C17.85 11.7191 16.41 12.8491 15.73 14.4391C15.05 16.0191 13.61 17.1491 11.91 17.4391L9.97998 17.7591" stroke="white" stroke-width="1.5" stroke-linecap="round" stroke-linejoin="round"/> <path d="M12.34 10.7291C12.26 10.1191 12.11 9.49906 11.89 8.87906C10.64 5.42906 7.52001 3.39906 4.94001 4.33906C2.36001 5.27906 1.28001 8.83906 2.53001 12.2791C3.78001 15.7291 6.90001 17.7591 9.48001 16.8191C9.52001 16.8091 9.56001 16.7891 9.59001 16.7791" stroke="white" stroke-width="1.5" stroke-linecap="round" stroke-linejoin="round"/> <path d="M4.93001 4.34961L4.91001 6.30961C4.89001 8.02961 5.76001 9.64961 7.20001 10.5896C8.64001 11.5296 9.51001 13.1396 9.49001 14.8696V15.3496" stroke="white" stroke-width="1.5" stroke-linecap="round" stroke-linejoin="round"/> </g> <defs> <clipPath id="clip0_2085_391202"> <rect width="24" height="24" fill="white"/> </clipPath> </defs> </svg>
