<svg width="24" height="24" viewBox="0 0 24 24" fill="none" xmlns="http://www.w3.org/2000/svg"> <g clip-path="url(#clip0_4482_10993)"> <path d="M6.54004 13.1099H16.9" stroke="white" stroke-width="1.5" stroke-linecap="round" stroke-linejoin="round"/> <path d="M8.10986 7L10.8899 9.78" stroke="white" stroke-width="1.5" stroke-linecap="round" stroke-linejoin="round"/> <path d="M17.3402 12.6699L13.1102 16.8999C12.6902 17.3199 12.1302 17.5499 11.5402 17.5499C10.9502 17.5499 10.3902 17.3199 9.9702 16.8999L7.1002 14.0299C6.6802 13.6099 6.4502 13.0499 6.4502 12.4599C6.4502 11.8699 6.6802 11.3099 7.1002 10.8899L11.3302 6.65994C11.4702 6.51994 11.6602 6.43994 11.8502 6.43994C12.0402 6.43994 12.2302 6.51994 12.3702 6.65994L17.3302 11.6199C17.6202 11.9099 17.6202 12.3799 17.3302 12.6699H17.3402Z" stroke="white" stroke-width="1.5" stroke-linecap="round" stroke-linejoin="round"/> <path d="M12 2C17.52 2 22 6.48 22 12C22 17.52 17.52 22 12 22C6.48 22 2 17.52 2 12C2 6.48 6.48 2 12 2Z" stroke="white" stroke-width="1.5" stroke-linecap="round" stroke-linejoin="round"/> </g> <defs> <clipPath id="clip0_4482_10993"> <rect width="24" height="24" fill="white"/> </clipPath> </defs> </svg>
