<svg width="24" height="24" viewBox="0 0 24 24" fill="none" xmlns="http://www.w3.org/2000/svg"> <g clip-path="url(#clip0_4482_12071)"> <path d="M22 13.11V13.55C22 15.76 20.21 17.55 18 17.55H6C3.79 17.55 2 15.76 2 13.55V6C2 3.79 3.79 2 6 2H9.78" stroke="white" stroke-width="1.5" stroke-linecap="round" stroke-linejoin="round"/> <path d="M12 21.9996V17.5596" stroke="white" stroke-width="1.5" stroke-linecap="round" stroke-linejoin="round"/> <path d="M15.8899 22H8.10986" stroke="white" stroke-width="1.5" stroke-linecap="round" stroke-linejoin="round"/> <path d="M22.0001 6.99998C22.0001 8.52998 20.7601 9.77998 19.2201 9.77998H13.1101C11.8801 9.77998 10.8901 8.78998 10.8901 7.55998C10.8901 6.32998 11.8801 5.33998 13.1101 5.33998C13.1101 3.70998 14.2801 2.31998 15.8901 2.04998C17.5001 1.77998 19.0601 2.71998 19.5801 4.25998C20.9601 4.43998 21.9901 5.60998 22.0001 6.99998Z" stroke="white" stroke-width="1.5" stroke-linecap="round" stroke-linejoin="round"/> </g> <defs> <clipPath id="clip0_4482_12071"> <rect width="24" height="24" fill="white"/> </clipPath> </defs> </svg>
