<svg width="24" height="24" viewBox="0 0 24 24" fill="none" xmlns="http://www.w3.org/2000/svg"> <g clip-path="url(#clip0_4482_12072)"> <path d="M19.7801 21.9996C18.5501 21.9996 17.5601 21.0096 17.5601 19.7796C17.5601 18.5496 18.5501 17.5596 19.7801 17.5596C21.0101 17.5596 22.0001 18.5496 22.0001 19.7796C22.0001 21.0096 21.0101 21.9996 19.7801 21.9996Z" stroke="white" stroke-width="1.5" stroke-linecap="round" stroke-linejoin="round"/> <path d="M12 10.8896V17.5596" stroke="white" stroke-width="1.5" stroke-linecap="round" stroke-linejoin="round"/> <path d="M11.9998 21.9996C10.7698 21.9996 9.77979 21.0096 9.77979 19.7796C9.77979 18.5496 10.7698 17.5596 11.9998 17.5596C13.2298 17.5596 14.2198 18.5496 14.2198 19.7796C14.2198 21.0096 13.2298 21.9996 11.9998 21.9996Z" stroke="white" stroke-width="1.5" stroke-linecap="round" stroke-linejoin="round"/> <path d="M4.22 21.9996C2.99 21.9996 2 21.0096 2 19.7796C2 18.5496 2.99 17.5596 4.22 17.5596C5.45 17.5596 6.44 18.5496 6.44 19.7796C6.44 21.0096 5.45 21.9996 4.22 21.9996Z" stroke="white" stroke-width="1.5" stroke-linecap="round" stroke-linejoin="round"/> <path d="M4.22021 17.5597V17.3797C4.22021 15.6397 5.63022 14.2197 7.38022 14.2197H16.6202C18.3602 14.2197 19.7802 15.6297 19.7802 17.3797V17.5597" stroke="white" stroke-width="1.5" stroke-linecap="round" stroke-linejoin="round"/> <path d="M17.56 2H6.44C3.99 2 2 3.99 2 6.44C2 8.89 3.99 10.88 6.44 10.88H17.55C20 10.88 21.99 8.89 21.99 6.44C21.99 3.99 20 2 17.55 2H17.56Z" stroke="white" stroke-width="1.5" stroke-linecap="round" stroke-linejoin="round"/> <path d="M10.8901 6.44043H17.5601" stroke="white" stroke-width="1.5" stroke-linecap="round" stroke-linejoin="round"/> <path d="M6.49014 6.44863C6.49014 6.47812 6.46706 6.5034 6.44014 6.49919C6.41321 6.49919 6.39014 6.47391 6.39014 6.44442C6.39014 6.41493 6.41321 6.38965 6.44014 6.38965C6.45168 6.38965 6.46706 6.39386 6.47475 6.4065C6.48244 6.41493 6.49014 6.43178 6.49014 6.44442" stroke="white" stroke-width="1.5" stroke-linecap="round" stroke-linejoin="round"/> </g> <defs> <clipPath id="clip0_4482_12072"> <rect width="24" height="24" fill="white"/> </clipPath> </defs> </svg>
