<svg width="24" height="24" viewBox="0 0 24 24" fill="none" xmlns="http://www.w3.org/2000/svg"> <g clip-path="url(#clip0_4482_9181)"> <path d="M13.1498 7.37007V5.84007C13.1498 5.42007 12.8098 5.07007 12.3798 5.07007H11.6098C11.1898 5.07007 10.8398 5.41007 10.8398 5.84007V7.37007" stroke="white" stroke-width="1.5" stroke-linecap="round" stroke-linejoin="round"/> <path d="M12 2V5.07" stroke="white" stroke-width="1.5" stroke-linecap="round" stroke-linejoin="round"/> <path d="M15.5002 7.01001L15.0702 8.48001C14.8102 9.39001 14.0602 10 13.2202 10H10.7702C9.93024 10 9.19023 9.39001 8.92023 8.48001L8.49023 7.01001" stroke="white" stroke-width="1.5" stroke-linecap="round" stroke-linejoin="round"/> <path d="M15.4502 18.3701C16.1602 18.3701 16.8002 18.8201 17.0402 19.4901L17.3402 20.3501C17.6602 21.2601 18.5702 21.8401 19.5302 21.7301C20.8302 21.5901 21.9302 20.6901 22.3302 19.4501C22.5102 18.8901 22.5502 18.2801 22.4202 17.7001L20.5502 9.05009C20.1702 7.28009 18.5102 6.08009 16.7102 6.26009C16.1102 6.32009 15.5402 6.57009 15.0902 6.98009C14.5702 7.45009 13.8802 7.71009 13.1802 7.71009H10.8202C10.1102 7.71009 9.43023 7.45009 8.91023 6.98009C8.46023 6.58009 7.89023 6.32009 7.29023 6.26009C5.49023 6.07009 3.83023 7.28009 3.45023 9.05009L1.58023 17.7001C1.45023 18.2801 1.49023 18.8801 1.67023 19.4501C2.08023 20.6901 3.17023 21.5801 4.47023 21.7301C5.43023 21.8401 6.34023 21.2701 6.66023 20.3501L6.96023 19.4901C7.20023 18.8201 7.83023 18.3701 8.55023 18.3701H15.4502Z" stroke="white" stroke-width="1.5" stroke-linecap="round" stroke-linejoin="round"/> </g> <defs> <clipPath id="clip0_4482_9181"> <rect width="24" height="24" fill="white"/> </clipPath> </defs> </svg>
