<svg width="24" height="24" viewBox="0 0 24 24" fill="none" xmlns="http://www.w3.org/2000/svg"> <g clip-path="url(#clip0_4482_564)"> <path d="M17.5 22H6.5C4.3 22 2.5 20.2 2.5 18V13C2.5 10.8 4.3 9 6.5 9H17.5C19.7 9 21.5 10.8 21.5 13V18C21.5 20.2 19.7 22 17.5 22Z" stroke="white" stroke-width="1.5" stroke-linecap="round" stroke-linejoin="round"/> <path d="M12 6C13.1046 6 14 5.10457 14 4C14 2.89543 13.1046 2 12 2C10.8954 2 10 2.89543 10 4C10 5.10457 10.8954 6 12 6Z" stroke="white" stroke-width="1.5" stroke-linecap="round" stroke-linejoin="round"/> <path d="M7.06006 8.94016L10.5901 5.41016" stroke="white" stroke-width="1.5" stroke-linecap="round" stroke-linejoin="round"/> <path d="M17 8.93978L13.5801 5.52979" stroke="white" stroke-width="1.5" stroke-linecap="round" stroke-linejoin="round"/> <path d="M15 15.54C14.99 16.3 14.7001 17.05 14.1201 17.63C12.9401 18.8 11.0401 18.8 9.86011 17.63L10.5701 17.39" stroke="white" stroke-width="1.5" stroke-linecap="round" stroke-linejoin="round"/> <path d="M13.4198 13.6102L14.1298 13.3702C12.9498 12.2002 11.05 12.2002 9.87001 13.3702C9.24001 14.0002 8.9499 14.8302 8.9999 15.6502" stroke="white" stroke-width="1.5" stroke-linecap="round" stroke-linejoin="round"/> </g> <defs> <clipPath id="clip0_4482_564"> <rect width="24" height="24" fill="white"/> </clipPath> </defs> </svg>
