<svg width="24" height="24" viewBox="0 0 24 24" fill="none" xmlns="http://www.w3.org/2000/svg"> <g clip-path="url(#clip0_2085_382453)"> <path d="M2.53003 11.7302C8.08003 7.08018 16.18 7.08018 21.73 11.7302" stroke="white" stroke-width="1.5" stroke-linecap="round" stroke-linejoin="round"/> <path d="M12.13 5.32988C13.0137 5.32988 13.73 4.61354 13.73 3.72988C13.73 2.84623 13.0137 2.12988 12.13 2.12988C11.2464 2.12988 10.53 2.84623 10.53 3.72988C10.53 4.61354 11.2464 5.32988 12.13 5.32988Z" stroke="white" stroke-width="1.5" stroke-linecap="round" stroke-linejoin="round"/> <path d="M12.13 8.24008V5.33008" stroke="white" stroke-width="1.5" stroke-linecap="round" stroke-linejoin="round"/> <path d="M11.24 14.2298C11.73 13.7398 12.53 13.7398 13.02 14.2298L14.16 15.3698C14.65 15.8598 14.65 16.6598 14.16 17.1498L13.02 18.2898C12.53 18.7798 11.73 18.7798 11.24 18.2898L10.1 17.1498C9.60998 16.6598 9.60998 15.8598 10.1 15.3698L11.24 14.2298Z" stroke="white" stroke-width="1.5" stroke-linecap="round" stroke-linejoin="round"/> <path d="M4.66998 13.8701V18.1401" stroke="white" stroke-width="1.5" stroke-linecap="round" stroke-linejoin="round"/> <path d="M5.49998 21.5202C5.27998 21.7402 4.97998 21.8702 4.66998 21.8702C4.35998 21.8702 4.05998 21.7502 3.83998 21.5202L2.42998 20.1102C1.85998 19.5302 1.86998 18.6002 2.43998 18.0302C3.00998 17.4602 3.93998 17.4502 4.51998 18.0202L4.66998 18.1702L4.81998 18.0202C5.39998 17.4502 6.32998 17.4602 6.89998 18.0302C7.46998 18.6002 7.47998 19.5302 6.90998 20.1102L5.49998 21.5202Z" stroke="white" stroke-width="1.5" stroke-linecap="round" stroke-linejoin="round"/> <path d="M19.6 13.8701V17.0701" stroke="white" stroke-width="1.5" stroke-linecap="round" stroke-linejoin="round"/> <path d="M19.6 21.8698C20.9255 21.8698 22 20.7953 22 19.4698C22 18.1443 20.9255 17.0698 19.6 17.0698C18.2745 17.0698 17.2 18.1443 17.2 19.4698C17.2 20.7953 18.2745 21.8698 19.6 21.8698Z" stroke="white" stroke-width="1.5" stroke-linecap="round" stroke-linejoin="round"/> <path d="M12.13 11.29V13.86" stroke="white" stroke-width="1.5" stroke-linecap="round" stroke-linejoin="round"/> </g> <defs> <clipPath id="clip0_2085_382453"> <rect width="24" height="24" fill="white"/> </clipPath> </defs> </svg>
