<svg width="24" height="24" viewBox="0 0 24 24" fill="none" xmlns="http://www.w3.org/2000/svg"> <g clip-path="url(#clip0_2085_390328)"> <path d="M18.65 2.02017C18.65 2.02017 18.7 1.99017 18.71 2.02017C19.05 3.66017 20.33 4.95017 21.97 5.28017C22 5.28017 22 5.33017 21.97 5.34017C20.33 5.68017 19.04 6.96017 18.71 8.60017C18.71 8.63017 18.66 8.63017 18.65 8.60017C18.31 6.96017 17.03 5.67017 15.39 5.34017C15.36 5.34017 15.36 5.29017 15.39 5.28017C17.03 4.94017 18.32 3.66017 18.65 2.02017Z" stroke="white" stroke-width="1.5" stroke-linecap="round" stroke-linejoin="round"/> <path d="M4.94 8.25988C6.56372 8.25988 7.88 6.9436 7.88 5.31988C7.88 3.69617 6.56372 2.37988 4.94 2.37988C3.31628 2.37988 2 3.69617 2 5.31988C2 6.9436 3.31628 8.25988 4.94 8.25988Z" stroke="white" stroke-width="1.5" stroke-linecap="round" stroke-linejoin="round"/> <path d="M4.94 22.0001C6.56372 22.0001 7.88 20.6838 7.88 19.0601C7.88 17.4364 6.56372 16.1201 4.94 16.1201C3.31628 16.1201 2 17.4364 2 19.0601C2 20.6838 3.31628 22.0001 4.94 22.0001Z" stroke="white" stroke-width="1.5" stroke-linecap="round" stroke-linejoin="round"/> <path d="M18.68 22.0001C20.3037 22.0001 21.62 20.6838 21.62 19.0601C21.62 17.4364 20.3037 16.1201 18.68 16.1201C17.0563 16.1201 15.74 17.4364 15.74 19.0601C15.74 20.6838 17.0563 22.0001 18.68 22.0001Z" stroke="white" stroke-width="1.5" stroke-linecap="round" stroke-linejoin="round"/> <path d="M4.94 8.25977V16.1098" stroke="white" stroke-width="1.5" stroke-linecap="round" stroke-linejoin="round"/> <path d="M18.68 11.2002V16.1102" stroke="white" stroke-width="1.5" stroke-linecap="round" stroke-linejoin="round"/> <path d="M7.89001 19.0601H15.74" stroke="white" stroke-width="1.5" stroke-linecap="round" stroke-linejoin="round"/> <path d="M7.89001 5.31982H11.81" stroke="white" stroke-width="1.5" stroke-linecap="round" stroke-linejoin="round"/> </g> <defs> <clipPath id="clip0_2085_390328"> <rect width="24" height="24" fill="white"/> </clipPath> </defs> </svg>
