<svg width="24" height="24" viewBox="0 0 24 24" fill="none" xmlns="http://www.w3.org/2000/svg"> <g clip-path="url(#clip0_2085_390933)"> <path d="M19.14 20.2603H4.85999C4.30999 20.2603 3.85999 19.8103 3.85999 19.2603V17.3203C3.85999 16.7703 4.30999 16.3203 4.85999 16.3203H19.15C19.7 16.3203 20.15 16.7703 20.15 17.3203V19.2603C20.15 19.8103 19.7 20.2603 19.15 20.2603H19.14Z" stroke="white" stroke-width="1.5" stroke-linecap="round" stroke-linejoin="round"/> <path d="M13.86 5.60023C13.86 6.63023 13.03 7.46023 12 7.46023C10.97 7.46023 10.14 6.63023 10.14 5.60023C10.14 4.57023 10.97 3.74023 12 3.74023C13.03 3.74023 13.86 4.57023 13.86 5.60023Z" stroke="white" stroke-width="1.5" stroke-linecap="round" stroke-linejoin="round"/> <path d="M5.70999 8.44984C5.70999 9.47984 4.87999 10.3098 3.84999 10.3098C2.81999 10.3098 1.98999 9.47984 1.98999 8.44984C1.98999 7.41984 2.81999 6.58984 3.84999 6.58984C4.87999 6.58984 5.70999 7.41984 5.70999 8.44984Z" stroke="white" stroke-width="1.5" stroke-linecap="round" stroke-linejoin="round"/> <path d="M18.29 8.44984C18.29 9.47984 19.12 10.3098 20.15 10.3098C21.18 10.3098 22.01 9.47984 22.01 8.44984C22.01 7.41984 21.18 6.58984 20.15 6.58984C19.12 6.58984 18.29 7.41984 18.29 8.44984Z" stroke="white" stroke-width="1.5" stroke-linecap="round" stroke-linejoin="round"/> <path d="M10.85 7.06055L8.75999 11.8105L5.45999 9.37055" stroke="white" stroke-width="1.5" stroke-linecap="round" stroke-linejoin="round"/> <path d="M3.62 10.29L5.21 16.32" stroke="white" stroke-width="1.5" stroke-linecap="round" stroke-linejoin="round"/> <path d="M13.14 7.06055L15.23 11.8105L18.53 9.37055" stroke="white" stroke-width="1.5" stroke-linecap="round" stroke-linejoin="round"/> <path d="M20.38 10.29L18.79 16.32" stroke="white" stroke-width="1.5" stroke-linecap="round" stroke-linejoin="round"/> <path d="M6.5 13.0205L7.22 14.2605" stroke="white" stroke-width="1.5" stroke-linecap="round" stroke-linejoin="round"/> <path d="M17.5 13.0205L16.78 14.2605" stroke="white" stroke-width="1.5" stroke-linecap="round" stroke-linejoin="round"/> <path d="M12 11.4707V12.9507" stroke="white" stroke-width="1.5" stroke-linecap="round" stroke-linejoin="round"/> </g> <defs> <clipPath id="clip0_2085_390933"> <rect width="24" height="24" fill="white"/> </clipPath> </defs> </svg>
