<svg width="24" height="24" viewBox="0 0 24 24" fill="none" xmlns="http://www.w3.org/2000/svg"> <g clip-path="url(#clip0_2085_386768)"> <path d="M18.67 12.4804C16.83 12.4804 15.34 13.9704 15.34 15.8104C15.34 17.6504 16.83 19.1404 18.67 19.1404C20.51 19.1404 22 17.6504 22 15.8104C22 13.9704 20.51 12.4804 18.67 12.4804ZM18.67 12.4804C16.29 12.4804 12.94 10.2204 12.61 7.86035C9.15001 9.15035 6.77001 10.5804 9.63001 12.0004C12.49 13.4204 13.92 13.9004 10.58 18.1904M13.43 10.1004C12 10.5804 11.05 11.0504 10.1 12.0004M18.67 6.76035C18.67 7.81035 17.82 8.66035 16.77 8.66035C15.72 8.66035 14.87 7.81035 14.87 6.76035C14.87 5.71035 15.72 4.86035 16.77 4.86035C17.82 4.86035 18.67 5.71035 18.67 6.76035ZM8.67001 15.8104C8.67001 17.6504 7.18001 19.1404 5.34001 19.1404C3.50001 19.1404 2.01001 17.6504 2.01001 15.8104C2.01001 13.9704 3.50001 12.4804 5.34001 12.4804C7.18001 12.4804 8.67001 13.9704 8.67001 15.8104Z" stroke="white" stroke-width="1.5" stroke-linecap="round" stroke-linejoin="round"/> </g> <defs> <clipPath id="clip0_2085_386768"> <rect width="24" height="24" fill="white"/> </clipPath> </defs> </svg>
