<svg width="24" height="24" viewBox="0 0 24 24" fill="none" xmlns="http://www.w3.org/2000/svg"> <g clip-path="url(#clip0_4482_12073)"> <path d="M17 11.8799C17 12.8699 14.76 13.6699 12 13.6699C9.24 13.6699 7 12.8699 7 11.8799" stroke="white" stroke-width="1.5" stroke-linecap="round" stroke-linejoin="round"/> <path d="M17 11.0097V15.7697C17 16.7597 14.76 17.5597 12 17.5597C9.24 17.5597 7 16.7597 7 15.7697V11.0097C7 10.0197 9.24 9.21973 12 9.21973C14.76 9.21973 17 10.0197 17 11.0097Z" stroke="white" stroke-width="1.5" stroke-linecap="round" stroke-linejoin="round"/> <path d="M16.44 22.0001H7.56C4.49 22.0001 2 19.5101 2 16.4401V11.1101C2 9.42012 2.77 7.83012 4.09 6.77012L8.53 3.21012C10.56 1.59012 13.44 1.59012 15.47 3.21012L19.91 6.77012C21.23 7.82012 21.99 9.42012 21.99 11.1101V16.4401C21.99 19.5101 19.5 22.0001 16.43 22.0001H16.44Z" stroke="white" stroke-width="1.5" stroke-linecap="round" stroke-linejoin="round"/> </g> <defs> <clipPath id="clip0_4482_12073"> <rect width="24" height="24" fill="white"/> </clipPath> </defs> </svg>
