<svg width="24" height="24" viewBox="0 0 24 24" fill="none" xmlns="http://www.w3.org/2000/svg"> <g clip-path="url(#clip0_4482_10207)"> <path d="M16.4399 22.0002H18.6599C20.4999 22.0002 21.9899 20.5102 21.9899 18.6702V16.4502" stroke="white" stroke-width="1.5" stroke-linecap="round" stroke-linejoin="round"/> <path d="M2 8.66977V5.33977C2 3.49977 3.49 2.00977 5.33 2.00977H7.55" stroke="white" stroke-width="1.5" stroke-linecap="round" stroke-linejoin="round"/> <path d="M9.78 10.8901H5.33C3.49089 10.8901 2 12.381 2 14.2201V18.6701C2 20.5092 3.49089 22.0001 5.33 22.0001H9.78C11.6191 22.0001 13.11 20.5092 13.11 18.6701V14.2201C13.11 12.381 11.6191 10.8901 9.78 10.8901Z" stroke="white" stroke-width="1.5" stroke-linecap="round" stroke-linejoin="round"/> <path d="M16.4399 13.1102H19.7699C20.9999 13.1102 21.9899 12.1202 21.9899 10.8902V6.73018C21.9899 6.05018 21.6799 5.42018 21.1599 4.99018L18.1699 2.60018C17.1599 1.79018 15.7099 1.79018 14.6999 2.60018L11.7099 4.99018C11.1799 5.41018 10.8799 6.05018 10.8799 6.73018V7.55018" stroke="white" stroke-width="1.5" stroke-linecap="round" stroke-linejoin="round"/> <path d="M9.40039 18.3008H9.40049" stroke="white" stroke-width="1.5" stroke-linecap="round" stroke-linejoin="round"/> <path d="M5.7002 14.6992H5.7003" stroke="white" stroke-width="1.5" stroke-linecap="round" stroke-linejoin="round"/> <path d="M5.89014 18.1093L9.22014 14.7793" stroke="white" stroke-width="1.5" stroke-linecap="round" stroke-linejoin="round"/> </g> <defs> <clipPath id="clip0_4482_10207"> <rect width="24" height="24" fill="white"/> </clipPath> </defs> </svg>
