<svg width="24" height="24" viewBox="0 0 24 24" fill="none" xmlns="http://www.w3.org/2000/svg"> <g clip-path="url(#clip0_2085_390886)"> <path d="M12 19.7101V18.3301" stroke="white" stroke-width="1.5" stroke-linecap="round" stroke-linejoin="round"/> <path d="M21.62 3.13C20.94 2.6 19.85 2 18.4 2C16 2 14 3.83 13.78 6.21C13.73 6.77 13.69 7.43 13.67 7.84C13.13 7.73 12.57 7.67 11.99 7.67C11.41 7.67 10.85 7.73 10.31 7.84C10.29 7.43 10.26 6.77 10.2 6.21C9.97999 3.82 7.96999 2 5.57999 2C4.12999 2 3.03999 2.6 2.35999 3.13C1.85999 3.52 1.85999 4.28 2.35999 4.67C3.04999 5.2 4.14999 5.81 5.56999 5.81H6.32999C6.42999 6.7 6.48999 8.12 6.52999 9.08C6.53999 9.39 6.39999 9.67 6.16999 9.87C4.37999 11.41 3.24999 13.56 3.24999 15.68C3.24999 19.63 6.52999 21.99 9.68999 21.99C10.95 21.99 11.98 20.97 11.98 19.7C11.98 20.96 13 21.99 14.27 21.99C17.43 21.99 20.71 19.63 20.71 15.68C20.71 13.56 19.58 11.4 17.79 9.87C17.56 9.67 17.42 9.39 17.43 9.08C17.47 8.13 17.53 6.7 17.63 5.82H18.39C19.81 5.82 20.91 5.21 21.6 4.68C22.11 4.29 22.11 3.53 21.6 3.14L21.62 3.13Z" stroke="white" stroke-width="1.5" stroke-linecap="round" stroke-linejoin="round"/> <path d="M12 18C11.91 18.03 10.36 17.31 9.90999 16.13C9.78999 15.81 9.94999 15.04 11.96 15.04C13.97 15.04 14.21 15.82 14.09 16.13C13.64 17.31 12.09 17.97 12 18Z" stroke="white" stroke-width="1.5" stroke-miterlimit="10"/> <path d="M15.6 11.9097C15.65 12.5597 15.11 13.0997 14.46 13.0497C13.95 13.0097 13.53 12.5897 13.49 12.0797C13.44 11.4297 13.98 10.8897 14.63 10.9397C15.14 10.9797 15.56 11.3997 15.6 11.9097Z" stroke="white" stroke-width="1.5" stroke-miterlimit="10"/> <path d="M8.35997 11.9097C8.30997 12.5597 8.84997 13.0997 9.49997 13.0497C10.01 13.0097 10.43 12.5897 10.47 12.0797C10.52 11.4297 9.97997 10.8897 9.32997 10.9397C8.81997 10.9797 8.39997 11.3997 8.35997 11.9097Z" stroke="white" stroke-width="1.5" stroke-miterlimit="10"/> </g> <defs> <clipPath id="clip0_2085_390886"> <rect width="24" height="24" fill="white"/> </clipPath> </defs> </svg>
