<svg width="24" height="24" viewBox="0 0 24 24" fill="none" xmlns="http://www.w3.org/2000/svg"> <g clip-path="url(#clip0_2085_390885)"> <path d="M12 16.9297V19.5197" stroke="white" stroke-width="1.5" stroke-linecap="round" stroke-linejoin="round"/> <path d="M18.17 10.4004C18.17 11.2904 18.06 12.1604 17.86 13.0104C17.53 14.3804 16.94 15.6804 16.12 16.8404L15.51 17.7004C15.11 18.2704 14.58 18.7304 13.97 19.0404C13.37 19.3504 12.69 19.5204 11.99 19.5204C10.59 19.5204 9.28001 18.8404 8.47001 17.7004L7.86001 16.8404C7.19001 15.9004 6.68001 14.8604 6.34001 13.7804C6.26001 13.5304 6.19001 13.2704 6.13001 13.0104C5.92001 12.1604 5.82001 11.2804 5.82001 10.4004C5.82001 10.3004 5.82001 10.2104 5.82001 10.1104C5.82001 9.99043 5.83001 9.88043 5.85001 9.76043C5.85001 9.69043 5.87001 9.61043 5.88001 9.54043C5.92001 9.25043 5.98001 8.97043 6.05001 8.70043C6.11001 8.50043 6.17001 8.30043 6.24001 8.11043C6.52001 7.38043 6.93001 6.71043 7.46001 6.12043C7.85001 5.69043 8.30001 5.32043 8.79001 5.03043C9.05001 4.87043 9.33001 4.73043 9.61001 4.62043C9.66001 4.60043 9.71001 4.58043 9.76001 4.56043C10.4 4.32043 11.09 4.19043 11.79 4.19043H12.18C12.94 4.19043 13.68 4.34043 14.36 4.61043C15.17 4.94043 15.91 5.45043 16.51 6.11043C17.04 6.70043 17.45 7.37043 17.73 8.10043C17.8 8.29043 17.87 8.49043 17.92 8.69043C18.05 9.15043 18.12 9.62043 18.14 10.1004C18.14 10.2004 18.14 10.2904 18.14 10.3904L18.17 10.4004Z" stroke="white" stroke-width="1.5" stroke-linecap="round" stroke-linejoin="round"/> <path d="M14.9 10.4403C14.9 10.7803 15.18 11.0603 15.52 11.0603C15.86 11.0603 16.14 10.7803 16.14 10.4403C16.14 10.1003 15.86 9.82031 15.52 9.82031C15.18 9.82031 14.9 10.1003 14.9 10.4403Z" fill="white"/> <path d="M9.09999 10.4403C9.09999 10.7803 8.81998 11.0603 8.47998 11.0603C8.13998 11.0603 7.85999 10.7803 7.85999 10.4403C7.85999 10.1003 8.13998 9.82031 8.47998 9.82031C8.81998 9.82031 9.09999 10.1003 9.09999 10.4403Z" fill="white"/> <path d="M12.99 16.5198C13.24 16.2598 13.48 15.9498 13.6 15.5998C13.71 15.2598 13.57 14.8998 13.28 14.7098C12.91 14.4698 12.47 14.3398 12 14.3398C11.53 14.3398 11.07 14.4798 10.7 14.7298C10.43 14.9098 10.3 15.2598 10.39 15.5698C10.5 15.9398 10.74 16.2598 11.01 16.5198C11.56 17.0698 12.45 17.0698 13 16.5198H12.99Z" stroke="white" stroke-width="1.5" stroke-linecap="round" stroke-linejoin="round"/> <path d="M9.61999 4.62C9.32999 4.73 9.05999 4.87 8.79999 5.03C8.30999 5.32 7.85999 5.69 7.46999 6.12C6.93999 6.71 6.52999 7.38 6.24999 8.11C6.17999 8.3 6.10999 8.5 6.04999 8.7C5.96999 8.98 5.91999 9.26 5.87999 9.54C5.87999 9.61 5.85999 9.69 5.84999 9.76C5.83999 9.88 5.82999 9.99 5.82999 10.11C5.42999 9.25 5.17999 8.11 5.17999 6.85C5.17999 4.17 7.66999 2 7.66999 2C7.66999 2 8.88999 3.06 9.61999 4.62Z" stroke="white" stroke-width="1.5" stroke-linecap="round" stroke-linejoin="round"/> <path d="M18.81 6.85C18.81 8.11 18.56 9.25 18.16 10.11C18.14 9.63 18.06 9.16 17.94 8.7C17.89 8.5 17.82 8.3 17.75 8.11C17.47 7.38 17.06 6.71 16.53 6.12C15.93 5.46 15.19 4.95 14.38 4.62C15.11 3.06 16.33 2 16.33 2C16.33 2 18.82 4.17 18.82 6.85H18.81Z" stroke="white" stroke-width="1.5" stroke-linecap="round" stroke-linejoin="round"/> <path d="M8.5 5.21973L9.36 6.11973C10.27 7.07973 10.78 8.35973 10.78 9.66973C10.78 9.82973 10.78 9.97973 10.76 10.1397C10.65 11.3597 10.11 12.4997 9.24 13.3497L7.06 15.4897" stroke="white" stroke-width="1.5" stroke-linecap="round" stroke-linejoin="round"/> <path d="M15.5 5.21973L14.64 6.11973C13.73 7.07973 13.22 8.35973 13.22 9.66973C13.22 9.82973 13.22 9.97973 13.24 10.1397C13.35 11.3597 13.89 12.4997 14.76 13.3497L16.94 15.4897" stroke="white" stroke-width="1.5" stroke-linecap="round" stroke-linejoin="round"/> <path d="M13.85 19.0996V20.1396C13.85 21.1696 13.02 21.9996 11.99 21.9996C10.96 21.9996 10.13 21.1696 10.13 20.1396V19.0996" stroke="white" stroke-width="1.5" stroke-linecap="round" stroke-linejoin="round"/> </g> <defs> <clipPath id="clip0_2085_390885"> <rect width="24" height="24" fill="white"/> </clipPath> </defs> </svg>
