<svg width="24" height="24" viewBox="0 0 24 24" fill="none" xmlns="http://www.w3.org/2000/svg"> <g clip-path="url(#clip0_2085_386962)"> <path d="M11.31 8.32031L12.13 9.98031L13.96 10.2503L12.63 11.5403L12.94 13.3703L11.3 12.5103L9.66001 13.3703L9.97001 11.5403L8.64001 10.2503L10.47 9.98031L11.29 8.32031H11.31Z" stroke="white" stroke-width="1.5" stroke-linecap="round" stroke-linejoin="round"/> <path d="M7.56 2L11.29 5.82L15.02 2" stroke="white" stroke-width="1.5" stroke-linecap="round" stroke-linejoin="round"/> <path d="M10.05 15.7803V19.5103" stroke="white" stroke-width="1.5" stroke-linecap="round" stroke-linejoin="round"/> <path d="M12.54 15.7803V19.5103" stroke="white" stroke-width="1.5" stroke-linecap="round" stroke-linejoin="round"/> <path d="M16.28 19.5103C16.28 20.8803 14.05 22.0003 11.3 22.0003C8.55001 22.0003 6.32001 20.8903 6.32001 19.5103V8.31031C6.32001 6.94031 8.55001 5.82031 11.3 5.82031C14.05 5.82031 16.28 6.93031 16.28 8.31031V19.5103Z" stroke="white" stroke-width="1.5" stroke-linecap="round" stroke-linejoin="round"/> </g> <defs> <clipPath id="clip0_2085_386962"> <rect width="24" height="24" fill="white"/> </clipPath> </defs> </svg>
