<svg width="24" height="24" viewBox="0 0 24 24" fill="none" xmlns="http://www.w3.org/2000/svg"> <g clip-path="url(#clip0_4482_187)"> <path d="M16.5 22H7.5C5.3 22 3.5 20.2 3.5 18V6C3.5 3.8 5.3 2 7.5 2H16.5C18.7 2 20.5 3.8 20.5 6V18C20.5 20.2 18.7 22 16.5 22Z" stroke="white" stroke-width="1.5" stroke-linecap="round" stroke-linejoin="round"/> <path d="M14.5 5V6C14.5 7.1 15.4 8 16.5 8H17.5" stroke="white" stroke-width="1.5" stroke-linecap="round" stroke-linejoin="round"/> <path d="M8.57031 12.8601V14.5701H10.2803" stroke="white" stroke-width="1.5" stroke-linecap="round" stroke-linejoin="round"/> <path d="M8.57031 14.57L11.1403 12L13.4603 13.71L15.4203 12" stroke="white" stroke-width="1.5" stroke-linecap="round" stroke-linejoin="round"/> <path d="M8.57031 12.8601V14.5701H10.2803" stroke="white" stroke-width="1.5" stroke-linecap="round" stroke-linejoin="round"/> <path d="M8.57031 14.57L11.1403 12L13.4603 13.71L15.4203 12" stroke="white" stroke-width="1.5" stroke-linecap="round" stroke-linejoin="round"/> <path d="M8.57031 18H15.4303" stroke="white" stroke-width="1.5" stroke-linecap="round" stroke-linejoin="round"/> </g> <defs> <clipPath id="clip0_4482_187"> <rect width="24" height="24" fill="white"/> </clipPath> </defs> </svg>
