<svg width="24" height="24" viewBox="0 0 24 24" fill="none" xmlns="http://www.w3.org/2000/svg"> <g clip-path="url(#clip0_2085_391056)"> <path d="M9.51 4.49L8.02 2.5C7.79 2.2 7.43 2 7.02 2C6.33 2 5.78 2.56 5.78 3.24C5.78 3.72 6.05 4.13 6.45 4.34C6.83 4.54 7.03 4.96 7.03 5.39V7.02" stroke="white" stroke-width="1.5" stroke-linecap="round" stroke-linejoin="round"/> <path d="M10.76 18.27C10.76 20.33 9.08999 22 7.02999 22C4.96999 22 3.29999 20.33 3.29999 18.27C3.29999 16.21 7.02999 12 7.02999 12C7.02999 12 10.76 16.2 10.76 18.27Z" stroke="white" stroke-width="1.5" stroke-linecap="round" stroke-linejoin="round"/> <path d="M8.26998 18.2702C8.26998 18.9602 7.70998 19.5102 7.02998 19.5102C6.34998 19.5102 5.78998 18.9502 5.78998 18.2702C5.78998 17.5902 7.02998 15.7402 7.02998 15.7402C7.02998 15.7402 8.26998 17.5802 8.26998 18.2702Z" stroke="white" stroke-width="1.5" stroke-linecap="round" stroke-linejoin="round"/> <path d="M8.26998 10.7598C8.26998 11.4498 7.70998 11.9998 7.02998 11.9998C6.34998 11.9998 5.78998 11.4398 5.78998 10.7598C5.78998 10.0798 6.34998 9.50977 7.02998 9.50977C7.70998 9.50977 8.26998 10.0698 8.26998 10.7598Z" stroke="white" stroke-width="1.5" stroke-linecap="round" stroke-linejoin="round"/> <path d="M8.26998 8.27027C8.26998 8.96027 7.70998 9.51027 7.02998 9.51027C6.34998 9.51027 5.78998 8.95027 5.78998 8.27027C5.78998 7.59027 6.34998 7.03027 7.02998 7.03027C7.70998 7.03027 8.26998 7.59027 8.26998 8.27027Z" stroke="white" stroke-width="1.5" stroke-linecap="round" stroke-linejoin="round"/> <path d="M19.47 4.49L17.98 2.5C17.75 2.2 17.39 2 16.98 2C16.29 2 15.74 2.56 15.74 3.24C15.74 3.72 16.01 4.13 16.41 4.34C16.79 4.54 16.99 4.96 16.99 5.39V7.02" stroke="white" stroke-width="1.5" stroke-linecap="round" stroke-linejoin="round"/> <path d="M20.71 18.27C20.71 20.33 19.04 22 16.98 22C14.92 22 13.25 20.33 13.25 18.27C13.25 16.21 16.98 12 16.98 12C16.98 12 20.71 16.2 20.71 18.27Z" stroke="white" stroke-width="1.5" stroke-linecap="round" stroke-linejoin="round"/> <path d="M18.22 18.2702C18.22 18.9602 17.66 19.5102 16.98 19.5102C16.3 19.5102 15.74 18.9502 15.74 18.2702C15.74 17.5902 16.98 15.7402 16.98 15.7402C16.98 15.7402 18.22 17.5802 18.22 18.2702Z" stroke="white" stroke-width="1.5" stroke-linecap="round" stroke-linejoin="round"/> <path d="M18.22 10.7598C18.22 11.4498 17.66 11.9998 16.98 11.9998C16.3 11.9998 15.74 11.4398 15.74 10.7598C15.74 10.0798 16.3 9.50977 16.98 9.50977C17.66 9.50977 18.22 10.0698 18.22 10.7598Z" stroke="white" stroke-width="1.5" stroke-linecap="round" stroke-linejoin="round"/> <path d="M18.22 8.27027C18.22 8.96027 17.66 9.51027 16.98 9.51027C16.3 9.51027 15.74 8.95027 15.74 8.27027C15.74 7.59027 16.3 7.03027 16.98 7.03027C17.66 7.03027 18.22 7.59027 18.22 8.27027Z" stroke="white" stroke-width="1.5" stroke-linecap="round" stroke-linejoin="round"/> </g> <defs> <clipPath id="clip0_2085_391056"> <rect width="24" height="24" fill="white"/> </clipPath> </defs> </svg>
