<svg width="24" height="24" viewBox="0 0 24 24" fill="none" xmlns="http://www.w3.org/2000/svg"> <g clip-path="url(#clip0_4482_10027)"> <path d="M7.89014 11.7202V22.0002" stroke="white" stroke-width="1.5" stroke-linecap="round" stroke-linejoin="round"/> <path d="M12 11.7202V22.0002" stroke="white" stroke-width="1.5" stroke-linecap="round" stroke-linejoin="round"/> <path d="M16.1099 11.7202V22.0002" stroke="white" stroke-width="1.5" stroke-linecap="round" stroke-linejoin="round"/> <path d="M3.77002 11.7202H20.23" stroke="white" stroke-width="1.5" stroke-linecap="round" stroke-linejoin="round"/> <path d="M12 4.52002V7.60002" stroke="white" stroke-width="1.5" stroke-linecap="round" stroke-linejoin="round"/> <path d="M15.6 1.9502H12.51C12.2283 1.9502 12 2.17853 12 2.4602V4.5202C12 4.80186 12.2283 5.0302 12.51 5.0302H15.6C15.8817 5.0302 16.11 4.80186 16.11 4.5202V2.4602C16.11 2.17853 15.8817 1.9502 15.6 1.9502Z" stroke="white" stroke-width="1.5" stroke-linecap="round" stroke-linejoin="round"/> <path d="M18.23 7.6001H5.77002C4.67002 7.6001 3.77002 8.5001 3.77002 9.6001V19.9401C3.77002 21.0801 4.69002 22.0001 5.83002 22.0001H18.17C19.31 22.0001 20.23 21.0801 20.23 19.9401V9.6001C20.23 8.5001 19.33 7.6001 18.23 7.6001Z" stroke="white" stroke-width="1.5" stroke-linecap="round" stroke-linejoin="round"/> </g> <defs> <clipPath id="clip0_4482_10027"> <rect width="24" height="24" fill="white"/> </clipPath> </defs> </svg>
