<svg width="24" height="24" viewBox="0 0 24 24" fill="none" xmlns="http://www.w3.org/2000/svg"> <g clip-path="url(#clip0_2085_390332)"> <path d="M8.77004 5.06021C8.77004 5.06021 8.82004 5.03021 8.83004 5.06021C9.18004 6.77021 10.51 8.10021 12.22 8.45021C12.25 8.45021 12.25 8.50021 12.22 8.51021C10.51 8.86021 9.18004 10.1902 8.83004 11.9002C8.83004 11.9302 8.78004 11.9302 8.77004 11.9002C8.42004 10.1902 7.09004 8.86021 5.38004 8.51021C5.35004 8.51021 5.35004 8.46021 5.38004 8.45021C7.09004 8.10021 8.42004 6.77021 8.77004 5.06021Z" stroke="white" stroke-width="1.5" stroke-linecap="round" stroke-linejoin="round"/> <path d="M4.44002 2.23006C4.50002 1.92006 4.95002 1.92006 5.01002 2.23006C5.15002 2.92006 5.69002 3.46006 6.38002 3.60006C6.69002 3.66006 6.69002 4.11006 6.38002 4.17006C5.69002 4.31006 5.15002 4.85006 5.01002 5.54006C4.95002 5.85006 4.50002 5.85006 4.44002 5.54006C4.30002 4.85006 3.76002 4.31006 3.07002 4.17006C2.76002 4.11006 2.76002 3.66006 3.07002 3.60006C3.76002 3.46006 4.30002 2.92006 4.44002 2.23006Z" stroke="white" stroke-width="1.5" stroke-linecap="round" stroke-linejoin="round"/> <path d="M9.06004 21.99H19M12.97 20.17L18.89 14.25C19.9 13.24 20.4 12.74 20.68 12.21C21.32 11.01 21.32 9.56998 20.68 8.35998C20.39 7.82998 19.89 7.31998 18.89 6.31998L17.98 5.40998C17.82 5.24998 17.74 5.16998 17.66 5.09998C16.1 3.68998 13.73 3.68998 12.17 5.09998C12.1 5.16998 12.02 5.24998 11.85 5.40998M12.97 20.17L5.04004 12.24L5.59004 11.69M12.97 20.17L12.12 21.03C11.76 21.39 11.59 21.57 11.38 21.7C11.2 21.81 10.99 21.9 10.78 21.95C10.54 22.01 10.29 22.01 9.78004 22H8.87004C8.37004 22 8.12004 22 7.89004 21.93C7.68004 21.88 7.48004 21.8 7.30004 21.68C7.10004 21.55 6.92004 21.38 6.57004 21.02L5.02004 19.46C4.34004 18.78 4.00004 18.44 3.78004 18.1C2.88004 16.73 2.88004 14.96 3.78004 13.6C4.01004 13.26 4.35004 12.92 5.03004 12.24" stroke="white" stroke-width="1.5" stroke-linecap="round" stroke-linejoin="round"/> </g> <defs> <clipPath id="clip0_2085_390332"> <rect width="24" height="24" fill="white"/> </clipPath> </defs> </svg>
