<svg width="24" height="24" viewBox="0 0 24 24" fill="none" xmlns="http://www.w3.org/2000/svg"> <g clip-path="url(#clip0_4482_12083)"> <path d="M17.1402 4.38H12.5802C12.2202 4.38 11.8902 4.2 11.6902 3.91L10.7102 2.47C10.5102 2.17 10.1702 2 9.82021 2H6.88022C5.69022 2 4.72021 2.97 4.72021 4.16V12.81C4.72021 14 5.69022 14.97 6.88022 14.97H17.1502C18.3402 14.97 19.3102 14 19.3102 12.81V6.55C19.3102 5.36 18.3402 4.39 17.1502 4.39L17.1402 4.38Z" stroke="white" stroke-width="1.5" stroke-linecap="round" stroke-linejoin="round"/> <path d="M12 14.9902V18.7502" stroke="white" stroke-width="1.5" stroke-linecap="round" stroke-linejoin="round"/> <path d="M13.6201 20.3799H20.6501" stroke="white" stroke-width="1.5" stroke-linecap="round" stroke-linejoin="round"/> <path d="M3.3501 20.3799H10.3801" stroke="white" stroke-width="1.5" stroke-linecap="round" stroke-linejoin="round"/> <path d="M13.1502 19.2303C13.7802 19.8603 13.7802 20.8903 13.1502 21.5203C12.5202 22.1503 11.4902 22.1503 10.8602 21.5203C10.2302 20.8903 10.2302 19.8603 10.8602 19.2303C11.4902 18.6003 12.5202 18.6003 13.1502 19.2303Z" stroke="white" stroke-width="1.5" stroke-linecap="round" stroke-linejoin="round"/> </g> <defs> <clipPath id="clip0_4482_12083"> <rect width="24" height="24" fill="white"/> </clipPath> </defs> </svg>
