<svg width="24" height="24" viewBox="0 0 24 24" fill="none" xmlns="http://www.w3.org/2000/svg"> <g clip-path="url(#clip0_4482_14386)"> <path d="M11.9995 18.7499C13.2752 18.7499 14.3095 17.7157 14.3095 16.4399C14.3095 15.1641 13.2752 14.1299 11.9995 14.1299C10.7237 14.1299 9.68945 15.1641 9.68945 16.4399C9.68945 17.7157 10.7237 18.7499 11.9995 18.7499Z" stroke="white" stroke-width="1.5" stroke-linecap="round" stroke-linejoin="round"/> <path d="M4.21961 2H19.7696C20.3796 2 20.8796 2.5 20.8796 3.11C20.8796 4.44 20.3496 5.71 19.4196 6.65C18.4796 7.59 17.2096 8.11 15.8796 8.11H8.09961C5.33961 8.11 3.09961 5.87 3.09961 3.11C3.09961 2.5 3.59961 2 4.20961 2H4.21961Z" stroke="white" stroke-width="1.5" stroke-linecap="round" stroke-linejoin="round"/> <path d="M7.70996 10.8896C6.58996 10.8896 5.63996 11.6896 5.43996 12.7896L4.25996 19.2796C4.13996 19.9496 4.31996 20.6496 4.75996 21.1696C5.19996 21.6996 5.84996 21.9996 6.52996 21.9996H17.47C18.15 21.9996 18.8 21.6996 19.24 21.1696C19.68 20.6396 19.86 19.9496 19.74 19.2796L18.56 12.7896C18.36 11.6896 17.4 10.8896 16.29 10.8896H7.70996Z" stroke="white" stroke-width="1.5" stroke-linecap="round" stroke-linejoin="round"/> <path d="M15.3399 8.11035H8.66992V10.8904H15.3399V8.11035Z" stroke="white" stroke-width="1.5" stroke-linecap="round" stroke-linejoin="round"/> </g> <defs> <clipPath id="clip0_4482_14386"> <rect width="24" height="24" fill="white"/> </clipPath> </defs> </svg>
