<svg width="24" height="24" viewBox="0 0 24 24" fill="none" xmlns="http://www.w3.org/2000/svg"> <g clip-path="url(#clip0_4482_458)"> <path d="M6.44 16.5698L4.44 18.1998" stroke="white" stroke-width="1.5" stroke-linecap="round" stroke-linejoin="round"/> <path d="M17.57 7.45006L19.57 5.81006" stroke="white" stroke-width="1.5" stroke-linecap="round" stroke-linejoin="round"/> <path d="M12.52 12.5298L14.62 15.6798" stroke="white" stroke-width="1.5" stroke-linecap="round" stroke-linejoin="round"/> <path d="M9.38 12.5301H12.53C13.69 12.5301 14.63 11.5901 14.63 10.4301C14.63 9.27008 13.69 8.33008 12.53 8.33008H9.38V8.34008V15.6901" stroke="white" stroke-width="1.5" stroke-linecap="round" stroke-linejoin="round"/> <path d="M12 22C6.5 22 2 17.5 2 12C2 6.5 6.5 2 12 2C17.5 2 22 6.5 22 12C22 17.5 17.5 22 12 22Z" stroke="white" stroke-width="1.5" stroke-linecap="round" stroke-linejoin="round"/> </g> <defs> <clipPath id="clip0_4482_458"> <rect width="24" height="24" fill="white"/> </clipPath> </defs> </svg>
