<svg width="24" height="24" viewBox="0 0 24 24" fill="none" xmlns="http://www.w3.org/2000/svg"> <g clip-path="url(#clip0_4482_373)"> <path d="M12 2L11.18 3.64C9.59999 6.79 7.32 9.53 4.5 11.65L5.21997 12.13C7.03997 13.36 8.52 15.04 9.5 17H14.5C15.48 15.03 16.96 13.35 18.78 12.13L19.5 11.65C16.68 9.54 14.39 6.8 12.82 3.64L12 2Z" stroke="white" stroke-width="1.5" stroke-linecap="round" stroke-linejoin="round"/> <path d="M12 2V9" stroke="white" stroke-width="1.5" stroke-linecap="round" stroke-linejoin="round"/> <path d="M13.5 22H10.5C9.12 22 8 20.88 8 19.5C8 18.12 9.12 17 10.5 17H13.5C14.88 17 16 18.12 16 19.5C16 20.88 14.88 22 13.5 22Z" stroke="white" stroke-width="1.5" stroke-linecap="round" stroke-linejoin="round"/> <path d="M12 12C11.17 12 10.5 11.33 10.5 10.5C10.5 9.68 11.17 9 12 9C12.83 9 13.5 9.67 13.5 10.5C13.5 11.33 12.83 12 12 12Z" stroke="white" stroke-width="1.5" stroke-linecap="round" stroke-linejoin="round"/> </g> <defs> <clipPath id="clip0_4482_373"> <rect width="24" height="24" fill="white"/> </clipPath> </defs> </svg>
