<svg width="24" height="24" viewBox="0 0 24 24" fill="none" xmlns="http://www.w3.org/2000/svg"> <g clip-path="url(#clip0_2085_390335)"> <path d="M18.19 2.02998C18.19 2.02998 18.25 1.98998 18.26 2.02998C18.64 3.89998 20.11 5.36998 21.98 5.74998C22.02 5.74998 22.02 5.80998 21.98 5.81998C20.11 6.19998 18.64 7.66998 18.26 9.53998C18.26 9.57998 18.2 9.57998 18.19 9.53998C17.81 7.66998 16.34 6.19998 14.47 5.81998C14.43 5.81998 14.43 5.75998 14.47 5.74998C16.34 5.36998 17.81 3.89998 18.19 2.02998Z" stroke="white" stroke-width="1.5" stroke-linecap="round" stroke-linejoin="round"/> <path d="M2 5.77998H10.39M2 19.2H21.02M18.22 22V13.61M4.8 22V2.97998" stroke="white" stroke-width="1.5" stroke-linecap="round" stroke-linejoin="round"/> </g> <defs> <clipPath id="clip0_2085_390335"> <rect width="24" height="24" fill="white"/> </clipPath> </defs> </svg>
