<svg width="24" height="24" viewBox="0 0 24 24" fill="none" xmlns="http://www.w3.org/2000/svg"> <g clip-path="url(#clip0_4482_12086)"> <path d="M17.1397 4.38H12.5797C12.2197 4.38 11.8897 4.2 11.6897 3.91L10.7097 2.47C10.5097 2.17 10.1697 2 9.81973 2H6.87973C5.68973 2 4.71973 2.97 4.71973 4.16V12.81C4.71973 14 5.68973 14.97 6.87973 14.97H17.1497C18.3397 14.97 19.3097 14 19.3097 12.81V6.55C19.3097 5.36 18.3397 4.39 17.1497 4.39L17.1397 4.38Z" stroke="white" stroke-width="1.5" stroke-linecap="round" stroke-linejoin="round"/> <path d="M12 14.9902V16.6102" stroke="white" stroke-width="1.5" stroke-linecap="round" stroke-linejoin="round"/> <path d="M16.3203 20.3799H20.6403" stroke="white" stroke-width="1.5" stroke-linecap="round" stroke-linejoin="round"/> <path d="M10.3799 18.7598L13.6199 21.9998" stroke="white" stroke-width="1.5" stroke-linecap="round" stroke-linejoin="round"/> <path d="M10.3799 21.9998L13.6199 18.7598" stroke="white" stroke-width="1.5" stroke-linecap="round" stroke-linejoin="round"/> <path d="M3.34961 20.3799H7.67961" stroke="white" stroke-width="1.5" stroke-linecap="round" stroke-linejoin="round"/> </g> <defs> <clipPath id="clip0_4482_12086"> <rect width="24" height="24" fill="white"/> </clipPath> </defs> </svg>
