<svg width="24" height="24" viewBox="0 0 24 24" fill="none" xmlns="http://www.w3.org/2000/svg"> <g clip-path="url(#clip0_4482_3849)"> <path d="M22 13.4805C22 7.96047 17.52 3.48047 12 3.48047C6.48 3.48047 2 7.96047 2 13.4805" stroke="white" stroke-width="1.5" stroke-miterlimit="10" stroke-linecap="round" stroke-linejoin="round"/> <path d="M12 6.48047V7.48047" stroke="white" stroke-width="1.5" stroke-miterlimit="10" stroke-linecap="round" stroke-linejoin="round"/> <path d="M6.91003 8.37012L7.49003 9.19012" stroke="white" stroke-width="1.5" stroke-miterlimit="10" stroke-linecap="round" stroke-linejoin="round"/> <path d="M17.09 8.37012L16.51 9.19012" stroke="white" stroke-width="1.5" stroke-miterlimit="10" stroke-linecap="round" stroke-linejoin="round"/> <path d="M12 19.4805C13.6569 19.4805 15 18.1373 15 16.4805C15 14.8236 13.6569 13.4805 12 13.4805C10.3431 13.4805 9 14.8236 9 16.4805C9 18.1373 10.3431 19.4805 12 19.4805Z" stroke="white" stroke-width="1.5" stroke-miterlimit="10" stroke-linecap="round" stroke-linejoin="round"/> <path d="M8.79999 11.4004L10.4 13.9404" stroke="white" stroke-width="1.5" stroke-miterlimit="10" stroke-linecap="round" stroke-linejoin="round"/> <path d="M2.01001 18.4199H4.31001" stroke="white" stroke-width="1.5" stroke-linecap="round" stroke-linejoin="round"/> <path d="M5.00001 20.5201H2.51001C2.23001 20.5201 2.01001 20.3001 2.01001 20.0201V16.8301C2.01001 16.5501 2.23001 16.3301 2.51001 16.3301H5.00001" stroke="white" stroke-width="1.5" stroke-linecap="round" stroke-linejoin="round"/> <path d="M19.01 18.4199H21.31" stroke="white" stroke-width="1.5" stroke-linecap="round" stroke-linejoin="round"/> <path d="M19.01 20.5201V16.8301C19.01 16.5501 19.23 16.3301 19.51 16.3301H22" stroke="white" stroke-width="1.5" stroke-linecap="round" stroke-linejoin="round"/> <path d="M11.99 16.4805H12.01" stroke="white" stroke-width="2" stroke-miterlimit="10" stroke-linecap="round" stroke-linejoin="round"/> </g> <defs> <clipPath id="clip0_4482_3849"> <rect width="24" height="24" fill="white"/> </clipPath> </defs> </svg>
