<svg width="24" height="24" viewBox="0 0 24 24" fill="none" xmlns="http://www.w3.org/2000/svg"> <g clip-path="url(#clip0_655_7217)"> <path d="M4.22 11.61H9.78C11.01 11.61 12 12.6 12 13.83V19.39C12 20.62 11.01 21.61 9.78 21.61H4.22C2.99 21.61 2 20.62 2 19.39V13.83C2 12.6 2.99 11.61 4.22 11.61Z" stroke="white" stroke-width="1.5" stroke-linecap="round" stroke-linejoin="round"/> <path d="M14.22 11.61H19.78C21.01 11.61 22 12.6 22 13.83V19.39C22 20.62 21.01 21.61 19.78 21.61H14.22C12.99 21.61 12 20.62 12 19.39V13.83C12 12.6 12.99 11.61 14.22 11.61Z" stroke="white" stroke-width="1.5" stroke-linecap="round" stroke-linejoin="round"/> <path d="M9.22027 9.39L7.00027 11.61L4.78027 9.39" stroke="white" stroke-width="1.5" stroke-linecap="round" stroke-linejoin="round"/> <path d="M19.2203 9.39L17.0003 11.61L14.7803 9.39" stroke="white" stroke-width="1.5" stroke-linecap="round" stroke-linejoin="round"/> </g> <defs> <clipPath id="clip0_655_7217"> <rect width="24" height="24" fill="white"/> </clipPath> </defs> </svg>
