<svg width="24" height="24" viewBox="0 0 24 24" fill="none" xmlns="http://www.w3.org/2000/svg"> <g clip-path="url(#clip0_2085_391010)"> <path d="M16.32 2C19.39 2 21.88 4.49 21.88 7.56V16.45C21.88 19.52 19.39 22.01 16.32 22.01H7.43C4.36 22.01 1.87 19.52 1.87 16.45V7.56C1.87 4.49 4.36 2 7.43 2H16.32Z" stroke="white" stroke-width="1.5" stroke-linecap="round" stroke-linejoin="round"/> <path d="M8.26001 13.6699C9.33001 13.6699 10.2 14.5399 10.2 15.6099C10.2 16.6799 9.33001 17.5499 8.26001 17.5499C7.19001 17.5499 6.32001 16.6799 6.32001 15.6099C6.32001 14.5399 7.19001 13.6699 8.26001 13.6699Z" stroke="white" stroke-width="1.5" stroke-linecap="round" stroke-linejoin="round"/> <path d="M8.26001 6.44043C9.33001 6.44043 10.2 7.31043 10.2 8.38043C10.2 9.45043 9.33001 10.3204 8.26001 10.3204C7.19001 10.3204 6.32001 9.45043 6.32001 8.38043C6.32001 7.31043 7.19001 6.44043 8.26001 6.44043Z" stroke="white" stroke-width="1.5" stroke-linecap="round" stroke-linejoin="round"/> <path d="M11.88 12H14.1" stroke="white" stroke-width="1.5" stroke-linecap="round" stroke-linejoin="round"/> <path d="M8.26001 10.3301V13.6601" stroke="white" stroke-width="1.5" stroke-linecap="round" stroke-linejoin="round"/> <path d="M16.04 10.0596C17.11 10.0596 17.98 10.9296 17.98 11.9996C17.98 13.0696 17.11 13.9396 16.04 13.9396C14.97 13.9396 14.1 13.0696 14.1 11.9996C14.1 10.9296 14.97 10.0596 16.04 10.0596Z" stroke="white" stroke-width="1.5" stroke-linecap="round" stroke-linejoin="round"/> </g> <defs> <clipPath id="clip0_2085_391010"> <rect width="24" height="24" fill="white"/> </clipPath> </defs> </svg>
