<svg width="24" height="24" viewBox="0 0 24 24" fill="none" xmlns="http://www.w3.org/2000/svg"> <g clip-path="url(#clip0_2085_391011)"> <path d="M8.38 13V7" stroke="white" stroke-width="1.5" stroke-linecap="round" stroke-linejoin="round"/> <path d="M11.88 22C17.4029 22 21.88 17.5228 21.88 12C21.88 6.47715 17.4029 2 11.88 2C6.35716 2 1.88 6.47715 1.88 12C1.88 17.5228 6.35716 22 11.88 22Z" stroke="white" stroke-width="1.5" stroke-linecap="round" stroke-linejoin="round"/> <path d="M15.38 11C15.38 13.21 13.59 15 11.38 15H10.38" stroke="white" stroke-width="1.5" stroke-linecap="round" stroke-linejoin="round"/> <path d="M15.38 11C16.4846 11 17.38 10.1046 17.38 9C17.38 7.89543 16.4846 7 15.38 7C14.2754 7 13.38 7.89543 13.38 9C13.38 10.1046 14.2754 11 15.38 11Z" stroke="white" stroke-width="1.5" stroke-linecap="round" stroke-linejoin="round"/> <path d="M8.38 17C9.48457 17 10.38 16.1046 10.38 15C10.38 13.8954 9.48457 13 8.38 13C7.27544 13 6.38 13.8954 6.38 15C6.38 16.1046 7.27544 17 8.38 17Z" stroke="white" stroke-width="1.5" stroke-linecap="round" stroke-linejoin="round"/> </g> <defs> <clipPath id="clip0_2085_391011"> <rect width="24" height="24" fill="white"/> </clipPath> </defs> </svg>
