<svg width="24" height="24" viewBox="0 0 24 24" fill="none" xmlns="http://www.w3.org/2000/svg"> <g clip-path="url(#clip0_4482_11508)"> <path d="M7.19043 6.99003V17.02C7.19043 17.75 7.98043 18.21 8.61043 17.85L17.4304 12.84C18.0704 12.48 18.0704 11.55 17.4304 11.18L8.61043 6.17003C7.98043 5.81003 7.19043 6.27003 7.19043 7.00003V6.99003Z" stroke="white" stroke-width="1.5" stroke-linecap="round" stroke-linejoin="round"/> <path d="M7.41016 17.6102L14.3402 9.41016" stroke="white" stroke-width="1.5" stroke-linecap="round" stroke-linejoin="round"/> <path d="M7.41016 6.39014L14.3402 14.5901" stroke="white" stroke-width="1.5" stroke-linecap="round" stroke-linejoin="round"/> <path d="M7.01023 2H17.0102C19.7702 2 22.0102 4.24 22.0102 7V17.01C22.0102 19.77 19.7702 22 17.0102 22H6.99023C4.23023 22 1.99023 19.76 1.99023 17V7C1.99023 4.24 4.23023 2 6.99023 2H7.00023H7.01023Z" stroke="white" stroke-width="1.5" stroke-linecap="round" stroke-linejoin="round"/> </g> <defs> <clipPath id="clip0_4482_11508"> <rect width="24" height="24" fill="white"/> </clipPath> </defs> </svg>
