<svg width="24" height="24" viewBox="0 0 24 24" fill="none" xmlns="http://www.w3.org/2000/svg"> <g clip-path="url(#clip0_2085_386802)"> <path d="M18.29 18.9005C20.34 18.9005 22 17.2405 22 15.1905C22 13.1405 20.34 11.4805 18.29 11.4805C16.24 11.4805 14.58 13.1405 14.58 15.1905C14.58 17.2405 16.24 18.9005 18.29 18.9005Z" stroke="white" stroke-width="1.5" stroke-linecap="round" stroke-linejoin="round"/> <path d="M18.29 15.6505C18.55 15.6505 18.75 15.4405 18.75 15.1905C18.75 14.9405 18.54 14.7305 18.29 14.7305C18.04 14.7305 17.83 14.9405 17.83 15.1905C17.83 15.4405 18.04 15.6505 18.29 15.6505Z" fill="white"/> <path d="M3.75 18.9004C4.71 18.9004 5.5 18.1204 5.5 17.1504C5.5 16.1804 4.72 15.4004 3.75 15.4004C2.78 15.4004 2 16.1804 2 17.1504C2 18.1204 2.78 18.9004 3.75 18.9004Z" stroke="white" stroke-width="1.5" stroke-linecap="round" stroke-linejoin="round"/> <path d="M3.75 18.9102H18.2" stroke="white" stroke-width="1.5" stroke-linecap="round" stroke-linejoin="round"/> <path d="M17.47 11.5703L3.35999 15.4603" stroke="white" stroke-width="1.5" stroke-linecap="round" stroke-linejoin="round"/> <path d="M6.64001 18.9102C6.64001 19.3102 6.32001 19.6302 5.92001 19.6302C5.52001 19.6302 5.20001 19.3002 5.20001 18.9102" stroke="white" stroke-width="1.5" stroke-linecap="round" stroke-linejoin="round"/> <path d="M18.05 18.9102C18.05 19.3102 17.73 19.6302 17.33 19.6302C16.93 19.6302 16.61 19.3002 16.61 18.9102" stroke="white" stroke-width="1.5" stroke-linecap="round" stroke-linejoin="round"/> <path d="M6.88 14.4907L4.88 8.18066" stroke="white" stroke-width="1.5" stroke-linecap="round" stroke-linejoin="round"/> <path d="M2.72 8.18066H7.03" stroke="white" stroke-width="1.5" stroke-linecap="round" stroke-linejoin="round"/> <path d="M14.21 12.4604C14.95 10.4304 16.5 6.21035 16.5 6.21035C16.5 6.21035 18.96 6.65035 19.62 4.36035" stroke="white" stroke-width="1.5" stroke-linecap="round" stroke-linejoin="round"/> </g> <defs> <clipPath id="clip0_2085_386802"> <rect width="24" height="24" fill="white"/> </clipPath> </defs> </svg>
