<svg width="24" height="24" viewBox="0 0 24 24" fill="none" xmlns="http://www.w3.org/2000/svg"> <g clip-path="url(#clip0_2085_386794)"> <path d="M4.95996 21.5498H18.52" stroke="white" stroke-width="1.5" stroke-linecap="round" stroke-linejoin="round"/> <path d="M7.19 18.9203L8.83 17.2803H14.65L16.29 18.9203" stroke="white" stroke-width="1.5" stroke-linecap="round" stroke-linejoin="round"/> <path d="M11.74 21.5403V17.2803" stroke="white" stroke-width="1.5" stroke-linecap="round" stroke-linejoin="round"/> <path d="M20.64 13.6802V9.4302C20.64 8.9702 20.48 8.5302 20.19 8.1702L17.57 4.9402C17.19 4.4702 16.62 4.2002 16.02 4.2002H7.97999C7.37999 4.2002 6.80999 4.4702 6.42999 4.9402L3.80999 8.1702C3.51999 8.5302 3.35999 8.9702 3.35999 9.4302V13.6802" stroke="white" stroke-width="1.5" stroke-linecap="round" stroke-linejoin="round"/> <path d="M6.07999 12H3.35999" stroke="white" stroke-width="1.5" stroke-linecap="round" stroke-linejoin="round"/> <path d="M20.64 12H17.92" stroke="white" stroke-width="1.5" stroke-linecap="round" stroke-linejoin="round"/> <path d="M12 2V7.8" stroke="white" stroke-width="1.5" stroke-linecap="round" stroke-linejoin="round"/> <path d="M14.17 14.5902H9.82998C9.13998 14.5902 8.62998 13.9502 8.77998 13.2702L9.79998 8.7902C9.90998 8.3002 10.35 7.9502 10.85 7.9502H13.16C13.66 7.9502 14.1 8.3002 14.21 8.7902L15.23 13.2702C15.38 13.9502 14.87 14.5902 14.18 14.5902H14.17Z" stroke="white" stroke-width="1.5" stroke-linecap="round" stroke-linejoin="round"/> </g> <defs> <clipPath id="clip0_2085_386794"> <rect width="24" height="24" fill="white"/> </clipPath> </defs> </svg>
