<svg width="24" height="24" viewBox="0 0 24 24" fill="none" xmlns="http://www.w3.org/2000/svg"> <g clip-path="url(#clip0_2085_386805)"> <path d="M6 2.5C7 6.5 10.75 10 13.75 10C13.92 11.03 14.45 12.07 15.09 12.77C15.5 13.23 15.68 13.95 15.27 14.41C12.62 17.43 8.18 19.58 5 20.5M13.5 10C9.5 11 7 11.5 4.5 11.5M10.89 10.63C12.5 15.5 16 18.5 22 21M22 12C22 17.52 17.52 22 12 22C6.48 22 2 17.52 2 12C2 6.48 6.48 2 12 2C17.52 2 22 6.48 22 12ZM11.5 6C11.5 7.1 12.4 8 13.5 8C14.6 8 15.5 7.1 15.5 6C15.5 4.9 14.6 4 13.5 4C12.4 4 11.5 4.9 11.5 6Z" stroke="white" stroke-width="1.5" stroke-linecap="round" stroke-linejoin="round"/> </g> <defs> <clipPath id="clip0_2085_386805"> <rect width="24" height="24" fill="white"/> </clipPath> </defs> </svg>
