<svg width="24" height="24" viewBox="0 0 24 24" fill="none" xmlns="http://www.w3.org/2000/svg"> <g clip-path="url(#clip0_4482_498)"> <path d="M18 22H6C3.8 22 2 20.2 2 18V10C2 7.8 3.8 6 6 6H18C20.2 6 22 7.8 22 10V18C22 20.2 20.2 22 18 22Z" stroke="white" stroke-width="1.5" stroke-linejoin="round"/> <path d="M11.51 12.5998L9.59998 11.1098C9.13998 10.7498 8.49003 10.7498 8.03003 11.1098L6.12 12.5998C5.81 12.8398 5.63 13.2098 5.63 13.6098V15.8898C5.63 16.5898 6.20003 17.1698 6.91003 17.1698H10.74C11.44 17.1698 12.02 16.5998 12.02 15.8898V13.5998C12 13.2098 11.82 12.8398 11.51 12.5998Z" stroke="white" stroke-width="1.5"/> <path d="M15.38 12H18.38" stroke="white" stroke-width="1.5" stroke-linecap="round" stroke-linejoin="round"/> <path d="M15.38 16H18.38" stroke="white" stroke-width="1.5" stroke-linecap="round" stroke-linejoin="round"/> <path d="M7.97998 6V4C7.97998 2.9 8.87998 2 9.97998 2H14.02C15.12 2 16.02 2.9 16.02 4V6" stroke="white" stroke-width="1.5" stroke-linecap="round" stroke-linejoin="round"/> </g> <defs> <clipPath id="clip0_4482_498"> <rect width="24" height="24" fill="white"/> </clipPath> </defs> </svg>
