<svg width="24" height="24" viewBox="0 0 24 24" fill="none" xmlns="http://www.w3.org/2000/svg"> <g clip-path="url(#clip0_4482_7608)"> <path d="M12 22H16.45C19.52 22 22.01 19.51 22.01 16.44V7.54999C22.01 4.47999 19.52 1.98999 16.45 1.98999H7.55C4.48 1.99999 2 4.47999 2 7.54999V11.99" stroke="white" stroke-width="1.5" stroke-linecap="round" stroke-linejoin="round"/> <path d="M6.19023 15.51L6.44023 15.76L6.69023 15.51C7.15023 15.04 7.77023 14.78 8.43023 14.78C9.09023 14.78 9.71023 15.04 10.1702 15.51C11.1302 16.49 11.1302 18.06 10.1702 19.04L7.82023 21.43C7.46023 21.8 6.96023 22.01 6.44023 22.01C5.92023 22.01 5.43023 21.8 5.06023 21.43L2.71023 19.04C1.75023 18.06 1.75023 16.49 2.71023 15.51C3.17023 15.04 3.79023 14.78 4.45023 14.78C5.11023 14.78 5.73023 15.04 6.19023 15.51Z" stroke="white" stroke-width="1.5" stroke-linecap="round" stroke-linejoin="round"/> </g> <defs> <clipPath id="clip0_4482_7608"> <rect width="24" height="24" fill="white"/> </clipPath> </defs> </svg>
