<svg width="24" height="24" viewBox="0 0 24 24" fill="none" xmlns="http://www.w3.org/2000/svg"> <g clip-path="url(#clip0_4482_3684)"> <path d="M2 12H3.54001" stroke="white" stroke-width="1.5" stroke-linecap="round" stroke-linejoin="round"/> <path d="M20.54 12H22" stroke="white" stroke-width="1.5" stroke-linecap="round" stroke-linejoin="round"/> <path d="M4.92999 19.07L6.01999 17.98" stroke="white" stroke-width="1.5" stroke-linecap="round" stroke-linejoin="round"/> <path d="M18.04 5.96018L19.07 4.93018" stroke="white" stroke-width="1.5" stroke-linecap="round" stroke-linejoin="round"/> <path d="M12 22V20.46" stroke="white" stroke-width="1.5" stroke-linecap="round" stroke-linejoin="round"/> <path d="M12 3.46V2" stroke="white" stroke-width="1.5" stroke-linecap="round" stroke-linejoin="round"/> <path d="M19.07 19.07L17.98 17.98" stroke="white" stroke-width="1.5" stroke-linecap="round" stroke-linejoin="round"/> <path d="M5.95999 5.96018L4.92999 4.93018" stroke="white" stroke-width="1.5" stroke-linecap="round" stroke-linejoin="round"/> <path d="M12.28 16.2598C12.13 16.3098 11.88 16.3098 11.72 16.2598C10.42 15.8198 7.5 13.9598 7.5 10.8098C7.5 9.4198 8.62 8.2998 10 8.2998C10.82 8.2998 11.54 8.6998 12 9.3098C12.45 8.6998 13.18 8.2998 14 8.2998C15.38 8.2998 16.5 9.4198 16.5 10.8098C16.49 13.9598 13.58 15.8098 12.28 16.2598Z" stroke="white" stroke-width="1.5" stroke-linecap="round" stroke-linejoin="round"/> </g> <defs> <clipPath id="clip0_4482_3684"> <rect width="24" height="24" fill="white"/> </clipPath> </defs> </svg>
