<svg width="24" height="24" viewBox="0 0 24 24" fill="none" xmlns="http://www.w3.org/2000/svg"> <g clip-path="url(#clip0_4482_3867)"> <path d="M13.25 21.2297C12.55 21.9297 11.4 21.9297 10.71 21.2197L9.56002 20.0497L9.55003 20.0396L6.09002 16.5696C2.83002 13.2896 2.83002 7.98965 6.09002 4.70965C8.60002 2.17965 12.57 1.42965 16.04 3.27965C16.74 3.64965 17.35 4.15965 17.91 4.70965C19.12 5.91965 19.88 7.41965 20.19 8.97965" stroke="white" stroke-width="1.5" stroke-linecap="round" stroke-linejoin="round"/> <path d="M16.79 19.4004C19 19.4004 20.79 17.6104 20.79 15.4004C20.79 13.1904 19 11.4004 16.79 11.4004C14.58 11.4004 12.79 13.1904 12.79 15.4004C12.79 17.6104 14.58 19.4004 16.79 19.4004Z" stroke="white" stroke-width="1.5" stroke-linecap="round" stroke-linejoin="round"/> <path d="M21.9955 20H22.0045" stroke="white" stroke-width="2" stroke-linecap="round" stroke-linejoin="round"/> </g> <defs> <clipPath id="clip0_4482_3867"> <rect width="24" height="24" fill="white"/> </clipPath> </defs> </svg>
