<svg width="24" height="24" viewBox="0 0 24 24" fill="none" xmlns="http://www.w3.org/2000/svg"> <g clip-path="url(#clip0_4482_7641)"> <path d="M15.11 2H8.9C8.24 2 7.6 2.26 7.13 2.73L2.73 7.13C2.26 7.6 2 8.23 2 8.9V15.11C2 15.77 2.26 16.41 2.73 16.88L7.12 21.27C7.59 21.74 8.22 22 8.89 22H15.1C15.76 22 16.4 21.74 16.87 21.27L21.26 16.88C21.73 16.41 21.99 15.78 21.99 15.11V8.9C21.99 8.24 21.73 7.6 21.26 7.13L16.87 2.74C16.4 2.27 15.77 2.01 15.1 2.01L15.11 2Z" stroke="white" stroke-width="1.5" stroke-linecap="round" stroke-linejoin="round"/> <path d="M15.5398 8.46006C17.4898 10.4101 17.4898 13.5801 15.5398 15.5301C13.5898 17.4801 10.4198 17.4801 8.46982 15.5301C6.51982 13.5801 6.51982 10.4101 8.46982 8.46006C10.4198 6.51006 13.5898 6.51006 15.5398 8.46006Z" stroke="white" stroke-width="1.5" stroke-linecap="round" stroke-linejoin="round"/> </g> <defs> <clipPath id="clip0_4482_7641"> <rect width="24" height="24" fill="white"/> </clipPath> </defs> </svg>
