<svg width="24" height="24" viewBox="0 0 24 24" fill="none" xmlns="http://www.w3.org/2000/svg"> <g clip-path="url(#clip0_2085_390894)"> <path d="M19.32 18.8498C18.57 19.3298 17.79 19.3198 17.79 19.3198C17.79 19.3198 15.74 19.4898 13.92 18.6698C12.86 18.1898 11.08 18.2098 10.06 18.6698C8.24 19.4798 6.19 19.3198 6.19 19.3198C6.19 19.3198 5.41 19.3298 4.66 18.8498C3.95 18.3898 3.26 17.4898 3.3 15.7098C3.35 13.4598 4.28 12.6498 4.98 12.3598C5.35 12.2098 5.65 12.2298 6.35 11.8698C6.66 11.7098 7.07 11.5298 7.53 11.3898C8.5 11.0898 9.26 11.0898 10.17 11.3598C10.53 11.4598 10.85 11.5998 11.13 11.7298C11.69 11.9898 12.33 11.9998 12.9 11.7498C13.16 11.6398 13.46 11.5198 13.78 11.4198C14.94 11.0698 15.69 11.1098 16.41 11.3198C16.87 11.4498 17.28 11.6398 17.59 11.8098C18.27 12.1798 18.71 12.2298 19 12.3498C19.7 12.6398 20.62 13.4498 20.68 15.6998C20.72 17.4798 20.04 18.3898 19.32 18.8398V18.8498Z" stroke="white" stroke-width="1.5" stroke-linecap="round" stroke-linejoin="round"/> <path d="M8.44002 13.6396C8.44002 14.1896 7.99002 14.6296 7.44002 14.6296H6.77002" stroke="white" stroke-width="1.5" stroke-linecap="round" stroke-linejoin="round"/> <path d="M15.56 13.6396C15.56 14.1896 16.01 14.6296 16.56 14.6296H17.23" stroke="white" stroke-width="1.5" stroke-linecap="round" stroke-linejoin="round"/> <path d="M19.01 12.3704C18.71 12.2504 18.27 12.1904 17.6 11.8204C17.29 11.6504 16.88 11.4604 16.42 11.3304C15.7 11.1204 14.94 11.0804 13.79 11.4304C13.47 11.5304 13.17 11.6504 12.91 11.7604C12.34 12.0104 11.7 12.0004 11.14 11.7404C10.86 11.6104 10.53 11.4804 10.18 11.3704C9.27999 11.1104 8.51999 11.1004 7.53999 11.4004C7.07999 11.5404 6.66999 11.7204 6.35999 11.8804C5.65999 12.2404 5.34999 12.2204 4.98999 12.3704L5.30999 8.25039C5.34999 7.62039 5.50999 7.03039 5.78999 6.50039C5.92999 6.22039 6.10999 5.96039 6.30999 5.71039C6.56999 5.40039 6.86999 5.12039 7.19999 4.89039C7.61999 4.60039 8.09999 4.38039 8.61999 4.25039C10.84 3.70039 13.16 3.70039 15.39 4.25039C15.91 4.38039 16.39 4.60039 16.81 4.89039C17.41 5.30039 17.89 5.85039 18.22 6.49039C18.5 7.02039 18.66 7.62039 18.7 8.24039L19.02 12.3604L19.01 12.3704Z" stroke="white" stroke-width="1.5" stroke-linecap="round" stroke-linejoin="round"/> <path d="M7.20001 4.88953C6.86001 5.11953 6.56001 5.39953 6.31001 5.70953C6.11001 5.94953 5.93001 6.20953 5.79001 6.49953L3.55001 5.04953C2.67001 4.47953 2.53001 3.23953 3.28001 2.49953C3.61001 2.16953 4.03001 2.01953 4.45001 2.01953C4.99001 2.01953 5.52001 2.27953 5.84001 2.77953L7.21001 4.90953L7.20001 4.88953Z" stroke="white" stroke-width="1.5" stroke-linecap="round" stroke-linejoin="round"/> <path d="M20.45 5.04L18.21 6.49C17.88 5.85 17.39 5.3 16.8 4.89L18.17 2.76C18.49 2.26 19.02 2 19.56 2C19.98 2 20.4 2.16 20.73 2.48C21.47 3.22 21.34 4.46 20.46 5.03L20.45 5.04Z" stroke="white" stroke-width="1.5" stroke-linecap="round" stroke-linejoin="round"/> <path d="M19.32 18.8499L18.39 20.5699C17.92 21.4499 17 21.9999 16 21.9999H7.98998C6.98998 21.9999 6.06998 21.4499 5.59998 20.5699L4.66998 18.8499C5.41998 19.3299 6.19998 19.3199 6.19998 19.3199C6.19998 19.3199 8.24998 19.4899 10.07 18.6699C11.09 18.2099 12.88 18.1899 13.93 18.6699C15.75 19.4799 17.8 19.3199 17.8 19.3199C17.8 19.3199 18.58 19.3299 19.33 18.8499H19.32Z" stroke="white" stroke-width="1.5" stroke-linecap="round" stroke-linejoin="round"/> <path d="M8.43 8.07996C8.43 8.41996 8.15 8.69996 7.81 8.69996C7.47 8.69996 7.19 8.41996 7.19 8.07996C7.19 7.73996 7.47 7.45996 7.81 7.45996C8.15 7.45996 8.43 7.73996 8.43 8.07996Z" fill="white"/> <path d="M16.81 8.07996C16.81 8.41996 16.53 8.69996 16.19 8.69996C15.85 8.69996 15.57 8.41996 15.57 8.07996C15.57 7.73996 15.85 7.45996 16.19 7.45996C16.53 7.45996 16.81 7.73996 16.81 8.07996Z" fill="white"/> </g> <defs> <clipPath id="clip0_2085_390894"> <rect width="24" height="24" fill="white"/> </clipPath> </defs> </svg>
