<svg width="24" height="24" viewBox="0 0 24 24" fill="none" xmlns="http://www.w3.org/2000/svg"> <g clip-path="url(#clip0_4482_10245)"> <path d="M4.3999 5.50977L18.4999 19.6098" stroke="white" stroke-width="1.5" stroke-linecap="round" stroke-linejoin="round"/> <path d="M22 12C22 17.52 17.52 22 12 22C6.48 22 2 17.52 2 12C2 6.48 6.48 2 12 2" stroke="white" stroke-width="1.5" stroke-linecap="round" stroke-linejoin="round"/> <path d="M4.3999 18.49L10.8899 12" stroke="white" stroke-width="1.5" stroke-linecap="round" stroke-linejoin="round"/> <path d="M15.4 3.82006L17.07 2.49006C17.68 2.00006 18.54 2.00006 19.15 2.49006L20.82 3.82006C21.22 4.14006 21.45 4.62006 21.45 5.12006V7.56006C21.45 8.17006 20.95 8.67006 20.34 8.67006H15.9C15.29 8.67006 14.79 8.17006 14.79 7.56006V5.12006C14.79 4.61006 15.02 4.14006 15.42 3.82006H15.4Z" stroke="white" stroke-width="1.5" stroke-linecap="round" stroke-linejoin="round"/> </g> <defs> <clipPath id="clip0_4482_10245"> <rect width="24" height="24" fill="white"/> </clipPath> </defs> </svg>
