<svg width="24" height="24" viewBox="0 0 24 24" fill="none" xmlns="http://www.w3.org/2000/svg"> <g clip-path="url(#clip0_2085_382484)"> <path d="M4.4 18.2408C1.04 14.3108 1.21 8.39078 4.93 4.67078C8.84 0.760781 15.17 0.760781 19.08 4.67078C22.8 8.39078 22.97 14.3008 19.61 18.2408" stroke="white" stroke-width="1.5" stroke-linecap="round" stroke-linejoin="round"/> <path d="M7.17999 15.4612C5.32999 13.0612 5.47999 9.62117 7.67999 7.43117C10.07 5.04117 13.94 5.04117 16.33 7.43117C18.53 9.63117 18.68 13.0712 16.83 15.4612" stroke="white" stroke-width="1.5" stroke-linecap="round" stroke-linejoin="round"/> <path d="M13.75 10.0009C14.72 10.9709 14.72 12.5409 13.75 13.5109C12.78 14.4809 11.21 14.4809 10.24 13.5109C9.27001 12.5409 9.27001 10.9709 10.24 10.0009C11.21 9.03094 12.78 9.03094 13.75 10.0009Z" stroke="white" stroke-width="1.5" stroke-linecap="round" stroke-linejoin="round"/> <path d="M12 14.2305V21.7605" stroke="white" stroke-width="1.5" stroke-linecap="round" stroke-linejoin="round"/> <path d="M8.66 21.75H15.33" stroke="white" stroke-width="1.5" stroke-linecap="round" stroke-linejoin="round"/> </g> <defs> <clipPath id="clip0_2085_382484"> <rect width="24" height="24" fill="white"/> </clipPath> </defs> </svg>
