<svg width="24" height="24" viewBox="0 0 24 24" fill="none" xmlns="http://www.w3.org/2000/svg"> <g clip-path="url(#clip0_4482_12491)"> <path d="M16.6997 22H7.29973C4.35973 22 1.96973 19.61 1.96973 16.67V12.04C1.96973 10.63 2.52973 9.27 3.52973 8.27L8.22973 3.56C10.3097 1.48 13.6897 1.48 15.7697 3.56L20.4697 8.26C21.4697 9.26 22.0297 10.62 22.0297 12.03V16.66C22.0297 19.6 19.6397 21.99 16.6997 21.99V22Z" stroke="white" stroke-width="1.5" stroke-linecap="round" stroke-linejoin="round"/> <path d="M9.92969 11.8996V10.6696C9.92969 9.51961 10.8597 8.59961 11.9997 8.59961C13.1397 8.59961 14.0697 9.52961 14.0697 10.6696V11.8996" stroke="white" stroke-width="1.5" stroke-linejoin="round"/> <path d="M13.9598 11.6797H10.0498C8.96984 11.6797 8.08984 12.5597 8.08984 13.6397V15.4497C8.08984 16.5297 8.96984 17.4097 10.0498 17.4097H13.9598C15.0398 17.4097 15.9198 16.5297 15.9198 15.4497V13.6397C15.9198 12.5597 15.0398 11.6797 13.9598 11.6797Z" stroke="white" stroke-width="1.5" stroke-linejoin="round"/> </g> <defs> <clipPath id="clip0_4482_12491"> <rect width="24" height="24" fill="white"/> </clipPath> </defs> </svg>
