<svg width="24" height="24" viewBox="0 0 24 24" fill="none" xmlns="http://www.w3.org/2000/svg"> <g clip-path="url(#clip0_2085_391013)"> <path d="M13.5 21.7098L18.41 18.9098C19.6 18.2298 20.41 17.0398 20.6 15.6798L21.83 7.0798C22.21 4.3998 20.14 2.0098 17.43 2.0098H6.32C3.62 1.9998 1.54 4.3998 1.92 7.0698L3.13 15.5098C3.34 16.9598 4.24 18.2098 5.56 18.8598L11.42 21.7598C12.08 22.0898 12.87 22.0698 13.51 21.6998L13.5 21.7098Z" stroke="white" stroke-width="1.5" stroke-linecap="round" stroke-linejoin="round"/> <path d="M7.43 14.2195L7.55 15.0795L11.87 17.5495L16.19 15.0795L16.79 10.8795H6.95L6.32 6.43945H17.43" stroke="white" stroke-width="1.5" stroke-linecap="round" stroke-linejoin="round"/> </g> <defs> <clipPath id="clip0_2085_391013"> <rect width="24" height="24" fill="white"/> </clipPath> </defs> </svg>
