<svg width="24" height="24" viewBox="0 0 24 24" fill="none" xmlns="http://www.w3.org/2000/svg"> <g clip-path="url(#clip0_4482_12496)"> <path d="M16.4498 10.8799H7.5498" stroke="white" stroke-width="1.5" stroke-linecap="round" stroke-linejoin="round"/> <path d="M9.4998 15.9996C10.3006 15.9996 10.9498 15.3504 10.9498 14.5496C10.9498 13.7488 10.3006 13.0996 9.4998 13.0996C8.69899 13.0996 8.0498 13.7488 8.0498 14.5496C8.0498 15.3504 8.69899 15.9996 9.4998 15.9996Z" stroke="white" stroke-width="1.5" stroke-linecap="round" stroke-linejoin="round"/> <path d="M14.43 15.9996C15.2308 15.9996 15.88 15.3504 15.88 14.5496C15.88 13.7488 15.2308 13.0996 14.43 13.0996C13.6292 13.0996 12.98 13.7488 12.98 14.5496C12.98 15.3504 13.6292 15.9996 14.43 15.9996Z" stroke="white" stroke-width="1.5" stroke-linecap="round" stroke-linejoin="round"/> <path d="M12.9797 14.3496H10.9497" stroke="white" stroke-width="1.5" stroke-linecap="round" stroke-linejoin="round"/> <path d="M8.87988 10.8799L9.39988 7.76988C9.48988 7.25988 9.92988 6.87988 10.4499 6.87988H13.5399C14.0599 6.87988 14.5099 7.25988 14.5899 7.76988L15.1099 10.8799" stroke="white" stroke-width="1.5" stroke-linecap="round" stroke-linejoin="round"/> <path d="M20.9101 6.72957V11.1196C20.9101 15.9996 17.3401 20.5896 12.5101 21.9296C12.1801 22.0196 11.8201 22.0196 11.4801 21.9296C6.62008 20.5896 3.08008 15.9996 3.08008 11.1196V6.72957C3.08008 5.90957 3.70008 4.96957 4.46008 4.67957L10.0301 2.37957C11.2801 1.86957 12.7001 1.86957 13.9501 2.37957L17.8701 3.97957L19.5201 4.66957C20.2801 4.95957 20.9001 5.89957 20.9001 6.71957H20.9101V6.72957Z" stroke="white" stroke-width="1.5" stroke-linecap="round" stroke-linejoin="round"/> </g> <defs> <clipPath id="clip0_4482_12496"> <rect width="24" height="24" fill="white"/> </clipPath> </defs> </svg>
