<svg width="24" height="24" viewBox="0 0 24 24" fill="none" xmlns="http://www.w3.org/2000/svg"> <g clip-path="url(#clip0_4482_7686)"> <path d="M12 4V6.22" stroke="white" stroke-width="1.5" stroke-linecap="round" stroke-linejoin="round"/> <path d="M19.7798 14H21.9998" stroke="white" stroke-width="1.5" stroke-linecap="round" stroke-linejoin="round"/> <path d="M2 14H4.22" stroke="white" stroke-width="1.5" stroke-linecap="round" stroke-linejoin="round"/> <path d="M13.5698 11.32C14.4398 12.19 14.4398 13.59 13.5698 14.46C12.6998 15.33 11.2998 15.33 10.4298 14.46C9.55984 13.59 9.55984 12.19 10.4298 11.32C11.2998 10.45 12.6998 10.45 13.5698 11.32Z" stroke="white" stroke-width="1.5" stroke-linecap="round" stroke-linejoin="round"/> <path d="M12 4V6.22" stroke="white" stroke-width="1.5" stroke-linecap="round" stroke-linejoin="round"/> <path d="M21.9998 14H19.7798" stroke="white" stroke-width="1.5" stroke-linecap="round" stroke-linejoin="round"/> <path d="M4.22 14H2" stroke="white" stroke-width="1.5" stroke-linecap="round" stroke-linejoin="round"/> <path d="M15.7898 9.09998L13.5698 11.32" stroke="white" stroke-width="1.5" stroke-linecap="round" stroke-linejoin="round"/> <path d="M13.5698 11.32C14.4398 12.19 14.4398 13.59 13.5698 14.46C12.6998 15.33 11.2998 15.33 10.4298 14.46C9.55984 13.59 9.55984 12.19 10.4298 11.32C11.2998 10.45 12.6998 10.45 13.5698 11.32Z" stroke="white" stroke-width="1.5" stroke-linecap="round" stroke-linejoin="round"/> <path d="M3.68998 19.56C2.41998 17.67 1.77998 15.31 2.06998 12.8C2.55998 8.58004 6.66998 4.51004 10.9 4.06004C16.92 3.42004 22 8.12004 22 14C22 16.06 21.38 17.97 20.31 19.56H3.68998Z" stroke="white" stroke-width="1.5" stroke-linecap="round" stroke-linejoin="round"/> </g> <defs> <clipPath id="clip0_4482_7686"> <rect width="24" height="24" fill="white"/> </clipPath> </defs> </svg>
