<svg width="24" height="24" viewBox="0 0 24 24" fill="none" xmlns="http://www.w3.org/2000/svg"> <g clip-path="url(#clip0_2085_386625)"> <path d="M11.11 8.95996H12.85" stroke="white" stroke-width="1.5" stroke-linecap="round" stroke-linejoin="round"/> <path d="M11.11 10.7002H12.85" stroke="white" stroke-width="1.5" stroke-linecap="round" stroke-linejoin="round"/> <path d="M11.11 12.4302H12.85" stroke="white" stroke-width="1.5" stroke-linecap="round" stroke-linejoin="round"/> <path d="M5.02998 1.99998C5.71998 1.99998 6.38998 2.26998 6.86998 2.75998C7.35998 3.24998 7.62998 3.90998 7.62998 4.59998V16.77C7.62998 19.65 10.67 21.99 13.72 21.99C16.77 21.99 19.81 19.65 19.81 16.77V13.73C19.81 13.5 19.87 13.27 19.99 13.07C20.11 12.87 20.28 12.7 20.49 12.59C20.55 12.56 20.6 12.51 20.64 12.46C20.68 12.4 20.7 12.34 20.71 12.27C20.71 12.2 20.71 12.14 20.69 12.07C20.67 12.01 20.63 11.95 20.58 11.9L15.33 6.64998C15.27 6.58998 15.19 6.54998 15.11 6.52998C15.03 6.50998 14.94 6.52998 14.86 6.54998C14.78 6.57998 14.71 6.63998 14.67 6.70998C14.62 6.77998 14.6 6.86998 14.6 6.94998V14.16C14.6 14.51 14.46 14.84 14.22 15.08C13.97 15.32 13.64 15.46 13.3 15.46C12.96 15.46 12.62 15.32 12.38 15.08C12.14 14.84 12 14.5 12 14.16V7.19998C12 4.31998 7.91998 1.97998 5.03998 1.97998L5.02998 1.99998ZM5.02998 1.99998H3.28998" stroke="white" stroke-width="1.5" stroke-linecap="round" stroke-linejoin="round"/> <path d="M5.89003 2.07C5.61003 2.03 5.32003 2 5.03003 2C5.33003 2 5.62003 2.06 5.90003 2.16V2.07H5.89003Z" stroke="white" stroke-width="1.5" stroke-linecap="round" stroke-linejoin="round"/> </g> <defs> <clipPath id="clip0_2085_386625"> <rect width="24" height="24" fill="white"/> </clipPath> </defs> </svg>
