<svg width="24" height="24" viewBox="0 0 24 24" fill="none" xmlns="http://www.w3.org/2000/svg"> <g clip-path="url(#clip0_2085_382391)"> <path d="M18.55 5.3399L21.99 1.8999" stroke="white" stroke-width="1.5" stroke-linecap="round" stroke-linejoin="round"/> <path d="M18.42 18.5298L22 22.1098" stroke="white" stroke-width="1.5" stroke-linecap="round" stroke-linejoin="round"/> <path d="M5.54 5.4399L2 1.8999" stroke="white" stroke-width="1.5" stroke-linecap="round" stroke-linejoin="round"/> <path d="M5.56 18.54L2 22.1" stroke="white" stroke-width="1.5" stroke-linecap="round" stroke-linejoin="round"/> <path d="M5.1 1.8999H2V4.9999" stroke="white" stroke-width="1.5" stroke-linecap="round" stroke-linejoin="round"/> <path d="M2 19.0098V22.0998H5.1" stroke="white" stroke-width="1.5" stroke-linecap="round" stroke-linejoin="round"/> <path d="M18.9 22.0998H22V19.0098" stroke="white" stroke-width="1.5" stroke-linecap="round" stroke-linejoin="round"/> <path d="M22 4.9899V1.8999H18.9" stroke="white" stroke-width="1.5" stroke-linecap="round" stroke-linejoin="round"/> <path d="M13.87 11.9799C13.87 13.0099 13.04 13.8499 12 13.8499C10.96 13.8499 10.13 13.0199 10.13 11.9799C10.13 10.9399 10.96 10.1099 12 10.1099C13.04 10.1099 13.87 10.9399 13.87 11.9799Z" stroke="white" stroke-width="1.5" stroke-linecap="round" stroke-linejoin="round"/> <path d="M12 17.1498C14.16 17.1498 16.18 15.8698 17.59 13.6698C18.14 12.8098 18.14 11.3498 17.59 10.4898C16.19 8.27977 14.17 7.00977 12 7.00977C9.83 7.00977 7.82 8.28977 6.41 10.4898C5.86 11.3498 5.86 12.8098 6.41 13.6698C7.81 15.8798 9.83 17.1498 12 17.1498Z" stroke="white" stroke-width="1.5" stroke-linecap="round" stroke-linejoin="round"/> </g> <defs> <clipPath id="clip0_2085_382391"> <rect width="24" height="24" fill="white"/> </clipPath> </defs> </svg>
