<svg width="24" height="24" viewBox="0 0 24 24" fill="none" xmlns="http://www.w3.org/2000/svg"> <g clip-path="url(#clip0_2085_390948)"> <path d="M16.13 8.22953H7.85999C8.28999 6.00953 9.54999 4.01953 11.42 2.68953L12 2.26953L12.58 2.68953C14.45 4.01953 15.71 6.00953 16.13 8.22953Z" stroke="white" stroke-width="1.5" stroke-linecap="round" stroke-linejoin="round"/> <path d="M16.13 8.22949H7.86001C7.76001 8.77949 7.70001 9.33949 7.70001 9.90949V11.9195H7.71001V18.0495H16.29V9.90949C16.29 9.33949 16.23 8.77949 16.13 8.22949ZM12 14.9795C10.98 14.9795 10.16 14.1495 10.16 13.1395C10.16 12.1295 10.98 11.2995 12 11.2995C13.02 11.2995 13.84 12.1195 13.84 13.1395C13.84 14.1595 13.02 14.9795 12 14.9795Z" stroke="white" stroke-width="1.5" stroke-linecap="round" stroke-linejoin="round"/> <path d="M10.16 13.1398C10.16 12.1198 10.98 11.2998 12 11.2998C13.02 11.2998 13.84 12.1198 13.84 13.1398C13.84 14.1598 13.02 14.9798 12 14.9798C10.98 14.9798 10.16 14.1498 10.16 13.1398Z" stroke="white" stroke-width="1.5" stroke-linecap="round" stroke-linejoin="round"/> <path d="M16.29 18.0492V20.4992H7.70001V11.9192L7.71001 11.9092V18.0492H16.29Z" stroke="white" stroke-width="1.5" stroke-linecap="round" stroke-linejoin="round"/> <path d="M13.84 13.1398C13.84 14.1498 13.02 14.9798 12 14.9798C10.98 14.9798 10.16 14.1498 10.16 13.1398C10.16 12.1298 10.98 11.2998 12 11.2998C13.02 11.2998 13.84 12.1198 13.84 13.1398Z" stroke="white" stroke-width="1.5" stroke-linecap="round" stroke-linejoin="round"/> <path d="M7.71001 18.0498H7.70001" stroke="white" stroke-width="1.5" stroke-linecap="round" stroke-linejoin="round"/> <path d="M8.92999 5.7793H15.06" stroke="white" stroke-width="1.5" stroke-linecap="round" stroke-linejoin="round"/> <path d="M19.36 14.3692V19.2692H16.29V11.9092L19.36 14.3692Z" stroke="white" stroke-width="1.5" stroke-linecap="round" stroke-linejoin="round"/> <path d="M21.82 19.2692H19.37V14.8692C19.37 13.7592 19.81 12.6892 20.6 11.9092C21.39 12.6992 21.83 13.7592 21.83 14.8692V19.2692H21.82Z" stroke="white" stroke-width="1.5" stroke-linecap="round" stroke-linejoin="round"/> <path d="M21.81 19.2695H16.29V21.7195H21.81V19.2695Z" stroke="white" stroke-width="1.5" stroke-linecap="round" stroke-linejoin="round"/> <path d="M19.36 16.8193H21.81" stroke="white" stroke-width="1.5" stroke-linecap="round" stroke-linejoin="round"/> <path d="M21 3.99934V3.31934" stroke="white" stroke-width="1.5" stroke-linecap="round" stroke-linejoin="round"/> <path d="M21 6.67902V5.99902" stroke="white" stroke-width="1.5" stroke-linecap="round" stroke-linejoin="round"/> <path d="M3 3.99934V3.31934" stroke="white" stroke-width="1.5" stroke-linecap="round" stroke-linejoin="round"/> <path d="M3 6.67902V5.99902" stroke="white" stroke-width="1.5" stroke-linecap="round" stroke-linejoin="round"/> <path d="M7.70995 11.9092V19.2692H4.63995V14.3692L7.69995 11.9192L7.70995 11.9092Z" stroke="white" stroke-width="1.5" stroke-linecap="round" stroke-linejoin="round"/> <path d="M2.17998 19.2692H4.62998V14.8692C4.62998 13.7592 4.18998 12.6892 3.39998 11.9092C2.60998 12.6992 2.16998 13.7592 2.16998 14.8692V19.2692H2.17998Z" stroke="white" stroke-width="1.5" stroke-linecap="round" stroke-linejoin="round"/> <path d="M2.17999 21.7293H7.69999V19.2793H2.17999V21.7293Z" stroke="white" stroke-width="1.5" stroke-linecap="round" stroke-linejoin="round"/> <path d="M4.64 16.8193H2.19" stroke="white" stroke-width="1.5" stroke-linecap="round" stroke-linejoin="round"/> </g> <defs> <clipPath id="clip0_2085_390948"> <rect width="24" height="24" fill="white"/> </clipPath> </defs> </svg>
