<svg width="24" height="24" viewBox="0 0 24 24" fill="none" xmlns="http://www.w3.org/2000/svg"> <g clip-path="url(#clip0_2085_382269)"> <path d="M12 19.5V21.9999" stroke="white" stroke-width="1.5" stroke-linecap="round"/> <path d="M14.57 1.99999H9.42C8.51 1.99999 7.64 2.35999 6.99 3.00999C6.35 3.64999 5.98 4.52999 5.98 5.43999V14.02C5.98 14.93 6.34 15.8 6.99 16.45C7.63 17.09 8.51 17.46 9.42 17.46V19.18H14.57V17.46C15.48 17.46 16.35 17.1 17 16.45C17.64 15.81 18.01 14.93 18.01 14.02V5.42999C18.01 4.51999 17.65 3.64999 17 2.99999C16.36 2.35999 15.48 1.98999 14.57 1.98999V1.99999Z" stroke="white" stroke-width="1.5" stroke-linecap="round" stroke-linejoin="round"/> <path d="M13.91 7.72989C13.91 8.20989 13.73 8.66989 13.36 9.00989C13 9.34989 12.51 9.53989 11.99 9.53989C11.47 9.53989 10.98 9.34989 10.62 9.00989C10.26 8.66989 10.05 8.20989 10.05 7.72989C10.05 6.19989 11.71 4.38989 11.98 4.38989C12.25 4.38989 13.91 6.18989 13.91 7.72989Z" stroke="white" stroke-width="1.5" stroke-linecap="round" stroke-linejoin="round"/> <path d="M5.99001 11.7301C10.52 10.0101 13.96 13.6301 18 12.6801" stroke="white" stroke-width="1.5" stroke-linecap="round"/> </g> <defs> <clipPath id="clip0_2085_382269"> <rect width="24" height="24" fill="white"/> </clipPath> </defs> </svg>
