<svg width="24" height="24" viewBox="0 0 24 24" fill="none" xmlns="http://www.w3.org/2000/svg"> <g clip-path="url(#clip0_2085_391017)"> <path d="M6.17001 10.3302C4.96001 10.7402 4.22001 11.3002 4.22001 11.9202C4.22001 12.7702 5.61001 13.5102 7.66001 13.8902M14.22 17.3702C13.54 17.4902 12.79 17.5602 12 17.5602C8.93001 17.5602 6.44001 16.5502 6.44001 15.3102C6.44001 14.7702 6.90001 14.2902 7.66001 13.9002C8.62001 14.0802 9.72001 14.1802 10.89 14.1802C12.6 14.1802 14.15 13.9602 15.33 13.6102M16.44 10.1202C15.03 10.5402 13.06 10.8002 10.88 10.8002C6.58001 10.8002 3.10001 9.7902 3.10001 8.5502C3.10001 7.5902 5.18001 6.7702 8.10001 6.4502" stroke="white" stroke-width="1.5" stroke-linecap="round" stroke-linejoin="round"/> <path d="M22 19.0704C22 20.6904 17.52 22.0004 12 22.0004C6.48 22.0004 2 20.6904 2 19.0704C2 17.9204 3.71 16.9204 7 16.4404" stroke="white" stroke-width="1.5" stroke-linecap="round" stroke-linejoin="round"/> <path d="M18.76 8.79018C22.98 7.70018 23.58 14.2602 17.56 16.4502" stroke="white" stroke-width="1.5" stroke-linecap="round" stroke-linejoin="round"/> <path d="M17.56 2C16.82 2.12 15.43 2.81 15.78 4.59C16.14 6.37 15.63 7.31 15.34 7.55" stroke="white" stroke-width="1.5" stroke-linecap="round" stroke-linejoin="round"/> <path d="M13.11 2C12.37 2.15 10.98 2.98 11.33 5.11C11.68 7.24 11.18 7.81 10.89 8.11" stroke="white" stroke-width="1.5" stroke-linecap="round" stroke-linejoin="round"/> </g> <defs> <clipPath id="clip0_2085_391017"> <rect width="24" height="24" fill="white"/> </clipPath> </defs> </svg>
