<svg width="24" height="24" viewBox="0 0 24 24" fill="none" xmlns="http://www.w3.org/2000/svg"> <g clip-path="url(#clip0_2085_386817)"> <path d="M15.43 5.43C15.43 7.32 13.9 8.86 12 8.86C10.1 8.86 8.57001 7.33 8.57001 5.43C8.57001 3.53 10.1 2 12 2C13.9 2 15.43 3.53 15.43 5.43Z" stroke="white" stroke-width="1.5" stroke-linecap="round" stroke-linejoin="round"/> <path d="M15.45 4.94043L17.34 12.1404M8.59999 4.94043L6.70999 12.1404M3.17999 21.3404L5.06999 21.8504C5.58999 21.9904 6.12999 21.6804 6.26999 21.1604L8.29999 13.6004C8.43999 13.0804 8.12999 12.5404 7.60999 12.4004L5.71999 11.8904C5.19999 11.7504 4.65999 12.0604 4.51999 12.5804L2.48999 20.1404C2.34999 20.6604 2.65999 21.2004 3.17999 21.3404ZM20.82 21.4604L18.93 21.9704C18.41 22.1104 17.87 21.8004 17.73 21.2804L15.7 13.7204C15.56 13.2004 15.87 12.6604 16.39 12.5204L18.28 12.0104C18.8 11.8704 19.34 12.1804 19.48 12.7004L21.51 20.2604C21.65 20.7804 21.34 21.3204 20.82 21.4604Z" stroke="white" stroke-width="1.5" stroke-linecap="round" stroke-linejoin="round"/> </g> <defs> <clipPath id="clip0_2085_386817"> <rect width="24" height="24" fill="white"/> </clipPath> </defs> </svg>
