<svg width="24" height="24" viewBox="0 0 24 24" fill="none" xmlns="http://www.w3.org/2000/svg"> <g clip-path="url(#clip0_2085_391224)"> <path d="M6.56 21.8791L5.65 21.2191C3.36 19.5491 2 16.8891 2 14.0491C2 11.3891 3.19 8.86914 5.25 7.18914L6.56 6.11914H14.03L15.34 7.18914C17.4 8.86914 18.59 11.3891 18.59 14.0491C18.59 16.8891 17.23 19.5491 14.94 21.2191L14.03 21.8791H6.56Z" stroke="white" stroke-width="1.5" stroke-linecap="round" stroke-linejoin="round"/> <path d="M13.25 3.35965L7.78 2.13965C7.16 1.99965 6.56 2.47965 6.56 3.11965V6.10965H14.03V4.33965C14.03 3.86965 13.7 3.46965 13.25 3.35965Z" stroke="white" stroke-width="1.5" stroke-linecap="round" stroke-linejoin="round"/> <path d="M14.03 6.10938H18.08C18.74 6.10938 19.35 6.43937 19.73 6.96937C21.19 9.00937 21.99 11.4694 21.99 14.0394" stroke="white" stroke-width="1.5" stroke-linecap="round" stroke-linejoin="round"/> <path d="M18.09 11.0898C14.44 11.1598 14.27 11.9198 10.3 11.9198C6.33001 11.9198 6.16001 11.1598 2.51001 11.0898" stroke="white" stroke-width="1.5" stroke-linecap="round" stroke-linejoin="round"/> <path d="M7.39001 19.3896V8.59961" stroke="white" stroke-width="1.5" stroke-linecap="round" stroke-linejoin="round"/> <path d="M7.39001 9.42969H9.05001" stroke="white" stroke-width="1.5" stroke-linecap="round" stroke-linejoin="round"/> <path d="M7.39001 14.4102H9.05001" stroke="white" stroke-width="1.5" stroke-linecap="round" stroke-linejoin="round"/> <path d="M7.39001 16.9004H9.05001" stroke="white" stroke-width="1.5" stroke-linecap="round" stroke-linejoin="round"/> <path d="M7.39001 19.3906H9.05001" stroke="white" stroke-width="1.5" stroke-linecap="round" stroke-linejoin="round"/> </g> <defs> <clipPath id="clip0_2085_391224"> <rect width="24" height="24" fill="white"/> </clipPath> </defs> </svg>
