<svg width="24" height="24" viewBox="0 0 24 24" fill="none" xmlns="http://www.w3.org/2000/svg"> <g clip-path="url(#clip0_4482_157)"> <path d="M10.35 12.53C11.77 14.33 10.95 18.63 14.24 19.89C15.78 20.47 17.55 20.08 18.71 18.97C18.94 18.75 19.15 18.49 19.33 18.21C20.78 15.9 19.75 12.97 17.34 11.99C15.06 11.04 12.46 11.24 10.35 12.53Z" stroke="white" stroke-width="1.5" stroke-linecap="round" stroke-linejoin="round"/> <path d="M15.45 15.3101C17.5 16.5601 18.92 18.6301 19.35 21.0001" stroke="white" stroke-width="1.5" stroke-linecap="round" stroke-linejoin="round"/> <path d="M12 22C6.48 22 2 17.52 2 12C2 6.48 6.48 2 12 2C17.52 2 22 6.48 22 12" stroke="white" stroke-width="1.5" stroke-miterlimit="10" stroke-linecap="round"/> </g> <defs> <clipPath id="clip0_4482_157"> <rect width="24" height="24" fill="white"/> </clipPath> </defs> </svg>
