<svg width="24" height="24" viewBox="0 0 24 24" fill="none" xmlns="http://www.w3.org/2000/svg"> <g clip-path="url(#clip0_2085_391309)"> <path d="M6.58 7.18945L2.16 11.6095C2.11 11.6595 2.06 11.7195 2.03 11.7895C2 11.8595 1.99 11.9295 1.99 12.0095C1.99 12.0895 2.01 12.1595 2.03 12.2295C2.06 12.2995 2.1 12.3595 2.16 12.4095L6.58 16.8295" stroke="white" stroke-width="1.71" stroke-linecap="round" stroke-linejoin="round"/> <path d="M17.41 7.18945L21.83 11.6095C21.88 11.6595 21.93 11.7195 21.96 11.7895C21.99 11.8595 22 11.9295 22 12.0095C22 12.0895 21.98 12.1595 21.96 12.2295C21.93 12.2995 21.89 12.3595 21.83 12.4095L17.41 16.8295" stroke="white" stroke-width="1.71" stroke-linecap="round" stroke-linejoin="round"/> <path d="M12 22V2" stroke="white" stroke-width="1.71" stroke-linecap="round" stroke-linejoin="round"/> </g> <defs> <clipPath id="clip0_2085_391309"> <rect width="24" height="24" fill="white"/> </clipPath> </defs> </svg>
