<svg width="24" height="24" viewBox="0 0 24 24" fill="none" xmlns="http://www.w3.org/2000/svg"> <g clip-path="url(#clip0_2085_382251)"> <path d="M9.43001 16.8599C9.43001 14.8099 7.77001 13.1499 5.72001 13.1499C3.67001 13.1499 2.01001 14.8099 2.01001 16.8599C2.01001 18.9099 3.67001 20.5699 5.72001 20.5699C6.70001 20.5699 7.65001 20.1799 8.35001 19.4799C9.05001 18.7799 9.44001 17.8399 9.44001 16.8499L9.43001 16.8599Z" stroke="white" stroke-width="1.5" stroke-linecap="round" stroke-linejoin="round"/> <path d="M22 18C22 20.21 20.21 22 18 22C15.79 22 14 20.21 14 18C14 16.5 14.4 15.03 15.18 13.75L16.26 11.96C17.03 10.68 17.44 9.21 17.44 7.71C17.44 4.56 14.88 2 11.72 2C8.57001 2 6.01001 4.56 6.01001 7.71C6.01001 9.06 6.42001 10.37 7.19001 11.48L8.26001 13.07C9.02001 14.18 9.43001 15.5 9.44001 16.84" stroke="white" stroke-width="1.5" stroke-linecap="round" stroke-linejoin="round"/> </g> <defs> <clipPath id="clip0_2085_382251"> <rect width="24" height="24" fill="white"/> </clipPath> </defs> </svg>
