<svg width="24" height="24" viewBox="0 0 24 24" fill="none" xmlns="http://www.w3.org/2000/svg"> <g clip-path="url(#clip0_2085_391070)"> <path d="M14.9 10.7998H8.26001" stroke="white" stroke-width="1.5" stroke-linecap="round" stroke-linejoin="round"/> <path d="M14.9 13.29H8.26001" stroke="white" stroke-width="1.5" stroke-linecap="round" stroke-linejoin="round"/> <path d="M20.71 11.6299V19.9999C20.71 21.0999 19.81 21.9999 18.71 21.9999H4.46002C3.36002 21.9999 2.46002 21.0999 2.46002 19.9999V11.6299L5.78002 14.0399L9.13002 16.4799C9.11002 16.5799 9.10002 16.6799 9.10002 16.7799C9.10002 18.3599 11.59 19.6299 11.59 19.6299C11.59 19.6299 14.07 18.3599 14.07 16.7799C14.07 16.6799 14.06 16.5799 14.04 16.4799L17.39 14.0399L20.7 11.6299H20.71Z" stroke="white" stroke-width="1.5" stroke-linecap="round" stroke-linejoin="round"/> <path d="M14.63 5.82047L12.28 3.57047C11.89 3.20047 11.29 3.20047 10.9 3.57047L9.69 4.73047" stroke="white" stroke-width="1.5" stroke-linecap="round" stroke-linejoin="round"/> <path d="M10.34 8.30957H12.83" stroke="white" stroke-width="1.5" stroke-linecap="round" stroke-linejoin="round"/> <path d="M20.12 21.41L14.02 17.21" stroke="white" stroke-width="1.5" stroke-linecap="round" stroke-linejoin="round"/> <path d="M9.16005 17.21L3.36005 21.53" stroke="white" stroke-width="1.5" stroke-linecap="round" stroke-linejoin="round"/> <path d="M16.97 5.82031H9.90002" stroke="white" stroke-width="1.5" stroke-linecap="round" stroke-linejoin="round"/> <path d="M5.78003 14.0404V8.46039V7.15039" stroke="white" stroke-width="1.5" stroke-linecap="round" stroke-linejoin="round"/> <path d="M17.4 14.0399V8.46992V6.17992V6.16992" stroke="white" stroke-width="1.5" stroke-linecap="round" stroke-linejoin="round"/> <path d="M17.39 8.45996L17.4 8.46996L20.71 11.63" stroke="white" stroke-width="1.5" stroke-linecap="round" stroke-linejoin="round"/> <path d="M8.5 4.09961C8.07 4.09961 7.69 4.28961 7.43 4.58961C7.17 4.28961 6.79 4.09961 6.36 4.09961C5.57 4.09961 4.94 4.73961 4.94 5.51961C4.94 7.08961 7.43 8.36961 7.43 8.36961C7.43 8.36961 9.92 7.09961 9.92 5.51961C9.92 4.72961 9.28 4.09961 8.5 4.09961Z" stroke="white" stroke-width="1.5" stroke-linecap="round" stroke-linejoin="round"/> <path d="M19.88 2C19.38 2 18.94 2.22 18.64 2.57C18.34 2.22 17.89 2 17.39 2C16.47 2 15.73 2.74 15.73 3.66C15.73 5.49 18.64 6.98 18.64 6.98C18.64 6.98 21.54 5.49 21.54 3.66C21.54 2.74 20.8 2 19.88 2Z" stroke="white" stroke-width="1.5" stroke-linecap="round" stroke-linejoin="round"/> <path d="M5.78002 8.45996L2.46002 11.63" stroke="white" stroke-width="1.5" stroke-linecap="round" stroke-linejoin="round"/> <path d="M14.07 16.7804C14.07 18.3604 11.59 19.6304 11.59 19.6304C11.59 19.6304 9.10004 18.3604 9.10004 16.7804C9.10004 16.6804 9.10004 16.5804 9.13004 16.4804C9.27004 15.8404 9.83004 15.3604 10.52 15.3604C10.95 15.3604 11.32 15.5504 11.59 15.8504C11.85 15.5504 12.23 15.3604 12.65 15.3604C13.34 15.3604 13.9 15.8404 14.04 16.4804C14.06 16.5804 14.07 16.6804 14.07 16.7804Z" stroke="white" stroke-width="1.5" stroke-linecap="round" stroke-linejoin="round"/> </g> <defs> <clipPath id="clip0_2085_391070"> <rect width="24" height="24" fill="white"/> </clipPath> </defs> </svg>
