<svg width="24" height="24" viewBox="0 0 24 24" fill="none" xmlns="http://www.w3.org/2000/svg"> <g clip-path="url(#clip0_2085_386826)"> <path d="M2.72999 3.95C2.72999 3.95 5.65999 3.46 12 3.46C18.34 3.46 21.27 3.95 21.27 3.95M2.23999 2L2.72999 5.9M21.27 5.9L21.76 2M18.83 4.44C18.83 7.85 15.9 12.73 12 12.73C8.09999 12.73 5.16999 7.85 5.16999 4.44M10.54 12.73V17.12C7.60999 14.68 4.09999 13.76 8.58999 22H6.63999M13.46 12.73V17.12C16.39 14.68 19.9 13.76 15.41 22H17.36M13.91 8.28C13.91 9.36 13.04 10.23 11.96 10.23C10.88 10.23 10.01 9.36 10.01 8.28C10.01 7.2 10.88 6.33 11.96 6.33C13.04 6.33 13.91 7.2 13.91 8.28Z" stroke="white" stroke-width="1.5" stroke-linecap="round" stroke-linejoin="round"/> </g> <defs> <clipPath id="clip0_2085_386826"> <rect width="24" height="24" fill="white"/> </clipPath> </defs> </svg>
