<svg width="24" height="24" viewBox="0 0 24 24" fill="none" xmlns="http://www.w3.org/2000/svg"> <g clip-path="url(#clip0_4482_7649)"> <path d="M13.6801 8.31994C14.6101 9.24994 14.6101 10.7499 13.6801 11.6799C12.7501 12.6099 11.2501 12.6099 10.3201 11.6799C9.39006 10.7499 9.39006 9.24994 10.3201 8.31994C11.2501 7.38994 12.7601 7.38994 13.6801 8.31994Z" stroke="white" stroke-width="1.5" stroke-linecap="round" stroke-linejoin="round"/> <path d="M19.7802 9.69995C19.7802 11.8099 18.8402 13.8199 17.2202 15.1699L14.6702 17.2999C13.6502 18.1499 12.8902 19.2599 12.4702 20.5199L12.0002 21.9299L11.5302 20.5199C11.1102 19.2599 10.3502 18.1499 9.33021 17.2999L6.78022 15.1699C5.16022 13.8199 4.22021 11.8099 4.22021 9.69995V9.73995C4.22021 4.87995 8.24022 2.06995 12.0002 2.06995C15.7602 2.06995 19.7802 4.88995 19.7802 9.73995" stroke="white" stroke-width="1.5" stroke-linecap="round" stroke-linejoin="round"/> </g> <defs> <clipPath id="clip0_4482_7649"> <rect width="24" height="24" fill="white"/> </clipPath> </defs> </svg>
