<svg width="24" height="24" viewBox="0 0 24 24" fill="none" xmlns="http://www.w3.org/2000/svg"> <g clip-path="url(#clip0_4482_10252)"> <path d="M22 17.9999V10.5199C22 9.29988 21.45 8.15988 20.5 7.39988L15.12 3.09988C13.29 1.63988 10.7 1.63988 8.87 3.09988L3.5 7.39988C2.55 8.15988 2 9.30988 2 10.5199V17.9999C2 20.2099 3.79 21.9999 6 21.9999H18C20.21 21.9999 22 20.2099 22 17.9999Z" stroke="white" stroke-width="1.5" stroke-linecap="round" stroke-linejoin="round"/> <path d="M13.98 18.0001H10.02C8.66004 18.0001 7.54004 16.8901 7.54004 15.5301V13.0501C7.54004 11.6901 8.65004 10.5801 10.02 10.5801H13.98C15.34 10.5801 16.46 11.6901 16.46 13.0501V15.5301C16.46 16.8901 15.35 18.0001 13.98 18.0001Z" stroke="white" stroke-width="1.5" stroke-linecap="round" stroke-linejoin="round"/> <path d="M9.3999 11.07V9.6C9.3999 8.16 10.5699 7 11.9999 7C13.4299 7 14.5999 8.17 14.5999 9.6V11.07" stroke="white" stroke-width="1.5" stroke-linecap="round" stroke-linejoin="round"/> </g> <defs> <clipPath id="clip0_4482_10252"> <rect width="24" height="24" fill="white"/> </clipPath> </defs> </svg>
