<svg width="24" height="24" viewBox="0 0 24 24" fill="none" xmlns="http://www.w3.org/2000/svg"> <g clip-path="url(#clip0_2085_391078)"> <path d="M5.53 18.2195C5.31 18.9995 4.95 19.7395 4.49 20.3895C3.99 21.0895 4.58 22.0495 5.43 21.9495C5.75 21.9095 6.07 21.8495 6.39 21.7695C9.38 21.0195 11.54 18.5595 11.94 15.5095C12.13 14.0595 11.9 12.6695 11.36 11.4595C10.87 10.3495 9.8 9.63953 8.59 9.52953C8.48 9.52953 8.38 9.51953 8.27 9.51953C8.25 9.51953 8.23 9.51953 8.22 9.51953C6.02 9.54953 4.58 11.8995 5.35 13.9595C5.42 14.1295 5.47 14.3095 5.52 14.4895" stroke="white" stroke-width="1.5" stroke-linecap="round" stroke-linejoin="round"/> <path d="M18.63 18.2195C18.85 18.9995 19.21 19.7395 19.67 20.3895C20.17 21.0895 19.58 22.0495 18.73 21.9495C18.41 21.9095 18.09 21.8495 17.77 21.7695C14.78 21.0195 12.62 18.5595 12.22 15.5095C12.03 14.0595 12.26 12.6695 12.8 11.4595C13.29 10.3495 14.36 9.63953 15.57 9.52953C15.68 9.52953 15.78 9.51953 15.89 9.51953C15.91 9.51953 15.93 9.51953 15.94 9.51953C18.14 9.54953 19.58 11.8995 18.81 13.9595C18.74 14.1295 18.69 14.3095 18.64 14.4895" stroke="white" stroke-width="1.5" stroke-linecap="round" stroke-linejoin="round"/> <path d="M7.03001 17.8398C6.53001 18.0698 5.99001 18.1998 5.43001 18.2198C3.55001 18.2898 2.01001 16.6998 2.01001 14.8198V14.7798C2.01001 14.1798 2.64001 13.8198 3.19001 14.0798C3.77001 14.3498 4.41001 14.4998 5.06001 14.4998H7.03001" stroke="white" stroke-width="1.5" stroke-linecap="round" stroke-linejoin="round"/> <path d="M16.98 17.84C17.48 18.07 18.03 18.2 18.59 18.22C20.46 18.28 21.99 16.69 21.99 14.82V14.77C21.99 14.17 21.36 13.81 20.81 14.07C20.23 14.34 19.59 14.49 18.94 14.49H16.97" stroke="white" stroke-width="1.5" stroke-linecap="round" stroke-linejoin="round"/> <path d="M10.18 10.0995L12.01 8.26953L13.83 10.0895" stroke="white" stroke-width="1.5" stroke-linecap="round" stroke-linejoin="round"/> <path d="M11.98 3.56C11.98 3.56 12.43 2 13.85 2C14.96 2 15.72 2.89 15.72 3.95C15.72 5.41 14.2 6.4 11.99 8.25C9.78001 6.41 8.26001 5.41 8.26001 3.95C8.26001 2.89 9.02001 2 10.13 2C11.55 2 12 3.56 12 3.56H11.98Z" stroke="white" stroke-width="1.5" stroke-linecap="round" stroke-linejoin="round"/> <path d="M8.89002 11.9999C8.89002 12.3399 8.61002 12.6199 8.27002 12.6199C7.93002 12.6199 7.65002 12.3399 7.65002 11.9999C7.65002 11.6599 7.93002 11.3799 8.27002 11.3799C8.61002 11.3799 8.89002 11.6599 8.89002 11.9999Z" fill="white"/> <path d="M16.36 11.9999C16.36 12.3399 16.08 12.6199 15.74 12.6199C15.4 12.6199 15.12 12.3399 15.12 11.9999C15.12 11.6599 15.4 11.3799 15.74 11.3799C16.08 11.3799 16.36 11.6599 16.36 11.9999Z" fill="white"/> </g> <defs> <clipPath id="clip0_2085_391078"> <rect width="24" height="24" fill="white"/> </clipPath> </defs> </svg>
