<svg width="24" height="24" viewBox="0 0 24 24" fill="none" xmlns="http://www.w3.org/2000/svg"> <g clip-path="url(#clip0_4482_15356)"> <path d="M13.3302 15.3302H10.6602C9.56016 15.3302 8.66016 14.4302 8.66016 13.3302V10.6602C8.66016 9.56016 9.56016 8.66016 10.6602 8.66016H13.3302C14.4302 8.66016 15.3302 9.56016 15.3302 10.6602V13.3302C15.3302 14.4302 14.4302 15.3302 13.3302 15.3302Z" stroke="white" stroke-width="1.5" stroke-linecap="round" stroke-linejoin="round"/> <path d="M17.5596 2H20.9996C21.5496 2 21.9996 2.45 21.9996 3V6.44" stroke="white" stroke-width="1.5" stroke-linecap="round" stroke-linejoin="round"/> <path d="M21 3L18 6" stroke="white" stroke-width="1.5" stroke-linecap="round" stroke-linejoin="round"/> <path d="M6.44 21.9996H3C2.45 21.9996 2 21.5496 2 20.9996V17.5596" stroke="white" stroke-width="1.5" stroke-linecap="round" stroke-linejoin="round"/> <path d="M3 21L6 18" stroke="white" stroke-width="1.5" stroke-linecap="round" stroke-linejoin="round"/> <path d="M2 6.44V3C2 2.45 2.45 2 3 2H6.44" stroke="white" stroke-width="1.5" stroke-linecap="round" stroke-linejoin="round"/> <path d="M3 3L6 6" stroke="white" stroke-width="1.5" stroke-linecap="round" stroke-linejoin="round"/> <path d="M21.9996 17.5596V20.9996C21.9996 21.5496 21.5496 21.9996 20.9996 21.9996H17.5596" stroke="white" stroke-width="1.5" stroke-linecap="round" stroke-linejoin="round"/> <path d="M21 21L18 18" stroke="white" stroke-width="1.5" stroke-linecap="round" stroke-linejoin="round"/> </g> <defs> <clipPath id="clip0_4482_15356"> <rect width="24" height="24" fill="white"/> </clipPath> </defs> </svg>
