<svg width="24" height="24" viewBox="0 0 24 24" fill="none" xmlns="http://www.w3.org/2000/svg">
<path d="M11 18.2695C10.5858 18.2695 10.25 18.6052 10.25 19.0195C10.25 19.4337 10.5858 19.7695 11 19.7695V19.0195V18.2695ZM12.9718 18.9551L12.2818 18.6613V18.6613L12.9718 18.9551ZM14.203 16.0643L14.893 16.3582V16.3582L14.203 16.0643ZM14.415 16.0778L15.1416 15.8921L15.1416 15.8921L14.415 16.0778ZM15.9084 21.9222L15.1818 22.1079L15.1818 22.1079L15.9084 21.9222ZM16.1226 21.9299L16.8306 22.1774V22.1774L16.1226 21.9299ZM17.6055 17.6893L16.8975 17.4418L16.8975 17.4418L17.6055 17.6893ZM17.7968 17.6553L17.2456 18.1639V18.1639L17.7968 17.6553ZM19.0222 18.9833L18.4711 19.492L18.4711 19.492L19.0222 18.9833ZM21 19.7695C21.4142 19.7695 21.75 19.4337 21.75 19.0195C21.75 18.6052 21.4142 18.2695 21 18.2695V19.0195V19.7695ZM14.3787 2.87868L13.8483 3.40901V3.40901L14.3787 2.87868ZM19.1213 7.62132L19.6516 7.09099V7.09099L19.1213 7.62132ZM5.63803 21.673L5.29754 22.3413H5.29754L5.63803 21.673ZM4.32698 20.362L4.99524 20.0215H4.99524L4.32698 20.362ZM4.32698 3.63803L4.99524 3.97852V3.97852L4.32698 3.63803ZM5.63803 2.32698L5.97852 2.99524V2.99524L5.63803 2.32698ZM8 12.75C7.58579 12.75 7.25 13.0858 7.25 13.5C7.25 13.9142 7.58579 14.25 8 14.25V13.5V12.75ZM16 14.25C16.4142 14.25 16.75 13.9142 16.75 13.5C16.75 13.0858 16.4142 12.75 16 12.75V13.5V14.25ZM8 16.25C7.58579 16.25 7.25 16.5858 7.25 17C7.25 17.4142 7.58579 17.75 8 17.75V17V16.25ZM9.5 17.75C9.91421 17.75 10.25 17.4142 10.25 17C10.25 16.5858 9.91421 16.25 9.5 16.25V17V17.75ZM19.7305 8.5L20.4132 8.18935V8.18935L19.7305 8.5ZM12 22.75C12.4142 22.75 12.75 22.4142 12.75 22C12.75 21.5858 12.4142 21.25 12 21.25V22V22.75ZM19.25 15C19.25 15.4142 19.5858 15.75 20 15.75C20.4142 15.75 20.75 15.4142 20.75 15H20H19.25ZM11 19.0195V19.7695H12.8681V19.0195V18.2695H11V19.0195ZM12.9718 18.9551L13.6619 19.249L14.893 16.3582L14.203 16.0643L13.513 15.7705L12.2818 18.6613L12.9718 18.9551ZM14.415 16.0778L13.6883 16.2635L15.1818 22.1079L15.9084 21.9222L16.6351 21.7365L15.1416 15.8921L14.415 16.0778ZM16.1226 21.9299L16.8306 22.1774L18.3134 17.9369L17.6055 17.6893L16.8975 17.4418L15.4147 21.6823L16.1226 21.9299ZM17.7968 17.6553L17.2456 18.1639L18.4711 19.492L19.0222 18.9833L19.5734 18.4747L18.348 17.1467L17.7968 17.6553ZM19.1076 19.0195V19.7695H21V19.0195V18.2695H19.1076V19.0195ZM19.0222 18.9833L18.4711 19.492C18.6434 19.6787 18.8792 19.7695 19.1076 19.7695V19.0195V18.2695C19.27 18.2695 19.4433 18.3338 19.5734 18.4747L19.0222 18.9833ZM17.6055 17.6893L18.3134 17.9369C18.221 18.2013 17.9983 18.328 17.8213 18.3595C17.6439 18.391 17.4149 18.3474 17.2456 18.1639L17.7968 17.6553L18.348 17.1467C18.1224 16.9022 17.811 16.8378 17.5586 16.8827C17.3066 16.9275 17.0164 17.1017 16.8975 17.4418L17.6055 17.6893ZM15.9084 21.9222L15.1818 22.1079C15.2971 22.5592 15.6964 22.7391 15.9855 22.7494C16.2746 22.7598 16.6793 22.6102 16.8306 22.1774L16.1226 21.9299L15.4147 21.6823C15.5319 21.347 15.8422 21.2434 16.0391 21.2504C16.236 21.2574 16.5452 21.3848 16.6351 21.7365L15.9084 21.9222ZM14.203 16.0643L14.893 16.3582C14.7603 16.6699 14.4622 16.7611 14.267 16.7488C14.0717 16.7364 13.7756 16.6049 13.6883 16.2635L14.415 16.0778L15.1416 15.8921C15.0297 15.4542 14.6472 15.2699 14.362 15.2518C14.0768 15.2337 13.6851 15.3664 13.513 15.7705L14.203 16.0643ZM12.8681 19.0195V19.7695C13.1793 19.7695 13.5143 19.5955 13.6619 19.249L12.9718 18.9551L12.2818 18.6613C12.3964 18.3922 12.6489 18.2695 12.8681 18.2695V19.0195ZM4 17.2H4.75V6.8H4H3.25V17.2H4ZM14.3787 2.87868L13.8483 3.40901L18.591 8.15165L19.1213 7.62132L19.6516 7.09099L14.909 2.34835L14.3787 2.87868ZM8.8 2V2.75H12.2574V2V1.25H8.8V2ZM8.8 22V21.25C7.94755 21.25 7.35331 21.2494 6.89068 21.2116C6.4368 21.1745 6.17604 21.1054 5.97852 21.0048L5.63803 21.673L5.29754 22.3413C5.74175 22.5676 6.22189 22.662 6.76853 22.7066C7.30641 22.7506 7.9723 22.75 8.8 22.75V22ZM4 17.2H3.25C3.25 18.0277 3.24942 18.6936 3.29336 19.2315C3.33803 19.7781 3.43238 20.2582 3.65873 20.7025L4.32698 20.362L4.99524 20.0215C4.8946 19.824 4.82546 19.5632 4.78838 19.1093C4.75058 18.6467 4.75 18.0525 4.75 17.2H4ZM5.63803 21.673L5.97852 21.0048C5.55516 20.789 5.21095 20.4448 4.99524 20.0215L4.32698 20.362L3.65873 20.7025C4.01825 21.4081 4.59193 21.9817 5.29754 22.3413L5.63803 21.673ZM4 6.8H4.75C4.75 5.94755 4.75058 5.35331 4.78838 4.89068C4.82546 4.4368 4.8946 4.17604 4.99524 3.97852L4.32698 3.63803L3.65873 3.29754C3.43238 3.74175 3.33803 4.22189 3.29336 4.76853C3.24942 5.30641 3.25 5.9723 3.25 6.8H4ZM8.8 2V1.25C7.9723 1.25 7.30641 1.24942 6.76853 1.29336C6.22189 1.33803 5.74175 1.43238 5.29754 1.65873L5.63803 2.32698L5.97852 2.99524C6.17604 2.8946 6.4368 2.82546 6.89068 2.78838C7.35331 2.75058 7.94755 2.75 8.8 2.75V2ZM4.32698 3.63803L4.99524 3.97852C5.21095 3.55516 5.55516 3.21095 5.97852 2.99524L5.63803 2.32698L5.29754 1.65873C4.59193 2.01825 4.01825 2.59193 3.65873 3.29754L4.32698 3.63803ZM8 13.5V14.25H16V13.5V12.75H8V13.5ZM8 17V17.75H9.5V17V16.25H8V17ZM14.3787 2.87868L14.909 2.34835C14.5884 2.02771 14.2156 1.7711 13.8107 1.58682L13.5 2.26946L13.1893 2.9521C13.4323 3.06267 13.6559 3.2166 13.8483 3.40901L14.3787 2.87868ZM13.5 2.26946L13.8107 1.58682C13.3275 1.36696 12.7984 1.25 12.2574 1.25V2V2.75C12.582 2.75 12.8994 2.82015 13.1893 2.9521L13.5 2.26946ZM13.5 2.26946H12.75V5.5H13.5H14.25V2.26946H13.5ZM20 9.74264H20.75C20.75 9.20155 20.633 8.67249 20.4132 8.18935L19.7305 8.5L19.0479 8.81065C19.1799 9.10061 19.25 9.41799 19.25 9.74264H20ZM19.7305 8.5L20.4132 8.18935C20.2289 7.78442 19.9723 7.41163 19.6516 7.09099L19.1213 7.62132L18.591 8.15165C18.7834 8.34405 18.9373 8.56767 19.0479 8.81065L19.7305 8.5ZM16.5 8.5V9.25H19.7305V8.5V7.75H16.5V8.5ZM13.5 5.5H12.75C12.75 7.57107 14.4289 9.25 16.5 9.25V8.5V7.75C15.2574 7.75 14.25 6.74264 14.25 5.5H13.5ZM12 22V21.25H8.8V22V22.75H12V22ZM20 9.74264H19.25V15H20H20.75V9.74264H20Z" fill="black"/>
</svg>
