<svg width="24" height="24" viewBox="0 0 24 24" fill="none" xmlns="http://www.w3.org/2000/svg"> <g clip-path="url(#clip0_2085_387108)"> <path d="M6.82001 14.1898L8.91001 11.9298C9.20001 12.2198 9.69001 12.2298 9.99001 11.9398C10.29 11.6498 10.29 11.1698 9.99001 10.8698C9.97001 10.8498 9.95001 10.8398 9.94001 10.8198L10.59 10.1198C10.59 10.1198 10.6 10.1398 10.61 10.1498C10.91 10.4398 11.38 10.4398 11.68 10.1498C11.97 9.85984 11.97 9.37984 11.68 9.07984C11.66 9.05984 11.64 9.03984 11.61 9.01984L12.26 8.31984C12.26 8.31984 12.26 8.31984 12.26 8.32984C12.55 8.61984 13.03 8.61984 13.33 8.32984C13.62 8.03984 13.62 7.55984 13.33 7.25984C13.31 7.23984 13.3 7.22984 13.28 7.20984L14.85 5.51984C14.85 5.51984 16.83 5.14984 19.09 3.99984L20.08 3.44984C20.72 3.05984 21.37 2.60984 21.99 2.08984C21.99 2.08984 22.32 6.46984 19.6 9.40984C18.46 10.6398 16.77 12.0398 15.18 13.2398L14.22 13.9598C12.42 15.2698 10.97 16.2198 10.97 16.2198L9.74001 15.5598L8.97001 16.3298" stroke="white" stroke-width="1.5" stroke-linecap="round" stroke-linejoin="round"/> <path d="M2.98 18.0096L2.44 18.5496C1.98 19.0096 1.98 19.7696 2.44 20.2296L4.04 21.8296C4.28 22.0696 4.66 22.0696 4.9 21.8296L5.17 21.5596C5.31 21.4196 5.37 21.2096 5.31 21.0096L5.09 20.2596L7.49 17.8596L8.82 17.9196C9.02 17.9196 9.22 17.8496 9.36 17.7096L9.55 17.5196C9.7 17.3696 9.7 17.1096 9.55 16.9596L6.49 13.8996C6.34 13.7496 6.08 13.7496 5.93 13.8996L5.66 14.1696C5.49 14.3396 5.38 14.5496 5.35 14.7896L5.19 15.7996L3.82 17.1696L2.97 18.0196L2.98 18.0096Z" stroke="white" stroke-width="1.5" stroke-linecap="round" stroke-linejoin="round"/> </g> <defs> <clipPath id="clip0_2085_387108"> <rect width="24" height="24" fill="white"/> </clipPath> </defs> </svg>
