<svg width="24" height="24" viewBox="0 0 24 24" fill="none" xmlns="http://www.w3.org/2000/svg"> <g clip-path="url(#clip0_4418_9250)"> <path d="M17.82 6.53C17.16 3.93 14.81 2 12 2C8.69 2 6 4.69 6 8V13C6 14.46 6.52 15.8 7.39 16.84" stroke="white" stroke-width="1.5" stroke-linecap="round" stroke-linejoin="round"/> <path d="M18 9.98047V13.0005C18 16.3105 15.31 19.0005 12 19.0005C11.27 19.0005 10.56 18.8705 9.92004 18.6305" stroke="white" stroke-width="1.5" stroke-linecap="round" stroke-linejoin="round"/> <path d="M5.85999 19.58C7.46999 21.08 9.62999 22 12 22C16.97 22 21 17.97 21 13V11" stroke="white" stroke-width="1.5" stroke-linecap="round" stroke-linejoin="round"/> <path d="M21.5 2.99023L2.5 21.9902" stroke="white" stroke-width="1.5" stroke-linecap="round" stroke-linejoin="round"/> <path d="M11.55 5.49977V2.25977" stroke="white" stroke-width="1.5" stroke-linecap="round" stroke-linejoin="round"/> <path d="M8.5 3.5V7.5" stroke="white" stroke-width="1.5" stroke-linecap="round" stroke-linejoin="round"/> </g> <defs> <clipPath id="clip0_4418_9250"> <rect width="24" height="24" fill="white"/> </clipPath> </defs> </svg>
