<svg width="24" height="24" viewBox="0 0 24 24" fill="none" xmlns="http://www.w3.org/2000/svg"> <g clip-path="url(#clip0_2085_391082)"> <path d="M15.11 5.78C15.11 7.84 13.44 9.51 11.38 9.51C9.32002 9.51 7.65002 7.84 7.65002 5.78C7.65002 3.72 9.32002 2 11.38 2C13.44 2 15.11 3.71 15.11 5.78Z" stroke="white" stroke-width="1.5" stroke-linecap="round" stroke-linejoin="round"/> <path d="M13.8301 8.58984L12.7601 18.2698C12.6801 18.9698 12.0901 19.5098 11.3801 19.5098C10.6701 19.5098 10.0801 18.9798 10.0001 18.2698L8.93005 8.58984" stroke="white" stroke-width="1.5" stroke-linecap="round" stroke-linejoin="round"/> <path d="M12.9 17.0195H9.86005" stroke="white" stroke-width="1.5" stroke-linecap="round" stroke-linejoin="round"/> <path d="M6.40002 5.78027H16.36" stroke="white" stroke-width="1.5" stroke-linecap="round" stroke-linejoin="round"/> <path d="M13.45 12H12" stroke="white" stroke-width="1.5" stroke-linecap="round" stroke-linejoin="round"/> <path d="M11.38 19.5098C11.38 20.8898 12.49 21.9998 13.87 21.9998H17.6" stroke="white" stroke-width="1.5" stroke-linecap="round" stroke-linejoin="round"/> </g> <defs> <clipPath id="clip0_2085_391082"> <rect width="24" height="24" fill="white"/> </clipPath> </defs> </svg>
