<svg width="24" height="24" viewBox="0 0 24 24" fill="none" xmlns="http://www.w3.org/2000/svg"> <g clip-path="url(#clip0_2085_391230)"> <path d="M12.21 19.4304H9.71998C7.81998 16.4504 6.81998 12.9904 6.81998 9.46039V8.65039H15.12V9.46039C15.12 12.9904 14.11 16.4504 12.22 19.4304H12.21Z" stroke="white" stroke-width="1.5" stroke-linecap="round" stroke-linejoin="round"/> <path d="M12.21 19.4297H9.72L8.66 21.0697C8.4 21.4697 8.69 22.0097 9.17 22.0097H12.75C13.23 22.0097 13.52 21.4797 13.26 21.0797L12.2 19.4397L12.21 19.4297Z" stroke="white" stroke-width="1.5" stroke-linecap="round" stroke-linejoin="round"/> <path d="M15.11 6.15039H6.81V8.64039H15.11V6.15039Z" stroke="white" stroke-width="1.5" stroke-linecap="round" stroke-linejoin="round"/> <path d="M13.36 4.1C13.18 4.07 13.04 3.94 13.02 3.76C12.87 2.77 12.01 2 10.97 2C9.92998 2 9.06998 2.76 8.91998 3.76C8.88998 3.94 8.75998 4.08 8.57998 4.1C7.58998 4.25 6.81998 5.11 6.81998 6.15H15.12C15.12 5.11 14.36 4.25 13.36 4.1Z" stroke="white" stroke-width="1.5" stroke-linecap="round" stroke-linejoin="round"/> <path d="M8.88999 4.07L7.22999 2H5.98999" stroke="white" stroke-width="1.5" stroke-linecap="round" stroke-linejoin="round"/> <path d="M13.71 16.5206H16.77C17.46 16.5206 18.01 15.9606 18.01 15.2806V11.1306C18.01 10.4406 17.45 9.89062 16.77 9.89062H15.1" stroke="white" stroke-width="1.5" stroke-linecap="round" stroke-linejoin="round"/> </g> <defs> <clipPath id="clip0_2085_391230"> <rect width="24" height="24" fill="white"/> </clipPath> </defs> </svg>
