<svg width="24" height="24" viewBox="0 0 24 24" fill="none" xmlns="http://www.w3.org/2000/svg"> <g clip-path="url(#clip0_2085_390899)"> <path d="M6.83 7.98C7.65 7.29 8.5 6.96 9.12 6.8C9.7 6.65 10.06 6.07 9.92 5.49C9.45 3.4 7.74 2 5.91 2C3.75 2 2 3.75 2 5.91C2 7.42 2.66 8.85 3.83 10.05C4.27 10.5 4.51 11.11 4.51 11.74C4.51 14.54 7.98 22 12.01 22C16.04 22 19.51 14.54 19.51 11.75C19.51 11.11 19.75 10.5 20.19 10.05C21.35 8.84 22.01 7.42 22.01 5.91C22.01 3.75 20.26 2 18.1 2C16.26 2 14.56 3.4 14.09 5.49C13.96 6.07 14.32 6.65 14.89 6.8C15.51 6.96 16.36 7.29 17.18 7.98" stroke="white" stroke-width="1.5" stroke-linecap="round" stroke-linejoin="round"/> <path d="M11.15 18.2695H12.84" stroke="white" stroke-width="1.5" stroke-linecap="round" stroke-linejoin="round"/> <path d="M13.65 14.8803C13.65 15.4603 14.12 15.9403 14.71 15.9403C15.3 15.9403 15.77 15.4703 15.77 14.8803C15.77 14.2903 15.3 13.8203 14.71 13.8203C14.12 13.8203 13.65 14.2903 13.65 14.8803Z" fill="white"/> <path d="M10.35 14.8803C10.35 15.4603 9.88001 15.9403 9.29001 15.9403C8.70001 15.9403 8.23001 15.4703 8.23001 14.8803C8.23001 14.2903 8.70001 13.8203 9.29001 13.8203C9.88001 13.8203 10.35 14.2903 10.35 14.8803Z" fill="white"/> </g> <defs> <clipPath id="clip0_2085_390899"> <rect width="24" height="24" fill="white"/> </clipPath> </defs> </svg>
