<svg width="24" height="24" viewBox="0 0 24 24" fill="none" xmlns="http://www.w3.org/2000/svg"> <g clip-path="url(#clip0_2085_387049)"> <path d="M11.9999 11.96C11.3099 11.96 10.7599 11.4 10.7599 10.72V5.74C10.7599 5.05 11.3199 4.5 11.9999 4.5C12.6799 4.5 13.2399 5.06 13.2399 5.74V10.72C13.2399 11.41 12.6799 11.96 11.9999 11.96Z" stroke="white" stroke-width="1.41" stroke-linecap="round" stroke-linejoin="round"/> <path d="M8.25995 21.9997H8.98995C9.95995 21.9997 10.7499 21.2097 10.7499 20.2397C10.7499 19.7697 10.9399 19.2797 11.2699 18.9497L11.9999 18.2197L12.7299 18.9497C13.0599 19.2797 13.2499 19.7697 13.2499 20.2397C13.2499 21.2097 14.0399 21.9997 15.0099 21.9997H15.7399" stroke="white" stroke-width="1.41" stroke-linecap="round" stroke-linejoin="round"/> <path d="M5.77997 3.24C5.77997 2.55 6.33997 2 7.01997 2H10.75C11.44 2 11.99 2.56 11.99 3.24V4.48" stroke="white" stroke-width="1.41" stroke-linecap="round" stroke-linejoin="round"/> <path d="M4.52998 5.73C3.83998 5.73 3.28998 5.17 3.28998 4.49C3.28998 3.81 3.84998 3.25 4.52998 3.25H5.77998V4.49C5.77998 5.18 5.21998 5.73 4.52998 5.73Z" stroke="white" stroke-width="1.41" stroke-linecap="round" stroke-linejoin="round"/> <path d="M18.2199 3.24C18.2199 2.55 17.6599 2 16.9799 2H13.2499C12.5599 2 12.0099 2.56 12.0099 3.24" stroke="white" stroke-width="1.41" stroke-linecap="round" stroke-linejoin="round"/> <path d="M19.47 5.73C20.16 5.73 20.71 5.17 20.71 4.49C20.71 3.81 20.15 3.25 19.47 3.25H18.22V4.49C18.22 5.18 18.78 5.73 19.47 5.73Z" stroke="white" stroke-width="1.41" stroke-linecap="round" stroke-linejoin="round"/> <path d="M12 11.96V14.49M12 14.49L13.08 16.36C13.19 16.54 13.25 16.76 13.25 16.98C13.25 17.67 12.69 18.22 12.01 18.22C11.33 18.22 10.77 17.66 10.77 16.98C10.77 16.75 10.83 16.54 10.94 16.36L12.02 14.49H12Z" stroke="white" stroke-width="1.41" stroke-linecap="round" stroke-linejoin="round"/> <path d="M13.24 9.46973H10.75" stroke="white" stroke-width="1.41" stroke-linecap="round" stroke-linejoin="round"/> <path d="M10.75 6.98047H13.24" stroke="white" stroke-width="1.41" stroke-linecap="round" stroke-linejoin="round"/> </g> <defs> <clipPath id="clip0_2085_387049"> <rect width="24" height="24" fill="white"/> </clipPath> </defs> </svg>
