<svg width="24" height="24" viewBox="0 0 24 24" fill="none" xmlns="http://www.w3.org/2000/svg"> <g clip-path="url(#clip0_4418_9234)"> <path d="M6.28003 21.9998C8.00316 21.9998 9.40003 20.6029 9.40003 18.8798C9.40003 17.1566 8.00316 15.7598 6.28003 15.7598C4.55691 15.7598 3.16003 17.1566 3.16003 18.8798C3.16003 20.6029 4.55691 21.9998 6.28003 21.9998Z" stroke="white" stroke-width="1.5" stroke-linecap="round" stroke-linejoin="round"/> <path d="M20.84 16.8003V4.60034C20.84 2.00034 19.21 1.64034 17.56 2.09034L11.32 3.79034C10.18 4.10034 9.40002 5.00034 9.40002 6.30034V8.47034V9.93034V18.8703" stroke="white" stroke-width="1.5" stroke-linecap="round" stroke-linejoin="round"/> <path d="M17.72 19.9197C19.4431 19.9197 20.84 18.5228 20.84 16.7997C20.84 15.0766 19.4431 13.6797 17.72 13.6797C15.9968 13.6797 14.6 15.0766 14.6 16.7997C14.6 18.5228 15.9968 19.9197 17.72 19.9197Z" stroke="white" stroke-width="1.5" stroke-linecap="round" stroke-linejoin="round"/> <path d="M9.40002 9.52039L20.84 6.40039" stroke="white" stroke-width="1.5" stroke-linecap="round" stroke-linejoin="round"/> </g> <defs> <clipPath id="clip0_4418_9234"> <rect width="24" height="24" fill="white"/> </clipPath> </defs> </svg>
