<svg width="24" height="24" viewBox="0 0 24 24" fill="none" xmlns="http://www.w3.org/2000/svg"> <g clip-path="url(#clip0_4482_3891)"> <path d="M14.21 8.61V13.62C14.21 14.84 13.22 15.83 12 15.83C10.78 15.83 9.79004 14.84 9.79004 13.62V8.61C9.79004 7.72 10.5 7 11.4 7H12.6C13.49 7 14.21 7.71 14.21 8.61Z" stroke="white" stroke-width="1.5" stroke-miterlimit="10" stroke-linecap="round" stroke-linejoin="round"/> <path d="M11.12 18.9102H12.88" stroke="white" stroke-width="1.5" stroke-miterlimit="10" stroke-linecap="round" stroke-linejoin="round"/> <path d="M15.97 14.5002V21.1202C15.97 21.1402 15.97 21.1602 15.96 21.1802C14.75 21.7102 13.41 22.0002 12 22.0002C10.59 22.0002 9.25004 21.7102 8.04004 21.1802C8.03004 21.1602 8.03003 21.1402 8.03003 21.1202V14.5002C8.03003 13.1202 8.73004 11.9102 9.79004 11.2002V13.4902C9.79004 14.6402 10.62 15.7002 11.77 15.8102C13.09 15.9402 14.21 14.9102 14.21 13.6202V11.2002C14.42 11.3402 14.62 11.5102 14.81 11.6902C15.53 12.4102 15.97 13.4102 15.97 14.5002Z" stroke="white" stroke-width="1.5" stroke-miterlimit="10" stroke-linecap="round" stroke-linejoin="round"/> <path d="M22 12C22 16.11 19.51 19.65 15.96 21.18C15.97 21.16 15.97 21.14 15.97 21.12V14.5C15.97 13.41 15.53 12.41 14.81 11.69C14.62 11.51 14.42 11.34 14.21 11.2V13.62C14.21 14.91 13.09 15.94 11.77 15.81C10.62 15.7 9.79001 14.64 9.79001 13.49V11.2C8.73001 11.91 8.03 13.12 8.03 14.5V21.12C8.03 21.14 8.03001 21.16 8.04001 21.18C4.49001 19.65 2 16.11 2 12C2 6.48 6.48 2 12 2C17.52 2 22 6.48 22 12Z" stroke="white" stroke-width="1.5" stroke-miterlimit="10" stroke-linecap="round" stroke-linejoin="round"/> </g> <defs> <clipPath id="clip0_4482_3891"> <rect width="24" height="24" fill="white"/> </clipPath> </defs> </svg>
