<svg width="24" height="24" viewBox="0 0 24 24" fill="none" xmlns="http://www.w3.org/2000/svg"> <g clip-path="url(#clip0_4482_7638)"> <path d="M6.44 22.0001H5.33C3.49 22.0001 2 20.5101 2 18.6701V17.5601" stroke="white" stroke-width="1.5" stroke-linecap="round" stroke-linejoin="round"/> <path d="M17.5601 2H18.6701C20.5101 2 22.0001 3.49 22.0001 5.33V6.44" stroke="white" stroke-width="1.5" stroke-linecap="round" stroke-linejoin="round"/> <path d="M2 6.44V5.33C2 3.49 3.49 2 5.33 2H6.44" stroke="white" stroke-width="1.5" stroke-linecap="round" stroke-linejoin="round"/> <path d="M22.0001 17.55V18.66C22.0001 20.5 20.5101 21.99 18.6701 21.99H17.5601" stroke="white" stroke-width="1.5" stroke-linecap="round" stroke-linejoin="round"/> <path d="M13.2598 17.05L16.3898 8.60999C16.4898 8.32999 16.4198 8.00999 16.2098 7.79999C15.9998 7.58999 15.6798 7.51999 15.3998 7.61999L6.95981 10.75C6.64981 10.87 6.43981 11.18 6.45981 11.52C6.47981 11.86 6.70981 12.14 7.02981 12.23L10.8398 13.19L11.7898 16.98C11.8798 17.3 12.1598 17.53 12.4998 17.55C12.8398 17.57 13.1398 17.37 13.2698 17.06L13.2598 17.05Z" stroke="white" stroke-width="1.5" stroke-linecap="round" stroke-linejoin="round"/> </g> <defs> <clipPath id="clip0_4482_7638"> <rect width="24" height="24" fill="white"/> </clipPath> </defs> </svg>
