<svg width="24" height="24" viewBox="0 0 24 24" fill="none" xmlns="http://www.w3.org/2000/svg"> <g clip-path="url(#clip0_2085_386697)"> <path d="M17.73 17.7299C22.25 13.2099 23.35 6.96986 20.19 3.79986C17.62 1.23986 13.05 1.46986 8.99999 4.04986M3.80999 20.1899C6.28999 22.6699 10.65 22.5299 14.59 20.1899M6.26999 6.26986C2.97999 9.55986 1.49999 13.7399 2.14999 16.9999" stroke="white" stroke-width="1.5" stroke-linecap="round"/> <path d="M16.92 7.07987C15.02 5.17987 11.28 5.83987 8.56 8.54987C5.84 11.2599 5.18 15.0099 7.08 16.9099C8.98 18.8099 12.72 18.1499 15.44 15.4399C17.09 13.7899 17.98 11.7599 18 9.99987" stroke="white" stroke-width="1.5" stroke-linecap="round"/> <path d="M13.64 10.3599C14.27 10.9899 14.05 12.2399 13.15 13.1499C12.25 14.0599 11 14.2699 10.36 13.6399C9.72999 13.0099 9.94999 11.7599 10.85 10.8499C11.76 9.94987 13 9.72987 13.64 10.3599Z" stroke="white" stroke-width="1.5" stroke-linecap="round"/> </g> <defs> <clipPath id="clip0_2085_386697"> <rect width="24" height="24" fill="white"/> </clipPath> </defs> </svg>
