<svg width="24" height="24" viewBox="0 0 24 24" fill="none" xmlns="http://www.w3.org/2000/svg"> <g clip-path="url(#clip0_2085_382464)"> <path d="M13.73 15.9202L13.27 16.0902C11.74 16.6502 10.03 16.2602 8.88003 15.1102C7.73003 13.9602 7.35003 12.2502 7.90003 10.7202L8.07003 10.2702L5.43003 7.63022C5.05003 7.26022 4.84003 6.75021 4.84003 6.22021C4.84003 5.69021 5.05003 5.18022 5.43003 4.81021C5.80003 4.43022 6.31003 4.22021 6.84003 4.22021C7.37003 4.22021 7.88003 4.43022 8.25003 4.81021L19.18 15.7402C19.55 16.1102 19.77 16.6202 19.77 17.1502C19.77 17.6802 19.56 18.1902 19.18 18.5602C18.81 18.9402 18.3 19.1502 17.77 19.1502C17.24 19.1502 16.73 18.9402 16.36 18.5602L13.72 15.9202H13.73Z" stroke="white" stroke-width="1.5" stroke-linecap="round" stroke-linejoin="round"/> <path d="M15.79 12.3198L20.51 8.73983C21.68 7.85983 22.22 6.36983 21.91 4.93983C21.6 3.50983 20.48 2.38983 19.05 2.07983C17.62 1.76983 16.14 2.30983 15.25 3.47983L11.67 8.19983" stroke="white" stroke-width="1.5" stroke-linecap="round" stroke-linejoin="round"/> <path d="M3.61003 12.7402C1.83003 14.5002 1.49003 17.2402 2.78003 19.3802C4.07003 21.5202 6.66003 22.5002 9.04003 21.7502C11.42 21.0002 12.98 18.7102 12.81 16.2202" stroke="white" stroke-width="1.5" stroke-linecap="round" stroke-linejoin="round"/> <path d="M7.77999 11.1902C6.22999 11.0802 4.70999 11.6502 3.60999 12.7402" stroke="white" stroke-width="1.5" stroke-linecap="round" stroke-linejoin="round"/> </g> <defs> <clipPath id="clip0_2085_382464"> <rect width="24" height="24" fill="white"/> </clipPath> </defs> </svg>
