<svg width="24" height="24" viewBox="0 0 24 24" fill="none" xmlns="http://www.w3.org/2000/svg"> <g clip-path="url(#clip0_4482_14884)"> <path d="M6.5498 11.9998V8.5498C6.5498 7.4498 7.4498 6.5498 8.5498 6.5498H9.9998C11.0998 6.5498 11.9998 7.4498 11.9998 8.5498V11.9998" stroke="white" stroke-width="1.5" stroke-linecap="round" stroke-linejoin="round"/> <path d="M6.55004 12.0002H12V17.4502H9.27004C7.76004 17.4502 6.54004 16.2302 6.54004 14.7202V11.9902L6.55004 12.0002Z" stroke="white" stroke-width="1.5" stroke-linecap="round" stroke-linejoin="round"/> <path d="M12 12H15.45C16.55 12 17.45 12.9 17.45 14V15.45C17.45 16.55 16.55 17.45 15.45 17.45H12" stroke="white" stroke-width="1.5" stroke-linecap="round" stroke-linejoin="round"/> <path d="M19.9998 2H18.5498C17.4498 2 16.5498 2.9 16.5498 4V5.45C16.5498 6.55 17.4498 7.45 18.5498 7.45H19.9998C21.0998 7.45 21.9998 6.55 21.9998 5.45V4C21.9998 2.9 21.0998 2 19.9998 2Z" stroke="white" stroke-width="1.5" stroke-linecap="round" stroke-linejoin="round"/> <path d="M22 12V17C22 19.76 19.76 22 17 22H7C4.24 22 2 19.76 2 17V7C2 4.24 4.24 2 7 2H12" stroke="white" stroke-width="1.5" stroke-linecap="round" stroke-linejoin="round"/> </g> <defs> <clipPath id="clip0_4482_14884"> <rect width="24" height="24" fill="white"/> </clipPath> </defs> </svg>
