<svg width="24" height="24" viewBox="0 0 24 24" fill="none" xmlns="http://www.w3.org/2000/svg"> <g clip-path="url(#clip0_655_7232)"> <path d="M4.22029 22C3.00029 22 2.00029 21 2.00029 19.78C2.00029 18.56 3.00029 17.56 4.22029 17.56M4.22029 22H15.3303C16.5503 22 17.5503 21 17.5503 19.78V6.45H8.66029C10.0403 6.45 11.1403 5.17 10.8303 3.74C10.6003 2.65 9.50029 1.9 8.39029 2.02C7.63029 2.1 7.06029 2.52 6.66029 3.12C6.66029 3.23 6.55029 3.23 6.55029 3.34C6.44029 3.56 6.33029 3.9 6.33029 4.23V18.39C6.33029 19.89 5.52029 21.27 4.22029 22ZM10.8903 4.22C10.8903 5.44 9.89029 6.44 8.67029 6.44H19.7203C20.6103 6.44 21.4803 5.95 21.8203 5.12C22.4703 3.53 21.2903 2 19.7803 2H8.67029C9.89029 2 10.8903 3 10.8903 4.22Z" stroke="white" stroke-width="1.5" stroke-linecap="round" stroke-linejoin="round"/> </g> <defs> <clipPath id="clip0_655_7232"> <rect width="24" height="24" fill="white" transform="matrix(-1 0 0 -1 24 24)"/> </clipPath> </defs> </svg>
