<svg width="24" height="24" viewBox="0 0 24 24" fill="none" xmlns="http://www.w3.org/2000/svg"> <g clip-path="url(#clip0_4482_3866)"> <path d="M9.56002 20.2899L9.55003 20.2799L6.09002 16.8099C2.83002 13.5299 2.83002 8.22988 6.09002 4.94988C8.60002 2.41988 12.57 1.66988 16.04 3.51988C16.74 3.88988 17.35 4.39988 17.91 4.94988C21.17 8.22988 21.17 13.5299 17.91 16.8099L14.45 20.2799L13.25 21.4799C12.55 22.1799 11.4 22.1799 10.71 21.4699L9.56002 20.2899Z" stroke="white" stroke-width="1.5" stroke-linecap="round" stroke-linejoin="round"/> <path d="M10.17 15V7H12.55C13.81 7 14.84 8.02 14.84 9.29C14.84 10.55 13.82 11.58 12.55 11.58H10.17" stroke="white" stroke-width="1.5" stroke-linecap="round" stroke-linejoin="round"/> </g> <defs> <clipPath id="clip0_4482_3866"> <rect width="24" height="24" fill="white"/> </clipPath> </defs> </svg>
