<svg width="24" height="24" viewBox="0 0 24 24" fill="none" xmlns="http://www.w3.org/2000/svg"> <g clip-path="url(#clip0_4418_9598)"> <path d="M16.75 9.12047L14.9 7.27047C14.2 6.57047 13.24 6.61047 12.77 7.35047L11.74 8.98047L15.03 12.2705L16.66 11.2405C17.37 10.8005 17.41 9.77047 16.75 9.12047Z" stroke="white" stroke-width="1.5" stroke-linecap="round" stroke-linejoin="round"/> <path d="M11.74 8.97968L9.34996 8.83968C8.00996 8.75968 7.54996 9.16968 7.39996 10.4397L6.79996 15.5097C6.66996 16.5797 7.43996 17.3397 8.50996 17.2197L13.58 16.6197C14.85 16.4697 15.31 16.0097 15.18 14.6697L15.04 12.2797" stroke="white" stroke-width="1.5" stroke-linecap="round" stroke-linejoin="round"/> <path d="M7.48999 16.5199L9.33999 14.6699" stroke="white" stroke-width="1.5" stroke-linecap="round" stroke-linejoin="round"/> <path d="M9 22H15C20 22 22 20 22 15V9C22 4 20 2 15 2H9C4 2 2 4 2 9V15C2 20 4 22 9 22Z" stroke="white" stroke-width="1.5" stroke-linecap="round" stroke-linejoin="round"/> </g> <defs> <clipPath id="clip0_4418_9598"> <rect width="24" height="24" fill="white"/> </clipPath> </defs> </svg>
