<svg width="24" height="24" viewBox="0 0 24 24" fill="none" xmlns="http://www.w3.org/2000/svg"> <g clip-path="url(#clip0_4482_3680)"> <path d="M9 17.0601H15" stroke="white" stroke-width="1.5" stroke-miterlimit="10" stroke-linecap="round" stroke-linejoin="round"/> <path d="M20.5 9.60994V17.2199C20.5 20.0499 19.08 21.9399 15.78 21.9399H8.22C4.91 21.9399 3.5 20.0499 3.5 17.2199V9.60994C3.5 7.05994 4.65 5.26994 7.29 4.93994C7.28 4.99994 7.28 5.05994 7.28 5.10994V5.59994C7.28 6.24994 7.8 6.76994 8.45 6.76994H15.55C16.2 6.76994 16.72 6.24994 16.72 5.59994V5.10994C16.72 5.04994 16.72 4.99994 16.71 4.93994C19.35 5.27994 20.5 7.06994 20.5 9.60994Z" stroke="white" stroke-width="1.5" stroke-miterlimit="10" stroke-linecap="round" stroke-linejoin="round"/> <path d="M16.72 5.1098V5.5998C16.72 6.2498 16.2 6.7698 15.55 6.7698H8.45003C7.80003 6.7698 7.28003 6.2498 7.28003 5.5998V5.1098C7.28003 5.0498 7.28003 4.9998 7.29003 4.9398C7.38003 4.3698 7.86003 3.9398 8.45003 3.9398C8.88003 3.9398 9.29003 3.6898 9.49003 3.2998L9.79003 2.6998C9.99003 2.2998 10.39 2.0498 10.83 2.0498H13.17C13.6 2.0498 14.01 2.2998 14.21 2.6898L14.51 3.2898C14.71 3.6898 15.11 3.9298 15.55 3.9298C16.15 3.9298 16.63 4.3598 16.71 4.9298C16.72 4.9998 16.72 5.0598 16.72 5.1098Z" stroke="white" stroke-width="1.5" stroke-miterlimit="10" stroke-linecap="round" stroke-linejoin="round"/> <path d="M10.51 12.3901H13.51" stroke="white" stroke-width="1.5" stroke-miterlimit="10" stroke-linecap="round" stroke-linejoin="round"/> <path d="M12.01 10.8901V13.8901" stroke="white" stroke-width="1.5" stroke-miterlimit="10" stroke-linecap="round" stroke-linejoin="round"/> </g> <defs> <clipPath id="clip0_4482_3680"> <rect width="24" height="24" fill="white"/> </clipPath> </defs> </svg>
