<svg width="24" height="24" viewBox="0 0 24 24" fill="none" xmlns="http://www.w3.org/2000/svg"> <g clip-path="url(#clip0_2085_390906)"> <path d="M17.3 18.3601C17.97 16.4901 18.62 14.2501 18.66 12.6301C18.66 10.6801 17.27 9.12012 15.4 9.12012C13.53 9.12012 12.01 10.8001 12.01 12.2501C12.01 10.8001 10.49 9.12012 8.62 9.12012C6.75 9.12012 5.36 10.6801 5.36 12.6301C5.39 14.2501 6.04 16.4501 6.71 18.3201" stroke="white" stroke-width="1.5" stroke-linecap="round" stroke-linejoin="round"/> <path d="M8.19 22C7.35 21.81 6.56 21.56 5.82 21.25C3.49 20.26 2 17.95 2 15.42V12C2 6.48 6.48 2 12 2C17.52 2 22 6.48 22 12V15.42C22 17.95 20.51 20.26 18.18 21.25C17.44 21.56 16.65 21.82 15.81 22" stroke="white" stroke-width="1.5" stroke-linecap="round" stroke-linejoin="round"/> <path d="M14.29 12.5502C14.29 13.1302 14.76 13.6102 15.35 13.6102C15.94 13.6102 16.41 13.1402 16.41 12.5502C16.41 11.9602 15.94 11.4902 15.35 11.4902C14.76 11.4902 14.29 11.9602 14.29 12.5502Z" fill="white"/> <path d="M7.68 12.5502C7.68 13.1302 8.15 13.6102 8.74 13.6102C9.33 13.6102 9.8 13.1402 9.8 12.5502C9.8 11.9602 9.33 11.4902 8.74 11.4902C8.15 11.4902 7.68 11.9602 7.68 12.5502Z" fill="white"/> <path d="M14.12 15.8598L12.76 18.6098C12.45 19.2398 11.55 19.2398 11.24 18.6098L9.88 15.8598C11.08 14.7798 12.91 14.7798 14.12 15.8598Z" stroke="white" stroke-width="1.5" stroke-linecap="round" stroke-linejoin="round"/> </g> <defs> <clipPath id="clip0_2085_390906"> <rect width="24" height="24" fill="white"/> </clipPath> </defs> </svg>
