<svg width="24" height="24" viewBox="0 0 24 24" fill="none" xmlns="http://www.w3.org/2000/svg"> <g clip-path="url(#clip0_4482_3897)"> <path d="M14.86 10H9.15002C6.94002 10 5.15002 11.79 5.15002 14V18C5.15002 20.21 6.94002 22 9.15002 22H14.86C17.07 22 18.86 20.21 18.86 18V14C18.86 11.79 17.07 10 14.86 10Z" stroke="white" stroke-width="1.5" stroke-miterlimit="10" stroke-linecap="round" stroke-linejoin="round"/> <path d="M15 7H9V10H15V7Z" stroke="white" stroke-width="1.5" stroke-miterlimit="10" stroke-linecap="round" stroke-linejoin="round"/> <path d="M13.5 4H10.5V7H13.5V4Z" stroke="white" stroke-width="1.5" stroke-miterlimit="10" stroke-linecap="round" stroke-linejoin="round"/> <path d="M9 15.9997H10.01C10.13 15.9997 10.25 15.9497 10.34 15.8597L10.95 15.2497C11.17 15.0297 11.55 15.0897 11.69 15.3697L12.32 16.6197C12.46 16.8997 12.84 16.9597 13.06 16.7397L13.67 16.1297C13.76 16.0397 13.87 15.9897 14 15.9897H15" stroke="white" stroke-width="1.5" stroke-miterlimit="10" stroke-linecap="round" stroke-linejoin="round"/> <path d="M18 3.67008L19.33 2.33008" stroke="white" stroke-width="1.5" stroke-miterlimit="10" stroke-linecap="round" stroke-linejoin="round"/> <path d="M18 6.33008L19.33 7.67008" stroke="white" stroke-width="1.5" stroke-miterlimit="10" stroke-linecap="round" stroke-linejoin="round"/> <path d="M20.67 5H22" stroke="white" stroke-width="1.5" stroke-miterlimit="10" stroke-linecap="round" stroke-linejoin="round"/> </g> <defs> <clipPath id="clip0_4482_3897"> <rect width="24" height="24" fill="white"/> </clipPath> </defs> </svg>
