<svg width="24" height="24" viewBox="0 0 24 24" fill="none" xmlns="http://www.w3.org/2000/svg"> <g clip-path="url(#clip0_4482_3666)"> <path d="M12 13V17" stroke="white" stroke-width="1.5" stroke-miterlimit="10" stroke-linecap="round" stroke-linejoin="round"/> <path d="M10 15H14" stroke="white" stroke-width="1.5" stroke-miterlimit="10" stroke-linecap="round" stroke-linejoin="round"/> <path d="M18.83 18.58V10.61C18.83 9.36 17.81 8.33 16.55 8.33C15.92 8.33 15.41 7.82 15.41 7.19V6H8.58002V7.2C8.58002 7.83 8.07 8.34 7.44 8.34C6.19 8.34 5.15997 9.36 5.15997 10.62V18.59C5.15997 20.47 6.70002 22.01 8.58002 22.01H15.41C17.3 22 18.83 20.46 18.83 18.58Z" stroke="white" stroke-width="1.5" stroke-miterlimit="10" stroke-linecap="round" stroke-linejoin="round"/> <path d="M15.5 2H8.5C7.67 2 7 2.67 7 3.5V4.5C7 5.32 7.67 6 8.5 6H15.5C16.33 6 17 5.32 17 4.5V3.5C17 2.67 16.33 2 15.5 2Z" stroke="white" stroke-width="1.5" stroke-miterlimit="10" stroke-linecap="round" stroke-linejoin="round"/> <path d="M10 2V3" stroke="white" stroke-width="1.5" stroke-miterlimit="10" stroke-linecap="round" stroke-linejoin="round"/> <path d="M14 2V3" stroke="white" stroke-width="1.5" stroke-miterlimit="10" stroke-linecap="round" stroke-linejoin="round"/> </g> <defs> <clipPath id="clip0_4482_3666"> <rect width="24" height="24" fill="white"/> </clipPath> </defs> </svg>
