<svg width="24" height="24" viewBox="0 0 24 24" fill="none" xmlns="http://www.w3.org/2000/svg"> <g clip-path="url(#clip0_2085_382467)"> <path d="M8.93001 20.8101C7.35001 22.4001 4.77 22.4001 3.19 20.8101C1.61 19.2201 1.61 16.6501 3.19 15.0701M8.93001 20.8101C10.52 19.2201 10.52 16.6501 8.93001 15.0701C7.35001 13.4801 4.77 13.4801 3.19 15.0701M8.93001 20.8101L17.54 12.2001M3.19 15.0701L11.8 6.46006M18.02 8.85006L16.79 10.0801C16.41 10.4601 16.41 11.0701 16.79 11.4501L17.35 12.0101C17.98 12.6401 19.01 12.6401 19.65 12.0101L20.42 11.2401C22.53 9.13006 22.53 5.70006 20.42 3.58006C18.31 1.47006 14.88 1.47006 12.76 3.58006L11.99 4.35006C11.36 4.98006 11.36 6.01006 11.99 6.65006L12.55 7.21006C12.93 7.59006 13.54 7.59006 13.92 7.21006L15.15 5.98006C15.94 5.19006 17.23 5.19006 18.02 5.98006C18.81 6.77006 18.81 8.06006 18.02 8.85006Z" stroke="white" stroke-width="1.5"/> </g> <defs> <clipPath id="clip0_2085_382467"> <rect width="24" height="24" fill="white"/> </clipPath> </defs> </svg>
