<svg width="24" height="24" viewBox="0 0 24 24" fill="none" xmlns="http://www.w3.org/2000/svg"> <g clip-path="url(#clip0_2085_391236)"> <path d="M10.18 21.9998H7.45002C6.90002 21.9998 6.45002 21.5498 6.45002 20.9998V19.9298L5.80002 19.5098C2.36002 17.2898 1.58002 12.5898 4.12002 9.36977C5.09002 8.13977 5.61002 6.62977 5.61002 5.06977V3.74977L4.37002 2.00977H8.93002L11.42 3.74977H14.74V5.06977C14.74 6.62977 15.27 8.14977 16.23 9.36977C18.77 12.5798 17.99 17.2798 14.55 19.5098L13.9 19.9298V20.9998C13.9 21.5498 13.45 21.9998 12.9 21.9998H10.17H10.18Z" stroke="white" stroke-width="1.5" stroke-linecap="round" stroke-linejoin="round"/> <path d="M11.69 16.7388C10.39 18.0388 8.29002 18.0388 7.00002 16.7388C5.70002 15.4388 5.70002 13.3388 7.00002 12.0488L11.69 16.7388Z" stroke="white" stroke-width="1.5" stroke-linecap="round" stroke-linejoin="round"/> <path d="M9.34999 14.3906L8.48999 17.6006" stroke="white" stroke-width="1.5" stroke-linecap="round" stroke-linejoin="round"/> <path d="M9.35002 14.3906L6.14001 15.2506" stroke="white" stroke-width="1.5" stroke-linecap="round" stroke-linejoin="round"/> <path d="M17.61 14.9503H19.01C19.61 14.9503 20.13 14.5203 20.23 13.9303L21.28 8.18031C21.5 6.95031 20.56 5.82031 19.31 5.82031H14.78" stroke="white" stroke-width="1.5" stroke-linecap="round" stroke-linejoin="round"/> <path d="M14.32 15.5692C14.32 15.9092 14.6 16.1892 14.94 16.1892C15.28 16.1892 15.56 15.9092 15.56 15.5692C15.56 15.2292 15.28 14.9492 14.94 14.9492C14.6 14.9492 14.32 15.2292 14.32 15.5692Z" fill="white"/> <path d="M13.08 13.079C13.08 13.419 13.36 13.699 13.7 13.699C14.04 13.699 14.32 13.419 14.32 13.079C14.32 12.739 14.04 12.459 13.7 12.459C13.36 12.459 13.08 12.739 13.08 13.079Z" fill="white"/> <path d="M4.82001 8.2793C7.28001 8.3693 7.43001 9.1593 10.18 9.1593C12.93 9.1593 13.08 8.3593 15.54 8.2793" stroke="white" stroke-width="1.5" stroke-linecap="round" stroke-linejoin="round"/> </g> <defs> <clipPath id="clip0_2085_391236"> <rect width="24" height="24" fill="white"/> </clipPath> </defs> </svg>
