<svg width="24" height="24" viewBox="0 0 24 24" fill="none" xmlns="http://www.w3.org/2000/svg"> <g clip-path="url(#clip0_2085_386643)"> <path d="M4.73 5.64014H4C2.9 5.64014 2 6.54014 2 7.64014V17.0001C2 19.7601 4.24 22.0001 7 22.0001H16.36C17.46 22.0001 18.36 21.1001 18.36 20.0001V19.2701" stroke="white" stroke-width="1.5" stroke-linecap="round" stroke-linejoin="round"/> <path d="M19 2H7.73001C6.07001 2 4.73001 3.34 4.73001 5V16.27C4.73001 17.93 6.07001 19.27 7.73001 19.27H19C20.66 19.27 22 17.93 22 16.27V5C22 3.34 20.66 2 19 2Z" stroke="white" stroke-width="1.5" stroke-linecap="round" stroke-linejoin="round"/> <path d="M11.09 8.71992V12.5499C11.09 13.3199 11.92 13.7999 12.59 13.4199L15.94 11.5099C16.61 11.1299 16.61 10.1599 15.94 9.76992L12.59 7.85992C11.92 7.47992 11.09 7.95992 11.09 8.72992V8.71992Z" stroke="white" stroke-width="1.5" stroke-linecap="round" stroke-linejoin="round"/> </g> <defs> <clipPath id="clip0_2085_386643"> <rect width="24" height="24" fill="white"/> </clipPath> </defs> </svg>
