<svg width="24" height="24" viewBox="0 0 24 24" fill="none" xmlns="http://www.w3.org/2000/svg"> <g clip-path="url(#clip0_4482_4027)"> <path d="M12.14 21.4996C13.6312 21.4996 14.84 20.2908 14.84 18.7996C14.84 17.3084 13.6312 16.0996 12.14 16.0996C10.6488 16.0996 9.43994 17.3084 9.43994 18.7996C9.43994 20.2908 10.6488 21.4996 12.14 21.4996Z" stroke="white" stroke-width="1.5" stroke-miterlimit="10" stroke-linecap="round" stroke-linejoin="round"/> <path d="M14.84 10.9697V18.7997" stroke="white" stroke-width="1.5" stroke-miterlimit="10" stroke-linecap="round" stroke-linejoin="round"/> <path d="M14.84 13.7404L20.4 11.5804C21 11.3504 21.5 10.6204 21.5 9.97038V9.61038C21.5 8.40038 20.28 7.56038 19.15 8.00038L15.9399 9.25038C15.2799 9.51038 14.84 10.1504 14.84 10.8604V13.7404Z" stroke="white" stroke-width="1.5" stroke-miterlimit="10" stroke-linecap="round" stroke-linejoin="round"/> <path d="M2.5 2.5H12" stroke="white" stroke-width="1.5" stroke-miterlimit="10" stroke-linecap="round" stroke-linejoin="round"/> <path d="M2.5 6.71973H12" stroke="white" stroke-width="1.5" stroke-miterlimit="10" stroke-linecap="round" stroke-linejoin="round"/> <path d="M2.5 10.9404H7.78003" stroke="white" stroke-width="1.5" stroke-miterlimit="10" stroke-linecap="round" stroke-linejoin="round"/> </g> <defs> <clipPath id="clip0_4482_4027"> <rect width="24" height="24" fill="white"/> </clipPath> </defs> </svg>
