<svg width="24" height="24" viewBox="0 0 24 24" fill="none" xmlns="http://www.w3.org/2000/svg"> <g clip-path="url(#clip0_2085_391127)"> <path d="M5.77998 11.9598L4.03998 11.3898C2.93998 11.0298 2.37998 9.80977 2.80998 8.73977L4.18998 5.34977C4.40998 4.80977 4.85998 4.38977 5.40998 4.20977L8.26998 3.25977" stroke="white" stroke-width="1.41" stroke-linecap="round" stroke-linejoin="round"/> <path d="M15.73 3.24023L18.59 4.19023C19.14 4.37023 19.59 4.79023 19.81 5.33023L21.19 8.72023C21.63 9.79023 21.06 11.0102 19.96 11.3702L18.22 11.9402" stroke="white" stroke-width="1.41" stroke-linecap="round" stroke-linejoin="round"/> <path d="M5.77997 6.98047V19.0005C5.77997 20.6605 7.11997 22.0005 8.77997 22.0005H15.23C16.89 22.0005 18.23 20.6605 18.23 19.0005V6.98047" stroke="white" stroke-width="1.41" stroke-linecap="round" stroke-linejoin="round"/> <path d="M2.88 8.51953L5.78 9.46953" stroke="white" stroke-width="1.41" stroke-linecap="round" stroke-linejoin="round"/> <path d="M21.12 8.51953L18.22 9.46953" stroke="white" stroke-width="1.41" stroke-linecap="round" stroke-linejoin="round"/> <path d="M11.1 5.73H8.26996C7.57996 4.36 8.13996 2.68 9.50996 2H14.49C14.49 4.23 13.06 6.21 10.95 6.92L10.76 6.98V10.71H12" stroke="white" stroke-width="1.41" stroke-linecap="round" stroke-linejoin="round"/> <path d="M9.51001 2C9.51001 3.84 10.48 5.5 12 6.43" stroke="white" stroke-width="1.41" stroke-linecap="round" stroke-linejoin="round"/> <path d="M12.9 5.73H15.73C16.42 4.36 15.86 2.68 14.49 2" stroke="white" stroke-width="1.41" stroke-linecap="round" stroke-linejoin="round"/> <path d="M5.77997 19.5098H18.23" stroke="white" stroke-width="1.41" stroke-linecap="round" stroke-linejoin="round"/> </g> <defs> <clipPath id="clip0_2085_391127"> <rect width="24" height="24" fill="white"/> </clipPath> </defs> </svg>
