<svg width="24" height="24" viewBox="0 0 24 24" fill="none" xmlns="http://www.w3.org/2000/svg"> <g clip-path="url(#clip0_4482_4145)"> <path d="M17.74 10.77C17.77 11.29 17.59 11.82 17.2 12.22L15.5 13.91L14.69 14.71L14.53 14.87L11.86 17.54H13.69C14.69 17.54 15.46 18.37 15.46 19.31C15.46 19.44 15.46 19.54 15.44 19.66C15.29 20.4 14.72 20.96 13.98 21.08L8.63 21.96C7.74 22.12 6.81999 21.82 6.17999 21.17L3.23999 18.23L3.16998 18.18C2.39998 17.41 2 16.38 2 15.35C2 14.32 2.39998 13.3 3.16998 12.52L5.27002 10.43C6.04002 9.65 7.22999 9.51 8.17999 10.05L11.13 11.78L11.33 11.9C11.65 12.08 12.05 12.03 12.3 11.78L14.53 9.55C14.77 9.31 15.05 9.15 15.36 9.08C15.52 9.02 15.69 9 15.86 9C16.34 9 16.83 9.19 17.2 9.55C17.53 9.89 17.72 10.33 17.74 10.77Z" stroke="white" stroke-width="1.5" stroke-miterlimit="10" stroke-linecap="round" stroke-linejoin="round"/> <path d="M21.55 5.07043V7.93043C21.55 11.1104 19.24 14.0804 16.08 14.9604C15.87 15.0104 15.64 15.0104 15.42 14.9604C15.17 14.8904 14.92 14.8104 14.69 14.7104L15.5 13.9104L17.2 12.2204C17.59 11.8204 17.77 11.2904 17.74 10.7704C17.72 10.3304 17.53 9.89043 17.2 9.55043C16.83 9.19043 16.34 9.00043 15.86 9.00043C15.69 9.00043 15.52 9.02043 15.36 9.08043C15.05 9.15043 14.77 9.31043 14.53 9.55043L12.3 11.7804C12.05 12.0304 11.65 12.0804 11.33 11.9004L11.13 11.7804C10.39 10.6404 9.96002 9.30043 9.96002 7.93043V5.07043C9.96002 4.54043 10.36 3.93043 10.86 3.73043L14.48 2.25043C15.3 1.92043 16.21 1.92043 17.03 2.25043L20.65 3.73043C21.14 3.93043 21.55 4.54043 21.55 5.07043Z" stroke="white" stroke-width="1.5" stroke-linecap="round" stroke-linejoin="round"/> </g> <defs> <clipPath id="clip0_4482_4145"> <rect width="24" height="24" fill="white"/> </clipPath> </defs> </svg>
