<svg width="24" height="24" viewBox="0 0 24 24" fill="none" xmlns="http://www.w3.org/2000/svg"> <g clip-path="url(#clip0_4482_12531)"> <path d="M13 6.44043V10.8804" stroke="white" stroke-width="1.5" stroke-linecap="round" stroke-linejoin="round"/> <path d="M16.3301 8.66992V9.77992" stroke="white" stroke-width="1.5" stroke-linecap="round" stroke-linejoin="round"/> <path d="M9.66992 15.3302V8.66016" stroke="white" stroke-width="1.5" stroke-linecap="round" stroke-linejoin="round"/> <path d="M2 16.4404V18.0004C2 20.2104 3.79 22.0004 6 22.0004H7.56" stroke="white" stroke-width="1.5" stroke-linecap="round" stroke-linejoin="round"/> <path d="M2 7.56V6C2 3.79 3.79 2 6 2H7.56" stroke="white" stroke-width="1.5" stroke-linecap="round" stroke-linejoin="round"/> <path d="M16.4399 2H17.9999C20.2099 2 21.9999 3.79 21.9999 6V7.56" stroke="white" stroke-width="1.5" stroke-linecap="round" stroke-linejoin="round"/> <path d="M6.33008 13.1096V10.8896" stroke="white" stroke-width="1.5" stroke-linecap="round" stroke-linejoin="round"/> <path d="M22.0098 15.1401V17.1101C22.0098 19.3001 20.4098 21.3601 18.2398 21.9601C18.0898 22.0001 17.9298 22.0001 17.7798 21.9601C15.5998 21.3601 14.0098 19.3001 14.0098 17.1101V15.1401C14.0098 14.7701 14.2898 14.3501 14.6298 14.2201L17.1298 13.1901C17.6898 12.9601 18.3298 12.9601 18.8898 13.1901L20.6498 13.9101L21.3898 14.2201C21.7298 14.3501 22.0098 14.7701 22.0098 15.1401Z" stroke="white" stroke-width="1.5" stroke-linecap="round" stroke-linejoin="round"/> </g> <defs> <clipPath id="clip0_4482_12531"> <rect width="24" height="24" fill="white"/> </clipPath> </defs> </svg>
