<svg width="24" height="24" viewBox="0 0 24 24" fill="none" xmlns="http://www.w3.org/2000/svg"> <g clip-path="url(#clip0_4482_14575)"> <path d="M13.3896 9.21996H15.6096C16.8396 9.21996 17.8296 10.21 17.8296 11.44V12.55C17.8296 13.78 16.8396 14.77 15.6096 14.77H13.3896V9.20996V9.21996Z" stroke="white" stroke-width="1.5" stroke-linecap="round" stroke-linejoin="round"/> <path d="M6.4502 14.7797V9.21973" stroke="white" stroke-width="1.5" stroke-linecap="round" stroke-linejoin="round"/> <path d="M6.4502 9.21973H8.9502C9.7202 9.21973 10.3402 9.83973 10.3402 10.6097V11.1697C10.3402 11.9397 9.7202 12.5597 8.9502 12.5597H6.4502" stroke="white" stroke-width="1.5" stroke-linecap="round" stroke-linejoin="round"/> <path d="M17 2H7C4.23858 2 2 4.23858 2 7V17C2 19.7614 4.23858 22 7 22H17C19.7614 22 22 19.7614 22 17V7C22 4.23858 19.7614 2 17 2Z" stroke="white" stroke-width="1.5"/> </g> <defs> <clipPath id="clip0_4482_14575"> <rect width="24" height="24" fill="white"/> </clipPath> </defs> </svg>
