<svg width="24" height="24" viewBox="0 0 24 24" fill="none" xmlns="http://www.w3.org/2000/svg"> <path d="M8.67 6.67C8.67 4.09 10.76 2 13.34 2C15.92 2 18.01 4.09 18.01 6.67V10" stroke="white" stroke-width="1.41" stroke-linecap="round" stroke-linejoin="round"/> <path d="M4.96 10.3799L8.67 6.66992L12.38 10.3799C12.57 10.5699 12.67 10.8199 12.67 11.0899V19.3399H4.67V11.0899C4.67 10.8199 4.78 10.5699 4.96 10.3799Z" stroke="white" stroke-width="1.41" stroke-linecap="round" stroke-linejoin="round"/> <path d="M12.67 19.3398H4.67V22.0098H12.67V19.3398Z" stroke="white" stroke-width="1.41" stroke-linecap="round" stroke-linejoin="round"/> <path d="M4 22H13.33" stroke="white" stroke-width="1.41" stroke-linecap="round" stroke-linejoin="round"/> <path d="M15.34 16.6699V15.3399C15.34 13.8699 16.53 12.6699 18.01 12.6699C19.49 12.6699 20.68 13.8599 20.68 15.3399V16.6699C20.68 18.1399 19.49 19.3399 18.01 19.3399C16.53 19.3399 15.34 18.1499 15.34 16.6699Z" stroke="white" stroke-width="1.41" stroke-linecap="round" stroke-linejoin="round"/> <path d="M19.33 13.0298C18.94 12.7998 18.48 12.6698 18 12.6698C17.52 12.6698 17.06 12.7998 16.67 13.0298V11.0098C16.67 10.4598 17.12 10.0098 17.67 10.0098H18.34C18.89 10.0098 19.34 10.4598 19.34 11.0098V13.0298H19.33Z" stroke="white" stroke-width="1.41" stroke-linecap="round" stroke-linejoin="round"/> <path d="M7.34 12V13.33" stroke="white" stroke-width="1.41" stroke-linecap="round" stroke-linejoin="round"/> <path d="M7.34 16V16.67" stroke="white" stroke-width="1.41" stroke-linecap="round" stroke-linejoin="round"/> </svg>
