<svg width="24" height="24" viewBox="0 0 24 24" fill="none" xmlns="http://www.w3.org/2000/svg"> <g clip-path="url(#clip0_2085_386853)"> <path d="M6.31999 9.56H17.68M6.31999 17.85H17.68M6.14999 2H12M12 2H17.85M12 2L9.06999 5.41M12 2L14.93 5.41M12 5.41C11.69 5.41 11.37 5.41 11.04 5.44C9.04999 5.54 8.05999 5.59 7.25999 6.37C6.45999 7.16 6.39999 8.22 6.26999 10.35C6.19999 11.47 6.14999 12.66 6.14999 13.71C6.14999 14.76 6.19999 15.95 6.26999 17.07C6.39999 19.2 6.46999 20.26 7.25999 21.05C8.05999 21.84 9.04999 21.89 11.04 21.98C11.37 22 11.69 22.01 12 22.01C12.31 22.01 12.63 22.01 12.96 21.98C14.95 21.88 15.94 21.83 16.74 21.05C17.54 20.26 17.6 19.2 17.73 17.07C17.8 15.95 17.85 14.76 17.85 13.71C17.85 12.66 17.8 11.47 17.73 10.35C17.6 8.22 17.53 7.16 16.74 6.37C15.94 5.58 14.95 5.53 12.96 5.44C12.63 5.42 12.31 5.41 12 5.41Z" stroke="white" stroke-width="1.5" stroke-linecap="round" stroke-linejoin="round"/> </g> <defs> <clipPath id="clip0_2085_386853"> <rect width="24" height="24" fill="white"/> </clipPath> </defs> </svg>
