<svg width="24" height="24" viewBox="0 0 24 24" fill="none" xmlns="http://www.w3.org/2000/svg"> <g clip-path="url(#clip0_2085_391021)"> <path d="M14.93 12.2803V14.5003" stroke="white" stroke-width="1.5" stroke-linecap="round" stroke-linejoin="round"/> <path d="M16.6 9.5V10.61C16.6 11.53 15.85 12.28 14.93 12.28C14.01 12.28 13.26 11.53 13.26 10.61V9.5" stroke="white" stroke-width="1.5" stroke-linecap="round" stroke-linejoin="round"/> <path d="M7.15002 9.5H9.09002C9.86002 9.5 10.48 10.12 10.48 10.89C10.48 11.66 9.86002 12.28 9.09002 12.28H7.15002V9.5Z" stroke="white" stroke-width="1.5" stroke-linecap="round" stroke-linejoin="round"/> <path d="M7.15002 9.5V14.5" stroke="white" stroke-width="1.5" stroke-linecap="round" stroke-linejoin="round"/> <path d="M16.34 2H7.42C4.36035 2 1.88 4.48034 1.88 7.54V16.46C1.88 19.5197 4.36035 22 7.42 22H16.34C19.3997 22 21.88 19.5197 21.88 16.46V7.54C21.88 4.48034 19.3997 2 16.34 2Z" stroke="white" stroke-width="1.5" stroke-linecap="round" stroke-linejoin="round"/> </g> <defs> <clipPath id="clip0_2085_391021"> <rect width="24" height="24" fill="white"/> </clipPath> </defs> </svg>
