<svg width="24" height="24" viewBox="0 0 24 24" fill="none" xmlns="http://www.w3.org/2000/svg"> <g clip-path="url(#clip0_4482_3819)"> <path d="M17.2 22.0004C19.2987 22.0004 21 20.2991 21 18.2004C21 16.1017 19.2987 14.4004 17.2 14.4004C15.1013 14.4004 13.4 16.1017 13.4 18.2004C13.4 20.2991 15.1013 22.0004 17.2 22.0004Z" stroke="white" stroke-width="1.5" stroke-miterlimit="10" stroke-linecap="round" stroke-linejoin="round"/> <path d="M5.79999 22.0004C7.89867 22.0004 9.59998 20.2991 9.59998 18.2004C9.59998 16.1017 7.89867 14.4004 5.79999 14.4004C3.70131 14.4004 2 16.1017 2 18.2004C2 20.2991 3.70131 22.0004 5.79999 22.0004Z" stroke="white" stroke-width="1.5" stroke-miterlimit="10" stroke-linecap="round" stroke-linejoin="round"/> <path d="M5.79999 18.2002L10.38 15.1402C10.93 14.7702 10.97 13.9802 10.45 13.5602L8.77002 12.2102C7.76002 11.4002 7.79999 9.84025 8.85999 9.09025L12.03 6.82025C12.82 6.26025 13.9 6.34025 14.59 7.03025C15.46 7.90025 15.34 9.34025 14.34 10.0502L10.1 13.0802" stroke="white" stroke-width="1.5" stroke-miterlimit="10" stroke-linecap="round" stroke-linejoin="round"/> <path d="M17.19 18.1998H17.2V11.5498" stroke="white" stroke-width="1.5" stroke-miterlimit="10" stroke-linecap="round" stroke-linejoin="round"/> <path d="M15.3 9.65039L17.2 11.5504L18.63 11.2404" stroke="white" stroke-width="1.5" stroke-miterlimit="10" stroke-linecap="round" stroke-linejoin="round"/> <path d="M16.66 5.38996L16.63 5.35996C16.07 4.63996 16.19 3.60996 16.91 3.04996L17.81 2.33996C18.53 1.77996 19.56 1.89996 20.12 2.61996L20.15 2.64996C20.71 3.36996 20.59 4.39996 19.87 4.95996L18.97 5.66996C18.26 6.23996 17.22 6.10996 16.66 5.38996Z" stroke="white" stroke-width="1.5" stroke-miterlimit="10" stroke-linecap="round" stroke-linejoin="round"/> </g> <defs> <clipPath id="clip0_4482_3819"> <rect width="24" height="24" fill="white"/> </clipPath> </defs> </svg>
