<svg width="24" height="24" viewBox="0 0 24 24" fill="none" xmlns="http://www.w3.org/2000/svg"> <g clip-path="url(#clip0_2085_386860)"> <path d="M13.48 9.33008C15.01 9.69008 16.36 10.6001 17.26 11.8901C18.16 13.1801 18.56 14.7501 18.38 16.3201C18.2 17.8801 17.45 19.3201 16.27 20.3701C15.09 21.4201 13.58 21.9901 12 21.9901C10.42 21.9901 8.91002 21.4101 7.73002 20.3701C6.55002 19.3201 5.80002 17.8801 5.62002 16.3201C5.44002 14.7601 5.84002 13.1801 6.74002 11.8901C7.64002 10.6001 8.99002 9.69008 10.52 9.33008V12.3901C10.52 12.5801 10.6 12.7701 10.73 12.9101C10.87 13.0501 11.05 13.1301 11.25 13.1301H12.74C12.93 13.1301 13.12 13.0501 13.26 12.9101C13.4 12.7701 13.47 12.5901 13.47 12.3901V9.33008H13.48Z" stroke="white" stroke-width="1.5" stroke-linecap="round" stroke-linejoin="round"/> <path d="M13.48 12.21C14.25 12.55 14.89 13.14 15.27 13.89C15.66 14.64 15.77 15.5 15.6 16.33C15.43 17.16 14.97 17.9 14.32 18.43C13.66 18.96 12.85 19.25 12 19.25C11.15 19.25 10.34 18.96 9.68004 18.43C9.02004 17.9 8.57004 17.16 8.40004 16.33C8.23004 15.5 8.34004 14.64 8.73004 13.89C9.12004 13.14 9.75004 12.55 10.52 12.21V12.39C10.52 12.58 10.6 12.77 10.73 12.91C10.87 13.05 11.05 13.13 11.25 13.13H12.74C12.93 13.13 13.12 13.05 13.26 12.91C13.4 12.77 13.47 12.59 13.47 12.39V12.21H13.48Z" stroke="white" stroke-width="1.5" stroke-linecap="round" stroke-linejoin="round"/> <path d="M13.48 12.3902C13.48 12.5802 13.4 12.7702 13.27 12.9102C13.13 13.0502 12.95 13.1302 12.75 13.1302H11.26C11.07 13.1302 10.88 13.0502 10.74 12.9102C10.6 12.7702 10.53 12.5902 10.53 12.3902V8.4402C10.53 8.2502 10.61 8.0602 10.75 7.9202C10.89 7.7802 11.07 7.7102 11.27 7.7002H12.76C12.95 7.7002 13.14 7.7802 13.28 7.9202C13.42 8.0602 13.5 8.2402 13.5 8.4402V12.3902H13.48Z" stroke="white" stroke-width="1.5" stroke-linecap="round" stroke-linejoin="round"/> <path d="M12 2V7.53" stroke="white" stroke-width="1.5" stroke-linecap="round" stroke-linejoin="round"/> <path d="M8.81 2H15.19" stroke="white" stroke-width="1.5" stroke-linecap="round" stroke-linejoin="round"/> </g> <defs> <clipPath id="clip0_2085_386860"> <rect width="24" height="24" fill="white"/> </clipPath> </defs> </svg>
