<svg width="24" height="24" viewBox="0 0 24 24" fill="none" xmlns="http://www.w3.org/2000/svg"> <g clip-path="url(#clip0_2085_391317)"> <path d="M8.54 2L4.69 5.85L8.54 9.7" stroke="white" stroke-width="1.71" stroke-linecap="round" stroke-linejoin="round"/> <path d="M3.91998 13.9198C3.91998 15.5198 4.38998 17.0798 5.27998 18.4098C6.16998 19.7398 7.42998 20.7698 8.89998 21.3798C10.38 21.9898 12 22.1498 13.57 21.8398C15.14 21.5298 16.58 20.7598 17.71 19.6298C18.84 18.4998 19.61 17.0598 19.92 15.4898C20.23 13.9198 20.07 12.2998 19.46 10.8198C18.85 9.33984 17.81 8.07984 16.49 7.19984C15.16 6.30984 13.6 5.83984 12 5.83984H4.68998" stroke="white" stroke-width="1.71" stroke-linecap="round" stroke-linejoin="round"/> </g> <defs> <clipPath id="clip0_2085_391317"> <rect width="24" height="24" fill="white"/> </clipPath> </defs> </svg>
