<svg width="24" height="24" viewBox="0 0 24 24" fill="none" xmlns="http://www.w3.org/2000/svg"> <g clip-path="url(#clip0_4482_8905)"> <path d="M4.5 10H3C2.45 10 2 10.45 2 11V13.5C2 14.05 2.45 14.5 3 14.5H21C21.55 14.5 22 14.05 22 13.5V11C22 10.45 21.55 10 21 10H19.5" stroke="white" stroke-width="1.5" stroke-linecap="round" stroke-linejoin="round"/> <path d="M19.5 10C19.5 5.86 16.14 2.5 12 2.5C7.86 2.5 4.5 5.86 4.5 10" stroke="white" stroke-width="1.5" stroke-linecap="round" stroke-linejoin="round"/> <path d="M19.5 10C19.5 5.86 16.14 2.5 12 2.5C7.86 2.5 4.5 5.86 4.5 10" stroke="white" stroke-width="1.5" stroke-linecap="round" stroke-linejoin="round"/> <path d="M8 10H16C16 7.79 14.21 6 12 6C9.79 6 8 7.79 8 10Z" stroke="white" stroke-width="1.5" stroke-linecap="round" stroke-linejoin="round"/> <path d="M5.76 17.5H20.5C21.33 17.5 22 18.17 22 19V20C22 20.83 21.33 21.5 20.5 21.5H5.76C5.23 21.5 4.71 21.36 4.25 21.09L2.25 19.93C2.1 19.84 2 19.68 2 19.5C2 19.32 2.1 19.16 2.25 19.07L4.25 17.91C4.71 17.64 5.23 17.5 5.76 17.5Z" stroke="white" stroke-width="1.5" stroke-linecap="round" stroke-linejoin="round"/> <path d="M17.5 17.5V21.5" stroke="white" stroke-width="1.5" stroke-linecap="round" stroke-linejoin="round"/> </g> <defs> <clipPath id="clip0_4482_8905"> <rect width="24" height="24" fill="white"/> </clipPath> </defs> </svg>
