<svg width="24" height="24" viewBox="0 0 24 24" fill="none" xmlns="http://www.w3.org/2000/svg"> <g clip-path="url(#clip0_4482_3956)"> <path d="M20.73 13.98C19.03 15.68 16.75 16.55 14.51 16.55C12.27 16.55 9.98998 15.68 8.28998 13.98C4.86998 10.56 4.86998 4.96004 8.28998 1.54004L20.73 13.98Z" stroke="white" stroke-width="1.5" stroke-miterlimit="10" stroke-linecap="round" stroke-linejoin="round"/> <path d="M6.21002 11.1699L4.27002 18.9999L11.09 16.0699" stroke="white" stroke-width="1.5" stroke-miterlimit="10" stroke-linecap="round" stroke-linejoin="round"/> <path d="M18.54 11.7395V5.51953" stroke="white" stroke-width="1.5" stroke-miterlimit="10" stroke-linecap="round" stroke-linejoin="round"/> <path d="M16.76 3.73047H10.48" stroke="white" stroke-width="1.5" stroke-miterlimit="10" stroke-linecap="round" stroke-linejoin="round"/> <path d="M18.54 5.5102C19.5231 5.5102 20.32 4.71326 20.32 3.7302C20.32 2.74713 19.5231 1.9502 18.54 1.9502C17.5569 1.9502 16.76 2.74713 16.76 3.7302C16.76 4.71326 17.5569 5.5102 18.54 5.5102Z" stroke="white" stroke-width="1.5" stroke-miterlimit="10" stroke-linecap="round" stroke-linejoin="round"/> <path d="M3.01999 22.0002H20.99C21.55 22.0002 22.01 21.5402 22.01 20.9802V20.0102C22.01 19.4502 21.55 18.9902 20.99 18.9902H3.01999C2.45999 18.9902 2 19.4502 2 20.0102V20.9802C2 21.5402 2.45999 22.0002 3.01999 22.0002Z" stroke="white" stroke-width="1.5" stroke-miterlimit="10" stroke-linecap="round" stroke-linejoin="round"/> </g> <defs> <clipPath id="clip0_4482_3956"> <rect width="24" height="24" fill="white"/> </clipPath> </defs> </svg>
