<svg width="24" height="24" viewBox="0 0 24 24" fill="none" xmlns="http://www.w3.org/2000/svg"> <g clip-path="url(#clip0_3111_11601)"> <path d="M21 11.5C21 16.75 16.75 21 11.5 21C6.25 21 2 16.75 2 11.5C2 6.25 6.25 2 11.5 2" stroke="white" stroke-width="1.5" stroke-linecap="round" stroke-linejoin="round"/> <path d="M22 22L20 20" stroke="white" stroke-width="1.5" stroke-linecap="round" stroke-linejoin="round"/> <path d="M20.92 6.02L19.56 6.34C18.59 6.57 17.83 7.32 17.61 8.29L17.29 9.65C17.26 9.79 17.05 9.79 17.02 9.65L16.7 8.29C16.47 7.32 15.72 6.56 14.75 6.34L13.39 6.02C13.25 5.99 13.25 5.78 13.39 5.75L14.75 5.43C15.72 5.2 16.48 4.45 16.7 3.48L17.02 2.12C17.05 1.98 17.26 1.98 17.29 2.12L17.61 3.48C17.84 4.45 18.59 5.21 19.56 5.43L20.92 5.75C21.06 5.78 21.06 5.99 20.92 6.02Z" stroke="white" stroke-width="1.5" stroke-miterlimit="10"/> </g> <defs> <clipPath id="clip0_3111_11601"> <rect width="24" height="24" fill="white"/> </clipPath> </defs> </svg>
