<svg width="24" height="24" viewBox="0 0 24 24" fill="none" xmlns="http://www.w3.org/2000/svg"> <g clip-path="url(#clip0_4482_426)"> <path d="M5.54027 12.59C0.860273 12.92 0.860273 19.73 5.54027 20.06H16.6302C17.9802 20.07 19.2803 19.57 20.2703 18.66C23.5603 15.79 21.8002 10.02 17.4702 9.46999C15.9102 0.0999913 2.3802 3.65999 5.5902 12.59" stroke="white" stroke-width="1.5" stroke-miterlimit="10" stroke-linecap="round" stroke-linejoin="round"/> <path d="M11.8502 14.49C12.7402 14.49 13.4602 13.77 13.4602 12.88C13.4602 11.99 12.7402 11.27 11.8502 11.27C10.9602 11.27 10.2402 11.99 10.2402 12.88C10.2402 13.77 10.9602 14.49 11.8502 14.49Z" stroke="white" stroke-width="1.5" stroke-linecap="round" stroke-linejoin="round"/> <path d="M13.0601 14.0898L14 15.0298" stroke="white" stroke-width="1.5" stroke-linecap="round" stroke-linejoin="round"/> </g> <defs> <clipPath id="clip0_4482_426"> <rect width="24" height="24" fill="white"/> </clipPath> </defs> </svg>
