<svg width="24" height="24" viewBox="0 0 24 24" fill="none" xmlns="http://www.w3.org/2000/svg"> <g clip-path="url(#clip0_4418_9970)"> <path d="M10.49 2.23055L5.50003 4.10055C4.35003 4.53055 3.41003 5.89055 3.41003 7.12055V14.5505C3.41003 15.7305 4.19005 17.2805 5.14005 17.9905L9.44003 21.2005C10.85 22.2605 13.17 22.2605 14.58 21.2005L18.88 17.9905C19.83 17.2805 20.61 15.7305 20.61 14.5505V7.12055C20.61 5.89055 19.67 4.53055 18.52 4.10055L13.53 2.23055C12.68 1.92055 11.32 1.92055 10.49 2.23055Z" stroke="white" stroke-width="1.5" stroke-linecap="round" stroke-linejoin="round"/> <path d="M12 15.5C14.2091 15.5 16 13.7091 16 11.5C16 9.29086 14.2091 7.5 12 7.5C9.79086 7.5 8 9.29086 8 11.5C8 13.7091 9.79086 15.5 12 15.5Z" stroke="white" stroke-width="1.5" stroke-miterlimit="10" stroke-linecap="round" stroke-linejoin="round"/> <path d="M12.25 10.25V11.18C12.25 11.53 12.07 11.86 11.76 12.04L11 12.5" stroke="white" stroke-width="1.5" stroke-miterlimit="10" stroke-linecap="round" stroke-linejoin="round"/> </g> <defs> <clipPath id="clip0_4418_9970"> <rect width="24" height="24" fill="white"/> </clipPath> </defs> </svg>
