<svg width="24" height="24" viewBox="0 0 24 24" fill="none" xmlns="http://www.w3.org/2000/svg"> <g clip-path="url(#clip0_4482_3983)"> <path d="M10.42 2.93L8.03002 7.26C7.38002 8.44 8.10999 9.99001 9.30999 9.99001H14.69C15.89 9.99001 16.62 8.44 15.97 7.26L13.58 2.93C12.9 1.69 11.1 1.69 10.42 2.93Z" stroke="white" stroke-width="1.5" stroke-miterlimit="10" stroke-linecap="round" stroke-linejoin="round"/> <path d="M12 13V10.75" stroke="white" stroke-width="1.5" stroke-miterlimit="10" stroke-linecap="round" stroke-linejoin="round"/> <path d="M14.28 22H9.71003C8.68003 22 7.81997 21.22 7.71997 20.2L7.21003 15.2C7.09003 14.02 8.02002 13 9.20002 13H14.78C15.96 13 16.89 14.02 16.77 15.2L16.26 20.2C16.17 21.22 15.31 22 14.28 22Z" stroke="white" stroke-width="1.5" stroke-linecap="round" stroke-linejoin="round"/> <path d="M16.25 17.5H13.25" stroke="white" stroke-width="1.5" stroke-miterlimit="10" stroke-linecap="round" stroke-linejoin="round"/> </g> <defs> <clipPath id="clip0_4482_3983"> <rect width="24" height="24" fill="white"/> </clipPath> </defs> </svg>
