<svg width="24" height="24" viewBox="0 0 24 24" fill="none" xmlns="http://www.w3.org/2000/svg"> <g clip-path="url(#clip0_4482_14582)"> <path d="M13.3301 14.2203V9.78027L15.7201 11.8203L18.1101 9.78027V14.2203" stroke="white" stroke-width="1.5" stroke-linecap="round" stroke-linejoin="round"/> <path d="M19.0702 4.92973C22.9802 8.83973 22.9802 15.1697 19.0702 19.0697C15.1602 22.9797 8.83022 22.9797 4.93022 19.0697C1.03022 15.1597 1.02022 8.82973 4.93022 4.92973C8.84022 1.02973 15.1702 1.01973 19.0702 4.92973Z" stroke="white" stroke-width="1.5" stroke-linecap="round" stroke-linejoin="round"/> <path d="M10.0601 9.78027H6.98012C6.37012 9.78027 5.87012 10.2803 5.87012 10.8903C5.87012 11.5003 6.37012 12.0003 6.98012 12.0003H9.20012C9.81012 12.0003 10.3101 12.5003 10.3101 13.1103C10.3101 13.7203 9.81012 14.2203 9.20012 14.2203H6.12012" stroke="white" stroke-width="1.5" stroke-linecap="round" stroke-linejoin="round"/> </g> <defs> <clipPath id="clip0_4482_14582"> <rect width="24" height="24" fill="white"/> </clipPath> </defs> </svg>
