<svg width="24" height="24" viewBox="0 0 24 24" fill="none" xmlns="http://www.w3.org/2000/svg"> <g clip-path="url(#clip0_4482_12106)"> <path d="M17.5601 12H13.1201" stroke="white" stroke-width="1.5" stroke-linecap="round" stroke-linejoin="round"/> <path d="M19.7801 6.44C18.5501 6.44 17.5601 5.45 17.5601 4.22C17.5601 2.99 18.5501 2 19.7801 2C21.0101 2 22.0001 2.99 22.0001 4.22C22.0001 5.45 21.0101 6.44 19.7801 6.44Z" stroke="white" stroke-width="1.5" stroke-linecap="round" stroke-linejoin="round"/> <path d="M19.7801 14.2203C18.5501 14.2203 17.5601 13.2303 17.5601 12.0003C17.5601 10.7703 18.5501 9.78027 19.7801 9.78027C21.0101 9.78027 22.0001 10.7703 22.0001 12.0003C22.0001 13.2303 21.0101 14.2203 19.7801 14.2203Z" stroke="white" stroke-width="1.5" stroke-linecap="round" stroke-linejoin="round"/> <path d="M19.7801 21.9996C18.5501 21.9996 17.5601 21.0096 17.5601 19.7796C17.5601 18.5496 18.5501 17.5596 19.7801 17.5596C21.0101 17.5596 22.0001 18.5496 22.0001 19.7796C22.0001 21.0096 21.0101 21.9996 19.7801 21.9996Z" stroke="white" stroke-width="1.5" stroke-linecap="round" stroke-linejoin="round"/> <path d="M19.7798 9.7802V6.4502" stroke="white" stroke-width="1.5" stroke-linecap="round" stroke-linejoin="round"/> <path d="M19.7798 17.5605V14.2305" stroke="white" stroke-width="1.5" stroke-linecap="round" stroke-linejoin="round"/> <path d="M13.11 8.66992H2" stroke="white" stroke-width="1.5" stroke-linecap="round" stroke-linejoin="round"/> <path d="M13.11 15.3301H2" stroke="white" stroke-width="1.5" stroke-linecap="round" stroke-linejoin="round"/> <path d="M7.56 22C4.49 22 2 19.51 2 16.44V7.56C2 4.49 4.49 2 7.56 2C10.63 2 13.12 4.49 13.12 7.56V16.45C13.12 19.52 10.63 22.01 7.56 22.01V22Z" stroke="white" stroke-width="1.5" stroke-linecap="round" stroke-linejoin="round"/> </g> <defs> <clipPath id="clip0_4482_12106"> <rect width="24" height="24" fill="white"/> </clipPath> </defs> </svg>
