<svg width="24" height="24" viewBox="0 0 24 24" fill="none" xmlns="http://www.w3.org/2000/svg"> <g clip-path="url(#clip0_4482_7680)"> <path d="M15.6804 9.37H10.9404" stroke="white" stroke-width="1.5" stroke-linecap="round" stroke-linejoin="round"/> <path d="M9.37004 10.95C10.2426 10.95 10.95 10.2426 10.95 9.37004C10.95 8.49743 10.2426 7.79004 9.37004 7.79004C8.49743 7.79004 7.79004 8.49743 7.79004 9.37004C7.79004 10.2426 8.49743 10.95 9.37004 10.95Z" stroke="white" stroke-width="1.5" stroke-linecap="round" stroke-linejoin="round"/> <path d="M8.32031 14.63H13.0603" stroke="white" stroke-width="1.5" stroke-linecap="round" stroke-linejoin="round"/> <path d="M14.6298 16.21C15.5024 16.21 16.2098 15.5027 16.2098 14.63C16.2098 13.7574 15.5024 13.05 14.6298 13.05C13.7572 13.05 13.0498 13.7574 13.0498 14.63C13.0498 15.5027 13.7572 16.21 14.6298 16.21Z" stroke="white" stroke-width="1.5" stroke-linecap="round" stroke-linejoin="round"/> <path d="M12 22C17.5228 22 22 17.5228 22 12C22 6.47715 17.5228 2 12 2C6.47715 2 2 6.47715 2 12C2 17.5228 6.47715 22 12 22Z" stroke="white" stroke-width="1.5" stroke-linecap="round" stroke-linejoin="round"/> </g> <defs> <clipPath id="clip0_4482_7680"> <rect width="24" height="24" fill="white"/> </clipPath> </defs> </svg>
