<svg width="24" height="24" viewBox="0 0 24 24" fill="none" xmlns="http://www.w3.org/2000/svg"> <g clip-path="url(#clip0_4482_12538)"> <path d="M9 14.5H12.5" stroke="white" stroke-width="1.5" stroke-linecap="round" stroke-linejoin="round"/> <path d="M14 16C14.8284 16 15.5 15.3284 15.5 14.5C15.5 13.6716 14.8284 13 14 13C13.1716 13 12.5 13.6716 12.5 14.5C12.5 15.3284 13.1716 16 14 16Z" stroke="white" stroke-width="1.5" stroke-linecap="round" stroke-linejoin="round"/> <path d="M15 9.5H11.5" stroke="white" stroke-width="1.5" stroke-linecap="round" stroke-linejoin="round"/> <path d="M10 11C10.8284 11 11.5 10.3284 11.5 9.5C11.5 8.67157 10.8284 8 10 8C9.17157 8 8.5 8.67157 8.5 9.5C8.5 10.3284 9.17157 11 10 11Z" stroke="white" stroke-width="1.5" stroke-linecap="round" stroke-linejoin="round"/> <path d="M20.9198 6.72957V11.1196C20.9198 15.9996 17.3498 20.5896 12.5198 21.9296C12.1898 22.0196 11.8298 22.0196 11.4898 21.9296C6.62984 20.5896 3.08984 15.9996 3.08984 11.1196V6.72957C3.08984 5.90957 3.70984 4.96957 4.46984 4.67957L10.0398 2.37957C11.2898 1.86957 12.7098 1.86957 13.9598 2.37957L17.8798 3.97957L19.5298 4.66957C20.2898 4.95957 20.9098 5.89957 20.9098 6.71957H20.9198V6.72957Z" stroke="white" stroke-width="1.5" stroke-linecap="round" stroke-linejoin="round"/> </g> <defs> <clipPath id="clip0_4482_12538"> <rect width="24" height="24" fill="white"/> </clipPath> </defs> </svg>
