<svg width="24" height="24" viewBox="0 0 24 24" fill="none" xmlns="http://www.w3.org/2000/svg"> <g clip-path="url(#clip0_4482_14388)"> <path d="M12.6599 6.71C12.6199 6.14 12.5999 5.57 12.5999 5C12.5999 3.35 11.2599 2 9.59991 2H6.17991C4.52991 2 3.17991 3.34 3.17991 5V6.71L2.01991 14.6C1.80991 16.02 2.90991 17.3 4.34991 17.3H10.5499" stroke="white" stroke-width="1.5" stroke-linecap="round" stroke-linejoin="round"/> <path d="M21.0699 13.1004L21.9799 19.3004C22.1899 20.7204 21.0899 21.9904 19.6499 21.9904H12.5799C11.1399 21.9904 10.0399 20.7204 10.2499 19.2904L11.4099 11.4004V9.69043C11.4099 8.04043 12.7499 6.69043 14.4099 6.69043H17.8299C19.4799 6.69043 20.8299 8.03043 20.8299 9.69043C20.8299 10.8304 20.9099 11.9604 21.0799 13.0904L21.0699 13.1004Z" stroke="white" stroke-width="1.5" stroke-linecap="round" stroke-linejoin="round"/> <path d="M20.8902 11.4102H11.4102" stroke="white" stroke-width="1.5" stroke-linecap="round" stroke-linejoin="round"/> <path d="M14.4199 6.70996H3.18994" stroke="white" stroke-width="1.5" stroke-linecap="round" stroke-linejoin="round"/> </g> <defs> <clipPath id="clip0_4482_14388"> <rect width="24" height="24" fill="white"/> </clipPath> </defs> </svg>
