<svg width="24" height="24" viewBox="0 0 24 24" fill="none" xmlns="http://www.w3.org/2000/svg"> <g clip-path="url(#clip0_4482_7655)"> <path d="M5.33018 14.08L2.47018 16.11C2.07018 16.4 1.90018 16.91 2.06018 17.38L3.14018 20.61C3.29018 21.07 3.72018 21.38 4.20018 21.38H7.77018C8.25018 21.38 8.68018 21.07 8.83018 20.61L9.91018 17.38C10.0702 16.91 9.90018 16.4 9.50018 16.11L6.64018 14.08C6.25018 13.8 5.73018 13.8 5.34018 14.08H5.33018Z" stroke="white" stroke-width="1.5"/> <path d="M3.57 2.62H8.39C8.98 2.62 9.46 3.1 9.46 3.69V8.51C9.46 9.1 8.98 9.58 8.39 9.58H3.57C2.98 9.58 2.5 9.1 2.5 8.51V3.7C2.5 3.11 2.98 2.63 3.57 2.63V2.62Z" stroke="white" stroke-width="1.5" stroke-linecap="round" stroke-linejoin="round"/> <path d="M17.9702 13.88C15.9002 13.88 14.2202 15.56 14.2202 17.63C14.2202 19.7 15.9002 21.38 17.9702 21.38C20.0402 21.38 21.7202 19.7 21.7202 17.63C21.7202 15.56 20.0402 13.88 17.9702 13.88Z" stroke="white" stroke-width="1.5" stroke-linecap="round" stroke-linejoin="round"/> <path d="M16.8703 3.23995L14.1403 7.60995C13.6003 8.46995 14.2203 9.59995 15.2403 9.59995H20.7003C21.7203 9.59995 22.3403 8.47995 21.8003 7.60995L19.0703 3.23995C18.5603 2.42995 17.3803 2.42995 16.8703 3.23995Z" stroke="white" stroke-width="1.5" stroke-linecap="round" stroke-linejoin="round"/> </g> <defs> <clipPath id="clip0_4482_7655"> <rect width="24" height="24" fill="white"/> </clipPath> </defs> </svg>
