<svg width="24" height="24" viewBox="0 0 24 24" fill="none" xmlns="http://www.w3.org/2000/svg"> <g clip-path="url(#clip0_4482_556)"> <path d="M18 8.4V10.5C18 10.91 17.8301 11.29 17.5601 11.56C17.4901 11.63 17.4201 11.69 17.3401 11.75C17.2601 11.8 17.1801 11.85 17.1001 11.88C16.9101 11.96 16.72 12.01 16.5 12.01C15.67 12.01 15 11.34 15 10.51C15 11.34 14.33 12.01 13.5 12.01C12.67 12.01 12 11.34 12 10.51C12 11.34 11.33 12.01 10.5 12.01C9.67 12.01 9 11.34 9 10.51C9 11.34 8.33 12.01 7.5 12.01C7.28 12.01 7.0899 11.96 6.8999 11.88C6.8199 11.84 6.73991 11.8 6.65991 11.75C6.49991 11.64 6.37001 11.5 6.26001 11.35C6.10001 11.11 6 10.82 6 10.51V8.4C6 7.07 7.0699 6 8.3999 6H15.6001C16.9201 6 18 7.08 18 8.4Z" stroke="white" stroke-width="1.5" stroke-linecap="round" stroke-linejoin="round"/> <path d="M17.1001 11.8701V15.6001C17.1001 16.9201 16.02 18.0001 14.7 18.0001H9.30005C7.98005 18.0001 6.8999 16.9201 6.8999 15.6001V11.8701" stroke="white" stroke-width="1.5" stroke-linecap="round" stroke-linejoin="round"/> <path d="M17 22H7C4.25 22 2 19.75 2 17V7C2 4.25 4.25 2 7 2H17C19.75 2 22 4.25 22 7V17C22 19.75 19.75 22 17 22Z" stroke="white" stroke-width="1.5" stroke-linecap="round" stroke-linejoin="round"/> </g> <defs> <clipPath id="clip0_4482_556"> <rect width="24" height="24" fill="white"/> </clipPath> </defs> </svg>
