<svg width="24" height="24" viewBox="0 0 24 24" fill="none" xmlns="http://www.w3.org/2000/svg"> <g clip-path="url(#clip0_4482_4171)"> <path d="M6.03999 4.66992H17.96C18.94 4.66992 19.78 5.37992 19.94 6.35992L21.64 17.0299C21.83 18.2399 20.89 19.3399 19.66 19.3399H15.89C14.92 19.3399 14.1 18.6499 13.92 17.6999L13.31 14.3199C13.19 13.6899 12.64 13.2299 12 13.2299C11.36 13.2299 10.81 13.6899 10.69 14.3199L10.08 17.6999C9.90999 18.6499 9.07999 19.3399 8.10999 19.3399H4.33999C3.10999 19.3399 2.16999 18.2399 2.35999 17.0299L4.05999 6.35992C4.21999 5.37992 5.05999 4.66992 6.03999 4.66992Z" stroke="white" stroke-width="1.5" stroke-miterlimit="10" stroke-linecap="round" stroke-linejoin="round"/> <path d="M20 9H4" stroke="white" stroke-width="1.5" stroke-miterlimit="10" stroke-linecap="round" stroke-linejoin="round"/> </g> <defs> <clipPath id="clip0_4482_4171"> <rect width="24" height="24" fill="white"/> </clipPath> </defs> </svg>
