<svg width="24" height="24" viewBox="0 0 24 24" fill="none" xmlns="http://www.w3.org/2000/svg"> <g clip-path="url(#clip0_4482_4214)"> <path d="M11 6H5.5C4.67 6 4 6.67 4 7.5C4 8.33 4.67 9 5.5 9H12.5C13.33 9 14 8.32 14 7.5C14 6.67 13.33 6 12.5 6H9V4.5C9 3.12 10.12 2 11.5 2H14.99C16.65 2 18 3.35 17.99 5.01L17.95 17.5" stroke="white" stroke-width="1.5" stroke-miterlimit="10" stroke-linecap="round" stroke-linejoin="round"/> <path d="M6 12L5 14" stroke="white" stroke-width="1.5" stroke-miterlimit="10" stroke-linecap="round" stroke-linejoin="round"/> <path d="M12 12L13 14" stroke="white" stroke-width="1.5" stroke-miterlimit="10" stroke-linecap="round" stroke-linejoin="round"/> <path d="M9 12V14" stroke="white" stroke-width="1.5" stroke-miterlimit="10" stroke-linecap="round" stroke-linejoin="round"/> <path d="M15.92 22H20.08C21.14 22 21.79 21.16 21.54 20.14L21.29 19.14C21.13 18.52 20.48 18 19.83 18H16.17C15.53 18 14.87 18.51 14.71 19.14L14.46 20.14C14.21 21.16 14.86 22 15.92 22Z" stroke="white" stroke-width="1.5" stroke-miterlimit="10" stroke-linecap="round" stroke-linejoin="round"/> </g> <defs> <clipPath id="clip0_4482_4214"> <rect width="24" height="24" fill="white"/> </clipPath> </defs> </svg>
