<svg width="22" height="19" viewBox="0 0 22 19" fill="none" xmlns="http://www.w3.org/2000/svg"> <g clip-path="url(#clip0_2085_382497)"> <path d="M3.61 10.0391L2.18 11.4691L0.75 10.0391" stroke="white" stroke-width="1.5" stroke-linecap="round" stroke-linejoin="round"/> <path d="M17.89 8.60969L19.32 7.17969L20.75 8.60969" stroke="white" stroke-width="1.5" stroke-linecap="round" stroke-linejoin="round"/> <path d="M17.77 4.41C16.22 2.2 13.66 0.75 10.75 0.75C6.01999 0.75 2.17999 4.59 2.17999 9.32C2.17999 9.98 2.25999 10.62 2.39999 11.24" stroke="white" stroke-width="1.5" stroke-linecap="round" stroke-linejoin="round"/> <path d="M3.73001 14.2304C5.28001 16.4404 7.84001 17.8904 10.75 17.8904C15.48 17.8904 19.32 14.0504 19.32 9.32039C19.32 8.66039 19.24 8.02039 19.1 7.40039" stroke="white" stroke-width="1.5" stroke-linecap="round" stroke-linejoin="round"/> <path d="M13.61 8.03977V12.2898C13.61 12.7598 13.23 13.1398 12.76 13.1398H8.74001C8.27001 13.1398 7.89001 12.7598 7.89001 12.2898V6.35977C7.89001 5.88977 8.27001 5.50977 8.74001 5.50977H11.13C11.36 5.50977 11.58 5.59977 11.74 5.76977L13.37 7.44977C13.52 7.60977 13.61 7.81977 13.61 8.03977Z" stroke="white" stroke-width="1.5" stroke-linecap="round" stroke-linejoin="round"/> </g> <defs> <clipPath id="clip0_2085_382497"> <rect width="21.5" height="18.64" fill="white"/> </clipPath> </defs> </svg>
