<svg width="24" height="24" viewBox="0 0 24 24" fill="none" xmlns="http://www.w3.org/2000/svg"> <g clip-path="url(#clip0_4482_3698)"> <path d="M7.08997 9.85965L7.45998 9.48965C8.29998 8.64965 9.58997 8.43965 10.66 8.96965" stroke="white" stroke-width="1.5" stroke-miterlimit="10" stroke-linecap="round" stroke-linejoin="round"/> <path d="M16.91 9.85965L16.54 9.48965C15.7 8.64965 14.41 8.43965 13.34 8.96965" stroke="white" stroke-width="1.5" stroke-miterlimit="10" stroke-linecap="round" stroke-linejoin="round"/> <path d="M12 22C17.5228 22 22 17.5228 22 12C22 6.47715 17.5228 2 12 2C6.47715 2 2 6.47715 2 12C2 17.5228 6.47715 22 12 22Z" stroke="white" stroke-width="1.5" stroke-miterlimit="10" stroke-linecap="round" stroke-linejoin="round"/> <path d="M7.56001 14.8901C8.07001 16.5601 9.31001 17.8401 10.87 18.2601C11.61 18.4601 12.4 18.4601 13.14 18.2601C14.69 17.8301 15.94 16.5601 16.45 14.8901C16.5 14.7401 16.39 14.5801 16.25 14.5801C13.46 15.2401 10.56 15.2401 7.77002 14.5801C7.61002 14.5801 7.51001 14.7401 7.56001 14.8901Z" stroke="white" stroke-width="1.5" stroke-miterlimit="10" stroke-linecap="round" stroke-linejoin="round"/> </g> <defs> <clipPath id="clip0_4482_3698"> <rect width="24" height="24" fill="white"/> </clipPath> </defs> </svg>
