<svg width="24" height="24" viewBox="0 0 24 24" fill="none" xmlns="http://www.w3.org/2000/svg"> <g clip-path="url(#clip0_4482_11889)"> <path d="M7 13C7.82843 13 8.5 12.3284 8.5 11.5C8.5 10.6716 7.82843 10 7 10C6.17157 10 5.5 10.6716 5.5 11.5C5.5 12.3284 6.17157 13 7 13Z" stroke="white" stroke-width="1.5" stroke-linecap="round" stroke-linejoin="round"/> <path d="M17.2 12.0498C16.42 13.2198 16 14.5898 16 15.9998" stroke="white" stroke-width="1.5" stroke-linecap="round" stroke-linejoin="round"/> <path d="M22 16H2" stroke="white" stroke-width="1.5" stroke-linecap="round" stroke-linejoin="round"/> <path d="M2 16.4999C2 17.5999 2.89 18.4999 4 18.4999H20C21.11 18.4999 22 17.5999 22 16.4999V15.1799C22 13.5199 20.66 12.1799 19 12.1799H18.42C17.49 12.1799 16.57 11.9599 15.74 11.5499H15.73C13.98 10.6699 12.61 9.17991 11.88 7.35991L11.64 6.75991C11.28 5.84991 10.31 5.33991 9.35 5.54991L3.58 6.82991C2.66 7.02991 2.01 7.83991 2.01 8.77991V16.4999H2Z" stroke="white" stroke-width="1.5" stroke-linecap="round" stroke-linejoin="round"/> </g> <defs> <clipPath id="clip0_4482_11889"> <rect width="24" height="24" fill="white"/> </clipPath> </defs> </svg>
