<svg width="24" height="24" viewBox="0 0 24 24" fill="none" xmlns="http://www.w3.org/2000/svg"> <path d="M2.74999 17.2092H4.44998V21.1692C4.44998 22.0892 4.94999 22.2792 5.55999 21.5892L9.71999 16.8592C10.23 16.2792 10.02 15.7992 9.23999 15.7992H7.53998V11.8392C7.53998 10.9192 7.03998 10.7292 6.42998 11.4192L2.26999 16.1492C1.76999 16.7292 1.97999 17.2092 2.74999 17.2092Z" stroke="white" stroke-width="1.5" stroke-miterlimit="10" stroke-linecap="round" stroke-linejoin="round"/> <path d="M17 9C18.1 9 19 8.1 19 7C19 5.9 18.1 5 17 5C15.9 5 15 5.9 15 7C15 8.1 15.9 9 17 9Z" stroke="white" stroke-width="1.5" stroke-linecap="round" stroke-linejoin="round"/> <path d="M20.57 10.57L20.5 10.51L20.57 10.57ZM20.51 3.49L20.58 3.42L20.51 3.49ZM13.43 10.57L13.5 10.51L13.43 10.57ZM17 2.04V2V2.04ZM17 12V11.96V12ZM12.04 7H12H12.04ZM22 7H21.96H22ZM13.49 3.49L13.42 3.42L13.49 3.49Z" stroke="white" stroke-width="1.5" stroke-linecap="round" stroke-linejoin="round"/> <path d="M22 15C22 18.87 18.87 22 15 22L16.05 20.25" stroke="white" stroke-width="1.5" stroke-linecap="round" stroke-linejoin="round"/> <path d="M2 9C2 5.13 5.13 2 9 2L7.95 3.75" stroke="white" stroke-width="1.5" stroke-linecap="round" stroke-linejoin="round"/> </svg>
