<svg width="24" height="24" viewBox="0 0 24 24" fill="none" xmlns="http://www.w3.org/2000/svg"> <g clip-path="url(#clip0_2085_391027)"> <path d="M21.89 9.54957V7.05957H16.04C15.77 7.05957 15.52 7.16957 15.33 7.34957L13.43 9.24957C13.24 9.43957 12.99 9.53957 12.72 9.53957H1.89001V18.9896C1.89001 20.6496 3.23001 21.9896 4.89001 21.9896H18.89C20.55 21.9896 21.89 20.6496 21.89 18.9896V9.53957V9.54957Z" stroke="white" stroke-width="1.41" stroke-linecap="round" stroke-linejoin="round"/> <path d="M9.39003 15.1504L8.15002 16.3904" stroke="white" stroke-width="1.41" stroke-linecap="round" stroke-linejoin="round"/> <path d="M8.15002 16.4004L9.39003 17.6404" stroke="white" stroke-width="1.41" stroke-linecap="round" stroke-linejoin="round"/> <path d="M14.37 15.1504L15.62 16.3904" stroke="white" stroke-width="1.41" stroke-linecap="round" stroke-linejoin="round"/> <path d="M15.62 16.4004L14.37 17.6404" stroke="white" stroke-width="1.41" stroke-linecap="round" stroke-linejoin="round"/> <path d="M12.51 13.9102L11.27 18.8902" stroke="white" stroke-width="1.41" stroke-linecap="round" stroke-linejoin="round"/> <path d="M21.89 7.06V5C21.89 3.34 20.55 2 18.89 2H16.04C15.77 2 15.52 2.11 15.33 2.29L13.43 4.19C13.24 4.38 12.99 4.48 12.72 4.48H4.89001C3.23001 4.48 1.89001 5.82 1.89001 7.48V9.54" stroke="white" stroke-width="1.41" stroke-linecap="round" stroke-linejoin="round"/> </g> <defs> <clipPath id="clip0_2085_391027"> <rect width="24" height="24" fill="white"/> </clipPath> </defs> </svg>
