<svg width="24" height="24" viewBox="0 0 24 24" fill="none" xmlns="http://www.w3.org/2000/svg"> <g clip-path="url(#clip0_2085_382226)"> <path d="M12 17.3199V10.6899" stroke="white" stroke-width="1.5" stroke-linecap="round" stroke-linejoin="round"/> <path d="M9.51001 13.1699H14.48" stroke="white" stroke-width="1.5" stroke-linecap="round" stroke-linejoin="round"/> <path d="M22 7H20.66" stroke="white" stroke-width="1.5" stroke-linecap="round" stroke-linejoin="round"/> <path d="M3.34 7H2" stroke="white" stroke-width="1.5" stroke-linecap="round" stroke-linejoin="round"/> <path d="M4.42 18.5801L2 21.0001" stroke="white" stroke-width="1.5" stroke-linecap="round" stroke-linejoin="round"/> <path d="M19.71 18.71L22 21" stroke="white" stroke-width="1.5" stroke-linecap="round" stroke-linejoin="round"/> <path d="M8 7L3 2" stroke="white" stroke-width="1.5" stroke-linecap="round" stroke-linejoin="round"/> <path d="M22 12C22 14.51 21.08 16.8 19.55 18.55C17.72 20.66 15.01 22 12 22C8.99 22 6.28 20.66 4.45 18.55C2.92 16.8 2 14.51 2 12C2 10.18 2.49 8.47 3.34 7H20.66C21.51 8.47 22 10.18 22 12Z" stroke="white" stroke-width="1.5" stroke-linecap="round" stroke-linejoin="round"/> </g> <defs> <clipPath id="clip0_2085_382226"> <rect width="24" height="24" fill="white"/> </clipPath> </defs> </svg>
