<svg width="24" height="24" viewBox="0 0 24 24" fill="none" xmlns="http://www.w3.org/2000/svg"> <g clip-path="url(#clip0_4482_526)"> <path d="M14 17.56H10C8.35 17.56 7 16.21 7 14.56V12.23C7 10.58 8.35 9.22998 10 9.22998H14C15.65 9.22998 17 10.58 17 12.23V14.56C17 16.21 15.65 17.56 14 17.56Z" stroke="white" stroke-width="1.5" stroke-linecap="round" stroke-linejoin="round"/> <path d="M9.87 9.7802V8.5802C9.87 7.4002 10.82 6.4502 12 6.4502C13.18 6.4502 14.13 7.4002 14.13 8.5802V9.7802" stroke="white" stroke-width="1.5" stroke-linecap="round" stroke-linejoin="round"/> <path d="M17 22H7C4.25 22 2 19.75 2 17V7C2 4.25 4.25 2 7 2H17C19.75 2 22 4.25 22 7V17C22 19.75 19.75 22 17 22Z" stroke="white" stroke-width="1.5" stroke-linecap="round" stroke-linejoin="round"/> </g> <defs> <clipPath id="clip0_4482_526"> <rect width="24" height="24" fill="white"/> </clipPath> </defs> </svg>
