<svg width="24" height="24" viewBox="0 0 24 24" fill="none" xmlns="http://www.w3.org/2000/svg"> <g clip-path="url(#clip0_4482_163)"> <path d="M10.5 12V8.98999C10.5 8.15999 11.17 7.48999 12 7.48999C12.83 7.48999 13.5 8.15999 13.5 8.98999V12C14.36 12.65 14.71 13.77 14.37 14.79C14.03 15.81 13.07 16.5 12 16.5C10.93 16.5 9.97001 15.81 9.63001 14.79C9.29001 13.77 9.64 12.65 10.5 12Z" stroke="white" stroke-width="1.5" stroke-linecap="round" stroke-linejoin="round"/> <path d="M7 22H17C19.75 22 22 19.75 22 17V7C22 4.25 19.75 2 17 2H7C4.25 2 2 4.25 2 7V17C2 19.75 4.25 22 7 22Z" stroke="white" stroke-width="1.5" stroke-linecap="round" stroke-linejoin="round"/> </g> <defs> <clipPath id="clip0_4482_163"> <rect width="24" height="24" fill="white"/> </clipPath> </defs> </svg>
