<svg width="24" height="24" viewBox="0 0 24 24" fill="none" xmlns="http://www.w3.org/2000/svg"> <g clip-path="url(#clip0_4482_442)"> <path d="M17 22H7C4.25 22 2 19.75 2 17V7C2 4.25 4.25 2 7 2H17C19.75 2 22 4.25 22 7V17C22 19.75 19.75 22 17 22Z" stroke="white" stroke-width="1.5" stroke-linecap="round" stroke-linejoin="round"/> <path d="M10.79 14.05C10.31 14.47 9.68 14.73 8.98 14.73C7.47 14.73 6.23999 13.5 6.23999 11.99C6.23999 10.48 7.47 9.25 8.98 9.25C9.67 9.25 10.3 9.51 10.79 9.93" stroke="white" stroke-width="1.5" stroke-linecap="round" stroke-linejoin="round"/> <path d="M17.75 14.05C17.27 14.47 16.64 14.73 15.94 14.73C14.43 14.73 13.2 13.5 13.2 11.99C13.2 10.48 14.43 9.25 15.94 9.25C16.63 9.25 17.26 9.51 17.75 9.93" stroke="white" stroke-width="1.5" stroke-linecap="round" stroke-linejoin="round"/> </g> <defs> <clipPath id="clip0_4482_442"> <rect width="24" height="24" fill="white"/> </clipPath> </defs> </svg>
