<svg width="24" height="24" viewBox="0 0 24 24" fill="none" xmlns="http://www.w3.org/2000/svg"> <g clip-path="url(#clip0_2085_386723)"> <path d="M7.33999 11.5201L3.14999 14.6601C2.85999 14.8801 2.67999 15.2301 2.67999 15.5901V19.6701C2.67999 20.3101 3.19999 20.8301 3.83999 20.8301H7.32999V11.5101L7.33999 11.5201ZM7.33999 11.5201L5.00999 13.2701M7.33999 11.5201V9.67006M16.66 11.5201L20.85 14.6601C21.14 14.8801 21.32 15.2301 21.32 15.5901V19.6701C21.32 20.3101 20.8 20.8301 20.16 20.8301H16.67V11.5101L16.66 11.5201ZM16.66 11.5201L18.99 13.2701M16.66 11.5201V9.67006M12 15.0101V19.6701M10.25 8.02006L11.35 7.29006C11.74 7.03006 12.25 7.03006 12.64 7.29006L13.74 8.02006M10.35 2.68006L8.01999 5.01006C7.57999 5.45006 7.33999 6.04006 7.33999 6.66006V19.6701C7.33999 20.9601 8.37999 22.0001 9.66999 22.0001H14.33C15.62 22.0001 16.66 20.9601 16.66 19.6701V6.66006C16.66 6.04006 16.41 5.45006 15.98 5.01006L13.65 2.68006C12.74 1.77006 11.27 1.77006 10.36 2.68006H10.35Z" stroke="white" stroke-width="1.5" stroke-linecap="round" stroke-linejoin="round"/> </g> <defs> <clipPath id="clip0_2085_386723"> <rect width="24" height="24" fill="white"/> </clipPath> </defs> </svg>
