<svg width="24" height="24" viewBox="0 0 24 24" fill="none" xmlns="http://www.w3.org/2000/svg"> <g clip-path="url(#clip0_4418_9772)"> <path d="M16.42 7.94914C18.86 10.3891 18.86 14.3491 16.42 16.7891C13.98 19.2291 10.02 19.2291 7.58 16.7891C5.14 14.3491 5.14 10.3891 7.58 7.94914C10.02 5.50914 13.98 5.50914 16.42 7.94914Z" stroke="white" stroke-width="1.5" stroke-linecap="round" stroke-linejoin="round"/> <path d="M8.24999 21.6389C6.24999 20.8389 4.49999 19.3889 3.33999 17.3789C2.19999 15.4089 1.81999 13.2189 2.08999 11.1289" stroke="white" stroke-width="1.5" stroke-linecap="round" stroke-linejoin="round"/> <path d="M5.84998 4.47937C7.54998 3.14937 9.67997 2.35938 12 2.35938C14.27 2.35938 16.36 3.12936 18.04 4.40936" stroke="white" stroke-width="1.5" stroke-linecap="round" stroke-linejoin="round"/> <path d="M15.75 21.6389C17.75 20.8389 19.5 19.3889 20.66 17.3789C21.8 15.4089 22.18 13.2189 21.91 11.1289" stroke="white" stroke-width="1.5" stroke-linecap="round" stroke-linejoin="round"/> </g> <defs> <clipPath id="clip0_4418_9772"> <rect width="24" height="24" fill="white"/> </clipPath> </defs> </svg>
