<svg width="24" height="24" viewBox="0 0 24 24" fill="none" xmlns="http://www.w3.org/2000/svg"> <g clip-path="url(#clip0_2085_382150)"> <path d="M12 22C16.89 22 23.3 8.95997 15.48 8.08997H8.52001C0.690006 8.95997 7.11001 22 12 22Z" stroke="white" stroke-width="1.5" stroke-linecap="round" stroke-linejoin="round"/> <path d="M10.81 4.71005C11.14 5.54005 10.32 6.36005 9.49 6.03005C8.96 5.81005 8.47 5.49005 8.05 5.08005C7.63 4.67005 7.31 4.17005 7.1 3.64005C6.77 2.81005 7.59 1.99005 8.42 2.32005C8.95 2.54005 9.44 2.86005 9.86 3.27005C10.28 3.68005 10.6 4.18005 10.81 4.71005Z" stroke="white" stroke-width="1.5" stroke-linecap="round" stroke-linejoin="round"/> <path d="M13.19 4.71005C12.86 5.54005 13.68 6.36005 14.51 6.03005C15.04 5.81005 15.53 5.49005 15.95 5.08005C16.37 4.67005 16.69 4.17005 16.9 3.64005C17.23 2.81005 16.41 1.99005 15.58 2.32005C15.05 2.54005 14.56 2.86005 14.14 3.27005C13.72 3.68005 13.4 4.18005 13.19 4.71005Z" stroke="white" stroke-width="1.5" stroke-linecap="round" stroke-linejoin="round"/> <path d="M9.61 14.61L10.48 15.48" stroke="white" stroke-width="1.5" stroke-linecap="round" stroke-linejoin="round"/> <path d="M13.52 14.61L14.39 15.48" stroke="white" stroke-width="1.5" stroke-linecap="round" stroke-linejoin="round"/> <path d="M7.64999 11.13L8.51999 12" stroke="white" stroke-width="1.5" stroke-linecap="round" stroke-linejoin="round"/> <path d="M11.57 11.13L12.44 12" stroke="white" stroke-width="1.5" stroke-linecap="round" stroke-linejoin="round"/> <path d="M15.48 11.13L16.35 12" stroke="white" stroke-width="1.5" stroke-linecap="round" stroke-linejoin="round"/> <path d="M11.57 17.65L12.44 18.52" stroke="white" stroke-width="1.5" stroke-linecap="round" stroke-linejoin="round"/> </g> <defs> <clipPath id="clip0_2085_382150"> <rect width="24" height="24" fill="white"/> </clipPath> </defs> </svg>
