<svg width="24" height="24" viewBox="0 0 24 24" fill="none" xmlns="http://www.w3.org/2000/svg"> <g clip-path="url(#clip0_2085_387008)"> <path d="M3.03999 11.5798V8.8898C3.03999 8.4998 3.50999 8.3198 3.77999 8.5998L5.52999 10.4398" stroke="white" stroke-width="1.5" stroke-linecap="round" stroke-linejoin="round"/> <path d="M5.52999 15.6702L3.77999 17.5102C3.50999 17.7902 3.03999 17.6002 3.03999 17.2202V14.2402" stroke="white" stroke-width="1.5" stroke-linecap="round" stroke-linejoin="round"/> <path d="M2 12.4402L6.64 9.9502H18.89C20.6 9.9502 22 11.3502 22 13.0602C22 14.7702 20.6 16.1702 18.89 16.1702H6.64L2 13.6802V12.4402Z" stroke="white" stroke-width="1.5" stroke-linecap="round" stroke-linejoin="round"/> <path d="M11.81 7.45996H16.94V9.94996H10.47C10.92 9.11996 11.37 8.28996 11.82 7.45996H11.81Z" stroke="white" stroke-width="1.5" stroke-linecap="round" stroke-linejoin="round"/> <path d="M13.16 7.36996V5.70996" stroke="white" stroke-width="1.5" stroke-linecap="round" stroke-linejoin="round"/> <path d="M15.65 7.38V6" stroke="white" stroke-width="1.5" stroke-linecap="round" stroke-linejoin="round"/> </g> <defs> <clipPath id="clip0_2085_387008"> <rect width="24" height="24" fill="white"/> </clipPath> </defs> </svg>
