<svg width="24" height="24" viewBox="0 0 24 24" fill="none" xmlns="http://www.w3.org/2000/svg"> <g clip-path="url(#clip0_2085_386888)"> <path d="M9.65999 2.01C13.07 3.47 17.26 7.06 15.05 10.89C12.84 14.72 7.89999 13.47 5.22999 11.94M15.51 9.81C19.41 11.27 20.87 13.71 16.49 14.68C12.11 15.65 12.59 15.17 13.08 20.53H11.13M14.54 12.25C17.46 12.98 16.49 14.98 20.88 19.85L18.93 20.34M9.66999 2L4.28999 13.55M21.85 21.03C21.85 21.03 18.76 22 12.59 22C6.41999 22 3.32999 21.03 3.32999 21.03M4.27999 13.55C4.27999 13.55 2.75999 13.92 2.34999 14.8C1.93999 15.68 2.16999 16.33 2.83999 16.64C3.49999 16.95 4.14999 16.71 4.55999 15.83C4.96999 14.95 4.27999 13.55 4.27999 13.55ZM13.56 8.84C13.56 9.92 12.69 10.79 11.61 10.79C10.53 10.79 9.65999 9.92 9.65999 8.84C9.65999 7.76 10.53 6.89 11.61 6.89C12.69 6.89 13.56 7.76 13.56 8.84Z" stroke="white" stroke-width="1.5" stroke-linecap="round" stroke-linejoin="round"/> </g> <defs> <clipPath id="clip0_2085_386888"> <rect width="24" height="24" fill="white"/> </clipPath> </defs> </svg>
