<svg width="24" height="24" viewBox="0 0 24 24" fill="none" xmlns="http://www.w3.org/2000/svg"> <g clip-path="url(#clip0_2085_386896)"> <path d="M7.89001 17.2902V5.33023L10.47 2.74023" stroke="white" stroke-width="1.5" stroke-linecap="round" stroke-linejoin="round"/> <path d="M16.33 17.2902V5.33023L18.91 2.74023" stroke="white" stroke-width="1.5" stroke-linecap="round" stroke-linejoin="round"/> <path d="M16.33 6.9707H7.89001" stroke="white" stroke-width="1.5" stroke-linecap="round" stroke-linejoin="round"/> <path d="M16.33 10.9502H7.89001" stroke="white" stroke-width="1.5" stroke-linecap="round" stroke-linejoin="round"/> <path d="M16.33 14.9404H7.89001" stroke="white" stroke-width="1.5" stroke-linecap="round" stroke-linejoin="round"/> <path d="M22 21.2607C20.16 21.2607 18.67 19.7707 18.67 17.9307C18.67 19.7707 17.18 21.2607 15.34 21.2607C13.5 21.2607 12.01 19.7707 12.01 17.9307C12.01 19.7707 10.52 21.2607 8.68002 21.2607C6.84002 21.2607 5.35002 19.7707 5.35002 17.9307C5.35002 19.7707 3.86002 21.2607 2.02002 21.2607" stroke="white" stroke-width="1.5" stroke-linecap="round" stroke-linejoin="round"/> </g> <defs> <clipPath id="clip0_2085_386896"> <rect width="24" height="24" fill="white"/> </clipPath> </defs> </svg>
