<svg width="24" height="24" viewBox="0 0 24 24" fill="none" xmlns="http://www.w3.org/2000/svg"> <g clip-path="url(#clip0_4482_13068)"> <path d="M17 2H7C4.23858 2 2 4.23858 2 7V17C2 19.7614 4.23858 22 7 22H17C19.7614 22 22 19.7614 22 17V7C22 4.23858 19.7614 2 17 2Z" stroke="white" stroke-width="1.5" stroke-linecap="round" stroke-linejoin="round"/> <path d="M16.6701 14.3297L14.3101 16.6897C13.3801 17.6197 11.8701 17.6197 10.9401 16.6897L8.22012 13.9697C7.69012 13.4397 7.39012 12.7097 7.41012 11.9497L7.48012 9.13968C7.50012 8.23968 8.22012 7.51968 9.12012 7.49968L11.9301 7.42968C12.6801 7.40968 13.4101 7.69968 13.9501 8.23968L16.6701 10.9597C17.6001 11.8897 17.6001 13.3997 16.6701 14.3297Z" stroke="white" stroke-width="1.5" stroke-linecap="round" stroke-linejoin="round"/> </g> <defs> <clipPath id="clip0_4482_13068"> <rect width="24" height="24" fill="white"/> </clipPath> </defs> </svg>
