<svg width="24" height="24" viewBox="0 0 24 24" fill="none" xmlns="http://www.w3.org/2000/svg"> <g clip-path="url(#clip0_4482_547)"> <path d="M18 10.7699C18.03 11.3499 17.8201 11.9199 17.4101 12.3299L12.5301 17.2099C11.4801 18.2599 9.75998 18.2599 8.69998 17.2099L6.79006 15.2999C5.74006 14.2499 5.74006 12.5299 6.79006 11.4699L11.6701 6.58989C12.0801 6.17989 12.65 5.96989 13.23 5.99989L16.5301 6.19989C17.2101 6.23989 17.7501 6.77989 17.7901 7.45989L18 10.7699Z" stroke="white" stroke-width="1.5" stroke-linecap="round" stroke-linejoin="round"/> <path d="M7.75 10.52L13.48 16.25" stroke="white" stroke-width="1.5" stroke-linecap="round" stroke-linejoin="round"/> <path d="M17 22H7C4.25 22 2 19.75 2 17V7C2 4.25 4.25 2 7 2H17C19.75 2 22 4.25 22 7V17C22 19.75 19.75 22 17 22Z" stroke="white" stroke-width="1.5" stroke-linecap="round" stroke-linejoin="round"/> <path d="M13.99 10H14.01" stroke="white" stroke-width="2" stroke-linecap="round" stroke-linejoin="round"/> </g> <defs> <clipPath id="clip0_4482_547"> <rect width="24" height="24" fill="white"/> </clipPath> </defs> </svg>
