<svg width="24" height="24" viewBox="0 0 24 24" fill="none" xmlns="http://www.w3.org/2000/svg"> <g clip-path="url(#clip0_4482_161)"> <path d="M12 22C6.48 22 2 17.52 2 12C2 6.48 6.48 2 12 2C17.52 2 22 6.48 22 12" stroke="white" stroke-width="1.5" stroke-miterlimit="10" stroke-linecap="round"/> <path d="M16 17.5V14.49C16 13.66 16.67 12.99 17.5 12.99C18.33 12.99 19 13.66 19 14.49V17.5C19.86 18.15 20.21 19.27 19.87 20.29C19.53 21.31 18.57 22 17.5 22C16.43 22 15.47 21.31 15.13 20.29C14.79 19.27 15.14 18.14 16 17.5Z" stroke="white" stroke-width="1.5" stroke-linecap="round" stroke-linejoin="round"/> </g> <defs> <clipPath id="clip0_4482_161"> <rect width="24" height="24" fill="white"/> </clipPath> </defs> </svg>
