<svg width="24" height="24" viewBox="0 0 24 24" fill="none" xmlns="http://www.w3.org/2000/svg"> <g clip-path="url(#clip0_4418_169859)"> <path d="M16.995 4H6.995C3.165 4 2.095 4.92 2.005 8.5C3.935 8.5 5.495 10.07 5.495 12C5.495 13.93 3.935 15.49 2.005 15.5C2.095 19.08 3.165 20 6.995 20H16.995C20.995 20 21.995 19 21.995 15V9C21.995 5 20.995 4 16.995 4Z" stroke="white" stroke-width="1.5" stroke-linecap="round" stroke-linejoin="round"/> <path d="M8.99329 4V7.5" stroke="white" stroke-width="1.5" stroke-linecap="round" stroke-linejoin="round"/> <path d="M8.99329 16.5V20" stroke="white" stroke-width="1.5" stroke-linecap="round" stroke-linejoin="round"/> <path d="M15.025 9.33016L15.645 10.5802C15.705 10.7002 15.825 10.7902 15.955 10.8102L17.335 11.0102C17.675 11.0602 17.815 11.4802 17.565 11.7202L16.565 12.6902C16.465 12.7802 16.425 12.9202 16.445 13.0602L16.685 14.4302C16.745 14.7702 16.385 15.0302 16.085 14.8702L14.855 14.2202C14.735 14.1602 14.585 14.1602 14.465 14.2202L13.235 14.8702C12.925 15.0302 12.575 14.7702 12.635 14.4302L12.875 13.0602C12.895 12.9202 12.855 12.7902 12.755 12.6902L11.765 11.7202C11.515 11.4802 11.655 11.0602 11.995 11.0102L13.375 10.8102C13.515 10.7902 13.625 10.7102 13.685 10.5802L14.295 9.33016C14.435 9.02016 14.875 9.02016 15.025 9.33016Z" stroke="white" stroke-width="1.5" stroke-linecap="round" stroke-linejoin="round"/> </g> <defs> <clipPath id="clip0_4418_169859"> <rect width="24" height="24" fill="white"/> </clipPath> </defs> </svg>
