<svg width="24" height="24" viewBox="0 0 24 24" fill="none" xmlns="http://www.w3.org/2000/svg"> <g clip-path="url(#clip0_4482_3941)"> <path d="M15.41 5.92V10.89H15.35C14.15 10.89 13.2 12.09 13.66 13.35C13.92 14.06 14.63 14.5 15.37 14.5H15.41V15.86C15.41 17.61 13.98 19.03 12.24 19.03H5.92004C4.17004 19.03 2.75 17.61 2.75 15.86V14.5C3.75 14.5 4.56006 13.69 4.56006 12.7C4.56006 11.7 3.75 10.89 2.75 10.89V5.92C2.75 4.17 4.17004 2.75 5.92004 2.75H12.24C13.98 2.75 15.41 4.17 15.41 5.92Z" stroke="white" stroke-width="1.5" stroke-miterlimit="10" stroke-linecap="round" stroke-linejoin="round"/> <path d="M15.21 4.80957H18.17C19.88 4.80957 21.25 6.18957 21.25 7.88957V18.1696C21.25 19.8796 19.87 21.2496 18.17 21.2496H12C10.67 21.2496 9.54999 20.4196 9.10999 19.2396" stroke="white" stroke-width="1.5" stroke-miterlimit="10" stroke-linecap="round" stroke-linejoin="round"/> </g> <defs> <clipPath id="clip0_4482_3941"> <rect width="24" height="24" fill="white"/> </clipPath> </defs> </svg>
