<svg width="24" height="24" viewBox="0 0 24 24" fill="none" xmlns="http://www.w3.org/2000/svg"> <g clip-path="url(#clip0_4482_10030)"> <path d="M10.89 22.0001V4.78006C10.89 3.55006 11.88 2.56006 13.11 2.56006H19.78C21.01 2.56006 22 3.55006 22 4.78006V19.7801C22 21.0101 21.01 22.0001 19.78 22.0001H4.22C2.99 22.0001 2 21.0101 2 19.7801V9.13006C2 8.84006 2.12 8.55006 2.33 8.34006L6.44 4.22006L10.56 8.34006C10.77 8.55006 10.89 8.83006 10.89 9.13006V22.0001Z" stroke="white" stroke-width="1.5" stroke-linecap="round" stroke-linejoin="round"/> <path d="M6.44043 13.1099V21.9999" stroke="white" stroke-width="1.5" stroke-linecap="round" stroke-linejoin="round"/> <path d="M2 9.77979H10.89" stroke="white" stroke-width="1.5" stroke-linecap="round" stroke-linejoin="round"/> <path d="M6.44043 2V4.22" stroke="white" stroke-width="1.5" stroke-linecap="round" stroke-linejoin="round"/> <path d="M14.3604 16.4399H18.5304" stroke="white" stroke-width="1.5" stroke-linecap="round" stroke-linejoin="round"/> <path d="M14.2197 12H18.3897" stroke="white" stroke-width="1.5" stroke-linecap="round" stroke-linejoin="round"/> <path d="M14.2197 7.56006H18.6597" stroke="white" stroke-width="1.5" stroke-linecap="round" stroke-linejoin="round"/> </g> <defs> <clipPath id="clip0_4482_10030"> <rect width="24" height="24" fill="white"/> </clipPath> </defs> </svg>
