<svg width="24" height="24" viewBox="0 0 24 24" fill="none" xmlns="http://www.w3.org/2000/svg"> <g clip-path="url(#clip0_4482_10031)"> <path d="M5.75 4.5H8.25C8.94 4.5 9.5 5.06 9.5 5.75V8.25H4.5V5.75C4.5 5.06 5.06 4.5 5.75 4.5Z" stroke="white" stroke-width="1.5" stroke-linecap="round" stroke-linejoin="round"/> <path d="M7 2V4.5" stroke="white" stroke-width="1.5" stroke-linecap="round" stroke-linejoin="round"/> <path d="M12 22V6.10998C12 5.50998 12.37 4.97998 12.93 4.76998L20.07 2.09998C20.51 1.93998 21 1.99998 21.38 2.25998C21.76 2.52998 22 2.95998 22 3.42998V19.78C22 21.01 21.01 22 19.78 22H4.22C2.99 22 2 21.01 2 19.78V9.49998C2 8.80998 2.56 8.24998 3.25 8.24998H10.75C11.44 8.24998 12 8.80998 12 9.49998V22Z" stroke="white" stroke-width="1.5" stroke-linecap="round" stroke-linejoin="round"/> <path d="M5.12012 15.75H8.87012" stroke="white" stroke-width="1.5" stroke-linecap="round" stroke-linejoin="round"/> <path d="M5.12012 15.75H8.87012" stroke="white" stroke-width="1.5" stroke-linecap="round" stroke-linejoin="round"/> <path d="M5.12012 12H8.87012" stroke="white" stroke-width="1.5" stroke-linecap="round" stroke-linejoin="round"/> <path d="M7 20.1299V21.9999" stroke="white" stroke-width="1.5" stroke-linecap="round" stroke-linejoin="round"/> <path d="M15.3301 8.72998V17.55" stroke="white" stroke-width="1.5" stroke-linecap="round" stroke-linejoin="round"/> <path d="M18.6699 8.72998V17.55" stroke="white" stroke-width="1.5" stroke-linecap="round" stroke-linejoin="round"/> </g> <defs> <clipPath id="clip0_4482_10031"> <rect width="24" height="24" fill="white"/> </clipPath> </defs> </svg>
