<svg width="24" height="24" viewBox="0 0 24 24" fill="none" xmlns="http://www.w3.org/2000/svg"> <g clip-path="url(#clip0_4482_7447)"> <path d="M9.33992 13.64L7.66992 11.42L8.89992 11.01C9.11992 10.94 9.36992 10.97 9.55992 11.1L10.6199 11.84L13.1799 10.71L10.4999 7.32L12.6799 6.86L16.1999 9.62L19.9499 8.12C20.8699 7.75 21.8799 8.37 21.9899 9.35C22.0599 10 21.6899 10.62 21.0899 10.88L14.3599 13.73C14.1899 13.8 13.9999 13.84 13.8199 13.85L9.94992 13.95C9.70992 13.95 9.47992 13.85 9.33992 13.65V13.64Z" stroke="white" stroke-width="1.5" stroke-linecap="round" stroke-linejoin="round"/> <path d="M19.3 8.4C17.99 5.82 15.31 4.05 12.22 4.05C7.83002 4.05 4.27002 7.61 4.27002 12C4.27002 16.39 7.83002 19.95 12.22 19.95C16.61 19.95 20.17 16.39 20.17 12C20.17 11.76 20.15 11.53 20.13 11.3" stroke="white" stroke-width="1.5" stroke-linecap="round" stroke-linejoin="round"/> <path d="M4.29988 12.53C2.60988 13.77 1.68988 15.15 2.09988 16.11C2.67988 17.55 5.94988 17.58 9.40988 16.18" stroke="white" stroke-width="1.5" stroke-linecap="round" stroke-linejoin="round"/> </g> <defs> <clipPath id="clip0_4482_7447"> <rect width="24" height="24" fill="white"/> </clipPath> </defs> </svg>
