<svg width="24" height="24" viewBox="0 0 24 24" fill="none" xmlns="http://www.w3.org/2000/svg"> <g clip-path="url(#clip0_2085_391097)"> <path d="M13.7 19.4699C17.43 17.8699 20.4 14.8999 22 11.1699C17.42 11.1699 13.7 14.8899 13.7 19.4699Z" stroke="white" stroke-width="1.5" stroke-linecap="round" stroke-linejoin="round"/> <path d="M10.3 19.4699C6.57 17.8699 3.6 14.8999 2 11.1699C6.58 11.1699 10.3 14.8899 10.3 19.4699Z" stroke="white" stroke-width="1.5" stroke-linecap="round" stroke-linejoin="round"/> <path d="M13.07 9.51074C12.64 9.51074 12.26 9.70074 12 10.0007C11.74 9.70074 11.36 9.51074 10.93 9.51074C10.14 9.51074 9.51001 10.1507 9.51001 10.9307C9.51001 12.5007 12 13.7807 12 13.7807C12 13.7807 14.49 12.5107 14.49 10.9307C14.49 10.1407 13.85 9.51074 13.07 9.51074Z" stroke="white" stroke-width="1.5" stroke-linecap="round" stroke-linejoin="round"/> <path d="M10.3 19.4707H13.7" stroke="white" stroke-width="1.5" stroke-linecap="round" stroke-linejoin="round"/> <path d="M21.48 7.02051H2.51999" stroke="white" stroke-width="1.5" stroke-linecap="round" stroke-linejoin="round"/> <path d="M22 11.1703L21.39 6.28027C21.26 5.28027 20.41 4.53027 19.41 4.53027H4.60001C3.59001 4.53027 2.74001 5.28027 2.62001 6.28027L2.01001 11.1703" stroke="white" stroke-width="1.5" stroke-linecap="round" stroke-linejoin="round"/> </g> <defs> <clipPath id="clip0_2085_391097"> <rect width="24" height="24" fill="white"/> </clipPath> </defs> </svg>
