<svg width="24" height="24" viewBox="0 0 24 24" fill="none" xmlns="http://www.w3.org/2000/svg"> <g clip-path="url(#clip0_4482_190)"> <path d="M16.1603 21.5399L19.3603 17.8499C19.6903 17.4699 19.4203 16.8899 18.9203 16.8899H15.5503L15.1404 21.1099C15.0504 22.0999 15.5003 22.2899 16.1603 21.5399Z" stroke="white" stroke-width="1.5" stroke-miterlimit="10" stroke-linecap="round"/> <path d="M14.8196 13.4399L11.6196 17.1299C11.2896 17.5099 11.5596 18.0899 12.0596 18.0899H15.4296L15.8396 13.8699C15.9296 12.8799 15.4796 12.6799 14.8196 13.4399Z" stroke="white" stroke-width="1.5" stroke-miterlimit="10" stroke-linecap="round"/> <path d="M20.1504 12V6C20.1504 3.8 18.3504 2 16.1504 2H7.15039C4.95039 2 3.15039 3.8 3.15039 6V18C3.15039 20.2 4.95039 22 7.15039 22H10.1504" stroke="white" stroke-width="1.5" stroke-linecap="round" stroke-linejoin="round"/> <path d="M14.1504 5V6C14.1504 7.1 15.0504 8 16.1504 8H17.1504" stroke="white" stroke-width="1.5" stroke-linecap="round" stroke-linejoin="round"/> </g> <defs> <clipPath id="clip0_4482_190"> <rect width="24" height="24" fill="white"/> </clipPath> </defs> </svg>
