<svg width="24" height="24" viewBox="0 0 24 24" fill="none" xmlns="http://www.w3.org/2000/svg"> <g clip-path="url(#clip0_4482_424)"> <path d="M5.53978 12.59C0.859785 12.92 0.859785 19.73 5.53978 20.06H16.6298C17.9798 20.07 19.2798 19.57 20.2698 18.66C23.5598 15.79 21.7998 10.02 17.4698 9.46999C15.9098 0.0999913 2.37983 3.65999 5.58983 12.59" stroke="white" stroke-width="1.5" stroke-miterlimit="10" stroke-linecap="round" stroke-linejoin="round"/> <path d="M9.84006 12.72L11.8401 14.92C11.8801 14.97 11.95 15 12.02 15C12.09 15 12.1601 14.97 12.2101 14.92L14.2101 12.72C14.2901 12.63 14.3 12.5 14.23 12.41L13.3401 11.11C13.2901 11.04 13.22 11 13.13 11H10.9001C10.8201 11 10.74 11.04 10.69 11.11L9.80002 12.41C9.75002 12.5 9.76006 12.63 9.84006 12.72Z" stroke="white" stroke-width="1.5" stroke-linecap="round" stroke-linejoin="round"/> </g> <defs> <clipPath id="clip0_4482_424"> <rect width="24" height="24" fill="white"/> </clipPath> </defs> </svg>
