<svg width="24" height="24" viewBox="0 0 24 24" fill="none" xmlns="http://www.w3.org/2000/svg"> <g clip-path="url(#clip0_2085_391331)"> <path d="M16.81 6.58977L12.4 2.17977C12.35 2.12977 12.29 2.07977 12.22 2.04977C12.15 2.01977 12.08 2.00977 12 2.00977C11.92 2.00977 11.85 2.02977 11.78 2.04977C11.71 2.07977 11.65 2.11977 11.6 2.17977L7.19 6.58977" stroke="white" stroke-width="1.71" stroke-linecap="round" stroke-linejoin="round"/> <path d="M16.81 17.4102L12.4 21.8202C12.35 21.8702 12.29 21.9202 12.22 21.9502C12.15 21.9802 12.08 21.9902 12 21.9902C11.92 21.9902 11.85 21.9702 11.78 21.9502C11.71 21.9202 11.65 21.8802 11.6 21.8202L7.19 17.4102" stroke="white" stroke-width="1.71" stroke-linecap="round" stroke-linejoin="round"/> <path d="M2 12H22" stroke="white" stroke-width="1.71" stroke-linecap="round" stroke-linejoin="round"/> </g> <defs> <clipPath id="clip0_2085_391331"> <rect width="24" height="24" fill="white"/> </clipPath> </defs> </svg>
