<svg width="24" height="24" viewBox="0 0 24 24" fill="none" xmlns="http://www.w3.org/2000/svg"> <g clip-path="url(#clip0_2085_386917)"> <path d="M15.18 2C13.19 11.52 11.76 13.9 18.9 22H17M10.81 14.38C10.81 14.38 10.33 11.52 10.81 10.57C11.29 9.62 13.62 10.09 13.62 10.09M14.14 14.86C6.99998 13.91 6.51998 14.86 6.99998 22H5.09998M14.14 5.81C14.14 6.86 13.29 7.71 12.24 7.71C11.19 7.71 10.34 6.86 10.34 5.81C10.34 4.76 11.19 3.91 12.24 3.91C13.29 3.91 14.14 4.76 14.14 5.81Z" stroke="white" stroke-width="1.5" stroke-linecap="round" stroke-linejoin="round"/> </g> <defs> <clipPath id="clip0_2085_386917"> <rect width="24" height="24" fill="white"/> </clipPath> </defs> </svg>
