<svg width="24" height="24" viewBox="0 0 24 24" fill="none" xmlns="http://www.w3.org/2000/svg"> <g clip-path="url(#clip0_2085_386927)"> <path d="M7.51002 3.93977C6.22002 8.69977 5.36002 14.7498 13.33 10.1498C21.3 5.54977 15.67 3.27977 10.87 2.00977M12.01 10.8598C13.6 14.2498 13.46 16.6698 10.59 21.9998H8.62002M13.46 15.2198H14.91M14.43 9.88977C15.88 13.7698 15.88 16.1898 13.95 21.9998H15.89M12.98 6.49977C12.98 7.56977 12.11 8.43976 11.04 8.43976C9.97002 8.43976 9.10002 7.56977 9.10002 6.49977C9.10002 5.42977 9.97002 4.55977 11.04 4.55977C12.11 4.55977 12.98 5.42977 12.98 6.49977Z" stroke="white" stroke-width="1.5" stroke-linecap="round" stroke-linejoin="round"/> </g> <defs> <clipPath id="clip0_2085_386927"> <rect width="24" height="24" fill="white"/> </clipPath> </defs> </svg>
