<svg width="24" height="24" viewBox="0 0 24 24" fill="none" xmlns="http://www.w3.org/2000/svg"> <g clip-path="url(#clip0_2085_386908)"> <path d="M6.36 15.75C5.36 12.25 6.36 9.75 8.36 8.5C10.36 7.25 12.86 12.5 10.36 22H12.36M13.86 2C13.86 4 12.36 6.5 8.61 8.39M11.36 6.59C12.36 7.09 13.36 9.5 12.79 11M11.39 14C12.89 9.5 19.6 0.25 17.85 14M9.86 4C9.86 5.1 8.96 6 7.86 6C6.76 6 5.86 5.1 5.86 4C5.86 2.9 6.76 2 7.86 2C8.96 2 9.86 2.9 9.86 4Z" stroke="white" stroke-width="1.5" stroke-linecap="round" stroke-linejoin="round"/> </g> <defs> <clipPath id="clip0_2085_386908"> <rect width="24" height="24" fill="white"/> </clipPath> </defs> </svg>
