<svg width="24" height="24" viewBox="0 0 24 24" fill="none" xmlns="http://www.w3.org/2000/svg"> <g clip-path="url(#clip0_2085_386910)"> <path d="M12.25 8.75C17.75 10 19.25 12.5 18.75 22H20.75M11.75 2C13.25 7 8.9 9.23 7.75 10M7.75 10C6.6 10.77 17.75 8.5 13.25 22H15.25M7.75 10C10.06 9.77 16.25 8 17.25 3.5M7.25 6.5C7.25 7.6 6.36 8.5 5.25 8.5C4.14 8.5 3.25 7.6 3.25 6.5C3.25 5.4 4.14 4.5 5.25 4.5C6.36 4.5 7.25 5.4 7.25 6.5Z" stroke="white" stroke-width="1.5" stroke-linecap="round" stroke-linejoin="round"/> </g> <defs> <clipPath id="clip0_2085_386910"> <rect width="24" height="24" fill="white"/> </clipPath> </defs> </svg>
