<svg width="24" height="24" viewBox="0 0 24 24" fill="none" xmlns="http://www.w3.org/2000/svg"> <g clip-path="url(#clip0_2085_386915)"> <path d="M17.96 17.9498H16.28C16.47 15.2898 17.96 7.9498 14.62 8.8998C11.29 9.8498 11.01 10.8798 11.29 11.7598C11.57 12.6298 12.24 13.1898 16.53 11.2798M3.43 17.9498C2.72 17.9498 2 16.9998 2 15.5698L11.05 11.7598M22 7.9498C22 8.9998 21.15 9.8498 20.1 9.8498C19.05 9.8498 18.2 8.9998 18.2 7.9498C18.2 6.8998 19.05 6.0498 20.1 6.0498C21.15 6.0498 22 6.8998 22 7.9498Z" stroke="white" stroke-width="1.5" stroke-linecap="round" stroke-linejoin="round"/> </g> <defs> <clipPath id="clip0_2085_386915"> <rect width="24" height="24" fill="white"/> </clipPath> </defs> </svg>
