<svg width="24" height="24" viewBox="0 0 24 24" fill="none" xmlns="http://www.w3.org/2000/svg"> <g clip-path="url(#clip0_4482_10773)"> <path d="M18.0095 9.98C15.8095 9.98 14.0195 8.19 14.0195 5.99C14.0195 3.79 15.8095 2 18.0095 2C20.2095 2 21.9995 3.79 21.9995 5.99C21.9995 7.05 21.5795 8.06 20.8295 8.81C20.0795 9.56 19.0695 9.98 18.0095 9.98Z" stroke="white" stroke-width="1.5" stroke-linecap="round" stroke-linejoin="round"/> <path d="M14.0203 5.76024C10.2803 4.06024 5.85025 5.28024 3.51025 8.66024C1.17025 12.0402 1.58025 16.6102 4.49025 19.5202C7.40025 22.4302 11.9703 22.8402 15.3503 20.5002C18.7303 18.1602 19.9502 13.7302 18.2502 9.99024" stroke="white" stroke-width="1.5" stroke-linecap="round" stroke-linejoin="round"/> <path d="M19.3704 5.29004L17.6704 6.99004L16.6504 5.97004" stroke="white" stroke-width="1.5" stroke-linecap="round" stroke-linejoin="round"/> <path d="M11.0996 10.1601L12.8296 12.4701C13.4796 13.3401 13.5896 14.5101 13.0996 15.4801C12.6096 16.4501 11.6196 17.0701 10.5296 17.0701C9.43961 17.0701 8.43961 16.4501 7.95961 15.4801C7.46961 14.5001 7.57961 13.3401 8.22961 12.4701L9.95961 10.1601C10.0996 9.98012 10.3096 9.87012 10.5396 9.87012C10.7696 9.87012 10.9796 9.98012 11.1196 10.1601H11.0996Z" stroke="white" stroke-width="1.5" stroke-linecap="round" stroke-linejoin="round"/> </g> <defs> <clipPath id="clip0_4482_10773"> <rect width="24" height="24" fill="white"/> </clipPath> </defs> </svg>
