<svg width="24" height="24" viewBox="0 0 24 24" fill="none" xmlns="http://www.w3.org/2000/svg"> <g clip-path="url(#clip0_4482_3862)"> <path d="M12 22C17.5228 22 22 17.5228 22 12C22 6.47715 17.5228 2 12 2C6.47715 2 2 6.47715 2 12C2 17.5228 6.47715 22 12 22Z" stroke="white" stroke-width="1.5" stroke-linecap="round" stroke-linejoin="round"/> <path d="M11.25 8.5H12.75C14.4 8.5 15.75 9.85 15.75 11.5V12.25C15.75 14.31 14.06 16 12 16C9.94 16 8.25 14.31 8.25 12.25V11.5C8.25 9.85 9.6 8.5 11.25 8.5Z" stroke="white" stroke-width="1.5" stroke-linecap="round" stroke-linejoin="round"/> <path d="M3.32001 7.04004L3.46001 7.14004C5.01001 8.28004 6.71001 9.18004 8.52001 9.84004" stroke="white" stroke-width="1.5" stroke-linecap="round" stroke-linejoin="round"/> <path d="M8.51999 14.17C6.25999 13.35 4.11999 12.21 2.17999 10.79" stroke="white" stroke-width="1.5" stroke-linecap="round" stroke-linejoin="round"/> <path d="M15.23 14.17C17.49 13.35 19.63 12.21 21.57 10.79" stroke="white" stroke-width="1.5" stroke-linecap="round" stroke-linejoin="round"/> <path d="M20.52 7.04004L20.38 7.14004C18.83 8.28004 17.13 9.18004 15.32 9.84004" stroke="white" stroke-width="1.5" stroke-linecap="round" stroke-linejoin="round"/> <path d="M10 21.7599V15.4199" stroke="white" stroke-width="1.5" stroke-linecap="round" stroke-linejoin="round"/> <path d="M14 21.7599V15.4199" stroke="white" stroke-width="1.5" stroke-linecap="round" stroke-linejoin="round"/> </g> <defs> <clipPath id="clip0_4482_3862"> <rect width="24" height="24" fill="white"/> </clipPath> </defs> </svg>
