<svg width="24" height="24" viewBox="0 0 24 24" fill="none" xmlns="http://www.w3.org/2000/svg"> <g clip-path="url(#clip0_655_7288)"> <path d="M18.1502 16.27H16.2302C14.5302 16.27 13.2002 14.79 13.3902 13.1L14.3502 4.54C14.5102 3.1 15.7302 2 17.1902 2C18.6502 2 19.8702 3.09 20.0302 4.54L20.9902 13.1C21.1802 14.79 19.8602 16.27 18.1502 16.27Z" stroke="white" stroke-width="1.5" stroke-linecap="round" stroke-linejoin="round"/> <path d="M20.1802 5.97H19.5102C18.8702 5.97 18.3502 6.49 18.3502 7.13V7.53C18.3502 8.17 17.8302 8.69 17.1902 8.69C16.5502 8.69 16.0302 8.17 16.0302 7.53V7.13C16.0302 6.49 15.5102 5.97 14.8702 5.97H14.2002" stroke="white" stroke-width="1.5" stroke-linecap="round" stroke-linejoin="round"/> <path d="M16.0195 16.26V19.51" stroke="white" stroke-width="1.5" stroke-linecap="round" stroke-linejoin="round"/> <path d="M18.3496 16.26V19.51" stroke="white" stroke-width="1.5" stroke-linecap="round" stroke-linejoin="round"/> <path d="M19.51 19.51H4.49C4.49 18.82 3.93 18.27 3.24 18.27H2V22H22V18.27H20.76C20.07 18.27 19.51 18.83 19.51 19.51Z" stroke="white" stroke-width="1.5" stroke-linecap="round" stroke-linejoin="round"/> <path d="M5.85041 16.27H7.77041C9.47041 16.27 10.8004 14.79 10.6104 13.1L9.65041 4.54C9.49041 3.1 8.27041 2 6.81041 2C5.35041 2 4.13041 3.09 3.97041 4.54L3.01041 13.1C2.82041 14.79 4.14041 16.27 5.85041 16.27Z" stroke="white" stroke-width="1.5" stroke-linecap="round" stroke-linejoin="round"/> <path d="M3.82031 5.97H4.49031C5.13031 5.97 5.65031 6.49 5.65031 7.13V7.53C5.65031 8.17 6.17031 8.69 6.81031 8.69C7.45031 8.69 7.97031 8.17 7.97031 7.53V7.13C7.97031 6.49 8.49031 5.97 9.13031 5.97H9.80031" stroke="white" stroke-width="1.5" stroke-linecap="round" stroke-linejoin="round"/> <path d="M7.98047 16.26V19.51" stroke="white" stroke-width="1.5" stroke-linecap="round" stroke-linejoin="round"/> <path d="M5.65039 16.26V19.51" stroke="white" stroke-width="1.5" stroke-linecap="round" stroke-linejoin="round"/> </g> <defs> <clipPath id="clip0_655_7288"> <rect width="24" height="24" fill="white"/> </clipPath> </defs> </svg>
