<svg width="24" height="24" viewBox="0 0 24 24" fill="none" xmlns="http://www.w3.org/2000/svg"> <g clip-path="url(#clip0_4482_11057)"> <path d="M2 19.7798C2 21.0098 2.99 21.9998 4.22 21.9998" stroke="white" stroke-width="1.5" stroke-linecap="round" stroke-linejoin="round"/> <path d="M2 16.4399V13.1099" stroke="white" stroke-width="1.5" stroke-linecap="round" stroke-linejoin="round"/> <path d="M4.22 7.56006C2.99 7.56006 2 8.55006 2 9.78006" stroke="white" stroke-width="1.5" stroke-linecap="round" stroke-linejoin="round"/> <path d="M14.2197 21.9998C15.4497 21.9998 16.4397 21.0098 16.4397 19.7798" stroke="white" stroke-width="1.5" stroke-linecap="round" stroke-linejoin="round"/> <path d="M10.8896 22H7.55957" stroke="white" stroke-width="1.5" stroke-linecap="round" stroke-linejoin="round"/> <path d="M7.55957 14.2202C7.55957 15.4502 8.54957 16.4402 9.77957 16.4402" stroke="white" stroke-width="1.5" stroke-linecap="round" stroke-linejoin="round"/> <path d="M7.55957 4.22C7.55957 2.99 8.54957 2 9.77957 2H19.7796C21.0096 2 21.9996 2.99 21.9996 4.22V14.22C21.9996 15.45 21.0096 16.44 19.7796 16.44" stroke="white" stroke-width="1.5" stroke-linecap="round" stroke-linejoin="round"/> <path d="M16.4404 16.4399H13.1104" stroke="white" stroke-width="1.5" stroke-linecap="round" stroke-linejoin="round"/> <path d="M7.55957 10.9902V7.66016" stroke="white" stroke-width="1.5" stroke-linecap="round" stroke-linejoin="round"/> </g> <defs> <clipPath id="clip0_4482_11057"> <rect width="24" height="24" fill="white"/> </clipPath> </defs> </svg>
