<svg width="24" height="24" viewBox="0 0 24 24" fill="none" xmlns="http://www.w3.org/2000/svg"> <g clip-path="url(#clip0_2085_391545)"> <path d="M12 2C8.10995 2 4.94995 5.16 4.94995 9.05V12H8.67995V9.05C8.67995 7.22 10.17 5.73 12 5.73C13.83 5.73 15.32 7.22 15.32 9.05V12H19.05V9.05C19.05 5.16 15.89 2 12 2Z" fill="white"/> <path opacity="0.4" d="M19.05 12V14.95C19.05 18.84 15.89 22 12 22C8.10995 22 4.94995 18.84 4.94995 14.95V12H8.67995V14.95C8.67995 16.78 10.17 18.27 12 18.27C13.83 18.27 15.32 16.78 15.32 14.95V12H19.05Z" fill="white"/> </g> <defs> <clipPath id="clip0_2085_391545"> <rect width="24" height="24" fill="white"/> </clipPath> </defs> </svg>
