<svg width="24" height="24" viewBox="0 0 24 24" fill="none" xmlns="http://www.w3.org/2000/svg"> <g clip-path="url(#clip0_2085_391552)"> <path d="M18.18 4.62L14.93 12H10.85L13.4433 6.10878C13.5219 5.93033 13.3912 5.73 13.1962 5.73H7.53003C6.49003 5.73 5.66003 4.9 5.66003 3.87C5.66003 2.84 6.49003 2 7.53003 2H16.47C17.1 2 17.69 2.32 18.04 2.85C18.38 3.37 18.44 4.04 18.18 4.62Z" fill="white"/> <path opacity="0.4" d="M14.93 12L11.03 20.88C10.73 21.58 10.04 22 9.31998 22C9.06998 22 8.81998 21.95 8.56998 21.84C7.62998 21.43 7.19998 20.32 7.60998 19.38L10.85 12H14.93Z" fill="white"/> </g> <defs> <clipPath id="clip0_2085_391552"> <rect width="24" height="24" fill="white"/> </clipPath> </defs> </svg>
