<svg width="24" height="24" viewBox="0 0 24 24" fill="none" xmlns="http://www.w3.org/2000/svg"> <g clip-path="url(#clip0_4482_12194)"> <path d="M20.45 9.11044C19.79 7.97044 18.58 7.27044 17.26 7.27044C17.26 4.66044 15.36 2.45044 12.78 2.06044C10.2 1.68044 7.72996 3.25044 6.97996 5.74044C4.62996 6.02044 2.90996 8.08044 3.04996 10.4404C3.18996 12.8004 5.14996 14.6404 7.51996 14.6304H17.26C18.58 14.6304 19.79 13.9304 20.45 12.7904C21.11 11.6504 21.11 10.2504 20.45 9.11044ZM13.58 10.1204H12.75V10.9504C12.75 11.3604 12.41 11.7004 12 11.7004C11.59 11.7004 11.25 11.3604 11.25 10.9504V10.1204H10.42C10.01 10.1204 9.66996 9.78044 9.66996 9.37044C9.66996 8.96044 10.01 8.62044 10.42 8.62044H11.25V7.79044C11.25 7.38044 11.59 7.04044 12 7.04044C12.41 7.04044 12.75 7.38044 12.75 7.79044V8.62044H13.58C13.99 8.62044 14.33 8.96044 14.33 9.37044C14.33 9.78044 13.99 10.1204 13.58 10.1204Z" fill="white"/> <g opacity="0.4"> <path d="M20.4201 19.1406H14.1001C14.1001 19.1406 14.0101 19.1606 13.9601 19.1706C13.7501 18.5906 13.2901 18.1406 12.7101 17.9206C12.7101 17.8706 12.7401 17.8306 12.7401 17.7806V14.6406C12.7401 14.2306 12.4001 13.8906 11.9901 13.8906C11.5801 13.8906 11.2401 14.2306 11.2401 14.6406V17.7806C11.2401 17.7806 11.2601 17.8706 11.2701 17.9206C10.6901 18.1306 10.2401 18.5906 10.0201 19.1706C9.97008 19.1706 9.93008 19.1406 9.88008 19.1406H3.58008C3.17008 19.1406 2.83008 19.4806 2.83008 19.8906C2.83008 20.3006 3.17008 20.6406 3.58008 20.6406H9.90008C9.90008 20.6406 9.99008 20.6206 10.0401 20.6106C10.3401 21.4206 11.1001 21.9906 12.0101 21.9906C12.9201 21.9906 13.6801 21.4106 13.9801 20.6106C14.0301 20.6106 14.0701 20.6406 14.1101 20.6406H20.4301C20.8401 20.6406 21.1801 20.3006 21.1801 19.8906C21.1801 19.4806 20.8401 19.1406 20.4301 19.1406H20.4201Z" fill="white"/> </g> </g> <defs> <clipPath id="clip0_4482_12194"> <rect width="24" height="24" fill="white"/> </clipPath> </defs> </svg>
