<svg width="24" height="24" viewBox="0 0 24 24" fill="none" xmlns="http://www.w3.org/2000/svg"> <g clip-path="url(#clip0_4482_822)"> <path d="M14.5 18.25H9.5C9.09 18.25 8.75 17.91 8.75 17.5C8.75 17.09 9.09 16.75 9.5 16.75H14.5C14.91 16.75 15.25 17.09 15.25 17.5C15.25 17.91 14.91 18.25 14.5 18.25Z" fill="white"/> <path d="M12 15.75C11.59 15.75 11.25 15.41 11.25 15V10.5C11.25 10.09 11.59 9.75 12 9.75C12.41 9.75 12.75 10.09 12.75 10.5V15C12.75 15.41 12.41 15.75 12 15.75Z" fill="white"/> <path d="M14.25 13.5H9.75C9.34 13.5 9 13.16 9 12.75C9 12.34 9.34 12 9.75 12H14.25C14.66 12 15 12.34 15 12.75C15 13.16 14.66 13.5 14.25 13.5Z" fill="white"/> <path opacity="0.4" d="M16.5 22H7.5C5.3 22 3.5 20.2 3.5 18V6C3.5 3.8 5.3 2 7.5 2H16.5C18.7 2 20.5 3.8 20.5 6V18C20.5 20.2 18.7 22 16.5 22Z" fill="white"/> <path d="M17.5 8.75H16.5C14.98 8.75 13.75 7.52 13.75 6V5C13.75 4.59 14.09 4.25 14.5 4.25C14.91 4.25 15.25 4.59 15.25 5V6C15.25 6.69 15.81 7.25 16.5 7.25H17.5C17.91 7.25 18.25 7.59 18.25 8C18.25 8.41 17.91 8.75 17.5 8.75Z" fill="white"/> </g> <defs> <clipPath id="clip0_4482_822"> <rect width="24" height="24" fill="white"/> </clipPath> </defs> </svg>
