<svg width="24" height="24" viewBox="0 0 24 24" fill="none" xmlns="http://www.w3.org/2000/svg"> <g clip-path="url(#clip0_3111_16598)"> <path d="M19.35 4.11999C19.48 4.32999 19.26 4.56999 19.02 4.50999C18.56 4.36999 18.04 4.29999 17.52 4.29999H14.19C14.07 4.29999 13.96 4.24999 13.89 4.14999L12.72 2.58999C12.58 2.38999 12.72 2.10999 12.95 2.10999H15.67C17.21 2.10999 18.57 2.90999 19.34 4.11999H19.35Z" fill="white"/> <path opacity="0.4" d="M21.89 10.16V17.52C21.89 19.93 19.93 21.89 17.52 21.89H6.47999C4.06999 21.89 2.10999 19.93 2.10999 17.52V6.47999C2.10999 4.06999 4.06999 2.10999 6.47999 2.10999H8.77999C10.39 2.10999 10.89 2.63999 11.54 3.49999L12.92 5.32999C13.23 5.73999 13.27 5.78999 13.84 5.78999H17.52C17.89 5.78999 18.26 5.83999 18.62 5.93999C19.14 6.06999 19.62 6.28999 20.05 6.59999C21.17 7.38999 21.89 8.68999 21.89 10.16Z" fill="white"/> <path d="M13.5 13.26V17.8C13.5 18.22 13.16 18.55 12.75 18.55C12.34 18.55 12 18.22 12 17.8V13.26C12 12.84 12.33 12.51 12.75 12.51C13.17 12.51 13.5 12.84 13.5 13.26Z" fill="white"/> <path d="M10.56 17.47L8.34001 12.93C8.09001 12.41 7.25001 12.41 6.99001 12.93L4.78001 17.47C4.60001 17.85 4.75001 18.3 5.12001 18.48C5.50001 18.66 5.95001 18.5 6.13001 18.13L6.43001 17.51H8.90001L9.21001 18.13C9.34001 18.4 9.61001 18.55 9.88001 18.55C9.99002 18.55 10.11 18.53 10.21 18.48C10.58 18.3 10.74 17.85 10.56 17.47ZM7.16001 16.01L7.67001 14.97L8.17001 16.01H7.16001Z" fill="white"/> </g> <defs> <clipPath id="clip0_3111_16598"> <rect width="24" height="24" fill="white"/> </clipPath> </defs> </svg>
