<svg width="24" height="24" viewBox="0 0 24 24" fill="none" xmlns="http://www.w3.org/2000/svg"> <g clip-path="url(#clip0_3111_16295)"> <path d="M19.72 8.38C18.99 7.58 17.9 7.12 16.38 6.95H5.80999C4.28999 7.12 3.19 7.58 2.46999 8.38C1.42 9.56 1.44999 11.12 1.56999 12.2L2.32999 18.24C2.54999 20.35 3.40999 22.52 8.06999 22.52H14.12C15.51 22.52 16.56 22.32 17.35 21.99C17.17 21.61 16.85 21.32 16.43 21.2L15.45 20.93C14.88 20.77 14.49 20.27 14.49 19.66C14.49 19.05 14.87 18.55 15.47 18.38L16.43 18.13C16.94 17.98 17.31 17.61 17.45 17.11L17.71 16.16L17.77 15.99C17.96 15.49 18.44 15.16 18.99 15.16C19.52 15.16 19.94 15.47 20.15 15.93L20.62 12.19C20.74 11.12 20.76 9.56 19.72 8.38ZM7.19999 12.93C6.60999 12.93 6.11999 12.44 6.11999 11.84C6.11999 11.24 6.60999 10.76 7.19999 10.76C7.78999 10.76 8.29999 11.25 8.29999 11.84C8.29999 12.43 7.79999 12.93 7.19999 12.93ZM14.79 12.93C14.19 12.93 13.71 12.44 13.71 11.84C13.71 11.24 14.19 10.76 14.79 10.76C15.39 10.76 15.88 11.25 15.88 11.84C15.88 12.43 15.39 12.93 14.79 12.93Z" fill="white"/> <path d="M22.49 19.68C22.49 19.75 22.45 19.91 22.26 19.97L21.28 20.24C20.43 20.47 19.79 21.11 19.56 21.96L19.3 22.92C19.24 23.14 19.07 23.16 18.99 23.16C18.91 23.16 18.74 23.14 18.68 22.92L18.42 21.95C18.19 21.11 17.54 20.47 16.7 20.24L15.73 19.98C15.52 19.92 15.5 19.74 15.5 19.67C15.5 19.59 15.52 19.41 15.73 19.35L16.71 19.09C17.55 18.85 18.19 18.21 18.42 17.37L18.7 16.35C18.77 16.18 18.93 16.15 18.99 16.15C19.05 16.15 19.22 16.17 19.28 16.33L19.56 17.36C19.79 18.2 20.44 18.84 21.28 19.08L22.28 19.36C22.48 19.44 22.49 19.62 22.49 19.68Z" fill="white"/> <path opacity="0.4" d="M16.35 6.11999V6.94999H14.9V6.11999C14.9 5.04999 14.45 4.01999 13.65 3.29999C12.84 2.56999 11.81 2.21999 10.72 2.32999C8.87996 2.49999 7.27996 4.35999 7.27996 6.31999V6.94999H5.82996V6.31999C5.82996 3.60999 7.99996 1.11999 10.58 0.879994C12.07 0.739994 13.51 1.20999 14.62 2.21999C15.72 3.21999 16.35 4.63999 16.35 6.11999Z" fill="white"/> </g> <defs> <clipPath id="clip0_3111_16295"> <rect width="24" height="24" fill="white"/> </clipPath> </defs> </svg>
