<svg width="24" height="24" viewBox="0 0 24 24" fill="none" xmlns="http://www.w3.org/2000/svg"> <g clip-path="url(#clip0_3111_16185)"> <path opacity="0.4" d="M19.7401 10.21V13.31C19.7401 17.04 17.8701 18.91 14.1501 18.91H13.6801C13.3901 18.91 13.1101 19.05 12.9301 19.28L11.5401 21.14C10.9201 21.96 9.9201 21.96 9.3001 21.14L7.9001 19.28C7.7501 19.07 7.4201 18.91 7.1601 18.91H6.6901C2.9601 18.91 1.1001 17.97 1.1001 13.31V8.65C1.1001 4.93 2.9601 3.06 6.6901 3.06H14.1501C15.5201 3.06 16.6401 3.32 17.5001 3.83C17.3301 4.01 17.1001 4.15 16.8401 4.22L15.8801 4.47C15.2801 4.64 14.9001 5.14 14.9001 5.75C14.9001 6.36 15.2901 6.86 15.8601 7.02L16.8401 7.29C17.3401 7.43 17.7201 7.81 17.8601 8.31L18.1201 9.28C18.2801 9.88 18.7801 10.26 19.3901 10.26C19.5101 10.26 19.6301 10.24 19.7401 10.21Z" fill="white"/> <path d="M7.18019 12.57C7.46019 12.84 7.46019 13.29 7.18019 13.56C7.05019 13.7 6.87019 13.76 6.69019 13.76C6.51019 13.76 6.34019 13.7 6.20019 13.56L4.33019 11.69C4.06019 11.42 4.06019 10.98 4.33019 10.7L6.20019 8.84C6.47019 8.57 6.91019 8.57 7.18019 8.84C7.46019 9.11 7.46019 9.56 7.18019 9.83L5.81019 11.2L7.18019 12.57Z" fill="white"/> <path d="M11.99 9.3L10.13 13.65C10.02 13.91 9.76004 14.07 9.49004 14.07C9.39004 14.07 9.30004 14.05 9.21004 14.01C8.85004 13.86 8.69004 13.45 8.84004 13.09L10.71 8.74C10.86 8.38 11.27 8.22 11.63 8.38C11.98 8.53 12.14 8.94 11.99 9.3Z" fill="white"/> <path d="M16.5 11.69L14.64 13.56C14.5 13.7 14.32 13.76 14.15 13.76C13.97 13.76 13.79 13.7 13.65 13.56C13.38 13.29 13.38 12.84 13.65 12.57L15.02 11.2L13.65 9.83C13.38 9.56 13.38 9.11 13.65 8.84C13.92 8.57 14.37 8.57 14.64 8.84L16.5 10.7C16.77 10.98 16.77 11.42 16.5 11.69Z" fill="white"/> <path d="M22.9002 5.77C22.9002 5.84 22.8602 6 22.6702 6.06L21.6902 6.33C20.8402 6.56 20.2002 7.2 19.9702 8.05L19.7102 9.01C19.6502 9.23 19.4802 9.25 19.4002 9.25C19.3202 9.25 19.1502 9.23 19.0902 9.01L18.8302 8.04C18.6002 7.2 17.9502 6.56 17.1102 6.33L16.1402 6.07C15.9302 6.01 15.9102 5.83 15.9102 5.76C15.9102 5.68 15.9302 5.5 16.1402 5.44L17.1202 5.18C17.9602 4.94 18.6002 4.3 18.8302 3.46L19.1102 2.44C19.1802 2.27 19.3402 2.24 19.4002 2.24C19.4602 2.24 19.6302 2.26 19.6902 2.42L19.9702 3.45C20.2002 4.29 20.8502 4.93 21.6902 5.17L22.6902 5.45C22.8902 5.53 22.9002 5.71 22.9002 5.77Z" fill="white"/> </g> <defs> <clipPath id="clip0_3111_16185"> <rect width="24" height="24" fill="white"/> </clipPath> </defs> </svg>
