<svg width="24" height="24" viewBox="0 0 24 24" fill="none" xmlns="http://www.w3.org/2000/svg"> <g clip-path="url(#clip0_3111_16058)"> <path opacity="0.4" d="M20.42 12.7C20.09 12.32 19.61 12.09 19.06 12.09C18.3046 12.09 17.6177 12.6071 17.38 13.32L17.33 13.49L17 14.71C16.83 15.31 16.38 15.77 15.76 15.94L14.53 16.26C13.71 16.49 13.18 17.2 13.18 18.02C13.18 18.84 13.71 19.54 14.49 19.76L15.76 20.1C16.31 20.25 16.74 20.67 16.93 21.2C16.44 21.37 15.93 21.47 15.38 21.47H5.47004C2.68004 21.47 0.420044 19.22 0.420044 16.43V6.52C0.420044 3.73 2.68004 1.47 5.47004 1.47H15.38C18.17 1.47 20.42 3.73 20.42 6.52V12.7Z" fill="white"/> <path d="M9.28998 13.19C9.58998 13.48 9.58998 13.95 9.28998 14.25C9.14998 14.39 8.95998 14.47 8.75998 14.47C8.55998 14.47 8.37998 14.39 8.22998 14.25L6.00998 12.03C5.71998 11.73 5.71998 11.26 6.00998 10.97L8.22998 8.75C8.52998 8.45 8.99998 8.45 9.28998 8.75C9.58998 9.04 9.58998 9.51 9.28998 9.81L7.60998 11.5L9.28998 13.19Z" fill="white"/> <path d="M14.83 12.03L12.62 14.25C12.47 14.39 12.28 14.47 12.08 14.47C11.88 14.47 11.7 14.39 11.55 14.25C11.26 13.95 11.26 13.48 11.55 13.19L13.24 11.5L11.55 9.81C11.26 9.51 11.26 9.04 11.55 8.75C11.84 8.46 12.32 8.45 12.62 8.75L14.83 10.97C15.13 11.26 15.13 11.73 14.83 12.03Z" fill="white"/> <path d="M23.5799 18.04C23.5799 18.13 23.5299 18.34 23.2899 18.42L22.0199 18.77C20.9299 19.07 20.1099 19.89 19.8099 20.98L19.4699 22.22C19.3899 22.5 19.1699 22.53 19.0699 22.53C18.9699 22.53 18.7499 22.5 18.6699 22.22L18.3299 20.97C18.0299 19.89 17.1999 19.07 16.1199 18.77L14.8699 18.43C14.5999 18.35 14.5699 18.12 14.5699 18.03C14.5699 17.93 14.5999 17.7 14.8699 17.62L16.1299 17.29C17.2099 16.98 18.0299 16.16 18.3299 15.08L18.6899 13.77C18.7799 13.55 18.9799 13.52 19.0699 13.52C19.1599 13.52 19.3699 13.55 19.4499 13.75L19.8099 15.07C20.1099 16.15 20.9399 16.97 22.0199 17.28L23.3099 17.63C23.5699 17.73 23.5799 17.96 23.5799 18.04Z" fill="white"/> </g> <defs> <clipPath id="clip0_3111_16058"> <rect width="24" height="24" fill="white"/> </clipPath> </defs> </svg>
