<svg width="24" height="24" viewBox="0 0 24 24" fill="none" xmlns="http://www.w3.org/2000/svg"> <g clip-path="url(#clip0_3111_17054)"> <path opacity="0.4" d="M22.97 11.4C22.97 17.46 18.06 22.38 12 22.38C10.46 22.38 9.00003 22.06 7.67003 21.48C7.85003 21.33 8.06003 21.21 8.31003 21.14L9.64003 20.77C10.382 20.5334 10.89 19.835 10.89 19.06C10.89 18.2304 10.3099 17.5366 9.54003 17.28L8.29003 16.95C7.69003 16.78 7.24003 16.33 7.07003 15.72L6.66003 14.26C6.40003 13.57 5.74003 13.13 4.97003 13.13C4.22003 13.13 3.58003 13.61 3.31003 14.3L3.24003 14.53L2.91003 15.75C2.81003 16.1 2.61003 16.39 2.34003 16.61C1.50003 15.06 1.03003 13.29 1.03003 11.4C1.03003 5.33999 5.94003 0.429993 12 0.429993C18.06 0.429993 22.97 5.33999 22.97 11.4Z" fill="white"/> <path d="M16.76 15.31C16.61 15.57 16.33 15.71 16.05 15.71C15.91 15.71 15.76 15.68 15.63 15.59L12.24 13.57C11.4 13.06 10.77 11.96 10.77 10.98V6.49999C10.77 6.04999 11.15 5.67999 11.6 5.67999C12.05 5.67999 12.42 6.04999 12.42 6.49999V10.98C12.42 11.38 12.74 11.96 13.08 12.16L16.48 14.18C16.87 14.41 17 14.91 16.76 15.31Z" fill="white"/> <path d="M9.48998 19.09C9.48998 19.18 9.43998 19.38 9.19998 19.46L7.92998 19.81C6.83998 20.11 6.01998 20.93 5.71998 22.02L5.37998 23.26C5.29998 23.54 5.07998 23.57 4.97998 23.57C4.87998 23.57 4.65998 23.54 4.57998 23.26L4.23998 22.01C3.93998 20.93 3.10998 20.11 2.02998 19.81L0.77998 19.47C0.50998 19.39 0.47998 19.16 0.47998 19.07C0.47998 18.97 0.50998 18.74 0.77998 18.66L2.03998 18.33C3.11998 18.02 3.93998 17.2 4.23998 16.12L4.59998 14.81C4.68998 14.59 4.88998 14.56 4.97998 14.56C5.06998 14.56 5.27998 14.59 5.35998 14.79L5.71998 16.11C6.01998 17.19 6.84998 18.01 7.92998 18.32L9.21998 18.67C9.47998 18.77 9.48998 19 9.48998 19.08V19.09Z" fill="white"/> </g> <defs> <clipPath id="clip0_3111_17054"> <rect width="24" height="24" fill="white"/> </clipPath> </defs> </svg>
