<svg width="24" height="24" viewBox="0 0 24 24" fill="none" xmlns="http://www.w3.org/2000/svg"> <g clip-path="url(#clip0_3111_15905)"> <path opacity="0.4" d="M19.87 11.45C19.87 12.23 19.76 12.98 19.57 13.7C19.51 13.58 19.45 13.46 19.41 13.32L19 11.86C18.74 11.17 18.08 10.73 17.31 10.73C16.56 10.73 15.92 11.21 15.65 11.9L15.58 12.13L15.25 13.35C15.08 13.95 14.63 14.41 14.01 14.58L12.78 14.9C11.96 15.13 11.43 15.84 11.43 16.66C11.43 17.48 11.96 18.18 12.74 18.4L14.01 18.74C14.39 18.85 14.71 19.08 14.94 19.39C13.75 19.98 12.42 20.32 11 20.32C6.1 20.32 2.13 16.34 2.13 11.45C2.13 6.56 6.1 2.58 11 2.58C15.9 2.58 19.87 6.55 19.87 11.45Z" fill="white"/> <path d="M11.0001 5.64V9.95C11.0001 10.77 10.3301 11.45 9.50006 11.45H5.20006C4.25006 11.45 3.51006 10.57 3.73006 9.65C4.40006 6.96 6.52006 4.84 9.20006 4.18C10.1201 3.95 11.0001 4.69 11.0001 5.64Z" fill="white"/> <path d="M21.8299 16.68C21.8299 16.77 21.7799 16.98 21.5399 17.06L20.2699 17.41C19.1799 17.71 18.3599 18.53 18.0599 19.62L17.7199 20.86C17.6399 21.14 17.4199 21.17 17.3199 21.17C17.2199 21.17 16.9999 21.14 16.9199 20.86L16.5799 19.61C16.2799 18.53 15.4499 17.71 14.3699 17.41L13.1199 17.07C12.8499 16.99 12.8199 16.76 12.8199 16.67C12.8199 16.57 12.8499 16.34 13.1199 16.26L14.3799 15.93C15.4599 15.62 16.2799 14.8 16.5799 13.72L16.9399 12.41C17.0299 12.19 17.2299 12.16 17.3199 12.16C17.4099 12.16 17.6199 12.19 17.6999 12.39L18.0599 13.71C18.3599 14.79 19.1899 15.61 20.2699 15.92L21.5599 16.27C21.8199 16.37 21.8299 16.6 21.8299 16.68Z" fill="white"/> </g> <defs> <clipPath id="clip0_3111_15905"> <rect width="24" height="24" fill="white"/> </clipPath> </defs> </svg>
