<svg width="24" height="24" viewBox="0 0 24 24" fill="none" xmlns="http://www.w3.org/2000/svg"> <g clip-path="url(#clip0_3111_16040)"> <path opacity="0.4" d="M22.5101 14.93C22.7701 14.93 22.9801 15.14 22.9801 15.4V16.33C22.9801 17.88 21.7301 19.13 20.1801 19.13C20.1801 17.59 18.9201 16.33 17.3801 16.33C15.8401 16.33 14.5801 17.59 14.5801 19.13H12.7101C12.7101 17.59 11.4501 16.33 9.91006 16.33C8.37006 16.33 7.11006 17.59 7.11006 19.13C5.56006 19.13 4.31006 17.88 4.31006 16.33V14.46C4.31006 13.95 4.73006 13.53 5.24006 13.53H14.1101C15.4001 13.53 16.4401 12.49 16.4401 11.2V6.07C16.4401 5.56 16.8601 5.14 17.3701 5.14H18.1501C18.8201 5.14 19.4401 5.5 19.7701 6.08L20.3701 7.13C20.4501 7.28 20.3401 7.48 20.1601 7.48C18.8701 7.48 17.8301 8.53 17.8301 9.81V12.61C17.8301 13.9 18.8701 14.94 20.1601 14.94L22.5101 14.93Z" fill="white"/> <path d="M9.91004 21C10.94 21 11.78 20.16 11.78 19.13C11.78 18.1 10.94 17.26 9.91004 17.26C8.88004 17.26 8.04004 18.1 8.04004 19.13C8.04004 20.16 8.88004 21 9.91004 21Z" fill="white"/> <path d="M17.38 21C18.41 21 19.25 20.16 19.25 19.13C19.25 18.1 18.41 17.26 17.38 17.26C16.35 17.26 15.51 18.1 15.51 19.13C15.51 20.16 16.35 21 17.38 21Z" fill="white"/> <path d="M22.98 13.53H20.18C19.67 13.53 19.25 13.11 19.25 12.6V9.8C19.25 9.29 19.67 8.87 20.18 8.87H21.38L22.73 11.24C22.89 11.52 22.97 11.83 22.97 12.15L22.98 13.53Z" fill="white"/> <path d="M14.52 3.33H8.26005C7.43005 3.33 6.67005 3.58 6.03005 4.02C6.17005 4.5 6.55005 4.86 7.02005 5L7.99005 5.26L8.12005 5.3L8.18005 5.33C8.68005 5.54 8.98005 6.01 8.98005 6.56V6.67C8.93005 7.2 8.57005 7.64 8.03005 7.81L7.04005 8.08C6.54005 8.22 6.15005 8.6 6.02005 9.1L5.76005 10.06C5.60005 10.65 5.10005 11.03 4.49005 11.03C4.42005 11.03 4.36005 11.01 4.30005 11V11.7C4.30005 12.24 4.74005 12.69 5.29005 12.69H13.73C14.71 12.69 15.51 11.89 15.51 10.91V4.32C15.51 3.78 15.07 3.33 14.52 3.33Z" fill="white"/> <path d="M8.01002 6.53C8.01002 6.6 7.97002 6.76 7.78002 6.82L6.79002 7.09C5.96002 7.32 5.31002 7.97 5.08002 8.81L4.82002 9.77C4.76002 9.99 4.59002 10.01 4.51002 10.01C4.43002 10.01 4.26002 9.99 4.20002 9.77L3.94002 8.8C3.72002 7.97 3.07002 7.32 2.23002 7.09L1.25002 6.83C1.04002 6.77 1.02002 6.59 1.02002 6.52C1.02002 6.44 1.04002 6.26 1.25002 6.2L2.23002 5.94C3.07002 5.7 3.71002 5.06 3.94002 4.22L4.22002 3.2C4.29002 3.03 4.45002 3 4.51002 3C4.57002 3 4.74002 3.02 4.80002 3.18L5.08002 4.21C5.31002 5.05 5.96002 5.69 6.80002 5.93L7.80002 6.21C8.00002 6.29 8.01002 6.47 8.01002 6.53Z" fill="white"/> </g> <defs> <clipPath id="clip0_3111_16040"> <rect width="24" height="24" fill="white"/> </clipPath> </defs> </svg>
