<svg width="24" height="24" viewBox="0 0 24 24" fill="none" xmlns="http://www.w3.org/2000/svg"> <g clip-path="url(#clip0_3242_29056)"> <path d="M19.38 7.40998C19.38 7.78998 19.07 8.09998 18.69 8.09998H2.16998C1.78998 8.09998 1.47998 7.78998 1.47998 7.40998C1.47998 7.02998 1.78998 6.71998 2.16998 6.71998H3.10998L3.45998 5.05998C3.78998 3.44998 4.47998 1.97998 7.20998 1.97998H13.65C16.39 1.97998 17.07 3.45998 17.4 5.05998L17.75 6.71998H18.69C19.07 6.71998 19.38 7.02998 19.38 7.40998Z" fill="white"/> <path opacity="0.4" d="M19.8999 14.02C19.3699 14.04 18.9099 14.36 18.7199 14.85L18.6599 15.02L18.3999 15.97C18.2599 16.47 17.8899 16.84 17.3799 16.99L16.4199 17.24C15.8199 17.41 15.4399 17.91 15.4399 18.52C15.4399 19.13 15.8299 19.63 16.3999 19.79L17.3799 20.06C17.8099 20.18 18.1399 20.48 18.3199 20.88C18.1299 20.93 17.9299 20.95 17.7299 20.95H16.0099C14.5199 20.95 14.2399 20.1 14.0499 19.54L13.8699 18.99C13.6299 18.29 13.5999 18.2 12.7799 18.2H8.07991C7.24991 18.2 7.19991 18.36 6.98991 18.99L6.79991 19.54C6.61991 20.1 6.32991 20.95 4.84991 20.95H3.11991C2.38991 20.95 1.69991 20.65 1.20991 20.12C0.739913 19.59 0.509913 18.9 0.569913 18.2L1.07991 12.61C1.22991 11.1 1.62991 9.47998 4.56991 9.47998H16.2799C19.2299 9.47998 19.6299 11.1 19.7699 12.61L19.8999 14.02Z" fill="white"/> <path d="M8.35998 13.8399C8.35998 14.2199 8.04998 14.5299 7.66998 14.5299H4.91998C4.53998 14.5299 4.22998 14.2199 4.22998 13.8399C4.22998 13.4599 4.53998 13.1499 4.91998 13.1499H7.66998C8.04998 13.1499 8.35998 13.4599 8.35998 13.8399Z" fill="white"/> <path d="M16.62 13.8399C16.62 14.2199 16.31 14.5299 15.94 14.5299H13.18C12.81 14.5299 12.49 14.2199 12.49 13.8399C12.49 13.4599 12.81 13.1499 13.18 13.1499H15.94C16.31 13.1499 16.62 13.4599 16.62 13.8399Z" fill="white"/> <path d="M23.44 18.5398C23.44 18.6098 23.3999 18.7698 23.2099 18.8298L22.2299 19.0998C21.38 19.3298 20.74 19.9698 20.51 20.8198L20.25 21.7798C20.19 21.9998 20.02 22.0198 19.94 22.0198C19.86 22.0198 19.6899 21.9998 19.6299 21.7798L19.37 20.8098C19.14 19.9698 18.4899 19.3298 17.65 19.0998L16.68 18.8398C16.47 18.7798 16.45 18.5998 16.45 18.5298C16.45 18.4498 16.47 18.2698 16.68 18.2098L17.66 17.9498C18.5 17.7098 19.14 17.0698 19.37 16.2298L19.65 15.2098C19.7199 15.0398 19.88 15.0098 19.94 15.0098C20 15.0098 20.17 15.0298 20.2299 15.1898L20.51 16.2198C20.74 17.0598 21.3899 17.6998 22.2299 17.9398L23.2299 18.2198C23.4299 18.2998 23.44 18.4798 23.44 18.5398Z" fill="white"/> </g> <defs> <clipPath id="clip0_3242_29056"> <rect width="24" height="24" fill="white"/> </clipPath> </defs> </svg>
