<svg width="24" height="24" viewBox="0 0 24 24" fill="none" xmlns="http://www.w3.org/2000/svg"> <g clip-path="url(#clip0_3111_16144)"> <path opacity="0.4" d="M16.64 17.5C16.52 17.5 16.41 17.56 16.34 17.66L15.89 18.33C15.55 18.84 14.96 19.16 14.35 19.16H9.66001C9.61001 19.16 9.55001 19.16 9.50001 19.14C8.94001 19.09 8.42001 18.8 8.10001 18.33L7.65001 17.64C7.59001 17.55 7.47001 17.49 7.36001 17.49H1.31001C1.28001 17.63 1.26001 17.77 1.26001 17.92V18.97C1.26001 20.61 2.59001 21.94 4.23001 21.94H19.77C21.41 21.94 22.74 20.61 22.74 18.97V17.86C22.74 17.74 22.73 17.62 22.7 17.5H16.64Z" fill="white"/> <path opacity="0.4" d="M15.62 10.44C13.95 10.44 12.59 9.08 12.59 7.41V3.85C12.59 3.31 12.74 2.81 12.99 2.37H5.50998C4.17998 2.37 3.09998 3.45 3.09998 4.78V15.99H7.35998C7.96998 15.99 8.56998 16.31 8.89998 16.81L9.34998 17.49C9.43998 17.62 9.60998 17.63 9.77998 17.65H14.35C14.47 17.65 14.58 17.59 14.64 17.5L15.09 16.82C15.44 16.3 16.02 15.99 16.63 15.99H20.89V10.42C20.89 10.42 20.8 10.43 20.76 10.43L15.62 10.44Z" fill="white"/> <path d="M16.95 5.92H17.5599L17.25 5.29L16.95 5.92Z" fill="white"/> <path d="M20.77 2.06H15.62C14.64 2.06 13.84 2.86 13.84 3.84V7.41C13.84 8.39 14.64 9.19 15.62 9.19H20.77C21.75 9.19 22.55 8.39 22.55 7.41V3.84C22.55 2.86 21.75 2.06 20.77 2.06ZM18.95 7.59C18.88 7.63 18.8 7.64 18.72 7.64C18.53 7.64 18.34 7.53 18.26 7.35L18.06 6.95H16.44L16.24 7.35C16.11 7.61 15.81 7.71 15.55 7.59C15.29 7.46 15.19 7.16 15.31 6.9L16.78 3.89C16.95 3.53 17.54 3.53 17.71 3.89L19.18 6.9C19.31 7.16 19.21 7.47 18.95 7.59ZM21.14 7.13C21.14 7.42 20.91 7.65 20.62 7.65C20.33 7.65 20.1 7.42 20.1 7.13V4.12C20.1 3.83 20.33 3.6 20.62 3.6C20.91 3.6 21.14 3.83 21.14 4.12V7.13Z" fill="white"/> </g> <defs> <clipPath id="clip0_3111_16144"> <rect width="24" height="24" fill="white"/> </clipPath> </defs> </svg>
