<svg width="24" height="24" viewBox="0 0 24 24" fill="none" xmlns="http://www.w3.org/2000/svg"> <g clip-path="url(#clip0_3111_16114)"> <path opacity="0.4" d="M19.58 2.55C18.78 1.75 17.69 1.3 16.55 1.3H6.41999C4.44999 1.3 2.85999 2.89 2.85999 4.86V6.3C2.96999 6.3 3.06999 6.27 3.17999 6.27H9.62999C11.56 6.27 13.14 7.84 13.14 9.78V14.25C13.14 16.18 11.57 17.76 9.62999 17.76H3.17999C3.06999 17.76 2.96999 17.74 2.85999 17.73V19.16C2.85999 21.13 4.45999 22.72 6.41999 22.72H18.79C21.16 22.72 23.07 20.8 23.07 18.44V7.83C23.07 6.7 22.62 5.6 21.82 4.8L19.58 2.55Z" fill="white"/> <path d="M4.84009 12.36H5.60009L5.22009 11.58L4.84009 12.36Z" fill="white"/> <path d="M9.64004 7.52H3.16004C1.92004 7.52 0.920044 8.52 0.920044 9.76V14.24C0.920044 15.48 1.92004 16.48 3.16004 16.48H9.64004C10.88 16.48 11.88 15.48 11.88 14.24V9.76C11.88 8.52 10.88 7.52 9.64004 7.52ZM7.35004 14.47C7.26004 14.51 7.16004 14.54 7.07004 14.54C6.83004 14.54 6.60004 14.41 6.49004 14.17L6.24004 13.67H4.21004L3.96004 14.17C3.80004 14.49 3.41004 14.63 3.09004 14.47C2.77004 14.31 2.63004 13.92 2.79004 13.6L4.64004 9.81C4.86004 9.36 5.59004 9.36 5.81004 9.81L7.66004 13.6C7.82004 13.92 7.67004 14.31 7.35004 14.47ZM10.1 13.89C10.1 14.25 9.81004 14.54 9.45004 14.54C9.09004 14.54 8.80004 14.25 8.80004 13.89V10.1C8.80004 9.74 9.09004 9.45 9.45004 9.45C9.81004 9.45 10.1 9.74 10.1 10.1V13.89Z" fill="white"/> </g> <defs> <clipPath id="clip0_3111_16114"> <rect width="24" height="24" fill="white"/> </clipPath> </defs> </svg>
