<svg width="24" height="24" viewBox="0 0 24 24" fill="none" xmlns="http://www.w3.org/2000/svg"> <g clip-path="url(#clip0_3111_15797)"> <path opacity="0.4" d="M17.34 22.01H6.65999C4.09999 22.01 2.99999 20.17 4.21999 17.92L9.20999 8.63C9.52999 8.06 9.67999 7.05 9.54999 6.41L8.90999 3.22C8.78999 2.6 9.25999 2.03 9.88999 2.03H14.12C14.75 2.03 15.22 2.6 15.1 3.22L14.46 6.41C14.33 7.06 14.48 8.06 14.8 8.63L19.79 17.92C21 20.17 19.9 22.01 17.34 22.01Z" fill="white"/> <path d="M15.13 16.22L14.2 16.47C13.4 16.69 12.77 17.32 12.55 18.12L12.3 19.06C12.21 19.36 11.78 19.36 11.7 19.06L11.45 18.12C11.23 17.32 10.6 16.69 9.79995 16.47L8.86995 16.22C8.55995 16.14 8.55995 15.71 8.86995 15.63L9.79995 15.38C10.6 15.15 11.23 14.53 11.45 13.72L11.7 12.79C11.79 12.49 12.22 12.49 12.3 12.79L12.55 13.72C12.77 14.53 13.4 15.15 14.2 15.38L15.13 15.63C15.44 15.71 15.44 16.14 15.13 16.22Z" fill="white"/> </g> <defs> <clipPath id="clip0_3111_15797"> <rect width="24" height="24" fill="white"/> </clipPath> </defs> </svg>
