<svg width="24" height="24" viewBox="0 0 24 24" fill="none" xmlns="http://www.w3.org/2000/svg"> <g clip-path="url(#clip0_3261_13074)"> <path opacity="0.4" d="M21.11 11.41V18.56C21.11 20.77 19.32 22.56 17.11 22.56H5.10999C2.89999 22.56 1.10999 20.77 1.10999 18.56V11.41C1.10999 10.17 1.67999 9.00999 2.65999 8.24999L8.65999 3.57999C10.1 2.45999 12.13 2.45999 13.57 3.57999L14.22 4.07999L13.84 4.17999C13.02 4.40999 12.49 5.11999 12.49 5.93999C12.49 6.75999 13.02 7.45999 13.8 7.67999L15.07 8.01999C15.67 8.18999 16.13 8.64999 16.3 9.24999L16.64 10.49C16.86 11.3 17.56 11.83 18.39 11.83C19.22 11.83 19.92 11.29 20.14 10.49L20.47 9.27999C20.87 9.90999 21.11 10.64 21.11 11.41Z" fill="white"/> <path d="M11.86 15.5599V18.5599C11.86 18.9699 11.52 19.3099 11.11 19.3099C10.7 19.3099 10.36 18.9699 10.36 18.5599V15.5599C10.36 15.1499 10.7 14.8099 11.11 14.8099C11.52 14.8099 11.86 15.1499 11.86 15.5599Z" fill="white"/> <path d="M22.89 5.96994C22.89 6.05994 22.84 6.25994 22.6 6.33994L21.33 6.68994C20.24 6.98994 19.42 7.80994 19.12 8.89994L18.78 10.1399C18.7 10.4199 18.48 10.4499 18.38 10.4499C18.28 10.4499 18.06 10.4199 17.98 10.1399L17.64 8.88994C17.34 7.80994 16.51 6.98994 15.43 6.68994L14.18 6.34994C13.91 6.26994 13.88 6.03994 13.88 5.94994C13.88 5.84994 13.91 5.61994 14.18 5.53994L15.44 5.20994C16.52 4.89994 17.34 4.07994 17.64 2.99994L18 1.68994C18.09 1.46994 18.29 1.43994 18.38 1.43994C18.47 1.43994 18.68 1.46994 18.76 1.66994L19.12 2.98994C19.42 4.06994 20.25 4.88994 21.33 5.19994L22.62 5.54994C22.88 5.64994 22.89 5.88994 22.89 5.96994Z" fill="white"/> </g> <defs> <clipPath id="clip0_3261_13074"> <rect width="24" height="24" fill="white"/> </clipPath> </defs> </svg>
