<svg width="24" height="24" viewBox="0 0 24 24" fill="none" xmlns="http://www.w3.org/2000/svg"> <g clip-path="url(#clip0_3111_16289)"> <path opacity="0.4" d="M20.91 7.11V13.45C20.58 12.95 20.04 12.64 19.4 12.64C18.65 12.64 18.01 13.12 17.74 13.81L17.67 14.04L17.34 15.26C17.17 15.86 16.72 16.32 16.1 16.49L14.87 16.81C14.05 17.04 13.52 17.75 13.52 18.57C13.52 19.39 14.05 20.09 14.83 20.31L16.1 20.65C16.38 20.73 16.62 20.88 16.82 21.06C16.17 21.3 15.46 21.44 14.72 21.44H6.57001C3.16001 21.44 0.390015 18.67 0.390015 15.25V7.11C0.390015 3.69 3.16001 0.919998 6.57001 0.919998H14.72C18.14 0.919998 20.91 3.69 20.91 7.11Z" fill="white"/> <path d="M14.58 8.01V8.66C14.58 9.51 13.92 9.98 13.12 9.71L11.16 9.06V14.52C11.16 15.14 10.91 15.69 10.51 16.1C10.11 16.5 9.55996 16.75 8.93996 16.75C7.70996 16.75 6.70996 15.75 6.70996 14.52C6.70996 13.29 7.70996 12.29 8.93996 12.29C9.15996 12.29 9.37996 12.34 9.57996 12.4V6.74C9.57996 6.06 9.99996 5.61 10.59 5.61C10.74 5.61 10.88 5.64 11.04 5.69L13.5 6.51C14.1 6.71 14.58 7.38 14.58 8.01Z" fill="white"/> <path d="M23.92 18.6C23.92 18.69 23.87 18.89 23.63 18.97L22.36 19.32C21.27 19.62 20.45 20.44 20.15 21.53L19.81 22.77C19.73 23.05 19.51 23.08 19.41 23.08C19.31 23.08 19.09 23.05 19.01 22.77L18.67 21.52C18.37 20.44 17.54 19.62 16.46 19.32L15.21 18.98C14.94 18.9 14.91 18.67 14.91 18.58C14.91 18.48 14.94 18.25 15.21 18.17L16.47 17.84C17.55 17.53 18.37 16.71 18.67 15.63L19.03 14.32C19.12 14.1 19.32 14.07 19.41 14.07C19.5 14.07 19.71 14.1 19.79 14.3L20.15 15.62C20.45 16.7 21.28 17.52 22.36 17.83L23.65 18.18C23.91 18.28 23.92 18.52 23.92 18.6Z" fill="white"/> </g> <defs> <clipPath id="clip0_3111_16289"> <rect width="24" height="24" fill="white"/> </clipPath> </defs> </svg>
