<svg width="24" height="24" viewBox="0 0 24 24" fill="none" xmlns="http://www.w3.org/2000/svg"> <g clip-path="url(#clip0_3111_16928)"> <path opacity="0.4" d="M23.32 5.20001V17.18C23.32 18.16 22.53 19.06 21.55 19.18L21.24 19.22C19.58 19.44 17.26 20.12 15.38 20.91C14.73 21.18 14 20.69 14 19.97V5.96001C14 5.58001 14.21 5.24001 14.55 5.06001C15.06 4.79001 15.64 4.51001 16.27 4.26001C17.59 3.74001 19.06 3.32001 20.3 3.11001C20.57 3.06001 20.83 3.03001 21.08 3.01001H21.14C22.35 3.01001 23.32 3.99001 23.32 5.20001Z" fill="white"/> <path d="M20.58 10.65L20.57 13.75C20.57 14.14 20.29 14.31 19.95 14.12L18.88 13.52C18.77 13.46 18.59 13.46 18.47 13.52L17.4 14.12C17.05 14.31 16.77 14.14 16.77 13.75V10.65C16.77 10.19 17.16 9.81 17.62 9.81H19.74C20.2 9.81 20.58 10.19 20.58 10.65Z" fill="white"/> <path opacity="0.4" d="M11.96 5.06001C10.12 4.06001 7.32004 3.18001 5.43004 3.01001H5.36004C4.15004 3.01001 3.17004 3.99001 3.17004 5.20001V13.03C3.41004 12.74 3.77004 12.57 4.17004 12.57C4.73004 12.57 5.18004 12.91 5.37004 13.41L5.68004 14.53C5.81004 15.03 6.20004 15.41 6.69004 15.55L7.66004 15.81C8.23606 16.0222 8.65004 16.4607 8.65004 17.11C8.65004 17.6926 8.25122 18.1865 7.70004 18.36L6.71004 18.63C6.32004 18.74 6.01004 18.98 5.83004 19.32C7.42004 19.6 9.45004 20.22 11.12 20.92C11.77 21.19 12.5 20.7 12.5 19.98V5.96001C12.5 5.58001 12.3 5.24001 11.97 5.06001H11.96Z" fill="white"/> <path d="M7.67005 17.08C7.67005 17.15 7.63005 17.31 7.44005 17.37L6.46005 17.64C5.61005 17.87 4.97005 18.51 4.74005 19.36L4.48005 20.32C4.42005 20.54 4.25005 20.56 4.17005 20.56C4.09005 20.56 3.92005 20.54 3.86005 20.32L3.60005 19.35C3.37005 18.51 2.72005 17.87 1.88005 17.64L0.910054 17.38C0.700054 17.32 0.680054 17.14 0.680054 17.07C0.680054 16.99 0.700054 16.81 0.910054 16.75L1.89005 16.49C2.73005 16.25 3.37005 15.61 3.60005 14.77L3.88005 13.75C3.95005 13.58 4.11005 13.55 4.17005 13.55C4.23005 13.55 4.40005 13.57 4.46005 13.73L4.74005 14.76C4.97005 15.6 5.62005 16.24 6.46005 16.48L7.46005 16.76C7.66005 16.84 7.67005 17.02 7.67005 17.08Z" fill="white"/> </g> <defs> <clipPath id="clip0_3111_16928"> <rect width="24" height="24" fill="white"/> </clipPath> </defs> </svg>
