<svg width="24" height="24" viewBox="0 0 24 24" fill="none" xmlns="http://www.w3.org/2000/svg"> <g clip-path="url(#clip0_3111_16250)"> <path opacity="0.4" d="M21.6499 6.53001V17.1C21.6499 17.16 21.6299 17.22 21.6299 17.29C21.3599 17.1 21.1599 16.83 21.0699 16.5L20.7599 15.38C20.5699 14.88 20.1199 14.54 19.5599 14.54C19.0099 14.54 18.5299 14.87 18.3399 15.37L18.2799 15.54L18.0199 16.49C17.8799 16.99 17.5099 17.36 16.9999 17.51L16.0399 17.76C15.4399 17.93 15.0599 18.43 15.0599 19.04C15.0599 19.65 15.4499 20.15 16.0199 20.31L16.9999 20.58C17.4999 20.72 17.8799 21.1 18.0199 21.6L18.0999 21.91C17.6199 22.06 17.1099 22.17 16.5799 22.17H6.00994C3.20994 22.17 0.939941 19.9 0.939941 17.1V6.53001C0.939941 3.73001 3.20994 1.46001 6.00994 1.46001H16.5799C19.3799 1.46001 21.6499 3.73001 21.6499 6.53001Z" fill="white"/> <path d="M16.1198 8.91001L13.9898 15.75C13.4798 17.38 11.2098 17.41 10.6698 15.79L10.0298 13.91C9.85984 13.39 9.44984 12.98 8.92984 12.81L7.04984 12.18C5.43984 11.64 5.45984 9.34001 7.08984 8.85001L13.9398 6.72001C15.2798 6.31001 16.5498 7.57001 16.1198 8.91001Z" fill="white"/> <path d="M23.0598 19.06C23.0598 19.13 23.0198 19.29 22.8298 19.35L21.8498 19.62C20.9998 19.85 20.3598 20.49 20.1298 21.34L19.8698 22.3C19.8098 22.52 19.6398 22.54 19.5598 22.54C19.4798 22.54 19.3098 22.52 19.2498 22.3L18.9898 21.33C18.7598 20.49 18.1098 19.85 17.2698 19.62L16.2998 19.36C16.0898 19.3 16.0698 19.12 16.0698 19.05C16.0698 18.97 16.0898 18.79 16.2998 18.73L17.2798 18.47C18.1198 18.23 18.7598 17.59 18.9898 16.75L19.2698 15.73C19.3398 15.56 19.4998 15.53 19.5598 15.53C19.6198 15.53 19.7898 15.55 19.8498 15.71L20.1298 16.74C20.3598 17.58 21.0098 18.22 21.8498 18.46L22.8498 18.74C23.0498 18.82 23.0598 19 23.0598 19.06Z" fill="white"/> </g> <defs> <clipPath id="clip0_3111_16250"> <rect width="24" height="24" fill="white"/> </clipPath> </defs> </svg>
