<svg width="24" height="24" viewBox="0 0 24 24" fill="none" xmlns="http://www.w3.org/2000/svg"> <g clip-path="url(#clip0_3111_16321)"> <path d="M15.49 22.53C16.43 22.53 17.19 21.77 17.19 20.83C17.19 19.89 16.43 19.13 15.49 19.13C14.55 19.13 13.79 19.89 13.79 20.83C13.79 21.77 14.55 22.53 15.49 22.53Z" fill="white"/> <path d="M7.7 22.53C8.64 22.53 9.4 21.77 9.4 20.83C9.4 19.89 8.64 19.13 7.7 19.13C6.76 19.13 6 19.89 6 20.83C6 21.77 6.76 22.53 7.7 22.53Z" fill="white"/> <path opacity="0.4" d="M20.48 9.15L20.09 14.52C19.98 15.98 18.7 17.18 17.24 17.18H6.41C4.74 17.18 3.43 15.75 3.57 14.09L4.27 5.84L4.38 4.46C4.4 4.15 4.3 3.86 4.1 3.64C3.89 3.42 3.61 3.3 3.31 3.3H1.61C1.21 3.3 0.880005 2.97 0.880005 2.57C0.880005 2.17 1.21 1.84 1.61 1.84H3.31C4.01 1.84 4.69 2.14 5.18 2.65C5.48 3 5.67 3.4 5.77 3.83H15.8C15.38 4.06 15.12 4.48 15.12 4.98C15.12 5.59 15.51 6.09 16.08 6.25L17.06 6.52C17.56 6.66 17.94 7.04 18.08 7.54L18.34 8.51C18.5 9.11 19 9.49 19.61 9.49C19.95 9.49 20.25 9.36 20.48 9.15Z" fill="white"/> <path d="M16.21 9.09001C16.21 9.53001 15.85 9.89001 15.41 9.89001H8.69001C8.25001 9.89001 7.89001 9.53001 7.89001 9.09001C7.89001 8.65001 8.25001 8.29001 8.69001 8.29001H15.41C15.85 8.29001 16.21 8.65001 16.21 9.09001Z" fill="white"/> <path d="M23.12 5C23.12 5.07 23.08 5.23 22.89 5.29L21.91 5.56C21.06 5.79 20.42 6.43 20.19 7.28L19.93 8.24C19.87 8.46 19.7 8.48 19.62 8.48C19.54 8.48 19.37 8.46 19.31 8.24L19.05 7.27C18.82 6.43 18.17 5.79 17.33 5.56L16.36 5.3C16.15 5.24 16.13 5.06 16.13 4.99C16.13 4.91 16.15 4.73 16.36 4.67L17.34 4.41C18.18 4.17 18.82 3.53 19.05 2.69L19.33 1.67C19.4 1.5 19.56 1.47 19.62 1.47C19.68 1.47 19.85 1.49 19.91 1.65L20.19 2.68C20.42 3.52 21.07 4.16 21.91 4.4L22.91 4.68C23.11 4.76 23.12 4.94 23.12 5Z" fill="white"/> </g> <defs> <clipPath id="clip0_3111_16321"> <rect width="24" height="24" fill="white"/> </clipPath> </defs> </svg>
