<svg width="24" height="24" viewBox="0 0 24 24" fill="none" xmlns="http://www.w3.org/2000/svg"> <g clip-path="url(#clip0_3111_16688)"> <path d="M13.1 10.93L9.22004 14.81C9.13004 14.9 9.00004 15.16 8.98004 15.3L8.69004 17.38C8.67004 17.5 8.69004 17.6 8.74004 17.65C8.79004 17.7 8.89004 17.72 9.02004 17.7L11.1 17.41C11.23 17.39 11.5 17.26 11.59 17.17L15.47 13.29C14.47 12.76 13.64 11.94 13.11 10.93H13.1Z" fill="white"/> <path d="M15.84 8.70001C15.5 8.70001 15.12 8.92001 14.67 9.36001L14.23 9.80001C14.66 10.88 15.52 11.74 16.6 12.16L17.04 11.72C17.8 10.96 18.03 10.36 17.04 9.37001C16.6 8.92001 16.19 8.70001 15.84 8.70001Z" fill="white"/> <path opacity="0.4" d="M16.2 1.5H7.8C3.6 1.5 1.5 3.6 1.5 7.8V21.45C1.5 22.03 1.97 22.5 2.55 22.5H16.2C20.4 22.5 22.5 20.4 22.5 16.2V7.8C22.5 3.6 20.4 1.5 16.2 1.5ZM18.09 12.79L12.64 18.24C12.32 18.56 11.76 18.83 11.3 18.9L9.22 19.19C9.12 19.21 9.03 19.21 8.93 19.21C8.45 19.21 8 19.04 7.68 18.72C7.29 18.33 7.12 17.77 7.2 17.17L7.49 15.09C7.56 14.63 7.84 14.07 8.16 13.75L13.61 8.3C14.35 7.56 15.08 7.2 15.84 7.2C16.6 7.2 17.36 7.58 18.09 8.32C19.11 9.33 19.94 10.94 18.09 12.79Z" fill="white"/> <path d="M11.34 8.45L10.4 8.71C9.58997 8.93 8.94997 9.56 8.72997 10.37L8.47997 11.31C8.38997 11.62 7.95997 11.62 7.87997 11.31L7.61997 10.37C7.39997 9.56 6.75997 8.93 5.94997 8.7L5.00997 8.45C4.69997 8.36 4.69997 7.93 5.00997 7.85L5.94997 7.59C6.76997 7.37 7.39997 6.74 7.61997 5.93L7.87997 4.98C7.95997 4.68 8.39997 4.68 8.47997 4.98L8.72997 5.93C8.94997 6.74 9.58997 7.37 10.4 7.59L11.34 7.85C11.65 7.93 11.65 8.37 11.34 8.45Z" fill="white"/> </g> <defs> <clipPath id="clip0_3111_16688"> <rect width="24" height="24" fill="white"/> </clipPath> </defs> </svg>
