<svg width="24" height="24" viewBox="0 0 24 24" fill="none" xmlns="http://www.w3.org/2000/svg"> <g clip-path="url(#clip0_2085_387383)"> <path d="M13.5601 17.23H11.9301C11.5201 17.23 11.1801 16.89 11.1801 16.48C11.1801 16.07 11.5201 15.73 11.9301 15.73H13.5601C13.9701 15.73 14.3101 16.07 14.3101 16.48C14.3101 16.89 13.9701 17.23 13.5601 17.23Z" fill="white"/> <path d="M13.13 8.04004H11.54C11.13 8.04004 10.79 7.70004 10.79 7.29004C10.79 6.88004 11.13 6.54004 11.54 6.54004H13.13C13.54 6.54004 13.88 6.88004 13.88 7.29004C13.88 7.70004 13.54 8.04004 13.13 8.04004Z" fill="white"/> <path d="M20.0101 11.6101L17.6401 11.8001C17.4301 11.8301 17.2101 11.7801 17.0201 11.6801C16.8301 11.5801 16.6801 11.4201 16.5801 11.2201L15.5601 9.48009L16.6901 9.27009C17.4301 9.13009 18.2001 9.29009 18.8101 9.72009C19.4301 10.1501 19.8601 10.8001 20.0001 11.5401C20.0001 11.5701 20.0101 11.5801 20.0101 11.6101Z" fill="white"/> <g opacity="0.4"> <path d="M21.98 13.8298C21.94 13.9498 21.87 14.0498 21.78 14.1198C21.68 14.1898 21.56 14.2298 21.45 14.2298H14.93C14.93 14.2298 14.96 14.1598 14.97 14.1298C14.99 14.0298 14.99 13.9298 14.95 13.8398C14.91 13.7498 14.85 13.6698 14.77 13.6198C14.69 13.5598 14.59 13.5398 14.49 13.5398H9.64998C9.58998 13.5398 9.51998 13.5498 9.45998 13.5698C9.39998 13.5998 9.34999 13.6298 9.29998 13.6798C9.25998 13.7298 9.21998 13.7798 9.19998 13.8398C9.16998 13.8998 9.15998 13.9598 9.15998 14.0298V14.2298H3.15998C3.01998 14.2298 2.87998 14.1998 2.74998 14.1498C2.61998 14.0898 2.50998 14.0098 2.40998 13.9098C2.30998 13.8098 2.22998 13.6998 2.17998 13.5698C2.11998 13.4398 2.08998 13.2998 2.08998 13.1598C2.08998 13.1298 2.09998 13.1098 2.09998 13.0798C2.11998 12.8098 2.24998 12.5498 2.45998 12.3698C2.66998 12.1798 2.92998 12.0798 3.20998 12.0898H3.52144C3.72012 12.0898 3.85075 11.8825 3.76498 11.7033L2.04998 8.11984C2.00998 8.03984 1.98998 7.94984 1.99998 7.85984C2.00998 7.76984 2.04998 7.67984 2.09998 7.60984C2.15998 7.53984 2.22998 7.48984 2.30998 7.44984C2.39998 7.41984 2.48998 7.40984 2.57998 7.42984L5.27999 7.93984C5.34999 7.94984 5.41999 7.97984 5.47998 8.02984C5.53998 8.06984 5.58999 8.12984 5.62999 8.19984L6.92975 10.8835C6.98298 10.9934 7.10337 11.0539 7.22334 11.031L8.74998 10.7398H8.76999L14.81 9.61984L15.16 9.54984L15.56 9.47984L16.58 11.2198C16.68 11.4198 16.83 11.5798 17.02 11.6798C17.21 11.7798 17.43 11.8298 17.64 11.7998L20.01 11.6098C20.03 11.7598 20.08 11.8998 20.15 12.0198C20.22 12.1398 20.32 12.2398 20.44 12.3198L21.75 13.2098C21.85 13.2798 21.93 13.3698 21.97 13.4898C22.01 13.5998 22.01 13.7198 21.98 13.8298Z" fill="white"/> </g> <path d="M14.97 14.13C14.97 14.13 14.95 14.2 14.93 14.23C14.91 14.29 14.88 14.34 14.84 14.38L11.16 17.99C10.94 18.2 10.64 18.32 10.33 18.32C10.02 18.32 9.73003 18.2 9.50003 17.98C9.28003 17.76 9.16003 17.46 9.16003 17.15V14.03C9.16003 13.96 9.17003 13.9 9.20003 13.84C9.22003 13.78 9.26003 13.73 9.30003 13.68C9.35003 13.63 9.40003 13.6 9.46003 13.57C9.52003 13.55 9.59003 13.54 9.65003 13.54H14.49C14.59 13.54 14.69 13.56 14.77 13.62C14.85 13.67 14.91 13.75 14.95 13.84C14.99 13.93 14.99 14.03 14.97 14.13Z" fill="white"/> <path d="M14.81 9.6202L8.77 10.7402H8.75V7.1302C8.75 6.8402 8.83 6.5602 8.99 6.3302C9.15 6.0902 9.38 5.9002 9.64 5.7902C9.9 5.6802 10.19 5.6502 10.47 5.7002C10.76 5.7602 11.01 5.8902 11.22 6.0902L14.81 9.6202Z" fill="white"/> </g> <defs> <clipPath id="clip0_2085_387383"> <rect width="24" height="24" fill="white"/> </clipPath> </defs> </svg>
