<svg width="24" height="24" viewBox="0 0 24 24" fill="none" xmlns="http://www.w3.org/2000/svg"> <g clip-path="url(#clip0_4482_10073)"> <path d="M22 22.25H2C1.59 22.25 1.25 21.91 1.25 21.5C1.25 21.09 1.59 20.75 2 20.75H22C22.41 20.75 22.75 21.09 22.75 21.5C22.75 21.91 22.41 22.25 22 22.25Z" fill="white"/> <path d="M19.5 11.5C18.12 11.5 17 12.62 17 14V16C17 17.12 17.75 18.06 18.77 18.38C18.77 18.42 18.75 18.46 18.75 18.5V21.5C18.75 21.91 19.09 22.25 19.5 22.25C19.91 22.25 20.25 21.91 20.25 21.5V18.5C20.25 18.5 20.23 18.42 20.23 18.38C21.26 18.07 22.01 17.13 22.01 16V14C22.01 12.62 20.89 11.5 19.51 11.5H19.5Z" fill="white"/> <path d="M9 4.5H11C11.55 4.5 12 4.95 12 5.5V7.5H8V5.5C8 4.95 8.45 4.5 9 4.5Z" fill="white"/> <path d="M10 5.25C9.59 5.25 9.25 4.91 9.25 4.5V2.5C9.25 2.09 9.59 1.75 10 1.75C10.41 1.75 10.75 2.09 10.75 2.5V4.5C10.75 4.91 10.41 5.25 10 5.25Z" fill="white"/> <path opacity="0.4" d="M14 8.5V21.5H6V8.5C6 7.95 6.45 7.5 7 7.5H13C13.55 7.5 14 7.95 14 8.5Z" fill="white"/> <path d="M6 13.5V21.5H3V14.5C3 13.95 3.45 13.5 4 13.5H6Z" fill="white"/> <path d="M11.5 17.25H8.5C8.09 17.25 7.75 16.91 7.75 16.5C7.75 16.09 8.09 15.75 8.5 15.75H11.5C11.91 15.75 12.25 16.09 12.25 16.5C12.25 16.91 11.91 17.25 11.5 17.25Z" fill="white"/> <path d="M11.5 14.25H8.5C8.09 14.25 7.75 13.91 7.75 13.5C7.75 13.09 8.09 12.75 8.5 12.75H11.5C11.91 12.75 12.25 13.09 12.25 13.5C12.25 13.91 11.91 14.25 11.5 14.25Z" fill="white"/> <path d="M11.5 11.25H8.5C8.09 11.25 7.75 10.91 7.75 10.5C7.75 10.09 8.09 9.75 8.5 9.75H11.5C11.91 9.75 12.25 10.09 12.25 10.5C12.25 10.91 11.91 11.25 11.5 11.25Z" fill="white"/> <path d="M10 22.25C9.59 22.25 9.25 21.91 9.25 21.5V20C9.25 19.59 9.59 19.25 10 19.25C10.41 19.25 10.75 19.59 10.75 20V21.5C10.75 21.91 10.41 22.25 10 22.25Z" fill="white"/> </g> <defs> <clipPath id="clip0_4482_10073"> <rect width="24" height="24" fill="white"/> </clipPath> </defs> </svg>
