<svg width="24" height="24" viewBox="0 0 24 24" fill="none" xmlns="http://www.w3.org/2000/svg"> <g clip-path="url(#clip0_4482_15000)"> <path d="M7.26039 9.07016C7.07039 9.07016 6.88039 9.00016 6.73039 8.85016L5.68039 7.80016C5.39039 7.51016 5.39039 7.03016 5.68039 6.74016L6.73039 5.69016C7.02039 5.40016 7.50039 5.40016 7.79039 5.69016C8.08039 5.98016 8.08039 6.46016 7.79039 6.75016L7.27039 7.27016L7.79039 7.79016C8.08039 8.08016 8.08039 8.56016 7.79039 8.85016C7.64039 9.00016 7.45039 9.07016 7.26039 9.07016Z" fill="white"/> <path d="M10.4204 9.07016C10.2304 9.07016 10.0404 9.00016 9.89035 8.85016C9.60035 8.56016 9.60035 8.08016 9.89035 7.79016L10.4104 7.27016L9.89035 6.75016C9.60035 6.46016 9.60035 5.98016 9.89035 5.69016C10.1804 5.40016 10.6604 5.40016 10.9504 5.69016L12.0004 6.74016C12.1404 6.88016 12.2204 7.07016 12.2204 7.27016C12.2204 7.47016 12.1404 7.66016 12.0004 7.80016L10.9504 8.85016C10.8004 9.00016 10.6104 9.07016 10.4204 9.07016Z" fill="white"/> <path d="M12.53 12.2197H6.20996C5.79996 12.2197 5.45996 11.8797 5.45996 11.4697C5.45996 11.0597 5.79996 10.7197 6.20996 10.7197H12.53C12.94 10.7197 13.28 11.0597 13.28 11.4697C13.28 11.8797 12.94 12.2197 12.53 12.2197Z" fill="white"/> <path d="M10.42 16.4297H6.20996C5.79996 16.4297 5.45996 16.0897 5.45996 15.6797C5.45996 15.2697 5.79996 14.9297 6.20996 14.9297H10.42C10.83 14.9297 11.17 15.2697 11.17 15.6797C11.17 16.0897 10.83 16.4297 10.42 16.4297Z" fill="white"/> <path d="M10.42 21.7H7C3.83 21.7 1.25 19.12 1.25 15.95V7C1.25 3.83 3.83 1.25 7 1.25H15.95C19.12 1.25 21.7 3.83 21.7 7V10.42C21.7 10.83 21.36 11.17 20.95 11.17C20.54 11.17 20.2 10.83 20.2 10.42V7C20.2 4.66 18.29 2.75 15.95 2.75H7C4.66 2.75 2.75 4.66 2.75 7V15.95C2.75 18.29 4.66 20.2 7 20.2H10.42C10.83 20.2 11.17 20.54 11.17 20.95C11.17 21.36 10.83 21.7 10.42 21.7Z" fill="white"/> <path opacity="0.4" d="M17.5 22C19.9853 22 22 19.9853 22 17.5C22 15.0147 19.9853 13 17.5 13C15.0147 13 13 15.0147 13 17.5C13 19.9853 15.0147 22 17.5 22Z" fill="white"/> <path d="M17.1503 19.3799C16.9603 19.3799 16.7803 19.3099 16.6303 19.1699L15.5703 18.1599C15.2703 17.8699 15.2603 17.3999 15.5503 17.0999C15.8403 16.7999 16.3103 16.7899 16.6103 17.0799L17.1503 17.5899L18.3903 16.3999C18.6903 16.1099 19.1603 16.1199 19.4503 16.4199C19.7403 16.7199 19.7303 17.1899 19.4303 17.4799L17.6703 19.1699C17.5203 19.3099 17.3403 19.3799 17.1503 19.3799Z" fill="white"/> </g> <defs> <clipPath id="clip0_4482_15000"> <rect width="24" height="24" fill="white"/> </clipPath> </defs> </svg>
