<svg width="24" height="24" viewBox="0 0 24 24" fill="none" xmlns="http://www.w3.org/2000/svg"> <g clip-path="url(#clip0_2085_383296)"> <g opacity="0.4"> <path d="M12 5.56C11.59 5.56 11.25 5.22 11.25 4.81V2C11.25 1.59 11.59 1.25 12 1.25C12.41 1.25 12.75 1.59 12.75 2V4.81C12.75 5.22 12.41 5.56 12 5.56Z" fill="white"/> <path d="M9.72998 3.95C9.45998 3.95 9.19998 3.8 9.05998 3.55C8.86998 3.18 9.00998 2.73 9.36998 2.54L11.64 1.34C11.86 1.22 12.12 1.22 12.34 1.34L14.61 2.54C14.98 2.73 15.12 3.19 14.92 3.55C14.73 3.92 14.27 4.06 13.91 3.86L11.99 2.85L10.07 3.86C9.95998 3.92 9.83998 3.95 9.71998 3.95H9.72998Z" fill="white"/> </g> <g opacity="0.4"> <path d="M20.63 17.9798C20.5 17.9798 20.37 17.9498 20.26 17.8798L17.83 16.4798C17.47 16.2698 17.35 15.8098 17.56 15.4598C17.77 15.0998 18.22 14.9798 18.58 15.1898L21.01 16.5898C21.37 16.7998 21.49 17.2598 21.28 17.6098C21.14 17.8498 20.89 17.9898 20.63 17.9898V17.9798Z" fill="white"/> <path d="M18.36 19.4C18.09 19.4 17.83 19.25 17.69 19C17.5 18.63 17.64 18.18 18 17.99L19.87 17V14.73C19.87 14.32 20.21 13.98 20.62 13.98C21.03 13.98 21.37 14.32 21.37 14.73V17.46C21.37 17.74 21.22 17.99 20.97 18.12L18.7 19.32C18.59 19.38 18.47 19.41 18.35 19.41L18.36 19.4Z" fill="white"/> </g> <path d="M6.10998 8.92019C5.97998 8.92019 5.84998 8.89019 5.73998 8.82019L3.30998 7.42019C2.94998 7.21019 2.82998 6.75019 3.03998 6.40019C3.24998 6.04019 3.70998 5.92019 4.05998 6.13019L6.48998 7.53019C6.84998 7.74019 6.96998 8.20019 6.75998 8.55019C6.61998 8.79019 6.36998 8.93019 6.10998 8.93019V8.92019Z" fill="white"/> <path d="M3.35999 10.0201C2.94999 10.0201 2.60999 9.68009 2.60999 9.27009V6.54009C2.60999 6.26009 2.75999 6.01009 3.00999 5.88009L5.27999 4.68009C5.64999 4.49009 6.09999 4.63009 6.28999 4.99009C6.47999 5.36009 6.33999 5.81009 5.97999 6.00009L4.10999 6.99009V9.26009C4.10999 9.67009 3.76999 10.0101 3.35999 10.0101V10.0201Z" fill="white"/> <g opacity="0.4"> <path d="M3.67997 17.9802C3.41997 17.9802 3.16997 17.8502 3.02997 17.6002C2.81997 17.2402 2.94997 16.7802 3.29997 16.5802L5.72997 15.1802C6.08997 14.9702 6.54997 15.1002 6.74997 15.4502C6.94997 15.8002 6.82997 16.2702 6.47997 16.4702L4.04997 17.8702C3.92997 17.9402 3.79997 17.9702 3.67997 17.9702V17.9802Z" fill="white"/> <path d="M5.62999 19.4002C5.50999 19.4002 5.38999 19.3702 5.27999 19.3102L3.00999 18.1102C2.75999 17.9802 2.60999 17.7202 2.60999 17.4502V14.7202C2.60999 14.3102 2.94999 13.9702 3.35999 13.9702C3.76999 13.9702 4.10999 14.3102 4.10999 14.7202V16.9902L5.97999 17.9802C6.34999 18.1702 6.48999 18.6302 6.28999 18.9902C6.15999 19.2402 5.88999 19.3902 5.61999 19.3902L5.62999 19.4002Z" fill="white"/> </g> <path d="M12 22.7499C11.59 22.7499 11.25 22.4099 11.25 21.9999V19.1899C11.25 18.7799 11.59 18.4399 12 18.4399C12.41 18.4399 12.75 18.7799 12.75 19.1899V21.9999C12.75 22.4099 12.41 22.7499 12 22.7499Z" fill="white"/> <path d="M12 22.7501C11.88 22.7501 11.76 22.7201 11.65 22.6601L9.38002 21.4601C9.01002 21.2701 8.87001 20.8101 9.07001 20.4501C9.26001 20.0801 9.71002 19.9401 10.08 20.1401L12 21.1501L13.92 20.1401C14.29 19.9501 14.74 20.0901 14.93 20.4501C15.12 20.8201 14.98 21.2701 14.62 21.4601L12.35 22.6601C12.24 22.7201 12.12 22.7501 12 22.7501Z" fill="white"/> <path d="M18.2 8.91969C17.94 8.91969 17.69 8.78969 17.55 8.53969C17.34 8.17969 17.47 7.71969 17.82 7.51969L20.25 6.11969C20.61 5.90969 21.07 6.03969 21.27 6.38969C21.48 6.74969 21.35 7.20969 21 7.40969L18.57 8.80969C18.45 8.87969 18.32 8.90969 18.2 8.90969V8.91969Z" fill="white"/> <path d="M20.64 10.0199C20.23 10.0199 19.89 9.67989 19.89 9.26989V6.99989L18.02 6.00989C17.65 5.81989 17.51 5.35989 17.71 4.99989C17.9 4.62989 18.36 4.48989 18.72 4.68989L20.99 5.88989C21.24 6.01989 21.39 6.27989 21.39 6.54989V9.27989C21.39 9.68989 21.05 10.0299 20.64 10.0299V10.0199Z" fill="white"/> <path d="M14.6 9.8001L15.23 10.4301C15.36 10.5601 15.43 10.7301 15.43 10.9101V13.3701C15.43 13.9401 14.97 14.4001 14.4 14.4001H13.2C13.09 14.4001 12.99 14.3501 12.93 14.2601L12.28 13.3901C12.21 13.3001 12.12 13.2501 12.01 13.2501C11.9 13.2501 11.8 13.3001 11.74 13.3901L11.09 14.2601C11.02 14.3501 10.92 14.4001 10.82 14.4001H9.61997C9.04997 14.4001 8.58997 13.9401 8.58997 13.3701V10.9101C8.58997 10.7301 8.65997 10.5501 8.78997 10.4301L9.41997 9.8001C9.54997 9.6701 9.71997 9.6001 9.89997 9.6001H14.13C14.31 9.6001 14.49 9.6701 14.61 9.8001H14.6Z" fill="white"/> </g> <defs> <clipPath id="clip0_2085_383296"> <rect width="24" height="24" fill="white"/> </clipPath> </defs> </svg>
