<svg width="24" height="24" viewBox="0 0 24 24" fill="none" xmlns="http://www.w3.org/2000/svg"> <g clip-path="url(#clip0_2085_387134)"> <path d="M12 21.9999C16.2967 21.9999 19.78 18.5167 19.78 14.2199C19.78 9.92317 16.2967 6.43994 12 6.43994C7.7032 6.43994 4.21997 9.92317 4.21997 14.2199C4.21997 18.5167 7.7032 21.9999 12 21.9999Z" fill="white"/> <path opacity="0.4" d="M15.3298 1.25C16.6746 1.25 17.9369 1.90963 18.6979 3.02441L18.8337 3.23535C19.4778 4.30738 19.5866 5.61974 19.1413 6.7959V6.79688L18.2009 9.2666C18.0536 9.65373 17.6202 9.84849 17.2331 9.70117C16.8461 9.55381 16.6522 9.12049 16.7995 8.7334L17.739 6.26367C18.0436 5.45838 17.9395 4.56721 17.4626 3.875L17.4606 3.87207C16.9815 3.16875 16.1837 2.75 15.3298 2.75H8.66963C7.8159 2.75013 7.01886 3.16892 6.53974 3.87207L6.53779 3.875C6.08753 4.52861 5.96561 5.35922 6.20576 6.10742L6.25849 6.25586L6.26142 6.26367L7.20088 8.7334C7.3481 9.12039 7.15417 9.55374 6.76728 9.70117C6.38016 9.84851 5.94684 9.65373 5.79951 9.2666L4.85908 6.79688L4.86006 6.7959C4.37159 5.54295 4.54426 4.125 5.30244 3.02441C6.06342 1.90983 7.32502 1.25013 8.66963 1.25H15.3298Z" fill="white"/> </g> <defs> <clipPath id="clip0_2085_387134"> <rect width="24" height="24" fill="white"/> </clipPath> </defs> </svg>
