<svg width="24" height="24" viewBox="0 0 24 24" fill="none" xmlns="http://www.w3.org/2000/svg"> <g clip-path="url(#clip0_655_9181)"> <path d="M22.0004 2L19.1104 4.89" stroke="white" stroke-width="1.5" stroke-linecap="round" stroke-linejoin="round"/> <path opacity="0.4" d="M21.92 13.21C21.33 18.16 17.11 22 12 22C6.48 22 2 17.52 2 12C2 6.89 5.84 2.67 10.79 2.08C11.19 5.74 7.5 10.63 10.49 13.51C13.47 16.39 18.26 12.81 21.92 13.21Z" fill="white"/> <path d="M22.0002 12C22.0002 12.41 21.9802 12.82 21.9202 13.21C18.2602 12.81 13.4702 16.39 10.4902 13.51C7.50023 10.63 11.1902 5.74 10.7902 2.08C11.1802 2.02 11.5902 2 12.0002 2C17.5202 2 22.0002 6.48 22.0002 12Z" fill="white"/> </g> <defs> <clipPath id="clip0_655_9181"> <rect width="24" height="24" fill="white"/> </clipPath> </defs> </svg>
