<svg width="24" height="24" viewBox="0 0 24 24" fill="none" xmlns="http://www.w3.org/2000/svg"> <g clip-path="url(#clip0_655_9176)"> <path opacity="0.4" d="M21 13C21 17.97 16.97 22 12 22C7.03 22 3 17.97 3 13C3 8.03 6.63 4.41 11.25 4.03C11.5 4.01 11.75 4 12 4C12.25 4 12.5 4.01 12.75 4.03C17.37 4.41 21 8.28 21 13Z" fill="white"/> <path d="M12.75 2V4.03C12.5 4.01 12.25 4 12 4C11.75 4 11.5 4.01 11.25 4.03V2C11.25 1.59 11.59 1.25 12 1.25C12.41 1.25 12.75 1.59 12.75 2Z" fill="white"/> <path d="M12 12.52C13.52 12.52 14.75 11.29 14.75 9.77C14.75 8.25 13.52 7.02 12 7.02C10.48 7.02 9.25 8.25 9.25 9.77C9.25 11.29 10.48 12.52 12 12.52Z" fill="white"/> <path d="M12.0002 18.98C13.9802 18.98 15.5902 17.37 15.5902 15.39C15.5902 13.41 13.9802 11.8 12.0002 11.8C10.0202 11.8 8.41016 13.41 8.41016 15.39C8.41016 17.37 10.0202 18.98 12.0002 18.98Z" fill="white"/> </g> <defs> <clipPath id="clip0_655_9176"> <rect width="24" height="24" fill="white"/> </clipPath> </defs> </svg>
