<svg width="24" height="24" viewBox="0 0 24 24" fill="none" xmlns="http://www.w3.org/2000/svg"> <g clip-path="url(#clip0_2085_383433)"> <path d="M20.2801 17.6099C20.2101 17.7099 20.1401 17.8099 20.0601 17.9099L20.2801 17.6099Z" fill="white"/> <g opacity="0.4"> <path d="M20.28 17.61H20.27C13.27 16.18 7.69 11.03 5.63 4.29005C9.55 1.03005 15.4 1.25005 19.07 4.93005C22.52 8.38005 22.93 13.72 20.28 17.61Z" fill="white"/> </g> <path d="M20.27 17.61C20.21 17.71 20.14 17.81 20.06 17.91C19.97 18.05 19.86 18.18 19.76 18.31C19.65 18.44 19.54 18.57 19.42 18.7C19.31 18.82 19.19 18.95 19.07 19.07C18.9 19.24 18.74 19.39 18.56 19.54C18.42 19.66 18.28 19.78 18.14 19.89C17.8 20.16 17.45 20.4 17.08 20.61C17.03 20.65 16.97 20.68 16.91 20.71C10.28 19.27 4.96 14.49 2.75 8.20004C2.87 7.90004 3.01 7.61004 3.16 7.32004C3.31 7.04004 3.47 6.76004 3.65 6.50004C4.01 5.95004 4.44 5.42004 4.93 4.93004C5.16 4.70004 5.39 4.49004 5.63 4.29004C7.69 11.03 13.27 16.18 20.27 17.61Z" fill="white"/> <g opacity="0.4"> <path d="M16.91 20.7102C13.1 22.8702 8.17005 22.3202 4.93005 19.0702C1.99005 16.1302 1.26005 11.8202 2.75005 8.2002C4.96005 14.4902 10.28 19.2702 16.91 20.7102Z" fill="white"/> </g> </g> <defs> <clipPath id="clip0_2085_383433"> <rect width="24" height="24" fill="white"/> </clipPath> </defs> </svg>
