<svg width="24" height="24" viewBox="0 0 24 24" fill="none" xmlns="http://www.w3.org/2000/svg"> <g clip-path="url(#clip0_4482_8703)"> <g opacity="0.4"> <path d="M22 12C22 17.52 17.52 22 12 22C9.24 22 6.74 20.88 4.93 19.07C3.29 17.43 2.21 15.21 2.03 12.75C2.01 12.51 2 12.25 2 12C2 11.75 2.01 11.49 2.03 11.25C2.21 8.79 3.29 6.57 4.93 4.93C6.74 3.12 9.24 2 12 2C13.32 2 14.62 2.26 15.83 2.76C17.03 3.26 18.14 3.99 19.07 4.93C20.95 6.8 22 9.35 22 12Z" fill="white"/> </g> <path d="M17.48 12C17.48 12.41 17.15 12.75 16.73 12.75H14.16L12.16 15.76C12.02 15.97 11.78 16.1 11.53 16.1C11.51 16.1 11.49 16.1 11.47 16.1C11.2 16.08 10.96 15.91 10.85 15.66L8.42 10.21L6.94 12.43C6.8 12.63 6.57 12.76 6.32 12.76H2.03C2.01 12.52 2 12.26 2 12.01C2 11.76 2.01 11.5 2.03 11.26H5.92L7.93 8.23998C8.08 8.01998 8.35 7.88998 8.62 7.90998C8.89 7.93998 9.13 8.10998 9.24 8.35998L11.66 13.81L13.13 11.59C13.27 11.39 13.51 11.26 13.76 11.26H16.73C17.15 11.26 17.48 11.6 17.48 12.01V12Z" fill="white"/> </g> <defs> <clipPath id="clip0_4482_8703"> <rect width="24" height="24" fill="white"/> </clipPath> </defs> </svg>
