<svg width="24" height="24" viewBox="0 0 24 24" fill="none" xmlns="http://www.w3.org/2000/svg"> <g clip-path="url(#clip0_4482_9486)"> <path d="M21.09 12H2.91C2.41 12 2 12.41 2 12.91V15.64C2 16.14 2.41 16.55 2.91 16.55H3.25V18.37C3.25 18.78 3.59 19.12 4 19.12C4.41 19.12 4.75 18.78 4.75 18.37V16.55H19.25V18.37C19.25 18.78 19.59 19.12 20 19.12C20.41 19.12 20.75 18.78 20.75 18.37V16.55H21.09C21.59 16.55 22 16.14 22 15.64V12.91C22 12.41 21.59 12 21.09 12Z" fill="white"/> <g opacity="0.4"> <path d="M9.27031 5.63989V11.9999H3.82031V7.44989C3.82031 6.44989 4.63031 5.63989 5.64031 5.63989H9.27031Z" fill="white"/> </g> <path d="M14.7295 5.63989H9.26953V11.9999H14.7295V5.63989Z" fill="white"/> <g opacity="0.4"> <path d="M20.1805 7.44989V11.9999H14.7305V5.63989H18.3605C19.3705 5.63989 20.1805 6.44989 20.1805 7.44989Z" fill="white"/> </g> </g> <defs> <clipPath id="clip0_4482_9486"> <rect width="24" height="24" fill="white"/> </clipPath> </defs> </svg>
