<svg width="24" height="24" viewBox="0 0 24 24" fill="none" xmlns="http://www.w3.org/2000/svg"> <g clip-path="url(#clip0_4482_13855)"> <g opacity="0.4"> <path d="M14.7602 19.3296H8.99023V17.8296H14.7602V19.3296ZM19.1102 14.9796H17.6102V9.20961H19.1102V14.9796ZM14.7602 6.34961H8.99023V4.84961H14.7602V6.34961Z" fill="white"/> </g> <path d="M7.00004 14.9697H3.79004C2.68547 14.9697 1.79004 15.8652 1.79004 16.9697V20.1797C1.79004 21.2843 2.68547 22.1797 3.79004 22.1797H7.00004C8.10461 22.1797 9.00004 21.2843 9.00004 20.1797V16.9697C9.00004 15.8652 8.10461 14.9697 7.00004 14.9697Z" fill="white"/> <path d="M7.00004 2H3.79004C2.68547 2 1.79004 2.89543 1.79004 4V7.21C1.79004 8.31457 2.68547 9.21 3.79004 9.21H7.00004C8.10461 9.21 9.00004 8.31457 9.00004 7.21V4C9.00004 2.89543 8.10461 2 7.00004 2Z" fill="white"/> <path d="M19.9698 14.9697H16.7598C15.6552 14.9697 14.7598 15.8652 14.7598 16.9697V20.1797C14.7598 21.2843 15.6552 22.1797 16.7598 22.1797H19.9698C21.0743 22.1797 21.9698 21.2843 21.9698 20.1797V16.9697C21.9698 15.8652 21.0743 14.9697 19.9698 14.9697Z" fill="white"/> <path d="M19.9698 2H16.7598C15.6552 2 14.7598 2.89543 14.7598 4V7.21C14.7598 8.31457 15.6552 9.21 16.7598 9.21H19.9698C21.0743 9.21 21.9698 8.31457 21.9698 7.21V4C21.9698 2.89543 21.0743 2 19.9698 2Z" fill="white"/> <g opacity="0.4"> <path d="M6.13965 9.20996H4.63965V14.98H6.13965V9.20996Z" fill="white"/> </g> </g> <defs> <clipPath id="clip0_4482_13855"> <rect width="24" height="24" fill="white"/> </clipPath> </defs> </svg>
