<svg width="24" height="24" viewBox="0 0 24 24" fill="none" xmlns="http://www.w3.org/2000/svg"> <g clip-path="url(#clip0_4482_6278)"> <path opacity="0.4" d="M9.63999 13.5301C9.57999 13.6701 9.51999 13.8101 9.44999 13.9501C8.99999 14.8301 8.18999 15.4701 7.23999 15.6801C6.99999 15.7401 6.74999 15.7701 6.49999 15.7701C6.24999 15.7701 6.00999 15.7401 5.76999 15.6801C4.81999 15.4701 3.99999 14.8401 3.55999 13.9501C3.48999 13.8101 3.42998 13.6701 3.36998 13.5301C2.82998 12.2101 2.84999 10.7301 3.29999 9.38012V9.37012H9.69999L9.71 9.38012C10.15 10.7301 10.18 12.2101 9.63999 13.5301Z" fill="white"/> <path d="M7.25 15.8397V19.8397C7.25 20.2597 6.92 20.5897 6.5 20.5897C6.09 20.5897 5.75 20.2597 5.75 19.8397V15.8397C5.75 15.7897 5.76 15.7297 5.77 15.6797C6.01 15.7397 6.25 15.7697 6.5 15.7697C6.75 15.7697 7.00001 15.7397 7.24001 15.6797C7.24001 15.7297 7.25 15.7897 7.25 15.8397Z" fill="white"/> <path d="M3.69995 21.9996H9.30995L9.26996 21.8896C8.86996 20.6996 7.75995 19.8896 6.49995 19.8896C5.23995 19.8896 4.12995 20.6896 3.72995 21.8896L3.69995 21.9996Z" fill="white"/> <path opacity="0.4" d="M21.04 12.1203V20.0003C21.04 21.1003 20.14 22.0003 19.04 22.0003H15.03C13.93 22.0003 13.03 21.1003 13.03 20.0003V12.1203C13.03 11.5903 13.19 11.0803 13.48 10.6303L14.51 9.08031C14.71 8.80031 14.81 8.45031 14.81 8.09031V7.07031H19.26V8.09031C19.26 8.45031 19.37 8.79031 19.56 9.08031L20.59 10.6303C20.88 11.0803 21.04 11.6003 21.04 12.1203Z" fill="white"/> <path d="M20.3699 5.97035C20.3699 6.58035 19.8699 7.08035 19.2599 7.08035H14.81C14.2 7.08035 13.7 6.58035 13.7 5.97035C13.7 5.36035 14.2 4.86035 14.81 4.86035H19.2599C19.8699 4.86035 20.3699 5.36035 20.3699 5.97035Z" fill="white"/> <path opacity="0.4" d="M18.93 4.86H15.12V3.16C15.12 2.52 15.64 2 16.28 2H17.77C18.41 2 18.93 2.52 18.93 3.16V4.86Z" fill="white"/> </g> <defs> <clipPath id="clip0_4482_6278"> <rect width="24" height="24" fill="white"/> </clipPath> </defs> </svg>
