<svg width="24" height="24" viewBox="0 0 24 24" fill="none" xmlns="http://www.w3.org/2000/svg"> <g clip-path="url(#clip0_2085_383435)"> <g opacity="0.4"> <path d="M21.8999 12.64L20.8099 15.89C20.5399 16.72 19.7599 17.27 18.8899 17.27H18.6699C18.3299 17.27 17.9999 17.19 17.6999 17.03L13.3199 14.64V9.35998L17.6999 6.96998C17.9999 6.80998 18.3299 6.72998 18.6699 6.72998H18.8899C19.7599 6.72998 20.5399 7.27998 20.8099 8.10998L21.8999 11.36C22.0299 11.78 22.0299 12.22 21.8999 12.64Z" fill="white"/> </g> <g opacity="0.4"> <path d="M10.6799 9.35998V14.64L6.29994 17.03C5.99994 17.19 5.66994 17.27 5.32994 17.27H5.10994C4.23994 17.27 3.45994 16.72 3.18994 15.89L2.09994 12.64C1.96994 12.22 1.96994 11.78 2.09994 11.36L3.18994 8.10998C3.45994 7.27998 4.23994 6.72998 5.10994 6.72998H5.32994C5.66994 6.72998 5.99994 6.80998 6.29994 6.96998L10.6799 9.35998Z" fill="white"/> </g> <path d="M13.32 12.3101C13.01 12.3101 12.71 12.1101 12.61 11.8001C12.48 11.4101 12.69 10.9801 13.08 10.8501L15.72 9.97012C16.11 9.84012 16.54 10.0501 16.67 10.4401C16.8 10.8301 16.59 11.2601 16.2 11.3901L13.56 12.2701C13.48 12.3001 13.4 12.3101 13.32 12.3101Z" fill="white"/> <path d="M15.96 14.0699C15.88 14.0699 15.8 14.0599 15.72 14.0299L13.08 13.1499C12.69 13.0199 12.48 12.5899 12.61 12.1999C12.74 11.8099 13.16 11.5999 13.56 11.7299L16.2 12.6099C16.59 12.7399 16.8 13.1699 16.67 13.5599C16.57 13.8699 16.27 14.0699 15.96 14.0699Z" fill="white"/> <path d="M10.68 12.3101C10.6 12.3101 10.52 12.3001 10.44 12.2701L7.79998 11.3901C7.40998 11.2601 7.19998 10.8301 7.32998 10.4401C7.45998 10.0501 7.87998 9.84012 8.27998 9.97012L10.92 10.8501C11.31 10.9801 11.52 11.4101 11.39 11.8001C11.29 12.1101 10.99 12.3101 10.68 12.3101Z" fill="white"/> <path d="M8.03998 14.0699C7.72998 14.0699 7.42998 13.8699 7.32998 13.5599C7.19998 13.1699 7.40998 12.7399 7.79998 12.6099L10.44 11.7299C10.83 11.5999 11.26 11.8099 11.39 12.1999C11.52 12.5899 11.31 13.0199 10.92 13.1499L8.27998 14.0299C8.19998 14.0599 8.11998 14.0699 8.03998 14.0699Z" fill="white"/> <path d="M13.3201 9.35986H10.6801V14.6399H13.3201V9.35986Z" fill="white"/> </g> <defs> <clipPath id="clip0_2085_383435"> <rect width="24" height="24" fill="white"/> </clipPath> </defs> </svg>
