<svg width="24" height="24" viewBox="0 0 24 24" fill="none" xmlns="http://www.w3.org/2000/svg"> <path d="M3.9295 4.49977C3.9295 5.49977 4.0495 6.48977 4.2895 7.44977L4.59951 8.70978C4.79951 9.52978 4.64951 10.3998 4.18951 11.0998L3.24951 12.5098C1.81951 14.6598 1.6795 17.4198 2.8995 19.6998L3.32951 20.4998C3.81951 21.4198 4.7895 21.9998 5.8395 21.9998H7.31951C8.42951 21.9998 9.4295 21.3598 9.8995 20.3598L10.2695 19.5698C11.2995 17.3598 11.0995 14.7698 9.74951 12.7398L8.6695 11.1098C8.1995 10.4098 8.0495 9.53977 8.2595 8.71977L8.63951 7.19977C8.83951 6.40977 8.93951 5.58977 8.93951 4.77977V4.50977C8.93951 3.12977 7.81951 2.00977 6.43951 2.00977C5.05951 2.00977 3.93951 3.12977 3.93951 4.50977L3.9295 4.49977Z" fill="white"/> <path opacity="0.4" d="M9.62988 12.56C10.6999 10.45 12.8899 9 15.4199 9C19.0099 9 21.9199 11.91 21.9199 15.5C21.9199 19.09 19.0099 22 15.4199 22C13.3399 22 11.4899 21.01 10.2999 19.49" fill="white"/> <path d="M19.0897 12.9494C19.0897 13.2394 18.9697 13.5194 18.7597 13.7294C18.5397 13.9494 18.2597 14.0594 17.9797 14.0594C17.6997 14.0594 17.4097 13.9494 17.1897 13.7294C16.7597 13.2994 16.7597 12.5894 17.1897 12.1594C17.6197 11.7294 18.3297 11.7294 18.7597 12.1594C18.9697 12.3694 19.0897 12.6494 19.0897 12.9494Z" fill="white"/> <path d="M15.5091 13.4596C15.5091 13.7496 15.3991 14.0296 15.1891 14.2396C14.9791 14.4496 14.6991 14.5696 14.3991 14.5696C14.0991 14.5696 13.8291 14.4496 13.6191 14.2396C13.4091 14.0296 13.2891 13.7496 13.2891 13.4596C13.2891 13.1696 13.4091 12.8796 13.6191 12.6696C13.8291 12.4596 14.0991 12.3496 14.3991 12.3496C14.6991 12.3496 14.9791 12.4596 15.1891 12.6696C15.3991 12.8796 15.5091 13.1596 15.5091 13.4596Z" fill="white"/> <path d="M18.5796 16.5197C18.5796 16.8197 18.4596 17.0997 18.2496 17.3097C18.0296 17.5197 17.7496 17.6297 17.4696 17.6297C17.1896 17.6297 16.8996 17.5197 16.6796 17.3097C16.4696 17.0997 16.3496 16.8197 16.3496 16.5197C16.3496 16.2197 16.4696 15.9397 16.6796 15.7297C17.1096 15.2997 17.8196 15.2997 18.2496 15.7297C18.4596 15.9397 18.5796 16.2197 18.5796 16.5197Z" fill="white"/> </svg>
