<svg width="24" height="24" viewBox="0 0 24 24" fill="none" xmlns="http://www.w3.org/2000/svg"> <path d="M12 17C14.76 17 17 14.76 17 12C17 9.24 14.76 7 12 7C9.24 7 7 9.24 7 12C7 14.76 9.24 17 12 17Z" fill="white"/> <path d="M16.1445 12C16.1445 9.7122 14.2878 7.85547 12 7.85547C9.7122 7.85547 7.85547 9.7122 7.85547 12C7.85547 14.2878 9.7122 16.1445 12 16.1445C14.2878 16.1445 16.1445 14.2878 16.1445 12ZM17.8555 12C17.8555 15.2322 15.2322 17.8555 12 17.8555C8.7678 17.8555 6.14453 15.2322 6.14453 12C6.14453 8.7678 8.7678 6.14453 12 6.14453C15.2322 6.14453 17.8555 8.7678 17.8555 12Z" fill="white"/> <path opacity="0.4" d="M11.1445 3.54004V2C11.1445 1.5278 11.5278 1.14453 12 1.14453C12.4722 1.14453 12.8555 1.5278 12.8555 2V3.54004C12.8554 4.01222 12.4722 4.39453 12 4.39453C11.5278 4.39453 11.1446 4.01222 11.1445 3.54004Z" fill="white"/> <path opacity="0.4" d="M11.1445 22.001V20.4609C11.1445 19.9887 11.5278 19.6055 12 19.6055C12.4722 19.6055 12.8555 19.9887 12.8555 20.4609V22.001C12.8554 22.4732 12.4722 22.8555 12 22.8555C11.5278 22.8555 11.1446 22.4732 11.1445 22.001Z" fill="white"/> <path opacity="0.4" d="M22 11.1445C22.4722 11.1446 22.8545 11.5278 22.8545 12C22.8545 12.4722 22.4722 12.8554 22 12.8555H20.46C19.9878 12.8555 19.6045 12.4722 19.6045 12C19.6045 11.5278 19.9878 11.1445 20.46 11.1445H22Z" fill="white"/> <path opacity="0.4" d="M3.54004 11.1445C4.01222 11.1446 4.39453 11.5278 4.39453 12C4.39453 12.4722 4.01222 12.8554 3.54004 12.8555H2C1.5278 12.8555 1.14453 12.4722 1.14453 12C1.14453 11.5278 1.5278 11.1445 2 11.1445H3.54004Z" fill="white"/> <path opacity="0.4" d="M18.4754 4.31484C18.8092 3.98097 19.3504 3.98102 19.6843 4.31484C20.0182 4.64874 20.0182 5.18992 19.6843 5.52382L18.5945 6.61367C18.2606 6.94756 17.7194 6.94756 17.3855 6.61367C17.0517 6.27976 17.0516 5.73855 17.3855 5.40468L18.4754 4.31484Z" fill="white"/> <path opacity="0.4" d="M5.4153 17.3754C5.74917 17.0415 6.29038 17.0416 6.62429 17.3754C6.95818 17.7093 6.95818 18.2505 6.62429 18.5844L5.53444 19.6742C5.20054 20.0081 4.65936 20.0081 4.32546 19.6742C3.99164 19.3403 3.99159 18.7991 4.32546 18.4652L5.4153 17.3754Z" fill="white"/> <path opacity="0.4" d="M17.3856 17.3852C17.7195 17.0513 18.2606 17.0513 18.5945 17.3852L19.6844 18.475C20.0183 18.8089 20.0183 19.3501 19.6844 19.684C19.3505 20.0179 18.8093 20.0179 18.4754 19.684L17.3856 18.5942C17.0517 18.2603 17.0517 17.7191 17.3856 17.3852Z" fill="white"/> <path opacity="0.4" d="M4.3255 4.32464C4.6594 3.99074 5.20058 3.99074 5.53448 4.32464L6.62433 5.41449C6.95822 5.74838 6.95822 6.28957 6.62433 6.62347C6.29043 6.95737 5.74924 6.95737 5.41534 6.62347L4.3255 5.53363C3.9916 5.19973 3.9916 4.65854 4.3255 4.32464Z" fill="white"/> </svg>
