<svg width="24" height="24" viewBox="0 0 24 24" fill="none" xmlns="http://www.w3.org/2000/svg"> <path d="M12 15.8504C14.12 15.8504 15.85 14.1304 15.85 12.0004C15.85 9.87039 14.13 8.15039 12 8.15039C9.87002 8.15039 8.15002 9.87039 8.15002 12.0004C8.15002 14.1304 9.87002 15.8504 12 15.8504Z" fill="white"/> <path d="M14.9948 12C14.9945 10.3424 13.6573 9.00586 11.9996 9.00586C10.3421 9.00607 9.0057 10.3425 9.00549 12C9.00549 13.6577 10.342 14.9949 11.9996 14.9951C13.6489 14.9951 14.9948 13.6564 14.9948 12ZM16.7047 12C16.7047 14.6036 14.5904 16.7051 11.9996 16.7051C9.39761 16.7049 7.29456 14.6021 7.29456 12C7.29477 9.39811 9.39774 7.29513 11.9996 7.29492C14.6017 7.29492 16.7045 9.39798 16.7047 12Z" fill="white"/> <path d="M11.1445 5.08008V2C11.1445 1.5278 11.5278 1.14453 12 1.14453C12.4722 1.14453 12.8555 1.5278 12.8555 2V5.08008C12.8554 5.55225 12.4722 5.93457 12 5.93457C11.5278 5.93457 11.1446 5.55225 11.1445 5.08008Z" fill="white"/> <path opacity="0.4" d="M4.3135 4.3163C4.6466 3.98167 5.18879 3.98032 5.52346 4.31337L7.71291 6.49404C8.04757 6.82717 8.04897 7.36836 7.71584 7.70302C7.38275 8.0376 6.84152 8.03893 6.50686 7.70595L4.31643 5.52626C3.98179 5.19316 3.98044 4.65097 4.3135 4.3163Z" fill="white"/> <path d="M5.08008 11.1445C5.55225 11.1446 5.93457 11.5278 5.93457 12C5.93457 12.4722 5.55225 12.8554 5.08008 12.8555H2C1.5278 12.8555 1.14453 12.4722 1.14453 12C1.14453 11.5278 1.5278 11.1445 2 11.1445H5.08008Z" fill="white"/> <path opacity="0.4" d="M6.50494 16.2856C6.83884 15.9517 7.381 15.9517 7.7149 16.2856C8.04851 16.6194 8.04851 17.1607 7.7149 17.4946L5.52447 19.685C5.19063 20.0186 4.64933 20.0186 4.31549 19.685C3.98159 19.3511 3.98159 18.8089 4.31549 18.475L6.50494 16.2856Z" fill="white"/> <path d="M11.1445 22V18.9199C11.1445 18.4477 11.5278 18.0645 12 18.0645C12.4722 18.0645 12.8555 18.4477 12.8555 18.9199V22C12.8554 22.4722 12.4722 22.8545 12 22.8545C11.5278 22.8545 11.1446 22.4722 11.1445 22Z" fill="white"/> <path opacity="0.4" d="M16.2855 16.2856C16.6194 15.9517 17.1605 15.9517 17.4944 16.2856L19.6849 18.475C20.0188 18.8089 20.0188 19.3511 19.6849 19.685C19.351 20.0189 18.8088 20.0189 18.4749 19.685L16.2855 17.4946C15.9516 17.1607 15.9516 16.6195 16.2855 16.2856Z" fill="white"/> <path d="M22.0001 11.1445C22.4723 11.1446 22.8546 11.5278 22.8546 12C22.8546 12.4722 22.4723 12.8554 22.0001 12.8555H18.92C18.4478 12.8555 18.0646 12.4722 18.0646 12C18.0646 11.5278 18.4478 11.1445 18.92 11.1445H22.0001Z" fill="white"/> <path opacity="0.4" d="M18.4769 4.31317C18.8115 3.9804 19.3528 3.98173 19.6859 4.3161C20.019 4.65076 20.0176 5.19293 19.6829 5.52606L17.4935 7.70575C17.1588 8.03888 16.6166 8.03748 16.2835 7.70282C15.9507 7.36822 15.9521 6.82691 16.2864 6.49383L18.4769 4.31317Z" fill="white"/> </svg>
