<svg width="24" height="24" viewBox="0 0 24 24" fill="none" xmlns="http://www.w3.org/2000/svg"> <g clip-path="url(#clip0_4418_4677)"> <path opacity="0.4" d="M12 22C17.5228 22 22 17.5228 22 12C22 6.47715 17.5228 2 12 2C6.47715 2 2 6.47715 2 12C2 17.5228 6.47715 22 12 22Z" fill="white"/> <path d="M15.66 11.931C15.65 11.791 15.59 11.6409 15.49 11.5409L10.79 6.84099L10.24 6.29094C10.05 6.10094 9.74997 6.10094 9.55997 6.29094C9.36997 6.48094 9.36997 6.78093 9.55997 6.97093L10.11 7.52098L6.50998 11.121C6.09998 11.531 5.87997 11.9509 5.86997 12.3609C5.85997 12.8009 6.06998 13.241 6.50998 13.681L9.07996 16.251C9.93996 17.101 10.8 17.101 11.65 16.251L15.5 12.401C15.61 12.271 15.67 12.091 15.66 11.931Z" fill="white"/> <path d="M16.9599 14.1916C16.7999 14.0116 16.4899 14.0116 16.3199 14.1916C16.1199 14.4016 15.1299 15.5216 15.1299 16.3616C15.1299 17.1916 15.7999 17.8616 16.6299 17.8616C17.4599 17.8616 18.1299 17.1916 18.1299 16.3616C18.1399 15.5216 17.1599 14.4116 16.9599 14.1916Z" fill="white"/> </g> <defs> <clipPath id="clip0_4418_4677"> <rect width="24" height="24" fill="white"/> </clipPath> </defs> </svg>
