<svg width="24" height="24" viewBox="0 0 24 24" fill="none" xmlns="http://www.w3.org/2000/svg"> <g clip-path="url(#clip0_2085_382738)"> <path d="M21.7499 7.67981C21.7499 7.67981 21.3999 7.67981 20.8499 7.72981C20.6199 7.74981 20.3499 7.77981 20.0499 7.82981C19.9999 7.82981 19.9499 7.83981 19.8999 7.84981C19.7299 7.86981 19.5399 7.89981 19.3499 7.93981C18.9899 7.99981 18.6199 8.07981 18.2199 8.18981C18.0299 8.22981 17.8399 8.27981 17.6499 8.33981C17.4099 8.40981 17.1699 8.48981 16.9299 8.57981C16.7399 8.64981 16.5399 8.71981 16.3499 8.79981C16.3199 8.79981 16.2799 8.82981 16.2499 8.83981C16.0499 8.92981 15.8499 9.01981 15.6499 9.11981C15.5099 9.17981 15.3799 9.24981 15.2499 9.31981C15.1799 9.35981 15.1099 9.39981 15.0399 9.43981C14.9699 9.47981 14.8999 9.51981 14.8299 9.55981C14.5499 9.71981 14.2699 9.89981 14.0099 10.1098C13.8799 10.1898 13.7499 10.2998 13.6199 10.4098C13.4599 10.5398 13.2999 10.6798 13.1499 10.8298C12.9599 11.0098 12.7799 11.1998 12.6099 11.3998C12.4399 11.5998 12.2699 11.8098 12.1199 12.0298C11.9899 12.2198 11.8599 12.4198 11.7499 12.6298C11.7499 12.6298 11.7465 12.6298 11.7399 12.6298C11.5199 12.2398 11.2799 11.8898 11.0099 11.5598C10.8799 11.3998 10.7399 11.2398 10.5999 11.0898C10.4599 10.9398 10.3099 10.7998 10.1599 10.6598C10.0499 10.5498 9.92988 10.4498 9.81988 10.3598C9.69988 10.2698 9.58988 10.1798 9.46988 10.0898H9.45988C9.20988 9.90981 8.96988 9.73981 8.70988 9.58981C8.51988 9.46981 8.32988 9.35981 8.13988 9.26981C7.98988 9.18981 7.82988 9.10981 7.67988 9.03981C7.49988 8.95981 7.32988 8.87981 7.14988 8.80981C6.85988 8.68981 6.55988 8.57981 6.26988 8.47981C6.07988 8.40981 5.87988 8.35981 5.69988 8.29981C5.55988 8.25981 5.40988 8.21981 5.26988 8.18981C5.07988 8.13981 4.88988 8.08981 4.69988 8.04981C4.50988 8.00981 4.32988 7.96981 4.14988 7.93981C3.96988 7.90981 3.79988 7.87981 3.63988 7.85981C3.57988 7.83981 3.50988 7.82981 3.43988 7.82981C3.13988 7.78981 2.87988 7.75981 2.64988 7.73981C2.09988 7.68981 1.76988 7.68981 1.74988 7.68981C1.33988 7.68981 0.999878 8.02981 0.999878 8.43981V10.6298C0.999878 13.3298 1.96988 15.8798 3.73988 17.8598C3.74988 17.8798 3.75988 17.8898 3.75988 17.8898C3.79988 17.9398 3.83988 17.9898 3.88988 18.0298C3.97988 18.1198 4.05988 18.2098 4.14988 18.2998C5.14988 19.3198 6.32988 20.1098 7.60988 20.6498C7.66988 20.6798 7.71988 20.6998 7.77988 20.7098C8.94988 21.1898 10.2099 21.4398 11.5099 21.4798H11.7499C13.1299 21.4798 14.4699 21.2198 15.7199 20.7098C15.7899 20.6898 15.8499 20.6698 15.9099 20.6398C17.1799 20.0998 18.3399 19.3098 19.3499 18.2998C19.4299 18.2198 19.5099 18.1398 19.5899 18.0498C19.6099 18.0398 19.6199 18.0298 19.6299 18.0198C19.6699 17.9798 19.7099 17.9398 19.7499 17.8898C19.7599 17.8898 19.7999 17.8198 19.8699 17.7198C21.5699 15.7598 22.4999 13.2598 22.4999 10.6298V8.43981C22.4999 8.02981 22.1599 7.68981 21.7499 7.68981V7.67981ZM5.83988 11.9698C4.91988 12.5898 4.37988 13.3198 4.22988 14.1498C4.00988 15.3698 4.65988 16.5198 4.88988 16.8698C3.94988 15.8398 3.27988 14.6398 2.89988 13.3398C3.21988 12.3198 3.92988 11.4498 4.99988 10.7298C5.34988 10.4998 5.80988 10.5898 6.03988 10.9298C6.26988 11.2798 6.17988 11.7398 5.83988 11.9698ZM9.44988 14.4898C8.52988 15.1098 7.98988 15.8398 7.83988 16.6798C7.63988 17.8198 8.17988 18.9098 8.43988 19.3398C7.71988 19.0798 7.03988 18.7098 6.40988 18.2498C6.28988 17.6998 6.24988 17.0798 6.35988 16.4298C6.57988 15.1698 7.33988 14.0998 8.60988 13.2498C8.95988 13.0198 9.41988 13.1098 9.64988 13.4498C9.87988 13.7998 9.78988 14.2598 9.44988 14.4898ZM17.0999 18.2398C16.4699 18.6998 15.7899 19.0798 15.0599 19.3398C15.2799 18.9698 15.7099 18.1398 15.7099 17.1998C15.7099 17.0298 15.6899 16.8598 15.6599 16.6798C15.5099 15.8398 14.9699 15.1098 14.0499 14.4898C13.7099 14.2598 13.6199 13.7998 13.8499 13.4498C14.0799 13.1098 14.5399 13.0198 14.8899 13.2498C16.1599 14.0998 16.9199 15.1698 17.1399 16.4298C17.2499 17.0798 17.2099 17.6898 17.0999 18.2398ZM20.5999 13.3198C20.2299 14.6198 19.5699 15.8098 18.6499 16.8298C18.8899 16.4398 19.4799 15.3298 19.2799 14.1598C19.1299 13.3198 18.5799 12.5898 17.6599 11.9698C17.3199 11.7398 17.2299 11.2798 17.4599 10.9298C17.6899 10.5898 18.1499 10.4998 18.4999 10.7298C19.5699 11.4398 20.2799 12.3098 20.5999 13.3098V13.3198Z" fill="white"/> <path opacity="0.4" d="M20.1898 5.22981C20.1898 5.22981 19.1598 5.11981 17.8298 5.20981C17.2198 4.30981 16.3998 3.54981 15.4298 2.96981C14.6898 2.54981 13.8898 2.25981 13.0698 2.11981C12.9798 2.09981 12.8798 2.07981 12.7798 2.06981C11.1698 1.84981 9.49978 2.14981 8.08978 2.96981C7.11978 3.51981 6.29978 4.28981 5.67978 5.20981C4.34978 5.11981 3.34978 5.22981 3.30978 5.22981C2.92978 5.27981 2.64978 5.59981 2.64978 5.97981V7.72981C2.87978 7.74981 3.13978 7.77981 3.43978 7.81981C3.50978 7.81981 3.57978 7.82981 3.63978 7.84981C3.79978 7.86981 3.96978 7.89981 4.14978 7.92981C4.32978 7.95981 4.50978 7.99981 4.69978 8.03981C4.87978 8.07981 5.06978 8.11981 5.26978 8.17981C5.40978 8.20981 5.55978 8.24981 5.69978 8.28981C5.87978 8.34981 6.07978 8.39981 6.26978 8.46981C6.55978 8.56981 6.85978 8.67981 7.14978 8.79981C7.32978 8.86981 7.49978 8.94981 7.67978 9.02981C7.82978 9.09981 7.98978 9.17981 8.13978 9.25981C8.32978 9.34981 8.51978 9.45981 8.70978 9.57981C8.96978 9.72981 9.21978 9.88981 9.45978 10.0798H9.46978C9.58978 10.1698 9.69978 10.2598 9.81978 10.3498C9.92978 10.4398 10.0498 10.5398 10.1598 10.6498C10.3098 10.7798 10.4598 10.9198 10.5998 11.0798C10.7398 11.2198 10.8798 11.3798 11.0098 11.5498C11.2798 11.8798 11.5298 12.2298 11.7398 12.6198C11.8598 12.4198 11.9798 12.2198 12.1198 12.0298C12.2698 11.8098 12.4398 11.5998 12.6098 11.3998C12.7798 11.1998 12.9598 11.0098 13.1498 10.8298C13.2998 10.6798 13.4598 10.5398 13.6198 10.4098C13.7498 10.2998 13.8798 10.1898 14.0098 10.1098C14.2698 9.89981 14.5498 9.71981 14.8298 9.55981C14.8998 9.51981 14.9698 9.47981 15.0398 9.43981C15.1098 9.39981 15.1798 9.35981 15.2498 9.31981C15.3798 9.24981 15.5098 9.17981 15.6498 9.11981C15.8498 9.01981 16.0498 8.92981 16.2498 8.83981C16.2798 8.82981 16.3198 8.80981 16.3498 8.79981C16.5398 8.71981 16.7398 8.64981 16.9298 8.57981C17.1698 8.48981 17.4098 8.40981 17.6498 8.33981C17.8398 8.27981 18.0298 8.22981 18.2198 8.18981C18.6198 8.07981 18.9898 7.99981 19.3498 7.93981C19.5398 7.89981 19.7298 7.86981 19.8998 7.84981C19.9498 7.83981 19.9998 7.82981 20.0498 7.82981C20.3498 7.77981 20.6198 7.74981 20.8498 7.72981V5.97981C20.8498 5.59981 20.5698 5.27981 20.1898 5.22981ZM10.3498 5.14981C10.2198 5.57981 10.1498 6.03981 10.1298 6.49981C10.1298 6.49981 10.1198 6.49981 10.1098 6.49981C10.1098 6.49981 10.1098 6.49981 10.0898 6.48981C10.0698 6.47981 10.0698 6.47981 10.0598 6.46981C9.91978 6.38981 9.77978 6.30981 9.62978 6.23981C9.57978 6.19981 9.52978 6.17981 9.47978 6.15981C9.24978 6.03981 9.01978 5.93981 8.76978 5.84981C8.52978 5.75981 8.27978 5.67981 8.00978 5.60981C7.80978 5.54981 7.59978 5.49981 7.38978 5.45981C7.79978 4.98981 8.28978 4.58981 8.83978 4.27981C9.53978 3.86981 10.3098 3.62981 11.1098 3.54981C10.7698 4.03981 10.5098 4.57981 10.3498 5.15981V5.14981Z" fill="white"/> </g> <defs> <clipPath id="clip0_2085_382738"> <rect width="24" height="24" fill="white"/> </clipPath> </defs> </svg>
