<svg width="24" height="24" viewBox="0 0 24 24" fill="none" xmlns="http://www.w3.org/2000/svg"> <g clip-path="url(#clip0_4482_6495)"> <path d="M15.64 6.98973C15.64 7.08973 15.64 7.16972 15.63 7.25972L15.5 9.06973L15.39 10.5697L15.22 13.0097C15.17 12.9997 15.11 12.9997 15.06 12.9997H9.15004C9.10004 12.9997 9.04 12.9997 8.99 13.0097L8.75001 9.67973L8.58003 7.25972C8.49003 6.01972 9.04002 4.89972 9.94002 4.20972C10.54 3.73972 11.29 3.46973 12.11 3.46973C13.05 3.46973 13.89 3.81973 14.51 4.40973C14.9 4.75973 15.2 5.19972 15.39 5.68972C15.55 6.08972 15.64 6.52973 15.64 6.98973Z" fill="white"/> <path d="M16.93 3.9297L15.39 5.6897C15.2 5.1997 14.9 4.7597 14.51 4.4097L15.76 2.9997C16.02 2.6697 16.49 2.6197 16.81 2.8797C17.13 3.1397 17.19 3.6097 16.93 3.9297Z" fill="white"/> <path d="M17.49 9.82031C17.49 10.2403 17.15 10.5703 16.74 10.5703H15.39L15.5 9.07031H16.74C17.15 9.07031 17.49 9.41031 17.49 9.82031Z" fill="white"/> <path opacity="0.4" d="M16.78 15.2L16.6199 16.75L16.4699 18.25L16.2699 20.2C16.1699 21.22 15.31 22 14.28 22H9.71989C8.68989 22 7.8299 21.22 7.7299 20.2L7.21989 15.2C7.10989 14.07 7.94992 13.09 9.05992 13.01C9.10992 13 9.15995 13 9.20994 13H14.7899C14.8399 13 14.8899 13 14.9399 13.01C16.0499 13.09 16.89 14.07 16.78 15.2Z" fill="white"/> <path d="M16.62 16.75L16.47 18.25H13.25C12.84 18.25 12.5 17.91 12.5 17.5C12.5 17.09 12.84 16.75 13.25 16.75H16.62Z" fill="white"/> <path opacity="0.4" d="M8.5801 7.26038L8.75008 9.69038C7.32008 10.3404 5.43011 9.94038 4.09011 8.60038C2.42011 6.93038 2.23007 4.40038 3.67007 2.97038C5.10007 1.53038 7.62007 1.72038 9.30007 3.39038C9.55007 3.64038 9.78011 3.92038 9.96011 4.21038C9.04011 4.90038 8.4901 6.02038 8.5801 7.26038Z" fill="white"/> </g> <defs> <clipPath id="clip0_4482_6495"> <rect width="24" height="24" fill="white"/> </clipPath> </defs> </svg>
