<svg width="24" height="24" viewBox="0 0 24 24" fill="none" xmlns="http://www.w3.org/2000/svg"> <g clip-path="url(#clip0_4482_15429)"> <path d="M12.6902 19.8002C12.6102 19.6202 12.4702 19.4702 12.2802 19.3902C12.1902 19.3502 12.0902 19.3302 11.9902 19.3302C6.26023 19.3302 2.74023 17.5002 2.74023 16.1902C2.74023 15.7302 3.18023 15.3002 3.55023 15.0202C3.88023 14.7702 3.95023 14.3002 3.70023 13.9702C3.45023 13.6402 2.98023 13.5702 2.65023 13.8202C1.48023 14.7002 1.24023 15.5902 1.24023 16.1902C1.24023 18.8702 5.61023 20.4502 10.2402 20.7702L10.1202 20.8902C9.83023 21.1802 9.83023 21.6602 10.1202 21.9502C10.2702 22.1002 10.4602 22.1702 10.6502 22.1702C10.8402 22.1702 11.0302 22.1002 11.1802 21.9502L12.5102 20.6202C12.5802 20.5502 12.6302 20.4702 12.6702 20.3802C12.7502 20.2002 12.7502 19.9902 12.6702 19.8102L12.6902 19.8002Z" fill="white"/> <path d="M21.3402 13.8202C21.0102 13.5702 20.5402 13.6402 20.2902 13.9702C20.0402 14.3002 20.1102 14.7702 20.4402 15.0202C20.8102 15.3002 21.2502 15.7302 21.2502 16.1902C21.2502 17.1802 19.3102 18.4802 15.6102 19.0602C15.2002 19.1202 14.9202 19.5102 14.9902 19.9202C15.0502 20.2902 15.3702 20.5502 15.7302 20.5502C15.7702 20.5502 15.8102 20.5502 15.8502 20.5502C20.1102 19.8802 22.7602 18.2202 22.7602 16.2002C22.7602 15.6002 22.5202 14.7102 21.3502 13.8302L21.3402 13.8202Z" fill="white"/> <path d="M14.0406 6.95C15.1406 8.05 15.1406 9.84 14.0406 10.94C12.9406 12.04 11.1506 12.04 10.0506 10.94C8.95059 9.84 8.95059 8.05 10.0506 6.95C11.1506 5.85 12.9406 5.85 14.0406 6.95Z" fill="white"/> <path opacity="0.4" d="M18.3799 6.80984V11.8198C18.3799 12.9798 17.4399 13.9198 16.2799 13.9198H7.72988C6.56988 13.9198 5.62988 12.9798 5.62988 11.8198V6.80984C5.62988 5.64984 6.56988 4.70984 7.72988 4.70984C8.17988 4.70984 8.59988 4.46984 8.82988 4.07984L9.32988 3.21984C9.55988 2.82984 9.97988 2.58984 10.4299 2.58984H13.5399C13.9899 2.58984 14.3999 2.81984 14.6299 3.20984L15.1599 4.09984C15.3899 4.47984 15.8099 4.71984 16.2499 4.71984H16.2599C17.4199 4.71984 18.3599 5.65984 18.3599 6.81984L18.3799 6.80984Z" fill="white"/> </g> <defs> <clipPath id="clip0_4482_15429"> <rect width="24" height="24" fill="white"/> </clipPath> </defs> </svg>
