<svg width="24" height="24" viewBox="0 0 24 24" fill="none" xmlns="http://www.w3.org/2000/svg"> <g clip-path="url(#clip0_2085_382822)"> <g opacity="0.4"> <path d="M8.88004 21.49C6.50004 20.71 4.51004 19.05 3.29004 16.9C4.30004 15.22 5.79004 13.87 7.57004 13.01C7.86004 14.3 8.70004 15.39 9.83004 16.01C9.20004 17.57 8.73004 19.47 8.88004 21.49Z" fill="white"/> </g> <path d="M7.44 11.9999C7.44 12.3399 7.48 12.6899 7.56 13.0099C5.78 13.8699 4.29 15.2199 3.28 16.8999C2.46 15.4599 2 13.7799 2 11.9999C2 10.8999 2.17 9.83994 2.51 8.84994C4.62 8.56994 6.63 8.98994 8.14 9.58994C7.7 10.2899 7.45 11.1099 7.45 11.9899L7.44 11.9999Z" fill="white"/> <g opacity="0.4"> <path d="M10.99 7.56004C9.78 7.83004 8.76 8.57004 8.13 9.60004C6.62 9.00004 4.62 8.58004 2.5 8.86004C3.29 6.49004 4.95 4.51004 7.09 3.29004C8.77 4.31004 10.12 5.79004 10.98 7.57004L10.99 7.56004Z" fill="white"/> </g> <path d="M14.39 8.12C13.7 7.69 12.87 7.44 12 7.44C11.66 7.44 11.31 7.48 10.99 7.56C10.13 5.78 8.77998 4.31 7.09998 3.28C8.53998 2.46 10.23 2 12 2C13.09 2 14.14 2.17 15.13 2.51C15.27 4.84 14.91 6.69 14.4 8.12H14.39Z" fill="white"/> <g opacity="0.4"> <path d="M20.72 7.10001C19.7 8.78001 18.21 10.13 16.44 10.99C16.17 9.77001 15.42 8.75001 14.39 8.12001C14.91 6.69001 15.26 4.83001 15.12 2.51001C17.5 3.29001 19.49 4.95001 20.71 7.10001H20.72Z" fill="white"/> </g> <path d="M22 12.0001C22 13.0901 21.83 14.1401 21.5 15.1301C19.34 15.2701 17.43 14.7901 15.97 14.2401C16.35 13.5801 16.55 12.8201 16.55 12.0101C16.55 11.6701 16.51 11.3201 16.43 11.0001C18.2 10.1401 19.68 8.79011 20.71 7.11011C21.53 8.55011 21.99 10.2301 21.99 12.0101L22 12.0001Z" fill="white"/> <g opacity="0.4"> <path d="M21.5 15.13C20.71 17.51 19.05 19.5 16.9 20.72C15.22 19.7 13.87 18.21 13.01 16.44C14.28 16.16 15.36 15.34 15.97 14.23C17.42 14.78 19.34 15.26 21.5 15.12V15.13Z" fill="white"/> </g> <path d="M16.9 20.72C15.46 21.54 13.78 22 12 22C10.91 22 9.86002 21.83 8.88002 21.49C8.73002 19.46 9.20002 17.57 9.83002 16.01C10.48 16.37 11.22 16.56 12.01 16.56C12.35 16.56 12.7 16.52 13.02 16.44C13.88 18.21 15.23 19.69 16.91 20.72H16.9Z" fill="white"/> <path d="M16.56 11.9999C16.56 12.8099 16.36 13.5699 15.98 14.2299C15.37 15.3399 14.29 16.1599 13.02 16.4399C12.7 16.5199 12.35 16.5599 12.01 16.5599C11.22 16.5599 10.48 16.3699 9.82995 16.0099C8.69995 15.3999 7.85995 14.3099 7.56995 13.0099C7.48995 12.6899 7.44995 12.3399 7.44995 11.9999C7.44995 11.1199 7.69995 10.2999 8.13995 9.59994C8.75995 8.57994 9.78995 7.82994 11 7.55994C11.32 7.47994 11.67 7.43994 12.01 7.43994C12.88 7.43994 13.71 7.68994 14.4 8.11994C15.42 8.73994 16.18 9.76994 16.45 10.9899C16.53 11.3099 16.57 11.6599 16.57 11.9999H16.56Z" fill="white"/> </g> <defs> <clipPath id="clip0_2085_382822"> <rect width="24" height="24" fill="white"/> </clipPath> </defs> </svg>
