<svg width="24" height="24" viewBox="0 0 24 24" fill="none" xmlns="http://www.w3.org/2000/svg"> <g clip-path="url(#clip0_2085_388144)"> <path d="M18.2302 21.2949C18.6195 21.295 18.9353 21.6107 18.9353 22C18.9353 22.3893 18.6195 22.705 18.2302 22.7051H5.78003C5.39067 22.7051 5.07495 22.3894 5.07495 22C5.07495 21.6106 5.39067 21.2949 5.78003 21.2949H18.2302Z" fill="white"/> <path opacity="0.4" d="M16.98 22V9.47C16.98 7.43 15.75 5.69 13.99 4.92C13.54 4.72 13.25 4.28 13.25 3.79V3.24C13.25 2.55 12.69 2 12.01 2C11.33 2 10.77 2.56 10.77 3.24V3.79C10.77 4.28 10.48 4.72 10.03 4.92C8.27004 5.69 7.04004 7.43 7.04004 9.47V22" fill="white"/> <path d="M13.58 9.36047C13.58 10.6705 12.87 11.7405 12 11.7405C11.13 11.7405 10.42 10.6805 10.42 9.36047C10.42 8.04047 11.13 6.98047 12 6.98047C12.87 6.98047 13.58 8.04047 13.58 9.36047Z" fill="white"/> <path d="M11.2952 15.6904V15.1406C11.2924 15.1374 11.2888 15.1336 11.2854 15.1299C11.2195 15.0579 11.119 14.978 10.9514 14.8496C10.8095 14.7409 10.6004 14.5834 10.4338 14.4014C10.2859 14.2395 10.107 13.9895 10.0647 13.6572L10.0549 13.5098L10.0647 13.3623C10.1071 13.0303 10.286 12.7809 10.4338 12.6191C10.6004 12.4369 10.8095 12.2787 10.9514 12.1699C11.1191 12.0415 11.2195 11.9617 11.2854 11.8896C11.2891 11.8856 11.2922 11.8813 11.2952 11.8779V10.71C11.2952 10.3206 11.6109 10.0049 12.0002 10.0049C12.3895 10.005 12.7053 10.3207 12.7053 10.71V11.9502C12.7052 12.3566 12.4954 12.6559 12.3264 12.8408C12.1598 13.0231 11.9508 13.1813 11.8088 13.29C11.6874 13.3831 11.6027 13.4523 11.5393 13.5098C11.6027 13.5673 11.6872 13.6373 11.8088 13.7305C11.9508 13.8392 12.1599 13.9966 12.3264 14.1787C12.4955 14.3637 12.7053 14.6638 12.7053 15.0703V15.6904C12.7051 16.0795 12.3893 16.3944 12.0002 16.3945C11.611 16.3945 11.2954 16.0796 11.2952 15.6904Z" fill="white"/> </g> <defs> <clipPath id="clip0_2085_388144"> <rect width="24" height="24" fill="white"/> </clipPath> </defs> </svg>
