<svg width="24" height="24" viewBox="0 0 24 24" fill="none" xmlns="http://www.w3.org/2000/svg"> <g clip-path="url(#clip0_4482_11936)"> <path d="M21.2095 21.4498C20.5695 21.9998 19.6895 22.1498 18.8995 21.8498C14.4395 20.2598 9.55954 20.2598 5.09954 21.8498C4.31954 22.1498 3.42954 21.9998 2.78954 21.4498C2.15954 20.8998 1.87954 20.0398 2.05954 19.2198L2.83954 15.8898H2.84954C8.74954 13.6598 15.2595 13.6598 21.1495 15.8898H21.1595L21.9395 19.2198C22.1195 20.0398 21.8395 20.8998 21.2095 21.4498Z" fill="white"/> <g opacity="0.4"> <path d="M21.1496 15.89C15.2596 13.66 8.74961 13.66 2.84961 15.89L3.05961 14.98C3.09961 14.81 3.10961 14.64 3.10961 14.47V10.89C3.10961 5.98 7.08961 2 11.9996 2C14.4596 2 16.6796 3 18.2896 4.6C19.8996 6.21 20.8896 8.44 20.8896 10.89V14.47C20.8896 14.64 20.9096 14.81 20.9396 14.98L21.1496 15.89Z" fill="white"/> </g> <path d="M15.3299 10.8002V9.7802C15.3299 7.9402 13.8399 6.4502 11.9999 6.4502C10.1599 6.4502 8.66992 7.9402 8.66992 9.7802V10.8002C10.8799 10.5402 13.1199 10.5402 15.3299 10.8002Z" fill="white"/> </g> <defs> <clipPath id="clip0_4482_11936"> <rect width="24" height="24" fill="white"/> </clipPath> </defs> </svg>
