<svg width="24" height="24" viewBox="0 0 24 24" fill="none" xmlns="http://www.w3.org/2000/svg"> <g clip-path="url(#clip0_4482_6365)"> <path opacity="0.4" d="M7.22 2H16C18.21 2 20 3.79 20 6V11H3L4.26001 9.74C5.97001 8.03 6.71999 5.57 6.23999 3.19C6.11999 2.58 6.59 2 7.22 2Z" fill="white"/> <path d="M3 11V18C3 20.2 4.8 22 7 22H16C18.2 22 20 20.2 20 18V11H3ZM16 15.75H13C12.59 15.75 12.25 15.41 12.25 15C12.25 14.59 12.59 14.25 13 14.25H16C16.41 14.25 16.75 14.59 16.75 15C16.75 15.41 16.41 15.75 16 15.75Z" fill="white"/> </g> <defs> <clipPath id="clip0_4482_6365"> <rect width="24" height="24" fill="white"/> </clipPath> </defs> </svg>
