<svg width="24" height="24" viewBox="0 0 24 24" fill="none" xmlns="http://www.w3.org/2000/svg"> <g clip-path="url(#clip0_4482_6380)"> <path d="M12 22.75C6.07 22.75 1.25 17.93 1.25 12C1.25 6.07 6.07 1.25 12 1.25C17.93 1.25 22.75 6.07 22.75 12C22.75 17.93 17.93 22.75 12 22.75ZM12 2.75C6.9 2.75 2.75 6.9 2.75 12C2.75 17.1 6.9 21.25 12 21.25C17.1 21.25 21.25 17.1 21.25 12C21.25 6.9 17.1 2.75 12 2.75Z" fill="white"/> <path d="M21.5 10.75H2.5C2.09 10.75 1.75 10.41 1.75 10C1.75 9.59 2.09 9.25 2.5 9.25H21.5C21.91 9.25 22.25 9.59 22.25 10C22.25 10.41 21.91 10.75 21.5 10.75Z" fill="white"/> <path opacity="0.4" d="M20 6.75H4C3.59 6.75 3.25 6.41 3.25 6C3.25 5.59 3.59 5.25 4 5.25H20C20.41 5.25 20.75 5.59 20.75 6C20.75 6.41 20.41 6.75 20 6.75Z" fill="white"/> <path d="M20 18.75H4C3.59 18.75 3.25 18.41 3.25 18C3.25 17.59 3.59 17.25 4 17.25H20C20.41 17.25 20.75 17.59 20.75 18C20.75 18.41 20.41 18.75 20 18.75Z" fill="white"/> <path opacity="0.4" fill-rule="evenodd" clip-rule="evenodd" d="M11.9901 14.7499C11.9259 15.1701 11.5559 15.5 11.12 15.5H7.88C7.44407 15.5 7.07412 15.1701 7.00987 14.7499C7.00658 14.75 7.00329 14.75 7 14.75H2.5C2.09 14.75 1.75 14.41 1.75 14C1.75 13.59 2.09 13.25 2.5 13.25H7C7.00329 13.25 7.00658 13.25 7.00987 13.2501C7.07412 12.8299 7.44407 12.5 7.88 12.5H11.12C11.5559 12.5 11.9259 12.8299 11.9901 13.2501C11.9934 13.25 11.9967 13.25 12 13.25H21.5C21.91 13.25 22.25 13.59 22.25 14C22.25 14.41 21.91 14.75 21.5 14.75H12C11.9967 14.75 11.9934 14.75 11.9901 14.7499Z" fill="white"/> </g> <defs> <clipPath id="clip0_4482_6380"> <rect width="24" height="24" fill="white"/> </clipPath> </defs> </svg>
