<svg width="24" height="24" viewBox="0 0 24 24" fill="none" xmlns="http://www.w3.org/2000/svg"> <g clip-path="url(#clip0_2085_387522)"> <path opacity="0.4" d="M18.6504 4.0498C18.6504 5.59163 17.4062 6.84961 15.8496 6.84961C14.298 6.84938 13.04 5.59625 13.04 4.0498C13.0401 2.50345 14.298 1.25023 15.8496 1.25C17.3938 1.25 18.6503 2.50568 18.6504 4.0498Z" fill="white"/> <path d="M5.08032 16.1201C5.4509 16.1202 6.29434 16.2461 7.29028 16.4219H7.29224C9.70498 16.8542 13.5454 17.6468 16.0549 18.1768C16.4505 18.2603 16.7089 18.6419 16.6389 19.04C16.6145 19.1785 16.5999 19.3144 16.5999 19.4404C16.5999 19.5664 16.6145 19.7015 16.6389 19.8398C16.7092 20.2384 16.45 20.6209 16.054 20.7041C14.2677 21.0794 11.8085 21.5881 9.66919 22.0029C8.59997 22.2103 7.60599 22.3951 6.8147 22.5283C6.05445 22.6563 5.40689 22.7499 5.08032 22.75C3.25003 22.75 1.76018 21.2783 1.76001 19.4404C1.76001 17.6062 3.24611 16.1201 5.08032 16.1201ZM3.26001 19.4404C3.26018 20.4423 4.07082 21.25 5.08032 21.25C5.25409 21.2499 5.76227 21.1841 6.56567 21.0488C7.33896 20.9186 8.3187 20.7367 9.38306 20.5303C11.1434 20.1889 13.1242 19.7806 14.7659 19.4385C12.3179 18.9261 9.12166 18.2736 7.02759 17.8984V17.8975C5.98557 17.7136 5.29013 17.6202 5.08032 17.6201C4.07454 17.6201 3.26001 18.4346 3.26001 19.4404Z" fill="white"/> <path d="M6.38 18.41V18.3836C6.38007 18.3676 6.38074 18.3443 6.38098 18.3143C6.38147 18.2536 6.382 18.1651 6.38391 18.0535C6.38774 17.83 6.39502 17.5112 6.41028 17.1297V17.1277C6.44578 16.2859 6.52018 15.1301 6.6759 13.9988C6.82809 12.8933 7.06883 11.7246 7.47473 10.9031L7.60266 10.6541C7.73791 10.4042 7.89423 10.1547 8.06555 9.90997C8.30309 9.57064 8.77114 9.48787 9.11047 9.7254C9.4495 9.96299 9.53144 10.4301 9.29407 10.7693C9.10255 11.0429 8.9446 11.3084 8.82532 11.5555L8.82141 11.5633C8.52949 12.1514 8.31209 13.1144 8.16223 14.2029C8.01549 15.2689 7.9438 16.3731 7.9093 17.1912C7.89461 17.559 7.88757 17.8653 7.88391 18.0789C7.88208 18.1858 7.88046 18.2695 7.88 18.326V18.41C7.87984 18.824 7.54411 19.16 7.13 19.16C6.7159 19.16 6.38017 18.824 6.38 18.41Z" fill="white"/> <path d="M11.58 6.07892C11.9232 5.84701 12.3891 5.937 12.621 6.28009C13.1154 7.01159 13.8885 7.5169 14.9052 7.85431C15.9277 8.19358 17.1504 8.34642 18.4706 8.40021H18.4697C18.9596 8.41981 19.45 8.43048 19.9501 8.43048C20.3643 8.43059 20.7001 8.76633 20.7001 9.18048C20.6999 9.59442 20.3641 9.93038 19.9501 9.93048C19.4303 9.93048 18.9201 9.91963 18.4101 9.89923H18.4091C17.0296 9.84301 15.6474 9.68126 14.4326 9.27814C13.2119 8.87306 12.1145 8.20836 11.3788 7.11994C11.1469 6.77679 11.2369 6.31088 11.58 6.07892Z" fill="white"/> <path d="M7.95349 10.1528C8.05723 9.752 8.46672 9.51032 8.86755 9.61377C9.46983 9.76965 10.2195 9.93833 10.8763 10.1577C11.525 10.3744 12.2311 10.6846 12.7123 11.2075C13.2511 11.7931 13.4349 12.5629 13.1713 13.4624C12.9264 14.2977 12.2992 15.2459 11.2709 16.3589C10.9898 16.6631 10.5155 16.682 10.2113 16.4009C9.9071 16.1198 9.88822 15.6455 10.1693 15.3413C11.1456 14.2847 11.5847 13.542 11.7318 13.0405C11.86 12.6032 11.7613 12.39 11.6078 12.2231C11.3965 11.9937 11 11.7807 10.4008 11.5806C9.80966 11.3832 9.16502 11.2409 8.49255 11.0669C8.09172 10.9631 7.85004 10.5537 7.95349 10.1528Z" fill="white"/> <path d="M17.66 16.8691V9.17961C17.66 8.98072 17.7391 8.78999 17.8798 8.64934L20.9598 5.56926C21.2527 5.27641 21.7275 5.27638 22.0204 5.56926C22.3132 5.86214 22.3132 6.33692 22.0204 6.62981L19.16 9.49016V16.8691C19.16 17.2833 18.8242 17.6191 18.41 17.6191C17.9958 17.6191 17.66 17.2833 17.66 16.8691Z" fill="white"/> <path d="M20.2203 19.4404C20.2203 18.4389 19.4099 17.6201 18.4098 17.6201C17.811 17.6202 17.2801 17.9116 16.9488 18.3633C17.3075 18.4386 17.6187 18.5043 17.8697 18.5576C18.0908 18.6046 18.2651 18.6424 18.3844 18.668C18.444 18.6807 18.4901 18.6906 18.5211 18.6973C18.5364 18.7006 18.5484 18.7024 18.5563 18.7041C18.5601 18.7049 18.5631 18.7056 18.565 18.7061L18.567 18.707H18.568C18.9133 18.7815 19.1598 19.0872 19.1598 19.4404C19.1596 19.7493 18.9713 20.0216 18.693 20.1348L18.568 20.1729C18.5675 20.173 18.566 20.1736 18.565 20.1738L18.5211 20.1836C18.4901 20.1903 18.444 20.2001 18.3844 20.2129C18.2651 20.2384 18.0907 20.2753 17.8697 20.3223C17.619 20.3755 17.3079 20.4394 16.9498 20.5146C17.2801 20.962 17.8091 21.2499 18.4098 21.25C19.4136 21.25 20.2202 20.438 20.2203 19.4404ZM21.7203 19.4404C21.7202 21.2626 20.2458 22.75 18.4098 22.75C16.8057 22.7499 15.4887 21.6226 15.1666 20.1279C15.1246 19.9328 15.1624 19.7289 15.2711 19.5615C15.3 19.5171 15.3338 19.4763 15.3707 19.4395C15.3341 19.4028 15.2998 19.3634 15.2711 19.3193C15.1621 19.1518 15.1245 18.9473 15.1666 18.752C15.4878 17.2617 16.8015 16.1202 18.4098 16.1201C20.2497 16.1201 21.7203 17.6219 21.7203 19.4404Z" fill="white"/> <path d="M12 6.69957C12 6.69957 9.91997 8.52957 8.67997 10.3396C7.64997 10.0696 6.76997 9.76957 6.61997 9.17957C6.09997 7.12957 8.66997 5.07957 11.23 4.55957C11.33 5.41957 11.6 6.12957 12 6.69957Z" fill="white"/> <path d="M11.1579 3.81406C11.3391 3.79654 11.5218 3.84485 11.6706 3.95273C11.8404 4.07591 11.951 4.26486 11.9753 4.47324C12.0626 5.224 12.2936 5.81265 12.6139 6.26914C12.8336 6.58213 12.7828 7.01063 12.4958 7.26328L12.4948 7.26426C12.4941 7.2649 12.4924 7.26583 12.4909 7.26719C12.4875 7.27018 12.4822 7.27467 12.4753 7.28086C12.461 7.2936 12.4391 7.31291 12.4108 7.33847C12.3541 7.38967 12.2708 7.46605 12.1667 7.56308C11.9583 7.75731 11.6672 8.03579 11.3385 8.36875C10.6754 9.04053 9.88124 9.91365 9.2985 10.7643C9.11955 11.0252 8.79603 11.1462 8.48991 11.066C7.97431 10.9309 7.42931 10.7725 6.986 10.5523C6.58828 10.3548 6.11421 10.03 5.92643 9.47812L5.89323 9.36484C5.53613 7.95703 6.26851 6.66722 7.25944 5.74668C8.26515 4.81243 9.67552 4.11023 11.0807 3.8248L11.1579 3.81406ZM10.6442 5.49277C9.74896 5.78714 8.90178 6.26954 8.28092 6.84629C7.47885 7.59139 7.18612 8.34964 7.34635 8.99082C7.35396 9.0039 7.40755 9.08622 7.65397 9.20859C7.84555 9.30369 8.0888 9.38932 8.37858 9.47617C8.98131 8.6724 9.68998 7.90278 10.2712 7.31406C10.5678 7.01361 10.8355 6.75607 11.0446 6.55918C10.877 6.23049 10.7435 5.87486 10.6442 5.49277Z" fill="white"/> </g> <defs> <clipPath id="clip0_2085_387522"> <rect width="24" height="24" fill="white"/> </clipPath> </defs> </svg>
