<svg width="22" height="22" viewBox="0 0 22 22" fill="none" xmlns="http://www.w3.org/2000/svg"> <g clip-path="url(#clip0_2085_387521)"> <path opacity="0.4" d="M14.5 2.75C14.5 4.26878 13.2688 5.5 11.75 5.5C10.2312 5.5 9 4.26878 9 2.75C9 1.23122 10.2312 0 11.75 0C13.2688 0 14.5 1.23122 14.5 2.75Z" fill="white"/> <path d="M0.876977 6.59848C3.51105 5.09018 6.94132 5.16152 9.05959 5.74692C9.45884 5.85727 9.69338 6.27053 9.58303 6.66977C9.4726 7.06888 9.05935 7.30256 8.66018 7.19223C6.79855 6.67775 3.80883 6.64886 1.62307 7.90024C1.26362 8.10607 0.805461 7.98138 0.599633 7.62192C0.393952 7.26253 0.51766 6.80431 0.876977 6.59848Z" fill="white"/> <path d="M7.94631 11.3838C8.22571 11.078 8.7001 11.0566 9.00588 11.3359C9.31164 11.6153 9.33309 12.0897 9.05373 12.3955C7.5643 14.0254 5.38387 15.8935 2.55373 17.79L3.70022 18.6494C4.03155 18.8979 4.09808 19.3678 3.84963 19.6992C3.6011 20.0306 3.1312 20.0981 2.79983 19.8496L0.799827 18.3496C0.603278 18.2021 0.491961 17.9672 0.500999 17.7217C0.510165 17.4762 0.638891 17.2507 0.845726 17.1181C4.03416 15.0747 6.41 13.065 7.94631 11.3838Z" fill="white"/> <path d="M16.6064 4.36453C16.8194 4.00944 17.2805 3.89384 17.6357 4.10672C17.9908 4.31977 18.1064 4.78087 17.8935 5.13601C17.0525 6.53765 15.6732 7.63249 14.3046 8.24148C13.6172 8.54736 12.9032 8.74414 12.2304 8.7825C11.5628 8.82051 10.8773 8.70451 10.3203 8.31472C9.98092 8.07719 9.89815 7.60914 10.1357 7.2698C10.3733 6.93077 10.8404 6.84884 11.1796 7.08621C11.3725 7.22123 11.6874 7.3114 12.1445 7.28543C12.5966 7.25968 13.1328 7.12166 13.6953 6.87136C14.8266 6.36789 15.9474 5.4627 16.6064 4.36453Z" fill="white"/> <path d="M7.84176 11.5302C8.04019 11.1668 8.4958 11.0331 8.85934 11.2314C9.0547 11.338 9.28326 11.448 9.54586 11.5605C10.9086 12.1447 11.8222 13.1492 12.2207 14.5439C12.5261 15.6132 12.5167 16.8696 12.2441 18.2861L13.6025 18.0146C14.0087 17.9334 14.4041 18.1964 14.4853 18.6025C14.5665 19.0086 14.3034 19.4039 13.8974 19.4853L11.3974 19.9853C11.1427 20.0363 10.8795 19.9514 10.7021 19.7617C10.5248 19.5718 10.4581 19.3034 10.5263 19.0527C11.0089 17.2834 11.0592 15.9363 10.7793 14.956C10.5111 14.0176 9.92439 13.3553 8.95407 12.9394C8.65689 12.812 8.38511 12.6812 8.14059 12.5478C7.77716 12.3494 7.64347 11.8938 7.84176 11.5302Z" fill="white"/> <path d="M18.6211 8.51121C19.0291 8.44025 19.4181 8.71365 19.4893 9.12156L21.4893 20.6216C21.5272 20.8395 21.4665 21.0635 21.3242 21.2329C21.1817 21.4023 20.9714 21.5005 20.75 21.5005H0.75C0.335786 21.5005 0 21.1647 0 20.7505C0 20.3363 0.335786 20.0005 0.75 20.0005H19.8574L18.0107 9.37937C17.9398 8.97139 18.2132 8.58233 18.6211 8.51121Z" fill="white"/> <path d="M20.1269 8.01025C20.5354 7.94235 20.9222 8.21897 20.9902 8.62744C21.0581 9.0359 20.7815 9.42264 20.373 9.49072L17.373 9.99072C16.9646 10.0586 16.5778 9.782 16.5098 9.37353C16.4419 8.96507 16.7185 8.57833 17.1269 8.51025L20.1269 8.01025Z" fill="white"/> <path d="M8.5 11.8897C5.88 10.4697 6.59 8.74973 8.86 6.46973C9.77 6.71973 10.43 7.07973 10.65 7.44973C10.69 7.52973 10.73 7.60973 10.75 7.69973C10.96 8.54973 10.2 10.0497 8.5 11.8897Z" fill="white"/> <path d="M8.40374 5.87444C8.58842 5.73293 8.831 5.68387 9.05901 5.74651C9.55387 5.88247 10.0034 6.05488 10.3735 6.25726C10.7257 6.44993 11.0834 6.71218 11.2944 7.06683C11.3036 7.08244 11.3126 7.09844 11.3207 7.11468C11.3535 7.18015 11.4327 7.33347 11.477 7.51995H11.478C11.6512 8.22134 11.4039 9.01946 11.0043 9.77483C10.5877 10.5624 9.92758 11.4503 9.0512 12.3989C8.81849 12.6507 8.4445 12.7126 8.14299 12.5492C7.42871 12.1621 6.86792 11.717 6.5092 11.183C6.13602 10.6275 6.01093 10.0182 6.10491 9.39105C6.19512 8.78978 6.48042 8.2088 6.85881 7.65569C7.24005 7.09845 7.74525 6.52671 8.32854 5.94085L8.40374 5.87444ZM9.07659 7.32366C8.67235 7.74991 8.34416 8.1413 8.0971 8.50237C7.78595 8.95717 7.63195 9.32266 7.58831 9.6137C7.54855 9.87896 7.59489 10.1086 7.75432 10.3461C7.87183 10.521 8.06256 10.7151 8.35686 10.9223C8.96331 10.2197 9.40108 9.59732 9.67815 9.07366C10.0309 8.40691 10.0585 8.02908 10.0219 7.8803C10.0211 7.87709 10.0197 7.87376 10.019 7.87054C10.0184 7.86916 10.0181 7.86713 10.017 7.86468C10.0142 7.8581 10.0098 7.84878 10.0033 7.83538C10.0015 7.83155 9.99948 7.82772 9.99749 7.82366C9.99496 7.82052 9.99177 7.81648 9.98772 7.81194C9.9742 7.79683 9.95388 7.77626 9.92424 7.7514C9.86334 7.70037 9.77437 7.63867 9.65374 7.57269C9.49843 7.48777 9.30459 7.40388 9.07659 7.32366Z" fill="white"/> </g> <defs> <clipPath id="clip0_2085_387521"> <rect width="21.5" height="21.5" fill="white"/> </clipPath> </defs> </svg>
