<svg width="24" height="24" viewBox="0 0 24 24" fill="none" xmlns="http://www.w3.org/2000/svg"> <g clip-path="url(#clip0_4482_13203)"> <path opacity="0.4" d="M21.9902 10.88V7C21.9902 4.24 19.7502 2 16.9902 2H6.99023C4.23023 2 1.99023 4.24 1.99023 7V10.87C1.99023 10.87 2.01023 10.9 2.01023 10.91C2.01023 10.94 2.01023 10.97 2.01023 11V11.25C2.01023 11.8 2.46023 12.25 3.01023 12.25H8.17023C8.90023 12.25 9.60023 12.54 10.1202 13.06L11.4502 14.39C11.7502 14.69 12.2502 14.69 12.5602 14.39L13.8902 13.06C14.4102 12.54 15.1102 12.25 15.8402 12.25H21.0102C21.5602 12.25 22.0102 11.8 22.0102 11.25V11C22.0102 11 22.0002 10.92 22.0002 10.88H21.9902ZM6.99023 3.5H16.9902C18.9202 3.5 20.4902 5.07 20.4902 7V7.89C19.8102 7.34 18.9502 7 18.0002 7H6.00023C5.04023 7 4.18023 7.35 3.49023 7.91V7C3.49023 5.07 5.06023 3.5 6.99023 3.5Z" fill="white"/> <path d="M15.8198 13.75C15.4898 13.75 15.1698 13.88 14.9398 14.12L13.6098 15.45C13.1698 15.89 12.5798 16.12 11.9998 16.12C11.4198 16.12 10.8298 15.9 10.3898 15.45L9.05977 14.12C8.82977 13.89 8.50977 13.75 8.17977 13.75H3.00977C2.45977 13.75 2.00977 14.2 2.00977 14.75V17C2.00977 19.76 4.24977 22 7.00977 22H17.0098C19.7698 22 22.0098 19.76 22.0098 17V14.75C22.0098 14.2 21.5598 13.75 21.0098 13.75H15.8198Z" fill="white"/> </g> <defs> <clipPath id="clip0_4482_13203"> <rect width="24" height="24" fill="white"/> </clipPath> </defs> </svg>
