<svg width="24" height="24" viewBox="0 0 24 24" fill="none" xmlns="http://www.w3.org/2000/svg"> <g clip-path="url(#clip0_2085_383148)"> <g clip-path="url(#clip1_2085_383148)"> <path d="M10.5015 15.4195C10.5015 14.6995 11.0815 14.8195 11.8115 14.8195H12.1915C12.9115 14.8195 13.5015 14.6995 13.5015 15.4195" stroke="white" stroke-width="1.5" stroke-linecap="round" stroke-linejoin="round"/> <path d="M12.0015 14.8196V18.0296" stroke="white" stroke-width="1.5" stroke-linecap="round" stroke-linejoin="round"/> <path d="M8.5415 11.1194V12.0394" stroke="white" stroke-width="1.5" stroke-linecap="round" stroke-linejoin="round"/> <path d="M15.4614 11.1194V12.0394" stroke="white" stroke-width="1.5" stroke-linecap="round" stroke-linejoin="round"/> <path d="M20.1614 14.6694L15.9914 16.0794C15.9114 16.0994 15.8314 16.1094 15.7514 16.1094C15.4414 16.1094 15.1514 15.9194 15.0414 15.5994C14.9114 15.2094 15.1214 14.7894 15.5114 14.6494L19.9314 13.1694C19.9914 13.1494 20.0414 13.1394 20.1014 13.1394C20.1814 13.7294 20.2014 14.2094 20.1614 14.6694Z" fill="white"/> <path d="M19.7915 16.0994C19.6115 16.5694 19.3515 17.0694 19.0015 17.6594L15.9215 18.3494C15.8615 18.3694 15.8115 18.3694 15.7515 18.3694C15.4115 18.3694 15.1015 18.1394 15.0215 17.7894C14.9315 17.3794 15.1815 16.9794 15.5915 16.8894L19.3115 16.0494C19.4815 16.0094 19.6515 16.0294 19.7915 16.0994Z" fill="white"/> <path d="M8.96141 15.5994C8.85141 15.9194 8.56141 16.1094 8.25141 16.1094C8.17141 16.1094 8.09141 16.0994 8.01141 16.0794L3.84141 14.6794C3.80141 14.2194 3.82141 13.7294 3.90141 13.1394C3.95141 13.1394 4.00141 13.1494 4.05141 13.1694L8.48141 14.6494C8.88141 14.7894 9.09141 15.2094 8.96141 15.5994Z" fill="white"/> <path d="M8.98142 17.7894C8.90142 18.1394 8.59142 18.3694 8.25142 18.3694C8.19142 18.3694 8.14142 18.3694 8.08142 18.3494L4.98142 17.6594C4.64142 17.0694 4.38142 16.5694 4.20142 16.0994C4.35142 16.0294 4.52142 16.0094 4.69142 16.0494L8.41142 16.8894C8.81142 16.9794 9.07142 17.3794 8.98142 17.7894Z" fill="white"/> <path d="M8.00147 5.14956C8.00147 5.14956 7.99147 5.15956 7.98147 5.15956C7.96147 5.16956 7.94147 5.17956 7.93147 5.18956C7.71147 5.32956 7.49147 5.47956 7.29147 5.63956C7.18147 5.71956 7.07147 5.80956 6.96147 5.89956C6.86147 5.99956 6.75147 6.08956 6.65147 6.18956C6.54147 6.29956 6.42147 6.41956 6.32147 6.52956C6.21147 6.64956 6.11147 6.77956 6.01147 6.89956C5.86147 7.06956 5.73147 7.24956 5.61147 7.43956C5.60147 7.44956 5.59147 7.46956 5.58147 7.46956C5.57147 7.48956 5.56147 7.50956 5.54147 7.52956C5.46147 7.64956 5.39147 7.75956 5.33147 7.87956C5.19147 8.09956 5.06147 8.33956 4.95147 8.57956C4.90147 8.68956 4.84147 8.80956 4.79147 8.92956C4.74147 9.05956 4.70147 9.17956 4.65147 9.29956C4.60147 9.44956 4.55147 9.59956 4.51147 9.75956C4.48147 9.84956 4.46147 9.92956 4.44147 10.0296C4.40147 10.1896 4.37147 10.3496 4.34147 10.5096C4.34147 10.5296 4.33147 10.5496 4.33147 10.5696C3.60147 9.31956 1.10147 4.56956 2.34147 3.43956C3.27147 2.55956 6.12147 4.01956 8.00147 5.14956Z" fill="white"/> <path opacity="0.4" d="M20.1614 14.6696C20.1114 15.1696 19.9914 15.6196 19.7914 16.0996C19.6114 16.5696 19.3514 17.0696 19.0014 17.6596C18.9714 17.7196 18.9314 17.7796 18.8914 17.8496C17.8914 19.5396 16.4514 20.8295 14.8614 20.8295H9.14141C7.52141 20.8295 6.08141 19.5396 5.08141 17.8396C5.04141 17.7796 5.01141 17.7196 4.98141 17.6596C4.64141 17.0696 4.38141 16.5696 4.20141 16.0996C4.00141 15.6296 3.89141 15.1696 3.84141 14.6796C3.80141 14.2196 3.82141 13.7296 3.90141 13.1396C3.92141 12.9396 3.96141 12.7296 4.00141 12.4996L4.26141 11.0496C4.28141 10.8896 4.30141 10.7296 4.33141 10.5696C4.33141 10.5496 4.34141 10.5296 4.34141 10.5096C4.37141 10.3496 4.40141 10.1896 4.44141 10.0296C4.46141 9.92955 4.48141 9.84955 4.51141 9.75955C4.55141 9.59955 4.60141 9.44955 4.65141 9.29955C4.70141 9.17955 4.74141 9.05955 4.79141 8.92955C4.84141 8.80955 4.90141 8.68955 4.95141 8.57955C5.06141 8.33955 5.19141 8.09955 5.33141 7.87955C5.39141 7.75955 5.46141 7.64955 5.54141 7.52955C5.56141 7.50955 5.57141 7.48955 5.58141 7.46955C5.59141 7.46955 5.60141 7.44955 5.61141 7.43955C5.73141 7.24955 5.86141 7.06955 6.01141 6.89955C6.11141 6.77955 6.21141 6.64955 6.32141 6.52955C6.42141 6.41955 6.54141 6.29955 6.65141 6.18955C6.75141 6.08955 6.86141 5.99955 6.96141 5.89955C7.07141 5.80955 7.18141 5.71955 7.29141 5.63955C7.49141 5.47955 7.71141 5.32955 7.93141 5.18955C7.94141 5.17955 7.96141 5.16955 7.98141 5.15955C7.99141 5.15955 7.99141 5.14955 8.00141 5.14955C9.20141 4.42955 10.5814 4.03955 12.0014 4.03955C13.4214 4.03955 14.8114 4.42955 16.0114 5.15955H16.0214C16.2414 5.28955 16.4614 5.43955 16.6614 5.58955C16.7614 5.66955 16.8614 5.73955 16.9614 5.83955C16.9814 5.85955 17.0114 5.86955 17.0314 5.89955C17.0914 5.93955 17.1514 5.98955 17.2214 6.04955C17.2414 6.06955 17.2714 6.08955 17.2914 6.11955C17.3814 6.19955 17.4714 6.27955 17.5514 6.37955C17.6414 6.45955 17.7214 6.54955 17.7914 6.63955C17.9014 6.74955 18.0014 6.86955 18.0914 6.98955C18.1814 7.07955 18.2514 7.17955 18.3214 7.28955C18.4014 7.39955 18.4914 7.51955 18.5614 7.64955C18.5814 7.66955 18.6014 7.69955 18.6214 7.72955C18.6414 7.75955 18.6614 7.78955 18.6814 7.82955C18.7714 7.98955 18.8614 8.14955 18.9414 8.31955C19.0314 8.48955 19.1214 8.66955 19.1914 8.85955C19.2614 9.01955 19.3214 9.17955 19.3714 9.34955C19.4214 9.47955 19.4614 9.61955 19.4914 9.75955C19.5314 9.88955 19.5614 10.0296 19.5914 10.1696C19.6314 10.2996 19.6514 10.4296 19.6714 10.5696V10.5896C19.7014 10.7396 19.7214 10.8996 19.7414 11.0496L20.0014 12.5096C20.0414 12.7296 20.0814 12.9396 20.1014 13.1396C20.1814 13.7296 20.2014 14.2096 20.1614 14.6696Z" fill="white"/> <path d="M6.78149 6.04941C6.84149 5.99941 6.90149 5.93941 6.96149 5.89941C6.86149 5.99941 6.75149 6.08941 6.65149 6.18941C6.69149 6.12941 6.74149 6.08941 6.78149 6.04941Z" fill="white"/> <path d="M19.6715 10.5895V10.5695C19.6515 10.4295 19.6315 10.2995 19.5915 10.1695C19.5615 10.0295 19.5315 9.88946 19.4915 9.75946C19.4615 9.61946 19.4215 9.47946 19.3715 9.34946C19.3215 9.17946 19.2615 9.01946 19.1915 8.85946C19.1215 8.66946 19.0315 8.48946 18.9415 8.31946C18.8615 8.14946 18.7715 7.98946 18.6815 7.82946C18.6615 7.78946 18.6415 7.75946 18.6215 7.72946C18.6015 7.69946 18.5815 7.66946 18.5615 7.64946C18.4915 7.51946 18.4015 7.39946 18.3215 7.28946C18.2515 7.17946 18.1815 7.07946 18.0915 6.98946C18.0015 6.86946 17.9015 6.74946 17.7915 6.63946C17.7215 6.54946 17.6415 6.45946 17.5515 6.37946C17.4715 6.27946 17.3815 6.19946 17.2915 6.11946C17.2715 6.08946 17.2415 6.06946 17.2215 6.04946C17.1515 5.98946 17.0915 5.93946 17.0315 5.89946C17.0115 5.86946 16.9815 5.85946 16.9615 5.83946C16.8615 5.73946 16.7615 5.66946 16.6615 5.58946C16.4615 5.43946 16.2415 5.28946 16.0215 5.15946H16.0115C17.8615 4.04946 20.7115 2.55946 21.6715 3.42946C22.9315 4.59946 20.2315 9.57946 19.6715 10.5895Z" fill="white"/> <path d="M6.96149 5.89941C6.86149 5.99941 6.75149 6.08941 6.65149 6.18941C6.69149 6.12941 6.74149 6.08941 6.78149 6.04941C6.84149 5.99941 6.90149 5.93941 6.96149 5.89941Z" fill="white"/> </g> </g> <defs> <clipPath id="clip0_2085_383148"> <rect width="24" height="24" fill="white"/> </clipPath> <clipPath id="clip1_2085_383148"> <rect width="20" height="17.66" fill="white" transform="translate(2.00146 3.16943)"/> </clipPath> </defs> </svg>
