<svg width="24" height="24" viewBox="0 0 24 24" fill="none" xmlns="http://www.w3.org/2000/svg"> <g clip-path="url(#clip0_4482_9499)"> <path d="M3.5 3H20.5C21.33 3 22 3.67 22 4.5C22 5.33 21.33 6 20.5 6H3.5C2.67 6 2 5.33 2 4.5C2 3.67 2.67 3 3.5 3Z" fill="white"/> <path d="M15 20.04H12.75V13H14.5C15.33 13 16 12.33 16 11.5C16 10.67 15.33 10 14.5 10H9.5C8.67 10 8 10.67 8 11.5C8 12.33 8.67 13 9.5 13H11.25V20.04H9C8.59 20.04 8.25 20.38 8.25 20.79C8.25 21.2 8.59 21.54 9 21.54H15C15.41 21.54 15.75 21.2 15.75 20.79C15.75 20.38 15.41 20.04 15 20.04Z" fill="white"/> <g opacity="0.4"> <path d="M20 21.75C19.59 21.75 19.25 21.41 19.25 21V6C19.25 5.59 19.59 5.25 20 5.25C20.41 5.25 20.75 5.59 20.75 6V21C20.75 21.41 20.41 21.75 20 21.75Z" fill="white"/> </g> <g opacity="0.4"> <path d="M4 21.75C3.59 21.75 3.25 21.41 3.25 21V6C3.25 5.59 3.59 5.25 4 5.25C4.41 5.25 4.75 5.59 4.75 6V21C4.75 21.41 4.41 21.75 4 21.75Z" fill="white"/> </g> </g> <defs> <clipPath id="clip0_4482_9499"> <rect width="24" height="24" fill="white"/> </clipPath> </defs> </svg>
