<svg width="24" height="24" viewBox="0 0 24 24" fill="none" xmlns="http://www.w3.org/2000/svg"> <g clip-path="url(#clip0_655_9291)"> <path d="M21.6998 19.6V20.19C21.6998 21.19 20.8898 22 19.8898 22H4.1098C3.1098 22 2.2998 21.19 2.2998 20.19V19.6C2.2998 19.26 2.5798 18.98 2.9198 18.98H21.0698C21.4098 18.98 21.6898 19.26 21.6898 19.6H21.6998Z" fill="white"/> <path d="M19.3304 8.45001C19.0104 8.81001 18.5304 8.94001 18.1004 8.82001C17.6804 8.70001 17.2404 8.84001 16.9304 9.14001L16.1104 9.97001L14.4004 8.26001L15.2204 7.44001C15.5304 7.13001 15.6604 6.68001 15.5504 6.27001C15.4304 5.84001 15.5504 5.36001 15.9204 5.04001C16.3704 4.64001 17.0604 4.64001 17.5104 5.04001C18.0404 5.51001 18.0604 6.31001 17.5704 6.80001C18.0604 6.31001 18.8604 6.33001 19.3304 6.86001C19.7304 7.31001 19.7304 8.00001 19.3304 8.45001Z" fill="white"/> <path d="M15.0195 11.62C14.9995 11.74 14.9995 11.87 15.0195 12C15.1195 12.89 14.8295 13.81 14.1495 14.48C12.9595 15.68 11.0095 15.66 9.82952 14.43C8.86952 13.43 8.74952 11.92 9.43952 10.78C9.55952 10.59 9.69952 10.4 9.86952 10.23C10.5395 9.53999 11.4695 9.24999 12.3595 9.34999C12.8995 9.40999 13.4395 9.21999 13.8295 8.82999L14.3995 8.25999L16.1095 9.96999L15.5395 10.54C15.2395 10.83 15.0595 11.21 15.0195 11.62Z" fill="white"/> <g opacity="0.4"> <path d="M19.8904 16.52V18.98H4.11035V15.58C4.11035 12.7 6.61035 10.48 9.44035 10.78C8.75035 11.92 8.87035 13.43 9.83035 14.43C11.0104 15.66 12.9604 15.68 14.1504 14.48C14.8304 13.81 15.1204 12.89 15.0204 12C15.0004 11.87 15.0004 11.74 15.0204 11.62L15.7904 11.74C18.1504 12.1 19.8904 14.13 19.8904 16.52Z" fill="white"/> </g> <path d="M11.9996 10.08C11.5896 10.08 11.2496 9.74 11.2496 9.33V8.03C11.2496 7.78 11.0396 7.57 10.7896 7.57H7.76957C6.68957 7.57 5.80957 6.69 5.80957 5.61C5.80957 4.53 6.68957 3.65 7.76957 3.65H9.57957C9.82957 3.65 10.0396 3.44 10.0396 3.19V1.98C10.0396 1.57 10.3796 1.23 10.7896 1.23C11.1996 1.23 11.5396 1.57 11.5396 1.98V3.19C11.5396 4.27 10.6596 5.15 9.57957 5.15H7.76957C7.51957 5.15 7.30957 5.36 7.30957 5.61C7.30957 5.86 7.51957 6.07 7.76957 6.07H10.7896C11.8696 6.07 12.7496 6.95 12.7496 8.03V9.33C12.7496 9.74 12.4096 10.08 11.9996 10.08Z" fill="white"/> </g> <defs> <clipPath id="clip0_655_9291"> <rect width="24" height="24" fill="white"/> </clipPath> </defs> </svg>
