<svg width="24" height="24" viewBox="0 0 24 24" fill="none" xmlns="http://www.w3.org/2000/svg"> <g clip-path="url(#clip0_4482_957)"> <path opacity="0.4" d="M22 12C22 14.75 20.8801 17.25 19.0601 19.06C17.2501 20.88 14.75 22 12 22C8.2 22 4.87994 19.85 3.18994 16.71C2.92994 16.23 2.71003 15.73 2.53003 15.21C2.19003 14.2 2 13.12 2 12C2 9.25 3.11994 6.75 4.93994 4.94C6.74994 3.12 9.25 2 12 2C14.75 2 17.2501 3.12 19.0601 4.94C20.2501 6.12 21.14 7.6 21.61 9.25C21.75 9.74 21.86 10.24 21.92 10.75C21.97 11.16 22 11.58 22 12Z" fill="white"/> <path d="M17.84 10.7501C17.85 10.8301 17.88 10.9201 17.88 11.0001C17.88 12.3101 16.81 13.3801 15.5 13.3801C15.15 13.3801 14.82 13.2901 14.52 13.1501L13.74 13.8901C13.05 14.5301 11.9899 14.5301 11.3199 13.8901L8.54004 11.2501C8.47004 11.1901 8.37999 11.1801 8.35999 11.1801C8.30999 11.1801 8.23994 11.2001 8.18994 11.2601L3.18994 16.7101C2.92994 16.2301 2.71003 15.7301 2.53003 15.2101L7.06995 10.2601C7.38995 9.90012 7.83005 9.70012 8.30005 9.68012C8.80005 9.66012 9.22996 9.84012 9.57996 10.1701L12.36 12.8101C12.45 12.8901 12.61 12.8901 12.71 12.8001L13.42 12.1201C13.24 11.7801 13.12 11.4001 13.12 11.0001C13.12 9.69012 14.19 8.62012 15.5 8.62012C16.1 8.62012 16.66 8.86012 17.09 9.25012H21.61C21.75 9.74012 21.86 10.2401 21.92 10.7501H17.84Z" fill="white"/> </g> <defs> <clipPath id="clip0_4482_957"> <rect width="24" height="24" fill="white"/> </clipPath> </defs> </svg>
