<svg width="24" height="24" viewBox="0 0 24 24" fill="none" xmlns="http://www.w3.org/2000/svg"> <g clip-path="url(#clip0_4482_10081)"> <path d="M19.3702 7.2601H15.1602V5.1501C15.1602 4.5701 15.6302 4.1001 16.2102 4.1001H18.3202C18.9002 4.1001 19.3702 4.5701 19.3702 5.1501V7.2601Z" fill="white"/> <path d="M17.2607 4.86C16.8507 4.86 16.5107 4.52 16.5107 4.11V2C16.5107 1.59 16.8507 1.25 17.2607 1.25C17.6707 1.25 18.0107 1.59 18.0107 2V4.11C18.0107 4.52 17.6707 4.86 17.2607 4.86Z" fill="white"/> <g opacity="0.4"> <path d="M9.89027 7.26016V9.48016L9.21027 9.22016C8.89027 9.10016 8.53027 9.14016 8.24027 9.34016C7.96027 9.54016 7.79027 9.86016 7.79027 10.2102V22.0002H4.63027C3.47027 22.0002 2.53027 21.0602 2.53027 19.8902V7.26016C2.53027 6.10016 3.47027 5.16016 4.63027 5.16016H7.79027C8.95027 5.16016 9.89027 6.10016 9.89027 7.26016Z" fill="white"/> </g> <g opacity="0.4"> <path d="M21.4698 9.36977V19.8898C21.4698 21.0598 20.5298 21.9998 19.3698 21.9998H16.2098V12.5698C16.2098 12.1298 15.9398 11.7398 15.5298 11.5898L13.0498 10.6598V8.31977C13.0498 7.72977 13.5198 7.25977 14.1098 7.25977H19.3698C20.5298 7.25977 21.4698 8.20977 21.4698 9.36977Z" fill="white"/> </g> <path d="M15.53 11.5898L13.05 10.6598L9.89004 9.47984L9.21004 9.21984C8.89004 9.09984 8.53004 9.13984 8.24004 9.33984C7.96004 9.53984 7.79004 9.85984 7.79004 10.2098V21.9998H16.21V12.5698C16.21 12.1298 15.94 11.7398 15.53 11.5898ZM13.05 19.5898H10.94C10.53 19.5898 10.19 19.2498 10.19 18.8398C10.19 18.4298 10.53 18.0898 10.94 18.0898H13.05C13.46 18.0898 13.8 18.4298 13.8 18.8398C13.8 19.2498 13.46 19.5898 13.05 19.5898ZM13.05 16.4298H10.94C10.53 16.4298 10.19 16.0898 10.19 15.6798C10.19 15.2698 10.53 14.9298 10.94 14.9298H13.05C13.46 14.9298 13.8 15.2698 13.8 15.6798C13.8 16.0898 13.46 16.4298 13.05 16.4298Z" fill="white"/> </g> <defs> <clipPath id="clip0_4482_10081"> <rect width="24" height="24" fill="white"/> </clipPath> </defs> </svg>
