<svg width="24" height="24" viewBox="0 0 24 24" fill="none" xmlns="http://www.w3.org/2000/svg"> <g clip-path="url(#clip0_4482_10385)"> <path d="M14.9995 16.5L14.4195 15.91C14.1495 15.64 13.7895 15.5 13.4195 15.5C13.0495 15.5 12.6895 15.65 12.4195 15.91C11.9395 16.39 11.8695 17.13 12.2395 17.7L14.1795 20.61C14.5495 21.17 15.1795 21.5 15.8395 21.5H19.6395C20.6495 21.5 21.4995 20.75 21.6195 19.75L21.9795 16.85C22.1095 15.78 21.3795 14.8 20.3195 14.63L17.9995 14.25V12C17.9995 11.17 17.3295 10.5 16.4995 10.5C15.6695 10.5 14.9995 11.17 14.9995 12V16.5Z" fill="white"/> <g opacity="0.4"> <path d="M9 16.25H5C2.93 16.25 1.25 14.57 1.25 12.5V5.5C1.25 3.43 2.93 1.75 5 1.75H18C20.07 1.75 21.75 3.43 21.75 5.5V11.5C21.75 11.91 21.41 12.25 21 12.25C20.59 12.25 20.25 11.91 20.25 11.5V5.5C20.25 4.26 19.24 3.25 18 3.25H5C3.76 3.25 2.75 4.26 2.75 5.5V12.5C2.75 13.74 3.76 14.75 5 14.75H9C9.41 14.75 9.75 15.09 9.75 15.5C9.75 15.91 9.41 16.25 9 16.25Z" fill="white"/> </g> <path d="M10.5 12.0002H6.5C5.95 12.0002 5.5 11.5502 5.5 11.0002V8.62018C5.5 8.24018 5.67 7.88018 5.97 7.64018L7.68 6.27018C8.14 5.90018 8.78 5.90018 9.24 6.27018L11.03 7.70018C11.33 7.94018 11.5 8.30018 11.5 8.68018V11.0002C11.5 11.5502 11.05 12.0002 10.5 12.0002Z" fill="white"/> </g> <defs> <clipPath id="clip0_4482_10385"> <rect width="24" height="24" fill="white"/> </clipPath> </defs> </svg>
