<svg width="24" height="24" viewBox="0 0 24 24" fill="none" xmlns="http://www.w3.org/2000/svg"> <path opacity="0.4" d="M21.3956 1.39495C21.7295 1.06106 22.2707 1.06106 22.6045 1.39495C22.9384 1.72885 22.9384 2.27004 22.6045 2.60394L2.60455 22.6039C2.27065 22.9378 1.72946 22.9378 1.39557 22.6039C1.06167 22.27 1.06167 21.7289 1.39557 21.395L21.3956 1.39495Z" fill="white"/> <path d="M1.39557 1.39495C1.72946 1.06106 2.27065 1.06106 2.60455 1.39495L22.6045 21.395C22.9384 21.7289 22.9384 22.27 22.6045 22.6039C22.2707 22.9378 21.7295 22.9378 21.3956 22.6039L1.39557 2.60394C1.06167 2.27004 1.06167 1.72885 1.39557 1.39495Z" fill="white"/> </svg>
