<svg width="24" height="24" viewBox="0 0 24 24" fill="none" xmlns="http://www.w3.org/2000/svg"> <g clip-path="url(#clip0_2085_393798)"> <g opacity="0.4"> <path d="M12.64 18.67L8.65999 21.85C8.45999 22.01 8.17999 22.05 7.93999 21.93C7.69999 21.82 7.54999 21.58 7.54999 21.32V18.67H5.98999C3.77999 18.67 1.98999 16.88 1.98999 14.67V6C1.98999 3.79 3.77999 2 5.98999 2H17.99C20.2 2 21.99 3.79 21.99 6V14.67C21.99 16.88 20.2 18.67 17.99 18.67H12.63H12.64Z" fill="white"/> </g> <path d="M10.3401 13.3096C10.1501 13.3096 9.96006 13.2396 9.81006 13.0896L7.59006 10.8696C7.30006 10.5796 7.30006 10.0996 7.59006 9.80957L9.81006 7.58957C10.1001 7.29957 10.5801 7.29957 10.8701 7.58957C11.1601 7.87957 11.1601 8.35957 10.8701 8.64957L9.18006 10.3396L10.8701 12.0296C11.1601 12.3196 11.1601 12.7996 10.8701 13.0896C10.7201 13.2396 10.5301 13.3096 10.3401 13.3096Z" fill="white"/> <path d="M13.68 13.3096C13.49 13.3096 13.3 13.2396 13.15 13.0896C12.86 12.7996 12.86 12.3196 13.15 12.0296L14.84 10.3396L13.15 8.64957C12.86 8.35957 12.86 7.87957 13.15 7.58957C13.44 7.29957 13.92 7.29957 14.21 7.58957L16.43 9.80957C16.72 10.0996 16.72 10.5796 16.43 10.8696L14.21 13.0896C14.06 13.2396 13.87 13.3096 13.68 13.3096Z" fill="white"/> </g> <defs> <clipPath id="clip0_2085_393798"> <rect width="24" height="24" fill="white"/> </clipPath> </defs> </svg>
