<svg width="24" height="24" viewBox="0 0 24 24" fill="none" xmlns="http://www.w3.org/2000/svg"> <g clip-path="url(#clip0_4482_15011)"> <path d="M10.3694 14.9304C10.1794 14.9304 9.98941 14.8604 9.83941 14.7104L7.61941 12.4904C7.47941 12.3504 7.39941 12.1604 7.39941 11.9604C7.39941 11.7604 7.47941 11.5704 7.61941 11.4304L9.83941 9.22043C10.1294 8.93043 10.6094 8.93043 10.8994 9.22043C11.1894 9.51043 11.1894 9.99043 10.8994 10.2804L9.20941 11.9604L10.8994 13.6504C11.1894 13.9404 11.1894 14.4204 10.8994 14.7104C10.7494 14.8604 10.5594 14.9304 10.3694 14.9304Z" fill="white"/> <path d="M13.6899 14.9304C13.4999 14.9304 13.3099 14.8604 13.1599 14.7104C12.8699 14.4204 12.8699 13.9404 13.1599 13.6504L14.8399 11.9604L13.1599 10.2804C12.8699 9.99043 12.8699 9.51043 13.1599 9.22043C13.4499 8.93043 13.9299 8.93043 14.2199 9.22043L16.4299 11.4304C16.7199 11.7204 16.7199 12.2004 16.4299 12.4904L14.2199 14.7104C14.0699 14.8604 13.8799 14.9304 13.6899 14.9304Z" fill="white"/> <path d="M19.51 6.71051C20.7361 6.71051 21.73 5.71658 21.73 4.49051C21.73 3.26444 20.7361 2.27051 19.51 2.27051C18.284 2.27051 17.29 3.26444 17.29 4.49051C17.29 5.71658 18.284 6.71051 19.51 6.71051Z" fill="white"/> <g opacity="0.4"> <path d="M12.0196 22.7401C9.22958 22.7401 6.45958 21.6601 4.39958 19.6001C1.02958 16.2301 0.289578 10.9601 2.59958 6.79008C4.90958 2.62008 9.75958 0.45008 14.4196 1.53008C14.8196 1.62008 15.0796 2.03008 14.9796 2.43008C14.8796 2.83008 14.4796 3.09008 14.0796 2.99008C10.0796 2.07008 5.89958 3.93008 3.90958 7.52008C1.91958 11.1101 2.55958 15.6401 5.45958 18.5401C8.35958 21.4401 12.8996 22.0801 16.4796 20.0901C20.0696 18.1001 21.9296 13.9201 21.0096 9.92008C20.9196 9.52008 21.1696 9.11008 21.5696 9.02008C21.9796 8.92008 22.3796 9.18008 22.4696 9.58008C23.5396 14.2301 21.3796 19.0901 17.2096 21.4001C15.5896 22.3001 13.7996 22.7401 12.0196 22.7401Z" fill="white"/> </g> </g> <defs> <clipPath id="clip0_4482_15011"> <rect width="24" height="24" fill="white"/> </clipPath> </defs> </svg>
