<svg width="24" height="24" viewBox="0 0 24 24" fill="none" xmlns="http://www.w3.org/2000/svg"> <g clip-path="url(#clip0_2085_393040)"> <path d="M18.22 3.06981V4.98981H5.77002V3.76981C5.77002 3.23981 6.18002 2.79981 6.70002 2.76981L17.15 2.06981C17.73 2.02981 18.22 2.48981 18.22 3.06981Z" fill="white"/> <g opacity="0.4"> <path d="M19.47 5.99023V6.48023C19.47 7.03023 19.02 7.48023 18.47 7.48023H5.53003C4.98003 7.48023 4.53003 7.03023 4.53003 6.48023V5.99023C4.53003 5.43023 4.98003 4.99023 5.53003 4.99023H18.47C19.02 4.99023 19.47 5.43023 19.47 5.99023Z" fill="white"/> </g> <path d="M17.19 19.5098L17.13 20.1698C17.04 21.2098 16.17 21.9998 15.14 21.9998H8.85005C7.81005 21.9998 6.95005 21.2098 6.86005 20.1698L6.80005 19.5098H17.19Z" fill="white"/> <path d="M18.22 7.48047L18 9.97047H5.98002L5.77002 7.48047H18.22Z" fill="white"/> <g opacity="0.4"> <path d="M18 9.96973L17.47 16.1597L17.19 19.5097H6.79998L5.97998 9.96973H18Z" fill="white"/> </g> <path d="M13.13 12.46C12.7112 12.46 12.3422 12.634 12.0681 12.8991C12.0251 12.9407 11.9555 12.9401 11.913 12.898C11.6388 12.6262 11.2693 12.46 10.85 12.46C10.01 12.46 9.32996 13.14 9.32996 13.98C9.32996 15.2254 10.7918 16.2949 11.5481 16.7649C11.8208 16.9344 12.1591 16.9344 12.4319 16.7649C13.1881 16.2949 14.65 15.2254 14.65 13.98C14.65 13.14 13.97 12.46 13.13 12.46Z" fill="white"/> </g> <defs> <clipPath id="clip0_2085_393040"> <rect width="24" height="24" fill="white"/> </clipPath> </defs> </svg>
