<svg width="24" height="24" viewBox="0 0 24 24" fill="none" xmlns="http://www.w3.org/2000/svg"> <g clip-path="url(#clip0_4482_6620)"> <path opacity="0.4" d="M18.1601 9.20971C16.7101 10.2897 14.5901 11.1697 12.1501 11.5997C8.68011 12.2097 5.51007 11.7397 3.80007 10.5397H3.79006C3.10006 10.0497 2.65012 9.43972 2.53012 8.73972C2.10012 6.29972 5.71011 3.62971 10.5901 2.76971C15.4701 1.90971 19.7801 3.18971 20.2101 5.62971C20.4301 6.84972 19.6301 8.12971 18.1601 9.20971Z" fill="white"/> <path d="M21.4699 13.56C21.3699 14.12 21.07 14.62 20.59 15.05C19.02 16.48 15.6099 17.08 11.8499 16.42C9.40994 15.99 7.29994 15.1 5.84994 14.02H5.82998C4.41998 12.97 3.62994 11.74 3.78994 10.54H3.79995C5.50995 11.74 8.67999 12.21 12.15 11.6C14.59 11.17 16.7099 10.29 18.1599 9.20996H18.2C20.42 10.41 21.7299 12.03 21.4699 13.56Z" fill="white"/> <path opacity="0.4" d="M21.5001 17.0095C21.5001 19.4895 17.4801 21.4995 12.5301 21.4995C7.58009 21.4995 3.55005 19.4895 3.55005 17.0095C3.55005 15.8595 4.42004 14.8095 5.85004 14.0195C7.30004 15.0995 9.41004 15.9895 11.85 16.4195C15.61 17.0795 19.0201 16.4795 20.5901 15.0495C21.1701 15.6395 21.5001 16.3095 21.5001 17.0095Z" fill="white"/> </g> <defs> <clipPath id="clip0_4482_6620"> <rect width="24" height="24" fill="white"/> </clipPath> </defs> </svg>
