<svg width="24" height="24" viewBox="0 0 24 24" fill="none" xmlns="http://www.w3.org/2000/svg"> <g clip-path="url(#clip0_2085_391628)"> <path d="M18.22 10.6406V13.2906C15.729 13.2906 15.2295 13.8199 13.5353 14.0288C13.3775 14.0483 13.24 13.9234 13.24 13.7644V8.64062H16.22C17.33 8.64062 18.22 9.53062 18.22 10.6406Z" fill="white"/> <path d="M10.76 8.64062V13.7644C10.76 13.9234 10.6225 14.0483 10.4647 14.0288C8.77049 13.8199 8.27104 13.2906 5.78003 13.2906V10.6406C5.78003 9.53062 6.67003 8.64062 7.78003 8.64062H10.76Z" fill="white"/> <path d="M17.0002 9H7.00024C7.00024 7.33735 8.21735 6 9.73051 6H14.27C15.0266 6 15.7064 6.33735 16.1998 6.87952C16.6932 7.42169 17.0002 8.16867 17.0002 9Z" fill="white"/> <g opacity="0.4"> <path d="M13.24 3.24V6.15H10.76V3.24C10.76 2.56 11.31 2 12 2C12.69 2 13.24 2.56 13.24 3.24Z" fill="white"/> </g> <g opacity="0.4"> <path d="M13.5353 14.0288C13.3776 14.0483 13.24 13.9234 13.24 13.7644V8.64062H10.76V13.7644C10.76 13.9234 10.6225 14.0483 10.4647 14.0288C8.77049 13.8199 8.27104 13.2906 5.78003 13.2906V20.3406C5.78003 21.2606 6.52003 22.0006 7.44003 22.0006H16.56C17.48 22.0006 18.22 21.2606 18.22 20.3406V13.2906C15.729 13.2906 15.2296 13.8199 13.5353 14.0288Z" fill="white"/> </g> <path d="M13.24 17.8494C13.5824 17.8494 13.86 17.5718 13.86 17.2294C13.86 16.887 13.5824 16.6094 13.24 16.6094C12.8976 16.6094 12.62 16.887 12.62 17.2294C12.62 17.5718 12.8976 17.8494 13.24 17.8494Z" fill="white"/> <path d="M15.73 17.8494C16.0724 17.8494 16.35 17.5718 16.35 17.2294C16.35 16.887 16.0724 16.6094 15.73 16.6094C15.3876 16.6094 15.11 16.887 15.11 17.2294C15.11 17.5718 15.3876 17.8494 15.73 17.8494Z" fill="white"/> <path d="M14.49 19.9197C14.8324 19.9197 15.11 19.6421 15.11 19.2997C15.11 18.9573 14.8324 18.6797 14.49 18.6797C14.1476 18.6797 13.87 18.9573 13.87 19.2997C13.87 19.6421 14.1476 19.9197 14.49 19.9197Z" fill="white"/> </g> <defs> <clipPath id="clip0_2085_391628"> <rect width="24" height="24" fill="white"/> </clipPath> </defs> </svg>
