<svg width="24" height="24" viewBox="0 0 24 24" fill="none" xmlns="http://www.w3.org/2000/svg"> <g clip-path="url(#clip0_4482_819)"> <path d="M11.1695 15.5799C10.9695 15.5799 10.7795 15.4999 10.6395 15.3599L8.96945 13.6899C8.67945 13.3999 8.67945 12.9199 8.96945 12.6299C9.25945 12.3399 9.73951 12.3399 10.0295 12.6299L11.1695 13.7699L13.9695 10.9699C14.2595 10.6799 14.7395 10.6799 15.0295 10.9699C15.3195 11.2599 15.3195 11.7399 15.0295 12.0299L11.6994 15.3599C11.5594 15.4999 11.3695 15.5799 11.1695 15.5799Z" fill="white"/> <path d="M14.5 18.25H9.5C9.09 18.25 8.75 17.91 8.75 17.5C8.75 17.09 9.09 16.75 9.5 16.75H14.5C14.91 16.75 15.25 17.09 15.25 17.5C15.25 17.91 14.91 18.25 14.5 18.25Z" fill="white"/> <path opacity="0.4" d="M16.5 22H7.5C5.3 22 3.5 20.2 3.5 18V6C3.5 3.8 5.3 2 7.5 2H16.5C18.7 2 20.5 3.8 20.5 6V18C20.5 20.2 18.7 22 16.5 22Z" fill="white"/> <path d="M17.5 8.75H16.5C14.98 8.75 13.75 7.52 13.75 6V5C13.75 4.59 14.09 4.25 14.5 4.25C14.91 4.25 15.25 4.59 15.25 5V6C15.25 6.69 15.81 7.25 16.5 7.25H17.5C17.91 7.25 18.25 7.59 18.25 8C18.25 8.41 17.91 8.75 17.5 8.75Z" fill="white"/> </g> <defs> <clipPath id="clip0_4482_819"> <rect width="24" height="24" fill="white"/> </clipPath> </defs> </svg>
