<svg width="24" height="24" viewBox="0 0 24 24" fill="none" xmlns="http://www.w3.org/2000/svg"> <g clip-path="url(#clip0_4482_9243)"> <path d="M18.5 2.75C18.5 3.16 18.16 3.5 17.75 3.5H16.5V8.25C16.5 8.65 16.34 9.03 16.06 9.31L16 9.37V13.25H14.5V10H9.25V13.25H7.75V9.08C7.59 8.83 7.5 8.55 7.5 8.25V3.5H6.25C5.84 3.5 5.5 3.16 5.5 2.75C5.5 2.34 5.84 2 6.25 2H17.75C18.16 2 18.5 2.34 18.5 2.75Z" fill="white"/> <path d="M17.75 18.75C18.5784 18.75 19.25 18.0784 19.25 17.25C19.25 16.4216 18.5784 15.75 17.75 15.75C16.9216 15.75 16.25 16.4216 16.25 17.25C16.25 18.0784 16.9216 18.75 17.75 18.75Z" fill="white"/> <g opacity="0.4"> <path d="M20 13.25H4C2.9 13.25 2 14.15 2 15.25V19.25C2 20.35 2.9 21.25 4 21.25H20C21.1 21.25 22 20.35 22 19.25V15.25C22 14.15 21.1 13.25 20 13.25ZM17.75 18.75C16.92 18.75 16.25 18.08 16.25 17.25C16.25 16.42 16.92 15.75 17.75 15.75C18.58 15.75 19.25 16.42 19.25 17.25C19.25 18.08 18.58 18.75 17.75 18.75Z" fill="white"/> </g> <path d="M17.75 18.75C18.5784 18.75 19.25 18.0784 19.25 17.25C19.25 16.4216 18.5784 15.75 17.75 15.75C16.9216 15.75 16.25 16.4216 16.25 17.25C16.25 18.0784 16.9216 18.75 17.75 18.75Z" fill="white"/> <path d="M10 19C9.59 19 9.25 18.66 9.25 18.25V16.25C9.25 15.84 9.59 15.5 10 15.5C10.41 15.5 10.75 15.84 10.75 16.25V18.25C10.75 18.66 10.41 19 10 19Z" fill="white"/> <path d="M7 19C6.59 19 6.25 18.66 6.25 18.25V16.25C6.25 15.84 6.59 15.5 7 15.5C7.41 15.5 7.75 15.84 7.75 16.25V18.25C7.75 18.66 7.41 19 7 19Z" fill="white"/> </g> <defs> <clipPath id="clip0_4482_9243"> <rect width="24" height="24" fill="white"/> </clipPath> </defs> </svg>
