<svg width="24" height="24" viewBox="0 0 24 24" fill="none" xmlns="http://www.w3.org/2000/svg"> <g clip-path="url(#clip0_2085_382770)"> <g opacity="0.4"> <path d="M12.0762 21.9982C16.9862 21.9982 21.0862 18.4882 21.9562 13.8582C22.2162 12.4982 21.6062 12.5682 20.3262 12.3482C19.4162 12.1882 18.5662 11.5682 18.2462 10.5882C18.0262 9.91821 17.9462 9.89821 17.2462 9.86821C15.7962 9.80821 14.6362 8.26821 15.2162 7.02821C15.4362 6.56821 15.4262 6.50821 15.0162 6.19821C14.3062 5.64821 13.9762 4.61821 14.1062 3.62821C14.2462 2.55821 14.3262 2.17821 13.1962 2.05821C7.47624 1.44821 2.01624 6.01821 2.01624 11.9882C2.01624 17.5182 6.51624 21.9982 12.0762 21.9982Z" fill="white"/> </g> <path d="M11.0262 12.7482C10.6162 12.7482 10.2762 12.4082 10.2762 11.9982C10.2762 11.5882 10.6162 11.2482 11.0262 11.2482C11.4362 11.2482 11.7762 11.5882 11.7762 11.9982C11.7762 12.4082 11.4462 12.7482 11.0262 12.7482Z" fill="white"/> <path d="M6.02625 10.7482C5.61625 10.7482 5.27625 10.4082 5.27625 9.99817C5.27625 9.58817 5.61625 9.24817 6.02625 9.24817C6.43625 9.24817 6.77625 9.58817 6.77625 9.99817C6.77625 10.4082 6.44625 10.7482 6.02625 10.7482Z" fill="white"/> <path d="M12.0262 18.7482C11.6162 18.7482 11.2762 18.4082 11.2762 17.9982C11.2762 17.5882 11.6162 17.2482 12.0262 17.2482C12.4362 17.2482 12.7762 17.5882 12.7762 17.9982C12.7762 18.4082 12.4462 18.7482 12.0262 18.7482Z" fill="white"/> <path d="M9.01618 7.74823C8.82618 7.74823 8.63618 7.67823 8.48618 7.52823C8.19618 7.23823 8.19618 6.75823 8.48618 6.46823L9.48618 5.46823C9.77618 5.17823 10.2562 5.17823 10.5462 5.46823C10.8362 5.75823 10.8362 6.23823 10.5462 6.52823L9.54618 7.52823C9.39618 7.67823 9.20618 7.74823 9.01618 7.74823Z" fill="white"/> <path d="M16.0162 15.7482C15.8262 15.7482 15.6362 15.6782 15.4862 15.5282C15.1962 15.2382 15.1962 14.7582 15.4862 14.4682L16.4862 13.4682C16.7762 13.1782 17.2562 13.1782 17.5462 13.4682C17.8362 13.7582 17.8362 14.2382 17.5462 14.5282L16.5462 15.5282C16.3962 15.6782 16.2062 15.7482 16.0162 15.7482Z" fill="white"/> <path d="M8.01618 16.7482C7.82618 16.7482 7.63618 16.6782 7.48618 16.5282L6.48618 15.5282C6.19618 15.2382 6.19618 14.7582 6.48618 14.4682C6.77618 14.1782 7.25618 14.1782 7.54618 14.4682L8.54618 15.4682C8.83618 15.7582 8.83618 16.2382 8.54618 16.5282C8.39618 16.6782 8.20618 16.7482 8.01618 16.7482Z" fill="white"/> </g> <defs> <clipPath id="clip0_2085_382770"> <rect width="24" height="24" fill="white"/> </clipPath> </defs> </svg>
