<svg width="24" height="24" viewBox="0 0 24 24" fill="none" xmlns="http://www.w3.org/2000/svg"> <g clip-path="url(#clip0_4482_6284)"> <path opacity="0.4" d="M18.96 10.6998C18.96 12.3498 17.92 13.7398 16.47 14.2798L15.58 18.9998H8.42004L7.53003 14.2798C6.08003 13.7398 5.04004 12.3498 5.04004 10.6998C5.04004 8.76977 6.47002 7.16977 8.33002 6.91977C8.22002 6.56977 8.17004 6.20977 8.17004 5.83977C8.17004 3.71977 9.89003 2.00977 12 2.00977C14.11 2.00977 15.83 3.71977 15.83 5.83977C15.83 6.21977 15.78 6.56977 15.67 6.91977C17.53 7.16977 18.96 8.75977 18.96 10.6998Z" fill="white"/> <path d="M14.5 22H9.5C8.95 22 8.5 21.55 8.5 21V19H15.5V21C15.5 21.55 15.05 22 14.5 22Z" fill="white"/> <path d="M10.71 14.74C10.42 14.74 10.14 14.57 10.03 14.27C9.48997 12.85 9.21997 11.43 9.21997 10C9.21997 9.59 9.55997 9.25 9.96997 9.25C10.38 9.25 10.72 9.59 10.72 10C10.72 11.24 10.96 12.49 11.42 13.7C11.57 14.09 11.38 14.53 11 14.68C10.9 14.72 10.8 14.74 10.71 14.74Z" fill="white"/> <path d="M13.22 14.74C13.51 14.74 13.79 14.57 13.9 14.27C14.44 12.85 14.71 11.43 14.71 10C14.71 9.59 14.37 9.25 13.96 9.25C13.55 9.25 13.21 9.59 13.21 10C13.21 11.24 12.97 12.49 12.51 13.7C12.36 14.09 12.55 14.53 12.93 14.68C13.03 14.72 13.13 14.74 13.22 14.74Z" fill="white"/> </g> <defs> <clipPath id="clip0_4482_6284"> <rect width="24" height="24" fill="white"/> </clipPath> </defs> </svg>
