<svg width="24" height="24" viewBox="0 0 24 24" fill="none" xmlns="http://www.w3.org/2000/svg"> <g clip-path="url(#clip0_4482_14430)"> <path d="M21.88 13.7403C21.26 14.3603 20.45 14.6703 19.63 14.6703C18.81 14.6703 18 14.3603 17.38 13.7403L14.33 10.6803L10.15 6.50027C8.95 5.30027 8.95 3.35027 10.15 2.15027C11.31 0.990273 13.34 0.990273 14.5 2.15027L21.88 9.54027C23.04 10.7003 23.04 12.5803 21.88 13.7403Z" fill="white"/> <g opacity="0.4"> <path d="M11.4204 12.6104L9.98043 12.3204L12.0604 15.2304C12.4004 15.7104 12.3804 16.3304 12.0304 16.7904C11.6704 17.2504 11.0704 17.4204 10.5304 17.2104L6.37043 15.6004L8.87043 18.9704C9.19043 19.4104 9.21043 19.9904 8.92043 20.4504C8.63043 20.9104 8.09043 21.1404 7.56043 21.0304L4.61043 20.4404L2.53043 22.4904C2.38043 22.6304 2.19043 22.7104 2.00043 22.7104C1.81043 22.7104 1.62043 22.6304 1.47043 22.4904C1.18043 22.1904 1.18043 21.7204 1.47043 21.4304L3.49043 19.4104C3.87043 19.0304 4.40043 18.8604 4.91043 18.9704L7.36043 19.4604L4.76043 15.9604C4.41043 15.4904 4.42043 14.8604 4.77043 14.3904C5.13043 13.9204 5.73043 13.7504 6.28043 13.9604L10.4604 15.5804L8.47043 12.7904C8.16043 12.3504 8.14043 11.7704 8.44043 11.3204C8.73043 10.8704 9.26043 10.6404 9.79043 10.7504L11.7104 11.1404L13.2604 9.61035L14.3304 10.6804L12.8404 12.1704C12.4604 12.5404 11.9304 12.7104 11.4204 12.6104Z" fill="white"/> </g> </g> <defs> <clipPath id="clip0_4482_14430"> <rect width="24" height="24" fill="white"/> </clipPath> </defs> </svg>
