<svg width="24" height="24" viewBox="0 0 24 24" fill="none" xmlns="http://www.w3.org/2000/svg"> <g clip-path="url(#clip0_2085_387528)"> <path d="M20 5C20 6.11 19.11 7 18 7H12.78C12.32 7 11.92 7.31 11.81 7.76L11 11H6L8.51 4.3C8.81 3.52 9.55 3 10.39 3H18C19.11 3 20 3.89 20 5Z" fill="white"/> <path opacity="0.4" d="M22 15V16H2V15C2 12.79 3.79 11 6 11H18C20.21 11 22 12.79 22 15Z" fill="white"/> <path d="M22 16V17C22 19.21 20.21 21 18 21H6C3.79 21 2 19.21 2 17V16H22Z" fill="white"/> </g> <defs> <clipPath id="clip0_2085_387528"> <rect width="24" height="24" fill="white"/> </clipPath> </defs> </svg>
