<svg width="24" height="24" viewBox="0 0 24 24" fill="none" xmlns="http://www.w3.org/2000/svg"> <path d="M2 8.92031L5.85 5.07031L9.7 8.92031" fill="white"/> <path d="M5.2451 4.46517C5.57894 4.13134 6.12017 4.13147 6.45409 4.46517L10.3047 8.31478C10.5491 8.55918 10.6223 8.92704 10.4902 9.24642C10.3579 9.56585 10.0459 9.77466 9.70018 9.77474H1.99999C1.65417 9.77474 1.34228 9.56591 1.20995 9.24642C1.07784 8.92703 1.15107 8.5592 1.39549 8.31478L5.2451 4.46517ZM4.06346 8.06478H7.6367L5.8496 6.27767L4.06346 8.06478Z" fill="white"/> <path d="M22 15.0797L18.15 18.9297L14.3 15.0797" fill="white"/> <path d="M18.7549 19.5348C18.4211 19.8687 17.8798 19.8685 17.5459 19.5348L13.6953 15.6852C13.4509 15.4408 13.3777 15.073 13.5098 14.7536C13.6421 14.4341 13.9541 14.2253 14.2998 14.2253L22 14.2253C22.3458 14.2253 22.6577 14.4341 22.7901 14.7536C22.9222 15.073 22.8489 15.4408 22.6045 15.6852L18.7549 19.5348ZM19.9365 15.9352L16.3633 15.9352L18.1504 17.7223L19.9365 15.9352Z" fill="white"/> <path opacity="0.4" d="M4.9845 20.46V5.08008C4.9845 4.60787 5.36776 4.22461 5.83997 4.22461C6.31217 4.22461 6.69543 4.60787 6.69543 5.08008V20.46C6.69543 20.6453 6.76655 20.8172 6.89465 20.9453C7.02278 21.0734 7.1946 21.1455 7.38 21.1455H10.4601C10.9322 21.1456 11.3145 21.5279 11.3146 22C11.3146 22.4722 10.9322 22.8554 10.4601 22.8555H7.38C6.74541 22.8555 6.13754 22.6062 5.68567 22.1543C5.23382 21.7024 4.9845 21.0945 4.9845 20.46Z" fill="white"/> <path opacity="0.4" d="M17.3046 18.9199V3.54004C17.3046 3.35466 17.2334 3.18281 17.1053 3.05469C16.9772 2.92657 16.8054 2.85549 16.62 2.85547H13.5399C13.0677 2.85547 12.6844 2.4722 12.6844 2C12.6844 1.5278 13.0677 1.14453 13.5399 1.14453H16.62C17.2546 1.14455 17.8625 1.39385 18.3143 1.8457C18.7662 2.29757 19.0145 2.90547 19.0145 3.54004V18.9199C19.0145 19.3921 18.6322 19.7753 18.16 19.7754C17.6878 19.7754 17.3046 19.3921 17.3046 18.9199Z" fill="white"/> </svg>
