<svg width="24" height="24" viewBox="0 0 24 24" fill="none" xmlns="http://www.w3.org/2000/svg"> <g clip-path="url(#clip0_4482_13842)"> <path d="M15.5298 11.64C15.7698 11.26 15.9198 10.82 15.9198 10.34C15.9198 9.05 14.7898 7.92 13.4998 7.92H12.9998V7C12.9998 6.59 12.6598 6.25 12.2498 6.25C11.8398 6.25 11.4998 6.59 11.4998 7V7.92H10.9198V7C10.9198 6.59 10.5798 6.25 10.1698 6.25C9.75977 6.25 9.41977 6.59 9.41977 7V7.92H8.00977C7.59977 7.92 7.25977 8.26 7.25977 8.67C7.25977 9.08 7.59977 9.42 8.00977 9.42H8.58977V12V14.58H8.00977C7.59977 14.58 7.25977 14.92 7.25977 15.33C7.25977 15.74 7.59977 16.08 8.00977 16.08H9.28977C9.28977 16.08 9.31977 16.08 9.33977 16.08H9.41977V16.99C9.41977 17.4 9.75977 17.74 10.1698 17.74C10.5798 17.74 10.9198 17.4 10.9198 16.99V16.08H11.4998V16.99C11.4998 17.4 11.8398 17.74 12.2498 17.74C12.6598 17.74 12.9998 17.4 12.9998 16.99V16.08H14.0898C15.5498 16.08 16.7498 14.99 16.7498 13.66C16.7498 12.81 16.2598 12.06 15.5298 11.63V11.64ZM10.9098 9.42H13.4898C13.9998 9.42 14.4098 9.92 14.4098 10.34C14.4098 10.83 14.0198 11.22 13.5398 11.25H10.0798V9.42H10.9098ZM14.0898 14.59H12.2898C12.2898 14.59 12.2598 14.59 12.2398 14.59C12.2198 14.59 12.2098 14.59 12.1898 14.59H10.9498C10.9498 14.59 10.9198 14.59 10.8998 14.59H10.0698V12.77H13.4798C13.4798 12.77 13.5498 12.77 13.5798 12.76H14.0698C14.7098 12.76 15.2298 13.17 15.2298 13.68C15.2298 14.19 14.7098 14.6 14.0698 14.6L14.0898 14.59Z" fill="white"/> <g opacity="0.4"> <path d="M2.90042 13.6293C2.49042 11.3993 2.95042 9.0693 4.14042 7.1493C4.39042 7.2393 4.65042 7.2893 4.91042 7.2893C5.53042 7.2893 6.13042 7.0493 6.59043 6.5893C7.27042 5.9093 7.48042 4.8893 7.11042 3.9993C6.74043 3.1093 5.88042 2.5293 4.92042 2.5293C4.30043 2.5293 3.68042 2.7793 3.24042 3.2193C2.79042 3.6693 2.54042 4.2593 2.54042 4.8993C2.54042 5.3893 2.69042 5.8493 2.95042 6.2393C1.50042 8.4893 0.940425 11.2593 1.43042 13.8993C1.50042 14.2593 1.81042 14.5093 2.17042 14.5093C2.21042 14.5093 2.26042 14.5093 2.31042 14.4993C2.72042 14.4193 2.99042 14.0293 2.91042 13.6293H2.90042Z" fill="white"/> <path d="M22.5702 10.0994C22.5002 9.6894 22.1102 9.4194 21.7002 9.4994C21.2902 9.5794 21.0202 9.9694 21.1002 10.3694C21.5102 12.5994 21.0502 14.9394 19.8502 16.8494C19.0002 16.5594 18.0602 16.7594 17.4102 17.3994C16.7302 18.0794 16.5302 19.0994 16.8902 19.9894C17.2602 20.8794 18.1202 21.4594 19.0802 21.4594C19.7002 21.4594 20.3102 21.2094 20.7502 20.7694C21.1902 20.3294 21.4502 19.7194 21.4502 19.0894C21.4502 18.5994 21.3002 18.1394 21.0402 17.7494C22.4902 15.4994 23.0502 12.7294 22.5602 10.0894L22.5702 10.0994Z" fill="white"/> <path d="M13.6503 21.0997C11.4103 21.5097 9.07027 21.0497 7.14027 19.8497C7.22027 19.6097 7.27027 19.3597 7.27027 19.0897C7.27027 17.7797 6.20027 16.7197 4.90027 16.7197C3.59027 16.7197 2.53027 17.7797 2.53027 19.0897C2.53027 19.7097 2.78027 20.3297 3.23027 20.7697C3.67027 21.2097 4.28027 21.4597 4.91027 21.4597C5.40027 21.4597 5.86027 21.3097 6.24027 21.0497C7.97027 22.1597 9.94027 22.7497 11.9703 22.7497C12.6203 22.7497 13.2703 22.6897 13.9303 22.5697C14.3403 22.4897 14.6103 22.0997 14.5303 21.6997C14.4603 21.2897 14.0603 21.0197 13.6603 21.0997H13.6503Z" fill="white"/> <path d="M19.0901 7.26962C20.4001 7.26962 21.4601 6.20962 21.4601 4.89962C21.4601 4.27962 21.2101 3.65962 20.7601 3.21962C20.3101 2.76962 19.7201 2.52962 19.0801 2.52962C18.5901 2.52962 18.1301 2.67962 17.7501 2.93962C15.4601 1.46962 12.7501 0.919624 10.0701 1.41962C9.6601 1.49962 9.3901 1.88962 9.4701 2.28962C9.5401 2.69962 9.9401 2.96962 10.3401 2.88962C12.6101 2.46962 14.9001 2.91962 16.8501 4.13962C16.7701 4.37962 16.7201 4.62962 16.7201 4.89962C16.7201 6.20962 17.7901 7.26962 19.0901 7.26962Z" fill="white"/> </g> </g> <defs> <clipPath id="clip0_4482_13842"> <rect width="24" height="24" fill="white"/> </clipPath> </defs> </svg>
