<svg width="24" height="24" viewBox="0 0 24 24" fill="none" xmlns="http://www.w3.org/2000/svg"> <g clip-path="url(#clip0_4482_1197)"> <path opacity="0.4" d="M14.75 15.8098C16.38 17.1698 18.41 17.2598 19.96 16.6098C19.66 19.0798 17.55 20.9998 15 20.9998H7C4.24 20.9998 2 18.7598 2 15.9998V11.3098C2 11.0298 2.22 10.8098 2.5 10.8098H13C13.05 10.8098 13.1 10.7998 13.15 10.7998C13 11.3798 12.96 11.9798 13.04 12.5998C13.18 13.8398 13.79 15.0098 14.75 15.8098Z" fill="white"/> <path opacity="0.4" d="M13 9.31H2.5C2.22 9.31 2 9.09 2 8.81V8C2 5.24 4.24 3 7 3H15C17.55 3 19.66 4.92 19.96 7.39C19.36 7.14 18.69 7 18 7C16.1 7 14.45 8.06 13.6 9.62C13.47 9.43 13.25 9.31 13 9.31Z" fill="white"/> <path d="M7 16H10" stroke="white" stroke-width="1.5" stroke-linecap="round" stroke-linejoin="round"/> <path d="M19.96 7.39C19.36 7.14 18.69 7 18 7C15.24 7 13 9.24 13 12C13 14.76 15.24 17 18 17C18.69 17 19.36 16.86 19.96 16.61C21.74 15.84 23 14.07 23 12C23 9.93 21.74 8.16 19.96 7.39ZM19.92 12.75H16.08C15.67 12.75 15.33 12.41 15.33 12C15.33 11.59 15.67 11.25 16.08 11.25H19.92C20.33 11.25 20.67 11.59 20.67 12C20.67 12.41 20.33 12.75 19.92 12.75Z" fill="white"/> </g> <defs> <clipPath id="clip0_4482_1197"> <rect width="24" height="24" fill="white"/> </clipPath> </defs> </svg>
