<svg width="24" height="24" viewBox="0 0 24 24" fill="none" xmlns="http://www.w3.org/2000/svg"> <g clip-path="url(#clip0_2085_393812)"> <g opacity="0.4"> <path d="M19.36 15.5303V22.0003H4.42004V15.5303C4.42004 14.9803 4.87004 14.5303 5.42004 14.5303H18.36C18.91 14.5303 19.36 14.9803 19.36 15.5303Z" fill="white"/> </g> <path d="M4.41994 22.6998H3.13994C2.74994 22.6998 2.43994 22.3898 2.43994 21.9998C2.43994 21.6098 2.74994 21.2998 3.13994 21.2998H4.41994C4.80994 21.2998 5.11994 21.6098 5.11994 21.9998C5.11994 22.3898 4.80994 22.6998 4.41994 22.6998Z" fill="white"/> <path d="M20.65 22.6998H4.12004C3.73004 22.6998 3.42004 22.3898 3.42004 21.9998C3.42004 21.6098 3.73004 21.2998 4.12004 21.2998H20.66C21.05 21.2998 21.36 21.6098 21.36 21.9998C21.36 22.3898 21.05 22.6998 20.66 22.6998H20.65Z" fill="white"/> <g opacity="0.4"> <path d="M14.38 4.49023V7.06023C14.38 7.98023 13.88 8.78023 13.14 9.21023C12.77 9.43023 12.35 9.55023 11.89 9.55023C11.43 9.55023 11.01 9.43023 10.65 9.22023C9.91002 8.79024 9.40002 7.99023 9.40002 7.06023V4.49023H14.38Z" fill="white"/> </g> <path d="M18.11 13.2898V14.5298H5.67004V13.2898C5.67004 11.9098 6.78004 10.7998 8.16004 10.7998H10.65C10.65 11.4798 11.2 12.0398 11.89 12.0398C12.58 12.0398 13.14 11.4798 13.14 10.7998H15.63C17 10.7998 18.11 11.9098 18.11 13.2898Z" fill="white"/> <path d="M13.14 9.20996V10.8C13.14 11.48 12.58 12.04 11.89 12.04C11.2 12.04 10.65 11.48 10.65 10.8V9.21996C11.01 9.42996 11.44 9.54996 11.89 9.54996C12.34 9.54996 12.77 9.42996 13.14 9.20996Z" fill="white"/> <path d="M14.38 3.24V4.49H9.40003C8.71003 4.49 8.16003 3.93 8.16003 3.24V2.27C8.16003 2.12088 8.28092 2 8.43003 2H13.14C13.82 2 14.38 2.56 14.38 3.24Z" fill="white"/> <path d="M8.16002 18.9696C7.98002 18.9696 7.80002 18.8996 7.66002 18.7596C7.39002 18.4896 7.39002 18.0396 7.66002 17.7696L8.91002 16.5296C9.19002 16.2596 9.63002 16.2596 9.90002 16.5296C10.17 16.7996 10.17 17.2496 9.90002 17.5196L8.65002 18.7596C8.51002 18.8996 8.33002 18.9696 8.15002 18.9696H8.16002Z" fill="white"/> <path d="M9.40001 20.2099C9.22001 20.2099 9.04001 20.1399 8.90001 19.9999L7.65001 18.7599C7.38001 18.4899 7.38001 18.0399 7.65001 17.7699C7.92001 17.4999 8.37001 17.4999 8.64001 17.7699L9.89001 19.0099C10.16 19.2799 10.16 19.7299 9.89001 19.9999C9.75001 20.1399 9.57001 20.2099 9.39001 20.2099H9.40001Z" fill="white"/> <path d="M15.62 18.9696C15.44 18.9696 15.26 18.8996 15.12 18.7596L13.87 17.5196C13.6 17.2496 13.6 16.7996 13.87 16.5296C14.14 16.2596 14.59 16.2596 14.86 16.5296L16.11 17.7696C16.38 18.0396 16.38 18.4896 16.11 18.7596C15.97 18.8996 15.79 18.9696 15.61 18.9696H15.62Z" fill="white"/> <path d="M14.38 20.2099C14.2 20.2099 14.02 20.1399 13.88 19.9999C13.61 19.7299 13.61 19.2799 13.88 19.0099L15.13 17.7699C15.41 17.4999 15.85 17.4999 16.12 17.7699C16.39 18.0399 16.39 18.4899 16.12 18.7599L14.87 19.9999C14.73 20.1399 14.55 20.2099 14.37 20.2099H14.38Z" fill="white"/> <path d="M11.52 20.8802C11.52 20.8802 11.43 20.8802 11.39 20.8702C11.01 20.8002 10.76 20.4302 10.83 20.0502L11.56 16.1702C11.63 15.7902 12.01 15.5302 12.38 15.6102C12.76 15.6802 13.01 16.0502 12.94 16.4302L12.21 20.3102C12.15 20.6502 11.85 20.8802 11.52 20.8802Z" fill="white"/> </g> <defs> <clipPath id="clip0_2085_393812"> <rect width="24" height="24" fill="white"/> </clipPath> </defs> </svg>
