<svg width="24" height="24" viewBox="0 0 24 24" fill="none" xmlns="http://www.w3.org/2000/svg"> <path opacity="0.4" d="M17 2H7C4.23858 2 2 4.23858 2 7V17C2 19.7614 4.23858 22 7 22H17C19.7614 22 22 19.7614 22 17V7C22 4.23858 19.7614 2 17 2Z" fill="white"/> <path d="M10.8404 7.75004L8.30031 11.14C7.91031 11.66 7.91031 12.36 8.30031 12.88L10.8404 16.27C11.4204 17.04 12.5803 17.04 13.1703 16.27L15.7103 12.88C16.1003 12.36 16.1003 11.66 15.7103 11.14L13.1703 7.75004C12.5903 6.97004 11.4304 6.97004 10.8404 7.75004Z" fill="white"/> </svg>
