<svg width="24" height="24" viewBox="0 0 24 24" fill="none" xmlns="http://www.w3.org/2000/svg"> <g clip-path="url(#clip0_2085_387241)"> <path d="M8.25 4.25H15.75C15.75 4.25 16.13 4.25 16.13 4.63V9.88C16.13 9.88 16.13 10.26 15.75 10.26H8.25C8.25 10.26 7.87 10.26 7.87 9.88V4.63C7.87 4.63 7.87 4.25 8.25 4.25Z" fill="white"/> <path opacity="0.4" d="M7.21998 2H16.79C16.79 2 18.53 2 18.53 3.74V20.26C18.53 20.26 18.53 22 16.79 22H7.21998C7.21998 22 5.47998 22 5.47998 20.26V3.74C5.47998 3.74 5.47998 2 7.21998 2Z" fill="white"/> <path d="M14.67 13.5402C13.96 12.8302 13 12.4302 12 12.4302C11 12.4302 10.03 12.8302 9.32997 13.5402C8.61997 14.2502 8.21997 15.2102 8.21997 16.2102C8.21997 17.2102 8.61997 18.1802 9.32997 18.8802C10.04 19.5802 11 19.9902 12 19.9902C13 19.9902 13.97 19.5902 14.67 18.8802C15.38 18.1702 15.78 17.2102 15.78 16.2102C15.78 15.2102 15.38 14.2402 14.67 13.5402ZM13.13 17.3502C12.83 17.6502 12.42 17.8202 12 17.8202C11.58 17.8202 11.17 17.6502 10.87 17.3502C10.57 17.0502 10.4 16.6402 10.4 16.2202C10.4 15.8002 10.57 15.3902 10.87 15.0902C11.17 14.7902 11.58 14.6202 12 14.6202C12.42 14.6202 12.83 14.7902 13.13 15.0902C13.43 15.3902 13.6 15.8002 13.6 16.2202C13.6 16.6402 13.43 17.0502 13.13 17.3502Z" fill="white"/> </g> <defs> <clipPath id="clip0_2085_387241"> <rect width="24" height="24" fill="white"/> </clipPath> </defs> </svg>
