<svg width="24" height="24" viewBox="0 0 24 24" fill="none" xmlns="http://www.w3.org/2000/svg"> <g clip-path="url(#clip0_4418_4570)"> <path d="M21.2902 17.0198L19.5502 13.5398C19.0702 12.5698 19.0702 11.4398 19.5502 10.4698L21.2902 6.98983C22.7802 3.99983 19.5702 0.859829 16.6202 2.41983L15.0802 3.23983C14.8702 3.34983 14.7002 3.52983 14.6002 3.74983L8.90017 16.3898C8.67017 16.9098 8.88017 17.5198 9.38017 17.7798L16.6202 21.5898C19.5702 23.1498 22.7802 19.9998 21.2902 17.0198Z" fill="white"/> <path opacity="0.4" d="M7.69002 15.6004L11.42 7.32045C11.84 6.39045 10.84 5.45045 9.94002 5.93045L4.17002 8.96045C1.72002 10.2504 1.72002 13.7504 4.17002 15.0404L6.21002 16.1104C6.76002 16.4004 7.43002 16.1704 7.69002 15.6004Z" fill="white"/> </g> <defs> <clipPath id="clip0_4418_4570"> <rect width="24" height="24" fill="white"/> </clipPath> </defs> </svg>
