<svg width="24" height="24" viewBox="0 0 24 24" fill="none" xmlns="http://www.w3.org/2000/svg"> <g clip-path="url(#clip0_4418_4537)"> <path opacity="0.4" d="M14.79 6H9.21004C4.79004 6 4.79004 8.35 4.79004 10.42V12.21C4.79004 12.43 4.89004 12.63 5.06004 12.76C5.23004 12.89 5.46004 12.94 5.67004 12.88C6.12004 12.76 6.68004 12.7 7.35004 12.7C8.02004 12.7 8.16004 12.78 8.56004 13.08L9.47004 14.04C10.12 14.74 11.05 15.14 12.01 15.14C12.97 15.14 13.89 14.74 14.55 14.04L15.46 13.08C15.86 12.78 16 12.7 16.67 12.7C17.34 12.7 17.9 12.76 18.35 12.88C18.56 12.94 18.78 12.89 18.96 12.76C19.13 12.63 19.23 12.42 19.23 12.21V10.42C19.21 8.35 19.21 6 14.79 6Z" fill="white"/> <path d="M14.2799 4.95C14.0199 5.21 13.5899 5.21 13.3299 4.95L12.6799 4.3V9.07C12.6799 9.44 12.3799 9.75 11.9999 9.75C11.6199 9.75 11.3199 9.45 11.3199 9.07V4.3L10.6699 4.95C10.4099 5.21 9.9799 5.21 9.7199 4.95C9.4599 4.69 9.4599 4.26 9.7199 4L11.5199 2.2C11.5299 2.19 11.5299 2.19 11.5399 2.19C11.5999 2.14 11.6599 2.09 11.7399 2.06C11.8299 2.02 11.9099 2 11.9999 2C12.0899 2 12.1699 2.02 12.2599 2.05C12.3399 2.08 12.4199 2.13 12.4799 2.2L14.2799 4C14.5399 4.26 14.5399 4.69 14.2799 4.95Z" fill="white"/> <path d="M18.6902 11.5308C18.1202 11.3808 17.4502 11.3008 16.6502 11.3008C15.5402 11.3008 15.1302 11.5708 14.5602 12.0008C14.5302 12.0208 14.5002 12.0508 14.4702 12.0808L13.5202 13.0908C12.7202 13.9308 11.2802 13.9408 10.4802 13.0808L9.53018 12.0808C9.50017 12.0508 9.47018 12.0208 9.44018 12.0008C8.87017 11.5708 8.46018 11.3008 7.35018 11.3008C6.55018 11.3008 5.88018 11.3808 5.31018 11.5308C2.93018 12.1708 2.93018 14.0608 2.93018 15.7208V16.6508C2.93018 19.1608 2.93018 22.0008 8.28018 22.0008H15.7202C19.2702 22.0008 21.0702 20.2008 21.0702 16.6508V15.7208C21.0702 14.0608 21.0702 12.1708 18.6902 11.5308ZM14.3302 18.4008H9.67018C9.29018 18.4008 8.98018 18.0908 8.98018 17.7008C8.98018 17.3108 9.29018 17.0008 9.67018 17.0008H14.3302C14.7102 17.0008 15.0202 17.3108 15.0202 17.7008C15.0202 18.0908 14.7102 18.4008 14.3302 18.4008Z" fill="white"/> <path opacity="0.4" d="M15.02 17.7C15.02 18.09 14.71 18.4 14.33 18.4H9.66998C9.28998 18.4 8.97998 18.09 8.97998 17.7C8.97998 17.31 9.28998 17 9.66998 17H14.33C14.71 17 15.02 17.31 15.02 17.7Z" fill="white"/> </g> <defs> <clipPath id="clip0_4418_4537"> <rect width="24" height="24" fill="white"/> </clipPath> </defs> </svg>
