<svg width="24" height="24" viewBox="0 0 24 24" fill="none" xmlns="http://www.w3.org/2000/svg"> <g clip-path="url(#clip0_4482_13229)"> <path opacity="0.4" d="M2.78956 16.6503C2.78956 16.6503 2.68956 16.6503 2.64956 16.6403C2.40956 16.5903 2.19956 16.4303 2.09956 16.2003C0.379556 12.1403 1.28956 7.50031 4.39956 4.40031C8.21956 0.570306 14.3196 0.190306 18.5896 3.51031C18.9196 3.76031 18.9796 4.24031 18.7196 4.56031C18.4696 4.89031 17.9896 4.94031 17.6696 4.69031C13.9996 1.83031 8.74956 2.16031 5.45956 5.45031C3.04956 7.85031 2.18956 11.3203 3.09956 14.5303L3.97956 13.6503C4.26956 13.3603 4.74956 13.3603 5.03956 13.6503C5.32956 13.9403 5.32956 14.4203 5.03956 14.7103L3.31956 16.4303C3.17956 16.5703 2.98956 16.6503 2.78956 16.6503Z" fill="white"/> <g opacity="0.4"> <path d="M12.0001 22.7503C9.68012 22.7503 7.36012 22.0103 5.41012 20.4903C5.08012 20.2403 5.02012 19.7703 5.28012 19.4403C5.53012 19.1103 6.00012 19.0503 6.33012 19.3103C10.0001 22.1603 15.2501 21.8403 18.5401 18.5503C20.9401 16.1503 21.8101 12.6803 20.8901 9.47028L20.0101 10.3503C19.7201 10.6403 19.2401 10.6403 18.9501 10.3503C18.6601 10.0603 18.6601 9.58028 18.9501 9.29028L20.6701 7.58028C20.8501 7.40028 21.1001 7.33028 21.3401 7.37028C21.5801 7.42028 21.7901 7.58028 21.8901 7.81028C23.6101 11.8703 22.7101 16.5003 19.6001 19.6103C17.5201 21.6903 14.7601 22.7503 12.0001 22.7503Z" fill="white"/> </g> <path d="M9.67035 15.0796C9.48035 15.0796 9.29035 15.0096 9.14035 14.8596C8.85035 14.5696 8.85035 14.0896 9.14035 13.7996L13.8104 9.12961C14.1004 8.83961 14.5804 8.83961 14.8704 9.12961C15.1604 9.41961 15.1604 9.89961 14.8704 10.1896L10.2004 14.8596C10.0504 15.0096 9.86035 15.0796 9.67035 15.0796Z" fill="white"/> <path d="M15.3801 14.3597C15.3801 14.6397 15.2701 14.8897 15.0801 15.0897C14.8901 15.2797 14.6301 15.3897 14.3601 15.3897C14.0601 15.4197 13.8201 15.2797 13.6301 15.0797C13.4401 14.8897 13.3301 14.6297 13.3301 14.3597C13.3301 14.0897 13.4401 13.8197 13.6301 13.6297C13.8101 13.4397 14.0701 13.3297 14.3501 13.3297C14.6301 13.2897 14.8901 13.4397 15.0801 13.6297C15.2801 13.8297 15.3801 14.0797 15.3801 14.3597Z" fill="white"/> <path d="M10.6701 9.64035C10.6701 9.92035 10.5601 10.1804 10.3701 10.3704C10.1801 10.5604 9.92012 10.6704 9.64012 10.6704C9.36012 10.6704 9.11012 10.5604 8.91012 10.3604C8.72012 10.1704 8.62012 9.91035 8.62012 9.64035C8.62012 9.37035 8.73012 9.10035 8.92012 8.91035C9.32012 8.51035 9.97012 8.51035 10.3701 8.91035C10.5701 9.11035 10.6701 9.37035 10.6701 9.64035Z" fill="white"/> </g> <defs> <clipPath id="clip0_4482_13229"> <rect width="24" height="24" fill="white"/> </clipPath> </defs> </svg>
