<svg width="24" height="24" viewBox="0 0 24 24" fill="none" xmlns="http://www.w3.org/2000/svg"> <g clip-path="url(#clip0_2085_387532)"> <path d="M4.54004 7.17969C4.54004 6.76547 4.87583 6.42969 5.29004 6.42969C5.70425 6.42969 6.04004 6.76547 6.04004 7.17969C6.04004 8.61572 6.5123 9.51621 7.17188 10.123C7.85893 10.7551 8.82074 11.1331 9.89551 11.3623C10.9676 11.5909 12.0668 11.6561 12.999 11.7207C13.4502 11.752 13.8867 11.7843 14.2354 11.8428C14.4102 11.8721 14.5935 11.9128 14.7607 11.9756C14.9144 12.0333 15.1399 12.1404 15.3086 12.3545L15.3779 12.4189C15.4825 12.5011 15.6963 12.6303 16.0518 12.7568C16.4936 12.914 17.0656 13.0348 17.6973 13.0605C18.9644 13.1122 20.3842 12.7841 21.4824 11.7373C21.7822 11.4516 22.2571 11.4621 22.543 11.7617C22.8287 12.0615 22.8172 12.5364 22.5176 12.8223C21.046 14.2251 19.1859 14.6219 17.6357 14.5586C16.8589 14.5269 16.1379 14.3795 15.5488 14.1699C15.0353 13.9872 14.5307 13.7231 14.21 13.373C14.1669 13.3594 14.096 13.3405 13.9873 13.3223C13.7233 13.278 13.3615 13.2491 12.8955 13.2168C11.9931 13.1542 10.7786 13.0842 9.58203 12.8291C8.38843 12.5746 7.1262 12.1197 6.15625 11.2275C5.15864 10.3097 4.54004 8.99365 4.54004 7.17969Z" fill="white"/> <path d="M2.12582 8.75387C2.5377 8.79571 2.83728 9.16326 2.79574 9.57516C2.68514 10.6671 2.77835 11.5045 3.06527 12.1416C3.34142 12.7547 3.8295 13.2549 4.66976 13.625C5.53159 14.0045 6.75796 14.2429 8.46468 14.292C10.165 14.3408 12.2971 14.2011 14.9432 13.8564C15.3539 13.8029 15.7304 14.0922 15.784 14.5029C15.8375 14.9136 15.5473 15.2902 15.1366 15.3437C12.4482 15.6939 10.2306 15.844 8.42172 15.792C6.61917 15.7401 5.17592 15.4871 4.06527 14.998C2.93304 14.4993 2.14533 13.753 1.69711 12.7578C1.25972 11.7866 1.17922 10.6527 1.30355 9.42477C1.3453 9.01267 1.71371 8.71213 2.12582 8.75387Z" fill="white"/> <path d="M14.6042 11.9897C15.0182 12.0033 15.3433 12.3502 15.3298 12.7641C15.3157 13.1933 15.504 13.6434 15.9265 14.101C16.351 14.5607 16.9734 14.9814 17.7019 15.3188C18.4263 15.6542 19.2216 15.8916 19.9617 16.0033C20.7129 16.1167 21.3492 16.0921 21.7829 15.9613C22.1795 15.8417 22.5988 16.0667 22.7185 16.4633C22.8379 16.8597 22.613 17.2782 22.2165 17.3979C21.4904 17.6169 20.6082 17.6182 19.737 17.4867C18.8545 17.3535 17.9228 17.0745 17.071 16.6801C16.2234 16.2875 15.4197 15.7638 14.824 15.1186C14.2262 14.4712 13.8 13.6559 13.8308 12.7152C13.8444 12.3014 14.1904 11.9763 14.6042 11.9897Z" fill="white"/> <path d="M9.19786 9.85423C9.25612 9.44418 9.63544 9.15929 10.0455 9.21751L13.2857 9.67747C13.6957 9.73585 13.9807 10.1151 13.9225 10.5251C13.8642 10.9352 13.4849 11.22 13.0748 11.1618L9.83457 10.7019C9.42452 10.6436 9.13964 10.2643 9.19786 9.85423Z" fill="white"/> <path opacity="0.4" d="M19.9697 9.95996C19.9695 11.4011 18.8015 12.5691 17.3604 12.5693C15.919 12.5693 14.7502 11.4013 14.75 9.95996C14.75 8.5185 15.9189 7.34961 17.3604 7.34961C18.8017 7.3498 19.9697 8.51862 19.9697 9.95996Z" fill="white"/> </g> <defs> <clipPath id="clip0_2085_387532"> <rect width="24" height="24" fill="white"/> </clipPath> </defs> </svg>
