<svg width="24" height="24" viewBox="0 0 24 24" fill="none" xmlns="http://www.w3.org/2000/svg"> <g clip-path="url(#clip0_4482_13233)"> <path opacity="0.4" d="M12 1.25C6.07 1.25 1.25 6.07 1.25 12C1.25 16.4 3.89 20.32 7.97 21.97C8.06 22.01 8.16 22.02 8.25 22.02C8.55 22.02 8.83 21.84 8.95 21.55C9.11 21.17 8.92 20.73 8.54 20.57C5.03 19.15 2.76 15.78 2.76 11.99C2.75 6.9 6.9 2.75 12 2.75C17.1 2.75 21.25 6.9 21.25 12C21.25 12.41 21.59 12.75 22 12.75C22.41 12.75 22.75 12.41 22.75 12C22.75 6.07 17.93 1.25 12 1.25Z" fill="white"/> <path d="M21.1595 15.31C21.0695 15.27 20.9695 15.25 20.8695 15.25H17.7095C17.2995 15.25 16.9595 15.59 16.9595 16C16.9595 16.41 17.2995 16.75 17.7095 16.75H19.0595L16.3495 19.46L14.6195 17.73C14.3395 17.45 13.8395 17.45 13.5595 17.73L11.2995 19.99C11.0095 20.28 11.0095 20.76 11.2995 21.05C11.5895 21.34 12.0695 21.34 12.3595 21.05L14.0895 19.32L15.8195 21.05C15.9695 21.2 16.1595 21.27 16.3495 21.27C16.5395 21.27 16.7295 21.2 16.8795 21.05L20.1195 17.81V19.16C20.1195 19.57 20.4595 19.91 20.8695 19.91C21.2795 19.91 21.6195 19.57 21.6195 19.16V16C21.6195 15.9 21.5995 15.81 21.5595 15.71C21.4795 15.53 21.3395 15.38 21.1495 15.3L21.1595 15.31Z" fill="white"/> <path d="M11.25 15.0002C11.25 15.4102 11.59 15.7502 12 15.7502C12.41 15.7502 12.75 15.4102 12.75 15.0002V14.7302C13.86 14.6502 14.75 13.7302 14.75 12.5902C14.75 11.5902 14.08 10.7302 13.12 10.5002L11.25 10.0302C10.96 9.96023 10.76 9.70023 10.76 9.40023C10.76 9.04023 11.05 8.75023 11.41 8.75023H12.5C12.84 8.75023 13.03 9.00024 13.1 9.10023C13.32 9.45023 13.78 9.56023 14.13 9.34023C14.48 9.12023 14.59 8.66023 14.37 8.31024C14 7.72024 13.41 7.36023 12.75 7.28023V6.99023C12.75 6.58023 12.41 6.24023 12 6.24023C11.59 6.24023 11.25 6.58023 11.25 6.99023V7.26023C10.14 7.34023 9.25 8.26023 9.25 9.40023C9.25 10.3802 9.92 11.2402 10.87 11.4902L12.75 11.9602C13.03 12.0302 13.24 12.2902 13.24 12.5902C13.24 12.9502 12.95 13.2402 12.59 13.2402H11.5C11.16 13.2402 10.97 12.9902 10.91 12.8802C10.7 12.5302 10.23 12.4102 9.88 12.6302C9.53 12.8402 9.41 13.3102 9.63 13.6602C9.99 14.2602 10.59 14.6302 11.25 14.7102V15.0002Z" fill="white"/> </g> <defs> <clipPath id="clip0_4482_13233"> <rect width="24" height="24" fill="white"/> </clipPath> </defs> </svg>
