<svg width="24" height="24" viewBox="0 0 24 24" fill="none" xmlns="http://www.w3.org/2000/svg"> <path opacity="0.4" d="M12.1495 2.31348C12.2567 2.3242 12.3648 2.34516 12.4708 2.37891L12.627 2.43848L12.7608 2.50586C12.8822 2.57345 13.0085 2.66736 13.1221 2.78711L13.1241 2.78516L22.584 12.2354C22.9181 12.569 22.9187 13.1103 22.585 13.4443C22.2514 13.7783 21.7101 13.7788 21.376 13.4453L11.9893 4.06836L2.60357 13.4355C2.26934 13.7688 1.72804 13.7686 1.39459 13.4346C1.06105 13.1003 1.06229 12.5582 1.39654 12.2246L10.8555 2.78613V2.78516C10.9811 2.65958 11.1455 2.53053 11.3526 2.43848L11.5098 2.37891C11.6684 2.32845 11.8317 2.30469 11.9903 2.30469L12.1495 2.31348Z" fill="white"/> <path d="M2 20.8496L11.46 11.3896C11.6 11.2496 11.8 11.1696 12 11.1696C12.2 11.1696 12.39 11.2496 12.54 11.3896L22 20.8496" fill="white"/> <path d="M1.20993 21.1768C1.07764 20.8573 1.15097 20.4896 1.39547 20.2451L10.8554 10.7852C11.1623 10.4783 11.5826 10.3145 12 10.3145C12.4339 10.3145 12.8279 10.4893 13.123 10.7646C13.1302 10.7714 13.1376 10.7782 13.1445 10.7852L22.6045 20.2451C22.849 20.4896 22.9223 20.8573 22.79 21.1768C22.6577 21.4962 22.3458 21.7051 22 21.7051L1.99997 21.7051C1.65415 21.7051 1.34227 21.4962 1.20993 21.1768ZM19.9355 19.9941L12 12.0586L4.06442 19.9941L19.9355 19.9941Z" fill="white"/> </svg>
