<svg width="24" height="24" viewBox="0 0 24 24" fill="none" xmlns="http://www.w3.org/2000/svg"> <path opacity="0.4" d="M11.1445 22V2C11.1445 1.5278 11.5278 1.14453 12 1.14453C12.4722 1.14453 12.8555 1.5278 12.8555 2V22C12.8555 22.4722 12.4722 22.8555 12 22.8555C11.5278 22.8555 11.1445 22.4722 11.1445 22Z" fill="white"/> <path d="M17.4377 17.3086L12 22.7462L6.56238 17.3086" fill="white"/> <path d="M5.77247 16.981C5.90482 16.6616 6.21665 16.4534 6.56244 16.4534L17.4377 16.4527C17.7835 16.4527 18.0953 16.6622 18.2276 16.9817C18.3596 17.3009 18.2867 17.6681 18.0426 17.9125L12.6046 23.3505C12.2708 23.6843 11.7294 23.6848 11.3955 23.3512L5.95753 17.9132C5.713 17.6687 5.64013 17.3005 5.77247 16.981ZM12.0004 21.5365L15.373 18.1639L8.62713 18.1632L12.0004 21.5365Z" fill="white"/> </svg>
