<svg width="24" height="24" viewBox="0 0 24 24" fill="none" xmlns="http://www.w3.org/2000/svg"> <g clip-path="url(#clip0_4482_12219)"> <path d="M11.9997 7.13023C16.0997 7.13023 18.7597 6.28023 19.7797 5.54023V4.93023C19.7797 3.31023 16.2997 1.99023 11.9997 1.99023C7.69973 1.99023 4.21973 3.31023 4.21973 4.93023V5.54023C5.23973 6.27023 7.89973 7.13023 11.9997 7.13023Z" fill="white"/> <g opacity="0.4"> <path d="M11.9997 8.63C9.05973 8.63 6.09973 8.16 4.21973 7.25V19.06C4.21973 20.68 4.99973 22 11.9997 22C18.9997 22 19.7797 20.68 19.7797 19.06V7.25C17.9097 8.16 14.9497 8.63 11.9997 8.63Z" fill="white"/> </g> <path d="M14.7497 14.25C14.4597 13.96 13.9797 13.96 13.6897 14.25L12.7497 15.19V12C12.7497 11.59 12.4097 11.25 11.9997 11.25C11.5897 11.25 11.2497 11.59 11.2497 12V15.19L10.3097 14.25C10.0197 13.96 9.53973 13.96 9.24973 14.25C8.95973 14.54 8.95973 15.02 9.24973 15.31L11.4697 17.53C11.5397 17.6 11.6197 17.65 11.7097 17.69C11.7997 17.73 11.8997 17.75 11.9997 17.75C12.0997 17.75 12.1997 17.73 12.2897 17.69C12.3797 17.65 12.4597 17.6 12.5297 17.53L14.7497 15.31C15.0397 15.02 15.0397 14.54 14.7497 14.25Z" fill="white"/> </g> <defs> <clipPath id="clip0_4482_12219"> <rect width="24" height="24" fill="white"/> </clipPath> </defs> </svg>
