<svg width="24" height="24" viewBox="0 0 24 24" fill="none" xmlns="http://www.w3.org/2000/svg"> <g clip-path="url(#clip0_4482_9509)"> <g opacity="0.4"> <path d="M22 6V16.89C22 18.84 20.6 20.47 18.75 20.82C18.51 20.87 18.26 20.89 18 20.89H6C5.74 20.89 5.49 20.87 5.25 20.82C3.4 20.47 2 18.84 2 16.89V6C2 3.79 3.79 2 6 2H18C20.21 2 22 3.79 22 6Z" fill="white"/> </g> <path d="M18.75 20.8201V22.0001C18.75 22.4101 18.41 22.7501 18 22.7501C17.59 22.7501 17.25 22.4101 17.25 22.0001V20.8901H18C18.26 20.8901 18.51 20.8701 18.75 20.8201Z" fill="white"/> <path d="M6.75 20.8901V22.0001C6.75 22.4101 6.41 22.7501 6 22.7501C5.59 22.7501 5.25 22.4101 5.25 22.0001V20.8201C5.49 20.8701 5.74 20.8901 6 20.8901H6.75Z" fill="white"/> <path d="M12.75 2V20.89H11.25V11.64H2V10.14H11.25V2H12.75Z" fill="white"/> <path d="M8.10965 14.97H5.88965C5.47965 14.97 5.13965 14.63 5.13965 14.22C5.13965 13.81 5.47965 13.47 5.88965 13.47H8.10965C8.51965 13.47 8.85965 13.81 8.85965 14.22C8.85965 14.63 8.51965 14.97 8.10965 14.97Z" fill="white"/> </g> <defs> <clipPath id="clip0_4482_9509"> <rect width="24" height="24" fill="white"/> </clipPath> </defs> </svg>
