<svg width="24" height="24" viewBox="0 0 24 24" fill="none" xmlns="http://www.w3.org/2000/svg"> <g clip-path="url(#clip0_4482_9512)"> <g opacity="0.4"> <path d="M22 6V16.89C22 18.47 21.08 19.84 19.75 20.48C19.29 20.71 18.78 20.85 18.25 20.88C18.17 20.89 18.08 20.89 18 20.89H6C5.92 20.89 5.83 20.89 5.75 20.88C5.22 20.85 4.71 20.71 4.25 20.48C2.92 19.84 2 18.47 2 16.89V6C2 3.79 3.79 2 6 2H18C20.21 2 22 3.79 22 6Z" fill="white"/> </g> <path d="M22 10.1399H2V11.6399H22V10.1399Z" fill="white"/> <path d="M19.75 20.48V22C19.75 22.41 19.41 22.75 19 22.75C18.59 22.75 18.25 22.41 18.25 22V20.88C18.78 20.85 19.29 20.71 19.75 20.48Z" fill="white"/> <path d="M5.75 20.88V22C5.75 22.41 5.41 22.75 5 22.75C4.59 22.75 4.25 22.41 4.25 22V20.48C4.71 20.71 5.22 20.85 5.75 20.88Z" fill="white"/> <path d="M14.2203 7.18994H9.78027C9.37027 7.18994 9.03027 6.84994 9.03027 6.43994C9.03027 6.02994 9.37027 5.68994 9.78027 5.68994H14.2203C14.6303 5.68994 14.9703 6.02994 14.9703 6.43994C14.9703 6.84994 14.6303 7.18994 14.2203 7.18994Z" fill="white"/> <path d="M14.2203 14.97H9.78027C9.37027 14.97 9.03027 14.63 9.03027 14.22C9.03027 13.81 9.37027 13.47 9.78027 13.47H14.2203C14.6303 13.47 14.9703 13.81 14.9703 14.22C14.9703 14.63 14.6303 14.97 14.2203 14.97Z" fill="white"/> </g> <defs> <clipPath id="clip0_4482_9512"> <rect width="24" height="24" fill="white"/> </clipPath> </defs> </svg>
