<svg width="24" height="24" viewBox="0 0 24 24" fill="none" xmlns="http://www.w3.org/2000/svg"> <g clip-path="url(#clip0_4482_8997)"> <path d="M10.3495 12H7.82953C7.51953 12 7.26953 11.75 7.26953 11.44V8.11005C7.26953 7.80005 7.51953 7.55005 7.82953 7.55005H10.3495" fill="white"/> <path d="M7.27957 10.53H5.05957C4.64957 10.53 4.30957 10.19 4.30957 9.78003C4.30957 9.37003 4.64957 9.03003 5.05957 9.03003H7.27957C7.68957 9.03003 8.02957 9.37003 8.02957 9.78003C8.02957 10.19 7.68957 10.53 7.27957 10.53Z" fill="white"/> <g opacity="0.4"> <path d="M17 2H7C4.23858 2 2 4.23858 2 7V17C2 19.7614 4.23858 22 7 22H17C19.7614 22 22 19.7614 22 17V7C22 4.23858 19.7614 2 17 2Z" fill="white"/> </g> <path d="M16.1696 6.43994H12.2796C11.0496 6.43994 10.0596 7.42994 10.0596 8.65994V10.8799C10.0596 12.1099 11.0496 13.0999 12.2796 13.0999H16.1696C17.3996 13.0999 18.3896 12.1099 18.3896 10.8799V8.65994C18.3896 7.42994 17.3996 6.43994 16.1696 6.43994ZM15.6096 10.5199H13.3896C12.9796 10.5199 12.6396 10.1799 12.6396 9.76994C12.6396 9.35994 12.9796 9.01994 13.3896 9.01994H15.6096C16.0196 9.01994 16.3596 9.35994 16.3596 9.76994C16.3596 10.1799 16.0196 10.5199 15.6096 10.5199Z" fill="white"/> <path d="M15.9998 15.75H13.6898C12.1198 15.75 10.8398 14.47 10.8398 12.9V11C10.8398 10.59 11.1798 10.25 11.5898 10.25C11.9998 10.25 12.3398 10.59 12.3398 11V12.9C12.3398 13.64 12.9398 14.25 13.6898 14.25H15.9998C16.4098 14.25 16.7498 14.59 16.7498 15C16.7498 15.41 16.4098 15.75 15.9998 15.75Z" fill="white"/> <path d="M17.2202 12.8501L18.0002 16.7101C18.1002 17.1901 17.9702 17.6901 17.6602 18.0701C17.3502 18.4501 16.8802 18.6701 16.4002 18.6701C15.6202 18.6701 14.9502 18.1201 14.8002 17.3601L13.9502 13.1201L17.2302 12.8601L17.2202 12.8501Z" fill="white"/> </g> <defs> <clipPath id="clip0_4482_8997"> <rect width="24" height="24" fill="white"/> </clipPath> </defs> </svg>
