<svg width="24" height="24" viewBox="0 0 24 24" fill="none" xmlns="http://www.w3.org/2000/svg"> <g clip-path="url(#clip0_2085_393042)"> <path d="M20.53 6.57016C20.34 6.57016 20.15 6.50016 20 6.35016L17.65 4.00016C17.36 3.71016 17.36 3.23016 17.65 2.94016C17.94 2.65016 18.42 2.65016 18.71 2.94016L21.06 5.29016C21.35 5.58016 21.35 6.06016 21.06 6.35016C20.91 6.50016 20.72 6.57016 20.53 6.57016Z" fill="white"/> <path d="M18.48 4.52016C18.29 4.52016 18.1 4.45016 17.95 4.30016L17.65 4.00016C17.36 3.71016 17.36 3.23016 17.65 2.94016C17.94 2.65016 18.42 2.65016 18.71 2.94016L19.01 3.24016C19.3 3.53016 19.3 4.01016 19.01 4.30016C18.86 4.45016 18.67 4.52016 18.48 4.52016Z" fill="white"/> <path d="M18 11.93L17.9 12.4L16.89 16.98L15.95 21.22C15.85 21.67 15.44 22 14.97 22H6.54C6.07 22 5.66 21.67 5.56 21.22L4.63 16.98H7.27C7.82 16.98 8.27001 16.53 8.27001 15.98V10.71H17.02C17.66 10.71 18.13 11.31 18 11.93Z" fill="white"/> <path d="M21.5 4.2598L20.24 5.5298L18.48 3.7698L19.74 2.5098C20.02 2.2298 20.47 2.2298 20.75 2.5098L21.5 3.2598C21.78 3.5398 21.78 3.9898 21.5 4.2698V4.2598Z" fill="white"/> <g opacity="0.4"> <path d="M20.24 5.52953L18.81 6.94953C18.07 7.68953 17.5 8.60953 17.17 9.60953C17.04 9.99953 16.86 10.3695 16.64 10.7095H9.71997L10.76 9.67953L12.4 8.02953C12.95 7.48953 13.66 7.07953 14.39 6.82953C15.4 6.49953 16.31 5.92953 17.05 5.18953L18.48 3.76953L20.24 5.52953Z" fill="white"/> </g> <g opacity="0.4"> <path d="M9.51 8.21973C8.82 8.21973 8.27 8.77973 8.27 9.46973V15.9797C8.27 16.5297 7.82 16.9797 7.27 16.9797H3C2.45 16.9797 2 16.5297 2 15.9797V9.46973C2 8.77973 2.56 8.21973 3.24 8.21973H9.51Z" fill="white"/> </g> <path d="M10.76 9.46973V9.67973L9.72002 10.7097H8.27002V9.46973C8.27002 8.77973 8.82002 8.21973 9.51002 8.21973C10.2 8.21973 10.76 8.77973 10.76 9.46973Z" fill="white"/> <g opacity="0.4"> <path d="M19.51 15.7304C19.51 16.4204 18.95 16.9804 18.26 16.9804H16.89L17.9 12.4004C19.5 15.4004 19.51 15.3204 19.51 15.7304Z" fill="white"/> </g> </g> <defs> <clipPath id="clip0_2085_393042"> <rect width="24" height="24" fill="white"/> </clipPath> </defs> </svg>
