<svg width="24" height="24" viewBox="0 0 24 24" fill="none" xmlns="http://www.w3.org/2000/svg"> <g clip-path="url(#clip0_2085_387539)"> <path d="M17.5496 6.36035C17.9638 6.36035 18.2996 6.69614 18.2996 7.11035C18.2996 7.52457 17.9638 7.86035 17.5496 7.86035H6.44995C6.03574 7.86035 5.69995 7.52457 5.69995 7.11035C5.69995 6.69614 6.03574 6.36035 6.44995 6.36035H17.5496Z" fill="white"/> <path d="M5.69995 11.0801V3.13965C5.69995 2.72543 6.03574 2.38965 6.44995 2.38965C6.86416 2.38965 7.19995 2.72543 7.19995 3.13965V11.0801C7.19972 11.4941 6.86402 11.8301 6.44995 11.8301C6.03588 11.8301 5.70018 11.4941 5.69995 11.0801Z" fill="white"/> <path d="M16.8 11.0801V3.13965C16.8 2.72543 17.1358 2.38965 17.55 2.38965C17.9643 2.38965 18.3 2.72543 18.3 3.13965V11.0801C18.2998 11.4941 17.9641 11.8301 17.55 11.8301C17.136 11.8301 16.8003 11.4941 16.8 11.0801Z" fill="white"/> <path d="M4.08008 6.36035C4.49426 6.36039 4.83008 6.69616 4.83008 7.11035C4.83008 7.52454 4.49426 7.86031 4.08008 7.86035H2C1.58579 7.86035 1.25 7.52457 1.25 7.11035C1.25 6.69614 1.58579 6.36035 2 6.36035H4.08008Z" fill="white"/> <path d="M22.0001 6.36035C22.4143 6.36039 22.7501 6.69616 22.7501 7.11035C22.7501 7.52454 22.4143 7.86031 22.0001 7.86035H19.92C19.5058 7.86035 19.17 7.52457 19.17 7.11035C19.17 6.69614 19.5058 6.36035 19.92 6.36035H22.0001Z" fill="white"/> <path d="M19.17 9.28027V4.9502C19.17 4.53598 19.5058 4.2002 19.92 4.2002C20.3343 4.2002 20.67 4.53598 20.67 4.9502V9.28027C20.67 9.69445 20.3342 10.0303 19.92 10.0303C19.5059 10.0303 19.1701 9.69445 19.17 9.28027Z" fill="white"/> <path d="M3.32996 9.28027V4.9502C3.32996 4.53598 3.66574 4.2002 4.07996 4.2002C4.49417 4.2002 4.82996 4.53598 4.82996 4.9502V9.28027C4.82991 9.69445 4.49414 10.0303 4.07996 10.0303C3.66577 10.0303 3.33 9.69445 3.32996 9.28027Z" fill="white"/> <g opacity="0.4"> <path d="M17.5496 16.1299C17.9638 16.1299 18.2996 16.4657 18.2996 16.8799C18.2996 17.2941 17.9638 17.6299 17.5496 17.6299H6.44995C6.03574 17.6299 5.69995 17.2941 5.69995 16.8799C5.69995 16.4657 6.03574 16.1299 6.44995 16.1299H17.5496Z" fill="white"/> <path d="M5.69995 20.8506V12.9102C5.69995 12.4959 6.03574 12.1602 6.44995 12.1602C6.86416 12.1602 7.19995 12.4959 7.19995 12.9102V20.8506C7.19972 21.2646 6.86402 21.6006 6.44995 21.6006C6.03588 21.6006 5.70018 21.2646 5.69995 20.8506Z" fill="white"/> <path d="M16.8 20.8506V12.9102C16.8 12.4959 17.1358 12.1602 17.55 12.1602C17.9643 12.1602 18.3 12.4959 18.3 12.9102V20.8506C18.2998 21.2646 17.9641 21.6006 17.55 21.6006C17.136 21.6006 16.8003 21.2646 16.8 20.8506Z" fill="white"/> <path d="M4.08008 16.1299C4.49426 16.1299 4.83008 16.4657 4.83008 16.8799C4.83008 17.2941 4.49426 17.6298 4.08008 17.6299H2C1.58579 17.6299 1.25 17.2941 1.25 16.8799C1.25 16.4657 1.58579 16.1299 2 16.1299H4.08008Z" fill="white"/> <path d="M22.0001 16.1299C22.4143 16.1299 22.7501 16.4657 22.7501 16.8799C22.7501 17.2941 22.4143 17.6298 22.0001 17.6299H19.92C19.5058 17.6299 19.17 17.2941 19.17 16.8799C19.17 16.4657 19.5058 16.1299 19.92 16.1299H22.0001Z" fill="white"/> <path d="M19.17 19.04V14.7197C19.17 14.3055 19.5058 13.9697 19.92 13.9697C20.3343 13.9697 20.67 14.3055 20.67 14.7197V19.04C20.6699 19.4541 20.3342 19.79 19.92 19.79C19.5059 19.79 19.1702 19.4541 19.17 19.04Z" fill="white"/> <path d="M3.32996 19.04V14.7197C3.32996 14.3055 3.66574 13.9697 4.07996 13.9697C4.49417 13.9697 4.82996 14.3055 4.82996 14.7197V19.04C4.82979 19.4541 4.49407 19.79 4.07996 19.79C3.66585 19.79 3.33012 19.4541 3.32996 19.04Z" fill="white"/> </g> </g> <defs> <clipPath id="clip0_2085_387539"> <rect width="24" height="24" fill="white"/> </clipPath> </defs> </svg>
