<svg width="24" height="24" viewBox="0 0 24 24" fill="none" xmlns="http://www.w3.org/2000/svg"> <g clip-path="url(#clip0_2085_387538)"> <path d="M10.62 19.9198L9.76004 20.7898C9.03004 21.5198 7.86004 21.5198 7.14004 20.7898L6.37004 20.0298L3.98004 17.6298L3.21004 16.8598C2.49004 16.1398 2.49004 14.9698 3.21004 14.2498L4.08004 13.3798C4.80004 12.6598 5.97004 12.6598 6.69004 13.3798L10.62 17.3098C11.35 18.0298 11.35 19.1998 10.62 19.9198Z" fill="white"/> <path d="M20.79 9.74961L19.93 10.6196C19.2 11.3396 18.03 11.3396 17.31 10.6196L16.82 10.1396L13.87 7.17961L13.38 6.68961C12.66 5.96961 12.66 4.79961 13.38 4.07961L14.25 3.20961C14.97 2.47961 16.14 2.47961 16.86 3.20961L20.79 7.13961C21.52 7.85961 21.52 9.02961 20.79 9.74961Z" fill="white"/> <path opacity="0.4" d="M6.37005 20.0299L4.98005 21.4099C4.37005 22.0299 3.37005 22.1899 2.68005 21.6699C1.84005 21.0299 1.78005 19.8299 2.50005 19.1099L3.98005 17.6299L6.37005 20.0299Z" fill="white"/> <path opacity="0.4" d="M21.5 4.89039L20.02 6.37039L17.63 3.98039L19.02 2.59039C19.63 1.97039 20.63 1.81039 21.32 2.33039C22.16 2.97039 22.22 4.17039 21.5 4.89039Z" fill="white"/> <path opacity="0.4" d="M16.8201 10.1397L13.2101 12.8397C13.0701 12.9497 12.9501 13.0697 12.8401 13.2097L10.1301 16.8197L7.18005 13.8697L10.7901 11.1597C10.9301 11.0497 11.0501 10.9297 11.1601 10.7897L13.8701 7.17969L16.8201 10.1397Z" fill="white"/> </g> <defs> <clipPath id="clip0_2085_387538"> <rect width="24" height="24" fill="white"/> </clipPath> </defs> </svg>
