<svg width="24" height="24" viewBox="0 0 24 24" fill="none" xmlns="http://www.w3.org/2000/svg"> <g clip-path="url(#clip0_4482_7948)"> <path d="M10.0995 9.07L12.3995 6.77C12.6095 6.56 12.8895 6.44 13.1895 6.44C13.4895 6.44 13.7695 6.56 13.9795 6.77L15.0095 7.8C15.4395 8.23 15.4395 8.94 15.0095 9.37L12.7095 11.67C12.4995 11.88 12.2195 12 11.9195 12H10.0495C9.97953 12 9.90953 11.97 9.84953 11.92C9.78953 11.87 9.76953 11.8 9.76953 11.72V9.85C9.76953 9.56 9.88953 9.27 10.0995 9.06V9.07Z" fill="white"/> <g opacity="0.4"> <path d="M9.32 19.78L11.22 21.68C11.65 22.11 12.36 22.11 12.79 21.68L14.69 19.78H17.01C19.77 19.78 22.01 17.54 22.01 14.78V7C22.01 4.24 19.77 2 17.01 2H7C4.24 2 2 4.24 2 7V14.78C2 17.54 4.24 19.78 7 19.78H9.32Z" fill="white"/> </g> <path d="M16.4396 16.08H7.55957C7.14957 16.08 6.80957 15.74 6.80957 15.33C6.80957 14.92 7.14957 14.58 7.55957 14.58H16.4496C16.8596 14.58 17.1996 14.92 17.1996 15.33C17.1996 15.74 16.8596 16.08 16.4496 16.08H16.4396Z" fill="white"/> </g> <defs> <clipPath id="clip0_4482_7948"> <rect width="24" height="24" fill="white"/> </clipPath> </defs> </svg>
