<svg width="24" height="24" viewBox="0 0 24 24" fill="none" xmlns="http://www.w3.org/2000/svg"> <g clip-path="url(#clip0_4482_1145)"> <path opacity="0.4" d="M19.2 20.92L16.86 19.52C16.34 19.21 15.6799 19.24 15.1899 19.61L12.9 21.33C12.37 21.73 11.63 21.73 11.1 21.33L8.81006 19.61C8.32006 19.24 7.66001 19.21 7.14001 19.52L4.80005 20.92C4.01005 21.39 3 20.82 3 19.9V7C3 4.25 5.25 2 8 2H16C18.75 2 21 4.25 21 7V19.9C21 20.83 19.99 21.4 19.2 20.92Z" fill="white"/> <path d="M12.9399 14.12L15.22 14.41C15.39 14.43 15.52 14.31 15.49 14.13L15.13 11.86C15.09 11.6 14.97 11.36 14.78 11.18L11.5699 8.08997C10.8499 7.39997 9.7 7.40997 9.01 8.12997C8.32 8.84997 8.33003 9.99997 9.05003 10.69L12.26 13.78C12.44 13.97 12.6799 14.09 12.9399 14.12Z" fill="white"/> </g> <defs> <clipPath id="clip0_4482_1145"> <rect width="24" height="24" fill="white"/> </clipPath> </defs> </svg>
