<svg width="24" height="24" viewBox="0 0 24 24" fill="none" xmlns="http://www.w3.org/2000/svg"> <g clip-path="url(#clip0_4482_966)"> <path opacity="0.4" d="M7 4.5C7 4.76 6.96 5.02 6.89 5.25C6.76 5.64 6.55 5.99 6.27 6.27C5.99 6.55 5.64 6.76 5.25 6.89C5.02 6.96 4.76 7 4.5 7C4.24 7 3.98 6.96 3.75 6.89C2.73 6.56 2 5.62 2 4.5C2 3.81 2.28 3.18 2.73 2.73C3.18 2.28 3.81 2 4.5 2C5.19 2 5.82 2.28 6.27 2.73C6.55 3.01 6.76 3.36 6.89 3.75C6.96 3.98 7 4.24 7 4.5Z" fill="white"/> <path opacity="0.4" d="M22 4.5C22 5.19 21.72 5.82 21.27 6.27C20.99 6.55 20.64 6.76 20.25 6.89C20.02 6.96 19.76 7 19.5 7C19.24 7 18.98 6.96 18.75 6.89C17.97 6.64 17.36 6.03 17.11 5.25C17.04 5.02 17 4.76 17 4.5C17 4.24 17.04 3.98 17.11 3.75C17.24 3.36 17.45 3.01 17.73 2.73C18.18 2.28 18.81 2 19.5 2C20.19 2 20.82 2.28 21.27 2.73C21.72 3.18 22 3.81 22 4.5Z" fill="white"/> <path opacity="0.4" d="M7 19.5C7 19.76 6.96 20.02 6.89 20.25C6.76 20.64 6.55 20.99 6.27 21.27C5.82 21.72 5.19 22 4.5 22C3.12 22 2 20.88 2 19.5C2 18.81 2.28 18.18 2.73 17.73C3.01 17.45 3.36 17.24 3.75 17.11C3.98 17.04 4.24 17 4.5 17C4.76 17 5.02 17.04 5.25 17.11C5.64 17.24 5.99 17.45 6.27 17.73C6.55 18.01 6.76 18.36 6.89 18.75C6.96 18.98 7 19.24 7 19.5Z" fill="white"/> <path d="M5.25 6.89014V17.1101C5.02 17.0401 4.76 17.0001 4.5 17.0001C4.24 17.0001 3.98 17.0401 3.75 17.1101V6.89014C3.98 6.96014 4.24 7.00014 4.5 7.00014C4.76 7.00014 5.02 6.96014 5.25 6.89014Z" fill="white"/> <path d="M20.25 6.89014V11.0001C20.25 11.4101 19.91 11.7501 19.5 11.7501C19.09 11.7501 18.75 11.4101 18.75 11.0001V6.89014C18.98 6.96014 19.24 7.00014 19.5 7.00014C19.76 7.00014 20.02 6.96014 20.25 6.89014Z" fill="white"/> <path d="M17 4.5C17 4.76 17.04 5.02 17.11 5.25H6.89001C6.96001 5.02 7.00002 4.76 7.00002 4.5C7.00002 4.24 6.96001 3.98 6.89001 3.75H17.11C17.04 3.98 17 4.24 17 4.5Z" fill="white"/> <path d="M11.75 19.5C11.75 19.91 11.41 20.25 11 20.25H6.89001C6.96001 20.02 7.00002 19.76 7.00002 19.5C7.00002 19.24 6.96001 18.98 6.89001 18.75H11C11.41 18.75 11.75 19.09 11.75 19.5Z" fill="white"/> <path opacity="0.4" d="M16.35 21.5202L14.48 21.7902C14.31 21.8102 14.18 21.6902 14.21 21.5202L14.47 19.6602C14.5 19.4402 14.6 19.2402 14.76 19.0802L19.19 14.6502C19.79 14.0502 20.75 14.0502 21.35 14.6502C21.95 15.2502 21.95 16.2102 21.35 16.8102L16.92 21.2402C16.77 21.3902 16.56 21.4902 16.35 21.5202Z" fill="white"/> </g> <defs> <clipPath id="clip0_4482_966"> <rect width="24" height="24" fill="white"/> </clipPath> </defs> </svg>
