<svg width="24" height="24" viewBox="0 0 24 24" fill="none" xmlns="http://www.w3.org/2000/svg">
<path fill-rule="evenodd" clip-rule="evenodd" d="M11.045 21.9728L17.6569 20.4011C18.1456 20.285 18.4734 19.8211 18.4235 19.3164L18.0939 15.9872C18.0405 15.4473 18.2137 14.9141 18.5183 14.4673C20.4926 11.5716 20.323 8.18918 19.0111 5.53854C18.0104 3.51652 15.7801 2 13.0067 2C9.29363 2 5.15008 4.60959 5.368 9.0219C5.40272 9.7248 5.38524 10.4393 5.16495 11.1069L4.16826 14.1277C4.07734 14.4032 4.2393 14.6981 4.52064 14.7691L5.24346 14.9517C5.68895 15.0642 6.00148 15.4686 6.00148 15.9325V17.1652C6.00148 18.2819 6.89757 19.1872 8.00296 19.1872H9.50407L9.8287 21.1549C9.92383 21.7315 10.4818 22.1067 11.045 21.9728ZM12.8503 7.04217C12.7355 7.13882 12.5614 7.13884 12.4466 7.04225C11.8409 6.53263 10.9694 6.44518 10.2969 6.99998C9.54541 7.62002 9.4396 8.6567 10.0298 9.39003C10.4461 9.90737 11.5783 10.9116 12.2091 11.4582C12.4588 11.6746 12.8381 11.6746 13.0878 11.4582C13.7186 10.9116 14.8508 9.90737 15.2671 9.39003C15.8573 8.6567 15.7644 7.6135 15 6.99998C14.3161 6.45112 13.4539 6.53383 12.8503 7.04217Z" fill="black"/>
</svg>
