<svg width="24" height="24" viewBox="0 0 24 24" fill="none" xmlns="http://www.w3.org/2000/svg"> <g clip-path="url(#clip0_4482_7949)"> <path d="M2 17.56C4.45 17.56 6.44 19.55 6.44 22C6.44 19.55 8.43 17.56 10.88 17.56C8.42 17.56 6.44 15.57 6.44 13.12C6.44 15.58 4.45 17.56 2 17.56Z" fill="white"/> <g opacity="0.4"> <path d="M13.1104 14.22C15.5604 14.22 17.5504 16.21 17.5504 18.66C17.5504 16.21 19.5404 14.22 21.9904 14.22C19.5404 14.22 17.5504 12.23 17.5504 9.78003C17.5504 12.23 15.5604 14.22 13.1104 14.22Z" fill="white"/> </g> <path d="M6.44043 6.44C8.89043 6.44 10.8804 8.43 10.8804 10.88C10.8804 8.43 12.8704 6.44 15.3204 6.44C12.8704 6.44 10.8804 4.45 10.8804 2C10.8804 4.45 8.89043 6.44 6.44043 6.44Z" fill="white"/> </g> <defs> <clipPath id="clip0_4482_7949"> <rect width="24" height="24" fill="white"/> </clipPath> </defs> </svg>
