<svg width="24" height="24" viewBox="0 0 24 24" fill="none" xmlns="http://www.w3.org/2000/svg"> <g clip-path="url(#clip0_3247_9615)"> <path d="M2.01675 22.7662C1.59675 22.7662 1.26675 22.4262 1.26675 22.0062C1.32675 16.1162 6.13675 11.3662 12.0167 11.3662C12.0567 11.3662 12.0867 11.3662 12.1267 11.3662C12.5367 11.3662 12.8767 11.7062 12.8667 12.1262C12.8667 12.5362 12.5167 12.8662 12.1067 12.8662C12.0767 12.8662 12.0467 12.8662 12.0167 12.8662C6.95675 12.8662 2.81675 16.9562 2.76675 22.0262C2.76675 22.4362 2.42675 22.7662 2.01675 22.7662Z" fill="white"/> <path opacity="0.4" d="M12.1167 22.8665C12.0767 22.8665 12.0467 22.8665 12.0067 22.8665C10.4467 22.8465 8.94675 22.5065 7.54675 21.8465C7.16675 21.6665 7.00675 21.2265 7.18675 20.8465C7.36675 20.4666 7.80675 20.3065 8.18675 20.4865C9.38675 21.0565 10.6867 21.3466 12.0267 21.3566C17.1167 21.3666 21.3167 17.2965 21.3667 12.1965C21.3867 9.72655 20.4567 7.39655 18.7267 5.62655C16.9967 3.86655 14.6867 2.87655 12.2167 2.85655C7.88675 2.81655 4.05675 5.83655 3.10675 10.0565C3.01675 10.4565 2.61675 10.7165 2.20675 10.6265C1.80675 10.5365 1.54675 10.1366 1.63675 9.72655C2.74675 4.82655 7.20675 1.32655 12.2267 1.36655C15.0967 1.39655 17.7867 2.53655 19.7967 4.58655C21.8067 6.63655 22.8967 9.34655 22.8667 12.2165C22.8067 18.1065 17.9967 22.8665 12.1167 22.8665Z" fill="white"/> <path d="M10.1167 9.02637L13.9767 12.2864L10.2167 15.9664L10.1167 9.02637Z" fill="white"/> <path d="M10.2167 16.7164C10.1167 16.7164 10.0267 16.6964 9.92675 16.6564C9.64675 16.5464 9.46674 16.2764 9.46674 15.9764L9.36674 9.03641C9.36674 8.74641 9.52675 8.47641 9.79675 8.34641C10.0667 8.21641 10.3767 8.2664 10.5967 8.4464L14.4567 11.7064C14.6167 11.8464 14.7167 12.0364 14.7267 12.2564C14.7367 12.4764 14.6567 12.6764 14.5067 12.8164L10.7467 16.4964C10.5967 16.6464 10.4067 16.7164 10.2167 16.7164ZM10.8867 10.6664L10.9367 14.2164L12.8567 12.3364L10.8867 10.6664Z" fill="white"/> <path d="M13.1167 12.8762L12.1067 12.8662C11.6967 12.8662 11.3567 12.5262 11.3667 12.1062C11.3667 11.6962 11.7067 11.3662 12.1267 11.3662L13.1267 11.3762C13.5367 11.3762 13.8767 11.7162 13.8667 12.1362C13.8667 12.5462 13.5267 12.8762 13.1167 12.8762Z" fill="white"/> </g> <defs> <clipPath id="clip0_3247_9615"> <rect width="24" height="24" fill="white"/> </clipPath> </defs> </svg>
