<svg width="24" height="24" viewBox="0 0 24 24" fill="none" xmlns="http://www.w3.org/2000/svg"> <g clip-path="url(#clip0_4482_9845)"> <g opacity="0.4"> <path d="M22 6.67V6.73C21.98 7.63 21.52 8.46 20.78 8.96L17.76 11.01C17.14 11.44 16.4 11.67 15.63 11.67H8.37C7.61 11.67 6.87 11.44 6.24 11.02L3.22 8.96C2.48 8.46 2.02 7.63 2 6.75C2 6.7 2 6.64 2.01 6.59C2.09 4.01 4.14 2 6.67 2H17.33C18.58 2 19.75 2.49 20.63 3.37C21.51 4.25 22 5.42 22 6.67Z" fill="white"/> </g> <path d="M12.0001 16.2502C12.5101 16.2502 12.9201 15.8402 12.9201 15.3302C12.9201 14.8202 12.5101 14.4102 12.0001 14.4102C11.4901 14.4102 11.0801 14.8202 11.0801 15.3302C11.0801 15.8402 11.4901 16.2502 12.0001 16.2502Z" fill="white"/> <path d="M20.78 8.95998L17.76 11.01C17.14 11.44 16.4 11.67 15.63 11.67H12.75V13.05C13.71 13.37 14.42 14.27 14.42 15.34C14.42 16.67 13.34 17.76 12 17.76C10.66 17.76 9.58 16.68 9.58 15.34C9.58 14.27 10.28 13.37 11.25 13.05V11.67H8.37C7.61 11.67 6.87 11.44 6.24 11.02L3.22 8.95998C2.48 8.45998 2.02 7.62998 2 6.74998V16.65C2 19.6 4.4 22 7.35 22H16.65C19.6 22 22 19.6 22 16.65V6.72998C21.98 7.62998 21.52 8.45998 20.78 8.95998Z" fill="white"/> <path d="M12.7501 8.73002C13.7101 8.41002 14.4201 7.51002 14.4201 6.44002C14.4201 5.11002 13.3401 4.02002 12.0001 4.02002C10.6601 4.02002 9.58008 5.10002 9.58008 6.44002C9.58008 7.51002 10.2801 8.41002 11.2501 8.73002V11.67H12.7501V8.73002ZM11.0801 6.44002C11.0801 5.93002 11.4901 5.52002 12.0001 5.52002C12.5101 5.52002 12.9201 5.93002 12.9201 6.44002C12.9201 6.95002 12.5101 7.36002 12.0001 7.36002C11.4901 7.36002 11.0801 6.95002 11.0801 6.44002Z" fill="white"/> </g> <defs> <clipPath id="clip0_4482_9845"> <rect width="24" height="24" fill="white"/> </clipPath> </defs> </svg>
