<svg width="24" height="24" viewBox="0 0 24 24" fill="none" xmlns="http://www.w3.org/2000/svg"> <path d="M2.77002 15.8496H8.15002V21.2296" fill="white"/> <path d="M8.14987 14.9941C8.62207 14.9941 9.00534 15.3774 9.00534 15.8496V21.2295C9.00534 21.5753 8.79651 21.8872 8.47702 22.0195C8.15756 22.1518 7.78987 22.0785 7.54538 21.834L2.16549 16.4541C1.92099 16.2096 1.84766 15.8419 1.97995 15.5225C2.11228 15.203 2.42417 14.9941 2.76999 14.9941H8.14987ZM7.29538 19.166V16.7051H4.83444L7.29538 19.166Z" fill="white"/> <path d="M21.23 15.8496H15.85V21.2296" fill="white"/> <path d="M21.2299 14.9941C21.5757 14.9941 21.8876 15.203 22.0199 15.5225C22.1522 15.8419 22.0789 16.2096 21.8344 16.4541L16.4545 21.834C16.2099 22.0785 15.8423 22.1518 15.5228 22.0195C15.2033 21.8872 14.9945 21.5753 14.9945 21.2295V15.8496C14.9945 15.3774 15.3778 14.9941 15.85 14.9941H21.2299ZM16.7054 19.165L19.1654 16.7051H16.7054V19.165Z" fill="white"/> <path d="M2.77002 8.14953H8.15002V2.76953" fill="white"/> <path d="M7.54535 2.16461C7.78983 1.92013 8.15754 1.84683 8.47699 1.97906C8.79648 2.1114 9.00531 2.42329 9.00531 2.7691V8.14898C9.00531 8.62119 8.62204 9.00445 8.14984 9.00445H2.76996C2.42414 9.00445 2.11225 8.79562 1.97992 8.47613C1.84768 8.15668 1.92098 7.78897 2.16546 7.54449L7.54535 2.16461ZM4.83343 7.29449H7.29535V4.83258L4.83343 7.29449Z" fill="white"/> <path opacity="0.4" d="M7.54586 15.2464C7.87977 14.9127 8.42101 14.9126 8.75484 15.2464C9.08848 15.5803 9.08848 16.1216 8.75484 16.4554L2.60445 22.6058C2.2706 22.9394 1.72932 22.9394 1.39547 22.6058C1.06163 22.272 1.06176 21.7307 1.39547 21.3968L7.54586 15.2464Z" fill="white"/> <path opacity="0.4" d="M15.2455 15.2446C15.5794 14.9107 16.1206 14.9107 16.4545 15.2446L22.6049 21.395C22.9384 21.7289 22.9387 22.2702 22.6049 22.6039C22.2711 22.9377 21.7299 22.9374 21.3959 22.6039L15.2455 16.4535C14.9116 16.1197 14.9116 15.5785 15.2455 15.2446Z" fill="white"/> <path opacity="0.4" d="M1.39557 1.39495C1.72946 1.06106 2.27065 1.06106 2.60455 1.39495L8.75494 7.54535C9.08845 7.87928 9.08871 8.42056 8.75494 8.75433C8.42117 9.0881 7.87989 9.08784 7.54596 8.75433L1.39557 2.60394C1.06167 2.27004 1.06167 1.72885 1.39557 1.39495Z" fill="white"/> <path opacity="0.4" d="M21.396 1.39486C21.7299 1.06115 22.2711 1.06102 22.6049 1.39486C22.9386 1.72871 22.9386 2.26999 22.6049 2.60384L16.4545 8.75423C16.1207 9.08787 15.5794 9.08787 15.2456 8.75423C14.9117 8.4204 14.9119 7.87916 15.2456 7.54525L21.396 1.39486Z" fill="white"/> <path d="M21.23 8.14953H15.85V2.76953" fill="white"/> <path d="M15.5228 1.97909C15.8423 1.8468 16.21 1.92013 16.4545 2.16464L21.8344 7.54452C22.0788 7.78901 22.1522 8.1567 22.0199 8.47616C21.8876 8.79565 21.5757 9.00448 21.2299 9.00448H15.85C15.3778 9.00448 14.9945 8.62122 14.9945 8.14901V2.76913C14.9945 2.42332 15.2033 2.11143 15.5228 1.97909ZM16.7054 7.29452H19.1664L16.7054 4.83358V7.29452Z" fill="white"/> </svg>
