<svg width="24" height="24" viewBox="0 0 24 24" fill="none" xmlns="http://www.w3.org/2000/svg"> <g clip-path="url(#clip0_4482_10831)"> <g opacity="0.4"> <path d="M2.94043 20V14C2.94043 12.9 3.84043 12 4.94043 12H18.9404C20.0404 12 20.9404 12.9 20.9404 14V20C20.9404 21.1 20.0404 22 18.9404 22H4.94043C3.84043 22 2.94043 21.1 2.94043 20Z" fill="white"/> </g> <path d="M14.9404 19.75C14.5304 19.75 14.1904 19.41 14.1904 19V17C14.1904 16.59 14.5304 16.25 14.9404 16.25C15.3504 16.25 15.6904 16.59 15.6904 17V19C15.6904 19.41 15.3504 19.75 14.9404 19.75Z" fill="white"/> <path d="M17.9404 19.75C17.5304 19.75 17.1904 19.41 17.1904 19V17C17.1904 16.59 17.5304 16.25 17.9404 16.25C18.3504 16.25 18.6904 16.59 18.6904 17V19C18.6904 19.41 18.3504 19.75 17.9404 19.75Z" fill="white"/> <path d="M10.9404 22V19C10.9404 17.9 10.0404 17 8.94043 17C7.84043 17 6.94043 17.9 6.94043 19V22" fill="white"/> <path d="M5.94043 12V8.5C5.94043 7.67 6.61043 7 7.44043 7C8.27043 7 8.94043 7.67 8.94043 8.5V12" fill="white"/> <path d="M11.9404 12V10.5C11.9404 9.67 12.6104 9 13.4404 9C14.2704 9 14.9404 9.67 14.9404 10.5V12" fill="white"/> <path d="M13.9404 6.75C13.5304 6.75 13.1904 6.41 13.1904 6C13.1904 4.48 14.4204 3.25 15.9404 3.25H17.9404C18.3504 3.25 18.6904 3.59 18.6904 4C18.6904 4.41 18.3504 4.75 17.9404 4.75H15.9404C15.2504 4.75 14.6904 5.31 14.6904 6C14.6904 6.41 14.3504 6.75 13.9404 6.75Z" fill="white"/> <path d="M7.94043 4.75C7.53043 4.75 7.19043 4.41 7.19043 4C7.19043 2.48 8.42043 1.25 9.94043 1.25H11.9404C12.3504 1.25 12.6904 1.59 12.6904 2C12.6904 2.41 12.3504 2.75 11.9404 2.75H9.94043C9.25043 2.75 8.69043 3.31 8.69043 4C8.69043 4.41 8.35043 4.75 7.94043 4.75Z" fill="white"/> </g> <defs> <clipPath id="clip0_4482_10831"> <rect width="24" height="24" fill="white"/> </clipPath> </defs> </svg>
