<svg width="24" height="24" viewBox="0 0 24 24" fill="none" xmlns="http://www.w3.org/2000/svg"> <g clip-path="url(#clip0_4482_6724)"> <path d="M15 13.4404C15 15.0904 13.65 16.4404 12 16.4404C10.35 16.4404 9 15.0904 9 13.4404C9 13.1904 9.03 12.9504 9.09 12.7204C9.09 12.6804 9.1 12.6404 9.12 12.6004C9.48 11.3604 10.64 10.4404 12 10.4404C13.36 10.4404 14.52 11.3604 14.88 12.6004C14.89 12.6404 14.91 12.6804 14.91 12.7204C14.97 12.9504 15 13.1904 15 13.4404Z" fill="white"/> <path opacity="0.4" d="M21.88 15.6302C21.66 14.7802 21.12 14.0202 20.34 13.4902L19.98 13.2502C19.59 13.0002 19.17 12.8102 18.72 12.7102L14.64 11.8102L15.66 7.76019C15.77 7.31019 15.79 6.85019 15.74 6.39019L15.69 5.96019C15.46 4.10019 13.87 2.7002 12 2.7002C11.06 2.7002 10.21 3.0502 9.54004 3.6302C8.88004 4.2102 8.44004 5.03019 8.31004 5.96019L8.26004 6.39019C8.21004 6.85019 8.23004 7.31019 8.34004 7.76019L9.36004 11.8102L5.28004 12.7102C4.83004 12.8102 4.41004 13.0002 4.02004 13.2502L3.66004 13.4902C2.10004 14.5302 1.56004 16.5702 2.39004 18.2502C2.81004 19.0902 3.51004 19.7002 4.32004 20.0402C5.13004 20.3702 6.07004 20.4002 6.95004 20.0902L7.36004 19.9502C7.80004 19.7902 8.20004 19.5702 8.55004 19.2702L12 16.3002L15.45 19.2602C15.8 19.5602 16.2 19.7802 16.64 19.9402L17.05 20.0802C18.82 20.7102 20.78 19.9202 21.62 18.2402C22.03 17.4102 22.1 16.4902 21.88 15.6302ZM14.2 14.5402C13.83 15.2802 13.14 15.7502 12.38 15.8702C12.33 15.8802 12.27 15.8802 12.21 15.8902C12.14 15.9002 12.07 15.9002 12 15.9002C11.93 15.9002 11.86 15.8902 11.79 15.8902C11.73 15.8902 11.68 15.8802 11.62 15.8702C10.86 15.7502 10.17 15.2802 9.80004 14.5402C9.50004 13.9302 9.47004 13.2602 9.67004 12.6602C9.69004 12.6102 9.70004 12.5702 9.72004 12.5202C9.75004 12.4502 9.78004 12.3802 9.82004 12.3102C9.85004 12.2602 9.88004 12.2002 9.91004 12.1502C9.94004 12.1002 9.98004 12.0502 10.01 12.0002C10.06 11.9402 10.11 11.8802 10.16 11.8202C10.19 11.7802 10.22 11.7502 10.26 11.7102C10.71 11.2602 11.32 10.9802 12 10.9802C12.68 10.9802 13.29 11.2602 13.74 11.7102C13.77 11.7402 13.81 11.7802 13.84 11.8202C13.89 11.8802 13.94 11.9402 13.99 12.0002C14.03 12.0502 14.06 12.1002 14.09 12.1502C14.12 12.2002 14.15 12.2602 14.18 12.3102C14.22 12.3802 14.25 12.4502 14.28 12.5202C14.3 12.5702 14.32 12.6102 14.33 12.6602C14.53 13.2602 14.51 13.9402 14.2 14.5402Z" fill="white"/> </g> <defs> <clipPath id="clip0_4482_6724"> <rect width="24" height="24" fill="white"/> </clipPath> </defs> </svg>
