<svg width="24" height="24" viewBox="0 0 24 24" fill="none" xmlns="http://www.w3.org/2000/svg"> <g clip-path="url(#clip0_4482_973)"> <path d="M22 7.75C21.59 7.75 21.25 7.41 21.25 7V5C21.25 3.76 20.24 2.75 19 2.75H17C16.59 2.75 16.25 2.41 16.25 2C16.25 1.59 16.59 1.25 17 1.25H19C21.07 1.25 22.75 2.93 22.75 5V7C22.75 7.41 22.41 7.75 22 7.75Z" fill="white"/> <path d="M2 7.75C1.59 7.75 1.25 7.41 1.25 7V5C1.25 2.93 2.93 1.25 5 1.25H7C7.41 1.25 7.75 1.59 7.75 2C7.75 2.41 7.41 2.75 7 2.75H5C3.76 2.75 2.75 3.76 2.75 5V7C2.75 7.41 2.41 7.75 2 7.75Z" fill="white"/> <path d="M19 22.75H17C16.59 22.75 16.25 22.41 16.25 22C16.25 21.59 16.59 21.25 17 21.25H19C20.24 21.25 21.25 20.24 21.25 19V17C21.25 16.59 21.59 16.25 22 16.25C22.41 16.25 22.75 16.59 22.75 17V19C22.75 21.07 21.07 22.75 19 22.75Z" fill="white"/> <path d="M7 22.75H5C2.93 22.75 1.25 21.07 1.25 19V17C1.25 16.59 1.59 16.25 2 16.25C2.41 16.25 2.75 16.59 2.75 17V19C2.75 20.24 3.76 21.25 5 21.25H7C7.41 21.25 7.75 21.59 7.75 22C7.75 22.41 7.41 22.75 7 22.75Z" fill="white"/> <path opacity="0.4" d="M13 17H11C8.79 17 7 15.21 7 13V11C7 8.79 8.79 7 11 7H13C15.21 7 17 8.79 17 11V13C17 15.21 15.21 17 13 17Z" fill="white"/> </g> <defs> <clipPath id="clip0_4482_973"> <rect width="24" height="24" fill="white"/> </clipPath> </defs> </svg>
