<svg width="24" height="24" viewBox="0 0 24 24" fill="none" xmlns="http://www.w3.org/2000/svg"> <g clip-path="url(#clip0_2085_391664)"> <path d="M21.44 14.02V14.36L18.55 14.48V14.12C18.55 13.29 18.39 12.49 18.1 11.75L20.86 10.75C21.23 11.77 21.44 12.87 21.44 14.02Z" fill="white"/> <path d="M18.83 7.51984L16.67 9.53984C16.06 8.91984 15.33 8.41984 14.52 8.07984L15.71 5.33984C16.9 5.84984 17.96 6.58984 18.83 7.51984Z" fill="white"/> <path d="M12 4.58008V7.58008C11.1 7.58008 10.23 7.76008 9.45002 8.09008L8.27002 5.35008C9.42002 4.85008 10.68 4.58008 12 4.58008Z" fill="white"/> <path d="M7.31 9.5593C6.7 10.1793 6.21 10.9293 5.89 11.7593L3.13 10.7693C3.59 9.5493 4.28 8.4493 5.16 7.5293L7.31 9.5593Z" fill="white"/> <path d="M5.45006 14.4891V16.5791H2.56006V14.3691L5.45006 14.4891Z" fill="white"/> <g opacity="0.4"> <path d="M18.5501 14.4801V14.1201C18.5501 13.2901 18.3901 12.4901 18.1001 11.7501L20.8601 10.7501C20.4001 9.54008 19.7101 8.44008 18.8301 7.52008L16.6701 9.54008C16.0601 8.92008 15.3301 8.42008 14.5201 8.08008L15.7101 5.34008C14.5701 4.85008 13.3201 4.58008 12.0001 4.58008V7.58008C11.1001 7.58008 10.2301 7.76008 9.45006 8.09008L8.27006 5.35008C7.08006 5.86008 6.03006 6.60008 5.16006 7.53008L7.31006 9.56008C6.70006 10.1801 6.21006 10.9301 5.89006 11.7601L3.13006 10.7701C2.76006 11.7801 2.56006 12.8801 2.56006 14.0201V14.3701L5.45006 14.4901V16.5801H10.4101C9.98512 16.2324 9.14047 15.3251 9.56054 13.7501C9.58541 13.6568 9.68565 13.6072 9.77647 13.6399L10.6042 13.9374C10.7293 13.9823 10.8621 13.8721 10.8512 13.7397C10.7984 13.0993 10.8352 11.5763 12.1818 10.5672C12.3409 10.4479 12.5543 10.5602 12.5619 10.7589C12.5752 11.1111 12.5918 11.4581 12.7201 11.8001C12.8901 12.2401 13.1601 12.6401 13.4701 12.9901C13.9501 13.5501 14.4601 14.1101 14.5501 14.8801C14.6101 15.4101 14.3801 16.1301 13.9801 16.5801H21.4401V14.3601L18.5501 14.4801Z" fill="white"/> </g> <path d="M14.5501 14.8801C14.6101 15.4101 14.3801 16.1301 13.9801 16.5801H10.4101C9.98514 16.2324 9.14049 15.3251 9.56056 13.7501C9.58543 13.6569 9.68566 13.6072 9.77649 13.6399L10.6043 13.9374C10.7293 13.9823 10.8621 13.8721 10.8512 13.7397C10.7984 13.0993 10.8353 11.5763 12.1818 10.5672C12.341 10.4479 12.5543 10.5602 12.5619 10.7589C12.5753 11.1111 12.5918 11.4581 12.7201 11.8001C12.8901 12.2401 13.1601 12.6401 13.4701 12.9901C13.9501 13.5501 14.4601 14.1101 14.5501 14.8801Z" fill="white"/> <path d="M22.61 17.6401V18.3601C22.61 18.9401 22.14 19.4201 21.55 19.4201H2.45001C1.86001 19.4201 1.39001 18.9401 1.39001 18.3601V17.6401C1.39001 17.0501 1.86001 16.5801 2.45001 16.5801H21.55C22.14 16.5801 22.61 17.0501 22.61 17.6401Z" fill="white"/> </g> <defs> <clipPath id="clip0_2085_391664"> <rect width="24" height="24" fill="white"/> </clipPath> </defs> </svg>
