<svg width="24" height="24" viewBox="0 0 24 24" fill="none" xmlns="http://www.w3.org/2000/svg"> <g clip-path="url(#clip0_4482_9255)"> <path d="M13.6699 9.97C13.2599 9.97 12.9199 9.63 12.9199 9.22V7C12.9199 6.59 13.2599 6.25 13.6699 6.25C14.0799 6.25 14.4199 6.59 14.4199 7V9.22C14.4199 9.63 14.0799 9.97 13.6699 9.97Z" fill="white"/> <path d="M8.66973 13.35C8.66973 15.42 7.94973 17.4 6.64973 18.98L6.07973 18.57C4.91973 17.73 4.21973 16.39 4.21973 14.95V13.39C4.21973 11.99 4.87973 10.67 5.99973 9.82998L6.66973 9.32998C7.17973 8.93998 7.49973 8.35998 7.54973 7.72998C7.67973 8.66998 7.88973 9.58998 8.18973 10.49L8.20973 10.54C8.50973 11.45 8.66973 12.4 8.66973 13.35Z" fill="white"/> <g opacity="0.4"> <path d="M19.7804 7.28V15.33C19.7804 19.02 16.7904 22 13.1104 22H13.0204C11.6304 22 10.2804 21.57 9.15039 20.76L6.65039 18.98C7.95039 17.4 8.67039 15.42 8.67039 13.35C8.67039 12.4 8.51039 11.45 8.21039 10.54L8.19039 10.49C7.89039 9.59 7.68039 8.67 7.55039 7.73C7.56039 7.67 7.56039 7.62 7.56039 7.56V5.89C7.56039 4.86 7.96039 3.87 8.69039 3.14C9.42039 2.41 10.4104 2 11.4404 2H11.6304C12.9904 2 14.3404 2.12 15.6704 2.36C18.0504 2.8 19.7804 4.87 19.7804 7.28Z" fill="white"/> </g> </g> <defs> <clipPath id="clip0_4482_9255"> <rect width="24" height="24" fill="white"/> </clipPath> </defs> </svg>
