<svg width="24" height="24" viewBox="0 0 24 24" fill="none" xmlns="http://www.w3.org/2000/svg"> <g clip-path="url(#clip0_2085_393922)"> <path d="M8.04997 10.49C8.13997 10.06 8.74997 10.06 8.83997 10.49C9.37997 13.11 11.42 15.16 14.04 15.69C14.47 15.78 14.47 16.39 14.04 16.47C11.42 17.01 9.36997 19.05 8.83997 21.67C8.74997 22.1 8.13997 22.1 8.04997 21.67C7.50997 19.05 5.46997 17 2.84997 16.47C2.41997 16.38 2.41997 15.77 2.84997 15.69C5.46997 15.15 7.51997 13.11 8.04997 10.49Z" fill="white"/> <g opacity="0.4"> <path d="M18.1199 7.84984C18.1799 7.66984 18.4199 7.66984 18.4799 7.84984C18.8799 8.97984 19.7699 9.86984 20.8999 10.2698C21.0799 10.3298 21.0799 10.5698 20.8999 10.6298C19.7699 11.0298 18.8799 11.9198 18.4799 13.0498C18.4199 13.2298 18.1799 13.2298 18.1199 13.0498C17.7199 11.9198 16.8299 11.0298 15.6999 10.6298C15.5199 10.5698 15.5199 10.3298 15.6999 10.2698C16.8299 9.86984 17.7199 8.97984 18.1199 7.84984Z" fill="white"/> </g> <path d="M11.55 2.56012C11.62 2.39012 11.85 2.39012 11.91 2.56012C12.27 3.52012 13.03 4.27012 13.98 4.63012C14.15 4.70012 14.15 4.93012 13.98 4.99012C13.02 5.35012 12.27 6.11012 11.91 7.06012C11.84 7.23012 11.61 7.23012 11.55 7.06012C11.19 6.10012 10.43 5.35012 9.48004 4.99012C9.31004 4.92012 9.31004 4.69012 9.48004 4.63012C10.44 4.27012 11.19 3.51012 11.55 2.56012Z" fill="white"/> </g> <defs> <clipPath id="clip0_2085_393922"> <rect width="24" height="24" fill="white"/> </clipPath> </defs> </svg>
