<svg width="24" height="24" viewBox="0 0 24 24" fill="none" xmlns="http://www.w3.org/2000/svg"> <g clip-path="url(#clip0_4482_11635)"> <path d="M11.9904 18.71C11.8404 18.71 11.6904 18.66 11.5604 18.57L5.12041 14.01C4.65041 13.69 4.45041 13.08 4.65041 12.54L5.37041 10.39C5.37041 10.39 5.40041 10.32 5.42041 10.28L6.85041 5.99004C7.01041 5.56004 7.39041 5.29004 7.82041 5.29004C8.25041 5.29004 8.65041 5.57004 8.79041 5.99004L12.7004 17.72C12.8004 18.03 12.7004 18.37 12.4404 18.56C12.3104 18.66 12.1504 18.71 11.9904 18.71ZM6.11041 12.88L10.5504 16.02L7.82041 7.82004L6.80041 10.87C6.80041 10.87 6.77041 10.95 6.75041 10.98L6.11041 12.88Z" fill="white"/> <path d="M12.0102 18.71C11.8502 18.71 11.7002 18.66 11.5602 18.56C11.3002 18.37 11.1902 18.03 11.3002 17.72L15.2102 5.99004C15.3502 5.57004 15.7402 5.29004 16.1802 5.29004C16.6202 5.29004 17.0002 5.56004 17.1402 5.97004L18.5802 10.28C18.5802 10.28 18.6102 10.35 18.6302 10.39L19.3602 12.56C19.5502 13.08 19.3602 13.69 18.8702 14.02L12.4402 18.57C12.3102 18.66 12.1602 18.71 12.0102 18.71ZM16.1802 7.82004L13.4402 16.03L17.8802 12.88L17.2402 10.98C17.2402 10.98 17.2102 10.91 17.1902 10.87L16.1702 7.82004H16.1802Z" fill="white"/> <g opacity="0.4"> <path d="M17 2H7C4.24 2 2 4.24 2 7V17C2 19.76 4.24 22 7 22H17C19.76 22 22 19.76 22 17V7C22 4.24 19.76 2 17 2Z" fill="white"/> </g> <path d="M14.5102 11.1899H9.49023C9.08023 11.1899 8.74023 10.8499 8.74023 10.4399C8.74023 10.0299 9.08023 9.68994 9.49023 9.68994H14.5102C14.9202 9.68994 15.2602 10.0299 15.2602 10.4399C15.2602 10.8499 14.9202 11.1899 14.5102 11.1899Z" fill="white"/> </g> <defs> <clipPath id="clip0_4482_11635"> <rect width="24" height="24" fill="white"/> </clipPath> </defs> </svg>
