<svg width="24" height="24" viewBox="0 0 24 24" fill="none" xmlns="http://www.w3.org/2000/svg"> <g clip-path="url(#clip0_2085_393822)"> <path d="M1.88994 7.68004C1.49994 7.68004 1.18994 7.37004 1.18994 6.98004C1.18994 5.22004 2.63994 3.79004 4.41994 3.79004C4.80994 3.79004 5.11994 4.10004 5.11994 4.49004C5.11994 4.88004 4.80994 5.19004 4.41994 5.19004C3.42994 5.19004 2.58994 6.01004 2.58994 6.98004C2.58994 7.37004 2.27994 7.68004 1.88994 7.68004Z" fill="white"/> <path d="M21.89 7.68004C21.5 7.68004 21.19 7.37004 21.19 6.98004C21.19 6.01004 20.35 5.19004 19.36 5.19004C18.97 5.19004 18.66 4.88004 18.66 4.49004C18.66 4.10004 18.97 3.79004 19.36 3.79004C21.14 3.79004 22.59 5.22004 22.59 6.98004C22.59 7.37004 22.28 7.68004 21.89 7.68004Z" fill="white"/> <path d="M1.88994 11.4995C1.49994 11.4995 1.18994 11.1895 1.18994 10.7995V9.46953C1.18994 9.07953 1.49994 8.76953 1.88994 8.76953C2.27994 8.76953 2.58994 9.07953 2.58994 9.46953V10.7995C2.58994 11.1895 2.27994 11.4995 1.88994 11.4995Z" fill="white"/> <path d="M21.8899 11.4995C21.4999 11.4995 21.1899 11.1895 21.1899 10.7995V9.46953C21.1899 9.07953 21.4999 8.76953 21.8899 8.76953C22.2799 8.76953 22.5899 9.07953 22.5899 9.46953V10.7995C22.5899 11.1895 22.2799 11.4995 21.8899 11.4995Z" fill="white"/> <path d="M15.62 5.19004H8.14995C7.75995 5.19004 7.44995 4.88004 7.44995 4.49004C7.44995 4.10004 7.75995 3.79004 8.14995 3.79004H15.62C16.01 3.79004 16.32 4.10004 16.32 4.49004C16.32 4.88004 16.01 5.19004 15.62 5.19004Z" fill="white"/> <g opacity="0.4"> <path d="M10.6501 4.49C10.6501 5.86 9.53005 6.98 8.16005 6.98H6.92005C5.54005 6.98 4.43005 5.87 4.43005 4.49C4.43005 3.11 5.54005 2 6.92005 2H8.16005C9.53005 2 10.6501 3.11 10.6501 4.49Z" fill="white"/> </g> <g opacity="0.4"> <path d="M19.36 4.49C19.36 5.86 18.25 6.98 16.87 6.98H15.62C14.25 6.98 13.13 5.87 13.13 4.49C13.13 3.11 14.24 2 15.62 2H16.87C18.24 2 19.36 3.11 19.36 4.49Z" fill="white"/> </g> <path d="M19.36 16.4798H18.12C17.73 16.4798 17.42 16.1698 17.42 15.7798C17.42 15.3898 17.73 15.0798 18.12 15.0798H19.36C20.35 15.0798 21.19 14.2598 21.19 13.2898C21.19 12.8998 21.5 12.5898 21.89 12.5898C22.28 12.5898 22.59 12.8998 22.59 13.2898C22.59 15.0498 21.14 16.4798 19.36 16.4798Z" fill="white"/> <path d="M5.66995 16.4798H4.42995C2.64995 16.4798 1.19995 15.0498 1.19995 13.2898C1.19995 12.8998 1.50995 12.5898 1.89995 12.5898C2.28995 12.5898 2.59995 12.8998 2.59995 13.2898C2.59995 14.2598 3.43995 15.0798 4.42995 15.0798H5.66995C6.05995 15.0798 6.36995 15.3898 6.36995 15.7798C6.36995 16.1698 6.05995 16.4798 5.66995 16.4798Z" fill="white"/> <path d="M11.89 22.6998C8.06996 22.6998 4.95996 19.5898 4.95996 15.7698C4.95996 11.9498 8.06996 8.83984 11.89 8.83984C15.71 8.83984 18.82 11.9498 18.82 15.7698C18.82 19.5898 15.71 22.6998 11.89 22.6998ZM11.89 10.2498C8.84996 10.2498 6.36996 12.7298 6.36996 15.7698C6.36996 18.8098 8.84996 21.2898 11.89 21.2898C14.93 21.2898 17.41 18.8098 17.41 15.7698C17.41 12.7298 14.93 10.2498 11.89 10.2498Z" fill="white"/> <path d="M11.89 22.6998C9.78995 22.6998 8.69995 19.2198 8.69995 15.7698C8.69995 12.3198 9.79995 8.83984 11.89 8.83984C13.98 8.83984 15.08 12.3298 15.08 15.7698C15.08 19.2098 13.98 22.6998 11.89 22.6998ZM11.89 10.2498C11.18 10.2498 10.1 12.4498 10.1 15.7698C10.1 19.0898 11.18 21.2898 11.89 21.2898C12.6 21.2898 13.68 19.0898 13.68 15.7698C13.68 12.4498 12.61 10.2498 11.89 10.2498Z" fill="white"/> <path d="M11.89 18.9698C8.44996 18.9698 4.95996 17.8698 4.95996 15.7798C4.95996 13.6898 8.44996 12.5898 11.89 12.5898C15.33 12.5898 18.82 13.6898 18.82 15.7798C18.82 17.8698 15.34 18.9698 11.89 18.9698ZM11.89 13.9898C8.56996 13.9898 6.36996 15.0698 6.36996 15.7798C6.36996 16.4898 8.56996 17.5698 11.89 17.5698C15.21 17.5698 17.41 16.4898 17.41 15.7798C17.41 15.0698 15.21 13.9898 11.89 13.9898Z" fill="white"/> </g> <defs> <clipPath id="clip0_2085_393822"> <rect width="24" height="24" fill="white"/> </clipPath> </defs> </svg>
