<svg width="24" height="24" viewBox="0 0 24 24" fill="none" xmlns="http://www.w3.org/2000/svg"> <g clip-path="url(#clip0_4482_11636)"> <g opacity="0.4"> <path d="M7 4.61004V11.13L2 7.75004V5.00004C2 4.26004 2.41 3.58004 3.06 3.23004C3.71 2.89004 4.51 2.93004 5.12 3.34004L7 4.61004Z" fill="white"/> </g> <path d="M7 11.13V21H4C2.9 21 2 20.1 2 19V7.75L7 11.13Z" fill="white"/> <path d="M17 4.61035V11.1304L12 14.5004L7 11.1304V4.61035L12 7.98035L17 4.61035Z" fill="white"/> <g opacity="0.4"> <path d="M22 5.00014V7.75014L17 11.1301V4.61014L18.88 3.34014C19.49 2.92014 20.29 2.88014 20.94 3.23014C21.59 3.58014 22 4.26014 22 5.00014Z" fill="white"/> </g> <path d="M22 7.75V19C22 20.1 21.1 21 20 21H17V11.13L22 7.75Z" fill="white"/> </g> <defs> <clipPath id="clip0_4482_11636"> <rect width="24" height="24" fill="white"/> </clipPath> </defs> </svg>
