<svg width="24" height="24" viewBox="0 0 24 24" fill="none" xmlns="http://www.w3.org/2000/svg"> <g clip-path="url(#clip0_4482_11184)"> <path d="M12 22.75H7.56C4.08 22.75 1.25 19.92 1.25 16.44V7.56C1.25 4.08 4.08 1.25 7.56 1.25H16.45C19.93 1.25 22.76 4.08 22.76 7.56V12C22.76 12.41 22.42 12.75 22.01 12.75C21.6 12.75 21.26 12.41 21.26 12V7.56C21.26 4.91 19.1 2.75 16.45 2.75H7.56C4.91 2.75 2.75 4.91 2.75 7.56V16.45C2.75 19.1 4.91 21.26 7.56 21.26H12C12.41 21.26 12.75 21.6 12.75 22.01C12.75 22.42 12.41 22.76 12 22.76V22.75Z" fill="white"/> <g opacity="0.4"> <path d="M15.3301 12.75C14.9201 12.75 14.5801 12.41 14.5801 12V2C14.5801 1.59 14.9201 1.25 15.3301 1.25C15.7401 1.25 16.0801 1.59 16.0801 2V12C16.0801 12.41 15.7401 12.75 15.3301 12.75Z" fill="white"/> <path d="M8.66992 22.75C8.25992 22.75 7.91992 22.41 7.91992 22V2C7.91992 1.59 8.25992 1.25 8.66992 1.25C9.07992 1.25 9.41992 1.59 9.41992 2V22C9.41992 22.41 9.07992 22.75 8.66992 22.75Z" fill="white"/> <path d="M12 16.02H2C1.59 16.02 1.25 15.68 1.25 15.27C1.25 14.86 1.59 14.52 2 14.52H12C12.41 14.52 12.75 14.86 12.75 15.27C12.75 15.68 12.41 16.02 12 16.02Z" fill="white"/> <path d="M22 9.3501H2C1.59 9.3501 1.25 9.0101 1.25 8.6001C1.25 8.1901 1.59 7.8501 2 7.8501H22C22.41 7.8501 22.75 8.1901 22.75 8.6001C22.75 9.0101 22.41 9.3501 22 9.3501Z" fill="white"/> </g> <path d="M20.1597 18.3098C19.7497 18.3098 19.4097 17.9698 19.4097 17.5598V16.4998C19.4097 16.0898 19.0797 15.7598 18.6697 15.7598C18.2597 15.7598 17.9297 16.0898 17.9297 16.4998V17.5598C17.9297 17.9698 17.5897 18.3098 17.1797 18.3098C16.7697 18.3098 16.4297 17.9698 16.4297 17.5598V16.4998C16.4297 15.2598 17.4397 14.2598 18.6697 14.2598C19.8997 14.2598 20.9097 15.2698 20.9097 16.4998V17.5598C20.9097 17.9698 20.5697 18.3098 20.1597 18.3098Z" fill="white"/> <path d="M20.6101 17.5601H16.7201C15.9524 17.5601 15.3301 18.1824 15.3301 18.9501V20.6101C15.3301 21.3777 15.9524 22.0001 16.7201 22.0001H20.6101C21.3778 22.0001 22.0001 21.3777 22.0001 20.6101V18.9501C22.0001 18.1824 21.3778 17.5601 20.6101 17.5601Z" fill="white"/> </g> <defs> <clipPath id="clip0_4482_11184"> <rect width="24" height="24" fill="white"/> </clipPath> </defs> </svg>
