<svg width="24" height="24" viewBox="0 0 24 24" fill="none" xmlns="http://www.w3.org/2000/svg"> <path d="M6.62 18.0701L2 13.4501L6.62 8.83008" fill="white"/> <path d="M6.01565 8.22715C6.26018 7.98267 6.62783 7.90928 6.94729 8.0416C7.26678 8.17394 7.47464 8.48583 7.47464 8.83164V18.0719C7.47454 18.4176 7.26671 18.7296 6.94729 18.8619C6.62789 18.9942 6.26017 18.9207 6.01565 18.6764L1.39554 14.0563C1.06166 13.7224 1.0617 13.1812 1.39554 12.8473L6.01565 8.22715ZM3.20901 13.4518L5.76468 16.0074V10.8961L3.20901 13.4518Z" fill="white"/> <path opacity="0.4" d="M21.1445 7.30078V4.2207C21.1445 3.7485 21.5278 3.36523 22 3.36523C22.4722 3.36523 22.8555 3.7485 22.8555 4.2207V7.30078C22.8554 9.15701 22.1151 10.9443 20.8047 12.2549C19.4941 13.5655 17.706 14.3057 15.8496 14.3057H2C1.52795 14.3057 1.14478 13.9232 1.14453 13.4512C1.14453 12.979 1.5278 12.5957 2 12.5957H15.8496C17.2532 12.5957 18.6063 12.0353 19.5957 11.0459C20.5849 10.0566 21.1445 8.70426 21.1445 7.30078Z" fill="white"/> </svg>
