<svg width="24" height="24" viewBox="0 0 24 24" fill="none" xmlns="http://www.w3.org/2000/svg"> <path d="M5.07996 17.3809L9.69996 22.0009L14.32 17.3809" fill="white"/> <path d="M14.3202 16.5254C14.6659 16.5255 14.9779 16.7343 15.1102 17.0537C15.2424 17.3731 15.169 17.7409 14.9246 17.9854L10.3045 22.6055C10.1442 22.7658 9.92676 22.8554 9.70004 22.8555C9.47333 22.8555 9.25588 22.7657 9.09555 22.6055L4.47543 17.9854C4.23092 17.7408 4.15759 17.3732 4.28988 17.0537C4.42222 16.7342 4.73411 16.5254 5.07992 16.5254H14.3202ZM9.70004 20.792L12.2557 18.2363H7.14438L9.70004 20.792Z" fill="white"/> <path opacity="0.4" d="M8.83447 22V8.15039C8.83447 6.29401 9.57464 4.50593 10.8853 3.19531C12.1959 1.8847 13.984 1.14453 15.8403 1.14453H18.9204C19.3924 1.14478 19.7749 1.52795 19.7749 2C19.7749 2.47205 19.3924 2.85522 18.9204 2.85547H15.8403C14.4367 2.85547 13.0836 3.41491 12.0942 4.4043C11.1049 5.39368 10.5454 6.74677 10.5454 8.15039V22C10.5454 22.4722 10.1621 22.8555 9.68994 22.8555C9.21774 22.8555 8.83447 22.4722 8.83447 22Z" fill="white"/> </svg>
