<svg width="24" height="24" viewBox="0 0 24 24" fill="none" xmlns="http://www.w3.org/2000/svg"> <g clip-path="url(#clip0_2085_387576)"> <path d="M13.3769 15.2248C13.6891 14.9526 14.1633 14.9849 14.4355 15.297C14.7077 15.6092 14.6753 16.0834 14.3633 16.3556C12.0031 18.4143 8.97143 19.9465 6.42575 20.8293L6.42478 20.8283C5.99678 20.9844 5.59315 21.1097 5.20896 21.2209C4.81118 21.336 4.39457 21.1069 4.27927 20.7092C4.16413 20.3114 4.39331 19.8948 4.79099 19.7795C5.16277 19.6718 5.53481 19.5578 5.92185 19.4162L5.93454 19.4113C8.34879 18.5741 11.1972 17.126 13.3769 15.2248Z" fill="white"/> <path d="M5.82232 1.77154C6.22472 1.67339 6.6304 1.91993 6.72857 2.32232C6.79565 2.59736 6.88461 2.87724 6.98834 3.15923L7.09673 3.44146L7.09771 3.44537C7.67887 4.92384 8.64178 6.28199 9.75591 7.31549C10.8773 8.35566 12.1015 9.02148 13.1827 9.20025C13.5912 9.26795 13.8674 9.65398 13.7999 10.0626C13.7322 10.4711 13.3462 10.7473 12.9376 10.6797C11.4788 10.4385 9.99743 9.5848 8.73638 8.41509C7.46806 7.2386 6.37103 5.69568 5.7022 3.9942L5.70318 3.99322C5.53483 3.57188 5.38171 3.12946 5.27154 2.67779C5.17339 2.27539 5.41993 1.86971 5.82232 1.77154Z" fill="white"/> <path d="M10.5137 9.8015C10.9161 9.70413 11.3214 9.95089 11.4189 10.3533C11.5163 10.7559 11.2688 11.1611 10.8662 11.2585C8.3828 11.8594 6.45706 12.2497 4.5 12.2497C4.08579 12.2497 3.75 11.914 3.75 11.4997C3.75015 11.0857 4.08588 10.7497 4.5 10.7497C6.26291 10.7497 8.03714 10.4007 10.5137 9.8015Z" fill="white"/> <path d="M13.3553 15.2442C13.6567 14.9603 14.1318 14.9742 14.4158 15.2755C15.6508 16.5864 17.1931 17.7309 19.0682 18.751L19.0789 18.7569L19.45 18.962C20.3264 19.4356 21.2751 19.8784 22.2928 20.3096C22.674 20.4713 22.8518 20.9117 22.6903 21.293C22.5285 21.6742 22.0881 21.8521 21.7069 21.6905C20.514 21.185 19.3905 20.6542 18.3514 20.0684C16.3668 18.9887 14.6889 17.7536 13.324 16.3048C13.0401 16.0033 13.054 15.5283 13.3553 15.2442Z" fill="white"/> <g opacity="0.4"> <path d="M21.25 12C21.25 6.89421 17.1058 2.75 12 2.75C10.0843 2.75 8.30081 3.33258 6.82227 4.33984L6.81934 4.3418C4.36724 5.99833 2.75 8.8098 2.75 12C2.75 15.1932 4.27094 17.8318 6.61621 19.5098L6.62012 19.5127C8.13487 20.6118 9.99167 21.25 12 21.25C14.3869 21.25 16.5684 20.344 18.2051 18.8555L18.2061 18.8545C20.0762 17.1603 21.25 14.7189 21.25 12ZM22.75 12C22.75 15.161 21.3837 18 19.2139 19.9658C17.3106 21.6966 14.7725 22.75 12 22.75C9.66989 22.75 7.50777 22.0088 5.74316 20.7295C3.02887 18.7874 1.25 15.7064 1.25 12C1.25 8.29039 3.13282 5.02214 5.98047 3.09863C7.70142 1.92697 9.77685 1.25 12 1.25C17.9342 1.25 22.75 6.06579 22.75 12Z" fill="white"/> </g> <path opacity="0.4" d="M13.5 8C14.6046 8 15.5 7.10457 15.5 6C15.5 4.89543 14.6046 4 13.5 4C12.3954 4 11.5 4.89543 11.5 6C11.5 7.10457 12.3954 8 13.5 8Z" fill="white" stroke="white" stroke-width="1.5" stroke-linecap="round" stroke-linejoin="round"/> <path d="M15.2699 14.4104C14.8399 14.8904 14.3799 15.3504 13.8699 15.7904C12.4299 14.2804 11.3699 12.5504 10.6899 10.5304C11.4199 10.3504 12.1999 10.1504 13.0599 9.94043C13.2899 9.98043 13.5199 10.0004 13.7499 10.0004C13.9199 11.0304 14.4499 12.0704 15.0899 12.7704C15.4999 13.2304 15.6799 13.9504 15.2699 14.4104Z" fill="white"/> <path d="M12.9576 9.19651C13.034 9.18598 13.1118 9.1872 13.188 9.20041C13.2822 9.2168 13.3766 9.22939 13.4703 9.23752L13.7496 9.24924L13.8843 9.26194C14.191 9.31759 14.4373 9.56033 14.4898 9.87717C14.6173 10.6495 14.9881 11.4415 15.4439 12.0266L15.6431 12.2639L15.65 12.2707C15.9409 12.5971 16.1599 13.0233 16.2291 13.4768C16.2996 13.9393 16.2157 14.4752 15.8296 14.9084L15.8287 14.9104C15.38 15.4112 14.8971 15.8942 14.3599 16.3576C14.0573 16.6187 13.6035 16.5961 13.3277 16.3069C11.8134 14.719 10.6947 12.8947 9.97905 10.7688C9.91226 10.5702 9.932 10.3529 10.0328 10.1692C10.1337 9.98534 10.3067 9.85121 10.5103 9.801C11.2247 9.62485 12.0281 9.41976 12.8824 9.21116L12.9576 9.19651ZM11.6832 11.0549C12.2316 12.4156 12.9754 13.6302 13.9185 14.7278C14.1949 14.4623 14.4591 14.1911 14.7115 13.9094C14.7351 13.8822 14.7648 13.8276 14.7457 13.7024C14.7247 13.566 14.6488 13.4022 14.5298 13.2688V13.2678C13.9205 12.5986 13.4069 11.6767 13.1402 10.7092C13.1255 10.7073 13.1109 10.7054 13.0962 10.7033C12.5964 10.826 12.1317 10.9424 11.6832 11.0549Z" fill="white"/> </g> <defs> <clipPath id="clip0_2085_387576"> <rect width="24" height="24" fill="white"/> </clipPath> </defs> </svg>
