<svg width="24" height="24" viewBox="0 0 24 24" fill="none" xmlns="http://www.w3.org/2000/svg">
<path opacity="0.4" d="M18.4806 4.39844C18.3924 4.39844 18.3 4.40264 18.2118 4.40684C16.0488 4.52445 14.8938 5.59125 13.9698 6.44805C13.2894 7.07805 12.7518 7.57363 12 7.57363C11.244 7.57363 10.7064 7.07805 10.0302 6.44805C9.10202 5.59125 7.95122 4.52445 5.7882 4.40684C4.58702 4.33965 3.49083 4.72186 2.69701 5.47364C1.92422 6.20443 1.5 7.25024 1.5 8.41366C1.5 8.98064 1.62601 9.50144 1.88221 9.96766C1.89903 9.88785 1.92422 9.80805 1.95361 9.73245C2.28124 8.82523 3.1296 8.17845 4.1292 8.04826C4.36862 7.55265 4.9734 7.26706 5.80081 7.26706C7.51442 7.26706 8.38801 8.27503 8.71143 10.6271C8.88783 11.908 9.6018 13.1344 10.173 13.9366C10.4208 14.2895 10.551 14.7094 10.551 15.1546V19.1824C10.551 19.4176 10.74 19.6024 10.971 19.6024H13.0248C13.2558 19.6024 13.4448 19.4176 13.4448 19.1824V15.1546C13.4448 14.7094 13.575 14.2895 13.827 13.9366C14.394 13.1344 15.1122 11.908 15.2844 10.6271C15.612 8.27503 16.4814 7.26706 18.1992 7.26706C19.0266 7.26706 19.6314 7.55265 19.8666 8.04826C20.862 8.17424 21.7146 8.82102 22.0464 9.73662C22.0758 9.81642 22.0968 9.89623 22.1178 9.97603C22.3698 9.50985 22.5 8.98064 22.5 8.41366C22.5 7.25024 22.0716 6.20443 21.2988 5.47364C20.5638 4.77644 19.5726 4.39844 18.4806 4.39844Z" fill="black"/>
<path d="M5.24204 8.98852C4.20884 8.61472 3.08326 9.07674 2.74305 10.0217C2.57086 10.4879 2.61283 10.9961 2.86066 11.4539C3.10007 11.8991 3.50324 12.2393 3.99885 12.4199C4.17527 12.4829 4.35587 12.5123 4.53647 12.5123C5.43524 12.5123 6.35087 11.8025 6.63646 11.0171C6.81285 10.5299 6.72884 10.0721 6.39284 9.68992C6.14505 9.40853 5.76704 9.17753 5.24204 8.98852Z" fill="black"/>
<path d="M18.7536 8.98879C18.2286 9.1778 17.8548 9.40881 17.607 9.69019C17.271 10.0724 17.187 10.5302 17.3634 11.0174C17.649 11.8028 18.5604 12.5126 19.4592 12.5126C19.644 12.5126 19.8246 12.4832 20.001 12.4202C20.4924 12.2396 20.8956 11.8994 21.135 11.4542C21.3828 10.9964 21.4248 10.4882 21.2568 10.022C20.9124 9.07701 19.791 8.61079 18.7536 8.98879Z" fill="black"/>
</svg>
