<svg width="24" height="24" viewBox="0 0 24 24" fill="none" xmlns="http://www.w3.org/2000/svg"> <g clip-path="url(#clip0_2085_393624)"> <g opacity="0.4"> <path d="M17.88 10.6101L7.42 21.0701C6.18 22.3101 4.17 22.3101 2.93 21.0701C1.69 19.8301 1.69 17.8201 2.93 16.5801L13.39 6.12012L13.55 6.28012L17.72 10.4501L17.88 10.6101Z" fill="white"/> </g> <path d="M19.8999 9.69012L19.1399 10.4501C18.7499 10.8401 18.1099 10.8401 17.7199 10.4501L13.5499 6.28012C13.1599 5.89012 13.1599 5.25012 13.5499 4.86012L14.3099 4.10012C14.6999 3.71012 15.3399 3.71012 15.7299 4.10012L16.4499 4.82012L19.1699 7.55012H19.1799L19.8999 8.27012C20.2899 8.66012 20.2899 9.30012 19.8999 9.69012Z" fill="white"/> <path d="M21.1 6.06028L19.18 7.55028H19.17L16.45 4.83028L17.94 2.90028C18.31 2.42028 19.02 2.38028 19.44 2.80028L21.2 4.56028C21.62 4.98028 21.58 5.69028 21.1 6.06028Z" fill="white"/> <path d="M12.12 12.6299C11.93 12.6299 11.74 12.5599 11.59 12.4099L10.69 11.5099C10.4 11.2199 10.4 10.7399 10.69 10.4499C10.98 10.1599 11.46 10.1599 11.75 10.4499L12.65 11.3499C12.94 11.6399 12.94 12.1199 12.65 12.4099C12.5 12.5599 12.31 12.6299 12.12 12.6299Z" fill="white"/> <path d="M6.88004 17.8702C6.69004 17.8702 6.50004 17.8002 6.35004 17.6502L5.45004 16.7502C5.16004 16.4602 5.16004 15.9802 5.45004 15.6902C5.74004 15.4002 6.22004 15.4002 6.51004 15.6902L7.41004 16.5902C7.70004 16.8802 7.70004 17.3602 7.41004 17.6502C7.26004 17.8002 7.07004 17.8702 6.88004 17.8702Z" fill="white"/> <path d="M10.3901 16.1504C10.2001 16.1504 10.0101 16.0804 9.86005 15.9304L8.96005 15.0304C8.67005 14.7404 8.67005 14.2604 8.96005 13.9704C9.25005 13.6804 9.73005 13.6804 10.0201 13.9704L10.9201 14.8704C11.2101 15.1604 11.2101 15.6404 10.9201 15.9304C10.7701 16.0804 10.5801 16.1504 10.3901 16.1504Z" fill="white"/> </g> <defs> <clipPath id="clip0_2085_393624"> <rect width="24" height="24" fill="white"/> </clipPath> </defs> </svg>
