<svg width="24" height="24" viewBox="0 0 24 24" fill="none" xmlns="http://www.w3.org/2000/svg"> <g clip-path="url(#clip0_4482_8716)"> <g opacity="0.4"> <path d="M17.1904 5V8.67C17.1904 9.08 16.8604 9.42 16.4404 9.42C16.0204 9.42 15.6904 9.08 15.6904 8.67V5C15.6904 3.76 14.6904 2.75 13.4404 2.75H6.11035C4.87035 2.75 3.86035 3.76 3.86035 5V19C3.86035 20.24 4.87035 21.25 6.11035 21.25H8.67035C9.08035 21.25 9.42035 21.59 9.42035 22C9.42035 22.41 9.08035 22.75 8.67035 22.75H6.11035C4.04035 22.75 2.36035 21.07 2.36035 19V5C2.36035 2.93 4.04035 1.25 6.11035 1.25H13.4404C15.5104 1.25 17.1904 2.93 17.1904 5Z" fill="white"/> </g> <path d="M12.5502 2.75V4.11C12.5802 4.45 12.3302 4.74 12.0002 4.78H7.56019C7.22019 4.74 6.98019 4.45 7.00019 4.11V2.75H12.5502Z" fill="white"/> <path d="M20.8902 16.67C20.8902 16.18 20.4902 15.78 20.0002 15.78H18.2202V14C18.2202 13.51 17.8202 13.11 17.3302 13.11H15.5502C15.0602 13.11 14.6602 13.51 14.6602 14V15.78H12.8802C12.3902 15.78 11.9902 16.18 11.9902 16.67V18.45C11.9902 18.94 12.3902 19.34 12.8802 19.34H14.6602V21.12C14.6602 21.61 15.0602 22.01 15.5502 22.01H17.3302C17.8202 22.01 18.2202 21.61 18.2202 21.12V19.34H20.0002C20.4902 19.34 20.8902 18.94 20.8902 18.45V16.67Z" fill="white"/> </g> <defs> <clipPath id="clip0_4482_8716"> <rect width="24" height="24" fill="white"/> </clipPath> </defs> </svg>
