<svg width="24" height="24" viewBox="0 0 24 24" fill="none" xmlns="http://www.w3.org/2000/svg"> <g clip-path="url(#clip0_4482_8715)"> <g opacity="0.4"> <path d="M2 7V17C2 19.76 4.24 22 7 22H17C19.76 22 22 19.76 22 17V7C22 4.24 19.76 2 17 2H7C4.24 2 2 4.24 2 7Z" fill="white"/> </g> <path d="M13.6703 7.15995C13.9703 6.81995 14.4803 6.44995 15.2703 6.44995C16.6403 6.44995 17.5603 7.68995 17.5603 8.84995C17.5603 11.27 14.4403 13.12 13.6703 13.12C12.9003 13.12 9.78027 11.27 9.78027 8.84995C9.78027 7.68995 10.7003 6.44995 12.0703 6.44995C12.8503 6.44995 13.3703 6.82995 13.6703 7.15995Z" fill="white"/> </g> <defs> <clipPath id="clip0_4482_8715"> <rect width="24" height="24" fill="white"/> </clipPath> </defs> </svg>
