<svg width="24" height="24" viewBox="0 0 24 24" fill="none" xmlns="http://www.w3.org/2000/svg"> <g clip-path="url(#clip0_2085_393051)"> <path d="M17.34 4.65047C17.34 5.49047 17.02 6.22047 16.45 6.96047C15.98 7.58047 15.32 8.21047 14.53 8.92047C13.8952 9.46705 13.1672 10.0758 12.3665 10.7604C12.1786 10.9211 11.9014 10.9211 11.7133 10.7606C10.9087 10.0736 10.1649 9.45484 9.52998 8.89047C9.46998 8.84047 9.40998 8.78047 9.34998 8.73047C8.64998 8.10047 8.05998 7.52047 7.62998 6.96047C7.04998 6.22047 6.72998 5.48047 6.72998 4.65047C6.72998 3.09047 7.80998 1.73047 9.38998 1.73047C11.4 1.73047 12.04 4.08047 12.04 4.08047C12.04 4.08047 12.68 1.73047 14.69 1.73047C16.27 1.73047 17.34 3.09047 17.34 4.65047Z" fill="white"/> <path d="M9.54001 8.99996C9.54001 10.4431 8.16982 11.4265 6.1398 13.1741C5.95056 13.337 5.66922 13.3373 5.47943 13.175C3.4348 11.4269 2.01001 10.4434 2.01001 8.99996C2.01001 7.89996 2.79001 6.95996 3.90001 6.95996C5.32001 6.95996 5.81001 8.58996 5.81001 8.58996C5.81001 8.58996 6.25001 6.98996 7.63001 6.95996C8.06001 7.51996 8.65001 8.09996 9.35001 8.72996C9.41001 8.77996 9.47001 8.83996 9.53001 8.88996C9.54001 8.91996 9.54001 8.95996 9.54001 8.99996Z" fill="white"/> <path d="M7.63 6.95996H7.67C7.75 6.95996 7.83 6.95996 7.91 6.97996" fill="white"/> <path d="M9.53001 8.88984C9.53001 8.78984 9.53001 8.68984 9.51001 8.58984L9.53001 8.88984Z" fill="white"/> <g opacity="0.4"> <path d="M12.49 21.4398C12.31 21.4398 12.14 21.3798 11.99 21.2498C11.93 21.1898 10.42 19.8398 10.49 18.1198C10.53 17.2498 10.91 16.7898 11.22 16.4198C11.52 16.0698 11.73 15.8098 11.73 15.0498C11.73 14.2898 11.52 14.0298 11.22 13.6798C10.91 13.3098 10.53 12.8498 10.49 11.9798C10.41 10.2598 11.93 8.93978 12 8.88978C12.31 8.61978 12.79 8.65978 13.06 8.96978C13.33 9.27978 13.29 9.75978 12.98 10.0298C12.69 10.2798 11.96 11.0998 12 11.9098C12.02 12.2798 12.14 12.4298 12.39 12.7198C12.75 13.1498 13.25 13.7498 13.25 15.0598C13.25 16.3698 12.75 16.9598 12.39 17.3998C12.14 17.6898 12.02 17.8398 12 18.2098C11.96 19.0298 12.71 19.8898 12.99 20.1498C13.3 20.4298 13.32 20.8998 13.05 21.2098C12.9 21.3798 12.7 21.4598 12.49 21.4598V21.4398Z" fill="white"/> </g> <g opacity="0.4"> <path d="M4.75999 21.4398C4.75999 21.4398 4.73999 21.4398 4.72999 21.4398C4.31999 21.4198 3.99999 21.0698 4.00999 20.6598C4.04999 19.7898 4.42999 19.3198 4.73999 18.9498C5.03999 18.5798 5.25999 18.3198 5.25999 17.5398C5.25999 16.7598 5.04999 16.5198 4.74999 16.1698C4.43999 15.7998 4.05999 15.3398 4.01999 14.4698C3.95999 13.1898 4.76999 12.1398 5.25999 11.6298C5.54999 11.3298 6.01999 11.3198 6.31999 11.6098C6.61999 11.8998 6.62999 12.3698 6.33999 12.6698C6.07999 12.9398 5.47999 13.6498 5.51999 14.3998C5.53999 14.7698 5.65999 14.9098 5.89999 15.2098C6.25999 15.6398 6.75999 16.2398 6.75999 17.5498C6.75999 18.8598 6.26999 19.4598 5.90999 19.8998C5.66999 20.1998 5.53999 20.3598 5.51999 20.7298C5.49999 21.1298 5.16999 21.4498 4.76999 21.4498L4.75999 21.4398Z" fill="white"/> </g> <path d="M22 8.99996C22 10.4433 20.6204 11.4268 18.5805 13.1749C18.3908 13.3373 18.1095 13.337 17.9202 13.1741C15.8902 11.4265 14.52 10.4431 14.52 8.99996C14.52 8.96996 14.52 8.94996 14.53 8.91996C15.32 8.20996 15.98 7.57996 16.45 6.95996C17.81 7.00996 18.25 8.58996 18.25 8.58996C18.25 8.58996 18.74 6.95996 20.16 6.95996C21.26 6.95996 22 7.89996 22 8.99996Z" fill="white"/> <path d="M14.55 8.61035C14.53 8.71035 14.52 8.82035 14.53 8.92035L14.55 8.61035Z" fill="white"/> <path d="M16.17 6.97996C16.24 6.96996 16.31 6.95996 16.39 6.95996H16.45" fill="white"/> <g opacity="0.4"> <path d="M17.02 21.7201C17.02 21.7201 17 21.7201 16.99 21.7201C16.58 21.7001 16.26 21.3501 16.27 20.9401C16.31 20.0701 16.69 19.6001 17 19.2301C17.3 18.8601 17.52 18.6001 17.52 17.8201C17.52 17.0401 17.31 16.8001 17.01 16.4501C16.7 16.0801 16.32 15.6201 16.28 14.7501C16.22 13.4701 17.03 12.4201 17.52 11.9101C17.81 11.6101 18.28 11.6001 18.58 11.8901C18.88 12.1801 18.89 12.6501 18.6 12.9501C18.34 13.2201 17.74 13.9301 17.78 14.6801C17.8 15.0501 17.92 15.1901 18.16 15.4901C18.52 15.9201 19.02 16.5201 19.02 17.8301C19.02 19.1401 18.53 19.7401 18.17 20.1801C17.93 20.4801 17.8 20.6401 17.78 21.0101C17.76 21.4101 17.43 21.7301 17.03 21.7301L17.02 21.7201Z" fill="white"/> </g> </g> <defs> <clipPath id="clip0_2085_393051"> <rect width="24" height="24" fill="white"/> </clipPath> </defs> </svg>
