<svg width="24" height="24" viewBox="0 0 24 24" fill="none" xmlns="http://www.w3.org/2000/svg"> <g clip-path="url(#clip0_4482_6782)"> <path d="M22 9.91992V17.9999C22 20.1999 20.2 21.9999 18 21.9999H6C3.8 21.9999 2 20.1999 2 17.9999V9.91992C2.02 10.5999 2.38 11.2299 2.97 11.5799L10.46 16.0699C11.41 16.6399 12.59 16.6399 13.54 16.0699L21.03 11.5799C21.62 11.2299 21.98 10.5999 22 9.91992Z" fill="white"/> <path opacity="0.4" d="M22 9.87V9.92C21.98 10.6 21.62 11.23 21.03 11.58L13.54 16.07C12.59 16.64 11.41 16.64 10.46 16.07L2.97 11.58C2.38 11.23 2.02 10.6 2 9.92V9.87C2.07 7.73 3.85 6 6 6H8.48999C8.80999 6.71 9.29999 7.3 9.82999 7.76C10.11 8 10.39 8.21 10.66 8.38C11.08 8.64 11.46 8.82 11.75 8.92C11.89 8.97 12.11 8.97 12.24 8.92C13.1 8.63 14.75 7.64 15.51 6H18C20.15 6 21.93 7.73 22 9.87Z" fill="white"/> <path d="M15.9301 4.16094C15.9301 4.85094 15.7701 5.46094 15.5101 6.00094C14.7501 7.64094 13.1001 8.63094 12.2401 8.92094C12.1101 8.97094 11.8901 8.97094 11.7501 8.92094C11.4601 8.82094 11.0801 8.64094 10.6601 8.38094C10.3901 8.21094 10.11 8.00094 9.83005 7.76094C9.30005 7.30094 8.81005 6.71094 8.49005 6.00094C8.23005 5.46094 8.07007 4.84094 8.07007 4.16094C8.07007 2.94094 9.04006 1.96094 10.2501 1.96094C10.9701 1.96094 11.6001 2.31094 12.0001 2.84094C12.2301 2.52094 12.5601 2.27094 12.9301 2.12094C13.1801 2.02094 13.4601 1.96094 13.7501 1.96094C14.0601 1.96094 14.3501 2.02094 14.6201 2.14094C15.3901 2.48094 15.9301 3.25094 15.9301 4.16094Z" fill="white"/> </g> <defs> <clipPath id="clip0_4482_6782"> <rect width="24" height="24" fill="white"/> </clipPath> </defs> </svg>
