<svg width="24" height="24" viewBox="0 0 24 24" fill="none" xmlns="http://www.w3.org/2000/svg"> <g clip-path="url(#clip0_4482_7993)"> <g opacity="0.4"> <path d="M15.11 2H8.9C8.24 2 7.6 2.26 7.13 2.73L2.73 7.13C2.26 7.6 2 8.23 2 8.9V15.11C2 15.77 2.26 16.41 2.73 16.88L7.12 21.27C7.59 21.74 8.22 22 8.89 22H15.1C15.76 22 16.4 21.74 16.87 21.27L21.26 16.88C21.73 16.41 21.99 15.78 21.99 15.11V8.9C21.99 8.24 21.73 7.6 21.26 7.13L16.87 2.74C16.4 2.27 15.77 2.01 15.1 2.01L15.11 2Z" fill="white"/> </g> <path d="M15.5403 8.46006C17.4903 10.4101 17.4903 13.5801 15.5403 15.5301C13.5903 17.4801 10.4203 17.4801 8.47031 15.5301C6.52031 13.5801 6.52031 10.4101 8.47031 8.46006C10.4203 6.51006 13.5903 6.51006 15.5403 8.46006Z" fill="white"/> </g> <defs> <clipPath id="clip0_4482_7993"> <rect width="24" height="24" fill="white"/> </clipPath> </defs> </svg>
