<svg width="24" height="24" viewBox="0 0 24 24" fill="none" xmlns="http://www.w3.org/2000/svg"> <g clip-path="url(#clip0_4482_787)"> <path d="M21.3602 19.42L19.2602 21.52C18.8102 21.97 18.1802 22.17 17.5402 22.07L13.8002 21.44C13.3002 21.36 12.8802 20.96 12.7902 20.47C12.7802 20.39 12.7702 20.32 12.7702 20.24C12.7702 20.17 12.7802 20.1 12.7902 20.02C12.8802 19.44 13.3902 18.98 14.0102 18.98H15.2802L13.4203 17.11L11.5602 15.25C11.0502 14.74 11.0502 13.9 11.5602 13.39C12.0802 12.87 12.9103 12.87 13.4203 13.39L14.3202 14.29C14.3302 14.29 14.3402 14.3 14.3502 14.31L14.9802 14.94C15.1502 15.12 15.4302 15.15 15.6602 15.03L17.8602 13.74C18.1002 13.6 18.3702 13.53 18.6202 13.51C18.7502 13.5 18.8702 13.51 19.0002 13.54C19.3302 13.59 19.6402 13.74 19.9002 14L21.3602 15.46C22.4502 16.55 22.4502 18.33 21.3602 19.42Z" fill="white"/> <path opacity="0.4" d="M19 6V13.54C18.87 13.51 18.75 13.5 18.62 13.51C18.37 13.53 18.1 13.6 17.86 13.74L15.66 15.03C15.43 15.15 15.15 15.12 14.98 14.94L14.35 14.31C14.34 14.3 14.33 14.29 14.32 14.29L13.42 13.39C12.91 12.87 12.08 12.87 11.56 13.39C11.05 13.9 11.05 14.74 11.56 15.25L13.42 17.11L15.28 18.98H14.01C13.39 18.98 12.88 19.44 12.79 20.02C12.78 20.1 12.77 20.17 12.77 20.24H7.5C5.3 20.24 3.5 18.44 3.5 16.24V6C3.5 3.8 5.3 2 7.5 2H15C17.2 2 19 3.8 19 6Z" fill="white"/> <path d="M16.2603 8.21999H15.3503C13.9303 8.21999 12.7803 7.06999 12.7803 5.64999V4.73999C12.7803 4.32999 13.1203 3.98999 13.5303 3.98999C13.9403 3.98999 14.2803 4.32999 14.2803 4.73999V5.64999C14.2803 6.23999 14.7603 6.71999 15.3503 6.71999H16.2603C16.6703 6.71999 17.0103 7.05999 17.0103 7.46999C17.0103 7.87999 16.6803 8.21999 16.2603 8.21999Z" fill="white"/> </g> <defs> <clipPath id="clip0_4482_787"> <rect width="24" height="24" fill="white"/> </clipPath> </defs> </svg>
