<svg width="24" height="24" viewBox="0 0 24 24" fill="none" xmlns="http://www.w3.org/2000/svg"> <g clip-path="url(#clip0_4482_10411)"> <g opacity="0.4"> <path d="M2 16.9999V10.9999C2 9.47988 2.69 8.03988 3.88 7.09988L8.88 3.09988C10.71 1.63988 13.3 1.63988 15.13 3.09988L20.13 7.09988C21.32 8.04988 22.01 9.48988 22.01 10.9999V16.9999C22.01 19.7599 19.77 21.9999 17.01 21.9999H7C4.24 21.9999 2 19.7599 2 16.9999Z" fill="white"/> </g> <path d="M15.4896 9.62007C14.3096 8.44007 12.4896 8.20007 11.0396 9.04007C9.59957 9.88007 8.90957 11.5901 9.35957 13.2001L7.85957 14.7001C7.65957 14.8901 7.55957 15.1501 7.55957 15.4201V16.5301C7.55957 17.1001 8.00957 17.5601 8.57957 17.5601H9.68957C9.95957 17.5601 10.2196 17.4501 10.4096 17.2601L11.9096 15.7601C13.5196 16.2001 15.2296 15.5101 16.0696 14.0701C16.9096 12.6301 16.6696 10.8001 15.4896 9.62007ZM13.3396 12.8301C13.1996 12.9601 13.0096 13.0301 12.8296 13.0301C12.6596 13.0301 12.4896 12.9701 12.3496 12.8601C12.1896 12.7301 12.0896 12.5301 12.0796 12.3201C12.0796 12.1101 12.1496 11.9001 12.2996 11.7501C12.4396 11.6101 12.6696 11.5301 12.8496 11.5301C13.0496 11.5301 13.2496 11.6201 13.3896 11.7701C13.5196 11.9201 13.5996 12.1201 13.5896 12.3201C13.5896 12.5201 13.4896 12.7101 13.3496 12.8401L13.3396 12.8301Z" fill="white"/> </g> <defs> <clipPath id="clip0_4482_10411"> <rect width="24" height="24" fill="white"/> </clipPath> </defs> </svg>
