<svg width="24" height="24" viewBox="0 0 24 24" fill="none" xmlns="http://www.w3.org/2000/svg"> <g clip-path="url(#clip0_4482_10402)"> <g opacity="0.4"> <path d="M17.4495 21.9998H6.54953C4.46953 21.9998 2.76953 20.2898 2.76953 18.2198V9.11984C2.76953 7.03984 4.47953 5.33984 6.54953 5.33984H17.4495C19.5295 5.33984 21.2295 7.03984 21.2295 9.11984V18.2198C21.2295 20.2998 19.5195 21.9998 17.4495 21.9998Z" fill="white"/> <path d="M17.55 6.07989C17.19 6.07989 16.87 5.81989 16.81 5.44989L16.25 2.11989C16.18 1.70989 16.46 1.32989 16.87 1.25989C17.28 1.17989 17.66 1.46989 17.73 1.87989L18.29 5.20989C18.36 5.61989 18.08 5.99989 17.67 6.06989C17.63 6.06989 17.59 6.07989 17.55 6.07989Z" fill="white"/> <path d="M6.43921 6.08001C6.43921 6.08001 6.35921 6.08001 6.31921 6.08001C5.90921 6.01001 5.62921 5.63001 5.69921 5.22001L6.23921 1.89001C6.30921 1.48001 6.68921 1.20001 7.09921 1.27001C7.50921 1.34001 7.78921 1.72001 7.71921 2.13001L7.17921 5.46001C7.11921 5.83001 6.79921 6.09001 6.43921 6.09001V6.08001Z" fill="white"/> </g> <path d="M16.6604 13.2402V15.9902C16.6604 17.3802 15.5304 18.5002 14.1504 18.5002H9.87035C8.48035 18.5002 7.36035 17.3702 7.36035 15.9902V13.6902C7.36035 12.9302 7.71035 12.2002 8.30035 11.7302L10.3904 10.0602C11.3104 9.3302 12.6104 9.3302 13.5304 10.0602L16.1504 12.1502C16.4804 12.4102 16.6704 12.8202 16.6704 13.2402H16.6604Z" fill="white"/> </g> <defs> <clipPath id="clip0_4482_10402"> <rect width="24" height="24" fill="white"/> </clipPath> </defs> </svg>
