<svg width="24" height="24" viewBox="0 0 24 24" fill="none" xmlns="http://www.w3.org/2000/svg"> <g clip-path="url(#clip0_4482_10407)"> <path d="M12 2C13.38 2 14.5 3.12 14.5 4.5C14.5 5.88 13.38 7 12 7C10.62 7 9.5 5.88 9.5 4.5C9.5 3.84 9.76 3.2 10.23 2.73C10.7 2.26 11.34 2 12 2Z" fill="white"/> <path d="M11.13 6.56L7.33996 10H5.45996C5.45996 9.79 5.54996 9.59 5.70996 9.44L10.13 5.44C10.44 5.17 10.91 5.19 11.19 5.5C11.47 5.8 11.44 6.28 11.13 6.56Z" fill="white"/> <path d="M18.5197 10H16.6597L12.8597 6.56C12.5597 6.28 12.5297 5.8 12.8097 5.5C13.0897 5.19 13.5597 5.17 13.8697 5.44L18.2697 9.43C18.4397 9.58 18.5197 9.79 18.5197 10Z" fill="white"/> <path d="M17.2596 15.3799H14.0996C13.6896 15.3799 13.3496 15.0399 13.3496 14.6299C13.3496 14.2199 13.6896 13.8799 14.0996 13.8799H17.2596C17.6696 13.8799 18.0096 14.2199 18.0096 14.6299C18.0096 15.0399 17.6696 15.3799 17.2596 15.3799Z" fill="white"/> <path d="M15.1604 18.54H14.1104C13.7004 18.54 13.3604 18.2 13.3604 17.79C13.3604 17.38 13.7004 17.04 14.1104 17.04H15.1604C15.5704 17.04 15.9104 17.38 15.9104 17.79C15.9104 18.2 15.5704 18.54 15.1604 18.54Z" fill="white"/> <path d="M10.9502 15.95V17.97C10.9502 18.16 10.7902 18.32 10.6002 18.32H7.09023C6.90023 18.32 6.74023 18.16 6.74023 17.97V15.91C6.74023 15.7 6.84023 15.5 7.00023 15.36L8.38023 14.26C8.64023 14.05 9.00023 14.05 9.26023 14.26L10.6902 15.4C10.8602 15.53 10.9502 15.73 10.9502 15.95Z" fill="white"/> <g opacity="0.4"> <path d="M18.84 10H5.16C3.41478 10 2 11.4148 2 13.16V18.84C2 20.5852 3.41478 22 5.16 22H18.84C20.5852 22 22 20.5852 22 18.84V13.16C22 11.4148 20.5852 10 18.84 10Z" fill="white"/> </g> </g> <defs> <clipPath id="clip0_4482_10407"> <rect width="24" height="24" fill="white"/> </clipPath> </defs> </svg>
