<svg width="24" height="24" viewBox="0 0 24 24" fill="none" xmlns="http://www.w3.org/2000/svg"> <g clip-path="url(#clip0_2085_393055)"> <g opacity="0.4"> <path d="M21.17 19.0403C20.76 19.0403 20.42 18.7003 20.42 18.2903C20.42 14.4803 17.85 11.1403 14.17 10.1603C13.77 10.0503 13.53 9.64031 13.64 9.24031C13.75 8.84031 14.16 8.60031 14.56 8.71031C18.9 9.87031 21.93 13.8103 21.93 18.2903C21.93 18.7003 21.59 19.0403 21.18 19.0403H21.17Z" fill="white"/> </g> <g opacity="0.4"> <path d="M2.82996 19.0398C2.41996 19.0398 2.07996 18.6998 2.07996 18.2898C2.07996 13.7998 5.10996 9.85984 9.44996 8.70984C9.84996 8.60984 10.26 8.83984 10.37 9.23984C10.48 9.63984 10.24 10.0498 9.83996 10.1598C6.15996 11.1398 3.58996 14.4898 3.58996 18.2898C3.58996 18.6998 3.24996 19.0398 2.83996 19.0398H2.82996Z" fill="white"/> </g> <path d="M18.9 1.95996C18.47 1.95996 18.09 2.14996 17.83 2.44996C17.57 2.14996 17.19 1.95996 16.76 1.95996C15.97 1.95996 15.33 2.59996 15.33 3.38996C15.33 4.54691 16.6704 5.543 17.3882 5.99347C17.6606 6.16436 17.9994 6.16436 18.2717 5.99347C18.9895 5.543 20.33 4.54691 20.33 3.38996C20.33 2.59996 19.69 1.95996 18.9 1.95996Z" fill="white"/> <path d="M7.24004 1.95996C6.85174 1.95996 6.50421 2.1149 6.249 2.36586C6.20559 2.40855 6.13449 2.40855 6.09108 2.36586C5.83587 2.1149 5.48835 1.95996 5.10004 1.95996C4.31004 1.95996 3.67004 2.59996 3.67004 3.38996C3.67004 4.54691 5.0105 5.543 5.72833 5.99347C6.00064 6.16436 6.33945 6.16436 6.61176 5.99347C7.32959 5.543 8.67004 4.54691 8.67004 3.38996C8.67004 2.59996 8.03004 1.95996 7.24004 1.95996Z" fill="white"/> <g opacity="0.4"> <path d="M8.19002 17.3399C8.09002 17.3399 7.98002 17.3199 7.88002 17.2699C7.50002 17.0999 7.33002 16.6599 7.50002 16.2799C8.29002 14.5199 10.05 13.3799 11.99 13.3799C13.93 13.3799 15.68 14.5199 16.48 16.2899C16.65 16.6699 16.48 17.1099 16.1 17.2799C15.72 17.4499 15.28 17.2799 15.11 16.8999C14.56 15.6699 13.34 14.8799 11.99 14.8799C10.64 14.8799 9.42002 15.6699 8.87002 16.8999C8.75002 17.1799 8.47002 17.3399 8.19002 17.3399Z" fill="white"/> </g> <g opacity="0.4"> <path d="M18.51 17.6199C18.17 17.6199 17.85 17.3799 17.78 17.0299C17.19 14.3299 14.76 12.3799 12 12.3799C11.59 12.3799 11.25 12.0399 11.25 11.6299C11.25 11.2199 11.59 10.8799 12 10.8799C15.46 10.8799 18.51 13.3299 19.25 16.7099C19.34 17.1099 19.08 17.5099 18.68 17.5999C18.63 17.6099 18.57 17.6199 18.52 17.6199H18.51Z" fill="white"/> </g> <g opacity="0.4"> <path d="M5.49002 17.6199C5.44002 17.6199 5.38002 17.6199 5.33002 17.5999C4.93002 17.5099 4.67002 17.1099 4.76002 16.7099C5.50002 13.3299 8.54002 10.8799 12.01 10.8799C12.42 10.8799 12.76 11.2199 12.76 11.6299C12.76 12.0399 12.42 12.3799 12.01 12.3799C9.25002 12.3799 6.82002 14.3399 6.23002 17.0299C6.15002 17.3799 5.84002 17.6199 5.50002 17.6199H5.49002Z" fill="white"/> </g> <path d="M9.78002 17.8799C9.82002 17.6899 9.85003 17.4999 9.85003 17.2999C9.85003 15.8499 8.67002 14.6699 7.22002 14.6699C5.86002 14.6699 4.76002 15.6999 4.61002 17.0199C4.28002 16.8699 3.92002 16.7699 3.53002 16.7699C2.08002 16.7699 0.900024 17.9499 0.900024 19.3999C0.900024 20.8499 2.08002 22.0299 3.53002 22.0299H9.32002C10.48 22.0299 11.43 21.0899 11.43 19.9199C11.43 18.9099 10.72 18.0799 9.78002 17.8699V17.8799Z" fill="white"/> <path d="M14.2201 17.8799C14.1801 17.6899 14.1501 17.4999 14.1501 17.2999C14.1501 15.8499 15.3301 14.6699 16.7801 14.6699C18.1401 14.6699 19.2401 15.6999 19.3801 17.0199C19.7101 16.8699 20.0701 16.7699 20.4601 16.7699C21.9101 16.7699 23.0901 17.9499 23.0901 19.3999C23.0901 20.8499 21.9101 22.0299 20.4601 22.0299H14.6701C13.5101 22.0299 12.5601 21.0899 12.5601 19.9199C12.5601 18.9099 13.2701 18.0799 14.2101 17.8699L14.2201 17.8799Z" fill="white"/> <path d="M13.62 6.24023C12.97 6.24023 12.4 6.53023 12 6.98023C11.6 6.53023 11.03 6.24023 10.38 6.24023C9.18997 6.24023 8.21997 7.21023 8.21997 8.40023C8.21997 10.2796 10.5573 11.8746 11.5561 12.4703C11.8315 12.6346 12.1684 12.6346 12.4439 12.4703C13.4426 11.8746 15.78 10.2796 15.78 8.40023C15.78 7.21023 14.81 6.24023 13.62 6.24023Z" fill="white"/> </g> <defs> <clipPath id="clip0_2085_393055"> <rect width="24" height="24" fill="white"/> </clipPath> </defs> </svg>
