<svg width="24" height="24" viewBox="0 0 24 24" fill="none" xmlns="http://www.w3.org/2000/svg"> <path d="M18.15 8.15039L14.3 12.0004L18.15 15.8504" fill="white"/> <path d="M17.5451 7.5454C17.7895 7.30097 18.1574 7.22775 18.4768 7.35985C18.7963 7.49219 19.0051 7.80407 19.0051 8.14989V15.8501C19.005 16.1958 18.7962 16.5078 18.4768 16.6401C18.1574 16.7722 17.7895 16.699 17.5451 16.4546L13.6955 12.604C13.3618 12.2701 13.3617 11.7288 13.6955 11.395L17.5451 7.5454ZM15.508 11.9995L17.2951 13.7856V10.2134L15.508 11.9995Z" fill="white"/> <path d="M5.84998 8.15039L9.69998 12.0004L5.84998 15.8504" fill="white"/> <path d="M5.52283 7.35995C5.8423 7.22766 6.20996 7.30099 6.45447 7.5455L10.3041 11.3951C10.638 11.729 10.638 12.2702 10.3041 12.6041L6.45447 16.4547C6.20998 16.6991 5.84224 16.7725 5.52283 16.6402C5.2034 16.5079 4.99458 16.1959 4.99451 15.8502V8.14999C4.99451 7.80418 5.20334 7.49229 5.52283 7.35995ZM6.70544 13.7848L8.4906 11.9996L6.70544 10.2144V13.7848Z" fill="white"/> <path opacity="0.4" d="M1.14453 22V2C1.14453 1.5278 1.5278 1.14453 2 1.14453C2.4722 1.14453 2.85547 1.5278 2.85547 2V22C2.85547 22.4722 2.4722 22.8555 2 22.8555C1.5278 22.8555 1.14453 22.4722 1.14453 22Z" fill="white"/> <path opacity="0.4" d="M21.1445 22V2C21.1445 1.5278 21.5278 1.14453 22 1.14453C22.4722 1.14453 22.8555 1.5278 22.8555 2V22C22.8555 22.4722 22.4722 22.8555 22 22.8555C21.5278 22.8555 21.1445 22.4722 21.1445 22Z" fill="white"/> </svg>
