<svg width="24" height="24" viewBox="0 0 24 24" fill="none" xmlns="http://www.w3.org/2000/svg"> <g clip-path="url(#clip0_2085_391668)"> <path d="M17.8099 11.1699V15.3199C17.8099 17.6099 15.9499 19.4699 13.6599 19.4699H10.3399C8.04994 19.4699 6.18994 17.6099 6.18994 15.3199V11.1699H17.8099Z" fill="white"/> <g opacity="0.4"> <path d="M17.5399 8.26953H6.45994C6.31082 8.26953 6.18994 8.39041 6.18994 8.53953V11.1695H17.8099V8.53953C17.8099 8.39041 17.6891 8.26953 17.5399 8.26953Z" fill="white"/> </g> <g opacity="0.4"> <path d="M21.73 19.4707C21.8791 19.4707 22.0015 19.592 21.9855 19.7403C21.8513 20.9846 20.7983 21.9607 19.51 21.9607H4.49C3.20171 21.9607 2.14873 20.9846 2.01446 19.7403C1.99846 19.592 2.12088 19.4707 2.27 19.4707H21.73Z" fill="white"/> </g> <path d="M21.1301 10.7598V13.0998C21.1301 13.6698 20.7401 14.1698 20.1901 14.3098L17.8101 14.8998V9.50977H19.8801C20.5701 9.50977 21.1301 10.0698 21.1301 10.7598Z" fill="white"/> <path d="M16.98 7.0193C16.98 7.7093 16.42 8.2693 15.73 8.2693H8.27002C7.58002 8.2693 7.02002 7.7093 7.02002 7.0193C7.02002 6.3293 7.58002 5.7793 8.27002 5.7793H15.73C16.42 5.7793 16.98 6.3293 16.98 7.0193Z" fill="white"/> <g opacity="0.4"> <path d="M15.3201 4.11906C15.3201 5.02906 14.5801 5.77906 13.6601 5.77906H9.93005C9.24005 5.77906 8.68005 5.21906 8.68005 4.52906C8.68005 3.83906 9.24005 3.28906 9.93005 3.28906H12.4101C12.9837 3.28906 13.4675 2.90202 13.6143 2.375C13.6519 2.24005 13.82 2.15901 13.9321 2.24306L14.6601 2.78906C15.0701 3.09906 15.3201 3.58906 15.3201 4.11906Z" fill="white"/> </g> </g> <defs> <clipPath id="clip0_2085_391668"> <rect width="24" height="24" fill="white"/> </clipPath> </defs> </svg>
