<svg width="24" height="24" viewBox="0 0 24 24" fill="none" xmlns="http://www.w3.org/2000/svg"> <g clip-path="url(#clip0_2085_393627)"> <g opacity="0.4"> <path d="M15.64 4.50977H8.35999V7.81977H15.64V4.50977Z" fill="white"/> </g> <path d="M15.64 7.82031V9.31031C15.64 9.67031 15.45 10.0003 15.15 10.1703L12.2512 11.8544C12.0959 11.9446 11.9041 11.9446 11.7488 11.8544L8.84999 10.1703C8.54999 10.0003 8.35999 9.67031 8.35999 9.31031V7.82031H15.64Z" fill="white"/> <path d="M15.64 14.69V19.49H15.14L12.69 17.15C12.3 16.78 11.7 16.78 11.31 17.15L8.85999 19.49H8.35999V14.69C8.35999 14.34 8.54999 14.01 8.84999 13.83L11.7488 12.1459C11.9041 12.0557 12.0959 12.0557 12.2512 12.1459L15.15 13.83C15.45 14.01 15.64 14.34 15.64 14.69Z" fill="white"/> <g opacity="0.4"> <path d="M15.14 19.4896H8.85999L11.31 17.1496C11.7 16.7796 12.3 16.7796 12.69 17.1496L15.14 19.4896Z" fill="white"/> </g> <path d="M17.11 3V3.51C17.11 4.06 16.67 4.51 16.11 4.51H7.89001C7.33001 4.51 6.89001 4.06 6.89001 3.51V3C6.89001 2.45 7.33001 2 7.89001 2H16.11C16.67 2 17.11 2.45 17.11 3Z" fill="white"/> <path d="M17.11 20.4902V21.0002C17.11 21.5502 16.67 22.0002 16.11 22.0002H7.89001C7.33001 22.0002 6.89001 21.5502 6.89001 21.0002V20.4902C6.89001 19.9402 7.33001 19.4902 7.89001 19.4902H16.11C16.67 19.4902 17.11 19.9402 17.11 20.4902Z" fill="white"/> </g> <defs> <clipPath id="clip0_2085_393627"> <rect width="24" height="24" fill="white"/> </clipPath> </defs> </svg>
