<svg width="24" height="24" viewBox="0 0 24 24" fill="none" xmlns="http://www.w3.org/2000/svg"> <g clip-path="url(#clip0_4482_12665)"> <path opacity="0.4" d="M16.6997 22H7.29973C4.35973 22 1.96973 19.61 1.96973 16.67V12.04C1.96973 10.63 2.52973 9.27 3.52973 8.27L8.22973 3.56C10.3097 1.48 13.6897 1.48 15.7697 3.56L20.4697 8.26C21.4697 9.26 22.0297 10.62 22.0297 12.03V16.66C22.0297 19.6 19.6397 21.99 16.6997 21.99V22Z" fill="white"/> <path d="M14.8299 11.8998H13.3299V10.6698C13.3299 9.93984 12.7399 9.33984 11.9999 9.33984C11.2599 9.33984 10.6699 9.92984 10.6699 10.6698V11.8998H9.16992V10.6698C9.16992 9.10984 10.4399 7.83984 11.9999 7.83984C13.5599 7.83984 14.8299 9.10984 14.8299 10.6698V11.8998Z" fill="white"/> <path d="M13.9598 11.6797H10.0498C8.96984 11.6797 8.08984 12.5597 8.08984 13.6397V15.4497C8.08984 16.5297 8.96984 17.4097 10.0498 17.4097H13.9598C15.0398 17.4097 15.9198 16.5297 15.9198 15.4497V13.6397C15.9198 12.5597 15.0398 11.6797 13.9598 11.6797Z" fill="white"/> </g> <defs> <clipPath id="clip0_4482_12665"> <rect width="24" height="24" fill="white"/> </clipPath> </defs> </svg>
