<svg width="24" height="24" viewBox="0 0 24 24" fill="none" xmlns="http://www.w3.org/2000/svg"> <g clip-path="url(#clip0_2085_387583)"> <path d="M11.3225 7.76482C14.5045 7.12843 16.8122 7.78662 18.3382 8.64665C19.0942 9.0728 19.6478 9.54227 20.0159 9.91032C20.2001 10.0945 20.3389 10.2541 20.4339 10.3713C20.4814 10.4299 20.518 10.4783 20.5442 10.5138C20.5573 10.5316 20.5676 10.5466 20.5755 10.5578C20.5793 10.5632 20.5826 10.5677 20.5852 10.5715C20.5865 10.5733 20.5882 10.5749 20.5891 10.5763L20.5901 10.5793H20.5911C20.5914 10.5797 20.5912 10.5802 20.0911 10.9181L20.5911 10.5802C20.823 10.9235 20.7331 11.3903 20.3899 11.6222C20.0467 11.854 19.5808 11.7632 19.3489 11.4201C19.3466 11.4169 19.3426 11.4118 19.3372 11.4045C19.3238 11.3864 19.3004 11.3558 19.2679 11.3156C19.2027 11.2351 19.0991 11.1146 18.9554 10.9709C18.6672 10.6827 18.2205 10.302 17.6018 9.95329C16.3779 9.26346 14.435 8.6721 11.6175 9.23552C8.80998 9.79702 7.07867 11.1918 6.04618 12.4308C5.52724 13.0536 5.18233 13.64 4.96903 14.0666C4.86253 14.2796 4.78888 14.4524 4.74344 14.5676C4.72086 14.6248 4.705 14.6677 4.69559 14.6945C4.69088 14.7079 4.68845 14.7178 4.6868 14.7228L4.68583 14.7248L4.68485 14.7238C4.56129 15.1191 4.14172 15.3395 3.74637 15.216C3.35102 15.0924 3.13064 14.6719 3.25419 14.2765L3.97001 14.5002C3.25421 14.2765 3.25406 14.276 3.25419 14.2756L3.25516 14.2746V14.2726C3.25566 14.2711 3.25643 14.2689 3.25711 14.2668C3.25848 14.2625 3.26088 14.2575 3.26297 14.2511C3.26737 14.2379 3.27282 14.2195 3.28055 14.1974C3.29601 14.1534 3.31895 14.0927 3.34891 14.0168C3.40891 13.8648 3.49946 13.6522 3.62723 13.3967C3.88267 12.8858 4.28802 12.1969 4.89383 11.4699C6.11132 10.009 8.13037 8.40333 11.3225 7.76482ZM19.3509 11.424L19.3499 11.423V11.422L19.3489 11.4201L19.3509 11.424Z" fill="white"/> <path d="M9.26689 9.76184L9.26787 9.76281C9.12285 9.37522 9.31889 8.94346 9.70634 8.79797C10.0941 8.65257 10.5266 8.84882 10.6722 9.23645L10.0511 9.46984C10.6214 9.25602 10.6682 9.23841 10.6722 9.23742L10.6741 9.24133L10.6819 9.26477C10.6865 9.27786 10.6927 9.29467 10.6995 9.31555C10.7132 9.35766 10.7311 9.41565 10.7513 9.48938C10.7917 9.6372 10.8418 9.84882 10.889 10.1232C10.9833 10.6721 11.0654 11.4725 11.0325 12.5236C10.9668 14.6275 10.4423 17.7213 8.65751 21.8009C8.56436 22.0138 8.37712 22.1713 8.15165 22.2277L6.15166 22.7277C5.74988 22.828 5.34292 22.5835 5.24248 22.1818C5.14216 21.78 5.3866 21.373 5.78837 21.2726L7.42509 20.8624C9.02231 17.1115 9.47497 14.3182 9.53251 12.4767C9.56217 11.5278 9.48796 10.8281 9.41044 10.3771C9.37171 10.1517 9.33193 9.98805 9.304 9.88586C9.29007 9.8349 9.27934 9.79879 9.27275 9.77844L9.26689 9.76184Z" fill="white"/> <path d="M13.4426 7.75051C13.8564 7.7354 14.2037 8.05839 14.219 8.47219L14.6926 21.2495H15.97C16.3842 21.2495 16.72 21.5853 16.72 21.9995C16.72 22.4137 16.3842 22.7495 15.97 22.7495H13.97C13.5666 22.7495 13.2359 22.43 13.221 22.0269L12.721 8.52688C12.7059 8.11312 13.0289 7.76584 13.4426 7.75051Z" fill="white"/> <path opacity="0.4" d="M10.97 6C12.0745 6 12.97 5.10457 12.97 4C12.97 2.89543 12.0745 2 10.97 2C9.8654 2 8.96997 2.89543 8.96997 4C8.96997 5.10457 9.8654 6 10.97 6Z" fill="white" stroke="white" stroke-width="1.5" stroke-linecap="round" stroke-linejoin="round"/> <path d="M18.8068 10.4375C19.7765 10.3206 20.6141 10.2716 21.2414 10.3116C21.5498 10.3312 21.8548 10.3753 22.1125 10.4688C22.3246 10.5457 22.6925 10.7262 22.8391 11.1348L22.8654 11.2198L22.8947 11.3897C22.9268 11.775 22.7196 12.0796 22.5842 12.2403C22.4077 12.4497 22.1657 12.6409 21.9084 12.8125C21.3852 13.1614 20.6358 13.5378 19.7385 13.9219C17.933 14.6948 15.4075 15.5485 12.5842 16.3047C9.76095 17.0609 7.1447 17.5869 5.19355 17.8223C4.22381 17.9393 3.3863 17.9882 2.75898 17.9483C2.45075 17.9287 2.14553 17.8854 1.88789 17.792C1.66167 17.71 1.25804 17.509 1.13496 17.0401C1.01305 16.5751 1.2605 16.2032 1.41523 16.0196C1.59163 15.8102 1.8338 15.6198 2.09101 15.4483C2.61418 15.0994 3.36342 14.7221 4.26093 14.3379C6.06648 13.565 8.59265 12.7114 11.4162 11.9551C14.2393 11.1989 16.8558 10.6729 18.8068 10.4375ZM20.6877 11.7989C20.2374 11.8037 19.6658 11.8449 18.9865 11.9268C17.1252 12.1514 14.5807 12.6606 11.8039 13.4043C9.0277 14.148 6.57366 14.9798 4.85175 15.7168C4.22088 15.9869 3.70357 16.238 3.31074 16.46C3.76141 16.4552 4.33366 16.4151 5.01386 16.333C6.87512 16.1085 9.41888 15.5992 12.1955 14.8555C14.9719 14.1118 17.4267 13.2801 19.1486 12.543C19.7791 12.2731 20.2949 12.0208 20.6877 11.7989Z" fill="white"/> </g> <defs> <clipPath id="clip0_2085_387583"> <rect width="24" height="24" fill="white"/> </clipPath> </defs> </svg>
