<svg width="24" height="24" viewBox="0 0 24 24" fill="none" xmlns="http://www.w3.org/2000/svg"> <g clip-path="url(#clip0_2085_383475)"> <path d="M18.22 6.6798V9.60137C18.22 9.91525 18.0726 10.2109 17.822 10.3999L16.31 11.5398L14.2285 9.45838C14.067 9.2968 13.799 9.31886 13.666 9.5047L11.8309 12.0693C11.6833 12.2755 11.3767 12.2755 11.2291 12.0693L9.39392 9.5047C9.26094 9.31886 8.99297 9.2968 8.83139 9.45838L6.74997 11.5398L5.23796 10.3999C4.98733 10.2109 4.83997 9.91525 4.83997 9.60137V6.6798C4.83997 5.8498 5.30997 5.0898 6.05997 4.7098L10.55 2.4698C11.17 2.1598 11.9 2.1598 12.52 2.4698L17.01 4.7098C17.75 5.0898 18.22 5.8498 18.22 6.6798Z" fill="white"/> <g opacity="0.4"> <path d="M16.31 11.5399L12.56 21.2999C12.2 22.2299 10.87 22.2299 10.51 21.2999L6.75 11.5399L9.14 9.1499L11.2291 12.0694C11.3767 12.2756 11.6833 12.2756 11.8309 12.0694L13.92 9.1499L16.31 11.5399Z" fill="white"/> </g> <path d="M19.91 16.7898L18.84 17.8598C18.76 17.9398 18.64 17.9398 18.56 17.8598L17.48 16.7898C17.42 16.7298 17.41 16.6498 17.43 16.5798L18.51 13.7198C18.58 13.5498 18.82 13.5498 18.88 13.7198L19.95 16.5798C19.98 16.6498 19.95 16.7398 19.9 16.7898H19.91Z" fill="white"/> </g> <defs> <clipPath id="clip0_2085_383475"> <rect width="24" height="24" fill="white"/> </clipPath> </defs> </svg>
