<svg width="24" height="24" viewBox="0 0 24 24" fill="none" xmlns="http://www.w3.org/2000/svg"> <g clip-path="url(#clip0_2085_383316)"> <path d="M2 12C2 17.52 6.49 22 12.04 22V2C6.49 2 2 6.48 2 12Z" fill="white"/> <path d="M12.04 22.75C6.09 22.75 1.25 17.93 1.25 12C1.25 6.07 6.09 1.25 12.04 1.25C12.45 1.25 12.79 1.59 12.79 2V22C12.79 22.41 12.45 22.75 12.04 22.75ZM11.29 2.78C6.52 3.16 2.75 7.15 2.75 12C2.75 16.85 6.52 20.84 11.29 21.22V2.78Z" fill="white"/> <g opacity="0.4"> <path d="M13.81 12.75H12.04C11.63 12.75 11.29 12.41 11.29 12C11.29 11.59 11.63 11.25 12.04 11.25H13.81C14.22 11.25 14.56 11.59 14.56 12C14.56 12.41 14.22 12.75 13.81 12.75Z" fill="white"/> </g> <g opacity="0.4"> <path d="M17.91 12.75H16.14C15.73 12.75 15.39 12.41 15.39 12C15.39 11.59 15.73 11.25 16.14 11.25H17.91C18.32 11.25 18.66 11.59 18.66 12C18.66 12.41 18.32 12.75 17.91 12.75Z" fill="white"/> </g> <g opacity="0.4"> <path d="M22 12.75H20.23C19.82 12.75 19.48 12.41 19.48 12C19.48 11.59 19.82 11.25 20.23 11.25H22C22.41 11.25 22.75 11.59 22.75 12C22.75 12.41 22.41 12.75 22 12.75Z" fill="white"/> </g> <g opacity="0.4"> <path d="M13.81 7.75H12.04C11.63 7.75 11.29 7.41 11.29 7C11.29 6.59 11.63 6.25 12.04 6.25H13.81C14.22 6.25 14.56 6.59 14.56 7C14.56 7.41 14.22 7.75 13.81 7.75Z" fill="white"/> </g> <g opacity="0.4"> <path d="M17.91 7.75H16.14C15.73 7.75 15.39 7.41 15.39 7C15.39 6.59 15.73 6.25 16.14 6.25H17.91C18.32 6.25 18.66 6.59 18.66 7C18.66 7.41 18.32 7.75 17.91 7.75Z" fill="white"/> </g> <g opacity="0.4"> <path d="M20.65 7.75H20.23C19.82 7.75 19.48 7.41 19.48 7C19.48 6.59 19.82 6.25 20.23 6.25H20.65C21.06 6.25 21.4 6.59 21.4 7C21.4 7.41 21.06 7.75 20.65 7.75Z" fill="white"/> </g> <g opacity="0.4"> <path d="M13.81 17.75H12.04C11.63 17.75 11.29 17.41 11.29 17C11.29 16.59 11.63 16.25 12.04 16.25H13.81C14.22 16.25 14.56 16.59 14.56 17C14.56 17.41 14.22 17.75 13.81 17.75Z" fill="white"/> </g> <g opacity="0.4"> <path d="M17.91 17.75H16.14C15.73 17.75 15.39 17.41 15.39 17C15.39 16.59 15.73 16.25 16.14 16.25H17.91C18.32 16.25 18.66 16.59 18.66 17C18.66 17.41 18.32 17.75 17.91 17.75Z" fill="white"/> </g> <g opacity="0.4"> <path d="M20.65 17.75H20.23C19.82 17.75 19.48 17.41 19.48 17C19.48 16.59 19.82 16.25 20.23 16.25H20.65C21.06 16.25 21.4 16.59 21.4 17C21.4 17.41 21.06 17.75 20.65 17.75Z" fill="white"/> </g> <g opacity="0.4"> <path d="M16.06 10.25H14.29C13.88 10.25 13.54 9.91 13.54 9.5C13.54 9.09 13.88 8.75 14.29 8.75H16.06C16.47 8.75 16.81 9.09 16.81 9.5C16.81 9.91 16.47 10.25 16.06 10.25Z" fill="white"/> </g> <g opacity="0.4"> <path d="M16.06 15.25H14.29C13.88 15.25 13.54 14.91 13.54 14.5C13.54 14.09 13.88 13.75 14.29 13.75H16.06C16.47 13.75 16.81 14.09 16.81 14.5C16.81 14.91 16.47 15.25 16.06 15.25Z" fill="white"/> </g> <g opacity="0.4"> <path d="M20.16 10.25H18.39C17.98 10.25 17.64 9.91 17.64 9.5C17.64 9.09 17.98 8.75 18.39 8.75H20.16C20.57 8.75 20.91 9.09 20.91 9.5C20.91 9.91 20.57 10.25 20.16 10.25Z" fill="white"/> </g> <g opacity="0.4"> <path d="M20.16 15.25H18.39C17.98 15.25 17.64 14.91 17.64 14.5C17.64 14.09 17.98 13.75 18.39 13.75H20.16C20.57 13.75 20.91 14.09 20.91 14.5C20.91 14.91 20.57 15.25 20.16 15.25Z" fill="white"/> </g> <g opacity="0.4"> <path d="M16.06 5.24023H14.29C13.88 5.24023 13.54 4.90023 13.54 4.49023C13.54 4.08023 13.88 3.74023 14.29 3.74023H16.06C16.47 3.74023 16.81 4.08023 16.81 4.49023C16.81 4.90023 16.47 5.24023 16.06 5.24023Z" fill="white"/> </g> <g opacity="0.4"> <path d="M16.06 20.25H14.29C13.88 20.25 13.54 19.91 13.54 19.5C13.54 19.09 13.88 18.75 14.29 18.75H16.06C16.47 18.75 16.81 19.09 16.81 19.5C16.81 19.91 16.47 20.25 16.06 20.25Z" fill="white"/> </g> <g opacity="0.4"> <path d="M18.8 5.24023H18.38C17.97 5.24023 17.63 4.90023 17.63 4.49023C17.63 4.08023 17.97 3.74023 18.38 3.74023H18.8C19.21 3.74023 19.55 4.08023 19.55 4.49023C19.55 4.90023 19.21 5.24023 18.8 5.24023Z" fill="white"/> </g> <g opacity="0.4"> <path d="M18.8 20.25H18.38C17.97 20.25 17.63 19.91 17.63 19.5C17.63 19.09 17.97 18.75 18.38 18.75H18.8C19.21 18.75 19.55 19.09 19.55 19.5C19.55 19.91 19.21 20.25 18.8 20.25Z" fill="white"/> </g> <path d="M13.81 2.75H12.04C11.63 2.75 11.29 2.41 11.29 2C11.29 1.59 11.63 1.25 12.04 1.25H13.81C14.22 1.25 14.56 1.59 14.56 2C14.56 2.41 14.22 2.75 13.81 2.75Z" fill="white"/> <path d="M13.81 22.7402H12.04C11.63 22.7402 11.29 22.4002 11.29 21.9902C11.29 21.5802 11.63 21.2402 12.04 21.2402H13.81C14.22 21.2402 14.56 21.5802 14.56 21.9902C14.56 22.4002 14.22 22.7402 13.81 22.7402Z" fill="white"/> </g> <defs> <clipPath id="clip0_2085_383316"> <rect width="24" height="24" fill="white"/> </clipPath> </defs> </svg>
