<svg width="24" height="24" viewBox="0 0 24 24" fill="none" xmlns="http://www.w3.org/2000/svg"> <g clip-path="url(#clip0_2085_385487)"> <path d="M12 6.01008C11.59 6.01008 11.25 5.67008 11.25 5.26008V2.08008C11.25 1.67008 11.59 1.33008 12 1.33008C12.41 1.33008 12.75 1.67008 12.75 2.08008V5.26008C12.75 5.67008 12.41 6.01008 12 6.01008Z" fill="white"/> <path opacity="0.4" d="M4.54004 3.85938C4.95004 3.85938 5.29004 4.19938 5.29004 4.60938V7.80273L6.01953 9.63086H3.00977L3.79004 7.71582V4.60938C3.79004 4.19938 4.13004 3.85938 4.54004 3.85938Z" fill="white"/> <path d="M9.51002 19.5898H7.02002V22.0798H9.51002V19.5898Z" fill="white"/> <path d="M16.98 19.5898H14.49V22.0798H16.98V19.5898Z" fill="white"/> <path opacity="0.4" d="M19.4805 3.85938C19.8903 3.85964 20.2305 4.19954 20.2305 4.60938V7.7666L20.9902 9.63086H17.9795L18.7305 7.75V4.60938C18.7305 4.19938 19.0705 3.85938 19.4805 3.85938Z" fill="white"/> <path d="M9.51002 14.6191H6.02002V17.1091H9.51002V14.6191Z" fill="white"/> <path d="M17.98 14.6191H14.49V17.1091H17.98V14.6191Z" fill="white"/> <g opacity="0.4"> <path d="M9.51002 17.1094H7.02002V19.5894H9.51002V17.1094Z" fill="white"/> </g> <g opacity="0.4"> <path d="M16.98 17.1094H14.49V19.5894H16.98V17.1094Z" fill="white"/> </g> <path fill-rule="evenodd" clip-rule="evenodd" d="M6.98256 12.0295C7.00634 12.0887 7.01856 12.1519 7.01856 12.2157L7.01904 17.0991L7.01953 22.0791H2.5C2.22386 22.0791 2 21.8552 2 21.5791V12.2167C2 12.1523 2.01246 12.0884 2.0367 12.0287L3.00977 9.63086H6.01953L6.98256 12.0295ZM4.54004 17.5996C4.13004 17.5996 3.79004 17.9396 3.79004 18.3496V19.5898C3.79017 19.9997 4.13012 20.3398 4.54004 20.3398C4.94996 20.3398 5.28991 19.9997 5.29004 19.5898V18.3496C5.29004 17.9396 4.95004 17.5996 4.54004 17.5996ZM4.54004 13.8594C4.13004 13.8594 3.79004 14.1994 3.79004 14.6094V15.8594C3.79004 16.2694 4.13004 16.6094 4.54004 16.6094C4.95004 16.6094 5.29004 16.2694 5.29004 15.8594V14.6094C5.29004 14.1994 4.95004 13.8594 4.54004 13.8594Z" fill="white"/> <path d="M13.5 7.15039L14.4541 9.54102C14.4776 9.59998 14.4902 9.66307 14.4902 9.72656V22.0801H13.25C12.9739 22.0801 12.75 21.8562 12.75 21.5801V19.5908C12.75 19.1808 12.41 18.8408 12 18.8408C11.59 18.8408 11.25 19.1808 11.25 19.5908V21.5801C11.25 21.8562 11.0261 22.0801 10.75 22.0801H9.50977V9.72656C9.50977 9.66307 9.52236 9.59998 9.5459 9.54102L10.5 7.15039H13.5ZM12.0098 15.1104C11.5999 15.1105 11.2598 15.4504 11.2598 15.8604V17.1104C11.2598 17.5203 11.5999 17.8602 12.0098 17.8604C12.4198 17.8604 12.7598 17.5204 12.7598 17.1104V15.8604C12.7597 15.4504 12.4198 15.1104 12.0098 15.1104ZM12.0098 11.3701C11.6 11.3703 11.2599 11.7103 11.2598 12.1201V13.3701C11.2598 13.78 11.5999 14.12 12.0098 14.1201C12.4198 14.1201 12.7598 13.7801 12.7598 13.3701V12.1201C12.7596 11.7102 12.4197 11.3701 12.0098 11.3701ZM13.5 7.14941H10.5L12 3.36914L13.5 7.14941Z" fill="white"/> <path fill-rule="evenodd" clip-rule="evenodd" d="M21.9628 12.0295C21.9866 12.0887 21.9988 12.1519 21.9988 12.2157L21.9997 21.5791C21.9998 21.8552 21.7759 22.0791 21.4997 22.0791H16.9802L16.9802 12.2167C16.9802 12.1523 16.9927 12.0884 17.0169 12.0287L17.99 9.63086H20.9998L21.9628 12.0295ZM19.5203 17.5996C19.1103 17.5996 18.7703 17.9396 18.7703 18.3496V19.5898C18.7704 19.9997 19.1104 20.3398 19.5203 20.3398C19.9302 20.3398 20.2702 19.9997 20.2703 19.5898V18.3496C20.2703 17.9396 19.9303 17.5996 19.5203 17.5996ZM19.5203 13.8594C19.1103 13.8594 18.7703 14.1994 18.7703 14.6094V15.8594C18.7703 16.2694 19.1103 16.6094 19.5203 16.6094C19.9303 16.6094 20.2703 16.2694 20.2703 15.8594V14.6094C20.2703 14.1994 19.9303 13.8594 19.5203 13.8594Z" fill="white"/> </g> <defs> <clipPath id="clip0_2085_385487"> <rect width="24" height="24" fill="white"/> </clipPath> </defs> </svg>
