<svg width="24" height="24" viewBox="0 0 24 24" fill="none" xmlns="http://www.w3.org/2000/svg"> <g clip-path="url(#clip0_2085_385492)"> <g opacity="0.4"> <path d="M14.5 9.50977H9.52002V11.9998H14.5V9.50977Z" fill="white"/> </g> <path d="M15.85 12C15.77 12.19 15.73 12.4 15.73 12.62V22H13.24V18.22C13.24 17.54 12.69 16.98 12 16.98C11.31 16.98 10.76 17.54 10.76 18.22V22H8.27003V12.62C8.27003 12.4 8.23002 12.19 8.15002 12H15.85Z" fill="white"/> <path d="M14.49 9.50977C14.49 9.50977 14.46 9.53977 14.45 9.54977L14.49 9.50977Z" fill="white"/> <path d="M15.73 7.02023C15.73 8.11023 15.24 8.83024 14.5 9.51023H9.54002C8.79002 8.84023 8.27002 8.12023 8.27002 7.02023C8.27002 4.96023 12 3.24023 12 3.24023C12 3.24023 15.73 4.96023 15.73 7.02023Z" fill="white"/> <path d="M9.56004 9.52977L9.54004 9.50977L9.56004 9.52977Z" fill="white"/> <path d="M12 4.75C11.59 4.75 11.25 4.41 11.25 4V2C11.25 1.59 11.59 1.25 12 1.25C12.41 1.25 12.75 1.59 12.75 2V4C12.75 4.41 12.41 4.75 12 4.75Z" fill="white"/> <g opacity="0.4"> <path d="M8.26999 14.4902H4.48999V22.0002H8.26999V14.4902Z" fill="white"/> </g> <path d="M8.26999 12.6198V14.4898H4.48999V12.6198C4.48999 11.5898 5.36999 10.7598 6.39999 10.7598C7.20999 10.7598 7.90999 11.2798 8.14999 11.9998C8.22999 12.1898 8.26999 12.3998 8.26999 12.6198Z" fill="white"/> <path d="M6.40002 11.5098C5.99002 11.5098 5.65002 11.1698 5.65002 10.7598V9.50977C5.65002 9.09977 5.99002 8.75977 6.40002 8.75977C6.81002 8.75977 7.15002 9.09977 7.15002 9.50977V10.7598C7.15002 11.1698 6.81002 11.5098 6.40002 11.5098Z" fill="white"/> <path d="M19.51 12.6198V14.4898H15.73V12.6198C15.73 12.3998 15.77 12.1898 15.85 11.9998C16.09 11.2798 16.79 10.7598 17.6 10.7598C18.63 10.7598 19.51 11.5898 19.51 12.6198Z" fill="white"/> <g opacity="0.4"> <path d="M19.51 14.4902H15.73V22.0002H19.51V14.4902Z" fill="white"/> </g> <path d="M17.6 11.5098C17.19 11.5098 16.85 11.1698 16.85 10.7598V9.50977C16.85 9.09977 17.19 8.75977 17.6 8.75977C18.01 8.75977 18.35 9.09977 18.35 9.50977V10.7598C18.35 11.1698 18.01 11.5098 17.6 11.5098Z" fill="white"/> <g opacity="0.4"> <path d="M13.24 18.2205V22.0005H10.76V18.2205C10.76 17.5405 11.31 16.9805 12 16.9805C12.69 16.9805 13.24 17.5405 13.24 18.2205Z" fill="white"/> </g> <path d="M11.38 14.4891C11.38 14.8291 11.1 15.1091 10.76 15.1091C10.42 15.1091 10.14 14.8291 10.14 14.4891C10.14 14.1491 10.42 13.8691 10.76 13.8691C11.1 13.8691 11.38 14.1491 11.38 14.4891Z" fill="white"/> <path d="M13.87 14.4891C13.87 14.8291 13.59 15.1091 13.25 15.1091C12.91 15.1091 12.63 14.8291 12.63 14.4891C12.63 14.1491 12.91 13.8691 13.25 13.8691C13.59 13.8691 13.87 14.1491 13.87 14.4891Z" fill="white"/> <path d="M22 16.9805H19.51V22.0005H21.5C21.7762 22.0005 22 21.7766 22 21.5005V16.9805Z" fill="white"/> <path d="M21.25 17.7305C20.84 17.7305 20.5 17.3905 20.5 16.9805V15.7305C20.5 15.3205 20.84 14.9805 21.25 14.9805C21.66 14.9805 22 15.3205 22 15.7305V16.9805C22 17.3905 21.66 17.7305 21.25 17.7305Z" fill="white"/> <path d="M2.75 17.7305C2.34 17.7305 2 17.3905 2 16.9805V15.7305C2 15.3205 2.34 14.9805 2.75 14.9805C3.16 14.9805 3.5 15.3205 3.5 15.7305V16.9805C3.5 17.3905 3.16 17.7305 2.75 17.7305Z" fill="white"/> <path d="M4.49 16.9805H2V21.5005C2 21.7766 2.22386 22.0005 2.5 22.0005H4.49V16.9805Z" fill="white"/> </g> <defs> <clipPath id="clip0_2085_385492"> <rect width="24" height="24" fill="white"/> </clipPath> </defs> </svg>
