<svg width="24" height="24" viewBox="0 0 24 24" fill="none" xmlns="http://www.w3.org/2000/svg"> <g clip-path="url(#clip0_2085_383317)"> <path d="M17.05 14.0596C17.05 15.7096 15.72 17.0596 14.08 17.0596C12.44 17.0596 11.11 15.7096 11.11 14.0596C11.11 13.8596 11.13 13.6596 11.17 13.4596C11.35 12.5696 11.92 11.8196 12.7 11.3996C13.11 11.1896 13.58 11.0596 14.08 11.0596C15.72 11.0596 17.05 12.3996 17.05 14.0596Z" fill="white"/> <g opacity="0.4"> <path d="M12.7 11.4C11.92 11.82 11.35 12.57 11.17 13.46H8.57001C7.83001 13.46 7.34001 12.67 7.68001 12.01L9.38002 8.63003C9.74002 7.91003 10.76 7.89003 11.15 8.60003L12.7 11.4Z" fill="white"/> </g> <path d="M22.0001 22.75C21.8101 22.75 21.6101 22.68 21.4701 22.53L18.1001 19.13C17.8101 18.84 17.8101 18.36 18.1001 18.07C18.3901 17.78 18.8701 17.78 19.1601 18.07L22.5301 21.47C22.8201 21.76 22.8201 22.24 22.5301 22.53C22.3801 22.67 22.1901 22.75 22.0001 22.75Z" fill="white"/> <path d="M5.37006 6.14994C5.18006 6.14994 4.98006 6.07994 4.84006 5.92994L1.47006 2.52994C1.18006 2.23994 1.18006 1.75994 1.47006 1.46994C1.77006 1.17994 2.24006 1.17994 2.53006 1.46994L5.90006 4.86994C6.19006 5.15994 6.19006 5.63994 5.90006 5.92994C5.75006 6.06994 5.56006 6.14994 5.37006 6.14994Z" fill="white"/> <path d="M2.00005 22.7499C1.81005 22.7499 1.62005 22.6799 1.47005 22.5299C1.18005 22.2399 1.17005 21.7599 1.47005 21.4699L4.84005 18.0699C5.13005 17.7799 5.61005 17.7699 5.90005 18.0699C6.19005 18.3599 6.20005 18.8399 5.90005 19.1299L2.53005 22.5299C2.38005 22.6799 2.19005 22.7499 2.00005 22.7499Z" fill="white"/> <path d="M18.63 6.1498C18.44 6.1498 18.2501 6.0798 18.1001 5.9298C17.8101 5.6398 17.8001 5.1598 18.1001 4.8698L21.47 1.4698C21.76 1.1798 22.2401 1.1698 22.5301 1.4698C22.8201 1.7698 22.8301 2.2398 22.5301 2.5298L19.16 5.9298C19.01 6.0798 18.82 6.1498 18.63 6.1498Z" fill="white"/> <g opacity="0.4"> <path d="M22 17.0897C21.59 17.0897 21.25 16.7497 21.25 16.3397V7.65967C21.25 7.24967 21.59 6.90967 22 6.90967C22.41 6.90967 22.75 7.24967 22.75 7.65967V16.3497C22.75 16.7597 22.41 17.0997 22 17.0997V17.0897Z" fill="white"/> </g> <g opacity="0.4"> <path d="M16.75 22.75H7.35999C6.94999 22.75 6.60999 22.41 6.60999 22C6.60999 21.59 6.94999 21.25 7.35999 21.25H16.74C17.15 21.25 17.49 21.59 17.49 22C17.49 22.41 17.15 22.75 16.74 22.75H16.75Z" fill="white"/> </g> <g opacity="0.4"> <path d="M2 17.0897C1.59 17.0897 1.25 16.7497 1.25 16.3397V7.65967C1.25 7.24967 1.59 6.90967 2 6.90967C2.41 6.90967 2.75 7.24967 2.75 7.65967V16.3497C2.75 16.7597 2.41 17.0997 2 17.0997V17.0897Z" fill="white"/> </g> <g opacity="0.4"> <path d="M16.75 2.75H7.35999C6.94999 2.75 6.60999 2.41 6.60999 2C6.60999 1.59 6.94999 1.25 7.35999 1.25H16.74C17.15 1.25 17.49 1.59 17.49 2C17.49 2.41 17.15 2.75 16.74 2.75H16.75Z" fill="white"/> </g> <path d="M22.0001 22.7499H19.4501C19.0401 22.7499 18.7001 22.4099 18.7001 21.9999C18.7001 21.5899 19.0401 21.2499 19.4501 21.2499H21.2501V19.4199C21.2501 19.0099 21.5901 18.6699 22.0001 18.6699C22.4101 18.6699 22.7501 19.0099 22.7501 19.4199V21.9999C22.7501 22.4099 22.4101 22.7499 22.0001 22.7499Z" fill="white"/> <path d="M2 5.33C1.59 5.33 1.25 4.99 1.25 4.58V2C1.25 1.59 1.59 1.25 2 1.25H4.55C4.96 1.25 5.3 1.59 5.3 2C5.3 2.41 4.96 2.75 4.55 2.75H2.75V4.58C2.75 4.99 2.41 5.33 2 5.33Z" fill="white"/> <path d="M4.55 22.7499H2C1.59 22.7499 1.25 22.4099 1.25 21.9999V19.4199C1.25 19.0099 1.59 18.6699 2 18.6699C2.41 18.6699 2.75 19.0099 2.75 19.4199V21.2499H4.55C4.96 21.2499 5.3 21.5899 5.3 21.9999C5.3 22.4099 4.96 22.7499 4.55 22.7499Z" fill="white"/> <path d="M22.0001 5.33C21.5901 5.33 21.2501 4.99 21.2501 4.58V2.75H19.4501C19.0401 2.75 18.7001 2.41 18.7001 2C18.7001 1.59 19.0401 1.25 19.4501 1.25H22.0001C22.4101 1.25 22.7501 1.59 22.7501 2V4.58C22.7501 4.99 22.4101 5.33 22.0001 5.33Z" fill="white"/> </g> <defs> <clipPath id="clip0_2085_383317"> <rect width="24" height="24" fill="white"/> </clipPath> </defs> </svg>
