<svg width="24" height="24" viewBox="0 0 24 24" fill="none" xmlns="http://www.w3.org/2000/svg"> <g clip-path="url(#clip0_4482_12674)"> <path opacity="0.4" d="M2.53027 15.0399V8.96988C2.53027 7.53988 3.29027 6.21988 4.53027 5.50988L10.0003 2.34988C11.2403 1.63988 12.7603 1.63988 14.0003 2.34988L19.4703 5.50988C20.7103 6.21988 21.4703 7.54988 21.4703 8.96988V15.0399C21.4703 16.4699 20.7103 17.7899 19.4703 18.4999L14.0003 21.6599C12.7603 22.3699 11.2403 22.3699 10.0003 21.6599L4.53027 18.4999C3.29027 17.7899 2.53027 16.4599 2.53027 15.0399Z" fill="white"/> <path d="M12.6602 15.1199C12.2502 15.1199 11.9102 14.7799 11.9102 14.3699V9.62988C11.9102 9.21988 12.2502 8.87988 12.6602 8.87988C13.0702 8.87988 13.4102 9.21988 13.4102 9.62988V14.3699C13.4102 14.7799 13.0702 15.1199 12.6602 15.1199Z" fill="white"/> <path d="M14.6302 13.5399H12.6602C12.2502 13.5399 11.9102 13.1999 11.9102 12.7899C11.9102 12.3799 12.2502 12.0399 12.6602 12.0399H14.6302C15.0902 12.0399 15.4602 11.6699 15.4602 11.2099C15.4602 10.7499 15.0902 10.3799 14.6302 10.3799H12.6602C12.2502 10.3799 11.9102 10.0399 11.9102 9.62988C11.9102 9.21988 12.2502 8.87988 12.6602 8.87988H14.6302C15.9102 8.87988 16.9602 9.91988 16.9602 11.2099C16.9602 12.4999 15.9202 13.5399 14.6302 13.5399Z" fill="white"/> <path d="M8.83984 15.1199C8.42984 15.1199 8.08984 14.7799 8.08984 14.3699V9.62988C8.08984 9.21988 8.42984 8.87988 8.83984 8.87988C9.24984 8.87988 9.58984 9.21988 9.58984 9.62988V14.3699C9.58984 14.7799 9.24984 15.1199 8.83984 15.1199Z" fill="white"/> </g> <defs> <clipPath id="clip0_4482_12674"> <rect width="24" height="24" fill="white"/> </clipPath> </defs> </svg>
