<svg width="24" height="24" viewBox="0 0 24 24" fill="none" xmlns="http://www.w3.org/2000/svg"> <g clip-path="url(#clip0_2085_387599)"> <path d="M18.68 20.24C18.74 20.45 18.84 20.66 18.97 20.83C19.11 21.01 19.27 21.15 19.47 21.26C19.66 21.37 19.87 21.44 20.09 21.47C20.31 21.5 20.53 21.48 20.75 21.43C20.96 21.37 21.17 21.27 21.34 21.14C21.52 21 21.66 20.84 21.77 20.64C21.88 20.45 21.95 20.24 21.98 20.02C22.01 19.8 21.99 19.58 21.94 19.36L20.42 13.69C20.35 13.42 20.07 13.26 19.81 13.34L17.51 13.96C17.24 14.03 17.09 14.31 17.16 14.57L18.68 20.24Z" fill="white"/> <path d="M5.31995 20.24C5.25995 20.45 5.15996 20.66 5.02995 20.83C4.88995 21.01 4.72995 21.15 4.52995 21.26C4.33995 21.37 4.12995 21.44 3.90995 21.47C3.68995 21.5 3.46995 21.48 3.24995 21.43C3.03995 21.37 2.82995 21.27 2.65995 21.14C2.47995 21 2.33995 20.84 2.22995 20.64C2.11995 20.45 2.04995 20.24 2.01995 20.02C1.98995 19.8 2.00995 19.58 2.05995 19.36L3.57995 13.69C3.64995 13.42 3.92995 13.26 4.18995 13.34L6.48995 13.96C6.75995 14.03 6.90996 14.31 6.83995 14.57L5.31995 20.24Z" fill="white"/> <g opacity="0.4"> <path d="M16.25 7.50977C16.25 5.16398 14.3458 3.25977 12 3.25977C9.65421 3.25977 7.75 5.16398 7.75 7.50977C7.75 9.85555 9.65421 11.7598 12 11.7598C14.3458 11.7598 16.25 9.85555 16.25 7.50977ZM17.75 7.50977C17.75 10.684 15.1742 13.2598 12 13.2598C8.82579 13.2598 6.25 10.684 6.25 7.50977C6.25 4.33555 8.82579 1.75977 12 1.75977C15.1742 1.75977 17.75 4.33555 17.75 7.50977Z" fill="white"/> <path d="M16.8017 6.78653C17.2011 6.67724 17.6141 6.91254 17.7235 7.31192L19.4032 13.4525C19.5124 13.852 19.2773 14.2641 18.8778 14.3734C18.4783 14.4828 18.0663 14.2475 17.9569 13.8481L16.2763 7.70841C16.167 7.30896 16.4023 6.89595 16.8017 6.78653Z" fill="white"/> <path d="M6.27704 7.3119C6.38651 6.91263 6.79856 6.67727 7.19794 6.78651C7.59746 6.89582 7.83264 7.30885 7.72333 7.70838L6.04364 13.848C5.93432 14.2476 5.52129 14.4827 5.12176 14.3734C4.72255 14.264 4.48732 13.8518 4.59637 13.4525L6.27704 7.3119Z" fill="white"/> </g> </g> <defs> <clipPath id="clip0_2085_387599"> <rect width="24" height="24" fill="white"/> </clipPath> </defs> </svg>
