<svg width="24" height="24" viewBox="0 0 24 24" fill="none" xmlns="http://www.w3.org/2000/svg"> <g clip-path="url(#clip0_2085_382998)"> <path d="M5.71 12.3899C3.25 12.3899 1.25 14.3899 1.25 16.8499C1.25 19.3099 3.25 21.3099 5.71 21.3099C6.89 21.3099 8.04 20.8299 8.86 19.9999C9.7 19.1599 10.17 18.0399 10.17 16.8399C10.17 14.3799 8.17 12.3799 5.71 12.3799V12.3899Z" fill="white"/> <g opacity="0.4"> <path d="M18 22.75C15.38 22.75 13.25 20.62 13.25 18C13.25 16.37 13.69 14.76 14.53 13.36L15.61 11.57C16.31 10.4 16.68 9.06999 16.68 7.70999C16.68 4.97999 14.45 2.74999 11.72 2.74999C8.98001 2.74999 6.76001 4.97999 6.76001 7.70999C6.76001 8.90999 7.13001 10.07 7.80001 11.06L8.88001 12.66C9.73001 13.9 10.18 15.35 10.18 16.85C10.18 17.26 9.85001 17.6 9.43001 17.6C9.02001 17.6 8.68001 17.27 8.68001 16.85C8.68001 15.65 8.31001 14.49 7.64001 13.5L6.56001 11.9C5.71001 10.66 5.26001 9.20999 5.26001 7.70999C5.26001 4.13999 8.16001 1.23999 11.72 1.23999C15.28 1.23999 18.18 4.13999 18.18 7.69999C18.18 9.32999 17.74 10.94 16.9 12.34L15.82 14.13C15.12 15.3 14.75 16.63 14.75 17.99C14.75 19.78 16.21 21.24 18 21.24C19.79 21.24 21.25 19.78 21.25 17.99C21.25 17.58 21.59 17.24 22 17.24C22.41 17.24 22.75 17.58 22.75 17.99C22.75 20.61 20.62 22.74 18 22.74V22.75Z" fill="white"/> </g> </g> <defs> <clipPath id="clip0_2085_382998"> <rect width="24" height="24" fill="white"/> </clipPath> </defs> </svg>
