<svg width="24" height="24" viewBox="0 0 24 24" fill="none" xmlns="http://www.w3.org/2000/svg"> <g clip-path="url(#clip0_4482_9518)"> <g opacity="0.4"> <path d="M19 2H5C3.34315 2 2 3.34315 2 5V17.89C2 19.5469 3.34315 20.89 5 20.89H19C20.6569 20.89 22 19.5469 22 17.89V5C22 3.34315 20.6569 2 19 2Z" fill="white"/> </g> <path d="M22 10.1399H2V11.6399H22V10.1399Z" fill="white"/> <path d="M18.5303 20.8899V21.9999C18.5303 22.4099 18.1903 22.7499 17.7803 22.7499C17.3703 22.7499 17.0303 22.4099 17.0303 21.9999V20.8899H18.5303Z" fill="white"/> <path d="M6.96973 20.8899V21.9999C6.96973 22.4099 6.63973 22.7499 6.21973 22.7499C5.79973 22.7499 5.46973 22.4099 5.46973 21.9999V20.8899H6.96973Z" fill="white"/> <path d="M12.75 10.8899V20.8899H11.25V10.8899C11.25 10.4699 11.59 10.1399 12 10.1399C12.41 10.1399 12.75 10.4699 12.75 10.8899Z" fill="white"/> </g> <defs> <clipPath id="clip0_4482_9518"> <rect width="24" height="24" fill="white"/> </clipPath> </defs> </svg>
