<svg width="24" height="24" viewBox="0 0 24 24" fill="none" xmlns="http://www.w3.org/2000/svg"> <g clip-path="url(#clip0_2085_387604)"> <path d="M0.75 3V2.25C0.75 1.83579 1.08579 1.5 1.5 1.5C1.91421 1.5 2.25 1.83579 2.25 2.25V3C2.25 3.41421 1.91421 3.75 1.5 3.75C1.08579 3.75 0.75 3.41421 0.75 3Z" fill="white"/> <path d="M0.75 3.75V3C0.75 2.58579 1.08579 2.25 1.5 2.25C1.91421 2.25 2.25 2.58579 2.25 3V3.75C2.25 4.16421 1.91421 4.5 1.5 4.5C1.08579 4.5 0.75 4.16421 0.75 3.75Z" fill="white"/> <path d="M4 2.25C4.41421 2.25 4.75 2.58579 4.75 3C4.75 3.41421 4.41421 3.75 4 3.75H1.5C1.08579 3.75 0.75 3.41421 0.75 3C0.75 2.58579 1.08579 2.25 1.5 2.25H4Z" fill="white"/> <path d="M5.75 3V2.25C5.75 1.83579 6.08579 1.5 6.5 1.5C6.91421 1.5 7.25 1.83579 7.25 2.25V3C7.25 3.41421 6.91421 3.75 6.5 3.75C6.08579 3.75 5.75 3.41421 5.75 3Z" fill="white"/> <path d="M5.75 3.75V3C5.75 2.58579 6.08579 2.25 6.5 2.25C6.91421 2.25 7.25 2.58579 7.25 3V3.75C7.25 4.16421 6.91421 4.5 6.5 4.5C6.08579 4.5 5.75 4.16421 5.75 3.75Z" fill="white"/> <path d="M6.5 2.25C6.91421 2.25 7.25 2.58579 7.25 3C7.25 3.41421 6.91421 3.75 6.5 3.75H4C3.58579 3.75 3.25 3.41421 3.25 3C3.25 2.58579 3.58579 2.25 4 2.25H6.5Z" fill="white"/> <path d="M16.75 3V2.25C16.75 1.83579 17.0858 1.5 17.5 1.5C17.9142 1.5 18.25 1.83579 18.25 2.25V3C18.25 3.41421 17.9142 3.75 17.5 3.75C17.0858 3.75 16.75 3.41421 16.75 3Z" fill="white"/> <path d="M16.75 3.75V3C16.75 2.58579 17.0858 2.25 17.5 2.25C17.9142 2.25 18.25 2.58579 18.25 3V3.75C18.25 4.16421 17.9142 4.5 17.5 4.5C17.0858 4.5 16.75 4.16421 16.75 3.75Z" fill="white"/> <path d="M20 2.25C20.4142 2.25 20.75 2.58579 20.75 3C20.75 3.41421 20.4142 3.75 20 3.75H17.5C17.0858 3.75 16.75 3.41421 16.75 3C16.75 2.58579 17.0858 2.25 17.5 2.25H20Z" fill="white"/> <path d="M21.75 3V2.25C21.75 1.83579 22.0858 1.5 22.5 1.5C22.9142 1.5 23.25 1.83579 23.25 2.25V3C23.25 3.41421 22.9142 3.75 22.5 3.75C22.0858 3.75 21.75 3.41421 21.75 3Z" fill="white"/> <path d="M21.75 3.75V3C21.75 2.58579 22.0858 2.25 22.5 2.25C22.9142 2.25 23.25 2.58579 23.25 3V3.75C23.25 4.16421 22.9142 4.5 22.5 4.5C22.0858 4.5 21.75 4.16421 21.75 3.75Z" fill="white"/> <path d="M22.5 2.25C22.9142 2.25 23.25 2.58579 23.25 3C23.25 3.41421 22.9142 3.75 22.5 3.75H20C19.5858 3.75 19.25 3.41421 19.25 3C19.25 2.58579 19.5858 2.25 20 2.25H22.5Z" fill="white"/> <path d="M19.2598 2.87744C19.3278 2.46897 19.7146 2.19235 20.123 2.26025C20.5315 2.32833 20.8081 2.71507 20.7402 3.12353C20.2441 6.10047 19.5848 7.84793 18.0352 8.65869C17.2935 9.04667 16.4256 9.1752 15.4658 9.22119C14.5117 9.26689 13.3412 9.2334 11.999 9.23095C10.6581 9.22852 9.48586 9.25899 8.5332 9.2124C7.57442 9.16548 6.70694 9.03802 5.96582 8.65185C4.41528 7.84388 3.75596 6.10073 3.25976 3.12353C3.19186 2.71507 3.46848 2.32833 3.87695 2.26025C4.28541 2.19235 4.67215 2.46897 4.74023 2.87744C5.24401 5.89993 5.83481 6.89223 6.65918 7.32177C7.10541 7.55424 7.70712 7.67032 8.60742 7.71435C9.51396 7.75866 10.5923 7.7284 12.001 7.73095C13.4085 7.73351 14.4884 7.76648 15.3936 7.72314C16.293 7.68006 16.894 7.56282 17.3398 7.32959C18.1651 6.89783 18.7559 5.90017 19.2598 2.87744Z" fill="white"/> <path d="M9.75 8.5C9.75 8.08579 10.0858 7.75 10.5 7.75C10.9142 7.75 11.25 8.08579 11.25 8.5C11.25 11.9843 11.2519 17.0649 10.2354 22.1475C10.1651 22.4978 9.85738 22.75 9.5 22.75H7.5C7.08579 22.75 6.75 22.4142 6.75 22C6.75 21.5858 7.08579 21.25 7.5 21.25H8.87793C9.74593 16.534 9.75 11.8529 9.75 8.5Z" fill="white"/> <path d="M12.75 8.5C12.75 8.08579 13.0858 7.75 13.5 7.75C13.9142 7.75 14.25 8.08579 14.25 8.5C14.25 11.8529 14.2541 16.534 15.1221 21.25H16.5C16.9142 21.25 17.25 21.5858 17.25 22C17.25 22.4142 16.9142 22.75 16.5 22.75H14.5C14.1426 22.75 13.8349 22.4978 13.7646 22.1475C12.7481 17.0649 12.75 11.9843 12.75 8.5Z" fill="white"/> <path opacity="0.4" d="M12 6C13.1046 6 14 5.10457 14 4C14 2.89543 13.1046 2 12 2C10.8954 2 10 2.89543 10 4C10 5.10457 10.8954 6 12 6Z" fill="white" stroke="white" stroke-width="1.5" stroke-linecap="round" stroke-linejoin="round"/> </g> <defs> <clipPath id="clip0_2085_387604"> <rect width="24" height="24" fill="white"/> </clipPath> </defs> </svg>
