<svg width="24" height="24" viewBox="0 0 24 24" fill="none" xmlns="http://www.w3.org/2000/svg"> <g clip-path="url(#clip0_4482_11645)"> <g opacity="0.4"> <path d="M7 2H17C19.76 2 22 4.24 22 7V17.01C22 19.77 19.76 22 17 22H7C4.24 22 2 19.76 2 17V7C2 4.24 4.24 2 7 2Z" fill="white"/> </g> <path d="M7.69043 17.75C7.28043 17.75 6.94043 17.41 6.94043 17V11C6.94043 10.59 7.28043 10.25 7.69043 10.25C8.10043 10.25 8.44043 10.59 8.44043 11V17C8.44043 17.41 8.10043 17.75 7.69043 17.75Z" fill="white"/> <path d="M16.6904 17.75C16.2804 17.75 15.9404 17.41 15.9404 17V13.5C15.9404 12.54 15.1504 11.75 14.1904 11.75C13.2304 11.75 12.4404 12.54 12.4404 13.5V17C12.4404 17.41 12.1004 17.75 11.6904 17.75C11.2804 17.75 10.9404 17.41 10.9404 17V13.5C10.9404 11.71 12.4004 10.25 14.1904 10.25C15.9804 10.25 17.4404 11.71 17.4404 13.5V17C17.4404 17.41 17.1004 17.75 16.6904 17.75Z" fill="white"/> <path d="M7.69043 8.62988C8.24271 8.62988 8.69043 8.18217 8.69043 7.62988C8.69043 7.0776 8.24271 6.62988 7.69043 6.62988C7.13814 6.62988 6.69043 7.0776 6.69043 7.62988C6.69043 8.18217 7.13814 8.62988 7.69043 8.62988Z" fill="white"/> </g> <defs> <clipPath id="clip0_4482_11645"> <rect width="24" height="24" fill="white"/> </clipPath> </defs> </svg>
