<svg width="24" height="24" viewBox="0 0 24 24" fill="none" xmlns="http://www.w3.org/2000/svg"> <g clip-path="url(#clip0_4482_6407)"> <path opacity="0.4" d="M14.7 12H9.29004C8.74004 12 8.29004 12.45 8.29004 13V20C8.29004 21.1 9.19004 22 10.29 22H13.7C14.8 22 15.7 21.1 15.7 20V13C15.7 12.45 15.26 12 14.7 12Z" fill="white"/> <path d="M14.5799 12.0003H9.42993V10.0703C9.42993 9.52031 9.87993 9.07031 10.4299 9.07031H13.5799C14.1299 9.07031 14.5799 9.52031 14.5799 10.0703V12.0003Z" fill="white"/> <path opacity="0.4" d="M13.17 3.38966L11.22 2.08966C10.86 1.84966 10.38 2.10966 10.38 2.53966V9.06966H13.61V4.21966C13.62 3.88966 13.45 3.57966 13.17 3.38966Z" fill="white"/> <path d="M15.7 14.25H8.30005V15.75H15.7V14.25Z" fill="white"/> </g> <defs> <clipPath id="clip0_4482_6407"> <rect width="24" height="24" fill="white"/> </clipPath> </defs> </svg>
