<svg width="24" height="24" viewBox="0 0 24 24" fill="none" xmlns="http://www.w3.org/2000/svg"> <g clip-path="url(#clip0_4482_763)"> <path opacity="0.4" d="M12 22C17.5228 22 22 17.5228 22 12C22 6.47715 17.5228 2 12 2C6.47715 2 2 6.47715 2 12C2 17.5228 6.47715 22 12 22Z" fill="white"/> <path d="M15.68 13.62C15.68 14.4 15.4 15.17 14.87 15.78C14.24 16.51 13.27 17 12 17C11.39 17 10.84 16.91 10.36 16.72C9.06005 16.24 8.27004 15.15 8.31004 13.62C8.37004 11.25 10.9601 10.72 10.9101 7C10.9201 7 15.68 9.82 15.68 13.62Z" fill="white"/> </g> <defs> <clipPath id="clip0_4482_763"> <rect width="24" height="24" fill="white"/> </clipPath> </defs> </svg>
