<svg width="24" height="24" viewBox="0 0 24 24" fill="none" xmlns="http://www.w3.org/2000/svg"> <g clip-path="url(#clip0_4482_9848)"> <g opacity="0.4"> <path d="M21.9998 6.00977V11.9998C21.9998 13.6498 20.6598 14.9998 18.9998 14.9998H16.9998V11.9998C16.9998 10.3498 15.6598 8.99977 13.9998 8.99977H7.00977V6.00977C7.00977 4.34977 8.35977 3.00977 10.0098 3.00977H18.9998C20.6598 3.00977 21.9998 4.34977 21.9998 6.00977Z" fill="white"/> </g> <path d="M13.9995 9H5.01953C3.35953 9 2.01953 10.35 2.01953 12V17.99C2.01953 19.65 3.35953 20.99 5.01953 20.99H13.9995C15.6595 20.99 16.9995 19.65 16.9995 17.99V12C16.9995 10.35 15.6595 9 13.9995 9ZM13.7995 13.69L10.7895 14.97C10.3795 15.15 9.94953 15.23 9.50953 15.23C9.06953 15.23 8.63953 15.14 8.22953 14.97L5.21953 13.67C4.83953 13.51 4.65953 13.07 4.81953 12.69C4.98953 12.31 5.42953 12.13 5.80953 12.3L8.81953 13.59C9.25953 13.78 9.75953 13.78 10.1995 13.59L12.8095 12.48L13.2095 12.31C13.5895 12.15 14.0295 12.32 14.1995 12.71C14.2795 12.91 14.2695 13.13 14.1895 13.31C14.1195 13.48 13.9795 13.62 13.7995 13.69Z" fill="white"/> </g> <defs> <clipPath id="clip0_4482_9848"> <rect width="24" height="24" fill="white"/> </clipPath> </defs> </svg>
