<svg width="24" height="24" viewBox="0 0 24 24" fill="none" xmlns="http://www.w3.org/2000/svg"> <g clip-path="url(#clip0_4482_15989)"> <path d="M14.3101 10.4003C14.4201 10.3403 14.54 10.3003 14.66 10.2803C14.55 10.3003 14.44 10.3403 14.34 10.4003L13.17 11.0003L13.16 10.9903L14.3101 10.4003Z" fill="white"/> <path opacity="0.4" d="M20.9301 2.88L17.0301 9.65C16.5101 9.08 15.76 8.74 14.95 8.74C14.49 8.74 14.02 8.85 13.6 9.08L12.4101 9.69L12.0001 9.91L11.5201 9.65L10.3801 9.07C9.98006 8.85 9.5101 8.74 9.0501 8.74C8.2401 8.74 7.49002 9.09 6.97002 9.66L3.07 2.88C2.79 2.4 3.02001 2 3.58001 2H7.3001C7.6801 2 8.13 2.26 8.32 2.59L12.0101 8.97L15.6801 2.59C15.8701 2.27 16.32 2 16.7 2H20.4201C20.9801 2 21.2101 2.4 20.9301 2.88Z" fill="white"/> <path d="M8.67004 10.2998C8.28004 10.4298 7.95995 10.7298 7.81995 11.1298L7.80005 11.0998C7.95005 10.7098 8.28004 10.4098 8.67004 10.2998Z" fill="white"/> <path d="M16.95 18.5302L15.08 18.8002C14.64 18.8702 14.2601 19.1602 14.0601 19.5602L13.22 21.2502C12.97 21.7502 12.49 22.0002 12 22.0002C11.51 22.0002 11.0301 21.7502 10.7801 21.2502L9.93998 19.5602C9.73998 19.1602 9.36008 18.8702 8.92008 18.8002L7.05009 18.5302C5.94009 18.3802 5.49008 17.0002 6.29008 16.2102L7.65006 14.9002C7.96006 14.5802 8.12007 14.1302 8.03007 13.7002L7.72001 11.8402C7.67001 11.5802 7.71008 11.3402 7.79008 11.1302C7.79008 11.1202 7.80009 11.1102 7.80009 11.1002C7.95009 10.7102 8.28008 10.4102 8.67008 10.3002C8.74008 10.2802 8.80004 10.2702 8.87004 10.2602C8.93004 10.2402 8.99009 10.2402 9.05009 10.2402C9.16009 10.2402 9.26004 10.2502 9.37004 10.2802C9.42004 10.2902 9.48007 10.3002 9.53007 10.3202C9.59007 10.3402 9.66001 10.3702 9.72001 10.4002L10.82 10.9702L10.8101 10.9802L11.36 11.2702C11.56 11.3802 11.78 11.4302 12 11.4302C12.22 11.4302 12.4401 11.3802 12.6401 11.2702L13.1401 11.0002L13.1601 10.9902L14.3101 10.4002C14.3701 10.3702 14.44 10.3402 14.5 10.3202C14.55 10.3002 14.6101 10.2902 14.6601 10.2802C14.7601 10.2502 14.85 10.2402 14.95 10.2402C15.02 10.2402 15.0801 10.2502 15.1501 10.2602C15.6101 10.3202 16.01 10.6302 16.19 11.0602C16.29 11.3002 16.3301 11.5502 16.2801 11.8402L15.97 13.7002C15.88 14.1302 16.04 14.5802 16.35 14.9002L17.71 16.2102C18.51 17.0002 18.06 18.3802 16.95 18.5302Z" fill="white"/> <path d="M9.71997 10.4003C9.65997 10.3703 9.59003 10.3403 9.53003 10.3203C9.58003 10.3403 9.63994 10.3703 9.68994 10.4003L10.8101 10.9803L10.8199 10.9703L9.71997 10.4003Z" fill="black"/> </g> <defs> <clipPath id="clip0_4482_15989"> <rect width="24" height="24" fill="white"/> </clipPath> </defs> </svg>
