<svg width="24" height="24" viewBox="0 0 24 24" fill="none" xmlns="http://www.w3.org/2000/svg"> <g clip-path="url(#clip0_2085_387400)"> <g opacity="0.4"> <path d="M14.0553 3.29793C14.1086 3.06303 13.8509 2.88122 13.6474 3.01015L6.60997 7.47C5.14997 8.39 3.67997 9.41 2.89997 10.95C2.34997 12.03 2.03997 13.21 1.99997 14.42C1.94997 16.48 2.71997 18.44 4.13997 19.86C5.55997 21.28 7.51997 22.05 9.57997 22C10.79 21.97 11.97 21.66 13.05 21.1C14.58 20.31 15.6 18.84 16.53 17.39L20.9898 10.3525C21.1188 10.1491 20.9369 9.89141 20.702 9.94469L19.4 10.24C18.39 10.47 17.6 9.38 18.13 8.49L21.4532 2.91698C21.5967 2.67624 21.3237 2.40324 21.083 2.5468L15.51 5.87C14.62 6.4 13.54 5.61 13.76 4.6L14.0553 3.29793Z" fill="white"/> </g> <path d="M13.78 11.7502C13.5999 11.4402 13.37 11.1502 13.11 10.8902C12.1899 9.96023 10.97 9.49023 9.74995 9.49023C8.52995 9.49023 7.31995 9.95023 6.38995 10.8902C5.98995 11.2902 5.67995 11.7302 5.45995 12.2102C4.60995 13.9702 4.92995 16.1502 6.38995 17.6102C6.70995 17.9302 7.05995 18.1902 7.43995 18.4002C8.14995 18.8002 8.94995 19.0102 9.74995 19.0102C10.97 19.0102 12.18 18.5402 13.11 17.6102C13.38 17.3402 13.61 17.0502 13.8 16.7302C14.74 15.2102 14.74 13.2602 13.78 11.7502ZM12.08 16.5602C11.47 17.1702 10.62 17.5002 9.75995 17.5002C9.30843 17.5002 8.85691 17.3986 8.44249 17.2078C8.31885 17.1508 8.26854 17.0056 8.31323 16.8771C8.45417 16.4716 8.56912 15.9856 8.66995 15.3302C8.84212 14.1432 8.54626 12.9726 7.49967 12.4434C7.33429 12.3597 7.26171 12.142 7.3902 12.0085C7.4127 11.9851 7.43593 11.9623 7.45995 11.9402C8.06995 11.3302 8.88995 10.9902 9.75995 10.9902C10.63 10.9902 11.45 11.3302 12.06 11.9502C12.24 12.1302 12.4 12.3402 12.51 12.5302C12.51 12.5302 12.5416 12.6927 12.4903 12.7565C11.7111 13.7243 11.7324 14.9514 12.4103 15.8094C12.4837 15.9022 12.5011 16.031 12.4353 16.1293C12.3355 16.2782 12.2183 16.4219 12.08 16.5602Z" fill="white"/> </g> <defs> <clipPath id="clip0_2085_387400"> <rect width="24" height="24" fill="white"/> </clipPath> </defs> </svg>
