<svg width="24" height="24" viewBox="0 0 24 24" fill="none" xmlns="http://www.w3.org/2000/svg"> <g clip-path="url(#clip0_4482_6210)"> <path d="M14.5 15.75H10.5C10.09 15.75 9.75 15.41 9.75 15C9.75 14.59 10.09 14.25 10.5 14.25H14.5C14.91 14.25 15.25 14.59 15.25 15C15.25 15.41 14.91 15.75 14.5 15.75Z" fill="white"/> <path opacity="0.4" d="M21 10.71V17.29C21 20.12 19.58 22 16.28 22H8.72C5.42 22 4 20.12 4 17.29V9.9H4.8C4.96 9.9 5.18 9.99 5.31 10.1L5.99001 10.79C6.27001 11.07 6.71999 11.07 7.00999 10.79L7.69 10.1C7.82 9.99 8.04 9.9 8.2 9.9H9.17999C9.56999 9.9 9.89999 9.57 9.89999 9.18V8.2C9.89999 8.04 9.99001 7.82 10.1 7.69L10.79 7.01C10.93 6.86 11 6.68 11 6.5C11 6.32 10.93 6.15 10.8 6H16.28C19.58 6 21 7.88 21 10.71Z" fill="white"/> <path d="M11 6.5C11 6.68 10.93 6.86 10.79 7.01L10.1 7.69C9.99 7.82 9.89999 8.04 9.89999 8.2V9.18C9.89999 9.57 9.56999 9.9 9.17999 9.9H8.19999C8.03999 9.9 7.82 9.99 7.69 10.1L7.00999 10.79C6.71999 11.07 6.27 11.07 5.99 10.79L5.30999 10.1C5.17999 9.99 4.96 9.9 4.8 9.9H3.82C3.43 9.9 3.1 9.57 3.1 9.18V8.2C3.1 8.04 3.00999 7.82 2.89999 7.69L2.21 7.01C1.93 6.72 1.93 6.27 2.21 5.99L2.89999 5.31C3.00999 5.18 3.1 4.96 3.1 4.8V3.82C3.1 3.43 3.43 3.1 3.82 3.1H4.8C4.96 3.1 5.17999 3.01 5.30999 2.9L5.99 2.21C6.27 1.93 6.71999 1.93 7.00999 2.21L7.69 2.9C7.82 3.01 8.03999 3.1 8.19999 3.1H9.17999C9.56999 3.1 9.89999 3.43 9.89999 3.82V4.8C9.89999 4.96 9.99 5.18 10.1 5.31L10.79 5.99L10.8 6C10.93 6.15 11 6.32 11 6.5Z" fill="white"/> </g> <defs> <clipPath id="clip0_4482_6210"> <rect width="24" height="24" fill="white"/> </clipPath> </defs> </svg>
