<svg width="24" height="24" viewBox="0 0 24 24" fill="none" xmlns="http://www.w3.org/2000/svg"> <g clip-path="url(#clip0_2085_393829)"> <path d="M11.88 17.49C11.47 17.49 11.13 17.15 11.13 16.74V12C11.13 11.59 11.47 11.25 11.88 11.25C12.29 11.25 12.63 11.59 12.63 12V16.74C12.63 17.15 12.29 17.49 11.88 17.49Z" fill="white"/> <g opacity="0.4"> <path d="M20.8201 15.9401V8.05012C20.8201 7.30012 20.4201 6.60012 19.7701 6.23012L12.9301 2.28012C12.2801 1.90012 11.4801 1.90012 10.8201 2.28012L3.98005 6.23012C3.33005 6.61012 2.93005 7.30012 2.93005 8.05012V15.9401C2.93005 16.6901 3.33005 17.3901 3.98005 17.7601L10.8201 21.7101C11.4701 22.0901 12.2701 22.0901 12.9301 21.7101L19.7701 17.7601C20.4201 17.3801 20.8201 16.6901 20.8201 15.9401Z" fill="white"/> </g> <path d="M11.88 12.7496C11.63 12.7496 11.39 12.6296 11.24 12.3996C11.02 12.0496 11.13 11.5896 11.48 11.3696L15.69 8.73956C16.04 8.51956 16.5 8.62956 16.72 8.97956C16.94 9.32956 16.83 9.78956 16.48 10.0096L12.27 12.6396C12.15 12.7196 12.01 12.7496 11.87 12.7496H11.88Z" fill="white"/> <path d="M11.87 12.7496C11.73 12.7496 11.6 12.7096 11.47 12.6396L7.25996 10.0096C6.90996 9.78956 6.79996 9.32956 7.01996 8.97956C7.23996 8.62956 7.69996 8.51956 8.04996 8.73956L12.26 11.3696C12.61 11.5896 12.72 12.0496 12.5 12.3996C12.36 12.6296 12.11 12.7496 11.86 12.7496H11.87Z" fill="white"/> </g> <defs> <clipPath id="clip0_2085_393829"> <rect width="24" height="24" fill="white"/> </clipPath> </defs> </svg>
