<svg width="24" height="24" viewBox="0 0 24 24" fill="none" xmlns="http://www.w3.org/2000/svg"> <g clip-path="url(#clip0_2085_387996)"> <path d="M12 7.73C10.21 7.73 8.76001 6.28 8.76001 4.49C8.76001 2.7 10.21 1.25 12 1.25C13.79 1.25 15.24 2.7 15.24 4.49C15.24 6.28 13.79 7.73 12 7.73ZM12 2.75C11.04 2.75 10.26 3.53 10.26 4.49C10.26 5.45 11.04 6.23 12 6.23C12.96 6.23 13.74 5.45 13.74 4.49C13.74 3.53 12.96 2.75 12 2.75Z" fill="white"/> <g opacity="0.4"> <path d="M17.3273 14.0553C17.216 14.1207 17.2153 14.2814 17.3261 14.3477L19.72 15.7805C19.1 18.8605 16.66 21.3005 13.57 21.9305L12.1278 19.545C12.0612 19.4347 11.9008 19.4358 11.8357 19.547L10.44 21.9305C7.35002 21.3105 4.90002 18.8605 4.28002 15.7705L6.65385 14.348C6.76466 14.2816 6.76385 14.1207 6.65237 14.0555L4.27002 12.6605C4.89002 9.55047 7.34002 7.10047 10.46 6.48047L11.8261 8.83273C11.891 8.94434 12.0516 8.94585 12.1185 8.83548L13.54 6.49047C16.65 7.11047 19.09 9.55047 19.72 12.6505L17.3273 14.0553Z" fill="white"/> </g> <path d="M12 7.56035C11.59 7.56035 11.25 7.22035 11.25 6.81035V5.11035C11.25 4.70035 11.59 4.36035 12 4.36035C12.41 4.36035 12.75 4.70035 12.75 5.11035V6.81035C12.75 7.22035 12.41 7.56035 12 7.56035Z" fill="white"/> <path d="M11.8579 11.6968C11.925 11.5945 12.0749 11.5945 12.142 11.6968L12.9 12.8505L13.7386 14.1271C13.7759 14.1838 13.7759 14.2571 13.7386 14.3138L12.9 15.5905L12.142 16.7442C12.0749 16.8464 11.925 16.8464 11.8579 16.7442L11.1 15.5905L10.2613 14.3138C10.224 14.2571 10.224 14.1838 10.2613 14.1271L11.1 12.8505L11.8579 11.6968Z" fill="white"/> <path d="M13.55 6.49984L12.1285 8.84486C12.0616 8.95523 11.9009 8.95372 11.8361 8.84211L10.47 6.48984C10.97 6.38984 11.48 6.33984 12.01 6.33984C12.54 6.33984 13.06 6.38984 13.56 6.49984H13.55Z" fill="white"/> <path d="M13.5699 21.9298C13.0599 22.0398 12.5399 22.0898 11.9999 22.0898C11.4599 22.0898 10.9399 22.0398 10.4399 21.9298L11.8356 19.5464C11.9007 19.4351 12.0611 19.434 12.1278 19.5443L13.5699 21.9298Z" fill="white"/> <path d="M6.65235 14.0551C6.76382 14.1204 6.76464 14.2813 6.65383 14.3477L4.28 15.7702C4.17 15.2602 4.12 14.7402 4.12 14.2102C4.12 13.6802 4.17 13.1602 4.27 12.6602L6.65235 14.0551Z" fill="white"/> <path d="M19.88 14.2202C19.88 14.7602 19.83 15.2802 19.72 15.7902L17.3353 14.3576C17.2247 14.2911 17.2255 14.1306 17.3368 14.0652L19.73 12.6602C19.83 13.1702 19.88 13.6902 19.88 14.2202Z" fill="white"/> </g> <defs> <clipPath id="clip0_2085_387996"> <rect width="24" height="24" fill="white"/> </clipPath> </defs> </svg>
