<svg width="24" height="24" viewBox="0 0 24 24" fill="none" xmlns="http://www.w3.org/2000/svg"> <g clip-path="url(#clip0_2085_383002)"> <path d="M14.3499 5.09994C14.1599 5.09994 13.9699 5.02994 13.8199 4.87994L11.4699 2.52994C11.1799 2.23994 11.1799 1.75994 11.4699 1.46994C11.7599 1.17994 12.2399 1.17994 12.5299 1.46994L14.8799 3.81994C15.1699 4.10994 15.1699 4.58994 14.8799 4.87994C14.7299 5.02994 14.5399 5.09994 14.3499 5.09994Z" fill="white"/> <path d="M9.64997 5.09994C9.45997 5.09994 9.26997 5.02994 9.11997 4.87994C8.82997 4.58994 8.82997 4.10994 9.11997 3.81994L11.47 1.46994C11.76 1.17994 12.24 1.17994 12.53 1.46994C12.82 1.75994 12.82 2.23994 12.53 2.52994L10.18 4.87994C10.03 5.02994 9.83997 5.09994 9.64997 5.09994Z" fill="white"/> <path d="M7.29 9.43002C7.1 9.43002 6.91001 9.36002 6.76001 9.21002L4.41 6.86002C4.12 6.57002 4.12 6.09002 4.41 5.80002C4.7 5.51002 5.18 5.51002 5.47 5.80002L7.82001 8.15002C8.11001 8.44002 8.11001 8.92002 7.82001 9.21002C7.67001 9.36002 7.48001 9.43002 7.29 9.43002Z" fill="white"/> <path d="M2.59003 9.43002C2.40003 9.43002 2.21003 9.36002 2.06003 9.21002C1.77003 8.92002 1.77003 8.44002 2.06003 8.15002L4.41003 5.80002C4.70003 5.51002 5.18003 5.51002 5.47003 5.80002C5.76003 6.09002 5.76003 6.57002 5.47003 6.86002L3.12003 9.21002C2.97003 9.36002 2.78003 9.43002 2.59003 9.43002Z" fill="white"/> <path d="M21.41 9.43002C21.22 9.43002 21.03 9.36002 20.88 9.21002L18.53 6.86002C18.24 6.57002 18.24 6.09002 18.53 5.80002C18.82 5.51002 19.3 5.51002 19.59 5.80002L21.94 8.15002C22.23 8.44002 22.23 8.92002 21.94 9.21002C21.79 9.36002 21.6 9.43002 21.41 9.43002Z" fill="white"/> <path d="M16.71 9.43002C16.52 9.43002 16.33 9.36002 16.18 9.21002C15.89 8.92002 15.89 8.44002 16.18 8.15002L18.53 5.80002C18.82 5.51002 19.3 5.51002 19.59 5.80002C19.88 6.09002 19.88 6.57002 19.59 6.86002L17.24 9.21002C17.09 9.36002 16.9 9.43002 16.71 9.43002Z" fill="white"/> <g opacity="0.4"> <path d="M13.18 16.8701H10.83C7.16995 16.8701 4.19995 13.8901 4.19995 10.2401V6.33008C4.19995 5.92008 4.53995 5.58008 4.94995 5.58008C5.35995 5.58008 5.69995 5.92008 5.69995 6.33008C5.69995 6.35008 5.69995 6.37008 5.69995 6.40008V10.2401C5.69995 13.0701 7.99995 15.3701 10.83 15.3701H13.18C16.01 15.3701 18.31 13.0701 18.31 10.2401V6.33008C18.31 5.92008 18.65 5.58008 19.06 5.58008C19.47 5.58008 19.81 5.92008 19.81 6.33008V10.2401C19.81 13.9001 16.83 16.8701 13.18 16.8701Z" fill="white"/> </g> <path d="M15.53 20.3999H8.46997C8.05997 20.3999 7.71997 20.0599 7.71997 19.6499C7.71997 19.2399 8.05997 18.8999 8.46997 18.8999H15.53C15.94 18.8999 16.28 19.2399 16.28 19.6499C16.28 20.0599 15.94 20.3999 15.53 20.3999Z" fill="white"/> <path d="M12 22.75C11.59 22.75 11.25 22.41 11.25 22V2C11.25 1.59 11.59 1.25 12 1.25C12.41 1.25 12.75 1.59 12.75 2V22C12.75 22.41 12.41 22.75 12 22.75Z" fill="white"/> </g> <defs> <clipPath id="clip0_2085_383002"> <rect width="24" height="24" fill="white"/> </clipPath> </defs> </svg>
