<svg width="24" height="24" viewBox="0 0 24 24" fill="none" xmlns="http://www.w3.org/2000/svg"> <g clip-path="url(#clip0_4482_7991)"> <path d="M5.95008 9.59009H3.58008C3.17008 9.59009 2.83008 9.25009 2.83008 8.84009C2.83008 8.43009 3.17008 8.09009 3.58008 8.09009H5.95008C6.36008 8.09009 6.70008 8.43009 6.70008 8.84009C6.70008 9.25009 6.36008 9.59009 5.95008 9.59009Z" fill="white"/> <path d="M5.95008 15.91H3.58008C3.17008 15.91 2.83008 15.57 2.83008 15.16C2.83008 14.75 3.17008 14.41 3.58008 14.41H5.95008C6.36008 14.41 6.70008 14.75 6.70008 15.16C6.70008 15.57 6.36008 15.91 5.95008 15.91Z" fill="white"/> <path d="M5.95 12.75H2C1.59 12.75 1.25 12.41 1.25 12C1.25 11.59 1.59 11.25 2 11.25H5.95C6.36 11.25 6.7 11.59 6.7 12C6.7 12.41 6.36 12.75 5.95 12.75Z" fill="white"/> <g opacity="0.4"> <path d="M12.5098 22.23C9.84977 22.23 7.24977 21.19 5.28977 19.23C4.99977 18.94 4.99977 18.46 5.28977 18.17C5.57977 17.88 6.05977 17.88 6.34977 18.17C8.84977 20.67 12.5898 21.42 15.8598 20.06C19.1298 18.71 21.2498 15.54 21.2498 12C21.2498 8.46003 19.1398 5.30003 15.8598 3.94003C12.5898 2.58003 8.85977 3.32003 6.34977 5.83003C6.05977 6.12003 5.57977 6.12003 5.28977 5.83003C4.99977 5.54003 4.99977 5.06003 5.28977 4.77003C8.21977 1.84003 12.5998 0.970027 16.4298 2.55003C20.2598 4.14003 22.7398 7.84003 22.7398 12C22.7398 16.16 20.2598 19.86 16.4298 21.45C15.1598 21.98 13.8298 22.23 12.5098 22.23Z" fill="white"/> </g> <path d="M9.97957 9.24L10.9396 11.6C11.0396 11.85 11.0396 12.14 10.9396 12.39L9.97957 14.75C9.80957 15.16 9.91957 15.63 10.2496 15.93C10.5796 16.23 11.0596 16.28 11.4596 16.07L17.2396 12.92C17.5796 12.74 17.7896 12.38 17.7896 12C17.7896 11.62 17.5796 11.26 17.2396 11.08L11.4596 7.93C11.0696 7.72 10.5896 7.77 10.2496 8.07C9.91957 8.37 9.80957 8.84 9.97957 9.25V9.24Z" fill="white"/> </g> <defs> <clipPath id="clip0_4482_7991"> <rect width="24" height="24" fill="white"/> </clipPath> </defs> </svg>
