<svg width="24" height="24" viewBox="0 0 24 24" fill="none" xmlns="http://www.w3.org/2000/svg"> <g clip-path="url(#clip0_2085_391574)"> <path d="M19.07 4.93C17.18 3.04 14.67 2 12 2C9.33 2 6.82 3.04 4.93 4.93C3.04 6.82 2 9.33 2 12H5.73C5.73 8.54 8.54 5.73 12 5.73C15.46 5.73 18.27 8.54 18.27 12H22C22 9.33 20.96 6.82 19.07 4.93Z" fill="white"/> <path opacity="0.4" d="M22 12C22 14.67 20.96 17.18 19.07 19.07C17.18 20.96 14.67 22 12 22C9.33 22 6.82 20.96 4.93 19.07C3.04 17.18 2 14.67 2 12H5.73C5.73 15.46 8.54 18.27 12 18.27C15.46 18.27 18.27 15.46 18.27 12H22Z" fill="white"/> </g> <defs> <clipPath id="clip0_2085_391574"> <rect width="24" height="24" fill="white"/> </clipPath> </defs> </svg>
