<svg width="24" height="24" viewBox="0 0 24 24" fill="none" xmlns="http://www.w3.org/2000/svg"> <g clip-path="url(#clip0_2085_387403)"> <g opacity="0.4"> <path d="M19.15 14.8501V20.0001C19.15 21.1001 18.26 22.0001 17.15 22.0001H5.83997C4.72997 22.0001 3.83997 21.1001 3.83997 20.0001V14.8501H19.15Z" fill="white"/> </g> <path d="M20.1701 13.3198V13.8298C20.1701 14.3898 19.7201 14.8498 19.1501 14.8498H3.84006C3.27006 14.8498 2.81006 14.3898 2.81006 13.8298V13.3198C2.81006 12.7598 3.27006 12.2998 3.84006 12.2998H19.1501C19.7201 12.2998 20.1701 12.7598 20.1701 13.3198Z" fill="white"/> <g opacity="0.4"> <path d="M19.15 12.3001H3.83997C3.83997 8.07014 7.25997 4.64014 11.49 4.64014C12.9 4.64014 14.22 5.02014 15.36 5.69014C15.92 6.02014 16.44 6.42014 16.91 6.88014C17 6.97014 17.08 7.06014 17.16 7.15014C17.17 7.17014 17.19 7.18014 17.21 7.20014C17.22 7.20014 17.24 7.22014 17.25 7.24014C18.42 8.58014 19.15 10.3501 19.15 12.3001Z" fill="white"/> </g> <path d="M18.61 5.88016L17.25 7.24016C17.25 7.24016 17.22 7.21016 17.21 7.20016C17.19 7.18016 17.17 7.17016 17.16 7.15016C17.08 7.06016 17 6.97016 16.91 6.88016C16.44 6.42016 15.92 6.02016 15.36 5.69016L16.89 4.16016L18.61 5.88016Z" fill="white"/> <path d="M20.47 5.74L20.2 6.02C19.8 6.41 19.15 6.41 18.75 6.02L18.61 5.88L16.89 4.16L16.76 4.02C16.36 3.62 16.36 2.97 16.76 2.58L17.03 2.3C17.43 1.9 18.08 1.9 18.48 2.3L20.47 4.3C20.87 4.7 20.87 5.34 20.47 5.74Z" fill="white"/> </g> <defs> <clipPath id="clip0_2085_387403"> <rect width="24" height="24" fill="white"/> </clipPath> </defs> </svg>
