<svg width="24" height="24" viewBox="0 0 24 24" fill="none" xmlns="http://www.w3.org/2000/svg"> <g clip-path="url(#clip0_4482_14050)"> <g opacity="0.4"> <path d="M22.8896 10.58L22.1396 10.65H21.3896C21.3896 10.57 21.3696 10.47 21.2696 10.38L19.5596 8.83V13.42C19.5596 13.83 19.2196 14.17 18.8096 14.17C18.3996 14.17 18.0596 13.83 18.0596 13.42V5C18.0596 3.76 17.0496 2.75 15.8096 2.75H8.47965C7.23965 2.75 6.22965 3.76 6.22965 5V13.42C6.22965 13.83 5.88965 14.17 5.47965 14.17C5.06965 14.17 4.72965 13.83 4.72965 13.42V8.79L3.00965 10.38C2.92965 10.45 2.88965 10.54 2.88965 10.64C2.86965 11.04 2.53965 11.38 2.13965 11.38H2.12965C1.71965 11.37 1.38965 11.06 1.38965 10.65V10.61C1.40965 10.08 1.61965 9.61 1.99965 9.28L4.72965 6.75V5C4.72965 2.93 6.40965 1.25 8.47965 1.25H15.8096C17.8796 1.25 19.5596 2.93 19.5596 5V6.8L22.2896 9.27C22.6597 9.62 22.8696 10.08 22.8896 10.58Z" fill="white"/> </g> <path d="M22.1396 10.6504V20.8604C22.1396 21.4904 21.6397 22.0004 21.0296 22.0004H3.24965C2.63965 22.0004 2.13965 21.4904 2.13965 20.8604V10.6504C2.13965 11.0004 2.30965 11.3504 2.62965 11.5704L10.8996 17.1704C11.6496 17.6804 12.6396 17.6804 13.3896 17.1704L21.6496 11.5704C21.9796 11.3504 22.1396 11.0004 22.1396 10.6504Z" fill="white"/> <path d="M21.0296 22.7504H3.24965C2.21965 22.7504 1.38965 21.9004 1.38965 20.8604V10.6504C1.38965 10.2404 1.72965 9.90039 2.13965 9.90039C2.54965 9.90039 2.88965 10.2404 2.88965 10.6504C2.88965 10.7704 2.94965 10.8804 3.04965 10.9504L11.3196 16.5504C11.8096 16.8904 12.4696 16.8904 12.9696 16.5504L21.2296 10.9504C21.3696 10.8604 21.3896 10.7204 21.3896 10.6504C21.3896 10.2404 21.7296 9.90039 22.1396 9.90039C22.5496 9.90039 22.8896 10.2404 22.8896 10.6504V20.8604C22.8896 21.9004 22.0597 22.7504 21.0296 22.7504ZM2.88965 12.6504V20.8604C2.88965 21.0804 3.04965 21.2504 3.24965 21.2504H21.0296C21.2297 21.2504 21.3896 21.0804 21.3896 20.8604V12.6504L13.8096 17.7904C12.7996 18.4804 11.4896 18.4804 10.4796 17.7904L2.88965 12.6504Z" fill="white"/> <g opacity="0.4"> <path d="M13.5096 6.44043C14.6896 6.44043 15.4696 7.47043 15.4696 8.44043C15.4696 10.4004 12.1996 12.0004 12.1396 12.0004C12.0796 12.0004 8.80957 10.4004 8.80957 8.44043C8.80957 7.48043 9.59957 6.44043 10.7696 6.44043C11.4396 6.44043 11.8796 6.75043 12.1396 7.03043C12.3996 6.75043 12.8396 6.44043 13.5096 6.44043Z" fill="white"/> </g> </g> <defs> <clipPath id="clip0_4482_14050"> <rect width="24" height="24" fill="white"/> </clipPath> </defs> </svg>
