<svg width="24" height="24" viewBox="0 0 24 24" fill="none" xmlns="http://www.w3.org/2000/svg"> <g clip-path="url(#clip0_2085_391682)"> <g opacity="0.4"> <path d="M20.5499 6.50977V17.1298C20.5499 18.0398 20.1399 18.8598 19.5 19.4098C19.08 19.7698 18.57 20.0098 18.01 20.0898C17.86 20.1198 17.71 20.1298 17.55 20.1298H6.44995C6.28995 20.1298 6.13995 20.1198 5.98995 20.0898C5.42995 20.0098 4.91995 19.7698 4.49995 19.4098C3.85995 18.8598 3.44995 18.0398 3.44995 17.1298V6.50977H20.5499Z" fill="white"/> </g> <path d="M5.98999 20.0902V22.0002C5.98999 22.4102 5.64999 22.7502 5.23999 22.7502C4.82999 22.7502 4.48999 22.4102 4.48999 22.0002V19.5002C4.48999 19.5002 4.48999 19.4402 4.49999 19.4102C4.91999 19.7702 5.42999 20.0102 5.98999 20.0902Z" fill="white"/> <path d="M19.51 19.5002V22.0002C19.51 22.4102 19.17 22.7502 18.76 22.7502C18.35 22.7502 18.01 22.4102 18.01 22.0002V20.0902C18.57 20.0102 19.08 19.7702 19.5 19.4102C19.51 19.4402 19.51 19.4702 19.51 19.5002Z" fill="white"/> <path d="M15.98 9.00977H8.03003C6.93003 9.00977 6.03003 9.90977 6.03003 11.0098V15.5298C6.03003 16.6298 6.93003 17.5298 8.03003 17.5298H15.98C17.08 17.5298 17.98 16.6298 17.98 15.5298V11.0098C17.98 9.90977 17.08 9.00977 15.98 9.00977ZM13.99 12.0698H10.01C9.60003 12.0698 9.26003 11.7298 9.26003 11.3198C9.26003 10.9098 9.60003 10.5698 10.01 10.5698H13.99C14.4 10.5698 14.74 10.9098 14.74 11.3198C14.74 11.7298 14.4 12.0698 13.99 12.0698Z" fill="white"/> <path d="M17.55 2H6.44995C4.79995 2 3.44995 3.34 3.44995 5V6.51H20.5499V5C20.5499 3.34 19.2 2 17.55 2ZM10.5 5H8.49995C8.08995 5 7.74995 4.66 7.74995 4.25C7.74995 3.84 8.08995 3.5 8.49995 3.5H10.5C10.91 3.5 11.25 3.84 11.25 4.25C11.25 4.66 10.91 5 10.5 5ZM15.5 5H13.5C13.09 5 12.75 4.66 12.75 4.25C12.75 3.84 13.09 3.5 13.5 3.5H15.5C15.91 3.5 16.25 3.84 16.25 4.25C16.25 4.66 15.91 5 15.5 5Z" fill="white"/> </g> <defs> <clipPath id="clip0_2085_391682"> <rect width="24" height="24" fill="white"/> </clipPath> </defs> </svg>
