<svg width="24" height="24" viewBox="0 0 24 24" fill="none" xmlns="http://www.w3.org/2000/svg"> <g clip-path="url(#clip0_4482_12235)"> <path d="M11.9997 7.13C16.0997 7.13 18.7597 6.28 19.7797 5.55V4.94C19.7797 3.32 16.2997 2 11.9997 2C7.69973 2 4.21973 3.32 4.21973 4.94V5.55C5.23973 6.28 7.89973 7.13 11.9997 7.13Z" fill="white"/> <g opacity="0.4"> <path d="M11.9997 8.63C9.05973 8.63 6.09973 8.16 4.21973 7.25V19.06C4.21973 20.68 4.99973 22 11.9997 22C18.9997 22 19.7797 20.68 19.7797 19.06V7.25C17.9097 8.16 14.9497 8.63 11.9997 8.63Z" fill="white"/> </g> <path d="M13.0595 14.2202L14.1995 13.0802C14.4895 12.7902 14.4895 12.3102 14.1995 12.0202C13.9095 11.7302 13.4295 11.7302 13.1395 12.0202L11.9995 13.1602L10.8595 12.0202C10.5695 11.7302 10.0895 11.7302 9.79953 12.0202C9.50953 12.3102 9.50953 12.7902 9.79953 13.0802L10.9395 14.2202L9.79953 15.3602C9.50953 15.6502 9.50953 16.1302 9.79953 16.4202C9.94953 16.5702 10.1395 16.6402 10.3295 16.6402C10.5195 16.6402 10.7095 16.5702 10.8595 16.4202L11.9995 15.2802L13.1395 16.4202C13.2895 16.5702 13.4795 16.6402 13.6695 16.6402C13.8595 16.6402 14.0495 16.5702 14.1995 16.4202C14.4895 16.1302 14.4895 15.6502 14.1995 15.3602L13.0595 14.2202Z" fill="white"/> </g> <defs> <clipPath id="clip0_4482_12235"> <rect width="24" height="24" fill="white"/> </clipPath> </defs> </svg>
