<svg width="24" height="24" viewBox="0 0 24 24" fill="none" xmlns="http://www.w3.org/2000/svg"> <g clip-path="url(#clip0_4418_4255)"> <path opacity="0.4" d="M21 22.75H3C2.59 22.75 2.25 22.41 2.25 22C2.25 21.59 2.59 21.25 3 21.25H21C21.41 21.25 21.75 21.59 21.75 22C21.75 22.41 21.41 22.75 21 22.75Z" fill="white"/> <path opacity="0.4" d="M21 2.75H3C2.59 2.75 2.25 2.41 2.25 2C2.25 1.59 2.59 1.25 3 1.25H21C21.41 1.25 21.75 1.59 21.75 2C21.75 2.41 21.41 2.75 21 2.75Z" fill="white"/> <path d="M14.2999 15.3604L12.7499 16.9104V6.70039L14.2999 8.25039C14.4499 8.40039 14.6399 8.47039 14.8299 8.47039C15.0199 8.47039 15.2099 8.40039 15.3599 8.25039C15.6499 7.96039 15.6499 7.48039 15.3599 7.19039L12.5299 4.36039C12.2499 4.08039 11.7499 4.08039 11.4699 4.36039L8.63986 7.19039C8.34986 7.48039 8.34986 7.96039 8.63986 8.25039C8.92986 8.54039 9.40986 8.54039 9.69986 8.25039L11.2499 6.70039V16.9104L9.69986 15.3604C9.40986 15.0704 8.92986 15.0704 8.63986 15.3604C8.34986 15.6504 8.34986 16.1304 8.63986 16.4204L11.4699 19.2504C11.6099 19.3904 11.7999 19.4704 11.9999 19.4704C12.1999 19.4704 12.3899 19.3904 12.5299 19.2504L15.3599 16.4204C15.6499 16.1304 15.6499 15.6504 15.3599 15.3604C15.0699 15.0704 14.5899 15.0704 14.2999 15.3604Z" fill="white"/> </g> <defs> <clipPath id="clip0_4418_4255"> <rect width="24" height="24" fill="white"/> </clipPath> </defs> </svg>
