<svg width="24" height="24" viewBox="0 0 24 24" fill="none" xmlns="http://www.w3.org/2000/svg"> <g clip-path="url(#clip0_4482_13657)"> <path opacity="0.4" d="M15.9499 2H8.16992C5.4085 2 3.16992 4.23858 3.16992 7V17C3.16992 19.7614 5.4085 22 8.16992 22H15.9499C18.7113 22 20.9499 19.7614 20.9499 17V7C20.9499 4.23858 18.7113 2 15.9499 2Z" fill="white"/> <path d="M12.9994 6.80957H10.3994C9.98941 6.80957 9.64941 7.14957 9.64941 7.55957V13.1196C9.64941 13.5296 9.98941 13.8696 10.3994 13.8696C10.8094 13.8696 11.1494 13.5296 11.1494 13.1196V12.0096H12.9994C14.4294 12.0096 15.5994 10.8396 15.5994 9.40957C15.5994 7.97957 14.4294 6.80957 12.9994 6.80957ZM12.9994 10.4996H11.1494V8.30957H12.9994C13.5994 8.30957 14.0994 8.79957 14.0994 9.40957C14.0994 10.0196 13.6094 10.5096 12.9994 10.5096V10.4996Z" fill="white"/> <path d="M13.9999 16.8096H10.1299C9.71988 16.8096 9.37988 17.1496 9.37988 17.5596C9.37988 17.9696 9.71988 18.3096 10.1299 18.3096H13.9999C14.4099 18.3096 14.7499 17.9696 14.7499 17.5596C14.7499 17.1496 14.4099 16.8096 13.9999 16.8096Z" fill="white"/> </g> <defs> <clipPath id="clip0_4482_13657"> <rect width="24" height="24" fill="white"/> </clipPath> </defs> </svg>
