<svg width="24" height="24" viewBox="0 0 24 24" fill="none" xmlns="http://www.w3.org/2000/svg"> <g clip-path="url(#clip0_4418_4710)"> <path d="M20.0201 10.7004L17.2201 12.4704L11.5601 6.81041L13.3201 4.01041C14.1401 2.72041 15.7801 2.66041 16.9901 3.86041L20.1701 7.04041C21.3001 8.17041 21.2301 9.93041 20.0201 10.7004Z" fill="white"/> <path opacity="0.4" d="M14.7098 19.9495L5.99981 20.9795C5.39981 21.0495 4.85981 20.9595 4.40981 20.7395C3.91981 20.4995 3.53981 20.1195 3.29981 19.6295C3.07981 19.1795 2.99981 18.6395 3.05981 18.0495L4.09981 9.3295C4.34981 7.1495 5.15981 6.4395 7.45981 6.5695L11.5798 6.8195L17.2398 12.4795L17.4798 16.5995C17.6898 18.8995 16.8998 19.6995 14.7098 19.9495Z" fill="white"/> <path d="M7.98004 17.1497L4.40004 20.7297C3.91004 20.4897 3.53004 20.1097 3.29004 19.6197L6.88004 16.0297C7.19004 15.7297 7.69004 15.7297 7.99004 16.0297C8.30004 16.3497 8.30004 16.8397 7.98004 17.1497Z" fill="white"/> </g> <defs> <clipPath id="clip0_4418_4710"> <rect width="24" height="24" fill="white"/> </clipPath> </defs> </svg>
