<svg width="24" height="24" viewBox="0 0 24 24" fill="none" xmlns="http://www.w3.org/2000/svg"> <g clip-path="url(#clip0_4482_6237)"> <path d="M15 17.8101H9C8.59 17.8101 8.25 17.4701 8.25 17.0601C8.25 16.6501 8.59 16.3101 9 16.3101H15C15.41 16.3101 15.75 16.6501 15.75 17.0601C15.75 17.4701 15.41 17.8101 15 17.8101Z" fill="white"/> <path opacity="0.4" d="M20.5 9.60994V17.2199C20.5 20.0499 19.08 21.9399 15.78 21.9399H8.22C4.91 21.9399 3.5 20.0499 3.5 17.2199V9.60994C3.5 7.05994 4.65 5.26994 7.29 4.93994C7.28 4.99994 7.28 5.04994 7.28 5.10994V5.59994C7.28 6.24994 7.8 6.76994 8.45 6.76994H15.55C16.2 6.76994 16.72 6.24994 16.72 5.59994V5.10994C16.72 5.04994 16.72 4.99994 16.71 4.93994C19.35 5.27994 20.5 7.06994 20.5 9.60994Z" fill="white"/> <path d="M16.72 5.10981V5.5998C16.72 6.2498 16.2 6.76981 15.55 6.76981H8.45003C7.80003 6.76981 7.28003 6.2498 7.28003 5.5998V5.10981C7.28003 5.04981 7.28003 4.9998 7.29003 4.9398C7.38003 4.3698 7.86003 3.9398 8.45003 3.9398C8.88003 3.9398 9.29003 3.6898 9.49003 3.2998L9.79003 2.69981C9.99003 2.29981 10.39 2.0498 10.83 2.0498H13.17C13.6 2.0498 14.01 2.2998 14.21 2.6898L14.51 3.28981C14.71 3.68981 15.11 3.92981 15.55 3.92981C16.15 3.92981 16.63 4.35981 16.71 4.92981C16.72 4.99981 16.72 5.05981 16.72 5.10981Z" fill="white"/> <path d="M13.51 13.1499H10.51C10.1 13.1499 9.76001 12.8099 9.76001 12.3999C9.76001 11.9899 10.1 11.6499 10.51 11.6499H13.51C13.92 11.6499 14.26 11.9899 14.26 12.3999C14.26 12.8099 13.92 13.1499 13.51 13.1499Z" fill="white"/> <path d="M12.01 14.6499C11.6 14.6499 11.26 14.3099 11.26 13.8999V10.8999C11.26 10.4899 11.6 10.1499 12.01 10.1499C12.42 10.1499 12.76 10.4899 12.76 10.8999V13.8999C12.76 14.3099 12.42 14.6499 12.01 14.6499Z" fill="white"/> </g> <defs> <clipPath id="clip0_4482_6237"> <rect width="24" height="24" fill="white"/> </clipPath> </defs> </svg>
