<svg width="24" height="24" viewBox="0 0 24 24" fill="none" xmlns="http://www.w3.org/2000/svg"> <g clip-path="url(#clip0_4418_4671)"> <path d="M12.52 1.5H11.52C10.69 1.5 10.02 2.17 10.02 3V4C10.02 4.83 10.69 5.5 11.52 5.5H12.52C13.35 5.5 14.02 4.83 14.02 4V3C14.02 2.17 13.35 1.5 12.52 1.5Z" fill="white"/> <path d="M4.27002 10.6699H3.27002C2.44002 10.6699 1.77002 11.3399 1.77002 12.1699V13.1699C1.77002 13.9999 2.44002 14.6699 3.27002 14.6699H4.27002C5.10002 14.6699 5.77002 13.9999 5.77002 13.1699V12.1699C5.77002 11.3399 5.09002 10.6699 4.27002 10.6699Z" fill="white"/> <path d="M20.73 10.6699H19.73C18.9 10.6699 18.23 11.3399 18.23 12.1699V13.1699C18.23 13.9999 18.9 14.6699 19.73 14.6699H20.73C21.56 14.6699 22.23 13.9999 22.23 13.1699V12.1699C22.23 11.3399 21.56 10.6699 20.73 10.6699Z" fill="white"/> <path d="M3.75 11.9203C3.34 11.9203 3 11.5803 3 11.1703C3 6.90031 6.2 3.31033 10.44 2.81033C10.84 2.77033 11.22 3.0603 11.27 3.4703C11.32 3.8803 11.02 4.25032 10.61 4.30032C7.13 4.71032 4.5 7.66031 4.5 11.1703C4.5 11.5803 4.16 11.9203 3.75 11.9203Z" fill="white"/> <path d="M20.25 11.9198C19.84 11.9198 19.5 11.5798 19.5 11.1698C19.5 7.67979 16.89 4.72981 13.43 4.30981C13.02 4.25981 12.73 3.88979 12.78 3.47979C12.83 3.06979 13.21 2.77982 13.62 2.82982C17.83 3.33982 21.01 6.9298 21.01 11.1798C21 11.5798 20.67 11.9198 20.25 11.9198Z" fill="white"/> <path d="M13.2898 22.0111H10.7198C9.79983 22.0111 9.11982 21.2711 9.28982 20.4711L9.70983 18.6211H14.2998L14.7198 20.4711C14.9098 21.3211 14.2698 22.0111 13.2898 22.0111Z" fill="white"/> <path opacity="0.4" d="M16.0698 17.0508L14.2998 18.6208H9.70981L7.93981 17.0508C6.90981 16.2108 6.90981 15.5608 7.68981 14.5708L10.8098 10.6308C11.0298 10.3608 11.2798 10.1709 11.5498 10.0809C11.8398 9.98086 12.1598 9.98086 12.4498 10.0809C12.7198 10.1809 12.9698 10.3608 13.1898 10.6308L16.3098 14.5708C17.0898 15.5608 17.0598 16.1808 16.0698 17.0508Z" fill="white"/> </g> <defs> <clipPath id="clip0_4418_4671"> <rect width="24" height="24" fill="white"/> </clipPath> </defs> </svg>
