<svg width="24" height="24" viewBox="0 0 24 24" fill="none" xmlns="http://www.w3.org/2000/svg"> <g clip-path="url(#clip0_4482_6743)"> <path opacity="0.4" d="M18.24 13L18.15 13.87L18 15.37L17.5 20.33C17.41 21.28 16.62 22 15.67 22H8.33003C7.38003 22 6.59003 21.28 6.50003 20.33L6.00003 15.37L5.85003 13.87L5.76003 13C5.67003 11.92 6.51003 11 7.59003 11H16.41C17.49 11 18.33 11.92 18.24 13Z" fill="white"/> <path d="M10.87 11.0003H8.34001L7.61001 6.20033C7.34001 6.24033 7.09001 6.05033 7.05001 5.78033L6.78001 4.05033C6.77001 3.96033 6.76001 3.88033 6.76001 3.79033C6.76001 2.94033 7.39001 2.19033 8.25001 2.06033C9.21001 1.91033 10.1 2.57033 10.24 3.52033L10.51 5.25033C10.55 5.53033 10.36 5.78033 10.09 5.82033L10.87 11.0003Z" fill="white"/> <path d="M17.7999 6.88953L17.1099 3.22953C17.0299 2.79953 16.4799 2.66953 16.2199 3.01953L13.9999 6.00953C14.1499 6.14953 14.3199 6.27953 14.4899 6.38953C14.5299 6.41953 14.5799 6.43953 14.6199 6.45953L13.5699 10.9995H16.1399L17.0499 7.01953C17.0999 7.00953 17.1499 7.01953 17.1999 7.00953C17.3999 6.98953 17.5999 6.94953 17.7999 6.88953Z" fill="white"/> <path d="M18.15 13.8691L18 15.3691H5.99998L5.84998 13.8691H18.15Z" fill="white"/> </g> <defs> <clipPath id="clip0_4482_6743"> <rect width="24" height="24" fill="white"/> </clipPath> </defs> </svg>
