<svg width="24" height="24" viewBox="0 0 24 24" fill="none" xmlns="http://www.w3.org/2000/svg"> <g clip-path="url(#clip0_4482_6485)"> <path opacity="0.4" d="M17.46 17.9996H6.54005C5.63005 17.9996 5.10004 16.9696 5.62004 16.2296L10.9 8.82957H8.72004C7.81004 8.82957 7.28004 7.79957 7.81004 7.05957L11.09 2.46957C11.53 1.83957 12.47 1.83957 12.91 2.46957L16.19 7.05957C16.72 7.79957 16.19 8.82957 15.28 8.82957H13.1L18.38 16.2296C18.9 16.9696 18.37 17.9996 17.46 17.9996Z" fill="white"/> <path d="M12 22.63C11.59 22.63 11.25 22.29 11.25 21.88V16C11.25 15.59 11.59 15.25 12 15.25C12.41 15.25 12.75 15.59 12.75 16V21.88C12.75 22.3 12.41 22.63 12 22.63Z" fill="white"/> </g> <defs> <clipPath id="clip0_4482_6485"> <rect width="24" height="24" fill="white"/> </clipPath> </defs> </svg>
