<svg width="24" height="24" viewBox="0 0 24 24" fill="none" xmlns="http://www.w3.org/2000/svg"> <g clip-path="url(#clip0_4482_9006)"> <g opacity="0.4"> <path d="M14.9101 17.8501L15.8101 16.9501C16.2401 16.5201 16.2401 15.8201 15.8101 15.3801L9.59012 9.16015C9.16012 8.73015 8.45012 8.73015 8.02012 9.16015L4.63012 12.5401C4.20012 12.9701 4.20012 13.6701 4.63012 14.1101L8.72012 18.2001C9.15012 18.6301 9.85012 18.6301 10.2901 18.2001L11.6301 16.8601L13.5501 18.0101C13.9901 18.2801 14.5501 18.2101 14.9101 17.8501Z" fill="white"/> </g> <path d="M13.2104 12.7901L16.9904 9.01012L19.4604 11.7401C19.8904 12.1701 20.6004 12.1701 21.0304 11.7401L21.6704 11.1001C22.0104 10.7601 22.0904 10.2501 21.8804 9.82012L20.3304 5.74012L18.0704 3.48012C17.5904 3.00012 16.8104 3.00012 16.3304 3.48012L10.1104 9.70012" fill="white"/> <path d="M5.16 14.6401L2.36 17.4401C2.13 17.6701 2 17.9801 2 18.3101C2 18.6401 2.13 18.9501 2.36 19.1801L3.7 20.5201C3.93 20.7501 4.24 20.8801 4.57 20.8801C4.9 20.8801 5.21 20.7501 5.44 20.5201H5.47L8.26 17.7301" fill="white"/> </g> <defs> <clipPath id="clip0_4482_9006"> <rect width="24" height="24" fill="white"/> </clipPath> </defs> </svg>
