<svg width="24" height="24" viewBox="0 0 24 24" fill="none" xmlns="http://www.w3.org/2000/svg"> <g clip-path="url(#clip0_2085_391439)"> <path d="M12.02 4.58042V6.41042C10.2 6.27042 8.63002 6.71042 7.40002 8.07042C7.62002 5.10042 9.43002 4.02042 10.71 3.63042C11.36 3.43042 12.02 3.90042 12.02 4.58042Z" fill="white"/> <path d="M5.48999 15.24C4.87461 15.7268 4.17486 16.4245 3.49923 17.3873C3.40486 17.5218 3.2111 17.5416 3.101 17.4196C2.11378 16.326 1.55489 14.8948 2.63412 13.6213C2.72672 13.512 2.72642 13.3482 2.63351 13.2392C1.5548 11.9736 2.11428 10.5424 3.10183 9.44116C3.21153 9.31882 3.40543 9.33785 3.50029 9.47202C4.23504 10.5112 4.99231 11.2409 5.62999 11.74C5.34999 12.96 5.27999 14.02 5.48999 15.24Z" fill="white"/> <g opacity="0.4"> <path d="M19.87 14.5195C19.53 16.4995 18.05 20.2995 11.68 20.2995C10.74 20.2995 9.93002 20.1695 9.24002 19.9495L9.38002 19.4295C9.61002 18.5495 8.65002 17.8495 7.88002 18.3295L7.21002 18.7495C6.12002 17.7095 5.67002 16.3395 5.49002 15.2395C5.28002 14.0195 5.35002 12.9595 5.63002 11.7395C5.88002 10.6395 6.39002 9.18954 7.40002 8.06954C8.63002 6.70954 10.2 6.26954 12.02 6.40954C13.25 6.49954 14.22 6.84954 15 7.33954C17.98 9.25954 17.98 13.3395 17.98 13.3395H18.88C19.51 13.3395 19.98 13.8995 19.87 14.5195Z" fill="white"/> </g> <path d="M9.37998 19.43L9.23998 19.95L8.99998 20.88C8.83998 21.47 8.19998 21.79 7.63998 21.55L6.48998 21.05C5.73998 20.74 5.65998 19.71 6.34998 19.29L7.20998 18.75L7.87998 18.33C8.64998 17.85 9.60998 18.55 9.37998 19.43Z" fill="white"/> <path d="M14.38 8.71027C13.97 8.71027 13.63 8.37027 13.63 7.96027V5.04027C13.63 2.97027 15.29 1.28027 17.34 1.28027C19.13 1.28027 21.05 2.79027 21.05 5.04027C21.05 5.45027 20.71 5.79027 20.3 5.79027C19.89 5.79027 19.55 5.45027 19.55 5.04027C19.55 3.71027 18.39 2.78027 17.34 2.78027C16.14 2.78027 15.13 3.81027 15.13 5.04027V7.96027C15.13 8.37027 14.79 8.71027 14.38 8.71027Z" fill="white"/> <path d="M22 6.38047C22 7.30047 21.22 8.04047 20.3 8.04047C19.38 8.04047 18.64 7.30047 18.64 6.38047C18.64 5.46047 19.39 4.73047 20.3 4.73047C21.21 4.73047 22 5.47047 22 6.38047Z" fill="white"/> </g> <defs> <clipPath id="clip0_2085_391439"> <rect width="24" height="24" fill="white"/> </clipPath> </defs> </svg>
