<svg width="24" height="24" viewBox="0 0 24 24" fill="none" xmlns="http://www.w3.org/2000/svg"> <g clip-path="url(#clip0_2085_383003)"> <path d="M19.78 22.7499C19.54 22.7499 19.31 22.6399 19.16 22.4299C14.84 16.1899 14.84 7.80992 19.16 1.57992C19.4 1.23992 19.86 1.14992 20.2 1.38992C20.54 1.62992 20.63 2.08992 20.39 2.42992C16.42 8.15992 16.42 15.8499 20.39 21.5799C20.63 21.9199 20.54 22.3899 20.2 22.6199C20.07 22.7099 19.92 22.7499 19.77 22.7499H19.78Z" fill="white"/> <path d="M4.50003 22.7499C4.35003 22.7499 4.20003 22.7099 4.07003 22.6199C3.73003 22.3799 3.64003 21.9199 3.88003 21.5799C7.85003 15.8499 7.85003 8.15992 3.88003 2.42992C3.64003 2.08992 3.73003 1.61992 4.07003 1.38992C4.41003 1.14992 4.88003 1.23992 5.11003 1.57992C9.43003 7.81992 9.43003 16.1999 5.11003 22.4299C4.96003 22.6399 4.73003 22.7499 4.49003 22.7499H4.50003Z" fill="white"/> <g opacity="0.4"> <path d="M22 12.75H2C1.59 12.75 1.25 12.41 1.25 12C1.25 11.59 1.59 11.25 2 11.25H22C22.41 11.25 22.75 11.59 22.75 12C22.75 12.41 22.41 12.75 22 12.75Z" fill="white"/> </g> </g> <defs> <clipPath id="clip0_2085_383003"> <rect width="24" height="24" fill="white"/> </clipPath> </defs> </svg>
