<svg width="24" height="24" viewBox="0 0 24 24" fill="none" xmlns="http://www.w3.org/2000/svg"> <g clip-path="url(#clip0_2085_388029)"> <g opacity="0.4"> <path d="M21.7301 17.6099H15.7601L14.7901 15.1899L14.2201 13.7499L13.1901 11.1699H19.1801C20.0001 13.2299 20.8401 15.2999 21.6601 17.3599C21.6901 17.4499 21.7201 17.5199 21.7401 17.6099H21.7301Z" fill="white"/> </g> <path d="M19.87 20.0004H18.01C17.22 20.0004 16.52 19.5204 16.23 18.7904L15.76 17.6104H21.73C22.04 18.8004 21.15 20.0004 19.87 20.0004Z" fill="white"/> <g opacity="0.4"> <path d="M22.43 8.18004H3.54004V6.75004C3.54004 6.22004 3.97004 5.79004 4.50004 5.79004H19.65C19.9 5.79004 20.14 5.90004 20.32 6.08004L22.43 8.18004Z" fill="white"/> </g> <path d="M22.43 8.16992C22.6093 8.3492 22.71 8.59236 22.71 8.8459V9.96992C22.71 10.6299 22.17 11.1699 21.52 11.1699H8.43004L7.80004 10.8499L6.84004 10.3699H4.50004C3.97004 10.3699 3.54004 9.93992 3.54004 9.40992V8.16992H22.43Z" fill="white"/> <path d="M3.54004 7.45996V8.89996H2.01004C1.62004 8.89996 1.29004 8.56996 1.29004 8.17996C1.29004 7.78996 1.62004 7.45996 2.01004 7.45996H3.54004Z" fill="white"/> <path d="M6.02008 4.72V5.79H4.58008V4.72C4.58008 4.33 4.90008 4 5.30008 4C5.70008 4 6.02008 4.33 6.02008 4.72Z" fill="white"/> <path d="M14.79 15.1904H9.70004C8.65004 15.1904 7.79004 14.3304 7.79004 13.2704L7.79004 9.86035L8.42004 10.1804H9.22004V13.2804C9.22004 13.5504 9.43004 13.7604 9.69004 13.7604H14.2281L14.79 15.1904Z" fill="white"/> </g> <defs> <clipPath id="clip0_2085_388029"> <rect width="24" height="24" fill="white"/> </clipPath> </defs> </svg>
