<svg width="24" height="24" viewBox="0 0 24 24" fill="none" xmlns="http://www.w3.org/2000/svg"> <g clip-path="url(#clip0_2085_383355)"> <g opacity="0.4"> <path d="M21.99 10.91V12.39C21.95 11.37 21.52 10.41 20.8 9.69C20.03 8.92 18.99 8.49 17.9 8.49H6.08999C3.81999 8.5 1.98999 10.33 1.98999 12.59V10.47C1.98999 9.82 2.09999 9.18 2.29999 8.57L3.75999 4.18C3.89999 3.78 4.27999 3.5 4.70999 3.5H6.56999C6.83999 3.5 7.08999 3.6 7.27999 3.79L8.98999 5.5H13.99L15.7 3.79C15.89 3.61 16.14 3.5 16.41 3.5H18.38C18.75 3.5 19.1 3.71 19.27 4.05L21.36 8.23C21.77 9.06 21.99 9.98 21.99 10.91Z" fill="white"/> </g> <path d="M22 12.5902V16.5002C22 18.7102 20.21 20.5002 18 20.5002H5.98999C3.77999 20.5002 1.98999 18.7102 1.98999 16.5002V12.5902C1.98999 10.3302 3.81999 8.50023 6.08999 8.50023L17.9 8.49023C18.99 8.49023 20.03 8.92023 20.8 9.69023C21.52 10.4102 21.95 11.3702 21.99 12.3902C22 12.4602 22 12.5202 22 12.5902Z" fill="white"/> </g> <defs> <clipPath id="clip0_2085_383355"> <rect width="24" height="24" fill="white"/> </clipPath> </defs> </svg>
