<svg width="24" height="24" viewBox="0 0 24 24" fill="none" xmlns="http://www.w3.org/2000/svg"> <path opacity="0.4" d="M21.2296 15.7804C21.2296 15.7804 21.2196 15.8004 21.2196 15.8104C21.0296 16.2704 20.8096 16.7004 20.5696 17.1204C19.7096 18.5404 18.5296 19.7204 17.1296 20.5504C16.6996 20.8104 16.2496 21.0404 15.7796 21.2204C14.5996 21.7104 13.3196 21.9704 11.9996 21.9704C10.6796 21.9704 9.39963 21.7104 8.22963 21.2204C7.75963 21.0404 7.30962 20.8104 6.87962 20.5504C5.47962 19.7204 4.29962 18.5404 3.43962 17.1204C3.19962 16.7004 2.97963 16.2704 2.78963 15.8104C2.78963 15.8104 2.77962 15.7904 2.77962 15.7804C1.75962 13.3104 1.79961 10.5904 2.76961 8.21039C2.95961 7.75039 3.18963 7.30039 3.44963 6.87039C3.85963 6.18039 4.35963 5.53039 4.94963 4.94039C5.53963 4.35039 6.18962 3.85039 6.87962 3.44039C7.30962 3.18039 7.75962 2.95039 8.21962 2.76039C10.6396 1.78039 13.3696 1.78039 15.7896 2.76039C16.2496 2.95039 16.6996 3.18039 17.1296 3.44039C17.8196 3.85039 18.4696 4.35039 19.0596 4.94039C19.6496 5.53039 20.1496 6.18039 20.5596 6.87039C20.8196 7.30039 21.0496 7.75039 21.2396 8.21039C22.2096 10.5904 22.2396 13.3104 21.2296 15.7804Z" fill="white"/> <path d="M18.6095 9.54051L21.2395 8.22051C21.0495 7.76051 20.8195 7.31051 20.5595 6.88051L17.9196 8.21051C17.6496 7.79051 17.3495 7.38051 16.9895 7.02051C16.6195 6.66051 16.2295 6.34051 15.8095 6.07051L17.1295 3.45051C16.6995 3.19051 16.2496 2.96051 15.7896 2.77051L14.4695 5.41051C12.8795 4.82051 11.1296 4.82051 9.53955 5.41051L8.21954 2.77051C7.75954 2.96051 7.30955 3.19051 6.87955 3.45051L8.19955 6.07051C7.77955 6.34051 7.37953 6.66051 7.01953 7.02051C6.65953 7.38051 6.34953 7.79051 6.07953 8.21051L3.44955 6.88051C3.18955 7.31051 2.95953 7.76051 2.76953 8.22051L5.39954 9.54051C4.81954 11.1005 4.79955 12.8405 5.40955 14.4605L2.77954 15.7905C2.77954 15.7905 2.78955 15.8105 2.78955 15.8205C2.97955 16.2805 3.19954 16.7105 3.43954 17.1305L6.07953 15.8105C6.62953 16.6705 7.34955 17.4005 8.19955 17.9405L6.87955 20.5605C7.30955 20.8205 7.75955 21.0505 8.22955 21.2305L9.53955 18.6005C10.3196 18.8905 11.1395 19.0605 11.9995 19.0605C12.8595 19.0605 13.6895 18.8905 14.4595 18.6005L15.7795 21.2305C16.2495 21.0505 16.6995 20.8205 17.1295 20.5605L15.8095 17.9405C16.6495 17.4005 17.3795 16.6705 17.9295 15.8105L20.5695 17.1305C20.8095 16.7105 21.0295 16.2805 21.2195 15.8205C21.2195 15.8205 21.2296 15.8005 21.2296 15.7905L18.5995 14.4705C19.1995 12.8405 19.1895 11.1005 18.6095 9.54051ZM17.1295 14.1305C16.2695 16.2105 14.2595 17.5605 11.9995 17.5605C9.73954 17.5605 7.73955 16.2105 6.87955 14.1305C6.00955 12.0505 6.48953 9.67051 8.07953 8.08051C9.15953 7.00051 10.5795 6.46051 11.9995 6.46051C13.4195 6.46051 14.8495 7.00051 15.9295 8.08051C17.5195 9.67051 17.9895 12.0505 17.1295 14.1305Z" fill="white"/> <path d="M14.0504 12.9397C14.1904 12.6497 14.2704 12.3197 14.2704 11.9797C14.2704 11.6397 14.1904 11.3097 14.0504 11.0197L15.0504 10.0197C15.3404 9.72969 15.3404 9.24969 15.0504 8.95969C14.7604 8.66969 14.2804 8.66969 13.9904 8.95969L12.9904 9.95969C12.7004 9.81969 12.3705 9.73969 12.0305 9.73969C11.6905 9.73969 11.3605 9.81969 11.0705 9.95969L10.0705 8.95969C9.78047 8.66969 9.30047 8.66969 9.01047 8.95969C8.72047 9.24969 8.72047 9.72969 9.01047 10.0197L10.0105 11.0197C9.87047 11.3097 9.79047 11.6397 9.79047 11.9797C9.79047 12.3197 9.87047 12.6497 10.0105 12.9397L9.01047 13.9397C8.72047 14.2297 8.72047 14.7097 9.01047 14.9997C9.16047 15.1497 9.35047 15.2197 9.54047 15.2197C9.73047 15.2197 9.92047 15.1497 10.0705 14.9997L11.0705 13.9997C11.3605 14.1397 11.6905 14.2197 12.0305 14.2197C12.3705 14.2197 12.7004 14.1397 12.9904 13.9997L13.9904 14.9997C14.1404 15.1497 14.3304 15.2197 14.5204 15.2197C14.7104 15.2197 14.9004 15.1497 15.0504 14.9997C15.3404 14.7097 15.3404 14.2297 15.0504 13.9397L14.0504 12.9397ZM11.2805 11.9797C11.2805 11.7797 11.3604 11.5997 11.4904 11.4697H11.5005V11.4497C11.6405 11.3197 11.8204 11.2397 12.0204 11.2397C12.2204 11.2397 12.4005 11.3197 12.5305 11.4497V11.4697C12.6705 11.5997 12.7505 11.7797 12.7505 11.9797C12.7505 12.3897 12.4205 12.7297 12.0005 12.7297C11.5805 12.7297 11.2505 12.3997 11.2505 11.9797H11.2805Z" fill="white"/> </svg>
