<svg width="24" height="24" viewBox="0 0 24 24" fill="none" xmlns="http://www.w3.org/2000/svg"> <g clip-path="url(#clip0_4482_6293)"> <path d="M14 17.5H10C7.79 17.5 6 15.71 6 13.5V8C6 7.72 6.22 7.5 6.5 7.5H17.5C17.78 7.5 18 7.72 18 8V13.5C18 15.71 16.21 17.5 14 17.5Z" fill="white"/> <path opacity="0.4" d="M6.00006 10.9997L3.96008 10.1097C3.29008 9.87975 2.84009 9.25975 2.84009 8.54975C2.84009 7.98975 3.37003 7.57975 3.91003 7.70975L6.01007 8.22975" fill="white"/> <path opacity="0.4" d="M18 10.9997L20.04 10.1097C20.71 9.87975 21.16 9.25975 21.16 8.54975C21.16 7.98975 20.63 7.57975 20.09 7.70975L17.99 8.22975" fill="white"/> <path opacity="0.4" d="M8 5.42037C7.85 5.42037 7.71001 5.38037 7.58001 5.29037C7.24001 5.06037 7.15 4.59037 7.38 4.25037L7.71997 3.76037C7.35997 3.35037 7.29999 2.77037 7.61999 2.31037L8.11999 1.58037C8.34999 1.24037 8.81997 1.15037 9.15997 1.38037C9.49997 1.61037 9.58998 2.08037 9.35998 2.42037L9.03003 2.91037C9.39003 3.32037 9.45 3.90037 9.13 4.36037L8.63 5.09037C8.47 5.30037 8.24 5.42037 8 5.42037Z" fill="white"/> <path opacity="0.4" d="M11.64 5.42037C11.49 5.42037 11.35 5.38037 11.22 5.29037C10.88 5.06037 10.79 4.59037 11.02 4.25037L11.35 3.76037C10.99 3.35037 10.93 2.77037 11.25 2.31037L11.75 1.58037C11.98 1.24037 12.45 1.15037 12.79 1.38037C13.13 1.61037 13.22 2.08037 12.99 2.42037L12.66 2.91037C13.02 3.32037 13.08 3.90037 12.76 4.36037L12.26 5.09037C12.11 5.30037 11.88 5.42037 11.64 5.42037Z" fill="white"/> <path opacity="0.4" d="M15.27 5.42037C15.12 5.42037 14.98 5.38037 14.85 5.29037C14.51 5.06037 14.42 4.59037 14.65 4.25037L14.99 3.76037C14.63 3.35037 14.57 2.77037 14.89 2.31037L15.39 1.58037C15.62 1.24037 16.09 1.15037 16.43 1.38037C16.77 1.61037 16.86 2.08037 16.63 2.42037L16.3 2.91037C16.66 3.32037 16.72 3.90037 16.4 4.36037L15.9 5.09037C15.75 5.30037 15.51 5.42037 15.27 5.42037Z" fill="white"/> <path d="M9.76001 19.2603L10.29 19.8003C10.79 20.3003 10.79 21.1203 10.29 21.6203C9.89998 22.0103 9.29001 22.1203 8.76001 21.8403C8.65001 21.7803 8.55997 21.7003 8.46997 21.6203C7.96997 21.1203 7.96997 20.3003 8.46997 19.8003L9 19.2703L9.17999 19.0903C9.28999 18.9803 9.46001 18.9803 9.57001 19.0903L9.76001 19.2603Z" fill="white"/> <path d="M14.9899 19.2603L15.52 19.8003C16.02 20.3003 16.02 21.1203 15.52 21.6203C15.13 22.0103 14.5199 22.1203 13.9899 21.8403C13.8799 21.7803 13.79 21.7003 13.7 21.6203C13.2 21.1203 13.2 20.3003 13.7 19.8003L14.2299 19.2703L14.4099 19.0903C14.5199 18.9803 14.6899 18.9803 14.7999 19.0903L14.9899 19.2603Z" fill="white"/> </g> <defs> <clipPath id="clip0_4482_6293"> <rect width="24" height="24" fill="white"/> </clipPath> </defs> </svg>
