<svg width="24" height="24" viewBox="0 0 24 24" fill="none" xmlns="http://www.w3.org/2000/svg"> <g clip-path="url(#clip0_4482_11198)"> <path d="M15.3304 16.4399H14.2204C13.6104 16.4399 13.1104 15.9399 13.1104 15.3299V14.2199C13.1104 13.6099 13.6104 13.1099 14.2204 13.1099H15.3304C15.9404 13.1099 16.4404 13.6099 16.4404 14.2199V15.3299C16.4404 15.9399 15.9404 16.4399 15.3304 16.4399Z" fill="white"/> <path d="M8.66043 12.5601H7.55043C6.93739 12.5601 6.44043 13.057 6.44043 13.6701V14.7801C6.44043 15.3931 6.93739 15.8901 7.55043 15.8901H8.66043C9.27347 15.8901 9.77043 15.3931 9.77043 14.7801V13.6701C9.77043 13.057 9.27347 12.5601 8.66043 12.5601Z" fill="white"/> <path d="M14.7796 6.43994H13.6696C13.0565 6.43994 12.5596 6.93691 12.5596 7.54994V8.65994C12.5596 9.27298 13.0565 9.76994 13.6696 9.76994H14.7796C15.3926 9.76994 15.8896 9.27298 15.8896 8.65994V7.54994C15.8896 6.93691 15.3926 6.43994 14.7796 6.43994Z" fill="white"/> <path d="M8.11035 13.3099C7.70035 13.3099 7.36035 12.9699 7.36035 12.5599V10.8899C7.36035 8.94986 8.94035 7.35986 10.8904 7.35986H12.5604C12.9704 7.35986 13.3104 7.69986 13.3104 8.10986C13.3104 8.51986 12.9704 8.85986 12.5604 8.85986H10.8904C9.77035 8.85986 8.86035 9.76986 8.86035 10.8899V12.5599C8.86035 12.9699 8.52035 13.3099 8.11035 13.3099Z" fill="white"/> <g opacity="0.4"> <path d="M16.44 2H7.56C4.4893 2 2 4.4893 2 7.56V16.44C2 19.5107 4.4893 22 7.56 22H16.44C19.5107 22 22 19.5107 22 16.44V7.56C22 4.4893 19.5107 2 16.44 2Z" fill="white"/> </g> </g> <defs> <clipPath id="clip0_4482_11198"> <rect width="24" height="24" fill="white"/> </clipPath> </defs> </svg>
