<svg width="24" height="24" viewBox="0 0 24 24" fill="none" xmlns="http://www.w3.org/2000/svg"> <g clip-path="url(#clip0_2085_388190)"> <g clip-path="url(#clip1_2085_388190)"> <path d="M19.0399 10.7V12.72C18.6499 12.5 18.1899 12.37 17.7099 12.37C17.2299 12.37 16.7699 12.5 16.3699 12.72V10.7C16.3699 10.28 16.6399 9.91 17.0099 9.77C17.0099 9.75 17.0099 9.72 17.0099 9.7V6.37C17.0099 4.18 15.2299 2.4 13.0499 2.4C10.8699 2.4 9.11993 4.15 9.08993 6.32L9.07531 6.30435C8.69841 5.90091 8.05934 5.89892 7.67993 6.3C7.71993 3.37 10.1099 1 13.0499 1C15.9899 1 18.4199 3.41 18.4199 6.37V9.7C18.4199 9.7 18.4199 9.75 18.4099 9.77C18.7799 9.91 19.0499 10.28 19.0499 10.7H19.0399Z" fill="white"/> <path opacity="0.4" d="M12.37 10.2496V19.0296H4.37V10.2496C4.37 9.96957 4.48 9.69957 4.67 9.49957L7.67 6.29957C8.0494 5.89849 8.68847 5.90048 9.06537 6.30392L9.08 6.31957L12.08 9.49957C12.27 9.69957 12.37 9.96957 12.37 10.2496Z" fill="white"/> <path d="M12.37 19.0303H4.37V21.7003H12.37V19.0303Z" fill="white"/> <path d="M13.03 20.9951C13.4194 20.9952 13.7351 21.3109 13.7351 21.7002C13.7351 22.0895 13.4194 22.4052 13.03 22.4053H3.69995C3.31059 22.4053 2.99487 22.0896 2.99487 21.7002C2.99487 21.3108 3.31059 20.9951 3.69995 20.9951H13.03Z" fill="white"/> <path d="M15.0399 16.3701V15.0401C15.0399 13.5701 16.2299 12.3701 17.7099 12.3701C19.1899 12.3701 20.3799 13.5601 20.3799 15.0401V16.3701C20.3799 17.8401 19.1899 19.0401 17.7099 19.0401C16.2299 19.0401 15.0399 17.8501 15.0399 16.3701Z" fill="white"/> <path d="M6.33484 13.0303V11.7002C6.33484 11.3108 6.65056 10.9951 7.03992 10.9951C7.42928 10.9951 7.745 11.3108 7.745 11.7002V13.0303C7.74495 13.4196 7.42925 13.7354 7.03992 13.7354C6.65058 13.7354 6.33488 13.4196 6.33484 13.0303Z" fill="white"/> <path d="M6.33484 16.3701V15.7002C6.33484 15.3108 6.65056 14.9951 7.03992 14.9951C7.42928 14.9951 7.745 15.3108 7.745 15.7002V16.3701C7.745 16.7595 7.42928 17.0752 7.03992 17.0752C6.65056 17.0752 6.33484 16.7595 6.33484 16.3701Z" fill="white"/> </g> </g> <defs> <clipPath id="clip0_2085_388190"> <rect width="24" height="24" fill="white"/> </clipPath> <clipPath id="clip1_2085_388190"> <rect width="17.37" height="21.4" fill="white" transform="translate(3 1)"/> </clipPath> </defs> </svg>
