<svg width="24" height="24" viewBox="0 0 24 24" fill="none" xmlns="http://www.w3.org/2000/svg"> <g clip-path="url(#clip0_2085_382888)"> <path d="M14.56 2.67002L14.3 2.80002C13.66 3.12002 13.34 3.28002 13.17 3.45002C13.02 3.61002 12.9 3.80002 12.83 4.00002C12.75 4.24002 12.75 4.60002 12.75 5.31002V5.33002H11.25V5.31002C11.25 4.46002 11.25 3.99002 11.41 3.52002C11.56 3.10002 11.79 2.72002 12.1 2.40002C12.45 2.05002 12.86 1.84002 13.62 1.46002L13.89 1.33002C14.26 1.15002 14.71 1.29002 14.89 1.66002C15.08 2.04002 14.93 2.49002 14.56 2.67002Z" fill="white"/> <g opacity="0.4"> <path d="M22 12.0001V14.2201C22 15.2501 22 15.7701 21.91 16.2001C21.56 17.9601 20.19 19.3401 18.42 19.6901C18.06 19.7601 17.32 19.7801 16.49 19.7801C16.28 20.0501 16.05 20.2901 15.88 20.4201C15.75 20.5201 15.62 20.6001 15.48 20.6701C15.02 20.8901 14.48 20.8901 13.4 20.8901H10.6C9.52 20.8901 8.98 20.8901 8.52 20.6701C8.38 20.6001 8.25 20.5201 8.12 20.4201C7.95 20.2901 7.72 20.0501 7.51 19.7801C6.6 19.7801 5.98 19.7701 5.58 19.6901C3.81 19.3401 2.44 17.9601 2.09 16.2001C2 15.7701 2 15.2501 2 14.2201V12.0001C2 10.9701 2 10.4501 2.09 10.0201C2.44 8.26008 3.81 6.88008 5.58 6.53008C5.94 6.45008 6.68 6.44008 7.52 6.44008C7.72 6.17008 7.95 5.93008 8.12 5.80008C8.25 5.70008 8.38 5.62008 8.52 5.55008C8.98 5.33008 9.52 5.33008 10.6 5.33008H13.4C14.48 5.33008 15.02 5.33008 15.48 5.55008C15.62 5.62008 15.75 5.70008 15.88 5.80008C16.05 5.93008 16.28 6.17008 16.48 6.44008C17.3 6.44008 18.08 6.46008 18.42 6.53008C20.19 6.88008 21.56 8.26008 21.91 10.0201C22 10.4501 22 10.9701 22 12.0001Z" fill="white"/> </g> <path d="M12.75 20.8901V22.0001C12.75 22.4101 12.41 22.7501 12 22.7501C11.59 22.7501 11.25 22.4101 11.25 22.0001V20.8901H12.75Z" fill="white"/> <path d="M17.56 13.3099C17.33 13.3099 17.11 13.2099 16.96 13.0099L16.89 12.9199C16.41 12.2799 15.37 12.2799 14.89 12.9199L14.82 13.0099C14.57 13.3399 14.1 13.4099 13.77 13.1599C13.44 12.9099 13.37 12.4399 13.62 12.1099L13.69 12.0199C14.21 11.3199 15.02 10.9199 15.89 10.9199C16.76 10.9199 17.57 11.3199 18.09 12.0199L18.16 12.1099C18.41 12.4399 18.34 12.9099 18.01 13.1599C17.87 13.2599 17.72 13.3099 17.56 13.3099Z" fill="white"/> <path d="M9.77997 13.3099C9.54997 13.3099 9.32997 13.2099 9.17997 13.0099L9.10997 12.9199C8.62997 12.2799 7.58997 12.2799 7.10997 12.9199L7.03997 13.0099C6.78997 13.3399 6.31997 13.4099 5.98997 13.1599C5.65997 12.9099 5.58997 12.4399 5.83997 12.1099L5.90997 12.0199C6.42997 11.3199 7.23997 10.9199 8.10997 10.9199C8.97997 10.9199 9.78997 11.3199 10.31 12.0199L10.38 12.1099C10.63 12.4399 10.56 12.9099 10.23 13.1599C10.09 13.2599 9.93997 13.3099 9.77997 13.3099Z" fill="white"/> <path d="M12 17.7501C10.44 17.7501 8.99995 17.0301 8.06995 15.7801C7.81995 15.4501 7.88995 14.9801 8.21995 14.7301C8.54995 14.4801 9.01995 14.5501 9.26995 14.8801C9.91995 15.7501 10.92 16.2501 12 16.2501C13.08 16.2501 14.08 15.7501 14.73 14.8801C14.98 14.5501 15.45 14.4801 15.78 14.7301C16.11 14.9801 16.18 15.4501 15.93 15.7801C14.99 17.0301 13.56 17.7501 12 17.7501Z" fill="white"/> </g> <defs> <clipPath id="clip0_2085_382888"> <rect width="24" height="24" fill="white"/> </clipPath> </defs> </svg>
