<svg width="24" height="24" viewBox="0 0 24 24" fill="none" xmlns="http://www.w3.org/2000/svg"> <g clip-path="url(#clip0_2085_383357)"> <path d="M13.0801 6.6C16.2557 6.6 18.8301 5.57026 18.8301 4.3C18.8301 3.02975 16.2557 2 13.0801 2C9.90444 2 7.33008 3.02975 7.33008 4.3C7.33008 5.57026 9.90444 6.6 13.0801 6.6Z" fill="white"/> <g opacity="0.4"> <path d="M18.8301 4.2998V15.3398C18.5501 15.3198 18.2701 15.3398 17.9801 15.4298L10.7501 17.3698L7.55008 15.8598L10.6701 15.0198C11.7101 14.7398 12.2901 13.5998 11.8301 12.5698C11.4601 11.7698 10.5201 11.3998 9.66008 11.6298L7.33008 12.2498V4.2998C7.33008 5.5698 9.90008 6.5998 13.0801 6.5998C16.2601 6.5998 18.8301 5.5698 18.8301 4.2998Z" fill="white"/> </g> <path d="M20.4 19.0999L10.01 21.8899C9.26005 22.0899 8.46004 22.0199 7.75004 21.6899L3.47004 19.7099C3.13004 19.5599 2.91005 19.2299 2.89005 18.8699L2.62004 14.3399C2.59004 13.8699 2.90004 13.4399 3.35004 13.3199L7.33004 12.2499L9.66004 11.6299C10.52 11.3999 11.46 11.7699 11.83 12.5699C12.29 13.5999 11.71 14.7399 10.67 15.0199L7.55005 15.8599L10.75 17.3699L17.98 15.4299C18.27 15.3499 18.55 15.3199 18.83 15.3399C20.02 15.3899 21.07 16.1999 21.39 17.4199C21.58 18.1499 21.13 18.9099 20.4 19.0999Z" fill="white"/> </g> <defs> <clipPath id="clip0_2085_383357"> <rect width="24" height="24" fill="white"/> </clipPath> </defs> </svg>
