<svg width="24" height="24" viewBox="0 0 24 24" fill="none" xmlns="http://www.w3.org/2000/svg"> <g clip-path="url(#clip0_4482_891)"> <path opacity="0.4" d="M20 6.5V13.41C19.39 13.15 18.71 13 18 13C15.24 13 13 15.24 13 18C13 19.13 13.37 20.17 14 21H8.5C6.03 21 4 18.98 4 16.5V6.5C4 4.03 6.02 2 8.5 2H15.5C17.97 2 20 4.02 20 6.5Z" fill="white"/> <path d="M14 6.75H10C9.59 6.75 9.25 6.41 9.25 6C9.25 5.59 9.59 5.25 10 5.25H14C14.41 5.25 14.75 5.59 14.75 6C14.75 6.41 14.41 6.75 14 6.75Z" fill="white"/> <path d="M20 13.41C19.39 13.15 18.71 13 18 13C15.24 13 13 15.24 13 18C13 19.13 13.37 20.17 14 21C14.91 22.21 16.37 23 18 23C20.76 23 23 20.76 23 18C23 15.95 21.76 14.19 20 13.41ZM16.45 19.47C16.36 19.51 16.26 19.53 16.17 19.53C15.87 19.53 15.59 19.36 15.48 19.07C15.05 18.03 15.28 16.85 16.06 16.06C16.73 15.39 17.71 15.12 18.63 15.34C19.03 15.44 19.28 15.84 19.18 16.25C19.08 16.65 18.67 16.9 18.27 16.8C17.86 16.7 17.42 16.82 17.12 17.12C16.77 17.47 16.67 18.01 16.86 18.5C17.01 18.88 16.83 19.31 16.45 19.47ZM19.95 19.94C19.43 20.46 18.74 20.74 18.02 20.74C17.86 20.74 17.7 20.73 17.54 20.7C17.13 20.63 16.86 20.24 16.93 19.83C17 19.42 17.39 19.15 17.8 19.22C18.19 19.29 18.59 19.17 18.88 18.88C19.23 18.53 19.34 17.99 19.14 17.51C18.98 17.13 19.16 16.69 19.55 16.53C19.94 16.37 20.37 16.56 20.53 16.94C20.96 17.97 20.73 19.15 19.95 19.94Z" fill="white"/> </g> <defs> <clipPath id="clip0_4482_891"> <rect width="24" height="24" fill="white"/> </clipPath> </defs> </svg>
