<svg width="24" height="24" viewBox="0 0 24 24" fill="none" xmlns="http://www.w3.org/2000/svg"> <g clip-path="url(#clip0_4482_798)"> <path d="M13.5498 18.05C13.3598 18.05 13.1698 17.98 13.0198 17.83L12.3098 17.12L11.5998 17.83C11.3098 18.12 10.8298 18.12 10.5398 17.83C10.2498 17.54 10.2498 17.06 10.5398 16.77L11.7798 15.53C12.0698 15.24 12.5498 15.24 12.8398 15.53L14.0798 16.77C14.3698 17.06 14.3698 17.54 14.0798 17.83C13.9298 17.98 13.7398 18.05 13.5498 18.05Z" fill="white"/> <path d="M16.2404 22.75C14.5904 22.75 13.0204 21.87 12.1704 20.35C11.5504 19.23 11.4204 17.88 11.8204 16.66C11.9504 16.27 12.3704 16.05 12.7704 16.18C13.1604 16.31 13.3804 16.73 13.2504 17.13C12.9804 17.96 13.0704 18.87 13.4904 19.63C14.2704 21.04 15.9804 21.63 17.4604 21.01C18.9504 20.39 19.7204 18.75 19.2604 17.21C18.8004 15.67 17.2604 14.72 15.6804 15.01C15.2704 15.08 14.8804 14.81 14.8104 14.41C14.7404 14 15.0104 13.61 15.4104 13.54C17.7504 13.11 20.0204 14.51 20.7004 16.79C21.3804 19.07 20.2304 21.48 18.0404 22.4C17.4504 22.63 16.8404 22.75 16.2404 22.75Z" fill="white"/> <path opacity="0.4" d="M10.1504 22.75H7.15039C4.53039 22.75 2.40039 20.62 2.40039 18V6C2.40039 3.38 4.53039 1.25 7.15039 1.25H16.1504C18.7704 1.25 20.9004 3.38 20.9004 6V12C20.9004 12.41 20.5604 12.75 20.1504 12.75C19.7404 12.75 19.4004 12.41 19.4004 12V6C19.4004 4.21 17.9404 2.75 16.1504 2.75H7.15039C5.36039 2.75 3.90039 4.21 3.90039 6V18C3.90039 19.79 5.36039 21.25 7.15039 21.25H10.1504C10.5604 21.25 10.9004 21.59 10.9004 22C10.9004 22.41 10.5604 22.75 10.1504 22.75Z" fill="white"/> <path d="M17.1504 8.75H16.1504C14.6304 8.75 13.4004 7.52 13.4004 6V5C13.4004 4.59 13.7404 4.25 14.1504 4.25C14.5604 4.25 14.9004 4.59 14.9004 5V6C14.9004 6.69 15.4604 7.25 16.1504 7.25H17.1504C17.5604 7.25 17.9004 7.59 17.9004 8C17.9004 8.41 17.5604 8.75 17.1504 8.75Z" fill="white"/> </g> <defs> <clipPath id="clip0_4482_798"> <rect width="24" height="24" fill="white"/> </clipPath> </defs> </svg>
