<svg width="24" height="24" viewBox="0 0 24 24" fill="none" xmlns="http://www.w3.org/2000/svg"> <g clip-path="url(#clip0_4482_800)"> <path opacity="0.4" d="M20.5 6.29004V17.71C20.5 19.91 18.7 21.71 16.5 21.71H8C5.8 21.71 4 19.91 4 17.71V16.81C4.07 16.82 4.14997 16.82 4.21997 16.82H9.78003C11 16.82 12 15.82 12 14.6V9.40004C12 8.18004 11 7.18004 9.78003 7.18004H4.21997C4.14997 7.18004 4.07 7.18004 4 7.19004V6.29004C4 4.09004 5.8 2.29004 8 2.29004H16.5C18.7 2.29004 20.5 4.09004 20.5 6.29004Z" fill="white"/> <path d="M17.5897 8.86996H16.6197C15.1397 8.86996 13.9297 7.65996 13.9297 6.17996V5.20996C13.9297 4.79996 14.2697 4.45996 14.6797 4.45996C15.0897 4.45996 15.4297 4.79996 15.4297 5.20996V6.17996C15.4297 6.83996 15.9597 7.36996 16.6197 7.36996H17.5897C17.9997 7.36996 18.3397 7.70996 18.3397 8.11996C18.3397 8.52996 17.9997 8.86996 17.5897 8.86996Z" fill="white"/> <path d="M6.34961 12.6501H7.64966L6.99963 11.3501L6.34961 12.6501Z" fill="white"/> <path d="M9.78003 7.17993H4.21997C4.14997 7.17993 4.07 7.17993 4 7.18993C2.88 7.29993 2 8.24993 2 9.39993V14.5999C2 15.7499 2.88 16.6999 4 16.8099C4.07 16.8199 4.14997 16.8199 4.21997 16.8199H9.78003C11 16.8199 12 15.8199 12 14.5999V9.39993C12 8.17993 11 7.17993 9.78003 7.17993ZM9.33002 14.6699C9.22002 14.7199 9.11 14.7499 9 14.7499C8.72 14.7499 8.46002 14.5999 8.33002 14.3299L8.03998 13.7499H5.96997L5.67999 14.3299C5.48999 14.6999 5.04998 14.8499 4.66998 14.6699C4.29998 14.4799 4.15002 14.0299 4.33002 13.6599L6.33002 9.65993C6.58002 9.14993 7.41998 9.14993 7.66998 9.65993L9.66998 13.6599C9.85998 14.0399 9.71002 14.4899 9.33002 14.6699Z" fill="white"/> </g> <defs> <clipPath id="clip0_4482_800"> <rect width="24" height="24" fill="white"/> </clipPath> </defs> </svg>
