<svg width="24" height="24" viewBox="0 0 24 24" fill="none" xmlns="http://www.w3.org/2000/svg"> <g clip-path="url(#clip0_4482_899)"> <path opacity="0.4" d="M20 6.5V13.41C19.39 13.15 18.71 13 18 13C15.24 13 13 15.24 13 18C13 19.13 13.37 20.17 14 21H8.5C6.03 21 4 18.98 4 16.5V6.5C4 4.03 6.02 2 8.5 2H15.5C17.97 2 20 4.02 20 6.5Z" fill="white"/> <path d="M14 6.75H10C9.59 6.75 9.25 6.41 9.25 6C9.25 5.59 9.59 5.25 10 5.25H14C14.41 5.25 14.75 5.59 14.75 6C14.75 6.41 14.41 6.75 14 6.75Z" fill="white"/> <path d="M20 13.41C19.39 13.15 18.71 13 18 13C15.24 13 13 15.24 13 18C13 19.13 13.37 20.17 14 21C14.91 22.21 16.37 23 18 23C20.76 23 23 20.76 23 18C23 15.95 21.76 14.19 20 13.41ZM20.69 18.62C20.57 18.9 20.3 19.08 20 19.08H16C15.59 19.08 15.25 18.74 15.25 18.33C15.25 17.92 15.59 17.58 16 17.58H18.19L17.81 17.2C17.52 16.91 17.52 16.43 17.81 16.14C18.1 15.85 18.58 15.85 18.87 16.14L20.53 17.8C20.74 18.01 20.81 18.34 20.69 18.62Z" fill="white"/> </g> <defs> <clipPath id="clip0_4482_899"> <rect width="24" height="24" fill="white"/> </clipPath> </defs> </svg>
