<svg width="24" height="24" viewBox="0 0 24 24" fill="none" xmlns="http://www.w3.org/2000/svg"> <path d="M15.46 2L19.31 5.85L15.46 9.7" fill="white"/> <path d="M15.1328 1.20956C15.4523 1.07727 15.8199 1.1506 16.0645 1.39511L19.9141 5.24472C20.248 5.57862 20.248 6.1198 19.9141 6.4537L16.0645 10.3043C15.82 10.5487 15.4522 10.6221 15.1328 10.4898C14.8134 10.3575 14.6046 10.0455 14.6045 9.6998V1.9996C14.6045 1.65378 14.8133 1.3419 15.1328 1.20956ZM16.3154 7.63437L18.1006 5.84921L16.3154 4.06405V7.63437Z" fill="white"/> <path opacity="0.4" d="M19.3096 4.98438C19.7818 4.98438 20.1651 5.36764 20.1651 5.83984C20.1651 6.31205 19.7818 6.69531 19.3096 6.69531H12.0001C10.5681 6.69531 9.17356 7.11512 7.98542 7.91016L7.98444 7.91113C6.80486 8.69752 5.87496 9.82369 5.33015 11.1455C4.78412 12.4703 4.64165 13.9195 4.91901 15.3242C5.1961 16.7275 5.88419 18.015 6.8946 19.0254C7.90501 20.0358 9.19253 20.7239 10.5958 21.001C12.0004 21.2783 13.4498 21.1349 14.7745 20.5889C16.0881 20.0432 17.2136 19.1229 18.0089 17.9346C18.8039 16.7464 19.2247 15.3519 19.2247 13.9199C19.2247 13.4477 19.6079 13.0645 20.0801 13.0645C20.5522 13.0646 20.9346 13.4478 20.9346 13.9199C20.9346 15.6878 20.4156 17.4139 19.4307 18.8857C18.4465 20.3564 17.0529 21.4955 15.4278 22.1699H15.4258C13.7908 22.8438 11.9999 23.0212 10.2647 22.6787C8.52806 22.3358 6.93517 21.4839 5.68562 20.2344C4.43604 18.9848 3.5842 17.392 3.24128 15.6553C2.8987 13.9201 3.07521 12.1293 3.74909 10.4941C4.42425 8.85605 5.57492 7.46188 7.03522 6.48828C8.50684 5.50381 10.2325 4.98438 12.0001 4.98438H19.3096Z" fill="white"/> </svg>
