<svg width="24" height="24" viewBox="0 0 24 24" fill="none" xmlns="http://www.w3.org/2000/svg"> <g clip-path="url(#clip0_2085_391687)"> <path d="M7.43004 10.7293C7.43004 11.1093 7.12004 11.4193 6.73004 11.4193C6.34004 11.4193 6.04004 11.1093 6.04004 10.7293C6.04004 10.3493 6.35004 10.0293 6.73004 10.0293C7.11004 10.0293 7.43004 10.3393 7.43004 10.7293Z" fill="white"/> <path d="M21.73 15.4707C21.8791 15.4707 22 15.5916 22 15.7407V16.6207C22 17.3907 21.38 18.0107 20.62 18.0107H3.38C2.62 18.0107 2 17.3907 2 16.6207V15.7407C2 15.5916 2.12088 15.4707 2.27 15.4707H21.73Z" fill="white"/> <path d="M6.74 5.99023C4.12 5.99023 2 8.11023 2 10.7302C2 13.3502 4.12 15.4702 6.74 15.4702C9.36 15.4702 11.47 13.3502 11.47 10.7302C11.47 8.11023 9.35 5.99023 6.74 5.99023ZM6.74 13.1102C5.42 13.1102 4.36 12.0502 4.36 10.7302C4.36 9.41023 5.42 8.35023 6.74 8.35023C8.06 8.35023 9.12 9.42023 9.12 10.7302C9.12 12.0402 8.05 13.1102 6.74 13.1102Z" fill="white"/> <g opacity="0.4"> <path d="M22 10.7302C22 13.3502 19.88 15.4702 17.26 15.4702H6.73999C9.34999 15.4702 11.47 13.3502 11.47 10.7302C11.47 8.11023 9.34999 5.99023 6.73999 5.99023H17.26C19.88 5.99023 22 8.11023 22 10.7302Z" fill="white"/> </g> <path d="M6.73998 8.34961C5.41998 8.34961 4.35999 9.41961 4.35999 10.7296C4.35999 12.0396 5.41998 13.1096 6.73998 13.1096C8.05999 13.1096 9.11999 12.0496 9.11999 10.7296C9.11999 9.40961 8.04998 8.34961 6.73998 8.34961ZM6.73998 11.4296C6.35998 11.4296 6.03999 11.1196 6.03999 10.7396C6.03999 10.3596 6.34999 10.0396 6.73998 10.0396C7.12998 10.0396 7.43999 10.3496 7.43999 10.7396C7.43999 11.1296 7.12998 11.4296 6.73998 11.4296Z" fill="white"/> </g> <defs> <clipPath id="clip0_2085_391687"> <rect width="24" height="24" fill="white"/> </clipPath> </defs> </svg>
