<svg width="24" height="24" viewBox="0 0 24 24" fill="none" xmlns="http://www.w3.org/2000/svg"> <g clip-path="url(#clip0_2085_387424)"> <path d="M12.12 9.40014C13.02 9.40014 13.75 8.67014 13.75 7.77014C13.75 6.87014 13.02 6.14014 12.12 6.14014C11.22 6.14014 10.49 6.87014 10.49 7.77014C10.49 8.67014 11.22 9.40014 12.12 9.40014Z" fill="white"/> <path d="M14.3299 4.74021C15.1599 4.74021 15.8399 4.06021 15.8399 3.23021C15.8399 2.40021 15.1599 1.72021 14.3299 1.72021C13.4999 1.72021 12.8199 2.40021 12.8199 3.23021C12.8199 4.06021 13.4999 4.74021 14.3299 4.74021Z" fill="white"/> <path d="M9.24001 13.1902H7.61001L6.58001 10.8002C6.41001 10.4202 6.59001 9.98016 6.97001 9.82016C7.35001 9.65016 7.79001 9.82016 7.95001 10.2102L9.24001 13.1902Z" fill="white"/> <path d="M13.86 11.74C13.58 11.74 13.32 11.58 13.19 11.32L12.12 9.13C11.94 8.76 12.09 8.31 12.47 8.13C12.84 7.95 13.29 8.1 13.47 8.48L14.54 10.67C14.72 11.04 14.57 11.49 14.19 11.67C14.08 11.72 13.97 11.75 13.86 11.75V11.74Z" fill="white"/> <path d="M12.5999 7.30003C12.4799 7.30003 12.3699 7.27003 12.2599 7.22003C11.8899 7.03003 11.7499 6.58003 11.9399 6.21003L13.0899 3.97003C13.2799 3.60003 13.7299 3.46003 14.0999 3.65003C14.4699 3.84003 14.6099 4.29003 14.4199 4.66003L13.2699 6.90003C13.1399 7.16003 12.8699 7.31003 12.5999 7.31003V7.30003Z" fill="white"/> <path d="M18.17 6.1699C18.04 6.1699 17.9 6.1399 17.78 6.0599L15.16 4.4899C14.81 4.2799 14.69 3.8199 14.9 3.4599C15.11 3.1099 15.57 2.9899 15.93 3.1999L18.55 4.7699C18.9 4.9799 19.02 5.4399 18.81 5.7999C18.67 6.0299 18.42 6.1599 18.17 6.1599V6.1699Z" fill="white"/> <path d="M18.8979 4.57672C19.1771 4.5069 19.4678 4.51023 19.7182 4.55718L19.7172 4.55816C19.9734 4.60426 20.2264 4.69605 20.4555 4.84332C20.6683 4.98015 20.8619 5.15922 21.0141 5.35699C21.0187 5.36307 21.0223 5.37031 21.0268 5.37652C21.2621 5.67097 21.2429 6.10177 20.9701 6.37457C20.6772 6.66746 20.2025 6.66746 19.9096 6.37457C19.8692 6.33418 19.8384 6.2932 19.8168 6.26226C19.7697 6.20361 19.7074 6.14583 19.644 6.10504C19.5953 6.07381 19.5307 6.04708 19.4496 6.03277L19.4418 6.03179C19.3724 6.01878 19.3029 6.02167 19.2621 6.03179L19.2514 6.03472C19.1854 6.05029 19.1279 6.07566 19.0678 6.11675C19.009 6.16381 18.9514 6.22606 18.9106 6.28961C18.8792 6.33834 18.8526 6.40363 18.8383 6.48492L18.8373 6.49273C18.8243 6.56222 18.8272 6.63168 18.8373 6.67242L18.8402 6.68218C18.8568 6.7526 18.884 6.814 18.9301 6.87847C19.1707 7.21539 19.093 7.68352 18.7563 7.92437C18.4192 8.16512 17.9502 8.08757 17.7094 7.75054C17.5574 7.5377 17.448 7.30118 17.3842 7.0357L17.3822 7.03668C17.3124 6.75749 17.3158 6.46674 17.3627 6.21636H17.3637C17.4098 5.96044 17.5018 5.70791 17.6488 5.47906C17.7857 5.26613 17.9647 5.07168 18.1625 4.91949L18.184 4.90386C18.3966 4.75201 18.6327 4.64252 18.8979 4.57867V4.57672ZM21.0902 5.47906V5.47808L21.0893 5.47711L21.0883 5.47515C21.0876 5.47378 21.0871 5.47165 21.0863 5.47027C21.0851 5.4678 21.0839 5.46513 21.0824 5.46246C21.0794 5.45688 21.0751 5.44887 21.0697 5.44C21.0687 5.43828 21.0568 5.41952 21.0365 5.39214C21.0558 5.42032 21.075 5.44849 21.0902 5.47906Z" fill="white"/> <path d="M16.25 13.1899C16.3 13.0099 16.33 12.8299 16.33 12.6499C16.33 12.1199 16.12 11.6099 15.74 11.2399C15.36 10.8599 14.86 10.6499 14.33 10.6499C13.8 10.6499 13.29 10.8599 12.92 11.2399C12.54 11.6199 12.33 12.1199 12.33 12.6499C12.33 12.8299 12.36 13.0199 12.41 13.1899" fill="white"/> <g opacity="0.4"> <path d="M20.51 17.8499C20.05 17.3299 19.38 16.9999 18.63 16.9999C17.25 16.9999 16.13 18.1199 16.13 19.4999H14.83C14.83 18.1199 13.71 16.9999 12.33 16.9999C10.95 16.9999 9.83001 18.1199 9.83001 19.4999H8.52001C8.52001 18.1199 7.40001 16.9999 6.02001 16.9999C5.33001 16.9999 4.71001 17.2799 4.26001 17.7199C4.26001 17.5799 4.27001 17.4399 4.30001 17.2999L4.81001 14.8199C4.91001 14.3599 5.16001 13.9399 5.52001 13.6499C5.88001 13.3499 6.34001 13.1899 6.81001 13.1899H17.96C18.43 13.1899 18.89 13.3499 19.25 13.6499C19.62 13.9399 19.87 14.3599 19.96 14.8199L20.48 17.2999C20.51 17.4799 20.53 17.6599 20.51 17.8499Z" fill="white"/> </g> <path d="M8.66995 7.66984C8.69995 8.10984 8.65995 8.56984 8.51995 8.98984C8.37995 9.41984 8.16995 9.81984 7.86995 10.1598C7.58995 10.4998 7.22995 10.7898 6.82995 10.9898C6.42995 11.1898 5.99995 11.3198 5.55995 11.3498C5.09995 11.3998 4.65995 11.3398 4.22995 11.2098C3.89083 11.0968 3.56475 10.9316 3.27276 10.7195C3.15715 10.6356 3.14416 10.4716 3.23613 10.3622L7.29102 5.54071C7.38406 5.43008 7.55026 5.41589 7.65306 5.5175C7.91415 5.77558 8.12821 6.06636 8.28995 6.38984C8.48995 6.78984 8.62995 7.21984 8.66995 7.65984V7.66984Z" fill="white"/> <path d="M21.13 19.5C21.13 20.88 20.01 22 18.63 22C17.25 22 16.13 20.88 16.13 19.5C16.13 18.12 17.25 17 18.63 17C19.38 17 20.05 17.33 20.51 17.85C20.9 18.29 21.13 18.87 21.13 19.5Z" fill="white"/> <path d="M8.52002 19.5C8.52002 20.88 7.40002 22 6.02002 22C4.64002 22 3.52002 20.88 3.52002 19.5C3.52002 18.81 3.80002 18.18 4.26002 17.73C4.71002 17.28 5.33002 17 6.02002 17C7.40002 17 8.52002 18.12 8.52002 19.5Z" fill="white"/> <path d="M12.33 22C13.7107 22 14.83 20.8807 14.83 19.5C14.83 18.1193 13.7107 17 12.33 17C10.9492 17 9.82996 18.1193 9.82996 19.5C9.82996 20.8807 10.9492 22 12.33 22Z" fill="white"/> </g> <defs> <clipPath id="clip0_2085_387424"> <rect width="24" height="24" fill="white"/> </clipPath> </defs> </svg>
