<svg width="24" height="24" viewBox="0 0 24 24" fill="none" xmlns="http://www.w3.org/2000/svg"> <g clip-path="url(#clip0_4482_6267)"> <path opacity="0.4" d="M12 21.75C17.3848 21.75 21.75 17.3848 21.75 12C21.75 6.61522 17.3848 2.25 12 2.25C6.61522 2.25 2.25 6.61522 2.25 12C2.25 17.3848 6.61522 21.75 12 21.75Z" fill="white"/> <path d="M15.25 17.35C15.06 17.35 14.8699 17.28 14.7199 17.13C13.2699 15.68 10.73 15.68 9.28 17.13C8.99 17.42 8.50994 17.42 8.21994 17.13C7.92994 16.84 7.92994 16.36 8.21994 16.07C9.22994 15.06 10.57 14.5 12 14.5C13.43 14.5 14.77 15.06 15.78 16.07C16.07 16.36 16.07 16.84 15.78 17.13C15.63 17.27 15.44 17.35 15.25 17.35Z" fill="white"/> </g> <defs> <clipPath id="clip0_4482_6267"> <rect width="24" height="24" fill="white"/> </clipPath> </defs> </svg>
