<svg width="24" height="24" viewBox="0 0 24 24" fill="none" xmlns="http://www.w3.org/2000/svg"> <g clip-path="url(#clip0_4482_6264)"> <path opacity="0.4" d="M12 22C17.5228 22 22 17.5228 22 12C22 6.47715 17.5228 2 12 2C6.47715 2 2 6.47715 2 12C2 17.5228 6.47715 22 12 22Z" fill="white"/> <path d="M7.09006 10.61C6.90006 10.61 6.71003 10.54 6.56003 10.39C6.27003 10.1 6.27003 9.61998 6.56003 9.32998L6.93002 8.95997C8.00002 7.88997 9.64002 7.61997 10.99 8.29997C11.36 8.48997 11.51 8.93997 11.33 9.30997C11.14 9.67997 10.7 9.82997 10.32 9.64997C9.54004 9.25997 8.60002 9.40997 7.99002 10.03L7.62003 10.4C7.47003 10.53 7.28006 10.61 7.09006 10.61Z" fill="white"/> <path d="M16.91 10.6102C16.72 10.6102 16.53 10.5402 16.38 10.3902L16.01 10.0202C15.39 9.40021 14.46 9.25021 13.68 9.64021C13.31 9.82021 12.86 9.68021 12.67 9.30021C12.48 8.93021 12.63 8.48021 13.01 8.29021C14.37 7.61021 16 7.88021 17.07 8.95021L17.44 9.32021C17.73 9.61021 17.73 10.0902 17.44 10.3802C17.29 10.5302 17.1 10.6102 16.91 10.6102Z" fill="white"/> <path d="M14.5 17.7495C14.41 17.7495 14.3099 17.7295 14.2199 17.6995C12.7899 17.1295 11.21 17.1295 9.78 17.6995C9.4 17.8495 8.95997 17.6695 8.80997 17.2795C8.65997 16.8995 8.83995 16.4595 9.22995 16.3095C11.0199 15.5895 12.9999 15.5895 14.7899 16.3095C15.1699 16.4595 15.36 16.8995 15.21 17.2795C15.08 17.5695 14.8 17.7495 14.5 17.7495Z" fill="white"/> </g> <defs> <clipPath id="clip0_4482_6264"> <rect width="24" height="24" fill="white"/> </clipPath> </defs> </svg>
