<svg width="24" height="24" viewBox="0 0 24 24" fill="none" xmlns="http://www.w3.org/2000/svg"> <g clip-path="url(#clip0_2085_382745)"> <path d="M21.15 10.31C21.15 10.49 20.98 10.83 20.91 10.83H20.89C19.78 10.77 17.54 10.69 13.19 10.68H12.93C12.92 10.61 12.92 10.53 12.92 10.46C12.92 9.85004 13.05 9.25004 13.31 8.71004C13.58 8.16004 13.96 7.68004 14.43 7.29004C14.79 7.01004 15.18 6.78004 15.61 6.63004C15.75 6.57004 15.9 6.53004 16.05 6.49004C16.65 6.35004 17.27 6.33004 17.86 6.46004C18.46 6.58004 19.03 6.83004 19.51 7.20004C20 7.56004 20.4 8.03004 20.69 8.57004C20.97 9.11004 21.13 9.70004 21.15 10.31Z" fill="white"/> <g opacity="0.4"> <path d="M15.61 6.61999C15.18 6.77999 14.79 7.00999 14.43 7.28999C13.96 7.67999 13.58 8.15999 13.31 8.70999C13.05 9.24999 12.92 9.84999 12.92 10.46C12.92 10.53 12.92 10.61 12.93 10.68H11.11C10.6 10.68 10.1 10.68 9.61001 10.69C7.79001 10.7 6.16001 10.72 4.72001 10.76C4.33001 10.78 3.98001 10.79 3.68001 10.8C3.50001 10.8 3.33001 10.72 3.24001 10.56C2.77001 9.72999 2.71001 8.75999 3.18001 7.95999C3.61001 7.20999 4.41001 6.77999 5.29001 6.70999C4.51001 5.04999 4.98001 3.12999 6.41001 2.30999C7.94001 1.42999 10.01 2.12999 11.02 3.86999C11.06 3.94999 11.11 4.03999 11.15 4.12999C12.1 3.26999 13.4 3.02999 14.42 3.60999C15.41 4.17999 15.84 5.40999 15.62 6.61999H15.61Z" fill="white"/> </g> <path d="M9.40002 11.9401C9.88002 11.9401 10.39 11.9301 10.93 11.9301C10.91 12.0001 10.89 12.0801 10.87 12.1501C10.77 12.4701 10.48 12.6801 10.15 12.6801C10.08 12.6801 10.01 12.6701 9.94002 12.6501C9.61002 12.5501 9.40002 12.2701 9.40002 11.9401Z" fill="white"/> <path d="M9.5 9.39003C9.31 8.63003 8.93 7.92003 8.39 7.34003C8.11 7.04003 8.12 6.56003 8.43 6.28003C8.73 6.00003 9.2 6.01003 9.49 6.31003C10.2 7.08003 10.71 8.03003 10.96 9.05003C11.09 9.59003 11.14 10.14 11.11 10.68C10.6 10.68 10.1 10.68 9.61 10.69C9.64 10.26 9.6 9.82003 9.5 9.39003Z" fill="white"/> <path d="M20.86 12.0801H20.82C19.59 12.0101 17.29 11.9401 13.19 11.9301H12C8.59998 11.9301 6.28998 11.9701 4.75998 12.0101C4.07998 12.0301 3.53998 12.0601 3.13998 12.0801C2.44998 12.1101 1.91998 12.6801 2.00998 13.3601C2.62998 18.1001 6.86998 21.9301 12 21.9301C17.13 21.9301 21.37 18.1001 21.99 13.3601C22.08 12.6801 21.55 12.1101 20.86 12.0801ZM18.96 14.9701C18.29 16.4601 17.19 17.6801 15.77 18.4901C15.65 18.5601 15.52 18.5901 15.4 18.5901C15.14 18.5901 14.89 18.4601 14.75 18.2101C14.54 17.8501 14.67 17.3901 15.02 17.1901C16.16 16.5301 17.05 15.5501 17.59 14.3501C17.76 13.9701 18.21 13.8001 18.58 13.9701C18.96 14.1401 19.13 14.5801 18.96 14.9601V14.9701Z" fill="white"/> <path d="M9.40002 11.9401C9.40002 12.2701 9.61002 12.5501 9.94002 12.6501C10.01 12.6701 10.08 12.6801 10.15 12.6801C10.48 12.6801 10.77 12.4701 10.87 12.1501C10.89 12.0801 10.91 12.0001 10.93 11.9301C10.39 11.9301 9.88002 11.9401 9.40002 11.9401Z" fill="white"/> </g> <defs> <clipPath id="clip0_2085_382745"> <rect width="24" height="24" fill="white"/> </clipPath> </defs> </svg>
