<svg width="24" height="24" viewBox="0 0 24 24" fill="none" xmlns="http://www.w3.org/2000/svg"> <g clip-path="url(#clip0_2085_391688)"> <g opacity="0.4"> <path d="M20.84 17.3594V18.3894C20.84 19.4994 19.94 20.3894 18.84 20.3894H5.16003C4.06003 20.3894 3.16003 19.4994 3.16003 18.3894V17.3594H7.64003L8.78094 18.3706C8.88315 18.4612 9.03692 18.4612 9.13913 18.3706L10.28 17.3594H20.84Z" fill="white"/> </g> <path d="M20.84 10.7695V11.7995H3.16003V10.7695C3.16003 9.65953 4.06003 8.76953 5.16003 8.76953H18.84C19.94 8.76953 20.84 9.65953 20.84 10.7695Z" fill="white"/> <path d="M7.64003 17.3601H3.16003V14.5801H4.52003L7.64003 17.3601Z" fill="white"/> <path d="M20.84 14.5801V17.3601H10.28L13.41 14.5801H20.84Z" fill="white"/> <g opacity="0.4"> <path d="M22 13.1908C22 13.9608 21.38 14.5808 20.61 14.5808H3.39C2.62 14.5808 2 13.9608 2 13.1908C2 12.4208 2.62 11.8008 3.39 11.8008H20.61C21.38 11.8008 22 12.4208 22 13.1908Z" fill="white"/> </g> <path d="M13.41 14.5801L10.28 17.3601L9.13911 18.3713C9.0369 18.4619 8.88314 18.4619 8.78093 18.3713L7.64002 17.3601L4.52002 14.5801H13.41Z" fill="white"/> <path d="M12 9.5207C11.59 9.5207 11.25 9.1807 11.25 8.7707V5.9707C11.25 5.5607 11.59 5.2207 12 5.2207C12.41 5.2207 12.75 5.5607 12.75 5.9707V8.7707C12.75 9.1807 12.41 9.5207 12 9.5207Z" fill="white"/> <path d="M13.99 3.99C13.99 5.08 13.1 5.97 12 5.97C10.9 5.97 10.01 5.08 10.01 3.99C10.01 2.9 10.9 2 12 2C13.1 2 13.99 2.89 13.99 3.99Z" fill="white"/> </g> <defs> <clipPath id="clip0_2085_391688"> <rect width="24" height="24" fill="white"/> </clipPath> </defs> </svg>
