<svg width="24" height="24" viewBox="0 0 24 24" fill="none" xmlns="http://www.w3.org/2000/svg"> <g clip-path="url(#clip0_4482_6253)"> <path opacity="0.4" d="M12 22C17.5228 22 22 17.5228 22 12C22 6.47715 17.5228 2 12 2C6.47715 2 2 6.47715 2 12C2 17.5228 6.47715 22 12 22Z" fill="white"/> <path d="M7.49994 12.3295C7.25994 12.3295 7.01994 12.2095 6.87994 11.9995C6.64994 11.6595 6.73994 11.1895 7.08994 10.9595L9.14994 9.57953L7.07994 8.19953C6.73994 7.96953 6.63994 7.49953 6.86994 7.15953C7.09994 6.81953 7.55994 6.71953 7.90994 6.94953L10.9099 8.94953C11.1199 9.08953 11.2399 9.31953 11.2399 9.56953C11.2399 9.81953 11.1099 10.0595 10.9099 10.1895L7.90994 12.1895C7.78994 12.2895 7.63994 12.3295 7.49994 12.3295Z" fill="white"/> <path d="M16.5 12.3299C16.36 12.3299 16.21 12.2899 16.08 12.1999L13.08 10.1999C12.87 10.0599 12.75 9.82993 12.75 9.57993C12.75 9.32993 12.88 9.08993 13.08 8.95993L16.08 6.95993C16.42 6.72993 16.89 6.81993 17.12 7.16993C17.35 7.50993 17.26 7.97993 16.91 8.20993L14.85 9.58993L16.91 10.9699C17.25 11.1999 17.35 11.6699 17.12 12.0099C16.98 12.2099 16.74 12.3299 16.5 12.3299Z" fill="white"/> <path d="M7.55995 14.8901C8.06995 16.5601 9.30995 17.8401 10.8699 18.2601C11.6099 18.4601 12.3999 18.4601 13.1399 18.2601C14.6899 17.8301 15.9399 16.5601 16.4499 14.8901C16.4999 14.7401 16.3899 14.5801 16.2499 14.5801C13.4599 15.2401 10.5599 15.2401 7.76995 14.5801C7.60995 14.5801 7.50995 14.7401 7.55995 14.8901Z" fill="white"/> </g> <defs> <clipPath id="clip0_4482_6253"> <rect width="24" height="24" fill="white"/> </clipPath> </defs> </svg>
