<svg width="24" height="24" viewBox="0 0 24 24" fill="none" xmlns="http://www.w3.org/2000/svg"> <g clip-path="url(#clip0_4482_1018)"> <path d="M6 6.25C5.59 6.25 5.25 5.91 5.25 5.5C5.25 5.09 5.58 4.75 6 4.75C6.41 4.75 6.75 5.09 6.75 5.5C6.75 5.91 6.41 6.25 6 6.25Z" fill="white"/> <path d="M8.5 6.25C8.09 6.25 7.75 5.91 7.75 5.5C7.75 5.09 8.08 4.75 8.5 4.75H8.51001C8.92001 4.75 9.26001 5.09 9.26001 5.5C9.26001 5.91 8.91 6.25 8.5 6.25Z" fill="white"/> <path d="M11 6.25C10.59 6.25 10.25 5.91 10.25 5.5C10.25 5.09 10.58 4.75 11 4.75C11.41 4.75 11.75 5.09 11.75 5.5C11.75 5.91 11.41 6.25 11 6.25Z" fill="white"/> <path opacity="0.4" d="M22 7.28V6C22 3.8 20.2 2 18 2H6C3.8 2 2 3.8 2 6V7.28C2 7.56 2.22 7.78 2.5 7.78H21.5C21.78 7.78 22 7.56 22 7.28Z" fill="white"/> <path opacity="0.4" d="M2 9.77979V15.4998C2 17.6998 3.8 19.4998 6 19.4998H7.77002C7.72002 19.3698 7.68002 19.2498 7.65002 19.1198C7.55002 18.7598 7.5 18.3898 7.5 17.9998C7.5 16.7598 8.01002 15.6398 8.83002 14.8298C9.64002 14.0098 10.76 13.4998 12 13.4998C13.24 13.4998 14.36 14.0098 15.17 14.8298C15.99 15.6398 16.5 16.7598 16.5 17.9998C16.5 18.3898 16.46 18.7598 16.35 19.1198C16.32 19.2498 16.28 19.3798 16.23 19.4998H18C20.2 19.4998 22 17.6998 22 15.4998V9.77979C22 9.49979 21.78 9.27979 21.5 9.27979H2.5C2.22 9.27979 2 9.50979 2 9.77979Z" fill="white"/> <path d="M15.17 14.83C14.36 14.01 13.24 13.5 12 13.5C10.76 13.5 9.64002 14.01 8.83002 14.83C8.01002 15.64 7.5 16.76 7.5 18C7.5 18.39 7.55002 18.76 7.65002 19.12C7.68002 19.25 7.72002 19.37 7.77002 19.5C8.39002 21.24 10.06 22.5 12 22.5C13.24 22.5 14.36 21.99 15.17 21.17C15.65 20.71 16.01 20.14 16.23 19.5C16.28 19.38 16.32 19.25 16.35 19.12C16.46 18.76 16.5 18.39 16.5 18C16.5 16.76 15.99 15.64 15.17 14.83ZM14.4 19.2C14.27 19.46 14 19.62 13.73 19.62C13.62 19.62 13.5 19.6 13.4 19.54L11.66 18.68C11.4 18.55 11.24 18.29 11.24 18.01V15.99C11.24 15.58 11.58 15.24 11.99 15.24C12.4 15.24 12.74 15.58 12.74 15.99V17.55L14.06 18.2C14.43 18.38 14.58 18.83 14.4 19.2Z" fill="white"/> </g> <defs> <clipPath id="clip0_4482_1018"> <rect width="24" height="24" fill="white"/> </clipPath> </defs> </svg>
