<svg width="24" height="24" viewBox="0 0 24 24" fill="none" xmlns="http://www.w3.org/2000/svg"> <g clip-path="url(#clip0_2085_383358)"> <path d="M4.44999 17.1298C4.18999 17.1298 3.93999 16.9998 3.79999 16.7598C3.58999 16.3998 3.70999 15.9398 4.06999 15.7398L19.18 6.9798C19.54 6.7698 20 6.8898 20.2 7.2498C20.4 7.6098 20.29 8.0698 19.93 8.2698L4.81999 17.0298C4.69999 17.0998 4.56999 17.1298 4.43999 17.1298H4.44999Z" fill="white"/> <path d="M18.9099 10.5499C18.8399 10.5499 18.7699 10.5499 18.6999 10.5199C18.2999 10.3999 18.0799 9.97993 18.1899 9.58993L18.6199 8.12993L17.1599 7.69993C16.7599 7.57993 16.5399 7.15993 16.6499 6.76993C16.7599 6.37993 17.1899 6.14993 17.5799 6.25993L19.7599 6.90993C20.1599 7.02993 20.3799 7.44993 20.2699 7.83993L19.6199 10.0199C19.5199 10.3499 19.2199 10.5599 18.8999 10.5599L18.9099 10.5499Z" fill="white"/> <path d="M6.65996 17.6302C6.60996 17.6302 6.54996 17.6302 6.48996 17.6102L4.26996 17.1102C3.86996 17.0202 3.60996 16.6202 3.69996 16.2102L4.19996 13.9902C4.28996 13.5902 4.68996 13.3302 5.09996 13.4202C5.49996 13.5102 5.75996 13.9102 5.66996 14.3202L5.33996 15.8002L6.81996 16.1302C7.21996 16.2202 7.47996 16.6202 7.38996 17.0302C7.30996 17.3802 6.99996 17.6102 6.65996 17.6102V17.6302Z" fill="white"/> <g opacity="0.4"> <path d="M2 19.14V4.86003C2 4.17003 2.68 3.69003 3.33 3.92003C5.15 4.56003 8.07 5.19003 12 5.19003C15.93 5.19003 18.84 4.56003 20.67 3.92003C21.32 3.69003 22 4.17003 22 4.86003V19.15C22 19.84 21.32 20.32 20.67 20.09C18.85 19.45 15.93 18.82 12 18.82C8.07 18.82 5.16 19.45 3.33 20.09C2.68 20.32 2 19.84 2 19.15V19.14Z" fill="white"/> </g> </g> <defs> <clipPath id="clip0_2085_383358"> <rect width="24" height="24" fill="white"/> </clipPath> </defs> </svg>
