<svg width="24" height="24" viewBox="0 0 24 24" fill="none" xmlns="http://www.w3.org/2000/svg"> <path d="M6.92001 15.2499C7.00001 15.5799 6.85992 15.9199 6.56992 16.0899C6.44992 16.1599 6.31991 16.1899 6.18991 16.1899C5.99991 16.1899 5.81 16.1199 5.66 15.9699L2.21994 12.5299C1.92994 12.2399 1.92994 11.7599 2.21994 11.4699L5.66 8.02989C5.9 7.78989 6.26992 7.7399 6.56992 7.9099C6.85992 8.0799 7.00001 8.4199 6.92001 8.7499L6.05002 11.9999L6.92001 15.2499Z" fill="white"/> <path d="M17.08 8.74957C17 8.41957 17.1401 8.07957 17.4301 7.90957C17.5501 7.83957 17.6801 7.80957 17.8101 7.80957C18.0001 7.80957 18.19 7.87957 18.34 8.02957L21.7801 11.4696C22.0701 11.7596 22.0701 12.2396 21.7801 12.5296L18.34 15.9696C18.1 16.2096 17.7301 16.2596 17.4301 16.0896C17.1401 15.9196 17 15.5796 17.08 15.2496L17.95 11.9996L17.08 8.74957Z" fill="white"/> <path opacity="0.4" d="M14.87 12.8996H9.14001C8.64001 12.8996 8.23999 12.4996 8.23999 11.9996C8.23999 11.4996 8.64001 11.0996 9.14001 11.0996H14.87C15.37 11.0996 15.77 11.4996 15.77 11.9996C15.77 12.4996 15.36 12.8996 14.87 12.8996Z" fill="white"/> </svg>
