<svg width="24" height="24" viewBox="0 0 24 24" fill="none" xmlns="http://www.w3.org/2000/svg"> <g clip-path="url(#clip0_4482_15056)"> <g opacity="0.4"> <path d="M9.78 22.75H7.56C4.08 22.75 1.25 19.92 1.25 16.44V7.56C1.25 4.08 4.08 1.25 7.56 1.25H16.45C19.93 1.25 22.76 4.08 22.76 7.56V9.78C22.76 10.19 22.42 10.53 22.01 10.53C21.6 10.53 21.26 10.19 21.26 9.78V7.56C21.26 4.91 19.1 2.75 16.45 2.75H7.56C4.91 2.75 2.75 4.91 2.75 7.56V16.45C2.75 19.1 4.91 21.26 7.56 21.26H9.78C10.19 21.26 10.53 21.6 10.53 22.01C10.53 22.42 10.19 22.76 9.78 22.76V22.75Z" fill="white"/> </g> <path d="M18.2902 14C16.2402 14 14.5802 15.66 14.5802 17.71C14.5802 18.47 14.8102 19.17 15.2002 19.76C15.1802 19.78 15.1602 19.78 15.1402 19.8L13.4802 21.46C13.1902 21.75 13.1902 22.23 13.4802 22.52C13.6302 22.67 13.8202 22.74 14.0102 22.74C14.2002 22.74 14.3902 22.67 14.5402 22.52L16.2002 20.86C16.2002 20.86 16.2202 20.82 16.2402 20.8C16.8302 21.19 17.5302 21.42 18.2902 21.42C20.3402 21.42 22.0002 19.76 22.0002 17.71C22.0002 15.66 20.3402 14 18.2902 14Z" fill="white"/> <path d="M8.6702 12.75C8.4802 12.75 8.2902 12.68 8.1402 12.53L5.9202 10.31C5.7802 10.17 5.7002 9.98 5.7002 9.78C5.7002 9.58 5.7802 9.39 5.9202 9.25L8.1402 7.03C8.4302 6.74 8.9102 6.74 9.2002 7.03C9.4902 7.32 9.4902 7.8 9.2002 8.09L7.5102 9.78L9.2002 11.47C9.4902 11.76 9.4902 12.24 9.2002 12.53C9.0502 12.68 8.8602 12.75 8.6702 12.75Z" fill="white"/> <path d="M12.0004 12.75C11.8104 12.75 11.6204 12.68 11.4704 12.53C11.1804 12.24 11.1804 11.76 11.4704 11.47L13.1604 9.78L11.4704 8.09C11.1804 7.8 11.1804 7.32 11.4704 7.03C11.7604 6.74 12.2404 6.74 12.5304 7.03L14.7504 9.25C14.8904 9.39 14.9704 9.58 14.9704 9.78C14.9704 9.98 14.8904 10.17 14.7504 10.31L12.5304 12.53C12.3804 12.68 12.1904 12.75 12.0004 12.75Z" fill="white"/> </g> <defs> <clipPath id="clip0_4482_15056"> <rect width="24" height="24" fill="white"/> </clipPath> </defs> </svg>
