<svg width="24" height="24" viewBox="0 0 24 24" fill="none" xmlns="http://www.w3.org/2000/svg"> <g clip-path="url(#clip0_2085_393934)"> <path opacity="0.4" d="M21.3299 9.17988V13.2099C21.3299 14.3599 21.3299 14.9399 21.1599 15.5399C20.9999 16.0699 20.7599 16.5699 20.4299 17.0099C20.3399 17.1399 20.2399 17.2499 20.1299 17.3599C19.7999 17.7099 19.3699 18.0399 18.6799 18.5599L16.0899 20.5399C15.8999 20.6899 15.7099 20.8299 15.5399 20.9599C15.0299 21.3499 14.6099 21.6499 14.2299 21.9099H14.2199C13.9599 22.0699 13.7299 22.1999 13.4999 22.3199C13.2699 22.4299 13.0299 22.5099 12.7899 22.5799C12.3699 22.6899 11.9499 22.7499 11.5199 22.7499H11.4899C11.0599 22.7499 10.6299 22.6899 10.2199 22.5799C9.97994 22.5199 9.74994 22.4299 9.51994 22.3199C9.28994 22.1999 9.05994 22.0699 8.79994 21.9099H8.78994C8.40994 21.6499 7.98994 21.3499 7.47994 20.9599C7.30994 20.8299 7.10994 20.6899 6.90994 20.5299L4.32994 18.5599C3.64994 18.0399 3.21994 17.7099 2.88994 17.3599C2.77994 17.2499 2.67994 17.1399 2.58994 17.0099C2.25994 16.5699 2.01994 16.0699 1.85994 15.5399C1.68994 14.9399 1.68994 14.3599 1.68994 13.2099V9.17988C1.68994 7.55988 1.68994 6.74988 1.98994 5.96988C2.25994 5.27988 2.69994 4.65988 3.25994 4.17988C3.89994 3.62988 4.65994 3.35988 6.17994 2.82988L8.27994 2.08988C8.27994 2.08988 8.30994 2.07988 8.31994 2.06988L8.97994 1.83988C9.83994 1.53988 10.3199 1.36988 10.8299 1.29988C11.2799 1.23988 11.7399 1.23988 12.1899 1.29988C12.6999 1.36988 13.1699 1.53988 14.0299 1.83988L14.7399 2.08988L14.8996 2.1464C15.5817 2.3879 15.7505 3.24451 15.0675 3.48363C15.0517 3.48916 15.0358 3.49458 15.0199 3.49988C14.3299 3.72988 13.8599 4.37988 13.8599 5.10988C13.8599 5.83988 14.3299 6.48988 15.0199 6.71988C15.9899 7.04988 16.7699 7.82988 17.0899 8.79988C17.3299 9.49988 17.9699 9.95988 18.6999 9.95988H18.7099C19.4399 9.95988 20.0799 9.48988 20.3099 8.78988C20.5448 8.08515 21.3299 8.36828 21.3299 9.11113C21.3299 9.13389 21.3299 9.1568 21.3299 9.17988Z" fill="white"/> <path d="M18.52 1.90014C18.58 1.72014 18.83 1.72014 18.89 1.90014C19.37 3.33014 20.49 4.45014 21.91 4.93014C22.09 4.99014 22.09 5.24014 21.91 5.30014C20.48 5.78014 19.36 6.90014 18.89 8.33014C18.83 8.51014 18.58 8.51014 18.52 8.33014C18.04 6.90014 16.92 5.78014 15.5 5.30014C15.32 5.24014 15.32 4.99014 15.5 4.93014C16.93 4.45014 18.05 3.33014 18.52 1.90014Z" fill="white"/> <path d="M14.4599 9.46008C14.5299 9.12008 15.0199 9.12008 15.0899 9.46008C15.2499 10.2201 15.8399 10.8101 16.5999 10.9701C16.9399 11.0401 16.9399 11.5301 16.5999 11.6001C15.8399 11.7601 15.2499 12.3501 15.0899 13.1101C15.0199 13.4501 14.5299 13.4501 14.4599 13.1101C14.2999 12.3501 13.7099 11.7601 12.9499 11.6001C12.6099 11.5301 12.6099 11.0401 12.9499 10.9701C13.7099 10.8101 14.2999 10.2201 14.4599 9.46008Z" fill="white"/> </g> <defs> <clipPath id="clip0_2085_393934"> <rect width="24" height="24" fill="white"/> </clipPath> </defs> </svg>
