<svg width="24" height="24" viewBox="0 0 24 24" fill="none" xmlns="http://www.w3.org/2000/svg"> <g clip-path="url(#clip0_2085_393835)"> <g opacity="0.4"> <path d="M21.88 7.55957L20.73 15.7596C20.53 17.2196 19.62 18.4796 18.3 19.1296L12.97 21.7696C12.66 21.9196 12.33 21.9996 12 21.9996V7.55957H21.88Z" fill="white"/> </g> <path d="M21.95 7.06L21.88 7.56H2.12004L2.05004 7.06C1.87004 5.79 2.25004 4.5 3.09004 3.53C3.94004 2.56 5.16004 2 6.44004 2H17.55C18.84 2 20.06 2.56 20.91 3.53C21.75 4.5 22.13 5.79 21.95 7.06Z" fill="white"/> <path d="M12 7.55957V21.9996C11.67 21.9996 11.34 21.9196 11.03 21.7696L5.7 19.1296C4.37999 18.4796 3.47 17.2196 3.27 15.7596L2.12 7.55957H12Z" fill="white"/> </g> <defs> <clipPath id="clip0_2085_393835"> <rect width="24" height="24" fill="white"/> </clipPath> </defs> </svg>
