<svg width="24" height="24" viewBox="0 0 24 24" fill="none" xmlns="http://www.w3.org/2000/svg"> <g clip-path="url(#clip0_4482_6493)"> <path d="M15.4301 4.29V7.71C15.4301 8.97 14.5701 10 13.1401 10H12.7501V13H11.2501V10H10.86C9.43005 10 8.57007 8.97 8.57007 7.71V4.29C8.57007 3.03 9.43005 2 10.86 2H13.1401C14.5701 2 15.4301 3.03 15.4301 4.29Z" fill="white"/> <path opacity="0.4" d="M16.78 15.2L16.6199 16.75L16.4699 18.25L16.27 20.2C16.17 21.22 15.31 22 14.28 22H9.71991C8.68991 22 7.82992 21.22 7.72992 20.2L7.21991 15.2C7.09991 14.02 8.02996 13 9.20996 13H14.7899C15.9699 13 16.9 14.02 16.78 15.2Z" fill="white"/> <path d="M16.62 16.75L16.47 18.25H13.25C12.84 18.25 12.5 17.91 12.5 17.5C12.5 17.09 12.84 16.75 13.25 16.75H16.62Z" fill="white"/> </g> <defs> <clipPath id="clip0_4482_6493"> <rect width="24" height="24" fill="white"/> </clipPath> </defs> </svg>
