<svg width="24" height="24" viewBox="0 0 24 24" fill="none" xmlns="http://www.w3.org/2000/svg"> <g clip-path="url(#clip0_4482_9861)"> <path d="M22 15.3301V17.0001C22 19.7601 19.76 22.0001 17 22.0001H7C4.24 22.0001 2 19.7601 2 17.0001V15.3301H6.87C7.29 15.3301 7.67 15.5701 7.86 15.9501L8.36 16.9401C8.55 17.3201 8.93 17.5601 9.35 17.5601H14.65C15.07 17.5601 15.45 17.3201 15.64 16.9401L16.14 15.9501C16.33 15.5701 16.71 15.3301 17.13 15.3301H22Z" fill="white"/> <g opacity="0.4"> <path d="M22 7V15.33H17.13C16.71 15.33 16.33 15.57 16.14 15.95L15.64 16.94C15.45 17.32 15.07 17.56 14.65 17.56H9.35C8.93 17.56 8.55 17.32 8.36 16.94L7.86 15.95C7.67 15.57 7.29 15.33 6.87 15.33H2V7C2 4.24 4.24 2 7 2H17C19.76 2 22 4.24 22 7Z" fill="white"/> </g> <path d="M14.7505 8.62994L12.5305 6.40994C12.4605 6.33994 12.3805 6.28994 12.2905 6.24994C12.1105 6.16994 11.9005 6.16994 11.7205 6.24994C11.6305 6.28994 11.5505 6.33994 11.4805 6.40994L9.26047 8.62994C8.97047 8.91994 8.97047 9.39994 9.26047 9.68994C9.55047 9.97994 10.0305 9.97994 10.3205 9.68994L11.2605 8.74994V12.4999C11.2605 12.9099 11.6005 13.2499 12.0105 13.2499C12.4205 13.2499 12.7605 12.9099 12.7605 12.4999V8.74994L13.7005 9.68994C13.8505 9.83994 14.0405 9.90994 14.2305 9.90994C14.4205 9.90994 14.6105 9.83994 14.7605 9.68994C15.0505 9.39994 15.0505 8.91994 14.7605 8.62994H14.7505Z" fill="white"/> </g> <defs> <clipPath id="clip0_4482_9861"> <rect width="24" height="24" fill="white"/> </clipPath> </defs> </svg>
