<svg width="24" height="24" viewBox="0 0 24 24" fill="none" xmlns="http://www.w3.org/2000/svg"> <g clip-path="url(#clip0_2085_391702)"> <path d="M16.68 4.49H7.32002C7.00002 3.23 7.95002 2 9.25002 2H14.75C16.05 2 17 3.23 16.68 4.49Z" fill="white"/> <g opacity="0.4"> <path d="M16.6799 4.49023C16.6799 4.49023 16.6799 4.53023 16.6699 4.55023L14.8999 10.7602H9.09995L7.32995 4.55023C7.32995 4.55023 7.31995 4.51023 7.31995 4.49023H16.6799Z" fill="white"/> </g> <g opacity="0.4"> <path d="M16.6799 19.5102H7.31995C7.31995 19.5102 7.31995 19.4702 7.32995 19.4502L9.09995 13.2402H14.8999L16.6699 19.4502C16.6699 19.4502 16.6799 19.4902 16.6799 19.5102Z" fill="white"/> </g> <path d="M14.75 21.9998H9.25002C7.95002 21.9998 7.00002 20.7698 7.32002 19.5098H16.68C17 20.7698 16.05 21.9998 14.75 21.9998Z" fill="white"/> <path d="M16.15 11.9998C16.15 12.6898 15.59 13.2398 14.9 13.2398H9.09998C8.40998 13.2398 7.84998 12.6898 7.84998 11.9998C7.84998 11.3098 8.40998 10.7598 9.09998 10.7598H14.9C15.59 10.7598 16.15 11.3098 16.15 11.9998Z" fill="white"/> </g> <defs> <clipPath id="clip0_2085_391702"> <rect width="24" height="24" fill="white"/> </clipPath> </defs> </svg>
