<svg width="24" height="24" viewBox="0 0 24 24" fill="none" xmlns="http://www.w3.org/2000/svg"> <g clip-path="url(#clip0_4482_14448)"> <path d="M19.6504 22.0002H12.5804C11.1404 22.0002 10.0404 20.7302 10.2504 19.3002L10.5504 17.2902L11.4104 11.4102H20.8804C20.9204 11.9802 20.9804 12.5402 21.0704 13.1002L21.9804 19.3102C22.1804 20.7302 21.0804 22.0002 19.6504 22.0002Z" fill="white"/> <path opacity="0.4" d="M20.8802 11.41H11.4102V9.69996C11.4102 8.04996 12.7502 6.70996 14.4002 6.70996H17.8202C19.4802 6.70996 20.8202 8.04996 20.8202 9.69996C20.8202 10.27 20.8402 10.84 20.8802 11.41Z" fill="white"/> <path d="M11.7697 6.7002C10.9397 7.4302 10.4097 8.5102 10.4097 9.7002V11.3402L9.52968 17.2902H4.35968C2.91968 17.2902 1.81968 16.0202 2.02968 14.5902L2.32968 12.5802L3.18968 6.7002H11.7697Z" fill="white"/> <path opacity="0.4" d="M12.6304 6.13C12.3104 6.28 12.0304 6.48 11.7704 6.7H3.19043V4.99C3.19043 3.34 4.53043 2 6.18043 2H9.60043C11.2604 2 12.6004 3.34 12.6004 4.99C12.6004 5.37 12.6004 5.75 12.6304 6.13Z" fill="white"/> </g> <defs> <clipPath id="clip0_4482_14448"> <rect width="24" height="24" fill="white"/> </clipPath> </defs> </svg>
