<svg width="24" height="24" viewBox="0 0 24 24" fill="none" xmlns="http://www.w3.org/2000/svg"> <g clip-path="url(#clip0_2085_391481)"> <g opacity="0.4"> <path d="M21.76 12.9702C18.44 16.8102 12.23 17.1302 12.23 17.1302C11.76 18.6902 10.79 19.7502 9.88 20.4302C9.13 21.0002 8.08 20.3202 8.28 19.3902L8.83 16.7902L5.1 16.4502C4.92 16.9102 4.64 17.2702 4.32 17.5502C3.62 18.1702 2.52 17.5502 2.65 16.6202L2.72 16.1102C2.32236 16.1102 2 15.7879 2 15.3902V9.88713C2 9.53549 2.18502 9.21109 2.50366 9.06234C3.10434 8.78191 4.22594 8.3333 5.78 8.03023C7.16 7.75023 8.88 7.59023 10.87 7.76023C13.87 8.00023 17.48 8.99023 21.51 11.4402C22.04 11.7602 22.16 12.5002 21.76 12.9702Z" fill="white"/> </g> <path d="M10.87 7.76001C8.88003 7.59001 7.16003 7.75001 5.78003 8.03001V3.76001C5.78003 3.05001 6.47003 2.54001 7.13003 2.79001C8.34003 3.23001 10.05 4.45001 10.87 7.76001Z" fill="white"/> <path d="M20.15 15.1697C20.15 15.1697 20.1 15.1697 20.07 15.1697L16.91 14.8297C16.5 14.7897 16.2 14.4197 16.24 13.9997C16.28 13.5897 16.65 13.2897 17.07 13.3297L20.23 13.6697C20.64 13.7097 20.94 14.0797 20.9 14.4997C20.86 14.8797 20.53 15.1697 20.16 15.1697H20.15Z" fill="white"/> <path d="M12.22 15.1601C12 15.1601 11.78 15.0601 11.64 14.8801C11.05 14.1401 10.29 12.2301 11.6 10.2601C11.83 9.92012 12.3 9.82012 12.64 10.0501C12.98 10.2801 13.08 10.7501 12.85 11.0901C11.84 12.6001 12.71 13.8101 12.82 13.9501C13.07 14.2801 13.01 14.7501 12.69 15.0001C12.55 15.1101 12.39 15.1601 12.23 15.1601H12.22Z" fill="white"/> <path d="M9.42999 15.1601C9.20999 15.1601 8.98999 15.0601 8.84999 14.8801C8.25999 14.1401 7.49999 12.2301 8.80999 10.2601C9.03999 9.92012 9.50999 9.82012 9.84999 10.0501C10.19 10.2801 10.29 10.7501 10.06 11.0901C9.04999 12.6001 9.91999 13.8101 10.03 13.9501C10.28 14.2801 10.22 14.7501 9.89999 15.0001C9.75999 15.1101 9.59999 15.1601 9.43999 15.1601H9.42999Z" fill="white"/> </g> <defs> <clipPath id="clip0_2085_391481"> <rect width="24" height="24" fill="white"/> </clipPath> </defs> </svg>
