<svg width="24" height="24" viewBox="0 0 24 24" fill="none" xmlns="http://www.w3.org/2000/svg"> <g clip-path="url(#clip0_2085_387711)"> <path d="M4.76256 15.0921C4.88301 14.6958 5.3018 14.4717 5.69811 14.5921C6.09437 14.7126 6.31747 15.1314 6.19713 15.5277C6.03329 16.0668 5.82303 16.5999 5.6444 17.0794C5.46021 17.5739 5.30179 18.033 5.20397 18.4954L5.20299 18.4945C4.98664 19.5424 5.01755 20.6542 5.31823 21.6536C5.43756 22.0503 5.21284 22.4688 4.81627 22.5882C4.4197 22.7075 4.00114 22.4828 3.8817 22.0863C3.50269 20.8266 3.47221 19.459 3.73522 18.1878L3.73619 18.1849C3.85833 17.6075 4.0499 17.0614 4.23815 16.556C4.43198 16.0356 4.61642 15.5729 4.76256 15.0921Z" fill="white"/> <path d="M7.00998 7.58957C6.47998 7.52957 5.96998 7.45957 5.45998 7.36957C5.21998 5.59957 4.69998 4.01957 3.94998 2.66957C3.74998 2.30957 3.87998 1.84957 4.23998 1.64957C4.59998 1.44957 5.05998 1.57957 5.25998 1.93957C6.16998 3.56957 6.74998 5.46957 7.00998 7.58957Z" fill="white"/> <path d="M18.6534 14.5948C19.0482 14.4697 19.4697 14.6883 19.5948 15.0831C19.7473 15.5644 19.9331 16.022 20.129 16.5479C20.318 17.0553 20.5069 17.604 20.6241 18.1876C20.8871 19.4588 20.8576 20.8263 20.4786 22.086C20.3592 22.4825 19.9406 22.7072 19.544 22.588C19.1474 22.4686 18.9227 22.05 19.0421 21.6534C19.343 20.6531 19.3723 19.54 19.1554 18.4913L19.1544 18.4864C19.0615 18.022 18.9066 17.5624 18.7237 17.0714C18.5471 16.5973 18.3326 16.0649 18.1651 15.5362C18.04 15.1414 18.2586 14.7199 18.6534 14.5948Z" fill="white"/> <path d="M20.41 2.66957C19.72 3.89957 19.24 5.32957 18.95 6.92957C18.44 7.04957 17.91 7.15957 17.38 7.24957C17.67 5.24957 18.25 3.45957 19.11 1.93957C19.31 1.57957 19.76 1.44957 20.13 1.64957C20.49 1.84957 20.62 2.30957 20.41 2.66957Z" fill="white"/> <path opacity="0.4" d="M22 7.58011V11.5001C22 11.9801 21.69 12.4201 21.22 12.5601C20.09 12.9001 18.9 13.1901 17.68 13.4101C17.19 13.5001 16.69 13.5901 16.18 13.6501C15.07 13.8101 13.92 13.9101 12.75 13.9601C12.62 13.9701 12.48 13.9801 12.34 13.9801C11.98 13.9901 11.61 14.0001 11.25 14.0001C10.08 14.0001 8.93 13.9401 7.82 13.8401C7.31 13.7901 6.81 13.7301 6.32 13.6601C5.11 13.4901 3.94 13.2601 2.82 12.9701C2.33 12.8401 2 12.4001 2 11.8901V8.05011C2 7.33011 2.66 6.81011 3.36 6.97011C4.04 7.13011 4.74 7.26011 5.46 7.37011C5.97 7.46011 6.48 7.53011 7.01 7.59011C8.66 7.78011 10.38 7.85011 12.15 7.80011C13.96 7.74011 15.71 7.55011 17.38 7.25011C17.91 7.16011 18.44 7.05011 18.95 6.93011C19.51 6.81011 20.05 6.67011 20.58 6.52011C21.29 6.32011 21.99 6.85011 22 7.58011Z" fill="white"/> <path d="M19.658 17.8471C20.0462 17.7026 20.4783 17.9004 20.6229 18.2885C20.7674 18.6767 20.5696 19.1088 20.1815 19.2534C17.7058 20.1752 14.9271 20.6899 11.9901 20.6899C9.20587 20.6899 6.54161 20.2158 4.16096 19.3774C3.7703 19.2398 3.56542 18.812 3.70295 18.4213C3.84052 18.0307 4.26838 17.8249 4.65901 17.9624C6.87835 18.744 9.37426 19.1899 11.9901 19.1899C14.7528 19.1899 17.3538 18.7052 19.658 17.8471Z" fill="white"/> <path d="M7.81995 11.3799V13.8399C7.30995 13.7899 6.80995 13.7299 6.31995 13.6599V11.3799C6.31995 10.9599 6.64995 10.6299 7.06995 10.6299C7.48995 10.6299 7.81995 10.9599 7.81995 11.3799Z" fill="white"/> <path d="M17.6801 11.3799V13.4099C17.1901 13.4999 16.6901 13.5899 16.1801 13.6499V11.3799C16.1801 10.9599 16.5201 10.6299 16.9301 10.6299C17.3401 10.6299 17.6801 10.9599 17.6801 11.3799Z" fill="white"/> <path d="M12.75 11.7598V13.9598C12.62 13.9698 12.48 13.9798 12.34 13.9798C11.98 13.9898 11.61 13.9998 11.25 13.9998V11.7598C11.25 11.3498 11.59 11.0098 12 11.0098C12.41 11.0098 12.75 11.3498 12.75 11.7598Z" fill="white"/> </g> <defs> <clipPath id="clip0_2085_387711"> <rect width="24" height="24" fill="white"/> </clipPath> </defs> </svg>
