<svg width="24" height="24" viewBox="0 0 24 24" fill="none" xmlns="http://www.w3.org/2000/svg"> <g clip-path="url(#clip0_2085_387714)"> <path opacity="0.4" d="M22 15.0503C22 16.1903 21.08 17.1203 19.95 17.1203H4.33996C2.28996 17.1203 1.36996 14.1903 2.45996 12.4603C3.55266 10.7432 3.98769 8.76469 3.26183 6.47063C3.1413 6.08971 3.22027 5.66275 3.52317 5.4022C5.7418 3.49373 8.54892 2.97441 9.91233 2.8331C10.3872 2.78389 10.7968 3.11767 10.8896 3.58594L11.15 4.90027L11.45 6.38027L11.55 6.90027C11.62 7.26027 11.72 7.61027 11.86 7.94027C12.04 8.42027 12.29 8.87027 12.58 9.27027C13.34 10.3403 14.44 11.1503 15.73 11.5603L20.57 13.0903C21.42 13.3503 22 14.1603 22 15.0503Z" fill="white"/> <path d="M11.45 6.38039L9.45003 6.91039C9.39003 6.93039 9.32003 6.94039 9.26003 6.94039C8.93003 6.94039 8.62003 6.71039 8.53003 6.38039C8.43003 5.98039 8.66003 5.57039 9.06003 5.46039L11.15 4.90039L11.45 6.38039Z" fill="white"/> <path d="M12.58 9.27043C12.58 9.27043 12.48 9.32043 12.43 9.33043L10.06 9.97043C10 9.98043 9.93001 9.99043 9.87001 9.99043C9.54001 9.99043 9.24001 9.77043 9.15001 9.44043C9.04001 9.04043 9.28001 8.63043 9.68001 8.52043L11.86 7.94043C12.04 8.42043 12.29 8.87043 12.58 9.27043Z" fill="white"/> <path d="M4.58003 21.2201C5.71221 21.2201 6.63003 20.3023 6.63003 19.1701C6.63003 18.0379 5.71221 17.1201 4.58003 17.1201C3.44785 17.1201 2.53003 18.0379 2.53003 19.1701C2.53003 20.3023 3.44785 21.2201 4.58003 21.2201Z" fill="white"/> <path d="M11.75 21.2201C12.8821 21.2201 13.8 20.3023 13.8 19.1701C13.8 18.0379 12.8821 17.1201 11.75 17.1201C10.6178 17.1201 9.69995 18.0379 9.69995 19.1701C9.69995 20.3023 10.6178 21.2201 11.75 21.2201Z" fill="white"/> <path d="M18.93 21.2201C20.0622 21.2201 20.98 20.3023 20.98 19.1701C20.98 18.0379 20.0622 17.1201 18.93 17.1201C17.7978 17.1201 16.88 18.0379 16.88 19.1701C16.88 20.3023 17.7978 21.2201 18.93 21.2201Z" fill="white"/> </g> <defs> <clipPath id="clip0_2085_387714"> <rect width="24" height="24" fill="white"/> </clipPath> </defs> </svg>
