<svg width="24" height="24" viewBox="0 0 24 24" fill="none" xmlns="http://www.w3.org/2000/svg"> <g clip-path="url(#clip0_2085_382930)"> <g opacity="0.4"> <path d="M20.89 10.89V11.64C20.89 13.25 20.08 14.76 18.74 15.65L18.39 15.89C17.87 16.24 17.56 16.82 17.56 17.45V18.44C17.56 19.69 17.56 20.31 17.31 20.79C17.1 21.2 16.76 21.54 16.34 21.76C16.01 21.93 15.61 21.98 14.97 21.99C14.69 22 14.37 22 14 22H9.99999C9.62999 22 9.30999 22 9.02999 21.99C8.38999 21.98 7.98999 21.93 7.65999 21.76C7.23999 21.54 6.89999 21.2 6.68999 20.79C6.43999 20.31 6.43999 19.69 6.43999 18.44V17.45C6.43999 16.82 6.12999 16.24 5.60999 15.89L5.25999 15.65C3.91999 14.76 3.10999 13.25 3.10999 11.64V10.89C3.10999 5.98 7.08999 2 12 2C13.11 2 14.17 2.2 15.15 2.58C15.65 2.76 16.13 3 16.58 3.27C19.16 4.82 20.89 7.66 20.89 10.89Z" fill="white"/> </g> <path d="M12 17.75C11.59 17.75 11.25 17.41 11.25 17V14.78C11.25 14.37 11.59 14.03 12 14.03C12.41 14.03 12.75 14.37 12.75 14.78V17C12.75 17.41 12.41 17.75 12 17.75Z" fill="white"/> <path d="M15.58 4.87008C16.09 5.37008 16.09 6.20008 15.58 6.70008L14.75 7.53008C14.61 7.68008 14.41 7.75008 14.22 7.75008C14.03 7.75008 13.84 7.68008 13.69 7.53008C13.4 7.24008 13.4 6.76008 13.69 6.47008L14.38 5.78008L14.08 5.49008C13.57 4.98008 13.57 4.16008 14.08 3.65008L15.15 2.58008C15.65 2.76008 16.13 3.00008 16.58 3.27008L15.28 4.57008L15.58 4.87008Z" fill="white"/> <path d="M10.53 19.78V22H10C9.63003 22 9.31003 22 9.03003 21.99V19.78C9.03003 19.36 9.36003 19.03 9.78003 19.03C10.2 19.03 10.53 19.36 10.53 19.78Z" fill="white"/> <path d="M12.75 19.78V22H11.25V19.78C11.25 19.36 11.59 19.03 12 19.03C12.41 19.03 12.75 19.36 12.75 19.78Z" fill="white"/> <path d="M14.97 19.78V21.99C14.69 22 14.37 22 14 22H13.47V19.78C13.47 19.36 13.81 19.03 14.22 19.03C14.63 19.03 14.97 19.36 14.97 19.78Z" fill="white"/> <path d="M6.99995 13.86C6.68995 13.86 6.38995 13.66 6.28995 13.35C6.15995 12.96 6.36995 12.53 6.75995 12.4L8.54995 11.8L7.16995 10.97C6.80995 10.76 6.69995 10.3 6.90995 9.93995C7.11995 9.57995 7.57995 9.46995 7.93995 9.67995L9.78995 10.79C10.2099 11.04 10.4399 11.51 10.3899 12C10.3399 12.49 10.0099 12.89 9.53995 13.05L7.23994 13.82C7.15995 13.85 7.07995 13.86 6.99995 13.86Z" fill="white"/> <path d="M17 13.86C16.92 13.86 16.84 13.85 16.76 13.82L14.46 13.05C13.99 12.89 13.67 12.49 13.61 12C13.56 11.51 13.79 11.05 14.21 10.79L16.06 9.67995C16.41 9.46995 16.87 9.57995 17.09 9.93995C17.3 10.2899 17.19 10.76 16.83 10.97L15.45 11.8L17.24 12.4C17.63 12.53 17.84 12.96 17.71 13.35C17.61 13.66 17.31 13.86 17 13.86Z" fill="white"/> </g> <defs> <clipPath id="clip0_2085_382930"> <rect width="24" height="24" fill="white"/> </clipPath> </defs> </svg>
