<svg width="24" height="24" viewBox="0 0 24 24" fill="none" xmlns="http://www.w3.org/2000/svg"> <g clip-path="url(#clip0_4482_8034)"> <g opacity="0.4"> <path d="M21.4904 17.03H16.2604C15.7704 17.03 15.3404 16.75 15.1304 16.31C14.9204 15.87 14.9904 15.36 15.3004 14.98L19.5104 9.90002H14.6104C14.2004 9.90002 13.8604 9.56002 13.8604 9.15002C13.8604 8.74002 14.2004 8.40002 14.6104 8.40002H20.0404C20.5304 8.40002 20.9604 8.68002 21.1704 9.12002C21.3804 9.56002 21.3104 10.07 21.0004 10.45L16.7904 15.53H21.4804C21.8904 15.53 22.2304 15.87 22.2304 16.28C22.2304 16.69 21.8904 17.03 21.4804 17.03H21.4904Z" fill="white"/> </g> <path d="M11.8303 22.75H7.71031C7.22031 22.75 6.79031 22.48 6.58031 22.03C6.37031 21.59 6.44031 21.08 6.75031 20.7L9.92031 16.88H6.07031C5.66031 16.88 5.32031 16.54 5.32031 16.13C5.32031 15.72 5.66031 15.38 6.07031 15.38H10.4503C10.9403 15.38 11.3703 15.66 11.5803 16.1C11.7903 16.54 11.7203 17.05 11.4103 17.43L8.24031 21.25H11.8203C12.2303 21.25 12.5703 21.59 12.5703 22C12.5703 22.41 12.2303 22.75 11.8203 22.75H11.8303Z" fill="white"/> <path d="M10.7798 11.51H4.16977C3.67977 11.51 3.24977 11.23 3.03977 10.79C2.82977 10.35 2.89977 9.84 3.20977 9.46L8.77977 2.75H2.50977C2.09977 2.75 1.75977 2.41 1.75977 2C1.75977 1.59 2.09977 1.25 2.50977 1.25H9.29977C9.78977 1.25 10.2198 1.53 10.4298 1.97C10.6398 2.41 10.5698 2.92 10.2598 3.3L4.68977 10.02H10.7698C11.1798 10.02 11.5198 10.36 11.5198 10.77C11.5198 11.18 11.1798 11.52 10.7698 11.52L10.7798 11.51Z" fill="white"/> </g> <defs> <clipPath id="clip0_4482_8034"> <rect width="24" height="24" fill="white"/> </clipPath> </defs> </svg>
