<svg width="24" height="24" viewBox="0 0 24 24" fill="none" xmlns="http://www.w3.org/2000/svg"> <g clip-path="url(#clip0_4482_14247)"> <g opacity="0.4"> <path d="M12.0002 2C10.0702 2 8.26023 2.55 6.74023 3.5V12C6.74023 13.46 7.33023 14.77 8.28023 15.72C9.23023 16.67 10.5402 17.26 12.0002 17.26C14.9102 17.26 17.2602 14.91 17.2602 12V3.5C15.7402 2.55 13.9302 2 12.0002 2ZM10.9502 5.99H13.0602C13.4702 5.99 13.8102 6.33 13.8102 6.74C13.8102 7.15 13.4702 7.49 13.0602 7.49H10.9502C10.5402 7.49 10.2002 7.15 10.2002 6.74C10.2002 6.33 10.5402 5.99 10.9502 5.99ZM12.0002 14.11C10.8402 14.11 9.89023 13.17 9.89023 12C9.89023 10.83 10.8302 9.89 12.0002 9.89C13.1702 9.89 14.1102 10.83 14.1102 12C14.1102 13.17 13.1702 14.11 12.0002 14.11Z" fill="white"/> </g> <path d="M12 22.75C6.07 22.75 1.25 17.93 1.25 12C1.25 6.07 6.07 1.25 12 1.25C17.93 1.25 22.75 6.07 22.75 12C22.75 17.93 17.93 22.75 12 22.75ZM12 2.75C6.9 2.75 2.75 6.9 2.75 12C2.75 17.1 6.9 21.25 12 21.25C17.1 21.25 21.25 17.1 21.25 12C21.25 6.9 17.1 2.75 12 2.75Z" fill="white"/> </g> <defs> <clipPath id="clip0_4482_14247"> <rect width="24" height="24" fill="white"/> </clipPath> </defs> </svg>
