<svg width="24" height="24" viewBox="0 0 24 24" fill="none" xmlns="http://www.w3.org/2000/svg"> <g clip-path="url(#clip0_4482_6377)"> <path opacity="0.4" d="M12 22C17.5228 22 22 17.5228 22 12C22 6.47715 17.5228 2 12 2C6.47715 2 2 6.47715 2 12C2 17.5228 6.47715 22 12 22Z" fill="white"/> <path d="M12 19.5C11.59 19.5 11.25 19.16 11.25 18.75V5.25C11.25 4.84 11.59 4.5 12 4.5C12.41 4.5 12.75 4.84 12.75 5.25V18.75C12.75 19.16 12.41 19.5 12 19.5Z" fill="white"/> <path d="M12.0001 8.69C11.8001 8.69 11.6101 8.61 11.4701 8.47L9.84006 6.84C9.55006 6.55 9.55006 6.07 9.84006 5.78C10.1301 5.49 10.6101 5.49 10.9001 5.78L12.0001 6.88L13.1001 5.78C13.3901 5.49 13.8701 5.49 14.1601 5.78C14.4501 6.07 14.4501 6.55 14.1601 6.84L12.5301 8.47C12.3901 8.61 12.2001 8.69 12.0001 8.69Z" fill="white"/> <path d="M6.00004 16.2104C5.74004 16.2104 5.49004 16.0804 5.35004 15.8304C5.14004 15.4704 5.27003 15.0104 5.62003 14.8104L17.62 7.88043C17.98 7.67043 18.44 7.80044 18.64 8.15044C18.84 8.50044 18.72 8.97044 18.37 9.17044L6.37003 16.1004C6.26003 16.1804 6.13004 16.2104 6.00004 16.2104Z" fill="white"/> <path d="M17.74 11.3196C17.68 11.3196 17.61 11.3096 17.55 11.2896L15.33 10.6996C14.93 10.5896 14.69 10.1796 14.8 9.77965L15.39 7.55965C15.5 7.15965 15.91 6.91965 16.31 7.02965C16.71 7.13965 16.95 7.54965 16.84 7.94965L16.44 9.44965L17.94 9.84965C18.34 9.95965 18.58 10.3696 18.47 10.7696C18.37 11.0996 18.07 11.3196 17.74 11.3196Z" fill="white"/> <path d="M7.89003 16.9996C7.83003 16.9996 7.76003 16.9896 7.70003 16.9696C7.30003 16.8596 7.06003 16.4496 7.17003 16.0496L7.57004 14.5496L6.07004 14.1496C5.67004 14.0396 5.43002 13.6296 5.54002 13.2296C5.65002 12.8296 6.06004 12.5896 6.46004 12.6996L8.68002 13.2896C9.08002 13.3996 9.32004 13.8096 9.21004 14.2096L8.62002 16.4296C8.53002 16.7796 8.22003 16.9996 7.89003 16.9996Z" fill="white"/> <path d="M18 16.2102C17.87 16.2102 17.7401 16.1802 17.6301 16.1102L5.63005 9.1802C5.27005 8.9702 5.15005 8.5102 5.36005 8.1602C5.57005 7.8102 6.03005 7.6802 6.38005 7.8902L18.3801 14.8202C18.7401 15.0302 18.86 15.4902 18.65 15.8402C18.51 16.0802 18.26 16.2102 18 16.2102Z" fill="white"/> <path d="M6.26002 11.3199C5.93002 11.3199 5.63002 11.0999 5.54002 10.7599C5.43002 10.3599 5.67004 9.94988 6.07004 9.83988L7.57004 9.43989L7.17003 7.93989C7.06003 7.53989 7.30003 7.12988 7.70003 7.01988C8.10003 6.90988 8.51002 7.14989 8.62002 7.54989L9.21004 9.76988C9.32004 10.1699 9.08002 10.5799 8.68002 10.6899L6.46004 11.2799C6.39004 11.3099 6.33002 11.3199 6.26002 11.3199Z" fill="white"/> <path d="M16.11 17.0003C15.78 17.0003 15.48 16.7803 15.39 16.4403L14.8 14.2203C14.69 13.8203 14.93 13.4103 15.33 13.3003L17.55 12.7103C17.95 12.6003 18.36 12.8403 18.47 13.2403C18.58 13.6403 18.34 14.0503 17.94 14.1603L16.44 14.5603L16.84 16.0603C16.95 16.4603 16.71 16.8703 16.31 16.9803C16.24 16.9903 16.17 17.0003 16.11 17.0003Z" fill="white"/> <path d="M13.6301 18.4296C13.4401 18.4296 13.2501 18.3596 13.1001 18.2096L12.0001 17.1096L10.9001 18.2096C10.6101 18.4996 10.1301 18.4996 9.84006 18.2096C9.55006 17.9196 9.55006 17.4396 9.84006 17.1496L11.4701 15.5196C11.7501 15.2396 12.2501 15.2396 12.5301 15.5196L14.1601 17.1496C14.4501 17.4396 14.4501 17.9196 14.1601 18.2096C14.0101 18.3596 13.8201 18.4296 13.6301 18.4296Z" fill="white"/> </g> <defs> <clipPath id="clip0_4482_6377"> <rect width="24" height="24" fill="white"/> </clipPath> </defs> </svg>
