<svg width="24" height="24" viewBox="0 0 24 24" fill="none" xmlns="http://www.w3.org/2000/svg"> <g clip-path="url(#clip0_655_9270)"> <path opacity="0.4" d="M21.45 19.61C20.62 21.12 18.96 22 17.24 22H9.78C9.78 17.67 6.33 14.22 2 14.22V6.44H10.89V11.11C10.89 12.22 11.78 13.11 12.89 13.11H17.56C18.78 13.11 19.89 13.67 20.67 14.44C21.87 15.64 22.54 17.64 21.45 19.61Z" fill="white"/> <path d="M10.89 4V6.44H2V4C2 2.9 2.9 2 4 2H8.89C9.99 2 10.89 2.9 10.89 4Z" fill="white"/> <path d="M9.78 22H6.44C4 22 2 20 2 17.56V14.22C6.33 14.22 9.78 17.67 9.78 22Z" fill="white"/> </g> <defs> <clipPath id="clip0_655_9270"> <rect width="24" height="24" fill="white"/> </clipPath> </defs> </svg>
