<svg width="24" height="24" viewBox="0 0 24 24" fill="none" xmlns="http://www.w3.org/2000/svg"> <g clip-path="url(#clip0_4482_718)"> <path opacity="0.4" d="M17 22H7C4.25 22 2 19.75 2 17V7C2 4.25 4.25 2 7 2H17C19.75 2 22 4.25 22 7V17C22 19.75 19.75 22 17 22Z" fill="white"/> <path d="M8.1001 15.75C6.5301 15.75 5.25 14.47 5.25 12.9V9C5.25 8.59 5.59 8.25 6 8.25C6.41 8.25 6.75 8.59 6.75 9V12.9C6.75 13.64 7.3601 14.25 8.1001 14.25C8.8501 14.25 9.44995 13.64 9.44995 12.9V9C9.44995 8.59 9.78995 8.25 10.2 8.25C10.61 8.25 10.95 8.59 10.95 9V12.9C10.95 14.47 9.6701 15.75 8.1001 15.75Z" fill="white"/> <path d="M18.0001 15.75C17.7601 15.75 17.53 15.64 17.38 15.43L13.18 9.42999C12.94 9.08999 13.0202 8.61999 13.3602 8.38999C13.7002 8.14999 14.17 8.22999 14.4 8.56999L18.6002 14.57C18.8402 14.91 18.76 15.38 18.42 15.61C18.3 15.71 18.1501 15.75 18.0001 15.75Z" fill="white"/> <path d="M13.8001 15.75C13.6501 15.75 13.5002 15.71 13.3702 15.61C13.0302 15.37 12.95 14.9 13.19 14.57L17.39 8.56999C17.63 8.22999 18.09 8.14999 18.43 8.38999C18.77 8.62999 18.8502 9.09999 18.6102 9.42999L14.41 15.43C14.27 15.64 14.0401 15.75 13.8001 15.75Z" fill="white"/> </g> <defs> <clipPath id="clip0_4482_718"> <rect width="24" height="24" fill="white"/> </clipPath> </defs> </svg>
