<svg width="24" height="24" viewBox="0 0 24 24" fill="none" xmlns="http://www.w3.org/2000/svg"> <g clip-path="url(#clip0_4482_986)"> <path d="M21.8 5.62019C19.66 7.28019 17.8 9.26019 16.26 11.4802L12.52 7.7402C14.74 6.2002 16.72 4.3402 18.38 2.2002C20.03 2.6702 21.33 3.97019 21.8 5.62019Z" fill="white"/> <path opacity="0.4" d="M13.27 8.49023L10.62 11.1302L12.86 13.3802L15.51 10.7402L13.27 8.49023Z" fill="white"/> <path d="M12.87 13.3799L10.93 15.3299L8.01001 15.9999L8.67999 13.0799L10.63 11.1299L12.87 13.3799Z" fill="white"/> <path d="M17 22.75H7C3.83 22.75 1.25 20.17 1.25 17V7C1.25 3.83 3.83 1.25 7 1.25H17C17.54 1.25 18.08 1.33 18.59 1.48C20.47 2.02 21.98 3.52 22.52 5.41C22.67 5.92 22.75 6.46 22.75 6.99V16.99C22.75 20.17 20.17 22.75 17 22.75ZM7 2.75C4.66 2.75 2.75 4.66 2.75 7V17C2.75 19.34 4.66 21.25 7 21.25H17C19.34 21.25 21.25 19.34 21.25 17V7C21.25 6.61 21.19 6.21 21.08 5.83C20.68 4.43 19.57 3.32 18.17 2.92C17.78 2.81 17.39 2.75 17 2.75H7Z" fill="white"/> </g> <defs> <clipPath id="clip0_4482_986"> <rect width="24" height="24" fill="white"/> </clipPath> </defs> </svg>
