<svg width="24" height="24" viewBox="0 0 24 24" fill="none" xmlns="http://www.w3.org/2000/svg"> <path d="M5.08 21.9998L2 18.9198L5.08 15.8398" fill="white"/> <path d="M4.47562 15.235C4.72015 14.9905 5.08779 14.9171 5.40726 15.0494C5.72676 15.1818 5.93461 15.4936 5.93461 15.8395V21.9996C5.93455 22.3454 5.72671 22.6573 5.40726 22.7896C5.08784 22.9219 4.72013 22.8485 4.47562 22.6041L1.39555 19.524C1.06166 19.1901 1.06169 18.6489 1.39555 18.315L4.47562 15.235ZM3.20902 18.9195L4.22465 19.9352V17.9039L3.20902 18.9195Z" fill="white"/> <path opacity="0.4" d="M18.0654 17.3799V2C18.0654 1.52782 18.4478 1.14457 18.9199 1.14453C19.3921 1.14453 19.7754 1.5278 19.7754 2V17.3799C19.7754 18.0145 19.5261 18.6224 19.0742 19.0742C18.6224 19.5261 18.0145 19.7754 17.3799 19.7754H2C1.5278 19.7754 1.14453 19.3921 1.14453 18.9199C1.14457 18.4478 1.52782 18.0654 2 18.0654H17.3799C17.5653 18.0654 17.7371 17.9934 17.8652 17.8652C17.9934 17.7371 18.0654 17.5653 18.0654 17.3799Z" fill="white"/> <path d="M15.85 5.08L18.93 2L22.01 5.08" fill="white"/> <path d="M18.39 1.33643C18.7258 1.06229 19.2214 1.08191 19.5345 1.39503L22.6146 4.47511C22.859 4.71962 22.9324 5.08732 22.8001 5.40675C22.6678 5.72619 22.3559 5.93403 22.0101 5.93409H15.85C15.5041 5.93409 15.1923 5.72624 15.0599 5.40675C14.9276 5.08728 15.001 4.71963 15.2455 4.47511L18.3255 1.39503L18.39 1.33643ZM17.9144 4.22413H19.9457L18.93 3.2085L17.9144 4.22413Z" fill="white"/> </svg>
