<svg width="24" height="24" viewBox="0 0 24 24" fill="none" xmlns="http://www.w3.org/2000/svg"> <g clip-path="url(#clip0_655_9279)"> <path d="M20.8401 3.85998L19.3401 6.92998C19.2401 7.12998 19.2801 7.36998 19.4301 7.51998L21.8501 10.01C22.2001 10.37 21.9001 10.96 21.4101 10.89L18.0301 10.44C17.8201 10.41 17.6101 10.52 17.5001 10.71L15.8301 13.75C15.5901 14.18 14.9401 14.08 14.8601 13.59L14.2501 10.18C14.2101 9.95998 14.0401 9.78998 13.8301 9.75998L10.4201 9.14998C9.93012 9.05998 9.83012 8.40998 10.2601 8.17998L13.3001 6.50998C13.4901 6.40998 13.6001 6.19998 13.5701 5.97998L13.1201 2.59998C13.0501 2.10998 13.6501 1.80998 14.0001 2.15998L16.4901 4.57998C16.6501 4.72998 16.8901 4.76998 17.0801 4.66998L20.1501 3.16998C20.6001 2.94998 21.0701 3.41998 20.8501 3.86998L20.8401 3.85998Z" fill="white"/> <path opacity="0.4" d="M2.95047 17.66L6.35047 21.06C6.84047 21.55 7.66047 21.44 8.00047 20.83L12.3605 13.08C12.8805 12.16 11.8605 11.14 10.9405 11.66L3.19047 16.02C2.59047 16.36 2.47047 17.18 2.96047 17.67L2.95047 17.66Z" fill="white"/> </g> <defs> <clipPath id="clip0_655_9279"> <rect width="24" height="24" fill="white"/> </clipPath> </defs> </svg>
