<svg width="24" height="24" viewBox="0 0 24 24" fill="none" xmlns="http://www.w3.org/2000/svg"> <g clip-path="url(#clip0_4418_4962)"> <path opacity="0.4" d="M21.93 12.8608C21.91 13.0508 21.88 13.2308 21.83 13.4108C20.79 12.5308 19.44 12.0008 17.97 12.0008C14.66 12.0008 11.97 14.6908 11.97 18.0008C11.97 19.4708 12.5 20.8208 13.38 21.8608C13.2 21.9108 13.02 21.9408 12.83 21.9608C11.98 22.0408 11.11 22.0008 10.21 21.8508C6.09999 21.1508 2.78999 17.8208 2.10999 13.7008C0.97999 6.85075 6.81999 1.01075 13.67 2.14075C17.79 2.82075 21.12 6.13075 21.82 10.2408C21.97 11.1408 22.01 12.0108 21.93 12.8608Z" fill="white"/> <path d="M21.8302 13.41C21.6902 13.9 21.4302 14.34 21.0602 14.71L14.6802 21.09C14.3102 21.46 13.8702 21.72 13.3802 21.86C12.5002 20.82 11.9702 19.47 11.9702 18C11.9702 14.69 14.6602 12 17.9702 12C19.4402 12 20.7902 12.53 21.8302 13.41Z" fill="white"/> </g> <defs> <clipPath id="clip0_4418_4962"> <rect width="24" height="24" fill="white"/> </clipPath> </defs> </svg>
