<svg width="24" height="24" viewBox="0 0 24 24" fill="none" xmlns="http://www.w3.org/2000/svg"> <g clip-path="url(#clip0_2085_388104)"> <path d="M6.08 16.69L4.78039 17.9406C4.59407 18.1199 4.34557 18.22 4.08701 18.22H2.47C2.21043 18.22 2 18.0096 2 17.75V12.47C2 12.2104 2.21043 12 2.47 12H2.82579C3.091 12 3.34536 12.1054 3.53289 12.2929L6.05 14.81C5.84 15.1 5.73 15.41 5.73 15.73C5.73 16.05 5.86 16.39 6.08 16.69Z" fill="white"/> <g opacity="0.4"> <path d="M22 15.73C22 17.8 20.33 19.47 18.27 19.47H13.29C10.98 19.47 7.22998 18.3 6.07998 16.69C5.85998 16.39 5.72998 16.06 5.72998 15.73C5.72998 15.4 5.83998 15.1 6.04998 14.81C6.96998 13.48 9.69998 12.44 11.93 12.11C12.42 12.04 12.87 12 13.29 12H18.27C20.33 12 22 13.67 22 15.73Z" fill="white"/> </g> <path d="M18.2701 7.67953V11.9995H13.2901C12.8701 11.9995 12.4201 12.0395 11.9301 12.1095C12.2401 11.6995 14.2501 10.3395 14.5001 7.58953C14.5301 7.25953 14.8201 7.01953 15.1501 7.01953H17.6001C17.9601 7.01953 18.2601 7.30953 18.2601 7.67953H18.2701Z" fill="white"/> <path d="M18.27 10.2598H17.03C16.62 10.2598 16.28 9.91977 16.28 9.50977C16.28 9.09977 16.62 8.75977 17.03 8.75977H18.27C18.68 8.75977 19.02 9.09977 19.02 9.50977C19.02 9.91977 18.68 10.2598 18.27 10.2598Z" fill="white"/> <path d="M19.51 15.7302C19.51 16.4202 18.95 16.9702 18.27 16.9702C17.59 16.9702 17.03 16.4102 17.03 15.7302C17.03 15.0502 17.59 14.4902 18.27 14.4902C18.95 14.4902 19.51 15.0502 19.51 15.7302Z" fill="white"/> <path d="M14.53 15.7302C14.53 16.4202 13.97 16.9702 13.29 16.9702C12.61 16.9702 12.05 16.4102 12.05 15.7302C12.05 15.0502 12.61 14.4902 13.29 14.4902C13.97 14.4902 14.53 15.0502 14.53 15.7302Z" fill="white"/> <path d="M17.02 7.77027C16.61 7.77027 16.27 7.43027 16.27 7.02027V4.53027C16.27 4.12027 16.61 3.78027 17.02 3.78027C17.43 3.78027 17.77 4.12027 17.77 4.53027V7.02027C17.77 7.43027 17.43 7.77027 17.02 7.77027Z" fill="white"/> <path d="M18.27 5.28027H17.03C16.62 5.28027 16.28 4.94027 16.28 4.53027C16.28 4.12027 16.62 3.78027 17.03 3.78027H18.27C18.68 3.78027 19.02 4.12027 19.02 4.53027C19.02 4.94027 18.68 5.28027 18.27 5.28027Z" fill="white"/> </g> <defs> <clipPath id="clip0_2085_388104"> <rect width="24" height="24" fill="white"/> </clipPath> </defs> </svg>
