<svg width="24" height="24" viewBox="0 0 24 24" fill="none" xmlns="http://www.w3.org/2000/svg"> <g clip-path="url(#clip0_4482_7483)"> <path d="M5 12H6" stroke="white" stroke-width="1.5" stroke-linecap="round" stroke-linejoin="round"/> <path d="M18 12H19" stroke="white" stroke-width="1.5" stroke-linecap="round" stroke-linejoin="round"/> <path d="M12 5V6" stroke="white" stroke-width="1.5" stroke-linecap="round" stroke-linejoin="round"/> <path d="M17 7.05L16.29 7.76" stroke="white" stroke-width="1.5" stroke-linecap="round" stroke-linejoin="round"/> <path d="M7 7.05L7.71 7.76" stroke="white" stroke-width="1.5" stroke-linecap="round" stroke-linejoin="round"/> <path d="M9 18.25C9.62 18.58 10.38 18.58 11 18.25C11.62 17.92 12.37 17.92 13 18.25C13.63 18.58 14.38 18.58 15 18.25" stroke="white" stroke-width="1.5" stroke-linecap="round" stroke-linejoin="round"/> <path d="M9 12C9 10.34 10.34 9 12 9C13.66 9 15 10.34 15 12" stroke="white" stroke-width="1.5" stroke-linecap="round" stroke-linejoin="round"/> <path d="M7 15.25C7.63 14.92 8.38 14.92 9 15.25C9.62 15.58 10.38 15.58 11 15.25C11.62 14.92 12.37 14.92 13 15.25C13.63 15.58 14.38 15.58 15 15.25C15.62 14.92 16.37 14.92 17 15.25" stroke="white" stroke-width="1.5" stroke-linecap="round" stroke-linejoin="round"/> <path d="M2 12.69V7C2 4.24 4.24 2 7 2H17C19.76 2 22 4.24 22 7V17C22 19.76 19.76 22 17 22H7C4.24 22 2 19.76 2 17" stroke="white" stroke-width="1.5" stroke-linecap="round" stroke-linejoin="round"/> </g> <defs> <clipPath id="clip0_4482_7483"> <rect width="24" height="24" fill="white"/> </clipPath> </defs> </svg>
