<svg width="24" height="24" viewBox="0 0 24 24" fill="none" xmlns="http://www.w3.org/2000/svg"> <g clip-path="url(#clip0_2085_387729)"> <path d="M1.2725 17.5284C1.37295 17.1266 1.77991 16.8822 2.18168 16.9825L4.86235 17.6524C5.26389 17.753 5.50755 18.1599 5.40727 18.5616C5.30681 18.9634 4.89994 19.2079 4.49809 19.1075L1.8184 18.4375C1.41663 18.3371 1.17219 17.9301 1.2725 17.5284Z" fill="white"/> <path d="M3.90002 18.1896C3.90002 19.5096 5.87002 20.5696 7.71002 20.5696C9.55002 20.5696 10.57 19.4996 10.57 18.1896C10.57 16.8796 9.55002 15.8096 7.71002 15.8096C5.87002 15.8096 3.90002 16.8796 3.90002 18.1896Z" fill="white"/> <path d="M21.8165 16.9829C22.2181 16.8817 22.6263 17.1253 22.7276 17.5268C22.8288 17.9285 22.5844 18.3367 22.1827 18.4379L19.5635 19.0981C19.1619 19.1993 18.7536 18.9548 18.6524 18.5532C18.5516 18.1518 18.7951 17.7443 19.1964 17.643L21.8165 16.9829Z" fill="white"/> <path d="M20.1001 18.1896C20.1001 19.5096 18.1301 20.5696 16.2901 20.5696C14.4501 20.5696 13.4301 19.4996 13.4301 18.1896C13.4301 16.8796 14.4501 15.8096 16.2901 15.8096C18.1301 15.8096 20.1001 16.8796 20.1001 18.1896Z" fill="white"/> <path d="M11.9999 15.9004C12.8252 15.9004 13.4621 16.1093 13.9022 16.3301C14.121 16.4399 14.2901 16.5522 14.4091 16.6416C14.4686 16.6863 14.5166 16.7252 14.5517 16.7559C14.5692 16.7712 14.5831 16.7851 14.5946 16.7959C14.6003 16.8013 14.606 16.8055 14.6102 16.8096C14.6123 16.8116 14.6144 16.8137 14.6161 16.8154C14.6169 16.8162 14.6173 16.8176 14.6181 16.8184L14.619 16.8193H14.62C14.6202 16.8196 14.6203 16.82 14.2333 17.207L14.62 16.8203C14.9129 17.1132 14.9129 17.588 14.62 17.8809C14.3302 18.1704 13.8627 18.1733 13.5692 17.8896L13.5634 17.8848C13.5547 17.8772 13.5363 17.8616 13.5087 17.8408C13.4531 17.799 13.36 17.736 13.2304 17.6709C12.9731 17.5418 12.5644 17.4004 11.9999 17.4004C11.4355 17.4004 11.0277 17.5418 10.7704 17.6709C10.6407 17.736 10.5478 17.799 10.4921 17.8408C10.4644 17.8616 10.4461 17.8772 10.4374 17.8848H10.4364L10.3837 17.9326C10.0891 18.1728 9.65436 18.1553 9.37978 17.8809C9.08692 17.588 9.08698 17.1132 9.37978 16.8203L9.91005 17.3506C9.38681 16.8273 9.37961 16.8197 9.37978 16.8193H9.38075L9.39052 16.8096C9.39465 16.8056 9.39963 16.8011 9.40517 16.7959C9.41666 16.7851 9.43157 16.7712 9.44911 16.7559C9.48413 16.7252 9.53137 16.6862 9.59072 16.6416C9.70972 16.5522 9.87866 16.4399 10.0976 16.3301C10.5377 16.1092 11.1746 15.9004 11.9999 15.9004Z" fill="white"/> <path d="M7.24002 9.23023C7.24002 10.5502 7.02002 11.8202 6.63002 12.9502H3.43002C2.90002 12.9502 2.47002 12.5202 2.53002 12.0002C2.83002 9.49023 4.28002 6.90023 6.53002 5.24023C6.98002 6.44023 7.24002 7.80023 7.24002 9.23023Z" fill="white"/> <path opacity="0.4" d="M16.76 9.22969C16.76 10.5497 16.98 11.8197 17.37 12.9497H6.63003C7.02003 11.8197 7.24003 10.5497 7.24003 9.22969C7.24003 7.79969 6.98003 6.43969 6.53003 5.23969C8.03003 4.12969 9.88003 3.42969 12 3.42969C14.12 3.42969 15.97 4.12969 17.47 5.23969C17.02 6.43969 16.76 7.79969 16.76 9.22969Z" fill="white"/> <path d="M21.47 12.0002C21.53 12.5202 21.1 12.9502 20.57 12.9502H17.37C16.98 11.8202 16.76 10.5502 16.76 9.23023C16.76 7.80023 17.02 6.44023 17.47 5.24023C19.72 6.90023 21.17 9.49023 21.47 12.0002Z" fill="white"/> </g> <defs> <clipPath id="clip0_2085_387729"> <rect width="24" height="24" fill="white"/> </clipPath> </defs> </svg>
