<svg width="24" height="24" viewBox="0 0 24 24" fill="none" xmlns="http://www.w3.org/2000/svg"> <g clip-path="url(#clip0_2085_393743)"> <path d="M15.73 2C15.73 2 15.26 6.98 12 6.98C8.74002 6.98 8.27002 2 8.27002 2C8.27002 2 9.94002 4.49 12 4.49C14.06 4.49 15.73 2 15.73 2Z" fill="white"/> <g opacity="0.4"> <path d="M18.62 8.46L17.61 9.81C17.2 10.43 16.98 11.15 16.98 11.89V21.95C16.81 21.99 16.64 22 16.47 22H7.53C7.36 22 7.19 21.99 7.02 21.95V12.3C7.02 11.31 6.63 10.36 5.93 9.66L5.25 8.98C5.77 7.01 5.82 4.42 5.8 3.01C5.8 2.46 6.25 2 6.8 2H8.27C8.27 2 8.74 6.98 12 6.98C15.26 6.98 15.73 2 15.73 2H17.2C17.75 2 18.2 2.46 18.2 3.01C18.18 4.3 18.22 6.57 18.62 8.46Z" fill="white"/> </g> <path d="M19.47 11.2V19C19.47 20.49 18.39 21.72 16.98 21.95V11.89C16.98 11.15 17.2 10.43 17.61 9.80996L18.62 8.45996C18.77 9.17996 18.98 9.83996 19.25 10.37C19.38 10.63 19.47 10.91 19.47 11.2Z" fill="white"/> <path d="M7.02003 12.3005V21.9505C5.61003 21.7205 4.53003 20.4905 4.53003 19.0005V11.2005C4.53003 10.9105 4.62003 10.6305 4.75003 10.3705C4.96003 9.97047 5.12003 9.49047 5.25003 8.98047L5.93003 9.66047C6.63003 10.3605 7.02003 11.3105 7.02003 12.3005Z" fill="white"/> </g> <defs> <clipPath id="clip0_2085_393743"> <rect width="24" height="24" fill="white"/> </clipPath> </defs> </svg>
