<svg width="24" height="24" viewBox="0 0 24 24" fill="none" xmlns="http://www.w3.org/2000/svg"> <g clip-path="url(#clip0_4482_639)"> <path d="M12.7899 9.55C12.5999 9.55 12.41 9.48 12.26 9.33C11.97 9.04 11.97 8.56 12.26 8.27L14.4699 6.06C14.7599 5.77 15.24 5.77 15.53 6.06L17.74 8.26C18.03 8.55 18.03 9.03 17.74 9.32C17.45 9.61 16.97 9.61 16.68 9.32L15 7.65L13.32 9.33C13.17 9.47 12.9799 9.55 12.7899 9.55Z" fill="white"/> <path opacity="0.4" d="M17 22.75H14C13.59 22.75 13.25 22.41 13.25 22C13.25 21.59 13.59 21.25 14 21.25H17C19.34 21.25 21.25 19.34 21.25 17V7C21.25 4.66 19.34 2.75 17 2.75H7C4.66 2.75 2.75 4.66 2.75 7V11C2.75 11.41 2.41 11.75 2 11.75C1.59 11.75 1.25 11.41 1.25 11V7C1.25 3.83 3.83 1.25 7 1.25H17C20.17 1.25 22.75 3.83 22.75 7V17C22.75 20.17 20.17 22.75 17 22.75Z" fill="white"/> <path d="M15 13.75C14.59 13.75 14.25 13.41 14.25 13V7C14.25 6.59 14.59 6.25 15 6.25C15.41 6.25 15.75 6.59 15.75 7V13C15.75 13.41 15.41 13.75 15 13.75Z" fill="white"/> <path opacity="0.4" d="M1.72004 17.73L2.81007 14.41C2.95007 13.84 3.57008 13.37 4.20008 13.37H5.93006C6.19006 13.37 6.66009 13.45 6.89009 13.68L8.14009 14.64C8.13008 14.7 8.13008 14.78 8.13008 14.86V19.2L6.44007 21.71C6.24007 22.02 5.72005 22.24 5.29005 22.08C4.83005 21.93 4.52008 21.41 4.63008 20.93L4.86006 19.48C4.87006 19.37 4.84009 19.27 4.77009 19.19C4.71009 19.12 4.62009 19.07 4.52009 19.07H2.71009C2.33009 19.07 2.00008 18.92 1.82008 18.66C1.63008 18.4 1.60004 18.07 1.72004 17.73Z" fill="white"/> <path d="M8.13 19.32V14.86C8.13 14.78 8.13001 14.7 8.14001 14.64C8.20001 14.1 8.50997 13.87 9.15997 13.87H9.62C10.35 13.87 10.65 14.16 10.65 14.86V19.32C10.65 20.02 10.35 20.32 9.62 20.32H9.15997C8.42997 20.32 8.13 20.02 8.13 19.32Z" fill="white"/> </g> <defs> <clipPath id="clip0_4482_639"> <rect width="24" height="24" fill="white"/> </clipPath> </defs> </svg>
