<svg width="24" height="24" viewBox="0 0 24 24" fill="none" xmlns="http://www.w3.org/2000/svg"> <g clip-path="url(#clip0_655_9280)"> <path d="M12.5 18.67V14.23" stroke="white" stroke-width="1.5" stroke-linecap="round" stroke-linejoin="round"/> <path d="M10.8103 14.22H14.1903C15.0503 14.22 15.6503 13.37 15.3603 12.56L13.6703 7.83C13.2803 6.73 11.7203 6.73 11.3303 7.83L9.64027 12.56C9.35027 13.37 9.95027 14.22 10.8103 14.22Z" fill="white"/> <path opacity="0.4" d="M20.8299 10.33C20.8299 13.46 19.0799 16.19 16.4799 17.61C16.2999 17.71 16.1199 17.8 15.9399 17.89C14.8299 18.44 13.7199 18.67 12.4999 18.67C11.2799 18.67 10.0599 18.44 9.05992 17.89C8.87992 17.8 8.69992 17.7 8.52992 17.59C7.84992 17.21 7.22992 16.75 6.60992 16.22C5.05992 14.67 4.16992 12.67 4.16992 10.33C4.16992 8.89 4.49992 7.67 5.16992 6.44C6.49992 3.78 9.38992 2 12.4999 2C12.8299 2 13.2799 2 13.6099 2.11C16.9399 2.56 19.7199 5 20.4999 8.22C20.7199 8.89 20.8299 9.56 20.8299 10.33Z" fill="white"/> <path d="M16.6305 22H8.37046C7.67046 22 7.19046 21.31 7.42046 20.66L8.53046 17.59C8.70046 17.7 8.88046 17.8 9.06046 17.89C10.0605 18.44 11.2805 18.67 12.5005 18.67C13.7205 18.67 14.8305 18.44 15.9405 17.89C16.1205 17.8 16.3005 17.71 16.4805 17.61L17.5805 20.66C17.8105 21.31 17.3305 22 16.6305 22Z" fill="white"/> </g> <defs> <clipPath id="clip0_655_9280"> <rect width="24" height="24" fill="white"/> </clipPath> </defs> </svg>
