<svg width="24" height="24" viewBox="0 0 24 24" fill="none" xmlns="http://www.w3.org/2000/svg"> <g clip-path="url(#clip0_3111_22236)"> <path d="M15 15.5C15 19.09 12.09 22 8.5 22C4.91 22 2 19.09 2 15.5C2 11.91 4.91 9 8.5 9C8.67 9 8.84999 9.01 9.01999 9.02C12.19 9.27 14.73 11.81 14.98 14.98C14.99 15.15 15 15.33 15 15.5Z" fill="white"/> <path opacity="0.4" d="M22 8.5C22 12.09 19.09 15 15.5 15C15.33 15 15.15 14.99 14.98 14.98C14.73 11.81 12.19 9.27 9.01999 9.02C9.00999 8.85 9 8.67 9 8.5C9 4.91 11.91 2 15.5 2C19.09 2 22 4.91 22 8.5Z" fill="white"/> <path d="M5.59 2H3C2.45 2 2 2.45 2 3V5.59C2 6.48 3.07999 6.93 3.70999 6.3L6.29999 3.71001C6.91999 3.08001 6.48 2 5.59 2Z" fill="white"/> <path d="M18.41 21.9998H21C21.55 21.9998 22 21.5498 22 20.9998V18.4098C22 17.5198 20.92 17.0698 20.29 17.6998L17.7 20.2898C17.08 20.9198 17.52 21.9998 18.41 21.9998Z" fill="white"/> </g> <defs> <clipPath id="clip0_3111_22236"> <rect width="24" height="24" fill="white"/> </clipPath> </defs> </svg>
