<svg width="24" height="24" viewBox="0 0 24 24" fill="none" xmlns="http://www.w3.org/2000/svg"> <g clip-path="url(#clip0_4482_13665)"> <path d="M15.0698 4.05032V5.66032H4.83984C4.83984 5.23032 5.09984 4.85032 5.49984 4.70032L12.2998 2.13032C13.6398 1.63032 15.0698 2.62032 15.0698 4.05032Z" fill="white"/> <path opacity="0.4" d="M19.1598 8.73016V18.9302C19.1598 20.6202 17.7798 22.0002 16.0898 22.0002H7.90984C6.20984 22.0002 4.83984 20.6302 4.83984 18.9302V5.66016H16.0898C17.7898 5.66016 19.1598 7.03016 19.1598 8.73016Z" fill="white"/> <path d="M13 17.6406H11C10.59 17.6406 10.25 17.3006 10.25 16.8906C10.25 16.4806 10.59 16.1406 11 16.1406H13C13.41 16.1406 13.75 16.4806 13.75 16.8906C13.75 17.3006 13.41 17.6406 13 17.6406Z" fill="white"/> <path d="M13.45 10.3305C14.25 11.1305 14.25 12.4205 13.45 13.2205C12.65 14.0205 11.36 14.0205 10.56 13.2205C9.75996 12.4205 9.75996 11.1305 10.56 10.3305C11.36 9.53047 12.65 9.53047 13.45 10.3305Z" fill="white"/> </g> <defs> <clipPath id="clip0_4482_13665"> <rect width="24" height="24" fill="white"/> </clipPath> </defs> </svg>
