<svg width="24" height="24" viewBox="0 0 24 24" fill="none" xmlns="http://www.w3.org/2000/svg"> <g clip-path="url(#clip0_4482_6514)"> <path d="M12 14.0899V21.3999C6.81 21.3999 2.59998 17.1899 2.59998 11.9999V5.75985C2.59998 5.15985 3.12998 4.68985 3.72998 4.75985C5.66998 4.98985 7.43001 5.81985 8.82001 7.03985V7.04985H8.83002C8.98002 7.17985 9.11 7.30985 9.25 7.43985C10.95 9.13985 12 11.4999 12 14.0899Z" fill="white"/> <path d="M20.27 4.75985C20.87 4.68985 21.4 5.15985 21.4 5.75985V11.9999C21.4 17.1899 17.19 21.3999 12 21.3999V14.0899C12 11.2899 13.23 8.77985 15.17 7.04985H15.18V7.03985C16.58 5.80985 18.33 4.98985 20.27 4.75985Z" fill="white"/> <path opacity="0.4" d="M15.1801 7.04031V7.05031H15.17C13.23 8.78031 12.0001 11.2903 12.0001 14.0903C12.0001 11.5003 10.9501 9.14031 9.25006 7.44031C9.11006 7.31031 8.98008 7.18031 8.83008 7.05031H8.82007V7.04031L11.1901 3.74031C11.5901 3.18031 12.4201 3.18031 12.8201 3.74031L15.1801 7.04031Z" fill="white"/> </g> <defs> <clipPath id="clip0_4482_6514"> <rect width="24" height="24" fill="white"/> </clipPath> </defs> </svg>
