<svg width="24" height="24" viewBox="0 0 24 24" fill="none" xmlns="http://www.w3.org/2000/svg">
<path opacity="0.35" fill-rule="evenodd" clip-rule="evenodd" d="M21 6V13C21 14.6569 19.6569 16 18 16H6C4.34315 16 3 14.6569 3 13V6C3 4.34315 4.34315 3 6 3H18C19.6569 3 21 4.34315 21 6ZM7.88827 5.41897C7.9379 5.23289 8.17761 5.16226 8.33098 5.27873C8.90222 5.71254 10.1886 6.5 12 6.5C13.8114 6.5 15.0978 5.71254 15.669 5.27873C15.8224 5.16226 16.0621 5.23289 16.1117 5.41897L17.806 11.7723C17.9208 12.2032 17.7349 12.6552 17.3294 12.8406C16.3611 13.2832 14.4195 14 12 14C9.58049 14 7.63886 13.2832 6.67064 12.8406C6.26509 12.6552 6.07915 12.2032 6.19405 11.7723L7.88827 5.41897Z" fill="black"/>
<path d="M11 18.25C11 18.1119 11.1119 18 11.25 18H12.75C12.8881 18 13 18.1119 13 18.25V18.75C13 18.8881 13.1119 19 13.25 19H16C16.5523 19 17 19.4477 17 20C17 20.5523 16.5523 21 16 21H8C7.44772 21 7 20.5523 7 20C7 19.4477 7.44772 19 8 19H10.75C10.8881 19 11 18.8881 11 18.75V18.25Z" fill="black"/>
</svg>
