<svg width="24" height="24" viewBox="0 0 24 24" fill="none" xmlns="http://www.w3.org/2000/svg"> <g clip-path="url(#clip0_4482_6780)"> <path d="M22 8.86914V15.9991C22 18.1991 20.2 19.9991 18 19.9991H6C3.8 19.9991 2 18.1991 2 15.9991V8.86914C2 9.56914 2.37 10.2191 2.97 10.5791L10.46 15.0691C11.41 15.6391 12.59 15.6391 13.54 15.0691L21.03 10.5791C21.63 10.2191 22 9.56914 22 8.86914Z" fill="white"/> <path opacity="0.4" d="M22 8V8.87C22 9.57 21.63 10.22 21.03 10.58L13.54 15.07C12.59 15.64 11.41 15.64 10.46 15.07L2.97 10.58C2.37 10.22 2 9.57 2 8.87V8C2 5.8 3.8 4 6 4H18C20.2 4 22 5.8 22 8Z" fill="white"/> </g> <defs> <clipPath id="clip0_4482_6780"> <rect width="24" height="24" fill="white"/> </clipPath> </defs> </svg>
