<svg width="24" height="24" viewBox="0 0 24 24" fill="none" xmlns="http://www.w3.org/2000/svg"> <g clip-path="url(#clip0_2085_393942)"> <path d="M11.95 10.7699C10.32 10.7699 9 9.4499 9 7.8199V5.8499C9 4.2199 10.32 2.8999 11.95 2.8999C13.58 2.8999 14.9 4.2199 14.9 5.8499V7.8199C14.9 9.4499 13.58 10.7699 11.95 10.7699Z" fill="white"/> <path d="M19.9 8.14004C19.96 7.84004 20.39 7.84004 20.45 8.14004C20.59 8.80004 21.11 9.32004 21.77 9.46004C22.07 9.52004 22.07 9.95004 21.77 10.01C21.11 10.15 20.59 10.67 20.45 11.33C20.39 11.63 19.96 11.63 19.9 11.33C19.76 10.67 19.24 10.15 18.58 10.01C18.28 9.95004 18.28 9.52004 18.58 9.46004C19.24 9.32004 19.76 8.81004 19.9 8.14004Z" fill="white"/> <path opacity="0.4" d="M12 22.1401C17.799 22.1401 22.5 20.0135 22.5 17.3901C22.5 14.7668 17.799 12.6401 12 12.6401C6.20101 12.6401 1.5 14.7668 1.5 17.3901C1.5 20.0135 6.20101 22.1401 12 22.1401Z" fill="white"/> <path d="M15.13 14.5901C15.19 14.4101 15.44 14.4101 15.5 14.5901C15.93 15.8101 16.89 16.7701 18.11 17.2001C18.29 17.2601 18.29 17.5101 18.11 17.5701C16.89 18.0001 15.93 18.9601 15.5 20.1801C15.44 20.3601 15.19 20.3601 15.13 20.1801C14.7 18.9601 13.74 18.0001 12.52 17.5701C12.34 17.5101 12.34 17.2601 12.52 17.2001C13.74 16.7701 14.7 15.8101 15.13 14.5901Z" fill="white"/> </g> <defs> <clipPath id="clip0_2085_393942"> <rect width="24" height="24" fill="white"/> </clipPath> </defs> </svg>
