<svg width="24" height="24" viewBox="0 0 24 24" fill="none" xmlns="http://www.w3.org/2000/svg"> <g clip-path="url(#clip0_2085_383010)"> <path d="M12.09 16.08C11.68 16.08 11.34 15.74 11.34 15.33C11.34 14.92 11.68 14.58 12.09 14.58C15.35 14.58 18.01 11.93 18.01 8.65999C18.01 5.38999 15.36 2.73999 12.09 2.73999C8.82004 2.73999 6.17004 5.38999 6.17004 8.65999C6.17004 9.06999 5.83004 9.40999 5.42004 9.40999C5.01004 9.40999 4.67004 9.06999 4.67004 8.65999C4.67004 4.56999 8.00004 1.23999 12.09 1.23999C16.18 1.23999 19.51 4.56999 19.51 8.65999C19.51 12.75 16.18 16.08 12.09 16.08Z" fill="white"/> <path d="M12.09 22.7501C11.68 22.7501 11.34 22.4101 11.34 22.0001V15.3301C11.34 14.9201 11.68 14.5801 12.09 14.5801C12.5 14.5801 12.84 14.9201 12.84 15.3301V22.0001C12.84 22.4101 12.5 22.7501 12.09 22.7501Z" fill="white"/> <g opacity="0.4"> <path d="M15.32 19.4199H8.65002C8.24002 19.4199 7.90002 19.0799 7.90002 18.6699C7.90002 18.2599 8.24002 17.9199 8.65002 17.9199H15.32C15.73 17.9199 16.07 18.2599 16.07 18.6699C16.07 19.0799 15.73 19.4199 15.32 19.4199Z" fill="white"/> </g> </g> <defs> <clipPath id="clip0_2085_383010"> <rect width="24" height="24" fill="white"/> </clipPath> </defs> </svg>
