<svg width="24" height="24" viewBox="0 0 24 24" fill="none" xmlns="http://www.w3.org/2000/svg"> <g clip-path="url(#clip0_4482_916)"> <path d="M15.5 22.75H8.5C5.61 22.75 3.25 20.39 3.25 17.5C3.25 17.09 3.59 16.75 4 16.75C4.41 16.75 4.75 17.09 4.75 17.5C4.75 19.57 6.43 21.25 8.5 21.25H15.5C17.57 21.25 19.25 19.57 19.25 17.5C19.25 17.09 19.59 16.75 20 16.75C20.41 16.75 20.75 17.09 20.75 17.5C20.75 20.39 18.39 22.75 15.5 22.75Z" fill="white"/> <path d="M20 7.25C19.59 7.25 19.25 6.91 19.25 6.5C19.25 4.43 17.57 2.75 15.5 2.75H8.5C6.43 2.75 4.75 4.43 4.75 6.5C4.75 6.91 4.41 7.25 4 7.25C3.59 7.25 3.25 6.91 3.25 6.5C3.25 3.6 5.61 1.25 8.5 1.25H15.5C18.39 1.25 20.75 3.6 20.75 6.5C20.75 6.91 20.41 7.25 20 7.25Z" fill="white"/> <path d="M14 6.75H10C9.59 6.75 9.25 6.41 9.25 6C9.25 5.59 9.59 5.25 10 5.25H14C14.41 5.25 14.75 5.59 14.75 6C14.75 6.41 14.41 6.75 14 6.75Z" fill="white"/> <path d="M3.49997 15.7499C3.30997 15.7499 3.11994 15.6799 2.96994 15.5299C2.67994 15.2399 2.67994 14.7599 2.96994 14.4699L3.71994 13.7199C4.00994 13.4299 4.49 13.4299 4.78 13.7199C5.07 14.0099 5.07 14.4899 4.78 14.7799L4.03 15.5299C3.88 15.6799 3.68997 15.7499 3.49997 15.7499Z" fill="white"/> <path d="M4.24997 10.4999C4.05997 10.4999 3.86994 10.4299 3.71994 10.2799L2.96994 9.52994C2.67994 9.23994 2.67994 8.75994 2.96994 8.46994C3.25994 8.17994 3.74 8.17994 4.03 8.46994L4.78 9.21994C5.07 9.50994 5.07 9.98994 4.78 10.2799C4.63 10.4299 4.43997 10.4999 4.24997 10.4999Z" fill="white"/> <path d="M2.75 12.75H2C1.59 12.75 1.25 12.41 1.25 12C1.25 11.59 1.59 11.25 2 11.25H2.75C3.16 11.25 3.5 11.59 3.5 12C3.5 12.41 3.16 12.75 2.75 12.75Z" fill="white"/> <path d="M20.5 15.7499C20.31 15.7499 20.1199 15.6799 19.9699 15.5299L19.2199 14.7799C18.9299 14.4899 18.9299 14.0099 19.2199 13.7199C19.5099 13.4299 19.99 13.4299 20.28 13.7199L21.03 14.4699C21.32 14.7599 21.32 15.2399 21.03 15.5299C20.88 15.6799 20.69 15.7499 20.5 15.7499Z" fill="white"/> <path d="M19.75 10.4999C19.56 10.4999 19.3699 10.4299 19.2199 10.2799C18.9299 9.98994 18.9299 9.50994 19.2199 9.21994L19.9699 8.46994C20.2599 8.17994 20.74 8.17994 21.03 8.46994C21.32 8.75994 21.32 9.23994 21.03 9.52994L20.28 10.2799C20.13 10.4299 19.94 10.4999 19.75 10.4999Z" fill="white"/> <path d="M22 12.75H21.25C20.84 12.75 20.5 12.41 20.5 12C20.5 11.59 20.84 11.25 21.25 11.25H22C22.41 11.25 22.75 11.59 22.75 12C22.75 12.41 22.41 12.75 22 12.75Z" fill="white"/> <path d="M12 19.25C11.31 19.25 10.75 18.69 10.75 18C10.75 17.31 11.3 16.75 12 16.75C12.69 16.75 13.25 17.31 13.25 18C13.25 18.69 12.7 19.25 12 19.25Z" fill="white"/> </g> <defs> <clipPath id="clip0_4482_916"> <rect width="24" height="24" fill="white"/> </clipPath> </defs> </svg>
