<svg width="24" height="24" viewBox="0 0 24 24" fill="none" xmlns="http://www.w3.org/2000/svg"> <g clip-path="url(#clip0_2085_388198)"> <path opacity="0.4" d="M12 6C16.8 6 20 7.6 20 10.8C20 16.13 17.33 22 12 22C6.67 22 4 16.13 4 10.8C4 7.6 7.2 6 12 6Z" fill="white"/> <path d="M8.54391 2.92654C8.92699 2.85689 9.2936 3.11084 9.36325 3.49392C9.43286 3.87697 9.17892 4.24361 8.79587 4.31325C5.63375 4.88822 3.56993 6.30712 2.63083 8.18532C2.4567 8.53358 2.03279 8.67488 1.68454 8.50075C1.33628 8.32663 1.19498 7.90272 1.36911 7.55447C2.56999 5.1527 5.10612 3.55159 8.54391 2.92654Z" fill="white"/> <path d="M15.4559 2.92652C18.8937 3.55157 21.4299 5.1527 22.6307 7.55445C22.8049 7.90271 22.6636 8.32661 22.3153 8.50074C21.9671 8.67482 21.5431 8.53355 21.369 8.18531C20.4299 6.30711 18.3661 4.8882 15.204 4.31324C14.8209 4.2436 14.567 3.87695 14.6366 3.49391C14.7063 3.11085 15.0729 2.85693 15.4559 2.92652Z" fill="white"/> <path d="M4.47267 1.35181C4.83044 1.19878 5.24514 1.36518 5.39845 1.7229C5.55148 2.08067 5.38508 2.49537 5.02736 2.64868C4.03516 3.07396 3.17448 3.59869 2.45118 4.20142C2.15207 4.45068 1.70728 4.41069 1.45802 4.11157C1.20894 3.81246 1.24979 3.36762 1.54884 3.11841C2.38536 2.42135 3.36521 1.82643 4.47267 1.35181Z" fill="white"/> <path d="M18.6016 1.7229C18.7549 1.36518 19.1696 1.19878 19.5273 1.35181C20.6348 1.82643 21.6147 2.42135 22.4512 3.11841C22.7502 3.36762 22.7911 3.81246 22.542 4.11157C22.2927 4.41069 21.8479 4.45068 21.5488 4.20142C20.8255 3.59869 19.9649 3.07396 18.9727 2.64868C18.6149 2.49537 18.4485 2.08067 18.6016 1.7229Z" fill="white"/> <path d="M12 19.3397C13.84 19.3397 15.33 17.8497 15.33 16.0097C15.33 14.1697 13.84 12.6797 12 12.6797C10.16 12.6797 8.67004 14.1697 8.67004 16.0097C8.67004 17.8497 10.16 19.3397 12 19.3397Z" fill="white"/> </g> <defs> <clipPath id="clip0_2085_388198"> <rect width="24" height="24" fill="white"/> </clipPath> </defs> </svg>
