<svg width="24" height="24" viewBox="0 0 24 24" fill="none" xmlns="http://www.w3.org/2000/svg"> <g clip-path="url(#clip0_2085_393946)"> <path d="M3.98997 3.68023C4.05997 3.51023 4.27997 3.51023 4.34997 3.68023C4.62997 4.34023 5.14997 4.86023 5.80997 5.14023C5.97997 5.21023 5.97997 5.43023 5.80997 5.50023C5.14997 5.78023 4.62997 6.30023 4.34997 6.96023C4.27997 7.13023 4.05997 7.13023 3.98997 6.96023C3.70997 6.30023 3.18997 5.78023 2.52997 5.50023C2.35997 5.43023 2.35997 5.21023 2.52997 5.14023C3.18997 4.86023 3.70997 4.34023 3.98997 3.68023Z" fill="white"/> <path opacity="0.4" d="M19.8 7.90008L16.79 10.1501V7.62008C16.79 5.94008 15.43 4.58008 13.75 4.58008H7.32874C7.07301 4.58008 6.89893 4.91499 6.93059 5.16875C6.93684 5.21889 6.94 5.26948 6.94 5.32008C6.94 5.81008 6.64 6.24008 6.19 6.42008C5.78 6.60008 5.45 6.93008 5.27 7.35008C5.09 7.80008 4.65 8.09008 4.17 8.09008C3.8915 8.09008 3.51873 7.75005 3.25484 7.46458C3.11763 7.31615 2.88 7.37794 2.88 7.58008V13.8001C2.88 15.7501 2.88 16.7201 3.26 17.4701C3.59 18.1201 4.13001 18.6601 4.78 18.9901C5.52 19.3701 6.5 19.3701 8.45 19.3701H11.23C13.18 19.3701 14.15 19.3701 14.9 18.9901C15.55 18.6601 16.09 18.1201 16.42 17.4701C16.8 16.7301 16.8 15.7501 16.8 13.8001V12.8501L19.8 15.1001C20.29 15.4701 21 15.1201 21 14.5001V8.50008C21 7.88008 20.29 7.53008 19.8 7.90008ZM12.19 12.1401C11.18 12.5201 10.37 13.3201 10 14.3301C9.94 14.5001 9.70001 14.5001 9.64001 14.3301C9.27001 13.3201 8.46 12.5101 7.45 12.1401C7.28 12.0801 7.28 11.8401 7.45 11.7801C8.47 11.4001 9.27001 10.6001 9.64001 9.59008C9.70001 9.42008 9.94 9.42008 10 9.59008C10.37 10.6001 11.18 11.4101 12.19 11.7801C12.36 11.8401 12.36 12.0801 12.19 12.1401Z" fill="white"/> <path d="M12.19 12.1399C11.18 12.5199 10.37 13.3199 10 14.3299C9.94001 14.4999 9.70001 14.4999 9.64001 14.3299C9.27001 13.3199 8.46001 12.5099 7.45001 12.1399C7.28001 12.0799 7.28001 11.8399 7.45001 11.7799C8.47001 11.3999 9.27001 10.5999 9.64001 9.5899C9.70001 9.4199 9.94001 9.4199 10 9.5899C10.37 10.5999 11.18 11.4099 12.19 11.7799C12.36 11.8399 12.36 12.0799 12.19 12.1399Z" fill="white"/> </g> <defs> <clipPath id="clip0_2085_393946"> <rect width="24" height="24" fill="white"/> </clipPath> </defs> </svg>
