<svg width="24" height="24" viewBox="0 0 24 24" fill="none" xmlns="http://www.w3.org/2000/svg"> <g clip-path="url(#clip0_2085_383405)"> <path d="M16.24 15.8C15.83 15.8 15.49 15.46 15.49 15.05V14C15.49 13.59 15.83 13.25 16.24 13.25C16.65 13.25 16.99 13.59 16.99 14V15.05C16.99 15.46 16.65 15.8 16.24 15.8Z" fill="white"/> <path d="M2.20996 15.7998C1.79996 15.7998 1.45996 15.4598 1.45996 15.0498V11.2998C1.45996 9.7798 2.68996 8.5498 4.20996 8.5498H9.84996C10.26 8.5498 10.6 8.8898 10.6 9.2998C10.6 9.7098 10.26 10.0498 9.84996 10.0498H4.20996C3.51996 10.0498 2.95996 10.6098 2.95996 11.2998V15.0498C2.95996 15.4598 2.61996 15.7998 2.20996 15.7998Z" fill="white"/> <path d="M12.97 22.6401H5.48999C5.07999 22.6401 4.73999 22.3001 4.73999 21.8901C4.73999 21.4801 5.07999 21.1401 5.48999 21.1401H12.97C13.38 21.1401 13.72 21.4801 13.72 21.8901C13.72 22.3001 13.38 22.6401 12.97 22.6401Z" fill="white"/> <path d="M16.24 15.0498V17.0798C16.24 18.1898 15.34 19.0798 14.24 19.0798H4.20996C3.10996 19.0798 2.20996 18.1898 2.20996 17.0798V15.0498H16.24Z" fill="white"/> <path d="M14.24 19.8298H4.20996C2.68996 19.8298 1.45996 18.5998 1.45996 17.0798V15.0498C1.45996 14.6398 1.79996 14.2998 2.20996 14.2998H16.24C16.65 14.2998 16.99 14.6398 16.99 15.0498V17.0798C16.99 18.5998 15.76 19.8298 14.24 19.8298ZM2.95996 15.7998V17.0798C2.95996 17.7698 3.51996 18.3298 4.20996 18.3298H14.24C14.93 18.3298 15.49 17.7698 15.49 17.0798V15.7998H2.95996Z" fill="white"/> <path d="M6.72999 22.6399C6.61999 22.6399 6.50999 22.6199 6.40999 22.5699C6.02999 22.3899 5.87999 21.9499 6.04999 21.5699L7.37999 18.7799C7.55999 18.4099 7.99999 18.2499 8.37999 18.4199C8.75999 18.5999 8.90999 19.0399 8.73999 19.4199L7.40999 22.2099C7.27999 22.4799 7.00999 22.6399 6.72999 22.6399Z" fill="white"/> <path d="M11.72 22.6401C11.44 22.6401 11.17 22.4801 11.04 22.2101L9.70998 19.4201C9.52998 19.0501 9.68998 18.6001 10.07 18.4201C10.44 18.2401 10.89 18.4001 11.07 18.7801L12.4 21.5701C12.58 21.9401 12.42 22.3901 12.04 22.5701C11.94 22.6201 11.83 22.6401 11.72 22.6401Z" fill="white"/> <g opacity="0.4"> <path d="M16.52 7.49016V12.7902L12 10.5302V5.16016L16.52 7.49016Z" fill="white"/> <path d="M22 5.1499V10.5199L17.48 12.7899H17.47V7.4899L17.48 7.4999L22 5.1499Z" fill="white"/> <path d="M21.4901 4.27V4.36L16.9701 6.71L16.9501 6.7L12.4301 4.36V4.27L16.9601 2L21.4901 4.27Z" fill="white"/> </g> </g> <defs> <clipPath id="clip0_2085_383405"> <rect width="24" height="24" fill="white"/> </clipPath> </defs> </svg>
