<svg width="24" height="24" viewBox="0 0 24 24" fill="none" xmlns="http://www.w3.org/2000/svg"> <g clip-path="url(#clip0_4482_12722)"> <path d="M12.9805 11.65C12.5705 11.65 12.2305 11.31 12.2305 10.9V5.95996C12.2305 5.54996 12.5705 5.20996 12.9805 5.20996C13.3905 5.20996 13.7305 5.54996 13.7305 5.95996V10.9C13.7305 11.31 13.3905 11.65 12.9805 11.65Z" fill="white"/> <path d="M16.2695 10.5502C15.8595 10.5502 15.5195 10.2102 15.5195 9.8002V8.7002C15.5195 8.2902 15.8595 7.9502 16.2695 7.9502C16.6795 7.9502 17.0195 8.2902 17.0195 8.7002V9.8002C17.0195 10.2102 16.6795 10.5502 16.2695 10.5502Z" fill="white"/> <path d="M9.67969 15.49C9.26969 15.49 8.92969 15.15 8.92969 14.74V9.25C8.92969 8.84 9.26969 8.5 9.67969 8.5C10.0897 8.5 10.4297 8.84 10.4297 9.25V14.74C10.4297 15.15 10.0897 15.49 9.67969 15.49Z" fill="white"/> <g opacity="0.4"> <path d="M7.49 22.6296H6C3.38 22.6296 1.25 20.4996 1.25 17.8796V16.3896C1.25 15.9796 1.59 15.6396 2 15.6396C2.41 15.6396 2.75 15.9796 2.75 16.3896V17.8796C2.75 19.6696 4.21 21.1296 6 21.1296H7.49C7.9 21.1296 8.24 21.4696 8.24 21.8796C8.24 22.2896 7.9 22.6296 7.49 22.6296Z" fill="white"/> </g> <g opacity="0.4"> <path d="M2 8.36012C1.59 8.36012 1.25 8.02012 1.25 7.61012V6.12012C1.25 3.50012 3.38 1.37012 6 1.37012H7.49C7.9 1.37012 8.24 1.71012 8.24 2.12012C8.24 2.53012 7.9 2.87012 7.49 2.87012H6C4.21 2.87012 2.75 4.33012 2.75 6.12012V7.61012C2.75 8.02012 2.41 8.36012 2 8.36012Z" fill="white"/> </g> <g opacity="0.4"> <path d="M21.7595 8.36012C21.3495 8.36012 21.0095 8.02012 21.0095 7.61012V6.12012C21.0095 4.33012 19.5495 2.87012 17.7595 2.87012H16.2695C15.8595 2.87012 15.5195 2.53012 15.5195 2.12012C15.5195 1.71012 15.8595 1.37012 16.2695 1.37012H17.7595C20.3795 1.37012 22.5095 3.50012 22.5095 6.12012V7.61012C22.5095 8.02012 22.1695 8.36012 21.7595 8.36012Z" fill="white"/> </g> <path d="M6.38965 13.8504C5.97965 13.8504 5.63965 13.5104 5.63965 13.1004V10.9004C5.63965 10.4904 5.97965 10.1504 6.38965 10.1504C6.79965 10.1504 7.13965 10.4904 7.13965 10.9004V13.1004C7.13965 13.5104 6.79965 13.8504 6.38965 13.8504Z" fill="white"/> <path d="M19.1301 21.4102L18.0301 21.8802L16.9301 21.4102C15.3901 20.7502 14.3501 19.3002 14.2301 17.6302L14.0701 15.3702C14.0401 14.9902 14.2601 14.6402 14.6001 14.4902L17.5201 13.2102C17.8601 13.0602 18.2601 13.0602 18.6001 13.2102L21.4601 14.4902C21.8001 14.6402 22.0101 14.9902 21.9901 15.3702L21.8301 17.6302C21.7101 19.3002 20.6701 20.7502 19.1301 21.4102Z" fill="white"/> </g> <defs> <clipPath id="clip0_4482_12722"> <rect width="24" height="24" fill="white"/> </clipPath> </defs> </svg>
