<svg width="24" height="24" viewBox="0 0 24 24" fill="none" xmlns="http://www.w3.org/2000/svg"> <g clip-path="url(#clip0_2085_383573)"> <g opacity="0.4"> <path d="M19.9 6.64C19.67 6.64 19.45 6.54 19.31 6.35C19.04 6 18.79 5.71 18.54 5.46C16.79 3.71 14.47 2.75 12 2.75C9.52998 2.75 7.20998 3.71 5.45998 5.46C5.21998 5.7 4.96998 5.99 4.68998 6.35C4.43998 6.68 3.96998 6.74 3.63998 6.48C3.30998 6.23 3.24998 5.76 3.50998 5.43C3.82998 5.02 4.10998 4.69 4.39998 4.4C6.42998 2.37 9.12998 1.25 12 1.25C14.87 1.25 17.57 2.37 19.6 4.4C19.9 4.7 20.18 5.03 20.49 5.43C20.74 5.76 20.68 6.23 20.35 6.48C20.21 6.58 20.05 6.64 19.89 6.64H19.9Z" fill="white"/> </g> <g opacity="0.4"> <path d="M12 22.7509C9.25002 22.7509 6.50002 21.7009 4.40002 19.6109C4.11002 19.3209 3.82002 18.9909 3.51002 18.5809C3.26002 18.2509 3.32002 17.7809 3.65002 17.5309C3.98002 17.2809 4.45002 17.3409 4.70002 17.6709C4.98002 18.0309 5.22002 18.3109 5.47002 18.5609C9.08002 22.1709 14.94 22.1709 18.55 18.5609C18.8 18.3109 19.04 18.0309 19.32 17.6709C19.57 17.3409 20.04 17.2809 20.37 17.5409C20.7 17.7909 20.76 18.2609 20.5 18.5909C20.18 19.0009 19.9 19.3309 19.61 19.6209C17.51 21.7209 14.76 22.7609 12.01 22.7609L12 22.7509Z" fill="white"/> </g> <path d="M21.74 15.5291C21.52 15.5291 21.3 15.4291 21.15 15.2491L18.15 11.5091V14.7891C18.15 15.1991 17.81 15.5391 17.4 15.5391C16.99 15.5391 16.65 15.1991 16.65 14.7891V9.37914C16.65 9.05914 16.85 8.77914 17.15 8.66914C17.45 8.55914 17.78 8.66914 17.98 8.90914L20.98 12.6491V9.36914C20.98 8.95914 21.32 8.61914 21.73 8.61914C22.14 8.61914 22.48 8.95914 22.48 9.36914V14.7791C22.48 15.0991 22.28 15.3791 21.98 15.4891C21.9 15.5191 21.81 15.5291 21.73 15.5291H21.74Z" fill="white"/> <path d="M9.82996 15.5291C9.41996 15.5291 9.07996 15.1891 9.07996 14.7791V9.36914C9.07996 8.95914 9.41996 8.61914 9.82996 8.61914C10.24 8.61914 10.58 8.95914 10.58 9.36914V14.7791C10.58 15.1891 10.24 15.5291 9.82996 15.5291Z" fill="white"/> <path d="M12.47 13.4991H9.82996C9.41996 13.4991 9.07996 13.1691 9.07996 12.7491C9.07996 12.3291 9.41996 11.9991 9.82996 11.9991H12.47C12.99 11.9991 13.41 11.5791 13.41 11.0591C13.41 10.5391 12.99 10.1191 12.47 10.1191H9.82996C9.41996 10.1191 9.07996 9.77914 9.07996 9.36914C9.07996 8.95914 9.41996 8.61914 9.82996 8.61914H12.47C13.82 8.61914 14.91 9.71914 14.91 11.0591C14.91 12.3991 13.81 13.4991 12.47 13.4991Z" fill="white"/> <path d="M4.72995 15.5309H4.10995C3.78995 15.5309 3.49995 15.3209 3.39995 15.0209L1.53995 9.4709C1.40995 9.0809 1.61995 8.6509 2.00995 8.5209C2.39995 8.3909 2.82995 8.6009 2.95995 8.9909L4.40995 13.3409L5.86995 8.9909C5.99995 8.6009 6.42995 8.3909 6.81995 8.5209C7.20995 8.6509 7.42994 9.0809 7.28995 9.4709L5.42994 15.0209C5.32995 15.3309 5.03994 15.5309 4.71994 15.5309H4.72995Z" fill="white"/> </g> <defs> <clipPath id="clip0_2085_383573"> <rect width="24" height="24" fill="white"/> </clipPath> </defs> </svg>
