<svg width="24" height="24" viewBox="0 0 24 24" fill="none" xmlns="http://www.w3.org/2000/svg"> <g clip-path="url(#clip0_4482_14255)"> <path d="M22.69 8.25H1.31C1.27 8.44 1.25 8.63 1.25 8.83V16C1.25 18.07 2.93 19.75 5 19.75H8.5C9.04 19.75 9.57 19.49 9.9 19.05L11.81 16.51C11.81 16.51 11.87 16.42 12 16.42C12.13 16.42 12.18 16.49 12.2 16.52L14.1 19.05C14.43 19.49 14.96 19.75 15.5 19.75H19C21.07 19.75 22.75 18.07 22.75 16V8.83C22.75 8.63 22.73 8.44 22.69 8.25Z" fill="white"/> <path opacity="0.4" d="M22.6896 8.25H21.1096C21.0496 8.14 20.9696 8.03 20.8796 7.94L19.0596 6.12C18.8196 5.88 18.4996 5.75 18.1696 5.75H5.82957C5.49957 5.75 5.17957 5.88 4.93957 6.12L3.11957 7.94C3.02957 8.03 2.94957 8.14 2.88957 8.25H1.30957C1.41957 7.73 1.67957 7.26 2.05957 6.88L3.87957 5.06C4.39957 4.54 5.08957 4.25 5.82957 4.25H18.1696C18.9096 4.25 19.5996 4.54 20.1196 5.06L21.9396 6.88C22.3196 7.26 22.5796 7.73 22.6896 8.25Z" fill="white"/> </g> <defs> <clipPath id="clip0_4482_14255"> <rect width="24" height="24" fill="white"/> </clipPath> </defs> </svg>
