<svg width="24" height="24" viewBox="0 0 24 24" fill="none" xmlns="http://www.w3.org/2000/svg"> <g clip-path="url(#clip0_4482_13270)"> <path d="M19.0399 14.8002C17.5299 14.8002 16.2499 13.6802 16.1299 12.2402C16.0499 11.4102 16.3499 10.6002 16.9499 10.0102C17.4599 9.4902 18.1599 9.2002 18.9099 9.2002H20.9899C21.9799 9.2402 22.7399 10.0102 22.7399 10.9702V13.0302C22.7399 13.9902 21.9799 14.7702 21.0199 14.8002H19.0299H19.0399ZM20.9699 10.7002H18.9199C18.5699 10.7002 18.2499 10.8302 18.0199 11.0702C17.7299 11.3502 17.5899 11.7302 17.6299 12.1102C17.6799 12.7702 18.3199 13.3002 19.0399 13.3002H20.9999C21.1299 13.3002 21.2499 13.1802 21.2499 13.0302V10.9702C21.2499 10.8202 21.1299 10.7002 20.9699 10.7002Z" fill="white"/> <path opacity="0.4" d="M18.92 9.95H21V8.5C21 5.76 19.33 3.85 16.75 3.55C16.51 3.51 16.26 3.5 16 3.5H7C6.72 3.5 6.45 3.52 6.19 3.56C3.64 3.88 2 5.78 2 8.5V15.5C2 18.5 4 20.5 7 20.5H16C19 20.5 21 18.5 21 15.5V14.05H19.04C17.96 14.05 16.97 13.26 16.88 12.18C16.82 11.55 17.06 10.96 17.48 10.55C17.85 10.17 18.36 9.95 18.92 9.95ZM13 8.75H6C5.59 8.75 5.25 8.41 5.25 8C5.25 7.59 5.59 7.25 6 7.25H13C13.41 7.25 13.75 7.59 13.75 8C13.75 8.41 13.41 8.75 13 8.75Z" fill="white"/> <path d="M13.75 8C13.75 8.41 13.41 8.75 13 8.75H6C5.59 8.75 5.25 8.41 5.25 8C5.25 7.59 5.59 7.25 6 7.25H13C13.41 7.25 13.75 7.59 13.75 8Z" fill="white"/> </g> <defs> <clipPath id="clip0_4482_13270"> <rect width="24" height="24" fill="white"/> </clipPath> </defs> </svg>
