<svg width="24" height="24" viewBox="0 0 24 24" fill="none" xmlns="http://www.w3.org/2000/svg"> <g clip-path="url(#clip0_2085_387792)"> <path opacity="0.4" d="M13.2701 5.67023C14.2801 5.67023 15.1101 4.85023 15.1101 3.83023C15.1101 2.81023 14.2901 1.99023 13.2701 1.99023C12.2501 1.99023 11.4301 2.81023 11.4301 3.83023C11.4301 4.85023 12.2501 5.67023 13.2701 5.67023Z" fill="white" stroke="white" stroke-width="1.5" stroke-linecap="round" stroke-linejoin="round"/> <path d="M14.4801 7.98967C14.1701 9.45967 13.4901 11.8997 12.1701 14.3697L10.2701 14.5597C9.38006 14.6497 8.70006 13.7897 8.99006 12.9497L10.5301 8.51967C10.7101 7.99967 11.2201 7.66967 11.7601 7.72967L14.4801 7.98967Z" fill="white"/> <path d="M11.8304 6.98501L11.8313 6.98403L11.8372 6.98501C11.839 6.9852 11.8412 6.9848 11.8431 6.98501L11.8421 6.98598L14.5511 7.24379C14.7637 7.26412 14.9578 7.37443 15.0843 7.54653C15.2106 7.71858 15.2582 7.93628 15.2141 8.14516C14.8946 9.66053 14.1946 12.1733 12.8313 14.7243C12.7134 14.9446 12.4931 15.092 12.2444 15.1168L10.345 15.3063C8.9127 15.4509 7.81142 14.0652 8.28055 12.7057L8.28153 12.7038L9.82157 8.27407C10.1116 7.43757 10.9364 6.89149 11.8304 6.98501ZM11.677 8.47524C11.4962 8.45522 11.3076 8.56636 11.2386 8.76528V8.76626L9.69852 13.1969L9.69754 13.1959C9.58805 13.5158 9.84765 13.8492 10.1946 13.8141H10.1956L11.6907 13.6637C12.637 11.8092 13.2174 9.99528 13.554 8.65493L11.6888 8.47719L11.677 8.47622V8.47524Z" fill="white"/> <path d="M16.2442 13.2236C17.5391 13.0928 18.7207 13.918 19.0694 15.1435L19.128 15.3945L19.129 15.4003L20.2589 21.871C20.3298 22.2787 20.0571 22.6668 19.6495 22.7382C19.2415 22.8095 18.8527 22.5368 18.7813 22.1288L17.6524 15.665L17.627 15.5556C17.4742 15.0174 16.9569 14.6592 16.3956 14.7158H16.3917L12.2423 15.1161C11.83 15.1559 11.4636 14.8536 11.4239 14.4413C11.3843 14.0292 11.6857 13.6629 12.0977 13.623L16.2442 13.2245V13.2236Z" fill="white"/> <path d="M14.5523 7.24378L20.1226 7.78382C20.5347 7.82391 20.8363 8.19001 20.7964 8.60218C20.7564 9.01434 20.3902 9.31576 19.978 9.27601L14.4077 8.73597C13.9955 8.696 13.694 8.32987 13.7339 7.91761C13.7739 7.50535 14.14 7.20385 14.5523 7.24378Z" fill="white"/> <path d="M9.91561 16.5029C10.168 16.1746 10.639 16.1129 10.9674 16.3653C11.2956 16.6176 11.3573 17.0886 11.1051 17.417C9.47333 19.5404 7.21536 21.4461 4.17342 22.4424C3.77991 22.5713 3.3562 22.3573 3.22713 21.9639C3.09821 21.5703 3.31303 21.1465 3.70662 21.0176C6.40465 20.1339 8.42735 18.4396 9.91561 16.5029Z" fill="white"/> </g> <defs> <clipPath id="clip0_2085_387792"> <rect width="24" height="24" fill="white"/> </clipPath> </defs> </svg>
