<svg width="24" height="24" viewBox="0 0 24 24" fill="none" xmlns="http://www.w3.org/2000/svg"> <g clip-path="url(#clip0_2085_387767)"> <path d="M11.4131 12.8684C11.6056 12.7951 11.8213 12.8043 12.0088 12.8958C12.8035 13.2835 13.7538 13.7117 14.4385 14.1009C14.7776 14.2936 15.1186 14.5131 15.3613 14.7542C15.5593 14.9509 15.9808 15.4653 15.6709 16.0852C15.4802 16.4666 15.108 16.8583 14.7539 17.1887C14.4446 17.4775 14.0875 17.7689 13.7402 18.0423C14.036 18.1427 14.2499 18.4196 14.25 18.7493C14.25 19.1635 13.9142 19.4993 13.5 19.4993H11.5C11.1696 19.4993 10.8781 19.2833 10.7822 18.9671C10.6865 18.6507 10.809 18.3086 11.084 18.1253L11.085 18.1243L11.1143 18.1048C11.1352 18.0906 11.1669 18.0697 11.207 18.0423C11.2875 17.9873 11.4037 17.9071 11.5449 17.8079C11.8282 17.6088 12.2103 17.3345 12.6055 17.0305C13.0025 16.7251 13.4035 16.3973 13.7305 16.0921C13.9022 15.9318 14.0346 15.7929 14.1328 15.68C14.0266 15.6036 13.8833 15.5113 13.6973 15.4055C13.1502 15.0946 12.4378 14.7648 11.6934 14.4075C8.41443 16.1229 4.8207 17.9746 2.26759 18.9505C1.88075 19.0981 1.44767 18.9037 1.29982 18.5169C1.15211 18.13 1.34561 17.697 1.73243 17.5491C4.2723 16.5782 7.93896 14.6824 11.332 12.9055L11.4131 12.8684ZM16.3203 10.3157C16.6922 10.1338 17.141 10.2877 17.3233 10.6594C17.8137 11.6609 18.3784 12.891 19.0762 14.095C19.7748 15.3004 20.5706 16.412 21.4815 17.1741C21.7991 17.4399 21.841 17.913 21.5752 18.2307C21.3094 18.5484 20.8363 18.5903 20.5186 18.3245C19.4096 17.3966 18.5097 16.1089 17.7783 14.8469C17.0461 13.5835 16.4461 12.2782 15.9766 11.3196C15.7944 10.9476 15.9483 10.4979 16.3203 10.3157Z" fill="white"/> <path opacity="0.4" d="M20 9.25C21.1046 9.25 22 8.35457 22 7.25C22 6.14543 21.1046 5.25 20 5.25C18.8954 5.25 18 6.14543 18 7.25C18 8.35457 18.8954 9.25 20 9.25Z" fill="white" stroke="white" stroke-width="1.5" stroke-linecap="round" stroke-linejoin="round"/> <path d="M16.6499 10.9895C15.2399 11.6895 13.5099 12.6095 11.6799 13.5695C10.3999 12.9395 9.27995 12.2995 9.49995 11.7495C9.99995 10.4995 14.5499 8.88952 15.4999 9.24952C15.8099 9.36952 16.1799 10.0395 16.6499 10.9895Z" fill="white"/> <path d="M14.9488 8.45341C15.1639 8.44149 15.4225 8.44569 15.6636 8.51494L15.7662 8.54814L15.771 8.55009C16.0069 8.64142 16.182 8.80426 16.3003 8.93486C16.4266 9.07423 16.5423 9.23943 16.649 9.40849C16.8619 9.74605 17.087 10.1828 17.3218 10.6575C17.5052 11.0283 17.3543 11.4773 16.9839 11.6614C15.5839 12.3565 13.8656 13.2701 12.0289 14.2337C11.8168 14.3449 11.5641 14.3482 11.3492 14.2425C10.7117 13.9287 10.054 13.5843 9.57964 13.2308C9.34574 13.0564 9.10208 12.8411 8.93609 12.5813C8.75941 12.3049 8.63 11.9042 8.80328 11.471C8.92347 11.1706 9.13727 10.9202 9.35015 10.721C9.57012 10.5152 9.83439 10.3224 10.1158 10.1458C10.6792 9.79226 11.3707 9.46573 12.0591 9.19755C12.7486 8.92896 13.4614 8.70927 14.0767 8.57939C14.3837 8.51461 14.6821 8.46822 14.9488 8.45341ZM15.0318 9.95146C14.8659 9.96067 14.648 9.99118 14.3873 10.0462C13.8668 10.156 13.2322 10.3499 12.6031 10.595C11.973 10.8405 11.3735 11.1278 10.9136 11.4163C10.6835 11.5607 10.5027 11.6967 10.3746 11.8167C10.3476 11.8419 10.3238 11.8652 10.3033 11.887C10.3454 11.9259 10.402 11.9734 10.4761 12.0286C10.7631 12.2425 11.179 12.4748 11.6724 12.7259C13.0921 11.9801 14.4535 11.2616 15.6392 10.6595C15.5459 10.4851 15.4599 10.3343 15.3804 10.2083C15.3017 10.0835 15.2393 10.002 15.1949 9.95146C15.1611 9.94942 15.1081 9.94723 15.0318 9.95146Z" fill="white"/> </g> <defs> <clipPath id="clip0_2085_387767"> <rect width="24" height="24" fill="white"/> </clipPath> </defs> </svg>
