<svg width="24" height="24" viewBox="0 0 24 24" fill="none" xmlns="http://www.w3.org/2000/svg"> <g clip-path="url(#clip0_2085_387776)"> <path d="M20.9937 6.73579C21.3675 6.68698 21.7255 6.92652 21.8179 7.30024L22.2876 9.19965C22.3871 9.60175 22.1419 10.0084 21.7398 10.1079C21.3378 10.2072 20.931 9.96202 20.8316 9.56L20.5376 8.37348C18.1256 8.9106 15.9752 9.23451 13.9712 9.31879C13.5575 9.33606 13.2084 9.01479 13.191 8.60102C13.1738 8.18735 13.495 7.83815 13.9087 7.82075C15.9865 7.73334 18.2672 7.3727 20.9185 6.74946L20.9937 6.73579Z" fill="white"/> <path d="M0.888105 5.23564C1.07241 4.86487 1.52307 4.7136 1.89396 4.89775C4.71281 6.29729 7.13849 7.17457 9.59904 7.56865C10.0078 7.63432 10.2855 8.0192 10.2201 8.42802C10.1546 8.83691 9.77061 9.11539 9.36174 9.05009C6.70238 8.62418 4.12702 7.68187 1.226 6.2415C0.855225 6.0572 0.703954 5.60653 0.888105 5.23564Z" fill="white"/> <path d="M14.11 11.2796C13.24 11.2696 10.79 11.1996 10.2 10.8096C9.58998 10.3996 9.48998 8.76957 9.47998 8.30957C10.92 8.54957 12.38 8.62957 13.94 8.56957C14 9.30957 14.05 10.2596 14.11 11.2796Z" fill="white" stroke="white" stroke-width="1.5" stroke-linecap="round" stroke-linejoin="round"/> <path d="M14.0706 10.5313C14.4842 10.5096 14.8369 10.8276 14.8586 11.2413C14.9439 12.8605 15.0221 14.6513 15.0784 16.0362C15.1065 16.7289 15.129 17.3208 15.1448 17.7393C15.1527 17.9485 15.1592 18.1149 15.1633 18.2286C15.1654 18.2852 15.1671 18.3289 15.1682 18.3585C15.1687 18.373 15.1689 18.3841 15.1692 18.3917V18.4034C15.1765 18.6067 15.1014 18.8048 14.9602 18.9512C14.8189 19.0977 14.6237 19.1807 14.4202 19.1807H12.51C12.0959 19.1807 11.7602 18.8448 11.76 18.4307C11.76 18.0165 12.0958 17.6807 12.51 17.6807H13.6409C13.6254 17.2729 13.6049 16.7266 13.5793 16.0968C13.5231 14.7143 13.4454 12.9299 13.3606 11.3194C13.339 10.9059 13.6571 10.5531 14.0706 10.5313Z" fill="white"/> <path opacity="0.4" d="M5.84995 11.2805C6.89929 11.2805 7.74995 10.4298 7.74995 9.38047C7.74995 8.33113 6.89929 7.48047 5.84995 7.48047C4.80061 7.48047 3.94995 8.33113 3.94995 9.38047C3.94995 10.4298 4.80061 11.2805 5.84995 11.2805Z" fill="white" stroke="white" stroke-width="1.5" stroke-linecap="round" stroke-linejoin="round"/> </g> <defs> <clipPath id="clip0_2085_387776"> <rect width="24" height="24" fill="white"/> </clipPath> </defs> </svg>
