<svg width="24" height="24" viewBox="0 0 24 24" fill="none" xmlns="http://www.w3.org/2000/svg"> <g clip-path="url(#clip0_2085_387780)"> <path d="M9.76514 12.9298C10.179 12.9216 10.5212 13.2504 10.5298 13.6642C10.58 16.14 10.5676 18.2299 10.5425 19.7013C10.5316 20.3403 10.5169 20.8629 10.5054 21.2501H12.1899C12.6042 21.2501 12.9399 21.5859 12.9399 22.0001C12.9398 22.4142 12.6041 22.7501 12.1899 22.7501H9.72998C9.52539 22.7501 9.32946 22.6665 9.18799 22.5187C9.06421 22.3893 8.99118 22.2202 8.98096 22.0431V21.9582C8.98122 21.952 8.98142 21.9424 8.98193 21.9298C8.98298 21.9046 8.98489 21.866 8.98682 21.8156C8.99066 21.7148 8.99625 21.5648 9.00244 21.3693C9.01483 20.9778 9.03005 20.4038 9.04248 19.6759C9.06735 18.2199 9.07955 16.1494 9.02979 13.6955C9.02138 13.2813 9.35101 12.9382 9.76514 12.9298Z" fill="white"/> <path d="M14.47 10.4803C14.18 11.2403 13.64 11.7103 12.98 12.0703C12.59 10.1303 11.11 6.40034 8.22002 4.43034C8.02002 3.53034 8.13002 2.90034 8.98002 2.26034C11.18 0.610336 15.69 7.31034 14.47 10.4803Z" fill="white"/> <path d="M8.52981 1.65954C9.44708 0.971592 10.5143 1.25282 11.3355 1.76599C12.1699 2.28752 12.9717 3.16207 13.6304 4.1449C14.2944 5.13562 14.85 6.29247 15.1597 7.42908C15.4648 8.54875 15.5573 9.74417 15.1704 10.7494L15.1695 10.7484C14.7947 11.7291 14.0949 12.3158 13.3394 12.7279C13.1301 12.842 12.8786 12.8502 12.6626 12.7494C12.4468 12.6486 12.2916 12.4507 12.2447 12.2172C12.0646 11.3219 11.6238 9.97606 10.8804 8.62146C10.1363 7.26571 9.11416 5.94679 7.79739 5.04919C7.63994 4.94177 7.52917 4.77823 7.48782 4.59216C7.37572 4.08764 7.32495 3.55539 7.48977 3.02478C7.65881 2.48075 8.02059 2.04321 8.52883 1.66052L8.52981 1.65954ZM10.5406 3.03845C9.93562 2.66044 9.61295 2.72274 9.4302 2.85974C9.08925 3.11667 8.9708 3.31429 8.92239 3.47009C8.88336 3.59591 8.86992 3.75686 8.90188 3.99353C10.3443 5.05284 11.4244 6.49608 12.1948 7.89978C12.7493 8.91006 13.1524 9.92227 13.4214 10.7943C13.567 10.6249 13.6839 10.4354 13.7691 10.2123L13.77 10.2103C13.9931 9.63068 13.9784 8.79997 13.7124 7.82361C13.4509 6.864 12.9703 5.85411 12.3843 4.97986C11.7932 4.09802 11.1321 3.40824 10.5406 3.03845Z" fill="white"/> <path d="M7.79815 3.80978C8.05293 3.63645 8.38824 3.6362 8.64288 3.80978C10.216 4.88215 11.3787 6.41392 12.1946 7.9006C13.0111 9.38827 13.5051 10.8773 13.7151 11.9221C13.7788 12.2388 13.6324 12.5606 13.3519 12.7209C12.8561 13.0042 12.2884 13.243 11.7718 13.4758C11.2365 13.717 10.7114 13.9702 10.2034 14.3059C9.97651 14.4557 9.68604 14.4711 9.44464 14.3459C9.20319 14.2207 9.04848 13.9742 9.04034 13.7024C9.02036 13.033 9.00075 12.3337 8.98077 11.6047L8.94854 10.9484C8.73973 7.77376 7.83197 6.10894 7.48858 4.59591C7.42035 4.29528 7.54334 3.98329 7.79815 3.80978ZM9.76495 6.92501C10.0582 7.9796 10.3392 9.28286 10.4456 10.8654L10.4798 11.5559V11.5598C10.4877 11.85 10.4953 12.1355 10.5032 12.4162C10.7276 12.3053 10.9458 12.2031 11.1556 12.1086C11.5117 11.9481 11.8268 11.8097 12.1146 11.6721C11.8877 10.8198 11.4847 9.72385 10.8802 8.62228C10.5604 8.03953 10.1887 7.46362 9.76495 6.92501Z" fill="white"/> <path d="M9.37601 13.0555C9.72133 12.8268 10.1864 12.9212 10.4151 13.2664C10.6437 13.6117 10.5493 14.0767 10.2041 14.3055C8.94296 15.1404 7.65185 16.5957 6.98538 19.9471C6.90443 20.3531 6.50969 20.6167 6.10355 20.5359C5.69741 20.455 5.4339 20.0603 5.51468 19.6541C6.2482 15.9656 7.73726 14.1405 9.37601 13.0555Z" fill="white"/> <path opacity="0.4" d="M15.56 18.7101C16.7695 18.7101 17.75 17.7296 17.75 16.5201C17.75 15.3106 16.7695 14.3301 15.56 14.3301C14.3505 14.3301 13.37 15.3106 13.37 16.5201C13.37 17.7296 14.3505 18.7101 15.56 18.7101Z" fill="white" stroke="white" stroke-width="1.5" stroke-linecap="round" stroke-linejoin="round"/> </g> <defs> <clipPath id="clip0_2085_387780"> <rect width="24" height="24" fill="white"/> </clipPath> </defs> </svg>
