<svg width="24" height="24" viewBox="0 0 24 24" fill="none" xmlns="http://www.w3.org/2000/svg"> <g clip-path="url(#clip0_2085_387766)"> <path d="M11.5605 13.2373C11.8957 13.3107 12.1381 13.6023 12.1494 13.9453C12.2149 15.9485 11.9926 18.4086 11.3203 21.25H12.3603C12.7744 21.2501 13.1103 21.5859 13.1103 22C13.1103 22.4141 12.7744 22.7499 12.3603 22.75H10.3603C10.1277 22.75 9.9076 22.6423 9.76561 22.458C9.62366 22.2737 9.57539 22.0335 9.63475 21.8086C10.4391 18.7637 10.7039 16.1775 10.6533 14.1406C10.6447 14.0951 10.6396 14.0481 10.6396 14C10.6396 13.8927 10.6637 13.8102 10.6709 13.7852C10.6812 13.7491 10.6915 13.72 10.6982 13.7031C10.7055 13.6848 10.713 13.6694 10.7178 13.6592C10.7202 13.6538 10.7227 13.6485 10.7246 13.6445C10.7254 13.6428 10.7258 13.6411 10.7265 13.6396L10.7285 13.6367V13.6348H10.7295C10.883 13.3277 11.2252 13.1639 11.5605 13.2373ZM8.6699 7.61035C9.08412 7.61035 9.4199 7.94614 9.4199 8.36035C9.41976 8.6653 9.23697 8.92586 8.97557 9.04297C8.96579 9.04831 8.95608 9.05515 8.94529 9.06055C8.89756 9.08441 8.84846 9.10226 8.79881 9.11523C8.77834 9.12489 8.76192 9.13405 8.74608 9.14355C7.10598 10.1757 6.15052 12.2871 7.08104 15.5439C7.19479 15.9421 6.96443 16.3568 6.56639 16.4707C6.16811 16.5845 5.75245 16.3543 5.63865 15.9561C4.57143 12.2207 5.6101 9.33474 7.96287 7.86426L7.97459 7.85645C8.13347 7.76118 8.28802 7.70158 8.38182 7.66406L8.51854 7.62305C8.56505 7.61411 8.61256 7.61035 8.66014 7.61035H8.6699ZM16.6953 6.01855C17.2197 5.97323 17.7094 6.16306 18.0781 6.58496C18.4145 6.96986 18.6176 7.50859 18.7392 8.13281C18.9834 9.3861 18.9591 11.3176 18.6045 14.0947C18.552 14.5056 18.1755 14.7966 17.7646 14.7441C17.354 14.6915 17.0639 14.3159 17.1162 13.9053C17.4664 11.163 17.4629 9.4282 17.2666 8.41992C17.1679 7.91342 17.0353 7.67193 16.9482 7.57227C16.8935 7.50961 16.8711 7.50962 16.8242 7.51367C16.7283 7.5221 16.5424 7.58301 16.2617 7.78223C15.9903 7.97492 15.6832 8.25881 15.3555 8.62402C14.7008 9.35356 14.0216 10.3402 13.4316 11.3721C13.2261 11.7315 12.7677 11.8566 12.4082 11.6514C12.0487 11.4458 11.9234 10.9875 12.1289 10.6279C12.7538 9.5349 13.4933 8.45339 14.2392 7.62207C14.6117 7.20697 15.0006 6.83688 15.3926 6.55859C15.7748 6.28726 16.2199 6.05968 16.6953 6.01855ZM12.0888 14.2637C12.0894 14.2623 12.0912 14.2612 12.0918 14.2598C12.096 14.2492 12.1038 14.2269 12.1123 14.1973C12.1134 14.1933 12.1139 14.1859 12.1162 14.1768C12.1089 14.2066 12.0996 14.2353 12.0888 14.2637ZM13.1103 2C13.1103 1.58579 13.4461 1.25 13.8603 1.25C14.2744 1.25015 14.6103 1.58588 14.6103 2C14.6103 3.67888 13.7323 5.53196 11.8506 7.15723C11.5371 7.42796 11.0627 7.39356 10.792 7.08008C10.5215 6.76659 10.5567 6.29311 10.8701 6.02246C12.508 4.60783 13.1103 3.14099 13.1103 2Z" fill="white"/> <path opacity="0.4" d="M7.85999 6C8.96455 6 9.85998 5.10457 9.85998 4C9.85998 2.89543 8.96455 2 7.85999 2C6.75542 2 5.85999 2.89543 5.85999 4C5.85999 5.10457 6.75542 6 7.85999 6Z" fill="white" stroke="white" stroke-width="1.5" stroke-linecap="round" stroke-linejoin="round"/> <path d="M12.78 10.9998C12.19 12.0298 11.7 13.0898 11.4 13.9698C11.25 10.0398 9.92004 7.98984 8.67004 8.35984C9.75004 7.80984 10.64 7.20984 11.36 6.58984C12.36 7.08984 13.36 9.49984 12.78 10.9998Z" fill="white"/> <path d="M10.961 5.95502C11.1804 5.81703 11.4588 5.80061 11.6954 5.91889C12.1001 6.12122 12.4366 6.47524 12.6983 6.84662C12.9679 7.22909 13.1982 7.6868 13.3692 8.16889C13.7017 9.10574 13.8606 10.285 13.4796 11.2704C13.4659 11.3057 13.4495 11.3402 13.4307 11.373C12.8594 12.3705 12.3909 13.3864 12.1095 14.2119C11.9928 14.5539 11.6487 14.7641 11.2911 14.7119C10.9336 14.6594 10.6643 14.3591 10.6505 13.998C10.5779 12.098 10.2213 10.726 9.78524 9.90326C9.56686 9.49124 9.35193 9.26182 9.18759 9.15228C9.04188 9.0553 8.95197 9.0586 8.8829 9.07904C8.51128 9.18903 8.11735 8.99757 7.97372 8.63764C7.8302 8.27769 7.984 7.86734 8.32919 7.69135C9.36127 7.16575 10.2003 6.59821 10.8702 6.02142L10.961 5.95502ZM11.3546 7.55853C11.0606 7.78568 10.7456 8.00843 10.4083 8.22553C10.6778 8.49312 10.9118 8.8264 11.1104 9.20111C11.3976 9.74292 11.6352 10.4145 11.8126 11.2011C11.9026 11.0323 11.9946 10.8631 12.0899 10.6953C12.2743 10.1809 12.2228 9.4226 11.9561 8.67084C11.8248 8.30056 11.6537 7.96773 11.4727 7.71088C11.4326 7.65391 11.392 7.6039 11.3546 7.55853Z" fill="white"/> </g> <defs> <clipPath id="clip0_2085_387766"> <rect width="24" height="24" fill="white"/> </clipPath> </defs> </svg>
