<svg width="24" height="24" viewBox="0 0 24 24" fill="none" xmlns="http://www.w3.org/2000/svg"> <g clip-path="url(#clip0_4482_9024)"> <path d="M10.4194 17.7801C10.4194 19.5301 9.00937 20.9401 7.26937 20.9401C5.52937 20.9401 4.10938 19.5301 4.10938 17.7801C4.10938 16.8001 4.55937 15.9301 5.24937 15.3501C5.79937 14.9001 6.50937 14.6301 7.26937 14.6301C9.00937 14.6301 10.4194 16.0401 10.4194 17.7801Z" fill="white"/> <path d="M15.6794 8.57006V9.37006H4.10938V8.57006C4.10938 7.13006 4.92937 5.81006 6.21937 5.16006L7.19937 4.18006C7.91937 3.46006 8.88937 3.06006 9.89937 3.06006C10.9094 3.06006 11.8794 3.46006 12.5894 4.18006L13.5794 5.16006C14.8694 5.81006 15.6794 7.13006 15.6794 8.57006Z" fill="white"/> <path d="M22.4097 5.79001L20.1897 7.27001C19.8097 7.52001 19.5897 7.94001 19.5897 8.39001V18.4C19.5897 19 19.3497 19.56 18.9297 19.98C18.5097 20.4 17.9497 20.64 17.3497 20.64C16.7497 20.64 16.1897 20.4 15.7697 19.98L13.5897 17.81C13.5897 17.81 13.5097 17.71 13.4697 17.66C13.7597 17.56 14.0297 17.39 14.2597 17.16L14.6597 16.75L16.8297 18.92C17.1097 19.2 17.5897 19.2 17.8697 18.92C18.0097 18.78 18.0897 18.6 18.0897 18.4V13.29L18.1897 13.19C18.5997 12.77 18.8397 12.2 18.8397 11.61C18.8397 11.02 18.5997 10.45 18.1797 10.03C18.1497 10 18.1197 9.97001 18.0897 9.95001V8.39001C18.0897 7.44001 18.5597 6.55001 19.3597 6.02001L21.5797 4.54001C21.9197 4.31001 22.3797 4.40001 22.6197 4.75001C22.8497 5.09001 22.7497 5.56001 22.4097 5.79001Z" fill="white"/> <g opacity="0.4"> <path d="M18.8398 11.6101C18.8398 12.2001 18.5998 12.7701 18.1898 13.1901L18.0898 13.2901L14.6598 16.7501L14.2598 17.1601C14.0298 17.3901 13.7598 17.5601 13.4698 17.6601C13.2398 17.7401 12.9998 17.7801 12.7598 17.7801H10.4198C10.4198 16.0401 9.00977 14.6301 7.26977 14.6301C6.50977 14.6301 5.79977 14.9001 5.24977 15.3501L2.36977 11.9001C2.13977 11.6301 2.00977 11.2801 2.00977 10.9201C2.00977 10.0601 2.69977 9.37012 3.54977 9.37012H16.5898C17.1498 9.37012 17.6798 9.58012 18.0898 9.95012C18.1198 9.97012 18.1498 10.0001 18.1798 10.0301C18.5998 10.4501 18.8398 11.0201 18.8398 11.6101Z" fill="white"/> </g> </g> <defs> <clipPath id="clip0_4482_9024"> <rect width="24" height="24" fill="white"/> </clipPath> </defs> </svg>
