<svg width="24" height="24" viewBox="0 0 24 24" fill="none" xmlns="http://www.w3.org/2000/svg"> <g clip-path="url(#clip0_4482_6280)"> <path opacity="0.4" d="M21.22 6.50012L18.32 9.40012C17.73 9.99012 16.95 10.2401 16.16 10.1601C16.13 10.1601 16.11 10.1501 16.07 10.1501C15.54 10.0701 15 9.82012 14.57 9.40012C14.16 8.99012 13.91 8.45012 13.83 7.91012C13.82 7.89012 13.83 7.86012 13.82 7.84012C13.73 7.06012 13.99 6.26012 14.58 5.67012L17.49 2.78012C18.52 1.73012 20.19 1.74012 21.22 2.77012C21.73 3.28012 22 3.96012 22 4.63012C22 5.32012 21.74 5.98012 21.22 6.50012Z" fill="white"/> <path d="M16.16 10.1596L12.73 13.5896C12.52 13.0696 12.21 12.5896 11.81 12.1896C11.41 11.7896 10.93 11.4796 10.41 11.2696L13.83 7.84961C13.84 7.86961 13.83 7.89961 13.84 7.91961C13.93 8.44961 14.17 8.99961 14.58 9.40961C15.01 9.83961 15.55 10.0796 16.08 10.1596C16.11 10.1596 16.13 10.1596 16.16 10.1596Z" fill="white"/> <path d="M6.53005 22.7505C5.06005 22.7505 3.73005 22.2305 2.75005 21.2405C1.64005 20.1305 1.12005 18.5805 1.27005 16.8805C1.42005 15.2305 2.20005 13.6305 3.46005 12.3605C5.49005 10.3305 8.40005 9.61049 10.69 10.5605C11.31 10.8105 11.87 11.1805 12.34 11.6405C12.81 12.1105 13.17 12.6705 13.43 13.2905C14.38 15.5705 13.6601 18.4805 11.6301 20.5105C10.3701 21.7705 8.76005 22.5505 7.11005 22.7005C6.92005 22.7405 6.72005 22.7505 6.53005 22.7505ZM8.54004 11.6505C7.15004 11.6505 5.68005 12.2805 4.53005 13.4305C3.51005 14.4505 2.89005 15.7205 2.77005 17.0205C2.66005 18.2705 3.03005 19.3905 3.82005 20.1805C4.61005 20.9705 5.73004 21.3405 6.98004 21.2305C8.28004 21.1105 9.56005 20.4905 10.5701 19.4705C12.1801 17.8605 12.77 15.6205 12.04 13.8805C11.86 13.4305 11.6 13.0405 11.28 12.7205C10.96 12.4005 10.5701 12.1405 10.1301 11.9605C9.63005 11.7505 9.09004 11.6505 8.54004 11.6505Z" fill="white"/> <path d="M3.35003 20.8203C3.30003 20.8203 3.25002 20.8203 3.20002 20.8103C2.79002 20.7303 2.53002 20.3303 2.61002 19.9303C3.43002 15.8103 6.89003 12.3503 11.02 11.5203C11.42 11.4403 11.82 11.7003 11.9 12.1103C11.98 12.5203 11.72 12.9103 11.31 12.9903C7.82002 13.6903 4.78003 16.7303 4.08003 20.2203C4.01003 20.5703 3.70003 20.8203 3.35003 20.8203Z" fill="white"/> <path d="M3.92999 21.4004C3.57999 21.4004 3.26999 21.1504 3.19999 20.8004C3.11999 20.3904 3.37999 20.0004 3.78999 19.9204C7.27999 19.2204 10.32 16.1804 11.02 12.6904C11.1 12.2804 11.5 12.0204 11.9 12.1004C12.31 12.1804 12.57 12.5804 12.49 12.9804C11.67 17.1004 8.21 20.5604 4.08 21.3904C4.03 21.4004 3.97999 21.4004 3.92999 21.4004Z" fill="white"/> </g> <defs> <clipPath id="clip0_4482_6280"> <rect width="24" height="24" fill="white"/> </clipPath> </defs> </svg>
