<svg width="24" height="24" viewBox="0 0 24 24" fill="none" xmlns="http://www.w3.org/2000/svg"> <g clip-path="url(#clip0_2085_391709)"> <g opacity="0.4"> <path d="M15.3 10.8409L12.07 18.9509C11.99 19.1209 11.79 19.4709 11.79 19.4709C11.79 19.4709 11.31 20.1509 11.01 20.4509C8.95005 22.5209 5.61005 22.5209 3.55005 20.4509C3.55005 20.4509 3.81005 20.4609 4.26005 20.3909C6.20005 20.0909 8.18005 18.7809 9.47005 16.9609L14.42 9.96094L15.3 10.8409Z" fill="white"/> </g> <g opacity="0.4"> <path d="M14.0401 9.57922L7.04006 14.5292C5.22006 15.8192 3.91006 17.7992 3.61006 19.7392C3.54006 20.1892 3.55006 20.4492 3.55006 20.4492C1.48006 18.3892 1.48006 15.0492 3.55006 12.9892C3.85006 12.6892 4.18006 12.4292 4.53006 12.2092C4.53006 12.2092 4.88006 12.0092 5.05006 11.9292L13.1601 8.69922L14.0401 9.57922Z" fill="white"/> </g> <path d="M14.42 9.96008L9.47005 16.9601C8.18005 18.7801 6.20005 20.0901 4.26005 20.3901C3.81005 20.4601 3.55005 20.4501 3.55005 20.4501C3.55005 20.4501 3.55005 20.1901 3.61005 19.7401C3.91005 17.8001 5.22005 15.8201 7.04005 14.5301L14.04 9.58008L14.42 9.96008Z" fill="white"/> <path d="M20.07 6.05969L15.3 10.8297L14.42 9.95969L14.04 9.57969L13.17 8.69969L17.94 3.92969L20.07 6.05969Z" fill="white"/> <g opacity="0.4"> <path d="M21.2899 4.84047L20.0699 6.06047L17.9399 3.93047L19.1599 2.71047C19.5499 2.32047 20.1899 2.32047 20.5799 2.71047L21.2899 3.42047C21.6799 3.81047 21.6799 4.45047 21.2899 4.84047Z" fill="white"/> </g> </g> <defs> <clipPath id="clip0_2085_391709"> <rect width="24" height="24" fill="white"/> </clipPath> </defs> </svg>
