<svg width="24" height="24" viewBox="0 0 24 24" fill="none" xmlns="http://www.w3.org/2000/svg"> <g clip-path="url(#clip0_655_9320)"> <path d="M9.54996 17.7V21.41H8.18996C7.64996 21.41 7.20996 20.97 7.20996 20.43V18.17C7.20996 17.91 7.41996 17.7 7.67996 17.7H9.54996Z" fill="white"/> <path d="M11.8998 17.7H9.5498V21.41H11.8998V17.7Z" fill="white"/> <path d="M14.2404 17.7H11.9004V21.41H14.2404V17.7Z" fill="white"/> <path d="M16.5802 18.17V20.43C16.5802 20.97 16.1402 21.41 15.6002 21.41H14.2402V17.7H16.1102C16.3702 17.7 16.5802 17.91 16.5802 18.17Z" fill="white"/> <g opacity="0.4"> <path d="M17.75 7.51998V14.61C17.75 15.02 17.63 15.42 17.4 15.76L16.08 17.7H7.62004L6.33004 15.7C6.14004 15.4 6.04004 15.05 6.04004 14.7V10.83C6.04004 10.18 6.56004 9.65998 7.21004 9.65998C7.86004 9.65998 8.38004 10.18 8.38004 10.83V7.26998C8.38004 4.54998 10.71 2.35998 13.49 2.59998C15.95 2.81998 17.75 5.04998 17.75 7.51998Z" fill="white"/> </g> <path d="M14.9002 15.21H11.7402C11.3302 15.21 10.9902 14.87 10.9902 14.46C10.9902 14.05 11.3302 13.71 11.7402 13.71H14.9002C15.3102 13.71 15.6502 14.05 15.6502 14.46C15.6502 14.87 15.3102 15.21 14.9002 15.21Z" fill="white"/> </g> <defs> <clipPath id="clip0_655_9320"> <rect width="24" height="24" fill="white"/> </clipPath> </defs> </svg>
