<svg width="24" height="24" viewBox="0 0 24 24" fill="none" xmlns="http://www.w3.org/2000/svg"> <g clip-path="url(#clip0_4482_810)"> <path opacity="0.4" d="M20.5 6.29004V17.71C20.5 19.91 18.7 21.71 16.5 21.71H8C5.8 21.71 4 19.91 4 17.71V16.81C4.07 16.82 4.14997 16.82 4.21997 16.82H9.78003C10.57 16.82 11.26 16.4 11.65 15.78C11.87 15.44 12 15.03 12 14.6V9.40004C12 8.99004 11.8899 8.61004 11.6899 8.28004C11.2999 7.62004 10.59 7.18004 9.78003 7.18004H4.21997C4.14997 7.18004 4.07 7.18004 4 7.19004V6.29004C4 4.09004 5.8 2.29004 8 2.29004H16.5C18.7 2.29004 20.5 4.09004 20.5 6.29004Z" fill="white"/> <path d="M9.78003 7.17993H4.21997C4.14997 7.17993 4.07 7.17993 4 7.18993C2.88 7.29993 2 8.24993 2 9.39993V14.5999C2 15.7499 2.88 16.6999 4 16.8099C4.07 16.8199 4.14997 16.8199 4.21997 16.8199H9.78003C11 16.8199 12 15.8199 12 14.5999V9.39993C12 8.17993 11 7.17993 9.78003 7.17993ZM9.48999 13.8599C9.44999 14.1799 9.20001 14.4299 8.89001 14.4899C8.84001 14.4999 8.79 14.4999 8.75 14.4999C8.49 14.4999 8.23998 14.3599 8.09998 14.1299L7 12.2399L5.90002 14.1299C5.74002 14.4099 5.41999 14.5499 5.10999 14.4899C4.79999 14.4299 4.56001 14.1799 4.51001 13.8599L4.01001 10.3599C3.95001 9.94993 4.24002 9.56993 4.65002 9.50993C5.07002 9.44993 5.44 9.73993 5.5 10.1499L5.69995 11.5199L6.37 10.3799C6.64 9.91993 7.40003 9.91993 7.66003 10.3799L8.32996 11.5199L8.53003 10.1499C8.59003 9.73993 8.96 9.45993 9.38 9.50993C9.79 9.56993 10.07 9.94993 10.02 10.3599L9.48999 13.8599Z" fill="white"/> <path d="M20.4995 8.28003V9.78003H11.9995V9.40003C11.9995 8.99003 11.8895 8.61003 11.6895 8.28003H20.4995Z" fill="white"/> <path d="M20.5004 14.28V15.78H11.6504C11.8704 15.44 12.0004 15.03 12.0004 14.6V14.28H20.5004Z" fill="white"/> </g> <defs> <clipPath id="clip0_4482_810"> <rect width="24" height="24" fill="white"/> </clipPath> </defs> </svg>
