<svg width="24" height="24" viewBox="0 0 24 24" fill="none" xmlns="http://www.w3.org/2000/svg"> <g clip-path="url(#clip0_2085_387798)"> <path opacity="0.4" d="M21.4 6.58996C21.4 5.68996 21.04 4.82996 20.4 4.19996C19.76 3.56996 18.9 3.20996 18.01 3.20996H5.98998C5.08998 3.20996 4.22998 3.56996 3.59998 4.19996C2.95998 4.82996 2.60998 5.68996 2.59998 6.58996V18.67C2.61998 19.56 2.97998 20.41 3.60998 21.03C4.23998 21.65 5.09998 22 5.98998 22H18.01C18.9 22 19.75 21.65 20.39 21.03C21.02 20.41 21.39 19.56 21.4 18.67V6.58996Z" fill="white"/> <path d="M11.38 13.9004C11.08 14.0604 10.84 14.3304 10.71 14.6404L11.38 13.9004Z" fill="white"/> <path d="M13.38 13.8301C13.38 13.8301 13.84 13.9301 14.24 14.6801L13.38 13.8301Z" fill="white"/> <path d="M15.16 4.37988V2C15.16 1.58579 15.4958 1.25 15.91 1.25C16.3242 1.25 16.66 1.58579 16.66 2V4.37988C16.66 4.7941 16.3242 5.12988 15.91 5.12988C15.4958 5.12988 15.16 4.7941 15.16 4.37988Z" fill="white"/> <path d="M7.33997 4.37988V2C7.33997 1.58579 7.67575 1.25 8.08997 1.25C8.50418 1.25 8.83997 1.58579 8.83997 2V4.37988C8.83997 4.7941 8.50418 5.12988 8.08997 5.12988C7.67575 5.12988 7.33997 4.7941 7.33997 4.37988Z" fill="white"/> <path d="M17.32 15.0005C17.24 15.5005 17.12 16.0005 16.95 16.4905C16.69 17.3205 15.67 17.7205 14.46 17.9005C12.69 17.9805 10.91 17.9505 9.13996 17.8205C7.57996 17.5305 6.57996 16.5805 6.57996 15.1705C6.57996 14.6005 6.75996 14.0505 7.10996 13.6005C7.44996 13.1405 7.93996 12.8205 8.48996 12.6705C9.03996 12.5305 9.61996 12.5705 10.15 12.7905C10.67 13.0205 11.1 13.4105 11.38 13.9005C11.73 13.7405 12.11 13.6505 12.5 13.6505C12.79 13.6505 13.09 13.7005 13.37 13.8005C13.05 12.8105 13.05 11.7405 13.37 10.7405V10.1305C13.09 10.2605 12.78 10.3305 12.47 10.3305C12.16 10.3305 11.85 10.2605 11.57 10.1305C11.27 9.93048 11.04 9.62048 10.95 9.26048C10.85 8.90048 10.89 8.52048 11.05 8.19048C11.25 7.78048 11.62 7.46048 12.06 7.31048C12.5 7.16048 12.97 7.20048 13.39 7.40048C14.02 7.63048 14.59 8.01048 15.05 8.50048C15.18 8.61048 15.32 8.73048 15.47 8.88048C16.26 9.66048 16.85 10.6305 17.18 11.7005C17.5 12.7705 17.55 13.9105 17.32 15.0005Z" fill="white"/> </g> <defs> <clipPath id="clip0_2085_387798"> <rect width="24" height="24" fill="white"/> </clipPath> </defs> </svg>
