<svg width="24" height="24" viewBox="0 0 24 24" fill="none" xmlns="http://www.w3.org/2000/svg"> <path d="M1.39557 1.39495C1.72946 1.06106 2.27065 1.06106 2.60455 1.39495L22.6045 21.395C22.9384 21.7289 22.9384 22.27 22.6045 22.6039C22.2707 22.9378 21.7295 22.9378 21.3956 22.6039L1.39557 2.60394C1.06167 2.27004 1.06167 1.72885 1.39557 1.39495Z" fill="white"/> <path d="M8.15002 2L2.00002 2L2.00002 8.15" fill="white"/> <path d="M8.9401 1.67285C9.07239 1.99232 8.99906 2.35998 8.75455 2.60449L2.60416 8.75488C2.35963 8.9991 1.99184 9.07172 1.67252 8.93945C1.35341 8.80706 1.14533 8.49588 1.14518 8.15039L1.14518 2C1.14518 1.52793 1.52764 1.14474 1.99967 1.14453L8.15006 1.14453C8.49587 1.14453 8.80776 1.35336 8.9401 1.67285ZM2.85514 2.85547L2.85514 6.08594L6.0856 2.85547L2.85514 2.85547Z" fill="white"/> <path opacity="0.4" d="M21.3954 1.39494C21.7293 1.06105 22.2705 1.06108 22.6044 1.39494C22.9383 1.72883 22.9383 2.27002 22.6044 2.60392L15.6845 9.52384C15.3506 9.85774 14.8094 9.85774 14.4755 9.52384C14.1416 9.18994 14.1416 8.64874 14.4755 8.31486L21.3954 1.39494Z" fill="white"/> <path d="M22 8.15039L22 2.00039L15.85 2.00039" fill="white"/> <path d="M22.3271 8.94083C22.0077 9.07312 21.64 8.99979 21.3955 8.75528L15.2451 2.60489C15.0009 2.36036 14.9283 1.99257 15.0605 1.67325C15.1929 1.35414 15.5041 1.14606 15.8496 1.14591L22 1.14591C22.4721 1.14591 22.8553 1.52838 22.8555 2.0004L22.8555 8.15079C22.8555 8.49661 22.6466 8.80849 22.3271 8.94083ZM21.1445 2.85587L17.9141 2.85587L21.1445 6.08634L21.1445 2.85587Z" fill="white"/> <path opacity="0.4" d="M8.31547 14.475C8.64935 14.1411 9.19055 14.1412 9.52445 14.475C9.85835 14.8089 9.85835 15.3501 9.52445 15.684L2.60453 22.6039C2.27063 22.9378 1.72944 22.9378 1.39555 22.6039C1.06169 22.27 1.06166 21.7288 1.39555 21.3949L8.31547 14.475Z" fill="white"/> </svg>
