<svg width="24" height="24" viewBox="0 0 24 24" fill="none" xmlns="http://www.w3.org/2000/svg"> <g clip-path="url(#clip0_4482_631)"> <path opacity="0.4" d="M12 22C6.5 22 2 17.5 2 12C2 6.5 6.5 2 12 2C17.5 2 22 6.5 22 12C22 17.5 17.5 22 12 22Z" fill="white"/> <path d="M16.38 12.96L16.4 12.95L13.71 9.36C14.02 8.98 14.22 8.5 14.22 7.97C14.22 6.75 13.23 5.75999 12.01 5.75999C10.79 5.75999 9.79999 6.75 9.79999 7.97C9.79999 8.56 10.04 9.1 10.42 9.5L7.88 12.89C6.89 13.11 6.14001 13.99 6.14001 15.05C6.14001 16.27 7.13001 17.26 8.35001 17.26C9.26001 17.26 10.04 16.71 10.38 15.93H13.66C14 16.71 14.78 17.26 15.69 17.26C16.91 17.26 17.9 16.27 17.9 15.05C17.88 14.07 17.25 13.25 16.38 12.96ZM9.51999 13.18L11.79 10.15C11.86 10.16 11.93 10.17 12 10.17C12.14 10.17 12.28 10.15 12.41 10.13L14.63 13.09C14.11 13.37 13.72 13.84 13.55 14.41H10.44C10.29 13.9 9.95999 13.46 9.51999 13.18Z" fill="white"/> </g> <defs> <clipPath id="clip0_4482_631"> <rect width="24" height="24" fill="white"/> </clipPath> </defs> </svg>
