<svg width="24" height="24" viewBox="0 0 24 24" fill="none" xmlns="http://www.w3.org/2000/svg"> <g clip-path="url(#clip0_4482_11226)"> <path d="M13.5498 9.08C13.3598 9.08 13.1698 9.01 13.0198 8.86L11.9798 7.81L10.9298 8.86C10.6398 9.15 10.1598 9.15 9.86984 8.86C9.57984 8.57 9.57984 8.09 9.86984 7.8L11.4498 6.22C11.5898 6.08 11.7798 6 11.9798 6C12.1798 6 12.3698 6.08 12.5098 6.22L14.0898 7.8C14.3798 8.09 14.3798 8.57 14.0898 8.86C13.9398 9.01 13.7498 9.08 13.5598 9.08H13.5498Z" fill="white"/> <path d="M11.9697 13.33C11.5597 13.33 11.2197 12.99 11.2197 12.58V6.75C11.2197 6.34 11.5597 6 11.9697 6C12.3797 6 12.7197 6.34 12.7197 6.75V12.58C12.7197 12.99 12.3797 13.33 11.9697 13.33Z" fill="white"/> <path d="M15.0502 16.6803C14.7302 16.6803 14.4402 16.4803 14.3402 16.1603C14.2102 15.7703 14.4302 15.3403 14.8202 15.2103L16.2302 14.7503L15.7702 13.3403C15.6402 12.9503 15.8602 12.5203 16.2502 12.4003C16.6502 12.2703 17.0702 12.4903 17.1902 12.8803L17.8802 15.0003C18.0102 15.3903 17.7902 15.8203 17.4002 15.9403L15.2802 16.6303C15.2002 16.6603 15.1202 16.6703 15.0502 16.6703V16.6803Z" fill="white"/> <path d="M17.1702 15.9801C17.0602 15.9801 16.9402 15.9501 16.8302 15.9001L11.6302 13.2501C11.2602 13.0601 11.1102 12.6101 11.3002 12.2401C11.4902 11.8701 11.9402 11.7301 12.3102 11.9101L17.5102 14.5601C17.8802 14.7501 18.0302 15.2001 17.8402 15.5701C17.7102 15.8301 17.4402 15.9801 17.1702 15.9801Z" fill="white"/> <path d="M8.89968 16.6803C8.81968 16.6803 8.73969 16.6703 8.66969 16.6403L6.54969 15.9503C6.15969 15.8203 5.93969 15.4003 6.06969 15.0003L6.75969 12.8803C6.88969 12.4903 7.30969 12.2703 7.70969 12.4003C8.09969 12.5303 8.31968 12.9503 8.18968 13.3503L7.72969 14.7603L9.13969 15.2203C9.52969 15.3503 9.74968 15.7703 9.61968 16.1703C9.51969 16.4903 9.21968 16.6903 8.90968 16.6903L8.89968 16.6803Z" fill="white"/> <path d="M6.77981 15.9801C6.50981 15.9801 6.23981 15.8301 6.10981 15.5701C5.91981 15.2001 6.06981 14.7501 6.43981 14.5601L11.6398 11.9101C12.0098 11.7201 12.4598 11.8701 12.6498 12.2401C12.8398 12.6101 12.6898 13.0601 12.3198 13.2501L7.11981 15.9001C7.00981 15.9601 6.88981 15.9801 6.77981 15.9801Z" fill="white"/> <g opacity="0.4"> <path d="M19.0301 4.94002C22.9301 8.84002 22.9301 15.15 19.0301 19.05C15.1301 22.95 8.82012 22.95 4.92012 19.05C1.02012 15.15 1.02012 8.84002 4.92012 4.94002C6.79012 3.07002 9.33012 2.02002 11.9801 2.02002C14.6301 2.02002 17.1601 3.07002 19.0401 4.94002" fill="white"/> </g> </g> <defs> <clipPath id="clip0_4482_11226"> <rect width="24" height="24" fill="white"/> </clipPath> </defs> </svg>
