<svg width="24" height="24" viewBox="0 0 24 24" fill="none" xmlns="http://www.w3.org/2000/svg"> <g clip-path="url(#clip0_2085_391588)"> <path d="M18.25 8C17.34 8.49 16.21 8.14 15.73 7.24C15.13 6.11 13.56 5.73 12.93 5.73C12.18 5.73 11.43 6.01 10.86 6.49C10.39 6.89 10.11 7.39 10.11 7.85C10.11 8.8 10.39 9.43 10.71 10.17C10.8748 10.5343 11.0396 10.9212 11.1718 11.3437C11.2079 11.4592 11.3137 11.54 11.4348 11.54H13.35C14.04 11.54 14.59 12.1 14.59 12.79C14.59 13.48 14.04 14.03 13.35 14.03H11.5879C11.4477 14.03 11.3311 14.1373 11.3163 14.2767C11.2512 14.8854 11.1423 15.4622 11.01 16H7.11001C7.30546 15.4562 7.45035 14.8979 7.53857 14.3313C7.56346 14.1714 7.43767 14.03 7.27586 14.03H5.88001C5.19001 14.03 4.64001 13.48 4.64001 12.79C4.64001 12.1 5.19001 11.54 5.88001 11.54H6.82745C7.02209 11.54 7.15249 11.3407 7.07794 11.1609C6.73628 10.3368 6.38001 9.27152 6.38001 7.85C6.38001 6.29 7.13001 4.75 8.45001 3.64C9.69001 2.58 11.29 2 12.93 2C13.91 2 15.03 2.26 16.01 2.72C17.35 3.34 18.39 4.29 19.02 5.48C19.51 6.39 19.16 7.52 18.25 8Z" fill="white"/> <path opacity="0.4" d="M19.36 20.13C19.36 21.16 18.53 22 17.5 22H6.91995C6.16995 22 5.48995 21.56 5.18995 20.88C4.89995 20.19 5.02995 19.41 5.53995 18.87C5.58995 18.81 6.10995 18.21 6.61995 17.19C6.80995 16.8 6.97995 16.41 7.10995 16H11.01C10.8387 16.6931 10.6276 17.3197 10.3983 17.8907C10.3259 18.0709 10.4568 18.27 10.651 18.27H17.5C18.53 18.27 19.36 19.1 19.36 20.13Z" fill="white"/> </g> <defs> <clipPath id="clip0_2085_391588"> <rect width="24" height="24" fill="white"/> </clipPath> </defs> </svg>
