<svg width="24" height="24" viewBox="0 0 24 24" fill="none" xmlns="http://www.w3.org/2000/svg"> <path opacity="0.38" d="M9.42999 20.7495L3.25 14.5695C3.04 14.3595 2.73001 14.2995 2.45001 14.4095C2.18001 14.5195 2 14.7895 2 15.0895V18.6895C2 20.5095 3.48 21.9995 5.31 21.9995H8.90997C9.20997 21.9995 9.47003 21.8195 9.59003 21.5495C9.70003 21.2695 9.63999 20.9595 9.42999 20.7495Z" fill="white"/> <path d="M21.55 14.4095C21.28 14.2995 20.96 14.3595 20.75 14.5695L14.57 20.7495C14.36 20.9595 14.3 21.2695 14.41 21.5495C14.52 21.8195 14.79 21.9995 15.09 21.9995H18.69C20.51 21.9995 22 20.5195 22 18.6895V15.0895C22 14.7895 21.82 14.5195 21.55 14.4095Z" fill="white"/> <path opacity="0.38" d="M18.69 2H15.09C14.79 2 14.53 2.18 14.41 2.45C14.3 2.72 14.36 3.04 14.57 3.25L20.75 9.43C20.89 9.57 21.08 9.64 21.27 9.64C21.36 9.64 21.46 9.62 21.55 9.58C21.82 9.47 22 9.2 22 8.9V5.3C22 3.48 20.52 2 18.69 2Z" fill="white"/> <path d="M9.59003 2.45C9.48003 2.18 9.20997 2 8.90997 2H5.31C3.49 2 2 3.48 2 5.31V8.91C2 9.21 2.18001 9.47 2.45001 9.59C2.54001 9.63 2.63998 9.65 2.72998 9.65C2.91998 9.65 3.11 9.58 3.25 9.44L9.42999 3.26C9.63999 3.04 9.70003 2.72 9.59003 2.45Z" fill="white"/> </svg>
