<svg width="24" height="24" viewBox="0 0 24 24" fill="none" xmlns="http://www.w3.org/2000/svg"> <g clip-path="url(#clip0_4482_15244)"> <path d="M8.5 13.75C8.09 13.75 7.75 13.41 7.75 13V7C7.75 6.59 8.09 6.25 8.5 6.25C8.91 6.25 9.25 6.59 9.25 7V13C9.25 13.41 8.91 13.75 8.5 13.75Z" fill="white"/> <path d="M12 22.75C6.07 22.75 1.25 17.93 1.25 12C1.25 6.07 6.07 1.25 12 1.25C17.93 1.25 22.75 6.07 22.75 12C22.75 17.93 17.93 22.75 12 22.75ZM12 2.75C6.9 2.75 2.75 6.9 2.75 12C2.75 17.1 6.9 21.25 12 21.25C17.1 21.25 21.25 17.1 21.25 12C21.25 6.9 17.1 2.75 12 2.75Z" fill="white"/> <path d="M11.5 15.75H10.5C10.09 15.75 9.75 15.41 9.75 15C9.75 14.59 10.09 14.25 10.5 14.25H11.5C13.29 14.25 14.75 12.79 14.75 11C14.75 10.59 15.09 10.25 15.5 10.25C15.91 10.25 16.25 10.59 16.25 11C16.25 13.62 14.12 15.75 11.5 15.75Z" fill="white"/> <path d="M15.5 11.75C13.98 11.75 12.75 10.52 12.75 9C12.75 7.48 13.98 6.25 15.5 6.25C17.02 6.25 18.25 7.48 18.25 9C18.25 10.52 17.02 11.75 15.5 11.75ZM15.5 7.75C14.81 7.75 14.25 8.31 14.25 9C14.25 9.69 14.81 10.25 15.5 10.25C16.19 10.25 16.75 9.69 16.75 9C16.75 8.31 16.19 7.75 15.5 7.75Z" fill="white"/> <path d="M8.5 17.75C6.98 17.75 5.75 16.52 5.75 15C5.75 13.48 6.98 12.25 8.5 12.25C10.02 12.25 11.25 13.48 11.25 15C11.25 16.52 10.02 17.75 8.5 17.75ZM8.5 13.75C7.81 13.75 7.25 14.31 7.25 15C7.25 15.69 7.81 16.25 8.5 16.25C9.19 16.25 9.75 15.69 9.75 15C9.75 14.31 9.19 13.75 8.5 13.75Z" fill="white"/> </g> <defs> <clipPath id="clip0_4482_15244"> <rect width="24" height="24" fill="white"/> </clipPath> </defs> </svg>
