<svg width="24" height="24" viewBox="0 0 24 24" fill="none" xmlns="http://www.w3.org/2000/svg"> <g clip-path="url(#clip0_4482_15243)"> <path d="M5.88965 17.19C5.47965 17.19 5.13965 16.85 5.13965 16.44V2C5.13965 1.59 5.47965 1.25 5.88965 1.25C6.29965 1.25 6.63965 1.59 6.63965 2V16.44C6.63965 16.85 6.29965 17.19 5.88965 17.19Z" fill="white"/> <path d="M18.1101 8.31C16.1601 8.31 14.5801 6.73 14.5801 4.78C14.5801 2.83 16.1601 1.25 18.1101 1.25C20.0601 1.25 21.6401 2.83 21.6401 4.78C21.6401 6.73 20.0601 8.31 18.1101 8.31ZM18.1101 2.75C16.9901 2.75 16.0801 3.66 16.0801 4.78C16.0801 5.9 16.9901 6.81 18.1101 6.81C19.2301 6.81 20.1401 5.9 20.1401 4.78C20.1401 3.66 19.2301 2.75 18.1101 2.75Z" fill="white"/> <path d="M5.89035 22.7504C3.95035 22.7504 2.36035 21.1704 2.36035 19.2204C2.36035 17.2704 3.94035 15.6904 5.89035 15.6904C7.84035 15.6904 9.42035 17.2704 9.42035 19.2204C9.42035 21.1704 7.84035 22.7504 5.89035 22.7504ZM5.89035 17.1904C4.77035 17.1904 3.86035 18.1004 3.86035 19.2204C3.86035 20.3404 4.77035 21.2504 5.89035 21.2504C7.01035 21.2504 7.92035 20.3404 7.92035 19.2204C7.92035 18.1004 7.01035 17.1904 5.89035 17.1904Z" fill="white"/> <path d="M13.1099 19.7496H8.66992C8.25992 19.7496 7.91992 19.4096 7.91992 18.9996C7.91992 18.5896 8.25992 18.2496 8.66992 18.2496H13.1099C15.4499 18.2496 17.3599 16.3396 17.3599 13.9996V7.55957C17.3599 7.14957 17.6999 6.80957 18.1099 6.80957C18.5199 6.80957 18.8599 7.14957 18.8599 7.55957V13.9996C18.8599 17.1696 16.2799 19.7496 13.1099 19.7496Z" fill="white"/> </g> <defs> <clipPath id="clip0_4482_15243"> <rect width="24" height="24" fill="white"/> </clipPath> </defs> </svg>
