<svg width="24" height="24" viewBox="0 0 24 24" fill="none" xmlns="http://www.w3.org/2000/svg"> <g clip-path="url(#clip0_4482_3255)"> <path d="M17 22.75H7C3.83 22.75 1.25 20.17 1.25 17V7C1.25 3.83 3.83 1.25 7 1.25H17C20.17 1.25 22.75 3.83 22.75 7V17C22.75 20.17 20.17 22.75 17 22.75ZM7 2.75C4.66 2.75 2.75 4.66 2.75 7V17C2.75 19.34 4.66 21.25 7 21.25H17C19.34 21.25 21.25 19.34 21.25 17V7C21.25 4.66 19.34 2.75 17 2.75H7Z" fill="white"/> <path d="M10.5198 15.75H7.2998C6.8898 15.75 6.5498 15.41 6.5498 15C6.5498 13.36 7.7298 12.56 8.5898 11.98C9.3398 11.47 9.7698 11.15 9.7698 10.61C9.7698 10.14 9.37981 9.75 8.90981 9.75C8.43981 9.75 8.0498 10.13 8.0498 10.61C8.0498 11.02 7.7098 11.36 7.2998 11.36C6.8898 11.36 6.5498 11.02 6.5498 10.61C6.5498 9.31 7.60981 8.25 8.90981 8.25C10.2098 8.25 11.2698 9.31 11.2698 10.61C11.2698 11.97 10.2498 12.66 9.4398 13.22C8.8998 13.59 8.4898 13.88 8.2598 14.25H10.5198C10.9298 14.25 11.2698 14.59 11.2698 15C11.2698 15.41 10.9398 15.75 10.5198 15.75Z" fill="white"/> <path d="M16.69 15.47C16.48 15.47 16.27 15.38 16.12 15.21L13.64 12.34C13.4 12.06 13.4 11.64 13.64 11.36L16.12 8.48004C16.39 8.17004 16.86 8.13004 17.18 8.40004C17.49 8.67004 17.53 9.14005 17.26 9.46005L15.2 11.85L17.26 14.23C17.53 14.54 17.5 15.02 17.18 15.29C17.04 15.41 16.87 15.47 16.69 15.47Z" fill="white"/> <path d="M13.1899 15.45C12.7799 15.45 12.4399 15.11 12.4399 14.7V9C12.4399 8.59 12.7799 8.25 13.1899 8.25C13.5999 8.25 13.9399 8.59 13.9399 9V14.7C13.9399 15.11 13.6099 15.45 13.1899 15.45Z" fill="white"/> </g> <defs> <clipPath id="clip0_4482_3255"> <rect width="24" height="24" fill="white"/> </clipPath> </defs> </svg>
