<svg width="24" height="24" viewBox="0 0 24 24" fill="none" xmlns="http://www.w3.org/2000/svg"> <g clip-path="url(#clip0_4418_7065)"> <path d="M22 9.75C21.59 9.75 21.25 9.41 21.25 9V7C21.25 4.42 19.58 2.75 17 2.75H7C4.42 2.75 2.75 4.42 2.75 7V9C2.75 9.41 2.41 9.75 2 9.75C1.59 9.75 1.25 9.41 1.25 9V7C1.25 3.56 3.56 1.25 7 1.25H17C20.44 1.25 22.75 3.56 22.75 7V9C22.75 9.41 22.41 9.75 22 9.75Z" fill="white"/> <path d="M17 22.75H7C3.56 22.75 1.25 20.44 1.25 17V15C1.25 14.59 1.59 14.25 2 14.25C2.41 14.25 2.75 14.59 2.75 15V17C2.75 19.58 4.42 21.25 7 21.25H17C19.58 21.25 21.25 19.58 21.25 17V15C21.25 14.59 21.59 14.25 22 14.25C22.41 14.25 22.75 14.59 22.75 15V17C22.75 20.44 20.44 22.75 17 22.75Z" fill="white"/> <path d="M12.0001 13.079C11.8701 13.079 11.7401 13.0489 11.6201 12.9789L6.32011 9.91894C5.96011 9.70894 5.84011 9.24897 6.05011 8.88897C6.26011 8.52897 6.72011 8.40895 7.07011 8.61895L11.9901 11.4689L16.8801 8.63897C17.2401 8.42897 17.7001 8.55893 17.9001 8.90893C18.1101 9.26893 17.9801 9.72896 17.6301 9.93896L12.3701 12.9789C12.2601 13.0389 12.1301 13.079 12.0001 13.079Z" fill="white"/> <path d="M12 18.5201C11.59 18.5201 11.25 18.1801 11.25 17.7701V12.3301C11.25 11.9201 11.59 11.5801 12 11.5801C12.41 11.5801 12.75 11.9201 12.75 12.3301V17.7701C12.75 18.1801 12.41 18.5201 12 18.5201Z" fill="white"/> <path d="M12.0002 18.7508C11.4202 18.7508 10.8502 18.6208 10.3902 18.3708L7.19023 16.5908C6.23023 16.0608 5.49023 14.7908 5.49023 13.6908V10.3008C5.49023 9.21077 6.24023 7.94081 7.19023 7.40081L10.3902 5.62078C11.3102 5.11078 12.6902 5.11078 13.6102 5.62078L16.8102 7.40081C17.7702 7.93081 18.5102 9.20077 18.5102 10.3008V13.6908C18.5102 14.7808 17.7602 16.0508 16.8102 16.5908L13.6102 18.3708C13.1502 18.6208 12.5802 18.7508 12.0002 18.7508ZM11.1202 6.94079L7.92023 8.72076C7.43023 8.99076 6.99023 9.75077 6.99023 10.3008V13.6908C6.99023 14.2508 7.43023 15.0008 7.92023 15.2708L11.1202 17.0508C11.5802 17.3008 12.4202 17.3008 12.8802 17.0508L16.0802 15.2708C16.5702 15.0008 17.0102 14.2408 17.0102 13.6908V10.3008C17.0102 9.74077 16.5702 8.99076 16.0802 8.72076L12.8802 6.94079C12.4202 6.69079 11.5802 6.69079 11.1202 6.94079Z" fill="white"/> </g> <defs> <clipPath id="clip0_4418_7065"> <rect width="24" height="24" fill="white"/> </clipPath> </defs> </svg>
