<svg width="24" height="24" viewBox="0 0 24 24" fill="none" xmlns="http://www.w3.org/2000/svg"> <g clip-path="url(#clip0_4418_7052)"> <path d="M15 22.75H9C3.57 22.75 1.25 20.43 1.25 15V9C1.25 3.57 3.57 1.25 9 1.25H15C20.43 1.25 22.75 3.57 22.75 9V15C22.75 20.43 20.43 22.75 15 22.75ZM9 2.75C4.39 2.75 2.75 4.39 2.75 9V15C2.75 19.61 4.39 21.25 9 21.25H15C19.61 21.25 21.25 19.61 21.25 15V9C21.25 4.39 19.61 2.75 15 2.75H9Z" fill="white"/> <path d="M12.0001 13.0807C11.8701 13.0807 11.7401 13.0507 11.6201 12.9807L6.32013 9.92068C5.96013 9.71068 5.84011 9.25068 6.05011 8.90068C6.26011 8.54068 6.72013 8.42068 7.07013 8.63068L11.9901 11.4807L16.8801 8.65068C17.2401 8.44068 17.7001 8.57068 17.9001 8.92068C18.1001 9.27068 17.9801 9.74068 17.6301 9.94068L12.3701 12.9807C12.2601 13.0407 12.1301 13.0807 12.0001 13.0807Z" fill="white"/> <path d="M12 18.5201C11.59 18.5201 11.25 18.1801 11.25 17.7701V12.3301C11.25 11.9201 11.59 11.5801 12 11.5801C12.41 11.5801 12.75 11.9201 12.75 12.3301V17.7701C12.75 18.1801 12.41 18.5201 12 18.5201Z" fill="white"/> <path d="M12.0002 18.7508C11.4202 18.7508 10.8503 18.6208 10.3903 18.3708L7.19025 16.5908C6.23025 16.0608 5.49023 14.7908 5.49023 13.6908V10.3008C5.49023 9.21078 6.24025 7.94078 7.19025 7.40078L10.3903 5.62078C11.3103 5.11078 12.6902 5.11078 13.6102 5.62078L16.8102 7.40078C17.7702 7.93078 18.5103 9.20078 18.5103 10.3008V13.6908C18.5103 14.7808 17.7602 16.0508 16.8102 16.5908L13.6102 18.3708C13.1502 18.6308 12.5802 18.7508 12.0002 18.7508ZM12.0002 6.75078C11.6702 6.75078 11.3502 6.81078 11.1202 6.94078L7.92026 8.72078C7.43026 8.99078 6.99023 9.75078 6.99023 10.3008V13.6908C6.99023 14.2508 7.43026 15.0008 7.92026 15.2708L11.1202 17.0508C11.5802 17.3108 12.4202 17.3108 12.8802 17.0508L16.0802 15.2708C16.5702 15.0008 17.0103 14.2408 17.0103 13.6908V10.3008C17.0103 9.74078 16.5702 8.99078 16.0802 8.72078L12.8802 6.94078C12.6502 6.81078 12.3302 6.75078 12.0002 6.75078Z" fill="white"/> </g> <defs> <clipPath id="clip0_4418_7052"> <rect width="24" height="24" fill="white"/> </clipPath> </defs> </svg>
