<svg width="24" height="24" viewBox="0 0 24 24" fill="none" xmlns="http://www.w3.org/2000/svg"> <g clip-path="url(#clip0_2085_381748)"> <path d="M15.08 16.64C14.67 16.64 14.33 16.3 14.33 15.89C14.33 15.48 14.67 15.14 15.08 15.14C15.29 15.14 15.49 15.06 15.64 14.91C15.79 14.76 15.87 14.56 15.87 14.35V13.58C15.87 12.99 16.17 12.44 16.67 12.11C17.17 11.79 17.79 11.74 18.33 11.98L21.26 13.28V4.69004L18.33 5.95004C17.79 6.19004 17.17 6.14004 16.67 5.82004C16.17 5.50004 15.87 4.95004 15.87 4.35004V3.58004C15.87 3.37004 15.79 3.17004 15.64 3.02004C15.49 2.87004 15.29 2.79004 15.08 2.79004H3.54C3.33 2.79004 3.13 2.87004 2.98 3.02004C2.83 3.17004 2.75 3.37004 2.75 3.58004V12.04C2.75 12.45 2.41 12.79 2 12.79C1.59 12.79 1.25 12.45 1.25 12.04V3.58004C1.25 2.97004 1.49 2.39004 1.92 1.96004C2.35 1.53004 2.93 1.29004 3.54 1.29004H15.08C15.68 1.29004 16.27 1.53004 16.7 1.96004C17.13 2.39004 17.37 2.97004 17.37 3.58004V4.35004C17.37 4.47004 17.44 4.53004 17.48 4.56004C17.52 4.59004 17.61 4.63004 17.72 4.58004L20.65 3.28004C20.91 3.18004 21.16 3.15004 21.41 3.17004C21.66 3.20004 21.89 3.29004 22.1 3.43004C22.3 3.57004 22.47 3.76004 22.58 3.98004C22.69 4.20004 22.75 4.45004 22.75 4.69004V13.24C22.75 13.48 22.69 13.73 22.58 13.94C22.46 14.16 22.3 14.35 22.09 14.49C21.89 14.63 21.65 14.72 21.4 14.75C21.16 14.78 20.91 14.75 20.68 14.66L17.71 13.34C17.6 13.29 17.51 13.34 17.47 13.36C17.43 13.39 17.36 13.45 17.36 13.57V14.34C17.36 14.94 17.12 15.53 16.69 15.96C16.26 16.39 15.67 16.63 15.07 16.63L15.08 16.64Z" fill="white"/> <path d="M3.87982 22.7502C2.73982 22.7502 1.64982 22.0102 1.29982 21.0002C1.15982 20.6102 1.36982 20.1802 1.75982 20.0402C2.14982 19.9002 2.57982 20.1102 2.71982 20.5002C2.86982 20.9202 3.37982 21.2502 3.88982 21.2502C4.50982 21.2502 5.01982 20.7402 5.01982 20.1202V19.8102C5.01982 19.1902 4.50982 18.6802 3.88982 18.6802C3.86982 18.6802 3.84982 18.6802 3.82982 18.6802C3.41982 18.6802 3.07982 18.3402 3.07982 17.9302C3.07982 17.5202 3.41982 17.1802 3.82982 17.1802C4.30982 17.1802 4.70982 16.7902 4.70982 16.3002V16.0502C4.70982 15.6002 4.33982 15.2402 3.89982 15.2402C3.63982 15.2402 3.39982 15.3602 3.24982 15.5702C2.99982 15.9002 2.52982 15.9702 2.19982 15.7202C1.86982 15.4702 1.79982 15.0002 2.04982 14.6702C2.48982 14.0902 3.17982 13.7402 3.89982 13.7402C5.17982 13.7402 6.20982 14.7802 6.20982 16.0502V16.3002C6.20982 16.8902 5.98982 17.4302 5.63982 17.8502C6.18982 18.3302 6.52982 19.0302 6.52982 19.8102V20.1202C6.52982 21.5702 5.34982 22.7502 3.89982 22.7502H3.87982Z" fill="white"/> <path d="M9.31 22.7502H8.25C7.84 22.7502 7.5 22.4102 7.5 22.0002V14.4902C7.5 14.0802 7.84 13.7402 8.25 13.7402H9.31C11.21 13.7402 12.75 15.2802 12.75 17.1802V19.3102C12.75 21.2102 11.21 22.7502 9.31 22.7502ZM8.99 21.2502H9.3C10.37 21.2502 11.24 20.3802 11.24 19.3102V17.1802C11.24 16.1102 10.37 15.2402 9.3 15.2402H8.99V21.2502Z" fill="white"/> </g> <defs> <clipPath id="clip0_2085_381748"> <rect width="24" height="24" fill="white"/> </clipPath> </defs> </svg>
