<svg width="24" height="24" viewBox="0 0 24 24" fill="none" xmlns="http://www.w3.org/2000/svg"> <g clip-path="url(#clip0_4482_7729)"> <path d="M12.0004 8.31C7.36035 8.31 2.36035 7.21 2.36035 4.78C2.36035 2.35 7.36035 1.25 12.0004 1.25C16.6404 1.25 21.6404 2.35 21.6404 4.78C21.6404 7.21 16.6404 8.31 12.0004 8.31ZM12.0004 2.75C6.63035 2.75 3.86035 4.17 3.86035 4.78C3.86035 5.39 6.63035 6.81 12.0004 6.81C17.3704 6.81 20.1404 5.39 20.1404 4.78C20.1404 4.17 17.3704 2.75 12.0004 2.75Z" fill="white"/> <path d="M11.9999 22.75C10.4899 22.75 8.97988 22.6 7.47988 22.3C5.79988 21.93 4.52988 20.55 4.29988 18.86L2.37988 5.02L3.86988 4.81L5.78988 18.66C5.92988 19.73 6.73988 20.6 7.78988 20.83C10.5899 21.39 13.4299 21.39 16.2399 20.83C17.2799 20.6 18.0799 19.73 18.2299 18.66L20.1499 4.81L21.6399 5.02L19.7199 18.87C19.4899 20.56 18.2199 21.94 16.5499 22.3C15.0399 22.6 13.5299 22.75 12.0099 22.75H11.9999Z" fill="white"/> <path d="M12 16.71C11.59 16.71 11.25 16.37 11.25 15.96V12.63C11.25 12.22 11.59 11.88 12 11.88C12.41 11.88 12.75 12.22 12.75 12.63V15.96C12.75 16.37 12.41 16.71 12 16.71Z" fill="white"/> <path d="M13.6708 15.04H10.3408C9.93082 15.04 9.59082 14.7 9.59082 14.29C9.59082 13.88 9.93082 13.54 10.3408 13.54H13.6708C14.0808 13.54 14.4208 13.88 14.4208 14.29C14.4208 14.7 14.0808 15.04 13.6708 15.04Z" fill="white"/> </g> <defs> <clipPath id="clip0_4482_7729"> <rect width="24" height="24" fill="white"/> </clipPath> </defs> </svg>
