<svg width="24" height="24" viewBox="0 0 24 24" fill="none" xmlns="http://www.w3.org/2000/svg"> <g clip-path="url(#clip0_2085_390790)"> <path d="M12.0001 22.8606C11.5301 22.8606 11.1401 22.4806 11.1401 22.0006V2.00063C11.1401 1.53063 11.5201 1.14062 12.0001 1.14062C12.4801 1.14062 12.8601 1.52063 12.8601 2.00063V22.0006C12.8601 22.4706 12.4801 22.8606 12.0001 22.8606Z" fill="white"/> <path d="M22.0001 12.8001H2.00014C1.53014 12.8001 1.14014 12.4201 1.14014 11.9401C1.14014 11.4601 1.52014 11.0801 2.00014 11.0801H22.0001C22.4701 11.0801 22.8601 11.4601 22.8601 11.9401C22.8601 12.4201 22.4801 12.8001 22.0001 12.8001Z" fill="white"/> </g> <defs> <clipPath id="clip0_2085_390790"> <rect width="24" height="24" fill="white"/> </clipPath> </defs> </svg>
