<svg width="24" height="24" viewBox="0 0 24 24" fill="none" xmlns="http://www.w3.org/2000/svg"> <g clip-path="url(#clip0_4482_12401)"> <path d="M7.50979 15.3804C4.75979 15.3804 2.47979 13.2304 2.30979 10.4804C2.14979 7.89039 3.92979 5.60039 6.41979 5.07039C7.41979 2.50039 10.1198 0.910392 12.8898 1.31039C15.5798 1.71039 17.6598 3.91039 17.9698 6.57039C19.2698 6.78039 20.4298 7.57039 21.0998 8.73039C21.8898 10.1004 21.8898 11.8004 21.0998 13.1604C20.3098 14.5304 18.8398 15.3804 17.2598 15.3804H7.50979ZM12.0198 2.75039C10.0698 2.75039 8.27979 4.04039 7.69979 5.95039C7.60979 6.24039 7.36979 6.44039 7.06979 6.48039C5.11979 6.71039 3.67979 8.43039 3.79979 10.3904C3.91979 12.3504 5.54979 13.8804 7.50979 13.8804H17.2598C18.3098 13.8804 19.2798 13.3204 19.7998 12.4104C20.3198 11.5004 20.3198 10.3804 19.7998 9.48039C19.2798 8.57039 18.2998 8.01039 17.2598 8.01039C17.0598 8.01039 16.8698 7.93039 16.7298 7.79039C16.5898 7.65039 16.5098 7.46039 16.5098 7.26039C16.5098 5.04039 14.8698 3.12039 12.6698 2.80039C12.4498 2.77039 12.2298 2.75039 12.0198 2.75039Z" fill="white"/> <path d="M12 11.7C11.59 11.7 11.25 11.36 11.25 10.95V7.79004C11.25 7.38004 11.59 7.04004 12 7.04004C12.41 7.04004 12.75 7.38004 12.75 7.79004V10.95C12.75 11.36 12.41 11.7 12 11.7Z" fill="white"/> <path d="M13.5799 10.1201H10.4199C10.0099 10.1201 9.66992 9.78012 9.66992 9.37012C9.66992 8.96012 10.0099 8.62012 10.4199 8.62012H13.5799C13.9899 8.62012 14.3299 8.96012 14.3299 9.37012C14.3299 9.78012 13.9899 10.1201 13.5799 10.1201Z" fill="white"/> <path d="M11.9996 22.7503C10.4296 22.7503 9.13965 21.4703 9.13965 19.8903C9.13965 18.3103 10.4196 17.0303 11.9996 17.0303C13.5796 17.0303 14.8496 18.3103 14.8496 19.8903C14.8496 21.4703 13.5696 22.7503 11.9996 22.7503ZM11.9996 18.5403C11.2496 18.5403 10.6396 19.1503 10.6396 19.9003C10.6396 20.6503 11.2496 21.2603 11.9996 21.2603C12.7496 21.2603 13.3496 20.6503 13.3496 19.9003C13.3496 19.1503 12.7396 18.5403 11.9996 18.5403Z" fill="white"/> <path d="M20.4196 20.6406H14.0996C13.6896 20.6406 13.3496 20.3006 13.3496 19.8906C13.3496 19.4806 13.6896 19.1406 14.0996 19.1406H20.4196C20.8296 19.1406 21.1696 19.4806 21.1696 19.8906C21.1696 20.3006 20.8296 20.6406 20.4196 20.6406Z" fill="white"/> <path d="M9.90008 20.6406H3.58008C3.17008 20.6406 2.83008 20.3006 2.83008 19.8906C2.83008 19.4806 3.17008 19.1406 3.58008 19.1406H9.90008C10.3101 19.1406 10.6501 19.4806 10.6501 19.8906C10.6501 20.3006 10.3101 20.6406 9.90008 20.6406Z" fill="white"/> <path d="M12 18.5404C11.59 18.5404 11.25 18.2004 11.25 17.7904V14.6504C11.25 14.2404 11.59 13.9004 12 13.9004C12.41 13.9004 12.75 14.2404 12.75 14.6504V17.7904C12.75 18.2004 12.41 18.5404 12 18.5404Z" fill="white"/> </g> <defs> <clipPath id="clip0_4482_12401"> <rect width="24" height="24" fill="white"/> </clipPath> </defs> </svg>
