<svg width="24" height="24" viewBox="0 0 24 24" fill="none" xmlns="http://www.w3.org/2000/svg"> <g clip-path="url(#clip0_3111_19478)"> <path d="M17.5101 11.56C17.1101 11.56 16.7701 11.29 16.6901 10.9L16.4801 9.98001C16.3901 9.60001 16.1001 9.30001 15.7101 9.21001L14.7901 9.00001C14.4001 8.91001 14.1401 8.57001 14.1401 8.17001C14.1401 7.78001 14.4101 7.44001 14.7901 7.35001L15.7101 7.13001C16.0901 7.04001 16.3901 6.75001 16.4801 6.36001L16.6901 5.44001C16.7801 5.06001 17.1201 4.79001 17.5101 4.79001C17.9001 4.79001 18.2501 5.06001 18.3301 5.45001L18.5401 6.37001C18.6301 6.75001 18.9201 7.05001 19.3101 7.14001L20.2301 7.36001C20.6101 7.45001 20.8801 7.79001 20.8801 8.18001C20.8801 8.57001 20.6101 8.91001 20.2301 9.00001L19.3101 9.22001C18.9301 9.31001 18.6301 9.60001 18.5501 9.99001L18.3301 10.91C18.2401 11.29 17.9001 11.56 17.5101 11.56ZM16.9601 8.18001C17.1701 8.33001 17.3501 8.51001 17.5001 8.72001C17.6501 8.51001 17.8301 8.33001 18.0401 8.18001C17.8301 8.03001 17.6501 7.85001 17.5001 7.64001C17.3501 7.85001 17.1701 8.03001 16.9601 8.18001Z" fill="white"/> <path d="M15 22.75H9C3.57 22.75 1.25 20.43 1.25 15V9C1.25 3.57 3.57 1.25 9 1.25H13.1C13.51 1.25 13.85 1.59 13.85 2C13.85 2.41 13.51 2.75 13.1 2.75H9C4.39 2.75 2.75 4.39 2.75 9V15C2.75 19.61 4.39 21.25 9 21.25H15C19.61 21.25 21.25 19.61 21.25 15V10.79C21.25 10.38 21.59 10.04 22 10.04C22.41 10.04 22.75 10.38 22.75 10.79V15C22.75 20.43 20.43 22.75 15 22.75Z" fill="white"/> <path d="M12.0001 13.08C11.8701 13.08 11.7401 13.05 11.6201 12.98L6.32011 9.91C5.96011 9.7 5.84011 9.24 6.05011 8.89C6.26011 8.53 6.72011 8.41 7.07011 8.62L11.9901 11.47L13.7101 10.47C14.0701 10.26 14.5301 10.38 14.7301 10.74C14.9401 11.1 14.8201 11.56 14.4601 11.77L12.3601 12.99C12.2401 13.06 12.1101 13.09 11.9801 13.09L12.0001 13.08Z" fill="white"/> <path d="M12 18.52C11.59 18.52 11.25 18.18 11.25 17.77V12.32C11.25 11.91 11.59 11.57 12 11.57C12.41 11.57 12.75 11.91 12.75 12.32V17.77C12.75 18.18 12.41 18.52 12 18.52Z" fill="white"/> <path d="M12 18.76C11.42 18.76 10.85 18.63 10.39 18.38L7.18998 16.6C6.22998 16.08 5.47998 14.8 5.47998 13.7V10.31C5.47998 9.22 6.22998 7.95 7.18998 7.41L10.39 5.63C11.29 5.11 12.68 5.11 13.61 5.62C13.97 5.82 14.11 6.28 13.91 6.64C13.71 7 13.25 7.13 12.89 6.94C12.42 6.68 11.59 6.69 11.13 6.94L7.91998 8.72C7.42998 8.99 6.97998 9.75 6.97998 10.3V13.69C6.97998 14.25 7.41998 15.01 7.90998 15.27L11.11 17.05C11.57 17.3 12.41 17.3 12.87 17.05L16.07 15.27C16.56 15 17 14.24 17 13.69C17 13.28 17.34 12.94 17.75 12.94C18.16 12.94 18.5 13.28 18.5 13.69C18.5 14.78 17.75 16.05 16.79 16.59L13.59 18.37C13.13 18.62 12.57 18.76 12 18.76Z" fill="white"/> </g> <defs> <clipPath id="clip0_3111_19478"> <rect width="24" height="24" fill="white"/> </clipPath> </defs> </svg>
