<svg width="24" height="24" viewBox="0 0 24 24" fill="none" xmlns="http://www.w3.org/2000/svg"> <g clip-path="url(#clip0_3111_19471)"> <path d="M19.26 8.28C18.86 8.28 18.52 8.01 18.43 7.62L18.2 6.65C18.1 6.24 17.78 5.91 17.36 5.81L16.39 5.58C16 5.49 15.73 5.15 15.73 4.75C15.73 4.35 16 4.01 16.39 3.92L17.36 3.69C17.77 3.59 18.1 3.26 18.2 2.85L18.43 1.88C18.52 1.49 18.86 1.22 19.26 1.22C19.66 1.22 20 1.49 20.09 1.88L20.32 2.85C20.42 3.26 20.74 3.59 21.16 3.69L22.13 3.92C22.52 4.01 22.79 4.35 22.79 4.75C22.79 5.15 22.52 5.49 22.13 5.58L21.16 5.81C20.75 5.91 20.42 6.24 20.32 6.65L20.09 7.62C20 8 19.65 8.28 19.26 8.28ZM18.63 4.76C18.88 4.93 19.1 5.15 19.27 5.4C19.44 5.15 19.66 4.93 19.91 4.76C19.66 4.59 19.44 4.37 19.27 4.12C19.1 4.37 18.88 4.59 18.63 4.76Z" fill="white"/> <path d="M17 22.75H7C3.83 22.75 1.25 20.17 1.25 17V7C1.25 3.83 3.83 1.25 7 1.25H14.83C15.24 1.25 15.58 1.59 15.58 2C15.58 2.41 15.24 2.75 14.83 2.75H7C4.66 2.75 2.75 4.66 2.75 7V17C2.75 19.34 4.66 21.25 7 21.25H17C19.34 21.25 21.25 19.34 21.25 17V10.12C21.25 9.71 21.59 9.37 22 9.37C22.41 9.37 22.75 9.71 22.75 10.12V17C22.75 20.17 20.17 22.75 17 22.75Z" fill="white"/> <path d="M8.72021 16.77C7.73021 16.77 6.86021 16.08 6.61021 15.13C6.50021 14.73 6.74021 14.32 7.14021 14.21C7.54021 14.1 7.95021 14.34 8.06021 14.74C8.14021 15.04 8.42021 15.26 8.73021 15.26C9.12021 15.26 9.44021 14.94 9.44021 14.55C9.44021 14.25 9.18021 13.99 8.88021 13.99C8.47021 13.99 8.13021 13.65 8.13021 13.24C8.13021 12.83 8.47021 12.49 8.88021 12.49C9.18021 12.49 9.44021 12.23 9.44021 11.93C9.44021 11.53 9.12021 11.21 8.73021 11.21C8.42021 11.21 8.15021 11.42 8.06021 11.73C7.95021 12.13 7.54021 12.37 7.14021 12.26C6.74021 12.15 6.50021 11.74 6.61021 11.34C6.86021 10.4 7.73021 9.73 8.71021 9.72C9.94021 9.72 10.9302 10.72 10.9302 11.94C10.9302 12.44 10.7502 12.89 10.4602 13.25C10.7502 13.61 10.9302 14.06 10.9302 14.56C10.9302 15.78 9.94021 16.77 8.72021 16.77Z" fill="white"/> <path d="M14.53 16.76H12.96C12.55 16.76 12.21 16.42 12.21 16.01V10.45C12.21 10.04 12.55 9.70001 12.96 9.70001H14.53C16.12 9.70001 17.42 11 17.42 12.59V13.87C17.42 15.46 16.12 16.76 14.53 16.76ZM13.71 15.26H14.53C15.3 15.26 15.92 14.64 15.92 13.87V12.59C15.92 11.82 15.3 11.2 14.53 11.2H13.71V15.26Z" fill="white"/> </g> <defs> <clipPath id="clip0_3111_19471"> <rect width="24" height="24" fill="white"/> </clipPath> </defs> </svg>
