<svg width="24" height="24" viewBox="0 0 24 24" fill="none" xmlns="http://www.w3.org/2000/svg"> <g clip-path="url(#clip0_3111_19575)"> <path d="M9.17006 22.2C4.01006 22.2 1.81006 19.99 1.81006 14.83V9.16C1.81006 4.01 4.01006 1.81 9.17006 1.81H13.8901C14.3001 1.81 14.6401 2.15 14.6401 2.56C14.6401 2.97 14.3001 3.31 13.8901 3.31H9.17006C4.84006 3.31 3.31006 4.84 3.31006 9.17V14.84C3.31006 19.17 4.84006 20.7 9.17006 20.7C9.58006 20.7 9.92006 21.04 9.92006 21.45C9.92006 21.86 9.58006 22.2 9.17006 22.2Z" fill="white"/> <path d="M21.4399 13.69C21.0299 13.69 20.6899 13.35 20.6899 12.94V10.11C20.6899 9.69999 21.0299 9.35999 21.4399 9.35999C21.8499 9.35999 22.1899 9.69999 22.1899 10.11V12.94C22.1899 13.35 21.8499 13.69 21.4399 13.69Z" fill="white"/> <path d="M21.4399 10.86H17.6599C14.3999 10.86 13.1299 9.58999 13.1299 6.32999V2.54999C13.1299 2.24999 13.3099 1.96999 13.5899 1.85999C13.8699 1.74999 14.1899 1.80999 14.4099 2.01999L21.9699 9.57999C22.1799 9.78999 22.2499 10.12 22.1299 10.4C22.0099 10.68 21.7399 10.86 21.4399 10.86ZM14.6299 4.36999V6.33999C14.6299 8.73999 15.2499 9.36999 17.6599 9.36999H19.6299L14.6299 4.37999V4.36999Z" fill="white"/> <path d="M21.21 21.63C20.8 21.63 20.46 21.29 20.46 20.88V16.43C20.46 16.02 20.8 15.68 21.21 15.68C21.62 15.68 21.96 16.02 21.96 16.43V20.88C21.96 21.29 21.62 21.63 21.21 21.63Z" fill="white"/> <path d="M18.4 21.64C18.12 21.64 17.87 21.47 17.74 21.21L16.24 18.14L14.74 21.21C14.56 21.58 14.11 21.74 13.74 21.56C13.37 21.38 13.21 20.93 13.39 20.56L15.56 16.11C15.81 15.59 16.66 15.59 16.91 16.11L19.08 20.56C19.26 20.93 19.11 21.38 18.73 21.56C18.62 21.61 18.51 21.64 18.4 21.64Z" fill="white"/> <path d="M17.8801 20.61H14.6201C14.2101 20.61 13.8701 20.27 13.8701 19.86C13.8701 19.45 14.2101 19.11 14.6201 19.11H17.8801C18.2901 19.11 18.6301 19.45 18.6301 19.86C18.6301 20.27 18.2901 20.61 17.8801 20.61Z" fill="white"/> </g> <defs> <clipPath id="clip0_3111_19575"> <rect width="24" height="24" fill="white"/> </clipPath> </defs> </svg>
