<svg width="24" height="24" viewBox="0 0 24 24" fill="none" xmlns="http://www.w3.org/2000/svg"> <g clip-path="url(#clip0_3111_20043)"> <path d="M12.3 20.79H9.58996C5.17996 20.79 3.20996 18.82 3.20996 14.41V9.58001C3.20996 5.17001 5.17996 3.20001 9.58996 3.20001H14.42C18.83 3.20001 20.8 5.17001 20.8 9.58001V11.99C20.8 12.4 20.46 12.74 20.05 12.74C19.64 12.74 19.3 12.4 19.3 11.99V9.58001C19.3 5.98001 18.02 4.70001 14.42 4.70001H9.58996C5.98996 4.70001 4.70996 5.98001 4.70996 9.58001V14.41C4.70996 18.01 5.98996 19.29 9.58996 19.29H12.3C12.71 19.29 13.05 19.63 13.05 20.04C13.05 20.45 12.71 20.79 12.3 20.79Z" fill="white"/> <path d="M7.98975 4.71C7.57975 4.71 7.23975 4.37 7.23975 3.96V1.94C7.23975 1.53 7.57975 1.19 7.98975 1.19C8.39975 1.19 8.73975 1.53 8.73975 1.94V3.95C8.73975 4.36 8.39975 4.7 7.98975 4.7V4.71Z" fill="white"/> <path d="M12 4.71C11.59 4.71 11.25 4.37 11.25 3.96V1.94C11.25 1.53 11.59 1.19 12 1.19C12.41 1.19 12.75 1.53 12.75 1.94V3.95C12.75 4.36 12.41 4.7 12 4.7V4.71Z" fill="white"/> <path d="M16.02 4.71C15.61 4.71 15.27 4.37 15.27 3.96V1.94C15.27 1.53 15.61 1.19 16.02 1.19C16.43 1.19 16.77 1.53 16.77 1.94V3.95C16.77 4.36 16.43 4.7 16.02 4.7V4.71Z" fill="white"/> <path d="M22.0598 8.72998H20.0498C19.6398 8.72998 19.2998 8.38998 19.2998 7.97998C19.2998 7.56998 19.6398 7.22998 20.0498 7.22998H22.0598C22.4698 7.22998 22.8098 7.56998 22.8098 7.97998C22.8098 8.38998 22.4698 8.72998 22.0598 8.72998Z" fill="white"/> <path d="M7.98975 22.81C7.57975 22.81 7.23975 22.47 7.23975 22.06V20.05C7.23975 19.64 7.57975 19.3 7.98975 19.3C8.39975 19.3 8.73975 19.64 8.73975 20.05V22.06C8.73975 22.47 8.39975 22.81 7.98975 22.81Z" fill="white"/> <path d="M3.95994 8.72998H1.93994C1.52994 8.72998 1.18994 8.38998 1.18994 7.97998C1.18994 7.56998 1.52994 7.22998 1.93994 7.22998H3.94994C4.35994 7.22998 4.69994 7.56998 4.69994 7.97998C4.69994 8.38998 4.35994 8.72998 3.94994 8.72998H3.95994Z" fill="white"/> <path d="M3.95994 12.75H1.93994C1.52994 12.75 1.18994 12.41 1.18994 12C1.18994 11.59 1.52994 11.25 1.93994 11.25H3.94994C4.35994 11.25 4.69994 11.59 4.69994 12C4.69994 12.41 4.35994 12.75 3.94994 12.75H3.95994Z" fill="white"/> <path d="M3.95994 16.77H1.93994C1.52994 16.77 1.18994 16.43 1.18994 16.02C1.18994 15.61 1.52994 15.27 1.93994 15.27H3.94994C4.35994 15.27 4.69994 15.61 4.69994 16.02C4.69994 16.43 4.35994 16.77 3.94994 16.77H3.95994Z" fill="white"/> <path d="M18.55 21.96C18.15 21.96 17.81 21.7 17.72 21.31L17.49 20.34C17.39 19.92 17.07 19.6 16.65 19.5L15.68 19.27C15.29 19.18 15.02 18.84 15.02 18.44C15.02 18.04 15.29 17.7 15.68 17.61L16.65 17.38C17.07 17.28 17.39 16.96 17.49 16.54L17.72 15.57C17.81 15.18 18.15 14.91 18.55 14.91C18.95 14.91 19.29 15.18 19.38 15.57L19.61 16.54C19.71 16.96 20.03 17.28 20.45 17.38L21.42 17.61C21.8 17.7 22.08 18.04 22.08 18.43C22.08 18.83 21.81 19.17 21.42 19.26L20.45 19.49C20.03 19.59 19.71 19.91 19.61 20.33L19.38 21.3C19.29 21.69 18.95 21.96 18.55 21.96ZM17.91 18.45C18.16 18.62 18.38 18.84 18.55 19.09C18.72 18.84 18.94 18.62 19.19 18.45C18.94 18.28 18.72 18.06 18.55 17.81C18.38 18.06 18.16 18.28 17.91 18.45Z" fill="white"/> <path d="M13.9301 16.38H10.1201C8.7301 16.38 7.6001 15.25 7.6001 13.86V10.05C7.6001 8.66003 8.7301 7.53003 10.1201 7.53003H13.9301C15.3201 7.53003 16.4501 8.66003 16.4501 10.05V13.86C16.4501 15.25 15.3201 16.38 13.9301 16.38ZM10.1201 9.02003C9.5601 9.02003 9.1001 9.48003 9.1001 10.04V13.85C9.1001 14.41 9.5601 14.87 10.1201 14.87H13.9301C14.4901 14.87 14.9501 14.41 14.9501 13.85V10.04C14.9501 9.48003 14.4901 9.02003 13.9301 9.02003H10.1201Z" fill="white"/> </g> <defs> <clipPath id="clip0_3111_20043"> <rect width="24" height="24" fill="white"/> </clipPath> </defs> </svg>
