<svg width="24" height="24" viewBox="0 0 24 24" fill="none" xmlns="http://www.w3.org/2000/svg"> <g clip-path="url(#clip0_3111_19199)"> <path d="M19.1697 8.94C18.7997 8.94 18.4097 8.66 18.3097 8.26L18.0297 7.03C17.8897 6.42 17.4297 5.95 16.8197 5.81L15.5897 5.52C15.1897 5.43 14.9097 5.07 14.9197 4.66C14.9197 4.25 15.1997 3.9 15.5997 3.81L16.8397 3.53C17.4397 3.39 17.9197 2.92 18.0597 2.32L18.3497 1.09C18.4397 0.689998 18.7997 0.419998 19.1997 0.419998C19.6097 0.419998 19.9597 0.699998 20.0497 1.1L20.3297 2.33C20.4697 2.94 20.9297 3.41 21.5397 3.55L22.7697 3.84C23.1697 3.94 23.4497 4.29 23.4397 4.7C23.4297 5.11 23.1597 5.46 22.7597 5.55L21.5297 5.83C20.9197 5.97 20.4497 6.43 20.3097 7.04L20.0197 8.27C19.9297 8.67 19.5697 8.94 19.1697 8.94ZM17.9897 4.67C18.4897 4.95 18.8997 5.37 19.1797 5.87C19.4597 5.37 19.8797 4.96 20.3797 4.68C19.8797 4.4 19.4697 3.98 19.1897 3.48C18.9097 3.98 18.4897 4.39 17.9897 4.67Z" fill="white"/> <path d="M11.3998 23.6C10.7098 23.6 10.0498 23.25 9.58984 22.63L8.06984 20.61C8.06984 20.61 7.90984 20.51 7.85984 20.51H7.35984C3.14984 20.51 0.549836 19.37 0.549836 13.7V8.65C0.539836 4.18 2.89984 1.83 7.35984 1.83H12.4098C12.8198 1.83 13.1598 2.17 13.1598 2.58C13.1598 2.99 12.8198 3.33 12.4098 3.33H7.35984C3.73984 3.33 2.04984 5.02 2.04984 8.64V13.69C2.04984 18.26 3.61984 19 7.35984 19H7.86984C8.38984 19 8.97984 19.3 9.27984 19.71L10.7898 21.72C11.1398 22.19 11.6598 22.19 12.0198 21.72L13.5398 19.7C13.8798 19.26 14.3998 19 14.9498 19H15.4598C19.0798 19 20.7698 17.31 20.7698 13.69V11.58C20.7698 11.17 21.1098 10.83 21.5198 10.83C21.9298 10.83 22.2698 11.17 22.2698 11.58V13.69C22.2698 18.15 19.9098 20.5 15.4598 20.5H14.9498C14.8698 20.5 14.7898 20.54 14.7398 20.61L13.2298 22.63C12.7698 23.24 12.0898 23.6 11.3998 23.6Z" fill="white"/> <path d="M7.67 14.48C7.48 14.48 7.29 14.41 7.14 14.26L5.28 12.4C4.99 12.11 4.99 11.63 5.28 11.34L7.14 9.48C7.43 9.19 7.91 9.19 8.2 9.48C8.49 9.77 8.49 10.25 8.2 10.54L6.87 11.87L8.2 13.2C8.49 13.49 8.49 13.97 8.2 14.26C8.05 14.41 7.86 14.48 7.67 14.48Z" fill="white"/> <path d="M15.1201 14.48C14.9301 14.48 14.7401 14.41 14.5901 14.26C14.3001 13.97 14.3001 13.49 14.5901 13.2L15.9201 11.87L14.5901 10.54C14.3001 10.25 14.3001 9.77 14.5901 9.48C14.8801 9.19 15.3601 9.19 15.6501 9.48L17.5101 11.34C17.6501 11.48 17.7301 11.67 17.7301 11.87C17.7301 12.07 17.6501 12.26 17.5101 12.4L15.6501 14.26C15.5001 14.41 15.3101 14.48 15.1201 14.48Z" fill="white"/> <path d="M10.4696 14.79C10.3696 14.79 10.2696 14.77 10.1696 14.73C9.7896 14.57 9.6096 14.13 9.7796 13.74L11.6396 9.4C11.7996 9.02 12.2396 8.84 12.6296 9.01C13.0096 9.17 13.1896 9.61 13.0196 10L11.1596 14.34C11.0396 14.62 10.7596 14.79 10.4696 14.79Z" fill="white"/> </g> <defs> <clipPath id="clip0_3111_19199"> <rect width="24" height="24" fill="white"/> </clipPath> </defs> </svg>
