<svg width="24" height="24" viewBox="0 0 24 24" fill="none" xmlns="http://www.w3.org/2000/svg"> <g clip-path="url(#clip0_3111_19531)"> <path d="M6.86992 21.5C6.46992 21.5 6.13992 21.23 6.04992 20.84L5.80992 19.8C5.69992 19.34 5.32992 18.97 4.86992 18.86L3.82992 18.62C3.43992 18.53 3.16992 18.19 3.16992 17.79C3.16992 17.39 3.43992 17.04 3.82992 16.95L4.86992 16.71C5.32992 16.6 5.69992 16.24 5.80992 15.77L6.04992 14.73C6.13992 14.34 6.47992 14.07 6.87992 14.07C7.27992 14.07 7.61992 14.34 7.71992 14.73L7.95992 15.77C8.06992 16.24 8.42992 16.6 8.89992 16.71L9.93992 16.95C10.3299 17.04 10.5999 17.39 10.5999 17.79C10.5999 18.19 10.3299 18.53 9.92992 18.62L8.88992 18.86C8.41992 18.97 8.05992 19.33 7.94992 19.8L7.70992 20.84C7.61992 21.23 7.26992 21.5 6.86992 21.5ZM6.09992 17.78C6.40992 17.98 6.67992 18.25 6.87992 18.56C7.07992 18.25 7.34992 17.98 7.65992 17.78C7.34992 17.58 7.07992 17.31 6.87992 17C6.67992 17.31 6.40992 17.58 6.09992 17.78Z" fill="white"/> <path d="M19.9098 20.41H12.2498C11.8398 20.41 11.4998 20.07 11.4998 19.66C11.4998 19.25 11.8398 18.91 12.2498 18.91H19.1598V9.7C19.1598 5.86 18.3798 5.09 14.5498 5.09H5.33984V12.78C5.33984 13.19 4.99984 13.53 4.58984 13.53C4.17984 13.53 3.83984 13.2 3.83984 12.78V4.34C3.83984 3.93 4.17984 3.59 4.58984 3.59H14.5498C19.2298 3.59 20.6598 5.02 20.6598 9.7V19.66C20.6598 20.07 20.3198 20.41 19.9098 20.41Z" fill="white"/> <path d="M4.58984 5.09C4.17984 5.09 3.83984 4.75 3.83984 4.34V1.06C3.83984 0.649998 4.17984 0.309998 4.58984 0.309998C4.99984 0.309998 5.33984 0.649998 5.33984 1.06V4.34C5.33984 4.75 4.99984 5.09 4.58984 5.09Z" fill="white"/> <path d="M4.59006 5.09H1.31006C0.900059 5.09 0.560059 4.75 0.560059 4.34C0.560059 3.93 0.900059 3.59 1.31006 3.59H4.59006C5.00006 3.59 5.34006 3.93 5.34006 4.34C5.34006 4.75 5.00006 5.09 4.59006 5.09Z" fill="white"/> <path d="M19.9102 23.69C19.5002 23.69 19.1602 23.35 19.1602 22.94V19.66C19.1602 19.25 19.5002 18.91 19.9102 18.91C20.3202 18.91 20.6602 19.25 20.6602 19.66V22.94C20.6602 23.35 20.3202 23.69 19.9102 23.69Z" fill="white"/> <path d="M23.1999 20.41H19.9199C19.5099 20.41 19.1699 20.07 19.1699 19.66C19.1699 19.25 19.5099 18.91 19.9199 18.91H23.1999C23.6099 18.91 23.9499 19.25 23.9499 19.66C23.9499 20.07 23.6099 20.41 23.1999 20.41Z" fill="white"/> </g> <defs> <clipPath id="clip0_3111_19531"> <rect width="24" height="24" fill="white"/> </clipPath> </defs> </svg>
