<svg width="24" height="24" viewBox="0 0 24 24" fill="none" xmlns="http://www.w3.org/2000/svg"> <g clip-path="url(#clip0_3111_19763)"> <path d="M18.8604 9.18998C18.4604 9.18998 18.1204 8.90998 18.0304 8.50998L17.7904 7.47998C17.6804 7.01998 17.3204 6.65998 16.8604 6.54998L15.8304 6.30998C15.4404 6.21998 15.1704 5.87998 15.1704 5.47998C15.1704 5.07998 15.4404 4.73998 15.8304 4.64998L16.8604 4.40998C17.3204 4.29998 17.6804 3.93998 17.7904 3.47998L18.0304 2.44998C18.1204 2.05998 18.4704 1.78998 18.8604 1.78998C19.2604 1.78998 19.6004 2.06998 19.6904 2.45998L19.9304 3.48998C20.0404 3.95998 20.3904 4.30998 20.8604 4.41998L21.9004 4.65998C22.2904 4.74998 22.5604 5.09998 22.5604 5.49998C22.5604 5.89998 22.2904 6.23998 21.9004 6.32998L20.8604 6.56998C20.4004 6.67998 20.0404 7.02998 19.9304 7.49998L19.6904 8.52998C19.6004 8.91998 19.2604 9.18998 18.8604 9.18998ZM18.1004 5.47998C18.4104 5.67998 18.6704 5.94998 18.8704 6.24998C19.0704 5.93998 19.3404 5.67998 19.6404 5.47998C19.3304 5.27998 19.0704 5.01998 18.8704 4.70998C18.6704 5.01998 18.4004 5.27998 18.1004 5.47998Z" fill="white"/> <path d="M3.10018 22.23C2.18018 22.23 1.43018 21.48 1.43018 20.56V8.55C1.43018 4.42 3.60018 2.25 7.72018 2.25H13.2602C13.6702 2.25 14.0102 2.59 14.0102 3C14.0102 3.41 13.6702 3.75 13.2602 3.75H7.72018C4.45018 3.75 2.93018 5.27 2.93018 8.54V20.55C2.93018 20.64 3.01018 20.72 3.10018 20.72H15.1102C18.3802 20.72 19.9002 19.2 19.9002 15.93V11.2C19.9002 10.79 20.2402 10.45 20.6502 10.45C21.0602 10.45 21.4002 10.79 21.4002 11.2V15.93C21.4002 20.05 19.2202 22.22 15.1102 22.22L3.10018 22.23Z" fill="white"/> <path d="M14.9703 10.68H6.80029C6.39029 10.68 6.05029 10.34 6.05029 9.92999C6.05029 9.51999 6.39029 9.17999 6.80029 9.17999H14.9703C15.3803 9.17999 15.7203 9.51999 15.7203 9.92999C15.7203 10.34 15.3803 10.68 14.9703 10.68Z" fill="white"/> <path d="M12.19 15.3H6.79004C6.38004 15.3 6.04004 14.96 6.04004 14.55C6.04004 14.14 6.38004 13.8 6.79004 13.8H12.19C12.6 13.8 12.94 14.14 12.94 14.55C12.94 14.96 12.6 15.3 12.19 15.3Z" fill="white"/> </g> <defs> <clipPath id="clip0_3111_19763"> <rect width="24" height="24" fill="white"/> </clipPath> </defs> </svg>
