<svg width="24" height="24" viewBox="0 0 24 24" fill="none" xmlns="http://www.w3.org/2000/svg"> <g clip-path="url(#clip0_3111_19076)"> <path d="M19.0803 23.09C18.6703 23.09 18.3303 22.82 18.2303 22.42L17.9603 21.26C17.8303 20.72 17.4003 20.29 16.8603 20.16L15.7003 19.89C15.3103 19.8 15.0303 19.45 15.0303 19.04C15.0303 18.63 15.3103 18.28 15.7003 18.19L16.8503 17.92C17.3903 17.79 17.8303 17.36 17.9503 16.82L18.2203 15.67C18.3103 15.27 18.6803 15.04 19.0703 15C19.4803 15 19.8203 15.28 19.9103 15.67L20.1803 16.82C20.3103 17.37 20.7303 17.79 21.2803 17.92L22.4403 18.19C22.8303 18.28 23.1103 18.63 23.1103 19.04C23.1103 19.45 22.8303 19.79 22.4403 19.89L21.2903 20.16C20.7403 20.29 20.3203 20.71 20.1903 21.26L19.9203 22.41C19.8303 22.8 19.4803 23.09 19.0803 23.09ZM18.0603 19.05C18.4803 19.3 18.8303 19.65 19.0803 20.07C19.3303 19.65 19.6803 19.3 20.1003 19.05C19.6803 18.8 19.3303 18.45 19.0803 18.03C18.8303 18.45 18.4803 18.8 18.0603 19.05Z" fill="white"/> <path d="M12.8901 21.77L6.52012 21.76C3.41012 21.76 0.870117 19.23 0.870117 16.11V6.56C0.880117 3.44 3.41012 0.91 6.52012 0.91H16.0801C19.1901 0.91 21.7301 3.44 21.7301 6.56V13.08C21.7301 13.49 21.3901 13.83 20.9801 13.83C20.5701 13.83 20.2301 13.49 20.2301 13.08V6.56C20.2301 4.27 18.3701 2.41 16.0801 2.41H6.52012C4.23012 2.41 2.37012 4.27 2.37012 6.56V16.12C2.37012 18.41 4.23012 20.27 6.52012 20.27H12.8901C13.3001 20.27 13.6401 20.61 13.6401 21.02C13.6401 21.43 13.3001 21.77 12.8901 21.77Z" fill="white"/> <path d="M7.86029 15.53C7.67029 15.53 7.48029 15.46 7.33029 15.31C7.04029 15.02 7.04029 14.54 7.33029 14.25L14.2103 7.37C14.5003 7.08 14.9803 7.08 15.2703 7.37C15.5603 7.66 15.5603 8.14 15.2703 8.43L8.39029 15.31C8.24029 15.46 8.05029 15.53 7.86029 15.53Z" fill="white"/> <path d="M7.92992 8.85C7.37992 8.85 6.91992 8.4 6.91992 7.85C6.91992 7.3 7.35992 6.85 7.90992 6.85C8.45992 6.85 8.92992 7.3 8.92992 7.85C8.92992 8.4 8.47992 8.85 7.92992 8.85Z" fill="white"/> <path d="M14.6999 15.82C14.1499 15.82 13.6899 15.37 13.6899 14.82C13.6899 14.27 14.1299 13.82 14.6799 13.82C15.2299 13.82 15.6999 14.27 15.6999 14.82C15.6999 15.37 15.2499 15.82 14.6999 15.82Z" fill="white"/> </g> <defs> <clipPath id="clip0_3111_19076"> <rect width="24" height="24" fill="white"/> </clipPath> </defs> </svg>
