<svg width="24" height="24" viewBox="0 0 24 24" fill="none" xmlns="http://www.w3.org/2000/svg"> <g clip-path="url(#clip0_3111_19362)"> <path d="M18.5898 23.73C18.1898 23.73 17.8498 23.45 17.7598 23.06L17.5198 22C17.4098 21.52 17.0398 21.14 16.5598 21.03L15.4998 20.78C15.1098 20.69 14.8398 20.34 14.8398 19.94C14.8398 19.54 15.1098 19.2 15.5098 19.11L16.5798 18.87C17.0698 18.76 17.4398 18.39 17.5498 17.91L17.7998 16.85C17.8898 16.46 18.2198 16.22 18.6398 16.19C19.0398 16.19 19.3798 16.47 19.4698 16.86L19.7098 17.92C19.8198 18.4 20.1898 18.78 20.6698 18.89L21.7298 19.14C22.1198 19.23 22.3898 19.57 22.3898 19.98C22.3898 20.39 22.1198 20.73 21.7198 20.82L20.6598 21.06C20.1698 21.17 19.7998 21.54 19.6898 22.02L19.4398 23.08C19.3498 23.47 18.9858 23.73 18.5858 23.73L18.5898 23.73ZM17.7798 19.95C18.1098 20.16 18.3898 20.45 18.5998 20.78C18.8198 20.45 19.0998 20.17 19.4298 19.96C19.0998 19.75 18.8198 19.46 18.6098 19.13C18.3898 19.46 18.1098 19.74 17.7798 19.95Z" fill="white"/> <path d="M21.3597 8.54001H2.48975C2.07975 8.54001 1.73975 8.20001 1.73975 7.79001C1.73975 7.38001 2.07975 7.04001 2.48975 7.04001H21.3597C21.7697 7.04001 22.1097 7.38001 22.1097 7.79001C22.1097 8.20001 21.7697 8.54001 21.3597 8.54001Z" fill="white"/> <path d="M21.3597 7.04001H2.48975V8.54001H21.3597V7.04001Z" fill="white"/> <path d="M10.3597 14.04L8.32975 12.04C8.03975 11.75 7.55975 11.75 7.26975 12.04C6.97975 12.33 6.97975 12.81 7.26975 13.1L9.06975 14.89L7.26975 16.68C6.97975 16.97 6.97975 17.45 7.26975 17.74C7.41975 17.89 7.60975 17.96 7.79975 17.96C7.98975 17.96 8.17975 17.89 8.32975 17.74L10.3597 15.72C10.5797 15.5 10.7097 15.2 10.7097 14.88C10.7097 14.56 10.5897 14.27 10.3597 14.04Z" fill="white"/> <path d="M7.30998 2.29001C4.23998 2.29001 1.72998 4.79001 1.72998 7.87001V17.2C1.72998 20.28 4.22998 22.78 7.30998 22.78H12.68C13.09 22.78 13.43 22.44 13.43 22.03C13.43 21.62 13.09 21.28 12.68 21.28H7.30998C5.05998 21.28 3.22998 19.45 3.22998 17.2V7.87001C3.22998 5.62001 5.05998 3.79001 7.30998 3.79001H16.64C18.89 3.79001 20.72 5.62001 20.72 7.87001V14.9C20.72 15.31 21.06 15.65 21.47 15.65C21.88 15.65 22.22 15.31 22.22 14.9V7.87001C22.22 4.80001 19.72 2.29001 16.64 2.29001H7.30998Z" fill="white"/> </g> <defs> <clipPath id="clip0_3111_19362"> <rect width="24" height="24" fill="white"/> </clipPath> </defs> </svg>
