<svg width="24" height="24" viewBox="0 0 24 24" fill="none" xmlns="http://www.w3.org/2000/svg"> <g clip-path="url(#clip0_3111_20141)"> <path d="M17.6499 9.96C17.2399 9.96 16.8999 9.68 16.8199 9.29L16.5799 8.29C16.4799 7.85 16.1099 7.49 15.6499 7.39L14.6099 7.16C14.2199 7.08 13.9399 6.73 13.9399 6.32C13.9399 5.91 14.2199 5.57 14.6199 5.49L15.6499 5.26C16.1099 5.16 16.4799 4.8 16.5799 4.36L16.8199 3.35C16.8999 2.97 17.2399 2.7 17.6499 2.69C18.0599 2.69 18.3999 2.96 18.4899 3.36L18.7299 4.36C18.8299 4.8 19.1999 5.16 19.6599 5.26L20.6999 5.49C21.0899 5.57 21.3699 5.91 21.3699 6.32C21.3699 6.73 21.0899 7.07 20.6999 7.16L19.6599 7.39C19.1999 7.49 18.8299 7.85 18.7299 8.29L18.4899 9.31C18.4099 9.69 18.0599 9.97 17.6599 9.97L17.6499 9.96ZM16.8999 6.32C17.1999 6.52 17.4499 6.77 17.6499 7.07C17.8499 6.78 18.1099 6.52 18.3999 6.32C18.0999 6.12 17.8499 5.87 17.6499 5.57C17.4499 5.86 17.1899 6.12 16.8999 6.32Z" fill="white"/> <path d="M10.2798 20.59C9.8098 20.59 9.4198 20.28 9.3298 19.82L8.8298 17.64C8.5398 16.36 7.5198 15.34 6.2398 15.05L4.0498 14.54C3.6098 14.44 3.2998 14.05 3.2998 13.59C3.2998 13.13 3.6098 12.73 4.0598 12.64L6.2398 12.14C7.5198 11.85 8.5398 10.83 8.8298 9.54999L9.3398 7.35999C9.4298 6.91999 9.8298 6.60999 10.2898 6.60999C10.7498 6.60999 11.1498 6.91999 11.2398 7.37999L11.7398 9.55999C12.0298 10.84 13.0498 11.86 14.3298 12.15L16.5198 12.66C16.9598 12.76 17.2698 13.15 17.2698 13.61C17.2698 14.07 16.9598 14.46 16.5098 14.56L14.3198 15.07C13.0398 15.36 12.0198 16.38 11.7298 17.66L11.2198 19.85C11.1298 20.29 10.7298 20.6 10.2698 20.6L10.2798 20.59ZM6.5798 13.59C8.4098 14.01 9.8598 15.47 10.2798 17.29C10.6998 15.46 12.1598 14.01 13.9798 13.59C12.1498 13.17 10.6998 11.71 10.2798 9.88999C9.8598 11.72 8.3998 13.17 6.5798 13.59Z" fill="white"/> </g> <defs> <clipPath id="clip0_3111_20141"> <rect width="24" height="24" fill="white"/> </clipPath> </defs> </svg>
