<svg width="24" height="24" viewBox="0 0 24 24" fill="none" xmlns="http://www.w3.org/2000/svg"> <g clip-path="url(#clip0_3111_18819)"> <path d="M6.88021 15.08C5.28021 15.08 3.97021 13.77 3.97021 12.17V3.52C3.97021 1.92 5.28021 0.610001 6.88021 0.610001H9.82021C10.4302 0.610001 11.0002 0.910001 11.3302 1.41L12.3102 2.84C12.3702 2.93 12.4702 2.98 12.5802 2.98H17.1402C17.1402 2.98 17.2302 2.98 17.2802 2.99C18.8302 3.06 20.0602 4.34 20.0602 5.9V12.16C20.0602 13.76 18.7602 15.07 17.1502 15.07L6.88021 15.08ZM6.88021 2.11C6.10021 2.11 5.47021 2.74 5.47021 3.52V12.17C5.47021 12.95 6.10021 13.58 6.88021 13.58H17.1502C17.9302 13.58 18.5602 12.95 18.5602 12.17V5.91C18.5602 5.13 17.9302 4.5 17.1502 4.5C17.1102 4.5 17.0702 4.5 17.0302 4.5H12.5802C11.9802 4.5 11.4202 4.2 11.0702 3.71L10.0902 2.27C10.0302 2.18 9.93021 2.13 9.82021 2.13L6.88021 2.11Z" fill="white"/> <path d="M12 16.2C11.59 16.2 11.25 15.86 11.25 15.45V14.35C11.25 13.94 11.59 13.6 12 13.6C12.41 13.6 12.75 13.94 12.75 14.35V15.45C12.75 15.86 12.41 16.2 12 16.2Z" fill="white"/> <path d="M21.0303 20.88H16.8003C16.3903 20.88 16.0503 20.54 16.0503 20.13C16.0503 19.72 16.3903 19.38 16.8003 19.38H21.0303C21.4403 19.38 21.7803 19.72 21.7803 20.13C21.7803 20.54 21.4403 20.88 21.0303 20.88Z" fill="white"/> <path d="M2.97021 20.88C2.56021 20.88 2.22021 20.54 2.22021 20.13C2.22021 19.72 2.56021 19.38 2.97021 19.38H7.20021C7.61021 19.38 7.95021 19.72 7.95021 20.13C7.95021 20.54 7.61021 20.88 7.20021 20.88H2.97021Z" fill="white"/> <path d="M12.0004 23.39C11.6104 23.39 11.2804 23.13 11.1904 22.75L11.0004 21.91C10.9304 21.59 10.6804 21.35 10.3604 21.27L9.53037 21.07C9.15037 20.98 8.88037 20.65 8.88037 20.26C8.88037 19.87 9.15037 19.53 9.53037 19.45L10.3604 19.26C10.6804 19.18 10.9204 18.94 11.0004 18.62L11.1904 17.79C11.2804 17.41 11.6104 17.14 12.0004 17.14C12.3904 17.14 12.7204 17.4 12.8104 17.78L13.0104 18.61C13.0804 18.93 13.3304 19.18 13.6504 19.25L14.4804 19.44C14.8604 19.53 15.1304 19.86 15.1304 20.25C15.1304 20.64 14.8604 20.98 14.4804 21.06L13.6504 21.26C13.3304 21.33 13.0804 21.58 13.0104 21.9L12.8204 22.73C12.7304 23.11 12.3904 23.39 12.0004 23.39ZM11.6304 20.26C11.7704 20.37 11.8904 20.49 12.0004 20.63C12.1104 20.49 12.2304 20.37 12.3704 20.26C12.2304 20.15 12.1104 20.03 12.0004 19.89C11.8904 20.03 11.7704 20.15 11.6304 20.26Z" fill="white"/> </g> <defs> <clipPath id="clip0_3111_18819"> <rect width="24" height="24" fill="white"/> </clipPath> </defs> </svg>
