<svg width="24" height="24" viewBox="0 0 24 24" fill="none" xmlns="http://www.w3.org/2000/svg"> <g clip-path="url(#clip0_3111_19892)"> <path d="M19.7301 9.26999C19.3301 9.26999 18.9901 8.99999 18.9001 8.60999L18.6701 7.60999C18.5701 7.16999 18.2301 6.82999 17.7801 6.71999L16.7801 6.48999C16.3901 6.39999 16.1201 6.05999 16.1201 5.65999C16.1201 5.25999 16.3901 4.91999 16.7801 4.82999L17.7901 4.59999C18.2301 4.49999 18.5701 4.15999 18.6801 3.70999L18.9101 2.70999C19.0001 2.31999 19.3401 2.04999 19.7401 2.04999C20.1401 2.04999 20.4801 2.31999 20.5701 2.70999L20.8101 3.71999C20.9101 4.15999 21.2501 4.49999 21.7001 4.60999L22.7001 4.83999C23.0901 4.92999 23.3601 5.26999 23.3601 5.66999C23.3601 6.06999 23.0901 6.40999 22.7001 6.49999L21.7001 6.72999C21.2601 6.82999 20.9201 7.16999 20.8101 7.61999L20.5801 8.61999C20.4901 9.00999 20.1301 9.26999 19.7301 9.26999ZM19.0201 5.64999C19.3001 5.83999 19.5401 6.07999 19.7301 6.35999C19.9201 6.07999 20.1601 5.83999 20.4401 5.64999C20.1601 5.45999 19.9201 5.21999 19.7301 4.93999C19.5401 5.21999 19.3001 5.45999 19.0201 5.64999Z" fill="white"/> <path d="M17.2001 21.97H6.8001C3.0201 21.97 0.850098 19.8 0.850098 16.02V8.73998C0.850098 4.95998 3.0201 2.78998 6.8001 2.78998H14.0801C14.4901 2.78998 14.8301 3.12998 14.8301 3.53998C14.8301 3.94998 14.4901 4.28998 14.0801 4.28998H6.8001C3.8501 4.28998 2.3501 5.78998 2.3501 8.73998V16.02C2.3501 18.97 3.8501 20.47 6.8001 20.47H17.2001C20.1501 20.47 21.6501 18.97 21.6501 16.02V10.82C21.6501 10.41 21.9901 10.07 22.4001 10.07C22.8101 10.07 23.1501 10.41 23.1501 10.82V16.02C23.1501 19.8 20.9801 21.97 17.2001 21.97Z" fill="white"/> <path d="M12.0101 13.26C11.1401 13.26 10.2701 12.99 9.59007 12.45L6.33007 9.84998C6.01007 9.58998 5.95007 9.11998 6.21007 8.79998C6.47007 8.47998 6.94007 8.41998 7.26007 8.67998L10.5101 11.28C11.3101 11.92 12.6701 11.92 13.4701 11.28L14.7001 10.3C15.0201 10.04 15.4901 10.09 15.7501 10.42C16.0101 10.74 15.9501 11.22 15.6301 11.47L14.4001 12.45C13.7201 12.99 12.8501 13.26 11.9801 13.26H12.0101Z" fill="white"/> </g> <defs> <clipPath id="clip0_3111_19892"> <rect width="24" height="24" fill="white"/> </clipPath> </defs> </svg>
