<svg width="24" height="24" viewBox="0 0 24 24" fill="none" xmlns="http://www.w3.org/2000/svg"> <g clip-path="url(#clip0_3111_19306)"> <path d="M19.1196 23.14C18.7096 23.14 18.3696 22.86 18.2696 22.46L18.0096 21.3C17.8796 20.75 17.4596 20.32 16.9096 20.19L15.7496 19.91C15.3596 19.82 15.0796 19.47 15.0796 19.06C15.0796 18.65 15.3596 18.31 15.7596 18.22L16.9196 17.95C17.4696 17.82 17.8996 17.4 18.0296 16.85L18.3096 15.69C18.3996 15.3 18.7096 15.02 19.1596 15.02C19.5696 15.02 19.9096 15.3 19.9996 15.7L20.2596 16.86C20.3896 17.41 20.8096 17.84 21.3596 17.97L22.5196 18.25C22.9096 18.34 23.1896 18.69 23.1896 19.1C23.1896 19.51 22.9096 19.85 22.5196 19.94L21.3596 20.21C20.8096 20.34 20.3796 20.76 20.2496 21.31L19.9696 22.47C19.8796 22.86 19.5296 23.14 19.1196 23.14ZM18.1096 19.08C18.5296 19.33 18.8796 19.69 19.1296 20.11C19.3796 19.69 19.7396 19.34 20.1596 19.09C19.7396 18.84 19.3896 18.48 19.1396 18.06C18.8896 18.48 18.5296 18.83 18.1096 19.08Z" fill="white"/> <path d="M12.5098 22.3H8.54982C3.12982 22.3 0.819824 19.99 0.819824 14.57V8.59C0.819824 3.17 3.12982 0.860001 8.54982 0.860001H14.5298C19.9498 0.860001 22.2598 3.17 22.2598 8.59V11.58C22.2598 11.99 21.9198 12.33 21.5098 12.33C21.0998 12.33 20.7598 11.99 20.7598 11.58V8.59C20.7598 3.99 19.1298 2.36 14.5298 2.36H8.54982C3.94982 2.36 2.31982 3.99 2.31982 8.59V14.57C2.31982 19.17 3.94982 20.8 8.54982 20.8H12.5098C12.9198 20.8 13.2598 21.14 13.2598 21.55C13.2598 21.96 12.9198 22.3 12.5098 22.3Z" fill="white"/> <path d="M9.1598 17.62C7.5798 17.62 6.2998 16.33 6.2998 14.76C6.2998 13.19 7.5798 11.9 9.1598 11.9C10.7398 11.9 12.0198 13.18 12.0198 14.76C12.0198 16.34 10.7398 17.62 9.1598 17.62ZM9.1598 13.39C8.4098 13.39 7.7998 14 7.7998 14.75C7.7998 15.5 8.4098 16.11 9.1598 16.11C9.9098 16.11 10.5198 15.5 10.5198 14.75C10.5198 14 9.9098 13.39 9.1598 13.39Z" fill="white"/> <path d="M11.2798 15.5C10.8698 15.5 10.5298 15.16 10.5298 14.75V7.36C10.5298 6.95 10.8698 6.61 11.2798 6.61C11.6898 6.61 12.0298 6.95 12.0298 7.36V14.75C12.0298 15.16 11.6898 15.5 11.2798 15.5Z" fill="white"/> <path d="M15.0598 11.01C14.8398 11.01 14.6198 10.97 14.3998 10.9L12.0698 10.12C11.1898 9.83 10.5298 8.91 10.5298 7.98V7.36C10.5298 6.73 10.7898 6.18 11.2498 5.85C11.7098 5.52 12.3098 5.45 12.8998 5.65L15.2298 6.43C16.1098 6.72 16.7698 7.64 16.7698 8.57V9.19C16.7698 9.82 16.5098 10.37 16.0498 10.7C15.7598 10.91 15.4198 11.01 15.0598 11.01ZM12.2498 7.05C12.1998 7.05 12.1598 7.06 12.1298 7.08C12.0698 7.12 12.0298 7.23 12.0298 7.37V7.99C12.0298 8.26 12.2798 8.62 12.5398 8.7L14.8698 9.48C14.9998 9.52 15.1098 9.53 15.1698 9.48C15.2298 9.44 15.2698 9.33 15.2698 9.19V8.57C15.2698 8.3 15.0198 7.94 14.7598 7.86L12.4298 7.08C12.3698 7.06 12.2998 7.05 12.2498 7.05Z" fill="white"/> </g> <defs> <clipPath id="clip0_3111_19306"> <rect width="24" height="24" fill="white"/> </clipPath> </defs> </svg>
