<svg width="24" height="24" viewBox="0 0 24 24" fill="none" xmlns="http://www.w3.org/2000/svg"> <g clip-path="url(#clip0_3111_19192)"> <path d="M19.34 9.47C18.93 9.47 18.59 9.19 18.5 8.79L18.23 7.63C18.1 7.07 17.68 6.64 17.12 6.51L15.96 6.23C15.57 6.14 15.29 5.79 15.29 5.38C15.29 4.97 15.57 4.63 15.97 4.53L17.13 4.26C17.69 4.13 18.12 3.71 18.25 3.15L18.53 1.99C18.62 1.6 18.97 1.32 19.38 1.32C19.79 1.32 20.13 1.6 20.23 2L20.5 3.16C20.63 3.72 21.05 4.15 21.61 4.28L22.77 4.56C23.17 4.66 23.44 5.01 23.44 5.41C23.44 5.82 23.16 6.16 22.76 6.25L21.6 6.52C21.04 6.65 20.61 7.07 20.48 7.63L20.2 8.79C20.11 9.18 19.75 9.47 19.34 9.47ZM18.31 5.41C18.74 5.67 19.09 6.02 19.35 6.45C19.61 6.02 19.96 5.67 20.39 5.42C19.96 5.16 19.61 4.81 19.35 4.38C19.09 4.81 18.74 5.16 18.31 5.41Z" fill="white"/> <path d="M14.5298 22.66C14.0998 22.66 13.6698 22.58 13.3298 22.4L8.13984 19.8C7.83984 19.65 7.26984 19.66 6.97984 19.83L4.65984 21.15C3.64984 21.73 2.61984 21.8 1.82984 21.34C1.03984 20.88 0.589844 19.95 0.589844 18.78V9.17C0.589844 8.27 1.17984 7.26 1.96984 6.81L6.24984 4.36C6.96984 3.95 8.06984 3.92 8.81984 4.29L14.9598 7.35C15.3298 7.54 15.4798 7.99 15.2998 8.36C15.1198 8.73 14.6698 8.88 14.2898 8.7L8.15984 5.64C7.85984 5.49 7.28984 5.51 6.99984 5.67L2.72984 8.12C2.41984 8.3 2.10984 8.82 2.10984 9.18V18.79C2.10984 19.41 2.28984 19.87 2.60984 20.05C2.91984 20.23 3.40984 20.16 3.93984 19.85L6.25984 18.53C6.98984 18.11 8.09984 18.08 8.83984 18.46L14.0198 21.05C14.3198 21.2 14.8898 21.18 15.1798 21.02L19.4498 18.57C19.7598 18.39 20.0698 17.86 20.0698 17.5V11.54C20.0698 11.13 20.4098 10.79 20.8198 10.79C21.2298 10.79 21.5698 11.13 21.5698 11.54V17.5C21.5698 18.4 20.9798 19.41 20.1998 19.87L15.9198 22.32C15.5398 22.54 15.0198 22.66 14.5298 22.66Z" fill="white"/> <path d="M7.52002 19.03C7.11002 19.03 6.77002 18.69 6.77002 18.28V5.44C6.77002 5.03 7.11002 4.69 7.52002 4.69C7.93002 4.69 8.27002 5.03 8.27002 5.44V18.28C8.27002 18.69 7.93002 19.03 7.52002 19.03Z" fill="white"/> <path d="M14.6099 22C14.1999 22 13.8599 21.66 13.8599 21.25V8.04C13.8599 7.63 14.1999 7.29 14.6099 7.29C15.0199 7.29 15.3599 7.63 15.3599 8.04V21.25C15.3599 21.66 15.0199 22 14.6099 22Z" fill="white"/> </g> <defs> <clipPath id="clip0_3111_19192"> <rect width="24" height="24" fill="white"/> </clipPath> </defs> </svg>
