<svg width="24" height="24" viewBox="0 0 24 24" fill="none" xmlns="http://www.w3.org/2000/svg"> <g clip-path="url(#clip0_3111_19837)"> <path d="M14.5897 21.77C14.1897 21.77 13.8497 21.5 13.7697 21.11L13.5597 20.19C13.4697 19.81 13.1797 19.51 12.7897 19.42L11.8697 19.21C11.4797 19.12 11.2197 18.78 11.2197 18.39C11.2197 18 11.4897 17.66 11.8697 17.57L12.7897 17.35C13.1697 17.26 13.4697 16.96 13.5597 16.59L13.7697 15.67C13.8597 15.28 14.1997 15.02 14.5897 15.02C14.9797 15.02 15.3197 15.29 15.4097 15.67L15.6297 16.59C15.7197 16.97 16.0097 17.27 16.3897 17.36L17.3097 17.58C17.6897 17.67 17.9597 18.01 17.9597 18.4C17.9597 18.79 17.6897 19.13 17.3097 19.22L16.3897 19.43C16.0097 19.52 15.7197 19.81 15.6297 20.2L15.4197 21.12C15.3297 21.5 14.9797 21.77 14.5897 21.77ZM14.0397 18.39C14.2497 18.54 14.4297 18.72 14.5797 18.93C14.7297 18.72 14.9097 18.54 15.1197 18.39C14.9097 18.24 14.7297 18.06 14.5797 17.85C14.4297 18.06 14.2497 18.24 14.0397 18.39Z" fill="white"/> <path d="M17.5699 13.25C17.3799 13.25 17.1799 13.17 17.0399 13.03L10.9999 6.98999C10.7499 6.73999 10.7099 6.35999 10.8999 6.05999L12.7899 3.06999C13.2899 2.25999 14.0699 1.75999 14.9699 1.65999C15.9799 1.54999 17.0299 1.94999 17.8599 2.77999L21.2499 6.16999C22.0399 6.95999 22.4199 8.00999 22.3099 9.04999C22.2099 9.95999 21.7199 10.76 20.9699 11.24L17.9799 13.13C17.8599 13.21 17.7199 13.25 17.5799 13.25H17.5699ZM12.4799 6.34999L17.6799 11.55L20.1599 9.97999C20.5299 9.73999 20.7699 9.35999 20.8199 8.89999C20.8799 8.31999 20.6499 7.69999 20.1899 7.23999L16.7999 3.84999C16.2999 3.34999 15.6999 3.08999 15.1399 3.15999C14.6999 3.20999 14.3199 3.45999 14.0599 3.87999L12.4899 6.35999L12.4799 6.34999Z" fill="white"/> <path d="M17.7595 16.25C17.3695 16.25 17.0395 15.95 17.0095 15.55L16.8295 12.55C16.8095 12.14 17.1195 11.78 17.5395 11.76C17.9495 11.74 18.3095 12.05 18.3295 12.46L18.5095 15.46C18.5295 15.87 18.2195 16.23 17.7995 16.25C17.7895 16.25 17.7695 16.25 17.7595 16.25Z" fill="white"/> <path d="M5.16976 22.36C4.19976 22.36 3.30976 22.01 2.65976 21.37C1.89976 20.61 1.55976 19.54 1.69976 18.36L2.79976 9.04999C3.11976 6.28999 4.34976 5.27998 7.16976 5.44998L11.5698 5.71998C11.9798 5.74998 12.2998 6.09999 12.2698 6.50999C12.2398 6.91999 11.9098 7.24998 11.4798 7.20998L7.07976 6.93998C5.03976 6.81998 4.51976 7.24999 4.28976 9.21999L3.18976 18.53C3.09976 19.24 3.28976 19.87 3.71976 20.3C4.14976 20.73 4.77976 20.91 5.48976 20.83L11.0398 20.18C11.4498 20.14 11.8198 20.43 11.8698 20.84C11.9198 21.25 11.6198 21.62 11.2098 21.67L5.65976 22.32C5.48976 22.34 5.33976 22.36 5.16976 22.36Z" fill="white"/> <path d="M3.72992 21.05C3.53992 21.05 3.34992 20.98 3.19992 20.83C2.90992 20.54 2.90992 20.06 3.19992 19.77L6.58992 16.37C6.87992 16.08 7.35992 16.08 7.64992 16.37C7.93992 16.66 7.93992 17.14 7.64992 17.43L4.25992 20.83C4.10992 20.98 3.91992 21.05 3.72992 21.05Z" fill="white"/> </g> <defs> <clipPath id="clip0_3111_19837"> <rect width="24" height="24" fill="white"/> </clipPath> </defs> </svg>
