<svg width="24" height="24" viewBox="0 0 24 24" fill="none" xmlns="http://www.w3.org/2000/svg"> <g clip-path="url(#clip0_3111_18963)"> <path d="M17.9303 22.84C17.5203 22.84 17.1703 22.56 17.0703 22.16L16.7803 20.9C16.6303 20.27 16.1503 19.79 15.5303 19.65L14.2703 19.36C13.8703 19.27 13.5903 18.91 13.5903 18.5C13.5903 18.09 13.8703 17.74 14.2703 17.64L15.5303 17.35C16.1603 17.2 16.6403 16.72 16.7803 16.1L17.0703 14.84C17.1603 14.44 17.5203 14.16 17.9303 14.16C18.3403 14.16 18.6903 14.44 18.7903 14.84L19.0803 16.1C19.2303 16.73 19.7103 17.21 20.3303 17.35L21.5903 17.64C21.9903 17.73 22.2703 18.09 22.2703 18.5C22.2703 18.91 21.9903 19.27 21.5903 19.36L20.3303 19.65C19.7003 19.8 19.2203 20.28 19.0803 20.9L18.7903 22.16C18.7003 22.56 18.3503 22.84 17.9403 22.84H17.9303ZM16.6803 18.49C17.2103 18.78 17.6403 19.21 17.9303 19.74C18.2203 19.21 18.6503 18.78 19.1803 18.49C18.6503 18.2 18.2203 17.77 17.9303 17.24C17.6403 17.77 17.2103 18.2 16.6803 18.49Z" fill="white"/> <path d="M12 15.75C9.93 15.75 8.25 14.07 8.25 12C8.25 9.93 9.93 8.25 12 8.25C14.07 8.25 15.75 9.93 15.75 12C15.75 14.07 14.07 15.75 12 15.75ZM12 9.75C10.76 9.75 9.75 10.76 9.75 12C9.75 13.24 10.76 14.25 12 14.25C13.24 14.25 14.25 13.24 14.25 12C14.25 10.76 13.24 9.75 12 9.75Z" fill="white"/> <path d="M8.78023 22.2C8.37023 22.2 7.96023 22.08 7.58023 21.86L5.86023 20.88C5.25023 20.53 4.81023 19.96 4.62023 19.28C4.43023 18.59 4.53023 17.88 4.88023 17.27C5.18023 16.76 5.25023 16.3 5.08023 16.01C4.91023 15.72 4.48023 15.55 3.89023 15.55C2.43023 15.55 1.24023 14.36 1.24023 12.9V11.14C1.24023 9.68 2.43023 8.49 3.89023 8.49C4.48023 8.49 4.91023 8.32 5.08023 8.03C5.25023 7.74 5.18023 7.28 4.88023 6.77C4.53023 6.16 4.43023 5.44 4.62023 4.76C4.81023 4.07 5.24023 3.5 5.86023 3.15L7.59023 2.16C8.72023 1.49 10.2002 1.88 10.8902 3.03L11.0002 3.23C11.2902 3.74 11.6502 4.03 11.9902 4.03C12.3302 4.03 12.6902 3.74 12.9902 3.23L13.1002 3.04C13.4302 2.48 13.9602 2.08 14.5802 1.92C15.2102 1.75 15.8602 1.84 16.4202 2.17L18.1402 3.15C18.7502 3.5 19.1902 4.07 19.3802 4.76C19.5602 5.45 19.4702 6.16 19.1202 6.77C18.8202 7.28 18.7502 7.74 18.9202 8.03C19.0902 8.32 19.5202 8.49 20.1102 8.49C21.5702 8.49 22.7602 9.68 22.7602 11.14V12.9C22.7602 13.31 22.4202 13.65 22.0102 13.65C21.6002 13.65 21.2602 13.31 21.2602 12.9V11.14C21.2602 10.51 20.7402 9.99 20.1102 9.99C18.9702 9.99 18.0602 9.55 17.6202 8.78C17.1802 8.01 17.2502 7 17.8202 6.02C17.9702 5.76 18.0102 5.45 17.9302 5.15C17.8502 4.85 17.6602 4.61 17.4002 4.46L15.6702 3.47C15.4502 3.34 15.2102 3.31 14.9702 3.37C14.7302 3.43 14.5302 3.59 14.4002 3.8L14.3002 3.98C13.7302 4.97 12.8902 5.53 12.0002 5.53C11.1102 5.53 10.2802 4.96 9.71023 3.98L9.60023 3.79C9.34023 3.36 8.78023 3.21 8.35023 3.46L6.61023 4.46C6.35023 4.61 6.16023 4.86 6.08023 5.15C6.00023 5.45 6.04023 5.76 6.19023 6.02C6.76023 7.01 6.83023 8.01 6.39023 8.78C5.95023 9.55 5.04023 9.99 3.90023 9.99C3.27023 9.99 2.75023 10.51 2.75023 11.14V12.9C2.75023 13.53 3.27023 14.05 3.90023 14.05C5.04023 14.05 5.95023 14.49 6.39023 15.26C6.83023 16.03 6.76023 17.04 6.19023 18.02C6.04023 18.28 6.00023 18.59 6.08023 18.89C6.16023 19.19 6.35023 19.43 6.61023 19.58L8.34023 20.57C8.78023 20.83 9.34023 20.68 9.60023 20.24L9.70023 20.06C9.91023 19.7 10.3702 19.58 10.7202 19.79C11.0802 20 11.2002 20.46 10.9902 20.81L10.8802 21C10.4202 21.77 9.61023 22.2 8.78023 22.2Z" fill="white"/> </g> <defs> <clipPath id="clip0_3111_18963"> <rect width="24" height="24" fill="white"/> </clipPath> </defs> </svg>
