<svg width="24" height="24" viewBox="0 0 24 24" fill="none" xmlns="http://www.w3.org/2000/svg"> <g clip-path="url(#clip0_3111_20057)"> <path d="M21.3501 20.99C20.9401 20.99 20.6001 20.65 20.6001 20.24V16.06C20.6001 15.65 20.9401 15.31 21.3501 15.31C21.7601 15.31 22.1001 15.65 22.1001 16.06V20.24C22.1001 20.65 21.7601 20.99 21.3501 20.99Z" fill="white"/> <path d="M18.7101 21C18.4301 21 18.1701 20.83 18.0401 20.57L16.6701 17.77L15.3001 20.57C15.1201 20.94 14.6701 21.1 14.3001 20.92C13.9301 20.74 13.7701 20.29 13.9501 19.92L15.9901 15.74C16.2401 15.22 17.0901 15.22 17.3401 15.74L19.3801 19.92C19.5601 20.29 19.4101 20.74 19.0401 20.92C18.9301 20.97 18.8201 21 18.7101 21Z" fill="white"/> <path d="M18.2199 20.03H15.1499C14.7399 20.03 14.3999 19.69 14.3999 19.28C14.3999 18.87 14.7399 18.53 15.1499 18.53H18.2199C18.6299 18.53 18.9699 18.87 18.9699 19.28C18.9699 19.69 18.6299 20.03 18.2199 20.03Z" fill="white"/> <path d="M9.58996 20.79C5.17996 20.79 3.20996 18.82 3.20996 14.41V9.58001C3.20996 5.17001 5.17996 3.20001 9.58996 3.20001H14.42C18.83 3.20001 20.8 5.17001 20.8 9.58001C20.8 9.99001 20.46 10.33 20.05 10.33C19.64 10.33 19.3 9.99001 19.3 9.58001C19.3 5.98001 18.02 4.70001 14.42 4.70001H9.58996C5.98996 4.70001 4.70996 5.98001 4.70996 9.58001V14.41C4.70996 18.01 5.98996 19.29 9.58996 19.29C9.99996 19.29 10.34 19.63 10.34 20.04C10.34 20.45 9.99996 20.79 9.58996 20.79Z" fill="white"/> <path d="M7.98975 4.71C7.57975 4.71 7.23975 4.37 7.23975 3.96V1.94C7.23975 1.53 7.57975 1.19 7.98975 1.19C8.39975 1.19 8.73975 1.53 8.73975 1.94V3.95C8.73975 4.36 8.39975 4.7 7.98975 4.7V4.71Z" fill="white"/> <path d="M12 4.71C11.59 4.71 11.25 4.37 11.25 3.96V1.94C11.25 1.53 11.59 1.19 12 1.19C12.41 1.19 12.75 1.53 12.75 1.94V3.95C12.75 4.36 12.41 4.7 12 4.7V4.71Z" fill="white"/> <path d="M16.02 4.71C15.61 4.71 15.27 4.37 15.27 3.96V1.94C15.27 1.53 15.61 1.19 16.02 1.19C16.43 1.19 16.77 1.53 16.77 1.94V3.95C16.77 4.36 16.43 4.7 16.02 4.7V4.71Z" fill="white"/> <path d="M22.0598 8.72998H20.0498C19.6398 8.72998 19.2998 8.38998 19.2998 7.97998C19.2998 7.56998 19.6398 7.22998 20.0498 7.22998H22.0598C22.4698 7.22998 22.8098 7.56998 22.8098 7.97998C22.8098 8.38998 22.4698 8.72998 22.0598 8.72998Z" fill="white"/> <path d="M7.98975 22.81C7.57975 22.81 7.23975 22.47 7.23975 22.06V20.05C7.23975 19.64 7.57975 19.3 7.98975 19.3C8.39975 19.3 8.73975 19.64 8.73975 20.05V22.06C8.73975 22.47 8.39975 22.81 7.98975 22.81Z" fill="white"/> <path d="M3.95994 8.72998H1.93994C1.52994 8.72998 1.18994 8.38998 1.18994 7.97998C1.18994 7.56998 1.52994 7.22998 1.93994 7.22998H3.94994C4.35994 7.22998 4.69994 7.56998 4.69994 7.97998C4.69994 8.38998 4.35994 8.72998 3.94994 8.72998H3.95994Z" fill="white"/> <path d="M3.95994 12.75H1.93994C1.52994 12.75 1.18994 12.41 1.18994 12C1.18994 11.59 1.52994 11.25 1.93994 11.25H3.94994C4.35994 11.25 4.69994 11.59 4.69994 12C4.69994 12.41 4.35994 12.75 3.94994 12.75H3.95994Z" fill="white"/> <path d="M3.95994 16.77H1.93994C1.52994 16.77 1.18994 16.43 1.18994 16.02C1.18994 15.61 1.52994 15.27 1.93994 15.27H3.94994C4.35994 15.27 4.69994 15.61 4.69994 16.02C4.69994 16.43 4.35994 16.77 3.94994 16.77H3.95994Z" fill="white"/> <path d="M12.4698 16.99H10.0198C8.35977 16.99 7.00977 15.64 7.00977 13.98V10.02C7.00977 8.36001 8.35977 7.01001 10.0198 7.01001H13.9798C15.6398 7.01001 16.9898 8.36001 16.9898 10.02V12.45C16.9898 12.86 16.6498 13.2 16.2398 13.2C15.8298 13.2 15.4898 12.86 15.4898 12.45V10.02C15.4898 9.19001 14.8098 8.51001 13.9798 8.51001H10.0198C9.18977 8.51001 8.50977 9.19001 8.50977 10.02V13.98C8.50977 14.81 9.18977 15.49 10.0198 15.49H12.4698C12.8798 15.49 13.2198 15.83 13.2198 16.24C13.2198 16.65 12.8798 16.99 12.4698 16.99Z" fill="white"/> </g> <defs> <clipPath id="clip0_3111_20057"> <rect width="24" height="24" fill="white"/> </clipPath> </defs> </svg>
