<svg width="24" height="24" viewBox="0 0 24 24" fill="none" xmlns="http://www.w3.org/2000/svg"> <g clip-path="url(#clip0_3111_18953)"> <path d="M18.0001 20.79C17.6001 20.79 17.2501 20.53 17.1501 20.14L16.7701 18.8C16.5701 18.11 16.0101 17.61 15.3101 17.48L13.9401 17.23C13.5301 17.16 13.2301 16.81 13.2101 16.4C13.1901 15.99 13.4501 15.61 13.8501 15.5L15.1901 15.12C15.8801 14.92 16.3801 14.36 16.5101 13.66L16.7601 12.29C16.8301 11.88 17.1801 11.58 17.5901 11.56C18.0001 11.53 18.3801 11.8 18.4901 12.2L18.8701 13.54C19.0701 14.23 19.6301 14.73 20.3301 14.86L21.7001 15.11C22.1101 15.18 22.4101 15.53 22.4301 15.94C22.4501 16.36 22.1901 16.73 21.7901 16.84L20.4501 17.22C19.7601 17.42 19.2601 17.98 19.1301 18.68L18.8801 20.05C18.8101 20.46 18.4101 20.77 18.0001 20.79C18.0201 20.79 17.9801 20.79 18.0001 20.79ZM16.3401 16.25C16.9901 16.54 17.5301 17.03 17.8801 17.65C18.1701 17 18.6601 16.46 19.2801 16.11C18.6301 15.82 18.0901 15.33 17.7401 14.71C17.4501 15.36 16.9601 15.9 16.3401 16.25Z" fill="white"/> <path d="M11.88 22.74C11.69 22.74 11.49 22.72 11.31 22.68C6.05998 21.51 2.05998 16.85 1.79998 11.6L1.57998 7.22C1.51998 6.1 2.27998 4.85 3.29998 4.38L8.74998 1.83C10.14 1.18 11.77 1.1 13.22 1.61L18.9 3.61C19.96 3.98 20.83 5.15 20.89 6.27L21.1 10.66C21.12 11.07 20.8 11.42 20.39 11.44C20.01 11.45 19.63 11.14 19.61 10.73L19.4 6.34C19.37 5.83 18.9 5.2 18.41 5.02L12.73 3.02C11.65 2.64 10.43 2.7 9.38998 3.19L3.93998 5.74C3.45998 5.96 3.05998 6.63 3.07998 7.15L3.29998 11.53C3.52998 16.11 7.03998 20.19 11.64 21.22C11.84 21.26 12.06 21.25 12.26 21.19C12.93 20.97 13.59 20.67 14.21 20.31C14.57 20.1 15.03 20.22 15.23 20.58C15.44 20.94 15.32 21.4 14.96 21.6C14.25 22.01 13.5 22.35 12.73 22.6C12.46 22.69 12.16 22.74 11.88 22.74Z" fill="white"/> </g> <defs> <clipPath id="clip0_3111_18953"> <rect width="24" height="24" fill="white"/> </clipPath> </defs> </svg>
