<svg width="24" height="24" viewBox="0 0 24 24" fill="none" xmlns="http://www.w3.org/2000/svg"> <g clip-path="url(#clip0_3111_19898)"> <path d="M19.26 8.27997C18.86 8.27997 18.52 8.00997 18.43 7.61997L18.2 6.64997C18.1 6.23997 17.78 5.90997 17.36 5.80997L16.39 5.57997C16 5.48997 15.73 5.14997 15.73 4.74997C15.73 4.34997 16 4.00997 16.39 3.91997L17.36 3.68997C17.77 3.58997 18.1 3.25997 18.2 2.84997L18.43 1.87997C18.52 1.48997 18.86 1.21997 19.26 1.21997C19.66 1.21997 20 1.48997 20.09 1.87997L20.32 2.84997C20.42 3.25997 20.74 3.58997 21.16 3.68997L22.13 3.91997C22.52 4.00997 22.79 4.34997 22.79 4.74997C22.79 5.14997 22.52 5.48997 22.13 5.57997L21.16 5.80997C20.75 5.90997 20.42 6.23997 20.32 6.64997L20.09 7.61997C20 7.99997 19.65 8.27997 19.26 8.27997ZM18.63 4.75997C18.88 4.92997 19.1 5.14997 19.27 5.39997C19.44 5.14997 19.66 4.92997 19.91 4.75997C19.66 4.58997 19.44 4.36997 19.27 4.11997C19.1 4.36997 18.88 4.58997 18.63 4.75997Z" fill="white"/> <path d="M17 22.75H7C3.83 22.75 1.25 20.17 1.25 17V7C1.25 3.83 3.83 1.25 7 1.25H14.83C15.24 1.25 15.58 1.59 15.58 2C15.58 2.41 15.24 2.75 14.83 2.75H7C4.66 2.75 2.75 4.66 2.75 7V17C2.75 19.34 4.66 21.25 7 21.25H17C19.34 21.25 21.25 19.34 21.25 17V10.12C21.25 9.71 21.59 9.37 22 9.37C22.41 9.37 22.75 9.71 22.75 10.12V17C22.75 20.17 20.17 22.75 17 22.75Z" fill="white"/> <path d="M8.1 16.75C6.53 16.75 5.25 15.47 5.25 13.9V10C5.25 9.59 5.59 9.25 6 9.25C6.41 9.25 6.75 9.59 6.75 10V13.9C6.75 14.64 7.36 15.25 8.1 15.25C8.84 15.25 9.45 14.64 9.45 13.9V10C9.45 9.59 9.79 9.25 10.2 9.25C10.61 9.25 10.95 9.59 10.95 10V13.9C10.95 15.47 9.67 16.75 8.1 16.75Z" fill="white"/> <path d="M17.9998 16.75C17.7598 16.75 17.5298 16.64 17.3798 16.43L13.1798 10.43C12.9398 10.09 13.0198 9.61999 13.3598 9.38999C13.6998 9.14999 14.1698 9.23999 14.3998 9.56999L18.5998 15.57C18.8398 15.91 18.7598 16.38 18.4198 16.61C18.2898 16.7 18.1398 16.75 17.9898 16.75H17.9998Z" fill="white"/> <path d="M13.8001 16.75C13.6501 16.75 13.5001 16.71 13.3701 16.61C13.0301 16.37 12.9501 15.9 13.1901 15.57L17.3901 9.56999C17.6301 9.22999 18.0901 9.14999 18.4301 9.38999C18.7701 9.62999 18.8501 10.1 18.6101 10.43L14.4101 16.43C14.2601 16.64 14.0301 16.75 13.7901 16.75H13.8001Z" fill="white"/> </g> <defs> <clipPath id="clip0_3111_19898"> <rect width="24" height="24" fill="white"/> </clipPath> </defs> </svg>
