<svg width="24" height="24" viewBox="0 0 24 24" fill="none" xmlns="http://www.w3.org/2000/svg"> <g clip-path="url(#clip0_3111_19906)"> <path d="M19.26 8.27997C18.86 8.27997 18.52 8.00997 18.43 7.61997L18.2 6.64997C18.1 6.23997 17.78 5.90997 17.36 5.80997L16.39 5.57997C16 5.48997 15.73 5.14997 15.73 4.74997C15.73 4.34997 16 4.00997 16.39 3.91997L17.36 3.68997C17.77 3.58997 18.1 3.25997 18.2 2.84997L18.43 1.87997C18.52 1.48997 18.86 1.21997 19.26 1.21997C19.66 1.21997 20 1.48997 20.09 1.87997L20.32 2.84997C20.42 3.25997 20.74 3.58997 21.16 3.68997L22.13 3.91997C22.52 4.00997 22.79 4.34997 22.79 4.74997C22.79 5.14997 22.52 5.48997 22.13 5.57997L21.16 5.80997C20.75 5.90997 20.42 6.23997 20.32 6.64997L20.09 7.61997C20 7.99997 19.65 8.27997 19.26 8.27997ZM18.63 4.75997C18.88 4.92997 19.1 5.14997 19.27 5.39997C19.44 5.14997 19.66 4.92997 19.91 4.75997C19.66 4.58997 19.44 4.36997 19.27 4.11997C19.1 4.36997 18.88 4.58997 18.63 4.75997Z" fill="white"/> <path d="M17 22.75H7C3.83 22.75 1.25 20.17 1.25 17V7C1.25 3.83 3.83 1.25 7 1.25H14.83C15.24 1.25 15.58 1.59 15.58 2C15.58 2.41 15.24 2.75 14.83 2.75H7C4.66 2.75 2.75 4.66 2.75 7V17C2.75 19.34 4.66 21.25 7 21.25H17C19.34 21.25 21.25 19.34 21.25 17V10.12C21.25 9.71 21.59 9.37 22 9.37C22.41 9.37 22.75 9.71 22.75 10.12V17C22.75 20.17 20.17 22.75 17 22.75Z" fill="white"/> <path d="M10.2001 16.75C8.6301 16.75 7.3501 15.47 7.3501 13.9V10C7.3501 9.59 7.6901 9.25 8.1001 9.25C8.5101 9.25 8.8501 9.59 8.8501 10V13.9C8.8501 14.64 9.4601 15.25 10.2001 15.25C10.9401 15.25 11.5501 14.64 11.5501 13.9V10C11.5501 9.59 11.8901 9.25 12.3001 9.25C12.7101 9.25 13.0501 9.59 13.0501 10V13.9C13.0501 15.47 11.7701 16.75 10.2001 16.75Z" fill="white"/> <path d="M15.8999 16.75C15.4899 16.75 15.1499 16.41 15.1499 16V10C15.1499 9.59 15.4899 9.25 15.8999 9.25C16.3099 9.25 16.6499 9.59 16.6499 10V16C16.6499 16.41 16.3099 16.75 15.8999 16.75Z" fill="white"/> </g> <defs> <clipPath id="clip0_3111_19906"> <rect width="24" height="24" fill="white"/> </clipPath> </defs> </svg>
