<svg width="24" height="24" viewBox="0 0 24 24" fill="none" xmlns="http://www.w3.org/2000/svg"> <g clip-path="url(#clip0_3111_19440)"> <path d="M18.3098 7.77999C17.9098 7.77999 17.5698 7.50999 17.4898 7.11999L17.2698 6.15999C17.1798 5.74999 16.8598 5.42999 16.4498 5.32999L15.4898 5.09999C15.0998 5.00999 14.8398 4.66999 14.8398 4.26999C14.8398 3.86999 15.1098 3.52999 15.4998 3.44999L16.4598 3.22999C16.8698 3.13999 17.1898 2.81999 17.2898 2.40999L17.5198 1.44999C17.6098 1.06999 17.9498 0.799988 18.3498 0.799988C18.7498 0.799988 19.0898 1.06999 19.1798 1.45999L19.3998 2.41999C19.4898 2.82999 19.8098 3.14999 20.2198 3.24999L21.1798 3.47999C21.5698 3.56999 21.8398 3.90999 21.8298 4.30999C21.8198 4.70999 21.5598 5.04999 21.1698 5.12999L20.2098 5.34999C19.7998 5.43999 19.4798 5.75999 19.3798 6.16999L19.1498 7.12999C19.0598 7.50999 18.7198 7.77999 18.3198 7.77999H18.3098ZM17.6998 4.28999C17.9398 4.45999 18.1498 4.66999 18.3198 4.90999C18.4898 4.66999 18.6998 4.45999 18.9398 4.28999C18.6998 4.11999 18.4898 3.90999 18.3198 3.66999C18.1498 3.90999 17.9398 4.11999 17.6998 4.28999Z" fill="white"/> <path d="M5.8999 15.22C5.4899 15.22 5.1499 14.88 5.1499 14.47V10.11C5.1499 9.69999 5.4899 9.35999 5.8999 9.35999C6.3099 9.35999 6.6499 9.69999 6.6499 10.11V14.47C6.6499 14.88 6.3099 15.22 5.8999 15.22Z" fill="white"/> <path d="M8.94971 16.66C8.53971 16.66 8.19971 16.32 8.19971 15.91V8.64999C8.19971 8.23999 8.53971 7.89999 8.94971 7.89999C9.35971 7.89999 9.69971 8.23999 9.69971 8.64999V15.91C9.69971 16.32 9.35971 16.66 8.94971 16.66Z" fill="white"/> <path d="M12 18.12C11.59 18.12 11.25 17.78 11.25 17.37V7.19998C11.25 6.78998 11.59 6.44998 12 6.44998C12.41 6.44998 12.75 6.78998 12.75 7.19998V17.36C12.75 17.77 12.41 18.11 12 18.11V18.12Z" fill="white"/> <path d="M15.0498 16.66C14.6398 16.66 14.2998 16.32 14.2998 15.91V9.37997C14.2998 8.96997 14.6398 8.62997 15.0498 8.62997C15.4598 8.62997 15.7998 8.96997 15.7998 9.37997V15.91C15.7998 16.32 15.4598 16.66 15.0498 16.66Z" fill="white"/> <path d="M18.0996 15.22C17.6896 15.22 17.3496 14.88 17.3496 14.47V10.84C17.3496 10.43 17.6896 10.09 18.0996 10.09C18.5096 10.09 18.8496 10.43 18.8496 10.84V14.47C18.8496 14.88 18.5096 15.22 18.0996 15.22Z" fill="white"/> <path d="M8.94984 23.2C3.43984 23.2 1.08984 20.85 1.08984 15.34V9.24C1.08984 3.72 3.43984 1.37 8.94984 1.37H12.6298C13.0398 1.37 13.3798 1.71 13.3798 2.11999C13.3798 2.52999 13.0398 2.86999 12.6298 2.86999H8.94984C4.30984 2.86999 2.58984 4.58999 2.58984 9.22999V15.33C2.58984 19.97 4.30984 21.69 8.94984 21.69H15.0498C19.6898 21.69 21.4098 19.97 21.4098 15.33V9.22999C21.4098 8.81999 21.7498 8.47999 22.1598 8.47999C22.5698 8.47999 22.9098 8.81999 22.9098 9.22999V15.33C22.9098 20.84 20.5598 23.19 15.0498 23.19L8.94984 23.2Z" fill="white"/> </g> <defs> <clipPath id="clip0_3111_19440"> <rect width="24" height="24" fill="white"/> </clipPath> </defs> </svg>
