<svg width="24" height="24" viewBox="0 0 24 24" fill="none" xmlns="http://www.w3.org/2000/svg"> <g clip-path="url(#clip0_3242_29681)"> <path d="M18.17 22.1902C17.74 22.1902 17.39 21.9102 17.3 21.4902L16.98 20.1002C16.81 19.3802 16.24 18.8102 15.52 18.6402L14.11 18.3102C13.71 18.2302 13.42 17.8602 13.42 17.4402C13.42 17.0202 13.71 16.6502 14.12 16.5602L15.51 16.2402C16.23 16.0702 16.81 15.5002 16.97 14.7802L17.3 13.3702C17.38 12.9702 17.74 12.6802 18.17 12.6802C18.6 12.6802 18.96 12.9702 19.04 13.3902L19.36 14.7802C19.53 15.5002 20.1 16.0702 20.82 16.2402L22.23 16.5702C22.63 16.6502 22.92 17.0202 22.92 17.4402C22.92 17.8602 22.64 18.2202 22.23 18.3102L20.83 18.6302C20.11 18.8002 19.53 19.3702 19.37 20.0902L19.04 21.5002C18.96 21.9002 18.6 22.1902 18.17 22.1902ZM16.6 17.4502C17.28 17.7902 17.84 18.3402 18.18 19.0302C18.52 18.3502 19.08 17.7902 19.76 17.4502C19.08 17.1102 18.52 16.5602 18.18 15.8702C17.84 16.5502 17.28 17.1102 16.6 17.4502Z" fill="white"/> <path d="M12.98 12.75C12.57 12.75 12.23 12.41 12.23 12V5.95996C12.23 5.54996 12.57 5.20996 12.98 5.20996C13.39 5.20996 13.73 5.54996 13.73 5.95996V12C13.73 12.41 13.39 12.75 12.98 12.75Z" fill="white"/> <path d="M16.27 11.65C15.86 11.65 15.52 11.31 15.52 10.9V8.70996C15.52 8.29996 15.86 7.95996 16.27 7.95996C16.68 7.95996 17.02 8.29996 17.02 8.70996V10.9C17.02 11.31 16.68 11.65 16.27 11.65Z" fill="white"/> <path d="M9.68005 15.49C9.27005 15.49 8.93005 15.15 8.93005 14.74V9.25C8.93005 8.84 9.27005 8.5 9.68005 8.5C10.0901 8.5 10.4301 8.84 10.4301 9.25V14.74C10.4301 15.15 10.0901 15.49 9.68005 15.49Z" fill="white"/> <path d="M7.49 22.6301H6C3.38 22.6301 1.25 20.5001 1.25 17.8801V16.3901C1.25 15.9801 1.59 15.6401 2 15.6401C2.41 15.6401 2.75 15.9801 2.75 16.3901V17.8801C2.75 19.6701 4.21 21.1301 6 21.1301H7.49C7.9 21.1301 8.24 21.4701 8.24 21.8801C8.24 22.2901 7.9 22.6301 7.49 22.6301Z" fill="white"/> <path d="M2 8.36012C1.59 8.36012 1.25 8.02012 1.25 7.61012V6.12012C1.25 3.50012 3.38 1.37012 6 1.37012H7.49C7.9 1.37012 8.24 1.71012 8.24 2.12012C8.24 2.53012 7.9 2.87012 7.49 2.87012H6C4.21 2.87012 2.75 4.33012 2.75 6.12012V7.61012C2.75 8.02012 2.41 8.36012 2 8.36012Z" fill="white"/> <path d="M21.76 8.36012C21.35 8.36012 21.01 8.02012 21.01 7.61012V6.12012C21.01 4.33012 19.55 2.87012 17.76 2.87012H16.27C15.86 2.87012 15.52 2.53012 15.52 2.12012C15.52 1.71012 15.86 1.37012 16.27 1.37012H17.76C20.38 1.37012 22.51 3.50012 22.51 6.12012V7.61012C22.51 8.02012 22.17 8.36012 21.76 8.36012Z" fill="white"/> <path d="M6.39001 13.8499C5.98001 13.8499 5.64001 13.5099 5.64001 13.0999V10.8999C5.64001 10.4899 5.98001 10.1499 6.39001 10.1499C6.80001 10.1499 7.14001 10.4899 7.14001 10.8999V13.0999C7.14001 13.5099 6.80001 13.8499 6.39001 13.8499Z" fill="white"/> </g> <defs> <clipPath id="clip0_3242_29681"> <rect width="24" height="24" fill="white"/> </clipPath> </defs> </svg>
