<svg width="24" height="24" viewBox="0 0 24 24" fill="none" xmlns="http://www.w3.org/2000/svg"> <g clip-path="url(#clip0_3111_19720)"> <path d="M16.2 23.25H2.55C1.56 23.25 0.75 22.44 0.75 21.45V7.8C0.75 3.19 3.19 0.75 7.8 0.75H16.2C20.81 0.75 23.25 3.19 23.25 7.8V16.2C23.25 20.81 20.81 23.25 16.2 23.25ZM7.8 2.25C4.01 2.25 2.25 4.01 2.25 7.8V21.45C2.25 21.61 2.39 21.75 2.55 21.75H16.2C19.99 21.75 21.75 19.99 21.75 16.2V7.8C21.75 4.01 19.99 2.25 16.2 2.25H7.8Z" fill="white"/> <path d="M8.93022 19.21C8.44022 19.21 7.99022 19.04 7.67022 18.71C7.28022 18.32 7.11022 17.76 7.19022 17.17L7.48022 15.09C7.55022 14.63 7.82022 14.07 8.14022 13.75L13.5902 8.30001C14.3302 7.56001 15.0602 7.20001 15.8202 7.20001C16.5802 7.20001 17.3402 7.58001 18.0702 8.31001C19.0902 9.33001 19.9202 10.93 18.0702 12.78L12.6202 18.23C12.3002 18.55 11.7402 18.83 11.2802 18.89L9.20022 19.18C9.10022 19.19 9.03022 19.21 8.93022 19.21ZM15.8302 8.70001C15.4902 8.70001 15.1102 8.92001 14.6602 9.36001L9.21022 14.81C9.12022 14.9 8.99022 15.16 8.97022 15.3L8.68022 17.38C8.66022 17.5 8.68022 17.6 8.73022 17.65C8.78022 17.7 8.88022 17.72 9.01022 17.7L11.0902 17.41C11.2202 17.39 11.4902 17.26 11.5802 17.17L17.0302 11.72C17.7902 10.96 18.0202 10.36 17.0302 9.37001C16.5902 8.92001 16.1902 8.70001 15.8402 8.70001H15.8302Z" fill="white"/> <path d="M16.7698 13.77C16.6998 13.77 16.6398 13.77 16.5698 13.74C14.6798 13.21 13.1698 11.71 12.6398 9.81001C12.5298 9.41001 12.7598 9.00001 13.1598 8.89001C13.5598 8.78001 13.9698 9.01001 14.0798 9.41001C14.4698 10.81 15.5798 11.91 16.9698 12.3C17.3698 12.41 17.5998 12.82 17.4898 13.22C17.3998 13.55 17.0998 13.77 16.7698 13.77Z" fill="white"/> <path d="M8.17982 11.51C7.78982 11.51 7.44982 11.24 7.35982 10.86L7.14982 9.94003C7.05982 9.56003 6.76982 9.27003 6.38982 9.18003L5.46982 8.97003C5.07982 8.88003 4.81982 8.54003 4.81982 8.14003C4.81982 7.74003 5.08982 7.41003 5.47982 7.32003L6.38982 7.11003C6.76982 7.02003 7.05982 6.73003 7.14982 6.35003L7.35982 5.43003C7.44982 5.05003 7.78982 4.78003 8.17982 4.78003C8.56982 4.78003 8.90982 5.05003 8.99982 5.43003L9.20982 6.35003C9.29982 6.72003 9.58982 7.02003 9.96982 7.11003L10.8898 7.32003C11.2698 7.41003 11.5398 7.75003 11.5398 8.14003C11.5398 8.53003 11.2698 8.87003 10.8898 8.96003L9.96982 9.17003C9.58982 9.26003 9.29982 9.55003 9.20982 9.93003L8.99982 10.85C8.90982 11.23 8.56982 11.51 8.17982 11.51ZM7.64982 8.14003C7.84982 8.29003 8.02982 8.47003 8.17982 8.67003C8.32982 8.47003 8.50982 8.29003 8.70982 8.14003C8.50982 7.99003 8.32982 7.81003 8.17982 7.61003C8.02982 7.81003 7.84982 7.99003 7.64982 8.14003Z" fill="white"/> </g> <defs> <clipPath id="clip0_3111_19720"> <rect width="24" height="24" fill="white"/> </clipPath> </defs> </svg>
