<svg width="24" height="24" viewBox="0 0 24 24" fill="none" xmlns="http://www.w3.org/2000/svg"> <g clip-path="url(#clip0_3111_19465)"> <path d="M6.27 21.53C5.85 21.53 5.5 21.24 5.41 20.84L5.11 19.51C4.95 18.83 4.44 18.31 3.76 18.15L2.43 17.83C2.03 17.74 1.75 17.38 1.75 16.96C1.75 16.54 2.04 16.19 2.44 16.1L3.77 15.8C4.45 15.64 4.97 15.13 5.13 14.45L5.45 13.12C5.55 12.72 5.9 12.44 6.31 12.44C6.72 12.44 7.08 12.73 7.17 13.13L7.48 14.46C7.64 15.14 8.15 15.66 8.83 15.82L10.16 16.14C10.56 16.24 10.84 16.59 10.84 17.01C10.84 17.43 10.56 17.78 10.15 17.87L8.82 18.18C8.14 18.34 7.62 18.85 7.46 19.53L7.14 20.86C7.04 21.26 6.68 21.53 6.27 21.53ZM4.87 16.97C5.48 17.29 5.97 17.78 6.28 18.39C6.6 17.78 7.09 17.29 7.7 16.98C7.09 16.66 6.6 16.17 6.29 15.56C5.97 16.17 5.48 16.66 4.87 16.97Z" fill="white"/> <path d="M19.3203 14.88C17.7603 14.88 16.4503 13.72 16.3303 12.25C16.2503 11.4 16.5603 10.56 17.1803 9.96003C17.7003 9.43003 18.4203 9.12003 19.2003 9.12003H21.3603C22.3703 9.16003 23.1503 9.95003 23.1503 10.93V13.07C23.1503 14.05 22.3803 14.84 21.3903 14.88H19.3303H19.3203ZM21.3303 10.62H19.2003C18.8303 10.62 18.4903 10.76 18.2403 11.02C17.9303 11.32 17.7903 11.72 17.8303 12.12C17.8903 12.82 18.5603 13.38 19.3303 13.38H21.3703C21.5203 13.38 21.6603 13.24 21.6603 13.07V10.93C21.6603 10.76 21.5203 10.63 21.3403 10.62H21.3303Z" fill="white"/> <path d="M13.5601 21.58C13.1501 21.58 12.8101 21.24 12.8101 20.83C12.8101 20.42 13.1501 20.08 13.5601 20.08H16.1601C18.8601 20.08 20.6101 18.33 20.6101 15.63V14.87H19.3201C17.7701 14.87 16.4501 13.71 16.3301 12.24C16.2501 11.39 16.5601 10.55 17.1801 9.95001C17.7001 9.42001 18.4201 9.11001 19.2001 9.11001H20.6101V8.35001C20.6101 5.91001 19.1701 4.22001 16.8601 3.95001C16.6101 3.91001 16.4001 3.90001 16.1701 3.90001H6.8001C6.5501 3.90001 6.3101 3.92001 6.0701 3.95001C3.7701 4.24001 2.3501 5.92001 2.3501 8.34001V10.42C2.3501 10.83 2.0101 11.17 1.6001 11.17C1.1901 11.17 0.850098 10.83 0.850098 10.42V8.34001C0.850098 5.15001 2.8201 2.84001 5.8601 2.46001C6.1501 2.42001 6.4701 2.39001 6.7901 2.39001H16.1401C16.5101 2.39001 16.7801 2.41001 17.0401 2.45001C20.0901 2.80001 22.0801 5.11001 22.0801 8.33001V9.84001C22.0801 10.25 21.7401 10.59 21.3301 10.59H19.1701C18.8001 10.59 18.4601 10.73 18.2101 10.99C17.9001 11.29 17.7601 11.69 17.7901 12.09C17.8501 12.79 18.5201 13.35 19.2901 13.35H21.3301C21.7401 13.35 22.0801 13.69 22.0801 14.1V15.61C22.0801 19.17 19.6901 21.56 16.1301 21.56L13.5601 21.58Z" fill="white"/> </g> <defs> <clipPath id="clip0_3111_19465"> <rect width="24" height="24" fill="white"/> </clipPath> </defs> </svg>
