<svg width="24" height="24" viewBox="0 0 24 24" fill="none" xmlns="http://www.w3.org/2000/svg"> <g clip-path="url(#clip0_4482_11811)"> <path d="M17.1203 22.75C15.0503 22.75 13.1503 21.71 12.0503 19.96C12.0303 19.94 12.0203 19.91 12.0103 19.88L11.9603 19.96C10.8503 21.71 8.9503 22.75 6.8903 22.75C4.8303 22.75 3.0603 21.71 2.0403 19.98C1.0303 18.26 1.0003 16.18 1.9803 14.44L8.0303 3.58C8.8303 2.14 10.3603 1.25 12.0003 1.25C13.6403 1.25 15.1703 2.14 15.9803 3.58L22.0403 14.43C23.0103 16.18 22.9903 18.25 21.9803 19.98C20.9603 21.71 19.1503 22.75 17.1303 22.75H17.1203ZM13.3603 19.22C14.1903 20.49 15.5903 21.25 17.1203 21.25C18.6503 21.25 19.9303 20.49 20.6803 19.22C21.4203 17.96 21.4403 16.44 20.7203 15.16L14.6603 4.32C14.1203 3.35 13.1003 2.75 11.9903 2.75C10.8803 2.75 9.8703 3.35 9.3303 4.32L3.2703 15.17C2.5603 16.45 2.5803 17.96 3.3203 19.22C4.0703 20.49 5.4003 21.25 6.8803 21.25C8.3603 21.25 9.8503 20.47 10.6903 19.16L11.1203 18.49L8.8003 14.86C8.0403 13.67 8.0003 12.22 8.6703 10.99C9.3503 9.76 10.5903 9.02 12.0003 9.02C13.4103 9.02 14.6503 9.76 15.3303 10.99C16.0103 12.23 15.9603 13.67 15.2103 14.87L12.9003 18.49L13.3203 19.15C13.3203 19.15 13.3503 19.2 13.3603 19.23V19.22ZM12.0003 10.52C11.1503 10.52 10.4003 10.96 9.9903 11.71C9.5803 12.46 9.6103 13.33 10.0703 14.05L12.0103 17.09L13.9403 14.05C14.4003 13.33 14.4303 12.45 14.0203 11.7C13.6103 10.95 12.8603 10.51 12.0103 10.51L12.0003 10.52Z" fill="white"/> </g> <defs> <clipPath id="clip0_4482_11811"> <rect width="24" height="24" fill="white"/> </clipPath> </defs> </svg>
