<svg width="24" height="24" viewBox="0 0 24 24" fill="none" xmlns="http://www.w3.org/2000/svg"> <g clip-path="url(#clip0_4418_7170)"> <path d="M17.03 19.7496H15.99C13.98 19.7496 13.01 18.8196 13.01 16.8996V5.09961C13.01 4.68961 13.35 4.34961 13.76 4.34961C14.17 4.34961 14.51 4.68961 14.51 5.09961V16.8996C14.51 17.9096 14.72 18.2496 15.99 18.2496H17.03C18.3 18.2496 18.51 17.9096 18.51 16.8996V5.09961C18.51 4.68961 18.85 4.34961 19.26 4.34961C19.67 4.34961 20.01 4.68961 20.01 5.09961V16.8996C20.01 18.8196 19.04 19.7496 17.03 19.7496Z" fill="white"/> <path d="M8.53001 14.7496H7.49001C5.48001 14.7496 4.51001 13.8196 4.51001 11.8996V5.09961C4.51001 4.68961 4.85001 4.34961 5.26001 4.34961C5.67001 4.34961 6.01001 4.68961 6.01001 5.09961V11.8996C6.01001 12.9096 6.22001 13.2496 7.49001 13.2496H8.53001C9.80001 13.2496 10.01 12.9096 10.01 11.8996V5.09961C10.01 4.68961 10.35 4.34961 10.76 4.34961C11.17 4.34961 11.51 4.68961 11.51 5.09961V11.8996C11.51 13.8196 10.54 14.7496 8.53001 14.7496Z" fill="white"/> <path d="M22 5.75H2C1.58 5.75 1.25 5.41 1.25 5C1.25 4.59 1.58 4.25 2 4.25H22C22.41 4.25 22.75 4.59 22.75 5C22.75 5.41 22.42 5.75 22 5.75Z" fill="white"/> </g> <defs> <clipPath id="clip0_4418_7170"> <rect width="24" height="24" fill="white"/> </clipPath> </defs> </svg>
