<svg width="24" height="24" viewBox="0 0 24 24" fill="none" xmlns="http://www.w3.org/2000/svg"> <g clip-path="url(#clip0_4482_9129)"> <path d="M15.7405 15.26C11.8805 15.26 8.73047 12.12 8.73047 8.25C8.73047 4.38 11.8805 1.25 15.7405 1.25C19.6005 1.25 22.7505 4.39 22.7505 8.26C22.7505 12.13 19.6105 15.27 15.7405 15.27V15.26ZM15.7405 2.75C12.7005 2.75 10.2305 5.22 10.2305 8.26C10.2305 11.3 12.7005 13.77 15.7405 13.77C18.7805 13.77 21.2505 11.3 21.2505 8.26C21.2505 5.22 18.7805 2.75 15.7405 2.75Z" fill="white"/> <path d="M4.93977 22.75C4.43977 22.75 3.95977 22.55 3.60977 22.2L1.80977 20.4C1.45977 20.05 1.25977 19.56 1.25977 19.07C1.25977 18.58 1.45977 18.09 1.80977 17.74L3.27977 16.27C3.56977 15.98 4.04977 15.98 4.33977 16.27C4.62977 16.56 4.62977 17.04 4.33977 17.33L2.86977 18.8C2.79977 18.87 2.75977 18.97 2.75977 19.07C2.75977 19.17 2.79977 19.27 2.86977 19.34L4.66977 21.14C4.81977 21.29 5.06977 21.29 5.21977 21.14L6.68977 19.67C6.97977 19.38 7.45977 19.38 7.74977 19.67C8.03977 19.96 8.03977 20.44 7.74977 20.73L6.27977 22.2C5.92977 22.55 5.43977 22.75 4.94977 22.75H4.93977Z" fill="white"/> <path d="M6.64984 15.8299C6.45984 15.8299 6.26984 15.7599 6.11984 15.6099C5.82984 15.3199 5.82984 14.8399 6.11984 14.5499L7.25984 13.4099C7.54984 13.1199 8.02984 13.1199 8.31984 13.4099C8.60984 13.6999 8.60984 14.1799 8.31984 14.4699L7.17984 15.6099C7.02984 15.7599 6.83984 15.8299 6.64984 15.8299Z" fill="white"/> <path d="M8.92035 18.0999C8.73035 18.0999 8.54035 18.0299 8.39035 17.8799C8.10035 17.5899 8.10035 17.1099 8.39035 16.8199L9.53035 15.6799C9.82035 15.3899 10.3004 15.3899 10.5904 15.6799C10.8804 15.9699 10.8804 16.4499 10.5904 16.7399L9.45035 17.8799C9.30035 18.0299 9.11035 18.0999 8.92035 18.0999Z" fill="white"/> <path d="M6.92004 10.9999C6.73004 10.9999 6.54004 10.9299 6.39004 10.7799L5.91004 10.2999C5.03004 9.41993 4.54004 8.23993 4.54004 6.98993C4.54004 5.73993 5.03004 4.56993 5.91004 3.67993L8.13004 1.45993C8.42004 1.16993 8.90004 1.16993 9.19004 1.45993C9.48004 1.74993 9.48004 2.22993 9.19004 2.51993L6.97004 4.73993C6.37004 5.33993 6.04004 6.13993 6.04004 6.98993C6.04004 7.83993 6.37004 8.63993 6.97004 9.23993L7.45004 9.71993C7.74004 10.0099 7.74004 10.4899 7.45004 10.7799C7.30004 10.9299 7.11004 10.9999 6.92004 10.9999Z" fill="white"/> <path d="M8.92016 21.7101C8.15016 21.7101 7.37016 21.4201 6.78016 20.8301L3.17016 17.2201C1.99016 16.0401 1.99016 14.1201 3.17016 12.9401L8.98016 7.14011C9.27016 6.85011 9.75016 6.85011 10.0402 7.14011C10.3302 7.43011 10.3302 7.91011 10.0402 8.20011L4.23016 14.0001C3.64016 14.5901 3.64016 15.5601 4.23016 16.1601L7.83016 19.7701C8.42016 20.3601 9.39016 20.3601 9.99016 19.7701L15.8002 13.9601C16.0902 13.6701 16.5702 13.6701 16.8602 13.9601C17.1502 14.2501 17.1502 14.7301 16.8602 15.0201L11.0502 20.8301C10.4602 21.4201 9.69016 21.7101 8.91016 21.7101H8.92016Z" fill="white"/> <path d="M15.7457 9.27997C15.4997 9.27997 15.2537 9.18503 15.0624 9.0087C14.8437 8.81881 14.7207 8.53397 14.7207 8.24914C14.7207 7.9643 14.8437 7.67946 15.0487 7.48957C15.445 7.13692 16.0464 7.12335 16.429 7.48957C16.6477 7.67946 16.7707 7.9643 16.7707 8.24914C16.7707 8.53397 16.6477 8.81881 16.4427 9.0087C16.2514 9.18503 16.0054 9.27997 15.7594 9.27997H15.7457Z" fill="white"/> </g> <defs> <clipPath id="clip0_4482_9129"> <rect width="24" height="24" fill="white"/> </clipPath> </defs> </svg>
