<svg width="24" height="24" viewBox="0 0 24 24" fill="none" xmlns="http://www.w3.org/2000/svg"> <g clip-path="url(#clip0_4418_7512)"> <path d="M4.93006 22.75C4.51006 22.75 4.12006 22.65 3.77006 22.45C3.00006 22 2.56006 21.09 2.56006 19.96V5.86C2.56006 3.32 4.63006 1.25 7.17006 1.25H16.8201C19.3601 1.25 21.4301 3.32 21.4301 5.86V19.95C21.4301 21.08 20.9901 21.99 20.2201 22.44C19.4501 22.89 18.4401 22.84 17.4501 22.29L12.5701 19.58C12.2801 19.42 11.7101 19.42 11.4201 19.58L6.54006 22.29C6.00006 22.59 5.45006 22.75 4.93006 22.75ZM7.18006 2.75C5.47006 2.75 4.07006 4.15 4.07006 5.86V19.95C4.07006 20.54 4.24006 20.98 4.54006 21.15C4.84006 21.32 5.31006 21.27 5.82006 20.98L10.7001 18.27C11.4401 17.86 12.5601 17.86 13.3001 18.27L18.1801 20.98C18.6901 21.27 19.1601 21.33 19.4601 21.15C19.7601 20.97 19.9301 20.53 19.9301 19.95V5.86C19.9301 4.15 18.5301 2.75 16.8201 2.75H7.18006Z" fill="white"/> <path d="M11.09 13.2495C10.9 13.2495 10.71 13.1795 10.56 13.0295L9.06003 11.5295C8.77003 11.2395 8.77003 10.7595 9.06003 10.4695C9.35003 10.1795 9.83003 10.1795 10.12 10.4695L11.09 11.4395L14.56 7.96945C14.85 7.67945 15.33 7.67945 15.62 7.96945C15.91 8.25945 15.91 8.73945 15.62 9.02945L11.62 13.0295C11.47 13.1795 11.28 13.2495 11.09 13.2495Z" fill="white"/> </g> <defs> <clipPath id="clip0_4418_7512"> <rect width="24" height="24" fill="white"/> </clipPath> </defs> </svg>
