<svg width="24" height="24" viewBox="0 0 24 24" fill="none" xmlns="http://www.w3.org/2000/svg"> <g clip-path="url(#clip0_2085_381654)"> <path d="M12 22.75C11.59 22.75 11.25 22.41 11.25 22V7C11.25 6.59 11.59 6.25 12 6.25C12.41 6.25 12.75 6.59 12.75 7V22C12.75 22.41 12.41 22.75 12 22.75Z" fill="white"/> <path d="M7 12.75C3.83 12.75 1.25 10.17 1.25 7C1.25 3.83 3.83 1.25 7 1.25C10.17 1.25 12.75 3.83 12.75 7C12.75 7.41 12.41 7.75 12 7.75C11.59 7.75 11.25 7.41 11.25 7C11.25 4.66 9.34 2.75 7 2.75C4.66 2.75 2.75 4.66 2.75 7C2.75 9.34 4.66 11.25 7 11.25C7.41 11.25 7.75 11.59 7.75 12C7.75 12.41 7.41 12.75 7 12.75Z" fill="white"/> <path d="M17 12.75C16.59 12.75 16.25 12.41 16.25 12C16.25 11.59 16.59 11.25 17 11.25C19.34 11.25 21.25 9.34 21.25 7C21.25 4.66 19.34 2.75 17 2.75C14.66 2.75 12.75 4.66 12.75 7C12.75 7.41 12.41 7.75 12 7.75C11.59 7.75 11.25 7.41 11.25 7C11.25 3.83 13.83 1.25 17 1.25C20.17 1.25 22.75 3.83 22.75 7C22.75 10.17 20.17 12.75 17 12.75Z" fill="white"/> </g> <defs> <clipPath id="clip0_2085_381654"> <rect width="24" height="24" fill="white"/> </clipPath> </defs> </svg>
