<svg width="24" height="24" viewBox="0 0 24 24" fill="none" xmlns="http://www.w3.org/2000/svg"> <g clip-path="url(#clip0_4482_5109)"> <path d="M20.5902 15.7501C20.5102 15.8801 20.4302 16.0101 20.3402 16.1301C20.3402 16.1301 19.3103 17.3301 18.9203 17.6801C15.1703 20.9501 9.94022 22.0701 5.00022 21.6801C3.33022 20.7301 3.00024 18.5801 2.77024 17.3701C2.61024 16.7401 2.58025 16.1101 2.53025 15.4801C2.51025 15.1601 2.51024 14.8501 2.52024 14.5401C2.54024 13.8701 2.6202 13.1901 2.7302 12.5301C2.8102 12.0601 2.90021 11.6001 2.99021 11.1201C3.06021 10.8101 3.1402 10.5001 3.2302 10.2101C3.6402 8.84015 4.32018 6.61014 4.71018 5.23014L4.88022 4.62013C4.88022 4.62013 5.19021 3.95013 5.24021 3.90013C5.75021 3.00013 7.36017 2.53013 8.33017 2.37013C9.00017 2.28013 9.73025 2.15015 10.4103 2.32015C11.2503 2.52015 11.7302 3.44014 11.4902 4.27014C10.9702 6.12014 10.2702 6.57013 9.02024 6.54013C8.69024 6.53013 8.31026 6.58015 7.79026 6.74015C7.57026 6.81015 7.42018 7.06013 7.46018 7.29013C7.69018 8.77013 8.58026 11.3701 8.04026 14.4001C8.01026 14.5801 8.2402 14.7001 8.3602 14.5701C8.8302 14.0701 9.63017 13.4901 10.8302 13.4901C11.5802 13.4901 12.3402 13.5201 13.0302 13.8301C12.5602 12.6301 12.7503 11.2601 13.4303 10.1901C13.7403 9.70014 14.1702 9.37014 14.6302 9.02014C15.1202 8.66014 15.7702 8.45014 16.3702 8.36014C17.5602 8.20014 18.8102 8.51014 19.7602 9.23014C20.7402 9.97014 21.3402 11.0901 21.4602 12.3101C21.5902 13.5301 21.2302 14.7201 20.5902 15.7501Z" stroke="white" stroke-width="1.5" stroke-miterlimit="10" stroke-linecap="round" stroke-linejoin="round"/> <path d="M14.5201 14.8596C14.0801 14.3796 13.5202 14.0696 12.9302 13.8096" stroke="white" stroke-width="1.5" stroke-miterlimit="10" stroke-linecap="round" stroke-linejoin="round"/> <path d="M10.29 13.5498C10.28 13.5498 10.28 13.5498 10.27 13.5598" stroke="white" stroke-width="1.5" stroke-miterlimit="10" stroke-linecap="round" stroke-linejoin="round"/> </g> <defs> <clipPath id="clip0_4482_5109"> <rect width="24" height="24" fill="white"/> </clipPath> </defs> </svg>
