<svg width="24" height="24" viewBox="0 0 24 24" fill="none" xmlns="http://www.w3.org/2000/svg"> <g clip-path="url(#clip0_2085_390800)"> <path d="M21.9998 17.7001C21.7798 17.7001 21.5598 17.6201 21.3898 17.4501L11.9898 8.05011L2.60984 17.4501C2.26984 17.7801 1.72984 17.7801 1.39984 17.4501C1.06984 17.1201 1.06984 16.5701 1.39984 16.2401L10.8598 6.78011C10.9798 6.65011 11.1698 6.5201 11.3598 6.4301C11.7698 6.2501 12.2398 6.2601 12.6298 6.4301C12.8298 6.5201 13.0198 6.65011 13.1598 6.80011L22.5998 16.2401C22.9298 16.5701 22.9298 17.1201 22.5998 17.4501C22.4298 17.6201 22.2098 17.7001 21.9898 17.7001H21.9998Z" fill="white"/> </g> <defs> <clipPath id="clip0_2085_390800"> <rect width="24" height="24" fill="white"/> </clipPath> </defs> </svg>
