<svg width="24" height="24" viewBox="0 0 24 24" fill="none" xmlns="http://www.w3.org/2000/svg"> <g clip-path="url(#clip0_2085_390802)"> <path d="M16.6202 13.6305C16.4002 13.6305 16.1802 13.5505 16.0102 13.3805L12.0002 9.37055L7.99021 13.3805C7.65021 13.7105 7.11021 13.7105 6.78021 13.3805C6.45021 13.0505 6.45021 12.5005 6.78021 12.1705L11.4002 7.55055C11.7202 7.23055 12.2902 7.23055 12.6102 7.55055L17.2302 12.1705C17.5602 12.5005 17.5602 13.0505 17.2302 13.3805C17.0602 13.5505 16.8402 13.6305 16.6202 13.6305Z" fill="white"/> <path d="M11.9996 22.861C11.5296 22.861 11.1396 22.481 11.1396 22.001V8.15102C11.1396 7.68102 11.5196 7.29102 11.9996 7.29102C12.4796 7.29102 12.8596 7.67102 12.8596 8.15102V22.001C12.8596 22.471 12.4796 22.861 11.9996 22.861Z" fill="white"/> <path d="M17.3798 2.86062H6.61977C6.14977 2.86062 5.75977 2.48063 5.75977 2.00063C5.75977 1.52063 6.13977 1.14062 6.61977 1.14062H17.3898C17.8598 1.14062 18.2498 1.52063 18.2498 2.00063C18.2498 2.48063 17.8698 2.86062 17.3898 2.86062H17.3798Z" fill="white"/> </g> <defs> <clipPath id="clip0_2085_390802"> <rect width="24" height="24" fill="white"/> </clipPath> </defs> </svg>
