<svg width="24" height="24" viewBox="0 0 24 24" fill="none" xmlns="http://www.w3.org/2000/svg"> <g clip-path="url(#clip0_2085_390798)"> <path d="M16.8498 22.8601C16.6298 22.8601 16.4098 22.7801 16.2398 22.6101L6.7798 13.1401C6.6398 13.0101 6.5198 12.8401 6.4298 12.6401C6.3398 12.4201 6.2998 12.2101 6.2998 12.0001C6.2998 11.7901 6.3398 11.5701 6.4298 11.3701C6.5198 11.1601 6.6498 10.9801 6.8098 10.8301L16.2398 1.39008C16.5798 1.06008 17.1198 1.06008 17.4498 1.39008C17.7798 1.72008 17.7798 2.27008 17.4498 2.60008L8.0498 12.0001L17.4498 21.3901C17.7798 21.7201 17.7798 22.2701 17.4498 22.6001C17.2798 22.7701 17.0598 22.8501 16.8398 22.8501L16.8498 22.8601Z" fill="white"/> </g> <defs> <clipPath id="clip0_2085_390798"> <rect width="24" height="24" fill="white"/> </clipPath> </defs> </svg>
