<svg width="24" height="24" viewBox="0 0 24 24" fill="none" xmlns="http://www.w3.org/2000/svg"> <g clip-path="url(#clip0_2085_385907)"> <path d="M12.0002 22.7499C7.30021 22.7499 3.47021 18.9199 3.47021 14.2199C3.47021 9.51994 7.30021 5.68994 12.0002 5.68994C16.7002 5.68994 20.5302 9.51994 20.5302 14.2199C20.5302 18.9199 16.7002 22.7499 12.0002 22.7499ZM12.0002 7.18994C8.12021 7.18994 4.97021 10.3399 4.97021 14.2199C4.97021 18.0999 8.12021 21.2499 12.0002 21.2499C15.8802 21.2499 19.0302 18.0999 19.0302 14.2199C19.0302 10.3399 15.8802 7.18994 12.0002 7.18994Z" fill="white"/> <path d="M17.57 9.55C17.48 9.55 17.39 9.53 17.3 9.5C16.91 9.35 16.72 8.92 16.87 8.53L17.74 6.26C18.05 5.47 17.94 4.57 17.46 3.87C16.98 3.17 16.18 2.75 15.33 2.75H8.66998C7.81998 2.75 7.01998 3.17 6.53998 3.87C6.05998 4.57 5.94998 5.47 6.25998 6.26L7.12998 8.53C7.27998 8.92 7.08998 9.35 6.69998 9.5C6.30998 9.65 5.87998 9.46 5.72998 9.07L4.85998 6.8C4.37998 5.54 4.53998 4.13 5.30998 3.02C6.06998 1.91 7.32998 1.25 8.67998 1.25H15.34C16.69 1.25 17.94 1.91 18.71 3.02C19.47 4.13 19.64 5.54 19.15 6.8L18.28 9.07C18.17 9.37 17.88 9.55 17.58 9.55H17.57Z" fill="white"/> </g> <defs> <clipPath id="clip0_2085_385907"> <rect width="24" height="24" fill="white"/> </clipPath> </defs> </svg>
