<svg width="24" height="24" viewBox="0 0 24 24" fill="none" xmlns="http://www.w3.org/2000/svg"> <g clip-path="url(#clip0_2085_381854)"> <path d="M14.7301 13.25C14.0101 13.23 13.3801 12.92 12.9701 12.38C12.7201 12.05 12.7801 11.58 13.1001 11.33C13.4301 11.08 13.9001 11.14 14.1501 11.46C14.2901 11.64 14.5101 11.75 14.7401 11.76C14.9401 11.76 15.1501 11.65 15.2901 11.46C15.5401 11.13 16.0101 11.07 16.3401 11.32C16.6701 11.57 16.7301 12.04 16.4801 12.37C16.0601 12.92 15.4201 13.24 14.7301 13.25Z" fill="white"/> <path d="M9.29013 13.25C8.57013 13.23 7.93013 12.92 7.51013 12.38C7.26013 12.05 7.32013 11.58 7.64013 11.33C7.97013 11.08 8.44013 11.13 8.69013 11.46C8.83013 11.64 9.05013 11.75 9.29013 11.76C9.48013 11.76 9.70013 11.65 9.84013 11.46C10.0901 11.13 10.5601 11.07 10.8901 11.32C11.2201 11.57 11.2801 12.04 11.0301 12.37C10.6101 12.92 9.97013 13.24 9.29013 13.25Z" fill="white"/> <path d="M12 17.6498C11.03 17.6498 10.06 17.3098 9.27999 16.6398C8.96999 16.3698 8.93999 15.8898 9.20999 15.5798C9.47999 15.2698 9.95999 15.2398 10.27 15.5098C11.26 16.3698 12.74 16.3698 13.73 15.5098C14.04 15.2398 14.51 15.2698 14.79 15.5798C15.06 15.8898 15.03 16.3698 14.72 16.6398C13.95 17.3098 12.98 17.6498 12 17.6498Z" fill="white"/> <path d="M16.8698 9.58C16.1498 9.58 15.4698 9.34 14.9398 8.84L13.3198 7.33C13.0198 7.05 12.9998 6.57 13.2798 6.27C13.5598 5.97 14.0398 5.95 14.3398 6.23L15.9598 7.74C16.2498 8.01 16.6498 8.14 17.0398 8.09C17.4398 8.04 17.7898 7.82 17.9998 7.49L18.1598 7.25C18.4598 6.8 18.6198 6.27 18.6198 5.72C18.6198 5.17 18.4598 4.64 18.1598 4.18L18.0098 3.95C17.7898 3.62 17.4398 3.4 17.0398 3.35C16.6398 3.31 16.2498 3.43 15.9598 3.7L14.3398 5.21C14.0398 5.49 13.5598 5.48 13.2798 5.17C12.9998 4.87 13.0098 4.39 13.3198 4.11L14.9398 2.6C15.5498 2.03 16.3798 1.76 17.2198 1.85C18.0598 1.95 18.7998 2.41 19.2598 3.12L19.4098 3.35C19.8698 4.05 20.1198 4.87 20.1198 5.71C20.1198 6.55 19.8798 7.37 19.4098 8.07L19.2498 8.3C18.7898 9 18.0498 9.46 17.2098 9.56C17.0998 9.57 16.9798 9.58 16.8698 9.58Z" fill="white"/> <path d="M7.11988 9.59998C7.00988 9.59998 6.88988 9.59998 6.77988 9.57998C5.93988 9.47998 5.19988 9.01998 4.73988 8.30998L4.58988 8.07998C4.12988 7.37998 3.87988 6.55998 3.87988 5.71998C3.87988 4.87998 4.11988 4.05998 4.58988 3.35998L4.74988 3.11998C5.20988 2.41998 5.94988 1.95998 6.78988 1.85998C7.62988 1.74998 8.45988 2.02998 9.06988 2.59998L10.6899 4.10998C10.9899 4.38998 11.0099 4.86998 10.7299 5.16998C10.4499 5.46998 9.96988 5.48998 9.66988 5.20998L8.04988 3.69998C7.75988 3.42998 7.36988 3.29998 6.96988 3.34998C6.57988 3.39998 6.21988 3.61998 6.00988 3.94998L5.84988 4.18998C5.54988 4.64998 5.38988 5.17998 5.38988 5.71998C5.38988 6.25998 5.54988 6.79998 5.84988 7.24998L5.99988 7.47998C6.21988 7.80998 6.56988 8.02998 6.96988 8.07998C7.36988 8.11998 7.75988 7.99998 8.04988 7.72998L9.66988 6.21998C9.96988 5.93998 10.4099 5.96344 10.6899 6.27344C10.9699 6.57344 10.9999 7.03998 10.6899 7.31998L9.06988 8.82998C8.53988 9.32998 7.84988 9.58998 7.12988 9.58998L7.11988 9.59998Z" fill="white"/> <path d="M12.0001 8.59984C10.4301 8.59984 9.14014 7.30984 9.14014 5.71984C9.14014 4.12984 10.4201 2.83984 12.0001 2.83984C13.5801 2.83984 14.8601 4.12984 14.8601 5.71984C14.8601 7.30984 13.5801 8.59984 12.0001 8.59984ZM12.0001 4.34984C11.2501 4.34984 10.6401 4.96984 10.6401 5.72984C10.6401 6.48984 11.2501 7.10984 12.0001 7.10984C12.7501 7.10984 13.3601 6.48984 13.3601 5.72984C13.3601 4.96984 12.7501 4.34984 12.0001 4.34984Z" fill="white"/> <path d="M1.25 13.0626C1.25017 11.722 2.14248 10.5868 3.38086 10.2218C3.70428 9.24348 4.1909 8.31998 4.82812 7.50203C5.08266 7.17531 5.55411 7.11671 5.88086 7.37117C6.2076 7.62572 6.26625 8.09715 6.01172 8.4239C5.40412 9.2038 4.958 10.1045 4.69336 11.0626C4.61206 11.3569 4.35995 11.5722 4.05664 11.6075C3.30948 11.6942 2.7502 12.319 2.75 13.0626C2.75 13.765 3.2453 14.3597 3.91406 14.4962L4.0498 14.5177L4.16211 14.5382C4.41834 14.606 4.62359 14.8061 4.69434 15.0675C5.58595 18.36 8.57872 20.6534 12 20.6534C15.4213 20.6534 18.414 18.36 19.3057 15.0675L19.3447 14.9591C19.452 14.7169 19.6812 14.5465 19.9502 14.5177C20.6866 14.4387 21.25 13.8118 21.25 13.0626C21.2498 12.319 20.6905 11.6942 19.9434 11.6075C19.6401 11.5722 19.3879 11.3569 19.3066 11.0626C19.042 10.1045 18.5959 9.2038 17.9883 8.4239C17.7337 8.09715 17.7924 7.62572 18.1191 7.37117C18.4459 7.11671 18.9173 7.17531 19.1719 7.50203C19.809 8.3199 20.2947 9.24359 20.6182 10.2218C21.857 10.5865 22.7498 11.7217 22.75 13.0626C22.75 14.3975 21.862 15.5456 20.6182 15.9063C19.4079 19.6118 15.9416 22.1534 12 22.1534C8.0583 22.1534 4.59106 19.6119 3.38086 15.9063C2.13749 15.5453 1.25 14.3972 1.25 13.0626Z" fill="white"/> </g> <defs> <clipPath id="clip0_2085_381854"> <rect width="24" height="24" fill="white"/> </clipPath> </defs> </svg>
