<svg width="24" height="24" viewBox="0 0 24 24" fill="none" xmlns="http://www.w3.org/2000/svg"> <g clip-path="url(#clip0_2085_390642)"> <path d="M15.2498 22.6998H8.7498C6.7098 22.6998 5.0498 21.0398 5.0498 18.9998V8.4298C5.0498 5.8698 7.1298 3.7998 9.6798 3.7998H14.3198C16.8798 3.7998 18.9498 5.8798 18.9498 8.4298V18.9998C18.9498 21.0398 17.2898 22.6998 15.2498 22.6998ZM9.6798 5.1998C7.8998 5.1998 6.4498 6.6498 6.4498 8.4298V18.9998C6.4498 20.2698 7.4798 21.2998 8.7498 21.2998H15.2498C16.5198 21.2998 17.5498 20.2698 17.5498 18.9998V8.4298C17.5498 6.6498 16.0998 5.1998 14.3198 5.1998H9.6798Z" fill="white"/> <path d="M18.95 14.5H17.54V11.96C17.54 9.61004 15.63 7.70004 13.28 7.70004H10.71C8.36004 7.70004 6.45004 9.61004 6.45004 11.96V14.5H5.04004V11.96C5.04004 8.84004 7.58004 6.29004 10.71 6.29004H13.28C16.4 6.29004 18.95 8.83004 18.95 11.96V14.5Z" fill="white"/> <path d="M18.0999 10.0498H5.8999V11.4598H18.0999V10.0498Z" fill="white"/> <path d="M8.9598 10.75H7.5498V19.5H8.9598V10.75Z" fill="white"/> <path d="M18.1 18.7998H5.75V20.2098H18.1V18.7998Z" fill="white"/> <path d="M14.49 5.1998H9.49004C9.10004 5.1998 8.79004 4.8898 8.79004 4.4998V2.8998C8.79004 2.0198 9.51004 1.2998 10.39 1.2998H13.6C14.48 1.2998 15.2 2.0198 15.2 2.8998V4.4998C15.2 4.8898 14.89 5.1998 14.5 5.1998H14.49ZM10.2 3.7998H13.79V2.8998C13.79 2.7898 13.7 2.7098 13.6 2.7098H10.39C10.28 2.7098 10.2 2.7998 10.2 2.8998V3.7998Z" fill="white"/> <path d="M5.7498 20.1998H5.2498C3.7598 20.1998 2.5498 18.9898 2.5498 17.4998V15.0798C2.5498 13.6798 3.6898 12.5498 5.0798 12.5498H5.7498C6.1398 12.5498 6.4498 12.8598 6.4498 13.2498V19.4998C6.4498 19.8898 6.1398 20.1998 5.7498 20.1998ZM5.0498 13.9498C4.4398 13.9698 3.9598 14.4598 3.9598 15.0698V17.4898C3.9598 18.1398 4.4298 18.6698 5.0498 18.7698V13.9398V13.9498Z" fill="white"/> <path d="M18.7498 20.1998H18.2498C17.8598 20.1998 17.5498 19.8898 17.5498 19.4998V13.2498C17.5498 12.8598 17.8598 12.5498 18.2498 12.5498H18.9198C20.3198 12.5498 21.4498 13.6898 21.4498 15.0798V17.4998C21.4498 18.9898 20.2398 20.1998 18.7498 20.1998ZM18.9498 13.9498V18.7798C19.5698 18.6798 20.0398 18.1498 20.0398 17.4998V15.0798C20.0398 14.4698 19.5498 13.9698 18.9498 13.9598V13.9498Z" fill="white"/> </g> <defs> <clipPath id="clip0_2085_390642"> <rect width="24" height="24" fill="white"/> </clipPath> </defs> </svg>
