<svg width="24" height="24" viewBox="0 0 24 24" fill="none" xmlns="http://www.w3.org/2000/svg"> <g clip-path="url(#clip0_4418_7152)"> <path d="M18.85 11.75H16.15C13.49 11.75 12.25 10.51 12.25 7.85001V5.14999C12.25 2.48999 13.49 1.25 16.15 1.25H18.85C21.51 1.25 22.75 2.48999 22.75 5.14999V7.85001C22.75 10.51 21.51 11.75 18.85 11.75ZM16.15 2.75C14.31 2.75 13.75 3.30999 13.75 5.14999V7.85001C13.75 9.69001 14.31 10.25 16.15 10.25H18.85C20.69 10.25 21.25 9.69001 21.25 7.85001V5.14999C21.25 3.30999 20.69 2.75 18.85 2.75H16.15Z" fill="white"/> <path d="M7.85 22.75H5.15C2.49 22.75 1.25 21.51 1.25 18.85V16.15C1.25 13.49 2.49 12.25 5.15 12.25H7.85C10.51 12.25 11.75 13.49 11.75 16.15V18.85C11.75 21.51 10.51 22.75 7.85 22.75ZM5.15 13.75C3.31 13.75 2.75 14.31 2.75 16.15V18.85C2.75 20.69 3.31 21.25 5.15 21.25H7.85C9.69 21.25 10.25 20.69 10.25 18.85V16.15C10.25 14.31 9.69 13.75 7.85 13.75H5.15Z" fill="white"/> <path d="M13.6201 18.1292H11.0001C10.5901 18.1292 10.2501 17.7892 10.2501 17.3792V16.1491C10.2501 14.3091 9.69011 13.7491 7.85011 13.7491H6.62012C6.21012 13.7491 5.87012 13.4091 5.87012 12.9991V10.3792C5.87012 7.25915 7.26011 5.86914 10.3801 5.86914H13.0001C13.4101 5.86914 13.7501 6.20914 13.7501 6.61914V7.84915C13.7501 9.68915 14.3101 10.2491 16.1501 10.2491H17.3801C17.7901 10.2491 18.1301 10.5891 18.1301 10.9991V13.6191C18.1301 16.7391 16.7401 18.1292 13.6201 18.1292ZM11.7501 16.6292H13.6201C15.9001 16.6292 16.6301 15.8991 16.6301 13.6191V11.7491H16.1501C13.4901 11.7491 12.2501 10.5092 12.2501 7.84915V7.36914H10.3801C8.10011 7.36914 7.37012 8.09915 7.37012 10.3792V12.2491H7.85011C10.5101 12.2491 11.7501 13.4891 11.7501 16.1491V16.6292Z" fill="white"/> </g> <defs> <clipPath id="clip0_4418_7152"> <rect width="24" height="24" fill="white"/> </clipPath> </defs> </svg>
