<svg width="24" height="24" viewBox="0 0 24 24" fill="none" xmlns="http://www.w3.org/2000/svg"> <g clip-path="url(#clip0_4482_7533)"> <path d="M5.22035 22C6.38567 22 7.33035 21.0553 7.33035 19.89C7.33035 18.7247 6.38567 17.78 5.22035 17.78C4.05503 17.78 3.11035 18.7247 3.11035 19.89C3.11035 21.0553 4.05503 22 5.22035 22Z" stroke="white" stroke-width="1.5" stroke-linecap="round" stroke-linejoin="round"/> <path d="M16.8004 22C17.9658 22 18.9104 21.0553 18.9104 19.89C18.9104 18.7247 17.9658 17.78 16.8004 17.78C15.6351 17.78 14.6904 18.7247 14.6904 19.89C14.6904 21.0553 15.6351 22 16.8004 22Z" stroke="white" stroke-width="1.5" stroke-linecap="round" stroke-linejoin="round"/> <path d="M22.0596 4.11H21.0096C19.8496 4.11 18.8996 5.05 18.8996 6.22V15.68C18.8996 16.84 17.9596 17.79 16.7896 17.79H2.05957" stroke="white" stroke-width="1.5" stroke-linecap="round" stroke-linejoin="round"/> <g opacity="0.4"> <path d="M12.2693 5.68V4C12.2693 2.9 11.3693 2 10.2693 2H7.5293C6.4293 2 5.5293 2.9 5.5293 4V5.68" stroke="white" stroke-width="1.5" stroke-linecap="round" stroke-linejoin="round"/> <path d="M12.7396 5.67999H5.05957C3.40272 5.67999 2.05957 7.02314 2.05957 8.67999V11.63C2.05957 13.2868 3.40272 14.63 5.05957 14.63H12.7396C14.3964 14.63 15.7396 13.2868 15.7396 11.63V8.67999C15.7396 7.02314 14.3964 5.67999 12.7396 5.67999Z" stroke="white" stroke-width="1.5" stroke-linecap="round" stroke-linejoin="round"/> </g> </g> <defs> <clipPath id="clip0_4482_7533"> <rect width="24" height="24" fill="white"/> </clipPath> </defs> </svg>
