<svg width="24" height="24" viewBox="0 0 24 24" fill="none" xmlns="http://www.w3.org/2000/svg"> <g clip-path="url(#clip0_655_6975)"> <path d="M12 22.75C6.62 22.75 2.25 18.38 2.25 13C2.25 7.62 6.62 3.25 12 3.25C17.38 3.25 21.75 7.62 21.75 13C21.75 18.38 17.38 22.75 12 22.75ZM12 4.75C7.45 4.75 3.75 8.45 3.75 13C3.75 17.55 7.45 21.25 12 21.25C16.55 21.25 20.25 17.55 20.25 13C20.25 8.45 16.55 4.75 12 4.75Z" fill="white"/> <path d="M12 4.75C11.59 4.75 11.25 4.41 11.25 4V2C11.25 1.59 11.59 1.25 12 1.25C12.41 1.25 12.75 1.59 12.75 2V4C12.75 4.41 12.41 4.75 12 4.75Z" fill="white"/> <path d="M17.9995 19.75C17.8095 19.75 17.6195 19.68 17.4695 19.53L5.46945 7.53C5.17945 7.24 5.17945 6.76 5.46945 6.47C5.75945 6.18 6.23945 6.18 6.52945 6.47L18.5295 18.47C18.8195 18.76 18.8195 19.24 18.5295 19.53C18.3795 19.68 18.1895 19.75 17.9995 19.75Z" fill="white"/> <path d="M20.7006 16.05C20.5106 16.05 20.3206 15.98 20.1706 15.83L9.17063 4.82999C8.88063 4.53999 8.88063 4.05999 9.17063 3.76999C9.46062 3.47999 9.94062 3.47999 10.2306 3.76999L21.2306 14.77C21.5206 15.06 21.5206 15.54 21.2306 15.83C21.0806 15.98 20.8906 16.05 20.7006 16.05Z" fill="white"/> <path d="M14.3002 22.45C14.1102 22.45 13.9202 22.38 13.7702 22.23L2.77023 11.23C2.48023 10.94 2.48023 10.46 2.77023 10.17C3.06023 9.88001 3.54023 9.88001 3.83023 10.17L14.8302 21.17C15.1202 21.46 15.1202 21.94 14.8302 22.23C14.6802 22.38 14.4902 22.45 14.3002 22.45Z" fill="white"/> </g> <defs> <clipPath id="clip0_655_6975"> <rect width="24" height="24" fill="white"/> </clipPath> </defs> </svg>
