<svg width="24" height="24" viewBox="0 0 24 24" fill="none" xmlns="http://www.w3.org/2000/svg"> <g clip-path="url(#clip0_655_6987)"> <path d="M19.1108 5.64C18.9208 5.64 18.7308 5.57 18.5808 5.42C18.2908 5.13 18.2908 4.65 18.5808 4.36L21.4708 1.47C21.7608 1.18 22.2408 1.18 22.5308 1.47C22.8208 1.76 22.8208 2.24 22.5308 2.53L19.6408 5.42C19.4908 5.57 19.3008 5.64 19.1108 5.64Z" fill="white"/> <path d="M12.0005 22.75C9.25055 22.75 6.49055 21.7 4.39055 19.6C0.200547 15.41 0.200547 8.59 4.39055 4.39C8.59055 0.199997 15.4105 0.199997 19.6105 4.39C23.8005 8.58 23.8005 15.41 19.6105 19.6C17.5105 21.7 14.7605 22.75 12.0005 22.75ZM5.45055 18.55C9.06055 22.16 14.9305 22.16 18.5405 18.55C22.1505 14.94 22.1505 9.07 18.5405 5.46C14.9305 1.85 9.06055 1.85 5.45055 5.46C1.84055 9.07 1.84055 14.94 5.45055 18.55Z" fill="white"/> <path d="M12.4009 15.62C11.0809 15.62 9.90088 15.23 9.37088 14.97C9.22088 14.9 9.10088 14.78 9.03088 14.63C8.52088 13.61 7.57088 10.21 9.74088 8.03C10.8209 6.95 12.5809 6.95 13.6709 8.03C14.0809 8.44 14.3509 8.98 14.4509 9.55C15.0209 9.64 15.5509 9.91 15.9709 10.33C17.0509 11.41 17.0509 13.17 15.9709 14.26C14.9309 15.3 13.6109 15.63 12.4009 15.63V15.62ZM10.2809 13.73C11.3409 14.16 13.6009 14.51 14.9109 13.19C15.4109 12.69 15.4109 11.88 14.9109 11.38C14.6309 11.1 14.2309 10.96 13.8309 11.02C13.6009 11.06 13.3609 10.98 13.1909 10.81C13.0209 10.64 12.9409 10.41 12.9809 10.17C13.0409 9.77 12.9009 9.37 12.6209 9.09C12.1209 8.59 11.3109 8.59 10.8109 9.09C9.49088 10.41 9.85088 12.66 10.2709 13.72L10.2809 13.73Z" fill="white"/> </g> <defs> <clipPath id="clip0_655_6987"> <rect width="24" height="24" fill="white"/> </clipPath> </defs> </svg>
