<svg width="24" height="24" viewBox="0 0 24 24" fill="none" xmlns="http://www.w3.org/2000/svg"> <g clip-path="url(#clip0_4482_10170)"> <path d="M17.2305 22.2002C16.8205 22.2002 16.4805 21.8602 16.4805 21.4502V9.4502C16.4805 8.7602 15.9205 8.2002 15.2305 8.2002H9.23047C8.54047 8.2002 7.98047 8.7602 7.98047 9.4502V21.4502C7.98047 21.8602 7.64047 22.2002 7.23047 22.2002C6.82047 22.2002 6.48047 21.8602 6.48047 21.4502V9.4502C6.48047 7.9302 7.71047 6.7002 9.23047 6.7002H15.2305C16.7505 6.7002 17.9805 7.9302 17.9805 9.4502V21.4502C17.9805 21.8602 17.6405 22.2002 17.2305 22.2002Z" fill="white"/> <path d="M14.2305 8.2002C13.8205 8.2002 13.4805 7.8602 13.4805 7.4502V5.4502C13.4805 5.3102 13.3705 5.2002 13.2305 5.2002H11.2305C11.0905 5.2002 10.9805 5.3102 10.9805 5.4502V7.4502C10.9805 7.8602 10.6405 8.2002 10.2305 8.2002C9.82047 8.2002 9.48047 7.8602 9.48047 7.4502V5.4502C9.48047 4.4902 10.2705 3.7002 11.2305 3.7002H13.2305C14.1905 3.7002 14.9805 4.4902 14.9805 5.4502V7.4502C14.9805 7.8602 14.6405 8.2002 14.2305 8.2002Z" fill="white"/> <path d="M12.2305 5.2002C11.8205 5.2002 11.4805 4.8602 11.4805 4.4502V2.4502C11.4805 2.0402 11.8205 1.7002 12.2305 1.7002C12.6405 1.7002 12.9805 2.0402 12.9805 2.4502V4.4502C12.9805 4.8602 12.6405 5.2002 12.2305 5.2002Z" fill="white"/> <path d="M19.2305 22.2002H5.23047C3.71047 22.2002 2.48047 20.9702 2.48047 19.4502V12.4502C2.48047 10.9302 3.71047 9.7002 5.23047 9.7002H7.23047C7.64047 9.7002 7.98047 10.0402 7.98047 10.4502V20.7002H16.4805V10.4502C16.4805 10.0402 16.8205 9.7002 17.2305 9.7002H19.2305C20.7505 9.7002 21.9805 10.9302 21.9805 12.4502V19.4502C21.9805 20.9702 20.7505 22.2002 19.2305 22.2002ZM17.9805 20.7002H19.2305C19.9205 20.7002 20.4805 20.1402 20.4805 19.4502V12.4502C20.4805 11.7602 19.9205 11.2002 19.2305 11.2002H17.9805V20.7002ZM5.23047 11.2002C4.54047 11.2002 3.98047 11.7602 3.98047 12.4502V19.4502C3.98047 20.1402 4.54047 20.7002 5.23047 20.7002H6.48047V11.2002H5.23047Z" fill="white"/> <path d="M14.2305 14.2002H10.2305C9.82047 14.2002 9.48047 13.8602 9.48047 13.4502C9.48047 13.0402 9.82047 12.7002 10.2305 12.7002H14.2305C14.6405 12.7002 14.9805 13.0402 14.9805 13.4502C14.9805 13.8602 14.6405 14.2002 14.2305 14.2002Z" fill="white"/> <path d="M14.2305 17.2002H10.2305C9.82047 17.2002 9.48047 16.8602 9.48047 16.4502C9.48047 16.0402 9.82047 15.7002 10.2305 15.7002H14.2305C14.6405 15.7002 14.9805 16.0402 14.9805 16.4502C14.9805 16.8602 14.6405 17.2002 14.2305 17.2002Z" fill="white"/> <path d="M14.2305 14.2002H10.2305C9.82047 14.2002 9.48047 13.8602 9.48047 13.4502C9.48047 13.0402 9.82047 12.7002 10.2305 12.7002H14.2305C14.6405 12.7002 14.9805 13.0402 14.9805 13.4502C14.9805 13.8602 14.6405 14.2002 14.2305 14.2002Z" fill="white"/> <path d="M14.2305 11.2002H10.2305C9.82047 11.2002 9.48047 10.8602 9.48047 10.4502C9.48047 10.0402 9.82047 9.7002 10.2305 9.7002H14.2305C14.6405 9.7002 14.9805 10.0402 14.9805 10.4502C14.9805 10.8602 14.6405 11.2002 14.2305 11.2002Z" fill="white"/> </g> <defs> <clipPath id="clip0_4482_10170"> <rect width="24" height="24" fill="white"/> </clipPath> </defs> </svg>
