<svg width="24" height="24" viewBox="0 0 24 24" fill="none" xmlns="http://www.w3.org/2000/svg"> <g clip-path="url(#clip0_4482_5111)"> <path d="M12 21.25C17.1086 21.25 21.25 17.1086 21.25 12C21.25 6.89137 17.1086 2.75 12 2.75C6.89137 2.75 2.75 6.89137 2.75 12C2.75 17.1086 6.89137 21.25 12 21.25Z" stroke="white" stroke-width="1.5" stroke-miterlimit="10"/> <path d="M2.77002 11.4102C4.10002 11.9002 6.21003 12.5402 8.91003 12.8302C8.93003 12.8302 8.95998 12.8401 8.97998 12.8401C9.89998 12.9401 10.9 13.0002 11.96 13.0002C13.06 13.0002 14.08 12.9401 15.03 12.8401C15.05 12.8301 15.07 12.8302 15.09 12.8302C17.79 12.5402 19.9 11.9102 21.23 11.4102" stroke="white" stroke-width="1.5" stroke-miterlimit="10" stroke-linecap="round"/> <path d="M5.6001 5.33008C6.5501 5.97008 7.5401 6.96007 8.2301 8.48007C8.3301 8.70007 9.05011 10.3701 8.99011 12.5601C8.99011 12.6501 8.9801 12.7501 8.9801 12.8401C8.9301 13.8001 8.7201 14.8601 8.2301 15.9301C7.5901 17.3101 6.7301 18.2701 5.8501 18.9001" stroke="white" stroke-width="1.5" stroke-miterlimit="10" stroke-linecap="round"/> <path d="M18.1398 18.9103C17.2698 18.2703 16.3998 17.3103 15.7698 15.9403C15.6898 15.7503 15.1698 14.5303 15.0298 12.8403C15.0198 12.7503 15.0198 12.6603 15.0098 12.5703C14.9598 11.3503 15.1098 9.93031 15.7698 8.47031C16.4598 6.96031 17.4398 5.97031 18.3798 5.32031" stroke="white" stroke-width="1.5" stroke-miterlimit="10" stroke-linecap="round"/> </g> <defs> <clipPath id="clip0_4482_5111"> <rect width="24" height="24" fill="white"/> </clipPath> </defs> </svg>
