<svg width="24" height="24" viewBox="0 0 24 24" fill="none" xmlns="http://www.w3.org/2000/svg"> <g clip-path="url(#clip0_2085_381591)"> <path d="M15 17.32C14.59 17.32 14.25 17.02 14.25 16.61V16.54C14.25 16.13 14.59 15.79 15 15.79C15.41 15.79 15.75 16.13 15.75 16.54C15.75 16.95 15.41 17.33 15 17.33V17.32ZM9 17.32C8.59 17.32 8.25 17.02 8.25 16.61V16.54C8.25 16.13 8.59 15.79 9 15.79C9.41 15.79 9.75 16.13 9.75 16.54C9.75 16.95 9.41 17.33 9 17.33V17.32Z" fill="white"/> <path d="M12 20.1401C11.66 20.1401 11.32 20.0401 11.03 19.8501L9.47 18.8101C8.7 18.3001 8.25 17.4501 8.25 16.5301C8.22 15.3201 7.23 14.3501 6 14.3501H5C4.59 14.3501 4.25 14.0101 4.25 13.6001C4.25 12.3201 3.28 11.3501 2.08 11.3501C1.62 11.3501 1.25 10.9801 1.25 10.5201V9.5001C1.25 6.9401 3.34 4.8501 5.9 4.8501C6.36 4.8501 6.75 5.2401 6.75 5.7001C6.75 6.6601 7.38 7.4801 8.25 7.7501V4.6001C8.25 4.1901 8.59 3.8501 9 3.8501C9.41 3.8501 9.75 4.1901 9.75 4.6001C9.75 5.8401 10.76 6.8501 12 6.8501C13.24 6.8501 14.25 5.8401 14.25 4.6001C14.25 4.1901 14.59 3.8501 15 3.8501C15.41 3.8501 15.75 4.1901 15.75 4.6001V7.7501C16.62 7.4801 17.25 6.6601 17.25 5.7001C17.25 5.2401 17.64 4.8501 18.1 4.8501C20.66 4.8501 22.75 6.9401 22.75 9.5001V10.5201C22.75 10.9801 22.38 11.3501 21.92 11.3501C20.72 11.3501 19.75 12.3201 19.75 13.5201C19.75 13.9301 19.41 14.3501 19 14.3501H18C16.77 14.3501 15.78 15.3201 15.75 16.5501C15.75 17.4601 15.29 18.3101 14.52 18.8201L12.96 19.8601C12.67 20.0501 12.33 20.1501 11.99 20.1501L12 20.1401ZM5.69 12.8501H6C8.05 12.8501 9.7 14.4601 9.75 16.5101C9.75 16.9501 9.96 17.3301 10.3 17.5601L11.86 18.6001C11.94 18.6501 12.05 18.6501 12.13 18.6001L13.69 17.5601C14.04 17.3301 14.25 16.9401 14.25 16.5201C14.3 14.4501 15.95 12.8401 18 12.8401H18.32C18.61 11.3301 19.78 10.1701 21.25 9.9001V9.4901C21.25 7.9501 20.14 6.6701 18.68 6.3901C18.35 8.0701 16.88 9.3401 15.11 9.3401H15C14.59 9.3401 14.25 9.0001 14.25 8.5901V7.5901C13.62 8.0601 12.84 8.3401 12 8.3401C11.16 8.3401 10.38 8.0601 9.75 7.5901V8.5901C9.75 9.0001 9.41 9.3401 9 9.3401H8.89C7.12 9.3401 5.65 8.0701 5.32 6.3901C3.86 6.6601 2.75 7.9501 2.75 9.4901V9.9001C4.24 10.1801 5.41 11.3501 5.69 12.8401V12.8501Z" fill="white"/> </g> <defs> <clipPath id="clip0_2085_381591"> <rect width="24" height="24" fill="white"/> </clipPath> </defs> </svg>
