<svg width="24" height="24" viewBox="0 0 24 24" fill="none" xmlns="http://www.w3.org/2000/svg"> <g clip-path="url(#clip0_2085_390413)"> <path d="M16.9999 21.4998C16.8299 21.4998 16.6699 21.4498 16.5299 21.3398C16.2099 21.0798 16.1499 20.6098 16.4099 20.2898L20.3199 15.3998C20.8199 14.7798 20.9199 13.9498 20.5999 13.2198L18.3399 8.12977C17.2299 5.62977 14.7399 4.00977 11.9999 4.00977C9.25989 4.00977 6.76989 5.62977 5.65989 8.12977L3.39989 13.2198C3.07989 13.9398 3.18989 14.7798 3.67989 15.3998L7.58989 20.2898C7.84989 20.6098 7.79989 21.0898 7.46989 21.3398C7.14989 21.5998 6.67989 21.5498 6.41989 21.2198L2.50989 16.3298C1.65989 15.2698 1.47989 13.8398 2.02989 12.6098L4.28989 7.51977C5.63989 4.46977 8.66989 2.50977 12.0099 2.50977C15.3499 2.50977 18.3699 4.47977 19.7299 7.51977L21.9899 12.6098C22.5399 13.8498 22.3599 15.2798 21.5099 16.3298L17.5999 21.2198C17.4499 21.4098 17.2299 21.4998 17.0099 21.4998H16.9999Z" fill="white"/> <path d="M5.01009 8.49012C4.69009 8.49012 4.40009 8.29012 4.30009 7.97012L3.45009 5.26012C3.10009 4.16012 3.39009 2.97012 4.21009 2.15012C5.37009 0.990121 7.40009 0.980121 8.57009 2.15012L9.69009 3.27012C9.98009 3.56012 9.98009 4.04012 9.69009 4.33012C9.40009 4.62012 8.92009 4.62012 8.63009 4.33012L7.51009 3.21012C6.91009 2.61012 5.87009 2.61012 5.27009 3.21012C4.85009 3.63012 4.70009 4.24012 4.88009 4.81012L5.73009 7.51012C5.85009 7.91012 5.64009 8.33012 5.24009 8.45012C5.16009 8.47012 5.09009 8.48012 5.01009 8.48012V8.49012Z" fill="white"/> <path d="M18.9898 8.49027C18.9198 8.49027 18.8398 8.48027 18.7598 8.46027C18.3598 8.34027 18.1498 7.91027 18.2698 7.52027L19.1198 4.81027C19.2998 4.24027 19.1498 3.63027 18.7298 3.21027C18.1298 2.61027 17.0898 2.61027 16.4898 3.21027L15.3698 4.33027C15.0798 4.62027 14.5998 4.62027 14.3098 4.33027C14.0198 4.04027 14.0198 3.56027 14.3098 3.27027L15.4298 2.15027C16.5998 0.990273 18.6298 0.990273 19.7898 2.15027C20.6098 2.97027 20.8998 4.16027 20.5498 5.26027L19.6998 7.96027C19.5998 8.28027 19.2998 8.48027 18.9898 8.48027V8.49027Z" fill="white"/> <path d="M15.75 22.75H8.25C7.15 22.75 6.25 21.85 6.25 20.75V17C6.25 13.83 8.83 11.25 12 11.25C15.17 11.25 17.75 13.83 17.75 17V20.75C17.75 21.85 16.85 22.75 15.75 22.75ZM12 12.75C9.66 12.75 7.75 14.66 7.75 17V20.75C7.75 21.03 7.97 21.25 8.25 21.25H15.75C16.03 21.25 16.25 21.03 16.25 20.75V17C16.25 14.66 14.34 12.75 12 12.75Z" fill="white"/> <path d="M11.9999 18.9999C11.9099 18.9999 11.8099 18.9799 11.7199 18.9499C11.3299 18.7899 9.37988 17.9299 9.37988 16.4599C9.37988 15.8299 9.63988 14.3799 11.9999 14.3799C14.3599 14.3799 14.6199 15.8399 14.6199 16.4599C14.6199 17.9299 12.6699 18.7899 12.2799 18.9499C12.1899 18.9899 12.0899 18.9999 11.9999 18.9999ZM11.9999 15.8699C10.8799 15.8699 10.8799 16.2199 10.8799 16.4499C10.8799 16.6799 11.3999 17.1199 11.9999 17.4199C12.5999 17.1199 13.1199 16.6799 13.1199 16.4499C13.1199 16.2199 13.1199 15.8699 11.9999 15.8699Z" fill="white"/> <path d="M12 22.75C11.59 22.75 11.25 22.41 11.25 22V18.25C11.25 17.84 11.59 17.5 12 17.5C12.41 17.5 12.75 17.84 12.75 18.25V22C12.75 22.41 12.41 22.75 12 22.75Z" fill="white"/> <path d="M8.87012 10.25H7.62012C7.21012 10.25 6.87012 9.91 6.87012 9.5C6.87012 9.09 7.21012 8.75 7.62012 8.75H8.87012C9.28012 8.75 9.62012 9.09 9.62012 9.5C9.62012 9.91 9.28012 10.25 8.87012 10.25Z" fill="white"/> <path d="M16.3699 10.25H15.1299C14.7199 10.25 14.3799 9.91 14.3799 9.5C14.3799 9.09 14.7199 8.75 15.1299 8.75H16.3699C16.7799 8.75 17.1199 9.09 17.1199 9.5C17.1199 9.91 16.7799 10.25 16.3699 10.25Z" fill="white"/> </g> <defs> <clipPath id="clip0_2085_390413"> <rect width="24" height="24" fill="white"/> </clipPath> </defs> </svg>
