<svg width="24" height="24" viewBox="0 0 24 24" fill="none" xmlns="http://www.w3.org/2000/svg"> <g clip-path="url(#clip0_4482_8847)"> <path d="M12 22.75C6.07 22.75 1.25 17.93 1.25 12C1.25 6.07 6.07 1.25 12 1.25C14.87 1.25 17.57 2.37 19.6 4.4C21.63 6.43 22.75 9.13 22.75 12C22.75 17.93 17.93 22.75 12 22.75ZM12 2.75C6.9 2.75 2.75 6.9 2.75 12C2.75 17.1 6.9 21.25 12 21.25C17.1 21.25 21.25 17.1 21.25 12C21.25 9.53 20.29 7.21 18.54 5.46C16.79 3.71 14.47 2.75 12 2.75Z" fill="white"/> <path d="M11.53 16.1C11.53 16.1 11.49 16.1 11.47 16.1C11.2 16.08 10.96 15.91 10.85 15.66L8.43 10.21L6.95 12.43C6.81 12.64 6.58 12.76 6.33 12.76H2C1.59 12.76 1.25 12.42 1.25 12.01C1.25 11.6 1.59 11.26 2 11.26H5.92L7.94 8.25C8.09 8.02 8.36 7.9 8.63 7.92C8.9 7.94 9.14 8.11 9.25 8.36L11.67 13.81L13.14 11.6C13.28 11.39 13.51 11.27 13.76 11.27H16.74C17.15 11.27 17.49 11.61 17.49 12.02C17.49 12.43 17.15 12.77 16.74 12.77H14.17L12.17 15.78C12.03 15.99 11.8 16.11 11.55 16.11L11.53 16.1Z" fill="white"/> </g> <defs> <clipPath id="clip0_4482_8847"> <rect width="24" height="24" fill="white"/> </clipPath> </defs> </svg>
