<svg width="24" height="24" viewBox="0 0 24 24" fill="none" xmlns="http://www.w3.org/2000/svg"> <g clip-path="url(#clip0_2085_381717)"> <path d="M18.6701 22.7501H5.33008C4.92008 22.7501 4.58008 22.4101 4.58008 22.0001V11.4701C4.58008 9.49006 5.35008 7.63006 6.75008 6.23006C8.15008 4.83006 10.0101 4.06006 11.9901 4.06006C13.9701 4.06006 15.8301 4.83006 17.2301 6.23006C18.6301 7.63006 19.4001 9.49006 19.4001 11.4701V22.0001C19.4001 22.4101 19.0601 22.7501 18.6501 22.7501H18.6701ZM6.08008 21.2501H17.9101V11.4701C17.9101 9.89006 17.2901 8.40006 16.1801 7.29006C15.0701 6.18006 13.5801 5.56006 12.0001 5.56006C10.4201 5.56006 8.93008 6.18006 7.82008 7.29006C6.71008 8.40006 6.09008 9.89006 6.09008 11.4701V21.2501H6.08008Z" fill="white"/> <path d="M15.3998 22.74H8.59979C8.31979 22.74 8.03979 22.62 7.83979 22.42C7.63979 22.22 7.52979 21.9501 7.52979 21.66V8.52005C7.52979 7.32005 7.99979 6.20005 8.83979 5.36005C9.68979 4.51005 10.8098 4.05005 11.9998 4.05005C13.1898 4.05005 14.3198 4.52005 15.1598 5.36005C15.9998 6.20005 16.4698 7.33005 16.4698 8.52005V21.66C16.4698 21.9401 16.3498 22.22 16.1498 22.42C15.9498 22.62 15.6798 22.73 15.3898 22.73L15.3998 22.74ZM9.02978 21.24H14.9798V8.52005C14.9798 7.73005 14.6698 6.98005 14.1098 6.42005C12.9898 5.30005 11.0298 5.30005 9.89978 6.42005C9.33978 6.98005 9.02978 7.73005 9.02978 8.52005V21.24Z" fill="white"/> <path d="M12 22.75C11.59 22.75 11.25 22.41 11.25 22V4.80005C11.25 4.39005 11.59 4.05005 12 4.05005C12.41 4.05005 12.75 4.39005 12.75 4.80005V22C12.75 22.41 12.41 22.75 12 22.75Z" fill="white"/> <path d="M12.0001 5.55C10.8101 5.55 9.8501 4.59 9.8501 3.4C9.8501 2.21 10.8101 1.25 12.0001 1.25C13.1901 1.25 14.1501 2.21 14.1501 3.4C14.1501 4.59 13.1901 5.55 12.0001 5.55ZM12.0001 2.75C11.6401 2.75 11.3501 3.04 11.3501 3.4C11.3501 3.76 11.6401 4.05 12.0001 4.05C12.3601 4.05 12.6501 3.76 12.6501 3.4C12.6501 3.04 12.3601 2.75 12.0001 2.75Z" fill="white"/> <path d="M19.1798 22.75H4.81982C4.40982 22.75 4.06982 22.41 4.06982 22C4.06982 21.59 4.40982 21.25 4.81982 21.25H19.1798C19.5898 21.25 19.9298 21.59 19.9298 22C19.9298 22.41 19.5898 22.75 19.1798 22.75Z" fill="white"/> </g> <defs> <clipPath id="clip0_2085_381717"> <rect width="24" height="24" fill="white"/> </clipPath> </defs> </svg>
