<svg width="24" height="24" viewBox="0 0 24 24" fill="none" xmlns="http://www.w3.org/2000/svg"> <g clip-path="url(#clip0_4418_7576)"> <path d="M12.6 18.1106C12.38 18.1106 12.21 18.0507 12.11 18.0107C11.89 17.9107 11.3901 17.5807 11.3901 16.6707V14.0007L9.09004 16.1106C8.79004 16.3906 8.31004 16.3707 8.03004 16.0607C7.75004 15.7507 7.77003 15.2807 8.08003 15.0007L11.36 11.9907L8.08003 8.98067C7.77003 8.70067 7.75004 8.23068 8.03004 7.92068C8.31004 7.62068 8.79004 7.59066 9.09004 7.87066L11.3901 9.98067V7.32067C11.3901 6.42067 11.89 6.09067 12.11 5.98067C12.32 5.88067 12.9 5.71066 13.6 6.28066L15.66 8.00066C15.96 8.25066 16.14 8.62066 16.15 9.00066C16.16 9.38066 16 9.76065 15.71 10.0207L13.58 11.9707L15.71 13.9207C16 14.1907 16.16 14.5607 16.15 14.9407C16.14 15.3207 15.96 15.6907 15.66 15.9407L13.6 17.6607C13.22 18.0207 12.87 18.1106 12.6 18.1106ZM12.9 13.4107V16.3307L14.5701 14.9407L12.9 13.4107ZM12.9 7.67068V10.5907L14.5701 9.06066L12.9 7.67068Z" fill="white"/> <path d="M12 22.75C6.07 22.75 1.25 17.93 1.25 12C1.25 6.07 6.07 1.25 12 1.25C17.93 1.25 22.75 6.07 22.75 12C22.75 17.93 17.93 22.75 12 22.75ZM12 2.75C6.9 2.75 2.75 6.9 2.75 12C2.75 17.1 6.9 21.25 12 21.25C17.1 21.25 21.25 17.1 21.25 12C21.25 6.9 17.1 2.75 12 2.75Z" fill="white"/> </g> <defs> <clipPath id="clip0_4418_7576"> <rect width="24" height="24" fill="white"/> </clipPath> </defs> </svg>
