<svg width="24" height="24" viewBox="0 0 24 24" fill="none" xmlns="http://www.w3.org/2000/svg"> <g clip-path="url(#clip0_2085_386168)"> <path d="M22 22C21.84 22 21.69 21.95 21.55 21.85L19.88 20.6C19.42 20.26 18.83 20.12 18.27 20.23C17.97 20.29 17.69 20.41 17.45 20.6C16.2 21.54 14.46 21.54 13.22 20.6C12.5 20.06 11.5 20.06 10.79 20.6C9.55004 21.53 7.81004 21.53 6.56004 20.6C6.31004 20.42 6.04004 20.29 5.74004 20.23C5.18004 20.12 4.59004 20.25 4.13004 20.6L2.46004 21.85C2.13004 22.1 1.66004 22.03 1.41004 21.7C1.16004 21.37 1.23004 20.9 1.56004 20.65L3.23004 19.4C3.37004 19.29 3.52004 19.2 3.68004 19.11L2.39004 18.03C2.01004 17.71 1.85004 17.21 1.99004 16.73C2.12004 16.25 2.51004 15.91 3.01004 15.83L3.59004 15.74C3.59004 15.74 3.64004 15.69 3.67004 15.66C5.93004 13.75 8.45004 9.88998 9.74004 7.12998C9.47004 5.55998 9.05004 4.19998 8.48004 3.06998C8.36004 2.83998 8.38004 2.55998 8.51004 2.33998C8.65004 2.11998 8.89004 1.97998 9.15004 1.97998C15.63 1.97998 19.94 9.82998 20.36 13.22L20.9 13.14C21.38 13.07 21.84 13.27 22.11 13.66C22.38 14.05 22.41 14.56 22.18 14.97L20.02 18.94C20.29 19.05 20.55 19.2 20.79 19.38L22.46 20.63C22.79 20.88 22.86 21.35 22.61 21.68C22.46 21.88 22.24 21.98 22.01 21.98L22 22ZM5.51004 18.7C5.68004 18.7 5.85004 18.73 6.02004 18.76C6.54004 18.86 7.03004 19.08 7.45004 19.4C8.17004 19.94 9.16004 19.94 9.88004 19.4C11.13 18.47 12.87 18.47 14.11 19.4C14.83 19.94 15.83 19.94 16.54 19.4C16.96 19.08 17.46 18.86 17.97 18.76C18.12 18.73 18.28 18.71 18.43 18.7L20.6 14.71L3.75004 17.24L5.47004 18.67C5.47004 18.67 5.49004 18.69 5.50004 18.7H5.51004ZM10.03 9.80998C8.94004 11.73 7.54004 13.78 6.10004 15.37L9.94004 14.79C10.02 14.02 10.17 12.07 10.04 9.79998L10.03 9.80998ZM11.24 7.13998C11.74 10.23 11.58 13.2 11.46 14.57L18.87 13.46C18.61 11.15 15.47 4.51998 10.33 3.59998C10.73 4.64998 11.03 5.81998 11.24 7.10998C11.24 7.10998 11.24 7.11998 11.24 7.12998V7.13998Z" fill="white"/> </g> <defs> <clipPath id="clip0_2085_386168"> <rect width="24" height="24" fill="white"/> </clipPath> </defs> </svg>
