<svg width="24" height="24" viewBox="0 0 24 24" fill="none" xmlns="http://www.w3.org/2000/svg"> <g clip-path="url(#clip0_2085_386386)"> <path d="M6.81016 20.0299C6.62016 20.0299 6.43016 19.9599 6.28016 19.8099L4.19016 17.7199C3.90016 17.4299 3.90016 16.9499 4.19016 16.6599L7.69016 13.1599C7.98016 12.8699 8.46016 12.8699 8.75016 13.1599C9.04016 13.4499 9.04016 13.9299 8.75016 14.2199L5.78016 17.1899L6.81016 18.2199L9.78016 15.2499C10.0702 14.9599 10.5502 14.9599 10.8402 15.2499C11.1302 15.5399 11.1302 16.0199 10.8402 16.3099L7.34016 19.8099C7.19016 19.9599 7.00016 20.0299 6.81016 20.0299Z" fill="white"/> <path d="M12.4003 16.7899C11.0103 16.7899 9.71033 16.2499 8.73033 15.2699C6.71033 13.2499 6.71033 9.94988 8.73033 7.92988L13.9003 2.76988C15.9203 0.749883 19.2203 0.749883 21.2403 2.76988C22.2203 3.74988 22.7603 5.04988 22.7603 6.43988C22.7603 7.82988 22.2203 9.12988 21.2403 10.1099L16.0803 15.2799C15.1003 16.2599 13.8003 16.7999 12.4103 16.7999L12.4003 16.7899ZM17.5603 2.74988C16.6103 2.74988 15.6703 3.10988 14.9503 3.82988L9.79033 8.98988C8.35033 10.4299 8.35033 12.7699 9.79033 14.2099C11.1803 15.5999 13.6203 15.5999 15.0103 14.2099L20.1703 9.03988C20.8603 8.34988 21.2503 7.41988 21.2503 6.42988C21.2503 5.43988 20.8703 4.50988 20.1703 3.81988C19.4503 3.09988 18.5103 2.73988 17.5603 2.73988V2.74988Z" fill="white"/> <path d="M4.52012 18.1302C4.52012 18.1302 4.47012 18.1302 4.44012 18.1302L2.87012 17.9602C2.17012 17.8802 1.59012 17.4202 1.35012 16.7602C1.12012 16.1002 1.28012 15.3702 1.78012 14.8802L3.62012 13.0502C3.78012 12.8902 4.00012 12.8102 4.23012 12.8302L8.01012 13.2402C8.30012 13.2702 8.54012 13.4602 8.64012 13.7402C8.74012 14.0202 8.67012 14.3202 8.46012 14.5202L5.05012 17.9302C4.91012 18.0702 4.72012 18.1502 4.52012 18.1502V18.1302ZM4.43012 14.3502L2.85012 15.9302C2.73012 16.0502 2.75012 16.1902 2.78012 16.2602C2.80012 16.3302 2.87012 16.4502 3.04012 16.4702L4.25012 16.6002L6.29012 14.5602L4.43012 14.3602V14.3502Z" fill="white"/> <path d="M7.85002 22.7501C7.65002 22.7501 7.44002 22.7201 7.24002 22.6401C6.58002 22.4101 6.12002 21.8201 6.04002 21.1201L5.87002 19.5501C5.85002 19.3201 5.92002 19.1001 6.09002 18.9401L9.50002 15.5301C9.71002 15.3201 10.01 15.2601 10.28 15.3501C10.55 15.4501 10.75 15.6901 10.78 15.9801L11.19 19.7601C11.21 19.9901 11.14 20.2101 10.97 20.3701L9.14002 22.2101C8.79002 22.5601 8.33002 22.7401 7.86002 22.7401L7.85002 22.7501ZM7.40002 19.7501L7.53002 20.9701C7.55002 21.1401 7.67002 21.2101 7.74002 21.2301C7.81002 21.2601 7.95002 21.2801 8.07002 21.1601L9.65002 19.5801L9.45002 17.7101L7.41002 19.7501H7.40002Z" fill="white"/> <path d="M21.0503 11.0899C20.8603 11.0899 20.6703 11.0199 20.5203 10.8699L13.1203 3.46988C12.8303 3.17988 12.8303 2.69988 13.1203 2.40988C13.4103 2.11988 13.8903 2.11988 14.1803 2.40988L21.5803 9.80988C21.8703 10.0999 21.8703 10.5799 21.5803 10.8699C21.4303 11.0199 21.2403 11.0899 21.0503 11.0899Z" fill="white"/> <path d="M16.3003 15.8399C16.1103 15.8399 15.9203 15.7699 15.7703 15.6199L8.37033 8.21988C8.08033 7.92988 8.08033 7.44988 8.37033 7.15988C8.66033 6.86988 9.14033 6.86988 9.43033 7.15988L16.8303 14.5599C17.1203 14.8499 17.1203 15.3299 16.8303 15.6199C16.6803 15.7699 16.4903 15.8399 16.3003 15.8399Z" fill="white"/> </g> <defs> <clipPath id="clip0_2085_386386"> <rect width="24" height="24" fill="white"/> </clipPath> </defs> </svg>
