<svg width="24" height="24" viewBox="0 0 24 24" fill="none" xmlns="http://www.w3.org/2000/svg"> <g clip-path="url(#clip0_2085_390644)"> <path d="M15.82 22.7001C15.37 22.7001 14.93 22.6201 14.52 22.4501C14.28 22.3501 14.11 22.1301 14.08 21.8701C14.05 21.6101 14.18 21.3601 14.4 21.2101C14.55 21.1101 14.64 20.9401 14.64 20.7601V19.4601C14.64 19.2501 14.73 19.0501 14.89 18.9201C15.05 18.7901 15.26 18.7301 15.46 18.7701C15.88 18.8401 16.27 18.8801 16.67 18.8801H22C22.19 18.8801 22.37 18.9501 22.5 19.0901C22.63 19.2301 22.71 19.4001 22.71 19.5901V20.0101C22.71 21.5001 21.5 22.7101 20.01 22.7101H15.83L15.82 22.7001ZM16.04 20.2601V20.7601C16.04 20.9401 16.01 21.1201 15.97 21.2901H20.01C20.63 21.2901 21.14 20.8601 21.28 20.2801H16.68C16.47 20.2801 16.26 20.2801 16.05 20.2601H16.04Z" fill="white"/> <path d="M16.6702 20.2898C16.1902 20.2898 15.7102 20.2498 15.2102 20.1598C14.8702 20.0998 14.6302 19.8098 14.6302 19.4698V18.2198C14.6302 17.7498 14.3302 17.3298 13.8802 17.1798L9.68022 15.7798C8.67022 15.4398 7.98021 14.4998 7.97021 13.4298V1.9998C7.97021 1.6098 8.28022 1.2998 8.67022 1.2998H12.3402C14.3802 1.2998 16.0402 2.9598 16.0402 4.9998V13.3998C16.0402 13.8698 16.3402 14.2898 16.7902 14.4398L20.9902 15.8398C22.0102 16.1798 22.7002 17.1298 22.7002 18.2098V19.5798C22.7002 19.9698 22.3902 20.2798 22.0002 20.2798H16.6702V20.2898ZM16.0402 18.8498C16.2502 18.8698 16.4602 18.8798 16.6702 18.8798H21.3002V18.2098C21.3002 17.7398 21.0002 17.3198 20.5502 17.1698L16.3502 15.7698C15.3302 15.4298 14.6402 14.4698 14.6402 13.3898V4.9998C14.6402 3.7298 13.6102 2.6998 12.3402 2.6998H9.38022V13.4098C9.38022 13.8698 9.69022 14.2898 10.1302 14.4298L14.3302 15.8298C15.3502 16.1698 16.0402 17.1198 16.0402 18.1998V18.8398V18.8498Z" fill="white"/> <path d="M15.3399 3.95996H8.66992V5.36996H15.3399V3.95996Z" fill="white"/> <path d="M11.17 22.7003H9.15004C8.61004 22.7003 8.07004 22.5703 7.58004 22.3303L7.20004 22.1403C6.55004 21.8103 5.88004 22.1803 5.62004 22.3503C5.28004 22.5803 4.89004 22.7003 4.48004 22.7003H3.99004C2.50004 22.7003 1.29004 21.4903 1.29004 20.0003V18.2503C1.29004 18.0503 1.37004 17.8603 1.52004 17.7303C1.67004 17.6003 1.86004 17.5303 2.06004 17.5503L5.19004 17.8603C5.95004 18.0203 6.54004 18.1803 7.11004 18.3503C7.69004 18.5203 8.23004 18.6703 8.79004 18.7703C9.21004 18.8403 9.60004 18.8803 10 18.8803H15.33C15.52 18.8803 15.7 18.9503 15.83 19.0903C15.96 19.2303 16.04 19.4003 16.04 19.5903V20.7703C16.04 21.4303 15.71 22.0403 15.16 22.4003C14.85 22.6103 14.48 22.7103 14.1 22.7103H11.17V22.7003ZM6.64004 20.6103C7.05004 20.6103 7.46004 20.7003 7.83004 20.8903L8.21004 21.0803C8.50004 21.2303 8.83004 21.3003 9.15004 21.3003H14.1C14.2 21.3003 14.3 21.2703 14.39 21.2103C14.54 21.1103 14.63 20.9403 14.63 20.7603V20.2803H10C9.52004 20.2803 9.04004 20.2403 8.55004 20.1503C7.92004 20.0403 7.34004 19.8703 6.73004 19.7003C6.19004 19.5403 5.62004 19.3803 4.99004 19.2503L2.71004 19.0203V19.9903C2.71004 20.7003 3.29004 21.2903 4.01004 21.2903H4.50004C4.63004 21.2903 4.75004 21.2503 4.85004 21.1803C5.42004 20.7903 6.05004 20.6003 6.65004 20.6003L6.64004 20.6103Z" fill="white"/> <path d="M10.0001 20.2898C9.52006 20.2898 9.04006 20.2498 8.55006 20.1598C7.92006 20.0498 7.34006 19.8798 6.73006 19.7098C6.19006 19.5498 5.62006 19.3898 4.99006 19.2598C4.02006 19.0598 3.07006 18.9598 2.01006 18.9598C1.62006 18.9598 1.31006 18.6498 1.31006 18.2598V4.9998C1.31006 2.9598 2.97006 1.2998 5.01006 1.2998H8.68006C9.07006 1.2998 9.38006 1.6098 9.38006 1.9998V13.3998C9.39006 13.8798 9.71006 14.2998 10.1601 14.4498L14.3301 15.8398C15.3501 16.1798 16.0401 17.1398 16.0401 18.2198V19.5898C16.0401 19.9798 15.7301 20.2898 15.3401 20.2898H10.0101H10.0001ZM2.70006 17.5598C3.59006 17.5998 4.43006 17.6998 5.27006 17.8698C5.96006 18.0098 6.55006 18.1798 7.11006 18.3498C7.69006 18.5198 8.23006 18.6698 8.79006 18.7698C9.21006 18.8398 9.60006 18.8798 10.0001 18.8798H14.6301V18.2098C14.6301 17.7398 14.3301 17.3198 13.8801 17.1698L9.71006 15.7798C8.70006 15.4398 8.00006 14.4998 7.97006 13.4298V2.6998H5.01006C3.74006 2.6998 2.71006 3.7298 2.71006 4.9998V17.5598H2.70006Z" fill="white"/> <path d="M8.67 3.95996H2V5.36996H8.67V3.95996Z" fill="white"/> </g> <defs> <clipPath id="clip0_2085_390644"> <rect width="24" height="24" fill="white"/> </clipPath> </defs> </svg>
