<svg width="24" height="24" viewBox="0 0 24 24" fill="none" xmlns="http://www.w3.org/2000/svg"> <g clip-path="url(#clip0_2085_386174)"> <path d="M12.1798 19.4502C8.85978 19.4502 5.80978 15.2202 5.67978 15.0202C4.31978 12.9002 4.51978 10.2202 6.20978 7.66018C7.89978 5.10018 9.52978 3.37018 11.2098 2.38018C13.1098 1.26018 15.5098 1.27018 17.4798 2.42018C18.7298 3.16018 20.4598 4.34018 21.5898 5.74018C23.3498 7.92018 22.3298 10.0302 21.5398 10.8402L20.7798 11.5802C20.9898 11.7102 21.1598 11.8602 21.2898 12.0002C22.2998 13.1202 21.9998 15.0202 21.9598 15.2302C21.2998 17.6502 17.9298 18.1502 17.7898 18.1702C16.5398 18.2402 13.9198 19.0502 13.0098 19.3502C12.7398 19.4102 12.4598 19.4402 12.1898 19.4402L12.1798 19.4502ZM14.2698 3.06018C13.4598 3.06018 12.6698 3.27018 11.9698 3.68018C10.5098 4.54018 8.99978 6.16018 7.45978 8.49018C6.81978 9.46018 5.48978 11.9502 6.91978 14.1902C7.75978 15.3702 10.4498 18.4002 12.5998 17.9202C12.6698 17.8902 16.0098 16.7802 17.6398 16.6902C18.2798 16.5902 20.1798 16.0702 20.4998 14.9102C20.5498 14.6202 20.6198 13.5002 20.1798 13.0102C20.1198 12.9402 19.9298 12.7502 19.4098 12.7602C19.3398 12.7702 19.2698 12.7802 19.1998 12.7602C19.0198 12.7902 18.7698 12.9102 18.5798 13.1002C18.1698 13.5002 17.9398 13.9002 17.9198 14.2202C17.8998 14.6402 17.5198 14.9802 17.1398 14.9402C16.7298 14.9302 16.3998 14.5802 16.4198 14.1602C16.4498 13.2602 17.0398 12.5002 17.5198 12.0202C17.9198 11.6302 18.4098 11.3702 18.9398 11.2802L20.4798 9.77018C20.5998 9.64018 21.7598 8.33018 20.4198 6.68018C19.6298 5.71018 18.3498 4.68018 16.7098 3.71018C15.9498 3.26018 15.0998 3.04018 14.2698 3.04018V3.06018Z" fill="white"/> <path d="M7.5999 22.4397C7.1999 22.4397 6.7899 22.3397 6.4199 22.1397C4.0999 20.8897 2.3799 19.0497 1.4399 16.8097C1.0099 15.7797 1.3299 14.5697 2.1999 13.8597L5.0399 11.5797C5.3599 11.3197 5.8399 11.3697 6.0899 11.6897C6.3499 12.0097 6.2999 12.4797 5.9799 12.7397L3.1399 15.0197C2.7799 15.3097 2.6499 15.8097 2.8199 16.2197C3.6299 18.1597 5.0799 19.7097 7.1299 20.7997C7.4799 20.9897 7.9399 20.9397 8.2599 20.6797L11.4499 18.0997L12.3899 19.2697L9.1999 21.8397C8.7399 22.2197 8.1699 22.4397 7.5999 22.4397Z" fill="white"/> </g> <defs> <clipPath id="clip0_2085_386174"> <rect width="24" height="24" fill="white"/> </clipPath> </defs> </svg>
