<svg width="24" height="24" viewBox="0 0 24 24" fill="none" xmlns="http://www.w3.org/2000/svg"> <g clip-path="url(#clip0_2085_390808)"> <path d="M12.0001 17.8606C8.77014 17.8606 6.14014 15.2306 6.14014 12.0006C6.14014 8.77063 8.77014 6.14062 12.0001 6.14062C15.2301 6.14062 17.8601 8.77063 17.8601 12.0006C17.8601 15.2306 15.2301 17.8606 12.0001 17.8606ZM12.0001 7.86063C9.72014 7.86063 7.86014 9.72063 7.86014 12.0006C7.86014 14.2806 9.72014 16.1406 12.0001 16.1406C14.2801 16.1406 16.1401 14.2806 16.1401 12.0006C16.1401 9.72063 14.2801 7.86063 12.0001 7.86063Z" fill="white"/> <path d="M12.0001 4.40063C11.5301 4.40063 11.1401 4.02063 11.1401 3.54063V2.00063C11.1401 1.53063 11.5201 1.14062 12.0001 1.14062C12.4801 1.14062 12.8601 1.52063 12.8601 2.00063V3.54063C12.8601 4.01063 12.4801 4.40063 12.0001 4.40063Z" fill="white"/> <path d="M12.0001 22.8596C11.5301 22.8596 11.1401 22.4796 11.1401 21.9996V20.4596C11.1401 19.9896 11.5201 19.5996 12.0001 19.5996C12.4801 19.5996 12.8601 19.9796 12.8601 20.4596V21.9996C12.8601 22.4696 12.4801 22.8596 12.0001 22.8596Z" fill="white"/> <path d="M22.0001 12.8606H20.4601C19.9901 12.8606 19.6001 12.4806 19.6001 12.0006C19.6001 11.5206 19.9801 11.1406 20.4601 11.1406H22.0001C22.4701 11.1406 22.8601 11.5206 22.8601 12.0006C22.8601 12.4806 22.4801 12.8606 22.0001 12.8606Z" fill="white"/> <path d="M3.54014 12.8606H2.00014C1.53014 12.8606 1.14014 12.4806 1.14014 12.0006C1.14014 11.5206 1.52014 11.1406 2.00014 11.1406H3.54014C4.01014 11.1406 4.40014 11.5206 4.40014 12.0006C4.40014 12.4806 4.02014 12.8606 3.54014 12.8606Z" fill="white"/> <path d="M17.9801 6.86977C17.7601 6.86977 17.5401 6.78977 17.3701 6.61977C17.0401 6.28977 17.0401 5.73977 17.3701 5.40977L18.4601 4.31977C18.7901 3.98977 19.3401 3.98977 19.6701 4.31977C20.0001 4.64977 20.0001 5.19977 19.6701 5.52977L18.5801 6.61977C18.4101 6.78977 18.1901 6.86977 17.9701 6.86977H17.9801Z" fill="white"/> <path d="M4.92 19.9302C4.7 19.9302 4.48 19.8502 4.31 19.6802C3.98 19.3502 3.98 18.8002 4.31 18.4702L5.4 17.3802C5.73 17.0402 6.28 17.0502 6.61 17.3802C6.94 17.7102 6.94 18.2602 6.61 18.5902L5.52 19.6802C5.35 19.8502 5.13 19.9302 4.91 19.9302H4.92Z" fill="white"/> <path d="M19.0798 19.9303C18.8598 19.9303 18.6398 19.8503 18.4698 19.6803L17.3798 18.5903C17.0498 18.2603 17.0498 17.7103 17.3798 17.3803C17.7098 17.0503 18.2598 17.0503 18.5898 17.3803L19.6798 18.4703C20.0098 18.8003 20.0098 19.3503 19.6798 19.6803C19.5098 19.8503 19.2898 19.9303 19.0698 19.9303H19.0798Z" fill="white"/> <path d="M6.01977 6.86977C5.79977 6.86977 5.57977 6.78977 5.40977 6.61977L4.31977 5.52977C3.98977 5.19977 3.98977 4.64977 4.31977 4.31977C4.64977 3.98977 5.19977 3.98977 5.52977 4.31977L6.61977 5.40977C6.94977 5.73977 6.94977 6.28977 6.61977 6.61977C6.44977 6.78977 6.22977 6.86977 6.00977 6.86977H6.01977Z" fill="white"/> </g> <defs> <clipPath id="clip0_2085_390808"> <rect width="24" height="24" fill="white"/> </clipPath> </defs> </svg>
