<svg width="24" height="24" viewBox="0 0 24 24" fill="none" xmlns="http://www.w3.org/2000/svg"> <g clip-path="url(#clip0_4482_9968)"> <path d="M22.0002 8.01C21.5902 8.01 21.2502 7.67 21.2502 7.26C21.2502 4.77 19.2302 2.75 16.7402 2.75C16.3302 2.75 15.9902 2.41 15.9902 2C15.9902 1.59 16.3302 1.25 16.7402 1.25C20.0602 1.25 22.7502 3.95 22.7502 7.26C22.7502 7.67 22.4102 8.01 22.0002 8.01Z" fill="white"/> <path d="M18.8405 8.01016C18.4305 8.01016 18.0905 7.67016 18.0905 7.26016C18.0905 6.51016 17.4805 5.91016 16.7305 5.91016C16.3205 5.91016 15.9805 5.57016 15.9805 5.16016C15.9805 4.75016 16.3205 4.41016 16.7305 4.41016C18.3005 4.41016 19.5905 5.69016 19.5905 7.26016C19.5905 7.67016 19.2505 8.01016 18.8405 8.01016Z" fill="white"/> <path d="M15.95 22.7498H7C3.83 22.7498 1.25 20.1698 1.25 16.9998V8.0498C1.25 4.8798 3.83 2.2998 7 2.2998H12.53C12.94 2.2998 13.28 2.6398 13.28 3.0498C13.28 3.4598 12.94 3.7998 12.53 3.7998H7C4.66 3.7998 2.75 5.7098 2.75 8.0498V16.9998C2.75 19.3398 4.66 21.2498 7 21.2498H15.95C18.29 21.2498 20.2 19.3398 20.2 16.9998V11.4698C20.2 11.0598 20.54 10.7198 20.95 10.7198C21.36 10.7198 21.7 11.0598 21.7 11.4698V16.9998C21.7 20.1698 19.12 22.7498 15.95 22.7498Z" fill="white"/> <path d="M11.4699 13.2702C11.1699 13.2702 10.8799 13.2002 10.6099 13.0702L8.76989 12.1402C8.39989 11.9502 8.24989 11.5002 8.43989 11.1302C8.62989 10.7602 9.07989 10.6102 9.44989 10.8002L11.2899 11.7302C11.4099 11.7902 11.5599 11.7902 11.6799 11.7302L13.5099 10.8102C13.8799 10.6202 14.3299 10.7702 14.5199 11.1402C14.7099 11.5102 14.5599 11.9602 14.1899 12.1502L12.3499 13.0802C12.0799 13.2202 11.7799 13.2802 11.4799 13.2802L11.4699 13.2702Z" fill="white"/> <path d="M14.6302 17.4901H8.3102C6.7402 17.4901 5.4502 16.2101 5.4502 14.6301V10.4201C5.4502 8.85006 6.7302 7.56006 8.3102 7.56006H14.6302C16.2002 7.56006 17.4902 8.84006 17.4902 10.4201V14.6301C17.4902 16.2001 16.2102 17.4901 14.6302 17.4901ZM8.3102 9.07006C7.5602 9.07006 6.9502 9.68006 6.9502 10.4301V14.6401C6.9502 15.3901 7.5602 16.0001 8.3102 16.0001H14.6302C15.3802 16.0001 15.9902 15.3901 15.9902 14.6401V10.4301C15.9902 9.68006 15.3802 9.07006 14.6302 9.07006H8.3102Z" fill="white"/> </g> <defs> <clipPath id="clip0_4482_9968"> <rect width="24" height="24" fill="white"/> </clipPath> </defs> </svg>
