<svg width="24" height="24" viewBox="0 0 24 24" fill="none" xmlns="http://www.w3.org/2000/svg"> <g clip-path="url(#clip0_4482_15255)"> <path d="M8.83973 15.6404H8.35973C6.34973 15.6404 4.71973 14.0104 4.71973 12.0004C4.71973 9.99035 6.34973 8.36035 8.35973 8.36035H8.83973C9.24973 8.36035 9.58973 8.70035 9.58973 9.11035C9.58973 9.52035 9.24973 9.86035 8.83973 9.86035H8.35973C7.17973 9.86035 6.21973 10.8204 6.21973 12.0004C6.21973 13.1804 7.17973 14.1404 8.35973 14.1404H8.83973C9.24973 14.1404 9.58973 14.4804 9.58973 14.8904C9.58973 15.3004 9.24973 15.6404 8.83973 15.6404Z" fill="white"/> <path d="M17 22.75H7C3.83 22.75 1.25 20.17 1.25 17V7C1.25 3.83 3.83 1.25 7 1.25H17C20.17 1.25 22.75 3.83 22.75 7V17C22.75 20.17 20.17 22.75 17 22.75ZM7 2.75C4.66 2.75 2.75 4.66 2.75 7V17C2.75 19.34 4.66 21.25 7 21.25H17C19.34 21.25 21.25 19.34 21.25 17V7C21.25 4.66 19.34 2.75 17 2.75H7Z" fill="white"/> <path d="M18.8402 12.75H15.9902C15.5802 12.75 15.2402 12.41 15.2402 12C15.2402 11.59 15.5802 11.25 15.9902 11.25H18.8402C19.2502 11.25 19.5902 11.59 19.5902 12C19.5902 12.41 19.2502 12.75 18.8402 12.75Z" fill="white"/> <path d="M17.4199 14.1801C17.0099 14.1801 16.6699 13.8401 16.6699 13.4301V10.5801C16.6699 10.1701 17.0099 9.83008 17.4199 9.83008C17.8299 9.83008 18.1699 10.1701 18.1699 10.5801V13.4301C18.1699 13.8401 17.8299 14.1801 17.4199 14.1801Z" fill="white"/> <path d="M13.85 12.75H11C10.59 12.75 10.25 12.41 10.25 12C10.25 11.59 10.59 11.25 11 11.25H13.85C14.26 11.25 14.6 11.59 14.6 12C14.6 12.41 14.26 12.75 13.85 12.75Z" fill="white"/> <path d="M12.4297 14.1801C12.0197 14.1801 11.6797 13.8401 11.6797 13.4301V10.5801C11.6797 10.1701 12.0197 9.83008 12.4297 9.83008C12.8397 9.83008 13.1797 10.1701 13.1797 10.5801V13.4301C13.1797 13.8401 12.8397 14.1801 12.4297 14.1801Z" fill="white"/> </g> <defs> <clipPath id="clip0_4482_15255"> <rect width="24" height="24" fill="white"/> </clipPath> </defs> </svg>
