<svg width="24" height="24" viewBox="0 0 24 24" fill="none" xmlns="http://www.w3.org/2000/svg"> <g clip-path="url(#clip0_2085_381538)"> <path d="M22 19.27H2C1.59 19.27 1.25 18.93 1.25 18.52C1.25 18.11 1.59 17.77 2 17.77H22C22.41 17.77 22.75 18.11 22.75 18.52C22.75 18.93 22.41 19.27 22 19.27Z" fill="white"/> <path d="M13.0799 10.03C12.0999 10.03 11.1799 9.65005 10.4899 8.96005C9.79992 8.27005 9.41992 7.35005 9.41992 6.37005C9.41992 5.39005 9.79992 4.47005 10.4899 3.78005C11.8699 2.39005 14.2899 2.39005 15.6799 3.78005C16.3699 4.47005 16.7499 5.39005 16.7499 6.37005C16.7499 7.35005 16.3699 8.27005 15.6799 8.96005C14.9899 9.65005 14.0699 10.03 13.0899 10.03H13.0799ZM13.0799 4.20005C12.4999 4.20005 11.9599 4.43005 11.5499 4.83005C11.1499 5.23005 10.9099 5.79005 10.9099 6.36005C10.9099 6.93005 11.1399 7.48005 11.5499 7.89005C12.3699 8.71005 13.7899 8.71005 14.6099 7.89005C15.0199 7.48005 15.2399 6.94005 15.2399 6.36005C15.2399 5.78005 15.0099 5.23005 14.6099 4.83005C14.2099 4.43005 13.6599 4.20005 13.0799 4.20005Z" fill="white"/> <path d="M14.18 4.42004C14.09 4.42004 13.99 4.40004 13.9 4.36004C13.52 4.20004 13.33 3.77004 13.49 3.38004C13.86 2.48004 14.49 1.82004 15.32 1.49004C16.26 1.11004 17.38 1.18004 18.49 1.67004C18.87 1.84004 19.04 2.28004 18.87 2.66004C18.7 3.04004 18.26 3.21004 17.88 3.04004C17.15 2.71004 16.44 2.66004 15.88 2.88004C15.43 3.06004 15.09 3.42004 14.88 3.94004C14.76 4.23004 14.48 4.41004 14.19 4.41004L14.18 4.42004Z" fill="white"/> <path d="M21.13 22.7499H3.3C2.76 22.7499 2.23 22.5299 1.85 22.1499C1.46 21.7599 1.25 21.2499 1.25 20.6999V15.0499C1.25 13.1099 1.77 11.1999 2.77 9.52995C3.76 7.85995 5.19 6.48995 6.9 5.56995C7.26 5.36995 7.72 5.50995 7.92 5.86995C8.12 6.22995 7.98 6.68995 7.62 6.88995C6.15 7.67995 4.92 8.85995 4.06 10.2999C3.2 11.7399 2.75 13.3799 2.75 15.0499V20.6999C2.75 20.8499 2.81 20.9899 2.91 21.0899C3.01 21.1899 3.16 21.2499 3.3 21.2499H21.13L21.25 21.1299V15.8599C21.25 15.5299 21.12 15.2099 20.88 14.9799L16.78 10.8699C16.49 10.5799 16.49 10.0999 16.78 9.80995C17.07 9.51995 17.55 9.51995 17.84 9.80995L21.94 13.9199C22.46 14.4399 22.75 15.1299 22.75 15.8599V21.1299C22.75 21.5599 22.58 21.9699 22.28 22.2799C21.98 22.5899 21.57 22.7499 21.13 22.7499Z" fill="white"/> <path d="M21.6 15.79H2C1.59 15.79 1.25 15.45 1.25 15.04C1.25 14.63 1.59 14.29 2 14.29H21.6C22.01 14.29 22.35 14.63 22.35 15.04C22.35 15.45 22.01 15.79 21.6 15.79Z" fill="white"/> </g> <defs> <clipPath id="clip0_2085_381538"> <rect width="24" height="24" fill="white"/> </clipPath> </defs> </svg>
