<svg width="24" height="24" viewBox="0 0 24 24" fill="none" xmlns="http://www.w3.org/2000/svg"> <g clip-path="url(#clip0_4418_7030)"> <path d="M14 22.75H10C4.57 22.75 2.25 20.43 2.25 15V9C2.25 3.57 4.57 1.25 10 1.25H14C19.43 1.25 21.75 3.57 21.75 9V15C21.75 20.43 19.43 22.75 14 22.75ZM10 2.75C5.39 2.75 3.75 4.39 3.75 9V15C3.75 19.61 5.39 21.25 10 21.25H14C18.61 21.25 20.25 19.61 20.25 15V9C20.25 4.39 18.61 2.75 14 2.75H10Z" fill="white"/> <path d="M15 10.8301H9C7.76 10.8301 6.75 9.82008 6.75 8.58008V7.58008C6.75 6.34008 7.76 5.33008 9 5.33008H15C16.24 5.33008 17.25 6.34008 17.25 7.58008V8.58008C17.25 9.82008 16.24 10.8301 15 10.8301ZM9 6.83008C8.59 6.83008 8.25 7.17008 8.25 7.58008V8.58008C8.25 8.99008 8.59 9.33008 9 9.33008H15C15.41 9.33008 15.75 8.99008 15.75 8.58008V7.58008C15.75 7.17008 15.41 6.83008 15 6.83008H9Z" fill="white"/> <path d="M8.14991 14.9208C8.01991 14.9208 7.88991 14.8908 7.76991 14.8408C7.64991 14.7908 7.53991 14.7208 7.44991 14.6308C7.25991 14.4408 7.15991 14.1908 7.15991 13.9208C7.15991 13.7908 7.17991 13.6608 7.22991 13.5408C7.27991 13.4108 7.34991 13.3108 7.44991 13.2108C7.48991 13.1708 7.53991 13.1208 7.59991 13.0908C7.64991 13.0508 7.70991 13.0208 7.76991 13.0008C7.82991 12.9708 7.89991 12.9508 7.95991 12.9408C8.27991 12.8708 8.62991 12.9808 8.85991 13.2108C8.94991 13.3008 9.02991 13.4108 9.07991 13.5408C9.12991 13.6608 9.15991 13.7908 9.15991 13.9208C9.15991 14.1908 9.04991 14.4408 8.85991 14.6308C8.66991 14.8208 8.41991 14.9208 8.14991 14.9208Z" fill="white"/> <path d="M12.1599 14.9199C11.8899 14.9199 11.6399 14.8199 11.4499 14.6299C11.2599 14.4399 11.1599 14.1899 11.1599 13.9199C11.1599 13.7899 11.1799 13.6599 11.2299 13.5399C11.2799 13.4099 11.3499 13.3099 11.4499 13.2099C11.4899 13.1699 11.5399 13.1199 11.5999 13.0899C11.6499 13.0499 11.7099 13.0199 11.7699 12.9999C11.8299 12.9699 11.8999 12.9499 11.9599 12.9399C12.1499 12.8999 12.3499 12.9199 12.5399 12.9999C12.6599 13.0499 12.7699 13.1199 12.8599 13.2099C12.9499 13.3099 13.0299 13.4099 13.0799 13.5399C13.1299 13.6599 13.1599 13.7899 13.1599 13.9199C13.1599 14.1899 13.0499 14.4399 12.8599 14.6299C12.6699 14.8199 12.4199 14.9199 12.1599 14.9199Z" fill="white"/> <path d="M16.1499 14.9191C16.0199 14.9191 15.8899 14.8891 15.7699 14.8391C15.6499 14.7891 15.5399 14.7191 15.4499 14.6291C15.3499 14.5291 15.2799 14.4191 15.2299 14.2991C15.1799 14.1791 15.1599 14.0491 15.1599 13.9191C15.1599 13.7891 15.1799 13.6591 15.2299 13.5391C15.2799 13.4091 15.3499 13.3091 15.4499 13.2091C15.8199 12.8391 16.4899 12.8391 16.8599 13.2091C17.0499 13.3991 17.1599 13.6591 17.1599 13.9191C17.1599 14.1891 17.0499 14.4391 16.8599 14.6291C16.6799 14.8091 16.4299 14.9191 16.1499 14.9191Z" fill="white"/> <path d="M8.1599 18.9209C7.8899 18.9209 7.6399 18.8209 7.4499 18.6309C7.2599 18.4409 7.1499 18.1909 7.1499 17.9209C7.1499 17.6609 7.2599 17.4009 7.4499 17.2109C7.4899 17.1709 7.5499 17.1209 7.5999 17.0909C7.6499 17.0509 7.7099 17.0209 7.7699 17.0009C7.8299 16.9709 7.8999 16.9509 7.9599 16.9409C8.2899 16.8809 8.6299 16.9809 8.8599 17.2109C8.9099 17.2609 8.9499 17.3109 8.9899 17.3609C9.0199 17.4209 9.0499 17.4809 9.0799 17.5409C9.0999 17.6009 9.1199 17.6609 9.1399 17.7209C9.1499 17.7909 9.1599 17.8509 9.1599 17.9209C9.1599 18.1909 9.0499 18.4409 8.8599 18.6309C8.6699 18.8209 8.4199 18.9209 8.1599 18.9209Z" fill="white"/> <path d="M12.1599 18.9209C11.8899 18.9209 11.6399 18.8209 11.4499 18.6309C11.2599 18.4409 11.1499 18.1909 11.1499 17.9209C11.1499 17.6609 11.2599 17.4009 11.4499 17.2109C11.6799 16.9809 12.0299 16.8809 12.3499 16.9409C12.4099 16.9509 12.4799 16.9709 12.5399 17.0009C12.5999 17.0209 12.6599 17.0509 12.7099 17.0909C12.7599 17.1209 12.8099 17.1709 12.8599 17.2109C13.0499 17.4009 13.1499 17.6609 13.1499 17.9209C13.1499 18.1909 13.0499 18.4409 12.8599 18.6309C12.6699 18.8209 12.4199 18.9209 12.1599 18.9209Z" fill="white"/> <path d="M16.1499 18.9202C15.8899 18.9202 15.6399 18.8202 15.4499 18.6302C15.2599 18.4402 15.1599 18.1902 15.1599 17.9202C15.1599 17.6602 15.2599 17.4002 15.4499 17.2102C15.5399 17.1202 15.6499 17.0502 15.7699 17.0002C16.1399 16.8502 16.5899 16.9302 16.8599 17.2102C17.0499 17.4002 17.1499 17.6602 17.1499 17.9202C17.1499 18.1902 17.0499 18.4402 16.8599 18.6302C16.7699 18.7202 16.6599 18.7902 16.5399 18.8402C16.4199 18.8902 16.2899 18.9202 16.1499 18.9202Z" fill="white"/> </g> <defs> <clipPath id="clip0_4418_7030"> <rect width="24" height="24" fill="white"/> </clipPath> </defs> </svg>
