<svg width="24" height="24" viewBox="0 0 24 24" fill="none" xmlns="http://www.w3.org/2000/svg"> <g clip-path="url(#clip0_2085_390581)"> <path d="M18 22.7497H6C3.38 22.7497 1.25 20.6197 1.25 17.9997V8.71973C1.25 8.30973 1.59 7.96973 2 7.96973H22C22.41 7.96973 22.75 8.30973 22.75 8.71973V17.9997C22.75 20.6197 20.62 22.7497 18 22.7497ZM2.75 9.46973V17.9997C2.75 19.7897 4.21 21.2497 6 21.2497H18C19.79 21.2497 21.25 19.7897 21.25 17.9997V9.46973H2.75Z" fill="white"/> <path d="M14.06 19.5899C13.94 19.5899 13.83 19.5599 13.72 19.5099C13.26 19.2799 9.25 17.1399 9.25 14.1999C9.25 12.5099 10.63 11.1299 12.32 11.1299C12.95 11.1299 13.56 11.3199 14.07 11.6799C14.58 11.3199 15.19 11.1299 15.81 11.1299C17.5 11.1299 18.88 12.5099 18.88 14.1999C18.88 17.1299 14.87 19.2699 14.41 19.5099C14.3 19.5699 14.19 19.5899 14.07 19.5899H14.06ZM12.32 12.6299C11.46 12.6299 10.75 13.3399 10.75 14.1999C10.75 15.7499 12.89 17.3099 14.06 17.9799C15.23 17.2999 17.37 15.7399 17.37 14.1999C17.37 13.3299 16.66 12.6299 15.8 12.6299C15.36 12.6299 14.94 12.8299 14.63 13.1799C14.49 13.3399 14.28 13.4299 14.07 13.4299C13.85 13.4299 13.65 13.3399 13.51 13.1799C13.2 12.8299 12.78 12.6299 12.33 12.6299H12.32Z" fill="white"/> <path d="M22 9.47023H2C1.59 9.47023 1.25 9.13023 1.25 8.72023V7.74023C1.25 5.12023 3.38 2.99023 6 2.99023H18C20.62 2.99023 22.75 5.12023 22.75 7.74023V8.72023C22.75 9.13023 22.41 9.47023 22 9.47023ZM2.75 7.97023H21.25V7.74023C21.25 5.95023 19.79 4.49023 18 4.49023H6C4.21 4.49023 2.75 5.95023 2.75 7.74023V7.97023Z" fill="white"/> <path d="M18 6.98047H16C15.59 6.98047 15.25 6.64047 15.25 6.23047C15.25 5.82047 15.59 5.48047 16 5.48047H18C18.41 5.48047 18.75 5.82047 18.75 6.23047C18.75 6.64047 18.41 6.98047 18 6.98047Z" fill="white"/> <path d="M17 6.98C16.59 6.98 16.25 6.64 16.25 6.23V2C16.25 1.59 16.59 1.25 17 1.25C17.41 1.25 17.75 1.59 17.75 2V6.23C17.75 6.64 17.41 6.98 17 6.98Z" fill="white"/> <path d="M12 6.98047H10C9.59 6.98047 9.25 6.64047 9.25 6.23047C9.25 5.82047 9.59 5.48047 10 5.48047H12C12.41 5.48047 12.75 5.82047 12.75 6.23047C12.75 6.64047 12.41 6.98047 12 6.98047Z" fill="white"/> <path d="M11 6.98C10.59 6.98 10.25 6.64 10.25 6.23V2C10.25 1.59 10.59 1.25 11 1.25C11.41 1.25 11.75 1.59 11.75 2V6.23C11.75 6.64 11.41 6.98 11 6.98Z" fill="white"/> <path d="M6 22.75C5.59 22.75 5.25 22.41 5.25 22V4C5.25 3.59 5.59 3.25 6 3.25C6.41 3.25 6.75 3.59 6.75 4V22C6.75 22.41 6.41 22.75 6 22.75Z" fill="white"/> </g> <defs> <clipPath id="clip0_2085_390581"> <rect width="24" height="24" fill="white"/> </clipPath> </defs> </svg>
