<svg width="24" height="24" viewBox="0 0 24 24" fill="none" xmlns="http://www.w3.org/2000/svg"> <g clip-path="url(#clip0_655_7009)"> <path d="M17 22.75H7C4.38 22.75 2.25 20.62 2.25 18V8C2.25 5.38 4.38 3.25 7 3.25H17C19.62 3.25 21.75 5.38 21.75 8V18C21.75 20.62 19.62 22.75 17 22.75ZM7 4.75C5.21 4.75 3.75 6.21 3.75 8V18C3.75 19.79 5.21 21.25 7 21.25H17C18.79 21.25 20.25 19.79 20.25 18V8C20.25 6.21 18.79 4.75 17 4.75H7Z" fill="white"/> <path d="M15.5 6.75C15.09 6.75 14.75 6.41 14.75 6V2C14.75 1.59 15.09 1.25 15.5 1.25C15.91 1.25 16.25 1.59 16.25 2V6C16.25 6.41 15.91 6.75 15.5 6.75Z" fill="white"/> <path d="M8.5 6.75C8.09 6.75 7.75 6.41 7.75 6V2C7.75 1.59 8.09 1.25 8.5 1.25C8.91 1.25 9.25 1.59 9.25 2V6C9.25 6.41 8.91 6.75 8.5 6.75Z" fill="white"/> <path d="M8.80078 14.75C8.39078 14.75 8.05078 14.41 8.05078 14C8.05078 13.59 8.39078 13.25 8.80078 13.25C9.49078 13.25 10.0508 12.69 10.0508 12C10.0508 11.31 9.49078 10.75 8.80078 10.75C8.11078 10.75 7.55078 11.31 7.55078 12C7.55078 12.41 7.21078 12.75 6.80078 12.75C6.39078 12.75 6.05078 12.41 6.05078 12C6.05078 10.48 7.28078 9.25 8.80078 9.25C10.3208 9.25 11.5508 10.48 11.5508 12C11.5508 13.52 10.3208 14.75 8.80078 14.75Z" fill="white"/> <path d="M8.80078 18.75C7.28078 18.75 6.05078 17.52 6.05078 16C6.05078 15.59 6.39078 15.25 6.80078 15.25C7.21078 15.25 7.55078 15.59 7.55078 16C7.55078 16.69 8.11078 17.25 8.80078 17.25C9.49078 17.25 10.0508 16.69 10.0508 16C10.0508 15.31 9.49078 14.75 8.80078 14.75C8.39078 14.75 8.05078 14.41 8.05078 14C8.05078 13.59 8.39078 13.25 8.80078 13.25C10.3208 13.25 11.5508 14.48 11.5508 16C11.5508 17.52 10.3208 18.75 8.80078 18.75Z" fill="white"/> <path d="M17.2002 18.75C16.7902 18.75 16.4502 18.41 16.4502 18V11.81L14.3302 13.93C14.0402 14.22 13.5602 14.22 13.2702 13.93C12.9802 13.64 12.9802 13.16 13.2702 12.87L16.6702 9.47C16.8802 9.26 17.2102 9.19 17.4902 9.31C17.7702 9.43 17.9502 9.7 17.9502 10V18C17.9502 18.41 17.6102 18.75 17.2002 18.75Z" fill="white"/> </g> <defs> <clipPath id="clip0_655_7009"> <rect width="24" height="24" fill="white"/> </clipPath> </defs> </svg>
