<svg width="24" height="24" viewBox="0 0 24 24" fill="none" xmlns="http://www.w3.org/2000/svg"> <g clip-path="url(#clip0_2085_386470)"> <path d="M18.2201 22.6998H5.78008C5.39008 22.6998 5.08008 22.3898 5.08008 21.9998C5.08008 21.6098 5.39008 21.2998 5.78008 21.2998H18.2301C18.6201 21.2998 18.9301 21.6098 18.9301 21.9998C18.9301 22.3898 18.6201 22.6998 18.2301 22.6998H18.2201Z" fill="white"/> <path d="M16.9803 22.7C16.5903 22.7 16.2803 22.39 16.2803 22V9.47004C16.2803 7.78004 15.2703 6.25004 13.7103 5.57004C13.0003 5.26004 12.5403 4.57004 12.5403 3.79004V3.24004C12.5403 2.94004 12.3003 2.70004 12.0003 2.70004C11.7003 2.70004 11.4603 2.94004 11.4603 3.24004V3.79004C11.4603 4.56004 11.0003 5.26004 10.2903 5.57004C8.73031 6.25004 7.72031 7.78004 7.72031 9.47004V22C7.72031 22.39 7.41031 22.7 7.02031 22.7C6.63031 22.7 6.32031 22.39 6.32031 22V9.47004C6.32031 7.22004 7.66031 5.18004 9.73031 4.28004C9.93031 4.20004 10.0503 4.00004 10.0503 3.79004V3.24004C10.0503 2.17004 10.9203 1.29004 12.0003 1.29004C13.0803 1.29004 13.9503 2.16004 13.9503 3.24004V3.79004C13.9503 4.00004 14.0803 4.19004 14.2703 4.28004C16.3403 5.18004 17.6803 7.22004 17.6803 9.47004V22C17.6803 22.39 17.3703 22.7 16.9803 22.7Z" fill="white"/> <path d="M12.0003 11.4203C10.9103 11.4203 10.0503 10.2903 10.0503 8.85027C10.0503 7.41027 10.9103 6.28027 12.0003 6.28027C13.0903 6.28027 13.9503 7.41027 13.9503 8.85027C13.9503 10.2903 13.0903 11.4203 12.0003 11.4203ZM12.0003 7.68027C11.8103 7.68027 11.4603 8.12027 11.4603 8.84027C11.4603 9.56027 11.8103 10.0003 12.0003 10.0003C12.1903 10.0003 12.5403 9.56027 12.5403 8.84027C12.5403 8.12027 12.1903 7.68027 12.0003 7.68027Z" fill="white"/> <path d="M12.0001 16.4005C11.6101 16.4005 11.3001 16.0905 11.3001 15.7005V15.1505C11.2301 15.0705 11.0601 14.9405 10.9601 14.8605C10.5801 14.5705 10.0601 14.1705 10.0601 13.5205C10.0601 12.8705 10.5801 12.4705 10.9601 12.1805C11.0701 12.1005 11.2401 11.9705 11.3001 11.8905V10.7205C11.3001 10.3305 11.6101 10.0205 12.0001 10.0205C12.3901 10.0205 12.7001 10.3305 12.7001 10.7205V11.9605C12.7001 12.6105 12.1801 13.0105 11.8001 13.3005C11.7201 13.3605 11.6101 13.4505 11.5301 13.5205C11.6101 13.5905 11.7201 13.6805 11.8001 13.7405C12.1801 14.0305 12.7001 14.4305 12.7001 15.0805V15.7005C12.7001 16.0905 12.3901 16.4005 12.0001 16.4005Z" fill="white"/> </g> <defs> <clipPath id="clip0_2085_386470"> <rect width="24" height="24" fill="white"/> </clipPath> </defs> </svg>
