<svg width="24" height="24" viewBox="0 0 24 24" fill="none" xmlns="http://www.w3.org/2000/svg"> <g clip-path="url(#clip0_4482_12910)"> <path d="M21.82 8.34961H2C1.59 8.34961 1.25 8.00961 1.25 7.59961C1.25 7.18961 1.59 6.84961 2 6.84961H21.82C22.23 6.84961 22.57 7.18961 22.57 7.59961C22.57 8.00961 22.23 8.34961 21.82 8.34961Z" fill="white"/> <path d="M10.8104 13.75H6.40039C5.99039 13.75 5.65039 13.41 5.65039 13C5.65039 12.59 5.99039 12.25 6.40039 12.25H10.8004C11.2104 12.25 11.5504 12.59 11.5504 13C11.5504 13.41 11.2104 13.75 10.8004 13.75H10.8104Z" fill="white"/> <path d="M10.81 18.2598H6.4C3.56 18.2598 1.25 15.9498 1.25 13.1098V6.49984C1.25 3.64984 3.56 1.33984 6.4 1.33984H17.41C20.25 1.33984 22.56 3.64984 22.56 6.48984V10.8898C22.56 11.2998 22.22 11.6398 21.81 11.6398C21.4 11.6398 21.06 11.2998 21.06 10.8898V6.49984C21.06 4.48984 19.42 2.84984 17.41 2.84984H6.4C4.38 2.84984 2.75 4.48984 2.75 6.49984V13.1098C2.75 15.1198 4.39 16.7598 6.4 16.7598H10.8C11.21 16.7598 11.55 17.0998 11.55 17.5098C11.55 17.9198 11.21 18.2598 10.8 18.2598H10.81Z" fill="white"/> <path d="M20.9098 16.3998H19.4098V15.1698C19.4098 14.4398 18.8198 13.8398 18.0798 13.8398C17.3398 13.8398 16.7598 14.4298 16.7598 15.1698V16.3998H15.2598V15.1698C15.2598 13.6098 16.5298 12.3398 18.0798 12.3398C19.6298 12.3398 20.9098 13.6098 20.9098 15.1698V16.3998Z" fill="white"/> <path d="M20.0399 22.6597H16.1299C14.6399 22.6597 13.4199 21.4497 13.4199 19.9497V18.1397C13.4199 16.6497 14.6299 15.4297 16.1299 15.4297H20.0399C21.5299 15.4297 22.7499 16.6397 22.7499 18.1397V19.9497C22.7499 21.4397 21.5399 22.6597 20.0399 22.6597ZM16.1299 16.9297C15.4599 16.9297 14.9199 17.4697 14.9199 18.1397V19.9497C14.9199 20.6197 15.4599 21.1597 16.1299 21.1597H20.0399C20.7099 21.1597 21.2499 20.6197 21.2499 19.9497V18.1397C21.2499 17.4697 20.7099 16.9297 20.0399 16.9297H16.1299Z" fill="white"/> </g> <defs> <clipPath id="clip0_4482_12910"> <rect width="24" height="24" fill="white"/> </clipPath> </defs> </svg>
