<svg width="24" height="24" viewBox="0 0 24 24" fill="none" xmlns="http://www.w3.org/2000/svg"> <g clip-path="url(#clip0_4482_13493)"> <path d="M4.00043 10.2504C3.81043 10.2504 3.62043 10.1804 3.47043 10.0304L1.97043 8.53043C1.68043 8.24043 1.68043 7.76043 1.97043 7.47043C2.26043 7.18043 2.74043 7.18043 3.03043 7.47043L4.53043 8.97043C4.82043 9.26043 4.82043 9.74043 4.53043 10.0304C4.38043 10.1804 4.19043 10.2504 4.00043 10.2504Z" fill="white"/> <path d="M4 10.25C3.59 10.25 3.25 9.91 3.25 9.5V7.5C3.25 5.43 4.93 3.75 7 3.75C7.41 3.75 7.75 4.09 7.75 4.5C7.75 4.91 7.41 5.25 7 5.25C5.76 5.25 4.75 6.26 4.75 7.5V9.5C4.75 9.91 4.41 10.25 4 10.25Z" fill="white"/> <path d="M11 22.2504H4C2.48 22.2504 1.25 21.0204 1.25 19.5004V15.3604C1.25 13.8404 2.48 12.6104 4 12.6104H11C12.52 12.6104 13.75 13.8404 13.75 15.3604V19.5004C13.75 21.0204 12.52 22.2504 11 22.2504ZM4 14.1104C3.31 14.1104 2.75 14.6704 2.75 15.3604V19.5004C2.75 20.1904 3.31 20.7504 4 20.7504H11C11.69 20.7504 12.25 20.1904 12.25 19.5004V15.3604C12.25 14.6704 11.69 14.1104 11 14.1104H4Z" fill="white"/> <path d="M13 17.1104H2C1.59 17.1104 1.25 16.7704 1.25 16.3604C1.25 15.9504 1.59 15.6104 2 15.6104H13C13.41 15.6104 13.75 15.9504 13.75 16.3604C13.75 16.7704 13.41 17.1104 13 17.1104Z" fill="white"/> <path d="M21.5004 17.7504C21.3104 17.7504 21.1204 17.6804 20.9704 17.5304L19.4704 16.0304C19.1804 15.7404 19.1804 15.2604 19.4704 14.9704C19.7604 14.6804 20.2404 14.6804 20.5304 14.9704L22.0304 16.4704C22.3204 16.7604 22.3204 17.2404 22.0304 17.5304C21.8804 17.6804 21.6904 17.7504 21.5004 17.7504Z" fill="white"/> <path d="M17 21.25C16.59 21.25 16.25 20.91 16.25 20.5C16.25 20.09 16.59 19.75 17 19.75C18.24 19.75 19.25 18.74 19.25 17.5V15.5C19.25 15.09 19.59 14.75 20 14.75C20.41 14.75 20.75 15.09 20.75 15.5V17.5C20.75 19.57 19.07 21.25 17 21.25Z" fill="white"/> <path d="M18.5 10.25C16.16 10.25 14.25 8.34 14.25 6C14.25 3.66 16.16 1.75 18.5 1.75C20.84 1.75 22.75 3.66 22.75 6C22.75 8.34 20.84 10.25 18.5 10.25ZM18.5 3.25C16.98 3.25 15.75 4.48 15.75 6C15.75 7.52 16.98 8.75 18.5 8.75C20.02 8.75 21.25 7.52 21.25 6C21.25 4.48 20.02 3.25 18.5 3.25Z" fill="white"/> <path d="M15.5 12.2505C13.16 12.2505 11.25 10.3405 11.25 8.00045C11.25 5.66045 13.03 3.88045 15.29 3.77045C15.7 3.74045 16.06 4.07045 16.08 4.48045C16.1 4.89045 15.78 5.25045 15.37 5.27045C13.9 5.34045 12.75 6.54045 12.75 8.00045C12.75 9.46045 13.98 10.7505 15.5 10.7505C16.57 10.7505 17.51 10.1405 17.98 9.17045C18.16 8.80045 18.61 8.64045 18.98 8.81045C19.35 8.99045 19.51 9.43045 19.34 9.81045C18.64 11.2905 17.13 12.2505 15.51 12.2505H15.5Z" fill="white"/> </g> <defs> <clipPath id="clip0_4482_13493"> <rect width="24" height="24" fill="white"/> </clipPath> </defs> </svg>
