<svg width="24" height="24" viewBox="0 0 24 24" fill="none" xmlns="http://www.w3.org/2000/svg"> <g clip-path="url(#clip0_2085_381581)"> <path d="M2.93021 22.84C2.46021 22.84 2.01021 22.66 1.66021 22.32C1.10021 21.77 0.950215 20.95 1.26021 20.24L7.58021 5.68002C8.02021 4.66002 9.01021 4.02002 10.1302 4.02002C17.8802 4.13002 19.2302 10.53 19.4602 12.49C19.5902 13.62 19.0002 14.73 17.9902 15.26L3.72021 22.67C3.46021 22.79 3.19021 22.85 2.92021 22.85L2.93021 22.84ZM2.63021 20.83C2.54021 21.04 2.65021 21.19 2.71021 21.25C2.77021 21.31 2.90021 21.4 3.07021 21.32L17.3002 13.93C17.7702 13.69 18.0302 13.19 17.9702 12.67C17.7202 10.55 16.4602 5.61002 10.1102 5.52002C9.61021 5.51002 9.15021 5.82002 8.95021 6.28002L2.62021 20.83H2.63021Z" fill="white"/> <path d="M9.71003 11.57C9.55003 11.57 9.39003 11.52 9.25003 11.42L6.79003 9.53998C6.46003 9.28998 6.40003 8.81998 6.65003 8.48998C6.90003 8.15998 7.37003 8.09999 7.70003 8.34999L10.16 10.23C10.49 10.48 10.55 10.95 10.3 11.28C10.15 11.47 9.93003 11.57 9.70003 11.57H9.71003Z" fill="white"/> <path d="M8.58015 16.95C8.42015 16.95 8.26015 16.9 8.12015 16.8L4.91015 14.34C4.58015 14.09 4.52015 13.62 4.77015 13.29C5.02015 12.96 5.49015 12.9 5.82015 13.15L9.03015 15.61C9.36015 15.86 9.42015 16.33 9.17015 16.66C9.02015 16.85 8.80015 16.95 8.57015 16.95H8.58015Z" fill="white"/> <path d="M13.6098 17.44C13.4498 17.44 13.2898 17.39 13.1498 17.29L10.5498 15.3C10.2198 15.05 10.1598 14.58 10.4098 14.25C10.6598 13.92 11.1298 13.86 11.4598 14.11L14.0598 16.1C14.3898 16.35 14.4498 16.82 14.1998 17.15C14.0498 17.34 13.8298 17.44 13.5998 17.44H13.6098Z" fill="white"/> <path d="M8.20003 20.02C8.04003 20.02 7.88003 19.97 7.74003 19.87L6.79003 19.14C6.46003 18.89 6.40003 18.42 6.65003 18.09C6.90003 17.76 7.37003 17.7 7.70003 17.95L8.65003 18.68C8.98003 18.93 9.04003 19.4 8.79003 19.73C8.64003 19.92 8.42003 20.02 8.19003 20.02H8.20003Z" fill="white"/> <path d="M16.9898 6.83004C16.7598 6.83004 16.5398 6.73004 16.3898 6.54004C16.1398 6.21004 16.1998 5.74004 16.5298 5.49004L20.2298 2.66004C20.5598 2.41004 21.0298 2.47004 21.2798 2.80004C21.5298 3.13004 21.4698 3.60004 21.1398 3.85004L17.4398 6.68004C17.2998 6.78004 17.1398 6.83004 16.9798 6.83004H16.9898Z" fill="white"/> <path d="M16.5898 7.20004C16.5898 7.20004 16.5098 7.20004 16.4698 7.20004C16.0598 7.14004 15.7798 6.75004 15.8398 6.34004C15.9998 5.29004 15.7998 3.38004 14.9998 2.52004C14.7198 2.22004 14.7398 1.74004 15.0398 1.46004C15.3398 1.18004 15.8198 1.20004 16.0998 1.50004C17.3498 2.85004 17.5198 5.33004 17.3198 6.57004C17.2598 6.94004 16.9398 7.21004 16.5798 7.21004L16.5898 7.20004Z" fill="white"/> <path d="M21.9999 9.45007C21.8199 9.45007 21.6399 9.39007 21.4999 9.25007C20.5999 8.43007 18.6299 7.47007 17.2699 7.78007C16.8699 7.88007 16.4599 7.62007 16.3699 7.22007C16.2799 6.82007 16.5299 6.41007 16.9299 6.32007C18.9999 5.84007 21.4499 7.18007 22.5099 8.14007C22.8199 8.42007 22.8399 8.89007 22.5599 9.20007C22.4099 9.36007 22.2099 9.45007 21.9999 9.45007Z" fill="white"/> </g> <defs> <clipPath id="clip0_2085_381581"> <rect width="24" height="24" fill="white"/> </clipPath> </defs> </svg>
