<svg width="24" height="24" viewBox="0 0 24 24" fill="none" xmlns="http://www.w3.org/2000/svg"> <g clip-path="url(#clip0_4482_13504)"> <path d="M12 22.75C6.07 22.75 1.25 17.93 1.25 12C1.25 6.07 6.07 1.25 12 1.25C14.32 1.25 16.53 1.97 18.39 3.34C18.72 3.59 18.8 4.05 18.55 4.39C18.3 4.72 17.84 4.8 17.5 4.55C15.9 3.37 13.99 2.75 12 2.75C6.9 2.75 2.75 6.9 2.75 12C2.75 17.1 6.9 21.25 12 21.25C14 21.25 15.9 20.62 17.51 19.43C17.84 19.18 18.31 19.25 18.56 19.58C18.81 19.91 18.74 20.38 18.4 20.63C16.54 22.01 14.32 22.74 12 22.74V22.75Z" fill="white"/> <path d="M6.15023 14.5603C5.55023 14.5603 4.94023 14.3403 4.44023 14.1603C3.75023 13.9103 3.28023 13.7603 3.09023 13.9603L2.52023 13.4703L1.99023 12.9403L2.03023 12.9003C2.91023 12.0203 4.09023 12.4403 4.95023 12.7503C5.82023 13.0603 6.26023 13.1803 6.55023 12.9003C6.78023 12.6703 6.78023 12.3803 6.71023 11.6903C6.62023 10.7903 6.49023 9.56031 7.68023 8.38031C8.65023 7.41031 8.46023 6.83031 6.55023 4.92031L7.04023 4.35031L7.57023 3.82031C9.02023 5.27031 10.9502 7.20031 8.73023 9.43031C8.05023 10.1103 8.11023 10.7403 8.19023 11.5303C8.27023 12.2703 8.36023 13.1903 7.60023 13.9503C7.15023 14.4003 6.65023 14.5503 6.14023 14.5503L6.15023 14.5603Z" fill="white"/> <path d="M10.3397 21.8396C10.1897 21.8396 10.0497 21.7996 9.91971 21.7096C9.57971 21.4796 9.48971 21.0096 9.72971 20.6696C9.76971 20.6096 9.80971 20.5396 9.83971 20.4696C10.1297 19.8196 10.0497 19.0296 9.60971 18.4296C9.16971 17.8396 8.43971 17.5196 7.70971 17.5896C6.97971 17.6696 6.33971 18.1396 6.03971 18.8196C5.99971 18.9096 5.96971 19.0096 5.94971 19.1096C5.85971 19.5196 5.45971 19.7696 5.05971 19.6896C4.64971 19.5996 4.39971 19.1996 4.47971 18.7996C4.51971 18.6096 4.58971 18.4196 4.66971 18.2296C5.19971 17.0496 6.29971 16.2496 7.55971 16.1096C8.81971 15.9796 10.0697 16.5296 10.8197 17.5596C11.5697 18.5996 11.7097 19.9596 11.1997 21.1196C11.1297 21.2696 11.0497 21.3996 10.9597 21.5296C10.8097 21.7396 10.5797 21.8596 10.3397 21.8596V21.8396Z" fill="white"/> <path d="M17.46 14.1701C16.26 14.1701 15.29 13.2001 15.29 12.0001C15.29 10.8001 16.26 9.83008 17.46 9.83008C18.66 9.83008 19.63 10.8001 19.63 12.0001C19.63 13.2001 18.66 14.1701 17.46 14.1701ZM17.46 11.3401C17.09 11.3401 16.79 11.6401 16.79 12.0101C16.79 12.3801 17.09 12.6801 17.46 12.6801C17.83 12.6801 18.13 12.3801 18.13 12.0101C18.13 11.6401 17.83 11.3401 17.46 11.3401Z" fill="white"/> <path d="M20.29 16.4004H14.62C13.31 16.4004 12.25 15.3404 12.25 14.0304V9.98035C12.25 8.67035 13.31 7.61035 14.62 7.61035H20.29C21.6 7.61035 22.66 8.67035 22.66 9.98035V14.0304C22.66 15.3404 21.6 16.4004 20.29 16.4004ZM14.62 9.11035C14.14 9.11035 13.75 9.50035 13.75 9.98035V14.0304C13.75 14.5104 14.14 14.9004 14.62 14.9004H20.29C20.77 14.9004 21.16 14.5104 21.16 14.0304V9.98035C21.16 9.50035 20.77 9.11035 20.29 9.11035H14.62Z" fill="white"/> </g> <defs> <clipPath id="clip0_4482_13504"> <rect width="24" height="24" fill="white"/> </clipPath> </defs> </svg>
