<svg width="24" height="24" viewBox="0 0 24 24" fill="none" xmlns="http://www.w3.org/2000/svg"> <g clip-path="url(#clip0_4482_13502)"> <path d="M16.0599 20.5305H5.16992C4.75992 20.5305 4.41992 20.1905 4.41992 19.7805C4.41992 19.3705 4.75992 19.0305 5.16992 19.0305H16.0599C17.4799 19.0305 18.6399 17.8705 18.6399 16.4505V7.56047C18.6399 6.14047 17.4799 4.98047 16.0599 4.98047H5.16992C4.75992 4.98047 4.41992 4.64047 4.41992 4.23047C4.41992 3.82047 4.75992 3.48047 5.16992 3.48047H16.0599C18.3099 3.48047 20.1399 5.31047 20.1399 7.56047V16.4505C20.1399 18.7005 18.3099 20.5305 16.0599 20.5305Z" fill="white"/> <path d="M4.61035 22.75C4.20035 22.75 3.86035 22.41 3.86035 22V2C3.86035 1.59 4.20035 1.25 4.61035 1.25C5.02035 1.25 5.36035 1.59 5.36035 2V22C5.36035 22.41 5.02035 22.75 4.61035 22.75Z" fill="white"/> <path d="M9.16992 15.1896C8.75992 15.1896 8.41992 14.8496 8.41992 14.4396C8.41992 14.0296 8.75992 13.6896 9.16992 13.6896C10.0999 13.6896 10.8599 12.9296 10.8599 11.9996C10.8599 11.0696 10.0999 10.3096 9.16992 10.3096C8.75992 10.3096 8.41992 9.96957 8.41992 9.55957C8.41992 9.14957 8.75992 8.80957 9.16992 8.80957C10.9299 8.80957 12.3599 10.2396 12.3599 11.9996C12.3599 13.7596 10.9299 15.1896 9.16992 15.1896Z" fill="white"/> <path d="M14.9404 14.75C14.5304 14.75 14.1904 14.41 14.1904 14V10C14.1904 9.59 14.5304 9.25 14.9404 9.25C15.3504 9.25 15.6904 9.59 15.6904 10V14C15.6904 14.41 15.3504 14.75 14.9404 14.75Z" fill="white"/> </g> <defs> <clipPath id="clip0_4482_13502"> <rect width="24" height="24" fill="white"/> </clipPath> </defs> </svg>
