<svg width="24" height="24" viewBox="0 0 24 24" fill="none" xmlns="http://www.w3.org/2000/svg"> <g clip-path="url(#clip0_4482_13501)"> <path d="M18.8304 20.5305H7.94035C5.69035 20.5305 3.86035 18.7005 3.86035 16.4505V7.56047C3.86035 5.31047 5.69035 3.48047 7.94035 3.48047H18.8304C19.2404 3.48047 19.5804 3.82047 19.5804 4.23047C19.5804 4.64047 19.2404 4.98047 18.8304 4.98047H7.94035C6.52035 4.98047 5.36035 6.14047 5.36035 7.56047V16.4505C5.36035 17.8705 6.52035 19.0305 7.94035 19.0305H18.8304C19.2404 19.0305 19.5804 19.3705 19.5804 19.7805C19.5804 20.1905 19.2404 20.5305 18.8304 20.5305Z" fill="white"/> <path d="M19.3896 22.75C18.9796 22.75 18.6396 22.41 18.6396 22V2C18.6396 1.59 18.9796 1.25 19.3896 1.25C19.7996 1.25 20.1396 1.59 20.1396 2V22C20.1396 22.41 19.7996 22.75 19.3896 22.75Z" fill="white"/> <path d="M14.8296 15.1896C13.0696 15.1896 11.6396 13.7596 11.6396 11.9996C11.6396 10.2396 13.0696 8.80957 14.8296 8.80957C15.2396 8.80957 15.5796 9.14957 15.5796 9.55957C15.5796 9.96957 15.2396 10.3096 14.8296 10.3096C13.8996 10.3096 13.1396 11.0696 13.1396 11.9996C13.1396 12.9296 13.8996 13.6896 14.8296 13.6896C15.2396 13.6896 15.5796 14.0296 15.5796 14.4396C15.5796 14.8496 15.2396 15.1896 14.8296 15.1896Z" fill="white"/> <path d="M9.05957 14.75C8.64957 14.75 8.30957 14.41 8.30957 14V10C8.30957 9.59 8.64957 9.25 9.05957 9.25C9.46957 9.25 9.80957 9.59 9.80957 10V14C9.80957 14.41 9.46957 14.75 9.05957 14.75Z" fill="white"/> </g> <defs> <clipPath id="clip0_4482_13501"> <rect width="24" height="24" fill="white"/> </clipPath> </defs> </svg>
