<svg width="24" height="24" viewBox="0 0 24 24" fill="none" xmlns="http://www.w3.org/2000/svg"> <g clip-path="url(#clip0_4482_9684)"> <path d="M2.9502 21.7998C2.5402 21.7998 2.2002 21.4598 2.2002 21.0498V19.8398C2.2002 19.4298 2.5402 19.0898 2.9502 19.0898C3.3602 19.0898 3.7002 19.4298 3.7002 19.8398V21.0498C3.7002 21.4598 3.3602 21.7998 2.9502 21.7998Z" fill="white"/> <path d="M12.4804 14.6599C12.0704 14.6599 11.7304 14.3199 11.7304 13.9099C11.7304 11.9599 10.1404 10.3699 8.19039 10.3699C6.24039 10.3699 4.65039 11.9599 4.65039 13.9099C4.65039 14.3199 4.31039 14.6599 3.90039 14.6599C3.49039 14.6599 3.15039 14.3199 3.15039 13.9099C3.15039 11.1299 5.41039 8.86987 8.19039 8.86987C10.9704 8.86987 13.2304 11.1299 13.2304 13.9099C13.2304 14.3199 12.8904 14.6599 12.4804 14.6599Z" fill="white"/> <path d="M13.4297 21.7998C13.0197 21.7998 12.6797 21.4598 12.6797 21.0498V19.8398C12.6797 19.4298 13.0197 19.0898 13.4297 19.0898C13.8397 19.0898 14.1797 19.4298 14.1797 19.8398V21.0498C14.1797 21.4598 13.8397 21.7998 13.4297 21.7998Z" fill="white"/> <path d="M12.48 20.8499H3.91C2.45 20.8499 1.25 19.6599 1.25 18.1899V15.3299C1.25 14.1299 2.23 13.1499 3.43 13.1499H3.91C5.11 13.1499 6.09 14.1299 6.09 15.3299V16.4899H10.3V15.3299C10.3 14.1299 11.28 13.1499 12.48 13.1499H12.96C14.16 13.1499 15.14 14.1299 15.14 15.3299V18.1899C15.14 19.6499 13.95 20.8499 12.49 20.8499H12.48ZM3.43 14.6599C3.06 14.6599 2.75 14.9599 2.75 15.3399V18.1999C2.75 18.8399 3.27 19.3599 3.91 19.3599H12.48C13.12 19.3599 13.63 18.8399 13.63 18.1999V15.3399C13.63 14.9699 13.33 14.6599 12.95 14.6599H12.47C12.1 14.6599 11.79 14.9599 11.79 15.3399V17.2499C11.79 17.6599 11.45 17.9999 11.04 17.9999H5.33C4.92 17.9999 4.58 17.6599 4.58 17.2499V15.3399C4.58 14.9699 4.28 14.6599 3.9 14.6599H3.42H3.43Z" fill="white"/> <path d="M18.1904 20.8499C17.7804 20.8499 17.4404 20.5099 17.4404 20.0999V9.61987C17.4404 9.20987 17.7804 8.86987 18.1904 8.86987C18.6004 8.86987 18.9404 9.20987 18.9404 9.61987V20.0999C18.9404 20.5099 18.6004 20.8499 18.1904 20.8499Z" fill="white"/> <path d="M21.0504 10.37H15.3404C14.8104 10.37 14.3004 10.12 13.9804 9.68996C13.6604 9.26996 13.5604 8.70996 13.7004 8.19996L14.8504 4.19996C15.1804 3.02996 16.2704 2.20996 17.4904 2.20996H18.9004C20.1204 2.20996 21.2104 3.02996 21.5404 4.19996L22.6804 8.19996C22.8304 8.70996 22.7204 9.26996 22.4004 9.68996C22.0804 10.11 21.5704 10.37 21.0404 10.37H21.0504ZM17.4904 3.69996C16.9304 3.69996 16.4404 4.06996 16.2904 4.60996L15.1504 8.60996C15.1304 8.66996 15.1504 8.73996 15.1804 8.78996C15.2204 8.83996 15.2804 8.86996 15.3404 8.86996H21.0504C21.1104 8.86996 21.1704 8.83996 21.2104 8.78996C21.2504 8.73996 21.2604 8.66996 21.2404 8.60996L20.1004 4.60996C19.9504 4.07996 19.4504 3.69996 18.9004 3.69996H17.4904Z" fill="white"/> </g> <defs> <clipPath id="clip0_4482_9684"> <rect width="24" height="24" fill="white"/> </clipPath> </defs> </svg>
