<svg width="24" height="24" viewBox="0 0 24 24" fill="none" xmlns="http://www.w3.org/2000/svg"> <g clip-path="url(#clip0_4482_4963)"> <path d="M12 17.2C11.8 17.2 11.61 17.17 11.44 17.11C10 16.61 6.25 14.42 6.25 10.33C6.25 8.38005 7.83 6.79004 9.78 6.79004C10.6 6.79004 11.38 7.08005 12 7.58005C12.62 7.07005 13.41 6.79004 14.22 6.79004C16.17 6.79004 17.75 8.38005 17.75 10.33C17.75 14.42 14 16.61 12.56 17.11C12.39 17.18 12.2 17.2 12 17.2ZM9.78 8.30005C8.66 8.30005 7.75 9.22004 7.75 10.34C7.75 13.54 10.85 15.33 11.93 15.7C11.95 15.71 12.03 15.7 12.06 15.7C13.15 15.32 16.24 13.53 16.24 10.34C16.24 9.22004 15.33 8.30005 14.21 8.30005C13.58 8.30005 12.98 8.61004 12.59 9.12004C12.45 9.31004 12.23 9.42004 11.99 9.42004C11.75 9.42004 11.53 9.31005 11.39 9.11005C11.02 8.60005 10.42 8.30005 9.78 8.30005Z" fill="white"/> <path d="M15.0002 22.75C14.7302 22.75 14.4802 22.6 14.3502 22.37C14.2202 22.14 14.2202 21.85 14.3602 21.62L15.4102 19.87C15.6202 19.52 16.0802 19.4 16.4402 19.61C16.8002 19.82 16.9102 20.28 16.7002 20.64L16.4302 21.09C19.1902 20.44 21.2602 17.96 21.2602 15C21.2602 14.59 21.6002 14.25 22.0102 14.25C22.4202 14.25 22.7602 14.59 22.7602 15C22.7502 19.27 19.2702 22.75 15.0002 22.75Z" fill="white"/> <path d="M2 9.75C1.59 9.75 1.25 9.41 1.25 9C1.25 4.73 4.73 1.25 9 1.25C9.27 1.25 9.51999 1.4 9.64999 1.63C9.77999 1.86 9.78001 2.15 9.64001 2.38L8.59 4.13C8.38 4.48 7.92 4.6 7.56 4.39C7.2 4.18 7.08999 3.72 7.29999 3.36L7.57001 2.91C4.81001 3.56 2.73999 6.04 2.73999 9C2.74999 9.41 2.41 9.75 2 9.75Z" fill="white"/> </g> <defs> <clipPath id="clip0_4482_4963"> <rect width="24" height="24" fill="white"/> </clipPath> </defs> </svg>
