<svg width="24" height="24" viewBox="0 0 24 24" fill="none" xmlns="http://www.w3.org/2000/svg"> <g clip-path="url(#clip0_4482_13507)"> <path d="M14.5 15.75C11.33 15.75 8.75 13.17 8.75 10C8.75 6.83 11.33 4.25 14.5 4.25C17.67 4.25 20.25 6.83 20.25 10C20.25 13.17 17.67 15.75 14.5 15.75ZM14.5 5.75C12.16 5.75 10.25 7.66 10.25 10C10.25 12.34 12.16 14.25 14.5 14.25C16.84 14.25 18.75 12.34 18.75 10C18.75 7.66 16.84 5.75 14.5 5.75Z" fill="white"/> <path d="M9.5 19.75C6.33 19.75 3.75 17.17 3.75 14C3.75 10.83 6.33 8.25 9.5 8.25C12.67 8.25 15.25 10.83 15.25 14C15.25 17.17 12.67 19.75 9.5 19.75ZM9.5 9.75C7.16 9.75 5.25 11.66 5.25 14C5.25 16.34 7.16 18.25 9.5 18.25C11.84 18.25 13.75 16.34 13.75 14C13.75 11.66 11.84 9.75 9.5 9.75Z" fill="white"/> <path d="M15.6203 22.7001C15.3503 22.7001 15.1003 22.5501 14.9703 22.3201C14.8403 22.0801 14.8403 21.8001 14.9803 21.5601L15.9303 19.9801C16.1403 19.6201 16.6003 19.5101 16.9603 19.7201C17.3103 19.9301 17.4303 20.3901 17.2203 20.7501L17.0703 21.0101C19.4503 20.3701 21.2103 18.2001 21.2103 15.6201C21.2103 15.2101 21.5503 14.8701 21.9603 14.8701C22.3703 14.8701 22.7103 15.2101 22.7103 15.6201C22.7103 19.5201 19.5303 22.7001 15.6303 22.7001H15.6203Z" fill="white"/> <path d="M2.0498 9.1298C1.6398 9.1298 1.2998 8.7898 1.2998 8.3798C1.2998 4.4798 4.4798 1.2998 8.3798 1.2998C8.6498 1.2998 8.8998 1.4498 9.0298 1.6798C9.1598 1.9198 9.1598 2.1998 9.0198 2.4398L8.0698 4.0198C7.8598 4.3798 7.3898 4.4898 7.0398 4.2798C6.6898 4.0698 6.56981 3.6098 6.77981 3.2498L6.9298 2.9898C4.5498 3.6298 2.7898 5.7998 2.7898 8.3798C2.7898 8.7898 2.4498 9.1298 2.0398 9.1298H2.0498Z" fill="white"/> </g> <defs> <clipPath id="clip0_4482_13507"> <rect width="24" height="24" fill="white"/> </clipPath> </defs> </svg>
