<svg width="24" height="24" viewBox="0 0 24 24" fill="none" xmlns="http://www.w3.org/2000/svg"> <g clip-path="url(#clip0_4482_3054)"> <path d="M17 22.75H7C3.83 22.75 1.25 20.17 1.25 17V7C1.25 3.83 3.83 1.25 7 1.25H17C20.17 1.25 22.75 3.83 22.75 7V17C22.75 20.17 20.17 22.75 17 22.75ZM7 2.75C4.66 2.75 2.75 4.66 2.75 7V17C2.75 19.34 4.66 21.25 7 21.25H17C19.34 21.25 21.25 19.34 21.25 17V7C21.25 4.66 19.34 2.75 17 2.75H7Z" fill="white"/> <path d="M17.6498 16.25H6.33984C5.92984 16.25 5.58984 15.91 5.58984 15.5C5.58984 15.09 5.92984 14.75 6.33984 14.75H17.6498C18.0598 14.75 18.3998 15.09 18.3998 15.5C18.3998 15.91 18.0598 16.25 17.6498 16.25Z" fill="white"/> <path d="M12 16.25C11.59 16.25 11.25 15.91 11.25 15.5V8.5C11.25 8.09 11.59 7.75 12 7.75C12.41 7.75 12.75 8.09 12.75 8.5V15.5C12.75 15.91 12.41 16.25 12 16.25Z" fill="white"/> <path d="M15.77 16.25C15.36 16.25 15.02 15.91 15.02 15.5V10.5C15.02 10.09 15.36 9.75 15.77 9.75C16.18 9.75 16.52 10.09 16.52 10.5V15.5C16.52 15.91 16.18 16.25 15.77 16.25Z" fill="white"/> <path d="M8.22998 16.25C7.81998 16.25 7.47998 15.91 7.47998 15.5V11.5C7.47998 11.09 7.81998 10.75 8.22998 10.75C8.63998 10.75 8.97998 11.09 8.97998 11.5V15.5C8.97998 15.91 8.63998 16.25 8.22998 16.25Z" fill="white"/> </g> <defs> <clipPath id="clip0_4482_3054"> <rect width="24" height="24" fill="white"/> </clipPath> </defs> </svg>
