<svg width="24" height="25" viewBox="0 0 24 25" fill="none" xmlns="http://www.w3.org/2000/svg"> <g clip-path="url(#clip0_3247_9537)"> <path d="M11.67 15.5297C11.47 15.5297 11.27 15.4497 11.12 15.2897L8.45004 12.4097C8.17004 12.1097 8.19002 11.6297 8.49002 11.3497C8.79002 11.0697 9.27002 11.0897 9.55002 11.3897L11.7101 13.7197L20.49 5.58969C20.79 5.30969 21.27 5.32968 21.55 5.62968C21.83 5.92968 21.81 6.40968 21.51 6.68968L12.18 15.3297C12.03 15.4697 11.85 15.5297 11.67 15.5297Z" fill="white"/> <path d="M12 23.6602C6.07 23.6602 1.25 18.8402 1.25 12.9102C1.25 6.98016 6.07 2.16016 12 2.16016C13.28 2.16016 14.54 2.38015 15.73 2.83015C16.12 2.97015 16.32 3.41016 16.17 3.79016C16.03 4.18016 15.6 4.38016 15.21 4.23016C14.18 3.85016 13.1 3.66016 12 3.66016C6.9 3.66016 2.75 7.81016 2.75 12.9102C2.75 18.0102 6.9 22.1602 12 22.1602C17.1 22.1602 21.25 18.0102 21.25 12.9102C21.25 12.5002 21.59 12.1602 22 12.1602C22.41 12.1602 22.75 12.5002 22.75 12.9102C22.75 18.8302 17.93 23.6602 12 23.6602Z" fill="white"/> </g> <defs> <clipPath id="clip0_3247_9537"> <rect width="24" height="24" fill="white" transform="translate(0 0.910156)"/> </clipPath> </defs> </svg>
