<svg width="24" height="24" viewBox="0 0 24 24" fill="none" xmlns="http://www.w3.org/2000/svg"> <g clip-path="url(#clip0_2085_381565)"> <path d="M22 7.74999C21.59 7.74999 21.25 7.40999 21.25 6.99999C21.25 5.68999 17.73 3.85999 12 3.85999C6.27 3.85999 2.75 5.68999 2.75 6.99999C2.75 7.40999 2.41 7.74999 2 7.74999C1.59 7.74999 1.25 7.40999 1.25 6.99999C1.25 3.98999 6.79 2.35999 12 2.35999C17.21 2.35999 22.75 3.98999 22.75 6.99999C22.75 7.40999 22.41 7.74999 22 7.74999Z" fill="white"/> <path d="M9.78018 11.54C9.60018 11.54 9.43018 11.48 9.28018 11.35C8.97018 11.08 8.94018 10.6 9.21018 10.29L11.4502 7.75H2.43018C2.02018 7.75 1.68018 7.41 1.68018 7C1.68018 6.59 2.02018 6.25 2.43018 6.25H13.1102C13.4002 6.25 13.6702 6.42 13.7902 6.69C13.9102 6.96 13.8602 7.27 13.6702 7.49L10.3402 11.28C10.1902 11.45 9.98018 11.53 9.78018 11.53V11.54Z" fill="white"/> <path d="M11.9998 11.64C11.2498 11.64 10.4798 11.61 9.70984 11.54C9.29984 11.5 8.98984 11.14 9.02984 10.73C9.06984 10.32 9.42984 10.01 9.83984 10.05C10.5598 10.11 11.2898 10.15 11.9998 10.15C17.7298 10.15 21.2498 8.32001 21.2498 7.01001C21.2498 6.60001 21.5898 6.26001 21.9998 6.26001C22.4098 6.26001 22.7498 6.60001 22.7498 7.01001C22.7498 10.02 17.2098 11.65 11.9998 11.65V11.64Z" fill="white"/> <path d="M11.9999 21.64C11.5899 21.64 11.1799 21.64 10.7799 21.61C9.78988 21.55 9.01988 20.73 9.02988 19.75V10.79C9.02988 10.38 9.36988 10.04 9.77988 10.04C10.1899 10.04 10.5299 10.38 10.5299 10.79V19.75C10.5299 19.94 10.6699 20.1 10.8599 20.11C11.2299 20.13 11.6099 20.14 11.9999 20.14C17.7299 20.14 21.2499 18.31 21.2499 17C21.2499 16.59 21.5899 16.25 21.9999 16.25C22.4099 16.25 22.7499 16.59 22.7499 17C22.7499 20.01 17.2099 21.64 11.9999 21.64Z" fill="white"/> <path d="M22 17.75C21.59 17.75 21.25 17.41 21.25 17V7C21.25 6.59 21.59 6.25 22 6.25C22.41 6.25 22.75 6.59 22.75 7V17C22.75 17.41 22.41 17.75 22 17.75Z" fill="white"/> <path d="M9.78 17.19H3.11C2.08 17.19 1.25 16.36 1.25 15.33V7C1.25 6.59 1.59 6.25 2 6.25C2.41 6.25 2.75 6.59 2.75 7V15.33C2.75 15.53 2.91 15.69 3.11 15.69H9.78C10.19 15.69 10.53 16.03 10.53 16.44C10.53 16.85 10.19 17.19 9.78 17.19Z" fill="white"/> </g> <defs> <clipPath id="clip0_2085_381565"> <rect width="24" height="24" fill="white"/> </clipPath> </defs> </svg>
