<svg width="24" height="24" viewBox="0 0 24 24" fill="none" xmlns="http://www.w3.org/2000/svg"> <g clip-path="url(#clip0_4482_15950)"> <path d="M20.1696 22.7496H8.90959C8.30959 22.7496 7.73959 22.4896 7.38959 22.0396C7.06959 21.6296 6.94959 21.0996 7.06959 20.5796C7.32959 19.4496 8.08959 17.3796 10.1796 16.1996C10.3996 16.0796 10.5996 15.9396 10.7796 15.7996C10.6396 15.8596 10.4996 15.9296 10.3596 15.9896C9.47959 16.3796 8.48959 16.8196 7.34959 17.8796C5.86959 19.2596 4.09959 19.0596 2.99959 18.2496C1.78959 17.3496 1.41959 15.8596 2.07959 14.5396C2.66959 13.3296 3.29959 12.7096 3.80959 12.1996C4.29959 11.7096 4.62959 11.3896 4.81959 10.6796C5.85959 6.78959 8.10959 5.42959 9.36959 4.95959C9.40959 4.93959 9.45959 4.92959 9.49959 4.91959C9.26959 3.78959 9.62959 2.54959 10.1396 1.63959C10.2596 1.42959 10.4696 1.28959 10.7096 1.25959C10.9496 1.22959 11.1896 1.31959 11.3496 1.49959L14.5396 4.97959C21.1596 6.32959 22.1496 14.0496 22.2596 20.6596C22.2596 21.2096 22.0596 21.7396 21.6696 22.1396C21.2796 22.5396 20.7496 22.7596 20.1896 22.7596L20.1696 22.7496ZM12.8296 11.5096C13.1696 11.5096 13.4696 11.7396 13.5596 12.0696C13.8696 13.2596 13.7196 15.9196 10.9196 17.5096C9.32959 18.4096 8.73959 20.0396 8.52959 20.9296C8.50959 20.9996 8.52959 21.0596 8.56959 21.1096C8.61959 21.1796 8.73959 21.2496 8.91959 21.2496H20.1796C20.3396 21.2496 20.4796 21.1896 20.5896 21.0796C20.6996 20.9696 20.7496 20.8296 20.7496 20.6796C20.5896 11.4796 18.5796 7.20959 14.0096 6.39959C13.8496 6.36959 13.6996 6.28959 13.5896 6.16959L11.0296 3.37959C10.8796 3.95959 10.8396 4.59959 11.1396 5.08959C11.2796 5.30959 11.2896 5.58959 11.1696 5.81959C11.0496 6.04959 10.8196 6.20959 10.5596 6.22959C10.1896 6.25959 9.97959 6.31959 9.86959 6.35959C8.88959 6.72959 7.10959 7.82959 6.24959 11.0696C5.95959 12.1696 5.39959 12.7296 4.85959 13.2596C4.37959 13.7396 3.89959 14.2196 3.40959 15.2096C3.00959 16.0196 3.40959 16.7096 3.87959 17.0496C4.42959 17.4596 5.39959 17.6396 6.30959 16.7896C7.62959 15.5496 8.79959 15.0396 9.72959 14.6196C10.9696 14.0696 11.6496 13.7696 12.0896 12.0696C12.1796 11.7396 12.4696 11.5096 12.8096 11.5096H12.8296Z" fill="white"/> </g> <defs> <clipPath id="clip0_4482_15950"> <rect width="24" height="24" fill="white"/> </clipPath> </defs> </svg>
