<svg width="24" height="24" viewBox="0 0 24 24" fill="none" xmlns="http://www.w3.org/2000/svg"> <g clip-path="url(#clip0_2085_381972)"> <path d="M15.7298 6.48047C14.1398 6.48047 13.4398 5.78047 12.0698 4.38047L11.9898 4.30047C10.5098 5.79047 9.82977 6.47047 8.25977 6.47047C7.15977 6.47047 6.25977 5.57047 6.25977 4.48047C6.25977 3.39047 7.14977 2.48047 8.25977 2.48047C8.66977 2.48047 9.00977 2.82047 9.00977 3.23047C9.00977 3.64047 8.66977 3.98047 8.25977 3.98047C7.98977 3.98047 7.75977 4.20047 7.75977 4.48047C7.75977 4.76047 7.97977 4.97047 8.25977 4.97047C9.17977 4.97047 9.50977 4.67047 10.9398 3.23047L11.4698 2.70047C11.7598 2.41047 12.2398 2.41047 12.5298 2.70047L13.1398 3.32047C14.4798 4.68047 14.7998 4.97047 15.7298 4.97047C15.9998 4.97047 16.2298 4.75047 16.2298 4.48047C16.2298 4.21047 16.0098 3.98047 15.7298 3.98047C15.3198 3.98047 14.9798 3.64047 14.9798 3.23047C14.9798 2.82047 15.3198 2.48047 15.7298 2.48047C16.8298 2.48047 17.7298 3.38047 17.7298 4.48047C17.7298 5.58047 16.8398 6.47047 15.7298 6.47047V6.48047Z" fill="white"/> <path d="M18.2298 12.1307C16.0298 12.1307 14.9098 11.3107 13.2198 10.0607C12.8598 9.7907 12.4598 9.5007 11.9998 9.1807C11.5598 9.4907 11.1698 9.7807 10.8098 10.0507C9.10981 11.3007 7.98981 12.1307 5.7798 12.1307C4.1698 12.1307 3.0498 10.8007 3.0498 9.6107C3.0498 9.2107 3.1798 8.8507 3.4298 8.5907C3.6198 8.3907 3.9698 8.1507 4.5398 8.1507C4.9498 8.1507 5.2898 8.4907 5.2898 8.9007C5.2898 9.3107 4.9598 9.6407 4.5498 9.6507C4.5498 9.7507 4.6098 9.9207 4.7598 10.1207C4.8798 10.2807 5.2098 10.6407 5.7898 10.6407C7.5098 10.6407 8.3198 10.0407 9.9298 8.8507C10.4098 8.4907 10.9498 8.1007 11.5898 7.6607C11.8498 7.4907 12.1798 7.4907 12.4398 7.6607C13.0898 8.1107 13.6398 8.5107 14.1198 8.8707C15.7698 10.0907 16.5298 10.6407 18.2398 10.6407C18.8098 10.6407 19.1498 10.2807 19.2598 10.1207C19.4098 9.9207 19.4598 9.7507 19.4698 9.6507C19.0898 9.6107 18.7698 9.2907 18.7698 8.9007C18.7698 8.4907 19.0698 8.1507 19.4898 8.1507C20.0598 8.1507 20.4098 8.3907 20.5998 8.5907C20.8498 8.8607 20.9798 9.2107 20.9798 9.6107C20.9798 10.8007 19.8598 12.1307 18.2498 12.1307H18.2298Z" fill="white"/> <path d="M12 3.99C11.59 3.99 11.25 3.65 11.25 3.24V2C11.25 1.59 11.59 1.25 12 1.25C12.41 1.25 12.75 1.59 12.75 2V3.24C12.75 3.65 12.41 3.99 12 3.99Z" fill="white"/> <path d="M15.7298 6.48047H8.25977C7.84977 6.48047 7.50977 6.14047 7.50977 5.73047C7.50977 5.32047 7.84977 4.98047 8.25977 4.98047H15.7298C16.1398 4.98047 16.4798 5.32047 16.4798 5.73047C16.4798 6.14047 16.1398 6.48047 15.7298 6.48047Z" fill="white"/> <path d="M18.2198 12.1309H5.77979C5.36979 12.1309 5.02979 11.7909 5.02979 11.3809C5.02979 10.9709 5.36979 10.6309 5.77979 10.6309H18.2298C18.6398 10.6309 18.9798 10.9709 18.9798 11.3809C18.9798 11.7909 18.6398 12.1309 18.2298 12.1309H18.2198Z" fill="white"/> <path d="M11.9998 17.7694C7.6398 17.7694 3.3598 17.1694 3.1798 17.1394C2.7898 17.0794 2.5098 16.7394 2.5398 16.3394C2.5698 15.9394 2.8898 15.6394 3.2898 15.6394C4.8498 15.6394 6.3698 15.3494 7.8098 14.7694L11.7198 13.1694C11.8998 13.0894 12.1098 13.0894 12.2898 13.1694L16.1998 14.7694C17.6398 15.3494 19.1698 15.6394 20.7198 15.6394C21.1098 15.6394 21.4398 15.9394 21.4698 16.3394C21.4998 16.7394 21.2198 17.0794 20.8298 17.1394C20.6498 17.1694 16.3698 17.7694 12.0098 17.7694H11.9998ZM8.4198 16.1494C10.6798 16.2894 13.3198 16.2894 15.5798 16.1494L11.9998 14.6794L8.4198 16.1494Z" fill="white"/> <path d="M9.50977 10.8202C9.09977 10.8202 8.75977 10.4802 8.75977 10.0702V5.74023C8.75977 5.33023 9.09977 4.99023 9.50977 4.99023C9.91977 4.99023 10.2598 5.33023 10.2598 5.74023V10.0702C10.2598 10.4802 9.91977 10.8202 9.50977 10.8202Z" fill="white"/> <path d="M14.4897 10.8102C14.0797 10.8102 13.7397 10.4702 13.7397 10.0602V5.74023C13.7397 5.33023 14.0797 4.99023 14.4897 4.99023C14.8997 4.99023 15.2397 5.33023 15.2397 5.74023V10.0602C15.2397 10.4702 14.8997 10.8102 14.4897 10.8102Z" fill="white"/> <path d="M7.02002 16.4209C6.61002 16.4209 6.27002 16.0809 6.27002 15.6709V11.3809C6.27002 10.9709 6.61002 10.6309 7.02002 10.6309C7.43002 10.6309 7.77002 10.9709 7.77002 11.3809V15.6709C7.77002 16.0809 7.43002 16.4209 7.02002 16.4209Z" fill="white"/> <path d="M16.98 16.4209C16.57 16.4209 16.23 16.0809 16.23 15.6709V11.3809C16.23 10.9709 16.57 10.6309 16.98 10.6309C17.39 10.6309 17.73 10.9709 17.73 11.3809V15.6709C17.73 16.0809 17.39 16.4209 16.98 16.4209Z" fill="white"/> <path d="M18.2197 22.7509C17.8097 22.7509 17.4697 22.4109 17.4697 22.0009V16.7109C17.4697 16.3009 17.8097 15.9609 18.2197 15.9609C18.6297 15.9609 18.9697 16.3009 18.9697 16.7109V22.0009C18.9697 22.4109 18.6297 22.7509 18.2197 22.7509Z" fill="white"/> <path d="M5.77979 22.7495C5.36979 22.7495 5.02979 22.4095 5.02979 21.9995V16.6895C5.02979 16.2795 5.36979 15.9395 5.77979 15.9395C6.18979 15.9395 6.52979 16.2795 6.52979 16.6895V21.9995C6.52979 22.4095 6.18979 22.7495 5.77979 22.7495Z" fill="white"/> <path d="M20.71 22.75H3.29004C2.88004 22.75 2.54004 22.41 2.54004 22C2.54004 21.59 2.88004 21.25 3.29004 21.25H20.72C21.13 21.25 21.47 21.59 21.47 22C21.47 22.41 21.13 22.75 20.72 22.75H20.71Z" fill="white"/> <path d="M13.2398 22.7498C12.8298 22.7498 12.4898 22.4098 12.4898 21.9998V20.7598C12.4898 20.4898 12.2698 20.2598 11.9998 20.2598C11.7298 20.2598 11.5098 20.4798 11.5098 20.7598V21.9998C11.5098 22.4098 11.1698 22.7498 10.7598 22.7498C10.3498 22.7498 10.0098 22.4098 10.0098 21.9998V20.7598C10.0098 19.6598 10.8998 18.7598 11.9998 18.7598C13.0998 18.7598 13.9898 19.6598 13.9898 20.7598V21.9998C13.9898 22.4098 13.6498 22.7498 13.2398 22.7498Z" fill="white"/> </g> <defs> <clipPath id="clip0_2085_381972"> <rect width="24" height="24" fill="white"/> </clipPath> </defs> </svg>
