<svg width="24" height="24" viewBox="0 0 24 24" fill="none" xmlns="http://www.w3.org/2000/svg"> <g clip-path="url(#clip0_2085_381965)"> <path d="M22 22.1692H2C1.59 22.1692 1.25 21.8292 1.25 21.4192V15.1992C1.25 14.7892 1.59 14.4492 2 14.4492H22C22.41 14.4492 22.75 14.7892 22.75 15.1992V21.4192C22.75 21.8292 22.41 22.1692 22 22.1692ZM2.75 20.6692H21.25V15.9492H2.75V20.6692Z" fill="white"/> <path d="M20.7102 12.209H18.2202C17.8102 12.209 17.4702 11.869 17.4702 11.459V7.24903C17.4702 6.09903 18.1102 5.07903 19.1302 4.56903C19.3402 4.45903 19.5902 4.46903 19.8002 4.56903C20.8202 5.07903 21.4602 6.10903 21.4602 7.25903V11.469C21.4602 11.879 21.1202 12.219 20.7102 12.219V12.209ZM18.9702 10.709H19.9602V7.24903C19.9602 6.80903 19.7802 6.40903 19.4602 6.12903C19.1502 6.40903 18.9602 6.80903 18.9602 7.24903V10.709H18.9702Z" fill="white"/> <path d="M19.4702 5.99023C19.0602 5.99023 18.7202 5.65023 18.7202 5.24023V3.99023C18.7202 3.58023 19.0602 3.24023 19.4702 3.24023C19.8802 3.24023 20.2202 3.58023 20.2202 3.99023V5.24023C20.2202 5.65023 19.8802 5.99023 19.4702 5.99023Z" fill="white"/> <path d="M20.71 15.9507C20.3 15.9507 19.96 15.6107 19.96 15.2007V11.4707C19.96 11.0607 20.3 10.7207 20.71 10.7207C21.12 10.7207 21.46 11.0607 21.46 11.4707V15.2007C21.46 15.6107 21.12 15.9507 20.71 15.9507Z" fill="white"/> <path d="M5.78004 12.2094H3.29004C2.88004 12.2094 2.54004 11.8694 2.54004 11.4594V7.24938C2.54004 6.09938 3.18004 5.07937 4.20004 4.55938C4.41004 4.45938 4.66004 4.45938 4.87004 4.55938C5.89004 5.06937 6.53004 6.09937 6.53004 7.23937V11.4494C6.53004 11.8594 6.19004 12.1994 5.78004 12.1994V12.2094ZM4.04004 10.7094H5.03004V7.24938C5.03004 6.80938 4.85004 6.40938 4.53004 6.12938C4.22004 6.40938 4.03004 6.80938 4.03004 7.24938V10.7094H4.04004Z" fill="white"/> <path d="M4.52979 5.99023C4.11979 5.99023 3.77979 5.65023 3.77979 5.24023V3.99023C3.77979 3.58023 4.11979 3.24023 4.52979 3.24023C4.93979 3.24023 5.27979 3.58023 5.27979 3.99023V5.24023C5.27979 5.65023 4.93979 5.99023 4.52979 5.99023Z" fill="white"/> <path d="M3.29004 15.9507C2.88004 15.9507 2.54004 15.6107 2.54004 15.2007V11.4707C2.54004 11.0607 2.88004 10.7207 3.29004 10.7207C3.70004 10.7207 4.04004 11.0607 4.04004 11.4707V15.2007C4.04004 15.6107 3.70004 15.9507 3.29004 15.9507Z" fill="white"/> <path d="M18.2198 12.2109H5.77979C5.36979 12.2109 5.02979 11.8709 5.02979 11.4609C5.02979 11.0509 5.36979 10.7109 5.77979 10.7109H18.2298C18.6398 10.7109 18.9798 11.0509 18.9798 11.4609C18.9798 11.8709 18.6398 12.2109 18.2298 12.2109H18.2198Z" fill="white"/> <path d="M15.7298 8.48047H8.25977C7.84977 8.48047 7.50977 8.14047 7.50977 7.73047C7.50977 7.32047 7.84977 6.98047 8.25977 6.98047H15.7298C16.1398 6.98047 16.4798 7.32047 16.4798 7.73047C16.4798 8.14047 16.1398 8.48047 15.7298 8.48047Z" fill="white"/> <path d="M14.4898 12.2102C14.0798 12.2102 13.7398 11.8702 13.7398 11.4602V6.48023C13.7398 5.52023 12.9598 4.74023 11.9998 4.74023C11.0398 4.74023 10.2598 5.52023 10.2598 6.48023V11.4602C10.2598 11.8702 9.91977 12.2102 9.50977 12.2102C9.09977 12.2102 8.75977 11.8702 8.75977 11.4602V6.48023C8.75977 4.69023 10.2098 3.24023 11.9998 3.24023C13.7898 3.24023 15.2398 4.69023 15.2398 6.48023V11.4602C15.2398 11.8702 14.8998 12.2102 14.4898 12.2102Z" fill="white"/> <path d="M12 8.48C11.59 8.48 11.25 8.14 11.25 7.73V2.75C11.25 2.34 11.59 2 12 2C12.41 2 12.75 2.34 12.75 2.75V7.73C12.75 8.14 12.41 8.48 12 8.48Z" fill="white"/> <path d="M7.02002 15.9492C6.61002 15.9492 6.27002 15.6092 6.27002 15.1992V13.9492C6.27002 13.5392 6.61002 13.1992 7.02002 13.1992C7.43002 13.1992 7.77002 13.5392 7.77002 13.9492V15.1992C7.77002 15.6092 7.43002 15.9492 7.02002 15.9492Z" fill="white"/> <path d="M12 15.9492C11.59 15.9492 11.25 15.6092 11.25 15.1992V13.9492C11.25 13.5392 11.59 13.1992 12 13.1992C12.41 13.1992 12.75 13.5392 12.75 13.9492V15.1992C12.75 15.6092 12.41 15.9492 12 15.9492Z" fill="white"/> <path d="M16.98 15.9492C16.57 15.9492 16.23 15.6092 16.23 15.1992V13.9492C16.23 13.5392 16.57 13.1992 16.98 13.1992C17.39 13.1992 17.73 13.5392 17.73 13.9492V15.1992C17.73 15.6092 17.39 15.9492 16.98 15.9492Z" fill="white"/> <path d="M5.78004 8.48047H3.29004C2.88004 8.48047 2.54004 8.14047 2.54004 7.73047C2.54004 7.32047 2.88004 6.98047 3.29004 6.98047H5.78004C6.19004 6.98047 6.53004 7.32047 6.53004 7.73047C6.53004 8.14047 6.19004 8.48047 5.78004 8.48047Z" fill="white"/> <path d="M20.7102 8.48047H18.2202C17.8102 8.48047 17.4702 8.14047 17.4702 7.73047C17.4702 7.32047 17.8102 6.98047 18.2202 6.98047H20.7102C21.1202 6.98047 21.4602 7.32047 21.4602 7.73047C21.4602 8.14047 21.1202 8.48047 20.7102 8.48047Z" fill="white"/> <path d="M13.2398 22.1695C12.8298 22.1695 12.4898 21.8295 12.4898 21.4195V18.9295C12.4898 18.6595 12.2698 18.4395 11.9998 18.4395C11.7298 18.4395 11.5098 18.6595 11.5098 18.9295V21.4195C11.5098 21.8295 11.1698 22.1695 10.7598 22.1695C10.3498 22.1695 10.0098 21.8295 10.0098 21.4195V18.9295C10.0098 17.8295 10.9098 16.9395 11.9998 16.9395C13.0898 16.9395 13.9898 17.8295 13.9898 18.9295V21.4195C13.9898 21.8295 13.6498 22.1695 13.2398 22.1695Z" fill="white"/> <path d="M7.6399 22.1695C7.2299 22.1695 6.8899 21.8295 6.8899 21.4195V18.9295C6.8899 18.6595 6.6699 18.4395 6.3999 18.4395C6.1299 18.4395 5.8999 18.6595 5.8999 18.9295V21.4195C5.8999 21.8295 5.5599 22.1695 5.1499 22.1695C4.7399 22.1695 4.3999 21.8295 4.3999 21.4195V18.9295C4.3999 17.8295 5.2999 16.9395 6.3999 16.9395C7.4999 16.9395 8.3899 17.8295 8.3899 18.9295V21.4195C8.3899 21.8295 8.0499 22.1695 7.6399 22.1695Z" fill="white"/> <path d="M18.8501 22.1695C18.4401 22.1695 18.1001 21.8295 18.1001 21.4195V18.9295C18.1001 18.6595 17.8801 18.4395 17.6101 18.4395C17.3401 18.4395 17.1201 18.6595 17.1201 18.9295V21.4195C17.1201 21.8295 16.7801 22.1695 16.3701 22.1695C15.9601 22.1695 15.6201 21.8295 15.6201 21.4195V18.9295C15.6201 17.8295 16.5201 16.9395 17.6101 16.9395C18.7001 16.9395 19.6001 17.8295 19.6001 18.9295V21.4195C19.6001 21.8295 19.2601 22.1695 18.8501 22.1695Z" fill="white"/> </g> <defs> <clipPath id="clip0_2085_381965"> <rect width="24" height="24" fill="white"/> </clipPath> </defs> </svg>
