<svg width="24" height="24" viewBox="0 0 24 24" fill="none" xmlns="http://www.w3.org/2000/svg"> <g clip-path="url(#clip0_4482_9687)"> <path d="M12.1504 22.75C6.22039 22.75 1.40039 17.93 1.40039 12C1.40039 6.07 6.22039 1.25 12.1504 1.25C18.0804 1.25 22.9004 6.07 22.9004 12C22.9004 17.93 18.0804 22.75 12.1504 22.75ZM12.1504 2.75C7.05039 2.75 2.90039 6.9 2.90039 12C2.90039 17.1 7.05039 21.25 12.1504 21.25C17.2504 21.25 21.4004 17.1 21.4004 12C21.4004 6.9 17.2504 2.75 12.1504 2.75Z" fill="white"/> <path d="M21.1104 17.1899H3.19043C2.78043 17.1899 2.44043 16.8499 2.44043 16.4399C2.44043 16.0299 2.78043 15.6899 3.19043 15.6899H21.1104C21.5204 15.6899 21.8604 16.0299 21.8604 16.4399C21.8604 16.8499 21.5204 17.1899 21.1104 17.1899Z" fill="white"/> <path d="M21.9004 10.53H2.40039C1.99039 10.53 1.65039 10.19 1.65039 9.78003C1.65039 9.37003 1.99039 9.03003 2.40039 9.03003H21.9004C22.3104 9.03003 22.6504 9.37003 22.6504 9.78003C22.6504 10.19 22.3104 10.53 21.9004 10.53Z" fill="white"/> <path d="M6.58984 17.1901C6.17984 17.1901 5.83984 16.8501 5.83984 16.4401V13.1101C5.83984 12.7001 6.17984 12.3601 6.58984 12.3601C6.99984 12.3601 7.33984 12.7001 7.33984 13.1101V16.4401C7.33984 16.8501 6.99984 17.1901 6.58984 17.1901Z" fill="white"/> <path d="M9.91992 17.1901C9.50992 17.1901 9.16992 16.8501 9.16992 16.4401V13.1101C9.16992 12.7001 9.50992 12.3601 9.91992 12.3601C10.3299 12.3601 10.6699 12.7001 10.6699 13.1101V16.4401C10.6699 16.8501 10.3299 17.1901 9.91992 17.1901Z" fill="white"/> <path d="M13.2598 17.1901C12.8498 17.1901 12.5098 16.8501 12.5098 16.4401V13.1101C12.5098 12.7001 12.8498 12.3601 13.2598 12.3601C13.6698 12.3601 14.0098 12.7001 14.0098 13.1101V16.4401C14.0098 16.8501 13.6698 17.1901 13.2598 17.1901Z" fill="white"/> <path d="M12.1504 10.53C11.7404 10.53 11.4004 10.19 11.4004 9.77995V6.44995C11.4004 6.03995 11.7404 5.69995 12.1504 5.69995C12.5604 5.69995 12.9004 6.03995 12.9004 6.44995V9.77995C12.9004 10.19 12.5604 10.53 12.1504 10.53Z" fill="white"/> <path d="M15.4805 10.53C15.0705 10.53 14.7305 10.19 14.7305 9.77995V6.44995C14.7305 6.03995 15.0705 5.69995 15.4805 5.69995C15.8905 5.69995 16.2305 6.03995 16.2305 6.44995V9.77995C16.2305 10.19 15.8905 10.53 15.4805 10.53Z" fill="white"/> <path d="M21.0398 22.75H3.25977C2.84977 22.75 2.50977 22.41 2.50977 22C2.50977 21.59 2.84977 21.25 3.25977 21.25H21.0398C21.4498 21.25 21.7898 21.59 21.7898 22C21.7898 22.41 21.4498 22.75 21.0398 22.75Z" fill="white"/> </g> <defs> <clipPath id="clip0_4482_9687"> <rect width="24" height="24" fill="white"/> </clipPath> </defs> </svg>
