<svg width="24" height="24" viewBox="0 0 24 24" fill="none" xmlns="http://www.w3.org/2000/svg"> <g clip-path="url(#clip0_4482_3377)"> <path d="M12 22.75C6.07 22.75 1.25 17.93 1.25 12C1.25 6.07 6.07 1.25 12 1.25C17.93 1.25 22.75 6.07 22.75 12C22.75 17.93 17.93 22.75 12 22.75ZM12 2.75C6.9 2.75 2.75 6.9 2.75 12C2.75 17.1 6.9 21.25 12 21.25C17.1 21.25 21.25 17.1 21.25 12C21.25 6.9 17.1 2.75 12 2.75Z" fill="white"/> <path d="M15.5 13.75C14.8 13.75 14.14 13.49 13.64 13.02C13.07 12.49 12.75 11.78 12.75 11C12.75 9.48 13.98 8.25 15.5 8.25C16.49 8.25 17.38 8.76 17.88 9.62C18.12 10.04 18.25 10.51 18.25 11C18.25 12.52 17.02 13.75 15.5 13.75ZM15.5 9.75C14.81 9.75 14.25 10.31 14.25 11C14.25 11.35 14.4 11.68 14.66 11.92C14.89 12.14 15.19 12.25 15.5 12.25C16.19 12.25 16.75 11.69 16.75 11C16.75 10.78 16.69 10.56 16.58 10.38C16.35 9.98 15.95 9.75 15.5 9.75Z" fill="white"/> <path d="M21.24 10.75H17.23C16.82 10.75 16.48 10.41 16.48 10C16.48 9.59 16.82 9.25 17.23 9.25H21.24C21.65 9.25 21.99 9.59 21.99 10C21.99 10.41 21.65 10.75 21.24 10.75Z" fill="white"/> <path d="M3.06004 16.5798C2.88004 16.5798 2.70004 16.5198 2.56004 16.3898C2.25004 16.1098 2.22999 15.6398 2.50999 15.3298L7.07994 10.2598C7.39994 9.90981 7.84004 9.6998 8.31004 9.6798C8.78004 9.6598 9.23994 9.82981 9.57994 10.1698L12.36 12.8098C12.45 12.8998 12.6199 12.8898 12.7099 12.7998L13.63 11.9298C13.93 11.6398 14.4099 11.6598 14.6899 11.9598C14.9699 12.2598 14.96 12.7398 14.66 13.0198L13.73 13.8998C13.04 14.5298 11.9899 14.5298 11.3199 13.8998L8.54002 11.2598C8.47002 11.1998 8.39997 11.1898 8.35997 11.1898C8.30997 11.1898 8.24993 11.2098 8.18993 11.2698L3.61998 16.3398C3.46998 16.4998 3.26004 16.5798 3.06004 16.5798Z" fill="white"/> </g> <defs> <clipPath id="clip0_4482_3377"> <rect width="24" height="24" fill="white"/> </clipPath> </defs> </svg>
