<svg width="24" height="24" viewBox="0 0 24 24" fill="none" xmlns="http://www.w3.org/2000/svg"> <g clip-path="url(#clip0_4482_3401)"> <path d="M16.64 13.5201C16.45 13.5201 16.26 13.4501 16.11 13.3001L10.72 7.91007C10.58 7.77007 10.5 7.58007 10.5 7.38007C10.5 7.18007 10.58 6.99007 10.72 6.85007L15.32 2.25006C15.53 2.03006 15.86 1.97006 16.14 2.09006C18.75 3.17006 20.86 5.29007 21.94 7.88007C22.06 8.16007 21.99 8.48006 21.78 8.70006L17.18 13.3001C17.02 13.4501 16.83 13.5201 16.64 13.5201ZM12.31 7.38007L16.64 11.7101L20.35 8.00006C19.45 6.12006 17.9 4.58006 16.02 3.67006L12.31 7.38007Z" fill="white"/> <path d="M12.0298 15.0598C11.8298 15.0598 11.6398 14.9798 11.4998 14.8398L9.18976 12.5298C9.04976 12.3898 8.96973 12.1898 8.96973 11.9798C8.96973 11.7798 9.05978 11.5798 9.20978 11.4398C9.93978 10.7598 10.3797 9.84979 10.4297 8.85979L10.5098 7.33979C10.5298 6.92979 10.8697 6.6098 11.2997 6.6298C11.7097 6.6498 12.0298 6.99979 12.0098 7.41979L11.9297 8.93979C11.8697 10.0598 11.4598 11.1198 10.7698 11.9798L12.0598 13.2698C12.9198 12.5798 13.9897 12.1598 15.0997 12.1098L16.6198 12.0298C17.0398 12.0098 17.3897 12.3298 17.4097 12.7398C17.4297 13.1498 17.1098 13.5098 16.6998 13.5298L15.1797 13.6098C14.1997 13.6598 13.2597 14.0998 12.5997 14.8198C12.4597 14.9698 12.2698 15.0598 12.0598 15.0698C12.0398 15.0598 12.0298 15.0598 12.0298 15.0598Z" fill="white"/> <path d="M10.4402 16.6402C10.3602 16.6402 10.2802 16.6302 10.2002 16.6002L6.76018 15.4302C6.51018 15.3502 6.33019 15.1402 6.27019 14.8902C6.21019 14.6402 6.29014 14.3702 6.47014 14.1902L9.19018 11.4802C9.48018 11.1902 9.96017 11.1902 10.2502 11.4802L12.5502 13.7802C12.8402 14.0702 12.8402 14.5502 12.5502 14.8402L10.9701 16.4202C10.8301 16.5602 10.6402 16.6402 10.4402 16.6402ZM8.38018 14.4002L10.2402 15.0302L10.9602 14.3102L9.72014 13.0702L8.38018 14.4002Z" fill="white"/> <path d="M12 22.75C6.07 22.75 1.25 17.93 1.25 12C1.25 6.07 6.07 1.25 12 1.25C13.46 1.25 14.86 1.53 16.15 2.09C18.75 3.17 20.86 5.28 21.94 7.88C22.48 9.19 22.76 10.57 22.76 12C22.75 17.93 17.93 22.75 12 22.75ZM12 2.75C6.9 2.75 2.75 6.9 2.75 12C2.75 17.1 6.9 21.25 12 21.25C17.1 21.25 21.25 17.1 21.25 12C21.25 10.77 21.01 9.58001 20.55 8.46001C19.62 6.22001 17.81 4.41 15.57 3.48C14.45 2.99 13.26 2.75 12 2.75Z" fill="white"/> </g> <defs> <clipPath id="clip0_4482_3401"> <rect width="24" height="24" fill="white"/> </clipPath> </defs> </svg>
