<svg width="24" height="24" viewBox="0 0 24 24" fill="none" xmlns="http://www.w3.org/2000/svg"> <g clip-path="url(#clip0_4482_12913)"> <path d="M18.9998 17.75C18.6798 17.75 18.3798 17.54 18.2798 17.22C18.1598 16.82 18.3798 16.4 18.7798 16.29C20.2598 15.84 21.2498 14.52 21.2498 13C21.2498 11.09 19.6998 9.54 17.7898 9.54C17.3798 9.54 17.0398 9.2 17.0398 8.79C17.0398 6.01 14.7798 3.76 11.9998 3.76C9.21977 3.76 6.95977 6.02 6.95977 8.79C6.95977 9.2 6.61977 9.54 6.20977 9.54C4.29977 9.54 2.74977 11.09 2.74977 13C2.74977 14.52 3.73977 15.85 5.21977 16.29C5.61977 16.41 5.83977 16.83 5.71977 17.22C5.59977 17.61 5.17977 17.84 4.78977 17.72C2.67977 17.08 1.25977 15.18 1.25977 12.99C1.25977 10.5 3.10977 8.43 5.50977 8.08C5.85977 4.8 8.63977 2.25 12.0098 2.25C15.3798 2.25 18.1598 4.81 18.5098 8.08C20.9098 8.43 22.7598 10.5 22.7598 12.99C22.7598 15.18 21.3398 17.08 19.2298 17.72C19.1598 17.74 19.0798 17.75 19.0098 17.75H18.9998Z" fill="white"/> <path d="M14.4898 16.8696H12.9898V15.8396C12.9898 15.2896 12.5398 14.8496 11.9998 14.8496C11.4598 14.8496 11.0098 15.2996 11.0098 15.8396V16.8696H9.50977V15.8396C9.50977 14.4596 10.6298 13.3496 11.9998 13.3496C13.3698 13.3496 14.4898 14.4696 14.4898 15.8396V16.8696Z" fill="white"/> <path d="M13.65 22.2497H10.36C9.03996 22.2497 7.95996 21.1797 7.95996 19.8497V18.3297C7.95996 17.0097 9.02996 15.9297 10.36 15.9297H13.65C14.97 15.9297 16.05 16.9997 16.05 18.3297V19.8497C16.05 21.1697 14.98 22.2497 13.65 22.2497ZM10.36 17.4397C9.86996 17.4397 9.45996 17.8397 9.45996 18.3397V19.8597C9.45996 20.3497 9.85996 20.7597 10.36 20.7597H13.65C14.14 20.7597 14.55 20.3597 14.55 19.8597V18.3397C14.55 17.8497 14.15 17.4397 13.65 17.4397H10.36Z" fill="white"/> </g> <defs> <clipPath id="clip0_4482_12913"> <rect width="24" height="24" fill="white"/> </clipPath> </defs> </svg>
