<svg width="24" height="24" viewBox="0 0 24 24" fill="none" xmlns="http://www.w3.org/2000/svg"> <g clip-path="url(#clip0_2085_390736)"> <path d="M17.4698 22.7502H6.52979C5.00979 22.7502 3.77979 21.5202 3.77979 20.0002V11.8802C3.77979 9.39016 4.54978 7.00016 5.98978 4.97016C6.12979 4.77016 6.35979 4.66016 6.59979 4.66016H10.3298C10.7398 4.66016 11.0798 5.00016 11.0798 5.41016C11.0798 5.82016 10.7398 6.16016 10.3298 6.16016H6.98978C5.85979 7.86016 5.26979 9.83016 5.26979 11.8802V20.0002C5.26979 20.6902 5.82979 21.2502 6.51979 21.2502H17.4598C18.1498 21.2502 18.7098 20.6902 18.7098 20.0002V11.8802C18.7098 9.83016 18.1198 7.86016 16.9898 6.16016H13.6498C13.2398 6.16016 12.8998 5.82016 12.8998 5.41016C12.8998 5.00016 13.2398 4.66016 13.6498 4.66016H17.3798C17.6198 4.66016 17.8498 4.78016 17.9898 4.97016C19.4398 7.00016 20.1998 9.39016 20.1998 11.8802V20.0002C20.1998 21.5202 18.9698 22.7502 17.4498 22.7502H17.4698Z" fill="white"/> <path d="M17.3899 6.15H13.6599C13.2499 6.15 12.9099 5.81 12.9099 5.4C12.9099 4.99 13.2499 4.65 13.6599 4.65H16.6399V3C16.6399 2.86 16.5299 2.75 16.3899 2.75H7.60986C7.46986 2.75 7.35986 2.86 7.35986 3V4.65H10.3399C10.7499 4.65 11.0899 4.99 11.0899 5.4C11.0899 5.81 10.7499 6.15 10.3399 6.15H6.60986C6.19986 6.15 5.85986 5.81 5.85986 5.4V3C5.85986 2.04 6.64986 1.25 7.60986 1.25H16.3999C17.3599 1.25 18.1499 2.04 18.1499 3V5.4C18.1499 5.81 17.8099 6.15 17.3999 6.15H17.3899Z" fill="white"/> <path d="M19.4698 19.8496H4.52979C4.11979 19.8496 3.77979 19.5096 3.77979 19.0996C3.77979 18.6896 4.11979 18.3496 4.52979 18.3496H19.4698C19.8798 18.3496 20.2198 18.6896 20.2198 19.0996C20.2198 19.5096 19.8798 19.8496 19.4698 19.8496Z" fill="white"/> <path d="M12.8297 16.961C11.7697 16.961 10.6197 16.491 9.7097 15.571C8.1197 13.981 7.8597 11.661 9.1197 10.401C10.3797 9.14095 12.6997 9.40095 14.2897 10.991C15.8797 12.581 16.1397 14.891 14.8797 16.161C14.3397 16.701 13.6097 16.961 12.8297 16.961ZM11.1697 11.101C10.7797 11.101 10.4297 11.221 10.1797 11.471C9.5097 12.141 9.7797 13.531 10.7697 14.521C11.7497 15.501 13.1497 15.771 13.8197 15.111C14.4897 14.441 14.2197 13.051 13.2297 12.061C12.6097 11.441 11.8297 11.101 11.1697 11.101Z" fill="white"/> <path d="M14.3497 16.3795C14.0597 16.3795 13.7897 16.2195 13.6697 15.9395L13.2597 15.0495C13.0097 14.4995 12.4997 14.1095 11.8897 14.0295C10.7797 13.8695 9.83968 13.1695 9.36968 12.1395L8.95968 11.2495C8.78968 10.8695 8.95968 10.4295 9.32968 10.2595C9.70968 10.0895 10.1497 10.2595 10.3197 10.6295L10.7297 11.5195C10.9797 12.0695 11.4897 12.4595 12.0997 12.5395C13.2097 12.6995 14.1497 13.3995 14.6197 14.4295L15.0297 15.3195C15.1997 15.6995 15.0297 16.1395 14.6597 16.3095C14.5597 16.3595 14.4497 16.3795 14.3497 16.3795Z" fill="white"/> <path d="M10.3398 8.23C10.1998 8.23 10.0698 8.19 9.94984 8.12C9.72984 7.98 9.58984 7.74 9.58984 7.48V2C9.58984 1.59 9.92984 1.25 10.3398 1.25H13.6598C14.0698 1.25 14.4098 1.59 14.4098 2V7.48C14.4098 7.74 14.2798 7.98 14.0498 8.12C13.8298 8.26 13.5498 8.27 13.3198 8.15L11.9998 7.49L10.6798 8.15C10.5698 8.2 10.4598 8.23 10.3398 8.23ZM11.9998 5.9C12.1098 5.9 12.2298 5.93 12.3398 5.98L12.9098 6.27V2.76H11.0898V6.27L11.6598 5.98C11.7698 5.93 11.8798 5.9 11.9998 5.9Z" fill="white"/> </g> <defs> <clipPath id="clip0_2085_390736"> <rect width="24" height="24" fill="white"/> </clipPath> </defs> </svg>
