<svg width="24" height="24" viewBox="0 0 24 24" fill="none" xmlns="http://www.w3.org/2000/svg"> <g clip-path="url(#clip0_2085_390738)"> <path d="M14.2199 20.6209C12.1299 20.6209 10.2799 19.7609 9.33992 18.1309C8.54992 16.7709 8.50992 15.1009 9.21992 13.4409C9.89992 11.8509 11.1999 10.4409 12.8699 9.48092C14.5399 8.51092 16.4099 8.09092 18.1299 8.30092C19.9299 8.52092 21.3499 9.38092 22.1299 10.7509C23.7099 13.4909 22.1299 17.3709 18.5999 19.4109C17.1699 20.2309 15.6399 20.6309 14.2199 20.6309V20.6209ZM17.2499 9.75092C16.0499 9.75092 14.7799 10.1109 13.6099 10.7809C12.2099 11.5909 11.1399 12.7409 10.5899 14.0309C10.0699 15.2509 10.0799 16.4409 10.6299 17.3809C11.7999 19.4009 15.0299 19.7209 17.8399 18.1009C20.6499 16.4809 21.9899 13.5109 20.8299 11.4909C20.2899 10.5509 19.2599 9.94092 17.9499 9.78092C17.7199 9.75092 17.4899 9.74092 17.2599 9.74092L17.2499 9.75092Z" fill="white"/> <path d="M9.97973 18.5111C9.61973 18.5111 9.29973 18.2511 9.23973 17.8811C9.16973 17.4711 9.44973 17.0911 9.85973 17.0211L11.7897 16.7011C13.2497 16.4611 14.4597 15.5011 15.0397 14.1511C15.8197 12.3211 17.4597 11.0311 19.4197 10.7111L21.3497 10.3911C21.7497 10.3311 22.1397 10.6011 22.2097 11.0111C22.2797 11.4211 21.9997 11.8011 21.5897 11.8711L19.6597 12.1911C18.2097 12.4311 16.9897 13.3911 16.4097 14.7411C15.6297 16.5711 13.9897 17.8611 12.0297 18.1811L10.0997 18.5011C10.0997 18.5011 10.0197 18.5011 9.97973 18.5011V18.5111Z" fill="white"/> <path d="M8.14982 17.8104C7.12982 17.8104 6.07982 17.4804 5.08982 16.8304C3.63982 15.8904 2.47982 14.3604 1.81982 12.5504C1.15982 10.7304 1.06982 8.82041 1.56982 7.17041C2.09982 5.44041 3.19982 4.19041 4.66982 3.65041C7.63982 2.57041 11.1898 4.81041 12.5798 8.63041C12.8198 9.29041 12.9798 9.96041 13.0698 10.6404C13.1198 11.0504 12.8298 11.4304 12.4198 11.4804C11.9998 11.5304 11.6298 11.2404 11.5798 10.8304C11.5098 10.2604 11.3698 9.69041 11.1698 9.14041C10.0598 6.09041 7.36982 4.25041 5.17982 5.05041C4.15982 5.42041 3.37982 6.33041 2.99982 7.59041C2.58982 8.94041 2.66982 10.5104 3.21982 12.0304C3.76982 13.5404 4.71982 14.8004 5.89982 15.5704C7.00982 16.2904 8.17982 16.4904 9.20982 16.1204C9.58982 15.9604 10.0698 16.1204 10.2298 16.5104C10.3898 16.8904 10.2498 17.3204 9.86982 17.4804C9.81982 17.5004 9.76982 17.5204 9.70982 17.5404C9.19982 17.7204 8.67982 17.8204 8.13982 17.8204L8.14982 17.8104Z" fill="white"/> <path d="M9.48973 16.1013C9.07973 16.1013 8.73973 15.7613 8.74973 15.3413V14.8613C8.76973 13.3913 8.03973 12.0213 6.79973 11.2213C5.12973 10.1313 4.14973 8.30133 4.16973 6.31133L4.18973 4.35133C4.18973 3.94133 4.52973 3.61133 4.93973 3.61133C5.34973 3.61133 5.68973 3.95133 5.67973 4.37133L5.65973 6.33133C5.64973 7.80133 6.36973 9.17133 7.60973 9.97133C9.27973 11.0613 10.2597 12.8913 10.2397 14.8813V15.3613C10.2397 15.7713 9.89973 16.1013 9.48973 16.1013Z" fill="white"/> </g> <defs> <clipPath id="clip0_2085_390738"> <rect width="24" height="24" fill="white"/> </clipPath> </defs> </svg>
