<svg width="24" height="24" viewBox="0 0 24 24" fill="none" xmlns="http://www.w3.org/2000/svg"> <g clip-path="url(#clip0_4482_5479)"> <path d="M20.5 22.25H3.5C2.26 22.25 1.25 21.24 1.25 20V19C1.25 17.76 2.26 16.75 3.5 16.75H20.5C21.74 16.75 22.75 17.76 22.75 19V20C22.75 21.24 21.74 22.25 20.5 22.25ZM3.5 18.25C3.09 18.25 2.75 18.59 2.75 19V20C2.75 20.41 3.09 20.75 3.5 20.75H20.5C20.91 20.75 21.25 20.41 21.25 20V19C21.25 18.59 20.91 18.25 20.5 18.25H3.5Z" fill="white"/> <path d="M19 18.25H5C4.59 18.25 4.25 17.91 4.25 17.5V7.5C4.25 7.09 4.59 6.75 5 6.75H19C19.41 6.75 19.75 7.09 19.75 7.5V17.5C19.75 17.91 19.41 18.25 19 18.25ZM5.75 16.75H18.25V8.25H5.75V16.75Z" fill="white"/> <path d="M21 8.25H3C2.04 8.25 1.25 7.46 1.25 6.5V5.5C1.25 3.43 2.93 1.75 5 1.75H19C21.07 1.75 22.75 3.43 22.75 5.5V6.5C22.75 7.46 21.96 8.25 21 8.25ZM5 3.25C3.76 3.25 2.75 4.26 2.75 5.5V6.5C2.75 6.64 2.86 6.75 3 6.75H21C21.14 6.75 21.25 6.64 21.25 6.5V5.5C21.25 4.26 20.24 3.25 19 3.25H5Z" fill="white"/> <path d="M9 11.25C8.59 11.25 8.25 10.91 8.25 10.5V7.5C8.25 7.09 8.59 6.75 9 6.75C9.41 6.75 9.75 7.09 9.75 7.5V10.5C9.75 10.91 9.41 11.25 9 11.25Z" fill="white"/> <path d="M15 11.25C14.59 11.25 14.25 10.91 14.25 10.5V7.5C14.25 7.09 14.59 6.75 15 6.75C15.41 6.75 15.75 7.09 15.75 7.5V10.5C15.75 10.91 15.41 11.25 15 11.25Z" fill="white"/> <path d="M10 11.25H8C7.59 11.25 7.25 10.91 7.25 10.5C7.25 10.09 7.59 9.75 8 9.75H10C10.41 9.75 10.75 10.09 10.75 10.5C10.75 10.91 10.41 11.25 10 11.25Z" fill="white"/> <path d="M16 11.25H14C13.59 11.25 13.25 10.91 13.25 10.5C13.25 10.09 13.59 9.75 14 9.75H16C16.41 9.75 16.75 10.09 16.75 10.5C16.75 10.91 16.41 11.25 16 11.25Z" fill="white"/> </g> <defs> <clipPath id="clip0_4482_5479"> <rect width="24" height="24" fill="white"/> </clipPath> </defs> </svg>
