<svg width="24" height="24" viewBox="0 0 24 24" fill="none" xmlns="http://www.w3.org/2000/svg"> <g clip-path="url(#clip0_4482_13512)"> <path d="M11.75 9.88C11.34 9.88 11 9.54 11 9.13V8C11 7.59 11.34 7.25 11.75 7.25C12.16 7.25 12.5 7.59 12.5 8V9.13C12.5 9.54 12.16 9.88 11.75 9.88Z" fill="white"/> <path d="M11.75 17.7501C11.34 17.7501 11 17.4101 11 17.0001V15.8701C11 15.4601 11.34 15.1201 11.75 15.1201C12.16 15.1201 12.5 15.4601 12.5 15.8701V17.0001C12.5 17.4101 12.16 17.7501 11.75 17.7501Z" fill="white"/> <path d="M12.42 16.6201H11.19C10.36 16.6201 9.6 16.1801 9.16 15.4501C8.95 15.1001 9.06 14.6301 9.41 14.4201C9.76 14.2101 10.23 14.3201 10.44 14.6701C10.52 14.8001 10.76 15.1201 11.19 15.1201H12.42C12.88 15.1201 13.25 14.7501 13.25 14.2901C13.25 13.9101 12.99 13.5801 12.63 13.4901L10.51 12.9601C9.47 12.6901 8.75 11.7701 8.75 10.7001C8.75 9.42012 9.79 8.37012 11.08 8.37012H12.31C13.13 8.37012 13.89 8.80012 14.34 9.53012C14.56 9.88012 14.45 10.3401 14.1 10.5601C13.75 10.7801 13.29 10.6701 13.07 10.3201C12.99 10.1901 12.75 9.88012 12.32 9.88012H11.09C10.63 9.88012 10.26 10.2501 10.26 10.7101C10.26 11.0901 10.52 11.4201 10.89 11.5101L12.99 12.0401C14.03 12.2901 14.76 13.2201 14.76 14.3001C14.76 15.5801 13.72 16.6301 12.43 16.6301L12.42 16.6201Z" fill="white"/> <path d="M12.2002 23.0498C6.2702 23.0498 1.4502 18.2298 1.4502 12.2998C1.4502 6.3698 6.2802 1.5498 12.2002 1.5498C12.6102 1.5498 12.9502 1.8898 12.9502 2.2998C12.9502 2.7098 12.6102 3.0498 12.2002 3.0498C7.1002 3.0498 2.9502 7.1998 2.9502 12.2998C2.9502 17.3998 7.1002 21.5498 12.2002 21.5498C17.3002 21.5498 21.4502 17.3998 21.4502 12.2998C21.4502 11.8898 21.7902 11.5498 22.2002 11.5498C22.6102 11.5498 22.9502 11.8898 22.9502 12.2998C22.9502 18.2298 18.1302 23.0498 12.2002 23.0498Z" fill="white"/> <path d="M17.1302 8.63965C16.9302 8.63965 16.7402 8.55965 16.6002 8.41965L14.9402 6.75965C14.6502 6.46965 14.6502 5.98965 14.9402 5.69965C15.2302 5.40965 15.7102 5.40965 16.0002 5.69965L16.3802 6.07965V3.88965C16.3802 3.47965 16.7202 3.13965 17.1302 3.13965C17.5402 3.13965 17.8802 3.47965 17.8802 3.88965V7.88965C17.8802 8.18965 17.7002 8.46965 17.4202 8.57965C17.3302 8.61965 17.2302 8.63965 17.1302 8.63965Z" fill="white"/> <path d="M19.4697 8.64013C19.0597 8.64013 18.7197 8.30013 18.7197 7.89013V3.89013C18.7197 3.59013 18.8997 3.31013 19.1797 3.20013C19.4597 3.08013 19.7797 3.15013 19.9997 3.36013L21.6597 5.02013C21.9497 5.31013 21.9497 5.79013 21.6597 6.08013C21.3697 6.37013 20.8897 6.37013 20.5997 6.08013L20.2197 5.70013V7.89013C20.2197 8.30013 19.8797 8.64013 19.4697 8.64013Z" fill="white"/> </g> <defs> <clipPath id="clip0_4482_13512"> <rect width="24" height="24" fill="white"/> </clipPath> </defs> </svg>
