<svg width="24" height="24" viewBox="0 0 24 24" fill="none" xmlns="http://www.w3.org/2000/svg"> <g clip-path="url(#clip0_4482_11412)"> <path d="M12.9202 18.8599H12.0002C10.1602 18.8599 8.37017 18.0999 7.08017 16.7799C5.80017 15.4599 5.09017 13.6399 5.14017 11.7999C5.28017 8.19993 8.20017 5.27993 11.8002 5.13993C13.6302 5.06993 15.4602 5.78993 16.7802 7.07993C18.1002 8.36993 18.8602 10.1599 18.8602 11.9999V12.6799C18.8602 13.2399 18.6402 13.7699 18.2402 14.1699C17.8402 14.5699 17.3102 14.7899 16.7502 14.7899H15.3502C15.1602 14.7899 14.9802 14.8799 14.8602 15.0299C14.7502 15.1799 14.7102 15.3799 14.7602 15.5599L14.9302 16.1699C15.1102 16.7999 14.9802 17.4899 14.5902 18.0199C14.1902 18.5499 13.5602 18.8599 12.9102 18.8599H12.9202ZM12.0002 6.63993C12.0002 6.63993 11.9002 6.63993 11.8502 6.63993C9.04017 6.74993 6.75017 9.03993 6.64017 11.8499C6.60017 13.2799 7.15017 14.6999 8.16017 15.7299C9.16017 16.7599 10.5702 17.3499 12.0002 17.3499H12.9202C13.1102 17.3499 13.2902 17.2599 13.4102 17.1099C13.5202 16.9599 13.5602 16.7599 13.5102 16.5799L13.3402 15.9699C13.1602 15.3399 13.2902 14.6499 13.6802 14.1199C14.0802 13.5899 14.7102 13.2799 15.3602 13.2799H16.7602C16.9202 13.2799 17.0702 13.2199 17.1902 13.0999C17.3002 12.9899 17.3702 12.8299 17.3702 12.6699V11.9899C17.3702 10.5499 16.7802 9.14992 15.7502 8.14992C14.7502 7.17992 13.4002 6.62993 12.0102 6.62993L12.0002 6.63993Z" fill="white"/> <path d="M9.24 11.1899C9.11 11.1899 8.97 11.1599 8.87 11.0999C8.51 10.8999 8.36 10.3799 8.56 10.0199C8.66 9.83992 8.85 9.67992 9.04 9.62992C9.24 9.56992 9.5 9.60992 9.68 9.71992C10.01 9.92992 10.14 10.4299 9.96 10.7799C9.86 10.9599 9.67 11.0999 9.47 11.1499C9.4 11.1699 9.32 11.1799 9.23 11.1799L9.24 11.1899Z" fill="white"/> <path d="M9.2801 14.3501C9.0001 14.3501 8.7101 14.2101 8.5701 13.9701C8.4701 13.7901 8.4301 13.5401 8.4901 13.3401C8.5401 13.1501 8.7001 12.9501 8.8701 12.8601C9.23011 12.6601 9.7501 12.8001 9.9501 13.1601C10.0501 13.3301 10.0701 13.5701 10.0201 13.7701C9.97011 13.9601 9.8301 14.1601 9.6601 14.2601C9.5501 14.3201 9.42011 14.3501 9.29011 14.3501H9.2801Z" fill="white"/> <path d="M14.7 11.2002C14.63 11.2002 14.56 11.2002 14.49 11.1702C14.32 11.1202 14.15 11.0002 14.05 10.8502L14.03 10.8202L14.01 10.7902C13.91 10.6102 13.88 10.3802 13.94 10.1802C13.99 10.0002 14.13 9.8102 14.3 9.7102C14.47 9.6102 14.71 9.5802 14.9 9.6302C15.09 9.6802 15.3 9.8102 15.4 9.9802C15.61 10.3302 15.48 10.8602 15.12 11.0802C15 11.1502 14.85 11.1902 14.7 11.1902V11.2002Z" fill="white"/> <path d="M11.9797 9.62979C11.7897 9.62979 11.5797 9.54979 11.4397 9.41979C11.2797 9.27979 11.1797 9.03979 11.1797 8.82979C11.1797 8.41979 11.5697 8.02979 11.9797 8.02979C12.3897 8.02979 12.7797 8.41979 12.7797 8.82979C12.7797 9.23979 12.3897 9.62979 11.9797 9.62979Z" fill="white"/> <path d="M16.44 22.75H7.56C4.08 22.75 1.25 19.92 1.25 16.44V7.56C1.25 4.08 4.08 1.25 7.56 1.25H16.45C19.93 1.25 22.76 4.08 22.76 7.56V16.45C22.76 19.93 19.93 22.76 16.45 22.76L16.44 22.75ZM7.56 2.75C4.91 2.75 2.75 4.91 2.75 7.56V16.45C2.75 19.1 4.91 21.26 7.56 21.26H16.45C19.1 21.26 21.26 19.1 21.26 16.45V7.56C21.26 4.91 19.1 2.75 16.45 2.75H7.56Z" fill="white"/> </g> <defs> <clipPath id="clip0_4482_11412"> <rect width="24" height="24" fill="white"/> </clipPath> </defs> </svg>
