<svg width="24" height="24" viewBox="0 0 24 24" fill="none" xmlns="http://www.w3.org/2000/svg"> <g clip-path="url(#clip0_4482_3591)"> <path d="M17.5 22.75H6.5C3.88 22.75 1.75 20.62 1.75 18V13C1.75 10.38 3.88 8.25 6.5 8.25H17.5C20.12 8.25 22.25 10.38 22.25 13V18C22.25 20.62 20.12 22.75 17.5 22.75ZM6.5 9.75C4.71 9.75 3.25 11.21 3.25 13V18C3.25 19.79 4.71 21.25 6.5 21.25H17.5C19.29 21.25 20.75 19.79 20.75 18V13C20.75 11.21 19.29 9.75 17.5 9.75H6.5Z" fill="white"/> <path d="M12 6.75C10.48 6.75 9.25 5.52 9.25 4C9.25 2.48 10.48 1.25 12 1.25C13.52 1.25 14.75 2.48 14.75 4C14.75 5.52 13.52 6.75 12 6.75ZM12 2.75C11.31 2.75 10.75 3.31 10.75 4C10.75 4.69 11.31 5.25 12 5.25C12.69 5.25 13.25 4.69 13.25 4C13.25 3.31 12.69 2.75 12 2.75Z" fill="white"/> <path d="M7.06003 9.6901C6.87003 9.6901 6.68 9.62009 6.53 9.47009C6.24 9.18009 6.24 8.7001 6.53 8.4101L10.06 4.8801C10.35 4.5901 10.8301 4.5901 11.1201 4.8801C11.4101 5.1701 11.4101 5.6501 11.1201 5.9401L7.59006 9.47009C7.44006 9.62009 7.25003 9.6901 7.06003 9.6901Z" fill="white"/> <path d="M17 9.68996C16.81 9.68996 16.6199 9.61996 16.4699 9.46996L13.05 6.04996C12.76 5.75996 12.76 5.27996 13.05 4.98996C13.34 4.69996 13.8201 4.69996 14.1101 4.98996L17.53 8.40996C17.82 8.69996 17.82 9.17996 17.53 9.46996C17.38 9.61996 17.19 9.68996 17 9.68996Z" fill="white"/> <path d="M11.9901 19.26C11.0301 19.26 10.0602 18.89 9.33022 18.16C9.15022 17.98 9.07003 17.7101 9.13003 17.4601C9.19003 17.2101 9.38026 17 9.62026 16.92L10.3302 16.68C10.7302 16.55 11.1502 16.76 11.2802 17.15C11.3402 17.32 11.3302 17.49 11.2702 17.65C12.0602 17.91 12.9502 17.7301 13.5802 17.1001C14.0002 16.6801 14.2301 16.12 14.2401 15.53C14.2401 15.12 14.5801 14.79 14.9901 14.79H15.0001C15.4101 14.79 15.7501 15.13 15.7401 15.55C15.7301 16.54 15.34 17.47 14.64 18.16C13.92 18.89 12.9601 19.26 11.9901 19.26Z" fill="white"/> <path d="M9.00004 16.4C8.61004 16.4 8.27004 16.09 8.25004 15.69C8.19004 14.63 8.59013 13.59 9.34013 12.84C10.8101 11.37 13.19 11.38 14.66 12.84C14.84 13.02 14.9201 13.29 14.8601 13.54C14.8001 13.79 14.6102 14 14.3702 14.08L13.66 14.32C13.26 14.45 12.84 14.24 12.71 13.85C12.65 13.68 12.66 13.51 12.72 13.35C11.93 13.09 11.03 13.27 10.41 13.9C9.95995 14.35 9.72005 14.97 9.76005 15.6C9.78005 16.01 9.47009 16.37 9.05009 16.39C9.03009 16.4 9.02004 16.4 9.00004 16.4Z" fill="white"/> </g> <defs> <clipPath id="clip0_4482_3591"> <rect width="24" height="24" fill="white"/> </clipPath> </defs> </svg>
