<svg width="24" height="24" viewBox="0 0 24 24" fill="none" xmlns="http://www.w3.org/2000/svg"> <g clip-path="url(#clip0_4482_14520)"> <path d="M19.63 14.6703C18.82 14.6703 18 14.3603 17.38 13.7403L10.15 6.50027C8.95 5.30027 8.95 3.35027 10.15 2.15027C11.31 0.990273 13.34 0.990273 14.5 2.15027L21.88 9.54027C23.04 10.7003 23.04 12.5803 21.88 13.7403C21.26 14.3603 20.45 14.6703 19.63 14.6703ZM18.44 12.6803C19.09 13.3303 20.16 13.3303 20.82 12.6803C21.39 12.1103 21.39 11.1703 20.82 10.6003L13.44 3.21027C12.85 2.62027 11.81 2.62027 11.22 3.21027C10.61 3.83027 10.61 4.83027 11.22 5.44027L18.45 12.6803H18.44Z" fill="white"/> <path d="M2.00043 22.7098C1.81043 22.7098 1.62043 22.6398 1.47043 22.4898C1.18043 22.1998 1.18043 21.7198 1.47043 21.4298L3.49043 19.4098C3.87043 19.0298 4.40043 18.8598 4.91043 18.9698L7.36043 19.4598L4.76043 15.9598C4.41043 15.4898 4.41043 14.8598 4.76043 14.3898C5.12043 13.9198 5.72043 13.7498 6.27043 13.9598L10.4504 15.5698L8.46043 12.7798C8.15043 12.3398 8.13043 11.7598 8.43043 11.3098C8.72043 10.8598 9.26043 10.6298 9.78043 10.7398L11.7004 11.1298L13.7804 9.0798C14.0704 8.7898 14.5504 8.7898 14.8404 9.0798C15.1304 9.3698 15.1304 9.84981 14.8404 10.1398L12.8204 12.1598C12.4404 12.5398 11.9104 12.6998 11.4004 12.5998L9.96043 12.3098L12.0404 15.2198C12.3804 15.6898 12.3604 16.3198 12.0104 16.7798C11.6504 17.2398 11.0504 17.4098 10.5104 17.1998L6.35043 15.5898L8.85043 18.9598C9.17043 19.3998 9.20043 19.9798 8.90043 20.4398C8.61043 20.8998 8.07043 21.1298 7.54043 21.0198L4.59043 20.4298L2.51043 22.4798C2.36043 22.6298 2.17043 22.6998 1.98043 22.6998L2.00043 22.7098Z" fill="white"/> </g> <defs> <clipPath id="clip0_4482_14520"> <rect width="24" height="24" fill="white"/> </clipPath> </defs> </svg>
