<svg width="24" height="24" viewBox="0 0 24 24" fill="none" xmlns="http://www.w3.org/2000/svg"> <g clip-path="url(#clip0_2085_390747)"> <path d="M10.3002 20.1809H8.64023C6.62023 20.1809 4.99023 18.5409 4.99023 16.5209V11.1309C4.99023 10.7209 5.33023 10.3809 5.74023 10.3809H13.2102C13.6202 10.3809 13.9602 10.7209 13.9602 11.1309V16.5209C13.9602 18.5409 12.3202 20.1809 10.3102 20.1809H10.3002ZM6.48023 11.8809V16.5209C6.48023 17.7109 7.45023 18.6809 8.63023 18.6809H10.2902C11.4802 18.6809 12.4402 17.7109 12.4402 16.5209V11.8809H6.47023H6.48023Z" fill="white"/> <path d="M13.1999 16.8609C12.8899 16.8609 12.5899 16.6609 12.4899 16.3509C12.3599 15.9609 12.5699 15.5309 12.9599 15.4009L14.8799 14.7609L14.9299 13.2109C14.9299 13.2109 14.8899 13.1309 14.8499 13.1309H13.1899C12.7799 13.1309 12.4399 12.7909 12.4399 12.3809C12.4399 11.9709 12.7799 11.6309 13.1899 11.6309H14.8499C15.7199 11.6309 16.4299 12.3409 16.4299 13.2109V14.6909C16.4299 15.3709 15.9999 15.9709 15.3499 16.1909L13.4299 16.8309C13.3499 16.8609 13.2699 16.8709 13.1899 16.8709L13.1999 16.8609Z" fill="white"/> <path d="M13.2 14.3691H5.72998C5.31998 14.3691 4.97998 14.0291 4.97998 13.6191C4.97998 13.2091 5.31998 12.8691 5.72998 12.8691H13.2C13.61 12.8691 13.95 13.2091 13.95 13.6191C13.95 14.0291 13.61 14.3691 13.2 14.3691Z" fill="white"/> <path d="M14.45 22.7497H4.49C2.7 22.7497 1.25 21.2997 1.25 19.5097C1.25 19.0997 1.59 18.6797 2 18.6797H16.94C17.35 18.6797 17.69 19.0197 17.69 19.4297V19.5097C17.69 21.2997 16.24 22.7497 14.45 22.7497ZM2.9 20.1797C3.17 20.8197 3.78 21.2497 4.49 21.2497H14.45C15.17 21.2497 15.79 20.8097 16.06 20.1797H2.9Z" fill="white"/> <path d="M10.2 11.8809H8.22998C7.12998 11.8809 6.23998 10.9909 6.22998 9.89087C6.22998 9.36087 6.43998 8.86087 6.80998 8.48087C7.18998 8.10087 7.68998 7.90087 8.21998 7.90087H9.46998C9.73998 7.90087 9.96998 7.68087 9.96998 7.40087C9.96998 7.10087 10.15 6.82087 10.43 6.71087C10.71 6.59087 11.03 6.66087 11.25 6.87087L11.98 7.60087C12.45 8.08087 12.72 8.71087 12.72 9.38087C12.72 10.7609 11.59 11.8909 10.21 11.8909L10.2 11.8809ZM8.21998 9.39087C8.08998 9.39087 7.95998 9.44087 7.86998 9.53087C7.77998 9.62087 7.72998 9.75087 7.72998 9.88087C7.72998 10.1509 7.94998 10.3809 8.22998 10.3809H10.2C10.76 10.3809 11.21 9.93087 11.21 9.37087C11.21 9.13087 11.12 8.90087 10.97 8.71087C10.6 9.13087 10.07 9.39087 9.46998 9.39087H8.21998Z" fill="white"/> <path d="M20 10.22H15.28C13.72 10.22 12.46 8.95 12.46 7.4V4.08C12.46 2.52 13.73 1.25 15.28 1.25H20C21.52 1.25 22.75 2.48 22.75 4V7.47C22.75 8.99 21.52 10.22 20 10.22ZM15.28 2.75C14.55 2.75 13.96 3.34 13.96 4.08V7.4C13.96 8.13 14.55 8.72 15.28 8.72H20C20.69 8.72 21.25 8.16 21.25 7.47V4C21.25 3.31 20.69 2.75 20 2.75H15.28Z" fill="white"/> <path d="M13.2 8.14031H10.71C10.3 8.14031 9.95996 7.80031 9.95996 7.39031V5.07031C9.95996 4.11031 10.75 3.32031 11.71 3.32031H13.2C13.61 3.32031 13.95 3.66031 13.95 4.07031V7.39031C13.95 7.80031 13.61 8.14031 13.2 8.14031ZM11.46 6.64031H12.45V4.82031H11.71C11.57 4.82031 11.46 4.93031 11.46 5.07031V6.64031Z" fill="white"/> <path d="M22 6.07H17.77C17.36 6.07 17.02 5.73 17.02 5.32V2C17.02 1.59 17.36 1.25 17.77 1.25H20C21.52 1.25 22.75 2.48 22.75 4V5.32C22.75 5.73 22.41 6.07 22 6.07ZM18.52 4.57H21.25V4C21.25 3.31 20.69 2.75 20 2.75H18.52V4.57Z" fill="white"/> </g> <defs> <clipPath id="clip0_2085_390747"> <rect width="24" height="24" fill="white"/> </clipPath> </defs> </svg>
