<svg width="24" height="24" viewBox="0 0 24 24" fill="none" xmlns="http://www.w3.org/2000/svg"> <g clip-path="url(#clip0_2085_381870)"> <path d="M20.3302 22.75C19.0002 22.75 17.9102 21.67 17.9102 20.33V18.3H6.08023V20.33C6.08023 21.66 5.00023 22.75 3.66023 22.75C2.32023 22.75 1.24023 21.67 1.24023 20.33V3.67C1.24023 2.34 2.32023 1.25 3.66023 1.25C5.00023 1.25 6.08023 2.33 6.08023 3.67V5.7H8.11023C8.37023 5.7 8.62023 5.38 8.75023 5.08C9.30023 3.77 10.5802 2.93 12.0002 2.93C13.4202 2.93 14.7002 3.78 15.2502 5.08C15.3802 5.38 15.6302 5.7 15.8902 5.7H17.9202V3.67C17.9202 2.34 19.0002 1.25 20.3402 1.25C21.6802 1.25 22.7602 2.33 22.7602 3.67V20.34C22.7602 21.67 21.6802 22.76 20.3402 22.76L20.3302 22.75ZM19.4202 17.56V20.34C19.4202 20.85 19.8302 21.26 20.3402 21.26C20.8502 21.26 21.2602 20.85 21.2602 20.34V3.67C21.2602 3.16 20.8502 2.75 20.3402 2.75C19.8302 2.75 19.4202 3.16 19.4202 3.67V17.56ZM3.67023 2.75C3.16023 2.75 2.75023 3.16 2.75023 3.67V20.34C2.75023 20.85 3.16023 21.26 3.67023 21.26C4.18023 21.26 4.59023 20.85 4.59023 20.34V3.67C4.59023 3.16 4.18023 2.75 3.67023 2.75ZM16.0802 16.81H17.9102V10.53H16.0802V16.81ZM12.7502 16.81H14.5802V10.53H12.7502V16.81ZM9.42023 16.81H11.2502V10.53H9.42023V16.81ZM6.08023 16.81H7.91023V10.53H6.08023V16.81ZM6.08023 9.03H17.9102V7.2H15.8802C15.0402 7.2 14.2602 6.61 13.8602 5.66C13.5402 4.91 12.8102 4.42 11.9902 4.42C11.1702 4.42 10.4402 4.91 10.1202 5.66C9.72023 6.61 8.94024 7.2 8.10023 7.2H6.07023V9.03H6.08023ZM12.5602 7.75H11.4502C11.0402 7.75 10.7002 7.41 10.7002 7C10.7002 6.59 11.0402 6.25 11.4502 6.25H12.5602C12.9702 6.25 13.3102 6.59 13.3102 7C13.3102 7.41 12.9702 7.75 12.5602 7.75Z" fill="white"/> </g> <defs> <clipPath id="clip0_2085_381870"> <rect width="24" height="24" fill="white"/> </clipPath> </defs> </svg>
