<svg width="24" height="24" viewBox="0 0 24 24" fill="none" xmlns="http://www.w3.org/2000/svg"> <g clip-path="url(#clip0_2085_386179)"> <path d="M8.10005 22.6102C6.94005 22.6102 5.76005 22.3202 4.68005 21.6902C3.09005 20.7702 1.96005 19.3002 1.48005 17.5302C1.01005 15.7602 1.25005 13.9102 2.17005 12.3302C2.80005 11.2402 4.19005 10.8702 5.28005 11.5002C6.37005 12.1302 6.74005 13.5202 6.11005 14.6102C5.80005 15.1402 5.72005 15.7602 5.88005 16.3602C6.04005 16.9502 6.42005 17.4502 6.95005 17.7602C7.48005 18.0702 8.10005 18.1502 8.70005 17.9902C9.29005 17.8302 9.78005 17.4502 10.09 16.9302C10.09 16.9302 10.09 16.9302 10.09 16.9202L15.43 7.67023L17.0401 4.87023L18.48 2.38023C19.11 1.29023 20.5 0.920227 21.59 1.55023C22.1201 1.85023 22.49 2.34023 22.65 2.93023C22.81 3.52023 22.73 4.13023 22.42 4.66023L20.9501 7.20023L19.34 10.0002L14.03 19.2002C14.03 19.2002 14.0301 19.2102 14.0201 19.2202C12.75 21.4002 10.4401 22.6302 8.08005 22.6302L8.10005 22.6102ZM4.14005 12.6802C3.87005 12.6802 3.61005 12.8202 3.47005 13.0702C2.75005 14.3102 2.56005 15.7502 2.93005 17.1402C3.30005 18.5202 4.19005 19.6802 5.43005 20.3902C7.99005 21.8702 11.2701 20.9902 12.75 18.4302V18.4102L17.6901 9.87023L16.3601 9.07023L11.41 17.6502C11.41 17.6502 11.41 17.6502 11.41 17.6602C10.9 18.5402 10.0801 19.1702 9.10005 19.4302C8.12005 19.6902 7.09005 19.5602 6.21005 19.0502C5.33005 18.5402 4.70005 17.7202 4.44005 16.7402C4.18005 15.7602 4.31005 14.7302 4.82005 13.8502C5.03005 13.4802 4.91005 13.0002 4.54005 12.7902C4.42005 12.7202 4.29005 12.6902 4.15005 12.6902L4.14005 12.6802ZM17.1101 7.76023L18.4401 8.56023L19.31 7.06023L17.98 6.26023L17.1101 7.76023ZM18.73 4.96023L20.06 5.76023L21.15 3.88023C21.25 3.70023 21.28 3.49023 21.23 3.29023C21.18 3.09023 21.0501 2.92023 20.8701 2.82023C20.5 2.61023 20.02 2.73023 19.81 3.10023L18.74 4.96023H18.73ZM19.3 22.5702C17.48 22.5702 16.01 21.0902 16.01 19.2802C16.01 17.4702 17.49 15.9902 19.3 15.9902C21.11 15.9902 22.59 17.4702 22.59 19.2802C22.59 21.0902 21.11 22.5702 19.3 22.5702ZM19.3 17.4802C18.31 17.4802 17.51 18.2802 17.51 19.2702C17.51 20.2602 18.32 21.0602 19.3 21.0602C20.28 21.0602 21.09 20.2502 21.09 19.2702C21.09 18.2902 20.28 17.4802 19.3 17.4802Z" fill="white"/> </g> <defs> <clipPath id="clip0_2085_386179"> <rect width="24" height="24" fill="white"/> </clipPath> </defs> </svg>
