<svg width="24" height="24" viewBox="0 0 24 24" fill="none" xmlns="http://www.w3.org/2000/svg"> <g clip-path="url(#clip0_2085_386393)"> <path d="M11.9998 13.9995C10.8998 13.9995 10.0098 13.1095 10.0098 12.0095C10.0098 10.9095 10.8998 10.0195 11.9998 10.0195C13.0998 10.0195 13.9898 10.9095 13.9898 12.0095C13.9898 13.1095 13.0998 13.9995 11.9998 13.9995ZM11.9998 11.5095C11.7298 11.5095 11.5098 11.7295 11.5098 11.9995C11.5098 12.2695 11.7298 12.4895 11.9998 12.4895C12.2698 12.4895 12.4898 12.2695 12.4898 11.9995C12.4898 11.7295 12.2698 11.5095 11.9998 11.5095Z" fill="white"/> <path d="M11.9998 20.7203C7.32979 20.7203 3.52979 16.8103 3.52979 12.0003C3.52979 7.19027 7.32979 3.28027 11.9998 3.28027C16.6698 3.28027 20.4698 7.19027 20.4698 12.0003C20.4698 16.8103 16.6698 20.7203 11.9998 20.7203ZM11.9998 4.78027C8.15979 4.78027 5.02979 8.02027 5.02979 12.0003C5.02979 15.9803 8.14979 19.2203 11.9998 19.2203C15.8498 19.2203 18.9698 15.9803 18.9698 12.0003C18.9698 8.02027 15.8498 4.78027 11.9998 4.78027Z" fill="white"/> <path d="M8.43 12.75H2C1.59 12.75 1.25 12.41 1.25 12C1.25 11.59 1.59 11.25 2 11.25H8.43C8.84 11.25 9.18 11.59 9.18 12C9.18 12.41 8.84 12.75 8.43 12.75Z" fill="white"/> <path d="M21.9998 12.75H15.5698C15.1598 12.75 14.8198 12.41 14.8198 12C14.8198 11.59 15.1598 11.25 15.5698 11.25H21.9998C22.4098 11.25 22.7498 11.59 22.7498 12C22.7498 12.41 22.4098 12.75 21.9998 12.75Z" fill="white"/> <path d="M12 9.18C11.59 9.18 11.25 8.84 11.25 8.43V2C11.25 1.59 11.59 1.25 12 1.25C12.41 1.25 12.75 1.59 12.75 2V8.43C12.75 8.84 12.41 9.18 12 9.18Z" fill="white"/> <path d="M12 22.7503C11.59 22.7503 11.25 22.4103 11.25 22.0003V15.5703C11.25 15.1603 11.59 14.8203 12 14.8203C12.41 14.8203 12.75 15.1603 12.75 15.5703V22.0003C12.75 22.4103 12.41 22.7503 12 22.7503Z" fill="white"/> <path d="M13.1199 7.80957H10.8799C10.4699 7.80957 10.1299 7.46957 10.1299 7.05957C10.1299 6.64957 10.4699 6.30957 10.8799 6.30957H13.1199C13.5299 6.30957 13.8699 6.64957 13.8699 7.05957C13.8699 7.46957 13.5299 7.80957 13.1199 7.80957Z" fill="white"/> <path d="M13.1199 17.6797H10.8799C10.4699 17.6797 10.1299 17.3397 10.1299 16.9297C10.1299 16.5197 10.4699 16.1797 10.8799 16.1797H13.1199C13.5299 16.1797 13.8699 16.5197 13.8699 16.9297C13.8699 17.3397 13.5299 17.6797 13.1199 17.6797Z" fill="white"/> <path d="M16.9399 13.8699C16.5299 13.8699 16.1899 13.5299 16.1899 13.1199V10.8799C16.1899 10.4699 16.5299 10.1299 16.9399 10.1299C17.3499 10.1299 17.6899 10.4699 17.6899 10.8799V13.1199C17.6899 13.5299 17.3499 13.8699 16.9399 13.8699Z" fill="white"/> <path d="M7.06982 13.8699C6.65982 13.8699 6.31982 13.5299 6.31982 13.1199V10.8799C6.31982 10.4699 6.65982 10.1299 7.06982 10.1299C7.47982 10.1299 7.81982 10.4699 7.81982 10.8799V13.1199C7.81982 13.5299 7.47982 13.8699 7.06982 13.8699Z" fill="white"/> <path d="M2 4.69C1.59 4.69 1.25 4.35 1.25 3.94V2C1.25 1.59 1.59 1.25 2 1.25H3.95C4.36 1.25 4.7 1.59 4.7 2C4.7 2.41 4.36 2.75 3.95 2.75H2.75V3.94C2.75 4.35 2.41 4.69 2 4.69Z" fill="white"/> <path d="M3.95 22.7496H2C1.59 22.7496 1.25 22.4096 1.25 21.9996V20.0596C1.25 19.6496 1.59 19.3096 2 19.3096C2.41 19.3096 2.75 19.6496 2.75 20.0596V21.2496H3.95C4.36 21.2496 4.7 21.5896 4.7 21.9996C4.7 22.4096 4.36 22.7496 3.95 22.7496Z" fill="white"/> <path d="M21.9998 4.69C21.5898 4.69 21.2498 4.35 21.2498 3.94V2.75H20.0498C19.6398 2.75 19.2998 2.41 19.2998 2C19.2998 1.59 19.6398 1.25 20.0498 1.25H21.9998C22.4098 1.25 22.7498 1.59 22.7498 2V3.94C22.7498 4.35 22.4098 4.69 21.9998 4.69Z" fill="white"/> <path d="M21.9998 22.7496H20.0498C19.6398 22.7496 19.2998 22.4096 19.2998 21.9996C19.2998 21.5896 19.6398 21.2496 20.0498 21.2496H21.2498V20.0596C21.2498 19.6496 21.5898 19.3096 21.9998 19.3096C22.4098 19.3096 22.7498 19.6496 22.7498 20.0596V21.9996C22.7498 22.4096 22.4098 22.7496 21.9998 22.7496Z" fill="white"/> </g> <defs> <clipPath id="clip0_2085_386393"> <rect width="24" height="24" fill="white"/> </clipPath> </defs> </svg>
