<svg width="24" height="24" viewBox="0 0 24 24" fill="none" xmlns="http://www.w3.org/2000/svg"> <g clip-path="url(#clip0_4482_15273)"> <path d="M17.4 17.1594H16.44C15.78 17.1594 15.17 16.8094 14.81 16.2294C14.59 15.8794 14.71 15.4194 15.06 15.1994C15.41 14.9894 15.87 15.0994 16.09 15.4494C16.14 15.5294 16.25 15.6594 16.44 15.6594H17.4C17.51 15.6594 17.61 15.5694 17.61 15.4494V15.1794C17.61 15.0894 17.55 15.0094 17.47 14.9794L15.91 14.4594C15.21 14.2294 14.74 13.5794 14.74 12.8394V12.5694C14.74 11.6294 15.51 10.8594 16.45 10.8594H17.41C18.07 10.8594 18.68 11.2094 19.03 11.7894C19.24 12.1394 19.13 12.6094 18.78 12.8194C18.43 13.0294 17.96 12.9194 17.75 12.5694C17.7 12.4894 17.6 12.3594 17.41 12.3594H16.45C16.34 12.3594 16.24 12.4494 16.24 12.5694V12.8394C16.24 12.9294 16.3 13.0094 16.38 13.0394L17.94 13.5594C18.64 13.7894 19.11 14.4394 19.11 15.1794V15.4494C19.11 16.3894 18.34 17.1594 17.4 17.1594Z" fill="white"/> <path d="M12.1901 17.1594H11.2301C10.5701 17.1594 9.96007 16.8094 9.60007 16.2294C9.38007 15.8794 9.50007 15.4194 9.85007 15.1994C10.2001 14.9894 10.6601 15.0994 10.8801 15.4494C10.9301 15.5294 11.0401 15.6594 11.2301 15.6594H12.1901C12.3001 15.6594 12.4001 15.5694 12.4001 15.4494V15.1794C12.4001 15.0894 12.3401 15.0094 12.2601 14.9794L10.7001 14.4594C10.0001 14.2294 9.53007 13.5794 9.53007 12.8394V12.5694C9.53007 11.6294 10.3001 10.8594 11.2401 10.8594H12.2001C12.8601 10.8594 13.4701 11.2094 13.8201 11.7894C14.0301 12.1394 13.9201 12.6094 13.5701 12.8194C13.2201 13.0294 12.7601 12.9194 12.5401 12.5694C12.4901 12.4894 12.3801 12.3594 12.2001 12.3594H11.2401C11.1301 12.3594 11.0301 12.4494 11.0301 12.5694V12.8394C11.0301 12.9294 11.0901 13.0094 11.1701 13.0394L12.7301 13.5594C13.4301 13.7894 13.9001 14.4394 13.9001 15.1794V15.4494C13.9001 16.3894 13.1301 17.1594 12.1901 17.1594Z" fill="white"/> <path d="M8.01012 17.0398H6.68012C5.68012 17.0398 4.87012 16.2298 4.87012 15.2298V12.5698C4.87012 11.5698 5.68012 10.7598 6.68012 10.7598H8.01012C8.42012 10.7598 8.76012 11.0998 8.76012 11.5098C8.76012 11.9198 8.42012 12.2598 8.01012 12.2598H6.68012C6.51012 12.2598 6.37012 12.3998 6.37012 12.5698V15.2298C6.37012 15.3998 6.51012 15.5398 6.68012 15.5398H8.01012C8.42012 15.5398 8.76012 15.8798 8.76012 16.2898C8.76012 16.6998 8.42012 17.0398 8.01012 17.0398Z" fill="white"/> <path d="M17 22.75H7C3.83 22.75 1.25 20.17 1.25 17V7C1.25 3.83 3.83 1.25 7 1.25H17C20.17 1.25 22.75 3.83 22.75 7V17C22.75 20.17 20.17 22.75 17 22.75ZM7 2.75C4.66 2.75 2.75 4.66 2.75 7V17C2.75 19.34 4.66 21.25 7 21.25H17C19.34 21.25 21.25 19.34 21.25 17V7C21.25 4.66 19.34 2.75 17 2.75H7Z" fill="white"/> <path d="M22 7.75H2C1.59 7.75 1.25 7.41 1.25 7C1.25 6.59 1.59 6.25 2 6.25H22C22.41 6.25 22.75 6.59 22.75 7C22.75 7.41 22.41 7.75 22 7.75Z" fill="white"/> </g> <defs> <clipPath id="clip0_4482_15273"> <rect width="24" height="24" fill="white"/> </clipPath> </defs> </svg>
