<svg width="24" height="24" viewBox="0 0 24 24" fill="none" xmlns="http://www.w3.org/2000/svg"> <g clip-path="url(#clip0_4482_7761)"> <path d="M15.2598 10.77H8.58984C8.17984 10.77 7.83984 10.43 7.83984 10.02C7.83984 9.61002 8.17984 9.27002 8.58984 9.27002H15.2598C15.6698 9.27002 16.0098 9.61002 16.0098 10.02C16.0098 10.43 15.6698 10.77 15.2598 10.77Z" fill="white"/> <path d="M10.8103 17.44C10.6203 17.44 10.4303 17.37 10.2803 17.22L8.06027 15C7.77027 14.71 7.77027 14.23 8.06027 13.94C8.35027 13.65 8.83027 13.65 9.12027 13.94L11.3403 16.16C11.6303 16.45 11.6303 16.93 11.3403 17.22C11.1903 17.37 11.0003 17.44 10.8103 17.44Z" fill="white"/> <path d="M15.2598 15.22H8.58984C8.17984 15.22 7.83984 14.88 7.83984 14.47C7.83984 14.06 8.17984 13.72 8.58984 13.72H15.2598C15.6698 13.72 16.0098 14.06 16.0098 14.47C16.0098 14.88 15.6698 15.22 15.2598 15.22Z" fill="white"/> <path d="M15.2605 10.77C15.0705 10.77 14.8805 10.7 14.7305 10.55L12.5105 8.32999C12.2205 8.03999 12.2205 7.55999 12.5105 7.26999C12.8005 6.97999 13.2805 6.97999 13.5705 7.26999L15.7905 9.48999C16.0805 9.77999 16.0805 10.26 15.7905 10.55C15.6405 10.7 15.4505 10.77 15.2605 10.77Z" fill="white"/> <path d="M17 22.75H7C3.83 22.75 1.25 20.17 1.25 17V7C1.25 3.83 3.83 1.25 7 1.25H17C20.17 1.25 22.75 3.83 22.75 7V17C22.75 20.17 20.17 22.75 17 22.75ZM7 2.75C4.66 2.75 2.75 4.66 2.75 7V17C2.75 19.34 4.66 21.25 7 21.25H17C19.34 21.25 21.25 19.34 21.25 17V7C21.25 4.66 19.34 2.75 17 2.75H7Z" fill="white"/> </g> <defs> <clipPath id="clip0_4482_7761"> <rect width="24" height="24" fill="white"/> </clipPath> </defs> </svg>
