<svg width="24" height="24" viewBox="0 0 24 24" fill="none" xmlns="http://www.w3.org/2000/svg"> <g clip-path="url(#clip0_2085_386187)"> <path d="M16.32 22.7498H7.69002C6.85002 22.7498 6.06002 22.4198 5.47002 21.8298C4.88002 21.2498 4.54002 20.4598 4.52002 19.6298V4.42977C4.52002 3.57977 4.85002 2.78977 5.45002 2.18977C6.05002 1.58977 6.84002 1.25977 7.69002 1.25977H16.32C17.17 1.25977 17.97 1.59977 18.56 2.18977C19.16 2.78977 19.49 3.58977 19.49 4.42977V19.6198C19.47 20.4698 19.14 21.2498 18.54 21.8398C17.95 22.4298 17.16 22.7498 16.32 22.7498ZM16.31 2.74977H7.69002C7.25002 2.74977 6.82002 2.92977 6.51002 3.23977C6.19002 3.55977 6.02002 3.97977 6.02002 4.42977V19.6198C6.02002 20.0498 6.21002 20.4598 6.52002 20.7698C6.83002 21.0798 7.25002 21.2498 7.69002 21.2498H16.32C16.76 21.2498 17.17 21.0798 17.49 20.7698C17.81 20.4598 17.98 20.0498 17.99 19.6098V4.42977C17.99 3.97977 17.82 3.55977 17.5 3.23977C17.19 2.91977 16.76 2.74977 16.32 2.74977H16.31Z" fill="white"/> <path d="M14.4501 13.1194H9.56006C8.04006 13.1194 6.81006 11.8894 6.81006 10.3694V7.14941C6.81006 5.62941 8.04006 4.39941 9.56006 4.39941H14.4501C15.9701 4.39941 17.2001 5.62941 17.2001 7.14941V10.3694C17.2001 11.8894 15.9701 13.1194 14.4501 13.1194ZM9.55006 5.89941C8.86006 5.89941 8.30006 6.45941 8.30006 7.14941V10.3694C8.30006 11.0594 8.86006 11.6194 9.55006 11.6194H14.4401C15.1301 11.6194 15.6901 11.0594 15.6901 10.3694V7.14941C15.6901 6.45941 15.1301 5.89941 14.4401 5.89941H9.55006Z" fill="white"/> <path d="M11.9999 20.7596C10.1499 20.7596 8.6499 19.2596 8.6499 17.4096C8.6499 15.5596 10.1499 14.0596 11.9999 14.0596C13.8499 14.0596 15.3499 15.5596 15.3499 17.4096C15.3499 19.2596 13.8499 20.7596 11.9999 20.7596ZM11.9999 15.5596C10.9799 15.5596 10.1499 16.3896 10.1499 17.4096C10.1499 18.4296 10.9799 19.2596 11.9999 19.2596C13.0199 19.2596 13.8499 18.4296 13.8499 17.4096C13.8499 16.3896 13.0199 15.5596 11.9999 15.5596Z" fill="white"/> <path d="M11.9998 18.36C12.5245 18.36 12.9498 17.9346 12.9498 17.41C12.9498 16.8853 12.5245 16.46 11.9998 16.46C11.4751 16.46 11.0498 16.8853 11.0498 17.41C11.0498 17.9346 11.4751 18.36 11.9998 18.36Z" fill="white"/> </g> <defs> <clipPath id="clip0_2085_386187"> <rect width="24" height="24" fill="white"/> </clipPath> </defs> </svg>
