<svg width="24" height="24" viewBox="0 0 24 24" fill="none" xmlns="http://www.w3.org/2000/svg"> <g clip-path="url(#clip0_4418_7390)"> <path d="M4.90999 22.8207C3.81999 22.8207 2.88999 22.4707 2.20999 21.7907C1.23999 20.8207 0.939994 19.3407 1.36999 17.6207L3.84999 7.69075C4.27999 5.97075 5.95999 4.30075 7.66999 3.87075L17.6 1.39075C19.32 0.960746 20.8 1.26075 21.77 2.23075C22.74 3.20075 23.04 4.68075 22.61 6.40075L20.13 16.3307C19.7 18.0507 18.02 19.7207 16.31 20.1507L6.37999 22.6307C5.86999 22.7507 5.37999 22.8207 4.90999 22.8207ZM17.98 2.83075L8.04999 5.32075C6.87999 5.61075 5.60999 6.88075 5.30999 8.05075L2.82999 17.9807C2.52999 19.1707 2.68999 20.1407 3.26999 20.7307C3.84999 21.3107 4.82999 21.4707 6.01999 21.1707L15.95 18.6907C17.12 18.4007 18.39 17.1207 18.68 15.9607L21.16 6.03075C21.46 4.84075 21.3 3.87075 20.72 3.28075C20.14 2.69075 19.17 2.54075 17.98 2.83075Z" fill="white"/> <path d="M12 16.25C9.66 16.25 7.75 14.34 7.75 12C7.75 9.66 9.66 7.75 12 7.75C14.34 7.75 16.25 9.66 16.25 12C16.25 14.34 14.34 16.25 12 16.25ZM12 9.25C10.48 9.25 9.25 10.48 9.25 12C9.25 13.52 10.48 14.75 12 14.75C13.52 14.75 14.75 13.52 14.75 12C14.75 10.48 13.52 9.25 12 9.25Z" fill="white"/> </g> <defs> <clipPath id="clip0_4418_7390"> <rect width="24" height="24" fill="white"/> </clipPath> </defs> </svg>
