<svg width="24" height="24" viewBox="0 0 24 24" fill="none" xmlns="http://www.w3.org/2000/svg"> <g clip-path="url(#clip0_2085_390541)"> <path d="M3.12 17.1999C2.81 17.1999 2.49 17.1199 2.21 16.9599C1.63 16.6399 1.26 16.0199 1.25 15.3499V4.80985C1.25 4.23985 1.48 3.66985 1.9 3.26985C3.36 1.90985 5.34 1.17985 7.33 1.25985C9.32 1.34985 11.22 2.23985 12.56 3.71985C12.84 4.02985 12.81 4.49985 12.51 4.77985C12.2 5.05985 11.73 5.02985 11.45 4.72985C10.38 3.54985 8.86 2.82985 7.27 2.75985C5.68 2.68985 4.1 3.26985 2.94 4.35985C2.83 4.46985 2.76 4.62985 2.76 4.79985V15.3499C2.76 15.4699 2.83 15.5899 2.95 15.6599C3.07 15.7199 3.21 15.7199 3.32 15.6599C5.02 14.6899 6.99 14.4299 8.87 14.9099C9.27 15.0099 9.51 15.4199 9.41 15.8199C9.31 16.2199 8.89 16.4599 8.5 16.3599C7 15.9699 5.43 16.1799 4.09 16.9499C3.8 17.1199 3.48 17.2099 3.14 17.2099L3.12 17.1999Z" fill="white"/> <path d="M19 22.75H15C12.93 22.75 11.25 21.07 11.25 19V15C11.25 12.93 12.93 11.25 15 11.25H19C21.07 11.25 22.75 12.93 22.75 15V19C22.75 21.07 21.07 22.75 19 22.75ZM15 12.75C13.76 12.75 12.75 13.76 12.75 15V19C12.75 20.24 13.76 21.25 15 21.25H19C20.24 21.25 21.25 20.24 21.25 19V15C21.25 13.76 20.24 12.75 19 12.75H15Z" fill="white"/> <path d="M16.1699 19.4195C15.9799 19.4195 15.7899 19.3495 15.6399 19.1995C15.3499 18.9095 15.3499 18.4295 15.6399 18.1395L16.7799 16.9995L15.6399 15.8595C15.3499 15.5695 15.3499 15.0895 15.6399 14.7995C15.9299 14.5095 16.4099 14.5095 16.6999 14.7995L18.3699 16.4695C18.6599 16.7595 18.6599 17.2395 18.3699 17.5295L16.6999 19.1995C16.5499 19.3495 16.3599 19.4195 16.1699 19.4195Z" fill="white"/> <path d="M22 9.41942C21.59 9.41942 21.25 9.07942 21.25 8.66942V4.92942C21.25 4.66942 21.16 4.43942 20.98 4.27942C19.8 3.21942 18.27 2.67942 16.68 2.75942C15.18 2.83942 13.79 3.45942 12.75 4.51942V8.66942C12.75 9.07942 12.41 9.41942 12 9.41942C11.59 9.41942 11.25 9.07942 11.25 8.66942V4.22942C11.25 4.03942 11.32 3.86942 11.44 3.72942C12.78 2.24942 14.61 1.36942 16.6 1.26942C18.59 1.16942 20.51 1.84942 21.99 3.17942C22.49 3.63942 22.76 4.28942 22.74 4.94942V8.66942C22.74 9.07942 22.4 9.41942 21.99 9.41942H22Z" fill="white"/> </g> <defs> <clipPath id="clip0_2085_390541"> <rect width="24" height="24" fill="white"/> </clipPath> </defs> </svg>
