<svg width="24" height="24" viewBox="0 0 24 24" fill="none" xmlns="http://www.w3.org/2000/svg"> <g clip-path="url(#clip0_4482_13532)"> <path d="M9.75 12.13C9.34 12.13 9 11.79 9 11.38V10.5C9 10.09 9.34 9.75 9.75 9.75C10.16 9.75 10.5 10.09 10.5 10.5V11.38C10.5 11.79 10.16 12.13 9.75 12.13Z" fill="white"/> <path d="M9.75 18.2501C9.34 18.2501 9 17.9101 9 17.5001V16.6201C9 16.2101 9.34 15.8701 9.75 15.8701C10.16 15.8701 10.5 16.2101 10.5 16.6201V17.5001C10.5 17.9101 10.16 18.2501 9.75 18.2501Z" fill="white"/> <path d="M10.27 17.3701H9.31C8.61 17.3701 7.96 17.0001 7.59 16.3801C7.38 16.0301 7.49 15.5601 7.84 15.3501C8.19 15.1401 8.66 15.2501 8.87 15.6001C8.93 15.7001 9.07 15.8701 9.31 15.8701H10.27C10.53 15.8701 10.75 15.6601 10.75 15.3901C10.75 15.1701 10.6 14.9801 10.39 14.9301L8.74 14.5201C7.86 14.2901 7.25 13.5101 7.25 12.6001C7.25 11.5101 8.14 10.6201 9.23 10.6201H10.19C10.89 10.6201 11.53 10.9901 11.91 11.6001C12.13 11.9501 12.02 12.4101 11.67 12.6301C11.32 12.8501 10.86 12.7401 10.64 12.3901C10.59 12.3101 10.45 12.1201 10.2 12.1201H9.24C8.98 12.1201 8.76 12.3301 8.76 12.6001C8.76 12.8201 8.91 13.0101 9.12 13.0601L10.76 13.4701C11.64 13.6801 12.26 14.4701 12.26 15.3901C12.26 16.4801 11.37 17.3701 10.28 17.3701H10.27Z" fill="white"/> <path d="M17.2397 8.31977C17.0497 8.31977 16.8597 8.24977 16.7097 8.09977L15.6597 7.05977C15.3697 6.76977 15.3597 6.28977 15.6597 5.99977C15.9497 5.70977 16.4297 5.69977 16.7197 5.99977L17.2397 6.50977L18.4597 5.28977C18.7497 4.99977 19.2297 4.99977 19.5197 5.28977C19.8097 5.57977 19.8097 6.05977 19.5197 6.34977L17.7697 8.09977C17.6197 8.24977 17.4297 8.31977 17.2397 8.31977Z" fill="white"/> <path d="M17.5795 11.7805C17.1595 11.7805 16.7395 11.6505 16.3895 11.3805L15.7695 10.9105L14.9895 10.8105C14.2495 10.7205 13.6195 10.1905 13.3895 9.47047C13.3495 9.34047 13.3295 9.24047 13.3095 9.13047L13.1995 8.34047L12.7295 7.72047C12.1995 7.02047 12.1995 6.05047 12.7295 5.35047C12.8995 5.12047 13.0895 4.88047 13.1995 4.73047L13.3095 3.94047C13.4195 3.07047 14.1095 2.38047 14.9895 2.26047L15.7695 2.16047L16.3895 1.69047C17.0795 1.16047 18.0595 1.16047 18.7595 1.69047L19.4795 2.17047L20.1595 2.26047C21.0495 2.37047 21.7395 3.07047 21.8595 3.95047L21.9595 4.73047L22.4295 5.35047C22.9595 6.04047 22.9595 7.02047 22.4295 7.71047C22.2595 7.94047 22.0795 8.18047 21.9595 8.33047L21.8495 9.12047C21.7395 9.99047 21.0395 10.6905 20.1595 10.8005L19.3795 10.9005L18.7595 11.3705C18.4095 11.6405 17.9995 11.7705 17.5795 11.7705V11.7805ZM17.5795 2.79047C17.4795 2.79047 17.3895 2.82047 17.3095 2.88047L16.5295 3.47047C16.4295 3.55047 16.2995 3.60047 16.1795 3.62047L15.1995 3.75047C14.9995 3.78047 14.8395 3.94047 14.8095 4.14047L14.6695 5.13047C14.6495 5.26047 14.5995 5.38047 14.5195 5.48047C14.5195 5.48047 14.2195 5.87047 13.9395 6.25047C13.8095 6.42047 13.8095 6.64047 13.9395 6.81047L14.5395 7.60047C14.6195 7.70047 14.6695 7.82047 14.6795 7.95047L14.8095 8.93047C14.8095 8.93047 14.8295 9.00047 14.8395 9.03047C14.8895 9.17047 15.0395 9.30047 15.1995 9.32047L16.1795 9.45047C16.3095 9.47047 16.4295 9.52047 16.5295 9.60047L17.3095 10.1905C17.4795 10.3205 17.6995 10.3205 17.8595 10.1905L18.6395 9.60047C18.7395 9.52047 18.8695 9.47047 18.9895 9.45047L19.9695 9.32047C20.1695 9.29047 20.3395 9.13047 20.3595 8.93047L20.4895 7.98047C20.4995 7.84047 20.5595 7.71047 20.6395 7.59047C20.6395 7.59047 20.9395 7.20047 21.2195 6.82047C21.3395 6.65047 21.3395 6.42047 21.2195 6.26047L20.6295 5.48047C20.5495 5.38047 20.4995 5.25047 20.4795 5.13047L20.3495 4.15047C20.3195 3.95047 20.1595 3.78047 19.9595 3.75047L18.9695 3.62047C18.8395 3.60047 18.7195 3.55047 18.6195 3.47047L17.8395 2.88047C17.7595 2.82047 17.6595 2.78047 17.5595 2.78047L17.5795 2.79047Z" fill="white"/> <path d="M12 22.75C6.07 22.75 1.25 17.93 1.25 12C1.25 6.07 6.07 1.25 12 1.25C13.53 1.25 15 1.56 16.38 2.19C16.69 2.33 16.86 2.65 16.81 2.98C16.76 3.31 16.5 3.57 16.17 3.61L15.19 3.74C14.99 3.77 14.83 3.93 14.8 4.13L14.66 5.12C14.64 5.25 14.59 5.37 14.51 5.47C14.51 5.47 14.21 5.86 13.93 6.24C13.8 6.41 13.8 6.63 13.93 6.8L14.53 7.59C14.61 7.69 14.66 7.81 14.67 7.94L14.8 8.92C14.8 8.92 14.82 8.99 14.83 9.02C14.88 9.16 15.03 9.29 15.19 9.31L16.17 9.44C16.3 9.46 16.42 9.51 16.52 9.59L17.3 10.18C17.47 10.31 17.69 10.31 17.85 10.18L18.63 9.59C18.73 9.51 18.86 9.46 18.98 9.44L19.96 9.31C20.16 9.28 20.33 9.12 20.35 8.92L20.47 8.04C20.52 7.71 20.78 7.44 21.11 7.4C21.44 7.36 21.77 7.54 21.9 7.85C22.45 9.15 22.73 10.54 22.73 11.99C22.73 17.92 17.91 22.74 11.98 22.74L12 22.75ZM12 2.75C6.9 2.75 2.75 6.9 2.75 12C2.75 17.1 6.9 21.25 12 21.25C17.1 21.25 21.25 17.1 21.25 12C21.25 11.46 21.21 10.93 21.12 10.41C20.85 10.62 20.53 10.76 20.17 10.81L19.39 10.91L18.77 11.38C18.08 11.91 17.1 11.91 16.4 11.38L15.78 10.91L15 10.81C14.26 10.72 13.63 10.19 13.4 9.47C13.36 9.34 13.34 9.24 13.32 9.13L13.21 8.34L12.74 7.72C12.21 7.02 12.21 6.05 12.74 5.35C12.91 5.12 13.1 4.88 13.21 4.73L13.32 3.94C13.37 3.56 13.53 3.21 13.77 2.92C13.19 2.81 12.6 2.75 12 2.75Z" fill="white"/> </g> <defs> <clipPath id="clip0_4482_13532"> <rect width="24" height="24" fill="white"/> </clipPath> </defs> </svg>
