<svg width="24" height="24" viewBox="0 0 24 24" fill="none" xmlns="http://www.w3.org/2000/svg"> <g clip-path="url(#clip0_4482_13530)"> <path d="M8.25 22.02C8.16 22.02 8.06 22 7.97 21.97C3.89 20.32 1.25 16.4 1.25 12C1.25 6.07 6.07 1.25 12 1.25C17.93 1.25 22.75 6.07 22.75 12C22.75 12.41 22.41 12.75 22 12.75C21.59 12.75 21.25 12.41 21.25 12C21.25 6.9 17.1 2.75 12 2.75C6.9 2.75 2.75 6.9 2.75 12C2.75 15.79 5.02 19.16 8.53 20.58C8.91 20.74 9.1 21.17 8.94 21.56C8.82 21.85 8.54 22.03 8.24 22.03L8.25 22.02Z" fill="white"/> <path d="M16.3603 21.2704C16.1703 21.2704 15.9803 21.2004 15.8303 21.0504L14.1003 19.3204L12.3703 21.0504C12.0803 21.3404 11.6003 21.3404 11.3103 21.0504C11.0203 20.7604 11.0203 20.2804 11.3103 19.9904L13.5703 17.7304C13.8503 17.4504 14.3503 17.4504 14.6303 17.7304L16.3603 19.4604L20.3503 15.4704C20.6403 15.1804 21.1203 15.1804 21.4103 15.4704C21.7003 15.7604 21.7003 16.2404 21.4103 16.5304L16.8903 21.0504C16.7403 21.2004 16.5503 21.2704 16.3603 21.2704Z" fill="white"/> <path d="M20.87 19.91C20.46 19.91 20.12 19.57 20.12 19.16V16.75H17.71C17.3 16.75 16.96 16.41 16.96 16C16.96 15.59 17.3 15.25 17.71 15.25H20.87C21.28 15.25 21.62 15.59 21.62 16V19.16C21.62 19.57 21.28 19.91 20.87 19.91Z" fill="white"/> <path d="M12 8.75C11.59 8.75 11.25 8.41 11.25 8V7C11.25 6.59 11.59 6.25 12 6.25C12.41 6.25 12.75 6.59 12.75 7V8C12.75 8.41 12.41 8.75 12 8.75Z" fill="white"/> <path d="M12 15.75C11.59 15.75 11.25 15.41 11.25 15V14C11.25 13.59 11.59 13.25 12 13.25C12.41 13.25 12.75 13.59 12.75 14V15C12.75 15.41 12.41 15.75 12 15.75Z" fill="white"/> <path d="M12.5902 14.7498H11.5002C10.7302 14.7498 10.0302 14.3498 9.62023 13.6698C9.41023 13.3198 9.52023 12.8498 9.87023 12.6398C10.2202 12.4198 10.6902 12.5398 10.9002 12.8898C10.9702 12.9998 11.1502 13.2498 11.4902 13.2498H12.5802C12.9402 13.2498 13.2302 12.9598 13.2302 12.5998C13.2302 12.2998 13.0202 12.0398 12.7402 11.9698L10.8602 11.4998C9.90023 11.2498 9.24023 10.3998 9.24023 9.40977C9.24023 8.21977 10.2102 7.25977 11.3902 7.25977H12.4802C13.2402 7.25977 13.9402 7.65977 14.3502 8.32977C14.5702 8.67977 14.4602 9.13977 14.1102 9.35977C13.7602 9.57977 13.2902 9.46977 13.0802 9.11977C13.0102 9.00977 12.8202 8.76977 12.4802 8.76977H11.3902C11.0302 8.76977 10.7402 9.05977 10.7402 9.41977C10.7402 9.71977 10.9402 9.97977 11.2302 10.0498L13.1002 10.5198C14.0602 10.7498 14.7302 11.6098 14.7302 12.6098C14.7302 13.7998 13.7602 14.7598 12.5802 14.7598L12.5902 14.7498Z" fill="white"/> </g> <defs> <clipPath id="clip0_4482_13530"> <rect width="24" height="24" fill="white"/> </clipPath> </defs> </svg>
