<svg width="24" height="24" viewBox="0 0 24 24" fill="none" xmlns="http://www.w3.org/2000/svg"> <g clip-path="url(#clip0_4482_9969)"> <path d="M5.93988 6.62982C5.74988 6.62982 5.55988 6.55982 5.40988 6.40982L3.15988 4.15982C2.86988 3.86982 2.86988 3.38982 3.15988 3.09982C3.44988 2.80982 3.92988 2.80982 4.21988 3.09982L6.46988 5.34982C6.75988 5.63982 6.75988 6.11982 6.46988 6.40982C6.31988 6.55982 6.12988 6.62982 5.93988 6.62982Z" fill="white"/> <path d="M16.9996 22.69H7.05957C3.88957 22.69 1.30957 20.11 1.30957 16.94V7C1.30957 3.83 3.88957 1.25 7.05957 1.25H16.9996C20.1696 1.25 22.7496 3.83 22.7496 7V16.94C22.7496 20.11 20.1696 22.69 16.9996 22.69ZM7.05957 2.75C4.71957 2.75 2.80957 4.66 2.80957 7V16.94C2.80957 19.28 4.71957 21.19 7.05957 21.19H16.9996C19.3396 21.19 21.2496 19.28 21.2496 16.94V7C21.2496 4.66 19.3396 2.75 16.9996 2.75H7.05957Z" fill="white"/> <path d="M20.3803 21.06C20.1903 21.06 20.0003 20.99 19.8503 20.84L17.6003 18.59C17.3103 18.3 17.3103 17.82 17.6003 17.53C17.8903 17.24 18.3703 17.24 18.6603 17.53L20.9103 19.78C21.2003 20.07 21.2003 20.55 20.9103 20.84C20.7603 20.99 20.5703 21.06 20.3803 21.06Z" fill="white"/> <path d="M12.0296 12.7199C11.7196 12.7199 11.4196 12.6499 11.1396 12.5099L9.19957 11.5299C8.82957 11.3399 8.67957 10.8899 8.86957 10.5199C9.05957 10.1499 9.50957 9.99989 9.87957 10.1899L11.8096 11.1699C11.9396 11.2399 12.1096 11.2399 12.2596 11.1699L14.1896 10.1999C14.5596 10.0099 15.0096 10.1599 15.1996 10.5299C15.3896 10.8999 15.2396 11.3499 14.8696 11.5399L12.9396 12.5199C12.6596 12.6599 12.3496 12.7299 12.0396 12.7299L12.0296 12.7199Z" fill="white"/> <path d="M15.3502 17.1498H8.70023C7.07023 17.1498 5.74023 15.8198 5.74023 14.1898V9.7598C5.74023 8.1298 7.07023 6.7998 8.70023 6.7998H15.3502C16.9802 6.7998 18.3102 8.1298 18.3102 9.7598V14.1898C18.3102 15.8198 16.9802 17.1498 15.3502 17.1498ZM8.70023 8.2898C7.89023 8.2898 7.24023 8.9498 7.24023 9.7498V14.1798C7.24023 14.9898 7.90023 15.6398 8.70023 15.6398H15.3502C16.1602 15.6398 16.8102 14.9798 16.8102 14.1798V9.7498C16.8102 8.9398 16.1502 8.2898 15.3502 8.2898H8.70023Z" fill="white"/> </g> <defs> <clipPath id="clip0_4482_9969"> <rect width="24" height="24" fill="white"/> </clipPath> </defs> </svg>
