<svg width="24" height="24" viewBox="0 0 24 24" fill="none" xmlns="http://www.w3.org/2000/svg"> <g clip-path="url(#clip0_2085_390831)"> <path d="M9.69016 22.8608C9.22016 22.8608 8.83016 22.4808 8.83016 22.0008V4.0708L5.68016 7.2208C5.34016 7.5508 4.80016 7.5508 4.47016 7.2208C4.14016 6.8908 4.14016 6.3408 4.47016 6.0108L9.09016 1.3908C9.34016 1.1408 9.70016 1.0708 10.0202 1.2008C10.3402 1.3308 10.5502 1.6508 10.5502 1.9908V21.9908C10.5502 22.4608 10.1702 22.8508 9.69016 22.8508V22.8608Z" fill="white"/> <path d="M14.3102 22.8606C14.2002 22.8606 14.0902 22.8406 13.9802 22.8006C13.6602 22.6706 13.4502 22.3506 13.4502 22.0106V2.00063C13.4502 1.53063 13.8302 1.14062 14.3102 1.14062C14.7902 1.14062 15.1702 1.52063 15.1702 2.00063V19.9306L18.3202 16.7806C18.6602 16.4506 19.2002 16.4506 19.5302 16.7806C19.8602 17.1106 19.8602 17.6606 19.5302 17.9906L14.9102 22.6106C14.7502 22.7706 14.5302 22.8606 14.3002 22.8606H14.3102Z" fill="white"/> </g> <defs> <clipPath id="clip0_2085_390831"> <rect width="24" height="24" fill="white"/> </clipPath> </defs> </svg>
