<svg width="24" height="24" viewBox="0 0 24 24" fill="none" xmlns="http://www.w3.org/2000/svg"> <g clip-path="url(#clip0_4482_7767)"> <path d="M11.2998 20.75C10.8898 20.75 10.5498 20.41 10.5498 20C10.5498 19.59 10.8898 19.25 11.2998 19.25C15.8498 19.25 19.5498 15.55 19.5498 11C19.5498 6.45 15.8498 2.75 11.2998 2.75C10.8898 2.75 10.5498 2.41 10.5498 2C10.5498 1.59 10.8898 1.25 11.2998 1.25C16.6798 1.25 21.0498 5.63 21.0498 11C21.0498 16.37 16.6698 20.75 11.2998 20.75Z" fill="white"/> <path d="M8.23041 20.2C8.15041 20.2 8.06041 20.19 7.98041 20.16C6.91041 19.77 5.92041 19.2 5.04041 18.47C4.72041 18.2 4.68041 17.73 4.95041 17.41C5.22041 17.09 5.69042 17.05 6.01042 17.32C6.75042 17.94 7.59041 18.42 8.49041 18.75C8.88041 18.89 9.08041 19.32 8.94041 19.71C8.83041 20.02 8.54041 20.21 8.23041 20.21V20.2Z" fill="white"/> <path d="M5.5203 4.84998C5.3103 4.84998 5.0903 4.75998 4.9403 4.57998C4.6703 4.25998 4.7203 3.78998 5.0303 3.51998C5.9003 2.78998 6.8903 2.21998 7.9703 1.82998C8.3603 1.68998 8.7903 1.88998 8.9303 2.27998C9.0703 2.66998 8.8703 3.09998 8.4803 3.23998C7.5703 3.56998 6.7403 4.04998 6.0003 4.66998C5.8603 4.78998 5.6903 4.84998 5.5203 4.84998Z" fill="white"/> <path d="M2.43951 10.19C2.43951 10.19 2.34951 10.19 2.30951 10.18C1.89951 10.11 1.62951 9.71998 1.69951 9.30998C1.89951 8.18998 2.28951 7.11998 2.85951 6.11998C3.06951 5.75998 3.52951 5.63998 3.87951 5.84998C4.23951 6.05998 4.35951 6.51998 4.14951 6.86998C3.66951 7.70998 3.33951 8.60998 3.16951 9.55998C3.10951 9.91998 2.78951 10.18 2.42951 10.18L2.43951 10.19Z" fill="white"/> <path d="M3.50951 16.25C3.24951 16.25 2.99951 16.12 2.85951 15.87C2.28951 14.88 1.89951 13.81 1.69951 12.68C1.62951 12.27 1.89951 11.88 2.30951 11.81C2.71951 11.74 3.10951 12.01 3.17951 12.42C3.34951 13.37 3.66951 14.28 4.15951 15.11C4.36951 15.47 4.23951 15.93 3.88951 16.13C3.76951 16.2 3.63951 16.23 3.51951 16.23L3.50951 16.25Z" fill="white"/> <path d="M11.2998 15.75C10.8898 15.75 10.5498 15.41 10.5498 15V7C10.5498 6.59 10.8898 6.25 11.2998 6.25C11.7098 6.25 12.0498 6.59 12.0498 7V15C12.0498 15.41 11.7098 15.75 11.2998 15.75Z" fill="white"/> <path d="M11.3002 15.75C11.1002 15.75 10.9102 15.67 10.7702 15.53L7.77023 12.53C7.48023 12.24 7.48023 11.76 7.77023 11.47C8.06023 11.18 8.54023 11.18 8.83023 11.47L11.3002 13.94L13.7702 11.47C14.0602 11.18 14.5402 11.18 14.8302 11.47C15.1202 11.76 15.1202 12.24 14.8302 12.53L11.8302 15.53C11.6902 15.67 11.5002 15.75 11.3002 15.75Z" fill="white"/> </g> <defs> <clipPath id="clip0_4482_7767"> <rect width="24" height="24" fill="white"/> </clipPath> </defs> </svg>
