<svg width="24" height="24" viewBox="0 0 24 24" fill="none" xmlns="http://www.w3.org/2000/svg"> <g clip-path="url(#clip0_4482_11449)"> <path d="M10.4099 21.62C10.0399 21.62 9.6799 21.47 9.4099 21.2C9.0599 20.85 8.9199 20.35 9.0299 19.87L9.4199 18.22C9.5399 17.72 9.7899 17.26 10.1499 16.9L18.6399 8.41004C19.2999 7.75004 20.4599 7.75004 21.1199 8.41004L22.1999 9.49004C22.5299 9.82004 22.7099 10.26 22.7099 10.73C22.7099 11.2 22.5299 11.64 22.1999 11.97L13.7099 20.46C13.3499 20.82 12.8899 21.08 12.3999 21.19L10.7499 21.58C10.6399 21.61 10.5299 21.62 10.4199 21.62H10.4099ZM19.8799 9.40004C19.8799 9.40004 19.7699 9.40004 19.6999 9.47004L11.2099 17.96C11.0399 18.13 10.9299 18.33 10.8799 18.56L10.5199 20.09L12.0399 19.73C12.2699 19.68 12.4699 19.56 12.6399 19.4L21.1299 10.91C21.1899 10.85 21.1999 10.77 21.1999 10.73C21.1999 10.69 21.1999 10.62 21.1299 10.55L20.0499 9.47004C19.9899 9.41004 19.9199 9.40004 19.8699 9.40004H19.8799Z" fill="white"/> <path d="M20.0795 13.7802C19.8895 13.7802 19.6995 13.7102 19.5495 13.5602L17.0495 11.0602C16.7595 10.7702 16.7595 10.2902 17.0495 10.0002C17.3395 9.71021 17.8195 9.71021 18.1095 10.0002L20.6095 12.5002C20.8995 12.7902 20.8995 13.2702 20.6095 13.5602C20.4595 13.7102 20.2695 13.7802 20.0795 13.7802Z" fill="white"/> <path d="M7.0498 21.7502H6.89981C3.80981 21.7502 1.2998 19.2402 1.2998 16.1502C1.2998 13.9402 2.6098 11.9302 4.6298 11.0302L8.5898 9.27024C9.6298 8.81024 10.2998 7.77023 10.2998 6.63023C10.2998 5.04023 9.0098 3.74023 7.4098 3.74023H7.0498C6.6398 3.74023 6.2998 3.40023 6.2998 2.99023C6.2998 2.58023 6.6398 2.24023 7.0498 2.24023H7.4098C9.8298 2.24023 11.7998 4.21023 11.7998 6.63023C11.7998 8.36023 10.7798 9.93023 9.1898 10.6402L5.2298 12.4002C3.7498 13.0602 2.7998 14.5302 2.7998 16.1502C2.7998 18.4102 4.63981 20.2502 6.89981 20.2502H7.0498C7.4598 20.2502 7.7998 20.5902 7.7998 21.0002C7.7998 21.4102 7.4598 21.7502 7.0498 21.7502Z" fill="white"/> </g> <defs> <clipPath id="clip0_4482_11449"> <rect width="24" height="24" fill="white"/> </clipPath> </defs> </svg>
