<svg width="24" height="24" viewBox="0 0 24 24" fill="none" xmlns="http://www.w3.org/2000/svg"> <g clip-path="url(#clip0_4482_9137)"> <path d="M20.5807 9.4098H17.7207C17.3107 9.4098 16.9707 9.0698 16.9707 8.6598C16.9707 8.2498 17.3107 7.9098 17.7207 7.9098H20.5807C20.6307 7.9098 20.6907 7.8898 20.7207 7.8498L21.2007 7.3698C21.2007 7.3698 21.2607 7.2798 21.2607 7.2298C21.2607 7.1798 21.2407 7.1198 21.2007 7.0898L20.7207 6.6098C20.7207 6.6098 20.6307 6.5498 20.5807 6.5498H17.7207C17.3107 6.5498 16.9707 6.2098 16.9707 5.7998C16.9707 5.3898 17.3107 5.0498 17.7207 5.0498H20.5807C21.0307 5.0498 21.4707 5.2298 21.7807 5.5498L22.2607 6.0298C22.5807 6.3398 22.7607 6.7798 22.7607 7.2298C22.7607 7.6798 22.5807 8.1198 22.2607 8.4298L21.7807 8.9098C21.4607 9.2298 21.0207 9.4098 20.5807 9.4098Z" fill="white"/> <path d="M15.3602 11.7999H3.90023C2.44023 11.7999 1.24023 10.6099 1.24023 9.13992V5.32992C1.24023 3.86992 2.43023 2.66992 3.90023 2.66992H15.3602C15.7702 2.66992 16.1802 2.76992 16.5502 2.94992L17.0002 3.17992C17.9102 3.62992 18.4702 4.53992 18.4702 5.55992V8.91992C18.4702 9.92992 17.9102 10.8399 17.0002 11.2999L16.5502 11.5199C16.1902 11.6999 15.7802 11.7999 15.3602 11.7999ZM3.90023 4.16992C3.26023 4.16992 2.74023 4.68992 2.74023 5.32992V9.13992C2.74023 9.77992 3.26023 10.2999 3.90023 10.2999H15.3602C15.5402 10.2999 15.7202 10.2599 15.8702 10.1799L16.3202 9.94992C16.7102 9.74992 16.9602 9.35992 16.9602 8.90992V5.54992C16.9602 5.10992 16.7202 4.70992 16.3202 4.51992L15.8702 4.28992C15.7102 4.20992 15.5302 4.16992 15.3502 4.16992H3.90023Z" fill="white"/> <path d="M8.66059 7.97998H4.85059C4.44059 7.97998 4.10059 7.63998 4.10059 7.22998C4.10059 6.81998 4.44059 6.47998 4.85059 6.47998H8.66059C9.07059 6.47998 9.41059 6.81998 9.41059 7.22998C9.41059 7.63998 9.07059 7.97998 8.66059 7.97998Z" fill="white"/> <path d="M6.09064 19.42H5.16064C4.06064 19.42 3.13064 18.6 3.00064 17.51L2.17064 10.86C2.12064 10.45 2.41064 10.07 2.82064 10.02C3.23064 9.97001 3.61064 10.26 3.66064 10.67L4.49064 17.32C4.53064 17.66 4.82064 17.92 5.16064 17.92H6.09064C6.28064 17.92 6.47064 17.84 6.60064 17.69C6.73064 17.54 6.79064 17.35 6.77064 17.15L6.02064 11.13C5.97064 10.72 6.26064 10.34 6.67064 10.29C7.07064 10.24 7.46064 10.53 7.51064 10.94L8.26064 16.96C8.34064 17.58 8.14064 18.2 7.73064 18.67C7.32064 19.14 6.72064 19.41 6.10064 19.41L6.09064 19.42Z" fill="white"/> <path d="M14.2503 21.3299H12.6203C12.1303 21.3299 11.6603 21.1399 11.3203 20.7899C10.9703 20.4499 10.7803 19.9799 10.7803 19.4899V3.41992C10.7803 3.00992 11.1203 2.66992 11.5303 2.66992C11.9403 2.66992 12.2803 3.00992 12.2803 3.41992V19.4899C12.2803 19.5799 12.3203 19.6699 12.3803 19.7299C12.4403 19.7899 12.5303 19.8299 12.6203 19.8299H14.2503C14.3403 19.8299 14.4303 19.7899 14.4903 19.7299C14.5503 19.6699 14.5903 19.5799 14.5903 19.4899V11.0499C14.5903 10.6399 14.9303 10.2999 15.3403 10.2999C15.7503 10.2999 16.0903 10.6399 16.0903 11.0499V19.4899C16.0903 19.9799 15.9003 20.4499 15.5503 20.7899C15.2103 21.1299 14.7403 21.3299 14.2503 21.3299Z" fill="white"/> </g> <defs> <clipPath id="clip0_4482_9137"> <rect width="24" height="24" fill="white"/> </clipPath> </defs> </svg>
