<svg width="24" height="24" viewBox="0 0 24 24" fill="none" xmlns="http://www.w3.org/2000/svg"> <g clip-path="url(#clip0_2085_390649)"> <path d="M7.9998 22.6998C4.2998 22.6998 1.2998 19.6898 1.2998 15.9998C1.2998 12.3098 4.3098 9.2998 7.9998 9.2998C8.7698 9.2998 9.5198 9.4298 10.2298 9.6798C10.5098 9.7798 10.6998 10.0398 10.6998 10.3398C10.6998 10.6398 10.5098 10.8998 10.2298 10.9998C8.1198 11.7498 6.6998 13.7498 6.6998 15.9998C6.6998 18.2498 8.1198 20.2498 10.2298 20.9998C10.5098 21.0998 10.6998 21.3598 10.6998 21.6598C10.6998 21.9598 10.5098 22.2198 10.2298 22.3198C9.5098 22.5698 8.7598 22.6998 7.9998 22.6998ZM7.8898 10.6998C5.0198 10.7598 2.6998 13.1098 2.6998 15.9998C2.6998 18.8898 5.0198 21.2398 7.8898 21.2998C6.2898 20.0498 5.2998 18.1098 5.2998 15.9998C5.2998 13.8898 6.2898 11.9498 7.8898 10.6998Z" fill="white"/> <path d="M5.9998 6.6998C4.5098 6.6998 3.2998 5.4898 3.2998 3.9998C3.2998 2.5098 4.5098 1.2998 5.9998 1.2998C7.4898 1.2998 8.6998 2.5098 8.6998 3.9998C8.6998 5.4898 7.4898 6.6998 5.9998 6.6998ZM5.9998 2.6998C5.2898 2.6998 4.6998 3.2798 4.6998 3.9998C4.6998 4.7198 5.2798 5.2998 5.9998 5.2998C6.7198 5.2998 7.2998 4.7198 7.2998 3.9998C7.2998 3.2798 6.7198 2.6998 5.9998 2.6998Z" fill="white"/> <path d="M6.70004 6H5.29004V10.34H6.70004V6Z" fill="white"/> <path d="M19.9998 22.6998C16.2998 22.6998 13.2998 19.6898 13.2998 15.9998C13.2998 12.3098 16.3098 9.2998 19.9998 9.2998C20.7698 9.2998 21.5198 9.4298 22.2298 9.6798C22.5098 9.7798 22.6998 10.0498 22.6998 10.3398C22.6998 10.6298 22.5098 10.8998 22.2298 10.9998C20.1198 11.7498 18.6998 13.7498 18.6998 15.9998C18.6998 18.2498 20.1198 20.2498 22.2298 20.9998C22.5098 21.0998 22.6998 21.3598 22.6998 21.6598C22.6998 21.9598 22.5098 22.2198 22.2298 22.3198C21.5098 22.5698 20.7598 22.6998 19.9998 22.6998ZM19.8898 10.6998C17.0198 10.7598 14.6998 13.1098 14.6998 15.9998C14.6998 18.8898 17.0198 21.2398 19.8898 21.2998C18.2898 20.0498 17.2998 18.1098 17.2998 15.9998C17.2998 13.8898 18.2898 11.9498 19.8898 10.6998Z" fill="white"/> <path d="M17.9998 6.6998C16.5098 6.6998 15.2998 5.4898 15.2998 3.9998C15.2998 2.5098 16.5098 1.2998 17.9998 1.2998C19.4898 1.2998 20.6998 2.5098 20.6998 3.9998C20.6998 5.4898 19.4898 6.6998 17.9998 6.6998ZM17.9998 2.6998C17.2798 2.6998 16.6998 3.2798 16.6998 3.9998C16.6998 4.7198 17.2798 5.2998 17.9998 5.2998C18.7198 5.2998 19.2998 4.7198 19.2998 3.9998C19.2998 3.2798 18.7198 2.6998 17.9998 2.6998Z" fill="white"/> <path d="M18.7 6H17.29V10.34H18.7V6Z" fill="white"/> </g> <defs> <clipPath id="clip0_2085_390649"> <rect width="24" height="24" fill="white"/> </clipPath> </defs> </svg>
