<svg width="24" height="24" viewBox="0 0 24 24" fill="none" xmlns="http://www.w3.org/2000/svg"> <g clip-path="url(#clip0_4482_5437)"> <path d="M15.0002 22.75C14.7302 22.75 14.4802 22.6 14.3502 22.37C14.2202 22.14 14.2202 21.85 14.3602 21.62L15.4102 19.87C15.6202 19.51 16.0802 19.4 16.4402 19.61C16.8002 19.82 16.9102 20.28 16.7002 20.64L16.4302 21.09C19.1902 20.44 21.2602 17.96 21.2602 15C21.2602 14.59 21.6002 14.25 22.0102 14.25C22.4202 14.25 22.7602 14.59 22.7602 15C22.7502 19.27 19.2702 22.75 15.0002 22.75Z" fill="white"/> <path d="M2 9.75C1.59 9.75 1.25 9.41 1.25 9C1.25 4.73 4.73 1.25 9 1.25C9.27 1.25 9.52 1.4 9.65 1.63C9.78 1.86 9.78 2.15 9.64 2.38L8.59 4.13C8.38 4.49001 7.92 4.6 7.56 4.39C7.2 4.18 7.09 3.72 7.3 3.36L7.57 2.91C4.81 3.56 2.74 6.04 2.74 9C2.75 9.41 2.41 9.75 2 9.75Z" fill="white"/> <path d="M11 17.7498C10.85 17.7498 10.72 17.7197 10.62 17.6797C10.33 17.5697 9.83995 17.2398 9.83995 16.2398V13.3898H9.04996C8.13996 13.3898 7.80996 12.8898 7.71996 12.6698C7.61996 12.4498 7.45996 11.8798 8.04996 11.1898L11.84 6.88975C12.5 6.13975 13.09 6.20976 13.38 6.31976C13.67 6.42976 14.16 6.75975 14.16 7.75975V10.6098H14.95C15.86 10.6098 16.19 11.1198 16.29 11.3397C16.39 11.5597 16.55 12.1398 15.95 12.8198L12.17 17.1197C11.72 17.6197 11.31 17.7498 11 17.7498ZM11.36 16.4598H11.37H11.36ZM9.42996 11.8898H10.6C11.01 11.8898 11.35 12.2298 11.35 12.6398V15.7798L14.58 12.1098H13.41C13 12.1098 12.66 11.7698 12.66 11.3598V8.21975L9.42996 11.8898Z" fill="white"/> </g> <defs> <clipPath id="clip0_4482_5437"> <rect width="24" height="24" fill="white"/> </clipPath> </defs> </svg>
