<svg width="24" height="24" viewBox="0 0 24 24" fill="none" xmlns="http://www.w3.org/2000/svg"> <g clip-path="url(#clip0_4482_7773)"> <path d="M6.44 22.75C6.03 22.75 5.69 22.41 5.69 22C5.69 19.96 4.03 18.31 2 18.31C1.59 18.31 1.25 17.97 1.25 17.56C1.25 17.15 1.59 16.81 2 16.81C4.04 16.81 5.69 15.15 5.69 13.12C5.69 12.71 6.03 12.37 6.44 12.37C6.85 12.37 7.19 12.71 7.19 13.12C7.19 15.16 8.85 16.81 10.89 16.81C11.3 16.81 11.64 17.15 11.64 17.56C11.64 17.97 11.3 18.31 10.89 18.31C8.85 18.31 7.19 19.97 7.19 22C7.19 22.41 6.85 22.75 6.44 22.75ZM4.68 17.56C5.4 18 6 18.6 6.44 19.32C6.88 18.6 7.48 18 8.2 17.56C7.48 17.12 6.88 16.52 6.44 15.8C6 16.52 5.4 17.12 4.68 17.56Z" fill="white"/> <path d="M17.5604 19.42C17.1504 19.42 16.8104 19.08 16.8104 18.67C16.8104 16.63 15.1504 14.98 13.1104 14.98C12.7004 14.98 12.3604 14.64 12.3604 14.23C12.3604 13.82 12.7004 13.48 13.1104 13.48C15.1504 13.48 16.8104 11.82 16.8104 9.78998C16.8104 9.37998 17.1504 9.03998 17.5604 9.03998C17.9704 9.03998 18.3104 9.37998 18.3104 9.78998C18.3104 11.83 19.9704 13.48 22.0004 13.48C22.4104 13.48 22.7504 13.82 22.7504 14.23C22.7504 14.64 22.4104 14.98 22.0004 14.98C19.9604 14.98 18.3104 16.64 18.3104 18.67C18.3104 19.08 17.9704 19.42 17.5604 19.42ZM15.8004 14.23C16.5204 14.67 17.1204 15.27 17.5604 15.99C18.0004 15.27 18.6004 14.67 19.3204 14.23C18.6004 13.79 18.0004 13.19 17.5604 12.47C17.1204 13.19 16.5204 13.79 15.8004 14.23Z" fill="white"/> <path d="M10.8904 11.64C10.4804 11.64 10.1404 11.3 10.1404 10.89C10.1404 8.85001 8.48043 7.20001 6.44043 7.20001C6.03043 7.20001 5.69043 6.86001 5.69043 6.45001C5.69043 6.04001 6.03043 5.70001 6.44043 5.70001C8.48043 5.70001 10.1404 4.04001 10.1404 2.01001C10.1404 1.60001 10.4804 1.26001 10.8904 1.26001C11.3004 1.26001 11.6404 1.60001 11.6404 2.01001C11.6404 4.05001 13.3004 5.70001 15.3304 5.70001C15.7404 5.70001 16.0804 6.04001 16.0804 6.45001C16.0804 6.86001 15.7404 7.20001 15.3304 7.20001C13.2904 7.20001 11.6404 8.86001 11.6404 10.89C11.6404 11.3 11.3004 11.64 10.8904 11.64ZM9.13043 6.45001C9.85043 6.89001 10.4504 7.49001 10.8904 8.21001C11.3304 7.49001 11.9304 6.89001 12.6504 6.45001C11.9304 6.01001 11.3304 5.41001 10.8904 4.69001C10.4504 5.41001 9.85043 6.01001 9.13043 6.45001Z" fill="white"/> </g> <defs> <clipPath id="clip0_4482_7773"> <rect width="24" height="24" fill="white"/> </clipPath> </defs> </svg>
