<svg width="24" height="24" viewBox="0 0 24 24" fill="none" xmlns="http://www.w3.org/2000/svg"> <g clip-path="url(#clip0_4482_3576)"> <path d="M19.4998 12.75C18.4998 12.75 17.5998 12.29 16.9998 11.57C16.3998 12.29 15.4998 12.75 14.4998 12.75C13.4998 12.75 12.5998 12.29 11.9998 11.57C11.3998 12.29 10.4998 12.75 9.49976 12.75C8.49976 12.75 7.59976 12.29 6.99976 11.57C6.13976 12.6 4.62972 13.07 3.20972 12.48C3.03972 12.4 2.87973 12.31 2.71973 12.21C2.33973 11.95 2.04982 11.65 1.81982 11.32C1.44982 10.77 1.25977 10.14 1.25977 9.49001V6C1.25977 3.38 3.38977 1.25 6.00977 1.25H18.0098C20.6298 1.25 22.7598 3.38 22.7598 6V9.5C22.7598 10.35 22.4098 11.19 21.8098 11.79C21.6598 11.96 21.4698 12.1 21.3398 12.19C21.1398 12.31 20.9798 12.41 20.8098 12.48C20.3598 12.66 19.9398 12.75 19.4998 12.75ZM17.7498 9.5C17.7498 10.7 18.9497 11.62 20.2097 11.1C20.3097 11.06 20.3998 11 20.4998 10.94C20.5398 10.91 20.6397 10.84 20.7097 10.76C21.0597 10.41 21.2498 9.95999 21.2498 9.50999V6C21.2498 4.21 19.7898 2.75 17.9998 2.75H5.99976C4.20976 2.75 2.74976 4.21 2.74976 6V9.5C2.74976 9.85 2.8498 10.19 3.0498 10.48C3.1698 10.66 3.33979 10.82 3.52979 10.95C3.59979 10.99 3.6898 11.05 3.7998 11.1C5.0298 11.61 6.25977 10.7 6.25977 9.5C6.25977 9.09 6.59977 8.75 7.00977 8.75C7.41977 8.75 7.75977 9.09 7.75977 9.5C7.75977 10.46 8.54977 11.25 9.50977 11.25C10.4698 11.25 11.2598 10.46 11.2598 9.5C11.2598 9.09 11.5998 8.75 12.0098 8.75C12.4198 8.75 12.7598 9.09 12.7598 9.5C12.7598 10.46 13.5498 11.25 14.5098 11.25C15.4698 11.25 16.2598 10.46 16.2598 9.5C16.2598 9.09 16.5998 8.75 17.0098 8.75C17.4198 8.75 17.7498 9.09 17.7498 9.5Z" fill="white"/> <path d="M16.5 22.75H15.6599C15.2499 22.75 14.9099 22.41 14.9099 22C14.9099 21.59 15.2499 21.25 15.6599 21.25H16.5C18.29 21.25 19.75 19.79 19.75 18V12.74C18.67 12.83 17.65 12.35 17 11.57C16.4 12.29 15.5 12.75 14.5 12.75C13.5 12.75 12.6 12.29 12 11.57C11.4 12.29 10.5 12.75 9.5 12.75C8.5 12.75 7.6 12.29 7 11.57C6.35 12.35 5.33 12.83 4.25 12.74V18C4.25 19.79 5.71 21.25 7.5 21.25H8.3999C8.8099 21.25 9.1499 21.59 9.1499 22C9.1499 22.41 8.8099 22.75 8.3999 22.75H7.5C4.88 22.75 2.75 20.62 2.75 18V11.79C2.75 11.54 2.88008 11.3 3.08008 11.17C3.29008 11.03 3.55004 11.01 3.79004 11.1C5.05004 11.63 6.25 10.7 6.25 9.5C6.25 9.09 6.59 8.75 7 8.75C7.41 8.75 7.75 9.09 7.75 9.5C7.75 10.46 8.54 11.25 9.5 11.25C10.46 11.25 11.25 10.46 11.25 9.5C11.25 9.09 11.59 8.75 12 8.75C12.41 8.75 12.75 9.09 12.75 9.5C12.75 10.46 13.54 11.25 14.5 11.25C15.46 11.25 16.25 10.46 16.25 9.5C16.25 9.09 16.59 8.75 17 8.75C17.41 8.75 17.75 9.09 17.75 9.5C17.75 10.7 18.95 11.62 20.21 11.1C20.44 11.01 20.7099 11.03 20.9199 11.17C21.1299 11.31 21.25 11.54 21.25 11.79V18C21.25 20.62 19.12 22.75 16.5 22.75Z" fill="white"/> <path d="M12 19.7798C11.59 19.7798 11.25 19.4398 11.25 19.0298V15.2798C11.25 14.8698 11.59 14.5298 12 14.5298C12.41 14.5298 12.75 14.8698 12.75 15.2798V19.0298C12.75 19.4398 12.41 19.7798 12 19.7798Z" fill="white"/> <path d="M12 22.26C11.59 22.26 11.25 21.93 11.25 21.52V21.5C11.25 21.09 11.59 20.75 12 20.75C12.41 20.75 12.75 21.09 12.75 21.5C12.75 21.91 12.41 22.26 12 22.26Z" fill="white"/> </g> <defs> <clipPath id="clip0_4482_3576"> <rect width="24" height="24" fill="white"/> </clipPath> </defs> </svg>
