<svg width="24" height="24" viewBox="0 0 24 24" fill="none" xmlns="http://www.w3.org/2000/svg"> <g clip-path="url(#clip0_4482_15278)"> <path d="M4.78 8.31C2.83 8.31 1.25 6.73 1.25 4.78C1.25 2.83 2.83 1.25 4.78 1.25C6.73 1.25 8.31 2.83 8.31 4.78C8.31 6.73 6.73 8.31 4.78 8.31ZM4.78 2.75C3.66 2.75 2.75 3.66 2.75 4.78C2.75 5.9 3.66 6.81 4.78 6.81C5.9 6.81 6.81 5.9 6.81 4.78C6.81 3.66 5.9 2.75 4.78 2.75Z" fill="white"/> <path d="M4.78 22.7504C2.83 22.7504 1.25 21.1704 1.25 19.2204C1.25 17.2704 2.83 15.6904 4.78 15.6904C6.73 15.6904 8.31 17.2704 8.31 19.2204C8.31 21.1704 6.73 22.7504 4.78 22.7504ZM4.78 17.1904C3.66 17.1904 2.75 18.1004 2.75 19.2204C2.75 20.3404 3.66 21.2504 4.78 21.2504C5.9 21.2504 6.81 20.3404 6.81 19.2204C6.81 18.1004 5.9 17.1904 4.78 17.1904Z" fill="white"/> <path d="M19.7796 14.7503C19.3696 14.7503 19.0296 14.4103 19.0296 14.0003V8.78027C19.0296 6.99027 17.5696 5.53027 15.7796 5.53027H10.8896C10.4796 5.53027 10.1396 5.19027 10.1396 4.78027C10.1396 4.37027 10.4796 4.03027 10.8896 4.03027H15.7796C18.3996 4.03027 20.5296 6.16027 20.5296 8.78027V14.0003C20.5296 14.4103 20.1896 14.7503 19.7796 14.7503Z" fill="white"/> <path d="M22 22.1904C21.81 22.1904 21.62 22.1204 21.47 21.9704L17.03 17.5304C16.74 17.2404 16.74 16.7604 17.03 16.4704C17.32 16.1804 17.8 16.1804 18.09 16.4704L22.53 20.9104C22.82 21.2004 22.82 21.6804 22.53 21.9704C22.38 22.1204 22.19 22.1904 22 22.1904Z" fill="white"/> <path d="M17.56 22.1904C17.37 22.1904 17.18 22.1204 17.03 21.9704C16.74 21.6804 16.74 21.2004 17.03 20.9104L21.47 16.4704C21.76 16.1804 22.24 16.1804 22.53 16.4704C22.82 16.7604 22.82 17.2404 22.53 17.5304L18.09 21.9704C17.94 22.1204 17.75 22.1904 17.56 22.1904Z" fill="white"/> <path d="M10.8901 5.53043C10.7001 5.53043 10.5101 5.46043 10.3601 5.31043C10.0701 5.02043 10.0701 4.54043 10.3601 4.25043L13.1401 1.47043C13.4301 1.18043 13.9101 1.18043 14.2001 1.47043C14.4901 1.76043 14.4901 2.24043 14.2001 2.53043L11.4201 5.31043C11.2701 5.46043 11.0801 5.53043 10.8901 5.53043Z" fill="white"/> <path d="M4.78027 17.1896C4.37027 17.1896 4.03027 16.8496 4.03027 16.4396V7.55957C4.03027 7.14957 4.37027 6.80957 4.78027 6.80957C5.19027 6.80957 5.53027 7.14957 5.53027 7.55957V16.4496C5.53027 16.8596 5.19027 17.1996 4.78027 17.1996V17.1896Z" fill="white"/> </g> <defs> <clipPath id="clip0_4482_15278"> <rect width="24" height="24" fill="white"/> </clipPath> </defs> </svg>
