<svg width="24" height="24" viewBox="0 0 24 24" fill="none" xmlns="http://www.w3.org/2000/svg"> <g clip-path="url(#clip0_4482_15578)"> <path d="M11.9895 18.2095C10.3295 18.2095 8.75953 17.5595 7.58953 16.3895C6.40953 15.2095 5.76953 13.6495 5.76953 11.9895C5.76953 10.3295 6.41953 8.75953 7.58953 7.58953C8.75953 6.40953 10.3295 5.76953 11.9895 5.76953C13.6495 5.76953 15.2195 6.41953 16.3895 7.58953C17.5695 8.76953 18.2095 10.3295 18.2095 11.9895C18.2095 13.6495 17.5595 15.2195 16.3895 16.3895C15.2195 17.5695 13.6495 18.2095 11.9895 18.2095ZM11.9895 7.38953C10.7595 7.38953 9.60953 7.86953 8.73953 8.73953C7.86953 9.60953 7.38953 10.7595 7.38953 11.9895C7.38953 13.2195 7.86953 14.3695 8.73953 15.2395C9.60953 16.1095 10.7595 16.5895 11.9895 16.5895C13.2195 16.5895 14.3695 16.1095 15.2395 15.2395C16.1095 14.3695 16.5895 13.2195 16.5895 11.9895C16.5895 10.7595 16.1095 9.60953 15.2395 8.73953C14.3695 7.86953 13.2195 7.38953 11.9895 7.38953Z" fill="white"/> <path d="M22.8094 11.9893C22.8094 12.5893 22.3294 13.0693 21.7294 13.0693C21.1294 13.0693 20.6494 12.5893 20.6494 11.9893C20.6494 11.3893 21.1294 10.9093 21.7294 10.9093C22.0494 10.8893 22.2894 11.0193 22.4894 11.2193C22.6994 11.4293 22.8094 11.6993 22.8094 11.9893Z" fill="white"/> <path d="M13.0497 21.7299C13.0497 22.3099 12.5797 22.7899 11.9897 22.7899C11.3997 22.7899 10.9297 22.3099 10.9297 21.7299C10.9297 21.4499 11.0297 21.1799 11.2397 20.9799C11.4397 20.7799 11.6997 20.6699 11.9897 20.6699C12.5697 20.6699 13.0497 21.1399 13.0497 21.7299Z" fill="white"/> <path d="M2.99945 11.2393C3.19945 11.4393 3.30945 11.6993 3.30945 11.9893C3.30945 12.5693 2.83945 13.0493 2.24945 13.0493C1.65945 13.0493 1.18945 12.5793 1.18945 11.9893C1.18945 11.3993 1.65945 10.9293 2.24945 10.9293C2.54945 10.9193 2.79945 11.0293 2.99945 11.2393Z" fill="white"/> <path d="M6.16906 5.09906C6.16906 5.37906 6.05906 5.64906 5.85906 5.84906C5.65906 6.04906 5.38906 6.16906 5.09906 6.16906C4.51906 6.16906 4.03906 5.68906 4.03906 5.09906C4.03906 4.50906 4.51906 4.03906 5.09906 4.03906C5.67906 4.03906 6.16906 4.51906 6.16906 5.09906Z" fill="white"/> <path d="M13.0497 2.24945C13.0497 2.83945 12.5797 3.30945 11.9897 3.30945C11.3997 3.30945 10.9297 2.83945 10.9297 2.24945C10.9297 1.96945 11.0297 1.69945 11.2297 1.49945C11.4397 1.29945 11.6997 1.18945 11.9897 1.18945C12.5697 1.18945 13.0497 1.65945 13.0497 2.24945Z" fill="white"/> <path d="M19.9396 18.8796C19.9396 19.1596 19.8296 19.4196 19.6296 19.6196C19.4296 19.8296 19.1596 19.9396 18.8796 19.9396C18.2896 19.9396 17.8096 19.4596 17.8096 18.8796C17.8096 18.2996 18.2896 17.8096 18.8796 17.8096C19.4696 17.8096 19.9396 18.2896 19.9396 18.8796Z" fill="white"/> <path d="M6.16906 18.8796C6.16906 19.1596 6.05906 19.4196 5.85906 19.6196C5.65906 19.8296 5.38906 19.9396 5.09906 19.9396C4.51906 19.9396 4.03906 19.4596 4.03906 18.8796C4.03906 18.2996 4.51906 17.8096 5.09906 17.8096C5.67906 17.8096 6.16906 18.2896 6.16906 18.8796Z" fill="white"/> <path d="M19.9396 5.09906C19.9396 5.37906 19.8296 5.64906 19.6296 5.84906C19.4296 6.04906 19.1596 6.15906 18.8796 6.15906C18.2896 6.15906 17.8196 5.68906 17.8096 5.10906C17.8096 4.51906 18.2896 4.03906 18.8796 4.03906C19.4696 4.03906 19.9396 4.51906 19.9396 5.09906Z" fill="white"/> </g> <defs> <clipPath id="clip0_4482_15578"> <rect width="24" height="24" fill="white"/> </clipPath> </defs> </svg>
