<svg width="24" height="24" viewBox="0 0 24 24" fill="none" xmlns="http://www.w3.org/2000/svg"> <g clip-path="url(#clip0_4482_15576)"> <path d="M11.6497 17.8203C10.0297 17.8203 8.41973 17.2003 7.18973 15.9703C4.72973 13.5103 4.72973 9.50031 7.18973 7.04031C9.64973 4.58031 13.6497 4.58031 16.1197 7.04031C18.5797 9.50031 18.5797 13.5103 16.1197 15.9703C14.8897 17.2003 13.2697 17.8203 11.6597 17.8203H11.6497ZM11.6497 6.82031C10.4497 6.82031 9.24973 7.28031 8.33973 8.19031C6.50973 10.0203 6.50973 12.9903 8.33973 14.8203C10.1697 16.6503 13.1397 16.6503 14.9697 14.8203C16.7997 12.9903 16.7997 10.0203 14.9697 8.19031C14.0597 7.28031 12.8597 6.82031 11.6597 6.82031H11.6497Z" fill="white"/> <path d="M11.6498 3.3202C11.1998 3.3202 10.8398 2.9602 10.8398 2.5102V1.5102C10.8398 1.0602 11.1998 0.700195 11.6498 0.700195C12.0998 0.700195 12.4598 1.0602 12.4598 1.5102V2.5102C12.4598 2.9602 12.0998 3.3202 11.6498 3.3202Z" fill="white"/> <path d="M11.6498 22.3202C11.1998 22.3202 10.8398 21.9602 10.8398 21.5102V20.5102C10.8398 20.0602 11.1998 19.7002 11.6498 19.7002C12.0998 19.7002 12.4598 20.0602 12.4598 20.5102V21.5102C12.4598 21.9602 12.0998 22.3202 11.6498 22.3202Z" fill="white"/> <path d="M18.0102 5.96012C17.8002 5.96012 17.5902 5.88012 17.4402 5.72012C17.1202 5.40012 17.1202 4.89012 17.4402 4.57012L18.1502 3.86012C18.4702 3.54012 18.9802 3.54012 19.3002 3.86012C19.6202 4.18012 19.6202 4.69012 19.3002 5.01012L18.5902 5.72012C18.4302 5.88012 18.2202 5.96012 18.0202 5.96012H18.0102Z" fill="white"/> <path d="M4.57953 19.3898C4.36953 19.3898 4.15953 19.3098 4.00953 19.1498C3.68953 18.8298 3.68953 18.3198 4.00953 17.9998L4.71953 17.2898C5.03953 16.9698 5.54953 16.9698 5.86953 17.2898C6.18953 17.6098 6.18953 18.1198 5.86953 18.4398L5.15953 19.1498C4.99953 19.3098 4.78953 19.3898 4.58953 19.3898H4.57953Z" fill="white"/> <path d="M21.6498 12.3202H20.6498C20.1998 12.3202 19.8398 11.9602 19.8398 11.5102C19.8398 11.0602 20.1998 10.7002 20.6498 10.7002H21.6498C22.0998 10.7002 22.4598 11.0602 22.4598 11.5102C22.4598 11.9602 22.0998 12.3202 21.6498 12.3202Z" fill="white"/> <path d="M2.64984 12.3202H1.64984C1.19984 12.3202 0.839844 11.9602 0.839844 11.5102C0.839844 11.0602 1.19984 10.7002 1.64984 10.7002H2.64984C3.09984 10.7002 3.45984 11.0602 3.45984 11.5102C3.45984 11.9602 3.09984 12.3202 2.64984 12.3202Z" fill="white"/> <path d="M18.7202 19.3898C18.5102 19.3898 18.3002 19.3098 18.1502 19.1498L17.4402 18.4398C17.1202 18.1198 17.1202 17.6098 17.4402 17.2898C17.7602 16.9698 18.2702 16.9698 18.5902 17.2898L19.3002 17.9998C19.6202 18.3198 19.6202 18.8298 19.3002 19.1498C19.1402 19.3098 18.9302 19.3898 18.7302 19.3898H18.7202Z" fill="white"/> <path d="M5.28953 5.96012C5.07953 5.96012 4.86953 5.88012 4.71953 5.72012L4.00953 5.01012C3.68953 4.69012 3.68953 4.18012 4.00953 3.86012C4.32953 3.54012 4.83953 3.54012 5.15953 3.86012L5.86953 4.57012C6.18953 4.89012 6.18953 5.40012 5.86953 5.72012C5.70953 5.88012 5.49953 5.96012 5.29953 5.96012H5.28953Z" fill="white"/> </g> <defs> <clipPath id="clip0_4482_15576"> <rect width="24" height="24" fill="white"/> </clipPath> </defs> </svg>
