<svg width="24" height="24" viewBox="0 0 24 24" fill="none" xmlns="http://www.w3.org/2000/svg"> <g clip-path="url(#clip0_4482_3407)"> <path d="M17 22.75H7C3.83 22.75 1.25 20.17 1.25 17V7C1.25 3.83 3.83 1.25 7 1.25H17C20.17 1.25 22.75 3.83 22.75 7V17C22.75 20.17 20.17 22.75 17 22.75ZM7 2.75C4.66 2.75 2.75 4.66 2.75 7V17C2.75 19.34 4.66 21.25 7 21.25H17C19.34 21.25 21.25 19.34 21.25 17V7C21.25 4.66 19.34 2.75 17 2.75H7Z" fill="white"/> <path d="M12 18.25C10.62 18.25 9.5 17.13 9.5 15.75V8.25C9.5 6.87 10.62 5.75 12 5.75C13.38 5.75 14.5 6.87 14.5 8.25V15.75C14.5 17.13 13.38 18.25 12 18.25ZM12 7.25C11.45 7.25 11 7.7 11 8.25V15.75C11 16.3 11.45 16.75 12 16.75C12.55 16.75 13 16.3 13 15.75V8.25C13 7.7 12.55 7.25 12 7.25Z" fill="white"/> <path d="M15 11.75H9C8.59 11.75 8.25 11.41 8.25 11C8.25 10.59 8.59 10.25 9 10.25H15C15.41 10.25 15.75 10.59 15.75 11C15.75 11.41 15.41 11.75 15 11.75Z" fill="white"/> </g> <defs> <clipPath id="clip0_4482_3407"> <rect width="24" height="24" fill="white"/> </clipPath> </defs> </svg>
