<svg width="24" height="24" viewBox="0 0 24 24" fill="none" xmlns="http://www.w3.org/2000/svg"> <g clip-path="url(#clip0_4482_10951)"> <path d="M18.9404 22.75H4.94043C3.42043 22.75 2.19043 21.52 2.19043 20V14C2.19043 12.48 3.42043 11.25 4.94043 11.25H18.9404C20.4604 11.25 21.6904 12.48 21.6904 14V20C21.6904 21.52 20.4604 22.75 18.9404 22.75ZM4.94043 12.75C4.25043 12.75 3.69043 13.31 3.69043 14V20C3.69043 20.69 4.25043 21.25 4.94043 21.25H18.9404C19.6304 21.25 20.1904 20.69 20.1904 20V14C20.1904 13.31 19.6304 12.75 18.9404 12.75H4.94043Z" fill="white"/> <path d="M14.9404 19.75C14.5304 19.75 14.1904 19.41 14.1904 19V17C14.1904 16.59 14.5304 16.25 14.9404 16.25C15.3504 16.25 15.6904 16.59 15.6904 17V19C15.6904 19.41 15.3504 19.75 14.9404 19.75Z" fill="white"/> <path d="M17.9404 19.75C17.5304 19.75 17.1904 19.41 17.1904 19V17C17.1904 16.59 17.5304 16.25 17.9404 16.25C18.3504 16.25 18.6904 16.59 18.6904 17V19C18.6904 19.41 18.3504 19.75 17.9404 19.75Z" fill="white"/> <path d="M10.9404 22.75C10.5304 22.75 10.1904 22.41 10.1904 22V19C10.1904 18.31 9.63043 17.75 8.94043 17.75C8.25043 17.75 7.69043 18.31 7.69043 19V22C7.69043 22.41 7.35043 22.75 6.94043 22.75C6.53043 22.75 6.19043 22.41 6.19043 22V19C6.19043 17.48 7.42043 16.25 8.94043 16.25C10.4604 16.25 11.6904 17.48 11.6904 19V22C11.6904 22.41 11.3504 22.75 10.9404 22.75Z" fill="white"/> <path d="M8.94043 12.75C8.53043 12.75 8.19043 12.41 8.19043 12V8.5C8.19043 8.09 7.85043 7.75 7.44043 7.75C7.03043 7.75 6.69043 8.09 6.69043 8.5V12C6.69043 12.41 6.35043 12.75 5.94043 12.75C5.53043 12.75 5.19043 12.41 5.19043 12V8.5C5.19043 7.26 6.20043 6.25 7.44043 6.25C8.68043 6.25 9.69043 7.26 9.69043 8.5V12C9.69043 12.41 9.35043 12.75 8.94043 12.75Z" fill="white"/> <path d="M14.9404 12.75C14.5304 12.75 14.1904 12.41 14.1904 12V10.5C14.1904 10.09 13.8504 9.75 13.4404 9.75C13.0304 9.75 12.6904 10.09 12.6904 10.5V12C12.6904 12.41 12.3504 12.75 11.9404 12.75C11.5304 12.75 11.1904 12.41 11.1904 12V10.5C11.1904 9.26 12.2004 8.25 13.4404 8.25C14.6804 8.25 15.6904 9.26 15.6904 10.5V12C15.6904 12.41 15.3504 12.75 14.9404 12.75Z" fill="white"/> <path d="M13.9404 6.75C13.5304 6.75 13.1904 6.41 13.1904 6C13.1904 4.48 14.4204 3.25 15.9404 3.25H17.9404C18.3504 3.25 18.6904 3.59 18.6904 4C18.6904 4.41 18.3504 4.75 17.9404 4.75H15.9404C15.2504 4.75 14.6904 5.31 14.6904 6C14.6904 6.41 14.3504 6.75 13.9404 6.75Z" fill="white"/> <path d="M7.94043 4.75C7.53043 4.75 7.19043 4.41 7.19043 4C7.19043 2.48 8.42043 1.25 9.94043 1.25H11.9404C12.3504 1.25 12.6904 1.59 12.6904 2C12.6904 2.41 12.3504 2.75 11.9404 2.75H9.94043C9.25043 2.75 8.69043 3.31 8.69043 4C8.69043 4.41 8.35043 4.75 7.94043 4.75Z" fill="white"/> </g> <defs> <clipPath id="clip0_4482_10951"> <rect width="24" height="24" fill="white"/> </clipPath> </defs> </svg>
