<svg width="24" height="24" viewBox="0 0 24 24" fill="none" xmlns="http://www.w3.org/2000/svg"> <g clip-path="url(#clip0_2085_385962)"> <path d="M11.9998 13.6199C11.3398 13.6199 10.7098 13.3599 10.2398 12.8899C9.76977 12.4199 9.50977 11.7899 9.50977 11.1299C9.50977 10.4699 9.77977 9.82986 10.2398 9.36986C11.1698 8.43986 12.8298 8.43986 13.7598 9.36986C14.2198 9.82986 14.4898 10.4699 14.4898 11.1299C14.4898 11.7899 14.2298 12.4199 13.7598 12.8899C13.2898 13.3599 12.6598 13.6199 11.9998 13.6199ZM11.9998 10.1399C11.7398 10.1399 11.4898 10.2499 11.2998 10.4299C11.1198 10.6099 11.0098 10.8699 11.0098 11.1299C11.0098 11.3899 11.1098 11.6399 11.2998 11.8299C11.6698 12.1999 12.3298 12.1999 12.6998 11.8299C12.8898 11.6399 12.9898 11.3899 12.9898 11.1299C12.9898 10.8699 12.8798 10.6199 12.6998 10.4299C12.5198 10.2499 12.2598 10.1399 11.9998 10.1399Z" fill="white"/> <path d="M12.0002 5.3599C11.4502 5.3599 10.9402 5.1499 10.5502 4.7599C10.1602 4.3699 9.9502 3.8499 9.9502 3.3099C9.9502 2.7699 10.1702 2.2399 10.5502 1.8599C11.3302 1.0799 12.6802 1.0799 13.4602 1.8599C13.8402 2.2399 14.0602 2.7699 14.0602 3.3099C14.0602 3.8499 13.8502 4.3699 13.4602 4.7599C13.0702 5.1499 12.5502 5.3599 12.0102 5.3599H12.0002ZM12.0002 2.7499C11.8502 2.7499 11.7102 2.8099 11.6102 2.9099C11.5102 3.0099 11.4502 3.1599 11.4502 3.2999C11.4502 3.4399 11.5102 3.5899 11.6102 3.6899C11.8202 3.8999 12.1802 3.8999 12.4002 3.6899C12.5002 3.5899 12.5602 3.4499 12.5602 3.2999C12.5602 3.1499 12.5002 3.0099 12.4002 2.9099C12.3002 2.8099 12.1602 2.7499 12.0102 2.7499H12.0002Z" fill="white"/> <path d="M4.17012 13.1802C3.62012 13.1802 3.11012 12.9702 2.72012 12.5802C2.33012 12.1902 2.12012 11.6802 2.12012 11.1302C2.12012 10.5802 2.34012 10.0602 2.72012 9.68021C3.50012 8.90021 4.85012 8.90021 5.62012 9.68021C6.00012 10.0602 6.22012 10.5902 6.22012 11.1302C6.22012 11.6702 6.01012 12.1902 5.62012 12.5802C5.23012 12.9702 4.71012 13.1802 4.17012 13.1802ZM4.17012 10.5802C4.02012 10.5802 3.88012 10.6402 3.78012 10.7402C3.68012 10.8402 3.62012 10.9902 3.62012 11.1302C3.62012 11.2702 3.68012 11.4202 3.78012 11.5202C3.99012 11.7302 4.35012 11.7302 4.57012 11.5202C4.67012 11.4202 4.73012 11.2802 4.73012 11.1302C4.73012 10.9802 4.67012 10.8402 4.57012 10.7402C4.47012 10.6402 4.33012 10.5802 4.18012 10.5802H4.17012Z" fill="white"/> <path d="M19.8298 13.1802C19.2798 13.1802 18.7698 12.9702 18.3798 12.5802C17.9898 12.1902 17.7798 11.6702 17.7798 11.1302C17.7798 10.5902 17.9998 10.0602 18.3798 9.68021C19.1598 8.90021 20.5098 8.90021 21.2898 9.68021C21.6698 10.0602 21.8898 10.5902 21.8898 11.1302C21.8898 11.6702 21.6798 12.1902 21.2898 12.5802C20.8998 12.9702 20.3898 13.1802 19.8398 13.1802H19.8298ZM19.8298 10.5802C19.6798 10.5802 19.5398 10.6402 19.4398 10.7402C19.3398 10.8402 19.2798 10.9902 19.2798 11.1302C19.2798 11.2702 19.3398 11.4202 19.4398 11.5202C19.6498 11.7302 20.0098 11.7302 20.2198 11.5202C20.3198 11.4202 20.3798 11.2802 20.3798 11.1302C20.3798 10.9802 20.3198 10.8402 20.2198 10.7402C20.1198 10.6402 19.9798 10.5802 19.8298 10.5802Z" fill="white"/> <path d="M7.64981 22.7502C7.55981 22.7502 7.45981 22.7302 7.36981 22.7002C6.98981 22.5502 6.79981 22.1102 6.94981 21.7302L10.6498 12.4802C10.7998 12.1002 11.2398 11.9102 11.6198 12.0602C11.9998 12.2102 12.1898 12.6502 12.0398 13.0302L8.33981 22.2802C8.21981 22.5702 7.93981 22.7502 7.63981 22.7502H7.64981Z" fill="white"/> <path d="M16.3501 22.75C16.0501 22.75 15.7701 22.57 15.6501 22.28L11.9501 13.03C11.8001 12.65 11.9801 12.21 12.3701 12.06C12.7501 11.91 13.1901 12.09 13.3401 12.48L17.0401 21.73C17.1901 22.11 17.0101 22.55 16.6201 22.7C16.5301 22.74 16.4301 22.75 16.3401 22.75H16.3501Z" fill="white"/> <path d="M19.8299 22.75H4.16992C3.75992 22.75 3.41992 22.41 3.41992 22C3.41992 21.59 3.75992 21.25 4.16992 21.25H19.8199C20.2299 21.25 20.5699 21.59 20.5699 22C20.5699 22.41 20.2299 22.75 19.8199 22.75H19.8299Z" fill="white"/> <path d="M17.53 7.64994C16.98 7.64994 16.47 7.43994 16.08 7.04994C15.7 6.66994 15.48 6.13994 15.48 5.59994C15.48 5.05994 15.69 4.53994 16.08 4.14994C16.86 3.36994 18.21 3.36994 18.99 4.14994C19.38 4.53994 19.59 5.04994 19.59 5.59994C19.59 6.14994 19.37 6.66994 18.99 7.04994C18.6 7.43994 18.08 7.64994 17.54 7.64994H17.53ZM17.53 5.03994C17.38 5.03994 17.24 5.09994 17.14 5.19994C17.04 5.29994 16.98 5.43994 16.98 5.58994C16.98 5.73994 17.04 5.87994 17.14 5.97994C17.35 6.18994 17.72 6.18994 17.92 5.97994C18.02 5.87994 18.08 5.72994 18.08 5.58994C18.08 5.44994 18.02 5.29994 17.92 5.19994C17.82 5.09994 17.68 5.03994 17.53 5.03994Z" fill="white"/> <path d="M17.53 18.7198C16.98 18.7198 16.47 18.5098 16.08 18.1198C15.7 17.7398 15.48 17.2098 15.48 16.6698C15.48 16.1298 15.69 15.6098 16.08 15.2198C16.86 14.4398 18.21 14.4398 18.99 15.2198C19.38 15.6098 19.59 16.1198 19.59 16.6698C19.59 17.2198 19.37 17.7398 18.99 18.1198C18.6 18.5098 18.08 18.7198 17.54 18.7198H17.53ZM17.53 16.1098C17.38 16.1098 17.24 16.1698 17.14 16.2698C17.04 16.3698 16.98 16.5098 16.98 16.6598C16.98 16.8098 17.04 16.9498 17.14 17.0498C17.35 17.2598 17.72 17.2598 17.92 17.0498C18.02 16.9498 18.08 16.7998 18.08 16.6598C18.08 16.5198 18.02 16.3698 17.92 16.2698C17.82 16.1698 17.68 16.1098 17.53 16.1098Z" fill="white"/> <path d="M6.46992 7.64994C5.91992 7.64994 5.40992 7.43994 5.01992 7.04994C4.63992 6.66994 4.41992 6.13994 4.41992 5.59994C4.41992 5.05994 4.62992 4.53994 5.01992 4.14994C5.79992 3.36994 7.14992 3.36994 7.92992 4.14994C8.31992 4.53994 8.52992 5.04994 8.52992 5.59994C8.52992 6.14994 8.30992 6.66994 7.92992 7.04994C7.53992 7.43994 7.02992 7.64994 6.47992 7.64994H6.46992ZM6.46992 5.03994C6.31992 5.03994 6.17992 5.09994 6.07992 5.19994C5.97992 5.29994 5.91992 5.43994 5.91992 5.58994C5.91992 5.73994 5.97992 5.87994 6.07992 5.97994C6.28992 6.18994 6.64992 6.18994 6.85992 5.97994C6.95992 5.87994 7.01992 5.72994 7.01992 5.58994C7.01992 5.44994 6.95992 5.29994 6.85992 5.19994C6.75992 5.09994 6.61992 5.03994 6.46992 5.03994Z" fill="white"/> <path d="M6.46992 18.7198C5.91992 18.7198 5.40992 18.5098 5.01992 18.1198C4.63992 17.7398 4.41992 17.2098 4.41992 16.6698C4.41992 16.1298 4.62992 15.6098 5.01992 15.2198C5.79992 14.4398 7.14992 14.4398 7.92992 15.2198C8.31992 15.6098 8.52992 16.1198 8.52992 16.6698C8.52992 17.2198 8.30992 17.7398 7.92992 18.1198C7.53992 18.5098 7.02992 18.7198 6.47992 18.7198H6.46992ZM6.46992 16.1098C6.31992 16.1098 6.17992 16.1698 6.07992 16.2698C5.97992 16.3698 5.91992 16.5098 5.91992 16.6598C5.91992 16.8098 5.97992 16.9498 6.07992 17.0498C6.28992 17.2598 6.64992 17.2598 6.85992 17.0498C6.95992 16.9498 7.01992 16.7998 7.01992 16.6598C7.01992 16.5198 6.95992 16.3698 6.85992 16.2698C6.75992 16.1698 6.61992 16.1098 6.46992 16.1098Z" fill="white"/> <path d="M12.0002 19.7099C11.5202 19.7099 11.0502 19.6699 10.5702 19.5899C10.1602 19.5199 9.89023 19.1299 9.95023 18.7299C10.0202 18.3199 10.4102 18.0499 10.8102 18.1099C11.5902 18.2399 12.3902 18.2399 13.1702 18.1099C13.5702 18.0399 13.9602 18.3199 14.0302 18.7299C14.1002 19.1399 13.8202 19.5199 13.4102 19.5899C12.9402 19.6699 12.4602 19.7099 11.9802 19.7099H12.0002Z" fill="white"/> <path d="M4.28007 10.5799C4.28007 10.5799 4.20007 10.5799 4.16007 10.5699C3.75007 10.4999 3.48007 10.1199 3.54007 9.70991C3.75007 8.43991 4.26007 7.20991 5.01007 6.15991C5.25007 5.81991 5.72007 5.74991 6.06007 5.98991C6.40007 6.22991 6.48007 6.69991 6.23007 7.03991C5.61007 7.90991 5.19007 8.91991 5.02007 9.96991C4.96007 10.3399 4.64007 10.5999 4.28007 10.5999V10.5799Z" fill="white"/> <path d="M7.45988 5.49991C7.22988 5.49991 6.99988 5.38991 6.84988 5.18991C6.60988 4.84991 6.68988 4.37991 7.01988 4.13991C8.06988 3.38991 9.29988 2.87991 10.5699 2.66991C10.9799 2.59991 11.3599 2.87991 11.4299 3.28991C11.4999 3.69991 11.2199 4.07991 10.8099 4.14991C9.75988 4.32991 8.74988 4.73991 7.87988 5.35991C7.74988 5.44991 7.59988 5.49991 7.43988 5.49991H7.45988Z" fill="white"/> <path d="M16.5398 5.49995C16.3898 5.49995 16.2398 5.44995 16.0998 5.35995C15.2298 4.73995 14.2198 4.31995 13.1698 4.14995C12.7598 4.07995 12.4898 3.69995 12.5498 3.28995C12.6198 2.87995 12.9998 2.60995 13.4098 2.66995C14.6798 2.87995 15.9098 3.38995 16.9598 4.13995C17.2998 4.37995 17.3798 4.84995 17.1298 5.18995C16.9798 5.38995 16.7498 5.49995 16.5198 5.49995H16.5398Z" fill="white"/> <path d="M19.7198 10.58C19.3598 10.58 19.0398 10.32 18.9798 9.94999C18.8098 8.89999 18.3898 7.88999 17.7698 7.01999C17.5298 6.67999 17.6098 6.20999 17.9398 5.96999C18.2798 5.72999 18.7498 5.80999 18.9898 6.13999C19.7398 7.18999 20.2498 8.41999 20.4598 9.68999C20.5298 10.1 20.2498 10.49 19.8398 10.55C19.7998 10.55 19.7598 10.56 19.7198 10.56V10.58Z" fill="white"/> <path d="M18.3801 16.42C18.2301 16.42 18.0801 16.37 17.9401 16.28C17.6001 16.04 17.5201 15.57 17.7701 15.23C18.3901 14.37 18.8101 13.36 18.9801 12.31C19.0501 11.9 19.4401 11.63 19.8401 11.69C20.2501 11.76 20.5201 12.15 20.4601 12.55C20.2501 13.82 19.7401 15.05 18.9901 16.1C18.8401 16.3 18.6101 16.41 18.3801 16.41V16.42Z" fill="white"/> <path d="M14.9099 19.1499C14.6099 19.1499 14.3299 18.9699 14.2099 18.6799C14.0599 18.2999 14.2399 17.8599 14.6299 17.6999C15.1499 17.4899 15.6499 17.2199 16.0999 16.8899C16.4399 16.6499 16.8999 16.7299 17.1499 17.0599C17.3899 17.3999 17.3099 17.8699 16.9799 18.1099C16.4299 18.5099 15.8299 18.8299 15.1899 19.0899C15.0999 19.1299 14.9999 19.1399 14.9099 19.1399V19.1499Z" fill="white"/> <path d="M9.08977 19.15C8.99977 19.15 8.89977 19.13 8.80977 19.1C8.17977 18.85 7.56977 18.52 7.01977 18.12C6.67977 17.88 6.60977 17.41 6.84977 17.07C7.08977 16.73 7.55977 16.65 7.89977 16.9C8.35977 17.23 8.84977 17.5 9.36977 17.71C9.74977 17.86 9.93977 18.3 9.78977 18.69C9.66977 18.98 9.38977 19.16 9.08977 19.16V19.15Z" fill="white"/> <path d="M5.62003 16.4202C5.39003 16.4202 5.16003 16.3102 5.01003 16.1102C4.26003 15.0602 3.75003 13.8302 3.54003 12.5602C3.47003 12.1502 3.75003 11.7702 4.16003 11.7002C4.57003 11.6302 4.95003 11.9102 5.02003 12.3202C5.20003 13.3702 5.61003 14.3802 6.23003 15.2502C6.47003 15.5902 6.39003 16.0602 6.06003 16.3002C5.93003 16.3902 5.78003 16.4402 5.62003 16.4402V16.4202Z" fill="white"/> </g> <defs> <clipPath id="clip0_2085_385962"> <rect width="24" height="24" fill="white"/> </clipPath> </defs> </svg>
