<svg width="24" height="24" viewBox="0 0 24 24" fill="none" xmlns="http://www.w3.org/2000/svg"> <g clip-path="url(#clip0_4482_5356)"> <path d="M15 22.75H5C2.93 22.75 1.25 21.07 1.25 19V13C1.25 10.93 2.93 9.25 5 9.25H15C17.07 9.25 18.75 10.93 18.75 13V19C18.75 21.07 17.07 22.75 15 22.75ZM5 10.75C3.76 10.75 2.75 11.76 2.75 13V19C2.75 20.24 3.76 21.25 5 21.25H15C16.24 21.25 17.25 20.24 17.25 19V13C17.25 11.76 16.24 10.75 15 10.75H5Z" fill="white"/> <path d="M20.7502 21.08C20.3102 21.08 19.8702 20.9299 19.5002 20.6399L17.6601 19.1699C17.3401 18.9099 17.2802 18.4399 17.5402 18.1199C17.8002 17.7999 18.2702 17.7399 18.5902 17.9999L20.4302 19.47C20.6502 19.65 20.8702 19.5699 20.9602 19.5299C21.0502 19.4899 21.2402 19.36 21.2402 19.08V13.2799C21.2402 12.9999 21.0402 12.87 20.9602 12.83C20.8802 12.79 20.6502 12.7099 20.4302 12.8899L18.6102 14.35C18.2902 14.61 17.8202 14.5599 17.5602 14.2299C17.3002 13.9099 17.3502 13.4299 17.6802 13.1799L19.5002 11.72C20.1002 11.24 20.9202 11.1399 21.6202 11.4799C22.3202 11.8199 22.7502 12.5099 22.7502 13.2799V19.08C22.7502 19.86 22.3202 20.55 21.6202 20.88C21.3402 21.01 21.0402 21.08 20.7502 21.08Z" fill="white"/> <path d="M6 10.75C3.38 10.75 1.25 8.62 1.25 6C1.25 3.38 3.38 1.25 6 1.25C8.62 1.25 10.75 3.38 10.75 6C10.75 8.62 8.62 10.75 6 10.75ZM6 2.75C4.21 2.75 2.75 4.21 2.75 6C2.75 7.79 4.21 9.25 6 9.25C7.79 9.25 9.25 7.79 9.25 6C9.25 4.21 7.79 2.75 6 2.75Z" fill="white"/> <path d="M14 10.75C11.38 10.75 9.25 8.62 9.25 6C9.25 3.38 11.38 1.25 14 1.25C16.62 1.25 18.75 3.38 18.75 6C18.75 8.62 16.62 10.75 14 10.75ZM14 2.75C12.21 2.75 10.75 4.21 10.75 6C10.75 7.79 12.21 9.25 14 9.25C15.79 9.25 17.25 7.79 17.25 6C17.25 4.21 15.79 2.75 14 2.75Z" fill="white"/> <path d="M10 19.75H6C5.04 19.75 4.25 18.96 4.25 18V14C4.25 13.04 5.04 12.25 6 12.25H10C10.96 12.25 11.75 13.04 11.75 14V18C11.75 18.96 10.96 19.75 10 19.75ZM6 13.75C5.86 13.75 5.75 13.86 5.75 14V18C5.75 18.14 5.86 18.25 6 18.25H10C10.14 18.25 10.25 18.14 10.25 18V14C10.25 13.86 10.14 13.75 10 13.75H6Z" fill="white"/> <path d="M15 15.25H14C13.59 15.25 13.25 14.91 13.25 14.5C13.25 14.09 13.59 13.75 14 13.75H15C15.41 13.75 15.75 14.09 15.75 14.5C15.75 14.91 15.41 15.25 15 15.25Z" fill="white"/> <path d="M15 18.25H14C13.59 18.25 13.25 17.91 13.25 17.5C13.25 17.09 13.59 16.75 14 16.75H15C15.41 16.75 15.75 17.09 15.75 17.5C15.75 17.91 15.41 18.25 15 18.25Z" fill="white"/> </g> <defs> <clipPath id="clip0_4482_5356"> <rect width="24" height="24" fill="white"/> </clipPath> </defs> </svg>
