<svg width="24" height="24" viewBox="0 0 24 24" fill="none" xmlns="http://www.w3.org/2000/svg"> <g clip-path="url(#clip0_4482_5506)"> <path d="M15.5 22.7509H12.5C10.98 22.7509 9.75 21.5209 9.75 20.0009V12.5009C9.75 10.8609 10.71 9.36086 12.18 8.67086C13.26 8.12086 14.71 8.11086 15.84 8.68086C17.29 9.36086 18.25 10.8609 18.25 12.5009V20.0009C18.25 21.5209 17.02 22.7509 15.5 22.7509ZM14 9.75086C13.58 9.75086 13.19 9.84087 12.84 10.0209C11.86 10.4809 11.25 11.4509 11.25 12.5009V20.0009C11.25 20.6909 11.81 21.2509 12.5 21.2509H15.5C16.19 21.2509 16.75 20.6909 16.75 20.0009V12.5009C16.75 11.4409 16.13 10.4709 15.18 10.0309C14.81 9.84086 14.42 9.75086 14 9.75086Z" fill="white"/> <path d="M15.5 10.1009C15.38 10.1009 15.27 10.0709 15.16 10.0209C14.46 9.66093 13.54 9.66093 12.84 10.0209C12.61 10.1409 12.33 10.1309 12.11 9.99093C11.89 9.85093 11.75 9.61093 11.75 9.35093V5.31092C11.75 5.01092 11.93 4.73092 12.21 4.62092C12.49 4.51092 12.81 4.57092 13.03 4.78092C13.04 4.79092 13.1 4.86093 13.12 4.88093C13.61 5.39093 14.48 5.35093 14.93 4.83093C15.13 4.59093 15.47 4.50093 15.76 4.61093C16.05 4.72093 16.25 5.00092 16.25 5.31092V9.35093C16.25 9.61093 16.11 9.85093 15.89 9.99093C15.77 10.0609 15.64 10.1009 15.5 10.1009ZM14 8.25092C14.26 8.25092 14.51 8.27093 14.75 8.32093V6.65092C14.27 6.79092 13.73 6.79092 13.25 6.65092V8.32093C13.49 8.27093 13.74 8.25092 14 8.25092Z" fill="white"/> <path d="M14.0002 6.75063C13.2602 6.75063 12.5702 6.46062 12.0502 5.93062C12.0402 5.92062 11.9802 5.86062 11.9702 5.84062C11.4902 5.32062 11.2402 4.67063 11.2402 3.99063C11.2402 3.25063 11.5302 2.56062 12.0602 2.04062C13.0602 1.01062 14.9102 1.00063 15.9402 2.05063C16.4502 2.55063 16.7402 3.24062 16.7402 3.98062C16.7402 4.66062 16.4902 5.31063 16.0402 5.80063C15.5502 6.40063 14.8002 6.75063 14.0002 6.75063ZM14.0002 2.75063C13.6702 2.75063 13.3502 2.88063 13.1302 3.11063C12.8802 3.35063 12.7502 3.66063 12.7502 4.00063C12.7502 4.31063 12.8502 4.59063 13.0502 4.80063L13.1302 4.89063C13.5902 5.36063 14.4802 5.35063 14.9302 4.82063C15.1402 4.58063 15.2502 4.31063 15.2502 4.00063C15.2502 3.67063 15.1202 3.36063 14.8902 3.13063C14.6502 2.88063 14.3302 2.75063 14.0002 2.75063Z" fill="white"/> <path d="M7.3602 19.75H4.6402C4.2502 19.75 3.8902 19.58 3.6502 19.27C3.4102 18.96 3.3302 18.57 3.4202 18.2L4.2602 14.82C4.3402 14.49 4.6402 14.25 4.9902 14.25H6.9902C7.3302 14.25 7.6302 14.48 7.7202 14.82L8.5602 18.2C8.6502 18.58 8.5702 18.97 8.3302 19.27C8.1102 19.58 7.7502 19.75 7.3602 19.75ZM4.9602 18.25H7.0402L6.4202 15.75H5.5902L4.9602 18.25Z" fill="white"/> <path d="M6 14.9602C5.59 14.9602 5.25 14.6202 5.25 14.2102V10.9202C5.25 7.09017 8.11 3.80016 11.89 3.26016C12.3 3.19016 12.68 3.49016 12.74 3.90016C12.8 4.31016 12.51 4.69017 12.1 4.75017C9.05 5.19017 6.74 7.84016 6.74 10.9302V14.2202C6.75 14.6202 6.41 14.9602 6 14.9602Z" fill="white"/> <path d="M19.5001 6.14954C19.4201 6.14954 19.3501 6.13955 19.2701 6.12955L15.8601 5.48955C15.4501 5.40955 15.1801 5.01955 15.2601 4.60955C15.3301 4.24955 15.6301 3.99955 15.9801 3.99955C15.6301 3.98955 15.3201 3.73955 15.2601 3.38955C15.1801 2.97955 15.4501 2.58954 15.8601 2.50954L19.2701 1.86954C19.6401 1.79954 20.0101 1.89955 20.3001 2.13955C20.5901 2.37955 20.7501 2.72955 20.7501 3.09955V4.88955C20.7501 5.25955 20.5901 5.60955 20.3001 5.84955C20.0701 6.04955 19.7901 6.14954 19.5001 6.14954ZM16.0101 3.99955C16.0501 3.99955 16.0901 3.99954 16.1301 4.00954L19.2401 4.58954V3.39954L16.1301 3.97954C16.1001 3.99954 16.0501 3.99955 16.0101 3.99955Z" fill="white"/> </g> <defs> <clipPath id="clip0_4482_5506"> <rect width="24" height="24" fill="white"/> </clipPath> </defs> </svg>
