<svg width="24" height="24" viewBox="0 0 24 24" fill="none" xmlns="http://www.w3.org/2000/svg"> <g clip-path="url(#clip0_4482_5349)"> <path d="M5.13985 22.7303C4.10985 22.7303 3.13984 22.3303 2.40984 21.6003C0.899844 20.0903 0.899844 17.6403 2.40984 16.1303L6.24984 12.2903C6.67984 11.8603 7.37984 11.8603 7.80984 12.2903L11.7198 16.2003C12.1498 16.6303 12.1498 17.3303 11.7198 17.7603L7.87985 21.6003C7.13984 22.3303 6.16985 22.7303 5.13985 22.7303ZM7.02984 13.6303L3.46984 17.1903C2.54984 18.1103 2.54984 19.6103 3.46984 20.5403C4.35984 21.4303 5.91985 21.4303 6.81985 20.5403L10.3798 16.9803L7.02984 13.6303Z" fill="white"/> <path d="M12.55 18.4695C12.13 18.4695 11.7101 18.2995 11.3901 17.9895L6.00005 12.5995C5.50005 12.0995 5.38006 11.3395 5.69006 10.7095L6.66006 8.76953C6.77006 8.55953 6.97004 8.39952 7.21004 8.36952C7.45004 8.32952 7.69004 8.40952 7.86004 8.57952L15.4101 16.1295C15.5801 16.2995 15.66 16.5395 15.62 16.7795C15.58 17.0195 15.4301 17.2195 15.2201 17.3295L13.2801 18.2995C13.0501 18.4195 12.8 18.4695 12.55 18.4695ZM7.55004 10.3695L7.04006 11.3795C7.01006 11.4295 7.02006 11.4995 7.07006 11.5395L12.46 16.9295C12.5 16.9695 12.57 16.9795 12.62 16.9595L13.6301 16.4495L7.55004 10.3695Z" fill="white"/> <path d="M14.9002 17.4103C14.7002 17.4103 14.5102 17.3303 14.3702 17.1903L6.82019 9.64029C6.66019 9.48029 6.58019 9.27029 6.60019 9.05029C6.62019 8.83029 6.73019 8.63029 6.91019 8.50029L10.0902 6.23028C11.1002 5.51028 12.4702 5.62029 13.3502 6.50029L17.5102 10.6603C18.3902 11.5403 18.5002 12.9103 17.7802 13.9203L15.5102 17.1003C15.3802 17.2803 15.1802 17.3903 14.9602 17.4103C14.9402 17.4103 14.9202 17.4103 14.9002 17.4103ZM8.50018 9.20028L14.8002 15.5003L16.5602 13.0403C16.8502 12.6303 16.8102 12.0703 16.4502 11.7103L12.2902 7.55029C11.9302 7.19029 11.3702 7.14029 10.9602 7.44029L8.50018 9.20028Z" fill="white"/> <path d="M17.29 7.45958C17.1 7.45958 16.91 7.38958 16.76 7.23958C16.47 6.94958 16.47 6.46957 16.76 6.17957L18.35 4.58957C18.64 4.29957 19.12 4.29957 19.41 4.58957C19.7 4.87957 19.7 5.35957 19.41 5.64957L17.82 7.23958C17.67 7.38958 17.48 7.45958 17.29 7.45958Z" fill="white"/> <path d="M14.4299 4.99977C14.4199 4.99977 14.3999 4.99977 14.3899 4.99977C13.9799 4.96977 13.6599 4.61977 13.6899 4.20977L13.8199 1.95977C13.8399 1.54977 14.1799 1.22976 14.6099 1.25976C15.0199 1.28976 15.3399 1.63977 15.3099 2.04977L15.1799 4.29977C15.1499 4.68977 14.8199 4.99977 14.4299 4.99977Z" fill="white"/> <path d="M19.7499 10.3204C19.3599 10.3204 19.0299 10.0104 18.9999 9.61042C18.9799 9.20042 19.29 8.84043 19.7 8.82043L21.95 8.69043C22.38 8.66043 22.7199 8.98042 22.7399 9.39042C22.7599 9.80042 22.4499 10.1604 22.0399 10.1804L19.7899 10.3104C19.7799 10.3204 19.7599 10.3204 19.7499 10.3204Z" fill="white"/> </g> <defs> <clipPath id="clip0_4482_5349"> <rect width="24" height="24" fill="white"/> </clipPath> </defs> </svg>
