<svg width="24" height="24" viewBox="0 0 24 24" fill="none" xmlns="http://www.w3.org/2000/svg"> <g clip-path="url(#clip0_2085_390594)"> <path d="M12.6199 9.01992H11.3799C10.9699 9.01992 10.6299 8.67992 10.6299 8.26992V7.64992C10.6299 5.17992 12.6399 3.16992 15.1099 3.16992C15.5199 3.16992 15.8599 3.50992 15.8599 3.91992V5.78992C15.8599 7.57992 14.4099 9.02992 12.6199 9.02992V9.01992ZM12.1299 7.51992H12.6199C13.5799 7.51992 14.3599 6.73992 14.3599 5.77992V4.75992C13.1199 5.07992 12.1899 6.18992 12.1299 7.51992Z" fill="white"/> <path d="M11.3801 9.02016C9.59014 9.02016 8.14014 7.57016 8.14014 5.78016V3.91016C8.14014 3.50016 8.48014 3.16016 8.89014 3.16016C10.3901 3.16016 11.7901 3.91016 12.6201 5.16016C12.8501 5.50016 12.7601 5.97016 12.4101 6.20016C12.0701 6.43016 11.6001 6.34016 11.3701 5.99016C10.9601 5.37016 10.3401 4.93016 9.63014 4.75016V5.77016C9.63014 6.73016 10.4101 7.51016 11.3701 7.51016C11.7801 7.51016 12.1201 7.85016 12.1201 8.26016C12.1201 8.67016 11.7801 9.01016 11.3701 9.01016L11.3801 9.02016Z" fill="white"/> <path d="M13.84 4.88969C13.48 4.88969 13.16 4.62969 13.1 4.25969C13.03 3.82969 12.77 3.41969 12.43 3.18969L12 2.89969L11.57 3.17969C11.23 3.40969 10.97 3.81969 10.9 4.24969C10.83 4.65969 10.44 4.93969 10.04 4.85969C9.62998 4.78969 9.35998 4.39969 9.42998 3.99969C9.56998 3.15969 10.06 2.37969 10.75 1.92969L11.59 1.36969C11.84 1.19969 12.17 1.19969 12.42 1.36969L13.26 1.92969C13.94 2.37969 14.43 3.15969 14.57 3.99969C14.64 4.40969 14.36 4.78969 13.95 4.85969C13.91 4.85969 13.87 4.86969 13.83 4.86969L13.84 4.88969Z" fill="white"/> <path d="M12 22.7395C11.59 22.7395 11.25 22.3995 11.25 21.9895V8.26953C11.25 7.85953 11.59 7.51953 12 7.51953C12.41 7.51953 12.75 7.85953 12.75 8.26953V21.9895C12.75 22.3995 12.41 22.7395 12 22.7395Z" fill="white"/> <path d="M17.42 15.1598C17.26 15.1598 17.11 15.1098 16.98 15.0198L15.97 14.2898C14.53 13.2398 14.21 11.2098 15.26 9.76985L16.36 8.25985C16.61 7.92985 17.07 7.84985 17.41 8.09985C19.41 9.55985 19.85 12.3598 18.39 14.3598L18.02 14.8598C17.9 15.0198 17.73 15.1298 17.53 15.1598C17.49 15.1598 17.45 15.1598 17.41 15.1598H17.42ZM17.08 9.81985L16.48 10.6498C15.92 11.4198 16.09 12.5098 16.86 13.0798L17.26 13.3698C18 12.2598 17.9 10.8198 17.08 9.82985V9.81985Z" fill="white"/> <path d="M18.8798 15.6298C18.2198 15.6298 17.5498 15.4298 16.9798 15.0098C16.6498 14.7698 16.5698 14.2998 16.8098 13.9598C17.0498 13.6298 17.5198 13.5498 17.8598 13.7898C18.6398 14.3498 19.7198 14.1798 20.2898 13.4098L20.8898 12.5898C20.2098 12.3198 19.4598 12.3098 18.7598 12.5698C18.3698 12.7198 17.9398 12.5198 17.7998 12.1298C17.6598 11.7398 17.8498 11.3098 18.2398 11.1698C19.6498 10.6498 21.2198 10.8598 22.4398 11.7498C22.5998 11.8698 22.7098 12.0398 22.7398 12.2398C22.7698 12.4398 22.7198 12.6398 22.6098 12.7998L21.5098 14.3098C20.8798 15.1798 19.8898 15.6398 18.8898 15.6398L18.8798 15.6298Z" fill="white"/> <path d="M20.83 12.5299C20.72 12.5299 20.6 12.4999 20.5 12.4499C20.13 12.2699 19.98 11.8199 20.16 11.4399C20.35 11.0599 20.37 10.6099 20.23 10.2199L20.05 9.73991L19.54 9.71991C19.13 9.69991 18.7 9.85991 18.4 10.1599C18.1 10.4499 17.63 10.4499 17.34 10.1499C17.05 9.84991 17.06 9.37991 17.35 9.08991C17.95 8.50991 18.77 8.18991 19.6 8.22991L20.61 8.26991C20.91 8.27991 21.18 8.47991 21.28 8.75991L21.63 9.70991C21.92 10.4999 21.87 11.3799 21.5 12.1199C21.37 12.3799 21.1 12.5399 20.83 12.5399V12.5299Z" fill="white"/> <path d="M9.28999 17.8699C9.05999 17.8699 8.82999 17.7599 8.67999 17.5599L6.46999 14.4799C6.22999 14.1399 6.30999 13.6799 6.63999 13.4299C6.97999 13.1899 7.44999 13.2599 7.68999 13.5999L9.89999 16.6799C10.14 17.0199 10.06 17.4799 9.72999 17.7299C9.59999 17.8199 9.43999 17.8699 9.28999 17.8699Z" fill="white"/> <path d="M14.7098 17.8699C14.5598 17.8699 14.4098 17.8199 14.2698 17.7299C13.9298 17.4899 13.8598 17.0199 14.0998 16.6799L16.3098 13.5999C16.5498 13.2599 17.0198 13.1899 17.3598 13.4299C17.6998 13.6699 17.7698 14.1399 17.5298 14.4799L15.3198 17.5599C15.1698 17.7599 14.9398 17.8699 14.7098 17.8699Z" fill="white"/> <path d="M6.58012 15.1594C6.58012 15.1594 6.50012 15.1594 6.46012 15.1594C6.26012 15.1294 6.09012 15.0194 5.97012 14.8594L5.60012 14.3594C4.14012 12.3594 4.59012 9.55943 6.58012 8.09943C6.91012 7.85943 7.38012 7.92943 7.63012 8.25943L8.73012 9.76943C9.78012 11.2094 9.46012 13.2394 8.02012 14.2894L7.01012 15.0194C6.88012 15.1094 6.73012 15.1594 6.57012 15.1594H6.58012ZM6.92012 9.81943C6.11012 10.8094 6.01012 12.2494 6.74012 13.3594L7.14012 13.0694C7.91012 12.5094 8.08012 11.4194 7.52012 10.6394L6.92012 9.81943Z" fill="white"/> <path d="M5.11991 15.63C4.11991 15.63 3.12991 15.17 2.49991 14.3L1.39991 12.79C1.27991 12.63 1.22991 12.43 1.26991 12.23C1.29991 12.03 1.40991 11.86 1.56991 11.74C2.78991 10.85 4.35991 10.64 5.76991 11.16C6.15991 11.3 6.35991 11.74 6.20991 12.12C6.06991 12.51 5.62991 12.71 5.24991 12.56C4.54991 12.3 3.78991 12.32 3.11991 12.58L3.71991 13.41C4.27991 14.18 5.36991 14.35 6.14991 13.79C6.47991 13.54 6.94991 13.62 7.19991 13.96C7.43991 14.29 7.36991 14.76 7.02991 15.01C6.45991 15.43 5.78991 15.63 5.12991 15.63H5.11991Z" fill="white"/> <path d="M3.16971 12.5301C2.88971 12.5301 2.62971 12.3801 2.49971 12.1101C2.12971 11.3601 2.07971 10.4801 2.36971 9.70015L2.71971 8.75015C2.82971 8.47015 3.08971 8.27015 3.38971 8.26015L4.39971 8.22015C5.22971 8.18015 6.05971 8.50015 6.64971 9.08015C6.94971 9.37015 6.94971 9.84015 6.65971 10.1401C6.36971 10.4401 5.89971 10.4401 5.59971 10.1501C5.29971 9.85015 4.85971 9.70015 4.45971 9.71015L3.93971 9.73015L3.75971 10.2101C3.60971 10.6101 3.63971 11.0501 3.82971 11.4301C4.00971 11.8001 3.85971 12.2501 3.48971 12.4401C3.37971 12.4901 3.26971 12.5201 3.15971 12.5201L3.16971 12.5301Z" fill="white"/> <path d="M13.24 21.4595H12C11.59 21.4595 11.25 21.1195 11.25 20.7095C11.25 18.2395 13.26 16.2295 15.73 16.2295H16.98C17.39 16.2295 17.73 16.5695 17.73 16.9795C17.73 19.4495 15.72 21.4595 13.25 21.4595H13.24ZM12.84 19.9595H13.24C14.63 19.9595 15.79 19.0095 16.13 17.7295H15.73C14.35 17.7295 13.18 18.6795 12.85 19.9595H12.84Z" fill="white"/> <path d="M12 21.4595H10.75C8.28002 21.4595 6.27002 19.4495 6.27002 16.9795C6.27002 16.5695 6.61002 16.2295 7.02002 16.2295H8.26002C10.73 16.2295 12.74 18.2395 12.74 20.7095C12.74 21.1195 12.4 21.4595 11.99 21.4595H12ZM7.87002 17.7295C8.20002 19.0095 9.37002 19.9595 10.75 19.9595H11.15C10.82 18.6795 9.65002 17.7295 8.26002 17.7295H7.86002H7.87002Z" fill="white"/> <path d="M13.24 16.4795H12C11.59 16.4795 11.25 16.1395 11.25 15.7295C11.25 15.3195 11.59 14.9795 12 14.9795H13.24C13.65 14.9795 13.99 15.3195 13.99 15.7295C13.99 16.1395 13.65 16.4795 13.24 16.4795Z" fill="white"/> <path d="M12 13.9893H10.75C10.34 13.9893 10 13.6493 10 13.2393C10 12.8293 10.34 12.4893 10.75 12.4893H12C12.41 12.4893 12.75 12.8293 12.75 13.2393C12.75 13.6493 12.41 13.9893 12 13.9893Z" fill="white"/> <path d="M13.8598 10.8792C13.6698 10.8792 13.4798 10.8092 13.3298 10.6592L11.9998 9.32922L10.6598 10.6592C10.3698 10.9492 9.88982 10.9492 9.59982 10.6592C9.30982 10.3692 9.30982 9.88922 9.59982 9.59922L11.4698 7.72922C11.7598 7.43922 12.2398 7.43922 12.5298 7.72922L14.3998 9.59922C14.6898 9.88922 14.6898 10.3692 14.3998 10.6592C14.2498 10.8092 14.0598 10.8792 13.8698 10.8792H13.8598Z" fill="white"/> </g> <defs> <clipPath id="clip0_2085_390594"> <rect width="24" height="24" fill="white"/> </clipPath> </defs> </svg>
