<svg width="24" height="24" viewBox="0 0 24 24" fill="none" xmlns="http://www.w3.org/2000/svg"> <g clip-path="url(#clip0_4482_5082)"> <path d="M12 2C6.49 2 2 6.49 2 12C2 17.51 6.49 22 12 22C17.51 22 22 17.51 22 12C22 6.49 17.51 2 12 2Z" stroke="white" stroke-width="1.5" stroke-miterlimit="10"/> <path d="M11.9998 6.96973L7.25977 10.4197L9.06978 15.9997H14.9298L16.7398 10.4197L11.9998 6.96973Z" stroke="white" stroke-width="1.5" stroke-miterlimit="10"/> <path d="M12 7V2" stroke="white" stroke-width="1.5" stroke-miterlimit="10"/> <path d="M2.43018 9.08984L7.22018 10.4198" stroke="white" stroke-width="1.5" stroke-miterlimit="10"/> <path d="M21.4301 9.08984L16.5601 10.4198" stroke="white" stroke-width="1.5" stroke-miterlimit="10"/> <path d="M9.50992 15.6602L5.91992 19.9301" stroke="white" stroke-width="1.5" stroke-miterlimit="10"/> <path d="M14.4902 15.6602L18.0802 19.9301" stroke="white" stroke-width="1.5" stroke-miterlimit="10"/> </g> <defs> <clipPath id="clip0_4482_5082"> <rect width="24" height="24" fill="white"/> </clipPath> </defs> </svg>
