<svg width="24" height="24" viewBox="0 0 24 24" fill="none" xmlns="http://www.w3.org/2000/svg"> <g clip-path="url(#clip0_4482_3317)"> <path d="M14 21.75H8.5C5.61 21.75 3.25 19.4 3.25 16.5V6.5C3.25 3.6 5.61 1.25 8.5 1.25H15.5C18.39 1.25 20.75 3.6 20.75 6.5V13.41C20.75 13.66 20.62 13.9 20.41 14.04C20.2 14.18 19.93 14.2 19.7 14.1C19.16 13.87 18.58 13.75 17.99 13.75C15.65 13.75 13.74 15.66 13.74 18C13.74 18.94 14.03 19.82 14.59 20.55C14.76 20.78 14.79 21.08 14.66 21.34C14.54 21.59 14.29 21.75 14 21.75ZM8.5 2.75C6.43 2.75 4.75 4.43 4.75 6.5V16.5C4.75 18.57 6.43 20.25 8.5 20.25H12.7C12.4 19.55 12.25 18.79 12.25 18C12.25 14.83 14.83 12.25 18 12.25C18.42 12.25 18.84 12.3 19.25 12.39V6.5C19.25 4.43 17.57 2.75 15.5 2.75H8.5Z" fill="white"/> <path d="M14 6.75H10C9.59 6.75 9.25 6.41 9.25 6C9.25 5.59 9.59 5.25 10 5.25H14C14.41 5.25 14.75 5.59 14.75 6C14.75 6.41 14.41 6.75 14 6.75Z" fill="white"/> <path d="M18 23.75C16.2 23.75 14.48 22.89 13.4 21.45C12.65 20.46 12.25 19.26 12.25 18C12.25 14.83 14.83 12.25 18 12.25C18.79 12.25 19.56 12.41 20.29 12.72C22.39 13.65 23.75 15.72 23.75 18C23.75 21.17 21.17 23.75 18 23.75ZM18 13.75C15.66 13.75 13.75 15.66 13.75 18C13.75 18.94 14.04 19.82 14.6 20.55C15.4 21.62 16.67 22.25 18 22.25C20.34 22.25 22.25 20.34 22.25 18C22.25 16.32 21.25 14.78 19.7 14.1C19.16 13.87 18.59 13.75 18 13.75Z" fill="white"/> <path d="M15.2099 21.9699C15.0199 21.9699 14.8299 21.8999 14.6799 21.7499C14.3899 21.4599 14.3899 20.9799 14.6799 20.6899L20.6799 14.6899C20.9699 14.3999 21.4499 14.3999 21.7399 14.6899C22.0299 14.9799 22.0299 15.4599 21.7399 15.7499L15.7399 21.7499C15.5999 21.8999 15.3999 21.9699 15.2099 21.9699Z" fill="white"/> </g> <defs> <clipPath id="clip0_4482_3317"> <rect width="24" height="24" fill="white"/> </clipPath> </defs> </svg>
