<svg width="24" height="24" viewBox="0 0 24 24" fill="none" xmlns="http://www.w3.org/2000/svg"> <g clip-path="url(#clip0_4482_3627)"> <path d="M15 21.75H7C3.83 21.75 1.25 19.17 1.25 16V8C1.25 4.83 3.83 2.25 7 2.25H15C17.9 2.25 20.36 4.42 20.7 7.3C20.73 7.57 20.62 7.83001 20.41 7.99001C20.2 8.15001 19.92 8.19 19.67 8.08C19.15 7.86 18.57 7.75 18 7.75C15.66 7.75 13.75 9.66 13.75 12C13.75 14.34 15.66 16.25 18 16.25C18.57 16.25 19.15 16.13 19.67 15.92C19.92 15.82 20.2 15.85 20.41 16.01C20.62 16.17 20.73 16.43 20.7 16.7C20.36 19.58 17.9 21.75 15 21.75ZM7 3.75C4.66 3.75 2.75 5.66 2.75 8V16C2.75 18.34 4.66 20.25 7 20.25H15C16.73 20.25 18.25 19.2 18.9 17.68C18.6 17.73 18.3 17.75 18 17.75C14.83 17.75 12.25 15.17 12.25 12C12.25 8.83 14.83 6.25 18 6.25C18.3 6.25 18.6 6.27001 18.9 6.32001C18.25 4.80001 16.73 3.75 15 3.75H7Z" fill="white"/> <path d="M13 10.8101H2C1.59 10.8101 1.25 10.4701 1.25 10.0601C1.25 9.65006 1.59 9.31006 2 9.31006H13C13.41 9.31006 13.75 9.65006 13.75 10.0601C13.75 10.4701 13.41 10.8101 13 10.8101Z" fill="white"/> <path d="M10 16.75H7C6.59 16.75 6.25 16.41 6.25 16C6.25 15.59 6.59 15.25 7 15.25H10C10.41 15.25 10.75 15.59 10.75 16C10.75 16.41 10.41 16.75 10 16.75Z" fill="white"/> <path d="M18 17.75C14.83 17.75 12.25 15.17 12.25 12C12.25 8.83 14.83 6.25 18 6.25C18.77 6.25 19.55 6.4 20.25 6.7C22.38 7.62 23.75 9.7 23.75 12C23.75 14.3 22.38 16.38 20.26 17.3C19.55 17.6 18.77 17.75 18 17.75ZM18 7.75C15.66 7.75 13.75 9.66 13.75 12C13.75 14.34 15.66 16.25 18 16.25C18.57 16.25 19.15 16.13 19.67 15.92C21.23 15.24 22.25 13.7 22.25 12C22.25 10.3 21.23 8.76 19.66 8.08C19.15 7.87 18.57 7.75 18 7.75Z" fill="white"/> <path d="M19.9001 11.64H16.1001C15.8001 11.64 15.5201 11.46 15.4101 11.18C15.2901 10.9 15.36 10.58 15.57 10.36L17.1501 8.78C17.4401 8.49 17.92 8.49 18.21 8.78C18.5 9.07 18.5 9.55 18.21 9.84L17.9101 10.14H19.9001C20.3101 10.14 20.6501 10.48 20.6501 10.89C20.6501 11.3 20.3201 11.64 19.9001 11.64Z" fill="white"/> <path d="M18.3201 15.4399C18.1301 15.4399 17.9402 15.3699 17.7902 15.2199C17.5002 14.9299 17.5002 14.4499 17.7902 14.1599L18.0901 13.8599H16.1001C15.6901 13.8599 15.3501 13.5199 15.3501 13.1099C15.3501 12.6999 15.6901 12.3599 16.1001 12.3599H19.9001C20.2001 12.3599 20.4801 12.5399 20.5901 12.8199C20.7101 13.0999 20.6402 13.4199 20.4302 13.6399L18.8501 15.2199C18.7101 15.3699 18.5201 15.4399 18.3201 15.4399Z" fill="white"/> </g> <defs> <clipPath id="clip0_4482_3627"> <rect width="24" height="24" fill="white"/> </clipPath> </defs> </svg>
