<svg width="24" height="24" viewBox="0 0 24 24" fill="none" xmlns="http://www.w3.org/2000/svg"> <g clip-path="url(#clip0_4482_14531)"> <path d="M12.5299 8.00981C12.3299 8.00981 12.1299 7.92981 11.9899 7.77981C11.0099 6.74981 11.0099 5.13981 11.9899 4.10981C12.4199 3.65981 12.4199 2.95981 11.9899 2.50981C11.6999 2.20981 11.7199 1.73981 12.0199 1.44981C12.3199 1.15981 12.7899 1.17981 13.0799 1.47981C14.0599 2.50981 14.0599 4.11981 13.0799 5.14981C12.6499 5.59981 12.6499 6.29981 13.0799 6.74981C13.3699 7.04981 13.3499 7.51981 13.0499 7.80981C12.8999 7.94981 12.7199 8.01981 12.5299 8.01981V8.00981Z" fill="white"/> <path d="M8.84043 8.00981C8.64043 8.00981 8.44043 7.92981 8.30043 7.77981C7.32043 6.74981 7.32043 5.13981 8.30043 4.10981C8.73043 3.65981 8.73043 2.95981 8.30043 2.50981C8.01043 2.20981 8.03043 1.73981 8.33043 1.44981C8.63043 1.15981 9.10043 1.17981 9.39043 1.47981C10.3704 2.50981 10.3704 4.11981 9.39043 5.14981C8.96043 5.59981 8.96043 6.29981 9.39043 6.74981C9.68043 7.04981 9.66043 7.51981 9.36043 7.80981C9.21043 7.94981 9.03043 8.01981 8.84043 8.01981V8.00981Z" fill="white"/> <path d="M5.15977 8.00981C4.95977 8.00981 4.75977 7.92981 4.61977 7.77981C3.63977 6.74981 3.63977 5.13981 4.61977 4.10981C5.04977 3.65981 5.04977 2.95981 4.61977 2.50981C4.32977 2.20981 4.34977 1.73981 4.64977 1.44981C4.94977 1.15981 5.42977 1.17981 5.70977 1.47981C6.68977 2.50981 6.68977 4.11981 5.70977 5.14981C5.27977 5.59981 5.27977 6.29981 5.70977 6.74981C5.99977 7.04981 5.97977 7.51981 5.67977 7.80981C5.52977 7.94981 5.34977 8.01981 5.15977 8.01981V8.00981Z" fill="white"/> <path d="M5.7197 17.4897C4.9497 17.4897 4.1997 17.1697 3.6697 16.6297C2.6697 15.6397 1.8997 14.4797 1.3797 13.1697C1.1697 12.5997 1.2497 11.9797 1.5797 11.4897C1.9197 11.0097 2.4697 10.7197 3.0597 10.7197H21.9997C22.4097 10.7197 22.7497 11.0597 22.7497 11.4697C22.7497 11.8797 22.4097 12.2197 21.9997 12.2197H18.8997C18.4197 13.8897 17.5197 15.3997 16.2797 16.6297C15.7397 17.1697 15.0097 17.4797 14.2397 17.4897H5.7197ZM3.0597 12.2297C2.9597 12.2297 2.8597 12.2797 2.8097 12.3597C2.7597 12.4397 2.7397 12.5397 2.7797 12.6297C3.2197 13.7297 3.8797 14.7197 4.7297 15.5697C4.9997 15.8397 5.3597 15.9897 5.7297 15.9897H14.2297C14.5997 15.9897 14.9597 15.8397 15.2197 15.5697C16.1797 14.6197 16.8897 13.4797 17.3297 12.2197H3.0597V12.2297Z" fill="white"/> <path d="M18.84 21.7002H2C1.59 21.7002 1.25 21.3602 1.25 20.9502C1.25 20.5402 1.59 20.2002 2 20.2002H18.84C19.25 20.2002 19.59 20.5402 19.59 20.9502C19.59 21.3602 19.25 21.7002 18.84 21.7002Z" fill="white"/> </g> <defs> <clipPath id="clip0_4482_14531"> <rect width="24" height="24" fill="white"/> </clipPath> </defs> </svg>
