<svg width="24" height="24" viewBox="0 0 24 24" fill="none" xmlns="http://www.w3.org/2000/svg"> <g clip-path="url(#clip0_4482_5127)"> <path d="M22 14.2305C21.59 14.2305 21.25 13.8905 21.25 13.4805C21.25 8.38047 17.1 4.23047 12 4.23047C6.9 4.23047 2.75 8.38047 2.75 13.4805C2.75 13.8905 2.41 14.2305 2 14.2305C1.59 14.2305 1.25 13.8905 1.25 13.4805C1.25 7.55047 6.07 2.73047 12 2.73047C17.93 2.73047 22.75 7.55047 22.75 13.4805C22.75 13.8905 22.41 14.2305 22 14.2305Z" fill="white"/> <path d="M12 8.23047C11.59 8.23047 11.25 7.89047 11.25 7.48047V6.48047C11.25 6.07047 11.59 5.73047 12 5.73047C12.41 5.73047 12.75 6.07047 12.75 6.48047V7.48047C12.75 7.89047 12.41 8.23047 12 8.23047Z" fill="white"/> <path d="M7.49022 9.94041C7.25022 9.94041 7.02022 9.8304 6.88022 9.6204L6.31022 8.80039C6.07022 8.46039 6.15022 7.99042 6.49022 7.76042C6.83022 7.52042 7.30022 7.60041 7.53022 7.94041L8.10022 8.76042C8.34022 9.10042 8.26022 9.57039 7.92022 9.80039C7.79022 9.90039 7.64022 9.94041 7.49022 9.94041Z" fill="white"/> <path d="M16.5101 9.94041C16.3601 9.94041 16.2101 9.90039 16.0801 9.80039C15.7401 9.56039 15.6601 9.09042 15.9001 8.76042L16.4701 7.94041C16.7101 7.60041 17.1801 7.52042 17.5101 7.76042C17.8501 8.00042 17.9301 8.47039 17.6901 8.80039L17.1201 9.6204C16.9801 9.8304 16.7501 9.94041 16.5101 9.94041Z" fill="white"/> <path d="M12.0101 20.2299C10.7601 20.2299 9.54009 19.6099 8.83009 18.4799C8.30009 17.6299 8.12009 16.6299 8.35009 15.6499C8.58009 14.6699 9.16009 13.8399 10.0101 13.3099C11.7601 12.2099 14.0801 12.7299 15.1801 14.4799C15.7101 15.3299 15.8901 16.3299 15.6601 17.3099C15.4301 18.2899 14.8501 19.1199 14.0001 19.6499C13.3801 20.0399 12.6901 20.2299 12.0101 20.2299ZM12.0001 14.2299C11.5901 14.2299 11.1801 14.3399 10.8001 14.5799C10.2901 14.8999 9.94009 15.3999 9.81009 15.9899C9.68009 16.5799 9.78009 17.1799 10.1001 17.6899C10.4201 18.1999 10.9201 18.5499 11.5101 18.6799C12.1001 18.8099 12.7001 18.7099 13.2101 18.3899C13.7201 18.0699 14.0701 17.5699 14.2001 16.9799C14.3301 16.3899 14.2301 15.7899 13.9101 15.2799C13.4801 14.5999 12.7401 14.2299 12.0001 14.2299Z" fill="white"/> <path d="M10.4002 14.6903C10.1502 14.6903 9.91016 14.5703 9.77016 14.3403L8.17016 11.8003C7.95016 11.4503 8.05017 10.9903 8.40017 10.7703C8.75017 10.5503 9.21017 10.6503 9.43017 11.0103L11.0302 13.5503C11.2502 13.9003 11.1502 14.3603 10.8002 14.5803C10.6802 14.6603 10.5402 14.6903 10.4002 14.6903Z" fill="white"/> <path d="M12 17.4805C11.45 17.4805 11 17.0305 11 16.4805C11 15.9305 11.44 15.4805 12 15.4805C12.55 15.4805 13 15.9305 13 16.4805C13 17.0305 12.56 17.4805 12 17.4805Z" fill="white"/> <path d="M4.30976 19.1699H2.00977C1.59977 19.1699 1.25977 18.8299 1.25977 18.4199C1.25977 18.0099 1.59977 17.6699 2.00977 17.6699H4.30976C4.71976 17.6699 5.05976 18.0099 5.05976 18.4199C5.05976 18.8299 4.72976 19.1699 4.30976 19.1699Z" fill="white"/> <path d="M4.99976 21.2701H2.50977C1.81977 21.2701 1.25977 20.7101 1.25977 20.0201V16.8301C1.25977 16.1401 1.81977 15.5801 2.50977 15.5801H4.99976C5.40976 15.5801 5.74976 15.9201 5.74976 16.3301C5.74976 16.7401 5.40976 17.0801 4.99976 17.0801H2.75977V19.7701H4.99976C5.40976 19.7701 5.74976 20.1101 5.74976 20.5201C5.74976 20.9301 5.40976 21.2701 4.99976 21.2701Z" fill="white"/> <path d="M21.3098 19.1699H19.0098C18.5998 19.1699 18.2598 18.8299 18.2598 18.4199C18.2598 18.0099 18.5998 17.6699 19.0098 17.6699H21.3098C21.7198 17.6699 22.0598 18.0099 22.0598 18.4199C22.0598 18.8299 21.7298 19.1699 21.3098 19.1699Z" fill="white"/> <path d="M19.0098 21.2701C18.5998 21.2701 18.2598 20.9301 18.2598 20.5201V16.8301C18.2598 16.1401 18.8198 15.5801 19.5098 15.5801H21.9998C22.4098 15.5801 22.7498 15.9201 22.7498 16.3301C22.7498 16.7401 22.4098 17.0801 21.9998 17.0801H19.7598V20.5201C19.7598 20.9301 19.4198 21.2701 19.0098 21.2701Z" fill="white"/> </g> <defs> <clipPath id="clip0_4482_5127"> <rect width="24" height="24" fill="white"/> </clipPath> </defs> </svg>
