<svg width="24" height="24" viewBox="0 0 24 24" fill="none" xmlns="http://www.w3.org/2000/svg"> <g clip-path="url(#clip0_2085_390546)"> <path d="M16.3201 22.75H7.43012C3.95012 22.75 1.12012 19.92 1.12012 16.44V7.56C1.12012 4.08 3.95012 1.25 7.43012 1.25H16.3201C19.8001 1.25 22.6301 4.08 22.6301 7.56V16.45C22.6301 19.93 19.8001 22.76 16.3201 22.76V22.75ZM7.43012 2.75C4.78012 2.75 2.62012 4.91 2.62012 7.56V16.45C2.62012 19.1 4.78012 21.26 7.43012 21.26H16.3201C18.9701 21.26 21.1301 19.1 21.1301 16.45V7.56C21.1301 4.91 18.9701 2.75 16.3201 2.75H7.43012Z" fill="white"/> <path d="M8.26031 18.3097C6.77031 18.3097 5.57031 17.0997 5.57031 15.6197C5.57031 14.1397 6.78031 12.9297 8.26031 12.9297C9.74031 12.9297 10.9503 14.1397 10.9503 15.6197C10.9503 17.0997 9.74031 18.3097 8.26031 18.3097ZM8.26031 14.4197C7.60031 14.4197 7.07031 14.9597 7.07031 15.6097C7.07031 16.2597 7.61031 16.7997 8.26031 16.7997C8.91031 16.7997 9.45031 16.2597 9.45031 15.6097C9.45031 14.9597 8.91031 14.4197 8.26031 14.4197Z" fill="white"/> <path d="M8.26031 11.0802C6.77031 11.0802 5.57031 9.8702 5.57031 8.3902C5.57031 6.9102 6.78031 5.7002 8.26031 5.7002C9.74031 5.7002 10.9503 6.9102 10.9503 8.3902C10.9503 9.8702 9.74031 11.0802 8.26031 11.0802ZM8.26031 7.1902C7.60031 7.1902 7.07031 7.7302 7.07031 8.3802C7.07031 9.0302 7.61031 9.5702 8.26031 9.5702C8.91031 9.5702 9.45031 9.0302 9.45031 8.3802C9.45031 7.7302 8.91031 7.1902 8.26031 7.1902Z" fill="white"/> <path d="M14.0999 12.75H11.8799C11.4699 12.75 11.1299 12.41 11.1299 12C11.1299 11.59 11.4699 11.25 11.8799 11.25H14.0999C14.5099 11.25 14.8499 11.59 14.8499 12C14.8499 12.41 14.5099 12.75 14.0999 12.75Z" fill="white"/> <path d="M8.26025 14.4198C7.85025 14.4198 7.51025 14.0798 7.51025 13.6698V10.3398C7.51025 9.92984 7.85025 9.58984 8.26025 9.58984C8.67025 9.58984 9.01025 9.92984 9.01025 10.3398V13.6698C9.01025 14.0798 8.67025 14.4198 8.26025 14.4198Z" fill="white"/> <path d="M16.0401 14.6896C14.5501 14.6896 13.3501 13.4796 13.3501 11.9996C13.3501 10.5196 14.5601 9.30957 16.0401 9.30957C17.5201 9.30957 18.7301 10.5196 18.7301 11.9996C18.7301 13.4796 17.5201 14.6896 16.0401 14.6896ZM16.0401 10.8096C15.3801 10.8096 14.8501 11.3496 14.8501 11.9996C14.8501 12.6496 15.3901 13.1896 16.0401 13.1896C16.6901 13.1896 17.2301 12.6496 17.2301 11.9996C17.2301 11.3496 16.6901 10.8096 16.0401 10.8096Z" fill="white"/> </g> <defs> <clipPath id="clip0_2085_390546"> <rect width="24" height="24" fill="white"/> </clipPath> </defs> </svg>
