<svg width="24" height="24" viewBox="0 0 24 24" fill="none" xmlns="http://www.w3.org/2000/svg"> <g clip-path="url(#clip0_4482_11831)"> <path d="M20 21.7499H17C16.59 21.7499 16.25 21.4099 16.25 20.9999V6.01986L12.42 8.59986C12.17 8.76986 11.83 8.76986 11.58 8.59986L7.75 6.01986V20.9999C7.75 21.4099 7.41 21.7499 7 21.7499H4C2.48 21.7499 1.25 20.5199 1.25 18.9999V4.99986C1.25 3.97986 1.81 3.04986 2.7 2.56986C3.61 2.08986 4.69 2.14986 5.53 2.71986L11.99 7.07986L18.45 2.71986C19.29 2.13986 20.38 2.07986 21.28 2.56986C22.18 3.04986 22.73 3.97986 22.73 4.99986V18.9999C22.73 20.5199 21.5 21.7499 19.98 21.7499H20ZM17.75 20.2499H20C20.69 20.2499 21.25 19.6899 21.25 18.9999V4.99986C21.25 4.53986 21 4.10986 20.58 3.88986C20.18 3.66986 19.67 3.69986 19.3 3.95986L17.75 5.00986V20.2499ZM4 3.74986C3.8 3.74986 3.59 3.79986 3.41 3.88986C3.01 4.10986 2.75 4.52986 2.75 4.99986V18.9999C2.75 19.6899 3.31 20.2499 4 20.2499H6.25V5.00986L4.7 3.96986C4.49 3.82986 4.24 3.75986 4 3.75986V3.74986Z" fill="white"/> <path d="M12.0004 15.2496C11.8504 15.2496 11.7104 15.2096 11.5804 15.1196L1.58037 8.37965C1.24037 8.14965 1.15037 7.67965 1.38037 7.33965C1.61037 6.99965 2.08037 6.90965 2.42037 7.13965L12.0004 13.6096L21.5804 7.13965C21.9204 6.90965 22.3904 6.99965 22.6204 7.33965C22.8504 7.67965 22.7604 8.14965 22.4204 8.37965L12.4204 15.1296C12.2904 15.2196 12.1504 15.2596 12.0004 15.2596V15.2496Z" fill="white"/> </g> <defs> <clipPath id="clip0_4482_11831"> <rect width="24" height="24" fill="white"/> </clipPath> </defs> </svg>
