<svg width="24" height="24" viewBox="0 0 24 24" fill="none" xmlns="http://www.w3.org/2000/svg"> <g clip-path="url(#clip0_2085_381959)"> <path d="M17.0302 15.2402H6.99023C6.58023 15.2402 6.24023 14.9002 6.24023 14.4902C6.24023 14.0802 6.58023 13.7402 6.99023 13.7402H17.0302C17.4402 13.7402 17.7802 14.0802 17.7802 14.4902C17.7802 14.9002 17.4402 15.2402 17.0302 15.2402Z" fill="white"/> <path d="M22 16.4795C21.59 16.4795 21.25 16.1395 21.25 15.7295V8.77953C21.25 8.13953 21.08 7.51953 20.75 6.97953C20.43 7.51953 20.25 8.12953 20.25 8.77953V15.7295C20.25 16.1395 19.91 16.4795 19.5 16.4795C19.09 16.4795 18.75 16.1395 18.75 15.7295V8.77953C18.75 7.43953 19.27 6.18953 20.22 5.23953C20.36 5.09953 20.55 5.01953 20.75 5.01953C20.95 5.01953 21.14 5.09953 21.28 5.23953C22.22 6.18953 22.74 7.43953 22.74 8.77953V15.7295C22.74 16.1395 22.4 16.4795 21.99 16.4795H22Z" fill="white"/> <path d="M20.7598 6.52906C20.3498 6.52906 20.0098 6.18906 20.0098 5.77906V4.53906C20.0098 4.12906 20.3498 3.78906 20.7598 3.78906C21.1698 3.78906 21.5098 4.12906 21.5098 4.53906V5.77906C21.5098 6.18906 21.1698 6.52906 20.7598 6.52906Z" fill="white"/> <path d="M17.02 22.75C16.61 22.75 16.27 22.41 16.27 22V12.75H7.72998V22C7.72998 22.41 7.38998 22.75 6.97998 22.75C6.56998 22.75 6.22998 22.41 6.22998 22V12C6.22998 11.59 6.56998 11.25 6.97998 11.25H17.02C17.43 11.25 17.77 11.59 17.77 12V22C17.77 22.41 17.43 22.75 17.02 22.75Z" fill="white"/> <path d="M12 7.11023C11.59 7.11023 11.25 6.77023 11.25 6.36023V4.49023C11.25 4.08023 11.59 3.74023 12 3.74023C12.41 3.74023 12.75 4.08023 12.75 4.49023V6.36023C12.75 6.77023 12.41 7.11023 12 7.11023Z" fill="white"/> <path d="M15.7401 12.7499C15.6301 12.7499 15.5101 12.7199 15.4101 12.6699C15.0401 12.4799 14.8901 12.0299 15.0701 11.6599C15.8301 10.1299 13.2401 7.99992 12.0101 7.21992C10.9201 7.91992 8.13012 10.0299 8.94012 11.6599C9.13012 12.0299 8.98012 12.4799 8.60012 12.6699C8.23012 12.8599 7.78012 12.6999 7.59012 12.3299C6.10012 9.34992 10.4101 6.32992 11.6501 5.68992C11.8701 5.57992 12.1301 5.57992 12.3401 5.68992C13.5801 6.33992 17.8801 9.35992 16.4001 12.3299C16.2701 12.5899 16.0001 12.7399 15.7301 12.7399L15.7401 12.7499Z" fill="white"/> <path d="M14.4898 22.7503C14.0798 22.7503 13.7398 22.4103 13.7398 22.0003V19.5503C13.7398 19.0003 13.5598 18.5603 13.2098 18.2503C12.3198 17.4603 10.2598 17.7203 10.2598 19.5503V22.0003C10.2598 22.4103 9.91977 22.7503 9.50977 22.7503C9.09977 22.7503 8.75977 22.4103 8.75977 22.0003V19.5503C8.75977 17.4303 10.3898 16.3203 11.9998 16.3203C13.6098 16.3203 15.2398 17.4303 15.2398 19.5503V22.0003C15.2398 22.4103 14.8998 22.7503 14.4898 22.7503Z" fill="white"/> <path d="M11.9998 5.24C10.8998 5.24 10.0098 4.34 10.0098 3.24C10.0098 2.14 10.8998 1.25 11.9998 1.25C12.4098 1.25 12.7498 1.59 12.7498 2C12.7498 2.41 12.4098 2.75 11.9998 2.75C11.7298 2.75 11.5098 2.97 11.5098 3.24C11.5098 3.64 12.0698 3.88 12.3498 3.59C12.6398 3.3 13.1198 3.3 13.4098 3.59C13.6998 3.88 13.6998 4.36 13.4098 4.65C13.0298 5.03 12.5298 5.23 11.9998 5.23V5.24Z" fill="white"/> <path d="M21.9998 10.2598H19.5098C19.0998 10.2598 18.7598 9.91977 18.7598 9.50977C18.7598 9.09977 19.0998 8.75977 19.5098 8.75977H21.9998C22.4098 8.75977 22.7498 9.09977 22.7498 9.50977C22.7498 9.91977 22.4098 10.2598 21.9998 10.2598Z" fill="white"/> <path d="M22 22.7505H2C1.59 22.7505 1.25 22.4105 1.25 22.0005V15.7305C1.25 15.3205 1.59 14.9805 2 14.9805H6.98C7.39 14.9805 7.73 15.3205 7.73 15.7305C7.73 16.1405 7.39 16.4805 6.98 16.4805H2.75V21.2505H21.25V16.4805H17.02C16.61 16.4805 16.27 16.1405 16.27 15.7305C16.27 15.3205 16.61 14.9805 17.02 14.9805H22C22.41 14.9805 22.75 15.3205 22.75 15.7305V22.0005C22.75 22.4105 22.41 22.7505 22 22.7505Z" fill="white"/> <path d="M4.49 16.4795C4.08 16.4795 3.74 16.1395 3.74 15.7295V8.77953C3.74 8.13953 3.57 7.51953 3.25 6.97953C2.93 7.51953 2.75 8.12953 2.75 8.77953V15.7295C2.75 16.1395 2.41 16.4795 2 16.4795C1.59 16.4795 1.25 16.1395 1.25 15.7295V8.77953C1.25 7.44953 1.77 6.18953 2.71 5.23953C2.85 5.09953 3.04 5.01953 3.24 5.01953C3.44 5.01953 3.63 5.09953 3.77 5.23953C4.71 6.17953 5.23 7.43953 5.23 8.77953V15.7295C5.23 16.1395 4.89 16.4795 4.48 16.4795H4.49Z" fill="white"/> <path d="M3.24023 6.52906C2.83023 6.52906 2.49023 6.18906 2.49023 5.77906V4.53906C2.49023 4.12906 2.83023 3.78906 3.24023 3.78906C3.65023 3.78906 3.99023 4.12906 3.99023 4.53906V5.77906C3.99023 6.18906 3.65023 6.52906 3.24023 6.52906Z" fill="white"/> <path d="M4.49 10.2598H2C1.59 10.2598 1.25 9.91977 1.25 9.50977C1.25 9.09977 1.59 8.75977 2 8.75977H4.49C4.9 8.75977 5.24 9.09977 5.24 9.50977C5.24 9.91977 4.9 10.2598 4.49 10.2598Z" fill="white"/> <path d="M4.49023 22.7507C4.08023 22.7507 3.74023 22.4107 3.74023 22.0007V18.2207C3.74023 17.8107 4.08023 17.4707 4.49023 17.4707C4.90023 17.4707 5.24023 17.8107 5.24023 18.2207V22.0007C5.24023 22.4107 4.90023 22.7507 4.49023 22.7507Z" fill="white"/> <path d="M19.5098 22.7507C19.0998 22.7507 18.7598 22.4107 18.7598 22.0007V18.2207C18.7598 17.8107 19.0998 17.4707 19.5098 17.4707C19.9198 17.4707 20.2598 17.8107 20.2598 18.2207V22.0007C20.2598 22.4107 19.9198 22.7507 19.5098 22.7507Z" fill="white"/> </g> <defs> <clipPath id="clip0_2085_381959"> <rect width="24" height="24" fill="white"/> </clipPath> </defs> </svg>
