<svg width="24" height="24" viewBox="0 0 24 24" fill="none" xmlns="http://www.w3.org/2000/svg"> <g clip-path="url(#clip0_2085_386399)"> <path d="M14.3704 9.06H11.8804C11.4704 9.06 11.1304 8.72 11.1304 8.31V3C11.1304 2.04 11.9204 1.25 12.8804 1.25H13.3704C14.3304 1.25 15.1204 2.04 15.1204 3V8.31C15.1204 8.72 14.7804 9.06 14.3704 9.06ZM12.6204 7.56H13.6104V3C13.6104 2.86 13.5004 2.75 13.3604 2.75H12.8704C12.7304 2.75 12.6204 2.86 12.6204 3V7.56Z" fill="white"/> <path d="M15.2901 22.7503H10.9301C10.3901 22.7503 9.90014 22.5503 9.52014 22.1703L7.97014 20.6203C7.59014 20.2403 7.39014 19.7503 7.39014 19.2103V11.1103C7.39014 10.5703 7.59014 10.0803 7.97014 9.70031L9.52014 8.15031C9.90014 7.77031 10.3901 7.57031 10.9301 7.57031H15.2901C15.8301 7.57031 16.3201 7.77031 16.7001 8.15031L18.2501 9.70031C18.6301 10.0803 18.8301 10.5703 18.8301 11.1103V19.2103C18.8301 19.7503 18.6301 20.2403 18.2501 20.6203L16.7001 22.1703C16.3201 22.5503 15.8301 22.7503 15.2901 22.7503ZM10.9301 9.06031C10.7901 9.06031 10.6801 9.10031 10.5801 9.20031L9.03014 10.7503C8.93014 10.8503 8.89014 10.9603 8.89014 11.1003V19.2003C8.89014 19.3403 8.93014 19.4503 9.03014 19.5503L10.5801 21.1003C10.6801 21.2003 10.7901 21.2503 10.9301 21.2503H15.2901C15.4301 21.2503 15.5401 21.2103 15.6401 21.1103L17.1901 19.5603C17.2901 19.4603 17.3301 19.3503 17.3301 19.2103V11.1103C17.3301 10.9703 17.2901 10.8603 17.1901 10.7603L15.6401 9.21031C15.5401 9.11031 15.4301 9.06031 15.2901 9.06031H10.9301Z" fill="white"/> <path d="M19.0104 15.9004H7.21045C6.80045 15.9004 6.46045 15.5604 6.46045 15.1504C6.46045 14.7404 6.80045 14.4004 7.21045 14.4004H19.0204C19.4304 14.4004 19.7704 14.7404 19.7704 15.1504C19.7704 15.5604 19.4304 15.9004 19.0204 15.9004H19.0104Z" fill="white"/> <path d="M16.4202 6.81012C15.1902 6.81012 14.2002 5.81012 14.2002 4.59012C14.2002 3.37012 15.2002 2.37012 16.4202 2.37012C17.6402 2.37012 18.6402 3.37012 18.6402 4.59012C18.6402 5.81012 17.6402 6.81012 16.4202 6.81012ZM16.4202 3.87012C16.0202 3.87012 15.7002 4.19012 15.7002 4.59012C15.7002 4.99012 16.0202 5.31012 16.4202 5.31012C16.8202 5.31012 17.1402 4.99012 17.1402 4.59012C17.1402 4.19012 16.8202 3.87012 16.4202 3.87012Z" fill="white"/> <path d="M4.99023 12.0001C4.58023 12.0001 4.24023 11.6601 4.24023 11.2501V9.11008C4.24023 7.42008 5.20023 5.93008 6.75023 5.24008L11.0602 3.31008C11.4402 3.14008 11.8802 3.31008 12.0502 3.69008C12.2202 4.07008 12.0502 4.51008 11.6702 4.68008L7.36023 6.61008C6.35023 7.06008 5.74023 8.00008 5.74023 9.11008V11.2501C5.74023 11.6601 5.40023 12.0001 4.99023 12.0001Z" fill="white"/> <path d="M18.0203 12.9197H15.2603C14.2703 12.9197 13.4003 12.3197 13.0503 11.4097C11.8203 11.3297 10.8403 10.2997 10.8403 9.04973C10.8403 8.78973 10.8803 8.52973 10.9703 8.28973C11.1003 7.89973 11.5303 7.68973 11.9203 7.81973C12.3103 7.94973 12.5203 8.37973 12.3903 8.76973C12.3603 8.85973 12.3503 8.94973 12.3503 9.03973C12.3503 9.51973 12.7403 9.90973 13.2203 9.90973C13.7803 9.90973 14.2703 10.2697 14.4403 10.8097C14.5503 11.1797 14.8903 11.4197 15.2703 11.4197H18.0303C18.4403 11.4197 18.7803 11.7597 18.7803 12.1697C18.7803 12.5797 18.4403 12.9197 18.0303 12.9197H18.0203Z" fill="white"/> <path d="M13.04 22.7498H11.54C11.13 22.7498 10.79 22.4098 10.79 21.9998C10.79 21.5898 11.13 21.2498 11.54 21.2498H13.04C13.32 21.2498 13.56 21.0198 13.56 20.7298C13.56 20.4398 13.33 20.2098 13.04 20.2098H11.25C11.04 20.2098 10.84 20.1198 10.7 19.9698C10.56 19.8198 10.49 19.6098 10.5 19.3998C10.5 19.0698 10.27 18.8398 9.99002 18.8398H8.27002C7.86002 18.8398 7.52002 18.4998 7.52002 18.0898C7.52002 17.6798 7.86002 17.3398 8.27002 17.3398H9.99002C10.88 17.3398 11.63 17.9098 11.9 18.7098H13.05C14.16 18.7098 15.07 19.6098 15.07 20.7298C15.07 21.8498 14.17 22.7498 13.05 22.7498H13.04Z" fill="white"/> </g> <defs> <clipPath id="clip0_2085_386399"> <rect width="24" height="24" fill="white"/> </clipPath> </defs> </svg>
