<svg width="24" height="24" viewBox="0 0 24 24" fill="none" xmlns="http://www.w3.org/2000/svg"> <path d="M9.80016 15.5965C9.89578 15.1936 10.2996 14.9444 10.7025 15.0399L12.473 15.4598C12.8758 15.5555 13.125 15.9594 13.0297 16.3622C12.934 16.7652 12.5294 17.0144 12.1263 16.9188L10.3568 16.4989C9.95386 16.4033 9.70468 15.9995 9.80016 15.5965Z" fill="white"/> <path d="M9.61614 11.3552L9.86517 11.3981L9.88177 11.4021L14.4111 12.5319H14.4101C15.7401 12.8409 16.5607 14.1707 16.2617 15.4948L16.2607 15.4997L16.0439 16.4245L21.5243 17.8122L21.5234 17.8132C22.3737 18.0141 22.8882 18.8632 22.7021 19.7019L22.7011 19.7048L22.331 21.3415L22.332 21.3425C22.1416 22.1985 21.2745 22.7485 20.412 22.5378L20.4062 22.5368L8.05462 19.4206C8.05238 19.4201 8.05002 19.4201 8.04778 19.4196L8.03607 19.4167V19.4157C6.70901 19.1053 5.89109 17.7789 6.18841 16.4567H6.18743L6.89739 13.2663L6.89837 13.2644C7.18184 12.0091 8.37308 11.2036 9.61614 11.3552ZM9.53118 12.8601C9.00261 12.7427 8.48003 13.0733 8.36126 13.5915L8.36224 13.5925L7.65228 16.7829L7.6513 16.7849C7.53154 17.3155 7.86385 17.8399 8.3847 17.9577C8.39079 17.9591 8.3972 17.9611 8.40325 17.9626L20.7665 21.0808H20.7675C20.7831 21.0846 20.8046 21.0837 20.8281 21.069C20.8519 21.0541 20.8642 21.0344 20.8681 21.0173V21.0144L21.2372 19.3767C21.2492 19.3224 21.2137 19.2804 21.1767 19.2722C21.1698 19.2706 21.1631 19.2681 21.1562 19.2663L14.956 17.697C14.5545 17.5953 14.3115 17.1873 14.413 16.7858C14.4206 16.7558 14.4295 16.7262 14.4404 16.698L14.7978 15.1647L14.8154 15.0651C14.8758 14.5696 14.553 14.1012 14.0644 13.9909C14.0591 13.9897 14.054 13.9883 14.0488 13.987L9.53118 12.8601Z" fill="white"/> <path d="M1.66798 3.72576C2.04834 2.02284 3.74684 0.95034 5.44923 1.33806L5.45021 1.33708L6.82033 1.63689L6.82521 1.63787C8.77216 2.07793 9.74362 4.23221 8.85939 5.98748V5.98845C8.43853 6.82093 8.27875 7.52141 8.31544 8.03142C8.3227 8.13199 8.33858 8.22433 8.36036 8.30974C9.08719 7.33762 10.3457 6.84977 11.5957 7.13884H11.5967C12.9645 7.45148 13.9614 8.62212 14.0674 9.97087C14.0998 10.3837 13.7916 10.7449 13.3789 10.7775C12.966 10.8099 12.6047 10.501 12.5723 10.0881C12.5179 9.39715 11.9946 8.76806 11.2627 8.60076H11.2598C10.3638 8.39242 9.48476 8.93249 9.28029 9.81853C9.22812 10.0445 9.07482 10.234 8.86427 10.3312C8.65359 10.4284 8.40895 10.4227 8.20314 10.3156C7.32733 9.8598 6.88551 9.05795 6.81935 8.13884C6.75607 7.25926 7.03083 6.27975 7.51954 5.31267L7.59474 5.1408C7.91066 4.27523 7.40629 3.3079 6.49415 3.10173V3.10076L5.12892 2.80291L5.12111 2.80095C4.22687 2.59459 3.33131 3.15946 3.13185 4.05291V4.05388C2.6185 6.34563 3.09033 9.33016 4.4756 11.8078C5.06377 12.6977 5.17857 13.574 5.13869 14.2306C5.11862 14.5606 5.06006 14.8354 5.0049 15.0314C4.97722 15.1298 4.94939 15.2094 4.92775 15.2677C4.91699 15.2967 4.90795 15.3207 4.9004 15.339C4.89668 15.3481 4.89337 15.3561 4.89064 15.3625C4.88927 15.3656 4.88782 15.3688 4.88673 15.3713C4.88618 15.3725 4.88525 15.3741 4.88478 15.3752V15.3761L4.8838 15.3771L4.20021 15.0695L4.8838 15.3781C4.73686 15.7042 4.3798 15.8813 4.03126 15.801C3.47127 15.6715 3.21728 15.8356 3.09376 15.9474C3.01592 16.0179 2.9601 16.0972 2.92482 16.1603C2.90778 16.1908 2.89694 16.2151 2.89161 16.2277C2.89096 16.2293 2.89012 16.2305 2.88966 16.2316C2.89002 16.2306 2.89016 16.2291 2.89064 16.2277L2.86525 16.2941C2.71153 16.6416 2.31639 16.8235 1.94728 16.7033C1.55363 16.575 1.33875 16.1517 1.46681 15.758L2.05079 15.9474C1.48736 15.7639 1.46738 15.7576 1.46681 15.757V15.756L1.46779 15.7541C1.46818 15.7529 1.46831 15.7515 1.46876 15.7502C1.46973 15.7473 1.47145 15.7439 1.47267 15.7404C1.47514 15.7333 1.4779 15.7246 1.48146 15.715C1.48861 15.6957 1.4978 15.6711 1.50978 15.6427C1.53365 15.5863 1.56902 15.5123 1.61622 15.4279C1.70969 15.2608 1.85904 15.0407 2.08595 14.8351C2.44885 14.5064 2.96208 14.2582 3.63087 14.2531C3.63481 14.2167 3.63923 14.179 3.64161 14.1398C3.66617 13.7357 3.59809 13.1868 3.20802 12.6095C3.19649 12.5925 3.18588 12.5748 3.17579 12.5568C1.62758 9.7974 1.06237 6.42936 1.66798 3.72576ZM2.89161 16.2248L2.89259 16.2238V16.2228L2.89161 16.2219V16.2248Z" fill="white"/> </svg>
