<svg width="24" height="24" viewBox="0 0 24 24" fill="none" xmlns="http://www.w3.org/2000/svg"> <path d="M17.9102 7.18066C17.9102 4.84503 16.0162 2.95045 13.6807 2.9502C11.3449 2.9502 9.4502 4.84488 9.4502 7.18066C9.45045 9.51624 11.345 11.4102 13.6807 11.4102C16.0161 11.4099 17.9099 9.51608 17.9102 7.18066ZM19.4102 7.18066C19.4099 10.3445 16.8445 12.9099 13.6807 12.9102C10.5166 12.9102 7.95045 10.3447 7.9502 7.18066C7.9502 4.01645 10.5165 1.4502 13.6807 1.4502C16.8447 1.45045 19.4102 4.01661 19.4102 7.18066Z" fill="white"/> <path d="M8.37136 7.59259C8.75122 7.42761 9.19261 7.60147 9.35769 7.98126C9.52266 8.36111 9.34878 8.8025 8.96901 8.96759L6.35964 10.1004C6.21817 10.2466 6.08871 10.4078 5.97683 10.5848C5.16787 11.8885 5.56483 13.6117 6.86647 14.4363L18.9124 20.9422L19.0022 20.9842C19.4583 21.1662 19.9781 21.0016 20.2425 20.5848L21.093 19.2147L21.095 19.2108C21.375 18.7647 21.26 18.1739 20.8382 17.866H20.8372L13.6555 12.7615C13.318 12.5216 13.2389 12.0533 13.4788 11.7156C13.7187 11.378 14.187 11.2989 14.5247 11.5389L21.7151 16.6492L21.7219 16.6541C22.7788 17.4253 23.0633 18.8912 22.3665 20.0047L22.3675 20.0057L21.5178 21.3758L21.5149 21.3787C20.8161 22.4911 19.3905 22.8727 18.2278 22.2772C18.2233 22.2748 18.2186 22.2727 18.2141 22.2703L6.12331 15.7401C6.10931 15.7325 6.09578 15.7241 6.08229 15.7156C4.07373 14.4573 3.4541 11.8069 4.70241 9.79474L4.70534 9.79083C4.90998 9.46581 5.15012 9.17789 5.41237 8.92755L5.51589 8.84552C5.55244 8.82127 5.59074 8.79959 5.63112 8.78204L8.37136 7.59259Z" fill="white"/> <path d="M10.0947 10.9315C10.3315 10.5918 10.7988 10.5083 11.1386 10.745C11.4784 10.9818 11.5619 11.4492 11.3251 11.789L8.45502 15.9091C8.21823 16.2488 7.7509 16.3323 7.41108 16.0956C7.07123 15.8588 6.9878 15.3915 7.22455 15.0517L10.0947 10.9315Z" fill="white"/> <path d="M2.66016 1.4502C3.88738 1.45021 5.00504 2.13434 5.55859 3.21777L5.66211 3.44043L5.69727 3.5459L7.01758 8.75586C7.11928 9.15728 6.87594 9.56512 6.47461 9.66699C6.07308 9.76872 5.66521 9.52555 5.56348 9.12402L4.25977 3.98047C3.9787 3.35474 3.3561 2.95021 2.66016 2.9502H2.37012C1.9559 2.9502 1.62012 2.61441 1.62012 2.2002C1.62012 1.78598 1.9559 1.4502 2.37012 1.4502H2.66016Z" fill="white"/> <path d="M14.5801 7.18066C14.5801 6.67493 14.1756 6.27059 13.6699 6.27051C13.1641 6.27051 12.7598 6.67488 12.7598 7.18066C12.7598 7.68638 13.1642 8.09082 13.6699 8.09082C14.1756 8.09074 14.58 7.68633 14.5801 7.18066ZM16.0801 7.18066C16.08 8.51475 15.004 9.59074 13.6699 9.59082C12.3358 9.59082 11.2598 8.5148 11.2598 7.18066C11.2598 5.84645 12.3357 4.77051 13.6699 4.77051C15.0041 4.77059 16.0801 5.8465 16.0801 7.18066Z" fill="white"/> <path d="M5.59844 17.8019C5.81318 17.4478 6.27457 17.3344 6.62871 17.549C6.98275 17.7637 7.09613 18.2252 6.88164 18.5793C6.14887 19.7875 5.33813 20.3248 4.59551 20.4836C4.23608 20.5604 3.92774 20.5407 3.70098 20.4963C3.58799 20.4741 3.49466 20.4453 3.42461 20.4201C3.38952 20.4074 3.35945 20.3952 3.33574 20.3849C3.32408 20.3799 3.31332 20.3754 3.30449 20.3713L3.28496 20.3615L3.28398 20.3605C3.28592 20.3554 3.31262 20.3005 3.61992 19.6906L3.28203 20.3605C2.91233 20.1741 2.76368 19.7225 2.95 19.3527C3.13243 18.991 3.5683 18.8408 3.9334 19.009L3.98906 19.0236C4.04882 19.0353 4.15042 19.0449 4.28203 19.0168C4.52192 18.9654 5.02149 18.7531 5.59844 17.8019Z" fill="white"/> <path d="M3.04 9.83977C2.47 9.83977 2 9.37977 2 8.79977C2 8.21977 2.47 7.75977 3.04 7.75977C3.61 7.75977 4.08 8.21977 4.08 8.79977C4.08 9.37977 3.61 9.83977 3.04 9.83977Z" fill="white"/> </svg>
