<svg width="24" height="24" viewBox="0 0 24 24" fill="none" xmlns="http://www.w3.org/2000/svg"> <g clip-path="url(#clip0_2085_386214)"> <path d="M17.8 6.20996H6.20996C5.79996 6.20996 5.45996 5.86996 5.45996 5.45996C5.45996 5.04996 5.79996 4.70996 6.20996 4.70996H17.81C18.22 4.70996 18.56 5.04996 18.56 5.45996C18.56 5.86996 18.22 6.20996 17.81 6.20996H17.8Z" fill="white"/> <path d="M6.20996 9.35957C5.79996 9.35957 5.45996 9.01957 5.45996 8.60957V2.30957C5.45996 1.89957 5.79996 1.55957 6.20996 1.55957C6.61996 1.55957 6.95996 1.89957 6.95996 2.30957V8.59957C6.95996 9.00957 6.61996 9.34957 6.20996 9.34957V9.35957Z" fill="white"/> <path d="M17.7998 9.35957C17.3898 9.35957 17.0498 9.01957 17.0498 8.60957V2.30957C17.0498 1.89957 17.3898 1.55957 17.7998 1.55957C18.2098 1.55957 18.5498 1.89957 18.5498 2.30957V8.59957C18.5498 9.00957 18.2098 9.34957 17.7998 9.34957V9.35957Z" fill="white"/> <path d="M20.1099 8.00918C19.6999 8.00918 19.3599 7.66918 19.3599 7.25918V3.65918C19.3599 3.24918 19.6999 2.90918 20.1099 2.90918C20.5199 2.90918 20.8599 3.24918 20.8599 3.65918V7.25918C20.8599 7.66918 20.5199 8.00918 20.1099 8.00918Z" fill="white"/> <path d="M21.9999 6.20996H20.1099C19.6999 6.20996 19.3599 5.86996 19.3599 5.45996C19.3599 5.04996 19.6999 4.70996 20.1099 4.70996H21.9999C22.4099 4.70996 22.7499 5.04996 22.7499 5.45996C22.7499 5.86996 22.4099 6.20996 21.9999 6.20996Z" fill="white"/> <path d="M3.89014 8.00918C3.48014 8.00918 3.14014 7.66918 3.14014 7.25918V3.65918C3.14014 3.24918 3.48014 2.90918 3.89014 2.90918C4.30014 2.90918 4.64014 3.24918 4.64014 3.65918V7.25918C4.64014 7.66918 4.30014 8.00918 3.89014 8.00918Z" fill="white"/> <path d="M3.89 6.20996H2C1.59 6.20996 1.25 5.86996 1.25 5.45996C1.25 5.04996 1.59 4.70996 2 4.70996H3.89C4.3 4.70996 4.64 5.04996 4.64 5.45996C4.64 5.86996 4.3 6.20996 3.89 6.20996Z" fill="white"/> <path d="M9.77979 10.3C9.36979 10.3 9.02979 9.95996 9.02979 9.54996V5.45996C9.02979 5.04996 9.36979 4.70996 9.77979 4.70996C10.1898 4.70996 10.5298 5.04996 10.5298 5.45996V9.54996C10.5298 9.95996 10.1898 10.3 9.77979 10.3Z" fill="white"/> <path d="M14.23 10.3C13.82 10.3 13.48 9.95996 13.48 9.54996V5.45996C13.48 5.04996 13.82 4.70996 14.23 4.70996C14.64 4.70996 14.98 5.04996 14.98 5.45996V9.54996C14.98 9.95996 14.64 10.3 14.23 10.3Z" fill="white"/> <path d="M17.3199 20.1398H6.68988C5.48988 20.1398 4.41988 19.5098 3.83988 18.4598C3.25988 17.4098 3.28988 16.1698 3.92988 15.1498L7.32988 9.7198C7.69988 9.1398 8.31988 8.7998 8.99988 8.7998H15.0299C15.7099 8.7998 16.3399 9.1398 16.6999 9.7198L20.0999 15.1498C20.7399 16.1698 20.7699 17.4098 20.1899 18.4598C19.6099 19.5098 18.5399 20.1398 17.3399 20.1398H17.3199ZM8.98988 10.2998C8.82988 10.2998 8.67988 10.3898 8.58988 10.5198L5.19988 15.9398C4.85988 16.4898 4.83988 17.1598 5.14988 17.7298C5.45988 18.2998 6.03988 18.6398 6.68988 18.6398H17.3099C17.9599 18.6398 18.5299 18.2998 18.8499 17.7298C19.1599 17.1598 19.1499 16.4898 18.7999 15.9398L15.3999 10.5098C15.3099 10.3698 15.1699 10.2898 14.9999 10.2898H8.96988L8.98988 10.2998Z" fill="white"/> <path d="M19.74 16.9492H4.27002C3.86002 16.9492 3.52002 16.6092 3.52002 16.1992C3.52002 15.7892 3.86002 15.4492 4.27002 15.4492H19.74C20.15 15.4492 20.49 15.7892 20.49 16.1992C20.49 16.6092 20.15 16.9492 19.74 16.9492Z" fill="white"/> <path d="M7.83008 22.4394C7.42008 22.4394 7.08008 22.0994 7.08008 21.6894V19.3994C7.08008 18.9894 7.42008 18.6494 7.83008 18.6494C8.24008 18.6494 8.58008 18.9894 8.58008 19.3994V21.6894C8.58008 22.0994 8.24008 22.4394 7.83008 22.4394Z" fill="white"/> <path d="M16.1899 22.4394C15.7799 22.4394 15.4399 22.0994 15.4399 21.6894V19.3994C15.4399 18.9894 15.7799 18.6494 16.1899 18.6494C16.5999 18.6494 16.9399 18.9894 16.9399 19.3994V21.6894C16.9399 22.0994 16.5999 22.4394 16.1899 22.4394Z" fill="white"/> </g> <defs> <clipPath id="clip0_2085_386214"> <rect width="24" height="24" fill="white"/> </clipPath> </defs> </svg>
