<svg width="24" height="24" viewBox="0 0 24 24" fill="none" xmlns="http://www.w3.org/2000/svg"> <g clip-path="url(#clip0_2085_386217)"> <path d="M6.51023 19.5105C6.41023 19.5105 6.31023 19.5105 6.22023 19.5005C5.58023 19.4605 4.93023 19.2605 4.35023 18.9305C4.07023 18.7705 3.82023 18.5805 3.59023 18.3705C3.16023 17.9605 2.82023 17.4905 2.59023 16.9505C2.35023 16.4105 2.24023 15.8305 2.24023 15.2505V15.1105C2.24023 14.1705 2.55023 13.2505 3.12023 12.5005C3.69023 11.7605 4.51023 11.2205 5.41023 10.9805C5.85023 10.8605 6.33024 10.8105 6.80023 10.8405L16.6802 11.6705C17.5502 11.7405 18.3602 12.1305 18.9502 12.7705C19.5502 13.4105 19.8702 14.2505 19.8702 15.1305C19.8702 16.0805 19.5302 16.9305 18.9202 17.5905C18.3102 18.2405 17.4802 18.6405 16.5902 18.7005L6.78023 19.5105C6.69023 19.5105 6.60023 19.5205 6.51023 19.5205V19.5105ZM6.49023 12.3205C6.26023 12.3205 6.03023 12.3505 5.80023 12.4205C5.20023 12.5805 4.67023 12.9305 4.30023 13.4105C3.93023 13.8905 3.72023 14.4905 3.73023 15.1005V15.2505C3.73023 15.6305 3.81023 16.0005 3.96023 16.3505C4.11023 16.7005 4.33023 17.0105 4.61023 17.2705C4.76023 17.4105 4.93023 17.5305 5.11023 17.6405C5.48023 17.8505 5.91023 17.9905 6.35023 18.0205C6.47023 18.0305 6.56023 18.0305 6.65023 18.0205L16.4802 17.2105C17.0002 17.1705 17.4802 16.9405 17.8302 16.5705C18.1802 16.1905 18.3702 15.7005 18.3702 15.1905C18.3702 14.6405 18.1902 14.1605 17.8502 13.8005C17.5102 13.4405 17.0502 13.2205 16.5602 13.1805L6.68023 12.3505C6.62023 12.3505 6.56023 12.3505 6.49023 12.3505V12.3205Z" fill="white"/> <path d="M3.42004 8.02075C3.09004 8.02075 2.77004 7.95075 2.48004 7.81075C2.18004 7.66075 1.91004 7.45075 1.70004 7.19075C1.49004 6.92075 1.35004 6.61075 1.29004 6.28075C1.23004 5.95075 1.24004 5.61075 1.32004 5.29075C1.46004 4.78075 1.78004 4.35075 2.22004 4.07075C2.67004 3.79075 3.20004 3.69075 3.71004 3.79075C3.75004 3.79075 3.79004 3.81075 3.82004 3.82075L6.49004 4.77075C6.80004 4.84075 7.08004 5.00075 7.31004 5.24075C7.54004 5.48075 7.69004 5.81075 7.74004 6.14075C7.78004 6.48075 7.72004 6.83075 7.55004 7.13075C7.38004 7.43075 7.13004 7.67075 6.82004 7.81075L6.72004 7.87075C6.65004 7.91075 6.58004 7.93075 6.51004 7.95075C6.46004 7.96075 6.38004 7.97075 6.31004 7.97075L3.45004 8.02075H3.42004ZM3.33004 5.26075C3.22004 5.26075 3.12004 5.29075 3.02004 5.35075C2.90004 5.43075 2.81004 5.54075 2.77004 5.68075C2.74004 5.78075 2.74004 5.88075 2.77004 5.99075C2.79004 6.09075 2.83004 6.19075 2.90004 6.27075C2.96004 6.35075 3.05004 6.42075 3.14004 6.46075C3.23004 6.50075 3.33004 6.52075 3.44004 6.53075L6.16004 6.49075L6.25004 6.42075C6.25004 6.42075 6.23004 6.29075 6.23004 6.28075C6.19004 6.28075 6.09004 6.23075 6.05004 6.22075L3.39004 5.27075C3.39004 5.27075 3.35004 5.27075 3.33004 5.27075V5.26075Z" fill="white"/> <path d="M5.59981 12.44C5.28981 12.44 4.98981 12.24 4.88981 11.93L3.39981 7.50997C3.26981 7.11997 3.47981 6.68996 3.86981 6.55996C4.25981 6.42996 4.68981 6.63996 4.81981 7.02996L6.30981 11.45C6.43981 11.84 6.22981 12.27 5.83981 12.4C5.75981 12.43 5.67981 12.44 5.59981 12.44Z" fill="white"/> <path d="M16.62 13.1505C16.33 13.1505 16.06 12.9805 15.94 12.7105L12.46 4.95047C12.29 4.57047 12.46 4.13047 12.84 3.96047C13.22 3.79047 13.66 3.96047 13.83 4.34047L17.31 12.1005C17.48 12.4805 17.31 12.9205 16.93 13.0905C16.83 13.1305 16.73 13.1605 16.62 13.1605V13.1505Z" fill="white"/> <path d="M12.0103 5.39027C11.6003 5.39027 11.2603 5.05027 11.2603 4.64027C11.2603 4.23027 11.6003 3.89027 12.0103 3.89027H15.5303C15.8303 3.89027 16.1103 3.77027 16.3303 3.56027C16.5303 3.35027 16.6503 3.07027 16.6603 2.77027C16.6603 2.36027 17.0003 2.03027 17.4103 2.03027C17.8203 2.03027 18.1603 2.37027 18.1503 2.79027C18.1503 3.48027 17.8703 4.14027 17.3803 4.63027C16.8703 5.12027 16.2203 5.39027 15.5303 5.39027H12.0003H12.0103Z" fill="white"/> <path d="M15.7902 21.5105H15.7802C14.8602 21.5105 13.9602 21.3105 13.1202 20.9305C12.2902 20.5505 11.5402 19.9805 10.9502 19.2905C10.7402 19.0405 10.6002 18.7405 10.5702 18.4105C10.5502 18.2105 10.6102 18.0005 10.7402 17.8505C10.8702 17.6905 11.0602 17.6005 11.2602 17.5805L16.4902 17.1805C17.0102 17.1405 17.4802 16.9105 17.8302 16.5405C18.1802 16.1705 18.3702 15.6705 18.3702 15.1605C18.3702 14.6105 18.1802 14.1305 17.8402 13.7705C17.5002 13.4105 17.0402 13.1905 16.5402 13.1605L11.2602 12.7505C11.0502 12.7305 10.8702 12.6305 10.7402 12.4705C10.6102 12.3105 10.5502 12.1005 10.5802 11.9005C10.6202 11.5805 10.7502 11.2805 10.9502 11.0405C11.5302 10.3505 12.2302 9.82051 13.0202 9.43051C13.8102 9.04051 14.6702 8.83051 15.5502 8.79051C16.4302 8.75051 17.3002 8.90051 18.1302 9.23051C18.9602 9.56051 19.6902 10.0405 20.3102 10.6705C20.9302 11.3005 21.4102 12.0405 21.7302 12.8605C22.0502 13.6905 22.1902 14.5605 22.1502 15.4405C22.1102 16.3205 21.8902 17.1805 21.5002 17.9705C21.1102 18.7605 20.5602 19.4605 19.8802 20.0205C19.2502 20.5505 18.5202 20.9605 17.7302 21.2205C17.0902 21.4205 16.4302 21.5205 15.7702 21.5205L15.7902 21.5105ZM12.7802 18.9605C13.0802 19.2105 13.4102 19.4005 13.7502 19.5605C14.3902 19.8605 15.0702 20.0105 15.7802 20.0105C16.2902 20.0105 16.7902 19.9305 17.2802 19.7805C17.8802 19.5805 18.4402 19.2705 18.9302 18.8605C19.4502 18.4305 19.8602 17.9005 20.1702 17.2905C20.4702 16.6805 20.6402 16.0305 20.6702 15.3605C20.7002 14.6805 20.5902 14.0205 20.3502 13.3905C20.1102 12.7605 19.7402 12.2005 19.2602 11.7105C18.7802 11.2305 18.2202 10.8605 17.5902 10.6105C16.9602 10.3605 16.3002 10.2605 15.6202 10.2805C14.9402 10.3105 14.2902 10.4705 13.6802 10.7705C13.3502 10.9305 13.0402 11.1205 12.7602 11.3505L16.6502 11.6505C17.5202 11.7105 18.3302 12.0905 18.9302 12.7305C19.5302 13.3705 19.8602 14.2105 19.8602 15.0905C19.8602 16.0505 19.5202 16.9005 18.9102 17.5505C18.3002 18.2005 17.4702 18.6005 16.5802 18.6705L12.7702 18.9605H12.7802Z" fill="white"/> <path d="M3.86016 21.9698C3.71016 21.9698 3.56016 21.9298 3.43016 21.8298C3.09016 21.5898 3.01016 21.1198 3.25016 20.7898L4.99016 18.2998C5.23016 17.9598 5.69016 17.8798 6.03016 18.1198C6.37016 18.3598 6.45016 18.8298 6.21016 19.1598L4.47016 21.6498C4.32016 21.8598 4.09016 21.9698 3.85016 21.9698H3.86016Z" fill="white"/> <path d="M22.0001 21.9698C21.7701 21.9698 21.5401 21.8598 21.3901 21.6598L19.5501 19.1498C19.3101 18.8198 19.3801 18.3498 19.7101 18.0998C20.0401 17.8498 20.5101 17.9298 20.7601 18.2598L22.6001 20.7698C22.8401 21.0998 22.7701 21.5698 22.4401 21.8198C22.3101 21.9198 22.1501 21.9598 22.0001 21.9598V21.9698Z" fill="white"/> </g> <defs> <clipPath id="clip0_2085_386217"> <rect width="24" height="24" fill="white"/> </clipPath> </defs> </svg>
