<svg width="24" height="24" viewBox="0 0 24 24" fill="none" xmlns="http://www.w3.org/2000/svg"> <g clip-path="url(#clip0_2085_390652)"> <path d="M9.84976 16.4498C9.51976 16.4498 9.22976 16.2198 9.15976 15.8998C8.99976 15.1398 8.67976 14.3798 8.37976 14.0098C8.30976 13.9298 8.26976 13.8298 8.23976 13.7198C8.21976 13.8198 8.16976 13.9198 8.09976 14.0098C7.82976 14.3498 7.53976 15.0198 7.36976 15.7098C7.27976 16.0698 6.91976 16.2998 6.54976 16.2298C4.80976 15.8898 3.71976 15.1498 3.22976 13.9698C3.13976 13.7598 3.15976 13.5298 3.27976 13.3298C3.39976 13.1398 3.59976 13.0098 3.81976 12.9998C4.51976 12.9398 5.69976 12.5598 6.22976 12.1398C6.30976 12.0698 6.40976 12.0298 6.50976 11.9998C6.40976 11.9798 6.30976 11.9298 6.22976 11.8598C5.69976 11.4298 4.51976 11.0498 3.81976 10.9998C3.59976 10.9798 3.38976 10.8598 3.27976 10.6698C3.15976 10.4798 3.13976 10.2398 3.22976 10.0298C3.71976 8.8498 4.80976 8.1098 6.54976 7.7698C6.91976 7.6998 7.27976 7.9298 7.36976 8.2898C7.53976 8.9798 7.82976 9.6498 8.09976 9.9898C8.16976 10.0698 8.21976 10.1698 8.23976 10.2798C8.25976 10.1798 8.30976 10.0798 8.37976 9.9898C8.67976 9.6198 8.98976 8.8598 9.15976 8.0998C9.22976 7.7698 9.51976 7.5598 9.85976 7.5498C14.1998 7.6398 22.6998 9.0698 22.6998 11.9998C22.6998 14.9298 14.1998 16.3598 9.85976 16.4498H9.84976ZM9.88976 13.7698C10.0998 14.1698 10.2698 14.6098 10.3898 15.0298C16.0898 14.8098 21.2898 13.0298 21.2898 11.9998C21.2898 10.9698 16.0798 9.1898 10.3898 8.9698C10.2698 9.3898 10.0998 9.8298 9.88976 10.2298C10.1298 10.4498 10.3198 10.7198 10.4498 11.0298C10.5798 11.3398 10.6498 11.6598 10.6498 11.9998C10.6498 12.3398 10.5798 12.6598 10.4498 12.9698C10.3198 13.2798 10.1198 13.5498 9.88976 13.7698ZM5.10976 14.1698C5.35976 14.3598 5.70976 14.5498 6.20976 14.6898C6.30976 14.3998 6.43976 14.0698 6.59976 13.7598C6.55976 13.7198 6.51976 13.6798 6.47976 13.6398C6.04976 13.8598 5.55976 14.0398 5.10976 14.1698ZM6.83976 11.9998C7.04976 12.0498 7.22976 12.1998 7.31976 12.3998C7.41976 12.6298 7.59976 12.8198 7.83976 12.9198C8.03976 13.0098 8.18976 13.1798 8.23976 13.3998C8.23976 13.3998 8.23976 13.3998 8.23976 13.4098C8.23976 13.4098 8.23976 13.4098 8.23976 13.3998C8.28976 13.1898 8.43976 13.0098 8.63976 12.9198C8.86976 12.8198 9.05976 12.6298 9.15976 12.3998C9.21976 12.2698 9.23976 12.1398 9.23976 11.9998C9.23976 11.8598 9.20976 11.7198 9.15976 11.5998C9.05976 11.3698 8.86976 11.1798 8.63976 11.0798C8.43976 10.9898 8.28976 10.8198 8.23976 10.5998C8.23976 10.5998 8.23976 10.5998 8.23976 10.5898C8.18976 10.7998 8.03976 10.9798 7.83976 11.0698C7.60976 11.1698 7.41976 11.3598 7.31976 11.5898C7.22976 11.7898 7.05976 11.9398 6.83976 11.9898V11.9998ZM5.10976 9.8298C5.56976 9.9598 6.04976 10.1398 6.47976 10.3598C6.51976 10.3198 6.55976 10.2798 6.59976 10.2398C6.42976 9.9198 6.29976 9.5898 6.20976 9.3098C5.70976 9.4598 5.35976 9.6398 5.10976 9.8298Z" fill="white"/> <path d="M8.93961 11.1398C8.84961 11.1398 8.74961 11.1198 8.65961 11.0798C8.40961 10.9698 8.10961 10.9698 7.84961 11.0798C7.55961 11.2098 7.21961 11.1198 7.01961 10.8798C6.43961 10.1598 6.11961 9.0698 6.01961 8.6398C5.90961 8.1898 5.84961 7.7698 5.84961 7.4598C5.84961 6.1298 6.92961 5.0498 8.25961 5.0498C9.58961 5.0498 10.6696 6.1298 10.6696 7.4598C10.6696 7.7798 10.5996 8.1498 10.5496 8.4098C10.3796 9.1798 10.0196 10.2298 9.48961 10.8798C9.34961 11.0498 9.14961 11.1398 8.93961 11.1398ZM8.24961 9.5898C8.37961 9.5898 8.50961 9.5898 8.62961 9.6198C8.84961 9.2198 9.04961 8.6598 9.16961 8.1098C9.22961 7.8498 9.25961 7.6198 9.25961 7.4598C9.25961 6.9098 8.80961 6.4598 8.24961 6.4598C7.68961 6.4598 7.24961 6.9098 7.24961 7.4598C7.24961 7.6498 7.29961 7.9598 7.37961 8.2898C7.49961 8.7798 7.67961 9.2598 7.86961 9.6198C7.98961 9.5998 8.11961 9.5898 8.24961 9.5898Z" fill="white"/> <path d="M3.7098 14.4098C2.3798 14.4098 1.2998 13.3298 1.2998 11.9998C1.2998 10.6698 2.3798 9.58984 3.7098 9.58984C3.7798 9.58984 3.8598 9.58984 3.9498 9.59984C4.7198 9.65984 6.2698 10.0798 7.1298 10.7698C7.3798 10.9698 7.4598 11.3098 7.3298 11.5998C7.2698 11.7298 7.2498 11.8598 7.2498 11.9998C7.2498 12.1398 7.2798 12.2798 7.3298 12.3998C7.4598 12.6898 7.3798 13.0298 7.1298 13.2298C6.2698 13.9198 4.7198 14.3398 3.9498 14.3998C3.8698 14.3998 3.7798 14.4098 3.7098 14.4098ZM3.7098 10.9998C3.1598 10.9998 2.7098 11.4498 2.7098 11.9998C2.7098 12.5498 3.1598 12.9998 3.7098 12.9998C3.7498 12.9998 3.7898 12.9998 3.8298 12.9998C4.3998 12.9498 5.2698 12.6998 5.8698 12.3798C5.8498 12.2598 5.8398 12.1298 5.8398 11.9998C5.8398 11.8698 5.8398 11.7398 5.8698 11.6198C5.2798 11.2998 4.3998 11.0498 3.8298 10.9998C3.7798 10.9998 3.7398 10.9998 3.6998 10.9998H3.7098Z" fill="white"/> <path d="M8.24984 18.95C6.91984 18.95 5.83984 17.87 5.83984 16.54C5.83984 16.23 5.89984 15.81 6.00984 15.36C6.11984 14.93 6.42984 13.84 7.00984 13.12C7.20984 12.87 7.54984 12.79 7.83984 12.92C8.08984 13.03 8.38984 13.03 8.64984 12.92C8.93984 12.79 9.27984 12.88 9.47984 13.12C10.0098 13.77 10.3698 14.83 10.5398 15.59C10.5898 15.84 10.6598 16.21 10.6598 16.54C10.6598 17.87 9.57984 18.95 8.24984 18.95ZM7.86984 14.38C7.67984 14.74 7.49984 15.21 7.37984 15.71C7.29984 16.04 7.24984 16.35 7.24984 16.55C7.24984 17.1 7.69984 17.55 8.24984 17.55C8.79984 17.55 9.25984 17.1 9.25984 16.55C9.25984 16.4 9.22984 16.16 9.16984 15.9C9.04984 15.35 8.84984 14.79 8.62984 14.39C8.37984 14.43 8.11984 14.43 7.86984 14.39V14.38Z" fill="white"/> <path d="M12.79 14.4098C11.97 14.4098 10.28 13.9598 9.37 13.2298C9.12 13.0298 9.04 12.6898 9.17 12.3998C9.23 12.2698 9.25 12.1398 9.25 11.9998C9.25 11.8598 9.22 11.7198 9.17 11.5998C9.04 11.3098 9.13 10.9698 9.37 10.7698C10.27 10.0398 11.97 9.58984 12.79 9.58984C14.12 9.58984 15.2 10.6698 15.2 11.9998C15.2 13.3298 14.12 14.4098 12.79 14.4098ZM10.63 12.3798C11.3 12.7398 12.32 12.9998 12.79 12.9998C13.34 12.9998 13.79 12.5498 13.79 11.9998C13.79 11.4498 13.34 10.9998 12.79 10.9998C12.31 10.9998 11.3 11.2598 10.63 11.6198C10.65 11.7398 10.66 11.8698 10.66 11.9998C10.66 12.1298 10.66 12.2598 10.63 12.3798Z" fill="white"/> <path d="M8.24984 14.4094C7.90984 14.4094 7.58984 14.3394 7.27984 14.2094C6.71984 13.9694 6.27984 13.5194 6.03984 12.9694C5.90984 12.6594 5.83984 12.3394 5.83984 11.9994C5.83984 11.6594 5.90984 11.3394 6.03984 11.0294C6.27984 10.4694 6.71984 10.0294 7.27984 9.78941C7.88984 9.51941 8.60984 9.51941 9.21984 9.78941C9.76984 10.0294 10.2198 10.4694 10.4598 11.0294C10.5898 11.3394 10.6598 11.6594 10.6598 11.9994C10.6598 12.3394 10.5898 12.6594 10.4598 12.9694C10.2198 13.5294 9.76984 13.9694 9.21984 14.2094C8.91984 14.3394 8.58984 14.4094 8.24984 14.4094ZM8.24984 10.9994C8.10984 10.9994 7.96984 11.0294 7.84984 11.0794C7.61984 11.1794 7.42984 11.3694 7.32984 11.5994C7.26984 11.7294 7.24984 11.8594 7.24984 11.9994C7.24984 12.1394 7.27984 12.2794 7.32984 12.3994C7.42984 12.6294 7.61984 12.8194 7.84984 12.9194C8.09984 13.0294 8.39984 13.0294 8.65984 12.9194C8.88984 12.8194 9.07984 12.6294 9.17984 12.3994C9.23984 12.2694 9.25984 12.1394 9.25984 11.9994C9.25984 11.8594 9.22984 11.7194 9.17984 11.5994C9.07984 11.3694 8.88984 11.1794 8.65984 11.0794C8.52984 11.0194 8.39984 10.9994 8.25984 10.9994H8.24984Z" fill="white"/> <path d="M22 11.2998H14.5V12.7098H22V11.2998Z" fill="white"/> </g> <defs> <clipPath id="clip0_2085_390652"> <rect width="24" height="24" fill="white"/> </clipPath> </defs> </svg>
