<svg width="24" height="24" viewBox="0 0 24 24" fill="none" xmlns="http://www.w3.org/2000/svg"> <g clip-path="url(#clip0_2085_381767)"> <path d="M11.7999 22.2502C11.6299 22.2502 11.4699 22.1902 11.3299 22.0802L9.98986 20.9802C9.60986 20.6802 9.31986 20.2702 9.16986 19.8002C9.00986 19.3402 8.98986 18.8402 9.10986 18.3602C9.19986 17.9902 9.37986 17.6402 9.61986 17.3502C9.86986 17.0502 10.1799 16.8202 10.5199 16.6602C10.8699 16.5002 11.2499 16.4302 11.6299 16.4302C12.0099 16.4302 12.3899 16.5302 12.7299 16.7002C12.8254 16.7503 12.9399 16.681 12.9399 16.5732V10.5602C12.9399 9.92024 13.1899 9.31023 13.6499 8.86023C14.5599 7.95023 16.1499 7.95023 17.0599 8.86023C17.5199 9.32023 17.7699 9.92023 17.7699 10.5702V14.7659C17.7699 14.8492 17.8301 14.9202 17.9123 14.9337L19.3499 15.1702C20.2999 15.3302 21.1599 15.8202 21.7899 16.5502C22.4099 17.2902 22.7499 18.2202 22.7499 19.1802V21.5102C22.7499 21.9202 22.4099 22.2602 21.9999 22.2602C21.5899 22.2602 21.2499 21.9202 21.2499 21.5102V19.1802C21.2499 18.5702 21.0299 17.9802 20.6399 17.5202C20.2499 17.0602 19.6999 16.7502 19.0999 16.6502L16.8899 16.2802C16.5299 16.2202 16.2599 15.9102 16.2599 15.5402V10.5602C16.2599 10.3202 16.1699 10.0902 15.9899 9.91023C15.6499 9.57023 15.0499 9.57023 14.6999 9.91023C14.5299 10.0802 14.4299 10.3102 14.4299 10.5502V18.0202C14.4299 18.2802 14.2999 18.5202 14.0699 18.6602C13.8499 18.8002 13.5699 18.8102 13.3399 18.6902L12.0399 18.0402C11.8999 17.9702 11.7399 17.9302 11.5799 17.9302C11.4299 17.9302 11.2599 17.9602 11.1199 18.0302C10.9699 18.1002 10.8499 18.1902 10.7499 18.3202C10.6499 18.4402 10.5799 18.5902 10.5399 18.7402C10.4899 18.9402 10.4999 19.1402 10.5599 19.3402C10.6199 19.5302 10.7399 19.7002 10.8999 19.8302L12.2499 20.9302C12.5699 21.1902 12.6199 21.6702 12.3599 21.9902C12.2099 22.1702 11.9999 22.2702 11.7799 22.2702L11.7999 22.2502Z" fill="white"/> <path d="M13.42 5.10986H2C1.59 5.10986 1.25 4.76986 1.25 4.35986C1.25 3.94986 1.59 3.60986 2 3.60986H13.42C13.83 3.60986 14.17 3.94986 14.17 4.35986C14.17 4.76986 13.83 5.10986 13.42 5.10986Z" fill="white"/> <path d="M15.36 6.98C14.84 6.98 14.34 6.83 13.91 6.54C13.48 6.25 13.15 5.85 12.95 5.37C12.75 4.89 12.7 4.37 12.8 3.86C12.9 3.35 13.15 2.89 13.52 2.52C13.88 2.15 14.35 1.91 14.86 1.8C15.37 1.7 15.89 1.75 16.37 1.95C16.85 2.15 17.25 2.48 17.54 2.91C17.83 3.34 17.98 3.85 17.98 4.36C17.98 5.06 17.71 5.71 17.21 6.21C16.72 6.7 16.05 6.98 15.36 6.98ZM15.36 3.25C15.29 3.25 15.21 3.25 15.14 3.27C14.92 3.31 14.72 3.42 14.57 3.57C14.41 3.73 14.31 3.93 14.26 4.14C14.22 4.36 14.24 4.58 14.32 4.78C14.4 4.99 14.55 5.16 14.73 5.28C15.16 5.57 15.78 5.51 16.14 5.14C16.35 4.93 16.47 4.65 16.47 4.35C16.47 4.13 16.41 3.91 16.28 3.73C16.16 3.55 15.98 3.4 15.78 3.32C15.64 3.26 15.5 3.23 15.35 3.23L15.36 3.25Z" fill="white"/> </g> <defs> <clipPath id="clip0_2085_381767"> <rect width="24" height="24" fill="white"/> </clipPath> </defs> </svg>
