<svg width="24" height="24" viewBox="0 0 24 24" fill="none" xmlns="http://www.w3.org/2000/svg"> <g clip-path="url(#clip0_2085_381766)"> <path d="M15.4698 12.15C15.1998 12.15 14.9398 12 14.7998 11.75C14.6098 11.38 14.7498 10.93 15.1098 10.74L15.7198 10.42V5.06L11.5098 2.85L7.2998 5.06V10.42L7.9098 10.74C8.2798 10.93 8.4198 11.39 8.2198 11.75C8.0298 12.12 7.5698 12.26 7.2098 12.06L6.1998 11.53C5.9498 11.4 5.7998 11.14 5.7998 10.87V4.61C5.7998 4.33 5.9498 4.08 6.1998 3.95L11.1598 1.34C11.3798 1.22 11.6398 1.22 11.8598 1.34L16.8198 3.95C17.0698 4.08 17.2198 4.34 17.2198 4.61V10.87C17.2198 11.15 17.0698 11.4 16.8198 11.53L15.8098 12.06C15.6998 12.12 15.5798 12.15 15.4598 12.15H15.4698Z" fill="white"/> <path d="M11.5401 8.1498C11.4201 8.1498 11.2901 8.1198 11.1801 8.0598L6.20015 5.3598C5.84015 5.1598 5.70015 4.7098 5.90015 4.3398C6.10015 3.9798 6.55015 3.8398 6.92015 4.0398L11.5401 6.5398L16.1401 4.0398C16.5001 3.8398 16.8 4.13976 17 4.49976C17.2 4.85976 17.2201 5.1598 16.8601 5.3598L11.9001 8.0598C11.7901 8.1198 11.6601 8.1498 11.5401 8.1498Z" fill="white"/> <path d="M7.99982 22.7502C7.82982 22.7502 7.66982 22.6902 7.52982 22.5802L6.21982 21.5102C5.84982 21.2102 5.55982 20.8102 5.40982 20.3502C5.24982 19.8902 5.23982 19.4002 5.34982 18.9302C5.43982 18.5702 5.61982 18.2202 5.85982 17.9302C6.09982 17.6402 6.39982 17.4102 6.74982 17.2502C7.08982 17.0902 7.45982 17.0202 7.83982 17.0202C8.21982 17.0202 8.58982 17.1202 8.91982 17.2902C9.00808 17.332 9.10981 17.2676 9.10981 17.17V11.2902C9.10981 10.6602 9.35982 10.0602 9.80982 9.6102C10.6898 8.7302 12.2798 8.7302 13.1598 9.6102C13.6098 10.0602 13.8598 10.6602 13.8598 11.2902V15.3766C13.8598 15.4595 13.9196 15.5304 14.0013 15.5442L15.3898 15.7802C16.3198 15.9302 17.1698 16.4202 17.7798 17.1402C18.3898 17.8602 18.7298 18.7802 18.7298 19.7202V22.0002C18.7298 22.4102 18.3898 22.7502 17.9798 22.7502C17.5698 22.7502 17.2298 22.4102 17.2298 22.0002V19.7202C17.2298 19.1302 17.0198 18.5602 16.6398 18.1102C16.2598 17.6602 15.7298 17.3602 15.1498 17.2602L12.9898 16.9002C12.6298 16.8402 12.3598 16.5302 12.3598 16.1602V11.2902C12.3598 11.0602 12.2698 10.8402 12.0998 10.6702C11.7798 10.3502 11.1898 10.3502 10.8698 10.6702C10.6998 10.8402 10.6098 11.0502 10.6098 11.2902V18.5902C10.6098 18.8502 10.4798 19.0902 10.2498 19.2302C10.0298 19.3702 9.74982 19.3802 9.51982 19.2602L8.24982 18.6202C8.11982 18.5502 7.95982 18.5202 7.80982 18.5102C7.65982 18.5102 7.50982 18.5402 7.36982 18.6002C7.22982 18.6602 7.10982 18.7602 7.00982 18.8802C6.90982 19.0002 6.83982 19.1402 6.79982 19.2902C6.74982 19.4802 6.75982 19.6802 6.81982 19.8602C6.87982 20.0502 6.99982 20.2102 7.14982 20.3302L8.46982 21.4102C8.78982 21.6702 8.83982 22.1402 8.57982 22.4702C8.42982 22.6502 8.21982 22.7502 7.99982 22.7502Z" fill="white"/> </g> <defs> <clipPath id="clip0_2085_381766"> <rect width="24" height="24" fill="white"/> </clipPath> </defs> </svg>
