<svg width="24" height="24" viewBox="0 0 24 24" fill="none" xmlns="http://www.w3.org/2000/svg"> <g clip-path="url(#clip0_2085_381769)"> <path d="M2.67006 8.54017C2.61006 8.54017 2.54006 8.54017 2.48006 8.51017C2.08006 8.40017 1.84006 7.99017 1.95006 7.59017L2.44006 5.77017C2.49006 5.58017 2.62006 5.41017 2.79006 5.31017C2.96006 5.21017 3.17006 5.18017 3.36006 5.23017L4.46006 5.52017L4.75006 4.42017C4.86006 4.02017 5.27006 3.79017 5.67006 3.89017L6.77006 4.18017L7.06006 3.08017C7.17006 2.68017 7.58006 2.45017 7.98006 2.55017L9.80006 3.04017C10.2001 3.15017 10.4401 3.56017 10.3301 3.96017C10.2201 4.36017 9.81006 4.60017 9.41006 4.49017L8.31006 4.20017L8.02006 5.30017C7.91006 5.70017 7.50006 5.94017 7.10006 5.83017L6.00006 5.54017L5.71006 6.64017C5.60006 7.04017 5.19006 7.28017 4.79006 7.17017L3.69006 6.88017L3.40006 7.98017C3.31006 8.31017 3.01006 8.54017 2.68006 8.54017H2.67006Z" fill="white"/> <path d="M21.3701 8.53987C21.0401 8.53987 20.7401 8.31987 20.6501 7.97987L20.3601 6.87987L19.2601 7.16987C19.0701 7.21987 18.8601 7.18987 18.6901 7.08987C18.5201 6.98987 18.3901 6.82987 18.3401 6.62987L18.0501 5.52987L16.9501 5.81987C16.5501 5.91987 16.1401 5.68987 16.0301 5.28987L15.7401 4.18987L14.6401 4.47987C14.2401 4.57987 13.8301 4.34987 13.7201 3.94987C13.6101 3.54987 13.8501 3.13987 14.2501 3.02987L16.0701 2.53987C16.2601 2.48987 16.4701 2.51987 16.6401 2.61987C16.8101 2.71987 16.9401 2.87987 16.9901 3.07987L17.2801 4.17987L18.3801 3.88987C18.7801 3.77987 19.1901 4.01987 19.3001 4.41987L19.5901 5.51987L20.6901 5.22987C21.0901 5.12987 21.5001 5.35987 21.6101 5.75987L22.1001 7.57987C22.2101 7.97987 21.9701 8.38987 21.5701 8.49987C21.5101 8.51987 21.4401 8.52987 21.3801 8.52987L21.3701 8.53987Z" fill="white"/> <path d="M18.0002 22.7502H15.0002C14.5002 22.7502 14.0202 22.5102 13.7202 22.1102L12.217 20.2083C12.1089 20.0715 11.9014 20.0715 11.7933 20.2083L10.2902 22.1102C9.98018 22.5102 9.50018 22.7502 9.00018 22.7502H6.00018C4.17018 22.7502 2.68018 21.2602 2.68018 19.4302V13.2802C2.68018 12.6202 2.95018 11.9902 3.41018 11.5302L4.97018 9.97023C5.44018 9.50023 6.06018 9.24023 6.71018 9.24023H17.2902C17.9402 9.24023 18.5802 9.51023 19.0302 9.97023L20.6002 11.5402C21.0602 12.0002 21.3302 12.6402 21.3302 13.2802V19.4302C21.3302 21.2602 19.8402 22.7502 18.0102 22.7502H18.0002ZM12.0002 18.4002C12.5102 18.4002 12.9702 18.6302 13.2802 19.0402L14.8305 21.1041C14.8807 21.171 14.9592 21.2109 15.0429 21.212L18.0002 21.2502C19.0002 21.2502 19.8202 20.4302 19.8202 19.4302V13.2802C19.8202 13.0302 19.7202 12.7802 19.5302 12.6002L17.9602 11.0302C17.7902 10.8502 17.5402 10.7402 17.2902 10.7402H6.71018C6.46018 10.7402 6.22018 10.8402 6.03018 11.0302L4.46018 12.6002C4.28018 12.7802 4.17018 13.0202 4.17018 13.2802V19.4302C4.17018 20.4302 4.99018 21.2502 5.99018 21.2502H8.8577C8.94126 21.2502 9.02011 21.2115 9.07124 21.1455L10.7002 19.0402C11.0102 18.6302 11.4802 18.4002 11.9902 18.4002H12.0002Z" fill="white"/> <path d="M17.1301 14.1802H6.8501C6.4401 14.1802 6.1001 13.8402 6.1001 13.4302C6.1001 13.0202 6.4401 12.6802 6.8501 12.6802H17.1401C17.5501 12.6802 17.8901 13.0202 17.8901 13.4302C17.8901 13.8402 17.5501 14.1802 17.1401 14.1802H17.1301Z" fill="white"/> </g> <defs> <clipPath id="clip0_2085_381769"> <rect width="24" height="24" fill="white"/> </clipPath> </defs> </svg>
