<svg width="24" height="24" viewBox="0 0 24 24" fill="none" xmlns="http://www.w3.org/2000/svg"> <g clip-path="url(#clip0_4482_15581)"> <path d="M5 14.75C4.59 14.75 4.25 14.41 4.25 14V10C4.25 9.59 4.59 9.25 5 9.25C5.41 9.25 5.75 9.59 5.75 10V14C5.75 14.41 5.41 14.75 5 14.75Z" fill="white"/> <path d="M8 14.75C7.59 14.75 7.25 14.41 7.25 14V10C7.25 9.59 7.59 9.25 8 9.25C8.41 9.25 8.75 9.59 8.75 10V14C8.75 14.41 8.41 14.75 8 14.75Z" fill="white"/> <path d="M8 12.75H5C4.59 12.75 4.25 12.41 4.25 12C4.25 11.59 4.59 11.25 5 11.25H8C8.41 11.25 8.75 11.59 8.75 12C8.75 12.41 8.41 12.75 8 12.75Z" fill="white"/> <path d="M16 14.75C15.59 14.75 15.25 14.41 15.25 14V10C15.25 9.59 15.59 9.25 16 9.25C16.41 9.25 16.75 9.59 16.75 10V14C16.75 14.41 16.41 14.75 16 14.75Z" fill="white"/> <path d="M18.6795 14.7498C18.4395 14.7498 18.1995 14.6298 18.0595 14.4198L17.0595 12.9198C16.8295 12.5798 16.9195 12.1098 17.2695 11.8798C17.6095 11.6498 18.0795 11.7398 18.3095 12.0898L19.3095 13.5898C19.5395 13.9298 19.4495 14.3998 19.0995 14.6298C18.9695 14.7098 18.8295 14.7599 18.6795 14.7599V14.7498Z" fill="white"/> <path d="M12 14.75H10.5C10.09 14.75 9.75 14.41 9.75 14V10C9.75 9.59 10.09 9.25 10.5 9.25H12C13.24 9.25 14.25 10.26 14.25 11.5V12.5C14.25 13.74 13.24 14.75 12 14.75ZM11.25 13.25H12C12.41 13.25 12.75 12.91 12.75 12.5V11.5C12.75 11.09 12.41 10.75 12 10.75H11.25V13.25Z" fill="white"/> <path d="M12 22.75C6.07 22.75 1.25 17.93 1.25 12C1.25 6.07 6.07 1.25 12 1.25C17.93 1.25 22.75 6.07 22.75 12C22.75 17.93 17.93 22.75 12 22.75ZM12 2.75C6.9 2.75 2.75 6.9 2.75 12C2.75 17.1 6.9 21.25 12 21.25C17.1 21.25 21.25 17.1 21.25 12C21.25 6.9 17.1 2.75 12 2.75Z" fill="white"/> <path d="M17.75 13.25H16C15.59 13.25 15.25 12.91 15.25 12.5V10C15.25 9.59 15.59 9.25 16 9.25H17.75C18.85 9.25 19.75 10.15 19.75 11.25C19.75 12.35 18.85 13.25 17.75 13.25ZM16.75 11.75H17.75C18.03 11.75 18.25 11.53 18.25 11.25C18.25 10.97 18.03 10.75 17.75 10.75H16.75V11.75Z" fill="white"/> </g> <defs> <clipPath id="clip0_4482_15581"> <rect width="24" height="24" fill="white"/> </clipPath> </defs> </svg>
