<svg width="24" height="24" viewBox="0 0 24 24" fill="none" xmlns="http://www.w3.org/2000/svg"> <g clip-path="url(#clip0_4482_8862)"> <path d="M16.4398 18.31H7.55984C6.76984 18.31 6.01984 18.01 5.45984 17.45C4.89984 16.89 4.58984 16.15 4.58984 15.37V8.63995C4.58984 7.01995 5.91984 5.69995 7.55984 5.69995H16.4498C18.0898 5.69995 19.4198 7.01995 19.4198 8.63995V15.37C19.4198 16.99 18.0898 18.31 16.4498 18.31H16.4398ZM7.55984 7.18995C6.74984 7.18995 6.08984 7.83995 6.08984 8.62995V15.36C6.08984 15.74 6.23984 16.1 6.51984 16.38C6.79984 16.65 7.16984 16.81 7.56984 16.81H16.4598C17.2698 16.81 17.9298 16.16 17.9298 15.37V8.63995C17.9298 7.84995 17.2698 7.19995 16.4598 7.19995H7.55984V7.18995Z" fill="white"/> <path d="M7.56028 7.04C7.50028 7.04 7.43028 7.04 7.37028 7.02C6.97028 6.92 6.73028 6.51 6.83028 6.11L7.94028 1.82C8.02028 1.49 8.32028 1.25 8.67028 1.25H15.3303C15.6703 1.25 15.9703 1.48 16.0603 1.81L17.1703 6.1C17.2703 6.5 17.0303 6.91 16.6303 7.01C16.2303 7.11 15.8203 6.87 15.7203 6.47L14.7503 2.75H9.25028L8.28028 6.47C8.19028 6.81 7.89029 7.03 7.55029 7.03L7.56028 7.04Z" fill="white"/> <path d="M15.3295 22.75H8.65954C8.31954 22.75 8.01954 22.52 7.92954 22.19L6.81954 17.9C6.71954 17.5 6.95954 17.09 7.35954 16.99C7.75954 16.89 8.16954 17.13 8.26954 17.53L9.23954 21.25H14.7395L15.7095 17.53C15.8095 17.13 16.2195 16.89 16.6195 16.99C17.0195 17.09 17.2595 17.5 17.1595 17.9L16.0495 22.19C15.9595 22.52 15.6695 22.75 15.3195 22.75H15.3295Z" fill="white"/> <path d="M12.0001 14.97C11.6001 14.97 8.58008 13.42 8.58008 11.37C8.58008 10.24 9.51008 9.02002 10.9001 9.02002C11.2901 9.02002 11.6701 9.12002 12.0001 9.30002C12.3301 9.12002 12.7001 9.02002 13.1001 9.02002C14.4901 9.02002 15.4201 10.23 15.4201 11.37C15.4201 13.41 12.4001 14.97 12.0001 14.97ZM10.9001 10.52C10.3701 10.52 10.0801 11.02 10.0801 11.37C10.0801 12.1 11.2901 12.99 12.0001 13.38C12.7101 12.99 13.9201 12.09 13.9201 11.37C13.9201 11.02 13.6301 10.52 13.1001 10.52C12.8801 10.52 12.7001 10.6 12.5601 10.75C12.4201 10.9 12.2201 10.99 12.0101 10.99C11.8001 10.99 11.6001 10.9 11.4601 10.74C11.3201 10.59 11.1401 10.51 10.9201 10.51L10.9001 10.52Z" fill="white"/> </g> <defs> <clipPath id="clip0_4482_8862"> <rect width="24" height="24" fill="white"/> </clipPath> </defs> </svg>
