<svg width="24" height="24" viewBox="0 0 24 24" fill="none" xmlns="http://www.w3.org/2000/svg"> <g clip-path="url(#clip0_4482_8855)"> <path d="M19.2204 8.31C17.2704 8.31 15.6904 6.73 15.6904 4.78C15.6904 2.83 17.2704 1.25 19.2204 1.25C21.1704 1.25 22.7504 2.83 22.7504 4.78C22.7504 6.73 21.1704 8.31 19.2204 8.31ZM19.2204 2.75C18.1004 2.75 17.1904 3.66 17.1904 4.78C17.1904 5.9 18.1004 6.81 19.2204 6.81C20.3404 6.81 21.2504 5.9 21.2504 4.78C21.2504 3.66 20.3404 2.75 19.2204 2.75Z" fill="white"/> <path d="M17 22.75H7C3.83 22.75 1.25 20.17 1.25 17V7C1.25 3.83 3.83 1.25 7 1.25H13.11C13.52 1.25 13.86 1.59 13.86 2C13.86 2.41 13.52 2.75 13.11 2.75H7C4.66 2.75 2.75 4.66 2.75 7V17C2.75 19.34 4.66 21.25 7 21.25H17C19.34 21.25 21.25 19.34 21.25 17V10.89C21.25 10.48 21.59 10.14 22 10.14C22.41 10.14 22.75 10.48 22.75 10.89V17C22.75 20.17 20.17 22.75 17 22.75Z" fill="white"/> <path d="M13.1102 15.25C13.1102 15.25 13.0702 15.25 13.0502 15.25C12.7802 15.23 12.5402 15.06 12.4302 14.81L10.7602 11.06L9.8502 12.43C9.7102 12.64 9.4802 12.76 9.2302 12.76H6.4502C6.0402 12.76 5.7002 12.42 5.7002 12.01C5.7002 11.6 6.0402 11.26 6.4502 11.26H8.8302L10.2702 9.09001C10.4202 8.86001 10.6902 8.73001 10.9602 8.76001C11.2302 8.78001 11.4702 8.95001 11.5802 9.20001L13.2502 12.95L14.1602 11.58C14.3002 11.37 14.5302 11.25 14.7802 11.25H17.5602C17.9702 11.25 18.3102 11.59 18.3102 12C18.3102 12.41 17.9702 12.75 17.5602 12.75H15.1802L13.7402 14.92C13.6002 15.13 13.3702 15.25 13.1202 15.25H13.1102Z" fill="white"/> </g> <defs> <clipPath id="clip0_4482_8855"> <rect width="24" height="24" fill="white"/> </clipPath> </defs> </svg>
