<svg width="24" height="24" viewBox="0 0 24 24" fill="none" xmlns="http://www.w3.org/2000/svg"> <g clip-path="url(#clip0_4482_8861)"> <path d="M8.17979 22.75C7.97979 22.75 7.76979 22.71 7.58979 22.62C7.11979 22.4 6.81979 21.91 6.81979 21.39V19.42C3.73979 19.32 1.25979 16.78 1.25979 13.67V7C1.24979 3.83 3.82979 1.25 6.99979 1.25H16.9998C20.1698 1.25 22.7498 3.83 22.7498 7V13.67C22.7498 16.84 20.1698 19.42 16.9998 19.42H12.8298L9.03979 22.45C8.79979 22.65 8.48979 22.75 8.18979 22.75H8.17979ZM6.99979 2.75C4.65979 2.75 2.74979 4.66 2.74979 7V13.67C2.74979 16.01 4.65979 17.92 6.99979 17.92H7.55979C7.96979 17.92 8.30979 18.26 8.30979 18.67V21.11L12.0898 18.09C12.2198 17.98 12.3898 17.93 12.5598 17.93H16.9998C19.3398 17.93 21.2498 16.02 21.2498 13.68V7C21.2498 4.66 19.3398 2.75 16.9998 2.75H6.99979Z" fill="white"/> <path d="M12.8301 15.53H11.1601C10.2901 15.53 9.58008 14.82 9.58008 13.95V13.03H8.66008C7.79008 13.03 7.08008 12.32 7.08008 11.45V9.77995C7.08008 8.90995 7.79008 8.19995 8.66008 8.19995H9.58008V7.27995C9.58008 6.40995 10.2901 5.69995 11.1601 5.69995H12.8301C13.7001 5.69995 14.4101 6.40995 14.4101 7.27995V8.19995H15.3301C16.2001 8.19995 16.9101 8.90995 16.9101 9.77995V11.45C16.9101 12.32 16.2001 13.03 15.3301 13.03H14.4101V13.95C14.4101 14.82 13.7001 15.53 12.8301 15.53ZM8.66008 9.69995C8.66008 9.69995 8.58008 9.73995 8.58008 9.77995V11.45C8.58008 11.45 8.62008 11.53 8.66008 11.53H10.3301C10.7401 11.53 11.0801 11.87 11.0801 12.28V13.95C11.0801 13.95 11.1201 14.03 11.1601 14.03H12.8301C12.8301 14.03 12.9101 13.99 12.9101 13.95V12.28C12.9101 11.87 13.2501 11.53 13.6601 11.53H15.3301C15.3301 11.53 15.4101 11.49 15.4101 11.45V9.77995C15.4101 9.77995 15.3701 9.69995 15.3301 9.69995H13.6601C13.2501 9.69995 12.9101 9.35995 12.9101 8.94995V7.27995C12.9101 7.27995 12.8701 7.19995 12.8301 7.19995H11.1601C11.1601 7.19995 11.0801 7.23995 11.0801 7.27995V8.94995C11.0801 9.35995 10.7401 9.69995 10.3301 9.69995H8.66008Z" fill="white"/> </g> <defs> <clipPath id="clip0_4482_8861"> <rect width="24" height="24" fill="white"/> </clipPath> </defs> </svg>
