<svg width="24" height="24" viewBox="0 0 24 24" fill="none" xmlns="http://www.w3.org/2000/svg"> <g clip-path="url(#clip0_2085_390480)"> <path d="M15.5898 20.2299C15.0698 20.2299 14.5998 19.9299 14.3598 19.4699L14.0698 18.9199L13.5698 18.6799C13.1098 18.4399 12.8198 17.9599 12.8198 17.4399C12.8198 16.9199 13.1098 16.4399 13.5698 16.1999L14.1098 15.9199L14.3498 15.4199C14.5898 14.9599 15.0698 14.6699 15.5898 14.6699C16.1098 14.6699 16.5898 14.9599 16.8298 15.4199L17.1198 15.9699L17.6198 16.2099C18.0798 16.4499 18.3698 16.9299 18.3698 17.4499C18.3698 17.9699 18.0798 18.4499 17.6198 18.6899L17.0998 18.9599L16.8298 19.4799C16.5898 19.9399 16.1098 20.2299 15.5898 20.2299ZM14.4398 17.4399L14.8198 17.6399C15.0798 17.7699 15.2798 17.9799 15.4098 18.2399L15.5998 18.6099L15.7998 18.2299C15.9298 17.9799 16.1398 17.7699 16.3898 17.6399L16.7698 17.4399L16.3898 17.2399C16.1298 17.1099 15.9298 16.8999 15.7998 16.6499L15.5998 16.2699L15.3998 16.6499C15.2698 16.8999 15.0598 17.1099 14.7998 17.2499L14.4298 17.4399H14.4398Z" fill="white"/> <path d="M5.23996 8.84004C4.71996 8.84004 4.23996 8.55004 3.99996 8.09004L3.70996 7.54004L3.20996 7.30004C2.74996 7.06004 2.45996 6.58004 2.45996 6.06004C2.45996 5.54004 2.74996 5.06004 3.20996 4.82004L3.74996 4.54004L3.98996 4.04004C4.22996 3.58004 4.70996 3.29004 5.22996 3.29004C5.74996 3.29004 6.22996 3.58004 6.46996 4.04004L6.75996 4.59004L7.25996 4.83004C7.71996 5.07004 8.00996 5.54004 8.00996 6.07004C8.00996 6.59004 7.71996 7.07004 7.25996 7.31004L6.73996 7.58004L6.46996 8.10004C6.22996 8.56004 5.74996 8.85004 5.22996 8.85004L5.23996 8.84004ZM4.07996 6.06004L4.45996 6.26004C4.71996 6.40004 4.91996 6.60004 5.04996 6.86004L5.24996 7.24004L5.44996 6.86004C5.57996 6.61004 5.78996 6.40004 6.03996 6.27004L6.41996 6.07004L6.03996 5.87004C5.77996 5.73004 5.57996 5.53004 5.44996 5.27004L5.25996 4.90004L5.05996 5.28004C4.92996 5.53004 4.71996 5.74004 4.46996 5.87004L4.08996 6.07004L4.07996 6.06004Z" fill="white"/> <path d="M9.81993 20.7304C9.35993 20.7304 8.90993 20.6304 8.48993 20.4204C8.05993 20.2104 7.62993 19.9704 7.20993 19.7104L5.99993 18.8704C3.07993 16.6304 1.36993 13.7504 1.25993 10.9404C1.18993 9.03036 2.14993 7.26036 3.78993 6.31036C4.14993 6.10036 4.60993 6.22036 4.81993 6.58036C5.02993 6.94036 4.90993 7.40036 4.54993 7.61036C3.39993 8.28036 2.70993 9.53036 2.76993 10.8904C2.85993 13.2104 4.39993 15.7404 6.89993 17.6604L8.04993 18.4604C8.38993 18.6704 8.77993 18.8904 9.15993 19.0704C9.58993 19.2804 10.0799 19.2804 10.5099 19.0704C11.4599 18.6004 12.4099 17.9804 13.2499 17.2804C13.5699 17.0104 14.0399 17.0504 14.3099 17.3704C14.5799 17.6904 14.5399 18.1604 14.2199 18.4304C13.2899 19.2204 12.2399 19.9104 11.1799 20.4204C10.7599 20.6304 10.2999 20.7304 9.84993 20.7304H9.81993Z" fill="white"/> <path d="M9.81988 8.67965C9.43988 8.67965 9.07988 8.51965 8.82988 8.24965C8.32988 7.70965 7.68988 7.34965 6.96988 7.20965C6.55988 7.12965 6.29988 6.72965 6.38988 6.31965C6.47988 5.90965 6.86988 5.64965 7.26988 5.73965C8.23988 5.93965 9.11988 6.40965 9.81988 7.11965C10.7399 6.18965 11.9499 5.66965 13.2599 5.63965C13.6799 5.65965 14.0199 5.95965 14.0299 6.36965C14.0299 6.77965 13.7099 7.12965 13.2999 7.13965C12.3499 7.15965 11.4699 7.55965 10.8199 8.24965C10.5699 8.51965 10.1999 8.67965 9.82988 8.67965H9.81988Z" fill="white"/> <path d="M15.91 16.2402C15.76 16.2402 15.61 16.1902 15.47 16.1002C15.13 15.8602 15.06 15.3902 15.3 15.0502C16.13 13.9002 16.64 12.7202 16.81 11.5502C16.87 11.1402 17.25 10.8602 17.66 10.9202C18.07 10.9802 18.35 11.3602 18.29 11.7702C18.08 13.1802 17.48 14.5702 16.51 15.9202C16.36 16.1202 16.13 16.2302 15.9 16.2302L15.91 16.2402Z" fill="white"/> <path d="M9.81998 14.7501C8.93998 14.7501 8.22998 13.9901 8.22998 13.0601C8.22998 12.1301 8.93998 11.3701 9.81998 11.3701C10.7 11.3701 11.41 12.1301 11.41 13.0601C11.41 13.9901 10.7 14.7501 9.81998 14.7501ZM9.81998 12.8801C9.81998 12.8801 9.72998 12.9401 9.72998 13.0701C9.72998 13.3201 9.89998 13.3201 9.89998 13.0701C9.89998 12.9501 9.82998 12.8801 9.80998 12.8801H9.81998Z" fill="white"/> <path d="M6.6499 13.1802C6.2399 13.1802 5.8999 12.8402 5.8999 12.4302V11.9502C5.8999 11.5402 6.2399 11.2002 6.6499 11.2002C7.0599 11.2002 7.3999 11.5402 7.3999 11.9502V12.4302C7.3999 12.8402 7.0599 13.1802 6.6499 13.1802Z" fill="white"/> <path d="M12.98 13.1802C12.57 13.1802 12.23 12.8402 12.23 12.4302V11.9502C12.23 11.5402 12.57 11.2002 12.98 11.2002C13.39 11.2002 13.73 11.5402 13.73 11.9502V12.4302C13.73 12.8402 13.39 13.1802 12.98 13.1802Z" fill="white"/> <path d="M17.63 12.4201C17.33 12.4201 17.03 12.3501 16.75 12.2201C15.95 11.8301 15.18 11.2901 14.53 10.6501C14.31 10.4301 14.11 10.2101 13.92 9.98008C13.72 9.73008 13.53 9.48008 13.37 9.22008C13.11 8.79008 12.92 8.39008 12.78 8.00008C12.78 8.00008 12.75 7.91008 12.75 7.90008C12.71 7.78008 12.68 7.66008 12.65 7.54008C12.58 7.23008 12.53 6.92008 12.52 6.63008C12.52 6.62008 12.52 6.52008 12.52 6.51008C12.52 6.40008 12.52 6.30008 12.54 6.19008C12.56 6.00008 12.59 5.84008 12.63 5.68008C12.64 5.61008 12.68 5.50008 12.72 5.40008C12.74 5.36008 12.76 5.30008 12.79 5.24008C12.79 5.24008 12.76 5.31008 12.75 5.33008C12.76 5.30008 12.78 5.26008 12.79 5.23008C12.83 5.13008 12.89 5.03008 12.95 4.93008C12.95 4.91008 12.97 4.89008 12.98 4.87008C13.3 4.33008 13.78 3.89008 14.36 3.62008C14.39 3.61008 14.43 3.59008 14.47 3.58008C14.55 3.55008 14.62 3.52008 14.69 3.50008C14.98 3.41008 15.28 3.36008 15.6 3.34008C16.36 3.34008 17.07 3.60008 17.63 4.05008C18.19 3.59008 18.9 3.33008 19.64 3.33008C20.11 3.34008 20.52 3.44008 20.89 3.61008C21.47 3.88008 21.95 4.32008 22.28 4.87008C22.6141 5.38971 22.73 5.99316 22.73 6.60008C22.73 6.60008 22.73 6.62008 22.73 6.63008C22.64 9.09008 20.54 11.2101 18.51 12.2101C18.22 12.3501 17.91 12.4201 17.61 12.4201H17.63ZM14.01 6.51008C14.01 6.77008 14.05 6.98008 14.1 7.20008C14.12 7.29008 14.15 7.37008 14.17 7.46008C14.29 7.81008 14.44 8.12008 14.64 8.45008C14.76 8.65008 14.91 8.84008 15.06 9.02008C15.21 9.20008 15.39 9.40008 15.58 9.58008C16.11 10.1001 16.74 10.5401 17.4 10.8701C17.54 10.9401 17.72 10.9401 17.87 10.8701C19.43 10.1001 21.16 8.42008 21.24 6.59008C21.24 6.26149 21.2143 5.95673 21.03 5.67008C20.84 5.35008 20.59 5.13008 20.28 4.98008C20.1 4.89008 19.88 4.85008 19.64 4.84008C19.25 4.84008 18.86 4.98008 18.57 5.24008L18.48 5.33008C18.23 5.59008 17.89 5.69008 17.64 5.70008C17.35 5.70008 17.06 5.57008 16.86 5.35008C16.55 5.02008 16.11 4.83008 15.65 4.83008C15.49 4.83008 15.32 4.87008 15.17 4.91008C15.13 4.93008 15.06 4.95008 15 4.97008C14.4216 5.2593 14.01 5.85562 14.01 6.51008Z" fill="white"/> </g> <defs> <clipPath id="clip0_2085_390480"> <rect width="24" height="24" fill="white"/> </clipPath> </defs> </svg>
