<svg width="24" height="24" viewBox="0 0 24 24" fill="none" xmlns="http://www.w3.org/2000/svg"> <g clip-path="url(#clip0_4482_8858)"> <path d="M12 21.64C9.75 21.64 1.25 16.48 1.25 9.50999C1.25 6.05999 3.92 2.35999 7.89 2.35999C9.77 2.35999 11.11 3.11999 12 3.92999C12.89 3.11999 14.23 2.35999 16.11 2.35999C20.08 2.35999 22.75 6.04999 22.75 9.49999C22.75 16.47 14.25 21.63 12 21.63V21.64ZM7.89 3.85999C4.81 3.85999 2.75 6.77999 2.75 9.49999C2.75 15.6 10.51 20.13 12 20.13C13.49 20.13 21.25 15.59 21.25 9.49999C21.25 6.76999 19.18 3.85999 16.11 3.85999C14.34 3.85999 13.21 4.74999 12.57 5.49999C12.28 5.82999 11.71 5.82999 11.43 5.49999C10.79 4.74999 9.66 3.85999 7.89 3.85999Z" fill="white"/> <path d="M11.2005 14.7599C11.0005 14.7599 10.8105 14.6799 10.6705 14.5399L8.26047 12.1299C7.97047 11.8399 7.97047 11.3599 8.26047 11.0699C8.55047 10.7799 9.03047 10.7799 9.32047 11.0699L11.2005 12.9499L14.6805 9.46994C14.9705 9.17994 15.4505 9.17994 15.7405 9.46994C16.0305 9.75994 16.0305 10.2399 15.7405 10.5299L11.7305 14.5399C11.5905 14.6799 11.4005 14.7599 11.2005 14.7599Z" fill="white"/> </g> <defs> <clipPath id="clip0_4482_8858"> <rect width="24" height="24" fill="white"/> </clipPath> </defs> </svg>
