<svg width="24" height="24" viewBox="0 0 24 24" fill="none" xmlns="http://www.w3.org/2000/svg"> <g clip-path="url(#clip0_2085_386402)"> <path d="M18.0498 18.3804H7.17977C5.24977 18.3804 3.53977 17.1504 2.92977 15.3104L1.28977 10.4004C1.22977 10.2104 1.23977 10.0004 1.32977 9.83043L3.81977 4.85043C3.94977 4.60043 4.20977 4.44043 4.48977 4.44043H6.97977C7.17977 4.44043 7.36977 4.52043 7.50977 4.66043L9.99977 7.15043C10.2898 7.44043 10.2898 7.92043 9.99977 8.21043C9.70977 8.50043 9.22977 8.50043 8.93977 8.21043L6.66977 5.94043H4.95977L2.81977 10.2304L4.35977 14.8504C4.76977 16.0704 5.89977 16.8904 7.18977 16.8904H18.0598C19.7098 16.8904 21.2598 15.2704 21.2598 14.5304C21.2598 13.9104 20.7598 13.4104 20.1398 13.4104H19.5198C19.1098 13.4104 18.7698 13.0704 18.7698 12.6604C18.7698 11.7004 17.9898 10.9204 17.0298 10.9204H9.47977C9.06977 10.9204 8.72977 10.5804 8.72977 10.1704C8.72977 9.76043 9.06977 9.42043 9.47977 9.42043H17.0298C18.5598 9.42043 19.8398 10.4804 20.1798 11.9104C21.5998 11.9304 22.7598 13.1004 22.7598 14.5304C22.7598 16.1804 20.4398 18.3904 18.0598 18.3904L18.0498 18.3804Z" fill="white"/> <path d="M9.47023 10.9099H5.74023C5.33023 10.9099 4.99023 10.5699 4.99023 10.1599V7.66992C4.99023 7.25992 5.33023 6.91992 5.74023 6.91992H9.47023C10.5702 6.91992 11.4602 7.81992 11.4602 8.90992C11.4602 9.99992 10.5602 10.9099 9.47023 10.9099ZM6.48023 9.40992H9.46023C9.73023 9.40992 9.95023 9.18992 9.95023 8.90992C9.95023 8.62992 9.73023 8.41992 9.46023 8.41992H6.48023V9.40992Z" fill="white"/> <path d="M9.47 3.44043H2C1.59 3.44043 1.25 3.10043 1.25 2.69043C1.25 2.28043 1.59 1.94043 2 1.94043H9.47C9.88 1.94043 10.22 2.28043 10.22 2.69043C10.22 3.10043 9.88 3.44043 9.47 3.44043Z" fill="white"/> <path d="M5.72998 5.93043C5.31998 5.93043 4.97998 5.59043 4.97998 5.18043V2.69043C4.97998 2.28043 5.31998 1.94043 5.72998 1.94043C6.13998 1.94043 6.47998 2.28043 6.47998 2.69043V5.18043C6.47998 5.59043 6.13998 5.93043 5.72998 5.93043Z" fill="white"/> <path d="M17.0198 10.9099H14.5298C14.1198 10.9099 13.7798 10.5699 13.7798 10.1599V8.90992C13.7798 7.80992 14.6798 6.91992 15.7798 6.91992H17.0198C17.4298 6.91992 17.7698 7.25992 17.7698 7.66992V10.1599C17.7698 10.5699 17.4298 10.9099 17.0198 10.9099ZM15.2798 9.40992H16.2698V8.41992H15.7798C15.5098 8.41992 15.2798 8.63992 15.2798 8.90992V9.40992Z" fill="white"/> <path d="M19.51 5.92969H12.04C11.63 5.92969 11.29 5.58969 11.29 5.17969C11.29 4.76969 11.63 4.42969 12.04 4.42969H19.51C19.92 4.42969 20.26 4.76969 20.26 5.17969C20.26 5.58969 19.92 5.92969 19.51 5.92969Z" fill="white"/> <path d="M15.7798 8.41969C15.3698 8.41969 15.0298 8.07969 15.0298 7.66969V5.17969C15.0298 4.76969 15.3698 4.42969 15.7798 4.42969C16.1898 4.42969 16.5298 4.76969 16.5298 5.17969V7.66969C16.5298 8.07969 16.1898 8.41969 15.7798 8.41969Z" fill="white"/> <path d="M19.51 13.3999H15.78C15.5 13.3999 15.24 13.2399 15.11 12.9899L13.86 10.4999C13.67 10.1299 13.82 9.67993 14.2 9.48993C14.57 9.30993 15.02 9.44993 15.21 9.82993L16.25 11.8999H19.52C19.93 11.8999 20.27 12.2399 20.27 12.6499C20.27 13.0599 19.93 13.3999 19.52 13.3999H19.51Z" fill="white"/> <path d="M8.21998 14.6504H6.97998C6.56998 14.6504 6.22998 14.3104 6.22998 13.9004C6.22998 13.4904 6.56998 13.1504 6.97998 13.1504H8.21998C8.62998 13.1504 8.96998 13.4904 8.96998 13.9004C8.96998 14.3104 8.62998 14.6504 8.21998 14.6504Z" fill="white"/> <path d="M4.49023 22.1199C3.39023 22.1199 2.49023 21.2199 2.49023 20.1199C2.49023 19.0199 3.39023 18.1299 4.49023 18.1299C5.59023 18.1299 6.48023 19.0299 6.48023 20.1199C6.48023 21.2099 5.59023 22.1199 4.49023 22.1199ZM4.49023 19.6299C4.22023 19.6299 3.99023 19.8499 3.99023 20.1199C3.99023 20.3899 4.21023 20.6199 4.49023 20.6199C4.77023 20.6199 4.98023 20.3999 4.98023 20.1199C4.98023 19.8399 4.76023 19.6299 4.49023 19.6299Z" fill="white"/> <path d="M5.37006 19.9903C5.18006 19.9903 4.99006 19.9203 4.84006 19.7703C4.55006 19.4803 4.55006 19.0003 4.84006 18.7103L6.45006 17.1003C6.74006 16.8103 7.22006 16.8103 7.51006 17.1003C7.80006 17.3903 7.80006 17.8703 7.51006 18.1603L5.90006 19.7703C5.75006 19.9203 5.56006 19.9903 5.37006 19.9903Z" fill="white"/> <path d="M19.51 22.1199C18.41 22.1199 17.52 21.2199 17.52 20.1199C17.52 19.0199 18.41 18.1299 19.51 18.1299C20.61 18.1299 21.51 19.0299 21.51 20.1199C21.51 21.2099 20.61 22.1199 19.51 22.1199ZM19.51 19.6299C19.24 19.6299 19.02 19.8499 19.02 20.1199C19.02 20.3899 19.24 20.6199 19.51 20.6199C19.78 20.6199 20.01 20.3999 20.01 20.1199C20.01 19.8399 19.79 19.6299 19.51 19.6299Z" fill="white"/> <path d="M18.63 19.9903C18.44 19.9903 18.25 19.9203 18.1 19.7703L16.49 18.1603C16.2 17.8703 16.2 17.3903 16.49 17.1003C16.78 16.8103 17.26 16.8103 17.55 17.1003L19.16 18.7103C19.45 19.0003 19.45 19.4803 19.16 19.7703C19.01 19.9203 18.82 19.9903 18.63 19.9903Z" fill="white"/> <path d="M4.49 14.6504H2C1.59 14.6504 1.25 14.3104 1.25 13.9004C1.25 13.4904 1.59 13.1504 2 13.1504H4.49C4.9 13.1504 5.24 13.4904 5.24 13.9004C5.24 14.3104 4.9 14.6504 4.49 14.6504Z" fill="white"/> <path d="M13.24 18.3804C12.83 18.3804 12.49 18.0404 12.49 17.6304V13.4004H11.5V17.6304C11.5 18.0404 11.16 18.3804 10.75 18.3804C10.34 18.3804 10 18.0404 10 17.6304V12.6504C10 12.2404 10.34 11.9004 10.75 11.9004H13.24C13.65 11.9004 13.99 12.2404 13.99 12.6504V17.6304C13.99 18.0404 13.65 18.3804 13.24 18.3804Z" fill="white"/> </g> <defs> <clipPath id="clip0_2085_386402"> <rect width="24" height="24" fill="white"/> </clipPath> </defs> </svg>
