<svg width="24" height="24" viewBox="0 0 24 24" fill="none" xmlns="http://www.w3.org/2000/svg"> <g clip-path="url(#clip0_4482_13954)"> <path d="M12.0004 22.5103C10.1104 22.5103 8.23043 21.9603 6.58043 20.8603C6.24043 20.6303 6.14043 20.1603 6.37043 19.8203C6.60043 19.4803 7.07043 19.3803 7.41043 19.6103C10.2004 21.4803 13.7904 21.4803 16.5804 19.6103C16.9204 19.3803 17.3904 19.4703 17.6204 19.8203C17.8504 20.1603 17.7604 20.6303 17.4104 20.8603C15.7604 21.9603 13.8804 22.5103 11.9904 22.5103H12.0004Z" fill="white"/> <path d="M3.01951 14.0901C2.62951 14.0901 2.29951 13.7901 2.26951 13.3901C2.00951 9.4401 4.12951 5.7501 7.68951 4.0101C8.0595 3.8201 8.5095 3.9801 8.6895 4.3501C8.8695 4.7201 8.71951 5.1701 8.34951 5.3501C5.33951 6.8301 3.53951 9.9401 3.76951 13.2901C3.79951 13.7001 3.47951 14.0601 3.06951 14.0901C3.04951 14.0901 3.03951 14.0901 3.01951 14.0901Z" fill="white"/> <path d="M20.9804 14.0901C20.9804 14.0901 20.9504 14.0901 20.9304 14.0901C20.5204 14.0601 20.2004 13.7101 20.2304 13.2901C20.4504 9.9501 18.6504 6.8301 15.6504 5.3501C15.2804 5.1701 15.1304 4.7201 15.3104 4.3501C15.4904 3.9801 15.9404 3.8201 16.3104 4.0101C19.8604 5.7601 21.9904 9.4401 21.7304 13.3901C21.7004 13.7901 21.3704 14.0901 20.9804 14.0901Z" fill="white"/> <path d="M4.20996 19.5C3.62996 19.5 3.05996 19.28 2.61996 18.84C1.73996 17.96 1.73996 16.54 2.61996 15.66C3.49996 14.78 4.91996 14.78 5.79996 15.66C6.67996 16.54 6.67996 17.96 5.79996 18.84C5.35996 19.28 4.78996 19.5 4.20996 19.5ZM4.20996 16.5C4.01996 16.5 3.82996 16.57 3.67996 16.72C3.38996 17.01 3.38996 17.49 3.67996 17.78C3.96996 18.07 4.44996 18.07 4.73996 17.78C5.02996 17.49 5.02996 17.01 4.73996 16.72C4.58996 16.57 4.39996 16.5 4.20996 16.5Z" fill="white"/> <path d="M19.79 19.5C19.21 19.5 18.64 19.28 18.2 18.84C17.32 17.96 17.32 16.54 18.2 15.66C19.08 14.78 20.5 14.78 21.38 15.66C22.26 16.54 22.26 17.96 21.38 18.84C20.94 19.28 20.37 19.5 19.79 19.5ZM19.79 16.5C19.6 16.5 19.41 16.57 19.26 16.72C18.97 17.01 18.97 17.49 19.26 17.78C19.55 18.07 20.03 18.07 20.32 17.78C20.61 17.49 20.61 17.01 20.32 16.72C20.17 16.57 19.98 16.5 19.79 16.5Z" fill="white"/> <path d="M14.8899 16.0798H9.09994C8.39994 16.0798 7.77994 15.7198 7.43994 15.1098C7.09994 14.4998 7.10994 13.7798 7.47994 13.1898L10.3699 8.48984C10.7199 7.91984 11.3199 7.58984 11.9899 7.58984C12.6599 7.58984 13.2599 7.92984 13.6099 8.48984L16.4999 13.1898C16.8699 13.7898 16.8799 14.4998 16.5399 15.1098C16.1999 15.7198 15.5799 16.0798 14.8799 16.0798H14.8899ZM11.9999 9.07984C11.9299 9.07984 11.7699 9.09984 11.6599 9.26984L8.76994 13.9698C8.65994 14.1498 8.72994 14.3098 8.76994 14.3698C8.79994 14.4298 8.90994 14.5698 9.11994 14.5698H14.9099C15.1199 14.5698 15.2199 14.4298 15.2599 14.3698C15.2999 14.3098 15.3599 14.1498 15.2599 13.9698L12.3699 9.26984C12.2599 9.09984 12.0999 9.07984 12.0299 9.07984H11.9999Z" fill="white"/> <path d="M12 6C11.42 6 10.85 5.78 10.41 5.34C9.53 4.46 9.53 3.03 10.41 2.16C11.29 1.28 12.71 1.28 13.59 2.16C14.47 3.04 14.47 4.46 13.59 5.34C13.15 5.78 12.58 6 12 6ZM12 3C11.81 3 11.62 3.07 11.47 3.22C11.18 3.51 11.18 3.99 11.47 4.28C11.76 4.57 12.24 4.57 12.53 4.28C12.82 3.99 12.82 3.51 12.53 3.22C12.38 3.07 12.19 3 12 3Z" fill="white"/> </g> <defs> <clipPath id="clip0_4482_13954"> <rect width="24" height="24" fill="white"/> </clipPath> </defs> </svg>
