<svg width="24" height="24" viewBox="0 0 24 24" fill="none" xmlns="http://www.w3.org/2000/svg"> <g clip-path="url(#clip0_4482_7818)"> <path d="M14.24 17.23C13.96 17.23 13.7 17.08 13.57 16.82L9.09002 7.84995C8.90002 7.47995 9.05002 7.02995 9.43002 6.83995C9.80002 6.65995 10.25 6.80995 10.44 7.17995L14.92 16.14C15.11 16.51 14.96 16.96 14.58 17.15C14.47 17.2 14.36 17.23 14.25 17.23H14.24Z" fill="white"/> <path d="M15.3996 21.76H8.47957C7.13957 21.76 5.88957 21.04 5.21957 19.88L1.74957 13.88C1.07957 12.72 1.07957 11.27 1.74957 10.11L5.20957 4.10998C5.87957 2.94998 7.12957 2.22998 8.46957 2.22998H15.3896C16.7296 2.22998 17.9796 2.94998 18.6496 4.10998L22.1096 10.11C22.7796 11.27 22.7796 12.72 22.1096 13.88L18.6496 19.88C17.9796 21.04 16.7296 21.76 15.3896 21.76H15.3996ZM8.47957 3.73998C7.66957 3.73998 6.91957 4.16998 6.51957 4.86998L3.05957 10.87C2.65957 11.57 2.65957 12.44 3.05957 13.14L6.51957 19.14C6.91957 19.84 7.67957 20.27 8.47957 20.27H15.3996C16.2096 20.27 16.9596 19.84 17.3596 19.14L20.8196 13.14C21.2196 12.44 21.2196 11.57 20.8196 10.87L17.3596 4.86998C16.9596 4.16998 16.1996 3.73998 15.3996 3.73998H8.47957Z" fill="white"/> </g> <defs> <clipPath id="clip0_4482_7818"> <rect width="24" height="24" fill="white"/> </clipPath> </defs> </svg>
