<svg width="24" height="24" viewBox="0 0 24 24" fill="none" xmlns="http://www.w3.org/2000/svg"> <g clip-path="url(#clip0_4482_7788)"> <path d="M11.2996 13.35C9.67963 13.35 8.04963 12.75 6.77963 11.54C6.47963 11.25 6.46963 10.78 6.74963 10.48C7.03963 10.18 7.50963 10.17 7.80963 10.45C9.75963 12.31 12.8196 12.31 14.7696 10.45C15.0696 10.16 15.5396 10.18 15.8296 10.48C16.1196 10.78 16.0996 11.26 15.7996 11.54C14.5296 12.75 12.9096 13.35 11.2796 13.35H11.2996Z" fill="white"/> <path d="M11.2998 14.75C10.8898 14.75 10.5498 14.41 10.5498 14V12.6C10.5498 12.19 10.8898 11.85 11.2998 11.85C11.7098 11.85 12.0498 12.19 12.0498 12.6V14C12.0498 14.41 11.7098 14.75 11.2998 14.75Z" fill="white"/> <path d="M14.1098 14.2C13.8198 14.2 13.5398 14.03 13.4198 13.74L12.8698 12.42C12.7098 12.04 12.8898 11.6 13.2798 11.44C13.6598 11.28 14.0998 11.46 14.2598 11.85L14.8098 13.17C14.9698 13.55 14.7898 13.99 14.3998 14.15C14.3098 14.19 14.2098 14.21 14.1098 14.21V14.2Z" fill="white"/> <path d="M8.49033 14.2C8.39033 14.2 8.30033 14.18 8.20033 14.14C7.82033 13.98 7.63033 13.54 7.79033 13.16L8.34033 11.84C8.50033 11.46 8.94033 11.28 9.32033 11.43C9.70033 11.59 9.89033 12.03 9.73033 12.41L9.18033 13.73C9.06033 14.02 8.78033 14.19 8.49033 14.19V14.2Z" fill="white"/> <path d="M13.6498 20.75H8.9598C7.6898 20.75 6.4998 20.26 5.5998 19.36L2.9398 16.7C2.0398 15.8 1.5498 14.61 1.5498 13.34V8.66C1.5498 7.39 2.0398 6.2 2.9398 5.3L5.5998 2.64C6.4998 1.74 7.6898 1.25 8.9598 1.25H13.6398C14.9098 1.25 16.0998 1.74 16.9998 2.64L19.6598 5.3C20.5598 6.2 21.0498 7.39 21.0498 8.66V13.34C21.0498 14.61 20.5598 15.8 19.6598 16.7L16.9998 19.36C16.1198 20.24 14.8898 20.75 13.6398 20.75H13.6498ZM8.9598 2.75C8.0898 2.75 7.2798 3.09 6.6598 3.7L3.9998 6.36C3.3898 6.97 3.0498 7.79 3.0498 8.66V13.34C3.0498 14.21 3.3898 15.02 3.9998 15.64L6.6598 18.3C7.2698 18.91 8.0898 19.25 8.9598 19.25H13.6498C14.5098 19.25 15.3398 18.9 15.9498 18.3L18.6098 15.64C19.2198 15.03 19.5598 14.21 19.5598 13.34V8.66C19.5598 7.79 19.2198 6.98 18.6098 6.36L15.9498 3.7C15.3398 3.09 14.5198 2.75 13.6498 2.75H8.9698H8.9598Z" fill="white"/> </g> <defs> <clipPath id="clip0_4482_7788"> <rect width="24" height="24" fill="white"/> </clipPath> </defs> </svg>
