<svg width="24" height="24" viewBox="0 0 24 24" fill="none" xmlns="http://www.w3.org/2000/svg"> <g clip-path="url(#clip0_2085_390431)"> <path d="M12.0002 12.7402C11.6302 12.7402 11.2602 12.6502 10.9402 12.4602L9.7502 11.7802C8.5502 11.1002 7.0302 11.2402 5.9802 12.1402C5.7702 12.3202 5.4702 12.3802 5.2202 12.2802C4.9602 12.1802 4.7702 11.9702 4.7302 11.6902L4.3802 9.24023C3.1602 8.38023 2.4502 7.03023 2.4502 5.60023C2.4502 3.19023 4.41019 1.24023 6.81019 1.24023C7.9402 1.24023 9.0102 1.67023 9.8302 2.45023C9.9602 2.57023 10.1002 2.66023 10.2702 2.72023C10.6602 2.85023 10.8702 3.28023 10.7402 3.67023C10.6102 4.06023 10.1802 4.27023 9.7902 4.14023C9.4102 4.01023 9.0702 3.81023 8.7902 3.53023C8.2602 3.02023 7.55019 2.74023 6.81019 2.74023C5.2302 2.74023 3.9502 4.02023 3.9502 5.60023C3.9502 6.54023 4.4102 7.42023 5.1902 7.96023C5.5502 8.21023 5.7902 8.59024 5.8602 9.02024L6.0502 10.3302C7.4502 9.66023 9.1202 9.69023 10.5002 10.4802L11.6902 11.1602C11.8902 11.2702 12.1402 11.2702 12.3402 11.1602L13.5302 10.4802C14.9102 9.69023 16.5802 9.66023 17.9702 10.3302L18.1602 9.04023C18.2302 8.60023 18.4702 8.22023 18.8302 7.97023C19.6102 7.43023 20.0702 6.55023 20.0702 5.61023C20.0702 4.03023 18.7902 2.75023 17.2102 2.75023C16.4702 2.75023 15.7702 3.03023 15.2302 3.54023C14.9402 3.81023 14.6102 4.02023 14.2302 4.15023C13.8402 4.28023 13.4102 4.07023 13.2802 3.68023C13.1502 3.29023 13.3602 2.86023 13.7502 2.73023C13.9202 2.67023 14.0702 2.58023 14.1902 2.46023C15.0102 1.68023 16.0802 1.25023 17.2102 1.25023C19.6202 1.25023 21.5702 3.21023 21.5702 5.61023C21.5702 7.04023 20.8602 8.39023 19.6802 9.20023L19.2802 11.7002C19.2402 11.9702 19.0602 12.2002 18.8002 12.2902C18.5502 12.3902 18.2602 12.3402 18.0502 12.1602C16.9802 11.2402 15.4602 11.1002 14.2602 11.7802L13.0702 12.4502C12.7402 12.6402 12.3702 12.7302 12.0102 12.7302L12.0002 12.7402Z" fill="white"/> <path d="M7.30006 5.4198C7.30006 5.7598 7.02006 6.0398 6.68006 6.0398C6.34006 6.0398 6.06006 5.7598 6.06006 5.4198C6.06006 5.0798 6.34006 4.7998 6.68006 4.7998C7.02006 4.7998 7.30006 5.0798 7.30006 5.4198Z" fill="white"/> <path d="M16.71 5.4198C16.71 5.7598 16.99 6.0398 17.33 6.0398C17.67 6.0398 17.95 5.7598 17.95 5.4198C17.95 5.0798 17.67 4.7998 17.33 4.7998C16.99 4.7998 16.71 5.0798 16.71 5.4198Z" fill="white"/> <path d="M17.0102 19.4199C16.7802 19.4199 16.5501 19.3999 16.3202 19.3599L13.0402 18.7999C12.3502 18.6799 11.6502 18.6799 10.9602 18.7999L7.68015 19.3599C5.94015 19.6599 4.22015 18.8099 3.40015 17.2599L2.58015 15.7099C2.01015 14.6399 2.26015 13.3499 3.18015 12.5599L4.98015 11.0199C6.54015 9.68986 8.74015 9.47986 10.4902 10.4699L11.6802 11.1499C11.8802 11.2599 12.1302 11.2599 12.3302 11.1499L13.5202 10.4799C15.2702 9.47986 17.4802 9.69986 19.0102 11.0099L20.8302 12.5699C21.7502 13.3599 22.0002 14.6499 21.4302 15.7199L20.6102 17.2599C19.8902 18.6099 18.5002 19.4199 17.0202 19.4199H17.0102ZM12.0002 17.2199C12.4302 17.2199 12.8602 17.2599 13.2902 17.3299L16.5702 17.8899C17.6702 18.0799 18.7502 17.5399 19.2802 16.5599L20.1002 15.0099C20.3402 14.5699 20.2302 14.0299 19.8502 13.6999L18.0402 12.1499C16.9702 11.2399 15.4502 11.0899 14.2502 11.7699L13.0602 12.4499C12.4002 12.8199 11.5902 12.8199 10.9302 12.4499L9.74015 11.7699C8.54015 11.0899 7.02015 11.2299 5.97015 12.1299L4.15015 13.6899C3.77015 14.0199 3.67015 14.5499 3.90015 14.9999L4.72015 16.5499C5.24015 17.5299 6.33015 18.0699 7.43015 17.8799L10.7102 17.3199C11.1402 17.2499 11.5702 17.2099 12.0002 17.2099V17.2199Z" fill="white"/> <path d="M9.21999 14.3104C9.04999 14.3104 8.87999 14.2504 8.73999 14.1404C8.27999 13.7604 7.63999 13.7504 7.16999 14.1004C6.83999 14.3504 6.33999 14.3104 6.08999 13.9804C5.83999 13.6504 5.86999 13.2004 6.19999 12.9504L6.25999 12.9004C7.28999 12.1204 8.70999 12.1504 9.69999 12.9804C10.02 13.2404 10.06 13.7204 9.79999 14.0404C9.64999 14.2204 9.43999 14.3104 9.21999 14.3104Z" fill="white"/> <path d="M14.79 14.3104C14.57 14.3104 14.36 14.2204 14.21 14.0404C13.94 13.7204 13.99 13.2504 14.31 12.9804C15.3 12.1504 16.72 12.1204 17.75 12.9004C18.08 13.1504 18.18 13.6404 17.93 13.9704C17.68 14.3004 17.24 14.3904 16.91 14.1404L16.85 14.0904C16.38 13.7304 15.73 13.7504 15.27 14.1304C15.13 14.2504 14.96 14.3004 14.79 14.3004V14.3104Z" fill="white"/> <path d="M7.21031 22.7499C6.93031 22.7499 6.67031 22.5799 6.54031 22.3299L4.71031 18.5799C4.53031 18.2099 4.68031 17.7599 5.05031 17.5799C5.42031 17.3999 5.87031 17.5499 6.05031 17.9199L7.22031 20.3099L8.37031 18.0399C8.56031 17.6699 9.01031 17.5199 9.38031 17.7099C9.75031 17.8999 9.90031 18.3499 9.71031 18.7199L7.88031 22.3399C7.75031 22.5899 7.49031 22.7499 7.21031 22.7499Z" fill="white"/> <path d="M16.79 22.7504C16.51 22.7504 16.25 22.5904 16.12 22.3404L14.29 18.7204C14.1 18.3504 14.25 17.9004 14.62 17.7104C14.99 17.5204 15.44 17.6704 15.63 18.0404L16.78 20.3104L17.95 17.9204C18.13 17.5504 18.58 17.3904 18.95 17.5804C19.32 17.7604 19.48 18.2104 19.29 18.5804L17.46 22.3304C17.34 22.5904 17.08 22.7504 16.79 22.7504Z" fill="white"/> <path d="M12 21.7901C10.6 21.7901 9.19001 21.4501 7.91001 20.7601C7.54001 20.5601 7.41001 20.1101 7.60001 19.7401C7.79001 19.3701 8.25001 19.2401 8.62001 19.4301C10.76 20.5801 13.31 20.5701 15.44 19.4001C15.8 19.2001 16.26 19.3401 16.46 19.7001C16.66 20.0601 16.52 20.5201 16.16 20.7201C14.86 21.4301 13.43 21.7801 12 21.7801V21.7901Z" fill="white"/> <path d="M9.93021 8.20016C9.63021 8.20016 9.34021 8.02016 9.23021 7.72016C9.08021 7.33016 9.28021 6.90016 9.66021 6.75016L10.7602 6.33016C11.5602 6.02016 12.4402 6.02016 13.2302 6.33016L14.3302 6.75016C14.7202 6.90016 14.9102 7.33016 14.7602 7.72016C14.6102 8.11016 14.1802 8.30016 13.7902 8.15016L12.6902 7.73016C12.2402 7.56016 11.7402 7.56016 11.2802 7.73016L10.1802 8.15016C10.0902 8.18016 10.0002 8.20016 9.91021 8.20016H9.93021Z" fill="white"/> <path d="M12.9701 10.1298C12.8801 10.1298 12.7901 10.1098 12.7001 10.0798C12.2501 9.90977 11.7501 9.90977 11.2901 10.0798C10.9001 10.2298 10.4701 10.0298 10.3201 9.64976C10.1701 9.25976 10.3701 8.82977 10.7501 8.67977C11.5501 8.36977 12.4301 8.36977 13.2301 8.67977C13.6201 8.82977 13.8101 9.25976 13.6601 9.64976C13.5501 9.94976 13.2601 10.1298 12.9601 10.1298H12.9701Z" fill="white"/> <path d="M14.85 5.36023C14.56 5.36023 14.28 5.19023 14.16 4.91023C13.79 4.05023 12.94 3.49023 12 3.49023C11.06 3.49023 10.21 4.05023 9.84003 4.91023C9.68003 5.29023 9.24003 5.47023 8.86003 5.30023C8.48003 5.14023 8.30003 4.70023 8.47003 4.32023C9.08003 2.91023 10.47 1.99023 12 1.99023C13.53 1.99023 14.93 2.90023 15.53 4.32023C15.69 4.70023 15.52 5.14023 15.14 5.30023C15.04 5.34023 14.94 5.36023 14.84 5.36023H14.85Z" fill="white"/> </g> <defs> <clipPath id="clip0_2085_390431"> <rect width="24" height="24" fill="white"/> </clipPath> </defs> </svg>
