<svg width="24" height="24" viewBox="0 0 24 24" fill="none" xmlns="http://www.w3.org/2000/svg"> <g clip-path="url(#clip0_2085_385982)"> <path d="M18.67 18.8598H15.39C14.57 18.8598 13.77 18.5298 13.18 17.9498L12.2 16.9698C11.9 16.6698 11.48 16.4998 11.05 16.4998H9.66004C9.42004 16.4998 9.22004 16.6998 9.22004 16.9298C9.22004 17.4498 9.02004 17.9298 8.65004 18.2998C8.28004 18.6698 7.80004 18.8698 7.28004 18.8698H4.21004C2.88004 18.8698 1.79004 17.7898 1.79004 16.4498V15.8198C1.79004 14.1398 2.00004 12.4598 2.40004 10.8198C2.78004 9.3098 2.97004 7.7498 2.97004 6.18981V3.7398C2.97004 3.2298 3.18004 2.7298 3.54004 2.3698C3.90004 2.0098 4.39004 1.7998 4.91004 1.7998H10.84C11.36 1.7998 11.84 1.9998 12.21 2.3698C12.57 2.7298 12.78 3.2298 12.78 3.7398V5.6998C12.78 8.3498 14.76 10.6298 17.38 11.0098L17.57 11.0398C19.57 11.3298 21.08 13.0598 21.08 15.0798V16.4498C21.08 17.7798 20 18.8698 18.66 18.8698L18.67 18.8598ZM9.67004 14.9898H11.06C11.88 14.9898 12.69 15.3198 13.27 15.9098L14.25 16.8898C14.55 17.1898 14.97 17.3598 15.4 17.3598H18.68C19.19 17.3598 19.6 16.9498 19.6 16.4398V15.0698C19.6 13.7898 18.65 12.6898 17.38 12.5098L17.19 12.4798C13.83 11.9998 11.3 9.0798 11.3 5.6898V3.7298C11.3 3.6098 11.25 3.4998 11.17 3.4198C11.09 3.3398 10.98 3.2898 10.86 3.2898H4.93004C4.81004 3.2898 4.70004 3.3298 4.62004 3.4198C4.54004 3.4998 4.49004 3.6098 4.49004 3.7298V6.1798C4.49004 7.8598 4.28004 9.5398 3.87004 11.1798C3.49004 12.6898 3.30004 14.2498 3.30004 15.8098V16.4398C3.30004 16.9498 3.71004 17.3598 4.22004 17.3598H7.29004C7.41004 17.3598 7.52004 17.3198 7.60004 17.2298C7.68004 17.1498 7.73004 17.0398 7.73004 16.9198C7.73004 15.8498 8.60004 14.9898 9.67004 14.9898Z" fill="white"/> <path d="M5.33008 22.1899C4.92008 22.1899 4.58008 21.8499 4.58008 21.4399V18.1099C4.58008 17.6999 4.92008 17.3599 5.33008 17.3599C5.74008 17.3599 6.08008 17.6999 6.08008 18.1099V21.4399C6.08008 21.8499 5.74008 22.1899 5.33008 22.1899Z" fill="white"/> <path d="M17 22.1899C16.59 22.1899 16.25 21.8499 16.25 21.4399V18.1099C16.25 17.6999 16.59 17.3599 17 17.3599C17.41 17.3599 17.75 17.6999 17.75 18.1099V21.4399C17.75 21.8499 17.41 22.1899 17 22.1899Z" fill="white"/> <path d="M19.78 22.1897H2C1.59 22.1897 1.25 21.8497 1.25 21.4397C1.25 21.0297 1.59 20.6897 2 20.6897H19.78C20.59 20.6897 21.25 20.0297 21.25 19.2197C21.25 18.8097 21.59 18.4697 22 18.4697C22.41 18.4697 22.75 18.8097 22.75 19.2197C22.75 20.8597 21.42 22.1897 19.78 22.1897Z" fill="white"/> <path d="M12.0402 6.60986H3.74023C3.33023 6.60986 2.99023 6.26986 2.99023 5.85986C2.99023 5.44986 3.33023 5.10986 3.74023 5.10986H12.0402C12.4502 5.10986 12.7902 5.44986 12.7902 5.85986C12.7902 6.26986 12.4502 6.60986 12.0402 6.60986Z" fill="white"/> </g> <defs> <clipPath id="clip0_2085_385982"> <rect width="24" height="24" fill="white"/> </clipPath> </defs> </svg>
