<svg width="24" height="24" viewBox="0 0 24 24" fill="none" xmlns="http://www.w3.org/2000/svg"> <g clip-path="url(#clip0_4482_10681)"> <path d="M17.5596 8.31006H7.55957C7.14957 8.31006 6.80957 7.97006 6.80957 7.56006C6.80957 7.15006 7.14957 6.81006 7.55957 6.81006H17.5596C17.9696 6.81006 18.3096 7.15006 18.3096 7.56006C18.3096 7.97006 17.9696 8.31006 17.5596 8.31006Z" fill="white"/> <path d="M17.5601 12.75H13.1201C12.7101 12.75 12.3701 12.41 12.3701 12C12.3701 11.59 12.7101 11.25 13.1201 11.25H17.5601C17.9701 11.25 18.3101 11.59 18.3101 12C18.3101 12.41 17.9701 12.75 17.5601 12.75Z" fill="white"/> <path d="M17.5598 17.1899H15.3398C14.9298 17.1899 14.5898 16.8499 14.5898 16.4399C14.5898 16.0299 14.9298 15.6899 15.3398 15.6899H17.5598C17.9698 15.6899 18.3098 16.0299 18.3098 16.4399C18.3098 16.8499 17.9698 17.1899 17.5598 17.1899Z" fill="white"/> <path d="M17.0004 22.75H15.3304C14.9204 22.75 14.5804 22.41 14.5804 22C14.5804 21.59 14.9204 21.25 15.3304 21.25H17.0004C19.3404 21.25 21.2504 19.34 21.2504 17V7C21.2504 4.66 19.3404 2.75 17.0004 2.75H8.11035C5.77035 2.75 3.86035 4.66 3.86035 7V9.78C3.86035 10.19 3.52035 10.53 3.11035 10.53C2.70035 10.53 2.36035 10.19 2.36035 9.78V7C2.36035 3.83 4.94035 1.25 8.11035 1.25H17.0004C20.1704 1.25 22.7504 3.83 22.7504 7V17C22.7504 20.17 20.1704 22.75 17.0004 22.75Z" fill="white"/> <path d="M9.22 22.7499H3.67C2.34 22.7499 1.25 21.6699 1.25 20.3299V16.8399C1.25 16.0999 1.58 15.4099 2.16 14.9499L4.59 13.0099C5.68 12.1399 7.21 12.1399 8.3 13.0099L10.73 14.9499C11.31 15.4099 11.64 16.0999 11.64 16.8399V20.3299C11.64 21.6599 10.56 22.7499 9.22 22.7499ZM6.44 13.8599C6.12 13.8599 5.79 13.9699 5.52 14.1899L3.09 16.1299C2.87 16.2999 2.75 16.5699 2.75 16.8499V20.3399C2.75 20.8499 3.16 21.2599 3.67 21.2599H9.23C9.74 21.2599 10.15 20.8499 10.15 20.3399V16.8499C10.15 16.5699 10.02 16.3099 9.81 16.1299L7.38 14.1899C7.11 13.9699 6.78 13.8599 6.46 13.8599H6.44Z" fill="white"/> </g> <defs> <clipPath id="clip0_4482_10681"> <rect width="24" height="24" fill="white"/> </clipPath> </defs> </svg>
