<svg width="24" height="24" viewBox="0 0 24 24" fill="none" xmlns="http://www.w3.org/2000/svg"> <g clip-path="url(#clip0_2085_390482)"> <path d="M12.0001 12.7498C11.8701 12.7498 11.7401 12.7198 11.6201 12.6498L8.4701 10.8198C7.9301 10.5098 7.6001 9.92977 7.6001 9.30977V4.50977C7.6001 4.09977 7.9401 3.75977 8.3501 3.75977H15.6401C16.0501 3.75977 16.3901 4.09977 16.3901 4.50977V9.30977C16.3901 9.92977 16.0601 10.5098 15.5201 10.8198L12.3701 12.6498C12.2501 12.7198 12.1201 12.7498 11.9901 12.7498H12.0001ZM9.1101 5.25977V9.30977C9.1101 9.39977 9.1601 9.47976 9.2301 9.52977L12.0001 11.1398L14.7701 9.52977C14.8501 9.48977 14.8901 9.39977 14.8901 9.30977V5.25977H9.1001H9.1101Z" fill="white"/> <path d="M15.6401 20.2401H8.3501C7.9401 20.2401 7.6001 19.9001 7.6001 19.4901V14.6901C7.6001 14.0701 7.9301 13.4901 8.4701 13.1801L11.6201 11.3501C11.8501 11.2101 12.1401 11.2101 12.3701 11.3501L15.5201 13.1801C16.0601 13.4901 16.3901 14.0701 16.3901 14.6901V19.4901C16.3901 19.9001 16.0501 20.2401 15.6401 20.2401ZM9.1101 18.7401H14.9001V14.6901C14.9001 14.6001 14.8501 14.5201 14.7801 14.4701L12.0101 12.8601L9.2401 14.4701C9.1601 14.5101 9.1201 14.6001 9.1201 14.6901V18.7401H9.1101Z" fill="white"/> <path d="M16.1101 5.26H7.89014C6.93014 5.26 6.14014 4.47 6.14014 3.51V3C6.14014 2.04 6.93014 1.25 7.89014 1.25H16.1201C17.0801 1.25 17.8701 2.04 17.8701 3V3.51C17.8701 4.47 17.0801 5.26 16.1201 5.26H16.1101ZM7.89014 2.75C7.75014 2.75 7.64014 2.86 7.64014 3V3.51C7.64014 3.65 7.75014 3.76 7.89014 3.76H16.1201C16.2601 3.76 16.3701 3.65 16.3701 3.51V3C16.3701 2.86 16.2601 2.75 16.1201 2.75H7.89014Z" fill="white"/> <path d="M16.1101 22.7502H7.89014C6.93014 22.7502 6.14014 21.9602 6.14014 21.0002V20.4902C6.14014 19.5302 6.93014 18.7402 7.89014 18.7402H16.1201C17.0801 18.7402 17.8701 19.5302 17.8701 20.4902V21.0002C17.8701 21.9602 17.0801 22.7502 16.1201 22.7502H16.1101ZM7.89014 20.2402C7.75014 20.2402 7.64014 20.3502 7.64014 20.4902V21.0002C7.64014 21.1402 7.75014 21.2502 7.89014 21.2502H16.1201C16.2601 21.2502 16.3701 21.1402 16.3701 21.0002V20.4902C16.3701 20.3502 16.2601 20.2402 16.1201 20.2402H7.89014Z" fill="white"/> <path d="M15.1403 20.2396C14.9503 20.2396 14.7703 20.1696 14.6203 20.0296L12.1703 17.6896C12.0703 17.5996 11.9203 17.5996 11.8303 17.6896L9.38028 20.0296C9.08028 20.3196 8.61028 20.3096 8.32028 20.0096C8.03028 19.7096 8.04028 19.2396 8.34028 18.9496L10.7903 16.6096C11.4703 15.9596 12.5303 15.9596 13.2103 16.6096L15.6603 18.9496C15.9603 19.2396 15.9703 19.7096 15.6803 20.0096C15.5303 20.1596 15.3403 20.2396 15.1403 20.2396Z" fill="white"/> <path d="M15.6401 8.57031H8.3501C7.9401 8.57031 7.6001 8.23031 7.6001 7.82031C7.6001 7.41031 7.9401 7.07031 8.3501 7.07031H15.6401C16.0501 7.07031 16.3901 7.41031 16.3901 7.82031C16.3901 8.23031 16.0501 8.57031 15.6401 8.57031Z" fill="white"/> </g> <defs> <clipPath id="clip0_2085_390482"> <rect width="24" height="24" fill="white"/> </clipPath> </defs> </svg>
