<svg width="24" height="24" viewBox="0 0 24 24" fill="none" xmlns="http://www.w3.org/2000/svg"> <g clip-path="url(#clip0_4482_12927)"> <path d="M12 22.75C6.07 22.75 1.25 17.93 1.25 12C1.25 6.07 6.07 1.25 12 1.25C17.93 1.25 22.75 6.07 22.75 12C22.75 17.93 17.93 22.75 12 22.75ZM12 2.75C6.9 2.75 2.75 6.9 2.75 12C2.75 17.1 6.9 21.25 12 21.25C17.1 21.25 21.25 17.1 21.25 12C21.25 6.9 17.1 2.75 12 2.75Z" fill="white"/> <path d="M13.5605 18.2797C13.1505 18.2797 12.8105 17.9397 12.8105 17.5297V16.2997C12.8105 15.8897 13.1505 15.5497 13.5605 15.5497H14.4705C14.8505 15.5497 15.1605 15.2397 15.1605 14.8597V13.9497C15.1605 13.6197 15.3705 13.3397 15.6605 13.2397L16.3405 12.9197C16.4205 12.8797 16.4805 12.8097 16.5005 12.7197C16.5205 12.6297 16.5005 12.5397 16.4505 12.4697L15.7905 11.5697C15.7005 11.4397 15.6405 11.2897 15.6405 11.1297V10.9197C15.6405 8.59973 13.7505 6.70973 11.4305 6.70973C9.25047 6.70973 7.48047 8.47973 7.48047 10.6597C7.48047 11.9897 8.15047 13.2297 9.26047 13.9597C9.47047 14.0997 9.60047 14.3297 9.60047 14.5897V17.5397C9.60047 17.9497 9.26047 18.2897 8.85047 18.2897C8.44047 18.2897 8.10047 17.9497 8.10047 17.5397V14.9797C6.77047 13.9497 5.98047 12.3697 5.98047 10.6697C5.98047 7.65973 8.43047 5.21973 11.4305 5.21973C14.4305 5.21973 17.1205 7.75973 17.1405 10.8997L17.6505 11.5897C17.9705 12.0197 18.0805 12.5697 17.9505 13.0897C17.8205 13.6097 17.4705 14.0497 16.9805 14.2797L16.6505 14.4397V14.8697C16.6505 16.0797 15.6705 17.0597 14.4605 17.0597H14.3005V17.5397C14.3005 17.9497 13.9605 18.2897 13.5505 18.2897L13.5605 18.2797Z" fill="white"/> </g> <defs> <clipPath id="clip0_4482_12927"> <rect width="24" height="24" fill="white"/> </clipPath> </defs> </svg>
