<svg width="24" height="24" viewBox="0 0 24 24" fill="none" xmlns="http://www.w3.org/2000/svg"> <g clip-path="url(#clip0_4482_12930)"> <path d="M18.1096 12.1904H5.88965C5.47965 12.1904 5.13965 11.8504 5.13965 11.4404C5.13965 11.0304 5.47965 10.6904 5.88965 10.6904H18.1096C18.5196 10.6904 18.8596 11.0304 18.8596 11.4404C18.8596 11.8504 18.5196 12.1904 18.1096 12.1904Z" fill="white"/> <path d="M13.3996 16.6396H10.5996C10.1896 16.6396 9.84961 16.2996 9.84961 15.8896C9.84961 15.4796 10.1896 15.1396 10.5996 15.1396H13.3996C13.8096 15.1396 14.1496 15.4796 14.1496 15.8896C14.1496 16.2996 13.8096 16.6396 13.3996 16.6396Z" fill="white"/> <path d="M8.67047 18.8605C7.18047 18.8605 5.98047 17.6505 5.98047 16.1705C5.98047 14.6905 7.19047 13.4805 8.67047 13.4805C10.1505 13.4805 11.3605 14.6905 11.3605 16.1705C11.3605 17.6505 10.1505 18.8605 8.67047 18.8605ZM8.67047 14.9705C8.01047 14.9705 7.48047 15.5105 7.48047 16.1605C7.48047 16.8105 8.02047 17.3505 8.67047 17.3505C9.32047 17.3505 9.86047 16.8105 9.86047 16.1605C9.86047 15.5105 9.32047 14.9705 8.67047 14.9705Z" fill="white"/> <path d="M15.3296 18.8605C13.8396 18.8605 12.6396 17.6505 12.6396 16.1705C12.6396 14.6905 13.8496 13.4805 15.3296 13.4805C16.8096 13.4805 18.0196 14.6905 18.0196 16.1705C18.0196 17.6505 16.8096 18.8605 15.3296 18.8605ZM15.3296 14.9705C14.6696 14.9705 14.1396 15.5105 14.1396 16.1605C14.1396 16.8105 14.6796 17.3505 15.3296 17.3505C15.9796 17.3505 16.5196 16.8105 16.5196 16.1605C16.5196 15.5105 15.9796 14.9705 15.3296 14.9705Z" fill="white"/> <path d="M16.4401 12.1899C16.0801 12.1899 15.7601 11.9299 15.7001 11.5599L14.9801 7.23988C14.9201 6.88988 14.6201 6.62988 14.2601 6.62988H9.73009C9.37009 6.62988 9.07009 6.88988 9.01009 7.23988L8.29009 11.5599C8.22009 11.9699 7.84009 12.2399 7.43009 12.1799C7.02009 12.1099 6.75009 11.7199 6.81009 11.3199L7.53009 6.99988C7.71009 5.91988 8.64009 5.12988 9.73009 5.12988H14.2601C15.3601 5.12988 16.2801 5.90988 16.4601 6.99988L17.1801 11.3199C17.2501 11.7299 16.9701 12.1099 16.5601 12.1799C16.5201 12.1799 16.4801 12.1799 16.4401 12.1799V12.1899Z" fill="white"/> <path d="M17 22.75H7C3.83 22.75 1.25 20.17 1.25 17V7C1.25 3.83 3.83 1.25 7 1.25H17C20.17 1.25 22.75 3.83 22.75 7V17C22.75 20.17 20.17 22.75 17 22.75ZM7 2.75C4.66 2.75 2.75 4.66 2.75 7V17C2.75 19.34 4.66 21.25 7 21.25H17C19.34 21.25 21.25 19.34 21.25 17V7C21.25 4.66 19.34 2.75 17 2.75H7Z" fill="white"/> </g> <defs> <clipPath id="clip0_4482_12930"> <rect width="24" height="24" fill="white"/> </clipPath> </defs> </svg>
