<svg width="24" height="24" viewBox="0 0 24 24" fill="none" xmlns="http://www.w3.org/2000/svg"> <g clip-path="url(#clip0_4482_12931)"> <path d="M18.0004 22.7504H16.4404C16.0304 22.7504 15.6904 22.4104 15.6904 22.0004C15.6904 21.5904 16.0304 21.2504 16.4404 21.2504H18.0004C19.7904 21.2504 21.2504 19.7904 21.2504 18.0004V16.4404C21.2504 16.0304 21.5904 15.6904 22.0004 15.6904C22.4104 15.6904 22.7504 16.0304 22.7504 16.4404V18.0004C22.7504 20.6204 20.6204 22.7504 18.0004 22.7504Z" fill="white"/> <path d="M7.56 22.7504H6C3.38 22.7504 1.25 20.6204 1.25 18.0004V16.4404C1.25 16.0304 1.59 15.6904 2 15.6904C2.41 15.6904 2.75 16.0304 2.75 16.4404V18.0004C2.75 19.7904 4.21 21.2504 6 21.2504H7.56C7.97 21.2504 8.31 21.5904 8.31 22.0004C8.31 22.4104 7.97 22.7504 7.56 22.7504Z" fill="white"/> <path d="M22.0004 8.31C21.5904 8.31 21.2504 7.97 21.2504 7.56V6C21.2504 4.21 19.7904 2.75 18.0004 2.75H16.4404C16.0304 2.75 15.6904 2.41 15.6904 2C15.6904 1.59 16.0304 1.25 16.4404 1.25H18.0004C20.6204 1.25 22.7504 3.38 22.7504 6V7.56C22.7504 7.97 22.4104 8.31 22.0004 8.31Z" fill="white"/> <path d="M2 8.31C1.59 8.31 1.25 7.97 1.25 7.56V6C1.25 3.38 3.38 1.25 6 1.25H7.56C7.97 1.25 8.31 1.59 8.31 2C8.31 2.41 7.97 2.75 7.56 2.75H6C4.21 2.75 2.75 4.21 2.75 6V7.56C2.75 7.97 2.41 8.31 2 8.31Z" fill="white"/> <path d="M8.69043 19.4199C7.17043 19.4199 5.94043 18.1899 5.94043 16.6699C5.94043 15.1499 7.17043 13.9199 8.69043 13.9199C10.2104 13.9199 11.4404 15.1499 11.4404 16.6699C11.4404 18.1899 10.2104 19.4199 8.69043 19.4199ZM8.69043 15.4199C8.00043 15.4199 7.44043 15.9799 7.44043 16.6699C7.44043 17.3599 8.00043 17.9199 8.69043 17.9199C9.38043 17.9199 9.94043 17.3599 9.94043 16.6699C9.94043 15.9799 9.38043 15.4199 8.69043 15.4199Z" fill="white"/> <path d="M15.2305 19.4199C13.7105 19.4199 12.4805 18.1899 12.4805 16.6699C12.4805 15.1499 13.7105 13.9199 15.2305 13.9199C16.7505 13.9199 17.9805 15.1499 17.9805 16.6699C17.9805 18.1899 16.7505 19.4199 15.2305 19.4199ZM15.2305 15.4199C14.5405 15.4199 13.9805 15.9799 13.9805 16.6699C13.9805 17.3599 14.5405 17.9199 15.2305 17.9199C15.9205 17.9199 16.4805 17.3599 16.4805 16.6699C16.4805 15.9799 15.9205 15.4199 15.2305 15.4199Z" fill="white"/> <path d="M10.68 17.42C10.52 17.42 10.37 17.37 10.23 17.27C9.89996 17.02 9.82996 16.55 10.08 16.22C10.52 15.64 11.22 15.29 11.95 15.29C12.68 15.29 13.38 15.64 13.82 16.23C14.07 16.56 14 17.03 13.67 17.28C13.34 17.53 12.87 17.46 12.62 17.13C12.31 16.71 11.6 16.71 11.28 17.13C11.13 17.33 10.91 17.43 10.68 17.43V17.42Z" fill="white"/> <path d="M5.32992 13.6202C5.04992 13.6202 4.77992 13.4602 4.64992 13.1902C4.47992 12.8102 4.63992 12.3702 5.00992 12.1902C9.44992 10.1202 14.5399 10.1202 18.9799 12.1902C19.3599 12.3702 19.5199 12.8102 19.3399 13.1902C19.1599 13.5702 18.7199 13.7302 18.3399 13.5502C14.3099 11.6702 9.67992 11.6702 5.63992 13.5502C5.53992 13.6002 5.42992 13.6202 5.31992 13.6202H5.32992Z" fill="white"/> <path d="M16.24 10.0798C15.88 10.0798 15.5601 9.81984 15.5 9.44984L15.04 6.68984C14.98 6.33984 14.68 6.07984 14.32 6.07984H9.68005C9.32005 6.07984 9.02005 6.33984 8.96005 6.68984L8.50005 9.44984C8.43005 9.85984 8.05005 10.1298 7.64005 10.0698C7.23005 9.99984 6.96005 9.60984 7.02005 9.20984L7.48005 6.44984C7.66005 5.36984 8.59005 4.58984 9.68005 4.58984H14.32C15.41 4.58984 16.34 5.36984 16.5201 6.44984L16.98 9.20984C17.05 9.61984 16.7701 9.99984 16.3601 10.0698C16.3201 10.0698 16.28 10.0698 16.24 10.0698V10.0798Z" fill="white"/> </g> <defs> <clipPath id="clip0_4482_12931"> <rect width="24" height="24" fill="white"/> </clipPath> </defs> </svg>
