<svg width="24" height="24" viewBox="0 0 24 24" fill="none" xmlns="http://www.w3.org/2000/svg"> <g clip-path="url(#clip0_2085_385996)"> <path d="M12.8499 9.70996H11.1099C10.6999 9.70996 10.3599 9.36996 10.3599 8.95996C10.3599 8.54996 10.6999 8.20996 11.1099 8.20996H12.8499C13.2599 8.20996 13.5999 8.54996 13.5999 8.95996C13.5999 9.36996 13.2599 9.70996 12.8499 9.70996Z" fill="white"/> <path d="M12.8499 11.4502H11.1099C10.6999 11.4502 10.3599 11.1102 10.3599 10.7002C10.3599 10.2902 10.6999 9.9502 11.1099 9.9502H12.8499C13.2599 9.9502 13.5999 10.2902 13.5999 10.7002C13.5999 11.1102 13.2599 11.4502 12.8499 11.4502Z" fill="white"/> <path d="M12.8499 13.1802H11.1099C10.6999 13.1802 10.3599 12.8402 10.3599 12.4302C10.3599 12.0202 10.6999 11.6802 11.1099 11.6802H12.8499C13.2599 11.6802 13.5999 12.0202 13.5999 12.4302C13.5999 12.8402 13.2599 13.1802 12.8499 13.1802Z" fill="white"/> <path d="M13.72 22.7498C10.08 22.7498 6.88004 19.9598 6.88004 16.7798V4.60977C6.88004 4.10977 6.69004 3.64977 6.34004 3.29977C5.99004 2.94977 5.52004 2.75977 5.03004 2.75977H3.29004C2.88004 2.75977 2.54004 2.41977 2.54004 2.00977C2.54004 1.59977 2.88004 1.25977 3.29004 1.25977H5.03004C8.13004 1.25977 12.74 3.76977 12.74 7.22977V14.1898C12.74 14.3398 12.8 14.4798 12.9 14.5798C13.11 14.7898 13.47 14.7898 13.68 14.5798C13.78 14.4798 13.84 14.3398 13.84 14.1898V6.97977C13.84 6.74977 13.91 6.51977 14.04 6.31977C14.17 6.11977 14.36 5.96977 14.58 5.87977C14.79 5.78977 15.03 5.76977 15.26 5.80977C15.49 5.85977 15.7 5.96977 15.87 6.12977L21.12 11.3798C21.25 11.5098 21.35 11.6698 21.41 11.8398C21.47 12.0198 21.48 12.2098 21.46 12.3898C21.44 12.5598 21.37 12.7398 21.26 12.8898C21.15 13.0498 21.01 13.1698 20.85 13.2598C20.76 13.3098 20.69 13.3798 20.64 13.4598C20.59 13.5498 20.56 13.6398 20.56 13.7398V16.7798C20.56 19.9598 17.37 22.7498 13.72 22.7498ZM8.23004 3.57886C8.23004 3.57946 8.23014 3.58006 8.23033 3.58063C8.34013 3.91038 8.39004 4.26007 8.39004 4.60977V16.7798C8.39004 19.1198 10.93 21.2498 13.73 21.2498C16.53 21.2498 19.07 19.1198 19.07 16.7798V13.7398C19.07 13.3698 19.17 13.0098 19.36 12.6898C19.4464 12.5458 19.5484 12.4121 19.6622 12.2963C19.7325 12.2247 19.7386 12.1083 19.6676 12.0374L15.6402 8.00997C15.5332 7.90288 15.35 7.97873 15.35 8.13018V14.1698C15.35 14.7198 15.14 15.2398 14.75 15.6198C13.97 16.3998 12.62 16.3898 11.84 15.6198C11.45 15.2298 11.24 14.7198 11.24 14.1698V7.20977C11.24 5.78209 9.90438 4.41421 8.23817 3.57386C8.23444 3.57198 8.23004 3.57469 8.23004 3.57886Z" fill="white"/> <path d="M5.89977 2.91C5.80977 2.91 5.72977 2.89 5.63977 2.86C5.43977 2.79 5.23977 2.75 5.02977 2.75C4.61977 2.75 4.27977 2.41 4.28977 1.99C4.28977 1.58 4.62977 1.25 5.03977 1.25C5.35977 1.25 5.67977 1.28 5.99977 1.33C6.32977 1.38 6.58977 1.64 6.62977 1.97V2.06C6.66977 2.32 6.56977 2.58 6.36977 2.74C6.23977 2.85 6.06977 2.9 5.89977 2.9V2.91Z" fill="white"/> </g> <defs> <clipPath id="clip0_2085_385996"> <rect width="24" height="24" fill="white"/> </clipPath> </defs> </svg>
