<svg width="24" height="24" viewBox="0 0 24 24" fill="none" xmlns="http://www.w3.org/2000/svg"> <g clip-path="url(#clip0_4482_12939)"> <path d="M17 22.75H7C3.83 22.75 1.25 20.17 1.25 17V7C1.25 3.83 3.83 1.25 7 1.25H17C20.17 1.25 22.75 3.83 22.75 7V17C22.75 20.17 20.17 22.75 17 22.75ZM7 2.75C4.66 2.75 2.75 4.66 2.75 7V17C2.75 19.34 4.66 21.25 7 21.25H17C19.34 21.25 21.25 19.34 21.25 17V7C21.25 4.66 19.34 2.75 17 2.75H7Z" fill="white"/> <path d="M12.3896 15.25C11.9796 15.25 11.6396 14.91 11.6396 14.5V9.5C11.6396 9.09 11.9796 8.75 12.3896 8.75C12.7996 8.75 13.1396 9.09 13.1396 9.5V14.5C13.1396 14.91 12.7996 15.25 12.3896 15.25Z" fill="white"/> <path d="M14.4696 13.5802H12.3896C11.9796 13.5802 11.6396 13.2402 11.6396 12.8302C11.6396 12.4202 11.9796 12.0802 12.3896 12.0802H14.4696C14.9696 12.0802 15.3896 11.6702 15.3896 11.1602C15.3896 10.6502 14.9796 10.2402 14.4696 10.2402H12.3896C11.9796 10.2402 11.6396 9.90023 11.6396 9.49023C11.6396 9.08023 11.9796 8.74023 12.3896 8.74023H14.4696C15.7996 8.74023 16.8896 9.82023 16.8896 11.1602C16.8896 12.5002 15.8096 13.5802 14.4696 13.5802Z" fill="white"/> <path d="M8.36035 15.25C7.95035 15.25 7.61035 14.91 7.61035 14.5V9.5C7.61035 9.09 7.95035 8.75 8.36035 8.75C8.77035 8.75 9.11035 9.09 9.11035 9.5V14.5C9.11035 14.91 8.77035 15.25 8.36035 15.25Z" fill="white"/> </g> <defs> <clipPath id="clip0_4482_12939"> <rect width="24" height="24" fill="white"/> </clipPath> </defs> </svg>
