<svg width="24" height="24" viewBox="0 0 24 24" fill="none" xmlns="http://www.w3.org/2000/svg"> <g clip-path="url(#clip0_4482_15927)"> <path d="M12.0002 10.27C11.4702 10.27 10.9502 10.05 10.5702 9.67C10.1902 9.27 9.99023 8.78 9.99023 8.26C9.99023 7.15 10.8902 6.25 12.0002 6.25C13.1102 6.25 14.0102 7.15 14.0102 8.26C14.0102 8.78 13.8102 9.27 13.4402 9.65C13.0502 10.04 12.5202 10.26 12.0002 10.26V10.27ZM12.0002 7.75C11.7202 7.75 11.4902 7.98 11.4902 8.26C11.4902 8.39 11.5402 8.51 11.6402 8.62C11.8202 8.8 12.1702 8.81 12.3702 8.61C12.4602 8.52 12.5102 8.4 12.5102 8.26C12.5102 7.98 12.2802 7.75 12.0002 7.75Z" fill="white"/> <path d="M17.6702 13.73C16.5602 13.73 15.6602 12.83 15.6602 11.72C15.6602 10.61 16.5602 9.70996 17.6702 9.70996C18.7802 9.70996 19.6802 10.61 19.6802 11.72C19.6802 12.83 18.7802 13.73 17.6702 13.73ZM17.6702 11.21C17.3902 11.21 17.1602 11.44 17.1602 11.72C17.1602 12 17.3902 12.23 17.6702 12.23C17.9502 12.23 18.1802 12 18.1802 11.72C18.1802 11.44 17.9502 11.21 17.6702 11.21Z" fill="white"/> <path d="M15.7807 16.5703H8.2207C7.8107 16.5703 7.4707 16.2303 7.4707 15.8203C7.4707 15.4103 7.8107 15.0703 8.2207 15.0703H15.7807C16.1907 15.0703 16.5307 15.4103 16.5307 15.8203C16.5307 16.2303 16.1907 16.5703 15.7807 16.5703Z" fill="white"/> <path d="M12.0002 16.5698C11.5902 16.5698 11.2502 16.2298 11.2502 15.8198C11.2502 14.8698 10.4902 13.9498 9.21022 13.3698C8.83022 13.1998 8.67022 12.7598 8.83022 12.3798L10.4102 8.81981C10.5102 8.58981 10.7202 8.42982 10.9602 8.38982C11.2102 8.34982 11.4502 8.41982 11.6302 8.59982C11.8302 8.79982 12.1702 8.79982 12.3702 8.59982C12.5402 8.42982 12.7902 8.34982 13.0402 8.38982C13.2902 8.42982 13.4902 8.59981 13.5902 8.81981L15.1702 12.3798C15.3402 12.7598 15.1702 13.1998 14.7902 13.3698C13.5102 13.9498 12.7502 14.8698 12.7502 15.8198C12.7502 16.2298 12.4102 16.5698 12.0002 16.5698ZM10.4902 12.3498C11.1102 12.7198 11.6202 13.1698 12.0002 13.6698C12.3802 13.1698 12.8902 12.7198 13.5102 12.3498L12.5502 10.1798C12.1902 10.2798 11.8102 10.2798 11.4502 10.1798L10.4902 12.3498Z" fill="white"/> <path d="M14.4804 13.4403C14.2004 13.4403 13.9304 13.2803 13.8004 13.0103C13.6204 12.6403 13.7804 12.1903 14.1604 12.0103C14.8004 11.7103 15.5404 11.5003 16.3704 11.3803C16.7704 11.3103 17.1604 11.6103 17.2204 12.0203C17.2804 12.4303 16.9904 12.8103 16.5804 12.8703C15.9004 12.9703 15.3004 13.1403 14.8004 13.3703C14.7004 13.4203 14.5904 13.4403 14.4804 13.4403Z" fill="white"/> <path d="M15.8904 16.5698C15.8904 16.5698 15.8504 16.5698 15.8404 16.5698C15.4304 16.5398 15.1204 16.1798 15.1504 15.7698C15.2404 14.5398 15.5804 13.3798 16.1704 12.2998C16.3704 11.9398 16.8204 11.7998 17.1904 11.9998C17.5504 12.1998 17.6904 12.6498 17.4904 13.0198C17.0004 13.9098 16.7204 14.8698 16.6504 15.8798C16.6204 16.2698 16.2904 16.5798 15.9004 16.5798L15.8904 16.5698Z" fill="white"/> <path d="M6.33031 13.73C5.22031 13.73 4.32031 12.83 4.32031 11.72C4.32031 10.61 5.22031 9.70996 6.33031 9.70996C7.44031 9.70996 8.34031 10.61 8.34031 11.72C8.34031 12.83 7.44031 13.73 6.33031 13.73ZM6.33031 11.21C6.05031 11.21 5.82031 11.44 5.82031 11.72C5.82031 12 6.05031 12.23 6.33031 12.23C6.61031 12.23 6.84031 12 6.84031 11.72C6.84031 11.44 6.61031 11.21 6.33031 11.21Z" fill="white"/> <path d="M9.52033 13.4399C9.41033 13.4399 9.31033 13.4199 9.20033 13.3699C8.70033 13.1299 8.10033 12.9699 7.42033 12.8699C7.01033 12.8099 6.72033 12.4299 6.78033 12.0199C6.84033 11.6099 7.21033 11.3199 7.63033 11.3799C8.46033 11.4999 9.21033 11.7099 9.84033 12.0099C10.2203 12.1899 10.3803 12.6299 10.2003 13.0099C10.0703 13.2799 9.80033 13.4399 9.52033 13.4399Z" fill="white"/> <path d="M8.11026 16.57C7.72026 16.57 7.39027 16.27 7.36027 15.87C7.29027 14.86 7.00027 13.9 6.52027 13.01C6.32027 12.65 6.46027 12.19 6.82027 11.99C7.19027 11.79 7.64027 11.93 7.84027 12.29C8.43027 13.37 8.77026 14.54 8.86026 15.76C8.89026 16.17 8.58027 16.53 8.17027 16.56C8.15027 16.56 8.13026 16.56 8.12027 16.56L8.11026 16.57Z" fill="white"/> <path d="M12 22.75C6.07 22.75 1.25 17.93 1.25 12C1.25 6.07 6.07 1.25 12 1.25C17.93 1.25 22.75 6.07 22.75 12C22.75 17.93 17.93 22.75 12 22.75ZM12 2.75C6.9 2.75 2.75 6.9 2.75 12C2.75 17.1 6.9 21.25 12 21.25C17.1 21.25 21.25 17.1 21.25 12C21.25 6.9 17.1 2.75 12 2.75Z" fill="white"/> </g> <defs> <clipPath id="clip0_4482_15927"> <rect width="24" height="24" fill="white"/> </clipPath> </defs> </svg>
