<svg width="24" height="24" viewBox="0 0 24 24" fill="none" xmlns="http://www.w3.org/2000/svg"> <g clip-path="url(#clip0_2085_386235)"> <path d="M12.0802 9.88C9.54022 9.88 7.47021 7.95 7.47021 5.57C7.47021 3.19 9.53022 1.25 12.0802 1.25C14.6302 1.25 16.6902 3.18 16.6902 5.56C16.6902 7.94 14.6202 9.87 12.0802 9.87V9.88ZM12.0802 2.75C10.3602 2.75 8.97022 4.01 8.97022 5.56C8.97022 7.11 10.3702 8.37 12.0802 8.37C13.7902 8.37 15.1902 7.11 15.1902 5.56C15.1902 4.01 13.7902 2.75 12.0802 2.75Z" fill="white"/> <path d="M19.4503 11.9102C19.0403 11.9102 18.7003 11.5702 18.7003 11.1602V9.45023C18.7003 7.66023 18.0003 5.98023 16.7403 4.71023C15.4703 3.44023 13.7903 2.75023 12.0103 2.75023C9.86026 2.75023 7.82026 3.79023 6.57026 5.54023C6.33026 5.88023 5.86026 5.95023 5.52026 5.71023C5.18026 5.47023 5.11026 5.00023 5.35026 4.66023C6.88026 2.52023 9.37026 1.24023 12.0103 1.24023C14.2003 1.24023 16.2603 2.09023 17.8103 3.64023C19.3603 5.19023 20.2103 7.25023 20.2103 9.44023V11.1502C20.2103 11.5602 19.8703 11.9002 19.4603 11.9002L19.4503 11.9102Z" fill="white"/> <path d="M4.5498 12.2499C4.1398 12.2499 3.7998 11.9099 3.7998 11.4999V9.44989C3.7998 8.41989 3.9898 7.41989 4.3598 6.47989C4.5098 6.09989 4.9398 5.90989 5.3298 6.04989C5.7198 6.19989 5.90981 6.63989 5.7598 7.01989C5.45981 7.78989 5.3098 8.60989 5.3098 9.44989V11.4999C5.3098 11.9099 4.9698 12.2499 4.5598 12.2499H4.5498Z" fill="white"/> <path d="M4.5498 12.04C4.1398 12.04 3.7998 11.7 3.7998 11.29V9.45C3.7998 7.26 4.6498 5.2 6.1998 3.65C7.7498 2.1 9.8098 1.25 11.9998 1.25C14.6398 1.25 17.1198 2.53 18.6598 4.67C18.8998 5.01 18.8198 5.47 18.4898 5.72C18.1498 5.96 17.6798 5.89 17.4398 5.55C16.1898 3.8 14.1598 2.76 11.9998 2.76C10.2098 2.76 8.5298 3.46 7.2698 4.72C5.9998 5.99 5.3098 7.67 5.3098 9.46V11.3C5.3098 11.71 4.9698 12.05 4.5598 12.05L4.5498 12.04Z" fill="white"/> <path d="M4.54004 22.6298C2.75004 22.6298 1.30004 21.1698 1.30004 19.3898C1.30004 19.3598 1.30004 19.3198 1.30004 19.2898L2.03004 13.9998C1.60004 13.8398 1.29004 13.4198 1.29004 12.9298V11.8998C1.29004 11.2698 1.80004 10.7598 2.43004 10.7598H6.63004C7.26004 10.7598 7.77004 11.2698 7.77004 11.8998V12.9298C7.77004 13.4198 7.46004 13.8398 7.03004 13.9998L7.77004 19.2898C7.77004 19.2898 7.77004 19.3598 7.77004 19.3898C7.77004 21.1798 6.31004 22.6298 4.52004 22.6298H4.54004ZM2.80004 19.4298C2.83004 20.3698 3.60004 21.1298 4.54004 21.1298C5.48004 21.1298 6.26004 20.3698 6.29004 19.4298L5.52004 13.8598C5.48004 13.5298 5.58004 13.1998 5.79004 12.9498C5.93004 12.7898 6.10004 12.6798 6.29004 12.6198V12.2498H2.80004V12.6198C2.99004 12.6798 3.17004 12.7998 3.30004 12.9498C3.52004 13.1998 3.62004 13.5298 3.57004 13.8598L2.80004 19.4298Z" fill="white"/> <path d="M19.46 22.6298C17.67 22.6298 16.21 21.1698 16.21 19.3898C16.21 19.3598 16.21 19.3198 16.21 19.2898L16.95 13.9998C16.52 13.8398 16.21 13.4198 16.21 12.9298V11.8998C16.21 11.2698 16.72 10.7598 17.35 10.7598H21.55C22.18 10.7598 22.69 11.2698 22.69 11.8998V12.9298C22.69 13.4198 22.38 13.8398 21.95 13.9998L22.68 19.2898C22.68 19.2898 22.68 19.3598 22.68 19.3898C22.68 21.1798 21.22 22.6298 19.44 22.6298H19.46ZM17.71 19.4298C17.74 20.3698 18.51 21.1298 19.46 21.1298C20.41 21.1298 21.18 20.3698 21.2 19.4298L20.43 13.8698C20.39 13.5398 20.49 13.2098 20.7 12.9598C20.84 12.7998 21.01 12.6898 21.2 12.6298V12.2598H17.71V12.6298C17.9 12.6898 18.08 12.8098 18.21 12.9598C18.43 13.2098 18.53 13.5398 18.48 13.8698L17.71 19.4398V19.4298Z" fill="white"/> </g> <defs> <clipPath id="clip0_2085_386235"> <rect width="24" height="24" fill="white"/> </clipPath> </defs> </svg>
