<svg width="24" height="24" viewBox="0 0 24 24" fill="none" xmlns="http://www.w3.org/2000/svg"> <g clip-path="url(#clip0_4482_3346)"> <path d="M4 22.75C2.48 22.75 1.25 21.52 1.25 20V4C1.25 2.48 2.48 1.25 4 1.25C5.52 1.25 6.75 2.48 6.75 4V20C6.75 21.52 5.52 22.75 4 22.75ZM4 2.75C3.31 2.75 2.75 3.31 2.75 4V20C2.75 20.69 3.31 21.25 4 21.25C4.69 21.25 5.25 20.69 5.25 20V4C5.25 3.31 4.69 2.75 4 2.75Z" fill="white"/> <path d="M12 22.75C10.48 22.75 9.25 21.52 9.25 20V10C9.25 8.48 10.48 7.25 12 7.25C13.52 7.25 14.75 8.48 14.75 10V20C14.75 21.52 13.52 22.75 12 22.75ZM12 8.75C11.31 8.75 10.75 9.31 10.75 10V20C10.75 20.69 11.31 21.25 12 21.25C12.69 21.25 13.25 20.69 13.25 20V10C13.25 9.31 12.69 8.75 12 8.75Z" fill="white"/> <path d="M20 22.75C18.48 22.75 17.25 21.52 17.25 20V16C17.25 14.48 18.48 13.25 20 13.25C21.52 13.25 22.75 14.48 22.75 16V20C22.75 21.52 21.52 22.75 20 22.75ZM20 14.75C19.31 14.75 18.75 15.31 18.75 16V20C18.75 20.69 19.31 21.25 20 21.25C20.69 21.25 21.25 20.69 21.25 20V16C21.25 15.31 20.69 14.75 20 14.75Z" fill="white"/> </g> <defs> <clipPath id="clip0_4482_3346"> <rect width="24" height="24" fill="white"/> </clipPath> </defs> </svg>
