<svg width="24" height="24" viewBox="0 0 24 24" fill="none" xmlns="http://www.w3.org/2000/svg"> <g clip-path="url(#clip0_4482_3323)"> <path d="M14 21.75H8.5C5.61 21.75 3.25 19.4 3.25 16.5V6.5C3.25 3.6 5.61 1.25 8.5 1.25H15.5C18.39 1.25 20.75 3.6 20.75 6.5V13.41C20.75 13.66 20.62 13.9 20.41 14.04C20.2 14.18 19.93 14.2 19.7 14.1C19.16 13.87 18.58 13.75 17.99 13.75C15.65 13.75 13.74 15.66 13.74 18C13.74 18.94 14.03 19.82 14.59 20.55C14.76 20.78 14.79 21.08 14.66 21.34C14.54 21.59 14.29 21.75 14 21.75ZM8.5 2.75C6.43 2.75 4.75 4.43 4.75 6.5V16.5C4.75 18.57 6.43 20.25 8.5 20.25H12.7C12.4 19.55 12.25 18.79 12.25 18C12.25 14.83 14.83 12.25 18 12.25C18.42 12.25 18.84 12.3 19.25 12.39V6.5C19.25 4.43 17.57 2.75 15.5 2.75H8.5Z" fill="white"/> <path d="M14 6.75H10C9.59 6.75 9.25 6.41 9.25 6C9.25 5.59 9.59 5.25 10 5.25H14C14.41 5.25 14.75 5.59 14.75 6C14.75 6.41 14.41 6.75 14 6.75Z" fill="white"/> <path d="M18 23.75C16.2 23.75 14.48 22.89 13.4 21.45C12.65 20.46 12.25 19.26 12.25 18C12.25 14.83 14.83 12.25 18 12.25C18.79 12.25 19.56 12.41 20.29 12.72C22.39 13.65 23.75 15.72 23.75 18C23.75 21.17 21.17 23.75 18 23.75ZM18 13.75C15.66 13.75 13.75 15.66 13.75 18C13.75 18.94 14.04 19.82 14.6 20.55C15.4 21.62 16.67 22.25 18 22.25C20.34 22.25 22.25 20.34 22.25 18C22.25 16.32 21.25 14.78 19.7 14.1C19.16 13.87 18.59 13.75 18 13.75Z" fill="white"/> <path d="M19.9001 17.64H16.1001C15.8001 17.64 15.5201 17.46 15.4101 17.18C15.2901 16.9 15.3601 16.58 15.5701 16.36L17.1501 14.78C17.4401 14.49 17.9201 14.49 18.2101 14.78C18.5001 15.07 18.5001 15.55 18.2101 15.84L17.9101 16.14H19.9001C20.3101 16.14 20.6501 16.48 20.6501 16.89C20.6501 17.3 20.3101 17.64 19.9001 17.64Z" fill="white"/> <path d="M18.3201 21.4401C18.1301 21.4401 17.9401 21.3701 17.7901 21.2201C17.5001 20.9301 17.5001 20.4501 17.7901 20.1601L18.0901 19.8601H16.1001C15.6901 19.8601 15.3501 19.5201 15.3501 19.1101C15.3501 18.7001 15.6901 18.3601 16.1001 18.3601H19.9001C20.2001 18.3601 20.4801 18.5401 20.5901 18.8201C20.7101 19.1001 20.6401 19.4201 20.4301 19.6401L18.8501 21.2201C18.7001 21.3701 18.5101 21.4401 18.3201 21.4401Z" fill="white"/> </g> <defs> <clipPath id="clip0_4482_3323"> <rect width="24" height="24" fill="white"/> </clipPath> </defs> </svg>
