<svg width="24" height="24" viewBox="0 0 24 24" fill="none" xmlns="http://www.w3.org/2000/svg"> <g clip-path="url(#clip0_2085_390606)"> <path d="M14.8998 11.5498H8.25977C7.84977 11.5498 7.50977 11.2098 7.50977 10.7998C7.50977 10.3898 7.84977 10.0498 8.25977 10.0498H14.8998C15.3098 10.0498 15.6498 10.3898 15.6498 10.7998C15.6498 11.2098 15.3098 11.5498 14.8998 11.5498Z" fill="white"/> <path d="M14.8998 14.04H8.25977C7.84977 14.04 7.50977 13.7 7.50977 13.29C7.50977 12.88 7.84977 12.54 8.25977 12.54H14.8998C15.3098 12.54 15.6498 12.88 15.6498 13.29C15.6498 13.7 15.3098 14.04 14.8998 14.04Z" fill="white"/> <path d="M18.71 22.7505H4.45996C2.93996 22.7505 1.70996 21.5205 1.70996 20.0005V11.6305C1.70996 11.3505 1.86996 11.0905 2.11996 10.9605C2.36996 10.8305 2.66996 10.8605 2.89996 11.0205L9.56996 15.8705C9.80996 16.0405 9.91996 16.3405 9.85996 16.6205C9.84996 16.6705 9.83996 16.7205 9.83996 16.7705C9.83996 17.4905 10.86 18.3205 11.58 18.7605C12.3 18.3205 13.31 17.4905 13.31 16.7705C13.31 16.7205 13.31 16.6705 13.29 16.6205C13.25 16.4005 13.3 16.1705 13.45 16.0005C13.51 15.9305 13.58 15.8605 13.67 15.8205L20.26 11.0205C20.49 10.8505 20.79 10.8305 21.04 10.9605C21.29 11.0905 21.45 11.3505 21.45 11.6305V20.0005C21.45 21.5205 20.22 22.7505 18.7 22.7505H18.71ZM3.20996 13.1005V20.0005C3.20996 20.6905 3.76996 21.2505 4.45996 21.2505H18.71C19.4 21.2505 19.96 20.6905 19.96 20.0005V13.1005L14.82 16.8405C14.76 18.7805 12.23 20.1405 11.93 20.2905C11.72 20.4005 11.46 20.4005 11.25 20.2905C10.96 20.1405 8.39996 18.7805 8.34996 16.8305L3.20996 13.0905V13.1005Z" fill="white"/> <path d="M14.6299 6.57047C14.4399 6.57047 14.2599 6.50047 14.1099 6.36047L11.7599 4.11047C11.6599 4.02047 11.5099 4.02047 11.4099 4.11047L10.1999 5.27047C9.89989 5.56047 9.42989 5.54047 9.13989 5.25047C8.84989 4.95047 8.86989 4.48047 9.15989 4.19047L10.3699 3.03047C11.0499 2.38047 12.1099 2.38047 12.7899 3.03047L15.1399 5.28047C15.4399 5.57047 15.4499 6.04047 15.1599 6.34047C15.0099 6.49047 14.8199 6.57047 14.6199 6.57047H14.6299Z" fill="white"/> <path d="M12.8298 9.05957H10.3398C9.92984 9.05957 9.58984 8.71957 9.58984 8.30957C9.58984 7.89957 9.92984 7.55957 10.3398 7.55957H12.8298C13.2398 7.55957 13.5798 7.89957 13.5798 8.30957C13.5798 8.71957 13.2398 9.05957 12.8298 9.05957Z" fill="white"/> <path d="M20.1199 22.1599C19.9699 22.1599 19.8299 22.1199 19.6999 22.0299L13.5999 17.8299C13.2599 17.5999 13.1699 17.1299 13.4099 16.7899C13.6399 16.4499 14.1099 16.3599 14.4499 16.5999L20.5499 20.7999C20.8899 21.0299 20.9799 21.4999 20.7399 21.8399C20.5899 22.0499 20.3599 22.1599 20.1199 22.1599Z" fill="white"/> <path d="M3.36014 22.2802C3.13014 22.2802 2.91014 22.1802 2.76014 21.9802C2.51014 21.6502 2.58014 21.1802 2.91014 20.9302L8.71014 16.6102C9.04014 16.3602 9.51014 16.4302 9.76014 16.7602C10.0101 17.0902 9.94014 17.5602 9.61014 17.8102L3.81014 22.1302C3.68014 22.2302 3.52014 22.2802 3.36014 22.2802Z" fill="white"/> <path d="M16.9699 6.57031H9.8999C9.4899 6.57031 9.1499 6.23031 9.1499 5.82031C9.1499 5.41031 9.4899 5.07031 9.8999 5.07031H16.9699C17.3799 5.07031 17.7199 5.41031 17.7199 5.82031C17.7199 6.23031 17.3799 6.57031 16.9699 6.57031Z" fill="white"/> <path d="M5.77979 14.7904C5.36979 14.7904 5.02979 14.4504 5.02979 14.0404V7.15039C5.02979 6.74039 5.36979 6.40039 5.77979 6.40039C6.18979 6.40039 6.52979 6.74039 6.52979 7.15039V14.0404C6.52979 14.4504 6.18979 14.7904 5.77979 14.7904Z" fill="white"/> <path d="M17.3999 14.7897C16.9899 14.7897 16.6499 14.4497 16.6499 14.0397V6.17969C16.6499 5.76969 16.9899 5.42969 17.3999 5.42969C17.8099 5.42969 18.1499 5.75969 18.1499 6.16969V14.0397C18.1499 14.4497 17.8099 14.7897 17.3999 14.7897Z" fill="white"/> <path d="M20.7099 12.3804C20.5199 12.3804 20.3399 12.3104 20.1899 12.1704L16.8799 9.01043L17.9299 7.94043L21.2199 11.0804C21.5199 11.3704 21.5299 11.8404 21.2399 12.1404C21.0899 12.2904 20.8999 12.3704 20.6999 12.3704L20.7099 12.3804Z" fill="white"/> <path d="M7.4402 9.12035C7.3202 9.12035 7.2102 9.09035 7.1002 9.04035C6.8002 8.89035 4.2002 7.50035 4.2002 5.53035C4.2002 4.33035 5.1702 3.36035 6.3702 3.36035C6.7502 3.36035 7.1102 3.46035 7.4402 3.64035C7.7602 3.46035 8.1302 3.36035 8.5102 3.36035C9.7102 3.36035 10.6802 4.33035 10.6802 5.53035C10.6802 7.50035 8.0802 8.89035 7.7802 9.04035C7.6702 9.10035 7.5602 9.12035 7.4402 9.12035ZM6.3702 4.85035C6.0002 4.85035 5.7002 5.15035 5.7002 5.52035C5.7002 6.24035 6.7202 7.06035 7.4402 7.50035C8.1602 7.05035 9.1802 6.23035 9.1802 5.52035C9.1802 5.15035 8.8802 4.85035 8.5102 4.85035C8.2502 4.85035 8.0802 5.00035 8.0102 5.08035C7.8702 5.24035 7.6602 5.34035 7.4502 5.34035C7.2302 5.34035 7.0302 5.25035 6.8902 5.08035C6.8102 4.99035 6.6502 4.85035 6.3902 4.85035H6.3702Z" fill="white"/> <path d="M18.6397 7.73C18.5197 7.73 18.4097 7.7 18.2997 7.65C17.9597 7.48 14.9897 5.89 14.9897 3.66C14.9897 2.33 16.0697 1.25 17.3997 1.25C17.8397 1.25 18.2697 1.37 18.6497 1.6C19.0197 1.37 19.4497 1.25 19.8997 1.25C21.2297 1.25 22.3097 2.33 22.3097 3.66C22.3097 5.89 19.3397 7.47 18.9997 7.65C18.8897 7.71 18.7797 7.73 18.6597 7.73H18.6397ZM17.3897 2.75C16.8897 2.75 16.4797 3.16 16.4797 3.66C16.4797 4.62 17.8397 5.64 18.6397 6.12C19.4397 5.64 20.7897 4.62 20.7897 3.66C20.7897 3.16 20.3797 2.75 19.8797 2.75C19.6197 2.75 19.3797 2.86 19.1997 3.07C19.0597 3.23 18.8497 3.33 18.6397 3.33C18.4197 3.33 18.2197 3.24 18.0797 3.07C17.8997 2.87 17.6597 2.75 17.3997 2.75H17.3897Z" fill="white"/> <path d="M2.46016 12.3797C2.26016 12.3797 2.06016 12.2997 1.92016 12.1497C1.63016 11.8497 1.65016 11.3797 1.94016 11.0897L5.26016 7.91967C5.56016 7.62967 6.03016 7.64967 6.32016 7.93967C6.61016 8.23967 6.59016 8.70967 6.30016 8.99967L2.98016 12.1697C2.83016 12.3097 2.65016 12.3797 2.46016 12.3797Z" fill="white"/> <path d="M11.5901 20.3804C11.4701 20.3804 11.3601 20.3504 11.2501 20.3004C10.9501 20.1504 8.3501 18.7604 8.3501 16.7804C8.3501 16.6304 8.3601 16.4804 8.3901 16.3304C8.6101 15.3104 9.4901 14.6104 10.5201 14.6104C10.9001 14.6104 11.2601 14.7104 11.5901 14.8904C11.9101 14.7104 12.2801 14.6104 12.6501 14.6104C13.6801 14.6104 14.5501 15.3104 14.7701 16.3204C14.8001 16.4804 14.8201 16.6304 14.8201 16.7804C14.8201 18.7604 12.2301 20.1504 11.9301 20.3004C11.8201 20.3604 11.7101 20.3804 11.5901 20.3804ZM10.5201 16.1104C10.2001 16.1104 9.9301 16.3304 9.8601 16.6404C9.8601 16.6804 9.8501 16.7304 9.8501 16.7804C9.8501 17.5004 10.8701 18.3304 11.5901 18.7704C12.3101 18.3304 13.3201 17.5004 13.3201 16.7804C13.3201 16.7304 13.3201 16.6804 13.3001 16.6304C13.2001 16.1604 12.5001 15.9504 12.1501 16.3404C12.0101 16.5004 11.8101 16.6004 11.5901 16.6004C11.3801 16.6004 11.1701 16.5104 11.0301 16.3504C10.8901 16.1904 10.7101 16.1104 10.5201 16.1104Z" fill="white"/> </g> <defs> <clipPath id="clip0_2085_390606"> <rect width="24" height="24" fill="white"/> </clipPath> </defs> </svg>
