<svg width="24" height="24" viewBox="0 0 24 24" fill="none" xmlns="http://www.w3.org/2000/svg"> <g clip-path="url(#clip0_2085_386241)"> <path d="M16.5 22.75H14.5C14.14 22.75 13.83 22.5 13.76 22.15C12.82 17.43 12.75 12.64 12.75 9.24H12C11.74 9.24 11.49 9.24 11.25 9.24C11.25 12.64 11.18 17.43 10.24 22.15C10.17 22.5 9.86 22.75 9.5 22.75H7.5C7.09 22.75 6.75 22.41 6.75 22C6.75 21.59 7.09 21.25 7.5 21.25H8.88C9.69 16.86 9.75 12.56 9.75 9.24C5.78 9.2 4.29 8.62 3.37 3.75H2.25C2.25 4.16 1.91 4.5 1.5 4.5C1.09 4.5 0.75 4.16 0.75 3.75V2.25C0.75 1.84 1.09 1.5 1.5 1.5C1.91 1.5 2.25 1.84 2.25 2.25H3.99C3.99 2.25 4.01 2.25 4.02 2.25H5.76C5.76 1.84 6.1 1.5 6.51 1.5C6.92 1.5 7.26 1.84 7.26 2.25V3.75C7.26 4.16 6.92 4.5 6.51 4.5C6.1 4.5 5.76 4.16 5.76 3.75H4.91C5.68 7.76 6.63 7.75 10.76 7.74C11.15 7.74 11.57 7.74 12.01 7.74H13.18C17.37 7.79 18.33 7.8 19.11 3.76H18.26C18.26 4.17 17.92 4.51 17.51 4.51C17.1 4.51 16.76 4.17 16.76 3.76V2.26C16.76 1.85 17.1 1.51 17.51 1.51C17.92 1.51 18.26 1.85 18.26 2.26H20C20 2.26 20.02 2.26 20.03 2.26H21.77C21.77 1.85 22.11 1.51 22.52 1.51C22.93 1.51 23.27 1.85 23.27 2.26V3.76C23.27 4.17 22.93 4.51 22.52 4.51C22.11 4.51 21.77 4.17 21.77 3.76H20.65C19.73 8.63 18.24 9.23 14.27 9.26C14.27 12.58 14.33 16.88 15.14 21.26H16.52C16.93 21.26 17.27 21.6 17.27 22.01C17.27 22.42 16.93 22.76 16.52 22.76L16.5 22.75ZM12 6.75C10.48 6.75 9.25 5.52 9.25 4C9.25 2.48 10.48 1.25 12 1.25C13.52 1.25 14.75 2.48 14.75 4C14.75 5.52 13.52 6.75 12 6.75ZM12 2.75C11.31 2.75 10.75 3.31 10.75 4C10.75 4.69 11.31 5.25 12 5.25C12.69 5.25 13.25 4.69 13.25 4C13.25 3.31 12.69 2.75 12 2.75Z" fill="white"/> </g> <defs> <clipPath id="clip0_2085_386241"> <rect width="24" height="24" fill="white"/> </clipPath> </defs> </svg>
