<svg width="24" height="24" viewBox="0 0 24 24" fill="none" xmlns="http://www.w3.org/2000/svg"> <g clip-path="url(#clip0_4482_5271)"> <path d="M16.2198 3.86974L13.2198 9.28974C12.9198 9.83974 13.1798 10.5197 13.7698 10.7197L17.8898 12.1197C18.5698 12.3497 18.7898 13.1997 18.3198 13.7297L11.4798 21.4297C11.1098 21.8497 10.4298 21.5297 10.4998 20.9797L11.2598 15.6897C11.3298 15.2197 11.0498 14.7697 10.6098 14.6097L6.09978 12.9997C5.52978 12.7997 5.2698 12.1397 5.5498 11.5997L9.96978 2.93974C10.1398 2.60974 10.4798 2.38974 10.8598 2.38974H15.3598C16.1098 2.37974 16.5898 3.19974 16.2198 3.86974Z" stroke="white" stroke-width="1.5" stroke-miterlimit="10" stroke-linecap="round"/> </g> <defs> <clipPath id="clip0_4482_5271"> <rect width="24" height="24" fill="white"/> </clipPath> </defs> </svg>
