<svg width="24" height="24" viewBox="0 0 24 24" fill="none" xmlns="http://www.w3.org/2000/svg"> <g clip-path="url(#clip0_4482_3520)"> <path d="M21.9998 10.4102V17.2002C21.9998 19.3002 20.2997 21.0002 18.1997 21.0002H8.51978C9.27978 20.1302 9.86975 18.9902 9.86975 17.5802C9.86975 16.2102 8.76978 15.1102 7.39978 15.1102C6.59978 15.1102 5.8797 15.5002 5.4397 16.1002C4.9897 15.5002 4.26973 15.1102 3.46973 15.1102C3.30973 15.1102 3.15977 15.1202 3.00977 15.1502V10.4102C3.00977 9.24024 3.54974 8.13024 4.47974 7.41024L10.1698 2.98023C11.5398 1.91023 13.4597 1.91023 14.8397 2.98023L20.5298 7.41024C21.4598 8.13024 21.9998 9.24024 21.9998 10.4102Z" stroke="white" stroke-width="1.5" stroke-linejoin="round"/> <path d="M9.87 17.5804C9.87 18.9904 9.28002 20.1304 8.52002 21.0004C7.60002 22.0604 6.41996 22.7204 5.70996 22.9604C5.55996 23.0104 5.31003 23.0104 5.16003 22.9604C3.87003 22.5204 1 20.6904 1 17.5804C1 16.3704 1.86001 15.3703 3.01001 15.1503C3.16001 15.1203 3.30997 15.1104 3.46997 15.1104C4.26997 15.1104 4.98994 15.5004 5.43994 16.1004C5.87994 15.5004 6.60002 15.1104 7.40002 15.1104C8.77002 15.1104 9.87 16.2104 9.87 17.5804Z" stroke="white" stroke-width="1.5" stroke-linecap="round" stroke-linejoin="round"/> </g> <defs> <clipPath id="clip0_4482_3520"> <rect width="24" height="24" fill="white"/> </clipPath> </defs> </svg>
