<svg width="24" height="24" viewBox="0 0 24 24" fill="none" xmlns="http://www.w3.org/2000/svg"> <g clip-path="url(#clip0_4482_5169)"> <path d="M11.9999 13.1304C9.89991 13.1304 7.80991 12.6904 5.84991 11.8204C5.57991 11.7004 5.4099 11.4404 5.3999 11.1504C5.3999 10.8604 5.5599 10.5904 5.8299 10.4604C6.0499 10.3604 6.24991 10.1804 6.43991 10.0104L6.94992 9.52043C7.19992 9.27043 7.4599 9.03042 7.7099 8.79042C8.1899 8.35042 8.7499 7.93043 9.5199 7.83043C9.5499 7.83043 9.5899 7.82044 9.6199 7.82044L10.1599 7.86043C10.6999 7.93043 11.1499 8.12043 11.4899 8.28043C11.8199 8.44043 12.1199 8.44043 12.4599 8.28043C12.7599 8.15043 13.0799 8.03042 13.4199 7.93042C13.5899 7.88042 13.7599 7.86043 13.9399 7.84043L14.1099 7.82044C14.2199 7.81044 14.3399 7.81043 14.4799 7.84043C14.9699 7.89043 15.3999 8.08042 15.7899 8.40042C16.1599 8.70042 16.5099 9.02043 16.8599 9.34043L17.1899 9.64043C17.5299 9.96043 17.8599 10.2604 18.2199 10.4404C18.4799 10.5704 18.6399 10.8404 18.6299 11.1304C18.6199 11.4204 18.4499 11.6804 18.1899 11.8004C16.2299 12.6904 14.1199 13.1304 11.9999 13.1304ZM7.66992 10.9204C10.4899 11.8704 13.5399 11.8704 16.3599 10.9204C16.2999 10.8704 16.2399 10.8104 16.1799 10.7604L15.8699 10.4804C15.5299 10.1804 15.1899 9.87043 14.8399 9.58043C14.6699 9.44043 14.4899 9.36044 14.3099 9.35044C14.2799 9.35044 14.2499 9.35043 14.2299 9.34043C14.1899 9.34043 14.1399 9.35044 14.0899 9.35044C14.0099 9.36044 13.9199 9.36043 13.8499 9.38043C13.5899 9.46043 13.3399 9.54042 13.0999 9.65042C12.3599 10.0004 11.5999 10.0004 10.8499 9.64043C10.4999 9.47043 10.2399 9.38044 9.9899 9.35044L9.68991 9.32044C9.35991 9.38044 9.06991 9.59042 8.71991 9.90042C8.46991 10.1304 8.2299 10.3604 7.9899 10.6004L7.66992 10.9204Z" fill="white"/> <path d="M12.0103 16.6705C11.6703 16.6705 11.3103 16.6505 10.9503 16.6005C9.84026 16.4505 8.88024 16.0305 8.09024 15.3505C7.56024 14.8905 7.11024 14.3305 6.62024 13.5305L6.41025 13.1805C6.11025 12.6705 5.82026 12.1905 5.45026 11.7905C5.32026 11.6505 5.24023 11.4705 5.24023 11.2705C5.24023 10.9705 5.42025 10.6505 5.69025 10.5305C5.90025 10.3905 6.22024 10.3505 6.46024 10.4505C10.0002 12.0205 14.0503 12.0205 17.5703 10.4305C17.7503 10.3505 17.9602 10.3405 18.1502 10.4205C18.1802 10.4305 18.2603 10.4705 18.2903 10.4905C18.5003 10.5805 18.5902 10.7505 18.6302 10.8005C18.7902 11.0605 18.7803 11.4105 18.6003 11.6505C18.5903 11.6605 18.5302 11.7405 18.5202 11.7405L18.3002 12.0405C18.2002 12.1805 18.1003 12.3105 18.0103 12.4605C17.9003 12.6305 17.8002 12.8005 17.7102 12.9705L17.5403 13.2605C17.1903 13.8705 16.8302 14.3705 16.4302 14.8105C15.6402 15.6705 14.6702 16.2405 13.5502 16.4905C13.0502 16.6105 12.5403 16.6705 12.0103 16.6705ZM7.78024 12.5305L7.91025 12.7405C8.31025 13.4005 8.67023 13.8605 9.08023 14.2105C9.65023 14.7005 10.3302 15.0005 11.1602 15.1105C11.9002 15.2105 12.5802 15.1805 13.2202 15.0305C14.0502 14.8405 14.7602 14.4305 15.3302 13.8005C15.6502 13.4505 15.9502 13.0305 16.2502 12.5205C13.4802 13.3305 10.5402 13.3305 7.78024 12.5305Z" fill="white"/> <path d="M12 22.75C6.07 22.75 1.25 17.93 1.25 12C1.25 6.07 6.07 1.25 12 1.25C17.93 1.25 22.75 6.07 22.75 12C22.75 17.93 17.93 22.75 12 22.75ZM12 2.75C6.9 2.75 2.75 6.9 2.75 12C2.75 17.1 6.9 21.25 12 21.25C17.1 21.25 21.25 17.1 21.25 12C21.25 6.9 17.1 2.75 12 2.75Z" fill="white"/> </g> <defs> <clipPath id="clip0_4482_5169"> <rect width="24" height="24" fill="white"/> </clipPath> </defs> </svg>
