<svg width="24" height="24" viewBox="0 0 24 24" fill="none" xmlns="http://www.w3.org/2000/svg"> <g clip-path="url(#clip0_4482_5163)"> <path d="M13.7 22.75H10.29C8.77004 22.75 7.54004 21.52 7.54004 20V13C7.54004 12.04 8.33004 11.25 9.29004 11.25H14.7C15.66 11.25 16.45 12.04 16.45 13V20C16.45 21.52 15.22 22.75 13.7 22.75ZM9.30005 12.75C9.16005 12.75 9.05005 12.86 9.05005 13V20C9.05005 20.69 9.61005 21.25 10.3 21.25H13.7101C14.4001 21.25 14.9601 20.69 14.9601 20V13C14.9601 12.86 14.8501 12.75 14.7101 12.75H9.30005Z" fill="white"/> <path d="M14.5802 12.7503H9.43018C9.02018 12.7503 8.68018 12.4103 8.68018 12.0003V10.0703C8.68018 9.11031 9.47018 8.32031 10.4302 8.32031H13.5802C14.5402 8.32031 15.3302 9.11031 15.3302 10.0703V12.0003C15.3302 12.4103 14.9902 12.7503 14.5802 12.7503ZM10.1702 11.2503H13.8202V10.0703C13.8202 9.93031 13.7102 9.82031 13.5702 9.82031H10.4202C10.2802 9.82031 10.1702 9.93031 10.1702 10.0703V11.2503Z" fill="white"/> <path d="M13.6201 9.82048H10.3901C9.98014 9.82048 9.64014 9.48048 9.64014 9.07048V2.54046C9.64014 2.06046 9.90014 1.63046 10.3201 1.40046C10.7401 1.17046 11.2501 1.20047 11.6401 1.47047L13.5901 2.77047C14.0801 3.10047 14.3701 3.64047 14.3701 4.23046V9.08047C14.3701 9.49047 14.0301 9.82048 13.6201 9.82048ZM11.1301 8.32048H12.8601V4.22047C12.8601 4.14047 12.8201 4.06046 12.7501 4.01046L11.1301 2.93046V8.32048Z" fill="white"/> <path d="M15.5 15.75H8.5C8.09 15.75 7.75 15.41 7.75 15C7.75 14.59 8.09 14.25 8.5 14.25H15.5C15.91 14.25 16.25 14.59 16.25 15C16.25 15.41 15.91 15.75 15.5 15.75Z" fill="white"/> </g> <defs> <clipPath id="clip0_4482_5163"> <rect width="24" height="24" fill="white"/> </clipPath> </defs> </svg>
