<svg width="24" height="24" viewBox="0 0 24 24" fill="none" xmlns="http://www.w3.org/2000/svg"> <g clip-path="url(#clip0_2085_390611)"> <path d="M9.26 19.6001H4C2.48 19.6001 1.25 18.3701 1.25 16.8501V11.5901C1.25 9.09006 3.11 7.02006 5.49 6.90006C6.73 6.84006 7.91 7.27006 8.82 8.12006C9.55 8.81006 10.01 9.70006 10.16 10.6801C11.13 10.8301 12.02 11.2901 12.72 12.0201C13.57 12.9201 14.01 14.1001 13.95 15.3501C13.83 17.7301 11.77 19.6001 9.26 19.6001ZM5.73 8.39006C5.68 8.39006 5.62 8.39006 5.57 8.39006C4.01 8.47006 2.75 9.90006 2.75 11.5801V16.8401C2.75 17.5301 3.31 18.0901 4 18.0901H9.26C10.94 18.0901 12.37 16.8201 12.45 15.2701C12.49 14.4401 12.2 13.6501 11.64 13.0601C11.07 12.4601 10.3 12.1301 9.47 12.1301C9.06 12.1301 8.72 11.7901 8.72 11.3801C8.72 10.5501 8.39 9.78006 7.79 9.21006C7.23 8.68006 6.51 8.39006 5.74 8.39006H5.73Z" fill="white"/> <path d="M6.98023 15.8609C5.88023 15.8609 4.99023 14.9709 4.99023 13.8709C4.99023 12.7709 5.89023 11.8809 6.98023 11.8809C8.07023 11.8809 8.97023 12.7709 8.97023 13.8709C8.97023 14.9709 8.07023 15.8609 6.98023 15.8609ZM6.98023 13.3709C6.71023 13.3709 6.49023 13.5909 6.49023 13.8609C6.49023 14.1309 6.71023 14.3509 6.98023 14.3509C7.25023 14.3509 7.47023 14.1309 7.47023 13.8609C7.47023 13.5909 7.25023 13.3709 6.98023 13.3709Z" fill="white"/> <path d="M4.49018 17.1104C4.30018 17.1104 4.11018 17.0404 3.96018 16.8904C3.67018 16.6004 3.67018 16.1204 3.96018 15.8304L5.57018 14.2204C5.86018 13.9304 6.34018 13.9304 6.63018 14.2204C6.92018 14.5104 6.92018 14.9904 6.63018 15.2804L5.02018 16.8904C4.87018 17.0404 4.68018 17.1104 4.49018 17.1104Z" fill="white"/> <path d="M12.88 14.3404C12.58 14.3404 12.29 14.1604 12.18 13.8604C12.03 13.4704 12.23 13.0404 12.62 12.8904C14.04 12.3504 14.99 11.0004 14.99 9.51039C14.99 7.52039 13.35 5.90039 11.34 5.90039C9.85003 5.90039 8.49003 6.84039 7.97003 8.23039C7.82003 8.62039 7.39003 8.81039 7.00003 8.67039C6.61003 8.52039 6.42003 8.09039 6.56003 7.70039C7.31003 5.73039 9.23003 4.40039 11.34 4.40039C14.18 4.40039 16.49 6.69039 16.49 9.51039C16.49 11.6104 15.15 13.5304 13.15 14.2904C13.06 14.3204 12.97 14.3404 12.88 14.3404Z" fill="white"/> <path d="M15.7302 13.3706C13.9202 13.3706 12.4502 11.9206 12.4502 10.1306C12.4502 8.34063 13.9202 6.89062 15.7302 6.89062C17.5402 6.89062 18.9702 8.34063 18.9702 10.1306C18.9702 11.9206 17.5202 13.3706 15.7302 13.3706ZM15.7302 8.39063C14.7702 8.39063 13.9502 9.19063 13.9502 10.1306C13.9502 11.0706 14.7702 11.8706 15.7302 11.8706C16.6902 11.8706 17.4702 11.0906 17.4702 10.1306C17.4702 9.17063 16.6902 8.39063 15.7302 8.39063Z" fill="white"/> <path d="M20.2398 18.8707C20.0398 18.8707 19.8498 18.7907 19.7098 18.6507L17.8398 16.7807C17.5498 16.4907 17.5498 16.0107 17.8398 15.7207L19.0598 14.5007L16.9698 12.4307C16.6798 12.1407 16.6698 11.6607 16.9698 11.3707C17.2598 11.0807 17.7398 11.0707 18.0298 11.3707L20.5598 13.8807C20.5598 13.8807 20.6298 13.9407 20.6698 13.9707C20.6998 14.0007 20.7298 14.0407 20.7498 14.0707L22.5298 15.8307C22.6698 15.9707 22.7498 16.1607 22.7498 16.3607C22.7498 16.5607 22.6698 16.7507 22.5298 16.8907L20.7698 18.6507C20.6298 18.7907 20.4398 18.8707 20.2398 18.8707ZM19.4298 16.2507L20.2398 17.0607L20.9398 16.3607L20.1298 15.5607L19.4398 16.2507H19.4298Z" fill="white"/> </g> <defs> <clipPath id="clip0_2085_390611"> <rect width="24" height="24" fill="white"/> </clipPath> </defs> </svg>
