<svg width="24" height="24" viewBox="0 0 24 24" fill="none" xmlns="http://www.w3.org/2000/svg"> <g clip-path="url(#clip0_4482_9981)"> <path d="M21.9997 22.75C21.5897 22.75 21.2497 22.41 21.2497 22V5.89C21.2497 4.16 19.8397 2.75 18.1097 2.75C16.3797 2.75 14.9697 4.16 14.9697 5.89V22C14.9697 22.41 14.6297 22.75 14.2197 22.75C13.8097 22.75 13.4697 22.41 13.4697 22V5.89C13.4697 3.33 15.5497 1.25 18.1097 1.25C20.6697 1.25 22.7497 3.33 22.7497 5.89V22C22.7497 22.41 22.4097 22.75 21.9997 22.75Z" fill="white"/> <path d="M2 22.75C1.59 22.75 1.25 22.41 1.25 22V6.44C1.25 3.58 3.58 1.25 6.44 1.25C6.85 1.25 7.19 1.59 7.19 2C7.19 2.41 6.85 2.75 6.44 2.75C4.4 2.75 2.75 4.41 2.75 6.44V22C2.75 22.41 2.41 22.75 2 22.75Z" fill="white"/> <path d="M17.5604 2.75H6.44043C6.03043 2.75 5.69043 2.41 5.69043 2C5.69043 1.59 6.03043 1.25 6.44043 1.25H17.5504C17.9604 1.25 18.3004 1.59 18.3004 2C18.3004 2.41 17.9604 2.75 17.5504 2.75H17.5604Z" fill="white"/> <path d="M22 21.6401H2C1.59 21.6401 1.25 21.3001 1.25 20.8901C1.25 20.4801 1.59 20.1401 2 20.1401H22C22.41 20.1401 22.75 20.4801 22.75 20.8901C22.75 21.3001 22.41 21.6401 22 21.6401Z" fill="white"/> <path d="M9.22008 17.1901H7.00008C5.67008 17.1901 4.58008 16.1101 4.58008 14.7701C4.58008 13.4301 5.66008 12.3501 7.00008 12.3501H9.22008C10.5501 12.3501 11.6401 13.4301 11.6401 14.7701C11.6401 16.1101 10.5601 17.1901 9.22008 17.1901ZM7.00008 13.8601C6.49008 13.8601 6.08008 14.2701 6.08008 14.7801C6.08008 15.2901 6.49008 15.7001 7.00008 15.7001H9.22008C9.72008 15.7001 10.1401 15.2901 10.1401 14.7801C10.1401 14.2701 9.73008 13.8601 9.22008 13.8601H7.00008Z" fill="white"/> <path d="M10.3296 10.5298H5.88965C5.47965 10.5298 5.13965 10.1898 5.13965 9.77979C5.13965 9.36979 5.47965 9.02979 5.88965 9.02979H10.3296C10.7396 9.02979 11.0796 9.36979 11.0796 9.77979C11.0796 10.1898 10.7396 10.5298 10.3296 10.5298Z" fill="white"/> </g> <defs> <clipPath id="clip0_4482_9981"> <rect width="24" height="24" fill="white"/> </clipPath> </defs> </svg>
