<svg width="24" height="24" viewBox="0 0 24 24" fill="none" xmlns="http://www.w3.org/2000/svg"> <g clip-path="url(#clip0_4482_5308)"> <path d="M17.36 20.4699C15.99 20.4699 14.69 19.9299 13.72 18.9599C12.75 17.9899 12.21 16.6999 12.21 15.3199C12.21 13.9399 12.75 12.6499 13.72 11.6799C14.69 10.7099 15.98 10.1699 17.36 10.1699C18.74 10.1699 20.03 10.7099 21 11.6799C21.97 12.6499 22.5099 13.9399 22.5099 15.3199C22.5099 16.6999 21.97 17.9899 21 18.9599C20.03 19.9299 18.73 20.4699 17.36 20.4699ZM17.36 11.6899C16.39 11.6899 15.47 12.0699 14.78 12.7599C14.09 13.4499 13.71 14.3599 13.71 15.3399C13.71 16.3199 14.09 17.2299 14.78 17.9199C16.16 19.2999 18.5599 19.2999 19.9299 17.9199C20.6199 17.2299 21 16.3199 21 15.3399C21 14.3599 20.6199 13.4499 19.9299 12.7599C19.2499 12.0699 18.33 11.6899 17.36 11.6899Z" fill="white"/> <path d="M11.1498 22.2899C10.9598 22.2899 10.7698 22.2199 10.6198 22.0699C10.3298 21.7799 10.3298 21.2999 10.6198 21.0099L13.7198 17.9099C14.0098 17.6199 14.4898 17.6199 14.7798 17.9099C15.0698 18.1999 15.0698 18.6799 14.7798 18.9699L11.6798 22.0699C11.5298 22.2199 11.3398 22.2899 11.1498 22.2899Z" fill="white"/> <path d="M13.2198 22.2896C13.0298 22.2896 12.8398 22.2196 12.6898 22.0696L10.5598 19.9396C10.2698 19.6496 10.2698 19.1696 10.5598 18.8796C10.8498 18.5896 11.3298 18.5896 11.6198 18.8796L13.7498 21.0096C14.0398 21.2996 14.0398 21.7796 13.7498 22.0696C13.5998 22.2196 13.4098 22.2896 13.2198 22.2896Z" fill="white"/> <path d="M6.49001 14.0601C5.16001 14.0601 3.91001 13.5401 2.96001 12.6001C2.02001 11.6601 1.5 10.4101 1.5 9.07008C1.5 7.73008 2.02001 6.49007 2.96001 5.54007C3.90001 4.60007 5.15001 4.08008 6.49001 4.08008C7.83001 4.08008 9.07 4.60007 10.02 5.54007C10.96 6.48007 11.48 7.73008 11.48 9.07008C11.48 10.4101 10.96 11.6501 10.02 12.6001C9.07 13.5401 7.82001 14.0601 6.49001 14.0601ZM6.49001 5.58008C5.56001 5.58008 4.68 5.94008 4.02 6.60008C3.36 7.26008 3 8.13008 3 9.07008C3 10.0101 3.36 10.8801 4.02 11.5401C5.34 12.8601 7.63 12.8601 8.95 11.5401C9.61 10.8801 9.97 10.0101 9.97 9.07008C9.97 8.13008 9.61 7.26008 8.95 6.60008C8.29 5.95008 7.42001 5.58008 6.49001 5.58008Z" fill="white"/> <path d="M9.47992 6.82041C9.28992 6.82041 9.09992 6.7504 8.94992 6.6004C8.65992 6.3104 8.65992 5.83039 8.94992 5.54039L12.5599 1.93039C12.8499 1.64039 13.3299 1.64039 13.6199 1.93039C13.9099 2.22039 13.9099 2.7004 13.6199 2.9904L10.0099 6.6004C9.86992 6.7504 9.67992 6.82041 9.47992 6.82041Z" fill="white"/> <path d="M13.1001 5.91995C12.6901 5.91995 12.3501 5.57995 12.3501 5.16995V3.20996H10.3901C9.98014 3.20996 9.64014 2.86996 9.64014 2.45996C9.64014 2.04996 9.98014 1.70996 10.3901 1.70996H13.1001C13.5101 1.70996 13.8501 2.04996 13.8501 2.45996V5.16995C13.8501 5.57995 13.5101 5.91995 13.1001 5.91995Z" fill="white"/> </g> <defs> <clipPath id="clip0_4482_5308"> <rect width="24" height="24" fill="white"/> </clipPath> </defs> </svg>
