<svg width="24" height="24" viewBox="0 0 24 24" fill="none" xmlns="http://www.w3.org/2000/svg"> <g clip-path="url(#clip0_4482_13538)"> <path d="M10.3302 16.0805C9.28023 16.0805 8.24023 15.6805 7.44023 14.8905C6.67023 14.1205 6.24023 13.0905 6.24023 12.0005C6.24023 10.9105 6.66023 9.88047 7.44023 9.11047C9.03023 7.52047 11.6202 7.52047 13.2102 9.11047C13.9802 9.88047 14.4102 10.9105 14.4102 12.0005C14.4102 13.0905 13.9902 14.1205 13.2102 14.8905C12.4102 15.6905 11.3702 16.0805 10.3202 16.0805H10.3302ZM10.3302 9.42047C9.67023 9.42047 9.01023 9.67047 8.50023 10.1705C8.01023 10.6605 7.74023 11.3105 7.74023 12.0005C7.74023 12.6905 8.01023 13.3405 8.50023 13.8305C9.51023 14.8405 11.1502 14.8405 12.1502 13.8305C12.6402 13.3405 12.9102 12.6905 12.9102 12.0005C12.9102 11.3105 12.6402 10.6605 12.1502 10.1705C11.6502 9.67047 10.9802 9.42047 10.3202 9.42047H10.3302Z" fill="white"/> <path d="M13.6701 16.0805C12.6201 16.0805 11.5801 15.6805 10.7801 14.8905C10.0101 14.1205 9.58008 13.0905 9.58008 12.0005C9.58008 10.9105 10.0001 9.88047 10.7801 9.11047C12.3701 7.52047 14.9601 7.52047 16.5501 9.11047C17.3201 9.88047 17.7501 10.9105 17.7501 12.0005C17.7501 13.0905 17.3301 14.1205 16.5501 14.8905C15.7501 15.6905 14.7101 16.0805 13.6601 16.0805H13.6701ZM13.6701 9.42047C13.0101 9.42047 12.3501 9.67047 11.8401 10.1705C11.3501 10.6605 11.0801 11.3105 11.0801 12.0005C11.0801 12.6905 11.3501 13.3405 11.8401 13.8305C12.8501 14.8405 14.4901 14.8405 15.4901 13.8305C15.9801 13.3405 16.2501 12.6905 16.2501 12.0005C16.2501 11.3105 15.9801 10.6605 15.4901 10.1705C14.9901 9.67047 14.3201 9.42047 13.6601 9.42047H13.6701Z" fill="white"/> <path d="M19 20.75H5C2.93 20.75 1.25 19.07 1.25 17V7C1.25 4.93 2.93 3.25 5 3.25H19C21.07 3.25 22.75 4.93 22.75 7V17C22.75 19.07 21.07 20.75 19 20.75ZM5 4.75C3.76 4.75 2.75 5.76 2.75 7V17C2.75 18.24 3.76 19.25 5 19.25H19C20.24 19.25 21.25 18.24 21.25 17V7C21.25 5.76 20.24 4.75 19 4.75H5Z" fill="white"/> </g> <defs> <clipPath id="clip0_4482_13538"> <rect width="24" height="24" fill="white"/> </clipPath> </defs> </svg>
