<svg width="24" height="24" viewBox="0 0 24 24" fill="none" xmlns="http://www.w3.org/2000/svg"> <g clip-path="url(#clip0_2085_386492)"> <path d="M12 22.7098C6.10004 22.7098 1.29004 17.9098 1.29004 11.9998C1.29004 6.0898 6.10004 1.2998 12 1.2998C17.9 1.2998 22.71 6.0998 22.71 12.0098C22.71 17.9198 17.91 22.7098 12 22.7098ZM12 2.6998C6.87004 2.6998 2.70004 6.8798 2.70004 11.9998C2.70004 17.1198 6.87004 21.2998 12 21.2998C17.13 21.2998 21.3 17.1298 21.3 11.9998C21.3 6.8698 17.13 2.6998 12 2.6998Z" fill="white"/> <path d="M11.9998 20.0399C11.8598 20.0399 11.7298 19.9999 11.6098 19.9199C11.4298 19.7999 7.2998 16.9899 7.2998 12.6699C7.2998 9.47988 10.3798 8.62988 11.9998 8.62988C12.2798 8.62988 12.5398 8.79988 12.6498 9.05988C12.7598 9.31988 12.6998 9.61988 12.4998 9.81988C12.4998 9.81988 11.3698 10.9899 11.3698 12.6599C11.3698 13.3599 11.5598 13.8499 11.8198 14.5399C12.2098 15.5699 12.6998 16.8499 12.6998 19.3299C12.6998 19.5899 12.5598 19.8299 12.3298 19.9499C12.2298 20.0099 12.1098 20.0299 11.9998 20.0299V20.0399ZM10.5098 10.3099C9.6298 10.6199 8.6998 11.2699 8.6998 12.6799C8.6998 14.9099 10.1298 16.7299 11.2098 17.7699C11.0698 16.5399 10.7698 15.7599 10.4998 15.0599C10.2198 14.3299 9.9598 13.6399 9.9598 12.6799C9.9598 11.7199 10.2098 10.9399 10.5098 10.3099Z" fill="white"/> <path d="M11.9999 20.0399C11.8899 20.0399 11.7699 20.0099 11.6699 19.9599C11.4399 19.8399 11.2999 19.5999 11.2999 19.3399C11.2999 16.8699 11.7899 15.5799 12.1799 14.5499C12.4399 13.8599 12.6299 13.3699 12.6299 12.6699C12.6299 10.9999 11.5099 9.83988 11.4999 9.82988C11.2999 9.62988 11.2399 9.32988 11.3499 9.05988C11.4599 8.79988 11.7099 8.62988 11.9999 8.62988C13.6299 8.62988 16.6999 9.46988 16.6999 12.6699C16.6999 16.9999 12.5599 19.8099 12.3899 19.9199C12.2699 19.9999 12.1399 20.0399 11.9999 20.0399ZM13.4799 10.2999C13.7799 10.9299 14.0299 11.7399 14.0299 12.6699C14.0299 13.5999 13.7699 14.3199 13.4899 15.0499C13.2199 15.7599 12.9199 16.5399 12.7799 17.7599C13.8599 16.7099 15.2899 14.8999 15.2899 12.6699C15.2899 11.2499 14.3499 10.5999 13.4799 10.2999Z" fill="white"/> <path d="M15.9998 13.3697C15.6098 13.3697 15.2998 13.0597 15.2998 12.6697C15.2998 10.5797 14.0498 9.06973 12.9498 7.73973C12.5998 7.31973 12.2698 6.91973 11.9998 6.52973C11.7298 6.91973 11.3998 7.31973 11.0498 7.73973C9.9498 9.06973 8.6998 10.5697 8.6998 12.6697C8.6998 13.0597 8.3898 13.3697 7.9998 13.3697C7.6098 13.3697 7.2998 13.0597 7.2998 12.6697C7.2998 10.0697 8.7798 8.27973 9.9698 6.84973C10.6498 6.02973 11.2998 5.24973 11.2998 4.66973C11.2998 4.27973 11.6098 3.96973 11.9998 3.96973C12.3898 3.96973 12.6998 4.27973 12.6998 4.66973C12.6998 5.24973 13.3498 6.01973 14.0298 6.84973C15.2198 8.28973 16.6998 10.0797 16.6998 12.6697C16.6998 13.0597 16.3898 13.3697 15.9998 13.3697Z" fill="white"/> </g> <defs> <clipPath id="clip0_2085_386492"> <rect width="24" height="24" fill="white"/> </clipPath> </defs> </svg>
