<svg width="24" height="24" viewBox="0 0 24 24" fill="none" xmlns="http://www.w3.org/2000/svg"> <g clip-path="url(#clip0_4482_3216)"> <path d="M15 22.72C12.66 22.72 10.75 20.81 10.75 18.47C10.75 16.13 12.66 14.22 15 14.22C17.34 14.22 19.25 16.13 19.25 18.47C19.25 20.81 17.34 22.72 15 22.72ZM15 15.72C13.48 15.72 12.25 16.95 12.25 18.47C12.25 19.99 13.48 21.22 15 21.22C16.52 21.22 17.75 19.99 17.75 18.47C17.75 16.95 16.52 15.72 15 15.72Z" fill="white"/> <path d="M18.1498 16.77L17.1797 15.63C17.3697 15.47 17.4797 15.23 17.4797 14.97V13.89C17.4797 13.41 17.0897 13.02 16.6097 13.02H13.3798C12.8998 13.02 12.5098 13.41 12.5098 13.89V14.96C12.5098 15.21 12.6198 15.45 12.8098 15.62L11.8398 16.76C11.3098 16.31 11.0098 15.65 11.0098 14.96V13.89C11.0098 12.58 12.0698 11.52 13.3798 11.52H16.6097C17.9197 11.52 18.9797 12.58 18.9797 13.89V14.97C18.9797 15.67 18.6798 16.33 18.1498 16.77Z" fill="white"/> <path d="M9.1499 22.75H7.1499C4.5299 22.75 2.3999 20.62 2.3999 18V6C2.3999 3.38 4.5299 1.25 7.1499 1.25H16.1499C18.7699 1.25 20.8999 3.38 20.8999 6V10C20.8999 10.41 20.5599 10.75 20.1499 10.75C19.7399 10.75 19.3999 10.41 19.3999 10V6C19.3999 4.21 17.9399 2.75 16.1499 2.75H7.1499C5.3599 2.75 3.8999 4.21 3.8999 6V18C3.8999 19.79 5.3599 21.25 7.1499 21.25H9.1499C9.5599 21.25 9.8999 21.59 9.8999 22C9.8999 22.41 9.5599 22.75 9.1499 22.75Z" fill="white"/> <path d="M17.1499 8.75H16.1499C14.6299 8.75 13.3999 7.52 13.3999 6V5C13.3999 4.59 13.7399 4.25 14.1499 4.25C14.5599 4.25 14.8999 4.59 14.8999 5V6C14.8999 6.69 15.4599 7.25 16.1499 7.25H17.1499C17.5599 7.25 17.8999 7.59 17.8999 8C17.8999 8.41 17.5599 8.75 17.1499 8.75Z" fill="white"/> </g> <defs> <clipPath id="clip0_4482_3216"> <rect width="24" height="24" fill="white"/> </clipPath> </defs> </svg>
