<svg width="24" height="24" viewBox="0 0 24 24" fill="none" xmlns="http://www.w3.org/2000/svg"> <path d="M4.51668 15.4581C4.81126 15.2179 5.24603 15.2353 5.52059 15.5098L8.44051 18.4297C8.58136 18.5706 8.66048 18.7618 8.66024 18.961C8.6599 19.1603 8.58 19.3518 8.43856 19.4922L7.50692 20.417L7.55574 20.4649L7.56063 20.4698C8.01336 20.9226 8.01336 21.6575 7.56063 22.1104L7.55965 22.1094C6.78708 22.8922 5.52395 22.8927 4.75106 22.1104V22.1114L1.83113 19.2012L1.83016 19.2002C1.05726 18.4274 1.05726 17.1626 1.83016 16.3897C2.28133 15.9388 3.0117 15.9372 3.46492 16.3848L3.52547 16.4434L4.46004 15.5098L4.51668 15.4581ZM4.06063 18.0303C3.7695 18.3215 3.29759 18.3238 3.00399 18.0352L2.75008 17.7862C2.74782 17.9143 2.79454 18.043 2.88973 18.1387L5.80965 21.0489L5.81551 21.0547V21.0557C5.90951 21.1516 6.03476 21.1974 6.15926 21.1963L5.91414 20.9551C5.77118 20.8146 5.69102 20.6224 5.69051 20.4219C5.69002 20.2215 5.76904 20.029 5.91121 19.8877L6.84774 18.9581L4.99031 17.1006L4.06063 18.0303Z" fill="white"/> <path d="M6.50977 10.5505C7.12266 9.9376 8.11758 9.9376 8.73047 10.5505L13.4004 15.2204C14.0133 15.8333 14.0133 16.8282 13.4004 17.4411C12.7875 18.0537 11.7828 18.0538 11.1699 17.4411L10.8301 17.1013L8.44043 19.4909C8.14754 19.7837 7.67274 19.7838 7.37988 19.4909L4.45996 16.571C4.31935 16.4304 4.24029 16.2396 4.24023 16.0407C4.24023 15.8419 4.31937 15.6511 4.45996 15.5105L6.85254 13.1169L6.50684 12.7683C5.89733 12.1552 5.89819 11.1623 6.50977 10.5505ZM7.66992 11.611C7.64282 11.5839 7.59742 11.5839 7.57031 11.611C7.55009 11.6314 7.5454 11.6618 7.55566 11.6872L7.57031 11.7106L7.57324 11.7136L8.44336 12.5935C8.7334 12.8868 8.73214 13.3594 8.44043 13.6511L6.05078 16.0407L7.91016 17.9001L10.2998 15.5105L10.3564 15.4587C10.651 15.2182 11.0857 15.2358 11.3604 15.5105L12.2305 16.3806C12.2414 16.3915 12.2595 16.4001 12.2852 16.4001C12.3108 16.4001 12.3289 16.3914 12.3398 16.3806C12.3669 16.3535 12.3669 16.3081 12.3398 16.281L7.66992 11.611Z" fill="white"/> <path d="M21.0799 1.30737C21.4917 1.321 21.8336 1.5225 22.0633 1.81225L22.1551 1.94116L22.1571 1.94409C23.1274 3.50392 22.9316 5.58949 21.5799 6.94116L12.9501 15.571C12.6572 15.8636 12.1823 15.8638 11.8895 15.571C11.5967 15.2782 11.5969 14.8034 11.8895 14.5105L20.5194 5.87963C21.326 5.07298 21.4768 3.84593 20.9657 2.88452C20.9649 2.88533 20.9645 2.88663 20.9637 2.88745L20.7879 3.06323C20.7856 3.06557 20.7825 3.06772 20.7801 3.07006C20.7778 3.0724 20.7756 3.07553 20.7733 3.07788L20.7528 3.09838C20.7505 3.10072 20.7473 3.10288 20.745 3.10522C20.7426 3.10755 20.7405 3.1107 20.7381 3.11303L20.6053 3.24584C20.603 3.24818 20.5999 3.25034 20.5975 3.25268C20.5952 3.25501 20.593 3.25816 20.5907 3.26049L20.4159 3.4353C20.4135 3.43764 20.4104 3.4398 20.4081 3.44213C20.4057 3.44447 20.4036 3.44761 20.4012 3.44995L20.3387 3.51245C20.3364 3.51478 20.3333 3.51694 20.3309 3.51928C20.3286 3.52161 20.3264 3.52476 20.3241 3.52709L20.2196 3.63159C20.2173 3.63391 20.2141 3.63609 20.2118 3.63842C20.2094 3.64076 20.2073 3.6439 20.2049 3.64623L20.1004 3.75073C20.0981 3.75306 20.095 3.75523 20.0926 3.75756C20.0903 3.7599 20.0881 3.76304 20.0858 3.76538L19.9393 3.91186C19.937 3.91419 19.9338 3.91636 19.9315 3.9187C19.9292 3.92102 19.927 3.92418 19.9247 3.92651L19.8973 3.95385C19.895 3.95619 19.8918 3.95835 19.8895 3.96069C19.8872 3.96302 19.885 3.96617 19.8827 3.9685L19.8553 3.99584C19.853 3.99818 19.8498 4.00035 19.8475 4.00268C19.8452 4.00501 19.843 4.00816 19.8407 4.01049L19.8133 4.03784C19.811 4.04016 19.8079 4.04234 19.8055 4.04467C19.8032 4.04701 19.801 4.05015 19.7987 4.05248L19.7713 4.07983C19.769 4.08216 19.7659 4.08434 19.7635 4.08666C19.7612 4.089 19.759 4.09214 19.7567 4.09448L19.7294 4.12182C19.727 4.12415 19.7239 4.12633 19.7215 4.12866C19.7192 4.13099 19.717 4.13414 19.7147 4.13647L19.6874 4.16381C19.685 4.16614 19.6819 4.16832 19.6796 4.17065C19.6772 4.17298 19.675 4.17613 19.6727 4.17846L19.6454 4.20581C19.643 4.20814 19.6399 4.21031 19.6376 4.21264C19.6352 4.21497 19.633 4.21813 19.6307 4.22045L19.4286 4.4226C19.4262 4.42493 19.4231 4.42711 19.4208 4.42944C19.4184 4.43177 19.4163 4.43492 19.4139 4.43725L19.2958 4.55541C19.2934 4.55774 19.2903 4.55992 19.2879 4.56225C19.2856 4.56458 19.2834 4.56773 19.2811 4.57006L18.9325 4.9187C18.9302 4.92102 18.927 4.92321 18.9247 4.92553C18.9223 4.92786 18.9202 4.93102 18.9178 4.93334L18.7928 5.05834C18.7905 5.06067 18.7873 5.06285 18.785 5.06518C18.7827 5.06751 18.7805 5.07067 18.7782 5.07299L18.6044 5.24682C18.602 5.24915 18.5989 5.25133 18.5965 5.25366C18.5942 5.25598 18.592 5.25914 18.5897 5.26147L18.5555 5.29565C18.5532 5.29797 18.55 5.30017 18.5477 5.30248C18.5454 5.30481 18.5432 5.30797 18.5409 5.3103L17.6766 6.17456C17.6743 6.17688 17.6711 6.17907 17.6688 6.18139C17.6665 6.18372 17.6643 6.18688 17.662 6.1892L17.6278 6.22338C17.6255 6.22571 17.6223 6.2279 17.62 6.23022C17.6177 6.23254 17.6155 6.23571 17.6131 6.23803L17.3905 6.46069C17.1957 6.65544 16.9674 6.88307 16.6542 7.01147C16.3442 7.13848 16.0194 7.14037 15.7303 7.14038H14.7997C14.4681 7.14039 14.4033 7.16711 14.3788 7.17846C14.3356 7.19845 14.265 7.24537 13.9999 7.51049C13.2199 8.29042 12.4705 9.04084 11.7206 9.79077L9.44029 12.071C9.14744 12.3637 8.6726 12.3637 8.37975 12.071C8.08691 11.7782 8.08701 11.3034 8.37975 11.0105L10.66 8.73022C11.4099 7.98029 12.1594 7.22987 12.9393 6.44995C13.1742 6.21507 13.4246 5.96715 13.7489 5.81713C14.0918 5.65851 14.4424 5.64039 14.7997 5.64038H15.7303C15.8836 5.64037 15.9727 5.63777 16.034 5.63159C16.0874 5.62618 16.095 5.62006 16.0858 5.62377C16.0947 5.61849 16.1475 5.58259 16.3299 5.40014L16.3504 5.37963C16.3528 5.37731 16.355 5.37415 16.3573 5.37182C16.3596 5.36954 16.3618 5.36726 16.3641 5.36498C16.3664 5.36266 16.3696 5.36047 16.3719 5.35815L16.3993 5.33081C16.4016 5.32848 16.4038 5.32532 16.4061 5.32299C16.4084 5.32071 16.4107 5.31844 16.4129 5.31616C16.4153 5.31383 16.4184 5.31165 16.4208 5.30932L16.4481 5.28198C16.4504 5.27965 16.4526 5.27649 16.4549 5.27416C16.4572 5.27189 16.4595 5.26961 16.4618 5.26733C16.4641 5.265 16.4673 5.26282 16.4696 5.26049L16.4969 5.23315C16.4993 5.23082 16.5014 5.22766 16.5038 5.22534C16.506 5.22306 16.5083 5.22078 16.5106 5.2185C16.5129 5.21618 16.5161 5.21399 16.5184 5.21166L16.5458 5.18432C16.5481 5.182 16.5503 5.17883 16.5526 5.17651C16.5549 5.17423 16.5572 5.17195 16.5594 5.16967C16.5618 5.16735 16.5649 5.16516 16.5672 5.16284L16.6014 5.12866C16.6037 5.12633 16.6059 5.12317 16.6083 5.12084C16.6105 5.11857 16.6128 5.11629 16.6151 5.11401C16.6174 5.11168 16.6206 5.1095 16.6229 5.10717L16.6503 5.07983C16.6526 5.0775 16.6548 5.07434 16.6571 5.07202C16.6594 5.06974 16.6616 5.06746 16.6639 5.06518C16.6663 5.06286 16.6694 5.06067 16.6717 5.05834L16.6991 5.031C16.7014 5.02868 16.7036 5.02551 16.7059 5.02319C16.7082 5.02091 16.7105 5.01863 16.7128 5.01635C16.7151 5.01403 16.7182 5.01184 16.7206 5.00952L16.7479 4.98217C16.7502 4.97985 16.7524 4.97668 16.7547 4.97436C16.757 4.97208 16.7593 4.9698 16.7616 4.96752C16.7639 4.9652 16.7671 4.96301 16.7694 4.96069L16.7967 4.93334C16.7991 4.93102 16.8012 4.92786 16.8036 4.92553L16.8104 4.9187C16.8127 4.91637 16.8159 4.91418 16.8182 4.91186L16.8456 4.88452C16.8479 4.88219 16.8501 4.87903 16.8524 4.8767C16.8547 4.87442 16.857 4.87215 16.8592 4.86987C16.8616 4.86754 16.8647 4.86536 16.8671 4.86303L16.8944 4.83569C16.8967 4.83336 16.8989 4.8302 16.9012 4.82788C16.9035 4.8256 16.9058 4.82332 16.9081 4.82104C16.9104 4.81872 16.9136 4.81653 16.9159 4.8142L16.9432 4.78686C16.9455 4.78454 16.9477 4.78137 16.9501 4.77905C16.9523 4.77677 16.9546 4.77449 16.9569 4.77221C16.9592 4.76989 16.9624 4.7677 16.9647 4.76538L16.9921 4.73803C16.9944 4.73571 16.9966 4.73254 16.9989 4.73022C17.0012 4.72794 17.0034 4.72566 17.0057 4.72338C17.008 4.72106 17.0112 4.71887 17.0135 4.71655L17.0409 4.6892C17.0432 4.68688 17.0454 4.68372 17.0477 4.68139L17.0546 4.67456C17.0569 4.67223 17.06 4.67004 17.0624 4.66772L17.0897 4.64038C17.092 4.63805 17.0942 4.63489 17.0965 4.63256C17.0988 4.63028 17.1011 4.62801 17.1034 4.62573C17.1057 4.6234 17.1089 4.62122 17.1112 4.61889L17.1385 4.59155C17.1409 4.58922 17.143 4.58606 17.1454 4.58373C17.1476 4.58146 17.1499 4.57918 17.1522 4.5769C17.1545 4.57457 17.1577 4.57239 17.16 4.57006L17.1874 4.54272C17.1897 4.54039 17.1919 4.53723 17.1942 4.53491C17.1965 4.53263 17.1988 4.53035 17.201 4.52807C17.2034 4.52575 17.2065 4.52356 17.2088 4.52123L17.2362 4.49389C17.2385 4.49157 17.2407 4.4884 17.243 4.48608C17.2453 4.4838 17.2476 4.48152 17.2499 4.47924C17.2522 4.47692 17.2554 4.47473 17.2577 4.47241L17.285 4.44506C17.2873 4.44274 17.2895 4.43958 17.2919 4.43725C17.2941 4.43497 17.2964 4.43269 17.2987 4.43041C17.301 4.42809 17.3042 4.4259 17.3065 4.42358L17.3338 4.39623C17.3362 4.39391 17.3384 4.39075 17.3407 4.38842C17.343 4.38614 17.3452 4.38387 17.3475 4.38159C17.3498 4.37926 17.353 4.37708 17.3553 4.37475L17.3827 4.34741C17.385 4.34508 17.3872 4.34192 17.3895 4.33959C17.3918 4.33732 17.3941 4.33504 17.3963 4.33276C17.3987 4.33043 17.4018 4.32825 17.4042 4.32592L17.4315 4.29858C17.4338 4.29625 17.436 4.29309 17.4383 4.29077L17.4452 4.28393C17.4475 4.2816 17.4507 4.27942 17.453 4.27709L17.4803 4.24975C17.4827 4.24742 17.4848 4.24426 17.4872 4.24194C17.4894 4.23966 17.4917 4.23738 17.494 4.2351C17.4963 4.23278 17.4995 4.23059 17.5018 4.22827L17.5292 4.20092C17.5315 4.1986 17.5337 4.19544 17.536 4.19311C17.5383 4.19078 17.5415 4.1886 17.5438 4.18627L17.5712 4.15893C17.5735 4.1566 17.5757 4.15344 17.578 4.15112C17.5803 4.14884 17.5825 4.14656 17.5848 4.14428C17.5872 4.14196 17.5903 4.13977 17.5926 4.13745L17.62 4.1101C17.6223 4.10778 17.6245 4.10462 17.6268 4.10229C17.6291 4.10001 17.6314 4.09773 17.6337 4.09545C17.636 4.09313 17.6391 4.09094 17.6415 4.08862L17.6688 4.06127C17.6711 4.05895 17.6733 4.05579 17.6756 4.05346L17.6825 4.04663C17.6848 4.0443 17.688 4.04212 17.6903 4.03979L17.7176 4.01245C17.72 4.01012 17.7221 4.00696 17.7245 4.00463C17.7268 4.00231 17.73 4.00012 17.7323 3.9978L17.7596 3.97045C17.762 3.96813 17.7641 3.96497 17.7665 3.96264C17.7687 3.96036 17.771 3.95808 17.7733 3.95581C17.7756 3.95348 17.7788 3.9513 17.7811 3.94897L17.8085 3.92163C17.8108 3.9193 17.813 3.91614 17.8153 3.91381C17.8176 3.91153 17.8198 3.90926 17.8221 3.90698C17.8245 3.90465 17.8276 3.90247 17.8299 3.90014L17.8573 3.8728C17.8596 3.87047 17.8618 3.86731 17.8641 3.86498C17.8664 3.86266 17.8696 3.86048 17.8719 3.85815L17.8993 3.83081C17.9016 3.82848 17.9038 3.82532 17.9061 3.82299C17.9084 3.82071 17.9107 3.81844 17.9129 3.81616C17.9153 3.81383 17.9184 3.81165 17.9208 3.80932L17.9481 3.78198C17.9504 3.77965 17.9526 3.77649 17.9549 3.77416C17.9572 3.77189 17.9595 3.76961 17.9618 3.76733C17.9641 3.765 17.9673 3.76282 17.9696 3.76049L17.9901 3.73998C17.9924 3.73766 17.9946 3.7345 17.9969 3.73217C17.9992 3.72989 18.0015 3.72762 18.0038 3.72534C18.0061 3.72301 18.0093 3.72083 18.0116 3.7185L18.0389 3.69116C18.0413 3.68883 18.0434 3.68567 18.0458 3.68334C18.048 3.68107 18.0503 3.67879 18.0526 3.67651C18.0549 3.67418 18.0581 3.672 18.0604 3.66967L18.0809 3.64916C18.0832 3.64684 18.0854 3.64368 18.0878 3.64135C18.09 3.63907 18.0923 3.6368 18.0946 3.63452C18.0969 3.63219 18.1001 3.63001 18.1024 3.62768L18.1297 3.60034C18.1321 3.59801 18.1343 3.59485 18.1366 3.59252C18.1389 3.59025 18.1411 3.58797 18.1434 3.58569C18.1457 3.58336 18.1489 3.58118 18.1512 3.57885L18.1717 3.55834C18.1741 3.55602 18.1762 3.55286 18.1786 3.55053C18.1809 3.54825 18.1831 3.54597 18.1854 3.5437C18.1877 3.54137 18.1909 3.53919 18.1932 3.53686L18.2206 3.50952C18.2229 3.50719 18.2251 3.50403 18.2274 3.5017C18.2297 3.49937 18.2329 3.4972 18.2352 3.49487L18.2626 3.46752C18.2649 3.46519 18.2671 3.46204 18.2694 3.45971C18.2717 3.45743 18.274 3.45515 18.2762 3.45288C18.2786 3.45055 18.2817 3.44837 18.284 3.44604L18.3046 3.42553C18.3069 3.4232 18.3091 3.42005 18.3114 3.41772C18.3137 3.41544 18.3159 3.41316 18.3182 3.41088C18.3206 3.40855 18.3237 3.40638 18.326 3.40405L18.3534 3.3767C18.3557 3.37437 18.3579 3.37122 18.3602 3.36889C18.3625 3.36656 18.3657 3.36439 18.368 3.36206L18.3954 3.33471C18.3977 3.33238 18.3999 3.32923 18.4022 3.3269C18.4045 3.32462 18.4068 3.32234 18.409 3.32006C18.4114 3.31773 18.4145 3.31556 18.4169 3.31323L18.4374 3.29272C18.4397 3.29039 18.4419 3.28724 18.4442 3.28491C18.4465 3.28263 18.4488 3.28035 18.451 3.27807C18.4534 3.27574 18.4565 3.27357 18.4588 3.27123L18.4794 3.25073C18.4817 3.2484 18.4839 3.24525 18.4862 3.24291C18.4885 3.24064 18.4907 3.23836 18.493 3.23608C18.4954 3.23375 18.4985 3.23157 18.5008 3.22924L18.5213 3.20873C18.5237 3.2064 18.5259 3.20325 18.5282 3.20092C18.5305 3.19864 18.5327 3.19637 18.535 3.19409C18.5374 3.19175 18.5405 3.18958 18.5428 3.18725L18.5702 3.15991C18.5725 3.15758 18.5747 3.15442 18.577 3.15209C18.5793 3.14976 18.5825 3.14759 18.5848 3.14526L18.6122 3.11791C18.6145 3.11558 18.6167 3.11243 18.619 3.1101C18.6213 3.10777 18.6245 3.1056 18.6268 3.10327L18.6542 3.07592C18.6565 3.07359 18.6587 3.07044 18.661 3.06811C18.6633 3.06578 18.6665 3.0636 18.6688 3.06127L18.6962 3.03393C18.6985 3.0316 18.7007 3.02845 18.703 3.02612C18.7053 3.02379 18.7085 3.02161 18.7108 3.01928L18.7381 2.99194C18.7405 2.9896 18.7426 2.98646 18.745 2.98413C18.7473 2.9818 18.7505 2.97962 18.7528 2.97729L18.7801 2.94995C18.7825 2.94761 18.7846 2.94447 18.787 2.94213C18.7893 2.9398 18.7925 2.93763 18.7948 2.9353L18.8221 2.90795C18.8245 2.90562 18.8266 2.90247 18.829 2.90014C18.8313 2.89781 18.8344 2.89564 18.8368 2.89331L18.8641 2.86596C18.8664 2.86364 18.8686 2.86048 18.871 2.85815C18.8733 2.85581 18.8764 2.85365 18.8788 2.85131L18.8993 2.83081C18.9016 2.82847 18.9038 2.82533 18.9061 2.82299C18.9084 2.82071 18.9107 2.81844 18.9129 2.81616C18.9153 2.81382 18.9184 2.81166 18.9208 2.80932L18.9413 2.78881C18.9436 2.78648 18.9458 2.78334 18.9481 2.781C18.9504 2.77872 18.9527 2.77644 18.9549 2.77416C18.9573 2.77183 18.9604 2.76966 18.9628 2.76733L18.9833 2.74682C18.9856 2.74449 18.9878 2.74134 18.9901 2.73901C18.9924 2.73673 18.9947 2.73445 18.9969 2.73217C18.9993 2.72984 19.0024 2.72767 19.0047 2.72534L19.0253 2.70483C19.0276 2.70249 19.0298 2.69935 19.0321 2.69702C19.0344 2.69468 19.0376 2.69251 19.0399 2.69018L19.0604 2.66967C19.0627 2.66734 19.0649 2.6642 19.0672 2.66186C19.0695 2.65958 19.0718 2.6573 19.0741 2.65502C19.0764 2.65269 19.0796 2.65052 19.0819 2.64819L19.1024 2.62768C19.1047 2.62534 19.1069 2.6222 19.1092 2.61987C19.1115 2.61759 19.1138 2.61531 19.1161 2.61303C19.1184 2.6107 19.1215 2.60853 19.1239 2.6062L19.1444 2.58569C19.1467 2.58335 19.1489 2.58021 19.1512 2.57788C19.1536 2.57555 19.1567 2.57337 19.159 2.57104L19.1796 2.55053C19.1819 2.5482 19.184 2.54506 19.1864 2.54272C19.1887 2.54044 19.1909 2.53816 19.1932 2.53588C19.1956 2.53355 19.1987 2.53138 19.201 2.52905L19.2215 2.50854C19.2239 2.5062 19.226 2.50306 19.2284 2.50073C19.2307 2.49845 19.2329 2.49617 19.2352 2.49389C19.2376 2.49155 19.2407 2.48939 19.243 2.48706L19.2635 2.46655C19.2659 2.46422 19.268 2.46107 19.2704 2.45873C19.2727 2.4564 19.2758 2.45424 19.2782 2.4519L19.2987 2.43139C19.301 2.42905 19.3032 2.42592 19.3055 2.42358C19.3078 2.4213 19.3101 2.41902 19.3124 2.41674C19.3147 2.4144 19.3178 2.41224 19.3202 2.40991L19.3407 2.3894C19.343 2.38707 19.3452 2.38392 19.3475 2.38159C19.3499 2.37925 19.353 2.37709 19.3553 2.37475L19.3758 2.35424C19.3782 2.3519 19.3803 2.34877 19.3827 2.34643C19.385 2.34415 19.3872 2.34187 19.3895 2.33959C19.3918 2.33726 19.395 2.3351 19.3973 2.33276L19.4178 2.31225C19.4202 2.30992 19.4223 2.30676 19.4247 2.30444C19.427 2.3021 19.4301 2.29994 19.4325 2.2976L19.453 2.27709C19.4553 2.27476 19.4575 2.27162 19.4598 2.26928C19.4622 2.26695 19.4653 2.26477 19.4676 2.26245L19.4881 2.24194C19.4905 2.2396 19.4926 2.23647 19.495 2.23413C19.4973 2.23185 19.4995 2.22957 19.5018 2.22729C19.5042 2.22495 19.5073 2.22279 19.5096 2.22045L19.5301 2.19995C19.5325 2.19761 19.5346 2.19447 19.537 2.19213C19.5393 2.18979 19.5424 2.18764 19.5448 2.1853L19.5653 2.16479C19.5676 2.16245 19.5698 2.15932 19.5721 2.15698C19.5745 2.15465 19.5776 2.15247 19.5799 2.15014L19.6004 2.12963C19.6028 2.12729 19.6049 2.12416 19.6073 2.12182C19.6096 2.11954 19.6118 2.11726 19.6141 2.11498C19.6165 2.11264 19.6196 2.11049 19.6219 2.10815L19.6356 2.09448C19.6379 2.09214 19.6401 2.08901 19.6424 2.08666C19.6447 2.08439 19.647 2.08211 19.6493 2.07983C19.6516 2.07749 19.6547 2.07533 19.6571 2.07299L19.6776 2.05248C19.6799 2.05015 19.6821 2.04701 19.6844 2.04467C19.6868 2.04233 19.6899 2.04018 19.6922 2.03784L19.7128 2.01733C19.7151 2.01499 19.7172 2.01186 19.7196 2.00952C19.7219 2.00718 19.7251 2.00502 19.7274 2.00268L19.7479 1.98217C19.7503 1.97983 19.7524 1.9767 19.7547 1.97436C19.7571 1.97203 19.7602 1.96985 19.7626 1.96752L19.7831 1.94702C19.7854 1.94467 19.7876 1.94155 19.7899 1.9392C19.7922 1.93693 19.7945 1.93465 19.7967 1.93237C19.7991 1.93003 19.8022 1.92787 19.8046 1.92553L19.8182 1.91186C19.8206 1.90952 19.8227 1.90639 19.8251 1.90405C19.8273 1.90177 19.8296 1.89949 19.8319 1.89721C19.8342 1.89487 19.8374 1.89272 19.8397 1.89038L19.8534 1.8767C19.8557 1.87436 19.8579 1.87123 19.8602 1.86889C19.8625 1.86661 19.8648 1.86433 19.8671 1.86206C19.8694 1.85971 19.8725 1.85756 19.8749 1.85522L19.8885 1.84155C19.8909 1.8392 19.893 1.83608 19.8954 1.83373C19.8976 1.83146 19.8999 1.82918 19.9022 1.8269C19.9045 1.82456 19.9077 1.82241 19.91 1.82006C20.2201 1.51009 20.6249 1.2924 21.0799 1.30737Z" fill="white"/> <path d="M12 14.1201C12.4142 14.1201 12.75 14.4559 12.75 14.8701C12.75 15.2843 12.4142 15.6201 12 15.6201H11.9902C11.576 15.6201 11.2402 15.2843 11.2402 14.8701C11.2402 14.4559 11.576 14.1201 11.9902 14.1201H12Z" fill="white"/> <path d="M10.8798 9.08979C11.1727 8.79689 11.6475 8.79689 11.9404 9.08979L12.5205 9.66987C12.8133 9.96276 12.8133 10.4375 12.5205 10.7304C12.2276 11.0233 11.7528 11.0232 11.4599 10.7304L10.8798 10.1503C10.5869 9.85744 10.5869 9.38268 10.8798 9.08979Z" fill="white"/> <path d="M13.2099 6.74994C13.5028 6.45705 13.9776 6.45705 14.2705 6.74994L14.8505 7.33002C15.1433 7.62292 15.1434 8.0977 14.8505 8.39057C14.5577 8.68344 14.0829 8.68338 13.79 8.39057L13.2099 7.81049C12.917 7.5176 12.917 7.04284 13.2099 6.74994Z" fill="white"/> </svg>
