<svg width="24" height="24" viewBox="0 0 24 24" fill="none" xmlns="http://www.w3.org/2000/svg"> <g clip-path="url(#clip0_4418_7299)"> <path d="M12 22.7808C11.31 22.7808 10.66 22.4307 10.2 21.8207L8.70001 19.8207C8.67001 19.7807 8.55 19.7307 8.5 19.7207H8C3.83 19.7207 1.25 18.5907 1.25 12.9707V7.9707C1.25 3.5507 3.58 1.2207 8 1.2207H16C20.42 1.2207 22.75 3.5507 22.75 7.9707V12.9707C22.75 17.3907 20.42 19.7207 16 19.7207H15.5C15.42 19.7207 15.35 19.7607 15.3 19.8207L13.8 21.8207C13.34 22.4307 12.69 22.7808 12 22.7808ZM8 2.7207C4.42 2.7207 2.75 4.3907 2.75 7.9707V12.9707C2.75 17.4907 4.3 18.2207 8 18.2207H8.5C9.01 18.2207 9.58999 18.5107 9.89999 18.9207L11.4 20.9207C11.75 21.3807 12.25 21.3807 12.6 20.9207L14.1 18.9207C14.43 18.4807 14.95 18.2207 15.5 18.2207H16C19.58 18.2207 21.25 16.5507 21.25 12.9707V7.9707C21.25 4.3907 19.58 2.7207 16 2.7207H8Z" fill="white"/> <path d="M7.99994 13.4507C7.80994 13.4507 7.61994 13.3806 7.46994 13.2306L5.46994 11.2306C5.17994 10.9406 5.17994 10.4606 5.46994 10.1706L7.46994 8.17063C7.75994 7.88063 8.23994 7.88063 8.52994 8.17063C8.81994 8.46062 8.81994 8.94062 8.52994 9.23062L7.05994 10.7007L8.52994 12.1706C8.81994 12.4606 8.81994 12.9406 8.52994 13.2306C8.37994 13.3806 8.18994 13.4507 7.99994 13.4507Z" fill="white"/> <path d="M15.9999 13.4507C15.8099 13.4507 15.6199 13.3806 15.4699 13.2306C15.1799 12.9406 15.1799 12.4606 15.4699 12.1706L16.9399 10.7007L15.4699 9.23062C15.1799 8.94062 15.1799 8.46062 15.4699 8.17063C15.7599 7.88063 16.2399 7.88063 16.5299 8.17063L18.5299 10.1706C18.8199 10.4606 18.8199 10.9406 18.5299 11.2306L16.5299 13.2306C16.3799 13.3806 16.1899 13.4507 15.9999 13.4507Z" fill="white"/> <path d="M10.9999 13.7798C10.8999 13.7798 10.7999 13.7597 10.6999 13.7197C10.3199 13.5597 10.1399 13.1197 10.3099 12.7297L12.3099 8.05975C12.4699 7.67975 12.9099 7.49973 13.2999 7.66973C13.6799 7.82973 13.8599 8.26972 13.6899 8.65972L11.6899 13.3298C11.5699 13.6098 11.2899 13.7798 10.9999 13.7798Z" fill="white"/> </g> <defs> <clipPath id="clip0_4418_7299"> <rect width="24" height="24" fill="white"/> </clipPath> </defs> </svg>
