<svg width="24" height="24" viewBox="0 0 24 24" fill="none" xmlns="http://www.w3.org/2000/svg"> <g clip-path="url(#clip0_2085_386087)"> <path d="M8.99988 22.7499C7.01988 22.7499 5.02988 21.9899 3.51988 20.4799C0.499883 17.4599 0.499883 12.5399 3.51988 9.51994C3.80988 9.22994 4.28988 9.22994 4.57988 9.51994C4.86988 9.80994 4.86988 10.2899 4.57988 10.5799C3.39988 11.7599 2.74988 13.3299 2.74988 14.9999C2.74988 16.6699 3.39988 18.2399 4.57988 19.4199C7.01988 21.8599 10.9799 21.8599 13.4199 19.4199L17.3699 15.4699C17.6599 15.1799 18.1399 15.1799 18.4299 15.4699C18.7199 15.7599 18.7199 16.2399 18.4299 16.5299L14.4799 20.4799C12.9699 21.9899 10.9799 22.7499 8.99988 22.7499ZM19.9999 14.6499C19.8099 14.6499 19.6199 14.5799 19.4699 14.4299C19.1799 14.1399 19.1799 13.6599 19.4699 13.3699L21.4699 11.3699C21.7599 11.0799 22.2399 11.0799 22.5299 11.3699C22.8199 11.6599 22.8199 12.1399 22.5299 12.4299L20.5299 14.4299C20.3799 14.5799 20.1899 14.6499 19.9999 14.6499ZM6.49988 8.34994C6.30988 8.34994 6.11988 8.27994 5.96988 8.12994C5.67988 7.83994 5.67988 7.35994 5.96988 7.06994L11.5699 1.46994C11.8599 1.17994 12.3399 1.17994 12.6299 1.46994C12.9199 1.75994 12.9199 2.23994 12.6299 2.52994L7.02988 8.12994C6.87988 8.27994 6.68988 8.34994 6.49988 8.34994Z" fill="white"/> <path d="M9 18.7502C8 18.7502 7.06 18.3602 6.35 17.6502C5.64 16.9402 5.25 16.0002 5.25 15.0002C5.25 14.0002 5.64 13.0602 6.35 12.3502C7.77 10.9302 10.24 10.9302 11.65 12.3502C12.36 13.0602 12.75 14.0002 12.75 15.0002C12.75 16.0002 12.36 16.9402 11.65 17.6502C10.94 18.3602 10 18.7502 9 18.7502ZM9 12.7502C8.4 12.7502 7.83 12.9802 7.41 13.4102C6.99 13.8402 6.75 14.4002 6.75 15.0002C6.75 15.6002 6.98 16.1702 7.41 16.5902C8.26 17.4402 9.74 17.4402 10.59 16.5902C11.01 16.1602 11.25 15.6002 11.25 15.0002C11.25 14.4002 11.02 13.8302 10.59 13.4102C10.17 12.9902 9.6 12.7502 9 12.7502Z" fill="white"/> <path d="M15.3598 13.6299C15.1698 13.6299 14.9798 13.5599 14.8298 13.4099C14.5398 13.1199 14.5398 12.6399 14.8298 12.3499L21.4698 5.70994C21.7598 5.41994 22.2398 5.41994 22.5298 5.70994C22.8198 5.99994 22.8198 6.47994 22.5298 6.76994L15.8898 13.4099C15.7398 13.5599 15.5498 13.6299 15.3598 13.6299ZM6.87982 13.6299C6.68982 13.6299 6.49982 13.5599 6.34982 13.4099C6.05982 13.1199 6.05982 12.6399 6.34982 12.3499L13.4698 5.22994C13.7598 4.93994 14.2398 4.93994 14.5298 5.22994C14.8198 5.51994 14.8198 5.99994 14.5298 6.28994L7.40982 13.4099C7.25982 13.5599 7.06982 13.6299 6.87982 13.6299ZM15.9998 4.50994C15.8098 4.50994 15.6198 4.43994 15.4698 4.28994C15.1798 3.99994 15.1798 3.51994 15.4698 3.22994L17.2298 1.46994C17.5198 1.17994 17.9998 1.17994 18.2898 1.46994C18.5798 1.75994 18.5798 2.23994 18.2898 2.52994L16.5298 4.28994C16.3798 4.43994 16.1898 4.50994 15.9998 4.50994Z" fill="white"/> </g> <defs> <clipPath id="clip0_2085_386087"> <rect width="24" height="24" fill="white"/> </clipPath> </defs> </svg>
