<svg width="24" height="24" viewBox="0 0 24 24" fill="none" xmlns="http://www.w3.org/2000/svg"> <g clip-path="url(#clip0_4482_5428)"> <path d="M16.6598 22.7497H9.56979C8.18979 22.7497 6.8898 22.0797 6.0798 20.9597L2.1498 15.4497C1.4298 14.4497 1.40976 13.0997 2.09976 12.0697C2.63976 11.2497 3.56978 10.7497 4.55978 10.7497C5.34978 10.7497 6.09975 11.0597 6.65975 11.6197L6.99978 11.9597V10.4797C6.99978 8.79972 8.24981 7.38972 9.83981 7.25972C10.5098 7.19972 11.1498 7.35973 11.6998 7.68973C11.6998 7.53973 11.6998 7.38972 11.6998 7.22972C11.6998 5.66972 11.6998 4.76973 11.7498 4.23973H11.6998C11.6998 3.43973 12.0098 2.68972 12.5798 2.11972C13.1998 1.49972 14.0698 1.17972 14.9298 1.24972C16.4798 1.36972 17.6998 2.73972 17.6998 4.36972V5.58972C17.7098 6.11972 17.7098 6.81973 17.7098 7.73973V8.05972C18.2498 7.72972 18.8998 7.56973 19.5698 7.62973C21.1598 7.75973 22.4098 9.17973 22.4098 10.8497V16.9997C22.4098 20.1697 19.8298 22.7497 16.6598 22.7497ZM4.55978 12.2497C4.06978 12.2497 3.61976 12.4897 3.34976 12.8997C2.99976 13.4197 3.00977 14.0697 3.36977 14.5697L7.29977 20.0797C7.82977 20.8097 8.67979 21.2497 9.56979 21.2497H16.6598C18.9998 21.2497 20.9098 19.3397 20.9098 16.9997V10.8697C20.9098 9.96972 20.2698 9.20972 19.4498 9.13972C18.9798 9.10972 18.5098 9.26973 18.1898 9.59973C17.8998 9.87973 17.7398 10.2497 17.7098 10.6597C17.6898 11.0597 17.3098 11.3597 16.9498 11.3697C16.4998 11.3697 16.3298 11.3697 16.2598 10.5797H16.2098C16.2198 10.4897 16.2198 10.3997 16.2398 10.3197C16.2298 10.1497 16.2198 9.94972 16.2198 9.72972C16.2098 9.67972 16.1998 9.61972 16.1998 9.55972V4.40973C16.1998 3.56973 15.5798 2.83972 14.8198 2.77972C14.3598 2.74972 13.9498 2.89973 13.6398 3.20973C13.3498 3.49973 13.1998 3.86973 13.1998 4.26973V4.27972C13.1998 4.36972 13.1998 5.81972 13.1998 7.25972C13.1998 8.53972 13.1998 9.37972 13.1698 9.92972C13.1798 10.0197 13.1898 10.1097 13.1998 10.1997H13.1498C13.0798 10.9497 12.9098 10.9597 12.4998 10.9897C12.2998 10.9997 12.1098 10.9297 11.9598 10.7997C11.8098 10.6697 11.7198 10.4797 11.7098 10.2797C11.6898 9.87972 11.5198 9.50973 11.2498 9.23973C10.9098 8.89973 10.4497 8.72973 9.96975 8.76973C9.15975 8.83973 8.50979 9.60972 8.50979 10.4997V13.7797C8.50979 14.0797 8.32977 14.3597 8.04977 14.4697C7.76977 14.5897 7.44976 14.5197 7.22976 14.3097L5.60977 12.6997C5.23977 12.3297 4.83978 12.2497 4.55978 12.2497Z" fill="white"/> <path d="M12.4502 12.7498C12.0402 12.7498 11.7002 12.4098 11.7002 11.9998V10.0098C11.7002 9.59977 12.0402 9.25977 12.4502 9.25977C12.8602 9.25977 13.2002 9.59977 13.2002 10.0098V11.9998C13.2002 12.4098 12.8602 12.7498 12.4502 12.7498Z" fill="white"/> <path d="M16.96 12.7498C16.55 12.7498 16.21 12.4098 16.21 11.9998V10.0098C16.21 9.59977 16.55 9.25977 16.96 9.25977C17.37 9.25977 17.71 9.59977 17.71 10.0098V11.9998C17.71 12.4098 17.37 12.7498 16.96 12.7498Z" fill="white"/> </g> <defs> <clipPath id="clip0_4482_5428"> <rect width="24" height="24" fill="white"/> </clipPath> </defs> </svg>
