<svg width="24" height="24" viewBox="0 0 24 24" fill="none" xmlns="http://www.w3.org/2000/svg"> <g clip-path="url(#clip0_4482_14342)"> <path d="M13 9.25H7C5.48 9.25 4.25 8.02 4.25 6.5V4.5C4.25 2.98 5.48 1.75 7 1.75H13C14.52 1.75 15.75 2.98 15.75 4.5V6.5C15.75 8.02 14.52 9.25 13 9.25ZM7 3.25C6.31 3.25 5.75 3.81 5.75 4.5V6.5C5.75 7.19 6.31 7.75 7 7.75H13C13.69 7.75 14.25 7.19 14.25 6.5V4.5C14.25 3.81 13.69 3.25 13 3.25H7Z" fill="white"/> <path d="M13 12.52C12.59 12.52 12.25 12.18 12.25 11.77V9.25H7.75V11.77C7.75 12.18 7.41 12.52 7 12.52C6.59 12.52 6.25 12.18 6.25 11.77V8.5C6.25 8.09 6.59 7.75 7 7.75H13C13.41 7.75 13.75 8.09 13.75 8.5V11.77C13.75 12.18 13.41 12.52 13 12.52Z" fill="white"/> <path d="M6.27 21.25H4C2.48 21.25 1.25 20.02 1.25 18.5V14.5C1.25 12.98 2.48 11.75 4 11.75H6.27C6.68 11.75 7.02 12.09 7.02 12.5C7.02 12.91 6.68 13.25 6.27 13.25H4C3.31 13.25 2.75 13.81 2.75 14.5V18.5C2.75 19.19 3.31 19.75 4 19.75H6.27C6.68 19.75 7.02 20.09 7.02 20.5C7.02 20.91 6.68 21.25 6.27 21.25Z" fill="white"/> <path d="M20.0005 21.25H13.7305C13.3205 21.25 12.9805 20.91 12.9805 20.5C12.9805 20.09 13.3205 19.75 13.7305 19.75H20.0005C20.6905 19.75 21.2505 19.19 21.2505 18.5V14.5C21.2505 13.81 20.6905 13.25 20.0005 13.25H13.7305C13.3205 13.25 12.9805 12.91 12.9805 12.5C12.9805 12.09 13.3205 11.75 13.7305 11.75H20.0005C21.5205 11.75 22.7505 12.98 22.7505 14.5V18.5C22.7505 20.02 21.5205 21.25 20.0005 21.25Z" fill="white"/> <path d="M18 18.75C16.76 18.75 15.75 17.74 15.75 16.5C15.75 15.26 16.76 14.25 18 14.25C19.24 14.25 20.25 15.26 20.25 16.5C20.25 17.74 19.24 18.75 18 18.75ZM18 15.75C17.59 15.75 17.25 16.09 17.25 16.5C17.25 16.91 17.59 17.25 18 17.25C18.41 17.25 18.75 16.91 18.75 16.5C18.75 16.09 18.41 15.75 18 15.75Z" fill="white"/> <path d="M12 22.25H8C6.48 22.25 5.25 21.02 5.25 19.5V13.5C5.25 11.98 6.48 10.75 8 10.75H12C13.52 10.75 14.75 11.98 14.75 13.5V19.5C14.75 21.02 13.52 22.25 12 22.25ZM8 12.25C7.31 12.25 6.75 12.81 6.75 13.5V19.5C6.75 20.19 7.31 20.75 8 20.75H12C12.69 20.75 13.25 20.19 13.25 19.5V13.5C13.25 12.81 12.69 12.25 12 12.25H8Z" fill="white"/> <path d="M11 16H9C8.59 16 8.25 15.66 8.25 15.25C8.25 14.84 8.59 14.5 9 14.5H11C11.41 14.5 11.75 14.84 11.75 15.25C11.75 15.66 11.41 16 11 16Z" fill="white"/> <path d="M11 18.5H9C8.59 18.5 8.25 18.16 8.25 17.75C8.25 17.34 8.59 17 9 17H11C11.41 17 11.75 17.34 11.75 17.75C11.75 18.16 11.41 18.5 11 18.5Z" fill="white"/> </g> <defs> <clipPath id="clip0_4482_14342"> <rect width="24" height="24" fill="white"/> </clipPath> </defs> </svg>
