<svg width="24" height="24" viewBox="0 0 24 24" fill="none" xmlns="http://www.w3.org/2000/svg"> <g clip-path="url(#clip0_4418_6783)"> <path d="M15 22.75H9C3.57 22.75 1.25 20.43 1.25 15V9C1.25 3.57 3.57 1.25 9 1.25H15C20.43 1.25 22.75 3.57 22.75 9V15C22.75 20.43 20.43 22.75 15 22.75ZM9 2.75C4.39 2.75 2.75 4.39 2.75 9V15C2.75 19.61 4.39 21.25 9 21.25H15C19.61 21.25 21.25 19.61 21.25 15V9C21.25 4.39 19.61 2.75 15 2.75H9Z" fill="white"/> <path d="M7 22.25C6.59 22.25 6.25 21.91 6.25 21.5V2.5C6.25 2.09 6.59 1.75 7 1.75C7.41 1.75 7.75 2.09 7.75 2.5V21.5C7.75 21.91 7.41 22.25 7 22.25Z" fill="white"/> <path d="M11.47 17.5503C10.23 17.5503 9.22998 16.5403 9.22998 15.3103C9.22998 14.0803 10.24 13.0703 11.47 13.0703C12.7 13.0703 13.71 14.0803 13.71 15.3103C13.71 16.5403 12.7 17.5503 11.47 17.5503ZM11.47 14.5603C11.06 14.5603 10.73 14.8903 10.73 15.3003C10.73 15.7103 11.06 16.0403 11.47 16.0403C11.88 16.0403 12.21 15.7103 12.21 15.3003C12.21 14.8903 11.87 14.5603 11.47 14.5603Z" fill="white"/> <path d="M12.96 16.0605C12.55 16.0605 12.21 15.7205 12.21 15.3105V9.30049C12.21 8.38049 12.79 7.6205 13.68 7.3805L16.66 6.57051C17.58 6.32051 18.16 6.5605 18.48 6.8105C18.94 7.1605 19.18 7.7305 19.18 8.5005V14.3305C19.18 14.7405 18.84 15.0805 18.43 15.0805C18.02 15.0805 17.68 14.7405 17.68 14.3305V8.5005C17.68 8.1705 17.61 8.03051 17.57 8.01051C17.52 7.97051 17.35 7.95053 17.06 8.03053L14.08 8.84053C13.84 8.91053 13.72 9.06051 13.72 9.32051V15.3305C13.71 15.7205 13.37 16.0605 12.96 16.0605Z" fill="white"/> <path d="M16.9299 16.5503C15.6899 16.5503 14.6899 15.5403 14.6899 14.3103C14.6899 13.0703 15.6999 12.0703 16.9299 12.0703C18.1599 12.0703 19.1699 13.0803 19.1699 14.3103C19.1799 15.5503 18.1699 16.5503 16.9299 16.5503ZM16.9299 13.5703C16.5199 13.5703 16.1899 13.9003 16.1899 14.3103C16.1899 14.7203 16.5199 15.0503 16.9299 15.0503C17.3399 15.0503 17.6699 14.7203 17.6699 14.3103C17.6699 13.9003 17.3399 13.5703 16.9299 13.5703Z" fill="white"/> <path d="M12.9601 11.7894C12.6301 11.7894 12.3301 11.5694 12.2401 11.2394C12.1301 10.8394 12.3701 10.4294 12.7701 10.3194L18.2401 8.82945C18.6401 8.71945 19.0501 8.95942 19.1601 9.35942C19.2701 9.75942 19.0301 10.1695 18.6301 10.2795L13.1601 11.7695C13.0901 11.7795 13.0201 11.7894 12.9601 11.7894Z" fill="white"/> </g> <defs> <clipPath id="clip0_4418_6783"> <rect width="24" height="24" fill="white"/> </clipPath> </defs> </svg>
