<svg width="24" height="24" viewBox="0 0 24 24" fill="none" xmlns="http://www.w3.org/2000/svg"> <g clip-path="url(#clip0_4482_10959)"> <path d="M7.56 17.1899C7.37 17.1899 7.17 17.1199 7.03 16.9699C6.74 16.6799 6.74 16.1999 7.03 15.9099L8.28 14.6599C8.57 14.3699 9.05 14.3699 9.34 14.6599C9.63 14.9499 9.63 15.4299 9.34 15.7199L8.09 16.9699C7.94 17.1199 7.75 17.1899 7.56 17.1899Z" fill="white"/> <path d="M11.7897 17.1901C10.5097 17.1901 9.23971 16.7001 8.26971 15.7201C7.33971 14.8001 6.81971 13.5701 6.80971 12.2501C6.79971 10.9501 7.31971 9.68012 8.22971 8.75012C9.75971 7.22012 12.2597 6.58012 15.4697 6.88012C16.3397 6.97012 17.0297 7.66012 17.1197 8.53012C17.4297 11.7401 16.7797 14.2501 15.2597 15.7701C14.2997 16.7201 13.0497 17.1901 11.7997 17.1901H11.7897ZM13.9597 8.30012C12.2997 8.30012 10.4697 8.62012 9.28971 9.80012C8.65971 10.4401 8.29971 11.3301 8.30971 12.2301C8.30971 13.1501 8.67971 14.0101 9.32971 14.6501C10.6697 16.0101 12.8497 16.0301 14.1897 14.7001C15.6997 13.1901 15.7997 10.5801 15.6197 8.67012C15.5997 8.51012 15.4797 8.38012 15.3097 8.37012C14.8797 8.33012 14.4197 8.30012 13.9497 8.30012H13.9597Z" fill="white"/> <path d="M12 22.75C6.07 22.75 1.25 17.93 1.25 12C1.25 6.07 6.07 1.25 12 1.25C17.93 1.25 22.75 6.07 22.75 12C22.75 17.93 17.93 22.75 12 22.75ZM12 2.75C6.9 2.75 2.75 6.9 2.75 12C2.75 17.1 6.9 21.25 12 21.25C17.1 21.25 21.25 17.1 21.25 12C21.25 6.9 17.1 2.75 12 2.75Z" fill="white"/> </g> <defs> <clipPath id="clip0_4482_10959"> <rect width="24" height="24" fill="white"/> </clipPath> </defs> </svg>
