<svg width="24" height="24" viewBox="0 0 24 24" fill="none" xmlns="http://www.w3.org/2000/svg"> <g clip-path="url(#clip0_2085_390657)"> <path d="M11.9998 22.7008C9.5398 22.7008 7.5498 20.7008 7.5498 18.2508C7.5498 15.8008 9.5498 13.8008 11.9998 13.8008C14.4498 13.8008 16.4498 15.8008 16.4498 18.2508C16.4498 20.7008 14.4498 22.7008 11.9998 22.7008ZM11.9998 15.2008C10.3198 15.2008 8.9498 16.5708 8.9498 18.2508C8.9498 19.9308 10.3198 21.3008 11.9998 21.3008C13.6798 21.3008 15.0498 19.9308 15.0498 18.2508C15.0498 16.5708 13.6798 15.2008 11.9998 15.2008Z" fill="white"/> <path d="M11.9998 20.2008C10.9198 20.2008 10.0498 19.3208 10.0498 18.2508C10.0498 17.1808 10.9298 16.3008 11.9998 16.3008C13.0698 16.3008 13.9498 17.1808 13.9498 18.2508C13.9498 19.3208 13.0698 20.2008 11.9998 20.2008ZM11.9998 17.7008C11.6998 17.7008 11.4498 17.9508 11.4498 18.2508C11.4498 18.5508 11.6998 18.8008 11.9998 18.8008C12.2998 18.8008 12.5498 18.5508 12.5498 18.2508C12.5498 17.9508 12.2998 17.7008 11.9998 17.7008Z" fill="white"/> <path d="M12.0101 15.2008C11.6201 15.2008 11.3101 14.8908 11.3101 14.5008V12.0008C11.3101 11.6108 11.6201 11.3008 12.0101 11.3008C12.4001 11.3008 12.7101 11.6108 12.7101 12.0008V14.5008C12.7101 14.8908 12.4001 15.2008 12.0101 15.2008Z" fill="white"/> <path d="M11.9999 12.7004C6.76987 12.7004 5.11987 2.54036 5.05987 2.11036C4.99987 1.73036 5.25987 1.37036 5.64987 1.31036C6.03987 1.25036 6.38987 1.51036 6.44987 1.90036C6.85987 4.52036 8.65987 11.3104 11.9999 11.3104C15.3399 11.3104 17.1499 4.52036 17.5599 1.90036C17.6199 1.52036 17.9799 1.25036 18.3599 1.31036C18.7399 1.37036 19.0099 1.73036 18.9499 2.11036C18.8799 2.54036 17.2299 12.7004 11.9999 12.7004Z" fill="white"/> </g> <defs> <clipPath id="clip0_2085_390657"> <rect width="24" height="24" fill="white"/> </clipPath> </defs> </svg>
