<svg width="24" height="24" viewBox="0 0 24 24" fill="none" xmlns="http://www.w3.org/2000/svg"> <g clip-path="url(#clip0_4482_10961)"> <path d="M16.1505 5.91016H7.73047C7.32047 5.91016 6.98047 5.57016 6.98047 5.16016C6.98047 4.75016 7.32047 4.41016 7.73047 4.41016H16.1505C16.5605 4.41016 16.9005 4.75016 16.9005 5.16016C16.9005 5.57016 16.5605 5.91016 16.1505 5.91016Z" fill="white"/> <path d="M17.2098 18.54C16.8598 18.54 16.5498 18.29 16.4798 17.94L13.7398 4.21C13.5698 3.36 12.8198 2.75 11.9598 2.75C11.0998 2.75 10.3498 3.36 10.1798 4.21L7.42976 17.94C7.34976 18.35 6.94976 18.61 6.54976 18.53C6.13976 18.45 5.87976 18.05 5.95976 17.65L8.68976 3.92C8.99976 2.37 10.3698 1.25 11.9398 1.25C13.5098 1.25 14.8798 2.37 15.1898 3.92L17.9298 17.65C18.0098 18.06 17.7498 18.45 17.3398 18.53C17.2898 18.54 17.2398 18.54 17.1898 18.54H17.2098Z" fill="white"/> <path d="M4.84033 22.7499C3.73033 22.7499 2.66033 22.2799 1.91033 21.4499C1.63033 21.1399 1.66033 20.6699 1.96033 20.3899C2.27033 20.1099 2.74033 20.1399 3.02033 20.4399C3.94033 21.4599 5.72033 21.4599 6.64033 20.4399C6.92033 20.1299 7.39033 20.1099 7.70033 20.3899C8.01033 20.6699 8.03033 21.1399 7.75033 21.4499C7.00033 22.2799 5.94033 22.7499 4.83033 22.7499H4.84033Z" fill="white"/> <path d="M9.57959 22.7499C8.46959 22.7499 7.39959 22.2799 6.64959 21.4499C6.36959 21.1399 6.39959 20.6699 6.69959 20.3899C7.00959 20.1099 7.47959 20.1399 7.75959 20.4399C8.67959 21.4599 10.4596 21.4599 11.3796 20.4399C11.6596 20.1299 12.1296 20.1099 12.4396 20.3899C12.7496 20.6699 12.7696 21.1399 12.4896 21.4499C11.7396 22.2799 10.6796 22.7499 9.56959 22.7499H9.57959Z" fill="white"/> <path d="M14.3101 22.7499C13.2001 22.7499 12.1301 22.2799 11.3801 21.4499C11.1001 21.1399 11.1301 20.6699 11.4301 20.3899C11.7401 20.1099 12.2101 20.1399 12.4901 20.4399C13.4101 21.4599 15.1901 21.4599 16.1101 20.4399C16.3901 20.1299 16.8601 20.1099 17.1701 20.3899C17.4801 20.6699 17.5001 21.1399 17.2201 21.4499C16.4701 22.2799 15.4101 22.7499 14.3001 22.7499H14.3101Z" fill="white"/> <path d="M19.0503 22.7499C17.9403 22.7499 16.8703 22.2799 16.1203 21.4499C15.8403 21.1399 15.8703 20.6699 16.1703 20.3899C16.4803 20.1099 16.9503 20.1399 17.2303 20.4399C18.1503 21.4599 19.9303 21.4599 20.8503 20.4399C21.1303 20.1299 21.6003 20.1099 21.9103 20.3899C22.2203 20.6699 22.2403 21.1399 21.9603 21.4499C21.2103 22.2799 20.1503 22.7499 19.0303 22.7499H19.0503Z" fill="white"/> <path d="M17.2101 18.5399C17.1101 18.5399 17.0201 18.5199 16.9201 18.4799L7.20008 14.4599C6.82008 14.2999 6.64008 13.8599 6.79008 13.4799C6.95008 13.0999 7.39008 12.9199 7.77008 13.0699L17.4901 17.0899C17.8701 17.2499 18.0501 17.6899 17.9001 18.0699C17.7801 18.3599 17.5001 18.5299 17.2101 18.5299V18.5399Z" fill="white"/> <path d="M7.48965 14.5199C7.18965 14.5199 6.90965 14.3399 6.78965 14.0399C6.63965 13.6499 6.82965 13.2199 7.20965 13.0699L15.4797 9.81993C15.8697 9.66993 16.2997 9.85993 16.4497 10.2399C16.5997 10.6299 16.4097 11.0599 16.0297 11.2099L7.75965 14.4599C7.66965 14.4999 7.57965 14.5099 7.48965 14.5099V14.5199Z" fill="white"/> <path d="M15.7498 11.2702C15.6598 11.2702 15.5598 11.2502 15.4698 11.2102L8.42983 8.33024C8.04983 8.17024 7.85983 7.74024 8.01983 7.35024C8.17983 6.97024 8.60983 6.78024 8.99983 6.94024L16.0398 9.82024C16.4198 9.98024 16.6098 10.4102 16.4498 10.8002C16.3298 11.0902 16.0498 11.2702 15.7598 11.2702H15.7498Z" fill="white"/> </g> <defs> <clipPath id="clip0_4482_10961"> <rect width="24" height="24" fill="white"/> </clipPath> </defs> </svg>
