<svg width="24" height="24" viewBox="0 0 24 24" fill="none" xmlns="http://www.w3.org/2000/svg"> <g clip-path="url(#clip0_4482_14143)"> <path d="M12.1503 18.3099C11.5703 18.3099 10.9903 18.1399 10.4803 17.7999L2.21033 12.1899C1.74033 11.8699 1.44033 11.3599 1.40033 10.7899C1.36033 10.2199 1.57033 9.66988 1.99033 9.27988L4.97033 6.53988C5.27033 6.25988 5.75033 6.27988 6.03033 6.57988C6.31033 6.87988 6.29033 7.35988 5.99033 7.63988L3.02033 10.3799C2.91033 10.4799 2.90033 10.6099 2.91033 10.6699C2.91033 10.7299 2.94033 10.8599 3.07033 10.9399L11.3403 16.5399C11.8403 16.8799 12.4903 16.8799 13.0003 16.5399L21.2603 10.9399C21.3903 10.8499 21.4103 10.7299 21.4203 10.6699C21.4203 10.6099 21.4203 10.4799 21.3003 10.3799L18.3303 7.67988C18.0203 7.39988 18.0003 6.92988 18.2803 6.61988C18.5603 6.30988 19.0303 6.28988 19.3403 6.56988L22.3103 9.26988C22.7303 9.65988 22.9603 10.2099 22.9103 10.7799C22.8703 11.3499 22.5703 11.8699 22.1003 12.1899L13.8403 17.7899C13.3303 18.1299 12.7503 18.2999 12.1703 18.2999L12.1503 18.3099Z" fill="white"/> <path d="M21.0296 22.7504H3.24965C2.21965 22.7504 1.38965 21.9004 1.38965 20.8604V10.6104C1.38965 10.2004 1.72965 9.86035 2.13965 9.86035C2.54965 9.86035 2.88965 10.2004 2.88965 10.6104V20.8604C2.88965 21.0704 3.04965 21.2504 3.24965 21.2504H21.0296C21.2297 21.2504 21.3896 21.0804 21.3896 20.8604V10.6104C21.3896 10.2004 21.7296 9.86035 22.1396 9.86035C22.5496 9.86035 22.8896 10.2004 22.8896 10.6104V20.8604C22.8896 21.9004 22.0597 22.7504 21.0296 22.7504Z" fill="white"/> <path d="M2.47992 22.4203C2.28992 22.4203 2.09992 22.3503 1.94992 22.2003C1.65992 21.9103 1.65992 21.4303 1.94992 21.1403L8.02992 15.0603C8.31992 14.7703 8.79992 14.7703 9.08992 15.0603C9.37992 15.3503 9.37992 15.8303 9.08992 16.1203L3.00992 22.2003C2.85992 22.3503 2.66992 22.4203 2.47992 22.4203Z" fill="white"/> <path d="M21.8099 22.4203C21.6199 22.4203 21.4299 22.3503 21.2799 22.2003L15.1999 16.1203C14.9099 15.8303 14.9099 15.3503 15.1999 15.0603C15.4899 14.7703 15.9699 14.7703 16.2599 15.0603L22.3399 21.1403C22.6299 21.4303 22.6299 21.9103 22.3399 22.2003C22.1899 22.3503 21.9999 22.4203 21.8099 22.4203Z" fill="white"/> <path d="M18.8105 14.17C18.4005 14.17 18.0605 13.83 18.0605 13.42V5C18.0605 3.76 17.0505 2.75 15.8105 2.75H8.48047C7.24047 2.75 6.23047 3.76 6.23047 5V13.42C6.23047 13.83 5.89047 14.17 5.48047 14.17C5.07047 14.17 4.73047 13.83 4.73047 13.42V5C4.73047 2.93 6.41047 1.25 8.48047 1.25H15.8105C17.8805 1.25 19.5605 2.93 19.5605 5V13.42C19.5605 13.83 19.2205 14.17 18.8105 14.17Z" fill="white"/> <path d="M12.1396 12.7504C11.6696 12.7504 8.05957 10.8904 8.05957 8.44043C8.05957 7.11043 9.14957 5.69043 10.7696 5.69043C11.2696 5.69043 11.7296 5.82043 12.1396 6.07043C12.5396 5.82043 13.0096 5.69043 13.5096 5.69043C15.1296 5.69043 16.2196 7.11043 16.2196 8.44043C16.2196 10.8904 12.6096 12.7504 12.1396 12.7504ZM10.7696 7.19043C10.0496 7.19043 9.55957 7.85043 9.55957 8.44043C9.55957 9.54043 11.3196 10.7304 12.1396 11.1704C12.9596 10.7304 14.7196 9.54043 14.7196 8.44043C14.7196 7.85043 14.2196 7.19043 13.5096 7.19043C13.1796 7.19043 12.9096 7.31043 12.6996 7.54043C12.5596 7.70043 12.3596 7.79043 12.1496 7.79043C11.9396 7.79043 11.7396 7.70043 11.5996 7.55043C11.3896 7.32043 11.1096 7.20043 10.7796 7.20043L10.7696 7.19043Z" fill="white"/> </g> <defs> <clipPath id="clip0_4482_14143"> <rect width="24" height="24" fill="white"/> </clipPath> </defs> </svg>
