<svg width="24" height="24" viewBox="0 0 24 24" fill="none" xmlns="http://www.w3.org/2000/svg"> <g clip-path="url(#clip0_2085_386097)"> <path d="M8.58016 22.7399C6.49016 22.7399 4.62016 22.0699 3.27016 20.7199C2.98016 20.4299 2.98016 19.9499 3.27016 19.6599C3.56016 19.3699 4.04016 19.3699 4.33016 19.6599C6.49016 21.8199 10.4502 21.7699 14.2002 19.5499C14.5602 19.3399 15.0202 19.4599 15.2302 19.8099C15.4402 20.1699 15.3202 20.6299 14.9702 20.8399C12.8302 22.1099 10.6102 22.7399 8.58016 22.7399ZM17.7302 18.4799C17.5402 18.4799 17.3502 18.4099 17.2002 18.2599C16.9102 17.9699 16.9102 17.4899 17.2002 17.1999C21.4202 12.9799 22.5302 7.19989 19.6602 4.32989C17.4002 2.06989 13.2802 2.20989 9.40016 4.68989C9.05016 4.90989 8.59016 4.80989 8.36016 4.45989C8.14016 4.10989 8.24016 3.64989 8.59016 3.41989C13.0702 0.559895 17.9402 0.499894 20.7202 3.26989C24.1702 6.72989 23.0702 13.4499 18.2602 18.2599C18.1102 18.4099 17.9202 18.4799 17.7302 18.4799ZM2.15016 17.7499C1.80016 17.7499 1.49016 17.4999 1.42016 17.1499C0.700162 13.5599 2.40016 9.07989 5.74016 5.73989C6.03016 5.44989 6.51016 5.44989 6.80016 5.73989C7.09016 6.02989 7.09016 6.50989 6.80016 6.79989C3.80016 9.79989 2.27016 13.7399 2.89016 16.8599C2.97016 17.2699 2.71016 17.6599 2.30016 17.7399C2.25016 17.7499 2.20016 17.7499 2.15016 17.7499Z" fill="white"/> <path d="M9.92977 18.75C8.58977 18.75 7.40977 18.3 6.55977 17.44C5.45977 16.34 5.03977 14.73 5.35977 12.91C5.66977 11.18 6.61977 9.45 8.03977 8.03C9.45977 6.61 11.1898 5.66 12.9198 5.35C14.7498 5.03 16.3598 5.45 17.4498 6.55C17.7398 6.84 17.7398 7.32 17.4498 7.61C17.1598 7.9 16.6798 7.9 16.3898 7.61C15.6498 6.87 14.5098 6.59 13.1798 6.82C11.7498 7.07 10.2998 7.87 9.09977 9.08C7.88977 10.29 7.08977 11.73 6.83977 13.16C6.60977 14.49 6.87977 15.63 7.61977 16.37C8.35977 17.11 9.49977 17.39 10.8298 17.15C12.2598 16.9 13.7098 16.1 14.9098 14.89C16.3598 13.44 17.2298 11.6 17.2498 9.97C17.2498 9.56 17.5898 9.25 18.0098 9.23C18.4198 9.23 18.7598 9.57 18.7498 9.99C18.7298 12.01 17.6898 14.23 15.9698 15.95C14.5498 17.37 12.8198 18.32 11.0898 18.63C10.6898 18.7 10.3098 18.73 9.92977 18.73V18.75Z" fill="white"/> <path d="M11.3201 14.7501C10.7501 14.7501 10.2301 14.5601 9.84012 14.1701C9.36012 13.6901 9.17012 12.9801 9.30012 12.2201C9.42012 11.5401 9.79012 10.8701 10.3301 10.3301C10.8701 9.79012 11.5501 9.42012 12.2201 9.30012C12.9801 9.17012 13.6901 9.36012 14.1701 9.84012C14.6501 10.3201 14.8401 11.0301 14.7101 11.7901C14.5901 12.4701 14.2201 13.1401 13.6801 13.6801C12.9701 14.3901 12.1101 14.7601 11.3201 14.7601V14.7501ZM12.6901 10.7501C12.6101 10.7501 12.5401 10.7501 12.4801 10.7701C12.1101 10.8401 11.7101 11.0601 11.3901 11.3801C11.0701 11.7001 10.8401 12.1001 10.7801 12.4701C10.7501 12.6301 10.7301 12.9301 10.9001 13.1001C11.1901 13.3901 11.9901 13.2401 12.6201 12.6101C12.9501 12.2801 13.1701 11.8901 13.2301 11.5201C13.2601 11.3601 13.2801 11.0601 13.1101 10.8901C13.0001 10.7801 12.8401 10.7501 12.6901 10.7501Z" fill="white"/> </g> <defs> <clipPath id="clip0_2085_386097"> <rect width="24" height="24" fill="white"/> </clipPath> </defs> </svg>
