<svg width="24" height="24" viewBox="0 0 24 24" fill="none" xmlns="http://www.w3.org/2000/svg"> <g clip-path="url(#clip0_2085_381734)"> <path d="M4.12004 12.9501C2.84004 12.9501 1.60004 11.8701 1.18004 10.3001C0.700039 8.4901 1.49004 6.7001 2.94004 6.3101C4.39004 5.9201 5.98004 7.0701 6.46004 8.8801C6.94004 10.6901 6.15004 12.4801 4.70004 12.8701C4.51004 12.9201 4.32004 12.9501 4.12004 12.9501ZM3.53004 7.7401C3.46004 7.7401 3.39004 7.7401 3.33004 7.7701C2.68004 7.9401 2.36004 8.9301 2.63004 9.9201C2.90004 10.9101 3.66004 11.6001 4.31004 11.4301C4.96004 11.2601 5.28004 10.2701 5.01004 9.2801C4.77004 8.3901 4.13004 7.7401 3.53004 7.7401Z" fill="white"/> <path d="M9.10991 7.97012C7.82991 7.97012 6.58991 6.89012 6.16991 5.32012C5.94991 4.48012 5.97991 3.62012 6.27991 2.89012C6.59991 2.10012 7.19991 1.53012 7.93991 1.33012C9.38991 0.940116 10.9799 2.09012 11.4599 3.90012C11.6799 4.74012 11.6499 5.60012 11.3499 6.33012C11.0299 7.12012 10.4299 7.69012 9.68991 7.89012C9.49991 7.94012 9.30991 7.97012 9.10991 7.97012ZM8.51991 2.75012C8.44991 2.75012 8.37991 2.75012 8.31991 2.78012C7.93991 2.88012 7.74991 3.24012 7.66991 3.45012C7.49991 3.87012 7.47991 4.42012 7.61991 4.93012C7.88991 5.92012 8.65991 6.62012 9.29991 6.44012C9.67991 6.34012 9.86991 5.98012 9.94991 5.77012C10.1199 5.35012 10.1399 4.80012 9.99991 4.28012C9.75991 3.39012 9.11991 2.74012 8.51991 2.74012V2.75012Z" fill="white"/> <path d="M14.8898 7.96998C14.6998 7.96998 14.4998 7.94998 14.3098 7.88998C13.5698 7.68998 12.9698 7.12998 12.6498 6.32998C12.3598 5.59998 12.3198 4.73998 12.5398 3.89998C12.7698 3.05998 13.2298 2.32998 13.8498 1.84998C14.5198 1.31998 15.3298 1.12998 16.0598 1.32998C16.7898 1.52998 17.3998 2.08998 17.7198 2.88998C18.0098 3.61998 18.0498 4.47998 17.8298 5.31998C17.4098 6.88999 16.1598 7.96998 14.8898 7.96998ZM15.4898 2.74998C15.1898 2.74998 14.9298 2.90998 14.7898 3.02998C14.4298 3.30998 14.1398 3.76998 14.0098 4.28998C13.8698 4.80998 13.8898 5.34999 14.0598 5.77998C14.1398 5.98998 14.3398 6.34998 14.7098 6.44998C15.3598 6.62998 16.1298 5.92999 16.3898 4.93998C16.5298 4.41998 16.5098 3.87998 16.3398 3.44998C16.2598 3.23998 16.0598 2.87998 15.6898 2.77998C15.6198 2.75998 15.5598 2.74998 15.4898 2.74998Z" fill="white"/> <path d="M19.8798 12.9501C19.6898 12.9501 19.4898 12.9301 19.2998 12.8701C17.8398 12.4801 17.0498 10.6901 17.5398 8.8801C18.0298 7.0701 19.6098 5.9201 21.0598 6.3101C22.5198 6.7001 23.3098 8.4901 22.8198 10.3001C22.3998 11.8701 21.1498 12.9501 19.8798 12.9501ZM20.4698 7.7401C19.8698 7.7401 19.2298 8.3901 18.9898 9.2801C18.7198 10.2701 19.0498 11.2601 19.6898 11.4301C20.3398 11.6001 21.1098 10.9101 21.3698 9.9201C21.6398 8.9301 21.3098 7.9401 20.6698 7.7701C20.5998 7.7501 20.5298 7.7401 20.4698 7.7401Z" fill="white"/> <path d="M16.48 22.7501H15.58C14.78 22.7501 14.01 22.5001 13.35 22.0301C12.54 21.4501 11.46 21.4501 10.66 22.0301C10.01 22.5001 9.24 22.7501 8.43 22.7501H7.53C5.31 22.7501 3.5 20.9401 3.5 18.7201V18.3201C3.5 16.2801 4.69 14.3901 6.52 13.5001C7.22 13.1601 7.8 12.6301 8.18 11.9501L8.69 11.0701C9.4 9.83006 10.73 9.06006 12.17 9.06006C13.39 9.06006 14.53 9.61006 15.29 10.5601L16.81 12.4501C17.1 12.8201 17.45 13.1301 17.85 13.3701C19.52 14.4101 20.51 16.2001 20.51 18.1601V18.7201C20.51 20.9401 18.7 22.7501 16.48 22.7501ZM12 20.0901C12.78 20.0901 13.56 20.3301 14.23 20.8101C14.62 21.1001 15.09 21.2501 15.58 21.2501H16.48C17.88 21.2501 19.01 20.1101 19.01 18.7201V18.1601C19.01 16.7201 18.28 15.4001 17.05 14.6401C16.51 14.3001 16.03 13.8801 15.63 13.3801L14.11 11.4901C13.63 10.8901 12.92 10.5501 12.15 10.5501C11.25 10.5501 10.42 11.0301 9.97 11.8101L9.46 12.6901C8.92 13.6301 8.12 14.3701 7.15 14.8401C5.83 15.4801 4.97 16.8401 4.97 18.3101V18.7101C4.97 20.1101 6.11 21.2401 7.5 21.2401H8.4C8.89 21.2401 9.35 21.0901 9.75 20.8001C10.42 20.3201 11.2 20.0801 11.98 20.0801L12 20.0901Z" fill="white"/> </g> <defs> <clipPath id="clip0_2085_381734"> <rect width="24" height="24" fill="white"/> </clipPath> </defs> </svg>
