<svg width="24" height="24" viewBox="0 0 24 24" fill="none" xmlns="http://www.w3.org/2000/svg"> <g clip-path="url(#clip0_4482_11848)"> <path d="M7.39017 20.52H4.23017C3.68017 20.52 3.16017 20.28 2.81017 19.86C2.46017 19.45 2.31017 18.9 2.39017 18.37L4.84017 2.82C4.99017 1.91 5.77017 1.25 6.68017 1.25H12.6002C14.4502 1.25 16.2002 2.05 17.4002 3.46C18.6002 4.86 19.1202 6.71 18.8402 8.54C18.3502 11.62 15.7302 13.86 12.6102 13.86H9.55017C9.29017 13.86 9.06017 14.05 9.02017 14.32L8.14017 19.9C8.08017 20.26 7.77017 20.53 7.40017 20.53L7.39017 20.52ZM6.68017 2.75C6.50017 2.75 6.35017 2.88 6.32017 3.06L3.87017 18.61C3.85017 18.75 3.91017 18.85 3.95017 18.89C3.99017 18.94 4.08017 19.02 4.23017 19.02H6.75017L7.53017 14.07C7.69017 13.07 8.53017 12.35 9.54017 12.35H12.6002C14.9802 12.35 16.9802 10.64 17.3502 8.29C17.5702 6.9 17.1702 5.49 16.2602 4.42C15.3502 3.35 14.0102 2.74 12.6002 2.74H6.68017V2.75Z" fill="white"/> <path d="M10.6901 22.7499H7.68007C7.30007 22.7499 6.94007 22.5799 6.69007 22.2899C6.44007 21.9999 6.33007 21.6199 6.39007 21.2399L6.64007 19.6599C6.70007 19.2499 7.09007 18.9699 7.50007 19.0399C7.91007 19.0999 8.19007 19.4899 8.12007 19.8999L7.91007 21.2499H10.6901C10.8701 21.2499 11.0201 21.1199 11.0501 20.9499L11.6901 16.8799C11.7501 16.5199 12.0601 16.2499 12.4301 16.2499H15.3301C17.7101 16.2499 19.7101 14.5399 20.0801 12.1899C20.3901 10.1999 19.4501 8.26993 17.7001 7.26993C17.3401 7.05993 17.2101 6.60993 17.4201 6.24993C17.6201 5.88993 18.0801 5.75993 18.4401 5.96993C20.7401 7.27993 21.9701 9.81993 21.5601 12.4299C21.0701 15.5199 18.4501 17.7499 15.3301 17.7499H13.0701L12.5301 21.1799C12.4001 22.0699 11.6101 22.7499 10.6901 22.7499Z" fill="white"/> </g> <defs> <clipPath id="clip0_4482_11848"> <rect width="24" height="24" fill="white"/> </clipPath> </defs> </svg>
