<svg width="24" height="24" viewBox="0 0 24 24" fill="none" xmlns="http://www.w3.org/2000/svg"> <g clip-path="url(#clip0_4482_5505)"> <path d="M10.8699 11.7508H8.33991C7.96991 11.7508 7.64991 11.4808 7.59991 11.1108L6.86991 6.31077C6.80991 5.90077 7.08991 5.52078 7.49991 5.46078L9.97991 5.08077C10.1799 5.05077 10.3799 5.10077 10.5399 5.22077C10.6999 5.34077 10.8099 5.51078 10.8399 5.71078L11.6199 10.8908C11.6499 11.1108 11.5899 11.3208 11.4499 11.4908C11.3099 11.6608 11.0899 11.7508 10.8699 11.7508ZM8.97991 10.2508H9.99991L9.45991 6.68076L8.45991 6.83077L8.97991 10.2508Z" fill="white"/> <path d="M15.67 22.75H8.33003C6.99003 22.75 5.88003 21.74 5.75003 20.4L5.01003 13.07C4.95003 12.33 5.19003 11.61 5.68003 11.08C6.17003 10.55 6.86003 10.25 7.58003 10.25H16.4C17.12 10.25 17.81 10.55 18.3 11.08C18.79 11.61 19.04 12.33 18.98 13.06V13.07L18.24 20.4C18.12 21.74 17.01 22.75 15.67 22.75ZM7.59003 11.75C7.28003 11.75 7.00003 11.87 6.79003 12.1C6.58003 12.33 6.48003 12.63 6.51003 12.94L7.25003 20.26C7.30003 20.83 7.77003 21.26 8.33003 21.26H15.67C16.23 21.26 16.7 20.83 16.75 20.27L17.49 12.94C17.51 12.63 17.41 12.33 17.2 12.11C16.99 11.89 16.71 11.76 16.4 11.76H7.59003V11.75Z" fill="white"/> <path d="M16.1401 11.7498H13.5701C13.3401 11.7498 13.1301 11.6498 12.9801 11.4698C12.8401 11.2898 12.7801 11.0598 12.8401 10.8298L14.0001 5.76977C14.0601 5.49977 14.2601 5.28977 14.5301 5.21977C14.7901 5.14977 15.0801 5.21977 15.2701 5.41977C15.4901 5.63977 15.7401 5.78977 16.0301 5.84977C16.3401 5.92977 16.6201 5.90977 16.9101 5.79977C17.1701 5.69977 17.4601 5.74977 17.6701 5.93977C17.8801 6.11977 17.9701 6.39977 17.9101 6.66977L16.8801 11.1698C16.7901 11.5098 16.4901 11.7498 16.1401 11.7498ZM14.5101 10.2498H15.5401L16.1901 7.38977C16.0201 7.37977 15.8501 7.34976 15.6901 7.30976C15.5301 7.27976 15.3701 7.22977 15.2201 7.15977L14.5101 10.2498Z" fill="white"/> <path d="M7.12022 7.02059C6.96022 7.02059 6.80022 6.97058 6.68022 6.87058C6.52022 6.75058 6.41022 6.58059 6.38022 6.38059L6.04022 4.16059C5.94022 3.50059 6.10022 2.84059 6.50022 2.30059C6.90022 1.76059 7.48022 1.41058 8.14022 1.31058C9.51022 1.10058 10.7802 2.04059 10.9902 3.41059L11.3302 5.63059C11.3902 6.04059 11.1102 6.42058 10.7002 6.48058L7.24022 7.00059C7.20022 7.02059 7.16022 7.02059 7.12022 7.02059ZM8.51022 2.79058C8.46022 2.79058 8.41022 2.79059 8.36022 2.80059C8.10022 2.84059 7.86022 2.98058 7.70022 3.20058C7.54022 3.41058 7.48022 3.68059 7.52022 3.94059L7.74022 5.42058L9.72022 5.12058L9.50022 3.64059C9.43022 3.14059 9.00022 2.79058 8.51022 2.79058Z" fill="white"/> <path d="M16.6898 7.29041C16.3798 7.29041 16.0498 7.25041 15.7298 7.18041C15.1998 7.06041 14.7198 6.85041 14.2998 6.56041C14.1398 6.46041 13.9598 6.32042 13.7898 6.16042C13.5098 5.90042 13.4598 5.47042 13.6898 5.16042L16.2898 1.65041C16.4698 1.41041 16.7698 1.30041 17.0598 1.37041C17.3498 1.44041 17.5698 1.67042 17.6298 1.96042L18.4398 6.25041C18.5098 6.63041 18.2798 7.00041 17.9098 7.11041C17.6898 7.17041 17.4698 7.22041 17.2398 7.25041C17.0698 7.28041 16.8798 7.29041 16.6898 7.29041ZM15.3498 5.45041C15.5698 5.57041 15.8098 5.66042 16.0698 5.72042C16.3298 5.78042 16.5898 5.80041 16.8298 5.79041L16.4798 3.93041L15.3498 5.45041Z" fill="white"/> <path d="M17.5002 15.3691H5.93018C5.52018 15.3691 5.18018 15.0291 5.18018 14.6191C5.18018 14.2091 5.52018 13.8691 5.93018 13.8691H17.5002C17.9102 13.8691 18.2502 14.2091 18.2502 14.6191C18.2502 15.0291 17.9102 15.3691 17.5002 15.3691Z" fill="white"/> </g> <defs> <clipPath id="clip0_4482_5505"> <rect width="24" height="24" fill="white"/> </clipPath> </defs> </svg>
