<svg width="24" height="24" viewBox="0 0 24 24" fill="none" xmlns="http://www.w3.org/2000/svg"> <g clip-path="url(#clip0_4482_5362)"> <path d="M15.5 22.75H8.5C5.88 22.75 3.75 20.62 3.75 18V8C3.75 5.38 5.88 3.25 8.5 3.25H15.5C18.12 3.25 20.25 5.38 20.25 8V18C20.25 20.62 18.12 22.75 15.5 22.75ZM8.5 4.75C6.71 4.75 5.25 6.21 5.25 8V18C5.25 19.79 6.71 21.25 8.5 21.25H15.5C17.29 21.25 18.75 19.79 18.75 18V8C18.75 6.21 17.29 4.75 15.5 4.75H8.5Z" fill="white"/> <path d="M9 4.75C8.59 4.75 8.25 4.41 8.25 4V2C8.25 1.59 8.59 1.25 9 1.25C9.41 1.25 9.75 1.59 9.75 2V4C9.75 4.41 9.41 4.75 9 4.75Z" fill="white"/> <path d="M15 13.75H9C7.48 13.75 6.25 12.52 6.25 11V8.5C6.25 6.98 7.48 5.75 9 5.75H15C16.52 5.75 17.75 6.98 17.75 8.5V11C17.75 12.52 16.52 13.75 15 13.75ZM9 7.25C8.31 7.25 7.75 7.81 7.75 8.5V11C7.75 11.69 8.31 12.25 9 12.25H15C15.69 12.25 16.25 11.69 16.25 11V8.5C16.25 7.81 15.69 7.25 15 7.25H9Z" fill="white"/> <path d="M15 16.75H9C8.59 16.75 8.25 16.41 8.25 16C8.25 15.59 8.59 15.25 9 15.25H15C15.41 15.25 15.75 15.59 15.75 16C15.75 16.41 15.41 16.75 15 16.75Z" fill="white"/> <path d="M15 19.75H9C8.59 19.75 8.25 19.41 8.25 19C8.25 18.59 8.59 18.25 9 18.25H15C15.41 18.25 15.75 18.59 15.75 19C15.75 19.41 15.41 19.75 15 19.75Z" fill="white"/> <path d="M4.5 11.75H3.5C2.54 11.75 1.75 10.96 1.75 10C1.75 9.04 2.54 8.25 3.5 8.25H4.5C4.91 8.25 5.25 8.59 5.25 9V11C5.25 11.41 4.91 11.75 4.5 11.75ZM3.5 9.75C3.36 9.75 3.25 9.86 3.25 10C3.25 10.14 3.36 10.25 3.5 10.25H3.75V9.75H3.5Z" fill="white"/> </g> <defs> <clipPath id="clip0_4482_5362"> <rect width="24" height="24" fill="white"/> </clipPath> </defs> </svg>
