<svg width="24" height="24" viewBox="0 0 24 24" fill="none" xmlns="http://www.w3.org/2000/svg"> <g clip-path="url(#clip0_2085_390443)"> <path d="M12.0001 22.7497C6.21008 22.7497 1.50008 18.2697 1.50008 12.7597C1.50008 11.2597 1.84008 9.80972 2.52008 8.45972C2.73008 8.03972 2.70008 7.53972 2.43008 7.14972C1.66008 5.99972 1.36008 4.61972 1.25008 3.66972C1.19008 3.12972 1.37008 2.60972 1.76008 2.22972C2.15008 1.84972 2.67008 1.67972 3.21008 1.75972C3.68008 1.81972 4.16008 1.67972 4.57008 1.52972C6.00008 0.999716 7.55008 1.22972 8.71008 2.13972C8.82008 2.22972 9.16008 2.48972 9.82008 3.50972C10.0401 3.85972 9.95008 4.31972 9.60008 4.54972C9.25008 4.76972 8.79008 4.67972 8.56008 4.32972C8.17008 3.72972 7.90008 3.41972 7.79008 3.32972C7.04008 2.74972 6.04008 2.59972 5.09008 2.94972C4.54008 3.14972 3.80008 3.36972 3.00008 3.25972C2.92008 3.23972 2.84008 3.29972 2.81008 3.31972C2.78008 3.34972 2.73008 3.41972 2.74008 3.50972C2.83008 4.29972 3.07008 5.42972 3.67008 6.32972C4.23008 7.16972 4.30008 8.24972 3.85008 9.14972C3.28008 10.2897 2.99008 11.5097 2.99008 12.7797C2.99008 17.4597 7.03008 21.2697 11.9901 21.2697C16.9501 21.2697 20.9901 17.4597 20.9901 12.7797C20.9901 11.5097 20.7001 10.2897 20.1301 9.15972C19.6801 8.25972 19.7501 7.17972 20.3101 6.33972C20.9101 5.43972 21.1501 4.30972 21.2401 3.51972C21.2501 3.41972 21.2001 3.35972 21.1701 3.32972C21.1401 3.29972 21.0801 3.25972 20.9801 3.26972C20.1801 3.38972 19.4501 3.16972 18.8901 2.95972C17.9501 2.61972 16.9401 2.75972 16.1901 3.33972C16.0701 3.42972 15.8001 3.74972 15.4201 4.33972C15.2001 4.68972 14.7301 4.78972 14.3801 4.55972C14.0301 4.32972 13.9301 3.86972 14.1601 3.51972C14.6001 2.84972 14.9701 2.38972 15.2701 2.14972C16.4301 1.23972 17.9801 1.00972 19.4101 1.53972C19.8201 1.68972 20.3001 1.83972 20.7701 1.76972C21.3101 1.68972 21.8401 1.86972 22.2201 2.23972C22.6101 2.61972 22.7901 3.13972 22.7301 3.67972C22.6201 4.62972 22.3201 6.00972 21.5501 7.15972C21.2901 7.54972 21.2601 8.04972 21.4601 8.46972C22.1401 9.81972 22.4801 11.2597 22.4801 12.7697C22.4801 18.2797 17.7701 22.7597 11.9801 22.7597L12.0001 22.7497Z" fill="white"/> <path d="M12.0002 19.5701C9.89023 19.5701 8.24023 18.3101 8.24023 16.7001C8.24023 15.0901 9.89023 13.8301 12.0002 13.8301C14.1102 13.8301 15.7602 15.0901 15.7602 16.7001C15.7602 18.3101 14.1102 19.5701 12.0002 19.5701ZM12.0002 15.3301C10.6702 15.3301 9.74023 16.0501 9.74023 16.7001C9.74023 17.3501 10.6702 18.0701 12.0002 18.0701C13.3302 18.0701 14.2602 17.3501 14.2602 16.7001C14.2602 16.0501 13.3302 15.3301 12.0002 15.3301Z" fill="white"/> <path d="M18.0201 6.21977C17.8701 6.21977 17.7101 6.16977 17.5701 6.06977C16.0001 4.90977 14.0201 4.26977 12.0001 4.26977C9.98012 4.26977 8.07012 4.88977 6.47012 6.06977C6.14012 6.31977 5.67012 6.24977 5.42012 5.90977C5.17012 5.57977 5.24012 5.10977 5.58012 4.85977C7.43012 3.48977 9.66012 2.75977 12.0001 2.75977C14.3401 2.75977 16.6401 3.50977 18.4601 4.85977C18.7901 5.10977 18.8601 5.57977 18.6201 5.90977C18.4701 6.10977 18.2501 6.20977 18.0201 6.20977V6.21977Z" fill="white"/> <path d="M14.0303 11.6996C14.0303 12.2796 14.5003 12.7596 15.0903 12.7596C15.6803 12.7596 16.1503 12.2896 16.1503 11.6996C16.1503 11.1096 15.6803 10.6396 15.0903 10.6396C14.5003 10.6396 14.0303 11.1096 14.0303 11.6996Z" fill="white"/> <path d="M9.9701 11.7495C9.9701 12.3295 9.5001 12.8095 8.9101 12.8095C8.3201 12.8095 7.8501 12.3395 7.8501 11.7495C7.8501 11.1595 8.3201 10.6895 8.9101 10.6895C9.5001 10.6895 9.9701 11.1595 9.9701 11.7495Z" fill="white"/> </g> <defs> <clipPath id="clip0_2085_390443"> <rect width="24" height="24" fill="white"/> </clipPath> </defs> </svg>
