<svg width="24" height="24" viewBox="0 0 24 24" fill="none" xmlns="http://www.w3.org/2000/svg"> <g clip-path="url(#clip0_2085_386008)"> <path d="M11.9999 14.2798C10.0799 14.2798 9.10986 13.5498 9.10986 12.0998C9.10986 10.7298 10.8999 8.63979 11.4499 8.01979C11.7399 7.69979 12.2799 7.69979 12.5699 8.01979C13.1199 8.62979 14.9099 10.7298 14.9099 12.0998C14.9099 13.5498 13.9399 14.2798 12.0199 14.2798H11.9999ZM12.1323 9.86035C12.0654 9.77299 11.9343 9.77299 11.8674 9.86035C11.184 10.7527 10.6099 11.6957 10.6099 12.0998C10.6099 12.4198 10.6099 12.7798 11.9999 12.7798C13.3899 12.7798 13.3899 12.4198 13.3899 12.0998C13.3899 11.6957 12.8157 10.7527 12.1323 9.86035Z" fill="white"/> <path d="M12 16.0698C11.59 16.0698 11.25 15.7298 11.25 15.3198V13.5298C11.25 13.1198 11.59 12.7798 12 12.7798C12.41 12.7798 12.75 13.1198 12.75 13.5298V15.3198C12.75 15.7298 12.41 16.0698 12 16.0698Z" fill="white"/> <path d="M17 22.75H7C4.38 22.75 2.25 20.62 2.25 18V6C2.25 3.38 4.38 1.25 7 1.25H17C19.62 1.25 21.75 3.38 21.75 6V18C21.75 20.62 19.62 22.75 17 22.75ZM7 2.75C5.21 2.75 3.75 4.21 3.75 6V18C3.75 19.79 5.21 21.25 7 21.25H17C18.79 21.25 20.25 19.79 20.25 18V6C20.25 4.21 18.79 2.75 17 2.75H7Z" fill="white"/> </g> <defs> <clipPath id="clip0_2085_386008"> <rect width="24" height="24" fill="white"/> </clipPath> </defs> </svg>
