<svg width="24" height="24" viewBox="0 0 24 24" fill="none" xmlns="http://www.w3.org/2000/svg"> <g clip-path="url(#clip0_4482_10962)"> <path d="M11.9395 22.7502C11.3595 22.7502 10.7895 22.6202 10.2595 22.3502C7.08953 20.7402 1.76953 17.3402 1.76953 12.6202V6.20023C1.77953 5.21023 2.52953 4.40023 3.49953 4.29023C5.87953 4.11023 8.13953 3.27023 10.0495 1.87023C11.1795 1.03023 12.6895 1.03023 13.8195 1.87023C15.7195 3.27023 17.9795 4.10023 20.3395 4.28023C21.3395 4.39023 22.0795 5.21023 22.0895 6.18023V12.6002C22.0895 17.3202 16.7795 20.7202 13.6095 22.3302C13.0795 22.6002 12.5095 22.7302 11.9295 22.7302L11.9395 22.7502ZM11.9395 2.75023C11.5895 2.75023 11.2395 2.86023 10.9495 3.08023C8.80953 4.65023 6.28953 5.58023 3.64953 5.78023C3.44953 5.80023 3.27953 5.99023 3.27953 6.21023V12.6102C3.27953 16.6802 8.63953 19.8402 10.9495 21.0102C11.5695 21.3302 12.3195 21.3302 12.9495 21.0102C15.2495 19.8402 20.6095 16.6802 20.6095 12.6102V6.20023C20.6095 5.99023 20.4395 5.80023 20.2195 5.78023C17.6095 5.58023 15.0895 4.65023 12.9495 3.09023C12.6495 2.87023 12.2995 2.76023 11.9495 2.76023L11.9395 2.75023Z" fill="white"/> <path d="M8.40961 16.28C8.21961 16.28 8.02961 16.21 7.87961 16.06C7.58961 15.77 7.58961 15.29 7.87961 15L8.86961 14.01C9.15961 13.72 9.63961 13.72 9.92961 14.01C10.2196 14.3 10.2196 14.78 9.92961 15.07L8.93961 16.06C8.78961 16.21 8.59961 16.28 8.40961 16.28Z" fill="white"/> <path d="M11.7799 16.2799C10.7299 16.2799 9.66992 15.8699 8.87992 15.0699C8.10992 14.3099 7.67992 13.2899 7.66992 12.2099C7.66992 11.1199 8.07992 10.0899 8.83992 9.31993C10.4499 7.98993 12.4799 7.44993 14.4599 7.76993C15.3699 7.83993 16.1199 8.58993 16.1899 9.55993C16.5099 11.4799 15.9599 13.4999 14.6899 15.0599C14.6699 15.0799 14.6499 15.0999 14.6399 15.1199C13.8499 15.8999 12.8099 16.2899 11.7799 16.2899V16.2799ZM13.3499 9.17993C12.0599 9.17993 10.8299 9.60993 9.84992 10.4199C9.42992 10.8599 9.15992 11.4999 9.16992 12.1899C9.16992 12.8799 9.44992 13.5199 9.93992 13.9999C10.9399 15.0099 12.5499 15.0299 13.5599 14.0599C14.5399 12.8499 14.9599 11.2699 14.7099 9.71993C14.6899 9.42993 14.5099 9.25993 14.2899 9.23993C13.9799 9.18993 13.6699 9.15993 13.3599 9.15993L13.3499 9.17993Z" fill="white"/> </g> <defs> <clipPath id="clip0_4482_10962"> <rect width="24" height="24" fill="white"/> </clipPath> </defs> </svg>
