<svg width="24" height="24" viewBox="0 0 24 24" fill="none" xmlns="http://www.w3.org/2000/svg"> <g clip-path="url(#clip0_4482_5411)"> <path d="M14.4398 22.75H9.93984C8.72984 22.75 7.58984 22.16 6.88984 21.18L3.53985 16.5C2.90985 15.61 2.88985 14.41 3.48985 13.5C3.92985 12.84 4.63984 12.42 5.41984 12.34C6.20984 12.26 6.97984 12.54 7.54984 13.1L7.63984 13.19V7C7.63984 5.48 8.86984 4.25 10.3898 4.25C11.9098 4.25 13.1398 5.48 13.1398 7V10.34C13.1398 10.39 13.1698 10.42 13.2098 10.44L16.9598 11.43C18.4098 11.81 19.4198 13.12 19.4198 14.62V17.75C19.4398 20.51 17.1898 22.75 14.4398 22.75ZM5.68984 13.83C5.64984 13.83 5.60985 13.83 5.57985 13.84C5.23985 13.87 4.93984 14.06 4.74984 14.34C4.48984 14.73 4.49985 15.25 4.76985 15.63L8.11984 20.31C8.53984 20.9 9.22985 21.25 9.94985 21.25H14.4498C16.3798 21.25 17.9498 19.68 17.9498 17.75V14.62C17.9498 13.8 17.3998 13.09 16.6098 12.88L12.8598 11.89C12.1598 11.71 11.6698 11.07 11.6698 10.34V7C11.6698 6.31 11.1098 5.75 10.4198 5.75C9.72984 5.75 9.16984 6.31 9.16984 7V15C9.16984 15.3 8.98984 15.58 8.70984 15.69C8.42984 15.81 8.10984 15.74 7.88984 15.53L6.51985 14.16C6.27985 13.94 5.98984 13.83 5.68984 13.83Z" fill="white"/> <path d="M15.5 7.75C15.09 7.75 14.75 7.41 14.75 7C14.75 4.66 12.84 2.75 10.5 2.75C8.16 2.75 6.25 4.66 6.25 7C6.25 7.41 5.91 7.75 5.5 7.75C5.09 7.75 4.75 7.41 4.75 7C4.75 3.83 7.33 1.25 10.5 1.25C13.67 1.25 16.25 3.83 16.25 7C16.25 7.41 15.91 7.75 15.5 7.75Z" fill="white"/> </g> <defs> <clipPath id="clip0_4482_5411"> <rect width="24" height="24" fill="white"/> </clipPath> </defs> </svg>
