<svg width="24" height="24" viewBox="0 0 24 24" fill="none" xmlns="http://www.w3.org/2000/svg"> <g clip-path="url(#clip0_4482_14332)"> <path d="M22 14.0805C21.59 14.0805 21.25 13.7405 21.25 13.3305V11.6505C21.25 10.8405 21.06 10.0305 20.7 9.30047L18.61 5.12047C18.57 5.04047 18.48 4.98047 18.39 4.98047H16.42C16.35 4.98047 16.29 5.01047 16.24 5.05047L14.53 6.76047C14.39 6.90047 14.2 6.98047 14 6.98047H9C8.8 6.98047 8.61 6.90047 8.47 6.76047L6.76 5.05047C6.76 5.05047 6.65 4.98047 6.58 4.98047H4.72C4.61 4.98047 4.52 5.05047 4.48 5.15047L3.02 9.54047C2.84 10.0805 2.75 10.6305 2.75 11.2005V13.3205C2.75 13.7305 2.41 14.0705 2 14.0705C1.59 14.0705 1.25 13.7305 1.25 13.3205V11.2005C1.25 10.4705 1.37 9.75047 1.6 9.07047L3.06 4.68047C3.3 3.96047 3.97 3.48047 4.72 3.48047H6.58C7.05 3.48047 7.49 3.66047 7.82 3.99047L9.31 5.48047H13.69L15.18 3.99047C15.51 3.66047 15.95 3.48047 16.42 3.48047H18.39C19.06 3.48047 19.66 3.85047 19.95 4.45047L22.04 8.63047C22.51 9.56047 22.75 10.6105 22.75 11.6505V13.3305C22.75 13.7405 22.41 14.0805 22 14.0805Z" fill="white"/> <path d="M18 21.9805H6C3.38 21.9805 1.25 19.8505 1.25 17.2305V13.3305C1.25 10.6605 3.42 8.48047 6.1 8.48047H17.91C19.2 8.48047 20.42 8.98047 21.34 9.90047C22.26 10.8105 22.76 12.0305 22.76 13.3305V17.2305C22.76 19.8505 20.63 21.9805 18.01 21.9805H18ZM6.1 9.98047C4.26 9.98047 2.75 11.4805 2.75 13.3305V17.2305C2.75 19.0205 4.21 20.4805 6 20.4805H18C19.79 20.4805 21.25 19.0205 21.25 17.2305V13.3305C21.25 12.4405 20.9 11.6005 20.27 10.9605C19.65 10.3405 18.79 9.98047 17.9 9.98047H6.1Z" fill="white"/> <path d="M22 17.9805H19C18.04 17.9805 17.25 17.1905 17.25 16.2305V14.2305C17.25 13.2705 18.04 12.4805 19 12.4805H22C22.41 12.4805 22.75 12.8205 22.75 13.2305C22.75 13.6405 22.41 13.9805 22 13.9805H19C18.86 13.9805 18.75 14.0905 18.75 14.2305V16.2305C18.75 16.3705 18.86 16.4805 19 16.4805H22C22.41 16.4805 22.75 16.8205 22.75 17.2305C22.75 17.6405 22.41 17.9805 22 17.9805Z" fill="white"/> <path d="M5 17.9805H2C1.59 17.9805 1.25 17.6405 1.25 17.2305C1.25 16.8205 1.59 16.4805 2 16.4805H5C5.14 16.4805 5.25 16.3705 5.25 16.2305V14.2305C5.25 14.0905 5.14 13.9805 5 13.9805H2C1.59 13.9805 1.25 13.6405 1.25 13.2305C1.25 12.8205 1.59 12.4805 2 12.4805H5C5.96 12.4805 6.75 13.2705 6.75 14.2305V16.2305C6.75 17.1905 5.96 17.9805 5 17.9805Z" fill="white"/> <path d="M14 15.9805H10C9.59 15.9805 9.25 15.6405 9.25 15.2305C9.25 14.8205 9.59 14.4805 10 14.4805H14C14.41 14.4805 14.75 14.8205 14.75 15.2305C14.75 15.6405 14.41 15.9805 14 15.9805Z" fill="white"/> </g> <defs> <clipPath id="clip0_4482_14332"> <rect width="24" height="24" fill="white"/> </clipPath> </defs> </svg>
