<svg width="24" height="24" viewBox="0 0 24 24" fill="none" xmlns="http://www.w3.org/2000/svg"> <g clip-path="url(#clip0_2085_390847)"> <path d="M18.92 11.3204C18.7 11.3204 18.48 11.2404 18.31 11.0704C17.98 10.7404 17.98 10.1904 18.31 9.86039L20.78 7.39039L18.31 4.92039C17.98 4.59039 17.98 4.04039 18.31 3.71039C18.65 3.38039 19.19 3.38039 19.52 3.71039L22.6 6.79039C22.93 7.12039 22.93 7.67039 22.6 8.00039L19.52 11.0804C19.35 11.2504 19.13 11.3304 18.91 11.3304L18.92 11.3204Z" fill="white"/> <path d="M22.0002 8.23953H14.3102C13.8402 8.23953 13.4502 7.85953 13.4502 7.37953C13.4502 6.89953 13.8302 6.51953 14.3102 6.51953H22.0002C22.4702 6.51953 22.8602 6.89953 22.8602 7.37953C22.8602 7.85953 22.4802 8.23953 22.0002 8.23953Z" fill="white"/> <path d="M18.92 20.5509C18.7 20.5509 18.48 20.4709 18.31 20.3009C17.98 19.9709 17.98 19.4209 18.31 19.0909L20.78 16.6209L18.31 14.1509C17.98 13.8209 17.98 13.2709 18.31 12.9409C18.65 12.6109 19.19 12.6109 19.52 12.9409L22.6 16.0209C22.76 16.1809 22.85 16.4009 22.85 16.6309C22.85 16.8609 22.76 17.0809 22.6 17.2409L19.52 20.3209C19.35 20.4909 19.13 20.5709 18.91 20.5709L18.92 20.5509Z" fill="white"/> <path d="M22.0001 17.4695H13.5401C13.2501 17.4695 12.9901 17.3295 12.8301 17.0895L6.93014 8.23953H2.00014C1.53014 8.23953 1.14014 7.85953 1.14014 7.37953C1.14014 6.89953 1.52014 6.51953 2.00014 6.51953H7.38014C7.67014 6.51953 7.93014 6.65953 8.09014 6.89953L13.9901 15.7495H21.9901C22.4601 15.7495 22.8501 16.1295 22.8501 16.6095C22.8501 17.0895 22.4701 17.4695 21.9901 17.4695H22.0001Z" fill="white"/> <path d="M7.38014 17.47H2.00014C1.53014 17.47 1.14014 17.09 1.14014 16.61C1.14014 16.13 1.52014 15.75 2.00014 15.75H7.38014C7.85014 15.75 8.24014 16.13 8.24014 16.61C8.24014 17.09 7.86014 17.47 7.38014 17.47Z" fill="white"/> </g> <defs> <clipPath id="clip0_2085_390847"> <rect width="24" height="24" fill="white"/> </clipPath> </defs> </svg>
