<svg width="24" height="24" viewBox="0 0 24 24" fill="none" xmlns="http://www.w3.org/2000/svg"> <g clip-path="url(#clip0_4482_3618)"> <path d="M15 21.75H7C3.83 21.75 1.25 19.17 1.25 16V8C1.25 4.83 3.83 2.25 7 2.25H15C17.9 2.25 20.35 4.42 20.7 7.3C20.73 7.57 20.62 7.83001 20.41 7.99001C20.2 8.15001 19.92 8.19 19.67 8.08C19.15 7.86 18.57 7.75 18 7.75C15.66 7.75 13.75 9.66 13.75 12C13.75 14.34 15.66 16.25 18 16.25C18.57 16.25 19.15 16.13 19.67 15.92C19.92 15.82 20.2 15.85 20.41 16.01C20.62 16.17 20.73 16.43 20.7 16.7C20.35 19.58 17.9 21.75 15 21.75ZM7 3.75C4.66 3.75 2.75 5.66 2.75 8V16C2.75 18.34 4.66 20.25 7 20.25H15C16.73 20.25 18.25 19.2 18.9 17.68C18.6 17.73 18.3 17.75 18 17.75C14.83 17.75 12.25 15.17 12.25 12C12.25 8.83 14.83 6.25 18 6.25C18.3 6.25 18.6 6.27001 18.9 6.32001C18.25 4.80001 16.73 3.75 15 3.75H7Z" fill="white"/> <path d="M13 10.8101H2C1.59 10.8101 1.25 10.4701 1.25 10.0601C1.25 9.65006 1.59 9.31006 2 9.31006H13C13.41 9.31006 13.75 9.65006 13.75 10.0601C13.75 10.4701 13.41 10.8101 13 10.8101Z" fill="white"/> <path d="M10 16.75H7C6.59 16.75 6.25 16.41 6.25 16C6.25 15.59 6.59 15.25 7 15.25H10C10.41 15.25 10.75 15.59 10.75 16C10.75 16.41 10.41 16.75 10 16.75Z" fill="white"/> <path d="M18 17.75C14.83 17.75 12.25 15.17 12.25 12C12.25 8.83 14.83 6.25 18 6.25C18.77 6.25 19.55 6.4 20.25 6.7C22.38 7.62 23.75 9.7 23.75 12C23.75 14.3 22.38 16.38 20.26 17.3C19.55 17.6 18.77 17.75 18 17.75ZM18 7.75C15.66 7.75 13.75 9.66 13.75 12C13.75 14.34 15.66 16.25 18 16.25C18.57 16.25 19.15 16.13 19.67 15.92C21.23 15.24 22.25 13.7 22.25 12C22.25 10.3 21.23 8.76 19.66 8.08C19.15 7.87 18.57 7.75 18 7.75Z" fill="white"/> <path d="M16.6401 14.1098C16.4501 14.1098 16.2601 14.0398 16.1101 13.8898C15.8201 13.5998 15.8201 13.1199 16.1101 12.8299L18.8201 10.1198C19.1101 9.82984 19.5901 9.82984 19.8801 10.1198C20.1701 10.4098 20.1701 10.8898 19.8801 11.1798L17.1701 13.8898C17.0301 14.0298 16.8401 14.1098 16.6401 14.1098Z" fill="white"/> <path d="M19.3598 14.1098C19.1698 14.1098 18.9799 14.0398 18.8299 13.8898L16.1198 11.1798C15.8298 10.8898 15.8298 10.4098 16.1198 10.1198C16.4098 9.82984 16.8898 9.82984 17.1798 10.1198L19.8899 12.8299C20.1799 13.1199 20.1799 13.5998 19.8899 13.8898C19.7399 14.0298 19.5498 14.1098 19.3598 14.1098Z" fill="white"/> </g> <defs> <clipPath id="clip0_4482_3618"> <rect width="24" height="24" fill="white"/> </clipPath> </defs> </svg>
