<svg width="24" height="24" viewBox="0 0 24 24" fill="none" xmlns="http://www.w3.org/2000/svg"> <g clip-path="url(#clip0_4482_3370)"> <path d="M11.5 22.75C5.85 22.75 1.25 18.15 1.25 12.5C1.25 9.76 2.32001 7.18999 4.26001 5.25999C6.19001 3.31999 8.76 2.25 11.5 2.25C12.33 2.25 13.17 2.35 14 2.55C14.24 2.61 14.43 2.77999 14.52 3.00999C14.61 3.23999 14.58 3.5 14.45 3.7C14 4.38 13.76 5.18 13.76 6C13.76 8.34 15.67 10.25 18.01 10.25C18.84 10.25 19.6301 10.01 20.3101 9.56C20.5101 9.43 20.77 9.40001 21 9.49001C21.23 9.58001 21.4 9.76999 21.46 10.01C21.66 10.83 21.76 11.67 21.76 12.51C21.76 15.25 20.69 17.82 18.75 19.75C16.81 21.68 14.24 22.75 11.5 22.75ZM11.5 3.75C9.16 3.75 6.96995 4.66001 5.31995 6.32001C3.65995 7.97001 2.75 10.16 2.75 12.5C2.75 17.32 6.67 21.25 11.5 21.25C13.84 21.25 16.0301 20.34 17.6801 18.68C19.3401 17.03 20.25 14.84 20.25 12.5C20.25 12.1 20.22 11.71 20.17 11.32C19.49 11.6 18.75 11.75 18 11.75C14.83 11.75 12.25 9.17 12.25 6C12.25 5.25 12.4001 4.51 12.6801 3.83C12.2901 3.78 11.9 3.75 11.5 3.75Z" fill="white"/> <path d="M7.7002 17.4298C7.2902 17.4298 6.9502 17.0898 6.9502 16.6798V8.31982C6.9502 7.90982 7.2902 7.56982 7.7002 7.56982C8.1102 7.56982 8.4502 7.90982 8.4502 8.31982V16.6798C8.4502 17.0898 8.1102 17.4298 7.7002 17.4298Z" fill="white"/> <path d="M11.5 17.4299C11.09 17.4299 10.75 17.0899 10.75 16.6799V11.3599C10.75 10.9499 11.09 10.6099 11.5 10.6099C11.91 10.6099 12.25 10.9499 12.25 11.3599V16.6799C12.25 17.0899 11.91 17.4299 11.5 17.4299Z" fill="white"/> <path d="M15.2998 17.4301C14.8898 17.4301 14.5498 17.0901 14.5498 16.6801V13.6401C14.5498 13.2301 14.8898 12.8901 15.2998 12.8901C15.7098 12.8901 16.0498 13.2301 16.0498 13.6401V16.6801C16.0498 17.0901 15.7098 17.4301 15.2998 17.4301Z" fill="white"/> <path d="M18 11.75C14.83 11.75 12.25 9.17 12.25 6C12.25 4.88 12.58 3.79 13.2 2.86C13.32 2.66 13.5 2.42999 13.73 2.17999C14.79 0.959993 16.35 0.25 18.01 0.25C21.18 0.25 23.76 2.83 23.76 6C23.76 7.66 23.0499 9.21999 21.8199 10.29C21.5799 10.5 21.35 10.68 21.12 10.82C20.21 11.42 19.12 11.75 18 11.75ZM18 1.75C16.78 1.75 15.63 2.27 14.85 3.17C14.7 3.34 14.57 3.5 14.46 3.67C13.99 4.37 13.75 5.17 13.75 6C13.75 8.34 15.66 10.25 18 10.25C18.83 10.25 19.62 10.01 20.3 9.56C20.49 9.44 20.6599 9.31 20.8199 9.16C21.7299 8.37 22.25 7.22 22.25 6C22.25 3.66 20.34 1.75 18 1.75Z" fill="white"/> <path d="M19.9001 5.68981H16.1001C15.8001 5.68981 15.5201 5.5098 15.4101 5.2298C15.2901 4.9498 15.36 4.62981 15.57 4.40981L17.1501 2.8298C17.4401 2.5398 17.92 2.5398 18.21 2.8298C18.5 3.1198 18.5 3.5998 18.21 3.8898L17.9101 4.18981H19.9001C20.3101 4.18981 20.6501 4.52981 20.6501 4.93981C20.6501 5.34981 20.3101 5.68981 19.9001 5.68981Z" fill="white"/> <path d="M18.3201 9.49016C18.1301 9.49016 17.9402 9.42016 17.7902 9.27016C17.5002 8.98016 17.5002 8.50016 17.7902 8.21016L18.0901 7.91016H16.1001C15.6901 7.91016 15.3501 7.57016 15.3501 7.16016C15.3501 6.75016 15.6901 6.41016 16.1001 6.41016H19.9001C20.2001 6.41016 20.4801 6.59015 20.5901 6.87015C20.7101 7.15015 20.6402 7.47016 20.4302 7.69016L18.8501 9.27016C18.7001 9.42016 18.5101 9.49016 18.3201 9.49016Z" fill="white"/> </g> <defs> <clipPath id="clip0_4482_3370"> <rect width="24" height="24" fill="white"/> </clipPath> </defs> </svg>
