<svg width="24" height="24" viewBox="0 0 24 24" fill="none" xmlns="http://www.w3.org/2000/svg"> <g clip-path="url(#clip0_4482_14150)"> <path d="M12 4.33C11.59 4.33 11.25 3.99 11.25 3.58V2C11.25 1.59 11.59 1.25 12 1.25C12.41 1.25 12.75 1.59 12.75 2V3.58C12.75 3.99 12.41 4.33 12 4.33Z" fill="white"/> <path d="M11.9999 13.9796C11.5699 13.9796 11.1499 13.8296 10.8099 13.5296L8.05987 11.1196C7.42987 10.5696 7.25987 9.65957 7.65987 8.90957L7.87987 8.50957C8.18987 7.92957 8.79987 7.55957 9.46987 7.55957H14.5299C15.1899 7.55957 15.7999 7.91957 16.1199 8.50957L16.3399 8.90957C16.7399 9.65957 16.5799 10.5596 15.9399 11.1196L13.1999 13.5296C12.8599 13.8296 12.4399 13.9796 12.0099 13.9796H11.9999ZM8.98987 9.62957C8.91987 9.74957 8.94987 9.90957 9.05987 9.99957L11.8099 12.4096C11.9199 12.5096 12.0999 12.5096 12.2099 12.4096L14.9599 9.99957C15.0699 9.90957 15.0899 9.74957 15.0299 9.62957L14.8199 9.22957C14.7699 9.12957 14.6599 9.06957 14.5499 9.06957H9.48987C9.37987 9.06957 9.27987 9.12957 9.21987 9.22957L8.99987 9.62957H8.98987Z" fill="white"/> <path d="M18.3207 6.95961C18.1307 6.95961 17.9407 6.88961 17.7907 6.73961C17.5007 6.44961 17.5007 5.96961 17.7907 5.67961L18.8407 4.62961C19.1307 4.33961 19.6107 4.33961 19.9007 4.62961C20.1907 4.91961 20.1907 5.39961 19.9007 5.68961L18.8507 6.73961C18.7007 6.88961 18.5107 6.95961 18.3207 6.95961Z" fill="white"/> <path d="M5.68031 6.95961C5.49031 6.95961 5.30031 6.88961 5.15031 6.73961L4.10031 5.68961C3.81031 5.39961 3.81031 4.91961 4.10031 4.62961C4.39031 4.33961 4.87031 4.33961 5.16031 4.62961L6.21031 5.67961C6.50031 5.96961 6.50031 6.44961 6.21031 6.73961C6.06031 6.88961 5.87031 6.95961 5.68031 6.95961Z" fill="white"/> <path d="M11.9905 22.7504C11.5505 22.7504 11.1005 22.7004 10.6505 22.6104C8.21048 22.1004 6.27048 20.0904 5.83048 17.6204C5.32048 14.7904 6.72048 12.0604 9.31048 10.8204C9.69048 10.6404 10.1305 10.8004 10.3105 11.1704C10.4905 11.5404 10.3305 11.9904 9.96048 12.1704C7.99048 13.1104 6.92048 15.1904 7.31048 17.3504C7.64048 19.2304 9.11048 20.7504 10.9605 21.1304C12.4105 21.4304 13.8905 21.0904 15.0105 20.1704C16.1305 19.2604 16.7805 17.9104 16.7805 16.4604C16.7805 14.6104 15.7305 12.9704 14.0505 12.1604C13.6805 11.9804 13.5205 11.5304 13.7005 11.1604C13.8805 10.7904 14.3305 10.6304 14.7005 10.8104C16.9105 11.8704 18.2805 14.0304 18.2805 16.4604C18.2805 18.3604 17.4305 20.1404 15.9605 21.3404C14.8305 22.2604 13.4405 22.7404 12.0005 22.7404L11.9905 22.7504Z" fill="white"/> </g> <defs> <clipPath id="clip0_4482_14150"> <rect width="24" height="24" fill="white"/> </clipPath> </defs> </svg>
