<svg width="24" height="24" viewBox="0 0 24 24" fill="none" xmlns="http://www.w3.org/2000/svg"> <g clip-path="url(#clip0_2085_386444)"> <path d="M9.51031 16.1197C9.32031 16.1197 9.13031 16.0497 8.98031 15.8997L8.10031 15.0197C7.81031 14.7297 7.81031 14.2497 8.10031 13.9597C8.39031 13.6697 8.87031 13.6697 9.16031 13.9597L10.0403 14.8397C10.3303 15.1297 10.3303 15.6097 10.0403 15.8997C9.89031 16.0497 9.70031 16.1197 9.51031 16.1197Z" fill="white"/> <path d="M11.5303 14.0992C11.3403 14.0992 11.1503 14.0292 11.0003 13.8792L10.1203 12.9992C9.83033 12.7092 9.83033 12.2292 10.1203 11.9392C10.4103 11.6492 10.8903 11.6492 11.1803 11.9392L12.0603 12.8192C12.3503 13.1092 12.3503 13.5892 12.0603 13.8792C11.9103 14.0292 11.7203 14.0992 11.5303 14.0992Z" fill="white"/> <path d="M9.07035 19.7196C8.88035 19.7196 8.69035 19.6496 8.54035 19.4996L4.50035 15.4596C4.23035 15.1896 4.21035 14.7496 4.45035 14.4496L13.6904 3.19959C13.6904 3.19959 13.7204 3.15959 13.7404 3.14959C16.4404 0.449589 20.1104 1.21959 21.6804 1.99959C21.8304 2.06959 21.9404 2.18959 22.0204 2.33959C22.8004 3.89959 23.5704 7.57959 20.8704 10.2796L9.56035 19.5696C9.42035 19.6796 9.25035 19.7396 9.08035 19.7396L9.07035 19.7196ZM6.04035 14.8796L9.12035 17.9596L19.8504 9.14959C22.0504 6.94959 21.1104 4.06959 20.7704 3.22959C19.9304 2.88959 17.0704 1.95959 14.8204 4.17959L6.04035 14.8796Z" fill="white"/> <path d="M6.04029 20.1399C5.46029 20.1399 4.91029 19.9099 4.50029 19.4999C3.65029 18.6499 3.65029 17.2699 4.50029 16.4199L5.51029 15.4099C5.80029 15.1199 6.28029 15.1199 6.57029 15.4099C6.86029 15.6999 6.86029 16.1799 6.57029 16.4699L5.56029 17.4799C5.30029 17.7399 5.30029 18.1799 5.56029 18.4399C5.82029 18.6999 6.25029 18.6999 6.52029 18.4399L7.53029 17.4299C7.82029 17.1399 8.30029 17.1399 8.59029 17.4299C8.88029 17.7199 8.88029 18.1999 8.59029 18.4899L7.58029 19.4999C7.17029 19.9099 6.62029 20.1399 6.04029 20.1399Z" fill="white"/> <path d="M5.03023 15.68C4.95023 15.68 4.87023 15.67 4.79023 15.64L2.44023 14.86C1.72023 14.62 1.24023 13.96 1.24023 13.2V12.71C1.24023 11.89 1.82023 11.17 2.63023 11L8.51023 9.76C8.91023 9.67 9.31023 9.92999 9.40023 10.34C9.49023 10.75 9.23023 11.14 8.82023 11.23L2.94023 12.47C2.83023 12.49 2.74023 12.6 2.74023 12.72V13.21C2.74023 13.32 2.81023 13.41 2.91023 13.45L5.26023 14.23C5.65023 14.36 5.87023 14.79 5.73023 15.18C5.63023 15.49 5.33023 15.69 5.02023 15.69L5.03023 15.68Z" fill="white"/> <path d="M11.2903 22.7493H10.8003C10.0503 22.7493 9.38026 22.2693 9.14026 21.5493L8.36026 19.1993C8.23026 18.8093 8.44026 18.3793 8.83026 18.2493C9.22026 18.1293 9.65026 18.3293 9.78026 18.7193L10.5603 21.0693C10.5903 21.1693 10.6903 21.2393 10.8003 21.2393H11.2903C11.4103 21.2393 11.5103 21.1593 11.5303 21.0393L12.7703 15.1593C12.8603 14.7493 13.2503 14.4893 13.6603 14.5793C14.0703 14.6593 14.3203 15.0593 14.2403 15.4693L13.0003 21.3493C12.8303 22.1493 12.1103 22.7393 11.2903 22.7393V22.7493Z" fill="white"/> <path d="M14.2703 11.9092C13.7103 11.9092 13.1503 11.6992 12.7303 11.2692C12.3203 10.8592 12.0903 10.3092 12.0903 9.72922C12.0903 9.14922 12.3203 8.59922 12.7303 8.18922C13.5503 7.36922 14.9903 7.36922 15.8103 8.18922C16.6603 9.03922 16.6603 10.4192 15.8103 11.2692C15.3903 11.6892 14.8303 11.9092 14.2703 11.9092ZM14.2703 9.04922C14.0903 9.04922 13.9203 9.11922 13.7903 9.24922C13.6603 9.37922 13.5903 9.54922 13.5903 9.72922C13.5903 9.90922 13.6603 10.0792 13.7903 10.2092C14.0503 10.4692 14.4803 10.4692 14.7503 10.2092C15.0103 9.93922 15.0103 9.50922 14.7503 9.24922C14.6203 9.11922 14.4503 9.04922 14.2703 9.04922Z" fill="white"/> <path d="M20.3304 10.4794C20.1404 10.4794 19.9504 10.4094 19.8004 10.2594L13.7404 4.19937C13.4504 3.90937 13.4504 3.42937 13.7404 3.13938C14.0304 2.84938 14.5104 2.84938 14.8004 3.13938L20.8605 9.19937C21.1505 9.48937 21.1505 9.96938 20.8605 10.2594C20.7105 10.4094 20.5204 10.4794 20.3304 10.4794Z" fill="white"/> </g> <defs> <clipPath id="clip0_2085_386444"> <rect width="24" height="24" fill="white"/> </clipPath> </defs> </svg>
