<svg width="24" height="24" viewBox="0 0 24 24" fill="none" xmlns="http://www.w3.org/2000/svg"> <g clip-path="url(#clip0_4482_14517)"> <path d="M17 22.75C15.76 22.75 14.75 21.74 14.75 20.5V17C14.75 16.04 15.54 15.25 16.5 15.25H17.5C18.46 15.25 19.25 16.04 19.25 17V20.5C19.25 21.74 18.24 22.75 17 22.75ZM16.5 16.75C16.36 16.75 16.25 16.86 16.25 17V20.5C16.25 20.91 16.59 21.25 17 21.25C17.41 21.25 17.75 20.91 17.75 20.5V17C17.75 16.86 17.64 16.75 17.5 16.75H16.5Z" fill="white"/> <path d="M6 22.75C4.76 22.75 3.75 21.74 3.75 20.5V18C3.75 17.59 4.09 17.25 4.5 17.25C4.91 17.25 5.25 17.59 5.25 18V20.5C5.25 20.91 5.59 21.25 6 21.25C6.41 21.25 6.75 20.91 6.75 20.5V18C6.75 17.59 7.09 17.25 7.5 17.25C7.91 17.25 8.25 17.59 8.25 18V20.5C8.25 21.74 7.24 22.75 6 22.75Z" fill="white"/> <path d="M17 16.75C16.59 16.75 16.25 16.41 16.25 16V2C16.25 1.59 16.59 1.25 17 1.25C17.41 1.25 17.75 1.59 17.75 2V16C17.75 16.41 17.41 16.75 17 16.75Z" fill="white"/> <path d="M17 13.75C14.34 13.75 12.25 10.52 12.25 6.4C12.13 3.71 14.24 1.39 16.96 1.25C19.75 1.39 21.86 3.7 21.75 6.42C21.75 10.53 19.66 13.75 17 13.75ZM16.96 2.75C15.13 2.84 13.66 4.47 13.75 6.37C13.75 9.58 15.24 12.25 17 12.25C18.76 12.25 20.25 9.57 20.25 6.4C20.25 6.39 20.25 6.38 20.25 6.37C20.34 4.47 18.86 2.85 16.96 2.75Z" fill="white"/> <path d="M6 18.75C3.93 18.75 2.25 17.07 2.25 15V9C2.25 6.93 3.93 5.25 6 5.25C8.07 5.25 9.75 6.93 9.75 9V15C9.75 17.07 8.07 18.75 6 18.75ZM6 6.75C4.76 6.75 3.75 7.76 3.75 9V15C3.75 16.24 4.76 17.25 6 17.25C7.24 17.25 8.25 16.24 8.25 15V9C8.25 7.76 7.24 6.75 6 6.75Z" fill="white"/> <path d="M7.5 6.75C7.09 6.75 6.75 6.41 6.75 6V3.5C6.75 3.09 6.41 2.75 6 2.75C5.59 2.75 5.25 3.09 5.25 3.5V6C5.25 6.41 4.91 6.75 4.5 6.75C4.09 6.75 3.75 6.41 3.75 6V3.5C3.75 2.26 4.76 1.25 6 1.25C7.24 1.25 8.25 2.26 8.25 3.5V6C8.25 6.41 7.91 6.75 7.5 6.75Z" fill="white"/> </g> <defs> <clipPath id="clip0_4482_14517"> <rect width="24" height="24" fill="white"/> </clipPath> </defs> </svg>
