<svg width="24" height="24" viewBox="0 0 24 24" fill="none" xmlns="http://www.w3.org/2000/svg"> <g clip-path="url(#clip0_2085_381554)"> <path d="M12.0002 22.7599C9.97023 22.7599 7.93023 22.3899 5.99023 21.6499L4.31023 22.2099C3.61023 22.4399 2.84023 22.0599 2.60023 21.3599C2.47023 20.9599 2.52023 20.5399 2.76023 20.1899L4.06023 18.2399V9.53995C3.36023 9.29995 2.86023 8.63995 2.86023 7.86995V7.68995C2.86023 6.61995 3.73023 5.73995 4.81023 5.73995H6.14023C6.99023 4.28995 8.46023 2.92995 10.5302 1.66995C11.4402 1.11995 12.5602 1.11995 13.4702 1.66995C15.5402 2.91995 17.0102 4.28995 17.8602 5.73995H19.1902C20.2602 5.73995 21.1402 6.60995 21.1402 7.68995V7.86995C21.1402 8.63995 20.6402 9.29995 19.9402 9.53995V18.2399L21.2402 20.1899C21.4402 20.4899 21.5102 20.8499 21.4402 21.1999C21.3702 21.5499 21.1702 21.8599 20.8702 22.0599C20.5202 22.2899 20.0902 22.3499 19.7002 22.2199L18.0202 21.6599C16.0802 22.3999 14.0402 22.7699 12.0102 22.7699L12.0002 22.7599ZM6.01023 20.0999C6.10023 20.0999 6.20023 20.1199 6.29023 20.1499C9.97023 21.6199 14.0302 21.6199 17.7102 20.1499C17.8702 20.0799 18.0602 20.0799 18.2302 20.1299L19.7502 20.6399L18.5702 18.8699C18.4902 18.7499 18.4402 18.5999 18.4402 18.4499V9.61995H5.56023V18.4499C5.56023 18.5999 5.52023 18.7399 5.43023 18.8699L4.25023 20.6399L5.77023 20.1299C5.85023 20.0999 5.93023 20.0899 6.01023 20.0899V20.0999ZM4.81023 7.22995C4.56023 7.22995 4.36023 7.42995 4.36023 7.67995V7.85995C4.36023 8.00995 4.48023 8.12995 4.63023 8.12995H19.3602C19.5102 8.12995 19.6302 8.00995 19.6302 7.85995V7.67995C19.6302 7.42995 19.4302 7.22995 19.1802 7.22995H17.4302C17.4302 7.22995 17.4102 7.22995 17.4002 7.22995H6.59023C6.59023 7.22995 6.57023 7.22995 6.56023 7.22995H4.81023ZM7.96023 5.72995H16.0402C15.2802 4.76995 14.1602 3.83995 12.6902 2.94995C12.2602 2.68995 11.7302 2.68995 11.3102 2.94995C9.84023 3.83995 8.72023 4.76995 7.96023 5.72995ZM11.5402 19.1999C9.64023 19.1999 7.97023 17.8099 7.70023 15.8899C7.66023 15.6199 7.65023 15.3399 7.67023 15.0699L7.70023 14.8199C7.74023 14.4799 8.00023 14.2099 8.34023 14.1599C8.92023 14.0799 9.50023 14.1299 10.0302 14.2899C9.88023 13.2699 10.1502 12.2499 10.7702 11.4299C10.9902 11.1399 11.2502 10.8799 11.5502 10.6599C11.8202 10.4599 12.1802 10.4599 12.4402 10.6599C13.2702 11.2799 13.8102 12.1799 13.9602 13.2099C14.0102 13.5799 14.0102 13.9499 13.9602 14.3099C14.1602 14.2499 14.3702 14.1999 14.5802 14.1699C14.8502 14.1299 15.1302 14.1199 15.4002 14.1399L15.6502 14.1699C15.9902 14.2099 16.2602 14.4699 16.3102 14.8099C16.4602 15.8199 16.2002 16.8399 15.5802 17.6599C14.9602 18.4899 14.0502 19.0299 13.0102 19.1699C12.7402 19.2099 12.4602 19.2199 12.1902 19.1999L12.0102 19.1799C11.8502 19.1999 11.7002 19.2099 11.5402 19.2099V19.1999ZM12.0002 17.6799H12.0902H12.0502H11.9902H12.0002ZM9.18023 15.6399C9.18023 15.6399 9.18023 15.6599 9.18023 15.6799C9.34023 16.7499 10.2002 17.5599 11.2402 17.6799V17.6199C11.0802 16.5699 10.2102 15.7699 9.17023 15.6399H9.18023ZM12.7502 17.6799C12.7502 17.6799 12.7802 17.6799 12.7902 17.6799C13.4302 17.5899 13.9902 17.2599 14.3702 16.7499C14.6202 16.4199 14.7702 16.0399 14.8202 15.6499C14.8102 15.6499 14.7902 15.6499 14.7802 15.6499C13.7102 15.7999 12.8902 16.6299 12.7502 17.6799ZM11.9802 12.2999C11.9802 12.2999 11.9602 12.3199 11.9502 12.3399C11.5702 12.8399 11.4102 13.4599 11.5002 14.0799C11.5602 14.4899 11.7302 14.8799 11.9802 15.1999C11.9902 15.1899 12.0002 15.1699 12.0102 15.1599C12.3902 14.6599 12.5502 14.0399 12.4602 13.4199C12.4002 12.9999 12.2402 12.6199 11.9802 12.2999Z" fill="white"/> </g> <defs> <clipPath id="clip0_2085_381554"> <rect width="24" height="24" fill="white"/> </clipPath> </defs> </svg>
