<svg width="24" height="24" viewBox="0 0 24 24" fill="none" xmlns="http://www.w3.org/2000/svg"> <g clip-path="url(#clip0_4482_4985)"> <path d="M12 22.75C6.07 22.75 1.25 17.93 1.25 12C1.25 6.07 6.07 1.25 12 1.25C17.93 1.25 22.75 6.07 22.75 12C22.75 17.93 17.93 22.75 12 22.75ZM12 2.75C6.9 2.75 2.75 6.9 2.75 12C2.75 17.1 6.9 21.25 12 21.25C17.1 21.25 21.25 17.1 21.25 12C21.25 6.9 17.1 2.75 12 2.75Z" fill="white"/> <path d="M7.08981 10.61C6.89981 10.61 6.70979 10.54 6.55979 10.39C6.26979 10.1 6.26979 9.61997 6.55979 9.32997L6.92978 8.95998C7.99978 7.88997 9.63978 7.61997 10.9898 8.29997C11.3598 8.48997 11.5098 8.93997 11.3298 9.30997C11.1398 9.67997 10.6998 9.82996 10.3198 9.64996C9.53979 9.25996 8.59978 9.40997 7.98978 10.03L7.61978 10.4C7.46978 10.53 7.27981 10.61 7.08981 10.61Z" fill="white"/> <path d="M16.9101 10.6102C16.7201 10.6102 16.5301 10.5402 16.3801 10.3902L16.0101 10.0202C15.3901 9.41022 14.4601 9.25021 13.6801 9.64021C13.3101 9.83021 12.8601 9.68022 12.6701 9.30022C12.4801 8.93022 12.6301 8.48021 13.0101 8.29021C14.3701 7.61021 16.0001 7.88021 17.0701 8.95021L17.4401 9.32022C17.7301 9.61022 17.7301 10.0902 17.4401 10.3802C17.2901 10.5302 17.1001 10.6102 16.9101 10.6102Z" fill="white"/> <path d="M14.5 17.7495C14.41 17.7495 14.3099 17.7295 14.2199 17.6995C12.7899 17.1295 11.21 17.1295 9.78 17.6995C9.4 17.8495 8.95997 17.6695 8.80997 17.2795C8.65997 16.8995 8.83995 16.4595 9.22995 16.3095C11.0199 15.5895 12.9999 15.5895 14.7899 16.3095C15.1699 16.4595 15.36 16.8995 15.21 17.2795C15.08 17.5695 14.8 17.7495 14.5 17.7495Z" fill="white"/> </g> <defs> <clipPath id="clip0_4482_4985"> <rect width="24" height="24" fill="white"/> </clipPath> </defs> </svg>
