<svg width="24" height="24" viewBox="0 0 24 24" fill="none" xmlns="http://www.w3.org/2000/svg"> <g clip-path="url(#clip0_4482_5007)"> <path d="M8.40992 19.9099C7.28992 19.9099 6.18992 19.4799 5.34992 18.6499C3.83992 17.1399 3.66993 14.7199 4.94993 13.0099C7.23993 9.94992 9.95993 7.23992 13.0099 4.94992C14.7199 3.66992 17.1399 3.83993 18.6499 5.34993C20.1599 6.85993 20.3299 9.27993 19.0499 10.9899C16.7599 14.0499 14.0399 16.7599 10.9899 19.0499C10.2199 19.6199 9.30992 19.9099 8.40992 19.9099ZM15.5999 5.58992C15.0099 5.58992 14.4099 5.76992 13.9199 6.14992C10.9799 8.35992 8.36992 10.9699 6.15992 13.9099C5.32992 15.0199 5.43993 16.5999 6.41993 17.5899C7.40993 18.5699 8.98992 18.6899 10.0999 17.8499C13.0399 15.6399 15.6499 13.0299 17.8599 10.0899C18.6899 8.97992 18.5799 7.39993 17.5999 6.40993C17.0499 5.86993 16.3199 5.58992 15.5999 5.58992Z" fill="white"/> <path d="M5.46991 22.7501C4.66991 22.7501 3.8399 22.3901 3.1799 21.7201L2.27991 20.8201C1.40991 19.9501 1.05989 18.8001 1.35989 17.8101C1.58989 17.0501 2.17992 16.5201 2.97992 16.3601L4.4299 16.0701C4.8299 15.9901 5.22991 16.2501 5.30991 16.6601C5.38991 17.0701 5.12991 17.4601 4.71991 17.5401L3.25992 17.8301C3.00992 17.8801 2.84992 18.0201 2.78992 18.2401C2.67992 18.6101 2.80991 19.2201 3.33991 19.7501L4.2399 20.6501C4.7699 21.1801 5.37991 21.3101 5.74991 21.2001C5.97991 21.1301 6.10991 20.9801 6.15991 20.7301L6.44992 19.2701C6.52992 18.8601 6.9199 18.6001 7.3299 18.6801C7.7399 18.7601 7.99992 19.1601 7.91992 19.5601L7.62991 21.0201C7.46991 21.8101 6.9399 22.4001 6.1799 22.6401C5.9499 22.7201 5.70991 22.7501 5.46991 22.7501Z" fill="white"/> <path d="M19.4301 7.93989C19.0801 7.93989 18.7701 7.68988 18.7001 7.33988C18.6201 6.92988 18.8801 6.53989 19.2901 6.45989L20.7501 6.16988C21.0001 6.11988 21.1601 5.97988 21.2201 5.75988C21.3301 5.38988 21.2001 4.77989 20.6701 4.24989L19.7701 3.34989C19.2401 2.81989 18.6301 2.68989 18.2601 2.79989C18.0301 2.86989 17.9001 3.01989 17.8501 3.26989L17.5601 4.72988C17.4801 5.13988 17.0801 5.39989 16.6801 5.31989C16.2701 5.23989 16.0101 4.83989 16.0901 4.43989L16.3801 2.97988C16.5401 2.18988 17.0701 1.59989 17.8301 1.35989C18.8201 1.06989 19.9701 1.41989 20.8401 2.27989L21.7401 3.17988C22.6101 4.04988 22.9601 5.19989 22.6601 6.18989C22.4301 6.94989 21.8401 7.47989 21.0401 7.63989L19.5901 7.92988C19.5301 7.93988 19.4801 7.93989 19.4301 7.93989Z" fill="white"/> <path d="M7.84978 14.63C7.50978 14.63 7.20977 14.4 7.11977 14.06L6.59978 11.96C6.49978 11.56 6.73977 11.15 7.14977 11.05C7.54977 10.95 7.95977 11.19 8.05977 11.6L8.57976 13.7C8.67976 14.1 8.43977 14.51 8.02977 14.61C7.96977 14.62 7.90978 14.63 7.84978 14.63Z" fill="white"/> <path d="M10.4699 12.0099C10.1299 12.0099 9.82989 11.7799 9.73989 11.4399L9.2199 9.33986C9.1199 8.93986 9.35989 8.52986 9.76989 8.42986C10.1699 8.32986 10.5799 8.56986 10.6799 8.97986L11.1999 11.0799C11.2999 11.4799 11.0599 11.8899 10.6499 11.9899C10.5899 11.9999 10.5299 12.0099 10.4699 12.0099Z" fill="white"/> <path d="M13.09 9.37998C12.75 9.37998 12.45 9.14997 12.36 8.80997L11.84 6.70998C11.74 6.30998 11.98 5.89998 12.39 5.79998C12.8 5.69998 13.2 5.93998 13.3 6.34998L13.82 8.44997C13.92 8.84997 13.68 9.25997 13.27 9.35997C13.21 9.37997 13.15 9.37998 13.09 9.37998Z" fill="white"/> </g> <defs> <clipPath id="clip0_4482_5007"> <rect width="24" height="24" fill="white"/> </clipPath> </defs> </svg>
