<svg width="24" height="24" viewBox="0 0 24 24" fill="none" xmlns="http://www.w3.org/2000/svg"> <g clip-path="url(#clip0_2085_390779)"> <path d="M14.28 16.7509H9.72998C8.20998 16.7509 6.97998 15.5209 6.97998 14.0009V12.9409C6.97998 10.8409 8.68998 9.13086 10.79 9.13086H13.23C15.33 9.13086 17.04 10.8409 17.04 12.9409V14.0009C17.04 15.5209 15.81 16.7509 14.29 16.7509H14.28ZM10.78 10.6309C9.50998 10.6309 8.46998 11.6609 8.46998 12.9409V14.0009C8.46998 14.6909 9.02998 15.2509 9.71998 15.2509H14.27C14.96 15.2509 15.52 14.6909 15.52 14.0009V12.9409C15.52 11.6709 14.48 10.6309 13.21 10.6309H10.77H10.78Z" fill="white"/> <path d="M10.0898 12.7503C9.67984 12.7503 9.33984 12.4103 9.33984 12.0003V10.0703C9.33984 9.66031 9.67984 9.32031 10.0898 9.32031C10.4998 9.32031 10.8398 9.66031 10.8398 10.0703V12.0003C10.8398 12.4103 10.4998 12.7503 10.0898 12.7503Z" fill="white"/> <path d="M14 12.7503C13.59 12.7503 13.25 12.4103 13.25 12.0003V10.0703C13.25 9.66031 13.59 9.32031 14 9.32031C14.41 9.32031 14.75 9.66031 14.75 10.0703V12.0003C14.75 12.4103 14.41 12.7503 14 12.7503Z" fill="white"/> <path d="M22 3.30078H2C1.59 3.30078 1.25 2.96078 1.25 2.55078C1.25 2.14078 1.59 1.80078 2 1.80078H22C22.41 1.80078 22.75 2.14078 22.75 2.55078C22.75 2.96078 22.41 3.30078 22 3.30078Z" fill="white"/> <path d="M6.6499 6.56172C6.2399 6.56172 5.8999 6.22172 5.8999 5.81172V2.76172C5.8999 2.35172 6.2399 2.01172 6.6499 2.01172C7.0599 2.01172 7.3999 2.35172 7.3999 2.76172V5.81172C7.3999 6.22172 7.0599 6.56172 6.6499 6.56172Z" fill="white"/> <path d="M8.9502 6.56172C8.5402 6.56172 8.2002 6.22172 8.2002 5.81172V2.76172C8.2002 2.35172 8.5402 2.01172 8.9502 2.01172C9.3602 2.01172 9.7002 2.35172 9.7002 2.76172V5.81172C9.7002 6.22172 9.3602 6.56172 8.9502 6.56172Z" fill="white"/> <path d="M15.0498 6.56172C14.6398 6.56172 14.2998 6.22172 14.2998 5.81172V2.76172C14.2998 2.35172 14.6398 2.01172 15.0498 2.01172C15.4598 2.01172 15.7998 2.35172 15.7998 2.76172V5.81172C15.7998 6.22172 15.4598 6.56172 15.0498 6.56172Z" fill="white"/> <path d="M17.3501 6.56172C16.9401 6.56172 16.6001 6.22172 16.6001 5.81172V2.76172C16.6001 2.35172 16.9401 2.01172 17.3501 2.01172C17.7601 2.01172 18.1001 2.35172 18.1001 2.76172V5.81172C18.1001 6.22172 17.7601 6.56172 17.3501 6.56172Z" fill="white"/> <path d="M15.9999 14.5801H7.93994C7.52994 14.5801 7.18994 14.2401 7.18994 13.8301C7.18994 13.4201 7.52994 13.0801 7.93994 13.0801H15.9999C16.4099 13.0801 16.7499 13.4201 16.7499 13.8301C16.7499 14.2401 16.4099 14.5801 15.9999 14.5801Z" fill="white"/> <path d="M11.9999 22.2005C9.95988 22.2005 8.01988 21.3905 6.75988 20.0305C5.55988 19.8505 4.62988 18.8105 4.62988 17.5605V8.06055C4.62988 6.54055 5.85988 5.31055 7.37988 5.31055H16.6199C18.1399 5.31055 19.3699 6.54055 19.3699 8.06055V17.5605C19.3699 18.8105 18.4399 19.8505 17.2399 20.0305C15.9799 21.4005 14.0399 22.2005 11.9999 22.2005ZM7.37988 6.81055C6.68988 6.81055 6.12988 7.37055 6.12988 8.06055V17.5605C6.12988 18.1105 6.57988 18.5505 7.11988 18.5505C7.33988 18.5505 7.55988 18.6505 7.69988 18.8205C8.66988 19.9905 10.2799 20.7005 11.9999 20.7005C13.7199 20.7005 15.3299 20.0005 16.2999 18.8205C16.4399 18.6505 16.6499 18.5505 16.8799 18.5505C17.4299 18.5505 17.8699 18.1005 17.8699 17.5605V8.06055C17.8699 7.37055 17.3099 6.81055 16.6199 6.81055H7.37988Z" fill="white"/> </g> <defs> <clipPath id="clip0_2085_390779"> <rect width="24" height="24" fill="white"/> </clipPath> </defs> </svg>
