<svg width="24" height="24" viewBox="0 0 24 24" fill="none" xmlns="http://www.w3.org/2000/svg"> <g clip-path="url(#clip0_4482_3451)"> <path d="M16.6703 20.81C16.6503 20.81 16.6402 20.81 16.6202 20.81H5.54028C2.60028 20.6 1.28027 18.34 1.28027 16.33C1.28027 14.53 2.33024 12.53 4.62024 11.98C3.98024 9.47995 4.52026 7.12995 6.14026 5.42995C7.99026 3.48995 10.9503 2.71996 13.5103 3.49996C15.8603 4.21996 17.5102 6.14997 18.1102 8.81997C20.1602 9.27997 21.8002 10.83 22.4502 12.98C23.1602 15.31 22.5103 17.7 20.7703 19.23C19.6503 20.24 18.2003 20.81 16.6703 20.81ZM5.57019 13.34C3.64019 13.49 2.78027 14.94 2.78027 16.32C2.78027 17.71 3.65021 19.17 5.59021 19.31H16.6302C16.6402 19.31 16.6503 19.31 16.6703 19.31C17.8303 19.31 18.9203 18.88 19.7703 18.11C21.3303 16.75 21.4403 14.79 21.0203 13.42C20.6003 12.04 19.4302 10.48 17.3802 10.22C17.0502 10.18 16.7902 9.92997 16.7302 9.59997C16.3302 7.19997 15.0302 5.53996 13.0702 4.93996C11.0402 4.31996 8.70022 4.92996 7.23022 6.46996C5.81022 7.95996 5.48029 10.05 6.30029 12.35C6.44029 12.74 6.24022 13.17 5.85022 13.31C5.75022 13.33 5.67019 13.34 5.57019 13.34Z" fill="white"/> <path d="M11.8502 15.24C10.5502 15.24 9.49023 14.18 9.49023 12.88C9.49023 11.58 10.5502 10.52 11.8502 10.52C13.1502 10.52 14.2102 11.58 14.2102 12.88C14.2102 14.18 13.1602 15.24 11.8502 15.24ZM11.8502 12.02C11.3802 12.02 10.9902 12.41 10.9902 12.88C10.9902 13.35 11.3802 13.74 11.8502 13.74C12.3202 13.74 12.7102 13.35 12.7102 12.88C12.7102 12.41 12.3302 12.02 11.8502 12.02Z" fill="white"/> <path d="M14 15.77C13.81 15.77 13.6199 15.7 13.4699 15.55L12.53 14.61C12.24 14.32 12.24 13.84 12.53 13.55C12.82 13.26 13.2999 13.26 13.5899 13.55L14.53 14.49C14.82 14.78 14.82 15.26 14.53 15.55C14.38 15.7 14.19 15.77 14 15.77Z" fill="white"/> </g> <defs> <clipPath id="clip0_4482_3451"> <rect width="24" height="24" fill="white"/> </clipPath> </defs> </svg>
