<svg width="24" height="24" viewBox="0 0 24 24" fill="none" xmlns="http://www.w3.org/2000/svg"> <g clip-path="url(#clip0_4482_5260)"> <path d="M13.1401 10H10.85C9.42004 10 8.56006 8.97 8.56006 7.71V4.29C8.56006 3.03 9.42004 2 10.85 2H13.1401C14.5701 2 15.4301 3.03 15.4301 4.29V7.72C15.4301 8.97 14.5701 10 13.1401 10Z" stroke="white" stroke-width="1.5" stroke-miterlimit="10" stroke-linecap="round" stroke-linejoin="round"/> <path d="M12 13V10.75" stroke="white" stroke-width="1.5" stroke-miterlimit="10" stroke-linecap="round" stroke-linejoin="round"/> <path d="M14.2802 22H9.71015C8.68015 22 7.8201 21.22 7.7201 20.2L7.21015 15.2C7.09015 14.02 8.02014 13 9.20014 13H14.7802C15.9602 13 16.8901 14.02 16.7701 15.2L16.2601 20.2C16.1701 21.22 15.3102 22 14.2802 22Z" stroke="white" stroke-width="1.5" stroke-linecap="round" stroke-linejoin="round"/> <path d="M16.25 17.5H13.25" stroke="white" stroke-width="1.5" stroke-miterlimit="10" stroke-linecap="round" stroke-linejoin="round"/> </g> <defs> <clipPath id="clip0_4482_5260"> <rect width="24" height="24" fill="white"/> </clipPath> </defs> </svg>
