<svg width="24" height="24" viewBox="0 0 24 24" fill="none" xmlns="http://www.w3.org/2000/svg"> <g clip-path="url(#clip0_4482_3330)"> <path d="M15.5 22.75H8.5C5.61 22.75 3.25 20.4 3.25 17.5V6.5C3.25 3.6 5.61 1.25 8.5 1.25H15.5C18.39 1.25 20.75 3.6 20.75 6.5V17.5C20.75 20.4 18.39 22.75 15.5 22.75ZM8.5 2.75C6.43 2.75 4.75 4.43 4.75 6.5V17.5C4.75 19.57 6.43 21.25 8.5 21.25H15.5C17.57 21.25 19.25 19.57 19.25 17.5V6.5C19.25 4.43 17.57 2.75 15.5 2.75H8.5Z" fill="white"/> <path d="M14 6.75H10C9.59 6.75 9.25 6.41 9.25 6C9.25 5.59 9.59 5.25 10 5.25H14C14.41 5.25 14.75 5.59 14.75 6C14.75 6.41 14.41 6.75 14 6.75Z" fill="white"/> <path d="M9.96973 18.28C9.55973 18.28 9.21973 17.94 9.21973 17.53V13.47C9.21973 13.06 9.55973 12.72 9.96973 12.72C10.3797 12.72 10.7197 13.06 10.7197 13.47V17.53C10.7197 17.95 10.3797 18.28 9.96973 18.28Z" fill="white"/> <path d="M14.0303 18.28C13.6203 18.28 13.2803 17.94 13.2803 17.53V13.47C13.2803 13.06 13.6203 12.72 14.0303 12.72C14.4403 12.72 14.7803 13.06 14.7803 13.47V17.53C14.7803 17.95 14.4503 18.28 14.0303 18.28Z" fill="white"/> <path d="M15.25 15.4399C15.06 15.4399 14.8699 15.3699 14.7199 15.2199L14.03 14.5299L13.3399 15.2199C13.0499 15.5099 12.57 15.5099 12.28 15.2199C11.99 14.9299 11.99 14.4499 12.28 14.1599L13.5 12.9399C13.79 12.6499 14.27 12.6499 14.56 12.9399L15.78 14.1599C16.07 14.4499 16.07 14.9299 15.78 15.2199C15.63 15.3599 15.44 15.4399 15.25 15.4399Z" fill="white"/> <path d="M9.96994 18.28C9.77994 18.28 9.58991 18.21 9.43991 18.06L8.21994 16.84C7.92994 16.55 7.92994 16.07 8.21994 15.78C8.50994 15.49 8.99 15.49 9.28 15.78L9.96994 16.47L10.66 15.78C10.95 15.49 11.4299 15.49 11.7199 15.78C12.0099 16.07 12.0099 16.55 11.7199 16.84L10.5 18.06C10.35 18.21 10.1599 18.28 9.96994 18.28Z" fill="white"/> </g> <defs> <clipPath id="clip0_4482_3330"> <rect width="24" height="24" fill="white"/> </clipPath> </defs> </svg>
