<svg width="24" height="24" viewBox="0 0 24 24" fill="none" xmlns="http://www.w3.org/2000/svg"> <g clip-path="url(#clip0_4482_14817)"> <path d="M18.1101 14.9703C17.7001 14.9703 17.3601 14.6303 17.3601 14.2203V11.4003L16.2101 12.3803C15.9301 12.6203 15.5201 12.6203 15.2401 12.3803L14.0801 11.4003V14.2203C14.0801 14.6303 13.7401 14.9703 13.3301 14.9703C12.9201 14.9703 12.5801 14.6303 12.5801 14.2203V9.78026C12.5801 9.49026 12.7501 9.22026 13.0201 9.10026C13.2801 8.98026 13.6001 9.02026 13.8201 9.21026L15.7301 10.8303L17.6301 9.21026C17.8501 9.02026 18.1701 8.98026 18.4301 9.10026C18.7001 9.22026 18.8701 9.49026 18.8701 9.78026V14.2203C18.8701 14.6303 18.5301 14.9703 18.1201 14.9703H18.1101Z" fill="white"/> <path d="M12.0003 22.7503C9.13031 22.7503 6.43031 21.6303 4.40031 19.6003C0.210312 15.4103 0.210312 8.59031 4.40031 4.40031C8.59031 0.210312 15.4103 0.210312 19.6003 4.40031C21.6303 6.43031 22.7503 9.13031 22.7503 12.0003C22.7503 14.8703 21.6303 17.5703 19.6003 19.6003C17.5703 21.6303 14.8703 22.7503 12.0003 22.7503ZM12.0003 2.76031C9.63031 2.76031 7.26031 3.66031 5.46031 5.46031C1.85031 9.06031 1.85031 14.9303 5.46031 18.5403C7.21031 20.2903 9.53031 21.2503 12.0003 21.2503C14.4703 21.2503 16.7903 20.2903 18.5403 18.5403C20.2903 16.7903 21.2503 14.4703 21.2503 12.0003C21.2503 9.53031 20.2903 7.21031 18.5403 5.46031C16.7903 3.71031 14.3703 2.76031 12.0003 2.76031Z" fill="white"/> <path d="M9.20012 14.9703H6.12012C5.71012 14.9703 5.37012 14.6303 5.37012 14.2203C5.37012 13.8103 5.71012 13.4703 6.12012 13.4703H9.20012C9.40012 13.4703 9.56012 13.3103 9.56012 13.1103C9.56012 12.9103 9.40012 12.7503 9.20012 12.7503H6.98012C5.95012 12.7503 5.12012 11.9203 5.12012 10.8903C5.12012 9.86027 5.95012 9.03027 6.98012 9.03027H10.0601C10.4701 9.03027 10.8101 9.37027 10.8101 9.78027C10.8101 10.1903 10.4701 10.5303 10.0601 10.5303H6.98012C6.78012 10.5303 6.62012 10.6903 6.62012 10.8903C6.62012 11.0903 6.78012 11.2503 6.98012 11.2503H9.20012C10.2301 11.2503 11.0601 12.0803 11.0601 13.1103C11.0601 14.1403 10.2301 14.9703 9.20012 14.9703Z" fill="white"/> </g> <defs> <clipPath id="clip0_4482_14817"> <rect width="24" height="24" fill="white"/> </clipPath> </defs> </svg>
