<svg width="24" height="24" viewBox="0 0 24 24" fill="none" xmlns="http://www.w3.org/2000/svg"> <g clip-path="url(#clip0_4482_12451)"> <path d="M17.5601 12.75H13.1201C12.7101 12.75 12.3701 12.41 12.3701 12C12.3701 11.59 12.7101 11.25 13.1201 11.25H17.5601C17.9701 11.25 18.3101 11.59 18.3101 12C18.3101 12.41 17.9701 12.75 17.5601 12.75Z" fill="white"/> <path d="M19.7796 7.19C18.1396 7.19 16.8096 5.86 16.8096 4.22C16.8096 2.58 18.1396 1.25 19.7796 1.25C21.4196 1.25 22.7496 2.58 22.7496 4.22C22.7496 5.86 21.4196 7.19 19.7796 7.19ZM19.7796 2.75C18.9696 2.75 18.3096 3.41 18.3096 4.22C18.3096 5.03 18.9696 5.69 19.7796 5.69C20.5896 5.69 21.2496 5.03 21.2496 4.22C21.2496 3.41 20.5896 2.75 19.7796 2.75Z" fill="white"/> <path d="M19.7796 14.9703C18.1396 14.9703 16.8096 13.6403 16.8096 12.0003C16.8096 10.3603 18.1396 9.03027 19.7796 9.03027C21.4196 9.03027 22.7496 10.3603 22.7496 12.0003C22.7496 13.6403 21.4196 14.9703 19.7796 14.9703ZM19.7796 10.5203C18.9696 10.5203 18.3096 11.1803 18.3096 11.9903C18.3096 12.8003 18.9696 13.4603 19.7796 13.4603C20.5896 13.4603 21.2496 12.8003 21.2496 11.9903C21.2496 11.1803 20.5896 10.5203 19.7796 10.5203Z" fill="white"/> <path d="M19.7796 22.7496C18.1396 22.7496 16.8096 21.4196 16.8096 19.7796C16.8096 18.1396 18.1396 16.8096 19.7796 16.8096C21.4196 16.8096 22.7496 18.1396 22.7496 19.7796C22.7496 21.4196 21.4196 22.7496 19.7796 22.7496ZM19.7796 18.3096C18.9696 18.3096 18.3096 18.9696 18.3096 19.7796C18.3096 20.5896 18.9696 21.2496 19.7796 21.2496C20.5896 21.2496 21.2496 20.5896 21.2496 19.7796C21.2496 18.9696 20.5896 18.3096 19.7796 18.3096Z" fill="white"/> <path d="M19.7803 10.5302C19.3703 10.5302 19.0303 10.1902 19.0303 9.7802V6.4502C19.0303 6.0402 19.3703 5.7002 19.7803 5.7002C20.1903 5.7002 20.5303 6.0402 20.5303 6.4502V9.7802C20.5303 10.1902 20.1903 10.5302 19.7803 10.5302Z" fill="white"/> <path d="M19.7803 18.3105C19.3703 18.3105 19.0303 17.9705 19.0303 17.5605V14.2305C19.0303 13.8205 19.3703 13.4805 19.7803 13.4805C20.1903 13.4805 20.5303 13.8205 20.5303 14.2305V17.5605C20.5303 17.9705 20.1903 18.3105 19.7803 18.3105Z" fill="white"/> <path d="M13.11 9.41992H2C1.59 9.41992 1.25 9.07992 1.25 8.66992C1.25 8.25992 1.59 7.91992 2 7.91992H13.11C13.52 7.91992 13.86 8.25992 13.86 8.66992C13.86 9.07992 13.52 9.41992 13.11 9.41992Z" fill="white"/> <path d="M13.11 16.0801H2C1.59 16.0801 1.25 15.7401 1.25 15.3301C1.25 14.9201 1.59 14.5801 2 14.5801H13.11C13.52 14.5801 13.86 14.9201 13.86 15.3301C13.86 15.7401 13.52 16.0801 13.11 16.0801Z" fill="white"/> <path d="M7.56 22.75C4.08 22.75 1.25 19.92 1.25 16.44V7.56C1.25 4.08 4.08 1.25 7.56 1.25C11.04 1.25 13.87 4.08 13.87 7.56V16.45C13.87 19.93 11.04 22.76 7.56 22.76V22.75ZM7.56 2.75C4.91 2.75 2.75 4.91 2.75 7.56V16.45C2.75 19.1 4.91 21.26 7.56 21.26C10.21 21.26 12.37 19.1 12.37 16.45V7.56C12.37 4.91 10.21 2.75 7.56 2.75Z" fill="white"/> </g> <defs> <clipPath id="clip0_4482_12451"> <rect width="24" height="24" fill="white"/> </clipPath> </defs> </svg>
