<svg width="24" height="24" viewBox="0 0 24 24" fill="none" xmlns="http://www.w3.org/2000/svg"> <g clip-path="url(#clip0_4482_5365)"> <path d="M15 16.75H9C6.93 16.75 5.25 15.07 5.25 13V5C5.25 2.93 6.93 1.25 9 1.25H15C17.07 1.25 18.75 2.93 18.75 5V13C18.75 15.07 17.07 16.75 15 16.75ZM9 2.75C7.76 2.75 6.75 3.76 6.75 5V13C6.75 14.24 7.76 15.25 9 15.25H15C16.24 15.25 17.25 14.24 17.25 13V5C17.25 3.76 16.24 2.75 15 2.75H9Z" fill="white"/> <path d="M12 19.75C11.59 19.75 11.25 19.41 11.25 19V16C11.25 15.59 11.59 15.25 12 15.25C12.41 15.25 12.75 15.59 12.75 16V19C12.75 19.41 12.41 19.75 12 19.75Z" fill="white"/> <path d="M3.5 22.75C2.26 22.75 1.25 21.74 1.25 20.5C1.25 19.26 2.26 18.25 3.5 18.25C4.74 18.25 5.75 19.26 5.75 20.5C5.75 21.74 4.74 22.75 3.5 22.75ZM3.5 19.75C3.09 19.75 2.75 20.09 2.75 20.5C2.75 20.91 3.09 21.25 3.5 21.25C3.91 21.25 4.25 20.91 4.25 20.5C4.25 20.09 3.91 19.75 3.5 19.75Z" fill="white"/> <path d="M12 22.75C10.76 22.75 9.75 21.74 9.75 20.5C9.75 19.26 10.76 18.25 12 18.25C13.24 18.25 14.25 19.26 14.25 20.5C14.25 21.74 13.24 22.75 12 22.75ZM12 19.75C11.59 19.75 11.25 20.09 11.25 20.5C11.25 20.91 11.59 21.25 12 21.25C12.41 21.25 12.75 20.91 12.75 20.5C12.75 20.09 12.41 19.75 12 19.75Z" fill="white"/> <path d="M20.5 22.75C19.26 22.75 18.25 21.74 18.25 20.5C18.25 19.26 19.26 18.25 20.5 18.25C21.74 18.25 22.75 19.26 22.75 20.5C22.75 21.74 21.74 22.75 20.5 22.75ZM20.5 19.75C20.09 19.75 19.75 20.09 19.75 20.5C19.75 20.91 20.09 21.25 20.5 21.25C20.91 21.25 21.25 20.91 21.25 20.5C21.25 20.09 20.91 19.75 20.5 19.75Z" fill="white"/> <path d="M10 21.25H5C4.59 21.25 4.25 20.91 4.25 20.5C4.25 20.09 4.59 19.75 5 19.75H10C10.41 19.75 10.75 20.09 10.75 20.5C10.75 20.91 10.41 21.25 10 21.25Z" fill="white"/> <path d="M19 21.25H14C13.59 21.25 13.25 20.91 13.25 20.5C13.25 20.09 13.59 19.75 14 19.75H19C19.41 19.75 19.75 20.09 19.75 20.5C19.75 20.91 19.41 21.25 19 21.25Z" fill="white"/> <path d="M14.5 6.75H9.5C9.09 6.75 8.75 6.41 8.75 6C8.75 5.59 9.09 5.25 9.5 5.25H14.5C14.91 5.25 15.25 5.59 15.25 6C15.25 6.41 14.91 6.75 14.5 6.75Z" fill="white"/> <path d="M14.5 9.75H9.5C9.09 9.75 8.75 9.41 8.75 9C8.75 8.59 9.09 8.25 9.5 8.25H14.5C14.91 8.25 15.25 8.59 15.25 9C15.25 9.41 14.91 9.75 14.5 9.75Z" fill="white"/> <path d="M14.5 12.75H9.5C9.09 12.75 8.75 12.41 8.75 12C8.75 11.59 9.09 11.25 9.5 11.25H14.5C14.91 11.25 15.25 11.59 15.25 12C15.25 12.41 14.91 12.75 14.5 12.75Z" fill="white"/> </g> <defs> <clipPath id="clip0_4482_5365"> <rect width="24" height="24" fill="white"/> </clipPath> </defs> </svg>
