<svg width="24" height="24" viewBox="0 0 24 24" fill="none" xmlns="http://www.w3.org/2000/svg"> <g clip-path="url(#clip0_4482_12977)"> <path d="M12.0001 22.7499C11.7601 22.7499 11.5201 22.7199 11.2901 22.6599C6.10008 21.2299 2.33008 16.3799 2.33008 11.1199V6.72988C2.33008 5.58988 3.15008 4.37988 4.19008 3.97988L9.75008 1.68988C11.1801 1.10988 12.8101 1.10988 14.2401 1.68988L19.8201 3.97988C20.8001 4.35988 21.6001 5.48988 21.6601 6.59988C21.6601 6.63988 21.6701 6.68988 21.6701 6.73988V11.1299C21.6701 16.3699 17.9101 21.2199 12.7201 22.6599C12.4901 22.7199 12.2501 22.7499 12.0101 22.7499H12.0001ZM12.0001 2.74988C11.4301 2.74988 10.8601 2.85988 10.3201 3.07988L4.75008 5.37988C4.27008 5.55988 3.83008 6.21988 3.83008 6.73988V11.1299C3.83008 15.7199 7.13008 19.9599 11.6801 21.2199C11.8801 21.2699 12.1101 21.2699 12.3101 21.2199C16.7801 19.9799 20.1601 15.6399 20.1601 11.1299V6.84988C20.1601 6.84988 20.1501 6.76988 20.1501 6.72988C20.1501 6.20988 19.7101 5.55988 19.2501 5.37988L13.6601 3.07988C13.1301 2.85988 12.5601 2.74988 11.9801 2.74988H12.0001Z" fill="white"/> <path d="M12 21.75C11.59 21.75 11.25 21.41 11.25 21V3C11.25 2.59 11.59 2.25 12 2.25C12.41 2.25 12.75 2.59 12.75 3V21C12.75 21.41 12.41 21.75 12 21.75Z" fill="white"/> </g> <defs> <clipPath id="clip0_4482_12977"> <rect width="24" height="24" fill="white"/> </clipPath> </defs> </svg>
