<svg width="24" height="24" viewBox="0 0 24 24" fill="none" xmlns="http://www.w3.org/2000/svg"> <g clip-path="url(#clip0_4418_7077)"> <path d="M12.0001 22.7591C10.9101 22.7591 9.83012 22.4391 8.98012 21.8091L7.39012 20.6191C7.06012 20.3691 6.99012 19.8991 7.24012 19.5691C7.49012 19.2391 7.96012 19.1691 8.29012 19.4191L9.88012 20.6091C11.0301 21.4691 12.9801 21.4691 14.1301 20.6091L18.4301 17.3991C19.1901 16.8291 19.8501 15.4991 19.8501 14.5591V7.11914C19.8501 6.70914 20.1901 6.36914 20.6001 6.36914C21.0101 6.36914 21.3501 6.70914 21.3501 7.11914V14.5491C21.3501 15.9691 20.4601 17.7391 19.3201 18.5891L15.0201 21.7991C14.1701 22.4391 13.0901 22.7591 12.0001 22.7591Z" fill="white"/> <path d="M5.3299 18.8995C5.1699 18.8995 5.0199 18.8495 4.8799 18.7495L4.6799 18.5995C3.5399 17.7495 2.6499 15.9695 2.6499 14.5595V7.11945C2.6499 5.57945 3.7799 3.93945 5.2299 3.39945L10.2199 1.52945C11.2099 1.15945 12.7699 1.15945 13.7599 1.52945L18.7599 3.39945C18.9699 3.47945 19.1699 3.57945 19.3699 3.69945C19.7199 3.91945 19.8299 4.37945 19.6099 4.72945C19.3899 5.07945 18.9299 5.18945 18.5799 4.96945C18.4699 4.89945 18.3599 4.83945 18.2399 4.79945L13.2399 2.92945C12.5799 2.67945 11.4099 2.67945 10.7499 2.92945L5.7599 4.80945C4.8999 5.12945 4.1499 6.20945 4.1499 7.12945V14.5595C4.1499 15.5095 4.8199 16.8395 5.5699 17.3995L5.7699 17.5495C6.0999 17.7995 6.1699 18.2695 5.9199 18.5995C5.7899 18.7895 5.5599 18.8995 5.3299 18.8995Z" fill="white"/> <path d="M1.99994 22.7495C1.80994 22.7495 1.61994 22.6795 1.46994 22.5295C1.17994 22.2395 1.17994 21.7595 1.46994 21.4695L21.4699 1.46945C21.7599 1.17945 22.2399 1.17945 22.5299 1.46945C22.8199 1.75945 22.8199 2.23945 22.5299 2.52945L2.52994 22.5295C2.37994 22.6795 2.18994 22.7495 1.99994 22.7495Z" fill="white"/> </g> <defs> <clipPath id="clip0_4418_7077"> <rect width="24" height="24" fill="white"/> </clipPath> </defs> </svg>
