<svg width="24" height="24" viewBox="0 0 24 24" fill="none" xmlns="http://www.w3.org/2000/svg"> <g clip-path="url(#clip0_2085_390666)"> <path d="M8.27011 18.6404H2.01011C1.62011 18.6404 1.31011 18.3305 1.31011 17.9405V15.4504C1.31011 14.8005 1.63011 14.2305 2.11011 13.8805C1.76011 13.3505 1.40011 12.6205 1.31011 11.7905C1.16011 10.2405 2.49011 7.90045 2.65011 7.63045C2.82011 7.34045 3.17011 7.21045 3.48011 7.32045C5.69011 8.06045 8.15011 7.88045 10.2401 6.84045L11.7001 6.11045C11.9701 5.98045 12.3001 6.03045 12.5101 6.24045L14.6401 8.37045C15.5701 9.30045 16.8101 9.95045 18.1401 10.2205L20.1401 10.6205C21.6301 10.9205 22.7101 12.2305 22.7101 13.7505V15.9404C22.7101 16.8604 22.0901 17.6405 21.2101 17.8405C19.7301 18.1805 17.5101 18.5805 15.3801 18.5805C13.0501 18.5805 10.6201 18.1005 8.99011 17.7005V17.9305C8.99011 18.3205 8.68011 18.6304 8.29011 18.6304L8.27011 18.6404ZM2.71011 17.2304H7.57011V16.7905C7.57011 16.5705 7.67011 16.3604 7.85011 16.2304C8.02011 16.1004 8.25011 16.0505 8.46011 16.1105C9.63011 16.4305 12.6301 17.1705 15.3701 17.1705C17.4801 17.1705 19.7401 16.7304 20.8901 16.4704C21.1301 16.4204 21.3001 16.2004 21.3001 15.9404V15.2505C19.9201 15.5905 17.5301 16.0805 15.3701 16.0805C12.2801 16.0805 8.82011 15.0905 8.17011 14.8905H3.25011C2.95011 14.8905 2.71011 15.1305 2.71011 15.4305V17.2204V17.2304ZM3.57011 13.5005H8.27011C8.34011 13.5005 8.41011 13.5105 8.48011 13.5305C8.52011 13.5405 12.2101 14.6805 15.3601 14.6805C17.5701 14.6805 20.0701 14.1205 21.2901 13.8005V13.7505C21.2901 12.9005 20.6901 12.1705 19.8501 12.0005L17.8501 11.6005C16.2501 11.2805 14.7601 10.4905 13.6301 9.37045L11.8501 7.59045L10.8501 8.09045C8.61011 9.21045 6.00011 9.46045 3.59011 8.81045C3.14011 9.69045 2.63011 10.9505 2.70011 11.6405C2.78011 12.4305 3.28011 13.1505 3.56011 13.4905L3.57011 13.5005Z" fill="white"/> <path d="M8.28008 14.9006C7.89008 14.9006 7.58008 14.5906 7.58008 14.2006V13.6206C7.58008 12.4506 8.19008 11.4206 9.20008 10.8406C10.2101 10.2606 11.4101 10.2806 12.4101 10.8806L13.8501 11.7406C14.1001 11.8906 14.4201 11.8206 14.5801 11.5806L15.6601 9.95059C15.8701 9.63059 16.3101 9.54059 16.6401 9.76059C16.9601 9.98059 17.0501 10.4106 16.8301 10.7406L15.7501 12.3606C15.1701 13.2306 14.0201 13.4906 13.1301 12.9506L11.7001 12.0906C11.1401 11.7506 10.4701 11.7506 9.90008 12.0706C9.33008 12.3906 8.99008 12.9706 8.99008 13.6206V14.2006C8.99008 14.5906 8.68008 14.9006 8.29008 14.9006H8.28008Z" fill="white"/> <path d="M12.0101 9.93027C11.8301 9.93027 11.6501 9.86027 11.5101 9.72027C11.2401 9.45027 11.2401 9.00027 11.5101 8.73027L12.7501 7.49027C13.0201 7.21027 13.4701 7.21027 13.7401 7.49027C14.0101 7.76027 14.0101 8.21027 13.7401 8.48027L12.5001 9.72027C12.3601 9.86027 12.1801 9.93027 12.0001 9.93027H12.0101Z" fill="white"/> </g> <defs> <clipPath id="clip0_2085_390666"> <rect width="24" height="24" fill="white"/> </clipPath> </defs> </svg>
