<svg width="24" height="24" viewBox="0 0 24 24" fill="none" xmlns="http://www.w3.org/2000/svg"> <g clip-path="url(#clip0_4482_5492)"> <path d="M17.95 18.25C17.53 18.25 17.2 17.91 17.2 17.5L17.24 5.01C17.24 4.41 17.01 3.84 16.58 3.41C16.15 2.98 15.59 2.75 14.99 2.75H11.5C10.54 2.75 9.75 3.54 9.75 4.5V5.25H12.5C13.74 5.25 14.75 6.26 14.75 7.5C14.75 8.74 13.74 9.75 12.5 9.75H5.5C4.26 9.75 3.25 8.74 3.25 7.5C3.25 6.26 4.26 5.25 5.5 5.25H8.25V4.5C8.25 2.71 9.71 1.25 11.5 1.25H14.99C15.99 1.25 16.94 1.64 17.65 2.35C18.36 3.06 18.75 4.01 18.74 5.01L18.7 17.5C18.7 17.92 18.37 18.25 17.95 18.25ZM5.5 6.75C5.09 6.75 4.75 7.09 4.75 7.5C4.75 7.91 5.09 8.25 5.5 8.25H12.5C12.91 8.25 13.25 7.91 13.25 7.5C13.25 7.09 12.91 6.75 12.5 6.75H5.5Z" fill="white"/> <path d="M4.99993 14.7502C4.88993 14.7502 4.76991 14.7202 4.66991 14.6702C4.29991 14.4802 4.14995 14.0302 4.32995 13.6602L5.32995 11.6602C5.51995 11.2902 5.96996 11.1402 6.33996 11.3202C6.70996 11.5102 6.85992 11.9602 6.67992 12.3302L5.67992 14.3302C5.53992 14.6002 5.26993 14.7502 4.99993 14.7502Z" fill="white"/> <path d="M13.0002 14.75C12.7202 14.75 12.4603 14.6 12.3303 14.33L11.3303 12.33C11.1403 11.96 11.2902 11.51 11.6702 11.32C12.0402 11.14 12.4902 11.28 12.6802 11.66L13.6802 13.66C13.8702 14.03 13.7203 14.48 13.3403 14.67C13.2303 14.72 13.1102 14.75 13.0002 14.75Z" fill="white"/> <path d="M9 14.75C8.59 14.75 8.25 14.41 8.25 14V12C8.25 11.59 8.59 11.25 9 11.25C9.41 11.25 9.75 11.59 9.75 12V14C9.75 14.41 9.41 14.75 9 14.75Z" fill="white"/> <path d="M20.08 22.7498H15.92C15.18 22.7498 14.52 22.4498 14.11 21.9198C13.69 21.3898 13.56 20.6698 13.74 19.9598L13.99 18.9598C14.23 17.9998 15.19 17.2598 16.17 17.2598H19.83C20.81 17.2598 21.77 18.0098 22.01 18.9598L22.26 19.9598C22.44 20.6698 22.3 21.3898 21.89 21.9198C21.47 22.4498 20.81 22.7498 20.08 22.7498ZM16.17 18.7498C15.87 18.7498 15.52 19.0298 15.44 19.3198L15.19 20.3198C15.12 20.5898 15.16 20.8298 15.29 20.9898C15.42 21.1598 15.64 21.2498 15.92 21.2498H20.08C20.35 21.2498 20.58 21.1598 20.71 20.9898C20.84 20.8198 20.88 20.5798 20.81 20.3198L20.56 19.3198C20.49 19.0298 20.13 18.7498 19.83 18.7498H16.17Z" fill="white"/> </g> <defs> <clipPath id="clip0_4482_5492"> <rect width="24" height="24" fill="white"/> </clipPath> </defs> </svg>
