<svg width="24" height="24" viewBox="0 0 24 24" fill="none" xmlns="http://www.w3.org/2000/svg"> <g clip-path="url(#clip0_2085_381916)"> <path d="M18.1099 22.75H5.88992C4.24992 22.75 2.91992 21.42 2.91992 19.78V4.22C2.91992 2.58 4.24992 1.25 5.88992 1.25H13.8399C14.6399 1.25 15.4199 1.58 15.9799 2.15L20.2499 6.56C20.7899 7.12 21.0899 7.85 21.0899 8.63V19.77C21.0899 21.41 19.7499 22.75 18.1099 22.75ZM5.88992 2.75C5.07992 2.75 4.41992 3.41 4.41992 4.22V19.78C4.41992 20.59 5.07992 21.25 5.88992 21.25H18.1099C18.9199 21.25 19.5799 20.59 19.5799 19.78V8.64C19.5799 8.26 19.4299 7.89 19.1599 7.62L14.8899 3.21C14.6199 2.92 14.2299 2.76 13.8299 2.76H5.87992L5.88992 2.75Z" fill="white"/> <path d="M13.4898 16.0795H10.5098C10.0998 16.0795 9.75977 15.7395 9.75977 15.3295C9.75977 13.7795 10.8598 13.0295 11.6698 12.4795C12.4098 11.9795 12.7398 11.7095 12.7398 11.2595C12.7398 10.8495 12.4098 10.5195 11.9998 10.5195C11.5898 10.5195 11.2598 10.8495 11.2598 11.2595C11.2598 11.6695 10.9198 12.0095 10.5098 12.0095C10.0998 12.0095 9.75977 11.6695 9.75977 11.2595C9.75977 10.0295 10.7598 9.01953 11.9998 9.01953C13.2398 9.01953 14.2398 10.0195 14.2398 11.2595C14.2398 12.4995 13.2798 13.1995 12.5198 13.7195C12.0598 14.0395 11.7098 14.2795 11.4998 14.5795H13.4998C13.9098 14.5795 14.2498 14.9195 14.2498 15.3295C14.2498 15.7395 13.9098 16.0795 13.4998 16.0795H13.4898Z" fill="white"/> </g> <defs> <clipPath id="clip0_2085_381916"> <rect width="24" height="24" fill="white"/> </clipPath> </defs> </svg>
