<svg width="24" height="24" viewBox="0 0 24 24" fill="none" xmlns="http://www.w3.org/2000/svg"> <g clip-path="url(#clip0_2085_381917)"> <path d="M12.2302 18.9405H7.79018C6.76018 18.9405 5.93018 18.0705 5.93018 17.0005V13.6705C5.93018 12.6005 6.76018 11.7305 7.79018 11.7305H12.2302C13.2602 11.7305 14.0902 12.6005 14.0902 13.6705V17.0005C14.0902 18.0705 13.2602 18.9405 12.2302 18.9405ZM7.78018 13.2305C7.58018 13.2305 7.42018 13.4305 7.42018 13.6705V17.0005C7.42018 17.2405 7.59018 17.4405 7.78018 17.4405H12.2202C12.4202 17.4405 12.5802 17.2405 12.5802 17.0005V13.6705C12.5802 13.4305 12.4102 13.2305 12.2202 13.2305H7.78018Z" fill="white"/> <path d="M15.4001 22.7498H4.77012C3.31012 22.7498 2.12012 21.5598 2.12012 20.0998V7.23984C2.12012 5.77984 3.31012 4.58984 4.77012 4.58984H11.7401C12.4501 4.58984 13.1501 4.87984 13.6501 5.39984L17.3101 9.17984C17.7901 9.67984 18.0601 10.3298 18.0601 11.0298V20.1098C18.0601 21.5698 16.8701 22.7598 15.4101 22.7598L15.4001 22.7498ZM4.77012 6.07984C4.13012 6.07984 3.62012 6.59984 3.62012 7.22984V20.0898C3.62012 20.7298 4.14012 21.2398 4.77012 21.2398H15.4101C16.0501 21.2398 16.5601 20.7198 16.5601 20.0898V11.0098C16.5601 10.7098 16.4401 10.4198 16.2301 10.2098L12.5701 6.42984C12.3501 6.20984 12.0501 6.07984 11.7401 6.07984H4.77012Z" fill="white"/> <path d="M20.6402 17.1898C20.2302 17.1898 19.8902 16.8498 19.8902 16.4398V7.68977C19.8902 7.38977 19.7702 7.09977 19.5602 6.88977L15.8902 3.10977C15.6702 2.88977 15.3702 2.75977 15.0602 2.75977H8.41016C8.00016 2.75977 7.66016 2.41977 7.66016 2.00977C7.66016 1.59977 8.00016 1.25977 8.41016 1.25977H15.0602C15.7702 1.25977 16.4702 1.54977 16.9702 2.06977L20.6302 5.84977C21.1102 6.34977 21.3802 6.99977 21.3802 7.69977V16.4598C21.3802 16.8698 21.0402 17.2098 20.6302 17.2098L20.6402 17.1898Z" fill="white"/> </g> <defs> <clipPath id="clip0_2085_381917"> <rect width="24" height="24" fill="white"/> </clipPath> </defs> </svg>
