<svg width="24" height="24" viewBox="0 0 24 24" fill="none" xmlns="http://www.w3.org/2000/svg"> <g clip-path="url(#clip0_2085_381919)"> <path d="M17.75 22.75H5.75C3.13 22.75 1 20.62 1 18V6C1 3.38 3.13 1.25 5.75 1.25H17.75C20.37 1.25 22.5 3.38 22.5 6V18C22.5 20.62 20.37 22.75 17.75 22.75ZM5.75 2.75C3.96 2.75 2.5 4.21 2.5 6V18C2.5 19.79 3.96 21.25 5.75 21.25H17.75C19.54 21.25 21 19.79 21 18V6C21 4.21 19.54 2.75 17.75 2.75H5.75Z" fill="white"/> <path d="M21.75 17.1895H1.75C1.34 17.1895 1 16.8495 1 16.4395C1 16.0295 1.34 15.6895 1.75 15.6895H21.75C22.16 15.6895 22.5 16.0295 22.5 16.4395C22.5 16.8495 22.16 17.1895 21.75 17.1895Z" fill="white"/> <path d="M21.7499 10.5293H16.1899C15.7799 10.5293 15.4399 10.1893 15.4399 9.7793C15.4399 9.3693 15.7799 9.0293 16.1899 9.0293H21.7499C22.1599 9.0293 22.4999 9.3693 22.4999 9.7793C22.4999 10.1893 22.1599 10.5293 21.7499 10.5293Z" fill="white"/> <path d="M7.31 10.5293H1.75C1.34 10.5293 1 10.1893 1 9.7793C1 9.3693 1.34 9.0293 1.75 9.0293H7.31C7.72 9.0293 8.06 9.3693 8.06 9.7793C8.06 10.1893 7.72 10.5293 7.31 10.5293Z" fill="white"/> <path d="M16.1899 17.19C15.7799 17.19 15.4399 16.85 15.4399 16.44V2C15.4399 1.59 15.7799 1.25 16.1899 1.25C16.5999 1.25 16.9399 1.59 16.9399 2V16.44C16.9399 16.85 16.5999 17.19 16.1899 17.19Z" fill="white"/> <path d="M7.31006 17.19C6.90006 17.19 6.56006 16.85 6.56006 16.44V2C6.56006 1.59 6.90006 1.25 7.31006 1.25C7.72006 1.25 8.06006 1.59 8.06006 2V16.44C8.06006 16.85 7.72006 17.19 7.31006 17.19Z" fill="white"/> </g> <defs> <clipPath id="clip0_2085_381919"> <rect width="24" height="24" fill="white"/> </clipPath> </defs> </svg>
