<svg width="24" height="24" viewBox="0 0 24 24" fill="none" xmlns="http://www.w3.org/2000/svg"> <g clip-path="url(#clip0_2085_386300)"> <path d="M18.9298 21.9695C17.3898 21.9695 16.1298 20.7095 16.1298 19.1695C16.1298 18.6995 16.2498 18.2595 16.4498 17.8695H14.2298C14.4298 18.2595 14.5498 18.6995 14.5498 19.1695C14.5498 20.7095 13.2898 21.9695 11.7498 21.9695C10.2098 21.9695 8.9498 20.7095 8.9498 19.1695C8.9498 18.6995 9.0698 18.2595 9.2698 17.8695H7.0598C7.2598 18.2595 7.3798 18.6995 7.3798 19.1695C7.3798 20.7095 6.1198 21.9695 4.5798 21.9695C3.0398 21.9695 1.7798 20.7095 1.7798 19.1695C1.7798 18.4195 2.0798 17.7295 2.5698 17.2195C2.2598 16.9595 1.9898 16.6395 1.7798 16.2395C1.0598 14.9295 1.0798 13.2395 1.8398 12.0495C3.0298 10.1695 3.1998 8.22953 2.3498 6.11953C2.2398 5.83953 2.2998 5.51953 2.5198 5.30953C5.7798 2.04953 10.5398 2.01953 10.7398 2.01953C11.0998 2.01953 11.4098 2.26953 11.4798 2.61953L12.3098 6.73953C12.6998 8.66953 14.0998 10.2395 15.9798 10.8295L20.8198 12.3595C21.9698 12.7195 22.7798 13.8295 22.7798 15.0395C22.7798 16.1395 22.1598 17.0895 21.2498 17.5495C21.5698 17.9995 21.7598 18.5595 21.7598 19.1595C21.7598 20.6995 20.4998 21.9595 18.9598 21.9595L18.9298 21.9695ZM18.9298 17.8695C18.2098 17.8695 17.6298 18.4495 17.6298 19.1695C17.6298 19.8895 18.2098 20.4695 18.9298 20.4695C19.6498 20.4695 20.2298 19.8895 20.2298 19.1695C20.2298 18.4495 19.6498 17.8695 18.9298 17.8695ZM11.7498 17.8695C11.0298 17.8695 10.4498 18.4495 10.4498 19.1695C10.4498 19.8895 11.0298 20.4695 11.7498 20.4695C12.4698 20.4695 13.0498 19.8895 13.0498 19.1695C13.0498 18.4495 12.4698 17.8695 11.7498 17.8695ZM4.5798 17.8695C3.8598 17.8695 3.2798 18.4495 3.2798 19.1695C3.2798 19.8895 3.8598 20.4695 4.5798 20.4695C5.2998 20.4695 5.8798 19.8895 5.8798 19.1695C5.8798 18.4495 5.2998 17.8695 4.5798 17.8695ZM18.9298 16.3695H19.9498C20.6698 16.3695 21.2498 15.7795 21.2498 15.0495C21.2498 14.4795 20.8798 13.9695 20.3398 13.7995L15.4998 12.2695C13.8598 11.7495 12.4998 10.6495 11.6498 9.20953L9.9698 9.65953C9.5598 9.76953 9.1598 9.52953 9.0498 9.12953C8.9398 8.72953 9.1798 8.31953 9.5798 8.20953L11.0298 7.81953C10.9498 7.55953 10.8798 7.29953 10.8198 7.02953L10.7598 6.73953L9.4598 7.08953C9.0498 7.19953 8.6498 6.95953 8.5398 6.55953C8.4298 6.15953 8.6698 5.74953 9.0698 5.63953L10.4698 5.25953L10.1298 3.53953C8.8998 3.65953 6.0698 4.12953 3.9298 6.02953C4.7398 8.40953 4.4698 10.6995 3.1098 12.8395C2.6498 13.5595 2.6498 14.6795 3.0998 15.5095C3.3098 15.8995 3.6998 16.3595 4.3498 16.3595H18.9398L18.9298 16.3695Z" fill="white"/> </g> <defs> <clipPath id="clip0_2085_386300"> <rect width="24" height="24" fill="white"/> </clipPath> </defs> </svg>
