<svg width="24" height="24" viewBox="0 0 24 24" fill="none" xmlns="http://www.w3.org/2000/svg"> <g clip-path="url(#clip0_4482_5103)"> <path d="M3 21.0001L6.42004 19.6801C7.01004 19.4501 7.44005 18.9201 7.55005 18.2901L8.16003 14.6201C8.23003 14.2101 8.40002 13.8301 8.65002 13.5001L13.34 7.47012C13.77 6.92012 13.3801 6.12012 12.6801 6.12012H9.84998C9.39998 6.12012 8.97002 6.30012 8.65002 6.62012L6.52002 8.75012" stroke="white" stroke-width="1.5" stroke-miterlimit="10" stroke-linecap="round" stroke-linejoin="round"/> <path d="M16.1302 7.87012L14.5002 10.0401C14.0902 10.5901 14.4803 11.3701 15.1703 11.3701H17.0002" stroke="white" stroke-width="1.5" stroke-miterlimit="10" stroke-linecap="round" stroke-linejoin="round"/> <path d="M13.2701 18.0005V16.9905C13.2701 16.5505 13.0402 16.1405 12.6602 15.8905L10.8701 14.7305" stroke="white" stroke-width="1.5" stroke-miterlimit="10" stroke-linecap="round" stroke-linejoin="round"/> <path d="M11 18H17.76C19.13 18 20.38 17.23 21 16" stroke="white" stroke-width="1.5" stroke-miterlimit="10" stroke-linecap="round" stroke-linejoin="round"/> <path d="M13 20C12.45 20 12 20.45 12 21C12 21.55 12.45 22 13 22C13.55 22 14 21.55 14 21C14 20.45 13.55 20 13 20Z" stroke="white" stroke-width="1.5" stroke-miterlimit="10" stroke-linecap="round" stroke-linejoin="round"/> <path d="M18 20C17.45 20 17 20.45 17 21C17 21.55 17.45 22 18 22C18.55 22 19 21.55 19 21C19 20.45 18.55 20 18 20Z" stroke="white" stroke-width="1.5" stroke-miterlimit="10" stroke-linecap="round" stroke-linejoin="round"/> <path d="M17.6599 5.04988L18.3198 4.38988C18.8598 3.84988 18.8598 2.94988 18.3198 2.40988C17.7798 1.86988 16.8798 1.86988 16.3398 2.40988L15.6799 3.06989C15.1399 3.60989 15.1399 4.50988 15.6799 5.04988C16.2299 5.58988 17.1199 5.58988 17.6599 5.04988Z" stroke="white" stroke-width="1.5" stroke-miterlimit="10" stroke-linecap="round" stroke-linejoin="round"/> </g> <defs> <clipPath id="clip0_4482_5103"> <rect width="24" height="24" fill="white"/> </clipPath> </defs> </svg>
