<svg width="24" height="24" viewBox="0 0 24 24" fill="none" xmlns="http://www.w3.org/2000/svg"> <g clip-path="url(#clip0_2085_381619)"> <path d="M14.0001 22.75H10.0001C8.64013 22.75 7.95013 22.75 7.32013 22.43C6.76013 22.14 6.31013 21.69 6.02013 21.13C5.70013 20.49 5.70013 19.77 5.70013 18.45V17.45C5.70013 17.07 5.51013 16.73 5.20013 16.52L4.85013 16.29C3.30013 15.25 2.37013 13.52 2.37013 11.65V10.9C2.36013 5.57 6.69013 1.25 12.0001 1.25C17.3101 1.25 21.6401 5.57 21.6401 10.89V11.64C21.6401 13.51 20.7101 15.24 19.1601 16.28L18.8101 16.52C18.5001 16.73 18.3101 17.08 18.3101 17.45V18.45C18.3101 19.77 18.3101 20.5 17.9901 21.13C17.7001 21.69 17.2501 22.14 16.6901 22.43C16.0501 22.75 15.3701 22.75 14.0101 22.75H14.0001ZM11.9801 2.74C7.49013 2.74 3.86013 6.4 3.86013 10.89V11.64C3.86013 13 4.54013 14.27 5.67013 15.03L6.02013 15.26C6.75013 15.75 7.19013 16.56 7.19013 17.44V18.44C7.19013 19.53 7.19013 20.13 7.35013 20.44C7.49013 20.72 7.72013 20.94 7.99013 21.08C8.31013 21.24 8.90013 21.24 9.99013 21.24H13.9901C15.0801 21.24 15.6801 21.24 15.9901 21.08C16.2701 20.94 16.4901 20.72 16.6301 20.44C16.7901 20.13 16.7901 19.53 16.7901 18.44V17.44C16.7901 16.56 17.2301 15.75 17.9601 15.26L18.3101 15.02C19.4401 14.26 20.1201 13 20.1201 11.63V10.88C20.1201 6.39 16.4701 2.74 11.9801 2.74Z" fill="white"/> <path d="M12 17.75C11.59 17.75 11.25 17.41 11.25 17V14.78C11.25 14.37 11.59 14.03 12 14.03C12.41 14.03 12.75 14.37 12.75 14.78V17C12.75 17.41 12.41 17.75 12 17.75Z" fill="white"/> <path d="M14.2102 7.77006C14.0202 7.77006 13.8402 7.68006 13.6902 7.53006C13.4002 7.24006 13.4002 6.76006 13.6902 6.47006L14.2702 5.89006L14.0402 5.66006C13.8002 5.42006 13.6702 5.11006 13.6702 4.78006C13.6702 4.45006 13.8002 4.13006 14.0402 3.90006L15.3502 2.59006C15.6402 2.30006 16.1202 2.30006 16.4102 2.59006C16.7002 2.88006 16.7002 3.36006 16.4102 3.65006L15.2702 4.79006L15.5002 5.02006C15.9902 5.51006 15.9902 6.30006 15.5002 6.79006L14.7402 7.55006C14.5902 7.70006 14.4002 7.77006 14.2102 7.77006Z" fill="white"/> <path d="M9.77979 22.75C9.36979 22.75 9.02979 22.41 9.02979 22V19.78C9.02979 19.37 9.36979 19.03 9.77979 19.03C10.1898 19.03 10.5298 19.37 10.5298 19.78V22C10.5298 22.41 10.1898 22.75 9.77979 22.75Z" fill="white"/> <path d="M12 22.75C11.59 22.75 11.25 22.41 11.25 22V19.78C11.25 19.37 11.59 19.03 12 19.03C12.41 19.03 12.75 19.37 12.75 19.78V22C12.75 22.41 12.41 22.75 12 22.75Z" fill="white"/> <path d="M14.2202 22.75C13.8102 22.75 13.4702 22.41 13.4702 22V19.78C13.4702 19.37 13.8102 19.03 14.2202 19.03C14.6302 19.03 14.9702 19.37 14.9702 19.78V22C14.9702 22.41 14.6302 22.75 14.2202 22.75Z" fill="white"/> <path d="M6.99995 13.86C6.68995 13.86 6.38995 13.66 6.28995 13.35C6.15995 12.96 6.36995 12.53 6.75995 12.4L8.54995 11.8L7.16995 10.97C6.80995 10.76 6.69995 10.3 6.90995 9.93995C7.11995 9.57995 7.57995 9.46995 7.93995 9.67995L9.78995 10.79C10.2099 11.04 10.4399 11.51 10.3899 12C10.3399 12.49 10.0099 12.89 9.53995 13.05L7.23994 13.82C7.15995 13.85 7.07995 13.86 6.99995 13.86Z" fill="white"/> <path d="M16.9998 13.86C16.9198 13.86 16.8398 13.85 16.7598 13.82L14.4598 13.05C13.9898 12.89 13.6698 12.49 13.6098 12C13.5598 11.51 13.7898 11.05 14.2098 10.79L16.0598 9.67995C16.4098 9.46995 16.8698 9.57995 17.0898 9.93995C17.2998 10.2899 17.1898 10.76 16.8298 10.97L15.4498 11.8L17.2398 12.4C17.6298 12.53 17.8398 12.96 17.7098 13.35C17.6098 13.66 17.3098 13.86 16.9998 13.86Z" fill="white"/> </g> <defs> <clipPath id="clip0_2085_381619"> <rect width="24" height="24" fill="white"/> </clipPath> </defs> </svg>
