<svg width="24" height="24" viewBox="0 0 24 24" fill="none" xmlns="http://www.w3.org/2000/svg"> <g clip-path="url(#clip0_655_7074)"> <path d="M12 18.97C11.59 18.97 11.25 18.63 11.25 18.22V5.78C11.25 5.37 11.59 5.03 12 5.03C12.41 5.03 12.75 5.37 12.75 5.78V18.23C12.75 18.64 12.41 18.98 12 18.98V18.97Z" fill="white"/> <path d="M12.0006 6.53C11.8206 6.53 11.6306 6.46 11.4906 6.33C11.1906 6.05 11.1706 5.57 11.4606 5.27L15.0206 1.49C15.3006 1.19 15.7806 1.17 16.0806 1.46C16.3806 1.74 16.4006 2.22 16.1106 2.52L12.5506 6.3C12.4006 6.46 12.2006 6.54 12.0006 6.54V6.53Z" fill="white"/> <path d="M12.0003 6.53001C11.8003 6.53001 11.6003 6.45001 11.4503 6.29001L7.89026 2.51001C7.61026 2.21001 7.62026 1.73001 7.92026 1.45001C8.22026 1.17001 8.70026 1.18001 8.98026 1.48001L12.5403 5.26001C12.8203 5.56001 12.8103 6.04001 12.5103 6.32001C12.3703 6.46001 12.1803 6.52001 12.0003 6.52001V6.53001Z" fill="white"/> <path d="M8.44001 22.75C8.26001 22.75 8.07001 22.68 7.93001 22.55C7.63001 22.27 7.61001 21.79 7.90001 21.49L11.46 17.71C11.75 17.41 12.22 17.39 12.52 17.68C12.82 17.96 12.84 18.44 12.55 18.74L8.99001 22.52C8.84001 22.68 8.64001 22.76 8.44001 22.76V22.75Z" fill="white"/> <path d="M15.5608 22.75C15.3608 22.75 15.1608 22.67 15.0108 22.51L11.4508 18.73C11.1708 18.43 11.1808 17.95 11.4808 17.67C11.7808 17.39 12.2608 17.4 12.5408 17.7L16.1008 21.48C16.3808 21.78 16.3708 22.26 16.0708 22.54C15.9308 22.68 15.7408 22.74 15.5608 22.74V22.75Z" fill="white"/> <path d="M17.1095 15.86C16.9795 15.86 16.8495 15.83 16.7295 15.76L13.7295 13.98L11.5995 12.64L6.49949 9.53999C6.14949 9.31999 6.02949 8.85999 6.24949 8.50999C6.46949 8.15999 6.92949 8.03999 7.27949 8.25999L17.4995 14.48C17.8595 14.69 17.9695 15.15 17.7595 15.51C17.6195 15.75 17.3695 15.88 17.1095 15.88V15.86Z" fill="white"/> <path d="M6.88907 9.64001C6.55907 9.64001 6.24907 9.42001 6.16907 9.08001L4.83907 3.97001C4.73907 3.57001 4.97907 3.16001 5.37907 3.05001C5.77907 2.95001 6.18907 3.18001 6.29907 3.59001L7.62907 8.70001C7.72907 9.10001 7.48907 9.51001 7.08907 9.62001C7.02907 9.64001 6.95907 9.64001 6.89907 9.64001H6.88907Z" fill="white"/> <path d="M2.00062 10.97C1.67062 10.97 1.37062 10.75 1.28062 10.42C1.17062 10.02 1.41062 9.61 1.81062 9.5L6.70062 8.17C7.10062 8.06 7.51062 8.3 7.62062 8.7C7.73062 9.1 7.49062 9.51 7.09062 9.62L2.20062 10.95C2.13062 10.97 2.07062 10.98 2.00062 10.98V10.97Z" fill="white"/> <path d="M18.4399 20.97C18.1099 20.97 17.7999 20.75 17.7199 20.41L16.3899 15.3C16.2899 14.9 16.5299 14.49 16.9299 14.38C17.3299 14.28 17.7399 14.51 17.8499 14.92L19.1799 20.03C19.2799 20.43 19.0399 20.84 18.6399 20.95C18.5799 20.97 18.5099 20.97 18.4499 20.97H18.4399Z" fill="white"/> <path d="M17.11 15.86C16.78 15.86 16.48 15.64 16.39 15.31C16.28 14.91 16.52 14.5 16.92 14.39L21.81 13.06C22.21 12.95 22.62 13.19 22.73 13.59C22.84 13.99 22.6 14.4 22.2 14.51L17.31 15.84C17.24 15.86 17.18 15.87 17.11 15.87V15.86Z" fill="white"/> <path d="M6.89043 15.86C6.63043 15.86 6.38043 15.73 6.24043 15.49C6.03043 15.13 6.15043 14.67 6.50043 14.46L9.50043 12.68L11.5904 11.36L16.7104 8.24C17.0604 8.02 17.5204 8.14 17.7404 8.49C17.9604 8.84 17.8404 9.3 17.4904 9.52L7.26043 15.75C7.14043 15.82 7.01043 15.85 6.88043 15.85L6.89043 15.86Z" fill="white"/> <path d="M17.1101 9.64001C17.0501 9.64001 16.9801 9.64001 16.9201 9.62001C16.5201 9.52001 16.2801 9.11001 16.3801 8.70001L17.7101 3.59001C17.8101 3.19001 18.2301 2.95001 18.6301 3.05001C19.0301 3.15001 19.2701 3.56001 19.1701 3.97001L17.8401 9.08001C17.7501 9.42001 17.4501 9.64001 17.1201 9.64001H17.1101Z" fill="white"/> <path d="M22.0002 10.97C21.9402 10.97 21.8702 10.97 21.8002 10.94L16.9102 9.61001C16.5102 9.50001 16.2702 9.09 16.3802 8.69C16.4902 8.29 16.8902 8.06001 17.3002 8.16001L22.1902 9.49001C22.5902 9.60001 22.8302 10.01 22.7202 10.41C22.6302 10.74 22.3302 10.96 22.0002 10.96V10.97Z" fill="white"/> <path d="M5.55931 20.97C5.49931 20.97 5.42931 20.97 5.36931 20.95C4.96931 20.85 4.72931 20.44 4.82931 20.03L6.15931 14.92C6.25931 14.52 6.67931 14.28 7.07931 14.38C7.47931 14.48 7.71931 14.89 7.61931 15.3L6.28931 20.41C6.19931 20.75 5.89931 20.97 5.56931 20.97H5.55931Z" fill="white"/> <path d="M6.89086 15.86C6.83086 15.86 6.76086 15.86 6.69086 15.83L1.80086 14.5C1.40086 14.39 1.16086 13.98 1.27086 13.58C1.38086 13.18 1.78086 12.94 2.19086 13.05L7.08086 14.38C7.48086 14.49 7.72086 14.9 7.61086 15.3C7.52086 15.63 7.22086 15.85 6.89086 15.85V15.86Z" fill="white"/> </g> <defs> <clipPath id="clip0_655_7074"> <rect width="24" height="24" fill="white"/> </clipPath> </defs> </svg>
