<svg width="24" height="24" viewBox="0 0 24 24" fill="none" xmlns="http://www.w3.org/2000/svg"> <g clip-path="url(#clip0_655_7081)"> <path d="M12 22.75C11.59 22.75 11.25 22.41 11.25 22V14.78C11.25 14.37 11.59 14.03 12 14.03C12.41 14.03 12.75 14.37 12.75 14.78V22C12.75 22.41 12.41 22.75 12 22.75Z" fill="white"/> <path d="M12 9.97C11.59 9.97 11.25 9.63 11.25 9.22V2C11.25 1.59 11.59 1.25 12 1.25C12.41 1.25 12.75 1.59 12.75 2V9.22C12.75 9.63 12.41 9.97 12 9.97Z" fill="white"/> <path d="M21.9993 12.75H14.7793C14.3693 12.75 14.0293 12.41 14.0293 12C14.0293 11.59 14.3693 11.25 14.7793 11.25H21.9993C22.4093 11.25 22.7493 11.59 22.7493 12C22.7493 12.41 22.4093 12.75 21.9993 12.75Z" fill="white"/> <path d="M9.22 12.75H2C1.59 12.75 1.25 12.41 1.25 12C1.25 11.59 1.59 11.25 2 11.25H9.22C9.63 11.25 9.97 11.59 9.97 12C9.97 12.41 9.63 12.75 9.22 12.75Z" fill="white"/> <path d="M4.89008 19.86C4.70008 19.86 4.51008 19.79 4.36008 19.64C4.07008 19.35 4.07008 18.87 4.36008 18.58L9.47008 13.47C9.76008 13.18 10.2401 13.18 10.5301 13.47C10.8201 13.76 10.8201 14.24 10.5301 14.53L5.42008 19.64C5.27008 19.79 5.08008 19.86 4.89008 19.86Z" fill="white"/> <path d="M13.9995 10.75C13.8095 10.75 13.6195 10.68 13.4695 10.53C13.1795 10.24 13.1795 9.75999 13.4695 9.46999L18.5795 4.35999C18.8695 4.06999 19.3495 4.06999 19.6395 4.35999C19.9295 4.64999 19.9295 5.12999 19.6395 5.41999L14.5295 10.53C14.3795 10.68 14.1895 10.75 13.9995 10.75Z" fill="white"/> <path d="M12.0007 15.53C11.1407 15.53 10.3107 15.21 9.5307 14.59C8.8007 13.86 8.4707 13.04 8.4707 12C8.4707 11.14 8.7907 10.31 9.4107 9.53C9.4507 9.49 9.4807 9.45 9.5307 9.41C11.0907 8.16 12.9107 8.16 14.4707 9.41C14.5107 9.45 14.5507 9.48 14.5907 9.53C15.2107 10.31 15.5307 11.14 15.5307 12C15.5307 12.86 15.2107 13.69 14.5907 14.47C14.5507 14.51 14.5207 14.55 14.4707 14.59C13.6907 15.21 12.8607 15.53 12.0007 15.53ZM10.5307 10.53C10.1507 11.02 9.9707 11.5 9.9707 12C9.9707 12.63 10.1407 13.08 10.5307 13.47C11.4207 14.17 12.4607 14.24 13.4707 13.47C13.8507 12.98 14.0307 12.5 14.0307 12C14.0307 11.5 13.8507 11.03 13.4707 10.53C12.4807 9.77 11.5207 9.77 10.5407 10.53H10.5307Z" fill="white"/> <path d="M19.1095 19.86C18.9195 19.86 18.7295 19.79 18.5795 19.64L13.4695 14.53C13.1795 14.24 13.1795 13.76 13.4695 13.47C13.7595 13.18 14.2395 13.18 14.5295 13.47L19.6395 18.58C19.9295 18.87 19.9295 19.35 19.6395 19.64C19.4895 19.79 19.2995 19.86 19.1095 19.86Z" fill="white"/> <path d="M10.0001 10.75C9.81008 10.75 9.62008 10.68 9.47008 10.53L4.36008 5.41999C4.07008 5.12999 4.07008 4.64999 4.36008 4.35999C4.65008 4.06999 5.13008 4.06999 5.42008 4.35999L10.5301 9.46999C10.8201 9.75999 10.8201 10.24 10.5301 10.53C10.3801 10.68 10.1901 10.75 10.0001 10.75Z" fill="white"/> </g> <defs> <clipPath id="clip0_655_7081"> <rect width="24" height="24" fill="white"/> </clipPath> </defs> </svg>
