<svg width="24" height="24" viewBox="0 0 24 24" fill="none" xmlns="http://www.w3.org/2000/svg"> <g clip-path="url(#clip0_4418_6716)"> <path d="M12 9.25C11.59 9.25 11.25 8.91 11.25 8.5V3C11.25 2.59 11.59 2.25 12 2.25C12.41 2.25 12.75 2.59 12.75 3V8.5C12.75 8.91 12.41 9.25 12 9.25Z" fill="white"/> <path d="M12 21.75C11.59 21.75 11.25 21.41 11.25 21V15.5C11.25 15.09 11.59 14.75 12 14.75C12.41 14.75 12.75 15.09 12.75 15.5V21C12.75 21.41 12.41 21.75 12 21.75Z" fill="white"/> <path d="M14 3.75H10C9.59 3.75 9.25 3.41 9.25 3C9.25 2.59 9.59 2.25 10 2.25H14C14.41 2.25 14.75 2.59 14.75 3C14.75 3.41 14.41 3.75 14 3.75Z" fill="white"/> <path d="M14 21.75H10C9.59 21.75 9.25 21.41 9.25 21C9.25 20.59 9.59 20.25 10 20.25H14C14.41 20.25 14.75 20.59 14.75 21C14.75 21.41 14.41 21.75 14 21.75Z" fill="white"/> <path d="M8.97013 11.0002C8.84013 11.0002 8.71013 10.9702 8.60013 10.9002L3.84013 8.15016C3.48013 7.94016 3.36013 7.48017 3.57013 7.13017C3.78013 6.77017 4.24013 6.65017 4.59013 6.86017L9.35013 9.61017C9.71013 9.82017 9.83013 10.2802 9.62013 10.6302C9.48013 10.8702 9.23013 11.0002 8.97013 11.0002Z" fill="white"/> <path d="M19.79 17.2502C19.66 17.2502 19.53 17.2202 19.42 17.1502L14.66 14.4002C14.3 14.1902 14.18 13.7302 14.39 13.3802C14.6 13.0202 15.06 12.9002 15.41 13.1102L20.17 15.8602C20.53 16.0702 20.65 16.5302 20.44 16.8802C20.3 17.1202 20.05 17.2502 19.79 17.2502Z" fill="white"/> <path d="M3.21013 9.97969C3.08013 9.97969 2.95013 9.9497 2.84013 9.8797C2.48013 9.6697 2.36013 9.2097 2.57013 8.8597L4.57013 5.39969C4.78013 5.03969 5.24013 4.9197 5.59013 5.1297C5.95013 5.3397 6.07013 5.79969 5.86013 6.14969L3.86013 9.6097C3.72013 9.8497 3.46013 9.97969 3.21013 9.97969Z" fill="white"/> <path d="M18.7902 18.9797C18.6602 18.9797 18.5302 18.9497 18.4202 18.8797C18.0602 18.6697 17.9402 18.2097 18.1502 17.8597L20.1502 14.3997C20.3602 14.0397 20.8202 13.9197 21.1702 14.1297C21.5302 14.3397 21.6502 14.7997 21.4402 15.1497L19.4402 18.6097C19.3102 18.8497 19.0502 18.9797 18.7902 18.9797Z" fill="white"/> <path d="M12 16.2498C10.49 16.2498 9.08 15.4398 8.32 14.1298C7.94 13.4698 7.75 12.7598 7.75 11.9998C7.75 11.2398 7.94 10.5298 8.32 9.87978C9.08 8.56978 10.49 7.75977 12 7.75977C13.51 7.75977 14.92 8.56978 15.68 9.87978C16.06 10.5398 16.25 11.2498 16.25 12.0098C16.25 12.7698 16.06 13.4798 15.68 14.1298C14.92 15.4398 13.51 16.2498 12 16.2498ZM12 9.24977C11.02 9.24977 10.11 9.77978 9.62 10.6298C9.38 11.0498 9.25 11.5198 9.25 11.9998C9.25 12.4798 9.37 12.9498 9.62 13.3798C10.11 14.2298 11.02 14.7598 12 14.7598C12.98 14.7598 13.89 14.2298 14.38 13.3798C14.62 12.9598 14.75 12.4898 14.75 12.0098C14.75 11.5298 14.63 11.0598 14.38 10.6298C13.89 9.77978 12.98 9.24977 12 9.24977Z" fill="white"/> <path d="M15.0299 11.0002C14.7699 11.0002 14.5199 10.8702 14.3799 10.6202C14.1699 10.2602 14.2999 9.80017 14.6499 9.60017L19.4099 6.85017C19.7699 6.64017 20.2299 6.77015 20.4299 7.12015C20.6399 7.48015 20.5099 7.94016 20.1599 8.14016L15.3999 10.8902C15.2899 10.9702 15.1599 11.0002 15.0299 11.0002Z" fill="white"/> <path d="M4.21012 17.2502C3.95012 17.2502 3.70012 17.1202 3.56012 16.8702C3.35012 16.5102 3.48012 16.0502 3.83012 15.8502L8.59012 13.1002C8.95012 12.8902 9.41012 13.0202 9.61012 13.3702C9.82012 13.7302 9.69012 14.1902 9.34012 14.3902L4.58012 17.1402C4.47012 17.2202 4.34012 17.2502 4.21012 17.2502Z" fill="white"/> <path d="M20.7902 9.97969C20.5302 9.97969 20.2802 9.8497 20.1402 9.5997L18.1402 6.1397C17.9302 5.7797 18.0602 5.31969 18.4102 5.11969C18.7702 4.90969 19.2302 5.0397 19.4302 5.3897L21.4302 8.8497C21.6402 9.2097 21.5102 9.66969 21.1602 9.86969C21.0502 9.94969 20.9202 9.97969 20.7902 9.97969Z" fill="white"/> <path d="M5.21012 18.9797C4.95012 18.9797 4.70012 18.8497 4.56012 18.5997L2.56012 15.1397C2.35012 14.7797 2.48012 14.3197 2.83012 14.1197C3.19012 13.9097 3.65012 14.0397 3.85012 14.3897L5.85012 17.8497C6.06012 18.2097 5.93012 18.6697 5.58012 18.8697C5.46012 18.9497 5.33012 18.9797 5.21012 18.9797Z" fill="white"/> </g> <defs> <clipPath id="clip0_4418_6716"> <rect width="24" height="24" fill="white"/> </clipPath> </defs> </svg>
