<svg width="24" height="24" viewBox="0 0 24 24" fill="none" xmlns="http://www.w3.org/2000/svg"> <g clip-path="url(#clip0_4482_5556)"> <path d="M11.3798 13.5305C10.7498 13.5305 10.1097 13.3605 9.54974 13.0205L2.52979 8.81055C1.73979 8.34055 1.25977 7.48055 1.25977 6.56055C1.25977 6.15055 1.59977 5.81055 2.00977 5.81055C2.41977 5.81055 2.75977 6.15055 2.75977 6.56055C2.75977 6.95055 2.96975 7.32055 3.30975 7.52055L10.3298 11.7305C10.9798 12.1205 11.7998 12.1205 12.4498 11.7305L19.4697 7.52055C19.8097 7.32055 20.0198 6.95055 20.0198 6.56055C20.0198 6.15055 20.3598 5.81055 20.7698 5.81055C21.1798 5.81055 21.5198 6.15055 21.5198 6.56055C21.5198 7.48055 21.0298 8.34055 20.2498 8.81055L13.2297 13.0205C12.6397 13.3605 12.0098 13.5305 11.3798 13.5305Z" fill="white"/> <path d="M14.55 17.75H6C3.38 17.75 1.25 15.62 1.25 13V6C1.25 3.38 3.38 1.25 6 1.25H16.75C19.37 1.25 21.5 3.38 21.5 6V13C21.5 14.17 21.06 15.3 20.27 16.18C20.11 16.36 19.88 16.45 19.63 16.42C19.39 16.39 19.18 16.25 19.06 16.04L18.4 14.88C18.02 14.2 16.98 14.21 16.61 14.87L15.21 17.35C15.07 17.6 14.82 17.75 14.55 17.75ZM6 2.75C4.21 2.75 2.75 4.21 2.75 6V13C2.75 14.79 4.21 16.25 6 16.25H14.11L15.29 14.15C15.74 13.34 16.57 12.85 17.49 12.85C18.41 12.85 19.24 13.34 19.7 14.15L19.75 14.23C19.91 13.84 20 13.42 20 12.99V6C20 4.21 18.54 2.75 16.75 2.75H6Z" fill="white"/> <path d="M17.5 20.4104C17.09 20.4104 16.75 20.0804 16.75 19.6604V19.6504C16.75 19.2404 17.09 18.9004 17.5 18.9004C17.91 18.9004 18.25 19.2404 18.25 19.6504C18.25 20.0604 17.91 20.4104 17.5 20.4104Z" fill="white"/> <path d="M20.2099 22.7496H14.7899C13.8799 22.7496 13.0599 22.2796 12.5999 21.4896C12.1399 20.6996 12.1299 19.7596 12.5799 18.9696L15.2999 14.1496C15.7499 13.3396 16.5799 12.8496 17.4999 12.8496C18.4199 12.8496 19.2499 13.3396 19.7099 14.1496L22.4299 18.9696C22.8799 19.7596 22.8699 20.7096 22.4099 21.4896C21.9399 22.2796 21.1199 22.7496 20.2099 22.7496ZM17.4999 14.3496C17.1199 14.3496 16.7899 14.5496 16.6099 14.8796L13.8899 19.6996C13.7099 20.0296 13.7099 20.3996 13.8999 20.7296C14.0899 21.0596 14.4199 21.2396 14.7999 21.2396H20.2199C20.5999 21.2396 20.9299 21.0496 21.1199 20.7296C21.3099 20.3996 21.3099 20.0296 21.1299 19.6996L18.4099 14.8796C18.2099 14.5496 17.8799 14.3496 17.4999 14.3496Z" fill="white"/> <path d="M17.5 18.3293C17.09 18.3293 16.75 17.9893 16.75 17.5793V16.2793C16.75 15.8693 17.09 15.5293 17.5 15.5293C17.91 15.5293 18.25 15.8693 18.25 16.2793V17.5793C18.25 17.9993 17.91 18.3293 17.5 18.3293Z" fill="white"/> </g> <defs> <clipPath id="clip0_4482_5556"> <rect width="24" height="24" fill="white"/> </clipPath> </defs> </svg>
