<svg width="24" height="24" viewBox="0 0 24 24" fill="none" xmlns="http://www.w3.org/2000/svg"> <g clip-path="url(#clip0_4482_10001)"> <path d="M20.0899 21.7397H14.2699C13.3099 21.7397 12.4599 21.2497 11.9699 20.4197C11.4899 19.5997 11.4799 18.6097 11.9499 17.7697L14.8599 12.5997C15.3399 11.7497 16.1999 11.2397 17.1799 11.2397C18.1499 11.2397 19.0199 11.7497 19.4999 12.5997L22.4099 17.7697C22.8799 18.5997 22.8699 19.5897 22.3899 20.4197C21.9099 21.2397 21.0499 21.7397 20.0899 21.7397ZM17.1799 12.7497C16.7599 12.7497 16.3799 12.9697 16.1699 13.3397L13.2599 18.5097C13.0599 18.8697 13.0599 19.3097 13.2599 19.6697C13.4699 20.0297 13.8399 20.2397 14.2599 20.2397H20.0799C20.4999 20.2397 20.8699 20.0297 21.0799 19.6697C21.2899 19.3097 21.2899 18.8797 21.0899 18.5097L18.1799 13.3397C17.9699 12.9697 17.5899 12.7497 17.1699 12.7497H17.1799Z" fill="white"/> <path d="M20 10.7496C19.59 10.7496 19.25 10.4096 19.25 9.99955V5.03955C19.25 4.62955 19.59 4.28955 20 4.28955C20.41 4.28955 20.75 4.62955 20.75 5.03955V9.99955C20.75 10.4096 20.41 10.7496 20 10.7496Z" fill="white"/> <path d="M10.0098 17.7496H5.00977C2.93977 17.7496 1.25977 16.0696 1.25977 13.9996V5.03955C1.25977 4.62955 1.59977 4.28955 2.00977 4.28955C2.41977 4.28955 2.75977 4.62955 2.75977 5.03955V13.9996C2.75977 15.2396 3.76977 16.2496 5.00977 16.2496H10.0098C10.4198 16.2496 10.7598 16.5896 10.7598 16.9996C10.7598 17.4096 10.4198 17.7496 10.0098 17.7496Z" fill="white"/> <path d="M11.0095 11.3598C10.4095 11.3598 9.80953 11.2198 9.25953 10.9298L2.74953 7.49977C1.82953 7.01977 1.26953 6.06977 1.26953 5.03977C1.26953 3.48977 2.49953 2.25977 4.01953 2.25977H17.9795C19.5095 2.25977 20.7595 3.50977 20.7595 5.03977C20.7595 6.07977 20.1995 7.01977 19.2895 7.48977L12.7595 10.9298C12.2095 11.2198 11.6095 11.3598 11.0095 11.3598ZM9.95953 9.59977C10.6195 9.93977 11.3995 9.94977 12.0595 9.59977L18.5895 6.15977C18.9995 5.93977 19.2595 5.51977 19.2595 5.05977C19.2595 4.32977 18.6795 3.75977 17.9795 3.75977H4.01953C3.32953 3.75977 2.76953 4.31977 2.76953 5.00977C2.76953 5.51977 3.02953 5.94977 3.44953 6.17977L9.95953 9.60977V9.59977Z" fill="white"/> <path d="M17.1797 17.3696C16.7697 17.3696 16.4297 17.0296 16.4297 16.6196V14.8696C16.4297 14.4596 16.7697 14.1196 17.1797 14.1196C17.5897 14.1196 17.9297 14.4596 17.9297 14.8696V16.6196C17.9297 17.0296 17.5897 17.3696 17.1797 17.3696Z" fill="white"/> <path d="M17.1798 19.4798C16.7198 19.4798 16.3398 19.0998 16.3398 18.6398C16.3398 18.4398 16.4398 18.1898 16.5798 18.0498C16.7398 17.8898 16.9498 17.7998 17.1798 17.7998C17.6398 17.7998 18.0198 18.1798 18.0198 18.6398C18.0198 19.0998 17.6398 19.4798 17.1798 19.4798ZM17 18.501C16.63 18.501 17 18.141 17 18.501C16.64 18.501 17 18.861 17 18.501L17.2422 17.8408L17.75 18.251L17.5 18.501L16.5 19.001L17 18.001C17 17.651 17.5829 17.8839 17.2229 17.8839L17 18.501Z" fill="white"/> </g> <defs> <clipPath id="clip0_4482_10001"> <rect width="24" height="24" fill="white"/> </clipPath> </defs> </svg>
