<svg width="24" height="24" viewBox="0 0 24 24" fill="none" xmlns="http://www.w3.org/2000/svg"> <g clip-path="url(#clip0_2085_381812)"> <path d="M2.00003 5.15976C1.70003 5.15976 1.41003 4.97976 1.30003 4.67976C1.15003 4.28976 1.35003 3.85976 1.73003 3.70976C2.13003 3.55976 2.53003 3.27976 2.89003 2.91976C3.24003 2.55976 3.51003 2.14976 3.66003 1.73976C3.80003 1.34976 4.23003 1.14976 4.62003 1.28976C5.01003 1.42976 5.21003 1.85976 5.07003 2.24976C4.85003 2.85976 4.46003 3.45976 3.96003 3.96976C3.46003 4.47976 2.87003 4.87976 2.27003 5.10976C2.18003 5.13976 2.09003 5.15976 2.00003 5.15976Z" fill="white"/> <path d="M19.6301 22.7501C19.5401 22.7501 19.4601 22.7401 19.3701 22.7001C18.9801 22.5601 18.7801 22.1301 18.9201 21.7401C19.1401 21.1301 19.5301 20.5401 20.0301 20.0201C20.5401 19.5101 21.1201 19.1101 21.7201 18.8801C22.1101 18.7301 22.5401 18.9301 22.6901 19.3101C22.8401 19.7001 22.6401 20.1301 22.2501 20.2801C21.8501 20.4301 21.4401 20.7101 21.0901 21.0601C20.7401 21.4201 20.4701 21.8301 20.3201 22.2401C20.2101 22.5401 19.9201 22.7301 19.6201 22.7301L19.6301 22.7501Z" fill="white"/> <path d="M21.9999 5.15976C21.9099 5.15976 21.8199 5.13976 21.7299 5.10976C21.1299 4.87976 20.5399 4.48976 20.0399 3.96976C19.5399 3.45976 19.1499 2.85976 18.9299 2.24976C18.7899 1.85976 18.9899 1.42976 19.3799 1.28976C19.7699 1.14976 20.1999 1.34976 20.3399 1.73976C20.4899 2.14976 20.7599 2.55976 21.1099 2.91976C21.4599 3.26976 21.8699 3.54976 22.2699 3.70976C22.6599 3.85976 22.8499 4.28976 22.6999 4.67976C22.5899 4.97976 22.2999 5.15976 21.9999 5.15976Z" fill="white"/> <path d="M4.37003 22.7501C4.06003 22.7501 3.78003 22.5601 3.67003 22.2601C3.52003 21.8501 3.25003 21.4401 2.90003 21.0701C2.55003 20.7201 2.14003 20.4401 1.75003 20.2901C1.36003 20.1401 1.17003 19.7101 1.31003 19.3201C1.46003 18.9301 1.89003 18.7401 2.28003 18.8901C2.88003 19.1201 3.47003 19.5101 3.97003 20.0301C4.47003 20.5401 4.86003 21.1401 5.08003 21.7501C5.22003 22.1401 5.02003 22.5701 4.63003 22.7101C4.54003 22.7401 4.46003 22.7601 4.37003 22.7601V22.7501Z" fill="white"/> <path d="M2.0001 7.87C1.6601 7.87 1.3601 7.64 1.2701 7.3C1.1701 6.9 1.4201 6.49 1.8201 6.39C2.8601 6.14 3.8401 5.56 4.6501 4.73C5.4701 3.89 6.0401 2.89 6.2801 1.83C6.3701 1.43 6.7801 1.17 7.1801 1.27C7.5801 1.36 7.8301 1.77 7.7401 2.17C7.4301 3.5 6.7301 4.75 5.7201 5.78C4.7101 6.81 3.4801 7.53 2.1701 7.85C2.1101 7.86 2.0501 7.87 1.9901 7.87H2.0001Z" fill="white"/> <path d="M16.9798 22.75C16.9198 22.75 16.8698 22.75 16.8098 22.73C16.4098 22.64 16.1598 22.23 16.2498 21.83C16.5598 20.5 17.2598 19.25 18.2698 18.22C19.2798 17.19 20.5098 16.47 21.8198 16.15C22.2198 16.05 22.6298 16.3 22.7298 16.7C22.8298 17.1 22.5798 17.51 22.1798 17.61C21.1398 17.86 20.1598 18.44 19.3498 19.27C18.5298 20.1 17.9698 21.11 17.7198 22.17C17.6398 22.52 17.3298 22.75 16.9898 22.75H16.9798Z" fill="white"/> <path d="M21.9998 7.87C21.9398 7.87 21.8798 7.87 21.8198 7.85C20.5098 7.53 19.2898 6.82 18.2698 5.78C17.2598 4.75 16.5598 3.5 16.2498 2.17C16.1598 1.77 16.4098 1.36 16.8098 1.27C17.2098 1.17 17.6198 1.43 17.7098 1.83C17.9598 2.89 18.5198 3.89 19.3398 4.73C20.1598 5.56 21.1398 6.14 22.1698 6.39C22.5698 6.49 22.8198 6.89 22.7198 7.3C22.6398 7.64 22.3298 7.87 21.9898 7.87H21.9998Z" fill="white"/> <path d="M7.01986 22.7501C6.67986 22.7501 6.36986 22.5201 6.28986 22.1701C6.03986 21.1101 5.47986 20.1101 4.65986 19.2701C3.83986 18.4401 2.85986 17.8601 1.82986 17.6101C1.42986 17.5101 1.17986 17.1101 1.27986 16.7001C1.37986 16.2901 1.77986 16.0501 2.18986 16.1501C3.49986 16.4701 4.72986 17.1901 5.73986 18.2201C6.74986 19.2501 7.44986 20.5001 7.75986 21.8301C7.84986 22.2301 7.59986 22.6401 7.19986 22.7301C7.13986 22.7401 7.07986 22.7501 7.02986 22.7501H7.01986Z" fill="white"/> <path d="M15.5302 14.5501C15.1202 14.5501 14.7802 14.2101 14.7802 13.8001V11.4101C14.7802 10.6501 14.4902 9.93006 13.9602 9.39006C13.4402 8.86006 12.7402 8.56006 12.0002 8.56006C11.2702 8.56006 10.5702 8.86006 10.0402 9.39006C9.51022 9.93006 9.22022 10.6401 9.22022 11.4101V13.8001C9.22022 14.2101 8.88022 14.5501 8.47022 14.5501C8.06022 14.5501 7.72021 14.2101 7.72021 13.8001V11.4101C7.72021 10.2501 8.17022 9.16006 8.97022 8.34006C9.78022 7.52006 10.8502 7.06006 12.0002 7.06006C13.1502 7.06006 14.2202 7.52006 15.0302 8.34006C15.8302 9.16006 16.2802 10.2501 16.2802 11.4101V13.8001C16.2802 14.2101 15.9402 14.5501 15.5302 14.5501Z" fill="white"/> <path d="M7.80982 16.9399C7.07982 16.9399 6.38982 16.6499 5.86982 16.1199C5.35982 15.5999 5.06982 14.8999 5.06982 14.1599C5.06982 13.4199 5.34982 12.7299 5.86982 12.1999C6.38982 11.6699 7.07982 11.3799 7.80982 11.3799C8.17982 11.3799 8.54982 11.5299 8.80982 11.7999C9.06982 12.0699 9.21982 12.4299 9.21982 12.7999V15.4999C9.21982 15.8799 9.06982 16.2299 8.80982 16.4999C8.53982 16.7699 8.17982 16.9199 7.80982 16.9199V16.9399ZM7.71982 12.8899C7.42982 12.9099 7.14982 13.0399 6.93982 13.2599C6.70982 13.4999 6.56982 13.8299 6.56982 14.1699C6.56982 14.5099 6.69982 14.8399 6.93982 15.0799C7.14982 15.2899 7.42982 15.4199 7.71982 15.4399V12.8999V12.8899Z" fill="white"/> <path d="M16.1898 16.9399C15.8198 16.9399 15.4498 16.7899 15.1898 16.5199C14.9298 16.2499 14.7798 15.8899 14.7798 15.5199V12.8199C14.7798 12.4399 14.9198 12.0899 15.1898 11.8199C15.4598 11.5499 15.8198 11.3999 16.1898 11.3999C16.9198 11.3999 17.6098 11.6899 18.1298 12.2199C18.6398 12.7399 18.9298 13.4399 18.9298 14.1799C18.9298 14.9199 18.6498 15.6099 18.1298 16.1399C17.6098 16.6699 16.9198 16.9599 16.1898 16.9599V16.9399ZM16.2798 12.8899V15.4599C16.5398 15.4299 16.8298 15.2999 17.0598 15.0699C17.2898 14.8299 17.4298 14.4999 17.4298 14.1599C17.4298 13.8199 17.2998 13.4899 17.0598 13.2499C16.8498 13.0399 16.5698 12.9099 16.2798 12.8899Z" fill="white"/> </g> <defs> <clipPath id="clip0_2085_381812"> <rect width="24" height="24" fill="white"/> </clipPath> </defs> </svg>
