<svg width="24" height="24" viewBox="0 0 24 24" fill="none" xmlns="http://www.w3.org/2000/svg"> <g clip-path="url(#clip0_2085_381624)"> <path d="M12 22.75C11.59 22.75 11.25 22.41 11.25 22V2C11.25 1.59 11.59 1.25 12 1.25C12.41 1.25 12.75 1.59 12.75 2V22C12.75 22.41 12.41 22.75 12 22.75Z" fill="white"/> <path d="M20.6598 17.7499C20.5298 17.7499 20.3998 17.7199 20.2898 17.6499L2.95976 7.64993C2.59976 7.43993 2.47976 6.97993 2.68976 6.62993C2.89976 6.26993 3.35976 6.14993 3.70976 6.35993L21.0298 16.3599C21.3898 16.5699 21.5098 17.0299 21.2998 17.3799C21.1598 17.6199 20.9098 17.7599 20.6498 17.7599L20.6598 17.7499Z" fill="white"/> <path d="M3.34001 17.7499C3.08001 17.7499 2.83001 17.6199 2.69001 17.3699C2.48001 17.0099 2.61001 16.5499 2.96001 16.3499L20.29 6.34992C20.65 6.13992 21.11 6.25992 21.31 6.61992C21.52 6.97992 21.39 7.43992 21.04 7.63992L3.71001 17.6499C3.59001 17.7199 3.46001 17.7499 3.34001 17.7499Z" fill="white"/> <path d="M11.9998 20.75C11.8298 20.75 11.6698 20.7 11.5298 20.59C9.25983 18.78 7.81983 17.84 4.79983 16.71C4.45983 16.58 4.25983 16.23 4.32983 15.87C4.90983 12.82 4.90983 11.16 4.32983 8.15003C4.25983 7.78003 4.46983 7.42003 4.82983 7.30003C7.76983 6.31003 9.20983 5.49003 11.4998 3.45003C11.7698 3.21003 12.1698 3.20003 12.4598 3.42003C14.9198 5.33003 16.3098 6.20003 19.1998 7.31003C19.5298 7.44003 19.7298 7.78003 19.6698 8.13003C19.1798 11.25 19.1798 12.91 19.6698 15.89C19.7298 16.25 19.5198 16.6 19.1798 16.72C16.3298 17.74 14.8898 18.57 12.4798 20.59C12.3398 20.71 12.1698 20.76 11.9998 20.76V20.75ZM5.91983 15.52C8.53983 16.55 9.99983 17.47 11.9898 19.03C14.1098 17.31 15.6298 16.43 18.0898 15.5C17.6998 12.92 17.7098 11.17 18.0898 8.47003C15.5498 7.45003 14.0798 6.53003 12.0198 4.96003C9.98983 6.71003 8.45983 7.59003 5.91983 8.49003C6.37983 11.11 6.37983 12.86 5.91983 15.51V15.52Z" fill="white"/> <path d="M11.9999 17.7499C11.8199 17.7499 11.6399 17.6799 11.4899 17.5499C10.0399 16.2199 9.20992 15.7399 7.44992 15.2199C7.07992 15.1099 6.85992 14.7399 6.92992 14.3699C7.25992 12.5099 7.21992 11.5099 6.92992 9.61988C6.86992 9.24988 7.09992 8.89988 7.44992 8.78988C9.19992 8.24988 10.0699 7.74988 11.4899 6.44988C11.7699 6.18988 12.2099 6.18988 12.4999 6.44988C13.9299 7.73988 14.8099 8.17988 16.5799 8.79988C16.9299 8.91988 17.1399 9.28988 17.0699 9.64988C16.6999 11.5099 16.6999 12.5199 17.0699 14.3599C17.1499 14.7399 16.9199 15.1099 16.5499 15.2199C14.6199 15.8099 13.7899 16.2899 12.5299 17.5399C12.3799 17.6799 12.1899 17.7599 11.9999 17.7599V17.7499ZM8.51992 13.9799C9.89992 14.4499 10.8199 14.9799 11.9899 15.9799C13.0399 15.0299 13.9699 14.4999 15.4799 13.9899C15.2299 12.5299 15.2299 11.4699 15.4799 9.98988C14.1399 9.48988 13.2099 8.99988 12.0099 7.99988C10.8399 9.00988 9.90992 9.53988 8.50992 10.0199C8.71992 11.5799 8.71992 12.6299 8.51992 13.9799Z" fill="white"/> </g> <defs> <clipPath id="clip0_2085_381624"> <rect width="24" height="24" fill="white"/> </clipPath> </defs> </svg>
