<svg width="24" height="24" viewBox="0 0 24 24" fill="none" xmlns="http://www.w3.org/2000/svg"> <g clip-path="url(#clip0_4482_3081)"> <path d="M13.5001 11.24H9.70014C9.40014 11.24 9.12014 11.06 9.01014 10.78C8.90014 10.5 8.96011 10.18 9.17011 9.95998L10.7501 8.37998C11.0401 8.08998 11.5201 8.08998 11.8101 8.37998C12.1001 8.66998 12.1001 9.14997 11.8101 9.43997L11.5101 9.73998H13.5001C13.9101 9.73998 14.2501 10.08 14.2501 10.49C14.2501 10.9 13.9101 11.24 13.5001 11.24Z" fill="white"/> <path d="M11.9202 15.04C11.7302 15.04 11.5402 14.97 11.3902 14.82C11.1002 14.53 11.1002 14.05 11.3902 13.76L11.6902 13.46H9.7002C9.2902 13.46 8.9502 13.12 8.9502 12.71C8.9502 12.3 9.2902 11.96 9.7002 11.96H13.5002C13.8002 11.96 14.0802 12.14 14.1902 12.42C14.3002 12.7 14.2402 13.02 14.0302 13.24L12.4502 14.82C12.3002 14.97 12.1102 15.04 11.9202 15.04Z" fill="white"/> <path d="M17 22.75H7C3.83 22.75 1.25 20.17 1.25 17V7C1.25 3.83 3.83 1.25 7 1.25H17C20.17 1.25 22.75 3.83 22.75 7V17C22.75 20.17 20.17 22.75 17 22.75ZM7 2.75C4.66 2.75 2.75 4.66 2.75 7V17C2.75 19.34 4.66 21.25 7 21.25H17C19.34 21.25 21.25 19.34 21.25 17V7C21.25 4.66 19.34 2.75 17 2.75H7Z" fill="white"/> <path d="M11.57 17.64C8.22001 17.64 5.5 14.92 5.5 11.57C5.5 8.22001 8.22001 5.5 11.57 5.5C14.92 5.5 17.64 8.22001 17.64 11.57C17.64 14.92 14.91 17.64 11.57 17.64ZM11.57 7C9.05001 7 7 9.05001 7 11.57C7 14.09 9.05001 16.14 11.57 16.14C14.09 16.14 16.14 14.09 16.14 11.57C16.14 9.05001 14.09 7 11.57 7Z" fill="white"/> <path d="M17.75 18.5C17.56 18.5 17.37 18.43 17.22 18.28L14.8 15.86C14.51 15.57 14.51 15.09 14.8 14.8C15.09 14.51 15.57 14.51 15.86 14.8L18.2801 17.22C18.5701 17.51 18.5701 17.99 18.2801 18.28C18.1301 18.43 17.94 18.5 17.75 18.5Z" fill="white"/> </g> <defs> <clipPath id="clip0_4482_3081"> <rect width="24" height="24" fill="white"/> </clipPath> </defs> </svg>
