<svg width="24" height="24" viewBox="0 0 24 24" fill="none" xmlns="http://www.w3.org/2000/svg"> <g clip-path="url(#clip0_4482_3472)"> <path d="M20.5299 21.2799C20.3399 21.2799 20.1499 21.2099 19.9999 21.0599L16.4699 17.5299C16.1799 17.2399 16.1799 16.7599 16.4699 16.4699C16.7599 16.1799 17.2399 16.1799 17.5299 16.4699L21.0599 19.9999C21.3499 20.2899 21.3499 20.7699 21.0599 21.0599C20.9199 21.2099 20.7199 21.2799 20.5299 21.2799Z" fill="white"/> <path d="M7.00015 7.75015C6.81015 7.75015 6.62016 7.68015 6.47016 7.53015L2.94016 4.00015C2.65016 3.71015 2.65016 3.23016 2.94016 2.94016C3.23016 2.65016 3.71015 2.65016 4.00015 2.94016L7.53015 6.47016C7.82015 6.76016 7.82015 7.24015 7.53015 7.53015C7.38015 7.68015 7.19015 7.75015 7.00015 7.75015Z" fill="white"/> <path d="M17 22.75H7C3.83 22.75 1.25 20.17 1.25 17V7C1.25 3.83 3.83 1.25 7 1.25H17C20.17 1.25 22.75 3.83 22.75 7V17C22.75 20.17 20.17 22.75 17 22.75ZM7 2.75C4.66 2.75 2.75 4.66 2.75 7V17C2.75 19.34 4.66 21.25 7 21.25H17C19.34 21.25 21.25 19.34 21.25 17V7C21.25 4.66 19.34 2.75 17 2.75H7Z" fill="white"/> <path d="M12.37 16.1199C9.96 16.1199 8 14.1599 8 11.7499C8 9.33988 9.96 7.37988 12.37 7.37988C13.43 7.37988 14.45 7.76988 15.25 8.46988C15.56 8.73988 15.59 9.21988 15.32 9.52988C15.04 9.83988 14.57 9.86988 14.26 9.59988C13.74 9.13988 13.07 8.87988 12.37 8.87988C10.79 8.87988 9.5 10.1699 9.5 11.7499C9.5 13.3299 10.79 14.6199 12.37 14.6199C13.06 14.6199 13.73 14.3699 14.26 13.8999C14.57 13.6299 15.05 13.6599 15.32 13.9699C15.59 14.2799 15.56 14.7599 15.25 15.0299C14.45 15.7299 13.42 16.1199 12.37 16.1199Z" fill="white"/> </g> <defs> <clipPath id="clip0_4482_3472"> <rect width="24" height="24" fill="white"/> </clipPath> </defs> </svg>
