<svg width="24" height="24" viewBox="0 0 24 24" fill="none" xmlns="http://www.w3.org/2000/svg"> <g clip-path="url(#clip0_4482_3501)"> <path d="M13.3099 16.77H10.6899V14.5C10.6899 13.95 11.1399 13.5 11.6899 13.5H12.3099C12.8599 13.5 13.3099 13.95 13.3099 14.5V16.77Z" stroke="white" stroke-width="1.5" stroke-linecap="round" stroke-linejoin="round"/> <path d="M16.23 9.88965L13.23 7.55965C12.51 6.99965 11.5 6.99965 10.77 7.55965L7.76999 9.88965C7.27999 10.2697 7 10.8497 7 11.4697V15.0497C7 16.1497 7.9 17.0497 9 17.0497H15C16.1 17.0497 17 16.1497 17 15.0497V11.4697C17 10.8497 16.72 10.2697 16.23 9.88965Z" stroke="white" stroke-width="1.5"/> <path d="M17 22H7C4.25 22 2 19.75 2 17V7C2 4.25 4.25 2 7 2H17C19.75 2 22 4.25 22 7V17C22 19.75 19.75 22 17 22Z" stroke="white" stroke-width="1.5" stroke-linecap="round" stroke-linejoin="round"/> </g> <defs> <clipPath id="clip0_4482_3501"> <rect width="24" height="24" fill="white"/> </clipPath> </defs> </svg>
