<svg width="24" height="24" viewBox="0 0 24 24" fill="none" xmlns="http://www.w3.org/2000/svg"> <g clip-path="url(#clip0_4482_3114)"> <path d="M10.8501 17.25C10.6601 17.25 10.4701 17.17 10.3201 17.03L6.47013 13.23C6.18013 12.94 6.17012 12.46 6.46012 12.17L10.3102 8.28C10.5202 8.06 10.8502 8.00001 11.1302 8.11001C11.4102 8.23001 11.5901 8.50001 11.5901 8.80001V10.15C12.7901 10.11 15.2701 9.76 16.3201 7.65C16.4801 7.34 16.8202 7.18 17.1602 7.26C17.5002 7.34 17.7401 7.64001 17.7401 7.99001V10.18C17.7401 11.94 16.9201 14.85 11.5901 15.1V16.49C11.5901 16.79 11.4102 17.07 11.1302 17.18C11.0402 17.23 10.9401 17.25 10.8501 17.25ZM8.06022 12.69L10.1001 14.7V14.37C10.1001 13.96 10.4401 13.62 10.8501 13.62C14.4401 13.62 16.2502 12.46 16.2502 10.18V10.11C14.0502 11.92 10.9402 11.65 10.7702 11.64C10.3902 11.6 10.0901 11.28 10.0901 10.89V10.62L8.06022 12.69Z" fill="white"/> <path d="M17 22.75H7C3.83 22.75 1.25 20.17 1.25 17V7C1.25 3.83 3.83 1.25 7 1.25H17C20.17 1.25 22.75 3.83 22.75 7V17C22.75 20.17 20.17 22.75 17 22.75ZM7 2.75C4.66 2.75 2.75 4.66 2.75 7V17C2.75 19.34 4.66 21.25 7 21.25H17C19.34 21.25 21.25 19.34 21.25 17V7C21.25 4.66 19.34 2.75 17 2.75H7Z" fill="white"/> </g> <defs> <clipPath id="clip0_4482_3114"> <rect width="24" height="24" fill="white"/> </clipPath> </defs> </svg>
