<svg width="24" height="24" viewBox="0 0 24 24" fill="none" xmlns="http://www.w3.org/2000/svg"> <g clip-path="url(#clip0_655_7114)"> <path d="M20.76 6.29999H3.24C2.14 6.29999 1.25 5.40999 1.25 4.30999V3.10999C1.25 2.69999 1.59 2.35999 2 2.35999H22C22.41 2.35999 22.75 2.69999 22.75 3.10999V4.30999C22.75 5.40999 21.86 6.29999 20.76 6.29999ZM2.75 3.85999V4.30999C2.75 4.57999 2.97 4.79999 3.24 4.79999H20.75C21.02 4.79999 21.24 4.57999 21.24 4.30999V3.85999H2.75Z" fill="white"/> <path d="M19.2207 17C18.8107 17 18.4707 16.66 18.4707 16.25V5.59998C18.4707 5.18998 18.8107 4.84998 19.2207 4.84998C19.6307 4.84998 19.9707 5.18998 19.9707 5.59998V16.25C19.9707 16.66 19.6307 17 19.2207 17Z" fill="white"/> <path d="M14.1992 13.17C13.7892 13.17 13.4492 12.83 13.4492 12.42V5.59998C13.4492 5.18998 13.7892 4.84998 14.1992 4.84998C14.6092 4.84998 14.9492 5.18998 14.9492 5.59998V12.42C14.9492 12.83 14.6092 13.17 14.1992 13.17Z" fill="white"/> <path d="M9.18945 17C8.77945 17 8.43945 16.66 8.43945 16.25V5.59998C8.43945 5.18998 8.77945 4.84998 9.18945 4.84998C9.59945 4.84998 9.93945 5.18998 9.93945 5.59998V16.25C9.93945 16.66 9.59945 17 9.18945 17Z" fill="white"/> <path d="M4.17969 12.89C3.76969 12.89 3.42969 12.55 3.42969 12.14V5.59998C3.42969 5.18998 3.76969 4.84998 4.17969 4.84998C4.58969 4.84998 4.92969 5.18998 4.92969 5.59998V12.14C4.92969 12.55 4.58969 12.89 4.17969 12.89Z" fill="white"/> <path d="M17.6791 21.73C17.5191 21.73 17.3691 21.68 17.2391 21.59C17.0091 21.42 16.8891 21.14 16.9391 20.86L17.1691 19.54L16.2091 18.6C16.0091 18.4 15.9291 18.1 16.0191 17.83C16.1091 17.56 16.3391 17.36 16.6291 17.32L17.9591 17.13L18.5491 15.92C18.7991 15.41 19.6391 15.41 19.8991 15.92L20.4891 17.13L21.8191 17.32C22.0991 17.36 22.3391 17.56 22.4291 17.83C22.5191 18.1 22.4491 18.4 22.2391 18.6L21.2791 19.54L21.5091 20.87C21.5591 21.15 21.4391 21.44 21.2091 21.6C20.9791 21.77 20.6691 21.79 20.4191 21.66L19.2291 21.04L18.0391 21.66C17.9291 21.72 17.8091 21.75 17.6891 21.75L17.6791 21.73ZM19.2191 19.42C19.3391 19.42 19.4591 19.45 19.5691 19.51L19.7591 19.61L19.7191 19.39C19.6791 19.15 19.7591 18.9 19.9391 18.73L20.0991 18.58L19.8791 18.55C19.6291 18.51 19.4191 18.36 19.3091 18.14L19.2091 17.94L19.1091 18.14C18.9991 18.36 18.7891 18.52 18.5391 18.55L18.3191 18.58L18.4791 18.73C18.6591 18.9 18.7391 19.15 18.6991 19.39L18.6591 19.6L18.8491 19.5C18.9591 19.44 19.0791 19.41 19.1991 19.41L19.2191 19.42Z" fill="white"/> <path d="M10.7298 21.73C10.6098 21.73 10.4898 21.7 10.3798 21.64L9.18985 21.02L7.99985 21.64C7.74985 21.77 7.43985 21.75 7.20985 21.58C6.97985 21.41 6.85985 21.13 6.90985 20.85L7.13985 19.53L6.17985 18.59C5.97985 18.39 5.89985 18.09 5.98985 17.82C6.07985 17.55 6.30985 17.35 6.59985 17.31L7.92985 17.12L8.51985 15.91C8.76985 15.4 9.60985 15.4 9.86985 15.91L10.4598 17.12L11.7898 17.31C12.0698 17.35 12.3098 17.55 12.3998 17.82C12.4898 18.09 12.4098 18.39 12.2098 18.59L11.2498 19.53L11.4798 20.85C11.5298 21.13 11.4098 21.42 11.1798 21.58C11.0498 21.68 10.8898 21.72 10.7398 21.72L10.7298 21.73ZM8.30985 18.58L8.46985 18.73C8.64985 18.9 8.72985 19.15 8.68985 19.39L8.64985 19.6L8.83985 19.5C9.05985 19.38 9.31985 19.38 9.53985 19.5L9.72985 19.6L9.68985 19.39C9.64985 19.15 9.72985 18.9 9.90985 18.73L10.0698 18.58L9.84985 18.55C9.59985 18.51 9.38985 18.36 9.27985 18.14L9.17985 17.94L9.07985 18.14C8.96985 18.36 8.75985 18.52 8.50985 18.55L8.28985 18.58H8.30985Z" fill="white"/> <path d="M14.2003 16.94C12.7503 16.94 11.5703 15.76 11.5703 14.31C11.5703 12.86 12.7503 11.68 14.2003 11.68C15.6503 11.68 16.8303 12.86 16.8303 14.31C16.8303 15.76 15.6503 16.94 14.2003 16.94ZM14.2003 13.17C13.5703 13.17 13.0703 13.68 13.0703 14.3C13.0703 14.92 13.5803 15.43 14.2003 15.43C14.8203 15.43 15.3303 14.92 15.3303 14.3C15.3303 13.68 14.8203 13.17 14.2003 13.17Z" fill="white"/> <path d="M4.18078 16.94C2.73078 16.94 1.55078 15.76 1.55078 14.31C1.55078 12.86 2.73078 11.68 4.18078 11.68C5.63078 11.68 6.81078 12.86 6.81078 14.31C6.81078 15.76 5.63078 16.94 4.18078 16.94ZM4.18078 13.17C3.55078 13.17 3.05078 13.68 3.05078 14.3C3.05078 14.92 3.56078 15.43 4.18078 15.43C4.80078 15.43 5.31078 14.92 5.31078 14.3C5.31078 13.68 4.80078 13.17 4.18078 13.17Z" fill="white"/> <path d="M14.2001 20.13C14.5425 20.13 14.8201 19.8524 14.8201 19.51C14.8201 19.1676 14.5425 18.89 14.2001 18.89C13.8577 18.89 13.5801 19.1676 13.5801 19.51C13.5801 19.8524 13.8577 20.13 14.2001 20.13Z" fill="white"/> <path d="M4.18055 20.13C4.52296 20.13 4.80055 19.8524 4.80055 19.51C4.80055 19.1676 4.52296 18.89 4.18055 18.89C3.83813 18.89 3.56055 19.1676 3.56055 19.51C3.56055 19.8524 3.83813 20.13 4.18055 20.13Z" fill="white"/> <path d="M16.7294 10.17C17.0718 10.17 17.3494 9.89241 17.3494 9.54999C17.3494 9.20758 17.0718 8.92999 16.7294 8.92999C16.387 8.92999 16.1094 9.20758 16.1094 9.54999C16.1094 9.89241 16.387 10.17 16.7294 10.17Z" fill="white"/> </g> <defs> <clipPath id="clip0_655_7114"> <rect width="24" height="24" fill="white"/> </clipPath> </defs> </svg>
