<svg width="24" height="24" viewBox="0 0 24 24" fill="none" xmlns="http://www.w3.org/2000/svg"> <g clip-path="url(#clip0_655_7090)"> <path d="M15.6298 17.19C15.2398 17.19 14.8498 17.1 14.4898 16.91L12.2098 15.72C12.0898 15.66 11.9198 15.66 11.7898 15.72L9.50982 16.91C8.70982 17.34 7.70982 17.27 6.95982 16.73C6.19982 16.18 5.82982 15.27 5.99982 14.36L6.43982 11.84C6.45982 11.7 6.40982 11.54 6.29982 11.43L4.46982 9.64999C3.80982 9.03999 3.55982 8.08999 3.83982 7.17999C4.11982 6.29999 4.87982 5.64999 5.79982 5.52999L8.32982 5.15999C8.47982 5.13999 8.60982 5.03999 8.67982 4.90999L9.80982 2.59999C9.84982 2.51999 9.89982 2.44999 9.95982 2.38999C10.4098 1.67999 11.1698 1.23999 11.9998 1.23999C12.9198 1.23999 13.7698 1.76999 14.1698 2.58999L15.2998 4.89999C15.3598 5.02999 15.4998 5.11999 15.6398 5.13999L18.1698 5.50999C19.0798 5.63999 19.8498 6.27999 20.1198 7.15999C20.3998 8.06999 20.1598 9.01999 19.4798 9.64999L17.6598 11.42C17.5498 11.53 17.4998 11.68 17.5298 11.83L17.9698 14.35C18.1298 15.27 17.7598 16.17 16.9998 16.72C16.5898 17.03 16.0898 17.18 15.5898 17.18L15.6298 17.19ZM11.0798 3.43999L10.0298 5.57999C9.73982 6.15999 9.18982 6.55999 8.54982 6.64999L6.01982 7.01999C5.66982 7.06999 5.38982 7.30999 5.27982 7.63999C5.16982 7.98999 5.25982 8.34999 5.50982 8.57999L7.35982 10.38C7.81982 10.84 8.02982 11.48 7.91982 12.11L7.46982 14.64C7.40982 14.99 7.54982 15.32 7.83982 15.54C8.12982 15.75 8.50982 15.77 8.80982 15.61L11.0998 14.42C11.6698 14.13 12.3398 14.13 12.8998 14.42L15.1798 15.61C15.5098 15.78 15.8798 15.76 16.1598 15.55C16.4598 15.33 16.5998 15 16.5398 14.65L16.0998 12.13C15.9898 11.5 16.1998 10.86 16.6498 10.4L18.4798 8.60999C18.7398 8.36999 18.8298 8.00999 18.7198 7.65999C18.6198 7.33999 18.3298 7.09999 17.9898 7.04999L15.4498 6.67999C14.8098 6.58999 14.2598 6.18999 13.9798 5.61999L12.8398 3.29999C12.5398 2.67999 11.5298 2.65999 11.1898 3.30999C11.1598 3.36999 11.1198 3.42999 11.0798 3.46999V3.43999Z" fill="white"/> <path d="M14.9008 22.75H9.09084C8.49084 22.75 7.93084 22.46 7.58084 21.98C7.23084 21.5 7.14084 20.87 7.32084 20.3L8.81084 15.82C8.87084 15.64 9.00084 15.48 9.17084 15.39L11.0808 14.39C11.6408 14.09 12.3208 14.09 12.8908 14.39L14.8008 15.39C14.9708 15.48 15.1008 15.63 15.1608 15.82L16.6508 20.3C16.8408 20.87 16.7408 21.49 16.3908 21.98C16.0408 22.47 15.4808 22.75 14.8808 22.75H14.9008ZM10.1508 16.58L8.75084 20.78C8.70084 20.93 8.75084 21.05 8.80084 21.11C8.84084 21.17 8.93084 21.26 9.09084 21.26H14.9008C15.0608 21.26 15.1508 21.17 15.1908 21.11C15.2308 21.05 15.2908 20.94 15.2408 20.78L13.8408 16.58L12.2008 15.72C12.0708 15.65 11.9108 15.65 11.7808 15.72L10.1408 16.58H10.1508Z" fill="white"/> </g> <defs> <clipPath id="clip0_655_7090"> <rect width="24" height="24" fill="white"/> </clipPath> </defs> </svg>
