<svg width="24" height="24" viewBox="0 0 24 24" fill="none" xmlns="http://www.w3.org/2000/svg"> <g clip-path="url(#clip0_4482_4950)"> <path d="M8 5.75C7.59 5.75 7.25 5.41 7.25 5V2C7.25 1.59 7.59 1.25 8 1.25C8.41 1.25 8.75 1.59 8.75 2V5C8.75 5.41 8.41 5.75 8 5.75Z" fill="white"/> <path d="M16 5.75C15.59 5.75 15.25 5.41 15.25 5V2C15.25 1.59 15.59 1.25 16 1.25C16.41 1.25 16.75 1.59 16.75 2V5C16.75 5.41 16.41 5.75 16 5.75Z" fill="white"/> <path d="M9 22.7502C3.38 22.7502 2.25 20.1002 2.25 15.8202V9.64023C2.25 4.91023 3.84996 2.98023 7.95996 2.74023H16C19.66 2.94023 21.3501 4.54023 21.6801 8.12023C21.7201 8.53023 21.42 8.90023 21 8.94023C20.59 8.97023 20.2201 8.68023 20.1801 8.26023C19.8801 5.06023 18.46 4.38023 15.95 4.24023H7.98999C5.18999 4.40023 3.73999 5.28023 3.73999 9.64023V15.8202C3.73999 19.6502 4.46999 21.2502 8.98999 21.2502C9.39999 21.2502 9.73999 21.5902 9.73999 22.0002C9.73999 22.4102 9.41 22.7502 9 22.7502Z" fill="white"/> <path d="M11.9101 19.4802C11.3701 19.4802 10.8301 19.2702 10.4101 18.8602C9.5801 18.0302 9.5801 16.6902 10.4101 15.8702C11.2301 15.0502 12.5801 15.0402 13.4001 15.8702C14.2201 16.7002 14.2201 18.0402 13.4001 18.8602C12.9901 19.2702 12.4501 19.4802 11.9101 19.4802ZM11.9101 16.7502C11.7501 16.7502 11.59 16.8102 11.47 16.9302C11.23 17.1702 11.23 17.5602 11.47 17.8002C11.71 18.0402 12.1 18.0402 12.34 17.8002C12.58 17.5602 12.58 17.1702 12.34 16.9302C12.23 16.8102 12.0701 16.7502 11.9101 16.7502Z" fill="white"/> <path d="M18.58 18.3501H18.0699C15.8999 18.3501 14.27 16.7401 14.27 14.6001V13.4001C14.27 11.9901 15.43 10.8501 16.85 10.8501C17.26 10.8501 17.6 11.1901 17.6 11.6001C17.6 12.0101 17.26 12.3501 16.85 12.3501C16.26 12.3501 15.77 12.8201 15.77 13.4001V14.6001C15.77 15.9001 16.7399 16.8501 18.0699 16.8501H18.58C19.91 16.8501 20.88 15.9001 20.88 14.6001V13.4001C20.88 12.8201 20.4 12.3501 19.8 12.3501C19.39 12.3501 19.05 12.0101 19.05 11.6001C19.05 11.1901 19.39 10.8501 19.8 10.8501C21.22 10.8501 22.38 11.9901 22.38 13.4001V14.6001C22.38 16.7401 20.75 18.3501 18.58 18.3501Z" fill="white"/> <path d="M17.1299 12.95C16.7199 12.95 16.3799 12.61 16.3799 12.2V11C16.3799 10.59 16.7199 10.25 17.1299 10.25C17.5399 10.25 17.8799 10.59 17.8799 11V12.2C17.8799 12.61 17.5399 12.95 17.1299 12.95Z" fill="white"/> <path d="M19.5303 12.95C19.1203 12.95 18.7803 12.61 18.7803 12.2V11C18.7803 10.59 19.1203 10.25 19.5303 10.25C19.9403 10.25 20.2803 10.59 20.2803 11V12.2C20.2803 12.61 19.9403 12.95 19.5303 12.95Z" fill="white"/> <path d="M15.4102 22.7499H14.8301C12.8101 22.7499 11.1602 21.1099 11.1602 19.0799C11.1602 18.6699 11.5002 18.3299 11.9102 18.3299C12.3202 18.3299 12.6602 18.6699 12.6602 19.0799C12.6602 20.2799 13.6301 21.2499 14.8301 21.2499H15.4102C16.6102 21.2499 17.5801 20.2799 17.5801 19.0799V17.6899C17.5801 17.2799 17.9201 16.9399 18.3301 16.9399C18.7401 16.9399 19.0801 17.2799 19.0801 17.6899V19.0799C19.0801 21.1099 17.4302 22.7499 15.4102 22.7499Z" fill="white"/> </g> <defs> <clipPath id="clip0_4482_4950"> <rect width="24" height="24" fill="white"/> </clipPath> </defs> </svg>
