<svg width="24" height="24" viewBox="0 0 24 24" fill="none" xmlns="http://www.w3.org/2000/svg"> <g clip-path="url(#clip0_2085_386451)"> <path d="M5.74 16.4902H4.5C4.09 16.4902 3.75 16.1502 3.75 15.7402C3.75 15.3302 4.09 14.9902 4.5 14.9902H5.74C6.15 14.9902 6.49 15.3302 6.49 15.7402C6.49 16.1502 6.15 16.4902 5.74 16.4902Z" fill="white"/> <path d="M4.49 18.97H2C1.59 18.97 1.25 18.63 1.25 18.22V12C1.25 11.59 1.59 11.25 2 11.25H3.24C3.44 11.25 3.63 11.33 3.77 11.47L6.58 14.28C6.87 14.57 6.87 15.05 6.58 15.34C6.29 15.63 5.81 15.63 5.52 15.34L2.93 12.75H2.75V17.47H4.18L5.52 16.13C5.81 15.84 6.29 15.84 6.58 16.13C6.87 16.42 6.87 16.9 6.58 17.19L5.02 18.75C4.88 18.89 4.69 18.97 4.49 18.97Z" fill="white"/> <path d="M18.2702 20.2207H13.2902C10.4402 20.2207 4.99023 18.4707 4.99023 15.7407C4.99023 13.0107 10.4402 11.2607 13.2902 11.2607H18.2702C20.7402 11.2607 22.7502 13.2707 22.7502 15.7407C22.7502 18.2107 20.7402 20.2207 18.2702 20.2207ZM13.2902 12.7507C10.4302 12.7507 6.49023 14.4807 6.49023 15.7307C6.49023 16.9807 10.4302 18.7107 13.2902 18.7107H18.2702C19.9202 18.7107 21.2502 17.3707 21.2502 15.7307C21.2502 14.0907 19.9102 12.7507 18.2702 12.7507H13.2902Z" fill="white"/> <path d="M11.9301 12.8407C11.7701 12.8407 11.6101 12.7907 11.4801 12.6807C11.1601 12.4307 11.0901 11.9807 11.3301 11.6507C11.4001 11.5607 11.5401 11.4207 11.7301 11.2407C12.4001 10.6107 13.7901 9.29074 13.7901 7.01074C13.7901 6.60074 14.1301 6.26074 14.5401 6.26074H18.2701C18.6801 6.26074 19.0201 6.60074 19.0201 7.01074V11.9907C19.0201 12.4007 18.6801 12.7407 18.2701 12.7407C17.8601 12.7407 17.5201 12.4007 17.5201 11.9907V7.76074H15.2501C14.9801 10.2307 13.4501 11.6807 12.7701 12.3307C12.6701 12.4307 12.5901 12.5007 12.5401 12.5507C12.3901 12.7307 12.1701 12.8307 11.9401 12.8307L11.9301 12.8407Z" fill="white"/> <path d="M18.2698 10.2607H17.0298C16.6198 10.2607 16.2798 9.92074 16.2798 9.51074C16.2798 9.10074 16.6198 8.76074 17.0298 8.76074H18.2698C18.6798 8.76074 19.0198 9.10074 19.0198 9.51074C19.0198 9.92074 18.6798 10.2607 18.2698 10.2607Z" fill="white"/> <path d="M18.2698 17.73C17.1698 17.73 16.2798 16.83 16.2798 15.74C16.2798 14.65 17.1798 13.75 18.2698 13.75C19.3598 13.75 20.2598 14.65 20.2598 15.74C20.2598 16.83 19.3698 17.73 18.2698 17.73ZM18.2698 15.24C17.9998 15.24 17.7798 15.46 17.7798 15.73C17.7798 16 17.9998 16.22 18.2698 16.22C18.5398 16.22 18.7598 16 18.7598 15.73C18.7598 15.46 18.5398 15.24 18.2698 15.24Z" fill="white"/> <path d="M13.2898 17.73C12.1898 17.73 11.2998 16.83 11.2998 15.74C11.2998 14.65 12.1998 13.75 13.2898 13.75C14.3798 13.75 15.2798 14.65 15.2798 15.74C15.2798 16.83 14.3798 17.73 13.2898 17.73ZM13.2898 15.24C13.0198 15.24 12.7998 15.46 12.7998 15.73C12.7998 16 13.0198 16.22 13.2898 16.22C13.5598 16.22 13.7798 16 13.7798 15.73C13.7798 15.46 13.5598 15.24 13.2898 15.24Z" fill="white"/> <path d="M17.02 7.77027C16.61 7.77027 16.27 7.43027 16.27 7.02027V4.53027C16.27 4.12027 16.61 3.78027 17.02 3.78027C17.43 3.78027 17.77 4.12027 17.77 4.53027V7.02027C17.77 7.43027 17.43 7.77027 17.02 7.77027Z" fill="white"/> <path d="M18.2698 5.28027H17.0298C16.6198 5.28027 16.2798 4.94027 16.2798 4.53027C16.2798 4.12027 16.6198 3.78027 17.0298 3.78027H18.2698C18.6798 3.78027 19.0198 4.12027 19.0198 4.53027C19.0198 4.94027 18.6798 5.28027 18.2698 5.28027Z" fill="white"/> </g> <defs> <clipPath id="clip0_2085_386451"> <rect width="24" height="24" fill="white"/> </clipPath> </defs> </svg>
