<svg width="24" height="24" viewBox="0 0 24 24" fill="none" xmlns="http://www.w3.org/2000/svg"> <g clip-path="url(#clip0_2085_390669)"> <path d="M17.4998 22.6998H6.4998C5.0098 22.6998 3.7998 21.4898 3.7998 19.9998V5.85977C3.7998 4.74977 4.5098 3.75977 5.5698 3.40977L6.7798 3.00977L7.2198 4.33977L6.0098 4.73977C5.5298 4.89977 5.1998 5.34977 5.1998 5.85977V19.9998C5.1998 20.7198 5.7798 21.2998 6.4998 21.2998H17.4998C18.2198 21.2998 18.7998 20.7198 18.7998 19.9998V5.85977C18.7998 5.34977 18.4798 4.89977 17.9898 4.73977L16.7798 4.33977L17.2198 3.00977L18.4298 3.40977C19.4898 3.75977 20.1998 4.74977 20.1998 5.85977V19.9998C20.1998 21.4898 18.9898 22.6998 17.4998 22.6998Z" fill="white"/> <path d="M16.9998 22.7H6.9998C6.6098 22.7 6.2998 22.39 6.2998 22V7H7.7098V21.3H16.2998V7H17.7098V22C17.7098 22.39 17.3998 22.7 17.0098 22.7H16.9998Z" fill="white"/> <path d="M16.99 17.6998H6.99004C6.60004 17.6998 6.29004 17.3898 6.29004 16.9998V14.4998C6.29004 14.1098 6.60004 13.7998 6.99004 13.7998H16.99C17.38 13.7998 17.69 14.1098 17.69 14.4998V16.9998C17.69 17.3898 17.38 17.6998 16.99 17.6998ZM7.70004 16.2998H16.29V15.2098H7.70004V16.2998Z" fill="white"/> <path d="M9.49971 10.2C9.31971 10.2 9.13971 10.13 8.99971 9.99004L6.49971 7.49004C6.22971 7.22004 6.22971 6.77004 6.49971 6.50004L7.35971 5.64004L6.38971 4.03004C6.19971 3.71004 6.28971 3.29004 6.59971 3.08004L9.09971 1.41004C9.21971 1.33004 9.3497 1.29004 9.48971 1.29004H14.4897C14.6297 1.29004 14.7597 1.33004 14.8797 1.41004L17.3797 3.08004C17.6897 3.29004 17.7897 3.70004 17.5897 4.03004L16.6197 5.64004L17.4797 6.50004C17.6497 6.67004 17.7197 6.92004 17.6697 7.16004C17.6097 7.40004 17.4397 7.59004 17.2097 7.67004L9.70971 10.17C9.63971 10.19 9.55971 10.21 9.48971 10.21L9.49971 10.2ZM7.9897 7.00004L9.6897 8.70004L15.6997 6.70004L15.2497 6.25004C15.0197 6.02004 14.9797 5.67004 15.1397 5.39004L16.0397 3.88004L14.2697 2.70004H9.69971L7.92971 3.88004L8.82971 5.39004C8.99971 5.67004 8.94971 6.02004 8.71971 6.25004L7.9697 7.00004H7.9897Z" fill="white"/> <path d="M13.9161 1.61444L8.91699 9.11035L10.09 9.89268L15.0892 2.39678L13.9161 1.61444Z" fill="white"/> <path d="M10.0853 1.60655L8.91211 2.38867L11.4138 6.14122L12.587 5.3591L10.0853 1.60655Z" fill="white"/> <path d="M10.2 9.5H8.79004V22H10.2V9.5Z" fill="white"/> </g> <defs> <clipPath id="clip0_2085_390669"> <rect width="24" height="24" fill="white"/> </clipPath> </defs> </svg>
