<svg width="24" height="24" viewBox="0 0 24 24" fill="none" xmlns="http://www.w3.org/2000/svg"> <g clip-path="url(#clip0_4482_5096)"> <path d="M15.55 13.6696L15.07 14.1496C14.12 14.3496 13.09 14.6897 12 15.2397C9.41 16.5297 7.20002 16.7097 5.52002 16.4897C5.70002 15.7097 6.17001 14.9797 6.82001 14.3297L11.52 9.63965L15.55 13.6696Z" stroke="white" stroke-width="1.5" stroke-miterlimit="10" stroke-linecap="round" stroke-linejoin="round"/> <path d="M12.0199 10.1402L9.62988 7.75016C8.75988 6.88016 7.31989 6.88016 6.44989 7.75016L5.37988 8.82016" stroke="white" stroke-width="1.5" stroke-miterlimit="10" stroke-linecap="round" stroke-linejoin="round"/> <path d="M16.2398 8.95003C15.1798 7.89003 15.1798 6.18003 16.2398 5.12003L17.1499 4.21004C18.2099 3.15004 19.9198 3.15004 20.9798 4.21004C22.0398 5.27004 22.0398 6.98003 20.9798 8.04003L20.0698 8.95003C19.0098 10.01 17.2898 10.01 16.2398 8.95003Z" stroke="white" stroke-width="1.5" stroke-miterlimit="10" stroke-linecap="round" stroke-linejoin="round"/> <path d="M2 19.2396C2 19.2396 6 22.2396 12 19.2396C18 16.2396 22 19.2396 22 19.2396" stroke="white" stroke-width="1.5" stroke-linecap="round" stroke-linejoin="round"/> <path d="M2 15.2396C2 15.2396 6 18.2396 12 15.2396C18 12.2396 22 15.2396 22 15.2396" stroke="white" stroke-width="1.5" stroke-linecap="round" stroke-linejoin="round"/> </g> <defs> <clipPath id="clip0_4482_5096"> <rect width="24" height="24" fill="white"/> </clipPath> </defs> </svg>
