<svg width="24" height="24" viewBox="0 0 24 24" fill="none" xmlns="http://www.w3.org/2000/svg"> <g clip-path="url(#clip0_4482_5094)"> <path d="M18.5002 16H16.2402C15.4402 16 14.6802 15.68 14.1202 15.12L13.4102 14.41C12.6302 13.63 11.3603 13.63 10.5803 14.41L9.87024 15.12C9.31024 15.68 8.54024 16 7.75024 16H5.49023C2.99023 16 1.99023 14.43 1.99023 12.5V8.5C1.99023 6.57 2.99023 5 5.49023 5H18.4902C20.9902 5 21.9902 6.57 21.9902 8.5V12.5C22.0002 14.43 21.0002 16 18.5002 16Z" stroke="white" stroke-width="1.5" stroke-miterlimit="10" stroke-linecap="round" stroke-linejoin="round"/> <path d="M17 2V5" stroke="white" stroke-width="1.5" stroke-miterlimit="10" stroke-linecap="round" stroke-linejoin="round"/> <path d="M17 16V20C17 21.1 16.1 22 15 22H14C12.9 22 12 21.1 12 20V18" stroke="white" stroke-width="1.5" stroke-miterlimit="10" stroke-linecap="round" stroke-linejoin="round"/> <path d="M10.5 18H13.5" stroke="white" stroke-width="1.5" stroke-miterlimit="10" stroke-linecap="round" stroke-linejoin="round"/> <path d="M10.5 9.75H13.5" stroke="white" stroke-width="1.5" stroke-miterlimit="10" stroke-linecap="round" stroke-linejoin="round"/> </g> <defs> <clipPath id="clip0_4482_5094"> <rect width="24" height="24" fill="white"/> </clipPath> </defs> </svg>
