<svg width="24" height="24" viewBox="0 0 24 24" fill="none" xmlns="http://www.w3.org/2000/svg"> <g clip-path="url(#clip0_2085_390498)"> <path d="M11.1701 20.6501H9.4001C9.2001 20.6501 9.0101 20.5701 8.8701 20.4301L3.5701 15.1301C3.4301 14.9901 3.3501 14.8001 3.3501 14.6001V12.8301C3.3501 12.4201 3.6901 12.0801 4.1001 12.0801H5.8701C6.0701 12.0801 6.2601 12.1601 6.4001 12.3001L11.7001 17.6001C11.8401 17.7401 11.9201 17.9301 11.9201 18.1301V19.9001C11.9201 20.3101 11.5801 20.6501 11.1701 20.6501ZM9.7101 19.1501H10.4201V18.4401L5.5601 13.5801H4.8501V14.2901L9.7101 19.1501Z" fill="white"/> <path d="M3.24988 22.7499C2.73988 22.7499 2.22988 22.5599 1.83988 22.1699C1.05988 21.3899 1.05988 20.1199 1.83988 19.3399L5.33988 15.8399C5.61988 15.5599 6.11988 15.5599 6.39988 15.8399L8.16988 17.6099C8.45988 17.8999 8.45988 18.3799 8.16988 18.6699L4.66988 22.1699C4.27988 22.5599 3.76988 22.7499 3.25988 22.7499H3.24988ZM2.89988 21.0999C3.08988 21.2899 3.40988 21.2899 3.60988 21.0999L6.57988 18.1299L5.86988 17.4199L2.89988 20.3899C2.70988 20.5799 2.70988 20.8999 2.89988 21.0999Z" fill="white"/> <path d="M10.0798 17.8C9.88984 17.8 9.69984 17.73 9.54984 17.58L6.42984 14.46C6.16984 14.2 6.13984 13.78 6.35984 13.48L14.8498 1.96C15.1798 1.51 15.6998 1.25 16.2598 1.25H20.9998C21.9598 1.25 22.7498 2.04 22.7498 3V7.74C22.7498 8.29 22.4798 8.82 22.0398 9.15L10.5298 17.65C10.3998 17.75 10.2398 17.8 10.0798 17.8ZM7.93984 13.85L10.1498 16.06L21.1498 7.95C21.2098 7.9 21.2498 7.83 21.2498 7.75V3C21.2498 2.86 21.1398 2.75 20.9998 2.75H16.2598C16.1798 2.75 16.1098 2.79 16.0598 2.85L7.93984 13.85Z" fill="white"/> <path d="M22 9.0003C22 9.0003 21.9 9.0003 21.85 8.9903L16.64 7.9503C16.34 7.8903 16.11 7.6603 16.05 7.3603L15.01 2.1503C14.93 1.7403 15.19 1.3503 15.6 1.2703C16 1.1903 16.4 1.4503 16.48 1.8603L17.42 6.5803L22.14 7.5203C22.55 7.6003 22.81 8.0003 22.73 8.4003C22.66 8.7603 22.35 9.0003 22 9.0003Z" fill="white"/> <path d="M8.51996 16.2296C8.32996 16.2296 8.13996 16.1596 7.98996 16.0096C7.69996 15.7196 7.69996 15.2396 7.98996 14.9496L16.27 6.66965C16.56 6.37965 17.04 6.37965 17.33 6.66965C17.62 6.95965 17.62 7.43965 17.33 7.72965L9.04996 16.0096C8.89996 16.1596 8.70996 16.2296 8.51996 16.2296Z" fill="white"/> </g> <defs> <clipPath id="clip0_2085_390498"> <rect width="24" height="24" fill="white"/> </clipPath> </defs> </svg>
