<svg width="24" height="24" viewBox="0 0 24 24" fill="none" xmlns="http://www.w3.org/2000/svg"> <g clip-path="url(#clip0_2085_390564)"> <path d="M6.2099 5.91043C6.0199 5.91043 5.8299 5.84043 5.6799 5.69043C5.3899 5.40043 5.3899 4.92043 5.6799 4.63043L6.7299 3.58043L5.6799 2.53043C5.3899 2.24043 5.3899 1.76043 5.6799 1.47043C5.9699 1.18043 6.4499 1.18043 6.7399 1.47043L8.3199 3.05043C8.4599 3.19043 8.5399 3.38043 8.5399 3.58043C8.5399 3.78043 8.4599 3.97043 8.3199 4.11043L6.7399 5.69043C6.5899 5.84043 6.3999 5.91043 6.2099 5.91043Z" fill="white"/> <path d="M2.52979 7.49008C2.11979 7.49008 1.77979 7.15008 1.77979 6.74008C1.77979 4.59008 3.52979 2.83008 5.68979 2.83008H7.79979C8.20979 2.83008 8.54979 3.17008 8.54979 3.58008C8.54979 3.99008 8.20979 4.33008 7.79979 4.33008H5.68979C4.35979 4.33008 3.27979 5.41008 3.27979 6.74008C3.27979 7.15008 2.93979 7.49008 2.52979 7.49008Z" fill="white"/> <path d="M17.79 22.7503C17.6 22.7503 17.41 22.6803 17.26 22.5303L15.68 20.9503C15.54 20.8103 15.46 20.6203 15.46 20.4203C15.46 20.2203 15.54 20.0303 15.68 19.8903L17.26 18.3103C17.55 18.0203 18.03 18.0203 18.32 18.3103C18.61 18.6003 18.61 19.0803 18.32 19.3703L17.27 20.4203L18.32 21.4703C18.61 21.7603 18.61 22.2403 18.32 22.5303C18.17 22.6803 17.98 22.7503 17.79 22.7503Z" fill="white"/> <path d="M18.32 21.1707H16.21C15.8 21.1707 15.46 20.8307 15.46 20.4207C15.46 20.0107 15.8 19.6707 16.21 19.6707H18.32C19.65 19.6707 20.73 18.5907 20.73 17.2607C20.73 16.8507 21.07 16.5107 21.48 16.5107C21.89 16.5107 22.23 16.8507 22.23 17.2607C22.23 19.4107 20.48 21.1707 18.32 21.1707Z" fill="white"/> <path d="M18.4699 14.8601H13.0499C12.6399 14.8601 12.2999 14.5201 12.2999 14.1101C12.2999 13.7001 12.6399 13.3601 13.0499 13.3601H18.4699C19.7099 13.3601 20.7199 12.3501 20.7199 11.1101V6.58008C20.7199 5.34008 19.7099 4.33008 18.4699 4.33008H13.9399C12.6999 4.33008 11.6899 5.34008 11.6899 6.58008V9.90008C11.6899 10.3101 11.3499 10.6501 10.9399 10.6501C10.5299 10.6501 10.1899 10.3101 10.1899 9.90008V6.58008C10.1899 4.51008 11.8699 2.83008 13.9399 2.83008H18.4699C20.5399 2.83008 22.2199 4.51008 22.2199 6.58008V11.1101C22.2199 13.1801 20.5399 14.8601 18.4699 14.8601Z" fill="white"/> <path d="M10.05 21.1706H5.52002C3.45002 21.1706 1.77002 19.4906 1.77002 17.4206V12.8906C1.77002 10.8206 3.45002 9.14062 5.52002 9.14062H10.05C12.12 9.14062 13.8 10.8206 13.8 12.8906V17.4206C13.8 19.4906 12.12 21.1706 10.05 21.1706ZM5.53002 10.6406C4.29002 10.6406 3.28002 11.6506 3.28002 12.8906V17.4206C3.28002 18.6606 4.29002 19.6706 5.53002 19.6706H10.06C11.3 19.6706 12.31 18.6606 12.31 17.4206V12.8906C12.31 11.6506 11.3 10.6406 10.06 10.6406H5.53002Z" fill="white"/> <path d="M7.08979 18.0102C6.89979 18.0102 6.70979 17.9402 6.55979 17.7902C6.26979 17.5002 6.26979 17.0202 6.55979 16.7302L8.13979 15.1502L6.55979 13.5802C6.26979 13.2902 6.26979 12.8102 6.55979 12.5202C6.84979 12.2302 7.32979 12.2302 7.61979 12.5202L9.72978 14.6202C9.86978 14.7602 9.94978 14.9502 9.94978 15.1502C9.94978 15.3502 9.86978 15.5402 9.72978 15.6802L7.61979 17.7902C7.46979 17.9402 7.27979 18.0102 7.08979 18.0102Z" fill="white"/> </g> <defs> <clipPath id="clip0_2085_390564"> <rect width="24" height="24" fill="white"/> </clipPath> </defs> </svg>
