<svg width="24" height="24" viewBox="0 0 24 24" fill="none" xmlns="http://www.w3.org/2000/svg"> <g clip-path="url(#clip0_2085_390309)"> <path d="M18.51 22.49C18.15 22.49 17.82 22.22 17.74 21.87C17.45 20.43 16.33 19.32 14.89 19.02C14.54 18.95 14.27 18.61 14.27 18.26C14.27 17.91 14.54 17.57 14.89 17.49C16.33 17.2 17.44 16.08 17.74 14.64C17.81 14.29 18.15 14.02 18.51 14.02C18.87 14.02 19.2 14.3 19.27 14.65C19.56 16.08 20.68 17.19 22.12 17.49C22.47 17.56 22.74 17.9 22.74 18.26C22.74 18.62 22.47 18.95 22.12 19.02C20.68 19.31 19.57 20.43 19.27 21.87C19.2 22.22 18.86 22.49 18.51 22.49ZM17.0716 18.1635C17.011 18.2047 17.011 18.2953 17.0716 18.3365C17.6019 18.6969 18.0631 19.1581 18.4235 19.6884C18.4647 19.749 18.5553 19.749 18.5965 19.6884C18.9569 19.1581 19.4181 18.6969 19.9484 18.3365C20.009 18.2953 20.009 18.2047 19.9484 18.1635C19.4181 17.8031 18.9569 17.3419 18.5965 16.8116C18.5553 16.751 18.4647 16.751 18.4235 16.8116C18.0631 17.3419 17.6019 17.8031 17.0716 18.1635Z" fill="white"/> <path d="M13.5 14.72C13.15 14.72 12.83 14.47 12.75 14.13C12.65 13.64 12.28 13.2699 11.81 13.17C11.47 13.1 11.21 12.7899 11.2 12.4499C11.19 12.0999 11.43 11.7699 11.77 11.6899C12.28 11.5899 12.65 11.2199 12.75 10.7399V10.72C12.83 10.38 13.17 10.1099 13.51 10.1299C13.86 10.1299 14.18 10.3999 14.25 10.7399C14.35 11.2099 14.71 11.58 15.19 11.68C15.55 11.75 15.81 12.0899 15.8 12.4499C15.79 12.7999 15.53 13.11 15.19 13.17C14.72 13.2699 14.35 13.6299 14.25 14.1099C14.18 14.4499 13.87 14.7099 13.51 14.72H13.5ZM13.47 12.43C13.47 12.43 13.49 12.4499 13.5 12.4599L13.53 12.43C13.53 12.43 13.51 12.4099 13.5 12.3999C13.5 12.4099 13.48 12.42 13.47 12.43Z" fill="white"/> <path d="M9.1 22.19C8.46 22.19 7.82 22 7.27 21.63C6.8 21.32 6.23 21.24 5.7 21.42L4.95 21.67C4.08 21.96 3.16 21.82 2.42 21.28C1.68 20.75 1.25 19.92 1.25 19V8.85C1.25 6.42 1.25 5.2 1.78 4.16C2.25 3.24 2.99 2.5 3.91 2.03C4.95 1.5 6.17 1.5 8.6 1.5H12.93C15.36 1.5 16.58 1.5 17.62 2.03C18.54 2.5 19.28 3.24 19.75 4.16C20.28 5.2 20.28 6.42 20.28 8.85V11.53C20.28 11.94 19.94 12.28 19.53 12.28C19.12 12.28 18.78 11.94 18.78 11.53V8.85C18.78 6.66 18.78 5.56 18.41 4.84C18.08 4.2 17.57 3.69 16.93 3.36C16.21 2.99 15.11 2.99 12.92 2.99H8.59C6.4 2.99 5.3 2.99 4.58 3.36C3.94 3.69 3.43 4.2 3.1 4.84C2.73 5.56 2.73 6.66 2.73 8.85V18.99C2.73 19.41 2.93 19.8 3.28 20.05C3.63 20.3 4.06 20.37 4.46 20.23L5.21 19.98C6.18 19.65 7.23 19.79 8.09 20.36C8.65 20.73 9.36 20.77 9.95 20.44L11.43 19.63C11.79 19.43 12.25 19.57 12.45 19.93C12.65 20.29 12.51 20.75 12.15 20.95L10.67 21.76C10.17 22.03 9.64 22.19 9.1 22.19ZM8.97 12.81H7.16C6.75 12.81 6.41 12.47 6.41 12.06C6.41 11.65 6.75 11.31 7.16 11.31H8.97C9.38 11.31 9.72 11.65 9.72 12.06C9.72 12.47 9.38 12.81 8.97 12.81ZM14.38 8.17H7.16C6.75 8.17 6.41 7.83 6.41 7.42C6.41 7.01 6.75 6.67 7.16 6.67H14.38C14.79 6.67 15.13 7.01 15.13 7.42C15.13 7.83 14.79 8.17 14.38 8.17Z" fill="white"/> </g> <defs> <clipPath id="clip0_2085_390309"> <rect width="24" height="24" fill="white"/> </clipPath> </defs> </svg>
