<svg width="24" height="24" viewBox="0 0 24 24" fill="none" xmlns="http://www.w3.org/2000/svg"> <g clip-path="url(#clip0_4482_3214)"> <path d="M10.1499 22.75H7.1499C4.5299 22.75 2.3999 20.62 2.3999 18V6C2.3999 3.38 4.5299 1.25 7.1499 1.25H16.1499C18.7699 1.25 20.8999 3.38 20.8999 6V12C20.8999 12.41 20.5599 12.75 20.1499 12.75C19.7399 12.75 19.3999 12.41 19.3999 12V6C19.3999 4.21 17.9399 2.75 16.1499 2.75H7.1499C5.3599 2.75 3.8999 4.21 3.8999 6V18C3.8999 19.79 5.3599 21.25 7.1499 21.25H10.1499C10.5599 21.25 10.8999 21.59 10.8999 22C10.8999 22.41 10.5599 22.75 10.1499 22.75Z" fill="white"/> <path d="M17.1499 8.75H16.1499C14.6299 8.75 13.3999 7.52 13.3999 6V5C13.3999 4.59 13.7399 4.25 14.1499 4.25C14.5599 4.25 14.8999 4.59 14.8999 5V6C14.8999 6.69 15.4599 7.25 16.1499 7.25H17.1499C17.5599 7.25 17.8999 7.59 17.8999 8C17.8999 8.41 17.5599 8.75 17.1499 8.75Z" fill="white"/> <path d="M15.5 22.75C14.1 22.75 12.86 21.86 12.42 20.53C12.02 19.33 12.36 18.02 13.25 17.16V14.49C13.25 13.25 14.26 12.24 15.5 12.24C16.74 12.24 17.75 13.25 17.75 14.49V17.16C18.65 18.02 18.9801 19.33 18.5801 20.53C18.1401 21.86 16.9 22.75 15.5 22.75ZM15.5 13.74C15.09 13.74 14.75 14.08 14.75 14.49V17.5C14.75 17.74 14.6401 17.96 14.4501 18.1C13.8501 18.56 13.6001 19.34 13.8401 20.05C14.0801 20.77 14.74 21.25 15.5 21.25C16.25 21.25 16.92 20.77 17.16 20.05C17.4 19.34 17.15 18.55 16.55 18.1C16.36 17.96 16.25 17.74 16.25 17.5V14.49C16.25 14.08 15.92 13.74 15.5 13.74Z" fill="white"/> </g> <defs> <clipPath id="clip0_4482_3214"> <rect width="24" height="24" fill="white"/> </clipPath> </defs> </svg>
