<svg width="24" height="24" viewBox="0 0 24 24" fill="none" xmlns="http://www.w3.org/2000/svg"> <path d="M8.92477 6.18448C9.21498 5.889 9.68979 5.88458 9.98531 6.17472C10.2808 6.46493 10.2852 6.93974 9.99508 7.23527L7.24508 10.0351C6.95484 10.3306 6.48005 10.3351 6.18453 10.0448C5.88902 9.7546 5.88453 9.27981 6.17477 8.98429L8.92477 6.18448Z" fill="white"/> <path d="M13.1196 10.4902C13.4124 10.1973 13.8872 10.1973 14.1801 10.4902C14.473 10.7831 14.473 11.2578 14.1801 11.5507L11.5102 14.2206C11.2173 14.5135 10.7425 14.5135 10.4496 14.2206C10.1568 13.9277 10.1568 13.453 10.4496 13.1601L13.1196 10.4902Z" fill="white"/> <path d="M8.69935 1.96991C9.61336 1.0559 11.0613 1.00356 12.046 1.79608L12.2365 1.966L12.2404 1.96991C12.8243 2.55382 13.0614 3.35983 12.9435 4.12323L17.0294 8.22967H17.0304C17.656 8.85524 18.1215 9.61216 18.4044 10.4435L18.5138 10.8049L18.5197 10.8273L18.9201 12.5178C18.9276 12.5496 18.9314 12.582 18.9347 12.6144C19.1018 13.4496 18.8481 14.3157 18.2218 14.9172L18.2228 14.9181L14.7023 18.3381C14.6973 18.3429 14.6927 18.348 14.6876 18.3527C14.1336 18.8618 13.3702 19.0563 12.6525 18.8918V18.8908L10.966 18.5119H10.965C9.89537 18.2704 8.91907 17.7297 8.13978 16.9504H8.13881L4.13197 12.9347C3.37509 13.0523 2.56408 12.8285 1.97377 12.2248L1.97475 12.2238C1.00575 11.2483 1.01207 9.67136 1.97572 8.69354L8.69935 1.96991ZM11.1808 3.03143C10.7806 2.64021 10.1449 2.64679 9.76088 3.03045L3.04017 9.75115C2.67452 10.1264 2.65766 10.7076 2.97279 11.0949L3.04017 11.1701L3.04603 11.176C3.28997 11.4254 3.6385 11.5161 3.97377 11.4396L3.9933 11.4347C4.37131 11.3592 4.78058 11.4604 5.08021 11.7599L5.08119 11.7609L9.20033 15.8898C9.78099 16.4705 10.5048 16.8705 11.2951 17.049L12.9845 17.4289H12.9874C13.2284 17.4841 13.4834 17.419 13.6691 17.2502L17.1779 13.843L17.1818 13.8381C17.4342 13.5968 17.542 13.2393 17.4591 12.8781C17.4535 12.8536 17.4486 12.8288 17.4454 12.8039L17.0665 11.1965L16.9845 10.9269C16.7739 10.308 16.4291 9.7505 15.9699 9.29119L15.9689 9.28924L11.7687 5.06951V5.06854C11.4703 4.76904 11.3691 4.36098 11.4445 3.98358L11.4494 3.96405C11.5239 3.63737 11.4317 3.28293 11.1808 3.03143Z" fill="white"/> <path d="M17.8268 12.7354C18.1826 12.5238 18.6422 12.6405 18.8542 12.9961C19.6686 14.3635 21.1127 16.88 22.4323 19.1992C23.6341 21.3108 21.2715 23.6257 19.1872 22.4307L19.1852 22.4297C16.9182 21.1214 14.4513 19.697 13.0944 18.8828C12.7394 18.6698 12.6239 18.2096 12.8366 17.8545C13.0497 17.4994 13.5107 17.3837 13.8659 17.5967C15.2086 18.4023 17.6608 19.8175 19.9333 21.1289L20.0788 21.1973C20.8103 21.4664 21.5383 20.6617 21.1286 19.9414V19.9404C19.8082 17.6198 18.3717 15.1163 17.5661 13.7637C17.3541 13.4078 17.4709 12.9473 17.8268 12.7354Z" fill="white"/> </svg>
