<svg width="24" height="24" viewBox="0 0 24 24" fill="none" xmlns="http://www.w3.org/2000/svg"> <g clip-path="url(#clip0_2085_386507)"> <path d="M12.0001 22.71C6.81008 22.71 2.58008 18.46 2.58008 13.24C2.58008 8.02004 6.81008 3.79004 12.0001 3.79004C17.1901 3.79004 21.4201 8.03004 21.4201 13.25C21.4201 18.47 17.2001 22.71 12.0001 22.71ZM12.0001 5.19004C7.58008 5.19004 3.99008 8.80004 3.99008 13.24C3.99008 17.68 7.58008 21.29 12.0001 21.29C16.4201 21.29 20.0101 17.68 20.0101 13.24C20.0101 8.80004 16.4201 5.19004 12.0001 5.19004Z" fill="white"/> <path d="M13.2403 2.6998H10.7503C10.3603 2.6998 10.0503 2.3898 10.0503 1.9998C10.0503 1.6098 10.3603 1.2998 10.7503 1.2998H13.2403C13.6303 1.2998 13.9403 1.6098 13.9403 1.9998C13.9403 2.3898 13.6303 2.6998 13.2403 2.6998Z" fill="white"/> <path d="M5.84031 7.78934C5.66031 7.78934 5.48031 7.71934 5.34031 7.57934L4.46031 6.69934C4.19031 6.42934 4.19031 5.97934 4.46031 5.70934C4.74031 5.43934 5.18031 5.43934 5.45031 5.70934L6.33031 6.58934C6.60031 6.85934 6.60031 7.30934 6.33031 7.57934C6.19031 7.71934 6.01031 7.78934 5.83031 7.78934H5.84031Z" fill="white"/> <path d="M18.16 7.78934C17.98 7.78934 17.8 7.71934 17.66 7.57934C17.39 7.30934 17.39 6.85934 17.66 6.58934L18.54 5.70934C18.81 5.43934 19.26 5.43934 19.53 5.70934C19.8 5.97934 19.8 6.42934 19.53 6.69934L18.65 7.57934C18.51 7.71934 18.33 7.78934 18.15 7.78934H18.16Z" fill="white"/> <path d="M12.0003 8.97008C11.6103 8.97008 11.3003 8.66008 11.3003 8.27008V7.03008C11.3003 6.64008 11.6103 6.33008 12.0003 6.33008C12.3903 6.33008 12.7003 6.64008 12.7003 7.03008V8.27008C12.7003 8.66008 12.3903 8.97008 12.0003 8.97008Z" fill="white"/> <path d="M12.0003 20.2095C11.6103 20.2095 11.3003 19.8995 11.3003 19.5095V18.2195C11.3003 17.8295 11.6103 17.5195 12.0003 17.5195C12.3903 17.5195 12.7003 17.8295 12.7003 18.2195V19.5095C12.7003 19.8995 12.3903 20.2095 12.0003 20.2095Z" fill="white"/> <path d="M8.47996 10.43C8.29996 10.43 8.11996 10.36 7.97996 10.22L7.09996 9.33996C6.82996 9.06996 6.82996 8.61996 7.09996 8.34996C7.36996 8.07996 7.81996 8.07996 8.08996 8.34996L8.96996 9.22996C9.23996 9.49996 9.23996 9.94996 8.96996 10.22C8.82996 10.36 8.64996 10.43 8.46996 10.43H8.47996Z" fill="white"/> <path d="M16.3999 18.3499C16.2199 18.3499 16.0399 18.2799 15.8999 18.1399L15.0199 17.2599C14.7499 16.9899 14.7499 16.5399 15.0199 16.2699C15.2899 15.9999 15.7399 15.9999 16.0099 16.2699L16.8899 17.1499C17.1599 17.4199 17.1599 17.8699 16.8899 18.1399C16.7499 18.2799 16.5699 18.3499 16.3899 18.3499H16.3999Z" fill="white"/> <path d="M7.02008 13.9498H5.78008C5.39008 13.9498 5.08008 13.6398 5.08008 13.2498C5.08008 12.8598 5.39008 12.5498 5.78008 12.5498H7.02008C7.41008 12.5498 7.72008 12.8598 7.72008 13.2498C7.72008 13.6398 7.41008 13.9498 7.02008 13.9498Z" fill="white"/> <path d="M18.2203 13.9498H16.9803C16.5903 13.9498 16.2803 13.6398 16.2803 13.2498C16.2803 12.8598 16.5903 12.5498 16.9803 12.5498H18.2203C18.6103 12.5498 18.9203 12.8598 18.9203 13.2498C18.9203 13.6398 18.6103 13.9498 18.2203 13.9498Z" fill="white"/> <path d="M7.59996 18.3499C7.41996 18.3499 7.23996 18.2799 7.09996 18.1399C6.82996 17.8699 6.82996 17.4199 7.09996 17.1499L7.97996 16.2699C8.25996 15.9999 8.69996 15.9999 8.96996 16.2699C9.23996 16.5399 9.23996 16.9899 8.96996 17.2599L8.08996 18.1399C7.94996 18.2799 7.76996 18.3499 7.58996 18.3499H7.59996Z" fill="white"/> <path d="M15.5199 10.43C15.3399 10.43 15.1599 10.36 15.0199 10.22C14.7499 9.94996 14.7499 9.49996 15.0199 9.22996L15.8999 8.34996C16.1699 8.07996 16.6199 8.07996 16.8899 8.34996C17.1599 8.61996 17.1599 9.06996 16.8899 9.33996L16.0099 10.22C15.8699 10.36 15.6899 10.43 15.5099 10.43H15.5199Z" fill="white"/> <path d="M12.0003 5.1898C11.6103 5.1898 11.3003 4.8798 11.3003 4.4898V1.9998C11.3003 1.6098 11.6103 1.2998 12.0003 1.2998C12.3903 1.2998 12.7003 1.6098 12.7003 1.9998V4.4898C12.7003 4.8798 12.3903 5.1898 12.0003 5.1898Z" fill="white"/> <path d="M10.7601 15.1898C10.5801 15.1898 10.4001 15.1198 10.2601 14.9798C9.99012 14.7098 9.99012 14.2598 10.2601 13.9898L11.3001 12.9498V10.7498C11.3001 10.3598 11.6101 10.0498 12.0001 10.0498C12.3901 10.0498 12.7001 10.3598 12.7001 10.7498V13.2398C12.7001 13.4298 12.6301 13.6098 12.4901 13.7398L11.2501 14.9898C11.1101 15.1298 10.9301 15.1998 10.7501 15.1998L10.7601 15.1898Z" fill="white"/> </g> <defs> <clipPath id="clip0_2085_386507"> <rect width="24" height="24" fill="white"/> </clipPath> </defs> </svg>
