<svg width="24" height="24" viewBox="0 0 24 24" fill="none" xmlns="http://www.w3.org/2000/svg"> <g clip-path="url(#clip0_4482_5160)"> <path d="M21 19.75H3C2.59 19.75 2.25 19.41 2.25 19V13.5C2.25 11.59 3.59 10.25 5.5 10.25H18.5C20.41 10.25 21.75 11.59 21.75 13.5V19C21.75 19.41 21.41 19.75 21 19.75ZM3.75 18.25H20.25V13.5C20.25 12.42 19.58 11.75 18.5 11.75H5.5C4.42 11.75 3.75 12.42 3.75 13.5V18.25Z" fill="white"/> <path d="M14.5 16.25H9.5C9.09 16.25 8.75 15.91 8.75 15.5C8.75 15.09 9.09 14.75 9.5 14.75H14.5C14.91 14.75 15.25 15.09 15.25 15.5C15.25 15.91 14.91 16.25 14.5 16.25Z" fill="white"/> <path d="M16.9998 11.7501C16.9698 11.7501 16.9398 11.7501 16.9098 11.7401C16.4998 11.6901 16.2098 11.3101 16.2598 10.9001L17.1698 3.60012C17.1798 3.49012 17.1298 3.39012 17.0298 3.35012L16.1098 2.89011C16.0398 2.85011 15.9598 2.85011 15.8898 2.89011L14.7898 3.44012C14.2998 3.68012 13.7098 3.68012 13.2298 3.44012L12.1198 2.89011C12.0498 2.85011 11.9698 2.85011 11.8998 2.89011L10.7998 3.44012C10.3098 3.68012 9.71978 3.68012 9.23978 3.44012L8.12978 2.89011C8.05978 2.85011 7.97978 2.85011 7.90978 2.89011L6.98978 3.35012C6.89978 3.40012 6.83977 3.50012 6.84977 3.60012L7.75977 10.9001C7.80977 11.3101 7.51978 11.6901 7.10978 11.7401C6.70978 11.7901 6.31978 11.5001 6.26978 11.0901L5.35978 3.79011C5.26978 3.05011 5.64978 2.34011 6.30978 2.01011L7.22978 1.55012C7.71978 1.31012 8.30978 1.31012 8.78978 1.55012L9.89978 2.10012C9.96978 2.14012 10.0498 2.14012 10.1198 2.10012L11.2198 1.55012C11.7098 1.31012 12.2998 1.31012 12.7798 1.55012L13.8898 2.10012C13.9598 2.14012 14.0398 2.14012 14.1098 2.10012L15.2098 1.55012C15.6998 1.31012 16.2898 1.31012 16.7698 1.55012L17.6898 2.01011C18.3498 2.34011 18.7398 3.06011 18.6398 3.79011L17.7298 11.0901C17.6998 11.4701 17.3698 11.7501 16.9998 11.7501Z" fill="white"/> <path d="M10.5 8.75C10.09 8.75 9.75 8.41 9.75 8V7C9.75 6.59 10.09 6.25 10.5 6.25C10.91 6.25 11.25 6.59 11.25 7V8C11.25 8.41 10.91 8.75 10.5 8.75Z" fill="white"/> <path d="M13.5 8.75C13.09 8.75 12.75 8.41 12.75 8V7C12.75 6.59 13.09 6.25 13.5 6.25C13.91 6.25 14.25 6.59 14.25 7V8C14.25 8.41 13.91 8.75 13.5 8.75Z" fill="white"/> <path d="M21 22.75H3C2.04 22.75 1.25 21.96 1.25 21V20C1.25 19.04 2.04 18.25 3 18.25H21C21.96 18.25 22.75 19.04 22.75 20V21C22.75 21.96 21.96 22.75 21 22.75ZM3 19.75C2.86 19.75 2.75 19.86 2.75 20V21C2.75 21.14 2.86 21.25 3 21.25H21C21.14 21.25 21.25 21.14 21.25 21V20C21.25 19.86 21.14 19.75 21 19.75H3Z" fill="white"/> </g> <defs> <clipPath id="clip0_4482_5160"> <rect width="24" height="24" fill="white"/> </clipPath> </defs> </svg>
