<svg width="24" height="24" viewBox="0 0 24 24" fill="none" xmlns="http://www.w3.org/2000/svg"> <g clip-path="url(#clip0_2085_386333)"> <path d="M7.83977 9.19988H4.20977C2.57977 9.19988 1.25977 7.86988 1.25977 6.23988V3.87988C1.25977 3.46988 1.59977 3.12988 2.00977 3.12988C2.41977 3.12988 2.75977 3.46988 2.75977 3.87988V6.23988C2.75977 7.03988 3.40977 7.69988 4.20977 7.69988H7.83977C8.24977 7.69988 8.58977 8.03988 8.58977 8.44988C8.58977 8.85988 8.24977 9.19988 7.83977 9.19988Z" fill="white"/> <path d="M19.7996 9.19988H19.3496C18.9396 9.19988 18.5996 8.85988 18.5996 8.44988C18.5996 8.03988 18.9396 7.69988 19.3496 7.69988H19.7996C20.5996 7.69988 21.2496 7.04988 21.2496 6.23988V3.87988C21.2496 3.46988 21.5896 3.12988 21.9996 3.12988C22.4096 3.12988 22.7496 3.46988 22.7496 3.87988V6.23988C22.7496 7.86988 21.4196 9.19988 19.7996 9.19988Z" fill="white"/> <path d="M5.17969 9.20031C4.76969 9.20031 4.42969 8.86031 4.42969 8.45031V7.02031C4.42969 5.39031 5.75969 4.07031 7.37969 4.07031H14.4797C14.8897 4.07031 15.2297 4.41031 15.2297 4.82031C15.2297 5.23031 14.8897 5.57031 14.4797 5.57031H7.37969C6.57969 5.57031 5.92969 6.22031 5.92969 7.02031V8.45031C5.92969 8.86031 5.58969 9.20031 5.17969 9.20031Z" fill="white"/> <path d="M15.0397 20.8702H6.82969C5.49969 20.8702 4.42969 19.7902 4.42969 18.4702V10.7402C4.42969 10.3302 4.76969 9.99023 5.17969 9.99023C5.58969 9.99023 5.92969 10.3302 5.92969 10.7402V18.4702C5.92969 18.9702 6.33969 19.3702 6.82969 19.3702H15.0397C15.5397 19.3702 15.9397 18.9602 15.9397 18.4702V16.3302C15.9397 15.9202 16.2797 15.5802 16.6897 15.5802C17.0997 15.5802 17.4397 15.9202 17.4397 16.3302V18.4702C17.4397 19.8002 16.3597 20.8702 15.0397 20.8702Z" fill="white"/> <path d="M17.6995 17.0701H9.48953C8.15953 17.0701 7.08953 15.9901 7.08953 14.6701V7.02008C7.08953 6.44008 6.74953 5.93008 6.21953 5.70008C5.94953 5.58008 5.76953 5.31008 5.76953 5.02008C5.76953 4.72008 5.93953 4.45008 6.20953 4.33008C6.57953 4.16008 6.97953 4.08008 7.38953 4.08008H17.1495C18.7795 4.08008 20.0995 5.41008 20.0995 7.03008V14.6801C20.0995 16.0101 19.0195 17.0801 17.6995 17.0801V17.0701ZM8.19953 5.56008C8.44953 5.99008 8.57953 6.49008 8.57953 7.01008V14.6601C8.57953 15.1601 8.98953 15.5601 9.47953 15.5601H17.6895C18.1895 15.5601 18.5895 15.1501 18.5895 14.6601V7.01008C18.5895 6.21008 17.9395 5.56008 17.1395 5.56008H8.19953Z" fill="white"/> </g> <defs> <clipPath id="clip0_2085_386333"> <rect width="24" height="24" fill="white"/> </clipPath> </defs> </svg>
