<svg width="24" height="24" viewBox="0 0 24 24" fill="none" xmlns="http://www.w3.org/2000/svg"> <g clip-path="url(#clip0_4482_5213)"> <path d="M6.99987 22.7501C6.90987 22.7501 6.80984 22.7301 6.71984 22.7001C6.33984 22.5501 6.14992 22.1101 6.29992 21.7301L7.83984 17.8701C7.98984 17.4801 8.42993 17.3001 8.80993 17.4501C9.18993 17.6001 9.37985 18.0401 9.22985 18.4201L7.68981 22.2801C7.57981 22.5701 7.29987 22.7501 6.99987 22.7501Z" fill="white"/> <path d="M16.9997 22.7501C16.6997 22.7501 16.4197 22.5701 16.2997 22.2801L14.7597 18.4201C14.6097 18.0401 14.7897 17.6001 15.1797 17.4501C15.5597 17.3001 15.9997 17.4801 16.1497 17.8701L17.6896 21.7301C17.8396 22.1101 17.6597 22.5501 17.2697 22.7001C17.1897 22.7301 17.0897 22.7501 16.9997 22.7501Z" fill="white"/> <path d="M16.0601 21H8C7.59 21 7.25 20.66 7.25 20.25C7.25 19.84 7.59 19.5 8 19.5H16.0601C16.4701 19.5 16.8101 19.84 16.8101 20.25C16.8101 20.66 16.4801 21 16.0601 21Z" fill="white"/> <path d="M17 18.75H7C4.38 18.75 2.25 16.62 2.25 14V6C2.25 3.38 4.38 1.25 7 1.25H17C19.62 1.25 21.75 3.38 21.75 6V14C21.75 16.62 19.62 18.75 17 18.75ZM7 2.75C5.21 2.75 3.75 4.21 3.75 6V14C3.75 15.79 5.21 17.25 7 17.25H17C18.79 17.25 20.25 15.79 20.25 14V6C20.25 4.21 18.79 2.75 17 2.75H7Z" fill="white"/> <path d="M12 12.75C11.59 12.75 11.25 12.41 11.25 12V2C11.25 1.59 11.59 1.25 12 1.25C12.41 1.25 12.75 1.59 12.75 2V12C12.75 12.41 12.41 12.75 12 12.75Z" fill="white"/> <path d="M21 13.25H3C2.59 13.25 2.25 12.91 2.25 12.5C2.25 12.09 2.59 11.75 3 11.75H21C21.41 11.75 21.75 12.09 21.75 12.5C21.75 12.91 21.41 13.25 21 13.25Z" fill="white"/> <path d="M9 16H7C6.59 16 6.25 15.66 6.25 15.25C6.25 14.84 6.59 14.5 7 14.5H9C9.41 14.5 9.75 14.84 9.75 15.25C9.75 15.66 9.41 16 9 16Z" fill="white"/> <path d="M17 16H15C14.59 16 14.25 15.66 14.25 15.25C14.25 14.84 14.59 14.5 15 14.5H17C17.41 14.5 17.75 14.84 17.75 15.25C17.75 15.66 17.41 16 17 16Z" fill="white"/> </g> <defs> <clipPath id="clip0_4482_5213"> <rect width="24" height="24" fill="white"/> </clipPath> </defs> </svg>
