<svg width="24" height="25" viewBox="0 0 24 25" fill="none" xmlns="http://www.w3.org/2000/svg"> <g clip-path="url(#clip0_3247_9549)"> <path d="M12 17.3105H2.25C1.84 17.3105 1.5 16.9705 1.5 16.5605C1.5 16.1505 1.84 15.8105 2.25 15.8105H12C12.41 15.8105 12.75 16.1505 12.75 16.5605C12.75 16.9705 12.41 17.3105 12 17.3105Z" fill="white"/> <path d="M5.90994 20.9698C5.71994 20.9698 5.52998 20.8998 5.37998 20.7498L1.71994 17.0898C1.42994 16.7998 1.42994 16.3198 1.71994 16.0298L5.37998 12.3698C5.66998 12.0798 6.14997 12.0798 6.43997 12.3698C6.72997 12.6598 6.72997 13.1398 6.43997 13.4298L3.30997 16.5598L6.43997 19.6898C6.72997 19.9798 6.72997 20.4598 6.43997 20.7498C6.28997 20.8998 6.09994 20.9698 5.90994 20.9698Z" fill="white"/> <path d="M21.75 10H12C11.59 10 11.25 9.66 11.25 9.25C11.25 8.84 11.59 8.5 12 8.5H21.75C22.16 8.5 22.5 8.84 22.5 9.25C22.5 9.66 22.16 10 21.75 10Z" fill="white"/> <path d="M18.0898 13.6603C17.8998 13.6603 17.7098 13.5903 17.5598 13.4403C17.2698 13.1503 17.2698 12.6703 17.5598 12.3803L20.6898 9.25026L17.5598 6.12027C17.2698 5.83027 17.2698 5.35027 17.5598 5.06027C17.8498 4.77027 18.3298 4.77027 18.6198 5.06027L22.2798 8.72026C22.5698 9.01026 22.5698 9.49027 22.2798 9.78027L18.6198 13.4403C18.4798 13.5803 18.2898 13.6603 18.0898 13.6603Z" fill="white"/> </g> <defs> <clipPath id="clip0_3247_9549"> <rect width="24" height="24" fill="white" transform="translate(0 0.910156)"/> </clipPath> </defs> </svg>
