<svg width="24" height="24" viewBox="0 0 24 24" fill="none" xmlns="http://www.w3.org/2000/svg"> <g clip-path="url(#clip0_4482_7882)"> <path d="M14.2202 4.96994C14.0302 4.96994 13.8402 4.89994 13.6902 4.74994C13.4002 4.45994 13.4002 3.97994 13.6902 3.68994L15.9102 1.46994C16.2002 1.17994 16.6802 1.17994 16.9702 1.46994C17.2602 1.75994 17.2602 2.23994 16.9702 2.52994L14.7502 4.74994C14.6002 4.89994 14.4102 4.96994 14.2202 4.96994Z" fill="white"/> <path d="M21.9997 10.53C21.5897 10.53 21.2497 10.19 21.2497 9.77998V8.22998C21.2497 6.43998 19.7897 4.97998 17.9997 4.97998H14.2197C13.8097 4.97998 13.4697 4.63998 13.4697 4.22998C13.4697 3.81998 13.8097 3.47998 14.2197 3.47998H17.9997C20.6197 3.47998 22.7497 5.60998 22.7497 8.22998V9.77998C22.7497 10.19 22.4097 10.53 21.9997 10.53Z" fill="white"/> <path d="M19.0004 22.75H16.1104C14.0404 22.75 12.3604 21.07 12.3604 19V16.11C12.3604 14.04 14.0404 12.36 16.1104 12.36H19.0004C21.0704 12.36 22.7504 14.04 22.7504 16.11V19C22.7504 21.07 21.0704 22.75 19.0004 22.75ZM16.1104 13.86C14.8704 13.86 13.8604 14.87 13.8604 16.11V19C13.8604 20.24 14.8704 21.25 16.1104 21.25H19.0004C20.2404 21.25 21.2504 20.24 21.2504 19V16.11C21.2504 14.87 20.2404 13.86 19.0004 13.86H16.1104Z" fill="white"/> <path d="M7.89 11.64H5C2.93 11.64 1.25 9.96 1.25 7.89V5C1.25 2.93 2.93 1.25 5 1.25H7.89C9.96 1.25 11.64 2.93 11.64 5V7.89C11.64 9.96 9.96 11.64 7.89 11.64ZM5 2.75C3.76 2.75 2.75 3.76 2.75 5V7.89C2.75 9.13 3.76 10.14 5 10.14H7.89C9.13 10.14 10.14 9.13 10.14 7.89V5C10.14 3.76 9.13 2.75 7.89 2.75H5Z" fill="white"/> <path d="M7.56 22.75C7.37 22.75 7.18 22.68 7.03 22.53C6.74 22.24 6.74 21.76 7.03 21.47L9.25 19.25C9.54 18.96 10.02 18.96 10.31 19.25C10.6 19.54 10.6 20.02 10.31 20.31L8.09 22.53C7.94 22.68 7.75 22.75 7.56 22.75Z" fill="white"/> <path d="M9.78 20.53H6C3.38 20.53 1.25 18.4 1.25 15.78V14.23C1.25 13.82 1.59 13.48 2 13.48C2.41 13.48 2.75 13.82 2.75 14.23V15.78C2.75 17.57 4.21 19.03 6 19.03H9.78C10.19 19.03 10.53 19.37 10.53 19.78C10.53 20.19 10.19 20.53 9.78 20.53Z" fill="white"/> </g> <defs> <clipPath id="clip0_4482_7882"> <rect width="24" height="24" fill="white"/> </clipPath> </defs> </svg>
