<svg width="24" height="24" viewBox="0 0 24 24" fill="none" xmlns="http://www.w3.org/2000/svg"> <g clip-path="url(#clip0_4418_7637)"> <path d="M7.49994 15.2495C7.30994 15.2495 7.11994 15.1795 6.96994 15.0295C6.67994 14.7395 6.67994 14.2595 6.96994 13.9695L10.1699 10.7695C10.3299 10.6095 10.5399 10.5295 10.7699 10.5495C10.9899 10.5695 11.1899 10.6895 11.3199 10.8795L12.4099 12.5195L15.9599 8.96945C16.2499 8.67945 16.7299 8.67945 17.0199 8.96945C17.3099 9.25945 17.3099 9.73945 17.0199 10.0295L12.8199 14.2295C12.6599 14.3895 12.4499 14.4695 12.2199 14.4495C11.9999 14.4295 11.7999 14.3095 11.6699 14.1195L10.5799 12.4795L8.02994 15.0295C7.87994 15.1795 7.68994 15.2495 7.49994 15.2495Z" fill="white"/> <path d="M16.5 12.25C16.09 12.25 15.75 11.91 15.75 11.5V10.25H14.5C14.09 10.25 13.75 9.91 13.75 9.5C13.75 9.09 14.09 8.75 14.5 8.75H16.5C16.91 8.75 17.25 9.09 17.25 9.5V11.5C17.25 11.91 16.91 12.25 16.5 12.25Z" fill="white"/> <path d="M15 22.75H9C3.57 22.75 1.25 20.43 1.25 15V9C1.25 3.57 3.57 1.25 9 1.25H15C20.43 1.25 22.75 3.57 22.75 9V15C22.75 20.43 20.43 22.75 15 22.75ZM9 2.75C4.39 2.75 2.75 4.39 2.75 9V15C2.75 19.61 4.39 21.25 9 21.25H15C19.61 21.25 21.25 19.61 21.25 15V9C21.25 4.39 19.61 2.75 15 2.75H9Z" fill="white"/> </g> <defs> <clipPath id="clip0_4418_7637"> <rect width="24" height="24" fill="white"/> </clipPath> </defs> </svg>
