<svg width="24" height="24" viewBox="0 0 24 24" fill="none" xmlns="http://www.w3.org/2000/svg"> <g clip-path="url(#clip0_4482_14819)"> <path d="M10.0604 9.96973H5.61035C5.20035 9.96973 4.86035 9.62973 4.86035 9.21973C4.86035 8.80973 5.20035 8.46973 5.61035 8.46973H10.0504C10.4604 8.46973 10.8004 8.80973 10.8004 9.21973C10.8004 9.62973 10.4604 9.96973 10.0504 9.96973H10.0604Z" fill="white"/> <path d="M7.83008 15.5305C7.42008 15.5305 7.08008 15.1905 7.08008 14.7805V9.23047C7.08008 8.82047 7.42008 8.48047 7.83008 8.48047C8.24008 8.48047 8.58008 8.82047 8.58008 9.23047V14.7805C8.58008 15.1905 8.24008 15.5305 7.83008 15.5305Z" fill="white"/> <path d="M17.8301 15.5302C17.4201 15.5302 17.0801 15.1902 17.0801 14.7802V11.1802L15.8901 12.5102C15.6001 12.8302 15.0601 12.8302 14.7701 12.5102L13.5801 11.1802V14.7802C13.5801 15.1902 13.2401 15.5302 12.8301 15.5302C12.4201 15.5302 12.0801 15.1902 12.0801 14.7802V9.23023C12.0801 8.92023 12.2701 8.64023 12.5601 8.53023C12.8501 8.42023 13.1801 8.50023 13.3901 8.73023L15.3301 10.8902L17.2701 8.73023C17.4801 8.50023 17.8101 8.42023 18.1001 8.53023C18.3901 8.64023 18.5801 8.92023 18.5801 9.23023V14.7802C18.5801 15.1902 18.2401 15.5302 17.8301 15.5302Z" fill="white"/> <path d="M17 22.75H7C3.83 22.75 1.25 20.17 1.25 17V7C1.25 3.83 3.83 1.25 7 1.25H17C20.17 1.25 22.75 3.83 22.75 7V17C22.75 20.17 20.17 22.75 17 22.75ZM7 2.75C4.66 2.75 2.75 4.66 2.75 7V17C2.75 19.34 4.66 21.25 7 21.25H17C19.34 21.25 21.25 19.34 21.25 17V7C21.25 4.66 19.34 2.75 17 2.75H7Z" fill="white"/> </g> <defs> <clipPath id="clip0_4482_14819"> <rect width="24" height="24" fill="white"/> </clipPath> </defs> </svg>
