<svg width="24" height="24" viewBox="0 0 24 24" fill="none" xmlns="http://www.w3.org/2000/svg"> <g clip-path="url(#clip0_4482_5351)"> <path d="M12 22.75C9.1 22.75 6.75 20.39 6.75 17.5V11C6.75 10.59 7.09 10.25 7.5 10.25H16.5C16.91 10.25 17.25 10.59 17.25 11V17.5C17.25 20.39 14.9 22.75 12 22.75ZM8.25 11.75V17.5C8.25 19.57 9.93 21.25 12 21.25C14.07 21.25 15.75 19.57 15.75 17.5V11.75H8.25Z" fill="white"/> <path d="M16.5 11.75H7.5C6.54 11.75 5.75 10.96 5.75 10V9C5.75 8.04 6.54 7.25 7.5 7.25H16.5C17.46 7.25 18.25 8.04 18.25 9V10C18.25 10.96 17.46 11.75 16.5 11.75ZM7.5 8.75C7.36 8.75 7.25 8.86 7.25 9V10C7.25 10.14 7.36 10.25 7.5 10.25H16.5C16.64 10.25 16.75 10.14 16.75 10V9C16.75 8.86 16.64 8.75 16.5 8.75H7.5Z" fill="white"/> <path d="M15.75 8.75H8.25C7.84 8.75 7.5 8.41 7.5 8V4C7.5 2.48 8.73 1.25 10.25 1.25H13.75C15.27 1.25 16.5 2.48 16.5 4V8C16.5 8.41 16.16 8.75 15.75 8.75ZM9 7.25H15V4C15 3.31 14.44 2.75 13.75 2.75H10.25C9.56 2.75 9 3.31 9 4V7.25Z" fill="white"/> <path d="M10.75 6.25C10.34 6.25 10 5.91 10 5.5V4.5C10 4.09 10.34 3.75 10.75 3.75C11.16 3.75 11.5 4.09 11.5 4.5V5.5C11.5 5.91 11.16 6.25 10.75 6.25Z" fill="white"/> <path d="M13.25 6.25C12.84 6.25 12.5 5.91 12.5 5.5V4.5C12.5 4.09 12.84 3.75 13.25 3.75C13.66 3.75 14 4.09 14 4.5V5.5C14 5.91 13.66 6.25 13.25 6.25Z" fill="white"/> </g> <defs> <clipPath id="clip0_4482_5351"> <rect width="24" height="24" fill="white"/> </clipPath> </defs> </svg>
