<svg width="24" height="24" viewBox="0 0 24 24" fill="none" xmlns="http://www.w3.org/2000/svg"> <g clip-path="url(#clip0_4482_12461)"> <path d="M18.0001 22.4795H15.5101C15.1001 22.4795 14.7601 22.1395 14.7601 21.7295C14.7601 21.3195 15.1001 20.9795 15.5101 20.9795H18.0001C19.7901 20.9795 21.2501 19.5195 21.2501 17.7295V6.26953C21.2501 4.47953 19.7901 3.01953 18.0001 3.01953H7.62012C5.83012 3.01953 4.37012 4.47953 4.37012 6.26953V7.67953C4.37012 8.08953 4.03012 8.42953 3.62012 8.42953C3.21012 8.42953 2.87012 8.08953 2.87012 7.67953V6.26953C2.87012 3.64953 5.00012 1.51953 7.62012 1.51953H18.0001C20.6201 1.51953 22.7501 3.64953 22.7501 6.26953V17.7295C22.7501 20.3495 20.6201 22.4795 18.0001 22.4795Z" fill="white"/> <path d="M17.6802 8.42969H7.9502C7.5402 8.42969 7.2002 8.08969 7.2002 7.67969C7.2002 7.26969 7.5402 6.92969 7.9502 6.92969H17.6802C18.0902 6.92969 18.4302 7.26969 18.4302 7.67969C18.4302 8.08969 18.0902 8.42969 17.6802 8.42969Z" fill="white"/> <path d="M17.6795 12.75H15.5195C15.1095 12.75 14.7695 12.41 14.7695 12C14.7695 11.59 15.1095 11.25 15.5195 11.25H17.6795C18.0895 11.25 18.4295 11.59 18.4295 12C18.4295 12.41 18.0895 12.75 17.6795 12.75Z" fill="white"/> <path d="M17.6795 17.0703H15.5195C15.1095 17.0703 14.7695 16.7303 14.7695 16.3203C14.7695 15.9103 15.1095 15.5703 15.5195 15.5703H17.6795C18.0895 15.5703 18.4295 15.9103 18.4295 16.3203C18.4295 16.7303 18.0895 17.0703 17.6795 17.0703Z" fill="white"/> <path d="M6.86035 22.4803C6.45035 22.4803 6.11035 22.1403 6.11035 21.7303V19.0303C6.11035 18.6203 6.45035 18.2803 6.86035 18.2803C7.27035 18.2803 7.61035 18.6203 7.61035 19.0303V21.7303C7.61035 22.1403 7.27035 22.4803 6.86035 22.4803Z" fill="white"/> <path d="M9.0302 22.4805H4.7002C4.2902 22.4805 3.9502 22.1405 3.9502 21.7305C3.9502 21.3205 4.2902 20.9805 4.7002 20.9805H9.0202C9.4302 20.9805 9.7702 21.3205 9.7702 21.7305C9.7702 22.1405 9.4302 22.4805 9.0202 22.4805H9.0302Z" fill="white"/> <path d="M9.73 19.78H4C2.48 19.78 1.25 18.55 1.25 17.03V14C1.25 12.48 2.48 11.25 4 11.25H9.73C11.25 11.25 12.48 12.48 12.48 14V17.03C12.48 18.55 11.25 19.78 9.73 19.78ZM4 12.75C3.31 12.75 2.75 13.31 2.75 14V17.03C2.75 17.72 3.31 18.28 4 18.28H9.73C10.42 18.28 10.98 17.72 10.98 17.03V14C10.98 13.31 10.42 12.75 9.73 12.75H4Z" fill="white"/> </g> <defs> <clipPath id="clip0_4482_12461"> <rect width="24" height="24" fill="white"/> </clipPath> </defs> </svg>
