<svg width="24" height="24" viewBox="0 0 24 24" fill="none" xmlns="http://www.w3.org/2000/svg"> <g clip-path="url(#clip0_2085_390313)"> <path d="M17.8502 7.46023C17.3502 7.46023 16.9302 7.12023 16.8302 6.63023C16.7502 6.25023 16.4502 5.95023 16.0702 5.87023C15.5802 5.77023 15.2402 5.35023 15.2402 4.85023C15.2402 4.35023 15.5802 3.93023 16.0702 3.83023C16.4502 3.75023 16.7502 3.45023 16.8302 3.07023C16.9302 2.58023 17.3502 2.24023 17.8502 2.24023C18.3502 2.24023 18.7702 2.58023 18.8702 3.07023C18.9502 3.45023 19.2502 3.75023 19.6302 3.83023C20.1202 3.93023 20.4602 4.35023 20.4602 4.85023C20.4602 5.35023 20.1202 5.77023 19.6302 5.87023C19.2502 5.95023 18.9502 6.25023 18.8702 6.63023C18.7702 7.12023 18.3502 7.46023 17.8502 7.46023ZM17.4356 4.80862C17.4087 4.82963 17.4087 4.87083 17.4357 4.8917C17.5756 5.00007 17.7021 5.12678 17.8103 5.2668C17.8307 5.29319 17.8707 5.29389 17.8917 5.26795C18.0056 5.12686 18.1273 4.99926 18.2669 4.89029C18.2932 4.86978 18.2939 4.82976 18.268 4.80881C18.1269 4.69485 17.9993 4.5732 17.8903 4.43357C17.8698 4.40728 17.8298 4.40658 17.8088 4.43251C17.6954 4.57293 17.5744 4.69999 17.4356 4.80862Z" fill="white"/> <path d="M12 22.75C6.07 22.75 1.25 17.93 1.25 12C1.25 6.07 6.07 1.25 12 1.25C12.91 1.25 13.81 1.36 14.69 1.59C15.09 1.69 15.33 2.1 15.23 2.5C15.13 2.9 14.72 3.14 14.32 3.04C13.57 2.85 12.79 2.75 12.01 2.75C6.9 2.75 2.75 6.9 2.75 12C2.75 14.0811 3.44335 16.003 4.6033 17.5569C4.66445 17.6388 4.78382 17.646 4.85741 17.5751C6.78056 15.7209 9.29491 14.71 12 14.71C14.7059 14.71 17.2114 15.7215 19.1436 17.5767C19.2169 17.647 19.3353 17.6402 19.3966 17.5592C20.5656 16.014 21.25 14.0914 21.25 12C21.25 10.71 20.99 9.47 20.48 8.3C20.31 7.92 20.48 7.48 20.87 7.31C21.25 7.15 21.69 7.31 21.86 7.7C22.45 9.06 22.76 10.51 22.76 12C22.76 17.93 17.94 22.75 12.01 22.75H12ZM5.86575 18.6859C5.79646 18.753 5.79886 18.8644 5.87101 18.9284C7.50559 20.3776 9.65323 21.25 12 21.25C14.3464 21.25 16.4937 20.3685 18.1282 18.9284C18.2007 18.8645 18.2033 18.7527 18.1338 18.6855C16.4795 17.0846 14.3205 16.21 12 16.21C9.67926 16.21 7.52016 17.0848 5.86575 18.6859ZM12 13C10.35 13 9 11.65 9 10C9 8.35 10.35 7 12 7C13.65 7 15 8.35 15 10C15 11.65 13.65 13 12 13ZM12 8.5C11.17 8.5 10.5 9.17 10.5 10C10.5 10.83 11.17 11.5 12 11.5C12.83 11.5 13.5 10.83 13.5 10C13.5 9.17 12.83 8.5 12 8.5Z" fill="white"/> </g> <defs> <clipPath id="clip0_2085_390313"> <rect width="24" height="24" fill="white"/> </clipPath> </defs> </svg>
