<svg width="24" height="24" viewBox="0 0 24 24" fill="none" xmlns="http://www.w3.org/2000/svg"> <g clip-path="url(#clip0_4482_11471)"> <path d="M5.5 19.75H2.5C1.81 19.75 1.25 19.19 1.25 18.5V15.5C1.25 14.81 1.81 14.25 2.5 14.25H5.5C6.19 14.25 6.75 14.81 6.75 15.5V18.5C6.75 19.19 6.19 19.75 5.5 19.75ZM2.75 18.25H5.25V15.75H2.75V18.25Z" fill="white"/> <path d="M21.5 19.75H18.5C17.81 19.75 17.25 19.19 17.25 18.5V15.5C17.25 14.81 17.81 14.25 18.5 14.25H21.5C22.19 14.25 22.75 14.81 22.75 15.5V18.5C22.75 19.19 22.19 19.75 21.5 19.75ZM18.75 18.25H21.25V15.75H18.75V18.25Z" fill="white"/> <path d="M13.5 9.75H10.5C9.81 9.75 9.25 9.19 9.25 8.5V5.5C9.25 4.81 9.81 4.25 10.5 4.25H13.5C14.19 4.25 14.75 4.81 14.75 5.5V8.5C14.75 9.19 14.19 9.75 13.5 9.75ZM10.75 8.25H13.25V5.75H10.75V8.25Z" fill="white"/> <path d="M10 7.75H2C1.59 7.75 1.25 7.41 1.25 7C1.25 6.59 1.59 6.25 2 6.25H10C10.41 6.25 10.75 6.59 10.75 7C10.75 7.41 10.41 7.75 10 7.75Z" fill="white"/> <path d="M22 7.75H14C13.59 7.75 13.25 7.41 13.25 7C13.25 6.59 13.59 6.25 14 6.25H22C22.41 6.25 22.75 6.59 22.75 7C22.75 7.41 22.41 7.75 22 7.75Z" fill="white"/> <path d="M4 15.7502C3.59 15.7502 3.25 15.4102 3.25 15.0002C3.25 11.0102 5.95 7.52023 9.81 6.52023C10.2 6.42023 10.62 6.66023 10.72 7.06023C10.82 7.46023 10.58 7.87023 10.18 7.97023C6.98 8.80023 4.74 11.6902 4.74 14.9902C4.74 15.4002 4.4 15.7402 3.99 15.7402L4 15.7502Z" fill="white"/> <path d="M19.9997 15.75C19.5897 15.75 19.2497 15.41 19.2497 15C19.2497 11.69 17.0097 8.79999 13.8097 7.97999C13.4097 7.87999 13.1697 7.46999 13.2697 7.06999C13.3697 6.66999 13.7897 6.42999 14.1797 6.52999C18.0497 7.52999 20.7397 11.02 20.7397 15.01C20.7397 15.42 20.3997 15.76 19.9897 15.76L19.9997 15.75Z" fill="white"/> </g> <defs> <clipPath id="clip0_4482_11471"> <rect width="24" height="24" fill="white"/> </clipPath> </defs> </svg>
