<svg width="24" height="24" viewBox="0 0 24 24" fill="none" xmlns="http://www.w3.org/2000/svg"> <g clip-path="url(#clip0_4482_9351)"> <path d="M21.0004 19.25C20.6604 19.25 20.3204 19.15 20.0204 18.95L16.5804 16.62C16.2404 16.39 16.1504 15.92 16.3804 15.58C16.6104 15.24 17.0804 15.15 17.4204 15.38L20.8604 17.71C20.9404 17.76 21.0404 17.77 21.1204 17.72C21.2004 17.68 21.2504 17.59 21.2504 17.5V10.5C21.2504 10.41 21.2004 10.32 21.1204 10.28C21.0404 10.24 20.9404 10.24 20.8604 10.29L17.4204 12.62C17.0804 12.85 16.6104 12.76 16.3804 12.42C16.1504 12.08 16.2404 11.61 16.5804 11.38L20.0204 9.04995C20.5604 8.67995 21.2504 8.64995 21.8204 8.94995C22.3904 9.24995 22.7504 9.84995 22.7504 10.49V17.49C22.7504 18.14 22.3904 18.73 21.8204 19.04C21.5604 19.18 21.2804 19.25 21.0004 19.25Z" fill="white"/> <path d="M13 11.25H6C5.59 11.25 5.25 10.91 5.25 10.5C5.25 10.09 5.59 9.75 6 9.75H13C13.41 9.75 13.75 10.09 13.75 10.5C13.75 10.91 13.41 11.25 13 11.25Z" fill="white"/> <path d="M5 8.25C4.59 8.25 4.25 7.91 4.25 7.5V5.5C4.25 3.98 5.48 2.75 7 2.75H14C14.41 2.75 14.75 3.09 14.75 3.5C14.75 3.91 14.41 4.25 14 4.25H7C6.31 4.25 5.75 4.81 5.75 5.5V7.5C5.75 7.91 5.41 8.25 5 8.25Z" fill="white"/> <path d="M14 21.25H5C2.93 21.25 1.25 19.57 1.25 17.5V10.5C1.25 8.43 2.93 6.75 5 6.75H14C16.07 6.75 17.75 8.43 17.75 10.5V17.5C17.75 19.57 16.07 21.25 14 21.25ZM5 8.25C3.76 8.25 2.75 9.26 2.75 10.5V17.5C2.75 18.74 3.76 19.75 5 19.75H14C15.24 19.75 16.25 18.74 16.25 17.5V10.5C16.25 9.26 15.24 8.25 14 8.25H5Z" fill="white"/> </g> <defs> <clipPath id="clip0_4482_9351"> <rect width="24" height="24" fill="white"/> </clipPath> </defs> </svg>
