<svg width="24" height="24" viewBox="0 0 24 24" fill="none" xmlns="http://www.w3.org/2000/svg"> <g clip-path="url(#clip0_4418_6804)"> <path d="M15 22.75H9C3.57 22.75 1.25 20.43 1.25 15V9C1.25 3.57 3.57 1.25 9 1.25H15C20.43 1.25 22.75 3.57 22.75 9V15C22.75 20.43 20.43 22.75 15 22.75ZM9 2.75C4.39 2.75 2.75 4.39 2.75 9V15C2.75 19.61 4.39 21.25 9 21.25H15C19.61 21.25 21.25 19.61 21.25 15V9C21.25 4.39 19.61 2.75 15 2.75H9Z" fill="white"/> <path d="M10.7601 16.3703C10.3401 16.3703 9.95009 16.2703 9.60009 16.0703C8.80009 15.6103 8.34009 14.6703 8.34009 13.4803V10.5203C8.34009 9.34029 8.80009 8.39029 9.60009 7.93029C10.4001 7.47029 11.4401 7.54029 12.4701 8.14029L15.0401 9.62029C16.0601 10.2103 16.6501 11.0803 16.6501 12.0003C16.6501 12.9203 16.0601 13.7903 15.0401 14.3803L12.4701 15.8603C11.8901 16.2003 11.3001 16.3703 10.7601 16.3703ZM10.7701 9.13029C10.6101 9.13029 10.4701 9.16029 10.3601 9.23029C10.0401 9.42029 9.85009 9.89029 9.85009 10.5203V13.4803C9.85009 14.1103 10.0301 14.5803 10.3601 14.7703C10.6801 14.9603 11.1801 14.8803 11.7301 14.5603L14.3001 13.0803C14.8501 12.7603 15.1601 12.3703 15.1601 12.0003C15.1601 11.6303 14.8501 11.2303 14.3001 10.9203L11.7301 9.44029C11.3701 9.23029 11.0401 9.13029 10.7701 9.13029Z" fill="white"/> </g> <defs> <clipPath id="clip0_4418_6804"> <rect width="24" height="24" fill="white"/> </clipPath> </defs> </svg>
