<svg width="24" height="24" viewBox="0 0 24 24" fill="none" xmlns="http://www.w3.org/2000/svg"> <g clip-path="url(#clip0_2085_386346)"> <path d="M9.67005 22.7498H7.77005C7.36005 22.7498 7.02005 22.4098 7.02005 21.9998C7.02005 21.5898 7.36005 21.2498 7.77005 21.2498H8.98005C9.10005 19.5998 9.37005 15.3198 9.40005 11.6898C6.88005 11.4098 5.47005 10.5998 5.10005 9.22984C4.50005 6.96984 7.28005 4.31984 9.40005 2.99984V1.99984C9.40005 1.58984 9.73005 1.24984 10.15 1.24984C10.56 1.24984 10.9 1.58984 10.9 1.99984V3.42984C10.9 3.69984 10.76 3.94984 10.52 4.07984C8.42005 5.27984 6.22005 7.62984 6.55005 8.84984C6.67005 9.28984 7.39005 10.2998 11.58 10.2998C15.77 10.2998 16.33 9.35984 16.45 8.95984C16.79 7.80984 14.68 5.45984 12.57 4.05984C12.36 3.91984 12.23 3.67984 12.23 3.41984L12.25 1.98984C12.25 1.57984 12.61 1.22984 13.01 1.24984C13.42 1.24984 13.75 1.59984 13.75 2.00984L13.73 3.03984C15.63 4.38984 18.55 7.13984 17.88 9.38984C17.5 10.6698 16.14 11.4298 13.75 11.6898V14.3698C16.25 14.6898 18.99 15.3898 18.99 16.7698C18.99 18.1498 16.77 18.4798 14.62 18.7798C14.48 18.7998 14.35 18.8198 14.22 18.8398V20.1098C14.22 20.5198 13.88 20.8598 13.47 20.8598C13.06 20.8598 12.72 20.5198 12.72 20.1098V18.2098C12.72 17.8498 12.97 17.5398 13.32 17.4698C13.59 17.4198 13.97 17.3598 14.4 17.2998C15.08 17.1998 16.5 17.0098 17.19 16.7498C16.27 16.2998 13.76 15.6998 10.77 15.6298C10.63 19.0398 10.4 22.0298 10.4 22.0698C10.37 22.4598 10.04 22.7598 9.65005 22.7598L9.67005 22.7498ZM10.84 14.1198C11.24 14.1298 11.72 14.1598 12.25 14.1998V11.7798C11.81 11.7898 11.33 11.7898 10.89 11.7798C10.89 12.5398 10.87 13.3298 10.84 14.1098V14.1198ZM11.57 9.88984C10.11 9.88984 8.92005 8.69984 8.92005 7.23984C8.92005 5.77984 10.11 4.58984 11.57 4.58984C13.03 4.58984 14.22 5.77984 14.22 7.23984C14.22 8.69984 13.03 9.88984 11.57 9.88984ZM11.57 6.07984C10.93 6.07984 10.42 6.59984 10.42 7.22984C10.42 7.85984 10.94 8.37984 11.57 8.37984C12.2 8.37984 12.72 7.85984 12.72 7.22984C12.72 6.59984 12.2 6.07984 11.57 6.07984Z" fill="white"/> </g> <defs> <clipPath id="clip0_2085_386346"> <rect width="24" height="24" fill="white"/> </clipPath> </defs> </svg>
