<svg width="24" height="24" viewBox="0 0 24 24" fill="none" xmlns="http://www.w3.org/2000/svg"> <g clip-path="url(#clip0_4482_10970)"> <path d="M10.6098 21.2499C10.4198 21.2499 10.2298 21.1799 10.0798 21.0299C9.7898 20.7399 9.7898 20.2599 10.0798 19.9699L11.4098 18.6399C11.6998 18.3499 12.1798 18.3499 12.4698 18.6399C12.7598 18.9299 12.7598 19.4099 12.4698 19.6999L11.1398 21.0299C10.9898 21.1799 10.7998 21.2499 10.6098 21.2499Z" fill="white"/> <path d="M15.6602 19.6401C15.3002 19.6401 14.9802 19.3801 14.9202 19.0101C14.8602 18.6001 15.1402 18.2201 15.5502 18.1501C19.2602 17.5701 21.1902 16.2701 21.1902 15.2801C21.1502 14.8601 20.8602 14.4101 20.4402 14.1501C20.0902 13.9401 19.9702 13.4701 20.1902 13.1201C20.4102 12.7701 20.8702 12.6501 21.2202 12.8701C22.0502 13.3701 22.6002 14.2501 22.6902 15.2101C22.6902 17.3001 20.0402 18.9601 15.7802 19.6301C15.7402 19.6301 15.7002 19.6301 15.6602 19.6301V19.6401Z" fill="white"/> <path d="M11.9404 19.9201C6.73043 19.9201 1.19043 18.2901 1.19043 15.2801C1.29043 14.2401 1.84043 13.3701 2.66043 12.8701C3.01043 12.6501 3.47043 12.7701 3.69043 13.1201C3.90043 13.4701 3.79043 13.9401 3.44043 14.1501C3.02043 14.4101 2.73043 14.8601 2.69043 15.3501C2.69043 16.5901 6.21043 18.4201 11.9404 18.4201C12.3504 18.4201 12.6904 18.7601 12.6904 19.1701C12.6904 19.5801 12.3504 19.9201 11.9404 19.9201Z" fill="white"/> <path d="M11.94 15.7499C10.31 15.7499 8.76 15.0399 7.7 13.8099C5.85 11.6799 5.85 8.46989 7.7 6.33989L10.07 3.59989C11.01 2.50989 12.87 2.51989 13.81 3.59989L16.18 6.33989C18.03 8.46989 18.03 11.6799 16.18 13.8099C15.11 15.0399 13.57 15.7499 11.94 15.7499ZM11.94 4.24989C11.66 4.24989 11.39 4.36989 11.2 4.58989L8.83 7.32989C7.47 8.89989 7.47 11.2699 8.83 12.8399C9.61 13.7399 10.75 14.2599 11.94 14.2599C13.13 14.2599 14.27 13.7399 15.05 12.8399C16.41 11.2699 16.41 8.89989 15.05 7.32989L12.68 4.58989C12.49 4.37989 12.23 4.24989 11.94 4.24989Z" fill="white"/> </g> <defs> <clipPath id="clip0_4482_10970"> <rect width="24" height="24" fill="white"/> </clipPath> </defs> </svg>
