<svg width="24" height="24" viewBox="0 0 24 24" fill="none" xmlns="http://www.w3.org/2000/svg"> <g clip-path="url(#clip0_4482_14358)"> <path d="M12.0001 19.59C6.94008 19.59 2.83008 15.48 2.83008 10.42C2.83008 5.36 6.94008 1.25 12.0001 1.25C17.0601 1.25 21.1701 5.36 21.1701 10.42C21.1701 15.48 17.0601 19.59 12.0001 19.59ZM12.0001 2.75C7.77008 2.75 4.33008 6.19 4.33008 10.42C4.33008 14.65 7.77008 18.09 12.0001 18.09C16.2301 18.09 19.6701 14.65 19.6701 10.42C19.6701 6.19 16.2301 2.75 12.0001 2.75Z" fill="white"/> <path d="M12.0001 14.3303C10.1301 14.3303 8.62012 12.8103 8.62012 10.9503C8.62012 9.09031 10.1401 7.57031 12.0001 7.57031C13.8601 7.57031 15.3801 9.09031 15.3801 10.9503C15.3801 12.8103 13.8601 14.3303 12.0001 14.3303ZM12.0001 9.07031C10.9601 9.07031 10.1201 9.91031 10.1201 10.9503C10.1201 11.9903 10.9601 12.8303 12.0001 12.8303C13.0401 12.8303 13.8801 11.9903 13.8801 10.9503C13.8801 9.91031 13.0401 9.07031 12.0001 9.07031Z" fill="white"/> <path d="M13.0504 6.42969H10.9404C10.5304 6.42969 10.1904 6.08969 10.1904 5.67969C10.1904 5.26969 10.5304 4.92969 10.9404 4.92969H13.0504C13.4604 4.92969 13.8004 5.26969 13.8004 5.67969C13.8004 6.08969 13.4604 6.42969 13.0504 6.42969Z" fill="white"/> <path d="M19.3699 22.75H4.62988C4.21988 22.75 3.87988 22.41 3.87988 22C3.87988 21.59 4.21988 21.25 4.62988 21.25H19.3699C19.7799 21.25 20.1199 21.59 20.1199 22C20.1199 22.41 19.7799 22.75 19.3699 22.75Z" fill="white"/> <path d="M16.7397 22.7497C16.3697 22.7497 16.0397 22.4697 15.9997 22.0897L15.4597 17.7997C15.4097 17.3897 15.6997 17.0097 16.1097 16.9597C16.5197 16.9097 16.8997 17.1997 16.9497 17.6097L17.4897 21.8997C17.5397 22.3097 17.2497 22.6897 16.8397 22.7397C16.8097 22.7397 16.7797 22.7397 16.7497 22.7397L16.7397 22.7497Z" fill="white"/> <path d="M7.26025 22.7504C7.26025 22.7504 7.20025 22.7504 7.17025 22.7504C6.76025 22.7004 6.47025 22.3204 6.52025 21.9104L7.06025 17.6205C7.11025 17.2105 7.49025 16.9204 7.90025 16.9704C8.31025 17.0204 8.60025 17.4004 8.55025 17.8104L8.01025 22.1005C7.96025 22.4805 7.64025 22.7604 7.27025 22.7604L7.26025 22.7504Z" fill="white"/> </g> <defs> <clipPath id="clip0_4482_14358"> <rect width="24" height="24" fill="white"/> </clipPath> </defs> </svg>
