<svg width="24" height="24" viewBox="0 0 24 24" fill="none" xmlns="http://www.w3.org/2000/svg"> <g clip-path="url(#clip0_4482_5344)"> <path d="M16.1701 19.7502H7.84012C7.54012 19.7502 7.28013 19.5802 7.16013 19.3102C7.04013 19.0402 7.09013 18.7302 7.28013 18.5002L7.80013 17.9102C8.83013 16.7502 9.55013 15.3402 9.89013 13.8302C9.97013 13.4902 10.2701 13.2402 10.6201 13.2402H13.4001C13.7501 13.2402 14.0601 13.4802 14.1301 13.8302C14.4701 15.3402 15.1901 16.7502 16.2201 17.9102L16.7401 18.5002C16.9401 18.7202 16.9801 19.0402 16.8601 19.3102C16.7401 19.5802 16.4601 19.7502 16.1701 19.7502ZM9.46013 18.2502H14.5501C13.7601 17.2002 13.1701 16.0102 12.8101 14.7502H11.2001C10.8401 16.0102 10.2501 17.2002 9.46013 18.2502Z" fill="white"/> <path d="M12 11.3496C10.48 11.3496 9.25 10.1196 9.25 8.59961C9.25 7.07961 10.48 5.84961 12 5.84961C13.52 5.84961 14.75 7.07961 14.75 8.59961C14.75 10.1196 13.52 11.3496 12 11.3496ZM12 7.34961C11.31 7.34961 10.75 7.90961 10.75 8.59961C10.75 9.28961 11.31 9.84961 12 9.84961C12.69 9.84961 13.25 9.28961 13.25 8.59961C13.25 7.90961 12.69 7.34961 12 7.34961Z" fill="white"/> <path d="M12.0999 14.75H11.8999C8.4499 14.75 5.6499 11.95 5.6499 8.5C5.6499 5.05 8.4499 2.25 11.8999 2.25H12.0999C15.5499 2.25 18.3499 5.05 18.3499 8.5C18.3499 11.95 15.5499 14.75 12.0999 14.75ZM11.8999 3.75C9.2799 3.75 7.1499 5.88 7.1499 8.5C7.1499 11.12 9.2799 13.25 11.8999 13.25H12.0999C14.7199 13.25 16.8499 11.12 16.8499 8.5C16.8499 5.88 14.7199 3.75 12.0999 3.75H11.8999Z" fill="white"/> <path d="M16.5 22.75H7.5C6.26 22.75 5.25 21.74 5.25 20.5C5.25 19.26 6.26 18.25 7.5 18.25H16.5C17.74 18.25 18.75 19.26 18.75 20.5C18.75 21.74 17.74 22.75 16.5 22.75ZM7.5 19.75C7.09 19.75 6.75 20.09 6.75 20.5C6.75 20.91 7.09 21.25 7.5 21.25H16.5C16.91 21.25 17.25 20.91 17.25 20.5C17.25 20.09 16.91 19.75 16.5 19.75H7.5Z" fill="white"/> <path d="M18 14.75H6C3.38 14.75 1.25 12.62 1.25 10V7C1.25 4.38 3.38 2.25 6 2.25H18C20.62 2.25 22.75 4.38 22.75 7V10C22.75 12.62 20.62 14.75 18 14.75ZM6 3.75C4.21 3.75 2.75 5.21 2.75 7V10C2.75 11.79 4.21 13.25 6 13.25H18C19.79 13.25 21.25 11.79 21.25 10V7C21.25 5.21 19.79 3.75 18 3.75H6Z" fill="white"/> </g> <defs> <clipPath id="clip0_4482_5344"> <rect width="24" height="24" fill="white"/> </clipPath> </defs> </svg>
