<svg width="24" height="24" viewBox="0 0 24 24" fill="none" xmlns="http://www.w3.org/2000/svg"> <g clip-path="url(#clip0_4482_9164)"> <path d="M12.0005 20.9301C7.58047 20.9301 3.98047 17.3301 3.98047 12.9101V7.45006C3.98047 5.03006 5.95047 3.06006 8.37047 3.06006H15.6405C18.0605 3.06006 20.0305 5.03006 20.0305 7.45006V12.9001C20.0305 17.3201 16.4305 20.9201 12.0105 20.9201L12.0005 20.9301ZM8.36047 4.57006C6.77047 4.57006 5.47047 5.86006 5.47047 7.46006V12.9101C5.47047 16.5101 8.40047 19.4301 11.9905 19.4301C15.5805 19.4301 18.5105 16.5001 18.5105 12.9101V7.45006C18.5105 5.86006 17.2205 4.56006 15.6205 4.56006H8.35047L8.36047 4.57006Z" fill="white"/> <path d="M15.64 12.7501H8.36996C7.44996 12.7501 6.70996 12.0101 6.70996 11.0901V9.27011C6.70996 8.35011 7.44996 7.61011 8.36996 7.61011H15.64C16.56 7.61011 17.3 8.35011 17.3 9.27011V11.0901C17.3 12.0101 16.56 12.7501 15.64 12.7501ZM8.36996 9.11011C8.27996 9.11011 8.20996 9.18011 8.20996 9.27011V11.0901C8.20996 11.1801 8.27996 11.2501 8.36996 11.2501H15.64C15.73 11.2501 15.8 11.1801 15.8 11.0901V9.27011C15.8 9.18011 15.73 9.11011 15.64 9.11011H8.36996Z" fill="white"/> <path d="M21.0895 12.75H19.2695C18.8595 12.75 18.5195 12.41 18.5195 12C18.5195 11.59 18.8595 11.25 19.2695 11.25H21.0895C21.1795 11.25 21.2495 11.18 21.2495 11.09V8.35995C21.2495 8.26995 21.1795 8.19995 21.0895 8.19995H19.2695C18.8595 8.19995 18.5195 7.85995 18.5195 7.44995C18.5195 7.03995 18.8595 6.69995 19.2695 6.69995H21.0895C22.0095 6.69995 22.7495 7.43995 22.7495 8.35995V11.09C22.7495 12.01 22.0095 12.75 21.0895 12.75Z" fill="white"/> <path d="M4.73 12.75H2.91C1.99 12.75 1.25 12.01 1.25 11.09V8.35995C1.25 7.43995 1.99 6.69995 2.91 6.69995H4.73C5.14 6.69995 5.48 7.03995 5.48 7.44995C5.48 7.85995 5.14 8.19995 4.73 8.19995H2.91C2.82 8.19995 2.75 8.26995 2.75 8.35995V11.09C2.75 11.18 2.82 11.25 2.91 11.25H4.73C5.14 11.25 5.48 11.59 5.48 12C5.48 12.41 5.14 12.75 4.73 12.75Z" fill="white"/> </g> <defs> <clipPath id="clip0_4482_9164"> <rect width="24" height="24" fill="white"/> </clipPath> </defs> </svg>
