<svg width="24" height="24" viewBox="0 0 24 24" fill="none" xmlns="http://www.w3.org/2000/svg"> <g clip-path="url(#clip0_2085_381551)"> <path d="M1.99994 22.75C1.80994 22.75 1.61994 22.68 1.46994 22.5301C1.17994 22.24 1.17994 21.76 1.46994 21.47L3.72994 19.21C3.02994 18.47 2.56994 17.53 2.42994 16.5C2.23994 15.18 2.57994 13.87 3.37994 12.81C3.58994 12.53 3.82994 12.27 4.09994 12.04L4.34994 11.83C4.61994 11.61 4.99994 11.61 5.26994 11.81C5.47994 11.96 5.66994 12.13 5.84994 12.31C5.84994 11.27 6.17994 10.23 6.84994 9.34005C7.05994 9.05005 7.30994 8.79005 7.56994 8.56005L7.81994 8.36005C8.08994 8.14005 8.46994 8.14005 8.73994 8.34005C8.91994 8.47005 9.07994 8.61005 9.22994 8.76005C9.25994 7.75005 9.60994 6.77005 10.2299 5.95005C10.4399 5.67005 10.6799 5.41005 10.9499 5.18005L11.1999 4.97005C11.4699 4.75005 11.8499 4.75005 12.1199 4.95005C12.2999 5.08005 12.4599 5.23005 12.6199 5.38005C12.6499 4.39005 12.9799 3.41005 13.6099 2.56005C13.8199 2.28005 14.0599 2.02005 14.3299 1.79005L14.5899 1.58005C14.8599 1.37005 15.2399 1.36005 15.5099 1.56005C16.2399 2.11005 16.7799 2.83005 17.1099 3.62005C17.8599 2.40005 19.1199 1.51005 20.6499 1.29005C21.1199 1.22005 21.5899 1.22005 22.0599 1.29005C22.3899 1.34005 22.6499 1.60005 22.6999 1.93005C22.9899 3.95005 22.0099 5.87005 20.3799 6.88005C20.7499 7.04005 21.0999 7.24005 21.4399 7.49005C21.7199 7.70005 21.9799 7.95005 22.2099 8.21005L22.4199 8.46005C22.6399 8.73005 22.6399 9.11005 22.4399 9.38005C21.4999 10.63 20.0799 11.32 18.6299 11.37C18.6999 11.44 18.7699 11.52 18.8399 11.59L19.0499 11.84C19.2599 12.11 19.2699 12.49 19.0699 12.76C18.2699 13.82 17.1099 14.51 15.7899 14.7C15.6099 14.73 15.4399 14.74 15.2599 14.75C15.3299 14.82 15.3999 14.9 15.4599 14.97L15.6699 15.22C15.8799 15.49 15.8899 15.87 15.6899 16.14C14.7199 17.44 13.2299 18.12 11.7199 18.13C11.8199 18.23 11.9099 18.33 11.9999 18.43L12.2099 18.68C12.4199 18.9501 12.4299 19.33 12.2299 19.6C10.5799 21.8001 7.44994 22.25 5.24994 20.6C5.09994 20.49 4.95994 20.37 4.82994 20.24L2.56994 22.5C2.41994 22.65 2.22994 22.72 2.03994 22.72L1.99994 22.75ZM5.87994 19.23C5.94994 19.3 6.02994 19.3601 6.10994 19.42C7.47994 20.4501 9.36994 20.31 10.5799 19.17C10.4899 19.09 10.3899 19 10.2899 18.92C9.04994 17.99 7.38994 18.01 6.18994 18.8601C6.08994 18.9801 5.98994 19.1 5.87994 19.22V19.23ZM4.81994 13.41C4.72994 13.5 4.64994 13.6 4.56994 13.7C4.00994 14.45 3.77994 15.36 3.90994 16.28C4.00994 16.97 4.30994 17.6 4.75994 18.1101C4.87994 18 4.99994 17.89 5.11994 17.8C5.63994 17.07 5.84994 16.19 5.71994 15.3C5.61994 14.58 5.29994 13.93 4.80994 13.41H4.81994ZM9.34994 15.77C9.41994 15.84 9.49994 15.9 9.57994 15.96C10.9599 16.99 12.8399 16.85 14.0499 15.71C13.9599 15.62 13.8599 15.54 13.7599 15.46C13.0199 14.9 12.0999 14.67 11.1799 14.8C10.6299 14.88 10.1099 15.09 9.66994 15.4C9.56994 15.53 9.45994 15.65 9.34994 15.76V15.77ZM8.28994 9.94005C8.19994 10.03 8.11994 10.13 8.03994 10.23C7.02994 11.58 7.14994 13.43 8.22994 14.64C8.34994 14.53 8.46994 14.42 8.59994 14.32C9.55994 12.96 9.39994 11.12 8.28994 9.93005V9.94005ZM12.7399 12.38C12.8099 12.45 12.8899 12.51 12.9699 12.57C14.3399 13.6 16.2299 13.46 17.4399 12.32C17.3499 12.23 17.2499 12.15 17.1499 12.07C15.9099 11.14 14.2499 11.16 13.0499 12.01C12.9499 12.13 12.8499 12.26 12.7399 12.37V12.38ZM11.6699 6.56005C11.5799 6.65005 11.4999 6.75005 11.4199 6.85005C10.8599 7.60005 10.6299 8.51005 10.7599 9.43005C10.8599 10.12 11.1599 10.75 11.6099 11.26C11.7299 11.15 11.8499 11.04 11.9699 10.95C12.9299 9.59005 12.7799 7.74005 11.6699 6.56005ZM16.1199 8.99005C16.1899 9.06005 16.2699 9.12005 16.3499 9.18005C17.7199 10.21 19.6099 10.07 20.8199 8.93005C20.7299 8.84005 20.6299 8.76005 20.5299 8.68005C19.2899 7.75005 17.6299 7.77005 16.4299 8.62005C16.3299 8.74005 16.2299 8.87005 16.1199 8.98005V8.99005ZM15.0599 3.17005C14.9699 3.26005 14.8899 3.36005 14.8099 3.46005C13.7999 4.81005 13.9199 6.66005 14.9999 7.87005C15.1199 7.76005 15.2399 7.65005 15.3599 7.56005C16.3199 6.20005 16.1699 4.35005 15.0499 3.17005H15.0599ZM21.2499 2.75005C21.1199 2.75005 20.9899 2.77005 20.8699 2.78005C19.1699 3.02005 17.9299 4.46005 17.8799 6.12005C17.9999 6.12005 18.1299 6.10005 18.2599 6.09005C19.9599 5.85005 21.1999 4.41005 21.2499 2.75005Z" fill="white"/> </g> <defs> <clipPath id="clip0_2085_381551"> <rect width="24" height="24" fill="white"/> </clipPath> </defs> </svg>
