<svg width="24" height="24" viewBox="0 0 24 24" fill="none" xmlns="http://www.w3.org/2000/svg"> <g clip-path="url(#clip0_4482_9165)"> <path d="M7.27012 21.6901C5.12012 21.6901 3.37012 19.9401 3.37012 17.7901C3.37012 15.6401 5.12012 13.8801 7.27012 13.8801C9.42012 13.8801 11.1801 15.6301 11.1801 17.7901C11.1801 19.9501 9.43012 21.6901 7.27012 21.6901ZM7.27012 15.3801C5.94012 15.3801 4.87012 16.4601 4.87012 17.7901C4.87012 19.1201 5.95012 20.1901 7.27012 20.1901C8.59012 20.1901 9.68012 19.1101 9.68012 17.7901C9.68012 16.4701 8.60012 15.3801 7.27012 15.3801Z" fill="white"/> <path d="M15.6804 10.1201C15.2704 10.1201 14.9304 9.78006 14.9304 9.37006V8.57006C14.9304 7.41006 14.2804 6.36006 13.2404 5.84006C13.1704 5.80006 13.1004 5.76006 13.0504 5.70006L12.0604 4.71006C10.9104 3.56006 8.89035 3.55006 7.73035 4.71006L6.74035 5.70006C6.68035 5.76006 6.62035 5.80006 6.55035 5.84006C5.51035 6.36006 4.86035 7.41006 4.86035 8.57006V9.37006C4.86035 9.78006 4.52035 10.1201 4.11035 10.1201C3.70035 10.1201 3.36035 9.78006 3.36035 9.37006V8.57006C3.36035 6.88006 4.28035 5.35006 5.76035 4.55006L6.67035 3.64006C7.53035 2.78006 8.68035 2.31006 9.89035 2.31006C11.1004 2.31006 12.2504 2.78006 13.1104 3.64006L14.0204 4.55006C15.5104 5.34006 16.4304 6.87006 16.4304 8.57006V9.37006C16.4304 9.78006 16.0904 10.1201 15.6804 10.1201Z" fill="white"/> <path d="M17.3496 20.64C16.7496 20.64 16.1896 20.41 15.7696 19.98L13.5896 17.8C13.2996 17.51 13.2996 17.03 13.5896 16.74C13.8796 16.45 14.3596 16.45 14.6496 16.74L16.8296 18.92C17.1096 19.2 17.5896 19.2 17.8696 18.92C18.0096 18.78 18.0896 18.59 18.0896 18.4V8.39001C18.0896 7.43001 18.5696 6.55001 19.3596 6.02001L21.5796 4.54001C21.9196 4.31001 22.3896 4.40001 22.6196 4.75001C22.8496 5.09001 22.7596 5.56001 22.4096 5.79001L20.1896 7.27001C19.8096 7.52001 19.5896 7.94001 19.5896 8.40001V18.41C19.5896 19.01 19.3596 19.57 18.9296 19.99C18.5096 20.41 17.9496 20.64 17.3496 20.64Z" fill="white"/> <path d="M12.76 18.5301H10.42C10.01 18.5301 9.67 18.1901 9.67 17.7801C9.67 17.3701 10.01 17.0301 10.42 17.0301H12.76C13.12 17.0301 13.47 16.8801 13.72 16.6301L17.65 12.6601C17.93 12.3801 18.08 12.0101 18.08 11.6101C18.08 11.2101 17.92 10.8301 17.64 10.5501C17.36 10.2701 16.98 10.1101 16.58 10.1101H3.55C3.11 10.1101 2.76 10.4701 2.76 10.9001C2.76 11.0901 2.83 11.2701 2.94 11.4101L5.83 14.8801C6.1 15.2001 6.05 15.6701 5.73 15.9401C5.41 16.2101 4.94 16.1601 4.67 15.8401L1.78 12.3701C1.44 11.9601 1.25 11.4401 1.25 10.9001C1.25 9.63011 2.28 8.61011 3.54 8.61011H16.58C17.38 8.61011 18.13 8.92011 18.7 9.49011C19.26 10.0501 19.58 10.8201 19.58 11.6101C19.58 12.4001 19.27 13.1501 18.71 13.7201L14.78 17.6901C14.25 18.2301 13.51 18.5401 12.75 18.5401L12.76 18.5301Z" fill="white"/> </g> <defs> <clipPath id="clip0_4482_9165"> <rect width="24" height="24" fill="white"/> </clipPath> </defs> </svg>
