<svg width="24" height="24" viewBox="0 0 24 24" fill="none" xmlns="http://www.w3.org/2000/svg"> <g clip-path="url(#clip0_2085_381924)"> <path d="M19.19 13.5709C18.98 13.5709 18.7799 13.4809 18.6399 13.3209C16.91 11.4209 14.55 10.3709 12.01 10.3709C9.46995 10.3709 7.07995 11.4409 5.37995 13.3209C5.23995 13.4809 5.03995 13.5609 4.80995 13.5709C4.59995 13.5709 4.38995 13.4709 4.24995 13.3109L1.95995 10.6509C1.41995 10.0309 1.17995 9.23094 1.26995 8.42094C1.35995 7.60094 1.79995 6.85094 2.46995 6.36094C8.16995 2.16094 15.84 2.16094 21.54 6.36094C22.21 6.85094 22.6399 7.60094 22.74 8.42094C22.83 9.24094 22.59 10.0309 22.0499 10.6509L19.76 13.3109C19.62 13.4709 19.42 13.5709 19.2 13.5709H19.19ZM12 4.76094C8.94995 4.76094 5.89995 5.70094 3.34995 7.57094C3.00995 7.82094 2.79995 8.18094 2.75995 8.59094C2.70995 8.99094 2.82995 9.37094 3.08995 9.68094L4.83995 11.7209C6.77995 9.91094 9.33995 8.88094 11.99 8.88094C14.6399 8.88094 17.1899 9.88094 19.1399 11.7209L20.8899 9.68094C21.15 9.38094 21.2699 8.99094 21.2199 8.59094C21.17 8.18094 20.9599 7.82094 20.6299 7.57094C18.08 5.69094 15.03 4.76094 11.9799 4.76094H12Z" fill="white"/> <path d="M15.2902 18.1006C15.2902 18.1006 15.2502 18.1006 15.2402 18.1006C15.0002 18.0806 14.7902 17.9606 14.6602 17.7606C14.0702 16.8406 13.0802 16.2906 12.0002 16.2906C10.9202 16.2906 9.93019 16.8406 9.33019 17.7606C9.20019 17.9606 8.99019 18.0806 8.75019 18.1006C8.51019 18.1206 8.29019 18.0206 8.13019 17.8406L4.24019 13.3206C3.99019 13.0306 4.00019 12.6106 4.25019 12.3306C6.24019 10.1506 9.06019 8.89062 11.9902 8.89062C14.9202 8.89062 17.7202 10.1106 19.7302 12.3306C19.9802 12.6106 19.9902 13.0406 19.7402 13.3206L15.8402 17.8506C15.7002 18.0206 15.4902 18.1106 15.2702 18.1106L15.2902 18.1006ZM12.0002 14.7806C13.2602 14.7806 14.4402 15.2906 15.3102 16.1806L18.1702 12.8506C16.4902 11.2506 14.3302 10.3806 12.0002 10.3806C9.67019 10.3806 7.49019 11.2706 5.83019 12.8506L8.69019 16.1706C9.57019 15.2906 10.7502 14.7806 12.0102 14.7806H12.0002Z" fill="white"/> <path d="M11.9997 20.771C11.1497 20.771 10.3397 20.401 9.77971 19.761L8.12971 17.851C8.00971 17.711 7.94971 17.541 7.94971 17.361C7.94971 17.211 7.98971 17.061 8.06971 16.941C8.94971 15.601 10.4197 14.791 11.9997 14.791C13.5797 14.791 15.0497 15.601 15.9197 16.961C16.0997 17.241 16.0697 17.601 15.8597 17.851L14.2197 19.761C13.6597 20.411 12.8597 20.781 11.9997 20.781V20.771ZM9.65971 17.321L10.9097 18.771C11.1797 19.091 11.5797 19.271 11.9897 19.271C12.4097 19.271 12.7997 19.091 13.0697 18.771L14.3197 17.321C13.7197 16.661 12.8897 16.281 11.9897 16.281C11.0897 16.281 10.2597 16.661 9.64971 17.321H9.65971Z" fill="white"/> </g> <defs> <clipPath id="clip0_2085_381924"> <rect width="24" height="24" fill="white"/> </clipPath> </defs> </svg>
