<svg width="24" height="24" viewBox="0 0 24 24" fill="none" xmlns="http://www.w3.org/2000/svg"> <g clip-path="url(#clip0_4482_9726)"> <path d="M20.89 22.7499H3.11C2.08 22.7499 1.25 21.9199 1.25 20.8899V19.7799C1.25 18.7499 2.08 17.9199 3.11 17.9199H20.89C21.92 17.9199 22.75 18.7499 22.75 19.7799V20.8899C22.75 21.9199 21.92 22.7499 20.89 22.7499ZM3.11 19.4199C2.91 19.4199 2.75 19.5799 2.75 19.7799V20.8899C2.75 21.0899 2.91 21.2499 3.11 21.2499H20.89C21.09 21.2499 21.25 21.0899 21.25 20.8899V19.7799C21.25 19.5799 21.09 19.4199 20.89 19.4199H3.11Z" fill="white"/> <path d="M19.7797 19.4C19.3697 19.4 19.0297 19.06 19.0297 18.65V9.78C19.0297 5.9 15.8797 2.75 11.9997 2.75C8.11973 2.75 4.96973 5.9 4.96973 9.78V18.65C4.96973 19.06 4.62973 19.4 4.21973 19.4C3.80973 19.4 3.46973 19.06 3.46973 18.65V9.78C3.46973 5.08 7.29973 1.25 11.9997 1.25C16.6997 1.25 20.5297 5.08 20.5297 9.78V18.65C20.5297 19.06 20.1897 19.4 19.7797 19.4Z" fill="white"/> <path d="M12 19.4201C11.59 19.4201 11.25 19.0801 11.25 18.6701V3.11011C11.25 2.70011 11.59 2.36011 12 2.36011C12.41 2.36011 12.75 2.70011 12.75 3.11011V18.6701C12.75 19.0801 12.41 19.4201 12 19.4201Z" fill="white"/> <path d="M19.7797 11.6399H4.21973C3.80973 11.6399 3.46973 11.2999 3.46973 10.8899C3.46973 10.4799 3.80973 10.1399 4.21973 10.1399H19.7797C20.1897 10.1399 20.5297 10.4799 20.5297 10.8899C20.5297 11.2999 20.1897 11.6399 19.7797 11.6399Z" fill="white"/> </g> <defs> <clipPath id="clip0_4482_9726"> <rect width="24" height="24" fill="white"/> </clipPath> </defs> </svg>
