<svg width="24" height="24" viewBox="0 0 24 24" fill="none" xmlns="http://www.w3.org/2000/svg"> <g clip-path="url(#clip0_4482_11865)"> <path d="M19.7902 22.1899C19.6202 22.1899 19.4602 22.1799 19.2902 22.1499L3.73023 19.5599C2.29023 19.3199 1.24023 18.0899 1.24023 16.6299V7.36986C1.24023 5.90986 2.29023 4.67986 3.73023 4.43986L19.2902 1.84986C20.1502 1.69986 21.0302 1.93986 21.7002 2.50986C22.3702 3.07986 22.7602 3.89986 22.7602 4.77986V19.2199C22.7602 20.0999 22.3802 20.9199 21.7102 21.4899C21.1702 21.9499 20.4902 22.1899 19.8002 22.1899H19.7902ZM19.7902 3.30986C19.7102 3.30986 19.6302 3.30986 19.5502 3.32986L3.98023 5.91986C3.27023 6.03986 2.75023 6.64986 2.75023 7.36986V16.6299C2.75023 17.3399 3.28023 17.9599 3.98023 18.0799L19.5402 20.6699C19.9702 20.7399 20.4002 20.6199 20.7302 20.3399C21.0602 20.0599 21.2502 19.6499 21.2502 19.2199V4.77986C21.2502 4.34986 21.0602 3.93986 20.7302 3.65986C20.4602 3.42986 20.1302 3.30986 19.7802 3.30986H19.7902Z" fill="white"/> <path d="M10.3301 20.6501C9.92008 20.6501 9.58008 20.3101 9.58008 19.9001V4.1001C9.58008 3.6901 9.92008 3.3501 10.3301 3.3501C10.7401 3.3501 11.0801 3.6901 11.0801 4.1001V19.9001C11.0801 20.3101 10.7401 20.6501 10.3301 20.6501Z" fill="white"/> <path d="M22 12.5898H2C1.59 12.5898 1.25 12.2498 1.25 11.8398C1.25 11.4298 1.59 11.0898 2 11.0898H22C22.41 11.0898 22.75 11.4298 22.75 11.8398C22.75 12.2498 22.41 12.5898 22 12.5898Z" fill="white"/> </g> <defs> <clipPath id="clip0_4482_11865"> <rect width="24" height="24" fill="white"/> </clipPath> </defs> </svg>
