<svg width="24" height="24" viewBox="0 0 24 24" fill="none" xmlns="http://www.w3.org/2000/svg"> <g clip-path="url(#clip0_4482_7832)"> <path d="M17.6403 22.68C16.4803 22.68 15.3803 22.23 14.5603 21.4C13.7403 20.57 13.2803 19.48 13.2803 18.32C13.2803 17.16 13.7303 16.06 14.5603 15.24C15.3803 14.42 16.4803 13.96 17.6403 13.96C18.8003 13.96 19.9003 14.41 20.7203 15.24C22.4203 16.94 22.4203 19.7 20.7203 21.4C19.9003 22.22 18.8003 22.68 17.6403 22.68ZM17.6403 15.46C16.8803 15.46 16.1603 15.76 15.6203 16.3C15.0803 16.84 14.7803 17.56 14.7803 18.32C14.7803 19.08 15.0803 19.8 15.6203 20.34C16.7003 21.42 18.5803 21.42 19.6603 20.34C20.7703 19.23 20.7703 17.41 19.6603 16.3C19.1203 15.76 18.4003 15.46 17.6403 15.46Z" fill="white"/> <path d="M5.61035 15.46C5.20035 15.46 4.86035 15.12 4.86035 14.71V9.89001C4.86035 9.48001 5.20035 9.14001 5.61035 9.14001C6.02035 9.14001 6.36035 9.48001 6.36035 9.89001V14.71C6.36035 15.12 6.02035 15.46 5.61035 15.46Z" fill="white"/> <path d="M7.21 22.68H4.01C2.49 22.68 1.25 21.44 1.25 19.92V16.72C1.25 15.2 2.49 13.96 4.01 13.96H7.21C8.73 13.96 9.97 15.2 9.97 16.72V19.92C9.97 21.44 8.73 22.68 7.21 22.68ZM4.01 15.46C3.32 15.46 2.75 16.02 2.75 16.72V19.92C2.75 20.61 3.31 21.18 4.01 21.18H7.21C7.9 21.18 8.47 20.62 8.47 19.92V16.72C8.47 16.03 7.91 15.46 7.21 15.46H4.01Z" fill="white"/> <path d="M17.6501 11.29C16.9401 11.29 16.2401 11.02 15.7001 10.48L13.4301 8.21002C12.9101 7.69002 12.6201 7.00002 12.6201 6.26002C12.6201 5.52002 12.9101 4.83002 13.4301 4.31002L15.7001 2.04002C16.7701 0.970019 18.5201 0.960019 19.6001 2.04002L21.8701 4.31002C22.9401 5.38002 22.9401 7.13002 21.8701 8.21002L19.6001 10.48C19.0601 11.02 18.3601 11.29 17.6501 11.29ZM17.6501 2.75002C17.3301 2.75002 17.0101 2.87002 16.7601 3.12002L14.4901 5.39002C14.2501 5.63002 14.1201 5.94002 14.1201 6.28002C14.1201 6.62002 14.2501 6.93002 14.4901 7.17002L16.7601 9.44002C17.2501 9.93002 18.0501 9.93002 18.5401 9.44002L20.8101 7.17002C21.3001 6.68002 21.3001 5.88002 20.8101 5.39002L18.5401 3.12002C18.2901 2.88002 17.9701 2.75002 17.6501 2.75002Z" fill="white"/> <path d="M17.6396 15.46C17.2296 15.46 16.8896 15.12 16.8896 14.71V10.52C16.8896 10.11 17.2296 9.77002 17.6396 9.77002C18.0496 9.77002 18.3896 10.11 18.3896 10.52V14.71C18.3896 15.12 18.0496 15.46 17.6396 15.46Z" fill="white"/> <path d="M5.61 10.6501C4.45 10.6501 3.35 10.2001 2.53 9.37005C1.71 8.54005 1.25 7.45005 1.25 6.29005C1.25 5.13005 1.7 4.03005 2.53 3.21005C3.36 2.39005 4.45 1.93005 5.61 1.93005C6.77 1.93005 7.87 2.38005 8.69 3.21005C9.51 4.03005 9.97 5.13005 9.97 6.29005C9.97 7.45005 9.52 8.55005 8.69 9.37005C7.86 10.1901 6.77 10.6501 5.61 10.6501ZM5.61 3.43005C4.85 3.43005 4.13 3.73005 3.59 4.27005C3.05 4.81005 2.75 5.53005 2.75 6.29005C2.75 7.05005 3.05 7.77005 3.59 8.31005C4.67 9.39005 6.55 9.39005 7.63 8.31005C8.17 7.77005 8.47 7.05005 8.47 6.29005C8.47 5.53005 8.17 4.81005 7.63 4.27005C7.09 3.73005 6.37 3.43005 5.61 3.43005Z" fill="white"/> <path d="M13.3297 7.03003H9.21973C8.80973 7.03003 8.46973 6.69003 8.46973 6.28003C8.46973 5.87003 8.80973 5.53003 9.21973 5.53003H13.3297C13.7397 5.53003 14.0797 5.87003 14.0797 6.28003C14.0797 6.69003 13.7397 7.03003 13.3297 7.03003Z" fill="white"/> </g> <defs> <clipPath id="clip0_4482_7832"> <rect width="24" height="24" fill="white"/> </clipPath> </defs> </svg>
