<svg width="24" height="24" viewBox="0 0 24 24" fill="none" xmlns="http://www.w3.org/2000/svg"> <g clip-path="url(#clip0_2085_390871)"> <path d="M2.00008 22.8601C1.78008 22.8601 1.56008 22.7801 1.39008 22.6101C1.06008 22.2801 1.06008 21.7301 1.39008 21.4001L21.3901 1.39008C21.7201 1.06008 22.2701 1.06008 22.6001 1.39008C22.9301 1.72008 22.9301 2.27008 22.6001 2.60008L2.61008 22.6101C2.44008 22.7801 2.22008 22.8601 2.00008 22.8601Z" fill="white"/> <path d="M22 9.01063C21.53 9.01063 21.14 8.63062 21.14 8.15062V2.86062H15.84C15.37 2.86062 14.98 2.48063 14.98 2.00063C14.98 1.52063 15.36 1.14062 15.84 1.14062H21.99C22.46 1.14062 22.85 1.52063 22.85 2.00063V8.15062C22.85 8.62062 22.47 9.01063 21.99 9.01063H22Z" fill="white"/> <path d="M22.0002 22.8599C21.7802 22.8599 21.5602 22.7799 21.3902 22.6099L14.4702 15.6899C14.1402 15.3599 14.1402 14.8099 14.4702 14.4799C14.8002 14.1499 15.3502 14.1499 15.6802 14.4799L22.6002 21.3999C22.9302 21.7299 22.9302 22.2799 22.6002 22.6099C22.4302 22.7799 22.2102 22.8599 21.9902 22.8599H22.0002Z" fill="white"/> <path d="M22.0002 22.8605H15.8502C15.3802 22.8605 14.9902 22.4805 14.9902 22.0005C14.9902 21.5205 15.3702 21.1405 15.8502 21.1405H21.1502V15.8405C21.1502 15.3705 21.5302 14.9805 22.0102 14.9805C22.4902 14.9805 22.8702 15.3605 22.8702 15.8405V21.9905C22.8702 22.4605 22.4902 22.8505 22.0102 22.8505L22.0002 22.8605Z" fill="white"/> <path d="M8.92008 9.77984C8.70008 9.77984 8.48008 9.69984 8.31008 9.52984L1.39008 2.60984C1.06008 2.27984 1.06008 1.72984 1.39008 1.39984C1.72008 1.06984 2.27008 1.06984 2.60008 1.39984L9.52008 8.31984C9.85008 8.64984 9.85008 9.19984 9.52008 9.52984C9.35008 9.69984 9.13008 9.77984 8.91008 9.77984H8.92008Z" fill="white"/> </g> <defs> <clipPath id="clip0_2085_390871"> <rect width="24" height="24" fill="white"/> </clipPath> </defs> </svg>
