<svg width="24" height="24" viewBox="0 0 24 24" fill="none" xmlns="http://www.w3.org/2000/svg"> <g clip-path="url(#clip0_2085_390724)"> <path d="M11.9998 22.7498C10.5598 22.7498 9.37978 21.5798 9.37978 20.1298V13.6898L4.34978 5.19985C3.61978 3.95985 4.02978 2.34985 5.26978 1.61985C6.50978 0.879846 8.11978 1.29985 8.85978 2.53985L11.9998 7.84985L15.1398 2.53985C15.8798 1.29985 17.4898 0.889846 18.7298 1.61985C19.3298 1.97985 19.7598 2.54985 19.9298 3.21985C20.0998 3.89985 19.9998 4.59985 19.6498 5.19985L14.6198 13.6898V20.1298C14.6198 21.5698 13.4498 22.7498 11.9998 22.7498ZM6.59978 2.74985C6.40978 2.74985 6.20978 2.79985 6.02978 2.90985C5.49978 3.21985 5.31978 3.90985 5.63978 4.43985L10.7698 13.1098C10.8398 13.2298 10.8698 13.3598 10.8698 13.4898V20.1298C10.8698 20.7498 11.3698 21.2498 11.9898 21.2498C12.6098 21.2498 13.1098 20.7498 13.1098 20.1298V13.4898C13.1098 13.3598 13.1498 13.2198 13.2098 13.1098L18.3398 4.43985C18.4898 4.17985 18.5298 3.87985 18.4598 3.58985C18.3898 3.29985 18.1998 3.05985 17.9498 2.90985C17.4198 2.59985 16.7298 2.76985 16.4198 3.29985L12.6298 9.69985C12.3598 10.1598 11.6098 10.1598 11.3398 9.69985L7.54978 3.29985C7.33978 2.94985 6.96978 2.74985 6.58978 2.74985H6.59978Z" fill="white"/> </g> <defs> <clipPath id="clip0_2085_390724"> <rect width="24" height="24" fill="white"/> </clipPath> </defs> </svg>
