<svg width="24" height="24" viewBox="0 0 24 24" fill="none" xmlns="http://www.w3.org/2000/svg"> <g clip-path="url(#clip0_4482_12264)"> <path opacity="0.4" d="M15.2197 20.3799H20.6297" stroke="white" stroke-width="1.5" stroke-linecap="round" stroke-linejoin="round"/> <path opacity="0.4" d="M3.3291 20.3799H8.7391" stroke="white" stroke-width="1.5" stroke-linecap="round" stroke-linejoin="round"/> <path opacity="0.4" d="M11.9697 14.9902V18.7502" stroke="white" stroke-width="1.5" stroke-linecap="round" stroke-linejoin="round"/> <path d="M10.3495 18.7598H13.5895C14.4895 18.7598 15.2095 19.4898 15.2095 20.3798C15.2095 21.2798 14.4795 21.9998 13.5895 21.9998H10.3495C9.44949 21.9998 8.72949 21.2698 8.72949 20.3798C8.72949 19.4798 9.45949 18.7598 10.3495 18.7598Z" stroke="white" stroke-width="1.5" stroke-linecap="round" stroke-linejoin="round"/> <path d="M6.58957 14.9699C4.49957 14.9699 2.80957 13.2799 2.80957 11.1899C2.80957 9.09991 4.49957 7.40991 6.58957 7.40991H6.85957V7.26991C6.85957 4.53991 8.94957 2.24991 11.6696 2.01991C14.3896 1.78991 16.8396 3.67991 17.3096 6.36991C19.5996 6.59991 21.2996 8.58991 21.1796 10.8899C21.0596 13.1899 19.1596 14.9799 16.8596 14.9799H6.58957V14.9699Z" stroke="white" stroke-width="1.5" stroke-linecap="round" stroke-linejoin="round"/> <g opacity="0.4"> <path d="M12 7.9502V11.1902" stroke="white" stroke-width="1.5" stroke-linecap="round" stroke-linejoin="round"/> <path d="M10.3799 9.57031H13.6199" stroke="white" stroke-width="1.5" stroke-linecap="round" stroke-linejoin="round"/> </g> </g> <defs> <clipPath id="clip0_4482_12264"> <rect width="24" height="24" fill="white"/> </clipPath> </defs> </svg>
