<svg width="24" height="24" viewBox="0 0 24 24" fill="none" xmlns="http://www.w3.org/2000/svg"> <g clip-path="url(#clip0_3111_18589)"> <path d="M21.67 19.54L20.78 19.75C20.14 19.9 19.64 20.4 19.49 21.04L19.28 21.93C19.26 22.03 19.12 22.03 19.1 21.93L18.89 21.04C18.74 20.4 18.24 19.9 17.6 19.75L16.71 19.54C16.61 19.52 16.61 19.38 16.71 19.36L17.6 19.15C18.24 19 18.74 18.5 18.89 17.86L19.1 16.97C19.12 16.87 19.26 16.87 19.28 16.97L19.49 17.86C19.64 18.5 20.14 19 20.78 19.15L21.67 19.36C21.77 19.38 21.77 19.52 21.67 19.54Z" stroke="white" stroke-width="1.5" stroke-miterlimit="10"/> <path d="M13.58 21.41H8.66002C4.09002 21.41 2.27002 19.58 2.27002 15.02V14.89C2.27002 10.78 3.75002 8.89 7.37002 8.56" stroke="white" stroke-width="1.5" stroke-linecap="round" stroke-linejoin="round"/> <path d="M16.52 8.54004C20.2 8.86004 21.7 10.75 21.7 14.88V15.01" stroke="white" stroke-width="1.5" stroke-linecap="round" stroke-linejoin="round"/> <path opacity="0.4" d="M11.5165 1.41782C11.811 1.17756 12.2457 1.19515 12.5204 1.46958L15.9403 4.8895L15.992 4.94614C16.2324 5.2407 16.2149 5.6754 15.9403 5.95005C15.6656 6.22465 15.2309 6.24222 14.9364 6.0018L14.8797 5.95005L12.7401 3.8104V14.7704C12.7399 15.1844 12.4041 15.5203 11.9901 15.5204C11.576 15.5204 11.2403 15.1844 11.2401 14.7704V3.8104L9.10044 5.95005C8.80754 6.24294 8.33278 6.24294 8.03989 5.95005C7.74718 5.65714 7.74706 5.18233 8.03989 4.8895L11.4598 1.46958L11.5165 1.41782Z" fill="white"/> </g> <defs> <clipPath id="clip0_3111_18589"> <rect width="24" height="24" fill="white"/> </clipPath> </defs> </svg>
