<svg width="24" height="24" viewBox="0 0 24 24" fill="none" xmlns="http://www.w3.org/2000/svg"> <g clip-path="url(#clip0_3111_17204)"> <path d="M21.3801 16.54L19.7001 16.93C18.5001 17.21 17.5701 18.14 17.2901 19.34L16.9001 21.02C16.8601 21.2 16.6001 21.2 16.5601 21.02L16.1701 19.34C15.8901 18.14 14.9601 17.21 13.7601 16.93L12.0801 16.54C11.9001 16.5 11.9001 16.24 12.0801 16.2L13.7601 15.81C14.9601 15.53 15.8901 14.6 16.1701 13.4L16.5601 11.72C16.6001 11.54 16.8601 11.54 16.9001 11.72L17.2901 13.4C17.5701 14.6 18.5001 15.53 19.7001 15.81L21.3801 16.2C21.5601 16.24 21.5601 16.5 21.3801 16.54Z" stroke="white" stroke-width="1.5" stroke-miterlimit="10"/> <path opacity="0.4" d="M17.5599 4.22H6.43994" stroke="white" stroke-width="1.5" stroke-linecap="round" stroke-linejoin="round"/> <path d="M6.44 4.22C6.44 5.45 5.45 6.44 4.22 6.44C2.99 6.44 2 5.45 2 4.22C2 2.99 2.99 2 4.22 2C5.45 2 6.44 2.99 6.44 4.22Z" stroke="white" stroke-width="1.5" stroke-linecap="round" stroke-linejoin="round"/> <path opacity="0.4" d="M4.21997 6.44V17.55" stroke="white" stroke-width="1.5" stroke-linecap="round" stroke-linejoin="round"/> <path opacity="0.4" d="M19.78 9.78V6.45" stroke="white" stroke-width="1.5" stroke-linecap="round" stroke-linejoin="round"/> <path d="M17.5601 4.22C17.5601 2.99 18.5501 2 19.7801 2C21.0101 2 22.0001 2.99 22.0001 4.22C22.0001 5.45 21.0101 6.44 19.7801 6.44C18.5501 6.44 17.5601 5.45 17.5601 4.22Z" stroke="white" stroke-width="1.5" stroke-linecap="round" stroke-linejoin="round"/> <path opacity="0.4" d="M9.77995 19.78H6.44995" stroke="white" stroke-width="1.5" stroke-linecap="round" stroke-linejoin="round"/> <path d="M4.22 22C2.99 22 2 21.01 2 19.78C2 18.55 2.99 17.56 4.22 17.56C5.45 17.56 6.44 18.55 6.44 19.78C6.44 21.01 5.45 22 4.22 22Z" stroke="white" stroke-width="1.5" stroke-linecap="round" stroke-linejoin="round"/> </g> <defs> <clipPath id="clip0_3111_17204"> <rect width="24" height="24" fill="white"/> </clipPath> </defs> </svg>
