<svg width="24" height="24" viewBox="0 0 24 24" fill="none" xmlns="http://www.w3.org/2000/svg"> <g clip-path="url(#clip0_3111_17189)"> <path opacity="0.4" d="M20.4799 17.02L19.4299 17.26C18.6799 17.44 18.0999 18.02 17.9199 18.77L17.6799 19.82C17.6499 19.93 17.4899 19.93 17.4699 19.82L17.2299 18.77C17.0499 18.02 16.4699 17.44 15.7199 17.26L14.6699 17.02C14.5599 16.99 14.5599 16.83 14.6699 16.81L15.7199 16.57C16.4699 16.39 17.0499 15.81 17.2299 15.06L17.4699 14.01C17.4999 13.9 17.6599 13.9 17.6799 14.01L17.9199 15.06C18.0999 15.81 18.6799 16.39 19.4299 16.57L20.4799 16.81C20.5899 16.84 20.5899 17 20.4799 17.02Z" stroke="white" stroke-width="1.5" stroke-miterlimit="10"/> <path d="M14.8499 21.17C13.9699 21.54 13.0099 21.75 11.9999 21.75C7.95993 21.75 4.67993 18.47 4.67993 14.44C4.67993 12.4 5.52993 10.51 6.87993 9.15C7.39993 10.46 8.66993 11.39 10.1599 11.39C10.1599 11.39 9.84993 7.08 11.8499 4.12C12.3399 3.39 12.9999 2.73 13.8199 2.25C13.8199 6.31 17.3899 7.89 18.7699 11.46" stroke="white" stroke-width="1.5" stroke-linecap="round" stroke-linejoin="round"/> </g> <defs> <clipPath id="clip0_3111_17189"> <rect width="24" height="24" fill="white"/> </clipPath> </defs> </svg>
