<svg width="24" height="24" viewBox="0 0 24 24" fill="none" xmlns="http://www.w3.org/2000/svg"> <g clip-path="url(#clip0_3111_18633)"> <path d="M21.5 10V12.75C21.5 16.13 20.65 16.97 17.28 16.97H6.72C3.35 16.97 2.5 16.12 2.5 12.75V6.72C2.5 3.35 3.35 2.5 6.72 2.5H12.78" stroke="white" stroke-width="1.5" stroke-linecap="round" stroke-linejoin="round"/> <path d="M12 16.96V21.5" stroke="white" stroke-width="1.5" stroke-linecap="round" stroke-linejoin="round"/> <path d="M7.71997 21.5H16.27" stroke="white" stroke-width="1.5" stroke-linecap="round" stroke-linejoin="round"/> <path opacity="0.4" d="M21.48 5.12L20.4 5.37C19.63 5.55 19.03 6.15 18.85 6.92L18.6 8C18.57 8.11 18.41 8.11 18.38 8L18.13 6.92C17.95 6.15 17.35 5.55 16.58 5.37L15.5 5.12C15.39 5.09 15.39 4.93 15.5 4.9L16.58 4.65C17.35 4.47 17.95 3.87 18.13 3.1L18.38 2.02C18.41 1.91 18.57 1.91 18.6 2.02L18.85 3.1C19.03 3.87 19.63 4.47 20.4 4.65L21.48 4.9C21.59 4.93 21.59 5.09 21.48 5.12Z" stroke="white" stroke-width="1.5" stroke-miterlimit="10"/> </g> <defs> <clipPath id="clip0_3111_18633"> <rect width="24" height="24" fill="white"/> </clipPath> </defs> </svg>
