<svg width="24" height="24" viewBox="0 0 24 24" fill="none" xmlns="http://www.w3.org/2000/svg"> <g clip-path="url(#clip0_3111_18363)"> <path d="M20.25 18.23L19.33 18.44C18.67 18.59 18.16 19.11 18.01 19.76L17.8 20.68C17.78 20.78 17.64 20.78 17.61 20.68L17.4 19.76C17.25 19.1 16.73 18.59 16.08 18.44L15.16 18.23C15.06 18.21 15.06 18.07 15.16 18.04L16.08 17.83C16.74 17.68 17.25 17.16 17.4 16.51L17.61 15.59C17.63 15.49 17.77 15.49 17.8 15.59L18.01 16.51C18.16 17.17 18.68 17.68 19.33 17.83L20.25 18.04C20.35 18.06 20.35 18.2 20.25 18.23Z" stroke="white" stroke-width="1.5" stroke-miterlimit="10"/> <path opacity="0.4" d="M13.97 20.63L13.51 20.36C12.58 19.82 11.43 19.82 10.5 20.36L10.04 20.63C9.11004 21.17 7.96004 21.17 7.03004 20.63C6.10004 20.09 5.52004 19.1 5.52004 18.02V17.49C5.52004 16.41 4.94004 15.42 4.01004 14.88L3.55004 14.61C2.62004 14.07 2.04004 13.08 2.04004 12C2.04004 10.92 2.61004 9.93003 3.55004 9.39003L4.01004 9.12003C4.94004 8.58003 5.52004 7.59003 5.52004 6.51003V5.98003C5.52004 4.90003 6.09004 3.91003 7.03004 3.37003C7.96004 2.83003 9.11004 2.83003 10.04 3.37003L10.5 3.64003C11.43 4.18003 12.58 4.18003 13.51 3.64003L13.97 3.37003C14.9 2.83003 16.05 2.83003 16.98 3.37003C17.91 3.91003 18.49 4.90003 18.49 5.98003V6.51003C18.49 7.59003 19.06 8.58003 20 9.12003L20.46 9.39003C21.39 9.93003 21.97 10.92 21.97 12C21.97 13.08 21.4 14.07 20.46 14.61" stroke="white" stroke-width="1.5" stroke-linecap="round" stroke-linejoin="round"/> <path d="M11.8901 15.0101C13.5501 15.0101 14.9001 13.6601 14.9001 12.0001C14.9001 10.3401 13.5501 8.99005 11.8901 8.99005C10.2301 8.99005 8.88013 10.3401 8.88013 12.0001C8.88013 13.6601 10.2301 15.0101 11.8901 15.0101Z" stroke="white" stroke-width="1.5" stroke-linecap="round" stroke-linejoin="round"/> </g> <defs> <clipPath id="clip0_3111_18363"> <rect width="24" height="24" fill="white"/> </clipPath> </defs> </svg>
