<svg width="24" height="24" viewBox="0 0 24 24" fill="none" xmlns="http://www.w3.org/2000/svg"> <g clip-path="url(#clip0_2085_389651)"> <path d="M13 2.05C12.67 2.02 12.34 2 12 2C7.20998 2 3.20998 5.36 2.22998 9.86" stroke="white" stroke-width="1.5" stroke-linecap="round" stroke-linejoin="round"/> <path d="M13 2.0498C18.05 2.5498 22 6.8198 22 11.9998C22 12.1898 22 12.3898 21.98 12.5798" stroke="white" stroke-width="1.5" stroke-linecap="round" stroke-linejoin="round"/> <path opacity="0.4" d="M13 2.0498C16.19 6.4498 15.42 12.4998 21.98 12.5798" stroke="white" stroke-width="1.5" stroke-linecap="round" stroke-linejoin="round"/> <path d="M21.9801 12.5801C21.7201 17.1301 18.4201 20.8701 14.0701 21.7901" stroke="white" stroke-width="1.5" stroke-linecap="round" stroke-linejoin="round"/> <path d="M14.08 21.7799C13.41 21.9199 12.71 21.9999 12 21.9999C6.48 21.9999 2 17.5199 2 11.9999C2 11.2699 2.08 10.5499 2.23 9.85986" stroke="white" stroke-width="1.5" stroke-linecap="round" stroke-linejoin="round"/> <path opacity="0.4" d="M14.08 21.7799C14.06 12.8099 6.63998 14.4499 2.22998 9.85986" stroke="white" stroke-width="1.5" stroke-linecap="round" stroke-linejoin="round"/> </g> <defs> <clipPath id="clip0_2085_389651"> <rect width="24" height="24" fill="white"/> </clipPath> </defs> </svg>
