<svg width="24" height="24" viewBox="0 0 24 24" fill="none" xmlns="http://www.w3.org/2000/svg"> <g clip-path="url(#clip0_4482_6040)"> <path d="M17.6501 6.20981V15.6498C17.6501 17.3898 16.2301 18.8098 14.4901 18.8098H9.55011C7.80011 18.8098 6.39014 17.3898 6.39014 15.6498V6.20981C6.39014 4.45981 7.80011 3.0498 9.55011 3.0498H14.4901C16.2301 3.0498 17.6501 4.45981 17.6501 6.20981Z" stroke="white" stroke-width="1.5" stroke-miterlimit="10" stroke-linecap="round"/> <path opacity="0.4" d="M21.29 14.3103L19.52 18.9203C18.9 20.5503 17.07 21.3703 15.44 20.7403L12 19.4203L10.83 18.9703C10.72 18.9303 10.61 18.8803 10.51 18.8203H14.48C16.22 18.8203 17.64 17.4003 17.64 15.6603V9.53027L19.46 10.2303C21.1 10.8503 21.92 12.6803 21.29 14.3103Z" stroke="white" stroke-width="1.5" stroke-miterlimit="10" stroke-linecap="round"/> <path opacity="0.4" d="M13.49 18.8198C13.4 18.8698 13.28 18.9298 13.17 18.9698L12 19.4198L8.56003 20.7398C6.93003 21.3598 5.10001 20.5498 4.48001 18.9198L2.71006 14.3098C2.08006 12.6798 2.90005 10.8498 4.52005 10.2198L6.38004 9.50977V15.6598C6.38004 17.3998 7.79001 18.8198 9.54001 18.8198H13.49V18.8198Z" stroke="white" stroke-width="1.5" stroke-miterlimit="10" stroke-linecap="round"/> </g> <defs> <clipPath id="clip0_4482_6040"> <rect width="24" height="24" fill="white"/> </clipPath> </defs> </svg>
