<svg width="24" height="24" viewBox="0 0 24 24" fill="none" xmlns="http://www.w3.org/2000/svg"> <g clip-path="url(#clip0_4482_1884)"> <path d="M12 22C6.5 22 2 17.5 2 12C2 6.5 6.5 2 12 2C17.5 2 22 6.5 22 12C22 17.5 17.5 22 12 22Z" stroke="white" stroke-width="1.5" stroke-linecap="round" stroke-linejoin="round"/> <g opacity="0.4"> <path d="M13.1302 6.75995C12.6202 6.80995 12.1702 7.07995 11.8802 7.50995L10.7802 9.15996C10.7502 9.20996 10.7002 9.23995 10.6402 9.25995L7.9102 9.93996C7.4902 10.05 7.1502 10.37 7.0302 10.79C6.9102 11.21 7.03014 11.66 7.34014 11.97L12.0102 16.64C12.3202 16.95 12.7701 17.07 13.1901 16.95C13.6101 16.83 13.9402 16.5 14.0402 16.07L14.7201 13.34C14.7301 13.28 14.7701 13.23 14.8201 13.2L16.4701 12.1C16.8901 11.82 17.1701 11.36 17.2201 10.85C17.2701 10.34 17.0902 9.83995 16.7302 9.47995L14.4802 7.22995C14.1402 6.88995 13.6402 6.70995 13.1302 6.75995Z" stroke="white" stroke-width="1.5"/> <path d="M7.48999 16.5101L9.66003 14.3501" stroke="white" stroke-width="1.5" stroke-linecap="round" stroke-linejoin="round"/> </g> </g> <defs> <clipPath id="clip0_4482_1884"> <rect width="24" height="24" fill="white"/> </clipPath> </defs> </svg>
