<svg width="24" height="24" viewBox="0 0 24 24" fill="none" xmlns="http://www.w3.org/2000/svg"> <g clip-path="url(#clip0_4482_12273)"> <path d="M10.6299 19.2695L13.3599 21.9995" stroke="white" stroke-width="1.5" stroke-linecap="round" stroke-linejoin="round"/> <path d="M10.6299 21.9995L13.3599 19.2695" stroke="white" stroke-width="1.5" stroke-linecap="round" stroke-linejoin="round"/> <path opacity="0.4" d="M16.3701 20.6299H20.7401" stroke="white" stroke-width="1.5" stroke-linecap="round" stroke-linejoin="round"/> <path opacity="0.4" d="M3.25977 20.6299H7.62977" stroke="white" stroke-width="1.5" stroke-linecap="round" stroke-linejoin="round"/> <path opacity="0.4" d="M12 15.1895V16.8295" stroke="white" stroke-width="1.5" stroke-linecap="round" stroke-linejoin="round"/> <path d="M7.31963 15.1697H17.4696C19.5796 15.1697 21.2896 13.4597 21.2896 11.3497C21.2896 9.23975 19.5796 7.52975 17.4696 7.52975C17.4696 4.81975 15.4996 2.51975 12.8196 2.11975C10.1396 1.71975 7.57963 3.34975 6.79963 5.93975C4.35963 6.22975 2.57963 8.36975 2.71963 10.8197C2.86963 13.2697 4.89963 15.1797 7.35963 15.1697" stroke="white" stroke-width="1.5" stroke-linecap="round" stroke-linejoin="round"/> </g> <defs> <clipPath id="clip0_4482_12273"> <rect width="24" height="24" fill="white"/> </clipPath> </defs> </svg>
