<svg width="24" height="24" viewBox="0 0 24 24" fill="none" xmlns="http://www.w3.org/2000/svg"> <g clip-path="url(#clip0_4482_5660)"> <path d="M2.62988 7.67C3.22988 6.39 4.53986 5.5 6.03986 5.5C6.35986 5.5 6.67986 5.54 6.97986 5.62C8.06986 5.9 8.97989 6.66 9.44989 7.67" stroke="white" stroke-width="1.5" stroke-miterlimit="10" stroke-linecap="round"/> <path d="M21.37 7.66992C21.62 8.15992 21.75 8.70992 21.75 9.28992C21.75 10.7999 20.86 12.1099 19.58 12.6999V18.0599C19.58 20.0899 17.92 21.7499 15.89 21.7499H8.09998C6.06998 21.7499 4.40997 20.0899 4.40997 18.0599V12.6999C3.12997 12.0999 2.23999 10.7899 2.23999 9.28992C2.23999 8.69992 2.37 8.14992 2.62 7.66992" stroke="white" stroke-width="1.5" stroke-miterlimit="10" stroke-linecap="round" stroke-linejoin="round"/> <path d="M17.02 5.62C17.32 5.54 17.64 5.5 17.96 5.5C19.47 5.5 20.78 6.39 21.37 7.67" stroke="white" stroke-width="1.5" stroke-miterlimit="10" stroke-linecap="round"/> <path d="M6.97998 5.62C7.77998 3.65 9.73 2.25 12 2.25C14.27 2.25 16.21 3.65 17.02 5.62" stroke="white" stroke-width="1.5" stroke-miterlimit="10" stroke-linecap="round"/> <path opacity="0.4" d="M4.41992 16.3301H19.58" stroke="white" stroke-width="1.5" stroke-miterlimit="10" stroke-linecap="round"/> </g> <defs> <clipPath id="clip0_4482_5660"> <rect width="24" height="24" fill="white"/> </clipPath> </defs> </svg>
