<svg width="24" height="24" viewBox="0 0 24 24" fill="none" xmlns="http://www.w3.org/2000/svg"> <g clip-path="url(#clip0_4482_15799)"> <path d="M7.56043 2H16.4504C17.0604 2 17.5604 2.5 17.5604 3.11V9.78C17.5604 12.85 15.0704 15.34 12.0004 15.34C8.93043 15.34 6.44043 12.85 6.44043 9.78V3.11C6.44043 2.5 6.94043 2 7.55043 2H7.56043Z" stroke="white" stroke-width="1.5" stroke-linecap="round" stroke-linejoin="round"/> <path opacity="0.4" d="M6.90977 12.0005H6.44977C3.99977 12.0005 2.00977 10.0105 2.00977 7.56047V5.34047C2.00977 4.73047 2.50977 4.23047 3.11977 4.23047H6.44977" stroke="white" stroke-width="1.5" stroke-linecap="round" stroke-linejoin="round"/> <path opacity="0.4" d="M17.0898 12.0005H17.5498C19.9998 12.0005 21.9898 10.0105 21.9898 7.56047V5.34047C21.9898 4.73047 21.4898 4.23047 20.8798 4.23047H17.5498" stroke="white" stroke-width="1.5" stroke-linecap="round" stroke-linejoin="round"/> <path d="M16.0698 18.6699H7.92984C7.44984 18.6699 7.02984 18.9799 6.87984 19.4299L6.50984 20.5399C6.39984 20.8799 6.44984 21.2499 6.65984 21.5399C6.86984 21.8299 7.19984 21.9999 7.55984 21.9999H16.4498C16.8098 21.9999 17.1398 21.8299 17.3498 21.5399C17.5598 21.2499 17.6198 20.8799 17.4998 20.5399L17.1298 19.4299C16.9798 18.9799 16.5498 18.6699 16.0798 18.6699H16.0698Z" stroke="white" stroke-width="1.5" stroke-linecap="round" stroke-linejoin="round"/> <path opacity="0.4" d="M12 15.3301V18.6601" stroke="white" stroke-width="1.5" stroke-linecap="round" stroke-linejoin="round"/> </g> <defs> <clipPath id="clip0_4482_15799"> <rect width="24" height="24" fill="white"/> </clipPath> </defs> </svg>
