<svg width="24" height="24" viewBox="0 0 24 24" fill="none" xmlns="http://www.w3.org/2000/svg"> <g clip-path="url(#clip0_2085_392468)"> <path opacity="0.4" d="M8.46997 18.2705H9.26997C12.72 18.2705 15.54 15.4605 15.54 12.0005C15.54 8.54047 12.73 5.73047 9.26997 5.73047H8.46997V18.2605V18.2705Z" stroke="white" stroke-width="1.5" stroke-linecap="round" stroke-linejoin="round"/> <path d="M9.26998 22H6.59998C5.56998 22 4.72998 21.16 4.72998 20.13V3.87C4.72998 2.84 5.56998 2 6.59998 2H9.26998C11.94 2 14.45 3.04 16.34 4.93C18.23 6.82 19.27 9.33 19.27 12C19.27 14.67 18.23 17.18 16.34 19.07C14.45 20.96 11.94 22 9.26998 22Z" stroke="white" stroke-width="1.5" stroke-linecap="round" stroke-linejoin="round"/> </g> <defs> <clipPath id="clip0_2085_392468"> <rect width="24" height="24" fill="white"/> </clipPath> </defs> </svg>
