<svg width="24" height="24" viewBox="0 0 24 24" fill="none" xmlns="http://www.w3.org/2000/svg"> <g clip-path="url(#clip0_2085_391902)"> <path d="M12 19.7101V18.3301" stroke="white" stroke-width="1.5" stroke-linecap="round" stroke-linejoin="round"/> <path d="M21.6201 3.13C20.9401 2.6 19.8501 2 18.4001 2C16.0001 2 14.0001 3.83 13.7801 6.21C13.7301 6.77 13.6901 7.43 13.6701 7.84C13.1301 7.73 12.5701 7.67 11.9901 7.67C11.4101 7.67 10.8501 7.73 10.3101 7.84C10.2901 7.43 10.2601 6.77 10.2001 6.21C9.98011 3.82 7.97011 2 5.58011 2C4.13011 2 3.04011 2.6 2.36011 3.13C1.86011 3.52 1.86011 4.28 2.36011 4.67C3.05011 5.2 4.15011 5.81 5.57011 5.81H6.33011C6.43011 6.7 6.49011 8.12 6.53011 9.08C6.54011 9.39 6.40011 9.67 6.17011 9.87C4.38011 11.41 3.25011 13.56 3.25011 15.68C3.25011 19.63 6.53011 21.99 9.69011 21.99C10.9501 21.99 11.9801 20.97 11.9801 19.7C11.9801 20.96 13.0001 21.99 14.2701 21.99C17.4301 21.99 20.7101 19.63 20.7101 15.68C20.7101 13.56 19.5801 11.4 17.7901 9.87C17.5601 9.67 17.4201 9.39 17.4301 9.08C17.4701 8.13 17.5301 6.7 17.6301 5.82H18.3901C19.8101 5.82 20.9101 5.21 21.6001 4.68C22.1101 4.29 22.1101 3.53 21.6001 3.14L21.6201 3.13Z" stroke="white" stroke-width="1.5" stroke-linecap="round" stroke-linejoin="round"/> <path opacity="0.4" d="M12.0002 18C11.9102 18.03 10.3602 17.31 9.91017 16.13C9.79017 15.81 9.95017 15.04 11.9602 15.04C13.9702 15.04 14.2102 15.82 14.0902 16.13C13.6402 17.31 12.0902 17.97 12.0002 18Z" stroke="white" stroke-width="1.5" stroke-miterlimit="10"/> <path opacity="0.4" d="M15.6 11.9097C15.65 12.5597 15.11 13.0997 14.46 13.0497C13.95 13.0097 13.53 12.5897 13.49 12.0797C13.44 11.4297 13.98 10.8897 14.63 10.9397C15.14 10.9797 15.56 11.3997 15.6 11.9097Z" stroke="white" stroke-width="1.5" stroke-miterlimit="10"/> <path opacity="0.4" d="M8.36015 11.9097C8.31015 12.5597 8.85015 13.0997 9.50015 13.0497C10.0101 13.0097 10.4301 12.5897 10.4701 12.0797C10.5201 11.4297 9.98015 10.8897 9.33015 10.9397C8.82015 10.9797 8.40015 11.3997 8.36015 11.9097Z" stroke="white" stroke-width="1.5" stroke-miterlimit="10"/> </g> <defs> <clipPath id="clip0_2085_391902"> <rect width="24" height="24" fill="white"/> </clipPath> </defs> </svg>
