<svg width="24" height="24" viewBox="0 0 24 24" fill="none" xmlns="http://www.w3.org/2000/svg"> <g clip-path="url(#clip0_2085_389592)"> <path d="M12 22C17.52 22 22 17.52 22 12C22 6.48 17.52 2 12 2C6.48 2 2 6.48 2 12C2 17.52 6.48 22 12 22Z" stroke="white" stroke-width="1.5" stroke-linecap="round" stroke-linejoin="round"/> <path opacity="0.4" d="M2.77002 15.8501H5.46002C6.17002 15.8501 6.86002 15.5701 7.36002 15.0601C7.86002 14.5501 8.15002 13.8701 8.15002 13.1601V10.8501C8.15002 10.1401 8.43002 9.45012 8.94002 8.95012C9.45002 8.44012 10.13 8.16012 10.84 8.16012C11.55 8.16012 12.24 7.88012 12.74 7.37012C13.24 6.86012 13.53 6.18012 13.53 5.47012V2.12012" stroke="white" stroke-width="1.5" stroke-linecap="round" stroke-linejoin="round"/> <path opacity="0.4" d="M22 11.8502C21.23 11.4502 20.38 11.2402 19.51 11.2402H16.23C15.52 11.2402 14.83 11.5202 14.33 12.0302C13.82 12.5402 13.54 13.2202 13.54 13.9302C13.54 14.6402 13.82 15.3302 14.33 15.8302C14.84 16.3402 15.52 16.6202 16.23 16.6202C16.74 16.6202 17.23 16.8202 17.59 17.1802C17.95 17.5402 18.15 18.0302 18.15 18.5402V19.8802" stroke="white" stroke-width="1.5" stroke-linecap="round" stroke-linejoin="round"/> </g> <defs> <clipPath id="clip0_2085_389592"> <rect width="24" height="24" fill="white"/> </clipPath> </defs> </svg>
