<svg width="24" height="24" viewBox="0 0 24 24" fill="none" xmlns="http://www.w3.org/2000/svg"> <g clip-path="url(#clip0_4482_2378)"> <path d="M17.5 22H6.5C4.3 22 2.5 20.2 2.5 18V13C2.5 10.8 4.3 9 6.5 9H17.5C19.7 9 21.5 10.8 21.5 13V18C21.5 20.2 19.7 22 17.5 22Z" stroke="white" stroke-width="1.5" stroke-linecap="round" stroke-linejoin="round"/> <path d="M12 6C13.1046 6 14 5.10457 14 4C14 2.89543 13.1046 2 12 2C10.8954 2 10 2.89543 10 4C10 5.10457 10.8954 6 12 6Z" stroke="white" stroke-width="1.5" stroke-linecap="round" stroke-linejoin="round"/> <path opacity="0.4" d="M7.06006 8.94016L10.5901 5.41016" stroke="white" stroke-width="1.5" stroke-linecap="round" stroke-linejoin="round"/> <path opacity="0.4" d="M17 8.93979L13.5801 5.52979" stroke="white" stroke-width="1.5" stroke-linecap="round" stroke-linejoin="round"/> <path opacity="0.4" fill-rule="evenodd" clip-rule="evenodd" d="M9.75 15.5C9.75 14.2542 10.7542 13.25 12 13.25C12.3478 13.25 12.6767 13.3282 12.9702 13.4682L9.96816 16.4702C9.82825 16.1767 9.75 15.8478 9.75 15.5ZM11.0285 17.5312C11.3223 17.6715 11.6517 17.75 12 17.75C13.2458 17.75 14.25 16.7458 14.25 15.5C14.25 15.1517 14.1715 14.8223 14.0312 14.5285L11.0285 17.5312ZM14.7525 12.9507C15.3718 13.6193 15.75 14.5147 15.75 15.5C15.75 17.5742 14.0742 19.25 12 19.25C9.92579 19.25 8.25 17.5742 8.25 15.5C8.25 13.4258 9.92579 11.75 12 11.75C12.9847 11.75 13.8796 12.1277 14.5481 12.7464C14.5876 12.773 14.6252 12.8038 14.6602 12.8388C14.6951 12.8737 14.7259 12.9112 14.7525 12.9507Z" fill="white"/> </g> <defs> <clipPath id="clip0_4482_2378"> <rect width="24" height="24" fill="white"/> </clipPath> </defs> </svg>
