<svg width="24" height="24" viewBox="0 0 24 24" fill="none" xmlns="http://www.w3.org/2000/svg"> <g clip-path="url(#clip0_2085_385203)"> <path opacity="0.4" d="M10.76 22.0799V20.1699C10.76 19.4799 11.32 18.9199 12 18.9199C12.68 18.9199 13.24 19.4799 13.24 20.1699V22.0799" stroke="white" stroke-width="1.5" stroke-linecap="round" stroke-linejoin="round"/> <path opacity="0.4" d="M5.78003 22.0799V20.1699C5.78003 19.4799 6.34003 18.9199 7.02003 18.9199C7.70003 18.9199 8.26003 19.4799 8.26003 20.1699V22.0799" stroke="white" stroke-width="1.5" stroke-linecap="round" stroke-linejoin="round"/> <path opacity="0.4" d="M15.73 22.0799V20.1699C15.73 19.4799 16.29 18.9199 16.97 18.9199C17.65 18.9199 18.21 19.4799 18.21 20.1699V22.0799" stroke="white" stroke-width="1.5" stroke-linecap="round" stroke-linejoin="round"/> <path d="M3.23999 22.0798H20.75V10.8398H3.23999V22.0798Z" stroke="white" stroke-width="1.5" stroke-linecap="round" stroke-linejoin="round"/> <path d="M22 13.3301H2" stroke="white" stroke-width="1.5" stroke-linecap="round" stroke-linejoin="round"/> <path opacity="0.4" d="M5.78003 15.8203V16.4403" stroke="white" stroke-width="1.5" stroke-linecap="round" stroke-linejoin="round"/> <path opacity="0.4" d="M10.76 15.8203V16.4403" stroke="white" stroke-width="1.5" stroke-linecap="round" stroke-linejoin="round"/> <path opacity="0.4" d="M15.73 15.8203V16.4403" stroke="white" stroke-width="1.5" stroke-linecap="round" stroke-linejoin="round"/> <path opacity="0.4" d="M18.22 15.8203V16.4403" stroke="white" stroke-width="1.5" stroke-linecap="round" stroke-linejoin="round"/> <path opacity="0.4" d="M13.24 15.8203V16.4403" stroke="white" stroke-width="1.5" stroke-linecap="round" stroke-linejoin="round"/> <path opacity="0.4" d="M8.27002 15.8203V16.4403" stroke="white" stroke-width="1.5" stroke-linecap="round" stroke-linejoin="round"/> <path d="M10.76 5.86031V4.61031C10.76 3.92031 11.32 3.32031 12 3.32031C12.68 3.32031 13.24 3.92031 13.24 4.61031V5.86031" stroke="white" stroke-width="1.5" stroke-linecap="round" stroke-linejoin="round"/> <path d="M8.88989 5.85938H15.1099" stroke="white" stroke-width="1.5" stroke-linecap="round" stroke-linejoin="round"/> <path d="M7.63989 8.34961H16.3499" stroke="white" stroke-width="1.5" stroke-linecap="round" stroke-linejoin="round"/> <path d="M10.1299 8.34938V5.85938" stroke="white" stroke-width="1.5" stroke-linecap="round" stroke-linejoin="round"/> <path d="M13.8701 5.85938V8.34938" stroke="white" stroke-width="1.5" stroke-linecap="round" stroke-linejoin="round"/> <path d="M8.88989 8.34961V10.8396" stroke="white" stroke-width="1.5" stroke-linecap="round" stroke-linejoin="round"/> <path opacity="0.4" d="M12 8.34961V10.8396" stroke="white" stroke-width="1.5" stroke-linecap="round" stroke-linejoin="round"/> <path d="M15.1101 8.34961V10.8396" stroke="white" stroke-width="1.5" stroke-linecap="round" stroke-linejoin="round"/> <path opacity="0.4" d="M12 2.08008V3.32008" stroke="white" stroke-width="1.5" stroke-linecap="round" stroke-linejoin="round"/> </g> <defs> <clipPath id="clip0_2085_385203"> <rect width="24" height="24" fill="white"/> </clipPath> </defs> </svg>
