<svg width="24" height="24" viewBox="0 0 24 24" fill="none" xmlns="http://www.w3.org/2000/svg"> <g clip-path="url(#clip0_2085_389701)"> <path opacity="0.4" d="M4.74002 9.62008L4.02002 7.71008L8.81002 5.83008" stroke="white" stroke-width="1.5" stroke-linecap="round" stroke-linejoin="round"/> <path opacity="0.4" d="M15.2099 8.66992C16.6399 12.4799 14.7299 16.2899 10.9199 21.9999H12.8199" stroke="white" stroke-width="1.5" stroke-linecap="round" stroke-linejoin="round"/> <path d="M11.8799 8.67C18.0699 8.67 19.0199 4.86 18.5499 2L12.3199 4.45" stroke="white" stroke-width="1.5" stroke-linecap="round" stroke-linejoin="round"/> <path d="M11.8799 8.66992C13.5499 11.2899 12.3599 12.9599 14.7399 13.1899C17.1199 13.4299 19.0299 18.6699 18.0699 21.9999H19.9699" stroke="white" stroke-width="1.5" stroke-linecap="round" stroke-linejoin="round"/> <path d="M11.8799 8.66969C15.2099 7.71969 15.6899 4.85969 15.6899 3.42969" stroke="white" stroke-width="1.5" stroke-linecap="round" stroke-linejoin="round"/> <path d="M12.3101 4.4502C12.3401 4.5802 12.3501 4.7202 12.3501 4.8502C12.3501 5.9002 11.5001 6.7502 10.4501 6.7502C9.75006 6.7502 9.14006 6.3802 8.81006 5.8202" stroke="white" stroke-width="1.5" stroke-linecap="round" stroke-linejoin="round"/> <path d="M12.31 4.4502C12.12 3.5902 11.36 2.9502 10.45 2.9502C9.40005 2.9502 8.55005 3.8002 8.55005 4.8502C8.55005 5.2102 8.65005 5.5402 8.82005 5.8202" stroke="white" stroke-width="1.5" stroke-linecap="round" stroke-linejoin="round"/> </g> <defs> <clipPath id="clip0_2085_389701"> <rect width="24" height="24" fill="white"/> </clipPath> </defs> </svg>
