<svg width="24" height="24" viewBox="0 0 24 24" fill="none" xmlns="http://www.w3.org/2000/svg"> <g clip-path="url(#clip0_2085_390156)"> <path d="M10.3601 10.1698V7.08984H20.4101" stroke="white" stroke-width="1.5" stroke-linecap="round" stroke-linejoin="round"/> <path d="M20.4099 10.1701H21.6099C21.8299 10.1701 22.0099 9.99008 22.0099 9.77008V7.48008C22.0099 7.26008 21.8299 7.08008 21.6099 7.08008H20.4099V10.1601V10.1701Z" stroke="white" stroke-width="1.5" stroke-linecap="round" stroke-linejoin="round"/> <path d="M4.63989 7.08984H10.3599" stroke="white" stroke-width="1.5" stroke-linecap="round" stroke-linejoin="round"/> <path d="M2 10.1698V7.08984H8" stroke="white" stroke-width="1.5" stroke-linecap="round" stroke-linejoin="round"/> <path opacity="0.4" d="M14.6899 7.08988L16.4099 4.87988H19.5199C19.9999 4.87988 20.3999 5.26988 20.3999 5.75988V7.91988" stroke="white" stroke-width="1.5" stroke-linecap="round" stroke-linejoin="round"/> <path opacity="0.4" d="M12 7.08965L10.08 4.63965H2.71C2.32 4.63965 2 4.95965 2 5.34965V7.08965" stroke="white" stroke-width="1.5" stroke-linecap="round" stroke-linejoin="round"/> <path d="M6.2 19.3597H7.12C7.54 19.3597 7.92 19.0797 8.01 18.6697C8.08 18.3497 7.97 18.0297 7.74 17.8197C7.17 17.3097 6.05 15.9497 6.77 13.7697C7.12 12.7297 8.1 12.0297 9.2 12.0297H20.01C20.23 12.0297 20.41 11.8497 20.41 11.6297V10.1797H2C2 10.1797 3.33 11.2697 3.33 12.6197C3.33 14.3097 2.06 15.6797 2.59 18.5497C2.68 19.0197 3.09 19.3697 3.57 19.3697H6.2V19.3597Z" stroke="white" stroke-width="1.5" stroke-linecap="round" stroke-linejoin="round"/> <path opacity="0.4" d="M6.54004 15.3895H9.24004C10.7 15.3895 11.88 14.2095 11.88 12.7495V12.0195" stroke="white" stroke-width="1.5" stroke-linecap="round" stroke-linejoin="round"/> </g> <defs> <clipPath id="clip0_2085_390156"> <rect width="24" height="24" fill="white"/> </clipPath> </defs> </svg>
