<svg width="24" height="24" viewBox="0 0 24 24" fill="none" xmlns="http://www.w3.org/2000/svg"> <g clip-path="url(#clip0_2085_389887)"> <path d="M11.53 15.27C12.81 15.78 14 16.2 15.25 16.2C16.5 16.2 17.83 15.8 19.05 15.28C19.44 15.11 19.7 14.74 19.7 14.32V11.71C18.22 12.33 16.74 12.76 15.26 12.76C14.77 12.76 14.28 12.71 13.79 12.63" stroke="white" stroke-width="1.5" stroke-linecap="round" stroke-linejoin="round"/> <path opacity="0.4" d="M9.11011 16.6198L10.0701 20.1998C10.2201 20.7498 10.7901 21.0798 11.3401 20.9298L11.8301 20.7998C12.3801 20.6498 12.7101 20.0798 12.5601 19.5298L11.3501 15.0098" stroke="white" stroke-width="1.5" stroke-linecap="round" stroke-linejoin="round"/> <path d="M16.5302 8.09031L17.6002 7.02031C18.0102 6.61031 18.0102 5.96031 17.6002 5.55031L17.2402 5.19031C16.8302 4.78031 16.1802 4.78031 15.7702 5.19031L14.7002 6.26031" stroke="white" stroke-width="1.5" stroke-linecap="round" stroke-linejoin="round"/> <path opacity="0.4" d="M17.4202 5.37L20.8402 2" stroke="white" stroke-width="1.5" stroke-linecap="round" stroke-linejoin="round"/> <path d="M13.85 12.5498L16.7 9.72976C17.11 9.31976 17.11 8.65977 16.7 8.25977L14.7 6.25977L7.55005 13.3098V15.1398L9.38005 16.9698L13.85 12.5498Z" stroke="white" stroke-width="1.5" stroke-linecap="round" stroke-linejoin="round"/> <path d="M7.2801 14.8896L3.4701 18.6996C3.0601 19.1096 3.0601 19.7596 3.4701 20.1696L5.0001 21.6996C5.5201 22.2196 6.4001 22.0496 6.6901 21.3696L8.8001 16.4096L7.2801 14.8896Z" stroke="white" stroke-width="1.5" stroke-linecap="round" stroke-linejoin="round"/> </g> <defs> <clipPath id="clip0_2085_389887"> <rect width="24" height="24" fill="white"/> </clipPath> </defs> </svg>
