<svg width="24" height="24" viewBox="0 0 24 24" fill="none" xmlns="http://www.w3.org/2000/svg"> <g clip-path="url(#clip0_4482_10516)"> <path d="M2 18.8898V16.7198C2 16.1098 2.28 15.5398 2.75 15.1598L4.64 13.6498C5.37 13.0698 6.41 13.0698 7.14 13.6498L9.03 15.1598C9.5 15.5398 9.78 16.1098 9.78 16.7198V18.8898C9.78 19.9898 8.88 20.8898 7.78 20.8898H4C2.9 20.8898 2 19.9898 2 18.8898Z" stroke="white" stroke-width="1.5" stroke-linecap="round" stroke-linejoin="round"/> <g opacity="0.4"> <path d="M19.5998 18.4999L5.50977 4.3999" stroke="white" stroke-width="1.5" stroke-linecap="round" stroke-linejoin="round"/> <path d="M19.0698 4.92969L12.5498 11.4497" stroke="white" stroke-width="1.5" stroke-linecap="round" stroke-linejoin="round"/> </g> <path d="M13.1103 21.9401C18.3103 21.3601 22.1903 16.8601 21.9903 11.6301C21.8003 6.40012 17.6003 2.20012 12.3703 2.01012C7.14031 1.82012 2.65031 5.69012 2.07031 10.8901" stroke="white" stroke-width="1.5" stroke-linecap="round" stroke-linejoin="round"/> </g> <defs> <clipPath id="clip0_4482_10516"> <rect width="24" height="24" fill="white"/> </clipPath> </defs> </svg>
