<svg width="24" height="24" viewBox="0 0 24 24" fill="none" xmlns="http://www.w3.org/2000/svg"> <g clip-path="url(#clip0_4482_11971)"> <path d="M19.8696 17.47V20.33C19.8696 20.81 19.5196 21.23 19.0496 21.31L15.3496 21.98C15.0896 22.03 14.8196 21.97 14.5996 21.82C14.3796 21.67 14.2296 21.44 14.1796 21.18L12.3596 11.16H11.3596L9.53961 21.18C9.48961 21.44 9.33961 21.67 9.11961 21.82C8.89961 21.97 8.62961 22.03 8.36961 21.98L4.66961 21.31C4.19961 21.22 3.84961 20.81 3.84961 20.33V17.47C3.84961 12.62 4.42961 7.78 5.58961 3.07L5.66961 2.76C5.77961 2.31 6.17961 2 6.63961 2H17.0696C17.5296 2 17.9296 2.31 18.0396 2.76L18.1196 3.07C19.2696 7.78 19.8596 12.62 19.8596 17.47H19.8696Z" stroke="white" stroke-width="1.5" stroke-linecap="round" stroke-linejoin="round"/> <g opacity="0.4"> <path d="M18.5699 5H5.16992" stroke="white" stroke-width="1.5" stroke-linecap="round" stroke-linejoin="round"/> <path d="M10.3701 5V7" stroke="white" stroke-width="1.5" stroke-linecap="round" stroke-linejoin="round"/> <path d="M13.3701 5V7" stroke="white" stroke-width="1.5" stroke-linecap="round" stroke-linejoin="round"/> </g> </g> <defs> <clipPath id="clip0_4482_11971"> <rect width="24" height="24" fill="white"/> </clipPath> </defs> </svg>
