<svg width="24" height="24" viewBox="0 0 24 24" fill="none" xmlns="http://www.w3.org/2000/svg"> <g clip-path="url(#clip0_2085_392480)"> <path opacity="0.4" d="M17.9801 18.93L12.1301 12L17.9801 5.07C18.6401 4.28 18.5401 3.1 17.7601 2.44C16.9701 1.78 15.7901 1.88 15.1301 2.66L9.31007 9.55V3.87C9.31007 2.84 8.47007 2 7.44007 2C6.41007 2 5.57007 2.84 5.57007 3.87V20.14C5.57007 21.17 6.41007 22.01 7.44007 22.01C8.47007 22.01 9.31007 21.17 9.31007 20.14V15.36L9.69007 14.91L15.1201 21.35C15.4901 21.79 16.0201 22.01 16.5501 22.01C16.9701 22.01 17.4001 21.87 17.7501 21.57C18.5401 20.9 18.6401 19.73 17.9701 18.94L17.9801 18.93Z" stroke="white" stroke-width="1.5" stroke-linecap="round" stroke-linejoin="round"/> <path d="M17.7601 2.44C16.9701 1.78 15.7901 1.88 15.1301 2.66L9.31007 9.55V3.87C9.31007 2.84 8.47007 2 7.44007 2C6.41007 2 5.57007 2.84 5.57007 3.87V20.14C5.57007 21.17 6.41007 22.01 7.44007 22.01C8.47007 22.01 9.31007 21.17 9.31007 20.14V15.36L9.69007 14.91L15.1201 21.35C15.4901 21.79 16.0201 22.01 16.5501 22.01C16.9701 22.01 17.4001 21.87 17.7501 21.57C18.5401 20.9 18.6401 19.73 17.9701 18.94L12.1201 12.01" stroke="white" stroke-width="1.5" stroke-linecap="round" stroke-linejoin="round"/> </g> <defs> <clipPath id="clip0_2085_392480"> <rect width="24" height="24" fill="white"/> </clipPath> </defs> </svg>
