<svg width="24" height="24" viewBox="0 0 24 24" fill="none" xmlns="http://www.w3.org/2000/svg"> <g clip-path="url(#clip0_4482_14082)"> <path d="M21.5102 8.91016L20.4502 9.25016" stroke="white" stroke-width="1.5" stroke-linecap="round" stroke-linejoin="round"/> <path d="M3.55023 14.75L2.49023 15.09" stroke="white" stroke-width="1.5" stroke-linecap="round" stroke-linejoin="round"/> <path d="M12 21.9996V20.8896" stroke="white" stroke-width="1.5" stroke-linecap="round" stroke-linejoin="round"/> <path d="M12 2V3.11" stroke="white" stroke-width="1.5" stroke-linecap="round" stroke-linejoin="round"/> <path d="M17.8697 20.0797L17.2197 19.1797" stroke="white" stroke-width="1.5" stroke-linecap="round" stroke-linejoin="round"/> <path d="M6.12988 3.91992L6.77988 4.81992" stroke="white" stroke-width="1.5" stroke-linecap="round" stroke-linejoin="round"/> <path d="M2.49023 8.91016L3.55023 9.25016" stroke="white" stroke-width="1.5" stroke-linecap="round" stroke-linejoin="round"/> <path d="M21.5102 15.09L20.4502 14.75" stroke="white" stroke-width="1.5" stroke-linecap="round" stroke-linejoin="round"/> <path d="M17.8697 3.91992L17.2197 4.81992" stroke="white" stroke-width="1.5" stroke-linecap="round" stroke-linejoin="round"/> <path d="M6.12988 20.0797L6.77988 19.1797" stroke="white" stroke-width="1.5" stroke-linecap="round" stroke-linejoin="round"/> <path opacity="0.4" d="M12 8.86C12.34 8.46 12.94 8 13.85 8C15.44 8 16.5 9.49 16.5 10.88C16.5 13.78 12.89 16 12 16C11.11 16 7.5 13.78 7.5 10.88C7.5 9.49 8.56 8 10.15 8C11.06 8 11.65 8.45 12 8.86Z" stroke="white" stroke-width="1.5" stroke-linecap="round" stroke-linejoin="round"/> </g> <defs> <clipPath id="clip0_4482_14082"> <rect width="24" height="24" fill="white"/> </clipPath> </defs> </svg>
