<svg width="24" height="24" viewBox="0 0 24 24" fill="none" xmlns="http://www.w3.org/2000/svg"> <g clip-path="url(#clip0_4482_9889)"> <path d="M21.9997 22V5.89C21.9997 3.74 20.2597 2 18.1097 2C15.9597 2 14.2197 3.74 14.2197 5.89V22" stroke="white" stroke-width="1.5" stroke-linecap="round" stroke-linejoin="round"/> <path d="M6.44 2C3.99 2 2 3.99 2 6.44V22" stroke="white" stroke-width="1.5" stroke-linecap="round" stroke-linejoin="round"/> <path d="M6.44043 2H17.5504" stroke="white" stroke-width="1.5" stroke-linecap="round" stroke-linejoin="round"/> <path opacity="0.4" d="M22 20.8901H2" stroke="white" stroke-width="1.5" stroke-linecap="round" stroke-linejoin="round"/> <path opacity="0.4" d="M9.22008 13.1099H7.00008C6.07776 13.1099 5.33008 13.8553 5.33008 14.7749C5.33008 15.6944 6.07776 16.4399 7.00008 16.4399H9.22008C10.1424 16.4399 10.8901 15.6944 10.8901 14.7749C10.8901 13.8553 10.1424 13.1099 9.22008 13.1099Z" stroke="white" stroke-width="1.5" stroke-linecap="round" stroke-linejoin="round"/> <path opacity="0.4" d="M5.88965 9.77979H10.3296" stroke="white" stroke-width="1.5" stroke-linecap="round" stroke-linejoin="round"/> </g> <defs> <clipPath id="clip0_4482_9889"> <rect width="24" height="24" fill="white"/> </clipPath> </defs> </svg>
