<svg width="24" height="24" viewBox="0 0 24 24" fill="none" xmlns="http://www.w3.org/2000/svg"> <g clip-path="url(#clip0_2085_392594)"> <path d="M17.6501 19.36L16.6601 3.56C16.6101 2.69 15.8801 2 15.0001 2H2.87012L4.82012 4.07L3.86012 19.35C3.77012 20.78 4.91012 21.99 6.34012 21.99H15.1601C16.6001 21.99 17.7301 20.78 17.6401 19.35L17.6501 19.36Z" stroke="white" stroke-width="1.5" stroke-linecap="round" stroke-linejoin="round"/> <path d="M17.5 16.9403H19.47C20.39 16.9403 21.13 16.2003 21.13 15.2803V6.98031C21.13 6.06031 20.39 5.32031 19.47 5.32031H16.77" stroke="white" stroke-width="1.5" stroke-linecap="round" stroke-linejoin="round"/> <path d="M7.8501 4.49023V19.4302" stroke="white" stroke-width="1.5" stroke-linecap="round" stroke-linejoin="round"/> <path opacity="0.4" d="M7.8501 10.7109H9.5101" stroke="white" stroke-width="1.5" stroke-linecap="round" stroke-linejoin="round"/> <path opacity="0.4" d="M7.8501 13.1992H9.5101" stroke="white" stroke-width="1.5" stroke-linecap="round" stroke-linejoin="round"/> <path opacity="0.4" d="M7.8501 15.6895H9.5101" stroke="white" stroke-width="1.5" stroke-linecap="round" stroke-linejoin="round"/> <path opacity="0.4" d="M7.8501 18.1797H9.5101" stroke="white" stroke-width="1.5" stroke-linecap="round" stroke-linejoin="round"/> <path d="M4.58008 7.81055C7.64008 7.81055 7.66008 8.64055 10.7501 8.64055C13.8401 8.64055 13.8601 7.82055 16.9201 7.81055" stroke="white" stroke-width="1.5" stroke-linecap="round" stroke-linejoin="round"/> </g> <defs> <clipPath id="clip0_2085_392594"> <rect width="24" height="24" fill="white"/> </clipPath> </defs> </svg>
