<svg width="24" height="24" viewBox="0 0 24 24" fill="none" xmlns="http://www.w3.org/2000/svg"> <g clip-path="url(#clip0_2085_381067)"> <path opacity="0.4" d="M11.9999 11.9999C14.3699 9.56991 14.9499 5.90991 13.4599 2.86991C13.3699 2.64991 13.4099 2.38991 13.5699 2.20991C13.7299 2.02991 13.9799 1.95991 14.2099 2.02991C15.9899 2.48991 17.6199 3.41991 18.9199 4.70991C22.9499 8.62991 23.0299 15.0799 19.1099 19.1099C15.0799 23.0299 8.63991 22.9499 4.71991 18.9199C3.41991 17.6199 2.48991 15.9999 2.02991 14.2099C1.95991 13.9799 2.02991 13.7299 2.20991 13.5699C2.38991 13.4099 2.64991 13.3699 2.86991 13.4599C5.91991 14.9499 9.56991 14.3699 11.9999 11.9999Z" stroke="white" stroke-width="1.5" stroke-linecap="round" stroke-linejoin="round"/> <path d="M19.1099 19.1C15.0799 23.02 8.63991 22.94 4.71991 18.91C3.41991 17.61 2.48991 15.99 2.02991 14.2C1.95991 13.97 2.02991 13.72 2.20991 13.56C2.38991 13.4 2.64991 13.36 2.86991 13.45C5.91991 14.94 9.56991 14.36 11.9999 11.99" stroke="white" stroke-width="1.5" stroke-linecap="round" stroke-linejoin="round"/> </g> <defs> <clipPath id="clip0_2085_381067"> <rect width="24" height="24" fill="white"/> </clipPath> </defs> </svg>
