<svg width="24" height="24" viewBox="0 0 24 24" fill="none" xmlns="http://www.w3.org/2000/svg"> <g clip-path="url(#clip0_2085_392387)"> <path opacity="0.4" d="M15.75 18.25C15.75 20.32 14.07 22 12 22C9.93 22 8.25 20.32 8.25 18.25C8.25 16.18 9.93 14.5 12 14.5C14.07 14.5 15.75 16.18 15.75 18.25Z" stroke="white" stroke-width="1.41" stroke-linecap="round" stroke-linejoin="round"/> <path opacity="0.4" d="M13.25 18.25C13.25 18.94 12.69 19.5 12 19.5C11.31 19.5 10.75 18.94 10.75 18.25C10.75 17.56 11.31 17 12 17C12.69 17 13.25 17.56 13.25 18.25Z" stroke="white" stroke-width="1.41" stroke-linecap="round" stroke-linejoin="round"/> <path d="M12.01 14.5V12" stroke="white" stroke-width="1.41" stroke-linecap="round" stroke-linejoin="round"/> <path d="M5.75 2C5.75 2 7.31 12 12 12C16.69 12 18.25 2 18.25 2" stroke="white" stroke-width="1.41" stroke-linecap="round" stroke-linejoin="round"/> </g> <defs> <clipPath id="clip0_2085_392387"> <rect width="24" height="24" fill="white"/> </clipPath> </defs> </svg>
