<svg width="24" height="24" viewBox="0 0 24 24" fill="none" xmlns="http://www.w3.org/2000/svg"> <g clip-path="url(#clip0_2085_389909)"> <path d="M16.0699 7.54004V9.32004C16.0699 11.56 13.3299 13.8 11.9999 13.8C10.6699 13.8 7.92993 11.56 7.92993 9.32004V7.54004" stroke="white" stroke-width="1.5" stroke-linecap="round" stroke-linejoin="round"/> <path d="M2 22V19.19C2 18.04 2.75 17.07 3.86 16.78L9.56 15.28V12.79" stroke="white" stroke-width="1.5" stroke-linecap="round" stroke-linejoin="round"/> <path d="M21.9999 22V19.19C21.9999 18.04 21.2499 17.07 20.1399 16.78L14.4399 15.28V12.79" stroke="white" stroke-width="1.5" stroke-linecap="round" stroke-linejoin="round"/> <path d="M7.12012 6.59961H16.9101C15.2601 7.98961 13.5901 8.93961 11.9801 8.92961C10.2401 8.91961 8.39012 7.75961 7.12012 6.59961Z" stroke="white" stroke-width="1.5" stroke-linecap="round" stroke-linejoin="round"/> <path d="M9.55005 15.3096C11.18 16.4696 12.81 16.4096 14.45 15.3096" stroke="white" stroke-width="1.5" stroke-linecap="round" stroke-linejoin="round"/> <path opacity="0.4" d="M10.5 18.8102L12.03 16.1602L13.49 18.6902" stroke="white" stroke-width="1.5" stroke-linecap="round" stroke-linejoin="round"/> <path d="M6.98003 6.6C6.04003 6.1 5.53003 5.47 5.53003 4.82C5.53003 3.26 8.44003 2 12.02 2C15.6 2 18.51 3.26 18.51 4.82C18.51 5.48 17.97 6.12 17 6.63" stroke="white" stroke-width="1.5" stroke-linecap="round" stroke-linejoin="round"/> <path d="M16.1499 16.1504L10.6299 22.0004" stroke="white" stroke-width="1.5" stroke-linecap="round" stroke-linejoin="round"/> <path d="M8.08008 15.6699L11.2601 20.5799" stroke="white" stroke-width="1.5" stroke-linecap="round" stroke-linejoin="round"/> <path d="M19.43 19.1104L16.77 18.4004" stroke="white" stroke-width="1.5" stroke-linecap="round" stroke-linejoin="round"/> <path d="M4.57007 19.1299L7.23007 18.4199" stroke="white" stroke-width="1.5" stroke-linecap="round" stroke-linejoin="round"/> <path opacity="0.4" d="M7.41002 7.09961C6.97002 8.52961 6.36002 10.0596 5.17002 11.3396C4.97002 11.5596 4.91002 11.8696 5.02002 12.1496C5.12002 12.4396 5.36002 12.6096 5.64002 12.6096H9.38002" stroke="white" stroke-width="1.5" stroke-linecap="round" stroke-linejoin="round"/> <path opacity="0.4" d="M16.6201 7.2002C17.0601 8.6002 17.6701 10.0902 18.8301 11.3402C19.0301 11.5602 19.0901 11.8702 18.9801 12.1502C18.8701 12.4402 18.6401 12.6102 18.3601 12.6102H14.6201" stroke="white" stroke-width="1.5" stroke-linecap="round" stroke-linejoin="round"/> </g> <defs> <clipPath id="clip0_2085_389909"> <rect width="24" height="24" fill="white"/> </clipPath> </defs> </svg>
