<svg width="24" height="24" viewBox="0 0 24 24" fill="none" xmlns="http://www.w3.org/2000/svg"> <g clip-path="url(#clip0_4482_11285)"> <path d="M5.16 18.8399H3.05C2.47 18.8399 2 18.3699 2 17.7899V15.6799C2 15.0999 2.47 14.6299 3.05 14.6299H5.16C5.74 14.6299 6.21 15.0999 6.21 15.6799V17.7899C6.21 18.3699 5.74 18.8399 5.16 18.8399Z" stroke="white" stroke-width="1.5" stroke-linecap="round" stroke-linejoin="round"/> <path d="M17.7899 6.21H15.6799C15.0999 6.21 14.6299 5.74 14.6299 5.16V3.05C14.6299 2.47 15.0999 2 15.6799 2H17.7899C18.3699 2 18.8399 2.47 18.8399 3.05V5.16C18.8399 5.74 18.3699 6.21 17.7899 6.21Z" stroke="white" stroke-width="1.5" stroke-linecap="round" stroke-linejoin="round"/> <path opacity="0.4" d="M14.6304 4.10986H12.0004C7.64035 4.10986 4.11035 7.63986 4.11035 11.9999V14.6299" stroke="white" stroke-width="1.5" stroke-linecap="round" stroke-linejoin="round"/> <path opacity="0.4" d="M18.8399 10.4199H13.5799C11.8347 10.4199 10.4199 11.8347 10.4199 13.5799V18.8399C10.4199 20.5851 11.8347 21.9999 13.5799 21.9999H18.8399C20.5851 21.9999 21.9999 20.5851 21.9999 18.8399V13.5799C21.9999 11.8347 20.5851 10.4199 18.8399 10.4199Z" stroke="white" stroke-width="1.5" stroke-linecap="round" stroke-linejoin="round"/> </g> <defs> <clipPath id="clip0_4482_11285"> <rect width="24" height="24" fill="white"/> </clipPath> </defs> </svg>
