<svg width="24" height="24" viewBox="0 0 24 24" fill="none" xmlns="http://www.w3.org/2000/svg"> <g clip-path="url(#clip0_2085_392398)"> <path d="M20.76 5.78004H3.23999V4.29004C3.23999 3.74004 3.68999 3.29004 4.23999 3.29004H19.75C20.3 3.29004 20.75 3.74004 20.75 4.29004V5.78004H20.76Z" stroke="white" stroke-width="1.41" stroke-linecap="round" stroke-linejoin="round"/> <path d="M5.72998 3.29004V7.02004" stroke="white" stroke-width="1.41" stroke-linecap="round" stroke-linejoin="round"/> <path d="M18.27 3.29004V7.02004" stroke="white" stroke-width="1.41" stroke-linecap="round" stroke-linejoin="round"/> <path d="M3.23996 5.78027L2.26996 17.4703C2.11996 19.2203 3.49996 20.7203 5.25996 20.7203H8.20996C9.67996 20.7203 10.93 19.6603 11.17 18.2103L12 13.2503L12.83 18.2103C13.07 19.6603 14.32 20.7203 15.79 20.7203H18.74C20.5 20.7203 21.88 19.2203 21.73 17.4703L20.76 5.78027" stroke="white" stroke-width="1.41" stroke-linecap="round" stroke-linejoin="round"/> <path opacity="0.4" d="M13.24 3.29004V10.76C11.87 10.76 10.75 9.65004 10.75 8.27004V3.29004" stroke="white" stroke-width="1.41" stroke-linecap="round" stroke-linejoin="round"/> <path d="M8.21998 5.78027L7.57998 9.00027C7.22998 10.7503 5.69998 12.0003 3.91998 12.0003H2.72998" stroke="white" stroke-width="1.41" stroke-linecap="round" stroke-linejoin="round"/> <path d="M15.78 5.78027L16.42 9.00027C16.77 10.7503 18.3 12.0003 20.08 12.0003H21.27" stroke="white" stroke-width="1.41" stroke-linecap="round" stroke-linejoin="round"/> <path opacity="0.4" d="M2.40991 18.2197H11.1699" stroke="white" stroke-width="1.41" stroke-linecap="round" stroke-linejoin="round"/> <path opacity="0.4" d="M12.8301 18.2197H21.4701" stroke="white" stroke-width="1.41" stroke-linecap="round" stroke-linejoin="round"/> </g> <defs> <clipPath id="clip0_2085_392398"> <rect width="24" height="24" fill="white"/> </clipPath> </defs> </svg>
