<svg width="24" height="24" viewBox="0 0 24 24" fill="none" xmlns="http://www.w3.org/2000/svg"> <g clip-path="url(#clip0_4482_2688)"> <path opacity="0.4" d="M6.94995 12.57V11.05C6.94995 10.19 7.65001 9.48997 8.51001 9.48997H10.05C10.27 9.48997 10.48 9.42997 10.67 9.32997L13.04 7.96996C13.66 7.60996 14.4399 8.05996 14.4399 8.77996V15.21C14.4399 15.97 13.58 16.42 12.96 15.97L10.71 14.36C10.5 14.21 10.24 14.13 9.97998 14.13H8.51001C7.65001 14.13 6.94995 13.43 6.94995 12.57Z" stroke="white" stroke-width="1.5" stroke-linecap="round" stroke-linejoin="round"/> <path opacity="0.4" d="M17.05 9.90991V14.0199" stroke="white" stroke-width="1.5" stroke-linecap="round" stroke-linejoin="round"/> <path d="M17 22H7C4.25 22 2 19.75 2 17V7C2 4.25 4.25 2 7 2H17C19.75 2 22 4.25 22 7V17C22 19.75 19.75 22 17 22Z" stroke="white" stroke-width="1.5" stroke-linecap="round" stroke-linejoin="round"/> </g> <defs> <clipPath id="clip0_4482_2688"> <rect width="24" height="24" fill="white"/> </clipPath> </defs> </svg>
