<svg width="24" height="24" viewBox="0 0 24 24" fill="none" xmlns="http://www.w3.org/2000/svg"> <g clip-path="url(#clip0_4482_2362)"> <path d="M17.9999 10.7699C18.0299 11.3499 17.8199 11.9199 17.4099 12.3299L12.5299 17.2099C11.4799 18.2599 9.75985 18.2599 8.69985 17.2099L6.78994 15.2999C5.73994 14.2499 5.73994 12.5299 6.78994 11.4699L11.6699 6.58989C12.0799 6.17989 12.6499 5.96989 13.2299 5.99989L16.5299 6.19989C17.2099 6.23989 17.7499 6.7799 17.7899 7.4599L17.9999 10.7699Z" stroke="white" stroke-width="1.5" stroke-linecap="round" stroke-linejoin="round"/> <path opacity="0.4" d="M7.75 10.52L13.48 16.25" stroke="white" stroke-width="1.5" stroke-linecap="round" stroke-linejoin="round"/> <path d="M17 22H7C4.25 22 2 19.75 2 17V7C2 4.25 4.25 2 7 2H17C19.75 2 22 4.25 22 7V17C22 19.75 19.75 22 17 22Z" stroke="white" stroke-width="1.5" stroke-linecap="round" stroke-linejoin="round"/> <path opacity="0.4" d="M13.99 10H14.01" stroke="white" stroke-width="2" stroke-linecap="round" stroke-linejoin="round"/> </g> <defs> <clipPath id="clip0_4482_2362"> <rect width="24" height="24" fill="white"/> </clipPath> </defs> </svg>
