<svg width="24" height="24" viewBox="0 0 24 24" fill="none" xmlns="http://www.w3.org/2000/svg"> <g clip-path="url(#clip0_4482_10886)"> <path d="M21.4196 8.31982H19.3096" stroke="white" stroke-width="1.5" stroke-linecap="round" stroke-linejoin="round"/> <path d="M2.46973 8.31982H4.57973" stroke="white" stroke-width="1.5" stroke-linecap="round" stroke-linejoin="round"/> <path d="M21.4197 22H2.46973" stroke="white" stroke-width="1.5" stroke-linecap="round" stroke-linejoin="round"/> <path opacity="0.4" fill-rule="evenodd" clip-rule="evenodd" d="M7.33557 6.32934C6.96509 6.1441 6.51459 6.29427 6.32934 6.66475C6.1441 7.03524 6.29427 7.48574 6.66475 7.67098L15.3252 12.0012L7.17392 16.0898C6.92396 16.2151 6.76451 16.4692 6.76026 16.7488C6.75601 17.0284 6.90767 17.2871 7.15371 17.42L16.8537 22.66C17.2181 22.8569 17.6732 22.7211 17.87 22.3566C18.0669 21.9922 17.9311 21.5372 17.5666 21.3403L9.13382 16.7848L17.3299 12.6738C17.3976 12.6408 17.4605 12.5975 17.5161 12.5447C17.5919 12.473 17.6507 12.3872 17.6904 12.2936C17.7305 12.1995 17.7499 12.1013 17.7503 12.0042C17.7512 11.813 17.6786 11.6264 17.5463 11.4859C17.4833 11.4188 17.4092 11.365 17.3284 11.3258L7.33557 6.32934Z" fill="white"/> <path d="M21.4197 5.68018H2.46973" stroke="white" stroke-width="1.5" stroke-linecap="round" stroke-linejoin="round"/> <path d="M12 2C14.76 2 17 4.24 17 7V22H7V7C7 4.24 9.24 2 12 2Z" stroke="white" stroke-width="1.5" stroke-linecap="round" stroke-linejoin="round"/> </g> <defs> <clipPath id="clip0_4482_10886"> <rect width="24" height="24" fill="white"/> </clipPath> </defs> </svg>
