<svg width="24" height="24" viewBox="0 0 24 24" fill="none" xmlns="http://www.w3.org/2000/svg"> <g clip-path="url(#clip0_2085_390176)"> <path d="M18.6499 9.67043C18.4199 10.0804 17.9599 10.3104 17.4899 10.2704C17.4499 10.2704 17.4199 10.2704 17.3799 10.2704C16.4399 10.2704 15.6899 11.0604 15.6899 12.0004C15.6899 12.9404 16.4499 13.7004 17.3799 13.7004C17.4199 13.7004 17.4599 13.7004 17.4999 13.7004C17.9699 13.6604 18.4099 13.9104 18.6399 14.3204L21.8199 20.0104C22.4799 21.1904 21.1799 22.4904 19.9999 21.8304L14.2899 18.6404C13.8799 18.4104 13.6399 17.9604 13.6799 17.4804C13.6799 17.4104 13.6799 17.3404 13.6799 17.2704C13.6399 16.4204 12.9599 15.7104 12.0999 15.6604C11.1099 15.5904 10.2899 16.3804 10.2899 17.3504C10.2899 17.3904 10.2899 17.4404 10.2899 17.4804C10.3299 17.9504 10.0999 18.4104 9.67992 18.6404L3.96992 21.8304C2.78992 22.4904 1.48992 21.1904 2.14992 20.0104L5.33992 14.3004C5.56992 13.8904 6.01992 13.6504 6.47992 13.6904C6.55992 13.6904 6.63992 13.6904 6.71992 13.6904C7.56992 13.6404 8.26992 12.9604 8.31992 12.1004C8.37992 11.1204 7.57992 10.3104 6.60992 10.3104C6.55992 10.3104 6.50992 10.3104 6.45992 10.3104C5.98992 10.3504 5.54992 10.1004 5.31992 9.69043L2.17992 4.00043C1.51992 2.82043 2.81992 1.52043 3.99992 2.18043L9.70992 5.37043C10.1199 5.60043 10.3599 6.05043 10.3199 6.52043C10.3199 6.59043 10.3199 6.67043 10.3199 6.74043C10.3599 7.59043 11.0399 8.30043 11.8999 8.35043C12.8899 8.42043 13.7099 7.63043 13.7099 6.65043C13.7099 6.61043 13.7099 6.56043 13.7099 6.52043C13.6699 6.05043 13.8999 5.59043 14.3199 5.36043L20.0299 2.17043C21.2099 1.51043 22.5099 2.81043 21.8499 3.99043L18.6799 9.67043H18.6499Z" stroke="white" stroke-width="1.5" stroke-linecap="round" stroke-linejoin="round"/> <path opacity="0.4" d="M10.9399 12.0004C10.9399 11.4204 11.4099 10.9404 11.9999 10.9404C12.5899 10.9404 13.0599 11.4104 13.0599 12.0004C13.0599 12.5904 12.5899 13.0604 11.9999 13.0604C11.4099 13.0604 10.9399 12.5904 10.9399 12.0004Z" fill="white"/> </g> <defs> <clipPath id="clip0_2085_390176"> <rect width="24" height="24" fill="white"/> </clipPath> </defs> </svg>
