<svg width="24" height="24" viewBox="0 0 24 24" fill="none" xmlns="http://www.w3.org/2000/svg"> <g clip-path="url(#clip0_2085_389638)"> <path d="M17.95 8.58984C18.12 9.01984 17.93 9.48984 17.55 9.73984L16.6 10.3598C13.71 12.2698 10.28 13.1898 6.82002 12.9798L5.69002 12.9098C5.23002 12.8798 4.83002 12.5698 4.77002 12.1098" stroke="white" stroke-width="1.5" stroke-linecap="round" stroke-linejoin="round"/> <path d="M17.95 8.58977C17.39 7.14977 16.35 5.92977 14.99 5.14977C13.41 4.23977 11.54 3.98977 9.77998 4.45977C8.01998 4.92977 6.51999 6.07977 5.60999 7.65977C4.82999 9.00977 4.53999 10.5898 4.76999 12.1198" stroke="white" stroke-width="1.5" stroke-linecap="round" stroke-linejoin="round"/> <path d="M13.8201 7.05991C12.7801 6.50991 11.5401 6.36991 10.3701 6.67991" stroke="white" stroke-width="1.5" stroke-linecap="round" stroke-linejoin="round"/> <g opacity="0.4"> <path d="M17.9501 8.58984C17.8801 8.41984 17.8101 8.24984 17.7301 8.08984C20.0201 8.22984 21.6401 8.92984 21.9501 10.0898C22.5201 12.2298 18.5301 15.1498 13.0401 16.6198C7.55011 18.0898 2.63011 17.5498 2.06011 15.4198C1.75011 14.2498 2.80011 12.8498 4.71011 11.5698C4.72011 11.7498 4.74011 11.9298 4.77011 12.1198" stroke="white" stroke-width="1.5" stroke-linecap="round" stroke-linejoin="round"/> <path d="M8.6202 17.8101L7.96021 19.7601" stroke="white" stroke-width="1.5" stroke-linecap="round" stroke-linejoin="round"/> <path d="M17.4602 15.4399L19.0102 16.7999" stroke="white" stroke-width="1.5" stroke-linecap="round" stroke-linejoin="round"/> </g> </g> <defs> <clipPath id="clip0_2085_389638"> <rect width="24" height="24" fill="white"/> </clipPath> </defs> </svg>
