<svg width="24" height="24" viewBox="0 0 24 24" fill="none" xmlns="http://www.w3.org/2000/svg"> <g clip-path="url(#clip0_2085_390404)"> <path opacity="0.4" d="M18.4699 14.6501C18.4699 14.6501 18.5199 14.6201 18.5299 14.6501C18.8699 16.3201 20.1799 17.6301 21.8599 17.9801C21.8899 17.9801 21.8899 18.0301 21.8599 18.0401C20.1799 18.3801 18.8799 19.6901 18.5299 21.3701C18.5299 21.4001 18.4799 21.4001 18.4699 21.3701C18.1299 19.7001 16.8199 18.3901 15.1399 18.0401C15.1099 18.0401 15.1099 17.9901 15.1399 17.9801C16.8199 17.6401 18.1199 16.3301 18.4699 14.6501Z" stroke="white" stroke-width="1.5" stroke-linecap="round" stroke-linejoin="round"/> <path d="M22 13.5998V13.2898C22 12.1398 22 11.5698 21.78 11.1298C21.58 10.7398 21.27 10.4298 20.88 10.2298C20.44 10.0098 19.87 10.0098 18.72 10.0098H2.54004V15.2298C2.54004 17.5198 2.54004 18.6698 2.99004 19.5498C3.38004 20.3198 4.01004 20.9498 4.78004 21.3398C5.66004 21.7898 6.80004 21.7898 9.10004 21.7898H12.53" stroke="white" stroke-width="1.5" stroke-linecap="round" stroke-linejoin="round"/> <path d="M2.58009 9.6199L2.36009 8.7599C2.07009 7.5899 1.92009 7.0099 2.04009 6.5099C2.15009 6.0799 2.39009 5.6899 2.74009 5.4099C3.14009 5.0899 3.73009 4.9699 4.91009 4.7499C9.36009 3.8799 16.7601 2.4499 17.9101 2.2399C19.5801 1.9499 21.2501 3.4799 21.4701 4.7299C21.6901 5.9799 21.0601 6.3599 20.2201 6.5099C19.3801 6.6599 2.58009 9.6199 2.58009 9.6199Z" stroke="white" stroke-width="1.5" stroke-linecap="round" stroke-linejoin="round"/> </g> <defs> <clipPath id="clip0_2085_390404"> <rect width="24" height="24" fill="white"/> </clipPath> </defs> </svg>
