<svg width="24" height="24" viewBox="0 0 24 24" fill="none" xmlns="http://www.w3.org/2000/svg"> <g clip-path="url(#clip0_2085_385077)"> <g opacity="0.4"> <path d="M16.9 2.10986L12.03 4.54986V10.4099L16.9 12.8499L21.77 10.4099V4.54986L16.9 2.10986Z" stroke="white" stroke-width="1.5" stroke-linecap="round" stroke-linejoin="round"/> <path d="M12.03 4.63965L16.92 7.15965L21.79 4.63965" stroke="white" stroke-width="1.5" stroke-linecap="round" stroke-linejoin="round"/> <path d="M16.9001 12.8497V7.15967" stroke="white" stroke-width="1.5" stroke-linecap="round" stroke-linejoin="round"/> </g> <path d="M9.84997 9.2998H4.21997C3.11997 9.2998 2.21997 10.1998 2.21997 11.2998V17.0798C2.21997 18.1798 3.11997 19.0798 4.21997 19.0798H14.25C15.35 19.0798 16.25 18.1798 16.25 17.0798V15.0498" stroke="white" stroke-width="1.5" stroke-linecap="round" stroke-linejoin="round"/> <path d="M5.48999 21.8896H12.97" stroke="white" stroke-width="1.5" stroke-linecap="round" stroke-linejoin="round"/> <path d="M2.20996 15.0498H16.24" stroke="white" stroke-width="1.5" stroke-linecap="round" stroke-linejoin="round"/> <path d="M8.05998 19.0898L6.72998 21.8798" stroke="white" stroke-width="1.5" stroke-linecap="round" stroke-linejoin="round"/> <path d="M10.3899 19.0898L11.7199 21.8798" stroke="white" stroke-width="1.5" stroke-linecap="round" stroke-linejoin="round"/> </g> <defs> <clipPath id="clip0_2085_385077"> <rect width="24" height="24" fill="white"/> </clipPath> </defs> </svg>
