<svg width="24" height="24" viewBox="0 0 24 24" fill="none" xmlns="http://www.w3.org/2000/svg"> <g clip-path="url(#clip0_4482_5753)"> <path d="M6.22984 4.48996L4.27989 7.41995C3.18989 9.05995 3.62988 11.27 5.26988 12.36L14.2799 18.36C16.0499 19.54 18.3099 19.73 20.2499 18.86C21.5299 18.29 21.6799 16.53 20.5099 15.75C18.6199 14.49 17.2099 12.62 16.5199 10.46L15.6799 7.81996C15.5199 7.29996 15.0198 6.96996 14.4798 6.99996L12.8899 7.08995C10.9899 7.19995 9.18985 6.21996 8.23985 4.56996C7.71985 3.63996 6.80984 3.60996 6.22984 4.48996Z" stroke="white" stroke-width="1.5" stroke-miterlimit="10" stroke-linecap="round"/> <path opacity="0.4" d="M2.68994 20.1504H8.81006" stroke="white" stroke-width="1.5" stroke-miterlimit="10" stroke-linecap="round"/> <path opacity="0.4" d="M2.68994 17.0195H4.78003" stroke="white" stroke-width="1.5" stroke-miterlimit="10" stroke-linecap="round"/> </g> <defs> <clipPath id="clip0_4482_5753"> <rect width="24" height="24" fill="white"/> </clipPath> </defs> </svg>
