<svg width="24" height="24" viewBox="0 0 24 24" fill="none" xmlns="http://www.w3.org/2000/svg"> <g clip-path="url(#clip0_4418_6225)"> <path d="M18 18.8597H17.24C16.44 18.8597 15.68 19.1697 15.12 19.7297L13.41 21.4198C12.63 22.1898 11.36 22.1898 10.58 21.4198L8.87 19.7297C8.31 19.1697 7.54 18.8597 6.75 18.8597H6C4.34 18.8597 3 17.5298 3 15.8898V4.97974C3 3.33974 4.34 2.00977 6 2.00977H18C19.66 2.00977 21 3.33974 21 4.97974V15.8898C21 17.5198 19.66 18.8597 18 18.8597Z" stroke="white" stroke-width="1.5" stroke-miterlimit="10" stroke-linecap="round" stroke-linejoin="round"/> <path opacity="0.4" d="M7 9.16077C7 8.23077 7.76 7.4707 8.69 7.4707C9.62 7.4707 10.38 8.23077 10.38 9.16077C10.38 11.0408 7.71 11.2408 7.12 13.0308C7 13.4008 7.31 13.7708 7.7 13.7708H10.38" stroke="white" stroke-width="1.5" stroke-linecap="round" stroke-linejoin="round"/> <path opacity="0.4" d="M16.0398 13.7608V8.05088C16.0398 7.79088 15.8698 7.56083 15.6198 7.49083C15.3698 7.42083 15.0998 7.52083 14.9598 7.74083C14.2398 8.90083 13.4598 10.2208 12.7798 11.3808C12.6698 11.5708 12.6698 11.8208 12.7798 12.0108C12.8898 12.2008 13.0998 12.3208 13.3298 12.3208H16.9998" stroke="white" stroke-width="1.5" stroke-linecap="round" stroke-linejoin="round"/> </g> <defs> <clipPath id="clip0_4418_6225"> <rect width="24" height="24" fill="white"/> </clipPath> </defs> </svg>
