<svg width="24" height="24" viewBox="0 0 24 24" fill="none" xmlns="http://www.w3.org/2000/svg"> <g clip-path="url(#clip0_3280_13077)"> <path opacity="0.4" d="M21.86 13.67C21.95 13.13 22 12.57 22 12C22 6.5 17.5 2 12 2C6.5 2 2 6.5 2 12C2 17.5 6.5 22 12 22C12.79 22 13.56 21.91 14.29 21.73" stroke="white" stroke-width="1.5" stroke-linecap="round" stroke-linejoin="round"/> <path d="M8 12H16" stroke="white" stroke-width="1.5" stroke-linecap="round" stroke-linejoin="round"/> <path d="M12 16V8" stroke="white" stroke-width="1.5" stroke-linecap="round" stroke-linejoin="round"/> <path d="M22.17 18.5L20.97 18.78C20.11 18.98 19.44 19.64 19.24 20.5L18.96 21.7C18.93 21.82 18.75 21.82 18.72 21.7L18.44 20.5C18.24 19.64 17.58 18.97 16.72 18.77L15.52 18.49C15.4 18.46 15.4 18.28 15.52 18.25L16.72 17.97C17.58 17.77 18.25 17.11 18.45 16.25L18.73 15.05C18.76 14.93 18.94 14.93 18.97 15.05L19.25 16.25C19.45 17.11 20.11 17.78 20.97 17.98L22.17 18.26C22.29 18.29 22.29 18.47 22.17 18.5Z" stroke="white" stroke-width="1.5" stroke-miterlimit="10"/> </g> <defs> <clipPath id="clip0_3280_13077"> <rect width="24" height="24" fill="white"/> </clipPath> </defs> </svg>
