<svg width="24" height="24" viewBox="0 0 24 24" fill="none" xmlns="http://www.w3.org/2000/svg"> <g clip-path="url(#clip0_655_9524)"> <path d="M12 22C16.97 22 21 17.97 21 13C21 8.03 16.97 4 12 4C7.03 4 3 8.03 3 13C3 17.97 7.03 22 12 22Z" stroke="white" stroke-width="1.5" stroke-linecap="round" stroke-linejoin="round"/> <path opacity="0.4" d="M12 4V2" stroke="white" stroke-width="1.5" stroke-linecap="round" stroke-linejoin="round"/> <g opacity="0.4"> <path d="M12.0004 14.2C13.4404 14.2 14.6004 13.04 14.6004 11.6C14.6004 10.16 13.4404 9 12.0004 9C10.5604 9 9.40039 10.16 9.40039 11.6C9.40039 13.04 10.5604 14.2 12.0004 14.2Z" stroke="white" stroke-width="1.5" stroke-linecap="round" stroke-linejoin="round"/> <path d="M11.9996 22C14.1496 22 15.8996 20.25 15.8996 18.1C15.8996 15.95 14.1496 14.2 11.9996 14.2C9.84961 14.2 8.09961 15.95 8.09961 18.1C8.09961 20.25 9.84961 22 11.9996 22Z" stroke="white" stroke-width="1.5" stroke-linecap="round" stroke-linejoin="round"/> </g> </g> <defs> <clipPath id="clip0_655_9524"> <rect width="24" height="24" fill="white"/> </clipPath> </defs> </svg>
