<svg width="24" height="24" viewBox="0 0 24 24" fill="none" xmlns="http://www.w3.org/2000/svg"> <g clip-path="url(#clip0_655_9517)"> <path d="M12 4V2" stroke="white" stroke-width="1.5" stroke-linecap="round" stroke-linejoin="round"/> <path d="M12 22C16.97 22 21 17.97 21 13C21 8.03 16.97 4 12 4C7.03 4 3 8.03 3 13C3 17.97 7.03 22 12 22Z" stroke="white" stroke-width="1.5" stroke-linecap="round" stroke-linejoin="round"/> <g opacity="0.4"> <path d="M3 13C3 9.28 6.02 6.27 9.73 6.27C13.44 6.27 16.46 9.29 16.46 13" stroke="white" stroke-width="1.5" stroke-linecap="round" stroke-linejoin="round"/> <path d="M16.4701 13C16.4701 15.39 14.5401 17.32 12.1501 17.32C9.76008 17.32 7.83008 15.39 7.83008 13" stroke="white" stroke-width="1.5" stroke-linecap="round" stroke-linejoin="round"/> </g> </g> <defs> <clipPath id="clip0_655_9517"> <rect width="24" height="24" fill="white"/> </clipPath> </defs> </svg>
