<svg width="24" height="24" viewBox="0 0 24 24" fill="none" xmlns="http://www.w3.org/2000/svg"> <g clip-path="url(#clip0_4418_5897)"> <g opacity="0.4"> <path d="M9.40994 15.9516L7.01992 13.5617C6.21992 12.7617 6.21992 11.9616 7.01992 11.1716L11.0099 7.18164L15.3999 11.5717C15.6199 11.7917 15.6199 12.1516 15.3999 12.3716L11.8099 15.9616C11.0099 16.7516 10.2099 16.7516 9.40994 15.9516Z" stroke="white" stroke-width="1.5" stroke-miterlimit="10" stroke-linecap="round" stroke-linejoin="round"/> <path d="M10.21 6.38086L11.01 7.18085" stroke="white" stroke-width="1.5" stroke-miterlimit="10" stroke-linecap="round" stroke-linejoin="round"/> <path d="M6.45996 12.3314L15.49 11.9414" stroke="white" stroke-width="1.5" stroke-miterlimit="10" stroke-linecap="round" stroke-linejoin="round"/> <path d="M16.4701 14.1719C16.4701 14.1719 15.3701 15.3718 15.3701 16.1018C15.3701 16.7118 15.8701 17.2018 16.4701 17.2018C17.0801 17.2018 17.5701 16.7018 17.5701 16.1018C17.5801 15.3618 16.4701 14.1719 16.4701 14.1719Z" stroke="white" stroke-width="1.5" stroke-linecap="round" stroke-linejoin="round"/> </g> <path d="M12 22C17.5228 22 22 17.5228 22 12C22 6.47715 17.5228 2 12 2C6.47715 2 2 6.47715 2 12C2 17.5228 6.47715 22 12 22Z" stroke="white" stroke-width="1.5" stroke-linecap="round" stroke-linejoin="round"/> </g> <defs> <clipPath id="clip0_4418_5897"> <rect width="24" height="24" fill="white"/> </clipPath> </defs> </svg>
