<svg width="24" height="24" viewBox="0 0 24 24" fill="none" xmlns="http://www.w3.org/2000/svg"> <g clip-path="url(#clip0_655_9546)"> <path opacity="0.4" d="M18.6696 8.67V19.78C18.6696 21 17.6696 22 16.4496 22C15.2296 22 14.2296 21 14.2296 19.78V8.67C14.2296 7.45 13.2296 6.45 12.0096 6.45C10.7896 6.45 9.78961 7.45 9.78961 8.67C9.78961 9.89 8.78961 10.89 7.56961 10.89C6.34961 10.89 5.34961 9.89 5.34961 8.67C5.34961 5 8.34961 2 12.0196 2C15.6896 2 18.6896 5 18.6896 8.67H18.6696Z" stroke="white" stroke-width="1.5" stroke-linecap="round" stroke-linejoin="round"/> <path d="M18.6698 8.67V19.78C18.6698 21 17.6698 22 16.4498 22C15.2298 22 14.2298 21 14.2298 19.78V8.67C14.2298 7.45 13.2298 6.45 12.0098 6.45" stroke="white" stroke-width="1.5" stroke-linecap="round" stroke-linejoin="round"/> </g> <defs> <clipPath id="clip0_655_9546"> <rect width="24" height="24" fill="white"/> </clipPath> </defs> </svg>
