<svg width="24" height="24" viewBox="0 0 24 24" fill="none" xmlns="http://www.w3.org/2000/svg"> <g clip-path="url(#clip0_655_9645)"> <path d="M16.1209 16.52C16.1209 16.52 13.9809 17.84 12.0009 17.84C10.0209 17.84 7.88086 16.52 7.88086 16.52L12.0009 10.91L16.1209 16.52Z" stroke="white" stroke-width="1.5" stroke-linecap="round" stroke-linejoin="round"/> <path opacity="0.4" d="M14.7706 17.19L17.1106 20.37C17.1106 20.37 14.4606 22 12.0006 22C9.54063 22 6.89062 20.37 6.89062 20.37L9.23062 17.19" stroke="white" stroke-width="1.5" stroke-linecap="round" stroke-linejoin="round"/> <path d="M12 2.12L13.72 5.54L17.5 6.12L14.78 8.81L15.4 12.59L12 10.84L8.6 12.59L9.22 8.81L6.5 6.12L10.28 5.54L12 2.12Z" stroke="white" stroke-width="1.5" stroke-linecap="round" stroke-linejoin="round"/> <path d="M18.7196 11.32C19.062 11.32 19.3396 11.0424 19.3396 10.7C19.3396 10.3576 19.062 10.08 18.7196 10.08C18.3772 10.08 18.0996 10.3576 18.0996 10.7C18.0996 11.0424 18.3772 11.32 18.7196 11.32Z" fill="white"/> <path d="M20.6591 15.2C21.0015 15.2 21.2791 14.9224 21.2791 14.58C21.2791 14.2376 21.0015 13.96 20.6591 13.96C20.3166 13.96 20.0391 14.2376 20.0391 14.58C20.0391 14.9224 20.3166 15.2 20.6591 15.2Z" fill="white"/> <path d="M20.6591 7.24C21.0015 7.24 21.2791 6.96242 21.2791 6.62C21.2791 6.27758 21.0015 6 20.6591 6C20.3166 6 20.0391 6.27758 20.0391 6.62C20.0391 6.96242 20.3166 7.24 20.6591 7.24Z" fill="white"/> <path d="M18.3895 3.24C18.7319 3.24 19.0095 2.96242 19.0095 2.62C19.0095 2.27758 18.7319 2 18.3895 2C18.0471 2 17.7695 2.27758 17.7695 2.62C17.7695 2.96242 18.0471 3.24 18.3895 3.24Z" fill="white"/> <path d="M5.28016 11.32C5.62257 11.32 5.90016 11.0424 5.90016 10.7C5.90016 10.3576 5.62257 10.08 5.28016 10.08C4.93774 10.08 4.66016 10.3576 4.66016 10.7C4.66016 11.0424 4.93774 11.32 5.28016 11.32Z" fill="white"/> <path d="M3.3407 15.2C3.68312 15.2 3.9607 14.9224 3.9607 14.58C3.9607 14.2376 3.68312 13.96 3.3407 13.96C2.99829 13.96 2.7207 14.2376 2.7207 14.58C2.7207 14.9224 2.99829 15.2 3.3407 15.2Z" fill="white"/> <path d="M3.3407 7.24C3.68312 7.24 3.9607 6.96242 3.9607 6.62C3.9607 6.27758 3.68312 6 3.3407 6C2.99829 6 2.7207 6.27758 2.7207 6.62C2.7207 6.96242 2.99829 7.24 3.3407 7.24Z" fill="white"/> <path d="M5.61023 3.24C5.95265 3.24 6.23023 2.96242 6.23023 2.62C6.23023 2.27758 5.95265 2 5.61023 2C5.26782 2 4.99023 2.27758 4.99023 2.62C4.99023 2.96242 5.26782 3.24 5.61023 3.24Z" fill="white"/> </g> <defs> <clipPath id="clip0_655_9645"> <rect width="24" height="24" fill="white"/> </clipPath> </defs> </svg>
