<svg width="24" height="24" viewBox="0 0 24 24" fill="none" xmlns="http://www.w3.org/2000/svg"> <g clip-path="url(#clip0_4418_5601)"> <path opacity="0.4" d="M9 10C10.1046 10 11 9.10457 11 8C11 6.89543 10.1046 6 9 6C7.89543 6 7 6.89543 7 8C7 9.10457 7.89543 10 9 10Z" stroke="white" stroke-width="1.5" stroke-linecap="round" stroke-linejoin="round"/> <path d="M13 2H9C4 2 2 4 2 9V15C2 20 4 22 9 22H15C20 22 22 20 22 15V10" stroke="white" stroke-width="1.5" stroke-linecap="round" stroke-linejoin="round"/> <g opacity="0.45"> <path d="M19.1409 2.59064L15.5109 6.22064C15.3709 6.36064 15.2309 6.63064 15.2109 6.83064L15.0109 8.22064C14.9409 8.72064 15.2909 9.07064 15.7909 9.00064L17.1809 8.80064C17.3709 8.77064 17.6509 8.64064 17.7909 8.50064L21.4209 4.87064C22.0509 4.24064 22.3409 3.52064 21.4209 2.60064C20.4909 1.66064 19.7709 1.96064 19.1409 2.59064Z" stroke="white" stroke-width="1.5" stroke-miterlimit="10" stroke-linecap="round" stroke-linejoin="round"/> <path d="M18.6191 3.11035C18.9291 4.21035 19.7891 5.07035 20.8891 5.38035" stroke="white" stroke-width="1.5" stroke-miterlimit="10" stroke-linecap="round" stroke-linejoin="round"/> </g> <path opacity="0.4" d="M2.66992 18.9496L7.59992 15.6396C8.38992 15.1096 9.52992 15.1696 10.2399 15.7796L10.5699 16.0696C11.3499 16.7396 12.6099 16.7396 13.3899 16.0696L17.5499 12.4996C18.3299 11.8296 19.5899 11.8296 20.3699 12.4996L21.9999 13.8996" stroke="white" stroke-width="1.5" stroke-linecap="round" stroke-linejoin="round"/> </g> <defs> <clipPath id="clip0_4418_5601"> <rect width="24" height="24" fill="white"/> </clipPath> </defs> </svg>
