<svg width="24" height="24" viewBox="0 0 24 24" fill="none" xmlns="http://www.w3.org/2000/svg"> <g clip-path="url(#clip0_655_9563)"> <g opacity="0.4"> <path d="M15.8798 2H16.0598C16.2798 2 16.4898 2.04 16.6998 2.13C16.8998 2.21 17.0798 2.34 17.2398 2.49C17.3898 2.64 17.5198 2.83 17.5998 3.03C17.6798 3.23 17.7298 3.45 17.7298 3.67V3.82C17.7298 4.66 17.3998 5.47 16.7998 6.06C16.2098 6.65 15.3998 6.99 14.5598 6.99H12.0098V5.88C12.0098 4.85 12.4198 3.87 13.1498 3.14C13.8798 2.41 14.8598 2 15.8898 2H15.8798Z" stroke="white" stroke-width="1.5" stroke-linecap="round" stroke-linejoin="round"/> <path d="M11.9993 6.99999H9.4493C8.6093 6.99999 7.7993 6.66999 7.2093 6.06999C6.6193 5.46999 6.2793 4.66999 6.2793 3.82999V3.67999C6.2793 3.23999 6.4593 2.81999 6.7693 2.49999C7.0793 2.18999 7.4993 2.00999 7.9493 2.00999H8.1293C9.1593 2.00999 10.1393 2.41999 10.8693 3.14999C11.5993 3.87999 12.0093 4.85999 12.0093 5.88999V6.99999H11.9993Z" stroke="white" stroke-width="1.5" stroke-linecap="round" stroke-linejoin="round"/> </g> <path d="M20 7H4C3.44772 7 3 7.44772 3 8V10C3 10.5523 3.44772 11 4 11H20C20.5523 11 21 10.5523 21 10V8C21 7.44772 20.5523 7 20 7Z" stroke="white" stroke-width="1.5" stroke-linecap="round" stroke-linejoin="round"/> <path d="M5.5 11H18.5V20C18.5 21.1 17.6 22 16.5 22H7.5C6.4 22 5.5 21.1 5.5 20V11Z" stroke="white" stroke-width="1.5" stroke-linecap="round" stroke-linejoin="round"/> <path opacity="0.4" d="M14.5 11H9.5V22H14.5V11Z" stroke="white" stroke-width="1.5" stroke-linecap="round" stroke-linejoin="round"/> </g> <defs> <clipPath id="clip0_655_9563"> <rect width="24" height="24" fill="white"/> </clipPath> </defs> </svg>
