<svg width="24" height="24" viewBox="0 0 24 24" fill="none" xmlns="http://www.w3.org/2000/svg"> <g clip-path="url(#clip0_4418_5946)"> <path d="M22 11V9C22 4 20 2 15 2H9C4 2 2 4 2 9V15C2 20 4 22 9 22H10" stroke="white" stroke-width="1.5" stroke-linecap="round" stroke-linejoin="round"/> <g opacity="0.4"> <path d="M2.0293 8.5H21.9993" stroke="white" stroke-width="1.5" stroke-linecap="round" stroke-linejoin="round"/> <path d="M2.0293 15.5H11.9993" stroke="white" stroke-width="1.5" stroke-linecap="round" stroke-linejoin="round"/> <path d="M8.50977 21.9897V2.00977" stroke="white" stroke-width="1.5" stroke-linecap="round" stroke-linejoin="round"/> <path d="M15.5098 11.9897V2.00977" stroke="white" stroke-width="1.5" stroke-linecap="round" stroke-linejoin="round"/> </g> <path d="M15.6001 17.2V16.4C15.6001 15.07 16.0001 14 18.0001 14C20.0001 14 20.4001 15.07 20.4001 16.4V17.2" stroke="white" stroke-width="1.5" stroke-linecap="round" stroke-linejoin="round"/> <path d="M20 21.9993H16C14.4 21.9993 14 21.5993 14 19.9993V19.1992C14 17.5992 14.4 17.1992 16 17.1992H20C21.6 17.1992 22 17.5992 22 19.1992V19.9993C22 21.5993 21.6 21.9993 20 21.9993Z" stroke="white" stroke-width="1.5" stroke-linecap="round" stroke-linejoin="round"/> </g> <defs> <clipPath id="clip0_4418_5946"> <rect width="24" height="24" fill="white"/> </clipPath> </defs> </svg>
