<svg width="24" height="24" viewBox="0 0 24 24" fill="none" xmlns="http://www.w3.org/2000/svg"> <g clip-path="url(#clip0_655_9650)"> <path d="M3.65039 2.66V7.11" stroke="white" stroke-width="1.5" stroke-linecap="round" stroke-linejoin="round"/> <path d="M6.73047 2.66V7.11" stroke="white" stroke-width="1.5" stroke-linecap="round" stroke-linejoin="round"/> <path d="M3.65039 4.81H6.74039" stroke="white" stroke-width="1.5" stroke-linecap="round" stroke-linejoin="round"/> <path opacity="0.4" d="M10.4095 6.53C11.3195 6.53 12.0495 5.8 12.0495 4.89C12.0495 3.98 11.3195 3.25 10.4095 3.25C9.49953 3.25 8.76953 3.98 8.76953 4.89C8.76953 5.8 9.49953 6.53 10.4095 6.53Z" stroke="white" stroke-width="1.5" stroke-linecap="round" stroke-linejoin="round"/> <path d="M14.0801 2.66V4.77" stroke="white" stroke-width="1.5" stroke-linecap="round" stroke-linejoin="round"/> <path d="M13.4902 6.53H14.6602" stroke="white" stroke-width="1.5" stroke-linecap="round" stroke-linejoin="round"/> <path d="M10.4805 9.77V14.22" stroke="white" stroke-width="1.5" stroke-linecap="round" stroke-linejoin="round"/> <path d="M13.5703 9.77V14.22" stroke="white" stroke-width="1.5" stroke-linecap="round" stroke-linejoin="round"/> <path d="M10.4805 11.92H13.5705" stroke="white" stroke-width="1.5" stroke-linecap="round" stroke-linejoin="round"/> <path opacity="0.4" d="M17.2396 13.64C18.1496 13.64 18.8796 12.91 18.8796 12C18.8796 11.09 18.1396 10.36 17.2396 10.36C16.3396 10.36 15.5996 11.09 15.5996 12C15.5996 12.91 16.3396 13.64 17.2396 13.64Z" stroke="white" stroke-width="1.5" stroke-linecap="round" stroke-linejoin="round"/> <path d="M20.9102 9.77V11.88" stroke="white" stroke-width="1.5" stroke-linecap="round" stroke-linejoin="round"/> <path d="M20.3301 13.64H21.5001" stroke="white" stroke-width="1.5" stroke-linecap="round" stroke-linejoin="round"/> <path opacity="0.4" d="M15.7207 4.89C17.3207 4.89 18.6107 6.18 18.6107 7.78C18.6107 6.18 19.9007 4.89 21.5007 4.89C19.9007 4.89 18.6107 3.6 18.6107 2C18.6107 3.6 17.3207 4.89 15.7207 4.89Z" stroke="white" stroke-width="1.5" stroke-linecap="round" stroke-linejoin="round"/> <path d="M3.65039 16.88V21.33" stroke="white" stroke-width="1.5" stroke-linecap="round" stroke-linejoin="round"/> <path d="M6.73047 16.88V21.33" stroke="white" stroke-width="1.5" stroke-linecap="round" stroke-linejoin="round"/> <path d="M3.65039 19.03H6.74039" stroke="white" stroke-width="1.5" stroke-linecap="round" stroke-linejoin="round"/> <path opacity="0.4" d="M10.4095 20.75C11.3195 20.75 12.0495 20.02 12.0495 19.11C12.0495 18.2 11.3195 17.47 10.4095 17.47C9.49953 17.47 8.76953 18.2 8.76953 19.11C8.76953 20.02 9.49953 20.75 10.4095 20.75Z" stroke="white" stroke-width="1.5" stroke-linecap="round" stroke-linejoin="round"/> <path d="M14.0801 16.88V18.99" stroke="white" stroke-width="1.5" stroke-linecap="round" stroke-linejoin="round"/> <path d="M13.4902 20.75H14.6602" stroke="white" stroke-width="1.5" stroke-linecap="round" stroke-linejoin="round"/> <path opacity="0.4" d="M15.7207 19.11C17.3207 19.11 18.6107 20.4 18.6107 22C18.6107 20.4 19.9007 19.11 21.5007 19.11C19.9007 19.11 18.6107 17.82 18.6107 16.22C18.6107 17.82 17.3207 19.11 15.7207 19.11Z" stroke="white" stroke-width="1.5" stroke-linecap="round" stroke-linejoin="round"/> <path opacity="0.4" d="M5.16023 9.39L6.15023 10.83L7.83023 11.32L6.76023 12.71L6.81023 14.46L5.16023 13.87L3.51023 14.46L3.56023 12.71L2.49023 11.32L4.17023 10.83L5.16023 9.39Z" stroke="white" stroke-width="1.5" stroke-linecap="round" stroke-linejoin="round"/> </g> <defs> <clipPath id="clip0_655_9650"> <rect width="24" height="24" fill="white"/> </clipPath> </defs> </svg>
