<svg width="24" height="24" viewBox="0 0 24 24" fill="none" xmlns="http://www.w3.org/2000/svg"> <g clip-path="url(#clip0_4418_5545)"> <path d="M17 22H7C4 22 2 20.5 2 17V12C2 8.5 4 7 7 7H17C20 7 22 8.5 22 12V17C22 20.5 20 22 17 22Z" stroke="white" stroke-width="1.5" stroke-miterlimit="10" stroke-linecap="round" stroke-linejoin="round"/> <path d="M6 4.5H18" stroke="white" stroke-width="1.5" stroke-miterlimit="10" stroke-linecap="round" stroke-linejoin="round"/> <path d="M9 2H15" stroke="white" stroke-width="1.5" stroke-miterlimit="10" stroke-linecap="round" stroke-linejoin="round"/> <g opacity="0.4"> <path d="M8.89001 19.1101C9.64664 19.1101 10.26 18.4967 10.26 17.7401C10.26 16.9835 9.64664 16.3701 8.89001 16.3701C8.13338 16.3701 7.52002 16.9835 7.52002 17.7401C7.52002 18.4967 8.13338 19.1101 8.89001 19.1101Z" stroke="white" stroke-width="1.5" stroke-linecap="round" stroke-linejoin="round"/> <path d="M15.2798 16.83V11.4799C15.2798 10.3399 14.5698 10.18 13.8398 10.38L11.0997 11.13C10.5997 11.27 10.2598 11.6599 10.2598 12.2299V13.18V13.82V17.74" stroke="white" stroke-width="1.5" stroke-linecap="round" stroke-linejoin="round"/> <path d="M13.91 18.2C14.6667 18.2 15.2801 17.5866 15.2801 16.83C15.2801 16.0733 14.6667 15.46 13.91 15.46C13.1534 15.46 12.54 16.0733 12.54 16.83C12.54 17.5866 13.1534 18.2 13.91 18.2Z" stroke="white" stroke-width="1.5" stroke-linecap="round" stroke-linejoin="round"/> <path d="M10.2598 13.83L15.2798 12.46" stroke="white" stroke-width="1.5" stroke-linecap="round" stroke-linejoin="round"/> </g> </g> <defs> <clipPath id="clip0_4418_5545"> <rect width="24" height="24" fill="white"/> </clipPath> </defs> </svg>
