<svg width="24" height="24" viewBox="0 0 24 24" fill="none" xmlns="http://www.w3.org/2000/svg"> <g clip-path="url(#clip0_4418_6192)"> <path d="M4.41015 16.75C4.17015 19.64 6.35015 22 9.25015 22H14.0402C17.3002 22 19.5402 19.37 19.0002 16.15C18.4302 12.77 15.1702 10 11.7402 10C8.02015 10 4.72015 13.04 4.41015 16.75Z" stroke="white" stroke-width="1.5" stroke-linecap="round" stroke-linejoin="round"/> <path opacity="0.34" d="M10.4702 7.5C11.8509 7.5 12.9702 6.38071 12.9702 5C12.9702 3.61929 11.8509 2.5 10.4702 2.5C9.0895 2.5 7.97021 3.61929 7.97021 5C7.97021 6.38071 9.0895 7.5 10.4702 7.5Z" stroke="white" stroke-width="1.5" stroke-linecap="round" stroke-linejoin="round"/> <path opacity="0.34" d="M17.2998 8.69922C18.4044 8.69922 19.2998 7.80379 19.2998 6.69922C19.2998 5.59465 18.4044 4.69922 17.2998 4.69922C16.1952 4.69922 15.2998 5.59465 15.2998 6.69922C15.2998 7.80379 16.1952 8.69922 17.2998 8.69922Z" stroke="white" stroke-width="1.5" stroke-linecap="round" stroke-linejoin="round"/> <path opacity="0.34" d="M21 12.6992C21.8284 12.6992 22.5 12.0276 22.5 11.1992C22.5 10.3708 21.8284 9.69922 21 9.69922C20.1716 9.69922 19.5 10.3708 19.5 11.1992C19.5 12.0276 20.1716 12.6992 21 12.6992Z" stroke="white" stroke-width="1.5" stroke-linecap="round" stroke-linejoin="round"/> <path opacity="0.34" d="M3.97021 10.6992C5.07478 10.6992 5.97021 9.80379 5.97021 8.69922C5.97021 7.59465 5.07478 6.69922 3.97021 6.69922C2.86565 6.69922 1.97021 7.59465 1.97021 8.69922C1.97021 9.80379 2.86565 10.6992 3.97021 10.6992Z" stroke="white" stroke-width="1.5" stroke-linecap="round" stroke-linejoin="round"/> </g> <defs> <clipPath id="clip0_4418_6192"> <rect width="24" height="24" fill="white"/> </clipPath> </defs> </svg>
