<svg width="24" height="24" viewBox="0 0 24 24" fill="none" xmlns="http://www.w3.org/2000/svg"> <g clip-path="url(#clip0_4418_5451)"> <path d="M22.0001 11.6495H16.2001C14.6701 11.6495 13.6201 10.4895 13.6201 9.06952V5.84949C13.6201 4.42949 14.6701 3.26953 16.2001 3.26953H19.4201C20.8401 3.26953 22.0001 4.42949 22.0001 5.84949V11.6495Z" stroke="white" stroke-width="1.5" stroke-linecap="round" stroke-linejoin="round"/> <path d="M22.0002 11.6494C22.0002 17.6994 20.8702 18.6994 17.4702 20.7194" stroke="white" stroke-width="1.5" stroke-linecap="round" stroke-linejoin="round"/> <g opacity="0.4"> <path d="M10.3702 11.6495H4.57023C3.04023 11.6495 1.99023 10.4895 1.99023 9.06952V5.84949C1.99023 4.42949 3.04023 3.26953 4.57023 3.26953H7.80023C9.22023 3.26953 10.3802 4.42949 10.3802 5.84949V11.6495" stroke="white" stroke-width="1.5" stroke-linecap="round" stroke-linejoin="round"/> <path d="M10.3698 11.6494C10.3698 17.6994 9.23984 18.6994 5.83984 20.7194" stroke="white" stroke-width="1.5" stroke-linecap="round" stroke-linejoin="round"/> </g> </g> <defs> <clipPath id="clip0_4418_5451"> <rect width="24" height="24" fill="white"/> </clipPath> </defs> </svg>
