<svg width="24" height="24" viewBox="0 0 24 24" fill="none" xmlns="http://www.w3.org/2000/svg"> <g clip-path="url(#clip0_4418_5455)"> <g opacity="0.4"> <path d="M16.9999 11.8398H14.3199C13.6099 11.8398 13.1299 11.2998 13.1299 10.6498V9.15973C13.1299 8.50973 13.6099 7.96973 14.3199 7.96973H15.8099C16.4599 7.96973 16.9999 8.50973 16.9999 9.15973V11.8398Z" stroke="white" stroke-width="1.5" stroke-linecap="round" stroke-linejoin="round"/> <path d="M16.9997 11.8398C16.9997 14.6298 16.4797 15.0998 14.9097 16.0298" stroke="white" stroke-width="1.5" stroke-linecap="round" stroke-linejoin="round"/> <path d="M10.8602 11.8398H8.18022C7.47022 11.8398 6.99023 11.2998 6.99023 10.6498V9.15973C6.99023 8.50973 7.47022 7.96973 8.18022 7.96973H9.67023C10.3202 7.96973 10.8602 8.50973 10.8602 9.15973V11.8398Z" stroke="white" stroke-width="1.5" stroke-linecap="round" stroke-linejoin="round"/> <path d="M10.86 11.8398C10.86 14.6298 10.34 15.0998 8.77002 16.0298" stroke="white" stroke-width="1.5" stroke-linecap="round" stroke-linejoin="round"/> </g> <path d="M12 22C17.5228 22 22 17.5228 22 12C22 6.47715 17.5228 2 12 2C6.47715 2 2 6.47715 2 12C2 17.5228 6.47715 22 12 22Z" stroke="white" stroke-width="1.5" stroke-linecap="round" stroke-linejoin="round"/> </g> <defs> <clipPath id="clip0_4418_5455"> <rect width="24" height="24" fill="white"/> </clipPath> </defs> </svg>
