<svg width="24" height="24" viewBox="0 0 24 24" fill="none" xmlns="http://www.w3.org/2000/svg"> <g clip-path="url(#clip0_655_9659)"> <path d="M5.73047 15.22V13.98C5.73047 10.52 8.54047 7.71001 12.0005 7.71001C15.4605 7.71001 18.2705 10.52 18.2705 13.98V15.22" stroke="white" stroke-width="1.5" stroke-linecap="round" stroke-linejoin="round"/> <path d="M5.72938 15.22C6.75938 15.22 7.59938 16.06 7.59938 17.09V18.96C7.59938 19.99 6.75938 20.83 5.72938 20.83C4.69938 20.83 3.85938 19.99 3.85938 18.96V17.09C3.85938 16.06 4.69938 15.22 5.72938 15.22Z" stroke="white" stroke-width="1.5" stroke-linecap="round" stroke-linejoin="round"/> <path d="M18.2704 15.22C19.3004 15.22 20.1404 16.06 20.1404 17.09V18.96C20.1404 19.99 19.3004 20.83 18.2704 20.83C17.2404 20.83 16.4004 19.99 16.4004 18.96V17.09C16.4004 16.06 17.2404 15.22 18.2704 15.22Z" stroke="white" stroke-width="1.5" stroke-linecap="round" stroke-linejoin="round"/> <path opacity="0.4" d="M6.2 11.59H4.49C3.12 11.59 2 10.48 2 9.1V8.48H4.33C5.36 8.48 6.2 9.32 6.2 10.35V11.59Z" stroke="white" stroke-width="1.5" stroke-linecap="round" stroke-linejoin="round"/> <path opacity="0.4" d="M17.8008 11.59H19.5108C20.8808 11.59 22.0008 10.48 22.0008 9.1V8.48H19.6708C18.6408 8.48 17.8008 9.32 17.8008 10.35V11.59Z" stroke="white" stroke-width="1.5" stroke-linecap="round" stroke-linejoin="round"/> <path d="M8.43008 8.82C7.93008 7.41 6.76008 6.33 5.31008 5.99C4.74008 5.85 4.33008 5.34 4.33008 4.74V3.73" stroke="white" stroke-width="1.5" stroke-linecap="round" stroke-linejoin="round"/> <path opacity="0.4" d="M6.82031 2.48V6.68" stroke="white" stroke-width="1.5" stroke-linecap="round" stroke-linejoin="round"/> <path d="M15.5703 8.82C16.0703 7.41 17.2403 6.33 18.6903 5.99C19.2603 5.85 19.6703 5.34 19.6703 4.74V3.73" stroke="white" stroke-width="1.5" stroke-linecap="round" stroke-linejoin="round"/> <path opacity="0.4" d="M17.1797 2.48V6.68" stroke="white" stroke-width="1.5" stroke-linecap="round" stroke-linejoin="round"/> </g> <defs> <clipPath id="clip0_655_9659"> <rect width="24" height="24" fill="white"/> </clipPath> </defs> </svg>
