<svg width="24" height="24" viewBox="0 0 24 24" fill="none" xmlns="http://www.w3.org/2000/svg"> <g clip-path="url(#clip0_655_9590)"> <path d="M9.7793 18.11C9.7793 19.33 10.7793 20.33 11.9993 20.33C13.2193 20.33 14.2193 19.33 14.2193 18.11" stroke="white" stroke-width="1.5" stroke-linecap="round" stroke-linejoin="round"/> <path opacity="0.4" d="M9.77984 14.22C9.77984 13 8.77984 12 7.55984 12C6.33984 12 5.33984 13 5.33984 14.22" stroke="white" stroke-width="1.5" stroke-linecap="round" stroke-linejoin="round"/> <path opacity="0.4" d="M18.6705 14.22C18.6705 13 17.6705 12 16.4505 12C15.2305 12 14.2305 13 14.2305 14.22" stroke="white" stroke-width="1.5" stroke-linecap="round" stroke-linejoin="round"/> <path d="M2 18.11C2 20.22 3.78 22 5.89 22C8 22 9.78 20.22 9.78 18.11" stroke="white" stroke-width="1.5" stroke-linecap="round" stroke-linejoin="round"/> <path d="M14.2207 18.11C14.2207 20.22 16.0007 22 18.1107 22C20.2207 22 22.0007 20.22 22.0007 18.11" stroke="white" stroke-width="1.5" stroke-linecap="round" stroke-linejoin="round"/> <path d="M2 9.56001C4.89 7.56001 8.33 6.45001 12 6.45001C15.67 6.45001 19.11 7.56001 22 9.56001" stroke="white" stroke-width="1.5" stroke-linecap="round" stroke-linejoin="round"/> <path d="M18.6699 7.67V2" stroke="white" stroke-width="1.5" stroke-linecap="round" stroke-linejoin="round"/> <path d="M5.33008 7.67V2" stroke="white" stroke-width="1.5" stroke-linecap="round" stroke-linejoin="round"/> </g> <defs> <clipPath id="clip0_655_9590"> <rect width="24" height="24" fill="white"/> </clipPath> </defs> </svg>
