<svg width="24" height="24" viewBox="0 0 24 24" fill="none" xmlns="http://www.w3.org/2000/svg"> <g clip-path="url(#clip0_4418_5856)"> <path d="M10.4901 2.23055L5.50015 4.10054C4.35015 4.53054 3.41016 5.89053 3.41016 7.12053V14.5505C3.41016 15.7305 4.19017 17.2805 5.14017 17.9905L9.44016 21.2005C10.8502 22.2605 13.1701 22.2605 14.5801 21.2005L18.8802 17.9905C19.8302 17.2805 20.6101 15.7305 20.6101 14.5505V7.12053C20.6101 5.89053 19.6701 4.53054 18.5201 4.10054L13.5302 2.23055C12.6802 1.92055 11.3201 1.92055 10.4901 2.23055Z" stroke="white" stroke-width="1.5" stroke-linecap="round" stroke-linejoin="round"/> <path opacity="0.4" d="M12.0002 10.9204C11.9602 10.9204 11.9102 10.9204 11.8702 10.9204C10.9302 10.8904 10.1802 10.1104 10.1802 9.1604C10.1802 8.1904 10.9702 7.40039 11.9402 7.40039C12.9102 7.40039 13.7002 8.1904 13.7002 9.1604C13.6902 10.1204 12.9402 10.8904 12.0002 10.9204Z" stroke="white" stroke-width="1.5" stroke-linecap="round" stroke-linejoin="round"/> <path opacity="0.4" d="M10.01 13.7194C9.05004 14.3594 9.05004 15.4094 10.01 16.0494C11.1 16.7794 12.89 16.7794 13.98 16.0494C14.94 15.4094 14.94 14.3594 13.98 13.7194C12.9 12.9894 11.11 12.9894 10.01 13.7194Z" stroke="white" stroke-width="1.5" stroke-linecap="round" stroke-linejoin="round"/> </g> <defs> <clipPath id="clip0_4418_5856"> <rect width="24" height="24" fill="white"/> </clipPath> </defs> </svg>
