<svg width="24" height="24" viewBox="0 0 24 24" fill="none" xmlns="http://www.w3.org/2000/svg"> <g clip-path="url(#clip0_4418_6544)"> <path d="M14.5402 2.25977C13.5102 2.25977 12.6802 3.08975 12.6802 4.11975V8.75977C12.6802 9.78977 13.5102 10.6198 14.5402 10.6198C15.5702 10.6198 16.4002 9.78977 16.4002 8.75977V4.11975C16.4002 3.08975 15.5702 2.25977 14.5402 2.25977Z" stroke="white" stroke-width="1.5" stroke-miterlimit="10" stroke-linecap="round" stroke-linejoin="round"/> <path opacity="0.4" d="M18.6201 10.6205H20.1901C21.0601 10.6205 21.7601 9.92045 21.7601 9.05045C21.7601 8.18045 21.0601 7.48047 20.1901 7.48047C19.3201 7.48047 18.6201 8.18045 18.6201 9.05045V10.6205Z" stroke="white" stroke-width="1.5" stroke-miterlimit="10" stroke-linecap="round" stroke-linejoin="round"/> <path d="M2 9.22916C2 10.2592 2.83 11.0891 3.86 11.0891H8.5C9.53 11.0891 10.36 10.2592 10.36 9.22916C10.36 8.19916 9.53 7.36914 8.5 7.36914H3.86C2.83 7.36914 2 8.19916 2 9.22916Z" stroke="white" stroke-width="1.5" stroke-miterlimit="10" stroke-linecap="round" stroke-linejoin="round"/> <path opacity="0.4" d="M10.3602 5.13025V3.56024C10.3602 2.69024 9.66021 1.99023 8.79021 1.99023C7.92021 1.99023 7.22021 2.69024 7.22021 3.56024C7.22021 4.43024 7.92021 5.13025 8.79021 5.13025H10.3602Z" stroke="white" stroke-width="1.5" stroke-miterlimit="10" stroke-linecap="round" stroke-linejoin="round"/> <path d="M9.42981 21.7701C10.4598 21.7701 11.2898 20.9402 11.2898 19.9102V15.2701C11.2898 14.2401 10.4598 13.4102 9.42981 13.4102C8.39981 13.4102 7.56982 14.2401 7.56982 15.2701V19.9102C7.56982 20.9302 8.39981 21.7701 9.42981 21.7701Z" stroke="white" stroke-width="1.5" stroke-miterlimit="10" stroke-linecap="round" stroke-linejoin="round"/> <path opacity="0.4" d="M5.36021 13.4102H3.79021C2.92021 13.4102 2.22021 14.1102 2.22021 14.9802C2.22021 15.8502 2.92021 16.5501 3.79021 16.5501C4.66021 16.5501 5.36021 15.8502 5.36021 14.9802V13.4102Z" stroke="white" stroke-width="1.5" stroke-miterlimit="10" stroke-linecap="round" stroke-linejoin="round"/> <path d="M21.9699 14.7994C21.9699 13.7694 21.1399 12.9395 20.1099 12.9395H15.4699C14.4399 12.9395 13.6099 13.7694 13.6099 14.7994C13.6099 15.8294 14.4399 16.6595 15.4699 16.6595H20.1099C21.1399 16.6595 21.9699 15.8294 21.9699 14.7994Z" stroke="white" stroke-width="1.5" stroke-miterlimit="10" stroke-linecap="round" stroke-linejoin="round"/> <path opacity="0.4" d="M13.6099 18.8398V20.4099C13.6099 21.2799 14.3099 21.9799 15.1799 21.9799C16.0499 21.9799 16.7499 21.2799 16.7499 20.4099C16.7499 19.5399 16.0499 18.8398 15.1799 18.8398H13.6099Z" stroke="white" stroke-width="1.5" stroke-miterlimit="10" stroke-linecap="round" stroke-linejoin="round"/> </g> <defs> <clipPath id="clip0_4418_6544"> <rect width="24" height="24" fill="white"/> </clipPath> </defs> </svg>
