<svg width="24" height="24" viewBox="0 0 24 24" fill="none" xmlns="http://www.w3.org/2000/svg"> <g clip-path="url(#clip0_4418_5603)"> <path d="M11.9702 22C17.4931 22 21.9702 17.5228 21.9702 12C21.9702 6.47715 17.4931 2 11.9702 2C6.44737 2 1.97021 6.47715 1.97021 12C1.97021 17.5228 6.44737 22 11.9702 22Z" stroke="white" stroke-width="1.5" stroke-linecap="round" stroke-linejoin="round"/> <path opacity="0.4" d="M10.73 16.2295H13.27C15.39 16.2295 16.23 15.3795 16.23 13.2695V10.7295C16.23 8.60953 15.38 7.76953 13.27 7.76953H10.73C8.61002 7.76953 7.77002 8.61953 7.77002 10.7295V13.2695C7.77002 15.3795 8.62002 16.2295 10.73 16.2295Z" stroke="white" stroke-width="1.5" stroke-linecap="round" stroke-linejoin="round"/> </g> <defs> <clipPath id="clip0_4418_5603"> <rect width="24" height="24" fill="white"/> </clipPath> </defs> </svg>
