<svg width="24" height="24" viewBox="0 0 24 24" fill="none" xmlns="http://www.w3.org/2000/svg"> <g clip-path="url(#clip0_4418_169604)"> <path d="M4.40476 15.5264L8.93476 20.0564C10.7948 21.9164 13.8148 21.9164 15.6848 20.0564L20.0748 15.6664C21.9348 13.8064 21.9348 10.7864 20.0748 8.91637L15.5348 4.39637C14.5848 3.44637 13.2748 2.93637 11.9348 3.00637L6.93476 3.24637C4.93476 3.33637 3.34476 4.92637 3.24476 6.91637L3.00476 11.9164C2.94476 13.2664 3.45476 14.5764 4.40476 15.5264Z" stroke="white" stroke-width="1.5" stroke-linecap="round" stroke-linejoin="round"/> <path opacity="0.4" d="M9.73486 12.2266C11.1156 12.2266 12.2349 11.1073 12.2349 9.72656C12.2349 8.34585 11.1156 7.22656 9.73486 7.22656C8.35415 7.22656 7.23486 8.34585 7.23486 9.72656C7.23486 11.1073 8.35415 12.2266 9.73486 12.2266Z" stroke="white" stroke-width="1.5" stroke-linecap="round"/> <path opacity="0.4" d="M13.2349 17.2266L17.2349 13.2266" stroke="white" stroke-width="1.5" stroke-miterlimit="10" stroke-linecap="round" stroke-linejoin="round"/> </g> <defs> <clipPath id="clip0_4418_169604"> <rect width="24" height="24" fill="white"/> </clipPath> </defs> </svg>
