<svg width="24" height="24" viewBox="0 0 24 24" fill="none" xmlns="http://www.w3.org/2000/svg"> <g clip-path="url(#clip0_3111_32687)"> <path d="M18 18.8597H17.24C16.44 18.8597 15.68 19.1697 15.12 19.7297L13.41 21.4197C12.63 22.1897 11.36 22.1897 10.58 21.4197L8.87 19.7297C8.31 19.1697 7.54 18.8597 6.75 18.8597H6C4.34 18.8597 3 17.5298 3 15.8898V4.97974C3 3.33974 4.34 2.00977 6 2.00977H18C19.66 2.00977 21 3.33974 21 4.97974V15.8898C21 17.5198 19.66 18.8597 18 18.8597Z" stroke="white" stroke-width="1.5" stroke-miterlimit="10" stroke-linecap="round" stroke-linejoin="round"/> <path opacity="0.4" d="M11.9999 9.99982C13.2868 9.99982 14.33 8.95662 14.33 7.6698C14.33 6.38298 13.2868 5.33984 11.9999 5.33984C10.7131 5.33984 9.66992 6.38298 9.66992 7.6698C9.66992 8.95662 10.7131 9.99982 11.9999 9.99982Z" stroke="white" stroke-width="1.5" stroke-linecap="round" stroke-linejoin="round"/> <path opacity="0.4" d="M16 15.6603C16 13.8603 14.21 12.4004 12 12.4004C9.79 12.4004 8 13.8603 8 15.6603" stroke="white" stroke-width="1.5" stroke-linecap="round" stroke-linejoin="round"/> </g> <defs> <clipPath id="clip0_3111_32687"> <rect width="24" height="24" fill="white"/> </clipPath> </defs> </svg>
