<svg width="24" height="24" viewBox="0 0 24 24" fill="none" xmlns="http://www.w3.org/2000/svg"> <g clip-path="url(#clip0_655_9670)"> <path d="M2 5.16C3.67 5.16 3.67 5.94 5.33 5.94C6.99 5.94 7 5.16 8.66 5.16C10.32 5.16 10.33 5.94 11.99 5.94C13.65 5.94 13.66 5.16 15.32 5.16C16.98 5.16 16.99 5.94 18.65 5.94C20.31 5.94 20.32 5.16 21.98 5.16" stroke="white" stroke-width="1.5" stroke-linecap="round" stroke-linejoin="round"/> <path d="M5.33008 7.7V5.94" stroke="white" stroke-width="1.5" stroke-linecap="round" stroke-linejoin="round"/> <path opacity="0.4" d="M8.66992 5.15999V3.39999" stroke="white" stroke-width="1.5" stroke-linecap="round" stroke-linejoin="round"/> <path opacity="0.4" d="M15.3301 5.15999V3.39999" stroke="white" stroke-width="1.5" stroke-linecap="round" stroke-linejoin="round"/> <path d="M12 7.7V5.94" stroke="white" stroke-width="1.5" stroke-linecap="round" stroke-linejoin="round"/> <path d="M18.6699 7.7V5.94" stroke="white" stroke-width="1.5" stroke-linecap="round" stroke-linejoin="round"/> <path d="M2 9.45999C3.67 9.45999 3.67 10.24 5.33 10.24C6.99 10.24 7 9.45999 8.66 9.45999C10.32 9.45999 10.33 10.24 11.99 10.24C13.65 10.24 13.66 9.45999 15.32 9.45999C16.98 9.45999 16.99 10.24 18.65 10.24C20.31 10.24 20.32 9.45999 21.98 9.45999" stroke="white" stroke-width="1.5" stroke-linecap="round" stroke-linejoin="round"/> <path d="M5.33008 12V10.24" stroke="white" stroke-width="1.5" stroke-linecap="round" stroke-linejoin="round"/> <path opacity="0.4" d="M8.66992 9.46001V7.70001" stroke="white" stroke-width="1.5" stroke-linecap="round" stroke-linejoin="round"/> <path opacity="0.4" d="M15.3301 9.46001V7.70001" stroke="white" stroke-width="1.5" stroke-linecap="round" stroke-linejoin="round"/> <path d="M12 12V10.24" stroke="white" stroke-width="1.5" stroke-linecap="round" stroke-linejoin="round"/> <path d="M18.6699 12V10.24" stroke="white" stroke-width="1.5" stroke-linecap="round" stroke-linejoin="round"/> <path d="M2 13.76C3.67 13.76 3.67 14.54 5.33 14.54C6.99 14.54 7 13.76 8.66 13.76C10.32 13.76 10.33 14.54 11.99 14.54C13.65 14.54 13.66 13.76 15.32 13.76C16.98 13.76 16.99 14.54 18.65 14.54C20.31 14.54 20.32 13.76 21.98 13.76" stroke="white" stroke-width="1.5" stroke-linecap="round" stroke-linejoin="round"/> <path d="M5.33008 16.3V14.54" stroke="white" stroke-width="1.5" stroke-linecap="round" stroke-linejoin="round"/> <path opacity="0.4" d="M8.66992 13.76V12" stroke="white" stroke-width="1.5" stroke-linecap="round" stroke-linejoin="round"/> <path opacity="0.4" d="M15.3301 13.76V12" stroke="white" stroke-width="1.5" stroke-linecap="round" stroke-linejoin="round"/> <path d="M12 16.3V14.54" stroke="white" stroke-width="1.5" stroke-linecap="round" stroke-linejoin="round"/> <path d="M18.6699 16.3V14.54" stroke="white" stroke-width="1.5" stroke-linecap="round" stroke-linejoin="round"/> <path d="M2 18.05C3.67 18.05 3.67 18.83 5.33 18.83C6.99 18.83 7 18.05 8.66 18.05C10.32 18.05 10.33 18.83 11.99 18.83C13.65 18.83 13.66 18.05 15.32 18.05C16.98 18.05 16.99 18.83 18.65 18.83C20.31 18.83 20.32 18.05 21.98 18.05" stroke="white" stroke-width="1.5" stroke-linecap="round" stroke-linejoin="round"/> <path d="M5.33008 20.59V18.83" stroke="white" stroke-width="1.5" stroke-linecap="round" stroke-linejoin="round"/> <path opacity="0.4" d="M8.66992 18.05V16.29" stroke="white" stroke-width="1.5" stroke-linecap="round" stroke-linejoin="round"/> <path opacity="0.4" d="M15.3301 18.05V16.29" stroke="white" stroke-width="1.5" stroke-linecap="round" stroke-linejoin="round"/> <path d="M12 20.59V18.83" stroke="white" stroke-width="1.5" stroke-linecap="round" stroke-linejoin="round"/> <path d="M18.6699 20.59V18.83" stroke="white" stroke-width="1.5" stroke-linecap="round" stroke-linejoin="round"/> </g> <defs> <clipPath id="clip0_655_9670"> <rect width="24" height="24" fill="white"/> </clipPath> </defs> </svg>
