<svg width="24" height="24" viewBox="0 0 24 24" fill="none" xmlns="http://www.w3.org/2000/svg">
<path fill-rule="evenodd" clip-rule="evenodd" d="M21 6C21 4.34315 19.6569 3 18 3H6C4.34315 3 3 4.34315 3 6V13.5C3 13.7761 3.22386 14 3.5 14H20.5C20.7761 14 21 13.7761 21 13.5V6ZM10.8321 4.9453C10.6466 4.6671 10.3344 4.5 10 4.5C9.66565 4.5 9.35342 4.6671 9.16795 4.9453L7.46482 7.5H6C5.44772 7.5 5 7.94772 5 8.5C5 9.05228 5.44772 9.5 6 9.5H8C8.33435 9.5 8.64658 9.3329 8.83205 9.0547L10 7.30278L13.1679 12.0547C13.3534 12.3329 13.6656 12.5 14 12.5C14.3344 12.5 14.6466 12.3329 14.8321 12.0547L16.5352 9.5H18C18.5523 9.5 19 9.05228 19 8.5C19 7.94772 18.5523 7.5 18 7.5H16C15.6656 7.5 15.3534 7.6671 15.1679 7.9453L14 9.69722L10.8321 4.9453Z" fill="black"/>
<path fill-rule="evenodd" clip-rule="evenodd" d="M18 21C19.6569 21 21 19.6569 21 18V16.5C21 16.2239 20.7761 16 20.5 16H3.5C3.22386 16 3 16.2239 3 16.5V18C3 19.6569 4.34315 21 6 21H18ZM5 18.5C5 17.9477 5.44772 17.5 6 17.5H6.01C6.56228 17.5 7.01 17.9477 7.01 18.5C7.01 19.0523 6.56228 19.5 6.01 19.5H6C5.44772 19.5 5 19.0523 5 18.5ZM8 18.5C8 17.9477 8.44772 17.5 9 17.5H10C10.5523 17.5 11 17.9477 11 18.5C11 19.0523 10.5523 19.5 10 19.5H9C8.44772 19.5 8 19.0523 8 18.5Z" fill="black"/>
</svg>
