<svg width="24" height="24" viewBox="0 0 24 24" fill="none" xmlns="http://www.w3.org/2000/svg">
<path d="M11.9999 19.25C12.4142 19.25 12.7499 19.5858 12.7499 20V22C12.7499 22.4142 12.4142 22.75 11.9999 22.75C11.5857 22.75 11.2499 22.4142 11.2499 22V20C11.2499 19.5858 11.5857 19.25 11.9999 19.25ZM3.96967 16.9697C4.26256 16.6768 4.73732 16.6768 5.03022 16.9697C5.32311 17.2626 5.32311 17.7374 5.03022 18.0303L3.53022 19.5303C3.23732 19.8232 2.76256 19.8232 2.46967 19.5303C2.17678 19.2374 2.17678 18.7626 2.46967 18.4697L3.96967 16.9697ZM18.9697 16.9697C19.2626 16.6768 19.7373 16.6768 20.0302 16.9697L21.5302 18.4697C21.8231 18.7626 21.8231 19.2374 21.5302 19.5303C21.2373 19.8232 20.7626 19.8232 20.4697 19.5303L18.9697 18.0303C18.6768 17.7374 18.6768 17.2626 18.9697 16.9697ZM11.9999 7C14.8833 7 17.4505 8.67577 19.1015 10.0869C20.299 11.1105 20.299 12.8895 19.1015 13.9131C17.4505 15.3242 14.8833 17 11.9999 17C9.11658 17 6.54943 15.3242 4.89838 13.9131C3.70084 12.8895 3.70084 11.1105 4.89838 10.0869C6.54943 8.67577 9.11658 7 11.9999 7ZM11.9999 10C10.8954 10 9.99994 10.8954 9.99994 12C9.99994 13.1046 10.8954 14 11.9999 14C13.1045 14 13.9999 13.1046 13.9999 12C13.9999 10.8954 13.1045 10 11.9999 10ZM2.46967 4.46973C2.76256 4.17683 3.23732 4.17683 3.53022 4.46973L5.03022 5.96973C5.32311 6.26262 5.32311 6.73738 5.03022 7.03027C4.73732 7.32317 4.26256 7.32317 3.96967 7.03027L2.46967 5.53027C2.17678 5.23738 2.17678 4.76262 2.46967 4.46973ZM20.4697 4.46973C20.7626 4.17683 21.2373 4.17683 21.5302 4.46973C21.8231 4.76262 21.8231 5.23738 21.5302 5.53027L20.0302 7.03027C19.7373 7.32317 19.2626 7.32317 18.9697 7.03027C18.6768 6.73738 18.6768 6.26262 18.9697 5.96973L20.4697 4.46973ZM11.9999 1.25C12.4142 1.25 12.7499 1.58579 12.7499 2V4C12.7499 4.41421 12.4142 4.75 11.9999 4.75C11.5857 4.75 11.2499 4.41421 11.2499 4V2C11.2499 1.58579 11.5857 1.25 11.9999 1.25Z" fill="black"/>
</svg>
