<svg width="24" height="24" viewBox="0 0 24 24" fill="none" xmlns="http://www.w3.org/2000/svg">
<path d="M9 2.5C9 2.22386 8.77614 2 8.5 2H6C4.34315 2 3 3.34315 3 5V17C3 18.6569 4.34315 20 6 20H11.708C11.5742 19.6938 11.5 19.3556 11.5 19V17.5C11.5 16.1193 12.6193 15 14 15C14 13.6193 15.1193 12.5 16.5 12.5H17V10.5C17 10.2239 16.7761 10 16.5 10H12C10.3431 10 9 8.65689 9 7.00003V2.5Z" fill="black"/>
<path d="M13.5 19C13.5 19.2761 13.7239 19.5 14 19.5H15.75C15.8881 19.5 16 19.6119 16 19.75V21.5C16 21.7761 16.2239 22 16.5 22H18C18.2761 22 18.5 21.7761 18.5 21.5V19.75C18.5 19.6119 18.6119 19.5 18.75 19.5H20.5C20.7761 19.5 21 19.2761 21 19V17.5C21 17.2239 20.7761 17 20.5 17H18.75C18.6119 17 18.5 16.8881 18.5 16.75V15C18.5 14.7239 18.2761 14.5 18 14.5H16.5C16.2239 14.5 16 14.7239 16 15V16.75C16 16.8881 15.8881 17 15.75 17H14C13.7239 17 13.5 17.2239 13.5 17.5V19Z" fill="black"/>
<path d="M11.8787 2.87875L16.1213 7.12139C16.2846 7.28471 16.4272 7.46491 16.5472 7.65791C16.6433 7.81233 16.524 8.00007 16.3421 8.00007H12C11.4477 8.00007 11 7.55236 11 7.00007V2.65797C11 2.4761 11.1877 2.35675 11.3422 2.45283C11.5352 2.57289 11.7154 2.71543 11.8787 2.87875Z" fill="black"/>
</svg>
