<svg width="24" height="24" viewBox="0 0 24 24" fill="none" xmlns="http://www.w3.org/2000/svg">
<path d="M5.11551 7.3283L7.44649 3.07036C7.45828 3.04796 7.4704 3.02582 7.48286 3.00394L7.44649 3.07036C7.27255 3.40083 7.17255 3.78764 7.17255 4.20107C7.17255 4.7873 7.37361 5.32 7.70142 5.71447L15.132 14.1843L18.853 18.4074C19.2161 18.8195 19.1914 19.4523 18.7974 19.8336L16.848 21.7201C16.4392 22.1157 15.7917 22.0886 15.4159 21.6603L5.37799 10.2184C4.99717 9.8164 4.75879 9.24154 4.75879 8.60322C4.75879 8.16138 4.873 7.74994 5.06962 7.40518L5.11551 7.3283Z" fill="black"/>
<path d="M14 2C14.4 2 15.1497 3.06529 15.4746 3.59793C15.5762 3.78336 15.6276 3.98946 15.6276 4.20107C15.6276 4.5084 15.524 4.7644 15.3836 4.93807L14.5822 5.8537C14.2426 5.64442 13.842 5.52279 13.4082 5.52279H10.5963C10.1619 5.52279 9.76076 5.6448 9.42077 5.85468L8.61625 4.93764C8.47594 4.76398 8.37256 4.50814 8.37256 4.20107C8.37256 3.96648 8.43324 3.75996 8.52555 3.59793C8.85037 3.06529 9.6 2 10 2H14Z" fill="black"/>
<path d="M15.7981 13.4271L12.6694 9.86096L16.2984 5.71447C16.6262 5.32 16.8273 4.7873 16.8273 4.20107C16.8273 3.78764 16.7273 3.40083 16.5533 3.07036L18.8843 7.3283L18.9134 7.37618C19.1203 7.72676 19.241 8.14892 19.241 8.60322C19.241 9.21756 19.0202 9.77311 18.6641 10.1724L18.6218 10.2184L15.7981 13.4271Z" fill="black"/>
<path d="M8.19952 14.9509L11.3234 18.5117L8.55515 21.6574C8.17739 22.0866 7.527 22.1111 7.11938 21.7114L5.2042 19.8334C4.81467 19.4515 4.79203 18.8225 5.15304 18.4123L8.19952 14.9509Z" fill="black"/>
<path d="M16.5533 3.07036C16.5415 3.04796 16.5294 3.02581 16.5169 3.00394L16.5533 3.07036Z" fill="black"/>
</svg>
