<svg width="24" height="24" viewBox="0 0 24 24" fill="none" xmlns="http://www.w3.org/2000/svg">
<path fill-rule="evenodd" clip-rule="evenodd" d="M15.1416 15.1421L16.1118 18.9387L16.8975 16.6918C17.0164 16.3517 17.3066 16.1775 17.5586 16.1327C17.811 16.0878 18.1224 16.1522 18.348 16.3967L19.384 17.5195H21C21.4142 17.5195 21.75 17.8552 21.75 18.2695C21.75 18.6837 21.4142 19.0195 21 19.0195H19.1076C18.8792 19.0195 18.6434 18.9287 18.4711 18.742L17.9624 18.1907L16.8306 21.4274C16.6793 21.8602 16.2746 22.0098 15.9855 21.9994C15.6964 21.9891 15.2971 21.8092 15.1818 21.3579L14.1552 17.3406L13.6619 18.499C13.5143 18.8455 13.1793 19.0195 12.8681 19.0195H11C10.5858 19.0195 10.25 18.6837 10.25 18.2695C10.25 17.8552 10.5858 17.5195 11 17.5195H12.4487L13.513 15.0205C13.6851 14.6164 14.0768 14.4837 14.362 14.5018C14.6472 14.5199 15.0297 14.7042 15.1416 15.1421Z" fill="black"/>
<path fill-rule="evenodd" clip-rule="evenodd" d="M14.1382 22H8.8C7.11984 22 6.27976 22 5.63803 21.673C5.07354 21.3854 4.6146 20.9265 4.32698 20.362C4 19.7202 4 18.8802 4 17.2V6.8C4 5.11984 4 4.27976 4.32698 3.63803C4.6146 3.07354 5.07354 2.6146 5.63803 2.32698C6.27976 2 7.11984 2 8.8 2H12.2574C12.6902 2 13.1135 2.09355 13.5 2.26946C13.824 2.41689 14.1222 2.62216 14.3787 2.87868L19.1213 7.62132C19.3778 7.87784 19.5831 8.17604 19.7305 8.5C19.9064 8.88655 20 9.30977 20 9.74264V16.3195H19.9093L19.2297 15.5829C18.6849 14.9925 17.939 14.8462 17.3483 14.9512C17.0516 15.004 16.7241 15.1349 16.4354 15.3588L16.3041 14.845C16.246 14.6178 16.1584 14.4198 16.0501 14.2484C16.4409 14.2226 16.75 13.8974 16.75 13.5C16.75 13.0858 16.4142 12.75 16 12.75H8C7.58579 12.75 7.25 13.0858 7.25 13.5C7.25 13.9142 7.58579 14.25 8 14.25H12.565C12.5073 14.3421 12.4548 14.4421 12.4087 14.5503L11.6848 16.25H8C7.58579 16.25 7.25 16.5858 7.25 17C7.25 17.4142 7.58579 17.75 8 17.75H9.11975C9.07416 17.9154 9.0498 18.0896 9.0498 18.2695C9.0498 19.3464 9.92285 20.2195 10.9998 20.2195H12.8679C13.1149 20.2195 13.3711 20.1729 13.6161 20.0784L14.0189 21.655C14.0505 21.7785 14.0907 21.8934 14.1382 22ZM14.4551 4.2389L18.2611 8.04486C18.467 8.25072 18.6317 8.49002 18.75 8.75H16.1575C14.8279 8.75 13.75 7.67213 13.75 6.34251V3.75C14.01 3.86831 14.2493 4.03304 14.4551 4.2389Z" fill="black"/>
<path d="M17.9613 21.8288C18.1054 21.7876 18.2374 21.7365 18.362 21.673C18.9265 21.3854 19.3854 20.9265 19.673 20.362C19.6967 20.3156 19.7186 20.2682 19.7389 20.2195H19.1074C18.9224 20.2195 18.7345 20.1943 18.5508 20.1431L17.9632 21.8235L17.9613 21.8288Z" fill="black"/>
</svg>
