<svg width="24" height="24" viewBox="0 0 24 24" fill="none" xmlns="http://www.w3.org/2000/svg">
<path d="M13 1.25C15.0711 1.25 16.75 2.92893 16.75 5V6H18C20.2091 6 22 7.79086 22 10V18C22 20.2091 20.2091 22 18 22H6C3.79086 22 2 20.2091 2 18V10C2 7.79086 3.79086 6 6 6H7.25V5C7.25 2.92893 8.92893 1.25 11 1.25H13ZM11.4404 10C11.2164 10 11.1041 10.0003 11.0186 10.0439C10.9433 10.0823 10.8821 10.1435 10.8438 10.2188C10.8003 10.3042 10.7998 10.416 10.7998 10.6396V12.1602C10.7998 12.3841 10.8004 12.4965 10.7568 12.582C10.7185 12.6572 10.6572 12.7185 10.582 12.7568C10.4965 12.8004 10.3841 12.7998 10.1602 12.7998H8.63965C8.41605 12.7998 8.30424 12.8003 8.21875 12.8438C8.14349 12.8821 8.0823 12.9433 8.04395 13.0186C8.00035 13.1041 8 13.2164 8 13.4404V14.5596C8 14.7836 8.00035 14.8959 8.04395 14.9814C8.0823 15.0567 8.14349 15.1179 8.21875 15.1562C8.30424 15.1997 8.41605 15.2002 8.63965 15.2002H10.1602C10.3841 15.2002 10.4965 15.1996 10.582 15.2432C10.6572 15.2815 10.7185 15.3428 10.7568 15.418C10.8004 15.5035 10.7998 15.6159 10.7998 15.8398V17.3604C10.7998 17.584 10.8003 17.6958 10.8438 17.7812C10.8821 17.8565 10.9433 17.9177 11.0186 17.9561C11.1041 17.9997 11.2164 18 11.4404 18H12.5596C12.7836 18 12.8959 17.9997 12.9814 17.9561C13.0567 17.9177 13.1179 17.8565 13.1562 17.7812C13.1997 17.6958 13.2002 17.584 13.2002 17.3604V15.8398C13.2002 15.6159 13.1996 15.5035 13.2432 15.418C13.2815 15.3428 13.3428 15.2815 13.418 15.2432C13.5035 15.1996 13.6159 15.2002 13.8398 15.2002H15.3604C15.584 15.2002 15.6958 15.1997 15.7812 15.1562C15.8565 15.1179 15.9177 15.0567 15.9561 14.9814C15.9997 14.8959 16 14.7836 16 14.5596V13.4404C16 13.2164 15.9997 13.1041 15.9561 13.0186C15.9177 12.9433 15.8565 12.8821 15.7812 12.8438C15.6958 12.8003 15.584 12.7998 15.3604 12.7998H13.8398C13.6159 12.7998 13.5035 12.8004 13.418 12.7568C13.3428 12.7185 13.2815 12.6572 13.2432 12.582C13.1996 12.4965 13.2002 12.3841 13.2002 12.1602V10.6396C13.2002 10.416 13.1997 10.3042 13.1562 10.2188C13.1179 10.1435 13.0567 10.0823 12.9814 10.0439C12.8959 10.0003 12.7836 10 12.5596 10H11.4404ZM11 2.75C9.75736 2.75 8.75 3.75736 8.75 5V6H15.25V5C15.25 3.75736 14.2426 2.75 13 2.75H11Z" fill="black"/>
</svg>
