<svg width="24" height="24" viewBox="0 0 24 24" fill="none" xmlns="http://www.w3.org/2000/svg">
<path d="M14.6781 2.156C14.35 1.90314 13.8791 1.96411 13.6262 2.29219C13.3734 2.62026 13.4343 3.09121 13.7624 3.34407L16.2198 5.23811C16.5479 5.49098 17.0188 5.43 17.2717 5.10193C17.5246 4.77385 17.4636 4.30291 17.1355 4.05005L14.6781 2.156Z" fill="black"/>
<path d="M4.80566 17.8867C4.39145 17.8867 4.05566 18.2225 4.05566 18.6367C4.05566 19.0509 4.39145 19.3867 4.80566 19.3867H8.91678C9.33099 19.3867 9.66678 19.0509 9.66678 18.6367C9.66678 18.2225 9.33099 17.8867 8.91678 17.8867H4.80566Z" fill="black"/>
<path d="M7.42535 11.7597C7.6348 11.9869 7.83725 12.1923 8.04235 12.3824L7.39863 13.2463C7.15115 13.5785 7.21978 14.0484 7.55193 14.2959C7.88408 14.5434 8.35397 14.4747 8.60146 14.1426L9.23231 13.2959C9.46207 13.4408 9.70581 13.5801 9.97122 13.7208C10.4148 13.9559 10.871 13.8114 11.135 13.6783C11.4314 13.5288 11.7059 13.2909 11.931 13.0134C12.6594 12.1154 13.2662 11.3438 13.8566 10.5511C14.4051 9.81468 14.937 9.06324 15.5377 8.17842C15.737 7.88479 15.8842 7.55636 15.9433 7.2326C15.996 6.94375 16.0064 6.47745 15.6766 6.11796C14.8613 5.22932 14.1824 4.70695 13.1137 4.14411C12.6764 3.9138 12.2269 4.05163 11.9633 4.1826C11.6692 4.32878 11.3971 4.56226 11.1733 4.83533C9.74825 6.57471 8.821 7.85318 7.57192 9.67979C7.3696 9.97566 7.21963 10.3071 7.15855 10.6334C7.10432 10.9232 7.09027 11.3964 7.42535 11.7597Z" fill="black"/>
<path d="M2.75 20.5C2.33579 20.5 2 20.8358 2 21.25C2 21.6642 2.33579 22 2.75 22H21.25C21.6642 22 22 21.6642 22 21.25C22 20.8358 21.6642 20.5 21.25 20.5H18.6532C18.9934 20.0172 19.3866 19.4174 19.7587 18.7513C20.2324 17.9034 20.6849 16.925 20.9429 15.9281C21.1994 14.9366 21.2799 13.8627 20.9295 12.8685C20.381 11.3122 18.8386 10.1439 17.541 9.37937C17.1987 9.17767 16.8601 8.99653 16.5411 8.83698L16.5307 8.85242C15.922 9.74902 15.3799 10.515 14.8192 11.2679C14.7263 11.3926 14.6331 11.5166 14.5392 11.6407C15.3634 12.1627 16.1424 12.8075 16.4691 13.4555C16.7416 13.9958 16.7588 14.6797 16.5453 15.488C16.3324 16.2936 15.9099 17.1432 15.4179 17.9362C14.9291 18.724 14.3909 19.4255 13.9724 19.9321C13.7759 20.17 13.6073 20.3631 13.4847 20.5H2.75Z" fill="black"/>
</svg>
