<svg width="24" height="24" viewBox="0 0 24 24" fill="none" xmlns="http://www.w3.org/2000/svg">
<path d="M14.2064 4.16543C15.7606 2.61157 18.2803 2.61148 19.8344 4.16543C21.3886 5.71963 21.3886 8.24014 19.8344 9.79434L9.79434 19.8344C8.24014 21.3886 5.71963 21.3886 4.16543 19.8344C2.61148 18.2803 2.61157 15.7606 4.16543 14.2064L14.2064 4.16543ZM6.87344 15.7123C6.58053 15.4195 6.10574 15.4195 5.81289 15.7123C5.52006 16.0052 5.52014 16.48 5.81289 16.7729L7.22695 18.1869C7.51984 18.4798 7.99461 18.4798 8.2875 18.1869C8.58039 17.894 8.58039 17.4193 8.2875 17.1264L6.87344 15.7123ZM13.2455 9.34024C12.8551 8.94981 12.222 8.95 11.8314 9.34024L9.34024 11.8314C8.94974 12.222 8.94972 12.855 9.34024 13.2455L10.7543 14.6596C11.1448 15.0501 11.7778 15.0501 12.1684 14.6596L14.6596 12.1684C15.0498 11.7778 15.05 11.1447 14.6596 10.7543L13.2455 9.34024ZM16.7729 5.81289C16.48 5.52008 16.0052 5.52003 15.7123 5.81289C15.4195 6.10576 15.4195 6.58056 15.7123 6.87344L17.1264 8.2875C17.4192 8.58037 17.894 8.58033 18.1869 8.2875C18.4798 7.99461 18.4798 7.51985 18.1869 7.22696L16.7729 5.81289Z" fill="black"/>
</svg>
