<svg width="24" height="24" viewBox="0 0 24 24" fill="none" xmlns="http://www.w3.org/2000/svg"> <g clip-path="url(#clip0_655_6999)"> <path d="M12 22.75C6.07 22.75 1.25 17.93 1.25 12C1.25 6.07 6.07 1.25 12 1.25C17.93 1.25 22.75 6.07 22.75 12C22.75 17.93 17.93 22.75 12 22.75ZM12 2.75C6.9 2.75 2.75 6.9 2.75 12C2.75 17.1 6.9 21.25 12 21.25C17.1 21.25 21.25 17.1 21.25 12C21.25 6.9 17.1 2.75 12 2.75Z" fill="white"/> <path d="M19.1108 5.64C18.9208 5.64 18.7308 5.57 18.5808 5.42C18.2908 5.13 18.2908 4.65 18.5808 4.36L21.4708 1.47C21.7608 1.18 22.2408 1.18 22.5308 1.47C22.8208 1.76 22.8208 2.24 22.5308 2.53L19.6408 5.42C19.4908 5.57 19.3008 5.64 19.1108 5.64Z" fill="white"/> <path d="M18.8998 19.65C18.7098 19.65 18.5198 19.58 18.3698 19.43L4.53977 5.59999C4.24977 5.30999 4.24977 4.82999 4.53977 4.53999C4.82977 4.24999 5.30977 4.24999 5.59977 4.53999L19.4298 18.37C19.7198 18.66 19.7198 19.14 19.4298 19.43C19.2798 19.58 19.0898 19.65 18.8998 19.65Z" fill="white"/> <path d="M14.0002 22.53C13.8102 22.53 13.6202 22.46 13.4702 22.31L1.69016 10.53C1.40016 10.24 1.40016 9.76 1.69016 9.47C1.98016 9.18 2.46016 9.18 2.75016 9.47L14.5302 21.25C14.8202 21.54 14.8202 22.02 14.5302 22.31C14.3802 22.46 14.1902 22.53 14.0002 22.53Z" fill="white"/> <path d="M21.7795 14.75C21.5895 14.75 21.3995 14.68 21.2495 14.53L9.46945 2.75C9.17945 2.46 9.17945 1.98 9.46945 1.69C9.75945 1.4 10.2395 1.4 10.5295 1.69L22.3095 13.47C22.5995 13.76 22.5995 14.24 22.3095 14.53C22.1595 14.68 21.9695 14.75 21.7795 14.75Z" fill="white"/> </g> <defs> <clipPath id="clip0_655_6999"> <rect width="24" height="24" fill="white"/> </clipPath> </defs> </svg>
