<svg width="24" height="24" viewBox="0 0 24 24" fill="none" xmlns="http://www.w3.org/2000/svg"> <g clip-path="url(#clip0_655_6994)"> <path d="M12 22.75C6.62 22.75 2.25 18.38 2.25 13C2.25 7.62 6.62 3.25 12 3.25C17.38 3.25 21.75 7.62 21.75 13C21.75 18.38 17.38 22.75 12 22.75ZM12 4.75C7.45 4.75 3.75 8.45 3.75 13C3.75 17.55 7.45 21.25 12 21.25C16.55 21.25 20.25 17.55 20.25 13C20.25 8.45 16.55 4.75 12 4.75Z" fill="white"/> <path d="M12 4.75C11.59 4.75 11.25 4.41 11.25 4V2C11.25 1.59 11.59 1.25 12 1.25C12.41 1.25 12.75 1.59 12.75 2V4C12.75 4.41 12.41 4.75 12 4.75Z" fill="white"/> <path d="M12 17.75C11.59 17.75 11.25 17.41 11.25 17C11.25 15.21 9.79 13.75 8 13.75C7.59 13.75 7.25 13.41 7.25 13C7.25 12.59 7.59 12.25 8 12.25C9.79 12.25 11.25 10.79 11.25 9C11.25 8.59 11.59 8.25 12 8.25C12.41 8.25 12.75 8.59 12.75 9C12.75 10.79 14.21 12.25 16 12.25C16.41 12.25 16.75 12.59 16.75 13C16.75 13.41 16.41 13.75 16 13.75C14.21 13.75 12.75 15.21 12.75 17C12.75 17.41 12.41 17.75 12 17.75ZM10.56 13C11.14 13.37 11.63 13.86 12 14.44C12.37 13.86 12.86 13.37 13.44 13C12.86 12.63 12.37 12.14 12 11.56C11.63 12.14 11.14 12.63 10.56 13Z" fill="white"/> </g> <defs> <clipPath id="clip0_655_6994"> <rect width="24" height="24" fill="white"/> </clipPath> </defs> </svg>
