<svg width="24" height="24" viewBox="0 0 24 24" fill="none" xmlns="http://www.w3.org/2000/svg"> <g clip-path="url(#clip0_4418_7636)"> <path d="M13 22.75H9C3.57 22.75 1.25 20.43 1.25 15V9C1.25 3.57 3.57 1.25 9 1.25H15C20.43 1.25 22.75 3.57 22.75 9V13C22.75 13.41 22.41 13.75 22 13.75C21.59 13.75 21.25 13.41 21.25 13V9C21.25 4.39 19.61 2.75 15 2.75H9C4.39 2.75 2.75 4.39 2.75 9V15C2.75 19.61 4.39 21.25 9 21.25H13C13.41 21.25 13.75 21.59 13.75 22C13.75 22.41 13.41 22.75 13 22.75Z" fill="white"/> <path d="M13 22.75H9C3.57 22.75 1.25 20.43 1.25 15V9C1.25 3.57 3.57 1.25 9 1.25H15C20.43 1.25 22.75 3.57 22.75 9V13C22.75 13.41 22.41 13.75 22 13.75C21.59 13.75 21.25 13.41 21.25 13V9C21.25 4.39 19.61 2.75 15 2.75H9C4.39 2.75 2.75 4.39 2.75 9V15C2.75 19.61 4.39 21.25 9 21.25H13C13.41 21.25 13.75 21.59 13.75 22C13.75 22.41 13.41 22.75 13 22.75Z" fill="white"/> <path d="M7 14.6905C6.59 14.6905 6.25 14.3505 6.25 13.9405V10.7305C6.25 10.3205 6.59 9.98047 7 9.98047C7.41 9.98047 7.75 10.3205 7.75 10.7305V13.9405C7.75 14.3605 7.41 14.6905 7 14.6905Z" fill="white"/> <path d="M17 14.6905C16.59 14.6905 16.25 14.3505 16.25 13.9405V10.7305C16.25 10.3205 16.59 9.98047 17 9.98047C17.41 9.98047 17.75 10.3205 17.75 10.7305V13.9405C17.75 14.3605 17.41 14.6905 17 14.6905Z" fill="white"/> <path d="M13 22.75H9C3.57 22.75 1.25 20.43 1.25 15V9C1.25 3.57 3.57 1.25 9 1.25H15C20.43 1.25 22.75 3.57 22.75 9V13C22.75 13.41 22.41 13.75 22 13.75C21.59 13.75 21.25 13.41 21.25 13V9C21.25 4.39 19.61 2.75 15 2.75H9C4.39 2.75 2.75 4.39 2.75 9V15C2.75 19.61 4.39 21.25 9 21.25H13C13.41 21.25 13.75 21.59 13.75 22C13.75 22.41 13.41 22.75 13 22.75Z" fill="white"/> <path d="M17.58 21.7493C17.38 21.7493 17.19 21.6693 17.05 21.5293L15.47 19.9593C15.18 19.6693 15.17 19.1893 15.47 18.8993C15.76 18.6093 16.24 18.5993 16.53 18.8993L17.54 19.8993L20.44 16.5093C20.71 16.1893 21.18 16.1593 21.5 16.4293C21.81 16.6993 21.85 17.1693 21.58 17.4893L18.16 21.4893C18.02 21.6493 17.83 21.7393 17.62 21.7493C17.6 21.7493 17.59 21.7493 17.58 21.7493Z" fill="white"/> <path d="M12 14.25C11.59 14.25 11.25 13.91 11.25 13.5V10.5C11.25 10.09 11.59 9.75 12 9.75C12.41 9.75 12.75 10.09 12.75 10.5V13.5C12.75 13.91 12.41 14.25 12 14.25Z" fill="white"/> </g> <defs> <clipPath id="clip0_4418_7636"> <rect width="24" height="24" fill="white"/> </clipPath> </defs> </svg>
