<svg width="24" height="24" viewBox="0 0 24 24" fill="none" xmlns="http://www.w3.org/2000/svg"> <g clip-path="url(#clip0_655_7135)"> <path d="M7.34086 18.59C6.94086 18.59 6.54086 18.48 6.18086 18.26C5.52086 17.85 5.13086 17.15 5.13086 16.38V14.72C5.13086 13.95 5.52086 13.25 6.18086 12.84C6.84086 12.43 7.64086 12.4 8.33086 12.74L10.6309 13.89C11.0009 14.08 11.1509 14.53 10.9709 14.9C10.7909 15.27 10.3409 15.42 9.96086 15.23L7.66086 14.08C7.34086 13.92 7.07086 14.05 6.97086 14.11C6.87086 14.17 6.63086 14.36 6.63086 14.72V16.38C6.63086 16.74 6.87086 16.92 6.97086 16.99C7.07086 17.05 7.34086 17.18 7.66086 17.02L9.95086 15.87C10.3209 15.69 10.7709 15.83 10.9609 16.21C11.1509 16.58 10.9909 17.03 10.6209 17.22L8.33086 18.37C8.02086 18.53 7.68086 18.61 7.34086 18.61V18.59Z" fill="white"/> <path d="M16.6204 18.59C16.2804 18.59 15.9504 18.51 15.6304 18.35L13.3404 17.2C12.9704 17.01 12.8204 16.56 13.0004 16.19C13.1904 15.82 13.6404 15.67 14.0104 15.85L16.3004 17C16.6204 17.16 16.8904 17.03 16.9904 16.97C17.0904 16.91 17.3304 16.72 17.3304 16.36V14.7C17.3304 14.34 17.0904 14.16 16.9904 14.09C16.8904 14.03 16.6204 13.9 16.3004 14.06L14.0004 15.21C13.6304 15.39 13.1804 15.25 12.9904 14.88C12.8004 14.51 12.9504 14.06 13.3304 13.87L15.6304 12.72C16.3204 12.37 17.1204 12.41 17.7804 12.82C18.4404 13.23 18.8304 13.93 18.8304 14.7V16.36C18.8304 17.13 18.4404 17.84 17.7804 18.24C17.4204 18.46 17.0204 18.57 16.6204 18.57V18.59Z" fill="white"/> <path d="M12.7317 18.02H11.2217C10.2817 18.02 9.51172 17.25 9.51172 16.31V14.8C9.51172 13.86 10.2817 13.09 11.2217 13.09H12.7317C13.6717 13.09 14.4417 13.86 14.4417 14.8V16.31C14.4417 17.26 13.6717 18.02 12.7317 18.02ZM11.2317 14.58C11.1117 14.58 11.0217 14.68 11.0217 14.79V16.3C11.0217 16.42 11.1217 16.51 11.2317 16.51H12.7417C12.8617 16.51 12.9517 16.41 12.9517 16.3V14.79C12.9517 14.67 12.8517 14.58 12.7417 14.58H11.2317Z" fill="white"/> <path d="M14.381 22.75C14.101 22.75 13.841 22.59 13.711 22.34L11.311 17.63C11.121 17.26 11.271 16.81 11.641 16.62C12.011 16.43 12.461 16.58 12.651 16.95L14.341 20.27L14.411 20.12C14.551 19.81 14.881 19.64 15.221 19.69L15.481 19.73L14.381 17.55C14.191 17.18 14.341 16.73 14.711 16.54C15.081 16.35 15.531 16.5 15.721 16.87L17.481 20.38C17.611 20.63 17.581 20.94 17.411 21.16C17.241 21.39 16.961 21.5 16.681 21.45L15.521 21.25L15.041 22.29C14.921 22.55 14.661 22.72 14.371 22.73H14.351L14.381 22.75Z" fill="white"/> <path d="M9.58137 22.75H9.56137C9.27137 22.75 9.01137 22.57 8.89137 22.31L8.41137 21.27L7.25137 21.47C6.97137 21.52 6.69137 21.4 6.52137 21.18C6.35137 20.95 6.33137 20.65 6.45137 20.4L8.21137 16.89C8.40137 16.52 8.85137 16.37 9.22137 16.56C9.59137 16.75 9.74137 17.2 9.55137 17.57L8.45137 19.75L8.71137 19.71C9.04137 19.65 9.38137 19.83 9.52137 20.14L9.59137 20.29L11.2814 16.97C11.4714 16.6 11.9214 16.45 12.2914 16.64C12.6614 16.83 12.8114 17.28 12.6214 17.65L10.2214 22.36C10.0914 22.61 9.83137 22.77 9.55137 22.77L9.58137 22.75Z" fill="white"/> <path d="M11.9803 11.84C10.5103 11.84 9.32031 10.65 9.32031 9.18C9.32031 7.71 10.5103 6.52 11.9803 6.52C13.4503 6.52 14.6403 7.71 14.6403 9.18C14.6403 10.65 13.4503 11.84 11.9803 11.84ZM11.9803 8.02C11.3403 8.02 10.8203 8.54 10.8203 9.18C10.8203 9.82 11.3403 10.34 11.9803 10.34C12.6203 10.34 13.1403 9.82 13.1403 9.18C13.1403 8.54 12.6203 8.02 11.9803 8.02Z" fill="white"/> <path d="M11.9813 5.36C12.3237 5.36 12.6013 5.08242 12.6013 4.74C12.6013 4.39758 12.3237 4.12 11.9813 4.12C11.6389 4.12 11.3613 4.39758 11.3613 4.74C11.3613 5.08242 11.6389 5.36 11.9813 5.36Z" fill="white"/> <path d="M16.4208 9.8C16.7632 9.8 17.0408 9.52242 17.0408 9.18C17.0408 8.83758 16.7632 8.56 16.4208 8.56C16.0784 8.56 15.8008 8.83758 15.8008 9.18C15.8008 9.52242 16.0784 9.8 16.4208 9.8Z" fill="white"/> <path d="M7.54187 9.8C7.88429 9.8 8.16187 9.52242 8.16187 9.18C8.16187 8.83758 7.88429 8.56 7.54187 8.56C7.19946 8.56 6.92188 8.83758 6.92188 9.18C6.92188 9.52242 7.19946 9.8 7.54187 9.8Z" fill="white"/> <path d="M8.85047 6.67C9.19289 6.67 9.47047 6.39242 9.47047 6.05C9.47047 5.70758 9.19289 5.43 8.85047 5.43C8.50805 5.43 8.23047 5.70758 8.23047 6.05C8.23047 6.39242 8.50805 6.67 8.85047 6.67Z" fill="white"/> <path d="M15.1102 6.67C15.4527 6.67 15.7302 6.39242 15.7302 6.05C15.7302 5.70758 15.4527 5.43 15.1102 5.43C14.7678 5.43 14.4902 5.70758 14.4902 6.05C14.4902 6.39242 14.7678 6.67 15.1102 6.67Z" fill="white"/> <path d="M17.5909 14.37C17.4809 14.37 17.3609 14.34 17.2609 14.29C16.8909 14.1 16.7409 13.65 16.9209 13.28C16.9509 13.23 16.9809 13.18 17.0109 13.14C17.1109 13.01 17.1709 12.85 17.1709 12.68C17.1709 12.36 17.2509 12.05 17.4009 11.75C17.5509 11.45 17.7409 11.21 17.9909 11C18.1609 10.85 18.2709 10.63 18.2709 10.4C18.2709 10.29 18.2509 10.18 18.2009 10.08C18.0709 9.78 18.0009 9.46 18.0009 9.14C18.0009 8.82 18.0709 8.5 18.2009 8.21C18.2509 8.1 18.2709 8 18.2709 7.89C18.2709 7.66 18.1709 7.44 17.9909 7.29C17.7409 7.08 17.5509 6.83 17.4109 6.54C17.2709 6.25 17.1909 5.94 17.1909 5.62C17.1909 5.45 17.1309 5.29 17.0209 5.16C16.9109 5.03 16.7709 4.93 16.6009 4.89C15.9709 4.73 15.4409 4.31 15.1409 3.73C14.9809 3.42 14.6409 3.25 14.3009 3.32C13.6609 3.44 13.0009 3.3 12.4809 2.9C12.2109 2.69 11.8109 2.69 11.5409 2.9C11.0309 3.28 10.3609 3.44 9.72094 3.32C9.38094 3.25 9.03094 3.42 8.87094 3.73C8.72094 4.02 8.52094 4.26 8.27094 4.47C8.01094 4.67 7.73094 4.82 7.41094 4.9C7.24094 4.94 7.10094 5.03 6.99094 5.17C6.88094 5.3 6.82094 5.46 6.82094 5.64C6.82094 5.97 6.73094 6.28 6.59094 6.57C6.45094 6.86 6.25094 7.11 6.01094 7.32C5.84094 7.47 5.73094 7.69 5.73094 7.92C5.73094 8.03 5.75094 8.14 5.80094 8.24C5.93094 8.54 6.00094 8.86 6.00094 9.18C6.00094 9.5 5.93094 9.81 5.80094 10.11C5.75094 10.22 5.73094 10.32 5.73094 10.43C5.73094 10.66 5.83094 10.88 6.01094 11.03C6.26094 11.24 6.45094 11.49 6.59094 11.78C6.73094 12.07 6.81094 12.38 6.81094 12.7C6.81094 12.87 6.87094 13.03 6.97094 13.16C7.22094 13.49 7.16094 13.96 6.83094 14.21C6.50094 14.46 6.03094 14.4 5.78094 14.07C5.48094 13.68 5.32094 13.22 5.30094 12.74C5.30094 12.63 5.27094 12.53 5.22094 12.43C5.17094 12.33 5.11094 12.24 5.02094 12.17C4.50094 11.73 4.21094 11.1 4.21094 10.43C4.21094 10.1 4.28094 9.79 4.41094 9.5C4.45094 9.4 4.48094 9.29 4.48094 9.18C4.48094 9.07 4.46094 8.96 4.41094 8.86C4.28094 8.57 4.21094 8.26 4.21094 7.93C4.21094 7.26 4.50094 6.62 5.02094 6.19C5.11094 6.12 5.17094 6.03 5.22094 5.93C5.27094 5.83 5.29094 5.72 5.30094 5.61C5.31094 5.11 5.49094 4.64 5.80094 4.25C6.11094 3.86 6.53094 3.59 7.01094 3.46C7.12094 3.43 7.22094 3.38 7.30094 3.31C7.38094 3.24 7.45094 3.16 7.51094 3.06C7.97094 2.16 8.99094 1.67 9.98094 1.87C10.1909 1.91 10.4309 1.87 10.6009 1.73C11.3909 1.13 12.5509 1.13 13.3409 1.73C13.5209 1.86 13.7409 1.91 13.9609 1.87C14.9509 1.67 15.9709 2.17 16.4309 3.06C16.5309 3.26 16.7109 3.4 16.9309 3.46C17.4109 3.58 17.8309 3.86 18.1509 4.25C18.4609 4.64 18.6309 5.11 18.6509 5.61C18.6509 5.72 18.6809 5.83 18.7309 5.93C18.7809 6.03 18.8509 6.12 18.9309 6.19C19.4509 6.63 19.7409 7.26 19.7409 7.93C19.7409 8.26 19.6709 8.57 19.5409 8.86C19.5009 8.96 19.4709 9.07 19.4709 9.18C19.4709 9.29 19.4909 9.4 19.5409 9.5C19.6709 9.79 19.7409 10.1 19.7409 10.43C19.7409 11.1 19.4509 11.74 18.9309 12.17C18.8409 12.24 18.7809 12.33 18.7309 12.43C18.6809 12.53 18.6609 12.64 18.6509 12.75C18.6409 13.25 18.4609 13.72 18.1509 14.11C18.1509 14.11 18.1509 14.11 18.1509 14.12C18.0109 14.3 17.7909 14.4 17.5709 14.4L17.5909 14.37Z" fill="white"/> </g> <defs> <clipPath id="clip0_655_7135"> <rect width="24" height="24" fill="white"/> </clipPath> </defs> </svg>
