<svg width="24" height="24" viewBox="0 0 24 24" fill="none" xmlns="http://www.w3.org/2000/svg"> <g clip-path="url(#clip0_4418_7414)"> <path d="M12 22.75C6.07 22.75 1.25 17.93 1.25 12C1.25 6.07 6.07 1.25 12 1.25C17.93 1.25 22.75 6.07 22.75 12C22.75 17.93 17.93 22.75 12 22.75ZM12 2.75C6.9 2.75 2.75 6.9 2.75 12C2.75 17.1 6.9 21.25 12 21.25C17.1 21.25 21.25 17.1 21.25 12C21.25 6.9 17.1 2.75 12 2.75Z" fill="white"/> <path d="M12 16.75C9.38 16.75 7.25 14.62 7.25 12C7.25 9.38 9.38 7.25 12 7.25C14.62 7.25 16.75 9.38 16.75 12C16.75 14.62 14.62 16.75 12 16.75ZM12 8.75C10.21 8.75 8.75 10.21 8.75 12C8.75 13.79 10.21 15.25 12 15.25C13.79 15.25 15.25 13.79 15.25 12C15.25 10.21 13.79 8.75 12 8.75Z" fill="white"/> <path d="M21.17 8.74945C21.12 8.74945 21.06 8.73945 21.01 8.72945C18.07 8.08945 15.1 8.08945 12.16 8.72945C11.75 8.81945 11.36 8.55945 11.27 8.15945C11.18 7.74945 11.44 7.35945 11.84 7.26945C14.99 6.57945 18.18 6.57945 21.33 7.26945C21.73 7.35945 21.99 7.75945 21.9 8.15945C21.83 8.50945 21.52 8.74945 21.17 8.74945Z" fill="white"/> <path d="M8.54001 14.7503C8.33001 14.7503 8.12001 14.6603 7.97001 14.4903C5.89001 12.1003 4.31001 9.37031 3.26001 6.37031L3.95001 6.06031L4.66001 5.82031L4.68001 5.88031C5.66001 8.69031 7.15001 11.2603 9.11001 13.5103C9.38001 13.8203 9.35001 14.3003 9.04001 14.5703C8.89001 14.6903 8.71001 14.7503 8.54001 14.7503Z" fill="white"/> <path d="M10.8801 22.6905C10.7001 22.6905 10.5201 22.6305 10.3801 22.5005C10.0701 22.2205 10.0501 21.7505 10.3301 21.4405C12.3301 19.2405 13.8101 16.6905 14.7301 13.8605C14.8601 13.4705 15.3001 13.2105 15.6901 13.3405C16.0801 13.4705 16.3101 13.8505 16.1901 14.2405C15.1801 17.3605 13.5901 20.1005 11.4501 22.4605C11.2901 22.6105 11.0801 22.6905 10.8801 22.6905Z" fill="white"/> </g> <defs> <clipPath id="clip0_4418_7414"> <rect width="24" height="24" fill="white"/> </clipPath> </defs> </svg>
