<svg width="24" height="24" viewBox="0 0 24 24" fill="none" xmlns="http://www.w3.org/2000/svg"> <g clip-path="url(#clip0_655_7023)"> <path d="M12.0093 12.73C11.8593 12.73 11.6593 12.67 11.5393 12.59C11.3793 12.48 11.2693 12.33 11.2093 12.17C11.0893 11.72 10.8993 11.37 10.6193 11.09C10.3393 10.81 9.98931 10.61 9.59931 10.51C9.35931 10.45 9.15931 10.27 9.07931 10.04C8.99931 9.81 9.02931 9.55 9.17931 9.34C9.43931 8.98 9.57931 8.55 9.56931 8.11C9.56931 7.67 9.42931 7.24 9.16931 6.88C9.02931 6.68 8.98931 6.42 9.07931 6.19C9.15931 5.96 9.35931 5.78 9.59931 5.72C9.97931 5.62 10.3393 5.42 10.6193 5.14C10.8993 4.86 11.0993 4.51 11.1993 4.12C11.1993 4.1 11.2093 4.08 11.2193 4.06C11.2693 3.92 11.3893 3.75 11.5093 3.66C11.7593 3.47 12.2493 3.46 12.5093 3.64C12.6393 3.73 12.7693 3.91 12.8193 4.05C12.9393 4.49 13.1393 4.83 13.4193 5.11C13.7093 5.42 14.0693 5.62 14.4593 5.71C14.6993 5.77 14.8993 5.94 14.9893 6.17C15.0793 6.4 15.0493 6.66 14.9093 6.87C14.6593 7.24 14.5293 7.67 14.5293 8.11C14.5293 8.55 14.6593 8.99 14.9093 9.35C15.0493 9.56 15.0793 9.82 14.9893 10.05C14.8993 10.28 14.6993 10.45 14.4493 10.51C14.0593 10.6 13.7093 10.8 13.4293 11.09C13.1293 11.38 12.9293 11.73 12.8393 12.1C12.7993 12.27 12.6593 12.47 12.5093 12.57C12.3693 12.67 12.1993 12.73 12.0193 12.73H12.0093ZM10.8293 9.39C11.1393 9.56 11.4193 9.77 11.6693 10.02C11.7893 10.14 11.9093 10.28 12.0093 10.41C12.1093 10.28 12.2293 10.15 12.3493 10.03C12.5993 9.77 12.8993 9.54 13.2293 9.37C13.0893 8.97 13.0093 8.54 13.0093 8.11C13.0093 7.68 13.0893 7.25 13.2293 6.85C12.8993 6.67 12.5993 6.44 12.3293 6.17C12.2093 6.06 12.1093 5.93 12.0093 5.8C11.9093 5.94 11.7893 6.07 11.6693 6.2C11.4193 6.45 11.1293 6.67 10.8293 6.84C10.9793 7.24 11.0593 7.67 11.0693 8.1C11.0693 8.55 10.9893 8.99 10.8393 9.4L10.8293 9.39Z" fill="white"/> <path d="M17.4595 18.26C17.3295 18.26 17.2095 18.23 17.0995 18.18C16.2795 17.69 15.4395 17.73 14.7495 18.14C14.5395 18.27 14.2795 18.28 14.0595 18.18C13.8395 18.08 13.6795 17.88 13.6295 17.63C13.5495 17.19 13.3395 16.79 13.0195 16.47C12.6995 16.15 12.2995 15.94 11.8595 15.87C11.6195 15.83 11.4095 15.67 11.3095 15.44C11.2095 15.21 11.2195 14.95 11.3495 14.74C11.5495 14.4 11.6595 14.01 11.6595 13.62C11.6595 13.23 11.5595 12.84 11.3495 12.5C11.3395 12.48 11.3295 12.46 11.3195 12.44C11.2595 12.31 11.2295 12.1 11.2495 11.95C11.2695 11.79 11.3695 11.59 11.4895 11.47C11.5995 11.36 11.7895 11.26 11.9295 11.24C12.0795 11.21 12.2995 11.24 12.4395 11.3C13.2795 11.78 14.1095 11.75 14.8095 11.34C15.0195 11.22 15.2695 11.2 15.4995 11.3C15.7195 11.4 15.8795 11.6 15.9295 11.84C16.0095 12.27 16.2295 12.67 16.5395 12.98C16.8595 13.29 17.2495 13.49 17.6895 13.57C17.9295 13.61 18.1395 13.77 18.2395 14C18.3395 14.23 18.3295 14.49 18.1995 14.7C17.9895 15.05 17.8795 15.44 17.8895 15.85C17.8895 16.25 17.9995 16.64 18.1995 16.98C18.2995 17.14 18.3395 17.39 18.2995 17.57C18.2795 17.72 18.1995 17.88 18.0695 18.01C17.9595 18.12 17.7695 18.22 17.6295 18.24C17.5695 18.24 17.5195 18.25 17.4695 18.25L17.4595 18.26ZM13.0095 14.67C13.4095 14.85 13.7695 15.1 14.0795 15.42C14.3895 15.73 14.6495 16.09 14.8295 16.49C15.3395 16.34 15.8895 16.29 16.4195 16.37C16.3995 16.21 16.3895 16.04 16.3795 15.88C16.3795 15.51 16.4195 15.14 16.5295 14.78C16.1395 14.6 15.7895 14.36 15.4795 14.06C15.1695 13.75 14.9095 13.4 14.7295 13.01C14.2095 13.16 13.6595 13.21 13.1195 13.13C13.1395 13.3 13.1595 13.47 13.1495 13.64C13.1495 13.99 13.0995 14.34 12.9995 14.68L13.0095 14.67Z" fill="white"/> <path d="M12 22.75C6.07 22.75 1.25 17.93 1.25 12C1.25 6.07 6.07 1.25 12 1.25C17.93 1.25 22.75 6.07 22.75 12C22.75 17.93 17.93 22.75 12 22.75ZM12 2.75C6.9 2.75 2.75 6.9 2.75 12C2.75 17.1 6.9 21.25 12 21.25C17.1 21.25 21.25 17.1 21.25 12C21.25 6.9 17.1 2.75 12 2.75Z" fill="white"/> </g> <defs> <clipPath id="clip0_655_7023"> <rect width="24" height="24" fill="white"/> </clipPath> </defs> </svg>
