<svg width="24" height="24" viewBox="0 0 24 24" fill="none" xmlns="http://www.w3.org/2000/svg"> <g clip-path="url(#clip0_655_7022)"> <path d="M12 22.75C6.07 22.75 1.25 17.93 1.25 12C1.25 6.07 6.07 1.25 12 1.25C17.93 1.25 22.75 6.07 22.75 12C22.75 17.93 17.93 22.75 12 22.75ZM12 2.75C6.9 2.75 2.75 6.9 2.75 12C2.75 17.1 6.9 21.25 12 21.25C17.1 21.25 21.25 17.1 21.25 12C21.25 6.9 17.1 2.75 12 2.75Z" fill="white"/> <path d="M12 12.75C11.59 12.75 11.25 12.41 11.25 12V6.44C11.25 6.03 11.59 5.69 12 5.69C12.41 5.69 12.75 6.03 12.75 6.44V12C12.75 12.41 12.41 12.75 12 12.75Z" fill="white"/> <path d="M12.0008 12.75C11.8108 12.75 11.6208 12.68 11.4708 12.53L7.58078 8.64C7.29078 8.35 7.29078 7.87 7.58078 7.58C7.87078 7.29 8.35078 7.29 8.64078 7.58L12.5308 11.47C12.8208 11.76 12.8208 12.24 12.5308 12.53C12.3808 12.68 12.1908 12.75 12.0008 12.75Z" fill="white"/> </g> <defs> <clipPath id="clip0_655_7022"> <rect width="24" height="24" fill="white"/> </clipPath> </defs> </svg>
