<svg width="24" height="24" viewBox="0 0 24 24" fill="none" xmlns="http://www.w3.org/2000/svg"> <g clip-path="url(#clip0_4418_6726)"> <path d="M16.67 20.8295C16.65 20.8295 16.64 20.8295 16.63 20.8295H5.54003C2.60003 20.6195 1.28003 18.3495 1.28003 16.3395C1.28003 14.5395 2.33003 12.5395 4.61003 11.9895C3.98003 9.46952 4.53003 7.10952 6.19003 5.39952C8.07003 3.45952 11.06 2.70952 13.61 3.53952C14 3.66952 14.22 4.08952 14.09 4.47952C13.96 4.86952 13.54 5.08952 13.15 4.95952C11.12 4.30952 8.75003 4.89952 7.26003 6.44952C5.81003 7.94952 5.47003 10.0395 6.30003 12.3495C6.38003 12.5795 6.35003 12.8395 6.21003 13.0295C6.07003 13.2195 5.84003 13.3495 5.60003 13.3495C3.66003 13.4895 2.79003 14.9495 2.79003 16.3395C2.79003 17.7295 3.66003 19.1895 5.60003 19.3395H16.64C17.78 19.3495 18.92 18.9195 19.77 18.1395C20.92 17.1295 21.42 15.6595 21.17 14.0995C21.1 13.6895 21.38 13.3095 21.79 13.2395C22.2 13.1695 22.58 13.4495 22.65 13.8595C22.99 15.9195 22.28 17.9395 20.78 19.2595C19.66 20.2595 18.2 20.8295 16.67 20.8295Z" fill="white"/> <path d="M7.26009 13.7598C7.15009 13.7598 7.03009 13.7298 6.93009 13.6798C6.51009 13.4698 6.05009 13.3598 5.58009 13.3498C5.17009 13.3398 4.84009 12.9998 4.84009 12.5898C4.85009 12.1798 5.24009 11.8398 5.60009 11.8498C6.29009 11.8598 6.98009 12.0298 7.59009 12.3398C7.96009 12.5198 8.11009 12.9798 7.93009 13.3498C7.80009 13.6098 7.54009 13.7598 7.26009 13.7598Z" fill="white"/> <path d="M18.47 12.7498C16.13 12.7498 14.22 10.8398 14.22 8.49977C14.22 7.39977 14.64 6.35977 15.4 5.57977C15.42 5.54977 15.44 5.52977 15.46 5.50977C16.26 4.69977 17.32 4.25977 18.46 4.25977C20.8 4.25977 22.71 6.16977 22.71 8.50977C22.71 9.80977 22.13 11.0198 21.11 11.8298C20.38 12.4198 19.44 12.7498 18.47 12.7498ZM16.6 6.49977C16.58 6.52977 16.56 6.54977 16.53 6.57977C16.01 7.08977 15.72 7.77977 15.72 8.50977C15.72 10.0298 16.95 11.2598 18.47 11.2598C19.09 11.2598 19.7 11.0498 20.18 10.6598C20.85 10.1298 21.22 9.34977 21.22 8.50977C21.22 6.98977 19.99 5.75977 18.47 5.75977C17.76 5.74977 17.1 6.01977 16.6 6.49977Z" fill="white"/> </g> <defs> <clipPath id="clip0_4418_6726"> <rect width="24" height="24" fill="white"/> </clipPath> </defs> </svg>
