<svg width="24" height="24" viewBox="0 0 24 24" fill="none" xmlns="http://www.w3.org/2000/svg"> <g clip-path="url(#clip0_4418_7141)"> <path d="M8 22.7494C4.28 22.7494 1.25 19.7194 1.25 15.9994C1.25 12.9594 3.29 10.2794 6.22 9.4894C6.59 9.3894 6.97 9.5794 7.11 9.9394C7.72 11.4694 9.02 12.6394 10.61 13.0694C11.49 13.3094 12.51 13.3094 13.37 13.0694C13.74 12.9694 14.13 13.1594 14.27 13.5194C14.58 14.3094 14.74 15.1494 14.74 16.0094C14.74 17.9294 13.92 19.7594 12.49 21.0294C11.27 22.1294 9.67 22.7494 8 22.7494ZM6.02 11.1294C4.07 11.9294 2.75 13.8494 2.75 15.9994C2.75 18.8894 5.11 21.2494 8 21.2494C9.3 21.2494 10.54 20.7694 11.5 19.8994C12.62 18.9094 13.25 17.4894 13.25 15.9994C13.25 15.5394 13.19 15.0994 13.08 14.6694C12.14 14.8194 11.12 14.7694 10.22 14.5194C8.41 14.0194 6.89 12.7794 6.02 11.1294Z" fill="white"/> <path d="M12 14.75C11.38 14.75 10.78 14.67 10.22 14.51C8.19 13.95 6.5 12.45 5.72 10.48C5.41 9.7 5.25 8.86 5.25 8C5.25 4.28 8.28 1.25 12 1.25C15.72 1.25 18.75 4.28 18.75 8C18.75 8.86 18.59 9.7 18.28 10.49C17.5 12.45 15.82 13.96 13.78 14.52C13.22 14.67 12.62 14.75 12 14.75ZM12 2.75C9.11 2.75 6.75 5.11 6.75 8C6.75 8.67 6.87 9.32 7.12 9.93C7.73 11.46 9.03 12.63 10.62 13.06C11.5 13.3 12.52 13.3 13.38 13.06C14.97 12.63 16.28 11.45 16.88 9.93C17.12 9.32 17.25 8.67 17.25 8C17.25 5.11 14.89 2.75 12 2.75Z" fill="white"/> <path d="M16 22.7497C14.33 22.7497 12.73 22.1297 11.5 21.0197C11.34 20.8797 11.25 20.6697 11.25 20.4597C11.25 20.2497 11.34 20.0397 11.5 19.8997C12.61 18.9197 13.25 17.4997 13.25 15.9997C13.25 15.3297 13.13 14.6797 12.88 14.0697C12.8 13.8697 12.81 13.6497 12.91 13.4597C13.01 13.2697 13.18 13.1297 13.38 13.0697C14.97 12.6397 16.27 11.4697 16.88 9.93973C17.02 9.57973 17.41 9.39973 17.77 9.48973C20.7 10.2897 22.74 12.9597 22.74 15.9997C22.75 19.7197 19.72 22.7497 16 22.7497ZM13.12 20.3897C13.97 20.9497 14.96 21.2497 16 21.2497C18.89 21.2497 21.25 18.8897 21.25 15.9997C21.25 13.8497 19.93 11.9297 17.98 11.1297C17.24 12.5397 16 13.6597 14.52 14.2597C14.67 14.8197 14.75 15.4097 14.75 15.9997C14.75 17.6197 14.17 19.1797 13.12 20.3897Z" fill="white"/> </g> <defs> <clipPath id="clip0_4418_7141"> <rect width="24" height="24" fill="white"/> </clipPath> </defs> </svg>
