<svg width="24" height="24" viewBox="0 0 24 24" fill="none" xmlns="http://www.w3.org/2000/svg"> <g clip-path="url(#clip0_4418_7754)"> <path d="M12.0001 8.90923C11.5101 8.90923 11.0301 8.72922 10.6601 8.35922L7.99013 5.68922C7.45013 5.14922 7.28016 4.33922 7.58016 3.61922C7.87016 2.90922 8.56016 2.44922 9.33016 2.44922H14.6801C15.4501 2.44922 16.1401 2.90922 16.4301 3.61922C16.7201 4.32922 16.5602 5.13922 16.0202 5.68922L13.3501 8.35922C12.9701 8.71922 12.4901 8.90923 12.0001 8.90923ZM9.05013 4.61922L11.7201 7.28922C11.8701 7.43922 12.1202 7.43922 12.2802 7.28922L14.9502 4.61922C15.1202 4.44922 15.0702 4.25922 15.0302 4.18922C14.9902 4.11922 14.9001 3.94922 14.6701 3.94922H9.32015C9.08015 3.94922 8.99016 4.11922 8.96016 4.18922C8.93016 4.25922 8.88013 4.44922 9.05013 4.61922Z" fill="white"/> <path d="M14.6701 21.5594H9.3201C8.5501 21.5594 7.8601 21.0994 7.5701 20.3894C7.2801 19.6794 7.44007 18.8694 7.98007 18.3194L10.6501 15.6494C11.3701 14.9294 12.6101 14.9294 13.3301 15.6494L16.0001 18.3194C16.5401 18.8594 16.7101 19.6794 16.4101 20.3894C16.1301 21.0994 15.4401 21.5594 14.6701 21.5594ZM9.05008 19.3794C8.88008 19.5494 8.93006 19.7394 8.97006 19.8094C9.01006 19.8794 9.10011 20.0494 9.33011 20.0494H14.6801C14.9201 20.0494 15.0101 19.8794 15.0401 19.8094C15.0701 19.7394 15.1201 19.5494 14.9601 19.3794L12.2901 16.7094C12.1401 16.5594 11.8901 16.5594 11.7301 16.7094L9.05008 19.3794Z" fill="white"/> <path d="M5.22989 17.2509C5.16989 17.2509 5.09994 17.2509 5.02994 17.2409C4.48994 17.1809 4.01989 16.8909 3.72989 16.4309L1.51993 12.9509C1.14993 12.3709 1.14993 11.6309 1.51993 11.0509L3.72989 7.57092C4.01989 7.12092 4.48994 6.82091 5.02994 6.76091C5.55994 6.70091 6.08988 6.89092 6.46988 7.27092L9.94992 10.7509C10.2799 11.0809 10.4699 11.5309 10.4699 12.0009C10.4699 12.4709 10.2899 12.9209 9.94992 13.2509L6.47989 16.7309C6.14989 17.0609 5.69989 17.2509 5.22989 17.2509ZM2.78989 11.8609C2.72989 11.9509 2.72989 12.0609 2.78989 12.1509L4.99991 15.6309C5.05991 15.7209 5.14992 15.7509 5.19992 15.7509C5.24992 15.7509 5.3399 15.7509 5.4199 15.6709L8.89994 12.1909C8.96994 12.1209 8.97989 12.0409 8.97989 12.0009C8.97989 11.9609 8.96994 11.8809 8.89994 11.8109L5.4199 8.33091C5.3399 8.25091 5.24992 8.25091 5.19992 8.25091C5.14992 8.26091 5.05991 8.28091 4.99991 8.37091L2.78989 11.8609Z" fill="white"/> <path d="M18.77 17.2509C18.3 17.2509 17.86 17.0709 17.52 16.7309L14.04 13.2509C13.71 12.9209 13.52 12.4709 13.52 12.0009C13.52 11.5309 13.7 11.0809 14.04 10.7509L17.51 7.27092C17.89 6.89092 18.42 6.70091 18.95 6.76091C19.49 6.82091 19.96 7.11092 20.25 7.57092L22.46 11.0509C22.83 11.6309 22.83 12.3709 22.46 12.9509L20.25 16.4309C19.96 16.8909 19.49 17.1809 18.95 17.2409C18.9 17.2409 18.83 17.2509 18.77 17.2509ZM18.77 8.26091C18.72 8.26091 18.65 8.27091 18.58 8.34091L15.1 11.8209C15.03 11.8909 15.02 11.9709 15.02 12.0109C15.02 12.0509 15.03 12.1309 15.1 12.2009L18.58 15.6809C18.66 15.7609 18.75 15.7609 18.8 15.7609C18.85 15.7509 18.94 15.7309 19 15.6409L21.21 12.1609C21.27 12.0709 21.27 11.9609 21.21 11.8709L19 8.39091C18.94 8.30091 18.85 8.27092 18.8 8.27092C18.79 8.26092 18.78 8.26091 18.77 8.26091Z" fill="white"/> </g> <defs> <clipPath id="clip0_4418_7754"> <rect width="24" height="24" fill="white"/> </clipPath> </defs> </svg>
