<svg width="24" height="24" viewBox="0 0 24 24" fill="none" xmlns="http://www.w3.org/2000/svg"> <g clip-path="url(#clip0_4418_7374)"> <path d="M9.98993 22.7509C9.78993 22.7509 9.62993 22.7109 9.50993 22.6609C9.10993 22.5109 8.42993 22.0209 8.42993 20.4709V18.0309C8.42993 17.6209 8.76993 17.2809 9.17993 17.2809C9.58993 17.2809 9.92993 17.6209 9.92993 18.0309V20.4709C9.92993 20.9709 10.0199 21.1909 10.0599 21.2509C10.0899 21.2109 10.2999 21.1109 10.6299 20.7309L18.1999 12.1309C18.4799 11.8109 18.5199 11.6109 18.5199 11.5709C18.4999 11.5609 18.3199 11.4609 17.8999 11.4609H16.9699C16.5599 11.4609 16.2199 11.1209 16.2199 10.7109C16.2199 10.3009 16.5599 9.96094 16.9699 9.96094H17.8999C19.2399 9.96094 19.7199 10.5909 19.8899 10.9609C20.0599 11.3409 20.2099 12.1109 19.3299 13.1209L11.7599 21.7209C11.0499 22.5409 10.4299 22.7509 9.98993 22.7509Z" fill="white"/> <path d="M9.18008 15.2201C8.77008 15.2201 8.43008 14.8801 8.43008 14.4701V14.0401H6.09008C4.75008 14.0401 4.27008 13.4101 4.10008 13.0401C3.93008 12.6601 3.78008 11.8901 4.66008 10.8801L12.2301 2.28015C13.2501 1.12015 14.0801 1.20015 14.4801 1.35015C14.8801 1.50015 15.5601 1.99015 15.5601 3.54015V8.85015C15.5601 9.26015 15.2201 9.60015 14.8101 9.60015C14.4001 9.60015 14.0601 9.26015 14.0601 8.85015V3.52015C14.0601 3.02015 13.9701 2.80015 13.9301 2.74015C13.9001 2.78015 13.6901 2.88015 13.3601 3.26015L5.79008 11.8601C5.51008 12.1801 5.47008 12.3801 5.47008 12.4201C5.49008 12.4301 5.67008 12.5301 6.09008 12.5301H9.18008C9.59008 12.5301 9.93008 12.8701 9.93008 13.2801V14.4601C9.93008 14.8801 9.59008 15.2201 9.18008 15.2201Z" fill="white"/> <path d="M1.99994 22.7495C1.80994 22.7495 1.61994 22.6795 1.46994 22.5295C1.17994 22.2395 1.17994 21.7595 1.46994 21.4695L21.4699 1.46945C21.7599 1.17945 22.2399 1.17945 22.5299 1.46945C22.8199 1.75945 22.8199 2.23945 22.5299 2.52945L2.52994 22.5295C2.37994 22.6795 2.18994 22.7495 1.99994 22.7495Z" fill="white"/> </g> <defs> <clipPath id="clip0_4418_7374"> <rect width="24" height="24" fill="white"/> </clipPath> </defs> </svg>
