<svg width="24" height="24" viewBox="0 0 24 24" fill="none" xmlns="http://www.w3.org/2000/svg"> <g clip-path="url(#clip0_655_7045)"> <path d="M13.1101 18.31H7.55008C5.91008 18.31 4.58008 16.98 4.58008 15.34V6.44C4.58008 4.8 5.91008 3.47 7.55008 3.47H13.1101C14.7501 3.47 16.0801 4.8 16.0801 6.44V15.33C16.0801 16.97 14.7501 18.3 13.1101 18.3V18.31ZM7.56008 4.97C6.75008 4.97 6.09008 5.63 6.09008 6.44V15.33C6.09008 16.14 6.75008 16.8 7.56008 16.8H13.1201C13.9301 16.8 14.5901 16.14 14.5901 15.33V6.44C14.5901 5.63 13.9301 4.97 13.1201 4.97H7.56008Z" fill="white"/> <path d="M10.3308 4.97C10.1308 4.97 9.94078 4.89 9.80078 4.75L7.58078 2.53C7.29078 2.24 7.29078 1.76 7.58078 1.47C7.87078 1.18 8.35078 1.18 8.64078 1.47L10.3308 3.16L12.0208 1.47C12.3108 1.18 12.7908 1.18 13.0808 1.47C13.3708 1.76 13.3708 2.24 13.0808 2.53L10.8608 4.75C10.7208 4.89 10.5308 4.97 10.3308 4.97Z" fill="white"/> <path d="M17.56 22.75H2C1.59 22.75 1.25 22.41 1.25 22C1.25 21.59 1.59 21.25 2 21.25H17.56C19.6 21.25 21.25 19.59 21.25 17.56C21.25 17.15 21.59 16.81 22 16.81C22.41 16.81 22.75 17.15 22.75 17.56C22.75 20.42 20.42 22.75 17.56 22.75Z" fill="white"/> <path d="M17.56 18.31H6.44C3.58 18.31 1.25 15.98 1.25 13.12C1.25 12.71 1.59 12.37 2 12.37C2.41 12.37 2.75 12.71 2.75 13.12C2.75 15.16 4.41 16.81 6.44 16.81H17.55C17.96 16.81 18.3 17.15 18.3 17.56C18.3 17.97 17.96 18.31 17.55 18.31H17.56Z" fill="white"/> <path d="M6.43945 22.75C6.02945 22.75 5.68945 22.41 5.68945 22V17.56C5.68945 17.15 6.02945 16.81 6.43945 16.81C6.84945 16.81 7.18945 17.15 7.18945 17.56V22C7.18945 22.41 6.84945 22.75 6.43945 22.75Z" fill="white"/> <path d="M12 22.75C11.59 22.75 11.25 22.41 11.25 22V17.56C11.25 17.15 11.59 16.81 12 16.81C12.41 16.81 12.75 17.15 12.75 17.56V22C12.75 22.41 12.41 22.75 12 22.75Z" fill="white"/> <path d="M15.3299 13.86C15.2299 13.86 15.1199 13.84 15.0299 13.8L5.02993 9.36C4.64993 9.19 4.47993 8.75 4.64993 8.37C4.81993 7.99 5.26993 7.82 5.63993 7.99L15.6399 12.43C16.0199 12.6 16.1899 13.04 16.0199 13.42C15.8999 13.7 15.6199 13.87 15.3299 13.87V13.86Z" fill="white"/> </g> <defs> <clipPath id="clip0_655_7045"> <rect width="24" height="24" fill="white"/> </clipPath> </defs> </svg>
