<svg width="24" height="24" viewBox="0 0 24 24" fill="none" xmlns="http://www.w3.org/2000/svg"> <g clip-path="url(#clip0_4418_7455)"> <path d="M6.10999 18.2496C5.92999 18.2496 5.73998 18.1796 5.59998 18.0496C3.61998 16.1896 1.25 13.0596 1.25 8.68964C1.25 5.18964 4.08 2.34961 7.56 2.34961C9.25 2.34961 10.83 3.00964 12 4.18964C13.17 3.00964 14.75 2.34961 16.44 2.34961C17.7 2.34961 18.92 2.72963 19.97 3.42963C20.31 3.65963 20.4 4.1296 20.17 4.4696C19.94 4.8096 19.47 4.89962 19.13 4.66962C18.34 4.12962 17.41 3.83966 16.45 3.83966C14.93 3.83966 13.52 4.54966 12.61 5.77966C12.33 6.15966 11.69 6.15966 11.41 5.77966C10.49 4.54966 9.09001 3.83966 7.57001 3.83966C4.92001 3.83966 2.76001 6.00963 2.76001 8.67963C2.76001 12.5196 4.87001 15.2896 6.64001 16.9496C6.94001 17.2296 6.95999 17.7096 6.67999 18.0096C6.50999 18.1696 6.30999 18.2496 6.10999 18.2496Z" fill="white"/> <path d="M11.9999 21.6508C11.6899 21.6508 11.3899 21.6108 11.1399 21.5208C10.3899 21.2608 9.49991 20.8408 8.63991 20.3308C8.27991 20.1208 8.1699 19.6608 8.3799 19.3008C8.5899 18.9508 9.04987 18.8308 9.40987 19.0408C10.1899 19.5008 10.9799 19.8808 11.6299 20.1008C11.8099 20.1608 12.1999 20.1608 12.3799 20.1008C14.6799 19.3108 21.2599 15.5208 21.2599 8.68078C21.2599 8.18078 21.1799 7.69076 21.0399 7.22076C20.9199 6.82076 21.1299 6.40081 21.5299 6.28081C21.9299 6.16081 22.3499 6.3808 22.4699 6.7708C22.6599 7.3908 22.7599 8.03078 22.7599 8.68078C22.7599 15.5608 16.6899 20.2008 12.8699 21.5108C12.6099 21.6108 12.3099 21.6508 11.9999 21.6508Z" fill="white"/> <path d="M1.99997 22.7495C1.80997 22.7495 1.61994 22.6795 1.46994 22.5295C1.17994 22.2395 1.17994 21.7595 1.46994 21.4695L21.4699 1.46945C21.7599 1.17945 22.24 1.17945 22.53 1.46945C22.82 1.75945 22.82 2.23951 22.53 2.52951L2.53 22.5295C2.38 22.6795 2.18997 22.7495 1.99997 22.7495Z" fill="white"/> </g> <defs> <clipPath id="clip0_4418_7455"> <rect width="24" height="24" fill="white"/> </clipPath> </defs> </svg>
