<svg width="24" height="24" viewBox="0 0 24 24" fill="none" xmlns="http://www.w3.org/2000/svg"> <g clip-path="url(#clip0_4418_6963)"> <path d="M12 22.7807C11.31 22.7807 10.66 22.4307 10.2 21.8207L8.70001 19.8207C8.67001 19.7807 8.54999 19.7207 8.48999 19.7207H8C3.83 19.7207 1.25 18.5907 1.25 12.9707V7.9707C1.25 3.5507 3.58 1.2207 8 1.2207H16C20.42 1.2207 22.75 3.5507 22.75 7.9707V12.9707C22.75 13.3807 22.41 13.7207 22 13.7207C21.59 13.7207 21.25 13.3807 21.25 12.9707V7.9707C21.25 4.3907 19.58 2.7207 16 2.7207H8C4.42 2.7207 2.75 4.3907 2.75 7.9707V12.9707C2.75 17.4907 4.3 18.2207 8 18.2207H8.5C9.01 18.2207 9.59999 18.5107 9.89999 18.9207L11.4 20.9207C11.75 21.3807 12.25 21.3807 12.6 20.9207C12.85 20.5907 13.32 20.5207 13.65 20.7707C13.98 21.0207 14.05 21.4907 13.8 21.8207C13.34 22.4307 12.69 22.7807 12 22.7807Z" fill="white"/> <path d="M12 11.9707C11.44 11.9707 11 11.5207 11 10.9707C11 10.4207 11.45 9.9707 12 9.9707C12.55 9.9707 13 10.4207 13 10.9707C13 11.5207 12.56 11.9707 12 11.9707Z" fill="white"/> <path d="M16 11.9707C15.44 11.9707 15 11.5207 15 10.9707C15 10.4207 15.45 9.9707 16 9.9707C16.55 9.9707 17 10.4207 17 10.9707C17 11.5207 16.56 11.9707 16 11.9707Z" fill="white"/> <path d="M8 11.9707C7.44 11.9707 7 11.5207 7 10.9707C7 10.4207 7.45 9.9707 8 9.9707C8.55 9.9707 9 10.4207 9 10.9707C9 11.5207 8.56 11.9707 8 11.9707Z" fill="white"/> <path d="M18.2 22.15C16.02 22.15 14.25 20.38 14.25 18.2C14.25 16.02 16.02 14.25 18.2 14.25C20.38 14.25 22.15 16.02 22.15 18.2C22.15 20.38 20.38 22.15 18.2 22.15ZM18.2 15.75C16.85 15.75 15.75 16.85 15.75 18.2C15.75 19.55 16.85 20.65 18.2 20.65C19.55 20.65 20.65 19.55 20.65 18.2C20.65 16.85 19.55 15.75 18.2 15.75Z" fill="white"/> <path d="M21.9999 22.7495C21.8099 22.7495 21.6199 22.6795 21.4699 22.5295L20.4699 21.5295C20.1799 21.2395 20.1799 20.7595 20.4699 20.4695C20.7599 20.1795 21.2399 20.1795 21.5299 20.4695L22.5299 21.4695C22.8199 21.7595 22.8199 22.2395 22.5299 22.5295C22.3799 22.6795 22.1899 22.7495 21.9999 22.7495Z" fill="white"/> </g> <defs> <clipPath id="clip0_4418_6963"> <rect width="24" height="24" fill="white"/> </clipPath> </defs> </svg>
