<svg width="24" height="24" viewBox="0 0 24 24" fill="none" xmlns="http://www.w3.org/2000/svg"> <g clip-path="url(#clip0_655_7126)"> <path d="M12 14.54C11.59 14.54 11.25 14.2 11.25 13.79V2C11.25 1.59 11.59 1.25 12 1.25C12.41 1.25 12.75 1.59 12.75 2V13.79C12.75 14.2 12.41 14.54 12 14.54Z" fill="white"/> <path d="M9.4393 22.75H8.7793C8.3693 22.75 8.0293 22.41 8.0293 22V19.11C8.0293 17.28 9.5093 15.8 11.3393 15.8H11.9993C12.4093 15.8 12.7493 16.14 12.7493 16.55V19.44C12.7493 21.27 11.2693 22.75 9.4393 22.75ZM11.2493 17.3C10.2893 17.35 9.5293 18.14 9.5293 19.11V21.25C10.4893 21.2 11.2493 20.41 11.2493 19.44V17.3Z" fill="white"/> <path d="M15.22 22.75H14.56C12.73 22.75 11.25 21.27 11.25 19.44V16.55C11.25 16.14 11.59 15.8 12 15.8H12.66C14.48 15.8 15.97 17.28 15.97 19.11V22C15.97 22.41 15.63 22.75 15.22 22.75ZM12.75 17.3V19.44C12.75 20.41 13.51 21.2 14.47 21.25V19.11C14.47 18.14 13.71 17.35 12.75 17.3Z" fill="white"/> <path d="M11.9991 17.3C10.8291 17.3 9.86914 16.34 9.86914 15.17C9.86914 14 10.8291 13.04 11.9991 13.04C13.1691 13.04 14.1291 14 14.1291 15.17C14.1291 16.34 13.1691 17.3 11.9991 17.3ZM11.9991 14.54C11.6491 14.54 11.3691 14.82 11.3691 15.17C11.3691 15.52 11.6491 15.8 11.9991 15.8C12.3491 15.8 12.6291 15.52 12.6291 15.17C12.6291 14.82 12.3491 14.54 11.9991 14.54Z" fill="white"/> <path d="M15.5795 8.92999C15.3895 8.92999 15.1995 8.85999 15.0495 8.70999L11.4695 5.12999C11.1795 4.83999 11.1795 4.35999 11.4695 4.06999C11.7595 3.77999 12.2395 3.77999 12.5295 4.06999L16.1095 7.64999C16.3995 7.93999 16.3995 8.41999 16.1095 8.70999C15.9595 8.85999 15.7695 8.92999 15.5795 8.92999Z" fill="white"/> <path d="M19.4301 11.72C18.5501 11.72 17.7101 11.38 17.0901 10.75L15.0501 8.70999C14.9101 8.56999 14.8301 8.37999 14.8301 8.17999C14.8301 7.97999 14.9101 7.78999 15.0501 7.64999L15.5201 7.17999C16.8101 5.88999 18.9101 5.88999 20.2001 7.17999L22.2401 9.21999C22.5301 9.50999 22.5301 9.98999 22.2401 10.28L21.7701 10.75C21.1501 11.37 20.3101 11.72 19.4301 11.72ZM16.6401 8.17999L18.1501 9.68999C18.8101 10.35 19.9601 10.38 20.6501 9.74999L19.1401 8.23999C18.4501 7.55999 17.3501 7.53999 16.6401 8.17999Z" fill="white"/> <path d="M17.1494 15.06C16.9494 15.06 16.7594 14.98 16.6194 14.84L14.5794 12.8C13.9594 12.18 13.6094 11.34 13.6094 10.46C13.6094 9.58 13.9494 8.75 14.5794 8.12L15.0494 7.65C15.3294 7.37 15.8294 7.37 16.1094 7.65L18.1494 9.69C18.7694 10.31 19.1194 11.15 19.1194 12.03C19.1194 12.91 18.7794 13.74 18.1494 14.37L17.6794 14.84C17.5394 14.98 17.3494 15.06 17.1494 15.06ZM15.5794 9.24C15.2794 9.57 15.1094 10 15.1094 10.46C15.1094 10.94 15.2994 11.4 15.6394 11.74L17.1494 13.25C17.4494 12.92 17.6194 12.49 17.6194 12.03C17.6194 11.55 17.4294 11.09 17.0894 10.75L15.5794 9.24Z" fill="white"/> <path d="M15.5792 8.36001C14.4092 8.36001 13.4492 7.40001 13.4492 6.23001C13.4492 5.06001 14.4092 4.10001 15.5792 4.10001C16.7492 4.10001 17.7092 5.06001 17.7092 6.23001C17.7092 7.40001 16.7492 8.36001 15.5792 8.36001ZM15.5792 5.59001C15.2292 5.59001 14.9492 5.87001 14.9492 6.22001C14.9492 6.57001 15.2292 6.85001 15.5792 6.85001C15.9292 6.85001 16.2092 6.57001 16.2092 6.22001C16.2092 5.87001 15.9292 5.59001 15.5792 5.59001Z" fill="white"/> <path d="M8.41938 8.92999C8.22938 8.92999 8.03938 8.85999 7.88938 8.70999C7.59938 8.41999 7.59938 7.93999 7.88938 7.64999L11.4694 4.06999C11.7594 3.77999 12.2394 3.77999 12.5294 4.06999C12.8194 4.35999 12.8194 4.83999 12.5294 5.12999L8.94937 8.70999C8.79937 8.85999 8.60938 8.92999 8.41938 8.92999Z" fill="white"/> <path d="M4.57047 11.72C3.69047 11.72 2.86047 11.38 2.23047 10.75L1.76047 10.28C1.47047 9.98999 1.47047 9.50999 1.76047 9.21999L3.80047 7.17999C5.09047 5.88999 7.19047 5.88999 8.48047 7.17999L8.95047 7.64999C9.24047 7.93999 9.24047 8.41999 8.95047 8.70999L6.91047 10.75C6.29047 11.37 5.45047 11.72 4.57047 11.72ZM3.35047 9.74999C4.04047 10.38 5.18047 10.35 5.85047 9.68999L7.36047 8.17999C6.65047 7.53999 5.55047 7.55999 4.86047 8.23999L3.35047 9.74999Z" fill="white"/> <path d="M6.85086 15.06C6.65086 15.06 6.46086 14.98 6.32086 14.84L5.85086 14.37C5.23086 13.75 4.88086 12.91 4.88086 12.03C4.88086 11.15 5.22086 10.32 5.85086 9.68999L7.89086 7.64999C8.03086 7.50999 8.22086 7.42999 8.42086 7.42999C8.62086 7.42999 8.81086 7.50999 8.95086 7.64999L9.42086 8.11999C10.7109 9.40999 10.7109 11.51 9.42086 12.8L7.38086 14.84C7.24086 14.98 7.05086 15.06 6.85086 15.06ZM8.42086 9.23999L6.91086 10.75C6.57086 11.09 6.38086 11.55 6.38086 12.03C6.38086 12.48 6.55086 12.91 6.85086 13.25L8.36086 11.74C9.04086 11.06 9.06086 9.94999 8.42086 9.23999Z" fill="white"/> <path d="M8.41906 8.36001C7.24906 8.36001 6.28906 7.40001 6.28906 6.23001C6.28906 5.06001 7.24906 4.10001 8.41906 4.10001C9.58906 4.10001 10.5491 5.06001 10.5491 6.23001C10.5491 7.40001 9.58906 8.36001 8.41906 8.36001ZM8.41906 5.59001C8.06906 5.59001 7.78906 5.87001 7.78906 6.22001C7.78906 6.57001 8.06906 6.85001 8.41906 6.85001C8.76906 6.85001 9.04906 6.57001 9.04906 6.22001C9.04906 5.87001 8.76906 5.59001 8.41906 5.59001Z" fill="white"/> <path d="M19.2091 2.75H4.78906C4.37906 2.75 4.03906 2.41 4.03906 2C4.03906 1.59 4.37906 1.25 4.78906 1.25H19.1991C19.6091 1.25 19.9491 1.59 19.9491 2C19.9491 2.41 19.6091 2.75 19.1991 2.75H19.2091Z" fill="white"/> </g> <defs> <clipPath id="clip0_655_7126"> <rect width="24" height="24" fill="white"/> </clipPath> </defs> </svg>
