<svg width="24" height="24" viewBox="0 0 24 24" fill="none" xmlns="http://www.w3.org/2000/svg"> <g clip-path="url(#clip0_4418_7142)"> <path d="M20 9.07001H4C3.59 9.07001 3.25 8.73001 3.25 8.32001V4C3.25 2.48 4.48 1.25 6 1.25H18C19.52 1.25 20.75 2.48 20.75 4V8.32001C20.75 8.73001 20.41 9.07001 20 9.07001ZM4.75 7.57001H19.25V4C19.25 3.31 18.69 2.75 18 2.75H6C5.31 2.75 4.75 3.31 4.75 4V7.57001Z" fill="white"/> <path d="M12.5002 22.7505H11.5002C9.98024 22.7505 8.75024 21.5205 8.75024 20.0005V17.9006C8.75024 17.4506 8.51023 17.0305 8.11023 16.8105L5.15027 15.1406C3.97027 14.4806 3.24023 13.2305 3.24023 11.8705V8.31055C3.24023 7.90055 3.58023 7.56055 3.99023 7.56055H19.9902C20.4002 7.56055 20.7402 7.90055 20.7402 8.31055V11.8705C20.7402 13.2205 20.0103 14.4706 18.8303 15.1406L15.8702 16.8105C15.4802 17.0305 15.2302 17.4506 15.2302 17.9006V20.0005C15.2502 21.5205 14.0202 22.7505 12.5002 22.7505ZM4.75024 9.07056V11.8806C4.75024 12.6906 5.19026 13.4406 5.89026 13.8406L8.85022 15.5106C9.71022 16.0006 10.2502 16.9106 10.2502 17.9006V20.0005C10.2502 20.6905 10.8102 21.2505 11.5002 21.2505H12.5002C13.1902 21.2505 13.7502 20.6905 13.7502 20.0005V17.9006C13.7502 16.9106 14.2903 15.9906 15.1503 15.5106L18.1102 13.8406C18.8202 13.4406 19.2502 12.6906 19.2502 11.8806V9.07056H4.75024Z" fill="white"/> </g> <defs> <clipPath id="clip0_4418_7142"> <rect width="24" height="24" fill="white"/> </clipPath> </defs> </svg>
