<svg width="24" height="24" viewBox="0 0 24 24" fill="none" xmlns="http://www.w3.org/2000/svg"> <g clip-path="url(#clip0_4418_6682)"> <path d="M18.61 6.68031C18.2 6.68031 17.86 6.34031 17.86 5.93031V4.42031C17.86 3.82031 17.37 3.32031 16.76 3.32031H3.82999C3.22999 3.32031 2.72999 3.81031 2.72999 4.42031V5.93031C2.72999 6.34031 2.38999 6.68031 1.97999 6.68031C1.56999 6.68031 1.23999 6.34031 1.23999 5.93031V4.42031C1.23999 2.99031 2.40999 1.82031 3.83999 1.82031H16.76C18.19 1.82031 19.36 2.98031 19.36 4.42031V5.93031C19.36 6.34031 19.02 6.68031 18.61 6.68031Z" fill="white"/> <path d="M10.3 18.8503C9.89005 18.8503 9.55005 18.5103 9.55005 18.1003V3.32031C9.55005 2.91031 9.89005 2.57031 10.3 2.57031C10.71 2.57031 11.05 2.91031 11.05 3.32031V18.1003C11.05 18.5203 10.71 18.8503 10.3 18.8503Z" fill="white"/> <path d="M12.4799 18.8496H6.8999C6.4899 18.8496 6.1499 18.5096 6.1499 18.0996C6.1499 17.6896 6.4899 17.3496 6.8999 17.3496H12.4799C12.8899 17.3496 13.2299 17.6896 13.2299 18.0996C13.2299 18.5096 12.8899 18.8496 12.4799 18.8496Z" fill="white"/> <path d="M22.0099 13.2001C21.5999 13.2001 21.2599 12.8601 21.2599 12.4501V11.6501C21.2599 11.3401 20.9999 11.0801 20.6899 11.0801H13.6799C13.2699 11.0801 12.9299 10.7401 12.9299 10.3301C12.9299 9.92008 13.2699 9.58008 13.6799 9.58008H20.6899C21.8299 9.58008 22.7599 10.5101 22.7599 11.6501V12.4501C22.7599 12.8701 22.4299 13.2001 22.0099 13.2001Z" fill="white"/> <path d="M16.0801 22.1801C15.6701 22.1801 15.3301 21.8401 15.3301 21.4301V10.8701C15.3301 10.4601 15.6701 10.1201 16.0801 10.1201C16.4901 10.1201 16.8301 10.4601 16.8301 10.8701V21.4301C16.8301 21.8401 16.4901 22.1801 16.0801 22.1801Z" fill="white"/> <path d="M18.2199 22.1797H13.9399C13.5299 22.1797 13.1899 21.8397 13.1899 21.4297C13.1899 21.0197 13.5299 20.6797 13.9399 20.6797H18.2199C18.6299 20.6797 18.9699 21.0197 18.9699 21.4297C18.9699 21.8397 18.6299 22.1797 18.2199 22.1797Z" fill="white"/> </g> <defs> <clipPath id="clip0_4418_6682"> <rect width="24" height="24" fill="white"/> </clipPath> </defs> </svg>
