<svg width="24" height="24" viewBox="0 0 24 24" fill="none" xmlns="http://www.w3.org/2000/svg"> <g clip-path="url(#clip0_4418_169682)"> <path d="M12.0701 21.9803C10.6601 21.9803 9.24009 21.4403 8.17009 20.3703L3.64009 15.8403C2.54009 14.7403 1.96009 13.2203 2.03009 11.6703L2.27009 6.66032C2.38009 4.27032 4.27009 2.38032 6.67009 2.26032L11.6701 2.02032C13.2301 1.95032 14.7401 2.53032 15.8401 3.63032L20.3701 8.16032C22.5201 10.3103 22.5201 13.8203 20.3701 15.9703L15.9801 20.3603C14.9001 21.4403 13.4901 21.9803 12.0701 21.9803ZM4.70009 14.7703L9.23009 19.3003C10.8001 20.8703 13.3501 20.8703 14.9201 19.3003L19.3101 14.9103C20.8801 13.3403 20.8801 10.7903 19.3101 9.22032L14.7701 4.70032C13.9701 3.90032 12.8801 3.48032 11.7301 3.53032L6.73009 3.77032C5.11009 3.84032 3.84009 5.11032 3.76009 6.73032L3.52009 11.7403C3.47009 12.8603 3.90009 13.9703 4.70009 14.7703Z" fill="white"/> <path d="M9.5 12.75C7.71 12.75 6.25 11.29 6.25 9.5C6.25 7.71 7.71 6.25 9.5 6.25C11.29 6.25 12.75 7.71 12.75 9.5C12.75 11.29 11.29 12.75 9.5 12.75ZM9.5 7.75C8.54 7.75 7.75 8.54 7.75 9.5C7.75 10.46 8.54 11.25 9.5 11.25C10.46 11.25 11.25 10.46 11.25 9.5C11.25 8.54 10.46 7.75 9.5 7.75Z" fill="white"/> <path d="M12.9999 17.7504C12.8099 17.7504 12.6199 17.6804 12.4699 17.5304C12.1799 17.2404 12.1799 16.7604 12.4699 16.4704L16.4699 12.4704C16.7599 12.1804 17.2399 12.1804 17.5299 12.4704C17.8199 12.7604 17.8199 13.2404 17.5299 13.5304L13.5299 17.5304C13.3799 17.6804 13.1899 17.7504 12.9999 17.7504Z" fill="white"/> </g> <defs> <clipPath id="clip0_4418_169682"> <rect width="24" height="24" fill="white"/> </clipPath> </defs> </svg>
