<svg width="24" height="24" viewBox="0 0 24 24" fill="none" xmlns="http://www.w3.org/2000/svg"> <g clip-path="url(#clip0_4418_6684)"> <path d="M21.3299 7.92027C20.9199 7.92027 20.5799 7.58027 20.5799 7.17027V5.35027C20.5799 4.62027 19.9899 4.03027 19.2599 4.03027H4.73992C4.00992 4.03027 3.41992 4.62027 3.41992 5.35027V7.18027C3.41992 7.59027 3.07992 7.93027 2.66992 7.93027C2.25992 7.93027 1.91992 7.59027 1.91992 7.17027V5.35027C1.91992 3.79027 3.18992 2.53027 4.73992 2.53027H19.2599C20.8199 2.53027 22.0799 3.80027 22.0799 5.35027V7.18027C22.0799 7.59027 21.7499 7.92027 21.3299 7.92027Z" fill="white"/> <path d="M12 21.4704C11.59 21.4704 11.25 21.1304 11.25 20.7204V4.11035C11.25 3.70035 11.59 3.36035 12 3.36035C12.41 3.36035 12.75 3.70035 12.75 4.11035V20.7204C12.75 21.1404 12.41 21.4704 12 21.4704Z" fill="white"/> <path d="M15.9401 21.4697H8.06006C7.65006 21.4697 7.31006 21.1297 7.31006 20.7197C7.31006 20.3097 7.65006 19.9697 8.06006 19.9697H15.9401C16.3501 19.9697 16.6901 20.3097 16.6901 20.7197C16.6901 21.1297 16.3501 21.4697 15.9401 21.4697Z" fill="white"/> </g> <defs> <clipPath id="clip0_4418_6684"> <rect width="24" height="24" fill="white"/> </clipPath> </defs> </svg>
