<svg width="24" height="24" viewBox="0 0 24 24" fill="none" xmlns="http://www.w3.org/2000/svg"> <g clip-path="url(#clip0_655_7101)"> <path d="M12.0002 19.42C10.5402 19.42 9.22016 19.12 8.19016 18.55C7.34016 18.13 6.52016 17.57 5.62016 16.8C3.83016 15.02 2.91016 12.8 2.91016 10.34C2.91016 8.81001 3.26016 7.46001 4.00016 6.09001C5.46016 3.16001 8.60016 1.26001 11.9902 1.26001C12.3502 1.26001 12.8302 1.26001 13.2602 1.39001C16.8802 1.90001 19.8702 4.57001 20.7202 8.06001C20.9602 8.76001 21.0702 9.50001 21.0702 10.35C21.0702 13.86 18.9802 17.09 15.7502 18.59C14.6002 19.16 13.4002 19.44 11.9902 19.44L12.0002 19.42ZM12.0002 2.75001C9.18016 2.75001 6.56016 4.33001 5.34016 6.78001C4.70016 7.95001 4.42016 9.04001 4.42016 10.33C4.42016 12.38 5.19016 14.23 6.64016 15.69C7.40016 16.34 8.13016 16.83 8.89016 17.22C9.72016 17.68 10.7902 17.92 12.0002 17.92C13.2102 17.92 14.1602 17.7 15.1102 17.22C17.8402 15.96 19.5802 13.26 19.5802 10.34C19.5802 9.66001 19.4902 9.07001 19.2902 8.47001C18.5702 5.50001 16.0502 3.27001 13.0102 2.87001C12.9602 2.87001 12.9202 2.85001 12.8702 2.84001C12.6502 2.77001 12.2602 2.77001 12.0002 2.77001V2.75001Z" fill="white"/> <path d="M16.1296 22.75H7.86964C7.29964 22.75 6.76964 22.47 6.43964 22.01C6.10964 21.54 6.02964 20.95 6.22964 20.41L7.30964 17.41C7.44964 17.02 7.87964 16.82 8.26964 16.96C8.65964 17.1 8.85964 17.53 8.71964 17.92L7.63964 20.92C7.59964 21.03 7.63964 21.11 7.66964 21.15C7.69964 21.19 7.75964 21.26 7.87964 21.26H16.1496C16.2596 21.26 16.3296 21.19 16.3596 21.15C16.3896 21.11 16.4296 21.03 16.3896 20.92L15.3096 17.92C15.1696 17.53 15.3696 17.1 15.7596 16.96C16.1496 16.82 16.5796 17.02 16.7196 17.41L17.7996 20.41C17.9896 20.94 17.9096 21.54 17.5896 22.01C17.2596 22.48 16.7296 22.75 16.1596 22.75H16.1296Z" fill="white"/> <path d="M12 14.97C11.59 14.97 11.25 14.63 11.25 14.22V6.44C11.25 6.03 11.59 5.69 12 5.69C12.41 5.69 12.75 6.03 12.75 6.44V14.22C12.75 14.63 12.41 14.97 12 14.97Z" fill="white"/> <path d="M8.67028 13.19C8.42028 13.19 8.18028 13.07 8.04028 12.84C7.82028 12.49 7.92028 12.03 8.27028 11.8L14.9403 7.58002C15.2903 7.36002 15.7503 7.46002 15.9803 7.81002C16.2003 8.16002 16.1003 8.62002 15.7503 8.85002L9.08028 13.07C8.96028 13.15 8.82028 13.19 8.68028 13.19H8.67028Z" fill="white"/> <path d="M15.3305 13.19C15.1905 13.19 15.0505 13.15 14.9305 13.07L8.26052 8.85002C7.91052 8.63002 7.81052 8.16002 8.03052 7.81002C8.25052 7.46002 8.71052 7.36002 9.07052 7.58002L15.7405 11.8C16.0905 12.02 16.1905 12.49 15.9705 12.84C15.8305 13.07 15.5805 13.19 15.3405 13.19H15.3305Z" fill="white"/> </g> <defs> <clipPath id="clip0_655_7101"> <rect width="24" height="24" fill="white"/> </clipPath> </defs> </svg>
