<svg width="24" height="24" viewBox="0 0 24 24" fill="none" xmlns="http://www.w3.org/2000/svg"> <g clip-path="url(#clip0_4418_7716)"> <path d="M10.23 21.8807C10.16 21.8807 10.09 21.8807 10.02 21.8607C9.43002 21.7807 8.92997 21.3407 8.65997 20.6607L1.94 3.86074C1.67 3.19074 1.73003 2.54074 2.09003 2.07074C2.46003 1.60074 3.06998 1.38074 3.78998 1.48074L16.76 3.21074C17.11 3.26074 17.52 3.46074 17.77 3.71074L20.9 6.84074C21.51 7.46074 21.58 8.47074 21.04 9.16074L11.66 21.1007C11.26 21.6107 10.75 21.8807 10.23 21.8807ZM3.46002 2.96074C3.34002 2.96074 3.28002 2.99074 3.27002 3.00074C3.27002 3.01074 3.25002 3.12074 3.33002 3.31074L10.05 20.1107C10.13 20.3107 10.22 20.3807 10.23 20.3807C10.24 20.3807 10.34 20.3407 10.47 20.1707L19.85 8.23074C19.92 8.15074 19.91 7.97074 19.83 7.90074L16.7 4.77074C16.68 4.75074 16.59 4.71074 16.55 4.70074L3.59998 2.97074C3.54998 2.96074 3.50002 2.96074 3.46002 2.96074Z" fill="white"/> <path d="M9.99985 21.7507C9.97985 21.7507 9.94984 21.7507 9.92984 21.7507C9.51984 21.7107 9.20985 21.3507 9.24985 20.9407L10.2198 10.3207L2.50986 3.47074C2.19986 3.19074 2.16986 2.72074 2.44986 2.41074C2.72986 2.10074 3.19986 2.07074 3.50986 2.35074L11.4998 9.45074C11.6798 9.61074 11.7698 9.84074 11.7498 10.0807L10.7498 21.0807C10.7098 21.4607 10.3798 21.7507 9.99985 21.7507Z" fill="white"/> <path d="M11.0001 10.7495C10.7301 10.7495 10.4701 10.5995 10.3401 10.3495C10.1801 10.0595 10.24 9.69945 10.47 9.46945L16.47 3.46945C16.76 3.17945 17.2401 3.17945 17.5301 3.46945C17.8201 3.75945 17.8201 4.23945 17.5301 4.52945L13.2801 8.77945L19.8901 7.45945C20.3001 7.37945 20.6901 7.63945 20.7701 8.04945C20.8501 8.45945 20.5901 8.84945 20.1801 8.92945L11.1401 10.7395C11.1001 10.7495 11.0501 10.7495 11.0001 10.7495Z" fill="white"/> </g> <defs> <clipPath id="clip0_4418_7716"> <rect width="24" height="24" fill="white"/> </clipPath> </defs> </svg>
