<svg width="24" height="24" viewBox="0 0 24 24" fill="none" xmlns="http://www.w3.org/2000/svg"> <g clip-path="url(#clip0_655_7111)"> <path d="M18.6698 6.69998C17.6698 6.69998 17.1198 6.43998 16.6898 6.23998C16.3098 6.05998 16.0098 5.91998 15.3398 5.91998C14.6698 5.91998 14.3698 6.05998 13.9898 6.23998C13.5498 6.44998 13.0098 6.69998 12.0098 6.69998C11.0098 6.69998 10.4598 6.43998 10.0298 6.23998C9.64977 6.05998 9.34977 5.91998 8.67977 5.91998C8.00977 5.91998 7.70977 6.05998 7.32977 6.23998C6.88977 6.44998 6.34977 6.69998 5.33977 6.69998C4.32977 6.69998 3.78977 6.43998 3.35977 6.23998C2.97977 6.05998 2.67977 5.91998 2.00977 5.91998C1.59977 5.91998 1.25977 5.57998 1.25977 5.16998C1.25977 4.75998 1.59977 4.41998 2.00977 4.41998C3.00977 4.41998 3.55977 4.67998 3.98977 4.87998C4.36977 5.05998 4.66977 5.19998 5.33977 5.19998C6.00977 5.19998 6.30977 5.05998 6.68977 4.87998C7.12977 4.66998 7.66977 4.41998 8.66977 4.41998C9.66977 4.41998 10.2198 4.67998 10.6598 4.87998C11.0398 5.05998 11.3398 5.19998 12.0098 5.19998C12.6798 5.19998 12.9798 5.05998 13.3598 4.87998C13.7998 4.66998 14.3398 4.41998 15.3498 4.41998C16.3598 4.41998 16.8998 4.67998 17.3298 4.87998C17.7098 5.05998 18.0098 5.19998 18.6798 5.19998C19.3498 5.19998 19.6498 5.05998 20.0298 4.87998C20.4698 4.66998 21.0098 4.41998 22.0098 4.41998C22.4198 4.41998 22.7598 4.75998 22.7598 5.16998C22.7598 5.57998 22.4198 5.91998 22.0098 5.91998C21.3398 5.91998 21.0398 6.05998 20.6598 6.23998C20.2198 6.44998 19.6798 6.69998 18.6698 6.69998Z" fill="white"/> <path d="M5.33008 8.45C4.92008 8.45 4.58008 8.11 4.58008 7.7V5.94C4.58008 5.53 4.92008 5.19 5.33008 5.19C5.74008 5.19 6.08008 5.53 6.08008 5.94V7.7C6.08008 8.11 5.74008 8.45 5.33008 8.45Z" fill="white"/> <path d="M8.66992 5.91002C8.25992 5.91002 7.91992 5.57002 7.91992 5.16002V3.40002C7.91992 2.99002 8.25992 2.65002 8.66992 2.65002C9.07992 2.65002 9.41992 2.99002 9.41992 3.40002V5.16002C9.41992 5.57002 9.07992 5.91002 8.66992 5.91002Z" fill="white"/> <path d="M15.3301 5.91002C14.9201 5.91002 14.5801 5.57002 14.5801 5.16002V3.40002C14.5801 2.99002 14.9201 2.65002 15.3301 2.65002C15.7401 2.65002 16.0801 2.99002 16.0801 3.40002V5.16002C16.0801 5.57002 15.7401 5.91002 15.3301 5.91002Z" fill="white"/> <path d="M12 8.45C11.59 8.45 11.25 8.11 11.25 7.7V5.94C11.25 5.53 11.59 5.19 12 5.19C12.41 5.19 12.75 5.53 12.75 5.94V7.7C12.75 8.11 12.41 8.45 12 8.45Z" fill="white"/> <path d="M18.6699 8.45C18.2599 8.45 17.9199 8.11 17.9199 7.7V5.94C17.9199 5.53 18.2599 5.19 18.6699 5.19C19.0799 5.19 19.4199 5.53 19.4199 5.94V7.7C19.4199 8.11 19.0799 8.45 18.6699 8.45Z" fill="white"/> <path d="M18.6698 10.99C17.6698 10.99 17.1198 10.73 16.6898 10.53C16.3098 10.35 16.0098 10.21 15.3398 10.21C14.6698 10.21 14.3698 10.35 13.9898 10.53C13.5498 10.74 13.0098 10.99 12.0098 10.99C11.0098 10.99 10.4598 10.73 10.0298 10.53C9.64977 10.35 9.34977 10.21 8.67977 10.21C8.00977 10.21 7.70977 10.35 7.32977 10.53C6.88977 10.74 6.34977 10.99 5.33977 10.99C4.32977 10.99 3.78977 10.73 3.35977 10.53C2.97977 10.35 2.67977 10.21 2.00977 10.21C1.59977 10.21 1.25977 9.87002 1.25977 9.46002C1.25977 9.05002 1.59977 8.71002 2.00977 8.71002C3.00977 8.71002 3.55977 8.97002 3.98977 9.17002C4.36977 9.35002 4.66977 9.49002 5.33977 9.49002C6.00977 9.49002 6.30977 9.35002 6.68977 9.17002C7.12977 8.96002 7.66977 8.71002 8.66977 8.71002C9.66977 8.71002 10.2198 8.97002 10.6598 9.17002C11.0398 9.35002 11.3398 9.49002 12.0098 9.49002C12.6798 9.49002 12.9798 9.35002 13.3598 9.17002C13.7998 8.96002 14.3398 8.71002 15.3498 8.71002C16.3598 8.71002 16.8998 8.97002 17.3298 9.17002C17.7098 9.35002 18.0098 9.49002 18.6798 9.49002C19.3498 9.49002 19.6498 9.35002 20.0298 9.17002C20.4698 8.96002 21.0098 8.71002 22.0098 8.71002C22.4198 8.71002 22.7598 9.05002 22.7598 9.46002C22.7598 9.87002 22.4198 10.21 22.0098 10.21C21.3398 10.21 21.0398 10.35 20.6598 10.53C20.2198 10.74 19.6798 10.99 18.6698 10.99Z" fill="white"/> <path d="M5.33008 12.75C4.92008 12.75 4.58008 12.41 4.58008 12V10.24C4.58008 9.82999 4.92008 9.48999 5.33008 9.48999C5.74008 9.48999 6.08008 9.82999 6.08008 10.24V12C6.08008 12.41 5.74008 12.75 5.33008 12.75Z" fill="white"/> <path d="M8.66992 10.21C8.25992 10.21 7.91992 9.87001 7.91992 9.46001V7.70001C7.91992 7.29001 8.25992 6.95001 8.66992 6.95001C9.07992 6.95001 9.41992 7.29001 9.41992 7.70001V9.46001C9.41992 9.87001 9.07992 10.21 8.66992 10.21Z" fill="white"/> <path d="M15.3301 10.21C14.9201 10.21 14.5801 9.87001 14.5801 9.46001V7.70001C14.5801 7.29001 14.9201 6.95001 15.3301 6.95001C15.7401 6.95001 16.0801 7.29001 16.0801 7.70001V9.46001C16.0801 9.87001 15.7401 10.21 15.3301 10.21Z" fill="white"/> <path d="M12 12.75C11.59 12.75 11.25 12.41 11.25 12V10.24C11.25 9.82999 11.59 9.48999 12 9.48999C12.41 9.48999 12.75 9.82999 12.75 10.24V12C12.75 12.41 12.41 12.75 12 12.75Z" fill="white"/> <path d="M18.6699 12.75C18.2599 12.75 17.9199 12.41 17.9199 12V10.24C17.9199 9.82999 18.2599 9.48999 18.6699 9.48999C19.0799 9.48999 19.4199 9.82999 19.4199 10.24V12C19.4199 12.41 19.0799 12.75 18.6699 12.75Z" fill="white"/> <path d="M18.6698 15.29C17.6698 15.29 17.1198 15.03 16.6898 14.83C16.3098 14.65 16.0098 14.51 15.3398 14.51C14.6698 14.51 14.3698 14.65 13.9898 14.83C13.5498 15.04 13.0098 15.29 12.0098 15.29C11.0098 15.29 10.4598 15.03 10.0298 14.83C9.64977 14.65 9.34977 14.51 8.67977 14.51C8.00977 14.51 7.70977 14.65 7.32977 14.83C6.88977 15.04 6.34977 15.29 5.33977 15.29C4.32977 15.29 3.78977 15.03 3.35977 14.83C2.97977 14.65 2.67977 14.51 2.00977 14.51C1.59977 14.51 1.25977 14.17 1.25977 13.76C1.25977 13.35 1.59977 13.01 2.00977 13.01C3.00977 13.01 3.55977 13.27 3.98977 13.47C4.36977 13.65 4.66977 13.79 5.33977 13.79C6.00977 13.79 6.30977 13.65 6.68977 13.47C7.12977 13.26 7.66977 13.01 8.66977 13.01C9.66977 13.01 10.2198 13.27 10.6598 13.47C11.0398 13.65 11.3398 13.79 12.0098 13.79C12.6798 13.79 12.9798 13.65 13.3598 13.47C13.7998 13.26 14.3398 13.01 15.3498 13.01C16.3598 13.01 16.8998 13.27 17.3298 13.47C17.7098 13.65 18.0098 13.79 18.6798 13.79C19.3498 13.79 19.6498 13.65 20.0298 13.47C20.4698 13.26 21.0098 13.01 22.0098 13.01C22.4198 13.01 22.7598 13.35 22.7598 13.76C22.7598 14.17 22.4198 14.51 22.0098 14.51C21.3398 14.51 21.0398 14.65 20.6598 14.83C20.2198 15.04 19.6798 15.29 18.6698 15.29Z" fill="white"/> <path d="M5.33008 17.05C4.92008 17.05 4.58008 16.71 4.58008 16.3V14.54C4.58008 14.13 4.92008 13.79 5.33008 13.79C5.74008 13.79 6.08008 14.13 6.08008 14.54V16.3C6.08008 16.71 5.74008 17.05 5.33008 17.05Z" fill="white"/> <path d="M8.66992 14.51C8.25992 14.51 7.91992 14.17 7.91992 13.76V12C7.91992 11.59 8.25992 11.25 8.66992 11.25C9.07992 11.25 9.41992 11.59 9.41992 12V13.76C9.41992 14.17 9.07992 14.51 8.66992 14.51Z" fill="white"/> <path d="M15.3301 14.51C14.9201 14.51 14.5801 14.17 14.5801 13.76V12C14.5801 11.59 14.9201 11.25 15.3301 11.25C15.7401 11.25 16.0801 11.59 16.0801 12V13.76C16.0801 14.17 15.7401 14.51 15.3301 14.51Z" fill="white"/> <path d="M12 17.05C11.59 17.05 11.25 16.71 11.25 16.3V14.54C11.25 14.13 11.59 13.79 12 13.79C12.41 13.79 12.75 14.13 12.75 14.54V16.3C12.75 16.71 12.41 17.05 12 17.05Z" fill="white"/> <path d="M18.6699 17.05C18.2599 17.05 17.9199 16.71 17.9199 16.3V14.54C17.9199 14.13 18.2599 13.79 18.6699 13.79C19.0799 13.79 19.4199 14.13 19.4199 14.54V16.3C19.4199 16.71 19.0799 17.05 18.6699 17.05Z" fill="white"/> <path d="M18.6698 19.59C17.6698 19.59 17.1198 19.33 16.6898 19.13C16.3098 18.95 16.0098 18.81 15.3398 18.81C14.6698 18.81 14.3698 18.95 13.9898 19.13C13.5498 19.34 13.0098 19.59 12.0098 19.59C11.0098 19.59 10.4598 19.33 10.0298 19.13C9.64977 18.95 9.34977 18.81 8.67977 18.81C8.00977 18.81 7.70977 18.95 7.32977 19.13C6.88977 19.34 6.34977 19.59 5.33977 19.59C4.32977 19.59 3.78977 19.33 3.35977 19.13C2.97977 18.95 2.67977 18.81 2.00977 18.81C1.59977 18.81 1.25977 18.47 1.25977 18.06C1.25977 17.65 1.59977 17.31 2.00977 17.31C3.00977 17.31 3.55977 17.57 3.98977 17.77C4.36977 17.95 4.66977 18.09 5.33977 18.09C6.00977 18.09 6.30977 17.95 6.68977 17.77C7.12977 17.56 7.66977 17.31 8.66977 17.31C9.66977 17.31 10.2198 17.57 10.6598 17.77C11.0398 17.95 11.3398 18.09 12.0098 18.09C12.6798 18.09 12.9798 17.95 13.3598 17.77C13.7998 17.56 14.3398 17.31 15.3498 17.31C16.3598 17.31 16.8998 17.57 17.3298 17.77C17.7098 17.95 18.0098 18.09 18.6798 18.09C19.3498 18.09 19.6498 17.95 20.0298 17.77C20.4698 17.56 21.0098 17.31 22.0098 17.31C22.4198 17.31 22.7598 17.65 22.7598 18.06C22.7598 18.47 22.4198 18.81 22.0098 18.81C21.3398 18.81 21.0398 18.95 20.6598 19.13C20.2198 19.34 19.6798 19.59 18.6698 19.59Z" fill="white"/> <path d="M5.33008 21.34C4.92008 21.34 4.58008 21 4.58008 20.59V18.83C4.58008 18.42 4.92008 18.08 5.33008 18.08C5.74008 18.08 6.08008 18.42 6.08008 18.83V20.59C6.08008 21 5.74008 21.34 5.33008 21.34Z" fill="white"/> <path d="M8.66992 18.8C8.25992 18.8 7.91992 18.46 7.91992 18.05V16.29C7.91992 15.88 8.25992 15.54 8.66992 15.54C9.07992 15.54 9.41992 15.88 9.41992 16.29V18.05C9.41992 18.46 9.07992 18.8 8.66992 18.8Z" fill="white"/> <path d="M15.3301 18.8C14.9201 18.8 14.5801 18.46 14.5801 18.05V16.29C14.5801 15.88 14.9201 15.54 15.3301 15.54C15.7401 15.54 16.0801 15.88 16.0801 16.29V18.05C16.0801 18.46 15.7401 18.8 15.3301 18.8Z" fill="white"/> <path d="M12 21.34C11.59 21.34 11.25 21 11.25 20.59V18.83C11.25 18.42 11.59 18.08 12 18.08C12.41 18.08 12.75 18.42 12.75 18.83V20.59C12.75 21 12.41 21.34 12 21.34Z" fill="white"/> <path d="M18.6699 21.34C18.2599 21.34 17.9199 21 17.9199 20.59V18.83C17.9199 18.42 18.2599 18.08 18.6699 18.08C19.0799 18.08 19.4199 18.42 19.4199 18.83V20.59C19.4199 21 19.0799 21.34 18.6699 21.34Z" fill="white"/> </g> <defs> <clipPath id="clip0_655_7111"> <rect width="24" height="24" fill="white"/> </clipPath> </defs> </svg>
